<?xml version="1.0" encoding="UTF-8" standalone="no"?>
<svg
   width="24"
   height="24"
   viewBox="0 0 24 24"
   version="1.1"
   id="svg4"
   sodipodi:docname="hazard.svg"
   inkscape:version="1.4.3 (0d15f75, 2025-12-25)"
   xmlns:inkscape="http://www.inkscape.org/namespaces/inkscape"
   xmlns:sodipodi="http://sodipodi.sourceforge.net/DTD/sodipodi-0.dtd"
   xmlns="http://www.w3.org/2000/svg"
   xmlns:svg="http://www.w3.org/2000/svg">
  <defs
     id="defs4" />
  <sodipodi:namedview
     id="namedview4"
     pagecolor="#505050"
     bordercolor="#ffffff"
     borderopacity="1"
     inkscape:showpageshadow="0"
     inkscape:pageopacity="0"
     inkscape:pagecheckerboard="1"
     inkscape:deskcolor="#505050"
     inkscape:zoom="23.5113"
     inkscape:cx="9.2296045"
     inkscape:cy="12.249429"
     inkscape:window-width="1920"
     inkscape:window-height="991"
     inkscape:window-x="-9"
     inkscape:window-y="-9"
     inkscape:window-maximized="1"
     inkscape:current-layer="svg4" />
  <!-- Halo triangle -->
  <path
     id="path1"
     style="fill:#e66e00"
     d="M 12 3 L 3 19 L 21 19 L 12 3 z M 12 5.1992188 L 19.199219 18 L 4.8007812 18 L 12 5.1992188 z M 11.300781 9.1054688 L 11.300781 13.605469 L 12.699219 13.605469 L 12.699219 9.1054688 L 11.300781 9.1054688 z M 11.300781 15.304688 L 11.300781 16.705078 L 12.699219 16.705078 L 12.699219 15.304688 L 11.300781 15.304688 z " />
  <!-- Inner triangle -->
  <path
     fill="#ffffff"
     d="m 11.3,9.1052632 h 1.4 v 4.4999998 h -1.4 z"
     id="path3" />
  <!-- Exclamation bar -->
  <!-- Exclamation dot -->
  <path
     fill="#ffffff"
     d="m 11.3,15.305263 h 1.4 v 1.4 h -1.4 z"
     id="path4" />
  <path
     id="path2"
     d="M 12,5.1992188 4.8007812,18 H 19.199219 Z m -0.699219,3.90625 h 1.398438 v 4.5000002 h -1.398438 z m 0,6.1992192 h 1.398438 v 1.40039 h -1.398438 z" />
</svg>
