<svg width="800" height="320" viewBox="0 0 800 320" xmlns="http://www.w3.org/2000/svg">
        <defs>
            <linearGradient id="fillGrad" x1="0%" y1="0%" x2="0%" y2="100%">
                <stop offset="0%" style="stop-color:#8e44ad;stop-opacity:0.3" />
                <stop offset="100%" style="stop-color:#8e44ad;stop-opacity:0" />
            </linearGradient>
            <filter id="shadow" x="0" y="0" width="200%" height="200%">
              <feDropShadow dx="0" dy="2" stdDeviation="2" flood-opacity="0.2"/>
            </filter>
        </defs>

        <rect x="70" y="40" width="660" height="210" fill="#ffffff" />
        <line x1="70" y1="93.65149999999983" x2="730" y2="93.65149999999983" stroke="#eee" stroke-dasharray="4"/>
        <line x1="70" y1="250.0" x2="730" y2="250.0" stroke="#eee" stroke-dasharray="4"/>

        <polygon points="70,250 70.0,250.0 72.17775556726932,249.11799999999977 74.36002929961596,248.23949999999985 76.53778486688527,247.36449999999985 78.72005859923192,246.49299999999977 80.73967838879496,245.62849999999992 82.76381634343531,244.7709999999999 84.78343613299835,243.92749999999995 86.80305592256138,243.084 88.82719387720175,242.2265 90.85584999691943,241.34099999999984 92.8799879515598,240.42400000000004 95.11196149975697,239.46849999999995 97.34393504795416,238.5025000000001 99.57139043107402,237.55749999999978 101.80336397927121,236.65450000000004 104.03081936239107,235.7935000000001 106.26279291058825,234.957 108.4902482937081,234.13449999999995 110.7222218419053,233.30149999999975 112.95419539010247,232.416 115.18165077322234,231.4360000000001 117.41362432141952,230.35099999999989 119.6410797045394,229.17149999999992 121.87305325273657,227.90450000000004 124.10502680093376,226.543 126.33248218405362,225.07999999999998 128.5644557322508,223.50499999999982 130.79191111537068,221.84600000000006 133.02388466356786,220.12049999999988 135.25585821176503,218.34249999999975 137.48331359488492,216.54700000000003 139.615887511381,214.76200000000006 141.7484614278771,212.99450000000007 143.88103534437317,211.28299999999996 146.09041806718375,209.65549999999985 148.29980078999432,208.12950000000012 150.5091835128049,206.70499999999998 152.48362165159472,205.39949999999982 154.46257795546185,204.21649999999994 156.43701609425165,203.1454999999998 158.4159723981188,202.15499999999975 160.39041053690863,201.21700000000004 162.36936684077574,200.30349999999976 164.61489488420492,199.4145000000001 166.85590476255675,198.53599999999977 169.1014328059859,197.6645000000001 171.34696084941504,196.80700000000007 173.5924888928442,195.96700000000004 175.833498771196,195.1479999999999 178.07902681462517,194.32899999999978 180.32455485805434,193.51349999999996 182.57008290148346,192.69099999999992 184.74332030367546,191.88249999999994 186.91655770586743,191.1055 189.09431327313678,190.39149999999978 191.26755067532878,189.76499999999987 193.44078807752078,189.2469999999998 195.61854364479007,188.834 197.79178104698207,188.50849999999974 199.96501844917407,188.23899999999975 201.90331126734532,187.99050000000005 203.84612225059388,187.73850000000004 205.7844150687651,187.4584999999999 207.72270788693635,187.15050000000002 209.6610007051076,186.80399999999986 211.59929352327882,186.4154999999999 213.68216762392436,185.98500000000013 215.76504172456993,185.50549999999993 217.84791582521547,184.96649999999994 219.930789925861,184.35750000000002 222.01366402650658,183.67149999999992 224.137201612848,182.8945 226.2607391991895,182.01600000000008 228.38427678553091,181.03249999999986 230.50781437187237,179.94400000000013 232.63135195821383,178.76449999999977 234.75488954455525,177.5184999999998 236.88294529597405,176.21999999999986 238.87997426015045,174.88649999999996 240.8815213894042,173.53199999999975 242.88306851865798,172.16349999999989 244.88461564791172,170.78799999999978 246.88164461208817,169.4194999999999 248.8831917413419,168.06850000000003 250.88473887059564,166.7489999999998 252.88628599984938,165.45399999999978 254.92397844972172,164.17649999999975 256.9616708995941,162.90250000000003 259.00388151454365,161.5829999999998 261.041573964416,160.17600000000004 263.0792664142883,158.62900000000002 265.121477029238,156.93149999999997 267.2992325965073,155.06949999999983 269.4815063288539,153.09899999999988 271.66378006120055,151.09000000000003 273.8460537935473,149.0845000000001 276.02832752589387,147.14900000000011 277.98469300437444,145.31850000000003 279.9455766479323,143.59649999999976 281.90646029149013,141.96199999999982 283.867343935048,140.38700000000006 285.9592543658482,138.84349999999995 288.05568296172567,137.30700000000007 290.1475933925259,135.7915000000001 292.17624951224354,134.30049999999994 294.20038746688397,132.81650000000002 296.2245254215243,131.33949999999993 298.24866337616464,129.8555 300.272801330805,128.34000000000003 302.30145745052266,126.8105 304.3255954051631,125.2879999999998 306.3497333598034,123.7935000000001 308.37387131444376,122.33749999999993 310.1178830342902,120.95499999999998 311.8573765890592,119.5829999999998 313.6013883089056,118.13399999999984 315.3544363589066,116.5415000000001 317.1074844089076,114.7915000000001 319.3484942872594,112.88749999999976 321.5895041656113,110.91349999999989 323.8259958788858,108.96049999999991 326.0670057572376,107.15100000000012 328.30801563558947,105.58650000000011 330.54450734886393,104.43499999999989 332.7855172272158,103.70350000000008 335.02652710556765,103.38500000000005 337.2630188188421,103.46199999999982 339.504028697194,103.88199999999983 341.2344859218084,104.6450000000001 342.9649431464228,105.74399999999997 344.69540037103724,107.19649999999984 346.43037576072896,108.91149999999988 348.3822230741321,110.81900000000013 350.33407038753535,112.84899999999988 352.2859177009385,114.98749999999984 353.93052978908383,117.19950000000006 355.57062371215176,119.42899999999986 357.21523580029714,121.61999999999978 359.28003724063336,123.78649999999986 361.349356846047,125.94599999999974 363.4141582863832,128.0845000000001 365.4834778917968,130.07949999999988 367.548279332133,131.84699999999987 369.61759893754663,133.26449999999977 371.6101097366457,134.32850000000008 373.6071387008222,134.96199999999982 375.6041676649986,135.123 377.60119662917504,134.8535 379.29550853317085,134.1674999999999 380.98982043716666,133.12799999999982 382.6841323411625,131.80849999999998 384.37844424515833,130.25800000000004 386.5923451330463,128.53599999999977 388.8017278558569,126.64949999999983 391.0111105786674,124.62649999999991 393.2250114665553,122.48100000000011 395.43439418936583,120.26200000000006 397.64829507725375,118.03249999999986 399.8576778000644,115.77849999999984 401.9631427260965,113.55249999999995 404.0640894870514,111.40699999999975 406.16955441308346,109.36299999999994 408.2750193391157,107.43099999999987 410.3759661000705,105.60750000000002 412.48143102610265,103.86099999999993 414.58689595213485,102.19499999999994 416.69236087816705,100.6024999999998 418.79330763912185,99.1044999999998 420.898772565154,97.79550000000012 423.00423749118613,96.78399999999976 425.2497655346153,96.16099999999977 427.49981174312177,95.9579999999998 429.74533978655097,96.13649999999996 431.9953859950574,96.61599999999976 434.24091403848655,97.28099999999995 436.31926997405475,98.00549999999993 438.39310774454566,98.6880000000001 440.4714636801139,99.32499999999976 442.5453014506048,99.96199999999982 444.623657386173,100.62700000000001 446.7020133217413,101.31650000000002 448.7758510922322,101.98149999999981 450.8542070278004,102.55199999999985 452.93256296336864,102.95099999999996 454.9973644037049,103.11199999999974 457.0666840091185,102.9790000000001 459.1314854494547,102.5625 461.20080505486834,101.92549999999994 463.26560649520457,101.1450000000001 465.3349261006182,100.26299999999986 467.40424570603176,99.332 469.46904714636804,98.37999999999982 471.5383667517816,97.42800000000005 473.76582213490144,96.49699999999979 475.9977956830986,95.59749999999997 478.2297692312958,94.77849999999984 480.4572246144157,94.11350000000004 482.68919816261285,93.71449999999993 484.9211717108101,93.65149999999983 487.1486270939299,93.95249999999987 489.2676465151941,94.63500000000005 491.3866659364582,95.67800000000005 493.5056853577223,97.03599999999977 495.6247047789864,98.63549999999975 497.7301697050186,100.4169999999998 499.84015279612805,102.34549999999996 501.94561772216025,104.44200000000012 504.0510826481924,106.69249999999982 506.1610657393019,109.0619999999999 508.266530665334,111.51549999999997 510.3719955913662,114.01449999999977 512.2696249238415,116.49599999999998 514.1672542563169,118.92149999999992 516.0648835887922,121.2279999999999 517.9625129212675,123.36999999999978 519.8601422537429,125.2915000000001 522.0107888305482,126.98899999999975 524.1614354073538,128.43099999999987 526.3075638190817,129.64199999999988 528.4582103958871,130.63949999999977 530.5772298171512,131.44449999999983 532.7007674034927,132.08850000000012 534.8197868247569,132.63100000000003 536.5999438652218,133.0825000000001 538.3846190707641,133.4395 540.164776111229,133.63900000000007 541.9449331516939,133.66349999999989 544.1994975252778,133.5200000000001 546.4585800639388,133.4360000000001 548.7131444375227,133.10000000000008 550.9677088111065,132.09200000000004 553.2222731846903,130.29999999999984 555.476837558274,127.83949999999993 557.5145300081464,124.97300000000006 559.5522224580187,122.0610000000001 561.5944330729683,119.541 563.6321255228406,117.89249999999998 565.669817972713,117.54949999999974 567.7075104225853,118.95649999999989 569.749721037535,121.82299999999975 571.7874134874073,125.86899999999996 573.8251059372797,130.99650000000008 575.9621980188531,137.05849999999998 578.0992901004265,143.8939999999999 580.2363821819999,151.32799999999997 582.3734742635734,159.15749999999986 584.5105663451468,167.17600000000004 586.6476584267201,175.21900000000005 588.7847505082935,183.24099999999976 590.8585882787844,191.12999999999982 592.9324260492754,198.89999999999992 595.001745654689,206.52649999999983 597.0755834251798,213.96399999999983 599.1494211956708,221.11799999999977 601.3723584137133,227.8555 603.5907774666786,233.96999999999986 605.8137146847212,239.27950000000004 608.0321337376863,243.61950000000007 610.2550709557288,246.85000000000008 612.4734900086941,248.71549999999974 614.6964272267365,248.77849999999984 616.9148462797018,247.36099999999993 619.1332653326671,244.98450000000003 621.3878297062508,242.11799999999977 623.6423940798346,239.19899999999996 625.8969584534184,236.59849999999977 628.1515228270022,234.5825000000001 630.406087200586,233.2489999999998 632.6606515741698,232.48250000000002 634.6847895288101,231.86299999999994 636.7089274834505,230.86899999999997 638.7330654380909,229.7489999999998 640.7617215578085,228.56599999999992 642.785859512449,227.32699999999977 644.8099974670893,226.00749999999994 646.7031086344873,224.61099999999993 648.6007379669626,223.13749999999976 650.498367299438,221.57999999999998 652.5405779143877,219.9559999999998 654.5827885293372,218.25849999999974 656.6249991442869,216.5014999999999 658.6717279243139,214.72349999999977 660.7139385392636,212.96649999999994 662.8419942906824,211.25499999999982 664.9745682071783,209.61000000000013 667.1026239585972,208.05249999999995 669.2306797100159,206.586 671.3632536265121,205.2104999999999 673.4913093779309,203.93299999999988 675.6193651293496,202.75 677.7519390458457,201.6474999999998 679.8799947972644,200.61150000000004 682.0080505486833,199.6454999999998 684.1406244651794,198.73549999999983 686.2686802165981,197.86399999999975 688.4012541330942,197.03799999999978 690.3892467671159,196.23300000000012 692.3772394011378,195.45249999999987 694.3652320351596,194.69649999999984 696.3532246691814,193.9579999999998 698.3457354682805,193.23349999999982 700.3337281023022,192.51249999999976 702.321720736324,191.8125 704.481403643284,191.1264999999999 706.641086550244,190.44750000000005 708.8052876222814,189.78599999999977 710.9649705292414,189.14199999999988 713.1246534362015,188.5224999999998 715.2843363431615,187.93099999999987 717.4485374151989,187.36399999999975 719.6082203221589,186.82149999999984 721.7679032291189,186.3139999999999 723.927586136079,185.8309999999998 726.0872690430389,185.37950000000012 728.0436345215195,184.9559999999998 730.0,184.5605 730.0,250" fill="url(#fillGrad)" />
        <polyline points="70.0,250.0 72.17775556726932,249.11799999999977 74.36002929961596,248.23949999999985 76.53778486688527,247.36449999999985 78.72005859923192,246.49299999999977 80.73967838879496,245.62849999999992 82.76381634343531,244.7709999999999 84.78343613299835,243.92749999999995 86.80305592256138,243.084 88.82719387720175,242.2265 90.85584999691943,241.34099999999984 92.8799879515598,240.42400000000004 95.11196149975697,239.46849999999995 97.34393504795416,238.5025000000001 99.57139043107402,237.55749999999978 101.80336397927121,236.65450000000004 104.03081936239107,235.7935000000001 106.26279291058825,234.957 108.4902482937081,234.13449999999995 110.7222218419053,233.30149999999975 112.95419539010247,232.416 115.18165077322234,231.4360000000001 117.41362432141952,230.35099999999989 119.6410797045394,229.17149999999992 121.87305325273657,227.90450000000004 124.10502680093376,226.543 126.33248218405362,225.07999999999998 128.5644557322508,223.50499999999982 130.79191111537068,221.84600000000006 133.02388466356786,220.12049999999988 135.25585821176503,218.34249999999975 137.48331359488492,216.54700000000003 139.615887511381,214.76200000000006 141.7484614278771,212.99450000000007 143.88103534437317,211.28299999999996 146.09041806718375,209.65549999999985 148.29980078999432,208.12950000000012 150.5091835128049,206.70499999999998 152.48362165159472,205.39949999999982 154.46257795546185,204.21649999999994 156.43701609425165,203.1454999999998 158.4159723981188,202.15499999999975 160.39041053690863,201.21700000000004 162.36936684077574,200.30349999999976 164.61489488420492,199.4145000000001 166.85590476255675,198.53599999999977 169.1014328059859,197.6645000000001 171.34696084941504,196.80700000000007 173.5924888928442,195.96700000000004 175.833498771196,195.1479999999999 178.07902681462517,194.32899999999978 180.32455485805434,193.51349999999996 182.57008290148346,192.69099999999992 184.74332030367546,191.88249999999994 186.91655770586743,191.1055 189.09431327313678,190.39149999999978 191.26755067532878,189.76499999999987 193.44078807752078,189.2469999999998 195.61854364479007,188.834 197.79178104698207,188.50849999999974 199.96501844917407,188.23899999999975 201.90331126734532,187.99050000000005 203.84612225059388,187.73850000000004 205.7844150687651,187.4584999999999 207.72270788693635,187.15050000000002 209.6610007051076,186.80399999999986 211.59929352327882,186.4154999999999 213.68216762392436,185.98500000000013 215.76504172456993,185.50549999999993 217.84791582521547,184.96649999999994 219.930789925861,184.35750000000002 222.01366402650658,183.67149999999992 224.137201612848,182.8945 226.2607391991895,182.01600000000008 228.38427678553091,181.03249999999986 230.50781437187237,179.94400000000013 232.63135195821383,178.76449999999977 234.75488954455525,177.5184999999998 236.88294529597405,176.21999999999986 238.87997426015045,174.88649999999996 240.8815213894042,173.53199999999975 242.88306851865798,172.16349999999989 244.88461564791172,170.78799999999978 246.88164461208817,169.4194999999999 248.8831917413419,168.06850000000003 250.88473887059564,166.7489999999998 252.88628599984938,165.45399999999978 254.92397844972172,164.17649999999975 256.9616708995941,162.90250000000003 259.00388151454365,161.5829999999998 261.041573964416,160.17600000000004 263.0792664142883,158.62900000000002 265.121477029238,156.93149999999997 267.2992325965073,155.06949999999983 269.4815063288539,153.09899999999988 271.66378006120055,151.09000000000003 273.8460537935473,149.0845000000001 276.02832752589387,147.14900000000011 277.98469300437444,145.31850000000003 279.9455766479323,143.59649999999976 281.90646029149013,141.96199999999982 283.867343935048,140.38700000000006 285.9592543658482,138.84349999999995 288.05568296172567,137.30700000000007 290.1475933925259,135.7915000000001 292.17624951224354,134.30049999999994 294.20038746688397,132.81650000000002 296.2245254215243,131.33949999999993 298.24866337616464,129.8555 300.272801330805,128.34000000000003 302.30145745052266,126.8105 304.3255954051631,125.2879999999998 306.3497333598034,123.7935000000001 308.37387131444376,122.33749999999993 310.1178830342902,120.95499999999998 311.8573765890592,119.5829999999998 313.6013883089056,118.13399999999984 315.3544363589066,116.5415000000001 317.1074844089076,114.7915000000001 319.3484942872594,112.88749999999976 321.5895041656113,110.91349999999989 323.8259958788858,108.96049999999991 326.0670057572376,107.15100000000012 328.30801563558947,105.58650000000011 330.54450734886393,104.43499999999989 332.7855172272158,103.70350000000008 335.02652710556765,103.38500000000005 337.2630188188421,103.46199999999982 339.504028697194,103.88199999999983 341.2344859218084,104.6450000000001 342.9649431464228,105.74399999999997 344.69540037103724,107.19649999999984 346.43037576072896,108.91149999999988 348.3822230741321,110.81900000000013 350.33407038753535,112.84899999999988 352.2859177009385,114.98749999999984 353.93052978908383,117.19950000000006 355.57062371215176,119.42899999999986 357.21523580029714,121.61999999999978 359.28003724063336,123.78649999999986 361.349356846047,125.94599999999974 363.4141582863832,128.0845000000001 365.4834778917968,130.07949999999988 367.548279332133,131.84699999999987 369.61759893754663,133.26449999999977 371.6101097366457,134.32850000000008 373.6071387008222,134.96199999999982 375.6041676649986,135.123 377.60119662917504,134.8535 379.29550853317085,134.1674999999999 380.98982043716666,133.12799999999982 382.6841323411625,131.80849999999998 384.37844424515833,130.25800000000004 386.5923451330463,128.53599999999977 388.8017278558569,126.64949999999983 391.0111105786674,124.62649999999991 393.2250114665553,122.48100000000011 395.43439418936583,120.26200000000006 397.64829507725375,118.03249999999986 399.8576778000644,115.77849999999984 401.9631427260965,113.55249999999995 404.0640894870514,111.40699999999975 406.16955441308346,109.36299999999994 408.2750193391157,107.43099999999987 410.3759661000705,105.60750000000002 412.48143102610265,103.86099999999993 414.58689595213485,102.19499999999994 416.69236087816705,100.6024999999998 418.79330763912185,99.1044999999998 420.898772565154,97.79550000000012 423.00423749118613,96.78399999999976 425.2497655346153,96.16099999999977 427.49981174312177,95.9579999999998 429.74533978655097,96.13649999999996 431.9953859950574,96.61599999999976 434.24091403848655,97.28099999999995 436.31926997405475,98.00549999999993 438.39310774454566,98.6880000000001 440.4714636801139,99.32499999999976 442.5453014506048,99.96199999999982 444.623657386173,100.62700000000001 446.7020133217413,101.31650000000002 448.7758510922322,101.98149999999981 450.8542070278004,102.55199999999985 452.93256296336864,102.95099999999996 454.9973644037049,103.11199999999974 457.0666840091185,102.9790000000001 459.1314854494547,102.5625 461.20080505486834,101.92549999999994 463.26560649520457,101.1450000000001 465.3349261006182,100.26299999999986 467.40424570603176,99.332 469.46904714636804,98.37999999999982 471.5383667517816,97.42800000000005 473.76582213490144,96.49699999999979 475.9977956830986,95.59749999999997 478.2297692312958,94.77849999999984 480.4572246144157,94.11350000000004 482.68919816261285,93.71449999999993 484.9211717108101,93.65149999999983 487.1486270939299,93.95249999999987 489.2676465151941,94.63500000000005 491.3866659364582,95.67800000000005 493.5056853577223,97.03599999999977 495.6247047789864,98.63549999999975 497.7301697050186,100.4169999999998 499.84015279612805,102.34549999999996 501.94561772216025,104.44200000000012 504.0510826481924,106.69249999999982 506.1610657393019,109.0619999999999 508.266530665334,111.51549999999997 510.3719955913662,114.01449999999977 512.2696249238415,116.49599999999998 514.1672542563169,118.92149999999992 516.0648835887922,121.2279999999999 517.9625129212675,123.36999999999978 519.8601422537429,125.2915000000001 522.0107888305482,126.98899999999975 524.1614354073538,128.43099999999987 526.3075638190817,129.64199999999988 528.4582103958871,130.63949999999977 530.5772298171512,131.44449999999983 532.7007674034927,132.08850000000012 534.8197868247569,132.63100000000003 536.5999438652218,133.0825000000001 538.3846190707641,133.4395 540.164776111229,133.63900000000007 541.9449331516939,133.66349999999989 544.1994975252778,133.5200000000001 546.4585800639388,133.4360000000001 548.7131444375227,133.10000000000008 550.9677088111065,132.09200000000004 553.2222731846903,130.29999999999984 555.476837558274,127.83949999999993 557.5145300081464,124.97300000000006 559.5522224580187,122.0610000000001 561.5944330729683,119.541 563.6321255228406,117.89249999999998 565.669817972713,117.54949999999974 567.7075104225853,118.95649999999989 569.749721037535,121.82299999999975 571.7874134874073,125.86899999999996 573.8251059372797,130.99650000000008 575.9621980188531,137.05849999999998 578.0992901004265,143.8939999999999 580.2363821819999,151.32799999999997 582.3734742635734,159.15749999999986 584.5105663451468,167.17600000000004 586.6476584267201,175.21900000000005 588.7847505082935,183.24099999999976 590.8585882787844,191.12999999999982 592.9324260492754,198.89999999999992 595.001745654689,206.52649999999983 597.0755834251798,213.96399999999983 599.1494211956708,221.11799999999977 601.3723584137133,227.8555 603.5907774666786,233.96999999999986 605.8137146847212,239.27950000000004 608.0321337376863,243.61950000000007 610.2550709557288,246.85000000000008 612.4734900086941,248.71549999999974 614.6964272267365,248.77849999999984 616.9148462797018,247.36099999999993 619.1332653326671,244.98450000000003 621.3878297062508,242.11799999999977 623.6423940798346,239.19899999999996 625.8969584534184,236.59849999999977 628.1515228270022,234.5825000000001 630.406087200586,233.2489999999998 632.6606515741698,232.48250000000002 634.6847895288101,231.86299999999994 636.7089274834505,230.86899999999997 638.7330654380909,229.7489999999998 640.7617215578085,228.56599999999992 642.785859512449,227.32699999999977 644.8099974670893,226.00749999999994 646.7031086344873,224.61099999999993 648.6007379669626,223.13749999999976 650.498367299438,221.57999999999998 652.5405779143877,219.9559999999998 654.5827885293372,218.25849999999974 656.6249991442869,216.5014999999999 658.6717279243139,214.72349999999977 660.7139385392636,212.96649999999994 662.8419942906824,211.25499999999982 664.9745682071783,209.61000000000013 667.1026239585972,208.05249999999995 669.2306797100159,206.586 671.3632536265121,205.2104999999999 673.4913093779309,203.93299999999988 675.6193651293496,202.75 677.7519390458457,201.6474999999998 679.8799947972644,200.61150000000004 682.0080505486833,199.6454999999998 684.1406244651794,198.73549999999983 686.2686802165981,197.86399999999975 688.4012541330942,197.03799999999978 690.3892467671159,196.23300000000012 692.3772394011378,195.45249999999987 694.3652320351596,194.69649999999984 696.3532246691814,193.9579999999998 698.3457354682805,193.23349999999982 700.3337281023022,192.51249999999976 702.321720736324,191.8125 704.481403643284,191.1264999999999 706.641086550244,190.44750000000005 708.8052876222814,189.78599999999977 710.9649705292414,189.14199999999988 713.1246534362015,188.5224999999998 715.2843363431615,187.93099999999987 717.4485374151989,187.36399999999975 719.6082203221589,186.82149999999984 721.7679032291189,186.3139999999999 723.927586136079,185.8309999999998 726.0872690430389,185.37950000000012 728.0436345215195,184.9559999999998 730.0,184.5605" fill="none" stroke="#8e44ad" stroke-width="3" stroke-linejoin="round" filter="url(#shadow)"/>
        
        <text x="55" y="93.65149999999983" font-family="Arial" font-size="11" text-anchor="end" fill="#666">0'</text>
        <text x="55" y="250.0" font-family="Arial" font-size="11" text-anchor="end" fill="#666">0'</text>
        
        <text x="70" y="25" font-family="Segoe UI, Arial" font-size="14" font-weight="bold" fill="#2c3e50">ID: 20 | EXTREME</text>
        <text x="730" y="25" font-family="Segoe UI, Arial" font-size="14" font-weight="bold" text-anchor="end" fill="#2c3e50">GAIN: 0 FT</text>

        <line x1="70" y1="250" x2="730.0" y2="250" stroke="#444" stroke-width="2"/>
        <line x1="70.0" y1="250" x2="70.0" y2="265" stroke="#444" stroke-width="1.5"/><text x="70.0" y="282" font-family="Segoe UI, Arial" font-size="12" text-anchor="middle" font-weight="600" fill="#444">0 mi</text><line x1="433.5640929099037" y1="250" x2="433.5640929099037" y2="258" stroke="#444" stroke-width="1.5"/>
    </svg>