<svg viewBox="0 0 1200 225" xmlns="http://www.w3.org/2000/svg"><line x1="50.00" y1="20" x2="50.00" y2="195" stroke="#333333ff" stroke-width="1.2" stroke-dasharray="2,4" stroke-opacity="0.3" /><line x1="387.91" y1="20" x2="387.91" y2="195" stroke="#333333ff" stroke-width="1.2" stroke-dasharray="2,4" stroke-opacity="0.3" /><line x1="725.82" y1="20" x2="725.82" y2="195" stroke="#333333ff" stroke-width="1.2" stroke-dasharray="2,4" stroke-opacity="0.3" /><line x1="1063.73" y1="20" x2="1063.73" y2="195" stroke="#333333ff" stroke-width="1.2" stroke-dasharray="2,4" stroke-opacity="0.3" /><polygon points="50.00,195 50.00,185.04 50.94,185.23 51.89,185.45 52.83,185.70 53.77,185.97 54.71,186.27 55.66,186.59 56.60,186.93 57.54,187.28 58.48,187.65 59.42,188.04 60.37,188.48 61.31,188.95 62.25,189.41 63.19,189.81 64.13,190.15 65.08,190.46 66.02,190.81 66.97,191.22 67.91,191.65 68.85,192.11 69.79,192.59 70.73,193.08 71.68,193.53 72.62,193.92 73.56,194.26 74.50,194.53 75.45,194.73 75.45,195" fill="#236ea0" fill-opacity="0.3" /><polyline points="50.00,185.04 50.94,185.23 51.89,185.45 52.83,185.70 53.77,185.97 54.71,186.27 55.66,186.59 56.60,186.93 57.54,187.28 58.48,187.65 59.42,188.04 60.37,188.48 61.31,188.95 62.25,189.41 63.19,189.81 64.13,190.15 65.08,190.46 66.02,190.81 66.97,191.22 67.91,191.65 68.85,192.11 69.79,192.59 70.73,193.08 71.68,193.53 72.62,193.92 73.56,194.26 74.50,194.53 75.45,194.73" fill="none" stroke="#236ea0" stroke-width="2" stroke-linecap="round" stroke-linejoin="round" /><polygon points="75.45,195 75.45,194.73 76.39,194.87 77.33,194.95 78.27,194.99 79.21,195.00 79.21,195" fill="#4a5d23" fill-opacity="0.3" /><polyline points="75.45,194.73 76.39,194.87 77.33,194.95 78.27,194.99 79.21,195.00" fill="none" stroke="#4a5d23" stroke-width="2" stroke-linecap="round" stroke-linejoin="round" /><polygon points="79.21,195 79.21,195.00 80.16,194.97 81.10,194.87 81.10,195" fill="#1b7f3a" fill-opacity="0.3" /><polyline points="79.21,195.00 80.16,194.97 81.10,194.87" fill="none" stroke="#1b7f3a" stroke-width="2" stroke-linecap="round" stroke-linejoin="round" /><polygon points="81.10,195 81.10,194.87 82.05,194.70 82.99,194.45 83.93,194.22 84.87,194.04 85.81,193.83 85.81,195" fill="#ebc850" fill-opacity="0.3" /><polyline points="81.10,194.87 82.05,194.70 82.99,194.45 83.93,194.22 84.87,194.04 85.81,193.83" fill="none" stroke="#ebc850" stroke-width="2" stroke-linecap="round" stroke-linejoin="round" /><polygon points="85.81,195 85.81,193.83 86.76,193.55 86.76,195" fill="#e66e00" fill-opacity="0.3" /><polyline points="85.81,193.83 86.76,193.55" fill="none" stroke="#e66e00" stroke-width="2" stroke-linecap="round" stroke-linejoin="round" /><polygon points="86.76,195 86.76,193.55 87.70,193.28 88.64,193.01 89.58,192.74 89.58,195" fill="#ebc850" fill-opacity="0.3" /><polyline points="86.76,193.55 87.70,193.28 88.64,193.01 89.58,192.74" fill="none" stroke="#ebc850" stroke-width="2" stroke-linecap="round" stroke-linejoin="round" /><polygon points="89.58,195 89.58,192.74 90.52,192.43 91.47,192.13 92.41,191.83 93.35,191.52 94.29,191.18 95.24,190.84 96.18,190.49 96.18,195" fill="#e66e00" fill-opacity="0.3" /><polyline points="89.58,192.74 90.52,192.43 91.47,192.13 92.41,191.83 93.35,191.52 94.29,191.18 95.24,190.84 96.18,190.49" fill="none" stroke="#e66e00" stroke-width="2" stroke-linecap="round" stroke-linejoin="round" /><polygon points="96.18,195 96.18,190.49 97.12,190.21 98.07,189.95 99.01,189.74 99.95,189.58 100.89,189.42 100.89,195" fill="#ebc850" fill-opacity="0.3" /><polyline points="96.18,190.49 97.12,190.21 98.07,189.95 99.01,189.74 99.95,189.58 100.89,189.42" fill="none" stroke="#ebc850" stroke-width="2" stroke-linecap="round" stroke-linejoin="round" /><polygon points="100.89,195 100.89,189.42 101.84,189.31 102.78,189.22 103.72,189.12 104.66,189.00 105.60,188.90 106.55,188.89 107.49,188.88 107.49,195" fill="#1b7f3a" fill-opacity="0.3" /><polyline points="100.89,189.42 101.84,189.31 102.78,189.22 103.72,189.12 104.66,189.00 105.60,188.90 106.55,188.89 107.49,188.88" fill="none" stroke="#1b7f3a" stroke-width="2" stroke-linecap="round" stroke-linejoin="round" /><polygon points="107.49,195 107.49,188.88 108.43,188.93 109.37,188.96 110.32,188.99 110.32,195" fill="#4a5d23" fill-opacity="0.3" /><polyline points="107.49,188.88 108.43,188.93 109.37,188.96 110.32,188.99" fill="none" stroke="#4a5d23" stroke-width="2" stroke-linecap="round" stroke-linejoin="round" /><polygon points="110.32,195 110.32,188.99 111.26,188.94 112.20,188.83 113.15,188.69 113.15,195" fill="#1b7f3a" fill-opacity="0.3" /><polyline points="110.32,188.99 111.26,188.94 112.20,188.83 113.15,188.69" fill="none" stroke="#1b7f3a" stroke-width="2" stroke-linecap="round" stroke-linejoin="round" /><polygon points="113.15,195 113.15,188.69 114.09,188.51 115.03,188.30 115.97,188.15 116.91,187.92 117.86,187.68 118.80,187.40 118.80,195" fill="#ebc850" fill-opacity="0.3" /><polyline points="113.15,188.69 114.09,188.51 115.03,188.30 115.97,188.15 116.91,187.92 117.86,187.68 118.80,187.40" fill="none" stroke="#ebc850" stroke-width="2" stroke-linecap="round" stroke-linejoin="round" /><polygon points="118.80,195 118.80,187.40 119.74,187.10 120.68,186.79 121.63,186.43 122.57,186.03 122.57,195" fill="#e66e00" fill-opacity="0.3" /><polyline points="118.80,187.40 119.74,187.10 120.68,186.79 121.63,186.43 122.57,186.03" fill="none" stroke="#e66e00" stroke-width="2" stroke-linecap="round" stroke-linejoin="round" /><polygon points="122.57,195 122.57,186.03 123.51,185.58 124.45,185.11 125.39,184.64 126.34,184.19 126.34,195" fill="#a52d23" fill-opacity="0.3" /><polyline points="122.57,186.03 123.51,185.58 124.45,185.11 125.39,184.64 126.34,184.19" fill="none" stroke="#a52d23" stroke-width="2" stroke-linecap="round" stroke-linejoin="round" /><polygon points="126.34,195 126.34,184.19 127.28,183.79 128.23,183.38 129.17,183.01 130.11,182.68 130.11,195" fill="#e66e00" fill-opacity="0.3" /><polyline points="126.34,184.19 127.28,183.79 128.23,183.38 129.17,183.01 130.11,182.68" fill="none" stroke="#e66e00" stroke-width="2" stroke-linecap="round" stroke-linejoin="round" /><polygon points="130.11,195 130.11,182.68 131.05,182.45 131.05,195" fill="#ebc850" fill-opacity="0.3" /><polyline points="130.11,182.68 131.05,182.45" fill="none" stroke="#ebc850" stroke-width="2" stroke-linecap="round" stroke-linejoin="round" /><polygon points="131.05,195 131.05,182.45 131.99,182.34 132.94,182.25 133.88,182.24 133.88,195" fill="#1b7f3a" fill-opacity="0.3" /><polyline points="131.05,182.45 131.99,182.34 132.94,182.25 133.88,182.24" fill="none" stroke="#1b7f3a" stroke-width="2" stroke-linecap="round" stroke-linejoin="round" /><polygon points="133.88,195 133.88,182.24 134.82,182.28 135.76,182.32 136.70,182.37 137.65,182.40 137.65,195" fill="#4a5d23" fill-opacity="0.3" /><polyline points="133.88,182.24 134.82,182.28 135.76,182.32 136.70,182.37 137.65,182.40" fill="none" stroke="#4a5d23" stroke-width="2" stroke-linecap="round" stroke-linejoin="round" /><polygon points="137.65,195 137.65,182.40 138.59,182.40 139.53,182.34 140.47,182.24 140.47,195" fill="#1b7f3a" fill-opacity="0.3" /><polyline points="137.65,182.40 138.59,182.40 139.53,182.34 140.47,182.24" fill="none" stroke="#1b7f3a" stroke-width="2" stroke-linecap="round" stroke-linejoin="round" /><polygon points="140.47,195 140.47,182.24 141.42,182.10 142.36,181.94 143.30,181.72 144.25,181.44 144.25,195" fill="#ebc850" fill-opacity="0.3" /><polyline points="140.47,182.24 141.42,182.10 142.36,181.94 143.30,181.72 144.25,181.44" fill="none" stroke="#ebc850" stroke-width="2" stroke-linecap="round" stroke-linejoin="round" /><polygon points="144.25,195 144.25,181.44 145.19,181.07 145.19,195" fill="#e66e00" fill-opacity="0.3" /><polyline points="144.25,181.44 145.19,181.07" fill="none" stroke="#e66e00" stroke-width="2" stroke-linecap="round" stroke-linejoin="round" /><polygon points="145.19,195 145.19,181.07 146.13,180.62 147.07,180.09 148.02,179.52 148.96,178.96 149.90,178.38 150.84,177.78 151.78,177.18 152.73,176.61 153.67,176.07 154.61,175.61 155.55,175.18 155.55,195" fill="#a52d23" fill-opacity="0.3" /><polyline points="145.19,181.07 146.13,180.62 147.07,180.09 148.02,179.52 148.96,178.96 149.90,178.38 150.84,177.78 151.78,177.18 152.73,176.61 153.67,176.07 154.61,175.61 155.55,175.18" fill="none" stroke="#a52d23" stroke-width="2" stroke-linecap="round" stroke-linejoin="round" /><polygon points="155.55,195 155.55,175.18 156.50,174.83 157.44,174.54 157.44,195" fill="#e66e00" fill-opacity="0.3" /><polyline points="155.55,175.18 156.50,174.83 157.44,174.54" fill="none" stroke="#e66e00" stroke-width="2" stroke-linecap="round" stroke-linejoin="round" /><polygon points="157.44,195 157.44,174.54 158.38,174.36 158.38,195" fill="#ebc850" fill-opacity="0.3" /><polyline points="157.44,174.54 158.38,174.36" fill="none" stroke="#ebc850" stroke-width="2" stroke-linecap="round" stroke-linejoin="round" /><polygon points="158.38,195 158.38,174.36 159.33,174.31 160.27,174.26 161.21,174.21 161.21,195" fill="#1b7f3a" fill-opacity="0.3" /><polyline points="158.38,174.36 159.33,174.31 160.27,174.26 161.21,174.21" fill="none" stroke="#1b7f3a" stroke-width="2" stroke-linecap="round" stroke-linejoin="round" /><polygon points="161.21,195 161.21,174.21 162.15,174.07 163.09,173.88 164.04,173.64 164.04,195" fill="#ebc850" fill-opacity="0.3" /><polyline points="161.21,174.21 162.15,174.07 163.09,173.88 164.04,173.64" fill="none" stroke="#ebc850" stroke-width="2" stroke-linecap="round" stroke-linejoin="round" /><polygon points="164.04,195 164.04,173.64 164.98,173.31 165.92,172.90 165.92,195" fill="#e66e00" fill-opacity="0.3" /><polyline points="164.04,173.64 164.98,173.31 165.92,172.90" fill="none" stroke="#e66e00" stroke-width="2" stroke-linecap="round" stroke-linejoin="round" /><polygon points="165.92,195 165.92,172.90 166.86,172.45 167.81,171.99 168.75,171.50 169.69,171.00 170.63,170.49 171.58,169.96 172.52,169.51 172.52,195" fill="#a52d23" fill-opacity="0.3" /><polyline points="165.92,172.90 166.86,172.45 167.81,171.99 168.75,171.50 169.69,171.00 170.63,170.49 171.58,169.96 172.52,169.51" fill="none" stroke="#a52d23" stroke-width="2" stroke-linecap="round" stroke-linejoin="round" /><polygon points="172.52,195 172.52,169.51 173.46,169.10 174.41,168.72 175.35,168.37 176.29,168.01 177.23,167.69 178.17,167.38 179.12,167.10 179.12,195" fill="#e66e00" fill-opacity="0.3" /><polyline points="172.52,169.51 173.46,169.10 174.41,168.72 175.35,168.37 176.29,168.01 177.23,167.69 178.17,167.38 179.12,167.10" fill="none" stroke="#e66e00" stroke-width="2" stroke-linecap="round" stroke-linejoin="round" /><polygon points="179.12,195 179.12,167.10 180.06,166.85 180.06,195" fill="#ebc850" fill-opacity="0.3" /><polyline points="179.12,167.10 180.06,166.85" fill="none" stroke="#ebc850" stroke-width="2" stroke-linecap="round" stroke-linejoin="round" /><polygon points="180.06,195 180.06,166.85 181.00,166.73 181.00,195" fill="#1b7f3a" fill-opacity="0.3" /><polyline points="180.06,166.85 181.00,166.73" fill="none" stroke="#1b7f3a" stroke-width="2" stroke-linecap="round" stroke-linejoin="round" /><polygon points="181.00,195 181.00,166.73 181.94,166.74 182.88,166.76 183.83,166.82 184.77,166.92 185.71,167.00 186.65,167.08 187.60,167.17 188.54,167.24 188.54,195" fill="#4a5d23" fill-opacity="0.3" /><polyline points="181.00,166.73 181.94,166.74 182.88,166.76 183.83,166.82 184.77,166.92 185.71,167.00 186.65,167.08 187.60,167.17 188.54,167.24" fill="none" stroke="#4a5d23" stroke-width="2" stroke-linecap="round" stroke-linejoin="round" /><polygon points="188.54,195 188.54,167.24 189.48,167.23 190.43,167.19 191.37,167.14 191.37,195" fill="#1b7f3a" fill-opacity="0.3" /><polyline points="188.54,167.24 189.48,167.23 190.43,167.19 191.37,167.14" fill="none" stroke="#1b7f3a" stroke-width="2" stroke-linecap="round" stroke-linejoin="round" /><polygon points="191.37,195 191.37,167.14 192.31,166.98 193.25,166.74 193.25,195" fill="#ebc850" fill-opacity="0.3" /><polyline points="191.37,167.14 192.31,166.98 193.25,166.74" fill="none" stroke="#ebc850" stroke-width="2" stroke-linecap="round" stroke-linejoin="round" /><polygon points="193.25,195 193.25,166.74 194.20,166.41 195.14,166.07 196.08,165.71 197.02,165.35 197.96,164.99 198.91,164.64 199.85,164.36 199.85,195" fill="#e66e00" fill-opacity="0.3" /><polyline points="193.25,166.74 194.20,166.41 195.14,166.07 196.08,165.71 197.02,165.35 197.96,164.99 198.91,164.64 199.85,164.36" fill="none" stroke="#e66e00" stroke-width="2" stroke-linecap="round" stroke-linejoin="round" /><polygon points="199.85,195 199.85,164.36 200.79,164.07 200.79,195" fill="#ebc850" fill-opacity="0.3" /><polyline points="199.85,164.36 200.79,164.07" fill="none" stroke="#ebc850" stroke-width="2" stroke-linecap="round" stroke-linejoin="round" /><polygon points="200.79,195 200.79,164.07 201.73,163.75 202.68,163.46 203.62,163.16 204.56,162.87 204.56,195" fill="#e66e00" fill-opacity="0.3" /><polyline points="200.79,164.07 201.73,163.75 202.68,163.46 203.62,163.16 204.56,162.87" fill="none" stroke="#e66e00" stroke-width="2" stroke-linecap="round" stroke-linejoin="round" /><polygon points="204.56,195 204.56,162.87 205.51,162.58 205.51,195" fill="#ebc850" fill-opacity="0.3" /><polyline points="204.56,162.87 205.51,162.58" fill="none" stroke="#ebc850" stroke-width="2" stroke-linecap="round" stroke-linejoin="round" /><polygon points="205.51,195 205.51,162.58 206.45,162.29 206.45,195" fill="#e66e00" fill-opacity="0.3" /><polyline points="205.51,162.58 206.45,162.29" fill="none" stroke="#e66e00" stroke-width="2" stroke-linecap="round" stroke-linejoin="round" /><polygon points="206.45,195 206.45,162.29 207.39,162.01 207.39,195" fill="#ebc850" fill-opacity="0.3" /><polyline points="206.45,162.29 207.39,162.01" fill="none" stroke="#ebc850" stroke-width="2" stroke-linecap="round" stroke-linejoin="round" /><polygon points="207.39,195 207.39,162.01 208.33,161.70 209.27,161.38 210.22,161.06 211.16,160.69 212.10,160.32 213.04,159.93 213.99,159.54 213.99,195" fill="#e66e00" fill-opacity="0.3" /><polyline points="207.39,162.01 208.33,161.70 209.27,161.38 210.22,161.06 211.16,160.69 212.10,160.32 213.04,159.93 213.99,159.54" fill="none" stroke="#e66e00" stroke-width="2" stroke-linecap="round" stroke-linejoin="round" /><polygon points="213.99,195 213.99,159.54 214.93,159.06 215.87,158.54 216.81,157.95 217.76,157.33 218.70,156.68 219.64,156.04 220.59,155.39 221.53,154.80 222.47,154.23 223.41,153.70 224.35,153.17 225.30,152.66 226.24,152.21 227.18,151.77 228.12,151.33 228.12,195" fill="#a52d23" fill-opacity="0.3" /><polyline points="213.99,159.54 214.93,159.06 215.87,158.54 216.81,157.95 217.76,157.33 218.70,156.68 219.64,156.04 220.59,155.39 221.53,154.80 222.47,154.23 223.41,153.70 224.35,153.17 225.30,152.66 226.24,152.21 227.18,151.77 228.12,151.33" fill="none" stroke="#a52d23" stroke-width="2" stroke-linecap="round" stroke-linejoin="round" /><polygon points="228.12,195 228.12,151.33 229.06,150.91 229.06,195" fill="#e66e00" fill-opacity="0.3" /><polyline points="228.12,151.33 229.06,150.91" fill="none" stroke="#e66e00" stroke-width="2" stroke-linecap="round" stroke-linejoin="round" /><polygon points="229.06,195 229.06,150.91 230.01,150.47 230.01,195" fill="#a52d23" fill-opacity="0.3" /><polyline points="229.06,150.91 230.01,150.47" fill="none" stroke="#a52d23" stroke-width="2" stroke-linecap="round" stroke-linejoin="round" /><polygon points="230.01,195 230.01,150.47 230.95,150.05 231.89,149.64 232.83,149.23 233.78,148.80 234.72,148.42 235.66,148.03 236.61,147.67 236.61,195" fill="#e66e00" fill-opacity="0.3" /><polyline points="230.01,150.47 230.95,150.05 231.89,149.64 232.83,149.23 233.78,148.80 234.72,148.42 235.66,148.03 236.61,147.67" fill="none" stroke="#e66e00" stroke-width="2" stroke-linecap="round" stroke-linejoin="round" /><polygon points="236.61,195 236.61,147.67 237.55,147.43 237.55,195" fill="#ebc850" fill-opacity="0.3" /><polyline points="236.61,147.67 237.55,147.43" fill="none" stroke="#ebc850" stroke-width="2" stroke-linecap="round" stroke-linejoin="round" /><polygon points="237.55,195 237.55,147.43 238.49,147.30 239.43,147.30 239.43,195" fill="#1b7f3a" fill-opacity="0.3" /><polyline points="237.55,147.43 238.49,147.30 239.43,147.30" fill="none" stroke="#1b7f3a" stroke-width="2" stroke-linecap="round" stroke-linejoin="round" /><polygon points="239.43,195 239.43,147.30 240.38,147.44 240.38,195" fill="#4a5d23" fill-opacity="0.3" /><polyline points="239.43,147.30 240.38,147.44" fill="none" stroke="#4a5d23" stroke-width="2" stroke-linecap="round" stroke-linejoin="round" /><polygon points="240.38,195 240.38,147.44 241.32,147.68 242.26,147.98 243.20,148.37 244.14,148.78 245.09,149.23 246.03,149.70 246.97,150.17 247.91,150.66 248.86,151.15 249.80,151.66 250.74,152.21 251.69,152.77 252.63,153.33 253.57,153.90 254.51,154.47 255.45,155.13 256.40,155.89 257.34,156.67 258.28,157.44 259.22,158.15 260.17,158.71 261.11,159.07 262.05,159.23 262.05,195" fill="#236ea0" fill-opacity="0.3" /><polyline points="240.38,147.44 241.32,147.68 242.26,147.98 243.20,148.37 244.14,148.78 245.09,149.23 246.03,149.70 246.97,150.17 247.91,150.66 248.86,151.15 249.80,151.66 250.74,152.21 251.69,152.77 252.63,153.33 253.57,153.90 254.51,154.47 255.45,155.13 256.40,155.89 257.34,156.67 258.28,157.44 259.22,158.15 260.17,158.71 261.11,159.07 262.05,159.23" fill="none" stroke="#236ea0" stroke-width="2" stroke-linecap="round" stroke-linejoin="round" /><polygon points="262.05,195 262.05,159.23 262.99,159.22 262.99,195" fill="#1b7f3a" fill-opacity="0.3" /><polyline points="262.05,159.23 262.99,159.22" fill="none" stroke="#1b7f3a" stroke-width="2" stroke-linecap="round" stroke-linejoin="round" /><polygon points="262.99,195 262.99,159.22 263.94,159.02 263.94,195" fill="#ebc850" fill-opacity="0.3" /><polyline points="262.99,159.22 263.94,159.02" fill="none" stroke="#ebc850" stroke-width="2" stroke-linecap="round" stroke-linejoin="round" /><polygon points="263.94,195 263.94,159.02 264.88,158.58 265.82,157.88 266.77,157.00 267.71,156.01 268.65,154.95 269.59,153.87 270.53,152.75 271.48,151.63 272.42,150.56 273.36,149.62 274.30,148.78 275.24,148.04 276.19,147.38 277.13,146.83 278.07,146.36 278.07,195" fill="#a52d23" fill-opacity="0.3" /><polyline points="263.94,159.02 264.88,158.58 265.82,157.88 266.77,157.00 267.71,156.01 268.65,154.95 269.59,153.87 270.53,152.75 271.48,151.63 272.42,150.56 273.36,149.62 274.30,148.78 275.24,148.04 276.19,147.38 277.13,146.83 278.07,146.36" fill="none" stroke="#a52d23" stroke-width="2" stroke-linecap="round" stroke-linejoin="round" /><polygon points="278.07,195 278.07,146.36 279.02,145.95 279.96,145.59 280.90,145.26 280.90,195" fill="#e66e00" fill-opacity="0.3" /><polyline points="278.07,146.36 279.02,145.95 279.96,145.59 280.90,145.26" fill="none" stroke="#e66e00" stroke-width="2" stroke-linecap="round" stroke-linejoin="round" /><polygon points="280.90,195 280.90,145.26 281.84,144.98 281.84,195" fill="#ebc850" fill-opacity="0.3" /><polyline points="280.90,145.26 281.84,144.98" fill="none" stroke="#ebc850" stroke-width="2" stroke-linecap="round" stroke-linejoin="round" /><polygon points="281.84,195 281.84,144.98 282.79,144.69 283.73,144.34 284.67,143.97 285.61,143.63 286.56,143.30 287.50,143.00 287.50,195" fill="#e66e00" fill-opacity="0.3" /><polyline points="281.84,144.98 282.79,144.69 283.73,144.34 284.67,143.97 285.61,143.63 286.56,143.30 287.50,143.00" fill="none" stroke="#e66e00" stroke-width="2" stroke-linecap="round" stroke-linejoin="round" /><polygon points="287.50,195 287.50,143.00 288.44,142.73 289.38,142.50 290.32,142.30 291.27,142.14 291.27,195" fill="#ebc850" fill-opacity="0.3" /><polyline points="287.50,143.00 288.44,142.73 289.38,142.50 290.32,142.30 291.27,142.14" fill="none" stroke="#ebc850" stroke-width="2" stroke-linecap="round" stroke-linejoin="round" /><polygon points="291.27,195 291.27,142.14 292.21,142.03 293.15,141.97 293.15,195" fill="#1b7f3a" fill-opacity="0.3" /><polyline points="291.27,142.14 292.21,142.03 293.15,141.97" fill="none" stroke="#1b7f3a" stroke-width="2" stroke-linecap="round" stroke-linejoin="round" /><polygon points="293.15,195 293.15,141.97 294.09,141.99 295.04,142.12 295.04,195" fill="#4a5d23" fill-opacity="0.3" /><polyline points="293.15,141.97 294.09,141.99 295.04,142.12" fill="none" stroke="#4a5d23" stroke-width="2" stroke-linecap="round" stroke-linejoin="round" /><polygon points="295.04,195 295.04,142.12 295.98,142.40 296.92,142.79 297.87,143.27 298.81,143.77 299.75,144.25 300.69,144.70 301.63,145.11 302.58,145.41 303.52,145.63 304.46,145.79 304.46,195" fill="#236ea0" fill-opacity="0.3" /><polyline points="295.04,142.12 295.98,142.40 296.92,142.79 297.87,143.27 298.81,143.77 299.75,144.25 300.69,144.70 301.63,145.11 302.58,145.41 303.52,145.63 304.46,145.79" fill="none" stroke="#236ea0" stroke-width="2" stroke-linecap="round" stroke-linejoin="round" /><polygon points="304.46,195 304.46,145.79 305.40,145.92 306.35,146.00 307.29,146.02 307.29,195" fill="#4a5d23" fill-opacity="0.3" /><polyline points="304.46,145.79 305.40,145.92 306.35,146.00 307.29,146.02" fill="none" stroke="#4a5d23" stroke-width="2" stroke-linecap="round" stroke-linejoin="round" /><polygon points="307.29,195 307.29,146.02 308.23,145.96 308.23,195" fill="#1b7f3a" fill-opacity="0.3" /><polyline points="307.29,146.02 308.23,145.96" fill="none" stroke="#1b7f3a" stroke-width="2" stroke-linecap="round" stroke-linejoin="round" /><polygon points="308.23,195 308.23,145.96 309.17,145.77 309.17,195" fill="#ebc850" fill-opacity="0.3" /><polyline points="308.23,145.96 309.17,145.77" fill="none" stroke="#ebc850" stroke-width="2" stroke-linecap="round" stroke-linejoin="round" /><polygon points="309.17,195 309.17,145.77 310.12,145.46 311.06,145.09 312.00,144.68 312.00,195" fill="#e66e00" fill-opacity="0.3" /><polyline points="309.17,145.77 310.12,145.46 311.06,145.09 312.00,144.68" fill="none" stroke="#e66e00" stroke-width="2" stroke-linecap="round" stroke-linejoin="round" /><polygon points="312.00,195 312.00,144.68 312.95,144.23 312.95,195" fill="#a52d23" fill-opacity="0.3" /><polyline points="312.00,144.68 312.95,144.23" fill="none" stroke="#a52d23" stroke-width="2" stroke-linecap="round" stroke-linejoin="round" /><polygon points="312.95,195 312.95,144.23 313.89,143.82 314.83,143.46 315.77,143.09 316.71,142.67 316.71,195" fill="#e66e00" fill-opacity="0.3" /><polyline points="312.95,144.23 313.89,143.82 314.83,143.46 315.77,143.09 316.71,142.67" fill="none" stroke="#e66e00" stroke-width="2" stroke-linecap="round" stroke-linejoin="round" /><polygon points="316.71,195 316.71,142.67 317.66,142.22 318.60,141.78 318.60,195" fill="#a52d23" fill-opacity="0.3" /><polyline points="316.71,142.67 317.66,142.22 318.60,141.78" fill="none" stroke="#a52d23" stroke-width="2" stroke-linecap="round" stroke-linejoin="round" /><polygon points="318.60,195 318.60,141.78 319.54,141.36 320.48,141.01 320.48,195" fill="#e66e00" fill-opacity="0.3" /><polyline points="318.60,141.78 319.54,141.36 320.48,141.01" fill="none" stroke="#e66e00" stroke-width="2" stroke-linecap="round" stroke-linejoin="round" /><polygon points="320.48,195 320.48,141.01 321.42,140.75 321.42,195" fill="#ebc850" fill-opacity="0.3" /><polyline points="320.48,141.01 321.42,140.75" fill="none" stroke="#ebc850" stroke-width="2" stroke-linecap="round" stroke-linejoin="round" /><polygon points="321.42,195 321.42,140.75 322.37,140.65 322.37,195" fill="#1b7f3a" fill-opacity="0.3" /><polyline points="321.42,140.75 322.37,140.65" fill="none" stroke="#1b7f3a" stroke-width="2" stroke-linecap="round" stroke-linejoin="round" /><polygon points="322.37,195 322.37,140.65 323.31,140.67 324.25,140.79 324.25,195" fill="#4a5d23" fill-opacity="0.3" /><polyline points="322.37,140.65 323.31,140.67 324.25,140.79" fill="none" stroke="#4a5d23" stroke-width="2" stroke-linecap="round" stroke-linejoin="round" /><polygon points="324.25,195 324.25,140.79 325.20,140.97 326.14,141.22 327.08,141.47 328.02,141.70 328.97,141.91 329.91,142.13 330.85,142.32 330.85,195" fill="#236ea0" fill-opacity="0.3" /><polyline points="324.25,140.79 325.20,140.97 326.14,141.22 327.08,141.47 328.02,141.70 328.97,141.91 329.91,142.13 330.85,142.32" fill="none" stroke="#236ea0" stroke-width="2" stroke-linecap="round" stroke-linejoin="round" /><polygon points="330.85,195 330.85,142.32 331.79,142.44 332.74,142.55 333.68,142.59 333.68,195" fill="#4a5d23" fill-opacity="0.3" /><polyline points="330.85,142.32 331.79,142.44 332.74,142.55 333.68,142.59" fill="none" stroke="#4a5d23" stroke-width="2" stroke-linecap="round" stroke-linejoin="round" /><polygon points="333.68,195 333.68,142.59 334.62,142.54 335.56,142.41 336.50,142.28 337.45,142.18 338.39,142.11 339.33,142.09 339.33,195" fill="#1b7f3a" fill-opacity="0.3" /><polyline points="333.68,142.59 334.62,142.54 335.56,142.41 336.50,142.28 337.45,142.18 338.39,142.11 339.33,142.09" fill="none" stroke="#1b7f3a" stroke-width="2" stroke-linecap="round" stroke-linejoin="round" /><polygon points="339.33,195 339.33,142.09 340.28,142.10 340.28,195" fill="#4a5d23" fill-opacity="0.3" /><polyline points="339.33,142.09 340.28,142.10" fill="none" stroke="#4a5d23" stroke-width="2" stroke-linecap="round" stroke-linejoin="round" /><polygon points="340.28,195 340.28,142.10 341.22,142.09 342.16,141.99 342.16,195" fill="#1b7f3a" fill-opacity="0.3" /><polyline points="340.28,142.10 341.22,142.09 342.16,141.99" fill="none" stroke="#1b7f3a" stroke-width="2" stroke-linecap="round" stroke-linejoin="round" /><polygon points="342.16,195 342.16,141.99 343.10,141.78 344.05,141.50 344.05,195" fill="#ebc850" fill-opacity="0.3" /><polyline points="342.16,141.99 343.10,141.78 344.05,141.50" fill="none" stroke="#ebc850" stroke-width="2" stroke-linecap="round" stroke-linejoin="round" /><polygon points="344.05,195 344.05,141.50 344.99,141.16 345.93,140.74 345.93,195" fill="#e66e00" fill-opacity="0.3" /><polyline points="344.05,141.50 344.99,141.16 345.93,140.74" fill="none" stroke="#e66e00" stroke-width="2" stroke-linecap="round" stroke-linejoin="round" /><polygon points="345.93,195 345.93,140.74 346.87,140.25 347.81,139.70 348.76,139.07 349.70,138.40 350.64,137.68 351.58,136.94 352.53,136.20 353.47,135.51 354.41,134.89 355.35,134.37 356.30,133.94 356.30,195" fill="#a52d23" fill-opacity="0.3" /><polyline points="345.93,140.74 346.87,140.25 347.81,139.70 348.76,139.07 349.70,138.40 350.64,137.68 351.58,136.94 352.53,136.20 353.47,135.51 354.41,134.89 355.35,134.37 356.30,133.94" fill="none" stroke="#a52d23" stroke-width="2" stroke-linecap="round" stroke-linejoin="round" /><polygon points="356.30,195 356.30,133.94 357.24,133.59 357.24,195" fill="#e66e00" fill-opacity="0.3" /><polyline points="356.30,133.94 357.24,133.59" fill="none" stroke="#e66e00" stroke-width="2" stroke-linecap="round" stroke-linejoin="round" /><polygon points="357.24,195 357.24,133.59 358.18,133.35 359.13,133.15 360.07,132.96 360.07,195" fill="#ebc850" fill-opacity="0.3" /><polyline points="357.24,133.59 358.18,133.35 359.13,133.15 360.07,132.96" fill="none" stroke="#ebc850" stroke-width="2" stroke-linecap="round" stroke-linejoin="round" /><polygon points="360.07,195 360.07,132.96 361.01,132.85 361.01,195" fill="#1b7f3a" fill-opacity="0.3" /><polyline points="360.07,132.96 361.01,132.85" fill="none" stroke="#1b7f3a" stroke-width="2" stroke-linecap="round" stroke-linejoin="round" /><polygon points="361.01,195 361.01,132.85 361.95,132.88 361.95,195" fill="#4a5d23" fill-opacity="0.3" /><polyline points="361.01,132.85 361.95,132.88" fill="none" stroke="#4a5d23" stroke-width="2" stroke-linecap="round" stroke-linejoin="round" /><polygon points="361.95,195 361.95,132.88 362.89,133.02 363.84,133.21 364.78,133.45 365.72,133.65 365.72,195" fill="#236ea0" fill-opacity="0.3" /><polyline points="361.95,132.88 362.89,133.02 363.84,133.21 364.78,133.45 365.72,133.65" fill="none" stroke="#236ea0" stroke-width="2" stroke-linecap="round" stroke-linejoin="round" /><polygon points="365.72,195 365.72,133.65 366.66,133.78 367.60,133.81 367.60,195" fill="#4a5d23" fill-opacity="0.3" /><polyline points="365.72,133.65 366.66,133.78 367.60,133.81" fill="none" stroke="#4a5d23" stroke-width="2" stroke-linecap="round" stroke-linejoin="round" /><polygon points="367.60,195 367.60,133.81 368.55,133.79 369.49,133.70 370.43,133.56 370.43,195" fill="#1b7f3a" fill-opacity="0.3" /><polyline points="367.60,133.81 368.55,133.79 369.49,133.70 370.43,133.56" fill="none" stroke="#1b7f3a" stroke-width="2" stroke-linecap="round" stroke-linejoin="round" /><polygon points="370.43,195 370.43,133.56 371.38,133.39 372.32,133.17 373.26,132.90 373.26,195" fill="#ebc850" fill-opacity="0.3" /><polyline points="370.43,133.56 371.38,133.39 372.32,133.17 373.26,132.90" fill="none" stroke="#ebc850" stroke-width="2" stroke-linecap="round" stroke-linejoin="round" /><polygon points="373.26,195 373.26,132.90 374.20,132.54 374.20,195" fill="#e66e00" fill-opacity="0.3" /><polyline points="373.26,132.90 374.20,132.54" fill="none" stroke="#e66e00" stroke-width="2" stroke-linecap="round" stroke-linejoin="round" /><polygon points="374.20,195 374.20,132.54 375.15,132.07 376.09,131.53 377.03,130.99 377.97,130.42 378.92,129.93 378.92,195" fill="#a52d23" fill-opacity="0.3" /><polyline points="374.20,132.54 375.15,132.07 376.09,131.53 377.03,130.99 377.97,130.42 378.92,129.93" fill="none" stroke="#a52d23" stroke-width="2" stroke-linecap="round" stroke-linejoin="round" /><polygon points="378.92,195 378.92,129.93 379.86,129.55 379.86,195" fill="#e66e00" fill-opacity="0.3" /><polyline points="378.92,129.93 379.86,129.55" fill="none" stroke="#e66e00" stroke-width="2" stroke-linecap="round" stroke-linejoin="round" /><polygon points="379.86,195 379.86,129.55 380.80,129.29 381.74,129.08 382.68,128.93 382.68,195" fill="#ebc850" fill-opacity="0.3" /><polyline points="379.86,129.55 380.80,129.29 381.74,129.08 382.68,128.93" fill="none" stroke="#ebc850" stroke-width="2" stroke-linecap="round" stroke-linejoin="round" /><polygon points="382.68,195 382.68,128.93 383.63,128.80 384.57,128.66 385.51,128.53 386.46,128.43 387.40,128.36 388.34,128.35 388.34,195" fill="#1b7f3a" fill-opacity="0.3" /><polyline points="382.68,128.93 383.63,128.80 384.57,128.66 385.51,128.53 386.46,128.43 387.40,128.36 388.34,128.35" fill="none" stroke="#1b7f3a" stroke-width="2" stroke-linecap="round" stroke-linejoin="round" /><polygon points="388.34,195 388.34,128.35 389.28,128.37 390.23,128.47 391.17,128.56 392.11,128.65 393.05,128.68 393.05,195" fill="#4a5d23" fill-opacity="0.3" /><polyline points="388.34,128.35 389.28,128.37 390.23,128.47 391.17,128.56 392.11,128.65 393.05,128.68" fill="none" stroke="#4a5d23" stroke-width="2" stroke-linecap="round" stroke-linejoin="round" /><polygon points="393.05,195 393.05,128.68 393.99,128.68 394.94,128.65 394.94,195" fill="#1b7f3a" fill-opacity="0.3" /><polyline points="393.05,128.68 393.99,128.68 394.94,128.65" fill="none" stroke="#1b7f3a" stroke-width="2" stroke-linecap="round" stroke-linejoin="round" /><polygon points="394.94,195 394.94,128.65 395.88,128.66 395.88,195" fill="#4a5d23" fill-opacity="0.3" /><polyline points="394.94,128.65 395.88,128.66" fill="none" stroke="#4a5d23" stroke-width="2" stroke-linecap="round" stroke-linejoin="round" /><polygon points="395.88,195 395.88,128.66 396.82,128.63 397.76,128.58 398.71,128.53 399.65,128.49 400.59,128.42 401.54,128.34 402.48,128.21 402.48,195" fill="#1b7f3a" fill-opacity="0.3" /><polyline points="395.88,128.66 396.82,128.63 397.76,128.58 398.71,128.53 399.65,128.49 400.59,128.42 401.54,128.34 402.48,128.21" fill="none" stroke="#1b7f3a" stroke-width="2" stroke-linecap="round" stroke-linejoin="round" /><polygon points="402.48,195 402.48,128.21 403.42,128.06 404.36,127.89 405.31,127.72 406.25,127.55 407.19,127.39 407.19,195" fill="#ebc850" fill-opacity="0.3" /><polyline points="402.48,128.21 403.42,128.06 404.36,127.89 405.31,127.72 406.25,127.55 407.19,127.39" fill="none" stroke="#ebc850" stroke-width="2" stroke-linecap="round" stroke-linejoin="round" /><polygon points="407.19,195 407.19,127.39 408.13,127.26 409.07,127.15 410.02,127.03 410.96,126.93 411.90,126.86 412.84,126.82 412.84,195" fill="#1b7f3a" fill-opacity="0.3" /><polyline points="407.19,127.39 408.13,127.26 409.07,127.15 410.02,127.03 410.96,126.93 411.90,126.86 412.84,126.82" fill="none" stroke="#1b7f3a" stroke-width="2" stroke-linecap="round" stroke-linejoin="round" /><polygon points="412.84,195 412.84,126.82 413.78,126.83 414.73,126.88 415.67,126.92 416.61,126.99 417.56,127.09 418.50,127.17 419.44,127.24 420.38,127.32 421.33,127.39 422.27,127.46 423.21,127.53 424.15,127.58 425.10,127.64 426.04,127.68 426.98,127.72 427.92,127.74 428.86,127.77 429.81,127.79 430.75,127.81 431.69,127.81 432.64,127.81 432.64,195" fill="#4a5d23" fill-opacity="0.3" /><polyline points="412.84,126.82 413.78,126.83 414.73,126.88 415.67,126.92 416.61,126.99 417.56,127.09 418.50,127.17 419.44,127.24 420.38,127.32 421.33,127.39 422.27,127.46 423.21,127.53 424.15,127.58 425.10,127.64 426.04,127.68 426.98,127.72 427.92,127.74 428.86,127.77 429.81,127.79 430.75,127.81 431.69,127.81 432.64,127.81" fill="none" stroke="#4a5d23" stroke-width="2" stroke-linecap="round" stroke-linejoin="round" /><polygon points="432.64,195 432.64,127.81 433.58,127.81 434.52,127.79 435.46,127.77 436.41,127.72 437.35,127.68 438.29,127.62 439.23,127.55 440.17,127.47 441.12,127.39 442.06,127.29 443.00,127.20 443.94,127.10 444.89,127.00 445.83,126.88 446.77,126.75 447.72,126.62 447.72,195" fill="#1b7f3a" fill-opacity="0.3" /><polyline points="432.64,127.81 433.58,127.81 434.52,127.79 435.46,127.77 436.41,127.72 437.35,127.68 438.29,127.62 439.23,127.55 440.17,127.47 441.12,127.39 442.06,127.29 443.00,127.20 443.94,127.10 444.89,127.00 445.83,126.88 446.77,126.75 447.72,126.62" fill="none" stroke="#1b7f3a" stroke-width="2" stroke-linecap="round" stroke-linejoin="round" /><polygon points="447.72,195 447.72,126.62 448.66,126.46 449.60,126.29 450.54,126.12 451.49,125.92 452.43,125.71 453.37,125.47 454.31,125.22 455.25,124.97 456.20,124.73 457.14,124.49 458.08,124.26 459.02,124.04 459.96,123.81 460.91,123.58 461.85,123.37 462.79,123.14 463.74,122.92 464.68,122.69 465.62,122.48 466.56,122.29 467.51,122.10 468.45,121.90 469.39,121.70 470.33,121.50 471.28,121.29 472.22,121.09 473.16,120.89 474.10,120.70 475.04,120.49 475.99,120.27 476.93,120.04 477.87,119.76 477.87,195" fill="#ebc850" fill-opacity="0.3" /><polyline points="447.72,126.62 448.66,126.46 449.60,126.29 450.54,126.12 451.49,125.92 452.43,125.71 453.37,125.47 454.31,125.22 455.25,124.97 456.20,124.73 457.14,124.49 458.08,124.26 459.02,124.04 459.96,123.81 460.91,123.58 461.85,123.37 462.79,123.14 463.74,122.92 464.68,122.69 465.62,122.48 466.56,122.29 467.51,122.10 468.45,121.90 469.39,121.70 470.33,121.50 471.28,121.29 472.22,121.09 473.16,120.89 474.10,120.70 475.04,120.49 475.99,120.27 476.93,120.04 477.87,119.76" fill="none" stroke="#ebc850" stroke-width="2" stroke-linecap="round" stroke-linejoin="round" /><polygon points="477.87,195 477.87,119.76 478.82,119.43 479.76,119.08 480.70,118.70 481.64,118.28 482.59,117.88 483.53,117.48 483.53,195" fill="#e66e00" fill-opacity="0.3" /><polyline points="477.87,119.76 478.82,119.43 479.76,119.08 480.70,118.70 481.64,118.28 482.59,117.88 483.53,117.48" fill="none" stroke="#e66e00" stroke-width="2" stroke-linecap="round" stroke-linejoin="round" /><polygon points="483.53,195 483.53,117.48 484.47,117.05 485.41,116.59 486.35,116.10 487.30,115.61 488.24,115.15 488.24,195" fill="#a52d23" fill-opacity="0.3" /><polyline points="483.53,117.48 484.47,117.05 485.41,116.59 486.35,116.10 487.30,115.61 488.24,115.15" fill="none" stroke="#a52d23" stroke-width="2" stroke-linecap="round" stroke-linejoin="round" /><polygon points="488.24,195 488.24,115.15 489.18,114.72 490.12,114.35 491.07,114.03 491.07,195" fill="#e66e00" fill-opacity="0.3" /><polyline points="488.24,115.15 489.18,114.72 490.12,114.35 491.07,114.03" fill="none" stroke="#e66e00" stroke-width="2" stroke-linecap="round" stroke-linejoin="round" /><polygon points="491.07,195 491.07,114.03 492.01,113.80 492.01,195" fill="#ebc850" fill-opacity="0.3" /><polyline points="491.07,114.03 492.01,113.80" fill="none" stroke="#ebc850" stroke-width="2" stroke-linecap="round" stroke-linejoin="round" /><polygon points="492.01,195 492.01,113.80 492.95,113.68 493.90,113.67 493.90,195" fill="#1b7f3a" fill-opacity="0.3" /><polyline points="492.01,113.80 492.95,113.68 493.90,113.67" fill="none" stroke="#1b7f3a" stroke-width="2" stroke-linecap="round" stroke-linejoin="round" /><polygon points="493.90,195 493.90,113.67 494.84,113.81 495.78,114.12 496.72,114.56 497.67,115.16 498.61,115.94 499.55,116.88 500.49,117.94 501.43,119.11 502.38,120.31 503.32,121.51 504.26,122.75 505.20,123.90 506.14,124.94 507.09,125.84 508.03,126.52 508.98,126.93 508.98,195" fill="#236ea0" fill-opacity="0.3" /><polyline points="493.90,113.67 494.84,113.81 495.78,114.12 496.72,114.56 497.67,115.16 498.61,115.94 499.55,116.88 500.49,117.94 501.43,119.11 502.38,120.31 503.32,121.51 504.26,122.75 505.20,123.90 506.14,124.94 507.09,125.84 508.03,126.52 508.98,126.93" fill="none" stroke="#236ea0" stroke-width="2" stroke-linecap="round" stroke-linejoin="round" /><polygon points="508.98,195 508.98,126.93 509.92,127.03 509.92,195" fill="#4a5d23" fill-opacity="0.3" /><polyline points="508.98,126.93 509.92,127.03" fill="none" stroke="#4a5d23" stroke-width="2" stroke-linecap="round" stroke-linejoin="round" /><polygon points="509.92,195 509.92,127.03 510.86,126.82 510.86,195" fill="#ebc850" fill-opacity="0.3" /><polyline points="509.92,127.03 510.86,126.82" fill="none" stroke="#ebc850" stroke-width="2" stroke-linecap="round" stroke-linejoin="round" /><polygon points="510.86,195 510.86,126.82 511.80,126.36 512.74,125.63 513.69,124.65 514.63,123.43 515.57,121.98 516.51,120.42 517.46,118.81 518.40,117.20 519.34,115.59 520.28,113.93 521.22,112.33 522.17,110.82 523.11,109.40 524.05,108.00 525.00,106.71 525.94,105.51 526.88,104.35 527.82,103.25 528.77,102.19 529.71,101.19 530.65,100.31 531.59,99.47 532.53,98.66 533.48,97.89 534.42,97.15 535.36,96.51 536.30,95.91 537.25,95.26 538.19,94.54 539.13,93.74 540.08,92.96 541.02,92.16 541.96,91.35 542.90,90.52 543.85,89.68 544.79,88.85 545.73,88.03 546.67,87.22 547.61,86.45 548.56,85.72 549.50,85.09 550.44,84.55 551.38,84.09 551.38,195" fill="#a52d23" fill-opacity="0.3" /><polyline points="510.86,126.82 511.80,126.36 512.74,125.63 513.69,124.65 514.63,123.43 515.57,121.98 516.51,120.42 517.46,118.81 518.40,117.20 519.34,115.59 520.28,113.93 521.22,112.33 522.17,110.82 523.11,109.40 524.05,108.00 525.00,106.71 525.94,105.51 526.88,104.35 527.82,103.25 528.77,102.19 529.71,101.19 530.65,100.31 531.59,99.47 532.53,98.66 533.48,97.89 534.42,97.15 535.36,96.51 536.30,95.91 537.25,95.26 538.19,94.54 539.13,93.74 540.08,92.96 541.02,92.16 541.96,91.35 542.90,90.52 543.85,89.68 544.79,88.85 545.73,88.03 546.67,87.22 547.61,86.45 548.56,85.72 549.50,85.09 550.44,84.55 551.38,84.09" fill="none" stroke="#a52d23" stroke-width="2" stroke-linecap="round" stroke-linejoin="round" /><polygon points="551.38,195 551.38,84.09 552.32,83.76 552.32,195" fill="#e66e00" fill-opacity="0.3" /><polyline points="551.38,84.09 552.32,83.76" fill="none" stroke="#e66e00" stroke-width="2" stroke-linecap="round" stroke-linejoin="round" /><polygon points="552.32,195 552.32,83.76 553.27,83.49 553.27,195" fill="#ebc850" fill-opacity="0.3" /><polyline points="552.32,83.76 553.27,83.49" fill="none" stroke="#ebc850" stroke-width="2" stroke-linecap="round" stroke-linejoin="round" /><polygon points="553.27,195 553.27,83.49 554.21,83.36 555.16,83.33 555.16,195" fill="#1b7f3a" fill-opacity="0.3" /><polyline points="553.27,83.49 554.21,83.36 555.16,83.33" fill="none" stroke="#1b7f3a" stroke-width="2" stroke-linecap="round" stroke-linejoin="round" /><polygon points="555.16,195 555.16,83.33 556.10,83.38 556.10,195" fill="#4a5d23" fill-opacity="0.3" /><polyline points="555.16,83.33 556.10,83.38" fill="none" stroke="#4a5d23" stroke-width="2" stroke-linecap="round" stroke-linejoin="round" /><polygon points="556.10,195 556.10,83.38 557.04,83.57 557.98,83.88 558.92,84.32 559.87,84.84 560.81,85.39 561.75,85.95 562.69,86.50 563.64,86.99 564.58,87.42 565.52,87.81 566.46,88.20 567.40,88.55 568.35,88.90 569.29,89.21 570.24,89.45 571.18,89.62 571.18,195" fill="#236ea0" fill-opacity="0.3" /><polyline points="556.10,83.38 557.04,83.57 557.98,83.88 558.92,84.32 559.87,84.84 560.81,85.39 561.75,85.95 562.69,86.50 563.64,86.99 564.58,87.42 565.52,87.81 566.46,88.20 567.40,88.55 568.35,88.90 569.29,89.21 570.24,89.45 571.18,89.62" fill="none" stroke="#236ea0" stroke-width="2" stroke-linecap="round" stroke-linejoin="round" /><polygon points="571.18,195 571.18,89.62 572.12,89.73 573.06,89.80 574.00,89.84 574.95,89.84 574.95,195" fill="#4a5d23" fill-opacity="0.3" /><polyline points="571.18,89.62 572.12,89.73 573.06,89.80 574.00,89.84 574.95,89.84" fill="none" stroke="#4a5d23" stroke-width="2" stroke-linecap="round" stroke-linejoin="round" /><polygon points="574.95,195 574.95,89.84 575.89,89.83 576.83,89.81 577.77,89.77 578.71,89.71 579.66,89.62 580.60,89.52 581.54,89.42 582.48,89.29 583.43,89.19 584.37,89.13 585.31,89.10 585.31,195" fill="#1b7f3a" fill-opacity="0.3" /><polyline points="574.95,89.84 575.89,89.83 576.83,89.81 577.77,89.77 578.71,89.71 579.66,89.62 580.60,89.52 581.54,89.42 582.48,89.29 583.43,89.19 584.37,89.13 585.31,89.10" fill="none" stroke="#1b7f3a" stroke-width="2" stroke-linecap="round" stroke-linejoin="round" /><polygon points="585.31,195 585.31,89.10 586.26,89.12 587.20,89.17 588.14,89.23 589.08,89.33 590.03,89.45 590.03,195" fill="#4a5d23" fill-opacity="0.3" /><polyline points="585.31,89.10 586.26,89.12 587.20,89.17 588.14,89.23 589.08,89.33 590.03,89.45" fill="none" stroke="#4a5d23" stroke-width="2" stroke-linecap="round" stroke-linejoin="round" /><polygon points="590.03,195 590.03,89.45 590.97,89.61 590.97,195" fill="#236ea0" fill-opacity="0.3" /><polyline points="590.03,89.45 590.97,89.61" fill="none" stroke="#236ea0" stroke-width="2" stroke-linecap="round" stroke-linejoin="round" /><polygon points="590.97,195 590.97,89.61 591.91,89.73 592.85,89.84 593.79,89.90 594.74,89.93 595.68,89.98 596.62,90.05 597.56,90.12 598.50,90.19 599.45,90.22 600.39,90.23 600.39,195" fill="#4a5d23" fill-opacity="0.3" /><polyline points="590.97,89.61 591.91,89.73 592.85,89.84 593.79,89.90 594.74,89.93 595.68,89.98 596.62,90.05 597.56,90.12 598.50,90.19 599.45,90.22 600.39,90.23" fill="none" stroke="#4a5d23" stroke-width="2" stroke-linecap="round" stroke-linejoin="round" /><polygon points="600.39,195 600.39,90.23 601.34,90.23 602.28,90.22 603.22,90.22 604.16,90.21 605.10,90.21 606.05,90.20 606.05,195" fill="#1b7f3a" fill-opacity="0.3" /><polyline points="600.39,90.23 601.34,90.23 602.28,90.22 603.22,90.22 604.16,90.21 605.10,90.21 606.05,90.20" fill="none" stroke="#1b7f3a" stroke-width="2" stroke-linecap="round" stroke-linejoin="round" /><polygon points="606.05,195 606.05,90.20 606.99,90.20 607.93,90.21 607.93,195" fill="#4a5d23" fill-opacity="0.3" /><polyline points="606.05,90.20 606.99,90.20 607.93,90.21" fill="none" stroke="#4a5d23" stroke-width="2" stroke-linecap="round" stroke-linejoin="round" /><polygon points="607.93,195 607.93,90.21 608.87,90.20 609.82,90.16 610.76,90.08 611.70,89.99 612.64,89.88 613.58,89.76 614.53,89.67 615.47,89.55 616.42,89.42 616.42,195" fill="#1b7f3a" fill-opacity="0.3" /><polyline points="607.93,90.21 608.87,90.20 609.82,90.16 610.76,90.08 611.70,89.99 612.64,89.88 613.58,89.76 614.53,89.67 615.47,89.55 616.42,89.42" fill="none" stroke="#1b7f3a" stroke-width="2" stroke-linecap="round" stroke-linejoin="round" /><polygon points="616.42,195 616.42,89.42 617.36,89.26 618.30,89.08 619.24,88.91 620.18,88.77 621.13,88.62 622.07,88.47 623.01,88.30 623.95,88.10 624.90,87.92 625.84,87.74 626.78,87.57 626.78,195" fill="#ebc850" fill-opacity="0.3" /><polyline points="616.42,89.42 617.36,89.26 618.30,89.08 619.24,88.91 620.18,88.77 621.13,88.62 622.07,88.47 623.01,88.30 623.95,88.10 624.90,87.92 625.84,87.74 626.78,87.57" fill="none" stroke="#ebc850" stroke-width="2" stroke-linecap="round" stroke-linejoin="round" /><polygon points="626.78,195 626.78,87.57 627.72,87.44 628.66,87.33 629.61,87.22 630.55,87.13 631.50,87.01 632.44,86.88 633.38,86.75 634.32,86.62 635.26,86.50 636.21,86.39 637.15,86.29 638.09,86.19 639.03,86.11 639.97,86.02 640.92,85.92 641.86,85.82 642.80,85.72 643.74,85.62 644.69,85.52 645.63,85.42 646.57,85.33 647.52,85.23 648.46,85.13 649.40,85.03 650.34,84.92 651.29,84.81 652.23,84.70 653.17,84.58 654.11,84.46 655.05,84.32 656.00,84.18 656.94,84.05 657.88,83.94 658.82,83.84 659.76,83.74 660.71,83.65 661.65,83.56 662.60,83.52 662.60,195" fill="#1b7f3a" fill-opacity="0.3" /><polyline points="626.78,87.57 627.72,87.44 628.66,87.33 629.61,87.22 630.55,87.13 631.50,87.01 632.44,86.88 633.38,86.75 634.32,86.62 635.26,86.50 636.21,86.39 637.15,86.29 638.09,86.19 639.03,86.11 639.97,86.02 640.92,85.92 641.86,85.82 642.80,85.72 643.74,85.62 644.69,85.52 645.63,85.42 646.57,85.33 647.52,85.23 648.46,85.13 649.40,85.03 650.34,84.92 651.29,84.81 652.23,84.70 653.17,84.58 654.11,84.46 655.05,84.32 656.00,84.18 656.94,84.05 657.88,83.94 658.82,83.84 659.76,83.74 660.71,83.65 661.65,83.56 662.60,83.52" fill="none" stroke="#1b7f3a" stroke-width="2" stroke-linecap="round" stroke-linejoin="round" /><polygon points="662.60,195 662.60,83.52 663.54,83.53 664.48,83.56 665.42,83.60 666.36,83.64 667.31,83.66 667.31,195" fill="#4a5d23" fill-opacity="0.3" /><polyline points="662.60,83.52 663.54,83.53 664.48,83.56 665.42,83.60 666.36,83.64 667.31,83.66" fill="none" stroke="#4a5d23" stroke-width="2" stroke-linecap="round" stroke-linejoin="round" /><polygon points="667.31,195 667.31,83.66 668.25,83.64 669.19,83.59 670.13,83.51 671.08,83.39 671.08,195" fill="#1b7f3a" fill-opacity="0.3" /><polyline points="667.31,83.66 668.25,83.64 669.19,83.59 670.13,83.51 671.08,83.39" fill="none" stroke="#1b7f3a" stroke-width="2" stroke-linecap="round" stroke-linejoin="round" /><polygon points="671.08,195 671.08,83.39 672.02,83.25 672.96,83.08 673.90,82.90 674.84,82.72 675.79,82.56 676.73,82.40 677.68,82.25 678.62,82.09 678.62,195" fill="#ebc850" fill-opacity="0.3" /><polyline points="671.08,83.39 672.02,83.25 672.96,83.08 673.90,82.90 674.84,82.72 675.79,82.56 676.73,82.40 677.68,82.25 678.62,82.09" fill="none" stroke="#ebc850" stroke-width="2" stroke-linecap="round" stroke-linejoin="round" /><polygon points="678.62,195 678.62,82.09 679.56,81.96 680.50,81.89 680.50,195" fill="#1b7f3a" fill-opacity="0.3" /><polyline points="678.62,82.09 679.56,81.96 680.50,81.89" fill="none" stroke="#1b7f3a" stroke-width="2" stroke-linecap="round" stroke-linejoin="round" /><polygon points="680.50,195 680.50,81.89 681.44,81.90 682.39,81.94 683.33,81.99 684.27,82.00 684.27,195" fill="#4a5d23" fill-opacity="0.3" /><polyline points="680.50,81.89 681.44,81.90 682.39,81.94 683.33,81.99 684.27,82.00" fill="none" stroke="#4a5d23" stroke-width="2" stroke-linecap="round" stroke-linejoin="round" /><polygon points="684.27,195 684.27,82.00 685.21,81.99 686.15,81.93 687.10,81.83 688.04,81.70 688.04,195" fill="#1b7f3a" fill-opacity="0.3" /><polyline points="684.27,82.00 685.21,81.99 686.15,81.93 687.10,81.83 688.04,81.70" fill="none" stroke="#1b7f3a" stroke-width="2" stroke-linecap="round" stroke-linejoin="round" /><polygon points="688.04,195 688.04,81.70 688.98,81.54 689.92,81.38 690.87,81.21 691.81,81.07 691.81,195" fill="#ebc850" fill-opacity="0.3" /><polyline points="688.04,81.70 688.98,81.54 689.92,81.38 690.87,81.21 691.81,81.07" fill="none" stroke="#ebc850" stroke-width="2" stroke-linecap="round" stroke-linejoin="round" /><polygon points="691.81,195 691.81,81.07 692.75,80.93 693.70,80.80 694.64,80.67 695.58,80.53 696.52,80.41 697.47,80.32 698.41,80.28 699.35,80.27 700.29,80.27 701.23,80.26 702.18,80.22 703.12,80.13 704.06,80.03 705.00,79.88 705.00,195" fill="#1b7f3a" fill-opacity="0.3" /><polyline points="691.81,81.07 692.75,80.93 693.70,80.80 694.64,80.67 695.58,80.53 696.52,80.41 697.47,80.32 698.41,80.28 699.35,80.27 700.29,80.27 701.23,80.26 702.18,80.22 703.12,80.13 704.06,80.03 705.00,79.88" fill="none" stroke="#1b7f3a" stroke-width="2" stroke-linecap="round" stroke-linejoin="round" /><polygon points="705.00,195 705.00,79.88 705.95,79.74 705.95,195" fill="#ebc850" fill-opacity="0.3" /><polyline points="705.00,79.88 705.95,79.74" fill="none" stroke="#ebc850" stroke-width="2" stroke-linecap="round" stroke-linejoin="round" /><polygon points="705.95,195 705.95,79.74 706.89,79.62 707.83,79.50 708.78,79.38 709.72,79.27 710.66,79.15 711.60,79.03 712.54,78.92 713.49,78.82 714.43,78.71 715.37,78.59 716.31,78.51 717.26,78.47 718.20,78.41 719.14,78.35 720.08,78.31 721.02,78.28 721.97,78.22 722.91,78.15 723.86,78.06 724.80,77.97 725.74,77.88 725.74,195" fill="#1b7f3a" fill-opacity="0.3" /><polyline points="705.95,79.74 706.89,79.62 707.83,79.50 708.78,79.38 709.72,79.27 710.66,79.15 711.60,79.03 712.54,78.92 713.49,78.82 714.43,78.71 715.37,78.59 716.31,78.51 717.26,78.47 718.20,78.41 719.14,78.35 720.08,78.31 721.02,78.28 721.97,78.22 722.91,78.15 723.86,78.06 724.80,77.97 725.74,77.88" fill="none" stroke="#1b7f3a" stroke-width="2" stroke-linecap="round" stroke-linejoin="round" /><polygon points="725.74,195 725.74,77.88 726.68,77.70 727.62,77.46 727.62,195" fill="#ebc850" fill-opacity="0.3" /><polyline points="725.74,77.88 726.68,77.70 727.62,77.46" fill="none" stroke="#ebc850" stroke-width="2" stroke-linecap="round" stroke-linejoin="round" /><polygon points="727.62,195 727.62,77.46 728.57,77.18 729.51,76.88 729.51,195" fill="#e66e00" fill-opacity="0.3" /><polyline points="727.62,77.46 728.57,77.18 729.51,76.88" fill="none" stroke="#e66e00" stroke-width="2" stroke-linecap="round" stroke-linejoin="round" /><polygon points="729.51,195 729.51,76.88 730.45,76.66 731.39,76.47 732.33,76.29 733.28,76.09 734.22,75.86 735.16,75.59 735.16,195" fill="#ebc850" fill-opacity="0.3" /><polyline points="729.51,76.88 730.45,76.66 731.39,76.47 732.33,76.29 733.28,76.09 734.22,75.86 735.16,75.59" fill="none" stroke="#ebc850" stroke-width="2" stroke-linecap="round" stroke-linejoin="round" /><polygon points="735.16,195 735.16,75.59 736.10,75.22 736.10,195" fill="#e66e00" fill-opacity="0.3" /><polyline points="735.16,75.59 736.10,75.22" fill="none" stroke="#e66e00" stroke-width="2" stroke-linecap="round" stroke-linejoin="round" /><polygon points="736.10,195 736.10,75.22 737.05,74.75 737.99,74.22 738.93,73.66 739.88,73.01 740.82,72.29 741.76,71.53 742.70,70.74 743.65,69.96 744.59,69.16 745.53,68.38 746.47,67.68 747.41,67.15 747.41,195" fill="#a52d23" fill-opacity="0.3" /><polyline points="736.10,75.22 737.05,74.75 737.99,74.22 738.93,73.66 739.88,73.01 740.82,72.29 741.76,71.53 742.70,70.74 743.65,69.96 744.59,69.16 745.53,68.38 746.47,67.68 747.41,67.15" fill="none" stroke="#a52d23" stroke-width="2" stroke-linecap="round" stroke-linejoin="round" /><polygon points="747.41,195 747.41,67.15 748.36,66.81 748.36,195" fill="#e66e00" fill-opacity="0.3" /><polyline points="747.41,67.15 748.36,66.81" fill="none" stroke="#e66e00" stroke-width="2" stroke-linecap="round" stroke-linejoin="round" /><polygon points="748.36,195 748.36,66.81 749.30,66.68 749.30,195" fill="#1b7f3a" fill-opacity="0.3" /><polyline points="748.36,66.81 749.30,66.68" fill="none" stroke="#1b7f3a" stroke-width="2" stroke-linecap="round" stroke-linejoin="round" /><polygon points="749.30,195 749.30,66.68 750.24,66.70 750.24,195" fill="#4a5d23" fill-opacity="0.3" /><polyline points="749.30,66.68 750.24,66.70" fill="none" stroke="#4a5d23" stroke-width="2" stroke-linecap="round" stroke-linejoin="round" /><polygon points="750.24,195 750.24,66.70 751.18,66.84 752.13,67.02 753.07,67.24 754.01,67.56 754.96,67.96 755.90,68.45 756.84,69.02 757.78,69.64 758.72,70.26 759.67,70.88 760.61,71.46 761.55,71.99 762.49,72.47 763.44,72.88 764.38,73.24 765.32,73.59 766.26,73.91 767.21,74.22 768.15,74.58 769.09,74.99 770.04,75.36 770.98,75.66 771.92,75.93 772.86,76.20 773.80,76.39 773.80,195" fill="#236ea0" fill-opacity="0.3" /><polyline points="750.24,66.70 751.18,66.84 752.13,67.02 753.07,67.24 754.01,67.56 754.96,67.96 755.90,68.45 756.84,69.02 757.78,69.64 758.72,70.26 759.67,70.88 760.61,71.46 761.55,71.99 762.49,72.47 763.44,72.88 764.38,73.24 765.32,73.59 766.26,73.91 767.21,74.22 768.15,74.58 769.09,74.99 770.04,75.36 770.98,75.66 771.92,75.93 772.86,76.20 773.80,76.39" fill="none" stroke="#236ea0" stroke-width="2" stroke-linecap="round" stroke-linejoin="round" /><polygon points="773.80,195 773.80,76.39 774.75,76.49 775.69,76.51 775.69,195" fill="#4a5d23" fill-opacity="0.3" /><polyline points="773.80,76.39 774.75,76.49 775.69,76.51" fill="none" stroke="#4a5d23" stroke-width="2" stroke-linecap="round" stroke-linejoin="round" /><polygon points="775.69,195 775.69,76.51 776.63,76.43 776.63,195" fill="#1b7f3a" fill-opacity="0.3" /><polyline points="775.69,76.51 776.63,76.43" fill="none" stroke="#1b7f3a" stroke-width="2" stroke-linecap="round" stroke-linejoin="round" /><polygon points="776.63,195 776.63,76.43 777.57,76.25 777.57,195" fill="#ebc850" fill-opacity="0.3" /><polyline points="776.63,76.43 777.57,76.25" fill="none" stroke="#ebc850" stroke-width="2" stroke-linecap="round" stroke-linejoin="round" /><polygon points="777.57,195 777.57,76.25 778.51,75.96 779.46,75.56 779.46,195" fill="#e66e00" fill-opacity="0.3" /><polyline points="777.57,76.25 778.51,75.96 779.46,75.56" fill="none" stroke="#e66e00" stroke-width="2" stroke-linecap="round" stroke-linejoin="round" /><polygon points="779.46,195 779.46,75.56 780.40,75.08 781.34,74.55 782.28,73.97 783.23,73.36 784.17,72.74 785.11,72.17 786.06,71.70 786.06,195" fill="#a52d23" fill-opacity="0.3" /><polyline points="779.46,75.56 780.40,75.08 781.34,74.55 782.28,73.97 783.23,73.36 784.17,72.74 785.11,72.17 786.06,71.70" fill="none" stroke="#a52d23" stroke-width="2" stroke-linecap="round" stroke-linejoin="round" /><polygon points="786.06,195 786.06,71.70 787.00,71.29 787.94,70.89 787.94,195" fill="#e66e00" fill-opacity="0.3" /><polyline points="786.06,71.70 787.00,71.29 787.94,70.89" fill="none" stroke="#e66e00" stroke-width="2" stroke-linecap="round" stroke-linejoin="round" /><polygon points="787.94,195 787.94,70.89 788.88,70.42 789.83,69.92 790.77,69.35 791.71,68.72 792.65,68.11 793.59,67.46 794.54,66.76 795.48,66.00 796.42,65.17 797.36,64.25 798.31,63.30 799.25,62.29 800.19,61.25 801.14,60.16 802.08,59.02 803.02,57.82 803.96,56.57 804.90,55.28 805.85,53.96 806.79,52.66 807.73,51.39 808.67,50.21 809.62,49.06 810.56,47.98 811.50,46.99 812.44,46.00 813.39,45.03 814.33,44.10 815.27,43.19 816.22,42.33 817.16,41.55 818.10,40.78 819.04,40.08 819.98,39.42 820.93,38.81 821.87,38.30 821.87,195" fill="#a52d23" fill-opacity="0.3" /><polyline points="787.94,70.89 788.88,70.42 789.83,69.92 790.77,69.35 791.71,68.72 792.65,68.11 793.59,67.46 794.54,66.76 795.48,66.00 796.42,65.17 797.36,64.25 798.31,63.30 799.25,62.29 800.19,61.25 801.14,60.16 802.08,59.02 803.02,57.82 803.96,56.57 804.90,55.28 805.85,53.96 806.79,52.66 807.73,51.39 808.67,50.21 809.62,49.06 810.56,47.98 811.50,46.99 812.44,46.00 813.39,45.03 814.33,44.10 815.27,43.19 816.22,42.33 817.16,41.55 818.10,40.78 819.04,40.08 819.98,39.42 820.93,38.81 821.87,38.30" fill="none" stroke="#a52d23" stroke-width="2" stroke-linecap="round" stroke-linejoin="round" /><polygon points="821.87,195 821.87,38.30 822.81,37.95 822.81,195" fill="#e66e00" fill-opacity="0.3" /><polyline points="821.87,38.30 822.81,37.95" fill="none" stroke="#e66e00" stroke-width="2" stroke-linecap="round" stroke-linejoin="round" /><polygon points="822.81,195 822.81,37.95 823.75,37.80 823.75,195" fill="#ebc850" fill-opacity="0.3" /><polyline points="822.81,37.95 823.75,37.80" fill="none" stroke="#ebc850" stroke-width="2" stroke-linecap="round" stroke-linejoin="round" /><polygon points="823.75,195 823.75,37.80 824.69,37.84 824.69,195" fill="#4a5d23" fill-opacity="0.3" /><polyline points="823.75,37.80 824.69,37.84" fill="none" stroke="#4a5d23" stroke-width="2" stroke-linecap="round" stroke-linejoin="round" /><polygon points="824.69,195 824.69,37.84 825.64,38.04 826.58,38.38 827.52,38.76 828.46,39.04 828.46,195" fill="#236ea0" fill-opacity="0.3" /><polyline points="824.69,37.84 825.64,38.04 826.58,38.38 827.52,38.76 828.46,39.04" fill="none" stroke="#236ea0" stroke-width="2" stroke-linecap="round" stroke-linejoin="round" /><polygon points="828.46,195 828.46,39.04 829.41,39.14 829.41,195" fill="#4a5d23" fill-opacity="0.3" /><polyline points="828.46,39.04 829.41,39.14" fill="none" stroke="#4a5d23" stroke-width="2" stroke-linecap="round" stroke-linejoin="round" /><polygon points="829.41,195 829.41,39.14 830.35,39.11 830.35,195" fill="#1b7f3a" fill-opacity="0.3" /><polyline points="829.41,39.14 830.35,39.11" fill="none" stroke="#1b7f3a" stroke-width="2" stroke-linecap="round" stroke-linejoin="round" /><polygon points="830.35,195 830.35,39.11 831.29,38.91 831.29,195" fill="#ebc850" fill-opacity="0.3" /><polyline points="830.35,39.11 831.29,38.91" fill="none" stroke="#ebc850" stroke-width="2" stroke-linecap="round" stroke-linejoin="round" /><polygon points="831.29,195 831.29,38.91 832.24,38.58 832.24,195" fill="#e66e00" fill-opacity="0.3" /><polyline points="831.29,38.91 832.24,38.58" fill="none" stroke="#e66e00" stroke-width="2" stroke-linecap="round" stroke-linejoin="round" /><polygon points="832.24,195 832.24,38.58 833.18,38.13 834.12,37.60 835.06,37.01 836.01,36.37 836.95,35.71 837.89,35.16 838.83,34.71 838.83,195" fill="#a52d23" fill-opacity="0.3" /><polyline points="832.24,38.58 833.18,38.13 834.12,37.60 835.06,37.01 836.01,36.37 836.95,35.71 837.89,35.16 838.83,34.71" fill="none" stroke="#a52d23" stroke-width="2" stroke-linecap="round" stroke-linejoin="round" /><polygon points="838.83,195 838.83,34.71 839.77,34.50 839.77,195" fill="#ebc850" fill-opacity="0.3" /><polyline points="838.83,34.71 839.77,34.50" fill="none" stroke="#ebc850" stroke-width="2" stroke-linecap="round" stroke-linejoin="round" /><polygon points="839.77,195 839.77,34.50 840.72,34.56 840.72,195" fill="#4a5d23" fill-opacity="0.3" /><polyline points="839.77,34.50 840.72,34.56" fill="none" stroke="#4a5d23" stroke-width="2" stroke-linecap="round" stroke-linejoin="round" /><polygon points="840.72,195 840.72,34.56 841.66,34.90 842.60,35.48 843.54,36.27 844.49,37.25 845.43,38.37 846.37,39.55 847.32,40.74 848.26,41.99 849.20,43.43 850.14,44.93 851.08,46.53 852.03,48.16 852.97,49.85 853.91,51.51 854.85,53.09 855.80,54.57 856.74,55.96 857.68,57.19 858.62,58.28 859.57,59.15 860.51,59.81 861.45,60.25 862.40,60.53 863.34,60.68 863.34,195" fill="#236ea0" fill-opacity="0.3" /><polyline points="840.72,34.56 841.66,34.90 842.60,35.48 843.54,36.27 844.49,37.25 845.43,38.37 846.37,39.55 847.32,40.74 848.26,41.99 849.20,43.43 850.14,44.93 851.08,46.53 852.03,48.16 852.97,49.85 853.91,51.51 854.85,53.09 855.80,54.57 856.74,55.96 857.68,57.19 858.62,58.28 859.57,59.15 860.51,59.81 861.45,60.25 862.40,60.53 863.34,60.68" fill="none" stroke="#236ea0" stroke-width="2" stroke-linecap="round" stroke-linejoin="round" /><polygon points="863.34,195 863.34,60.68 864.28,60.75 864.28,195" fill="#4a5d23" fill-opacity="0.3" /><polyline points="863.34,60.68 864.28,60.75" fill="none" stroke="#4a5d23" stroke-width="2" stroke-linecap="round" stroke-linejoin="round" /><polygon points="864.28,195 864.28,60.75 865.22,60.73 866.16,60.71 866.16,195" fill="#1b7f3a" fill-opacity="0.3" /><polyline points="864.28,60.75 865.22,60.73 866.16,60.71" fill="none" stroke="#1b7f3a" stroke-width="2" stroke-linecap="round" stroke-linejoin="round" /><polygon points="866.16,195 866.16,60.71 867.11,60.77 868.05,60.83 868.05,195" fill="#4a5d23" fill-opacity="0.3" /><polyline points="866.16,60.71 867.11,60.77 868.05,60.83" fill="none" stroke="#4a5d23" stroke-width="2" stroke-linecap="round" stroke-linejoin="round" /><polygon points="868.05,195 868.05,60.83 868.99,60.81 869.93,60.75 870.87,60.64 870.87,195" fill="#1b7f3a" fill-opacity="0.3" /><polyline points="868.05,60.83 868.99,60.81 869.93,60.75 870.87,60.64" fill="none" stroke="#1b7f3a" stroke-width="2" stroke-linecap="round" stroke-linejoin="round" /><polygon points="870.87,195 870.87,60.64 871.82,60.49 872.76,60.26 872.76,195" fill="#ebc850" fill-opacity="0.3" /><polyline points="870.87,60.64 871.82,60.49 872.76,60.26" fill="none" stroke="#ebc850" stroke-width="2" stroke-linecap="round" stroke-linejoin="round" /><polygon points="872.76,195 872.76,60.26 873.70,59.96 874.65,59.63 875.59,59.32 875.59,195" fill="#e66e00" fill-opacity="0.3" /><polyline points="872.76,60.26 873.70,59.96 874.65,59.63 875.59,59.32" fill="none" stroke="#e66e00" stroke-width="2" stroke-linecap="round" stroke-linejoin="round" /><polygon points="875.59,195 875.59,59.32 876.53,59.04 876.53,195" fill="#ebc850" fill-opacity="0.3" /><polyline points="875.59,59.32 876.53,59.04" fill="none" stroke="#ebc850" stroke-width="2" stroke-linecap="round" stroke-linejoin="round" /><polygon points="876.53,195 876.53,59.04 877.47,58.65 877.47,195" fill="#e66e00" fill-opacity="0.3" /><polyline points="876.53,59.04 877.47,58.65" fill="none" stroke="#e66e00" stroke-width="2" stroke-linecap="round" stroke-linejoin="round" /><polygon points="877.47,195 877.47,58.65 878.42,58.19 879.36,57.65 880.30,57.00 881.24,56.28 882.19,55.47 883.13,54.61 884.07,53.72 885.01,52.80 885.95,51.86 886.90,50.88 887.84,49.87 888.78,48.92 889.72,48.14 890.67,47.60 890.67,195" fill="#a52d23" fill-opacity="0.3" /><polyline points="877.47,58.65 878.42,58.19 879.36,57.65 880.30,57.00 881.24,56.28 882.19,55.47 883.13,54.61 884.07,53.72 885.01,52.80 885.95,51.86 886.90,50.88 887.84,49.87 888.78,48.92 889.72,48.14 890.67,47.60" fill="none" stroke="#a52d23" stroke-width="2" stroke-linecap="round" stroke-linejoin="round" /><polygon points="890.67,195 890.67,47.60 891.61,47.27 891.61,195" fill="#e66e00" fill-opacity="0.3" /><polyline points="890.67,47.60 891.61,47.27" fill="none" stroke="#e66e00" stroke-width="2" stroke-linecap="round" stroke-linejoin="round" /><polygon points="891.61,195 891.61,47.27 892.55,47.18 892.55,195" fill="#1b7f3a" fill-opacity="0.3" /><polyline points="891.61,47.27 892.55,47.18" fill="none" stroke="#1b7f3a" stroke-width="2" stroke-linecap="round" stroke-linejoin="round" /><polygon points="892.55,195 892.55,47.18 893.50,47.32 894.44,47.72 895.38,48.32 896.32,49.01 897.26,49.82 898.21,50.76 899.15,51.82 900.09,52.96 901.03,54.19 901.98,55.44 902.92,56.65 903.86,57.71 904.80,58.64 905.75,59.35 906.69,59.86 907.63,60.20 908.58,60.44 908.58,195" fill="#236ea0" fill-opacity="0.3" /><polyline points="892.55,47.18 893.50,47.32 894.44,47.72 895.38,48.32 896.32,49.01 897.26,49.82 898.21,50.76 899.15,51.82 900.09,52.96 901.03,54.19 901.98,55.44 902.92,56.65 903.86,57.71 904.80,58.64 905.75,59.35 906.69,59.86 907.63,60.20 908.58,60.44" fill="none" stroke="#236ea0" stroke-width="2" stroke-linecap="round" stroke-linejoin="round" /><polygon points="908.58,195 908.58,60.44 909.52,60.45 909.52,195" fill="#4a5d23" fill-opacity="0.3" /><polyline points="908.58,60.44 909.52,60.45" fill="none" stroke="#4a5d23" stroke-width="2" stroke-linecap="round" stroke-linejoin="round" /><polygon points="909.52,195 909.52,60.45 910.46,60.20 910.46,195" fill="#ebc850" fill-opacity="0.3" /><polyline points="909.52,60.45 910.46,60.20" fill="none" stroke="#ebc850" stroke-width="2" stroke-linecap="round" stroke-linejoin="round" /><polygon points="910.46,195 910.46,60.20 911.40,59.75 912.34,59.13 913.29,58.36 914.23,57.46 915.17,56.48 916.11,55.50 917.05,54.64 918.00,53.89 918.94,53.21 919.88,52.64 920.83,52.09 921.77,51.59 922.71,51.11 923.65,50.67 924.60,50.22 924.60,195" fill="#a52d23" fill-opacity="0.3" /><polyline points="910.46,60.20 911.40,59.75 912.34,59.13 913.29,58.36 914.23,57.46 915.17,56.48 916.11,55.50 917.05,54.64 918.00,53.89 918.94,53.21 919.88,52.64 920.83,52.09 921.77,51.59 922.71,51.11 923.65,50.67 924.60,50.22" fill="none" stroke="#a52d23" stroke-width="2" stroke-linecap="round" stroke-linejoin="round" /><polygon points="924.60,195 924.60,50.22 925.54,49.84 926.48,49.50 926.48,195" fill="#e66e00" fill-opacity="0.3" /><polyline points="924.60,50.22 925.54,49.84 926.48,49.50" fill="none" stroke="#e66e00" stroke-width="2" stroke-linecap="round" stroke-linejoin="round" /><polygon points="926.48,195 926.48,49.50 927.42,49.22 928.37,48.95 929.31,48.72 930.25,48.50 931.19,48.29 932.13,48.05 933.08,47.84 934.02,47.66 934.96,47.52 934.96,195" fill="#ebc850" fill-opacity="0.3" /><polyline points="926.48,49.50 927.42,49.22 928.37,48.95 929.31,48.72 930.25,48.50 931.19,48.29 932.13,48.05 933.08,47.84 934.02,47.66 934.96,47.52" fill="none" stroke="#ebc850" stroke-width="2" stroke-linecap="round" stroke-linejoin="round" /><polygon points="934.96,195 934.96,47.52 935.91,47.40 936.85,47.30 937.79,47.24 938.73,47.23 938.73,195" fill="#1b7f3a" fill-opacity="0.3" /><polyline points="934.96,47.52 935.91,47.40 936.85,47.30 937.79,47.24 938.73,47.23" fill="none" stroke="#1b7f3a" stroke-width="2" stroke-linecap="round" stroke-linejoin="round" /><polygon points="938.73,195 938.73,47.23 939.68,47.25 940.62,47.32 941.56,47.45 941.56,195" fill="#4a5d23" fill-opacity="0.3" /><polyline points="938.73,47.23 939.68,47.25 940.62,47.32 941.56,47.45" fill="none" stroke="#4a5d23" stroke-width="2" stroke-linecap="round" stroke-linejoin="round" /><polygon points="941.56,195 941.56,47.45 942.50,47.64 943.44,47.85 944.39,48.09 945.33,48.34 946.27,48.56 947.21,48.73 947.21,195" fill="#236ea0" fill-opacity="0.3" /><polyline points="941.56,47.45 942.50,47.64 943.44,47.85 944.39,48.09 945.33,48.34 946.27,48.56 947.21,48.73" fill="none" stroke="#236ea0" stroke-width="2" stroke-linecap="round" stroke-linejoin="round" /><polygon points="947.21,195 947.21,48.73 948.16,48.83 949.10,48.86 949.10,195" fill="#4a5d23" fill-opacity="0.3" /><polyline points="947.21,48.73 948.16,48.83 949.10,48.86" fill="none" stroke="#4a5d23" stroke-width="2" stroke-linecap="round" stroke-linejoin="round" /><polygon points="949.10,195 949.10,48.86 950.04,48.79 950.04,195" fill="#1b7f3a" fill-opacity="0.3" /><polyline points="949.10,48.86 950.04,48.79" fill="none" stroke="#1b7f3a" stroke-width="2" stroke-linecap="round" stroke-linejoin="round" /><polygon points="950.04,195 950.04,48.79 950.98,48.63 951.93,48.42 951.93,195" fill="#ebc850" fill-opacity="0.3" /><polyline points="950.04,48.79 950.98,48.63 951.93,48.42" fill="none" stroke="#ebc850" stroke-width="2" stroke-linecap="round" stroke-linejoin="round" /><polygon points="951.93,195 951.93,48.42 952.87,48.11 953.81,47.73 953.81,195" fill="#e66e00" fill-opacity="0.3" /><polyline points="951.93,48.42 952.87,48.11 953.81,47.73" fill="none" stroke="#e66e00" stroke-width="2" stroke-linecap="round" stroke-linejoin="round" /><polygon points="953.81,195 953.81,47.73 954.76,47.27 955.70,46.80 956.64,46.34 956.64,195" fill="#a52d23" fill-opacity="0.3" /><polyline points="953.81,47.73 954.76,47.27 955.70,46.80 956.64,46.34" fill="none" stroke="#a52d23" stroke-width="2" stroke-linecap="round" stroke-linejoin="round" /><polygon points="956.64,195 956.64,46.34 957.58,45.91 958.52,45.52 959.47,45.16 960.41,44.84 961.35,44.52 962.29,44.18 963.23,43.81 964.18,43.45 965.12,43.10 966.06,42.75 967.01,42.40 967.95,42.03 968.89,41.63 969.83,41.24 970.78,40.85 971.72,40.44 972.66,40.05 973.60,39.71 973.60,195" fill="#e66e00" fill-opacity="0.3" /><polyline points="956.64,46.34 957.58,45.91 958.52,45.52 959.47,45.16 960.41,44.84 961.35,44.52 962.29,44.18 963.23,43.81 964.18,43.45 965.12,43.10 966.06,42.75 967.01,42.40 967.95,42.03 968.89,41.63 969.83,41.24 970.78,40.85 971.72,40.44 972.66,40.05 973.60,39.71" fill="none" stroke="#e66e00" stroke-width="2" stroke-linecap="round" stroke-linejoin="round" /><polygon points="973.60,195 973.60,39.71 974.55,39.45 975.49,39.21 976.43,39.03 977.37,38.88 978.31,38.71 979.26,38.54 980.20,38.34 981.14,38.15 982.09,37.96 983.03,37.79 983.97,37.62 984.91,37.44 985.86,37.26 986.80,37.04 987.74,36.80 988.68,36.52 988.68,195" fill="#ebc850" fill-opacity="0.3" /><polyline points="973.60,39.71 974.55,39.45 975.49,39.21 976.43,39.03 977.37,38.88 978.31,38.71 979.26,38.54 980.20,38.34 981.14,38.15 982.09,37.96 983.03,37.79 983.97,37.62 984.91,37.44 985.86,37.26 986.80,37.04 987.74,36.80 988.68,36.52" fill="none" stroke="#ebc850" stroke-width="2" stroke-linecap="round" stroke-linejoin="round" /><polygon points="988.68,195 988.68,36.52 989.62,36.21 990.57,35.91 990.57,195" fill="#e66e00" fill-opacity="0.3" /><polyline points="988.68,36.52 989.62,36.21 990.57,35.91" fill="none" stroke="#e66e00" stroke-width="2" stroke-linecap="round" stroke-linejoin="round" /><polygon points="990.57,195 990.57,35.91 991.51,35.64 992.45,35.43 993.39,35.25 993.39,195" fill="#ebc850" fill-opacity="0.3" /><polyline points="990.57,35.91 991.51,35.64 992.45,35.43 993.39,35.25" fill="none" stroke="#ebc850" stroke-width="2" stroke-linecap="round" stroke-linejoin="round" /><polygon points="993.39,195 993.39,35.25 994.34,35.11 995.28,35.10 995.28,195" fill="#1b7f3a" fill-opacity="0.3" /><polyline points="993.39,35.25 994.34,35.11 995.28,35.10" fill="none" stroke="#1b7f3a" stroke-width="2" stroke-linecap="round" stroke-linejoin="round" /><polygon points="995.28,195 995.28,35.10 996.22,35.22 996.22,195" fill="#4a5d23" fill-opacity="0.3" /><polyline points="995.28,35.10 996.22,35.22" fill="none" stroke="#4a5d23" stroke-width="2" stroke-linecap="round" stroke-linejoin="round" /><polygon points="996.22,195 996.22,35.22 997.17,35.40 998.11,35.62 999.05,35.87 999.99,36.13 1000.94,36.39 1001.88,36.61 1002.82,36.78 1003.76,36.95 1003.76,195" fill="#236ea0" fill-opacity="0.3" /><polyline points="996.22,35.22 997.17,35.40 998.11,35.62 999.05,35.87 999.99,36.13 1000.94,36.39 1001.88,36.61 1002.82,36.78 1003.76,36.95" fill="none" stroke="#236ea0" stroke-width="2" stroke-linecap="round" stroke-linejoin="round" /><polygon points="1003.76,195 1003.76,36.95 1004.70,37.07 1005.65,37.11 1005.65,195" fill="#4a5d23" fill-opacity="0.3" /><polyline points="1003.76,36.95 1004.70,37.07 1005.65,37.11" fill="none" stroke="#4a5d23" stroke-width="2" stroke-linecap="round" stroke-linejoin="round" /><polygon points="1005.65,195 1005.65,37.11 1006.59,37.08 1007.53,36.98 1008.47,36.85 1008.47,195" fill="#1b7f3a" fill-opacity="0.3" /><polyline points="1005.65,37.11 1006.59,37.08 1007.53,36.98 1008.47,36.85" fill="none" stroke="#1b7f3a" stroke-width="2" stroke-linecap="round" stroke-linejoin="round" /><polygon points="1008.47,195 1008.47,36.85 1009.41,36.67 1010.36,36.49 1010.36,195" fill="#ebc850" fill-opacity="0.3" /><polyline points="1008.47,36.85 1009.41,36.67 1010.36,36.49" fill="none" stroke="#ebc850" stroke-width="2" stroke-linecap="round" stroke-linejoin="round" /><polygon points="1010.36,195 1010.36,36.49 1011.30,36.38 1012.24,36.30 1012.24,195" fill="#1b7f3a" fill-opacity="0.3" /><polyline points="1010.36,36.49 1011.30,36.38 1012.24,36.30" fill="none" stroke="#1b7f3a" stroke-width="2" stroke-linecap="round" stroke-linejoin="round" /><polygon points="1012.24,195 1012.24,36.30 1013.19,36.33 1014.13,36.46 1014.13,195" fill="#4a5d23" fill-opacity="0.3" /><polyline points="1012.24,36.30 1013.19,36.33 1014.13,36.46" fill="none" stroke="#4a5d23" stroke-width="2" stroke-linecap="round" stroke-linejoin="round" /><polygon points="1014.13,195 1014.13,36.46 1015.07,36.63 1016.01,36.84 1016.96,37.02 1017.90,37.21 1018.84,37.46 1019.78,37.76 1020.73,38.12 1021.67,38.52 1022.61,39.15 1023.55,39.90 1024.49,40.76 1025.44,41.68 1026.38,42.56 1027.32,43.40 1028.27,44.08 1029.21,44.62 1030.15,45.00 1031.09,45.14 1031.09,195" fill="#236ea0" fill-opacity="0.3" /><polyline points="1014.13,36.46 1015.07,36.63 1016.01,36.84 1016.96,37.02 1017.90,37.21 1018.84,37.46 1019.78,37.76 1020.73,38.12 1021.67,38.52 1022.61,39.15 1023.55,39.90 1024.49,40.76 1025.44,41.68 1026.38,42.56 1027.32,43.40 1028.27,44.08 1029.21,44.62 1030.15,45.00 1031.09,45.14" fill="none" stroke="#236ea0" stroke-width="2" stroke-linecap="round" stroke-linejoin="round" /><polygon points="1031.09,195 1031.09,45.14 1032.04,45.09 1032.04,195" fill="#1b7f3a" fill-opacity="0.3" /><polyline points="1031.09,45.14 1032.04,45.09" fill="none" stroke="#1b7f3a" stroke-width="2" stroke-linecap="round" stroke-linejoin="round" /><polygon points="1032.04,195 1032.04,45.09 1032.98,44.82 1032.98,195" fill="#ebc850" fill-opacity="0.3" /><polyline points="1032.04,45.09 1032.98,44.82" fill="none" stroke="#ebc850" stroke-width="2" stroke-linecap="round" stroke-linejoin="round" /><polygon points="1032.98,195 1032.98,44.82 1033.92,44.36 1034.86,43.69 1035.80,42.86 1036.75,41.94 1037.69,40.95 1038.63,39.97 1039.57,38.98 1040.52,38.06 1041.46,37.31 1042.40,36.61 1043.35,35.98 1044.29,35.38 1045.23,34.79 1046.17,34.27 1047.12,33.79 1048.06,33.34 1049.00,32.87 1049.00,195" fill="#a52d23" fill-opacity="0.3" /><polyline points="1032.98,44.82 1033.92,44.36 1034.86,43.69 1035.80,42.86 1036.75,41.94 1037.69,40.95 1038.63,39.97 1039.57,38.98 1040.52,38.06 1041.46,37.31 1042.40,36.61 1043.35,35.98 1044.29,35.38 1045.23,34.79 1046.17,34.27 1047.12,33.79 1048.06,33.34 1049.00,32.87" fill="none" stroke="#a52d23" stroke-width="2" stroke-linecap="round" stroke-linejoin="round" /><polygon points="1049.00,195 1049.00,32.87 1049.94,32.48 1050.88,32.17 1050.88,195" fill="#e66e00" fill-opacity="0.3" /><polyline points="1049.00,32.87 1049.94,32.48 1050.88,32.17" fill="none" stroke="#e66e00" stroke-width="2" stroke-linecap="round" stroke-linejoin="round" /><polygon points="1050.88,195 1050.88,32.17 1051.83,31.93 1052.77,31.79 1052.77,195" fill="#ebc850" fill-opacity="0.3" /><polyline points="1050.88,32.17 1051.83,31.93 1052.77,31.79" fill="none" stroke="#ebc850" stroke-width="2" stroke-linecap="round" stroke-linejoin="round" /><polygon points="1052.77,195 1052.77,31.79 1053.71,31.72 1053.71,195" fill="#1b7f3a" fill-opacity="0.3" /><polyline points="1052.77,31.79 1053.71,31.72" fill="none" stroke="#1b7f3a" stroke-width="2" stroke-linecap="round" stroke-linejoin="round" /><polygon points="1053.71,195 1053.71,31.72 1054.65,31.76 1055.59,31.85 1056.54,31.99 1056.54,195" fill="#4a5d23" fill-opacity="0.3" /><polyline points="1053.71,31.72 1054.65,31.76 1055.59,31.85 1056.54,31.99" fill="none" stroke="#4a5d23" stroke-width="2" stroke-linecap="round" stroke-linejoin="round" /><polygon points="1056.54,195 1056.54,31.99 1057.48,32.19 1058.42,32.38 1059.37,32.59 1059.37,195" fill="#236ea0" fill-opacity="0.3" /><polyline points="1056.54,31.99 1057.48,32.19 1058.42,32.38 1059.37,32.59" fill="none" stroke="#236ea0" stroke-width="2" stroke-linecap="round" stroke-linejoin="round" /><polygon points="1059.37,195 1059.37,32.59 1060.31,32.72 1061.25,32.82 1062.19,32.91 1063.14,33.00 1064.08,33.11 1065.02,33.24 1065.02,195" fill="#4a5d23" fill-opacity="0.3" /><polyline points="1059.37,32.59 1060.31,32.72 1061.25,32.82 1062.19,32.91 1063.14,33.00 1064.08,33.11 1065.02,33.24" fill="none" stroke="#4a5d23" stroke-width="2" stroke-linecap="round" stroke-linejoin="round" /><polygon points="1065.02,195 1065.02,33.24 1065.96,33.39 1065.96,195" fill="#236ea0" fill-opacity="0.3" /><polyline points="1065.02,33.24 1065.96,33.39" fill="none" stroke="#236ea0" stroke-width="2" stroke-linecap="round" stroke-linejoin="round" /><polygon points="1065.96,195 1065.96,33.39 1066.91,33.49 1067.85,33.57 1068.79,33.70 1068.79,195" fill="#4a5d23" fill-opacity="0.3" /><polyline points="1065.96,33.39 1066.91,33.49 1067.85,33.57 1068.79,33.70" fill="none" stroke="#4a5d23" stroke-width="2" stroke-linecap="round" stroke-linejoin="round" /><polygon points="1068.79,195 1068.79,33.70 1069.73,33.84 1070.67,34.01 1071.62,34.19 1072.56,34.38 1073.50,34.57 1074.45,34.76 1075.39,34.97 1076.33,35.18 1077.27,35.40 1078.22,35.59 1078.22,195" fill="#236ea0" fill-opacity="0.3" /><polyline points="1068.79,33.70 1069.73,33.84 1070.67,34.01 1071.62,34.19 1072.56,34.38 1073.50,34.57 1074.45,34.76 1075.39,34.97 1076.33,35.18 1077.27,35.40 1078.22,35.59" fill="none" stroke="#236ea0" stroke-width="2" stroke-linecap="round" stroke-linejoin="round" /><polygon points="1078.22,195 1078.22,35.59 1079.16,35.64 1080.10,35.74 1080.10,195" fill="#4a5d23" fill-opacity="0.3" /><polyline points="1078.22,35.59 1079.16,35.64 1080.10,35.74" fill="none" stroke="#4a5d23" stroke-width="2" stroke-linecap="round" stroke-linejoin="round" /><polygon points="1080.10,195 1080.10,35.74 1081.04,35.92 1081.98,36.11 1082.93,36.29 1083.87,36.48 1084.81,36.67 1085.75,36.90 1086.70,37.16 1087.64,37.42 1088.58,37.70 1089.53,37.94 1090.47,38.16 1090.47,195" fill="#236ea0" fill-opacity="0.3" /><polyline points="1080.10,35.74 1081.04,35.92 1081.98,36.11 1082.93,36.29 1083.87,36.48 1084.81,36.67 1085.75,36.90 1086.70,37.16 1087.64,37.42 1088.58,37.70 1089.53,37.94 1090.47,38.16" fill="none" stroke="#236ea0" stroke-width="2" stroke-linecap="round" stroke-linejoin="round" /><polygon points="1090.47,195 1090.47,38.16 1091.41,38.30 1092.35,38.37 1093.30,38.39 1093.30,195" fill="#4a5d23" fill-opacity="0.3" /><polyline points="1090.47,38.16 1091.41,38.30 1092.35,38.37 1093.30,38.39" fill="none" stroke="#4a5d23" stroke-width="2" stroke-linecap="round" stroke-linejoin="round" /><polygon points="1093.30,195 1093.30,38.39 1094.24,38.32 1095.18,38.21 1095.18,195" fill="#1b7f3a" fill-opacity="0.3" /><polyline points="1093.30,38.39 1094.24,38.32 1095.18,38.21" fill="none" stroke="#1b7f3a" stroke-width="2" stroke-linecap="round" stroke-linejoin="round" /><polygon points="1095.18,195 1095.18,38.21 1096.12,38.06 1097.06,37.83 1098.01,37.56 1098.95,37.33 1099.89,37.06 1099.89,195" fill="#ebc850" fill-opacity="0.3" /><polyline points="1095.18,38.21 1096.12,38.06 1097.06,37.83 1098.01,37.56 1098.95,37.33 1099.89,37.06" fill="none" stroke="#ebc850" stroke-width="2" stroke-linecap="round" stroke-linejoin="round" /><polygon points="1099.89,195 1099.89,37.06 1100.83,36.71 1100.83,195" fill="#e66e00" fill-opacity="0.3" /><polyline points="1099.89,37.06 1100.83,36.71" fill="none" stroke="#e66e00" stroke-width="2" stroke-linecap="round" stroke-linejoin="round" /><polygon points="1100.83,195 1100.83,36.71 1101.77,36.29 1101.77,195" fill="#a52d23" fill-opacity="0.3" /><polyline points="1100.83,36.71 1101.77,36.29" fill="none" stroke="#a52d23" stroke-width="2" stroke-linecap="round" stroke-linejoin="round" /><polygon points="1101.77,195 1101.77,36.29 1102.72,35.88 1103.66,35.46 1104.61,35.13 1105.55,34.80 1106.49,34.41 1107.43,34.08 1108.37,33.72 1109.32,33.42 1110.26,33.11 1110.26,195" fill="#e66e00" fill-opacity="0.3" /><polyline points="1101.77,36.29 1102.72,35.88 1103.66,35.46 1104.61,35.13 1105.55,34.80 1106.49,34.41 1107.43,34.08 1108.37,33.72 1109.32,33.42 1110.26,33.11" fill="none" stroke="#e66e00" stroke-width="2" stroke-linecap="round" stroke-linejoin="round" /><polygon points="1110.26,195 1110.26,33.11 1111.20,32.87 1112.14,32.70 1112.14,195" fill="#ebc850" fill-opacity="0.3" /><polyline points="1110.26,33.11 1111.20,32.87 1112.14,32.70" fill="none" stroke="#ebc850" stroke-width="2" stroke-linecap="round" stroke-linejoin="round" /><polygon points="1112.14,195 1112.14,32.70 1113.09,32.57 1114.03,32.53 1114.97,32.52 1114.97,195" fill="#1b7f3a" fill-opacity="0.3" /><polyline points="1112.14,32.70 1113.09,32.57 1114.03,32.53 1114.97,32.52" fill="none" stroke="#1b7f3a" stroke-width="2" stroke-linecap="round" stroke-linejoin="round" /><polygon points="1114.97,195 1114.97,32.52 1115.91,32.58 1116.85,32.66 1117.80,32.72 1117.80,195" fill="#4a5d23" fill-opacity="0.3" /><polyline points="1114.97,32.52 1115.91,32.58 1116.85,32.66 1117.80,32.72" fill="none" stroke="#4a5d23" stroke-width="2" stroke-linecap="round" stroke-linejoin="round" /><polygon points="1117.80,195 1117.80,32.72 1118.74,32.70 1119.68,32.66 1120.63,32.58 1121.57,32.53 1122.51,32.49 1123.45,32.45 1124.40,32.34 1124.40,195" fill="#1b7f3a" fill-opacity="0.3" /><polyline points="1117.80,32.72 1118.74,32.70 1119.68,32.66 1120.63,32.58 1121.57,32.53 1122.51,32.49 1123.45,32.45 1124.40,32.34" fill="none" stroke="#1b7f3a" stroke-width="2" stroke-linecap="round" stroke-linejoin="round" /><polygon points="1124.40,195 1124.40,32.34 1125.34,32.16 1126.28,31.99 1127.22,31.76 1128.16,31.55 1129.11,31.32 1130.05,31.10 1130.99,30.89 1131.93,30.67 1132.88,30.42 1133.82,30.17 1134.76,29.94 1135.71,29.67 1136.65,29.40 1136.65,195" fill="#ebc850" fill-opacity="0.3" /><polyline points="1124.40,32.34 1125.34,32.16 1126.28,31.99 1127.22,31.76 1128.16,31.55 1129.11,31.32 1130.05,31.10 1130.99,30.89 1131.93,30.67 1132.88,30.42 1133.82,30.17 1134.76,29.94 1135.71,29.67 1136.65,29.40" fill="none" stroke="#ebc850" stroke-width="2" stroke-linecap="round" stroke-linejoin="round" /><polygon points="1136.65,195 1136.65,29.40 1137.59,29.10 1137.59,195" fill="#e66e00" fill-opacity="0.3" /><polyline points="1136.65,29.40 1137.59,29.10" fill="none" stroke="#e66e00" stroke-width="2" stroke-linecap="round" stroke-linejoin="round" /><polygon points="1137.59,195 1137.59,29.10 1138.53,28.89 1139.48,28.73 1139.48,195" fill="#ebc850" fill-opacity="0.3" /><polyline points="1137.59,29.10 1138.53,28.89 1139.48,28.73" fill="none" stroke="#ebc850" stroke-width="2" stroke-linecap="round" stroke-linejoin="round" /><polygon points="1139.48,195 1139.48,28.73 1140.42,28.63 1141.36,28.57 1142.30,28.53 1143.24,28.51 1144.19,28.48 1145.13,28.48 1146.07,28.47 1147.01,28.46 1147.95,28.37 1148.90,28.33 1148.90,195" fill="#1b7f3a" fill-opacity="0.3" /><polyline points="1139.48,28.73 1140.42,28.63 1141.36,28.57 1142.30,28.53 1143.24,28.51 1144.19,28.48 1145.13,28.48 1146.07,28.47 1147.01,28.46 1147.95,28.37 1148.90,28.33" fill="none" stroke="#1b7f3a" stroke-width="2" stroke-linecap="round" stroke-linejoin="round" /><polygon points="1148.90,195 1148.90,28.33 1149.84,28.39 1150.79,28.50 1150.79,195" fill="#4a5d23" fill-opacity="0.3" /><polyline points="1148.90,28.33 1149.84,28.39 1150.79,28.50" fill="none" stroke="#4a5d23" stroke-width="2" stroke-linecap="round" stroke-linejoin="round" /><polygon points="1150.79,195 1150.79,28.50 1151.73,28.66 1152.67,28.94 1153.61,29.33 1154.55,29.85 1155.50,30.56 1156.44,31.39 1157.38,32.34 1158.32,33.35 1159.27,34.40 1160.21,35.47 1161.15,36.51 1162.09,37.45 1163.03,38.27 1163.98,38.95 1164.92,39.43 1165.87,39.72 1165.87,195" fill="#236ea0" fill-opacity="0.3" /><polyline points="1150.79,28.50 1151.73,28.66 1152.67,28.94 1153.61,29.33 1154.55,29.85 1155.50,30.56 1156.44,31.39 1157.38,32.34 1158.32,33.35 1159.27,34.40 1160.21,35.47 1161.15,36.51 1162.09,37.45 1163.03,38.27 1163.98,38.95 1164.92,39.43 1165.87,39.72" fill="none" stroke="#236ea0" stroke-width="2" stroke-linecap="round" stroke-linejoin="round" /><polygon points="1165.87,195 1165.87,39.72 1166.81,39.81 1167.75,39.89 1168.69,39.93 1168.69,195" fill="#4a5d23" fill-opacity="0.3" /><polyline points="1165.87,39.72 1166.81,39.81 1167.75,39.89 1168.69,39.93" fill="none" stroke="#4a5d23" stroke-width="2" stroke-linecap="round" stroke-linejoin="round" /><polygon points="1168.69,195 1168.69,39.93 1169.63,39.89 1170.58,39.83 1171.52,39.74 1172.46,39.64 1173.40,39.54 1174.34,39.45 1175.29,39.38 1176.23,39.36 1176.23,195" fill="#1b7f3a" fill-opacity="0.3" /><polyline points="1168.69,39.93 1169.63,39.89 1170.58,39.83 1171.52,39.74 1172.46,39.64 1173.40,39.54 1174.34,39.45 1175.29,39.38 1176.23,39.36" fill="none" stroke="#1b7f3a" stroke-width="2" stroke-linecap="round" stroke-linejoin="round" /><polygon points="1176.23,195 1176.23,39.36 1177.17,39.38 1178.11,39.46 1178.11,195" fill="#4a5d23" fill-opacity="0.3" /><polyline points="1176.23,39.36 1177.17,39.38 1178.11,39.46" fill="none" stroke="#4a5d23" stroke-width="2" stroke-linecap="round" stroke-linejoin="round" /><polygon points="1178.11,195 1178.11,39.46 1179.06,39.61 1180.00,39.85 1180.00,195" fill="#236ea0" fill-opacity="0.3" /><polyline points="1178.11,39.46 1179.06,39.61 1180.00,39.85" fill="none" stroke="#236ea0" stroke-width="2" stroke-linecap="round" stroke-linejoin="round" /><text x="50.00" y="220" font-family="Montserrat, sans-serif" font-size="14" font-weight="700" fill="#333333ff" text-anchor="middle">0 mi</text><text x="725.82" y="220" font-family="Montserrat, sans-serif" font-size="14" font-weight="700" fill="#333333ff" text-anchor="middle">1 mi</text><text x="35" y="199.00" font-family="Montserrat, sans-serif" font-size="14" font-weight="700" fill="#333333ff" text-anchor="end">2703'</text><text x="35" y="143.44" font-family="Montserrat, sans-serif" font-size="14" font-weight="700" fill="#333333ff" text-anchor="end">2818'</text><text x="35" y="87.89" font-family="Montserrat, sans-serif" font-size="14" font-weight="700" fill="#333333ff" text-anchor="end">2933'</text><text x="35" y="32.33" font-family="Montserrat, sans-serif" font-size="14" font-weight="700" fill="#333333ff" text-anchor="end">3048'</text></svg>