<svg width="300" height="60" xmlns="http://www.w3.org/2000/svg">
  <polyline fill="rgba(255,200,0,0.3)" stroke="#ffbb00" stroke-width="2" points="4.00,55.60 4.26,55.39 4.52,55.10 4.78,54.67 5.04,54.27 5.30,53.27 5.56,52.41 5.82,51.57 6.08,51.42 6.34,51.00 6.60,50.11 6.86,49.70 7.12,49.43 7.38,49.06 7.64,48.86 7.90,48.53 8.16,48.13 8.42,47.74 8.68,47.19 8.94,46.59 9.20,45.91 9.46,44.90 9.72,44.05 9.98,43.09 10.24,42.18 10.50,41.27 10.76,40.66 11.02,40.29 11.28,39.79 11.54,39.41 11.80,38.87 12.06,38.47 12.32,38.05 12.58,37.64 12.84,37.34 13.10,36.84 13.36,36.52 13.62,35.95 13.88,35.51 14.14,35.10 14.40,34.93 14.66,34.87 14.92,34.69 15.18,34.12 15.44,33.86 15.70,33.55 15.96,33.03 16.22,32.21 16.48,31.61 16.74,31.10 17.00,30.39 17.26,29.66 17.52,29.07 17.78,28.81 18.04,28.25 18.30,27.68 18.56,27.08 18.82,26.52 19.08,26.14 19.34,25.62 19.60,25.18 19.86,24.70 20.12,24.27 20.38,23.86 20.64,23.40 20.90,22.95 21.16,22.35 21.42,21.77 21.68,21.19 21.94,20.63 22.20,20.11 22.46,19.44 22.72,18.84 22.98,18.34 23.24,17.82 23.50,17.41 23.76,16.80 24.02,15.98 24.28,15.45 24.54,15.02 24.80,14.79 25.06,14.76 25.32,14.70 25.58,15.07 25.84,15.68 26.10,16.11 26.36,16.26 26.62,16.56 26.88,16.48 27.14,15.95 27.40,15.34 27.66,14.76 27.92,14.15 28.18,13.47 28.44,12.68 28.70,12.37 28.96,12.06 29.22,11.72 29.48,11.47 29.74,11.00 30.00,10.55 30.26,10.02 30.52,9.61 30.78,9.13 31.04,8.52 31.30,8.14 31.56,7.58 31.82,6.89 32.08,6.13 32.34,5.08 32.60,4.40 32.86,4.00 33.12,4.28 33.38,5.75 33.64,6.53 33.90,7.42 34.16,8.02 34.42,8.84 34.68,10.05 34.94,12.56 35.20,9.95 35.46,7.56 35.72,7.50 35.98,8.13 36.24,8.96 36.50,9.98 36.76,10.84 37.02,10.92 37.28,11.19 37.54,12.13 37.80,9.12 38.06,8.62 38.32,8.72 38.58,8.74 38.84,8.59 39.10,8.59 39.36,8.41 39.62,8.16 39.88,7.91 40.14,7.56 40.40,7.18 40.66,6.88 40.92,6.79 41.18,7.00 41.44,7.95 41.70,10.25 41.96,9.65 42.22,6.39 42.48,5.82 42.74,5.59 43.00,5.70 43.26,6.32 43.52,6.88 43.78,7.59 44.04,7.76 44.30,7.42 44.56,6.81 44.82,5.50 45.08,5.16 45.34,5.14 45.60,5.44 45.86,5.77 46.12,6.19 46.38,6.46 46.64,7.19 46.90,7.49 47.16,7.21 47.42,7.04 47.68,7.23 47.94,7.43 48.20,7.74 48.46,8.32 48.72,7.81 48.98,6.92 49.24,6.92 49.50,7.24 49.76,7.50 50.02,7.83 50.28,8.44 50.54,9.25 50.80,9.98 51.06,10.57 51.32,10.60 51.58,10.57 51.84,10.71 52.10,10.82 52.36,11.31 52.62,11.56 52.88,11.94 53.14,12.37 53.40,13.95 53.66,13.68 53.92,12.01 54.18,11.70 54.44,11.64 54.70,12.22 54.96,11.76 55.22,11.04 55.48,11.33 55.74,13.04 56.00,14.42 56.26,15.16 56.52,14.38 56.78,13.29 57.04,12.94 57.30,13.33 57.56,13.36 57.82,14.81 58.08,13.58 58.34,13.02 58.60,12.48 58.86,12.42 59.12,12.04 59.38,11.63 59.64,11.26 59.90,11.03 60.16,10.71 60.42,10.41 60.68,9.93 60.94,9.93 61.20,11.33 61.46,10.75 61.72,9.87 61.98,8.54 62.24,7.78 62.50,7.65 62.76,8.01 63.02,7.94 63.28,7.22 63.54,6.71 63.80,6.77 64.06,7.28 64.32,7.79 64.58,6.23 64.84,6.20 65.10,5.64 65.36,6.72 65.62,5.28 65.88,5.62 66.14,5.70 66.40,5.79 66.66,6.74 66.92,7.29 67.18,8.32 67.44,8.35 67.70,8.32 67.96,8.50 68.22,7.34 68.48,6.13 68.74,5.60 69.00,5.19 69.26,5.14 69.52,5.99 69.78,7.07 70.04,7.30 70.30,7.37 70.56,8.51 70.82,8.51 71.08,8.97 71.34,8.40 71.60,8.45 71.86,8.81 72.12,9.34 72.38,9.95 72.64,10.10 72.90,11.76 73.16,11.13 73.42,11.18 73.68,9.68 73.94,8.62 74.20,8.26 74.46,8.09 74.72,8.03 74.98,8.63 75.24,9.29 75.50,9.84 75.76,10.50 76.02,10.96 76.28,11.20 76.54,11.52 76.80,12.36 77.07,55.86 77.33,55.65 77.59,55.50 77.85,54.83 78.11,54.53 78.37,53.42 78.63,52.61 78.89,51.86 79.15,51.50 79.41,51.16 79.67,50.38 79.93,49.89 80.19,49.55 80.45,49.25 80.71,49.14 80.97,48.80 81.23,48.44 81.49,47.98 81.75,47.57 82.01,46.81 82.27,46.09 82.53,45.32 82.79,44.50 83.05,43.43 83.31,42.41 83.57,41.66 83.83,40.92 84.09,40.49 84.35,40.23 84.61,39.83 84.87,39.21 85.13,38.72 85.39,38.27 85.65,38.12 85.91,37.73 86.17,37.27 86.43,36.71 86.69,36.25 86.95,35.81 87.21,35.36 87.47,35.37 87.73,35.00 87.99,35.08 88.25,34.33 88.51,34.12 88.77,33.82 89.03,33.37 89.29,32.41 89.55,31.92 89.81,31.33 90.07,30.85 90.33,30.14 90.59,29.42 90.85,29.14 91.11,28.68 91.37,27.84 91.63,27.37 91.89,26.93 92.15,26.27 92.41,26.01 92.67,25.47 92.93,25.13 93.19,24.64 93.45,24.13 93.71,23.80 93.97,23.09 94.23,22.73 94.49,22.04 94.75,21.49 95.01,21.02 95.27,20.52 95.53,19.64 95.79,19.20 96.05,18.65 96.31,18.26 96.57,17.69 96.83,17.20 97.09,16.36 97.35,15.85 97.61,15.47 97.87,15.19 98.13,15.12 98.39,14.96 98.65,15.36 98.91,16.01 99.17,16.41 99.43,16.65 99.69,17.00 99.95,16.69 100.21,16.34 100.47,15.86 100.73,14.93 100.99,14.41 101.25,13.77 101.51,13.07 101.77,12.60 102.03,12.43 102.29,12.05 102.55,11.70 102.81,11.29 103.07,11.04 103.33,10.48 103.59,10.00 103.85,9.49 104.11,8.99 104.37,8.40 104.63,7.93 104.89,7.29 105.15,6.49 105.41,5.36 105.67,5.01 105.93,4.31 106.19,5.18 106.45,6.15 106.71,6.96 106.97,7.53 107.23,8.60 107.49,9.59 107.75,10.58 108.01,12.65 108.27,10.27 108.53,7.86 108.79,8.27 109.05,8.77 109.31,9.44 109.57,10.27 109.83,11.22 110.09,11.30 110.35,11.60 110.61,11.93 110.87,9.58 111.13,9.17 111.39,9.26 111.65,9.26 111.91,9.02 112.17,8.90 112.43,8.66 112.69,8.46 112.95,8.07 113.21,7.75 113.47,7.44 113.73,7.22 113.99,7.16 114.25,7.46 114.51,8.23 114.77,10.39 115.03,9.04 115.29,6.81 115.55,6.06 115.81,5.78 116.07,6.00 116.33,6.80 116.59,7.61 116.85,7.72 117.11,8.08 117.37,7.73 117.63,6.73 117.89,5.96 118.15,5.53 118.41,5.50 118.67,5.85 118.93,6.21 119.19,6.60 119.45,6.94 119.71,7.35 119.97,7.94 120.23,7.60 120.49,7.31 120.75,7.57 121.01,7.86 121.27,8.25 121.53,8.73 121.79,8.23 122.05,7.33 122.31,7.30 122.57,7.49 122.83,7.71 123.09,8.27 123.35,8.66 123.61,9.50 123.87,10.26 124.13,11.09 124.39,10.75 124.65,10.77 124.91,11.13 125.17,11.37 125.43,11.57 125.69,12.01 125.95,12.38 126.21,12.72 126.47,14.65 126.73,14.13 126.99,12.46 127.25,11.86 127.51,12.16 127.77,12.45 128.03,12.24 128.29,11.64 128.55,11.70 128.81,13.39 129.07,15.06 129.33,15.38 129.59,14.25 129.85,13.21 130.11,13.30 130.37,13.54 130.63,13.77 130.89,15.28 131.15,13.81 131.41,13.40 131.67,13.13 131.93,12.68 132.19,12.52 132.45,11.94 132.71,11.62 132.97,11.45 133.23,11.03 133.49,10.82 133.75,10.36 134.01,10.21 134.27,11.39 134.53,11.04 134.79,10.37 135.05,9.10 135.31,7.99 135.57,8.01 135.83,8.57 136.09,8.65 136.35,7.70 136.61,7.03 136.87,7.38 137.13,7.51 137.39,8.03 137.65,6.70 137.91,6.66 138.17,6.26 138.43,7.03 138.69,5.69 138.95,6.09 139.21,6.32 139.47,6.34 139.73,7.07 139.99,7.74 140.25,8.49 140.51,8.77 140.77,8.50 141.03,8.92 141.29,7.75 141.55,6.93 141.81,5.87 142.07,5.47 142.33,5.42 142.59,6.79 142.85,7.67 143.11,7.59 143.37,7.94 143.63,8.99 143.89,8.66 144.15,8.62 144.41,8.68 144.67,8.79 144.93,9.16 145.19,10.01 145.45,10.12 145.71,10.62 145.97,12.45 146.23,11.59 146.49,11.20 146.75,10.14 147.01,9.04 147.27,8.60 147.53,8.49 147.79,7.91 148.05,8.33 148.31,9.33 148.57,9.69 148.83,10.68 149.09,11.32 149.35,11.61 149.61,11.84 149.87,12.74 150.13,56.00 150.39,55.20 150.65,55.30 150.91,54.89 151.17,54.28 151.43,53.05 151.69,52.32 151.95,51.20 152.21,50.93 152.47,51.46 152.73,50.40 152.99,49.85 153.25,49.33 153.51,49.24 153.77,48.94 154.03,48.32 154.29,47.96 154.55,47.57 154.81,47.13 155.07,46.64 155.33,46.20 155.59,45.01 155.85,44.45 156.11,43.19 156.37,41.94 156.63,41.86 156.89,40.96 157.15,40.51 157.41,40.11 157.67,39.69 157.93,38.78 158.19,38.31 158.45,37.85 158.71,38.09 158.97,37.68 159.23,37.24 159.49,36.78 159.75,36.30 160.01,35.86 160.27,35.54 160.53,35.47 160.79,34.51 161.05,34.55 161.31,34.65 161.57,33.67 161.83,33.67 162.09,33.67 162.35,32.49 162.61,31.79 162.87,31.06 163.13,30.45 163.39,29.88 163.65,29.01 163.91,28.85 164.17,28.08 164.43,27.31 164.69,27.30 164.95,26.71 165.21,26.16 165.47,25.65 165.73,25.26 165.99,24.77 166.25,24.26 166.51,23.80 166.77,23.75 167.03,23.23 167.29,22.70 167.55,21.63 167.81,21.11 168.07,20.61 168.33,20.12 168.59,19.64 168.85,19.18 169.11,18.33 169.37,17.98 169.63,17.63 169.89,16.59 170.15,16.43 170.41,15.65 170.67,15.03 170.93,15.03 171.19,14.61 171.45,14.45 171.71,15.23 171.97,15.45 172.23,16.02 172.49,16.20 172.75,16.35 173.01,16.67 173.27,15.77 173.53,15.61 173.79,14.32 174.05,14.09 174.31,13.54 174.57,12.63 174.83,12.63 175.09,11.95 175.35,12.02 175.61,11.46 175.87,10.78 176.13,10.74 176.39,10.05 176.65,10.00 176.91,9.29 177.17,8.53 177.43,7.87 177.69,7.87 177.95,6.99 178.21,6.22 178.47,5.65 178.73,5.01 178.99,4.26 179.25,4.47 179.51,5.19 179.77,6.03 180.03,6.57 180.29,8.88 180.55,9.21 180.81,9.55 181.07,11.93 181.33,9.50 181.59,7.93 181.85,8.07 182.11,8.88 182.37,9.88 182.63,10.11 182.89,10.70 183.15,10.79 183.41,11.38 183.67,10.24 183.93,9.28 184.19,8.88 184.45,8.88 184.71,9.58 184.97,9.26 185.23,9.00 185.49,8.75 185.75,8.55 186.01,7.37 186.27,7.45 186.53,6.87 186.79,7.55 187.05,7.45 187.31,7.45 187.57,7.70 187.83,9.00 188.09,8.68 188.35,6.14 188.61,6.26 188.87,5.09 189.13,5.37 189.39,6.26 189.65,7.47 189.91,7.05 190.17,7.45 190.43,7.45 190.69,6.24 190.95,6.24 191.21,5.56 191.47,5.47 191.73,6.45 191.99,6.13 192.25,5.99 192.51,7.09 192.77,7.09 193.03,7.92 193.29,7.62 193.55,6.59 193.81,7.16 194.07,7.79 194.33,7.54 194.59,8.37 194.85,7.84 195.11,6.76 195.37,6.90 195.63,6.58 195.89,7.64 196.15,7.88 196.41,8.89 196.67,9.22 196.93,9.57 197.19,11.20 197.45,10.43 197.71,11.09 197.97,10.56 198.23,11.68 198.49,11.77 198.75,11.85 199.01,11.85 199.27,11.89 199.53,13.61 199.79,13.73 200.05,11.85 200.31,11.69 200.57,12.52 200.83,12.23 201.09,12.24 201.35,11.04 201.61,11.94 201.87,12.99 202.13,14.77 202.39,15.06 202.65,13.97 202.91,12.72 203.17,13.68 203.43,13.11 203.69,13.87 203.95,14.06 204.21,12.91 204.47,14.06 204.73,12.92 204.99,13.09 205.25,12.04 205.51,11.91 205.77,11.34 206.03,11.25 206.29,10.89 206.55,10.19 206.81,10.47 207.07,10.19 207.33,10.37 207.59,10.85 207.85,9.64 208.11,8.53 208.37,7.70 208.63,8.32 208.89,7.79 209.15,8.73 209.41,8.04 209.67,6.53 209.93,6.69 210.19,7.25 210.45,7.56 210.71,6.53 210.97,6.08 211.23,5.82 211.49,6.16 211.75,5.42 212.01,6.05 212.27,5.99 212.53,5.61 212.79,6.71 213.05,7.01 213.31,8.11 213.57,7.77 213.83,8.59 214.09,8.51 214.35,7.08 214.61,6.99 214.87,5.48 215.13,5.28 215.39,5.60 215.65,6.74 215.91,7.80 216.17,6.97 216.43,8.19 216.69,8.25 216.95,8.66 217.21,8.50 217.47,9.79 217.73,8.40 217.99,9.29 218.25,9.65 218.51,10.15 218.77,10.97 219.03,11.83 219.29,11.34 219.55,9.93 219.81,10.85 220.07,8.53 220.33,6.80 220.59,7.80 220.85,6.93 221.11,7.93 221.37,9.72 221.63,9.55 221.89,10.38 222.15,11.03 222.41,11.35 222.67,11.68 222.93,12.61 223.20,55.91 223.46,55.91 223.72,55.91 223.98,54.61 224.24,54.61 224.50,54.61 224.76,51.37 225.02,51.37 225.28,52.84 225.54,52.84 225.80,50.18 226.06,50.18 226.32,50.18 226.58,49.43 226.84,49.43 227.10,48.42 227.36,48.42 227.62,48.42 227.88,47.21 228.14,47.21 228.40,47.21 228.66,43.78 228.92,43.78 229.18,43.78 229.44,42.40 229.70,42.40 229.96,40.63 230.22,40.63 230.48,40.63 230.74,39.48 231.00,39.48 231.26,39.48 231.52,38.36 231.78,38.36 232.04,38.36 232.30,37.14 232.56,37.14 232.82,37.14 233.08,36.70 233.34,36.70 233.60,36.70 233.86,37.45 234.12,37.45 234.38,37.45 234.64,33.73 234.90,33.73 235.16,33.73 235.42,33.73 235.68,33.98 235.94,31.52 236.20,31.52 236.46,31.52 236.72,29.13 236.98,30.85 237.24,30.85 237.50,28.74 237.76,28.74 238.02,28.74 238.28,26.86 238.54,26.86 238.80,25.25 239.06,25.25 239.32,25.25 239.58,23.74 239.84,25.29 240.10,25.29 240.36,23.86 240.62,23.86 240.88,22.58 241.14,22.58 241.40,22.58 241.66,21.74 241.92,21.74 242.18,21.15 242.44,21.15 242.70,21.15 242.96,16.71 243.22,16.71 243.48,16.71 243.74,17.14 244.00,17.14 244.26,14.35 244.52,14.35 244.78,15.96 245.04,15.96 245.30,15.96 245.56,16.68 245.82,16.68 246.08,16.68 246.34,16.39 246.60,16.39 246.86,14.21 247.12,13.46 247.38,13.46 247.64,13.46 247.90,13.46 248.16,13.54 248.42,13.54 248.68,11.42 248.94,11.46 249.20,11.46 249.46,11.46 249.72,11.46 249.98,9.37 250.24,9.37 250.50,9.37 250.76,9.37 251.02,7.91 251.28,7.91 251.54,7.91 251.80,6.71 252.06,6.71 252.32,6.82 252.58,6.82 252.84,6.82 253.10,8.56 253.36,8.56 253.62,8.56 253.88,9.36 254.14,11.31 254.40,11.31 254.66,11.31 254.92,11.92 255.18,11.92 255.44,11.92 255.70,10.74 255.96,10.74 256.22,10.74 256.48,8.84 256.74,8.84 257.00,11.82 257.26,10.29 257.52,10.29 257.78,10.29 258.04,10.29 258.30,9.53 258.56,9.53 258.82,9.53 259.08,9.98 259.34,9.98 259.60,6.99 259.86,9.89 260.12,9.89 260.38,9.89 260.64,9.89 260.90,6.61 261.16,6.61 261.42,6.61 261.68,8.88 261.94,6.16 262.20,6.16 262.46,6.16 262.72,10.40 262.98,7.54 263.24,7.54 263.50,7.54 263.76,6.50 264.02,6.50 264.28,6.50 264.54,6.50 264.80,10.13 265.06,9.16 265.32,9.16 265.58,8.12 265.84,8.12 266.10,8.12 266.36,10.56 266.62,7.83 266.88,7.83 267.14,7.83 267.40,8.30 267.66,8.30 267.92,8.30 268.18,6.64 268.44,6.64 268.70,6.64 268.96,10.55 269.22,10.55 269.48,10.55 269.74,10.55 270.00,11.80 270.26,11.80 270.52,11.80 270.78,14.32 271.04,14.32 271.30,14.32 271.56,13.80 271.82,13.80 272.08,13.80 272.34,13.80 272.60,14.61 272.86,14.61 273.12,14.61 273.38,12.70 273.64,12.70 273.90,12.70 274.16,15.14 274.42,15.14 274.68,15.14 274.94,15.14 275.20,16.39 275.46,16.39 275.72,16.39 275.98,15.69 276.24,15.69 276.50,15.69 276.76,15.15 277.02,15.15 277.28,15.15 277.54,15.15 277.80,12.06 278.06,12.06 278.32,12.06 278.58,13.22 278.84,13.22 279.10,13.22 279.36,13.95 279.62,13.95 279.88,13.95 280.14,11.69 280.40,11.69 280.66,11.69 280.92,10.22 281.18,10.22 281.44,10.22 281.70,10.22 281.96,7.65 282.22,7.79 282.48,7.79 282.74,7.79 283.00,8.19 283.26,8.19 283.52,8.19 283.78,7.28 284.04,7.28 284.30,7.28 284.56,6.15 284.82,6.15 285.08,6.15 285.34,5.03 285.60,5.03 285.86,7.76 286.12,7.76 286.38,7.76 286.64,7.25 286.90,7.25 287.16,7.25 287.42,7.25 287.68,6.47 287.94,5.47 288.20,5.47 288.46,8.07 288.72,8.07 288.98,8.07 289.24,8.07 289.50,8.50 289.76,8.50 290.02,8.50 290.28,9.86 290.54,9.86 290.80,9.86 291.06,9.86 291.32,10.85 291.58,10.85 291.84,10.85 292.10,9.28 292.36,9.28 292.62,9.28 292.88,11.72 293.14,6.89 293.40,6.89 293.66,6.89 293.92,9.34 294.18,9.34 294.44,11.59 294.70,11.33 294.96,11.33 295.22,12.55 295.48,12.55 295.74,12.55 296.00,14.09" />
</svg>