<svg width="300" height="60" xmlns="http://www.w3.org/2000/svg">
  <polyline fill="rgba(255,200,0,0.3)" stroke="#ffbb00" stroke-width="2" points="4.00,51.78 4.21,51.65 4.42,52.47 4.64,52.83 4.85,53.03 5.06,53.30 5.27,53.53 5.48,53.67 5.70,53.77 5.91,53.90 6.12,54.00 6.33,54.10 6.54,54.23 6.76,54.39 6.97,54.66 7.18,54.50 7.39,54.53 7.60,54.46 7.82,54.45 8.03,54.40 8.24,54.42 8.45,54.43 8.67,54.42 8.88,54.47 9.09,54.48 9.30,54.52 9.51,54.51 9.73,54.56 9.94,54.60 10.15,54.69 10.36,54.72 10.57,54.75 10.79,54.82 11.00,54.88 11.21,54.93 11.42,55.02 11.63,55.08 11.85,55.16 12.06,55.24 12.27,55.25 12.48,55.28 12.69,55.32 12.91,55.39 13.12,55.39 13.33,55.38 13.54,55.46 13.75,55.46 13.97,55.44 14.18,55.43 14.39,55.41 14.60,55.38 14.81,55.35 15.03,55.33 15.24,55.29 15.45,55.28 15.66,55.25 15.88,55.18 16.09,55.15 16.30,55.05 16.51,54.93 16.72,54.79 16.94,54.53 17.15,54.39 17.36,54.58 17.57,54.74 17.78,54.81 18.00,54.83 18.21,54.83 18.42,54.79 18.63,54.78 18.84,54.94 19.06,55.06 19.27,55.19 19.48,55.18 19.69,55.31 19.90,55.25 20.12,55.36 20.33,55.81 20.54,55.99 20.75,55.99 20.96,53.89 21.18,53.72 21.39,53.48 21.60,53.12 21.81,52.67 22.02,52.54 22.24,51.84 22.45,51.53 22.66,51.10 22.87,50.70 23.08,50.34 23.30,50.00 23.51,49.52 23.72,49.37 23.93,49.40 24.15,49.10 24.36,48.78 24.57,48.40 24.78,47.57 24.99,47.03 25.21,46.50 25.42,46.13 25.63,45.87 25.84,45.56 26.05,45.32 26.27,44.95 26.48,44.52 26.69,44.29 26.90,44.44 27.11,44.65 27.33,43.98 27.54,43.79 27.75,43.60 27.96,43.60 28.17,43.17 28.39,42.79 28.60,42.50 28.81,42.27 29.02,42.11 29.23,42.41 29.45,41.89 29.66,41.50 29.87,40.98 30.08,40.61 30.29,40.45 30.51,40.26 30.72,40.17 30.93,40.24 31.14,40.08 31.36,39.66 31.57,39.40 31.78,39.32 31.99,39.09 32.20,39.14 32.42,38.89 32.63,38.81 32.84,38.23 33.05,37.80 33.26,37.39 33.48,37.16 33.69,37.70 33.90,37.56 34.11,37.38 34.32,37.61 34.54,37.48 34.75,36.47 34.96,36.08 35.17,35.64 35.38,35.26 35.60,34.53 35.81,33.97 36.02,33.90 36.23,33.97 36.44,33.91 36.66,34.05 36.87,34.26 37.08,34.35 37.29,34.08 37.50,34.01 37.72,33.84 37.93,33.56 38.14,33.29 38.35,33.03 38.56,32.71 38.78,31.93 38.99,31.83 39.20,31.55 39.41,30.73 39.63,30.16 39.84,30.06 40.05,30.19 40.26,29.74 40.47,29.47 40.69,29.11 40.90,29.38 41.11,29.60 41.32,29.81 41.53,29.60 41.75,29.31 41.96,29.03 42.17,28.74 42.38,28.52 42.59,28.27 42.81,28.04 43.02,27.83 43.23,27.60 43.44,27.39 43.65,27.16 43.87,26.96 44.08,26.70 44.29,26.46 44.50,26.01 44.71,25.50 44.93,24.79 45.14,24.40 45.35,24.50 45.56,24.37 45.77,24.01 45.99,23.35 46.20,23.24 46.41,23.25 46.62,22.51 46.84,22.29 47.05,21.87 47.26,21.54 47.47,20.95 47.68,20.97 47.90,21.32 48.11,21.61 48.32,21.43 48.53,21.09 48.74,21.05 48.96,20.61 49.17,20.00 49.38,19.25 49.59,19.17 49.80,18.86 50.02,18.65 50.23,18.41 50.44,18.34 50.65,18.28 50.86,18.08 51.08,17.73 51.29,17.56 51.50,17.36 51.71,16.89 51.92,16.39 52.14,16.67 52.35,16.94 52.56,16.22 52.77,15.56 52.98,15.35 53.20,15.27 53.41,15.28 53.62,15.01 53.83,14.83 54.05,14.57 54.26,14.41 54.47,13.70 54.68,13.28 54.89,12.95 55.11,12.56 55.32,12.16 55.53,11.78 55.74,11.50 55.95,10.87 56.17,10.45 56.38,10.38 56.59,10.34 56.80,10.19 57.01,9.99 57.23,9.90 57.44,9.80 57.65,9.80 57.86,9.44 58.07,9.29 58.29,9.27 58.50,8.86 58.71,8.61 58.92,8.44 59.13,8.28 59.35,8.38 59.56,8.31 59.77,8.07 59.98,8.09 60.19,8.46 60.41,8.46 60.62,8.28 60.83,7.80 61.04,7.38 61.25,6.89 61.47,6.73 61.68,6.35 61.89,6.24 62.10,6.01 62.32,5.91 62.53,5.47 62.74,4.65 62.95,4.67 63.16,4.87 63.38,4.63 63.59,4.15 63.80,4.07 64.01,4.22 64.22,4.59 64.44,4.90 64.65,5.20 64.86,5.49 65.07,5.81 65.28,6.05 65.50,6.21 65.71,6.43 65.92,6.88 66.13,7.47 66.34,7.79 66.56,8.07 66.77,8.43 66.98,8.78 67.19,9.21 67.40,9.58 67.62,9.91 67.83,10.35 68.04,10.76 68.25,11.11 68.46,11.30 68.68,11.35 68.89,11.67 69.10,12.09 69.31,12.44 69.53,12.73 69.74,12.82 69.95,12.89 70.16,13.25 70.37,13.82 70.59,14.01 70.80,14.73 71.01,15.18 71.22,15.64 71.43,16.02 71.65,16.30 71.86,16.49 72.07,16.87 72.28,16.83 72.49,17.50 72.71,18.10 72.92,18.87 73.13,19.54 73.34,19.62 73.55,19.58 73.77,19.75 73.98,20.10 74.19,20.29 74.40,20.58 74.61,20.96 74.83,21.39 75.04,21.81 75.25,22.50 75.46,23.10 75.67,23.67 75.89,23.98 76.10,24.34 76.31,24.86 76.52,25.13 76.73,25.51 76.95,26.04 77.16,26.17 77.37,26.36 77.58,26.65 77.80,26.93 78.01,27.09 78.22,27.38 78.43,27.82 78.64,28.31 78.86,28.58 79.07,28.90 79.28,29.24 79.49,29.48 79.70,29.71 79.92,29.93 80.13,30.15 80.34,30.44 80.55,30.89 80.76,31.43 80.98,31.97 81.19,32.33 81.40,32.62 81.61,32.92 81.82,33.23 82.04,33.57 82.25,33.87 82.46,34.25 82.67,34.56 82.88,34.80 83.10,35.08 83.31,35.43 83.52,35.75 83.73,36.06 83.94,36.53 84.16,36.89 84.37,37.25 84.58,37.51 84.79,37.72 85.01,37.98 85.22,38.17 85.43,38.33 85.64,38.51 85.85,38.67 86.07,38.86 86.28,39.03 86.49,39.29 86.70,39.28 86.91,39.44 87.13,39.62 87.34,39.77 87.55,39.97 87.76,40.18 87.97,40.40 88.19,40.65 88.40,40.89 88.61,41.11 88.82,41.35 89.03,41.61 89.25,41.89 89.46,42.26 89.67,42.75 89.88,43.12 90.09,43.35 90.31,43.65 90.52,43.95 90.73,44.24 90.94,44.43 91.15,44.66 91.37,44.92 91.58,45.25 91.79,45.64 92.00,45.94 92.21,46.32 92.43,46.80 92.64,47.24 92.85,47.67 93.06,47.79 93.28,47.98 93.49,48.15 93.70,48.30 93.91,48.49 94.12,48.50 94.34,48.55 94.55,48.28 94.76,47.99 94.97,47.92 95.18,47.83 95.40,47.76 95.61,47.82 95.82,48.06 96.03,48.35 96.24,48.66 96.46,48.89 96.67,49.10 96.88,49.53 97.09,49.76 97.30,49.87 97.52,50.18 97.73,50.32 97.94,50.49 98.15,50.54 98.36,50.64 98.58,50.70 98.79,50.63 99.00,50.58 99.21,50.41 99.42,50.39 99.64,50.30 99.85,50.07 100.06,50.32 100.27,50.29 100.49,50.74 100.70,51.03 100.91,51.19 101.12,51.37 101.33,51.78 101.55,53.89 101.76,53.72 101.97,53.57 102.18,53.34 102.39,53.02 102.61,52.70 102.82,51.89 103.03,51.37 103.24,51.24 103.45,50.70 103.67,50.60 103.88,50.19 104.09,49.94 104.30,49.83 104.51,49.72 104.73,49.34 104.94,48.82 105.15,48.33 105.36,47.64 105.57,46.77 105.79,46.33 106.00,46.87 106.21,46.06 106.42,45.83 106.63,45.60 106.85,44.80 107.06,44.41 107.27,45.02 107.48,45.15 107.69,44.70 107.91,44.22 108.12,44.09 108.33,43.41 108.54,43.97 108.76,43.87 108.97,43.33 109.18,42.68 109.39,42.86 109.60,42.02 109.82,42.40 110.03,41.96 110.24,41.42 110.45,41.32 110.66,40.69 110.88,40.41 111.09,40.70 111.30,40.24 111.51,40.24 111.72,40.41 111.94,39.51 112.15,39.63 112.36,39.00 112.57,39.40 112.78,39.08 113.00,39.00 113.21,38.48 113.42,37.94 113.63,37.41 113.84,38.11 114.06,37.64 114.27,37.17 114.48,37.75 114.69,37.89 114.90,37.89 115.12,37.33 115.33,36.43 115.54,35.80 115.75,35.50 115.97,35.38 116.18,34.74 116.39,34.10 116.60,34.26 116.81,34.25 117.03,34.04 117.24,34.85 117.45,34.34 117.66,35.00 117.87,33.77 118.09,33.47 118.30,34.13 118.51,34.16 118.72,33.67 118.93,33.42 119.15,32.55 119.36,31.61 119.57,31.75 119.78,31.66 119.99,31.14 120.21,30.65 120.42,30.43 120.63,30.04 120.84,29.19 121.05,30.23 121.27,29.34 121.48,29.70 121.69,29.98 121.90,29.53 122.11,29.53 122.33,29.53 122.54,29.29 122.75,29.03 122.96,28.37 123.18,28.19 123.39,27.75 123.60,28.11 123.81,27.57 124.02,27.45 124.24,27.00 124.45,26.98 124.66,26.46 124.87,26.46 125.08,26.09 125.30,25.76 125.51,24.64 125.72,24.68 125.93,24.80 126.14,24.80 126.36,24.50 126.57,23.80 126.78,23.94 126.99,23.47 127.20,22.61 127.42,22.62 127.63,21.82 127.84,21.98 128.05,21.17 128.26,20.83 128.48,21.75 128.69,21.68 128.90,21.47 129.11,21.25 129.32,21.25 129.54,20.72 129.75,20.29 129.96,19.65 130.17,19.65 130.38,18.66 130.60,18.58 130.81,18.64 131.02,18.20 131.23,18.63 131.45,18.50 131.66,17.81 131.87,17.76 132.08,17.55 132.29,16.51 132.51,17.10 132.72,16.87 132.93,17.12 133.14,16.30 133.35,16.30 133.57,15.78 133.78,15.61 133.99,15.61 134.20,14.98 134.41,14.96 134.63,14.32 134.84,14.27 135.05,13.42 135.26,13.91 135.47,13.55 135.69,12.56 135.90,11.99 136.11,12.54 136.32,12.04 136.53,11.33 136.75,9.96 136.96,10.84 137.17,10.53 137.38,10.18 137.59,11.25 137.81,9.75 138.02,9.37 138.23,10.57 138.44,10.01 138.66,9.33 138.87,9.33 139.08,8.57 139.29,9.19 139.50,8.28 139.72,8.78 139.93,8.04 140.14,8.55 140.35,8.24 140.56,8.24 140.78,8.05 140.99,8.99 141.20,8.66 141.41,7.48 141.62,7.14 141.84,6.84 142.05,7.57 142.26,6.48 142.47,6.04 142.68,6.66 142.90,6.06 143.11,6.68 143.32,5.87 143.53,4.65 143.74,5.17 143.96,4.69 144.17,4.12 144.38,4.00 144.59,4.10 144.80,4.77 145.02,4.90 145.23,5.06 145.44,5.22 145.65,5.35 145.86,5.44 146.08,5.52 146.29,6.74 146.50,6.94 146.71,7.07 146.93,7.14 147.14,7.24 147.35,8.48 147.56,8.61 147.77,8.61 147.99,9.71 148.20,9.88 148.41,10.10 148.62,10.36 148.83,11.34 149.05,11.25 149.26,11.54 149.47,11.24 149.68,11.88 149.89,12.16 150.11,12.72 150.32,12.46 150.53,12.92 150.74,13.39 150.95,14.35 151.17,13.98 151.38,14.34 151.59,14.62 151.80,15.87 152.01,15.94 152.23,15.88 152.44,16.84 152.65,16.82 152.86,17.05 153.07,17.67 153.29,18.26 153.50,18.26 153.71,18.92 153.92,19.59 154.14,19.46 154.35,19.63 154.56,20.54 154.77,20.55 154.98,20.57 155.20,21.47 155.41,21.47 155.62,22.40 155.83,22.50 156.04,22.64 156.26,23.68 156.47,23.97 156.68,24.22 156.89,24.52 157.10,25.88 157.32,25.28 157.53,25.82 157.74,26.35 157.95,26.39 158.16,26.63 158.38,27.08 158.59,27.10 158.80,27.49 159.01,27.49 159.22,27.72 159.44,28.24 159.65,28.37 159.86,29.24 160.07,29.25 160.28,29.12 160.50,29.65 160.71,30.52 160.92,30.14 161.13,30.67 161.34,31.41 161.56,31.41 161.77,32.22 161.98,32.42 162.19,32.67 162.41,33.05 162.62,33.43 162.83,33.81 163.04,34.26 163.25,34.71 163.47,34.61 163.68,35.02 163.89,35.40 164.10,35.77 164.31,36.21 164.53,36.74 164.74,36.74 164.95,37.19 165.16,37.57 165.37,37.82 165.59,38.05 165.80,38.37 166.01,38.49 166.22,38.49 166.43,38.67 166.65,38.91 166.86,39.15 167.07,39.62 167.28,39.43 167.49,39.51 167.71,39.59 167.92,39.86 168.13,39.95 168.34,40.24 168.55,40.44 168.77,40.77 168.98,41.26 169.19,41.06 169.40,41.42 169.62,41.67 169.83,41.99 170.04,42.43 170.25,42.85 170.46,43.49 170.68,43.29 170.89,43.61 171.10,43.99 171.31,44.22 171.52,44.48 171.74,44.83 171.95,45.04 172.16,45.33 172.37,45.88 172.58,46.08 172.80,46.30 173.01,46.86 173.22,47.73 173.43,47.80 173.64,47.76 173.86,47.84 174.07,48.30 174.28,48.33 174.49,48.39 174.70,48.40 174.92,48.56 175.13,48.28 175.34,48.05 175.55,47.90 175.76,47.80 175.98,47.74 176.19,47.86 176.40,48.05 176.61,48.28 176.82,48.52 177.04,48.76 177.25,48.99 177.46,49.58 177.67,49.79 177.89,49.92 178.10,50.11 178.31,50.30 178.52,50.54 178.73,50.61 178.95,50.67 179.16,50.70 179.37,50.68 179.58,50.65 179.79,50.50 180.01,50.40 180.22,50.32 180.43,50.27 180.64,50.34 180.85,50.46 181.07,50.85 181.28,51.07 181.49,51.24 181.70,51.40 181.91,51.70 182.13,52.00 182.34,52.57 182.55,52.85 182.76,53.10 182.97,53.29 183.19,53.47 183.40,53.73 183.61,53.82 183.82,53.92 184.03,53.99 184.25,54.08 184.46,54.16 184.67,54.39 184.88,54.43 185.10,54.40 185.31,54.40 185.52,54.40 185.73,54.41 185.94,54.39 186.16,54.40 186.37,54.42 186.58,54.44 186.79,54.45 187.00,54.48 187.22,54.53 187.43,54.55 187.64,54.59 187.85,54.62 188.06,54.68 188.28,54.77 188.49,54.81 188.70,54.85 188.91,54.90 189.12,54.94 189.34,54.99 189.55,55.11 189.76,55.17 189.97,55.22 190.18,55.23 190.40,55.28 190.61,55.31 190.82,55.36 191.03,55.38 191.24,55.39 191.46,55.41 191.67,55.43 191.88,55.44 192.09,55.41 192.31,55.40 192.52,55.38 192.73,55.35 192.94,55.34 193.15,55.29 193.37,55.27 193.58,55.24 193.79,55.20 194.00,55.16 194.21,55.10 194.43,54.90 194.64,54.78 194.85,54.62 195.06,54.57 195.27,54.61 195.49,54.68 195.70,54.81 195.91,54.85 196.12,54.86 196.33,54.85 196.55,54.85 196.76,54.92 196.97,55.10 197.18,55.18 197.39,55.24 197.61,55.31 197.82,55.35 198.03,55.57 198.24,55.84 198.45,55.99 198.67,56.00 198.88,54.22 199.09,54.22 199.30,53.54 199.51,53.54 199.73,53.54 199.94,52.74 200.15,52.74 200.36,51.58 200.58,51.58 200.79,51.58 201.00,51.34 201.21,51.34 201.42,51.34 201.64,50.68 201.85,50.68 202.06,49.51 202.27,49.51 202.48,49.51 202.70,47.79 202.91,47.79 203.12,47.79 203.33,48.77 203.54,46.86 203.76,46.86 203.97,46.86 204.18,44.82 204.39,46.22 204.60,46.22 204.82,46.22 205.03,44.44 205.24,45.51 205.45,45.51 205.66,43.89 205.88,43.89 206.09,45.34 206.30,45.34 206.51,43.89 206.72,43.89 206.94,42.61 207.15,42.61 207.36,42.61 207.57,41.32 207.79,42.29 208.00,42.29 208.21,40.54 208.42,40.54 208.63,40.93 208.85,40.93 209.06,40.93 209.27,40.93 209.48,41.63 209.69,39.42 209.91,39.42 210.12,41.49 210.33,41.49 210.54,39.54 210.75,39.54 210.97,39.54 211.18,38.05 211.39,38.05 211.60,38.05 211.81,38.60 212.03,38.60 212.24,38.60 212.45,38.60 212.66,35.04 212.87,35.04 213.09,35.04 213.30,35.04 213.51,33.94 213.72,33.98 213.93,36.18 214.15,36.18 214.36,33.87 214.57,36.31 214.78,36.31 214.99,36.31 215.21,36.31 215.42,34.98 215.63,34.98 215.84,34.98 216.06,34.98 216.27,33.52 216.48,33.52 216.69,33.52 216.90,33.22 217.12,33.22 217.33,33.22 217.54,32.41 217.75,32.41 217.96,32.41 218.18,30.84 218.39,30.84 218.60,30.84 218.81,30.84 219.02,31.36 219.24,31.36 219.45,31.36 219.66,31.36 219.87,29.25 220.08,30.74 220.30,30.74 220.51,28.77 220.72,28.77 220.93,28.77 221.14,28.77 221.36,28.60 221.57,28.60 221.78,28.60 221.99,26.94 222.20,26.94 222.42,26.94 222.63,25.84 222.84,25.84 223.05,25.84 223.27,25.43 223.48,25.43 223.69,25.43 223.90,25.43 224.11,23.86 224.33,23.86 224.54,23.86 224.75,24.03 224.96,24.03 225.17,24.03 225.39,22.31 225.60,22.31 225.81,22.31 226.02,21.63 226.23,21.63 226.45,21.63 226.66,21.63 226.87,21.36 227.08,21.36 227.29,19.39 227.51,19.39 227.72,19.39 227.93,19.39 228.14,19.92 228.35,19.92 228.57,19.92 228.78,19.60 228.99,19.60 229.20,19.60 229.41,17.37 229.63,17.37 229.84,18.82 230.05,18.82 230.26,18.82 230.47,17.41 230.69,17.41 230.90,17.41 231.11,17.41 231.32,16.92 231.54,16.92 231.75,16.92 231.96,14.85 232.17,14.85 232.38,14.85 232.60,16.78 232.81,13.99 233.02,13.99 233.23,13.99 233.44,15.76 233.66,12.54 233.87,12.54 234.08,12.54 234.29,15.15 234.50,11.52 234.72,11.52 234.93,14.66 235.14,14.66 235.35,10.36 235.56,10.36 235.78,13.20 235.99,13.20 236.20,13.20 236.41,8.45 236.62,10.15 236.84,10.15 237.05,10.15 237.26,12.01 237.47,12.01 237.68,8.37 237.90,8.37 238.11,11.17 238.32,11.17 238.53,11.17 238.75,7.56 238.96,9.92 239.17,9.92 239.38,9.92 239.59,6.53 239.81,8.56 240.02,8.56 240.23,8.56 240.44,10.44 240.65,6.37 240.87,6.37 241.08,6.37 241.29,6.64 241.50,4.10 241.71,4.10 241.93,4.10 242.14,4.56 242.35,5.08 242.56,5.08 242.77,5.08 242.99,5.38 243.20,5.38 243.41,5.38 243.62,5.69 243.83,5.69 244.05,5.69 244.26,6.01 244.47,6.01 244.68,6.01 244.89,6.30 245.11,6.30 245.32,9.66 245.53,9.66 245.74,10.05 245.95,10.05 246.17,10.05 246.38,10.30 246.59,10.30 246.80,10.30 247.02,12.62 247.23,11.42 247.44,11.42 247.65,13.27 247.86,13.27 248.08,13.27 248.29,14.85 248.50,14.85 248.71,16.44 248.92,16.44 249.14,16.44 249.35,17.19 249.56,17.19 249.77,17.19 249.98,17.00 250.20,17.00 250.41,17.87 250.62,17.87 250.83,17.87 251.04,17.87 251.26,20.20 251.47,18.85 251.68,19.83 251.89,21.99 252.10,21.99 252.32,22.45 252.53,22.45 252.74,22.45 252.95,22.53 253.16,22.53 253.38,22.53 253.59,26.14 253.80,26.14 254.01,26.54 254.23,26.54 254.44,26.54 254.65,27.73 254.86,27.73 255.07,27.73 255.29,26.57 255.50,26.57 255.71,26.57 255.92,28.43 256.13,27.15 256.35,27.15 256.56,27.15 256.77,27.15 256.98,28.43 257.19,28.43 257.41,26.67 257.62,27.27 257.83,29.77 258.04,29.77 258.25,29.77 258.47,29.08 258.68,31.60 258.89,31.60 259.10,31.60 259.31,31.61 259.53,31.61 259.74,31.61 259.95,32.66 260.16,32.66 260.37,32.66 260.59,34.11 260.80,34.11 261.01,34.11 261.22,35.47 261.44,35.47 261.65,35.47 261.86,37.05 262.07,37.05 262.28,37.05 262.50,37.05 262.71,38.11 262.92,38.11 263.13,38.11 263.34,39.53 263.56,39.53 263.77,38.70 263.98,38.70 264.19,39.92 264.40,39.92 264.62,39.92 264.83,39.43 265.04,39.77 265.25,39.77 265.46,39.77 265.68,40.80 265.89,40.80 266.10,40.44 266.31,41.63 266.52,41.63 266.74,41.63 266.95,41.63 267.16,42.32 267.37,42.32 267.58,42.32 267.80,44.04 268.01,44.04 268.22,44.04 268.43,44.04 268.64,44.41 268.86,44.41 269.07,44.41 269.28,45.54 269.49,45.54 269.71,45.54 269.92,46.80 270.13,46.42 270.34,46.42 270.55,46.42 270.77,47.15 270.98,47.15 271.19,47.15 271.40,48.32 271.61,48.32 271.83,48.32 272.04,48.39 272.25,48.39 272.46,48.34 272.67,48.34 272.89,48.34 273.10,48.14 273.31,48.14 273.52,48.18 273.73,48.18 273.95,48.18 274.16,48.75 274.37,48.75 274.58,48.75 274.79,49.37 275.01,49.37 275.22,49.88 275.43,49.88 275.64,49.88 275.85,50.36 276.07,50.36 276.28,50.75 276.49,50.75 276.70,50.75 276.92,51.01 277.13,51.01 277.34,50.76 277.55,50.76 277.76,50.76 277.98,50.54 278.19,50.54 278.40,50.75 278.61,50.75 278.82,50.75 279.04,51.48 279.25,51.48 279.46,51.48 279.67,52.57 279.88,52.57 280.10,53.35 280.31,53.35 280.52,53.35 280.73,53.76 280.94,53.76 281.16,54.02 281.37,54.02 281.58,54.02 281.79,54.25 282.00,54.25 282.22,54.34 282.43,54.34 282.64,54.34 282.85,54.36 283.06,54.36 283.28,54.38 283.49,54.38 283.70,54.38 283.91,54.43 284.12,54.43 284.34,54.43 284.55,54.50 284.76,54.50 284.97,54.59 285.19,54.59 285.40,54.59 285.61,54.72 285.82,54.72 286.03,54.83 286.25,54.83 286.46,54.83 286.67,54.95 286.88,54.95 287.09,55.07 287.31,55.07 287.52,55.07 287.73,55.19 287.94,55.19 288.15,55.26 288.37,55.26 288.58,55.26 288.79,55.32 289.00,55.32 289.21,55.32 289.43,55.29 289.64,55.29 289.85,55.17 290.06,55.17 290.27,55.17 290.49,55.04 290.70,55.04 290.91,54.96 291.12,54.96 291.33,54.96 291.55,54.87 291.76,54.87 291.97,54.68 292.18,54.68 292.40,54.68 292.61,54.60 292.82,54.60 293.03,54.73 293.24,54.73 293.46,54.73 293.67,54.85 293.88,54.85 294.09,54.85 294.30,54.99 294.52,54.99 294.73,55.18 294.94,55.18 295.15,55.18 295.36,55.38 295.58,55.38 295.79,55.81 296.00,55.81" />
</svg>