<svg width="300" height="60" xmlns="http://www.w3.org/2000/svg">
  <polyline fill="rgba(255,200,0,0.3)" stroke="#ffbb00" stroke-width="2" points="4.00,19.23 6.10,14.19 8.20,10.90 10.30,10.28 12.40,12.55 14.50,15.50 16.60,16.72 18.71,17.03 20.81,17.20 22.91,16.78 25.01,15.92 27.11,14.73 29.21,14.10 31.31,13.37 33.41,11.58 35.51,10.49 37.61,10.48 39.71,12.14 41.81,14.04 43.91,16.21 46.01,19.66 48.12,23.72 50.22,27.72 52.32,29.40 54.42,31.38 56.52,33.86 58.62,37.79 60.72,41.03 62.82,43.90 64.92,46.76 67.02,48.36 69.12,49.38 71.22,49.42 73.32,49.42 75.42,53.10 77.53,19.72 79.63,14.93 81.73,12.54 83.83,10.64 85.93,12.10 88.03,14.71 90.13,16.28 92.23,16.45 94.33,16.60 96.43,16.90 98.53,14.99 100.63,15.14 102.73,14.39 104.83,13.36 106.94,11.82 109.04,10.85 111.14,10.55 113.24,11.37 115.34,13.61 117.44,15.41 119.54,18.85 121.64,21.42 123.74,25.68 125.84,28.89 127.94,30.59 130.04,33.51 132.14,37.69 134.24,43.00 136.35,45.16 138.45,46.37 140.55,48.16 142.65,50.06 144.75,50.81 146.85,50.77 148.95,53.34 151.05,18.60 153.15,15.69 155.25,12.67 157.35,9.24 159.45,11.53 161.55,16.09 163.65,16.31 165.76,16.31 167.86,16.38 169.96,15.34 172.06,13.25 174.16,14.67 176.26,10.71 178.36,7.41 180.46,8.75 182.56,11.10 184.66,7.89 186.76,10.06 188.86,12.82 190.96,12.00 193.06,15.14 195.17,18.87 197.27,22.98 199.37,27.25 201.47,30.16 203.57,33.22 205.67,36.88 207.77,38.82 209.87,40.77 211.97,42.86 214.07,44.71 216.17,47.11 218.27,47.63 220.37,48.60 222.47,53.38 224.58,13.84 226.68,13.84 228.78,13.84 230.88,16.53 232.98,16.53 235.08,16.53 237.18,15.18 239.28,15.18 241.38,15.18 243.48,15.18 245.58,7.34 247.68,15.21 249.78,15.21 251.88,4.00 253.99,4.00 256.09,7.21 258.19,7.21 260.29,13.49 262.39,13.49 264.49,13.49 266.59,23.12 268.69,23.12 270.79,23.12 272.89,39.19 274.99,39.19 277.09,51.44 279.19,41.65 281.29,41.65 283.40,46.28 285.50,46.28 287.60,46.28 289.70,49.42 291.80,49.42 293.90,56.00 296.00,56.00" />
</svg>