<svg width="300" height="60" xmlns="http://www.w3.org/2000/svg">
  <polyline fill="rgba(255,200,0,0.3)" stroke="#ffbb00" stroke-width="2" points="4.00,51.69 4.20,51.71 4.40,51.73 4.60,52.97 4.80,53.41 5.00,54.14 5.20,54.99 5.40,55.24 5.60,55.96 5.80,55.31 6.00,55.33 6.20,55.36 6.40,55.43 6.60,55.45 6.80,55.48 7.00,55.36 7.20,55.24 7.40,55.10 7.60,54.92 7.80,54.69 8.00,54.46 8.20,54.21 8.40,53.95 8.60,53.70 8.80,53.44 9.00,53.20 9.20,52.95 9.40,52.67 9.60,52.45 9.80,52.19 10.00,51.95 10.20,51.71 10.40,51.46 10.60,51.21 10.80,50.88 11.00,50.89 11.20,50.92 11.40,50.00 11.60,49.63 11.80,49.26 12.00,48.92 12.20,48.65 12.40,48.44 12.60,48.28 12.80,47.95 13.00,47.49 13.20,46.98 13.40,46.42 13.60,46.46 13.80,46.23 14.00,46.18 14.20,46.05 14.40,45.28 14.60,44.65 14.80,44.00 15.00,43.74 15.20,43.63 15.40,43.40 15.60,43.04 15.80,42.51 16.00,42.10 16.20,41.96 16.40,42.82 16.60,42.78 16.80,41.15 17.00,40.20 17.20,40.30 17.40,41.42 17.60,41.18 17.80,40.80 18.00,39.94 18.20,39.25 18.40,39.13 18.60,39.42 18.80,39.68 19.00,39.48 19.20,39.26 19.40,38.97 19.60,38.81 19.80,38.41 20.00,37.93 20.20,37.56 20.40,37.28 20.60,37.39 20.80,37.13 21.00,36.99 21.20,36.91 21.40,36.54 21.60,36.13 21.80,35.72 22.00,35.12 22.20,35.31 22.40,35.21 22.60,35.11 22.80,34.96 23.00,34.72 23.20,34.55 23.40,34.41 23.60,34.26 23.80,34.08 24.00,33.51 24.20,32.92 24.40,33.07 24.60,33.77 24.80,34.19 25.00,34.28 25.20,34.28 25.40,34.21 25.60,34.05 25.80,33.89 26.00,33.84 26.20,33.11 26.40,32.78 26.60,32.62 26.80,32.86 27.00,33.39 27.20,33.49 27.40,33.50 27.60,33.47 27.80,33.41 28.00,33.53 28.20,33.63 28.40,33.48 28.60,33.53 28.80,33.24 29.00,32.85 29.20,32.60 29.40,32.41 29.60,32.12 29.80,32.01 30.00,31.86 30.20,31.76 30.40,31.43 30.60,31.04 30.80,30.70 31.00,30.61 31.20,30.56 31.40,30.32 31.60,30.03 31.80,29.81 32.00,29.60 32.20,29.32 32.40,29.05 32.60,28.60 32.80,28.16 33.00,27.80 33.20,27.52 33.40,27.29 33.60,26.86 33.80,26.37 34.00,26.16 34.20,26.18 34.40,26.10 34.60,25.98 34.80,25.83 35.00,25.62 35.20,25.38 35.40,25.08 35.60,24.65 35.80,24.12 36.00,23.77 36.20,23.51 36.40,23.32 36.60,23.11 36.80,23.01 37.00,23.06 37.20,23.29 37.40,23.22 37.60,23.14 37.80,23.08 38.00,22.91 38.20,22.72 38.40,22.51 38.60,22.31 38.80,22.08 39.00,21.85 39.20,21.62 39.40,21.46 39.60,21.37 39.80,21.13 40.00,20.84 40.20,20.58 40.40,20.34 40.60,20.17 40.80,20.08 41.00,20.13 41.20,19.37 41.40,19.04 41.60,18.81 41.80,18.67 42.00,18.70 42.20,18.85 42.40,18.94 42.60,18.93 42.80,18.86 43.00,18.79 43.20,18.80 43.40,18.86 43.60,18.91 43.80,18.94 44.00,18.88 44.20,18.78 44.40,18.68 44.60,18.77 44.80,18.32 45.00,18.11 45.20,17.80 45.40,17.46 45.60,17.20 45.80,17.08 46.00,17.10 46.20,16.93 46.40,16.66 46.60,16.34 46.80,16.05 47.00,15.81 47.20,15.66 47.40,15.44 47.60,15.29 47.80,15.31 48.00,15.13 48.20,14.94 48.40,14.73 48.60,14.42 48.80,14.03 49.00,13.57 49.20,12.82 49.40,12.49 49.60,12.68 49.80,13.33 50.00,13.44 50.20,13.36 50.40,13.22 50.60,12.89 50.80,13.09 51.00,13.56 51.20,14.07 51.40,14.62 51.60,15.05 51.80,15.41 52.00,15.59 52.20,15.82 52.40,16.12 52.60,16.46 52.80,16.73 53.00,17.11 53.20,17.48 53.40,17.66 53.60,17.80 53.80,18.12 54.00,18.10 54.20,18.33 54.40,18.91 54.60,19.16 54.80,19.46 55.00,19.62 55.20,19.72 55.40,19.87 55.60,19.61 55.80,19.79 56.00,19.99 56.20,20.42 56.40,21.05 56.60,21.34 56.80,21.54 57.00,21.75 57.20,21.94 57.40,22.04 57.60,22.23 57.80,22.53 58.00,22.77 58.20,23.11 58.40,23.32 58.60,23.57 58.80,23.79 59.00,23.98 59.20,24.14 59.40,24.26 59.60,24.36 59.80,24.42 60.00,24.42 60.20,24.39 60.40,24.41 60.60,24.42 60.80,24.39 61.00,24.32 61.20,24.19 61.40,24.04 61.60,23.85 61.80,23.57 62.00,23.31 62.20,23.17 62.40,23.04 62.60,22.79 62.80,22.48 63.00,22.23 63.20,22.01 63.40,21.78 63.60,21.54 63.80,21.33 64.00,21.24 64.20,21.20 64.40,21.20 64.60,21.26 64.80,21.28 65.00,21.18 65.20,21.08 65.40,21.06 65.60,21.04 65.80,21.10 66.00,21.24 66.20,21.22 66.40,21.28 66.60,21.21 66.80,21.08 67.00,20.44 67.20,20.20 67.40,20.51 67.60,20.71 67.80,21.03 68.00,21.14 68.20,21.08 68.40,21.26 68.60,21.33 68.80,21.59 69.00,22.15 69.20,22.44 69.40,23.01 69.60,23.25 69.80,23.41 70.00,23.50 70.20,23.23 70.40,23.47 70.60,23.50 70.80,24.04 71.00,24.12 71.20,24.19 71.40,24.01 71.60,23.95 71.80,24.51 72.00,25.79 72.20,26.28 72.40,26.45 72.60,26.58 72.80,26.57 73.00,27.30 73.20,27.65 73.40,27.91 73.60,28.13 73.80,28.31 74.00,28.44 74.20,28.55 74.40,28.66 74.60,28.74 74.80,28.92 75.00,29.60 75.20,29.17 75.40,28.77 75.60,28.38 75.80,28.14 76.00,27.89 76.20,27.65 76.40,27.42 76.60,27.15 76.80,26.82 77.00,25.91 77.20,26.08 77.40,25.71 77.60,25.46 77.80,25.19 78.00,24.83 78.20,24.45 78.40,24.02 78.60,23.79 78.80,23.48 79.00,23.21 79.20,22.98 79.40,22.59 79.60,22.18 79.80,21.89 80.00,21.71 80.20,21.50 80.40,21.28 80.60,20.96 80.80,20.70 81.00,20.41 81.20,20.16 81.40,20.05 81.60,19.78 81.80,19.48 82.00,19.25 82.20,19.00 82.40,18.80 82.60,18.51 82.80,18.30 83.00,18.02 83.20,17.78 83.40,17.74 83.60,17.42 83.80,17.06 84.00,17.01 84.20,17.10 84.40,17.21 84.60,17.07 84.80,16.82 85.00,16.66 85.20,16.44 85.40,16.17 85.60,16.01 85.80,15.83 86.00,15.68 86.20,15.29 86.40,15.06 86.60,14.38 86.80,14.09 87.00,14.27 87.20,13.36 87.40,13.57 87.60,13.64 87.80,13.75 88.00,13.18 88.20,12.69 88.40,12.49 88.60,12.46 88.80,12.20 89.00,11.88 89.20,11.54 89.40,11.27 89.60,11.04 89.80,10.87 90.00,10.70 90.20,10.31 90.40,10.07 90.60,10.13 90.80,9.98 91.00,9.81 91.20,9.59 91.40,9.42 91.60,9.31 91.80,9.22 92.00,8.76 92.20,8.42 92.40,8.90 92.60,9.25 92.80,9.25 93.00,9.41 93.20,9.80 93.40,9.13 93.60,8.81 93.80,8.55 94.00,8.44 94.20,8.18 94.40,7.90 94.60,7.70 94.80,7.55 95.00,7.40 95.20,7.25 95.40,7.11 95.60,7.02 95.80,6.91 96.00,6.73 96.20,6.57 96.40,6.45 96.60,6.33 96.80,6.10 97.00,5.90 97.20,5.72 97.40,5.47 97.60,5.15 97.80,5.14 98.00,5.01 98.20,4.81 98.40,4.35 98.60,4.00 98.80,4.41 99.00,4.96 99.20,4.87 99.40,5.35 99.60,5.61 99.80,5.86 100.00,6.09 100.20,6.27 100.40,6.43 100.60,6.64 100.80,6.87 101.00,7.11 101.20,7.30 101.40,51.49 101.60,53.73 101.80,52.31 102.00,50.37 102.20,52.97 102.40,53.46 102.60,54.93 102.80,55.19 103.00,56.00 103.20,55.31 103.40,55.37 103.60,55.63 103.80,55.39 104.00,55.48 104.20,55.48 104.40,55.36 104.60,55.27 104.80,55.09 105.00,54.90 105.20,54.50 105.40,54.42 105.60,54.01 105.80,53.85 106.00,53.61 106.20,53.20 106.40,53.35 106.60,53.04 106.80,52.46 107.00,52.56 107.20,52.21 107.40,51.57 107.60,51.70 107.80,51.45 108.00,51.24 108.20,50.83 108.40,50.66 108.60,51.07 108.80,49.82 109.00,50.21 109.20,49.43 109.40,48.93 109.60,48.60 109.80,48.35 110.00,48.10 110.20,47.84 110.40,47.84 110.60,46.40 110.80,46.73 111.00,45.72 111.20,46.48 111.40,46.18 111.60,45.91 111.80,45.06 112.00,44.83 112.20,43.95 112.40,44.82 112.60,43.78 112.80,44.29 113.00,43.66 113.20,41.92 113.40,42.35 113.60,41.40 113.80,42.68 114.00,42.00 114.20,40.40 114.40,41.35 114.60,39.90 114.80,41.43 115.00,41.56 115.20,40.75 115.40,40.53 115.60,39.20 115.80,38.88 116.00,38.98 116.20,39.61 116.40,39.61 116.60,39.17 116.80,38.96 117.00,38.73 117.20,38.64 117.40,37.39 117.60,38.03 117.80,37.71 118.00,37.24 118.20,37.19 118.40,37.01 118.60,36.79 118.80,36.54 119.00,35.99 119.20,34.82 119.40,35.61 119.60,35.32 119.80,35.26 120.00,35.05 120.20,34.75 120.40,34.68 120.60,34.33 120.80,34.39 121.00,34.32 121.20,33.46 121.40,33.48 121.60,32.90 121.80,33.38 122.00,33.38 122.20,33.96 122.40,34.32 122.60,34.24 122.80,34.25 123.00,34.17 123.20,33.90 123.40,33.05 123.60,33.11 123.80,33.55 124.00,32.46 124.20,33.21 124.40,33.15 124.60,33.51 124.80,33.51 125.00,33.48 125.20,33.92 125.40,33.73 125.60,34.58 125.80,33.86 126.00,33.98 126.20,32.90 126.40,32.70 126.60,32.52 126.80,32.61 127.00,32.16 127.20,31.80 127.40,31.94 127.60,32.04 127.80,31.26 128.00,30.96 128.20,29.99 128.40,29.89 128.60,30.67 128.80,30.43 129.00,30.15 129.20,29.70 129.40,29.70 129.60,29.33 129.80,28.99 130.00,28.52 130.20,28.13 130.40,27.78 130.60,27.45 130.80,27.33 131.00,26.65 131.20,26.10 131.40,25.99 131.60,25.86 131.80,25.91 132.00,25.95 132.20,25.80 132.40,25.63 132.60,25.46 132.80,25.23 133.00,24.75 133.20,23.82 133.40,23.61 133.60,23.48 133.80,23.32 134.00,23.20 134.20,23.16 134.40,23.46 134.60,23.38 134.80,23.28 135.00,23.21 135.20,23.13 135.40,22.75 135.60,22.66 135.80,22.41 136.00,22.22 136.20,21.79 136.40,21.71 136.60,21.71 136.80,21.51 137.00,21.44 137.20,21.18 137.40,20.88 137.60,20.67 137.80,20.31 138.00,20.05 138.20,20.74 138.40,19.58 138.60,19.70 138.80,19.08 139.00,18.66 139.20,18.66 139.40,18.66 139.60,18.80 139.80,18.92 140.00,19.27 140.20,18.81 140.40,18.86 140.60,18.80 140.80,18.83 141.00,18.88 141.20,18.93 141.40,18.86 141.60,18.75 141.80,18.57 142.00,19.22 142.20,18.79 142.40,18.18 142.60,17.83 142.80,17.48 143.00,17.21 143.20,17.29 143.40,17.09 143.60,17.44 143.80,16.53 144.00,16.53 144.20,16.06 144.40,15.88 144.60,15.66 144.80,15.42 145.00,14.90 145.20,15.30 145.40,15.13 145.60,14.94 145.80,14.61 146.00,14.26 146.20,14.06 146.40,13.64 146.60,12.86 146.80,12.64 147.00,12.15 147.20,12.85 147.40,13.49 147.60,13.37 147.80,12.96 148.00,12.90 148.20,13.55 148.40,13.48 148.60,13.84 148.80,14.67 149.00,15.08 149.20,15.45 149.40,15.61 149.60,15.68 149.80,15.92 150.00,16.50 150.20,16.28 150.40,17.11 150.60,17.47 150.80,17.59 151.00,17.41 151.20,17.43 151.40,17.54 151.60,18.67 151.80,18.67 152.00,19.12 152.20,19.41 152.40,19.67 152.60,19.77 152.80,20.02 153.00,19.19 153.20,19.66 153.40,19.91 153.60,20.67 153.80,20.57 154.00,21.42 154.20,21.13 154.40,21.84 154.60,21.66 154.80,21.39 155.00,22.28 155.20,22.51 155.40,22.77 155.60,23.15 155.80,23.33 156.00,23.57 156.20,23.75 156.40,23.91 156.60,24.04 156.80,24.31 157.00,24.37 157.20,24.48 157.40,24.42 157.60,24.39 157.80,24.45 158.00,24.42 158.20,24.51 158.40,24.29 158.60,24.17 158.80,24.00 159.00,23.74 159.20,23.74 159.40,23.32 159.60,23.05 159.80,23.14 160.00,22.80 160.20,22.40 160.40,22.57 160.60,22.09 160.80,21.78 161.00,21.45 161.20,21.70 161.40,21.23 161.60,21.21 161.80,21.48 162.00,21.18 162.20,21.20 162.40,21.06 162.60,21.06 162.80,20.81 163.00,21.09 163.20,20.96 163.40,21.22 163.60,21.21 163.80,21.42 164.00,21.23 164.20,21.09 164.40,20.16 164.60,20.73 164.80,20.56 165.00,20.86 165.20,21.14 165.40,20.44 165.60,21.57 165.80,21.98 166.00,21.07 166.20,21.74 166.40,21.21 166.60,22.57 166.80,22.57 167.00,23.25 167.20,23.35 167.40,23.65 167.60,23.75 167.80,23.77 168.00,24.30 168.20,23.14 168.40,24.39 168.60,23.98 168.80,24.16 169.00,23.77 169.20,25.87 169.40,25.87 169.60,26.13 169.80,26.45 170.00,26.26 170.20,25.39 170.40,27.34 170.60,27.59 170.80,28.02 171.00,28.17 171.20,27.83 171.40,28.34 171.60,28.57 171.80,28.68 172.00,28.77 172.20,28.82 172.40,29.49 172.60,29.47 172.80,28.57 173.00,28.39 173.20,28.07 173.40,27.89 173.60,27.66 173.80,27.67 174.00,27.56 174.20,26.67 174.40,26.70 174.60,25.79 174.80,24.94 175.00,25.51 175.20,25.10 175.40,25.02 175.60,24.43 175.80,23.92 176.00,23.88 176.20,23.55 176.40,23.18 176.60,22.85 176.80,21.71 177.00,22.31 177.20,22.02 177.40,21.78 177.60,21.73 177.80,21.35 178.00,21.16 178.20,20.77 178.40,20.45 178.60,20.19 178.80,20.08 179.00,19.63 179.20,19.57 179.40,19.92 179.60,19.04 179.80,18.72 180.00,18.70 180.20,18.13 180.40,18.06 180.60,17.74 180.80,17.74 181.00,17.10 181.20,17.04 181.40,16.48 181.60,17.20 181.80,17.14 182.00,16.96 182.20,17.01 182.40,16.66 182.60,16.09 182.80,16.17 183.00,15.92 183.20,15.82 183.40,15.52 183.60,15.18 183.80,15.10 184.00,14.12 184.20,14.04 184.40,13.66 184.60,13.19 184.80,13.32 185.00,13.78 185.20,13.44 185.40,13.16 185.60,12.75 185.80,12.44 186.00,12.43 186.20,12.09 186.40,12.59 186.60,11.63 186.80,11.27 187.00,11.09 187.20,10.84 187.40,10.50 187.60,10.44 187.80,10.26 188.00,10.08 188.20,9.93 188.40,9.76 188.60,9.92 188.80,9.35 189.00,9.31 189.20,9.24 189.40,7.91 189.60,8.44 189.80,9.26 190.00,9.27 190.20,9.25 190.40,9.83 190.60,9.28 190.80,9.13 191.00,8.88 191.20,7.98 191.40,8.37 191.60,8.14 191.80,7.96 192.00,8.23 192.20,7.50 192.40,7.42 192.60,7.50 192.80,7.02 193.00,7.03 193.20,7.01 193.40,7.43 193.60,6.53 193.80,6.54 194.00,6.81 194.20,6.12 194.40,6.00 194.60,5.52 194.80,5.61 195.00,4.69 195.20,5.15 195.40,5.07 195.60,4.80 195.80,4.02 196.00,4.62 196.20,4.70 196.40,4.70 196.60,4.69 196.80,5.32 197.00,5.52 197.20,5.78 197.40,5.98 197.60,6.42 197.80,6.56 198.00,6.33 198.20,6.95 198.40,7.10 198.60,7.32 198.80,53.73 199.00,53.73 199.20,53.73 199.40,49.28 199.60,49.28 199.80,54.97 200.00,54.97 200.20,54.97 200.40,55.31 200.60,55.31 200.80,55.83 201.00,55.83 201.20,55.83 201.40,55.68 201.60,55.35 201.80,55.35 202.00,55.35 202.20,55.38 202.40,55.38 202.60,53.75 202.80,54.01 203.00,54.01 203.20,54.01 203.40,53.41 203.60,53.41 203.80,53.41 204.00,53.41 204.20,51.68 204.40,51.68 204.60,51.68 204.80,51.70 205.00,51.70 205.20,51.70 205.40,51.30 205.60,51.30 205.80,51.30 206.00,49.82 206.20,49.82 206.40,49.82 206.60,49.82 206.80,48.60 207.00,48.60 207.20,48.60 207.40,47.84 207.60,47.84 207.80,47.84 208.00,47.84 208.20,47.34 208.40,44.94 208.60,44.94 208.80,46.16 209.00,46.16 209.20,44.83 209.40,44.83 209.60,44.83 209.80,46.32 210.00,42.47 210.20,42.47 210.40,43.73 210.60,43.73 210.80,43.73 211.00,39.87 211.20,40.65 211.40,40.65 211.60,39.91 211.80,39.91 212.00,39.91 212.20,39.91 212.40,42.70 212.60,38.65 212.80,42.70 213.00,40.24 213.20,40.24 213.40,40.24 213.60,40.78 213.80,40.78 214.00,39.17 214.20,39.17 214.40,38.64 214.60,38.64 214.80,38.64 215.00,39.08 215.20,37.24 215.40,37.24 215.60,37.24 215.80,35.59 216.00,35.59 216.20,39.00 216.40,35.61 216.60,35.61 216.80,35.61 217.00,35.61 217.20,35.14 217.40,35.14 217.60,35.14 217.80,34.64 218.00,34.64 218.20,34.64 218.40,35.55 218.60,32.95 218.80,32.95 219.00,33.86 219.20,33.86 219.40,33.86 219.60,34.18 219.80,34.24 220.00,34.24 220.20,34.24 220.40,34.17 220.60,34.17 220.80,33.93 221.00,33.93 221.20,33.93 221.40,32.14 221.60,32.14 221.80,32.14 222.00,34.00 222.20,34.00 222.40,34.00 222.60,35.16 222.80,35.16 223.00,35.16 223.20,32.99 223.40,32.99 223.60,32.99 223.80,32.53 224.00,32.53 224.20,32.53 224.40,32.53 224.60,31.14 224.80,31.14 225.00,31.14 225.20,30.02 225.40,30.02 225.60,28.95 225.80,28.95 226.00,32.45 226.20,30.77 226.40,30.77 226.60,29.42 226.80,29.42 227.00,29.42 227.20,28.52 227.40,28.52 227.60,28.52 227.80,27.45 228.00,27.45 228.20,26.66 228.40,26.66 228.60,26.66 228.80,25.86 229.00,25.86 229.20,25.86 229.40,25.95 229.60,25.95 229.80,25.46 230.00,25.46 230.20,25.46 230.40,24.75 230.60,24.75 230.80,24.12 231.00,24.12 231.20,24.12 231.40,23.65 231.60,23.65 231.80,24.02 232.00,24.02 232.20,24.02 232.40,23.92 232.60,23.92 232.80,22.66 233.00,22.66 233.20,22.66 233.40,21.73 233.60,21.73 233.80,22.68 234.00,22.68 234.20,20.85 234.40,20.85 234.60,20.85 234.80,20.67 235.00,20.67 235.20,20.67 235.40,18.65 235.60,19.58 235.80,19.58 236.00,19.58 236.20,19.58 236.40,18.66 236.60,18.66 236.80,18.66 237.00,18.66 237.20,18.76 237.40,18.76 237.60,18.76 237.80,18.90 238.00,18.90 238.20,18.90 238.40,18.90 238.60,19.11 238.80,19.11 239.00,19.11 239.20,18.06 239.40,19.99 239.60,19.99 239.80,18.75 240.00,18.75 240.20,18.75 240.40,18.33 240.60,18.33 240.80,15.90 241.00,16.53 241.20,16.53 241.40,16.53 241.60,16.53 241.80,16.87 242.00,15.42 242.20,15.42 242.40,15.42 242.60,14.49 242.80,14.49 243.00,13.87 243.20,13.87 243.40,14.64 243.60,14.64 243.80,12.68 244.00,12.68 244.20,12.68 244.40,12.52 244.60,12.52 244.80,12.16 245.00,12.16 245.20,12.16 245.40,12.75 245.60,12.75 245.80,12.75 246.00,15.09 246.20,15.09 246.40,13.64 246.60,14.69 246.80,14.69 247.00,14.69 247.20,16.21 247.40,16.21 247.60,17.42 247.80,17.42 248.00,17.42 248.20,18.01 248.40,18.01 248.60,18.01 248.80,18.67 249.00,18.67 249.20,18.67 249.40,18.67 249.60,19.45 249.80,19.45 250.00,20.00 250.20,20.00 250.40,18.73 250.60,18.73 250.80,20.75 251.00,20.75 251.20,20.61 251.40,20.61 251.60,20.61 251.80,22.17 252.00,22.17 252.20,22.17 252.40,22.51 252.60,22.51 252.80,22.51 253.00,23.15 253.20,23.15 253.40,23.76 253.60,23.76 253.80,23.76 254.00,24.13 254.20,24.13 254.40,24.43 254.60,24.43 254.80,24.54 255.00,24.46 255.20,24.46 255.40,24.46 255.60,23.94 255.80,23.94 256.00,24.84 256.20,23.73 256.40,23.73 256.60,23.73 256.80,24.31 257.00,22.80 257.20,22.80 257.40,22.80 257.60,23.47 257.80,23.47 258.00,21.11 258.20,21.11 258.40,22.68 258.60,22.68 258.80,20.84 259.00,20.84 259.20,23.28 259.40,21.20 259.60,21.20 259.80,21.20 260.00,21.20 260.20,20.92 260.40,20.92 260.60,20.92 260.80,21.38 261.00,21.38 261.20,21.38 261.40,20.68 261.60,20.68 261.80,20.81 262.00,20.81 262.20,20.67 262.40,20.67 262.60,22.79 262.80,20.57 263.00,20.57 263.20,20.57 263.40,20.57 263.60,22.69 263.80,22.69 264.00,22.69 264.20,22.69 264.40,22.99 264.60,22.04 264.80,22.04 265.00,22.05 265.20,22.05 265.40,22.05 265.60,24.39 265.80,24.39 266.00,24.39 266.20,25.65 266.40,25.65 266.60,25.65 266.80,25.65 267.00,25.97 267.20,25.97 267.40,25.97 267.60,23.68 267.80,28.68 268.00,28.68 268.20,28.17 268.40,28.17 268.60,28.17 268.80,26.33 269.00,28.68 269.20,28.68 269.40,28.68 269.60,29.49 269.80,29.49 270.00,29.49 270.20,28.20 270.40,28.20 270.60,28.77 270.80,28.77 271.00,28.77 271.20,28.14 271.40,28.14 271.60,23.73 271.80,25.79 272.00,25.79 272.20,25.79 272.40,25.22 272.60,24.03 272.80,24.03 273.00,23.60 273.20,23.60 273.40,23.77 273.60,23.77 273.80,22.83 274.00,22.83 274.20,22.83 274.40,23.21 274.60,21.79 274.80,21.79 275.00,21.79 275.20,19.43 275.40,20.85 275.60,20.85 275.80,20.19 276.00,20.19 276.20,20.19 276.40,16.97 276.60,20.37 276.80,20.37 277.00,18.03 277.20,18.03 277.40,19.49 277.60,19.49 277.80,19.49 278.00,17.10 278.20,17.10 278.40,17.10 278.60,17.10 278.80,15.91 279.00,17.94 279.20,17.94 279.40,16.05 279.60,16.05 279.80,16.05 280.00,14.68 280.20,16.56 280.40,16.56 280.60,16.56 280.80,15.19 281.00,14.12 281.20,14.12 281.40,14.12 281.60,14.12 281.80,14.82 282.00,13.86 282.20,13.86 282.40,13.86 282.60,13.08 282.80,13.08 283.00,12.44 283.20,12.44 283.40,12.44 283.60,14.14 283.80,14.14 284.00,10.88 284.20,10.88 284.40,10.88 284.60,9.00 284.80,9.00 285.00,8.76 285.20,8.76 285.40,8.76 285.60,8.54 285.80,8.54 286.00,11.73 286.20,10.36 286.40,10.36 286.60,10.57 286.80,6.88 287.00,6.88 287.20,9.27 287.40,9.27 287.60,9.27 287.80,10.34 288.00,9.62 288.20,9.62 288.40,7.39 288.60,7.39 288.80,9.43 289.00,9.43 289.20,9.43 289.40,8.35 289.60,5.71 289.80,5.71 290.00,6.94 290.20,6.94 290.40,7.01 290.60,7.01 290.80,7.01 291.00,7.50 291.20,7.50 291.40,7.50 291.60,5.73 291.80,5.73 292.00,5.73 292.20,5.62 292.40,5.62 292.60,5.52 292.80,5.52 293.00,4.21 293.20,4.62 293.40,4.62 293.60,4.62 293.80,4.62 294.00,4.25 294.20,4.25 294.40,4.25 294.60,6.17 294.80,6.17 295.00,6.62 295.20,6.62 295.40,5.53 295.60,7.26 295.80,7.26 296.00,7.80" />
</svg>