<svg width="300" height="60" xmlns="http://www.w3.org/2000/svg">
  <polyline fill="rgba(255,200,0,0.3)" stroke="#ffbb00" stroke-width="2" points="4.00,55.20 6.73,54.89 9.46,53.33 12.19,51.90 14.92,47.29 17.64,46.78 20.37,47.02 23.10,46.93 25.83,47.86 28.56,49.13 31.29,48.65 34.02,43.58 36.75,41.15 39.48,40.28 42.21,38.53 44.93,37.83 47.66,37.03 50.39,34.11 53.12,33.24 55.85,35.07 58.58,30.63 61.31,28.80 64.04,27.28 66.77,22.88 69.50,22.78 72.22,21.46 74.95,19.57 77.68,18.15 80.41,16.15 83.14,14.42 85.87,14.11 88.60,12.87 91.33,12.95 94.06,12.00 96.79,11.43 99.51,8.01 102.24,56.00 104.97,54.78 107.70,54.10 110.43,52.04 113.16,49.89 115.89,46.43 118.62,48.46 121.35,43.31 124.07,47.87 126.80,47.36 129.53,47.36 132.26,41.42 134.99,42.43 137.72,40.54 140.45,38.60 143.18,38.35 145.91,38.73 148.64,34.09 151.36,34.05 154.09,38.43 156.82,35.19 159.55,27.76 162.28,27.60 165.01,20.72 167.74,23.51 170.47,22.24 173.20,15.91 175.93,18.36 178.65,12.85 181.38,14.84 184.11,14.58 186.84,13.61 189.57,11.51 192.30,11.00 195.03,12.77 197.76,7.63 200.49,53.73 203.21,53.73 205.94,46.31 208.67,46.31 211.40,46.31 214.13,46.31 216.86,47.87 219.59,47.87 222.32,47.87 225.05,47.87 227.78,50.64 230.50,50.64 233.23,40.57 235.96,40.57 238.69,40.57 241.42,38.71 244.15,38.71 246.88,38.71 249.61,40.65 252.34,35.17 255.07,35.17 257.79,35.17 260.52,32.89 263.25,14.38 265.98,14.38 268.71,26.10 271.44,26.10 274.17,26.10 276.90,5.65 279.63,6.49 282.36,6.49 285.08,6.49 287.81,4.00 290.54,12.77 293.27,12.77 296.00,12.77" />
</svg>