<svg width="300" height="60" xmlns="http://www.w3.org/2000/svg">
  <polyline fill="rgba(255,200,0,0.3)" stroke="#ffbb00" stroke-width="2" points="4.00,54.01 5.75,52.94 7.50,51.10 9.25,49.30 10.99,47.10 12.74,45.39 14.49,43.72 16.24,41.73 17.99,39.34 19.74,37.11 21.49,34.46 23.23,31.88 24.98,29.30 26.73,26.61 28.48,23.88 30.23,21.53 31.98,19.79 33.72,18.89 35.47,18.86 37.22,19.46 38.97,19.79 40.72,20.29 42.47,20.36 44.22,19.90 45.96,18.86 47.71,17.25 49.46,15.72 51.21,14.35 52.96,13.77 54.71,13.33 56.46,13.36 58.20,14.21 59.95,16.50 61.70,18.70 63.45,20.89 65.20,23.52 66.95,26.66 68.69,29.11 70.44,31.72 72.19,33.52 73.94,34.75 75.69,35.87 77.44,54.16 79.19,53.01 80.93,50.85 82.68,48.89 84.43,47.31 86.18,45.76 87.93,43.79 89.68,42.59 91.43,38.95 93.17,36.82 94.92,34.24 96.67,31.21 98.42,28.08 100.17,26.15 101.92,23.47 103.66,21.54 105.41,19.72 107.16,18.98 108.91,19.05 110.66,19.76 112.41,20.81 114.16,20.61 115.90,20.34 117.65,20.03 119.40,20.07 121.15,17.63 122.90,15.66 124.65,14.07 126.40,16.27 128.14,13.54 129.89,13.38 131.64,14.62 133.39,15.75 135.14,19.07 136.89,21.23 138.63,23.75 140.38,27.56 142.13,29.41 143.88,32.15 145.63,33.70 147.38,35.02 149.13,36.01 150.87,53.19 152.62,53.04 154.37,51.57 156.12,50.46 157.87,47.56 159.62,45.48 161.37,43.31 163.11,41.49 164.86,39.12 166.61,36.11 168.36,35.84 170.11,31.27 171.86,32.67 173.60,25.48 175.35,23.89 177.10,21.69 178.85,20.06 180.60,18.75 182.35,18.51 184.10,21.61 185.84,21.30 187.59,21.30 189.34,24.62 191.09,20.02 192.84,24.43 194.59,18.24 196.34,22.40 198.08,15.05 199.83,17.10 201.58,14.16 203.33,11.65 205.08,13.62 206.83,13.05 208.57,18.77 210.32,20.55 212.07,22.49 213.82,26.04 215.57,27.08 217.32,31.41 219.07,33.10 220.81,34.96 222.56,35.92 224.31,49.89 226.06,49.89 227.81,56.00 229.56,56.00 231.31,56.00 233.05,48.03 234.80,48.03 236.55,48.03 238.30,48.30 240.05,44.01 241.80,37.82 243.54,37.82 245.29,37.82 247.04,37.82 248.79,37.82 250.54,37.82 252.29,33.14 254.04,33.14 255.78,15.25 257.53,22.59 259.28,22.59 261.03,22.59 262.78,17.18 264.53,17.18 266.28,34.23 268.02,34.23 269.77,34.23 271.52,4.00 273.27,22.79 275.02,22.79 276.77,11.03 278.51,11.03 280.26,11.03 282.01,13.93 283.76,21.98 285.51,21.98 287.26,21.98 289.01,21.98 290.75,33.18 292.50,33.18 294.25,42.00 296.00,42.00" />
</svg>