<svg width="300" height="60" xmlns="http://www.w3.org/2000/svg">
  <polyline fill="rgba(255,200,0,0.3)" stroke="#ffbb00" stroke-width="2" points="4.00,47.20 4.12,47.28 4.23,47.08 4.35,47.15 4.47,47.19 4.58,46.75 4.70,46.26 4.82,45.77 4.93,45.41 5.05,45.30 5.17,45.44 5.28,46.03 5.40,46.34 5.52,46.47 5.63,46.42 5.75,46.27 5.87,46.15 5.98,46.30 6.10,46.68 6.21,46.94 6.33,47.31 6.45,47.44 6.56,47.59 6.68,47.51 6.80,47.94 6.91,48.52 7.03,49.00 7.15,49.02 7.26,49.77 7.38,50.38 7.50,50.68 7.61,50.82 7.73,50.78 7.85,50.73 7.96,50.84 8.08,50.79 8.20,51.06 8.31,51.31 8.43,51.82 8.55,52.38 8.66,52.62 8.78,53.15 8.90,52.64 9.01,52.29 9.13,52.27 9.25,52.45 9.36,52.52 9.48,52.35 9.60,52.44 9.71,52.48 9.83,52.50 9.94,52.25 10.06,51.97 10.18,51.63 10.29,51.53 10.41,51.34 10.53,51.51 10.64,52.15 10.76,53.04 10.88,53.43 10.99,53.39 11.11,53.39 11.23,53.44 11.34,53.44 11.46,53.29 11.58,53.33 11.69,53.68 11.81,53.99 11.93,53.99 12.04,53.86 12.16,53.88 12.28,53.73 12.39,53.68 12.51,53.65 12.63,53.39 12.74,53.44 12.86,53.07 12.98,53.04 13.09,53.03 13.21,53.21 13.33,53.11 13.44,53.32 13.56,53.34 13.68,53.30 13.79,53.01 13.91,52.92 14.02,52.67 14.14,52.86 14.26,52.79 14.37,51.93 14.49,51.30 14.61,50.03 14.72,49.03 14.84,48.73 14.96,49.22 15.07,50.14 15.19,50.16 15.31,50.13 15.42,50.02 15.54,49.66 15.66,49.51 15.77,49.70 15.89,49.77 16.01,49.33 16.12,48.42 16.24,47.75 16.36,47.01 16.47,46.97 16.59,46.99 16.71,47.31 16.82,47.30 16.94,47.54 17.06,47.42 17.17,46.91 17.29,46.37 17.41,46.06 17.52,45.67 17.64,45.62 17.75,45.39 17.87,45.24 17.99,45.29 18.10,45.18 18.22,45.46 18.34,45.64 18.45,45.85 18.57,45.60 18.69,44.87 18.80,44.20 18.92,44.11 19.04,43.78 19.15,43.10 19.27,43.57 19.39,44.12 19.50,45.06 19.62,45.35 19.74,45.49 19.85,44.91 19.97,43.73 20.09,43.47 20.20,43.19 20.32,43.52 20.44,44.38 20.55,44.74 20.67,44.93 20.79,44.99 20.90,44.76 21.02,45.13 21.14,44.69 21.25,44.76 21.37,44.88 21.49,43.65 21.60,43.11 21.72,42.89 21.83,43.71 21.95,44.77 22.07,45.75 22.18,45.77 22.30,45.68 22.42,45.31 22.53,45.06 22.65,45.26 22.77,45.34 22.88,45.42 23.00,45.26 23.12,44.37 23.23,43.64 23.35,42.95 23.47,41.89 23.58,41.06 23.70,41.46 23.82,41.53 23.93,41.19 24.05,41.69 24.17,43.32 24.28,44.20 24.40,45.39 24.52,45.88 24.63,46.13 24.75,45.59 24.87,44.58 24.98,43.38 25.10,42.52 25.22,42.14 25.33,40.90 25.45,39.84 25.56,39.59 25.68,40.02 25.80,39.89 25.91,39.58 26.03,38.96 26.15,38.98 26.26,39.06 26.38,38.98 26.50,38.56 26.61,38.16 26.73,37.92 26.85,37.74 26.96,37.84 27.08,38.21 27.20,38.77 27.31,39.75 27.43,40.14 27.55,40.55 27.66,40.64 27.78,40.56 27.90,40.47 28.01,40.40 28.13,40.13 28.25,39.68 28.36,39.43 28.48,39.13 28.60,38.88 28.71,38.83 28.83,38.89 28.95,39.03 29.06,38.85 29.18,38.67 29.30,37.78 29.41,37.06 29.53,36.53 29.64,36.40 29.76,36.16 29.88,36.18 29.99,36.54 30.11,37.45 30.23,37.31 30.34,36.89 30.46,36.65 30.58,36.82 30.69,37.37 30.81,39.08 30.93,38.24 31.04,37.86 31.16,37.49 31.28,37.58 31.39,38.25 31.51,38.41 31.63,37.86 31.74,37.17 31.86,37.05 31.98,37.21 32.09,36.76 32.21,36.61 32.33,35.84 32.44,35.31 32.56,35.00 32.68,34.92 32.79,34.64 32.91,34.24 33.03,34.26 33.14,34.37 33.26,35.13 33.37,35.50 33.49,36.21 33.61,35.93 33.72,35.56 33.84,35.53 33.96,34.54 34.07,33.67 34.19,32.85 34.31,32.42 34.42,32.21 34.54,31.79 34.66,31.53 34.77,31.59 34.89,31.76 35.01,32.22 35.12,32.86 35.24,33.90 35.36,34.09 35.47,34.05 35.59,34.66 35.71,34.95 35.82,34.92 35.94,35.16 36.06,36.05 36.17,36.79 36.29,37.41 36.41,35.94 36.52,34.41 36.64,33.33 36.76,33.19 36.87,33.33 36.99,33.59 37.10,33.35 37.22,32.97 37.34,33.20 37.45,33.62 37.57,33.61 37.69,33.16 37.80,32.15 37.92,31.86 38.04,31.97 38.15,32.63 38.27,33.39 38.39,34.15 38.50,34.73 38.62,33.90 38.74,32.92 38.85,31.71 38.97,30.63 39.09,30.49 39.20,30.69 39.32,31.31 39.44,31.48 39.55,31.69 39.67,31.72 39.79,31.56 39.90,31.82 40.02,32.35 40.14,32.44 40.25,32.81 40.37,31.94 40.49,31.29 40.60,30.21 40.72,30.18 40.84,30.84 40.95,31.81 41.07,33.13 41.18,33.72 41.30,33.00 41.42,32.48 41.53,32.14 41.65,31.99 41.77,31.97 41.88,31.77 42.00,32.21 42.12,32.57 42.23,32.53 42.35,31.83 42.47,31.03 42.58,29.90 42.70,28.87 42.82,28.56 42.93,28.87 43.05,29.47 43.17,29.75 43.28,30.26 43.40,29.74 43.52,29.76 43.63,29.32 43.75,28.94 43.87,28.23 43.98,27.72 44.10,27.69 44.22,28.17 44.33,28.66 44.45,28.64 44.57,28.37 44.68,28.07 44.80,28.17 44.91,27.77 45.03,27.92 45.15,28.63 45.26,29.01 45.38,29.53 45.50,29.96 45.61,30.44 45.73,31.07 45.85,31.72 45.96,32.31 46.08,31.13 46.20,30.40 46.31,30.05 46.43,29.37 46.55,28.94 46.66,28.74 46.78,28.07 46.90,26.89 47.01,25.94 47.13,25.87 47.25,26.41 47.36,26.17 47.48,25.79 47.60,25.87 47.71,25.86 47.83,25.79 47.95,25.55 48.06,25.18 48.18,25.16 48.30,25.30 48.41,24.57 48.53,23.23 48.65,22.27 48.76,21.72 48.88,21.52 48.99,21.61 49.11,21.86 49.23,21.47 49.34,21.17 49.46,20.36 49.58,19.30 49.69,18.43 49.81,18.05 49.93,18.31 50.04,18.25 50.16,17.67 50.28,16.91 50.39,16.47 50.51,16.39 50.63,16.56 50.74,16.77 50.86,17.02 50.98,16.86 51.09,16.58 51.21,16.18 51.33,15.97 51.44,16.34 51.56,16.70 51.68,16.88 51.79,17.29 51.91,17.72 52.03,18.55 52.14,19.61 52.26,20.77 52.38,22.43 52.49,23.44 52.61,24.04 52.72,23.40 52.84,22.33 52.96,22.03 53.07,21.60 53.19,21.34 53.31,21.63 53.42,21.69 53.54,21.79 53.66,21.99 53.77,22.10 53.89,22.14 54.01,22.15 54.12,21.94 54.24,21.78 54.36,21.43 54.47,21.25 54.59,20.93 54.71,20.66 54.82,20.37 54.94,19.88 55.06,19.40 55.17,18.90 55.29,18.26 55.41,18.00 55.52,17.52 55.64,17.24 55.76,17.31 55.87,17.20 55.99,16.98 56.11,16.54 56.22,15.45 56.34,14.88 56.46,14.33 56.57,14.34 56.69,14.35 56.80,14.45 56.92,14.11 57.04,13.59 57.15,12.65 57.27,11.94 57.39,11.65 57.50,11.59 57.62,11.73 57.74,12.44 57.85,14.27 57.97,14.54 58.09,14.77 58.20,15.16 58.32,15.24 58.44,14.85 58.55,13.85 58.67,13.45 58.79,12.55 58.90,12.70 59.02,13.17 59.14,13.38 59.25,13.55 59.37,14.54 59.49,14.98 59.60,14.99 59.72,14.50 59.84,13.92 59.95,13.75 60.07,13.71 60.19,13.59 60.30,13.51 60.42,13.42 60.53,13.77 60.65,14.35 60.77,14.16 60.88,13.91 61.00,13.84 61.12,13.90 61.23,13.99 61.35,14.34 61.47,14.79 61.58,15.16 61.70,15.50 61.82,15.62 61.93,15.65 62.05,15.68 62.17,15.76 62.28,15.79 62.40,15.80 62.52,15.81 62.63,15.85 62.75,15.96 62.87,16.14 62.98,16.17 63.10,16.03 63.22,15.66 63.33,15.22 63.45,14.84 63.57,13.93 63.68,13.26 63.80,13.21 63.92,14.40 64.03,14.91 64.15,15.14 64.27,14.72 64.38,14.43 64.50,14.22 64.61,13.78 64.73,13.35 64.85,12.86 64.96,12.72 65.08,13.49 65.20,13.88 65.31,13.91 65.43,13.54 65.55,13.15 65.66,12.97 65.78,12.65 65.90,12.16 66.01,11.69 66.13,11.10 66.25,10.56 66.36,10.07 66.48,9.91 66.60,10.05 66.71,10.61 66.83,11.36 66.95,11.03 67.06,10.79 67.18,10.29 67.30,9.87 67.41,9.78 67.53,9.75 67.65,9.77 67.76,9.57 67.88,9.46 68.00,9.69 68.11,10.29 68.23,10.13 68.34,9.90 68.46,10.06 68.58,10.04 68.69,10.06 68.81,10.00 68.93,9.47 69.04,9.18 69.16,8.89 69.28,8.50 69.39,8.17 69.51,8.05 69.63,8.22 69.74,8.53 69.86,9.11 69.98,9.19 70.09,8.04 70.21,7.73 70.33,7.68 70.44,7.86 70.56,8.53 70.68,9.32 70.79,10.02 70.91,9.21 71.03,9.09 71.14,9.41 71.26,9.76 71.38,10.16 71.49,10.39 71.61,11.01 71.73,11.92 71.84,12.06 71.96,12.24 72.08,12.45 72.19,12.22 72.31,11.92 72.42,12.46 72.54,12.05 72.66,11.50 72.77,11.12 72.89,11.04 73.01,10.73 73.12,10.70 73.24,10.39 73.36,10.21 73.47,9.75 73.59,9.96 73.71,10.09 73.82,9.67 73.94,9.53 74.06,8.94 74.17,8.57 74.29,8.22 74.41,8.07 74.52,7.81 74.64,7.32 74.76,6.94 74.87,6.35 74.99,6.30 75.11,6.66 75.22,7.45 75.34,8.59 75.46,9.69 75.57,10.27 75.69,10.47 75.81,9.57 75.92,8.94 76.04,8.85 76.15,8.90 76.27,8.65 76.39,8.34 76.50,7.88 76.62,7.79 76.74,7.03 76.85,47.07 76.97,47.27 77.09,47.09 77.20,47.13 77.32,47.12 77.44,46.75 77.55,46.30 77.67,45.74 77.79,45.44 77.90,45.31 78.02,45.43 78.14,46.09 78.25,46.31 78.37,46.54 78.49,46.34 78.60,46.21 78.72,46.18 78.84,46.38 78.95,46.59 79.07,46.93 79.19,47.43 79.30,47.47 79.42,47.73 79.54,47.60 79.65,47.86 79.77,48.58 79.89,49.07 80.00,49.09 80.12,49.53 80.23,50.36 80.35,50.68 80.47,50.77 80.58,50.83 80.70,50.72 80.82,50.67 80.93,50.77 81.05,51.07 81.17,51.26 81.28,51.82 81.40,52.50 81.52,52.72 81.63,53.21 81.75,52.70 81.87,52.30 81.98,52.27 82.10,52.47 82.22,52.61 82.33,52.33 82.45,52.41 82.57,52.44 82.68,52.52 82.80,52.23 82.92,51.97 83.03,51.48 83.15,51.55 83.27,51.35 83.38,51.49 83.50,52.20 83.62,53.04 83.73,53.51 83.85,53.39 83.96,53.39 84.08,53.46 84.20,53.45 84.31,53.32 84.43,53.35 84.55,53.67 84.66,54.00 84.78,53.99 84.90,53.88 85.01,53.87 85.13,53.72 85.25,53.75 85.36,53.66 85.48,53.27 85.60,53.46 85.71,53.16 85.83,53.12 85.95,53.02 86.06,53.25 86.18,53.10 86.30,53.34 86.41,53.34 86.53,53.29 86.65,52.99 86.76,52.93 86.88,52.67 87.00,52.87 87.11,52.80 87.23,51.93 87.35,51.36 87.46,50.10 87.58,49.01 87.70,48.70 87.81,49.06 87.93,50.11 88.04,50.20 88.16,50.01 88.28,49.94 88.39,49.49 88.51,49.45 88.63,49.72 88.74,49.71 88.86,49.21 88.98,48.42 89.09,47.74 89.21,47.03 89.33,47.01 89.44,46.89 89.56,47.31 89.68,47.39 89.79,47.55 89.91,47.44 90.03,46.86 90.14,46.38 90.26,46.10 90.38,45.69 90.49,45.63 90.61,45.37 90.73,45.23 90.84,45.29 90.96,45.27 91.08,45.50 91.19,45.75 91.31,45.86 91.43,45.59 91.54,44.79 91.66,44.20 91.77,44.09 91.89,43.82 92.01,43.19 92.12,43.56 92.24,44.04 92.36,45.06 92.47,45.27 92.59,45.47 92.71,44.95 92.82,43.73 92.94,43.44 93.06,43.14 93.17,43.53 93.29,44.35 93.41,44.75 93.52,44.92 93.64,45.02 93.76,44.89 93.87,45.14 93.99,44.82 94.11,44.72 94.22,44.82 94.34,43.74 94.46,43.12 94.57,42.89 94.69,43.71 94.81,44.72 94.92,45.60 95.04,45.72 95.16,45.69 95.27,45.38 95.39,45.16 95.50,45.27 95.62,45.33 95.74,45.41 95.85,45.25 95.97,44.38 96.09,43.64 96.20,42.93 96.32,41.94 96.44,41.03 96.55,41.53 96.67,41.42 96.79,41.23 96.90,41.65 97.02,43.06 97.14,44.12 97.25,45.39 97.37,45.84 97.49,46.16 97.60,45.63 97.72,44.60 97.84,43.36 97.95,42.53 98.07,42.09 98.19,40.89 98.30,39.89 98.42,39.47 98.54,39.90 98.65,39.95 98.77,39.53 98.89,39.08 99.00,38.97 99.12,39.20 99.24,39.02 99.35,38.57 99.47,38.23 99.58,37.89 99.70,37.70 99.82,37.83 99.93,38.11 100.05,38.72 100.17,39.75 100.28,40.19 100.40,40.53 100.52,40.51 100.63,40.67 100.75,40.49 100.87,40.36 100.98,40.05 101.10,39.70 101.22,39.45 101.33,39.17 101.45,38.82 101.57,38.92 101.68,38.87 101.80,39.00 101.92,38.84 102.03,38.62 102.15,37.79 102.27,37.02 102.38,36.57 102.50,36.41 102.62,36.19 102.73,36.20 102.85,36.49 102.97,37.44 103.08,37.43 103.20,36.84 103.31,36.69 103.43,36.93 103.55,37.53 103.66,39.03 103.78,38.27 103.90,37.87 104.01,37.52 104.13,37.57 104.25,38.24 104.36,38.42 104.48,38.01 104.60,37.21 104.71,36.97 104.83,37.14 104.95,36.81 105.06,36.60 105.18,35.89 105.30,35.32 105.41,35.00 105.53,34.88 105.65,34.63 105.76,34.21 105.88,34.23 106.00,34.37 106.11,35.18 106.23,35.49 106.35,36.26 106.46,36.04 106.58,35.61 106.70,35.47 106.81,34.52 106.93,33.64 107.05,32.88 107.16,32.44 107.28,32.26 107.39,31.82 107.51,31.58 107.63,31.55 107.74,31.76 107.86,32.28 107.98,32.86 108.09,33.99 108.21,34.06 108.33,34.11 108.44,34.60 108.56,34.88 108.68,34.89 108.79,35.16 108.91,35.91 109.03,36.80 109.14,37.36 109.26,35.88 109.38,34.39 109.49,33.35 109.61,33.19 109.73,33.32 109.84,33.63 109.96,33.31 110.08,32.84 110.19,33.20 110.31,33.63 110.43,33.61 110.54,33.17 110.66,32.15 110.78,31.88 110.89,31.93 111.01,32.68 111.12,33.30 111.24,34.11 111.36,34.58 111.47,33.84 111.59,32.97 111.71,31.68 111.82,30.56 111.94,30.49 112.06,30.70 112.17,31.26 112.29,31.52 112.41,31.73 112.52,31.72 112.64,31.47 112.76,31.88 112.87,32.34 112.99,32.45 113.11,32.83 113.22,32.00 113.34,31.27 113.46,30.20 113.57,30.24 113.69,30.83 113.81,31.78 113.92,33.09 114.04,33.70 114.16,33.12 114.27,32.38 114.39,32.08 114.51,31.88 114.62,31.99 114.74,31.80 114.86,32.07 114.97,32.52 115.09,32.54 115.20,31.91 115.32,30.90 115.44,29.86 115.55,28.92 115.67,28.55 115.79,28.81 115.90,29.48 116.02,29.81 116.14,30.32 116.25,29.75 116.37,29.88 116.49,29.30 116.60,28.93 116.72,28.22 116.84,27.66 116.95,27.78 117.07,28.06 117.19,28.60 117.30,28.69 117.42,28.31 117.54,28.01 117.65,28.08 117.77,27.80 117.89,27.86 118.00,28.61 118.12,29.03 118.24,29.52 118.35,30.01 118.47,30.42 118.59,31.09 118.70,31.73 118.82,32.34 118.93,31.13 119.05,30.47 119.17,30.07 119.28,29.41 119.40,28.94 119.52,28.71 119.63,28.07 119.75,26.95 119.87,25.96 119.98,25.94 120.10,26.43 120.22,26.09 120.33,25.80 120.45,25.91 120.57,25.87 120.68,25.82 120.80,25.52 120.92,25.15 121.03,25.16 121.15,25.35 121.27,24.66 121.38,23.16 121.50,22.20 121.62,21.76 121.73,21.49 121.85,21.62 121.97,21.79 122.08,21.50 122.20,21.05 122.32,20.37 122.43,19.36 122.55,18.38 122.67,18.05 122.78,18.41 122.90,18.20 123.01,17.51 123.13,16.84 123.25,16.49 123.36,16.28 123.48,16.56 123.60,16.84 123.71,16.95 123.83,16.92 123.95,16.42 124.06,16.18 124.18,15.89 124.30,16.34 124.41,16.78 124.53,16.87 124.65,17.35 124.76,17.71 124.88,18.52 125.00,19.59 125.11,20.85 125.23,22.38 125.35,23.43 125.46,24.05 125.58,23.32 125.70,22.31 125.81,21.97 125.93,21.68 126.05,21.40 126.16,21.59 126.28,21.70 126.40,21.85 126.51,21.97 126.63,22.02 126.74,22.14 126.86,22.19 126.98,21.91 127.09,21.77 127.21,21.54 127.33,21.14 127.44,21.08 127.56,20.71 127.68,20.34 127.79,19.82 127.91,19.40 128.03,18.93 128.14,18.21 128.26,17.95 128.38,17.48 128.49,17.24 128.61,17.30 128.73,17.21 128.84,16.97 128.96,16.44 129.08,15.45 129.19,14.83 129.31,14.34 129.43,14.25 129.54,14.34 129.66,14.36 129.78,14.08 129.89,13.48 130.01,12.73 130.13,11.96 130.24,11.60 130.36,11.49 130.48,11.69 130.59,12.45 130.71,14.23 130.82,14.54 130.94,14.68 131.06,15.10 131.17,15.29 131.29,14.88 131.41,13.94 131.52,13.48 131.64,12.57 131.76,12.72 131.87,13.14 131.99,13.39 132.11,13.55 132.22,14.53 132.34,15.01 132.46,14.89 132.57,14.60 132.69,13.91 132.81,13.78 132.92,13.70 133.04,13.66 133.16,13.48 133.27,13.43 133.39,13.74 133.51,14.34 133.62,14.10 133.74,13.87 133.86,13.79 133.97,13.86 134.09,13.99 134.21,14.38 134.32,14.86 134.44,15.19 134.55,15.45 134.67,15.65 134.79,15.68 134.90,15.65 135.02,15.77 135.14,15.76 135.25,15.78 135.37,15.77 135.49,15.84 135.60,16.01 135.72,16.14 135.84,16.12 135.95,16.05 136.07,15.63 136.19,15.19 136.30,14.84 136.42,13.96 136.54,13.22 136.65,13.25 136.77,14.41 136.89,14.91 137.00,15.10 137.12,14.73 137.24,14.38 137.35,14.22 137.47,13.75 137.59,13.44 137.70,12.87 137.82,12.75 137.94,13.50 138.05,13.93 138.17,14.01 138.29,13.46 138.40,13.12 138.52,12.98 138.63,12.65 138.75,12.21 138.87,11.72 138.98,11.16 139.10,10.58 139.22,10.04 139.33,9.92 139.45,10.08 139.57,10.58 139.68,11.26 139.80,11.00 139.92,10.83 140.03,10.36 140.15,9.89 140.27,9.84 140.38,9.75 140.50,9.69 140.62,9.54 140.73,9.49 140.85,9.63 140.97,10.35 141.08,10.22 141.20,9.92 141.32,10.14 141.43,10.00 141.55,9.96 141.67,9.90 141.78,9.51 141.90,9.11 142.02,8.89 142.13,8.41 142.25,8.19 142.36,8.10 142.48,8.27 142.60,8.58 142.71,9.20 142.83,9.26 142.95,8.06 143.06,7.68 143.18,7.66 143.30,7.81 143.41,8.43 143.53,9.22 143.65,9.96 143.76,9.17 143.88,9.06 144.00,9.40 144.11,9.74 144.23,10.19 144.35,10.45 144.46,10.99 144.58,11.92 144.70,12.07 144.81,12.24 144.93,12.37 145.05,12.20 145.16,11.86 145.28,12.66 145.40,12.20 145.51,11.45 145.63,11.19 145.75,10.96 145.86,10.73 145.98,10.79 146.10,10.38 146.21,10.13 146.33,9.80 146.44,10.07 146.56,9.95 146.68,9.66 146.79,9.49 146.91,8.94 147.03,8.56 147.14,8.26 147.26,8.05 147.38,7.71 147.49,7.28 147.61,6.93 147.73,6.41 147.84,6.26 147.96,6.66 148.08,7.45 148.19,8.64 148.31,9.69 148.43,10.27 148.54,10.45 148.66,9.61 148.78,8.96 148.89,8.97 149.01,8.83 149.13,8.62 149.24,8.22 149.36,7.92 149.48,7.77 149.59,6.98 149.71,8.76 149.83,8.72 149.94,8.41 150.06,7.88 150.17,7.89 150.29,7.17 150.41,46.94 150.52,46.61 150.64,47.23 150.76,47.08 150.87,47.46 150.99,46.81 151.11,46.29 151.22,45.62 151.34,45.50 151.46,45.31 151.57,45.87 151.69,46.37 151.81,46.37 151.92,46.56 152.04,46.46 152.16,46.21 152.27,45.94 152.39,46.93 152.51,46.93 152.62,46.99 152.74,47.05 152.86,48.29 152.97,48.19 153.09,48.11 153.21,48.58 153.32,49.29 153.44,48.89 153.56,49.76 153.67,50.50 153.79,50.02 153.90,51.19 154.02,50.54 154.14,51.51 154.25,50.96 154.37,50.62 154.49,50.54 154.60,50.73 154.72,51.16 154.84,51.78 154.95,52.36 155.07,53.41 155.19,52.16 155.30,51.99 155.42,52.61 155.54,52.51 155.65,51.90 155.77,52.15 155.89,52.82 156.00,52.68 156.12,52.52 156.24,52.73 156.35,52.12 156.47,51.79 156.59,51.43 156.70,51.14 156.82,51.65 156.94,51.57 157.05,51.75 157.17,53.00 157.29,53.44 157.40,53.27 157.52,53.14 157.64,53.70 157.75,53.59 157.87,53.44 157.98,53.41 158.10,53.56 158.22,53.61 158.33,53.93 158.45,53.86 158.57,53.80 158.68,53.66 158.80,53.71 158.92,53.70 159.03,52.79 159.15,53.14 159.27,53.41 159.38,52.53 159.50,52.79 159.62,53.24 159.73,53.30 159.85,53.30 159.97,53.24 160.08,53.17 160.20,53.14 160.32,52.81 160.43,52.77 160.55,52.76 160.67,52.56 160.78,52.16 160.90,50.68 161.02,50.21 161.13,49.33 161.25,49.53 161.37,49.21 161.48,49.52 161.60,49.27 161.71,50.53 161.83,50.25 161.95,49.94 162.06,50.02 162.18,49.04 162.30,49.91 162.41,49.25 162.53,48.37 162.65,47.14 162.76,47.10 162.88,46.47 163.00,47.08 163.11,47.08 163.23,47.60 163.35,47.04 163.46,47.08 163.58,46.24 163.70,45.99 163.81,45.09 163.93,45.82 164.05,45.11 164.16,45.26 164.28,44.54 164.40,44.88 164.51,45.43 164.63,44.88 164.75,46.28 164.86,45.90 164.98,45.52 165.10,44.63 165.21,44.79 165.33,44.12 165.45,43.46 165.56,42.88 165.68,43.86 165.79,44.35 165.91,44.88 166.03,45.02 166.14,45.35 166.26,44.51 166.38,43.50 166.49,43.01 166.61,43.38 166.73,43.65 166.84,44.54 166.96,44.54 167.08,44.38 167.19,44.90 167.31,44.54 167.43,44.76 167.54,44.41 167.66,44.09 167.78,44.93 167.89,44.17 168.01,43.06 168.13,43.07 168.24,43.90 168.36,45.05 168.48,44.94 168.59,45.66 168.71,45.15 168.83,44.79 168.94,44.62 169.06,45.41 169.18,45.41 169.29,45.33 169.41,45.13 169.52,44.64 169.64,43.86 169.76,43.07 169.87,41.69 169.99,41.36 170.11,41.17 170.22,40.51 170.34,41.01 170.46,41.12 170.57,43.13 170.69,44.01 170.81,45.66 170.92,46.08 171.04,45.68 171.16,45.95 171.27,44.78 171.39,43.21 171.51,42.57 171.62,41.32 171.74,40.04 171.86,40.63 171.97,39.90 172.09,38.55 172.21,39.63 172.32,38.76 172.44,38.06 172.56,39.28 172.67,39.34 172.79,38.12 172.91,37.57 173.02,38.29 173.14,37.43 173.26,38.14 173.37,37.79 173.49,38.06 173.60,39.35 173.72,38.90 173.84,39.86 173.95,40.37 174.07,40.37 174.19,40.64 174.30,40.06 174.42,40.10 174.54,39.91 174.65,38.92 174.77,39.74 174.89,38.94 175.00,38.91 175.12,38.92 175.24,38.17 175.35,38.94 175.47,38.81 175.59,38.24 175.70,37.22 175.82,37.22 175.94,36.33 176.05,35.98 176.17,36.16 176.29,36.16 176.40,37.12 176.52,37.27 176.64,37.09 176.75,37.33 176.87,36.67 176.99,35.78 177.10,38.03 177.22,38.81 177.33,38.21 177.45,38.17 177.57,37.84 177.68,37.57 177.80,38.11 177.92,38.30 178.03,37.83 178.15,37.36 178.27,37.30 178.38,37.40 178.50,36.61 178.62,36.61 178.73,36.08 178.85,35.42 178.97,35.28 179.08,35.01 179.20,34.53 179.32,34.47 179.43,34.46 179.55,34.24 179.67,35.37 179.78,35.32 179.90,36.58 180.02,35.81 180.13,35.18 180.25,35.40 180.37,35.03 180.48,34.16 180.60,32.67 180.72,32.67 180.83,32.39 180.95,31.98 181.07,31.14 181.18,32.01 181.30,30.82 181.41,31.18 181.53,31.54 181.65,33.88 181.76,33.49 181.88,32.95 182.00,34.71 182.11,34.48 182.23,35.65 182.35,35.42 182.46,35.60 182.58,36.06 182.70,36.62 182.81,35.44 182.93,34.21 183.05,33.42 183.16,33.18 183.28,33.02 183.40,33.64 183.51,32.89 183.63,32.65 183.75,33.30 183.86,33.74 183.98,33.69 184.10,33.50 184.21,32.57 184.33,31.78 184.45,32.23 184.56,32.63 184.68,32.95 184.80,33.42 184.91,33.82 185.03,33.86 185.14,33.58 185.26,31.65 185.38,30.72 185.49,30.02 185.61,30.44 185.73,31.43 185.84,31.08 185.96,31.54 186.08,30.96 186.19,31.35 186.31,31.09 186.43,32.06 186.54,32.12 186.66,33.35 186.78,32.41 186.89,30.60 187.01,30.33 187.13,29.98 187.24,30.97 187.36,32.04 187.48,33.08 187.59,33.65 187.71,33.02 187.83,32.28 187.94,32.72 188.06,32.28 188.18,32.36 188.29,31.81 188.41,31.45 188.53,32.96 188.64,33.00 188.76,31.41 188.88,31.49 188.99,30.10 189.11,28.93 189.22,28.20 189.34,28.69 189.46,29.28 189.57,30.17 189.69,30.24 189.81,29.53 189.92,29.70 190.04,29.30 190.16,28.50 190.27,27.95 190.39,28.07 190.51,27.92 190.62,27.92 190.74,28.47 190.86,29.34 190.97,28.68 191.09,27.62 191.21,27.25 191.32,28.05 191.44,27.67 191.56,27.56 191.67,29.20 191.79,29.21 191.91,30.51 192.02,30.41 192.14,30.38 192.26,31.60 192.37,31.76 192.49,31.51 192.61,31.20 192.72,30.12 192.84,29.93 192.95,29.06 193.07,28.49 193.19,28.61 193.30,27.55 193.42,26.58 193.54,25.61 193.65,26.21 193.77,26.11 193.89,26.13 194.00,25.85 194.12,26.27 194.24,25.92 194.35,25.19 194.47,25.57 194.59,25.17 194.70,25.11 194.82,24.87 194.94,23.90 195.05,22.67 195.17,21.81 195.29,22.11 195.40,21.66 195.52,22.33 195.64,21.63 195.75,20.75 195.87,19.68 195.99,19.47 196.10,18.71 196.22,18.65 196.34,18.84 196.45,18.78 196.57,18.78 196.69,16.82 196.80,16.51 196.92,16.59 197.03,16.93 197.15,17.27 197.27,17.20 197.38,16.89 197.50,17.51 197.62,16.51 197.73,15.71 197.85,16.40 197.97,17.36 198.08,17.23 198.20,17.37 198.32,17.37 198.43,18.62 198.55,19.28 198.67,20.34 198.78,22.00 198.90,23.22 199.02,23.87 199.13,23.28 199.25,22.89 199.37,22.41 199.48,22.20 199.60,21.32 199.72,21.48 199.83,21.81 199.95,22.23 200.07,21.82 200.18,22.31 200.30,22.77 200.42,21.83 200.53,22.31 200.65,21.72 200.76,21.08 200.88,21.71 201.00,21.37 201.11,20.29 201.23,20.05 201.35,19.79 201.46,19.79 201.58,19.69 201.70,18.69 201.81,17.89 201.93,17.10 202.05,16.50 202.16,17.46 202.28,17.30 202.40,16.92 202.51,16.34 202.63,15.69 202.75,14.74 202.86,14.57 202.98,14.69 203.10,13.93 203.21,14.31 203.33,14.55 203.45,13.21 203.56,13.09 203.68,11.67 203.80,11.66 203.91,11.12 204.03,11.45 204.15,12.11 204.26,14.03 204.38,14.31 204.50,14.88 204.61,15.15 204.73,14.90 204.84,15.45 204.96,14.24 205.08,13.64 205.19,13.03 205.31,12.78 205.43,13.02 205.54,13.07 205.66,13.81 205.78,14.55 205.89,14.55 206.01,15.02 206.13,14.84 206.24,15.00 206.36,14.19 206.48,13.67 206.59,14.21 206.71,13.61 206.83,13.30 206.94,14.27 207.06,14.42 207.18,14.04 207.29,13.63 207.41,14.16 207.53,14.06 207.64,14.15 207.76,14.45 207.88,14.87 207.99,14.87 208.11,15.21 208.23,15.54 208.34,15.79 208.46,15.96 208.57,15.47 208.69,15.78 208.81,16.09 208.92,15.67 209.04,16.17 209.16,16.06 209.27,16.67 209.39,16.01 209.51,15.87 209.62,15.71 209.74,15.04 209.86,15.03 209.97,13.70 210.09,13.20 210.21,12.99 210.32,14.58 210.44,14.80 210.56,15.29 210.67,14.70 210.79,14.12 210.91,14.44 211.02,13.95 211.14,13.31 211.26,13.07 211.37,12.74 211.49,13.41 211.61,13.64 211.72,13.94 211.84,13.50 211.96,13.50 212.07,12.80 212.19,12.45 212.30,12.19 212.42,11.98 212.54,10.84 212.65,10.74 212.77,9.62 212.89,9.85 213.00,9.41 213.12,10.16 213.24,11.01 213.35,10.52 213.47,10.79 213.59,10.60 213.70,9.50 213.82,9.71 213.94,10.04 214.05,9.09 214.17,9.34 214.29,9.75 214.40,8.78 214.52,10.16 214.64,10.28 214.75,10.41 214.87,9.09 214.99,9.33 215.10,9.51 215.22,9.94 215.34,8.56 215.45,9.24 215.57,8.03 215.69,8.39 215.80,8.86 215.92,8.12 216.04,7.86 216.15,8.92 216.27,8.98 216.38,9.13 216.50,7.80 216.62,7.81 216.73,7.31 216.85,7.45 216.97,8.53 217.08,9.08 217.20,9.83 217.32,8.66 217.43,9.02 217.55,8.98 217.67,10.22 217.78,10.57 217.90,9.75 218.02,10.18 218.13,11.32 218.25,12.07 218.37,12.14 218.48,12.28 218.60,12.38 218.72,11.99 218.83,12.65 218.95,11.90 219.07,12.03 219.18,11.21 219.30,10.79 219.42,10.58 219.53,10.54 219.65,10.74 219.77,9.97 219.88,10.02 220.00,9.53 220.11,9.15 220.23,9.93 220.35,9.50 220.46,9.02 220.58,7.99 220.70,7.70 220.81,7.51 220.93,7.36 221.05,7.23 221.16,6.25 221.28,6.51 221.40,6.15 221.51,6.96 221.63,7.08 221.75,8.11 221.86,9.66 221.98,10.15 222.10,10.04 222.21,10.42 222.33,9.75 222.45,9.31 222.56,9.23 222.68,9.12 222.80,8.30 222.91,8.37 223.03,7.70 223.15,6.93 223.26,47.04 223.38,45.72 223.50,46.03 223.61,46.03 223.73,46.03 223.85,46.03 223.96,45.72 224.08,45.72 224.19,45.72 224.31,46.89 224.43,46.89 224.54,46.89 224.66,46.89 224.78,47.75 224.89,47.75 225.01,47.75 225.13,47.96 225.24,47.96 225.36,47.96 225.48,48.18 225.59,48.18 225.71,48.18 225.83,48.72 225.94,48.72 226.06,48.72 226.18,51.12 226.29,51.12 226.41,51.12 226.53,56.00 226.64,53.84 226.76,53.84 226.88,53.84 226.99,51.71 227.11,51.71 227.23,51.71 227.34,50.74 227.46,50.74 227.58,50.74 227.69,51.89 227.81,51.89 227.92,54.14 228.04,54.14 228.16,51.09 228.27,51.09 228.39,53.39 228.51,53.39 228.62,51.16 228.74,51.16 228.86,53.20 228.97,53.20 229.09,53.20 229.21,51.89 229.32,51.89 229.44,51.89 229.56,51.13 229.67,53.43 229.79,53.43 229.91,53.50 230.02,53.50 230.14,53.71 230.26,53.71 230.37,53.71 230.49,53.50 230.61,53.50 230.72,53.50 230.84,53.30 230.96,53.30 231.07,53.21 231.19,54.03 231.31,54.03 231.42,53.85 231.54,53.85 231.66,53.73 231.77,53.73 231.89,52.12 232.00,52.58 232.12,52.58 232.24,52.58 232.35,53.06 232.47,53.06 232.59,53.10 232.70,53.10 232.82,53.10 232.94,52.80 233.05,52.80 233.17,52.59 233.29,52.59 233.40,52.59 233.52,52.08 233.64,52.08 233.75,48.59 233.87,48.11 233.99,48.11 234.10,50.97 234.22,49.56 234.34,49.56 234.45,49.14 234.57,49.14 234.69,49.14 234.80,48.63 234.92,48.63 235.04,48.63 235.15,49.78 235.27,46.00 235.39,46.00 235.50,46.00 235.62,46.20 235.73,46.20 235.85,46.20 235.97,46.20 236.08,44.71 236.20,44.71 236.32,47.00 236.43,44.29 236.55,44.29 236.67,44.29 236.78,44.29 236.90,41.46 237.02,44.47 237.13,44.47 237.25,42.40 237.37,42.40 237.48,42.40 237.60,46.40 237.72,44.59 237.83,44.59 237.95,44.59 238.07,42.48 238.18,42.48 238.30,42.48 238.42,42.57 238.53,42.57 238.65,42.57 238.77,43.55 238.88,43.55 239.00,44.85 239.12,42.77 239.23,42.77 239.35,42.77 239.47,42.77 239.58,43.24 239.70,43.24 239.81,43.24 239.93,43.24 240.05,42.35 240.16,42.35 240.28,44.25 240.40,44.25 240.51,44.25 240.63,43.57 240.75,43.57 240.86,42.53 240.98,42.53 241.10,42.53 241.21,44.82 241.33,44.82 241.45,43.73 241.56,43.73 241.68,43.73 241.80,43.47 241.91,43.47 242.03,43.47 242.15,43.47 242.26,42.34 242.38,43.75 242.50,43.75 242.61,40.66 242.73,40.66 242.85,40.66 242.96,39.70 243.08,39.70 243.20,39.75 243.31,39.75 243.43,42.91 243.54,44.09 243.66,44.09 243.78,44.09 243.89,45.44 244.01,45.44 244.13,41.04 244.24,41.04 244.36,42.50 244.48,37.72 244.59,37.72 244.71,37.72 244.83,39.93 244.94,35.03 245.06,35.03 245.18,35.03 245.29,38.23 245.41,38.23 245.53,34.24 245.64,34.24 245.76,37.38 245.88,37.38 245.99,32.79 246.11,35.95 246.23,35.95 246.34,35.95 246.46,39.42 246.58,38.07 246.69,38.07 246.81,38.07 246.93,38.07 247.04,39.06 247.16,39.06 247.28,39.06 247.39,35.94 247.51,35.94 247.62,38.87 247.74,38.87 247.86,36.30 247.97,36.30 248.09,36.30 248.21,38.78 248.32,35.95 248.44,35.95 248.56,37.24 248.67,37.24 248.79,34.25 248.91,34.25 249.02,36.51 249.14,36.51 249.26,35.84 249.37,35.84 249.49,35.84 249.61,33.87 249.72,33.87 249.84,33.87 249.96,36.68 250.07,36.68 250.19,36.63 250.31,38.36 250.42,38.36 250.54,37.60 250.66,37.60 250.77,37.60 250.89,38.54 251.01,38.54 251.12,38.54 251.24,38.49 251.35,38.49 251.47,38.49 251.59,35.83 251.70,35.83 251.82,36.41 251.94,35.30 252.05,35.30 252.17,34.96 252.29,33.80 252.40,33.80 252.52,33.80 252.64,32.80 252.75,34.27 252.87,34.27 252.99,34.27 253.10,34.27 253.22,34.59 253.34,34.59 253.45,31.91 253.57,31.91 253.69,31.91 253.80,34.14 253.92,31.46 254.04,31.46 254.15,31.46 254.27,31.27 254.39,31.27 254.50,31.27 254.62,31.55 254.74,31.55 254.85,31.07 254.97,31.07 255.09,36.36 255.20,35.64 255.32,35.64 255.43,35.64 255.55,36.09 255.67,36.09 255.78,34.43 255.90,34.43 256.02,34.43 256.13,31.87 256.25,31.87 256.37,31.87 256.48,31.87 256.60,33.19 256.72,33.19 256.83,33.19 256.95,32.93 257.07,32.93 257.18,32.93 257.30,30.84 257.42,30.84 257.53,30.05 257.65,30.05 257.77,30.05 257.88,30.27 258.00,30.27 258.12,30.27 258.23,31.25 258.35,29.23 258.47,29.23 258.58,29.23 258.70,29.23 258.82,30.52 258.93,30.52 259.05,30.52 259.16,29.65 259.28,29.65 259.40,30.36 259.51,32.64 259.63,32.64 259.75,31.51 259.86,31.51 259.98,28.69 260.10,28.69 260.21,28.69 260.33,31.16 260.45,31.16 260.56,31.16 260.68,32.23 260.80,32.23 260.91,32.23 261.03,33.75 261.15,32.12 261.26,32.12 261.38,32.12 261.50,31.59 261.61,31.59 261.73,31.59 261.85,28.31 261.96,28.31 262.08,28.31 262.20,28.31 262.31,29.31 262.43,29.31 262.55,29.74 262.66,29.74 262.78,29.74 262.90,29.74 263.01,29.60 263.13,29.60 263.24,29.60 263.36,30.28 263.48,30.28 263.59,27.46 263.71,27.46 263.83,27.46 263.94,25.55 264.06,25.55 264.18,28.11 264.29,28.11 264.41,28.11 264.53,27.61 264.64,27.61 264.76,27.61 264.88,27.68 264.99,27.68 265.11,31.33 265.23,31.14 265.34,31.14 265.46,31.14 265.58,30.82 265.69,30.82 265.81,29.38 265.93,29.23 266.04,29.23 266.16,29.23 266.28,26.83 266.39,26.83 266.51,26.83 266.63,27.05 266.74,27.05 266.86,27.91 266.97,27.91 267.09,25.90 267.21,25.90 267.32,27.02 267.44,27.02 267.56,26.06 267.67,26.06 267.79,26.06 267.91,23.62 268.02,23.62 268.14,23.62 268.26,21.67 268.37,24.92 268.49,24.92 268.61,22.58 268.72,22.58 268.84,22.58 268.96,20.18 269.07,20.18 269.19,20.18 269.31,20.12 269.42,20.12 269.54,20.12 269.66,20.12 269.77,19.90 269.89,19.90 270.01,19.90 270.12,20.07 270.24,20.07 270.36,20.07 270.47,17.86 270.59,17.86 270.70,17.86 270.82,20.09 270.94,20.09 271.05,20.09 271.17,20.09 271.29,19.74 271.40,19.74 271.52,19.74 271.64,21.95 271.75,21.95 271.87,21.95 271.99,22.87 272.10,25.35 272.22,25.35 272.34,24.39 272.45,21.50 272.57,21.50 272.69,21.84 272.80,21.84 272.92,21.84 273.04,23.10 273.15,23.10 273.27,23.10 273.39,23.10 273.50,21.60 273.62,21.60 273.74,21.60 273.85,23.37 273.97,20.27 274.09,20.27 274.20,20.27 274.32,20.27 274.44,19.77 274.55,19.77 274.67,16.92 274.78,16.92 274.90,16.92 275.02,15.31 275.13,15.31 275.25,15.31 275.37,14.43 275.48,14.43 275.60,12.99 275.72,12.99 275.83,12.99 275.95,12.86 276.07,12.86 276.18,12.86 276.30,13.15 276.42,13.15 276.53,9.32 276.65,9.49 276.77,9.49 276.88,10.69 277.00,10.69 277.12,10.69 277.23,11.95 277.35,14.50 277.47,14.50 277.58,14.50 277.70,16.66 277.82,14.29 277.93,14.29 278.05,14.29 278.17,12.41 278.28,12.41 278.40,12.09 278.51,12.09 278.63,14.32 278.75,14.32 278.86,14.32 278.98,14.32 279.10,14.81 279.21,14.81 279.33,14.81 279.45,16.26 279.56,16.26 279.68,16.26 279.80,15.15 279.91,15.15 280.03,15.15 280.15,14.48 280.26,14.48 280.38,14.48 280.50,14.26 280.61,14.26 280.73,14.26 280.85,14.26 280.96,15.16 281.08,15.16 281.20,15.16 281.31,15.97 281.43,15.97 281.55,15.97 281.66,16.87 281.78,16.87 281.90,16.87 282.01,16.05 282.13,16.05 282.25,16.05 282.36,16.05 282.48,15.72 282.59,15.72 282.71,15.72 282.83,13.84 282.94,13.84 283.06,13.84 283.18,13.46 283.29,13.46 283.41,13.46 283.53,13.55 283.64,14.83 283.76,14.83 283.88,14.83 283.99,12.35 284.11,13.58 284.23,13.58 284.34,12.77 284.46,12.77 284.58,12.77 284.69,13.50 284.81,13.50 284.93,13.50 285.04,11.84 285.16,11.84 285.28,11.84 285.39,10.99 285.51,10.99 285.63,8.47 285.74,8.34 285.86,8.34 285.98,8.34 286.09,9.89 286.21,9.89 286.32,10.64 286.44,10.64 286.56,6.89 286.67,7.23 286.79,7.23 286.91,7.23 287.02,7.87 287.14,7.87 287.26,7.87 287.37,9.35 287.49,9.35 287.61,10.31 287.72,4.93 287.84,4.93 287.96,5.84 288.07,5.84 288.19,5.84 288.31,7.11 288.42,7.11 288.54,8.45 288.66,8.45 288.77,4.00 288.89,6.88 289.01,6.88 289.12,6.88 289.24,8.87 289.36,5.27 289.47,5.27 289.59,5.27 289.71,7.66 289.82,7.66 289.94,5.59 290.06,7.42 290.17,7.42 290.29,7.42 290.40,9.15 290.52,9.15 290.64,6.56 290.75,6.56 290.87,10.03 290.99,10.03 291.10,10.03 291.22,11.80 291.34,10.03 291.45,11.70 291.57,11.70 291.69,11.70 291.80,12.08 291.92,12.08 292.04,12.08 292.15,10.96 292.27,10.96 292.39,10.96 292.50,11.05 292.62,11.05 292.74,11.05 292.85,8.84 292.97,8.84 293.09,8.84 293.20,7.46 293.32,7.46 293.44,6.37 293.55,6.37 293.67,6.37 293.79,5.67 293.90,5.67 294.02,5.67 294.13,5.91 294.25,5.91 294.37,5.91 294.48,5.79 294.60,5.79 294.72,7.97 294.83,7.97 294.95,9.39 295.07,7.97 295.18,10.10 295.30,10.10 295.42,10.10 295.53,10.51 295.65,8.37 295.77,8.37 295.88,8.76 296.00,8.76" />
</svg>