<svg width="300" height="60" xmlns="http://www.w3.org/2000/svg">
  <polyline fill="rgba(255,200,0,0.3)" stroke="#ffbb00" stroke-width="2" points="4.00,16.87 4.82,16.91 5.64,15.90 6.46,15.35 7.28,15.97 8.10,17.74 8.92,19.62 9.74,21.68 10.56,25.00 11.38,26.82 12.20,29.96 13.02,31.82 13.84,33.91 14.66,34.76 15.48,35.49 16.30,36.41 17.12,37.01 17.94,37.45 18.76,37.83 19.58,38.68 20.40,39.25 21.22,39.09 22.04,38.30 22.87,37.06 23.69,37.01 24.51,37.53 25.33,37.18 26.15,38.42 26.97,40.56 27.79,42.98 28.61,45.11 29.43,45.99 30.25,46.67 31.07,46.68 31.89,46.41 32.71,46.13 33.53,46.49 34.35,47.01 35.17,47.83 35.99,48.73 36.81,50.61 37.63,51.16 38.45,51.33 39.27,51.36 40.09,51.54 40.91,52.10 41.73,53.04 42.55,54.89 43.37,54.62 44.19,54.20 45.01,53.95 45.83,53.68 46.65,53.33 47.47,53.37 48.29,52.89 49.11,52.71 49.93,52.01 50.75,51.34 51.57,52.12 52.39,51.00 53.21,49.61 54.03,48.87 54.85,49.21 55.67,49.55 56.49,49.02 57.31,48.65 58.13,47.90 58.96,47.60 59.78,47.78 60.60,48.84 61.42,49.42 62.24,48.90 63.06,48.54 63.88,47.23 64.70,46.65 65.52,46.18 66.34,44.02 67.16,44.10 67.98,43.64 68.80,42.60 69.62,41.92 70.44,40.43 71.26,39.81 72.08,38.25 72.90,36.54 73.72,35.45 74.54,34.85 75.36,34.73 76.18,35.20 77.00,36.15 77.82,36.84 78.64,35.84 79.46,35.54 80.28,36.06 81.10,36.37 81.92,35.98 82.74,36.92 83.56,37.78 84.38,37.66 85.20,37.58 86.02,37.03 86.84,36.63 87.66,36.39 88.48,35.75 89.30,36.00 90.12,35.15 90.94,33.28 91.76,30.85 92.58,29.04 93.40,28.23 94.22,28.54 95.04,30.48 95.87,33.19 96.69,35.21 97.51,38.71 98.33,41.10 99.15,42.86 99.97,43.29 100.79,44.83 101.61,15.02 102.43,15.69 103.25,18.04 104.07,13.84 104.89,12.83 105.71,16.98 106.53,17.86 107.35,22.71 108.17,24.88 108.99,29.68 109.81,30.83 110.63,30.83 111.45,30.28 112.27,34.11 113.09,32.96 113.91,36.74 114.73,35.42 115.55,38.60 116.37,38.46 117.19,35.56 118.01,40.77 118.83,39.39 119.65,37.13 120.47,37.13 121.29,34.17 122.11,36.80 122.93,38.23 123.75,35.83 124.57,40.17 125.39,41.88 126.21,46.22 127.03,46.00 127.85,47.85 128.67,48.03 129.49,46.91 130.31,46.54 131.13,47.09 131.96,47.09 132.78,48.11 133.60,46.08 134.42,49.08 135.24,51.48 136.06,49.72 136.88,49.03 137.70,52.58 138.52,49.68 139.34,52.72 140.16,56.00 140.98,52.03 141.80,51.54 142.62,55.42 143.44,51.17 144.26,50.71 145.08,51.64 145.90,51.75 146.72,51.75 147.54,51.66 148.36,50.83 149.18,54.61 150.00,50.09 150.82,48.09 151.64,46.48 152.46,50.35 153.28,47.40 154.10,46.89 154.92,47.55 155.74,43.99 156.56,47.18 157.38,45.79 158.20,49.49 159.02,47.87 159.84,47.87 160.66,46.21 161.48,43.93 162.30,46.93 163.12,44.57 163.94,47.07 164.76,41.90 165.58,44.67 166.40,44.67 167.22,39.59 168.04,40.01 168.87,39.91 169.69,36.37 170.51,36.83 171.33,35.54 172.15,33.42 172.97,35.08 173.79,33.49 174.61,37.46 175.43,35.06 176.25,35.48 177.07,31.18 177.89,35.71 178.71,35.98 179.53,36.01 180.35,39.66 181.17,35.09 181.99,33.66 182.81,37.07 183.63,34.49 184.45,38.14 185.27,37.77 186.09,34.67 186.91,37.77 187.73,34.03 188.55,33.95 189.37,28.65 190.19,31.00 191.01,26.20 191.83,25.46 192.65,31.88 193.47,33.45 194.29,34.60 195.11,40.65 195.93,41.48 196.75,41.67 197.57,44.16 198.39,44.53 199.21,6.17 200.03,5.34 200.85,5.34 201.67,5.34 202.49,5.34 203.31,17.15 204.13,4.00 204.96,4.00 205.78,20.11 206.60,20.11 207.42,20.11 208.24,20.11 209.06,19.12 209.88,19.12 210.70,19.12 211.52,31.26 212.34,31.26 213.16,31.26 213.98,31.21 214.80,31.21 215.62,31.21 216.44,31.21 217.26,25.75 218.08,25.75 218.90,25.75 219.72,25.75 220.54,33.50 221.36,33.50 222.18,33.50 223.00,32.72 223.82,32.72 224.64,32.72 225.46,42.32 226.28,42.32 227.10,42.32 227.92,42.18 228.74,42.18 229.56,42.18 230.38,42.18 231.20,46.24 232.02,46.24 232.84,46.24 233.66,42.17 234.48,42.17 235.30,42.17 236.12,42.17 236.94,46.70 237.76,46.70 238.58,46.70 239.40,33.96 240.22,46.65 241.04,46.65 241.87,46.65 242.69,33.68 243.51,47.02 244.33,47.02 245.15,47.02 245.97,32.39 246.79,44.30 247.61,44.30 248.43,44.30 249.25,29.62 250.07,42.96 250.89,42.96 251.71,42.96 252.53,42.96 253.35,33.77 254.17,33.77 254.99,33.77 255.81,44.16 256.63,44.16 257.45,44.16 258.27,28.01 259.09,38.03 259.91,38.03 260.73,38.03 261.55,47.16 262.37,29.49 263.19,29.49 264.01,29.49 264.83,34.06 265.65,34.06 266.47,34.06 267.29,36.09 268.11,36.09 268.93,25.52 269.75,25.52 270.57,35.63 271.39,28.93 272.21,28.93 273.03,28.93 273.85,19.01 274.67,19.01 275.49,31.15 276.31,31.15 277.13,16.94 277.96,29.49 278.78,29.49 279.60,29.49 280.42,29.49 281.24,24.21 282.06,24.21 282.88,24.21 283.70,24.21 284.52,28.50 285.34,28.50 286.16,28.50 286.98,11.52 287.80,11.52 288.62,19.27 289.44,19.27 290.26,19.27 291.08,22.74 291.90,22.74 292.72,39.12 293.54,41.47 294.36,41.47 295.18,41.47 296.00,44.80" />
</svg>