<svg width="300" height="60" xmlns="http://www.w3.org/2000/svg">
  <polyline fill="rgba(255,200,0,0.3)" stroke="#ffbb00" stroke-width="2" points="4.00,50.30 11.68,48.25 19.37,43.85 27.05,37.03 34.74,34.67 42.42,32.42 50.11,27.94 57.79,24.64 65.47,24.19 73.16,20.07 80.84,16.02 88.53,11.41 96.21,4.00 103.89,53.30 111.58,47.90 119.26,40.00 126.95,35.48 134.63,34.64 142.32,33.89 150.00,29.87 157.68,29.49 165.37,20.46 173.05,18.70 180.74,16.32 188.42,11.55 196.11,8.15 203.79,56.00 211.47,39.94 219.16,39.94 226.84,39.94 234.53,33.92 242.21,33.92 249.89,33.92 257.58,28.77 265.26,28.77 272.95,28.77 280.63,22.37 288.32,22.37 296.00,12.96" />
</svg>