<svg width="300" height="60" xmlns="http://www.w3.org/2000/svg">
  <polyline fill="rgba(255,200,0,0.3)" stroke="#ffbb00" stroke-width="2" points="4.00,12.58 5.71,9.72 7.42,7.17 9.12,6.11 10.83,6.83 12.54,7.79 14.25,9.90 15.95,12.07 17.66,17.33 19.37,23.06 21.08,28.44 22.78,35.62 24.49,33.45 26.20,36.37 27.91,33.46 29.61,33.32 31.32,34.33 33.03,35.29 34.74,35.64 36.44,33.77 38.15,31.67 39.86,28.93 41.57,26.07 43.27,22.98 44.98,20.64 46.69,19.06 48.40,19.03 50.11,19.00 51.81,19.21 53.52,20.62 55.23,21.38 56.94,22.04 58.64,23.12 60.35,25.06 62.06,27.58 63.77,31.66 65.47,36.85 67.18,41.07 68.89,43.76 70.60,45.99 72.30,47.11 74.01,49.01 75.72,51.46 77.43,13.46 79.13,10.54 80.84,7.30 82.55,7.80 84.26,7.60 85.96,9.35 87.67,10.36 89.38,12.61 91.09,17.11 92.80,23.66 94.50,29.00 96.21,36.19 97.92,35.39 99.63,37.30 101.33,34.69 103.04,34.45 104.75,34.95 106.46,36.36 108.16,37.52 109.87,34.70 111.58,32.08 113.29,29.86 114.99,26.94 116.70,23.71 118.41,21.69 120.12,19.78 121.82,20.12 123.53,19.32 125.24,19.83 126.95,20.94 128.65,21.75 130.36,22.54 132.07,23.85 133.78,25.46 135.49,27.57 137.19,31.90 138.90,37.12 140.61,41.26 142.32,45.39 144.02,46.78 145.73,47.69 147.44,49.50 149.15,50.45 150.85,12.62 152.56,11.41 154.27,8.19 155.98,6.78 157.68,7.48 159.39,9.80 161.10,8.29 162.81,12.93 164.51,18.34 166.22,23.88 167.93,30.33 169.64,34.47 171.35,37.89 173.05,35.50 174.76,35.50 176.47,33.59 178.18,33.89 179.88,35.81 181.59,34.38 183.30,35.59 185.01,31.15 186.71,30.55 188.42,24.25 190.13,23.75 191.84,18.21 193.54,19.52 195.25,17.10 196.96,17.60 198.67,13.67 200.37,19.62 202.08,16.59 203.79,23.01 205.50,21.19 207.20,20.69 208.91,22.10 210.62,31.77 212.33,36.01 214.04,40.14 215.74,43.47 217.45,46.05 219.16,48.47 220.87,51.29 222.57,53.81 224.28,8.84 225.99,8.84 227.70,4.00 229.40,4.00 231.11,4.00 232.82,14.89 234.53,14.89 236.23,14.89 237.94,31.22 239.65,31.22 241.36,31.22 243.06,42.30 244.77,42.30 246.48,42.30 248.19,42.30 249.89,33.84 251.60,33.84 253.31,33.84 255.02,35.53 256.73,35.53 258.43,28.37 260.14,19.70 261.85,19.70 263.56,19.70 265.26,17.69 266.97,17.69 268.68,4.29 270.39,13.66 272.09,13.66 273.80,13.66 275.51,9.73 277.22,9.73 278.92,9.73 280.63,19.61 282.34,19.61 284.05,31.61 285.75,42.39 287.46,42.39 289.17,42.39 290.88,52.57 292.58,52.57 294.29,52.57 296.00,56.00" />
</svg>