<svg width="300" height="60" xmlns="http://www.w3.org/2000/svg">
  <polyline fill="rgba(255,200,0,0.3)" stroke="#ffbb00" stroke-width="2" points="4.00,42.70 4.20,42.49 4.40,41.97 4.60,41.64 4.79,41.58 4.99,41.44 5.19,41.29 5.39,41.07 5.59,40.80 5.79,40.56 5.99,40.43 6.18,39.90 6.38,39.37 6.58,39.08 6.78,38.63 6.98,38.20 7.18,38.01 7.37,37.73 7.57,37.66 7.77,37.44 7.97,37.31 8.17,37.30 8.37,37.38 8.57,37.59 8.76,37.86 8.96,38.20 9.16,38.48 9.36,38.84 9.56,38.82 9.76,39.11 9.96,39.11 10.15,39.17 10.35,39.17 10.55,39.21 10.75,39.73 10.95,40.14 11.15,40.16 11.34,40.09 11.54,39.87 11.74,39.55 11.94,38.95 12.14,38.97 12.34,38.59 12.54,38.10 12.73,37.48 12.93,37.34 13.13,36.93 13.33,36.26 13.53,35.88 13.73,35.38 13.93,34.99 14.12,34.58 14.32,33.75 14.52,33.13 14.72,32.52 14.92,32.23 15.12,32.09 15.31,32.03 15.51,31.75 15.71,31.70 15.91,31.64 16.11,31.46 16.31,31.37 16.51,31.28 16.70,31.20 16.90,31.03 17.10,30.86 17.30,30.74 17.50,30.88 17.70,31.24 17.90,31.71 18.09,32.30 18.29,32.74 18.49,33.14 18.69,33.54 18.89,34.00 19.09,34.53 19.28,35.12 19.48,35.59 19.68,35.82 19.88,36.14 20.08,36.42 20.28,36.51 20.48,36.71 20.67,36.86 20.87,36.98 21.07,37.15 21.27,37.42 21.47,37.73 21.67,38.25 21.87,38.52 22.06,39.18 22.26,39.58 22.46,40.00 22.66,40.23 22.86,40.39 23.06,40.52 23.25,40.66 23.45,40.79 23.65,40.92 23.85,40.85 24.05,40.70 24.25,40.64 24.45,40.63 24.64,40.93 24.84,41.41 25.04,42.23 25.24,42.42 25.44,42.55 25.64,42.30 25.84,42.28 26.03,42.08 26.23,41.87 26.43,41.82 26.63,41.76 26.83,41.81 27.03,41.79 27.23,41.82 27.42,41.69 27.62,41.48 27.82,40.98 28.02,40.76 28.22,40.56 28.42,40.30 28.61,39.94 28.81,39.72 29.01,39.54 29.21,39.07 29.41,38.33 29.61,37.68 29.81,36.90 30.00,36.64 30.20,36.60 30.40,36.69 30.60,36.23 30.80,35.65 31.00,35.22 31.20,34.70 31.39,34.29 31.59,33.88 31.79,33.20 31.99,32.99 32.19,32.79 32.39,32.56 32.58,32.30 32.78,30.97 32.98,30.60 33.18,30.37 33.38,30.00 33.58,29.36 33.78,28.84 33.97,27.76 34.17,26.99 34.37,26.62 34.57,26.71 34.77,26.77 34.97,26.47 35.17,25.94 35.36,25.52 35.56,25.60 35.76,24.74 35.96,24.21 36.16,23.27 36.36,22.41 36.55,21.82 36.75,21.50 36.95,21.04 37.15,21.13 37.35,21.07 37.55,20.97 37.75,21.26 37.94,21.20 38.14,21.07 38.34,20.66 38.54,20.07 38.74,19.55 38.94,18.83 39.14,18.50 39.33,18.21 39.53,18.04 39.73,17.95 39.93,18.08 40.13,18.32 40.33,18.19 40.52,18.02 40.72,18.06 40.92,17.86 41.12,17.51 41.32,17.04 41.52,16.47 41.72,15.81 41.91,15.05 42.11,14.66 42.31,15.42 42.51,15.34 42.71,14.87 42.91,14.35 43.11,14.03 43.30,13.81 43.50,13.72 43.70,13.73 43.90,13.92 44.10,13.77 44.30,13.64 44.49,13.40 44.69,13.14 44.89,12.59 45.09,11.98 45.29,11.55 45.49,11.28 45.69,10.97 45.88,10.67 46.08,10.35 46.28,10.25 46.48,10.24 46.68,10.04 46.88,9.91 47.08,9.59 47.27,9.45 47.47,9.49 47.67,9.19 47.87,9.18 48.07,8.88 48.27,8.79 48.46,8.50 48.66,8.54 48.86,8.42 49.06,8.02 49.26,7.54 49.46,7.16 49.66,6.90 49.85,6.53 50.05,6.17 50.25,5.96 50.45,5.67 50.65,5.34 50.85,5.21 51.05,4.98 51.24,4.33 51.44,4.30 51.64,4.25 51.84,4.43 52.04,4.62 52.24,5.15 52.44,5.65 52.63,5.81 52.83,6.04 53.03,6.48 53.23,6.90 53.43,7.64 53.63,8.46 53.82,9.00 54.02,9.56 54.22,10.26 54.42,10.77 54.62,11.47 54.82,12.14 55.02,12.68 55.21,13.39 55.41,13.89 55.61,14.35 55.81,14.88 56.01,15.39 56.21,15.89 56.41,16.52 56.60,16.55 56.80,16.52 57.00,17.07 57.20,17.65 57.40,18.25 57.60,18.77 57.79,19.10 57.99,19.51 58.19,20.12 58.39,20.86 58.59,21.61 58.79,22.83 58.99,23.62 59.18,24.45 59.38,25.00 59.58,25.38 59.78,25.56 59.98,26.06 60.18,26.25 60.38,26.09 60.57,26.24 60.77,26.28 60.97,27.02 61.17,27.70 61.37,28.56 61.57,29.18 61.76,29.45 61.96,30.44 62.16,31.68 62.36,32.59 62.56,33.00 62.76,33.30 62.96,33.40 63.15,33.61 63.35,34.40 63.55,35.17 63.75,35.81 63.95,36.39 64.15,37.32 64.35,38.11 64.54,38.90 64.74,39.65 64.94,40.58 65.14,41.51 65.34,42.53 65.54,43.46 65.73,44.60 65.93,44.39 66.13,44.20 66.33,44.69 66.53,45.20 66.73,45.64 66.93,46.13 67.12,46.65 67.32,47.05 67.52,47.59 67.72,47.87 67.92,48.18 68.12,48.53 68.32,48.68 68.51,48.56 68.71,48.57 68.91,48.74 69.11,49.02 69.31,49.43 69.51,49.87 69.70,50.06 69.90,50.48 70.10,50.80 70.30,51.06 70.50,51.26 70.70,51.55 70.90,51.82 71.09,52.02 71.29,52.15 71.49,52.35 71.69,52.50 71.89,52.69 72.09,53.04 72.29,53.35 72.48,53.59 72.68,53.71 72.88,53.64 73.08,53.69 73.28,53.80 73.48,54.05 73.68,54.24 73.87,54.48 74.07,55.72 74.27,55.64 74.47,55.54 74.67,55.51 74.87,55.52 75.06,55.54 75.26,55.56 75.46,55.63 75.66,55.66 75.86,55.63 76.06,55.44 76.26,55.23 76.45,55.00 76.65,54.87 76.85,54.89 77.05,42.92 77.25,42.75 77.45,42.22 77.65,41.94 77.84,41.81 78.04,41.67 78.24,41.47 78.44,41.28 78.64,41.00 78.84,40.77 79.03,40.56 79.23,40.08 79.43,39.62 79.63,39.23 79.83,38.78 80.03,38.40 80.23,38.21 80.42,37.85 80.62,37.82 80.82,37.60 81.02,37.43 81.22,37.44 81.42,37.46 81.62,37.66 81.81,37.99 82.01,38.28 82.21,38.64 82.41,38.91 82.61,39.07 82.81,39.22 83.00,39.27 83.20,39.26 83.40,39.20 83.60,39.34 83.80,39.81 84.00,40.32 84.20,40.35 84.39,40.27 84.59,40.03 84.79,39.69 84.99,39.31 85.19,39.06 85.39,38.72 85.59,38.26 85.78,37.70 85.98,37.52 86.18,37.09 86.38,36.55 86.58,36.18 86.78,35.62 86.97,35.15 87.17,34.63 87.37,33.89 87.57,33.25 87.77,32.74 87.97,32.37 88.17,32.12 88.36,32.00 88.56,31.84 88.76,31.82 88.96,31.71 89.16,31.58 89.36,31.49 89.56,31.41 89.75,31.44 89.95,31.13 90.15,30.96 90.35,30.94 90.55,31.09 90.75,31.38 90.94,31.77 91.14,32.44 91.34,32.93 91.54,33.40 91.74,33.71 91.94,34.13 92.14,34.68 92.33,35.22 92.53,35.73 92.73,35.97 92.93,36.30 93.13,36.59 93.33,36.84 93.53,36.85 93.72,37.02 93.92,37.25 94.12,37.24 94.32,37.55 94.52,37.91 94.72,38.35 94.92,38.70 95.11,39.34 95.31,39.67 95.51,40.03 95.71,40.32 95.91,40.56 96.11,40.64 96.30,40.75 96.50,40.91 96.70,41.05 96.90,40.96 97.10,41.09 97.30,40.72 97.50,40.74 97.69,41.16 97.89,41.68 98.09,42.36 98.29,42.55 98.49,42.74 98.69,42.54 98.89,42.48 99.08,42.25 99.28,42.02 99.48,41.95 99.68,41.92 99.88,41.99 100.08,42.01 100.27,41.94 100.47,41.96 100.67,41.63 100.87,41.04 101.07,40.98 101.27,40.76 101.47,40.41 101.66,40.14 101.86,39.91 102.06,39.71 102.26,39.23 102.46,38.48 102.66,37.96 102.86,37.07 103.05,36.90 103.25,36.61 103.45,36.61 103.65,36.37 103.85,35.76 104.05,35.52 104.24,34.68 104.44,34.38 104.64,33.91 104.84,33.65 105.04,33.27 105.24,32.89 105.44,32.67 105.63,32.25 105.83,31.23 106.03,30.89 106.23,30.45 106.43,30.11 106.63,29.41 106.83,29.07 107.02,27.97 107.22,27.08 107.42,26.79 107.62,26.95 107.82,27.05 108.02,26.63 108.21,26.20 108.41,25.82 108.61,25.79 108.81,25.14 109.01,24.44 109.21,23.36 109.41,22.78 109.60,22.11 109.80,21.71 110.00,21.40 110.20,21.17 110.40,21.48 110.60,21.27 110.80,21.03 110.99,21.10 111.19,21.20 111.39,20.96 111.59,20.18 111.79,19.59 111.99,18.95 112.18,18.75 112.38,18.54 112.58,18.42 112.78,18.05 112.98,18.15 113.18,18.59 113.38,18.47 113.57,18.38 113.77,18.20 113.97,17.89 114.17,17.55 114.37,17.25 114.57,16.55 114.77,16.00 114.96,15.29 115.16,15.23 115.36,15.39 115.56,15.30 115.76,15.23 115.96,14.47 116.15,14.17 116.35,13.86 116.55,13.93 116.75,13.93 116.95,14.03 117.15,13.87 117.35,13.90 117.54,13.31 117.74,13.25 117.94,12.96 118.14,12.52 118.34,11.72 118.54,11.47 118.74,11.36 118.93,10.75 119.13,10.61 119.33,10.47 119.53,10.54 119.73,10.36 119.93,10.15 120.13,9.96 120.32,9.86 120.52,9.86 120.72,9.58 120.92,9.29 121.12,8.98 121.32,9.11 121.51,8.86 121.71,8.68 121.91,8.86 122.11,8.33 122.31,7.75 122.51,7.50 122.71,7.24 122.90,6.55 123.10,6.24 123.30,6.03 123.50,5.66 123.70,5.36 123.90,5.46 124.10,5.15 124.29,4.74 124.49,4.51 124.69,4.43 124.89,4.60 125.09,4.85 125.29,5.24 125.48,5.58 125.68,6.17 125.88,6.36 126.08,6.67 126.28,6.74 126.48,7.64 126.68,8.71 126.87,9.20 127.07,9.92 127.27,10.45 127.47,10.96 127.67,11.60 127.87,12.23 128.07,12.96 128.26,13.53 128.46,14.01 128.66,14.62 128.86,14.98 129.06,15.56 129.26,15.99 129.45,16.68 129.65,16.67 129.85,16.75 130.05,17.28 130.25,17.82 130.45,18.38 130.65,18.86 130.84,19.27 131.04,19.71 131.24,20.27 131.44,21.20 131.64,21.82 131.84,23.02 132.04,23.90 132.23,24.38 132.43,25.20 132.63,25.64 132.83,26.07 133.03,26.17 133.23,26.59 133.42,26.66 133.62,26.43 133.82,26.68 134.02,27.20 134.22,27.83 134.42,28.69 134.62,29.34 134.81,29.74 135.01,30.28 135.21,31.63 135.41,32.55 135.61,33.36 135.81,33.52 136.01,33.66 136.20,33.82 136.40,34.44 136.60,35.21 136.80,35.92 137.00,36.57 137.20,37.50 137.39,38.20 137.59,39.08 137.79,40.09 137.99,40.95 138.19,41.81 138.39,42.49 138.59,43.67 138.78,44.59 138.98,44.47 139.18,44.45 139.38,45.06 139.58,45.35 139.78,45.78 139.98,46.29 140.17,46.79 140.37,47.19 140.57,47.74 140.77,48.02 140.97,48.33 141.17,48.65 141.37,48.88 141.56,48.77 141.76,48.68 141.96,48.88 142.16,49.16 142.36,49.48 142.56,49.95 142.75,50.24 142.95,50.55 143.15,50.90 143.35,51.13 143.55,51.42 143.75,51.63 143.95,51.98 144.14,52.22 144.34,52.30 144.54,52.47 144.74,52.71 144.94,52.84 145.14,53.27 145.34,53.48 145.53,53.76 145.73,53.83 145.93,53.86 146.13,53.91 146.33,54.02 146.53,54.25 146.72,54.44 146.92,54.65 147.12,55.88 147.32,56.00 147.52,55.74 147.72,55.70 147.92,55.71 148.11,55.74 148.31,55.77 148.51,55.84 148.71,55.87 148.91,55.83 149.11,55.65 149.31,55.39 149.50,55.17 149.70,55.05 149.90,55.12 150.10,42.66 150.30,42.48 150.50,42.13 150.69,41.83 150.89,41.66 151.09,41.52 151.29,41.20 151.49,41.04 151.69,40.82 151.89,40.58 152.08,40.37 152.28,39.79 152.48,39.38 152.68,38.98 152.88,38.59 153.08,38.33 153.28,38.13 153.47,37.69 153.67,37.53 153.87,37.40 154.07,37.30 154.27,37.27 154.47,37.42 154.66,37.50 154.86,37.89 155.06,38.08 155.26,38.33 155.46,38.69 155.66,38.93 155.86,39.00 156.05,39.21 156.25,39.16 156.45,39.37 156.65,39.20 156.85,39.79 157.05,40.21 157.25,40.25 157.44,40.11 157.64,39.94 157.84,39.56 158.04,39.14 158.24,38.91 158.44,38.53 158.63,38.04 158.83,37.57 159.03,37.28 159.23,36.92 159.43,36.41 159.63,35.86 159.83,35.24 160.02,34.63 160.22,34.31 160.42,33.58 160.62,32.94 160.82,32.43 161.02,32.10 161.22,31.67 161.41,31.59 161.61,31.64 161.81,31.72 162.01,31.33 162.21,31.35 162.41,31.30 162.61,31.22 162.80,31.37 163.00,30.86 163.20,30.73 163.40,30.71 163.60,30.88 163.80,31.24 163.99,31.30 164.19,32.53 164.39,33.07 164.59,33.30 164.79,33.76 164.99,34.13 165.19,34.64 165.38,35.23 165.58,35.53 165.78,35.90 165.98,36.25 166.18,36.53 166.38,36.82 166.58,36.84 166.77,36.86 166.97,37.20 167.17,36.94 167.37,37.34 167.57,37.61 167.77,38.01 167.96,38.44 168.16,38.93 168.36,39.34 168.56,39.68 168.76,39.92 168.96,40.13 169.16,40.25 169.35,40.21 169.55,40.41 169.75,40.75 169.95,40.92 170.15,41.05 170.35,40.49 170.55,40.64 170.74,40.95 170.94,41.21 171.14,41.93 171.34,42.13 171.54,42.44 171.74,42.48 171.93,42.34 172.13,42.14 172.33,41.91 172.53,41.79 172.73,41.74 172.93,41.84 173.13,41.79 173.32,41.84 173.52,41.85 173.72,41.48 173.92,40.96 174.12,40.92 174.32,40.63 174.52,40.15 174.71,39.88 174.91,39.75 175.11,39.68 175.31,38.74 175.51,38.46 175.71,38.04 175.90,37.05 176.10,36.62 176.30,36.20 176.50,36.76 176.70,36.20 176.90,35.63 177.10,35.47 177.29,34.88 177.49,34.34 177.69,33.71 177.89,33.12 178.09,33.39 178.29,33.02 178.49,32.47 178.68,32.17 178.88,31.49 179.08,30.85 179.28,30.48 179.48,29.79 179.68,29.27 179.87,28.72 180.07,27.38 180.27,26.86 180.47,26.67 180.67,26.69 180.87,26.69 181.07,26.83 181.26,26.15 181.46,25.56 181.66,25.94 181.86,25.29 182.06,24.07 182.26,23.65 182.46,22.31 182.65,21.89 182.85,21.61 183.05,21.82 183.25,20.87 183.45,20.74 183.65,20.87 183.85,20.32 184.04,21.02 184.24,20.49 184.44,21.08 184.64,20.29 184.84,19.12 185.04,18.85 185.23,18.85 185.43,18.62 185.63,18.44 185.83,18.37 186.03,17.59 186.23,18.16 186.43,18.09 186.62,18.72 186.82,18.54 187.02,17.64 187.22,17.16 187.42,17.65 187.62,16.88 187.82,15.77 188.01,14.84 188.21,15.44 188.41,15.51 188.61,14.35 188.81,14.93 189.01,13.89 189.20,14.41 189.40,13.69 189.60,14.39 189.80,14.04 190.00,14.04 190.20,13.57 190.40,14.07 190.59,13.22 190.79,13.65 190.99,12.47 191.19,12.53 191.39,11.18 191.59,11.43 191.79,11.78 191.98,10.50 192.18,10.82 192.38,9.80 192.58,10.30 192.78,10.68 192.98,9.71 193.17,9.88 193.37,10.27 193.57,9.33 193.77,9.59 193.97,9.78 194.17,8.54 194.37,8.69 194.56,8.96 194.76,9.25 194.96,9.34 195.16,7.89 195.36,7.79 195.56,7.58 195.76,7.29 195.95,6.98 196.15,6.69 196.35,6.42 196.55,6.12 196.75,5.78 196.95,5.45 197.14,5.17 197.34,5.00 197.54,4.08 197.74,4.28 197.94,4.47 198.14,4.71 198.34,4.91 198.53,4.82 198.73,5.75 198.93,5.53 199.13,6.77 199.33,6.61 199.53,7.67 199.73,8.66 199.92,8.41 200.12,9.48 200.32,10.16 200.52,10.91 200.72,11.38 200.92,12.00 201.11,12.37 201.31,13.03 201.51,13.60 201.71,14.50 201.91,14.83 202.11,15.64 202.31,15.89 202.50,16.22 202.70,16.26 202.90,16.70 203.10,17.12 203.30,17.76 203.50,18.45 203.70,18.45 203.89,19.04 204.09,19.64 204.29,20.06 204.49,20.78 204.69,21.31 204.89,22.17 205.08,23.92 205.28,24.74 205.48,25.43 205.68,25.95 205.88,26.33 206.08,25.41 206.28,26.57 206.47,26.96 206.67,26.05 206.87,26.03 207.07,26.89 207.27,27.80 207.47,28.13 207.67,28.59 207.86,29.10 208.06,29.82 208.26,30.87 208.46,32.08 208.66,32.92 208.86,33.13 209.06,33.00 209.25,33.88 209.45,34.03 209.65,34.71 209.85,35.57 210.05,36.14 210.25,37.53 210.44,38.26 210.64,38.91 210.84,39.85 211.04,41.22 211.24,41.81 211.44,41.81 211.64,43.25 211.83,44.35 212.03,43.93 212.23,43.93 212.43,44.71 212.63,45.29 212.83,45.20 213.03,46.10 213.22,46.78 213.42,46.78 213.62,47.37 213.82,47.90 214.02,48.11 214.22,48.56 214.41,48.46 214.61,48.78 214.81,48.44 215.01,48.68 215.21,49.09 215.41,49.14 215.61,49.58 215.80,49.97 216.00,50.27 216.20,50.86 216.40,51.06 216.60,51.26 216.80,51.46 217.00,51.68 217.19,52.03 217.39,52.29 217.59,52.44 217.79,52.57 217.99,52.71 218.19,52.95 218.38,53.19 218.58,53.59 218.78,53.66 218.98,53.69 219.18,53.74 219.38,53.81 219.58,53.97 219.77,54.33 219.97,54.86 220.17,55.67 220.37,55.74 220.57,55.59 220.77,55.56 220.97,55.57 221.16,55.56 221.36,55.60 221.56,55.64 221.76,55.70 221.96,55.61 222.16,55.44 222.35,55.24 222.55,55.08 222.75,54.93 222.95,54.92 223.15,42.70 223.35,42.70 223.55,42.14 223.74,42.14 223.94,42.14 224.14,41.46 224.34,41.46 224.54,40.84 224.74,40.84 224.94,40.84 225.13,40.18 225.33,40.18 225.53,39.40 225.73,39.40 225.93,39.40 226.13,38.44 226.32,38.44 226.52,37.67 226.72,37.67 226.92,37.67 227.12,37.20 227.32,37.20 227.52,37.55 227.71,37.60 227.91,37.60 228.11,37.60 228.31,37.60 228.51,38.51 228.71,38.51 228.91,38.51 229.10,39.20 229.30,39.20 229.50,39.76 229.70,39.76 229.90,40.07 230.10,40.07 230.30,40.07 230.49,40.07 230.69,40.22 230.89,39.50 231.09,39.50 231.29,39.50 231.49,38.13 231.68,38.48 231.88,38.48 232.08,36.98 232.28,36.98 232.48,36.98 232.68,35.34 232.88,35.84 233.07,35.84 233.27,33.97 233.47,33.97 233.67,33.97 233.87,32.35 234.07,32.35 234.27,31.47 234.46,31.47 234.66,31.47 234.86,31.32 235.06,31.32 235.26,31.32 235.46,31.30 235.65,31.30 235.85,32.06 236.05,31.03 236.25,31.03 236.45,30.86 236.65,30.86 236.85,30.86 237.04,31.76 237.24,31.76 237.44,33.29 237.64,33.29 237.84,33.29 238.04,34.17 238.24,34.17 238.43,34.17 238.63,34.95 238.83,34.95 239.03,34.95 239.23,36.25 239.43,36.25 239.62,36.25 239.82,37.07 240.02,37.07 240.22,36.64 240.42,36.64 240.62,37.51 240.82,37.51 241.01,37.51 241.21,38.79 241.41,38.79 241.61,38.79 241.81,39.23 242.01,39.23 242.21,39.23 242.40,38.79 242.60,39.78 242.80,40.23 243.00,40.23 243.20,40.23 243.40,40.85 243.59,40.85 243.79,40.85 243.99,41.69 244.19,41.69 244.39,40.90 244.59,42.21 244.79,42.21 244.98,42.21 245.18,42.23 245.38,42.12 245.58,42.12 245.78,41.66 245.98,41.66 246.18,41.66 246.37,41.93 246.57,41.46 246.77,41.46 246.97,41.46 247.17,40.11 247.37,40.11 247.56,39.02 247.76,39.02 247.96,39.02 248.16,38.23 248.36,38.23 248.56,38.23 248.76,37.30 248.95,37.30 249.15,36.00 249.35,36.00 249.55,36.00 249.75,34.74 249.95,34.74 250.15,36.46 250.34,34.76 250.54,34.76 250.74,34.76 250.94,32.82 251.14,33.35 251.34,33.35 251.54,33.35 251.73,31.59 251.93,31.59 252.13,31.59 252.33,30.04 252.53,30.04 252.73,28.86 252.92,28.86 253.12,28.86 253.32,28.28 253.52,28.28 253.72,28.28 253.92,28.28 254.12,28.40 254.31,26.35 254.51,26.35 254.71,27.90 254.91,27.90 255.11,25.11 255.31,24.23 255.51,24.23 255.70,24.23 255.90,23.54 256.10,23.54 256.30,21.02 256.50,21.02 256.70,22.33 256.89,20.41 257.09,20.41 257.29,20.41 257.49,20.41 257.69,20.10 257.89,20.10 258.09,20.10 258.28,20.10 258.48,19.61 258.68,19.61 258.88,19.61 259.08,19.51 259.28,19.51 259.48,16.90 259.67,18.67 259.87,18.67 260.07,18.67 260.27,15.91 260.47,17.52 260.67,17.52 260.86,17.52 261.06,14.05 261.26,15.63 261.46,15.63 261.66,15.63 261.86,15.63 262.06,13.87 262.25,13.87 262.45,13.87 262.65,15.61 262.85,15.61 263.05,15.61 263.25,11.75 263.45,13.90 263.64,13.90 263.84,13.90 264.04,14.87 264.24,14.87 264.44,10.78 264.64,11.44 264.83,11.44 265.03,11.44 265.23,11.44 265.43,12.43 265.63,12.43 265.83,12.43 266.03,9.63 266.22,9.63 266.42,9.63 266.62,10.62 266.82,10.62 267.02,10.62 267.22,11.40 267.42,11.40 267.61,11.40 267.81,12.17 268.01,12.17 268.21,7.70 268.41,7.70 268.61,7.55 268.80,7.55 269.00,7.55 269.20,6.70 269.40,6.70 269.60,6.70 269.80,5.81 270.00,5.81 270.19,5.81 270.39,5.16 270.59,5.16 270.79,5.16 270.99,4.97 271.19,4.97 271.39,4.97 271.58,4.00 271.78,5.64 271.98,5.64 272.18,5.64 272.38,5.27 272.58,5.27 272.77,8.89 272.97,8.22 273.17,8.22 273.37,8.22 273.57,11.44 273.77,11.44 273.97,11.44 274.16,12.51 274.36,12.51 274.56,12.51 274.76,14.35 274.96,14.35 275.16,15.49 275.36,15.49 275.55,15.49 275.75,15.91 275.95,15.91 276.15,17.97 276.35,17.97 276.55,17.33 276.75,17.33 276.94,19.34 277.14,19.34 277.34,20.12 277.54,20.12 277.74,20.12 277.94,23.02 278.13,23.02 278.33,26.40 278.53,26.40 278.73,26.40 278.93,29.16 279.13,25.19 279.33,26.66 279.52,26.66 279.72,26.66 279.92,26.66 280.12,26.98 280.32,26.98 280.52,26.98 280.72,26.98 280.91,28.13 281.11,28.13 281.31,28.13 281.51,30.74 281.71,30.74 281.91,30.74 282.10,32.12 282.30,32.12 282.50,32.12 282.70,35.35 282.90,35.12 283.10,35.12 283.30,37.07 283.49,37.07 283.69,39.28 283.89,39.28 284.09,40.95 284.29,40.95 284.49,40.95 284.69,43.06 284.88,42.37 285.08,42.37 285.28,42.37 285.48,44.57 285.68,44.57 285.88,43.89 286.07,46.02 286.27,46.02 286.47,46.02 286.67,47.17 286.87,47.17 287.07,47.70 287.27,47.70 287.46,47.70 287.66,48.68 287.86,48.51 288.06,48.51 288.26,48.51 288.46,48.31 288.66,49.52 288.85,49.52 289.05,49.52 289.25,50.53 289.45,50.53 289.65,51.35 289.85,51.35 290.04,51.35 290.24,52.01 290.44,52.01 290.64,52.54 290.84,52.54 291.04,52.54 291.24,53.00 291.43,53.00 291.63,53.58 291.83,53.58 292.03,53.58 292.23,54.00 292.43,54.00 292.63,54.00 292.82,54.62 293.02,54.62 293.22,55.45 293.42,55.27 293.62,55.27 293.82,55.61 294.01,55.61 294.21,55.51 294.41,55.51 294.61,55.51 294.81,55.58 295.01,55.58 295.21,55.35 295.40,55.35 295.60,55.49 295.80,55.04 296.00,55.04" />
</svg>