<svg width="300" height="60" xmlns="http://www.w3.org/2000/svg">
  <polyline fill="rgba(255,200,0,0.3)" stroke="#ffbb00" stroke-width="2" points="4.00,37.03 4.11,36.42 4.23,35.98 4.34,35.80 4.46,35.43 4.57,34.98 4.68,33.86 4.80,33.53 4.91,32.72 5.03,32.19 5.14,31.70 5.26,31.06 5.37,30.33 5.48,29.78 5.60,29.11 5.71,28.12 5.83,27.36 5.94,26.28 6.05,25.59 6.17,24.63 6.28,23.73 6.40,23.56 6.51,22.87 6.63,22.14 6.74,21.48 6.85,20.89 6.97,20.88 7.08,21.16 7.20,21.18 7.31,21.38 7.42,20.98 7.54,20.52 7.65,20.04 7.77,19.45 7.88,18.98 8.00,18.21 8.11,17.25 8.22,16.07 8.34,15.21 8.45,14.74 8.57,14.49 8.68,14.34 8.79,13.77 8.91,12.64 9.02,12.22 9.14,12.24 9.25,12.68 9.37,13.09 9.48,13.47 9.59,14.07 9.71,14.43 9.82,14.47 9.94,14.84 10.05,14.31 10.16,14.26 10.28,14.69 10.39,14.44 10.51,14.15 10.62,14.26 10.73,14.64 10.85,15.12 10.96,15.47 11.08,15.79 11.19,16.12 11.31,16.35 11.42,16.56 11.53,16.72 11.65,16.87 11.76,17.20 11.88,18.01 11.99,18.76 12.10,19.45 12.22,19.96 12.33,20.34 12.45,20.57 12.56,20.27 12.68,20.71 12.79,21.10 12.90,21.39 13.02,21.86 13.13,22.65 13.25,23.75 13.36,23.67 13.47,23.81 13.59,23.39 13.70,21.73 13.82,21.14 13.93,21.24 14.05,22.04 14.16,23.42 14.27,25.11 14.39,25.50 14.50,26.30 14.62,27.17 14.73,28.02 14.84,28.55 14.96,29.12 15.07,29.98 15.19,30.70 15.30,31.21 15.42,31.72 15.53,33.46 15.64,34.30 15.76,33.74 15.87,33.98 15.99,34.12 16.10,35.99 16.21,38.34 16.33,38.05 16.44,38.42 16.56,37.24 16.67,37.13 16.78,38.85 16.90,38.97 17.01,39.44 17.13,39.52 17.24,38.68 17.36,38.47 17.47,38.38 17.58,37.74 17.70,37.11 17.81,37.19 17.93,37.30 18.04,36.67 18.15,35.58 18.27,34.71 18.38,34.15 18.50,34.19 18.61,35.99 18.73,36.60 18.84,38.51 18.95,38.07 19.07,37.24 19.18,38.07 19.30,38.78 19.41,39.18 19.52,38.98 19.64,37.25 19.75,36.35 19.87,37.12 19.98,37.19 20.10,38.40 20.21,39.11 20.32,39.54 20.44,39.98 20.55,40.27 20.67,40.62 20.78,41.34 20.89,44.10 21.01,42.36 21.12,41.71 21.24,38.82 21.35,38.48 21.47,38.68 21.58,39.30 21.69,40.65 21.81,41.47 21.92,42.01 22.04,42.95 22.15,44.20 22.26,45.78 22.38,47.10 22.49,48.73 22.61,49.24 22.72,49.02 22.84,49.14 22.95,48.42 23.06,47.26 23.18,46.67 23.29,46.73 23.41,46.63 23.52,46.68 23.63,46.00 23.75,45.14 23.86,44.14 23.98,43.48 24.09,43.06 24.20,42.59 24.32,42.56 24.43,42.58 24.55,42.38 24.66,42.03 24.78,41.00 24.89,39.83 25.00,39.69 25.12,39.44 25.23,39.04 25.35,38.96 25.46,38.94 25.57,39.56 25.69,40.10 25.80,40.60 25.92,39.51 26.03,39.80 26.15,38.60 26.26,38.58 26.37,38.00 26.49,37.74 26.60,37.12 26.72,35.67 26.83,35.11 26.94,35.25 27.06,35.31 27.17,35.06 27.29,35.29 27.40,36.14 27.52,36.43 27.63,36.18 27.74,35.40 27.86,34.74 27.97,34.36 28.09,33.08 28.20,31.54 28.31,29.79 28.43,27.61 28.54,27.26 28.66,29.35 28.77,30.72 28.89,31.16 29.00,34.58 29.11,33.39 29.23,33.25 29.34,33.74 29.46,33.72 29.57,33.04 29.68,32.92 29.80,33.69 29.91,33.50 30.03,33.44 30.14,33.27 30.25,33.30 30.37,33.01 30.48,32.65 30.60,32.73 30.71,32.58 30.83,32.58 30.94,32.87 31.05,33.59 31.17,33.87 31.28,33.07 31.40,32.38 31.51,32.18 31.62,32.12 31.74,32.07 31.85,32.11 31.97,32.56 32.08,32.43 32.20,31.92 32.31,30.50 32.42,29.95 32.54,29.97 32.65,27.71 32.77,27.83 32.88,26.94 32.99,27.04 33.11,27.41 33.22,28.20 33.34,30.07 33.45,30.52 33.57,29.20 33.68,27.18 33.79,26.12 33.91,25.44 34.02,25.02 34.14,26.49 34.25,25.22 34.36,24.34 34.48,24.48 34.59,24.51 34.71,23.47 34.82,23.20 34.94,22.01 35.05,21.27 35.16,21.02 35.28,21.02 35.39,20.77 35.51,20.56 35.62,20.52 35.73,20.06 35.85,19.98 35.96,20.07 36.08,19.92 36.19,20.66 36.30,20.35 36.42,20.12 36.53,20.88 36.65,21.77 36.76,22.73 36.88,23.34 36.99,23.69 37.10,24.52 37.22,24.69 37.33,25.53 37.45,25.91 37.56,26.18 37.67,26.20 37.79,25.70 37.90,24.52 38.02,24.54 38.13,25.13 38.25,26.26 38.36,25.95 38.47,25.48 38.59,25.44 38.70,25.67 38.82,25.76 38.93,25.94 39.04,25.46 39.16,24.20 39.27,23.96 39.39,23.12 39.50,22.52 39.62,22.15 39.73,22.41 39.84,22.36 39.96,22.96 40.07,23.18 40.19,24.02 40.30,25.01 40.41,24.97 40.53,25.01 40.64,24.25 40.76,23.57 40.87,23.04 40.99,23.22 41.10,23.05 41.21,21.60 41.33,21.41 41.44,21.58 41.56,21.00 41.67,20.86 41.78,20.38 41.90,19.73 42.01,19.08 42.13,18.65 42.24,17.49 42.35,16.82 42.47,16.18 42.58,15.69 42.70,15.45 42.81,16.25 42.93,16.51 43.04,16.91 43.15,17.05 43.27,16.81 43.38,16.86 43.50,18.12 43.61,18.26 43.72,18.96 43.84,19.82 43.95,19.85 44.07,19.90 44.18,19.74 44.30,18.54 44.41,16.52 44.52,15.57 44.64,16.54 44.75,15.25 44.87,16.25 44.98,15.50 45.09,16.08 45.21,16.41 45.32,17.34 45.44,16.45 45.55,16.11 45.67,15.31 45.78,15.64 45.89,15.81 46.01,15.87 46.12,16.11 46.24,16.30 46.35,17.53 46.46,18.49 46.58,19.84 46.69,20.92 46.81,22.19 46.92,22.90 47.04,23.57 47.15,24.32 47.26,25.94 47.38,26.00 47.49,26.58 47.61,27.10 47.72,28.04 47.83,28.51 47.95,28.13 48.06,28.62 48.18,28.30 48.29,26.51 48.41,25.07 48.52,25.08 48.63,26.11 48.75,27.58 48.86,28.55 48.98,29.27 49.09,28.41 49.20,27.92 49.32,28.02 49.43,27.97 49.55,26.86 49.66,26.20 49.77,26.73 49.89,27.12 50.00,27.89 50.12,28.92 50.23,29.51 50.35,30.50 50.46,31.25 50.57,31.31 50.69,30.57 50.80,29.30 50.92,28.31 51.03,28.53 51.14,29.04 51.26,29.87 51.37,30.43 51.49,31.02 51.60,30.80 51.72,31.10 51.83,31.12 51.94,31.62 52.06,32.12 52.17,32.65 52.29,32.96 52.40,33.30 52.51,33.73 52.63,34.14 52.74,34.97 52.86,36.22 52.97,37.03 53.09,38.02 53.20,38.93 53.31,38.77 53.43,38.97 53.54,39.19 53.66,40.13 53.77,41.55 53.88,42.59 54.00,45.01 54.11,46.15 54.23,45.29 54.34,44.04 54.46,42.56 54.57,42.13 54.68,42.30 54.80,42.62 54.91,43.39 55.03,43.61 55.14,44.52 55.25,44.55 55.37,42.97 55.48,41.50 55.60,40.64 55.71,41.17 55.82,43.29 55.94,45.97 56.05,45.70 56.17,43.91 56.28,42.42 56.40,42.46 56.51,42.95 56.62,42.56 56.74,39.49 56.85,38.92 56.97,39.08 57.08,39.55 57.19,40.20 57.31,41.13 57.42,44.11 57.54,45.51 57.65,44.94 57.77,45.16 57.88,45.61 57.99,46.23 58.11,47.53 58.22,46.37 58.34,45.63 58.45,44.48 58.56,42.77 58.68,41.75 58.79,39.72 58.91,39.53 59.02,39.50 59.14,39.54 59.25,39.61 59.36,39.77 59.48,39.05 59.59,38.63 59.71,37.56 59.82,36.69 59.93,36.28 60.05,37.56 60.16,38.00 60.28,38.57 60.39,39.10 60.51,39.58 60.62,39.93 60.73,40.30 60.85,40.73 60.96,40.76 61.08,40.56 61.19,39.80 61.30,38.61 61.42,37.05 61.53,36.79 61.65,37.21 61.76,37.26 61.87,37.01 61.99,36.47 62.10,35.96 62.22,35.52 62.33,35.19 62.45,34.76 62.56,34.12 62.67,33.52 62.79,33.13 62.90,31.67 63.02,30.58 63.13,31.04 63.24,32.14 63.36,31.92 63.47,31.70 63.59,31.52 63.70,31.22 63.82,30.81 63.93,30.41 64.04,29.79 64.16,29.47 64.27,30.17 64.39,30.43 64.50,30.69 64.61,31.56 64.73,34.50 64.84,31.91 64.96,30.31 65.07,29.35 65.19,28.58 65.30,28.30 65.41,29.07 65.53,29.35 65.64,27.29 65.76,26.86 65.87,26.74 65.98,25.86 66.10,26.42 66.21,26.42 66.33,26.45 66.44,25.54 66.56,23.26 66.67,21.64 66.78,21.18 66.90,22.18 67.01,24.74 67.13,26.16 67.24,28.17 67.35,28.65 67.47,26.95 67.58,25.24 67.70,23.96 67.81,22.97 67.92,22.61 68.04,22.19 68.15,21.79 68.27,21.33 68.38,20.75 68.50,20.22 68.61,19.67 68.72,19.20 68.84,18.73 68.95,18.76 69.07,18.87 69.18,19.56 69.29,22.24 69.41,25.51 69.52,25.36 69.64,22.49 69.75,19.60 69.87,19.12 69.98,19.11 70.09,20.41 70.21,20.87 70.32,22.09 70.44,22.75 70.55,22.68 70.66,21.98 70.78,21.38 70.89,20.95 71.01,21.25 71.12,20.86 71.24,20.38 71.35,20.08 71.46,20.54 71.58,21.09 71.69,21.84 71.81,22.14 71.92,20.70 72.03,19.61 72.15,18.74 72.26,17.70 72.38,16.62 72.49,16.44 72.61,16.30 72.72,15.84 72.83,15.53 72.95,14.88 73.06,14.25 73.18,14.36 73.29,13.97 73.40,14.63 73.52,16.08 73.63,17.53 73.75,17.93 73.86,19.21 73.97,19.81 74.09,19.83 74.20,19.87 74.32,18.85 74.43,16.94 74.55,14.46 74.66,13.15 74.77,12.78 74.89,12.91 75.00,13.27 75.12,13.66 75.23,14.34 75.34,15.86 75.46,17.06 75.57,18.04 75.69,18.17 75.80,18.99 75.92,19.59 76.03,19.72 76.14,18.91 76.26,17.35 76.37,15.94 76.49,16.03 76.60,16.23 76.71,16.57 76.83,17.58 76.94,18.89 77.06,19.92 77.17,20.64 77.29,21.30 77.40,22.55 77.51,24.78 77.63,24.82 77.74,24.76 77.86,29.71 77.97,29.22 78.08,25.29 78.20,21.36 78.31,22.03 78.43,23.58 78.54,24.11 78.66,25.60 78.77,25.78 78.88,26.48 79.00,27.78 79.11,28.59 79.23,28.25 79.34,29.08 79.45,28.88 79.57,27.45 79.68,25.55 79.80,24.42 79.91,23.68 80.03,23.77 80.14,24.10 80.25,24.92 80.37,27.31 80.48,29.49 80.60,31.58 80.71,32.43 80.82,33.08 80.94,33.42 81.05,33.39 81.17,33.02 81.28,33.79 81.39,36.38 81.51,36.85 81.62,37.17 81.74,37.94 81.85,38.94 81.97,39.54 82.08,39.75 82.19,38.00 82.31,36.68 82.42,36.89 82.54,36.14 82.65,36.93 82.76,36.92 82.88,39.23 82.99,39.26 83.11,39.19 83.22,37.09 83.34,35.78 83.45,36.34 83.56,35.36 83.68,33.79 83.79,32.06 83.91,31.64 84.02,30.72 84.13,29.89 84.25,28.90 84.36,27.21 84.48,25.20 84.59,24.50 84.71,23.48 84.82,22.40 84.93,22.63 85.05,23.38 85.16,24.72 85.28,26.35 85.39,27.24 85.50,29.36 85.62,29.61 85.73,28.13 85.85,25.67 85.96,23.27 86.08,23.18 86.19,23.56 86.30,24.65 86.42,37.46 86.53,37.19 86.65,36.72 86.76,36.46 86.87,36.07 86.99,35.41 87.10,34.36 87.22,34.02 87.33,33.38 87.44,32.73 87.56,32.01 87.67,31.36 87.79,30.85 87.90,30.17 88.02,29.62 88.13,28.70 88.24,27.47 88.36,26.81 88.47,26.17 88.59,24.98 88.70,24.66 88.81,23.93 88.93,23.14 89.04,22.66 89.16,21.83 89.27,21.58 89.39,21.43 89.50,21.79 89.61,21.21 89.73,21.83 89.84,21.66 89.96,20.51 90.07,20.60 90.18,19.44 90.30,19.56 90.41,18.86 90.53,17.24 90.64,17.15 90.76,15.82 90.87,15.25 90.98,14.79 91.10,14.30 91.21,14.56 91.33,12.96 91.44,13.60 91.55,12.32 91.67,12.48 91.78,13.42 91.90,13.82 92.01,14.92 92.13,13.84 92.24,14.66 92.35,14.57 92.47,14.93 92.58,15.23 92.70,14.74 92.81,14.87 92.92,14.61 93.04,14.57 93.15,15.21 93.27,15.59 93.38,15.46 93.49,15.80 93.61,16.78 93.72,16.90 93.84,16.59 93.95,16.75 94.07,17.36 94.18,17.61 94.29,18.50 94.41,18.87 94.52,19.87 94.64,19.97 94.75,20.81 94.86,20.61 94.98,20.81 95.09,21.27 95.21,21.61 95.32,22.17 95.44,22.59 95.55,23.31 95.66,23.61 95.78,24.56 95.89,24.22 96.01,23.39 96.12,22.13 96.23,21.33 96.35,21.75 96.46,21.98 96.58,24.63 96.69,24.80 96.81,25.63 96.92,26.79 97.03,26.50 97.15,28.17 97.26,29.09 97.38,29.63 97.49,30.66 97.60,31.00 97.72,31.74 97.83,32.09 97.95,33.89 98.06,33.98 98.18,34.93 98.29,34.21 98.40,34.72 98.52,35.80 98.63,38.55 98.75,38.78 98.86,38.39 98.97,37.27 99.09,37.16 99.20,39.50 99.32,38.95 99.43,39.39 99.54,39.37 99.66,39.12 99.77,38.97 99.89,39.14 100.00,38.31 100.12,37.62 100.23,37.72 100.34,37.77 100.46,37.34 100.57,35.99 100.69,34.29 100.80,34.84 100.91,34.14 101.03,35.83 101.14,37.23 101.26,38.84 101.37,38.84 101.49,38.51 101.60,38.67 101.71,39.58 101.83,39.64 101.94,39.48 102.06,37.47 102.17,36.92 102.28,37.48 102.40,37.33 102.51,38.88 102.63,39.64 102.74,40.15 102.86,40.66 102.97,40.63 103.08,41.31 103.20,41.94 103.31,44.57 103.43,43.07 103.54,40.85 103.65,39.24 103.77,39.04 103.88,38.50 104.00,39.44 104.11,40.69 104.23,42.01 104.34,42.11 104.45,42.94 104.57,44.92 104.68,46.30 104.80,47.83 104.91,48.17 105.02,49.25 105.14,49.18 105.25,49.64 105.37,48.83 105.48,47.77 105.59,46.82 105.71,46.23 105.82,46.73 105.94,47.31 106.05,46.58 106.17,45.18 106.28,44.91 106.39,44.04 106.51,43.63 106.62,43.12 106.74,42.36 106.85,43.10 106.96,42.25 107.08,42.11 107.19,41.30 107.31,41.01 107.42,39.84 107.54,39.33 107.65,39.26 107.76,39.66 107.88,39.62 107.99,39.90 108.11,40.47 108.22,39.98 108.33,40.32 108.45,40.58 108.56,39.60 108.68,37.91 108.79,37.67 108.91,38.48 109.02,37.95 109.13,35.91 109.25,35.97 109.36,35.98 109.48,36.21 109.59,35.24 109.70,35.92 109.82,36.79 109.93,37.20 110.05,36.62 110.16,35.95 110.28,35.11 110.39,34.60 110.50,33.86 110.62,31.93 110.73,30.34 110.85,28.13 110.96,27.79 111.07,29.12 111.19,31.35 111.30,31.75 111.42,34.89 111.53,34.39 111.65,34.18 111.76,34.39 111.87,34.30 111.99,33.65 112.10,33.03 112.22,34.29 112.33,33.73 112.44,33.71 112.56,33.93 112.67,32.98 112.79,33.62 112.90,33.38 113.01,33.14 113.13,33.11 113.24,32.79 113.36,33.60 113.47,33.87 113.59,34.13 113.70,33.99 113.81,32.80 113.93,32.78 114.04,32.33 114.16,31.95 114.27,32.23 114.38,33.32 114.50,32.94 114.61,32.30 114.73,30.75 114.84,29.62 114.96,29.94 115.07,29.02 115.18,27.72 115.30,27.47 115.41,27.21 115.53,27.93 115.64,28.36 115.75,30.67 115.87,30.07 115.98,29.88 116.10,28.05 116.21,26.92 116.33,25.75 116.44,25.77 116.55,26.60 116.67,25.55 116.78,25.16 116.90,24.61 117.01,24.73 117.12,24.21 117.24,23.11 117.35,22.65 117.47,21.99 117.58,21.55 117.70,21.20 117.81,21.67 117.92,20.25 118.04,20.60 118.15,19.97 118.27,20.24 118.38,20.28 118.49,20.24 118.61,21.29 118.72,21.23 118.84,21.29 118.95,21.02 119.06,21.84 119.18,22.69 119.29,24.00 119.41,24.49 119.52,25.04 119.64,25.20 119.75,26.32 119.86,25.14 119.98,26.06 120.09,26.21 120.21,26.68 120.32,25.60 120.43,25.73 120.55,25.88 120.66,27.11 120.78,26.82 120.89,26.68 121.01,25.96 121.12,25.57 121.23,26.24 121.35,26.66 121.46,25.83 121.58,25.32 121.69,23.92 121.80,23.82 121.92,23.14 122.03,22.98 122.15,23.26 122.26,23.56 122.38,22.92 122.49,23.39 122.60,24.24 122.72,25.28 122.83,25.64 122.95,25.50 123.06,24.80 123.17,23.47 123.29,22.98 123.40,23.37 123.52,22.38 123.63,23.23 123.75,21.35 123.86,21.96 123.97,21.01 124.09,21.14 124.20,19.98 124.32,19.81 124.43,18.72 124.54,19.10 124.66,17.21 124.77,17.77 124.89,16.11 125.00,16.31 125.11,16.05 125.23,16.29 125.34,17.22 125.46,17.26 125.57,17.70 125.69,17.23 125.80,18.42 125.91,19.18 126.03,17.70 126.14,18.89 126.26,18.98 126.37,19.83 126.48,19.05 126.60,19.72 126.71,18.99 126.83,17.08 126.94,16.13 127.06,16.54 127.17,15.90 127.28,16.36 127.40,15.98 127.51,16.40 127.63,16.76 127.74,17.72 127.85,16.54 127.97,16.35 128.08,15.77 128.20,15.41 128.31,15.65 128.43,15.72 128.54,16.10 128.65,16.16 128.77,17.32 128.88,18.02 129.00,20.08 129.11,20.44 129.22,22.32 129.34,23.09 129.45,24.15 129.57,24.73 129.68,25.77 129.80,26.11 129.91,26.91 130.02,27.72 130.14,29.31 130.25,28.85 130.37,29.28 130.48,29.13 130.59,28.94 130.71,26.48 130.82,24.89 130.94,25.85 131.05,26.38 131.16,25.28 131.28,35.99 131.39,35.99 131.51,36.06 131.62,35.68 131.74,35.59 131.85,35.12 131.96,33.97 132.08,33.25 132.19,32.53 132.31,32.89 132.42,31.94 132.53,31.43 132.65,30.33 132.76,29.65 132.88,28.61 132.99,27.79 133.11,26.64 133.22,27.41 133.33,25.84 133.45,25.39 133.56,23.91 133.68,23.70 133.79,22.51 133.90,22.01 134.02,20.85 134.13,21.59 134.25,21.80 134.36,20.57 134.48,21.14 134.59,19.93 134.70,20.32 134.82,18.62 134.93,20.61 135.05,18.68 135.16,18.81 135.27,18.90 135.39,16.58 135.50,16.41 135.62,14.22 135.73,14.50 135.85,14.50 135.96,14.80 136.07,12.40 136.19,13.00 136.30,10.75 136.42,11.83 136.53,9.86 136.64,13.13 136.76,14.55 136.87,12.64 136.99,13.98 137.10,12.24 137.22,13.22 137.33,15.45 137.44,13.73 137.56,14.01 137.67,14.09 137.79,13.67 137.90,14.14 138.01,14.35 138.13,14.92 138.24,13.20 138.36,15.35 138.47,15.84 138.58,16.22 138.70,14.01 138.81,16.37 138.93,16.50 139.04,16.94 139.16,19.36 139.27,17.51 139.38,17.77 139.50,20.14 139.61,20.11 139.73,19.79 139.84,21.63 139.95,21.19 140.07,19.19 140.18,21.44 140.30,21.85 140.41,22.67 140.53,22.63 140.64,24.46 140.75,21.34 140.87,22.91 140.98,21.22 141.10,19.73 141.21,22.00 141.32,22.45 141.44,23.72 141.55,21.56 141.67,25.01 141.78,26.15 141.90,24.17 142.01,26.36 142.12,28.37 142.24,28.37 142.35,30.31 142.47,29.40 142.58,31.13 142.69,30.31 142.81,33.00 142.92,32.17 143.04,34.97 143.15,33.26 143.27,35.21 143.38,35.23 143.49,38.59 143.61,36.93 143.72,37.72 143.84,35.68 143.95,37.61 144.06,37.61 144.18,39.96 144.29,37.76 144.41,38.59 144.52,38.40 144.63,38.40 144.75,37.83 144.86,37.07 144.98,36.93 145.09,36.93 145.21,37.39 145.32,35.48 145.43,35.19 145.55,32.69 145.66,33.43 145.78,31.99 145.89,34.68 146.00,37.48 146.12,36.91 146.23,36.33 146.35,38.01 146.46,37.64 146.58,37.81 146.69,40.35 146.80,38.22 146.92,36.74 147.03,36.76 147.15,36.08 147.26,37.31 147.37,36.95 147.49,39.64 147.60,39.32 147.72,38.92 147.83,38.67 147.95,41.49 148.06,42.27 148.17,43.27 148.29,42.00 148.40,39.45 148.52,36.99 148.63,38.68 148.74,37.01 148.86,38.92 148.97,38.92 149.09,39.85 149.20,39.87 149.32,42.76 149.43,43.05 149.54,46.07 149.66,46.64 149.77,46.96 149.89,50.29 150.00,47.03 150.11,47.49 150.23,47.70 150.34,44.96 150.46,47.74 150.57,45.24 150.68,45.83 150.80,46.45 150.91,44.30 151.03,44.16 151.14,44.16 151.26,44.05 151.37,41.59 151.48,41.95 151.60,39.66 151.71,41.21 151.83,39.05 151.94,39.87 152.05,39.87 152.17,40.36 152.28,38.24 152.40,39.11 152.51,37.05 152.63,38.04 152.74,38.94 152.85,38.94 152.97,39.46 153.08,39.69 153.20,39.29 153.31,39.29 153.42,38.59 153.54,37.91 153.65,35.07 153.77,37.36 153.88,36.93 154.00,35.68 154.11,35.24 154.22,35.24 154.34,35.45 154.45,35.05 154.57,35.38 154.68,35.38 154.79,36.04 154.91,35.47 155.02,33.75 155.14,34.72 155.25,34.22 155.37,33.54 155.48,31.66 155.59,28.93 155.71,27.71 155.82,27.84 155.94,28.37 156.05,30.87 156.16,31.21 156.28,34.35 156.39,33.57 156.51,32.44 156.62,34.18 156.73,32.32 156.85,30.52 156.96,32.49 157.08,32.49 157.19,34.10 157.31,32.03 157.42,32.75 157.53,30.78 157.65,31.77 157.76,32.38 157.88,32.38 157.99,33.21 158.10,31.90 158.22,33.87 158.33,33.13 158.45,34.02 158.56,31.92 158.68,31.75 158.79,31.75 158.90,32.32 159.02,31.15 159.13,30.11 159.25,32.40 159.36,30.83 159.47,30.89 159.59,27.45 159.70,27.52 159.82,30.49 159.93,27.35 160.05,26.46 160.16,25.59 160.27,27.78 160.39,26.80 160.50,29.05 160.62,28.84 160.73,30.81 160.84,28.90 160.96,27.01 161.07,26.78 161.19,25.71 161.30,25.22 161.42,25.16 161.53,23.57 161.64,24.54 161.76,22.95 161.87,23.93 161.99,23.93 162.10,21.64 162.21,22.38 162.33,19.90 162.44,20.50 162.56,21.19 162.67,18.71 162.78,19.34 162.90,19.34 163.01,19.77 163.13,20.02 163.24,17.40 163.36,20.10 163.47,20.44 163.58,20.59 163.70,18.34 163.81,19.29 163.93,22.15 164.04,20.46 164.15,22.09 164.27,23.00 164.38,25.84 164.50,24.09 164.61,25.32 164.73,23.50 164.84,24.48 164.95,25.49 165.07,25.49 165.18,25.71 165.30,25.80 165.41,23.23 165.52,25.91 165.64,25.90 165.75,25.14 165.87,26.11 165.98,24.97 166.10,26.39 166.21,24.73 166.32,26.08 166.44,24.93 166.55,22.47 166.67,22.45 166.78,21.07 166.89,22.78 167.01,22.78 167.12,21.85 167.24,21.06 167.35,23.82 167.47,23.27 167.58,22.87 167.69,25.20 167.81,24.14 167.92,22.36 168.04,23.25 168.15,20.98 168.26,22.44 168.38,20.22 168.49,23.42 168.61,21.07 168.72,21.60 168.84,18.84 168.95,18.91 169.06,18.63 169.18,18.63 169.29,18.42 169.41,18.65 169.52,16.28 169.63,16.89 169.75,14.60 169.86,15.71 169.98,15.71 170.09,17.15 170.20,15.05 170.32,16.17 170.43,16.90 170.55,14.07 170.66,17.81 170.78,18.95 170.89,16.64 171.00,18.00 171.12,15.55 171.23,19.03 171.35,19.52 171.46,17.12 171.57,16.76 171.69,16.21 171.80,13.97 171.92,17.04 172.03,14.83 172.15,16.15 172.26,13.98 172.37,15.57 172.49,14.44 172.60,15.80 172.72,15.80 172.83,16.25 172.94,16.86 173.06,14.36 173.17,15.15 173.29,12.75 173.40,15.91 173.52,16.97 173.63,15.30 173.74,17.14 173.86,18.35 173.97,21.30 174.09,21.98 174.20,19.60 174.31,22.76 174.43,23.85 174.54,24.38 174.66,27.20 174.77,27.03 174.89,27.03 175.00,29.17 175.11,26.67 175.23,28.77 175.34,28.94 175.46,28.60 175.57,25.65 175.68,23.34 175.80,24.95 175.91,24.62 176.03,27.50 176.14,27.50 176.25,29.81 176.37,28.20 176.48,26.55 176.60,28.62 176.71,27.14 176.83,25.22 176.94,26.30 177.05,24.20 177.17,27.15 177.28,27.95 177.40,28.97 177.51,27.18 177.62,30.09 177.74,30.90 177.85,31.06 177.97,29.53 178.08,29.53 178.20,28.83 178.31,27.33 178.42,28.86 178.54,28.11 178.65,29.70 178.77,30.80 178.88,30.80 178.99,31.84 179.11,30.58 179.22,32.34 179.34,31.35 179.45,30.46 179.57,32.28 179.68,31.24 179.79,33.21 179.91,33.21 180.02,35.35 180.14,35.23 180.25,37.65 180.36,37.50 180.48,36.97 180.59,38.39 180.71,37.44 180.82,39.35 180.94,39.25 181.05,41.62 181.16,41.67 181.28,45.21 181.39,45.83 181.51,45.15 181.62,43.88 181.73,42.35 181.85,43.85 181.96,42.39 182.08,44.51 182.19,42.26 182.30,45.21 182.42,44.04 182.53,43.02 182.65,41.95 182.76,41.10 182.88,40.91 182.99,41.68 183.10,45.85 183.22,47.30 183.33,45.98 183.45,44.22 183.56,44.22 183.67,41.72 183.79,43.98 183.90,44.64 184.02,42.78 184.13,41.69 184.25,39.06 184.36,40.59 184.47,39.68 184.59,42.05 184.70,43.77 184.82,44.11 184.93,48.31 185.04,47.17 185.16,47.12 185.27,47.91 185.39,48.49 185.50,48.64 185.62,44.20 185.73,45.24 185.84,43.35 185.96,40.77 186.07,39.37 186.19,38.33 186.30,37.84 186.41,37.68 186.53,37.94 186.64,38.02 186.76,37.54 186.87,37.13 186.99,36.50 187.10,36.03 187.21,35.84 187.33,35.98 187.44,35.98 187.56,36.41 187.67,39.93 187.78,38.74 187.90,40.44 188.01,38.59 188.13,39.87 188.24,43.01 188.35,40.70 188.47,39.40 188.58,36.80 188.70,37.73 188.81,35.16 188.93,37.14 189.04,37.99 189.15,39.50 189.27,36.09 189.38,37.36 189.50,36.17 189.61,35.05 189.72,36.80 189.84,35.44 189.95,33.28 190.07,33.49 190.18,31.47 190.30,32.00 190.41,30.52 190.52,31.50 190.64,30.85 190.75,30.19 190.87,32.44 190.98,31.06 191.09,29.57 191.21,28.07 191.32,26.52 191.44,24.81 191.55,28.42 191.67,28.42 191.78,30.35 191.89,33.59 192.01,35.88 192.12,33.93 192.24,31.17 192.35,31.66 192.46,32.25 192.58,29.62 192.69,30.17 192.81,30.04 192.92,27.92 193.04,26.78 193.15,26.25 193.26,26.32 193.38,26.10 193.49,24.79 193.61,25.00 193.72,26.76 193.83,23.77 193.95,22.39 194.06,20.40 194.18,21.82 194.29,24.90 194.41,27.25 194.52,26.78 194.63,28.78 194.75,26.94 194.86,24.35 194.98,25.15 195.09,23.43 195.20,22.07 195.32,23.47 195.43,22.22 195.55,20.71 195.66,21.71 195.77,19.99 195.89,21.24 196.00,19.76 196.12,21.18 196.23,17.95 196.35,20.73 196.46,20.20 196.57,24.95 196.69,24.42 196.80,24.31 196.92,24.31 197.03,22.52 197.14,23.04 197.26,19.92 197.37,21.89 197.49,18.84 197.60,21.04 197.72,22.61 197.83,22.61 197.94,23.00 198.06,23.00 198.17,19.92 198.29,21.15 198.40,21.87 198.51,19.49 198.63,20.60 198.74,18.65 198.86,20.77 198.97,24.01 199.09,22.74 199.20,23.49 199.31,21.12 199.43,19.32 199.54,16.49 199.66,17.70 199.77,17.70 199.88,18.57 200.00,15.79 200.11,16.33 200.23,16.29 200.34,13.09 200.46,13.34 200.57,16.40 200.68,16.76 200.80,17.52 200.91,17.52 201.03,17.52 201.14,19.52 201.25,21.30 201.37,19.84 201.48,20.75 201.60,18.00 201.71,17.66 201.82,14.14 201.94,14.14 202.05,12.87 202.17,11.55 202.28,13.85 202.40,14.08 202.51,13.91 202.62,16.25 202.74,15.78 202.85,17.93 202.97,19.33 203.08,18.46 203.19,20.33 203.31,18.93 203.42,18.95 203.54,16.84 203.65,17.13 203.77,16.46 203.88,15.99 203.99,15.56 204.11,19.00 204.22,18.36 204.34,21.14 204.45,19.90 204.56,22.98 204.68,21.66 204.79,26.06 204.91,23.89 205.02,27.03 205.14,28.65 205.25,28.58 205.36,26.12 205.48,21.86 205.59,21.86 205.71,22.06 205.82,24.22 205.93,26.45 206.05,25.75 206.16,27.74 206.28,27.87 206.39,29.91 206.51,28.78 206.62,30.52 206.73,27.76 206.85,28.19 206.96,25.47 207.08,25.86 207.19,24.35 207.30,25.64 207.42,25.86 207.53,24.30 207.65,27.33 207.76,30.45 207.87,30.94 207.99,33.11 208.10,34.64 208.22,32.60 208.33,33.00 208.45,33.28 208.56,34.83 208.67,36.95 208.79,37.75 208.90,38.08 209.02,38.59 209.13,39.38 209.24,40.46 209.36,40.97 209.47,38.65 209.59,37.13 209.70,36.77 209.82,34.96 209.93,36.60 210.04,38.61 210.16,40.69 210.27,41.52 210.39,40.91 210.50,39.40 210.61,37.60 210.73,37.79 210.84,35.87 210.96,32.69 211.07,33.47 211.19,31.12 211.30,31.81 211.41,28.95 211.53,29.42 211.64,27.00 211.76,27.00 211.87,25.62 211.98,25.22 212.10,22.59 212.21,24.36 212.33,22.85 212.44,25.04 212.56,27.03 212.67,27.03 212.78,28.58 212.90,30.32 213.01,26.97 213.13,25.38 213.24,23.75 213.35,23.43 213.47,23.83 213.58,24.65 213.70,25.11 213.81,25.11 213.92,33.85 214.04,33.85 214.15,33.53 214.27,33.53 214.38,34.42 214.50,34.42 214.61,34.61 214.72,34.61 214.84,34.61 214.95,32.28 215.07,29.88 215.18,29.88 215.29,29.88 215.41,29.27 215.52,29.27 215.64,26.66 215.75,26.66 215.87,25.07 215.98,25.07 216.09,25.07 216.21,28.29 216.32,22.29 216.44,22.29 216.55,22.29 216.66,23.31 216.78,23.31 216.89,21.80 217.01,17.55 217.12,17.55 217.24,17.55 217.35,17.55 217.46,13.16 217.58,16.85 217.69,16.85 217.81,10.87 217.92,10.87 218.03,10.87 218.15,9.94 218.26,9.94 218.38,9.94 218.49,9.94 218.61,4.00 218.72,4.00 218.83,11.86 218.95,7.15 219.06,7.15 219.18,7.15 219.29,7.15 219.40,12.75 219.52,12.75 219.63,12.75 219.75,12.75 219.86,20.58 219.97,15.15 220.09,15.15 220.20,17.10 220.32,17.10 220.43,13.79 220.55,13.79 220.66,10.04 220.77,10.04 220.89,13.81 221.00,13.81 221.12,7.96 221.23,7.96 221.34,14.43 221.46,14.43 221.57,14.43 221.69,8.21 221.80,15.17 221.92,15.17 222.03,15.17 222.14,14.34 222.26,14.34 222.37,14.34 222.49,14.34 222.60,21.50 222.71,14.46 222.83,14.46 222.94,22.01 223.06,22.01 223.17,12.87 223.29,12.87 223.40,18.38 223.51,18.38 223.63,18.38 223.74,18.42 223.86,18.42 223.97,18.42 224.08,18.42 224.20,23.03 224.31,23.03 224.43,23.03 224.54,19.98 224.66,19.98 224.77,29.35 224.88,29.35 225.00,26.19 225.11,26.19 225.23,26.19 225.34,22.23 225.45,32.49 225.57,32.49 225.68,32.49 225.80,29.74 225.91,29.74 226.03,29.74 226.14,34.27 226.25,34.27 226.37,34.27 226.48,34.27 226.60,29.25 226.71,29.25 226.82,38.32 226.94,31.17 227.05,31.17 227.17,31.17 227.28,37.19 227.39,31.15 227.51,31.15 227.62,31.15 227.74,31.15 227.85,31.26 227.97,31.26 228.08,31.26 228.19,28.80 228.31,28.80 228.42,36.26 228.54,36.26 228.65,28.84 228.76,28.84 228.88,35.18 228.99,35.18 229.11,35.18 229.22,28.44 229.34,35.29 229.45,35.29 229.56,31.55 229.68,31.55 229.79,31.55 229.91,39.15 230.02,38.76 230.13,38.76 230.25,38.76 230.36,39.06 230.48,39.06 230.59,39.06 230.71,33.88 230.82,33.88 230.93,33.88 231.05,28.05 231.16,28.05 231.28,38.42 231.39,38.42 231.50,30.85 231.62,30.85 231.73,39.96 231.85,39.96 231.96,39.96 232.08,40.96 232.19,40.96 232.30,40.96 232.42,40.96 232.53,41.93 232.65,41.93 232.76,41.93 232.87,41.93 232.99,34.32 233.10,43.78 233.22,43.78 233.33,37.12 233.44,37.12 233.56,37.12 233.67,44.52 233.79,36.88 233.90,36.88 234.02,36.88 234.13,30.82 234.24,30.82 234.36,39.69 234.47,39.69 234.59,33.39 234.70,33.39 234.81,33.39 234.93,27.05 235.04,35.81 235.16,35.81 235.27,35.81 235.39,28.70 235.50,36.65 235.61,36.65 235.73,36.65 235.84,27.72 235.96,35.13 236.07,35.13 236.18,35.13 236.30,26.88 236.41,33.50 236.53,33.50 236.64,33.50 236.76,26.88 236.87,33.14 236.98,33.14 237.10,33.14 237.21,25.65 237.33,32.71 237.44,32.71 237.55,32.71 237.67,27.39 237.78,27.39 237.90,31.14 238.01,27.90 238.13,27.90 238.24,27.90 238.35,27.90 238.47,31.16 238.58,31.16 238.70,31.16 238.81,27.79 238.92,27.79 239.04,27.79 239.15,22.96 239.27,22.96 239.38,32.37 239.49,32.37 239.61,27.52 239.72,27.52 239.84,27.52 239.95,22.19 240.07,29.85 240.18,29.85 240.29,29.85 240.41,25.14 240.52,25.14 240.64,33.82 240.75,29.03 240.86,29.03 240.98,29.03 241.09,22.63 241.21,22.63 241.32,31.18 241.44,31.18 241.55,27.10 241.66,27.10 241.78,27.10 241.89,19.53 242.01,19.53 242.12,27.40 242.23,27.40 242.35,19.24 242.46,19.24 242.58,25.81 242.69,25.81 242.81,18.54 242.92,24.94 243.03,24.94 243.15,24.94 243.26,24.94 243.38,20.34 243.49,26.24 243.60,26.24 243.72,23.29 243.83,23.29 243.95,23.29 244.06,17.58 244.18,17.58 244.29,17.58 244.40,17.58 244.52,10.79 244.63,19.87 244.75,19.87 244.86,12.72 244.97,12.72 245.09,12.72 245.20,14.42 245.32,14.42 245.43,14.42 245.54,14.42 245.66,7.44 245.77,15.34 245.89,15.34 246.00,15.34 246.12,8.81 246.23,17.44 246.34,17.44 246.46,17.44 246.57,11.33 246.69,20.96 246.80,20.96 246.91,20.96 247.03,14.54 247.14,14.54 247.26,24.50 247.37,16.61 247.49,16.61 247.60,16.61 247.71,25.92 247.83,18.26 247.94,18.26 248.06,18.26 248.17,24.71 248.28,24.71 248.40,16.52 248.51,20.47 248.63,20.47 248.74,20.47 248.86,25.03 248.97,19.11 249.08,19.11 249.20,19.11 249.31,15.29 249.43,15.29 249.54,15.29 249.65,15.29 249.77,22.50 249.88,22.50 250.00,22.50 250.11,18.73 250.23,18.73 250.34,18.73 250.45,12.22 250.57,12.22 250.68,22.03 250.80,15.17 250.91,15.17 251.02,15.17 251.14,15.17 251.25,7.56 251.37,15.98 251.48,15.98 251.59,15.98 251.71,8.05 251.82,16.23 251.94,16.23 252.05,9.38 252.17,9.38 252.28,9.38 252.39,9.38 252.51,12.52 252.62,12.52 252.74,12.52 252.85,5.12 252.96,5.12 253.08,15.28 253.19,15.28 253.31,8.28 253.42,8.28 253.54,8.28 253.65,18.63 253.76,10.82 253.88,10.82 253.99,10.82 254.11,12.10 254.22,12.10 254.33,12.10 254.45,12.10 254.56,6.34 254.68,6.34 254.79,15.88 254.91,10.26 255.02,10.26 255.13,10.26 255.25,10.26 255.36,12.06 255.48,12.06 255.59,12.06 255.70,5.85 255.82,5.85 255.93,15.44 256.05,15.44 256.16,10.18 256.28,10.18 256.39,18.91 256.50,18.91 256.62,12.59 256.73,12.59 256.85,21.31 256.96,21.31 257.07,21.31 257.19,21.69 257.30,21.69 257.42,21.69 257.53,21.69 257.65,28.86 257.76,21.23 257.87,21.23 257.99,21.23 258.10,16.10 258.22,24.71 258.33,24.71 258.44,21.93 258.56,21.93 258.67,21.93 258.79,21.93 258.90,17.26 259.01,26.88 259.13,26.88 259.24,21.26 259.36,21.26 259.47,21.26 259.59,21.26 259.70,24.31 259.81,24.31 259.93,24.31 260.04,24.31 260.16,25.99 260.27,25.99 260.38,25.99 260.50,25.99 260.61,26.60 260.73,26.60 260.84,26.60 260.96,24.15 261.07,24.15 261.18,30.90 261.30,30.90 261.41,27.00 261.53,27.00 261.64,27.00 261.75,23.94 261.87,23.94 261.98,32.36 262.10,30.16 262.21,30.16 262.33,30.16 262.44,30.16 262.55,28.99 262.67,37.09 262.78,37.09 262.90,35.12 263.01,35.12 263.12,35.12 263.24,33.95 263.35,33.95 263.47,41.31 263.58,41.31 263.70,41.31 263.81,44.94 263.92,44.94 264.04,44.94 264.15,42.46 264.27,50.60 264.38,50.60 264.49,48.29 264.61,48.29 264.72,45.22 264.84,45.22 264.95,45.22 265.06,42.12 265.18,42.12 265.29,42.12 265.41,42.44 265.52,42.44 265.64,45.49 265.75,45.49 265.86,55.87 265.98,55.87 266.09,44.99 266.21,44.99 266.32,56.00 266.43,56.00 266.55,52.87 266.66,38.89 266.78,41.16 266.89,41.16 267.01,41.16 267.12,47.70 267.23,47.70 267.35,47.70 267.46,47.46 267.58,47.46 267.69,47.91 267.80,47.91 267.92,47.91 268.03,49.58 268.15,49.58 268.26,49.58 268.38,37.73 268.49,37.73 268.60,37.73 268.72,32.13 268.83,32.13 268.95,32.13 269.06,30.94 269.17,30.94 269.29,30.94 269.40,30.10 269.52,30.10 269.63,30.10 269.75,29.82 269.86,29.82 269.97,29.82 270.09,39.98 270.20,38.54 270.32,38.54 270.43,38.54 270.54,32.58 270.66,41.95 270.77,41.95 270.89,41.95 271.00,40.31 271.11,40.31 271.23,40.31 271.34,43.11 271.46,43.11 271.57,43.11 271.69,43.11 271.80,50.13 271.91,38.42 272.03,38.42 272.14,44.95 272.26,44.95 272.37,35.79 272.48,35.79 272.60,35.79 272.71,34.03 272.83,34.03 272.94,30.21 273.06,30.21 273.17,30.21 273.28,26.97 273.40,26.97 273.51,26.97 273.63,21.79 273.74,21.79 273.85,21.79 273.97,27.71 274.08,27.71 274.20,27.71 274.31,27.71 274.43,37.15 274.54,37.15 274.65,37.15 274.77,32.06 274.88,42.22 275.00,42.22 275.11,32.83 275.22,32.83 275.34,32.83 275.45,27.06 275.57,27.06 275.68,27.06 275.80,27.48 275.91,27.48 276.02,22.94 276.14,22.94 276.25,22.94 276.37,28.10 276.48,21.23 276.59,21.23 276.71,21.23 276.82,28.84 276.94,26.38 277.05,26.38 277.16,26.38 277.28,28.12 277.39,28.12 277.51,23.63 277.62,23.63 277.74,31.88 277.85,27.87 277.96,27.87 278.08,27.87 278.19,23.11 278.31,23.11 278.42,23.11 278.53,28.75 278.65,28.75 278.76,25.91 278.88,25.91 278.99,25.91 279.11,23.15 279.22,33.03 279.33,33.03 279.45,33.03 279.56,23.72 279.68,23.72 279.79,36.51 279.90,28.28 280.02,28.28 280.13,28.28 280.25,28.28 280.36,30.21 280.48,30.21 280.59,30.21 280.70,21.03 280.82,31.78 280.93,31.78 281.05,24.18 281.16,24.18 281.27,24.18 281.39,34.42 281.50,28.76 281.62,28.76 281.73,28.76 281.85,21.87 281.96,21.87 282.07,24.37 282.19,24.37 282.30,24.37 282.42,24.37 282.53,16.04 282.64,24.01 282.76,24.01 282.87,16.27 282.99,16.27 283.10,24.19 283.22,24.19 283.33,24.19 283.44,17.19 283.56,22.38 283.67,22.38 283.79,22.38 283.90,22.02 284.01,22.02 284.13,22.02 284.24,14.98 284.36,14.98 284.47,14.98 284.58,15.53 284.70,15.53 284.81,15.53 284.93,16.44 285.04,16.44 285.16,16.44 285.27,22.57 285.38,22.57 285.50,22.57 285.61,19.94 285.73,19.94 285.84,27.06 285.95,21.55 286.07,21.55 286.18,21.55 286.30,19.32 286.41,19.32 286.53,19.32 286.64,17.99 286.75,29.69 286.87,29.69 286.98,27.85 287.10,27.85 287.21,27.85 287.32,23.64 287.44,33.38 287.55,33.38 287.67,33.38 287.78,32.20 287.90,24.48 288.01,24.48 288.12,24.48 288.24,30.40 288.35,30.40 288.47,30.40 288.58,36.34 288.69,29.44 288.81,29.44 288.92,33.90 289.04,33.90 289.15,33.90 289.27,33.90 289.38,27.32 289.49,27.32 289.61,27.32 289.72,32.65 289.84,32.65 289.95,27.26 290.06,27.26 290.18,35.11 290.29,35.11 290.41,35.11 290.52,38.82 290.63,38.82 290.75,38.82 290.86,41.55 290.98,41.55 291.09,41.55 291.21,45.07 291.32,45.07 291.43,45.07 291.55,43.90 291.66,43.90 291.78,43.90 291.89,38.43 292.00,38.43 292.12,38.43 292.23,37.79 292.35,37.79 292.46,42.84 292.58,42.84 292.69,42.84 292.80,43.04 292.92,43.04 293.03,43.04 293.15,36.89 293.26,39.83 293.37,39.83 293.49,39.83 293.60,30.78 293.72,33.09 293.83,33.09 293.95,33.09 294.06,37.37 294.17,37.37 294.29,28.55 294.40,28.55 294.52,28.55 294.63,32.56 294.74,32.56 294.86,32.56 294.97,26.81 295.09,26.81 295.20,32.24 295.32,32.24 295.43,32.24 295.54,30.41 295.66,30.41 295.77,30.41 295.89,31.84 296.00,31.84" />
</svg>