<svg width="300" height="60" xmlns="http://www.w3.org/2000/svg">
  <polyline fill="rgba(255,200,0,0.3)" stroke="#ffbb00" stroke-width="2" points="4.00,44.01 6.98,44.31 9.96,46.58 12.94,46.72 15.92,46.28 18.90,45.22 21.88,44.23 24.86,43.27 27.84,42.87 30.82,41.77 33.80,41.30 36.78,42.13 39.76,41.10 42.73,37.27 45.71,34.72 48.69,32.52 51.67,30.51 54.65,28.59 57.63,27.24 60.61,25.45 63.59,24.63 66.57,23.24 69.55,22.10 72.53,19.29 75.51,17.67 78.49,16.00 81.47,14.42 84.45,12.47 87.43,10.65 90.41,9.02 93.39,7.43 96.37,5.70 99.35,4.34 102.33,44.82 105.31,50.39 108.29,43.72 111.27,47.91 114.24,46.82 117.22,45.53 120.20,44.48 123.18,43.48 126.16,42.53 129.14,47.34 132.12,40.58 135.10,49.52 138.08,40.29 141.06,44.29 144.04,35.19 147.02,33.24 150.00,31.58 152.98,29.29 155.96,33.19 158.94,29.26 161.92,23.60 164.90,22.31 167.88,23.98 170.86,18.69 173.84,22.64 176.82,21.83 179.80,14.49 182.78,12.71 185.76,10.14 188.73,11.62 191.71,6.52 194.69,5.10 197.67,4.00 200.65,50.37 203.63,50.37 206.61,50.37 209.59,30.89 212.57,56.00 215.55,56.00 218.53,43.53 221.51,43.53 224.49,43.53 227.47,50.81 230.45,50.81 233.43,50.81 236.41,36.72 239.39,36.72 242.37,36.72 245.35,16.73 248.33,46.29 251.31,46.29 254.29,29.96 257.27,29.96 260.24,37.20 263.22,37.20 266.20,37.20 269.18,16.63 272.16,16.63 275.14,16.63 278.12,16.63 281.10,16.63 284.08,16.63 287.06,16.63 290.04,5.12 293.02,5.12 296.00,5.12" />
</svg>