<svg width="300" height="60" xmlns="http://www.w3.org/2000/svg">
  <polyline fill="rgba(255,200,0,0.3)" stroke="#ffbb00" stroke-width="2" points="4.00,41.70 4.50,43.13 5.01,43.81 5.51,45.13 6.02,46.47 6.52,46.87 7.03,47.84 7.53,49.01 8.03,49.95 8.54,50.96 9.04,51.96 9.55,52.94 10.05,53.78 10.56,54.50 11.06,54.66 11.56,52.90 12.07,52.04 12.57,49.72 13.08,48.76 13.58,47.67 14.09,46.09 14.59,46.25 15.09,46.14 15.60,45.70 16.10,45.55 16.61,46.41 17.11,47.92 17.62,49.62 18.12,49.59 18.63,49.70 19.13,50.95 19.63,50.28 20.14,49.85 20.64,48.04 21.15,46.30 21.65,43.59 22.16,42.19 22.66,42.23 23.16,43.78 23.67,45.05 24.17,45.51 24.68,44.55 25.18,41.98 25.69,39.93 26.19,38.93 26.69,38.43 27.20,37.75 27.70,39.59 28.21,39.60 28.71,39.58 29.22,39.58 29.72,40.14 30.22,41.26 30.73,41.34 31.23,41.73 31.74,42.44 32.24,41.41 32.75,41.06 33.25,40.33 33.75,39.92 34.26,39.39 34.76,36.98 35.27,33.26 35.77,30.98 36.28,29.15 36.78,28.25 37.28,28.98 37.79,30.09 38.29,30.21 38.80,30.73 39.30,30.43 39.81,29.81 40.31,28.63 40.82,28.85 41.32,30.34 41.82,33.25 42.33,34.05 42.83,35.54 43.34,34.72 43.84,34.51 44.35,33.85 44.85,32.34 45.35,32.46 45.86,31.56 46.36,31.20 46.87,30.59 47.37,29.67 47.88,24.76 48.38,22.64 48.88,22.70 49.39,23.25 49.89,24.50 50.40,25.99 50.90,28.29 51.41,28.26 51.91,26.85 52.41,23.47 52.92,20.35 53.42,18.12 53.93,16.38 54.43,15.57 54.94,16.45 55.44,17.93 55.94,19.94 56.45,22.60 56.95,23.46 57.46,23.23 57.96,23.19 58.47,22.76 58.97,22.31 59.47,21.67 59.98,20.54 60.48,19.86 60.99,19.63 61.49,18.72 62.00,16.33 62.50,13.51 63.01,12.22 63.51,11.88 64.01,11.11 64.52,11.66 65.02,11.74 65.53,13.36 66.03,13.74 66.54,13.69 67.04,12.85 67.54,12.61 68.05,12.56 68.55,13.00 69.06,12.54 69.56,12.33 70.07,12.11 70.57,11.68 71.07,11.71 71.58,11.70 72.08,11.65 72.59,11.18 73.09,10.75 73.60,10.35 74.10,10.14 74.60,10.10 75.11,10.32 75.61,10.88 76.12,11.17 76.62,11.66 77.13,41.74 77.63,43.11 78.13,43.81 78.64,45.11 79.14,46.49 79.65,46.88 80.15,47.88 80.66,49.04 81.16,49.93 81.66,50.94 82.17,51.99 82.67,52.94 83.18,53.77 83.68,54.52 84.19,54.68 84.69,52.90 85.20,52.03 85.70,49.74 86.20,48.78 86.71,47.67 87.21,46.08 87.72,46.26 88.22,46.14 88.73,45.71 89.23,45.59 89.73,46.42 90.24,47.96 90.74,49.63 91.25,49.63 91.75,49.70 92.26,50.94 92.76,50.28 93.26,49.85 93.77,48.04 94.27,46.29 94.78,43.57 95.28,42.22 95.79,42.24 96.29,43.76 96.79,45.06 97.30,45.51 97.80,44.55 98.31,41.98 98.81,39.95 99.32,38.97 99.82,38.48 100.32,37.83 100.83,39.65 101.33,39.63 101.84,39.65 102.34,39.64 102.85,40.17 103.35,41.27 103.85,41.34 104.36,41.74 104.86,42.43 105.37,41.38 105.87,41.05 106.38,40.33 106.88,39.91 107.39,39.38 107.89,36.97 108.39,33.27 108.90,31.01 109.40,29.17 109.91,28.27 110.41,28.99 110.92,30.09 111.42,30.20 111.92,30.72 112.43,30.44 112.93,29.81 113.44,28.63 113.94,28.83 114.45,30.33 114.95,33.28 115.45,34.08 115.96,35.57 116.46,34.72 116.97,34.48 117.47,33.85 117.98,32.34 118.48,32.49 118.98,31.56 119.49,31.20 119.99,30.55 120.50,29.64 121.00,24.77 121.51,22.69 122.01,22.70 122.51,23.26 123.02,24.51 123.52,25.99 124.03,28.30 124.53,28.26 125.04,26.85 125.54,23.46 126.04,20.34 126.55,18.12 127.05,16.39 127.56,15.56 128.06,16.44 128.57,17.95 129.07,19.96 129.58,22.63 130.08,23.45 130.58,23.22 131.09,23.18 131.59,22.76 132.10,22.31 132.60,21.69 133.11,20.53 133.61,19.86 134.11,19.61 134.62,18.73 135.12,16.32 135.63,13.54 136.13,12.26 136.64,11.91 137.14,11.16 137.64,11.68 138.15,11.75 138.65,13.37 139.16,13.74 139.66,13.68 140.17,12.84 140.67,12.60 141.17,12.59 141.68,13.01 142.18,12.55 142.69,12.33 143.19,12.11 143.70,11.68 144.20,11.73 144.70,11.70 145.21,11.65 145.71,11.18 146.22,10.75 146.72,10.35 147.23,10.14 147.73,10.11 148.23,10.34 148.74,10.85 149.24,11.16 149.75,11.63 150.25,41.66 150.76,43.40 151.26,44.19 151.77,44.70 152.27,45.41 152.77,46.55 153.28,47.85 153.78,49.22 154.29,50.18 154.79,51.35 155.30,52.11 155.80,52.59 156.30,53.73 156.81,54.82 157.31,53.44 157.82,53.44 158.32,51.66 158.83,50.15 159.33,49.04 159.83,46.90 160.34,47.41 160.84,46.32 161.35,45.38 161.85,46.11 162.36,46.23 162.86,47.16 163.36,47.16 163.87,49.36 164.37,49.54 164.88,49.90 165.38,50.20 165.89,50.20 166.39,50.08 166.89,48.02 167.40,47.63 167.90,44.26 168.41,42.42 168.91,42.42 169.42,43.42 169.92,45.25 170.42,45.07 170.93,44.50 171.43,42.91 171.94,38.72 172.44,37.85 172.95,38.33 173.45,41.40 173.96,42.46 174.46,37.34 174.96,39.93 175.47,41.57 175.97,41.57 176.48,39.53 176.98,40.52 177.49,41.63 177.99,41.81 178.49,41.12 179.00,41.02 179.50,40.32 180.01,39.83 180.51,39.38 181.02,35.85 181.52,32.69 182.02,32.09 182.53,27.63 183.03,28.36 183.54,30.01 184.04,29.93 184.55,30.59 185.05,30.59 185.55,29.99 186.06,29.93 186.56,27.85 187.07,28.78 187.57,30.98 188.08,33.12 188.58,35.59 189.08,35.05 189.59,34.59 190.09,34.17 190.60,34.17 191.10,32.19 191.61,32.40 192.11,32.22 192.61,31.13 193.12,30.69 193.62,28.52 194.13,25.57 194.63,22.56 195.14,24.00 195.64,21.78 196.15,23.73 196.65,26.29 197.15,28.16 197.66,28.44 198.16,26.18 198.67,23.47 199.17,19.26 199.68,18.00 200.18,15.23 200.68,15.23 201.19,16.58 201.69,16.76 202.20,19.98 202.70,21.25 203.21,23.47 203.71,23.17 204.21,23.14 204.72,22.15 205.22,22.03 205.73,21.52 206.23,19.50 206.74,19.72 207.24,19.84 207.74,18.69 208.25,17.55 208.75,11.98 209.26,12.94 209.76,14.14 210.27,10.59 210.77,12.32 211.27,14.40 211.78,13.25 212.28,14.22 212.79,14.22 213.29,12.26 213.80,12.11 214.30,13.10 214.80,11.93 215.31,12.36 215.81,12.60 216.32,13.38 216.82,10.70 217.33,10.85 217.83,10.79 218.34,11.57 218.84,11.03 219.34,10.35 219.85,8.70 220.35,10.32 220.86,10.17 221.36,10.41 221.87,10.84 222.37,11.35 222.87,10.41 223.38,41.66 223.88,41.66 224.39,38.41 224.89,46.48 225.40,46.48 225.90,46.48 226.40,48.28 226.91,48.28 227.41,48.28 227.92,52.59 228.42,52.59 228.93,52.59 229.43,52.59 229.93,56.00 230.44,52.26 230.94,52.26 231.45,52.26 231.95,50.87 232.46,50.87 232.96,46.57 233.46,46.78 233.97,46.78 234.47,46.78 234.98,46.78 235.48,47.17 235.99,47.17 236.49,47.17 236.99,47.17 237.50,49.81 238.00,49.81 238.51,49.81 239.01,49.81 239.52,49.15 240.02,45.02 240.53,45.02 241.03,45.54 241.53,45.54 242.04,45.54 242.54,39.39 243.05,45.08 243.55,45.08 244.06,45.08 244.56,42.74 245.06,42.74 245.57,42.74 246.07,41.29 246.58,41.29 247.08,41.29 247.59,35.48 248.09,35.48 248.59,35.48 249.10,35.48 249.60,40.51 250.11,40.51 250.61,40.51 251.12,41.12 251.62,41.12 252.12,41.12 252.63,39.92 253.13,39.92 253.64,39.92 254.14,29.65 254.65,29.65 255.15,29.65 255.65,28.35 256.16,28.35 256.66,28.35 257.17,34.98 257.67,34.98 258.18,34.98 258.68,27.92 259.18,27.83 259.69,27.83 260.19,27.83 260.70,34.49 261.20,34.49 261.71,34.49 262.21,34.40 262.72,34.40 263.22,34.40 263.72,34.40 264.23,32.48 264.73,32.48 265.24,32.48 265.74,30.04 266.25,30.04 266.75,30.04 267.25,27.42 267.76,27.42 268.26,27.42 268.77,20.29 269.27,24.41 269.78,24.41 270.28,24.41 270.78,27.18 271.29,27.18 271.79,27.18 272.30,15.29 272.80,15.29 273.31,15.29 273.81,15.29 274.31,19.26 274.82,19.26 275.32,19.26 275.83,22.52 276.33,22.52 276.84,22.52 277.34,22.16 277.84,22.16 278.35,22.16 278.85,22.10 279.36,18.51 279.86,18.51 280.37,18.51 280.87,17.52 281.37,17.52 281.88,17.52 282.38,18.06 282.89,18.06 283.39,4.00 283.90,10.59 284.40,10.59 284.91,10.59 285.41,14.87 285.91,14.87 286.42,14.87 286.92,14.87 287.43,14.66 287.93,9.78 288.44,9.78 288.94,11.10 289.44,11.10 289.95,11.10 290.45,10.78 290.96,10.78 291.46,10.78 291.97,10.35 292.47,10.35 292.97,10.35 293.48,7.10 293.98,7.10 294.49,7.10 294.99,7.76 295.50,7.76 296.00,9.06" />
</svg>