<svg width="300" height="60" xmlns="http://www.w3.org/2000/svg">
  <polyline fill="rgba(255,200,0,0.3)" stroke="#ffbb00" stroke-width="2" points="4.00,32.08 4.33,35.90 4.65,38.39 4.98,39.01 5.31,39.05 5.63,38.23 5.96,36.38 6.29,35.92 6.62,35.63 6.94,35.57 7.27,35.34 7.60,35.39 7.92,35.97 8.25,36.23 8.58,36.55 8.90,35.91 9.23,34.56 9.56,33.31 9.89,33.80 10.21,35.40 10.54,35.70 10.87,37.47 11.19,37.32 11.52,37.14 11.85,39.15 12.17,41.47 12.50,42.82 12.83,43.33 13.16,43.11 13.48,42.81 13.81,41.66 14.14,38.82 14.46,37.52 14.79,36.66 15.12,34.86 15.44,32.97 15.77,31.51 16.10,31.25 16.43,30.86 16.75,30.61 17.08,30.33 17.41,29.94 17.73,29.77 18.06,28.84 18.39,28.99 18.71,28.39 19.04,27.06 19.37,25.96 19.70,25.99 20.02,25.04 20.35,24.52 20.68,25.32 21.00,24.89 21.33,25.45 21.66,26.45 21.98,27.08 22.31,27.59 22.64,26.72 22.97,25.74 23.29,26.95 23.62,29.40 23.95,28.63 24.27,29.55 24.60,28.11 24.93,25.47 25.25,24.35 25.58,24.66 25.91,25.43 26.24,26.18 26.56,29.72 26.89,30.53 27.22,32.44 27.54,33.94 27.87,30.77 28.20,27.17 28.52,25.95 28.85,26.04 29.18,25.08 29.51,24.69 29.83,24.40 30.16,26.59 30.49,27.17 30.81,29.11 31.14,32.03 31.47,34.11 31.79,32.94 32.12,31.84 32.45,30.86 32.77,30.90 33.10,30.41 33.43,28.82 33.76,27.18 34.08,26.51 34.41,25.93 34.74,24.10 35.06,23.35 35.39,24.29 35.72,25.24 36.04,25.78 36.37,25.75 36.70,24.63 37.03,22.56 37.35,20.26 37.68,18.17 38.01,17.41 38.33,20.33 38.66,22.37 38.99,21.81 39.31,20.43 39.64,18.06 39.97,16.94 40.30,16.48 40.62,15.78 40.95,17.05 41.28,17.92 41.60,18.46 41.93,17.59 42.26,16.88 42.58,17.68 42.91,19.16 43.24,19.47 43.57,17.65 43.89,15.97 44.22,13.89 44.55,12.47 44.87,11.02 45.20,9.58 45.53,8.89 45.85,8.38 46.18,7.91 46.51,7.88 46.84,8.35 47.16,8.73 47.49,8.78 47.82,7.22 48.14,5.34 48.47,5.59 48.80,6.53 49.12,7.11 49.45,9.36 49.78,12.49 50.11,15.14 50.43,16.21 50.76,16.69 51.09,17.92 51.41,19.10 51.74,21.70 52.07,22.68 52.39,24.74 52.72,26.06 53.05,26.49 53.38,27.09 53.70,28.18 54.03,29.65 54.36,30.35 54.68,31.75 55.01,32.30 55.34,33.29 55.66,33.14 55.99,31.68 56.32,31.49 56.65,30.55 56.97,31.66 57.30,32.80 57.63,34.57 57.95,36.73 58.28,39.50 58.61,41.08 58.93,41.80 59.26,42.06 59.59,41.23 59.91,41.59 60.24,42.68 60.57,44.39 60.90,45.40 61.22,46.00 61.55,45.93 61.88,45.68 62.20,45.16 62.53,44.78 62.86,44.28 63.18,44.43 63.51,43.96 63.84,43.08 64.17,42.21 64.49,41.65 64.82,40.82 65.15,40.33 65.47,40.14 65.80,39.70 66.13,39.21 66.45,38.54 66.78,36.01 67.11,34.26 67.44,33.16 67.76,32.33 68.09,31.98 68.42,32.24 68.74,32.63 69.07,32.75 69.40,32.75 69.72,32.80 70.05,32.81 70.38,32.96 70.71,33.33 71.03,34.91 71.36,34.07 71.69,32.74 72.01,32.30 72.34,31.24 72.67,30.03 72.99,29.52 73.32,29.04 73.65,28.26 73.98,27.01 74.30,26.33 74.63,25.57 74.96,25.54 75.28,25.21 75.61,23.93 75.94,22.72 76.26,22.02 76.59,19.54 76.92,19.94 77.25,22.06 77.57,24.74 77.90,25.97 78.23,27.90 78.55,29.91 78.88,33.42 79.21,36.39 79.53,39.67 79.86,42.06 80.19,39.88 80.52,37.09 80.84,36.46 81.17,36.31 81.50,36.39 81.82,36.70 82.15,36.84 82.48,36.64 82.80,36.52 83.13,35.47 83.46,34.11 83.78,33.61 84.11,33.21 84.44,33.00 84.77,32.92 85.09,32.92 85.42,32.66 85.75,32.39 86.07,32.00 86.40,32.07 86.73,31.99 87.05,31.39 87.38,30.98 87.71,30.82 88.04,30.14 88.36,31.66 88.69,32.71 89.02,33.04 89.34,32.08 89.67,31.38 90.00,31.30 90.32,32.32 90.65,35.11 90.98,38.59 91.31,41.08 91.63,43.81 91.96,45.46 92.29,47.23 92.61,47.03 92.94,47.56 93.27,48.30 93.59,49.11 93.92,50.02 94.25,50.57 94.58,50.79 94.90,50.69 95.23,50.87 95.56,50.41 95.88,49.80 96.21,49.41 96.54,49.21 96.86,49.81 97.19,49.44 97.52,49.63 97.85,50.55 98.17,51.60 98.50,51.57 98.83,52.17 99.15,53.12 99.48,53.99 99.81,54.71 100.13,55.35 100.46,55.67 100.79,56.00 101.12,55.49 101.44,31.24 101.77,35.80 102.10,39.27 102.42,40.99 102.75,40.60 103.08,40.22 103.40,38.59 103.73,37.40 104.06,35.40 104.39,35.46 104.71,35.43 105.04,35.88 105.37,33.77 105.69,36.77 106.02,37.42 106.35,31.94 106.67,35.67 107.00,29.85 107.33,33.64 107.66,30.27 107.98,35.66 108.31,38.12 108.64,36.96 108.96,39.15 109.29,37.41 109.62,42.21 109.94,42.21 110.27,40.82 110.60,44.94 110.92,42.48 111.25,38.86 111.58,42.63 111.91,34.51 112.23,31.96 112.56,36.55 112.89,33.90 113.21,31.54 113.54,31.54 113.87,30.80 114.19,30.42 114.52,30.03 114.85,30.03 115.18,30.00 115.50,28.79 115.83,31.33 116.16,31.99 116.48,26.10 116.81,26.84 117.14,22.96 117.46,20.85 117.79,25.83 118.12,25.36 118.45,24.64 118.77,25.41 119.10,26.64 119.43,28.57 119.75,26.79 120.08,25.13 120.41,22.11 120.73,27.50 121.06,25.71 121.39,27.82 121.72,27.55 122.04,28.71 122.37,24.62 122.70,24.62 123.02,22.40 123.35,25.42 123.68,24.56 124.00,28.78 124.33,29.20 124.66,31.24 124.99,32.75 125.31,31.65 125.64,30.14 125.97,25.91 126.29,23.60 126.62,26.47 126.95,24.69 127.27,23.30 127.60,26.83 127.93,27.33 128.26,31.12 128.58,32.28 128.91,35.92 129.24,32.19 129.56,31.15 129.89,31.80 130.22,31.80 130.54,30.59 130.87,27.77 131.20,29.22 131.53,26.23 131.85,25.91 132.18,25.71 132.51,23.34 132.83,25.50 133.16,22.95 133.49,25.03 133.81,26.57 134.14,24.91 134.47,22.72 134.80,20.88 135.12,17.34 135.45,18.55 135.78,20.36 136.10,24.83 136.43,25.75 136.76,18.22 137.08,19.08 137.41,19.08 137.74,15.83 138.06,15.67 138.39,16.77 138.72,18.55 139.05,16.60 139.37,18.88 139.70,18.67 140.03,16.54 140.35,20.21 140.68,19.36 141.01,19.36 141.33,16.78 141.66,13.10 141.99,12.21 142.32,9.72 142.64,9.93 142.97,7.97 143.30,8.50 143.62,8.12 143.95,8.59 144.28,7.53 144.60,8.53 144.93,8.92 145.26,9.33 145.59,8.83 145.91,8.92 146.24,4.00 146.57,7.51 146.89,10.83 147.22,15.48 147.55,15.46 147.87,14.84 148.20,18.13 148.53,15.93 148.86,18.99 149.18,22.21 149.51,23.52 149.84,23.52 150.16,26.04 150.49,25.06 150.82,26.43 151.14,28.45 151.47,27.29 151.80,29.69 152.13,32.30 152.45,35.03 152.78,31.38 153.11,32.48 153.43,31.86 153.76,31.80 154.09,31.80 154.41,28.95 154.74,32.77 155.07,34.97 155.40,38.58 155.72,37.13 156.05,39.93 156.38,42.48 156.70,41.71 157.03,43.05 157.36,40.71 157.68,41.95 158.01,43.40 158.34,45.00 158.67,46.04 158.99,46.69 159.32,45.56 159.65,45.78 159.97,45.31 160.30,44.27 160.63,43.86 160.95,43.06 161.28,42.20 161.61,41.28 161.94,40.78 162.26,40.80 162.59,40.06 162.92,40.12 163.24,39.11 163.57,37.80 163.90,35.76 164.22,34.58 164.55,32.74 164.88,33.00 165.20,33.00 165.53,32.35 165.86,32.26 166.19,32.73 166.51,33.00 166.84,33.86 167.17,29.95 167.49,31.16 167.82,32.89 168.15,33.15 168.47,34.34 168.80,34.34 169.13,33.33 169.46,31.32 169.78,32.26 170.11,30.54 170.44,28.09 170.76,28.89 171.09,27.94 171.42,27.46 171.74,25.68 172.07,26.84 172.40,26.07 172.73,24.00 173.05,23.58 173.38,22.54 173.71,22.12 174.03,19.99 174.36,19.90 174.69,22.30 175.01,25.11 175.34,26.89 175.67,27.01 176.00,29.41 176.32,32.82 176.65,36.99 176.98,39.04 177.30,40.19 177.63,39.83 177.96,36.10 178.28,35.03 178.61,37.28 178.94,36.39 179.27,38.94 179.59,37.31 179.92,37.31 180.25,35.37 180.57,35.55 180.90,35.66 181.23,33.38 181.55,33.06 181.88,32.91 182.21,33.03 182.54,33.38 182.86,33.77 183.19,34.18 183.52,34.17 183.84,34.53 184.17,31.30 184.50,31.01 184.82,29.64 185.15,28.90 185.48,29.08 185.81,31.03 186.13,33.15 186.46,33.83 186.79,34.13 187.11,33.41 187.44,30.60 187.77,33.59 188.09,36.61 188.42,36.61 188.75,40.41 189.08,43.92 189.40,43.36 189.73,45.02 190.06,47.80 190.38,46.82 190.71,48.30 191.04,50.11 191.36,50.14 191.69,50.57 192.02,50.42 192.34,50.27 192.67,50.22 193.00,49.62 193.33,48.14 193.65,49.95 193.98,50.16 194.31,51.40 194.63,48.98 194.96,50.28 195.29,49.95 195.61,53.83 195.94,53.06 196.27,52.53 196.60,52.53 196.92,52.44 197.25,54.19 197.58,55.10 197.90,55.66 198.23,55.93 198.56,55.33 198.88,27.03 199.21,39.26 199.54,39.26 199.87,39.26 200.19,40.24 200.52,40.24 200.85,40.24 201.17,38.44 201.50,38.44 201.83,38.44 202.15,41.72 202.48,41.72 202.81,24.77 203.14,31.96 203.46,31.96 203.79,31.96 204.12,31.96 204.44,39.79 204.77,39.79 205.10,19.37 205.42,30.60 205.75,30.60 206.08,30.60 206.41,45.06 206.73,45.06 207.06,45.06 207.39,45.06 207.71,36.02 208.04,36.02 208.37,36.02 208.69,50.43 209.02,50.43 209.35,31.09 209.68,31.09 210.00,40.86 210.33,40.86 210.66,20.93 210.98,20.93 211.31,33.19 211.64,33.19 211.96,20.84 212.29,20.84 212.62,35.41 212.95,35.41 213.27,31.26 213.60,31.26 213.93,31.86 214.25,31.86 214.58,17.70 214.91,17.70 215.23,27.76 215.56,27.76 215.89,25.42 216.22,25.42 216.54,25.42 216.87,26.78 217.20,26.78 217.52,26.78 217.85,18.29 218.18,20.28 218.50,20.28 218.83,37.98 219.16,36.20 219.48,36.20 219.81,16.01 220.14,16.01 220.47,25.43 220.79,25.43 221.12,25.43 221.45,35.83 221.77,35.83 222.10,39.30 222.43,39.30 222.75,39.30 223.08,35.77 223.41,19.92 223.74,19.92 224.06,28.16 224.39,28.16 224.72,18.50 225.04,27.34 225.37,27.34 225.70,27.34 226.02,39.45 226.35,39.45 226.68,30.83 227.01,29.59 227.33,34.92 227.66,34.92 227.99,34.92 228.31,23.48 228.64,26.24 228.97,26.24 229.29,26.24 229.62,26.03 229.95,26.03 230.28,26.03 230.60,26.86 230.93,25.08 231.26,25.08 231.58,25.08 231.91,26.59 232.24,17.32 232.56,17.32 232.89,17.32 233.22,28.58 233.55,28.58 233.87,28.58 234.20,14.80 234.53,14.80 234.85,14.80 235.18,14.80 235.51,16.79 235.83,16.79 236.16,16.79 236.49,18.89 236.82,18.89 237.14,18.89 237.47,12.99 237.80,24.10 238.12,24.10 238.45,24.10 238.78,10.59 239.10,12.22 239.43,12.22 239.76,12.22 240.09,7.15 240.41,7.15 240.74,12.46 241.07,5.97 241.39,5.97 241.72,8.52 242.05,8.52 242.37,8.52 242.70,8.81 243.03,8.81 243.35,8.81 243.68,12.19 244.01,12.19 244.34,18.97 244.66,18.97 244.99,7.09 245.32,18.12 245.64,18.12 245.97,18.12 246.30,18.36 246.62,20.19 246.95,20.19 247.28,20.19 247.61,25.05 247.93,25.05 248.26,25.05 248.59,31.57 248.91,31.57 249.24,31.57 249.57,38.77 249.89,38.77 250.22,25.80 250.55,28.49 250.88,28.49 251.20,28.49 251.53,33.47 251.86,33.47 252.18,33.47 252.51,30.92 252.84,41.44 253.16,41.44 253.49,39.01 253.82,39.01 254.15,43.07 254.47,43.07 254.80,43.07 255.13,43.07 255.45,44.96 255.78,44.96 256.11,44.96 256.43,45.56 256.76,45.56 257.09,45.56 257.42,41.85 257.74,41.85 258.07,41.85 258.40,39.05 258.72,39.05 259.05,39.05 259.38,37.51 259.70,37.51 260.03,37.51 260.36,35.82 260.69,35.82 261.01,35.82 261.34,29.93 261.67,29.93 261.99,29.93 262.32,35.20 262.65,35.20 262.97,35.20 263.30,35.20 263.63,38.43 263.96,38.43 264.28,38.43 264.61,27.17 264.94,27.17 265.26,27.17 265.59,38.55 265.92,38.55 266.24,38.55 266.57,27.71 266.90,32.27 267.23,32.27 267.55,32.27 267.88,23.97 268.21,27.94 268.53,27.94 268.86,27.94 269.19,29.10 269.51,29.10 269.84,22.41 270.17,22.41 270.49,28.01 270.82,24.04 271.15,24.04 271.48,19.09 271.80,19.09 272.13,25.70 272.46,25.70 272.78,23.60 273.11,23.60 273.44,32.81 273.76,32.81 274.09,43.33 274.42,43.33 274.75,43.33 275.07,36.10 275.40,36.10 275.73,36.10 276.05,44.01 276.38,34.05 276.71,34.05 277.03,38.91 277.36,38.91 277.69,38.91 278.02,38.91 278.34,40.72 278.67,29.23 279.00,29.23 279.32,28.99 279.65,28.99 279.98,28.99 280.30,30.11 280.63,30.11 280.96,30.11 281.29,31.30 281.61,31.30 281.94,31.30 282.27,28.91 282.59,28.91 282.92,28.91 283.25,33.15 283.57,33.15 283.90,33.15 284.23,33.41 284.56,33.41 284.88,33.41 285.21,38.24 285.54,38.24 285.86,38.24 286.19,38.24 286.52,50.98 286.84,40.94 287.17,40.94 287.50,46.83 287.83,46.83 288.15,46.83 288.48,50.89 288.81,50.89 289.13,50.89 289.46,48.52 289.79,48.52 290.11,48.52 290.44,45.79 290.77,45.79 291.10,54.32 291.42,54.86 291.75,54.86 292.08,45.11 292.40,45.11 292.73,53.82 293.06,53.82 293.38,53.82 293.71,52.43 294.04,52.43 294.37,52.43 294.69,52.43 295.02,55.66 295.35,55.66 295.67,55.66 296.00,55.34" />
</svg>