<svg width="300" height="60" xmlns="http://www.w3.org/2000/svg">
  <polyline fill="rgba(255,200,0,0.3)" stroke="#ffbb00" stroke-width="2" points="4.00,55.94 4.80,54.37 5.59,53.30 6.39,51.26 7.18,50.78 7.98,51.01 8.77,50.44 9.57,49.36 10.37,48.32 11.16,47.52 11.96,46.62 12.75,44.54 13.55,42.86 14.34,40.90 15.14,40.25 15.93,39.41 16.73,39.05 17.53,38.78 18.32,38.71 19.12,38.85 19.91,38.94 20.71,38.92 21.50,38.99 22.30,39.06 23.10,39.28 23.89,38.60 24.69,38.51 25.48,39.26 26.28,39.48 27.07,38.72 27.87,36.88 28.66,33.89 29.46,30.26 30.26,28.29 31.05,26.96 31.85,26.45 32.64,26.09 33.44,26.46 34.23,27.77 35.03,29.42 35.83,30.41 36.62,31.28 37.42,30.03 38.21,29.79 39.01,29.12 39.80,28.67 40.60,29.52 41.40,31.00 42.19,33.23 42.99,36.07 43.78,39.31 44.58,37.74 45.37,35.21 46.17,33.23 46.96,31.18 47.76,29.55 48.56,28.38 49.35,27.04 50.15,26.13 50.94,25.71 51.74,25.64 52.53,25.99 53.33,26.69 54.13,27.93 54.92,29.16 55.72,30.76 56.51,31.34 57.31,31.90 58.10,31.03 58.90,30.87 59.69,30.95 60.49,30.98 61.29,31.34 62.08,32.00 62.88,32.49 63.67,30.77 64.47,30.01 65.26,29.17 66.06,27.13 66.86,24.54 67.65,22.51 68.45,21.45 69.24,19.79 70.04,18.00 70.83,15.55 71.63,13.83 72.43,12.20 73.22,10.60 74.02,8.59 74.81,7.26 75.61,5.98 76.40,5.17 77.20,55.96 77.99,54.45 78.79,53.24 79.59,51.29 80.38,50.76 81.18,51.08 81.97,50.40 82.77,49.30 83.56,48.39 84.36,47.50 85.16,46.49 85.95,44.55 86.75,42.71 87.54,40.94 88.34,40.20 89.13,39.23 89.93,39.03 90.72,38.90 91.52,38.76 92.32,38.79 93.11,39.03 93.91,38.92 94.70,39.15 95.50,39.05 96.29,39.11 97.09,38.65 97.89,38.50 98.68,39.20 99.48,39.58 100.27,38.60 101.07,36.75 101.86,33.85 102.66,30.19 103.46,28.09 104.25,27.21 105.05,26.45 105.84,26.02 106.64,26.29 107.43,27.92 108.23,29.44 109.02,30.56 109.82,31.24 110.62,30.17 111.41,29.74 112.21,29.20 113.00,28.80 113.80,29.51 114.59,30.96 115.39,33.20 116.19,36.13 116.98,39.23 117.78,37.85 118.57,35.41 119.37,33.38 120.16,31.23 120.96,29.49 121.75,28.43 122.55,27.18 123.35,26.14 124.14,25.70 124.94,25.52 125.73,25.95 126.53,26.70 127.32,27.94 128.12,29.16 128.92,30.72 129.71,31.43 130.51,31.93 131.30,31.02 132.10,30.91 132.89,30.93 133.69,31.02 134.49,31.33 135.28,31.99 136.08,32.44 136.87,30.82 137.67,30.04 138.46,29.18 139.26,27.26 140.05,24.63 140.85,22.47 141.65,21.65 142.44,19.89 143.24,18.03 144.03,15.50 144.83,13.77 145.62,12.24 146.42,10.59 147.22,8.71 148.01,7.32 148.81,5.98 149.60,5.28 150.40,56.00 151.19,54.92 151.99,53.37 152.78,51.54 153.58,49.44 154.38,49.57 155.17,49.62 155.97,48.91 156.76,48.03 157.56,47.35 158.35,46.51 159.15,45.06 159.95,41.37 160.74,40.17 161.54,39.16 162.33,38.44 163.13,38.20 163.92,38.31 164.72,38.55 165.51,38.83 166.31,39.27 167.11,39.94 167.90,37.88 168.70,38.61 169.49,39.63 170.29,38.94 171.08,38.94 171.88,39.63 172.68,38.93 173.47,39.58 174.27,35.20 175.06,32.04 175.86,28.78 176.65,28.94 177.45,27.40 178.25,25.93 179.04,27.30 179.84,25.93 180.63,28.02 181.43,30.06 182.22,29.32 183.02,31.46 183.81,30.59 184.61,29.66 185.41,27.93 186.20,28.89 187.00,29.44 187.79,31.23 188.59,33.71 189.38,37.02 190.18,38.63 190.98,36.08 191.77,33.72 192.57,31.68 193.36,29.83 194.16,28.51 194.95,27.67 195.75,27.67 196.54,25.50 197.34,25.57 198.14,24.85 198.93,25.78 199.73,26.89 200.52,27.63 201.32,29.57 202.11,31.55 202.91,31.06 203.71,32.21 204.50,31.37 205.30,30.88 206.09,30.66 206.89,30.95 207.68,30.95 208.48,31.44 209.28,31.33 210.07,30.53 210.87,29.25 211.66,29.25 212.46,27.45 213.25,23.54 214.05,21.74 214.84,20.20 215.64,19.00 216.44,17.83 217.23,15.90 218.03,13.68 218.82,11.67 219.62,9.65 220.41,9.16 221.21,6.97 222.01,5.23 222.80,5.84 223.60,54.97 224.39,54.97 225.19,49.34 225.98,49.34 226.78,49.34 227.57,49.34 228.37,47.96 229.17,47.96 229.96,47.96 230.76,45.03 231.55,45.03 232.35,45.03 233.14,35.61 233.94,35.61 234.74,35.61 235.53,33.99 236.33,33.99 237.12,33.99 237.92,34.42 238.71,34.42 239.51,34.42 240.31,36.52 241.10,36.52 241.90,36.52 242.69,40.82 243.49,40.82 244.28,40.82 245.08,36.98 245.87,36.98 246.67,41.48 247.47,35.73 248.26,35.73 249.06,30.41 249.85,30.41 250.65,30.41 251.44,26.13 252.24,26.13 253.04,26.13 253.83,30.68 254.63,30.68 255.42,30.68 256.22,30.68 257.01,29.42 257.81,29.42 258.60,29.42 259.40,29.42 260.20,35.08 260.99,35.08 261.79,35.08 262.58,35.59 263.38,35.59 264.17,35.59 264.97,30.14 265.77,30.14 266.56,30.14 267.36,27.62 268.15,27.62 268.95,27.62 269.74,23.27 270.54,25.33 271.34,25.33 272.13,25.33 272.93,29.91 273.72,29.91 274.52,29.91 275.31,31.42 276.11,31.42 276.90,31.42 277.70,31.42 278.50,29.98 279.29,28.08 280.09,28.08 280.88,28.08 281.68,30.73 282.47,26.08 283.27,26.08 284.07,26.08 284.86,26.08 285.66,20.26 286.45,20.26 287.25,20.26 288.04,15.71 288.84,15.71 289.63,15.71 290.43,15.71 291.23,9.59 292.02,9.59 292.82,9.59 293.61,4.11 294.41,4.11 295.20,4.11 296.00,4.00" />
</svg>