<svg width="300" height="60" xmlns="http://www.w3.org/2000/svg">
  <polyline fill="rgba(255,200,0,0.3)" stroke="#ffbb00" stroke-width="2" points="4.00,55.75 5.01,55.57 6.01,55.28 7.02,54.86 8.03,54.17 9.03,53.41 10.04,52.54 11.05,51.71 12.06,50.91 13.06,50.17 14.07,49.62 15.08,48.39 16.08,47.68 17.09,47.34 18.10,46.93 19.10,46.02 20.11,45.08 21.12,43.88 22.12,42.68 23.13,41.98 24.14,40.19 25.14,39.07 26.15,38.06 27.16,37.25 28.17,36.84 29.17,36.93 30.18,37.41 31.19,37.43 32.19,38.57 33.20,39.59 34.21,38.99 35.21,38.26 36.22,37.20 37.23,35.90 38.23,35.06 39.24,34.52 40.25,34.35 41.26,34.68 42.26,34.64 43.27,34.36 44.28,35.04 45.28,35.26 46.29,35.58 47.30,35.57 48.30,36.11 49.31,36.61 50.32,36.41 51.32,36.09 52.33,36.11 53.34,35.95 54.34,35.70 55.35,35.49 56.36,35.64 57.37,35.06 58.37,34.86 59.38,34.43 60.39,34.06 61.39,33.89 62.40,33.56 63.41,33.32 64.41,32.86 65.42,32.34 66.43,31.71 67.43,30.84 68.44,30.30 69.45,29.68 70.46,28.93 71.46,28.22 72.47,27.51 73.48,26.65 74.48,25.13 75.49,24.12 76.50,23.31 77.50,22.92 78.51,22.03 79.52,21.31 80.52,20.29 81.53,19.36 82.54,18.52 83.54,17.84 84.55,18.14 85.56,17.72 86.57,17.41 87.57,16.60 88.58,16.16 89.59,15.46 90.59,15.19 91.60,15.00 92.61,13.86 93.61,12.49 94.62,10.91 95.63,10.31 96.63,9.29 97.64,8.45 98.65,7.68 99.66,6.76 100.66,4.26 101.67,55.33 102.68,55.41 103.68,56.00 104.69,54.59 105.70,54.65 106.70,53.61 107.71,52.72 108.72,51.89 109.72,51.12 110.73,50.35 111.74,49.39 112.74,49.11 113.75,48.16 114.76,47.57 115.77,46.68 116.77,46.68 117.78,45.44 118.79,44.12 119.79,42.62 120.80,41.11 121.81,41.11 122.81,39.93 123.82,38.63 124.83,37.59 125.83,37.80 126.84,37.33 127.85,37.01 128.86,38.01 129.86,37.80 130.87,39.47 131.88,38.20 132.88,39.11 133.89,37.73 134.90,36.32 135.90,35.26 136.91,34.98 137.92,34.48 138.92,34.75 139.93,34.80 140.94,35.30 141.94,35.51 142.95,35.51 143.96,36.45 144.97,36.00 145.97,37.70 146.98,37.13 147.99,36.65 148.99,37.01 150.00,36.43 151.01,36.24 152.01,35.81 153.02,36.06 154.03,35.47 155.03,35.30 156.04,34.75 157.05,34.45 158.06,34.44 159.06,33.49 160.07,33.42 161.08,33.56 162.08,32.21 163.09,31.95 164.10,31.72 165.10,31.57 166.11,30.19 167.12,29.76 168.12,29.32 169.13,28.55 170.14,27.44 171.14,26.55 172.15,25.74 173.16,23.54 174.17,22.94 175.17,22.67 176.18,22.28 177.19,21.48 178.19,20.37 179.20,19.09 180.21,17.69 181.21,18.52 182.22,17.99 183.23,17.09 184.23,17.39 185.24,17.31 186.25,17.14 187.26,14.93 188.26,14.59 189.27,14.61 190.28,14.54 191.28,12.64 192.29,10.77 193.30,10.81 194.30,9.28 195.31,9.42 196.32,7.58 197.32,7.55 198.33,4.00 199.34,54.83 200.34,54.83 201.35,54.83 202.36,55.86 203.37,55.86 204.37,55.86 205.38,52.99 206.39,52.99 207.39,52.99 208.40,50.47 209.41,50.47 210.41,51.09 211.42,51.09 212.43,47.61 213.43,48.89 214.44,48.89 215.45,48.89 216.46,44.10 217.46,44.10 218.47,45.27 219.48,45.27 220.48,40.55 221.49,40.55 222.50,40.55 223.50,37.89 224.51,37.89 225.52,37.89 226.52,42.07 227.53,42.07 228.54,42.07 229.54,39.31 230.55,39.31 231.56,39.31 232.57,45.25 233.57,39.31 234.58,39.31 235.59,39.31 236.59,36.20 237.60,36.20 238.61,42.25 239.61,39.69 240.62,39.69 241.63,39.69 242.63,39.69 243.64,38.40 244.65,38.40 245.66,38.40 246.66,40.86 247.67,40.86 248.68,40.86 249.68,37.13 250.69,37.13 251.70,37.13 252.70,37.13 253.71,37.72 254.72,37.72 255.72,37.72 256.73,34.54 257.74,34.54 258.74,34.54 259.75,33.14 260.76,33.14 261.77,33.14 262.77,32.13 263.78,33.03 264.79,33.03 265.79,33.03 266.80,29.16 267.81,29.16 268.81,29.16 269.82,25.99 270.83,24.17 271.83,24.17 272.84,19.54 273.85,19.54 274.86,19.54 275.86,16.73 276.87,16.73 277.88,16.73 278.88,21.34 279.89,17.02 280.90,17.02 281.90,18.91 282.91,18.91 283.92,18.91 284.92,19.02 285.93,19.02 286.94,18.79 287.94,18.79 288.95,12.77 289.96,12.77 290.97,12.77 291.97,13.06 292.98,13.06 293.99,7.57 294.99,7.80 296.00,7.80" />
</svg>