<svg width="300" height="60" xmlns="http://www.w3.org/2000/svg">
  <polyline fill="rgba(255,200,0,0.3)" stroke="#ffbb00" stroke-width="2" points="4.00,10.43 4.25,8.69 4.51,8.07 4.76,8.75 5.02,8.05 5.27,9.27 5.53,10.69 5.78,12.67 6.04,15.57 6.29,16.75 6.55,19.23 6.80,21.29 7.06,24.27 7.31,25.27 7.57,25.40 7.82,25.75 8.08,26.08 8.33,26.95 8.59,28.54 8.84,29.39 9.10,29.93 9.35,29.84 9.61,30.19 9.86,32.59 10.12,35.19 10.37,37.11 10.62,37.90 10.88,39.12 11.13,39.71 11.39,40.33 11.64,40.20 11.90,40.89 12.15,41.34 12.41,42.48 12.66,43.79 12.92,44.72 13.17,45.71 13.43,46.59 13.68,47.57 13.94,47.37 14.19,47.85 14.45,47.01 14.70,49.11 14.96,50.66 15.21,50.17 15.47,52.21 15.72,53.72 15.98,54.23 16.23,54.40 16.49,54.19 16.74,53.27 16.99,39.61 17.25,40.98 17.50,42.84 17.76,42.43 18.01,41.08 18.27,40.84 18.52,41.08 18.78,42.97 19.03,44.39 19.29,47.53 19.54,47.61 19.80,47.39 20.05,49.45 20.31,49.52 20.56,50.58 20.82,52.95 21.07,54.22 21.33,54.43 21.58,55.51 21.84,55.93 22.09,55.71 22.35,55.03 22.60,54.05 22.86,53.22 23.11,51.78 23.36,50.37 23.62,49.14 23.87,48.28 24.13,47.00 24.38,45.69 24.64,46.32 24.89,45.01 25.15,43.87 25.40,42.59 25.66,40.25 25.91,39.65 26.17,38.41 26.42,37.52 26.68,37.15 26.93,36.70 27.19,35.90 27.44,34.67 27.70,33.11 27.95,31.96 28.21,31.27 28.46,30.61 28.72,30.11 28.97,28.72 29.23,26.30 29.48,25.53 29.73,24.96 29.99,24.25 30.24,24.88 30.50,25.59 30.75,26.25 31.01,26.59 31.26,27.23 31.52,27.31 31.77,26.99 32.03,26.30 32.28,26.11 32.54,26.51 32.79,25.83 33.05,24.34 33.30,21.92 33.56,21.14 33.81,18.66 34.07,17.12 34.32,16.58 34.58,17.57 34.83,18.69 35.09,19.52 35.34,19.86 35.60,21.19 35.85,23.21 36.10,23.36 36.36,23.08 36.61,21.76 36.87,19.82 37.12,20.13 37.38,18.88 37.63,17.05 37.89,18.13 38.14,17.44 38.40,17.60 38.65,18.03 38.91,17.22 39.16,16.59 39.42,14.34 39.67,12.70 39.93,11.71 40.18,10.22 40.44,8.58 40.69,8.06 40.95,7.14 41.20,7.40 41.46,35.74 41.71,36.89 41.97,38.92 42.22,40.89 42.47,40.83 42.73,42.81 42.98,44.67 43.24,45.13 43.49,45.51 43.75,46.83 44.00,47.39 44.26,47.19 44.51,47.03 44.77,48.48 45.02,51.05 45.28,10.39 45.53,8.72 45.79,8.00 46.04,8.74 46.30,8.07 46.55,9.23 46.81,10.82 47.06,12.66 47.32,15.52 47.57,16.70 47.83,19.14 48.08,20.86 48.34,24.53 48.59,25.32 48.84,25.59 49.10,25.65 49.35,26.10 49.61,27.25 49.86,27.25 50.12,27.53 50.37,29.18 50.63,29.98 50.88,29.98 51.14,30.18 51.39,32.90 51.65,35.47 51.90,37.19 52.16,37.93 52.41,39.13 52.67,39.49 52.92,40.28 53.18,40.10 53.43,41.00 53.69,41.42 53.94,42.51 54.20,43.80 54.45,44.68 54.71,45.79 54.96,46.53 55.21,47.52 55.47,47.29 55.72,47.89 55.98,47.58 56.23,48.95 56.49,50.00 56.74,50.60 57.00,52.27 57.25,53.65 57.51,54.23 57.76,54.34 58.02,54.30 58.27,53.67 58.53,52.85 58.78,51.86 59.04,50.01 59.29,47.85 59.55,44.45 59.80,44.54 60.06,42.32 60.31,41.04 60.57,40.30 60.82,40.68 61.08,41.00 61.33,38.38 61.58,38.67 61.84,38.37 62.09,38.89 62.35,39.61 62.60,38.89 62.86,38.03 63.11,36.84 63.37,35.30 63.62,35.36 63.88,36.83 64.13,39.93 64.39,40.91 64.64,37.67 64.90,35.50 65.15,34.87 65.41,35.67 65.66,33.21 65.92,31.59 66.17,32.10 66.43,32.69 66.68,32.51 66.94,31.22 67.19,29.67 67.45,29.08 67.70,30.44 67.95,32.87 68.21,29.10 68.46,27.24 68.72,26.35 68.97,25.21 69.23,22.54 69.48,19.18 69.74,16.61 69.99,15.14 70.25,16.06 70.50,17.49 70.76,18.87 71.01,21.39 71.27,22.93 71.52,22.86 71.78,21.28 72.03,20.81 72.29,19.77 72.54,20.24 72.80,21.53 73.05,21.51 73.31,19.97 73.56,16.61 73.82,14.39 74.07,12.92 74.32,13.23 74.58,15.34 74.83,18.02 75.09,21.26 75.34,24.30 75.60,26.64 75.85,28.36 76.11,29.90 76.36,27.56 76.62,26.14 76.87,25.90 77.13,27.50 77.38,27.93 77.64,27.43 77.89,28.26 78.15,30.10 78.40,31.61 78.66,33.93 78.91,35.68 79.17,37.29 79.42,39.19 79.68,40.73 79.93,42.70 80.18,42.58 80.44,41.20 80.69,40.50 80.95,41.07 81.20,43.02 81.46,44.56 81.71,47.39 81.97,47.66 82.22,47.41 82.48,49.41 82.73,49.58 82.99,50.45 83.24,52.92 83.50,54.19 83.75,54.45 84.01,55.41 84.26,56.00 84.52,55.70 84.77,55.04 85.03,54.14 85.28,53.29 85.54,51.61 85.79,50.20 86.05,49.19 86.30,48.31 86.55,46.95 86.81,45.66 87.06,46.27 87.32,45.14 87.57,44.02 87.83,42.37 88.08,40.26 88.34,39.57 88.59,38.52 88.85,37.59 89.10,37.19 89.36,36.73 89.61,35.76 89.87,34.49 90.12,33.17 90.38,31.79 90.63,31.55 90.89,30.66 91.14,29.87 91.40,28.65 91.65,26.50 91.91,25.42 92.16,25.03 92.42,24.42 92.67,24.91 92.92,25.61 93.18,26.28 93.43,26.62 93.69,27.24 93.94,27.28 94.20,26.96 94.45,26.31 94.71,26.13 94.96,26.49 95.22,25.89 95.47,24.46 95.73,22.01 95.98,21.26 96.24,18.49 96.49,17.16 96.75,16.62 97.00,17.58 97.26,18.75 97.51,19.48 97.77,19.92 98.02,21.18 98.28,23.20 98.53,23.29 98.79,22.92 99.04,21.55 99.29,19.68 99.55,19.70 99.80,18.61 100.06,17.32 100.31,18.16 100.57,17.35 100.82,17.85 101.08,17.90 101.33,17.36 101.59,16.55 101.84,14.27 102.10,12.65 102.35,11.52 102.61,10.22 102.86,8.54 103.12,8.23 103.37,7.76 103.63,7.53 103.88,7.48 104.14,8.16 104.39,8.71 104.65,9.80 104.90,11.42 105.16,13.26 105.41,15.56 105.66,17.81 105.92,19.83 106.17,21.82 106.43,22.92 106.68,23.11 106.94,23.62 107.19,23.99 107.45,24.12 107.70,24.10 107.96,23.88 108.21,24.28 108.47,24.60 108.72,25.74 108.98,27.98 109.23,28.82 109.49,27.36 109.74,25.80 110.00,25.34 110.25,26.73 110.51,26.58 110.76,27.00 111.02,28.03 111.27,30.57 111.53,31.93 111.78,31.96 112.03,31.81 112.29,32.22 112.54,33.80 112.80,36.22 113.05,39.10 113.31,39.94 113.56,38.04 113.82,35.94 114.07,35.59 114.33,35.83 114.58,37.02 114.84,38.85 115.09,40.74 115.35,40.84 115.60,42.83 115.86,44.76 116.11,45.33 116.37,46.08 116.62,47.12 116.88,47.40 117.13,46.75 117.39,47.53 117.64,48.31 117.90,50.93 118.15,53.27 118.40,52.88 118.66,51.76 118.91,49.92 119.17,47.89 119.42,44.80 119.68,44.13 119.93,42.34 120.19,40.89 120.44,40.29 120.70,40.97 120.95,40.97 121.21,38.49 121.46,38.68 121.72,38.43 121.97,39.27 122.23,39.51 122.48,38.86 122.74,38.13 122.99,36.84 123.25,35.24 123.50,35.41 123.76,36.74 124.01,39.62 124.27,41.06 124.52,37.77 124.77,35.18 125.03,34.69 125.28,35.63 125.54,33.14 125.79,31.71 126.05,32.16 126.30,32.65 126.56,32.60 126.81,31.44 127.07,29.73 127.32,29.17 127.58,30.43 127.83,32.82 128.09,29.10 128.34,27.53 128.60,26.48 128.85,25.32 129.11,22.60 129.36,19.15 129.62,16.55 129.87,15.25 130.13,16.11 130.38,17.65 130.64,19.28 130.89,20.99 131.14,22.87 131.40,23.10 131.65,21.35 131.91,20.67 132.16,19.95 132.42,20.16 132.67,21.22 132.93,21.46 133.18,19.98 133.44,16.62 133.69,14.53 133.95,12.83 134.20,13.50 134.46,15.46 134.71,18.39 134.97,21.13 135.22,24.40 135.48,26.90 135.73,28.29 135.99,29.79 136.24,27.54 136.50,26.03 136.75,26.08 137.01,27.48 137.26,27.71 137.51,27.02 137.77,28.65 138.02,30.21 138.28,31.59 138.53,33.76 138.79,35.82 139.04,37.30 139.30,39.57 139.55,7.14 139.81,7.43 140.06,7.51 140.32,8.01 140.57,8.70 140.83,9.94 141.08,11.48 141.34,13.33 141.59,15.62 141.85,17.95 142.10,19.86 142.36,21.66 142.61,22.88 142.87,23.12 143.12,23.71 143.38,23.99 143.63,24.03 143.88,24.15 144.14,23.88 144.39,24.28 144.65,24.58 144.90,25.73 145.16,28.01 145.41,28.93 145.67,27.37 145.92,25.84 146.18,25.28 146.43,26.70 146.69,26.57 146.94,26.80 147.20,28.00 147.45,30.40 147.71,31.82 147.96,31.89 148.22,31.90 148.47,31.96 148.73,33.71 148.98,36.35 149.24,38.97 149.49,39.88 149.75,38.16 150.00,36.47 150.25,35.61 150.51,35.75 150.76,36.88 151.02,11.42 151.27,8.48 151.53,8.62 151.78,7.84 152.04,9.22 152.29,10.25 152.55,10.39 152.80,12.12 153.06,14.96 153.31,17.57 153.57,19.20 153.82,20.12 154.08,22.31 154.33,23.20 154.59,25.07 154.84,25.57 155.10,25.21 155.35,28.01 155.61,27.73 155.86,27.38 156.12,30.70 156.37,29.71 156.62,29.78 156.88,30.95 157.13,32.74 157.39,36.84 157.64,37.37 157.90,38.68 158.15,39.77 158.41,41.01 158.66,38.82 158.92,39.70 159.17,40.80 159.43,42.11 159.68,42.39 159.94,44.65 160.19,46.72 160.45,47.64 160.70,47.61 160.96,47.61 161.21,49.02 161.47,47.50 161.72,47.54 161.98,48.17 162.23,52.03 162.49,52.49 162.74,53.13 162.99,54.90 163.25,54.36 163.50,53.72 163.76,54.60 164.01,52.71 164.27,50.52 164.52,50.52 164.78,48.04 165.03,45.50 165.29,42.67 165.54,40.91 165.80,40.52 166.05,40.52 166.31,40.55 166.56,39.81 166.82,38.86 167.07,37.80 167.33,38.57 167.58,38.11 167.84,39.00 168.09,39.78 168.35,37.71 168.60,37.17 168.86,36.22 169.11,35.58 169.36,36.18 169.62,37.63 169.87,41.07 170.13,37.98 170.38,37.52 170.64,35.44 170.89,34.06 171.15,34.16 171.40,31.51 171.66,33.10 171.91,32.53 172.17,33.45 172.42,30.80 172.68,31.12 172.93,30.03 173.19,31.83 173.44,30.03 173.70,31.97 173.95,28.79 174.21,26.81 174.46,23.55 174.72,21.73 174.97,20.11 175.23,16.99 175.48,15.28 175.73,15.85 175.99,18.82 176.24,17.51 176.50,22.14 176.75,21.22 177.01,19.60 177.26,23.38 177.52,21.68 177.77,20.37 178.03,19.80 178.28,20.19 178.54,20.30 178.79,19.77 179.05,15.17 179.30,15.66 179.56,13.32 179.81,12.08 180.07,16.79 180.32,18.10 180.58,20.04 180.83,22.07 181.09,28.26 181.34,28.89 181.60,28.50 181.85,26.03 182.10,24.01 182.36,23.83 182.61,29.00 182.87,28.63 183.12,28.53 183.38,29.59 183.63,31.36 183.89,33.83 184.14,34.08 184.40,34.08 184.65,35.60 184.91,39.49 185.16,41.21 185.42,41.90 185.67,41.90 185.93,39.35 186.18,41.33 186.44,41.23 186.69,42.11 186.95,45.58 187.20,47.17 187.46,47.01 187.71,47.97 187.97,49.06 188.22,49.35 188.47,50.53 188.73,52.51 188.98,53.86 189.24,54.46 189.49,55.73 189.75,55.73 190.00,55.24 190.26,54.49 190.51,54.67 190.77,53.68 191.02,52.30 191.28,47.02 191.53,48.86 191.79,47.27 192.04,46.26 192.30,45.74 192.55,43.94 192.81,44.25 193.06,44.25 193.32,42.34 193.57,41.28 193.83,39.55 194.08,38.31 194.34,37.25 194.59,37.07 194.84,35.89 195.10,34.36 195.35,33.26 195.61,32.38 195.86,31.77 196.12,30.43 196.37,30.92 196.63,29.69 196.88,28.06 197.14,27.24 197.39,24.45 197.65,22.93 197.90,23.10 198.16,22.43 198.41,24.41 198.67,25.44 198.92,26.73 199.18,26.03 199.43,26.77 199.69,27.23 199.94,26.63 200.20,26.70 200.45,26.56 200.71,26.13 200.96,25.17 201.21,21.71 201.47,19.80 201.72,18.21 201.98,17.07 202.23,16.44 202.49,17.73 202.74,19.08 203.00,19.22 203.25,19.32 203.51,21.87 203.76,22.76 204.02,23.36 204.27,21.77 204.53,20.69 204.78,20.79 205.04,19.02 205.29,17.40 205.55,18.32 205.80,17.57 206.06,17.43 206.31,17.56 206.57,17.31 206.82,18.13 207.08,16.85 207.33,15.33 207.58,12.68 207.84,10.63 208.09,8.86 208.35,7.34 208.60,5.92 208.86,8.19 209.11,7.23 209.37,8.98 209.62,7.88 209.88,9.79 210.13,9.68 210.39,10.78 210.64,13.62 210.90,16.56 211.15,16.56 211.41,19.18 211.66,21.62 211.92,23.32 212.17,23.67 212.43,23.60 212.68,23.85 212.94,24.37 213.19,24.42 213.45,24.42 213.70,24.42 213.95,24.81 214.21,26.05 214.46,28.24 214.72,28.24 214.97,26.05 215.23,25.70 215.48,25.41 215.74,26.76 215.99,26.90 216.25,26.40 216.50,29.60 216.76,30.49 217.01,31.62 217.27,32.22 217.52,32.11 217.78,31.62 218.03,31.80 218.29,37.31 218.54,39.01 218.80,38.77 219.05,37.39 219.31,34.10 219.56,36.36 219.82,35.94 220.07,36.47 220.32,39.79 220.58,40.68 220.83,42.16 221.09,43.01 221.34,44.39 221.60,45.12 221.85,44.87 222.11,44.87 222.36,44.73 222.62,47.92 222.87,47.07 223.13,47.88 223.38,51.92 223.64,11.97 223.89,6.19 224.15,7.07 224.40,7.07 224.66,7.07 224.91,10.64 225.17,12.63 225.42,12.63 225.68,12.63 225.93,17.30 226.18,17.30 226.44,17.22 226.69,17.22 226.95,22.37 227.20,22.37 227.46,22.37 227.71,24.56 227.97,24.56 228.22,24.56 228.48,23.75 228.73,23.75 228.99,23.85 229.24,23.85 229.50,23.85 229.75,27.25 230.01,34.93 230.26,34.93 230.52,34.93 230.77,34.93 231.03,40.20 231.28,38.18 231.54,38.18 231.79,40.63 232.05,40.63 232.30,40.63 232.55,45.76 232.81,45.76 233.06,45.76 233.32,47.64 233.57,47.64 233.83,47.64 234.08,44.31 234.34,44.31 234.59,44.31 234.85,48.10 235.10,48.10 235.36,48.10 235.61,54.04 235.87,54.04 236.12,54.04 236.38,54.04 236.63,51.77 236.89,51.77 237.14,51.77 237.40,51.77 237.65,42.29 237.91,45.37 238.16,39.82 238.42,39.82 238.67,39.82 238.92,39.82 239.18,39.82 239.43,39.82 239.69,36.92 239.94,36.92 240.20,36.92 240.45,38.69 240.71,38.69 240.96,32.07 241.22,31.61 241.47,31.61 241.73,29.76 241.98,29.76 242.24,29.76 242.49,39.67 242.75,39.67 243.00,39.67 243.26,32.84 243.51,32.84 243.77,32.84 244.02,32.42 244.28,32.42 244.53,32.42 244.79,35.35 245.04,35.35 245.29,35.35 245.55,27.57 245.80,32.62 246.06,32.62 246.31,32.62 246.57,25.66 246.82,26.93 247.08,26.93 247.33,19.50 247.59,19.50 247.84,19.25 248.10,19.25 248.35,14.41 248.61,14.41 248.86,14.41 249.12,21.74 249.37,21.74 249.63,21.74 249.88,17.57 250.14,17.57 250.39,17.57 250.65,14.46 250.90,14.46 251.16,15.02 251.41,15.02 251.66,15.02 251.92,16.83 252.17,13.22 252.43,13.22 252.68,13.22 252.94,16.79 253.19,16.79 253.45,16.79 253.70,18.67 253.96,18.67 254.21,18.67 254.47,15.89 254.72,15.89 254.98,15.89 255.23,29.19 255.49,29.19 255.74,29.19 256.00,34.43 256.25,34.43 256.51,34.43 256.76,37.54 257.02,37.54 257.27,37.54 257.53,37.54 257.78,46.03 258.03,36.45 258.29,36.45 258.54,36.45 258.80,44.30 259.05,44.30 259.31,37.05 259.56,43.91 259.82,43.91 260.07,43.91 260.33,47.80 260.58,47.91 260.84,47.91 261.09,51.34 261.35,51.34 261.60,51.34 261.86,53.96 262.11,53.96 262.37,54.70 262.62,54.70 262.88,54.70 263.13,54.45 263.39,54.45 263.64,54.45 263.90,50.10 264.15,50.10 264.40,45.04 264.66,45.04 264.91,45.04 265.17,42.00 265.42,42.00 265.68,42.00 265.93,42.00 266.19,40.35 266.44,40.35 266.70,40.35 266.95,41.84 267.21,37.45 267.46,37.45 267.72,34.27 267.97,34.27 268.23,34.27 268.48,29.52 268.74,29.52 268.99,32.85 269.25,28.82 269.50,28.82 269.76,28.82 270.01,24.29 270.27,24.29 270.52,20.23 270.77,20.23 271.03,23.20 271.28,25.21 271.54,25.21 271.79,18.95 272.05,21.18 272.30,28.01 272.56,26.88 272.81,26.88 273.07,26.88 273.32,25.78 273.58,25.78 273.83,21.43 274.09,21.43 274.34,21.43 274.60,17.11 274.85,17.11 275.11,17.11 275.36,16.83 275.62,16.83 275.87,18.08 276.13,18.08 276.38,18.08 276.64,22.47 276.89,22.47 277.14,22.47 277.40,15.75 277.65,15.75 277.91,15.75 278.16,18.15 278.42,18.15 278.67,18.15 278.93,17.09 279.18,17.09 279.44,17.09 279.69,15.64 279.95,15.64 280.20,14.65 280.46,14.65 280.71,11.04 280.97,7.54 281.22,7.54 281.48,7.54 281.73,7.54 281.99,4.00 282.24,4.00 282.50,11.54 282.75,10.30 283.01,10.30 283.26,10.30 283.51,15.53 283.77,15.53 284.02,17.52 284.28,17.52 284.53,23.66 284.79,23.66 285.04,23.69 285.30,23.69 285.55,24.54 285.81,24.54 286.06,24.54 286.32,24.79 286.57,24.79 286.83,24.79 287.08,27.94 287.34,27.94 287.59,24.79 287.85,24.79 288.10,24.79 288.36,27.05 288.61,27.58 288.87,27.58 289.12,27.58 289.38,29.21 289.63,29.21 289.88,29.21 290.14,29.16 290.39,29.16 290.65,29.16 290.90,33.12 291.16,33.12 291.41,33.12 291.67,32.09 291.92,32.09 292.18,32.09 292.43,32.09 292.69,35.91 292.94,35.91 293.20,35.91 293.45,41.19 293.71,41.19 293.96,41.19 294.22,37.72 294.47,37.72 294.73,37.72 294.98,37.72 295.24,46.42 295.49,35.21 295.75,35.21 296.00,49.13" />
</svg>