<svg width="300" height="60" xmlns="http://www.w3.org/2000/svg">
  <polyline fill="rgba(255,200,0,0.3)" stroke="#ffbb00" stroke-width="2" points="4.00,4.00 4.47,4.02 4.94,4.41 5.40,4.85 5.87,5.32 6.34,5.87 6.81,6.36 7.28,6.95 7.74,7.52 8.21,8.01 8.68,8.93 9.15,10.69 9.62,11.34 10.08,11.58 10.55,11.58 11.02,11.75 11.49,11.80 11.96,12.40 12.42,13.92 12.89,15.54 13.36,17.20 13.83,17.94 14.29,18.39 14.76,18.70 15.23,19.00 15.70,18.66 16.17,18.78 16.63,19.57 17.10,18.64 17.57,17.01 18.04,17.31 18.51,16.78 18.97,16.35 19.44,16.78 19.91,17.84 20.38,19.94 20.85,21.91 21.31,24.11 21.78,25.52 22.25,25.90 22.72,26.27 23.19,26.74 23.65,25.42 24.12,23.75 24.59,24.22 25.06,24.44 25.53,25.34 25.99,26.54 26.46,28.56 26.93,28.78 27.40,28.84 27.87,28.80 28.33,29.25 28.80,29.51 29.27,29.53 29.74,30.34 30.21,30.92 30.67,30.96 31.14,30.88 31.61,30.80 32.08,31.76 32.54,32.94 33.01,33.70 33.48,35.92 33.95,36.82 34.42,37.07 34.88,37.72 35.35,38.11 35.82,38.51 36.29,38.43 36.76,38.10 37.22,38.41 37.69,39.28 38.16,40.20 38.63,41.04 39.10,41.56 39.56,42.04 40.03,42.25 40.50,42.36 40.97,42.34 41.44,42.28 41.90,41.97 42.37,41.89 42.84,41.69 43.31,41.13 43.78,41.05 44.24,41.30 44.71,41.75 45.18,43.41 45.65,44.32 46.12,45.55 46.58,46.31 47.05,46.55 47.52,46.00 47.99,45.87 48.46,46.54 48.92,46.92 49.39,46.39 49.86,46.78 50.33,47.23 50.79,47.70 51.26,48.18 51.73,48.69 52.20,49.18 52.67,49.67 53.13,50.17 53.60,50.80 54.07,51.15 54.54,50.38 55.01,50.27 55.47,49.96 55.94,49.98 56.41,50.55 56.88,50.86 57.35,51.13 57.81,51.39 58.28,51.76 58.75,52.39 59.22,53.05 59.69,53.33 60.15,53.21 60.62,52.92 61.09,52.12 61.56,51.20 62.03,50.78 62.49,50.70 62.96,50.75 63.43,50.74 63.90,50.71 64.37,49.93 64.83,49.52 65.30,49.46 65.77,49.60 66.24,49.93 66.71,49.83 67.17,49.65 67.64,49.43 68.11,49.30 68.58,49.35 69.04,49.33 69.51,49.31 69.98,49.26 70.45,49.35 70.92,49.50 71.38,49.77 71.85,50.14 72.32,50.52 72.79,50.95 73.26,51.38 73.72,51.81 74.19,52.28 74.66,52.88 75.13,53.42 75.60,53.89 76.06,54.83 76.53,4.00 77.00,4.02 77.47,4.43 77.94,4.85 78.40,5.31 78.87,5.86 79.34,6.35 79.81,6.97 80.28,7.52 80.74,8.05 81.21,8.93 81.68,10.56 82.15,11.20 82.62,11.56 83.08,11.61 83.55,11.99 84.02,12.27 84.49,13.95 84.96,15.51 85.42,17.08 85.89,17.92 86.36,18.50 86.83,18.88 87.29,18.87 87.76,18.52 88.23,18.82 88.70,17.28 89.17,16.86 89.63,16.26 90.10,16.80 90.57,17.81 91.04,19.95 91.51,21.91 91.97,18.52 92.44,18.83 92.91,19.55 93.38,18.50 93.85,17.06 94.31,17.28 94.78,16.85 95.25,16.27 95.72,16.81 96.19,19.96 96.65,21.91 97.12,24.13 97.59,25.48 98.06,25.72 98.53,26.18 98.99,26.53 99.46,25.41 99.93,23.75 100.40,24.22 100.87,24.68 101.33,25.34 101.80,26.42 102.27,28.49 102.74,28.48 103.21,28.75 103.67,28.77 104.14,29.23 104.61,29.61 105.08,29.49 105.54,30.46 106.01,30.70 106.48,30.96 106.95,30.62 107.42,30.77 107.88,31.57 108.35,32.92 108.82,33.76 109.29,35.70 109.76,36.79 110.22,37.19 110.69,37.46 111.16,38.02 111.63,38.32 112.10,38.29 112.56,38.04 113.03,38.25 113.50,39.34 113.97,40.38 114.44,41.02 114.90,41.52 115.37,42.14 115.84,42.14 116.31,42.39 116.78,42.29 117.24,42.27 117.71,41.97 118.18,41.83 118.65,41.69 119.12,41.08 119.58,41.17 120.05,41.14 120.52,41.72 120.99,43.52 121.46,44.45 121.92,45.57 122.39,46.22 122.86,46.62 123.33,45.97 123.79,45.90 124.26,46.49 124.73,46.93 125.20,46.44 125.67,46.79 126.13,47.23 126.60,47.70 127.07,48.25 127.54,48.68 128.01,49.18 128.47,49.65 128.94,50.20 129.41,50.70 129.88,51.17 130.35,50.38 130.81,50.31 131.28,49.98 131.75,50.20 132.22,50.53 132.69,50.85 133.15,51.15 133.62,51.37 134.09,51.73 134.56,52.31 135.03,52.97 135.49,53.36 135.96,53.15 136.43,52.77 136.90,52.06 137.37,51.23 137.83,50.81 138.30,50.72 138.77,50.73 139.24,50.78 139.71,50.69 140.17,49.93 140.64,49.49 141.11,49.46 141.58,49.59 142.04,49.93 142.51,49.83 142.98,49.66 143.45,49.48 143.92,49.30 144.38,49.36 144.85,49.33 145.32,49.28 145.79,49.25 146.26,49.36 146.72,49.45 147.19,49.77 147.66,50.11 148.13,50.49 148.60,50.98 149.06,51.34 149.53,51.81 150.00,52.27 150.47,52.84 150.94,53.41 151.40,53.88 151.87,54.79 152.34,4.03 152.81,4.06 153.28,4.52 153.74,5.10 154.21,5.90 154.68,5.80 155.15,6.71 155.62,7.69 156.08,8.85 156.55,7.37 157.02,8.44 157.49,9.49 157.96,10.37 158.42,10.88 158.89,11.23 159.36,11.54 159.83,12.12 160.29,13.31 160.76,14.99 161.23,16.73 161.70,18.52 162.17,18.23 162.63,20.09 163.10,19.99 163.57,18.37 164.04,19.33 164.51,18.54 164.97,19.98 165.44,16.93 165.91,16.84 166.38,17.00 166.85,17.36 167.31,16.89 167.78,18.09 168.25,19.30 168.72,22.01 169.19,24.14 169.65,25.91 170.12,27.21 170.59,26.37 171.06,27.94 171.53,25.77 171.99,24.15 172.46,23.63 172.93,24.10 173.40,24.99 173.87,27.31 174.33,28.57 174.80,29.77 175.27,31.15 175.74,28.80 176.21,28.81 176.67,29.41 177.14,31.76 177.61,30.67 178.08,31.50 178.54,31.58 179.01,30.29 179.48,31.30 179.95,30.58 180.42,32.63 180.88,34.67 181.35,36.76 181.82,38.02 182.29,38.70 182.76,39.21 183.22,39.38 183.69,39.38 184.16,39.16 184.63,39.18 185.10,38.71 185.56,39.81 186.03,41.18 186.50,41.18 186.97,41.36 187.44,41.61 187.90,43.04 188.37,42.90 188.84,42.63 189.31,42.63 189.78,42.57 190.24,42.84 190.71,41.61 191.18,41.57 191.65,40.30 192.12,40.82 192.58,42.79 193.05,44.05 193.52,43.56 193.99,45.57 194.46,46.45 194.92,46.38 195.39,46.69 195.86,46.54 196.33,46.54 196.79,47.21 197.26,46.56 197.73,47.39 198.20,47.08 198.67,48.15 199.13,48.15 199.60,49.12 200.07,49.82 200.54,49.57 201.01,50.11 201.47,51.05 201.94,51.02 202.41,51.08 202.88,50.44 203.35,50.28 203.81,50.33 204.28,50.30 204.75,50.58 205.22,51.07 205.69,51.59 206.15,52.46 206.62,53.00 207.09,53.00 207.56,53.20 208.03,54.00 208.49,53.10 208.96,51.90 209.43,51.69 209.90,51.12 210.37,51.12 210.83,51.00 211.30,50.95 211.77,51.50 212.24,50.45 212.71,49.87 213.17,49.75 213.64,50.07 214.11,49.92 214.58,49.88 215.04,49.67 215.51,49.59 215.98,49.47 216.45,49.71 216.92,49.28 217.38,49.33 217.85,49.34 218.32,49.34 218.79,49.53 219.26,49.82 219.72,50.21 220.19,50.65 220.66,51.11 221.13,51.56 221.60,51.96 222.06,52.46 222.53,53.17 223.00,53.86 223.47,53.89 223.94,54.79 224.40,4.26 224.87,4.26 225.34,6.41 225.81,6.41 226.28,6.41 226.74,10.31 227.21,10.31 227.68,10.31 228.15,14.62 228.62,9.35 229.08,9.35 229.55,9.35 230.02,11.33 230.49,11.33 230.96,11.33 231.42,13.77 231.89,13.77 232.36,13.77 232.83,18.62 233.29,18.62 233.76,18.62 234.23,23.77 234.70,23.77 235.17,23.77 235.63,18.64 236.10,24.51 236.57,24.51 237.04,22.26 237.51,22.26 237.97,22.26 238.44,21.10 238.91,21.10 239.38,16.89 239.85,16.89 240.31,16.89 240.78,24.74 241.25,24.74 241.72,24.74 242.19,29.39 242.65,29.39 243.12,29.39 243.59,29.39 244.06,24.70 244.53,24.70 244.99,24.02 245.46,24.02 245.93,31.33 246.40,31.33 246.87,31.33 247.33,37.62 247.80,32.68 248.27,32.68 248.74,32.68 249.21,39.72 249.67,35.03 250.14,35.03 250.61,35.03 251.08,30.46 251.54,37.04 252.01,37.04 252.48,34.29 252.95,34.29 253.42,38.50 253.88,38.50 254.35,38.50 254.82,39.51 255.29,39.51 255.76,39.51 256.22,40.26 256.69,40.26 257.16,40.26 257.63,43.76 258.10,43.76 258.56,43.76 259.03,43.76 259.50,44.01 259.97,44.01 260.44,44.01 260.90,47.55 261.37,47.55 261.84,44.07 262.31,44.07 262.78,44.07 263.24,44.60 263.71,44.60 264.18,44.60 264.65,44.60 265.12,47.40 265.58,47.40 266.05,47.40 266.52,47.40 266.99,47.76 267.46,47.76 267.92,47.76 268.39,47.76 268.86,51.77 269.33,49.56 269.79,49.56 270.26,48.33 270.73,48.33 271.20,48.33 271.67,51.82 272.13,50.90 272.60,50.90 273.07,50.90 273.54,53.77 274.01,51.28 274.47,51.28 274.94,51.28 275.41,52.24 275.88,50.91 276.35,50.91 276.81,50.91 277.28,53.38 277.75,52.84 278.22,52.84 278.69,56.00 279.15,56.00 279.62,56.00 280.09,56.00 280.56,53.27 281.03,53.27 281.49,53.27 281.96,54.61 282.43,54.61 282.90,51.96 283.37,51.96 283.83,52.99 284.30,52.99 284.77,50.55 285.24,50.55 285.71,52.18 286.17,52.18 286.64,50.43 287.11,50.43 287.58,51.27 288.04,51.27 288.51,51.27 288.98,49.75 289.45,49.72 289.92,49.72 290.38,49.72 290.85,50.68 291.32,50.68 291.79,50.68 292.26,52.35 292.72,52.35 293.19,52.35 293.66,53.34 294.13,53.34 294.60,53.34 295.06,55.45 295.53,55.45 296.00,55.03" />
</svg>