<svg width="300" height="60" xmlns="http://www.w3.org/2000/svg">
  <polyline fill="rgba(255,200,0,0.3)" stroke="#ffbb00" stroke-width="2" points="4.00,7.93 5.36,7.03 6.72,6.72 8.07,7.29 9.43,8.88 10.79,10.39 12.15,11.35 13.51,11.64 14.87,12.19 16.22,12.88 17.58,14.90 18.94,16.21 20.30,18.14 21.66,16.66 23.01,13.80 24.37,11.57 25.73,10.53 27.09,9.44 28.45,8.28 29.80,7.24 31.16,6.93 32.52,7.30 33.88,7.88 35.24,8.66 36.60,9.72 37.95,12.51 39.31,14.77 40.67,16.25 42.03,17.66 43.39,19.32 44.74,19.60 46.10,19.90 47.46,20.56 48.82,21.64 50.18,21.61 51.53,22.11 52.89,21.59 54.25,21.38 55.61,21.69 56.97,22.46 58.33,23.51 59.68,24.53 61.04,22.03 62.40,21.01 63.76,21.61 65.12,22.91 66.47,25.25 67.83,27.95 69.19,30.33 70.55,31.29 71.91,30.24 73.27,30.21 74.62,31.21 75.98,32.79 77.34,35.43 78.70,37.68 80.06,41.00 81.41,44.61 82.77,47.07 84.13,48.56 85.49,48.76 86.85,48.90 88.20,49.53 89.56,49.75 90.92,46.14 92.28,39.92 93.64,34.78 95.00,34.52 96.35,36.70 97.71,36.70 99.07,36.39 100.43,35.49 101.79,7.64 103.14,7.54 104.50,6.74 105.86,7.18 107.22,9.99 108.58,11.10 109.93,12.28 111.29,11.70 112.65,13.26 114.01,13.51 115.37,15.79 116.73,15.79 118.08,18.12 119.44,17.64 120.80,13.58 122.16,11.11 123.52,9.87 124.87,9.87 126.23,9.53 127.59,6.99 128.95,6.89 130.31,6.80 131.67,7.74 133.02,8.75 134.38,9.26 135.74,10.17 137.10,18.06 138.46,17.19 139.81,16.25 141.17,20.77 142.53,18.88 143.89,20.75 145.25,19.63 146.60,22.68 147.96,20.91 149.32,22.80 150.68,24.02 152.04,21.72 153.40,23.46 154.75,22.24 156.11,23.62 157.47,26.04 158.83,22.46 160.19,21.30 161.54,21.92 162.90,22.99 164.26,25.80 165.62,29.64 166.98,31.67 168.33,29.35 169.69,31.84 171.05,31.00 172.41,29.13 173.77,33.48 175.13,35.49 176.48,38.78 177.84,43.89 179.20,43.89 180.56,45.05 181.92,49.21 183.27,50.13 184.63,51.09 185.99,47.73 187.35,49.54 188.71,42.15 190.07,42.15 191.42,34.82 192.78,33.59 194.14,34.81 195.50,35.80 196.86,36.14 198.21,33.60 199.57,7.83 200.93,7.15 202.29,7.15 203.65,7.15 205.00,13.82 206.36,13.82 207.72,13.82 209.08,12.27 210.44,12.27 211.80,12.27 213.15,16.99 214.51,16.99 215.87,16.99 217.23,20.55 218.59,11.09 219.94,11.09 221.30,11.09 222.66,11.09 224.02,9.23 225.38,4.00 226.73,4.00 228.09,4.00 229.45,4.22 230.81,4.22 232.17,4.22 233.53,7.07 234.88,24.95 236.24,24.95 237.60,20.77 238.96,20.77 240.32,20.77 241.67,15.61 243.03,15.61 244.39,27.56 245.75,22.80 247.11,22.80 248.47,22.80 249.82,17.38 251.18,26.91 252.54,26.91 253.90,26.21 255.26,26.21 256.61,20.35 257.97,20.35 259.33,20.35 260.69,25.77 262.05,25.77 263.40,25.77 264.76,29.35 266.12,29.35 267.48,29.35 268.84,37.32 270.20,33.48 271.55,33.48 272.91,33.48 274.27,43.88 275.63,43.88 276.99,43.88 278.34,43.88 279.70,56.00 281.06,46.05 282.42,46.05 283.78,46.05 285.13,42.15 286.49,42.15 287.85,42.15 289.21,42.15 290.57,28.76 291.93,28.76 293.28,39.81 294.64,39.81 296.00,30.50" />
</svg>