<svg width="300" height="60" xmlns="http://www.w3.org/2000/svg">
  <polyline fill="rgba(255,200,0,0.3)" stroke="#ffbb00" stroke-width="2" points="4.00,55.05 4.13,54.71 4.25,54.35 4.38,54.02 4.50,53.83 4.63,53.54 4.76,53.30 4.88,53.04 5.01,52.95 5.14,52.67 5.26,52.45 5.39,52.25 5.51,52.07 5.64,51.75 5.77,51.53 5.89,50.97 6.02,50.81 6.15,50.49 6.27,50.24 6.40,50.07 6.52,49.81 6.65,49.52 6.78,49.27 6.90,48.97 7.03,48.62 7.15,48.19 7.28,47.95 7.41,47.61 7.53,47.27 7.66,46.96 7.79,46.68 7.91,46.45 8.04,46.12 8.16,45.90 8.29,45.71 8.42,45.60 8.54,45.41 8.67,45.22 8.80,44.94 8.92,44.66 9.05,44.56 9.17,44.44 9.30,44.29 9.43,44.18 9.55,44.01 9.68,43.86 9.80,43.76 9.93,43.77 10.06,43.79 10.18,43.83 10.31,43.89 10.44,43.93 10.56,43.98 10.69,44.00 10.81,43.99 10.94,44.00 11.07,44.06 11.19,44.10 11.32,44.05 11.45,43.94 11.57,43.77 11.70,43.60 11.82,43.42 11.95,43.25 12.08,43.10 12.20,43.05 12.33,43.05 12.45,42.97 12.58,42.66 12.71,42.42 12.83,42.24 12.96,42.06 13.09,41.93 13.21,41.82 13.34,41.73 13.46,41.63 13.59,41.46 13.72,41.28 13.84,41.26 13.97,41.12 14.10,40.94 14.22,40.75 14.35,40.55 14.47,40.35 14.60,40.16 14.73,39.91 14.85,39.64 14.98,39.50 15.10,39.34 15.23,39.12 15.36,38.81 15.48,38.51 15.61,38.29 15.74,38.10 15.86,37.92 15.99,37.71 16.11,37.41 16.24,37.24 16.37,37.06 16.49,36.91 16.62,36.82 16.75,36.70 16.87,36.48 17.00,36.37 17.12,36.24 17.25,36.05 17.38,35.82 17.50,35.58 17.63,35.32 17.75,35.03 17.88,34.93 18.01,34.79 18.13,34.62 18.26,34.47 18.39,34.29 18.51,34.13 18.64,33.92 18.76,33.70 18.89,33.50 19.02,33.35 19.14,33.20 19.27,33.17 19.39,33.12 19.52,33.01 19.65,32.80 19.77,32.65 19.90,32.44 20.03,32.28 20.15,32.07 20.28,31.84 20.40,31.51 20.53,31.25 20.66,31.09 20.78,30.87 20.91,30.68 21.04,30.51 21.16,30.36 21.29,30.21 21.41,30.11 21.54,29.97 21.67,29.86 21.79,29.75 21.92,29.64 22.04,29.56 22.17,29.53 22.30,29.58 22.42,29.65 22.55,29.75 22.68,29.93 22.80,30.17 22.93,30.36 23.05,30.49 23.18,30.62 23.31,30.67 23.43,30.73 23.56,30.83 23.69,30.93 23.81,31.03 23.94,31.15 24.06,31.28 24.19,31.41 24.32,31.55 24.44,31.67 24.57,31.75 24.69,31.82 24.82,31.84 24.95,31.82 25.07,31.96 25.20,32.13 25.33,32.23 25.45,32.47 25.58,32.65 25.70,32.92 25.83,33.12 25.96,33.27 26.08,33.35 26.21,33.41 26.34,33.47 26.46,33.55 26.59,33.70 26.71,33.77 26.84,33.91 26.97,34.13 27.09,34.29 27.22,34.41 27.34,34.50 27.47,34.61 27.60,34.69 27.72,34.73 27.85,34.80 27.98,34.83 28.10,34.87 28.23,34.94 28.35,35.01 28.48,35.07 28.61,35.12 28.73,35.15 28.86,35.22 28.99,35.23 29.11,35.20 29.24,35.19 29.36,35.27 29.49,35.37 29.62,35.50 29.74,35.65 29.87,35.65 29.99,35.61 30.12,35.60 30.25,35.67 30.37,35.75 30.50,35.90 30.63,36.09 30.75,36.35 30.88,36.55 31.00,36.69 31.13,36.72 31.26,36.81 31.38,36.85 31.51,36.95 31.64,36.99 31.76,36.98 31.89,36.96 32.01,36.87 32.14,36.73 32.27,36.77 32.39,37.08 32.52,37.36 32.64,37.49 32.77,37.57 32.90,37.53 33.02,37.46 33.15,37.36 33.28,37.27 33.40,37.07 33.53,36.94 33.65,36.76 33.78,36.65 33.91,36.58 34.03,36.49 34.16,36.39 34.29,36.40 34.41,36.22 34.54,35.99 34.66,35.83 34.79,35.73 34.92,35.64 35.04,35.57 35.17,35.46 35.29,35.27 35.42,35.11 35.55,34.93 35.67,34.82 35.80,34.71 35.93,34.67 36.05,34.55 36.18,34.45 36.30,34.36 36.43,34.27 36.56,34.09 36.68,33.89 36.81,33.76 36.94,33.67 37.06,33.74 37.19,33.48 37.31,33.42 37.44,33.39 37.57,33.34 37.69,33.27 37.82,33.18 37.94,33.12 38.07,33.04 38.20,32.98 38.32,32.96 38.45,32.93 38.58,32.81 38.70,32.77 38.83,32.65 38.95,32.67 39.08,32.68 39.21,32.74 39.33,32.74 39.46,32.81 39.59,32.71 39.71,32.61 39.84,32.51 39.96,32.44 40.09,32.46 40.22,32.39 40.34,32.27 40.47,32.21 40.59,32.15 40.72,32.07 40.85,32.01 40.97,31.94 41.10,31.88 41.23,31.87 41.35,31.81 41.48,31.78 41.60,31.69 41.73,31.58 41.86,31.49 41.98,31.37 42.11,31.41 42.24,31.55 42.36,31.51 42.49,31.27 42.61,31.11 42.74,31.02 42.87,30.90 42.99,30.81 43.12,30.71 43.24,30.64 43.37,30.59 43.50,30.59 43.62,30.67 43.75,30.74 43.88,30.84 44.00,30.91 44.13,31.06 44.25,31.05 44.38,30.94 44.51,30.81 44.63,30.68 44.76,30.56 44.89,30.42 45.01,30.17 45.14,30.08 45.26,30.11 45.39,30.03 45.52,30.05 45.64,29.99 45.77,29.89 45.89,29.78 46.02,29.58 46.15,29.59 46.27,29.63 46.40,29.55 46.53,29.47 46.65,29.37 46.78,29.25 46.90,29.16 47.03,29.06 47.16,28.99 47.28,28.93 47.41,28.87 47.54,28.80 47.66,28.72 47.79,28.63 47.91,28.55 48.04,28.48 48.17,28.41 48.29,28.33 48.42,28.24 48.54,28.14 48.67,28.02 48.80,27.87 48.92,27.71 49.05,27.51 49.18,27.31 49.30,27.21 49.43,27.07 49.55,27.00 49.68,26.92 49.81,26.91 49.93,26.87 50.06,26.84 50.18,26.86 50.31,26.87 50.44,26.84 50.56,26.75 50.69,26.55 50.82,26.75 50.94,26.60 51.07,26.52 51.19,26.37 51.32,26.25 51.45,26.03 51.57,25.90 51.70,25.78 51.83,25.66 51.95,25.55 52.08,25.42 52.20,25.36 52.33,25.33 52.46,25.22 52.58,25.13 52.71,25.03 52.83,24.93 52.96,24.81 53.09,24.73 53.21,24.69 53.34,24.60 53.47,24.42 53.59,24.25 53.72,24.09 53.84,24.00 53.97,23.89 54.10,23.80 54.22,23.70 54.35,23.62 54.48,23.52 54.60,23.41 54.73,23.29 54.85,23.18 54.98,23.08 55.11,22.99 55.23,22.89 55.36,22.70 55.48,22.49 55.61,22.29 55.74,22.11 55.86,21.90 55.99,21.69 56.12,21.51 56.24,21.29 56.37,21.10 56.49,20.84 56.62,20.52 56.75,20.15 56.87,20.04 57.00,19.71 57.13,19.35 57.25,19.14 57.38,18.95 57.50,18.81 57.63,18.69 57.76,18.65 57.88,18.50 58.01,18.37 58.13,18.36 58.26,18.52 58.39,18.71 58.51,18.91 58.64,19.16 58.77,19.36 58.89,19.44 59.02,19.50 59.14,19.57 59.27,19.59 59.40,19.56 59.52,19.53 59.65,19.47 59.78,19.38 59.90,19.26 60.03,19.18 60.15,19.13 60.28,19.01 60.41,18.87 60.53,18.69 60.66,18.50 60.78,18.41 60.91,18.42 61.04,18.42 61.16,18.43 61.29,18.45 61.42,18.46 61.54,18.48 61.67,18.47 61.79,18.44 61.92,18.41 62.05,18.36 62.17,18.35 62.30,18.29 62.43,18.20 62.55,18.14 62.68,18.09 62.80,17.99 62.93,17.91 63.06,17.81 63.18,17.70 63.31,17.54 63.43,17.48 63.56,17.41 63.69,17.33 63.81,17.29 63.94,17.26 64.07,17.22 64.19,17.16 64.32,17.06 64.44,16.95 64.57,16.91 64.70,16.83 64.82,16.75 64.95,16.66 65.08,16.60 65.20,16.57 65.33,16.47 65.45,16.34 65.58,16.19 65.71,16.09 65.83,16.01 65.96,15.92 66.08,15.89 66.21,15.85 66.34,15.84 66.46,15.81 66.59,15.76 66.72,15.70 66.84,15.67 66.97,15.69 67.09,15.68 67.22,15.62 67.35,15.55 67.47,15.42 67.60,15.27 67.73,15.16 67.85,14.97 67.98,14.76 68.10,14.57 68.23,14.40 68.36,14.18 68.48,13.95 68.61,13.86 68.73,13.66 68.86,13.47 68.99,13.28 69.11,13.08 69.24,12.92 69.37,12.78 69.49,12.58 69.62,12.43 69.74,12.36 69.87,12.25 70.00,12.05 70.12,11.85 70.25,11.66 70.38,11.34 70.50,11.02 70.63,10.69 70.75,10.44 70.88,10.27 71.01,10.06 71.13,9.84 71.26,9.67 71.38,9.52 71.51,9.40 71.64,9.27 71.76,9.08 71.89,8.92 72.02,8.74 72.14,8.58 72.27,8.53 72.39,8.56 72.52,8.58 72.65,8.60 72.77,8.63 72.90,8.65 73.03,8.68 73.15,8.70 73.28,8.72 73.40,8.73 73.53,8.71 73.66,8.67 73.78,8.66 73.91,8.67 74.03,8.66 74.16,8.77 74.29,8.85 74.41,8.91 74.54,8.94 74.67,8.83 74.79,8.74 74.92,8.68 75.04,8.54 75.17,8.39 75.30,8.32 75.42,8.29 75.55,8.28 75.68,8.20 75.80,8.12 75.93,8.04 76.05,8.08 76.18,8.14 76.31,8.23 76.43,8.25 76.56,8.20 76.68,8.26 76.81,8.30 76.94,8.34 77.06,8.43 77.19,8.49 77.32,8.51 77.44,8.68 77.57,8.82 77.69,8.97 77.82,9.16 77.95,9.41 78.07,9.50 78.20,9.77 78.32,10.01 78.45,10.25 78.58,10.39 78.70,10.72 78.83,11.02 78.96,11.23 79.08,11.38 79.21,11.52 79.33,11.66 79.46,11.79 79.59,11.96 79.71,12.12 79.84,12.26 79.97,12.31 80.09,12.35 80.22,12.43 80.34,12.46 80.47,12.42 80.60,12.44 80.72,12.48 80.85,12.54 80.97,12.59 81.10,12.63 81.23,12.65 81.35,12.62 81.48,12.57 81.61,12.52 81.73,12.48 81.86,12.53 81.98,12.55 82.11,12.58 82.24,12.60 82.36,12.60 82.49,12.58 82.62,12.52 82.74,12.57 82.87,12.65 82.99,12.69 83.12,12.69 83.25,12.66 83.37,12.62 83.50,12.56 83.62,12.47 83.75,12.30 83.88,12.06 84.00,11.77 84.13,11.53 84.26,11.33 84.38,11.02 84.51,10.75 84.63,10.49 84.76,10.22 84.89,9.96 85.01,9.91 85.14,9.82 85.27,9.74 85.39,9.69 85.52,9.69 85.64,9.72 85.77,9.77 85.90,9.79 86.02,9.76 86.15,9.70 86.27,9.66 86.40,9.67 86.53,9.71 86.65,9.79 86.78,9.87 86.91,9.93 87.03,9.95 87.16,9.96 87.28,9.94 87.41,9.93 87.54,9.92 87.66,9.85 87.79,9.80 87.92,9.72 88.04,9.65 88.17,9.58 88.29,9.53 88.42,9.48 88.55,9.41 88.67,9.31 88.80,9.18 88.92,9.06 89.05,8.90 89.18,8.73 89.30,8.53 89.43,8.33 89.56,8.12 89.68,8.03 89.81,7.88 89.93,7.70 90.06,7.55 90.19,7.48 90.31,7.50 90.44,7.49 90.57,7.58 90.69,7.66 90.82,7.76 90.94,7.86 91.07,8.01 91.20,8.21 91.32,8.39 91.45,8.44 91.57,8.43 91.70,8.30 91.83,8.10 91.95,7.90 92.08,7.74 92.21,7.47 92.33,7.28 92.46,7.08 92.58,6.76 92.71,6.52 92.84,6.24 92.96,6.00 93.09,5.75 93.22,5.51 93.34,5.36 93.47,5.23 93.59,5.01 93.72,4.80 93.85,4.65 93.97,4.54 94.10,4.60 94.22,4.77 94.35,4.94 94.48,4.99 94.60,4.95 94.73,4.88 94.86,4.79 94.98,4.74 95.11,4.79 95.23,4.89 95.36,4.98 95.49,5.08 95.61,5.23 95.74,5.39 95.87,5.43 95.99,5.49 96.12,5.42 96.24,5.24 96.37,5.07 96.50,5.03 96.62,5.13 96.75,5.22 96.87,5.27 97.00,5.29 97.13,5.24 97.25,5.20 97.38,5.08 97.51,4.95 97.63,4.93 97.76,4.99 97.88,5.08 98.01,5.12 98.14,5.15 98.26,5.14 98.39,5.17 98.52,5.22 98.64,5.22 98.77,5.21 98.89,5.15 99.02,5.10 99.15,5.06 99.27,4.97 99.40,4.84 99.52,4.49 99.65,4.21 99.78,4.06 99.90,55.08 100.03,54.71 100.16,54.36 100.28,54.02 100.41,53.76 100.53,53.54 100.66,53.30 100.79,53.05 100.91,52.95 101.04,52.67 101.17,52.45 101.29,52.25 101.42,52.07 101.54,51.67 101.67,51.51 101.80,50.84 101.92,50.71 102.05,50.49 102.17,50.20 102.30,50.07 102.43,49.81 102.55,49.52 102.68,49.26 102.81,48.99 102.93,48.58 103.06,48.19 103.18,47.94 103.31,47.61 103.44,47.27 103.56,46.94 103.69,46.68 103.82,46.41 103.94,46.06 104.07,45.90 104.19,45.69 104.32,55.08 104.45,54.57 104.57,54.57 104.70,53.87 104.82,54.10 104.95,53.04 105.08,53.41 105.20,52.87 105.33,52.44 105.46,53.01 105.58,52.29 105.71,52.85 105.83,52.29 105.96,51.81 106.09,50.64 106.21,51.31 106.34,51.01 106.46,50.08 106.59,50.10 106.72,49.98 106.84,49.98 106.97,49.78 107.10,49.20 107.22,48.57 107.35,48.71 107.47,47.93 107.60,48.11 107.73,47.58 107.85,46.90 107.98,46.87 108.11,46.87 108.23,46.64 108.36,46.05 108.48,46.05 108.61,45.41 108.74,45.79 108.86,44.98 108.99,45.16 109.11,45.14 109.24,44.46 109.37,44.46 109.49,44.20 109.62,44.26 109.75,44.40 109.87,43.76 110.00,43.81 110.12,43.87 110.25,43.61 110.38,43.93 110.50,43.95 110.63,43.58 110.76,43.78 110.88,43.45 111.01,44.05 111.13,44.02 111.26,44.09 111.39,43.90 111.51,44.02 111.64,44.00 111.76,43.76 111.89,44.02 112.02,43.77 112.14,43.51 112.27,43.34 112.40,42.71 112.52,42.93 112.65,43.11 112.77,42.99 112.90,42.41 113.03,42.36 113.15,41.99 113.28,41.68 113.41,41.34 113.53,41.78 113.66,41.08 113.78,41.94 113.91,41.28 114.04,41.53 114.16,41.22 114.29,41.03 114.41,40.82 114.54,40.50 114.67,40.48 114.79,40.29 114.92,40.29 115.05,40.13 115.17,39.42 115.30,39.38 115.42,39.20 115.55,38.21 115.68,38.73 115.80,38.31 115.93,38.18 116.06,37.89 116.18,37.66 116.31,37.66 116.43,37.45 116.56,36.67 116.69,36.90 116.81,37.02 116.94,36.60 117.06,36.50 117.19,36.59 117.32,36.36 117.44,36.13 117.57,35.82 117.70,35.44 117.82,35.10 117.95,34.84 118.07,34.70 118.20,34.66 118.33,34.62 118.45,34.55 118.58,34.39 118.71,34.03 118.83,34.14 118.96,34.01 119.08,33.78 119.21,33.54 119.34,33.36 119.46,33.20 119.59,33.13 119.71,32.81 119.84,32.85 119.97,32.71 120.09,32.54 120.22,32.42 120.35,32.32 120.47,32.22 120.60,31.45 120.72,31.11 120.85,30.84 120.98,30.70 121.10,30.64 121.23,30.63 121.36,30.64 121.48,30.03 121.61,30.14 121.73,30.24 121.86,29.52 121.99,29.65 122.11,29.74 122.24,29.82 122.36,29.32 122.49,29.49 122.62,29.31 122.74,29.63 122.87,29.76 123.00,29.64 123.12,30.16 123.25,30.12 123.37,30.48 123.50,30.59 123.63,30.42 123.75,30.64 123.88,30.40 124.01,30.79 124.13,30.82 124.26,31.09 124.38,30.91 124.51,31.48 124.64,31.52 124.76,31.52 124.89,31.55 125.01,31.86 125.14,31.88 125.27,31.90 125.39,31.41 125.52,31.72 125.65,31.91 125.77,32.05 125.90,32.17 126.02,32.39 126.15,32.73 126.28,33.11 126.40,33.39 126.53,33.12 126.66,33.64 126.78,33.59 126.91,33.48 127.03,33.94 127.16,33.89 127.29,34.35 127.41,34.39 127.54,34.39 127.66,34.44 127.79,34.51 127.92,34.62 128.04,34.69 128.17,34.80 128.30,34.76 128.42,34.90 128.55,34.79 128.67,35.02 128.80,35.08 128.93,34.72 129.05,35.18 129.18,35.30 129.31,35.09 129.43,35.19 129.56,35.28 129.68,35.28 129.81,35.31 129.94,35.42 130.06,35.69 130.19,35.63 130.31,35.93 130.44,35.51 130.57,35.87 130.69,35.43 130.82,35.96 130.95,35.88 131.07,36.42 131.20,36.26 131.32,36.52 131.45,36.59 131.58,36.85 131.70,37.05 131.83,36.92 131.96,37.40 132.08,36.95 132.21,36.98 132.33,36.95 132.46,36.71 132.59,36.71 132.71,37.18 132.84,37.05 132.96,37.79 133.09,37.67 133.22,37.60 133.34,37.49 133.47,37.46 133.60,37.48 133.72,37.56 133.85,36.47 133.97,36.67 134.10,36.92 134.23,36.28 134.35,36.43 134.48,36.43 134.61,36.36 134.73,36.23 134.86,35.95 134.98,34.87 135.11,35.57 135.24,34.89 135.36,35.90 135.49,35.92 135.61,35.22 135.74,35.01 135.87,35.03 135.99,34.49 136.12,35.15 136.25,34.84 136.37,34.43 136.50,34.07 136.62,34.90 136.75,33.86 136.88,34.18 137.00,33.55 137.13,32.85 137.25,33.59 137.38,33.06 137.51,33.52 137.63,33.07 137.76,32.84 137.89,32.77 138.01,32.85 138.14,32.99 138.26,33.26 138.39,32.63 138.52,32.92 138.64,32.43 138.77,32.94 138.90,32.48 139.02,32.73 139.15,32.75 139.27,32.71 139.40,32.63 139.53,32.38 139.65,32.78 139.78,32.54 139.90,32.79 140.03,32.52 140.16,32.42 140.28,32.06 140.41,31.67 140.54,32.39 140.66,32.20 140.79,32.02 140.91,31.91 141.04,31.90 141.17,32.04 141.29,31.77 141.42,31.99 141.55,31.51 141.67,31.21 141.80,31.73 141.92,31.27 142.05,31.57 142.18,30.85 142.30,31.08 142.43,31.47 142.55,31.53 142.68,31.43 142.81,31.16 142.93,31.08 143.06,30.96 143.19,30.95 143.31,30.68 143.44,30.79 143.56,30.47 143.69,30.61 143.82,30.41 143.94,30.68 144.07,30.54 144.20,30.74 144.32,30.90 144.45,30.91 144.57,30.96 144.70,30.84 144.83,30.75 144.95,30.52 145.08,30.49 145.20,29.99 145.33,29.87 145.46,30.26 145.58,29.93 145.71,29.98 145.84,30.04 145.96,29.58 146.09,29.63 146.21,29.60 146.34,28.88 146.47,29.63 146.59,29.59 146.72,29.42 146.85,29.43 146.97,29.35 147.10,29.13 147.22,29.11 147.35,28.79 147.48,28.82 147.60,29.03 147.73,28.81 147.85,28.77 147.98,28.70 148.11,28.35 148.23,28.40 148.36,28.39 148.49,28.39 148.61,28.37 148.74,28.30 148.86,28.17 148.99,27.94 149.12,27.76 149.24,27.53 149.37,27.22 149.50,26.87 149.62,27.26 149.75,27.10 149.87,26.94 150.00,27.01 150.13,27.10 150.25,26.82 150.38,27.05 150.50,27.05 150.63,26.97 150.76,26.58 150.88,26.44 151.01,26.71 151.14,26.59 151.26,26.40 151.39,26.48 151.51,26.34 151.64,26.17 151.77,25.84 151.89,25.69 152.02,25.38 152.15,25.69 152.27,25.49 152.40,24.84 152.52,25.34 152.65,25.28 152.78,24.76 152.90,24.79 153.03,24.90 153.15,24.90 153.28,24.60 153.41,24.74 153.53,24.54 153.66,24.19 153.79,24.31 153.91,23.80 154.04,23.90 154.16,23.85 154.29,23.85 154.42,23.73 154.54,23.60 154.67,23.46 154.80,23.46 154.92,23.32 155.05,23.26 155.17,22.85 155.30,22.90 155.43,23.05 155.55,22.84 155.68,22.59 155.80,22.26 155.93,22.38 156.06,21.86 156.18,21.79 156.31,21.71 156.44,21.52 156.56,21.13 156.69,21.07 156.81,20.56 156.94,20.47 157.07,19.87 157.19,19.87 157.32,19.65 157.45,19.45 157.57,19.12 157.70,18.88 157.82,18.66 157.95,18.61 158.08,18.61 158.20,18.57 158.33,18.01 158.45,18.11 158.58,18.31 158.71,18.88 158.83,19.19 158.96,18.80 159.09,19.15 159.21,19.42 159.34,19.13 159.46,19.43 159.59,19.60 159.72,19.55 159.84,19.53 159.97,19.25 160.10,19.24 160.22,18.79 160.35,19.23 160.47,18.99 160.60,18.98 160.73,18.82 160.85,18.34 160.98,18.29 161.10,18.70 161.23,18.34 161.36,18.49 161.48,18.18 161.61,18.30 161.74,18.12 161.86,18.38 161.99,18.49 162.11,18.21 162.24,18.39 162.37,18.30 162.49,18.30 162.62,18.30 162.75,18.16 162.87,18.15 163.00,17.98 163.12,18.05 163.25,17.86 163.38,17.88 163.50,17.59 163.63,17.57 163.75,17.54 163.88,17.17 164.01,17.40 164.13,17.25 164.26,17.14 164.39,17.10 164.51,17.09 164.64,17.04 164.76,16.96 164.89,17.00 165.02,16.52 165.14,16.67 165.27,16.07 165.39,16.40 165.52,16.58 165.65,15.97 165.77,16.10 165.90,16.16 166.03,16.24 166.15,15.88 166.28,15.97 166.40,16.01 166.53,15.97 166.66,15.90 166.78,15.83 166.91,15.96 167.04,15.78 167.16,15.78 167.29,15.54 167.41,15.61 167.54,15.65 167.67,15.32 167.79,15.38 167.92,15.06 168.04,14.76 168.17,15.11 168.30,14.91 168.42,14.75 168.55,14.15 168.68,14.06 168.80,13.99 168.93,13.57 169.05,13.65 169.18,13.29 169.31,13.46 169.43,13.04 169.56,12.90 169.69,12.48 169.81,12.42 169.94,11.96 170.06,12.27 170.19,12.16 170.32,11.88 170.44,11.82 170.57,11.57 170.69,11.28 170.82,10.86 170.95,10.86 171.07,10.52 171.20,10.25 171.33,10.14 171.45,9.93 171.58,9.68 171.70,9.63 171.83,9.37 171.96,9.23 172.08,9.01 172.21,8.81 172.34,8.64 172.46,8.52 172.59,8.50 172.71,8.55 172.84,8.65 172.97,8.63 173.09,8.64 173.22,8.64 173.34,8.65 173.47,8.74 173.60,8.62 173.72,8.73 173.85,8.73 173.98,8.31 174.10,8.61 174.23,8.55 174.35,8.65 174.48,8.78 174.61,8.87 174.73,9.10 174.86,8.92 174.99,8.92 175.11,8.87 175.24,8.55 175.36,8.50 175.49,8.62 175.62,8.42 175.74,8.26 175.87,8.13 175.99,8.02 176.12,7.95 176.25,7.92 176.37,7.98 176.50,8.08 176.63,8.18 176.75,8.16 176.88,8.07 177.00,8.00 177.13,7.97 177.26,8.42 177.38,8.50 177.51,8.59 177.64,8.72 177.76,8.86 177.89,9.01 178.01,9.20 178.14,8.99 178.27,9.40 178.39,9.40 178.52,9.55 178.64,9.94 178.77,10.17 178.90,10.33 179.02,10.63 179.15,10.95 179.28,11.17 179.40,11.32 179.53,11.44 179.65,11.57 179.78,11.73 179.91,11.93 180.03,12.12 180.16,12.26 180.29,12.32 180.41,12.41 180.54,12.46 180.66,12.46 180.79,12.42 180.92,12.48 181.04,12.43 181.17,12.52 181.29,12.58 181.42,12.64 181.55,12.64 181.67,12.58 181.80,12.51 181.93,12.40 182.05,12.35 182.18,12.35 182.30,12.69 182.43,12.68 182.56,12.65 182.68,12.60 182.81,12.53 182.94,12.53 183.06,12.49 183.19,12.55 183.31,12.68 183.44,12.50 183.57,12.60 183.69,12.67 183.82,12.65 183.94,12.53 184.07,12.31 184.20,12.04 184.32,11.62 184.45,11.41 184.58,11.10 184.70,10.80 184.83,10.57 184.95,10.35 185.08,10.14 185.21,9.96 185.33,9.63 185.46,9.60 185.59,9.60 185.71,9.59 185.84,9.66 185.96,9.68 186.09,9.74 186.22,9.79 186.34,9.75 186.47,9.72 186.59,9.72 186.72,9.77 186.85,9.55 186.97,9.70 187.10,9.89 187.23,10.03 187.35,9.93 187.48,9.98 187.60,10.04 187.73,9.98 187.86,9.81 187.98,9.89 188.11,9.80 188.24,9.62 188.36,9.62 188.49,9.45 188.61,9.57 188.74,9.42 188.87,9.49 188.99,9.33 189.12,9.25 189.24,9.01 189.37,9.01 189.50,8.82 189.62,8.41 189.75,8.06 189.88,7.85 190.00,7.82 190.13,7.82 190.25,7.72 190.38,7.50 190.51,7.52 190.63,7.45 190.76,7.63 190.89,7.57 191.01,7.74 191.14,7.68 191.26,7.71 191.39,7.93 191.52,8.27 191.64,8.38 191.77,8.55 191.89,8.48 192.02,8.45 192.15,8.09 192.27,7.94 192.40,7.50 192.53,7.47 192.65,6.99 192.78,6.46 192.90,6.58 193.03,6.58 193.16,6.20 193.28,5.87 193.41,5.57 193.54,5.30 193.66,5.43 193.79,5.21 193.91,4.94 194.04,4.80 194.17,4.69 194.29,4.53 194.42,4.51 194.54,4.71 194.67,4.91 194.80,4.97 194.92,4.88 195.05,4.88 195.18,4.94 195.30,4.77 195.43,4.77 195.55,4.88 195.68,5.07 195.81,5.18 195.93,5.15 196.06,5.38 196.18,5.47 196.31,5.40 196.44,5.52 196.56,5.23 196.69,4.97 196.82,4.87 196.94,5.14 197.07,5.20 197.19,5.17 197.32,5.12 197.45,5.40 197.57,5.16 197.70,4.99 197.83,4.91 197.95,4.96 198.08,4.74 198.20,4.98 198.33,5.17 198.46,4.98 198.58,5.11 198.71,4.94 198.83,5.19 198.96,5.12 199.09,5.15 199.21,5.13 199.34,5.09 199.47,5.05 199.59,5.01 199.72,4.87 199.84,4.63 199.97,4.24 200.10,4.13 200.22,56.00 200.35,55.05 200.48,55.05 200.60,54.52 200.73,54.52 200.85,54.52 200.98,54.91 201.11,52.39 201.23,52.39 201.36,53.61 201.48,53.61 201.61,53.61 201.74,52.10 201.86,52.10 201.99,52.10 202.12,52.10 202.24,50.94 202.37,50.94 202.49,50.94 202.62,48.14 202.75,48.14 202.87,50.15 203.00,50.15 203.13,48.34 203.25,48.34 203.38,48.34 203.50,45.98 203.63,45.98 203.76,45.98 203.88,46.54 204.01,46.54 204.13,46.54 204.26,46.54 204.39,45.16 204.51,45.16 204.64,45.16 204.77,42.72 204.89,42.72 205.02,42.72 205.14,43.80 205.27,43.80 205.40,43.80 205.52,43.80 205.65,44.37 205.78,42.21 205.90,42.21 206.03,42.80 206.15,42.80 206.28,42.80 206.41,44.02 206.53,42.89 206.66,42.89 206.78,42.89 206.91,42.89 207.04,43.19 207.16,43.19 207.29,43.19 207.42,43.57 207.54,43.57 207.67,43.57 207.79,43.57 207.92,43.07 208.05,43.07 208.17,43.07 208.30,42.34 208.43,42.34 208.55,42.34 208.68,42.45 208.80,42.45 208.93,42.45 209.06,40.73 209.18,40.73 209.31,40.73 209.43,41.54 209.56,41.54 209.69,41.54 209.81,41.54 209.94,39.82 210.07,39.82 210.19,39.82 210.32,39.07 210.44,39.07 210.57,41.04 210.70,39.84 210.82,39.84 210.95,39.84 211.08,39.84 211.20,38.98 211.33,38.98 211.45,38.98 211.58,38.98 211.71,37.82 211.83,37.82 211.96,37.82 212.08,36.72 212.21,36.72 212.34,36.72 212.46,36.72 212.59,36.67 212.72,36.67 212.84,34.53 212.97,34.74 213.09,36.50 213.22,36.50 213.35,35.64 213.47,35.64 213.60,35.64 213.73,34.78 213.85,34.78 213.98,34.78 214.10,34.30 214.23,34.30 214.36,34.30 214.48,33.93 214.61,32.83 214.73,32.83 214.86,32.83 214.99,33.00 215.11,33.00 215.24,33.00 215.37,32.02 215.49,32.02 215.62,32.02 215.74,31.86 215.87,31.86 216.00,31.86 216.12,31.74 216.25,31.74 216.38,31.74 216.50,31.34 216.63,31.34 216.75,31.34 216.88,30.69 217.01,30.69 217.13,30.69 217.26,30.63 217.38,28.37 217.51,28.37 217.64,28.74 217.76,28.74 217.89,28.74 218.02,28.74 218.14,29.15 218.27,29.15 218.39,29.15 218.52,28.60 218.65,28.60 218.77,28.60 218.90,28.60 219.03,29.76 219.15,29.76 219.28,29.76 219.40,29.76 219.53,29.71 219.66,29.71 219.78,30.59 219.91,30.59 220.03,30.59 220.16,30.97 220.29,30.97 220.41,30.97 220.54,30.80 220.67,30.80 220.79,30.80 220.92,30.80 221.04,30.57 221.17,30.57 221.30,30.57 221.42,30.61 221.55,30.61 221.68,30.61 221.80,31.17 221.93,31.17 222.05,31.17 222.18,32.27 222.31,32.27 222.43,32.27 222.56,33.32 222.68,33.32 222.81,33.32 222.94,33.68 223.06,33.68 223.19,33.35 223.32,34.33 223.44,34.33 223.57,34.33 223.69,34.33 223.82,34.78 223.95,34.78 224.07,34.78 224.20,34.40 224.32,34.89 224.45,34.89 224.58,34.89 224.70,34.15 224.83,35.12 224.96,35.12 225.08,35.12 225.21,35.12 225.33,35.42 225.46,35.42 225.59,35.42 225.71,35.42 225.84,35.60 225.97,35.60 226.09,35.60 226.22,35.66 226.34,35.66 226.47,35.66 226.60,36.00 226.72,36.00 226.85,36.00 226.97,36.20 227.10,36.20 227.23,36.20 227.35,35.99 227.48,35.99 227.61,35.43 227.73,36.95 227.86,36.95 227.98,36.95 228.11,36.93 228.24,37.55 228.36,37.55 228.49,37.55 228.62,37.55 228.74,36.22 228.87,37.68 228.99,37.68 229.12,37.36 229.25,37.36 229.37,37.21 229.50,37.21 229.62,37.21 229.75,34.15 229.88,34.15 230.00,34.15 230.13,34.32 230.26,34.32 230.38,34.64 230.51,34.64 230.63,34.64 230.76,34.19 230.89,34.19 231.01,32.77 231.14,32.77 231.27,36.22 231.39,36.22 231.52,34.23 231.64,34.23 231.77,36.26 231.90,34.51 232.02,34.51 232.15,34.51 232.27,33.00 232.40,33.00 232.53,33.00 232.65,31.65 232.78,34.96 232.91,33.30 233.03,33.30 233.16,33.30 233.28,31.52 233.41,31.52 233.54,31.52 233.66,30.30 233.79,30.30 233.92,30.30 234.04,30.35 234.17,30.35 234.29,31.38 234.42,31.38 234.55,31.38 234.67,32.44 234.80,29.15 234.92,29.15 235.05,30.03 235.18,30.03 235.30,30.03 235.43,29.45 235.56,32.31 235.68,32.31 235.81,31.65 235.93,31.65 236.06,30.10 236.19,30.10 236.31,30.10 236.44,31.66 236.57,31.66 236.69,31.66 236.82,31.45 236.94,31.45 237.07,31.43 237.20,29.05 237.32,29.05 237.45,29.05 237.57,30.70 237.70,30.70 237.83,27.52 237.95,29.33 238.08,29.33 238.21,29.33 238.33,30.86 238.46,30.86 238.58,31.32 238.71,31.32 238.84,30.90 238.96,30.93 239.09,30.93 239.22,30.62 239.34,30.67 239.47,30.67 239.59,30.67 239.72,30.94 239.85,30.94 239.97,29.85 240.10,30.63 240.22,30.63 240.35,30.63 240.48,30.94 240.60,30.94 240.73,30.47 240.86,30.47 240.98,30.05 241.11,29.88 241.23,29.88 241.36,29.88 241.49,29.88 241.61,29.15 241.74,29.15 241.87,29.15 241.99,29.00 242.12,28.15 242.24,28.15 242.37,28.15 242.50,28.95 242.62,28.95 242.75,27.69 242.87,28.98 243.00,28.98 243.13,28.98 243.25,28.55 243.38,28.23 243.51,28.23 243.63,28.23 243.76,28.35 243.88,28.51 244.01,28.51 244.14,28.33 244.26,28.33 244.39,28.33 244.52,28.12 244.64,28.24 244.77,28.24 244.89,28.24 245.02,27.67 245.15,27.67 245.27,26.77 245.40,26.77 245.52,27.65 245.65,27.25 245.78,27.25 245.90,27.25 246.03,27.25 246.16,27.25 246.28,27.25 246.41,26.73 246.53,26.49 246.66,26.49 246.79,26.29 246.91,26.29 247.04,25.74 247.17,25.74 247.29,25.74 247.42,25.74 247.54,24.30 247.67,24.30 247.80,25.45 247.92,23.47 248.05,23.47 248.17,24.61 248.30,24.61 248.43,24.61 248.55,22.73 248.68,22.73 248.81,24.38 248.93,23.16 249.06,23.16 249.18,23.16 249.31,23.16 249.44,21.79 249.56,21.79 249.69,23.79 249.82,22.67 249.94,22.67 250.07,22.67 250.19,22.67 250.32,22.25 250.45,22.25 250.57,22.25 250.70,22.25 250.82,22.00 250.95,22.00 251.08,22.00 251.20,20.38 251.33,22.22 251.46,22.22 251.58,22.22 251.71,22.10 251.83,22.10 251.96,22.10 252.09,21.19 252.21,21.19 252.34,20.87 252.46,20.87 252.59,20.87 252.72,19.25 252.84,19.25 252.97,19.25 253.10,19.24 253.22,19.24 253.35,19.24 253.47,18.89 253.60,19.17 253.73,18.55 253.85,18.55 253.98,18.55 254.11,18.48 254.23,18.48 254.36,18.48 254.48,18.81 254.61,18.81 254.74,19.47 254.86,19.47 254.99,19.47 255.11,19.86 255.24,18.61 255.37,18.61 255.49,19.47 255.62,19.47 255.75,19.47 255.87,18.11 256.00,19.26 256.12,19.26 256.25,19.26 256.38,18.09 256.50,18.09 256.63,19.05 256.76,18.20 256.88,18.20 257.01,18.20 257.13,18.20 257.26,18.27 257.39,18.27 257.51,18.27 257.64,17.18 257.76,17.95 257.89,17.95 258.02,17.95 258.14,17.96 258.27,17.96 258.40,17.96 258.52,17.94 258.65,17.94 258.77,17.94 258.90,17.36 259.03,17.36 259.15,17.36 259.28,17.67 259.41,17.67 259.53,17.67 259.66,16.54 259.78,16.54 259.91,17.47 260.04,17.06 260.16,17.06 260.29,17.06 260.41,16.93 260.54,16.93 260.67,16.71 260.79,16.71 260.92,15.46 261.05,15.07 261.17,15.07 261.30,15.07 261.42,15.64 261.55,15.64 261.68,15.64 261.80,15.94 261.93,15.94 262.06,14.61 262.18,14.61 262.31,14.61 262.43,14.76 262.56,14.76 262.69,14.76 262.81,15.85 262.94,15.85 263.06,15.85 263.19,15.25 263.32,15.25 263.44,15.68 263.57,15.18 263.70,15.18 263.82,15.18 263.95,14.14 264.07,14.14 264.20,14.14 264.33,13.60 264.45,13.60 264.58,13.56 264.71,13.56 264.83,13.56 264.96,13.52 265.08,12.18 265.21,12.18 265.34,12.18 265.46,12.72 265.59,11.55 265.71,11.55 265.84,11.55 265.97,11.55 266.09,12.12 266.22,12.12 266.35,11.86 266.47,11.86 266.60,11.86 266.72,11.09 266.85,11.09 266.98,11.09 267.10,11.09 267.23,11.41 267.36,10.18 267.48,10.18 267.61,10.18 267.73,9.81 267.86,9.81 267.99,9.81 268.11,9.12 268.24,9.12 268.36,9.12 268.49,8.79 268.62,8.79 268.74,8.83 268.87,8.79 269.00,8.79 269.12,8.79 269.25,8.79 269.37,8.65 269.50,8.65 269.63,8.65 269.75,8.75 269.88,8.75 270.01,8.75 270.13,8.75 270.26,8.76 270.38,8.76 270.51,8.76 270.64,8.76 270.76,9.33 270.89,9.24 271.01,9.24 271.14,8.74 271.27,8.74 271.39,9.49 271.52,9.49 271.65,9.49 271.77,8.99 271.90,8.99 272.02,8.99 272.15,8.65 272.28,8.65 272.40,8.65 272.53,8.41 272.66,8.41 272.78,8.41 272.91,7.90 273.03,7.90 273.16,8.33 273.29,8.54 273.41,8.54 273.54,8.54 273.66,8.93 273.79,8.93 273.92,8.93 274.04,8.27 274.17,8.27 274.30,8.27 274.42,8.27 274.55,9.24 274.67,9.24 274.80,9.24 274.93,9.92 275.05,9.92 275.18,9.92 275.31,10.48 275.43,10.48 275.56,10.48 275.68,11.02 275.81,11.02 275.94,11.02 276.06,11.75 276.19,11.75 276.31,11.75 276.44,12.23 276.57,12.23 276.69,12.34 276.82,12.34 276.95,12.53 277.07,12.53 277.20,12.53 277.32,12.72 277.45,12.72 277.58,12.72 277.70,12.81 277.83,12.81 277.96,12.81 278.08,12.83 278.21,12.83 278.33,12.83 278.46,12.85 278.59,12.85 278.71,12.85 278.84,12.85 278.96,12.78 279.09,12.78 279.22,12.78 279.34,12.89 279.47,12.89 279.60,12.89 279.72,12.74 279.85,12.74 279.97,12.74 280.10,11.88 280.23,11.88 280.35,11.88 280.48,11.00 280.61,10.90 280.73,10.90 280.86,9.98 280.98,9.98 281.11,9.98 281.24,9.46 281.36,9.46 281.49,9.46 281.61,9.46 281.74,9.40 281.87,9.40 281.99,9.40 282.12,9.66 282.25,9.85 282.37,9.85 282.50,9.73 282.62,9.73 282.75,9.73 282.88,9.95 283.00,9.95 283.13,9.95 283.25,10.26 283.38,10.26 283.51,10.26 283.63,9.97 283.76,9.97 283.89,9.97 284.01,9.97 284.14,9.23 284.26,9.75 284.39,9.75 284.52,9.23 284.64,9.23 284.77,9.23 284.90,8.57 285.02,9.09 285.15,9.09 285.27,9.09 285.40,8.97 285.53,8.30 285.65,8.30 285.78,8.30 285.90,7.74 286.03,7.74 286.16,7.74 286.28,7.40 286.41,7.40 286.54,7.40 286.66,7.40 286.79,7.50 286.91,7.90 287.04,7.90 287.17,8.31 287.29,8.31 287.42,8.31 287.55,8.26 287.67,8.26 287.80,8.26 287.92,8.26 288.05,7.39 288.18,8.09 288.30,8.09 288.43,6.84 288.55,6.84 288.68,6.84 288.81,5.44 288.93,5.44 289.06,5.44 289.19,5.44 289.31,4.60 289.44,4.60 289.56,5.77 289.69,4.98 289.82,4.98 289.94,4.98 290.07,4.98 290.20,4.69 290.32,4.69 290.45,4.69 290.57,4.79 290.70,4.79 290.83,4.79 290.95,4.59 291.08,4.59 291.20,4.59 291.33,4.21 291.46,4.21 291.58,4.43 291.71,4.43 291.84,4.43 291.96,4.95 292.09,4.95 292.21,4.95 292.34,4.95 292.47,5.19 292.59,5.19 292.72,5.19 292.85,4.49 292.97,4.49 293.10,4.49 293.22,4.26 293.35,5.43 293.48,5.16 293.60,5.16 293.73,5.16 293.85,5.01 293.98,4.00 294.11,4.00 294.23,4.42 294.36,4.42 294.49,4.42 294.61,4.98 294.74,4.98 294.86,4.20 294.99,4.68 295.12,4.68 295.24,5.12 295.37,5.12 295.50,5.20 295.62,4.84 295.75,4.84 295.87,4.34 296.00,4.34" />
</svg>