<svg width="300" height="60" xmlns="http://www.w3.org/2000/svg">
  <polyline fill="rgba(255,200,0,0.3)" stroke="#ffbb00" stroke-width="2" points="4.00,6.05 5.47,7.51 6.93,9.17 8.40,10.81 9.87,12.06 11.34,14.52 12.80,16.69 14.27,18.71 15.74,19.37 17.21,18.66 18.67,19.24 20.14,19.51 21.61,21.47 23.08,22.84 24.54,24.10 26.01,25.82 27.48,28.20 28.94,29.62 30.41,31.38 31.88,33.18 33.35,35.65 34.81,38.42 36.28,39.82 37.75,42.60 39.22,44.40 40.68,45.47 42.15,46.85 43.62,47.72 45.09,49.10 46.55,49.59 48.02,50.07 49.49,51.46 50.95,50.81 52.42,50.82 53.89,50.63 55.36,49.71 56.82,49.05 58.29,48.87 59.76,48.42 61.23,48.86 62.69,48.52 64.16,48.40 65.63,49.82 67.10,52.81 68.56,53.41 70.03,53.41 71.50,54.01 72.96,53.91 74.43,54.87 75.90,55.94 77.37,5.96 78.83,7.51 80.30,9.16 81.77,10.86 83.24,12.12 84.70,14.86 86.17,16.39 87.64,18.17 89.11,19.39 90.57,18.63 92.04,19.47 93.51,19.79 94.97,21.19 96.44,22.57 97.91,23.99 99.38,25.71 100.84,27.50 102.31,29.99 103.78,31.53 105.25,32.99 106.71,35.73 108.18,37.73 109.65,39.94 111.12,42.57 112.58,44.61 114.05,45.87 115.52,46.62 116.98,47.64 118.45,48.98 119.92,49.57 121.39,50.09 122.85,51.42 124.32,50.86 125.79,50.82 127.26,50.27 128.72,49.93 130.19,49.17 131.66,48.87 133.13,48.28 134.59,49.10 136.06,48.05 137.53,48.30 138.99,49.44 140.46,53.10 141.93,53.41 143.40,53.49 144.86,53.98 146.33,54.00 147.80,55.20 149.27,55.67 150.73,5.80 152.20,7.05 153.67,8.50 155.14,10.21 156.60,11.73 158.07,14.02 159.54,16.41 161.01,18.41 162.47,19.67 163.94,18.49 165.41,19.41 166.87,20.05 168.34,20.05 169.81,22.17 171.28,24.40 172.74,24.92 174.21,27.42 175.68,29.95 177.15,31.61 178.61,32.15 180.08,35.31 181.55,37.23 183.02,39.89 184.48,42.11 185.95,43.77 187.42,45.25 188.88,47.18 190.35,48.07 191.82,49.05 193.29,49.67 194.75,50.31 196.22,50.94 197.69,50.66 199.16,49.72 200.62,48.63 202.09,50.04 203.56,50.04 205.03,49.00 206.49,49.76 207.96,47.96 209.43,48.13 210.89,49.97 212.36,50.37 213.83,52.85 215.30,53.20 216.76,54.04 218.23,54.42 219.70,53.63 221.17,54.87 222.63,55.85 224.10,4.00 225.57,7.37 227.04,7.37 228.50,10.96 229.97,15.24 231.44,15.24 232.90,15.24 234.37,23.14 235.84,23.14 237.31,16.92 238.77,19.63 240.24,19.63 241.71,19.63 243.18,19.63 244.64,23.99 246.11,23.99 247.58,23.99 249.05,26.42 250.51,31.66 251.98,31.66 253.45,31.66 254.91,31.66 256.38,39.77 257.85,39.77 259.32,39.77 260.78,45.10 262.25,45.10 263.72,45.10 265.19,48.67 266.65,48.67 268.12,48.67 269.59,49.41 271.06,49.41 272.52,49.41 273.99,46.12 275.46,46.12 276.92,46.12 278.39,46.12 279.86,48.79 281.33,48.79 282.79,48.79 284.26,48.79 285.73,50.12 287.20,50.12 288.66,50.12 290.13,54.46 291.60,54.46 293.07,52.24 294.53,52.24 296.00,56.00" />
</svg>