<svg width="300" height="60" xmlns="http://www.w3.org/2000/svg">
  <polyline fill="rgba(255,200,0,0.3)" stroke="#ffbb00" stroke-width="2" points="4.00,53.15 4.22,53.41 4.43,53.42 4.65,53.38 4.86,53.37 5.08,53.39 5.29,53.41 5.51,53.38 5.73,53.42 5.94,53.45 6.16,53.13 6.37,52.16 6.59,51.22 6.80,50.40 7.02,49.75 7.23,49.49 7.45,49.34 7.67,48.98 7.88,48.23 8.10,47.77 8.31,47.60 8.53,46.64 8.74,44.51 8.96,43.15 9.18,42.60 9.39,41.56 9.61,40.67 9.82,39.38 10.04,39.54 10.25,39.01 10.47,38.03 10.69,37.28 10.90,36.45 11.12,35.67 11.33,34.74 11.55,33.80 11.76,32.79 11.98,31.76 12.19,30.74 12.41,30.00 12.63,29.39 12.84,28.79 13.06,28.38 13.27,28.44 13.49,28.84 13.70,29.77 13.92,30.20 14.14,30.54 14.35,30.01 14.57,29.53 14.78,29.42 15.00,29.20 15.21,29.34 15.43,29.25 15.65,29.18 15.86,29.00 16.08,28.62 16.29,28.52 16.51,28.49 16.72,28.12 16.94,27.48 17.16,27.24 17.37,27.23 17.59,26.42 17.80,25.54 18.02,25.59 18.23,25.42 18.45,25.25 18.66,25.06 18.88,24.88 19.10,24.82 19.31,24.92 19.53,25.89 19.74,25.94 19.96,25.00 20.17,25.08 20.39,24.48 20.61,23.95 20.82,23.77 21.04,24.07 21.25,24.31 21.47,24.68 21.68,25.24 21.90,25.48 22.12,25.80 22.33,26.10 22.55,25.41 22.76,25.03 22.98,24.67 23.19,24.80 23.41,25.00 23.62,26.03 23.84,25.37 24.06,24.92 24.27,25.37 24.49,26.54 24.70,25.39 24.92,25.20 25.13,25.17 25.35,25.06 25.57,25.15 25.78,25.17 26.00,25.20 26.21,25.51 26.43,24.88 26.64,24.91 26.86,24.54 27.08,24.78 27.29,25.24 27.51,25.37 27.72,25.50 27.94,25.91 28.15,26.01 28.37,25.56 28.58,25.33 28.80,25.34 29.02,25.22 29.23,25.18 29.45,25.23 29.66,25.47 29.88,25.78 30.09,26.00 30.31,26.07 30.53,26.01 30.74,27.63 30.96,28.56 31.17,26.69 31.39,25.83 31.60,24.67 31.82,25.89 32.04,26.61 32.25,26.89 32.47,26.26 32.68,26.73 32.90,26.66 33.11,25.97 33.33,25.73 33.55,25.60 33.76,25.70 33.98,25.24 34.19,25.08 34.41,24.95 34.62,24.79 34.84,23.33 35.05,23.59 35.27,23.94 35.49,24.25 35.70,24.31 35.92,24.50 36.13,24.73 36.35,24.81 36.56,24.86 36.78,24.89 37.00,24.89 37.21,24.76 37.43,24.43 37.64,22.55 37.86,21.81 38.07,23.01 38.29,23.17 38.51,23.87 38.72,23.80 38.94,24.23 39.15,24.72 39.37,24.26 39.58,24.05 39.80,23.82 40.01,23.13 40.23,22.59 40.45,22.47 40.66,22.51 40.88,22.58 41.09,22.51 41.31,22.23 41.52,21.76 41.74,21.12 41.96,20.67 42.17,20.12 42.39,19.70 42.60,19.33 42.82,18.74 43.03,18.19 43.25,17.82 43.47,17.43 43.68,17.03 43.90,16.62 44.11,16.61 44.33,16.21 44.54,16.22 44.76,16.04 44.97,15.43 45.19,14.81 45.41,14.40 45.62,13.42 45.84,12.99 46.05,12.59 46.27,12.63 46.48,12.47 46.70,11.85 46.92,10.86 47.13,10.17 47.35,9.98 47.56,9.90 47.78,9.80 47.99,9.59 48.21,9.88 48.43,10.04 48.64,10.14 48.86,10.10 49.07,10.14 49.29,10.13 49.50,9.74 49.72,9.35 49.94,9.28 50.15,8.95 50.37,8.51 50.58,8.11 50.80,7.90 51.01,8.21 51.23,8.50 51.44,8.50 51.66,8.11 51.88,7.60 52.09,7.50 52.31,8.13 52.52,8.06 52.74,8.05 52.95,8.27 53.17,8.62 53.39,8.92 53.60,7.94 53.82,7.31 54.03,8.85 54.25,9.09 54.46,9.26 54.68,9.45 54.90,9.67 55.11,9.98 55.33,10.30 55.54,10.70 55.76,11.10 55.97,11.70 56.19,12.33 56.40,13.44 56.62,14.22 56.84,14.46 57.05,14.11 57.27,14.50 57.48,15.06 57.70,16.00 57.91,16.61 58.13,16.54 58.35,16.90 58.56,17.18 58.78,17.63 58.99,18.14 59.21,18.26 59.42,18.26 59.64,17.99 59.86,19.20 60.07,19.95 60.29,20.27 60.50,20.38 60.72,21.13 60.93,22.17 61.15,22.65 61.36,23.30 61.58,23.74 61.80,24.61 62.01,25.74 62.23,27.28 62.44,53.12 62.66,53.37 62.87,53.40 63.09,53.37 63.31,53.37 63.52,53.38 63.74,53.42 63.95,53.37 64.17,53.42 64.38,53.31 64.60,53.19 64.82,52.09 65.03,51.21 65.25,50.39 65.46,49.73 65.68,49.54 65.89,49.47 66.11,48.94 66.32,48.36 66.54,47.66 66.76,47.38 66.97,46.59 67.19,44.54 67.40,43.09 67.62,42.63 67.83,41.44 68.05,40.68 68.27,39.25 68.48,39.59 68.70,38.95 68.91,38.02 69.13,37.33 69.34,36.42 69.56,35.61 69.78,34.67 69.99,33.83 70.21,32.75 70.42,31.70 70.64,30.75 70.85,30.03 71.07,29.43 71.29,28.77 71.50,28.37 71.72,28.43 71.93,28.83 72.15,29.78 72.36,29.92 72.58,30.47 72.79,30.11 73.01,29.51 73.23,29.40 73.44,29.12 73.66,29.34 73.87,29.31 74.09,29.17 74.30,28.95 74.52,28.58 74.74,28.58 74.95,28.45 75.17,28.02 75.38,27.55 75.60,27.29 75.81,27.35 76.03,26.43 76.25,25.68 76.46,25.57 76.68,25.40 76.89,25.25 77.11,25.07 77.32,24.88 77.54,24.81 77.75,24.94 77.97,25.78 78.19,25.94 78.40,25.12 78.62,25.35 78.83,24.37 79.05,23.96 79.26,23.74 79.48,24.05 79.70,24.32 79.91,24.69 80.13,25.27 80.34,25.45 80.56,25.83 80.77,26.08 80.99,25.43 81.21,25.03 81.42,24.67 81.64,24.78 81.85,24.94 82.07,25.70 82.28,25.38 82.50,24.91 82.71,25.38 82.93,26.48 83.15,25.37 83.36,25.20 83.58,25.16 83.79,25.13 84.01,25.14 84.22,25.12 84.44,25.20 84.66,25.42 84.87,24.88 85.09,24.86 85.30,24.57 85.52,24.71 85.73,25.27 85.95,25.41 86.17,25.49 86.38,25.78 86.60,26.18 86.81,25.57 87.03,25.28 87.24,25.35 87.46,25.25 87.68,25.18 87.89,25.21 88.11,25.47 88.32,25.76 88.54,26.06 88.75,26.07 88.97,26.00 89.18,27.43 89.40,28.46 89.62,26.63 89.83,25.82 90.05,24.49 90.26,25.87 90.48,26.61 90.69,26.73 90.91,26.31 91.13,26.44 91.34,26.59 91.56,26.01 91.77,25.65 91.99,25.62 92.20,25.63 92.42,25.23 92.64,25.06 92.85,24.95 93.07,24.81 93.28,23.58 93.50,23.85 93.71,24.18 93.93,24.28 94.14,24.41 94.36,24.51 94.58,24.73 94.79,24.82 95.01,24.88 95.22,24.90 95.44,24.92 95.65,24.73 95.87,24.29 96.09,22.62 96.30,21.76 96.52,23.04 96.73,23.24 96.95,23.77 97.16,23.75 97.38,24.22 97.60,24.88 97.81,24.27 98.03,24.08 98.24,23.95 98.46,23.12 98.67,22.57 98.89,22.47 99.10,22.52 99.32,22.54 99.54,22.47 99.75,22.23 99.97,21.76 100.18,21.04 100.40,20.66 100.61,20.12 100.83,19.75 101.05,19.37 101.26,18.72 101.48,18.24 101.69,17.77 101.91,17.47 102.12,16.96 102.34,16.56 102.56,16.56 102.77,16.21 102.99,16.39 103.20,16.14 103.42,15.37 103.63,14.76 103.85,14.39 104.06,13.41 104.28,13.00 104.50,12.56 104.71,12.61 104.93,12.47 105.14,11.80 105.36,10.79 105.57,10.16 105.79,9.96 106.01,9.91 106.22,9.80 106.44,9.57 106.65,9.91 106.87,10.09 107.08,10.20 107.30,10.09 107.52,10.13 107.73,10.03 107.95,9.48 108.16,9.13 108.38,9.30 108.59,8.94 108.81,8.45 109.03,8.10 109.24,7.92 109.46,8.16 109.67,8.51 109.89,8.42 110.10,8.10 110.32,7.59 110.53,7.49 110.75,8.01 110.97,8.04 111.18,8.07 111.40,8.28 111.61,8.65 111.83,9.02 112.04,7.91 112.26,7.39 112.48,8.72 112.69,9.11 112.91,9.33 113.12,9.43 113.34,9.67 113.55,9.98 113.77,10.32 113.99,10.67 114.20,11.16 114.42,11.71 114.63,12.41 114.85,13.38 115.06,14.19 115.28,14.47 115.49,14.04 115.71,14.53 115.93,15.08 116.14,16.03 116.36,16.58 116.57,16.55 116.79,16.91 117.00,17.20 117.22,17.56 117.44,18.26 117.65,18.23 117.87,18.25 118.08,18.20 118.30,19.19 118.51,20.02 118.73,20.25 118.95,20.38 119.16,21.06 119.38,22.23 119.59,22.68 119.81,23.30 120.02,23.81 120.24,24.70 120.45,25.69 120.67,27.28 120.89,53.07 121.10,53.40 121.32,53.40 121.53,53.38 121.75,53.37 121.96,53.34 122.18,53.41 122.40,53.37 122.61,53.39 122.83,53.30 123.04,52.91 123.26,51.99 123.47,51.30 123.69,50.32 123.91,49.96 124.12,49.58 124.34,49.66 124.55,49.17 124.77,48.70 124.98,47.98 125.20,47.54 125.42,46.70 125.63,44.03 125.85,43.06 126.06,42.47 126.28,41.37 126.49,40.20 126.71,39.82 126.92,39.50 127.14,38.76 127.36,37.91 127.57,37.03 127.79,36.34 128.00,35.35 128.22,34.66 128.43,33.58 128.65,32.67 128.87,31.63 129.08,30.80 129.30,29.90 129.51,29.38 129.73,28.81 129.94,28.36 130.16,28.42 130.38,28.91 130.59,30.09 130.81,30.41 131.02,30.35 131.24,30.19 131.45,29.48 131.67,29.43 131.88,29.40 132.10,29.41 132.32,29.33 132.53,29.13 132.75,28.92 132.96,28.79 133.18,28.66 133.39,28.58 133.61,28.17 133.83,27.55 134.04,27.25 134.26,27.58 134.47,26.37 134.69,25.94 134.90,25.59 135.12,25.51 135.34,25.30 135.55,25.08 135.77,24.95 135.98,24.82 136.20,24.91 136.41,26.21 136.63,25.48 136.84,25.69 137.06,25.81 137.28,24.51 137.49,23.89 137.71,23.74 137.92,24.04 138.14,24.28 138.35,24.66 138.57,25.34 138.79,25.51 139.00,25.77 139.22,25.97 139.43,25.34 139.65,25.03 139.86,24.83 140.08,24.87 140.30,24.87 140.51,26.01 140.73,25.24 140.94,24.93 141.16,25.92 141.37,26.83 141.59,25.34 141.81,24.98 142.02,25.03 142.24,25.07 142.45,25.14 142.67,25.09 142.88,25.36 143.10,25.43 143.31,24.85 143.53,24.90 143.75,24.86 143.96,24.85 144.18,25.33 144.39,25.61 144.61,25.78 144.82,25.75 145.04,25.77 145.26,25.36 145.47,25.23 145.69,25.15 145.90,25.22 146.12,25.10 146.33,25.21 146.55,25.50 146.77,25.60 146.98,26.02 147.20,26.11 147.41,26.01 147.63,27.62 147.84,28.55 148.06,27.13 148.27,25.85 148.49,24.04 148.71,25.91 148.92,27.29 149.14,26.58 149.35,26.87 149.57,26.57 149.78,27.03 150.00,25.79 150.22,25.55 150.43,25.75 150.65,25.69 150.86,25.26 151.08,25.02 151.29,24.96 151.51,24.38 151.73,23.83 151.94,24.24 152.16,23.53 152.37,24.34 152.59,24.35 152.80,24.33 153.02,24.78 153.23,24.79 153.45,24.86 153.67,24.87 153.88,24.86 154.10,24.69 154.31,24.46 154.53,23.16 154.74,21.71 154.96,22.52 155.18,22.68 155.39,23.35 155.61,23.55 155.82,24.17 156.04,24.34 156.25,24.29 156.47,24.12 156.69,23.51 156.90,23.03 157.12,22.52 157.33,22.46 157.55,22.48 157.76,22.56 157.98,22.40 158.19,22.20 158.41,21.77 158.63,20.31 158.84,20.62 159.06,20.09 159.27,19.51 159.49,19.12 159.70,18.73 159.92,18.22 160.14,17.83 160.35,17.54 160.57,16.90 160.78,16.55 161.00,16.27 161.21,16.01 161.43,16.25 161.65,15.44 161.86,14.72 162.08,14.32 162.29,14.08 162.51,13.29 162.72,12.81 162.94,12.46 163.16,12.47 163.37,12.12 163.59,11.64 163.80,10.82 164.02,10.11 164.23,9.96 164.45,9.85 164.66,9.81 164.88,9.73 165.10,9.72 165.31,10.45 165.53,10.09 165.74,10.11 165.96,10.12 166.17,9.97 166.39,9.55 166.61,9.46 166.82,9.25 167.04,8.93 167.25,8.30 167.47,8.11 167.68,7.98 167.90,8.61 168.12,8.21 168.33,8.59 168.55,8.07 168.76,7.48 168.98,7.59 169.19,7.94 169.41,8.05 169.62,8.04 169.84,8.29 170.06,8.52 170.27,8.72 170.49,7.31 170.70,7.45 170.92,8.94 171.13,9.01 171.35,9.17 171.57,9.37 171.78,9.68 172.00,9.96 172.21,10.29 172.43,10.67 172.64,11.22 172.86,11.79 173.08,12.25 173.29,13.41 173.51,14.35 173.72,14.49 173.94,14.08 174.15,14.24 174.37,15.10 174.58,16.18 174.80,16.56 175.02,16.52 175.23,16.96 175.45,17.23 175.66,17.53 175.88,17.79 176.09,18.02 176.31,18.19 176.53,18.27 176.74,19.07 176.96,20.08 177.17,20.00 177.39,20.48 177.60,21.03 177.82,22.03 178.04,22.63 178.25,22.99 178.47,23.68 178.68,24.22 178.90,25.91 179.11,27.22 179.33,53.17 179.55,53.60 179.76,54.24 179.98,53.43 180.19,53.54 180.41,53.74 180.62,53.42 180.84,54.02 181.05,53.46 181.27,53.69 181.49,53.69 181.70,53.48 181.92,52.36 182.13,51.43 182.35,50.74 182.56,50.53 182.78,50.51 183.00,48.74 183.21,49.03 183.43,47.66 183.64,47.46 183.86,45.62 184.07,44.89 184.29,43.41 184.51,43.06 184.72,41.57 184.94,39.84 185.15,39.90 185.37,38.72 185.58,38.57 185.80,37.73 186.01,37.43 186.23,36.34 186.45,35.08 186.66,34.66 186.88,33.85 187.09,32.79 187.31,31.74 187.52,31.65 187.74,29.49 187.96,29.28 188.17,29.13 188.39,29.07 188.60,28.55 188.82,29.57 189.03,29.57 189.25,30.25 189.47,31.03 189.68,29.86 189.90,30.09 190.11,29.62 190.33,29.09 190.54,28.66 190.76,28.26 190.97,28.49 191.19,29.00 191.41,27.80 191.62,28.49 191.84,29.00 192.05,27.39 192.27,27.70 192.48,26.35 192.70,26.57 192.92,26.61 193.13,25.06 193.35,25.37 193.56,24.78 193.78,25.36 193.99,24.89 194.21,24.47 194.43,25.11 194.64,25.25 194.86,26.62 195.07,24.80 195.29,24.80 195.50,26.00 195.72,24.58 195.94,23.60 196.15,23.90 196.37,24.30 196.58,22.73 196.80,24.85 197.01,25.86 197.23,24.70 197.44,25.60 197.66,25.81 197.88,24.98 198.09,25.36 198.31,25.17 198.52,25.30 198.74,25.39 198.95,25.30 199.17,25.83 199.39,25.83 199.60,25.31 199.82,26.17 200.03,25.10 200.25,24.99 200.46,24.99 200.68,25.25 200.90,24.63 201.11,25.50 201.33,25.47 201.54,24.91 201.76,24.78 201.97,25.06 202.19,24.61 202.40,24.42 202.62,25.23 202.84,25.79 203.05,26.05 203.27,26.11 203.48,25.94 203.70,26.19 203.91,25.10 204.13,24.68 204.35,25.30 204.56,25.54 204.78,25.34 204.99,25.51 205.21,25.89 205.42,26.02 205.64,25.82 205.86,26.72 206.07,28.95 206.29,29.45 206.50,26.37 206.72,24.65 206.93,23.13 207.15,25.08 207.36,27.04 207.58,27.22 207.80,26.72 208.01,26.72 208.23,27.72 208.44,26.23 208.66,26.39 208.87,26.49 209.09,26.18 209.31,25.09 209.52,25.30 209.74,25.30 209.95,23.37 210.17,24.13 210.38,22.84 210.60,24.28 210.82,23.63 211.03,24.75 211.25,24.77 211.46,25.13 211.68,24.33 211.89,25.10 212.11,24.43 212.32,25.12 212.54,24.96 212.76,23.71 212.97,21.96 213.19,22.66 213.40,22.19 213.62,22.64 213.83,23.72 214.05,24.11 214.27,24.11 214.48,25.02 214.70,25.48 214.91,23.92 215.13,23.80 215.34,24.94 215.56,23.39 215.78,24.39 215.99,22.89 216.21,23.80 216.42,21.36 216.64,21.17 216.85,20.91 217.07,21.02 217.29,20.21 217.50,20.37 217.72,19.25 217.93,20.33 218.15,18.62 218.36,18.98 218.58,19.45 218.79,17.40 219.01,17.85 219.23,16.17 219.44,17.12 219.66,16.35 219.87,17.80 220.09,16.67 220.30,15.51 220.52,14.93 220.74,14.93 220.95,13.63 221.17,13.66 221.38,12.62 221.60,13.08 221.81,13.21 222.03,11.57 222.25,12.17 222.46,10.75 222.68,10.02 222.89,9.84 223.11,9.72 223.32,9.62 223.54,9.15 223.75,11.16 223.97,9.02 224.19,9.24 224.40,9.83 224.62,9.72 224.83,10.01 225.05,8.18 225.26,9.54 225.48,8.80 225.70,7.63 225.91,7.63 226.13,8.38 226.34,7.91 226.56,8.76 226.77,9.31 226.99,8.02 227.21,7.72 227.42,8.02 227.64,8.93 227.85,9.00 228.07,8.10 228.28,9.06 228.50,8.46 228.71,10.39 228.93,9.39 229.15,8.42 229.36,8.10 229.58,8.37 229.79,8.68 230.01,8.96 230.22,9.87 230.44,9.97 230.66,10.42 230.87,10.86 231.09,10.91 231.30,11.68 231.52,12.16 231.73,13.48 231.95,14.03 232.17,14.34 232.38,14.16 232.60,14.43 232.81,15.26 233.03,16.29 233.24,16.95 233.46,16.95 233.68,16.71 233.89,16.42 234.11,17.77 234.32,17.72 234.54,18.48 234.75,18.48 234.97,17.93 235.18,19.38 235.40,20.20 235.62,21.12 235.83,20.76 236.05,21.94 236.26,21.76 236.48,22.83 236.69,23.86 236.91,23.18 237.13,24.28 237.34,26.39 237.56,27.05 237.77,52.52 237.99,52.82 238.20,54.08 238.42,54.08 238.64,54.08 238.85,54.08 239.07,55.01 239.28,55.01 239.50,55.01 239.71,53.47 239.93,53.47 240.14,56.00 240.36,56.00 240.58,54.07 240.79,54.07 241.01,54.07 241.22,51.57 241.44,48.74 241.65,48.74 241.87,47.44 242.09,47.44 242.30,47.44 242.52,43.40 242.73,42.87 242.95,42.87 243.16,42.87 243.38,40.92 243.60,40.92 243.81,37.44 244.03,37.56 244.24,37.56 244.46,37.56 244.67,37.56 244.89,34.17 245.10,34.17 245.32,34.17 245.54,32.07 245.75,32.07 245.97,34.17 246.18,29.50 246.40,29.53 246.61,29.53 246.83,29.53 247.05,30.61 247.26,30.61 247.48,30.61 247.69,31.71 247.91,31.71 248.12,31.71 248.34,32.91 248.56,29.36 248.77,29.36 248.99,29.36 249.20,27.30 249.42,27.30 249.63,27.34 249.85,27.34 250.06,27.34 250.28,29.01 250.50,26.18 250.71,26.18 250.93,26.17 251.14,26.17 251.36,26.17 251.57,25.74 251.79,25.74 252.01,24.93 252.22,24.07 252.44,24.07 252.65,24.07 252.87,25.49 253.08,23.43 253.30,23.43 253.52,23.43 253.73,23.43 253.95,20.32 254.16,20.32 254.38,23.27 254.59,23.27 254.81,23.27 255.03,20.50 255.24,20.50 255.46,23.36 255.67,23.36 255.89,23.36 256.10,24.62 256.32,24.62 256.53,24.62 256.75,23.03 256.97,23.03 257.18,23.03 257.40,22.23 257.61,26.43 257.83,26.43 258.04,24.06 258.26,24.06 258.48,27.35 258.69,27.35 258.91,27.35 259.12,27.35 259.34,24.84 259.55,24.84 259.77,24.84 259.99,24.84 260.20,23.03 260.42,23.03 260.63,23.03 260.85,24.51 261.06,24.51 261.28,24.51 261.49,25.99 261.71,25.99 261.93,25.99 262.14,24.98 262.36,24.98 262.57,24.98 262.79,27.27 263.00,27.27 263.22,27.27 263.44,27.77 263.65,27.77 263.87,27.77 264.08,28.09 264.30,28.09 264.51,28.09 264.73,32.32 264.95,27.24 265.16,27.24 265.38,27.24 265.59,23.20 265.81,23.20 266.02,28.37 266.24,28.37 266.45,28.37 266.67,28.37 266.89,25.99 267.10,25.99 267.32,25.99 267.53,26.00 267.75,26.00 267.96,26.00 268.18,26.00 268.40,22.34 268.61,27.29 268.83,25.68 269.04,25.68 269.26,25.68 269.47,25.43 269.69,25.43 269.91,25.43 270.12,27.62 270.34,27.62 270.55,27.62 270.77,28.08 270.98,28.08 271.20,25.61 271.42,25.61 271.63,25.61 271.85,26.43 272.06,26.43 272.28,26.43 272.49,31.31 272.71,31.31 272.92,26.96 273.14,26.96 273.36,26.96 273.57,25.67 273.79,25.67 274.00,25.67 274.22,28.62 274.43,28.62 274.65,28.62 274.87,21.04 275.08,21.04 275.30,21.04 275.51,22.98 275.73,22.98 275.94,22.98 276.16,18.78 276.38,21.28 276.59,21.28 276.81,21.28 277.02,22.87 277.24,22.87 277.45,22.87 277.67,18.61 277.88,18.61 278.10,18.61 278.32,21.72 278.53,21.72 278.75,15.45 278.96,18.68 279.18,18.68 279.39,18.68 279.61,15.16 279.83,15.16 280.04,15.16 280.26,14.73 280.47,14.73 280.69,14.73 280.90,14.73 281.12,10.66 281.34,10.66 281.55,10.66 281.77,9.15 281.98,9.15 282.20,11.99 282.41,6.37 282.63,6.37 282.84,6.37 283.06,4.00 283.28,11.30 283.49,11.30 283.71,6.61 283.92,6.61 284.14,10.80 284.35,10.80 284.57,10.80 284.79,5.50 285.00,8.41 285.22,8.41 285.43,8.41 285.65,9.81 285.86,9.81 286.08,9.81 286.30,10.36 286.51,10.36 286.73,10.36 286.94,8.23 287.16,14.48 287.37,14.48 287.59,14.48 287.81,12.11 288.02,12.11 288.24,12.11 288.45,10.63 288.67,10.63 288.88,10.63 289.10,10.44 289.31,12.49 289.53,12.49 289.75,12.49 289.96,12.49 290.18,15.28 290.39,15.28 290.61,15.28 290.82,15.36 291.04,15.36 291.26,15.36 291.47,17.91 291.69,17.51 291.90,17.51 292.12,17.51 292.33,21.00 292.55,21.00 292.77,17.78 292.98,21.68 293.20,21.68 293.41,21.68 293.63,20.47 293.84,20.47 294.06,24.05 294.27,24.05 294.49,24.05 294.71,23.87 294.92,23.87 295.14,23.87 295.35,26.83 295.57,26.83 295.78,28.64 296.00,28.64" />
</svg>