<svg width="300" height="60" xmlns="http://www.w3.org/2000/svg">
  <polyline fill="rgba(255,200,0,0.3)" stroke="#ffbb00" stroke-width="2" points="4.00,4.04 4.26,4.51 4.52,5.28 4.77,5.82 5.03,5.93 5.29,6.68 5.55,7.22 5.81,8.14 6.07,8.64 6.32,8.90 6.58,9.92 6.84,10.40 7.10,10.65 7.36,11.04 7.61,11.09 7.87,11.30 8.13,11.63 8.39,12.07 8.65,12.76 8.91,12.99 9.16,13.89 9.42,14.78 9.68,14.87 9.94,15.50 10.20,15.34 10.45,15.81 10.71,16.19 10.97,15.93 11.23,16.17 11.49,16.62 11.75,17.19 12.00,17.64 12.26,17.85 12.52,17.54 12.78,17.87 13.04,19.11 13.29,20.11 13.55,21.32 13.81,22.68 14.07,22.74 14.33,22.95 14.59,23.87 14.84,24.23 15.10,24.95 15.36,25.67 15.62,26.25 15.88,25.92 16.13,25.61 16.39,25.24 16.65,24.48 16.91,25.10 17.17,25.88 17.43,26.85 17.68,27.32 17.94,28.09 18.20,28.71 18.46,29.11 18.72,29.40 18.97,29.61 19.23,29.80 19.49,29.77 19.75,29.82 20.01,29.88 20.27,30.06 20.52,30.08 20.78,29.98 21.04,29.63 21.30,29.64 21.56,29.59 21.81,29.40 22.07,28.95 22.33,28.50 22.59,28.43 22.85,28.59 23.11,28.45 23.36,28.19 23.62,27.45 23.88,27.29 24.14,27.19 24.40,27.22 24.65,27.27 24.91,27.41 25.17,27.31 25.43,27.30 25.69,27.37 25.95,27.34 26.20,27.57 26.46,27.48 26.72,27.29 26.98,27.07 27.24,27.04 27.49,26.80 27.75,26.81 28.01,26.89 28.27,26.66 28.53,26.42 28.79,25.91 29.04,25.44 29.30,24.53 29.56,24.01 29.82,22.82 30.08,22.31 30.33,22.09 30.59,22.50 30.85,23.64 31.11,25.13 31.37,25.94 31.63,24.92 31.88,24.24 32.14,23.91 32.40,23.27 32.66,22.82 32.92,21.98 33.17,21.65 33.43,21.71 33.69,21.87 33.95,23.09 34.21,23.80 34.47,24.21 34.72,24.23 34.98,23.89 35.24,23.47 35.50,22.88 35.76,22.26 36.01,22.07 36.27,22.92 36.53,23.48 36.79,24.31 37.05,24.59 37.31,24.99 37.56,25.37 37.82,25.96 38.08,26.72 38.34,27.52 38.60,27.59 38.85,27.05 39.11,27.00 39.37,26.24 39.63,26.75 39.89,28.59 40.15,29.25 40.40,29.66 40.66,30.04 40.92,30.71 41.18,31.13 41.44,30.96 41.69,31.34 41.95,31.65 42.21,32.24 42.47,32.80 42.73,33.10 42.98,33.44 43.24,34.02 43.50,34.75 43.76,35.47 44.02,36.12 44.28,36.53 44.53,36.47 44.79,36.54 45.05,36.94 45.31,37.52 45.57,37.81 45.82,38.19 46.08,38.37 46.34,38.77 46.60,39.62 46.86,40.22 47.12,40.90 47.37,41.35 47.63,41.40 47.89,41.66 48.15,42.05 48.41,42.50 48.66,42.53 48.92,42.38 49.18,41.78 49.44,41.51 49.70,42.26 49.96,43.26 50.21,43.88 50.47,44.22 50.73,44.29 50.99,44.23 51.25,44.50 51.50,44.74 51.76,45.04 52.02,45.34 52.28,45.51 52.54,45.29 52.80,45.74 53.05,45.71 53.31,45.46 53.57,45.52 53.83,45.53 54.09,45.53 54.34,45.51 54.60,45.37 54.86,45.19 55.12,44.25 55.38,43.55 55.64,43.73 55.89,43.74 56.15,43.65 56.41,43.63 56.67,43.50 56.93,43.71 57.18,43.99 57.44,44.42 57.70,44.74 57.96,44.60 58.22,44.21 58.48,43.84 58.73,43.56 58.99,43.94 59.25,45.46 59.51,46.30 59.77,45.20 60.02,44.87 60.28,44.65 60.54,44.40 60.80,43.85 61.06,43.72 61.32,44.36 61.57,45.02 61.83,45.08 62.09,45.24 62.35,45.57 62.61,45.35 62.86,45.21 63.12,45.17 63.38,45.33 63.64,45.14 63.90,45.40 64.16,45.47 64.41,45.63 64.67,45.96 64.93,47.11 65.19,47.83 65.45,47.63 65.70,47.35 65.96,47.42 66.22,47.82 66.48,48.16 66.74,49.00 67.00,48.68 67.25,49.07 67.51,49.84 67.77,50.73 68.03,52.17 68.29,52.05 68.54,51.72 68.80,51.42 69.06,51.69 69.32,52.09 69.58,52.72 69.84,52.46 70.09,52.81 70.35,52.96 70.61,52.12 70.87,51.66 71.13,51.45 71.38,51.49 71.64,51.33 71.90,51.38 72.16,51.54 72.42,51.80 72.68,51.47 72.93,51.90 73.19,51.71 73.45,51.32 73.71,51.20 73.97,51.15 74.22,51.44 74.48,52.05 74.74,52.50 75.00,52.85 75.26,53.09 75.52,53.93 75.77,54.39 76.03,54.76 76.29,55.54 76.55,55.68 76.81,56.00 77.06,4.04 77.32,4.55 77.58,5.22 77.84,5.80 78.10,5.96 78.36,6.65 78.61,7.16 78.87,8.14 79.13,8.56 79.39,8.94 79.65,9.82 79.90,10.33 80.16,10.59 80.42,11.02 80.68,11.05 80.94,11.27 81.20,11.69 81.45,12.08 81.71,12.69 81.97,12.95 82.23,13.81 82.49,14.66 82.74,14.91 83.00,15.48 83.26,15.31 83.52,15.59 83.78,16.12 84.04,15.95 84.29,16.17 84.55,16.63 84.81,17.16 85.07,17.66 85.33,17.93 85.58,17.54 85.84,18.02 86.10,19.10 86.36,20.17 86.62,21.31 86.88,22.61 87.13,22.71 87.39,22.99 87.65,23.83 87.91,24.23 88.17,25.07 88.42,25.65 88.68,26.21 88.94,25.97 89.20,25.63 89.46,25.24 89.72,24.55 89.97,25.12 90.23,26.07 90.49,26.54 90.75,27.27 91.01,27.93 91.26,28.72 91.52,29.05 91.78,29.39 92.04,29.63 92.30,29.81 92.56,29.77 92.81,29.79 93.07,29.89 93.33,30.05 93.59,30.11 93.85,29.93 94.10,29.63 94.36,29.65 94.62,29.58 94.88,29.41 95.14,28.99 95.40,28.51 95.65,28.42 95.91,28.60 96.17,28.45 96.43,28.25 96.69,27.48 96.94,27.26 97.20,27.21 97.46,27.18 97.72,27.35 97.98,27.40 98.24,27.40 98.49,27.33 98.75,27.27 99.01,27.35 99.27,27.53 99.53,27.46 99.78,27.46 100.04,27.10 100.30,26.93 100.56,26.79 100.82,26.72 101.08,26.96 101.33,26.72 101.59,26.32 101.85,25.93 102.11,25.29 102.37,24.48 102.62,23.92 102.88,22.84 103.14,22.28 103.40,22.15 103.66,22.42 103.92,23.64 104.17,25.02 104.43,25.95 104.69,24.91 104.95,24.31 105.21,23.97 105.46,23.27 105.72,22.78 105.98,22.05 106.24,21.68 106.50,21.78 106.76,21.89 107.01,23.08 107.27,23.83 107.53,24.21 107.79,24.26 108.05,23.92 108.30,23.55 108.56,22.90 108.82,22.26 109.08,22.10 109.34,22.93 109.60,23.47 109.85,24.45 110.11,24.63 110.37,24.98 110.63,25.39 110.89,25.90 111.14,26.71 111.40,27.41 111.66,27.57 111.92,27.11 112.18,27.01 112.44,26.26 112.69,26.77 112.95,28.43 113.21,29.24 113.47,29.64 113.73,30.10 113.98,30.67 114.24,31.11 114.50,30.97 114.76,31.33 115.02,31.67 115.27,32.30 115.53,32.77 115.79,33.08 116.05,33.39 116.31,34.00 116.57,34.76 116.82,35.50 117.08,36.11 117.34,36.52 117.60,36.35 117.86,36.54 118.11,36.96 118.37,37.50 118.63,37.93 118.89,38.21 119.15,38.58 119.41,38.87 119.66,39.49 119.92,40.20 120.18,41.01 120.44,41.26 120.70,41.36 120.95,41.61 121.21,42.06 121.47,42.65 121.73,42.51 121.99,42.38 122.25,41.92 122.50,41.55 122.76,42.21 123.02,43.30 123.28,43.96 123.54,44.20 123.79,44.30 124.05,44.25 124.31,44.51 124.57,44.75 124.83,45.04 125.09,45.35 125.34,45.46 125.60,45.44 125.86,45.76 126.12,45.84 126.38,45.46 126.63,45.51 126.89,45.51 127.15,45.56 127.41,45.46 127.67,45.35 127.93,45.16 128.18,44.23 128.44,43.57 128.70,43.84 128.96,43.76 129.22,43.56 129.47,43.61 129.73,43.65 129.99,43.56 130.25,44.01 130.51,44.54 130.77,44.85 131.02,44.58 131.28,44.17 131.54,43.89 131.80,43.60 132.06,43.93 132.31,45.50 132.57,46.26 132.83,45.20 133.09,44.94 133.35,44.67 133.61,44.59 133.86,43.84 134.12,43.76 134.38,44.38 134.64,44.98 134.90,45.09 135.15,45.19 135.41,45.53 135.67,45.43 135.93,45.27 136.19,45.13 136.45,45.22 136.70,45.14 136.96,45.47 137.22,45.50 137.48,45.61 137.74,46.17 137.99,47.10 138.25,47.91 138.51,47.65 138.77,47.34 139.03,47.42 139.29,47.82 139.54,48.20 139.80,48.93 140.06,48.90 140.32,49.04 140.58,49.80 140.83,50.80 141.09,52.22 141.35,52.06 141.61,51.72 141.87,51.41 142.13,51.61 142.38,52.00 142.64,52.84 142.90,52.29 143.16,52.94 143.42,52.93 143.67,52.29 143.93,51.63 144.19,51.48 144.45,51.48 144.71,51.33 144.97,51.43 145.22,51.52 145.48,51.80 145.74,51.49 146.00,51.88 146.26,51.75 146.51,51.50 146.77,51.22 147.03,51.15 147.29,51.46 147.55,52.06 147.81,52.48 148.06,52.83 148.32,53.13 148.58,53.89 148.84,54.39 149.10,54.72 149.35,55.53 149.61,55.65 149.87,55.97 150.13,4.10 150.39,4.39 150.65,5.03 150.90,5.04 151.16,5.44 151.42,6.25 151.68,7.27 151.94,8.58 152.19,8.58 152.45,9.63 152.71,9.45 152.97,10.68 153.23,10.22 153.49,11.14 153.74,10.77 154.00,11.58 154.26,11.50 154.52,12.62 154.78,12.48 155.03,13.58 155.29,14.61 155.55,13.66 155.81,15.32 156.07,15.67 156.33,15.81 156.58,14.88 156.84,16.03 157.10,15.45 157.36,15.52 157.62,16.15 157.87,17.12 158.13,16.87 158.39,16.67 158.65,16.51 158.91,18.10 159.17,17.67 159.42,19.29 159.68,21.73 159.94,22.30 160.20,23.03 160.46,22.56 160.71,23.61 160.97,24.68 161.23,24.87 161.49,25.88 161.75,25.92 162.01,25.92 162.26,25.99 162.52,25.36 162.78,24.88 163.04,25.05 163.30,25.55 163.55,26.12 163.81,26.63 164.07,26.92 164.33,28.57 164.59,28.57 164.85,29.24 165.10,29.55 165.36,29.61 165.62,29.70 165.88,29.68 166.14,29.85 166.39,30.03 166.65,30.14 166.91,30.14 167.17,29.74 167.43,29.69 167.69,29.52 167.94,29.37 168.20,28.85 168.46,28.63 168.72,28.75 168.98,28.42 169.23,28.29 169.49,27.84 169.75,27.25 170.01,27.16 170.27,27.24 170.53,27.45 170.78,27.45 171.04,26.82 171.30,27.40 171.56,26.92 171.82,27.62 172.07,27.29 172.33,28.19 172.59,27.80 172.85,27.80 173.11,27.22 173.37,26.78 173.62,27.77 173.88,27.58 174.14,26.42 174.40,26.43 174.66,26.49 174.91,25.16 175.17,25.04 175.43,23.99 175.69,22.87 175.95,23.21 176.21,22.28 176.46,21.55 176.72,22.75 176.98,22.82 177.24,24.88 177.50,25.50 177.75,25.53 178.01,24.31 178.27,24.20 178.53,23.39 178.79,22.71 179.05,22.06 179.30,22.27 179.56,21.28 179.82,22.00 180.08,23.11 180.34,23.16 180.59,24.38 180.85,24.25 181.11,24.17 181.37,23.62 181.63,22.91 181.89,22.49 182.14,22.01 182.40,22.55 182.66,23.09 182.92,24.09 183.18,24.60 183.43,25.33 183.69,25.79 183.95,25.58 184.21,26.41 184.47,27.23 184.73,27.69 184.98,27.07 185.24,26.60 185.50,26.00 185.76,27.20 186.02,27.84 186.27,29.30 186.53,29.69 186.79,30.02 187.05,30.36 187.31,30.78 187.56,30.87 187.82,30.89 188.08,31.07 188.34,32.22 188.60,32.53 188.86,33.26 189.11,33.29 189.37,33.99 189.63,34.72 189.89,35.62 190.15,35.64 190.40,36.33 190.66,36.34 190.92,36.80 191.18,37.48 191.44,37.27 191.70,38.00 191.95,38.65 192.21,39.36 192.47,38.85 192.73,39.97 192.99,41.19 193.24,41.31 193.50,41.31 193.76,41.15 194.02,41.90 194.28,42.14 194.54,42.35 194.79,43.10 195.05,42.23 195.31,42.57 195.57,41.80 195.83,41.58 196.08,42.71 196.34,43.97 196.60,43.97 196.86,44.26 197.12,44.28 197.38,44.42 197.63,44.68 197.89,44.86 198.15,44.78 198.41,45.09 198.67,45.03 198.92,45.54 199.18,45.57 199.44,45.85 199.70,45.46 199.96,45.42 200.22,45.79 200.47,45.63 200.73,44.86 200.99,45.17 201.25,43.92 201.51,42.75 201.76,43.86 202.02,43.67 202.28,44.11 202.54,43.27 202.80,43.88 203.06,43.28 203.31,44.22 203.57,45.29 203.83,44.19 204.09,44.74 204.35,45.18 204.60,43.93 204.86,44.32 205.12,44.51 205.38,44.51 205.64,45.70 205.90,45.56 206.15,45.61 206.41,44.71 206.67,45.38 206.93,44.49 207.19,44.21 207.44,44.21 207.70,44.84 207.96,45.06 208.22,46.34 208.48,46.42 208.74,44.87 208.99,45.97 209.25,45.72 209.51,45.71 209.77,44.43 210.03,44.92 210.28,45.38 210.54,44.59 210.80,46.18 211.06,46.18 211.32,48.02 211.58,47.51 211.83,47.24 212.09,47.51 212.35,48.18 212.61,49.64 212.87,49.21 213.12,49.21 213.38,48.53 213.64,50.09 213.90,50.92 214.16,51.80 214.42,52.18 214.67,51.88 214.93,51.98 215.19,51.33 215.45,51.97 215.71,52.70 215.96,51.89 216.22,52.57 216.48,52.80 216.74,51.60 217.00,52.28 217.26,51.48 217.51,51.53 217.77,51.47 218.03,51.47 218.29,51.47 218.55,51.51 218.80,51.81 219.06,51.56 219.32,51.82 219.58,52.10 219.84,50.99 220.10,51.15 220.35,51.72 220.61,51.63 220.87,52.52 221.13,53.19 221.39,53.83 221.64,53.79 221.90,54.44 222.16,54.44 222.42,55.07 222.68,55.68 222.94,55.92 223.19,4.90 223.45,4.90 223.71,4.94 223.97,4.94 224.23,4.00 224.48,4.00 224.74,4.99 225.00,7.22 225.26,7.22 225.52,8.56 225.78,8.56 226.03,8.56 226.29,9.29 226.55,11.30 226.81,11.30 227.07,10.84 227.32,10.84 227.58,10.84 227.84,10.82 228.10,13.82 228.36,13.82 228.62,12.69 228.87,12.69 229.13,16.17 229.39,16.17 229.65,14.09 229.91,14.09 230.16,14.09 230.42,14.54 230.68,14.54 230.94,14.54 231.20,14.54 231.46,14.54 231.71,14.08 231.97,17.68 232.23,17.68 232.49,17.68 232.75,21.35 233.00,21.35 233.26,21.35 233.52,21.98 233.78,21.98 234.04,24.44 234.30,24.44 234.55,24.44 234.81,26.50 235.07,26.50 235.33,25.43 235.59,25.43 235.84,25.43 236.10,23.98 236.36,23.98 236.62,23.98 236.88,23.96 237.14,23.96 237.39,28.16 237.65,28.35 237.91,28.35 238.17,28.35 238.43,29.25 238.68,29.25 238.94,29.45 239.20,29.45 239.46,29.45 239.72,29.58 239.98,30.17 240.23,30.17 240.49,29.43 240.75,29.43 241.01,29.43 241.27,28.73 241.52,28.73 241.78,28.73 242.04,28.80 242.30,28.80 242.56,28.80 242.82,28.16 243.07,28.16 243.33,28.16 243.59,28.42 243.85,28.42 244.11,28.42 244.36,28.42 244.62,26.96 244.88,26.96 245.14,26.96 245.40,29.29 245.66,29.29 245.91,29.29 246.17,25.47 246.43,28.07 246.69,28.07 246.95,28.07 247.20,23.94 247.46,27.55 247.72,27.55 247.98,23.78 248.24,23.78 248.50,23.78 248.75,20.20 249.01,24.27 249.27,24.27 249.53,21.80 249.79,21.80 250.04,21.80 250.30,22.03 250.56,22.03 250.82,25.79 251.08,24.42 251.34,24.42 251.59,24.42 251.85,21.79 252.11,21.79 252.37,21.22 252.63,21.22 252.88,21.22 253.14,23.11 253.40,20.33 253.66,23.11 253.92,24.03 254.18,24.03 254.43,24.03 254.69,22.58 254.95,22.58 255.21,22.68 255.47,22.61 255.72,22.61 255.98,22.61 256.24,23.08 256.50,25.36 256.76,25.36 257.02,25.36 257.27,25.36 257.53,27.07 257.79,27.07 258.05,27.07 258.31,25.38 258.56,25.38 258.82,25.38 259.08,25.23 259.34,25.23 259.60,26.93 259.85,26.93 260.11,26.93 260.37,28.23 260.63,28.23 260.89,28.97 261.15,28.97 261.40,31.77 261.66,32.34 261.92,32.34 262.18,32.34 262.44,32.05 262.69,34.76 262.95,34.76 263.21,34.76 263.47,34.76 263.73,36.07 263.99,36.07 264.24,36.07 264.50,38.06 264.76,38.06 265.02,38.06 265.28,40.09 265.53,40.09 265.79,40.09 266.05,41.91 266.31,39.87 266.57,39.87 266.83,39.87 267.08,42.34 267.34,42.34 267.60,40.24 267.86,42.69 268.12,42.69 268.37,42.69 268.63,40.33 268.89,40.33 269.15,41.31 269.41,41.31 269.67,41.31 269.92,44.21 270.18,44.21 270.44,44.21 270.70,44.21 270.96,44.17 271.21,44.72 271.47,44.72 271.73,44.72 271.99,45.35 272.25,44.85 272.51,44.85 272.76,44.85 273.02,45.84 273.28,45.84 273.54,44.29 273.80,44.29 274.05,45.40 274.31,45.40 274.57,40.59 274.83,43.53 275.09,43.53 275.35,43.53 275.60,43.53 275.86,45.11 276.12,42.21 276.38,42.21 276.64,44.62 276.89,44.62 277.15,44.62 277.41,46.10 277.67,46.10 277.93,46.10 278.19,44.74 278.44,44.74 278.70,44.74 278.96,44.74 279.22,46.41 279.48,46.41 279.73,46.41 279.99,44.65 280.25,44.65 280.51,44.65 280.77,44.65 281.03,45.00 281.28,45.00 281.54,45.00 281.80,45.00 282.06,47.83 282.32,44.36 282.57,44.36 282.83,44.36 283.09,44.73 283.35,44.73 283.61,44.73 283.87,42.55 284.12,42.55 284.38,47.52 284.64,47.52 284.90,47.52 285.16,49.57 285.41,49.57 285.67,49.57 285.93,48.88 286.19,48.88 286.45,48.88 286.71,48.88 286.96,50.49 287.22,49.48 287.48,49.48 287.74,49.48 288.00,50.79 288.25,50.65 288.51,50.65 288.77,50.65 289.03,47.21 289.29,52.26 289.55,52.26 289.80,49.48 290.06,49.48 290.32,49.48 290.58,52.53 290.84,50.80 291.09,50.80 291.35,50.80 291.61,52.20 291.87,52.20 292.13,50.98 292.39,51.75 292.64,51.75 292.90,51.75 293.16,52.46 293.42,52.46 293.68,52.46 293.93,53.83 294.19,53.83 294.45,53.83 294.71,53.46 294.97,53.46 295.23,53.46 295.48,53.46 295.74,55.32 296.00,55.32" />
</svg>