<svg width="300" height="60" xmlns="http://www.w3.org/2000/svg">
  <polyline fill="rgba(255,200,0,0.3)" stroke="#ffbb00" stroke-width="2" points="4.00,19.96 5.84,22.71 7.67,26.01 9.51,28.68 11.35,30.62 13.18,33.15 15.02,36.89 16.86,40.08 18.69,41.33 20.53,45.84 22.36,46.31 24.20,47.67 26.04,46.13 27.87,48.94 29.71,50.00 31.55,53.94 33.38,54.00 35.22,50.07 37.06,51.89 38.89,50.83 40.73,32.67 42.57,32.91 44.40,38.13 46.24,40.35 48.08,42.70 49.91,42.56 51.75,39.04 53.58,37.69 55.42,35.59 57.26,30.65 59.09,31.26 60.93,29.63 62.77,26.25 64.60,23.08 66.44,19.65 68.28,18.10 70.11,14.10 71.95,11.33 73.79,7.93 75.62,4.00 77.46,19.90 79.30,23.03 81.13,25.88 82.97,28.34 84.81,31.01 86.64,32.77 88.48,37.15 90.31,40.02 92.15,41.13 93.99,45.81 95.82,46.43 97.66,47.27 99.50,46.85 101.33,49.07 103.17,49.55 105.01,54.05 106.84,54.22 108.68,50.16 110.52,51.89 112.35,50.25 114.19,32.01 116.03,32.64 117.86,37.70 119.70,40.57 121.53,42.67 123.37,42.84 125.21,39.05 127.04,37.71 128.88,35.54 130.72,30.87 132.55,31.22 134.39,29.66 136.23,26.29 138.06,23.11 139.90,19.75 141.74,18.03 143.57,14.10 145.41,11.25 147.25,7.92 149.08,4.11 150.92,21.12 152.75,23.90 154.59,28.51 156.43,29.85 158.26,30.29 160.10,34.16 161.94,38.67 163.77,38.67 165.61,41.49 167.45,44.47 169.28,45.96 171.12,47.82 172.96,47.97 174.79,49.45 176.63,52.73 178.47,55.70 180.30,56.00 182.14,51.54 183.97,51.54 185.81,50.35 187.65,38.55 189.48,38.99 191.32,36.76 193.16,40.63 194.99,42.71 196.83,41.52 198.67,38.40 200.50,36.91 202.34,34.98 204.18,31.33 206.01,31.33 207.85,29.10 209.69,26.87 211.52,23.90 213.36,21.07 215.19,17.50 217.03,14.52 218.87,11.05 220.70,6.38 222.54,6.23 224.38,22.45 226.21,22.19 228.05,22.19 229.89,22.19 231.72,30.53 233.56,37.22 235.40,37.22 237.23,37.22 239.07,41.39 240.91,41.39 242.74,40.79 244.58,48.08 246.42,48.08 248.25,48.08 250.09,53.44 251.92,53.44 253.76,53.44 255.60,53.44 257.43,50.91 259.27,50.91 261.11,50.91 262.94,40.05 264.78,40.05 266.62,43.47 268.45,43.47 270.29,43.47 272.13,34.50 273.96,34.50 275.80,34.50 277.64,28.40 279.47,28.40 281.31,28.40 283.14,28.40 284.98,22.60 286.82,22.60 288.65,16.80 290.49,14.12 292.33,14.12 294.16,14.12 296.00,16.95" />
</svg>