<svg width="300" height="60" xmlns="http://www.w3.org/2000/svg">
  <polyline fill="rgba(255,200,0,0.3)" stroke="#ffbb00" stroke-width="2" points="4.00,48.70 4.88,48.21 5.76,47.16 6.64,46.05 7.52,44.03 8.40,42.50 9.28,41.33 10.16,43.15 11.04,40.76 11.92,39.69 12.80,38.71 13.67,38.42 14.55,37.99 15.43,36.42 16.31,33.97 17.19,31.38 18.07,29.08 18.95,26.43 19.83,24.32 20.71,22.58 21.59,21.24 22.47,23.21 23.35,27.38 24.23,30.41 25.11,33.23 25.99,32.91 26.87,22.90 27.75,12.70 28.63,7.55 29.51,4.18 30.39,4.25 31.27,7.46 32.14,7.91 33.02,13.79 33.90,16.02 34.78,18.13 35.66,19.35 36.54,21.26 37.42,22.52 38.30,23.02 39.18,22.67 40.06,20.31 40.94,20.36 41.82,24.72 42.70,26.14 43.58,27.37 44.46,27.26 45.34,28.48 46.22,28.12 47.10,28.57 47.98,26.16 48.86,26.85 49.73,26.86 50.61,28.81 51.49,31.65 52.37,33.95 53.25,36.11 54.13,38.08 55.01,39.30 55.89,39.66 56.77,38.56 57.65,38.57 58.53,39.54 59.41,39.07 60.29,37.54 61.17,38.79 62.05,37.40 62.93,35.21 63.81,34.78 64.69,35.75 65.57,34.82 66.45,34.89 67.33,34.35 68.20,33.85 69.08,32.80 69.96,31.69 70.84,34.67 71.72,36.21 72.60,36.15 73.48,33.17 74.36,30.93 75.24,28.59 76.12,28.41 77.00,27.56 77.88,27.51 78.76,26.47 79.64,25.38 80.52,24.28 81.40,23.93 82.28,22.40 83.16,19.45 84.04,19.32 84.92,20.62 85.80,22.43 86.67,24.48 87.55,26.34 88.43,27.66 89.31,27.67 90.19,26.98 91.07,27.13 91.95,27.60 92.83,26.87 93.71,25.36 94.59,24.66 95.47,24.66 96.35,26.14 97.23,28.07 98.11,31.47 98.99,33.33 99.87,35.16 100.75,37.54 101.63,50.80 102.51,48.92 103.39,46.79 104.27,45.72 105.14,43.88 106.02,42.57 106.90,41.01 107.78,42.90 108.66,41.75 109.54,40.06 110.42,37.60 111.30,38.34 112.18,35.72 113.06,36.87 113.94,33.02 114.82,32.77 115.70,28.28 116.58,28.28 117.46,25.33 118.34,23.14 119.22,23.46 120.10,23.46 120.98,28.21 121.86,32.64 122.73,32.23 123.61,29.94 124.49,25.51 125.37,13.59 126.25,9.58 127.13,4.00 128.01,4.00 128.89,4.57 129.77,11.21 130.65,14.73 131.53,17.68 132.41,21.29 133.29,19.16 134.17,24.64 135.05,22.94 135.93,28.26 136.81,26.13 137.69,20.31 138.57,22.28 139.45,27.03 140.33,27.03 141.20,28.75 142.08,28.68 142.96,27.45 143.84,27.86 144.72,29.24 145.60,26.62 146.48,29.40 147.36,27.68 148.24,32.68 149.12,32.68 150.00,30.30 150.88,34.81 151.76,38.58 152.64,36.84 153.52,39.79 154.40,40.61 155.28,37.33 156.16,39.38 157.04,40.37 157.92,40.77 158.80,37.34 159.67,36.70 160.55,35.64 161.43,37.60 162.31,33.75 163.19,34.82 164.07,36.13 164.95,36.13 165.83,27.69 166.71,31.21 167.59,34.90 168.47,37.69 169.35,32.69 170.23,34.33 171.11,33.59 171.99,32.20 172.87,28.84 173.75,28.76 174.63,29.01 175.51,27.13 176.39,27.86 177.27,25.41 178.14,25.41 179.02,23.44 179.90,24.75 180.78,19.48 181.66,20.22 182.54,21.38 183.42,22.45 184.30,23.84 185.18,24.09 186.06,28.67 186.94,27.93 187.82,27.44 188.70,27.36 189.58,26.88 190.46,25.16 191.34,23.60 192.22,23.11 193.10,24.18 193.98,26.47 194.86,32.04 195.73,32.04 196.61,34.50 197.49,35.66 198.37,37.63 199.25,56.00 200.13,50.99 201.01,50.99 201.89,46.73 202.77,46.73 203.65,46.73 204.53,42.47 205.41,42.47 206.29,46.98 207.17,46.98 208.05,38.78 208.93,38.78 209.81,45.42 210.69,45.42 211.57,45.42 212.45,51.24 213.33,31.98 214.20,31.98 215.08,31.98 215.96,40.50 216.84,29.61 217.72,29.61 218.60,29.61 219.48,38.87 220.36,29.85 221.24,29.85 222.12,29.85 223.00,19.70 223.88,19.70 224.76,4.46 225.64,4.46 226.52,8.06 227.40,25.35 228.28,25.35 229.16,36.56 230.04,36.56 230.92,19.52 231.80,32.87 232.67,32.87 233.55,32.87 234.43,39.51 235.31,30.60 236.19,30.60 237.07,30.60 237.95,30.60 238.83,31.91 239.71,31.91 240.59,31.91 241.47,27.16 242.35,32.08 243.23,32.08 244.11,32.08 244.99,38.63 245.87,38.63 246.75,38.63 247.63,27.08 248.51,38.30 249.39,38.30 250.27,38.30 251.14,42.40 252.02,42.40 252.90,42.40 253.78,42.98 254.66,42.98 255.54,42.98 256.42,35.53 257.30,35.53 258.18,35.53 259.06,37.99 259.94,37.99 260.82,37.99 261.70,39.62 262.58,39.62 263.46,39.62 264.34,39.62 265.22,39.13 266.10,39.13 266.98,28.65 267.86,31.10 268.73,31.10 269.61,31.10 270.49,30.69 271.37,30.69 272.25,30.69 273.13,32.58 274.01,32.58 274.89,25.70 275.77,25.70 276.65,28.89 277.53,28.89 278.41,28.89 279.29,30.53 280.17,30.53 281.05,30.53 281.93,31.02 282.81,31.02 283.69,31.02 284.57,29.79 285.45,29.79 286.33,29.79 287.20,26.59 288.08,26.59 288.96,26.59 289.84,29.87 290.72,29.87 291.60,29.87 292.48,35.52 293.36,35.52 294.24,35.52 295.12,35.52 296.00,37.57" />
</svg>