<svg width="300" height="60" xmlns="http://www.w3.org/2000/svg">
  <polyline fill="rgba(255,200,0,0.3)" stroke="#ffbb00" stroke-width="2" points="4.00,6.87 4.57,6.76 5.13,6.69 5.70,6.70 6.27,6.25 6.83,6.16 7.40,6.10 7.97,5.67 8.54,5.20 9.10,5.02 9.67,4.88 10.24,5.08 10.80,5.15 11.37,4.81 11.94,4.79 12.50,5.38 13.07,5.93 13.64,6.43 14.21,6.71 14.77,6.66 15.34,6.99 15.91,6.81 16.47,6.48 17.04,5.97 17.61,5.34 18.17,4.47 18.74,4.34 19.31,4.24 19.88,4.08 20.44,4.08 21.01,4.25 21.58,4.39 22.14,4.62 22.71,4.72 23.28,4.80 23.84,4.96 24.41,5.16 24.98,5.51 25.55,5.89 26.11,6.33 26.68,6.79 27.25,7.22 27.81,7.49 28.38,7.51 28.95,8.07 29.51,8.76 30.08,9.43 30.65,9.88 31.22,10.35 31.78,11.18 32.35,11.84 32.92,12.68 33.48,13.36 34.05,14.06 34.62,14.85 35.18,15.62 35.75,16.44 36.32,16.97 36.89,17.53 37.45,18.07 38.02,18.33 38.59,18.52 39.15,18.54 39.72,18.48 40.29,18.67 40.85,19.03 41.42,19.62 41.99,20.30 42.56,20.98 43.12,21.59 43.69,22.35 44.26,23.41 44.82,24.07 45.39,24.74 45.96,25.03 46.52,25.66 47.09,26.49 47.66,27.12 48.23,27.61 48.79,28.04 49.36,28.26 49.93,28.58 50.49,29.12 51.06,29.76 51.63,30.29 52.19,30.66 52.76,31.23 53.33,31.54 53.90,31.85 54.46,32.04 55.03,32.05 55.60,32.03 56.16,32.35 56.73,32.94 57.30,33.26 57.86,33.64 58.43,33.99 59.00,34.40 59.57,34.99 60.13,35.41 60.70,35.68 61.27,36.03 61.83,36.23 62.40,36.46 62.97,36.63 63.53,37.01 64.10,37.74 64.67,38.37 65.23,38.99 65.80,39.65 66.37,39.92 66.94,40.36 67.50,41.35 68.07,42.79 68.64,43.54 69.20,44.16 69.77,45.19 70.34,46.58 70.90,47.39 71.47,48.00 72.04,48.59 72.61,49.32 73.17,49.72 73.74,50.35 74.31,50.56 74.87,50.34 75.44,49.85 76.01,49.77 76.57,50.06 77.14,6.88 77.71,6.82 78.28,6.79 78.84,6.68 79.41,6.47 79.98,6.17 80.54,6.07 81.11,5.63 81.68,5.21 82.24,5.01 82.81,5.05 83.38,5.12 83.95,5.13 84.51,4.94 85.08,5.09 85.65,5.41 86.21,5.86 86.78,6.47 87.35,6.79 87.91,6.88 88.48,7.06 89.05,6.57 89.62,6.39 90.18,5.85 90.75,5.26 91.32,4.68 91.88,4.44 92.45,4.20 93.02,4.01 93.58,4.00 94.15,4.22 94.72,4.46 95.29,4.70 95.85,4.85 96.42,4.88 96.99,4.98 97.55,5.24 98.12,5.61 98.69,5.92 99.25,6.35 99.82,6.80 100.39,7.27 100.96,7.52 101.52,7.71 102.09,8.06 102.66,8.60 103.22,9.31 103.79,10.05 104.36,10.38 104.92,11.00 105.49,11.85 106.06,12.54 106.63,13.25 107.19,13.75 107.76,14.54 108.33,15.44 108.89,16.28 109.46,16.95 110.03,17.39 110.59,18.03 111.16,18.31 111.73,18.53 112.30,18.56 112.86,18.51 113.43,18.58 114.00,18.99 114.56,19.29 115.13,20.22 115.70,20.93 116.26,21.83 116.83,22.32 117.40,23.17 117.97,23.85 118.53,24.65 119.10,24.29 119.67,25.66 120.23,26.47 120.80,26.94 121.37,27.55 121.93,27.82 122.50,28.21 123.07,28.32 123.63,28.84 124.20,29.66 124.77,30.25 125.34,30.70 125.90,31.02 126.47,31.60 127.04,31.72 127.60,31.97 128.17,32.07 128.74,32.06 129.30,32.48 129.87,32.98 130.44,33.30 131.01,33.70 131.57,34.03 132.14,34.41 132.71,35.11 133.27,35.47 133.84,35.77 134.41,36.19 134.97,36.30 135.54,36.55 136.11,36.69 136.68,37.12 137.24,37.92 137.81,38.37 138.38,39.13 138.94,39.51 139.51,40.25 140.08,40.64 140.64,41.71 141.21,42.77 141.78,43.53 142.35,44.31 142.91,45.01 143.48,46.40 144.05,47.16 144.61,48.01 145.18,48.57 145.75,49.21 146.31,49.75 146.88,50.07 147.45,50.52 148.02,50.34 148.58,49.82 149.15,49.82 149.72,50.06 150.28,6.87 150.85,6.88 151.42,6.89 151.98,6.80 152.55,6.52 153.12,6.18 153.69,5.98 154.25,5.68 154.82,5.39 155.39,5.17 155.95,5.07 156.52,5.28 157.09,5.31 157.65,4.98 158.22,5.10 158.79,5.55 159.36,6.12 159.92,6.67 160.49,7.57 161.06,7.74 161.62,6.67 162.19,6.56 162.76,7.16 163.32,6.15 163.89,5.26 164.46,5.15 165.03,4.54 165.59,4.25 166.16,4.07 166.73,4.07 167.29,4.19 167.86,4.32 168.43,4.49 168.99,4.72 169.56,4.89 170.13,4.95 170.70,5.20 171.26,5.47 171.83,5.77 172.40,6.16 172.96,6.41 173.53,7.28 174.10,7.42 174.66,7.42 175.23,7.73 175.80,8.42 176.37,9.48 176.93,9.98 177.50,10.29 178.07,10.70 178.63,12.19 179.20,12.61 179.77,13.26 180.33,14.32 180.90,15.13 181.47,16.04 182.03,16.80 182.60,17.47 183.17,17.47 183.74,17.97 184.30,18.35 184.87,18.65 185.44,18.58 186.00,18.53 186.57,18.58 187.14,19.02 187.70,19.09 188.27,20.05 188.84,21.02 189.41,22.42 189.97,22.52 190.54,22.92 191.11,24.25 191.67,24.83 192.24,24.33 192.81,26.08 193.37,26.40 193.94,26.85 194.51,27.89 195.08,28.16 195.64,28.37 196.21,28.67 196.78,28.92 197.34,30.06 197.91,30.41 198.48,30.76 199.04,31.12 199.61,31.60 200.18,31.69 200.75,32.38 201.31,32.28 201.88,32.17 202.45,32.34 203.01,32.63 203.58,33.09 204.15,33.45 204.71,33.87 205.28,34.35 205.85,35.24 206.42,35.52 206.98,35.72 207.55,35.88 208.12,35.96 208.68,36.51 209.25,36.46 209.82,37.09 210.38,37.92 210.95,37.95 211.52,38.38 212.09,39.12 212.65,40.16 213.22,40.55 213.79,41.97 214.35,42.95 214.92,43.62 215.49,44.88 216.05,45.41 216.62,47.16 217.19,47.92 217.76,48.54 218.32,49.12 218.89,49.72 219.46,50.21 220.02,50.30 220.59,51.48 221.16,50.36 221.72,50.04 222.29,49.78 222.86,49.34 223.43,7.06 223.99,7.06 224.56,7.15 225.13,7.15 225.69,7.15 226.26,6.79 226.83,6.79 227.39,6.15 227.96,6.15 228.53,6.15 229.10,5.97 229.66,5.97 230.23,6.23 230.80,5.17 231.36,5.17 231.93,5.77 232.50,5.77 233.06,5.77 233.63,8.04 234.20,6.81 234.77,6.81 235.33,6.81 235.90,8.29 236.47,5.94 237.03,5.94 237.60,5.94 238.17,5.53 238.73,4.31 239.30,4.31 239.87,4.31 240.43,4.19 241.00,4.19 241.57,4.39 242.14,4.39 242.70,4.39 243.27,4.99 243.84,4.99 244.40,4.99 244.97,5.72 245.54,5.72 246.10,4.78 246.67,5.97 247.24,5.97 247.81,5.97 248.37,7.82 248.94,7.82 249.51,8.08 250.07,8.08 250.64,8.08 251.21,10.41 251.77,12.77 252.34,12.77 252.91,15.02 253.48,15.02 254.04,15.02 254.61,17.56 255.18,17.56 255.74,17.56 256.31,17.56 256.88,18.98 257.44,18.98 258.01,18.98 258.58,19.17 259.15,19.17 259.71,19.17 260.28,19.55 260.85,19.55 261.41,22.63 261.98,22.63 262.55,23.16 263.11,23.16 263.68,23.16 264.25,27.19 264.82,26.24 265.38,26.24 265.95,26.24 266.52,26.15 267.08,26.15 267.65,28.35 268.22,28.61 268.78,28.61 269.35,29.67 269.92,29.67 270.49,29.67 271.05,30.81 271.62,30.81 272.19,30.81 272.75,31.83 273.32,31.83 273.89,32.32 274.45,32.32 275.02,32.32 275.59,32.83 276.16,33.40 276.72,33.40 277.29,33.92 277.86,33.92 278.42,33.92 278.99,35.29 279.56,35.29 280.12,36.30 280.69,36.30 281.26,36.30 281.83,36.62 282.39,36.62 282.96,36.62 283.53,38.37 284.09,38.37 284.66,38.37 285.23,39.77 285.79,39.77 286.36,41.45 286.93,44.85 287.50,44.85 288.06,44.85 288.63,45.99 289.20,45.99 289.76,47.80 290.33,47.80 290.90,47.80 291.46,49.90 292.03,49.90 292.60,49.90 293.17,51.15 293.73,56.00 294.30,54.23 294.87,54.23 295.43,54.23 296.00,51.40" />
</svg>