<svg width="300" height="60" xmlns="http://www.w3.org/2000/svg">
  <polyline fill="rgba(255,200,0,0.3)" stroke="#ffbb00" stroke-width="2" points="4.00,12.93 4.69,16.64 5.38,20.23 6.07,25.94 6.76,30.52 7.45,34.67 8.14,39.37 8.83,43.33 9.52,44.30 10.21,45.16 10.90,50.12 11.59,56.00 12.28,51.20 12.97,44.88 13.66,39.23 14.35,35.50 15.04,32.51 15.74,32.32 16.43,33.10 17.12,35.24 17.81,38.07 18.50,41.02 19.19,43.93 19.88,45.18 20.57,43.65 21.26,38.11 21.95,31.07 22.64,25.83 23.33,23.03 24.02,22.56 24.71,23.95 25.40,25.92 26.09,30.25 26.78,35.65 27.47,41.70 28.16,47.96 28.85,53.66 29.54,52.34 30.23,49.58 30.92,45.30 31.61,39.52 32.30,34.31 32.99,29.37 33.68,27.02 34.37,26.54 35.06,27.00 35.75,27.58 36.44,28.29 37.13,27.46 37.83,26.20 38.52,25.15 39.21,24.54 39.90,25.63 40.59,28.40 41.28,31.93 41.97,35.18 42.66,37.19 43.35,33.29 44.04,28.18 44.73,23.25 45.42,18.85 46.11,15.35 46.80,12.79 47.49,10.58 48.18,8.95 48.87,6.90 49.56,5.13 50.25,4.18 50.94,4.70 51.63,7.03 52.32,10.34 53.01,14.50 53.70,17.94 54.39,21.02 55.08,24.01 55.77,25.89 56.46,27.15 57.15,29.02 57.84,29.76 58.53,29.04 59.22,29.06 59.91,30.27 60.61,32.28 61.30,35.12 61.99,37.86 62.68,40.44 63.37,39.81 64.06,37.70 64.75,36.14 65.44,35.00 66.13,33.93 66.82,33.12 67.51,30.36 68.20,28.14 68.89,26.60 69.58,25.71 70.27,25.27 70.96,24.01 71.65,23.39 72.34,23.79 73.03,25.85 73.72,30.01 74.41,35.77 75.10,40.74 75.79,44.60 76.48,43.57 77.17,13.52 77.86,17.04 78.55,19.65 79.24,26.76 79.93,30.69 80.62,34.40 81.31,39.55 82.00,43.27 82.70,44.54 83.39,45.18 84.08,49.77 84.77,54.88 85.46,50.47 86.15,45.48 86.84,39.08 87.53,34.93 88.22,32.71 88.91,32.23 89.60,33.17 90.29,35.05 90.98,37.53 91.67,40.88 92.36,43.68 93.05,45.40 93.74,43.97 94.43,37.76 95.12,29.90 95.81,25.35 96.50,23.35 97.19,22.74 97.88,23.81 98.57,26.13 99.26,31.16 99.95,35.15 100.64,42.39 101.33,48.26 102.02,53.27 102.71,52.90 103.40,49.44 104.09,45.49 104.78,39.15 105.48,33.89 106.17,28.55 106.86,26.56 107.55,26.17 108.24,26.73 108.93,28.50 109.62,27.65 110.31,26.29 111.00,25.84 111.69,25.39 112.38,24.14 113.07,25.70 113.76,28.70 114.45,31.46 115.14,34.60 115.83,37.09 116.52,33.63 117.21,28.42 117.90,23.32 118.59,18.85 119.28,15.31 119.97,13.11 120.66,10.41 121.35,8.82 122.04,6.57 122.73,4.81 123.42,4.00 124.11,4.32 124.80,6.83 125.49,10.34 126.18,14.12 126.87,16.97 127.57,20.44 128.26,24.17 128.95,25.52 129.64,27.10 130.33,28.88 131.02,29.83 131.71,28.75 132.40,28.43 133.09,30.62 133.78,32.18 134.47,34.31 135.16,37.16 135.85,39.54 136.54,39.44 137.23,38.11 137.92,35.86 138.61,34.78 139.30,33.73 139.99,33.05 140.68,30.50 141.37,27.97 142.06,26.31 142.75,25.75 143.44,25.65 144.13,23.73 144.82,23.39 145.51,23.99 146.20,25.65 146.89,30.40 147.58,36.29 148.27,41.07 148.96,44.42 149.65,43.12 150.35,14.88 151.04,18.23 151.73,18.23 152.42,24.97 153.11,31.45 153.80,33.96 154.49,39.77 155.18,42.44 155.87,44.17 156.56,47.21 157.25,50.86 157.94,54.45 158.63,50.86 159.32,45.47 160.01,38.55 160.70,36.85 161.39,32.34 162.08,33.00 162.77,34.58 163.46,34.58 164.15,36.72 164.84,39.47 165.53,42.51 166.22,45.39 166.91,43.82 167.60,37.13 168.29,31.08 168.98,26.25 169.67,23.57 170.36,23.20 171.05,24.52 171.74,27.48 172.43,32.53 173.13,33.11 173.82,39.48 174.51,47.59 175.20,53.07 175.89,53.07 176.58,51.67 177.27,47.57 177.96,39.75 178.65,35.71 179.34,30.42 180.03,28.07 180.72,28.63 181.41,26.96 182.10,30.15 182.79,25.68 183.48,28.33 184.17,24.68 184.86,26.08 185.55,23.81 186.24,26.58 186.93,30.12 187.62,34.09 188.31,35.07 189.00,36.21 189.69,32.29 190.38,27.01 191.07,22.04 191.76,17.92 192.45,15.12 193.14,14.34 193.83,11.93 194.52,9.33 195.22,6.95 195.91,5.44 196.60,4.39 197.29,4.25 197.98,6.90 198.67,11.73 199.36,11.73 200.05,16.78 200.74,20.32 201.43,24.23 202.12,27.20 202.81,27.39 203.50,29.93 204.19,31.91 204.88,30.01 205.57,27.71 206.26,30.09 206.95,32.09 207.64,36.27 208.33,35.74 209.02,39.29 209.71,38.54 210.40,37.83 211.09,35.14 211.78,35.08 212.47,34.48 213.16,32.81 213.85,30.35 214.54,28.99 215.23,25.63 215.92,25.42 216.61,25.53 217.30,24.79 218.00,23.57 218.69,24.81 219.38,26.89 220.07,30.38 220.76,34.71 221.45,38.84 222.14,44.12 222.83,43.46 223.52,13.99 224.21,13.99 224.90,13.99 225.59,19.48 226.28,29.16 226.97,29.16 227.66,37.14 228.35,37.14 229.04,37.14 229.73,47.28 230.42,46.12 231.11,46.12 231.80,50.18 232.49,50.18 233.18,50.18 233.87,47.64 234.56,34.17 235.25,34.17 235.94,35.43 236.63,35.43 237.32,35.43 238.01,35.43 238.70,42.15 239.39,42.15 240.09,42.15 240.78,40.88 241.47,40.88 242.16,40.88 242.85,28.83 243.54,28.83 244.23,28.83 244.92,30.26 245.61,30.26 246.30,30.26 246.99,30.26 247.68,51.24 248.37,51.24 249.06,51.24 249.75,51.24 250.44,53.26 251.13,53.26 251.82,53.26 252.51,35.55 253.20,35.55 253.89,35.55 254.58,37.32 255.27,37.32 255.96,24.40 256.65,24.40 257.34,29.76 258.03,29.76 258.72,29.76 259.41,34.81 260.10,34.81 260.79,34.81 261.48,33.23 262.17,33.23 262.87,33.23 263.56,26.78 264.25,26.78 264.94,26.78 265.63,16.10 266.32,16.10 267.01,16.10 267.70,16.10 268.39,7.46 269.08,7.46 269.77,7.46 270.46,5.16 271.15,5.16 271.84,9.88 272.53,9.88 273.22,12.41 273.91,12.41 274.60,24.15 275.29,24.15 275.98,24.15 276.67,32.58 277.36,32.58 278.05,26.74 278.74,26.74 279.43,32.79 280.12,32.79 280.81,32.79 281.50,29.64 282.19,37.73 282.88,37.73 283.57,36.49 284.26,36.49 284.96,36.49 285.65,33.60 286.34,31.70 287.03,29.18 287.72,29.18 288.41,29.18 289.10,25.88 289.79,25.88 290.48,25.88 291.17,22.37 291.86,22.37 292.55,23.42 293.24,23.42 293.93,23.42 294.62,30.59 295.31,30.59 296.00,34.52" />
</svg>