<svg width="300" height="60" xmlns="http://www.w3.org/2000/svg">
  <polyline fill="rgba(255,200,0,0.3)" stroke="#ffbb00" stroke-width="2" points="4.00,12.71 4.17,12.51 4.34,12.95 4.52,12.71 4.69,12.23 4.86,12.06 5.03,11.34 5.20,10.51 5.37,9.13 5.55,7.93 5.72,7.53 5.89,8.12 6.06,9.07 6.23,9.63 6.40,9.66 6.58,10.21 6.75,9.91 6.92,9.64 7.09,9.40 7.26,9.19 7.44,9.07 7.61,9.15 7.78,8.70 7.95,8.35 8.12,7.96 8.29,6.25 8.47,6.29 8.64,6.95 8.81,7.40 8.98,7.14 9.15,6.93 9.32,6.71 9.50,6.44 9.67,6.17 9.84,5.77 10.01,5.48 10.18,5.37 10.36,5.15 10.53,5.10 10.70,5.20 10.87,5.28 11.04,5.36 11.21,5.55 11.39,5.84 11.56,6.10 11.73,6.27 11.90,6.44 12.07,6.57 12.24,6.48 12.42,7.21 12.59,7.83 12.76,8.03 12.93,8.24 13.10,8.44 13.28,8.61 13.45,8.65 13.62,8.88 13.79,9.22 13.96,9.46 14.13,10.27 14.31,10.47 14.48,10.72 14.65,10.94 14.82,10.96 14.99,11.02 15.16,11.40 15.34,11.90 15.51,12.40 15.68,13.16 15.85,13.05 16.02,13.10 16.20,12.46 16.37,12.33 16.54,12.99 16.71,14.24 16.88,14.81 17.05,14.99 17.23,15.14 17.40,15.25 17.57,15.56 17.74,15.93 17.91,16.32 18.08,16.65 18.26,16.74 18.43,16.94 18.60,17.27 18.77,17.32 18.94,17.62 19.12,18.34 19.29,18.64 19.46,19.06 19.63,19.44 19.80,19.72 19.97,19.90 20.15,20.08 20.32,20.30 20.49,20.53 20.66,20.35 20.83,20.38 21.00,21.09 21.18,21.33 21.35,21.48 21.52,21.84 21.69,21.96 21.86,21.49 22.04,21.92 22.21,21.74 22.38,21.81 22.55,22.13 22.72,23.60 22.89,24.29 23.07,24.63 23.24,24.93 23.41,25.27 23.58,25.67 23.75,26.03 23.92,26.19 24.10,26.27 24.27,26.54 24.44,26.56 24.61,26.70 24.78,26.86 24.96,27.15 25.13,27.71 25.30,27.96 25.47,27.52 25.64,27.60 25.81,27.59 25.99,27.92 26.16,28.10 26.33,28.30 26.50,28.51 26.67,28.80 26.84,29.11 27.02,29.21 27.19,29.40 27.36,29.59 27.53,29.80 27.70,30.04 27.88,30.32 28.05,30.63 28.22,31.06 28.39,31.06 28.56,31.21 28.73,31.25 28.91,31.37 29.08,32.15 29.25,32.53 29.42,32.55 29.59,32.11 29.76,31.36 29.94,30.80 30.11,31.25 30.28,32.97 30.45,33.49 30.62,33.80 30.80,33.87 30.97,34.08 31.14,34.16 31.31,34.26 31.48,34.31 31.65,34.24 31.83,32.70 32.00,31.96 32.17,31.79 32.34,31.51 32.51,31.39 32.68,31.14 32.86,30.62 33.03,30.13 33.20,29.22 33.37,29.05 33.54,29.74 33.72,30.29 33.89,30.15 34.06,30.37 34.23,31.36 34.40,31.94 34.57,31.44 34.75,31.24 34.92,31.46 35.09,31.69 35.26,31.91 35.43,31.78 35.60,31.49 35.78,32.23 35.95,32.48 36.12,32.73 36.29,33.33 36.46,33.88 36.64,34.13 36.81,33.72 36.98,33.70 37.15,33.69 37.32,33.46 37.49,33.53 37.67,33.47 37.84,33.33 38.01,33.23 38.18,33.59 38.35,34.12 38.52,33.17 38.70,32.53 38.87,32.48 39.04,32.57 39.21,33.01 39.38,33.43 39.56,33.66 39.73,34.18 39.90,33.80 40.07,33.59 40.24,33.39 40.41,33.22 40.59,33.85 40.76,35.11 40.93,36.10 41.10,35.81 41.27,36.26 41.44,36.19 41.62,36.96 41.79,37.39 41.96,37.79 42.13,38.09 42.30,39.03 42.48,38.50 42.65,38.39 42.82,38.07 42.99,37.81 43.16,37.66 43.33,37.47 43.51,37.35 43.68,37.26 43.85,37.42 44.02,37.71 44.19,38.23 44.36,37.37 44.54,36.55 44.71,34.92 44.88,34.51 45.05,34.81 45.22,35.33 45.40,36.10 45.57,35.87 45.74,35.08 45.91,35.08 46.08,35.10 46.25,35.05 46.43,34.87 46.60,34.73 46.77,34.60 46.94,34.48 47.11,34.36 47.28,33.92 47.46,33.96 47.63,33.55 47.80,33.47 47.97,33.50 48.14,33.31 48.32,32.20 48.49,31.51 48.66,32.12 48.83,33.07 49.00,33.01 49.17,32.68 49.35,32.07 49.52,30.90 49.69,30.43 49.86,31.12 50.03,31.41 50.20,31.28 50.38,30.47 50.55,28.78 50.72,27.67 50.89,27.20 51.06,26.72 51.24,26.94 51.41,26.95 51.58,26.83 51.75,27.02 51.92,27.35 52.09,26.99 52.27,27.15 52.44,26.96 52.61,27.67 52.78,27.55 52.95,27.27 53.12,27.04 53.30,26.77 53.47,26.49 53.64,26.31 53.81,26.21 53.98,26.10 54.16,25.92 54.33,25.68 54.50,25.50 54.67,25.31 54.84,25.26 55.01,25.33 55.19,25.40 55.36,25.59 55.53,25.73 55.70,25.83 55.87,25.89 56.04,26.03 56.22,26.16 56.39,26.36 56.56,26.68 56.73,27.06 56.90,27.42 57.08,27.70 57.25,27.92 57.42,27.28 57.59,27.26 57.76,27.62 57.93,28.58 58.11,29.33 58.28,29.62 58.45,29.98 58.62,30.12 58.79,30.30 58.96,30.58 59.14,30.77 59.31,30.82 59.48,30.79 59.65,31.19 59.82,31.65 60.00,32.07 60.17,32.33 60.34,32.91 60.51,33.28 60.68,33.67 60.85,33.99 61.03,34.25 61.20,34.44 61.37,34.61 61.54,34.17 61.71,34.03 61.88,33.79 62.06,33.85 62.23,34.29 62.40,34.30 62.57,34.69 62.74,35.55 62.92,36.46 63.09,37.54 63.26,37.86 63.43,38.44 63.60,39.19 63.77,39.19 63.95,39.25 64.12,39.37 64.29,39.65 64.46,40.07 64.63,40.48 64.80,40.89 64.98,41.35 65.15,41.78 65.32,42.00 65.49,42.56 65.66,42.84 65.84,43.70 66.01,44.62 66.18,44.37 66.35,44.54 66.52,44.86 66.69,45.30 66.87,45.51 67.04,45.46 67.21,44.31 67.38,42.71 67.55,42.28 67.72,42.47 67.90,42.75 68.07,43.52 68.24,43.30 68.41,43.05 68.58,42.22 68.76,40.54 68.93,39.09 69.10,38.91 69.27,39.36 69.44,39.70 69.61,40.62 69.79,40.81 69.96,40.71 70.13,40.48 70.30,40.05 70.47,38.44 70.64,38.13 70.82,38.64 70.99,39.41 71.16,39.39 71.33,39.13 71.50,38.97 71.68,38.56 71.85,38.40 72.02,38.16 72.19,37.74 72.36,37.52 72.53,37.29 72.71,37.32 72.88,37.07 73.05,37.02 73.22,35.94 73.39,35.39 73.56,34.93 73.74,34.57 73.91,34.84 74.08,34.59 74.25,34.39 74.42,34.18 74.60,34.07 74.77,33.72 74.94,33.56 75.11,33.41 75.28,33.05 75.45,31.97 75.63,31.08 75.80,30.82 75.97,31.33 76.14,31.92 76.31,31.21 76.48,31.43 76.66,31.12 76.83,30.87 77.00,30.61 77.17,30.33 77.34,30.08 77.52,29.88 77.69,29.61 77.86,29.17 78.03,28.82 78.20,28.57 78.37,28.53 78.55,28.56 78.72,28.64 78.89,28.78 79.06,28.82 79.23,28.83 79.40,28.80 79.58,28.76 79.75,28.69 79.92,28.65 80.09,29.15 80.26,29.84 80.44,30.43 80.61,30.43 80.78,30.07 80.95,29.94 81.12,29.85 81.29,29.83 81.47,29.89 81.64,30.11 81.81,30.45 81.98,30.71 82.15,31.15 82.32,31.60 82.50,31.93 82.67,32.40 82.84,32.86 83.01,33.37 83.18,34.10 83.36,34.47 83.53,34.86 83.70,35.21 83.87,35.68 84.04,35.82 84.21,36.07 84.39,36.24 84.56,36.34 84.73,36.36 84.90,36.58 85.07,36.99 85.24,36.96 85.42,36.75 85.59,35.87 85.76,35.38 85.93,35.85 86.10,36.67 86.28,36.97 86.45,37.30 86.62,37.58 86.79,37.81 86.96,38.00 87.13,38.18 87.31,38.31 87.48,38.43 87.65,38.57 87.82,38.76 87.99,39.05 88.16,39.30 88.34,39.52 88.51,39.49 88.68,39.56 88.85,39.69 89.02,39.89 89.20,40.23 89.37,40.59 89.54,40.89 89.71,41.20 89.88,41.31 90.05,41.37 90.23,42.39 90.40,42.92 90.57,43.45 90.74,43.89 90.91,44.29 91.08,44.65 91.26,45.05 91.43,45.42 91.60,45.77 91.77,46.06 91.94,46.42 92.12,46.54 92.29,46.49 92.46,46.56 92.63,47.57 92.80,48.45 92.97,48.89 93.15,49.34 93.32,49.66 93.49,49.79 93.66,50.02 93.83,50.32 94.00,50.81 94.18,51.22 94.35,51.65 94.52,52.23 94.69,52.69 94.86,52.91 95.04,52.95 95.21,53.03 95.38,52.86 95.55,53.20 95.72,53.71 95.89,53.91 96.07,53.98 96.24,54.11 96.41,54.17 96.58,54.19 96.75,54.30 96.92,54.35 97.10,54.46 97.27,54.53 97.44,54.63 97.61,54.68 97.78,54.75 97.96,54.83 98.13,54.90 98.30,54.98 98.47,54.96 98.64,54.76 98.81,54.64 98.99,54.60 99.16,54.71 99.33,54.99 99.50,55.27 99.67,55.52 99.84,55.56 100.02,55.57 100.19,55.57 100.36,55.58 100.53,55.61 100.70,55.71 100.88,55.71 101.05,55.63 101.22,56.00 101.39,12.52 101.56,12.69 101.73,13.37 101.91,13.33 102.08,12.25 102.25,12.06 102.42,10.48 102.59,8.78 102.76,9.30 102.94,7.69 103.11,7.39 103.28,8.05 103.45,9.91 103.62,10.03 103.80,10.40 103.97,10.40 104.14,8.98 104.31,9.68 104.48,9.48 104.65,9.29 104.83,9.05 105.00,9.87 105.17,8.84 105.34,8.27 105.51,6.63 105.68,6.69 105.86,5.17 106.03,7.50 106.20,7.39 106.37,7.08 106.54,7.69 106.72,6.62 106.89,6.47 107.06,5.43 107.23,5.77 107.40,5.74 107.57,5.37 107.75,5.04 107.92,5.04 108.09,5.31 108.26,5.96 108.43,5.34 108.60,5.73 108.78,5.75 108.95,5.97 109.12,6.36 109.29,6.36 109.46,6.79 109.64,6.53 109.81,7.38 109.98,7.86 110.15,7.24 110.32,8.19 110.49,8.13 110.67,8.06 110.84,8.41 111.01,8.75 111.18,9.11 111.35,9.94 111.52,10.18 111.70,10.53 111.87,11.33 112.04,11.54 112.21,10.97 112.38,11.18 112.56,11.48 112.73,11.93 112.90,13.14 113.07,13.20 113.24,13.06 113.41,12.09 113.59,12.89 113.76,12.53 113.93,13.79 114.10,14.12 114.27,14.86 114.44,15.28 114.62,15.08 114.79,15.28 114.96,15.00 115.13,15.91 115.30,17.62 115.48,16.57 115.65,16.96 115.82,16.77 115.99,17.43 116.16,16.08 116.33,17.53 116.51,18.52 116.68,17.75 116.85,19.21 117.02,19.21 117.19,19.71 117.36,19.94 117.54,19.62 117.71,19.77 117.88,19.30 118.05,20.77 118.22,21.00 118.40,21.00 118.57,20.62 118.74,20.36 118.91,22.03 119.08,21.94 119.25,22.53 119.43,21.31 119.60,21.53 119.77,21.77 119.94,22.86 120.11,22.86 120.28,24.30 120.46,25.45 120.63,24.86 120.80,25.90 120.97,25.35 121.14,26.48 121.32,25.90 121.49,26.83 121.66,26.32 121.83,27.42 122.00,26.82 122.17,26.78 122.35,27.29 122.52,28.38 122.69,28.20 122.86,27.50 123.03,27.62 123.20,26.57 123.38,27.88 123.55,26.99 123.72,27.83 123.89,28.45 124.06,28.86 124.24,29.08 124.41,29.23 124.58,29.46 124.75,29.26 124.92,29.82 125.09,30.01 125.27,30.44 125.44,30.56 125.61,30.83 125.78,31.59 125.95,31.25 126.12,29.76 126.30,31.52 126.47,32.00 126.64,32.60 126.81,32.42 126.98,32.42 127.16,31.89 127.33,31.34 127.50,31.33 127.67,33.03 127.84,33.65 128.01,33.78 128.19,33.89 128.36,34.23 128.53,33.59 128.70,34.11 128.87,34.24 129.04,34.10 129.22,33.13 129.39,32.08 129.56,31.81 129.73,31.63 129.90,31.00 130.08,31.13 130.25,30.96 130.42,29.35 130.59,29.47 130.76,28.49 130.93,28.61 131.11,29.98 131.28,30.18 131.45,30.15 131.62,30.67 131.79,30.78 131.96,31.45 132.14,31.28 132.31,31.43 132.48,30.68 132.65,31.66 132.82,31.25 133.00,32.25 133.17,32.33 133.34,32.61 133.51,32.83 133.68,33.61 133.85,33.61 134.03,33.70 134.20,33.82 134.37,33.68 134.54,33.71 134.71,33.61 134.88,33.53 135.06,33.53 135.23,33.29 135.40,33.30 135.57,33.37 135.74,34.32 135.92,33.70 136.09,32.15 136.26,32.26 136.43,32.65 136.60,33.40 136.77,33.70 136.95,33.70 137.12,33.69 137.29,33.77 137.46,33.85 137.63,33.60 137.80,33.17 137.98,34.36 138.15,34.80 138.32,35.97 138.49,35.88 138.66,35.19 138.84,36.72 139.01,37.04 139.18,37.05 139.35,37.97 139.52,38.14 139.69,39.11 139.87,39.11 140.04,38.22 140.21,38.25 140.38,38.36 140.55,37.72 140.72,37.50 140.90,36.60 141.07,37.26 141.24,37.82 141.41,37.95 141.58,37.94 141.76,37.15 141.93,37.15 142.10,34.72 142.27,33.90 142.44,35.18 142.61,35.42 142.79,36.13 142.96,35.89 143.13,35.37 143.30,35.32 143.47,34.97 143.64,35.26 143.82,35.54 143.99,34.74 144.16,34.64 144.33,34.06 144.50,34.36 144.68,34.25 144.85,33.60 145.02,33.85 145.19,32.60 145.36,33.42 145.53,33.25 145.71,31.51 145.88,32.28 146.05,31.57 146.22,33.05 146.39,32.84 146.56,32.84 146.74,31.56 146.91,30.78 147.08,30.24 147.25,30.74 147.42,31.43 147.60,31.42 147.77,31.12 147.94,27.76 148.11,27.16 148.28,26.45 148.45,25.93 148.63,27.51 148.80,27.00 148.97,25.73 149.14,27.14 149.31,26.46 149.48,28.52 149.66,27.31 149.83,26.58 150.00,27.70 150.17,27.37 150.34,27.11 150.52,26.60 150.69,26.70 150.86,25.92 151.03,25.81 151.20,25.88 151.37,25.95 151.55,25.74 151.72,25.90 151.89,25.55 152.06,25.45 152.23,25.29 152.40,25.43 152.58,24.53 152.75,25.58 152.92,25.68 153.09,25.79 153.26,25.18 153.44,26.01 153.61,26.23 153.78,26.35 153.95,26.64 154.12,27.06 154.29,27.53 154.47,27.79 154.64,28.02 154.81,26.89 154.98,27.45 155.15,28.81 155.32,28.81 155.50,28.53 155.67,29.53 155.84,30.46 156.01,30.02 156.18,30.29 156.36,29.81 156.53,30.79 156.70,31.18 156.87,30.88 157.04,31.82 157.21,31.90 157.39,31.90 157.56,31.33 157.73,32.85 157.90,33.32 158.07,33.78 158.24,34.06 158.42,34.82 158.59,34.24 158.76,33.34 158.93,34.45 159.10,33.71 159.28,33.50 159.45,34.89 159.62,33.76 159.79,33.77 159.96,35.10 160.13,36.60 160.31,35.30 160.48,37.22 160.65,38.79 160.82,37.97 160.99,39.37 161.16,39.02 161.34,39.20 161.51,39.20 161.68,39.70 161.85,40.17 162.02,39.24 162.20,40.08 162.37,41.38 162.54,42.21 162.71,42.06 162.88,42.39 163.05,43.19 163.23,44.51 163.40,44.93 163.57,44.45 163.74,45.11 163.91,44.82 164.08,45.18 164.26,45.51 164.43,45.49 164.60,43.62 164.77,42.12 164.94,42.90 165.12,42.44 165.29,42.14 165.46,42.03 165.63,43.34 165.80,41.89 165.97,40.74 166.15,39.14 166.32,38.21 166.49,39.84 166.66,39.84 166.83,39.88 167.00,39.49 167.18,41.03 167.35,40.54 167.52,40.44 167.69,39.84 167.86,37.34 168.04,38.98 168.21,39.48 168.38,38.22 168.55,38.52 168.72,39.28 168.89,38.86 169.07,38.68 169.24,38.41 169.41,37.98 169.58,37.98 169.75,37.29 169.92,37.67 170.10,37.41 170.27,37.02 170.44,36.73 170.61,36.55 170.78,35.43 170.96,33.96 171.13,33.99 171.30,34.89 171.47,34.69 171.64,34.39 171.81,34.09 171.99,35.16 172.16,33.75 172.33,33.46 172.50,33.22 172.67,33.13 172.84,31.74 173.02,31.71 173.19,30.57 173.36,31.30 173.53,31.93 173.70,31.07 173.88,31.58 174.05,31.30 174.22,30.75 174.39,30.57 174.56,30.37 174.73,30.01 174.91,29.89 175.08,29.73 175.25,29.29 175.42,28.92 175.59,28.59 175.76,28.52 175.94,28.48 176.11,28.59 176.28,28.69 176.45,28.84 176.62,28.87 176.80,28.81 176.97,28.70 177.14,28.66 177.31,28.50 177.48,29.48 177.65,30.27 177.83,30.01 178.00,30.08 178.17,30.04 178.34,29.96 178.51,29.80 178.68,29.84 178.86,29.83 179.03,29.89 179.20,30.40 179.37,30.54 179.54,30.87 179.72,31.32 179.89,31.81 180.06,32.17 180.23,32.92 180.40,33.32 180.57,33.63 180.75,34.81 180.92,34.95 181.09,34.95 181.26,36.11 181.43,36.05 181.60,35.90 181.78,35.72 181.95,36.53 182.12,36.08 182.29,36.08 182.46,37.25 182.64,36.97 182.81,37.19 182.98,36.03 183.15,35.44 183.32,36.34 183.49,36.06 183.67,37.00 183.84,37.31 184.01,37.70 184.18,37.82 184.35,38.05 184.52,38.28 184.70,38.37 184.87,38.45 185.04,38.97 185.21,38.65 185.38,39.14 185.56,39.08 185.73,39.31 185.90,40.08 186.07,39.55 186.24,39.75 186.41,39.80 186.59,40.19 186.76,40.46 186.93,40.87 187.10,40.54 187.27,41.46 187.44,41.19 187.62,42.19 187.79,42.83 187.96,43.41 188.13,43.98 188.30,44.28 188.48,44.64 188.65,45.88 188.82,46.32 188.99,46.56 189.16,46.53 189.33,46.06 189.51,46.68 189.68,47.35 189.85,46.90 190.02,46.90 190.19,48.24 190.36,48.84 190.54,49.22 190.71,49.74 190.88,49.85 191.05,49.99 191.22,49.17 191.40,50.91 191.57,51.27 191.74,52.02 191.91,52.20 192.08,52.77 192.25,52.86 192.43,52.90 192.60,53.02 192.77,52.91 192.94,52.15 193.11,53.62 193.28,53.80 193.46,53.97 193.63,54.09 193.80,54.13 193.97,54.22 194.14,54.29 194.32,54.38 194.49,54.52 194.66,54.79 194.83,54.62 195.00,54.57 195.17,54.70 195.35,54.72 195.52,54.96 195.69,54.99 195.86,55.04 196.03,54.75 196.20,54.63 196.38,54.60 196.55,54.69 196.72,55.10 196.89,55.40 197.06,55.48 197.24,55.57 197.41,55.57 197.58,55.57 197.75,55.58 197.92,55.66 198.09,55.66 198.27,55.68 198.44,55.64 198.61,55.73 198.78,14.51 198.95,14.51 199.12,14.51 199.30,14.37 199.47,14.37 199.64,14.37 199.81,11.18 199.98,11.18 200.16,11.18 200.33,7.38 200.50,7.38 200.67,7.38 200.84,8.75 201.01,8.75 201.19,8.75 201.36,8.75 201.53,9.67 201.70,9.67 201.87,9.67 202.04,9.40 202.22,9.40 202.39,9.40 202.56,8.44 202.73,8.44 202.90,8.44 203.08,8.27 203.25,4.00 203.42,6.76 203.59,6.76 203.76,6.76 203.93,8.58 204.11,8.58 204.28,8.58 204.45,4.35 204.62,4.35 204.79,4.35 204.96,5.11 205.14,5.11 205.31,5.11 205.48,7.00 205.65,5.34 205.82,5.34 206.00,5.34 206.17,5.05 206.34,5.05 206.51,6.39 206.68,6.65 206.85,6.65 207.03,7.39 207.20,7.39 207.37,7.39 207.54,5.72 207.71,8.14 207.88,8.14 208.06,8.14 208.23,8.75 208.40,8.75 208.57,8.75 208.74,9.95 208.92,9.95 209.09,10.50 209.26,10.50 209.43,10.50 209.60,10.47 209.77,10.47 209.95,12.55 210.12,12.55 210.29,12.55 210.46,12.86 210.63,12.86 210.80,12.86 210.98,14.12 211.15,12.46 211.32,12.46 211.49,12.46 211.66,15.09 211.84,15.09 212.01,15.09 212.18,15.09 212.35,12.19 212.52,18.20 212.69,18.20 212.87,16.27 213.04,16.27 213.21,16.27 213.38,17.80 213.55,17.80 213.72,17.80 213.90,15.78 214.07,15.78 214.24,21.69 214.41,21.69 214.58,19.77 214.76,19.77 214.93,19.77 215.10,19.30 215.27,19.30 215.44,19.30 215.61,22.77 215.79,22.77 215.96,19.02 216.13,19.02 216.30,22.32 216.47,22.32 216.64,22.32 216.82,18.94 216.99,23.29 217.16,23.29 217.33,21.83 217.50,21.83 217.68,25.86 217.85,25.86 218.02,24.63 218.19,24.63 218.36,24.63 218.53,28.21 218.71,28.21 218.88,28.21 219.05,25.94 219.22,25.94 219.39,25.94 219.56,26.02 219.74,26.02 219.91,27.59 220.08,27.59 220.25,27.59 220.42,27.79 220.60,27.79 220.77,27.79 220.94,28.93 221.11,28.93 221.28,28.93 221.45,30.89 221.63,28.07 221.80,27.27 221.97,27.27 222.14,27.27 222.31,31.14 222.48,31.14 222.66,31.14 222.83,29.20 223.00,29.20 223.17,32.46 223.34,32.46 223.52,29.34 223.69,29.34 223.86,32.81 224.03,32.81 224.20,31.78 224.37,31.78 224.55,30.10 224.72,30.10 224.89,30.10 225.06,33.48 225.23,33.48 225.40,33.89 225.58,33.89 225.75,34.51 225.92,34.51 226.09,34.51 226.26,34.39 226.44,34.39 226.61,34.39 226.78,31.81 226.95,31.81 227.12,31.81 227.29,27.83 227.47,31.71 227.64,31.71 227.81,27.83 227.98,27.83 228.15,27.83 228.32,27.21 228.50,27.21 228.67,27.21 228.84,30.67 229.01,30.67 229.18,30.67 229.36,33.65 229.53,33.65 229.70,33.13 229.87,31.66 230.04,31.66 230.21,31.66 230.39,30.71 230.56,30.71 230.73,30.71 230.90,32.61 231.07,34.22 231.24,34.22 231.42,34.22 231.59,34.22 231.76,31.11 231.93,32.33 232.10,32.33 232.28,32.33 232.45,32.33 232.62,34.84 232.79,34.84 232.96,31.67 233.13,32.80 233.31,32.80 233.48,32.80 233.65,32.64 233.82,32.64 233.99,32.64 234.16,35.02 234.34,35.02 234.51,33.65 234.68,33.65 234.85,33.60 235.02,33.60 235.20,33.60 235.37,34.71 235.54,35.82 235.71,35.82 235.88,35.82 236.05,34.90 236.23,34.90 236.40,34.90 236.57,36.18 236.74,38.47 236.91,38.47 237.08,38.22 237.26,38.22 237.43,38.22 237.60,38.22 237.77,38.59 237.94,38.59 238.12,38.59 238.29,36.32 238.46,36.32 238.63,36.32 238.80,37.54 238.97,37.54 239.15,38.80 239.32,38.80 239.49,32.89 239.66,32.89 239.83,36.21 240.00,36.21 240.18,36.21 240.35,33.54 240.52,33.54 240.69,33.54 240.86,35.26 241.04,35.26 241.21,35.26 241.38,32.71 241.55,32.71 241.72,32.71 241.89,32.74 242.07,32.74 242.24,32.74 242.41,33.72 242.58,33.72 242.75,33.72 242.92,32.28 243.10,32.28 243.27,32.28 243.44,32.28 243.61,33.05 243.78,33.05 243.96,33.05 244.13,33.20 244.30,30.24 244.47,30.24 244.64,30.24 244.81,31.42 244.99,31.42 245.16,31.42 245.33,29.98 245.50,29.98 245.67,27.89 245.84,27.89 246.02,27.89 246.19,26.45 246.36,26.45 246.53,24.92 246.70,24.92 246.88,31.63 247.05,28.20 247.22,28.20 247.39,28.20 247.56,27.12 247.73,27.12 247.91,27.12 248.08,25.26 248.25,25.26 248.42,25.26 248.59,24.92 248.76,24.92 248.94,24.92 249.11,26.09 249.28,26.09 249.45,26.09 249.62,24.28 249.80,24.52 249.97,24.52 250.14,24.52 250.31,24.52 250.48,25.18 250.65,25.18 250.83,25.18 251.00,27.39 251.17,27.39 251.34,27.49 251.51,27.49 251.68,25.45 251.86,26.58 252.03,26.58 252.20,26.58 252.37,28.81 252.54,28.81 252.72,28.81 252.89,28.81 253.06,31.54 253.23,31.54 253.40,28.24 253.57,29.80 253.75,29.80 253.92,29.80 254.09,31.47 254.26,31.47 254.43,31.47 254.60,31.33 254.78,31.33 254.95,31.33 255.12,31.33 255.29,35.02 255.46,35.02 255.64,31.86 255.81,34.64 255.98,34.64 256.15,34.64 256.32,34.64 256.49,33.49 256.67,33.49 256.84,33.49 257.01,33.49 257.18,34.13 257.35,34.13 257.52,34.13 257.70,34.13 257.87,37.97 258.04,37.97 258.21,37.97 258.38,37.97 258.56,37.00 258.73,38.93 258.90,38.93 259.07,38.56 259.24,38.56 259.41,38.56 259.59,41.09 259.76,41.09 259.93,41.09 260.10,41.09 260.27,43.97 260.44,43.97 260.62,45.28 260.79,45.28 260.96,42.59 261.13,44.82 261.30,44.82 261.48,44.82 261.65,46.01 261.82,41.91 261.99,41.91 262.16,41.91 262.33,43.98 262.51,43.98 262.68,43.98 262.85,43.34 263.02,43.34 263.19,43.34 263.36,41.33 263.54,41.33 263.71,41.33 263.88,39.88 264.05,39.88 264.22,39.88 264.40,39.88 264.57,38.45 264.74,38.45 264.91,41.52 265.08,37.34 265.25,37.34 265.43,37.34 265.60,40.06 265.77,38.52 265.94,38.52 266.11,38.52 266.28,37.02 266.46,38.42 266.63,38.42 266.80,38.42 266.97,38.42 267.14,36.96 267.32,36.96 267.49,36.96 267.66,36.73 267.83,36.73 268.00,36.73 268.17,32.45 268.35,32.45 268.52,36.23 268.69,36.23 268.86,33.04 269.03,33.04 269.20,35.52 269.38,35.52 269.55,32.88 269.72,32.88 269.89,34.45 270.06,34.45 270.24,31.72 270.41,30.58 270.58,30.58 270.75,30.58 270.92,31.76 271.09,31.76 271.27,31.76 271.44,32.65 271.61,29.11 271.78,30.12 271.95,30.12 272.12,30.12 272.30,29.73 272.47,29.73 272.64,29.73 272.81,28.94 272.98,28.62 273.16,28.62 273.33,28.59 273.50,28.59 273.67,28.59 273.84,29.66 274.01,29.66 274.19,29.64 274.36,28.39 274.53,28.39 274.70,29.01 274.87,29.01 275.04,32.12 275.22,30.00 275.39,30.00 275.56,29.48 275.73,29.48 275.90,29.09 276.08,29.09 276.25,29.09 276.42,30.38 276.59,30.38 276.76,30.38 276.93,31.32 277.11,31.32 277.28,31.32 277.45,31.32 277.62,34.39 277.79,34.39 277.96,34.39 278.14,34.95 278.31,34.95 278.48,34.95 278.65,35.25 278.82,35.25 279.00,35.25 279.17,36.02 279.34,37.62 279.51,37.62 279.68,37.62 279.85,36.97 280.03,36.97 280.20,36.97 280.37,36.31 280.54,36.31 280.71,36.31 280.88,37.07 281.06,37.07 281.23,37.07 281.40,37.82 281.57,37.82 281.74,37.82 281.92,38.51 282.09,38.51 282.26,38.51 282.43,39.99 282.60,39.14 282.77,39.14 282.95,39.14 283.12,38.15 283.29,39.55 283.46,39.55 283.63,39.55 283.80,41.64 283.98,41.64 284.15,38.49 284.32,40.54 284.49,40.54 284.66,40.54 284.84,42.11 285.01,42.01 285.18,42.01 285.35,42.01 285.52,43.64 285.69,45.61 285.87,45.61 286.04,45.61 286.21,46.55 286.38,46.55 286.55,46.55 286.72,47.35 286.90,47.35 287.07,47.35 287.24,47.23 287.41,47.23 287.58,47.23 287.76,47.23 287.93,49.75 288.10,49.75 288.27,49.75 288.44,49.18 288.61,49.18 288.79,49.18 288.96,49.03 289.13,53.34 289.30,53.34 289.47,53.34 289.64,53.34 289.82,53.03 289.99,53.03 290.16,53.03 290.33,49.15 290.50,53.80 290.68,53.80 290.85,53.80 291.02,53.98 291.19,53.98 291.36,53.43 291.53,53.43 291.71,53.43 291.88,54.44 292.05,54.56 292.22,54.56 292.39,55.01 292.56,55.01 292.74,54.73 292.91,54.73 293.08,54.73 293.25,54.86 293.42,54.86 293.60,54.96 293.77,54.96 293.94,54.96 294.11,55.24 294.28,55.24 294.45,55.57 294.63,55.57 294.80,55.57 294.97,55.58 295.14,55.58 295.31,55.74 295.48,55.74 295.66,55.74 295.83,55.73 296.00,55.73" />
</svg>