<svg width="300" height="60" xmlns="http://www.w3.org/2000/svg">
  <polyline fill="rgba(255,200,0,0.3)" stroke="#ffbb00" stroke-width="2" points="4.00,19.77 4.28,19.12 4.55,18.80 4.83,18.39 5.11,17.78 5.38,17.16 5.66,16.59 5.93,16.22 6.21,15.85 6.49,15.82 6.76,15.97 7.04,16.36 7.32,16.63 7.59,16.60 7.87,16.33 8.14,16.00 8.42,15.74 8.70,15.60 8.97,15.60 9.25,15.66 9.53,15.46 9.80,15.31 10.08,15.03 10.35,14.68 10.63,14.51 10.91,14.28 11.18,14.18 11.46,14.16 11.74,14.04 12.01,13.74 12.29,13.41 12.56,12.94 12.84,12.38 13.12,11.74 13.39,11.32 13.67,10.89 13.95,10.60 14.22,10.48 14.50,10.54 14.77,10.56 15.05,10.43 15.33,10.21 15.60,9.79 15.88,9.34 16.16,8.84 16.43,8.54 16.71,8.32 16.98,8.21 17.26,8.07 17.54,8.07 17.81,8.21 18.09,8.35 18.37,8.50 18.64,8.65 18.92,8.82 19.19,8.81 19.47,8.57 19.75,8.43 20.02,8.46 20.30,8.39 20.58,8.29 20.85,8.33 21.13,8.06 21.40,7.86 21.68,7.63 21.96,7.33 22.23,7.34 22.51,7.36 22.79,7.15 23.06,6.87 23.34,6.57 23.61,6.25 23.89,5.91 24.17,5.72 24.44,5.55 24.72,5.30 25.00,5.09 25.27,4.84 25.55,4.64 25.82,4.46 26.10,4.27 26.38,4.25 26.65,4.19 26.93,4.00 27.21,4.09 27.48,4.23 27.76,4.35 28.03,4.58 28.31,4.79 28.59,5.17 28.86,5.64 29.14,6.21 29.42,6.65 29.69,7.35 29.97,8.09 30.24,9.02 30.52,10.16 30.80,11.17 31.07,11.12 31.35,10.31 31.63,10.07 31.90,10.11 32.18,10.16 32.45,9.51 32.73,8.02 33.01,7.15 33.28,7.08 33.56,7.44 33.84,7.75 34.11,7.98 34.39,8.23 34.66,8.45 34.94,8.60 35.22,8.45 35.49,8.09 35.77,7.63 36.05,7.14 36.32,6.99 36.60,6.96 36.87,7.56 37.15,8.25 37.43,9.35 37.70,10.57 37.98,10.79 38.26,10.94 38.53,11.05 38.81,11.07 39.08,10.64 39.36,10.40 39.64,10.22 39.91,10.54 40.19,10.74 40.47,10.80 40.74,10.64 41.02,10.26 41.29,9.84 41.57,9.58 41.85,10.02 42.12,10.83 42.40,11.64 42.68,12.08 42.95,12.19 43.23,12.81 43.50,13.29 43.78,14.03 44.06,14.44 44.33,14.64 44.61,14.84 44.89,14.87 45.16,14.76 45.44,14.35 45.71,13.97 45.99,13.38 46.27,13.24 46.54,13.13 46.82,13.29 47.10,13.50 47.37,13.44 47.65,13.58 47.92,13.74 48.20,14.13 48.48,14.27 48.75,14.50 49.03,14.71 49.31,15.27 49.58,15.80 49.86,15.72 50.13,15.75 50.41,15.55 50.69,15.42 50.96,15.00 51.24,15.14 51.52,15.95 51.79,17.16 52.07,18.42 52.34,19.40 52.62,20.12 52.90,20.24 53.17,19.54 53.45,19.26 53.73,19.33 54.00,19.43 54.28,19.24 54.55,18.76 54.83,18.35 55.11,18.37 55.38,18.94 55.66,18.90 55.94,18.16 56.21,17.92 56.49,17.96 56.76,18.28 57.04,18.83 57.32,19.37 57.59,19.96 57.87,20.51 58.15,20.88 58.42,21.24 58.70,21.58 58.97,21.95 59.25,22.11 59.53,21.93 59.80,21.99 60.08,22.21 60.36,22.53 60.63,22.96 60.91,23.47 61.18,23.96 61.46,23.91 61.74,23.77 62.01,23.35 62.29,23.03 62.57,23.30 62.84,23.94 63.12,24.83 63.39,56.00 63.67,55.56 63.95,55.04 64.22,54.64 64.50,54.30 64.78,53.98 65.05,53.61 65.33,53.23 65.60,52.76 65.88,52.40 66.16,52.00 66.43,51.84 66.71,51.29 66.99,50.99 67.26,51.06 67.54,50.84 67.81,50.40 68.09,49.67 68.37,49.07 68.64,48.39 68.92,47.91 69.20,47.17 69.47,46.66 69.75,46.13 70.02,45.76 70.30,45.60 70.58,45.70 70.85,46.29 71.13,47.18 71.41,47.97 71.68,48.03 71.96,48.03 72.23,48.22 72.51,48.42 72.79,48.47 73.06,48.52 73.34,47.89 73.62,47.04 73.89,46.26 74.17,45.40 74.44,44.82 74.72,44.23 75.00,44.11 75.27,44.65 75.55,45.02 75.83,45.57 76.10,45.78 76.38,45.19 76.65,44.29 76.93,43.66 77.21,43.14 77.48,42.61 77.76,42.09 78.04,40.97 78.31,39.82 78.59,38.90 78.86,37.92 79.14,36.90 79.42,36.13 79.69,35.34 79.97,34.90 80.25,34.82 80.52,35.01 80.80,35.53 81.07,35.33 81.35,34.65 81.63,33.94 81.90,33.40 82.18,33.12 82.46,33.13 82.73,33.08 83.01,32.56 83.28,32.14 83.56,31.85 83.84,31.81 84.11,32.08 84.39,32.33 84.67,32.47 84.94,31.89 85.22,31.16 85.49,30.45 85.77,29.75 86.05,29.63 86.32,29.58 86.60,29.53 86.88,29.61 87.15,29.51 87.43,29.49 87.70,29.62 87.98,29.65 88.26,29.77 88.53,29.64 88.81,29.73 89.09,29.23 89.36,28.74 89.64,28.36 89.91,27.90 90.19,27.92 90.47,28.20 90.74,28.57 91.02,28.75 91.30,28.80 91.57,28.68 91.85,28.73 92.12,29.06 92.40,29.39 92.68,29.41 92.95,29.41 93.23,29.29 93.51,29.04 93.78,28.67 94.06,28.33 94.33,28.04 94.61,27.87 94.89,28.08 95.16,28.90 95.44,29.42 95.72,30.64 95.99,30.58 96.27,29.16 96.54,28.50 96.82,27.66 97.10,27.27 97.37,27.18 97.65,27.06 97.93,26.96 98.20,26.79 98.48,26.64 98.75,26.48 99.03,26.35 99.31,26.55 99.58,24.65 99.86,23.35 100.14,22.29 100.41,21.35 100.69,20.52 100.96,20.18 101.24,19.77 101.52,19.12 101.79,55.99 102.07,55.67 102.35,54.90 102.62,54.55 102.90,54.30 103.18,53.81 103.45,53.31 103.73,53.31 104.00,52.63 104.28,52.56 104.56,51.88 104.83,51.92 105.11,51.09 105.39,51.16 105.66,50.75 105.94,50.75 106.21,50.70 106.49,49.62 106.77,49.27 107.04,47.99 107.32,47.70 107.60,47.38 107.87,46.14 108.15,45.94 108.42,45.81 108.70,45.80 108.98,45.95 109.25,46.67 109.53,46.89 109.81,48.25 110.08,47.83 110.36,47.65 110.63,48.50 110.91,48.25 111.19,48.83 111.46,48.11 111.74,47.40 112.02,46.69 112.29,45.80 112.57,45.18 112.84,44.60 113.12,44.32 113.40,44.03 113.67,44.62 113.95,45.30 114.23,44.85 114.50,45.36 114.78,45.08 115.05,44.34 115.33,43.32 115.61,43.44 115.88,42.48 116.16,41.51 116.44,41.04 116.71,39.61 116.99,38.61 117.26,37.40 117.54,36.33 117.82,36.33 118.09,35.55 118.37,34.95 118.65,34.88 118.92,35.35 119.20,35.25 119.47,34.97 119.75,33.99 120.03,34.01 120.30,33.15 120.58,33.35 120.86,33.02 121.13,32.75 121.41,31.89 121.68,32.37 121.96,32.52 122.24,32.06 122.51,31.51 122.79,33.08 123.07,32.82 123.34,32.41 123.62,30.94 123.89,30.79 124.17,29.49 124.45,29.39 124.72,29.38 125.00,29.54 125.28,29.66 125.55,29.72 125.83,29.81 126.10,29.99 126.38,30.21 126.66,29.41 126.93,29.56 127.21,29.47 127.49,28.98 127.76,28.95 128.04,28.40 128.31,27.83 128.59,28.31 128.87,28.26 129.14,28.45 129.42,28.70 129.70,28.78 129.97,28.83 130.25,29.08 130.52,28.58 130.80,29.58 131.08,29.97 131.35,29.28 131.63,29.58 131.91,28.66 132.18,28.16 132.46,28.56 132.73,28.35 133.01,28.54 133.29,28.07 133.56,29.30 133.84,29.13 134.12,30.92 134.39,30.49 134.67,29.64 134.94,28.44 135.22,28.33 135.50,27.35 135.77,28.21 136.05,27.92 136.33,27.04 136.60,26.56 136.88,27.04 137.15,26.52 137.43,26.64 137.71,26.08 137.98,24.87 138.26,23.84 138.54,22.94 138.81,20.81 139.09,20.13 139.36,19.64 139.64,19.93 139.92,19.26 140.19,18.61 140.47,18.34 140.75,17.86 141.02,17.08 141.30,16.51 141.57,15.69 141.85,16.04 142.13,15.91 142.40,16.11 142.68,16.45 142.96,16.45 143.23,16.28 143.51,16.61 143.78,16.08 144.06,15.59 144.34,15.98 144.61,15.27 144.89,15.72 145.17,15.28 145.44,14.76 145.72,15.02 145.99,14.46 146.27,14.46 146.55,13.95 146.82,14.38 147.10,13.93 147.38,14.23 147.65,13.53 147.93,13.53 148.20,12.54 148.48,12.54 148.76,11.55 149.03,11.43 149.31,10.70 149.59,10.84 149.86,10.53 150.14,10.38 150.41,10.38 150.69,10.10 150.97,10.26 151.24,9.46 151.52,9.24 151.80,8.98 152.07,8.31 152.35,8.25 152.62,8.23 152.90,8.24 153.18,8.25 153.45,8.36 153.73,8.51 154.01,8.66 154.28,8.80 154.56,8.91 154.83,8.91 155.11,8.76 155.39,8.52 155.66,8.36 155.94,9.16 156.22,8.93 156.49,8.76 156.77,8.55 157.04,8.41 157.32,8.19 157.60,7.97 157.87,7.27 158.15,7.31 158.43,7.22 158.70,7.02 158.98,6.53 159.25,6.22 159.53,5.90 159.81,5.67 160.08,5.55 160.36,5.30 160.64,5.07 160.91,4.83 161.19,4.58 161.46,4.37 161.74,4.22 162.02,4.14 162.29,4.14 162.57,4.10 162.85,4.09 163.12,4.51 163.40,4.45 163.67,4.38 163.95,5.14 164.23,5.25 164.50,5.44 164.78,6.56 165.06,6.65 165.33,7.90 165.61,7.90 165.88,9.57 166.16,9.46 166.44,11.28 166.71,10.70 166.99,9.86 167.27,11.27 167.54,10.92 167.82,10.50 168.09,10.04 168.37,7.87 168.65,7.87 168.92,6.37 169.20,7.59 169.48,7.48 169.75,8.63 170.03,8.48 170.30,8.26 170.58,7.90 170.86,8.93 171.13,8.50 171.41,7.97 171.69,7.46 171.96,7.21 172.24,7.33 172.51,7.79 172.79,8.46 173.07,10.39 173.34,10.63 173.62,10.63 173.90,11.42 174.17,11.01 174.45,11.40 174.72,10.74 175.00,9.94 175.28,10.82 175.55,10.62 175.83,10.61 176.11,10.47 176.38,10.06 176.66,10.94 176.93,10.41 177.21,10.32 177.49,10.78 177.76,11.55 178.04,12.32 178.32,12.76 178.59,12.76 178.87,12.78 179.14,13.67 179.42,14.16 179.70,14.76 179.97,15.02 180.25,14.39 180.53,14.60 180.80,14.60 181.08,14.85 181.35,13.97 181.63,14.29 181.91,13.43 182.18,12.91 182.46,13.66 182.74,13.44 183.01,13.06 183.29,13.56 183.56,14.16 183.84,14.14 184.12,14.68 184.39,14.61 184.67,14.65 184.95,14.93 185.22,16.03 185.50,15.85 185.77,15.60 186.05,15.25 186.33,15.73 186.60,15.17 186.88,15.17 187.16,15.96 187.43,17.48 187.71,18.37 187.98,19.75 188.26,20.17 188.54,20.22 188.81,19.89 189.09,19.84 189.37,19.03 189.64,19.26 189.92,19.37 190.19,19.37 190.47,19.09 190.75,18.78 191.02,19.20 191.30,19.29 191.58,18.79 191.85,18.46 192.13,18.25 192.40,18.27 192.68,18.55 192.96,19.95 193.23,20.29 193.51,20.62 193.79,20.78 194.06,20.87 194.34,21.96 194.61,21.93 194.89,21.57 195.17,22.03 195.44,21.68 195.72,22.81 196.00,22.62 196.27,22.59 196.55,23.85 196.82,23.85 197.10,24.34 197.38,23.80 197.65,23.14 197.93,23.36 198.21,23.42 198.48,24.55 198.76,24.66 199.04,55.62 199.31,55.62 199.59,54.76 199.86,54.76 200.14,54.76 200.42,52.85 200.69,52.85 200.97,52.85 201.25,52.85 201.52,52.59 201.80,50.72 202.07,50.72 202.35,50.52 202.63,50.52 202.90,50.52 203.18,50.52 203.46,50.51 203.73,47.87 204.01,47.87 204.28,47.01 204.56,47.01 204.84,47.01 205.11,46.25 205.39,46.25 205.67,46.25 205.94,46.12 206.22,45.92 206.49,45.92 206.77,45.92 207.05,48.50 207.32,47.45 207.60,47.45 207.88,47.45 208.15,48.00 208.43,48.00 208.70,45.88 208.98,45.72 209.26,45.72 209.53,45.72 209.81,45.26 210.09,43.54 210.36,43.54 210.64,44.09 210.91,44.09 211.19,44.09 211.47,44.49 211.74,44.49 212.02,44.49 212.30,42.08 212.57,42.08 212.85,42.08 213.12,42.08 213.40,38.67 213.68,38.67 213.95,38.67 214.23,38.67 214.51,35.74 214.78,35.74 215.06,35.74 215.33,35.74 215.61,34.29 215.89,35.97 216.16,35.97 216.44,33.95 216.72,33.95 216.99,34.34 217.27,34.34 217.54,31.93 217.82,31.93 218.10,33.34 218.37,33.34 218.65,31.34 218.93,31.34 219.20,35.16 219.48,35.16 219.75,34.33 220.03,34.33 220.31,33.38 220.58,33.38 220.86,33.38 221.14,33.06 221.41,29.42 221.69,29.42 221.96,29.58 222.24,29.58 222.52,29.87 222.79,29.87 223.07,29.87 223.35,30.13 223.62,30.13 223.90,29.75 224.17,29.75 224.45,29.75 224.73,28.40 225.00,28.40 225.28,28.40 225.56,27.36 225.83,30.68 226.11,31.18 226.38,31.18 226.66,31.18 226.94,31.42 227.21,31.42 227.49,31.42 227.77,29.48 228.04,29.48 228.32,30.76 228.59,30.76 228.87,30.76 229.15,30.76 229.42,29.49 229.70,29.49 229.98,29.49 230.25,32.61 230.53,30.88 230.80,30.88 231.08,30.88 231.36,30.88 231.63,29.80 231.91,32.45 232.19,32.45 232.46,29.51 232.74,29.51 233.01,29.51 233.29,30.56 233.57,28.19 233.84,28.19 234.12,28.19 234.40,27.29 234.67,27.29 234.95,25.42 235.22,23.01 235.50,23.01 235.78,23.01 236.05,20.97 236.33,20.97 236.61,19.17 236.88,19.17 237.16,19.17 237.43,17.14 237.71,18.10 237.99,18.10 238.26,15.76 238.54,15.76 238.82,15.76 239.09,17.17 239.37,15.62 239.64,15.62 239.92,17.31 240.20,17.31 240.47,15.03 240.75,15.03 241.03,16.03 241.30,16.03 241.58,16.03 241.85,13.89 242.13,14.74 242.41,14.74 242.68,14.74 242.96,15.69 243.24,13.13 243.51,13.13 243.79,13.13 244.06,14.12 244.34,14.12 244.62,14.12 244.89,11.70 245.17,11.70 245.45,11.70 245.72,11.70 246.00,11.57 246.27,11.57 246.55,9.66 246.83,10.38 247.10,10.38 247.38,10.38 247.66,10.38 247.93,9.16 248.21,9.16 248.48,9.16 248.76,8.63 249.04,8.63 249.31,8.63 249.59,8.52 249.87,8.52 250.14,8.52 250.42,10.66 250.69,10.66 250.97,10.66 251.25,11.25 251.52,11.25 251.80,11.25 252.08,11.25 252.35,10.76 252.63,10.76 252.90,10.76 253.18,10.10 253.46,10.10 253.73,10.10 254.01,9.61 254.29,9.61 254.56,9.61 254.84,9.26 255.11,9.26 255.39,9.26 255.67,8.66 255.94,8.66 256.22,6.75 256.50,5.98 256.77,5.98 257.05,5.98 257.32,5.33 257.60,5.33 257.88,5.33 258.15,4.78 258.43,4.78 258.71,4.78 258.98,4.63 259.26,4.63 259.53,4.63 259.81,4.63 260.09,4.62 260.36,4.62 260.64,4.62 260.92,4.66 261.19,7.39 261.47,7.39 261.74,7.96 262.02,7.96 262.30,7.96 262.57,7.94 262.85,7.94 263.13,13.02 263.40,13.02 263.68,11.84 263.95,11.84 264.23,11.84 264.51,10.42 264.78,10.42 265.06,10.42 265.34,9.39 265.61,9.39 265.89,9.39 266.16,9.39 266.44,8.74 266.72,8.74 266.99,8.74 267.27,7.78 267.55,7.78 267.82,7.78 268.10,10.77 268.37,10.77 268.65,10.77 268.93,10.21 269.20,10.21 269.48,10.21 269.76,11.12 270.03,11.12 270.31,11.12 270.58,10.69 270.86,10.69 271.14,10.69 271.41,10.69 271.69,12.30 271.97,12.30 272.24,12.30 272.52,11.75 272.79,11.75 273.07,11.75 273.35,10.89 273.62,10.89 273.90,10.89 274.18,10.92 274.45,10.92 274.73,10.92 275.00,12.33 275.28,12.33 275.56,12.33 275.83,12.33 276.11,11.68 276.39,14.67 276.66,14.67 276.94,14.67 277.21,15.26 277.49,15.26 277.77,15.26 278.04,15.26 278.32,13.13 278.60,13.13 278.87,16.05 279.15,14.57 279.42,14.57 279.70,14.57 279.98,13.64 280.25,13.64 280.53,13.64 280.81,16.23 281.08,15.68 281.36,15.68 281.63,15.68 281.91,15.79 282.19,15.79 282.46,15.79 282.74,15.14 283.02,15.14 283.29,15.14 283.57,17.13 283.84,17.13 284.12,17.13 284.40,17.13 284.67,18.67 284.95,18.67 285.23,20.61 285.50,21.54 285.78,21.54 286.05,21.54 286.33,22.49 286.61,19.20 286.88,19.20 287.16,19.12 287.44,19.12 287.71,19.12 287.99,19.12 288.26,18.85 288.54,18.85 288.82,18.85 289.09,18.40 289.37,18.40 289.65,18.40 289.92,19.32 290.20,22.13 290.47,22.13 290.75,22.77 291.03,22.77 291.30,22.77 291.58,22.53 291.86,22.53 292.13,22.53 292.41,21.57 292.68,21.57 292.96,25.05 293.24,25.05 293.51,24.50 293.79,24.50 294.07,24.50 294.34,23.23 294.62,23.23 294.89,23.23 295.17,25.36 295.45,25.36 295.72,25.36 296.00,24.98" />
</svg>