<svg width="300" height="60" xmlns="http://www.w3.org/2000/svg">
  <polyline fill="rgba(255,200,0,0.3)" stroke="#ffbb00" stroke-width="2" points="4.00,14.01 4.24,14.64 4.47,16.24 4.71,17.51 4.94,18.60 5.18,19.54 5.41,20.61 5.65,27.76 5.88,28.05 6.12,28.45 6.35,28.93 6.59,29.37 6.83,29.92 7.06,30.62 7.30,31.32 7.53,31.75 7.77,32.09 8.00,32.32 8.24,32.71 8.47,33.42 8.71,34.25 8.95,35.15 9.18,35.95 9.42,36.80 9.65,40.92 9.89,40.63 10.12,40.34 10.36,40.40 10.59,40.71 10.83,41.35 11.06,42.21 11.30,43.26 11.54,44.07 11.77,44.80 12.01,45.45 12.24,46.16 12.48,46.65 12.71,47.18 12.95,47.67 13.18,48.28 13.42,48.71 13.65,49.32 13.89,50.15 14.13,50.67 14.36,51.18 14.60,51.71 14.83,52.15 15.07,52.68 15.30,53.52 15.54,53.81 15.77,53.75 16.01,53.55 16.25,53.19 16.48,52.77 16.72,52.11 16.95,51.36 17.19,50.35 17.42,49.11 17.66,47.71 17.89,46.08 18.13,44.62 18.36,43.45 18.60,42.51 18.84,41.50 19.07,40.50 19.31,39.54 19.54,38.68 19.78,37.82 20.01,37.04 20.25,36.48 20.48,35.90 20.72,35.34 20.95,34.70 21.19,33.98 21.43,33.24 21.66,32.39 21.90,31.34 22.13,30.35 22.37,29.30 22.60,28.60 22.84,28.44 23.07,28.56 23.31,29.38 23.55,30.19 23.78,31.55 24.02,32.52 24.25,33.25 24.49,33.86 24.72,34.21 24.96,34.19 25.19,34.12 25.43,33.88 25.66,33.70 25.90,33.59 26.14,33.34 26.37,32.96 26.61,32.52 26.84,32.03 27.08,31.55 27.31,31.19 27.55,31.01 27.78,30.82 28.02,30.91 28.25,31.12 28.49,31.64 28.73,32.10 28.96,32.61 29.20,33.10 29.43,33.62 29.67,34.23 29.90,34.85 30.14,35.65 30.37,36.55 30.61,37.09 30.85,37.53 31.08,38.08 31.32,38.69 31.55,39.49 31.79,40.16 32.02,40.80 32.26,41.60 32.49,42.48 32.73,43.21 32.96,43.76 33.20,44.08 33.44,43.97 33.67,43.38 33.91,42.55 34.14,41.93 34.38,41.42 34.61,41.04 34.85,40.75 35.08,40.29 35.32,39.69 35.55,39.34 35.79,39.49 36.03,39.96 36.26,40.80 36.50,41.80 36.73,42.84 36.97,43.88 37.20,45.00 37.44,45.99 37.67,46.95 37.91,47.99 38.15,49.22 38.38,50.65 38.62,52.04 38.85,53.10 39.09,53.94 39.32,54.38 39.56,54.60 39.79,54.59 40.03,54.35 40.26,53.75 40.50,52.80 40.74,51.85 40.97,50.75 41.21,49.71 41.44,49.04 41.68,48.15 41.91,47.24 42.15,46.42 42.38,45.45 42.62,44.49 42.85,43.48 43.09,42.49 43.33,41.61 43.56,40.75 43.80,39.87 44.03,39.07 44.27,38.23 44.50,37.29 44.74,36.65 44.97,35.63 45.21,34.83 45.45,34.40 45.68,33.70 45.92,32.87 46.15,31.80 46.39,30.56 46.62,29.04 46.86,27.76 47.09,26.66 47.33,25.67 47.56,24.89 47.80,24.11 48.04,23.31 48.27,22.57 48.51,21.86 48.74,21.27 48.98,20.72 49.21,20.35 49.45,20.32 49.68,20.64 49.92,21.33 50.15,22.23 50.39,23.08 50.63,23.86 50.86,24.68 51.10,25.62 51.33,26.49 51.57,27.61 51.80,28.65 52.04,29.67 52.27,30.66 52.51,31.62 52.75,32.71 52.98,33.55 53.22,34.41 53.45,35.17 53.69,35.92 53.92,36.68 54.16,37.69 54.39,38.64 54.63,39.57 54.86,40.53 55.10,41.51 55.34,42.38 55.57,43.37 55.81,44.37 56.04,45.37 56.28,46.29 56.51,47.17 56.75,47.85 56.98,48.37 57.22,48.79 57.45,48.95 57.69,48.51 57.93,47.65 58.16,46.39 58.40,44.84 58.63,43.58 58.87,42.27 59.10,41.26 59.34,40.20 59.57,39.12 59.81,38.01 60.05,36.80 60.28,35.64 60.52,34.84 60.75,34.19 60.99,33.57 61.22,32.75 61.46,32.10 61.69,31.11 61.93,30.10 62.16,29.00 62.40,28.00 62.64,26.85 62.87,25.67 63.11,24.40 63.34,23.25 63.58,21.85 63.81,20.74 64.05,19.83 64.28,19.13 64.52,18.46 64.75,17.90 64.99,17.56 65.23,17.37 65.46,17.05 65.70,16.33 65.93,15.23 66.17,14.26 66.40,13.39 66.64,12.50 66.87,11.47 67.11,10.46 67.35,9.68 67.58,9.36 67.82,9.37 68.05,9.54 68.29,10.03 68.52,10.55 68.76,11.22 68.99,11.79 69.23,12.59 69.46,13.55 69.70,14.41 69.94,15.04 70.17,15.41 70.41,16.00 70.64,16.60 70.88,17.22 71.11,14.04 71.35,14.64 71.58,16.25 71.82,17.52 72.05,18.62 72.29,19.54 72.53,20.61 72.76,21.71 73.00,22.90 73.23,24.04 73.47,25.09 73.70,25.47 73.94,25.62 74.17,25.95 74.41,26.32 74.65,26.58 74.88,27.06 75.12,27.51 75.35,27.68 75.59,27.64 75.82,27.54 76.06,27.47 76.29,27.45 76.53,27.56 76.76,27.76 77.00,28.07 77.24,35.95 77.47,36.80 77.71,37.74 77.94,38.80 78.18,39.80 78.41,41.49 78.65,41.06 78.88,40.93 79.12,40.64 79.35,14.05 79.59,14.88 79.83,15.98 80.06,17.58 80.30,18.54 80.53,19.76 80.77,20.20 81.00,21.14 81.24,22.33 81.47,24.13 81.71,25.32 81.95,25.60 82.18,25.76 82.42,26.03 82.65,26.39 82.89,26.70 83.12,27.64 83.36,27.75 83.59,27.96 83.83,27.88 84.06,28.05 84.30,27.63 84.54,27.59 84.77,27.73 85.01,27.98 85.24,28.20 85.48,29.19 85.71,29.16 85.95,30.00 86.18,29.99 86.42,30.76 86.65,31.23 86.89,32.01 87.13,32.20 87.36,32.48 87.60,32.91 87.83,33.27 88.07,33.93 88.30,34.30 88.54,35.62 88.77,36.54 89.01,37.50 89.25,38.61 89.48,39.88 89.72,40.88 89.95,41.13 90.19,40.99 90.42,40.68 90.66,40.43 90.89,40.49 91.13,40.78 91.36,41.39 91.60,42.41 91.84,43.20 92.07,44.17 92.31,44.77 92.54,45.08 92.78,46.29 93.01,46.35 93.25,47.04 93.48,47.73 93.72,49.15 93.95,49.42 94.19,49.34 94.43,50.88 94.66,50.73 94.90,51.26 95.13,51.71 95.37,52.35 95.60,52.86 95.84,53.36 96.07,53.80 96.31,53.91 96.55,53.88 96.78,53.43 97.02,53.37 97.25,52.10 97.49,51.24 97.72,50.33 97.96,49.09 98.19,47.85 98.43,46.42 98.66,44.48 98.90,43.59 99.14,42.76 99.37,41.63 99.61,40.19 99.84,39.58 100.08,39.28 100.31,38.16 100.55,37.59 100.78,36.82 101.02,35.84 101.25,35.51 101.49,35.15 101.73,34.00 101.96,33.34 102.20,32.43 102.43,31.34 102.67,29.99 102.90,28.94 103.14,28.71 103.37,28.51 103.61,28.73 103.85,29.45 104.08,30.40 104.32,31.56 104.55,32.74 104.79,33.68 105.02,33.98 105.26,34.24 105.49,34.29 105.73,34.31 105.96,34.00 106.20,33.66 106.44,33.74 106.67,34.56 106.91,33.38 107.14,32.75 107.38,32.11 107.61,32.29 107.85,31.27 108.08,30.93 108.32,30.91 108.55,31.05 108.79,31.33 109.03,31.69 109.26,32.57 109.50,32.85 109.73,33.19 109.97,33.71 110.20,34.25 110.44,34.81 110.67,35.75 110.91,37.49 111.15,37.20 111.38,37.59 111.62,38.20 111.85,38.52 112.09,39.65 112.32,40.37 112.56,41.03 112.79,41.83 113.03,43.13 113.26,43.94 113.50,44.10 113.74,44.76 113.97,44.76 114.21,44.32 114.44,43.02 114.68,41.90 114.91,41.40 115.15,41.11 115.38,41.56 115.62,40.57 115.85,39.82 116.09,39.52 116.33,39.69 116.56,40.08 116.80,40.88 117.03,42.07 117.27,43.21 117.50,43.96 117.74,45.84 117.97,46.73 118.21,47.93 118.45,48.70 118.68,49.33 118.92,51.30 119.15,52.84 119.39,53.31 119.62,54.09 119.86,54.56 120.09,54.84 120.33,55.07 120.56,54.46 120.80,53.66 121.04,52.96 121.27,52.49 121.51,50.91 121.74,49.75 121.98,49.09 122.21,48.24 122.45,47.43 122.68,46.62 122.92,45.77 123.15,44.80 123.39,43.77 123.63,42.72 123.86,41.84 124.10,40.99 124.33,39.97 124.57,39.14 124.80,39.41 125.04,37.86 125.27,37.53 125.51,36.11 125.75,35.18 125.98,35.35 126.22,34.11 126.45,33.19 126.69,31.92 126.92,30.29 127.16,28.84 127.39,27.79 127.63,26.48 127.86,25.67 128.10,24.90 128.34,24.00 128.57,23.64 128.81,22.49 129.04,22.10 129.28,21.24 129.51,20.75 129.75,20.45 129.98,20.52 130.22,20.79 130.45,21.37 130.69,22.77 130.93,23.79 131.16,23.98 131.40,24.83 131.63,25.61 131.87,26.50 132.10,27.63 132.34,29.04 132.57,30.09 132.81,30.75 133.05,31.71 133.28,32.89 133.52,33.94 133.75,34.78 133.99,35.77 134.22,35.95 134.46,36.75 134.69,37.76 134.93,38.73 135.16,39.55 135.40,40.51 135.64,41.80 135.87,42.41 136.11,43.50 136.34,44.42 136.58,45.44 136.81,46.15 137.05,47.11 137.28,47.91 137.52,48.57 137.75,49.31 137.99,49.06 138.23,49.40 138.46,47.80 138.70,46.39 138.93,44.92 139.17,43.68 139.40,42.32 139.64,41.07 139.87,40.83 140.11,39.83 140.35,38.28 140.58,36.54 140.82,35.66 141.05,34.94 141.29,34.28 141.52,34.00 141.76,33.33 141.99,32.63 142.23,31.66 142.46,30.83 142.70,29.88 142.94,28.86 143.17,27.09 143.41,26.05 143.64,24.31 143.88,23.59 144.11,22.28 144.35,20.70 144.58,19.82 144.82,19.11 145.05,18.25 145.29,17.73 145.53,17.59 145.76,17.34 146.00,17.40 146.23,16.46 146.47,15.25 146.70,14.22 146.94,13.10 147.17,12.35 147.41,11.47 147.65,10.26 147.88,9.25 148.12,9.31 148.35,9.36 148.59,9.97 148.82,10.21 149.06,10.73 149.29,11.31 149.53,11.97 149.76,12.47 150.00,13.58 150.24,14.66 150.47,15.00 150.71,15.55 150.94,15.95 151.18,16.61 151.41,17.49 151.65,14.43 151.88,14.95 152.12,16.67 152.35,17.74 152.59,18.99 152.83,20.74 153.06,20.85 153.30,19.28 153.53,22.40 153.77,27.04 154.00,26.60 154.24,25.55 154.47,26.43 154.71,25.11 154.95,25.82 155.18,27.04 155.42,28.17 155.65,28.39 155.89,27.87 156.12,27.87 156.36,26.60 156.59,24.58 156.83,27.01 157.06,25.66 157.30,27.95 157.54,28.34 157.77,28.95 158.01,27.51 158.24,30.08 158.48,30.25 158.71,32.13 158.95,32.42 159.18,33.43 159.42,32.27 159.65,31.74 159.89,32.63 160.13,33.76 160.36,32.88 160.60,34.81 160.83,37.46 161.07,34.65 161.30,39.54 161.54,39.37 161.77,41.06 162.01,41.86 162.25,43.18 162.48,41.88 162.72,38.35 162.95,39.37 163.19,40.47 163.42,39.59 163.66,42.52 163.89,42.65 164.13,42.27 164.36,42.38 164.60,43.65 164.84,45.39 165.07,46.86 165.31,47.89 165.54,48.80 165.78,49.35 166.01,48.69 166.25,48.69 166.48,49.79 166.72,51.17 166.95,50.54 167.19,48.74 167.43,50.18 167.66,51.81 167.90,53.11 168.13,54.22 168.37,54.77 168.60,55.05 168.84,54.00 169.07,52.06 169.31,53.22 169.55,52.03 169.78,50.54 170.02,48.99 170.25,47.88 170.49,47.28 170.72,46.39 170.96,43.60 171.19,43.26 171.43,42.46 171.66,41.22 171.90,39.83 172.14,38.01 172.37,38.67 172.61,37.87 172.84,35.64 173.08,36.89 173.31,36.25 173.55,33.88 173.78,33.93 174.02,32.66 174.25,32.66 174.49,32.27 174.73,32.35 174.96,28.92 175.20,26.32 175.43,28.42 175.67,28.31 175.90,28.23 176.14,29.11 176.37,29.69 176.61,30.61 176.85,33.33 177.08,32.97 177.32,34.74 177.55,34.49 177.79,34.41 178.02,32.50 178.26,33.44 178.49,32.86 178.73,33.25 178.96,33.85 179.20,32.49 179.44,33.35 179.67,31.61 179.91,32.33 180.14,30.53 180.38,30.72 180.61,29.98 180.85,30.94 181.08,31.50 181.32,32.08 181.55,32.83 181.79,33.13 182.03,33.41 182.26,33.99 182.50,35.48 182.73,34.45 182.97,37.10 183.20,39.61 183.44,37.90 183.67,37.87 183.91,37.32 184.15,38.26 184.38,36.90 184.62,41.29 184.85,42.73 185.09,42.73 185.32,44.06 185.56,44.88 185.79,44.47 186.03,45.27 186.26,44.19 186.50,43.34 186.74,41.68 186.97,39.14 187.21,40.68 187.44,38.72 187.68,41.71 187.91,40.33 188.15,38.64 188.38,40.05 188.62,39.28 188.85,39.28 189.09,39.72 189.33,41.64 189.56,42.20 189.80,43.33 190.03,46.70 190.27,46.54 190.50,49.92 190.74,49.20 190.97,50.56 191.21,52.60 191.45,54.01 191.68,54.26 191.92,55.70 192.15,56.00 192.39,55.45 192.62,55.06 192.86,54.98 193.09,55.17 193.33,54.15 193.56,52.99 193.80,49.53 194.04,49.09 194.27,49.20 194.51,47.71 194.74,46.46 194.98,46.46 195.21,45.05 195.45,43.20 195.68,43.75 195.92,42.26 196.15,40.35 196.39,40.35 196.63,37.93 196.86,35.52 197.10,37.79 197.33,37.04 197.57,36.46 197.80,33.98 198.04,35.69 198.27,34.64 198.51,34.41 198.75,33.31 198.98,31.65 199.22,29.41 199.45,26.76 199.69,27.92 199.92,24.26 200.16,25.58 200.39,25.14 200.63,21.85 200.86,21.83 201.10,22.24 201.34,20.20 201.57,20.89 201.81,19.81 202.04,19.20 202.28,20.39 202.51,20.89 202.75,20.01 202.98,22.13 203.22,23.43 203.45,24.09 203.69,24.92 203.93,24.92 204.16,26.11 204.40,27.69 204.63,29.43 204.87,29.43 205.10,31.11 205.34,30.60 205.57,32.65 205.81,34.39 206.05,33.94 206.28,35.82 206.52,35.43 206.75,37.23 206.99,38.06 207.22,39.05 207.46,40.00 207.69,40.83 207.93,41.47 208.16,41.80 208.40,44.29 208.64,44.76 208.87,44.87 209.11,44.82 209.34,47.40 209.58,47.51 209.81,48.95 210.05,48.95 210.28,49.89 210.52,48.75 210.75,47.87 210.99,45.74 211.23,44.69 211.46,42.32 211.70,41.91 211.93,38.82 212.17,39.04 212.40,38.98 212.64,38.54 212.87,35.64 213.11,35.64 213.35,35.47 213.58,34.89 213.82,33.82 214.05,32.41 214.29,33.59 214.52,31.88 214.76,30.16 214.99,28.51 215.23,28.59 215.46,26.93 215.70,25.22 215.94,23.04 216.17,22.15 216.41,22.15 216.64,19.59 216.88,19.17 217.11,16.22 217.35,18.18 217.58,17.43 217.82,16.14 218.05,15.67 218.29,16.08 218.53,16.47 218.76,14.53 219.00,11.47 219.23,10.70 219.47,12.82 219.70,11.15 219.94,8.17 220.17,9.14 220.41,6.68 220.65,7.23 220.88,8.31 221.12,9.41 221.35,10.42 221.59,10.92 221.82,12.05 222.06,12.46 222.29,13.24 222.53,14.34 222.76,15.33 223.00,15.63 223.24,15.63 223.47,16.41 223.71,17.68 223.94,14.85 224.18,13.55 224.41,13.55 224.65,13.55 224.88,19.38 225.12,19.38 225.35,19.38 225.59,19.38 225.83,27.67 226.06,27.67 226.30,27.67 226.53,18.99 226.77,18.99 227.00,25.04 227.24,25.04 227.47,25.04 227.71,25.12 227.95,25.12 228.18,25.12 228.42,25.12 228.65,17.44 228.89,17.44 229.12,17.44 229.36,24.99 229.59,24.99 229.83,19.52 230.06,28.66 230.30,28.66 230.54,28.66 230.77,32.03 231.01,32.03 231.24,32.03 231.48,30.15 231.71,30.15 231.95,30.15 232.18,37.36 232.42,37.36 232.65,37.36 232.89,28.32 233.13,41.39 233.36,41.39 233.60,41.39 233.83,30.27 234.07,34.78 234.30,34.78 234.54,34.78 234.77,41.50 235.01,29.10 235.25,33.27 235.48,33.27 235.72,33.27 235.95,33.27 236.19,28.32 236.42,28.32 236.66,28.32 236.89,32.22 237.13,32.22 237.36,32.22 237.60,39.29 237.84,39.29 238.07,39.29 238.31,37.36 238.54,37.36 238.78,48.74 239.01,48.74 239.25,44.65 239.48,45.59 239.72,45.59 239.95,45.59 240.19,52.66 240.43,52.66 240.66,52.66 240.90,54.15 241.13,54.15 241.37,51.61 241.60,51.61 241.84,51.61 242.07,47.47 242.31,47.47 242.55,47.47 242.78,43.82 243.02,43.82 243.25,43.41 243.49,43.41 243.72,36.53 243.96,36.53 244.19,36.53 244.43,31.17 244.66,31.17 244.90,37.75 245.14,29.32 245.37,29.32 245.61,29.32 245.84,29.32 246.08,28.80 246.31,28.80 246.55,28.80 246.78,28.80 247.02,31.92 247.25,31.92 247.49,27.11 247.73,27.11 247.96,27.11 248.20,28.77 248.43,28.77 248.67,28.77 248.90,29.98 249.14,29.98 249.37,29.98 249.61,31.28 249.85,31.28 250.08,31.28 250.32,31.28 250.55,32.89 250.79,27.36 251.02,27.36 251.26,31.56 251.49,31.56 251.73,31.56 251.96,25.87 252.20,25.87 252.44,25.87 252.67,28.91 252.91,28.91 253.14,28.91 253.38,32.78 253.61,32.78 253.85,32.78 254.08,34.72 254.32,34.72 254.55,34.72 254.79,43.36 255.03,38.44 255.26,38.44 255.50,38.44 255.73,32.73 255.97,29.88 256.20,29.88 256.44,37.70 256.67,40.07 256.91,40.07 257.15,40.07 257.38,40.07 257.62,43.33 257.85,43.33 258.09,43.33 258.32,41.93 258.56,41.01 258.79,41.01 259.03,41.01 259.26,35.07 259.50,35.07 259.74,35.07 259.97,45.99 260.21,38.61 260.44,38.61 260.68,44.91 260.91,44.91 261.15,44.91 261.38,35.13 261.62,42.81 261.85,42.81 262.09,43.33 262.33,43.33 262.56,46.92 262.80,46.92 263.03,46.92 263.27,46.92 263.50,52.12 263.74,52.12 263.97,52.12 264.21,55.60 264.45,55.60 264.68,55.57 264.92,55.57 265.15,55.57 265.39,53.83 265.62,53.83 265.86,53.83 266.09,49.35 266.33,49.35 266.56,44.52 266.80,44.52 267.04,44.52 267.27,44.52 267.51,38.37 267.74,38.37 267.98,38.37 268.21,41.68 268.45,30.83 268.68,30.83 268.92,30.83 269.15,35.55 269.39,35.55 269.63,24.89 269.86,33.15 270.10,33.15 270.33,33.15 270.57,25.25 270.80,30.72 271.04,30.72 271.27,30.72 271.51,29.15 271.75,29.15 271.98,29.15 272.22,22.74 272.45,22.74 272.69,22.74 272.92,19.42 273.16,19.42 273.39,19.42 273.63,19.64 273.86,19.64 274.10,13.07 274.34,17.16 274.57,17.16 274.81,17.16 275.04,12.60 275.28,19.33 275.51,19.33 275.75,19.33 275.98,22.04 276.22,22.04 276.45,22.04 276.69,22.04 276.93,27.62 277.16,27.62 277.40,27.62 277.63,27.62 277.87,25.82 278.10,33.89 278.34,33.89 278.57,33.89 278.81,33.28 279.05,33.28 279.28,33.28 279.52,34.75 279.75,34.75 279.99,34.75 280.22,35.02 280.46,35.02 280.69,44.00 280.93,44.69 281.16,44.69 281.40,44.69 281.64,46.49 281.87,46.49 282.11,46.49 282.34,46.49 282.58,47.62 282.81,47.62 283.05,47.62 283.28,42.65 283.52,41.27 283.75,41.27 283.99,41.27 284.23,38.97 284.46,38.97 284.70,38.97 284.93,38.23 285.17,30.91 285.40,30.91 285.64,34.84 285.87,34.84 286.11,30.51 286.35,30.51 286.58,30.51 286.82,25.07 287.05,25.07 287.29,25.07 287.52,18.19 287.76,18.19 287.99,18.19 288.23,7.56 288.46,17.89 288.70,17.89 288.94,17.89 289.17,16.32 289.41,16.32 289.64,16.32 289.88,21.15 290.11,16.37 290.35,16.37 290.58,16.37 290.82,15.43 291.05,15.43 291.29,11.18 291.53,11.18 291.76,11.18 292.00,11.18 292.23,4.80 292.47,10.76 292.70,4.00 292.94,4.00 293.17,4.00 293.41,7.95 293.65,7.95 293.88,12.59 294.12,12.59 294.35,12.59 294.59,13.83 294.82,14.30 295.06,14.30 295.29,16.98 295.53,16.98 295.76,16.98 296.00,18.57" />
</svg>