<svg width="300" height="60" xmlns="http://www.w3.org/2000/svg">
  <polyline fill="rgba(255,200,0,0.3)" stroke="#ffbb00" stroke-width="2" points="4.00,12.91 4.06,12.77 4.12,12.65 4.19,12.41 4.25,12.36 4.31,12.55 4.37,12.87 4.44,13.23 4.50,13.55 4.56,13.83 4.62,14.04 4.69,14.24 4.75,14.49 4.81,14.76 4.87,14.99 4.94,15.14 5.00,15.25 5.06,15.40 5.12,15.90 5.19,16.04 5.25,15.80 5.31,15.46 5.37,15.33 5.44,15.27 5.50,15.20 5.56,15.10 5.62,15.01 5.69,14.92 5.75,14.83 5.81,14.74 5.87,14.66 5.94,14.60 6.00,14.54 6.06,14.41 6.12,14.26 6.18,13.97 6.25,13.50 6.31,13.54 6.37,13.58 6.43,13.60 6.50,13.19 6.56,12.90 6.62,13.21 6.68,13.31 6.75,13.46 6.81,13.65 6.87,13.82 6.93,13.81 7.00,13.84 7.06,13.73 7.12,13.51 7.18,13.24 7.25,13.32 7.31,13.09 7.37,13.55 7.43,13.83 7.50,13.93 7.56,13.97 7.62,14.01 7.68,14.05 7.75,14.04 7.81,13.99 7.87,13.96 7.93,13.77 7.99,13.52 8.06,13.26 8.12,12.99 8.18,12.81 8.24,12.51 8.31,12.01 8.37,11.62 8.43,11.43 8.49,11.54 8.56,11.35 8.62,11.29 8.68,10.97 8.74,10.61 8.81,10.27 8.87,10.01 8.93,9.59 8.99,9.31 9.06,8.95 9.12,8.64 9.18,8.51 9.24,8.17 9.31,7.79 9.37,7.37 9.43,7.05 9.49,6.83 9.56,6.42 9.62,6.22 9.68,6.41 9.74,6.68 9.81,6.65 9.87,6.63 9.93,6.06 9.99,5.89 10.05,5.72 10.12,5.57 10.18,5.48 10.24,5.40 10.30,5.05 10.37,5.03 10.43,5.35 10.49,5.61 10.55,6.07 10.62,6.19 10.68,6.35 10.74,6.53 10.80,6.67 10.87,6.81 10.93,6.81 10.99,7.02 11.05,7.15 11.12,7.25 11.18,6.84 11.24,6.99 11.30,7.19 11.37,7.41 11.43,7.54 11.49,7.85 11.55,8.13 11.62,8.24 11.68,8.39 11.74,8.51 11.80,8.61 11.86,8.71 11.93,8.82 11.99,8.94 12.05,9.05 12.11,9.18 12.18,9.30 12.24,9.47 12.30,9.61 12.36,9.82 12.43,9.98 12.49,10.12 12.55,10.26 12.61,10.39 12.68,10.51 12.74,10.62 12.80,10.78 12.86,10.91 12.93,11.05 12.99,11.14 13.05,11.11 13.11,11.06 13.18,11.28 13.24,11.58 13.30,11.72 13.36,11.85 13.43,12.03 13.49,12.16 13.55,12.29 13.61,12.41 13.68,12.54 13.74,12.68 13.80,12.80 13.86,12.94 13.92,13.31 13.99,13.63 14.05,13.45 14.11,13.38 14.17,13.49 14.24,13.69 14.30,13.90 14.36,14.06 14.42,14.22 14.49,14.40 14.55,14.55 14.61,14.67 14.67,14.80 14.74,14.92 14.80,15.07 14.86,15.21 14.92,15.33 14.99,15.44 15.05,15.54 15.11,15.64 15.17,15.77 15.24,15.88 15.30,15.98 15.36,16.07 15.42,16.19 15.49,16.34 15.55,16.47 15.61,16.57 15.67,16.70 15.73,16.79 15.80,16.85 15.86,16.93 15.92,17.05 15.98,17.13 16.05,17.22 16.11,17.30 16.17,17.37 16.23,17.49 16.30,17.55 16.36,17.61 16.42,17.69 16.48,17.81 16.55,17.73 16.61,17.75 16.67,17.82 16.73,17.89 16.80,17.85 16.86,18.08 16.92,18.34 16.98,18.00 17.05,18.00 17.11,18.07 17.17,18.15 17.23,18.24 17.30,18.31 17.36,18.43 17.42,18.57 17.48,18.72 17.55,18.84 17.61,18.96 17.67,19.08 17.73,19.13 17.79,19.22 17.86,19.34 17.92,19.45 17.98,19.59 18.04,19.70 18.11,19.83 18.17,19.96 18.23,20.13 18.29,20.28 18.36,20.42 18.42,20.65 18.48,20.88 18.54,21.03 18.61,21.37 18.67,21.59 18.73,21.77 18.79,21.90 18.86,22.01 18.92,22.11 18.98,22.20 19.04,21.99 19.11,22.07 19.17,22.24 19.23,22.29 19.29,22.29 19.36,22.53 19.42,22.65 19.48,22.68 19.54,22.73 19.60,22.81 19.67,23.03 19.73,22.99 19.79,23.00 19.85,22.99 19.92,23.05 19.98,23.09 20.04,23.16 20.10,23.23 20.17,23.32 20.23,23.39 20.29,23.43 20.35,23.49 20.42,23.56 20.48,23.67 20.54,23.87 20.60,24.04 20.67,24.23 20.73,24.08 20.79,23.91 20.85,23.89 20.92,23.86 20.98,23.85 21.04,23.83 21.10,23.77 21.17,23.66 21.23,23.64 21.29,35.21 21.35,35.28 21.42,35.38 21.48,35.51 21.54,35.53 21.60,35.51 21.66,35.44 21.73,46.63 21.79,47.00 21.85,47.03 21.91,46.89 21.98,46.89 22.04,46.90 22.10,46.98 22.16,47.14 22.23,47.25 22.29,47.37 22.35,47.57 22.41,47.60 22.48,47.42 22.54,47.42 22.60,47.43 22.66,47.41 22.73,47.39 22.79,47.36 22.85,46.64 22.91,46.22 22.98,45.77 23.04,45.58 23.10,45.96 23.16,46.35 23.23,46.91 23.29,47.43 23.35,47.52 23.41,47.62 23.47,47.73 23.54,47.87 23.60,48.03 23.66,48.18 23.72,48.32 23.79,48.47 23.85,48.64 23.91,48.80 23.97,48.90 24.04,48.51 24.10,48.23 24.16,48.09 24.22,48.12 24.29,48.10 24.35,48.18 24.41,48.44 24.47,48.55 24.54,48.56 24.60,48.62 24.66,48.74 24.72,49.08 24.79,49.62 24.85,50.19 24.91,50.08 24.97,50.83 25.04,51.09 25.10,51.38 25.16,51.53 25.22,51.65 25.29,51.74 25.35,51.83 25.41,51.89 25.47,51.94 25.53,51.96 25.60,52.00 25.66,51.97 25.72,51.96 25.78,51.91 25.85,52.02 25.91,52.04 25.97,52.11 26.03,52.22 26.10,52.29 26.16,52.36 26.22,52.45 26.28,52.50 26.35,52.47 26.41,52.07 26.47,51.48 26.53,50.86 26.60,50.56 26.66,50.50 26.72,50.79 26.78,51.10 26.85,51.37 26.91,51.57 26.97,52.23 27.03,52.46 27.10,52.42 27.16,52.38 27.22,52.37 27.28,52.20 27.35,52.11 27.41,52.05 27.47,52.01 27.53,51.96 27.59,51.78 27.66,51.86 27.72,51.92 27.78,51.99 27.84,52.09 27.91,52.17 27.97,51.85 28.03,51.09 28.09,51.11 28.16,52.03 28.22,52.53 28.28,52.20 28.34,52.45 28.41,52.41 28.47,52.31 28.53,52.18 28.59,52.07 28.66,51.95 28.72,51.83 28.78,51.71 28.84,51.78 28.91,51.75 28.97,51.68 29.03,51.68 29.09,51.65 29.16,51.69 29.22,51.91 29.28,51.55 29.34,51.47 29.40,51.45 29.47,51.44 29.53,51.44 29.59,51.39 29.65,51.34 29.72,51.24 29.78,51.22 29.84,50.78 29.90,50.18 29.97,49.59 30.03,48.89 30.09,48.49 30.15,48.19 30.22,48.28 30.28,48.31 30.34,48.49 30.40,48.88 30.47,49.13 30.53,49.21 30.59,49.17 30.65,49.04 30.72,49.29 30.78,49.55 30.84,49.78 30.90,49.83 30.97,50.37 31.03,51.35 31.09,51.41 31.15,50.62 31.22,50.57 31.28,50.92 31.34,50.65 31.40,50.57 31.46,50.81 31.53,51.45 31.59,51.54 31.65,51.42 31.71,51.30 31.78,51.25 31.84,51.15 31.90,51.06 31.96,51.00 32.03,50.99 32.09,51.18 32.15,51.31 32.21,51.23 32.28,51.24 32.34,12.92 32.40,12.77 32.46,12.66 32.53,12.45 32.59,12.39 32.65,12.54 32.71,12.89 32.78,13.20 32.84,13.53 32.90,13.81 32.96,14.03 33.03,14.26 33.09,14.47 33.15,14.75 33.21,14.98 33.27,15.15 33.34,15.24 33.40,15.39 33.46,15.92 33.52,15.92 33.59,15.75 33.65,15.49 33.71,15.33 33.77,15.27 33.84,15.19 33.90,15.10 33.96,15.01 34.02,14.92 34.09,14.84 34.15,14.74 34.21,14.66 34.27,14.59 34.34,14.53 34.40,14.41 34.46,14.25 34.52,13.97 34.59,13.40 34.65,13.50 34.71,13.60 34.77,13.57 34.84,13.21 34.90,13.01 34.96,13.17 35.02,13.17 35.09,13.37 35.15,13.64 35.21,13.78 35.27,13.81 35.33,13.77 35.40,13.64 35.46,13.57 35.52,13.39 35.58,13.31 35.65,13.18 35.71,13.49 35.77,13.87 35.83,13.94 35.90,13.97 35.96,14.02 36.02,14.05 36.08,14.04 36.15,13.99 36.21,13.96 36.27,13.77 36.33,13.53 36.40,13.26 36.46,13.00 36.52,12.82 36.58,12.47 36.65,12.02 36.71,11.55 36.77,11.46 36.83,11.47 36.90,11.42 36.96,11.23 37.02,10.87 37.08,10.68 37.14,10.32 37.21,9.98 37.27,9.55 37.33,9.31 37.39,8.94 37.46,8.70 37.52,8.47 37.58,8.15 37.64,7.74 37.71,7.37 37.77,7.06 37.83,6.79 37.89,6.39 37.96,6.19 38.02,6.41 38.08,6.66 38.14,6.61 38.21,6.53 38.27,6.03 38.33,5.76 38.39,5.74 38.46,5.64 38.52,5.46 38.58,5.24 38.64,4.97 38.71,5.02 38.77,5.43 38.83,5.70 38.89,6.06 38.96,6.19 39.02,6.36 39.08,6.53 39.14,6.67 39.20,6.82 39.27,6.85 39.33,7.02 39.39,7.13 39.45,7.15 39.52,7.04 39.58,6.96 39.64,7.14 39.70,7.44 39.77,7.66 39.83,7.86 39.89,8.13 39.95,8.25 40.02,8.39 40.08,8.51 40.14,8.61 40.20,8.72 40.27,8.82 40.33,8.94 40.39,9.05 40.45,9.17 40.52,9.30 40.58,9.47 40.64,9.62 40.70,9.81 40.77,9.98 40.83,10.12 40.89,10.27 40.95,10.39 41.01,10.51 41.08,10.62 41.14,10.78 41.20,10.91 41.26,11.05 41.33,11.13 41.39,10.98 41.45,11.06 41.51,11.35 41.58,11.59 41.64,11.76 41.70,11.86 41.76,12.02 41.83,12.16 41.89,12.28 41.95,12.41 42.01,12.53 42.08,12.68 42.14,12.80 42.20,12.94 42.26,13.27 42.33,13.73 42.39,13.44 42.45,13.37 42.51,13.49 42.58,13.67 42.64,13.89 42.70,14.06 42.76,14.23 42.83,14.40 42.89,14.55 42.95,14.67 43.01,14.79 43.07,14.93 43.14,15.07 43.20,15.21 43.26,15.33 43.32,15.43 43.39,15.53 43.45,15.64 43.51,15.77 43.57,15.88 43.64,15.99 43.70,16.07 43.76,16.19 43.82,16.34 43.89,16.47 43.95,16.58 44.01,16.69 44.07,16.77 44.14,16.85 44.20,16.94 44.26,17.04 44.32,17.14 44.39,17.22 44.45,17.29 44.51,17.36 44.57,17.47 44.64,17.60 44.70,17.63 44.76,17.79 44.82,17.81 44.88,17.72 44.95,17.76 45.01,17.84 45.07,17.85 45.13,17.92 45.20,18.06 45.26,18.35 45.32,17.98 45.38,18.01 45.45,18.07 45.51,18.16 45.57,18.24 45.63,18.32 45.70,18.43 45.76,18.56 45.82,18.73 45.88,18.85 45.95,18.97 46.01,19.06 46.07,19.13 46.13,19.22 46.20,19.35 46.26,19.46 46.32,19.58 46.38,19.70 46.45,19.84 46.51,19.97 46.57,20.13 46.63,20.28 46.70,20.44 46.76,20.64 46.82,20.89 46.88,21.04 46.94,21.37 47.01,21.60 47.07,21.80 47.13,21.90 47.19,22.01 47.26,22.11 47.32,22.19 47.38,21.99 47.44,22.06 47.51,22.22 47.57,22.26 47.63,22.32 47.69,22.52 47.76,22.63 47.82,22.69 47.88,22.73 47.94,22.84 48.01,23.04 48.07,22.97 48.13,22.97 48.19,23.03 48.26,23.06 48.32,23.09 48.38,23.16 48.44,23.23 48.51,23.32 48.57,23.38 48.63,23.43 48.69,23.48 48.76,23.56 48.82,23.72 48.88,23.89 48.94,24.03 49.00,24.26 49.07,24.06 49.13,23.92 49.19,23.89 49.25,23.87 49.32,23.84 49.38,23.83 49.44,23.77 49.50,23.70 49.57,23.65 49.63,23.58 49.69,35.37 49.75,35.51 49.82,35.52 49.88,47.14 49.94,47.24 50.00,47.38 50.07,47.68 50.13,47.58 50.19,47.41 50.25,47.42 50.32,47.43 50.38,47.41 50.44,47.38 50.50,47.37 50.57,46.65 50.63,46.08 50.69,45.88 50.75,45.52 50.81,45.81 50.88,46.30 50.94,47.05 51.00,47.42 51.06,47.52 51.13,47.62 51.19,47.73 51.25,47.86 51.31,48.02 51.38,48.19 51.44,48.32 51.50,48.47 51.56,48.63 51.63,48.80 51.69,48.86 51.75,48.51 51.81,48.23 51.88,48.11 51.94,48.08 52.00,48.06 52.06,48.15 52.13,48.42 52.19,48.55 52.25,48.59 52.31,48.60 52.38,48.79 52.44,49.07 52.50,49.63 52.56,50.15 52.63,50.09 52.69,50.71 52.75,51.12 52.81,51.37 52.87,51.54 52.94,51.65 53.00,51.74 53.06,51.83 53.12,51.88 53.19,51.93 53.25,51.97 53.31,51.96 53.37,51.97 53.44,51.97 53.50,51.92 53.56,52.02 53.62,52.04 53.69,52.10 53.75,52.20 53.81,52.29 53.87,52.37 53.94,52.45 54.00,52.48 54.06,52.47 54.12,51.99 54.19,51.49 54.25,50.93 54.31,50.60 54.37,50.57 54.44,50.79 54.50,51.14 54.56,51.36 54.62,51.68 54.68,52.23 54.75,52.45 54.81,52.42 54.87,52.38 54.93,52.39 55.00,52.20 55.06,52.09 55.12,52.07 55.18,52.01 55.25,51.98 55.31,51.70 55.37,51.91 55.43,51.85 55.50,52.01 55.56,52.10 55.62,52.16 55.68,51.73 55.75,51.07 55.81,51.14 55.87,52.00 55.93,52.49 56.00,52.26 56.06,52.43 56.12,52.41 56.18,52.31 56.25,52.19 56.31,52.07 56.37,51.97 56.43,51.84 56.50,51.76 56.56,51.77 56.62,51.75 56.68,51.71 56.74,51.68 56.81,51.65 56.87,51.68 56.93,51.79 56.99,51.52 57.06,51.47 57.12,51.45 57.18,51.44 57.24,51.43 57.31,51.39 57.37,51.33 57.43,51.25 57.49,51.18 57.56,50.92 57.62,50.22 57.68,49.57 57.74,48.93 57.81,48.35 57.87,48.19 57.93,48.32 57.99,48.25 58.06,48.34 58.12,48.70 58.18,49.12 58.24,49.35 58.31,49.17 58.37,50.65 58.43,50.89 58.49,50.71 58.55,23.64 58.62,23.48 58.68,23.40 58.74,23.49 58.80,23.44 58.87,23.34 58.93,23.32 58.99,23.22 59.05,23.01 59.12,22.93 59.18,22.71 59.24,23.03 59.30,23.35 59.37,23.41 59.43,23.50 59.49,23.61 59.55,23.71 59.62,23.68 59.68,22.85 59.74,22.29 59.80,22.66 59.87,24.21 59.93,24.39 59.99,24.75 60.05,24.76 60.12,24.80 60.18,24.90 60.24,25.01 60.30,25.08 60.37,25.13 60.43,25.15 60.49,25.14 60.55,25.20 60.61,25.68 60.68,25.91 60.74,25.88 60.80,26.17 60.86,26.61 60.93,26.83 60.99,27.44 61.05,27.69 61.11,27.57 61.18,26.59 61.24,25.25 61.30,24.09 61.36,23.87 61.43,23.78 61.49,23.66 61.55,23.57 61.61,23.52 61.68,23.56 61.74,23.68 61.80,23.79 61.86,23.90 61.93,24.03 61.99,24.16 62.05,23.57 62.11,23.74 62.18,24.65 62.24,24.90 62.30,25.12 62.36,25.36 62.42,24.71 62.49,24.51 62.55,25.28 62.61,26.04 62.67,26.20 62.74,26.36 62.80,26.49 62.86,26.74 62.92,26.96 62.99,27.09 63.05,27.28 63.11,27.50 63.17,27.70 63.24,27.86 63.30,28.00 63.36,28.17 63.42,28.34 63.49,28.50 63.55,28.72 63.61,28.95 63.67,29.14 63.74,29.37 63.80,29.49 63.86,29.63 63.92,29.88 63.99,30.01 64.05,30.26 64.11,30.37 64.17,30.52 64.24,30.68 64.30,30.93 64.36,31.21 64.42,31.62 64.48,31.84 64.55,31.85 64.61,31.73 64.67,31.79 64.73,31.91 64.80,32.05 64.86,32.21 64.92,32.54 64.98,32.89 65.05,32.77 65.11,32.72 65.17,32.71 65.23,32.76 65.30,32.53 65.36,32.23 65.42,32.48 65.48,32.79 65.55,33.29 65.61,33.87 65.67,34.34 65.73,34.69 65.80,34.88 65.86,34.74 65.92,34.69 65.98,34.55 66.05,34.76 66.11,35.22 66.17,35.44 66.23,35.37 66.29,35.29 66.36,35.24 66.42,35.20 66.48,35.16 66.54,35.14 66.61,35.11 66.67,35.08 66.73,35.06 66.79,35.02 66.86,34.97 66.92,34.93 66.98,34.92 67.04,34.91 67.11,34.90 67.17,34.92 67.23,34.97 67.29,35.01 67.36,35.05 67.42,35.08 67.48,35.12 67.54,35.17 67.61,35.17 67.67,35.15 67.73,35.12 67.79,35.10 67.86,35.06 67.92,35.05 67.98,35.06 68.04,35.06 68.11,35.07 68.17,34.34 68.23,33.77 68.29,33.45 68.35,34.02 68.42,34.82 68.48,35.37 68.54,35.55 68.60,35.70 68.67,35.84 68.73,35.97 68.79,36.16 68.85,36.14 68.92,35.78 68.98,36.12 69.04,36.91 69.10,37.02 69.17,37.16 69.23,37.23 69.29,37.26 69.35,37.33 69.42,37.23 69.48,36.71 69.54,36.54 69.60,37.02 69.67,37.41 69.73,37.44 69.79,37.57 69.85,37.64 69.92,37.67 69.98,37.67 70.04,37.67 70.10,37.63 70.17,37.58 70.23,37.54 70.29,37.52 70.35,37.50 70.41,37.43 70.48,37.44 70.54,37.68 70.60,37.76 70.66,37.93 70.73,37.68 70.79,37.63 70.85,37.64 70.91,37.69 70.98,37.77 71.04,37.86 71.10,38.00 71.16,38.14 71.23,38.24 71.29,38.33 71.35,38.45 71.41,38.54 71.48,38.67 71.54,38.84 71.60,38.98 71.66,39.08 71.73,39.18 71.79,39.33 71.85,39.45 71.91,39.56 71.98,39.68 72.04,39.82 72.10,39.99 72.16,40.19 72.22,40.29 72.29,40.33 72.35,40.41 72.41,40.48 72.47,40.55 72.54,40.63 72.60,40.78 72.66,40.96 72.72,41.13 72.79,41.26 72.85,41.30 72.91,41.45 72.97,41.58 73.04,41.72 73.10,41.83 73.16,41.87 73.22,41.92 73.29,41.95 73.35,41.26 73.41,41.29 73.47,41.58 73.54,41.76 73.60,41.95 73.66,42.28 73.72,42.64 73.79,42.87 73.85,42.82 73.91,42.92 73.97,42.84 74.04,42.85 74.10,42.89 74.16,42.60 74.22,42.31 74.28,41.83 74.35,41.92 74.41,41.83 74.47,41.81 74.53,42.09 74.60,42.39 74.66,43.23 74.72,43.66 74.78,43.93 74.85,44.32 74.91,44.15 74.97,44.20 75.03,44.43 75.10,44.96 75.16,45.00 75.22,45.43 75.28,45.33 75.35,45.10 75.41,45.21 75.47,44.90 75.53,44.66 75.60,44.50 75.66,44.03 75.72,43.49 75.78,43.67 75.85,44.42 75.91,44.59 75.97,44.48 76.03,44.33 76.09,44.25 76.16,44.16 76.22,44.11 76.28,44.00 76.34,43.93 76.41,43.90 76.47,43.91 76.53,43.88 76.59,44.19 76.66,43.91 76.72,43.04 76.78,42.84 76.84,43.72 76.91,44.76 76.97,44.85 77.03,44.73 77.09,44.43 77.16,44.19 77.22,44.17 77.28,44.00 77.34,44.33 77.41,44.79 77.47,45.60 77.53,46.42 77.59,46.60 77.66,47.01 77.72,46.65 77.78,46.36 77.84,45.98 77.91,45.78 77.97,45.78 78.03,46.26 78.09,46.80 78.15,46.80 78.22,46.79 78.28,46.60 78.34,46.51 78.40,46.20 78.47,46.22 78.53,46.04 78.59,46.02 78.65,45.82 78.72,45.70 78.78,45.48 78.84,45.30 78.90,45.04 78.97,44.56 79.03,44.42 79.09,44.43 79.15,44.63 79.22,44.84 79.28,45.06 79.34,45.80 79.40,46.01 79.47,46.01 79.53,46.23 79.59,46.01 79.65,45.97 79.72,45.95 79.78,45.97 79.84,46.00 79.90,46.04 79.96,46.11 80.03,46.12 80.09,46.16 80.15,46.19 80.21,46.22 80.28,46.27 80.34,46.35 80.40,46.46 80.46,46.63 80.53,46.99 80.59,51.24 80.65,51.40 80.71,51.11 80.78,50.91 80.84,50.43 80.90,49.49 80.96,49.09 81.03,49.90 81.09,50.28 81.15,50.44 81.21,50.49 81.28,50.56 81.34,50.67 81.40,50.80 81.46,50.93 81.53,51.10 81.59,51.27 81.65,51.45 81.71,51.62 81.78,51.80 81.84,51.99 81.90,52.10 81.96,52.21 82.02,52.33 82.09,52.76 82.15,53.03 82.21,53.24 82.27,53.41 82.34,53.58 82.40,53.72 82.46,53.83 82.52,53.93 82.59,53.90 82.65,53.53 82.71,53.11 82.77,53.04 82.84,53.14 82.90,53.23 82.96,53.27 83.02,53.22 83.09,53.12 83.15,52.44 83.21,52.26 83.27,51.80 83.34,51.98 83.40,52.01 83.46,52.17 83.52,51.87 83.59,51.67 83.65,51.30 83.71,51.54 83.77,51.74 83.83,52.03 83.90,51.84 83.96,51.58 84.02,50.91 84.08,50.74 84.15,50.88 84.21,50.97 84.27,51.16 84.33,51.37 84.40,51.23 84.46,51.09 84.52,51.04 84.58,51.02 84.65,50.93 84.71,50.89 84.77,50.90 84.83,50.89 84.90,50.86 84.96,50.51 85.02,50.51 85.08,51.06 85.15,51.68 85.21,51.37 85.27,51.77 85.33,51.59 85.40,51.53 85.46,51.70 85.52,51.62 85.58,51.38 85.65,51.43 85.71,51.62 85.77,52.06 85.83,52.56 85.89,52.79 85.96,52.51 86.02,51.87 86.08,51.72 86.14,51.91 86.21,51.95 86.27,51.94 86.33,51.97 86.39,51.99 86.46,52.07 86.52,52.22 86.58,51.97 86.64,51.84 86.71,52.04 86.77,51.86 86.83,51.67 86.89,51.70 86.96,52.08 87.02,52.74 87.08,53.55 87.14,53.91 87.21,54.25 87.27,53.97 87.33,53.80 87.39,53.14 87.46,52.72 87.52,52.48 87.58,52.58 87.64,52.65 87.71,52.50 87.77,23.57 87.83,23.39 87.89,23.49 87.95,23.44 88.02,23.36 88.08,23.28 88.14,23.22 88.20,22.97 88.27,22.89 88.33,22.81 88.39,23.01 88.45,23.35 88.52,23.41 88.58,23.50 88.64,23.60 88.70,23.72 88.77,23.67 88.83,22.84 88.89,22.26 88.95,22.60 89.02,24.08 89.08,24.39 89.14,24.79 89.20,24.83 89.27,24.80 89.33,24.90 89.39,25.02 89.45,25.09 89.52,25.13 89.58,25.15 89.64,25.15 89.70,25.18 89.76,25.53 89.83,26.04 89.89,25.89 89.95,26.10 90.01,26.60 90.08,26.74 90.14,27.37 90.20,27.67 90.26,27.51 90.33,26.62 90.39,25.27 90.45,24.04 90.51,23.87 90.58,23.79 90.64,23.64 90.70,23.56 90.76,23.52 90.83,23.56 90.89,23.67 90.95,23.80 91.01,23.90 91.08,24.01 91.14,24.15 91.20,23.62 91.26,23.96 91.33,24.65 91.39,24.90 91.45,25.11 91.51,25.34 91.58,24.68 91.64,24.37 91.70,25.17 91.76,26.05 91.82,26.19 91.89,26.36 91.95,26.55 92.01,26.74 92.07,26.95 92.14,27.12 92.20,27.26 92.26,27.51 92.32,27.70 92.39,27.82 92.45,27.99 92.51,28.16 92.57,28.34 92.64,28.51 92.70,28.73 92.76,28.96 92.82,29.17 92.89,29.38 92.95,29.54 93.01,29.61 93.07,29.91 93.14,29.89 93.20,30.25 93.26,30.30 93.32,30.52 93.39,30.68 93.45,30.91 93.51,31.19 93.57,31.61 93.63,31.86 93.70,31.91 93.76,31.76 93.82,31.79 93.88,31.92 93.95,32.05 94.01,32.22 94.07,32.51 94.13,32.93 94.20,32.74 94.26,32.74 94.32,32.74 94.38,32.71 94.45,32.55 94.51,32.37 94.57,32.46 94.63,32.81 94.70,33.26 94.76,33.82 94.82,34.37 94.88,34.71 94.95,34.84 95.01,34.74 95.07,34.67 95.13,34.67 95.20,34.79 95.26,35.20 95.32,35.30 95.38,35.38 95.45,35.51 95.51,35.52 95.57,35.51 95.63,35.44 95.69,35.37 95.76,35.29 95.82,35.25 95.88,35.19 95.94,35.16 96.01,35.14 96.07,35.11 96.13,35.09 96.19,35.05 96.26,35.02 96.32,34.98 96.38,34.93 96.44,34.92 96.51,34.90 96.57,34.91 96.63,34.93 96.69,34.97 96.76,35.01 96.82,35.04 96.88,35.08 96.94,35.12 97.01,35.16 97.07,35.17 97.13,35.15 97.19,35.12 97.26,35.11 97.32,35.06 97.38,35.06 97.44,35.06 97.50,35.06 97.57,35.06 97.63,34.34 97.69,33.87 97.75,33.69 97.82,34.06 97.88,34.71 97.94,35.41 98.00,35.54 98.07,35.70 98.13,35.84 98.19,35.98 98.25,36.16 98.32,36.10 98.38,35.80 98.44,36.20 98.50,36.85 98.57,37.03 98.63,37.16 98.69,37.22 98.75,37.26 98.82,37.33 98.88,37.17 98.94,36.80 99.00,36.68 99.07,37.04 99.13,37.41 99.19,37.44 99.25,37.57 99.32,37.63 99.38,37.68 99.44,37.67 99.50,37.67 99.56,37.63 99.63,37.58 99.69,37.55 99.75,37.52 99.81,37.50 99.88,37.43 99.94,37.42 100.00,37.66 100.06,37.83 100.13,37.87 100.19,37.69 100.25,37.62 100.31,37.65 100.38,37.70 100.44,37.77 100.50,37.86 100.56,38.02 100.63,38.15 100.69,38.25 100.75,38.33 100.81,38.44 100.88,38.54 100.94,38.70 101.00,38.83 101.06,38.98 101.13,39.07 101.19,39.18 101.25,39.32 101.31,39.45 101.37,39.55 101.44,39.66 101.50,39.81 101.56,40.00 101.62,40.17 101.69,40.31 101.75,40.33 101.81,40.41 101.87,40.49 101.94,40.55 102.00,40.64 102.06,40.78 102.12,40.97 102.19,41.08 102.25,41.23 102.31,41.29 102.37,41.45 102.44,41.57 102.50,41.72 102.56,41.82 102.62,41.87 102.69,41.92 102.75,41.85 102.81,41.35 102.87,41.06 102.94,41.51 103.00,41.76 103.06,41.83 103.12,42.31 103.19,42.73 103.25,42.84 103.31,42.85 103.37,42.92 103.43,42.82 103.50,42.77 103.56,42.67 103.62,42.76 103.68,42.32 103.75,41.70 103.81,42.00 103.87,41.77 103.93,41.79 104.00,42.09 104.06,42.42 104.12,43.28 104.18,43.76 104.25,44.03 104.31,44.12 104.37,44.35 104.43,44.06 104.50,44.48 104.56,45.07 104.62,45.00 104.68,45.34 104.75,45.29 104.81,45.16 104.87,45.14 104.93,44.91 105.00,44.74 105.06,44.46 105.12,44.03 105.18,43.47 105.24,43.66 105.31,44.28 105.37,44.56 105.43,44.48 105.49,44.33 105.56,44.25 105.62,44.17 105.68,44.10 105.74,44.01 105.81,43.94 105.87,43.90 105.93,43.92 105.99,43.90 106.06,44.14 106.12,43.97 106.18,43.05 106.24,42.85 106.31,43.67 106.37,44.75 106.43,44.82 106.49,44.66 106.56,44.42 106.62,44.31 106.68,43.99 106.74,44.08 106.81,44.40 106.87,44.89 106.93,45.58 106.99,46.41 107.06,46.60 107.12,47.02 107.18,46.72 107.24,46.29 107.30,45.96 107.37,45.79 107.43,45.77 107.49,46.28 107.55,46.81 107.62,46.80 107.68,46.77 107.74,46.67 107.80,46.39 107.87,46.24 107.93,46.12 107.99,46.13 108.05,45.95 108.12,45.93 108.18,45.56 108.24,45.40 108.30,45.18 108.37,44.89 108.43,44.64 108.49,44.43 108.55,44.53 108.62,44.66 108.68,44.82 108.74,45.09 108.80,45.76 108.87,46.01 108.93,46.00 108.99,46.21 109.05,46.00 109.12,45.97 109.18,45.95 109.24,45.98 109.30,46.00 109.36,46.05 109.43,46.11 109.49,46.12 109.55,46.16 109.61,46.19 109.68,46.23 109.74,46.27 109.80,46.35 109.86,46.45 109.93,46.59 109.99,46.94 110.05,46.87 110.11,46.85 110.18,46.89 110.24,46.90 110.30,46.98 110.36,47.14 110.43,49.35 110.49,49.17 110.55,49.19 110.61,49.34 110.68,49.64 110.74,49.81 110.80,49.91 110.86,50.30 110.93,51.30 110.99,51.37 111.05,50.65 111.11,50.65 111.17,50.89 111.24,50.71 111.30,50.71 111.36,50.92 111.42,51.37 111.49,51.53 111.55,51.43 111.61,51.30 111.67,51.24 111.74,51.15 111.80,51.06 111.86,51.00 111.92,51.00 111.99,51.17 112.05,51.33 112.11,51.24 112.17,51.30 112.24,51.33 112.30,51.20 112.36,50.88 112.42,50.44 112.49,49.49 112.55,49.09 112.61,49.78 112.67,50.28 112.74,50.55 112.80,50.50 112.86,50.57 112.92,50.67 112.99,50.79 113.05,50.94 113.11,51.10 113.17,51.26 113.23,51.45 113.30,51.63 113.36,51.79 113.42,51.99 113.48,52.09 113.55,52.27 113.61,52.28 113.67,52.75 113.73,53.03 113.80,53.22 113.86,53.40 113.92,53.58 113.98,53.72 114.05,53.83 114.11,53.90 114.17,53.86 114.23,53.51 114.30,53.17 114.36,52.94 114.42,52.96 114.48,53.12 114.55,53.27 114.61,53.22 114.67,53.12 114.73,52.48 114.80,52.21 114.86,51.84 114.92,51.91 114.98,52.19 115.04,52.15 115.11,51.93 115.17,51.97 115.23,51.40 115.29,51.71 115.36,51.75 115.42,51.88 115.48,51.89 115.54,51.66 115.61,50.92 115.67,50.81 115.73,50.82 115.79,51.00 115.86,51.06 115.92,51.37 115.98,51.15 116.04,51.19 116.11,51.07 116.17,51.02 116.23,50.92 116.29,50.89 116.36,50.89 116.42,50.77 116.48,50.73 116.54,50.56 116.61,50.57 116.67,51.18 116.73,51.68 116.79,51.45 116.86,51.79 116.92,51.65 116.98,51.57 117.04,51.74 117.10,51.57 117.17,51.41 117.23,51.41 117.29,51.63 117.35,52.09 117.42,52.57 117.48,52.77 117.54,52.52 117.60,51.76 117.67,51.68 117.73,51.92 117.79,51.96 117.85,51.94 117.92,51.97 117.98,51.99 118.04,52.08 118.10,52.22 118.17,51.92 118.23,51.87 118.29,51.98 118.35,51.89 118.42,51.61 118.48,51.70 118.54,52.15 118.60,52.93 118.67,53.62 118.73,53.93 118.79,54.14 118.85,53.97 118.91,53.80 118.98,53.14 119.04,52.67 119.10,52.47 119.16,52.51 119.23,52.67 119.29,52.51 119.35,12.86 119.41,12.76 119.48,12.58 119.54,12.32 119.60,12.38 119.66,12.38 119.73,12.74 119.79,12.99 119.85,13.35 119.91,13.61 119.98,14.02 120.04,14.23 120.10,14.50 120.16,14.73 120.23,14.94 120.29,15.14 120.35,15.23 120.41,15.44 120.48,15.84 120.54,16.21 120.60,15.92 120.66,15.54 120.73,15.33 120.79,15.25 120.85,15.06 120.91,15.10 120.97,15.01 121.04,14.89 121.10,14.82 121.16,14.73 121.22,14.63 121.29,14.57 121.35,14.51 121.41,14.35 121.47,14.24 121.54,13.99 121.60,13.39 121.66,13.51 121.72,13.44 121.79,13.59 121.85,13.28 121.91,12.57 121.97,13.07 122.04,13.10 122.10,13.21 122.16,13.43 122.22,13.64 122.29,13.75 122.35,13.82 122.41,13.49 122.47,13.42 122.54,12.65 122.60,12.72 122.66,12.72 122.72,13.11 122.78,13.27 122.85,13.92 122.91,13.95 122.97,14.01 123.03,14.00 123.10,14.04 123.16,13.99 123.22,13.98 123.28,13.76 123.35,13.55 123.41,13.23 123.47,13.00 123.53,12.80 123.60,12.60 123.66,12.04 123.72,11.84 123.78,11.48 123.85,11.72 123.91,11.43 123.97,11.34 124.03,11.08 124.10,10.90 124.16,10.68 124.22,9.79 124.28,9.49 124.35,9.46 124.41,9.24 124.47,8.72 124.53,8.58 124.60,8.09 124.66,7.84 124.72,7.28 124.78,7.13 124.84,6.75 124.91,6.34 124.97,6.18 125.03,6.41 125.09,6.85 125.16,6.54 125.22,6.36 125.28,6.05 125.34,6.06 125.41,5.73 125.47,5.81 125.53,5.63 125.59,5.61 125.66,4.99 125.72,5.20 125.78,5.29 125.84,5.67 125.91,6.04 125.97,6.19 126.03,6.30 126.09,6.47 126.16,6.61 126.22,6.75 126.28,6.67 126.34,7.01 126.41,7.00 126.47,6.91 126.53,6.81 126.59,6.64 126.65,7.09 126.72,7.28 126.78,7.43 126.84,7.67 126.90,8.11 126.97,8.21 127.03,8.32 127.09,8.48 127.15,8.64 127.22,8.69 127.28,8.78 127.34,8.92 127.40,9.03 127.47,9.16 127.53,9.24 127.59,9.40 127.65,9.63 127.72,9.79 127.78,9.94 127.84,10.10 127.90,10.25 127.97,10.36 128.03,10.49 128.09,10.56 128.15,10.74 128.22,10.90 128.28,11.03 128.34,11.11 128.40,11.20 128.47,11.21 128.53,11.23 128.59,11.58 128.65,11.71 128.71,11.88 128.78,11.96 128.84,12.12 128.90,12.27 128.96,12.36 129.03,12.49 129.09,12.64 129.15,12.75 129.21,12.89 129.28,13.29 129.34,13.50 129.40,13.27 129.46,13.32 129.53,13.46 129.59,13.69 129.65,13.91 129.71,14.03 129.78,14.20 129.84,14.35 129.90,14.48 129.96,14.59 130.03,14.77 130.09,14.94 130.15,15.07 130.21,15.18 130.28,15.31 130.34,15.43 130.40,15.51 130.46,15.59 130.53,15.75 130.59,15.84 130.65,15.98 130.71,16.07 130.77,16.18 130.84,16.33 130.90,16.45 130.96,16.54 131.02,16.66 131.09,16.82 131.15,16.84 131.21,16.92 131.27,17.04 131.34,17.02 131.40,17.23 131.46,17.29 131.52,17.35 131.59,17.50 131.65,17.68 131.71,17.85 131.77,17.75 131.84,17.79 131.90,17.73 131.96,17.64 132.02,17.68 132.09,17.72 132.15,17.90 132.21,18.01 132.27,18.52 132.34,17.95 132.40,18.00 132.46,18.08 132.52,18.15 132.58,18.22 132.65,18.31 132.71,18.00 132.77,18.08 132.83,18.15 132.90,18.22 132.96,18.31 133.02,18.40 133.08,18.56 133.15,18.72 133.21,18.84 133.27,19.14 133.33,19.07 133.40,19.10 133.46,19.18 133.52,19.31 133.58,19.44 133.65,19.55 133.71,19.68 133.77,19.83 133.83,19.98 133.90,20.09 133.96,20.25 134.02,20.44 134.08,20.66 134.15,20.87 134.21,21.02 134.27,21.44 134.33,21.62 134.40,21.74 134.46,21.91 134.52,22.01 134.58,22.09 134.64,22.17 134.71,21.98 134.77,22.04 134.83,22.19 134.89,22.21 134.96,22.42 135.02,22.54 135.08,22.64 135.14,22.68 135.21,22.73 135.27,22.84 135.33,22.97 135.39,23.02 135.46,22.98 135.52,22.95 135.58,23.04 135.64,23.09 135.71,23.16 135.77,23.21 135.83,23.30 135.89,23.38 135.96,23.44 136.02,23.49 136.08,23.59 136.14,23.80 136.21,24.08 136.27,24.17 136.33,24.32 136.39,24.07 136.45,23.96 136.52,23.90 136.58,23.89 136.64,23.86 136.70,23.84 136.77,23.78 136.83,23.74 136.89,23.67 136.95,23.64 137.02,23.44 137.08,23.53 137.14,23.45 137.20,23.30 137.27,23.35 137.33,23.31 137.39,23.18 137.45,23.07 137.52,22.49 137.58,23.14 137.64,23.35 137.70,23.42 137.77,23.52 137.83,23.59 137.89,23.69 137.95,23.75 138.02,22.90 138.08,22.32 138.14,22.39 138.20,24.03 138.27,24.37 138.33,24.90 138.39,24.74 138.45,24.81 138.51,24.92 138.58,25.02 138.64,25.11 138.70,25.14 138.76,25.16 138.83,25.15 138.89,25.16 138.95,25.66 139.01,26.17 139.08,25.80 139.14,26.19 139.20,26.69 139.26,26.47 139.33,27.42 139.39,27.67 139.45,27.29 139.51,26.47 139.58,25.06 139.64,24.01 139.70,23.89 139.76,23.81 139.83,23.63 139.89,23.63 139.95,23.53 140.01,23.89 140.08,23.81 140.14,23.64 140.20,23.63 140.26,23.53 140.32,23.58 140.39,23.69 140.45,23.79 140.51,23.89 140.57,24.00 140.64,24.14 140.70,23.30 140.76,24.01 140.82,24.56 140.89,24.94 140.95,25.11 141.01,25.36 141.07,24.90 141.14,24.54 141.20,24.85 141.26,25.99 141.32,26.20 141.39,26.33 141.45,26.22 141.51,26.77 141.57,26.98 141.64,27.10 141.70,27.32 141.76,27.43 141.82,27.71 141.89,27.81 141.95,28.02 142.01,28.19 142.07,28.35 142.14,28.53 142.20,28.75 142.26,28.85 142.32,28.94 142.38,29.30 142.45,29.46 142.51,29.63 142.57,29.89 142.63,30.02 142.70,30.24 142.76,30.41 142.82,30.54 142.88,30.71 142.95,30.84 143.01,31.32 143.07,31.60 143.13,32.00 143.20,31.93 143.26,31.80 143.32,31.81 143.38,31.91 143.45,32.06 143.51,32.22 143.57,32.56 143.63,32.88 143.70,32.79 143.76,32.78 143.82,32.76 143.88,33.00 143.95,32.38 144.01,32.30 144.07,32.27 144.13,32.72 144.19,33.32 144.26,33.93 144.32,34.40 144.38,34.75 144.44,34.83 144.51,34.77 144.57,34.85 144.63,34.51 144.69,34.74 144.76,35.17 144.82,35.25 144.88,35.37 144.94,35.47 145.01,35.55 145.07,35.50 145.13,35.46 145.19,35.37 145.26,35.31 145.32,35.24 145.38,35.23 145.44,35.18 145.51,35.16 145.57,35.13 145.63,35.11 145.69,35.08 145.76,35.03 145.82,35.01 145.88,34.96 145.94,34.94 146.01,34.89 146.07,34.92 146.13,34.91 146.19,34.97 146.25,34.99 146.32,35.06 146.38,35.10 146.44,35.13 146.50,35.17 146.57,35.17 146.63,35.16 146.69,35.14 146.75,35.13 146.82,35.07 146.88,35.06 146.94,35.08 147.00,35.07 147.07,35.07 147.13,34.13 147.19,33.90 147.25,33.35 147.32,33.84 147.38,34.24 147.44,35.11 147.50,35.50 147.57,35.74 147.63,35.85 147.69,36.01 147.75,36.04 147.82,35.91 147.88,35.66 147.94,36.18 148.00,36.86 148.06,37.01 148.13,37.17 148.19,37.22 148.25,37.27 148.31,37.32 148.38,36.95 148.44,36.64 148.50,36.41 148.56,36.70 148.63,37.35 148.69,37.42 148.75,37.56 148.81,37.66 148.88,37.70 148.94,37.71 149.00,37.68 149.06,37.65 149.13,37.59 149.19,37.56 149.25,37.55 149.31,37.56 149.38,37.46 149.44,37.47 149.50,37.91 149.56,38.05 149.63,37.79 149.69,37.58 149.75,37.80 149.81,37.66 149.88,37.70 149.94,37.77 150.00,37.83 150.06,37.98 150.12,38.16 150.19,38.25 150.25,38.34 150.31,38.41 150.37,38.56 150.44,38.67 150.50,38.83 150.56,38.94 150.62,39.06 150.69,39.16 150.75,39.31 150.81,39.47 150.87,39.58 150.94,39.70 151.00,39.83 151.06,39.98 151.12,40.34 151.19,40.33 151.25,40.35 151.31,40.42 151.37,40.50 151.44,40.58 151.50,40.67 151.56,40.81 151.62,40.95 151.69,41.05 151.75,41.07 151.81,41.36 151.87,41.50 151.94,41.62 152.00,41.73 152.06,41.83 152.12,41.88 152.18,41.96 152.25,42.03 152.31,41.29 152.37,41.39 152.43,41.89 152.50,42.08 152.56,42.09 152.62,42.34 152.68,42.95 152.75,42.37 152.81,42.96 152.87,42.36 152.93,42.46 153.00,42.37 153.06,42.50 153.12,42.59 153.18,41.54 153.25,41.47 153.31,41.64 153.37,41.51 153.43,42.02 153.50,41.94 153.56,42.26 153.62,43.02 153.68,42.91 153.75,43.50 153.81,44.07 153.87,44.03 153.93,44.35 153.99,44.09 154.06,45.07 154.12,45.25 154.18,45.16 154.24,45.43 154.31,44.87 154.37,45.21 154.43,45.25 154.49,44.36 154.56,44.19 154.62,43.75 154.68,43.69 154.74,43.73 154.81,44.09 154.87,44.63 154.93,44.32 154.99,44.31 155.06,44.24 155.12,44.19 155.18,44.08 155.24,44.02 155.31,43.93 155.37,43.91 155.43,43.82 155.49,43.57 155.56,44.27 155.62,43.96 155.68,42.88 155.74,42.85 155.81,43.72 155.87,44.72 155.93,44.83 155.99,44.76 156.05,44.47 156.12,43.87 156.18,43.90 156.24,43.81 156.30,43.99 156.37,44.92 156.43,45.37 156.49,46.45 156.55,46.59 156.62,46.99 156.68,46.61 156.74,46.24 156.80,46.09 156.87,45.74 156.93,45.64 156.99,46.44 157.05,46.71 157.12,46.81 157.18,46.62 157.24,46.73 157.30,46.11 157.37,46.39 157.43,45.86 157.49,46.11 157.55,45.39 157.62,45.53 157.68,45.73 157.74,45.14 157.80,45.26 157.86,44.58 157.93,44.66 157.99,44.39 158.05,44.39 158.11,44.70 158.18,44.74 158.24,45.10 158.30,45.44 158.36,45.99 158.43,45.96 158.49,46.20 158.55,45.97 158.61,45.96 158.68,45.96 158.74,45.98 158.80,46.00 158.86,46.05 158.93,46.08 158.99,46.14 159.05,46.15 159.11,46.16 159.18,46.20 159.24,46.26 159.30,46.34 159.36,46.44 159.43,46.58 159.49,47.00 159.55,47.25 159.61,46.81 159.68,46.88 159.74,46.90 159.80,46.95 159.86,47.10 159.92,47.26 159.99,47.42 160.05,47.76 160.11,47.58 160.17,47.40 160.24,47.45 160.30,47.42 160.36,47.43 160.42,47.37 160.49,47.36 160.55,46.29 160.61,46.11 160.67,45.98 160.74,45.32 160.80,46.18 160.86,46.16 160.92,47.13 160.99,47.45 161.05,47.53 161.11,47.51 161.17,47.71 161.24,47.88 161.30,48.01 161.36,48.20 161.42,48.34 161.49,48.49 161.55,48.64 161.61,48.78 161.67,48.77 161.73,48.65 161.80,48.22 161.86,48.30 161.92,47.91 161.98,48.01 162.05,48.19 162.11,48.42 162.17,48.47 162.23,48.55 162.30,48.59 162.36,48.84 162.42,49.09 162.48,49.64 162.55,50.30 162.61,49.96 162.67,50.67 162.73,50.64 162.80,51.32 162.86,51.56 162.92,51.65 162.98,51.75 163.05,51.82 163.11,51.86 163.17,51.91 163.23,51.91 163.30,51.97 163.36,51.93 163.42,51.94 163.48,51.93 163.55,51.90 163.61,51.71 163.67,52.10 163.73,52.21 163.79,52.26 163.86,52.36 163.92,52.44 163.98,52.52 164.04,52.46 164.11,51.94 164.17,51.42 164.23,50.98 164.29,50.50 164.36,50.54 164.42,50.74 164.48,51.10 164.54,51.28 164.61,51.63 164.67,51.80 164.73,52.43 164.79,52.42 164.86,52.40 164.92,52.40 164.98,52.21 165.04,52.09 165.11,52.05 165.17,51.98 165.23,51.94 165.29,51.66 165.36,51.78 165.42,51.81 165.48,51.80 165.54,52.09 165.60,51.88 165.67,51.55 165.73,51.20 165.79,51.06 165.85,51.92 165.92,52.49 165.98,52.17 166.04,52.46 166.10,52.38 166.17,52.31 166.23,52.21 166.29,52.05 166.35,51.97 166.42,51.77 166.48,51.59 166.54,51.75 166.60,51.64 166.67,51.64 166.73,51.68 166.79,51.64 166.85,51.61 166.92,51.91 166.98,51.52 167.04,51.47 167.10,51.44 167.17,51.44 167.23,51.43 167.29,51.41 167.35,51.35 167.42,51.25 167.48,51.26 167.54,50.86 167.60,49.98 167.66,49.69 167.73,48.84 167.79,48.34 167.85,48.17 167.91,48.24 167.98,48.36 168.04,48.39 168.10,49.22 168.16,48.92 168.23,48.75 168.29,49.07 168.35,49.16 168.41,49.11 168.48,49.33 168.54,49.49 168.60,49.74 168.66,50.59 168.73,51.43 168.79,50.97 168.85,50.89 168.91,50.52 168.98,50.89 169.04,50.52 169.10,50.63 169.16,50.88 169.23,51.52 169.29,51.50 169.35,51.39 169.41,51.29 169.47,51.21 169.54,51.15 169.60,51.05 169.66,51.00 169.72,50.98 169.79,50.99 169.85,51.14 169.91,51.12 169.97,51.55 170.04,51.34 170.10,51.08 170.16,50.62 170.22,50.45 170.29,49.58 170.35,49.25 170.41,49.64 170.47,50.26 170.54,50.53 170.60,50.44 170.66,50.56 170.72,50.65 170.79,50.78 170.85,50.95 170.91,51.06 170.97,51.24 171.04,51.43 171.10,51.62 171.16,51.83 171.22,51.92 171.29,52.16 171.35,52.38 171.41,52.56 171.47,52.70 171.53,52.99 171.60,53.18 171.66,53.40 171.72,53.59 171.78,53.76 171.85,53.86 171.91,53.92 171.97,53.90 172.03,53.75 172.10,53.62 172.16,53.03 172.22,52.93 172.28,53.28 172.35,53.29 172.41,53.22 172.47,52.71 172.53,52.46 172.60,52.04 172.66,51.82 172.72,51.91 172.78,51.46 172.85,52.03 172.91,51.42 172.97,51.73 173.03,51.40 173.10,51.65 173.16,51.34 173.22,51.79 173.28,51.91 173.35,51.30 173.41,50.71 173.47,50.25 173.53,50.52 173.59,50.71 173.66,50.53 173.72,50.79 173.78,50.99 173.84,51.02 173.91,51.12 173.97,50.77 174.03,50.92 174.09,50.52 174.16,50.83 174.22,50.43 174.28,50.41 174.34,50.72 174.41,50.06 174.47,51.28 174.53,51.59 174.59,51.35 174.66,51.77 174.72,51.48 174.78,51.55 174.84,51.81 174.91,51.61 174.97,51.32 175.03,51.37 175.09,51.67 175.16,52.08 175.22,52.51 175.28,52.81 175.34,52.55 175.40,51.49 175.47,51.43 175.53,52.08 175.59,51.96 175.65,51.96 175.72,51.97 175.78,52.00 175.84,52.09 175.90,52.21 175.97,52.07 176.03,51.72 176.09,51.85 176.15,51.81 176.22,51.73 176.28,52.08 176.34,52.04 176.40,52.57 176.47,53.67 176.53,54.03 176.59,54.10 176.65,53.94 176.72,53.67 176.78,53.28 176.84,52.67 176.90,52.16 176.97,52.57 177.03,52.43 177.09,52.52 177.15,12.94 177.22,12.81 177.28,12.45 177.34,12.35 177.40,12.38 177.46,12.54 177.53,12.77 177.59,13.02 177.65,13.54 177.71,13.77 177.78,14.03 177.84,14.30 177.90,14.62 177.96,14.63 178.03,14.97 178.09,15.42 178.15,15.53 178.21,15.57 178.28,15.64 178.34,15.71 178.40,15.80 178.46,15.67 178.53,15.27 178.59,15.08 178.65,14.72 178.71,14.82 178.78,14.76 178.84,14.69 178.90,14.37 178.96,14.59 179.03,14.71 179.09,14.69 179.15,14.79 179.21,14.44 179.27,14.00 179.34,13.79 179.40,13.06 179.46,13.50 179.52,13.39 179.59,13.62 179.65,13.40 179.71,12.94 179.77,12.93 179.84,13.00 179.90,13.04 179.96,13.17 180.02,13.36 180.09,13.35 180.15,13.27 180.21,13.20 180.27,13.16 180.34,13.10 180.40,13.06 180.46,13.14 180.52,13.30 180.59,13.46 180.65,13.62 180.71,13.80 180.77,14.18 180.84,14.20 180.90,14.12 180.96,14.09 181.02,13.95 181.09,13.79 181.15,13.28 181.21,13.33 181.27,12.57 181.33,12.67 181.40,11.77 181.46,12.01 181.52,11.22 181.58,11.51 181.65,11.02 181.71,11.25 181.77,10.59 181.83,10.93 181.90,10.50 181.96,10.08 182.02,9.60 182.08,9.60 182.15,9.14 182.21,8.80 182.27,8.57 182.33,8.57 182.40,8.34 182.46,7.57 182.52,7.19 182.58,7.10 182.65,6.40 182.71,6.35 182.77,6.35 182.83,6.84 182.90,6.41 182.96,6.63 183.02,5.93 183.08,5.94 183.14,5.30 183.21,5.72 183.27,5.72 183.33,5.29 183.39,5.72 183.46,5.37 183.52,5.16 183.58,5.27 183.64,5.60 183.71,5.94 183.77,6.13 183.83,6.19 183.89,6.18 183.96,6.77 184.02,6.74 184.08,6.63 184.14,6.69 184.21,6.95 184.27,7.31 184.33,7.27 184.39,6.52 184.46,7.32 184.52,7.51 184.58,7.65 184.64,8.09 184.71,8.06 184.77,8.28 184.83,8.28 184.89,8.95 184.96,8.96 185.02,8.71 185.08,8.83 185.14,9.02 185.20,8.89 185.27,9.16 185.33,9.16 185.39,9.48 185.45,9.62 185.52,9.85 185.58,10.09 185.64,10.26 185.70,10.39 185.77,10.49 185.83,10.56 185.89,10.60 185.95,11.02 186.02,10.98 186.08,10.93 186.14,11.26 186.20,11.06 186.27,10.91 186.33,11.38 186.39,11.38 186.45,11.74 186.52,11.71 186.58,12.09 186.64,12.05 186.70,12.49 186.77,12.30 186.83,12.00 186.89,12.60 186.95,13.33 187.01,13.16 187.08,13.96 187.14,13.74 187.20,13.58 187.26,13.55 187.33,13.63 187.39,13.89 187.45,14.33 187.51,14.11 187.58,14.35 187.64,14.50 187.70,14.51 187.76,14.53 187.83,14.66 187.89,14.79 187.95,15.24 188.01,15.24 188.08,15.36 188.14,15.54 188.20,15.49 188.26,15.49 188.33,15.33 188.39,15.70 188.45,16.01 188.51,16.01 188.58,16.21 188.64,16.39 188.70,16.37 188.76,16.62 188.83,16.83 188.89,16.93 188.95,16.86 189.01,16.86 189.07,16.69 189.14,16.65 189.20,17.10 189.26,17.30 189.32,17.54 189.39,18.03 189.45,17.69 189.51,17.80 189.57,17.85 189.64,17.85 189.70,17.81 189.76,17.87 189.82,17.72 189.89,17.86 189.95,18.36 190.01,18.09 190.07,18.52 190.14,17.95 190.20,18.06 190.26,17.80 190.32,18.24 190.39,18.24 190.45,18.16 190.51,18.56 190.57,18.61 190.64,19.09 190.70,18.95 190.76,19.11 190.82,19.19 190.88,19.19 190.95,19.26 191.01,19.35 191.07,19.51 191.13,19.51 191.20,19.50 191.26,19.79 191.32,19.85 191.38,20.25 191.45,20.32 191.51,20.43 191.57,20.82 191.63,20.96 191.70,21.27 191.76,21.48 191.82,21.70 191.88,21.79 191.95,22.06 192.01,22.01 192.07,22.05 192.13,22.10 192.20,22.10 192.26,22.15 192.32,22.31 192.38,22.14 192.45,22.37 192.51,22.52 192.57,22.64 192.63,22.66 192.70,22.79 192.76,23.01 192.82,23.01 192.88,23.22 192.94,23.09 193.01,23.01 193.07,23.23 193.13,23.17 193.19,23.15 193.26,23.35 193.32,23.29 193.38,23.26 193.44,23.63 193.51,23.63 193.57,23.63 193.63,24.13 193.69,24.12 193.76,24.04 193.82,24.20 193.88,24.19 193.94,23.92 194.01,24.06 194.07,23.93 194.13,24.00 194.19,23.92 194.26,23.67 194.32,23.62 194.38,23.66 194.44,22.89 194.51,22.96 194.57,23.10 194.63,23.25 194.69,22.28 194.76,22.59 194.82,22.87 194.88,23.07 194.94,22.17 195.00,22.74 195.07,22.46 195.13,23.29 195.19,22.78 195.25,23.21 195.32,23.58 195.38,23.58 195.44,23.66 195.50,23.45 195.57,22.42 195.63,22.31 195.69,23.61 195.75,24.43 195.82,24.87 195.88,25.05 195.94,25.05 196.00,25.06 196.07,25.12 196.13,25.14 196.19,25.15 196.25,25.14 196.32,25.20 196.38,25.39 196.44,25.72 196.50,25.91 196.57,26.12 196.63,26.59 196.69,27.25 196.75,26.24 196.81,27.31 196.88,27.32 196.94,26.78 197.00,26.11 197.06,24.59 197.13,24.05 197.19,23.52 197.25,23.27 197.31,23.27 197.38,23.37 197.44,23.66 197.50,23.55 197.56,24.05 197.63,23.92 197.69,23.83 197.75,26.78 197.81,26.11 197.88,24.59 197.94,24.05 198.00,23.52 198.06,23.27 198.13,23.27 198.19,23.37 198.25,23.66 198.31,23.55 198.38,24.05 198.44,23.92 198.50,23.83 198.56,24.33 198.63,23.85 198.69,23.51 198.75,23.57 198.81,24.00 198.87,24.48 198.94,24.86 199.00,25.29 199.06,25.51 199.12,25.34 199.19,24.63 199.25,25.72 199.31,26.04 199.37,26.25 199.44,25.80 199.50,26.56 199.56,26.93 199.62,27.18 199.69,26.81 199.75,27.40 199.81,27.77 199.87,27.53 199.94,27.63 200.00,28.02 200.06,28.64 200.12,28.50 200.19,28.56 200.25,28.69 200.31,28.85 200.37,29.10 200.44,29.32 200.50,29.50 200.56,29.73 200.62,30.03 200.68,30.39 200.75,30.10 200.81,30.53 200.87,30.85 200.93,31.26 201.00,31.37 201.06,31.95 201.12,31.92 201.18,31.92 201.25,31.92 201.31,32.02 201.37,31.83 201.43,32.19 201.50,31.99 201.56,32.52 201.62,33.03 201.68,32.72 201.75,32.67 201.81,32.95 201.87,32.51 201.93,32.56 202.00,32.62 202.06,32.69 202.12,33.10 202.18,33.48 202.25,33.90 202.31,34.27 202.37,34.62 202.43,34.66 202.50,34.87 202.56,34.92 202.62,34.85 202.68,34.85 202.74,34.89 202.81,35.28 202.87,35.61 202.93,35.69 202.99,35.68 203.06,35.53 203.12,35.43 203.18,35.54 203.24,35.33 203.31,35.33 203.37,35.11 203.43,35.19 203.49,35.03 203.56,35.14 203.62,35.01 203.68,35.15 203.74,34.84 203.81,34.85 203.87,34.88 203.93,34.92 203.99,34.26 204.06,34.26 204.12,34.33 204.18,34.37 204.24,34.40 204.31,35.01 204.37,35.04 204.43,35.17 204.49,35.34 204.55,35.24 204.62,34.94 204.68,35.15 204.74,35.05 204.80,34.94 204.87,34.88 204.93,34.91 204.99,34.85 205.05,34.65 205.12,34.35 205.18,34.27 205.24,32.94 205.30,33.52 205.37,34.56 205.43,35.30 205.49,35.27 205.55,35.81 205.62,35.10 205.68,35.72 205.74,35.30 205.80,35.99 205.87,36.18 205.93,35.88 205.99,36.82 206.05,36.94 206.12,37.22 206.18,37.12 206.24,37.29 206.30,37.18 206.37,36.47 206.43,36.97 206.49,36.81 206.55,36.86 206.61,36.86 206.68,36.88 206.74,37.40 206.80,37.55 206.86,37.61 206.93,37.61 206.99,37.89 207.05,37.64 207.11,37.78 207.18,37.39 207.24,37.44 207.30,37.96 207.36,37.44 207.43,37.58 207.49,38.10 207.55,37.89 207.61,37.75 207.68,37.66 207.74,37.55 207.80,37.40 207.86,37.31 207.93,37.45 207.99,37.45 208.05,37.79 208.11,38.19 208.18,38.04 208.24,37.93 208.30,38.53 208.36,38.54 208.42,38.91 208.49,38.71 208.55,38.71 208.61,38.86 208.67,38.90 208.74,39.00 208.80,39.12 208.86,39.27 208.92,39.49 208.99,39.74 209.05,39.98 209.11,40.15 209.17,40.24 209.24,40.29 209.30,40.30 209.36,40.63 209.42,40.59 209.49,40.41 209.55,40.73 209.61,40.51 209.67,41.04 209.74,41.10 209.80,41.48 209.86,41.29 209.92,41.74 209.99,42.33 210.05,41.80 210.11,42.07 210.17,42.28 210.24,41.62 210.30,41.16 210.36,42.02 210.42,41.66 210.48,42.37 210.55,42.19 210.61,41.85 210.67,42.72 210.73,42.24 210.80,42.77 210.86,41.93 210.92,43.06 210.98,43.28 211.05,42.38 211.11,42.44 211.17,42.27 211.23,42.27 211.30,42.56 211.36,42.64 211.42,42.63 211.48,42.63 211.55,42.44 211.61,43.63 211.67,43.20 211.73,44.13 211.80,43.63 211.86,44.52 211.92,44.42 211.98,44.88 212.05,44.81 212.11,45.01 212.17,45.23 212.23,45.33 212.29,45.40 212.36,45.48 212.42,45.46 212.48,44.20 212.54,43.87 212.61,44.53 212.67,44.53 212.73,43.81 212.79,44.68 212.86,44.25 212.92,44.53 212.98,44.18 213.04,44.34 213.11,45.30 213.17,44.44 213.23,44.34 213.29,44.10 213.36,43.57 213.42,43.97 213.48,43.99 213.54,44.10 213.61,43.69 213.67,42.99 213.73,43.67 213.79,43.55 213.86,44.53 213.92,44.76 213.98,44.89 214.04,44.59 214.11,44.33 214.17,44.11 214.23,45.25 214.29,44.14 214.35,44.59 214.42,45.85 214.48,46.34 214.54,46.68 214.60,46.87 214.67,46.80 214.73,46.15 214.79,46.37 214.85,45.91 214.92,46.56 214.98,46.51 215.04,46.90 215.10,46.61 215.17,46.87 215.23,46.47 215.29,46.73 215.35,46.26 215.42,46.62 215.48,46.00 215.54,46.43 215.60,45.59 215.67,46.12 215.73,45.19 215.79,45.85 215.85,44.76 215.92,45.40 215.98,44.80 216.04,44.80 216.10,44.72 216.17,45.03 216.23,45.65 216.29,45.64 216.35,46.37 216.41,46.37 216.48,46.65 216.54,46.12 216.60,46.42 216.66,46.01 216.73,46.31 216.79,46.02 216.85,46.27 216.91,45.93 216.98,46.04 217.04,46.07 217.10,46.07 217.16,46.06 217.23,46.19 217.29,46.38 217.35,46.66 217.41,47.06 217.48,47.52 217.54,47.81 217.60,46.86 217.66,46.92 217.73,46.97 217.79,47.04 217.85,47.20 217.91,47.37 217.98,47.61 218.04,48.21 218.10,47.59 218.16,47.57 218.22,47.68 218.29,47.78 218.35,47.37 218.41,47.36 218.47,47.19 218.54,46.83 218.60,46.30 218.66,45.69 218.72,45.06 218.79,46.56 218.85,46.04 218.91,47.06 218.97,47.53 219.04,47.31 219.10,47.41 219.16,47.97 219.22,47.96 219.29,47.31 219.35,48.09 219.41,48.25 219.47,48.36 219.54,48.91 219.60,48.90 219.66,48.08 219.72,48.80 219.79,48.57 219.85,48.28 219.91,48.07 219.97,48.63 220.04,47.99 220.10,48.55 220.16,48.47 220.22,48.90 220.28,48.40 220.35,49.26 220.41,49.84 220.47,49.66 220.53,50.08 220.60,50.33 220.66,50.70 220.72,51.02 220.78,51.43 220.85,51.63 220.91,51.80 220.97,51.74 221.03,51.97 221.10,52.00 221.16,52.02 221.22,52.13 221.28,52.41 221.35,52.61 221.41,52.62 221.47,51.84 221.53,52.23 221.60,52.41 221.66,52.03 221.72,52.04 221.78,52.18 221.85,52.46 221.91,52.54 221.97,52.28 222.03,52.49 222.09,52.16 222.16,51.34 222.22,51.70 222.28,50.90 222.34,51.31 222.41,50.65 222.47,51.06 222.53,51.47 222.59,51.86 222.66,52.42 222.72,52.57 222.78,52.42 222.84,52.51 222.91,52.43 222.97,52.25 223.03,52.13 223.09,52.13 223.16,51.98 223.22,51.98 223.28,51.58 223.34,51.79 223.41,51.25 223.47,51.47 223.53,51.82 223.59,51.33 223.66,51.80 223.72,51.66 223.78,51.14 223.84,52.26 223.91,52.28 223.97,51.80 224.03,52.41 224.09,52.43 224.15,51.99 224.22,51.71 224.28,51.99 224.34,51.32 224.40,51.50 224.47,51.65 224.53,51.74 224.59,50.96 224.65,51.02 224.72,51.82 224.78,51.91 224.84,51.96 224.90,51.85 224.97,51.85 225.03,51.44 225.09,51.54 225.15,51.46 225.22,51.19 225.28,51.37 225.34,51.33 225.40,51.04 225.47,51.19 225.53,50.64 225.59,49.54 225.65,49.74 225.72,48.28 225.78,48.28 225.84,48.61 225.90,47.64 225.96,48.16 226.03,48.74 226.09,49.33 226.15,48.23 226.21,48.74 226.28,49.48 226.34,49.66 226.40,49.40 226.46,49.53 226.53,49.70 226.59,50.41 226.65,51.02 226.71,51.52 226.78,51.07 226.84,51.06 226.90,51.20 226.96,51.43 227.03,51.18 227.09,50.84 227.15,50.41 227.21,51.11 227.28,51.69 227.34,51.34 227.40,51.28 227.46,50.96 227.53,51.23 227.59,50.95 227.65,51.40 227.71,50.73 227.78,51.32 227.84,51.12 227.90,51.65 227.96,51.29 228.02,51.99 228.09,51.13 228.15,50.46 228.21,50.37 228.27,49.75 228.34,49.44 228.40,50.10 228.46,50.66 228.52,50.81 228.59,50.46 228.65,50.55 228.71,50.39 228.77,50.76 228.84,50.64 228.90,51.08 228.96,51.39 229.02,51.34 229.09,51.66 229.15,51.95 229.21,50.94 229.27,51.41 229.34,51.82 229.40,52.26 229.46,51.77 229.52,52.63 229.59,53.21 229.65,52.89 229.71,53.43 229.77,53.76 229.83,54.01 229.90,54.02 229.96,53.52 230.02,52.72 230.08,51.91 230.15,52.81 230.21,52.48 230.27,52.60 230.33,52.60 230.40,53.00 230.46,53.09 230.52,52.98 230.58,51.92 230.65,52.51 230.71,53.06 230.77,52.43 230.83,52.98 230.90,52.25 230.96,52.75 231.02,52.09 231.08,52.56 231.15,51.96 231.21,52.37 231.27,51.77 231.33,51.96 231.40,50.57 231.46,50.70 231.52,50.85 231.58,51.00 231.65,50.90 231.71,50.91 231.77,50.97 231.83,51.04 231.89,51.06 231.96,51.04 232.02,51.01 232.08,50.45 232.14,50.77 232.21,50.46 232.27,50.94 232.33,50.47 232.39,50.92 232.46,50.92 232.52,51.53 232.58,51.23 232.64,51.61 232.71,51.27 232.77,51.39 232.83,51.66 232.89,51.47 232.96,51.24 233.02,51.23 233.08,51.92 233.14,52.40 233.21,52.58 233.27,52.58 233.33,52.19 233.39,51.42 233.46,51.85 233.52,51.77 233.58,51.80 233.64,51.93 233.71,52.43 233.77,52.06 233.83,52.21 233.89,52.18 233.95,51.84 234.02,52.15 234.08,52.15 234.14,51.82 234.20,52.59 234.27,52.41 234.33,52.32 234.39,52.35 234.45,53.54 234.52,53.98 234.58,54.33 234.64,54.04 234.70,53.61 234.77,53.41 234.83,52.60 234.89,51.71 234.95,52.19 235.02,51.56 235.08,52.19 235.14,12.57 235.20,12.57 235.27,12.28 235.33,12.28 235.39,12.28 235.45,12.92 235.52,12.92 235.58,12.92 235.64,13.76 235.70,13.76 235.76,14.73 235.83,14.73 235.89,14.73 235.95,15.83 236.01,15.83 236.08,16.33 236.14,16.33 236.20,16.33 236.26,16.02 236.33,16.02 236.39,16.02 236.45,15.09 236.51,15.09 236.58,14.11 236.64,14.11 236.70,13.59 236.76,14.00 236.83,14.00 236.89,14.00 236.95,14.92 237.01,14.92 237.08,14.44 237.14,14.44 237.20,14.44 237.26,12.69 237.33,13.59 237.39,13.59 237.45,13.56 237.51,13.56 237.58,13.56 237.64,13.15 237.70,13.15 237.76,13.11 237.82,13.11 237.89,13.11 237.95,13.32 238.01,13.32 238.07,13.14 238.14,13.14 238.20,13.14 238.26,12.95 238.32,12.95 238.39,13.12 238.45,13.12 238.51,13.12 238.57,13.70 238.64,13.70 238.70,13.70 238.76,14.26 238.82,14.26 238.89,14.26 238.95,14.26 239.01,12.98 239.07,12.98 239.14,12.98 239.20,12.98 239.26,10.45 239.32,10.45 239.39,10.45 239.45,11.02 239.51,11.02 239.57,11.02 239.63,9.38 239.70,9.38 239.76,9.38 239.82,10.10 239.88,10.10 239.95,7.82 240.01,8.86 240.07,8.86 240.13,8.86 240.20,6.62 240.26,7.91 240.32,7.91 240.38,7.91 240.45,5.71 240.51,5.71 240.57,7.15 240.63,5.46 240.70,5.46 240.76,5.46 240.82,5.46 240.88,4.00 240.95,5.90 241.01,5.90 241.07,4.35 241.13,4.35 241.20,4.35 241.26,4.35 241.32,4.03 241.38,5.35 241.45,5.35 241.51,5.56 241.57,5.56 241.63,5.56 241.69,6.06 241.76,6.06 241.82,6.06 241.88,5.91 241.94,8.13 242.01,8.13 242.07,8.30 242.13,8.30 242.19,8.30 242.26,9.52 242.32,7.80 242.38,7.80 242.44,7.80 242.51,9.63 242.57,8.05 242.63,8.05 242.69,8.91 242.76,8.91 242.82,8.91 242.88,8.91 242.94,8.16 243.01,8.16 243.07,9.77 243.13,9.10 243.19,9.10 243.26,9.10 243.32,9.10 243.38,11.00 243.44,11.00 243.50,11.00 243.57,11.49 243.63,11.49 243.69,11.49 243.75,11.62 243.82,11.62 243.88,11.62 243.94,11.42 244.00,11.42 244.07,11.42 244.13,10.82 244.19,10.82 244.25,10.82 244.32,12.13 244.38,12.13 244.44,12.13 244.50,12.13 244.57,11.64 244.63,11.64 244.69,13.75 244.75,13.39 244.82,13.39 244.88,13.39 244.94,13.39 245.00,12.86 245.07,15.69 245.13,15.69 245.19,15.30 245.25,15.30 245.32,15.30 245.38,15.51 245.44,15.51 245.50,13.99 245.56,14.36 245.63,14.36 245.69,14.36 245.75,14.63 245.81,14.63 245.88,14.63 245.94,15.79 246.00,15.79 246.06,15.79 246.13,15.79 246.19,15.18 246.25,15.18 246.31,15.18 246.38,16.15 246.44,16.15 246.50,16.15 246.56,16.15 246.63,17.06 246.69,17.06 246.75,17.06 246.81,17.06 246.88,16.66 246.94,16.66 247.00,16.66 247.06,16.66 247.13,17.35 247.19,17.35 247.25,17.35 247.31,18.31 247.37,18.31 247.44,17.64 247.50,17.64 247.56,18.45 247.62,18.45 247.69,17.60 247.75,17.60 247.81,17.60 247.87,18.34 247.94,18.34 248.00,18.34 248.06,18.34 248.12,16.95 248.19,18.94 248.25,18.94 248.31,18.60 248.37,18.60 248.44,18.60 248.50,18.60 248.56,18.64 248.62,19.59 248.69,19.59 248.75,18.83 248.81,18.83 248.87,18.83 248.94,19.82 249.00,19.32 249.06,19.32 249.12,19.32 249.19,19.32 249.25,20.72 249.31,20.72 249.37,20.72 249.43,20.86 249.50,20.86 249.56,20.86 249.62,21.34 249.68,21.98 249.75,21.98 249.81,21.98 249.87,21.95 249.93,21.95 250.00,21.95 250.06,22.18 250.12,22.18 250.18,22.18 250.25,22.18 250.31,22.51 250.37,22.51 250.43,22.51 250.50,22.51 250.56,23.02 250.62,23.02 250.68,23.02 250.75,23.02 250.81,22.78 250.87,23.59 250.93,23.59 251.00,23.48 251.06,23.48 251.12,23.48 251.18,23.28 251.24,23.28 251.31,23.28 251.37,22.93 251.43,24.18 251.49,24.18 251.56,24.18 251.62,24.15 251.68,24.15 251.74,24.15 251.81,23.39 251.87,24.21 251.93,24.21 251.99,24.21 252.06,24.15 252.12,24.15 252.18,23.34 252.24,22.88 252.31,22.88 252.37,22.88 252.43,22.88 252.49,23.06 252.56,23.06 252.62,23.06 252.68,20.31 252.74,20.31 252.81,20.31 252.87,21.66 252.93,21.66 252.99,21.66 253.06,24.29 253.12,24.29 253.18,22.36 253.24,22.36 253.30,24.83 253.37,24.83 253.43,22.51 253.49,22.51 253.55,22.51 253.62,23.09 253.68,23.09 253.74,23.09 253.80,23.69 253.87,23.69 253.93,23.69 253.99,23.20 254.05,23.20 254.12,23.20 254.18,23.42 254.24,23.42 254.30,23.42 254.37,24.19 254.43,24.19 254.49,24.19 254.55,25.55 254.62,25.55 254.68,25.55 254.74,25.55 254.80,28.20 254.87,28.20 254.93,24.34 254.99,26.28 255.05,26.28 255.12,22.96 255.18,22.96 255.24,22.96 255.30,22.96 255.36,24.53 255.43,24.53 255.49,24.53 255.55,23.66 255.61,23.66 255.68,23.66 255.74,25.35 255.80,25.35 255.86,25.95 255.93,25.95 255.99,25.95 256.05,27.39 256.11,27.39 256.18,28.28 256.24,28.28 256.30,25.35 256.36,25.35 256.43,20.31 256.49,20.31 256.55,20.31 256.61,21.66 256.68,21.66 256.74,21.66 256.80,24.29 256.86,24.29 256.93,22.36 256.99,22.36 257.05,24.83 257.11,24.83 257.17,22.51 257.24,22.51 257.30,22.51 257.36,23.09 257.42,23.09 257.49,23.09 257.55,23.69 257.61,23.69 257.67,23.69 257.74,23.20 257.80,23.20 257.86,23.20 257.92,23.42 257.99,23.42 258.05,23.42 258.11,24.18 258.17,24.18 258.24,24.18 258.30,25.55 258.36,25.55 258.42,25.55 258.49,25.55 258.55,28.20 258.61,28.20 258.67,24.34 258.74,26.28 258.80,26.28 258.86,22.96 258.92,22.96 258.99,22.96 259.05,22.96 259.11,24.54 259.17,24.54 259.23,24.54 259.30,23.66 259.36,23.66 259.42,23.66 259.48,25.35 259.55,25.35 259.61,25.95 259.67,25.95 259.73,25.95 259.80,27.39 259.86,27.39 259.92,28.27 259.98,28.27 260.05,25.34 260.11,25.34 260.17,27.81 260.23,27.81 260.30,26.18 260.36,26.18 260.42,28.23 260.48,28.23 260.55,27.09 260.61,27.09 260.67,28.87 260.73,28.87 260.80,28.06 260.86,28.06 260.92,30.55 260.98,30.55 261.04,29.66 261.11,29.66 261.17,29.66 261.23,29.80 261.29,29.80 261.36,29.80 261.42,30.41 261.48,30.41 261.54,30.41 261.61,31.39 261.67,31.39 261.73,31.39 261.79,32.34 261.86,32.34 261.92,30.32 261.98,31.90 262.04,31.90 262.11,31.90 262.17,31.90 262.23,32.21 262.29,32.21 262.36,32.21 262.42,31.11 262.48,31.11 262.54,33.09 262.61,33.09 262.67,33.09 262.73,33.09 262.79,32.22 262.86,32.67 262.92,32.67 262.98,32.67 263.04,33.55 263.10,33.55 263.17,34.64 263.23,34.64 263.29,34.64 263.35,35.63 263.42,35.63 263.48,35.63 263.54,34.97 263.60,34.97 263.67,34.97 263.73,35.78 263.79,35.78 263.85,35.78 263.92,35.41 263.98,35.41 264.04,35.73 264.10,35.73 264.17,34.48 264.23,34.48 264.29,34.98 264.35,34.98 264.42,34.98 264.48,35.43 264.54,34.21 264.60,34.21 264.67,34.25 264.73,34.25 264.79,34.25 264.85,34.26 264.91,34.26 264.98,34.26 265.04,34.26 265.10,34.41 265.16,34.41 265.23,34.41 265.29,34.97 265.35,34.97 265.41,34.97 265.48,34.03 265.54,34.03 265.60,34.03 265.66,32.94 265.73,32.94 265.79,32.94 265.85,32.45 265.91,32.45 265.98,32.45 266.04,32.32 266.10,32.32 266.16,32.32 266.23,34.11 266.29,34.11 266.35,34.11 266.41,36.41 266.48,36.41 266.54,34.03 266.60,34.03 266.66,36.22 266.73,36.22 266.79,36.22 266.85,35.99 266.91,38.20 266.97,38.20 267.04,37.09 267.10,37.09 267.16,37.09 267.22,36.65 267.29,36.65 267.35,36.65 267.41,36.65 267.47,36.41 267.54,36.41 267.60,36.41 267.66,36.41 267.72,36.78 267.79,36.78 267.85,36.78 267.91,35.43 267.97,35.43 268.04,37.85 268.10,35.84 268.16,35.84 268.22,35.84 268.29,35.84 268.35,37.16 268.41,37.16 268.47,37.16 268.54,36.25 268.60,36.25 268.66,36.25 268.72,36.06 268.78,36.06 268.85,36.06 268.91,36.06 268.97,37.88 269.03,37.88 269.10,37.88 269.16,37.30 269.22,37.30 269.28,37.30 269.35,38.57 269.41,38.57 269.47,38.57 269.53,38.57 269.60,38.92 269.66,38.92 269.72,38.92 269.78,39.61 269.85,39.61 269.91,39.61 269.97,40.22 270.03,40.22 270.10,40.22 270.16,40.01 270.22,40.01 270.28,40.01 270.35,40.73 270.41,40.73 270.47,40.73 270.53,40.16 270.60,42.90 270.66,42.90 270.72,44.28 270.78,41.15 270.84,43.04 270.91,43.04 270.97,43.04 271.03,44.23 271.09,44.23 271.16,44.23 271.22,42.72 271.28,42.72 271.34,42.72 271.41,42.72 271.47,41.83 271.53,41.83 271.59,45.01 271.66,43.94 271.72,43.94 271.78,43.94 271.84,43.94 271.91,44.82 271.97,44.82 272.03,44.82 272.09,42.15 272.16,42.15 272.22,45.36 272.28,45.36 272.34,42.52 272.41,42.52 272.47,45.30 272.53,45.30 272.59,45.30 272.65,47.79 272.72,44.51 272.78,44.51 272.84,47.12 272.90,47.12 272.97,45.78 273.03,45.78 273.09,45.78 273.15,46.28 273.22,46.28 273.28,46.28 273.34,46.52 273.40,46.52 273.47,46.52 273.53,45.53 273.59,45.53 273.65,45.53 273.72,45.53 273.78,43.86 273.84,47.14 273.90,47.14 273.97,45.27 274.03,45.27 274.09,45.27 274.15,47.82 274.22,44.95 274.28,44.95 274.34,44.95 274.40,47.27 274.47,44.46 274.53,44.46 274.59,44.46 274.65,44.99 274.71,44.20 274.78,44.20 274.84,44.20 274.90,44.91 274.96,45.27 275.03,45.27 275.09,45.27 275.15,46.62 275.21,45.80 275.28,45.80 275.34,45.80 275.40,47.73 275.46,46.68 275.53,46.68 275.59,47.63 275.65,47.63 275.71,47.63 275.78,47.24 275.84,47.24 275.90,47.24 275.96,49.45 276.03,49.45 276.09,49.45 276.15,47.08 276.21,47.08 276.28,47.08 276.34,47.89 276.40,47.89 276.46,47.89 276.53,45.99 276.59,45.99 276.65,45.99 276.71,47.33 276.77,47.33 276.84,47.33 276.90,46.30 276.96,46.30 277.02,46.30 277.09,46.30 277.15,47.22 277.21,47.22 277.27,47.22 277.34,47.22 277.40,47.79 277.46,47.79 277.52,47.79 277.59,46.05 277.65,46.05 277.71,46.05 277.77,47.62 277.84,47.62 277.90,47.62 277.96,48.38 278.02,48.38 278.09,48.38 278.15,48.38 278.21,48.97 278.27,48.97 278.34,48.97 278.40,49.90 278.46,49.90 278.52,46.56 278.58,47.05 278.65,47.05 278.71,47.05 278.77,47.44 278.83,47.44 278.90,47.44 278.96,48.32 279.02,48.32 279.08,48.32 279.15,48.88 279.21,48.88 279.27,48.88 279.33,48.96 279.40,48.96 279.46,48.96 279.52,48.12 279.58,48.12 279.65,48.12 279.71,48.12 279.77,47.02 279.83,47.02 279.90,50.15 279.96,48.75 280.02,48.75 280.08,48.75 280.15,51.30 280.21,48.86 280.27,48.86 280.33,48.86 280.40,51.48 280.46,51.48 280.52,48.84 280.58,48.84 280.64,51.05 280.71,51.05 280.77,48.27 280.83,49.86 280.89,49.86 280.96,49.86 281.02,49.86 281.08,49.23 281.14,49.23 281.21,49.23 281.27,50.45 281.33,50.45 281.39,51.67 281.46,51.67 281.52,51.67 281.58,52.39 281.64,52.39 281.71,52.85 281.77,52.85 281.83,52.85 281.89,52.23 281.96,52.23 282.02,52.33 282.08,52.33 282.14,52.33 282.21,52.57 282.27,52.57 282.33,52.57 282.39,52.96 282.45,52.96 282.52,53.42 282.58,53.42 282.64,52.41 282.70,52.41 282.77,53.24 282.83,53.24 282.89,52.29 282.95,52.29 283.02,52.98 283.08,52.98 283.14,52.98 283.20,51.60 283.27,51.60 283.33,51.60 283.39,52.48 283.45,52.48 283.52,52.48 283.58,53.03 283.64,53.03 283.70,53.22 283.77,53.22 283.83,52.25 283.89,51.88 283.95,51.88 284.02,52.71 284.08,51.67 284.14,51.67 284.20,51.67 284.27,51.67 284.33,50.40 284.39,50.40 284.45,50.40 284.51,51.82 284.58,51.82 284.64,51.82 284.70,51.23 284.76,52.83 284.83,52.83 284.89,51.36 284.95,51.36 285.01,52.54 285.08,52.54 285.14,49.76 285.20,49.76 285.26,50.52 285.33,50.52 285.39,50.52 285.45,50.97 285.51,50.97 285.58,50.97 285.64,51.34 285.70,51.34 285.76,51.34 285.83,51.85 285.89,51.85 285.95,51.85 286.01,51.85 286.08,51.91 286.14,51.91 286.20,51.91 286.26,50.33 286.32,50.33 286.39,50.56 286.45,50.56 286.51,47.09 286.57,47.33 286.64,47.33 286.70,47.33 286.76,47.33 286.82,48.67 286.89,48.67 286.95,48.67 287.01,49.84 287.07,47.69 287.14,47.69 287.20,50.49 287.26,50.49 287.32,50.49 287.39,51.17 287.45,51.17 287.51,52.61 287.57,52.61 287.64,52.61 287.70,53.53 287.76,53.53 287.82,53.53 287.89,53.24 287.95,53.24 288.01,51.76 288.07,51.76 288.14,51.76 288.20,51.76 288.26,49.06 288.32,51.31 288.38,51.31 288.45,51.31 288.51,50.45 288.57,50.45 288.63,50.45 288.70,50.45 288.76,52.55 288.82,52.55 288.88,49.83 288.95,50.29 289.01,50.29 289.07,50.29 289.13,50.29 289.20,49.87 289.26,49.87 289.32,49.87 289.38,50.87 289.45,50.87 289.51,49.32 289.57,49.32 289.63,50.20 289.70,50.20 289.76,50.20 289.82,51.95 289.88,51.95 289.95,48.70 290.01,49.85 290.07,49.85 290.13,49.85 290.19,49.85 290.26,51.52 290.32,51.52 290.38,51.52 290.44,53.70 290.51,53.70 290.57,49.21 290.63,50.35 290.69,50.35 290.76,50.35 290.82,49.86 290.88,49.86 290.94,49.86 291.01,50.34 291.07,52.55 291.13,52.55 291.19,53.14 291.26,53.14 291.32,53.14 291.38,53.13 291.44,53.13 291.51,53.13 291.57,54.32 291.63,54.32 291.69,56.00 291.76,56.00 291.82,51.98 291.88,53.55 291.94,53.55 292.01,53.55 292.07,54.94 292.13,54.94 292.19,51.43 292.25,52.01 292.32,52.01 292.38,52.01 292.44,52.13 292.50,52.13 292.57,52.43 292.63,52.43 292.69,52.43 292.75,52.53 292.82,52.53 292.88,52.53 292.94,52.55 293.00,52.55 293.07,53.20 293.13,50.78 293.19,50.78 293.25,50.78 293.32,51.92 293.38,51.95 293.44,51.95 293.50,51.95 293.57,51.95 293.63,51.46 293.69,51.46 293.75,51.38 293.82,51.38 293.88,51.38 293.94,51.61 294.00,52.60 294.06,52.75 294.13,52.75 294.19,52.75 294.25,51.77 294.31,51.77 294.38,51.77 294.44,51.89 294.50,51.89 294.56,51.89 294.63,52.72 294.69,52.72 294.75,53.20 294.81,53.20 294.88,52.30 294.94,52.30 295.00,52.30 295.06,52.30 295.13,53.89 295.19,53.89 295.25,53.89 295.31,53.98 295.38,53.98 295.44,53.98 295.50,54.04 295.56,53.67 295.63,53.67 295.69,53.67 295.75,50.91 295.81,50.91 295.88,53.13 295.94,51.40 296.00,51.40" />
</svg>