<svg width="300" height="60" xmlns="http://www.w3.org/2000/svg">
  <polyline fill="rgba(255,200,0,0.3)" stroke="#ffbb00" stroke-width="2" points="4.00,55.53 4.12,55.46 4.23,55.51 4.35,55.66 4.47,55.91 4.58,55.89 4.70,55.71 4.82,55.52 4.94,55.45 5.05,55.21 5.17,55.21 5.29,55.20 5.40,55.16 5.52,55.17 5.64,55.24 5.75,55.23 5.87,55.36 5.99,55.34 6.11,55.38 6.22,55.36 6.34,55.31 6.46,55.27 6.57,55.22 6.69,55.13 6.81,55.00 6.92,54.83 7.04,54.64 7.16,54.42 7.28,54.23 7.39,53.99 7.51,53.69 7.63,53.51 7.74,53.31 7.86,52.98 7.98,52.63 8.09,52.40 8.21,52.24 8.33,52.05 8.45,51.75 8.56,51.51 8.68,51.44 8.80,51.46 8.91,51.20 9.03,51.34 9.15,51.13 9.26,50.94 9.38,50.19 9.50,49.94 9.62,49.19 9.73,48.71 9.85,48.30 9.97,47.90 10.08,47.51 10.20,47.49 10.32,47.91 10.43,48.29 10.55,48.27 10.67,47.95 10.79,47.65 10.90,46.77 11.02,46.10 11.14,45.70 11.25,45.74 11.37,46.22 11.49,45.83 11.60,45.40 11.72,45.19 11.84,45.17 11.96,45.05 12.07,44.66 12.19,44.14 12.31,43.38 12.42,43.22 12.54,43.47 12.66,43.87 12.77,43.43 12.89,42.90 13.01,42.72 13.12,42.90 13.24,43.18 13.36,43.57 13.48,43.47 13.59,43.50 13.71,43.88 13.83,44.01 13.94,43.40 14.06,42.70 14.18,42.18 14.29,42.08 14.41,41.94 14.53,41.77 14.65,41.97 14.76,42.24 14.88,42.47 15.00,42.42 15.11,42.32 15.23,41.77 15.35,54.89 15.46,54.81 15.58,54.91 15.70,55.18 15.82,55.25 15.93,55.37 16.05,55.41 16.17,55.39 16.28,55.58 16.40,55.69 16.52,55.66 16.63,55.54 16.75,55.46 16.87,55.52 16.99,55.66 17.10,52.24 17.22,52.05 17.34,51.75 17.45,51.51 17.57,51.44 17.69,51.46 17.80,51.20 17.92,51.34 18.04,51.13 18.16,50.94 18.27,50.72 18.39,50.53 18.51,50.38 18.62,50.19 18.74,49.94 18.86,41.77 18.97,41.50 19.09,41.68 19.21,41.92 19.33,41.80 19.44,41.41 19.56,40.87 19.68,40.22 19.79,39.73 19.91,39.55 20.03,39.60 20.14,39.96 20.26,40.08 20.38,39.98 20.50,39.94 20.61,40.09 20.73,39.67 20.85,39.01 20.96,38.42 21.08,38.03 21.20,37.83 21.31,37.98 21.43,38.12 21.55,38.32 21.67,38.28 21.78,37.84 21.90,36.98 22.02,36.14 22.13,36.00 22.25,35.81 22.37,35.65 22.48,35.79 22.60,36.52 22.72,36.77 22.83,36.37 22.95,35.93 23.07,35.61 23.19,35.25 23.30,34.58 23.42,34.22 23.54,34.28 23.65,34.46 23.77,34.33 23.89,33.67 24.00,33.16 24.12,32.96 24.24,32.80 24.36,32.61 24.47,32.67 24.59,32.89 24.71,33.12 24.82,33.00 24.94,32.09 25.06,31.46 25.17,30.35 25.29,29.75 25.41,29.41 25.53,29.31 25.64,29.53 25.76,29.60 25.88,29.61 25.99,29.88 26.11,29.73 26.23,29.04 26.34,28.81 26.46,27.86 26.58,27.56 26.70,27.46 26.81,27.17 26.93,26.88 27.05,26.49 27.16,26.10 27.28,25.71 27.40,25.53 27.51,25.47 27.63,25.69 27.75,25.79 27.87,25.67 27.98,25.60 28.10,25.51 28.22,25.51 28.33,25.82 28.45,25.91 28.57,26.10 28.68,26.15 28.80,26.30 28.92,26.43 29.04,26.52 29.15,26.35 29.27,26.10 29.39,26.03 29.50,25.77 29.62,25.61 29.74,25.09 29.85,24.61 29.97,24.50 30.09,24.55 30.21,24.66 30.32,24.95 30.44,25.31 30.56,25.31 30.67,25.22 30.79,24.69 30.91,24.56 31.02,24.55 31.14,24.53 31.26,24.60 31.38,24.66 31.49,24.88 31.61,24.96 31.73,25.24 31.84,25.47 31.96,25.50 32.08,25.47 32.19,25.30 32.31,25.12 32.43,24.74 32.54,24.60 32.66,24.56 32.78,24.48 32.90,24.57 33.01,24.76 33.13,24.81 33.25,24.63 33.36,24.53 33.48,24.39 33.60,24.16 33.71,23.91 33.83,23.78 33.95,23.68 34.07,23.59 34.18,23.62 34.30,23.43 34.42,23.42 34.53,23.30 34.65,23.14 34.77,23.11 34.88,23.05 35.00,23.01 35.12,22.95 35.24,22.88 35.35,22.84 35.47,22.80 35.59,22.77 35.70,22.77 35.82,22.68 35.94,22.65 36.05,22.69 36.17,22.81 36.29,22.86 36.41,22.85 36.52,23.00 36.64,23.20 36.76,22.95 36.87,22.41 36.99,22.30 37.11,21.75 37.22,21.48 37.34,21.71 37.46,22.21 37.58,22.24 37.69,22.23 37.81,22.20 37.93,22.15 38.04,22.10 38.16,22.04 38.28,21.98 38.39,21.91 38.51,21.84 38.63,21.77 38.75,21.69 38.86,21.60 38.98,21.51 39.10,21.45 39.21,21.41 39.33,21.22 39.45,21.12 39.56,21.14 39.68,21.29 39.80,21.25 39.92,21.25 40.03,21.42 40.15,21.38 40.27,21.40 40.38,21.35 40.50,21.25 40.62,21.25 40.73,21.26 40.85,21.27 40.97,21.29 41.08,21.28 41.20,21.27 41.32,21.26 41.44,21.24 41.55,21.23 41.67,21.22 41.79,21.28 41.90,21.37 42.02,21.49 42.14,21.59 42.25,21.40 42.37,21.16 42.49,21.22 42.61,20.90 42.72,20.77 42.84,20.72 42.96,20.58 43.07,20.75 43.19,20.85 43.31,20.84 43.42,20.87 43.54,20.87 43.66,20.56 43.78,20.29 43.89,20.28 44.01,20.43 44.13,20.44 44.24,20.51 44.36,20.52 44.48,20.48 44.59,20.47 44.71,20.81 44.83,21.11 44.95,21.05 45.06,20.90 45.18,20.80 45.30,20.79 45.41,20.78 45.53,20.71 45.65,20.47 45.76,20.34 45.88,20.23 46.00,20.04 46.12,19.98 46.23,19.93 46.35,20.02 46.47,20.23 46.58,20.49 46.70,20.78 46.82,20.84 46.93,20.83 47.05,20.60 47.17,20.50 47.29,20.40 47.40,20.30 47.52,20.18 47.64,20.06 47.75,19.93 47.87,19.79 47.99,19.65 48.10,19.42 48.22,19.04 48.34,18.73 48.46,18.54 48.57,18.42 48.69,18.36 48.81,18.40 48.92,18.51 49.04,18.59 49.16,19.14 49.27,20.09 49.39,20.47 49.51,21.08 49.62,20.75 49.74,20.77 49.86,20.90 49.98,20.81 50.09,20.77 50.21,20.61 50.33,20.46 50.44,20.03 50.56,19.72 50.68,19.41 50.79,19.10 50.91,18.69 51.03,18.53 51.15,18.46 51.26,18.59 51.38,18.78 51.50,18.93 51.61,19.00 51.73,19.36 51.85,19.37 51.96,19.43 52.08,19.30 52.20,19.05 52.32,18.72 52.43,18.57 52.55,18.42 52.67,18.32 52.78,18.27 52.90,18.00 53.02,17.86 53.13,17.65 53.25,17.49 53.37,17.37 53.49,17.37 53.60,17.25 53.72,17.16 53.84,17.02 53.95,16.96 54.07,17.00 54.19,17.78 54.30,17.97 54.42,17.64 54.54,17.32 54.66,17.16 54.77,17.31 54.89,17.70 55.01,17.88 55.12,17.80 55.24,17.69 55.36,17.61 55.47,17.52 55.59,17.36 55.71,16.93 55.83,16.51 55.94,15.58 56.06,15.25 56.18,14.88 56.29,14.68 56.41,14.81 56.53,14.80 56.64,14.75 56.76,14.63 56.88,14.48 57.00,14.46 57.11,14.48 57.23,14.69 57.35,14.65 57.46,14.63 57.58,14.69 57.70,15.04 57.81,15.54 57.93,15.16 58.05,14.59 58.17,14.45 58.28,14.65 58.40,15.25 58.52,15.58 58.63,15.71 58.75,15.59 58.87,15.30 58.98,15.02 59.10,14.90 59.22,15.01 59.33,15.07 59.45,15.05 59.57,14.88 59.69,14.69 59.80,14.54 59.92,14.57 60.04,14.67 60.15,14.82 60.27,14.85 60.39,14.82 60.50,14.69 60.62,14.57 60.74,14.31 60.86,14.06 60.97,13.82 61.09,13.51 61.21,13.34 61.32,13.20 61.44,13.15 61.56,13.08 61.67,13.10 61.79,13.04 61.91,12.89 62.03,12.72 62.14,12.62 62.26,12.56 62.38,12.57 62.49,12.81 62.61,12.99 62.73,12.94 62.84,12.80 62.96,12.88 63.08,12.84 63.20,12.93 63.31,13.04 63.43,13.20 63.55,13.54 63.66,13.66 63.78,13.16 63.90,13.18 64.01,13.20 64.13,12.94 64.25,13.17 64.37,13.70 64.48,13.84 64.60,13.92 64.72,13.99 64.83,14.19 64.95,14.47 65.07,14.45 65.18,14.32 65.30,14.33 65.42,14.39 65.54,14.44 65.65,14.44 65.77,14.50 65.89,14.65 66.00,14.58 66.12,14.55 66.24,14.60 66.35,14.66 66.47,14.73 66.59,14.83 66.71,14.87 66.82,14.79 66.94,14.79 67.06,14.64 67.17,14.73 67.29,14.76 67.41,14.87 67.52,14.97 67.64,15.09 67.76,15.26 67.88,15.54 67.99,15.33 68.11,15.09 68.23,14.91 68.34,14.73 68.46,14.63 68.58,14.45 68.69,14.51 68.81,14.51 68.93,14.39 69.04,14.25 69.16,14.15 69.28,13.99 69.40,13.85 69.51,13.75 69.63,13.82 69.75,13.91 69.86,13.85 69.98,13.69 70.10,13.58 70.21,13.30 70.33,12.84 70.45,12.61 70.57,12.42 70.68,12.28 70.80,12.14 70.92,12.23 71.03,12.67 71.15,12.75 71.27,12.86 71.38,12.77 71.50,12.75 71.62,12.76 71.74,12.63 71.85,12.21 71.97,11.78 72.09,11.13 72.20,10.61 72.32,10.26 72.44,10.13 72.55,9.99 72.67,9.86 72.79,9.70 72.91,9.54 73.02,9.41 73.14,9.31 73.26,9.18 73.37,9.03 73.49,8.54 73.61,8.41 73.72,8.13 73.84,8.04 73.96,7.95 74.08,7.80 74.19,7.81 74.31,8.01 74.43,8.18 74.54,8.07 74.66,7.99 74.78,7.85 74.89,7.70 75.01,7.58 75.13,7.47 75.25,7.38 75.36,7.24 75.48,7.12 75.60,6.97 75.71,6.89 75.83,6.96 75.95,7.22 76.06,7.21 76.18,7.14 76.30,7.07 76.42,6.95 76.53,6.78 76.65,6.64 76.77,6.39 76.88,6.23 77.00,5.86 77.12,5.63 77.23,5.53 77.35,5.25 77.47,5.01 77.58,4.76 77.70,4.57 77.82,4.39 77.94,4.21 78.05,4.12 78.17,4.03 78.29,4.04 78.40,4.26 78.52,54.87 78.64,54.76 78.75,54.91 78.87,55.19 78.99,55.25 79.11,55.38 79.22,55.34 79.34,55.50 79.46,55.61 79.57,55.71 79.69,55.63 79.81,55.60 79.92,55.50 80.04,55.54 80.16,55.62 80.28,56.00 80.39,55.88 80.51,55.67 80.63,55.52 80.74,55.46 80.86,55.25 80.98,55.25 81.09,55.16 81.21,55.14 81.33,55.15 81.45,55.25 81.56,55.31 81.68,55.39 81.80,55.35 81.91,55.43 82.03,55.35 82.15,55.32 82.26,55.30 82.38,55.24 82.50,55.11 82.62,54.99 82.73,54.79 82.85,54.62 82.97,54.41 83.08,54.24 83.20,53.95 83.32,53.69 83.43,53.47 83.55,53.28 83.67,52.94 83.79,52.64 83.90,52.36 84.02,52.24 84.14,52.05 84.25,51.77 84.37,51.56 84.49,51.36 84.60,51.52 84.72,51.11 84.84,51.23 84.96,51.15 85.07,50.93 85.19,50.66 85.31,50.56 85.42,50.36 85.54,50.20 85.66,49.97 85.77,49.29 85.89,48.81 86.01,48.30 86.12,47.87 86.24,47.59 86.36,47.45 86.48,47.88 86.59,48.27 86.71,48.20 86.83,48.06 86.94,47.77 87.06,46.80 87.18,46.13 87.29,45.68 87.41,45.66 87.53,45.95 87.65,45.84 87.76,45.29 87.88,45.28 88.00,44.99 88.11,44.97 88.23,44.79 88.35,44.14 88.46,43.37 88.58,43.15 88.70,43.45 88.82,43.90 88.93,43.40 89.05,42.76 89.17,42.76 89.28,42.89 89.40,43.10 89.52,43.57 89.63,43.44 89.75,43.35 89.87,43.97 89.99,43.98 90.10,43.50 90.22,42.67 90.34,42.16 90.45,42.09 90.57,41.95 90.69,41.76 90.80,41.88 90.92,42.32 91.04,42.44 91.16,42.38 91.27,42.25 91.39,41.85 91.51,41.43 91.62,41.66 91.74,42.03 91.86,41.73 91.97,41.35 92.09,40.75 92.21,40.17 92.33,39.66 92.44,39.54 92.56,39.62 92.68,39.92 92.79,39.88 92.91,39.85 93.03,39.90 93.14,40.11 93.26,39.61 93.38,39.09 93.50,38.38 93.61,38.00 93.73,37.84 93.85,38.02 93.96,38.09 94.08,38.36 94.20,38.41 94.31,37.83 94.43,37.13 94.55,36.08 94.67,35.97 94.78,35.85 94.90,35.62 95.02,35.88 95.13,36.65 95.25,36.74 95.37,36.42 95.48,36.02 95.60,35.63 95.72,35.22 95.83,34.46 95.95,34.23 96.07,34.02 96.19,34.38 96.30,34.22 96.42,33.45 96.54,33.12 96.65,32.88 96.77,32.79 96.89,32.56 97.00,32.82 97.12,33.01 97.24,33.15 97.36,32.96 97.47,31.97 97.59,31.43 97.71,30.44 97.82,29.71 97.94,29.42 98.06,29.30 98.17,29.39 98.29,29.62 98.41,29.50 98.53,29.90 98.64,29.70 98.76,29.12 98.88,28.86 98.99,27.79 99.11,27.62 99.23,27.37 99.34,27.04 99.46,26.90 99.58,26.43 99.70,26.04 99.81,25.68 99.93,25.49 100.05,25.49 100.16,25.60 100.28,25.75 100.40,25.69 100.51,25.55 100.63,25.53 100.75,25.56 100.87,25.93 100.98,25.91 101.10,25.97 101.22,26.26 101.33,26.19 101.45,26.40 101.57,26.35 101.68,26.43 101.80,26.14 101.92,25.87 102.04,25.70 102.15,25.59 102.27,25.36 102.39,24.75 102.50,24.47 102.62,24.50 102.74,24.62 102.85,25.00 102.97,25.30 103.09,25.30 103.21,25.08 103.32,24.63 103.44,24.53 103.56,24.47 103.67,24.52 103.79,24.63 103.91,24.67 104.02,24.88 104.14,24.88 104.26,25.23 104.38,25.37 104.49,25.43 104.61,25.54 104.73,25.29 104.84,25.17 104.96,24.80 105.08,24.53 105.19,24.61 105.31,24.48 105.43,24.56 105.54,24.85 105.66,24.70 105.78,24.58 105.90,24.46 106.01,24.33 106.13,24.06 106.25,23.99 106.36,23.82 106.48,23.67 106.60,23.72 106.71,23.52 106.83,23.43 106.95,23.49 107.07,23.38 107.18,23.16 107.30,23.09 107.42,23.07 107.53,23.01 107.65,22.94 107.77,22.90 107.88,22.97 108.00,22.79 108.12,22.80 108.24,22.69 108.35,22.72 108.47,22.66 108.59,22.64 108.70,22.86 108.82,22.81 108.94,22.93 109.05,23.06 109.17,23.23 109.29,22.88 109.41,22.43 109.52,22.32 109.64,21.82 109.76,21.48 109.87,21.76 109.99,22.20 110.11,22.25 110.22,22.23 110.34,22.17 110.46,22.14 110.58,22.08 110.69,22.04 110.81,21.97 110.93,21.90 111.04,21.83 111.16,21.74 111.28,21.66 111.39,21.59 111.51,21.51 111.63,21.44 111.75,21.39 111.86,21.18 111.98,21.05 112.10,21.21 112.21,21.30 112.33,21.25 112.45,21.25 112.56,21.40 112.68,21.38 112.80,21.44 112.92,21.30 113.03,21.22 113.15,21.24 113.27,21.25 113.38,21.26 113.50,21.27 113.62,21.27 113.73,21.27 113.85,21.26 113.97,21.23 114.08,21.22 114.20,21.22 114.32,21.30 114.44,21.38 114.55,21.43 114.67,21.62 114.79,21.46 114.90,21.16 115.02,21.25 115.14,20.90 115.25,20.77 115.37,20.72 115.49,20.55 115.61,20.73 115.72,20.83 115.84,20.84 115.96,20.88 116.07,20.87 116.19,20.50 116.31,20.34 116.42,20.33 116.54,20.43 116.66,20.39 116.78,20.53 116.89,20.51 117.01,20.49 117.13,20.49 117.24,20.77 117.36,21.07 117.48,21.02 117.59,20.94 117.71,20.84 117.83,20.80 117.95,20.79 118.06,20.73 118.18,20.51 118.30,20.35 118.41,20.18 118.53,20.02 118.65,19.93 118.76,19.90 118.88,19.97 119.00,20.17 119.12,20.44 119.23,20.79 119.35,20.97 119.47,20.85 119.58,20.62 119.70,20.50 119.82,20.39 119.93,20.30 120.05,20.18 120.17,20.06 120.29,19.93 120.40,19.73 120.52,19.69 120.64,19.47 120.75,18.97 120.87,18.77 120.99,18.58 121.10,18.39 121.22,18.33 121.34,18.44 121.46,18.38 121.57,18.62 121.69,19.14 121.81,19.96 121.92,20.52 122.04,20.84 122.16,20.60 122.27,20.84 122.39,20.83 122.51,20.82 122.62,20.88 122.74,20.64 122.86,20.60 122.98,20.09 123.09,19.90 123.21,19.27 123.33,19.05 123.44,18.80 123.56,18.51 123.68,18.45 123.79,18.61 123.91,18.78 124.03,18.99 124.15,18.94 124.26,19.41 124.38,19.28 124.50,19.31 124.61,19.28 124.73,18.98 124.85,18.80 124.96,18.60 125.08,18.43 125.20,18.27 125.32,18.20 125.43,18.02 125.55,17.85 125.67,17.63 125.78,17.51 125.90,17.37 126.02,17.39 126.13,17.24 126.25,17.14 126.37,17.02 126.49,16.93 126.60,16.92 126.72,17.74 126.84,18.10 126.95,17.56 127.07,17.36 127.19,17.05 127.30,17.21 127.42,17.56 127.54,17.71 127.66,17.66 127.77,17.59 127.89,17.43 128.01,17.50 128.12,17.29 128.24,16.83 128.36,16.43 128.47,15.68 128.59,15.23 128.71,14.84 128.83,14.64 128.94,14.81 129.06,14.67 129.18,14.83 129.29,14.58 129.41,14.35 129.53,14.46 129.64,14.61 129.76,14.68 129.88,14.65 130.00,14.61 130.11,14.59 130.23,14.96 130.35,15.47 130.46,15.13 130.58,14.51 130.70,14.44 130.81,14.61 130.93,15.17 131.05,15.61 131.17,15.67 131.28,15.59 131.40,15.33 131.52,14.97 131.63,14.89 131.75,15.03 131.87,14.97 131.98,15.02 132.10,14.81 132.22,14.73 132.33,14.56 132.45,14.56 132.57,14.67 132.69,14.73 132.80,14.80 132.92,14.78 133.04,14.67 133.15,14.58 133.27,14.26 133.39,14.06 133.50,13.83 133.62,13.56 133.74,13.39 133.86,13.17 133.97,13.16 134.09,13.10 134.21,13.07 134.32,13.01 134.44,12.87 134.56,12.69 134.67,12.60 134.79,12.57 134.91,12.64 135.03,12.85 135.14,12.91 135.26,12.91 135.38,12.90 135.49,12.75 135.61,12.85 135.73,12.90 135.84,12.98 135.96,13.25 136.08,13.52 136.20,13.70 136.31,13.24 136.43,13.16 136.55,13.14 136.66,12.77 136.78,13.16 136.90,13.44 137.01,13.83 137.13,13.92 137.25,13.98 137.37,14.20 137.48,14.57 137.60,14.49 137.72,14.27 137.83,14.31 137.95,14.38 138.07,14.44 138.18,14.44 138.30,14.54 138.42,14.51 138.54,14.57 138.65,14.53 138.77,14.58 138.89,14.65 139.00,14.73 139.12,14.93 139.24,14.79 139.35,14.78 139.47,14.77 139.59,14.77 139.71,14.62 139.82,14.75 139.94,14.85 140.06,14.95 140.17,15.07 140.29,15.26 140.41,15.46 140.52,15.29 140.64,14.99 140.76,14.97 140.88,14.73 140.99,14.48 141.11,14.60 141.23,14.54 141.34,14.51 141.46,14.36 141.58,14.23 141.69,14.08 141.81,13.98 141.93,13.86 142.04,13.80 142.16,13.91 142.28,13.71 142.40,13.82 142.51,13.56 142.63,13.68 142.75,13.43 142.86,12.80 142.98,12.59 143.10,12.39 143.21,12.25 143.33,12.14 143.45,12.11 143.57,12.37 143.68,12.69 143.80,12.69 143.92,12.70 144.03,12.62 144.15,12.63 144.27,12.49 144.38,12.31 144.50,11.80 144.62,11.16 144.74,10.62 144.85,10.25 144.97,10.12 145.09,9.98 145.20,9.84 145.32,9.67 145.44,9.54 145.55,9.39 145.67,9.30 145.79,9.15 145.91,9.05 146.02,8.71 146.14,8.19 146.26,8.25 146.37,7.92 146.49,8.06 146.61,7.75 146.72,7.79 146.84,8.19 146.96,7.84 147.08,8.06 147.19,7.99 147.31,7.70 147.43,7.66 147.54,7.57 147.66,7.50 147.78,7.29 147.89,7.23 148.01,7.09 148.13,6.94 148.25,6.86 148.36,7.01 148.48,7.08 148.60,7.28 148.71,7.16 148.83,7.12 148.95,7.11 149.06,6.80 149.18,6.50 149.30,6.50 149.42,6.13 149.53,5.76 149.65,5.63 149.77,5.51 149.88,5.39 150.00,5.02 150.12,4.80 150.23,4.59 150.35,4.32 150.47,4.18 150.58,4.15 150.70,4.00 150.82,4.02 150.94,4.24 151.05,54.81 151.17,54.60 151.29,54.76 151.40,55.23 151.52,55.33 151.64,55.40 151.75,55.26 151.87,55.36 151.99,55.36 152.11,55.53 152.22,55.66 152.34,55.68 152.46,55.30 152.57,55.48 152.69,55.45 152.81,55.80 152.92,55.61 153.04,55.69 153.16,55.37 153.28,55.38 153.39,55.38 153.51,55.06 153.63,55.16 153.74,55.03 153.86,55.15 153.98,55.24 154.09,55.24 154.21,55.32 154.33,55.35 154.45,55.39 154.56,55.37 154.68,55.33 154.80,55.28 154.91,55.19 155.03,55.11 155.15,55.01 155.26,54.78 155.38,54.78 155.50,54.50 155.62,54.27 155.73,53.98 155.85,53.70 155.97,53.52 156.08,53.42 156.20,53.20 156.32,52.76 156.43,52.54 156.55,52.40 156.67,52.21 156.79,52.00 156.90,51.86 157.02,51.28 157.14,51.26 157.25,51.26 157.37,51.29 157.49,51.15 157.60,50.85 157.72,50.68 157.84,50.68 157.96,50.34 158.07,50.34 158.19,49.84 158.31,49.62 158.42,48.58 158.54,48.40 158.66,48.27 158.77,47.49 158.89,47.59 159.01,47.82 159.12,48.27 159.24,48.24 159.36,48.24 159.48,47.79 159.59,47.20 159.71,46.50 159.83,45.98 159.94,45.67 160.06,46.39 160.18,46.10 160.29,45.83 160.41,45.77 160.53,44.89 160.65,44.77 160.76,44.79 160.88,43.96 161.00,43.49 161.11,43.49 161.23,43.89 161.35,43.72 161.46,43.60 161.58,42.81 161.70,42.84 161.82,42.87 161.93,43.18 162.05,43.59 162.17,43.26 162.28,43.66 162.40,43.52 162.52,43.77 162.63,43.30 162.75,42.81 162.87,42.24 162.99,42.13 163.10,41.84 163.22,41.87 163.34,41.87 163.45,42.27 163.57,42.34 163.69,42.30 163.80,42.15 163.92,41.85 164.04,41.62 164.16,41.68 164.27,42.18 164.39,41.29 164.51,41.08 164.62,40.67 164.74,40.20 164.86,39.73 164.97,39.49 165.09,39.34 165.21,40.12 165.33,40.11 165.44,40.06 165.56,40.08 165.68,40.21 165.79,39.21 165.91,38.78 166.03,38.38 166.14,38.04 166.26,37.75 166.38,38.24 166.50,38.35 166.61,38.58 166.73,37.98 166.85,37.86 166.96,37.22 167.08,36.50 167.20,36.08 167.31,35.61 167.43,35.56 167.55,35.90 167.67,36.65 167.78,36.86 167.90,36.29 168.02,35.90 168.13,35.55 168.25,35.18 168.37,34.68 168.48,34.55 168.60,34.14 168.72,34.35 168.83,34.27 168.95,33.41 169.07,33.16 169.19,32.73 169.30,32.72 169.42,32.49 169.54,32.84 169.65,32.72 169.77,33.35 169.89,32.66 170.00,31.77 170.12,31.29 170.24,30.81 170.36,29.80 170.47,29.81 170.59,29.14 170.71,29.37 170.82,29.68 170.94,29.86 171.06,29.97 171.17,29.63 171.29,29.19 171.41,28.48 171.53,28.13 171.64,27.99 171.76,27.23 171.88,27.07 171.99,27.05 172.11,26.52 172.23,26.22 172.34,25.81 172.46,25.46 172.58,25.61 172.70,25.96 172.81,25.59 172.93,25.95 173.05,25.81 173.16,25.57 173.28,25.65 173.40,25.95 173.51,25.84 173.63,26.15 173.75,26.21 173.87,26.38 173.98,26.60 174.10,25.98 174.22,25.95 174.33,25.76 174.45,25.54 174.57,25.86 174.68,25.22 174.80,25.22 174.92,25.20 175.04,24.62 175.15,24.85 175.27,24.39 175.39,24.64 175.50,25.25 175.62,25.33 175.74,24.88 175.85,25.02 175.97,24.71 176.09,24.27 176.21,24.68 176.32,24.87 176.44,24.78 176.56,24.83 176.67,24.95 176.79,25.17 176.91,25.07 177.02,25.42 177.14,25.14 177.26,25.08 177.38,25.04 177.49,24.66 177.61,24.25 177.73,24.59 177.84,24.49 177.96,24.56 178.08,25.09 178.19,24.69 178.31,24.55 178.43,24.29 178.54,24.51 178.66,24.13 178.78,24.26 178.90,23.89 179.01,23.58 179.13,23.82 179.25,23.44 179.36,23.56 179.48,23.69 179.60,23.28 179.71,23.30 179.83,23.27 179.95,22.80 180.07,22.90 180.18,22.65 180.30,22.93 180.42,22.82 180.53,22.76 180.65,22.99 180.77,22.75 180.88,22.79 181.00,22.65 181.12,22.61 181.24,22.60 181.35,22.56 181.47,23.05 181.59,23.14 181.70,23.24 181.82,22.99 181.94,22.57 182.05,22.22 182.17,21.90 182.29,21.74 182.41,22.00 182.52,22.05 182.64,22.40 182.76,21.99 182.87,22.23 182.99,22.01 183.11,22.06 183.22,22.06 183.34,22.01 183.46,21.94 183.58,21.91 183.69,21.62 183.81,21.61 183.93,21.45 184.04,21.45 184.16,21.40 184.28,21.42 184.39,21.19 184.51,20.94 184.63,21.05 184.75,20.95 184.86,21.20 184.98,21.30 185.10,21.24 185.21,21.38 185.33,21.24 185.45,21.31 185.56,21.33 185.68,21.29 185.80,21.29 185.92,21.32 186.03,21.33 186.15,21.33 186.27,21.33 186.38,21.32 186.50,21.30 186.62,21.27 186.73,21.29 186.85,21.38 186.97,21.46 187.08,21.57 187.20,21.54 187.32,21.33 187.44,21.16 187.55,21.16 187.67,20.97 187.79,20.84 187.90,20.61 188.02,20.61 188.14,20.72 188.25,20.80 188.37,20.84 188.49,20.85 188.61,20.79 188.72,20.38 188.84,20.58 188.96,20.53 189.07,20.57 189.19,20.57 189.31,20.55 189.42,20.49 189.54,20.36 189.66,20.52 189.78,20.78 189.89,21.13 190.01,21.02 190.13,21.08 190.24,20.73 190.36,20.78 190.48,20.92 190.59,20.58 190.71,20.54 190.83,20.44 190.95,20.20 191.06,20.08 191.18,19.89 191.30,19.89 191.41,19.89 191.53,20.08 191.65,20.34 191.76,20.60 191.88,20.81 192.00,20.78 192.12,20.78 192.23,20.51 192.35,20.46 192.47,20.24 192.58,20.21 192.70,19.88 192.82,19.91 192.93,19.60 193.05,19.68 193.17,19.41 193.29,18.94 193.40,18.77 193.52,18.54 193.64,18.53 193.75,18.25 193.87,18.52 193.99,18.09 194.10,18.44 194.22,19.29 194.34,19.74 194.46,20.79 194.57,20.61 194.69,21.11 194.81,20.75 194.92,21.16 195.04,20.62 195.16,20.89 195.27,20.41 195.39,20.63 195.51,19.99 195.62,20.33 195.74,19.49 195.86,19.08 195.98,18.69 196.09,18.52 196.21,18.52 196.33,18.66 196.44,19.15 196.56,18.84 196.68,18.59 196.79,19.21 196.91,18.86 197.03,19.68 197.15,19.21 197.26,19.27 197.38,18.77 197.50,18.68 197.61,18.44 197.73,18.22 197.85,18.20 197.96,17.98 198.08,17.76 198.20,17.60 198.32,17.60 198.43,17.39 198.55,17.44 198.67,17.31 198.78,17.18 198.90,17.05 199.02,16.94 199.13,17.09 199.25,17.48 199.37,17.78 199.49,17.53 199.60,17.53 199.72,17.43 199.84,17.16 199.95,17.12 200.07,17.98 200.19,17.62 200.30,17.27 200.42,17.71 200.54,17.39 200.66,17.09 200.77,16.70 200.89,16.17 201.01,16.17 201.12,15.25 201.24,14.96 201.36,14.45 201.47,14.58 201.59,14.58 201.71,14.65 201.83,14.15 201.94,14.12 202.06,14.67 202.18,14.20 202.29,14.18 202.41,14.54 202.53,14.71 202.64,14.85 202.76,15.08 202.88,15.42 203.00,15.24 203.11,14.75 203.23,14.65 203.35,14.41 203.46,14.91 203.58,15.43 203.70,15.50 203.81,15.61 203.93,15.19 204.05,15.09 204.17,14.98 204.28,15.13 204.40,15.23 204.52,15.25 204.63,14.66 204.75,14.65 204.87,14.61 204.98,14.39 205.10,14.67 205.22,14.71 205.33,14.71 205.45,14.88 205.57,14.73 205.69,14.46 205.80,14.18 205.92,14.19 206.04,13.86 206.15,13.49 206.27,13.52 206.39,13.35 206.50,13.10 206.62,13.10 206.74,13.12 206.86,13.12 206.97,12.90 207.09,12.72 207.21,12.55 207.32,12.77 207.44,12.78 207.56,12.92 207.67,13.04 207.79,12.95 207.91,12.79 208.03,12.66 208.14,12.96 208.26,12.81 208.38,13.23 208.49,13.04 208.61,13.40 208.73,14.18 208.84,13.36 208.96,13.10 209.08,12.75 209.20,13.22 209.31,13.33 209.43,12.92 209.55,13.66 209.66,14.07 209.78,13.99 209.90,14.02 210.01,14.74 210.13,14.50 210.25,14.07 210.37,14.07 210.48,14.53 210.60,14.49 210.72,14.58 210.83,14.58 210.95,14.71 211.07,14.69 211.18,14.30 211.30,14.50 211.42,14.43 211.54,14.85 211.65,14.85 211.77,15.09 211.89,14.72 212.00,14.65 212.12,14.69 212.24,14.53 212.35,14.82 212.47,14.80 212.59,14.92 212.71,15.07 212.82,15.26 212.94,15.46 213.06,15.44 213.17,15.16 213.29,14.99 213.41,14.75 213.52,14.76 213.64,14.49 213.76,14.60 213.88,14.39 213.99,14.12 214.11,14.24 214.23,13.99 214.34,14.37 214.46,14.15 214.58,13.92 214.69,14.33 214.81,14.17 214.93,13.95 215.04,13.73 215.16,13.54 215.28,13.30 215.40,13.06 215.51,12.82 215.63,12.63 215.75,12.04 215.86,12.30 215.98,12.37 216.10,12.37 216.21,12.46 216.33,12.47 216.45,13.04 216.57,12.89 216.68,12.20 216.80,12.72 216.92,12.15 217.03,12.08 217.15,11.15 217.27,10.89 217.38,10.18 217.50,9.98 217.62,9.79 217.74,9.51 217.85,9.78 217.97,9.78 218.09,9.45 218.20,9.56 218.32,9.14 218.44,9.10 218.55,8.57 218.67,8.57 218.79,8.06 218.91,8.17 219.02,8.17 219.14,8.30 219.26,7.87 219.37,8.17 219.49,7.79 219.61,8.03 219.72,7.62 219.84,7.75 219.96,7.28 220.08,7.86 220.19,7.46 220.31,7.58 220.43,7.20 220.54,7.33 220.66,7.11 220.78,7.01 220.89,6.98 221.01,6.97 221.13,7.58 221.25,7.48 221.36,7.43 221.48,7.44 221.60,6.62 221.71,6.59 221.83,6.56 221.95,6.48 222.06,5.71 222.18,5.71 222.30,5.54 222.42,5.31 222.53,5.04 222.65,5.19 222.77,4.85 222.88,4.52 223.00,4.25 223.12,4.35 223.23,4.15 223.35,4.08 223.47,4.31 223.58,54.87 223.70,53.98 223.82,53.98 223.94,55.19 224.05,55.19 224.17,55.19 224.29,54.53 224.40,54.53 224.52,54.53 224.64,54.53 224.75,54.86 224.87,54.86 224.99,54.86 225.11,55.24 225.22,55.24 225.34,55.24 225.46,54.64 225.57,54.64 225.69,54.64 225.81,55.03 225.92,55.03 226.04,55.03 226.16,55.03 226.28,54.37 226.39,54.37 226.51,54.37 226.63,54.87 226.74,54.87 226.86,54.87 226.98,55.26 227.09,55.26 227.21,55.26 227.33,55.25 227.45,55.25 227.56,55.25 227.68,55.06 227.80,55.06 227.91,55.06 228.03,54.88 228.15,54.33 228.26,54.33 228.38,54.33 228.50,53.76 228.62,53.33 228.73,53.33 228.85,53.33 228.97,52.79 229.08,52.79 229.20,52.79 229.32,52.30 229.43,52.30 229.55,52.30 229.67,51.90 229.79,51.90 229.90,51.90 230.02,51.44 230.14,50.69 230.25,50.69 230.37,50.52 230.49,50.52 230.60,50.52 230.72,50.70 230.84,50.70 230.96,48.65 231.07,48.26 231.19,48.26 231.31,48.26 231.42,48.66 231.54,48.66 231.66,48.09 231.77,48.90 231.89,48.90 232.01,48.90 232.12,47.46 232.24,47.46 232.36,47.46 232.48,46.45 232.59,46.45 232.71,46.45 232.83,45.80 232.94,45.80 233.06,45.80 233.18,45.12 233.29,45.12 233.41,45.12 233.53,44.88 233.65,44.88 233.76,44.88 233.88,44.88 234.00,43.54 234.11,43.54 234.23,44.82 234.35,44.03 234.46,44.03 234.58,44.03 234.70,42.66 234.82,43.99 234.93,43.99 235.05,43.09 235.17,43.09 235.28,43.09 235.40,42.19 235.52,42.19 235.63,42.62 235.75,41.78 235.87,41.78 235.99,41.78 236.10,41.33 236.22,41.33 236.34,41.33 236.45,40.89 236.57,40.89 236.69,40.89 236.80,40.56 236.92,40.56 237.04,40.24 237.16,40.24 237.27,40.24 237.39,39.22 237.51,39.22 237.62,38.22 237.74,40.20 237.86,40.20 237.97,40.14 238.09,40.14 238.21,40.14 238.33,37.92 238.44,37.92 238.56,37.24 238.68,37.24 238.79,37.24 238.91,38.40 239.03,38.40 239.14,38.41 239.26,36.19 239.38,36.19 239.50,36.27 239.61,36.27 239.73,37.40 239.85,35.65 239.96,35.65 240.08,35.65 240.20,36.87 240.31,36.63 240.43,36.63 240.55,35.85 240.67,35.85 240.78,35.85 240.90,34.66 241.02,34.66 241.13,34.66 241.25,33.18 241.37,34.51 241.48,34.51 241.60,34.51 241.72,32.96 241.83,32.77 241.95,32.77 242.07,32.77 242.19,32.77 242.30,33.02 242.42,33.02 242.54,31.81 242.65,31.81 242.77,31.81 242.89,31.32 243.00,31.32 243.12,29.40 243.24,29.40 243.36,29.64 243.47,29.64 243.59,29.64 243.71,29.71 243.82,29.71 243.94,27.93 244.06,27.93 244.17,27.93 244.29,27.72 244.41,27.72 244.53,27.72 244.64,27.72 244.76,27.22 244.88,27.22 244.99,27.22 245.11,26.21 245.23,26.21 245.34,26.21 245.46,26.64 245.58,26.09 245.70,26.09 245.81,26.09 245.93,26.09 246.05,26.09 246.16,25.51 246.28,25.51 246.40,25.51 246.51,25.34 246.63,25.34 246.75,25.34 246.87,24.97 246.98,24.97 247.10,24.97 247.22,23.99 247.33,23.99 247.45,25.84 247.57,25.84 247.68,24.24 247.80,24.24 247.92,24.24 248.04,26.15 248.15,24.84 248.27,24.84 248.39,25.75 248.50,25.75 248.62,24.16 248.74,24.16 248.85,25.15 248.97,25.15 249.09,24.92 249.21,24.92 249.32,24.11 249.44,24.11 249.56,25.23 249.67,24.32 249.79,24.32 249.91,24.32 250.02,24.22 250.14,24.22 250.26,24.22 250.38,25.23 250.49,24.12 250.61,24.12 250.73,24.12 250.84,25.31 250.96,24.02 251.08,24.02 251.19,24.64 251.31,24.64 251.43,24.64 251.54,23.60 251.66,23.60 251.78,23.60 251.90,24.12 252.01,24.12 252.13,24.12 252.25,24.24 252.36,24.24 252.48,22.81 252.60,22.93 252.71,22.93 252.83,22.93 252.95,23.67 253.07,22.46 253.18,22.46 253.30,22.46 253.42,23.28 253.53,22.71 253.65,22.71 253.77,22.71 253.88,22.57 254.00,22.57 254.12,22.57 254.24,22.56 254.35,22.56 254.47,22.56 254.59,21.69 254.70,21.69 254.82,21.69 254.94,21.65 255.05,21.65 255.17,21.65 255.29,20.29 255.41,21.34 255.52,21.34 255.64,21.34 255.76,21.72 255.87,21.72 255.99,21.72 256.11,21.68 256.22,21.68 256.34,21.68 256.46,20.97 256.58,20.97 256.69,20.97 256.81,20.97 256.93,20.14 257.04,20.14 257.16,20.81 257.28,20.81 257.39,20.81 257.51,20.81 257.63,20.57 257.75,20.80 257.86,20.80 257.98,20.80 258.10,20.87 258.21,20.87 258.33,20.87 258.45,20.95 258.56,20.95 258.68,20.95 258.80,20.91 258.92,20.91 259.03,20.91 259.15,21.01 259.27,21.01 259.38,21.01 259.50,21.24 259.62,21.24 259.73,21.24 259.85,21.18 259.97,21.18 260.08,21.18 260.20,21.32 260.32,21.32 260.44,20.75 260.55,20.60 260.67,20.60 260.79,20.74 260.90,20.74 261.02,20.74 261.14,20.67 261.25,20.67 261.37,21.24 261.49,21.24 261.61,21.24 261.72,21.21 261.84,21.21 261.96,21.03 262.07,20.24 262.19,20.24 262.31,20.82 262.42,20.82 262.54,20.82 262.66,21.31 262.78,21.31 262.89,21.31 263.01,21.18 263.13,20.44 263.24,20.41 263.36,20.41 263.48,20.41 263.59,20.24 263.71,20.04 263.83,20.04 263.95,20.04 264.06,20.04 264.18,20.33 264.30,20.33 264.41,20.33 264.53,20.62 264.65,20.71 264.76,20.71 264.88,20.71 265.00,20.72 265.12,20.72 265.23,19.81 265.35,19.84 265.47,19.84 265.58,19.84 265.70,20.02 265.82,18.95 265.93,18.95 266.05,18.95 266.17,18.32 266.29,18.32 266.40,18.32 266.52,17.71 266.64,17.93 266.75,18.99 266.87,18.99 266.99,20.05 267.10,20.05 267.22,20.05 267.34,21.41 267.46,21.41 267.57,20.09 267.69,20.90 267.81,20.90 267.92,20.90 268.04,21.56 268.16,21.56 268.27,19.42 268.39,19.42 268.51,20.05 268.62,18.45 268.74,18.45 268.86,18.45 268.98,19.84 269.09,19.01 269.21,19.01 269.33,19.01 269.44,18.27 269.56,18.27 269.68,18.27 269.79,20.36 269.91,18.87 270.03,18.87 270.15,18.87 270.26,17.97 270.38,17.97 270.50,17.97 270.61,17.34 270.73,17.84 270.85,17.84 270.96,17.84 271.08,17.30 271.20,17.30 271.32,17.30 271.43,16.94 271.55,16.94 271.67,16.94 271.78,16.81 271.90,17.86 272.02,17.86 272.13,17.86 272.25,16.74 272.37,16.74 272.49,16.74 272.60,17.90 272.72,17.90 272.84,17.90 272.95,16.95 273.07,16.95 273.19,16.95 273.30,15.99 273.42,15.99 273.54,15.99 273.66,15.99 273.77,14.43 273.89,14.17 274.01,14.17 274.12,14.17 274.24,13.67 274.36,13.67 274.47,13.67 274.59,13.67 274.71,12.16 274.83,13.36 274.94,13.36 275.06,13.36 275.18,14.23 275.29,14.23 275.41,14.23 275.53,14.60 275.64,14.60 275.76,14.60 275.88,14.41 276.00,14.41 276.11,14.41 276.23,15.54 276.35,15.54 276.46,15.54 276.58,15.94 276.70,15.94 276.81,16.06 276.93,16.06 277.05,16.06 277.17,14.63 277.28,14.63 277.40,14.63 277.52,14.78 277.63,14.78 277.75,14.78 277.87,14.65 277.98,14.65 278.10,14.65 278.22,14.65 278.33,14.12 278.45,14.12 278.57,14.12 278.69,14.12 278.80,14.16 278.92,13.25 279.04,13.25 279.15,13.25 279.27,13.17 279.39,13.17 279.50,13.17 279.62,13.17 279.74,12.54 279.86,12.54 279.97,12.54 280.09,12.41 280.21,12.41 280.32,12.41 280.44,12.24 280.56,12.24 280.67,12.24 280.79,11.54 280.91,13.62 281.03,13.62 281.14,12.67 281.26,12.67 281.38,12.67 281.49,14.64 281.61,12.28 281.73,12.28 281.84,13.77 281.96,13.77 282.08,13.77 282.20,12.65 282.31,12.65 282.43,12.65 282.55,14.62 282.66,14.62 282.78,14.62 282.90,13.43 283.01,13.43 283.13,15.01 283.25,15.01 283.37,15.01 283.48,13.62 283.60,15.13 283.72,15.13 283.83,14.05 283.95,14.05 284.07,14.05 284.18,14.05 284.30,15.01 284.42,15.01 284.54,15.01 284.65,14.09 284.77,14.09 284.89,15.08 285.00,15.08 285.12,15.00 285.24,15.00 285.35,15.00 285.47,15.38 285.59,15.38 285.71,15.04 285.82,15.24 285.94,15.24 286.06,15.24 286.17,14.77 286.29,14.77 286.41,14.77 286.52,14.03 286.64,15.25 286.76,15.25 286.88,15.25 286.99,14.70 287.11,14.70 287.23,14.70 287.34,14.17 287.46,14.17 287.58,14.17 287.69,13.56 287.81,13.56 287.93,13.56 288.04,12.92 288.16,12.92 288.28,12.92 288.40,13.20 288.51,13.20 288.63,13.20 288.75,11.24 288.86,13.07 288.98,13.07 289.10,13.07 289.21,11.03 289.33,12.51 289.45,12.51 289.57,12.51 289.68,12.40 289.80,12.40 289.92,10.56 290.03,9.93 290.15,9.93 290.27,9.93 290.38,11.13 290.50,11.13 290.62,11.13 290.74,11.13 290.85,9.65 290.97,9.65 291.09,9.65 291.20,9.64 291.32,9.64 291.44,9.64 291.55,9.64 291.67,8.29 291.79,8.29 291.91,10.26 292.02,9.08 292.14,9.08 292.26,9.08 292.37,7.74 292.49,7.74 292.61,9.73 292.72,9.73 292.84,8.23 292.96,8.23 293.08,8.23 293.19,7.21 293.31,7.21 293.43,7.21 293.54,6.99 293.66,8.89 293.78,8.89 293.89,8.90 294.01,8.90 294.13,6.77 294.25,6.63 294.36,6.63 294.48,6.63 294.60,6.33 294.71,6.33 294.83,6.33 294.95,6.33 295.06,5.51 295.18,5.51 295.30,5.51 295.42,4.59 295.53,4.59 295.65,5.78 295.77,4.79 295.88,4.79 296.00,4.38" />
</svg>