<svg width="300" height="60" xmlns="http://www.w3.org/2000/svg">
  <polyline fill="rgba(255,200,0,0.3)" stroke="#ffbb00" stroke-width="2" points="4.00,54.29 4.19,53.64 4.38,53.42 4.58,53.21 4.77,52.96 4.96,52.82 5.15,52.56 5.34,52.43 5.53,51.90 5.73,51.05 5.92,50.31 6.11,49.82 6.30,49.18 6.49,48.33 6.68,47.41 6.88,46.45 7.07,45.51 7.26,44.74 7.45,44.26 7.64,43.41 7.83,42.28 8.03,41.29 8.22,40.32 8.41,39.59 8.60,38.89 8.79,38.12 8.98,37.20 9.18,36.42 9.37,35.79 9.56,35.34 9.75,35.07 9.94,34.76 10.14,34.10 10.33,33.72 10.52,33.56 10.71,33.46 10.90,33.14 11.09,32.41 11.29,31.81 11.48,31.42 11.67,31.18 11.86,30.95 12.05,30.70 12.24,30.33 12.44,29.95 12.63,29.60 12.82,29.58 13.01,29.39 13.20,28.78 13.39,28.23 13.59,27.53 13.78,26.89 13.97,26.73 14.16,26.76 14.35,26.27 14.54,25.59 14.74,25.21 14.93,25.11 15.12,24.97 15.31,24.79 15.50,24.27 15.70,24.05 15.89,23.86 16.08,23.73 16.27,23.53 16.46,22.76 16.65,22.22 16.85,22.70 17.04,23.01 17.23,22.74 17.42,22.18 17.61,22.04 17.80,22.37 18.00,22.60 18.19,22.20 18.38,21.87 18.57,21.97 18.76,22.24 18.95,22.37 19.15,21.89 19.34,21.38 19.53,21.11 19.72,21.56 19.91,21.98 20.11,22.48 20.30,22.47 20.49,22.42 20.68,22.98 20.87,23.73 21.06,24.00 21.26,24.12 21.45,24.25 21.64,24.37 21.83,24.53 22.02,24.55 22.21,24.45 22.41,24.27 22.60,24.15 22.79,24.07 22.98,24.03 23.17,24.05 23.36,24.16 23.56,23.97 23.75,23.58 23.94,23.08 24.13,22.32 24.32,21.57 24.51,20.90 24.71,20.41 24.90,20.05 25.09,19.80 25.28,19.13 25.47,18.30 25.67,17.36 25.86,16.52 26.05,16.29 26.24,15.67 26.43,14.67 26.62,14.27 26.82,14.05 27.01,13.92 27.20,14.11 27.39,14.57 27.58,14.79 27.77,14.78 27.97,14.50 28.16,13.86 28.35,13.21 28.54,12.77 28.73,12.18 28.92,11.46 29.12,11.32 29.31,11.51 29.50,10.95 29.69,10.35 29.88,9.79 30.07,9.37 30.27,8.81 30.46,8.57 30.65,8.32 30.84,7.80 31.03,7.21 31.23,6.61 31.42,6.46 31.61,6.73 31.80,6.88 31.99,7.28 32.18,7.69 32.38,8.05 32.57,8.77 32.76,9.60 32.95,9.76 33.14,9.74 33.33,10.21 33.53,10.62 33.72,11.01 33.91,11.42 34.10,12.12 34.29,12.66 34.48,12.99 34.68,13.45 34.87,13.97 35.06,14.34 35.25,14.58 35.44,15.25 35.63,16.07 35.83,16.64 36.02,16.97 36.21,16.90 36.40,16.33 36.59,15.85 36.79,15.56 36.98,15.69 37.17,15.91 37.36,16.16 37.55,16.07 37.74,15.89 37.94,15.45 38.13,15.35 38.32,15.27 38.51,15.19 38.70,15.27 38.89,15.70 39.09,16.12 39.28,16.36 39.47,16.40 39.66,16.11 39.85,15.80 40.04,15.65 40.24,15.11 40.43,14.41 40.62,14.11 40.81,14.14 41.00,14.11 41.20,14.12 41.39,14.29 41.58,14.37 41.77,14.30 41.96,14.10 42.15,13.70 42.35,13.28 42.54,12.78 42.73,12.42 42.92,12.04 43.11,11.49 43.30,11.67 43.50,11.76 43.69,11.92 43.88,11.40 44.07,10.86 44.26,10.31 44.45,10.08 44.65,9.72 44.84,9.55 45.03,9.61 45.22,9.68 45.41,9.58 45.60,9.53 45.80,9.23 45.99,9.14 46.18,8.67 46.37,8.13 46.56,7.61 46.76,7.26 46.95,7.08 47.14,7.02 47.33,7.50 47.52,8.07 47.71,8.64 47.91,8.85 48.10,9.28 48.29,10.38 48.48,11.10 48.67,11.44 48.86,11.45 49.06,11.22 49.25,10.71 49.44,10.42 49.63,10.10 49.82,9.83 50.01,9.58 50.21,9.13 50.40,8.36 50.59,7.61 50.78,7.03 50.97,6.58 51.16,6.43 51.36,6.44 51.55,6.46 51.74,6.25 51.93,5.68 52.12,5.22 52.32,5.30 52.51,5.84 52.70,6.59 52.89,7.20 53.08,7.30 53.27,7.35 53.47,7.69 53.66,8.14 53.85,8.60 54.04,8.97 54.23,9.11 54.42,9.05 54.62,9.51 54.81,10.08 55.00,10.63 55.19,11.03 55.38,11.02 55.57,10.83 55.77,10.66 55.96,10.97 56.15,11.68 56.34,12.50 56.53,12.92 56.72,13.14 56.92,13.17 57.11,12.99 57.30,12.83 57.49,12.89 57.68,13.29 57.88,14.10 58.07,14.66 58.26,14.93 58.45,15.16 58.64,15.71 58.83,16.12 59.03,16.23 59.22,16.36 59.41,16.92 59.60,17.83 59.79,18.83 59.98,19.69 60.18,20.21 60.37,20.18 60.56,20.61 60.75,21.38 60.94,22.37 61.13,23.29 61.33,23.85 61.52,24.05 61.71,24.19 61.90,24.84 62.09,25.92 62.28,26.40 62.48,26.56 62.67,27.21 62.86,28.31 63.05,28.94 63.24,28.99 63.44,30.03 63.63,30.90 63.82,31.71 64.01,32.20 64.20,32.52 64.39,32.72 64.59,33.18 64.78,34.18 64.97,35.31 65.16,36.18 65.35,36.66 65.54,36.72 65.74,36.76 65.93,37.04 66.12,37.41 66.31,37.94 66.50,38.41 66.69,38.61 66.89,38.87 67.08,39.48 67.27,40.28 67.46,40.90 67.65,41.41 67.85,41.38 68.04,41.11 68.23,40.63 68.42,40.06 68.61,39.03 68.80,38.27 69.00,37.72 69.19,37.65 69.38,37.26 69.57,36.57 69.76,35.46 69.95,34.49 70.15,34.24 70.34,34.32 70.53,33.54 70.72,32.42 70.91,31.87 71.10,31.75 71.30,31.51 71.49,30.97 71.68,30.06 71.87,29.69 72.06,29.19 72.25,28.71 72.45,28.67 72.64,29.10 72.83,29.73 73.02,30.36 73.21,30.75 73.41,31.01 73.60,30.97 73.79,31.03 73.98,31.54 74.17,31.92 74.36,32.14 74.56,31.97 74.75,31.66 74.94,31.24 75.13,30.71 75.32,30.17 75.51,29.70 75.71,29.24 75.90,28.82 76.09,28.33 76.28,27.92 76.47,27.20 76.66,54.12 76.86,53.59 77.05,52.75 77.24,52.98 77.43,52.63 77.62,52.81 77.81,52.29 78.01,52.18 78.20,51.11 78.39,50.79 78.58,49.98 78.77,49.92 78.97,49.18 79.16,48.09 79.35,47.42 79.54,46.28 79.73,45.40 79.92,44.83 80.12,44.15 80.31,43.13 80.50,42.20 80.69,41.25 80.88,40.48 81.07,40.08 81.27,39.29 81.46,38.62 81.65,37.21 81.84,36.37 82.03,35.77 82.22,35.40 82.42,34.89 82.61,34.64 82.80,33.03 82.99,32.44 83.18,32.66 83.37,32.84 83.57,32.97 83.76,32.44 83.95,31.61 84.14,31.31 84.33,31.08 84.53,30.71 84.72,30.34 84.91,30.06 85.10,28.95 85.29,29.23 85.48,28.87 85.68,29.39 85.87,28.66 86.06,28.53 86.25,27.76 86.44,26.90 86.63,26.69 86.83,26.47 87.02,26.03 87.21,25.62 87.40,24.52 87.59,24.99 87.78,24.59 87.98,24.66 88.17,24.16 88.36,23.38 88.55,23.80 88.74,23.43 88.93,23.33 89.13,22.59 89.32,22.29 89.51,22.81 89.70,23.04 89.89,22.50 90.09,21.90 90.28,21.83 90.47,22.57 90.66,22.50 90.85,22.20 91.04,21.88 91.24,22.03 91.43,22.33 91.62,22.56 91.81,21.82 92.00,21.26 92.19,21.09 92.39,21.37 92.58,21.86 92.77,22.35 92.96,22.14 93.15,22.23 93.34,23.02 93.54,23.58 93.73,23.99 93.92,24.14 94.11,24.09 94.30,24.30 94.50,24.19 94.69,24.48 94.88,24.41 95.07,24.30 95.26,24.15 95.45,24.14 95.65,24.18 95.84,24.19 96.03,24.56 96.22,24.23 96.41,24.05 96.60,23.23 96.80,22.63 96.99,21.71 97.18,20.99 97.37,20.53 97.56,20.01 97.75,19.76 97.95,18.94 98.14,18.17 98.33,17.38 98.52,16.43 98.71,16.29 98.90,15.79 99.10,14.92 99.29,14.39 99.48,14.12 99.67,13.90 99.86,14.00 100.06,14.21 100.25,14.62 100.44,14.71 100.63,14.23 100.82,13.42 101.01,13.12 101.21,12.53 101.40,11.91 101.59,11.26 101.78,11.19 101.97,11.52 102.16,10.92 102.36,10.08 102.55,9.39 102.74,9.27 102.93,8.58 103.12,8.35 103.31,7.89 103.51,7.57 103.70,7.15 103.89,6.57 104.08,6.53 104.27,6.93 104.46,7.05 104.66,7.82 104.85,7.75 105.04,8.34 105.23,8.80 105.42,9.84 105.62,9.74 105.81,9.76 106.00,10.09 106.19,10.68 106.38,11.07 106.57,11.39 106.77,10.09 106.96,10.67 107.15,11.08 107.34,11.38 107.53,12.22 107.72,12.70 107.92,12.88 108.11,13.78 108.30,14.18 108.49,14.37 108.68,14.85 108.87,15.36 109.07,15.95 109.26,16.63 109.45,16.96 109.64,16.80 109.83,16.52 110.02,16.03 110.22,15.26 110.41,15.31 110.60,15.65 110.79,15.56 110.98,15.42 111.18,15.71 111.37,15.38 111.56,14.79 111.75,15.21 111.94,15.15 112.13,15.29 112.33,15.77 112.52,16.27 112.71,16.66 112.90,16.80 113.09,16.41 113.28,16.28 113.48,15.84 113.67,14.92 113.86,14.34 114.05,14.16 114.24,14.36 114.43,14.00 114.63,13.92 114.82,14.09 115.01,13.55 115.20,14.02 115.39,13.81 115.59,12.62 115.78,13.09 115.97,12.73 116.16,11.96 116.35,12.01 116.54,11.20 116.74,11.29 116.93,11.84 117.12,11.63 117.31,11.20 117.50,10.52 117.69,9.86 117.89,9.94 118.08,9.50 118.27,9.45 118.46,9.57 118.65,9.81 118.84,9.79 119.04,9.67 119.23,10.10 119.42,10.06 119.61,9.27 119.80,8.31 119.99,7.86 120.19,7.46 120.38,7.25 120.57,7.26 120.76,7.77 120.95,8.26 121.15,8.59 121.34,8.87 121.53,9.21 121.72,10.55 121.91,11.11 122.10,11.55 122.30,11.44 122.49,11.35 122.68,10.72 122.87,10.39 123.06,10.06 123.25,9.76 123.45,9.53 123.64,8.77 123.83,7.98 124.02,7.45 124.21,7.01 124.40,6.58 124.60,6.44 124.79,6.19 124.98,6.42 125.17,5.91 125.36,5.70 125.55,4.84 125.75,4.79 125.94,5.83 126.13,6.51 126.32,6.99 126.51,7.33 126.71,6.96 126.90,7.38 127.09,8.26 127.28,8.72 127.47,9.06 127.66,8.77 127.86,9.15 128.05,9.45 128.24,9.54 128.43,10.57 128.62,11.14 128.81,10.66 129.01,10.48 129.20,10.62 129.39,10.99 129.58,11.44 129.77,12.52 129.96,12.98 130.16,13.15 130.35,13.10 130.54,12.87 130.73,13.11 130.92,12.88 131.11,13.32 131.31,14.24 131.50,14.46 131.69,14.65 131.88,15.07 132.07,15.53 132.27,16.12 132.46,16.24 132.65,16.46 132.84,17.01 133.03,17.82 133.22,19.09 133.42,19.69 133.61,20.24 133.80,20.18 133.99,20.55 134.18,21.31 134.37,22.33 134.57,23.35 134.76,23.95 134.95,23.97 135.14,24.24 135.33,24.96 135.52,25.94 135.72,26.28 135.91,26.57 136.10,27.28 136.29,28.34 136.48,28.85 136.67,28.81 136.87,30.13 137.06,30.88 137.25,31.55 137.44,32.36 137.63,32.58 137.83,32.78 138.02,33.08 138.21,33.75 138.40,35.06 138.59,35.78 138.78,36.76 138.98,36.56 139.17,36.84 139.36,37.04 139.55,37.34 139.74,36.56 139.93,36.84 140.13,37.05 140.32,37.33 140.51,37.91 140.70,38.28 140.89,38.60 141.08,38.64 141.28,39.43 141.47,40.15 141.66,41.03 141.85,41.45 142.04,41.43 142.24,41.20 142.43,40.74 142.62,40.29 142.81,39.42 143.00,38.29 143.19,37.71 143.39,37.30 143.58,37.57 143.77,36.80 143.96,35.03 144.15,34.46 144.34,34.24 144.54,34.33 144.73,33.85 144.92,32.62 145.11,32.06 145.30,31.69 145.49,31.89 145.69,30.24 145.88,30.15 146.07,30.29 146.26,29.51 146.45,28.83 146.64,28.77 146.84,29.23 147.03,29.68 147.22,30.47 147.41,30.42 147.60,31.04 147.80,30.81 147.99,31.07 148.18,31.44 148.37,31.85 148.56,32.08 148.75,32.17 148.95,31.77 149.14,31.28 149.33,30.70 149.52,30.22 149.71,29.79 149.90,29.32 150.10,28.93 150.29,28.52 150.48,28.01 150.67,27.32 150.86,54.00 151.05,54.00 151.25,52.24 151.44,51.96 151.63,52.07 151.82,53.21 152.01,52.01 152.20,52.33 152.40,50.85 152.59,51.50 152.78,50.19 152.97,49.88 153.16,48.35 153.36,47.22 153.55,47.22 153.74,45.87 153.93,43.95 154.12,45.43 154.31,44.10 154.51,39.96 154.70,42.30 154.89,42.02 155.08,39.81 155.27,38.91 155.46,39.33 155.66,36.97 155.85,36.95 156.04,36.36 156.23,35.46 156.42,35.33 156.61,34.60 156.81,35.65 157.00,32.85 157.19,34.91 157.38,33.59 157.57,32.41 157.76,33.31 157.96,31.72 158.15,32.36 158.34,31.18 158.53,30.84 158.72,31.35 158.92,29.56 159.11,31.23 159.30,30.64 159.49,28.60 159.68,30.10 159.87,29.13 160.07,27.63 160.26,29.50 160.45,28.04 160.64,27.07 160.83,26.44 161.02,26.42 161.22,25.84 161.41,27.20 161.60,26.07 161.79,25.72 161.98,24.68 162.17,25.58 162.37,24.47 162.56,23.41 162.75,24.50 162.94,23.38 163.13,22.67 163.33,22.74 163.52,21.42 163.71,21.26 163.90,22.41 164.09,22.97 164.28,21.21 164.48,20.70 164.67,22.38 164.86,22.36 165.05,22.17 165.24,21.76 165.43,20.82 165.63,22.08 165.82,22.14 166.01,21.50 166.20,21.64 166.39,21.44 166.58,21.44 166.78,22.09 166.97,22.80 167.16,22.32 167.35,22.32 167.54,22.70 167.73,23.45 167.93,23.93 168.12,23.95 168.31,24.43 168.50,23.82 168.69,24.13 168.89,24.91 169.08,24.45 169.27,24.45 169.46,24.38 169.65,24.27 169.84,24.07 170.04,23.83 170.23,23.77 170.42,23.05 170.61,23.07 170.80,22.05 170.99,21.91 171.19,20.69 171.38,20.52 171.57,20.26 171.76,20.24 171.95,20.98 172.14,19.42 172.34,19.68 172.53,17.34 172.72,17.11 172.91,16.56 173.10,16.16 173.29,14.40 173.49,15.51 173.68,15.45 173.87,14.03 174.06,13.82 174.25,14.24 174.45,15.29 174.64,14.78 174.83,15.27 175.02,13.60 175.21,13.00 175.40,12.03 175.60,11.26 175.79,11.17 175.98,11.59 176.17,11.59 176.36,11.70 176.55,12.21 176.75,9.27 176.94,9.70 177.13,8.57 177.32,7.73 177.51,7.20 177.70,6.93 177.90,6.88 178.09,6.88 178.28,5.38 178.47,5.80 178.66,6.74 178.85,7.84 179.05,5.93 179.24,6.47 179.43,6.75 179.62,9.27 179.81,10.13 180.01,9.43 180.20,9.80 180.39,10.65 180.58,11.56 180.77,11.31 180.96,11.64 181.16,12.82 181.35,11.85 181.54,12.66 181.73,14.36 181.92,13.64 182.11,14.82 182.31,13.97 182.50,15.80 182.69,15.41 182.88,16.75 183.07,17.05 183.26,17.07 183.46,16.75 183.65,16.03 183.84,14.90 184.03,16.83 184.22,15.45 184.41,17.71 184.61,16.86 184.80,16.25 184.99,16.63 185.18,17.34 185.37,15.39 185.57,14.85 185.76,15.34 185.95,16.30 186.14,15.79 186.33,14.96 186.52,16.91 186.72,15.70 186.91,14.54 187.10,14.17 187.29,13.62 187.48,13.43 187.67,14.09 187.87,12.60 188.06,13.43 188.25,13.48 188.44,13.99 188.63,13.80 188.82,15.75 189.02,13.41 189.21,13.41 189.40,12.17 189.59,11.20 189.78,11.11 189.98,9.93 190.17,9.93 190.36,11.96 190.55,11.52 190.74,10.44 190.93,11.60 191.13,11.09 191.32,9.81 191.51,10.00 191.70,9.60 191.89,9.00 192.08,8.31 192.28,8.40 192.47,8.84 192.66,9.26 192.85,9.87 193.04,7.39 193.23,7.62 193.43,8.15 193.62,7.36 193.81,6.20 194.00,6.92 194.19,7.59 194.38,8.07 194.58,7.68 194.77,8.91 194.96,8.47 195.15,9.58 195.34,10.74 195.54,11.39 195.73,11.54 195.92,11.38 196.11,10.78 196.30,10.95 196.49,10.52 196.69,9.46 196.88,9.99 197.07,9.20 197.26,7.89 197.45,8.47 197.64,7.52 197.84,6.64 198.03,6.27 198.22,6.42 198.41,6.73 198.60,6.55 198.79,5.55 198.99,4.00 199.18,4.63 199.37,6.07 199.56,6.13 199.75,6.20 199.94,7.82 200.14,6.30 200.33,7.46 200.52,10.37 200.71,9.58 200.90,8.41 201.10,7.54 201.29,10.07 201.48,10.17 201.67,10.30 201.86,10.30 202.05,10.24 202.25,9.82 202.44,11.17 202.63,10.43 202.82,11.01 203.01,11.10 203.20,15.48 203.40,16.04 203.59,13.81 203.78,16.36 203.97,14.39 204.16,16.50 204.35,14.32 204.55,13.81 204.74,15.30 204.93,13.79 205.12,15.07 205.31,14.78 205.50,15.99 205.70,15.78 205.89,16.82 206.08,16.43 206.27,16.97 206.46,17.71 206.66,18.82 206.85,19.12 207.04,20.51 207.23,20.11 207.42,21.11 207.61,20.79 207.81,22.08 208.00,22.54 208.19,23.37 208.38,23.33 208.57,23.33 208.76,24.12 208.96,25.72 209.15,25.21 209.34,25.74 209.53,26.21 209.72,28.52 209.91,30.35 210.11,28.78 210.30,32.30 210.49,32.83 210.68,33.11 210.87,33.27 211.07,33.66 211.26,34.11 211.45,35.08 211.64,33.48 211.83,34.70 212.02,35.41 212.22,39.39 212.41,36.43 212.60,37.03 212.79,37.82 212.98,37.24 213.17,38.44 213.37,38.01 213.56,39.02 213.75,38.54 213.94,39.70 214.13,39.99 214.32,40.88 214.52,41.73 214.71,41.99 214.90,41.32 215.09,40.95 215.28,39.73 215.47,40.81 215.67,38.71 215.86,39.13 216.05,37.46 216.24,39.29 216.43,37.23 216.63,35.30 216.82,33.68 217.01,35.68 217.20,34.68 217.39,33.45 217.58,33.45 217.78,31.37 217.97,32.69 218.16,31.26 218.35,30.14 218.54,33.53 218.73,30.72 218.93,31.92 219.12,29.84 219.31,29.26 219.50,30.93 219.69,30.49 219.88,31.93 220.08,30.72 220.27,31.30 220.46,31.24 220.65,31.14 220.84,31.01 221.03,32.00 221.23,33.14 221.42,32.47 221.61,32.60 221.80,32.56 221.99,30.71 222.19,30.15 222.38,29.87 222.57,29.72 222.76,28.99 222.95,28.53 223.14,28.21 223.34,27.37 223.53,53.61 223.72,53.61 223.91,53.75 224.10,53.75 224.29,53.75 224.49,52.29 224.68,53.62 224.87,53.62 225.06,53.62 225.25,56.00 225.44,55.30 225.64,55.30 225.83,49.15 226.02,50.63 226.21,50.63 226.40,43.82 226.59,43.82 226.79,43.82 226.98,49.33 227.17,40.48 227.36,40.48 227.55,40.48 227.75,40.48 227.94,34.39 228.13,34.39 228.32,36.06 228.51,36.06 228.70,36.06 228.90,34.00 229.09,34.00 229.28,35.69 229.47,35.69 229.66,35.69 229.85,39.28 230.05,39.28 230.24,31.22 230.43,29.09 230.62,29.09 230.81,41.11 231.00,42.26 231.20,42.26 231.39,42.26 231.58,34.23 231.77,34.23 231.96,34.23 232.15,34.23 232.35,28.48 232.54,28.48 232.73,28.48 232.92,28.48 233.11,30.29 233.31,30.29 233.50,30.29 233.69,27.51 233.88,27.51 234.07,27.51 234.26,26.19 234.46,26.19 234.65,26.19 234.84,29.29 235.03,29.29 235.22,23.82 235.41,27.05 235.61,27.05 235.80,27.05 235.99,26.35 236.18,22.34 236.37,22.34 236.56,20.66 236.76,20.66 236.95,20.66 237.14,23.93 237.33,23.93 237.52,19.57 237.72,21.95 237.91,21.95 238.10,21.95 238.29,21.95 238.48,18.53 238.67,22.37 238.87,22.37 239.06,22.37 239.25,22.83 239.44,22.83 239.63,26.35 239.82,26.35 240.02,26.35 240.21,23.20 240.40,23.20 240.59,23.20 240.78,23.73 240.97,27.97 241.17,27.97 241.36,25.31 241.55,25.31 241.74,27.12 241.93,27.12 242.12,27.12 242.32,26.22 242.51,26.22 242.70,26.22 242.89,23.18 243.08,23.18 243.28,20.47 243.47,20.47 243.66,20.47 243.85,20.57 244.04,20.71 244.23,20.71 244.43,24.02 244.62,24.02 244.81,24.02 245.00,25.36 245.19,17.30 245.38,17.30 245.58,13.44 245.77,18.42 245.96,18.42 246.15,18.42 246.34,14.36 246.53,14.36 246.73,14.36 246.92,15.32 247.11,15.32 247.30,17.00 247.49,17.00 247.68,17.00 247.88,13.34 248.07,13.34 248.26,13.34 248.45,11.47 248.64,11.47 248.84,11.47 249.03,17.51 249.22,17.51 249.41,9.83 249.60,11.80 249.79,11.80 249.99,11.80 250.18,9.23 250.37,9.23 250.56,9.23 250.75,9.23 250.94,5.29 251.14,5.29 251.33,5.29 251.52,4.72 251.71,4.72 251.90,4.72 252.09,5.58 252.29,5.58 252.48,11.23 252.67,9.81 252.86,9.81 253.05,11.23 253.24,13.19 253.44,13.19 253.63,13.19 253.82,14.47 254.01,14.47 254.20,11.36 254.40,11.36 254.59,15.70 254.78,15.70 254.97,15.70 255.16,12.37 255.35,12.37 255.55,16.22 255.74,16.22 255.93,16.97 256.12,16.97 256.31,16.97 256.50,15.53 256.70,15.53 256.89,15.53 257.08,21.53 257.27,21.53 257.46,24.17 257.65,24.17 257.85,24.17 258.04,19.38 258.23,19.38 258.42,19.38 258.61,16.97 258.80,16.97 259.00,16.97 259.19,14.47 259.38,14.47 259.57,14.47 259.76,12.06 259.96,12.06 260.15,12.33 260.34,14.56 260.53,14.56 260.72,14.56 260.91,14.56 261.11,15.12 261.30,15.12 261.49,19.15 261.68,19.15 261.87,16.09 262.06,16.09 262.26,16.09 262.45,13.55 262.64,13.55 262.83,13.55 263.02,13.55 263.21,13.50 263.41,13.50 263.60,13.50 263.79,17.94 263.98,13.27 264.17,13.27 264.37,13.27 264.56,12.09 264.75,9.24 264.94,9.24 265.13,9.24 265.32,9.77 265.52,9.77 265.71,5.78 265.90,4.99 266.09,4.99 266.28,6.26 266.47,6.26 266.67,6.26 266.86,6.26 267.05,7.92 267.24,7.92 267.43,7.92 267.62,7.77 267.82,7.77 268.01,11.37 268.20,11.37 268.39,10.12 268.58,11.44 268.77,11.44 268.97,13.00 269.16,13.00 269.35,9.96 269.54,9.96 269.73,12.58 269.93,12.58 270.12,12.58 270.31,9.67 270.50,9.67 270.69,9.67 270.88,9.76 271.08,9.76 271.27,9.76 271.46,8.07 271.65,8.07 271.84,8.07 272.03,8.07 272.23,5.27 272.42,10.33 272.61,10.33 272.80,10.33 272.99,14.84 273.18,14.84 273.38,14.77 273.57,14.77 273.76,14.77 273.95,13.69 274.14,13.69 274.33,13.69 274.53,13.69 274.72,13.06 274.91,13.06 275.10,13.06 275.29,10.40 275.49,10.40 275.68,10.40 275.87,25.50 276.06,25.50 276.25,18.90 276.44,18.90 276.64,18.90 276.83,23.18 277.02,23.18 277.21,13.82 277.40,18.36 277.59,18.36 277.79,18.36 277.98,18.36 278.17,22.41 278.36,16.99 278.55,16.99 278.74,18.67 278.94,18.67 279.13,19.16 279.32,19.16 279.51,19.16 279.70,21.34 279.89,21.34 280.09,21.34 280.28,21.34 280.47,24.76 280.66,24.76 280.85,24.76 281.05,23.51 281.24,23.51 281.43,23.51 281.62,23.51 281.81,24.43 282.00,24.43 282.20,24.43 282.39,29.19 282.58,30.02 282.77,30.02 282.96,32.11 283.15,32.11 283.35,32.11 283.54,33.50 283.73,33.50 283.92,36.14 284.11,36.14 284.30,36.14 284.50,38.24 284.69,38.24 284.88,39.66 285.07,39.66 285.26,39.66 285.46,41.55 285.65,41.55 285.84,41.55 286.03,40.17 286.22,40.17 286.41,40.17 286.61,43.15 286.80,43.15 286.99,43.15 287.18,44.36 287.37,44.36 287.56,41.72 287.76,41.72 287.95,41.72 288.14,41.72 288.33,36.48 288.52,43.93 288.71,43.93 288.91,38.03 289.10,38.03 289.29,33.19 289.48,33.19 289.67,40.46 289.86,31.43 290.06,31.43 290.25,31.43 290.44,31.43 290.63,38.00 290.82,28.42 291.02,28.42 291.21,38.19 291.40,38.19 291.59,32.17 291.78,32.17 291.97,32.17 292.17,34.52 292.36,34.52 292.55,37.83 292.74,33.63 292.93,33.63 293.12,33.63 293.32,33.01 293.51,33.01 293.70,33.01 293.89,38.48 294.08,33.57 294.27,33.57 294.47,32.80 294.66,32.80 294.85,32.20 295.04,32.20 295.23,32.20 295.42,32.89 295.62,32.89 295.81,32.89 296.00,28.47" />
</svg>