<svg width="300" height="60" xmlns="http://www.w3.org/2000/svg">
  <polyline fill="rgba(255,200,0,0.3)" stroke="#ffbb00" stroke-width="2" points="4.00,53.81 5.99,52.74 7.97,53.95 9.96,53.28 11.95,50.15 13.93,42.62 15.92,41.88 17.90,40.94 19.89,41.20 21.88,39.81 23.86,38.53 25.85,37.10 27.84,35.11 29.82,34.01 31.81,34.12 33.80,37.66 35.78,37.53 37.77,38.33 39.76,40.40 41.74,41.44 43.73,43.16 45.71,42.77 47.70,41.97 49.69,36.32 51.67,34.88 53.66,35.65 55.65,34.20 57.63,35.96 59.62,35.04 61.61,34.68 63.59,34.21 65.58,25.83 67.56,19.58 69.55,17.88 71.54,12.37 73.52,9.38 75.51,4.00 77.50,54.08 79.48,52.05 81.47,52.71 83.46,53.55 85.44,48.84 87.43,42.32 89.41,41.26 91.40,40.82 93.39,41.46 95.37,39.78 97.36,38.63 99.35,36.96 101.33,35.56 103.32,33.63 105.31,33.76 107.29,37.55 109.28,36.87 111.27,38.30 113.25,40.59 115.24,41.40 117.22,42.98 119.21,42.89 121.20,42.20 123.18,35.82 125.17,34.19 127.16,37.36 129.14,37.99 131.13,33.86 133.12,34.48 135.10,33.99 137.09,34.56 139.07,23.60 141.06,21.53 143.05,19.28 145.03,13.68 147.02,9.41 149.01,7.13 150.99,55.26 152.98,54.56 154.97,54.02 156.95,52.13 158.94,48.78 160.93,43.59 162.91,43.41 164.90,41.65 166.88,40.51 168.87,39.54 170.86,39.54 172.84,38.19 174.83,36.47 176.82,33.70 178.80,35.02 180.79,38.45 182.78,37.26 184.76,38.34 186.75,40.45 188.73,42.08 190.72,42.08 192.71,42.74 194.69,41.82 196.68,38.16 198.67,33.98 200.65,38.12 202.64,36.36 204.63,33.89 206.61,31.12 208.60,28.71 210.59,33.34 212.57,27.57 214.56,27.57 216.54,20.39 218.53,21.49 220.52,14.18 222.50,7.62 224.49,56.00 226.48,56.00 228.46,56.00 230.45,51.33 232.44,51.33 234.42,51.33 236.41,43.87 238.39,43.87 240.38,43.87 242.37,43.43 244.35,43.43 246.34,43.43 248.33,43.43 250.31,34.76 252.30,42.94 254.29,42.94 256.27,42.94 258.26,38.15 260.24,43.91 262.23,43.91 264.22,43.91 266.20,40.21 268.19,41.91 270.18,41.91 272.16,38.96 274.15,38.96 276.14,38.96 278.12,34.74 280.11,34.74 282.10,34.74 284.08,28.18 286.07,28.18 288.05,28.18 290.04,28.18 292.03,29.02 294.01,29.02 296.00,29.02" />
</svg>