<svg width="300" height="60" xmlns="http://www.w3.org/2000/svg">
  <polyline fill="rgba(255,200,0,0.3)" stroke="#ffbb00" stroke-width="2" points="4.00,28.02 4.32,27.59 4.65,26.91 4.97,26.21 5.30,21.31 5.62,20.76 5.95,20.23 6.27,19.75 6.60,19.36 6.92,19.03 7.24,18.84 7.57,18.65 7.89,18.49 8.22,18.38 8.54,18.23 8.87,18.03 9.19,17.81 9.52,17.68 9.84,17.63 10.16,17.54 10.49,17.31 10.81,17.06 11.14,16.73 11.46,16.47 11.79,16.30 12.11,16.22 12.44,16.12 12.76,15.91 13.08,15.79 13.41,15.52 13.73,15.27 14.06,14.98 14.38,14.61 14.71,14.21 15.03,13.75 15.36,13.19 15.68,12.58 16.00,11.94 16.33,11.27 16.65,10.58 16.98,9.95 17.30,9.42 17.63,8.76 17.95,7.58 18.28,7.34 18.60,6.70 18.92,6.16 19.25,5.96 19.57,5.52 19.90,5.10 20.22,25.95 20.55,25.91 20.87,25.54 21.20,25.34 21.52,25.32 21.84,25.59 22.17,25.87 22.49,26.20 22.82,26.60 23.14,27.09 23.47,27.79 23.79,28.43 24.12,29.08 24.44,29.81 24.76,30.44 25.09,30.98 25.41,31.41 25.74,31.73 26.06,31.84 26.39,31.86 26.71,31.79 27.04,31.60 27.36,31.38 27.68,31.17 28.01,30.96 28.33,30.88 28.66,30.95 28.98,31.08 29.31,31.16 29.63,31.42 29.96,31.71 30.28,31.91 30.60,32.10 30.93,32.23 31.25,32.34 31.58,32.49 31.90,32.67 32.23,32.89 32.55,33.13 32.88,33.46 33.20,33.86 33.52,34.36 33.85,34.97 34.17,35.49 34.50,36.04 34.82,36.56 35.15,37.04 35.47,37.55 35.80,37.98 36.12,38.52 36.44,39.04 36.77,39.61 37.09,40.23 37.42,40.74 37.74,41.15 38.07,41.54 38.39,42.13 38.72,42.73 39.04,43.43 39.36,44.03 39.69,44.73 40.01,45.25 40.34,45.64 40.66,46.00 40.99,46.39 41.31,46.82 41.64,47.23 41.96,47.63 42.28,47.98 42.61,48.37 42.93,48.70 43.26,49.13 43.58,49.69 43.91,50.35 44.23,50.84 44.56,51.12 44.88,51.30 45.20,51.40 45.53,51.55 45.85,51.93 46.18,52.51 46.50,53.09 46.83,53.62 47.15,53.99 47.48,56.00 47.80,54.41 48.12,53.97 48.45,53.59 48.77,53.05 49.10,52.35 49.42,51.59 49.75,50.84 50.07,50.06 50.40,49.31 50.72,48.48 51.04,47.68 51.37,46.94 51.69,46.23 52.02,45.58 52.34,44.88 52.67,44.03 52.99,43.24 53.32,42.47 53.64,41.92 53.96,41.65 54.29,41.53 54.61,41.28 54.94,40.88 55.26,40.40 55.59,39.68 55.91,38.81 56.24,37.94 56.56,36.96 56.88,36.17 57.21,35.60 57.53,35.01 57.86,34.20 58.18,33.40 58.51,32.52 58.83,31.65 59.16,30.87 59.48,30.31 59.80,29.88 60.13,29.54 60.45,29.19 60.78,28.86 61.10,28.48 61.43,28.08 61.75,27.73 62.08,27.36 62.40,26.99 62.72,26.55 63.05,26.02 63.37,25.46 63.70,24.92 64.02,24.43 64.35,23.89 64.67,23.48 65.00,23.13 65.32,22.87 65.64,22.70 65.97,22.66 66.29,22.69 66.62,22.64 66.94,22.51 67.27,22.47 67.59,22.44 67.92,22.38 68.24,22.41 68.56,22.47 68.89,22.55 69.21,22.72 69.54,23.04 69.86,23.45 70.19,23.88 70.51,24.27 70.84,24.69 71.16,25.05 71.48,25.27 71.81,25.59 72.13,25.89 72.46,26.27 72.78,26.74 73.11,27.20 73.43,27.58 73.76,27.88 74.08,28.10 74.40,28.01 74.73,27.58 75.05,26.91 75.38,26.21 75.70,25.63 76.03,25.01 76.35,24.43 76.68,23.78 77.00,23.07 77.32,22.36 77.65,21.82 77.97,21.31 78.30,26.01 78.62,25.96 78.95,25.55 79.27,25.34 79.60,25.28 79.92,25.70 80.24,25.95 80.57,26.26 80.89,26.70 81.22,26.97 81.54,27.63 81.87,28.33 82.19,29.15 82.52,29.76 82.84,30.77 83.16,31.21 83.49,31.77 83.81,32.10 84.14,31.94 84.46,31.97 84.79,31.89 85.11,31.96 85.44,31.50 85.76,31.11 86.08,30.74 86.41,30.86 86.73,30.94 87.06,31.10 87.38,31.23 87.71,31.40 88.03,31.50 88.36,31.75 88.68,32.11 89.00,32.28 89.33,32.42 89.65,32.55 89.98,32.81 90.30,33.03 90.63,33.32 90.95,33.56 91.28,34.09 91.60,34.36 91.92,35.15 92.25,35.75 92.57,36.24 92.90,36.83 93.22,37.37 93.55,37.59 93.87,38.12 94.20,38.69 94.52,39.39 94.84,39.80 95.17,40.39 95.49,41.06 95.82,41.24 96.14,41.56 96.47,42.16 96.79,42.93 97.12,43.42 97.44,44.01 97.76,44.89 98.09,45.39 98.41,45.82 98.74,46.17 99.06,46.57 99.39,46.88 99.71,47.26 100.04,47.67 100.36,48.05 100.68,48.45 101.01,48.71 101.33,49.12 101.66,49.73 101.98,50.25 102.31,50.82 102.63,51.18 102.96,51.42 103.28,51.40 103.60,51.58 103.93,52.07 104.25,52.48 104.58,53.17 104.90,53.72 105.23,54.29 105.55,55.83 105.88,54.74 106.20,54.25 106.52,54.08 106.85,53.58 107.17,52.48 107.50,51.68 107.82,50.87 108.15,50.05 108.47,49.34 108.80,48.43 109.12,47.63 109.44,46.80 109.77,46.33 110.09,45.51 110.42,44.73 110.74,43.95 111.07,43.23 111.39,42.27 111.72,41.83 112.04,41.68 112.36,41.56 112.69,41.41 113.01,41.02 113.34,40.45 113.66,40.36 113.99,38.87 114.31,37.84 114.64,36.66 114.96,36.15 115.28,35.71 115.61,35.21 115.93,34.48 116.26,33.54 116.58,32.53 116.91,31.83 117.23,30.94 117.56,30.44 117.88,29.96 118.20,29.70 118.53,29.37 118.85,28.92 119.18,28.46 119.50,28.20 119.83,27.77 120.15,27.46 120.48,27.06 120.80,26.67 121.12,26.20 121.45,25.81 121.77,25.00 122.10,24.54 122.42,23.95 122.75,23.43 123.07,23.20 123.40,22.94 123.72,22.63 124.04,22.73 124.37,22.79 124.69,23.04 125.02,22.79 125.34,22.57 125.67,22.74 125.99,22.53 126.32,22.79 126.64,22.74 126.96,22.69 127.29,22.79 127.61,23.18 127.94,23.58 128.26,23.99 128.59,24.38 128.91,25.20 129.24,25.64 129.56,25.43 129.88,25.85 130.21,26.00 130.53,26.46 130.86,26.83 131.18,27.39 131.51,27.69 131.83,28.46 132.16,28.33 132.48,28.07 132.80,27.88 133.13,26.90 133.45,26.19 133.78,25.55 134.10,24.95 134.43,24.41 134.75,23.94 135.08,23.18 135.40,22.44 135.72,21.78 136.05,21.57 136.37,21.00 136.70,20.44 137.02,19.85 137.35,19.45 137.67,19.13 138.00,18.88 138.32,18.69 138.64,18.66 138.97,18.57 139.29,18.56 139.62,18.28 139.94,17.99 140.27,17.83 140.59,17.72 140.92,17.98 141.24,17.59 141.56,17.18 141.89,16.80 142.21,16.54 142.54,16.41 142.86,16.22 143.19,16.14 143.51,15.99 143.84,15.74 144.16,15.58 144.48,15.57 144.81,15.29 145.13,14.85 145.46,14.46 145.78,13.80 146.11,13.28 146.43,12.59 146.76,12.02 147.08,11.18 147.40,10.67 147.73,9.92 148.05,9.41 148.38,8.86 148.70,7.93 149.03,7.42 149.35,6.61 149.68,6.17 150.00,5.91 150.32,5.57 150.65,5.15 150.97,25.92 151.30,25.87 151.62,25.62 151.95,25.36 152.27,25.33 152.60,25.57 152.92,25.98 153.24,26.22 153.57,26.73 153.89,26.73 154.22,27.49 154.54,28.00 154.87,29.08 155.19,29.56 155.52,30.51 155.84,31.26 156.16,31.93 156.49,31.78 156.81,32.21 157.14,32.00 157.46,31.99 157.79,31.94 158.11,31.52 158.44,31.12 158.76,30.98 159.08,30.72 159.41,30.94 159.73,31.13 160.06,31.12 160.38,31.74 160.71,31.59 161.03,32.30 161.36,32.37 161.68,32.07 162.00,32.37 162.33,32.38 162.65,32.22 162.98,33.00 163.30,33.69 163.63,33.52 163.95,34.42 164.28,33.13 164.60,34.16 164.92,35.14 165.25,36.10 165.57,35.66 165.90,36.76 166.22,37.79 166.55,37.38 166.87,38.39 167.20,39.41 167.52,39.52 167.84,40.83 168.17,40.86 168.49,40.86 168.82,41.29 169.14,42.10 169.47,42.58 169.79,43.23 170.12,43.35 170.44,45.02 170.76,45.78 171.09,45.51 171.41,46.03 171.74,46.58 172.06,46.58 172.39,47.29 172.71,47.64 173.04,48.14 173.36,48.27 173.68,48.66 174.01,48.66 174.33,49.48 174.66,50.52 174.98,50.23 175.31,51.39 175.63,51.77 175.96,51.46 176.28,51.73 176.60,51.96 176.93,51.96 177.25,51.85 177.58,53.28 177.90,54.08 178.23,54.93 178.55,55.63 178.88,54.34 179.20,54.08 179.52,53.85 179.85,52.45 180.17,51.58 180.50,50.79 180.82,49.63 181.15,50.22 181.47,48.90 181.80,47.79 182.12,46.65 182.44,46.65 182.77,46.88 183.09,45.10 183.42,44.85 183.74,42.91 184.07,42.65 184.39,41.72 184.72,41.72 185.04,41.72 185.36,41.15 185.69,40.51 186.01,41.17 186.34,39.73 186.66,39.13 186.99,38.18 187.31,36.60 187.64,35.55 187.96,35.28 188.28,34.41 188.61,34.41 188.93,33.63 189.26,32.50 189.58,31.54 189.91,30.73 190.23,30.24 190.56,30.25 190.88,29.67 191.20,30.40 191.53,29.46 191.85,28.76 192.18,28.25 192.50,27.40 192.83,27.65 193.15,27.16 193.48,26.75 193.80,26.27 194.12,25.83 194.45,24.89 194.77,24.36 195.10,23.79 195.42,23.21 195.75,24.23 196.07,23.68 196.40,22.99 196.72,22.86 197.04,22.70 197.37,22.94 197.69,22.65 198.02,22.26 198.34,22.51 198.67,22.58 198.99,22.56 199.32,22.56 199.64,22.54 199.96,22.71 200.29,23.16 200.61,23.16 200.94,23.75 201.26,24.47 201.59,25.08 201.91,25.08 202.24,25.38 202.56,25.43 202.88,26.05 203.21,26.34 203.53,25.92 203.86,27.09 204.18,27.06 204.51,28.14 204.83,28.09 205.16,28.34 205.48,28.45 205.80,27.62 206.13,26.54 206.45,25.55 206.78,25.34 207.10,24.64 207.43,23.86 207.75,23.10 208.08,22.41 208.40,21.86 208.72,21.45 209.05,20.88 209.37,20.51 209.70,19.51 210.02,19.22 210.35,18.01 210.67,18.04 211.00,18.37 211.32,17.63 211.64,18.77 211.97,18.87 212.29,17.96 212.62,17.51 212.94,17.97 213.27,17.63 213.59,18.33 213.92,17.19 214.24,16.68 214.56,16.96 214.89,16.54 215.21,16.38 215.54,16.76 215.86,16.23 216.19,16.07 216.51,15.74 216.84,15.71 217.16,15.16 217.48,15.11 217.81,14.63 218.13,14.88 218.46,13.91 218.78,13.75 219.11,12.72 219.43,12.38 219.76,11.19 220.08,10.06 220.40,9.90 220.73,9.18 221.05,8.67 221.38,7.70 221.70,6.80 222.03,5.52 222.35,5.15 222.68,4.85 223.00,4.64 223.32,4.45 223.65,25.35 223.97,25.77 224.30,25.77 224.62,25.77 224.95,25.75 225.27,25.75 225.60,25.75 225.92,26.49 226.24,27.71 226.57,27.71 226.89,27.71 227.22,28.71 227.54,28.71 227.87,30.55 228.19,30.55 228.52,31.74 228.84,31.74 229.16,32.66 229.49,32.66 229.81,32.66 230.14,32.28 230.46,32.28 230.79,32.28 231.11,33.46 231.44,33.46 231.76,31.06 232.08,32.55 232.41,32.55 232.73,32.55 233.06,35.73 233.38,32.60 233.71,32.60 234.03,34.41 234.36,34.41 234.68,34.41 235.00,32.45 235.33,29.81 235.65,29.81 235.98,31.12 236.30,31.12 236.63,31.12 236.95,31.12 237.28,33.99 237.60,33.99 237.92,33.99 238.25,32.55 238.57,32.55 238.90,32.55 239.22,36.08 239.55,36.08 239.87,36.08 240.20,39.96 240.52,39.96 240.84,38.33 241.17,38.33 241.49,41.46 241.82,41.46 242.14,43.22 242.47,43.22 242.79,43.22 243.12,45.80 243.44,45.80 243.76,45.22 244.09,45.22 244.41,45.22 244.74,47.58 245.06,47.58 245.39,47.58 245.71,48.95 246.04,48.04 246.36,48.04 246.68,48.04 247.01,51.57 247.33,50.98 247.66,50.98 247.98,50.98 248.31,49.97 248.63,49.97 248.96,49.97 249.28,44.40 249.60,44.40 249.93,50.16 250.25,50.16 250.58,50.16 250.90,54.78 251.23,54.78 251.55,54.88 251.88,52.55 252.20,52.55 252.52,52.55 252.85,49.55 253.17,49.55 253.50,49.55 253.82,44.90 254.15,44.90 254.47,44.90 254.80,40.80 255.12,40.80 255.44,47.92 255.77,47.92 256.09,47.92 256.42,42.89 256.74,42.89 257.07,42.89 257.39,42.89 257.72,42.89 258.04,39.95 258.36,39.95 258.69,39.95 259.01,36.09 259.34,36.09 259.66,36.09 259.99,36.09 260.31,33.67 260.64,33.67 260.96,33.67 261.28,33.67 261.61,33.74 261.93,31.63 262.26,31.63 262.58,31.63 262.91,29.29 263.23,32.70 263.56,32.70 263.88,29.86 264.20,29.86 264.53,29.86 264.85,28.11 265.18,28.11 265.50,26.99 265.83,26.99 266.15,26.99 266.48,25.84 266.80,25.84 267.12,24.21 267.45,24.21 267.77,24.21 268.10,22.84 268.42,30.02 268.75,30.02 269.07,25.39 269.40,25.39 269.72,22.56 270.04,22.74 270.37,22.74 270.69,21.55 271.02,21.55 271.34,21.55 271.67,22.45 271.99,22.45 272.32,22.45 272.64,22.45 272.96,23.13 273.29,23.13 273.61,23.13 273.94,23.13 274.26,24.44 274.59,24.44 274.91,24.44 275.24,24.44 275.56,26.15 275.88,24.59 276.21,24.59 276.53,24.59 276.86,24.59 277.18,28.36 277.51,28.36 277.83,28.36 278.16,28.36 278.48,27.74 278.80,27.74 279.13,27.74 279.45,24.44 279.78,24.44 280.10,24.44 280.43,21.86 280.75,21.86 281.08,21.86 281.40,21.86 281.72,18.89 282.05,18.89 282.37,18.89 282.70,16.28 283.02,16.28 283.35,17.93 283.67,16.04 284.00,16.04 284.32,16.04 284.64,18.86 284.97,16.28 285.29,16.28 285.62,16.28 285.94,17.77 286.27,17.77 286.59,15.90 286.92,15.90 287.24,16.49 287.56,16.49 287.89,17.60 288.21,17.60 288.54,16.49 288.86,16.49 289.19,16.10 289.51,16.10 289.84,16.10 290.16,15.42 290.48,15.42 290.81,15.42 291.13,15.42 291.46,13.93 291.78,13.65 292.11,13.65 292.43,10.36 292.76,10.36 293.08,10.36 293.40,9.14 293.73,7.79 294.05,7.79 294.38,5.81 294.70,5.81 295.03,4.72 295.35,4.72 295.68,4.72 296.00,4.00" />
</svg>