<svg width="300" height="60" xmlns="http://www.w3.org/2000/svg">
  <polyline fill="rgba(255,200,0,0.3)" stroke="#ffbb00" stroke-width="2" points="4.00,4.00 7.95,5.29 11.89,5.90 15.84,7.50 19.78,12.44 23.73,15.77 27.68,22.80 31.62,39.14 35.57,43.22 39.51,39.73 43.46,36.25 47.41,33.94 51.35,35.13 55.30,35.01 59.24,36.60 63.19,4.06 67.14,5.28 71.08,5.82 75.03,7.78 78.97,12.18 82.92,15.84 86.86,21.80 90.81,39.09 94.76,42.27 98.70,39.16 102.65,36.51 106.59,33.85 110.54,34.71 114.49,34.99 118.43,36.69 122.38,4.53 126.32,5.96 130.27,6.43 134.22,7.88 138.16,12.87 142.11,16.91 146.05,22.14 150.00,39.00 153.95,42.38 157.89,39.77 161.84,37.39 165.78,33.69 169.73,35.00 173.68,34.90 177.62,36.75 181.57,4.31 185.51,5.26 189.46,6.33 193.41,8.71 197.35,13.68 201.30,15.94 205.24,33.39 209.19,32.92 213.14,41.47 217.08,34.11 221.03,34.94 224.97,31.85 228.92,37.40 232.86,35.03 236.81,37.64 240.76,5.72 244.70,5.72 248.65,29.83 252.59,29.83 256.54,29.83 260.49,33.03 264.43,33.03 268.38,33.03 272.32,46.26 276.27,46.26 280.22,46.26 284.16,38.18 288.11,38.18 292.05,38.18 296.00,56.00" />
</svg>