<svg width="300" height="60" xmlns="http://www.w3.org/2000/svg">
  <polyline fill="rgba(255,200,0,0.3)" stroke="#ffbb00" stroke-width="2" points="4.00,9.91 4.98,12.86 5.95,13.66 6.93,17.00 7.91,20.26 8.88,18.62 9.86,16.28 10.84,13.48 11.81,13.79 12.79,13.87 13.77,11.30 14.74,9.86 15.72,9.56 16.70,9.48 17.67,13.73 18.65,19.60 19.63,22.30 20.60,22.35 21.58,19.14 22.56,15.40 23.53,13.13 24.51,14.84 25.48,15.78 26.46,17.83 27.44,20.20 28.41,20.52 29.39,19.54 30.37,18.26 31.34,17.95 32.32,17.44 33.30,17.14 34.27,16.18 35.25,14.62 36.23,13.24 37.20,12.39 38.18,12.84 39.16,14.22 40.13,15.00 41.11,16.35 42.09,17.66 43.06,18.35 44.04,18.88 45.02,19.43 45.99,20.83 46.97,21.78 47.95,22.79 48.92,24.17 49.90,24.44 50.88,26.34 51.85,28.91 52.83,31.29 53.81,32.91 54.78,33.85 55.76,34.00 56.74,33.87 57.71,34.77 58.69,35.21 59.67,35.74 60.64,36.17 61.62,36.22 62.60,38.24 63.57,40.84 64.55,44.81 65.53,44.86 66.50,45.38 67.48,46.59 68.45,49.61 69.43,50.92 70.41,52.08 71.38,54.98 72.36,54.86 73.34,55.64 74.31,53.79 75.29,52.78 76.27,51.42 77.24,10.51 78.22,13.25 79.20,13.90 80.17,17.57 81.15,19.81 82.13,18.18 83.10,16.30 84.08,13.44 85.06,14.13 86.03,13.24 87.01,10.20 87.99,10.11 88.96,9.15 89.94,9.48 90.92,11.99 91.89,19.16 92.87,22.26 93.85,21.72 94.82,18.13 95.80,15.50 96.78,12.25 97.75,14.11 98.73,16.16 99.71,17.99 100.68,19.51 101.66,20.45 102.64,19.36 103.61,18.13 104.59,18.13 105.57,17.56 106.54,17.29 107.52,16.30 108.49,14.70 109.47,13.49 110.45,12.56 111.42,13.05 112.40,14.46 113.38,15.63 114.35,16.75 115.33,17.59 116.31,18.13 117.28,18.97 118.26,19.22 119.24,20.83 120.21,21.83 121.19,22.88 122.17,24.40 123.14,24.70 124.12,26.96 125.10,28.76 126.07,31.59 127.05,32.95 128.03,33.92 129.00,34.37 129.98,34.11 130.96,35.07 131.93,35.40 132.91,36.31 133.89,36.64 134.86,36.64 135.84,38.09 136.82,40.47 137.79,45.16 138.77,45.97 139.75,46.54 140.72,47.19 141.70,49.94 142.68,51.21 143.65,52.07 144.63,54.90 145.61,55.85 146.58,56.00 147.56,53.91 148.54,52.95 149.51,51.63 150.49,8.55 151.46,13.21 152.44,13.94 153.42,17.82 154.39,17.44 155.37,18.79 156.35,15.93 157.32,14.66 158.30,12.31 159.28,14.81 160.25,11.95 161.23,9.40 162.21,6.72 163.18,9.69 164.16,14.68 165.14,20.58 166.11,21.73 167.09,21.73 168.07,19.80 169.04,16.05 170.02,11.68 171.00,13.97 171.97,16.92 172.95,19.03 173.93,20.74 174.90,21.40 175.88,20.56 176.86,18.15 177.83,18.27 178.81,17.79 179.79,17.31 180.76,15.68 181.74,14.16 182.72,14.16 183.69,13.10 184.67,13.01 185.65,14.43 186.62,15.88 187.60,16.37 188.58,17.45 189.55,17.72 190.53,18.86 191.51,20.01 192.48,21.33 193.46,22.26 194.43,23.79 195.41,23.67 196.39,24.03 197.36,26.27 198.34,28.38 199.32,31.26 200.29,33.73 201.27,33.49 202.25,33.88 203.22,34.58 204.20,35.08 205.18,35.08 206.15,36.10 207.13,35.98 208.11,36.29 209.08,39.42 210.06,41.58 211.04,44.65 212.01,45.20 212.99,46.46 213.97,45.16 214.94,49.56 215.92,50.92 216.90,52.42 217.87,53.48 218.85,54.20 219.83,55.52 220.80,53.87 221.78,52.69 222.76,51.52 223.73,4.24 224.71,11.08 225.69,11.08 226.66,11.08 227.64,11.08 228.62,17.10 229.59,6.21 230.57,6.21 231.55,6.21 232.52,9.36 233.50,9.36 234.47,9.36 235.45,4.00 236.43,4.00 237.40,4.00 238.38,18.81 239.36,11.25 240.33,11.25 241.31,11.25 242.29,16.49 243.26,7.19 244.24,7.19 245.22,7.19 246.19,13.39 247.17,13.39 248.15,13.39 249.12,17.88 250.10,17.88 251.08,17.88 252.05,18.30 253.03,18.30 254.01,18.30 254.98,16.14 255.96,16.14 256.94,16.14 257.91,16.14 258.89,15.06 259.87,19.82 260.84,19.82 261.82,19.82 262.80,19.36 263.77,19.36 264.75,24.84 265.73,24.84 266.70,22.92 267.68,28.18 268.66,28.18 269.63,28.18 270.61,28.15 271.59,28.15 272.56,28.15 273.54,33.93 274.52,34.22 275.49,34.22 276.47,37.20 277.44,36.56 278.42,36.56 279.40,36.56 280.37,36.56 281.35,39.51 282.33,44.42 283.30,44.42 284.28,40.72 285.26,40.72 286.23,46.80 287.21,46.80 288.19,46.80 289.16,52.16 290.14,53.03 291.12,53.03 292.09,51.49 293.07,51.49 294.05,51.49 295.02,51.49 296.00,48.54" />
</svg>