<svg width="300" height="60" xmlns="http://www.w3.org/2000/svg">
  <polyline fill="rgba(255,200,0,0.3)" stroke="#ffbb00" stroke-width="2" points="4.00,56.00 4.26,53.46 4.52,52.90 4.78,51.80 5.04,48.82 5.30,47.54 5.55,47.23 5.81,48.73 6.07,49.46 6.33,49.50 6.59,48.03 6.85,47.22 7.11,45.53 7.37,43.21 7.63,42.81 7.89,43.26 8.15,47.30 8.40,50.65 8.66,51.28 8.92,50.00 9.18,50.46 9.44,49.83 9.70,49.99 9.96,49.56 10.22,48.91 10.48,48.30 10.74,47.99 11.00,46.80 11.25,44.88 11.51,43.68 11.77,43.30 12.03,43.08 12.29,42.91 12.55,42.67 12.81,42.22 13.07,41.42 13.33,40.31 13.59,39.80 13.85,39.17 14.10,38.52 14.36,37.94 14.62,37.51 14.88,36.46 15.14,36.52 15.40,37.50 15.66,38.13 15.92,37.96 16.18,37.83 16.44,37.21 16.70,36.94 16.95,36.74 17.21,36.54 17.47,36.42 17.73,36.25 17.99,36.32 18.25,36.24 18.51,35.82 18.77,35.49 19.03,34.45 19.29,34.54 19.55,34.25 19.80,34.36 20.06,34.15 20.32,32.84 20.58,31.76 20.84,29.55 21.10,29.50 21.36,28.71 21.62,27.44 21.88,26.66 22.14,26.40 22.40,27.14 22.65,27.67 22.91,28.55 23.17,28.85 23.43,28.53 23.69,28.32 23.95,27.94 24.21,27.56 24.47,26.95 24.73,26.53 24.99,26.76 25.25,27.26 25.50,27.87 25.76,28.92 26.02,28.80 26.28,29.17 26.54,29.57 26.80,29.82 27.06,29.90 27.32,29.92 27.58,30.34 27.84,31.10 28.10,31.57 28.35,32.05 28.61,32.91 28.87,34.92 29.13,36.37 29.39,36.96 29.65,37.82 29.91,38.10 30.17,39.84 30.43,38.64 30.69,38.37 30.95,37.68 31.20,37.44 31.46,37.44 31.72,38.18 31.98,38.70 32.24,39.64 32.50,40.34 32.76,40.50 33.02,39.86 33.28,39.00 33.54,38.44 33.80,37.45 34.06,37.25 34.31,36.82 34.57,36.20 34.83,35.10 35.09,34.31 35.35,34.02 35.61,34.06 35.87,33.92 36.13,33.80 36.39,33.94 36.65,34.16 36.91,34.19 37.16,34.05 37.42,33.78 37.68,35.03 37.94,35.87 38.20,36.66 38.46,38.07 38.72,38.78 38.98,39.29 39.24,39.32 39.50,39.60 39.76,39.69 40.01,40.15 40.27,40.79 40.53,41.31 40.79,40.99 41.05,39.92 41.31,39.70 41.57,39.40 41.83,39.27 42.09,40.51 42.35,43.79 42.61,44.69 42.86,44.94 43.12,44.84 43.38,44.50 43.64,44.37 43.90,44.18 44.16,43.83 44.42,43.02 44.68,42.20 44.94,41.12 45.20,40.47 45.46,40.65 45.71,40.63 45.97,40.35 46.23,40.33 46.49,40.89 46.75,40.40 47.01,40.37 47.27,40.40 47.53,40.06 47.79,39.46 48.05,38.46 48.31,36.33 48.56,35.25 48.82,35.14 49.08,35.18 49.34,34.69 49.60,34.33 49.86,33.91 50.12,33.55 50.38,32.60 50.64,31.62 50.90,30.89 51.16,30.77 51.41,30.84 51.67,30.90 51.93,30.82 52.19,30.29 52.45,29.70 52.71,29.05 52.97,28.50 53.23,28.19 53.49,26.58 53.75,26.40 54.01,26.21 54.26,26.33 54.52,28.07 54.78,28.59 55.04,27.65 55.30,26.02 55.56,24.70 55.82,24.17 56.08,23.06 56.34,22.57 56.60,21.76 56.86,20.61 57.11,20.20 57.37,20.18 57.63,20.32 57.89,18.84 58.15,17.83 58.41,16.93 58.67,15.97 58.93,15.64 59.19,14.95 59.45,14.06 59.71,13.12 59.96,13.09 60.22,12.50 60.48,13.37 60.74,13.57 61.00,12.68 61.26,11.80 61.52,12.68 61.78,13.61 62.04,13.62 62.30,12.31 62.56,11.17 62.81,10.49 63.07,9.88 63.33,7.99 63.59,5.96 63.85,5.71 64.11,6.29 64.37,7.72 64.63,8.12 64.89,7.94 65.15,7.63 65.41,7.28 65.66,7.34 65.92,8.74 66.18,10.82 66.44,12.22 66.70,13.66 66.96,14.87 67.22,16.05 67.48,16.47 67.74,15.96 68.00,14.45 68.26,12.88 68.51,10.95 68.77,9.98 69.03,8.65 69.29,8.71 69.55,9.36 69.81,9.99 70.07,10.21 70.33,10.70 70.59,10.44 70.85,10.31 71.11,10.42 71.36,10.36 71.62,10.54 71.88,10.97 72.14,11.18 72.40,11.85 72.66,13.04 72.92,14.46 73.18,13.52 73.44,13.40 73.70,14.17 73.96,14.90 74.21,15.70 74.47,16.22 74.73,16.52 74.99,16.54 75.25,16.89 75.51,17.21 75.77,17.54 76.03,17.86 76.29,18.27 76.55,18.05 76.81,15.99 77.06,55.81 77.32,52.93 77.58,52.77 77.84,52.00 78.10,48.66 78.36,47.37 78.62,46.84 78.88,49.60 79.14,49.42 79.40,49.39 79.66,48.90 79.91,47.41 80.17,45.69 80.43,43.16 80.69,42.72 80.95,43.75 81.21,47.88 81.47,50.65 81.73,51.34 81.99,48.95 82.25,50.50 82.51,51.23 82.76,49.80 83.02,49.99 83.28,49.13 83.54,48.45 83.80,47.81 84.06,47.05 84.32,45.19 84.58,43.56 84.84,44.13 85.10,43.56 85.36,42.97 85.61,42.76 85.87,42.19 86.13,41.11 86.39,40.65 86.65,39.61 86.91,38.95 87.17,38.38 87.43,38.10 87.69,37.71 87.95,36.46 88.21,36.38 88.46,37.69 88.72,38.10 88.98,37.94 89.24,37.76 89.50,37.04 89.76,36.97 90.02,36.75 90.28,36.51 90.54,36.38 90.80,36.13 91.06,36.49 91.31,36.13 91.57,35.75 91.83,35.40 92.09,34.49 92.35,34.43 92.61,34.00 92.87,34.32 93.13,34.20 93.39,32.83 93.65,31.45 93.91,29.49 94.17,29.65 94.42,28.72 94.68,27.21 94.94,27.16 95.20,26.79 95.46,26.91 95.72,27.61 95.98,29.27 96.24,28.93 96.50,28.46 96.76,28.21 97.02,27.86 97.27,27.22 97.53,26.89 97.79,26.24 98.05,26.91 98.31,27.15 98.57,27.73 98.83,28.87 99.09,28.56 99.35,29.16 99.61,29.58 99.87,29.84 100.12,29.82 100.38,29.99 100.64,30.67 100.90,30.48 101.16,31.34 101.42,31.81 101.68,33.26 101.94,35.13 102.20,36.21 102.46,36.92 102.72,37.85 102.97,37.98 103.23,39.85 103.49,38.89 103.75,38.20 104.01,37.68 104.27,37.45 104.53,36.79 104.79,38.21 105.05,38.90 105.31,39.52 105.57,40.38 105.82,40.68 106.08,39.76 106.34,39.01 106.60,38.42 106.86,37.52 107.12,37.33 107.38,36.84 107.64,36.21 107.90,35.04 108.16,34.39 108.42,34.14 108.67,34.16 108.93,34.03 109.19,33.89 109.45,33.81 109.71,34.14 109.97,34.08 110.23,33.82 110.49,34.26 110.75,34.30 111.01,35.88 111.27,36.56 111.52,38.51 111.78,39.44 112.04,39.80 112.30,38.82 112.56,39.60 112.82,39.66 113.08,40.21 113.34,40.80 113.60,41.37 113.86,40.81 114.12,40.89 114.37,39.42 114.63,39.85 114.89,39.36 115.15,40.86 115.41,43.37 115.67,44.72 115.93,44.93 116.19,44.89 116.45,44.63 116.71,44.50 116.97,44.23 117.22,43.97 117.48,42.98 117.74,42.21 118.00,41.10 118.26,40.53 118.52,40.71 118.78,40.38 119.04,40.47 119.30,40.65 119.56,40.95 119.82,40.25 120.07,40.66 120.33,40.17 120.59,39.87 120.85,38.98 121.11,38.48 121.37,36.75 121.63,35.22 121.89,35.02 122.15,35.63 122.41,34.83 122.67,34.49 122.92,34.00 123.18,33.53 123.44,32.39 123.70,31.66 123.96,30.93 124.22,30.62 124.48,31.09 124.74,30.05 125.00,30.77 125.26,30.27 125.52,29.48 125.77,29.03 126.03,28.51 126.29,27.45 126.55,26.27 126.81,26.58 127.07,26.30 127.33,26.25 127.59,28.00 127.85,28.21 128.11,27.48 128.37,26.05 128.62,25.19 128.88,24.45 129.14,23.06 129.40,22.44 129.66,21.63 129.92,20.54 130.18,20.65 130.44,20.38 130.70,19.84 130.96,18.76 131.22,17.66 131.47,16.81 131.73,16.08 131.99,15.68 132.25,14.62 132.51,13.56 132.77,13.31 133.03,13.20 133.29,13.08 133.55,12.65 133.81,13.88 134.07,12.74 134.32,10.58 134.58,13.06 134.84,13.64 135.10,13.84 135.36,12.84 135.62,11.80 135.88,10.23 136.14,10.22 136.40,7.64 136.66,6.25 136.92,6.15 137.17,6.04 137.43,7.40 137.69,8.41 137.95,8.25 138.21,7.34 138.47,7.18 138.73,7.63 138.99,8.82 139.25,10.91 139.51,12.23 139.77,13.92 140.02,15.25 140.28,16.26 140.54,16.65 140.80,15.64 141.06,14.95 141.32,13.16 141.58,10.63 141.84,9.85 142.10,8.71 142.36,9.01 142.62,9.84 142.87,9.87 143.13,10.41 143.39,10.52 143.65,10.49 143.91,10.70 144.17,10.69 144.43,10.51 144.69,10.83 144.95,10.94 145.21,11.54 145.47,11.99 145.72,12.90 145.98,14.34 146.24,13.29 146.50,13.67 146.76,14.37 147.02,15.22 147.28,15.60 147.54,16.12 147.80,16.51 148.06,16.51 148.32,16.93 148.57,17.32 148.83,17.84 149.09,17.76 149.35,18.32 149.61,18.14 149.87,16.31 150.13,55.27 150.39,51.65 150.65,51.65 150.91,50.64 151.17,48.85 151.43,47.29 151.68,46.28 151.94,49.97 152.20,50.58 152.46,50.35 152.72,50.22 152.98,45.51 153.24,45.44 153.50,42.51 153.76,42.92 154.02,44.99 154.28,44.63 154.53,48.21 154.79,50.62 155.05,47.01 155.31,52.78 155.57,49.23 155.83,49.31 156.09,46.43 156.35,49.05 156.61,46.66 156.87,44.62 157.13,46.67 157.38,44.64 157.64,43.55 157.90,42.90 158.16,42.52 158.42,41.81 158.68,41.51 158.94,41.55 159.20,41.72 159.46,39.62 159.72,40.16 159.98,38.97 160.23,38.12 160.49,39.21 160.75,37.42 161.01,36.96 161.27,36.24 161.53,37.69 161.79,38.12 162.05,38.12 162.31,37.81 162.57,36.84 162.83,36.84 163.08,35.99 163.34,36.35 163.60,36.32 163.86,36.62 164.12,36.74 164.38,35.77 164.64,35.63 164.90,35.50 165.16,34.90 165.42,34.46 165.68,34.25 165.93,33.95 166.19,34.03 166.45,31.97 166.71,31.25 166.97,30.34 167.23,29.21 167.49,27.43 167.75,26.22 168.01,26.60 168.27,25.88 168.53,26.76 168.78,27.25 169.04,29.60 169.30,29.73 169.56,28.94 169.82,28.36 170.08,28.00 170.34,27.69 170.60,27.39 170.86,26.45 171.12,26.95 171.38,27.62 171.63,27.65 171.89,28.65 172.15,28.96 172.41,30.03 172.67,29.30 172.93,29.65 173.19,30.23 173.45,29.26 173.71,31.50 173.97,30.44 174.23,31.74 174.48,32.62 174.74,34.82 175.00,35.69 175.26,36.58 175.52,37.09 175.78,38.06 176.04,38.18 176.30,39.45 176.56,38.21 176.82,37.79 177.08,35.85 177.33,37.21 177.59,37.33 177.85,38.21 178.11,39.43 178.37,39.06 178.63,39.87 178.89,40.70 179.15,39.76 179.41,39.11 179.67,38.31 179.93,37.66 180.18,37.10 180.44,36.89 180.70,36.30 180.96,35.52 181.22,34.48 181.48,34.03 181.74,34.48 182.00,33.96 182.26,33.55 182.52,33.55 182.78,33.38 183.03,33.08 183.29,32.73 183.55,33.17 183.81,32.91 184.07,35.77 184.33,37.23 184.59,38.48 184.85,38.48 185.11,39.90 185.37,38.14 185.63,39.79 185.88,38.24 186.14,40.14 186.40,39.22 186.66,41.53 186.92,41.34 187.18,41.82 187.44,40.23 187.70,40.11 187.96,37.86 188.22,40.31 188.48,42.92 188.73,44.18 188.99,44.10 189.25,45.01 189.51,43.79 189.77,44.34 190.03,44.37 190.29,43.71 190.55,41.95 190.81,41.95 191.07,40.59 191.33,40.10 191.58,41.35 191.84,40.45 192.10,39.80 192.36,40.40 192.62,39.50 192.88,41.31 193.14,40.74 193.40,38.33 193.66,39.39 193.92,39.32 194.18,38.61 194.43,37.50 194.69,36.48 194.95,35.63 195.21,35.02 195.47,34.53 195.73,34.10 195.99,33.29 196.25,32.73 196.51,32.06 196.77,31.40 197.03,30.76 197.28,30.29 197.54,30.29 197.80,30.51 198.06,30.73 198.32,31.01 198.58,29.28 198.84,29.69 199.10,28.63 199.36,27.39 199.62,26.38 199.88,26.22 200.13,26.64 200.39,26.26 200.65,27.90 200.91,28.63 201.17,27.85 201.43,26.56 201.69,26.56 201.95,25.59 202.21,24.77 202.47,24.09 202.73,23.43 202.98,22.22 203.24,21.02 203.50,20.56 203.76,20.17 204.02,19.35 204.28,18.10 204.54,16.76 204.80,15.88 205.06,15.60 205.32,13.39 205.58,13.18 205.83,13.35 206.09,12.32 206.35,14.36 206.61,12.34 206.87,13.20 207.13,11.03 207.39,12.47 207.65,13.53 207.91,10.66 208.17,12.89 208.43,13.56 208.69,10.14 208.94,9.86 209.20,9.89 209.46,7.80 209.72,6.30 209.98,6.15 210.24,6.66 210.50,8.50 210.76,9.33 211.02,7.51 211.28,8.26 211.54,6.77 211.79,8.01 212.05,9.62 212.31,9.69 212.57,11.06 212.83,13.68 213.09,14.97 213.35,16.11 213.61,17.06 213.87,15.32 214.13,15.56 214.39,12.97 214.64,10.74 214.90,8.44 215.16,9.45 215.42,10.07 215.68,10.23 215.94,11.04 216.20,10.31 216.46,11.76 216.72,11.73 216.98,9.95 217.24,10.62 217.49,11.23 217.75,11.23 218.01,11.89 218.27,12.80 218.53,11.70 218.79,12.97 219.05,14.17 219.31,13.91 219.57,13.39 219.83,14.73 220.09,14.61 220.34,15.05 220.60,15.06 220.86,16.55 221.12,15.95 221.38,15.24 221.64,17.40 221.90,17.17 222.16,16.91 222.42,16.63 222.68,16.39 222.94,16.52 223.19,51.41 223.45,51.41 223.71,51.41 223.97,51.41 224.23,51.41 224.49,47.65 224.75,47.65 225.01,47.65 225.27,46.21 225.53,46.21 225.79,46.21 226.04,45.95 226.30,45.95 226.56,35.07 226.82,40.87 227.08,40.87 227.34,40.87 227.60,34.67 227.86,47.62 228.12,47.62 228.38,47.62 228.64,39.21 228.89,39.21 229.15,34.07 229.41,47.13 229.67,47.13 229.93,41.52 230.19,41.52 230.45,41.52 230.71,39.03 230.97,39.03 231.23,39.03 231.49,38.83 231.74,38.83 232.00,39.91 232.26,39.91 232.52,39.91 232.78,41.58 233.04,36.50 233.30,36.50 233.56,39.38 233.82,39.38 234.08,37.15 234.34,37.15 234.59,37.15 234.85,36.53 235.11,36.53 235.37,36.53 235.63,36.53 235.89,36.53 236.15,34.22 236.41,34.22 236.67,35.28 236.93,35.28 237.19,35.28 237.44,34.92 237.70,34.92 237.96,34.92 238.22,33.26 238.48,33.26 238.74,33.26 239.00,30.78 239.26,30.78 239.52,30.78 239.78,29.46 240.04,29.46 240.29,29.46 240.55,24.56 240.81,25.47 241.07,25.47 241.33,25.47 241.59,24.48 241.85,24.48 242.11,29.01 242.37,29.28 242.63,29.28 242.89,27.70 243.14,27.70 243.40,27.70 243.66,27.10 243.92,25.05 244.18,27.03 244.44,27.03 244.70,27.03 244.96,29.80 245.22,29.80 245.48,29.80 245.74,27.37 245.99,31.95 246.25,31.95 246.51,29.49 246.77,29.49 247.03,29.49 247.29,35.70 247.55,33.25 247.81,33.25 248.07,35.26 248.33,35.26 248.59,35.26 248.84,36.06 249.10,36.06 249.36,38.68 249.62,34.49 249.88,34.49 250.14,34.49 250.40,34.49 250.66,36.38 250.92,36.38 251.18,36.38 251.44,36.38 251.69,39.92 251.95,39.92 252.21,38.81 252.47,37.46 252.73,37.46 252.99,37.46 253.25,34.87 253.51,37.36 253.77,37.36 254.03,35.19 254.29,35.19 254.54,35.19 254.80,32.82 255.06,32.82 255.32,32.82 255.58,32.82 255.84,30.81 256.10,30.81 256.36,30.81 256.62,30.65 256.88,30.65 257.14,30.65 257.39,37.40 257.65,31.73 257.91,31.73 258.17,31.73 258.43,31.73 258.69,37.07 258.95,37.07 259.21,37.07 259.47,35.49 259.73,35.49 259.99,38.38 260.24,38.38 260.50,38.38 260.76,44.18 261.02,35.48 261.28,35.48 261.54,35.48 261.80,34.94 262.06,34.94 262.32,43.95 262.58,35.69 262.84,35.69 263.09,39.96 263.35,39.96 263.61,44.43 263.87,44.43 264.13,40.69 264.39,40.69 264.65,43.51 264.91,43.51 265.17,40.92 265.43,40.92 265.69,36.94 265.94,37.04 266.20,37.04 266.46,37.04 266.72,37.04 266.98,37.95 267.24,37.95 267.50,37.95 267.76,39.12 268.02,39.12 268.28,39.12 268.54,37.46 268.80,37.46 269.05,35.88 269.31,35.88 269.57,35.88 269.83,34.20 270.09,34.20 270.35,34.20 270.61,33.10 270.87,33.10 271.13,33.55 271.39,33.55 271.65,33.55 271.90,35.12 272.16,28.11 272.42,28.11 272.68,28.11 272.94,25.32 273.20,25.32 273.46,25.32 273.72,27.51 273.98,27.51 274.24,27.51 274.50,26.95 274.75,26.95 275.01,26.95 275.27,26.95 275.53,24.33 275.79,24.33 276.05,24.33 276.31,21.36 276.57,21.36 276.83,21.36 277.09,18.99 277.35,18.99 277.60,18.99 277.86,16.08 278.12,16.08 278.38,9.78 278.64,8.87 278.90,8.87 279.16,8.87 279.42,12.83 279.68,12.83 279.94,5.81 280.20,5.81 280.45,5.81 280.71,7.31 280.97,7.31 281.23,7.31 281.49,7.31 281.75,10.16 282.01,10.16 282.27,10.16 282.53,6.71 282.79,6.71 283.05,6.71 283.30,8.40 283.56,8.40 283.82,10.76 284.08,4.00 284.34,4.00 284.60,8.16 284.86,8.16 285.12,8.16 285.38,12.28 285.64,12.28 285.90,15.75 286.15,15.75 286.41,15.75 286.67,17.67 286.93,10.06 287.19,10.06 287.45,11.89 287.71,11.89 287.97,9.01 288.23,9.01 288.49,14.45 288.75,14.45 289.00,17.17 289.26,11.83 289.52,11.83 289.78,17.15 290.04,17.15 290.30,12.75 290.56,12.75 290.82,12.75 291.08,17.43 291.34,14.22 291.60,14.22 291.85,14.22 292.11,15.02 292.37,15.02 292.63,15.02 292.89,15.02 293.15,10.86 293.41,9.88 293.67,9.88 293.93,14.93 294.19,14.93 294.45,14.93 294.70,13.59 294.96,13.59 295.22,13.59 295.48,13.56 295.74,13.56 296.00,15.87" />
</svg>