<svg width="300" height="60" xmlns="http://www.w3.org/2000/svg">
  <polyline fill="rgba(255,200,0,0.3)" stroke="#ffbb00" stroke-width="2" points="4.00,55.39 4.78,56.00 5.56,54.33 6.34,52.48 7.11,49.92 7.89,49.37 8.67,50.10 9.45,51.36 10.23,52.50 11.01,54.34 11.79,53.99 12.57,51.51 13.34,48.63 14.12,46.56 14.90,45.04 15.68,43.58 16.46,43.07 17.24,42.43 18.02,41.58 18.79,41.62 19.57,42.46 20.35,43.81 21.13,43.62 21.91,42.67 22.69,42.26 23.47,41.98 24.25,41.40 25.02,40.79 25.80,40.72 26.58,41.37 27.36,41.32 28.14,40.32 28.92,38.68 29.70,37.83 30.47,37.45 31.25,37.08 32.03,36.31 32.81,36.12 33.59,35.69 34.37,37.89 35.15,38.71 35.93,37.45 36.70,36.28 37.48,34.81 38.26,32.98 39.04,32.54 39.82,32.05 40.60,33.28 41.38,32.53 42.15,30.94 42.93,29.95 43.71,29.45 44.49,29.04 45.27,28.54 46.05,27.99 46.83,27.37 47.61,26.84 48.38,27.08 49.16,28.35 49.94,28.77 50.72,27.28 51.50,25.28 52.28,23.62 53.06,23.01 53.83,23.58 54.61,23.32 55.39,22.98 56.17,22.46 56.95,22.09 57.73,21.19 58.51,19.83 59.29,19.17 60.06,19.44 60.84,19.31 61.62,17.54 62.40,15.71 63.18,13.56 63.96,13.40 64.74,13.89 65.51,13.71 66.29,13.11 67.07,12.68 67.85,12.57 68.63,12.28 69.41,12.02 70.19,11.56 70.97,10.72 71.74,9.62 72.52,9.27 73.30,8.63 74.08,7.67 74.86,6.90 75.64,5.71 76.42,5.71 77.19,55.53 77.97,55.51 78.75,54.30 79.53,52.55 80.31,50.20 81.09,49.73 81.87,50.68 82.65,51.53 83.42,52.04 84.20,54.72 84.98,54.36 85.76,51.64 86.54,48.71 87.32,45.93 88.10,45.08 88.87,43.87 89.65,43.02 90.43,42.19 91.21,41.72 91.99,41.54 92.77,42.31 93.55,43.89 94.33,43.90 95.10,42.59 95.88,42.17 96.66,42.02 97.44,41.47 98.22,40.97 99.00,40.65 99.78,41.70 100.55,41.40 101.33,39.91 102.11,38.26 102.89,38.02 103.67,37.61 104.45,37.29 105.23,36.25 106.01,35.95 106.78,35.77 107.56,38.05 108.34,38.48 109.12,37.88 109.90,37.02 110.68,35.51 111.46,33.23 112.23,32.63 113.01,32.05 113.79,33.20 114.57,32.94 115.35,30.67 116.13,30.12 116.91,29.44 117.69,29.16 118.46,28.66 119.24,27.90 120.02,27.25 120.80,26.86 121.58,27.82 122.36,27.54 123.14,28.49 123.91,27.92 124.69,25.74 125.47,24.15 126.25,23.07 127.03,23.95 127.81,23.91 128.59,22.48 129.37,22.88 130.14,22.25 130.92,21.46 131.70,19.98 132.48,19.36 133.26,19.50 134.04,19.43 134.82,18.19 135.59,15.73 136.37,13.38 137.15,13.51 137.93,13.85 138.71,13.47 139.49,12.97 140.27,13.14 141.05,13.04 141.82,12.34 142.60,12.24 143.38,11.52 144.16,10.79 144.94,9.87 145.72,8.96 146.50,8.65 147.27,7.69 148.05,6.91 148.83,5.95 149.61,5.76 150.39,55.50 151.17,55.92 151.95,52.72 152.73,51.72 153.50,51.17 154.28,48.49 155.06,49.96 155.84,51.67 156.62,51.80 157.40,52.51 158.18,54.40 158.95,51.77 159.73,49.72 160.51,46.97 161.29,44.63 162.07,44.84 162.85,43.24 163.63,41.60 164.41,42.00 165.18,40.81 165.96,42.95 166.74,43.81 167.52,43.98 168.30,42.26 169.08,41.87 169.86,41.25 170.63,40.86 171.41,40.47 172.19,40.24 172.97,41.63 173.75,40.85 174.53,40.56 175.31,39.58 176.09,38.46 176.86,37.32 177.64,36.21 178.42,35.14 179.20,34.75 179.98,35.41 180.76,36.71 181.54,36.83 182.31,37.45 183.09,35.00 183.87,35.27 184.65,32.96 185.43,31.99 186.21,32.87 186.99,32.01 187.77,32.01 188.54,29.63 189.32,29.92 190.10,29.18 190.88,27.31 191.66,27.59 192.44,27.79 193.22,26.21 193.99,24.89 194.77,27.63 195.55,27.26 196.33,26.73 197.11,28.90 197.89,24.32 198.67,22.25 199.45,23.44 200.22,22.02 201.00,24.03 201.78,23.09 202.56,22.41 203.34,21.86 204.12,21.09 204.90,18.27 205.67,20.01 206.45,19.71 207.23,17.88 208.01,17.61 208.79,15.77 209.57,13.45 210.35,13.97 211.13,13.90 211.90,12.99 212.68,12.78 213.46,12.78 214.24,13.02 215.02,11.62 215.80,12.22 216.58,10.89 217.35,11.44 218.13,8.60 218.91,8.84 219.69,7.80 220.47,6.81 221.25,6.53 222.03,5.92 222.81,5.88 223.58,54.80 224.36,54.80 225.14,46.46 225.92,46.55 226.70,46.55 227.48,46.55 228.26,51.70 229.03,51.70 229.81,51.70 230.59,49.59 231.37,49.59 232.15,49.59 232.93,49.59 233.71,42.99 234.49,42.99 235.26,48.24 236.04,44.08 236.82,44.08 237.60,44.08 238.38,41.38 239.16,41.38 239.94,42.09 240.71,42.09 241.49,42.09 242.27,41.14 243.05,41.14 243.83,40.22 244.61,40.22 245.39,40.22 246.17,38.42 246.94,38.42 247.72,38.42 248.50,35.78 249.28,35.78 250.06,35.78 250.84,32.49 251.62,32.49 252.39,32.49 253.17,32.96 253.95,32.96 254.73,32.96 255.51,31.79 256.29,31.79 257.07,39.25 257.85,33.56 258.62,33.56 259.40,33.56 260.18,25.85 260.96,25.85 261.74,25.85 262.52,25.85 263.30,29.47 264.07,22.74 264.85,22.74 265.63,22.74 266.41,16.97 267.19,16.97 267.97,27.80 268.75,24.86 269.53,24.86 270.30,24.86 271.08,18.71 271.86,18.71 272.64,13.94 273.42,13.94 274.20,23.94 274.98,21.36 275.75,21.36 276.53,21.36 277.31,17.78 278.09,17.78 278.87,17.78 279.65,12.54 280.43,12.54 281.21,14.29 281.98,14.29 282.76,14.29 283.54,10.72 284.32,10.72 285.10,10.72 285.88,12.76 286.66,12.76 287.43,7.86 288.21,7.86 288.99,7.86 289.77,4.00 290.55,9.94 291.33,6.45 292.11,6.45 292.89,6.45 293.66,5.33 294.44,5.33 295.22,5.33 296.00,6.70" />
</svg>