<svg width="300" height="60" xmlns="http://www.w3.org/2000/svg">
  <polyline fill="rgba(255,200,0,0.3)" stroke="#ffbb00" stroke-width="2" points="4.00,55.36 4.55,55.69 5.09,55.08 5.64,55.98 6.18,54.58 6.73,53.54 7.27,54.38 7.82,54.16 8.37,53.36 8.91,51.93 9.46,51.44 10.00,49.88 10.55,51.60 11.10,53.20 11.64,52.24 12.19,49.59 12.73,48.01 13.28,46.15 13.82,44.57 14.37,43.97 14.92,43.33 15.46,43.55 16.01,43.64 16.55,44.38 17.10,45.95 17.64,46.61 18.19,46.64 18.74,48.16 19.28,48.05 19.83,47.80 20.37,47.64 20.92,45.72 21.47,45.10 22.01,44.78 22.56,42.15 23.10,41.24 23.65,38.39 24.19,38.44 24.74,39.77 25.29,40.48 25.83,42.81 26.38,42.30 26.92,38.66 27.47,38.12 28.01,37.38 28.56,34.40 29.11,36.07 29.65,38.58 30.20,38.68 30.74,32.45 31.29,28.12 31.84,24.34 32.38,23.57 32.93,23.07 33.47,22.92 34.02,21.51 34.56,22.42 35.11,24.23 35.66,31.59 36.20,35.72 36.75,35.40 37.29,35.48 37.84,35.21 38.39,34.94 38.93,34.89 39.48,34.50 40.02,33.51 40.57,32.75 41.11,32.72 41.66,32.82 42.21,32.42 42.75,31.72 43.30,31.53 43.84,31.17 44.39,30.48 44.93,29.85 45.48,29.32 46.03,25.91 46.57,24.21 47.12,28.33 47.66,28.88 48.21,28.70 48.76,28.32 49.30,28.47 49.85,28.63 50.39,28.23 50.94,26.75 51.48,26.30 52.03,23.60 52.58,21.30 53.12,19.54 53.67,20.14 54.21,20.36 54.76,21.11 55.30,22.52 55.85,22.69 56.40,22.78 56.94,22.61 57.49,22.70 58.03,21.31 58.58,20.79 59.13,19.98 59.67,20.27 60.22,20.22 60.76,19.88 61.31,18.78 61.85,18.22 62.40,16.49 62.95,13.87 63.49,12.06 64.04,14.46 64.58,16.64 65.13,17.55 65.67,17.72 66.22,16.96 66.77,15.09 67.31,13.39 67.86,13.11 68.40,11.99 68.95,14.30 69.50,14.50 70.04,13.48 70.59,13.62 71.13,14.03 71.68,14.89 72.22,13.46 72.77,12.65 73.32,10.74 73.86,10.70 74.41,10.31 74.95,9.91 75.50,9.52 76.04,9.14 76.59,6.57 77.14,54.26 77.68,55.00 78.23,55.18 78.77,56.00 79.32,54.66 79.87,53.94 80.41,53.01 80.96,54.52 81.50,53.94 82.05,52.13 82.59,52.10 83.14,50.80 83.69,53.80 84.23,53.30 84.78,52.36 85.32,49.82 85.87,48.59 86.41,46.51 86.96,44.66 87.51,43.97 88.05,43.37 88.60,43.51 89.14,43.49 89.69,45.48 90.24,44.43 90.78,48.01 91.33,45.50 91.87,48.63 92.42,46.67 92.96,46.86 93.51,47.80 94.06,45.92 94.60,44.99 95.15,44.38 95.69,43.01 96.24,41.31 96.79,40.07 97.33,38.77 97.88,41.12 98.42,42.23 98.97,41.31 99.51,40.52 100.06,38.87 100.61,37.83 101.15,37.37 101.70,34.75 102.24,35.74 102.79,38.18 103.33,38.25 103.88,33.03 104.43,29.00 104.97,24.13 105.52,23.26 106.06,21.85 106.61,23.39 107.16,22.67 107.70,21.83 108.25,24.23 108.79,32.53 109.34,35.31 109.88,35.74 110.43,35.14 110.98,34.88 111.52,35.00 112.07,34.72 112.61,34.50 113.16,33.52 113.70,32.73 114.25,32.90 114.80,32.85 115.34,32.61 115.89,31.90 116.43,31.35 116.98,31.23 117.53,30.78 118.07,29.94 118.62,29.44 119.16,26.95 119.71,24.67 120.25,28.22 120.80,28.75 121.35,28.80 121.89,28.60 122.44,29.03 122.98,28.40 123.53,28.27 124.07,27.03 124.62,26.32 125.17,24.77 125.71,21.89 126.26,20.21 126.80,20.23 127.35,21.05 127.90,21.19 128.44,22.62 128.99,22.88 129.53,22.77 130.08,23.87 130.62,22.36 131.17,21.43 131.72,21.33 132.26,20.22 132.81,20.31 133.35,20.29 133.90,19.90 134.44,19.38 134.99,18.13 135.54,16.50 136.08,15.13 136.63,12.87 137.17,14.75 137.72,16.69 138.27,17.54 138.81,17.71 139.36,16.70 139.90,14.22 140.45,14.72 140.99,13.35 141.54,12.42 142.09,13.89 142.63,14.73 143.18,13.28 143.72,13.69 144.27,14.05 144.81,14.96 145.36,13.81 145.91,12.02 146.45,10.80 147.00,10.65 147.54,10.39 148.09,9.94 148.64,9.50 149.18,9.17 149.73,6.53 150.27,53.73 150.82,53.73 151.36,53.78 151.91,54.93 152.46,53.78 153.00,53.37 153.55,53.49 154.09,53.37 154.64,52.92 155.19,52.70 155.73,52.82 156.28,52.39 156.82,52.01 157.37,51.77 157.91,50.98 158.46,49.14 159.01,47.08 159.55,46.96 160.10,43.53 160.64,43.86 161.19,40.94 161.73,43.91 162.28,43.91 162.83,46.69 163.37,44.75 163.92,47.19 164.46,45.66 165.01,47.12 165.56,46.64 166.10,46.38 166.65,45.23 167.19,45.37 167.74,45.37 168.28,44.91 168.83,42.06 169.38,41.08 169.92,40.15 170.47,35.69 171.01,39.48 171.56,41.73 172.10,39.64 172.65,40.32 173.20,39.33 173.74,38.19 174.29,37.14 174.83,36.49 175.38,31.86 175.93,38.53 176.47,37.23 177.02,35.03 177.56,27.77 178.11,24.87 178.65,21.83 179.20,18.54 179.75,21.28 180.29,19.07 180.84,19.14 181.38,22.79 181.93,30.69 182.47,35.36 183.02,35.58 183.57,35.22 184.11,35.00 184.66,34.81 185.20,34.48 185.75,34.34 186.30,33.46 186.84,32.91 187.39,32.81 187.93,32.76 188.48,32.33 189.02,31.87 189.57,31.51 190.12,30.71 190.66,30.50 191.21,29.32 191.75,29.13 192.30,25.32 192.84,25.92 193.39,24.94 193.94,26.90 194.48,28.51 195.03,28.39 195.57,27.91 196.12,28.10 196.67,27.02 197.21,26.80 197.76,23.61 198.30,22.96 198.85,21.90 199.39,21.66 199.94,18.52 200.49,19.48 201.03,20.80 201.58,22.33 202.12,23.46 202.67,21.73 203.21,23.29 203.76,20.98 204.31,21.98 204.85,20.83 205.40,19.90 205.94,20.69 206.49,20.27 207.04,18.68 207.58,18.68 208.13,17.63 208.67,15.04 209.22,13.00 209.76,12.74 210.31,14.44 210.86,15.77 211.40,16.83 211.95,17.55 212.49,14.07 213.04,15.39 213.59,12.02 214.13,15.23 214.68,13.74 215.22,14.20 215.77,15.14 216.31,13.77 216.86,13.68 217.41,14.23 217.95,14.13 218.50,12.91 219.04,11.49 219.59,10.81 220.13,10.50 220.68,10.04 221.23,9.66 221.77,9.44 222.32,9.08 222.86,6.07 223.41,52.51 223.96,52.72 224.50,52.72 225.05,49.99 225.59,45.79 226.14,45.79 226.68,45.79 227.23,40.30 227.78,49.84 228.32,49.84 228.87,49.84 229.41,48.31 229.96,48.31 230.50,48.31 231.05,44.83 231.60,44.83 232.14,44.83 232.69,46.03 233.23,46.03 233.78,46.03 234.33,40.30 234.87,40.30 235.42,40.30 235.96,42.53 236.51,43.58 237.05,43.58 237.60,43.58 238.15,41.55 238.69,41.55 239.24,37.33 239.78,41.43 240.33,41.43 240.87,41.43 241.42,41.43 241.97,32.53 242.51,40.08 243.06,40.08 243.60,27.87 244.15,27.87 244.70,32.17 245.24,32.17 245.79,30.61 246.33,30.61 246.88,30.61 247.42,32.53 247.97,32.53 248.52,32.53 249.06,37.02 249.61,37.02 250.15,32.46 250.70,32.46 251.24,32.46 251.79,18.98 252.34,18.98 252.88,18.98 253.43,22.87 253.97,22.87 254.52,22.87 255.07,33.35 255.61,33.35 256.16,34.81 256.70,34.81 257.25,34.81 257.79,34.33 258.34,33.01 258.89,33.01 259.43,32.65 259.98,32.65 260.52,32.65 261.07,31.98 261.61,26.60 262.16,26.60 262.71,27.76 263.25,27.76 263.80,27.76 264.34,27.73 264.89,27.73 265.44,14.37 265.98,19.17 266.53,19.17 267.07,20.63 267.62,20.63 268.16,20.63 268.71,24.71 269.26,24.71 269.80,24.71 270.35,24.59 270.89,12.50 271.44,12.50 271.99,13.75 272.53,13.75 273.08,16.85 273.62,16.85 274.17,16.85 274.71,20.88 275.26,20.88 275.81,20.88 276.35,22.35 276.90,15.06 277.44,15.06 277.99,19.95 278.53,19.95 279.08,19.95 279.63,16.13 280.17,16.13 280.72,16.13 281.26,16.13 281.81,4.00 282.36,4.00 282.90,6.45 283.45,6.45 283.99,6.45 284.54,8.94 285.08,8.94 285.63,8.94 286.18,12.28 286.72,12.28 287.27,12.28 287.81,12.57 288.36,12.57 288.90,12.57 289.45,13.53 290.00,10.18 290.54,10.18 291.09,11.66 291.63,11.66 292.18,11.66 292.73,9.38 293.27,9.38 293.82,9.38 294.36,9.14 294.91,9.14 295.45,9.14 296.00,7.32" />
</svg>