<svg width="300" height="60" xmlns="http://www.w3.org/2000/svg">
  <polyline fill="rgba(255,200,0,0.3)" stroke="#ffbb00" stroke-width="2" points="4.00,26.30 4.77,28.98 5.53,32.28 6.30,32.57 7.07,31.83 7.83,31.49 8.60,30.71 9.36,29.70 10.13,28.84 10.90,28.94 11.66,29.67 12.43,30.82 13.20,32.55 13.96,34.49 14.73,36.40 15.50,36.02 16.26,33.73 17.03,30.63 17.80,27.86 18.56,25.47 19.33,23.53 20.09,21.50 20.86,20.03 21.63,19.53 22.39,19.97 23.16,20.30 23.93,21.20 24.69,21.85 25.46,20.36 26.23,18.20 26.99,16.47 27.76,16.12 28.52,16.71 29.29,17.52 30.06,18.08 30.82,18.76 31.59,19.50 32.36,20.12 33.12,20.93 33.89,21.55 34.66,22.41 35.42,23.51 36.19,24.40 36.96,24.25 37.72,23.02 38.49,20.88 39.25,18.60 40.02,17.39 40.79,16.32 41.55,14.36 42.32,12.27 43.09,9.87 43.85,8.14 44.62,6.82 45.39,6.46 46.15,6.96 46.92,7.31 47.69,7.43 48.45,7.69 49.22,8.25 49.98,9.09 50.75,10.13 51.52,10.95 52.28,11.31 53.05,11.67 53.82,11.80 54.58,11.96 55.35,12.81 56.12,14.75 56.88,17.61 57.65,19.37 58.41,20.38 59.18,21.41 59.95,22.86 60.71,24.20 61.48,25.49 62.25,26.51 63.01,27.03 63.78,28.50 64.55,29.50 65.31,30.34 66.08,31.62 66.85,33.01 67.61,34.12 68.38,35.30 69.14,36.73 69.91,38.35 70.68,39.52 71.44,40.72 72.21,41.91 72.98,42.84 73.74,42.99 74.51,42.57 75.28,41.83 76.04,41.16 76.81,40.86 77.57,40.86 78.34,40.64 79.11,40.57 79.87,41.28 80.64,43.50 81.41,44.10 82.17,43.74 82.94,42.50 83.71,41.35 84.47,40.35 85.24,40.36 86.01,40.44 86.77,40.40 87.54,41.06 88.30,43.27 89.07,45.53 89.84,47.49 90.60,49.07 91.37,49.32 92.14,48.15 92.90,46.68 93.67,45.75 94.44,46.59 95.20,49.02 95.97,50.04 96.73,50.78 97.50,50.73 98.27,52.33 99.03,53.20 99.80,54.09 100.57,53.52 101.33,51.16 102.10,24.62 102.87,28.87 103.63,32.34 104.40,31.04 105.17,32.91 105.93,30.53 106.70,31.37 107.46,28.43 108.23,29.06 109.00,28.74 109.76,29.86 110.53,31.76 111.30,31.85 112.06,34.20 112.83,36.78 113.60,35.77 114.36,32.57 115.13,31.80 115.90,27.93 116.66,24.41 117.43,23.79 118.19,22.10 118.96,20.18 119.73,19.74 120.49,20.01 121.26,20.63 122.03,21.86 122.79,21.86 123.56,20.92 124.33,17.91 125.09,16.40 125.86,16.21 126.62,17.01 127.39,17.15 128.16,17.95 128.92,18.83 129.69,19.51 130.46,20.48 131.22,21.02 131.99,21.26 132.76,23.31 133.52,23.61 134.29,23.15 135.06,24.19 135.82,24.19 136.59,21.65 137.35,19.09 138.12,16.59 138.89,16.73 139.65,14.67 140.42,11.79 141.19,9.50 141.95,7.03 142.72,7.49 143.49,6.43 144.25,6.46 145.02,8.17 145.78,7.49 146.55,7.49 147.32,7.71 148.08,9.21 148.85,9.98 149.62,11.40 150.38,11.45 151.15,12.80 151.92,12.41 152.68,11.46 153.45,12.58 154.22,14.70 154.98,19.58 155.75,18.87 156.51,21.36 157.28,20.74 158.05,22.50 158.81,25.07 159.58,25.61 160.35,27.74 161.11,27.49 161.88,29.01 162.65,29.92 163.41,29.92 164.18,31.02 164.94,32.72 165.71,33.81 166.48,35.23 167.24,36.76 168.01,38.18 168.78,40.45 169.54,40.11 170.31,41.73 171.08,42.85 171.84,42.67 172.61,42.96 173.38,41.70 174.14,41.95 174.91,40.80 175.67,40.82 176.44,40.57 177.21,43.25 177.97,45.05 178.74,43.58 179.51,43.91 180.27,42.08 181.04,40.88 181.81,40.46 182.57,40.99 183.34,40.05 184.10,40.44 184.87,40.90 185.64,43.89 186.40,44.72 187.17,48.01 187.94,48.01 188.70,48.24 189.47,47.67 190.24,46.52 191.00,45.68 191.77,46.48 192.54,48.76 193.30,50.20 194.07,50.77 194.83,50.26 195.60,51.68 196.37,53.41 197.13,54.50 197.90,53.14 198.67,51.19 199.43,26.20 200.20,26.20 200.97,32.15 201.73,28.05 202.50,28.05 203.27,31.37 204.03,31.37 204.80,31.37 205.56,32.26 206.33,29.38 207.10,29.38 207.86,33.75 208.63,33.75 209.40,33.75 210.16,33.47 210.93,35.44 211.70,35.44 212.46,35.44 213.23,27.75 213.99,22.95 214.76,22.95 215.53,22.95 216.29,23.09 217.06,20.01 217.83,20.01 218.59,20.01 219.36,20.92 220.13,20.92 220.89,20.92 221.66,20.92 222.43,17.45 223.19,16.65 223.96,16.65 224.72,16.65 225.49,19.01 226.26,19.01 227.02,19.01 227.79,22.55 228.56,22.55 229.32,22.55 230.09,23.62 230.86,23.62 231.62,23.62 232.39,21.70 233.15,21.70 233.92,21.70 234.69,22.56 235.45,16.73 236.22,16.73 236.99,16.73 237.75,9.67 238.52,10.26 239.29,10.26 240.05,10.26 240.82,4.00 241.59,8.18 242.35,8.18 243.12,8.18 243.88,8.18 244.65,8.87 245.42,8.87 246.18,8.87 246.95,12.94 247.72,12.94 248.48,12.94 249.25,12.58 250.02,12.58 250.78,12.58 251.55,12.58 252.31,21.36 253.08,21.36 253.85,21.36 254.61,21.36 255.38,25.90 256.15,25.90 256.91,23.23 257.68,27.50 258.45,27.50 259.21,27.50 259.98,32.49 260.75,32.49 261.51,32.49 262.28,34.44 263.04,35.53 263.81,35.53 264.58,35.53 265.34,38.78 266.11,38.78 266.88,38.78 267.64,47.12 268.41,42.13 269.18,42.13 269.94,43.76 270.71,43.76 271.48,43.76 272.24,40.56 273.01,40.56 273.77,40.56 274.54,46.57 275.31,46.57 276.07,41.92 276.84,41.92 277.61,41.92 278.37,39.75 279.14,39.75 279.91,39.75 280.67,39.75 281.44,40.55 282.20,40.55 282.97,46.63 283.74,48.01 284.50,48.01 285.27,48.01 286.04,48.01 286.80,46.51 287.57,46.51 288.34,46.51 289.10,48.22 289.87,48.22 290.64,48.22 291.40,48.22 292.17,49.85 292.93,49.85 293.70,56.00 294.47,56.00 295.23,55.27 296.00,49.21" />
</svg>