<svg width="300" height="60" xmlns="http://www.w3.org/2000/svg">
  <polyline fill="rgba(255,200,0,0.3)" stroke="#ffbb00" stroke-width="2" points="4.00,15.64 5.67,18.26 7.34,20.89 9.01,24.43 10.67,26.08 12.34,26.81 14.01,26.91 15.68,27.09 17.35,27.31 19.02,26.81 20.69,26.67 22.35,27.51 24.02,28.47 25.69,29.50 27.36,30.54 29.03,31.99 30.70,33.42 32.37,34.59 34.03,35.77 35.70,36.03 37.37,35.30 39.04,33.22 40.71,30.95 42.38,31.97 44.05,31.31 45.71,33.44 47.38,33.36 49.05,34.76 50.72,36.41 52.39,38.07 54.06,41.89 55.73,46.55 57.39,50.79 59.06,51.26 60.73,51.47 62.40,51.93 64.07,52.38 65.74,52.79 67.41,53.27 69.07,52.63 70.74,52.06 72.41,50.62 74.08,51.05 75.75,54.13 77.42,15.57 79.09,18.34 80.75,20.82 82.42,23.89 84.09,25.92 85.76,26.80 87.43,27.11 89.10,27.22 90.77,27.48 92.43,26.74 94.10,26.68 95.77,26.45 97.44,28.71 99.11,28.79 100.78,30.71 102.45,32.24 104.11,33.62 105.78,34.83 107.45,35.99 109.12,36.19 110.79,35.94 112.46,32.98 114.13,31.26 115.79,32.24 117.46,31.55 119.13,34.17 120.80,33.72 122.47,35.06 124.14,36.85 125.81,38.34 127.47,42.39 129.14,46.89 130.81,50.92 132.48,51.46 134.15,51.70 135.82,52.26 137.49,52.71 139.15,53.14 140.82,53.23 142.49,52.85 144.16,52.33 145.83,51.21 147.50,51.41 149.17,54.59 150.83,4.00 152.50,20.40 154.17,24.14 155.84,29.81 157.51,29.81 159.18,37.01 160.85,28.26 162.51,35.92 164.18,28.08 165.85,22.43 167.52,19.33 169.19,31.00 170.86,31.64 172.53,31.64 174.19,32.60 175.86,34.51 177.53,36.52 179.20,38.25 180.87,34.15 182.54,33.97 184.21,33.51 185.87,33.60 187.54,33.38 189.21,34.84 190.88,36.93 192.55,30.83 194.22,34.02 195.89,32.47 197.55,36.48 199.22,37.03 200.89,43.87 202.56,47.11 204.23,50.94 205.90,49.30 207.57,50.30 209.23,51.21 210.90,53.76 212.57,52.03 214.24,52.67 215.91,52.76 217.58,49.69 219.25,49.50 220.91,47.68 222.58,56.00 224.25,7.14 225.92,7.14 227.59,39.59 229.26,31.48 230.93,31.48 232.59,31.48 234.26,31.48 235.93,49.70 237.60,49.70 239.27,49.70 240.94,39.48 242.61,39.48 244.27,39.48 245.94,38.94 247.61,38.94 249.28,38.94 250.95,42.22 252.62,42.22 254.29,42.22 255.95,43.22 257.62,43.22 259.29,43.22 260.96,43.68 262.63,43.68 264.30,43.68 265.97,28.00 267.63,34.38 269.30,34.38 270.97,34.38 272.64,46.23 274.31,46.23 275.98,35.57 277.65,50.51 279.31,50.51 280.98,50.51 282.65,44.29 284.32,52.99 285.99,52.99 287.66,52.99 289.33,45.79 290.99,45.79 292.66,54.26 294.33,49.25 296.00,49.25" />
</svg>