<svg width="300" height="60" xmlns="http://www.w3.org/2000/svg">
  <polyline fill="rgba(255,200,0,0.3)" stroke="#ffbb00" stroke-width="2" points="4.00,31.06 4.78,27.26 5.56,25.49 6.34,25.89 7.12,27.21 7.90,28.35 8.68,29.96 9.47,32.95 10.25,36.10 11.03,37.63 11.81,38.39 12.59,38.95 13.37,39.69 14.15,40.17 14.93,39.90 15.71,40.20 16.49,40.60 17.27,40.71 18.05,41.83 18.83,43.29 19.61,44.87 20.40,46.30 21.18,48.22 21.96,49.85 22.74,52.28 23.52,52.95 24.30,52.94 25.08,52.93 25.86,52.58 26.64,52.65 27.42,52.93 28.20,53.04 28.98,52.10 29.76,51.43 30.55,50.99 31.33,50.46 32.11,50.32 32.89,50.49 33.67,52.00 34.45,53.04 35.23,53.47 36.01,54.51 36.79,54.70 37.57,54.76 38.35,54.56 39.13,54.65 39.91,54.38 40.70,53.72 41.48,53.49 42.26,53.22 43.04,53.51 43.82,52.83 44.60,52.42 45.38,51.76 46.16,51.21 46.94,49.24 47.72,46.79 48.50,44.06 49.28,41.96 50.06,40.75 50.84,37.89 51.63,36.06 52.41,34.07 53.19,31.84 53.97,28.55 54.75,25.68 55.53,22.83 56.31,20.42 57.09,19.24 57.87,19.21 58.65,19.71 59.43,21.42 60.21,24.33 60.99,27.58 61.78,29.92 62.56,27.65 63.34,25.15 64.12,23.93 64.90,22.77 65.68,21.70 66.46,20.58 67.24,19.62 68.02,17.85 68.80,16.22 69.58,14.67 70.36,12.84 71.14,11.31 71.93,9.62 72.71,8.72 73.49,8.45 74.27,9.09 75.05,12.06 75.83,15.23 76.61,19.25 77.39,19.36 78.17,18.73 78.95,18.19 79.73,17.32 80.51,16.75 81.29,15.67 82.07,14.65 82.86,12.67 83.64,11.64 84.42,10.25 85.20,8.72 85.98,8.05 86.76,7.69 87.54,8.91 88.32,8.98 89.10,11.25 89.88,14.06 90.66,16.76 91.44,19.53 92.22,20.69 93.01,19.10 93.79,18.40 94.57,18.26 95.35,18.17 96.13,18.56 96.91,19.18 97.69,18.36 98.47,15.01 99.25,10.88 100.03,7.44 100.81,4.00 101.59,32.07 102.37,27.11 103.16,27.51 103.94,26.90 104.72,26.90 105.50,27.62 106.28,28.73 107.06,32.60 107.84,36.67 108.62,36.55 109.40,39.04 110.18,41.19 110.96,39.21 111.74,41.09 112.52,42.79 113.30,39.34 114.09,39.34 114.87,41.43 115.65,43.65 116.43,40.52 117.21,43.15 117.99,45.86 118.77,48.65 119.55,50.92 120.33,51.19 121.11,52.79 121.89,53.02 122.67,52.87 123.45,52.57 124.24,52.77 125.02,52.91 125.80,52.67 126.58,52.67 127.36,52.27 128.14,50.99 128.92,50.50 129.70,51.34 130.48,51.34 131.26,52.32 132.04,53.78 132.82,53.63 133.60,55.03 134.39,54.52 135.17,54.94 135.95,54.38 136.73,54.75 137.51,54.14 138.29,54.12 139.07,53.35 139.85,53.87 140.63,52.54 141.41,52.76 142.19,53.11 142.97,51.28 143.75,51.79 144.53,48.78 145.32,48.16 146.10,45.10 146.88,42.34 147.66,39.92 148.44,38.17 149.22,36.19 150.00,34.24 150.78,32.49 151.56,27.81 152.34,26.23 153.12,24.83 153.90,20.31 154.68,18.74 155.47,18.45 156.25,18.55 157.03,23.53 157.81,25.18 158.59,27.33 159.37,28.86 160.15,26.64 160.93,23.31 161.71,24.15 162.49,21.60 163.27,22.79 164.05,20.40 164.83,18.20 165.61,19.46 166.40,17.35 167.18,15.13 167.96,12.96 168.74,11.80 169.52,10.13 170.30,9.02 171.08,8.57 171.86,9.20 172.64,11.20 173.42,16.72 174.20,18.18 174.98,17.41 175.76,16.43 176.55,15.69 177.33,15.20 178.11,14.39 178.89,13.80 179.67,12.78 180.45,11.77 181.23,10.89 182.01,9.62 182.79,9.12 183.57,8.85 184.35,8.95 185.13,8.63 185.91,9.17 186.70,12.11 187.48,14.50 188.26,17.44 189.04,20.64 189.82,20.64 190.60,19.88 191.38,19.56 192.16,17.64 192.94,19.04 193.72,17.17 194.50,19.02 195.28,16.95 196.06,15.44 196.84,12.24 197.63,8.19 198.41,5.60 199.19,38.13 199.97,32.14 200.75,32.14 201.53,32.14 202.31,32.14 203.09,28.36 203.87,28.36 204.65,28.36 205.43,38.94 206.21,38.94 206.99,38.94 207.78,46.42 208.56,36.83 209.34,36.83 210.12,42.13 210.90,42.13 211.68,42.13 212.46,42.13 213.24,47.43 214.02,47.43 214.80,47.43 215.58,52.12 216.36,52.12 217.14,52.12 217.93,49.80 218.71,49.80 219.49,49.80 220.27,52.71 221.05,52.71 221.83,52.71 222.61,52.66 223.39,52.79 224.17,52.79 224.95,52.79 225.73,52.40 226.51,52.40 227.29,52.40 228.07,52.99 228.86,52.99 229.64,55.21 230.42,55.16 231.20,55.16 231.98,55.16 232.76,53.24 233.54,53.24 234.32,56.00 235.10,54.37 235.88,54.37 236.66,54.37 237.44,50.08 238.22,50.08 239.01,55.49 239.79,51.05 240.57,51.05 241.35,51.05 242.13,43.06 242.91,49.72 243.69,49.72 244.47,42.38 245.25,42.38 246.03,36.74 246.81,36.74 247.59,36.74 248.37,32.30 249.16,32.30 249.94,32.30 250.72,29.36 251.50,19.59 252.28,18.85 253.06,18.85 253.84,18.85 254.62,32.79 255.40,32.79 256.18,32.79 256.96,30.15 257.74,30.15 258.52,21.91 259.30,21.91 260.09,21.91 260.87,24.89 261.65,24.89 262.43,24.89 263.21,18.10 263.99,18.10 264.77,18.10 265.55,12.21 266.33,12.21 267.11,9.54 267.89,9.54 268.67,9.54 269.45,13.61 270.24,13.61 271.02,16.97 271.80,16.97 272.58,16.97 273.36,15.49 274.14,15.49 274.92,15.49 275.70,13.81 276.48,13.81 277.26,11.42 278.04,11.42 278.82,11.42 279.60,10.01 280.39,10.01 281.17,10.03 281.95,10.03 282.73,10.03 283.51,11.37 284.29,11.37 285.07,15.98 285.85,15.98 286.63,15.98 287.41,15.98 288.19,23.95 288.97,17.93 289.75,17.93 290.53,17.93 291.32,12.18 292.10,20.46 292.88,20.46 293.66,13.58 294.44,13.58 295.22,13.58 296.00,7.08" />
</svg>