<svg width="300" height="60" xmlns="http://www.w3.org/2000/svg">
  <polyline fill="rgba(255,200,0,0.3)" stroke="#ffbb00" stroke-width="2" points="4.00,37.27 8.29,50.20 12.59,49.45 16.88,48.70 21.18,52.52 25.47,53.35 29.76,54.36 34.06,55.39 38.35,53.91 42.65,54.73 46.94,53.52 51.24,53.53 55.53,51.59 59.82,50.80 64.12,49.52 68.41,48.84 72.71,49.75 77.00,52.32 81.29,53.17 85.59,48.65 89.88,47.80 94.18,38.22 98.47,21.75 102.76,25.68 107.06,49.20 111.35,49.20 115.65,51.59 119.94,52.38 124.24,53.38 128.53,53.58 132.82,54.77 137.12,55.37 141.41,54.38 145.71,53.46 150.00,52.86 154.29,49.68 158.59,51.67 162.88,49.48 167.18,48.08 171.47,52.51 175.76,49.68 180.06,52.10 184.35,49.71 188.65,47.32 192.94,42.14 197.24,19.83 201.53,4.00 205.82,49.82 210.12,49.82 214.41,46.44 218.71,53.41 223.00,53.41 227.29,53.41 231.59,53.41 235.88,56.00 240.18,56.00 244.47,56.00 248.76,54.01 253.06,54.01 257.35,54.01 261.65,48.18 265.94,48.18 270.24,48.18 274.53,51.96 278.82,51.96 283.12,51.96 287.41,51.96 291.71,39.41 296.00,25.86" />
</svg>