<svg width="300" height="60" xmlns="http://www.w3.org/2000/svg">
  <polyline fill="rgba(255,200,0,0.3)" stroke="#ffbb00" stroke-width="2" points="4.00,39.78 4.76,41.12 5.52,42.50 6.29,43.61 7.05,45.19 7.81,46.09 8.57,47.27 9.34,48.51 10.10,49.21 10.86,50.78 11.62,51.78 12.39,52.66 13.15,53.31 13.91,53.84 14.67,54.48 15.44,54.99 16.20,55.49 16.96,55.62 17.72,55.27 18.49,53.94 19.25,52.91 20.01,51.58 20.77,50.64 21.54,48.99 22.30,47.48 23.06,46.46 23.82,45.84 24.58,45.00 25.35,44.07 26.11,44.31 26.87,43.28 27.63,42.16 28.40,40.66 29.16,39.15 29.92,39.33 30.68,39.37 31.45,38.81 32.21,37.97 32.97,36.62 33.73,35.19 34.50,33.70 35.26,31.78 36.02,30.69 36.78,29.88 37.55,31.57 38.31,31.40 39.07,31.01 39.83,28.50 40.60,24.14 41.36,23.04 42.12,21.99 42.88,22.50 43.64,22.42 44.41,22.98 45.17,23.56 45.93,23.08 46.69,22.66 47.46,22.94 48.22,22.72 48.98,22.61 49.74,22.97 50.51,22.84 51.27,22.93 52.03,23.67 52.79,23.75 53.56,23.62 54.32,23.33 55.08,23.26 55.84,22.42 56.61,22.11 57.37,21.01 58.13,20.30 58.89,19.21 59.66,17.86 60.42,16.87 61.18,16.26 61.94,15.61 62.70,14.89 63.47,14.59 64.23,14.59 64.99,15.42 65.75,15.33 66.52,15.38 67.28,15.63 68.04,14.96 68.80,14.14 69.57,13.52 70.33,14.32 71.09,14.98 71.85,15.03 72.62,14.39 73.38,13.80 74.14,12.28 74.90,9.96 75.67,7.77 76.43,4.08 77.19,41.04 77.95,41.38 78.72,42.92 79.48,44.08 80.24,45.89 81.00,46.37 81.77,47.58 82.53,49.03 83.29,49.44 84.05,51.19 84.81,51.16 85.58,52.38 86.34,53.17 87.10,53.67 87.86,55.00 88.63,55.73 89.39,56.00 90.15,55.64 90.91,54.97 91.68,54.76 92.44,53.04 93.20,52.98 93.96,51.03 94.73,49.15 95.49,48.70 96.25,47.37 97.01,46.22 97.78,45.81 98.54,45.39 99.30,43.67 100.06,43.50 100.83,42.97 101.59,40.21 102.35,37.96 103.11,39.71 103.87,39.00 104.64,39.63 105.40,38.24 106.16,35.82 106.92,34.22 107.69,33.19 108.45,31.62 109.21,31.30 109.97,30.18 110.74,30.43 111.50,32.25 112.26,30.95 113.02,28.60 113.79,24.51 114.55,23.36 115.31,23.74 116.07,23.52 116.84,23.25 117.60,23.40 118.36,23.78 119.12,23.50 119.89,23.32 120.65,22.91 121.41,22.74 122.17,22.93 122.93,23.17 123.70,23.37 124.46,23.11 125.22,23.79 125.98,24.22 126.75,24.22 127.51,23.78 128.27,23.55 129.03,23.20 129.80,22.90 130.56,22.25 131.32,21.72 132.08,20.63 132.85,18.12 133.61,17.48 134.37,16.53 135.13,15.81 135.90,15.16 136.66,15.04 137.42,15.48 138.18,15.75 138.95,16.14 139.71,16.35 140.47,16.14 141.23,15.97 141.99,15.35 142.76,15.02 143.52,15.11 144.28,15.97 145.04,15.22 145.81,14.86 146.57,14.98 147.33,12.02 148.09,10.05 148.86,8.61 149.62,5.01 150.38,39.51 151.14,41.30 151.91,42.84 152.67,43.96 153.43,46.12 154.19,43.69 154.96,45.06 155.72,46.36 156.48,47.99 157.24,49.70 158.01,51.21 158.77,52.72 159.53,51.23 160.29,53.10 161.05,54.99 161.82,53.63 162.58,54.81 163.34,54.81 164.10,54.99 164.87,54.72 165.63,50.46 166.39,50.40 167.15,50.16 167.92,49.63 168.68,49.07 169.44,44.98 170.20,45.22 170.97,45.72 171.73,42.97 172.49,43.85 173.25,41.07 174.02,41.66 174.78,36.72 175.54,37.93 176.30,35.80 177.07,38.58 177.83,37.83 178.59,38.10 179.35,34.67 180.11,31.89 180.88,30.43 181.64,32.65 182.40,30.94 183.16,26.85 183.93,30.23 184.69,30.88 185.45,28.07 186.21,27.15 186.98,23.95 187.74,19.90 188.50,21.46 189.26,23.27 190.03,20.49 190.79,22.23 191.55,23.86 192.31,20.89 193.08,22.25 193.84,23.67 194.60,20.80 195.36,22.40 196.13,23.99 196.89,21.36 197.65,21.36 198.41,23.19 199.17,21.17 199.94,22.59 200.70,23.77 201.46,20.72 202.22,21.90 202.99,22.79 203.75,19.41 204.51,20.21 205.27,20.73 206.04,17.15 206.80,17.65 207.56,14.10 208.32,14.10 209.09,14.96 209.85,12.03 210.61,13.63 211.37,15.82 212.14,13.29 212.90,14.82 213.66,16.04 214.42,13.34 215.19,14.50 215.95,15.77 216.71,13.43 217.47,15.33 218.23,13.09 219.00,13.09 219.76,14.60 220.52,12.05 221.28,9.36 222.05,6.52 222.81,5.07 223.57,35.43 224.33,41.17 225.10,41.17 225.86,41.17 226.62,45.94 227.38,33.65 228.15,33.65 228.91,38.39 229.67,38.39 230.43,38.39 231.20,43.27 231.96,43.27 232.72,43.27 233.48,49.25 234.25,49.25 235.01,49.25 235.77,53.86 236.53,53.86 237.30,53.86 238.06,53.86 238.82,42.17 239.58,42.17 240.34,42.17 241.11,41.94 241.87,41.94 242.63,41.94 243.39,41.76 244.16,41.76 244.92,41.76 245.68,43.56 246.44,31.96 247.21,31.96 247.97,31.96 248.73,34.15 249.49,34.15 250.26,34.15 251.02,30.30 251.78,30.30 252.54,30.30 253.31,30.30 254.07,22.80 254.83,22.80 255.59,22.80 256.36,22.80 257.12,30.53 257.88,21.38 258.64,21.38 259.40,21.38 260.17,15.49 260.93,15.49 261.69,15.49 262.45,15.49 263.22,20.47 263.98,20.47 264.74,20.47 265.50,12.39 266.27,12.39 267.03,12.39 267.79,16.71 268.55,16.71 269.32,16.71 270.08,21.48 270.84,21.48 271.60,21.48 272.37,9.20 273.13,13.78 273.89,13.78 274.65,13.78 275.42,17.35 276.18,17.35 276.94,17.35 277.70,19.92 278.46,19.92 279.23,7.32 279.99,9.42 280.75,9.42 281.51,9.42 282.28,9.42 283.04,12.26 283.80,12.26 284.56,12.26 285.33,5.24 286.09,5.24 286.85,5.24 287.61,9.42 288.38,9.42 289.14,9.42 289.90,13.77 290.66,13.77 291.43,4.00 292.19,4.00 292.95,8.06 293.71,8.06 294.48,8.06 295.24,9.12 296.00,7.72" />
</svg>