<svg width="300" height="60" xmlns="http://www.w3.org/2000/svg">
  <polyline fill="rgba(255,200,0,0.3)" stroke="#ffbb00" stroke-width="2" points="4.00,5.19 5.78,12.23 7.56,18.57 9.34,22.31 11.12,29.24 12.90,30.94 14.68,31.13 16.46,50.19 18.24,52.94 20.02,50.49 21.80,55.66 23.59,55.64 25.37,55.50 27.15,55.23 28.93,54.78 30.71,54.78 32.49,48.06 34.27,45.14 36.05,46.50 37.83,45.04 39.61,45.21 41.39,53.27 43.17,53.87 44.95,53.90 46.73,52.87 48.51,45.32 50.29,41.61 52.07,38.79 53.85,34.87 55.63,31.74 57.41,28.95 59.20,21.05 60.98,15.40 62.76,5.03 64.54,12.53 66.32,19.47 68.10,22.70 69.88,29.11 71.66,30.10 73.44,31.30 75.22,50.31 77.00,52.91 78.78,48.79 80.56,55.51 82.34,55.52 84.12,55.48 85.90,55.23 87.68,54.71 89.46,54.65 91.24,48.42 93.02,45.09 94.80,46.53 96.59,44.78 98.37,44.76 100.15,52.26 101.93,53.85 103.71,53.75 105.49,52.84 107.27,45.13 109.05,41.20 110.83,38.81 112.61,34.95 114.39,31.94 116.17,28.66 117.95,20.35 119.73,15.99 121.51,5.31 123.29,11.93 125.07,19.40 126.85,24.12 128.63,27.60 130.41,29.46 132.20,31.46 133.98,45.01 135.76,52.87 137.54,47.86 139.32,55.14 141.10,56.00 142.88,55.67 144.66,55.81 146.44,55.53 148.22,55.10 150.00,49.52 151.78,45.23 153.56,46.52 155.34,45.38 157.12,44.87 158.90,52.87 160.68,54.15 162.46,54.79 164.24,51.39 166.02,45.10 167.80,41.67 169.59,37.30 171.37,34.89 173.15,31.61 174.93,27.89 176.71,18.67 178.49,11.24 180.27,4.90 182.05,13.33 183.83,18.76 185.61,26.33 187.39,29.92 189.17,34.78 190.95,38.21 192.73,50.92 194.51,53.21 196.29,49.21 198.07,53.21 199.85,55.64 201.63,55.15 203.41,55.01 205.20,54.72 206.98,53.72 208.76,47.43 210.54,45.58 212.32,42.54 214.10,46.54 215.88,46.54 217.66,51.11 219.44,53.39 221.22,52.68 223.00,51.46 224.78,48.17 226.56,42.03 228.34,39.60 230.12,37.60 231.90,34.89 233.68,24.46 235.46,16.83 237.24,12.69 239.02,4.00 240.80,4.00 242.59,17.71 244.37,27.71 246.15,27.71 247.93,43.71 249.71,43.71 251.49,43.71 253.27,51.16 255.05,51.88 256.83,51.88 258.61,52.73 260.39,52.73 262.17,52.73 263.95,52.31 265.73,42.16 267.51,42.16 269.29,42.16 271.07,22.45 272.85,22.45 274.63,22.45 276.41,49.31 278.20,43.45 279.98,43.45 281.76,43.45 283.54,44.31 285.32,47.31 287.10,47.31 288.88,36.57 290.66,36.57 292.44,20.43 294.22,20.43 296.00,20.43" />
</svg>