<svg width="300" height="60" xmlns="http://www.w3.org/2000/svg">
  <polyline fill="rgba(255,200,0,0.3)" stroke="#ffbb00" stroke-width="2" points="4.00,49.30 5.09,50.11 6.19,50.28 7.28,50.71 8.37,51.07 9.47,51.71 10.56,52.09 11.66,52.08 12.75,51.93 13.84,51.96 14.94,51.87 16.03,52.22 17.12,51.98 18.22,51.80 19.31,51.25 20.40,51.98 21.50,53.48 22.59,54.26 23.69,54.08 24.78,53.99 25.87,54.42 26.97,54.42 28.06,54.08 29.15,54.00 30.25,54.49 31.34,55.15 32.43,55.02 33.53,54.42 34.62,54.12 35.72,53.60 36.81,53.05 37.90,53.49 39.00,53.38 40.09,52.77 41.18,52.11 42.28,51.42 43.37,50.09 44.46,48.72 45.56,47.16 46.65,45.83 47.75,44.38 48.84,43.17 49.93,42.57 51.03,41.18 52.12,40.05 53.21,38.65 54.31,36.82 55.40,33.65 56.49,32.38 57.59,30.79 58.68,29.94 59.78,28.55 60.87,26.88 61.96,24.85 63.06,22.22 64.15,20.13 65.24,17.59 66.34,15.21 67.43,12.93 68.52,12.12 69.62,12.51 70.71,13.30 71.81,12.54 72.90,12.60 73.99,12.32 75.09,11.21 76.18,7.59 77.27,49.51 78.37,50.40 79.46,50.79 80.55,50.99 81.65,51.48 82.74,51.68 83.84,52.03 84.93,52.00 86.02,51.95 87.12,50.78 88.21,51.44 89.30,51.98 90.40,50.80 91.49,51.00 92.58,50.35 93.68,51.37 94.77,53.01 95.87,53.96 96.96,53.95 98.05,54.26 99.15,53.77 100.24,53.61 101.33,53.34 102.43,52.83 103.52,53.46 104.61,54.32 105.71,55.14 106.80,53.10 107.90,54.04 108.99,53.59 110.08,53.12 111.18,53.67 112.27,53.13 113.36,52.70 114.46,51.96 115.55,50.71 116.64,49.61 117.74,48.35 118.83,46.55 119.93,45.34 121.02,44.61 122.11,43.63 123.21,41.98 124.30,41.24 125.39,40.67 126.49,39.44 127.58,36.58 128.67,34.34 129.77,32.66 130.86,30.55 131.96,29.68 133.05,27.73 134.14,25.88 135.24,24.12 136.33,20.83 137.42,18.99 138.52,17.43 139.61,14.97 140.70,13.41 141.80,11.73 142.89,12.42 143.99,12.21 145.08,12.02 146.17,11.98 147.27,11.84 148.36,9.87 149.45,7.37 150.55,49.71 151.64,49.71 152.73,50.53 153.83,51.28 154.92,51.51 156.01,51.83 157.11,51.87 158.20,51.87 159.30,51.59 160.39,49.48 161.48,49.71 162.58,50.07 163.67,50.26 164.76,50.34 165.86,50.22 166.95,49.87 168.04,52.26 169.14,53.63 170.23,53.43 171.33,53.85 172.42,53.74 173.51,53.42 174.61,53.03 175.70,53.89 176.79,52.41 177.89,54.01 178.98,54.25 180.07,53.84 181.17,52.90 182.26,51.10 183.36,53.18 184.45,52.98 185.54,52.59 186.64,52.20 187.73,51.53 188.82,51.53 189.92,48.56 191.01,48.80 192.10,47.11 193.20,45.31 194.29,45.82 195.39,43.82 196.48,42.45 197.57,40.10 198.67,39.83 199.76,37.57 200.85,34.99 201.95,33.11 203.04,31.42 204.13,30.05 205.23,28.88 206.32,26.96 207.42,25.28 208.51,23.52 209.60,21.42 210.70,18.57 211.79,15.59 212.88,14.38 213.98,12.30 215.07,13.51 216.16,13.58 217.26,11.31 218.35,12.76 219.45,11.27 220.54,11.39 221.63,8.74 222.73,7.30 223.82,49.87 224.91,49.87 226.01,49.87 227.10,51.75 228.19,52.14 229.29,52.14 230.38,52.14 231.48,52.14 232.57,51.09 233.66,51.09 234.76,51.09 235.85,51.44 236.94,51.44 238.04,51.44 239.13,51.15 240.22,51.15 241.32,51.15 242.41,54.32 243.51,54.04 244.60,54.04 245.69,54.04 246.79,54.55 247.88,54.55 248.97,54.55 250.07,56.00 251.16,56.00 252.25,56.00 253.35,55.65 254.44,55.65 255.54,55.65 256.63,54.08 257.72,54.08 258.82,54.08 259.91,52.59 261.00,52.59 262.10,52.59 263.19,52.59 264.28,51.93 265.38,46.53 266.47,46.53 267.57,42.41 268.66,42.41 269.75,39.98 270.85,39.98 271.94,34.85 273.03,34.85 274.13,34.85 275.22,33.87 276.31,33.87 277.41,33.87 278.50,29.17 279.60,29.17 280.69,29.17 281.78,24.00 282.88,24.00 283.97,24.87 285.06,17.04 286.16,17.04 287.25,17.04 288.34,20.95 289.44,14.45 290.53,14.45 291.63,14.45 292.72,13.08 293.81,13.08 294.91,8.42 296.00,4.00" />
</svg>