<svg width="300" height="60" xmlns="http://www.w3.org/2000/svg">
  <polyline fill="rgba(255,200,0,0.3)" stroke="#ffbb00" stroke-width="2" points="4.00,41.60 4.26,41.72 4.52,41.86 4.78,42.05 5.04,42.24 5.30,42.50 5.56,42.55 5.82,42.91 6.08,43.25 6.34,43.40 6.60,43.56 6.86,43.81 7.11,44.13 7.37,44.40 7.63,44.69 7.89,44.93 8.15,45.21 8.41,45.60 8.67,45.86 8.93,46.48 9.19,47.19 9.45,47.92 9.71,48.44 9.97,48.68 10.23,49.31 10.49,49.85 10.75,50.16 11.01,50.53 11.27,50.85 11.53,51.01 11.79,51.33 12.05,51.93 12.31,52.17 12.57,52.57 12.82,52.81 13.08,53.09 13.34,53.02 13.60,53.49 13.86,53.67 14.12,54.04 14.38,54.30 14.64,54.44 14.90,54.96 15.16,55.07 15.42,55.31 15.68,55.78 15.94,55.84 16.20,55.91 16.46,55.80 16.72,55.46 16.98,55.21 17.24,54.78 17.50,54.36 17.76,54.09 18.02,53.87 18.28,53.85 18.54,53.56 18.79,53.70 19.05,53.83 19.31,54.01 19.57,54.16 19.83,54.17 20.09,54.11 20.35,54.13 20.61,54.17 20.87,54.12 21.13,53.97 21.39,53.78 21.65,53.64 21.91,53.50 22.17,53.45 22.43,53.39 22.69,53.30 22.95,53.16 23.21,53.10 23.47,53.24 23.73,53.26 23.99,53.16 24.25,53.07 24.50,52.95 24.76,52.83 25.02,52.68 25.28,52.49 25.54,52.27 25.80,51.93 26.06,51.48 26.32,50.97 26.58,50.36 26.84,49.92 27.10,49.64 27.36,49.29 27.62,48.90 27.88,48.29 28.14,47.80 28.40,47.36 28.66,46.95 28.92,46.56 29.18,46.13 29.44,45.64 29.70,45.11 29.96,44.94 30.22,44.48 30.47,43.87 30.73,43.34 30.99,42.78 31.25,42.29 31.51,41.88 31.77,41.45 32.03,41.19 32.29,40.74 32.55,40.60 32.81,40.23 33.07,39.78 33.33,39.51 33.59,39.06 33.85,38.60 34.11,37.84 34.37,37.75 34.63,37.38 34.89,37.04 35.15,36.84 35.41,36.42 35.67,35.93 35.93,35.64 36.18,35.41 36.44,34.98 36.70,34.34 36.96,34.03 37.22,33.69 37.48,33.34 37.74,32.97 38.00,32.40 38.26,32.12 38.52,32.07 38.78,31.79 39.04,31.27 39.30,30.84 39.56,30.51 39.82,30.23 40.08,29.92 40.34,29.59 40.60,29.23 40.86,28.86 41.12,28.53 41.38,28.10 41.64,27.67 41.90,27.19 42.15,26.57 42.41,26.08 42.67,25.56 42.93,25.02 43.19,24.47 43.45,23.56 43.71,23.68 43.97,23.85 44.23,23.36 44.49,22.67 44.75,22.17 45.01,21.91 45.27,21.77 45.53,21.69 45.79,21.28 46.05,20.60 46.31,20.26 46.57,19.91 46.83,19.34 47.09,18.89 47.35,18.60 47.61,18.23 47.86,18.30 48.12,18.48 48.38,19.05 48.64,19.17 48.90,19.33 49.16,19.65 49.42,19.90 49.68,20.45 49.94,20.83 50.20,21.00 50.46,21.18 50.72,21.01 50.98,20.56 51.24,19.85 51.50,19.37 51.76,19.02 52.02,18.65 52.28,18.54 52.54,18.95 52.80,19.47 53.06,19.84 53.32,20.21 53.58,20.52 53.83,20.40 54.09,20.36 54.35,19.99 54.61,19.62 54.87,19.26 55.13,19.00 55.39,18.49 55.65,17.85 55.91,16.89 56.17,16.92 56.43,16.28 56.69,15.48 56.95,14.64 57.21,13.88 57.47,13.33 57.73,12.82 57.99,12.23 58.25,11.24 58.51,11.11 58.77,10.63 59.03,10.19 59.29,9.98 59.54,9.85 59.80,9.77 60.06,9.61 60.32,9.49 60.58,9.19 60.84,9.03 61.10,8.93 61.36,8.77 61.62,8.71 61.88,8.54 62.14,8.36 62.40,8.37 62.66,8.61 62.92,8.91 63.18,8.91 63.44,9.10 63.70,9.66 63.96,9.92 64.22,10.07 64.48,10.30 64.74,10.60 65.00,10.78 65.26,11.02 65.51,11.45 65.77,12.12 66.03,12.52 66.29,13.34 66.55,13.96 66.81,14.44 67.07,15.04 67.33,15.22 67.59,15.32 67.85,15.59 68.11,16.05 68.37,16.27 68.63,16.54 68.89,16.81 69.15,17.32 69.41,17.52 69.67,17.84 69.93,18.14 70.19,18.52 70.45,19.01 70.71,19.13 70.97,19.38 71.22,19.50 71.48,19.58 71.74,19.61 72.00,19.40 72.26,19.13 72.52,18.93 72.78,18.66 73.04,18.10 73.30,17.74 73.56,17.22 73.82,16.99 74.08,17.06 74.34,16.98 74.60,16.92 74.86,34.06 75.12,33.71 75.38,33.35 75.64,33.01 75.90,32.43 76.16,32.15 76.42,32.11 76.68,31.84 76.94,31.39 77.19,30.86 77.45,30.52 77.71,30.28 77.97,30.01 78.23,29.61 78.49,29.23 78.75,28.88 79.01,28.59 79.27,28.11 79.53,27.70 79.79,27.23 80.05,26.56 80.31,26.12 80.57,25.57 80.83,25.03 81.09,24.46 81.35,23.59 81.61,23.80 81.87,23.86 82.13,23.38 82.39,22.71 82.65,22.18 82.90,21.91 83.16,21.84 83.42,21.88 83.68,41.59 83.94,41.73 84.20,41.91 84.46,41.88 84.72,42.17 84.98,42.47 85.24,42.59 85.50,42.89 85.76,43.11 86.02,43.36 86.28,43.48 86.54,43.65 86.80,44.08 87.06,44.22 87.32,44.56 87.58,44.76 87.84,45.19 88.10,45.50 88.36,45.83 88.62,46.48 88.87,47.14 89.13,47.83 89.39,48.38 89.65,48.72 89.91,49.21 90.17,49.83 90.43,50.14 90.69,50.56 90.95,50.97 91.21,51.17 91.47,51.51 91.73,51.96 91.99,52.31 92.25,52.56 92.51,52.84 92.77,53.07 93.03,53.24 93.29,53.54 93.55,53.72 93.81,54.02 94.07,54.32 94.33,54.52 94.58,54.89 94.84,55.04 95.10,55.98 95.36,55.98 95.62,56.00 95.88,55.96 96.14,55.84 96.40,55.58 96.66,55.32 96.92,54.93 97.18,54.64 97.44,54.26 97.70,53.94 97.96,53.74 98.22,53.60 98.48,53.69 98.74,53.81 99.00,54.01 99.26,54.15 99.52,54.20 99.78,54.10 100.04,54.19 100.30,54.20 100.55,54.16 100.81,54.07 101.07,53.84 101.33,53.67 101.59,53.57 101.85,53.49 102.11,53.43 102.37,53.39 102.63,53.36 102.89,53.45 103.15,53.31 103.41,53.28 103.67,53.22 103.93,53.14 104.19,52.96 104.45,52.82 104.71,52.67 104.97,52.42 105.23,52.26 105.49,51.82 105.75,51.46 106.01,50.92 106.26,50.37 106.52,49.97 106.78,49.63 107.04,49.30 107.30,48.83 107.56,48.08 107.82,47.75 108.08,47.35 108.34,46.88 108.60,46.44 108.86,45.98 109.12,45.41 109.38,45.17 109.64,44.88 109.90,44.49 110.16,43.74 110.42,43.32 110.68,42.89 110.94,42.38 111.20,41.99 111.46,41.50 111.72,41.05 111.98,40.70 112.23,40.54 112.49,40.17 112.75,39.83 113.01,39.15 113.27,38.92 113.53,38.65 113.79,37.88 114.05,37.49 114.31,37.19 114.57,36.77 114.83,36.69 115.09,36.26 115.35,35.85 115.61,35.60 115.87,35.51 116.13,35.16 116.39,34.60 116.65,34.17 116.91,33.84 117.17,33.88 117.43,33.04 117.69,32.61 117.94,32.29 118.20,32.39 118.46,32.33 118.72,31.61 118.98,30.97 119.24,30.80 119.50,30.52 119.76,30.08 120.02,29.64 120.28,29.38 120.54,28.90 120.80,28.55 121.06,28.02 121.32,27.74 121.58,27.18 121.84,26.37 122.10,25.92 122.36,25.46 122.62,24.76 122.88,24.23 123.14,23.28 123.40,23.26 123.66,23.56 123.91,23.40 124.17,22.51 124.43,21.90 124.69,21.74 124.95,21.74 125.21,21.47 125.47,21.19 125.73,20.64 125.99,20.26 126.25,19.65 126.51,18.87 126.77,18.60 127.03,18.32 127.29,18.19 127.55,18.34 127.81,18.70 128.07,19.01 128.33,19.20 128.59,19.46 128.85,19.71 129.11,19.94 129.37,20.32 129.62,20.83 129.88,21.01 130.14,21.20 130.40,21.10 130.66,20.64 130.92,19.86 131.18,19.25 131.44,18.97 131.70,18.63 131.96,18.51 132.22,18.77 132.48,19.39 132.74,19.77 133.00,20.22 133.26,20.57 133.52,20.52 133.78,20.46 134.04,20.15 134.30,19.76 134.56,19.30 134.82,18.90 135.08,18.59 135.34,17.99 135.59,17.10 135.85,16.75 136.11,16.28 136.37,15.33 136.63,14.68 136.89,13.83 137.15,13.45 137.41,12.66 137.67,11.95 137.93,11.36 138.19,11.04 138.45,10.62 138.71,10.49 138.97,9.97 139.23,9.88 139.49,9.91 139.75,9.62 140.01,9.64 140.27,9.38 140.53,9.03 140.79,8.97 141.05,8.85 141.30,9.25 141.56,8.67 141.82,8.45 142.08,8.29 142.34,8.27 142.60,8.96 142.86,9.08 143.12,9.24 143.38,9.46 143.64,10.06 143.90,10.13 144.16,10.41 144.42,10.55 144.68,11.22 144.94,11.34 145.20,11.67 145.46,12.04 145.72,12.47 145.98,13.06 146.24,13.82 146.50,14.36 146.76,14.91 147.02,15.28 147.27,15.32 147.53,15.63 147.79,15.85 148.05,16.17 148.31,16.45 148.57,16.77 148.83,17.07 149.09,17.53 149.35,17.69 149.61,17.97 149.87,18.46 150.13,18.86 150.39,19.13 150.65,19.30 150.91,19.47 151.17,19.55 151.43,19.60 151.69,19.47 151.95,19.20 152.21,19.02 152.47,18.68 152.73,18.09 152.98,17.69 153.24,17.16 153.50,17.02 153.76,17.04 154.02,17.00 154.28,17.06 154.54,41.65 154.80,41.65 155.06,41.81 155.32,41.44 155.58,41.96 155.84,42.33 156.10,42.51 156.36,42.48 156.62,42.80 156.88,42.66 157.14,43.36 157.40,43.29 157.66,43.02 157.92,44.02 158.18,43.96 158.44,44.75 158.70,44.92 158.95,45.06 159.21,45.31 159.47,46.57 159.73,46.93 159.99,47.79 160.25,48.36 160.51,47.61 160.77,48.66 161.03,48.98 161.29,49.99 161.55,49.69 161.81,50.86 162.07,50.87 162.33,50.89 162.59,50.76 162.85,52.06 163.11,52.03 163.37,52.82 163.63,52.79 163.89,52.57 164.15,53.52 164.41,52.98 164.66,52.66 164.92,54.14 165.18,54.12 165.44,54.28 165.70,54.39 165.96,55.65 166.22,55.51 166.48,55.10 166.74,55.81 167.00,55.51 167.26,55.26 167.52,55.21 167.78,54.41 168.04,54.62 168.30,54.08 168.56,53.86 168.82,52.96 169.08,53.34 169.34,53.34 169.60,53.76 169.86,53.63 170.12,54.12 170.38,54.24 170.63,54.27 170.89,54.27 171.15,54.20 171.41,54.01 171.67,54.01 171.93,53.64 172.19,53.31 172.45,53.51 172.71,53.42 172.97,53.05 173.23,53.19 173.49,53.27 173.75,53.36 174.01,53.30 174.27,53.03 174.53,53.06 174.79,53.13 175.05,52.83 175.31,52.71 175.57,52.56 175.83,52.37 176.09,52.17 176.34,51.89 176.60,51.45 176.86,51.01 177.12,50.40 177.38,49.84 177.64,49.60 177.90,49.38 178.16,48.78 178.42,47.94 178.68,47.68 178.94,47.21 179.20,46.73 179.46,46.25 179.72,45.70 179.98,45.41 180.24,45.08 180.50,44.75 180.76,44.40 181.02,43.59 181.28,43.13 181.54,42.38 181.80,42.14 182.06,41.64 182.31,40.74 182.57,40.23 182.83,40.78 183.09,39.91 183.35,39.60 183.61,39.12 183.87,38.30 184.13,39.08 184.39,38.45 184.65,37.83 184.91,37.42 185.17,37.10 185.43,36.71 185.69,36.29 185.95,35.88 186.21,35.53 186.47,35.39 186.73,35.33 186.99,34.42 187.25,33.88 187.51,33.11 187.77,33.81 188.02,32.78 188.28,33.06 188.54,31.80 188.80,32.30 189.06,31.41 189.32,31.85 189.58,30.72 189.84,30.94 190.10,30.08 190.36,30.59 190.62,30.26 190.88,29.20 191.14,29.62 191.40,28.96 191.66,29.09 191.92,27.99 192.18,27.92 192.44,27.10 192.70,26.36 192.96,26.36 193.22,25.73 193.48,25.12 193.74,24.04 193.99,23.27 194.25,23.56 194.51,23.61 194.77,23.41 195.03,22.90 195.29,22.44 195.55,22.31 195.81,22.46 196.07,21.26 196.33,21.68 196.59,20.78 196.85,20.78 197.11,20.37 197.37,19.31 197.63,19.22 197.89,18.86 198.15,18.27 198.41,18.41 198.67,18.79 198.93,19.14 199.19,19.26 199.45,19.50 199.70,19.77 199.96,20.07 200.22,20.47 200.48,20.89 200.74,21.11 201.00,21.12 201.26,21.12 201.52,20.65 201.78,19.85 202.04,19.27 202.30,18.76 202.56,18.45 202.82,18.54 203.08,18.76 203.34,19.47 203.60,20.01 203.86,20.50 204.12,20.54 204.38,20.55 204.64,20.55 204.90,20.14 205.16,19.89 205.42,19.32 205.67,18.83 205.93,18.28 206.19,17.60 206.45,17.07 206.71,16.30 206.97,15.68 207.23,15.32 207.49,14.86 207.75,13.56 208.01,12.76 208.27,12.40 208.53,11.61 208.79,10.65 209.05,10.79 209.31,9.77 209.57,10.10 209.83,9.34 210.09,8.66 210.35,10.15 210.61,9.25 210.87,9.91 211.13,9.07 211.38,7.53 211.64,8.66 211.90,7.97 212.16,9.10 212.42,8.65 212.68,8.37 212.94,7.13 213.20,8.09 213.46,8.12 213.72,7.88 213.98,9.26 214.24,9.34 214.50,9.50 214.76,9.60 215.02,9.76 215.28,9.96 215.54,10.12 215.80,10.25 216.06,11.02 216.32,11.55 216.58,12.22 216.84,13.01 217.10,13.22 217.35,14.12 217.61,14.71 217.87,15.50 218.13,15.62 218.39,15.72 218.65,15.87 218.91,16.07 219.17,16.27 219.43,16.88 219.69,17.17 219.95,17.43 220.21,17.66 220.47,17.90 220.73,18.57 220.99,18.89 221.25,19.12 221.51,19.36 221.77,19.58 222.03,19.55 222.29,19.59 222.55,19.34 222.81,19.05 223.06,19.05 223.32,18.40 223.58,17.89 223.84,17.44 224.10,17.11 224.36,16.96 224.62,16.98 224.88,17.00 225.14,17.10 225.40,41.63 225.66,41.63 225.92,42.01 226.18,42.01 226.44,42.01 226.70,42.01 226.96,42.53 227.22,41.02 227.48,39.91 227.74,39.91 228.00,42.80 228.26,42.56 228.52,42.56 228.78,42.56 229.03,42.42 229.29,42.42 229.55,42.42 229.81,44.09 230.07,44.09 230.33,46.72 230.59,46.72 230.85,46.72 231.11,44.23 231.37,44.23 231.63,47.26 231.89,47.26 232.15,47.26 232.41,45.53 232.67,50.00 232.93,50.40 233.19,50.40 233.45,50.40 233.71,50.05 233.97,50.05 234.23,50.05 234.49,48.88 234.74,48.88 235.00,53.10 235.26,52.55 235.52,52.55 235.78,52.81 236.04,52.81 236.30,52.81 236.56,52.60 236.82,52.60 237.08,51.48 237.34,51.48 237.60,55.71 237.86,55.18 238.12,55.18 238.38,55.18 238.64,52.94 238.90,52.94 239.16,52.94 239.42,53.61 239.68,53.26 239.94,53.26 240.20,53.26 240.46,53.26 240.71,53.44 240.97,54.43 241.23,54.43 241.49,53.95 241.75,53.95 242.01,53.88 242.27,53.88 242.53,53.88 242.79,52.59 243.05,53.14 243.31,53.14 243.57,53.14 243.83,52.50 244.09,52.50 244.35,52.50 244.61,53.16 244.87,53.16 245.13,53.16 245.39,52.86 245.65,52.86 245.91,52.44 246.17,52.44 246.42,52.44 246.68,51.75 246.94,51.75 247.20,51.75 247.46,50.19 247.72,50.19 247.98,50.19 248.24,50.13 248.50,50.13 248.76,48.76 249.02,48.09 249.28,48.09 249.54,46.30 249.80,46.30 250.06,46.30 250.32,44.01 250.58,44.97 250.84,44.97 251.10,43.91 251.36,43.91 251.62,43.91 251.88,42.80 252.14,42.80 252.39,40.84 252.65,40.84 252.91,40.84 253.17,40.84 253.43,39.52 253.69,39.52 253.95,39.52 254.21,39.52 254.47,39.34 254.73,39.34 254.99,39.34 255.25,39.34 255.51,38.22 255.77,38.22 256.03,38.22 256.29,36.97 256.55,36.97 256.81,36.97 257.07,35.38 257.33,35.38 257.59,35.38 257.85,30.99 258.10,30.99 258.36,30.99 258.62,31.55 258.88,31.55 259.14,31.55 259.40,28.38 259.66,28.38 259.92,28.38 260.18,29.77 260.44,29.77 260.70,29.77 260.96,28.40 261.22,28.40 261.48,28.40 261.74,29.52 262.00,29.52 262.26,29.52 262.52,28.93 262.78,28.93 263.04,28.93 263.30,30.68 263.56,26.94 263.82,26.94 264.07,26.94 264.33,29.68 264.59,24.95 264.85,24.95 265.11,24.95 265.37,25.01 265.63,25.01 265.89,25.01 266.15,24.62 266.41,24.62 266.67,24.62 266.93,26.42 267.19,26.42 267.45,21.24 267.71,21.24 267.97,24.10 268.23,24.10 268.49,20.07 268.75,20.07 269.01,20.07 269.27,19.73 269.53,19.73 269.78,19.73 270.04,19.73 270.30,21.30 270.56,21.30 270.82,21.30 271.08,21.65 271.34,21.65 271.60,21.65 271.86,20.50 272.12,20.50 272.38,20.50 272.64,20.04 272.90,18.82 273.16,18.82 273.42,18.82 273.68,19.67 273.94,20.44 274.20,20.44 274.46,20.44 274.72,20.93 274.98,20.93 275.24,22.39 275.50,22.39 275.75,20.39 276.01,20.39 276.27,20.39 276.53,17.95 276.79,17.95 277.05,17.95 277.31,15.93 277.57,15.93 277.83,15.93 278.09,14.46 278.35,14.46 278.61,12.13 278.87,12.13 279.13,12.40 279.39,9.75 279.65,9.75 279.91,9.75 280.17,6.66 280.43,6.66 280.69,6.66 280.95,4.00 281.21,9.15 281.46,9.15 281.72,6.50 281.98,6.50 282.24,4.59 282.50,4.59 282.76,4.59 283.02,8.53 283.28,8.53 283.54,8.53 283.80,6.04 284.06,6.04 284.32,6.04 284.58,5.70 284.84,5.70 285.10,5.70 285.36,5.97 285.62,5.97 285.88,6.95 286.14,6.95 286.40,6.95 286.66,8.89 286.92,8.89 287.18,11.95 287.43,11.95 287.69,11.95 287.95,15.01 288.21,15.01 288.47,15.01 288.73,16.65 288.99,16.65 289.25,16.90 289.51,16.90 289.77,16.90 290.03,17.34 290.29,17.34 290.55,18.08 290.81,18.08 291.07,18.08 291.33,18.88 291.59,18.88 291.85,19.72 292.11,19.72 292.37,19.72 292.63,19.93 292.89,19.93 293.14,19.93 293.40,19.19 293.66,19.19 293.92,19.19 294.18,18.17 294.44,18.36 294.70,18.36 294.96,17.65 295.22,17.65 295.48,17.65 295.74,17.44 296.00,17.44" />
</svg>