<svg width="300" height="60" xmlns="http://www.w3.org/2000/svg">
  <polyline fill="rgba(255,200,0,0.3)" stroke="#ffbb00" stroke-width="2" points="4.00,55.22 4.30,54.61 4.61,54.32 4.91,54.40 5.22,53.89 5.52,53.46 5.83,52.97 6.13,52.55 6.44,52.26 6.74,52.04 7.04,51.78 7.35,51.35 7.65,50.83 7.96,50.15 8.26,49.45 8.57,48.94 8.87,48.58 9.18,48.15 9.48,47.70 9.79,47.35 10.09,47.19 10.39,47.02 10.70,46.81 11.00,46.70 11.31,46.59 11.61,46.37 11.92,46.33 12.22,46.50 12.53,46.57 12.83,46.96 13.13,46.78 13.44,46.47 13.74,45.94 14.05,45.42 14.35,44.89 14.66,44.43 14.96,44.08 15.27,43.77 15.57,43.49 15.87,43.43 16.18,43.28 16.48,42.93 16.79,42.68 17.09,42.54 17.40,42.38 17.70,42.08 18.01,41.92 18.31,41.88 18.62,42.26 18.92,42.15 19.22,41.93 19.53,41.58 19.83,41.23 20.14,41.17 20.44,40.71 20.75,40.35 21.05,40.13 21.36,39.96 21.66,39.85 21.96,39.78 22.27,39.71 22.57,39.63 22.88,39.47 23.18,39.14 23.49,38.80 23.79,38.38 24.10,37.96 24.40,37.61 24.70,37.18 25.01,36.80 25.31,36.45 25.62,35.96 25.92,35.70 26.23,35.47 26.53,35.43 26.84,35.52 27.14,36.04 27.45,36.06 27.75,35.23 28.05,34.82 28.36,34.66 28.66,34.44 28.97,34.11 29.27,33.85 29.58,33.54 29.88,33.31 30.19,33.09 30.49,32.78 30.79,32.21 31.10,31.67 31.40,31.26 31.71,30.84 32.01,30.46 32.32,30.03 32.62,29.71 32.93,29.21 33.23,28.84 33.53,28.42 33.84,28.03 34.14,27.74 34.45,27.33 34.75,26.96 35.06,26.75 35.36,26.58 35.67,26.61 35.97,26.43 36.28,25.93 36.58,25.32 36.88,24.88 37.19,24.56 37.49,24.28 37.80,24.37 38.10,23.47 38.41,22.79 38.71,22.59 39.02,22.32 39.32,22.03 39.62,21.54 39.93,21.02 40.23,20.37 40.54,19.84 40.84,19.41 41.15,18.92 41.45,18.62 41.76,18.40 42.06,18.27 42.36,17.99 42.67,17.42 42.97,17.17 43.28,16.35 43.58,16.01 43.89,15.21 44.19,14.59 44.50,14.04 44.80,13.28 45.11,12.87 45.41,12.41 45.71,12.33 46.02,11.62 46.32,11.94 46.63,12.10 46.93,12.19 47.24,12.34 47.54,12.41 47.85,11.70 48.15,11.74 48.45,11.36 48.76,11.45 49.06,11.30 49.37,11.56 49.67,11.47 49.98,11.32 50.28,11.30 50.59,11.31 50.89,10.83 51.19,10.66 51.50,10.64 51.80,10.64 52.11,10.78 52.41,10.68 52.72,10.11 53.02,9.26 53.33,7.95 53.63,6.84 53.94,6.37 54.24,6.02 54.54,5.96 54.85,5.94 55.15,6.07 55.46,6.41 55.76,6.39 56.07,6.36 56.37,6.03 56.68,5.89 56.98,6.21 57.28,6.71 57.59,6.30 57.89,5.60 58.20,4.70 58.50,4.42 58.81,4.93 59.11,5.60 59.42,6.30 59.72,6.95 60.03,7.41 60.33,7.18 60.63,6.93 60.94,6.80 61.24,6.89 61.55,6.84 61.85,6.44 62.16,6.44 62.46,6.50 62.77,6.59 63.07,6.69 63.37,6.83 63.68,6.99 63.98,7.10 64.29,7.26 64.59,7.56 64.90,8.19 65.20,9.02 65.51,9.29 65.81,9.51 66.11,9.86 66.42,10.15 66.72,10.33 67.03,10.48 67.33,10.42 67.64,10.23 67.94,10.14 68.25,9.93 68.55,9.71 68.86,9.73 69.16,9.62 69.46,9.93 69.77,10.22 70.07,10.49 70.38,10.90 70.68,11.17 70.99,11.60 71.29,11.97 71.60,12.57 71.90,13.00 72.20,13.05 72.51,12.64 72.81,12.08 73.12,11.57 73.42,11.28 73.73,11.33 74.03,11.73 74.34,12.29 74.64,12.86 74.94,13.20 75.25,13.47 75.55,13.74 75.86,13.86 76.16,13.73 76.47,13.50 76.77,13.36 77.08,13.31 77.38,13.54 77.69,13.90 77.99,14.41 78.29,14.82 78.60,14.91 78.90,14.79 79.21,14.31 79.51,14.00 79.82,13.80 80.12,13.98 80.43,14.35 80.73,14.85 81.03,15.44 81.34,15.96 81.64,17.28 81.95,17.49 82.25,17.55 82.56,17.97 82.86,17.76 83.17,17.65 83.47,18.11 83.77,18.90 84.08,19.96 84.38,20.64 84.69,21.29 84.99,21.98 85.30,22.84 85.60,23.29 85.91,24.00 86.21,24.84 86.52,25.03 86.82,25.39 87.12,25.84 87.43,25.41 87.73,25.57 88.04,25.70 88.34,25.07 88.65,25.20 88.95,25.39 89.26,25.45 89.56,25.10 89.86,24.81 90.17,24.65 90.47,24.72 90.78,25.04 91.08,26.37 91.39,27.33 91.69,27.02 92.00,26.74 92.30,26.47 92.60,26.91 92.91,27.30 93.21,27.76 93.52,28.42 93.82,29.24 94.13,29.96 94.43,30.82 94.74,31.75 95.04,32.36 95.35,33.10 95.65,33.68 95.95,34.22 96.26,34.55 96.56,34.88 96.87,35.08 97.17,35.23 97.48,35.69 97.78,35.81 98.09,36.16 98.39,36.35 98.69,36.24 99.00,35.95 99.30,35.68 99.61,35.09 99.91,34.48 100.22,33.98 100.52,33.56 100.83,33.52 101.13,33.29 101.43,54.92 101.74,54.48 102.04,55.00 102.35,54.36 102.65,53.44 102.96,53.63 103.26,52.74 103.57,52.91 103.87,52.10 104.18,52.13 104.48,51.40 104.78,51.24 105.09,51.00 105.39,49.48 105.70,49.05 106.00,48.22 106.31,47.73 106.61,48.35 106.92,47.45 107.22,46.65 107.52,46.80 107.83,46.86 108.13,46.14 108.44,46.32 108.74,46.40 109.05,46.40 109.35,46.60 109.66,46.30 109.96,46.32 110.26,46.55 110.57,46.88 110.87,46.02 111.18,45.68 111.48,44.76 111.79,44.60 112.09,44.60 112.40,44.45 112.70,43.53 113.01,43.52 113.31,43.65 113.61,43.06 113.92,42.62 114.22,42.42 114.53,42.46 114.83,42.46 115.14,42.69 115.44,42.07 115.75,42.62 116.05,42.14 116.35,42.66 116.66,41.84 116.96,42.22 117.27,41.31 117.57,41.38 117.88,41.38 118.18,40.35 118.49,40.31 118.79,40.26 119.09,40.24 119.40,39.59 119.70,39.62 120.01,39.58 120.31,39.42 120.62,39.15 120.92,38.84 121.23,38.53 121.53,38.21 121.84,37.78 122.14,37.30 122.44,36.87 122.75,36.42 123.05,36.10 123.36,35.59 123.66,35.56 123.97,35.76 124.27,35.91 124.58,35.91 124.88,36.08 125.18,35.41 125.49,34.98 125.79,34.73 126.10,34.43 126.40,33.92 126.71,34.06 127.01,33.59 127.32,33.27 127.62,33.05 127.92,33.05 128.23,32.47 128.53,31.86 128.84,31.57 129.14,31.02 129.45,30.41 129.75,29.77 130.06,29.71 130.36,29.01 130.67,28.29 130.97,28.30 131.27,27.57 131.58,27.76 131.88,27.10 132.19,26.50 132.49,26.50 132.80,27.05 133.10,26.53 133.41,26.00 133.71,25.56 134.01,25.19 134.32,24.87 134.62,24.58 134.93,24.32 135.23,23.96 135.54,23.90 135.84,22.77 136.15,22.73 136.45,22.38 136.75,22.20 137.06,21.50 137.36,20.84 137.67,20.27 137.97,19.80 138.28,19.46 138.58,18.57 138.89,18.57 139.19,18.75 139.50,18.05 139.80,17.01 140.10,17.25 140.41,16.42 140.71,16.76 141.02,15.93 141.32,14.51 141.63,14.98 141.93,14.07 142.24,13.28 142.54,11.93 142.84,12.71 143.15,12.22 143.45,11.76 143.76,11.77 144.06,11.77 144.37,11.55 144.67,12.24 144.98,11.80 145.28,12.05 145.58,11.97 145.89,11.84 146.19,11.35 146.50,11.20 146.80,11.03 147.11,10.77 147.41,10.68 147.72,10.79 148.02,11.05 148.33,10.61 148.63,10.58 148.93,10.58 149.24,10.97 149.54,10.52 149.85,10.82 150.15,10.02 150.46,9.01 150.76,7.71 151.07,7.23 151.37,6.82 151.67,6.48 151.98,6.20 152.28,5.89 152.59,5.85 152.89,5.93 153.20,6.04 153.50,6.21 153.81,5.51 154.11,5.88 154.42,5.76 154.72,6.35 155.02,6.41 155.33,6.05 155.63,4.67 155.94,4.67 156.24,4.67 156.55,5.41 156.85,6.28 157.16,7.18 157.46,7.07 157.76,6.93 158.07,6.78 158.37,6.64 158.68,6.48 158.98,6.83 159.29,6.45 159.59,6.16 159.90,6.83 160.20,6.70 160.50,6.60 160.81,6.54 161.11,6.52 161.42,7.46 161.72,7.52 162.03,7.61 162.33,7.74 162.64,8.95 162.94,8.98 163.25,9.71 163.55,9.65 163.85,10.06 164.16,10.35 164.46,10.57 164.77,10.28 165.07,10.25 165.38,10.32 165.68,10.52 165.99,9.67 166.29,9.92 166.59,10.35 166.90,10.98 167.20,10.19 167.51,10.19 167.81,10.88 168.12,11.60 168.42,10.66 168.73,11.56 169.03,12.56 169.33,13.51 169.64,12.23 169.94,12.37 170.25,12.22 170.55,12.05 170.86,12.05 171.16,12.22 171.47,12.59 171.77,13.11 172.08,13.66 172.38,14.07 172.68,14.24 172.99,14.24 173.29,14.06 173.60,13.72 173.90,13.28 174.21,12.83 174.51,13.78 174.82,13.82 175.12,13.82 175.42,13.93 175.73,15.85 176.03,15.59 176.34,15.01 176.64,14.43 176.95,14.01 177.25,13.82 177.56,13.88 177.86,14.19 178.16,14.75 178.47,15.64 178.77,16.17 179.08,17.85 179.38,18.50 179.69,17.52 179.99,18.15 180.30,17.28 180.60,17.90 180.91,17.20 181.21,18.79 181.51,19.83 181.82,20.56 182.12,22.21 182.43,22.79 182.73,22.79 183.04,24.16 183.34,24.93 183.65,25.50 183.95,25.82 184.25,25.88 184.56,25.86 184.86,25.82 185.17,25.95 185.47,25.77 185.78,25.28 186.08,24.99 186.39,25.25 186.69,25.60 186.99,26.01 187.30,24.39 187.60,24.82 187.91,23.81 188.21,24.83 188.52,24.95 188.82,26.90 189.13,25.40 189.43,26.19 189.74,26.90 190.04,27.59 190.34,26.71 190.65,27.38 190.95,28.06 191.26,28.79 191.56,29.53 191.87,30.32 192.17,31.89 192.48,32.62 192.78,33.27 193.08,33.76 193.39,34.16 193.69,34.45 194.00,35.45 194.30,35.39 194.61,35.31 194.91,36.35 195.22,36.08 195.52,35.77 195.82,36.78 196.13,36.11 196.43,36.65 196.74,35.69 197.04,35.84 197.35,34.77 197.65,34.92 197.96,34.09 198.26,33.60 198.57,33.59 198.87,56.00 199.17,53.64 199.48,53.64 199.78,53.76 200.09,53.76 200.39,53.76 200.70,51.64 201.00,51.64 201.31,51.64 201.61,51.22 201.91,51.22 202.22,51.22 202.52,50.54 202.83,47.56 203.13,47.56 203.44,45.68 203.74,45.68 204.05,46.66 204.35,46.66 204.65,46.66 204.96,44.45 205.26,44.45 205.57,44.45 205.87,45.16 206.18,45.16 206.48,45.16 206.79,45.16 207.09,44.62 207.40,44.62 207.70,45.75 208.00,45.75 208.31,45.75 208.61,45.75 208.92,42.98 209.22,45.45 209.53,45.45 209.83,45.45 210.14,42.85 210.44,42.85 210.74,45.96 211.05,44.76 211.35,44.76 211.66,44.76 211.96,45.69 212.27,45.69 212.57,45.69 212.88,42.20 213.18,43.75 213.48,43.75 213.79,43.75 214.09,44.75 214.40,44.75 214.70,41.29 215.01,41.39 215.31,41.39 215.62,41.39 215.92,41.39 216.23,41.44 216.53,41.44 216.83,41.44 217.14,41.36 217.44,41.36 217.75,41.36 218.05,40.79 218.36,40.79 218.66,40.79 218.97,39.00 219.27,39.00 219.57,39.00 219.88,36.63 220.18,36.63 220.49,36.63 220.79,36.11 221.10,36.11 221.40,36.11 221.71,35.90 222.01,35.90 222.31,36.36 222.62,36.36 222.92,34.84 223.23,34.84 223.53,34.84 223.84,34.55 224.14,33.61 224.45,33.61 224.75,33.61 225.06,32.47 225.36,32.47 225.66,32.47 225.97,32.47 226.27,30.56 226.58,30.56 226.88,30.56 227.19,28.66 227.49,28.66 227.80,28.66 228.10,26.64 228.40,26.64 228.71,26.64 229.01,26.61 229.32,26.61 229.62,26.61 229.93,26.61 230.23,25.08 230.54,25.08 230.84,25.08 231.14,23.92 231.45,23.92 231.75,23.92 232.06,22.96 232.36,22.96 232.67,22.96 232.97,22.96 233.28,21.45 233.58,21.45 233.89,21.45 234.19,22.25 234.49,20.39 234.80,20.39 235.10,20.39 235.41,19.52 235.71,19.52 236.02,17.53 236.32,17.19 236.63,17.19 236.93,17.19 237.23,17.19 237.54,18.49 237.84,14.53 238.15,14.53 238.45,15.77 238.76,15.77 239.06,15.77 239.37,11.87 239.67,13.58 239.97,13.58 240.28,13.58 240.58,10.16 240.89,12.06 241.19,12.06 241.50,12.06 241.80,9.31 242.11,9.79 242.41,9.79 242.72,9.79 243.02,10.08 243.32,10.08 243.63,9.84 243.93,9.84 244.24,9.84 244.54,9.65 244.85,9.65 245.15,9.65 245.46,10.27 245.76,10.27 246.06,8.08 246.37,8.08 246.67,10.46 246.98,10.46 247.28,8.43 247.59,8.43 247.89,8.43 248.20,5.32 248.50,5.04 248.81,5.04 249.11,5.04 249.41,4.21 249.72,4.21 250.02,4.00 250.33,4.00 250.63,4.00 250.94,4.43 251.24,4.43 251.55,4.43 251.85,5.64 252.15,5.64 252.46,5.64 252.76,5.81 253.07,5.81 253.37,5.81 253.68,4.21 253.98,4.21 254.29,6.43 254.59,6.43 254.89,6.43 255.20,5.95 255.50,5.95 255.81,5.95 256.11,5.65 256.42,5.65 256.72,5.18 257.03,5.18 257.33,7.20 257.64,6.72 257.94,6.72 258.24,6.72 258.55,6.57 258.85,6.57 259.16,6.65 259.46,6.65 259.77,6.65 260.07,7.03 260.38,7.03 260.68,9.88 260.98,9.63 261.29,9.63 261.59,9.63 261.90,10.99 262.20,10.99 262.51,10.99 262.81,12.00 263.12,12.00 263.42,9.81 263.72,10.19 264.03,10.19 264.33,10.19 264.64,11.87 264.94,11.87 265.25,11.87 265.55,11.87 265.86,14.08 266.16,14.08 266.47,14.08 266.77,16.81 267.07,11.64 267.38,11.64 267.68,12.25 267.99,12.25 268.29,12.25 268.60,12.39 268.90,12.39 269.21,12.39 269.51,13.67 269.81,13.67 270.12,13.67 270.42,14.23 270.73,14.23 271.03,14.23 271.34,13.43 271.64,13.43 271.95,17.39 272.25,17.34 272.55,17.34 272.86,17.34 273.16,17.34 273.47,17.40 273.77,17.40 274.08,17.40 274.38,15.67 274.69,15.67 274.99,15.67 275.30,15.48 275.60,15.48 275.90,15.48 276.21,18.40 276.51,18.40 276.82,15.64 277.12,15.64 277.43,20.49 277.73,17.46 278.04,17.46 278.34,17.46 278.64,17.46 278.95,19.92 279.25,19.92 279.56,19.92 279.86,25.71 280.17,25.71 280.47,25.71 280.78,25.71 281.08,29.55 281.38,29.55 281.69,29.55 281.99,29.03 282.30,29.03 282.60,29.03 282.91,25.95 283.21,25.95 283.52,25.95 283.82,25.36 284.13,25.36 284.43,26.24 284.73,21.70 285.04,21.70 285.34,22.75 285.65,22.75 285.95,22.75 286.26,26.47 286.56,21.93 286.87,21.93 287.17,24.18 287.47,24.18 287.78,26.30 288.08,26.30 288.39,26.30 288.69,28.76 289.00,28.76 289.30,28.76 289.61,31.77 289.91,31.77 290.21,34.52 290.52,34.52 290.82,34.52 291.13,35.73 291.43,35.73 291.74,35.79 292.04,35.79 292.35,40.02 292.65,39.21 292.96,39.21 293.26,39.21 293.56,37.43 293.87,37.43 294.17,37.43 294.48,38.10 294.78,38.10 295.09,38.10 295.39,35.66 295.70,35.66 296.00,35.31" />
</svg>