<svg width="300" height="60" xmlns="http://www.w3.org/2000/svg">
  <polyline fill="rgba(255,200,0,0.3)" stroke="#ffbb00" stroke-width="2" points="4.00,21.42 7.21,20.52 10.42,21.98 13.63,24.76 16.84,25.51 20.04,32.16 23.25,35.44 26.46,37.76 29.67,39.01 32.88,40.55 36.09,42.30 39.30,41.69 42.51,41.04 45.71,40.66 48.92,40.61 52.13,36.81 55.34,39.69 58.55,41.31 61.76,42.01 64.97,42.48 68.18,42.84 71.38,43.44 74.59,45.62 77.80,22.28 81.01,19.79 84.22,22.94 87.43,24.78 90.64,25.10 93.85,32.54 97.05,35.85 100.26,37.64 103.47,38.95 106.68,40.64 109.89,41.79 113.10,41.54 116.31,41.03 119.52,40.74 122.73,40.66 125.93,36.74 129.14,39.07 132.35,41.35 135.56,42.07 138.77,42.43 141.98,42.87 145.19,42.72 148.40,45.59 151.60,21.19 154.81,19.86 158.02,18.97 161.23,27.19 164.44,26.41 167.65,33.40 170.86,33.45 174.07,38.67 177.27,38.24 180.48,41.89 183.69,42.13 186.90,42.08 190.11,40.61 193.32,42.38 196.53,34.90 199.74,42.43 202.95,42.16 206.15,33.23 209.36,42.34 212.57,41.45 215.78,40.22 218.99,48.00 222.20,39.33 225.41,8.04 228.62,29.56 231.82,4.00 235.03,4.00 238.24,32.11 241.45,32.11 244.66,32.11 247.87,47.92 251.08,32.95 254.29,32.95 257.49,39.50 260.70,39.50 263.91,39.50 267.12,42.11 270.33,42.11 273.54,42.11 276.75,42.11 279.96,9.46 283.16,43.98 286.37,43.98 289.58,43.98 292.79,56.00 296.00,41.03" />
</svg>