<svg width="300" height="60" xmlns="http://www.w3.org/2000/svg">
  <polyline fill="rgba(255,200,0,0.3)" stroke="#ffbb00" stroke-width="2" points="4.00,44.15 4.17,44.39 4.34,44.64 4.51,44.91 4.68,45.15 4.85,45.35 5.02,45.53 5.19,45.73 5.36,45.94 5.53,46.19 5.70,46.47 5.87,46.73 6.04,47.00 6.21,47.28 6.38,47.58 6.55,47.90 6.72,48.26 6.89,48.60 7.06,48.88 7.23,49.16 7.40,49.41 7.57,49.68 7.74,49.93 7.91,50.18 8.08,50.42 8.25,50.66 8.42,50.92 8.59,51.16 8.76,51.39 8.93,51.62 9.10,51.84 9.27,52.05 9.44,52.27 9.61,52.50 9.78,52.74 9.95,52.98 10.12,53.20 10.29,53.46 10.45,53.69 10.62,53.90 10.79,54.12 10.96,54.32 11.13,54.49 11.30,54.62 11.47,54.73 11.64,54.80 11.81,54.80 11.98,54.79 12.15,54.79 12.32,54.87 12.49,55.13 12.66,21.79 12.83,21.98 13.00,22.13 13.17,22.25 13.34,22.34 13.51,22.44 13.68,22.53 13.85,22.61 14.02,22.70 14.19,22.73 14.36,22.73 14.53,22.68 14.70,22.63 14.87,22.56 15.04,22.50 15.21,22.44 15.38,22.33 15.55,22.25 15.72,22.29 15.89,22.39 16.06,22.49 16.23,22.62 16.40,22.76 16.57,22.89 16.74,23.02 16.91,23.13 17.08,23.23 17.25,23.31 17.42,23.41 17.59,23.48 17.76,23.50 17.93,23.52 18.10,23.49 18.27,23.45 18.44,23.39 18.61,23.31 18.78,23.23 18.95,23.15 19.12,23.08 19.29,23.00 19.46,22.91 19.63,22.87 19.80,22.67 19.97,22.39 20.14,22.07 20.31,21.71 20.48,16.75 20.65,16.96 20.82,17.16 20.99,17.31 21.16,17.41 21.33,17.45 21.50,17.45 21.67,17.47 21.84,17.50 22.01,17.61 22.18,17.84 22.35,18.08 22.52,18.40 22.69,18.76 22.86,19.02 23.03,19.33 23.19,19.61 23.36,19.79 23.53,19.96 23.70,20.13 23.87,20.28 24.04,7.53 24.21,7.63 24.38,7.73 24.55,7.80 24.72,7.87 24.89,7.90 25.06,7.93 25.23,7.94 25.40,7.94 25.57,7.90 25.74,7.82 25.91,7.68 26.08,7.51 26.25,7.30 26.42,7.09 26.59,6.89 26.76,6.69 26.93,6.46 27.10,6.27 27.27,6.09 27.44,5.91 27.61,5.76 27.78,5.64 27.95,5.60 28.12,5.60 28.29,5.67 28.46,5.72 28.63,5.79 28.80,5.87 28.97,5.95 29.14,5.98 29.31,5.99 29.48,5.93 29.65,5.85 29.82,5.75 29.99,5.65 30.16,5.56 30.33,5.50 30.50,5.45 30.67,5.40 30.84,5.42 31.01,5.52 31.18,5.65 31.35,5.82 31.52,6.01 31.69,6.20 31.86,6.34 32.03,6.59 32.20,6.82 32.37,7.05 32.54,7.23 32.71,7.44 32.88,7.68 33.05,7.88 33.22,8.07 33.39,8.25 33.56,8.42 33.73,8.59 33.90,8.76 34.07,8.84 34.24,8.89 34.41,8.96 34.58,9.04 34.75,9.12 34.92,9.21 35.09,9.32 35.26,9.42 35.43,9.52 35.60,9.59 35.76,9.69 35.93,9.71 36.10,9.74 36.27,9.81 36.44,9.94 36.61,10.11 36.78,10.29 36.95,10.47 37.12,10.63 37.29,10.77 37.46,10.90 37.63,11.04 37.80,11.16 37.97,11.30 38.14,11.44 38.31,11.65 38.48,11.89 38.65,12.16 38.82,12.46 38.99,12.77 39.16,13.09 39.33,13.42 39.50,13.74 39.67,14.01 39.84,14.25 40.01,14.44 40.18,14.59 40.35,14.73 40.52,14.85 40.69,14.97 40.86,15.05 41.03,15.15 41.20,15.27 41.37,15.40 41.54,15.58 41.71,15.80 41.88,16.08 42.05,16.36 42.22,16.68 42.39,16.94 42.56,17.24 42.73,17.51 42.90,17.81 43.07,18.10 43.24,18.37 43.41,18.70 43.58,19.02 43.75,19.33 43.92,19.69 44.09,20.05 44.26,20.39 44.43,20.72 44.60,21.01 44.77,21.28 44.94,21.53 45.11,21.79 45.28,22.08 45.45,21.71 45.62,21.38 45.79,21.05 45.96,20.73 46.13,20.43 46.30,20.15 46.47,19.87 46.64,19.60 46.81,19.34 46.98,19.08 47.15,18.81 47.32,18.52 47.49,18.21 47.66,17.93 47.83,17.71 48.00,17.56 48.17,17.47 48.34,17.44 48.50,17.42 48.67,17.43 48.84,17.42 49.01,17.33 49.18,17.19 49.35,17.00 49.52,16.82 49.69,16.64 49.86,16.47 50.03,16.37 50.20,16.34 50.37,16.38 50.54,16.52 50.71,16.75 50.88,16.95 51.05,20.13 51.22,20.28 51.39,20.42 51.56,20.59 51.73,20.76 51.90,20.94 52.07,21.16 52.24,21.43 52.41,21.73 52.58,22.00 52.75,22.23 52.92,22.57 53.09,22.92 53.26,23.26 53.43,23.53 53.60,23.81 53.77,24.15 53.94,24.50 54.11,24.83 54.28,25.22 54.45,25.64 54.62,26.09 54.79,26.52 54.96,26.93 55.13,27.29 55.30,27.61 55.47,27.91 55.64,28.24 55.81,28.61 55.98,28.93 56.15,29.26 56.32,29.64 56.49,29.94 56.66,30.34 56.83,30.72 57.00,31.08 57.17,31.43 57.34,31.79 57.51,32.17 57.68,32.49 57.85,32.79 58.02,33.06 58.19,33.27 58.36,33.42 58.53,33.56 58.70,33.75 58.87,33.98 59.04,34.30 59.21,34.55 59.38,34.89 59.55,35.28 59.72,35.68 59.89,36.08 60.06,36.51 60.23,36.90 60.40,37.22 60.57,37.54 60.74,37.79 60.91,38.01 61.08,38.28 61.24,38.50 61.41,38.70 61.58,38.94 61.75,39.22 61.92,39.44 62.09,39.69 62.26,39.87 62.43,40.11 62.60,40.37 62.77,40.73 62.94,41.07 63.11,41.37 63.28,41.60 63.45,41.87 63.62,42.16 63.79,42.43 63.96,42.70 64.13,42.99 64.30,43.28 64.47,43.61 64.64,43.85 64.81,44.05 64.98,44.21 65.15,44.35 65.32,44.47 65.49,44.62 65.66,44.82 65.83,45.03 66.00,45.23 66.17,45.50 66.34,45.79 66.51,46.00 66.68,46.33 66.85,46.61 67.02,46.89 67.19,47.11 67.36,47.32 67.53,47.45 67.70,47.55 67.87,47.64 68.04,47.67 68.21,47.67 68.38,47.68 68.55,47.67 68.72,47.64 68.89,47.60 69.06,47.53 69.23,47.40 69.40,47.22 69.57,46.97 69.74,46.66 69.91,46.33 70.08,45.96 70.25,45.68 70.42,45.31 70.59,45.09 70.76,44.89 70.93,44.66 71.10,44.45 71.27,44.24 71.44,44.05 71.61,43.80 71.78,43.57 71.95,43.38 72.12,43.28 72.29,43.16 72.46,43.02 72.63,42.85 72.80,42.62 72.97,42.32 73.14,41.92 73.31,41.59 73.48,41.22 73.65,40.87 73.82,40.63 73.98,40.32 74.15,40.03 74.32,39.81 74.49,39.73 74.66,39.76 74.83,39.85 75.00,40.02 75.17,40.23 75.34,40.48 75.51,40.72 75.68,40.93 75.85,41.12 76.02,41.29 76.19,41.49 76.36,41.72 76.53,41.96 76.70,42.19 76.87,42.45 77.04,42.75 77.21,43.03 77.38,43.33 77.55,43.60 77.72,43.85 77.89,44.15 78.06,7.52 78.23,7.61 78.40,7.73 78.57,7.82 78.74,7.86 78.91,7.86 79.08,7.91 79.25,8.00 79.42,7.95 79.59,7.97 79.76,7.92 79.93,7.71 80.10,7.51 80.27,7.34 80.44,7.04 80.61,6.88 80.78,6.70 80.95,6.51 81.12,6.34 81.29,6.13 81.46,5.85 81.63,5.71 81.80,5.60 81.97,5.60 82.14,5.61 82.31,5.65 82.48,5.72 82.65,5.78 82.82,5.87 82.99,5.86 83.16,5.98 83.33,6.00 83.50,5.94 83.67,5.87 83.84,5.83 84.01,5.66 84.18,5.57 84.35,5.50 84.52,5.35 84.69,5.37 84.86,5.36 85.03,5.49 85.20,5.65 85.37,5.75 85.54,5.95 85.71,6.16 85.88,6.29 86.05,6.56 86.22,6.82 86.39,6.99 86.55,7.23 86.72,7.41 86.89,7.66 87.06,7.88 87.23,8.02 87.40,8.20 87.57,8.38 87.74,8.58 87.91,8.75 88.08,8.84 88.25,8.89 88.42,8.95 88.59,9.03 88.76,9.12 88.93,9.21 89.10,9.31 89.27,9.42 89.44,9.53 89.61,9.60 89.78,9.69 89.95,9.80 90.12,9.79 90.29,9.83 90.46,9.97 90.63,10.13 90.80,10.26 90.97,10.44 91.14,10.62 91.31,10.77 91.48,10.89 91.65,11.02 91.82,11.14 91.99,11.29 92.16,11.46 92.33,11.69 92.50,11.88 92.67,12.15 92.84,12.49 93.01,12.76 93.18,13.17 93.35,13.47 93.52,13.69 93.69,14.00 93.86,14.37 94.03,14.41 94.20,14.59 94.37,14.70 94.54,14.85 94.71,14.94 94.88,15.08 95.05,15.13 95.22,15.24 95.39,15.39 95.56,15.59 95.73,15.78 95.90,16.00 96.07,16.31 96.24,16.65 96.41,16.87 96.58,17.21 96.75,17.53 96.92,17.84 97.09,18.03 97.26,18.33 97.43,18.66 97.60,18.99 97.77,19.21 97.94,19.64 98.11,20.04 98.28,20.32 98.45,20.62 98.62,21.02 98.79,21.26 98.96,21.54 99.13,21.81 99.29,21.98 99.46,22.15 99.63,22.23 99.80,22.35 99.97,22.43 100.14,22.50 100.31,22.62 100.48,22.71 100.65,22.75 100.82,22.75 100.99,22.71 101.16,22.65 101.33,22.58 101.50,22.55 101.67,22.47 101.84,22.38 102.01,22.27 102.18,22.28 102.35,22.42 102.52,22.55 102.69,22.62 102.86,22.72 103.03,22.88 103.20,23.01 103.37,23.12 103.54,23.26 103.71,23.31 103.88,23.43 104.05,23.54 104.22,23.60 104.39,23.53 104.56,23.59 104.73,23.48 104.90,23.43 105.07,23.33 105.24,23.25 105.41,23.20 105.58,23.04 105.75,22.99 105.92,23.04 106.09,23.17 106.26,22.86 106.43,22.40 106.60,22.11 106.77,21.66 106.94,21.39 107.11,21.04 107.28,20.76 107.45,20.44 107.62,20.21 107.79,19.94 107.96,19.69 108.13,19.39 108.30,19.11 108.47,19.00 108.64,18.55 108.81,18.30 108.98,17.95 109.15,17.76 109.32,17.58 109.49,17.50 109.66,17.50 109.83,17.51 110.00,17.45 110.17,17.52 110.34,17.45 110.51,17.23 110.68,17.00 110.85,16.80 111.02,16.67 111.19,16.53 111.36,16.40 111.53,16.26 111.70,16.41 111.87,16.50 112.03,16.70 112.20,16.95 112.37,17.13 112.54,17.30 112.71,17.39 112.88,17.51 113.05,17.47 113.22,17.46 113.39,17.56 113.56,17.63 113.73,17.80 113.90,18.04 114.07,18.45 114.24,18.87 114.41,19.20 114.58,19.33 114.75,19.60 114.92,20.04 115.09,20.08 115.26,20.41 115.43,20.35 115.60,20.58 115.77,21.06 115.94,20.97 116.11,21.22 116.28,21.22 116.45,21.61 116.62,22.07 116.79,22.07 116.96,22.29 117.13,22.53 117.30,22.92 117.47,23.38 117.64,23.93 117.81,23.97 117.98,24.28 118.15,24.59 118.32,24.94 118.49,25.35 118.66,25.62 118.83,26.13 119.00,26.64 119.17,26.98 119.34,27.34 119.51,27.67 119.68,27.90 119.85,28.20 120.02,28.62 120.19,28.94 120.36,29.29 120.53,29.59 120.70,29.96 120.87,30.30 121.04,30.78 121.21,31.07 121.38,31.48 121.55,31.80 121.72,32.15 121.89,32.46 122.06,32.87 122.23,33.12 122.40,33.40 122.57,33.57 122.74,33.60 122.91,33.71 123.08,33.97 123.25,34.23 123.42,34.60 123.59,34.87 123.76,35.25 123.93,35.57 124.10,36.08 124.27,36.45 124.44,36.93 124.61,37.31 124.77,37.62 124.94,37.79 125.11,37.99 125.28,38.27 125.45,38.52 125.62,38.63 125.79,38.81 125.96,39.03 126.13,39.38 126.30,39.64 126.47,39.89 126.64,40.19 126.81,40.39 126.98,40.74 127.15,41.13 127.32,41.40 127.49,41.67 127.66,41.94 127.83,42.10 128.00,42.36 128.17,42.67 128.34,43.00 128.51,43.27 128.68,43.60 128.85,43.85 129.02,44.04 129.19,44.28 129.36,44.43 129.53,44.58 129.70,44.68 129.87,44.82 130.04,44.96 130.21,45.27 130.38,45.43 130.55,45.73 130.72,45.92 130.89,46.22 131.06,46.60 131.23,46.76 131.40,47.12 131.57,47.36 131.74,47.55 131.91,47.57 132.08,47.68 132.25,47.91 132.42,47.84 132.59,47.72 132.76,47.70 132.93,47.67 133.10,47.63 133.27,47.54 133.44,47.44 133.61,47.47 133.78,47.03 133.95,46.84 134.12,46.48 134.29,46.01 134.46,45.74 134.63,45.31 134.80,45.04 134.97,44.92 135.14,44.71 135.31,44.51 135.48,44.29 135.65,44.11 135.82,43.83 135.99,43.66 136.16,43.42 136.33,43.43 136.50,43.19 136.67,43.20 136.84,42.87 137.01,42.97 137.18,42.36 137.34,42.02 137.51,41.72 137.68,41.37 137.85,40.93 138.02,40.90 138.19,40.36 138.36,40.06 138.53,39.84 138.70,39.74 138.87,39.77 139.04,39.83 139.21,39.97 139.38,40.23 139.55,40.51 139.72,40.77 139.89,40.99 140.06,41.17 140.23,41.32 140.40,41.49 140.57,41.71 140.74,41.84 140.91,41.96 141.08,42.42 141.25,42.76 141.42,43.06 141.59,43.35 141.76,43.59 141.93,43.66 142.10,43.98 142.27,44.32 142.44,44.65 142.61,44.82 142.78,45.15 142.95,45.33 143.12,45.59 143.29,45.82 143.46,46.03 143.63,46.20 143.80,46.47 143.97,46.78 144.14,47.05 144.31,47.37 144.48,47.69 144.65,48.02 144.82,48.24 144.99,48.59 145.16,49.01 145.33,49.26 145.50,49.51 145.67,49.74 145.84,50.06 146.01,50.29 146.18,50.57 146.35,50.70 146.52,50.96 146.69,51.21 146.86,51.42 147.03,51.63 147.20,51.87 147.37,52.12 147.54,52.36 147.71,52.59 147.88,52.85 148.05,53.00 148.22,53.29 148.39,53.45 148.56,53.72 148.73,53.93 148.90,54.19 149.07,54.34 149.24,54.58 149.41,54.86 149.58,54.78 149.75,54.91 149.92,55.00 150.08,54.79 150.25,54.81 150.42,54.88 150.59,55.11 150.76,7.32 150.93,7.62 151.10,7.87 151.27,7.98 151.44,7.98 151.61,8.07 151.78,8.15 151.95,8.17 152.12,8.00 152.29,7.93 152.46,7.87 152.63,7.76 152.80,7.59 152.97,7.39 153.14,6.97 153.31,6.80 153.48,6.63 153.65,6.41 153.82,6.18 153.99,5.97 154.16,5.82 154.33,5.66 154.50,5.58 154.67,5.61 154.84,5.63 155.01,5.77 155.18,5.96 155.35,6.09 155.52,6.11 155.69,6.07 155.86,6.10 156.03,6.09 156.20,6.03 156.37,6.15 156.54,6.18 156.71,5.62 156.88,5.45 157.05,6.04 157.22,5.40 157.39,5.48 157.56,5.71 157.73,5.36 157.90,5.79 158.07,5.55 158.24,5.96 158.41,6.39 158.58,6.37 158.75,6.90 158.92,6.81 159.09,7.14 159.26,7.74 159.43,7.36 159.60,7.81 159.77,7.87 159.94,8.13 160.11,8.31 160.28,8.51 160.45,8.63 160.62,8.82 160.79,8.94 160.96,8.94 161.13,8.98 161.30,8.96 161.47,9.12 161.64,9.17 161.81,9.40 161.98,9.46 162.15,9.78 162.32,9.99 162.49,9.67 162.66,9.82 162.82,9.93 162.99,9.74 163.16,9.91 163.33,10.09 163.50,10.29 163.67,10.52 163.84,10.75 164.01,10.88 164.18,11.02 164.35,11.11 164.52,11.21 164.69,11.33 164.86,11.47 165.03,11.80 165.20,12.03 165.37,12.18 165.54,12.58 165.71,12.76 165.88,13.29 166.05,13.61 166.22,14.00 166.39,14.27 166.56,14.74 166.73,14.47 166.90,14.63 167.07,14.65 167.24,14.69 167.41,15.07 167.58,14.97 167.75,15.20 167.92,14.98 168.09,15.30 168.26,15.25 168.43,15.68 168.60,15.99 168.77,16.36 168.94,16.69 169.11,17.09 169.28,17.32 169.45,17.76 169.62,18.10 169.79,17.77 169.96,18.24 170.13,18.64 170.30,18.86 170.47,19.36 170.64,19.75 170.81,20.21 170.98,20.56 171.15,20.87 171.32,21.28 171.49,21.28 171.66,21.55 171.83,21.90 172.00,22.09 172.17,22.51 172.34,22.38 172.51,22.45 172.68,22.46 172.85,22.46 173.02,22.63 173.19,22.85 173.36,22.79 173.53,22.79 173.70,22.72 173.87,22.55 174.04,22.59 174.21,22.49 174.38,22.50 174.55,22.07 174.72,21.97 174.89,22.03 175.06,22.47 175.23,22.53 175.39,22.70 175.56,22.75 175.73,22.73 175.90,23.00 176.07,23.12 176.24,23.26 176.41,23.48 176.58,23.41 176.75,23.48 176.92,23.48 177.09,23.55 177.26,23.55 177.43,23.50 177.60,23.60 177.77,23.36 177.94,23.23 178.11,23.23 178.28,23.08 178.45,23.21 178.62,23.30 178.79,23.11 178.96,22.73 179.13,22.37 179.30,21.99 179.47,21.90 179.64,21.36 179.81,20.89 179.98,20.89 180.15,20.42 180.32,20.08 180.49,19.61 180.66,19.66 180.83,19.43 181.00,18.69 181.17,18.60 181.34,18.24 181.51,18.00 181.68,17.81 181.85,17.73 182.02,16.95 182.19,17.12 182.36,17.48 182.53,17.62 182.70,17.40 182.87,17.39 183.04,17.37 183.21,17.38 183.38,17.45 183.55,16.68 183.72,17.21 183.89,16.79 184.06,16.39 184.23,16.20 184.40,15.67 184.57,16.15 184.74,16.10 184.91,16.80 185.08,17.06 185.25,17.40 185.42,17.39 185.59,17.51 185.76,17.15 185.93,17.27 186.10,17.49 186.27,17.55 186.44,17.63 186.61,17.74 186.78,18.47 186.95,18.65 187.12,18.79 187.29,19.03 187.46,19.67 187.63,19.50 187.80,20.04 187.97,19.70 188.13,20.27 188.30,19.86 188.47,20.55 188.64,20.05 188.81,20.74 188.98,20.12 189.15,21.15 189.32,22.06 189.49,21.78 189.66,22.33 189.83,22.38 190.00,22.55 190.17,22.79 190.34,24.11 190.51,23.66 190.68,23.93 190.85,24.50 191.02,24.95 191.19,25.36 191.36,25.86 191.53,26.46 191.70,26.94 191.87,27.22 192.04,27.41 192.21,27.56 192.38,28.12 192.55,28.16 192.72,28.29 192.89,28.79 193.06,28.72 193.23,29.03 193.40,29.59 193.57,30.08 193.74,30.52 193.91,31.11 194.08,31.34 194.25,31.87 194.42,32.13 194.59,32.56 194.76,32.77 194.93,32.92 195.10,33.30 195.27,33.53 195.44,33.53 195.61,33.68 195.78,33.95 195.95,34.09 196.12,34.21 196.29,34.87 196.46,35.30 196.63,35.64 196.80,36.01 196.97,36.43 197.14,36.94 197.31,37.50 197.48,37.61 197.65,37.61 197.82,37.97 197.99,38.28 198.16,38.23 198.33,38.66 198.50,38.47 198.67,39.10 198.84,39.35 199.01,39.61 199.18,40.02 199.35,40.16 199.52,40.16 199.69,40.11 199.86,40.71 200.03,41.19 200.20,41.50 200.37,42.19 200.54,42.08 200.71,42.30 200.87,42.68 201.04,43.18 201.21,43.47 201.38,43.65 201.55,43.78 201.72,43.87 201.89,44.22 202.06,44.33 202.23,44.50 202.40,44.68 202.57,44.79 202.74,44.85 202.91,45.16 203.08,45.14 203.25,45.63 203.42,45.80 203.59,46.30 203.76,46.65 203.93,47.01 204.10,47.31 204.27,47.43 204.44,47.49 204.61,47.55 204.78,47.59 204.95,47.64 205.12,48.07 205.29,47.69 205.46,47.72 205.63,47.63 205.80,47.75 205.97,47.53 206.14,47.56 206.31,47.48 206.48,46.92 206.65,46.54 206.82,46.35 206.99,45.99 207.16,45.86 207.33,45.26 207.50,45.03 207.67,44.70 207.84,44.70 208.01,44.55 208.18,43.99 208.35,43.88 208.52,43.83 208.69,43.33 208.86,43.44 209.03,43.09 209.20,43.27 209.37,43.30 209.54,42.27 209.71,43.13 209.88,42.29 210.05,41.65 210.22,41.59 210.39,40.75 210.56,40.59 210.73,41.26 210.90,40.42 211.07,40.34 211.24,39.83 211.41,39.71 211.58,39.66 211.75,39.71 211.92,39.87 212.09,40.12 212.26,40.43 212.43,40.72 212.60,40.88 212.77,41.28 212.94,41.28 213.11,41.48 213.28,41.54 213.45,41.69 213.61,41.97 213.78,42.44 213.95,42.31 214.12,42.93 214.29,43.54 214.46,43.24 214.63,43.79 214.80,44.06 214.97,44.35 215.14,44.62 215.31,44.86 215.48,45.05 215.65,45.28 215.82,45.51 215.99,45.92 216.16,45.84 216.33,46.08 216.50,46.39 216.67,46.62 216.84,46.77 217.01,47.45 217.18,47.62 217.35,47.81 217.52,47.98 217.69,48.76 217.86,49.00 218.03,49.28 218.20,49.56 218.37,49.80 218.54,50.00 218.71,50.20 218.88,50.47 219.05,50.47 219.22,50.78 219.39,51.10 219.56,51.40 219.73,51.57 219.90,51.68 220.07,51.86 220.24,52.09 220.41,52.34 220.58,52.56 220.75,52.92 220.92,53.24 221.09,53.33 221.26,53.53 221.43,53.85 221.60,54.19 221.77,54.41 221.94,54.66 222.11,54.89 222.28,54.97 222.45,54.93 222.62,55.04 222.79,54.90 222.96,54.86 223.13,54.87 223.30,55.11 223.47,7.97 223.64,7.97 223.81,9.29 223.98,9.29 224.15,9.29 224.32,9.58 224.49,9.58 224.66,9.58 224.83,8.98 225.00,8.98 225.17,8.09 225.34,8.09 225.51,8.09 225.68,7.45 225.85,7.45 226.02,6.91 226.18,6.91 226.35,6.91 226.52,6.20 226.69,6.20 226.86,5.81 227.03,5.81 227.20,5.81 227.37,6.41 227.54,6.41 227.71,6.41 227.88,7.05 228.05,7.05 228.22,6.97 228.39,6.97 228.56,6.97 228.73,6.46 228.90,6.46 229.07,6.46 229.24,6.16 229.41,6.16 229.58,6.16 229.75,6.16 229.92,4.00 230.09,6.56 230.26,6.56 230.43,5.41 230.60,5.41 230.77,5.41 230.94,6.92 231.11,6.92 231.28,6.92 231.45,6.39 231.62,6.39 231.79,8.44 231.96,8.44 232.13,7.37 232.30,7.37 232.47,8.44 232.64,8.44 232.81,8.44 232.98,9.08 233.15,9.08 233.32,9.74 233.49,9.35 233.66,9.35 233.83,9.35 234.00,9.49 234.17,9.49 234.34,9.99 234.51,9.79 234.68,9.79 234.85,9.79 235.02,10.45 235.19,9.33 235.36,9.33 235.53,9.33 235.70,9.91 235.87,9.91 236.04,9.91 236.21,10.67 236.38,10.67 236.55,10.67 236.72,11.10 236.89,11.10 237.06,11.10 237.23,11.55 237.40,11.55 237.57,11.55 237.74,12.38 237.91,12.38 238.08,12.50 238.25,12.50 238.42,13.46 238.59,13.46 238.76,13.46 238.92,14.59 239.09,14.59 239.26,14.59 239.43,14.59 239.60,14.65 239.77,14.98 239.94,14.98 240.11,14.98 240.28,14.73 240.45,14.73 240.62,14.73 240.79,15.67 240.96,15.67 241.13,15.67 241.30,16.46 241.47,16.79 241.64,16.79 241.81,16.79 241.98,16.99 242.15,16.99 242.32,16.99 242.49,16.99 242.66,18.77 242.83,18.77 243.00,18.77 243.17,20.57 243.34,20.60 243.51,20.60 243.68,21.63 243.85,21.63 244.02,21.63 244.19,21.63 244.36,22.98 244.53,22.98 244.70,22.98 244.87,23.02 245.04,23.02 245.21,23.02 245.38,22.94 245.55,22.94 245.72,22.94 245.89,22.94 246.06,22.77 246.23,22.77 246.40,22.77 246.57,22.22 246.74,22.58 246.91,22.58 247.08,22.58 247.25,20.91 247.42,21.47 247.59,21.47 247.76,23.15 247.93,23.15 248.10,23.15 248.27,23.71 248.44,23.71 248.61,23.71 248.78,25.20 248.95,23.90 249.12,23.90 249.29,24.50 249.46,24.50 249.63,24.50 249.80,23.77 249.97,24.14 250.14,24.14 250.31,24.14 250.48,24.09 250.65,24.09 250.82,24.09 250.99,25.13 251.16,25.13 251.33,25.13 251.50,22.69 251.66,22.69 251.83,22.69 252.00,22.52 252.17,22.52 252.34,21.07 252.51,21.07 252.68,21.07 252.85,20.55 253.02,19.79 253.19,19.79 253.36,18.94 253.53,18.94 253.70,18.94 253.87,18.32 254.04,18.32 254.21,17.80 254.38,17.80 254.55,17.80 254.72,17.16 254.89,17.16 255.06,18.10 255.23,18.10 255.40,18.10 255.57,18.49 255.74,18.49 255.91,18.49 256.08,17.68 256.25,17.68 256.42,15.94 256.59,15.94 256.76,15.94 256.93,15.94 257.10,15.94 257.27,15.94 257.44,17.02 257.61,17.02 257.78,17.02 257.95,17.59 258.12,17.59 258.29,17.59 258.46,18.35 258.63,18.35 258.80,18.02 258.97,18.02 259.14,18.02 259.31,18.53 259.48,18.78 259.65,18.78 259.82,18.92 259.99,18.92 260.16,18.42 260.33,18.42 260.50,18.42 260.67,17.60 260.84,20.04 261.01,20.04 261.18,18.80 261.35,18.80 261.52,18.80 261.69,18.13 261.86,20.94 262.03,20.94 262.20,20.39 262.37,20.39 262.54,20.39 262.71,20.37 262.88,20.37 263.05,23.80 263.22,22.09 263.39,22.09 263.56,22.09 263.73,23.77 263.90,23.77 264.07,23.77 264.24,25.84 264.40,25.84 264.57,25.84 264.74,27.46 264.91,27.46 265.08,27.46 265.25,27.46 265.42,28.35 265.59,28.35 265.76,29.34 265.93,29.34 266.10,29.34 266.27,30.89 266.44,30.89 266.61,32.50 266.78,32.50 266.95,32.30 267.12,33.12 267.29,33.12 267.46,33.12 267.63,34.15 267.80,34.15 267.97,33.94 268.14,33.94 268.31,35.12 268.48,35.12 268.65,34.61 268.82,34.61 268.99,34.61 269.16,35.46 269.33,35.46 269.50,35.46 269.67,36.64 269.84,36.64 270.01,38.70 270.18,38.97 270.35,38.97 270.52,38.97 270.69,38.97 270.86,38.19 271.03,40.19 271.20,40.19 271.37,40.19 271.54,39.67 271.71,40.65 271.88,40.65 272.05,39.83 272.22,39.83 272.39,39.83 272.56,39.83 272.73,41.32 272.90,41.32 273.07,41.32 273.24,42.24 273.41,42.24 273.58,42.24 273.75,43.48 273.92,43.48 274.09,45.26 274.26,45.26 274.43,45.26 274.60,45.34 274.77,45.34 274.94,45.34 275.11,44.08 275.28,44.08 275.45,44.08 275.62,45.26 275.79,45.26 275.96,45.26 276.13,46.93 276.30,46.93 276.47,47.81 276.64,47.81 276.81,47.81 276.97,48.36 277.14,48.36 277.31,48.36 277.48,49.01 277.65,47.96 277.82,47.96 277.99,47.96 278.16,49.51 278.33,47.96 278.50,47.96 278.67,48.13 278.84,48.13 279.01,48.13 279.18,47.11 279.35,47.11 279.52,46.97 279.69,46.97 279.86,45.60 280.03,45.60 280.20,45.60 280.37,44.13 280.54,44.13 280.71,44.13 280.88,43.54 281.05,43.54 281.22,43.54 281.39,43.87 281.56,43.87 281.73,41.81 281.90,41.34 282.07,41.34 282.24,41.34 282.41,40.69 282.58,40.69 282.75,39.00 282.92,40.72 283.09,40.72 283.26,38.57 283.43,38.57 283.60,38.57 283.77,39.78 283.94,39.78 284.11,39.78 284.28,39.63 284.45,39.63 284.62,39.63 284.79,40.01 284.96,40.01 285.13,40.01 285.30,40.96 285.47,41.95 285.64,41.95 285.81,41.95 285.98,41.84 286.15,41.84 286.32,42.86 286.49,43.03 286.66,43.03 286.83,43.03 287.00,44.64 287.17,44.33 287.34,44.33 287.51,45.48 287.68,45.48 287.85,45.48 288.02,46.35 288.19,46.35 288.36,46.35 288.53,47.94 288.70,46.22 288.87,46.22 289.04,47.54 289.21,47.54 289.38,46.98 289.55,46.98 289.71,47.19 289.88,47.75 290.05,47.75 290.22,47.75 290.39,48.51 290.56,48.51 290.73,48.51 290.90,50.34 291.07,50.34 291.24,50.34 291.41,50.49 291.58,50.49 291.75,50.49 291.92,50.49 292.09,51.02 292.26,51.02 292.43,51.02 292.60,51.78 292.77,51.78 292.94,51.78 293.11,52.40 293.28,52.40 293.45,52.40 293.62,53.94 293.79,53.94 293.96,53.94 294.13,53.94 294.30,55.23 294.47,55.23 294.64,55.23 294.81,55.31 294.98,55.31 295.15,55.31 295.32,55.31 295.49,56.00 295.66,56.00 295.83,56.00 296.00,55.29" />
</svg>