<svg width="300" height="60" xmlns="http://www.w3.org/2000/svg">
  <polyline fill="rgba(255,200,0,0.3)" stroke="#ffbb00" stroke-width="2" points="4.00,51.28 4.32,51.67 4.63,52.25 4.95,52.66 5.27,53.42 5.59,54.24 5.90,54.44 6.22,54.20 6.54,53.94 6.86,53.87 7.17,53.33 7.49,53.37 7.81,53.24 8.13,52.94 8.44,52.72 8.76,52.96 9.08,52.82 9.40,52.05 9.71,50.97 10.03,50.09 10.35,49.78 10.67,49.83 10.98,49.87 11.30,50.44 11.62,51.55 11.93,53.88 12.25,55.10 12.57,54.51 12.89,53.68 13.20,52.71 13.52,52.34 13.84,52.23 14.16,52.40 14.47,50.56 14.79,48.28 15.11,45.95 15.43,44.57 15.74,42.91 16.06,42.09 16.38,41.77 16.70,41.54 17.01,41.37 17.33,40.84 17.65,40.28 17.97,39.88 18.28,39.39 18.60,38.96 18.92,39.04 19.23,40.22 19.55,41.37 19.87,42.60 20.19,43.48 20.50,44.15 20.82,45.34 21.14,44.98 21.46,43.99 21.77,42.02 22.09,39.73 22.41,38.03 22.73,36.58 23.04,35.02 23.36,33.82 23.68,33.01 24.00,32.33 24.31,31.24 24.63,30.20 24.95,29.17 25.27,28.56 25.58,29.07 25.90,30.44 26.22,32.25 26.53,33.77 26.85,35.20 27.17,35.71 27.49,34.46 27.80,32.42 28.12,31.98 28.44,33.90 28.76,36.52 29.07,39.06 29.39,41.95 29.71,42.55 30.03,42.15 30.34,41.87 30.66,41.89 30.98,41.11 31.30,40.33 31.61,38.85 31.93,37.12 32.25,35.17 32.57,33.23 32.88,32.23 33.20,32.58 33.52,33.67 33.83,35.26 34.15,35.55 34.47,34.67 34.79,32.91 35.10,32.41 35.42,32.94 35.74,33.34 36.06,32.99 36.37,32.53 36.69,31.76 37.01,30.36 37.33,28.66 37.64,27.08 37.96,26.16 38.28,26.73 38.60,26.77 38.91,26.12 39.23,25.30 39.55,24.98 39.87,25.49 40.18,25.66 40.50,25.83 40.82,25.07 41.13,23.93 41.45,23.24 41.77,22.98 42.09,23.14 42.40,23.20 42.72,22.96 43.04,23.71 43.36,23.85 43.67,24.11 43.99,23.51 44.31,23.52 44.63,23.47 44.94,23.42 45.26,23.21 45.58,22.21 45.90,20.64 46.21,19.23 46.53,18.80 46.85,18.95 47.17,19.37 47.48,20.14 47.80,20.09 48.12,18.59 48.43,17.59 48.75,16.62 49.07,15.71 49.39,14.91 49.70,14.07 50.02,13.75 50.34,13.78 50.66,14.11 50.97,14.27 51.29,14.35 51.61,14.04 51.93,13.68 52.24,13.14 52.56,12.55 52.88,12.07 53.20,12.05 53.51,12.52 53.83,12.77 54.15,13.05 54.47,13.48 54.78,13.83 55.10,13.85 55.42,13.88 55.73,13.71 56.05,13.41 56.37,12.85 56.69,12.37 57.00,12.07 57.32,12.11 57.64,12.03 57.96,11.95 58.27,11.79 58.59,11.37 58.91,11.33 59.23,11.56 59.54,11.26 59.86,11.06 60.18,11.32 60.50,11.50 60.81,10.93 61.13,10.52 61.45,10.35 61.77,10.37 62.08,10.55 62.40,11.05 62.72,11.37 63.03,11.71 63.35,12.30 63.67,12.75 63.99,13.81 64.30,13.98 64.62,12.73 64.94,12.39 65.26,12.33 65.57,12.73 65.89,13.58 66.21,12.60 66.53,12.07 66.84,11.58 67.16,11.30 67.48,11.17 67.80,11.39 68.11,11.91 68.43,12.95 68.75,14.37 69.07,15.80 69.38,16.94 69.70,16.38 70.02,15.58 70.33,14.17 70.65,13.11 70.97,12.40 71.29,11.99 71.60,11.99 71.92,11.88 72.24,11.96 72.56,12.05 72.87,12.27 73.19,12.04 73.51,11.94 73.83,12.60 74.14,12.62 74.46,12.83 74.78,13.39 75.10,14.19 75.41,14.78 75.73,16.16 76.05,16.77 76.37,16.85 76.68,17.00 77.00,17.12 77.32,17.22 77.63,17.12 77.95,16.91 78.27,16.94 78.59,16.15 78.90,15.33 79.22,14.23 79.54,14.08 79.86,12.52 80.17,11.68 80.49,11.65 80.81,13.08 81.13,11.95 81.44,10.81 81.76,9.24 82.08,8.40 82.40,7.72 82.71,7.36 83.03,7.50 83.35,7.85 83.67,7.97 83.98,7.49 84.30,7.17 84.62,7.14 84.93,7.14 85.25,7.30 85.57,7.82 85.89,8.63 86.20,9.70 86.52,8.28 86.84,6.40 87.16,5.45 87.47,5.23 87.79,5.88 88.11,5.89 88.43,5.09 88.74,5.61 89.06,6.90 89.38,7.88 89.70,8.87 90.01,9.79 90.33,10.15 90.65,9.53 90.97,8.45 91.28,7.13 91.60,6.10 91.92,5.51 92.23,5.42 92.55,5.69 92.87,5.39 93.19,6.05 93.50,7.21 93.82,8.64 94.14,10.22 94.46,11.55 94.77,12.30 95.09,12.10 95.41,10.38 95.73,8.62 96.04,7.51 96.36,7.18 96.68,7.64 97.00,8.85 97.31,10.56 97.63,12.68 97.95,13.05 98.27,13.06 98.58,12.95 98.90,13.28 99.22,13.96 99.53,14.57 99.85,15.32 100.17,15.57 100.49,15.89 100.80,15.97 101.12,15.78 101.44,51.30 101.76,51.69 102.07,52.29 102.39,52.52 102.71,53.47 103.03,53.49 103.34,54.12 103.66,54.12 103.98,54.33 104.30,53.35 104.61,53.17 104.93,53.07 105.25,53.81 105.57,52.68 105.88,53.38 106.20,52.79 106.52,53.87 106.83,52.14 107.15,50.95 107.47,49.87 107.79,49.79 108.10,49.27 108.42,49.81 108.74,51.74 109.06,50.67 109.37,54.81 109.69,54.92 110.01,53.67 110.33,54.51 110.64,53.16 110.96,52.23 111.28,51.27 111.60,50.96 111.91,49.84 112.23,48.46 112.55,46.57 112.87,44.51 113.18,42.95 113.50,42.22 113.82,41.95 114.13,41.63 114.45,41.15 114.77,40.58 115.09,39.99 115.40,39.51 115.72,39.05 116.04,38.16 116.36,39.10 116.67,40.82 116.99,42.02 117.31,41.91 117.63,43.91 117.94,43.91 118.26,46.26 118.58,45.26 118.90,44.11 119.21,43.06 119.53,39.69 119.85,37.57 120.17,36.42 120.48,34.83 120.80,33.62 121.12,32.83 121.43,32.57 121.75,31.55 122.07,30.69 122.39,28.69 122.70,28.69 123.02,29.05 123.34,30.04 123.66,32.31 123.97,34.30 124.29,34.83 124.61,36.57 124.93,35.64 125.24,32.74 125.56,32.04 125.88,34.10 126.20,36.12 126.51,39.20 126.83,41.10 127.15,44.20 127.47,42.31 127.78,41.11 128.10,42.83 128.42,41.53 128.73,40.88 129.05,37.36 129.37,36.60 129.69,36.07 130.00,32.34 130.32,32.36 130.64,33.15 130.96,32.37 131.27,35.70 131.59,35.06 131.91,34.53 132.23,32.09 132.54,32.34 132.86,33.02 133.18,34.97 133.50,33.23 133.81,33.26 134.13,31.34 134.45,31.31 134.77,29.42 135.08,25.71 135.40,27.07 135.72,26.71 136.03,28.02 136.35,26.59 136.67,26.76 136.99,25.23 137.30,24.96 137.62,25.66 137.94,25.66 138.26,25.66 138.57,23.13 138.89,22.26 139.21,23.76 139.53,23.80 139.84,23.69 140.16,23.36 140.48,22.88 140.80,24.00 141.11,24.65 141.43,23.77 141.75,23.38 142.07,23.50 142.38,23.89 142.70,24.29 143.02,21.59 143.33,20.57 143.65,19.59 143.97,19.18 144.29,18.65 144.60,18.86 144.92,20.08 145.24,20.56 145.56,18.50 145.87,17.62 146.19,16.26 146.51,15.60 146.83,14.48 147.14,14.37 147.46,13.65 147.78,13.71 148.10,14.09 148.41,13.74 148.73,14.11 149.05,14.40 149.37,13.78 149.68,13.18 150.00,12.21 150.32,11.83 150.63,12.46 150.95,13.15 151.27,12.37 151.59,12.80 151.90,13.26 152.22,13.66 152.54,13.98 152.86,13.98 153.17,13.54 153.49,12.94 153.81,12.49 154.13,12.12 154.44,12.37 154.76,12.37 155.08,12.60 155.40,12.42 155.71,11.29 156.03,11.51 156.35,11.17 156.67,11.01 156.98,10.85 157.30,10.75 157.62,10.08 157.93,12.07 158.25,10.87 158.57,10.04 158.89,10.88 159.20,9.69 159.52,10.58 159.84,11.23 160.16,11.83 160.47,12.52 160.79,11.80 161.11,12.70 161.43,13.42 161.74,13.92 162.06,12.71 162.38,11.65 162.70,12.47 163.01,12.71 163.33,13.51 163.65,12.08 163.97,12.08 164.28,11.50 164.60,11.35 164.92,10.67 165.23,11.06 165.55,12.21 165.87,13.16 166.19,14.92 166.50,16.39 166.82,16.70 167.14,17.04 167.46,15.96 167.77,13.85 168.09,13.42 168.41,12.35 168.73,12.04 169.04,12.04 169.36,11.97 169.68,11.82 170.00,12.12 170.31,12.29 170.63,12.47 170.95,11.79 171.27,12.58 171.58,12.36 171.90,13.23 172.22,13.53 172.53,14.75 172.85,14.59 173.17,15.86 173.49,17.31 173.80,16.96 174.12,16.90 174.44,16.90 174.76,16.54 175.07,17.89 175.39,17.62 175.71,17.24 176.03,16.79 176.34,14.40 176.66,14.13 176.98,14.11 177.30,13.74 177.61,10.80 177.93,12.44 178.25,12.52 178.57,12.57 178.88,10.40 179.20,9.84 179.52,9.02 179.83,7.65 180.15,7.09 180.47,6.74 180.79,8.01 181.10,7.77 181.42,7.98 181.74,7.14 182.06,6.60 182.37,7.69 182.69,7.09 183.01,8.01 183.33,8.99 183.64,10.12 183.96,8.85 184.28,7.28 184.60,6.09 184.91,4.74 185.23,6.05 185.55,6.32 185.87,4.91 186.18,5.67 186.50,6.59 186.82,7.24 187.13,9.40 187.45,9.86 187.77,9.80 188.09,9.82 188.40,8.34 188.72,6.91 189.04,6.51 189.36,5.93 189.67,5.47 189.99,5.42 190.31,5.56 190.63,5.56 190.94,7.03 191.26,8.44 191.58,10.99 191.90,11.31 192.21,13.50 192.53,12.98 192.85,9.94 193.17,8.27 193.48,7.81 193.80,6.67 194.12,7.68 194.43,9.00 194.75,11.03 195.07,12.32 195.39,13.04 195.70,13.04 196.02,12.91 196.34,12.83 196.66,14.95 196.97,15.43 197.29,15.82 197.61,14.08 197.93,15.83 198.24,15.91 198.56,15.38 198.88,51.69 199.20,51.69 199.51,51.69 199.83,52.55 200.15,52.55 200.47,52.55 200.78,54.34 201.10,54.34 201.42,54.34 201.73,54.34 202.05,52.07 202.37,53.81 202.69,53.81 203.00,53.81 203.32,56.00 203.64,51.09 203.96,51.09 204.27,51.09 204.59,53.30 204.91,49.79 205.23,49.79 205.54,49.79 205.86,47.43 206.18,52.58 206.50,52.58 206.81,52.58 207.13,53.67 207.45,53.67 207.77,53.67 208.08,49.69 208.40,49.69 208.72,49.69 209.03,47.95 209.35,47.95 209.67,45.54 209.99,45.54 210.30,45.54 210.62,42.21 210.94,42.21 211.26,42.21 211.57,41.15 211.89,41.15 212.21,41.15 212.53,39.50 212.84,39.50 213.16,39.50 213.48,37.42 213.80,37.42 214.11,42.58 214.43,42.58 214.75,41.97 215.07,41.97 215.38,41.97 215.70,46.26 216.02,46.26 216.33,43.06 216.65,43.06 216.97,43.06 217.29,36.42 217.60,36.42 217.92,36.42 218.24,32.83 218.56,32.83 218.87,32.83 219.19,32.83 219.51,31.45 219.83,30.08 220.14,30.08 220.46,30.08 220.78,30.08 221.10,33.55 221.41,33.55 221.73,33.55 222.05,36.90 222.37,34.06 222.68,34.06 223.00,34.06 223.32,34.06 223.63,39.20 223.95,39.20 224.27,39.20 224.59,39.87 224.90,39.87 225.22,39.87 225.54,45.16 225.86,45.16 226.17,43.82 226.49,33.68 226.81,33.68 227.13,32.33 227.44,32.33 227.76,32.33 228.08,34.41 228.40,34.41 228.71,38.14 229.03,38.14 229.35,38.14 229.67,32.34 229.98,32.34 230.30,32.34 230.62,38.66 230.93,33.26 231.25,33.26 231.57,33.26 231.89,27.73 232.20,27.73 232.52,22.22 232.84,26.71 233.16,26.71 233.47,26.71 233.79,26.71 234.11,27.94 234.43,27.94 234.74,25.65 235.06,25.65 235.38,25.65 235.70,25.65 236.01,21.71 236.33,21.71 236.65,26.14 236.97,26.14 237.28,26.14 237.60,25.32 237.92,25.32 238.23,25.32 238.55,21.92 238.87,21.92 239.19,21.92 239.50,21.02 239.82,21.02 240.14,21.59 240.46,21.59 240.77,21.59 241.09,19.18 241.41,19.18 241.73,19.18 242.04,19.30 242.36,19.30 242.68,19.30 243.00,19.30 243.31,16.94 243.63,16.94 243.95,14.84 244.27,14.84 244.58,14.42 244.90,14.42 245.22,14.42 245.53,14.42 245.85,13.27 246.17,13.27 246.49,13.27 246.80,14.09 247.12,14.09 247.44,11.31 247.76,11.31 248.07,13.15 248.39,13.15 248.71,13.15 249.03,14.61 249.34,14.61 249.66,14.61 249.98,15.34 250.30,15.34 250.61,12.94 250.93,12.94 251.25,12.94 251.57,11.54 251.88,11.54 252.20,11.54 252.52,12.42 252.83,12.42 253.15,12.42 253.47,9.81 253.79,9.81 254.10,9.81 254.42,9.03 254.74,9.03 255.06,7.79 255.37,10.87 255.69,10.87 256.01,10.87 256.33,12.98 256.64,10.06 256.96,10.06 257.28,10.06 257.60,11.06 257.91,11.06 258.23,11.06 258.55,13.42 258.87,13.42 259.18,13.42 259.50,10.53 259.82,12.47 260.13,12.47 260.45,12.47 260.77,15.13 261.09,10.90 261.40,10.90 261.72,10.90 262.04,13.18 262.36,11.07 262.67,11.07 262.99,11.07 263.31,14.92 263.63,14.92 263.94,14.92 264.26,14.92 264.58,14.65 264.90,14.65 265.21,14.65 265.53,13.24 265.85,13.24 266.17,10.97 266.48,10.97 266.80,12.74 267.12,12.74 267.43,12.13 267.75,12.13 268.07,13.13 268.39,13.13 268.70,13.13 269.02,12.46 269.34,12.46 269.66,12.46 269.97,16.05 270.29,16.05 270.61,15.61 270.93,15.61 271.24,15.61 271.56,14.31 271.88,14.31 272.20,14.31 272.51,20.38 272.83,19.09 273.15,19.09 273.47,19.09 273.78,12.44 274.10,12.44 274.42,12.44 274.73,10.80 275.05,10.80 275.37,10.80 275.69,10.26 276.00,10.40 276.32,10.40 276.64,10.40 276.96,8.25 277.27,8.25 277.59,6.74 277.91,6.74 278.23,6.74 278.54,5.53 278.86,8.95 279.18,8.95 279.50,7.69 279.81,7.69 280.13,9.50 280.45,9.50 280.77,9.50 281.08,9.39 281.40,9.39 281.72,9.39 282.03,6.80 282.35,6.80 282.67,6.80 282.99,4.00 283.30,4.00 283.62,6.58 283.94,6.58 284.26,6.58 284.57,8.19 284.89,8.19 285.21,8.19 285.53,8.49 285.84,8.49 286.16,8.49 286.48,5.93 286.80,5.93 287.11,5.42 287.43,5.42 287.75,5.42 288.07,5.42 288.38,10.09 288.70,10.09 289.02,10.09 289.33,10.93 289.65,10.93 289.97,10.93 290.29,9.44 290.60,9.44 290.92,9.44 291.24,4.87 291.56,8.33 291.87,8.33 292.19,8.33 292.51,8.64 292.83,14.46 293.14,14.46 293.46,14.46 293.78,9.70 294.10,15.42 294.41,15.42 294.73,15.42 295.05,10.89 295.37,15.91 295.68,15.91 296.00,15.91" />
</svg>