<svg width="300" height="60" xmlns="http://www.w3.org/2000/svg">
  <polyline fill="rgba(255,200,0,0.3)" stroke="#ffbb00" stroke-width="2" points="4.00,56.00 4.05,55.76 4.09,55.61 4.14,55.52 4.18,55.13 4.23,54.86 4.28,54.72 4.32,54.56 4.37,54.46 4.41,54.37 4.46,54.30 4.50,54.25 4.55,53.98 4.60,53.78 4.64,53.74 4.69,53.63 4.73,53.67 4.78,53.75 4.83,53.70 4.87,53.65 4.92,53.67 4.96,53.60 5.01,53.67 5.06,54.04 5.10,54.09 5.15,54.12 5.19,54.03 5.24,53.94 5.29,53.86 5.33,53.77 5.38,53.67 5.42,53.57 5.47,53.48 5.51,53.39 5.56,53.28 5.61,53.18 5.65,53.08 5.70,52.99 5.74,52.88 5.79,52.72 5.84,52.60 5.88,52.36 5.93,52.28 5.97,52.14 6.02,52.04 6.07,51.98 6.11,51.87 6.16,51.71 6.20,51.59 6.25,51.49 6.30,51.45 6.34,51.33 6.39,51.23 6.43,51.11 6.48,51.04 6.52,51.02 6.57,50.94 6.62,50.88 6.66,50.85 6.71,50.73 6.75,50.72 6.80,50.78 6.85,50.74 6.89,50.59 6.94,50.42 6.98,50.25 7.03,50.10 7.08,50.05 7.12,50.06 7.17,50.08 7.21,50.07 7.26,50.01 7.31,50.08 7.35,50.30 7.40,50.09 7.44,49.84 7.49,49.80 7.53,49.91 7.58,50.04 7.63,49.98 7.67,49.92 7.72,49.85 7.76,49.77 7.81,49.71 7.86,49.61 7.90,49.55 7.95,49.32 7.99,49.09 8.04,48.87 8.09,48.70 8.13,48.61 8.18,48.60 8.22,48.68 8.27,48.60 8.32,48.51 8.36,48.44 8.41,48.45 8.45,48.53 8.50,48.60 8.54,48.60 8.59,48.56 8.64,48.51 8.68,48.47 8.73,48.41 8.77,48.35 8.82,48.28 8.87,48.22 8.91,48.15 8.96,48.05 9.00,47.99 9.05,47.92 9.10,47.81 9.14,47.79 9.19,47.73 9.23,47.70 9.28,47.63 9.32,47.54 9.37,47.41 9.42,47.37 9.46,47.25 9.51,47.10 9.55,47.03 9.60,46.95 9.65,47.01 9.69,47.14 9.74,47.08 9.78,47.03 9.83,46.99 9.88,46.93 9.92,46.88 9.97,46.54 10.01,46.24 10.06,46.04 10.11,46.00 10.15,46.17 10.20,46.33 10.24,46.42 10.29,46.36 10.33,46.28 10.38,46.15 10.43,46.02 10.47,45.93 10.52,45.95 10.56,45.91 10.61,45.85 10.66,45.76 10.70,45.66 10.75,45.54 10.79,45.40 10.84,45.17 10.89,44.91 10.93,44.60 10.98,44.38 11.02,44.40 11.07,44.54 11.12,44.59 11.16,44.49 11.21,44.52 11.25,44.66 11.30,44.73 11.34,44.73 11.39,44.76 11.44,44.74 11.48,44.73 11.53,44.66 11.57,44.62 11.62,44.44 11.67,44.26 11.71,44.25 11.76,44.27 11.80,43.73 11.85,43.42 11.90,43.27 11.94,43.25 11.99,43.38 12.03,43.63 12.08,43.38 12.13,42.94 12.17,42.67 12.22,42.63 12.26,42.78 12.31,43.03 12.35,43.26 12.40,43.42 12.45,43.37 12.49,43.34 12.54,43.25 12.58,43.12 12.63,43.05 12.68,42.99 12.72,42.96 12.77,42.99 12.81,42.96 12.86,42.95 12.91,42.89 12.95,42.79 13.00,42.70 13.04,42.59 13.09,42.27 13.14,41.94 13.18,41.82 13.23,41.87 13.27,41.93 13.32,41.95 13.36,41.77 13.41,41.56 13.46,41.33 13.50,41.08 13.55,41.07 13.59,41.17 13.64,41.21 13.69,41.19 13.73,41.18 13.78,40.98 13.82,40.92 13.87,41.11 13.92,41.03 13.96,40.96 14.01,40.90 14.05,40.61 14.10,40.31 14.14,40.06 14.19,40.05 14.24,40.44 14.28,40.56 14.33,40.54 14.37,40.77 14.42,40.89 14.47,40.59 14.51,40.51 14.56,40.41 14.60,40.39 14.65,40.17 14.70,39.97 14.74,39.93 14.79,39.86 14.83,39.78 14.88,39.69 14.93,39.67 14.97,39.63 15.02,39.77 15.06,39.95 15.11,40.19 15.15,40.41 15.20,40.34 15.25,40.01 15.29,39.65 15.34,39.41 15.38,39.37 15.43,39.36 15.48,39.39 15.52,39.18 15.57,38.93 15.61,38.86 15.66,38.81 15.71,38.75 15.75,38.74 15.80,39.00 15.84,39.33 15.89,39.44 15.94,39.59 15.98,39.41 16.03,39.29 16.07,39.24 16.12,39.24 16.16,39.17 16.21,39.13 16.26,39.03 16.30,38.94 16.35,39.00 16.39,39.11 16.44,39.18 16.49,39.07 16.53,39.04 16.58,39.25 16.62,39.40 16.67,39.31 16.72,39.23 16.76,39.25 16.81,39.49 16.85,39.64 16.90,39.47 16.95,39.14 16.99,38.83 17.04,38.62 17.08,38.58 17.13,38.22 17.17,38.15 17.22,38.15 17.27,38.17 17.31,38.48 17.36,38.52 17.40,38.67 17.45,39.05 17.50,39.40 17.54,39.34 17.59,39.25 17.63,39.40 17.68,39.59 17.73,39.75 17.77,39.85 17.82,39.47 17.86,39.14 17.91,38.94 17.96,39.02 18.00,39.19 18.05,39.28 18.09,39.63 18.14,39.95 18.18,40.29 18.23,40.67 18.28,40.76 18.32,40.38 18.37,39.97 18.41,39.56 18.46,39.52 18.51,39.52 18.55,39.51 18.60,39.58 18.64,39.91 18.69,40.19 18.74,40.34 18.78,40.36 18.83,39.98 18.87,39.51 18.92,39.38 18.96,39.33 19.01,39.29 19.06,39.24 19.10,39.19 19.15,39.13 19.19,39.09 19.24,39.12 19.29,39.28 19.33,39.58 19.38,39.73 19.42,39.55 19.47,39.35 19.52,39.29 19.56,39.32 19.61,39.69 19.65,39.65 19.70,39.26 19.75,38.98 19.79,38.83 19.84,38.77 19.88,38.85 19.93,38.90 19.97,38.98 20.02,39.15 20.07,39.43 20.11,39.60 20.16,39.80 20.20,39.63 20.25,39.19 20.30,38.89 20.34,38.60 20.39,38.39 20.43,38.25 20.48,38.38 20.53,38.53 20.57,38.65 20.62,38.59 20.66,38.35 20.71,38.19 20.76,38.34 20.80,38.29 20.85,37.80 20.89,37.78 20.94,37.89 20.98,38.07 21.03,38.13 21.08,38.00 21.12,37.74 21.17,37.44 21.21,37.15 21.26,36.97 21.31,37.03 21.35,37.27 21.40,37.26 21.44,37.04 21.49,36.88 21.54,36.73 21.58,36.51 21.63,36.46 21.67,36.57 21.72,36.72 21.77,36.90 21.81,37.12 21.86,37.32 21.90,37.60 21.95,37.73 21.99,37.61 22.04,37.40 22.09,37.15 22.13,36.86 22.18,36.67 22.22,36.56 22.27,36.58 22.32,36.60 22.36,36.60 22.41,36.60 22.45,36.83 22.50,37.28 22.55,37.69 22.59,37.51 22.64,37.22 22.68,37.02 22.73,36.93 22.78,36.86 22.82,36.81 22.87,36.86 22.91,37.15 22.96,37.67 23.00,37.61 23.05,37.29 23.10,36.86 23.14,36.55 23.19,36.45 23.23,36.37 23.28,36.29 23.33,36.21 23.37,36.12 23.42,36.12 23.46,36.29 23.51,36.56 23.56,36.80 23.60,36.90 23.65,36.72 23.69,36.54 23.74,36.41 23.78,36.25 23.83,36.06 23.88,35.84 23.92,35.59 23.97,35.45 24.01,35.37 24.06,35.37 24.11,35.38 24.15,35.63 24.20,35.52 24.24,35.22 24.29,34.75 24.34,34.31 24.38,34.21 24.43,34.17 24.47,34.09 24.52,34.03 24.57,33.96 24.61,33.92 24.66,33.87 24.70,33.83 24.75,33.79 24.79,33.74 24.84,33.68 24.89,33.63 24.93,33.59 24.98,33.60 25.02,33.64 25.07,33.68 25.12,33.74 25.16,33.72 25.21,33.63 25.25,33.48 25.30,33.34 25.35,33.22 25.39,33.13 25.44,33.03 25.48,32.93 25.53,32.91 25.58,32.87 25.62,32.84 25.67,32.83 25.71,32.80 25.76,32.71 25.80,32.59 25.85,32.44 25.90,32.27 25.94,32.17 25.99,32.14 26.03,32.20 26.08,32.26 26.13,32.28 26.17,32.30 26.22,32.49 26.26,32.63 26.31,32.80 26.36,32.99 26.40,33.02 26.45,32.95 26.49,32.69 26.54,32.51 26.59,32.52 26.63,32.62 26.68,32.98 26.72,33.45 26.77,33.42 26.81,33.25 26.86,33.17 26.91,33.07 26.95,33.12 27.00,33.42 27.04,33.74 27.09,33.85 27.14,33.88 27.18,33.90 27.23,34.05 27.27,34.00 27.32,33.86 27.37,33.75 27.41,33.80 27.46,33.86 27.50,33.93 27.55,34.08 27.60,33.91 27.64,33.56 27.69,33.24 27.73,33.15 27.78,33.11 27.82,33.18 27.87,33.30 27.92,33.49 27.96,33.56 28.01,33.49 28.05,33.41 28.10,33.43 28.15,33.48 28.19,33.60 28.24,33.75 28.28,34.06 28.33,34.34 28.38,34.59 28.42,34.82 28.47,34.70 28.51,34.30 28.56,33.94 28.60,33.75 28.65,33.65 28.70,33.66 28.74,33.78 28.79,34.14 28.83,34.50 28.88,34.54 28.93,34.49 28.97,34.29 29.02,34.14 29.06,34.12 29.11,34.11 29.16,34.00 29.20,33.83 29.25,33.79 29.29,33.90 29.34,34.18 29.39,34.40 29.43,34.28 29.48,34.07 29.52,33.80 29.57,33.75 29.61,33.79 29.66,33.88 29.71,33.97 29.75,34.07 29.80,34.36 29.84,34.76 29.89,35.03 29.94,35.25 29.98,35.04 30.03,34.65 30.07,34.28 30.12,33.99 30.17,34.00 30.21,34.21 30.26,34.31 30.30,34.35 30.35,34.32 30.40,34.41 30.44,34.38 30.49,34.43 30.53,34.60 30.58,34.87 30.62,35.15 30.67,35.02 30.72,34.60 30.76,34.14 30.81,33.80 30.85,33.80 30.90,33.78 30.95,33.79 30.99,33.79 31.04,34.02 31.08,34.15 31.13,34.19 31.18,34.22 31.22,34.27 31.27,34.28 31.31,34.26 31.36,34.18 31.41,34.14 31.45,34.20 31.50,34.41 31.54,34.67 31.59,34.87 31.63,35.11 31.68,35.56 31.73,35.62 31.77,35.65 31.82,35.62 31.86,35.18 31.91,34.81 31.96,34.50 32.00,34.35 32.05,34.45 32.09,34.79 32.14,35.18 32.19,35.56 32.23,35.74 32.28,35.81 32.32,35.91 32.37,36.00 32.42,36.05 32.46,35.96 32.51,36.05 32.55,35.72 32.60,35.43 32.64,35.15 32.69,34.88 32.74,34.81 32.78,34.69 32.83,34.48 32.87,34.50 32.92,34.46 32.97,34.46 33.01,34.69 33.06,35.06 33.10,35.12 33.15,35.41 33.20,35.91 33.24,36.04 33.29,35.78 33.33,35.74 33.38,35.91 33.42,36.23 33.47,36.51 33.52,36.64 33.56,36.52 33.61,35.97 33.65,35.50 33.70,35.12 33.75,34.65 33.79,34.53 33.84,34.81 33.88,35.24 33.93,35.75 33.98,35.82 34.02,35.95 34.07,36.24 34.11,36.63 34.16,36.75 34.21,36.93 34.25,37.06 34.30,37.08 34.34,36.96 34.39,36.79 34.43,36.81 34.48,36.91 34.53,36.71 34.57,36.47 34.62,36.39 34.66,35.93 34.71,35.72 34.76,35.62 34.80,35.58 34.85,35.71 34.89,35.98 34.94,36.38 34.99,36.74 35.03,37.06 35.08,37.21 35.12,37.69 35.17,37.86 35.22,37.82 35.26,37.59 35.31,37.38 35.35,37.33 35.40,37.40 35.44,37.48 35.49,37.58 35.54,37.72 35.58,37.80 35.63,37.90 35.67,37.94 35.72,37.98 35.77,37.98 35.81,37.95 35.86,37.92 35.90,37.92 35.95,37.83 36.00,37.74 36.04,37.76 36.09,37.80 36.13,37.84 36.18,37.91 36.23,38.00 36.27,38.13 36.32,38.24 36.36,38.26 36.41,38.30 36.45,38.32 36.50,38.21 36.55,38.11 36.59,38.10 36.64,38.29 36.68,38.46 36.73,38.53 36.78,38.42 36.82,38.22 36.87,38.16 36.91,38.15 36.96,38.15 37.01,38.14 37.05,38.15 37.10,38.18 37.14,38.21 37.19,38.25 37.24,38.29 37.28,38.38 37.33,38.54 37.37,38.66 37.42,38.81 37.46,39.00 37.51,38.77 37.56,38.69 37.60,38.52 37.65,38.33 37.69,38.39 37.74,38.69 37.79,38.76 37.83,38.87 37.88,39.16 37.92,39.28 37.97,39.42 38.02,39.52 38.06,39.64 38.11,39.66 38.15,39.62 38.20,39.71 38.24,39.84 38.29,39.84 38.34,39.82 38.38,39.75 38.43,39.68 38.47,39.65 38.52,39.41 38.57,39.31 38.61,39.36 38.66,38.86 38.70,38.52 38.75,38.18 38.80,37.75 38.84,37.75 38.89,37.99 38.93,38.35 38.98,38.40 39.03,38.71 39.07,38.99 39.12,39.19 39.16,39.31 39.21,39.50 39.25,39.59 39.30,39.69 39.35,39.86 39.39,39.92 39.44,40.00 39.48,40.00 39.53,40.01 39.58,39.96 39.62,39.96 39.67,39.94 39.71,39.96 39.76,39.90 39.81,39.91 39.85,39.94 39.90,39.93 39.94,40.06 39.99,40.06 40.04,40.00 40.08,39.98 40.13,39.98 40.17,39.96 40.22,39.88 40.26,39.84 40.31,39.79 40.36,39.77 40.40,39.77 40.45,39.70 40.49,39.66 40.54,39.58 40.59,39.52 40.63,39.49 40.68,39.50 40.72,39.52 40.77,39.53 40.82,39.51 40.86,39.50 40.91,39.45 40.95,39.40 41.00,39.39 41.05,39.39 41.09,39.37 41.14,39.47 41.18,39.35 41.23,39.40 41.27,39.32 41.32,39.26 41.37,39.37 41.41,39.36 41.46,39.28 41.50,39.15 41.55,39.01 41.60,39.01 41.64,39.12 41.69,39.13 41.73,39.11 41.78,39.10 41.83,39.18 41.87,39.15 41.92,39.10 41.96,39.03 42.01,39.04 42.06,39.03 42.10,39.01 42.15,38.96 42.19,38.90 42.24,38.84 42.28,38.81 42.33,38.77 42.38,38.76 42.42,38.67 42.47,38.56 42.51,38.52 42.56,38.49 42.61,38.47 42.65,38.47 42.70,38.48 42.74,38.54 42.79,38.65 42.84,38.65 42.88,38.62 42.93,38.60 42.97,38.58 43.02,38.55 43.06,38.53 43.11,38.59 43.16,38.58 43.20,38.55 43.25,38.63 43.29,38.55 43.34,38.51 43.39,38.36 43.43,38.39 43.48,38.44 43.52,38.46 43.57,38.40 43.62,38.37 43.66,38.35 43.71,38.31 43.75,38.33 43.80,38.32 43.85,38.29 43.89,38.01 43.94,37.98 43.98,37.95 44.03,38.00 44.07,38.00 44.12,38.04 44.17,38.07 44.21,38.02 44.26,38.03 44.30,37.95 44.35,37.98 44.40,37.96 44.44,37.95 44.49,37.82 44.53,37.81 44.58,37.82 44.63,37.82 44.67,37.71 44.72,37.73 44.76,37.73 44.81,37.72 44.86,37.70 44.90,37.66 44.95,37.63 44.99,37.59 45.04,37.61 45.08,37.60 45.13,37.54 45.18,37.50 45.22,37.38 45.27,37.31 45.31,37.22 45.36,37.14 45.41,37.12 45.45,37.12 45.50,37.07 45.54,37.03 45.59,37.07 45.64,37.17 45.68,37.25 45.73,37.29 45.77,37.27 45.82,37.26 45.87,37.22 45.91,37.18 45.96,37.15 46.00,37.08 46.05,37.06 46.09,37.02 46.14,36.78 46.19,36.54 46.23,36.53 46.28,36.74 46.32,36.84 46.37,36.86 46.42,36.75 46.46,36.74 46.51,36.61 46.55,36.56 46.60,36.48 46.65,36.40 46.69,36.32 46.74,36.31 46.78,36.26 46.83,36.26 46.88,36.29 46.92,36.26 46.97,36.14 47.01,36.07 47.06,36.01 47.10,36.02 47.15,36.05 47.20,36.04 47.24,35.92 47.29,35.88 47.33,35.83 47.38,35.68 47.43,35.73 47.47,35.78 47.52,35.80 47.56,35.82 47.61,35.81 47.66,35.81 47.70,35.89 47.75,35.83 47.79,35.70 47.84,35.69 47.88,35.63 47.93,35.64 47.98,35.61 48.02,35.47 48.07,35.24 48.11,35.47 48.16,35.45 48.21,35.38 48.25,35.35 48.30,35.28 48.34,35.26 48.39,35.21 48.44,35.14 48.48,35.00 48.53,34.92 48.57,34.92 48.62,34.82 48.67,34.82 48.71,34.77 48.76,34.74 48.80,34.70 48.85,34.61 48.89,34.55 48.94,34.55 48.99,34.47 49.03,34.55 49.08,34.42 49.12,34.29 49.17,34.17 49.22,33.93 49.26,33.51 49.31,33.32 49.35,33.03 49.40,32.75 49.45,32.58 49.49,32.40 49.54,32.30 49.58,32.34 49.63,32.52 49.68,32.70 49.72,32.99 49.77,33.26 49.81,33.30 49.86,32.93 49.90,32.61 49.95,32.32 50.00,32.23 50.04,32.43 50.09,32.48 50.13,32.39 50.18,32.46 50.23,32.54 50.27,32.49 50.32,32.40 50.36,32.35 50.41,32.39 50.46,32.46 50.50,32.40 50.55,32.05 50.59,31.74 50.64,31.52 50.69,31.56 50.73,31.70 50.78,31.79 50.82,31.98 50.87,32.18 50.91,32.19 50.96,32.16 51.01,31.88 51.05,31.64 51.10,31.27 51.14,30.97 51.19,30.64 51.24,30.55 51.28,30.73 51.33,30.95 51.37,31.13 51.42,31.41 51.47,31.50 51.51,31.45 51.56,31.38 51.60,31.31 51.65,31.36 51.70,31.50 51.74,31.60 51.79,31.74 51.83,31.83 51.88,31.78 51.92,31.49 51.97,31.31 52.02,31.25 52.06,31.37 52.11,31.58 52.15,31.63 52.20,31.58 52.25,31.40 52.29,31.14 52.34,30.77 52.38,30.35 52.43,30.08 52.48,29.99 52.52,29.94 52.57,30.12 52.61,30.42 52.66,30.71 52.70,31.03 52.75,31.27 52.80,31.41 52.84,31.34 52.89,31.02 52.93,30.56 52.98,30.13 53.03,29.45 53.07,29.27 53.12,28.97 53.16,28.58 53.21,28.29 53.26,28.20 53.30,28.07 53.35,27.96 53.39,28.31 53.44,28.65 53.49,28.61 53.53,28.92 53.58,29.18 53.62,29.39 53.67,29.47 53.71,29.59 53.76,29.64 53.81,29.61 53.85,29.59 53.90,29.72 53.94,29.82 53.99,29.78 54.04,29.75 54.08,29.62 54.13,29.48 54.17,29.40 54.22,29.24 54.27,29.08 54.31,28.91 54.36,28.81 54.40,28.68 54.45,28.47 54.50,28.30 54.54,28.03 54.59,27.83 54.63,27.65 54.68,27.44 54.72,27.18 54.77,26.80 54.82,26.70 54.86,26.55 54.91,26.22 54.95,26.12 55.00,25.88 55.05,25.60 55.09,25.29 55.14,25.09 55.18,24.85 55.23,24.67 55.28,24.67 55.32,24.82 55.37,25.05 55.41,25.18 55.46,25.16 55.51,25.02 55.55,24.98 55.60,25.01 55.64,25.12 55.69,25.43 55.73,25.49 55.78,25.74 55.83,25.97 55.87,26.26 55.92,26.43 55.96,26.42 56.01,26.36 56.06,26.35 56.10,26.34 56.15,26.33 56.19,26.28 56.24,26.27 56.29,26.18 56.33,26.02 56.38,25.85 56.42,25.62 56.47,25.42 56.52,25.29 56.56,25.26 56.61,25.35 56.65,25.48 56.70,25.36 56.74,25.13 56.79,24.77 56.84,24.45 56.88,24.19 56.93,24.00 56.97,24.05 57.02,24.15 57.07,24.42 57.11,24.67 57.16,24.67 57.20,24.44 57.25,24.21 57.30,24.06 57.34,23.94 57.39,23.74 57.43,23.60 57.48,23.45 57.52,23.37 57.57,23.05 57.62,22.91 57.66,22.48 57.71,22.22 57.75,22.14 57.80,22.19 57.85,22.40 57.89,22.51 57.94,22.59 57.98,22.61 58.03,22.62 58.08,22.77 58.12,22.93 58.17,22.97 58.21,22.99 58.26,23.03 58.31,23.04 58.35,22.94 58.40,22.77 58.44,22.70 58.49,22.65 58.53,22.55 58.58,22.46 58.63,22.48 58.67,22.32 58.72,22.04 58.76,21.77 58.81,21.56 58.86,21.41 58.90,21.18 58.95,20.85 58.99,20.69 59.04,20.53 59.09,20.56 59.13,20.71 59.18,20.87 59.22,20.76 59.27,20.39 59.32,20.35 59.36,20.43 59.41,20.76 59.45,20.90 59.50,20.91 59.54,20.85 59.59,20.84 59.64,20.86 59.68,20.76 59.73,20.56 59.77,20.56 59.82,20.66 59.87,20.65 59.91,20.27 59.96,19.79 60.00,19.66 60.05,18.96 60.10,18.50 60.14,18.16 60.19,17.83 60.23,17.54 60.28,17.31 60.33,17.20 60.37,17.16 60.42,17.18 60.46,17.31 60.51,17.55 60.55,17.89 60.60,18.34 60.65,18.84 60.69,18.86 60.74,19.21 60.78,19.13 60.83,19.10 60.88,19.06 60.92,18.98 60.97,18.96 61.01,19.05 61.06,18.91 61.11,18.74 61.15,18.61 61.20,18.51 61.24,18.47 61.29,18.50 61.34,18.65 61.38,18.55 61.43,18.41 61.47,18.24 61.52,18.08 61.56,18.00 61.61,18.01 61.66,18.06 61.70,18.09 61.75,18.14 61.79,18.22 61.84,18.36 61.89,18.28 61.93,18.14 61.98,17.98 62.02,17.82 62.07,17.70 62.12,17.50 62.16,17.46 62.21,17.43 62.25,17.38 62.30,17.33 62.34,17.28 62.39,17.34 62.44,17.54 62.48,17.69 62.53,17.65 62.57,17.56 62.62,17.25 62.67,17.02 62.71,16.91 62.76,16.65 62.80,16.42 62.85,16.18 62.90,15.97 62.94,15.75 62.99,15.67 63.03,15.77 63.08,16.10 63.13,16.16 63.17,16.14 63.22,16.19 63.26,16.06 63.31,16.05 63.35,15.89 63.40,15.82 63.45,15.76 63.49,15.72 63.54,15.91 63.58,16.01 63.63,16.08 63.68,16.05 63.72,15.89 63.77,15.89 63.81,15.88 63.86,15.85 63.91,15.78 63.95,15.59 64.00,15.56 64.04,15.47 64.09,15.36 64.14,15.32 64.18,15.19 64.23,14.93 64.27,14.78 64.32,14.73 64.36,14.67 64.41,14.60 64.46,14.50 64.50,14.00 64.55,13.53 64.59,13.34 64.64,13.43 64.69,13.62 64.73,13.95 64.78,14.27 64.82,14.22 64.87,14.12 64.92,13.88 64.96,13.87 65.01,13.83 65.05,13.87 65.10,13.71 65.15,13.45 65.19,13.48 65.24,13.56 65.28,13.52 65.33,13.60 65.37,13.53 65.42,13.64 65.47,13.97 65.51,14.11 65.56,14.15 65.60,14.09 65.65,13.81 65.70,13.65 65.74,13.36 65.79,12.92 65.83,12.88 65.88,12.62 65.93,12.26 65.97,11.95 66.02,11.69 66.06,11.41 66.11,11.31 66.16,11.39 66.20,11.57 66.25,11.97 66.29,12.30 66.34,12.26 66.38,12.22 66.43,12.16 66.48,12.10 66.52,12.03 66.57,11.97 66.61,11.91 66.66,11.85 66.71,11.84 66.75,11.77 66.80,11.67 66.84,11.62 66.89,11.58 66.94,11.52 66.98,11.47 67.03,11.41 67.07,11.37 67.12,11.35 67.16,11.51 67.21,11.52 67.26,11.55 67.30,11.50 67.35,11.31 67.39,11.07 67.44,10.98 67.49,10.65 67.53,10.53 67.58,10.37 67.62,10.32 67.67,10.32 67.72,10.36 67.76,10.34 67.81,10.32 67.85,10.32 67.90,10.31 67.95,10.25 67.99,10.08 68.04,9.96 68.08,9.71 68.13,9.54 68.17,9.37 68.22,9.24 68.27,9.01 68.31,8.79 68.36,8.68 68.40,8.78 68.45,9.19 68.50,9.28 68.54,9.68 68.59,9.82 68.63,9.88 68.68,9.83 68.73,9.74 68.77,9.67 68.82,9.57 68.86,9.43 68.91,9.22 68.96,9.01 69.00,8.81 69.05,8.72 69.09,8.69 69.14,8.75 69.18,8.90 69.23,8.93 69.28,8.78 69.32,8.55 69.37,8.42 69.41,8.37 69.46,8.33 69.51,8.28 69.55,8.24 69.60,8.18 69.64,8.16 69.69,8.16 69.74,8.26 69.78,8.30 69.83,8.29 69.87,8.23 69.92,8.09 69.97,7.84 70.01,7.72 70.06,7.66 70.10,7.46 70.15,7.37 70.19,7.53 70.24,7.51 70.29,7.74 70.33,7.83 70.38,7.86 70.42,7.93 70.47,7.88 70.52,7.73 70.56,7.50 70.61,7.10 70.65,6.94 70.70,6.87 70.75,6.78 70.79,6.71 70.84,6.67 70.88,6.64 70.93,6.67 70.98,6.69 71.02,6.55 71.07,6.46 71.11,6.37 71.16,6.34 71.20,6.30 71.25,6.26 71.30,6.07 71.34,5.88 71.39,5.82 71.43,5.85 71.48,6.01 71.53,5.95 71.57,5.91 71.62,5.85 71.66,5.80 71.71,5.72 71.76,5.52 71.80,5.27 71.85,5.20 71.89,5.21 71.94,5.37 71.98,5.36 72.03,5.31 72.08,5.19 72.12,5.02 72.17,4.80 72.21,4.60 72.26,4.48 72.31,4.66 72.35,5.08 72.40,5.12 72.44,5.23 72.49,5.43 72.54,5.56 72.58,5.54 72.63,5.34 72.67,5.32 72.72,5.30 72.77,5.16 72.81,5.26 72.86,5.35 72.90,5.39 72.95,5.44 72.99,5.49 73.04,5.64 73.09,5.77 73.13,5.79 73.18,5.89 73.22,5.93 73.27,5.98 73.32,6.06 73.36,6.06 73.41,5.86 73.45,5.83 73.50,5.85 73.55,5.86 73.59,5.84 73.64,5.87 73.68,5.87 73.73,5.94 73.78,5.95 73.82,5.95 73.87,6.03 73.91,6.00 73.96,5.93 74.00,5.80 74.05,5.68 74.10,5.61 74.14,5.53 74.19,5.46 74.23,5.39 74.28,5.34 74.33,5.30 74.37,5.26 74.42,5.22 74.46,5.17 74.51,5.13 74.56,5.06 74.60,4.99 74.65,4.93 74.69,4.84 74.74,4.76 74.79,4.72 74.83,4.60 74.88,4.52 74.92,4.32 74.97,4.28 75.01,4.18 75.06,4.13 75.11,4.10 75.15,4.04 75.20,4.00 75.24,4.13 75.29,4.36 75.34,4.71 75.38,5.12 75.43,5.16 75.47,5.18 75.52,5.18 75.57,5.17 75.61,5.11 75.66,4.92 75.70,4.64 75.75,4.46 75.80,4.56 75.84,4.61 75.89,4.80 75.93,4.86 75.98,4.58 76.02,4.57 76.07,4.41 76.12,4.34 76.16,4.34 76.21,4.29 76.25,4.29 76.30,4.30 76.35,4.35 76.39,4.48 76.44,4.66 76.48,4.86 76.53,5.08 76.58,5.20 76.62,5.16 76.67,5.07 76.71,4.95 76.76,4.89 76.80,4.89 76.85,4.95 76.90,5.07 76.94,5.24 76.99,5.22 77.03,5.22 77.08,55.93 77.13,55.74 77.17,55.61 77.22,55.54 77.26,55.08 77.31,54.91 77.36,54.72 77.40,54.55 77.45,54.50 77.49,54.47 77.54,54.32 77.59,54.40 77.63,54.06 77.68,53.99 77.72,53.75 77.77,53.80 77.81,53.66 77.86,53.85 77.91,53.74 77.95,53.75 78.00,53.82 78.04,53.52 78.09,53.88 78.14,53.91 78.18,54.11 78.23,54.11 78.27,54.03 78.32,53.95 78.37,53.85 78.41,53.76 78.46,53.68 78.50,53.58 78.55,53.47 78.60,53.36 78.64,53.28 78.69,53.19 78.73,53.08 78.78,52.98 78.82,52.87 78.87,52.79 78.92,52.59 78.96,52.33 79.01,52.26 79.05,52.12 79.10,52.11 79.15,51.93 79.19,51.83 79.24,51.67 79.28,51.62 79.33,51.52 79.38,51.44 79.42,51.34 79.47,51.21 79.51,51.05 79.56,51.12 79.61,51.02 79.65,51.01 79.70,50.90 79.74,50.93 79.79,50.76 79.83,50.73 79.88,50.74 79.93,50.71 79.97,50.62 80.02,50.39 80.06,50.26 80.11,50.15 80.16,50.08 80.20,50.09 80.25,50.10 80.29,50.09 80.34,49.93 80.39,50.15 80.43,50.34 80.48,50.05 80.52,49.84 80.57,49.89 80.61,49.92 80.66,50.03 80.71,49.98 80.75,49.93 80.80,49.86 80.84,49.76 80.89,49.68 80.94,49.62 80.98,49.55 81.03,49.34 81.07,49.12 81.12,48.87 81.17,48.70 81.21,48.63 81.26,48.59 81.30,48.52 81.35,48.48 81.40,48.52 81.44,48.33 81.49,48.44 81.53,48.54 81.58,48.67 81.62,48.61 81.67,48.56 81.72,48.51 81.76,48.48 81.81,48.40 81.85,48.35 81.90,48.28 81.95,48.22 81.99,48.15 82.04,48.00 82.08,47.86 82.13,47.93 82.18,47.86 82.22,47.69 82.27,47.75 82.31,47.70 82.36,47.59 82.41,47.52 82.45,47.50 82.50,47.32 82.54,47.21 82.59,47.05 82.63,47.00 82.68,46.89 82.73,46.93 82.77,47.05 82.82,47.08 82.86,47.03 82.91,46.97 82.96,46.93 83.00,46.85 83.05,46.51 83.09,46.23 83.14,46.05 83.19,46.01 83.23,46.12 83.28,46.35 83.32,46.41 83.37,46.34 83.42,46.28 83.46,46.14 83.51,45.97 83.55,45.99 83.60,45.96 83.64,45.94 83.69,45.89 83.74,45.76 83.78,45.64 83.83,45.52 83.87,45.37 83.92,45.19 83.97,44.91 84.01,44.54 84.06,44.35 84.10,44.36 84.15,44.49 84.20,44.51 84.24,44.44 84.29,44.48 84.33,44.65 84.38,44.73 84.43,44.73 84.47,44.73 84.52,44.71 84.56,44.67 84.61,44.62 84.65,44.52 84.70,44.30 84.75,44.14 84.79,44.28 84.84,44.32 84.88,43.69 84.93,43.36 84.98,43.19 85.02,43.33 85.07,43.42 85.11,43.66 85.16,43.37 85.21,42.83 85.25,42.79 85.30,42.65 85.34,42.75 85.39,42.95 85.43,43.14 85.48,43.33 85.53,43.36 85.57,43.30 85.62,43.22 85.66,43.11 85.71,43.04 85.76,42.99 85.80,42.95 85.85,42.93 85.89,42.90 85.94,42.79 85.99,42.70 86.03,42.62 86.08,42.30 86.12,41.91 86.17,41.77 86.22,41.86 86.26,41.83 86.31,41.85 86.35,41.79 86.40,41.56 86.44,41.33 86.49,41.10 86.54,41.10 86.58,41.31 86.63,41.27 86.67,41.31 86.72,41.12 86.77,41.09 86.81,41.04 86.86,41.11 86.90,41.02 86.95,40.93 87.00,40.88 87.04,40.50 87.09,40.30 87.13,40.06 87.18,40.06 87.23,40.40 87.27,40.56 87.32,40.52 87.36,40.85 87.41,40.82 87.45,40.56 87.50,40.45 87.55,40.38 87.59,40.40 87.64,40.24 87.68,39.97 87.73,39.92 87.78,39.85 87.82,39.79 87.87,39.72 87.91,39.66 87.96,39.62 88.01,39.75 88.05,39.92 88.10,40.14 88.14,40.46 88.19,40.32 88.24,40.00 88.28,39.65 88.33,39.41 88.37,39.28 88.42,39.40 88.46,39.39 88.51,39.23 88.56,38.92 88.60,38.85 88.65,38.80 88.69,38.77 88.74,38.74 88.79,39.00 88.83,39.37 88.88,39.45 88.92,39.56 88.97,39.38 89.02,39.22 89.06,39.27 89.11,39.26 89.15,39.18 89.20,39.01 89.25,39.01 89.29,38.91 89.34,39.04 89.38,39.16 89.43,39.11 89.47,38.99 89.52,38.91 89.57,39.30 89.61,39.36 89.66,39.36 89.70,39.19 89.75,39.22 89.80,39.55 89.84,39.66 89.89,39.52 89.93,39.20 89.98,38.77 90.03,38.62 90.07,38.62 90.12,38.26 90.16,38.18 90.21,38.12 90.25,38.21 90.30,38.38 90.35,38.51 90.39,38.64 90.44,39.04 90.48,39.30 90.53,39.37 90.58,39.26 90.62,39.36 90.67,39.62 90.71,39.77 90.76,39.84 90.81,39.48 90.85,39.09 90.90,38.96 90.94,38.99 90.99,39.21 91.04,39.28 91.08,39.59 91.13,39.97 91.17,40.22 91.22,40.59 91.26,40.78 91.31,40.35 91.36,39.98 91.40,39.49 91.45,39.51 91.49,39.53 91.54,39.51 91.59,39.55 91.63,39.85 91.68,40.11 91.72,40.35 91.77,40.37 91.82,40.05 91.86,39.62 91.91,39.36 91.95,39.33 92.00,39.28 92.05,39.24 92.09,39.18 92.14,39.12 92.18,39.09 92.23,39.05 92.27,39.28 92.32,39.50 92.37,39.75 92.41,39.51 92.46,39.33 92.50,39.36 92.55,39.28 92.60,39.82 92.64,39.65 92.69,39.24 92.73,38.96 92.78,38.81 92.83,38.72 92.87,38.75 92.92,38.81 92.96,38.93 93.01,39.06 93.06,39.54 93.10,39.61 93.15,39.77 93.19,39.66 93.24,39.30 93.28,38.90 93.33,38.56 93.38,38.34 93.42,38.20 93.47,38.42 93.51,38.57 93.56,38.69 93.61,38.52 93.65,38.41 93.70,38.13 93.74,38.23 93.79,38.27 93.84,37.79 93.88,37.83 93.93,37.88 93.97,38.02 94.02,38.18 94.07,37.97 94.11,37.70 94.16,37.38 94.20,37.15 94.25,36.95 94.29,37.02 94.34,37.26 94.39,37.23 94.43,37.04 94.48,36.87 94.52,36.72 94.57,36.53 94.62,36.46 94.66,36.57 94.71,36.72 94.75,36.90 94.80,37.16 94.85,37.31 94.89,37.60 94.94,37.70 94.98,37.66 95.03,37.42 95.07,37.08 95.12,36.90 95.17,36.59 95.21,36.55 95.26,36.58 95.30,36.60 95.35,36.60 95.40,36.61 95.44,36.82 95.49,37.33 95.53,37.69 95.58,37.60 95.63,37.19 95.67,37.04 95.72,36.95 95.76,36.85 95.81,36.76 95.86,36.80 95.90,37.18 95.95,37.62 95.99,37.57 96.04,37.28 96.08,36.78 96.13,36.51 96.18,36.43 96.22,36.36 96.27,36.30 96.31,36.20 96.36,36.10 96.41,36.07 96.45,36.27 96.50,36.59 96.54,36.76 96.59,36.91 96.64,36.74 96.68,36.51 96.73,36.44 96.77,36.26 96.82,36.06 96.87,35.85 96.91,35.58 96.96,35.44 97.00,35.30 97.05,35.42 97.09,35.33 97.14,35.61 97.19,35.49 97.23,35.28 97.28,34.78 97.32,34.34 97.37,34.23 97.42,34.15 97.46,34.09 97.51,34.01 97.55,33.96 97.60,33.92 97.65,33.88 97.69,33.84 97.74,33.77 97.78,33.73 97.83,33.68 97.88,33.65 97.92,33.62 97.97,33.62 98.01,33.68 98.06,33.64 98.10,33.73 98.15,33.72 98.20,33.62 98.24,33.43 98.29,33.38 98.33,33.21 98.38,33.12 98.43,33.05 98.47,32.95 98.52,32.91 98.56,32.87 98.61,32.81 98.66,32.82 98.70,32.80 98.75,32.71 98.79,32.60 98.84,32.44 98.89,32.27 98.93,32.19 98.98,32.13 99.02,32.21 99.07,32.26 99.11,32.26 99.16,32.34 99.21,32.51 99.25,32.58 99.30,32.76 99.34,32.94 99.39,33.17 99.44,32.92 99.48,32.69 99.53,32.54 99.57,32.49 99.62,32.60 99.67,32.94 99.71,33.47 99.76,33.47 99.80,33.24 99.85,33.19 99.89,33.12 99.94,33.14 99.99,33.42 100.03,33.72 100.08,33.90 100.12,33.81 100.17,33.88 100.22,34.02 100.26,33.98 100.31,33.86 100.35,33.75 100.40,33.82 100.45,33.82 100.49,33.95 100.54,34.03 100.58,33.93 100.63,33.57 100.68,33.18 100.72,33.15 100.77,33.16 100.81,33.17 100.86,33.34 100.90,33.48 100.95,33.60 101.00,33.52 101.04,33.39 101.09,33.41 101.13,33.52 101.18,33.57 101.23,33.78 101.27,34.03 101.32,34.31 101.36,34.57 101.41,34.84 101.46,34.67 101.50,34.25 101.55,33.99 101.59,33.78 101.64,33.63 101.69,33.68 101.73,33.75 101.78,34.11 101.82,34.46 101.87,34.55 101.91,34.46 101.96,34.31 102.01,34.17 102.05,34.15 102.10,34.11 102.14,34.01 102.19,33.84 102.24,33.86 102.28,33.93 102.33,34.14 102.37,34.43 102.42,34.35 102.47,34.12 102.51,33.82 102.56,33.71 102.60,33.73 102.65,33.91 102.70,33.98 102.74,34.06 102.79,34.44 102.83,34.75 102.88,35.01 102.92,35.25 102.97,35.05 103.02,34.61 103.06,34.26 103.11,33.95 103.15,33.98 103.20,34.17 103.25,34.30 103.29,34.30 103.34,34.33 103.38,34.38 103.43,34.44 103.48,34.41 103.52,34.62 103.57,34.83 103.61,35.18 103.66,35.06 103.71,34.58 103.75,34.03 103.80,33.79 103.84,33.79 103.89,33.78 103.93,33.79 103.98,33.82 104.03,33.92 104.07,34.20 104.12,34.12 104.16,34.25 104.21,34.29 104.26,34.25 104.30,34.30 104.35,34.15 104.39,34.14 104.44,34.21 104.49,34.44 104.53,34.69 104.58,34.80 104.62,35.19 104.67,35.49 104.71,35.67 104.76,35.69 104.81,35.63 104.85,35.11 104.90,34.79 104.94,34.55 104.99,34.36 105.04,34.45 105.08,34.86 105.13,35.16 105.17,35.57 105.22,35.68 105.27,35.84 105.31,35.90 105.36,35.98 105.40,36.03 105.45,35.91 105.50,36.02 105.54,35.72 105.59,35.48 105.63,35.13 105.68,34.80 105.72,34.82 105.77,34.81 105.82,34.43 105.86,34.48 105.91,34.47 105.95,34.44 106.00,34.75 106.05,35.06 106.09,35.10 106.14,35.42 106.18,35.88 106.23,35.99 106.28,35.81 106.32,35.70 106.37,35.92 106.41,36.25 106.46,36.49 106.51,36.71 106.55,36.44 106.60,35.80 106.64,35.50 106.69,35.04 106.73,34.64 106.78,34.52 106.83,34.86 106.87,35.18 106.92,35.73 106.96,35.83 107.01,36.01 107.06,36.23 107.10,36.61 107.15,36.77 107.19,36.92 107.24,37.01 107.29,37.09 107.33,36.95 107.38,36.74 107.42,36.80 107.47,36.89 107.52,36.73 107.56,36.47 107.61,36.35 107.65,35.92 107.70,35.66 107.74,35.64 107.79,35.62 107.84,35.73 107.88,35.97 107.93,36.41 107.97,36.76 108.02,37.05 108.07,37.26 108.11,37.65 108.16,37.83 108.20,37.82 108.25,37.60 108.30,37.44 108.34,37.29 108.39,37.40 108.43,37.49 108.48,37.59 108.53,37.72 108.57,37.81 108.62,37.89 108.66,37.96 108.71,38.00 108.75,38.03 108.80,37.96 108.85,37.93 108.89,37.84 108.94,37.88 108.98,37.73 109.03,37.75 109.08,37.83 109.12,37.83 109.17,37.91 109.21,38.06 109.26,38.21 109.31,38.13 109.35,38.22 109.40,38.27 109.44,38.29 109.49,38.22 109.53,38.12 109.58,38.10 109.63,38.26 109.67,38.49 109.72,38.53 109.76,38.33 109.81,38.18 109.86,38.15 109.90,38.15 109.95,38.15 109.99,38.14 110.04,38.15 110.09,38.17 110.13,38.21 110.18,38.25 110.22,38.28 110.27,38.37 110.32,38.48 110.36,38.64 110.41,38.81 110.45,39.04 110.50,38.79 110.54,38.70 110.59,38.65 110.64,38.35 110.68,38.41 110.73,38.69 110.77,38.76 110.82,38.93 110.87,39.14 110.91,39.28 110.96,39.45 111.00,39.52 111.05,39.70 111.10,39.60 111.14,39.62 111.19,39.75 111.23,39.82 111.28,39.83 111.33,39.84 111.37,39.75 111.42,39.70 111.46,39.61 111.51,39.40 111.55,39.33 111.60,39.37 111.65,38.72 111.69,38.52 111.74,38.15 111.78,37.68 111.83,37.71 111.88,37.97 111.92,38.35 111.97,38.39 112.01,38.69 112.06,39.01 112.11,39.16 112.15,39.30 112.20,39.42 112.24,39.62 112.29,39.77 112.34,39.88 112.38,39.90 112.43,39.99 112.47,39.99 112.52,39.99 112.56,39.97 112.61,39.97 112.66,39.95 112.70,40.00 112.75,39.91 112.79,39.91 112.84,39.97 112.89,40.05 112.93,40.09 112.98,40.06 113.02,40.02 113.07,40.00 113.12,39.98 113.16,39.97 113.21,39.90 113.25,39.78 113.30,39.80 113.35,39.78 113.39,39.77 113.44,39.71 113.48,39.65 113.53,39.58 113.57,39.52 113.62,39.49 113.67,39.51 113.71,39.51 113.76,39.52 113.80,39.51 113.85,39.52 113.90,39.46 113.94,39.39 113.99,39.40 114.03,39.38 114.08,39.42 114.13,39.46 114.17,39.35 114.22,39.41 114.26,39.32 114.31,39.27 114.35,39.36 114.40,39.35 114.45,39.23 114.49,39.16 114.54,39.06 114.58,38.97 114.63,39.15 114.68,39.18 114.72,39.11 114.77,39.07 114.81,39.08 114.86,39.14 114.91,39.06 114.95,39.05 115.00,39.06 115.04,39.03 115.09,39.00 115.14,38.96 115.18,38.93 115.23,38.85 115.27,38.81 115.32,38.75 115.36,38.71 115.41,38.62 115.46,38.58 115.50,38.53 115.55,38.54 115.59,38.56 115.64,38.48 115.69,38.46 115.73,38.62 115.78,38.66 115.82,38.66 115.87,38.64 115.92,38.61 115.96,38.60 116.01,38.56 116.05,38.55 116.10,38.61 116.15,38.59 116.19,38.56 116.24,38.63 116.28,38.58 116.33,38.52 116.37,38.28 116.42,38.38 116.47,38.42 116.51,38.42 116.56,38.41 116.60,38.38 116.65,38.35 116.70,38.30 116.74,38.35 116.79,38.33 116.83,38.22 116.88,38.01 116.93,37.98 116.97,37.99 117.02,37.97 117.06,37.97 117.11,37.99 117.16,38.07 117.20,38.02 117.25,38.03 117.29,37.97 117.34,37.98 117.38,37.97 117.43,37.97 117.48,37.83 117.52,37.82 117.57,37.84 117.61,37.84 117.66,37.74 117.71,37.73 117.75,37.75 117.80,37.75 117.84,37.72 117.89,37.68 117.94,37.64 117.98,37.61 118.03,37.61 118.07,37.58 118.12,37.56 118.17,37.46 118.21,37.35 118.26,37.34 118.30,37.23 118.35,37.14 118.39,37.12 118.44,37.10 118.49,37.07 118.53,37.02 118.58,37.07 118.62,37.25 118.67,37.26 118.72,37.27 118.76,37.27 118.81,37.25 118.85,37.22 118.90,37.20 118.95,37.14 118.99,37.10 119.04,37.09 119.08,36.97 119.13,36.78 119.17,36.55 119.22,36.58 119.27,36.72 119.31,36.85 119.36,36.87 119.40,36.74 119.45,36.76 119.50,36.58 119.54,36.58 119.59,36.49 119.63,36.43 119.68,36.31 119.73,36.30 119.77,36.26 119.82,36.29 119.86,36.27 119.91,36.25 119.96,36.17 120.00,36.08 120.05,36.02 120.09,36.01 120.14,36.11 120.18,36.04 120.23,35.93 120.28,35.91 120.32,35.81 120.37,35.69 120.41,35.75 120.46,35.79 120.51,35.80 120.55,35.83 120.60,35.80 120.64,35.82 120.69,35.90 120.74,35.84 120.78,35.73 120.83,35.69 120.87,35.58 120.92,35.63 120.97,35.63 121.01,35.47 121.06,35.24 121.10,35.48 121.15,35.45 121.19,35.39 121.24,35.29 121.29,35.29 121.33,35.27 121.38,35.21 121.42,35.14 121.47,35.01 121.52,34.92 121.56,34.90 121.61,34.83 121.65,34.82 121.70,34.77 121.75,34.73 121.79,34.70 121.84,34.62 121.88,34.58 121.93,34.55 121.98,34.45 122.02,34.47 122.07,34.40 122.11,34.36 122.16,34.18 122.20,33.97 122.25,33.49 122.30,33.33 122.34,33.03 122.39,32.75 122.43,32.54 122.48,32.42 122.53,32.27 122.57,32.38 122.62,32.49 122.66,32.72 122.71,33.02 122.76,33.28 122.80,33.29 122.85,32.93 122.89,32.64 122.94,32.32 122.99,32.26 123.03,32.42 123.08,32.46 123.12,32.43 123.17,32.48 123.21,32.51 123.26,32.48 123.31,32.40 123.35,32.37 123.40,32.43 123.44,32.40 123.49,32.44 123.54,32.04 123.58,31.67 123.63,31.52 123.67,31.57 123.72,31.68 123.77,31.80 123.81,31.99 123.86,32.15 123.90,32.21 123.95,32.19 123.99,31.85 124.04,31.63 124.09,31.28 124.13,30.92 124.18,30.62 124.22,30.58 124.27,30.77 124.32,31.00 124.36,31.16 124.41,31.35 124.45,31.51 124.50,31.46 124.55,31.38 124.59,31.32 124.64,31.41 124.68,31.57 124.73,31.69 124.78,31.83 124.82,31.88 124.87,31.85 124.91,31.47 124.96,31.32 125.00,31.22 125.05,31.42 125.10,31.56 125.14,31.64 125.19,31.54 125.23,31.45 125.28,31.19 125.33,30.74 125.37,30.29 125.42,30.10 125.46,30.01 125.51,29.94 125.56,30.19 125.60,30.45 125.65,30.72 125.69,31.06 125.74,31.31 125.79,31.38 125.83,31.41 125.88,31.08 125.92,30.58 125.97,30.11 126.01,29.60 126.06,29.28 126.11,28.92 126.15,28.60 126.20,28.21 126.24,28.11 126.29,28.04 126.34,28.03 126.38,28.29 126.43,28.67 126.47,28.63 126.52,28.89 126.57,29.14 126.61,29.33 126.66,29.52 126.70,29.64 126.75,29.66 126.80,29.61 126.84,29.66 126.89,29.74 126.93,29.85 126.98,29.77 127.02,29.74 127.07,29.62 127.12,29.50 127.16,29.40 127.21,29.26 127.25,29.09 127.30,28.99 127.35,28.78 127.39,28.67 127.44,28.49 127.48,28.30 127.53,28.00 127.58,27.89 127.62,27.67 127.67,27.44 127.71,27.24 127.76,26.81 127.81,26.72 127.85,26.52 127.90,26.21 127.94,26.22 127.99,25.95 128.03,25.63 128.08,25.39 128.13,25.18 128.17,24.90 128.22,24.71 128.26,24.71 128.31,24.78 128.36,24.97 128.40,25.29 128.45,25.14 128.49,24.98 128.54,24.93 128.59,25.04 128.63,25.22 128.68,25.43 128.72,25.54 128.77,25.75 128.81,25.97 128.86,26.23 128.91,26.44 128.95,26.42 129.00,26.45 129.04,26.34 129.09,26.36 129.14,26.32 129.18,26.26 129.23,26.26 129.27,26.20 129.32,26.05 129.37,25.85 129.41,25.61 129.46,25.48 129.50,25.29 129.55,25.27 129.60,25.33 129.64,25.48 129.69,25.34 129.73,25.10 129.78,24.75 129.82,24.44 129.87,24.15 129.92,24.00 129.96,24.02 130.01,24.19 130.05,24.38 130.10,24.61 130.15,24.65 130.19,24.41 130.24,24.17 130.28,24.09 130.33,23.94 130.38,23.71 130.42,23.58 130.47,23.46 130.51,23.39 130.56,23.13 130.61,22.90 130.65,22.58 130.70,22.22 130.74,22.14 130.79,22.21 130.83,22.44 130.88,22.52 130.93,22.49 130.97,22.61 131.02,22.63 131.06,22.71 131.11,22.90 131.16,22.94 131.20,22.94 131.25,23.10 131.29,23.08 131.34,22.98 131.39,22.73 131.43,22.76 131.48,22.67 131.52,22.57 131.57,22.48 131.62,22.49 131.66,22.36 131.71,22.04 131.75,21.77 131.80,21.60 131.84,21.41 131.89,21.21 131.94,20.96 131.98,20.66 132.03,20.56 132.07,20.55 132.12,20.75 132.17,20.85 132.21,20.74 132.26,20.38 132.30,20.36 132.35,20.45 132.40,20.76 132.44,20.97 132.49,20.94 132.53,20.86 132.58,20.82 132.63,20.94 132.67,20.71 132.72,20.55 132.76,20.53 132.81,20.76 132.85,20.55 132.90,20.27 132.95,19.80 132.99,19.76 133.04,18.95 133.08,18.56 133.13,18.15 133.18,17.89 133.22,17.54 133.27,17.31 133.31,17.21 133.36,17.15 133.41,17.19 133.45,17.28 133.50,17.54 133.54,17.92 133.59,18.39 133.63,18.80 133.68,18.87 133.73,19.19 133.77,19.17 133.82,19.11 133.86,19.06 133.91,19.01 133.96,18.99 134.00,19.08 134.05,18.95 134.09,18.74 134.14,18.63 134.19,18.50 134.23,18.49 134.28,18.51 134.32,18.67 134.37,18.57 134.42,18.44 134.46,18.26 134.51,18.09 134.55,18.03 134.60,18.04 134.64,18.09 134.69,18.09 134.74,18.16 134.78,18.16 134.83,18.34 134.87,18.28 134.92,18.18 134.97,18.00 135.01,17.83 135.06,17.72 135.10,17.49 135.15,17.46 135.20,17.46 135.24,17.42 135.29,17.35 135.33,17.34 135.38,17.29 135.43,17.57 135.47,17.73 135.52,17.68 135.56,17.54 135.61,17.29 135.65,17.02 135.70,16.95 135.75,16.69 135.79,16.40 135.84,16.19 135.88,15.92 135.93,15.78 135.98,15.69 136.02,15.75 136.07,16.02 136.11,16.16 136.16,16.14 136.21,16.28 136.25,16.14 136.30,15.98 136.34,15.93 136.39,15.83 136.44,15.78 136.48,15.71 136.53,15.80 136.57,16.03 136.62,16.10 136.66,15.98 136.71,15.88 136.76,15.96 136.80,15.77 136.85,15.83 136.89,15.67 136.94,15.56 136.99,15.64 137.03,15.54 137.08,15.40 137.12,15.27 137.17,15.17 137.22,15.03 137.26,14.77 137.31,14.73 137.35,14.66 137.40,14.59 137.45,14.39 137.49,14.15 137.54,13.56 137.58,13.36 137.63,13.40 137.67,13.63 137.72,13.93 137.77,14.27 137.81,14.21 137.86,14.13 137.90,13.82 137.95,13.87 138.00,13.96 138.04,13.93 138.09,13.77 138.13,13.45 138.18,13.43 138.23,13.48 138.27,13.45 138.32,13.62 138.36,13.52 138.41,13.75 138.45,13.96 138.50,14.24 138.55,14.19 138.59,14.05 138.64,13.85 138.68,13.63 138.73,13.25 138.78,12.90 138.82,12.88 138.87,12.60 138.91,12.36 138.96,12.01 139.01,11.69 139.05,11.43 139.10,11.36 139.14,11.42 139.19,11.56 139.24,12.16 139.28,12.30 139.33,12.26 139.37,12.24 139.42,12.18 139.46,12.10 139.51,12.03 139.56,11.98 139.60,11.91 139.65,11.87 139.69,11.83 139.74,11.74 139.79,11.67 139.83,11.63 139.88,11.59 139.92,11.52 139.97,11.48 140.02,11.41 140.06,11.37 140.11,11.35 140.15,11.57 140.20,11.50 140.25,11.57 140.29,11.57 140.34,11.30 140.38,11.04 140.43,10.99 140.47,10.79 140.52,10.46 140.57,10.38 140.61,10.39 140.66,10.24 140.70,10.30 140.75,10.30 140.80,10.43 140.84,10.27 140.89,10.41 140.93,10.31 140.98,10.13 141.03,9.87 141.07,9.79 141.12,9.56 141.16,9.45 141.21,9.29 141.26,9.01 141.30,8.82 141.35,8.68 141.39,8.80 141.44,9.13 141.48,9.27 141.53,9.65 141.58,9.82 141.62,9.88 141.67,9.83 141.71,9.71 141.76,9.61 141.81,9.59 141.85,9.40 141.90,9.18 141.94,9.00 141.99,8.81 142.04,8.71 142.08,8.71 142.13,8.68 142.17,8.89 142.22,8.95 142.27,8.66 142.31,8.52 142.36,8.42 142.40,8.36 142.45,8.31 142.49,8.28 142.54,8.23 142.59,8.17 142.63,8.11 142.68,8.10 142.72,8.25 142.77,8.26 142.82,8.27 142.86,8.24 142.91,8.08 142.95,7.80 143.00,7.72 143.05,7.54 143.09,7.49 143.14,7.32 143.18,7.53 143.23,7.49 143.27,7.74 143.32,7.85 143.37,7.88 143.41,7.92 143.46,7.75 143.50,7.68 143.55,7.40 143.60,7.00 143.64,6.92 143.69,6.87 143.73,6.79 143.78,6.72 143.83,6.66 143.87,6.62 143.92,6.68 143.96,6.70 144.01,6.56 144.06,6.42 144.10,6.36 144.15,6.34 144.19,6.30 144.24,6.26 144.28,6.00 144.33,5.88 144.38,5.74 144.42,5.89 144.47,6.01 144.51,5.94 144.56,5.89 144.61,5.84 144.65,5.80 144.70,5.74 144.74,5.57 144.79,5.25 144.84,5.21 144.88,5.16 144.93,5.36 144.97,5.37 145.02,5.29 145.07,5.19 145.11,4.92 145.16,4.77 145.20,4.62 145.25,4.49 145.29,4.61 145.34,5.07 145.39,5.11 145.43,5.19 145.48,5.52 145.52,5.48 145.57,5.48 145.62,5.32 145.66,5.33 145.71,5.33 145.75,5.15 145.80,5.09 145.85,5.31 145.89,5.40 145.94,5.43 145.98,5.49 146.03,5.68 146.08,5.67 146.12,5.81 146.17,5.85 146.21,5.89 146.26,5.92 146.30,6.12 146.35,6.07 146.40,5.87 146.44,5.83 146.49,5.84 146.53,5.80 146.58,5.88 146.63,5.89 146.67,5.87 146.72,5.94 146.76,5.94 146.81,5.95 146.86,5.99 146.90,6.01 146.95,5.97 146.99,5.77 147.04,5.68 147.09,5.61 147.13,5.53 147.18,5.45 147.22,5.40 147.27,5.35 147.31,5.30 147.36,5.26 147.41,5.22 147.45,5.18 147.50,5.14 147.54,5.04 147.59,4.98 147.64,4.90 147.68,4.84 147.73,4.78 147.77,4.68 147.82,4.56 147.87,4.40 147.91,4.37 147.96,4.37 148.00,4.19 148.05,4.09 148.09,4.14 148.14,4.02 148.19,4.02 148.23,4.13 148.28,4.29 148.32,4.78 148.37,5.15 148.42,5.17 148.46,5.18 148.51,5.17 148.55,5.16 148.60,5.13 148.65,5.03 148.69,4.74 148.74,4.45 148.78,4.57 148.83,4.62 148.88,4.91 148.92,4.83 148.97,4.66 149.01,4.63 149.06,4.46 149.10,4.39 149.15,4.37 149.20,4.28 149.24,4.29 149.29,4.27 149.33,4.42 149.38,4.51 149.43,4.70 149.47,4.81 149.52,5.06 149.56,5.22 149.61,5.18 149.66,5.05 149.70,5.00 149.75,4.89 149.79,4.94 149.84,4.97 149.89,5.07 149.93,5.19 149.98,5.22 150.02,5.22 150.07,55.97 150.11,55.72 150.16,55.72 150.21,55.57 150.25,55.23 150.30,55.08 150.34,54.76 150.39,54.51 150.44,54.61 150.48,54.52 150.53,54.16 150.57,54.51 150.62,54.12 150.67,54.17 150.71,53.74 150.76,53.91 150.80,53.56 150.85,53.90 150.90,53.54 150.94,53.87 150.99,54.16 151.03,53.79 151.08,54.07 151.12,53.81 151.17,54.13 151.22,53.94 151.26,54.01 151.31,53.76 151.35,53.86 151.40,53.81 151.45,53.64 151.49,53.63 151.54,53.43 151.58,53.37 151.63,53.28 151.68,53.09 151.72,53.02 151.77,52.73 151.81,52.69 151.86,52.86 151.91,52.62 151.95,52.55 152.00,52.24 152.04,52.25 152.09,52.23 152.13,51.94 152.18,51.93 152.23,51.61 152.27,51.54 152.32,51.53 152.36,51.26 152.41,51.24 152.46,51.24 152.50,51.17 152.55,51.13 152.59,51.13 152.64,50.81 152.69,50.81 152.73,51.13 152.78,50.81 152.82,50.75 152.87,50.83 152.91,50.53 152.96,50.75 153.01,50.56 153.05,50.39 153.10,49.99 153.14,50.30 153.19,50.27 153.24,50.27 153.28,49.89 153.33,49.88 153.37,50.23 153.42,50.31 153.47,50.08 153.51,49.77 153.56,50.01 153.60,49.97 153.65,49.95 153.70,49.95 153.74,50.09 153.79,49.88 153.83,49.85 153.88,49.84 153.92,49.61 153.97,49.54 154.02,49.26 154.06,49.23 154.11,48.98 154.15,48.84 154.20,48.67 154.25,48.61 154.29,48.70 154.34,48.28 154.38,48.49 154.43,48.12 154.48,48.43 154.52,48.19 154.57,48.50 154.61,48.28 154.66,48.49 154.71,48.61 154.75,48.45 154.80,48.42 154.84,48.34 154.89,48.12 154.93,47.98 154.98,48.12 155.03,47.93 155.07,47.74 155.12,47.86 155.16,47.88 155.21,47.75 155.26,47.82 155.30,47.60 155.35,47.65 155.39,47.42 155.44,47.44 155.49,47.23 155.53,47.35 155.58,47.16 155.62,47.01 155.67,47.01 155.72,46.96 155.76,47.03 155.81,46.80 155.85,46.93 155.90,47.02 155.94,46.90 155.99,46.77 156.04,46.43 156.08,46.32 156.13,46.00 156.17,45.76 156.22,46.25 156.27,46.19 156.31,46.11 156.36,46.38 156.40,46.22 156.45,46.02 156.50,46.13 156.54,45.75 156.59,45.97 156.63,45.86 156.68,45.73 156.73,45.82 156.77,45.70 156.82,45.58 156.86,45.44 156.91,45.02 156.95,44.74 157.00,44.45 157.05,44.23 157.09,44.15 157.14,44.20 157.18,44.24 157.23,44.22 157.28,44.27 157.32,44.40 157.37,44.53 157.41,44.61 157.46,44.60 157.51,44.56 157.55,44.48 157.60,44.40 157.64,44.30 157.69,44.06 157.73,43.95 157.78,44.36 157.83,44.31 157.87,44.03 157.92,43.49 157.96,43.34 158.01,43.30 158.06,43.36 158.10,43.52 158.15,43.51 158.19,42.80 158.24,42.57 158.29,42.48 158.33,42.52 158.38,42.65 158.42,43.29 158.47,43.19 158.52,43.49 158.56,43.33 158.61,43.25 158.65,43.11 158.70,43.05 158.74,43.05 158.79,43.02 158.84,43.15 158.88,43.21 158.93,43.06 158.97,42.60 159.02,42.47 159.07,42.37 159.11,41.97 159.16,41.66 159.20,41.98 159.25,41.64 159.30,41.90 159.34,41.71 159.39,41.46 159.43,41.21 159.48,41.01 159.53,40.90 159.57,41.04 159.62,41.20 159.66,41.34 159.71,41.03 159.75,40.81 159.80,40.81 159.85,40.83 159.89,40.84 159.94,40.96 159.98,40.70 160.03,40.65 160.08,40.53 160.12,40.23 160.17,40.05 160.21,40.41 160.26,40.41 160.31,40.53 160.35,40.76 160.40,41.04 160.44,40.54 160.49,40.50 160.54,40.52 160.58,40.35 160.63,40.46 160.67,40.12 160.72,39.94 160.76,39.88 160.81,39.82 160.86,39.75 160.90,39.53 160.95,39.67 160.99,39.64 161.04,40.03 161.09,40.05 161.13,40.53 161.18,40.30 161.22,39.94 161.27,39.76 161.32,39.44 161.36,39.53 161.41,39.30 161.45,39.40 161.50,39.22 161.55,38.92 161.59,38.91 161.64,38.62 161.68,38.62 161.73,38.66 161.77,39.07 161.82,39.52 161.87,39.32 161.91,39.69 161.96,39.48 162.00,39.22 162.05,39.47 162.10,39.24 162.14,39.54 162.19,39.02 162.23,38.86 162.28,39.14 162.33,39.25 162.37,39.30 162.42,38.98 162.46,39.09 162.51,39.21 162.55,39.35 162.60,39.27 162.65,39.32 162.69,39.32 162.74,39.32 162.78,39.50 162.83,39.56 162.88,39.75 162.92,39.30 162.97,38.84 163.01,38.70 163.06,38.52 163.11,38.33 163.15,38.27 163.20,38.31 163.24,38.45 163.29,38.23 163.34,38.46 163.38,38.78 163.43,38.96 163.47,39.17 163.52,39.22 163.56,39.12 163.61,39.24 163.66,39.43 163.70,39.58 163.75,39.68 163.79,39.58 163.84,39.08 163.89,39.04 163.93,39.10 163.98,39.17 164.02,39.28 164.07,39.55 164.12,39.88 164.16,40.31 164.21,40.75 164.25,40.51 164.30,40.54 164.35,39.96 164.39,39.58 164.44,39.49 164.48,39.43 164.53,39.40 164.57,39.76 164.62,39.76 164.67,39.81 164.71,40.26 164.76,40.30 164.80,39.75 164.85,39.80 164.90,39.42 164.94,39.33 164.99,39.31 165.03,39.23 165.08,39.14 165.13,39.21 165.17,39.06 165.22,39.01 165.26,39.12 165.31,39.13 165.36,39.51 165.40,39.64 165.45,39.19 165.49,39.20 165.54,39.25 165.58,39.45 165.63,39.63 165.68,39.25 165.72,38.87 165.77,38.85 165.81,38.85 165.86,38.99 165.91,38.73 165.95,38.94 166.00,39.23 166.04,39.60 166.09,39.35 166.14,39.84 166.18,39.69 166.23,39.26 166.27,38.82 166.32,38.52 166.37,38.21 166.41,38.29 166.46,38.15 166.50,38.70 166.55,38.62 166.59,38.47 166.64,38.25 166.69,38.02 166.73,38.38 166.78,38.16 166.82,37.88 166.87,37.95 166.92,37.76 166.96,37.96 167.01,38.20 167.05,38.11 167.10,37.89 167.15,37.54 167.19,37.23 167.24,37.12 167.28,37.04 167.33,37.13 167.37,37.25 167.42,37.06 167.47,36.86 167.51,36.71 167.56,36.61 167.60,36.54 167.65,36.50 167.70,36.72 167.74,37.01 167.79,36.99 167.83,37.45 167.88,37.56 167.93,37.65 167.97,37.64 168.02,37.59 168.06,37.04 168.11,37.04 168.16,36.61 168.20,36.33 168.25,36.43 168.29,36.66 168.34,36.42 168.38,36.56 168.43,36.66 168.48,37.39 168.52,37.59 168.57,37.52 168.61,37.22 168.66,36.99 168.71,36.80 168.75,36.91 168.80,36.76 168.84,36.65 168.89,37.14 168.94,37.36 168.98,37.63 169.03,37.17 169.07,37.06 169.12,36.51 169.17,36.37 169.21,36.20 169.26,36.51 169.30,36.31 169.35,36.34 169.39,36.13 169.44,36.36 169.49,36.79 169.53,36.97 169.58,37.04 169.62,36.75 169.67,36.47 169.72,36.47 169.76,36.22 169.81,36.15 169.85,35.86 169.90,35.59 169.95,35.58 169.99,35.37 170.04,35.53 170.08,35.48 170.13,35.57 170.18,35.44 170.22,35.35 170.27,34.99 170.31,34.54 170.36,34.25 170.40,34.13 170.45,33.98 170.50,33.89 170.54,34.03 170.59,33.99 170.63,33.95 170.68,33.95 170.73,33.89 170.77,33.82 170.82,33.73 170.86,33.92 170.91,33.67 170.96,33.71 171.00,33.80 171.05,33.56 171.09,33.89 171.14,33.94 171.19,33.66 171.23,33.56 171.28,33.28 171.32,33.25 171.37,33.03 171.41,33.20 171.46,33.03 171.51,32.92 171.55,32.95 171.60,32.89 171.64,32.84 171.69,32.80 171.74,32.73 171.78,32.61 171.83,32.45 171.87,32.29 171.92,32.12 171.97,32.17 172.01,32.16 172.06,32.23 172.10,32.25 172.15,32.44 172.19,32.47 172.24,32.70 172.29,32.66 172.33,32.94 172.38,33.21 172.42,32.87 172.47,32.81 172.52,32.46 172.56,32.52 172.61,32.57 172.65,32.88 172.70,33.15 172.75,33.37 172.79,33.00 172.84,33.10 172.88,33.19 172.93,33.14 172.98,33.44 173.02,33.70 173.07,33.83 173.11,33.88 173.16,33.94 173.20,34.08 173.25,34.01 173.30,33.86 173.34,33.74 173.39,33.69 173.43,33.67 173.48,34.05 173.53,34.08 173.57,33.93 173.62,33.75 173.66,33.16 173.71,33.26 173.76,33.10 173.80,33.33 173.85,33.42 173.89,33.52 173.94,33.52 173.99,33.50 174.03,33.44 174.08,33.46 174.12,33.43 174.17,33.61 174.21,33.79 174.26,34.13 174.31,34.13 174.35,34.54 174.40,34.90 174.44,34.76 174.49,34.40 174.54,34.04 174.58,33.81 174.63,33.62 174.67,33.67 174.72,33.68 174.77,33.85 174.81,34.33 174.86,34.57 174.90,34.46 174.95,34.28 175.00,34.28 175.04,34.02 175.09,34.06 175.13,33.98 175.18,33.91 175.22,33.96 175.27,33.86 175.32,34.21 175.36,34.31 175.41,34.33 175.45,34.10 175.50,33.82 175.55,33.64 175.59,33.88 175.64,33.88 175.68,33.90 175.73,34.06 175.78,34.26 175.82,34.72 175.87,35.15 175.91,35.04 175.96,35.06 176.01,34.62 176.05,34.26 176.10,34.15 176.14,33.85 176.19,34.03 176.23,34.17 176.28,34.20 176.33,34.54 176.37,34.45 176.42,34.40 176.46,34.46 176.51,34.71 176.56,34.91 176.60,35.21 176.65,34.99 176.69,34.83 176.74,34.24 176.79,33.95 176.83,33.76 176.88,33.65 176.92,33.84 176.97,33.84 177.01,34.14 177.06,34.14 177.11,34.07 177.15,34.39 177.20,34.42 177.24,34.14 177.29,34.22 177.34,34.24 177.38,34.13 177.43,34.26 177.47,34.53 177.52,34.53 177.57,34.62 177.61,35.34 177.66,35.60 177.70,35.67 177.75,35.65 177.80,35.63 177.84,35.06 177.89,34.77 177.93,34.55 177.98,34.35 178.02,34.44 178.07,34.67 178.12,34.95 178.16,35.48 178.21,35.66 178.25,35.83 178.30,35.98 178.35,35.79 178.39,35.98 178.44,35.76 178.48,36.02 178.53,35.71 178.58,35.35 178.62,34.96 178.67,34.74 178.71,34.71 178.76,34.71 178.81,34.44 178.85,34.32 178.90,34.57 178.94,34.44 178.99,34.81 179.03,34.77 179.08,35.08 179.13,35.26 179.17,35.63 179.22,35.78 179.26,35.80 179.31,35.70 179.36,35.98 179.40,36.28 179.45,36.53 179.49,36.62 179.54,36.12 179.59,35.62 179.63,35.62 179.68,35.01 179.72,34.63 179.77,34.49 179.82,34.68 179.86,35.29 179.91,35.60 179.95,35.82 180.00,35.91 180.04,36.14 180.09,36.44 180.14,36.62 180.18,36.84 180.23,36.73 180.27,36.92 180.32,37.08 180.37,36.77 180.41,36.77 180.46,36.76 180.50,36.78 180.55,36.48 180.60,36.24 180.64,35.87 180.69,35.63 180.73,35.51 180.78,35.50 180.83,35.87 180.87,36.05 180.92,36.56 180.96,36.56 181.01,37.00 181.05,37.40 181.10,37.70 181.15,37.80 181.19,37.81 181.24,37.65 181.28,37.60 181.33,37.32 181.38,37.59 181.42,37.54 181.47,37.51 181.51,37.83 181.56,37.82 181.61,37.78 181.65,38.09 181.70,38.01 181.74,37.93 181.79,37.82 181.83,38.03 181.88,38.03 181.93,37.99 181.97,37.89 182.02,37.82 182.06,38.14 182.11,38.09 182.16,38.06 182.20,38.04 182.25,38.40 182.29,38.34 182.34,38.28 182.39,38.21 182.43,38.40 182.48,38.21 182.52,38.09 182.57,38.26 182.62,38.29 182.66,38.61 182.71,38.57 182.75,38.38 182.80,38.41 182.84,38.20 182.89,38.23 182.94,38.25 182.98,38.11 183.03,38.23 183.07,38.15 183.12,38.21 183.17,38.30 183.21,38.33 183.26,38.43 183.30,38.56 183.35,38.70 183.40,38.89 183.44,39.02 183.49,38.87 183.53,38.67 183.58,38.67 183.63,38.64 183.67,38.42 183.72,38.65 183.76,38.90 183.81,38.91 183.85,39.34 183.90,39.33 183.95,39.36 183.99,39.45 184.04,39.59 184.08,39.73 184.13,39.65 184.18,39.83 184.22,39.79 184.27,39.75 184.31,39.86 184.36,39.79 184.41,39.66 184.45,39.70 184.50,39.53 184.54,39.46 184.59,39.31 184.64,38.98 184.68,38.43 184.73,38.00 184.77,37.82 184.82,37.82 184.86,37.98 184.91,38.28 184.96,38.39 185.00,38.77 185.05,39.15 185.09,39.32 185.14,39.32 185.19,39.35 185.23,39.46 185.28,39.78 185.32,39.96 185.37,39.88 185.42,40.01 185.46,39.94 185.51,39.98 185.55,39.99 185.60,39.91 185.65,40.01 185.69,39.96 185.74,39.89 185.78,39.82 185.83,40.02 185.87,39.96 185.92,39.89 185.97,39.87 186.01,39.93 186.06,39.95 186.10,39.95 186.15,39.93 186.20,39.88 186.24,39.86 186.29,39.82 186.33,39.81 186.38,39.77 186.43,39.72 186.47,39.65 186.52,39.58 186.56,39.48 186.61,39.51 186.65,39.51 186.70,39.47 186.75,39.50 186.79,39.52 186.84,39.52 186.88,39.47 186.93,39.45 186.98,39.36 187.02,39.37 187.07,39.42 187.11,39.38 187.16,39.37 187.21,39.40 187.25,39.35 187.30,39.31 187.34,39.31 187.39,39.32 187.44,39.27 187.48,39.25 187.53,39.00 187.57,39.05 187.62,39.10 187.66,39.16 187.71,39.13 187.76,39.12 187.80,39.14 187.85,39.11 187.89,39.11 187.94,39.10 187.99,39.01 188.03,39.03 188.08,39.02 188.12,38.89 188.17,38.87 188.22,38.87 188.26,38.90 188.31,38.65 188.35,38.70 188.40,38.76 188.45,38.41 188.49,38.50 188.54,38.72 188.58,38.47 188.63,38.67 188.67,38.52 188.72,38.69 188.77,38.65 188.81,38.62 188.86,38.62 188.90,38.56 188.95,38.62 189.00,38.58 189.04,38.54 189.09,38.60 189.13,38.57 189.18,38.60 189.23,38.61 189.27,38.51 189.32,38.51 189.36,38.39 189.41,38.36 189.46,38.43 189.50,38.41 189.55,38.43 189.59,38.38 189.64,38.35 189.68,38.31 189.73,38.30 189.78,38.22 189.82,38.23 189.87,37.96 189.91,37.97 189.96,38.00 190.01,37.96 190.05,38.05 190.10,37.92 190.14,38.02 190.19,37.94 190.24,38.01 190.28,37.97 190.33,37.97 190.37,37.98 190.42,37.87 190.47,37.87 190.51,37.78 190.56,37.82 190.60,37.83 190.65,37.70 190.69,37.73 190.74,37.72 190.79,37.70 190.83,37.70 190.88,37.69 190.92,37.65 190.97,37.61 191.02,37.60 191.06,37.57 191.11,37.53 191.15,37.46 191.20,37.37 191.25,37.31 191.29,37.31 191.34,37.14 191.38,37.10 191.43,37.13 191.47,37.13 191.52,37.01 191.57,37.03 191.61,37.10 191.66,37.19 191.70,37.22 191.75,37.25 191.80,37.23 191.84,37.21 191.89,37.18 191.93,37.16 191.98,37.10 192.03,37.05 192.07,37.01 192.12,36.67 192.16,36.65 192.21,36.79 192.26,36.60 192.30,36.69 192.35,36.85 192.39,36.79 192.44,36.69 192.48,36.63 192.53,36.55 192.58,36.44 192.62,36.45 192.67,36.36 192.71,36.30 192.76,36.27 192.81,36.31 192.85,36.27 192.90,36.26 192.94,36.24 192.99,36.05 193.04,36.08 193.08,36.15 193.13,36.19 193.17,35.97 193.22,35.97 193.27,35.93 193.31,35.91 193.36,35.79 193.40,35.76 193.45,35.81 193.49,35.75 193.54,35.76 193.59,35.78 193.63,35.81 193.68,35.83 193.72,35.80 193.77,35.73 193.82,35.58 193.86,35.55 193.91,35.60 193.95,35.60 194.00,35.53 194.05,35.38 194.09,35.41 194.14,35.41 194.18,35.37 194.23,35.34 194.28,35.27 194.32,35.24 194.37,35.20 194.41,35.12 194.46,35.04 194.50,34.91 194.55,34.87 194.60,34.82 194.64,34.80 194.69,34.76 194.73,34.71 194.78,34.66 194.83,34.66 194.87,34.62 194.92,34.56 194.96,34.47 195.01,34.55 195.06,34.39 195.10,34.34 195.15,34.08 195.19,33.75 195.24,33.48 195.29,33.27 195.33,32.97 195.38,32.62 195.42,32.67 195.47,32.28 195.51,32.37 195.56,32.25 195.61,32.51 195.65,32.81 195.70,33.00 195.74,33.25 195.79,33.23 195.84,32.93 195.88,32.44 195.93,32.25 195.97,32.31 196.02,32.52 196.07,32.31 196.11,32.35 196.16,32.51 196.20,32.51 196.25,32.39 196.29,32.30 196.34,32.43 196.39,32.24 196.43,32.41 196.48,32.41 196.52,32.11 196.57,31.77 196.62,31.42 196.66,31.39 196.71,31.73 196.75,31.98 196.80,31.84 196.85,32.23 196.89,32.15 196.94,32.07 196.98,31.62 197.03,31.48 197.08,31.05 197.12,30.70 197.17,30.71 197.21,30.44 197.26,30.67 197.30,30.86 197.35,31.25 197.40,31.20 197.44,31.51 197.49,31.45 197.53,31.41 197.58,31.41 197.63,31.44 197.67,31.55 197.72,31.93 197.76,31.86 197.81,32.15 197.86,31.81 197.90,31.46 197.95,31.47 197.99,31.38 198.04,31.45 198.09,31.59 198.13,31.65 198.18,31.57 198.22,31.37 198.27,31.04 198.31,30.57 198.36,30.55 198.41,30.09 198.45,30.07 198.50,30.07 198.54,30.18 198.59,30.70 198.64,30.89 198.68,31.33 198.73,31.23 198.77,31.57 198.82,31.32 198.87,30.95 198.91,30.49 198.96,29.99 199.00,29.48 199.05,29.30 199.10,28.65 199.14,28.89 199.19,28.61 199.23,28.09 199.28,27.89 199.32,28.41 199.37,28.55 199.42,28.66 199.46,28.66 199.51,28.98 199.55,29.32 199.60,29.27 199.65,29.59 199.69,29.56 199.74,29.57 199.78,29.51 199.83,29.84 199.88,29.91 199.92,29.92 199.97,29.88 200.01,29.85 200.06,29.71 200.11,29.57 200.15,29.47 200.20,29.34 200.24,29.19 200.29,29.19 200.33,28.75 200.38,28.65 200.43,28.50 200.47,28.35 200.52,28.13 200.56,27.92 200.61,27.74 200.66,27.53 200.70,27.15 200.75,26.89 200.79,26.77 200.84,26.19 200.89,26.03 200.93,26.09 200.98,25.75 201.02,25.42 201.07,25.47 201.11,25.09 201.16,24.68 201.21,24.74 201.25,24.71 201.30,24.93 201.34,24.79 201.39,25.20 201.44,25.33 201.48,25.02 201.53,25.12 201.57,25.01 201.62,25.42 201.67,25.45 201.71,25.59 201.76,25.80 201.80,26.04 201.85,26.27 201.90,26.41 201.94,26.66 201.99,26.60 202.03,26.30 202.08,26.34 202.12,26.43 202.17,26.43 202.22,26.54 202.26,26.26 202.31,26.23 202.35,25.91 202.40,25.58 202.45,25.56 202.49,25.38 202.54,25.32 202.58,25.40 202.63,25.46 202.68,25.31 202.72,25.03 202.77,24.68 202.81,24.33 202.86,24.15 202.91,24.15 202.95,24.16 203.00,24.14 203.04,24.29 203.09,24.50 203.13,24.56 203.18,24.45 203.23,24.12 203.27,24.03 203.32,23.89 203.36,23.84 203.41,23.57 203.46,23.47 203.50,23.34 203.55,23.03 203.59,22.86 203.64,22.56 203.69,22.22 203.73,22.33 203.78,22.29 203.82,22.51 203.87,22.62 203.92,22.58 203.96,22.80 204.01,22.68 204.05,22.74 204.10,22.92 204.14,23.07 204.19,22.87 204.24,23.01 204.28,23.10 204.33,23.08 204.37,22.63 204.42,22.89 204.47,22.83 204.51,22.78 204.56,22.45 204.60,22.45 204.65,22.45 204.70,22.13 204.74,21.87 204.79,21.65 204.83,21.24 204.88,21.20 204.93,21.12 204.97,20.69 205.02,20.57 205.06,20.68 205.11,20.89 205.15,20.64 205.20,20.82 205.25,20.45 205.29,20.48 205.34,20.43 205.38,20.69 205.43,21.07 205.48,20.90 205.52,20.68 205.57,21.03 205.61,20.99 205.66,20.82 205.71,20.42 205.75,20.69 205.80,20.80 205.84,20.68 205.89,20.18 205.93,19.82 205.98,19.73 206.03,18.96 206.07,18.71 206.12,18.15 206.16,17.97 206.21,17.53 206.26,17.36 206.30,17.24 206.35,17.17 206.39,17.18 206.44,17.35 206.49,17.63 206.53,18.00 206.58,18.52 206.62,18.52 206.67,18.84 206.72,18.98 206.76,19.21 206.81,19.09 206.85,19.08 206.90,19.03 206.94,18.94 206.99,19.10 207.04,18.96 207.08,18.76 207.13,18.61 207.17,18.44 207.22,18.53 207.27,18.55 207.31,18.61 207.36,18.60 207.40,18.35 207.45,18.25 207.50,18.15 207.54,18.10 207.59,18.10 207.63,18.19 207.68,18.09 207.73,18.21 207.77,18.23 207.82,18.43 207.86,18.28 207.91,18.11 207.95,17.91 208.00,17.87 208.05,17.70 208.09,17.54 208.14,17.55 208.18,17.58 208.23,17.54 208.28,17.48 208.32,17.47 208.37,17.36 208.41,17.57 208.46,17.72 208.51,17.72 208.55,17.48 208.60,17.31 208.64,17.03 208.69,16.93 208.74,16.73 208.78,16.42 208.83,16.13 208.87,15.78 208.92,15.75 208.96,15.72 209.01,15.71 209.06,16.20 209.10,16.30 209.15,16.41 209.19,16.52 209.24,16.10 209.29,16.09 209.33,16.03 209.38,15.97 209.42,15.89 209.47,15.83 209.52,15.79 209.56,16.32 209.61,16.44 209.65,15.90 209.70,16.04 209.75,16.22 209.79,15.87 209.84,16.11 209.88,15.79 209.93,15.51 209.97,15.78 210.02,15.53 210.07,15.65 210.11,15.32 210.16,15.26 210.20,14.98 210.25,14.77 210.30,14.63 210.34,14.63 210.39,14.53 210.43,14.29 210.48,14.29 210.53,13.54 210.57,13.30 210.62,13.32 210.66,13.53 210.71,13.81 210.75,14.07 210.80,14.20 210.85,13.93 210.89,13.80 210.94,13.39 210.98,13.82 211.03,13.77 211.08,13.51 211.12,13.58 211.17,13.17 211.21,13.39 211.26,13.21 211.31,13.51 211.35,13.59 211.40,13.56 211.44,13.98 211.49,13.98 211.54,14.33 211.58,14.03 211.63,13.69 211.67,13.39 211.72,13.13 211.76,12.92 211.81,12.72 211.86,12.49 211.90,12.28 211.95,12.06 211.99,11.50 212.04,11.36 212.09,11.30 212.13,11.40 212.18,11.79 212.22,12.29 212.27,12.28 212.32,12.27 212.36,12.24 212.41,12.17 212.45,12.10 212.50,12.06 212.55,12.06 212.59,12.25 212.64,11.93 212.68,12.01 212.73,12.07 212.77,11.64 212.82,11.63 212.87,11.61 212.91,11.44 212.96,11.29 213.00,11.45 213.05,11.38 213.10,11.35 213.14,11.77 213.19,11.42 213.23,11.55 213.28,11.77 213.33,11.35 213.37,10.94 213.42,10.75 213.46,10.55 213.51,10.32 213.56,10.38 213.60,10.39 213.65,9.98 213.69,10.30 213.74,10.08 213.78,10.34 213.83,10.02 213.88,10.10 213.92,10.15 213.97,10.14 214.01,9.59 214.06,9.54 214.11,9.45 214.15,9.38 214.20,9.35 214.24,8.97 214.29,8.72 214.34,8.79 214.38,8.95 214.43,9.22 214.47,9.35 214.52,9.64 214.57,9.96 214.61,9.86 214.66,9.75 214.70,9.65 214.75,9.54 214.79,9.69 214.84,9.49 214.89,9.25 214.93,9.00 214.98,8.82 215.02,8.82 215.07,8.99 215.12,8.94 215.16,8.94 215.21,8.89 215.25,8.73 215.30,8.75 215.35,8.49 215.39,8.50 215.44,8.35 215.48,8.39 215.53,8.27 215.57,8.16 215.62,8.25 215.67,8.25 215.71,8.20 215.76,8.19 215.80,8.20 215.85,8.20 215.90,8.15 215.94,8.03 215.99,7.71 216.03,7.61 216.08,7.54 216.13,7.50 216.17,7.50 216.22,7.50 216.26,7.77 216.31,7.96 216.36,7.96 216.40,8.00 216.45,7.93 216.49,7.55 216.54,7.50 216.58,7.18 216.63,6.99 216.68,6.84 216.72,6.70 216.77,6.63 216.81,6.80 216.86,6.74 216.91,6.90 216.95,6.69 217.00,6.65 217.04,6.43 217.09,6.44 217.14,6.44 217.18,6.30 217.23,6.37 217.27,6.21 217.32,6.05 217.37,5.90 217.41,5.85 217.46,6.02 217.50,5.94 217.55,5.95 217.59,5.76 217.64,5.67 217.69,5.79 217.73,5.54 217.78,5.39 217.82,5.37 217.87,5.09 217.92,5.41 217.96,5.43 218.01,5.21 218.05,5.09 218.10,4.98 218.15,4.98 218.19,4.72 218.24,4.58 218.28,4.61 218.33,4.96 218.38,5.34 218.42,5.28 218.47,5.71 218.51,5.53 218.56,5.75 218.60,5.44 218.65,5.41 218.70,5.16 218.74,5.11 218.79,5.19 218.83,4.93 218.88,5.21 218.93,5.54 218.97,5.46 219.02,5.73 219.06,5.64 219.11,5.87 219.16,5.75 219.20,6.03 219.25,5.88 219.29,6.17 219.34,5.96 219.39,5.89 219.43,5.82 219.48,5.86 219.52,5.78 219.57,5.80 219.61,5.82 219.66,5.93 219.71,5.96 219.75,5.85 219.80,5.94 219.84,6.12 219.89,6.09 219.94,5.94 219.98,5.84 220.03,5.70 220.07,5.59 220.12,5.49 220.17,5.52 220.21,5.39 220.26,5.39 220.30,5.39 220.35,5.26 220.39,5.23 220.44,5.18 220.49,5.14 220.53,5.08 220.58,5.01 220.62,4.95 220.67,4.88 220.72,4.81 220.76,4.74 220.81,4.67 220.85,4.58 220.90,4.43 220.95,4.23 220.99,4.31 221.04,4.08 221.08,4.31 221.13,4.08 221.18,4.09 221.22,4.32 221.27,4.39 221.31,5.01 221.36,5.12 221.40,5.21 221.45,5.27 221.50,5.26 221.54,5.26 221.59,5.17 221.63,5.01 221.68,5.02 221.73,4.73 221.77,4.85 221.82,4.49 221.86,4.96 221.91,4.92 221.96,4.65 222.00,4.95 222.05,4.63 222.09,4.41 222.14,4.68 222.19,4.27 222.23,4.17 222.28,4.47 222.32,4.52 222.37,4.71 222.41,4.62 222.46,5.00 222.51,5.00 222.55,5.31 222.60,5.14 222.64,5.14 222.69,5.09 222.74,4.81 222.78,5.12 222.83,5.20 222.87,5.05 222.92,5.16 222.97,5.23 223.01,5.23 223.06,55.94 223.10,55.94 223.15,55.94 223.20,55.94 223.24,55.21 223.29,55.21 223.33,55.21 223.38,55.06 223.42,55.06 223.47,54.34 223.52,54.34 223.56,54.71 223.61,54.71 223.65,53.86 223.70,53.86 223.75,53.86 223.79,52.89 223.84,54.10 223.88,54.10 223.93,53.20 223.98,53.20 224.02,53.20 224.07,53.95 224.11,53.95 224.16,53.95 224.20,53.16 224.25,53.16 224.30,53.16 224.34,53.76 224.39,53.76 224.43,53.76 224.48,52.85 224.53,52.85 224.57,53.84 224.62,52.97 224.66,52.97 224.71,52.97 224.76,51.94 224.80,52.90 224.85,52.90 224.89,52.90 224.94,51.93 224.99,51.93 225.03,52.73 225.08,51.89 225.12,51.89 225.17,51.89 225.21,51.00 225.26,51.83 225.31,51.83 225.35,50.96 225.40,50.96 225.44,50.96 225.49,51.75 225.54,50.88 225.58,50.88 225.63,50.88 225.67,50.79 225.72,50.79 225.77,50.79 225.81,50.79 225.86,50.75 225.90,50.75 225.95,50.75 226.00,50.75 226.04,50.40 226.09,50.40 226.13,50.40 226.18,50.40 226.22,50.19 226.27,50.19 226.32,50.19 226.36,50.19 226.41,50.22 226.45,50.22 226.50,50.22 226.55,50.22 226.59,49.96 226.64,49.96 226.68,49.96 226.73,49.96 226.78,50.37 226.82,50.37 226.87,50.37 226.91,49.58 226.96,49.58 227.01,49.58 227.05,49.48 227.10,49.48 227.14,48.83 227.19,48.83 227.23,48.38 227.28,48.38 227.33,48.38 227.37,48.49 227.42,47.52 227.46,47.52 227.51,47.73 227.56,47.73 227.60,47.73 227.65,48.44 227.69,48.44 227.74,47.25 227.79,47.58 227.83,47.58 227.88,46.98 227.92,46.98 227.97,48.32 228.02,47.75 228.06,47.75 228.11,47.75 228.15,48.06 228.20,48.06 228.24,48.06 228.29,47.29 228.34,47.63 228.38,47.63 228.43,47.63 228.47,47.75 228.52,47.75 228.57,46.89 228.61,47.26 228.66,47.26 228.70,47.26 228.75,46.41 228.80,46.41 228.84,47.37 228.89,46.69 228.93,46.69 228.98,46.69 229.02,45.92 229.07,46.59 229.12,46.59 229.16,45.87 229.21,45.87 229.25,45.87 229.30,45.40 229.35,45.40 229.39,45.40 229.44,44.90 229.48,46.29 229.53,45.71 229.58,45.71 229.62,45.71 229.67,45.33 229.71,45.33 229.76,45.33 229.81,44.94 229.85,44.94 229.90,44.28 229.94,44.28 229.99,44.28 230.03,43.43 230.08,43.43 230.13,43.43 230.17,43.12 230.22,43.12 230.26,43.23 230.31,43.23 230.36,43.23 230.40,43.65 230.45,43.65 230.49,43.66 230.54,43.66 230.59,43.66 230.63,43.36 230.68,43.36 230.72,42.99 230.77,44.39 230.82,44.39 230.86,44.00 230.91,44.00 230.95,43.46 231.00,43.46 231.04,43.46 231.09,43.37 231.14,43.37 231.18,42.92 231.23,42.92 231.27,42.92 231.32,42.61 231.37,42.61 231.41,42.61 231.46,42.59 231.50,42.59 231.55,42.28 231.60,43.49 231.64,43.49 231.69,42.85 231.73,42.85 231.78,42.85 231.83,43.46 231.87,43.46 231.92,43.46 231.96,43.36 232.01,43.36 232.05,43.36 232.10,42.08 232.15,42.08 232.19,42.08 232.24,41.33 232.28,41.33 232.33,41.33 232.38,40.69 232.42,40.69 232.47,40.69 232.51,40.16 232.56,40.16 232.61,40.12 232.65,40.12 232.70,40.12 232.74,40.78 232.79,40.78 232.84,39.70 232.88,39.70 232.93,40.42 232.97,40.42 233.02,40.42 233.06,40.41 233.11,40.41 233.16,40.04 233.20,40.04 233.25,40.04 233.29,40.04 233.34,41.20 233.39,41.20 233.43,40.45 233.48,40.56 233.52,40.56 233.57,40.56 233.62,40.76 233.66,40.76 233.71,39.94 233.75,39.94 233.80,39.94 233.84,39.31 233.89,39.31 233.94,39.72 233.98,39.72 234.03,39.72 234.07,39.57 234.12,39.57 234.17,39.57 234.21,39.15 234.26,40.10 234.30,40.10 234.35,39.31 234.40,39.31 234.44,39.31 234.49,39.20 234.53,39.20 234.58,39.20 234.63,39.20 234.67,39.29 234.72,39.29 234.76,39.29 234.81,39.38 234.85,39.38 234.90,40.36 234.95,40.36 234.99,39.26 235.04,40.03 235.08,40.03 235.13,40.03 235.18,40.03 235.22,39.54 235.27,39.54 235.31,39.54 235.36,39.54 235.41,39.43 235.45,39.43 235.50,39.43 235.54,39.65 235.59,39.65 235.64,39.65 235.68,40.09 235.73,40.09 235.77,40.09 235.82,40.09 235.86,40.82 235.91,39.49 235.96,39.49 236.00,39.49 236.05,38.55 236.09,38.55 236.14,38.55 236.19,38.34 236.23,38.34 236.28,38.34 236.32,38.34 236.37,38.86 236.42,38.86 236.46,38.86 236.51,39.16 236.55,39.16 236.60,39.27 236.65,39.27 236.69,39.27 236.74,39.51 236.78,39.51 236.83,39.22 236.87,39.22 236.92,39.22 236.97,39.26 237.01,39.26 237.06,39.26 237.10,38.91 237.15,38.91 237.20,39.76 237.24,39.76 237.29,39.76 237.33,40.08 237.38,39.08 237.43,39.08 237.47,39.08 237.52,38.93 237.56,38.93 237.61,38.93 237.66,38.93 237.70,39.59 237.75,39.59 237.79,39.59 237.84,39.59 237.88,38.98 237.93,38.98 237.98,38.98 238.02,39.24 238.07,38.54 238.11,38.54 238.16,38.54 238.21,39.03 238.25,39.03 238.30,38.46 238.34,38.89 238.39,38.89 238.44,38.99 238.48,38.99 238.53,38.99 238.57,39.06 238.62,39.06 238.66,38.64 238.71,38.64 238.76,39.53 238.80,39.53 238.85,38.62 238.89,38.62 238.94,38.62 238.99,39.24 239.03,39.24 239.08,39.24 239.12,39.24 239.17,39.57 239.22,39.57 239.26,39.57 239.31,38.44 239.35,38.44 239.40,38.82 239.45,38.28 239.49,38.28 239.54,38.28 239.58,37.90 239.63,37.90 239.67,37.90 239.72,37.43 239.77,38.27 239.81,38.27 239.86,38.27 239.90,38.27 239.95,38.42 240.00,38.42 240.04,37.72 240.09,38.32 240.13,38.32 240.18,37.32 240.23,37.32 240.27,36.86 240.32,36.86 240.36,36.86 240.41,36.68 240.46,36.96 240.50,36.96 240.55,36.96 240.59,36.55 240.64,36.55 240.68,36.91 240.73,36.78 240.78,36.78 240.82,36.78 240.87,36.74 240.91,36.74 240.96,36.74 241.01,36.64 241.05,36.64 241.10,36.64 241.14,36.68 241.19,35.20 241.24,35.20 241.28,35.48 241.33,35.48 241.37,35.98 241.42,35.98 241.47,35.98 241.51,36.49 241.56,36.49 241.60,37.27 241.65,37.27 241.69,37.27 241.74,36.69 241.79,36.69 241.83,36.69 241.88,36.57 241.92,36.57 241.97,37.63 242.02,37.14 242.06,37.14 242.11,36.94 242.15,36.94 242.20,36.94 242.25,36.94 242.29,36.32 242.34,37.34 242.38,37.34 242.43,36.79 242.48,36.79 242.52,36.79 242.57,36.90 242.61,36.90 242.66,36.90 242.70,36.90 242.75,36.14 242.80,36.14 242.84,36.14 242.89,36.14 242.93,36.08 242.98,35.39 243.03,35.39 243.07,35.66 243.12,35.66 243.16,35.66 243.21,35.12 243.26,34.93 243.30,34.93 243.35,34.93 243.39,34.49 243.44,34.49 243.48,34.49 243.53,34.49 243.58,34.38 243.62,34.38 243.67,34.38 243.71,34.38 243.76,34.28 243.81,34.28 243.85,34.28 243.90,34.28 243.94,34.28 243.99,34.28 244.04,34.28 244.08,34.28 244.13,34.14 244.17,34.14 244.22,34.14 244.27,33.47 244.31,33.47 244.36,33.47 244.40,33.61 244.45,33.22 244.49,33.22 244.54,33.22 244.59,32.98 244.63,32.98 244.68,32.98 244.72,32.73 244.77,32.73 244.82,32.73 244.86,32.21 244.91,32.21 244.95,32.28 245.00,32.28 245.05,32.28 245.09,32.27 245.14,32.27 245.18,32.53 245.23,32.53 245.28,32.11 245.32,32.37 245.37,32.37 245.41,32.37 245.46,32.58 245.50,32.58 245.55,32.58 245.60,32.40 245.64,32.40 245.69,32.40 245.73,32.88 245.78,32.88 245.83,32.88 245.87,33.22 245.92,32.15 245.96,32.66 246.01,32.66 246.06,32.66 246.10,32.99 246.15,32.99 246.19,33.19 246.24,33.19 246.29,33.19 246.33,33.03 246.38,33.03 246.42,33.03 246.47,33.96 246.51,33.96 246.56,33.69 246.61,33.69 246.65,33.69 246.70,33.34 246.74,33.34 246.79,34.22 246.84,34.00 246.88,34.00 246.93,34.00 246.97,34.00 247.02,33.95 247.07,33.95 247.11,33.30 247.16,33.67 247.20,33.67 247.25,33.67 247.30,33.67 247.34,34.48 247.39,34.48 247.43,34.48 247.48,34.03 247.52,34.03 247.57,34.35 247.62,33.68 247.66,33.68 247.71,33.68 247.75,33.62 247.80,33.62 247.85,33.97 247.89,33.97 247.94,34.61 247.98,34.61 248.03,33.90 248.08,33.90 248.12,33.97 248.17,33.97 248.21,33.97 248.26,34.21 248.30,34.21 248.35,34.21 248.40,34.72 248.44,34.72 248.49,34.72 248.53,34.35 248.58,34.35 248.63,34.35 248.67,34.35 248.72,34.39 248.76,34.39 248.81,34.39 248.86,35.02 248.90,35.02 248.95,35.02 248.99,34.39 249.04,34.39 249.09,34.56 249.13,34.56 249.18,34.56 249.22,34.82 249.27,34.82 249.31,34.82 249.36,34.86 249.41,34.86 249.45,34.86 249.50,35.07 249.54,35.07 249.59,35.07 249.64,34.34 249.68,34.69 249.73,34.69 249.77,34.69 249.82,34.22 249.87,34.22 249.91,34.22 249.96,34.17 250.00,34.17 250.05,34.17 250.10,34.17 250.14,35.01 250.19,35.01 250.23,34.11 250.28,34.20 250.32,34.20 250.37,34.20 250.42,34.37 250.46,34.37 250.51,34.37 250.55,34.39 250.60,34.39 250.65,34.71 250.69,34.71 250.74,34.71 250.78,34.76 250.83,34.76 250.88,34.47 250.92,34.47 250.97,34.47 251.01,34.44 251.06,34.44 251.11,34.44 251.15,35.06 251.20,35.06 251.24,35.67 251.29,35.67 251.33,34.60 251.38,35.16 251.43,35.16 251.47,35.16 251.52,35.69 251.56,34.53 251.61,34.53 251.66,34.53 251.70,33.67 251.75,33.67 251.79,33.67 251.84,33.67 251.89,34.40 251.93,34.40 251.98,34.40 252.02,34.36 252.07,34.36 252.12,35.20 252.16,35.20 252.21,35.76 252.25,35.76 252.30,34.80 252.34,35.56 252.39,35.56 252.44,35.56 252.48,36.47 252.53,35.35 252.57,35.35 252.62,35.35 252.67,34.47 252.71,34.27 252.76,34.27 252.80,34.27 252.85,35.52 252.90,35.52 252.94,35.52 252.99,35.52 253.03,35.90 253.08,35.90 253.12,35.90 253.17,36.47 253.22,36.47 253.26,36.47 253.31,37.01 253.35,35.78 253.40,35.78 253.45,36.53 253.49,36.53 253.54,35.67 253.58,35.67 253.63,35.67 253.68,35.39 253.72,35.39 253.77,35.39 253.81,35.92 253.86,35.92 253.91,36.59 253.95,36.59 254.00,36.97 254.04,37.35 254.09,37.35 254.13,37.35 254.18,37.71 254.23,37.71 254.27,37.71 254.32,37.71 254.36,37.75 254.41,37.75 254.46,37.75 254.50,37.76 254.55,37.76 254.59,37.76 254.64,38.05 254.69,38.05 254.73,38.05 254.78,38.29 254.82,38.29 254.87,38.29 254.92,38.29 254.96,38.21 255.01,38.21 255.05,38.21 255.10,38.11 255.14,38.11 255.19,38.11 255.24,38.80 255.28,38.80 255.33,38.80 255.37,38.66 255.42,38.66 255.47,38.66 255.51,38.39 255.56,38.39 255.60,38.39 255.65,39.03 255.70,38.93 255.74,38.93 255.79,38.93 255.83,38.49 255.88,38.49 255.93,39.17 255.97,38.58 256.02,38.58 256.06,38.58 256.11,38.58 256.15,39.04 256.20,39.04 256.25,39.04 256.29,39.06 256.34,39.06 256.38,39.06 256.43,39.21 256.48,39.21 256.52,39.21 256.57,39.21 256.61,38.87 256.66,38.87 256.71,38.87 256.75,39.70 256.80,39.70 256.84,39.70 256.89,39.70 256.94,39.75 256.98,39.75 257.03,39.75 257.07,39.98 257.12,39.98 257.16,39.37 257.21,39.37 257.26,39.37 257.30,39.77 257.35,39.77 257.39,39.77 257.44,39.38 257.49,39.38 257.53,39.38 257.58,38.83 257.62,38.97 257.67,38.97 257.72,38.97 257.76,38.18 257.81,38.18 257.85,38.18 257.90,38.49 257.94,38.49 257.99,38.77 258.04,39.43 258.08,39.43 258.13,39.43 258.17,39.39 258.22,39.39 258.27,39.39 258.31,40.08 258.36,39.78 258.40,39.78 258.45,39.78 258.50,39.42 258.54,40.03 258.59,40.03 258.63,39.82 258.68,39.82 258.73,39.82 258.77,39.50 258.82,39.50 258.86,39.50 258.91,39.14 258.95,39.14 259.00,39.76 259.05,39.76 259.09,39.76 259.14,39.81 259.18,39.81 259.23,39.81 259.28,39.74 259.32,39.82 259.37,39.82 259.41,39.71 259.46,39.71 259.51,39.71 259.55,39.49 259.60,39.49 259.64,39.49 259.69,39.49 259.74,39.47 259.78,39.47 259.83,39.47 259.87,39.47 259.92,39.43 259.96,39.43 260.01,39.43 260.06,39.13 260.10,39.13 260.15,39.40 260.19,39.32 260.24,39.32 260.29,39.32 260.33,39.16 260.38,39.16 260.42,39.16 260.47,38.94 260.52,39.06 260.56,39.06 260.61,39.08 260.65,39.08 260.70,39.13 260.75,39.13 260.79,39.13 260.84,38.97 260.88,38.97 260.93,38.97 260.97,39.00 261.02,39.00 261.07,39.00 261.11,38.90 261.16,38.90 261.20,38.67 261.25,38.67 261.30,38.56 261.34,38.61 261.39,38.61 261.43,38.61 261.48,38.67 261.53,38.67 261.57,38.66 261.62,38.66 261.66,38.02 261.71,38.58 261.76,38.58 261.80,38.58 261.85,38.58 261.89,38.51 261.94,38.51 261.98,38.51 262.03,38.58 262.08,38.58 262.12,38.47 262.17,38.52 262.21,38.52 262.26,38.52 262.31,38.52 262.35,38.34 262.40,38.34 262.44,38.34 262.49,38.43 262.54,38.30 262.58,38.30 262.63,38.30 262.67,38.32 262.72,38.32 262.76,37.90 262.81,38.07 262.86,38.07 262.90,38.07 262.95,38.07 262.99,38.10 263.04,38.10 263.09,37.60 263.13,37.87 263.18,37.87 263.22,37.87 263.27,37.95 263.32,37.95 263.36,37.95 263.41,37.66 263.45,37.82 263.50,37.82 263.55,37.82 263.59,37.81 263.64,37.81 263.68,37.81 263.73,37.73 263.77,37.65 263.82,37.65 263.87,37.65 263.91,37.63 263.96,37.63 264.00,37.52 264.05,37.53 264.10,37.53 264.14,37.53 264.19,37.43 264.23,37.43 264.28,37.43 264.33,37.43 264.37,37.32 264.42,37.32 264.46,37.32 264.51,37.04 264.56,37.04 264.60,37.04 264.65,37.14 264.69,37.14 264.74,37.30 264.78,37.21 264.83,37.21 264.88,37.21 264.92,37.13 264.97,37.07 265.01,37.07 265.06,36.91 265.11,36.91 265.15,36.91 265.20,36.86 265.24,36.86 265.29,36.43 265.34,36.43 265.38,36.77 265.43,36.77 265.47,36.46 265.52,36.46 265.57,36.46 265.61,36.58 265.66,36.31 265.70,36.31 265.75,36.31 265.79,36.41 265.84,36.23 265.89,36.23 265.93,36.23 265.98,36.23 266.02,36.23 266.07,36.20 266.12,36.20 266.16,36.20 266.21,36.20 266.25,36.12 266.30,36.12 266.35,36.12 266.39,36.00 266.44,36.00 266.48,35.67 266.53,35.70 266.58,35.70 266.62,35.70 266.67,35.70 266.71,35.70 266.76,35.70 266.80,35.45 266.85,35.45 266.90,35.45 266.94,35.45 266.99,35.33 267.03,35.33 267.08,35.33 267.13,35.33 267.17,35.23 267.22,35.23 267.26,35.23 267.31,35.24 267.36,35.24 267.40,35.24 267.45,35.10 267.49,34.93 267.54,34.93 267.58,34.83 267.63,34.83 267.68,34.83 267.72,34.69 267.77,34.69 267.81,34.69 267.86,34.82 267.91,34.62 267.95,34.62 268.00,34.62 268.04,34.45 268.09,34.45 268.14,33.72 268.18,33.72 268.23,33.72 268.27,32.69 268.32,32.69 268.37,32.69 268.41,33.01 268.46,32.09 268.50,32.09 268.55,32.09 268.59,32.91 268.64,32.91 268.69,32.91 268.73,32.93 268.78,32.93 268.82,32.93 268.87,31.96 268.92,31.96 268.96,31.96 269.01,32.13 269.05,32.13 269.10,32.13 269.15,32.64 269.19,32.64 269.24,32.64 269.28,31.88 269.33,32.71 269.38,32.71 269.42,31.70 269.47,31.70 269.51,31.70 269.56,32.28 269.60,31.60 269.65,31.60 269.70,31.60 269.74,32.83 269.79,32.43 269.83,32.43 269.88,32.43 269.93,31.71 269.97,31.71 270.02,30.59 270.06,30.59 270.11,30.96 270.16,30.96 270.20,30.49 270.25,30.49 270.29,31.60 270.34,31.60 270.39,31.60 270.43,31.51 270.48,31.51 270.52,31.52 270.57,31.52 270.61,31.52 270.66,31.96 270.71,31.96 270.75,32.76 270.80,32.76 270.84,32.76 270.89,31.77 270.94,31.77 270.98,31.77 271.03,31.49 271.07,31.49 271.12,31.49 271.17,31.42 271.21,31.42 271.26,31.42 271.30,30.58 271.35,30.58 271.40,30.58 271.44,30.68 271.49,30.68 271.53,30.68 271.58,31.30 271.62,31.30 271.67,32.37 271.72,31.76 271.76,31.76 271.81,31.76 271.85,30.67 271.90,30.67 271.95,30.67 271.99,29.30 272.04,29.30 272.08,28.53 272.13,28.53 272.18,28.53 272.22,28.07 272.27,28.07 272.31,29.19 272.36,29.19 272.40,29.19 272.45,29.41 272.50,29.41 272.54,29.41 272.59,29.41 272.63,30.40 272.68,30.40 272.73,30.40 272.77,30.20 272.82,30.20 272.86,30.20 272.91,30.01 272.96,30.01 273.00,30.01 273.05,29.62 273.09,29.62 273.14,29.62 273.19,29.10 273.23,29.10 273.28,29.10 273.32,29.10 273.37,28.55 273.41,28.55 273.46,28.55 273.51,27.78 273.55,27.78 273.60,27.78 273.64,27.21 273.69,27.21 273.74,27.21 273.78,27.21 273.83,25.93 273.87,25.93 273.92,25.46 273.97,25.46 274.01,25.46 274.06,25.46 274.10,24.81 274.15,24.81 274.20,24.81 274.24,24.81 274.29,25.30 274.33,25.30 274.38,25.30 274.42,25.30 274.47,24.86 274.52,25.82 274.56,25.82 274.61,25.88 274.65,25.88 274.70,26.23 274.75,26.23 274.79,26.23 274.84,27.06 274.88,26.62 274.93,26.62 274.98,27.57 275.02,27.57 275.07,26.71 275.11,26.71 275.16,26.71 275.21,27.70 275.25,26.78 275.30,26.78 275.34,26.78 275.39,25.86 275.43,25.86 275.48,25.86 275.53,25.40 275.57,25.40 275.62,25.40 275.66,25.21 275.71,25.21 275.76,25.21 275.80,24.36 275.85,24.76 275.89,24.76 275.94,24.76 275.99,24.54 276.03,24.54 276.08,24.54 276.12,24.67 276.17,24.67 276.22,24.67 276.26,23.93 276.31,23.78 276.35,23.78 276.40,23.78 276.44,23.36 276.49,23.36 276.54,23.36 276.58,22.88 276.63,22.88 276.67,22.88 276.72,22.75 276.77,22.75 276.81,23.20 276.86,23.20 276.90,23.20 276.95,23.81 277.00,23.24 277.04,23.24 277.09,23.24 277.13,23.57 277.18,22.76 277.22,22.76 277.27,23.02 277.32,23.02 277.36,23.02 277.41,22.84 277.45,22.84 277.50,22.84 277.55,22.50 277.59,22.50 277.64,22.50 277.68,22.50 277.73,21.90 277.78,21.90 277.82,21.90 277.87,21.39 277.91,21.39 277.96,20.75 278.01,20.99 278.05,20.99 278.10,20.99 278.14,20.60 278.19,20.88 278.23,20.88 278.28,20.88 278.33,21.59 278.37,21.59 278.42,21.59 278.46,21.44 278.51,21.44 278.56,21.44 278.60,22.16 278.65,21.10 278.69,21.10 278.74,21.10 278.79,21.86 278.83,20.87 278.88,20.87 278.92,20.87 278.97,20.87 279.02,19.04 279.06,19.04 279.11,19.04 279.15,18.31 279.20,18.31 279.24,17.59 279.29,17.59 279.34,17.59 279.38,17.37 279.43,17.37 279.47,17.37 279.52,18.09 279.57,18.09 279.61,18.09 279.66,18.09 279.70,19.02 279.75,19.02 279.80,19.02 279.84,19.33 279.89,19.33 279.93,19.33 279.98,19.33 280.03,19.04 280.07,19.04 280.12,19.04 280.16,18.57 280.21,18.57 280.25,18.84 280.30,18.84 280.35,18.84 280.39,18.19 280.44,18.19 280.48,18.19 280.53,18.15 280.58,18.15 280.62,18.42 280.67,18.42 280.71,18.42 280.76,18.68 280.81,18.68 280.85,18.23 280.90,18.23 280.94,18.11 280.99,18.11 281.04,17.63 281.08,17.56 281.13,17.56 281.17,17.56 281.22,17.55 281.26,17.55 281.31,17.55 281.36,17.76 281.40,17.76 281.45,17.60 281.49,17.60 281.54,17.60 281.59,16.89 281.63,16.89 281.68,16.89 281.72,16.08 281.77,16.08 281.82,16.08 281.86,15.42 281.91,16.13 281.95,16.13 282.00,16.13 282.04,16.44 282.09,16.44 282.14,16.44 282.18,16.63 282.23,16.63 282.27,16.50 282.32,16.50 282.37,16.50 282.41,16.37 282.46,16.37 282.50,16.37 282.55,16.41 282.60,16.41 282.64,16.57 282.69,16.57 282.73,16.57 282.78,16.51 282.83,16.51 282.87,15.75 282.92,15.82 282.96,15.82 283.01,15.82 283.05,15.13 283.10,15.10 283.15,15.10 283.19,14.54 283.24,14.54 283.28,14.41 283.33,14.41 283.38,14.41 283.42,13.83 283.47,13.83 283.51,12.97 283.56,12.97 283.61,13.01 283.65,13.01 283.70,13.01 283.74,12.98 283.79,13.80 283.84,13.80 283.88,12.76 283.93,12.76 283.97,12.76 284.02,13.63 284.06,12.23 284.11,12.23 284.16,12.76 284.20,12.76 284.25,12.76 284.29,13.53 284.34,13.09 284.39,13.09 284.43,13.09 284.48,13.09 284.52,13.75 284.57,13.75 284.62,13.75 284.66,12.92 284.71,12.92 284.75,12.92 284.80,12.26 284.85,12.26 284.89,12.26 284.94,11.77 284.98,10.87 285.03,10.87 285.07,11.79 285.12,11.79 285.17,11.79 285.21,13.30 285.26,13.30 285.30,13.14 285.35,13.14 285.40,13.14 285.44,12.98 285.49,12.98 285.53,12.98 285.58,13.46 285.63,11.99 285.67,12.14 285.72,12.14 285.76,12.14 285.81,11.94 285.86,11.94 285.90,11.48 285.95,11.48 285.99,11.48 286.04,11.42 286.08,11.42 286.13,12.70 286.18,11.66 286.22,11.66 286.27,11.56 286.31,11.56 286.36,11.56 286.41,10.92 286.45,10.92 286.50,10.92 286.54,9.95 286.59,9.95 286.64,9.95 286.68,10.63 286.73,9.36 286.77,9.36 286.82,9.59 286.86,9.59 286.91,9.59 286.96,9.54 287.00,9.54 287.05,9.54 287.09,9.43 287.14,9.43 287.19,9.43 287.23,8.80 287.28,9.19 287.32,9.19 287.37,9.43 287.42,9.43 287.46,9.43 287.51,10.28 287.55,10.21 287.60,10.21 287.65,10.21 287.69,9.90 287.74,9.90 287.78,9.90 287.83,9.47 287.87,9.47 287.92,9.47 287.97,8.88 288.01,8.88 288.06,9.79 288.10,9.79 288.15,9.50 288.20,9.50 288.24,9.50 288.29,8.98 288.33,8.98 288.38,8.98 288.43,8.36 288.47,9.00 288.52,9.00 288.56,8.66 288.61,8.66 288.66,8.66 288.70,8.66 288.75,8.51 288.79,8.51 288.84,8.51 288.88,8.35 288.93,8.35 288.98,8.35 289.02,8.09 289.07,8.09 289.11,8.09 289.16,8.09 289.21,8.09 289.25,8.09 289.30,7.89 289.34,7.89 289.39,8.77 289.44,8.77 289.48,7.85 289.53,7.85 289.57,7.85 289.62,7.08 289.67,7.08 289.71,7.08 289.76,7.08 289.80,6.81 289.85,6.81 289.89,7.61 289.94,7.14 289.99,7.14 290.03,7.14 290.08,6.49 290.12,6.49 290.17,6.49 290.22,7.35 290.26,6.82 290.31,6.82 290.35,6.82 290.40,6.31 290.45,6.31 290.49,6.31 290.54,5.92 290.58,5.92 290.63,6.58 290.68,6.58 290.72,5.68 290.77,5.68 290.81,6.38 290.86,5.64 290.90,5.64 290.95,5.64 291.00,5.64 291.04,5.45 291.09,5.45 291.13,5.45 291.18,5.45 291.23,4.88 291.27,4.88 291.32,4.43 291.36,5.40 291.41,5.40 291.46,5.40 291.50,5.09 291.55,5.09 291.59,5.09 291.64,5.45 291.68,5.45 291.73,5.45 291.78,4.48 291.82,4.48 291.87,5.54 291.91,5.54 291.96,5.03 292.01,5.03 292.05,5.03 292.10,5.90 292.14,5.90 292.19,5.90 292.24,5.61 292.28,5.61 292.33,5.37 292.37,6.10 292.42,6.10 292.47,6.10 292.51,5.65 292.56,5.65 292.60,6.07 292.65,6.07 292.69,5.67 292.74,5.67 292.79,6.16 292.83,6.16 292.88,5.78 292.92,5.78 292.97,6.17 293.02,5.70 293.06,5.70 293.11,5.70 293.15,5.86 293.20,5.37 293.25,5.37 293.29,5.37 293.34,5.39 293.38,5.39 293.43,5.39 293.48,5.28 293.52,5.28 293.57,5.28 293.61,5.14 293.66,5.14 293.70,5.14 293.75,4.96 293.80,4.96 293.84,4.96 293.89,4.62 293.93,4.62 293.98,4.62 294.03,4.03 294.07,4.64 294.12,4.64 294.16,4.64 294.21,4.40 294.26,4.40 294.30,5.43 294.35,5.98 294.39,5.98 294.44,5.98 294.49,6.12 294.53,6.12 294.58,6.12 294.62,6.12 294.67,5.34 294.71,5.34 294.76,5.34 294.81,4.45 294.85,5.45 294.90,5.45 294.94,5.45 294.99,6.25 295.04,4.88 295.08,4.88 295.13,5.60 295.17,5.60 295.22,4.54 295.27,4.54 295.31,5.54 295.36,5.54 295.40,5.05 295.45,5.05 295.50,5.05 295.54,6.11 295.59,5.61 295.63,5.61 295.68,5.61 295.72,4.87 295.77,5.53 295.82,5.53 295.86,5.53 295.91,5.15 295.95,5.36 296.00,5.36" />
</svg>