<svg width="300" height="60" xmlns="http://www.w3.org/2000/svg">
  <polyline fill="rgba(255,200,0,0.3)" stroke="#ffbb00" stroke-width="2" points="4.00,50.63 7.36,46.05 10.71,41.12 14.07,39.53 17.43,34.32 20.78,31.79 24.14,32.62 27.49,36.33 30.85,39.57 34.21,40.17 37.56,40.81 40.92,38.49 44.28,36.80 47.63,34.55 50.99,32.48 54.34,31.14 57.70,31.01 61.06,32.21 64.41,33.83 67.77,36.30 71.13,39.15 74.48,47.89 77.84,50.58 81.20,44.93 84.55,41.67 87.91,38.51 91.26,37.51 94.62,34.89 97.98,35.44 101.33,43.92 104.69,43.64 108.05,42.27 111.40,42.58 114.76,41.76 118.11,38.18 121.47,35.18 124.83,33.67 128.18,30.96 131.54,33.29 134.90,33.02 138.25,34.72 141.61,36.79 144.97,39.54 148.32,48.33 151.68,48.96 155.03,43.32 158.39,45.39 161.75,36.58 165.10,34.79 168.46,41.26 171.82,41.81 175.17,44.01 178.53,44.01 181.89,43.30 185.24,41.65 188.60,41.79 191.95,40.14 195.31,35.74 198.67,29.96 202.02,24.46 205.38,39.73 208.74,36.49 212.09,35.11 215.45,35.80 218.80,38.41 222.16,47.63 225.52,36.69 228.87,41.09 232.23,41.09 235.59,41.09 238.94,4.00 242.30,56.00 245.66,56.00 249.01,42.93 252.37,42.93 255.72,42.93 259.08,42.93 262.44,38.80 265.79,38.80 269.15,38.80 272.51,29.86 275.86,29.86 279.22,29.86 282.57,27.94 285.93,27.94 289.29,27.94 292.64,46.10 296.00,46.10" />
</svg>