<svg width="300" height="60" xmlns="http://www.w3.org/2000/svg">
  <polyline fill="rgba(255,200,0,0.3)" stroke="#ffbb00" stroke-width="2" points="4.00,55.73 4.05,55.83 4.11,55.87 4.16,55.97 4.22,55.95 4.27,55.83 4.32,55.84 4.38,55.87 4.43,55.75 4.48,55.74 4.54,55.72 4.59,55.65 4.65,55.53 4.70,55.42 4.75,55.32 4.81,55.23 4.86,55.12 4.92,55.00 4.97,54.91 5.02,54.89 5.08,54.88 5.13,54.97 5.18,54.83 5.24,54.70 5.29,54.49 5.35,54.37 5.40,54.28 5.45,54.13 5.51,53.94 5.56,53.63 5.61,53.40 5.67,53.39 5.72,53.30 5.78,53.22 5.83,53.07 5.88,52.92 5.94,52.81 5.99,52.70 6.05,52.58 6.10,52.49 6.15,52.41 6.21,52.31 6.26,52.21 6.31,52.17 6.37,52.31 6.42,52.24 6.48,52.23 6.53,52.02 6.58,51.60 6.64,51.48 6.69,51.35 6.75,51.26 6.80,51.16 6.85,51.08 6.91,51.01 6.96,50.75 7.01,50.38 7.07,50.04 7.12,49.70 7.18,49.51 7.23,49.34 7.28,49.14 7.34,49.00 7.39,48.97 7.44,49.07 7.50,49.20 7.55,49.36 7.61,49.53 7.66,49.53 7.71,49.44 7.77,49.44 7.82,49.36 7.88,49.14 7.93,49.03 7.98,48.95 8.04,48.86 8.09,48.61 8.14,48.68 8.20,48.63 8.25,48.52 8.31,48.39 8.36,48.25 8.41,48.15 8.47,48.05 8.52,48.26 8.58,48.43 8.63,48.16 8.68,47.76 8.74,47.50 8.79,47.63 8.84,47.74 8.90,47.73 8.95,47.41 9.01,47.26 9.06,47.07 9.11,47.03 9.17,46.84 9.22,46.30 9.27,45.92 9.33,45.32 9.38,45.05 9.44,45.07 9.49,45.31 9.54,45.39 9.60,45.26 9.65,45.05 9.71,44.72 9.76,44.41 9.81,44.37 9.87,44.41 9.92,44.24 9.97,43.91 10.03,43.78 10.08,44.08 10.14,44.15 10.19,44.21 10.24,44.09 10.30,43.99 10.35,43.89 10.41,43.84 10.46,43.80 10.51,43.71 10.57,43.53 10.62,43.17 10.67,43.03 10.73,42.87 10.78,42.87 10.84,43.10 10.89,43.41 10.94,43.38 11.00,43.58 11.05,43.72 11.10,43.78 11.16,43.65 11.21,43.64 11.27,43.41 11.32,43.18 11.37,43.14 11.43,43.17 11.48,43.25 11.54,43.32 11.59,43.39 11.64,43.45 11.70,43.42 11.75,43.60 11.80,43.68 11.86,43.75 11.91,43.81 11.97,43.83 12.02,43.89 12.07,43.90 12.13,43.87 12.18,43.72 12.24,43.86 12.29,43.90 12.34,43.98 12.40,43.95 12.45,43.98 12.50,43.91 12.56,43.73 12.61,43.60 12.67,43.72 12.72,43.86 12.77,43.86 12.83,43.75 12.88,43.71 12.93,43.68 12.99,43.63 13.04,43.56 13.10,43.54 13.15,43.49 13.20,43.35 13.26,43.31 13.31,43.29 13.37,43.23 13.42,43.20 13.47,43.17 13.53,43.14 13.58,43.11 13.63,43.08 13.69,43.01 13.74,42.78 13.80,42.52 13.85,42.30 13.90,42.13 13.96,42.28 14.01,42.39 14.07,42.54 14.12,42.29 14.17,41.97 14.23,42.03 14.28,41.96 14.33,42.08 14.39,42.03 14.44,41.69 14.50,41.44 14.55,41.19 14.60,40.92 14.66,40.51 14.71,39.91 14.76,39.62 14.82,39.61 14.87,39.84 14.93,40.09 14.98,40.17 15.03,55.74 15.09,55.83 15.14,55.87 15.20,55.97 15.25,55.93 15.30,55.83 15.36,55.83 15.41,55.87 15.46,55.75 15.52,55.75 15.57,55.72 15.63,55.64 15.68,55.52 15.73,55.42 15.79,55.32 15.84,55.25 15.90,55.12 15.95,55.00 16.00,54.91 16.06,54.88 16.11,54.90 16.16,54.97 16.22,54.91 16.27,54.61 16.33,54.47 16.38,54.36 16.43,54.27 16.49,54.13 16.54,53.97 16.60,53.61 16.65,53.47 16.70,53.45 16.76,53.30 16.81,53.21 16.86,53.07 16.92,52.93 16.97,52.82 17.03,52.68 17.08,52.59 17.13,52.50 17.19,52.41 17.24,52.30 17.29,52.21 17.35,52.15 17.40,52.31 17.46,52.23 17.51,52.22 17.56,52.03 17.62,51.61 17.67,51.48 17.73,51.35 17.78,51.26 17.83,51.17 17.89,51.09 17.94,51.01 17.99,50.77 18.05,50.36 18.10,50.03 18.16,49.75 18.21,49.52 18.26,49.32 18.32,49.16 18.37,49.00 18.43,48.98 18.48,49.07 18.53,49.23 18.59,49.37 18.64,49.52 18.69,49.53 18.75,49.43 18.80,49.44 18.86,49.39 18.91,49.13 18.96,49.03 19.02,48.94 19.07,48.85 19.12,48.64 19.18,48.68 19.23,48.63 19.29,48.53 19.34,48.40 19.39,40.09 19.45,40.17 19.50,40.13 19.56,40.10 19.61,39.80 19.66,39.63 19.72,39.39 19.77,39.24 19.82,39.14 19.88,39.01 19.93,38.79 19.99,38.35 20.04,37.95 20.09,37.51 20.15,37.13 20.20,37.07 20.26,37.56 20.31,38.12 20.36,38.61 20.42,38.57 20.47,38.50 20.52,38.27 20.58,37.59 20.63,37.15 20.69,36.65 20.74,36.16 20.79,35.87 20.85,35.11 20.90,34.50 20.95,33.98 21.01,33.72 21.06,33.82 21.12,34.05 21.17,34.64 21.22,34.69 21.28,35.02 21.33,35.54 21.39,35.50 21.44,35.10 21.49,34.85 21.55,34.78 21.60,34.65 21.65,34.13 21.71,33.82 21.76,33.44 21.82,33.29 21.87,33.17 21.92,32.62 21.98,32.21 22.03,31.84 22.09,31.64 22.14,31.62 22.19,31.63 22.25,31.80 22.30,32.21 22.35,32.53 22.41,33.04 22.46,33.32 22.52,33.36 22.57,33.38 22.62,33.44 22.68,33.53 22.73,33.55 22.78,33.51 22.84,33.33 22.89,33.31 22.95,33.20 23.00,33.05 23.05,32.85 23.11,32.59 23.16,32.50 23.22,32.41 23.27,32.22 23.32,32.00 23.38,31.87 23.43,31.89 23.48,32.14 23.54,32.44 23.59,32.71 23.65,32.85 23.70,32.72 23.75,32.67 23.81,32.73 23.86,32.72 23.92,32.68 23.97,32.64 24.02,32.58 24.08,32.55 24.13,32.61 24.18,32.65 24.24,32.64 24.29,32.67 24.35,32.80 24.40,32.86 24.45,32.89 24.51,32.86 24.56,32.80 24.61,32.70 24.67,32.64 24.72,32.61 24.78,32.58 24.83,32.57 24.88,32.57 24.94,32.52 24.99,32.51 25.05,32.53 25.10,32.49 25.15,32.45 25.21,32.43 25.26,32.41 25.31,32.38 25.37,32.33 25.42,32.26 25.48,32.29 25.53,32.23 25.58,32.20 25.64,32.14 25.69,32.07 25.75,31.97 25.80,31.97 25.85,32.02 25.91,31.99 25.96,31.94 26.01,31.81 26.07,31.78 26.12,31.75 26.18,31.60 26.23,31.54 26.28,31.46 26.34,31.39 26.39,31.26 26.44,31.25 26.50,31.17 26.55,31.14 26.61,31.11 26.66,31.13 26.71,31.03 26.77,30.75 26.82,30.55 26.88,30.31 26.93,30.16 26.98,29.98 27.04,29.75 27.09,29.59 27.14,29.39 27.20,29.20 27.25,29.16 27.31,29.12 27.36,29.16 27.41,29.00 27.47,28.84 27.52,28.81 27.58,28.70 27.63,28.54 27.68,28.46 27.74,28.21 27.79,28.01 27.84,27.78 27.90,27.62 27.95,27.50 28.01,27.52 28.06,27.62 28.11,27.82 28.17,28.06 28.22,28.20 28.28,28.13 28.33,27.93 28.38,27.72 28.44,27.57 28.49,27.61 28.54,27.61 28.60,27.56 28.65,27.44 28.71,27.33 28.76,27.16 28.81,26.96 28.87,26.93 28.92,26.85 28.97,26.78 29.03,26.52 29.08,26.33 29.14,26.11 29.19,25.89 29.24,25.72 29.30,25.58 29.35,25.41 29.41,25.26 29.46,25.15 29.51,25.08 29.57,25.00 29.62,24.96 29.67,25.03 29.73,25.09 29.78,25.00 29.84,24.85 29.89,24.59 29.94,24.41 30.00,24.41 30.05,24.50 30.11,24.61 30.16,24.51 30.21,24.38 30.27,24.23 30.32,24.16 30.37,24.04 30.43,23.87 30.48,23.81 30.54,23.75 30.59,23.67 30.64,23.60 30.70,23.49 30.75,23.45 30.80,23.39 30.86,23.32 30.91,23.28 30.97,23.25 31.02,23.21 31.07,23.18 31.13,23.15 31.18,23.11 31.24,23.03 31.29,23.28 31.34,23.43 31.40,23.38 31.45,23.12 31.50,22.80 31.56,22.98 31.61,23.16 31.67,23.20 31.72,23.15 31.77,23.02 31.83,22.83 31.88,22.82 31.94,22.99 31.99,23.18 32.04,23.02 32.10,22.71 32.15,22.55 32.20,22.41 32.26,22.23 32.31,22.03 32.37,21.96 32.42,22.00 32.47,22.42 32.53,22.72 32.58,22.75 32.63,22.65 32.69,22.46 32.74,22.17 32.80,21.95 32.85,21.89 32.90,21.96 32.96,22.03 33.01,21.92 33.07,21.76 33.12,21.67 33.17,21.69 33.23,21.63 33.28,21.50 33.33,21.44 33.39,21.19 33.44,21.05 33.50,20.95 33.55,20.80 33.60,20.81 33.66,20.71 33.71,20.67 33.77,20.71 33.82,20.42 33.87,20.13 33.93,19.95 33.98,19.79 34.03,19.68 34.09,19.54 34.14,19.45 34.20,19.35 34.25,19.38 34.30,19.65 34.36,19.62 34.41,19.46 34.46,19.37 34.52,19.36 34.57,19.29 34.63,19.18 34.68,18.85 34.73,18.38 34.79,18.07 34.84,17.49 34.90,17.38 34.95,17.70 35.00,17.96 35.06,18.22 35.11,18.10 35.16,17.99 35.22,17.95 35.27,17.76 35.33,17.75 35.38,17.85 35.43,17.83 35.49,17.80 35.54,17.85 35.60,17.78 35.65,17.80 35.70,17.89 35.76,18.01 35.81,18.16 35.86,18.21 35.92,18.07 35.97,17.81 36.03,17.78 36.08,17.77 36.13,17.71 36.19,17.48 36.24,17.19 36.29,16.99 36.35,17.03 36.40,17.02 36.46,17.09 36.51,17.04 36.56,16.88 36.62,16.62 36.67,16.41 36.73,16.25 36.78,16.35 36.83,16.60 36.89,16.80 36.94,17.07 36.99,17.19 37.05,17.14 37.10,16.94 37.16,16.71 37.21,16.73 37.26,16.72 37.32,16.76 37.37,16.77 37.43,16.93 37.48,16.89 37.53,16.75 37.59,16.69 37.64,16.53 37.69,16.59 37.75,16.61 37.80,16.70 37.86,16.73 37.91,16.89 37.96,17.05 38.02,17.19 38.07,17.19 38.12,17.11 38.18,17.19 38.23,17.11 38.29,17.20 38.34,17.14 38.39,17.12 38.45,16.89 38.50,16.90 38.56,17.16 38.61,17.27 38.66,17.33 38.72,17.17 38.77,17.13 38.82,17.05 38.88,16.79 38.93,16.74 38.99,16.73 39.04,16.78 39.09,16.86 39.15,16.88 39.20,17.02 39.26,17.29 39.31,17.33 39.36,17.55 39.42,17.61 39.47,17.56 39.52,17.38 39.58,17.24 39.63,17.11 39.69,17.07 39.74,16.86 39.79,16.75 39.85,16.71 39.90,16.67 39.96,16.70 40.01,16.74 40.06,16.77 40.12,16.77 40.17,16.73 40.22,16.66 40.28,16.48 40.33,16.30 40.39,16.19 40.44,16.03 40.49,15.94 40.55,15.90 40.60,15.89 40.65,15.87 40.71,15.86 40.76,15.87 40.82,15.86 40.87,15.82 40.92,15.67 40.98,15.62 41.03,15.59 41.09,15.65 41.14,15.69 41.19,15.63 41.25,15.53 41.30,15.51 41.35,15.44 41.41,15.43 41.46,15.43 41.52,15.37 41.57,15.32 41.62,15.24 41.68,15.16 41.73,15.18 41.79,15.35 41.84,15.38 41.89,15.34 41.95,15.27 42.00,15.23 42.05,15.02 42.11,14.75 42.16,14.62 42.22,14.44 42.27,14.57 42.32,14.64 42.38,14.69 42.43,14.66 42.48,14.51 42.54,14.55 42.59,14.56 42.65,14.64 42.70,14.99 42.75,15.14 42.81,15.01 42.86,14.65 42.92,14.56 42.97,14.54 43.02,14.69 43.08,14.82 43.13,14.63 43.18,14.43 43.24,14.38 43.29,14.43 43.35,14.78 43.40,14.96 43.45,15.05 43.51,14.80 43.56,14.63 43.62,14.77 43.67,14.88 43.72,14.74 43.78,14.55 43.83,14.51 43.88,14.32 43.94,14.18 43.99,14.20 44.05,14.35 44.10,14.41 44.15,14.49 44.21,14.53 44.26,14.50 44.31,14.57 44.37,14.56 44.42,14.54 44.48,14.47 44.53,14.42 44.58,14.37 44.64,14.28 44.69,14.17 44.75,14.07 44.80,14.01 44.85,13.96 44.91,13.92 44.96,13.86 45.01,13.74 45.07,13.62 45.12,13.50 45.18,13.40 45.23,13.31 45.28,13.23 45.34,13.10 45.39,12.97 45.45,12.81 45.50,12.75 45.55,12.74 45.61,12.74 45.66,12.78 45.71,12.83 45.77,12.88 45.82,12.91 45.88,12.96 45.93,12.98 45.98,13.00 46.04,13.08 46.09,13.06 46.14,13.00 46.20,12.90 46.25,12.85 46.31,12.86 46.36,12.87 46.41,12.87 46.47,12.92 46.52,13.02 46.58,13.10 46.63,13.17 46.68,13.21 46.74,13.21 46.79,13.16 46.84,13.00 46.90,12.84 46.95,12.72 47.01,12.67 47.06,12.51 47.11,12.43 47.17,12.25 47.22,12.09 47.28,12.08 47.33,11.99 47.38,11.85 47.44,11.71 47.49,11.55 47.54,11.20 47.60,10.99 47.65,10.78 47.71,10.50 47.76,10.46 47.81,10.45 47.87,10.30 47.92,10.00 47.97,9.84 48.03,9.68 48.08,9.46 48.14,9.44 48.19,9.51 48.24,9.45 48.30,9.33 48.35,9.22 48.41,9.11 48.46,9.19 48.51,9.22 48.57,9.09 48.62,9.02 48.67,9.06 48.73,9.08 48.78,9.11 48.84,9.09 48.89,9.04 48.94,8.99 49.00,8.95 49.05,8.83 49.11,8.71 49.16,8.44 49.21,8.20 49.27,7.94 49.32,7.74 49.37,7.65 49.43,7.55 49.48,7.51 49.54,7.43 49.59,7.44 49.64,7.40 49.70,7.19 49.75,7.11 49.80,7.01 49.86,6.93 49.91,6.89 49.97,6.86 50.02,6.80 50.07,6.86 50.13,6.81 50.18,6.69 50.24,6.51 50.29,6.47 50.34,6.38 50.40,6.29 50.45,6.21 50.50,6.09 50.56,5.99 50.61,5.93 50.67,5.90 50.72,5.79 50.77,5.57 50.83,5.47 50.88,5.33 50.94,5.32 50.99,5.27 51.04,5.56 51.10,5.75 51.15,5.79 51.20,5.90 51.26,5.98 51.31,6.01 51.37,6.04 51.42,6.03 51.47,6.09 51.53,5.92 51.58,5.83 51.64,5.74 51.69,5.76 51.74,5.87 51.80,5.83 51.85,5.81 51.90,5.73 51.96,5.89 52.01,5.77 52.07,5.49 52.12,5.31 52.17,5.34 52.23,5.51 52.28,6.00 52.33,6.01 52.39,5.68 52.44,5.47 52.50,5.77 52.55,6.08 52.60,6.14 52.66,6.09 52.71,5.99 52.77,6.10 52.82,6.10 52.87,6.12 52.93,6.10 52.98,5.94 53.03,6.00 53.09,6.10 53.14,6.21 53.20,6.22 53.25,6.31 53.30,6.38 53.36,6.41 53.41,6.43 53.47,6.41 53.52,6.38 53.57,6.33 53.63,6.30 53.68,6.29 53.73,6.29 53.79,6.18 53.84,6.08 53.90,5.94 53.95,5.93 54.00,5.82 54.06,5.70 54.11,5.82 54.16,5.80 54.22,5.79 54.27,5.84 54.33,5.95 54.38,6.02 54.43,6.02 54.49,6.02 54.54,6.08 54.60,6.12 54.65,6.36 54.70,6.28 54.76,6.20 54.81,6.19 54.86,6.15 54.92,6.16 54.97,6.25 55.03,6.32 55.08,6.47 55.13,6.49 55.19,6.70 55.24,6.90 55.30,7.38 55.35,7.61 55.40,7.17 55.46,7.05 55.51,6.97 55.56,6.99 55.62,7.00 55.67,7.11 55.73,7.23 55.78,7.34 55.83,7.39 55.89,7.58 55.94,7.82 55.99,7.95 56.05,8.11 56.10,8.19 56.16,7.97 56.21,8.07 56.26,8.23 56.32,8.26 56.37,8.25 56.43,8.34 56.48,8.47 56.53,8.65 56.59,8.90 56.64,9.18 56.69,9.29 56.75,9.33 56.80,9.42 56.86,9.49 56.91,9.54 56.96,9.58 57.02,9.57 57.07,9.56 57.13,9.76 57.18,9.97 57.23,10.09 57.29,10.21 57.34,10.28 57.39,10.36 57.45,10.35 57.50,10.34 57.56,10.34 57.61,10.30 57.66,10.41 57.72,10.56 57.77,10.60 57.82,10.71 57.88,10.93 57.93,11.29 57.99,11.45 58.04,11.55 58.09,11.64 58.15,11.65 58.20,11.73 58.26,11.81 58.31,11.93 58.36,12.01 58.42,12.07 58.47,11.96 58.52,11.89 58.58,11.91 58.63,11.94 58.69,12.12 58.74,12.25 58.79,12.34 58.85,12.46 58.90,12.65 58.96,12.82 59.01,12.90 59.06,13.00 59.12,13.05 59.17,13.11 59.22,13.19 59.28,13.20 59.33,13.29 59.39,13.31 59.44,13.32 59.49,13.32 59.55,13.34 59.60,13.35 59.65,13.31 59.71,13.32 59.76,13.30 59.82,13.29 59.87,13.31 59.92,13.38 59.98,13.34 60.03,13.31 60.09,13.25 60.14,13.16 60.19,13.05 60.25,12.96 60.30,12.78 60.35,12.59 60.41,12.42 60.46,12.21 60.52,12.02 60.57,11.89 60.62,11.71 60.68,11.47 60.73,11.26 60.79,11.08 60.84,10.90 60.89,10.73 60.95,10.68 61.00,10.53 61.05,10.53 61.11,10.45 61.16,10.52 61.22,10.57 61.27,10.64 61.32,10.42 61.38,10.38 61.43,10.27 61.48,10.03 61.54,9.75 61.59,9.52 61.65,9.44 61.70,9.30 61.75,9.13 61.81,8.97 61.86,8.84 61.92,8.83 61.97,8.74 62.02,8.62 62.08,8.52 62.13,8.38 62.18,8.23 62.24,8.06 62.29,7.87 62.35,7.72 62.40,7.59 62.45,7.47 62.51,7.34 62.56,7.21 62.62,7.09 62.67,6.96 62.72,6.83 62.78,6.67 62.83,6.54 62.88,6.51 62.94,6.49 62.99,6.50 63.05,6.59 63.10,6.57 63.15,6.33 63.21,6.22 63.26,6.19 63.32,6.18 63.37,6.23 63.42,6.38 63.48,6.50 63.53,6.59 63.58,6.68 63.64,6.67 63.69,6.63 63.75,6.57 63.80,6.47 63.85,6.47 63.91,6.52 63.96,6.62 64.01,6.81 64.07,6.82 64.12,6.85 64.18,7.00 64.23,7.02 64.28,6.93 64.34,6.80 64.39,6.77 64.45,6.79 64.50,6.77 64.55,6.69 64.61,6.66 64.66,6.70 64.71,6.81 64.77,6.97 64.82,6.94 64.88,6.90 64.93,6.91 64.98,6.91 65.04,6.87 65.09,6.82 65.15,6.77 65.20,6.73 65.25,6.68 65.31,6.64 65.36,6.67 65.41,6.70 65.47,6.78 65.52,6.85 65.58,6.87 65.63,6.87 65.68,6.88 65.74,6.87 65.79,6.84 65.84,6.77 65.90,6.75 65.95,6.68 66.01,6.50 66.06,6.26 66.11,6.01 66.17,5.76 66.22,5.63 66.28,5.58 66.33,48.40 66.38,48.24 66.44,48.16 66.49,48.06 66.54,48.22 66.60,48.43 66.65,48.19 66.71,47.76 66.76,47.51 66.81,47.60 66.87,47.79 66.92,47.77 66.98,47.41 67.03,47.23 67.08,47.06 67.14,47.02 67.19,46.85 67.24,46.30 67.30,45.86 67.35,45.33 67.41,45.08 67.46,45.02 67.51,45.29 67.57,45.39 67.62,45.24 67.67,45.01 67.73,44.71 67.78,44.40 67.84,44.36 67.89,44.38 67.94,44.22 68.00,43.88 68.05,43.85 68.11,44.08 68.16,44.15 68.21,44.17 68.27,44.12 68.32,43.98 68.37,43.89 68.43,43.84 68.48,43.79 68.54,43.68 68.59,43.55 68.64,43.15 68.70,43.04 68.75,42.88 68.81,42.85 68.86,43.15 68.91,43.41 68.97,43.38 69.02,43.56 69.07,43.76 69.13,43.75 69.18,43.69 69.24,43.59 69.29,43.43 69.34,43.18 69.40,43.14 69.45,43.16 69.50,43.25 69.56,43.33 69.61,43.39 69.67,43.46 69.72,43.48 69.77,43.60 69.83,43.68 69.88,43.74 69.94,43.81 69.99,43.80 70.04,43.89 70.10,43.90 70.15,43.85 70.20,43.74 70.26,43.86 70.31,43.95 70.37,43.97 70.42,43.96 70.47,44.00 70.53,43.91 70.58,43.72 70.64,43.61 70.69,43.71 70.74,43.86 70.80,43.84 70.85,43.76 70.90,43.72 70.96,43.67 71.01,43.63 71.07,43.57 71.12,43.54 71.17,43.49 71.23,43.40 71.28,43.32 71.33,43.29 71.39,43.22 71.44,43.20 71.50,43.17 71.55,43.14 71.60,43.12 71.66,43.08 71.71,43.00 71.77,42.79 71.82,42.54 71.87,42.31 71.93,42.14 71.98,42.27 72.03,42.38 72.09,42.57 72.14,42.27 72.20,42.00 72.25,42.03 72.30,41.97 72.36,42.08 72.41,42.03 72.47,41.72 72.52,41.44 72.57,41.13 72.63,40.92 72.68,40.43 72.73,39.91 72.79,39.61 72.84,39.63 72.90,39.81 72.95,40.09 73.00,40.13 73.06,40.14 73.11,40.09 73.16,39.83 73.22,39.59 73.27,39.39 73.33,39.20 73.38,39.15 73.43,39.04 73.49,38.78 73.54,38.37 73.60,37.94 73.65,37.49 73.70,37.13 73.76,37.08 73.81,37.56 73.86,38.11 73.92,38.61 73.97,38.55 74.03,38.52 74.08,38.24 74.13,37.58 74.19,37.08 74.24,36.70 74.30,36.14 74.35,35.85 74.40,35.13 74.46,34.54 74.51,34.00 74.56,33.74 74.62,33.82 74.67,34.08 74.73,34.65 74.78,34.72 74.83,35.04 74.89,35.54 74.94,35.46 75.00,35.12 75.05,34.90 75.10,34.78 75.16,34.62 75.21,34.12 75.26,33.76 75.32,33.51 75.37,33.29 75.43,33.15 75.48,32.63 75.53,32.19 75.59,31.83 75.64,31.66 75.69,31.61 75.75,31.64 75.80,31.82 75.86,32.22 75.91,32.52 75.96,33.02 76.02,33.32 76.07,33.36 76.13,33.38 76.18,33.44 76.23,33.53 76.29,33.54 76.34,33.52 76.39,33.34 76.45,33.30 76.50,33.20 76.56,33.04 76.61,32.84 76.66,32.60 76.72,32.49 76.77,32.40 76.83,32.23 76.88,32.00 76.93,31.85 76.99,31.89 77.04,32.14 77.09,32.43 77.15,32.71 77.20,32.85 77.26,32.72 77.31,32.67 77.36,32.73 77.42,32.73 77.47,32.67 77.52,32.64 77.58,32.59 77.63,32.56 77.69,32.61 77.74,32.64 77.79,32.64 77.85,32.66 77.90,32.82 77.96,32.85 78.01,32.90 78.06,32.85 78.12,32.79 78.17,32.70 78.22,32.65 78.28,32.61 78.33,32.57 78.39,32.58 78.44,32.57 78.49,32.52 78.55,32.51 78.60,32.53 78.66,32.49 78.71,32.45 78.76,32.43 78.82,32.41 78.87,32.39 78.92,32.33 78.98,32.27 79.03,32.30 79.09,32.22 79.14,32.20 79.19,32.14 79.25,32.06 79.30,31.97 79.35,31.97 79.41,32.02 79.46,32.00 79.52,31.94 79.57,31.79 79.62,31.77 79.68,31.73 79.73,31.59 79.79,31.53 79.84,31.46 79.89,31.38 79.95,31.25 80.00,31.24 80.05,31.17 80.11,31.13 80.16,31.11 80.22,31.13 80.27,31.03 80.32,30.75 80.38,30.55 80.43,30.32 80.49,30.15 80.54,29.97 80.59,29.78 80.65,29.57 80.70,29.36 80.75,29.21 80.81,29.14 80.86,29.15 80.92,29.15 80.97,28.97 81.02,28.85 81.08,28.76 81.13,28.69 81.18,28.57 81.24,28.44 81.29,28.23 81.35,27.99 81.40,27.75 81.45,27.58 81.51,27.49 81.56,27.53 81.62,27.65 81.67,27.82 81.72,28.05 81.78,28.21 81.83,28.12 81.88,27.94 81.94,27.75 81.99,27.58 82.05,27.58 82.10,27.62 82.15,27.56 82.21,27.44 82.26,27.32 82.32,27.12 82.37,26.97 82.42,26.93 82.48,26.85 82.53,26.79 82.58,26.55 82.64,26.34 82.69,26.13 82.75,25.91 82.80,25.73 82.85,25.58 82.91,25.42 82.96,25.26 83.01,25.17 83.07,25.08 83.12,24.99 83.18,24.97 83.23,25.03 83.28,25.07 83.34,24.99 83.39,24.84 83.45,24.60 83.50,24.41 83.55,24.39 83.61,24.56 83.66,24.61 83.71,24.52 83.77,24.39 83.82,24.23 83.88,24.15 83.93,24.03 83.98,23.87 84.04,23.81 84.09,23.75 84.15,23.67 84.20,23.60 84.25,23.49 84.31,23.43 84.36,23.39 84.41,23.33 84.47,23.28 84.52,23.25 84.58,23.21 84.63,23.17 84.68,23.15 84.74,23.11 84.79,23.03 84.84,23.20 84.90,23.47 84.95,23.35 85.01,23.09 85.06,22.79 85.11,22.97 85.17,23.18 85.22,23.23 85.28,23.14 85.33,22.98 85.38,22.83 85.44,22.83 85.49,22.97 85.54,23.21 85.60,23.02 85.65,22.67 85.71,22.56 85.76,22.37 85.81,22.20 85.87,22.04 85.92,21.96 85.98,22.00 86.03,22.45 86.08,22.70 86.14,22.77 86.19,22.69 86.24,22.47 86.30,22.15 86.35,21.95 86.41,21.91 86.46,21.97 86.51,22.03 86.57,21.90 86.62,21.75 86.68,21.69 86.73,21.67 86.78,21.64 86.84,21.49 86.89,21.44 86.94,21.19 87.00,21.05 87.05,20.94 87.11,20.82 87.16,20.80 87.21,20.72 87.27,20.73 87.32,20.71 87.37,20.45 87.43,20.12 87.48,19.95 87.54,19.79 87.59,19.69 87.64,19.53 87.70,19.45 87.75,19.35 87.81,19.34 87.86,19.67 87.91,19.60 87.97,19.41 88.02,19.38 88.07,19.36 88.13,19.30 88.18,19.18 88.24,18.87 88.29,18.38 88.34,18.06 88.40,17.47 88.45,17.40 88.51,17.79 88.56,17.97 88.61,18.15 88.67,18.14 88.72,17.99 88.77,17.93 88.83,17.76 88.88,17.78 88.94,17.84 88.99,17.83 89.04,17.79 89.10,17.86 89.15,17.81 89.20,17.79 89.26,17.91 89.31,18.05 89.37,18.16 89.42,18.15 89.47,18.05 89.53,17.79 89.58,17.78 89.64,17.78 89.69,17.70 89.74,17.45 89.80,17.27 89.85,17.04 89.90,17.02 89.96,17.04 90.01,17.05 90.07,17.05 90.12,16.84 90.17,16.72 90.23,16.41 90.28,16.24 90.34,16.31 90.39,16.59 90.44,16.76 90.50,17.06 90.55,17.19 90.60,17.11 90.66,16.89 90.71,16.74 90.77,16.73 90.82,16.71 90.87,16.76 90.93,16.77 90.98,16.94 91.03,16.91 91.09,16.75 91.14,16.69 91.20,16.61 91.25,16.59 91.30,16.61 91.36,16.71 91.41,16.77 91.47,16.88 91.52,17.09 91.57,17.19 91.63,17.20 91.68,17.10 91.73,17.16 91.79,17.17 91.84,17.20 91.90,17.14 91.95,17.07 92.00,16.87 92.06,16.91 92.11,17.17 92.17,17.25 92.22,17.30 92.27,17.17 92.33,17.13 92.38,17.03 92.43,16.81 92.49,16.72 92.54,16.73 92.60,16.77 92.65,16.85 92.70,16.90 92.76,17.02 92.81,17.29 92.86,17.38 92.92,17.54 92.97,17.64 93.03,17.57 93.08,17.36 93.13,17.23 93.19,17.11 93.24,17.06 93.30,16.86 93.35,16.76 93.40,16.70 93.46,16.68 93.51,16.71 93.56,16.73 93.62,16.77 93.67,16.77 93.73,16.73 93.78,16.64 93.83,16.47 93.89,16.31 93.94,16.18 94.00,16.04 94.05,15.93 94.10,15.89 94.16,15.90 94.21,15.86 94.26,15.86 94.32,15.83 94.37,15.85 94.43,15.76 94.48,15.64 94.53,15.63 94.59,15.64 94.64,15.66 94.69,15.66 94.75,15.67 94.80,15.56 94.86,15.51 94.91,15.40 94.96,15.44 95.02,15.42 95.07,15.38 95.13,15.31 95.18,15.23 95.23,15.16 95.29,15.16 95.34,15.37 95.39,15.34 95.45,15.33 95.50,15.28 95.56,15.21 95.61,15.04 95.66,14.73 95.72,14.62 95.77,14.46 95.83,14.52 95.88,14.64 95.93,14.70 95.99,14.65 96.04,14.55 96.09,14.55 96.15,14.56 96.20,14.62 96.26,14.99 96.31,15.11 96.36,14.96 96.42,14.64 96.47,14.57 96.52,14.54 96.58,14.64 96.63,14.82 96.69,14.57 96.74,14.42 96.79,14.38 96.85,14.48 96.90,14.77 96.96,14.97 97.01,15.05 97.06,14.81 97.12,14.62 97.17,14.78 97.22,14.90 97.28,14.76 97.33,14.58 97.39,14.51 97.44,14.31 97.49,14.17 97.55,14.20 97.60,14.33 97.66,14.41 97.71,14.45 97.76,14.52 97.82,14.51 97.87,14.56 97.92,14.56 97.98,14.54 98.03,14.47 98.09,14.41 98.14,14.38 98.19,14.28 98.25,14.16 98.30,14.06 98.36,14.01 98.41,13.96 98.46,13.91 98.52,13.85 98.57,13.74 98.62,13.63 98.68,13.51 98.73,13.38 98.79,13.31 98.84,13.23 98.89,13.09 98.95,12.98 99.00,12.80 99.05,12.75 99.11,12.74 99.16,12.74 99.22,12.77 99.27,12.82 99.32,12.88 99.38,12.91 99.43,12.95 99.49,12.97 99.54,13.00 99.59,13.09 99.65,13.06 99.70,12.98 99.75,12.90 99.81,12.85 99.86,12.86 99.92,12.86 99.97,12.87 100.02,12.91 100.08,13.01 100.13,13.11 100.19,13.17 100.24,13.22 100.29,13.21 100.35,13.15 100.40,13.01 100.45,12.84 100.51,12.72 100.56,12.67 100.62,12.50 100.67,12.42 100.72,12.25 100.78,12.11 100.83,12.07 100.88,12.00 100.94,11.83 100.99,11.72 101.05,11.52 101.10,11.19 101.15,10.97 101.21,10.79 101.26,10.56 101.32,10.44 101.37,10.45 101.42,10.30 101.48,9.95 101.53,9.80 101.58,9.69 101.64,9.50 101.69,9.43 101.75,9.46 101.80,9.45 101.85,9.34 101.91,9.21 101.96,9.10 102.02,9.22 102.07,9.21 102.12,9.11 102.18,9.07 102.23,9.06 102.28,9.10 102.34,9.09 102.39,9.02 102.45,9.01 102.50,8.99 102.55,8.91 102.61,8.82 102.66,8.66 102.71,8.48 102.77,8.21 102.82,7.91 102.88,7.75 102.93,7.65 102.98,7.55 103.04,7.51 103.09,7.43 103.15,7.45 103.20,7.42 103.25,7.23 103.31,7.11 103.36,7.01 103.41,6.93 103.47,6.89 103.52,6.86 103.58,6.81 103.63,6.85 103.68,6.82 103.74,6.68 103.79,6.51 103.85,6.47 103.90,6.38 103.95,6.29 104.01,6.21 104.06,6.10 104.11,6.00 104.17,5.94 104.22,5.90 104.28,5.80 104.33,5.61 104.38,5.46 104.44,5.35 104.49,5.31 104.54,5.27 104.60,5.50 104.65,5.74 104.71,5.79 104.76,5.89 104.81,5.99 104.87,6.04 104.92,6.04 104.98,6.05 105.03,6.07 105.08,5.92 105.14,5.80 105.19,5.75 105.24,5.74 105.30,5.86 105.35,5.85 105.41,5.82 105.46,5.75 105.51,5.88 105.57,5.74 105.62,5.49 105.68,5.33 105.73,5.32 105.78,5.54 105.84,5.99 105.89,5.97 105.94,5.62 106.00,5.45 106.05,5.71 106.11,6.09 106.16,6.14 106.21,6.10 106.27,6.04 106.32,6.09 106.37,6.11 106.43,6.12 106.48,6.09 106.54,6.00 106.59,5.99 106.64,6.11 106.70,6.19 106.75,6.23 106.81,6.31 106.86,6.36 106.91,6.41 106.97,6.44 107.02,6.40 107.07,6.37 107.13,6.35 107.18,6.30 107.24,6.30 107.29,6.31 107.34,6.20 107.40,6.05 107.45,5.96 107.51,5.90 107.56,5.81 107.61,5.73 107.67,5.82 107.72,5.77 107.77,5.76 107.83,5.84 107.88,5.93 107.94,6.03 107.99,6.00 108.04,6.00 108.10,6.06 108.15,6.16 108.20,6.32 108.26,6.28 108.31,6.21 108.37,6.17 108.42,6.16 108.47,6.22 108.53,6.24 108.58,6.26 108.64,6.42 108.69,6.45 108.74,6.73 108.80,6.91 108.85,7.41 108.90,7.62 108.96,7.14 109.01,6.96 109.07,6.93 109.12,6.99 109.17,7.02 109.23,7.11 109.28,7.24 109.34,7.32 109.39,7.41 109.44,7.56 109.50,7.83 109.55,7.96 109.60,8.10 109.66,8.18 109.71,7.99 109.77,8.08 109.82,8.24 109.87,8.26 109.93,8.26 109.98,8.33 110.04,8.50 110.09,8.64 110.14,8.94 110.20,9.18 110.25,9.29 110.30,9.33 110.36,9.42 110.41,9.49 110.47,9.55 110.52,9.63 110.57,9.59 110.63,9.52 110.68,9.77 110.73,9.99 110.79,10.12 110.84,10.22 110.90,10.27 110.95,10.37 111.00,10.40 111.06,10.37 111.11,10.35 111.17,10.30 111.22,10.39 111.27,10.55 111.33,10.61 111.38,10.71 111.43,10.92 111.49,11.30 111.54,11.46 111.60,11.57 111.65,11.63 111.70,11.66 111.76,11.74 111.81,11.82 111.87,11.93 111.92,12.01 111.97,12.08 112.03,11.97 112.08,11.86 112.13,11.89 112.19,11.97 112.24,12.13 112.30,12.27 112.35,12.35 112.40,12.48 112.46,12.66 112.51,12.80 112.56,12.91 112.62,12.99 112.67,13.05 112.73,13.09 112.78,13.19 112.83,13.20 112.89,13.29 112.94,13.30 113.00,13.30 113.05,13.32 113.10,13.33 113.16,13.34 113.21,13.31 113.26,13.32 113.32,13.30 113.37,13.30 113.43,13.31 113.48,13.38 113.53,13.35 113.59,13.31 113.64,13.25 113.70,13.16 113.75,13.05 113.80,12.96 113.86,12.80 113.91,12.58 113.96,12.42 114.02,12.19 114.07,12.06 114.13,11.90 114.18,11.69 114.23,11.47 114.29,11.25 114.34,11.04 114.39,10.88 114.45,10.75 114.50,10.67 114.56,10.57 114.61,10.49 114.66,10.51 114.72,10.54 114.77,10.62 114.83,10.56 114.88,10.41 114.93,10.39 114.99,10.24 115.04,10.06 115.09,9.74 115.15,9.53 115.20,9.46 115.26,9.29 115.31,9.11 115.36,8.99 115.42,8.85 115.47,8.83 115.53,8.74 115.58,8.63 115.63,8.56 115.69,8.38 115.74,8.24 115.79,8.01 115.85,7.88 115.90,7.76 115.96,7.58 116.01,7.43 116.06,7.35 116.12,7.17 116.17,7.05 116.22,6.96 116.28,6.81 116.33,6.67 116.39,6.56 116.44,6.51 116.49,6.47 116.55,6.51 116.60,6.60 116.66,6.54 116.71,6.34 116.76,6.21 116.82,6.17 116.87,6.18 116.92,6.24 116.98,6.38 117.03,6.51 117.09,6.63 117.14,6.71 117.19,6.67 117.25,6.64 117.30,6.56 117.36,6.48 117.41,6.47 117.46,6.52 117.52,6.60 117.57,6.78 117.62,6.80 117.68,6.86 117.73,6.99 117.79,7.04 117.84,6.98 117.89,6.87 117.95,6.77 118.00,6.76 118.05,6.76 118.11,6.66 118.16,6.65 118.22,6.72 118.27,6.78 118.32,6.97 118.38,6.95 118.43,6.89 118.49,6.91 118.54,6.90 118.59,6.87 118.65,6.82 118.70,6.77 118.75,6.74 118.81,6.72 118.86,6.65 118.92,6.64 118.97,6.70 119.02,6.80 119.08,6.85 119.13,6.88 119.19,6.85 119.24,6.88 119.29,6.87 119.35,6.84 119.40,6.76 119.45,6.74 119.51,6.70 119.56,6.49 119.62,6.26 119.67,6.04 119.72,5.77 119.78,5.64 119.83,5.58 119.88,5.97 119.94,5.99 119.99,6.01 120.05,6.19 120.10,5.85 120.15,5.78 120.21,5.74 120.26,5.74 120.32,6.00 120.37,5.82 120.42,5.83 120.48,5.76 120.53,5.90 120.58,5.88 120.64,5.41 120.69,5.33 120.75,5.33 120.80,5.64 120.85,5.98 120.91,5.91 120.96,5.65 121.02,5.43 121.07,5.71 121.12,6.10 121.18,6.11 121.23,6.10 121.28,5.98 121.34,6.08 121.39,6.11 121.45,6.11 121.50,6.14 121.55,5.84 121.61,5.91 121.66,6.15 121.72,6.13 121.77,6.27 121.82,6.32 121.88,6.40 121.93,6.41 121.98,6.54 122.04,6.44 122.09,6.37 122.15,6.33 122.20,6.32 122.25,6.31 122.31,6.24 122.36,6.26 122.41,5.92 122.47,5.87 122.52,5.90 122.58,5.75 122.63,5.66 122.68,5.78 122.74,5.90 122.79,5.85 122.85,5.78 122.90,5.92 122.95,5.98 123.01,6.07 123.06,5.97 123.11,6.18 123.17,6.15 123.22,6.30 123.28,6.14 123.33,6.21 123.38,6.25 123.44,6.13 123.49,5.99 123.55,6.40 123.60,6.21 123.65,6.37 123.71,6.50 123.76,6.71 123.81,6.99 123.87,7.49 123.92,7.56 123.98,7.22 124.03,6.92 124.08,6.93 124.14,6.97 124.19,7.03 124.24,7.07 124.30,7.23 124.35,7.33 124.41,7.36 124.46,7.57 124.51,7.82 124.57,7.94 124.62,8.14 124.68,8.15 124.73,7.99 124.78,8.10 124.84,8.26 124.89,8.31 124.94,8.32 125.00,8.35 125.05,8.55 125.11,8.59 125.16,8.97 125.21,9.15 125.27,9.27 125.32,9.37 125.38,9.42 125.43,9.50 125.48,9.57 125.54,9.57 125.59,9.60 125.64,9.67 125.70,9.75 125.75,10.03 125.81,10.11 125.86,10.23 125.91,10.27 125.97,10.24 126.02,10.40 126.07,10.28 126.13,10.35 126.18,10.34 126.24,10.46 126.29,10.55 126.34,10.55 126.40,10.67 126.45,11.01 126.51,11.30 126.56,11.44 126.61,11.53 126.67,11.61 126.72,11.67 126.77,11.70 126.83,11.81 126.88,11.91 126.94,12.01 126.99,12.10 127.04,12.02 127.10,11.91 127.15,11.96 127.21,12.01 127.26,12.19 127.31,12.32 127.37,12.35 127.42,12.51 127.47,12.64 127.53,12.78 127.58,12.88 127.64,12.97 127.69,13.04 127.74,13.12 127.80,13.18 127.85,13.23 127.90,13.29 127.96,13.30 128.01,13.38 128.07,13.31 128.12,13.32 128.17,13.33 128.23,13.31 128.28,13.30 128.34,13.32 128.39,13.28 128.44,13.32 128.50,13.36 128.55,13.35 128.60,13.32 128.66,13.23 128.71,13.15 128.77,13.05 128.82,12.96 128.87,12.67 128.93,12.59 128.98,12.40 129.04,12.23 129.09,12.03 129.14,11.94 129.20,11.66 129.25,11.46 129.30,11.26 129.36,11.05 129.41,10.97 129.47,10.71 129.52,10.61 129.57,10.62 129.63,10.58 129.68,10.49 129.73,10.50 129.79,10.73 129.84,10.53 129.90,10.51 129.95,10.36 130.00,10.09 130.06,10.02 130.11,9.71 130.17,9.49 130.22,9.42 130.27,9.27 130.33,9.14 130.38,8.95 130.43,8.94 130.49,8.75 130.54,8.79 130.60,8.55 130.65,8.53 130.70,8.38 130.76,8.25 130.81,8.05 130.87,8.00 130.92,7.82 130.97,7.65 131.03,7.54 131.08,7.36 131.13,7.26 131.19,7.17 131.24,6.98 131.30,6.86 131.35,6.66 131.40,6.62 131.46,6.49 131.51,6.47 131.56,6.61 131.62,6.55 131.67,6.51 131.73,6.38 131.78,6.23 131.83,6.16 131.89,6.18 131.94,6.22 132.00,6.35 132.05,6.48 132.10,6.62 132.16,6.64 132.21,6.65 132.26,6.59 132.32,6.53 132.37,6.53 132.43,6.50 132.48,6.55 132.53,6.64 132.59,6.83 132.64,6.72 132.70,6.95 132.75,7.01 132.80,6.99 132.86,7.07 132.91,6.78 132.96,6.72 133.02,6.80 133.07,6.73 133.13,6.63 133.18,6.64 133.23,6.78 133.29,6.72 133.34,7.00 133.40,6.94 133.45,6.89 133.50,6.90 133.56,6.92 133.61,6.88 133.66,6.77 133.72,6.73 133.77,6.60 133.83,6.60 133.88,6.71 133.93,6.72 133.99,6.76 134.04,6.72 134.09,6.81 134.15,6.88 134.20,6.90 134.26,6.87 134.31,6.88 134.36,6.85 134.42,6.79 134.47,6.65 134.53,6.66 134.58,6.54 134.63,6.33 134.69,6.03 134.74,5.73 134.79,5.62 134.85,5.61 134.90,55.74 134.96,55.84 135.01,55.87 135.06,56.00 135.12,55.88 135.17,55.85 135.23,55.85 135.28,55.88 135.33,55.76 135.39,55.76 135.44,55.73 135.49,55.67 135.55,55.55 135.60,55.49 135.66,55.36 135.71,55.32 135.76,55.18 135.82,55.03 135.87,54.99 135.92,54.94 135.98,54.94 136.03,55.10 136.09,54.96 136.14,54.78 136.19,54.46 136.25,54.38 136.30,54.26 136.36,54.17 136.41,53.95 136.46,53.58 136.52,53.51 136.57,53.31 136.62,53.36 136.68,53.23 136.73,53.09 136.79,52.94 136.84,52.81 136.89,52.75 136.95,52.70 137.00,52.52 137.06,52.44 137.11,52.30 137.16,52.23 137.22,52.36 137.27,52.37 137.32,52.30 137.38,52.27 137.43,52.17 137.49,51.60 137.54,51.65 137.59,51.41 137.65,51.25 137.70,51.18 137.75,51.09 137.81,51.01 137.86,50.74 137.92,50.49 137.97,50.00 138.02,49.78 138.08,49.55 138.13,49.35 138.19,49.24 138.24,49.16 138.29,49.01 138.35,49.12 138.40,49.24 138.45,49.50 138.51,49.57 138.56,49.51 138.62,49.56 138.67,49.46 138.72,49.40 138.78,49.33 138.83,49.08 138.89,48.95 138.94,48.84 138.99,48.74 139.05,48.69 139.10,48.65 139.15,48.51 139.21,48.40 139.26,48.26 139.32,48.16 139.37,48.05 139.42,48.44 139.48,48.58 139.53,48.28 139.58,47.75 139.64,47.53 139.69,47.61 139.75,47.86 139.80,47.74 139.85,47.48 139.91,47.28 139.96,47.08 140.02,47.12 140.07,46.84 140.12,46.32 140.18,46.04 140.23,45.34 140.28,45.16 140.34,45.02 140.39,45.24 140.45,45.39 140.50,45.30 140.55,45.13 140.61,44.84 140.66,44.46 140.72,44.52 140.77,44.46 140.82,44.32 140.88,43.96 140.93,44.00 140.98,44.06 141.04,44.15 141.09,44.47 141.15,44.14 141.20,44.00 141.25,43.91 141.31,43.85 141.36,43.79 141.41,43.76 141.47,43.66 141.52,43.25 141.58,43.13 141.63,43.04 141.68,42.92 141.74,43.18 141.79,43.41 141.85,43.38 141.90,43.55 141.95,43.79 142.01,43.79 142.06,43.61 142.11,43.51 142.17,43.29 142.22,43.17 142.28,43.14 142.33,42.99 142.38,43.13 142.44,43.32 142.49,43.39 142.55,43.47 142.60,43.37 142.65,43.56 142.71,43.68 142.76,43.76 142.81,43.80 142.87,43.80 142.92,43.85 142.98,43.86 143.03,43.84 143.08,43.88 143.14,43.90 143.19,43.89 143.24,43.99 143.30,43.98 143.35,44.03 143.41,43.94 143.46,43.76 143.51,43.66 143.57,43.84 143.62,43.89 143.68,43.87 143.73,43.81 143.78,43.76 143.84,43.70 143.89,43.65 143.94,43.54 144.00,43.55 144.05,43.52 144.11,43.36 144.16,43.23 144.21,43.20 144.27,43.11 144.32,43.23 144.38,43.19 144.43,43.16 144.48,43.16 144.54,43.13 144.59,43.04 144.64,42.89 144.70,42.68 144.75,42.33 144.81,42.14 144.86,42.34 144.91,42.43 144.97,42.61 145.02,42.21 145.08,41.96 145.13,42.01 145.18,41.95 145.24,42.08 145.29,42.05 145.34,41.75 145.40,41.59 145.45,41.14 145.51,40.92 145.56,40.53 145.61,39.98 145.67,39.59 145.72,39.63 145.77,39.96 145.83,40.12 145.88,40.04 145.94,40.17 145.99,40.11 146.04,39.86 146.10,39.57 146.15,39.40 146.21,39.27 146.26,39.22 146.31,39.10 146.37,38.80 146.42,38.39 146.47,38.02 146.53,37.54 146.58,37.20 146.64,37.10 146.69,37.61 146.74,38.03 146.80,38.69 146.85,38.58 146.91,38.57 146.96,38.39 147.01,37.52 147.07,37.20 147.12,36.71 147.17,36.21 147.23,35.90 147.28,35.20 147.34,34.50 147.39,34.05 147.44,33.81 147.50,33.93 147.55,34.17 147.60,34.83 147.66,34.75 147.71,35.12 147.77,35.61 147.82,35.53 147.87,35.05 147.93,34.99 147.98,34.76 148.04,34.57 148.09,34.02 148.14,33.93 148.20,33.57 148.25,33.31 148.30,33.24 148.36,32.72 148.41,32.30 148.47,31.93 148.52,31.72 148.57,31.65 148.63,31.65 148.68,31.86 148.74,32.19 148.79,32.57 148.84,33.04 148.90,33.36 148.95,33.39 149.00,33.43 149.06,33.47 149.11,33.57 149.17,33.58 149.22,33.55 149.27,33.38 149.33,33.33 149.38,33.23 149.43,33.12 149.49,32.87 149.54,32.57 149.60,32.54 149.65,32.44 149.70,32.31 149.76,32.04 149.81,31.87 149.87,31.96 149.92,32.12 149.97,32.47 150.03,32.71 150.08,32.90 150.13,32.75 150.19,32.71 150.24,32.75 150.30,32.77 150.35,32.71 150.40,32.62 150.46,32.61 150.51,32.63 150.57,32.63 150.62,32.68 150.67,32.66 150.73,32.65 150.78,32.81 150.83,32.84 150.89,32.91 150.94,32.87 151.00,32.81 151.05,32.74 151.10,32.67 151.16,32.65 151.21,32.59 151.26,32.62 151.32,32.58 151.37,32.57 151.43,32.53 151.48,32.55 151.53,32.49 151.59,32.50 151.64,32.45 151.70,32.46 151.75,32.41 151.80,32.35 151.86,32.28 151.91,32.28 151.96,32.26 152.02,32.25 152.07,32.18 152.13,32.09 152.18,31.99 152.23,31.99 152.29,32.04 152.34,32.01 152.40,31.98 152.45,31.80 152.50,31.83 152.56,31.78 152.61,31.61 152.66,31.54 152.72,31.50 152.77,31.40 152.83,31.27 152.88,31.25 152.93,31.14 152.99,31.15 153.04,31.08 153.09,31.10 153.15,31.05 153.20,30.75 153.26,30.53 153.31,30.28 153.36,30.18 153.42,30.01 153.47,29.81 153.53,29.50 153.58,29.38 153.63,29.16 153.69,29.16 153.74,29.11 153.79,29.22 153.85,29.01 153.90,28.92 153.96,28.85 154.01,28.70 154.06,28.59 154.12,28.44 154.17,28.21 154.23,27.98 154.28,27.77 154.33,27.56 154.39,27.48 154.44,27.51 154.49,27.60 154.55,27.82 154.60,28.04 154.66,28.21 154.71,28.14 154.76,27.90 154.82,27.74 154.87,27.57 154.92,27.63 154.98,27.61 155.03,27.52 155.09,27.46 155.14,27.33 155.19,27.13 155.25,26.89 155.30,26.89 155.36,26.74 155.41,26.77 155.46,26.66 155.52,26.31 155.57,26.14 155.62,25.87 155.68,25.70 155.73,25.52 155.79,25.40 155.84,25.30 155.89,25.13 155.95,25.09 156.00,24.99 156.06,25.02 156.11,25.08 156.16,25.12 156.22,25.02 156.27,24.87 156.32,24.64 156.38,24.41 156.43,24.40 156.49,24.45 156.54,24.61 156.59,24.53 156.65,24.38 156.70,24.22 156.76,24.15 156.81,24.05 156.86,23.89 156.92,23.82 156.97,23.76 157.02,23.68 157.08,23.60 157.13,23.49 157.19,23.46 157.24,23.38 157.29,23.33 157.35,23.29 157.40,23.27 157.45,23.24 157.51,23.18 157.56,23.17 157.62,23.11 157.67,23.05 157.72,23.34 157.78,23.42 157.83,23.42 157.89,23.01 157.94,22.79 157.99,22.93 158.05,23.09 158.10,23.25 158.15,23.10 158.21,23.05 158.26,22.79 158.32,22.81 158.37,22.87 158.42,23.23 158.48,23.09 158.53,22.60 158.59,22.60 158.64,22.38 158.69,22.19 158.75,22.05 158.80,21.97 158.85,22.15 158.91,22.40 158.96,22.64 159.02,22.71 159.07,22.76 159.12,22.49 159.18,22.07 159.23,21.97 159.28,21.98 159.34,21.91 159.39,22.07 159.45,21.85 159.50,21.75 159.55,21.73 159.61,21.68 159.66,21.61 159.72,21.50 159.77,21.44 159.82,21.22 159.88,21.06 159.93,20.91 159.98,20.82 160.04,20.80 160.09,20.72 160.15,20.77 160.20,20.80 160.25,20.36 160.31,20.10 160.36,19.96 160.42,19.82 160.47,19.68 160.52,19.57 160.58,19.48 160.63,19.36 160.68,19.40 160.74,19.61 160.79,19.62 160.85,19.41 160.90,19.31 160.95,19.36 161.01,19.26 161.06,19.17 161.11,18.88 161.17,18.47 161.22,18.07 161.28,17.45 161.33,17.41 161.38,17.62 161.44,17.97 161.49,18.16 161.55,18.19 161.60,17.99 161.65,17.88 161.71,17.82 161.76,17.88 161.81,17.81 161.87,17.82 161.92,17.86 161.98,17.78 162.03,17.94 162.08,17.86 162.14,17.90 162.19,18.08 162.25,18.20 162.30,18.12 162.35,18.00 162.41,17.88 162.46,17.78 162.51,17.77 162.57,17.58 162.62,17.51 162.68,17.24 162.73,16.88 162.78,17.08 162.84,17.21 162.89,16.97 162.94,17.03 163.00,16.94 163.05,16.54 163.11,16.41 163.16,16.24 163.21,16.42 163.27,16.61 163.32,16.80 163.38,17.14 163.43,17.21 163.48,17.04 163.54,16.98 163.59,16.71 163.64,16.74 163.70,16.67 163.75,16.77 163.81,16.80 163.86,17.00 163.91,16.93 163.97,16.76 164.02,16.65 164.08,16.65 164.13,16.59 164.18,16.61 164.24,16.64 164.29,16.89 164.34,16.87 164.40,17.13 164.45,17.26 164.51,17.24 164.56,17.15 164.61,17.05 164.67,17.22 164.72,17.31 164.77,17.14 164.83,17.05 164.88,17.03 164.94,16.88 164.99,17.18 165.04,17.22 165.10,17.31 165.15,17.22 165.21,17.13 165.26,17.10 165.31,16.88 165.37,16.76 165.42,16.74 165.47,16.79 165.53,16.80 165.58,16.83 165.64,17.01 165.69,17.22 165.74,17.44 165.80,17.60 165.85,17.66 165.91,17.54 165.96,17.38 166.01,17.20 166.07,17.10 166.12,17.08 166.17,16.85 166.23,16.75 166.28,16.73 166.34,16.68 166.39,16.70 166.44,16.73 166.50,16.77 166.55,16.79 166.60,16.74 166.66,16.67 166.71,16.54 166.77,16.32 166.82,16.16 166.87,15.98 166.93,15.94 166.98,15.87 167.04,15.91 167.09,15.85 167.14,15.93 167.20,15.88 167.25,15.78 167.30,15.87 167.36,15.75 167.41,15.56 167.47,15.52 167.52,15.59 167.57,15.72 167.63,15.64 167.68,15.58 167.74,15.42 167.79,15.42 167.84,15.42 167.90,15.41 167.95,15.39 168.00,15.30 168.06,15.22 168.11,15.16 168.17,15.13 168.22,15.26 168.27,15.31 168.33,15.44 168.38,15.30 168.44,15.24 168.49,15.13 168.54,14.68 168.60,14.64 168.65,14.50 168.70,14.61 168.76,14.66 168.81,14.71 168.87,14.67 168.92,14.50 168.97,14.57 169.03,14.57 169.08,14.73 169.13,14.98 169.19,15.02 169.24,15.05 169.30,14.67 169.35,14.58 169.40,14.55 169.46,14.55 169.51,14.85 169.57,14.74 169.62,14.42 169.67,14.37 169.73,14.44 169.78,14.86 169.83,14.87 169.89,15.13 169.94,14.75 170.00,14.55 170.05,14.84 170.10,14.89 170.16,14.82 170.21,14.54 170.27,14.57 170.32,14.29 170.37,14.19 170.43,14.20 170.48,14.30 170.53,14.45 170.59,14.47 170.64,14.49 170.70,14.49 170.75,14.57 170.80,14.61 170.86,14.53 170.91,14.49 170.96,14.43 171.02,14.37 171.07,14.27 171.13,14.19 171.18,14.07 171.23,13.96 171.29,13.97 171.34,13.93 171.40,13.81 171.45,13.73 171.50,13.60 171.56,13.52 171.61,13.35 171.66,13.36 171.72,13.24 171.77,13.08 171.83,12.91 171.88,12.87 171.93,12.76 171.99,12.73 172.04,12.74 172.10,12.79 172.15,12.82 172.20,12.87 172.26,12.89 172.31,12.95 172.36,13.00 172.42,13.03 172.47,13.05 172.53,13.09 172.58,13.03 172.63,12.87 172.69,12.85 172.74,12.87 172.79,12.84 172.85,12.87 172.90,12.90 172.96,12.99 173.01,13.11 173.06,13.16 173.12,13.22 173.17,13.22 173.23,13.15 173.28,13.01 173.33,12.81 173.39,12.77 173.44,12.64 173.49,12.58 173.55,12.43 173.60,12.26 173.66,12.08 173.71,12.03 173.76,11.93 173.82,11.76 173.87,11.58 173.93,11.43 173.98,11.16 174.03,10.96 174.09,10.82 174.14,10.62 174.19,10.38 174.25,10.48 174.30,10.28 174.36,10.02 174.41,9.72 174.46,9.49 174.52,9.39 174.57,9.41 174.62,9.55 174.68,9.39 174.73,9.35 174.79,9.18 174.84,9.25 174.89,9.10 174.95,9.19 175.00,9.19 175.06,9.10 175.11,9.03 175.16,9.07 175.22,9.10 175.27,9.07 175.32,9.07 175.38,9.06 175.43,9.01 175.49,8.93 175.54,8.63 175.59,8.53 175.65,8.27 175.70,8.00 175.76,7.75 175.81,7.66 175.86,7.56 175.92,7.50 175.97,7.46 176.02,7.35 176.08,7.48 176.13,7.16 176.19,7.08 176.24,7.00 176.29,6.93 176.35,6.89 176.40,6.91 176.45,6.82 176.51,6.89 176.56,6.81 176.62,6.75 176.67,6.49 176.72,6.47 176.78,6.38 176.83,6.24 176.89,6.17 176.94,6.05 176.99,5.99 177.05,5.94 177.10,5.90 177.15,5.70 177.21,5.63 177.26,5.48 177.32,5.33 177.37,5.27 177.42,5.23 177.48,5.43 177.53,5.76 177.59,5.79 177.64,6.01 177.69,5.86 177.75,5.97 177.80,5.99 177.85,6.01 177.91,5.77 177.96,5.93 178.02,6.06 178.07,5.65 178.12,5.76 178.18,5.78 178.23,5.79 178.28,6.30 178.34,5.71 178.39,5.56 178.45,5.46 178.50,5.81 178.55,6.16 178.61,5.85 178.66,5.96 178.72,5.68 178.77,5.91 178.82,6.04 178.88,5.48 178.93,5.24 178.98,5.06 179.04,5.56 179.09,5.93 179.15,5.93 179.20,5.68 179.25,5.64 179.31,5.64 179.36,5.79 179.42,5.88 179.47,6.11 179.52,5.80 179.58,6.25 179.63,5.89 179.68,5.82 179.74,6.05 179.79,5.73 179.85,5.97 179.90,6.22 179.95,6.19 180.01,6.27 180.06,6.27 180.12,6.51 180.17,6.30 180.22,6.65 180.28,6.40 180.33,6.43 180.38,6.23 180.44,6.07 180.49,5.96 180.55,5.87 180.60,6.40 180.65,5.65 180.71,5.60 180.76,5.62 180.81,5.68 180.87,5.79 180.92,5.42 180.98,5.65 181.03,5.53 181.08,5.63 181.14,5.63 181.19,5.81 181.25,5.88 181.30,5.82 181.35,6.23 181.41,6.01 181.46,6.28 181.51,6.37 181.57,6.35 181.62,6.33 181.68,5.72 181.73,5.86 181.78,6.29 181.84,6.06 181.89,6.40 181.95,6.45 182.00,6.45 182.05,6.82 182.11,7.33 182.16,7.15 182.21,7.37 182.27,6.83 182.32,6.87 182.38,6.94 182.43,7.05 182.48,7.24 182.54,7.03 182.59,7.25 182.64,7.43 182.70,7.59 182.75,7.73 182.81,8.05 182.86,8.12 182.91,8.05 182.97,7.93 183.02,7.96 183.08,8.17 183.13,8.24 183.18,8.31 183.24,8.09 183.29,8.54 183.34,8.40 183.40,8.85 183.45,8.87 183.51,9.37 183.56,9.38 183.61,9.34 183.67,9.46 183.72,9.65 183.78,9.25 183.83,9.30 183.88,9.37 183.94,9.45 183.99,10.09 184.04,10.15 184.10,10.18 184.15,10.12 184.21,9.99 184.26,10.32 184.31,10.13 184.37,10.35 184.42,10.20 184.47,10.59 184.53,10.65 184.58,10.30 184.64,10.71 184.69,11.03 184.74,11.36 184.80,11.26 184.85,11.52 184.91,11.73 184.96,11.84 185.01,11.80 185.07,11.70 185.12,11.70 185.17,12.14 185.23,12.04 185.28,11.85 185.34,11.95 185.39,12.05 185.44,11.84 185.50,12.24 185.55,12.49 185.61,12.37 185.66,12.65 185.71,12.62 185.77,12.64 185.82,12.92 185.87,12.96 185.93,13.01 185.98,13.09 186.04,13.15 186.09,13.22 186.14,13.32 186.20,13.26 186.25,13.42 186.30,13.29 186.36,13.33 186.41,13.37 186.47,13.38 186.52,13.26 186.57,13.28 186.63,13.29 186.68,13.33 186.74,13.36 186.79,13.35 186.84,13.39 186.90,13.31 186.95,13.21 187.00,12.98 187.06,12.82 187.11,12.65 187.17,12.69 187.22,12.49 187.27,12.24 187.33,12.25 187.38,11.90 187.44,11.68 187.49,11.37 187.54,11.50 187.60,11.06 187.65,10.80 187.70,10.61 187.76,10.91 187.81,10.80 187.87,10.36 187.92,10.42 187.97,10.59 188.03,10.59 188.08,10.73 188.13,10.43 188.19,10.49 188.24,10.04 188.30,9.81 188.35,9.59 188.40,9.42 188.46,9.32 188.51,9.27 188.57,9.25 188.62,8.92 188.67,8.98 188.73,8.83 188.78,8.77 188.83,8.50 188.89,8.46 188.94,8.18 189.00,8.08 189.05,8.08 189.10,7.89 189.16,7.64 189.21,7.75 189.27,7.50 189.32,7.12 189.37,7.27 189.43,7.05 189.48,6.84 189.53,6.94 189.59,6.70 189.64,6.50 189.70,6.58 189.75,6.34 189.80,6.40 189.86,6.46 189.91,6.46 189.96,6.34 190.02,6.39 190.07,6.16 190.13,6.17 190.18,6.29 190.23,6.24 190.29,6.46 190.34,6.66 190.40,6.60 190.45,6.52 190.50,6.66 190.56,6.55 190.61,6.45 190.66,6.41 190.72,6.48 190.77,6.44 190.83,6.69 190.88,6.63 190.93,6.77 190.99,6.85 191.04,6.86 191.10,6.77 191.15,6.64 191.20,6.53 191.26,6.97 191.31,6.89 191.36,6.74 191.42,6.76 191.47,6.86 191.53,6.55 191.58,6.70 191.63,6.79 191.69,6.76 191.74,6.77 191.80,6.76 191.85,6.69 191.90,6.58 191.96,6.82 192.01,6.54 192.06,6.41 192.12,6.75 192.17,6.76 192.23,6.80 192.28,6.55 192.33,6.64 192.39,6.75 192.44,6.79 192.49,6.85 192.55,6.90 192.60,6.86 192.66,6.85 192.71,6.77 192.76,6.59 192.82,6.58 192.87,6.50 192.93,6.00 192.98,5.81 193.03,5.69 193.09,5.67 193.14,55.62 193.19,55.84 193.25,55.89 193.30,55.96 193.36,55.96 193.41,55.84 193.46,55.84 193.52,55.87 193.57,55.78 193.63,55.76 193.68,55.76 193.73,55.70 193.79,55.60 193.84,55.46 193.89,55.56 193.95,55.37 194.00,55.35 194.06,54.98 194.11,54.82 194.16,54.94 194.22,54.89 194.27,54.97 194.32,54.75 194.38,54.88 194.43,54.62 194.49,54.72 194.54,54.32 194.59,54.32 194.65,53.87 194.70,53.40 194.76,53.51 194.81,53.34 194.86,52.91 194.92,53.02 194.97,53.10 195.02,52.91 195.08,52.75 195.13,52.59 195.19,52.50 195.24,52.49 195.29,52.50 195.35,52.08 195.40,52.38 195.46,52.15 195.51,52.26 195.56,52.27 195.62,52.24 195.67,52.16 195.72,51.58 195.78,51.76 195.83,51.51 195.89,51.40 195.94,51.27 195.99,51.15 196.05,51.01 196.10,50.59 196.15,50.24 196.21,49.86 196.26,49.89 196.32,49.52 196.37,49.19 196.42,49.22 196.48,49.29 196.53,48.96 196.59,49.26 196.64,48.97 196.69,49.25 196.75,49.48 196.80,49.13 196.85,49.70 196.91,49.42 196.96,49.73 197.02,49.23 197.07,49.06 197.12,48.88 197.18,48.66 197.23,48.40 197.29,48.36 197.34,48.31 197.39,48.16 197.45,47.89 197.50,48.38 197.55,48.21 197.61,48.21 197.66,48.28 197.72,48.36 197.77,48.21 197.82,47.84 197.88,47.57 197.93,47.56 197.98,47.74 198.04,47.80 198.09,47.22 198.15,47.32 198.20,46.96 198.25,47.23 198.31,46.80 198.36,46.35 198.42,45.70 198.47,45.15 198.52,45.15 198.58,45.15 198.63,44.98 198.68,45.25 198.74,45.09 198.79,44.57 198.85,44.88 198.90,44.38 198.95,44.38 199.01,44.42 199.06,43.99 199.12,43.81 199.17,43.81 199.22,43.88 199.28,44.07 199.33,44.41 199.38,44.09 199.44,44.11 199.49,43.69 199.55,43.75 199.60,43.35 199.65,43.51 199.71,43.61 199.76,43.09 199.81,42.72 199.87,43.06 199.92,43.11 199.98,42.76 200.03,43.10 200.08,43.41 200.14,43.41 200.19,43.72 200.25,43.43 200.30,43.70 200.35,43.40 200.41,43.11 200.46,43.34 200.51,43.22 200.57,42.84 200.62,43.16 200.68,43.38 200.73,43.45 200.78,43.51 200.84,43.11 200.89,43.32 200.95,43.44 201.00,43.78 201.05,43.68 201.11,43.73 201.16,43.73 201.21,43.85 201.27,43.71 201.32,43.75 201.38,43.85 201.43,43.92 201.48,44.00 201.54,44.06 201.59,44.07 201.64,43.95 201.70,43.80 201.75,43.66 201.81,43.68 201.86,43.92 201.91,43.90 201.97,43.86 202.02,43.66 202.08,43.68 202.13,43.67 202.18,43.42 202.24,43.51 202.29,43.50 202.34,42.99 202.40,43.04 202.45,43.18 202.51,42.86 202.56,43.02 202.61,43.12 202.67,43.18 202.72,43.11 202.78,43.10 202.83,42.95 202.88,42.80 202.94,42.73 202.99,42.30 203.04,42.03 203.10,42.18 203.15,42.31 203.21,42.38 203.26,42.14 203.31,42.00 203.37,41.96 203.42,41.92 203.48,41.96 203.53,41.94 203.58,41.61 203.64,41.47 203.69,41.37 203.74,40.67 203.80,40.60 203.85,39.96 203.91,39.46 203.96,39.52 204.01,39.93 204.07,39.93 204.12,40.23 204.17,40.01 204.23,39.98 204.28,39.66 204.34,39.44 204.39,39.50 204.44,39.22 204.50,39.05 204.55,39.08 204.61,38.83 204.66,38.62 204.71,38.20 204.77,37.43 204.82,37.13 204.87,36.99 204.93,37.52 204.98,37.83 205.04,38.58 205.09,38.54 205.14,38.47 205.20,38.29 205.25,37.83 205.31,37.23 205.36,36.80 205.41,36.32 205.47,35.84 205.52,35.39 205.57,34.80 205.63,34.26 205.68,33.91 205.74,34.06 205.79,33.96 205.84,34.56 205.90,34.58 205.95,35.17 206.00,35.43 206.06,35.55 206.11,34.72 206.17,34.63 206.22,34.67 206.27,34.73 206.33,33.89 206.38,33.71 206.44,33.55 206.49,33.52 206.54,32.80 206.60,32.65 206.65,32.45 206.70,31.66 206.76,31.64 206.81,31.68 206.87,31.49 206.92,31.92 206.97,32.22 207.03,32.53 207.08,33.02 207.14,33.27 207.19,33.34 207.24,33.41 207.30,33.47 207.35,33.53 207.40,33.53 207.46,33.46 207.51,33.34 207.57,33.33 207.62,33.02 207.67,32.91 207.73,32.78 207.78,32.66 207.83,32.58 207.89,32.30 207.94,32.25 208.00,31.96 208.05,31.90 208.10,31.99 208.16,31.99 208.21,32.27 208.27,32.54 208.32,32.77 208.37,32.69 208.43,32.68 208.48,32.74 208.53,32.63 208.59,32.67 208.64,32.52 208.70,32.56 208.75,32.62 208.80,32.53 208.86,32.63 208.91,32.58 208.97,32.55 209.02,32.67 209.07,32.62 209.13,32.78 209.18,32.65 209.23,32.72 209.29,32.74 209.34,32.61 209.40,32.64 209.45,32.55 209.50,32.60 209.56,32.55 209.61,32.56 209.66,32.53 209.72,32.50 209.77,32.52 209.83,32.45 209.88,32.45 209.93,32.40 209.99,32.36 210.04,32.32 210.10,32.27 210.15,32.24 210.20,32.21 210.26,32.16 210.31,32.13 210.36,32.06 210.42,31.95 210.47,31.97 210.53,31.95 210.58,31.95 210.63,31.90 210.69,31.87 210.74,31.81 210.80,31.80 210.85,31.65 210.90,31.58 210.96,31.45 211.01,31.38 211.06,31.31 211.12,31.19 211.17,31.16 211.23,31.16 211.28,31.09 211.33,31.01 211.39,30.97 211.44,30.72 211.49,30.49 211.55,30.24 211.60,30.24 211.66,29.97 211.71,29.65 211.76,29.35 211.82,29.48 211.87,29.31 211.93,29.22 211.98,29.16 212.03,29.16 212.09,29.12 212.14,29.16 212.19,28.88 212.25,28.65 212.30,28.99 212.36,28.56 212.41,28.60 212.46,27.98 212.52,27.76 212.57,27.61 212.63,27.52 212.68,27.52 212.73,27.58 212.79,27.87 212.84,28.05 212.89,28.14 212.95,28.15 213.00,27.95 213.06,27.74 213.11,27.66 213.16,27.50 213.22,27.60 213.27,27.47 213.32,27.43 213.38,27.21 213.43,27.09 213.49,26.80 213.54,27.00 213.59,26.92 213.65,26.69 213.70,26.63 213.76,26.40 213.81,26.39 213.86,26.00 213.92,25.86 213.97,25.73 214.02,25.62 214.08,25.52 214.13,25.08 214.19,25.01 214.24,25.01 214.29,25.04 214.35,25.10 214.40,25.13 214.46,25.09 214.51,24.94 214.56,24.79 214.62,24.61 214.67,24.33 214.72,24.48 214.78,24.59 214.83,24.54 214.89,24.40 214.94,24.28 214.99,24.23 215.05,24.03 215.10,23.91 215.16,23.76 215.21,23.74 215.26,23.65 215.32,23.54 215.37,23.55 215.42,23.43 215.48,23.36 215.53,23.32 215.59,23.16 215.64,23.07 215.69,23.28 215.75,23.28 215.80,23.00 215.85,23.02 215.91,22.83 215.96,23.24 216.02,23.10 216.07,23.42 216.12,23.05 216.18,22.82 216.23,22.80 216.29,23.09 216.34,22.96 216.39,23.18 216.45,22.74 216.50,22.90 216.55,22.60 216.61,22.91 216.66,22.98 216.72,23.21 216.77,22.80 216.82,22.58 216.88,22.08 216.93,22.29 216.99,21.96 217.04,21.75 217.09,22.10 217.15,22.16 217.20,22.50 217.25,22.74 217.31,22.85 217.36,22.24 217.42,22.02 217.47,21.93 217.52,21.93 217.58,22.00 217.63,22.12 217.68,21.65 217.74,21.55 217.79,21.55 217.85,21.61 217.90,21.67 217.95,21.33 218.01,21.38 218.06,21.13 218.12,20.84 218.17,20.62 218.22,20.54 218.28,20.56 218.33,20.56 218.38,20.57 218.44,20.55 218.49,20.42 218.55,20.16 218.60,19.87 218.65,19.58 218.71,19.72 218.76,19.35 218.82,19.15 218.87,19.45 218.92,19.38 218.98,19.29 219.03,19.58 219.08,19.21 219.14,19.51 219.19,19.36 219.25,18.87 219.30,19.16 219.35,18.78 219.41,18.23 219.46,17.79 219.51,17.47 219.57,17.47 219.62,17.32 219.68,17.90 219.73,18.07 219.78,18.14 219.84,18.05 219.89,17.86 219.95,17.51 220.00,17.91 220.05,17.84 220.11,17.77 220.16,17.70 220.21,17.63 220.27,18.14 220.32,18.03 220.38,18.08 220.43,18.21 220.48,18.34 220.54,17.77 220.59,17.89 220.65,18.02 220.70,17.61 220.75,17.28 220.81,17.54 220.86,17.14 220.91,17.35 220.97,16.81 221.02,16.93 221.08,17.03 221.13,17.10 221.18,17.06 221.24,16.98 221.29,16.34 221.34,16.26 221.40,16.22 221.45,16.52 221.51,16.58 221.56,16.98 221.61,17.01 221.67,17.33 221.72,16.85 221.78,17.02 221.83,16.67 221.88,16.37 221.94,16.58 221.99,16.40 222.04,16.70 222.10,16.93 222.15,16.79 222.21,16.74 222.26,16.64 222.31,16.57 222.37,16.29 222.42,16.47 222.48,16.68 222.53,17.01 222.58,16.78 222.64,17.04 222.69,17.31 222.74,16.97 222.80,17.10 222.85,16.83 222.91,17.07 222.96,17.36 223.01,17.05 223.07,16.66 223.12,16.83 223.17,16.53 223.23,16.85 223.28,17.20 223.34,17.07 223.39,17.23 223.44,17.27 223.50,16.75 223.55,16.79 223.61,16.88 223.66,16.50 223.71,16.66 223.77,16.84 223.82,16.56 223.87,17.02 223.93,17.27 223.98,17.51 224.04,17.39 224.09,17.57 224.14,17.37 224.20,17.43 224.25,17.21 224.31,17.09 224.36,17.02 224.41,16.89 224.47,16.81 224.52,16.71 224.57,16.69 224.63,16.69 224.68,16.73 224.74,16.81 224.79,16.81 224.84,16.71 224.90,16.71 224.95,16.49 225.00,16.42 225.06,16.33 225.11,15.98 225.17,15.92 225.22,15.91 225.27,15.96 225.33,16.01 225.38,16.07 225.44,15.78 225.49,15.83 225.54,15.87 225.60,15.92 225.65,15.50 225.70,15.63 225.76,15.81 225.81,15.63 225.87,15.63 225.92,15.52 225.97,15.50 226.03,15.13 226.08,15.23 226.14,15.52 226.19,15.37 226.24,15.21 226.30,15.05 226.35,14.93 226.40,14.91 226.46,15.02 226.51,15.06 226.57,15.12 226.62,15.21 226.67,15.32 226.73,14.78 226.78,14.86 226.84,14.77 226.89,14.46 226.94,14.56 227.00,14.63 227.05,14.71 227.10,14.82 227.16,14.52 227.21,14.53 227.27,14.46 227.32,14.82 227.37,15.03 227.43,14.89 227.48,15.12 227.53,14.68 227.59,14.37 227.64,14.64 227.70,14.66 227.75,14.98 227.80,14.49 227.86,14.39 227.91,14.36 227.97,14.49 228.02,14.77 228.07,14.63 228.13,15.00 228.18,14.82 228.23,14.70 228.29,14.77 228.34,14.83 228.40,14.71 228.45,14.34 228.50,14.61 228.56,14.41 228.61,14.23 228.67,14.12 228.72,14.44 228.77,14.44 228.83,14.45 228.88,14.48 228.93,14.51 228.99,14.54 229.04,14.58 229.10,14.59 229.15,14.51 229.20,14.39 229.26,14.34 229.31,14.26 229.36,14.18 229.42,14.10 229.47,14.05 229.53,13.99 229.58,13.93 229.63,13.83 229.69,13.67 229.74,13.62 229.80,13.46 229.85,13.38 229.90,13.28 229.96,13.22 230.01,13.06 230.06,12.94 230.12,12.87 230.17,12.78 230.23,12.72 230.28,12.73 230.33,12.80 230.39,12.79 230.44,12.86 230.50,12.92 230.55,12.93 230.60,12.99 230.66,13.03 230.71,13.11 230.76,13.13 230.82,13.01 230.87,12.92 230.93,12.90 230.98,12.89 231.03,12.87 231.09,12.89 231.14,12.91 231.19,12.95 231.25,13.02 231.30,13.14 231.36,13.22 231.41,13.25 231.46,13.15 231.52,13.03 231.57,12.94 231.63,12.76 231.68,12.77 231.73,12.55 231.79,12.50 231.84,12.45 231.89,12.10 231.95,12.14 232.00,12.19 232.06,11.70 232.11,11.70 232.16,11.74 232.22,11.16 232.27,11.12 232.33,11.05 232.38,10.60 232.43,10.49 232.49,10.08 232.54,10.25 232.59,9.92 232.65,9.70 232.70,9.52 232.76,9.40 232.81,9.35 232.86,9.39 232.92,9.45 232.97,9.50 233.02,8.94 233.08,8.99 233.13,9.08 233.19,9.11 233.24,9.11 233.29,9.08 233.35,9.05 233.40,9.01 233.46,8.95 233.51,8.97 233.56,8.99 233.62,8.98 233.67,8.95 233.72,8.89 233.78,8.75 233.83,8.66 233.89,8.01 233.94,8.00 233.99,7.53 234.05,7.63 234.10,7.39 234.16,7.60 234.21,7.45 234.26,7.31 234.32,7.48 234.37,7.11 234.42,6.92 234.48,7.05 234.53,6.93 234.59,6.87 234.64,6.99 234.69,6.82 234.75,6.78 234.80,6.82 234.85,6.65 234.91,6.61 234.96,6.34 235.02,6.29 235.07,6.16 235.12,6.07 235.18,5.96 235.23,5.87 235.29,5.81 235.34,5.63 235.39,5.47 235.45,5.79 235.50,5.65 235.55,5.51 235.61,5.43 235.66,5.42 235.72,5.59 235.77,5.77 235.82,5.93 235.88,6.06 235.93,5.65 235.99,5.76 236.04,5.78 236.09,5.79 236.15,6.30 236.20,5.71 236.25,5.56 236.31,5.30 236.36,5.30 236.42,4.88 236.47,4.88 236.52,6.04 236.58,5.71 236.63,5.71 236.68,5.71 236.74,5.46 236.79,5.46 236.85,5.75 236.90,5.75 236.95,5.75 237.01,4.39 237.06,4.39 237.12,4.53 237.17,4.53 237.22,6.27 237.28,4.40 237.33,4.40 237.38,4.21 237.44,5.87 237.49,5.87 237.55,5.87 237.60,5.87 237.65,5.74 237.71,5.74 237.76,5.74 237.82,4.66 237.87,4.66 237.92,4.66 237.98,5.48 238.03,5.48 238.08,5.48 238.14,5.48 238.19,5.83 238.25,5.83 238.30,5.83 238.35,5.76 238.41,5.76 238.46,5.26 238.52,5.26 238.57,5.26 238.62,6.59 238.68,6.59 238.73,5.25 238.78,6.00 238.84,6.00 238.89,6.00 238.95,6.94 239.00,6.94 239.05,6.03 239.11,6.03 239.16,6.03 239.21,5.18 239.27,6.98 239.32,6.26 239.38,6.26 239.43,6.26 239.48,5.86 239.54,5.86 239.59,5.86 239.65,5.63 239.70,5.63 239.75,5.69 239.81,5.69 239.86,4.00 239.91,4.72 239.97,4.72 240.02,4.72 240.08,4.72 240.13,4.77 240.18,4.77 240.24,4.77 240.29,6.20 240.35,4.30 240.40,4.30 240.45,4.86 240.51,4.86 240.56,4.86 240.61,5.15 240.67,5.15 240.72,5.81 240.78,5.81 240.83,5.81 240.88,6.21 240.94,6.21 240.99,6.21 241.04,6.21 241.10,5.50 241.15,6.13 241.21,6.13 241.26,6.13 241.31,6.40 241.37,6.40 241.42,6.85 241.48,6.85 241.53,6.85 241.58,7.42 241.64,7.42 241.69,7.42 241.74,7.91 241.80,7.91 241.85,8.03 241.91,8.03 241.96,8.03 242.01,8.23 242.07,7.58 242.12,7.58 242.18,7.58 242.23,8.60 242.28,8.44 242.34,8.44 242.39,8.44 242.44,8.55 242.50,8.55 242.55,8.55 242.61,8.72 242.66,8.72 242.71,8.72 242.77,8.83 242.82,8.83 242.87,8.83 242.93,8.97 242.98,8.97 243.04,9.07 243.09,9.07 243.14,9.07 243.20,10.27 243.25,10.27 243.31,10.27 243.36,9.86 243.41,9.86 243.47,9.86 243.52,9.95 243.57,9.95 243.63,10.62 243.68,10.62 243.74,10.62 243.79,11.47 243.84,11.47 243.90,11.47 243.95,11.81 244.01,11.81 244.06,11.72 244.11,11.72 244.17,11.72 244.22,11.58 244.27,11.58 244.33,12.56 244.38,11.98 244.44,11.98 244.49,11.98 244.54,11.98 244.60,12.70 244.65,12.70 244.70,12.70 244.76,12.78 244.81,12.78 244.87,13.12 244.92,13.12 244.97,13.12 245.03,13.58 245.08,13.58 245.14,13.19 245.19,13.37 245.24,13.37 245.30,13.57 245.35,13.57 245.40,13.57 245.46,13.68 245.51,13.68 245.57,13.68 245.62,13.71 245.67,13.71 245.73,13.72 245.78,13.48 245.84,13.48 245.89,13.27 245.94,13.27 246.00,12.90 246.05,12.90 246.10,12.90 246.16,12.37 246.21,12.37 246.27,12.37 246.32,11.64 246.37,12.05 246.43,12.05 246.48,12.05 246.53,10.87 246.59,11.28 246.64,11.28 246.70,11.28 246.75,10.85 246.80,10.85 246.86,10.85 246.91,9.71 246.97,9.71 247.02,10.99 247.07,10.99 247.13,10.11 247.18,10.11 247.23,9.47 247.29,9.47 247.34,9.47 247.40,9.07 247.45,9.07 247.50,9.07 247.56,8.97 247.61,8.97 247.67,8.14 247.72,8.50 247.77,8.50 247.83,7.70 247.88,7.70 247.93,7.70 247.99,7.70 248.04,7.19 248.10,7.19 248.15,7.19 248.20,7.50 248.26,6.65 248.31,6.65 248.36,6.65 248.42,6.86 248.47,6.86 248.53,6.29 248.58,6.28 248.63,6.28 248.69,6.28 248.74,6.39 248.80,6.39 248.85,6.39 248.90,6.25 248.96,6.25 249.01,6.25 249.06,5.75 249.12,6.42 249.17,6.42 249.23,6.18 249.28,6.18 249.33,6.18 249.39,5.97 249.44,6.73 249.50,6.73 249.55,6.47 249.60,6.47 249.66,6.47 249.71,5.90 249.76,5.90 249.82,5.90 249.87,6.24 249.93,6.24 249.98,6.30 250.03,6.30 250.09,6.30 250.14,6.07 250.20,6.07 250.25,6.07 250.30,5.91 250.36,5.91 250.41,6.01 250.46,6.01 250.52,6.01 250.57,6.25 250.63,6.25 250.68,6.24 250.73,6.24 250.79,6.24 250.84,6.09 250.89,6.09 250.95,5.84 251.00,5.84 251.06,6.89 251.11,6.78 251.16,6.78 251.22,5.85 251.27,6.25 251.33,6.25 251.38,6.78 251.43,6.78 251.49,6.78 251.54,6.95 251.59,6.95 251.65,6.95 251.70,6.95 251.76,6.98 251.81,6.98 251.86,6.29 251.92,5.87 251.97,5.87 252.03,5.87 252.08,54.38 252.13,55.77 252.19,55.77 252.24,55.77 252.29,55.94 252.35,55.94 252.40,55.94 252.46,55.94 252.51,55.81 252.56,55.81 252.62,55.81 252.67,55.77 252.72,55.77 252.78,55.77 252.83,55.52 252.89,55.28 252.94,55.28 252.99,54.60 253.05,54.60 253.10,54.60 253.16,54.22 253.21,54.96 253.26,54.96 253.32,54.96 253.37,54.38 253.42,54.51 253.48,54.51 253.53,54.51 253.59,54.51 253.64,53.36 253.69,53.36 253.75,53.36 253.80,53.36 253.86,52.81 253.91,52.81 253.96,52.81 254.02,52.10 254.07,52.10 254.12,52.10 254.18,51.82 254.23,51.82 254.29,51.82 254.34,52.05 254.39,50.42 254.45,51.05 254.50,51.05 254.55,51.05 254.61,51.19 254.66,51.19 254.72,51.19 254.77,50.83 254.82,50.83 254.88,50.43 254.93,50.43 254.99,50.43 255.04,50.01 255.09,50.01 255.15,49.29 255.20,50.30 255.25,50.30 255.31,49.21 255.36,49.21 255.42,49.21 255.47,48.27 255.52,49.56 255.58,49.56 255.63,48.64 255.69,48.64 255.74,48.64 255.79,50.29 255.85,49.40 255.90,49.40 255.95,48.55 256.01,48.55 256.06,48.55 256.12,47.79 256.17,47.79 256.22,47.31 256.28,47.31 256.33,47.31 256.38,46.91 256.44,46.91 256.49,46.91 256.55,46.71 256.60,46.71 256.65,46.96 256.71,46.96 256.76,46.96 256.82,46.78 256.87,46.78 256.92,46.61 256.98,46.61 257.03,46.61 257.08,46.86 257.14,46.86 257.19,46.86 257.25,45.72 257.30,45.72 257.35,45.72 257.41,44.16 257.46,44.16 257.52,45.01 257.57,45.01 257.62,44.07 257.68,44.07 257.73,44.07 257.78,44.85 257.84,43.64 257.89,43.64 257.95,43.64 258.00,42.53 258.05,43.48 258.11,43.48 258.16,43.48 258.21,42.64 258.27,43.39 258.32,43.39 258.38,43.39 258.43,43.65 258.48,43.65 258.54,42.04 258.59,42.33 258.65,42.33 258.70,42.33 258.75,42.83 258.81,42.83 258.86,41.58 258.91,41.58 258.97,43.09 259.02,42.26 259.08,42.26 259.13,42.26 259.18,42.26 259.24,43.14 259.29,43.14 259.35,43.14 259.40,43.00 259.45,43.00 259.51,43.00 259.56,43.49 259.61,43.49 259.67,43.49 259.72,43.68 259.78,42.58 259.83,42.58 259.88,42.29 259.94,43.29 259.99,43.29 260.04,43.29 260.10,42.10 260.15,43.24 260.21,43.24 260.26,43.24 260.31,43.68 260.37,43.68 260.42,43.68 260.48,43.72 260.53,43.72 260.58,43.65 260.64,43.65 260.69,43.65 260.74,43.55 260.80,43.55 260.85,43.61 260.91,43.61 260.96,43.61 261.01,43.62 261.07,43.62 261.12,42.50 261.18,42.66 261.23,42.66 261.28,42.45 261.34,42.45 261.39,42.45 261.44,42.80 261.50,42.80 261.55,42.80 261.61,43.12 261.66,42.33 261.71,42.74 261.77,42.74 261.82,42.74 261.88,42.55 261.93,42.55 261.98,42.19 262.04,41.69 262.09,41.69 262.14,41.69 262.20,41.43 262.25,41.43 262.31,41.25 262.36,41.25 262.41,41.25 262.47,40.86 262.52,40.86 262.57,40.21 262.63,40.21 262.68,40.21 262.74,40.04 262.79,40.04 262.84,38.94 262.90,38.94 262.95,39.90 263.01,39.90 263.06,39.40 263.11,39.40 263.17,39.40 263.22,38.39 263.27,39.01 263.33,39.01 263.38,39.01 263.44,38.00 263.49,38.47 263.54,38.47 263.60,38.47 263.65,38.02 263.71,38.02 263.76,37.06 263.81,37.06 263.87,37.06 263.92,37.03 263.97,38.17 264.03,38.17 264.08,38.31 264.14,38.31 264.19,37.50 264.24,37.17 264.30,37.17 264.35,37.17 264.40,35.86 264.46,35.69 264.51,35.69 264.57,34.50 264.62,34.50 264.67,34.50 264.73,33.68 264.78,33.68 264.84,33.68 264.89,35.28 264.94,35.28 265.00,35.49 265.05,33.75 265.10,33.75 265.16,33.38 265.21,33.38 265.27,33.38 265.32,33.12 265.37,33.12 265.43,32.82 265.48,32.82 265.54,32.82 265.59,32.48 265.64,31.01 265.70,31.01 265.75,31.32 265.80,31.32 265.86,32.09 265.91,32.09 265.97,32.09 266.02,32.97 266.07,32.97 266.13,32.97 266.18,33.37 266.23,33.37 266.29,33.50 266.34,33.29 266.40,33.29 266.45,32.97 266.50,32.97 266.56,32.59 266.61,32.59 266.67,32.59 266.72,32.26 266.77,32.26 266.83,32.26 266.88,32.19 266.93,32.19 266.99,32.02 267.04,32.02 267.10,31.61 267.15,32.12 267.20,32.12 267.26,32.44 267.31,32.44 267.37,32.44 267.42,32.42 267.47,32.42 267.53,32.42 267.58,32.53 267.63,32.53 267.69,32.53 267.74,32.23 267.80,32.23 267.85,32.23 267.90,32.53 267.96,32.53 268.01,31.94 268.06,31.99 268.12,31.99 268.17,31.99 268.23,32.38 268.28,32.38 268.33,32.57 268.39,31.85 268.44,31.85 268.50,32.41 268.55,32.41 268.60,32.41 268.66,32.11 268.71,32.39 268.76,32.39 268.82,32.39 268.87,32.38 268.93,32.23 268.98,32.23 269.03,32.21 269.09,32.21 269.14,32.21 269.20,31.97 269.25,31.97 269.30,31.97 269.36,31.95 269.41,31.95 269.46,31.56 269.52,31.56 269.57,31.78 269.63,31.78 269.68,31.78 269.73,31.61 269.79,31.61 269.84,31.61 269.89,31.44 269.95,31.44 270.00,31.35 270.06,31.20 270.11,31.20 270.16,31.20 270.22,30.96 270.27,30.96 270.33,30.77 270.38,30.77 270.43,30.77 270.49,30.24 270.54,30.24 270.59,30.24 270.65,29.54 270.70,29.54 270.76,29.54 270.81,29.18 270.86,29.18 270.92,29.18 270.97,29.18 271.03,29.31 271.08,29.31 271.13,29.31 271.19,29.73 271.24,29.73 271.29,28.95 271.35,28.95 271.40,28.07 271.46,28.07 271.51,28.07 271.56,27.65 271.62,27.65 271.67,27.65 271.72,27.78 271.78,27.78 271.83,28.05 271.89,28.37 271.94,28.37 271.99,27.89 272.05,27.89 272.10,27.89 272.16,27.91 272.21,27.91 272.26,27.91 272.32,27.32 272.37,27.32 272.42,27.32 272.48,27.60 272.53,27.06 272.59,27.06 272.64,27.06 272.69,26.37 272.75,26.87 272.80,26.56 272.86,26.56 272.91,26.56 272.96,26.26 273.02,26.26 273.07,25.32 273.12,25.09 273.18,25.09 273.23,25.06 273.29,25.06 273.34,25.06 273.39,24.98 273.45,24.98 273.50,25.23 273.56,24.66 273.61,24.66 273.66,24.66 273.72,24.53 273.77,24.53 273.82,24.53 273.88,24.33 273.93,24.33 273.99,24.33 274.04,24.35 274.09,23.79 274.15,23.79 274.20,23.79 274.25,23.90 274.31,23.90 274.36,23.46 274.42,23.46 274.47,22.90 274.52,22.90 274.58,23.06 274.63,23.06 274.69,22.17 274.74,22.17 274.79,23.11 274.85,22.65 274.90,22.65 274.95,22.65 275.01,22.65 275.06,22.44 275.12,22.44 275.17,22.44 275.22,22.44 275.28,21.79 275.33,21.79 275.39,21.79 275.44,22.45 275.49,22.45 275.55,22.45 275.60,22.04 275.65,22.04 275.71,22.04 275.76,22.61 275.82,21.03 275.87,21.03 275.92,21.03 275.98,21.81 276.03,21.81 276.08,20.49 276.14,21.29 276.19,21.29 276.25,21.29 276.30,21.60 276.35,21.60 276.41,21.49 276.46,21.49 276.52,21.49 276.57,21.60 276.62,21.60 276.68,21.59 276.73,21.59 276.78,21.59 276.84,21.64 276.89,20.55 276.95,20.55 277.00,20.91 277.05,20.91 277.11,20.58 277.16,20.58 277.22,20.58 277.27,20.58 277.32,20.34 277.38,20.34 277.43,20.34 277.48,19.53 277.54,19.53 277.59,19.53 277.65,18.44 277.70,18.44 277.75,18.44 277.81,19.49 277.86,18.13 277.91,18.13 277.97,19.03 278.02,19.03 278.08,19.03 278.13,18.37 278.18,18.37 278.24,18.37 278.29,18.37 278.35,17.44 278.40,17.44 278.45,17.44 278.51,17.44 278.56,16.61 278.61,16.61 278.67,17.83 278.72,17.83 278.78,17.83 278.83,17.85 278.88,17.85 278.94,17.40 278.99,17.40 279.05,17.40 279.10,17.11 279.15,17.11 279.21,17.11 279.26,16.88 279.31,16.88 279.37,16.91 279.42,16.91 279.48,16.91 279.53,17.25 279.58,17.25 279.64,17.25 279.69,16.04 279.74,16.04 279.80,16.04 279.85,16.66 279.91,16.66 279.96,16.66 280.01,16.99 280.07,16.99 280.12,17.01 280.18,17.01 280.23,15.11 280.28,15.24 280.34,15.24 280.39,15.84 280.44,15.84 280.50,15.84 280.55,16.93 280.61,16.93 280.66,15.46 280.71,15.46 280.77,16.12 280.82,16.12 280.88,16.12 280.93,15.66 280.98,15.66 281.04,15.66 281.09,16.40 281.14,16.40 281.20,16.26 281.25,16.26 281.31,16.26 281.36,16.44 281.41,16.44 281.47,17.02 281.52,15.55 281.57,15.55 281.63,16.25 281.68,16.25 281.74,16.25 281.79,16.82 281.84,16.82 281.90,16.82 281.95,15.84 282.01,15.84 282.06,15.84 282.11,16.56 282.17,16.56 282.22,16.56 282.27,15.78 282.33,15.78 282.38,16.10 282.44,16.10 282.49,16.10 282.54,16.38 282.60,16.38 282.65,16.38 282.71,16.85 282.76,15.61 282.81,16.36 282.87,16.36 282.92,16.36 282.97,17.09 283.03,17.09 283.08,17.09 283.14,17.41 283.19,16.97 283.24,16.97 283.30,17.03 283.35,17.03 283.40,17.03 283.46,17.05 283.51,16.84 283.57,16.84 283.62,16.84 283.67,16.84 283.73,16.85 283.78,16.85 283.84,16.85 283.89,16.85 283.94,16.85 284.00,16.85 284.05,16.21 284.10,15.97 284.16,15.97 284.21,15.97 284.27,16.02 284.32,16.02 284.37,16.02 284.43,16.24 284.48,16.24 284.54,16.24 284.59,16.48 284.64,16.48 284.70,16.48 284.75,15.65 284.80,15.65 284.86,15.65 284.91,15.65 284.97,14.37 285.02,15.57 285.07,15.57 285.13,14.81 285.18,14.81 285.24,14.81 285.29,14.37 285.34,14.37 285.40,14.35 285.45,14.35 285.50,14.35 285.56,14.56 285.61,14.56 285.67,14.56 285.72,14.68 285.77,14.68 285.83,14.68 285.88,14.68 285.93,14.68 285.99,15.80 286.04,15.80 286.10,14.26 286.15,14.80 286.20,14.80 286.26,14.56 286.31,14.56 286.37,14.56 286.42,15.07 286.47,13.61 286.53,13.61 286.58,14.29 286.63,14.29 286.69,14.29 286.74,13.34 286.80,13.34 286.85,13.34 286.90,13.60 286.96,13.60 287.01,13.60 287.07,14.26 287.12,14.26 287.17,14.28 287.23,14.28 287.28,14.28 287.33,14.17 287.39,14.17 287.44,13.82 287.50,13.82 287.55,13.82 287.60,13.50 287.66,14.52 287.71,14.52 287.76,14.47 287.82,14.47 287.87,14.55 287.93,14.55 287.98,14.55 288.03,14.64 288.09,14.64 288.14,14.85 288.20,14.49 288.25,14.49 288.30,14.28 288.36,14.28 288.41,14.28 288.46,14.20 288.52,14.20 288.57,14.28 288.63,13.77 288.68,13.77 288.73,13.60 288.79,13.60 288.84,13.60 288.90,13.60 288.95,13.09 289.00,13.09 289.06,13.09 289.11,12.88 289.16,12.88 289.22,12.92 289.27,12.80 289.33,12.80 289.38,12.80 289.43,13.37 289.49,13.06 289.54,13.06 289.59,13.06 289.65,13.67 289.70,13.15 289.76,13.15 289.81,13.15 289.86,13.45 289.92,12.97 289.97,12.97 290.03,12.97 290.08,13.14 290.13,13.01 290.19,13.01 290.24,13.01 290.29,13.39 290.35,13.39 290.40,13.26 290.46,13.26 290.51,13.22 290.56,13.22 290.62,13.22 290.67,12.56 290.73,12.56 290.78,12.56 290.83,12.52 290.89,12.52 290.94,12.52 290.99,12.52 291.05,12.75 291.10,12.75 291.16,11.18 291.21,11.12 291.26,11.12 291.32,11.12 291.37,11.41 291.42,10.16 291.48,10.16 291.53,10.16 291.59,9.15 291.64,9.15 291.69,9.15 291.75,8.74 291.80,8.74 291.86,8.80 291.91,8.80 291.96,8.80 292.02,8.97 292.07,8.97 292.12,9.11 292.18,9.11 292.23,9.11 292.29,9.04 292.34,9.04 292.39,8.95 292.45,8.95 292.50,8.95 292.56,8.96 292.61,8.96 292.66,8.96 292.72,8.82 292.77,8.82 292.82,6.99 292.88,6.99 292.93,6.99 292.99,7.23 293.04,7.23 293.09,7.23 293.15,6.72 293.20,6.72 293.25,6.72 293.31,6.72 293.36,6.60 293.42,6.60 293.47,6.60 293.52,6.93 293.58,6.93 293.63,6.75 293.69,6.75 293.74,6.69 293.79,6.69 293.85,6.69 293.90,6.00 293.95,6.00 294.01,5.66 294.06,5.66 294.12,5.66 294.17,5.30 294.22,5.30 294.28,4.88 294.33,4.88 294.39,6.04 294.44,5.71 294.49,5.71 294.55,5.71 294.60,5.46 294.65,5.46 294.71,5.75 294.76,5.75 294.82,5.75 294.87,4.39 294.92,4.39 294.98,4.53 295.03,4.53 295.08,6.27 295.14,4.40 295.19,4.40 295.25,4.21 295.30,5.88 295.35,5.88 295.41,5.88 295.46,5.88 295.52,5.74 295.57,5.74 295.62,5.74 295.68,4.66 295.73,4.66 295.78,4.66 295.84,5.49 295.89,5.49 295.95,5.49 296.00,5.49" />
</svg>