<svg width="300" height="60" xmlns="http://www.w3.org/2000/svg">
  <polyline fill="rgba(255,200,0,0.3)" stroke="#ffbb00" stroke-width="2" points="4.00,9.58 4.16,9.94 4.32,10.71 4.47,11.85 4.63,11.61 4.79,12.22 4.95,12.58 5.10,13.35 5.26,12.96 5.42,12.35 5.58,12.53 5.74,13.07 5.89,14.20 6.05,14.04 6.21,13.68 6.37,13.56 6.53,13.13 6.68,13.05 6.84,13.83 7.00,14.14 7.16,14.08 7.31,13.73 7.47,13.69 7.63,13.33 7.79,12.49 7.95,12.18 8.10,13.08 8.26,13.46 8.42,13.84 8.58,14.68 8.74,13.98 8.89,12.44 9.05,11.47 9.21,12.25 9.37,12.27 9.52,11.92 9.68,11.80 9.84,12.18 10.00,12.52 10.16,13.19 10.31,13.50 10.47,12.10 10.63,12.41 10.79,13.59 10.94,13.39 11.10,13.26 11.26,13.77 11.42,14.31 11.58,14.42 11.73,15.29 11.89,15.65 12.05,15.79 12.21,15.35 12.37,14.40 12.52,13.89 12.68,12.72 12.84,11.89 13.00,11.89 13.15,11.99 13.31,12.26 13.47,12.47 13.63,12.68 13.79,12.54 13.94,12.10 14.10,11.90 14.26,11.95 14.42,12.05 14.58,12.83 14.73,13.44 14.89,13.25 15.05,13.29 15.21,12.80 15.36,12.59 15.52,12.74 15.68,12.92 15.84,12.65 16.00,12.02 16.15,11.58 16.31,10.97 16.47,11.61 16.63,12.14 16.78,11.26 16.94,11.48 17.10,11.66 17.26,11.24 17.42,11.34 17.57,11.08 17.73,11.94 17.89,12.68 18.05,12.84 18.21,12.87 18.36,13.28 18.52,13.09 18.68,12.29 18.84,11.20 18.99,10.72 19.15,9.09 19.31,9.42 19.47,10.55 19.63,10.81 19.78,10.73 19.94,10.45 20.10,10.06 20.26,9.71 20.42,9.44 20.57,9.44 20.73,10.00 20.89,10.34 21.05,10.31 21.20,9.61 21.36,9.04 21.52,8.46 21.68,7.90 21.84,7.58 21.99,7.19 22.15,6.20 22.31,5.17 22.47,5.21 22.62,6.65 22.78,6.29 22.94,6.64 23.10,6.74 23.26,6.95 23.41,7.70 23.57,8.87 23.73,8.95 23.89,8.30 24.05,6.63 24.20,6.17 24.36,4.99 24.52,5.05 24.68,5.82 24.83,6.21 24.99,6.38 25.15,6.51 25.31,6.90 25.47,7.51 25.62,7.26 25.78,7.28 25.94,7.33 26.10,6.80 26.26,6.75 26.41,6.85 26.57,8.00 26.73,9.48 26.89,10.24 27.04,10.93 27.20,10.24 27.36,8.95 27.52,8.10 27.68,7.86 27.83,8.03 27.99,8.61 28.15,8.66 28.31,8.36 28.46,8.22 28.62,8.02 28.78,55.51 28.94,55.51 29.10,54.81 29.25,54.60 29.41,53.94 29.57,53.44 29.73,52.91 29.89,52.06 30.04,51.34 30.20,50.42 30.36,50.34 30.52,50.61 30.67,51.41 30.83,51.30 30.99,51.40 31.15,51.73 31.31,52.12 31.46,52.18 31.62,52.10 31.78,52.12 31.94,51.59 32.10,51.46 32.25,51.39 32.41,51.17 32.57,50.87 32.73,50.66 32.88,50.72 33.04,50.16 33.20,49.54 33.36,49.74 33.52,50.25 33.67,51.19 33.83,51.49 33.99,51.77 34.15,52.41 34.30,52.98 34.46,52.89 34.62,52.95 34.78,51.90 34.94,51.56 35.09,51.29 35.25,50.97 35.41,50.61 35.57,50.10 35.73,49.65 35.88,49.23 36.04,48.87 36.20,48.49 36.36,48.00 36.51,47.47 36.67,47.29 36.83,47.11 36.99,46.61 37.15,46.25 37.30,45.67 37.46,44.64 37.62,43.73 37.78,42.82 37.94,42.20 38.09,41.54 38.25,41.15 38.41,41.41 38.57,41.57 38.72,41.38 38.88,41.14 39.04,40.83 39.20,40.05 39.36,39.20 39.51,38.08 39.67,36.65 39.83,35.42 39.99,35.06 40.14,35.54 40.30,36.58 40.46,36.58 40.62,35.93 40.78,35.39 40.93,34.17 41.09,33.10 41.25,32.58 41.41,32.83 41.57,33.80 41.72,32.46 41.88,31.33 42.04,30.38 42.20,30.09 42.35,30.62 42.51,31.53 42.67,31.95 42.83,32.69 42.99,33.19 43.14,33.77 43.30,31.71 43.46,30.31 43.62,29.86 43.78,29.86 43.93,29.91 44.09,29.68 44.25,29.96 44.41,29.44 44.56,29.21 44.72,29.04 44.88,28.06 45.04,26.81 45.20,25.58 45.35,25.07 45.51,24.75 45.67,24.68 45.83,24.86 45.98,25.18 46.14,25.42 46.30,25.17 46.46,24.65 46.62,24.15 46.77,23.76 46.93,23.40 47.09,23.07 47.25,22.74 47.41,22.45 47.56,22.07 47.72,21.08 47.88,19.64 48.04,18.12 48.19,16.90 48.35,16.08 48.51,15.35 48.67,15.01 48.83,14.95 48.98,15.08 49.14,15.17 49.30,15.36 49.46,15.78 49.62,16.75 49.77,17.16 49.93,17.08 50.09,16.68 50.25,15.63 50.40,15.04 50.56,14.48 50.72,14.40 50.88,14.29 51.04,13.98 51.19,13.93 51.35,13.75 51.51,13.46 51.67,13.41 51.82,13.57 51.98,13.47 52.14,13.35 52.30,13.27 52.46,13.23 52.61,13.19 52.77,12.76 52.93,12.16 53.09,11.64 53.25,10.99 53.40,10.60 53.56,10.21 53.72,10.09 53.88,10.04 54.03,10.25 54.19,10.54 54.35,11.30 54.51,12.07 54.67,12.26 54.82,12.27 54.98,11.79 55.14,11.51 55.30,11.27 55.46,11.10 55.61,11.01 55.77,11.09 55.93,11.32 56.09,12.14 56.24,13.49 56.40,13.43 56.56,13.14 56.72,12.10 56.88,12.19 57.03,12.33 57.19,12.73 57.35,13.07 57.51,13.53 57.66,14.02 57.82,14.34 57.98,14.15 58.14,13.01 58.30,13.59 58.45,14.59 58.61,14.70 58.77,14.92 58.93,15.65 59.09,15.91 59.24,15.16 59.40,14.51 59.56,14.22 59.72,13.68 59.87,13.79 60.03,13.73 60.19,13.83 60.35,14.23 60.51,13.23 60.66,13.00 60.82,10.65 60.98,8.92 61.14,6.98 61.30,5.48 61.45,4.71 61.61,5.60 61.77,6.27 61.93,7.44 62.08,8.57 62.24,9.11 62.40,9.59 62.56,55.51 62.72,55.50 62.87,54.79 63.03,54.60 63.19,53.96 63.35,53.42 63.50,52.91 63.66,52.08 63.82,51.44 63.98,50.36 64.14,50.24 64.29,50.68 64.45,51.42 64.61,51.31 64.77,51.40 64.93,51.77 65.08,52.13 65.24,52.18 65.40,52.12 65.56,52.17 65.71,51.60 65.87,51.47 66.03,51.38 66.19,51.18 66.35,50.87 66.50,50.69 66.66,50.72 66.82,50.40 66.98,49.55 67.14,49.63 67.29,50.39 67.45,51.18 67.61,51.48 67.77,51.78 67.92,52.50 68.08,52.95 68.24,53.01 68.40,52.92 68.56,51.84 68.71,51.54 68.87,51.28 69.03,50.95 69.19,50.61 69.34,50.11 69.50,49.62 69.66,49.25 69.82,48.87 69.98,48.45 70.13,48.01 70.29,47.47 70.45,47.27 70.61,47.08 70.77,46.64 70.92,46.25 71.08,45.72 71.24,44.78 71.40,43.78 71.55,42.91 71.71,42.20 71.87,41.61 72.03,41.24 72.19,41.26 72.34,41.53 72.50,41.43 72.66,41.16 72.82,40.82 72.98,39.96 73.13,39.14 73.29,38.03 73.45,36.70 73.61,35.43 73.76,35.12 73.92,35.51 74.08,36.61 74.24,36.50 74.40,35.83 74.55,35.55 74.71,34.21 74.87,33.19 75.03,32.75 75.18,32.86 75.34,33.88 75.50,32.36 75.66,31.46 75.82,30.55 75.97,29.89 76.13,30.85 76.29,31.53 76.45,32.05 76.61,32.70 76.76,33.13 76.92,33.79 77.08,31.75 77.24,30.18 77.39,29.90 77.55,29.87 77.71,29.83 77.87,29.64 78.03,29.87 78.18,29.41 78.34,29.21 78.50,29.05 78.66,28.06 78.82,26.88 78.97,25.63 79.13,25.10 79.29,24.69 79.45,24.68 79.60,24.91 79.76,25.14 79.92,25.42 80.08,25.13 80.24,24.62 80.39,24.15 80.55,23.78 80.71,23.33 80.87,23.09 81.02,22.75 81.18,22.42 81.34,22.04 81.50,21.16 81.66,19.59 81.81,18.15 81.97,16.88 82.13,15.96 82.29,15.37 82.45,14.92 82.60,14.86 82.76,15.23 82.92,15.03 83.08,15.29 83.23,15.78 83.39,16.69 83.55,17.16 83.71,17.17 83.87,16.64 84.02,15.67 84.18,14.98 84.34,14.53 84.50,14.33 84.66,14.12 84.81,13.97 84.97,14.03 85.13,13.77 85.29,13.48 85.44,13.33 85.60,13.52 85.76,13.50 85.92,13.28 86.08,13.29 86.23,13.36 86.39,13.17 86.55,12.70 86.71,12.13 86.86,11.55 87.02,10.96 87.18,10.46 87.34,10.10 87.50,10.08 87.65,10.06 87.81,10.19 87.97,10.48 88.13,11.26 88.29,12.03 88.44,12.28 88.60,12.17 88.76,11.84 88.92,11.53 89.07,11.25 89.23,11.10 89.39,10.97 89.55,11.05 89.71,11.34 89.86,12.20 90.02,13.24 90.18,13.25 90.34,13.05 90.50,12.15 90.65,12.20 90.81,12.31 90.97,12.70 91.13,13.12 91.28,13.53 91.44,13.99 91.60,14.36 91.76,13.93 91.92,12.92 92.07,13.70 92.23,14.50 92.39,14.72 92.55,14.87 92.70,15.55 92.86,15.88 93.02,15.38 93.18,14.54 93.34,14.27 93.49,13.87 93.65,13.80 93.81,13.71 93.97,14.07 94.13,14.26 94.28,13.40 94.44,13.02 94.60,10.76 94.76,8.74 94.91,6.77 95.07,5.39 95.23,4.69 95.39,5.71 95.55,6.25 95.70,7.25 95.86,8.46 96.02,9.15 96.18,9.50 96.34,9.92 96.49,10.68 96.65,11.61 96.81,11.49 96.97,12.33 97.12,12.78 97.28,13.36 97.44,13.01 97.60,12.41 97.76,12.46 97.91,13.21 98.07,14.19 98.23,14.15 98.39,13.47 98.54,13.49 98.70,13.04 98.86,12.99 99.02,13.85 99.18,14.05 99.33,14.07 99.49,13.81 99.65,13.68 99.81,13.38 99.97,12.51 100.12,12.34 100.28,12.95 100.44,13.65 100.60,13.83 100.75,14.68 100.91,13.97 101.07,12.36 101.23,11.57 101.39,12.23 101.54,12.27 101.70,12.07 101.86,11.81 102.02,11.94 102.18,12.44 102.33,13.20 102.49,13.54 102.65,12.12 102.81,12.27 102.96,13.68 103.12,13.41 103.28,13.33 103.44,13.74 103.60,14.30 103.75,14.42 103.91,15.32 104.07,15.68 104.23,15.77 104.38,15.51 104.54,14.52 104.70,13.89 104.86,12.91 105.02,11.89 105.17,11.97 105.33,11.98 105.49,12.31 105.65,12.59 105.81,12.70 105.96,12.44 106.12,12.08 106.28,11.94 106.44,11.90 106.59,12.15 106.75,12.88 106.91,13.42 107.07,13.24 107.23,13.46 107.38,12.81 107.54,12.58 107.70,12.78 107.86,13.10 108.02,12.59 108.17,12.02 108.33,11.42 108.49,10.98 108.65,11.69 108.80,12.11 108.96,11.31 109.12,11.42 109.28,11.74 109.44,11.49 109.59,11.27 109.75,11.22 109.91,11.76 110.07,12.68 110.22,12.86 110.38,12.88 110.54,13.34 110.70,13.22 110.86,12.37 111.01,11.20 111.17,10.74 111.33,9.18 111.49,9.43 111.65,10.62 111.80,10.80 111.96,10.74 112.12,10.49 112.28,10.07 112.43,9.71 112.59,9.44 112.75,9.37 112.91,10.06 113.07,10.46 113.22,10.27 113.38,9.67 113.54,8.86 113.70,8.45 113.86,7.96 114.01,7.56 114.17,7.21 114.33,6.35 114.49,5.14 114.64,5.29 114.80,6.66 114.96,6.39 115.12,6.64 115.28,6.74 115.43,6.94 115.59,7.86 115.75,8.97 115.91,8.81 116.06,8.27 116.22,6.63 116.38,6.23 116.54,4.87 116.70,5.13 116.85,5.94 117.01,6.23 117.17,6.38 117.33,6.50 117.49,6.85 117.64,7.44 117.80,7.07 117.96,7.30 118.12,7.38 118.27,6.77 118.43,6.74 118.59,6.84 118.75,7.97 118.91,9.45 119.06,10.17 119.22,10.92 119.38,10.02 119.54,8.92 119.70,8.14 119.85,7.77 120.01,7.97 120.17,8.59 120.33,8.61 120.48,8.35 120.64,8.19 120.80,7.95 120.96,55.46 121.12,55.51 121.27,55.00 121.43,54.62 121.59,54.06 121.75,53.51 121.90,52.98 122.06,52.21 122.22,51.35 122.38,50.71 122.54,50.64 122.69,50.78 122.85,51.55 123.01,51.32 123.17,51.46 123.33,51.74 123.48,52.15 123.64,52.15 123.80,52.14 123.96,52.16 124.11,51.72 124.27,51.44 124.43,51.46 124.59,51.23 124.75,50.95 124.90,50.83 125.06,50.81 125.22,50.71 125.38,49.71 125.54,49.64 125.69,50.18 125.85,51.32 126.01,51.52 126.17,51.83 126.32,52.22 126.48,53.01 126.64,52.74 126.80,52.83 126.96,51.97 127.11,51.66 127.27,51.34 127.43,51.03 127.59,50.70 127.74,50.28 127.90,49.72 128.06,49.29 128.22,48.95 128.38,48.57 128.53,47.90 128.69,47.60 128.85,47.36 129.01,47.01 129.17,46.67 129.32,46.31 129.48,45.76 129.64,44.99 129.80,43.88 129.95,43.25 130.11,42.33 130.27,41.32 130.43,41.14 130.59,41.36 130.74,41.60 130.90,41.54 131.06,41.12 131.22,40.78 131.38,40.04 131.53,39.21 131.69,38.27 131.85,36.95 132.01,35.26 132.16,34.91 132.32,35.56 132.48,36.71 132.64,36.71 132.80,35.66 132.95,35.78 133.11,34.68 133.27,32.97 133.43,32.46 133.58,33.18 133.74,34.19 133.90,32.16 134.06,31.85 134.22,30.48 134.37,30.24 134.53,30.34 134.69,31.58 134.85,32.49 135.01,32.76 135.16,33.38 135.32,33.70 135.48,31.63 135.64,30.22 135.79,29.92 135.95,29.96 136.11,29.86 136.27,29.76 136.43,30.15 136.58,29.41 136.74,29.27 136.90,29.13 137.06,28.31 137.22,26.83 137.37,25.63 137.53,24.92 137.69,24.94 137.85,24.80 138.00,24.82 138.16,25.49 138.32,25.46 138.48,25.08 138.64,24.76 138.79,24.24 138.95,23.85 139.11,23.40 139.27,23.16 139.42,22.82 139.58,22.47 139.74,22.16 139.90,21.26 140.06,19.32 140.21,18.06 140.37,16.90 140.53,16.05 140.69,15.31 140.85,15.02 141.00,14.67 141.16,15.38 141.32,15.11 141.48,15.69 141.63,15.84 141.79,16.48 141.95,17.13 142.11,17.06 142.27,16.84 142.42,16.00 142.58,15.25 142.74,14.27 142.90,14.29 143.06,14.05 143.21,13.88 143.37,14.00 143.53,13.88 143.69,13.51 143.84,13.33 144.00,13.36 144.16,13.62 144.32,13.21 144.48,13.49 144.63,13.64 144.79,12.98 144.95,12.83 145.11,12.28 145.26,11.61 145.42,11.10 145.58,10.41 145.74,10.14 145.90,10.05 146.05,10.09 146.21,10.53 146.37,10.51 146.53,11.09 146.69,12.06 146.84,12.55 147.00,11.94 147.16,11.83 147.32,11.66 147.47,11.28 147.63,11.09 147.79,11.10 147.95,11.09 148.11,11.29 148.26,11.82 148.42,12.86 148.58,13.08 148.74,12.71 148.90,12.16 149.05,12.24 149.21,11.96 149.37,12.71 149.53,13.04 149.68,13.66 149.84,14.03 150.00,14.39 150.16,13.50 150.32,13.30 150.47,13.68 150.63,13.98 150.79,14.76 150.95,15.16 151.10,15.79 151.26,16.05 151.42,15.54 151.58,14.61 151.74,14.34 151.89,14.01 152.05,13.89 152.21,13.71 152.37,13.64 152.53,14.41 152.68,13.35 152.84,13.11 153.00,10.94 153.16,9.18 153.31,6.68 153.47,5.32 153.63,4.27 153.79,5.27 153.95,6.00 154.10,7.64 154.26,8.65 154.42,9.13 154.58,9.34 154.74,9.59 154.89,10.69 155.05,11.41 155.21,11.85 155.37,12.47 155.52,12.92 155.68,13.41 155.84,13.24 156.00,12.12 156.16,12.71 156.31,13.27 156.47,14.34 156.63,14.44 156.79,13.69 156.94,13.32 157.10,13.07 157.26,13.47 157.42,14.17 157.58,13.98 157.73,14.12 157.89,13.90 158.05,13.13 158.21,13.30 158.37,11.63 158.52,11.93 158.68,12.23 158.84,13.11 159.00,13.48 159.15,14.73 159.31,13.81 159.47,12.76 159.63,11.47 159.79,11.94 159.94,12.12 160.10,12.07 160.26,11.67 160.42,11.64 160.58,12.28 160.73,13.04 160.89,13.27 161.05,11.99 161.21,12.33 161.36,13.38 161.52,13.31 161.68,13.17 161.84,13.65 162.00,14.19 162.15,14.64 162.31,15.48 162.47,15.49 162.63,15.89 162.78,15.78 162.94,14.45 163.10,13.95 163.26,12.89 163.42,11.89 163.57,11.84 163.73,11.91 163.89,12.14 164.05,12.40 164.21,12.68 164.36,12.75 164.52,11.97 164.68,12.09 164.84,11.90 164.99,12.06 165.15,12.39 165.31,13.38 165.47,13.33 165.63,13.10 165.78,12.88 165.94,12.63 166.10,12.63 166.26,13.39 166.42,12.53 166.57,12.07 166.73,11.35 166.89,11.27 167.05,11.85 167.20,12.22 167.36,11.12 167.52,12.12 167.68,11.77 167.84,11.99 167.99,10.98 168.15,11.36 168.31,12.32 168.47,12.66 168.62,12.92 168.78,12.99 168.94,13.08 169.10,13.37 169.26,12.68 169.41,11.28 169.57,10.76 169.73,9.05 169.89,9.33 170.05,10.68 170.20,10.91 170.36,10.76 170.52,10.56 170.68,10.11 170.83,9.77 170.99,9.55 171.15,9.73 171.31,9.64 171.47,10.22 171.62,10.52 171.78,9.43 171.94,9.28 172.10,8.55 172.26,7.91 172.41,7.61 172.57,7.12 172.73,6.23 172.89,5.39 173.04,5.39 173.20,6.64 173.36,6.30 173.52,6.73 173.68,6.83 173.83,6.97 173.99,7.84 174.15,8.95 174.31,9.05 174.46,8.36 174.62,6.73 174.78,6.40 174.94,5.12 175.10,4.85 175.25,5.74 175.41,6.35 175.57,6.47 175.73,6.62 175.89,6.93 176.04,7.04 176.20,7.19 176.36,7.58 176.52,7.20 176.67,6.85 176.83,6.85 176.99,6.97 177.15,7.84 177.31,9.51 177.46,10.17 177.62,10.96 177.78,9.90 177.94,9.31 178.10,8.55 178.25,7.88 178.41,8.07 178.57,8.42 178.73,8.45 178.88,8.37 179.04,8.29 179.20,7.96 179.36,55.56 179.52,55.50 179.67,54.84 179.83,54.50 179.99,53.80 180.15,53.32 180.30,52.70 180.46,52.17 180.62,51.79 180.78,51.47 180.94,51.29 181.09,51.34 181.25,51.36 181.41,51.17 181.57,51.47 181.73,51.94 181.88,51.94 182.04,52.21 182.20,52.38 182.36,51.87 182.51,51.80 182.67,51.57 182.83,51.36 182.99,51.14 183.15,50.82 183.30,50.51 183.46,50.13 183.62,50.25 183.78,49.63 183.94,50.34 184.09,50.97 184.25,51.55 184.41,51.94 184.57,52.09 184.72,52.12 184.88,52.86 185.04,52.81 185.20,52.68 185.36,51.98 185.51,51.98 185.67,51.39 185.83,50.87 185.99,50.63 186.14,50.30 186.30,49.69 186.46,49.33 186.62,48.79 186.78,48.53 186.93,47.84 187.09,47.62 187.25,47.72 187.41,47.31 187.57,46.55 187.72,46.21 187.88,45.68 188.04,44.94 188.20,44.19 188.35,43.47 188.51,42.28 188.67,41.91 188.83,41.75 188.99,41.81 189.14,41.91 189.30,41.60 189.46,40.92 189.62,40.60 189.78,39.96 189.93,39.03 190.09,38.09 190.25,37.26 190.41,35.46 190.56,35.11 190.72,35.16 190.88,36.95 191.04,36.33 191.20,35.57 191.35,35.74 191.51,35.13 191.67,34.16 191.83,33.04 191.98,33.87 192.14,32.82 192.30,31.92 192.46,32.11 192.62,30.43 192.77,31.24 192.93,30.60 193.09,31.43 193.25,31.61 193.41,32.97 193.56,33.54 193.72,32.97 193.88,32.79 194.04,30.27 194.19,29.76 194.35,29.76 194.51,29.86 194.67,29.79 194.83,29.55 194.98,29.26 195.14,28.89 195.30,28.89 195.46,28.28 195.62,27.30 195.77,26.12 195.93,25.30 196.09,24.82 196.25,24.60 196.40,24.53 196.56,24.60 196.72,24.70 196.88,24.65 197.04,24.27 197.19,24.35 197.35,23.64 197.51,23.12 197.67,22.82 197.82,22.64 197.98,22.46 198.14,22.22 198.30,19.92 198.46,19.68 198.61,17.78 198.77,16.11 198.93,16.42 199.09,15.98 199.25,14.95 199.40,15.68 199.56,15.06 199.72,14.69 199.88,16.63 200.03,16.92 200.19,17.45 200.35,18.06 200.51,16.64 200.67,16.93 200.82,16.94 200.98,14.80 201.14,15.06 201.30,13.88 201.46,14.63 201.61,13.94 201.77,13.53 201.93,14.54 202.09,13.39 202.24,13.55 202.40,13.96 202.56,13.19 202.72,13.61 202.88,13.61 203.03,14.15 203.19,13.73 203.35,13.27 203.51,12.72 203.66,11.98 203.82,11.32 203.98,10.14 204.14,10.45 204.30,10.90 204.45,10.07 204.61,10.75 204.77,10.35 204.93,11.39 205.09,12.51 205.24,12.85 205.40,11.95 205.56,12.54 205.72,11.92 205.87,11.43 206.03,10.97 206.19,10.34 206.35,11.96 206.51,11.99 206.66,13.09 206.82,13.89 206.98,14.08 207.14,13.88 207.30,12.92 207.45,12.14 207.61,11.39 207.77,12.76 207.93,12.85 208.08,13.30 208.24,14.08 208.40,14.73 208.56,12.54 208.72,14.25 208.87,12.92 209.03,14.09 209.19,15.67 209.35,15.75 209.50,15.38 209.66,16.95 209.82,16.31 209.98,15.22 210.14,14.45 210.29,13.99 210.45,13.86 210.61,14.02 210.77,14.19 210.93,14.17 211.08,13.77 211.24,12.91 211.40,11.20 211.56,9.95 211.71,7.10 211.87,5.12 212.03,5.85 212.19,6.44 212.35,6.96 212.50,7.73 212.66,10.05 212.82,10.00 212.98,8.78 213.14,10.36 213.29,11.09 213.45,12.30 213.61,12.30 213.77,13.91 213.92,13.52 214.08,13.29 214.24,13.91 214.40,13.08 214.56,14.44 214.71,13.65 214.87,15.16 215.03,14.80 215.19,13.18 215.34,14.96 215.50,13.95 215.66,13.22 215.82,13.16 215.98,13.59 216.13,14.16 216.29,14.68 216.45,13.09 216.61,13.85 216.77,12.69 216.92,12.28 217.08,12.28 217.24,12.56 217.40,13.04 217.55,14.33 217.71,13.85 217.87,12.50 218.03,12.50 218.19,13.58 218.34,13.61 218.50,13.42 218.66,13.17 218.82,13.09 218.98,13.37 219.13,13.51 219.29,13.26 219.45,12.77 219.61,12.89 219.76,13.41 219.92,13.67 220.08,13.83 220.24,14.13 220.40,14.50 220.55,14.91 220.71,15.05 220.87,15.80 221.03,15.46 221.18,16.48 221.34,14.74 221.50,14.57 221.66,13.65 221.82,12.68 221.97,12.57 222.13,12.65 222.29,12.86 222.45,13.11 222.61,13.51 222.76,13.51 222.92,11.63 223.08,11.76 223.24,12.11 223.39,12.74 223.55,12.93 223.71,12.71 223.87,12.96 224.03,13.59 224.18,12.94 224.34,12.94 224.50,12.60 224.66,13.45 224.82,13.31 224.97,12.54 225.13,10.83 225.29,10.91 225.45,11.37 225.60,11.51 225.76,12.05 225.92,12.67 226.08,10.91 226.24,11.05 226.39,11.18 226.55,11.49 226.71,12.07 226.87,12.81 227.02,13.43 227.18,13.38 227.34,12.96 227.50,13.35 227.66,12.16 227.81,11.10 227.97,9.98 228.13,9.03 228.29,9.03 228.45,10.29 228.60,10.82 228.76,10.97 228.92,10.77 229.08,10.41 229.23,8.75 229.39,9.19 229.55,11.03 229.71,9.62 229.87,9.64 230.02,11.29 230.18,10.13 230.34,9.24 230.50,8.60 230.66,8.05 230.81,7.43 230.97,6.76 231.13,5.92 231.29,6.40 231.44,5.72 231.60,6.22 231.76,6.24 231.92,6.22 232.08,7.57 232.23,7.24 232.39,8.64 232.55,7.85 232.71,7.86 232.86,8.64 233.02,6.96 233.18,6.20 233.34,4.95 233.50,5.62 233.65,5.75 233.81,6.45 233.97,5.98 234.13,6.83 234.29,6.83 234.44,7.56 234.60,7.71 234.76,7.53 234.92,7.53 235.07,6.72 235.23,6.25 235.39,7.25 235.55,8.43 235.71,10.17 235.86,9.24 236.02,10.88 236.18,10.47 236.34,9.70 236.50,8.19 236.65,8.71 236.81,7.91 236.97,8.36 237.13,8.98 237.28,8.43 237.44,6.74 237.60,7.25 237.76,56.00 237.92,55.15 238.07,55.15 238.23,54.08 238.39,54.08 238.55,54.08 238.70,51.69 238.86,51.69 239.02,51.69 239.18,51.04 239.34,51.04 239.49,51.05 239.65,51.05 239.81,51.05 239.97,52.03 240.13,52.03 240.28,52.03 240.44,52.03 240.60,52.38 240.76,51.16 240.91,51.16 241.07,51.16 241.23,51.46 241.39,50.78 241.55,50.78 241.70,50.78 241.86,51.30 242.02,51.30 242.18,50.87 242.34,50.87 242.49,50.87 242.65,52.11 242.81,52.11 242.97,52.11 243.12,52.38 243.28,53.53 243.44,53.53 243.60,52.36 243.76,52.11 243.91,52.11 244.07,51.51 244.23,51.51 244.39,50.34 244.54,50.34 244.70,49.79 244.86,49.79 245.02,48.63 245.18,48.63 245.33,48.63 245.49,48.33 245.65,48.33 245.81,47.13 245.97,46.37 246.12,46.37 246.28,46.37 246.44,44.65 246.60,44.65 246.75,44.65 246.91,43.18 247.07,43.18 247.23,42.38 247.39,42.38 247.54,42.38 247.70,41.48 247.86,41.48 248.02,40.38 248.18,40.38 248.33,38.78 248.49,36.78 248.65,36.78 248.81,36.78 248.96,36.53 249.12,36.53 249.28,35.59 249.44,35.59 249.60,35.59 249.75,36.57 249.91,36.57 250.07,36.57 250.23,32.97 250.38,32.97 250.54,32.97 250.70,27.72 250.86,29.43 251.02,29.43 251.17,29.43 251.33,31.08 251.49,31.08 251.65,31.08 251.81,31.08 251.96,29.67 252.12,29.67 252.28,30.73 252.44,30.73 252.59,29.85 252.75,29.85 252.91,29.85 253.07,29.31 253.23,29.31 253.38,29.31 253.54,27.26 253.70,27.26 253.86,27.26 254.02,27.26 254.17,25.08 254.33,25.08 254.49,25.08 254.65,24.56 254.80,24.56 254.96,24.56 255.12,23.89 255.28,23.89 255.44,23.89 255.59,21.60 255.75,21.60 255.91,21.60 256.07,20.34 256.22,20.34 256.38,20.34 256.54,19.62 256.70,19.62 256.86,19.62 257.01,14.42 257.17,16.29 257.33,16.29 257.49,16.29 257.65,13.62 257.80,19.22 257.96,19.22 258.12,18.83 258.28,18.83 258.43,19.88 258.59,19.88 258.75,19.88 258.91,20.44 259.07,20.44 259.22,20.44 259.38,15.81 259.54,15.81 259.70,15.81 259.86,17.89 260.01,17.89 260.17,13.66 260.33,16.46 260.49,16.46 260.64,16.46 260.80,13.92 260.96,13.92 261.12,17.13 261.28,17.13 261.43,15.14 261.59,15.14 261.75,15.14 261.91,13.26 262.06,13.26 262.22,13.26 262.38,11.00 262.54,11.00 262.70,11.00 262.85,12.84 263.01,12.84 263.17,12.84 263.33,15.70 263.49,15.70 263.64,12.94 263.80,12.94 263.96,17.58 264.12,15.64 264.27,15.64 264.43,15.64 264.59,13.11 264.75,13.11 264.91,13.11 265.06,15.80 265.22,15.80 265.38,15.80 265.54,15.10 265.70,15.10 265.85,15.28 266.01,14.44 266.17,14.44 266.33,14.44 266.48,14.44 266.64,15.51 266.80,15.51 266.96,15.51 267.12,14.87 267.27,14.87 267.43,14.87 267.59,17.97 267.75,17.97 267.90,15.41 268.06,20.00 268.22,20.00 268.38,20.00 268.54,18.02 268.69,18.02 268.85,18.02 269.01,17.77 269.17,17.77 269.33,17.77 269.48,16.62 269.64,16.62 269.80,16.62 269.96,10.57 270.11,10.57 270.27,10.57 270.43,12.51 270.59,12.51 270.75,12.51 270.90,14.34 271.06,14.34 271.22,13.55 271.38,13.55 271.54,13.55 271.69,13.55 271.85,17.05 272.01,17.05 272.17,17.05 272.32,17.05 272.48,14.68 272.64,14.68 272.80,20.01 272.96,20.01 273.11,13.73 273.27,18.06 273.43,18.06 273.59,18.06 273.74,18.06 273.90,14.12 274.06,14.12 274.22,14.12 274.38,13.66 274.53,13.66 274.69,13.66 274.85,15.41 275.01,15.41 275.17,15.41 275.32,12.23 275.48,12.23 275.64,12.23 275.80,12.23 275.95,15.04 276.11,15.04 276.27,15.04 276.43,15.04 276.59,17.16 276.74,17.16 276.90,17.16 277.06,16.98 277.22,16.98 277.38,13.78 277.53,13.78 277.69,13.78 277.85,13.36 278.01,13.36 278.16,13.36 278.32,15.75 278.48,15.75 278.64,16.88 278.80,16.88 278.95,16.88 279.11,15.29 279.27,15.29 279.43,15.29 279.58,19.00 279.74,15.62 279.90,15.62 280.06,15.62 280.22,14.37 280.37,14.37 280.53,14.88 280.69,14.88 280.85,14.88 281.01,15.30 281.16,15.30 281.32,15.61 281.48,15.61 281.64,15.61 281.79,17.45 281.95,14.68 282.11,14.68 282.27,14.68 282.43,15.42 282.58,15.42 282.74,15.42 282.90,10.72 283.06,12.95 283.22,12.95 283.37,12.95 283.53,12.39 283.69,12.39 283.85,12.39 284.00,10.74 284.16,12.50 284.32,12.50 284.48,12.50 284.64,12.95 284.79,12.95 284.95,13.94 285.11,13.94 285.27,13.94 285.42,14.27 285.58,14.27 285.74,12.25 285.90,12.25 286.06,12.25 286.21,9.65 286.37,9.65 286.53,9.65 286.69,10.19 286.85,10.19 287.00,10.74 287.16,10.74 287.32,10.74 287.48,11.04 287.63,11.04 287.79,11.04 287.95,14.04 288.11,14.04 288.27,9.86 288.42,14.32 288.58,14.32 288.74,14.32 288.90,11.52 289.06,11.52 289.21,11.52 289.37,9.10 289.53,9.10 289.69,9.10 289.84,6.47 290.00,6.47 290.16,7.21 290.32,7.21 290.48,7.21 290.63,5.92 290.79,9.69 290.95,9.69 291.11,5.72 291.26,5.72 291.42,5.72 291.58,8.74 291.74,7.13 291.90,7.13 292.05,5.85 292.21,5.85 292.37,5.85 292.53,7.68 292.69,7.68 292.84,7.68 293.00,7.68 293.16,6.27 293.32,6.27 293.47,6.27 293.63,6.27 293.79,10.56 293.95,8.08 294.11,8.08 294.26,8.08 294.42,11.59 294.58,11.59 294.74,7.29 294.90,7.29 295.05,10.58 295.21,7.28 295.37,7.28 295.53,7.28 295.68,4.00 295.84,4.00 296.00,7.58" />
</svg>