<svg width="300" height="60" xmlns="http://www.w3.org/2000/svg">
  <polyline fill="rgba(255,200,0,0.3)" stroke="#ffbb00" stroke-width="2" points="4.00,6.62 4.26,7.41 4.52,8.53 4.78,8.82 5.04,8.47 5.30,8.94 5.55,9.94 5.81,11.45 6.07,12.71 6.33,14.95 6.59,16.67 6.85,18.85 7.11,20.92 7.37,22.84 7.63,24.49 7.89,25.75 8.15,27.73 8.40,27.17 8.66,26.93 8.92,28.55 9.18,30.87 9.44,33.04 9.70,35.18 9.96,37.39 10.22,37.93 10.48,39.26 10.74,40.03 11.00,40.67 11.25,41.66 11.51,42.21 11.77,42.40 12.03,43.15 12.29,43.83 12.55,44.59 12.81,45.22 13.07,45.37 13.33,46.36 13.59,47.52 13.85,48.25 14.10,48.81 14.36,49.00 14.62,48.64 14.88,48.37 15.14,48.23 15.40,48.49 15.66,48.25 15.92,47.48 16.18,46.90 16.44,46.45 16.70,45.69 16.95,45.31 17.21,45.60 17.47,46.76 17.73,46.95 17.99,47.72 18.25,47.52 18.51,47.79 18.77,47.43 19.03,47.63 19.29,47.79 19.55,47.63 19.80,46.49 20.06,46.87 20.32,47.42 20.58,47.32 20.84,47.46 21.10,48.08 21.36,48.16 21.62,48.04 21.88,46.57 22.14,44.26 22.40,43.82 22.65,44.77 22.91,47.49 23.17,48.50 23.43,48.52 23.69,47.80 23.95,49.25 24.21,50.05 24.47,49.58 24.73,48.27 24.99,47.36 25.25,45.55 25.50,45.51 25.76,44.00 26.02,42.28 26.28,40.72 26.54,39.37 26.80,38.09 27.06,37.37 27.32,34.40 27.58,31.09 27.84,28.52 28.10,24.32 28.35,20.76 28.61,19.76 28.87,19.81 29.13,21.11 29.39,24.05 29.65,26.52 29.91,26.54 30.17,26.28 30.43,25.80 30.69,25.11 30.95,24.64 31.20,24.17 31.46,24.16 31.72,24.43 31.98,25.03 32.24,25.38 32.50,27.60 32.76,30.32 33.02,31.63 33.28,31.26 33.54,28.53 33.80,27.70 34.06,27.65 34.31,27.61 34.57,27.40 34.83,26.12 35.09,25.82 35.35,25.71 35.61,26.20 35.87,27.40 36.13,28.16 36.39,27.96 36.65,27.36 36.91,26.39 37.16,25.85 37.42,26.15 37.68,26.99 37.94,27.36 38.20,27.25 38.46,27.70 38.72,28.96 38.98,29.93 39.24,30.62 39.50,31.21 39.76,31.97 40.01,32.78 40.27,33.69 40.53,36.47 40.79,39.50 41.05,40.57 41.31,37.87 41.57,36.00 41.83,34.69 42.09,33.91 42.35,32.94 42.61,35.72 42.86,36.58 43.12,37.30 43.38,36.60 43.64,37.19 43.90,37.64 44.16,37.97 44.42,37.61 44.68,37.13 44.94,36.55 45.20,37.30 45.46,36.39 45.71,36.98 45.97,37.12 46.23,37.11 46.49,36.51 46.75,36.98 47.01,36.69 47.27,36.22 47.53,35.76 47.79,34.97 48.05,34.47 48.31,33.75 48.56,33.43 48.82,33.30 49.08,33.29 49.34,32.80 49.60,32.40 49.86,32.08 50.12,31.77 50.38,31.84 50.64,32.07 50.90,31.59 51.16,30.76 51.41,30.61 51.67,30.86 51.93,31.77 52.19,29.90 52.45,29.88 52.71,30.13 52.97,29.88 53.23,29.34 53.49,28.64 53.75,27.96 54.01,27.03 54.26,23.41 54.52,22.74 54.78,21.27 55.04,19.92 55.30,20.21 55.56,19.71 55.82,20.17 56.08,20.08 56.34,20.19 56.60,21.96 56.86,23.55 57.11,25.28 57.37,26.67 57.63,23.09 57.89,21.98 58.15,21.48 58.41,21.48 58.67,21.68 58.93,21.45 59.19,22.31 59.45,22.96 59.71,23.13 59.96,22.62 60.22,20.91 60.48,20.22 60.74,18.86 61.00,17.69 61.26,17.31 61.52,15.33 61.78,14.92 62.04,14.29 62.30,13.10 62.56,12.79 62.81,12.69 63.07,14.29 63.33,17.13 63.59,19.77 63.85,20.92 64.11,20.90 64.37,19.84 64.63,19.43 64.89,19.55 65.15,20.06 65.41,20.72 65.66,21.49 65.92,22.15 66.18,22.64 66.44,22.55 66.70,22.98 66.96,22.74 67.22,22.24 67.48,20.38 67.74,20.86 68.00,20.03 68.26,19.72 68.51,19.56 68.77,19.03 69.03,19.33 69.29,20.82 69.55,20.47 69.81,19.71 70.07,18.81 70.33,19.37 70.59,19.94 70.85,20.44 71.11,19.45 71.36,18.32 71.62,18.48 71.88,19.41 72.14,19.62 72.40,18.97 72.66,18.74 72.92,19.62 73.18,20.76 73.44,21.45 73.70,22.00 73.96,22.92 74.21,23.70 74.47,24.29 74.73,24.53 74.99,24.18 75.25,24.11 75.51,24.43 75.77,23.70 76.03,23.30 76.29,23.41 76.55,23.81 76.81,25.20 77.06,27.23 77.32,28.28 77.58,29.10 77.84,29.25 78.10,29.71 78.36,30.16 78.62,30.37 78.88,31.12 79.14,31.82 79.40,32.92 79.66,32.25 79.91,32.85 80.17,33.16 80.43,33.51 80.69,33.91 80.95,33.67 81.21,33.37 81.47,34.06 81.73,32.09 81.99,31.39 82.25,30.95 82.51,31.07 82.76,31.09 83.02,31.13 83.28,31.56 83.54,32.59 83.80,34.35 84.06,34.18 84.32,31.64 84.58,29.79 84.84,28.76 85.10,28.32 85.36,28.85 85.61,29.34 85.87,28.98 86.13,29.92 86.39,32.55 86.65,34.10 86.91,34.01 87.17,35.55 87.43,36.72 87.69,37.39 87.95,37.86 88.21,38.24 88.46,38.22 88.72,37.22 88.98,37.04 89.24,39.43 89.50,40.06 89.76,39.95 90.02,35.96 90.28,32.93 90.54,32.16 90.80,33.33 91.06,34.62 91.31,35.67 91.57,36.77 91.83,38.78 92.09,40.80 92.35,42.55 92.61,42.86 92.87,42.11 93.13,41.92 93.39,42.51 93.65,42.22 93.91,42.01 94.17,42.52 94.42,43.80 94.68,45.60 94.94,45.72 95.20,44.61 95.46,43.81 95.72,43.71 95.98,42.70 96.24,41.60 96.50,40.43 96.76,38.89 97.02,37.00 97.27,36.62 97.53,35.13 97.79,32.66 98.05,28.44 98.31,26.43 98.57,24.33 98.83,22.71 99.09,20.63 99.35,18.86 99.61,16.99 99.87,15.73 100.12,14.42 100.38,14.11 100.64,13.43 100.90,12.74 101.16,10.91 101.42,5.80 101.68,7.31 101.94,8.35 102.20,9.58 102.46,8.56 102.72,9.22 102.97,8.37 103.23,11.55 103.49,12.12 103.75,13.26 104.01,17.07 104.27,18.00 104.53,21.35 104.79,22.23 105.05,24.94 105.31,24.56 105.57,26.52 105.82,25.89 106.08,27.75 106.34,30.30 106.60,30.62 106.86,33.76 107.12,36.25 107.38,35.62 107.64,37.39 107.90,38.78 108.16,38.28 108.42,39.98 108.67,40.70 108.93,41.18 109.19,42.06 109.45,42.66 109.71,43.42 109.97,43.21 110.23,44.63 110.49,44.38 110.75,46.11 111.01,45.70 111.27,47.63 111.52,47.63 111.78,49.11 112.04,47.94 112.30,47.88 112.56,46.87 112.82,49.61 113.08,46.84 113.34,46.67 113.60,46.92 113.86,44.30 114.12,45.31 114.37,42.12 114.63,45.56 114.89,44.75 115.15,46.20 115.41,47.68 115.67,48.15 115.93,47.90 116.19,47.30 116.45,48.46 116.71,47.77 116.97,49.22 117.22,47.42 117.48,48.53 117.74,50.11 118.00,47.90 118.26,50.08 118.52,48.72 118.78,47.17 119.04,48.59 119.30,46.72 119.56,44.89 119.82,43.25 120.07,47.60 120.33,46.66 120.59,51.99 120.85,51.32 121.11,45.68 121.37,47.82 121.63,46.91 121.89,49.87 122.15,49.11 122.41,46.81 122.67,45.77 122.92,44.92 123.18,42.68 123.44,42.84 123.70,41.29 123.96,39.50 124.22,38.34 124.48,36.60 124.74,33.67 125.00,30.54 125.26,28.49 125.52,25.82 125.77,19.57 126.03,18.44 126.29,18.69 126.55,24.18 126.81,24.18 127.07,25.09 127.33,26.04 127.59,27.11 127.85,25.92 128.11,26.27 128.37,24.41 128.62,22.86 128.88,26.55 129.14,25.97 129.40,25.43 129.66,24.96 129.92,31.30 130.18,32.21 130.44,31.49 130.70,30.26 130.96,27.90 131.22,28.43 131.47,26.35 131.73,27.45 131.99,27.45 132.25,26.07 132.51,25.66 132.77,26.73 133.03,26.13 133.29,28.97 133.55,30.55 133.81,28.44 134.07,26.64 134.32,25.29 134.58,24.12 134.84,24.63 135.10,29.96 135.36,30.11 135.62,29.73 135.88,25.79 136.14,27.65 136.40,26.74 136.66,30.27 136.92,28.53 137.17,32.13 137.43,30.11 137.69,33.96 137.95,40.14 138.21,42.44 138.47,41.56 138.73,38.69 138.99,36.17 139.25,36.77 139.51,35.82 139.77,32.04 140.02,36.86 140.28,37.94 140.54,37.88 140.80,35.36 141.06,37.47 141.32,39.30 141.58,38.04 141.84,37.28 142.10,37.15 142.36,37.75 142.62,37.00 142.87,34.60 143.13,37.29 143.39,39.18 143.65,37.67 143.91,33.85 144.17,36.22 144.43,40.82 144.69,37.85 144.95,39.27 145.21,36.75 145.47,33.19 145.72,32.05 145.98,36.02 146.24,35.74 146.50,35.82 146.76,35.69 147.02,35.28 147.28,35.19 147.54,35.22 147.80,30.74 148.06,31.81 148.32,33.29 148.57,29.53 148.83,31.71 149.09,28.21 149.35,31.55 149.61,28.87 149.87,29.09 150.13,33.70 150.39,29.48 150.65,28.12 150.91,26.86 151.17,31.27 151.43,26.32 151.68,22.25 151.94,20.27 152.20,21.34 152.46,21.25 152.72,18.16 152.98,19.49 153.24,16.56 153.50,17.44 153.76,20.00 154.02,19.90 154.28,22.39 154.53,26.48 154.79,28.21 155.05,22.69 155.31,23.67 155.57,19.85 155.83,21.84 156.09,23.64 156.35,20.23 156.61,21.05 156.87,21.87 157.13,22.82 157.38,22.82 157.64,21.18 157.90,20.45 158.16,18.04 158.42,16.32 158.68,16.10 158.94,13.55 159.20,13.61 159.46,13.61 159.72,12.98 159.98,12.29 160.23,13.89 160.49,12.88 160.75,17.14 161.01,19.16 161.27,20.33 161.53,20.33 161.79,23.42 162.05,20.75 162.31,20.47 162.57,20.91 162.83,22.14 163.08,23.97 163.34,21.26 163.60,23.53 163.86,20.93 164.12,23.38 164.38,21.29 164.64,21.51 164.90,21.51 165.16,20.47 165.42,20.85 165.68,18.72 165.93,19.79 166.19,17.96 166.45,19.57 166.71,17.90 166.97,19.70 167.23,17.40 167.49,18.36 167.75,18.41 168.01,18.41 168.27,20.00 168.53,20.25 168.78,20.82 169.04,19.71 169.30,18.67 169.56,20.28 169.82,18.89 170.08,18.61 170.34,19.19 170.60,19.19 170.86,20.89 171.12,19.95 171.38,22.28 171.63,22.53 171.89,22.88 172.15,25.37 172.41,22.69 172.67,23.56 172.93,22.59 173.19,22.21 173.45,22.08 173.71,22.74 173.97,23.79 174.23,24.98 174.48,25.99 174.74,28.17 175.00,28.55 175.26,25.61 175.52,28.80 175.78,26.75 176.04,30.31 176.30,28.32 176.56,31.57 176.82,28.92 177.08,31.79 177.33,37.72 177.59,34.18 177.85,36.92 178.11,33.99 178.37,37.77 178.63,31.95 178.89,31.04 179.15,35.64 179.41,31.20 179.67,32.77 179.93,30.72 180.18,29.59 180.44,28.80 180.70,32.68 180.96,33.28 181.22,34.20 181.48,34.14 181.74,30.76 182.00,29.47 182.26,29.47 182.52,27.07 182.78,28.78 183.03,30.57 183.29,28.55 183.55,30.40 183.81,31.53 184.07,33.33 184.33,34.50 184.59,34.87 184.85,36.69 185.11,36.12 185.37,38.52 185.63,38.20 185.88,37.00 186.14,38.52 186.40,37.10 186.66,37.22 186.92,41.29 187.18,40.50 187.44,34.67 187.70,32.11 187.96,32.11 188.22,33.79 188.48,36.54 188.73,34.49 188.99,37.87 189.25,36.60 189.51,40.48 189.77,42.91 190.03,41.90 190.29,41.81 190.55,39.33 190.81,41.13 191.07,42.61 191.33,40.34 191.58,44.32 191.84,42.62 192.10,45.33 192.36,44.61 192.62,44.92 192.88,43.85 193.14,43.09 193.40,42.39 193.66,41.67 193.92,40.16 194.18,38.45 194.43,37.22 194.69,36.88 194.95,34.66 195.21,30.54 195.47,30.41 195.73,26.59 195.99,23.25 196.25,23.25 196.51,19.40 196.77,19.18 197.03,20.89 197.28,16.85 197.54,18.62 197.80,15.15 198.06,13.48 198.32,12.26 198.58,10.21 198.84,4.01 199.10,6.66 199.36,6.66 199.62,9.19 199.88,9.19 200.13,7.89 200.39,7.89 200.65,7.89 200.91,6.93 201.17,6.93 201.43,16.96 201.69,16.96 201.95,16.96 202.21,19.41 202.47,19.41 202.73,19.41 202.98,25.97 203.24,24.02 203.50,24.02 203.76,29.79 204.02,29.79 204.28,29.79 204.54,34.87 204.80,34.87 205.06,34.08 205.32,34.08 205.58,34.08 205.83,36.21 206.09,38.64 206.35,38.64 206.61,38.64 206.87,40.31 207.13,40.31 207.39,40.31 207.65,43.56 207.91,43.56 208.17,43.56 208.43,44.05 208.69,44.05 208.94,44.05 209.20,48.94 209.46,48.94 209.72,48.40 209.98,39.44 210.24,39.44 210.50,39.44 210.76,45.94 211.02,38.20 211.28,38.20 211.54,38.20 211.79,30.63 212.05,39.71 212.31,39.71 212.57,39.71 212.83,45.23 213.09,47.44 213.35,47.44 213.61,47.44 213.87,49.79 214.13,49.79 214.39,49.79 214.64,49.25 214.90,49.25 215.16,51.62 215.42,52.66 215.68,52.66 215.94,52.66 216.20,50.64 216.46,50.64 216.72,46.60 216.98,46.60 217.24,46.60 217.49,56.00 217.75,56.00 218.01,56.00 218.27,55.12 218.53,55.12 218.79,55.12 219.05,46.41 219.31,46.41 219.57,46.41 219.83,46.41 220.09,44.27 220.34,44.27 220.60,44.27 220.86,44.27 221.12,33.96 221.38,37.24 221.64,37.24 221.90,33.93 222.16,33.93 222.42,30.17 222.68,24.97 222.94,24.97 223.19,24.97 223.45,24.47 223.71,24.47 223.97,24.47 224.23,24.47 224.49,27.68 224.75,27.68 225.01,27.68 225.27,34.62 225.53,34.62 225.79,29.20 226.04,29.20 226.30,29.20 226.56,26.07 226.82,26.07 227.08,26.07 227.34,37.55 227.60,37.55 227.86,30.87 228.12,30.87 228.38,30.87 228.64,30.87 228.89,26.64 229.15,26.64 229.41,26.64 229.67,26.64 229.93,29.67 230.19,29.67 230.45,29.67 230.71,42.49 230.97,42.49 231.23,33.63 231.49,33.63 231.74,33.63 232.00,29.38 232.26,29.38 232.52,29.82 232.78,29.82 233.04,29.82 233.30,30.67 233.56,30.67 233.82,30.67 234.08,39.28 234.34,24.79 234.59,24.79 234.85,35.70 235.11,35.70 235.37,43.65 235.63,43.65 235.89,43.65 236.15,39.23 236.41,39.23 236.67,39.23 236.93,41.23 237.19,41.23 237.44,41.23 237.70,45.40 237.96,36.72 238.22,36.72 238.48,36.72 238.74,43.79 239.00,43.79 239.26,43.79 239.52,44.54 239.78,44.54 240.04,37.35 240.29,37.35 240.55,47.19 240.81,47.19 241.07,42.65 241.33,42.65 241.59,36.09 241.85,49.27 242.11,49.27 242.37,49.27 242.63,41.39 242.89,41.39 243.14,37.04 243.40,37.04 243.66,37.04 243.92,35.81 244.18,35.81 244.44,35.43 244.70,35.43 244.96,35.43 245.22,36.53 245.48,36.53 245.74,36.53 245.99,41.64 246.25,41.64 246.51,23.42 246.77,32.09 247.03,32.09 247.29,32.09 247.55,44.80 247.81,29.03 248.07,29.03 248.33,29.03 248.59,41.01 248.84,27.36 249.10,27.36 249.36,27.36 249.62,22.97 249.88,12.98 250.14,12.98 250.40,12.98 250.66,4.46 250.92,13.23 251.18,13.23 251.44,13.23 251.69,13.23 251.95,22.15 252.21,22.15 252.47,22.57 252.73,22.57 252.99,22.57 253.25,27.02 253.51,27.02 253.77,27.02 254.03,30.21 254.29,30.21 254.54,29.04 254.80,29.04 255.06,22.51 255.32,19.74 255.58,19.74 255.84,14.91 256.10,14.91 256.36,14.91 256.62,8.29 256.88,8.29 257.14,8.29 257.39,8.29 257.65,13.68 257.91,4.00 258.17,13.68 258.43,13.68 258.69,13.68 258.95,21.19 259.21,21.19 259.47,24.78 259.73,24.78 259.99,24.78 260.24,28.00 260.50,28.00 260.76,28.00 261.02,35.13 261.28,19.64 261.54,19.64 261.80,27.27 262.06,27.27 262.32,27.27 262.58,21.63 262.84,15.64 263.09,15.64 263.35,15.64 263.61,10.65 263.87,18.00 264.13,18.00 264.39,11.88 264.65,11.88 264.91,11.88 265.17,11.51 265.43,11.51 265.69,18.35 265.94,18.35 266.20,23.02 266.46,23.02 266.72,16.72 266.98,16.72 267.24,16.72 267.50,15.39 267.76,15.39 268.02,15.39 268.28,15.39 268.54,19.71 268.80,19.71 269.05,11.20 269.31,20.15 269.57,20.15 269.83,20.15 270.09,15.80 270.35,15.80 270.61,15.80 270.87,15.71 271.13,15.71 271.39,19.71 271.65,19.71 271.90,19.71 272.16,23.37 272.42,23.37 272.68,23.37 272.94,27.38 273.20,22.68 273.46,22.68 273.72,30.59 273.98,30.59 274.24,30.59 274.50,35.23 274.75,35.23 275.01,33.43 275.27,33.43 275.53,33.43 275.79,40.84 276.05,40.84 276.31,27.66 276.57,27.66 276.83,27.66 277.09,40.50 277.35,31.55 277.60,31.55 277.86,31.55 278.12,29.28 278.38,29.28 278.64,29.28 278.90,31.11 279.16,31.11 279.42,28.02 279.68,28.02 279.94,28.02 280.20,31.21 280.45,31.21 280.71,21.97 280.97,25.66 281.23,25.66 281.49,29.25 281.75,29.25 282.01,29.25 282.27,35.15 282.53,35.15 282.79,35.15 283.05,35.15 283.30,32.40 283.56,32.40 283.82,32.40 284.08,29.16 284.34,40.98 284.60,40.98 284.86,29.16 285.12,29.16 285.38,29.16 285.64,29.16 285.90,33.35 286.15,33.35 286.41,33.35 286.67,32.88 286.93,32.88 287.19,42.46 287.45,36.97 287.71,36.97 287.97,36.97 288.23,30.82 288.49,40.88 288.75,40.88 289.00,40.88 289.26,38.78 289.52,38.78 289.78,38.78 290.04,41.62 290.30,41.62 290.56,41.62 290.82,37.49 291.08,37.49 291.34,39.92 291.60,37.84 291.85,37.84 292.11,37.84 292.37,34.37 292.63,33.04 292.89,33.04 293.15,33.04 293.41,24.37 293.67,24.37 293.93,24.37 294.19,25.98 294.45,25.98 294.70,25.98 294.96,23.83 295.22,16.46 295.48,16.46 295.74,16.46 296.00,5.27" />
</svg>