<svg width="300" height="60" xmlns="http://www.w3.org/2000/svg">
  <polyline fill="rgba(255,200,0,0.3)" stroke="#ffbb00" stroke-width="2" points="4.00,56.00 4.27,55.58 4.54,53.63 4.81,54.52 5.08,54.82 5.35,54.93 5.62,53.26 5.89,52.20 6.16,49.60 6.44,49.01 6.71,48.37 6.98,48.62 7.25,48.55 7.52,48.88 7.79,48.49 8.06,48.21 8.33,47.66 8.60,46.19 8.87,45.54 9.14,45.17 9.41,45.99 9.68,44.89 9.95,46.42 10.22,45.88 10.49,42.67 10.77,42.16 11.04,42.16 11.31,46.43 11.58,47.38 11.85,46.80 12.12,44.45 12.39,41.63 12.66,40.37 12.93,39.62 13.20,39.33 13.47,39.09 13.74,41.47 14.01,39.55 14.28,40.47 14.55,41.51 14.82,42.07 15.10,42.76 15.37,43.15 15.64,40.41 15.91,41.03 16.18,41.25 16.45,40.97 16.72,40.29 16.99,40.01 17.26,40.66 17.53,41.46 17.80,41.12 18.07,40.93 18.34,41.33 18.61,41.64 18.88,42.51 19.15,43.73 19.43,42.33 19.70,41.09 19.97,41.02 20.24,41.47 20.51,41.09 20.78,40.99 21.05,41.51 21.32,42.07 21.59,42.34 21.86,42.94 22.13,42.94 22.40,42.85 22.67,42.74 22.94,42.32 23.21,41.85 23.48,41.55 23.76,40.91 24.03,40.31 24.30,39.68 24.57,39.05 24.84,37.09 25.11,35.92 25.38,34.30 25.65,33.03 25.92,31.71 26.19,30.92 26.46,30.37 26.73,30.57 27.00,30.59 27.27,30.73 27.54,32.90 27.81,33.61 28.09,33.28 28.36,32.22 28.63,31.66 28.90,30.97 29.17,30.48 29.44,28.94 29.71,27.73 29.98,28.53 30.25,29.08 30.52,31.97 30.79,30.97 31.06,28.98 31.33,27.18 31.60,26.81 31.87,27.13 32.14,29.91 32.42,30.12 32.69,28.24 32.96,27.37 33.23,27.49 33.50,27.88 33.77,28.42 34.04,28.86 34.31,28.99 34.58,29.07 34.85,28.60 35.12,28.54 35.39,29.74 35.66,30.47 35.93,31.53 36.20,31.95 36.47,32.28 36.75,32.79 37.02,33.44 37.29,34.89 37.56,36.07 37.83,36.34 38.10,36.25 38.37,36.16 38.64,36.56 38.91,36.81 39.18,36.97 39.45,37.16 39.72,37.12 39.99,37.51 40.26,37.80 40.53,38.11 40.80,38.25 41.08,38.04 41.35,36.92 41.62,36.48 41.89,37.58 42.16,39.44 42.43,40.07 42.70,40.50 42.97,41.25 43.24,41.68 43.51,42.08 43.78,42.42 44.05,42.21 44.32,41.99 44.59,42.81 44.86,44.02 45.13,45.39 45.41,46.55 45.68,47.43 45.95,48.10 46.22,48.21 46.49,48.42 46.76,48.60 47.03,47.34 47.30,47.41 47.57,47.14 47.84,46.74 48.11,46.01 48.38,44.79 48.65,44.27 48.92,44.34 49.19,44.14 49.46,43.62 49.73,42.95 50.01,42.44 50.28,41.24 50.55,39.96 50.82,39.02 51.09,39.54 51.36,40.64 51.63,41.73 51.90,41.94 52.17,41.61 52.44,40.83 52.71,40.05 52.98,39.85 53.25,39.60 53.52,39.40 53.79,39.33 54.06,39.33 54.34,39.25 54.61,38.14 54.88,37.65 55.15,37.18 55.42,36.30 55.69,36.54 55.96,36.94 56.23,37.50 56.50,37.60 56.77,37.66 57.04,37.74 57.31,37.64 57.58,37.46 57.85,36.98 58.12,36.14 58.39,35.91 58.67,36.48 58.94,37.48 59.21,38.25 59.48,38.20 59.75,38.03 60.02,37.73 60.29,37.10 60.56,36.43 60.83,35.49 61.10,34.66 61.37,34.02 61.64,33.71 61.91,34.12 62.18,34.42 62.45,34.88 62.72,35.96 63.00,36.76 63.27,36.90 63.54,37.16 63.81,36.16 64.08,36.16 64.35,36.12 64.62,35.59 64.89,34.74 65.16,34.35 65.43,33.65 65.70,32.69 65.97,32.37 66.24,31.27 66.51,29.57 66.78,28.37 67.05,27.67 67.33,27.45 67.60,27.15 67.87,27.22 68.14,28.15 68.41,27.87 68.68,27.16 68.95,26.27 69.22,26.46 69.49,26.63 69.76,27.26 70.03,26.71 70.30,26.33 70.57,25.39 70.84,24.42 71.11,24.50 71.38,25.61 71.66,25.42 71.93,24.27 72.20,23.25 72.47,22.07 72.74,20.73 73.01,20.16 73.28,19.82 73.55,20.25 73.82,20.24 74.09,20.29 74.36,19.46 74.63,19.16 74.90,18.88 75.17,17.32 75.44,16.62 75.71,16.42 75.99,17.13 76.26,17.36 76.53,18.30 76.80,19.13 77.07,19.85 77.34,20.56 77.61,20.75 77.88,20.35 78.15,19.63 78.42,19.47 78.69,20.04 78.96,20.67 79.23,21.35 79.50,22.51 79.77,22.79 80.04,22.61 80.32,21.62 80.59,20.98 80.86,21.23 81.13,20.97 81.40,20.67 81.67,20.26 81.94,19.96 82.21,18.59 82.48,16.42 82.75,15.50 83.02,16.72 83.29,17.18 83.56,18.00 83.83,18.35 84.10,17.90 84.37,16.33 84.65,14.63 84.92,10.39 85.19,7.75 85.46,7.59 85.73,7.85 86.00,7.75 86.27,7.23 86.54,7.74 86.81,8.43 87.08,8.40 87.35,9.39 87.62,9.84 87.89,10.88 88.16,12.59 88.43,13.36 88.70,12.71 88.97,11.83 89.25,11.37 89.52,11.16 89.79,11.64 90.06,12.33 90.33,12.38 90.60,12.34 90.87,12.86 91.14,13.55 91.41,14.52 91.68,15.88 91.95,16.96 92.22,17.16 92.49,17.14 92.76,16.79 93.03,16.50 93.30,15.92 93.58,15.35 93.85,15.49 94.12,15.50 94.39,15.18 94.66,14.78 94.93,14.65 95.20,14.38 95.47,13.37 95.74,12.70 96.01,12.14 96.28,11.51 96.55,11.64 96.82,12.11 97.09,11.91 97.36,9.67 97.63,8.73 97.91,8.52 98.18,8.33 98.45,8.16 98.72,7.92 98.99,7.24 99.26,6.57 99.53,6.60 99.80,7.04 100.07,7.55 100.34,8.56 100.61,9.82 100.88,11.61 101.15,12.66 101.42,55.52 101.69,53.52 101.96,53.01 102.24,55.05 102.51,54.27 102.78,54.83 103.05,53.77 103.32,52.26 103.59,50.34 103.86,48.90 104.13,49.51 104.40,48.47 104.67,48.58 104.94,48.83 105.21,49.33 105.48,47.60 105.75,49.18 106.02,46.51 106.29,47.18 106.57,45.13 106.84,46.53 107.11,43.67 107.38,44.54 107.65,46.40 107.92,42.50 108.19,41.92 108.46,43.25 108.73,46.26 109.00,48.09 109.27,47.56 109.54,45.94 109.81,41.57 110.08,41.27 110.35,39.28 110.62,38.68 110.90,39.27 111.17,40.63 111.44,39.77 111.71,39.83 111.98,40.39 112.25,40.48 112.52,43.81 112.79,43.73 113.06,39.05 113.33,41.27 113.60,42.09 113.87,40.58 114.14,40.91 114.41,39.00 114.68,40.58 114.95,41.05 115.23,41.82 115.50,41.42 115.77,41.61 116.04,41.95 116.31,42.57 116.58,42.00 116.85,41.68 117.12,41.86 117.39,39.98 117.66,41.03 117.93,39.63 118.20,41.13 118.47,41.12 118.74,42.68 119.01,42.72 119.28,42.65 119.56,43.37 119.83,42.90 120.10,43.32 120.37,42.51 120.64,42.81 120.91,41.82 121.18,40.82 121.45,40.82 121.72,39.68 121.99,38.77 122.26,37.43 122.53,35.43 122.80,34.01 123.07,33.13 123.34,31.29 123.61,31.85 123.89,30.00 124.16,29.18 124.43,30.79 124.70,30.34 124.97,32.37 125.24,33.39 125.51,33.79 125.78,32.53 126.05,32.24 126.32,32.04 126.59,29.80 126.86,29.78 127.13,27.83 127.40,28.98 127.67,30.80 127.94,32.16 128.22,30.31 128.49,28.35 128.76,27.46 129.03,26.53 129.30,28.02 129.57,31.07 129.84,31.07 130.11,29.80 130.38,28.47 130.65,27.93 130.92,28.15 131.19,28.84 131.46,28.02 131.73,28.65 132.00,29.36 132.27,27.92 132.54,29.26 132.82,30.60 133.09,30.49 133.36,32.08 133.63,32.23 133.90,32.23 134.17,32.81 134.44,33.86 134.71,35.87 134.98,37.29 135.25,35.88 135.52,35.96 135.79,36.19 136.06,36.41 136.33,36.50 136.60,37.56 136.87,37.29 137.15,37.29 137.42,37.95 137.69,38.28 137.96,37.83 138.23,38.10 138.50,38.39 138.77,37.25 139.04,36.98 139.31,38.26 139.58,36.65 139.85,40.09 140.12,41.42 140.39,42.44 140.66,40.43 140.93,40.96 141.20,42.79 141.48,42.53 141.75,42.04 142.02,42.92 142.29,44.46 142.56,45.12 142.83,46.64 143.10,47.27 143.37,48.10 143.64,47.68 143.91,48.45 144.18,47.57 144.45,48.53 144.72,47.14 144.99,47.82 145.26,47.38 145.53,46.89 145.81,44.83 146.08,45.09 146.35,44.20 146.62,45.63 146.89,44.33 147.16,43.43 147.43,42.77 147.70,42.09 147.97,39.56 148.24,39.38 148.51,39.38 148.78,40.86 149.05,41.93 149.32,41.90 149.59,41.20 149.86,40.66 150.14,40.49 150.41,39.42 150.68,39.42 150.95,39.61 151.22,39.03 151.49,39.42 151.76,39.28 152.03,38.47 152.30,37.73 152.57,36.79 152.84,37.15 153.11,36.46 153.38,37.81 153.65,37.21 153.92,37.70 154.19,38.25 154.47,37.88 154.74,37.88 155.01,37.64 155.28,37.04 155.55,36.56 155.82,35.97 156.09,36.95 156.36,38.15 156.63,38.51 156.90,38.98 157.17,38.07 157.44,38.01 157.71,37.14 157.98,36.46 158.25,35.40 158.52,34.41 158.80,33.82 159.07,33.82 159.34,33.76 159.61,33.73 159.88,33.78 160.15,37.23 160.42,35.32 160.69,35.57 160.96,35.09 161.23,37.08 161.50,35.94 161.77,33.71 162.04,34.76 162.31,33.30 162.58,34.90 162.85,32.67 163.13,34.09 163.40,31.20 163.67,32.05 163.94,28.87 164.21,28.98 164.48,27.29 164.75,27.70 165.02,27.05 165.29,27.21 165.56,26.93 165.83,28.10 166.10,27.52 166.37,26.37 166.64,26.58 166.91,27.40 167.18,26.10 167.46,26.02 167.73,26.12 168.00,24.08 168.27,24.68 168.54,24.30 168.81,26.32 169.08,24.20 169.35,23.85 169.62,23.33 169.89,22.52 170.16,21.46 170.43,20.19 170.70,21.66 170.97,20.34 171.24,20.78 171.51,20.90 171.78,19.54 172.06,18.93 172.33,18.93 172.60,17.38 172.87,16.38 173.14,17.19 173.41,17.38 173.68,18.73 173.95,18.22 174.22,19.40 174.49,19.99 174.76,20.70 175.03,20.51 175.30,20.51 175.57,19.77 175.84,19.96 176.11,19.95 176.39,21.03 176.66,22.17 176.93,23.10 177.20,22.77 177.47,22.41 177.74,21.40 178.01,21.34 178.28,20.79 178.55,20.84 178.82,21.13 179.09,20.27 179.36,18.51 179.63,18.41 179.90,15.92 180.17,15.92 180.44,15.17 180.72,15.11 180.99,18.21 181.26,17.16 181.53,19.12 181.80,15.81 182.07,11.88 182.34,9.72 182.61,7.17 182.88,6.18 183.15,9.97 183.42,8.69 183.69,7.07 183.96,11.10 184.23,10.38 184.50,9.28 184.77,8.50 185.05,7.32 185.32,11.19 185.59,10.32 185.86,13.01 186.13,10.49 186.40,12.00 186.67,13.57 186.94,11.95 187.21,10.63 187.48,12.82 187.75,14.18 188.02,12.67 188.29,14.32 188.56,13.74 188.83,15.84 189.10,15.47 189.38,16.57 189.65,17.15 189.92,17.16 190.19,16.68 190.46,16.04 190.73,15.52 191.00,15.69 191.27,16.38 191.54,14.32 191.81,14.81 192.08,14.81 192.35,15.27 192.62,15.49 192.89,12.89 193.16,12.36 193.43,11.89 193.71,11.47 193.98,12.66 194.25,12.16 194.52,10.93 194.79,10.31 195.06,8.94 195.33,8.48 195.60,8.30 195.87,8.13 196.14,7.81 196.41,7.54 196.68,6.70 196.95,7.74 197.22,6.83 197.49,7.44 197.76,8.93 198.04,10.52 198.31,11.64 198.58,12.36 198.85,54.48 199.12,52.14 199.39,51.79 199.66,51.79 199.93,51.79 200.20,53.42 200.47,53.42 200.74,53.42 201.01,50.23 201.28,50.23 201.55,50.23 201.82,46.71 202.09,46.71 202.37,46.17 202.64,46.17 202.91,46.17 203.18,49.09 203.45,39.22 203.72,39.22 203.99,42.00 204.26,42.00 204.53,42.00 204.80,44.69 205.07,44.69 205.34,33.96 205.61,37.19 205.88,37.19 206.15,42.31 206.42,42.31 206.70,42.31 206.97,42.98 207.24,42.98 207.51,42.98 207.78,33.82 208.05,33.82 208.32,33.82 208.59,39.51 208.86,39.51 209.13,39.51 209.40,40.33 209.67,40.33 209.94,40.33 210.21,39.54 210.48,39.54 210.75,39.54 211.03,41.42 211.30,41.42 211.57,41.42 211.84,41.42 212.11,44.63 212.38,39.46 212.65,39.46 212.92,39.46 213.19,37.64 213.46,37.64 213.73,37.64 214.00,38.91 214.27,38.91 214.54,39.79 214.81,39.79 215.08,39.79 215.35,37.78 215.63,37.78 215.90,37.78 216.17,42.04 216.44,42.04 216.71,43.67 216.98,43.67 217.25,43.25 217.52,43.25 217.79,45.10 218.06,45.10 218.33,45.10 218.60,41.73 218.87,41.73 219.14,41.73 219.41,41.73 219.68,39.25 219.96,39.25 220.23,39.25 220.50,38.48 220.77,32.66 221.04,32.66 221.31,32.66 221.58,33.82 221.85,33.82 222.12,28.52 222.39,31.73 222.66,31.73 222.93,36.30 223.20,32.06 223.47,32.06 223.74,32.06 224.01,32.38 224.29,32.38 224.56,32.38 224.83,34.30 225.10,34.30 225.37,34.30 225.64,31.80 225.91,31.80 226.18,31.80 226.45,27.88 226.72,27.88 226.99,33.25 227.26,33.25 227.53,32.06 227.80,32.06 228.07,32.06 228.34,34.09 228.62,34.09 228.89,27.73 229.16,30.14 229.43,30.14 229.70,30.14 229.97,33.95 230.24,33.95 230.51,33.95 230.78,38.33 231.05,34.16 231.32,34.16 231.59,34.16 231.86,39.37 232.13,39.37 232.40,39.37 232.67,36.30 232.95,36.30 233.22,36.30 233.49,37.17 233.76,37.17 234.03,40.00 234.30,38.57 234.57,38.57 234.84,38.57 235.11,38.57 235.38,38.58 235.65,37.59 235.92,37.59 236.19,37.59 236.46,43.91 236.73,38.99 237.00,38.99 237.28,38.99 237.55,47.25 237.82,41.47 238.09,41.47 238.36,41.47 238.63,44.94 238.90,43.80 239.17,43.80 239.44,43.80 239.71,46.46 239.98,47.06 240.25,47.06 240.52,47.06 240.79,49.53 241.06,45.37 241.33,45.37 241.61,48.72 241.88,48.72 242.15,48.72 242.42,47.04 242.69,47.04 242.96,47.04 243.23,47.94 243.50,47.94 243.77,47.94 244.04,52.44 244.31,49.08 244.58,49.08 244.85,49.08 245.12,46.03 245.39,40.39 245.66,39.68 245.94,39.68 246.21,42.61 246.48,42.61 246.75,42.61 247.02,42.33 247.29,42.33 247.56,42.33 247.83,42.27 248.10,42.27 248.37,42.27 248.64,38.89 248.91,38.75 249.18,38.75 249.45,38.75 249.72,42.30 249.99,42.30 250.27,39.39 250.54,39.39 250.81,39.39 251.08,37.05 251.35,39.85 251.62,39.85 251.89,39.85 252.16,39.85 252.43,37.11 252.70,37.11 252.97,37.11 253.24,39.35 253.51,39.35 253.78,39.35 254.05,39.16 254.32,39.16 254.59,39.16 254.87,39.16 255.14,38.05 255.41,38.05 255.68,35.87 255.95,34.03 256.22,34.03 256.49,34.03 256.76,34.03 257.03,32.35 257.30,32.35 257.57,32.35 257.84,32.35 258.11,34.37 258.38,34.37 258.65,34.37 258.92,37.07 259.20,34.86 259.47,34.86 259.74,34.86 260.01,33.94 260.28,33.94 260.55,33.94 260.82,31.68 261.09,31.68 261.36,31.68 261.63,29.56 261.90,29.56 262.17,29.56 262.44,28.79 262.71,28.79 262.98,28.79 263.25,27.85 263.53,27.85 263.80,25.20 264.07,25.20 264.34,26.01 264.61,26.01 264.88,26.01 265.15,27.24 265.42,21.41 265.69,21.41 265.96,23.96 266.23,23.96 266.50,23.96 266.77,22.79 267.04,22.79 267.31,22.79 267.58,22.53 267.86,19.02 268.13,22.56 268.40,22.56 268.67,22.56 268.94,20.25 269.21,20.25 269.48,18.83 269.75,18.83 270.02,18.55 270.29,18.55 270.56,18.55 270.83,20.04 271.10,20.04 271.37,20.04 271.64,20.04 271.91,21.91 272.19,20.92 272.46,20.92 272.73,20.92 273.00,22.93 273.27,21.65 273.54,21.65 273.81,21.65 274.08,23.04 274.35,23.04 274.62,23.04 274.89,23.04 275.16,21.36 275.43,21.36 275.70,21.36 275.97,21.36 276.24,21.09 276.52,21.09 276.79,15.71 277.06,15.92 277.33,15.92 277.60,15.92 277.87,15.92 278.14,12.69 278.41,12.69 278.68,12.69 278.95,17.70 279.22,17.70 279.49,8.49 279.76,8.49 280.03,8.49 280.30,4.00 280.57,17.91 280.85,17.91 281.12,15.14 281.39,15.14 281.66,12.81 281.93,12.81 282.20,12.81 282.47,9.75 282.74,9.75 283.01,9.75 283.28,15.77 283.55,15.77 283.82,15.77 284.09,11.19 284.36,11.19 284.63,11.19 284.90,16.20 285.18,16.20 285.45,16.20 285.72,14.43 285.99,14.43 286.26,19.39 286.53,17.33 286.80,17.33 287.07,17.33 287.34,16.57 287.61,16.57 287.88,16.57 288.15,16.91 288.42,16.91 288.69,16.91 288.96,12.72 289.23,12.72 289.51,12.72 289.78,12.72 290.05,11.96 290.32,11.96 290.59,11.96 290.86,11.13 291.13,11.13 291.40,11.13 291.67,9.04 291.94,9.04 292.21,11.33 292.48,8.88 292.75,8.88 293.02,8.88 293.29,7.97 293.56,7.97 293.84,7.97 294.11,10.17 294.38,10.17 294.65,10.17 294.92,7.88 295.19,11.67 295.46,11.67 295.73,11.67 296.00,11.28" />
</svg>