<svg width="300" height="60" xmlns="http://www.w3.org/2000/svg">
  <polyline fill="rgba(255,200,0,0.3)" stroke="#ffbb00" stroke-width="2" points="4.00,48.55 6.54,47.30 9.08,44.78 11.62,42.16 14.16,39.75 16.70,38.74 19.23,36.85 21.77,34.11 24.31,30.91 26.85,27.26 29.39,24.66 31.93,22.63 34.47,20.85 37.01,18.56 39.55,16.23 42.09,13.51 44.63,11.78 47.17,10.91 49.70,8.29 52.24,6.95 54.78,5.99 57.32,5.20 59.86,4.87 62.40,5.26 64.94,5.67 67.48,6.14 70.02,6.82 72.56,7.88 75.10,8.35 77.63,48.88 80.17,46.01 82.71,44.01 85.25,39.81 87.79,38.40 90.33,38.57 92.87,36.55 95.41,34.28 97.95,30.20 100.49,27.46 103.03,24.45 105.57,22.64 108.10,20.41 110.64,18.39 113.18,14.63 115.72,12.61 118.26,11.84 120.80,10.60 123.34,7.65 125.88,5.98 128.42,5.23 130.96,4.89 133.50,4.63 136.03,5.01 138.57,5.61 141.11,6.34 143.65,7.27 146.19,8.04 148.73,8.92 151.27,48.18 153.81,46.42 156.35,42.38 158.89,40.67 161.43,39.29 163.97,38.44 166.50,37.11 169.04,34.25 171.58,28.97 174.12,26.74 176.66,24.42 179.20,22.45 181.74,20.86 184.28,18.97 186.82,16.10 189.36,11.90 191.90,12.88 194.43,10.47 196.97,7.81 199.51,5.54 202.05,5.07 204.59,5.07 207.13,4.13 209.67,4.00 212.21,4.60 214.75,5.73 217.29,6.72 219.83,7.45 222.37,8.91 224.90,56.00 227.44,46.77 229.98,41.37 232.52,41.37 235.06,41.37 237.60,36.30 240.14,36.30 242.68,36.30 245.22,29.95 247.76,29.95 250.30,23.71 252.83,23.71 255.37,23.71 257.91,18.91 260.45,18.91 262.99,18.91 265.53,14.66 268.07,14.66 270.61,14.66 273.15,7.19 275.69,7.19 278.23,7.19 280.77,7.19 283.30,4.66 285.84,4.66 288.38,4.66 290.92,7.02 293.46,7.02 296.00,9.19" />
</svg>