<svg width="300" height="60" xmlns="http://www.w3.org/2000/svg">
  <polyline fill="rgba(255,200,0,0.3)" stroke="#ffbb00" stroke-width="2" points="4.00,15.58 4.07,15.85 4.14,16.24 4.21,16.29 4.28,16.47 4.35,16.65 4.42,16.85 4.50,17.17 4.57,17.38 4.64,17.69 4.71,17.96 4.78,17.98 4.85,18.18 4.92,18.58 4.99,19.27 5.06,20.00 5.13,20.43 5.20,20.68 5.27,21.01 5.34,21.28 5.41,21.38 5.49,21.42 5.56,22.12 5.63,22.45 5.70,22.40 5.77,22.37 5.84,22.18 5.91,22.28 5.98,22.11 6.05,22.25 6.12,22.37 6.19,23.21 6.26,23.81 6.33,23.56 6.40,23.68 6.48,23.88 6.55,23.89 6.62,24.08 6.69,24.45 6.76,24.96 6.83,25.31 6.90,25.54 6.97,25.93 7.04,26.20 7.11,26.65 7.18,27.04 7.25,27.55 7.32,28.04 7.39,28.36 7.47,28.56 7.54,27.91 7.61,29.21 7.68,29.75 7.75,30.11 7.82,29.35 7.89,30.37 7.96,30.98 8.03,31.18 8.10,31.33 8.17,31.61 8.24,32.04 8.31,32.56 8.38,33.17 8.46,33.14 8.53,33.24 8.60,33.46 8.67,34.28 8.74,34.26 8.81,33.58 8.88,33.57 8.95,33.70 9.02,32.85 9.09,32.94 9.16,33.46 9.23,33.90 9.30,34.78 9.37,36.00 9.45,36.37 9.52,36.63 9.59,36.87 9.66,36.49 9.73,36.35 9.80,36.01 9.87,35.78 9.94,35.65 10.01,35.60 10.08,35.66 10.15,35.58 10.22,35.47 10.29,35.59 10.36,35.51 10.44,35.29 10.51,34.86 10.58,34.57 10.65,34.49 10.72,34.24 10.79,34.18 10.86,33.89 10.93,33.65 11.00,33.54 11.07,33.29 11.14,33.42 11.21,33.85 11.28,34.76 11.35,34.16 11.43,34.31 11.50,34.39 11.57,34.37 11.64,33.55 11.71,32.98 11.78,32.67 11.85,32.39 11.92,32.16 11.99,31.89 12.06,31.85 12.13,31.93 12.20,32.22 12.27,32.34 12.34,32.45 12.42,33.03 12.49,33.05 12.56,33.71 12.63,34.04 12.70,34.42 12.77,34.65 12.84,34.50 12.91,34.53 12.98,34.31 13.05,34.03 13.12,34.17 13.19,34.98 13.26,36.05 13.33,36.47 13.41,37.87 13.48,37.51 13.55,37.33 13.62,36.63 13.69,36.15 13.76,35.61 13.83,35.18 13.90,35.07 13.97,35.17 14.04,35.48 14.11,35.66 14.18,35.72 14.25,35.64 14.33,35.43 14.40,35.76 14.47,35.90 14.54,35.61 14.61,26.76 14.68,28.52 14.75,27.21 14.82,26.20 14.89,24.88 14.96,23.35 15.03,21.70 15.10,19.72 15.17,19.37 15.24,19.44 15.32,19.65 15.39,20.01 15.46,19.91 15.53,19.56 15.60,19.17 15.67,18.74 15.74,18.45 15.81,19.31 15.88,20.91 15.95,21.62 16.02,19.83 16.09,19.29 16.16,18.66 16.23,18.10 16.31,17.66 16.38,17.46 16.45,17.63 16.52,17.63 16.59,17.60 16.66,17.68 16.73,17.75 16.80,17.84 16.87,17.96 16.94,17.84 17.01,17.51 17.08,17.39 17.15,17.29 17.22,17.22 17.30,16.68 17.37,16.90 17.44,17.21 17.51,17.49 17.58,17.90 17.65,18.29 17.72,18.72 17.79,19.31 17.86,20.02 17.93,20.57 18.00,21.09 18.07,22.15 18.14,22.78 18.21,23.38 18.29,24.20 18.36,24.53 18.43,24.31 18.50,24.63 18.57,24.83 18.64,24.52 18.71,24.64 18.78,24.98 18.85,25.34 18.92,25.93 18.99,26.24 19.06,26.15 19.13,26.20 19.20,26.35 19.28,26.46 19.35,26.32 19.42,26.39 19.49,26.92 19.56,27.23 19.63,28.31 19.70,28.25 19.77,28.50 19.84,28.87 19.91,29.10 19.98,29.20 20.05,29.29 20.12,29.59 20.19,29.90 20.27,30.31 20.34,30.34 20.41,30.40 20.48,30.50 20.55,30.61 20.62,30.75 20.69,30.86 20.76,31.07 20.83,31.34 20.90,31.19 20.97,31.23 21.04,31.20 21.11,31.37 21.18,31.35 21.26,31.62 21.33,31.72 21.40,31.64 21.47,31.67 21.54,32.26 21.61,32.10 21.68,32.07 21.75,32.14 21.82,32.26 21.89,32.61 21.96,32.77 22.03,32.92 22.10,32.76 22.17,32.76 22.25,32.73 22.32,32.62 22.39,32.47 22.46,32.12 22.53,32.19 22.60,32.59 22.67,32.84 22.74,32.84 22.81,32.68 22.88,32.49 22.95,32.28 23.02,32.06 23.09,31.89 23.16,31.79 23.24,31.86 23.31,31.99 23.38,32.20 23.45,32.39 23.52,32.47 23.59,32.65 23.66,32.81 23.73,32.90 23.80,33.06 23.87,33.23 23.94,33.48 24.01,33.88 24.08,34.57 24.16,34.75 24.23,34.59 24.30,33.95 24.37,34.08 24.44,34.18 24.51,33.98 24.58,34.15 24.65,34.40 24.72,34.69 24.79,35.00 24.86,35.60 24.93,35.76 25.00,35.36 25.07,35.41 25.15,35.57 25.22,35.67 25.29,35.75 25.36,35.58 25.43,35.95 25.50,36.32 25.57,36.70 25.64,36.69 25.71,36.70 25.78,36.63 25.85,36.50 25.92,36.63 25.99,36.62 26.06,36.90 26.14,36.74 26.21,36.60 26.28,36.43 26.35,36.51 26.42,36.57 26.49,36.70 26.56,36.75 26.63,36.74 26.70,36.73 26.77,36.54 26.84,36.04 26.91,35.15 26.98,34.65 27.05,34.31 27.13,34.01 27.20,33.66 27.27,33.59 27.34,33.80 27.41,34.76 27.48,35.13 27.55,36.03 27.62,35.59 27.69,34.67 27.76,33.81 27.83,33.28 27.90,33.29 27.97,33.38 28.04,34.06 28.12,34.66 28.19,35.28 28.26,35.25 28.33,35.08 28.40,35.06 28.47,35.37 28.54,36.46 28.61,36.87 28.68,36.37 28.75,35.95 28.82,35.06 28.89,34.27 28.96,33.93 29.03,33.62 29.11,33.24 29.18,33.11 29.25,33.10 29.32,33.30 29.39,33.20 29.46,33.18 29.53,33.37 29.60,33.84 29.67,34.30 29.74,34.57 29.81,35.10 29.88,35.75 29.95,36.21 30.02,36.30 30.10,36.71 30.17,37.04 30.24,36.95 30.31,36.70 30.38,35.78 30.45,34.86 30.52,34.68 30.59,34.04 30.66,33.39 30.73,33.03 30.80,32.93 30.87,32.80 30.94,32.55 31.01,31.93 31.09,31.56 31.16,31.34 31.23,31.27 31.30,31.25 31.37,31.31 31.44,31.48 31.51,31.50 31.58,31.43 31.65,31.24 31.72,31.09 31.79,30.94 31.86,30.98 31.93,30.72 32.00,30.28 32.08,29.89 32.15,29.70 32.22,29.47 32.29,29.38 32.36,29.37 32.43,29.04 32.50,28.86 32.57,28.73 32.64,28.48 32.71,28.69 32.78,29.02 32.85,29.05 32.92,28.88 32.99,28.68 33.07,28.58 33.14,28.84 33.21,28.73 33.28,28.73 33.35,28.72 33.42,28.86 33.49,28.88 33.56,28.90 33.63,29.04 33.70,29.29 33.77,29.58 33.84,29.95 33.91,30.09 33.98,30.14 34.06,30.05 34.13,30.25 34.20,30.44 34.27,30.57 34.34,30.70 34.41,30.93 34.48,31.06 34.55,31.20 34.62,32.01 34.69,32.19 34.76,32.24 34.83,31.91 34.90,31.71 34.98,31.74 35.05,31.92 35.12,32.19 35.19,32.37 35.26,32.40 35.33,32.63 35.40,32.89 35.47,33.15 35.54,33.37 35.61,33.81 35.68,33.88 35.75,34.08 35.82,33.53 35.89,33.07 35.97,33.24 36.04,33.40 36.11,33.68 36.18,33.80 36.25,33.82 36.32,34.38 36.39,34.68 36.46,34.56 36.53,34.71 36.60,35.07 36.67,35.62 36.74,36.14 36.81,36.47 36.88,36.92 36.96,37.21 37.03,37.38 37.10,37.67 37.17,38.04 37.24,38.39 37.31,38.74 37.38,39.07 37.45,39.49 37.52,39.83 37.59,40.21 37.66,40.52 37.73,40.83 37.80,41.15 37.87,41.39 37.95,41.65 38.02,41.83 38.09,42.03 38.16,42.08 38.23,42.25 38.30,42.41 38.37,42.59 38.44,42.77 38.51,43.02 38.58,43.09 38.65,43.44 38.72,43.63 38.79,43.88 38.86,43.99 38.94,43.93 39.01,44.13 39.08,44.18 39.15,44.52 39.22,44.83 39.29,45.27 39.36,45.82 39.43,46.24 39.50,46.37 39.57,46.58 39.64,46.80 39.71,46.93 39.78,47.42 39.85,47.99 39.93,48.47 40.00,48.66 40.07,48.55 40.14,48.72 40.21,48.94 40.28,49.23 40.35,49.43 40.42,49.71 40.49,50.05 40.56,50.39 40.63,51.02 40.70,51.00 40.77,51.25 40.84,51.67 40.92,51.93 40.99,52.65 41.06,53.12 41.13,53.33 41.20,53.52 41.27,53.77 41.34,53.93 41.41,53.94 41.48,54.18 41.55,54.44 41.62,54.96 41.69,55.37 41.76,55.71 41.83,56.00 41.91,55.65 41.98,55.54 42.05,55.52 42.12,54.63 42.19,53.73 42.26,53.20 42.33,52.70 42.40,52.28 42.47,51.98 42.54,52.09 42.61,52.42 42.68,52.88 42.75,53.25 42.82,53.32 42.90,53.09 42.97,52.89 43.04,52.61 43.11,52.34 43.18,51.99 43.25,51.80 43.32,51.62 43.39,51.28 43.46,50.86 43.53,50.48 43.60,50.24 43.67,50.16 43.74,50.15 43.81,50.13 43.89,49.97 43.96,49.58 44.03,49.20 44.10,48.79 44.17,48.25 44.24,47.99 44.31,47.41 44.38,47.03 44.45,46.65 44.52,46.25 44.59,45.94 44.66,45.56 44.73,45.43 44.81,45.23 44.88,45.22 44.95,44.61 45.02,44.54 45.09,44.02 45.16,43.51 45.23,43.11 45.30,43.05 45.37,42.69 45.44,42.29 45.51,42.07 45.58,41.88 45.65,41.74 45.72,41.66 45.80,41.61 45.87,41.27 45.94,40.56 46.01,40.13 46.08,39.78 46.15,39.31 46.22,38.92 46.29,38.48 46.36,38.29 46.43,37.88 46.50,37.41 46.57,36.89 46.64,36.12 46.71,35.84 46.79,35.53 46.86,35.26 46.93,35.06 47.00,34.66 47.07,34.00 47.14,33.51 47.21,32.98 47.28,32.38 47.35,32.07 47.42,32.27 47.49,31.88 47.56,31.60 47.63,31.43 47.70,30.84 47.78,30.48 47.85,29.95 47.92,29.52 47.99,29.09 48.06,28.76 48.13,28.91 48.20,28.64 48.27,28.23 48.34,28.05 48.41,28.15 48.48,27.50 48.55,27.57 48.62,27.27 48.69,26.78 48.77,26.44 48.84,25.18 48.91,24.88 48.98,24.38 49.05,23.87 49.12,23.58 49.19,23.17 49.26,22.85 49.33,22.53 49.40,22.39 49.47,22.28 49.54,22.26 49.61,21.70 49.68,20.96 49.76,20.03 49.83,19.97 49.90,19.30 49.97,18.64 50.04,17.46 50.11,17.42 50.18,17.28 50.25,16.94 50.32,16.45 50.39,15.94 50.46,15.86 50.53,15.71 50.60,15.70 50.67,15.35 50.75,14.81 50.82,14.54 50.89,14.19 50.96,13.30 51.03,12.79 51.10,12.55 51.17,12.39 51.24,12.37 51.31,12.48 51.38,12.54 51.45,12.58 51.52,12.64 51.59,12.61 51.66,12.27 51.74,12.00 51.81,11.70 51.88,11.88 51.95,12.77 52.02,12.88 52.09,13.02 52.16,13.08 52.23,12.80 52.30,13.23 52.37,13.42 52.44,13.83 52.51,13.80 52.58,13.64 52.65,14.17 52.73,14.75 52.80,14.45 52.87,13.96 52.94,13.36 53.01,12.42 53.08,12.33 53.15,12.51 53.22,12.76 53.29,12.93 53.36,13.35 53.43,13.75 53.50,13.88 53.57,13.67 53.64,13.08 53.72,12.84 53.79,13.24 53.86,14.81 53.93,15.19 54.00,15.88 54.07,16.10 54.14,16.04 54.21,15.89 54.28,15.47 54.35,14.58 54.42,14.54 54.49,15.55 54.56,16.74 54.64,17.52 54.71,17.44 54.78,17.90 54.85,18.38 54.92,19.26 54.99,20.31 55.06,19.40 55.13,18.35 55.20,17.93 55.27,17.51 55.34,17.25 55.41,17.05 55.48,16.33 55.55,16.86 55.63,17.00 55.70,17.22 55.77,17.49 55.84,17.66 55.91,18.36 55.98,17.96 56.05,17.57 56.12,17.29 56.19,17.04 56.26,16.61 56.33,16.26 56.40,16.05 56.47,15.71 56.54,15.57 56.62,15.25 56.69,14.87 56.76,14.47 56.83,14.10 56.90,13.86 56.97,13.68 57.04,13.47 57.11,13.84 57.18,13.96 57.25,13.81 57.32,13.41 57.39,13.00 57.46,12.65 57.53,12.44 57.61,12.21 57.68,11.52 57.75,10.82 57.82,10.43 57.89,10.11 57.96,9.87 58.03,9.54 58.10,9.13 58.17,8.72 58.24,8.49 58.31,8.29 58.38,8.96 58.45,9.36 58.52,9.41 58.60,8.96 58.67,9.43 58.74,11.78 58.81,10.04 58.88,9.40 58.95,9.55 59.02,11.13 59.09,10.71 59.16,10.21 59.23,10.38 59.30,10.61 59.37,11.50 59.44,12.64 59.51,12.99 59.59,13.22 59.66,13.59 59.73,13.04 59.80,13.68 59.87,13.55 59.94,13.53 60.01,13.97 60.08,14.26 60.15,14.40 60.22,14.62 60.29,14.66 60.36,14.73 60.43,14.95 60.50,14.99 60.58,15.12 60.65,15.12 60.72,16.15 60.79,16.92 60.86,17.70 60.93,18.46 61.00,18.95 61.07,18.64 61.14,18.24 61.21,18.29 61.28,18.39 61.35,16.78 61.42,16.53 61.49,17.31 61.57,17.46 61.64,16.58 61.71,15.74 61.78,15.90 61.85,16.09 61.92,16.35 61.99,17.62 62.06,17.70 62.13,16.86 62.20,15.95 62.27,15.89 62.34,15.56 62.41,15.15 62.48,14.65 62.56,14.51 62.63,14.71 62.70,14.63 62.77,14.04 62.84,12.49 62.91,11.20 62.98,10.58 63.05,11.20 63.12,11.06 63.19,10.53 63.26,10.49 63.33,10.88 63.40,11.22 63.47,10.33 63.55,9.02 63.62,8.39 63.69,8.34 63.76,8.15 63.83,8.34 63.90,8.81 63.97,10.28 64.04,9.81 64.11,9.93 64.18,10.21 64.25,10.79 64.32,11.86 64.39,12.42 64.47,12.93 64.54,12.72 64.61,12.51 64.68,12.23 64.75,12.24 64.82,12.07 64.89,12.02 64.96,12.03 65.03,12.35 65.10,12.07 65.17,11.97 65.24,11.87 65.31,12.33 65.38,12.84 65.46,13.48 65.53,13.69 65.60,13.97 65.67,14.44 65.74,15.24 65.81,15.70 65.88,15.89 65.95,16.01 66.02,16.11 66.09,15.96 66.16,15.78 66.23,15.47 66.30,15.10 66.37,14.76 66.45,14.09 66.52,14.22 66.59,14.56 66.66,14.75 66.73,14.98 66.80,15.05 66.87,14.54 66.94,14.69 67.01,15.56 67.08,15.84 67.15,16.24 67.22,16.26 67.29,16.45 67.36,16.65 67.44,16.83 67.51,17.16 67.58,17.38 67.65,17.67 67.72,18.02 67.79,18.21 67.86,18.17 67.93,18.58 68.00,19.25 68.07,20.05 68.14,20.41 68.21,20.74 68.28,21.01 68.35,21.25 68.43,21.35 68.50,21.57 68.57,22.09 68.64,22.43 68.71,22.45 68.78,22.35 68.85,22.17 68.92,22.27 68.99,22.10 69.06,22.19 69.13,22.35 69.20,23.18 69.27,23.77 69.34,23.56 69.42,23.67 69.49,23.87 69.56,23.87 69.63,24.07 69.70,24.47 69.77,25.01 69.84,25.32 69.91,25.52 69.98,25.92 70.05,26.20 70.12,26.63 70.19,27.03 70.26,27.56 70.33,28.06 70.41,28.35 70.48,28.55 70.55,28.15 70.62,29.23 70.69,29.72 70.76,30.10 70.83,29.71 70.90,30.48 70.97,30.97 71.04,31.17 71.11,31.32 71.18,31.60 71.25,32.08 71.32,32.56 71.40,33.16 71.47,33.12 71.54,33.29 71.61,33.47 71.68,34.29 71.75,34.21 71.82,33.55 71.89,33.57 71.96,33.68 72.03,32.85 72.10,32.97 72.17,33.50 72.24,33.92 72.31,34.90 72.39,35.98 72.46,36.36 72.53,36.60 72.60,36.94 72.67,36.53 72.74,36.33 72.81,36.00 72.88,35.75 72.95,35.64 73.02,35.60 73.09,35.65 73.16,35.56 73.23,35.48 73.30,35.58 73.38,35.51 73.45,35.28 73.52,34.90 73.59,34.58 73.66,34.53 73.73,34.25 73.80,34.20 73.87,33.89 73.94,33.66 74.01,33.53 74.08,33.31 74.15,33.40 74.22,33.86 74.29,34.74 74.37,34.18 74.44,34.30 74.51,34.41 74.58,34.36 74.65,33.54 74.72,33.00 74.79,32.66 74.86,32.37 74.93,32.15 75.00,31.87 75.07,31.83 75.14,31.87 75.21,32.20 75.29,32.38 75.36,32.51 75.43,33.02 75.50,33.05 75.57,33.69 75.64,34.05 75.71,34.41 75.78,34.63 75.85,34.50 75.92,34.52 75.99,34.36 76.06,34.02 76.13,34.18 76.20,34.98 76.28,36.04 76.35,36.54 76.42,37.88 76.49,37.53 76.56,37.29 76.63,36.63 76.70,36.14 76.77,35.61 76.84,35.22 76.91,35.12 76.98,35.21 77.05,35.48 77.12,35.66 77.19,35.70 77.27,35.63 77.34,35.45 77.41,35.79 77.48,35.95 77.55,35.70 77.62,35.95 77.69,36.62 77.76,36.91 77.83,37.14 77.90,37.29 77.97,37.51 78.04,37.59 78.11,37.37 78.18,37.86 78.26,38.08 78.33,37.92 78.40,37.96 78.47,38.06 78.54,38.08 78.61,38.02 78.68,37.37 78.75,36.65 78.82,36.26 78.89,35.20 78.96,35.31 79.03,35.12 79.10,35.18 79.17,35.28 79.25,34.91 79.32,34.76 79.39,34.84 79.46,35.08 79.53,35.05 79.60,34.63 79.67,33.97 79.74,33.60 79.81,33.14 79.88,33.08 79.95,32.85 80.02,32.54 80.09,32.12 80.16,31.50 80.24,31.14 80.31,31.14 80.38,31.44 80.45,31.23 80.52,31.00 80.59,30.78 80.66,30.50 80.73,30.41 80.80,30.50 80.87,30.15 80.94,29.97 81.01,29.69 81.08,29.53 81.15,29.13 81.23,29.11 81.30,28.89 81.37,28.79 81.44,28.40 81.51,28.22 81.58,27.94 81.65,27.68 81.72,27.50 81.79,27.52 81.86,27.49 81.93,28.00 82.00,28.63 82.07,29.27 82.14,29.42 82.22,29.67 82.29,29.36 82.36,28.98 82.43,28.66 82.50,28.47 82.57,28.21 82.64,28.17 82.71,28.38 82.78,28.65 82.85,29.21 82.92,30.23 82.99,30.74 83.06,31.18 83.13,31.54 83.21,31.74 83.28,31.31 83.35,31.10 83.42,31.22 83.49,31.55 83.56,31.66 83.63,31.68 83.70,31.80 83.77,32.28 83.84,32.71 83.91,33.25 83.98,32.25 84.05,31.92 84.12,33.05 84.20,33.35 84.27,33.27 84.34,33.70 84.41,33.97 84.48,34.33 84.55,34.52 84.62,34.50 84.69,34.50 84.76,34.46 84.83,34.57 84.90,34.52 84.97,26.53 85.04,28.39 85.12,27.07 85.19,25.70 85.26,24.56 85.33,23.72 85.40,20.93 85.47,19.56 85.54,19.27 85.61,19.21 85.68,19.84 85.75,20.00 85.82,19.90 85.89,19.36 85.96,19.34 86.03,18.74 86.11,18.44 86.18,19.41 86.25,21.09 86.32,20.90 86.39,19.40 86.46,19.43 86.53,18.46 86.60,18.08 86.67,17.56 86.74,17.60 86.81,17.44 86.88,17.58 86.95,17.55 87.02,17.72 87.10,17.74 87.17,17.81 87.24,17.94 87.31,17.77 87.38,17.41 87.45,17.35 87.52,17.27 87.59,17.02 87.66,16.60 87.73,16.96 87.80,17.14 87.87,17.42 87.94,17.94 88.01,18.20 88.09,18.82 88.16,19.18 88.23,19.96 88.30,20.41 88.37,21.16 88.44,22.00 88.51,22.79 88.58,23.27 88.65,24.00 88.72,24.14 88.79,24.31 88.86,24.58 88.93,24.87 89.00,24.39 89.08,24.53 89.15,25.01 89.22,25.49 89.29,25.90 89.36,25.96 89.43,25.98 89.50,26.19 89.57,26.26 89.64,26.33 89.71,26.42 89.78,26.32 89.85,26.86 89.92,27.14 89.99,28.20 90.07,28.15 90.14,28.45 90.21,28.72 90.28,28.98 90.35,29.02 90.42,29.11 90.49,29.47 90.56,30.00 90.63,30.24 90.70,30.44 90.77,30.37 90.84,30.47 90.91,30.60 90.98,30.70 91.06,30.87 91.13,31.17 91.20,31.21 91.27,31.09 91.34,31.24 91.41,31.18 91.48,31.37 91.55,31.33 91.62,31.46 91.69,31.69 91.76,31.53 91.83,31.59 91.90,32.26 91.97,32.13 92.05,32.00 92.12,31.98 92.19,32.15 92.26,32.58 92.33,32.81 92.40,32.66 92.47,32.72 92.54,32.65 92.61,32.70 92.68,32.65 92.75,32.28 92.82,32.18 92.89,32.12 92.96,32.48 93.04,32.79 93.11,32.85 93.18,32.46 93.25,32.43 93.32,32.30 93.39,31.98 93.46,31.90 93.53,31.78 93.60,31.77 93.67,31.97 93.74,32.13 93.81,32.28 93.88,32.52 93.95,32.64 94.03,32.69 94.10,32.81 94.17,32.93 94.24,33.08 94.31,33.49 94.38,33.70 94.45,34.39 94.52,34.63 94.59,34.51 94.66,33.82 94.73,33.94 94.80,34.21 94.87,33.85 94.95,34.13 95.02,34.28 95.09,34.51 95.16,34.92 95.23,35.32 95.30,35.67 95.37,35.26 95.44,35.26 95.51,35.45 95.58,35.58 95.65,35.66 95.72,35.50 95.79,35.93 95.86,36.21 95.94,36.64 96.01,36.65 96.08,36.46 96.15,36.54 96.22,36.37 96.29,36.52 96.36,36.55 96.43,36.70 96.50,36.52 96.57,36.57 96.64,36.40 96.71,36.43 96.78,36.48 96.85,36.67 96.93,36.69 97.00,36.66 97.07,36.67 97.14,36.38 97.21,36.14 97.28,34.98 97.35,34.65 97.42,34.14 97.49,34.12 97.56,33.67 97.63,33.56 97.70,33.98 97.77,34.16 97.84,35.03 97.92,36.22 97.99,35.59 98.06,34.62 98.13,33.73 98.20,33.08 98.27,33.24 98.34,33.34 98.41,34.00 98.48,34.79 98.55,35.06 98.62,35.22 98.69,34.90 98.76,35.22 98.83,35.46 98.91,36.58 98.98,36.88 99.05,36.39 99.12,35.81 99.19,34.89 99.26,34.17 99.33,33.81 99.40,33.38 99.47,33.16 99.54,32.98 99.61,32.96 99.68,33.34 99.75,33.15 99.82,33.12 99.90,33.42 99.97,33.89 100.04,34.31 100.11,34.46 100.18,35.02 100.25,35.73 100.32,36.11 100.39,36.25 100.46,36.55 100.53,37.02 100.60,36.77 100.67,36.59 100.74,35.74 100.81,34.82 100.89,34.61 100.96,33.87 101.03,33.56 101.10,33.15 101.17,32.71 101.24,32.75 101.31,32.29 101.38,32.01 101.45,31.62 101.52,31.46 101.59,31.17 101.66,31.13 101.73,31.45 101.80,31.38 101.88,31.35 101.95,31.29 102.02,31.06 102.09,30.88 102.16,31.27 102.23,31.08 102.30,30.45 102.37,30.18 102.44,29.73 102.51,29.67 102.58,29.45 102.65,29.27 102.72,29.11 102.79,29.00 102.87,28.72 102.94,28.68 103.01,28.34 103.08,28.66 103.15,28.93 103.22,28.96 103.29,28.84 103.36,28.68 103.43,28.53 103.50,28.81 103.57,28.58 103.64,28.80 103.71,28.71 103.78,28.64 103.86,29.17 103.93,28.81 104.00,29.24 104.07,29.32 104.14,29.46 104.21,29.62 104.28,30.07 104.35,30.02 104.42,30.00 104.49,30.05 104.56,30.31 104.63,30.61 104.70,30.67 104.78,30.95 104.85,31.12 104.92,31.30 104.99,32.05 105.06,32.19 105.13,32.23 105.20,31.65 105.27,31.75 105.34,31.65 105.41,31.89 105.48,32.07 105.55,32.43 105.62,32.41 105.69,32.68 105.77,32.81 105.84,33.15 105.91,33.42 105.98,33.92 106.05,33.76 106.12,33.94 106.19,33.66 106.26,33.06 106.33,33.04 106.40,33.50 106.47,33.70 106.54,33.80 106.61,33.78 106.68,34.64 106.76,34.63 106.83,34.53 106.90,34.63 106.97,35.08 107.04,35.56 107.11,36.05 107.18,36.55 107.25,36.77 107.32,37.11 107.39,37.21 107.46,37.76 107.53,38.03 107.60,38.50 107.67,38.79 107.75,39.12 107.82,39.37 107.89,39.76 107.96,40.11 108.03,40.50 108.10,40.81 108.17,41.13 108.24,41.38 108.31,41.58 108.38,41.88 108.45,42.01 108.52,41.99 108.59,42.24 108.66,42.39 108.74,42.57 108.81,42.70 108.88,42.95 108.95,43.04 109.02,43.42 109.09,43.66 109.16,43.75 109.23,43.99 109.30,44.02 109.37,43.98 109.44,44.15 109.51,44.45 109.58,44.90 109.65,45.15 109.73,45.64 109.80,46.15 109.87,46.43 109.94,46.61 110.01,46.96 110.08,46.92 110.15,47.52 110.22,47.88 110.29,48.29 110.36,48.65 110.43,48.63 110.50,48.75 110.57,48.93 110.64,49.22 110.72,49.48 110.79,49.63 110.86,50.02 110.93,50.52 111.00,51.11 111.07,50.95 111.14,51.22 111.21,51.53 111.28,51.95 111.35,52.68 111.42,53.06 111.49,53.37 111.56,53.44 111.63,53.80 111.71,53.90 111.78,53.90 111.85,54.09 111.92,54.56 111.99,54.92 112.06,55.41 112.13,55.59 112.20,55.99 112.27,55.53 112.34,55.44 112.41,55.59 112.48,54.10 112.55,53.82 112.62,53.19 112.70,52.69 112.77,52.23 112.84,51.88 112.91,51.94 112.98,52.31 113.05,52.67 113.12,53.19 113.19,53.34 113.26,52.91 113.33,52.73 113.40,52.60 113.47,52.32 113.54,52.00 113.61,51.80 113.69,51.54 113.76,51.11 113.83,50.85 113.90,50.56 113.97,50.22 114.04,50.14 114.11,50.01 114.18,50.29 114.25,49.94 114.32,49.74 114.39,49.30 114.46,48.79 114.53,48.21 114.60,47.86 114.68,47.34 114.75,46.98 114.82,46.62 114.89,46.25 114.96,45.74 115.03,45.56 115.10,45.58 115.17,45.47 115.24,45.28 115.31,44.92 115.38,44.42 115.45,43.92 115.52,43.80 115.60,43.11 115.67,43.14 115.74,42.70 115.81,42.42 115.88,41.97 115.95,41.76 116.02,41.70 116.09,41.67 116.16,41.89 116.23,41.13 116.30,40.51 116.37,40.04 116.44,39.62 116.51,39.35 116.59,38.92 116.66,38.44 116.73,38.16 116.80,37.78 116.87,37.33 116.94,36.76 117.01,36.13 117.08,35.65 117.15,35.65 117.22,35.42 117.29,34.98 117.36,34.60 117.43,34.09 117.50,33.72 117.58,33.18 117.65,32.44 117.72,32.39 117.79,32.29 117.86,31.86 117.93,31.62 118.00,31.60 118.07,30.83 118.14,30.40 118.21,30.03 118.28,29.48 118.35,29.03 118.42,28.70 118.49,28.65 118.57,28.63 118.64,28.12 118.71,28.17 118.78,27.92 118.85,27.29 118.92,27.09 118.99,26.87 119.06,27.34 119.13,26.92 119.20,25.25 119.27,24.87 119.34,24.39 119.41,23.89 119.48,23.52 119.56,23.17 119.63,22.94 119.70,22.43 119.77,22.36 119.84,22.25 119.91,22.15 119.98,21.86 120.05,21.67 120.12,20.56 120.19,20.70 120.26,19.20 120.33,18.77 120.40,18.04 120.47,17.23 120.55,17.33 120.62,16.85 120.69,16.49 120.76,16.07 120.83,15.83 120.90,15.86 120.97,15.63 121.04,15.22 121.11,14.60 121.18,14.37 121.25,13.94 121.32,13.21 121.39,12.86 121.46,12.52 121.54,12.37 121.61,12.42 121.68,13.10 121.75,12.57 121.82,12.58 121.89,12.57 121.96,12.65 122.03,12.50 122.10,12.07 122.17,12.00 122.24,12.18 122.31,12.60 122.38,12.87 122.45,12.84 122.53,12.48 122.60,13.05 122.67,13.19 122.74,13.33 122.81,13.51 122.88,13.84 122.95,13.38 123.02,14.31 123.09,14.96 123.16,14.63 123.23,14.13 123.30,13.07 123.37,12.44 123.44,12.30 123.52,12.36 123.59,12.65 123.66,12.85 123.73,13.22 123.80,14.12 123.87,13.88 123.94,14.00 124.01,13.26 124.08,13.67 124.15,14.34 124.22,14.81 124.29,15.21 124.36,15.96 124.43,16.16 124.51,16.20 124.58,15.86 124.65,15.66 124.72,14.53 124.79,14.77 124.86,16.12 124.93,16.79 125.00,17.36 125.07,17.50 125.14,17.81 125.21,18.32 125.28,19.03 125.35,20.09 125.43,19.59 125.50,18.61 125.57,18.00 125.64,17.56 125.71,17.27 125.78,16.94 125.85,16.48 125.92,16.89 125.99,16.95 126.06,17.19 126.13,17.49 126.20,17.67 126.27,17.97 126.34,17.90 126.42,17.62 126.49,17.44 126.56,17.03 126.63,16.63 126.70,16.21 126.77,16.00 126.84,15.70 126.91,15.59 126.98,15.20 127.05,14.86 127.12,14.56 127.19,14.08 127.26,13.88 127.33,13.73 127.41,13.49 127.48,13.53 127.55,13.75 127.62,13.58 127.69,13.25 127.76,12.92 127.83,12.55 127.90,12.28 127.97,12.05 128.04,11.25 128.11,10.71 128.18,10.39 128.25,10.07 128.32,9.70 128.40,9.49 128.47,8.98 128.54,8.57 128.61,8.42 128.68,8.18 128.75,8.42 128.82,9.20 128.89,8.79 128.96,8.96 129.03,8.85 129.10,11.27 129.17,10.77 129.24,9.33 129.31,9.48 129.39,10.72 129.46,10.76 129.53,10.12 129.60,10.26 129.67,10.55 129.74,11.14 129.81,12.39 129.88,12.96 129.95,12.50 130.02,13.05 130.09,13.18 130.16,13.43 130.23,14.17 130.30,13.47 130.38,13.83 130.45,14.10 130.52,14.27 130.59,14.03 130.66,14.46 130.73,14.72 130.80,15.24 130.87,14.93 130.94,15.07 131.01,14.87 131.08,15.94 131.15,16.59 131.22,17.26 131.29,17.98 131.37,18.70 131.44,18.18 131.51,17.64 131.58,17.84 131.65,17.79 131.72,16.55 131.79,16.11 131.86,16.94 131.93,17.03 132.00,15.80 132.07,15.71 132.14,15.85 132.21,16.04 132.28,16.32 132.36,17.00 132.43,17.51 132.50,16.87 132.57,15.92 132.64,16.04 132.71,15.70 132.78,15.29 132.85,14.91 132.92,14.71 132.99,14.67 133.06,14.70 133.13,14.23 133.20,12.69 133.27,11.18 133.35,10.65 133.42,11.30 133.49,11.13 133.56,10.35 133.63,10.39 133.70,10.84 133.77,11.35 133.84,10.37 133.91,8.94 133.98,8.39 134.05,8.31 134.12,8.21 134.19,8.44 134.26,8.61 134.34,10.13 134.41,9.86 134.48,9.98 134.55,10.32 134.62,11.05 134.69,11.73 134.76,12.84 134.83,12.66 134.90,12.85 134.97,12.00 135.04,11.66 135.11,12.26 135.18,11.97 135.26,11.99 135.33,11.96 135.40,12.52 135.47,12.28 135.54,11.96 135.61,11.90 135.68,12.16 135.75,12.75 135.82,13.36 135.89,13.52 135.96,14.03 136.03,14.61 136.10,15.20 136.17,15.86 136.25,15.75 136.32,15.78 136.39,15.91 136.46,15.77 136.53,15.68 136.60,15.46 136.67,14.86 136.74,15.06 136.81,13.94 136.88,14.14 136.95,14.72 137.02,14.73 137.09,14.91 137.16,14.92 137.24,15.02 137.31,14.51 137.38,15.23 137.45,15.83 137.52,16.14 137.59,16.38 137.66,16.40 137.73,16.67 137.80,16.79 137.87,17.14 137.94,17.32 138.01,17.56 138.08,17.92 138.15,17.93 138.23,18.03 138.30,18.45 138.37,19.21 138.44,20.02 138.51,20.42 138.58,20.68 138.65,21.05 138.72,21.25 138.79,21.53 138.86,21.49 138.93,22.04 139.00,22.39 139.07,22.35 139.14,22.13 139.22,22.11 139.29,22.22 139.36,22.40 139.43,22.53 139.50,22.70 139.57,22.99 139.64,23.75 139.71,23.50 139.78,23.59 139.85,23.92 139.92,23.79 139.99,23.94 140.06,24.28 140.13,24.87 140.21,25.11 140.28,25.38 140.35,25.91 140.42,26.09 140.49,26.63 140.56,27.06 140.63,27.55 140.70,27.95 140.77,28.24 140.84,28.04 140.91,27.89 140.98,28.58 141.05,29.57 141.12,30.03 141.20,29.16 141.27,30.52 141.34,30.96 141.41,31.12 141.48,31.23 141.55,31.49 141.62,31.82 141.69,32.32 141.76,33.04 141.83,33.10 141.90,33.05 141.97,33.15 142.04,33.82 142.11,34.21 142.19,33.54 142.26,33.44 142.33,33.56 142.40,32.48 142.47,32.79 142.54,33.38 142.61,33.65 142.68,34.56 142.75,35.93 142.82,36.26 142.89,36.59 142.96,36.59 143.03,36.25 143.10,36.19 143.18,35.84 143.25,35.62 143.32,35.60 143.39,35.28 143.46,35.43 143.53,35.19 143.60,35.20 143.67,35.49 143.74,35.79 143.81,35.19 143.88,34.79 143.95,34.39 144.02,34.40 144.09,34.10 144.17,34.16 144.24,33.81 144.31,33.45 144.38,33.39 144.45,33.13 144.52,33.14 144.59,33.50 144.66,34.29 144.73,34.47 144.80,34.35 144.87,34.21 144.94,34.57 145.01,33.89 145.09,33.13 145.16,33.18 145.23,32.54 145.30,32.27 145.37,31.87 145.44,31.83 145.51,31.91 145.58,32.07 145.65,32.16 145.72,32.61 145.79,32.91 145.86,32.66 145.93,33.58 146.00,33.94 146.08,34.27 146.15,34.56 146.22,34.48 146.29,34.37 146.36,34.08 146.43,33.80 146.50,33.98 146.57,34.69 146.64,35.80 146.71,36.21 146.78,37.66 146.85,37.56 146.92,37.38 146.99,36.68 147.07,35.99 147.14,35.93 147.21,35.34 147.28,34.98 147.35,35.05 147.42,35.34 147.49,35.49 147.56,35.44 147.63,35.44 147.70,35.22 147.77,35.24 147.84,35.50 147.91,35.13 147.98,35.45 148.06,36.19 148.13,36.51 148.20,36.90 148.27,37.03 148.34,37.21 148.41,37.26 148.48,37.01 148.55,37.66 148.62,38.14 148.69,37.70 148.76,37.88 148.83,37.95 148.90,37.91 148.97,37.96 149.05,37.69 149.12,36.77 149.19,36.25 149.26,35.36 149.33,34.94 149.40,34.97 149.47,35.06 149.54,35.19 149.61,34.78 149.68,34.63 149.75,34.76 149.82,35.15 149.89,35.07 149.96,34.61 150.04,33.84 150.11,33.57 150.18,33.02 150.25,33.01 150.32,32.82 150.39,32.55 150.46,32.17 150.53,31.46 150.60,31.20 150.67,31.18 150.74,31.33 150.81,31.09 150.88,30.89 150.95,30.71 151.03,30.44 151.10,30.11 151.17,30.19 151.24,30.10 151.31,29.77 151.38,29.64 151.45,29.40 151.52,28.95 151.59,28.96 151.66,28.77 151.73,28.47 151.80,28.11 151.87,28.15 151.94,27.84 152.02,27.69 152.09,27.50 152.16,27.37 152.23,27.40 152.30,28.00 152.37,28.43 152.44,29.04 152.51,29.21 152.58,29.58 152.65,29.27 152.72,28.94 152.79,28.61 152.86,28.13 152.93,28.03 153.01,28.01 153.08,28.26 153.15,28.61 153.22,29.13 153.29,30.23 153.36,30.73 153.43,31.05 153.50,31.59 153.57,31.61 153.64,31.20 153.71,31.04 153.78,31.20 153.85,31.78 153.92,31.60 154.00,31.10 154.07,31.06 154.14,32.07 154.21,32.63 154.28,33.17 154.35,32.31 154.42,32.37 154.49,33.03 154.56,33.29 154.63,33.27 154.70,33.66 154.77,33.84 154.84,34.27 154.91,34.42 154.99,34.33 155.06,34.41 155.13,34.37 155.20,34.49 155.27,34.44 155.34,27.24 155.41,27.68 155.48,26.73 155.55,25.27 155.62,25.71 155.69,24.48 155.76,21.50 155.83,19.68 155.91,20.88 155.98,20.19 156.05,19.69 156.12,20.54 156.19,20.14 156.26,19.65 156.33,19.12 156.40,18.62 156.47,18.45 156.54,20.29 156.61,21.29 156.68,20.48 156.75,20.53 156.82,19.07 156.90,19.44 156.97,18.38 157.04,18.06 157.11,17.41 157.18,17.75 157.25,17.75 157.32,17.88 157.39,18.04 157.46,17.69 157.53,17.85 157.60,18.14 157.67,17.81 157.74,17.54 157.81,17.36 157.89,17.40 157.96,17.16 158.03,16.86 158.10,16.98 158.17,17.60 158.24,17.40 158.31,18.02 158.38,18.05 158.45,18.98 158.52,19.18 158.59,20.16 158.66,20.16 158.73,21.35 158.80,21.77 158.88,22.76 158.95,23.22 159.02,23.82 159.09,24.38 159.16,24.71 159.23,24.97 159.30,25.01 159.37,24.83 159.44,24.86 159.51,25.26 159.58,25.75 159.65,25.38 159.72,26.04 159.79,25.94 159.87,25.94 159.94,26.14 160.01,26.20 160.08,26.59 160.15,26.17 160.22,26.74 160.29,27.19 160.36,27.68 160.43,28.26 160.50,28.62 160.57,28.46 160.64,28.95 160.71,29.15 160.78,29.38 160.86,29.19 160.93,29.88 161.00,29.95 161.07,30.29 161.14,30.29 161.21,30.42 161.28,30.59 161.35,30.74 161.42,30.85 161.49,30.92 161.56,30.96 161.63,30.89 161.70,30.97 161.77,31.10 161.85,31.28 161.92,31.47 161.99,31.19 162.06,31.37 162.13,31.52 162.20,31.74 162.27,32.13 162.34,31.79 162.41,31.95 162.48,32.16 162.55,32.04 162.62,32.55 162.69,32.77 162.76,32.26 162.84,32.59 162.91,32.75 162.98,32.35 163.05,32.55 163.12,32.02 163.19,32.17 163.26,32.24 163.33,32.70 163.40,32.93 163.47,32.66 163.54,32.66 163.61,32.24 163.68,32.26 163.75,31.84 163.83,31.88 163.90,31.64 163.97,31.92 164.04,31.98 164.11,32.39 164.18,31.94 164.25,32.34 164.32,32.19 164.39,32.68 164.46,32.65 164.53,33.07 164.60,33.16 164.67,33.66 164.74,33.52 164.82,34.16 164.89,34.44 164.96,34.56 165.03,33.93 165.10,34.23 165.17,34.08 165.24,34.12 165.31,34.35 165.38,34.31 165.45,34.31 165.52,34.94 165.59,35.25 165.66,35.22 165.74,35.62 165.81,35.11 165.88,35.45 165.95,35.21 166.02,35.71 166.09,35.68 166.16,35.85 166.23,36.22 166.30,36.50 166.37,36.60 166.44,36.64 166.51,36.64 166.58,36.61 166.65,36.62 166.73,36.66 166.80,36.73 166.87,36.69 166.94,36.52 167.01,36.73 167.08,36.63 167.15,36.86 167.22,36.84 167.29,36.91 167.36,36.93 167.43,36.91 167.50,36.34 167.57,35.79 167.64,35.07 167.72,35.00 167.79,34.19 167.86,34.12 167.93,33.27 168.00,33.91 168.07,34.08 168.14,34.85 168.21,34.88 168.28,35.87 168.35,35.59 168.42,35.21 168.49,34.38 168.56,33.51 168.63,33.41 168.71,34.02 168.78,33.68 168.85,34.72 168.92,34.79 168.99,34.92 169.06,34.94 169.13,35.80 169.20,35.12 169.27,36.05 169.34,36.75 169.41,36.30 169.48,35.83 169.55,34.77 169.62,34.94 169.70,34.33 169.77,33.47 169.84,33.54 169.91,33.07 169.98,32.76 170.05,33.45 170.12,33.45 170.19,33.15 170.26,33.90 170.33,33.95 170.40,34.17 170.47,34.88 170.54,34.93 170.61,35.66 170.69,36.13 170.76,36.47 170.83,36.81 170.90,36.67 170.97,36.76 171.04,36.00 171.11,35.41 171.18,34.76 171.25,34.27 171.32,33.93 171.39,33.98 171.46,33.55 171.53,32.77 171.60,32.75 171.68,32.00 171.75,31.97 171.82,31.33 171.89,32.21 171.96,31.83 172.03,31.46 172.10,31.31 172.17,31.29 172.24,31.28 172.31,31.29 172.38,31.11 172.45,30.89 172.52,31.48 172.59,31.29 172.67,30.45 172.74,30.15 172.81,29.82 172.88,30.04 172.95,29.71 173.02,29.44 173.09,29.17 173.16,29.08 173.23,28.57 173.30,29.07 173.37,28.59 173.44,28.92 173.51,28.80 173.58,29.08 173.66,28.83 173.73,29.18 173.80,28.92 173.87,29.31 173.94,29.00 174.01,29.41 174.08,29.22 174.15,28.49 174.22,29.24 174.29,29.53 174.36,29.15 174.43,29.79 174.50,29.65 174.57,29.54 174.65,30.51 174.72,30.57 174.79,30.58 174.86,30.56 174.93,30.39 175.00,30.98 175.07,30.98 175.14,31.44 175.21,31.09 175.28,31.61 175.35,32.11 175.42,31.93 175.49,32.24 175.57,32.04 175.64,31.91 175.71,31.53 175.78,32.05 175.85,31.88 175.92,32.50 175.99,32.48 176.06,32.55 176.13,32.65 176.20,33.45 176.27,33.56 176.34,33.68 176.41,33.65 176.48,34.53 176.56,34.16 176.63,33.55 176.70,33.25 176.77,33.27 176.84,33.44 176.91,33.62 176.98,33.93 177.05,34.46 177.12,34.83 177.19,34.50 177.26,35.06 177.33,35.82 177.40,35.65 177.47,36.35 177.55,37.13 177.62,36.37 177.69,36.96 177.76,37.54 177.83,37.96 177.90,37.77 177.97,38.21 178.04,38.66 178.11,39.09 178.18,39.51 178.25,39.88 178.32,40.24 178.39,40.59 178.46,40.88 178.54,41.15 178.61,41.62 178.68,41.77 178.75,41.94 178.82,42.12 178.89,42.18 178.96,42.31 179.03,42.49 179.10,42.70 179.17,42.70 179.24,42.95 179.31,43.16 179.38,43.39 179.45,43.71 179.53,43.48 179.60,43.71 179.67,43.89 179.74,44.11 179.81,44.30 179.88,44.48 179.95,44.69 180.02,45.40 180.09,45.38 180.16,45.95 180.23,46.72 180.30,46.42 180.37,46.91 180.44,46.70 180.52,47.49 180.59,47.57 180.66,48.51 180.73,48.60 180.80,48.75 180.87,48.97 180.94,48.97 181.01,49.01 181.08,49.40 181.15,49.17 181.22,50.01 181.29,50.35 181.36,50.82 181.43,51.04 181.51,51.59 181.58,51.38 181.65,51.98 181.72,52.84 181.79,52.84 181.86,52.93 181.93,53.10 182.00,53.82 182.07,54.00 182.14,54.08 182.21,54.13 182.28,54.37 182.35,54.72 182.42,55.03 182.50,55.26 182.57,55.91 182.64,55.68 182.71,55.51 182.78,55.55 182.85,54.20 182.92,54.56 182.99,53.59 183.06,52.73 183.13,51.98 183.20,52.40 183.27,52.40 183.34,53.15 183.41,52.64 183.49,53.47 183.56,53.40 183.63,52.51 183.70,52.94 183.77,52.76 183.84,52.46 183.91,52.24 183.98,51.65 184.05,51.72 184.12,51.26 184.19,50.69 184.26,50.42 184.33,49.95 184.40,50.19 184.48,50.24 184.55,50.51 184.62,49.74 184.69,49.88 184.76,49.10 184.83,48.39 184.90,48.37 184.97,47.61 185.04,47.61 185.11,46.99 185.18,46.33 185.25,46.01 185.32,45.75 185.40,45.64 185.47,45.76 185.54,45.07 185.61,45.13 185.68,45.12 185.75,44.00 185.82,43.82 185.89,43.74 185.96,42.67 186.03,43.09 186.10,42.19 186.17,42.85 186.24,42.07 186.31,41.29 186.39,41.65 186.46,41.70 186.53,42.11 186.60,41.33 186.67,40.93 186.74,40.16 186.81,40.20 186.88,39.62 186.95,39.07 187.02,38.42 187.09,37.77 187.16,38.23 187.23,37.85 187.30,36.75 187.38,35.61 187.45,35.07 187.52,35.81 187.59,35.63 187.66,34.57 187.73,34.35 187.80,34.42 187.87,33.43 187.94,33.58 188.01,32.85 188.08,32.64 188.15,32.21 188.22,31.27 188.29,31.44 188.37,31.85 188.44,30.47 188.51,30.66 188.58,30.07 188.65,29.62 188.72,28.26 188.79,28.27 188.86,28.98 188.93,28.98 189.00,28.00 189.07,27.49 189.14,27.71 189.21,27.71 189.28,27.09 189.36,27.75 189.43,26.90 189.50,26.28 189.57,25.30 189.64,24.99 189.71,24.36 189.78,23.89 189.85,23.71 189.92,22.81 189.99,22.81 190.06,22.34 190.13,22.14 190.20,22.50 190.27,21.93 190.35,21.45 190.42,22.19 190.49,20.56 190.56,20.13 190.63,19.41 190.70,18.66 190.77,17.93 190.84,17.33 190.91,17.06 190.98,16.84 191.05,16.59 191.12,16.17 191.19,15.89 191.26,15.55 191.34,15.33 191.41,15.01 191.48,14.73 191.55,14.47 191.62,13.90 191.69,13.05 191.76,12.17 191.83,12.46 191.90,12.52 191.97,12.50 192.04,13.32 192.11,12.68 192.18,12.47 192.25,12.25 192.33,12.85 192.40,12.08 192.47,11.69 192.54,12.22 192.61,12.40 192.68,12.23 192.75,12.23 192.82,12.34 192.89,12.60 192.96,13.26 193.03,12.59 193.10,13.36 193.17,14.07 193.24,13.29 193.32,13.95 193.39,13.78 193.46,15.12 193.53,14.52 193.60,13.32 193.67,13.23 193.74,12.32 193.81,12.32 193.88,12.41 193.95,12.75 194.02,12.94 194.09,13.42 194.16,13.86 194.23,13.94 194.31,13.55 194.38,13.50 194.45,13.73 194.52,12.88 194.59,14.74 194.66,15.27 194.73,15.90 194.80,16.48 194.87,16.48 194.94,16.43 195.01,15.17 195.08,14.31 195.15,14.94 195.22,16.08 195.30,17.45 195.37,17.57 195.44,17.71 195.51,18.06 195.58,18.74 195.65,18.48 195.72,19.83 195.79,19.37 195.86,19.01 195.93,18.18 196.00,17.73 196.07,17.28 196.14,16.67 196.22,16.44 196.29,16.27 196.36,16.67 196.43,17.17 196.50,16.92 196.57,17.35 196.64,17.90 196.71,17.80 196.78,17.69 196.85,17.29 196.92,16.92 196.99,16.79 197.06,16.32 197.13,16.02 197.21,15.56 197.28,15.55 197.35,14.98 197.42,15.05 197.49,14.14 197.56,13.90 197.63,13.61 197.70,13.36 197.77,13.36 197.84,13.85 197.91,13.34 197.98,13.77 198.05,13.41 198.12,13.19 198.20,12.41 198.27,12.34 198.34,12.40 198.41,11.73 198.48,10.98 198.55,10.65 198.62,10.29 198.69,10.00 198.76,9.45 198.83,9.45 198.90,8.61 198.97,8.61 199.04,8.46 199.11,8.57 199.19,9.74 199.26,9.06 199.33,9.01 199.40,9.68 199.47,11.47 199.54,9.70 199.61,9.87 199.68,9.89 199.75,11.56 199.82,10.23 199.89,9.66 199.96,10.38 200.03,10.73 200.10,11.71 200.18,13.24 200.25,12.43 200.32,13.49 200.39,12.57 200.46,13.28 200.53,12.66 200.60,13.15 200.67,13.42 200.74,13.47 200.81,14.12 200.88,14.60 200.95,14.20 201.02,14.87 201.09,14.36 201.17,15.67 201.24,15.69 201.31,14.91 201.38,15.30 201.45,16.22 201.52,16.22 201.59,17.43 201.66,17.53 201.73,19.27 201.80,18.74 201.87,18.38 201.94,18.76 202.01,17.70 202.08,16.18 202.16,17.46 202.23,17.26 202.30,16.40 202.37,17.23 202.44,16.13 202.51,15.44 202.58,16.74 202.65,16.51 202.72,17.58 202.79,17.04 202.86,16.37 202.93,15.82 203.00,16.09 203.07,15.47 203.15,14.57 203.22,14.89 203.29,14.62 203.36,14.79 203.43,14.36 203.50,14.36 203.57,13.04 203.64,11.44 203.71,10.68 203.78,11.75 203.85,10.37 203.92,10.13 203.99,10.08 204.06,11.10 204.14,11.18 204.21,10.37 204.28,8.56 204.35,8.26 204.42,8.27 204.49,8.27 204.56,8.37 204.63,8.49 204.70,10.02 204.77,9.51 204.84,9.79 204.91,10.31 204.98,11.19 205.05,11.19 205.13,12.50 205.20,12.69 205.27,11.70 205.34,11.10 205.41,12.25 205.48,11.99 205.55,10.23 205.62,11.42 205.69,11.81 205.76,12.64 205.83,12.46 205.90,11.58 205.97,11.96 206.05,11.81 206.12,12.70 206.19,13.60 206.26,13.63 206.33,14.37 206.40,14.21 206.47,14.93 206.54,15.71 206.61,15.27 206.68,15.15 206.75,16.39 206.82,15.38 206.89,15.91 206.96,14.84 207.04,15.03 207.11,14.01 207.18,13.97 207.25,13.97 207.32,14.38 207.39,14.25 207.46,15.19 207.53,14.42 207.60,14.91 207.67,14.23 207.74,15.16 207.81,15.21 207.88,15.91 207.95,16.27 208.03,16.32 208.10,16.93 208.17,16.80 208.24,17.21 208.31,17.21 208.38,17.52 208.45,18.06 208.52,18.00 208.59,17.90 208.66,18.54 208.73,19.24 208.80,20.20 208.87,20.40 208.94,20.88 209.02,20.97 209.09,21.37 209.16,21.37 209.23,21.74 209.30,21.88 209.37,22.42 209.44,22.45 209.51,22.41 209.58,22.29 209.65,22.25 209.72,22.52 209.79,22.39 209.86,22.30 209.93,23.16 210.01,23.16 210.08,23.57 210.15,23.89 210.22,24.25 210.29,23.94 210.36,23.72 210.43,24.33 210.50,24.73 210.57,25.20 210.64,25.74 210.71,26.13 210.78,25.94 210.85,26.86 210.92,27.15 211.00,27.93 211.07,28.02 211.14,28.07 211.21,28.57 211.28,28.71 211.35,28.71 211.42,29.76 211.49,29.83 211.56,30.17 211.63,30.62 211.70,31.50 211.77,31.07 211.84,31.36 211.91,31.62 211.99,31.58 212.06,32.30 212.13,32.52 212.20,33.24 212.27,33.50 212.34,33.34 212.41,34.07 212.48,33.74 212.55,33.90 212.62,33.55 212.69,32.99 212.76,32.99 212.83,32.90 212.90,33.51 212.98,34.18 213.05,35.55 213.12,35.56 213.19,36.92 213.26,36.52 213.33,36.92 213.40,36.16 213.47,36.21 213.54,35.40 213.61,35.46 213.68,35.69 213.75,35.48 213.82,35.74 213.89,35.19 213.97,34.72 214.04,35.27 214.11,35.49 214.18,35.11 214.25,34.72 214.32,34.49 214.39,34.37 214.46,34.36 214.53,34.37 214.60,33.76 214.67,33.76 214.74,33.62 214.81,33.39 214.88,33.36 214.96,33.62 215.03,34.47 215.10,34.11 215.17,34.10 215.24,34.00 215.31,34.17 215.38,33.63 215.45,33.63 215.52,32.71 215.59,33.18 215.66,32.63 215.73,32.22 215.80,31.45 215.88,31.78 215.95,31.48 216.02,32.35 216.09,32.52 216.16,32.84 216.23,32.67 216.30,33.35 216.37,34.00 216.44,34.56 216.51,34.30 216.58,34.44 216.65,34.48 216.72,34.33 216.79,33.86 216.87,33.88 216.94,35.27 217.01,35.46 217.08,36.77 217.15,37.83 217.22,37.26 217.29,37.51 217.36,37.19 217.43,36.06 217.50,35.58 217.57,35.11 217.64,34.89 217.71,34.96 217.78,35.27 217.86,35.61 217.93,35.54 218.00,35.54 218.07,35.67 218.14,35.24 218.21,35.65 218.28,35.15 218.35,35.52 218.42,35.93 218.49,36.32 218.56,36.53 218.63,36.65 218.70,36.76 218.77,36.71 218.85,36.46 218.92,37.66 218.99,38.16 219.06,37.86 219.13,37.93 219.20,37.98 219.27,38.03 219.34,38.07 219.41,37.20 219.48,36.94 219.55,35.97 219.62,34.76 219.69,35.00 219.76,34.62 219.84,35.25 219.91,35.24 219.98,34.88 220.05,34.58 220.12,34.94 220.19,35.22 220.26,34.90 220.33,35.00 220.40,34.27 220.47,33.64 220.54,33.35 220.61,32.99 220.68,32.79 220.75,32.34 220.83,31.95 220.90,31.50 220.97,31.21 221.04,31.25 221.11,30.86 221.18,31.14 221.25,30.87 221.32,30.71 221.39,30.28 221.46,29.77 221.53,30.28 221.60,30.27 221.67,29.88 221.74,29.53 221.82,29.19 221.89,28.88 221.96,28.58 222.03,28.87 222.10,28.59 222.17,28.33 222.24,28.07 222.31,27.81 222.38,27.81 222.45,27.57 222.52,27.51 222.59,27.24 222.66,27.85 222.73,28.58 222.81,29.35 222.88,29.25 222.95,29.50 223.02,29.30 223.09,28.77 223.16,27.90 223.23,28.37 223.30,28.04 223.37,28.14 223.44,28.14 223.51,28.26 223.58,29.25 223.65,29.95 223.72,30.77 223.80,31.31 223.87,31.68 223.94,31.68 224.01,31.57 224.08,31.29 224.15,30.99 224.22,31.68 224.29,31.93 224.36,31.23 224.43,31.76 224.50,32.37 224.57,32.81 224.64,33.27 224.71,32.62 224.79,32.54 224.86,33.24 224.93,33.00 225.00,33.54 225.07,33.91 225.14,32.95 225.21,34.14 225.28,34.55 225.35,34.44 225.42,34.49 225.49,34.27 225.56,34.48 225.63,34.63 225.71,25.95 225.78,25.95 225.85,26.27 225.92,26.27 225.99,26.27 226.06,27.44 226.13,23.41 226.20,23.41 226.27,23.41 226.34,25.67 226.41,22.36 226.48,22.36 226.55,22.36 226.62,20.87 226.70,20.87 226.77,20.87 226.84,20.14 226.91,20.14 226.98,20.14 227.05,19.64 227.12,20.57 227.19,20.57 227.26,20.57 227.33,20.79 227.40,18.87 227.47,18.87 227.54,18.87 227.61,18.87 227.69,18.61 227.76,18.61 227.83,18.61 227.90,17.75 227.97,17.75 228.04,17.75 228.11,17.75 228.18,17.17 228.25,17.15 228.32,17.15 228.39,17.15 228.46,17.01 228.53,18.12 228.60,18.12 228.68,18.12 228.75,18.78 228.82,18.78 228.89,18.78 228.96,20.79 229.03,20.79 229.10,20.79 229.17,20.79 229.24,22.30 229.31,22.30 229.38,22.30 229.45,23.96 229.52,23.96 229.59,23.96 229.67,24.82 229.74,24.82 229.81,24.82 229.88,25.38 229.95,25.38 230.02,22.16 230.09,24.43 230.16,24.43 230.23,24.43 230.30,24.43 230.37,25.42 230.44,25.42 230.51,25.42 230.58,25.42 230.66,26.75 230.73,26.75 230.80,26.75 230.87,28.39 230.94,28.39 231.01,28.39 231.08,28.39 231.15,29.24 231.22,29.24 231.29,29.24 231.36,29.08 231.43,29.08 231.50,29.08 231.57,29.08 231.65,29.28 231.72,29.28 231.79,29.28 231.86,29.28 231.93,29.28 232.00,29.28 232.07,29.53 232.14,29.53 232.21,29.53 232.28,29.99 232.35,29.99 232.42,29.99 232.49,30.81 232.56,30.81 232.64,30.81 232.71,31.59 232.78,31.59 232.85,31.59 232.92,30.43 232.99,30.43 233.06,30.43 233.13,30.43 233.20,31.84 233.27,31.84 233.34,31.84 233.41,32.46 233.48,31.57 233.55,31.57 233.63,32.28 233.70,32.28 233.77,32.28 233.84,32.61 233.91,32.61 233.98,30.92 234.05,30.92 234.12,31.34 234.19,31.34 234.26,31.34 234.33,32.01 234.40,30.85 234.47,30.85 234.54,30.85 234.62,31.87 234.69,31.87 234.76,31.87 234.83,32.15 234.90,32.15 234.97,32.15 235.04,33.57 235.11,33.57 235.18,33.57 235.25,32.95 235.32,33.69 235.39,33.69 235.46,33.69 235.53,34.09 235.61,34.09 235.68,34.09 235.75,33.23 235.82,33.23 235.89,34.59 235.96,34.59 236.03,34.83 236.10,34.83 236.17,34.83 236.24,33.80 236.31,33.80 236.38,35.69 236.45,35.67 236.53,35.67 236.60,35.67 236.67,36.17 236.74,36.17 236.81,36.17 236.88,36.17 236.95,36.52 237.02,36.52 237.09,36.52 237.16,36.59 237.23,36.59 237.30,36.59 237.37,36.72 237.44,36.31 237.52,36.31 237.59,36.84 237.66,36.84 237.73,36.84 237.80,36.47 237.87,36.47 237.94,34.95 238.01,34.95 238.08,34.95 238.15,32.64 238.22,34.75 238.29,34.75 238.36,34.75 238.43,33.05 238.51,34.84 238.58,34.84 238.65,35.00 238.72,35.00 238.79,35.00 238.86,35.56 238.93,33.93 239.00,33.93 239.07,33.93 239.14,32.36 239.21,34.87 239.28,34.87 239.35,34.13 239.42,34.13 239.50,36.12 239.57,36.12 239.64,36.12 239.71,34.99 239.78,36.32 239.85,36.32 239.92,36.32 239.99,36.32 240.06,35.66 240.13,35.66 240.20,35.66 240.27,34.15 240.34,34.15 240.41,34.15 240.49,34.15 240.56,33.31 240.63,35.43 240.70,35.43 240.77,35.32 240.84,35.32 240.91,35.32 240.98,35.61 241.05,36.45 241.12,36.45 241.19,36.65 241.26,36.65 241.33,36.65 241.40,34.79 241.48,34.79 241.55,34.79 241.62,34.08 241.69,34.08 241.76,34.08 241.83,35.43 241.90,35.43 241.97,33.39 242.04,33.39 242.11,33.39 242.18,31.49 242.25,34.09 242.32,34.09 242.39,34.09 242.47,33.29 242.54,33.29 242.61,33.29 242.68,32.72 242.75,32.72 242.82,32.72 242.89,32.05 242.96,32.05 243.03,32.05 243.10,31.21 243.17,31.21 243.24,31.21 243.31,30.18 243.38,30.18 243.46,30.18 243.53,29.05 243.60,29.05 243.67,29.43 243.74,29.43 243.81,29.28 243.88,29.28 243.95,29.28 244.02,29.43 244.09,29.43 244.16,29.43 244.23,30.55 244.30,30.55 244.37,30.55 244.45,30.46 244.52,30.46 244.59,30.46 244.66,30.46 244.73,29.21 244.80,31.23 244.87,31.23 244.94,31.09 245.01,31.09 245.08,31.09 245.15,31.19 245.22,31.19 245.29,31.19 245.36,30.90 245.44,30.90 245.51,32.66 245.58,32.66 245.65,31.96 245.72,31.96 245.79,31.96 245.86,32.62 245.93,32.10 246.00,32.10 246.07,32.10 246.14,31.84 246.21,31.84 246.28,31.40 246.36,32.43 246.43,32.43 246.50,32.43 246.57,32.43 246.64,33.50 246.71,33.50 246.78,33.50 246.85,33.98 246.92,33.98 246.99,33.98 247.06,33.44 247.13,33.44 247.20,33.44 247.27,33.70 247.35,33.70 247.42,33.70 247.49,34.87 247.56,34.87 247.63,34.87 247.70,36.68 247.77,36.68 247.84,36.68 247.91,38.69 247.98,36.48 248.05,36.48 248.12,36.48 248.19,37.99 248.26,37.99 248.34,37.99 248.41,39.15 248.48,39.15 248.55,39.15 248.62,40.26 248.69,40.26 248.76,40.26 248.83,41.20 248.90,41.20 248.97,41.20 249.04,41.86 249.11,41.86 249.18,42.78 249.25,42.81 249.33,42.81 249.40,42.81 249.47,42.71 249.54,42.71 249.61,42.71 249.68,42.71 249.75,42.88 249.82,42.88 249.89,42.88 249.96,43.48 250.03,43.48 250.10,43.48 250.17,44.08 250.24,44.08 250.32,44.08 250.39,44.40 250.46,44.40 250.53,46.07 250.60,46.07 250.67,45.84 250.74,45.84 250.81,45.84 250.88,47.57 250.95,47.57 251.02,47.57 251.09,47.85 251.16,47.85 251.23,47.85 251.31,47.85 251.38,48.97 251.45,48.21 251.52,48.21 251.59,48.21 251.66,49.98 251.73,49.98 251.80,49.98 251.87,50.89 251.94,51.33 252.01,51.33 252.08,51.33 252.15,51.33 252.22,51.23 252.30,51.23 252.37,53.38 252.44,53.91 252.51,53.91 252.58,53.91 252.65,54.44 252.72,54.44 252.79,54.44 252.86,55.09 252.93,55.09 253.00,55.09 253.07,55.41 253.14,55.41 253.21,55.41 253.29,55.08 253.36,55.08 253.43,55.08 253.50,53.15 253.57,53.15 253.64,53.15 253.71,55.72 253.78,53.91 253.85,53.91 253.92,55.20 253.99,55.20 254.06,55.20 254.13,52.88 254.20,52.88 254.28,52.88 254.35,52.18 254.42,52.18 254.49,52.18 254.56,50.58 254.63,51.10 254.70,51.10 254.77,49.85 254.84,49.85 254.91,49.85 254.98,49.64 255.05,49.64 255.12,47.93 255.19,47.65 255.27,47.65 255.34,47.65 255.41,47.65 255.48,47.19 255.55,45.75 255.62,45.06 255.69,45.06 255.76,45.06 255.83,44.50 255.90,44.50 255.97,44.33 256.04,44.33 256.11,44.33 256.19,44.01 256.26,44.01 256.33,41.77 256.40,40.98 256.47,40.98 256.54,40.98 256.61,41.95 256.68,38.84 256.75,38.84 256.82,39.04 256.89,42.07 256.96,42.07 257.03,42.07 257.10,42.07 257.18,41.46 257.25,41.46 257.32,41.46 257.39,39.54 257.46,39.54 257.53,39.54 257.60,38.08 257.67,38.08 257.74,38.08 257.81,34.57 257.88,35.87 257.95,35.87 258.02,35.87 258.09,32.83 258.17,34.40 258.24,34.40 258.31,34.40 258.38,34.40 258.45,32.63 258.52,32.63 258.59,31.63 258.66,29.90 258.73,29.90 258.80,29.19 258.87,29.19 258.94,29.19 259.01,27.88 259.08,27.88 259.16,27.88 259.23,27.36 259.30,27.36 259.37,27.36 259.44,25.87 259.51,25.87 259.58,25.87 259.65,25.87 259.72,23.54 259.79,25.71 259.86,25.71 259.93,25.71 260.00,23.56 260.07,23.56 260.15,23.56 260.22,21.55 260.29,21.55 260.36,21.55 260.43,22.31 260.50,19.90 260.57,19.90 260.64,19.33 260.71,22.34 260.78,22.34 260.85,22.34 260.92,18.86 260.99,18.86 261.06,20.18 261.14,18.06 261.21,18.06 261.28,18.06 261.35,17.03 261.42,17.03 261.49,14.95 261.56,14.95 261.63,14.95 261.70,13.02 261.77,13.02 261.84,13.02 261.91,11.35 261.98,11.35 262.05,11.35 262.13,8.48 262.20,8.48 262.27,8.48 262.34,9.55 262.41,13.43 262.48,13.43 262.55,11.88 262.62,11.88 262.69,13.62 262.76,13.62 262.83,11.15 262.90,11.15 262.97,13.18 263.04,13.18 263.12,12.38 263.19,12.38 263.26,12.38 263.33,13.00 263.40,9.12 263.47,10.51 263.54,10.51 263.61,10.51 263.68,12.82 263.75,12.82 263.82,12.82 263.89,11.31 263.96,11.31 264.03,11.31 264.11,12.39 264.18,12.39 264.25,10.61 264.32,10.61 264.39,12.69 264.46,12.69 264.53,12.69 264.60,13.59 264.67,13.59 264.74,13.59 264.81,11.96 264.88,11.96 264.95,15.04 265.02,15.20 265.10,15.20 265.17,15.20 265.24,16.07 265.31,16.07 265.38,16.07 265.45,13.49 265.52,15.57 265.59,15.57 265.66,15.57 265.73,15.57 265.80,15.87 265.87,15.87 265.94,18.33 266.02,18.33 266.09,18.33 266.16,16.95 266.23,16.95 266.30,17.97 266.37,17.97 266.44,17.97 266.51,15.94 266.58,15.94 266.65,16.32 266.72,16.32 266.79,16.32 266.86,16.32 266.93,18.01 267.01,16.62 267.08,16.62 267.15,19.45 267.22,19.45 267.29,19.45 267.36,18.74 267.43,16.67 267.50,16.67 267.57,17.12 267.64,15.39 267.71,15.39 267.78,15.39 267.85,14.42 267.92,14.42 268.00,14.42 268.07,13.56 268.14,13.56 268.21,14.22 268.28,12.84 268.35,12.84 268.42,12.84 268.49,12.60 268.56,12.60 268.63,12.60 268.70,12.60 268.77,11.55 268.84,11.55 268.91,11.55 268.99,10.28 269.06,10.28 269.13,9.81 269.20,9.81 269.27,9.32 269.34,9.32 269.41,7.25 269.48,7.25 269.55,9.35 269.62,7.13 269.69,7.13 269.76,7.13 269.83,10.65 269.90,5.95 269.98,5.95 270.05,8.61 270.12,8.61 270.19,8.61 270.26,4.00 270.33,8.41 270.40,8.41 270.47,8.41 270.54,12.40 270.61,7.39 270.68,7.39 270.75,10.87 270.82,10.87 270.89,10.87 270.97,13.23 271.04,13.23 271.11,10.11 271.18,13.11 271.25,13.11 271.32,13.11 271.39,10.90 271.46,10.90 271.53,14.66 271.60,14.66 271.67,12.41 271.74,12.41 271.81,16.37 271.88,16.37 271.96,15.75 272.03,15.75 272.10,15.75 272.17,16.06 272.24,16.06 272.31,16.06 272.38,19.91 272.45,19.91 272.52,18.14 272.59,18.14 272.66,18.14 272.73,15.43 272.80,15.43 272.87,15.43 272.95,16.79 273.02,16.79 273.09,16.79 273.16,16.64 273.23,15.39 273.30,15.39 273.37,15.39 273.44,15.39 273.51,12.85 273.58,14.52 273.65,14.52 273.72,14.52 273.79,10.47 273.86,10.47 273.94,10.47 274.01,10.47 274.08,7.98 274.15,7.98 274.22,7.98 274.29,7.98 274.36,7.26 274.43,7.26 274.50,7.26 274.57,9.33 274.64,9.73 274.71,9.73 274.78,9.73 274.85,9.73 274.93,9.58 275.00,8.64 275.07,8.64 275.14,8.64 275.21,11.22 275.28,11.22 275.35,11.22 275.42,11.22 275.49,12.76 275.56,12.76 275.63,9.59 275.70,9.97 275.77,9.97 275.84,9.97 275.92,6.54 275.99,8.15 276.06,8.15 276.13,10.95 276.20,10.95 276.27,10.95 276.34,11.99 276.41,8.82 276.48,8.82 276.55,11.65 276.62,11.65 276.69,11.65 276.76,14.18 276.84,14.18 276.91,14.18 276.98,13.30 277.05,13.30 277.12,13.30 277.19,13.30 277.26,13.90 277.33,13.90 277.40,13.90 277.47,11.00 277.54,11.00 277.61,11.00 277.68,14.21 277.75,10.38 277.83,10.38 277.90,12.83 277.97,12.83 278.04,12.83 278.11,15.15 278.18,11.78 278.25,11.78 278.32,14.28 278.39,14.28 278.46,17.13 278.53,17.13 278.60,17.13 278.67,17.13 278.74,17.61 278.82,17.81 278.89,17.81 278.96,17.81 279.03,17.81 279.10,19.55 279.17,19.55 279.24,19.55 279.31,21.57 279.38,21.57 279.45,22.09 279.52,21.78 279.59,21.78 279.66,21.78 279.73,22.50 279.81,22.50 279.88,22.50 279.95,23.24 280.02,23.24 280.09,22.91 280.16,22.77 280.23,22.77 280.30,22.71 280.37,22.71 280.44,22.71 280.51,23.39 280.58,23.39 280.65,23.39 280.72,23.99 280.80,25.39 280.87,25.39 280.94,25.39 281.01,27.42 281.08,27.00 281.15,27.00 281.22,27.00 281.29,27.72 281.36,27.72 281.43,26.63 281.50,28.97 281.57,28.97 281.64,28.97 281.71,28.97 281.79,32.45 281.86,32.45 281.93,32.45 282.00,31.12 282.07,31.12 282.14,31.12 282.21,31.12 282.28,30.73 282.35,30.73 282.42,30.73 282.49,30.73 282.56,33.18 282.63,32.66 282.70,32.66 282.78,32.66 282.85,32.48 282.92,32.48 282.99,32.48 283.06,32.48 283.13,32.48 283.20,34.23 283.27,34.23 283.34,34.23 283.41,37.99 283.48,36.92 283.55,36.92 283.62,36.92 283.69,34.80 283.77,34.80 283.84,36.53 283.91,35.07 283.98,35.07 284.05,35.07 284.12,35.92 284.19,35.92 284.26,33.73 284.33,33.73 284.40,34.91 284.47,34.91 284.54,34.91 284.61,34.41 284.68,34.41 284.76,34.41 284.83,34.24 284.90,34.24 284.97,32.65 285.04,32.65 285.11,32.37 285.18,32.37 285.25,32.37 285.32,32.79 285.39,33.74 285.46,33.74 285.53,33.74 285.60,33.71 285.67,33.71 285.75,33.71 285.82,33.71 285.89,32.86 285.96,32.86 286.03,32.86 286.10,34.78 286.17,31.71 286.24,31.71 286.31,31.71 286.38,30.82 286.45,30.82 286.52,30.82 286.59,32.00 286.67,32.00 286.74,32.00 286.81,33.78 286.88,33.78 286.95,33.78 287.02,34.45 287.09,33.38 287.16,33.38 287.23,33.38 287.30,33.03 287.37,33.03 287.44,36.50 287.51,36.50 287.58,36.50 287.66,36.50 287.73,35.78 287.80,35.78 287.87,34.59 287.94,34.59 288.01,34.59 288.08,34.74 288.15,34.74 288.22,34.74 288.29,34.74 288.36,34.74 288.43,34.93 288.50,34.93 288.57,34.93 288.65,35.82 288.72,35.82 288.79,35.82 288.86,36.42 288.93,36.42 289.00,36.42 289.07,36.17 289.14,36.17 289.21,36.17 289.28,36.17 289.35,38.12 289.42,37.11 289.49,37.11 289.56,36.81 289.64,36.81 289.71,36.81 289.78,36.20 289.85,36.20 289.92,36.20 289.99,33.35 290.06,34.52 290.13,34.52 290.20,34.52 290.27,33.69 290.34,33.69 290.41,34.45 290.48,34.45 290.55,34.45 290.63,34.03 290.70,34.88 290.77,34.88 290.84,34.88 290.91,33.17 290.98,33.17 291.05,33.17 291.12,31.74 291.19,31.74 291.26,30.73 291.33,30.73 291.40,30.73 291.47,30.45 291.54,30.45 291.62,30.45 291.69,29.83 291.76,29.83 291.83,29.83 291.90,29.83 291.97,28.68 292.04,28.68 292.11,28.68 292.18,27.76 292.25,27.76 292.32,27.76 292.39,28.32 292.46,28.32 292.53,28.32 292.61,27.68 292.68,27.68 292.75,27.68 292.82,27.68 292.89,28.44 292.96,26.74 293.03,26.74 293.10,28.26 293.17,28.26 293.24,28.26 293.31,28.06 293.38,28.06 293.45,28.06 293.52,27.02 293.60,27.02 293.67,28.01 293.74,28.01 293.81,28.01 293.88,29.31 293.95,29.31 294.02,29.31 294.09,31.31 294.16,31.31 294.23,31.31 294.30,31.31 294.37,31.83 294.44,31.83 294.51,29.71 294.59,32.25 294.66,32.25 294.73,32.25 294.80,30.68 294.87,32.37 294.94,32.37 295.01,32.37 295.08,32.37 295.15,33.69 295.22,33.69 295.29,33.69 295.36,31.52 295.43,34.26 295.50,34.26 295.58,34.26 295.65,34.26 295.72,33.77 295.79,33.77 295.86,33.77 295.93,33.77 296.00,33.64" />
</svg>