<svg width="300" height="60" xmlns="http://www.w3.org/2000/svg">
  <polyline fill="rgba(255,200,0,0.3)" stroke="#ffbb00" stroke-width="2" points="4.00,4.00 5.13,5.35 6.25,6.82 7.38,7.84 8.51,8.57 9.64,9.28 10.76,10.23 11.89,11.30 13.02,12.38 14.15,13.38 15.27,14.34 16.40,15.66 17.53,16.86 18.66,18.01 19.78,19.33 20.91,21.11 22.04,23.68 23.17,25.42 24.29,26.06 25.42,26.65 26.55,27.47 27.68,28.29 28.80,28.68 29.93,28.95 31.06,29.73 32.19,30.77 33.31,32.18 34.44,33.44 35.57,35.06 36.69,36.87 37.82,38.75 38.95,39.87 40.08,40.07 41.20,39.55 42.33,38.46 43.46,36.33 44.59,34.92 45.71,33.53 46.84,32.28 47.97,31.02 49.10,29.56 50.22,28.19 51.35,27.01 52.48,25.89 53.61,24.96 54.73,24.63 55.86,25.05 56.99,26.00 58.12,27.41 59.24,29.13 60.37,30.85 61.50,32.65 62.63,34.45 63.75,36.19 64.88,38.01 66.01,39.81 67.14,41.51 68.26,43.01 69.39,44.28 70.52,46.07 71.64,47.87 72.77,49.81 73.90,51.63 75.03,53.33 76.15,55.35 77.28,4.41 78.41,5.50 79.54,7.42 80.66,7.94 81.79,8.71 82.92,9.13 84.05,9.94 85.17,11.34 86.30,12.31 87.43,13.37 88.56,14.46 89.68,15.96 90.81,16.73 91.94,18.43 93.07,19.57 94.19,21.71 95.32,22.75 96.45,25.26 97.58,25.26 98.70,26.51 99.83,27.48 100.96,28.39 102.08,28.75 103.21,29.17 104.34,29.94 105.47,31.15 106.59,32.16 107.72,33.58 108.85,35.36 109.98,37.34 111.10,39.40 112.23,40.59 113.36,40.51 114.49,41.15 115.61,37.75 116.74,36.82 117.87,35.06 119.00,33.84 120.12,32.18 121.25,31.33 122.38,29.58 123.51,28.25 124.63,26.88 125.76,25.70 126.89,24.82 128.02,24.81 129.14,25.17 130.27,26.11 131.40,27.34 132.53,28.96 133.65,31.22 134.78,33.08 135.91,34.75 137.03,36.81 138.16,38.42 139.29,39.68 140.42,42.31 141.54,43.08 142.67,44.49 143.80,46.27 144.93,47.91 146.05,49.72 147.18,51.70 148.31,53.41 149.44,55.39 150.56,4.05 151.69,4.90 152.82,6.19 153.95,7.16 155.07,7.40 156.20,7.46 157.33,10.33 158.46,11.59 159.58,11.79 160.71,14.50 161.84,14.78 162.97,15.43 164.09,15.97 165.22,21.55 166.35,23.53 167.47,26.08 168.60,23.25 169.73,25.35 170.86,27.05 171.98,29.05 173.11,29.77 174.24,30.46 175.37,30.70 176.49,30.10 177.62,29.17 178.75,29.13 179.88,30.33 181.00,32.79 182.13,34.81 183.26,37.28 184.39,39.48 185.51,43.16 186.64,41.18 187.77,42.75 188.90,38.19 190.02,37.54 191.15,34.79 192.28,33.30 193.41,31.89 194.53,33.02 195.66,31.24 196.79,29.67 197.92,26.92 199.04,25.71 200.17,24.82 201.30,24.48 202.42,24.96 203.55,24.52 204.68,26.21 205.81,26.13 206.93,31.43 208.06,34.22 209.19,35.29 210.32,37.48 211.44,37.48 212.57,40.35 213.70,43.26 214.83,42.73 215.95,44.79 217.08,46.81 218.21,47.30 219.34,50.53 220.46,51.50 221.59,53.78 222.72,53.33 223.85,4.39 224.97,4.39 226.10,4.39 227.23,6.86 228.36,6.86 229.48,6.86 230.61,8.47 231.74,8.47 232.86,11.16 233.99,13.51 235.12,13.51 236.25,21.27 237.37,21.27 238.50,27.61 239.63,27.61 240.76,27.61 241.88,33.92 243.01,33.92 244.14,33.92 245.27,38.40 246.39,38.40 247.52,41.92 248.65,41.92 249.78,41.92 250.90,29.19 252.03,29.19 253.16,29.19 254.29,29.19 255.41,31.37 256.54,31.37 257.67,31.37 258.80,42.24 259.92,42.24 261.05,42.24 262.18,42.24 263.31,45.16 264.43,45.16 265.56,41.80 266.69,41.80 267.81,41.80 268.94,35.30 270.07,35.30 271.20,29.31 272.32,29.31 273.45,29.31 274.58,25.47 275.71,25.47 276.83,25.47 277.96,27.05 279.09,27.17 280.22,30.24 281.34,30.24 282.47,30.24 283.60,38.08 284.73,38.08 285.85,39.34 286.98,39.34 288.11,39.34 289.24,47.76 290.36,47.76 291.49,47.76 292.62,47.76 293.75,52.08 294.87,56.00 296.00,56.00" />
</svg>