<svg width="300" height="60" xmlns="http://www.w3.org/2000/svg">
  <polyline fill="rgba(255,200,0,0.3)" stroke="#ffbb00" stroke-width="2" points="4.00,30.05 8.36,29.94 12.72,33.68 17.07,37.31 21.43,39.98 25.79,41.98 30.15,44.46 34.51,44.19 38.87,45.67 43.22,46.02 47.58,41.85 51.94,41.97 56.30,45.11 60.66,48.40 65.01,51.60 69.37,54.88 73.73,55.27 78.09,31.92 82.45,30.71 86.81,32.70 91.16,35.93 95.52,39.38 99.88,41.69 104.24,44.02 108.60,45.49 112.96,45.27 117.31,45.27 121.67,41.99 126.03,42.16 130.39,43.45 134.75,47.16 139.10,50.63 143.46,55.03 147.82,54.32 152.18,28.73 156.54,30.28 160.90,30.28 165.25,34.42 169.61,38.13 173.97,41.84 178.33,44.77 182.69,44.42 187.04,46.69 191.40,46.17 195.76,40.57 200.12,40.65 204.48,44.19 208.84,47.21 213.19,50.31 217.55,55.31 221.91,54.99 226.27,4.00 230.63,27.89 234.99,27.89 239.34,10.94 243.70,27.89 248.06,27.89 252.42,27.89 256.78,38.06 261.13,38.06 265.49,38.06 269.85,22.89 274.21,38.15 278.57,38.15 282.93,38.15 287.28,49.45 291.64,49.45 296.00,56.00" />
</svg>