<svg width="300" height="60" xmlns="http://www.w3.org/2000/svg">
  <polyline fill="rgba(255,200,0,0.3)" stroke="#ffbb00" stroke-width="2" points="4.00,55.81 4.22,55.74 4.44,55.69 4.66,55.74 4.88,55.81 5.09,56.00 5.31,55.76 5.53,55.75 5.75,55.70 5.97,55.65 6.19,55.60 6.41,55.51 6.63,55.51 6.85,55.51 7.06,55.46 7.28,55.41 7.50,55.35 7.72,55.30 7.94,55.24 8.16,55.20 8.38,55.15 8.60,55.12 8.82,55.09 9.03,55.05 9.25,55.01 9.47,54.96 9.69,54.91 9.91,54.86 10.13,54.80 10.35,54.76 10.57,54.69 10.79,54.68 11.00,54.63 11.22,54.56 11.44,54.56 11.66,54.90 11.88,54.59 12.10,54.51 12.32,54.74 12.54,54.75 12.76,54.59 12.97,54.65 13.19,54.33 13.41,54.24 13.63,54.17 13.85,54.13 14.07,54.08 14.29,54.04 14.51,53.98 14.73,53.95 14.94,53.83 15.16,53.79 15.38,53.84 15.60,53.78 15.82,53.73 16.04,53.68 16.26,53.63 16.48,53.54 16.70,53.47 16.91,53.41 17.13,53.30 17.35,53.22 17.57,53.18 17.79,53.10 18.01,53.14 18.23,53.11 18.45,53.05 18.67,52.79 18.88,52.66 19.10,52.67 19.32,52.73 19.54,52.84 19.76,52.89 19.98,52.94 20.20,52.87 20.42,52.74 20.64,52.62 20.85,52.55 21.07,52.59 21.29,52.61 21.51,52.52 21.73,52.41 21.95,52.36 22.17,52.33 22.39,52.25 22.61,52.23 22.82,52.18 23.04,52.08 23.26,51.97 23.48,51.88 23.70,51.83 23.92,51.76 24.14,51.63 24.36,51.45 24.58,51.32 24.79,51.19 25.01,51.08 25.23,50.98 25.45,50.97 25.67,50.91 25.89,50.99 26.11,51.00 26.33,51.00 26.55,51.03 26.76,50.91 26.98,50.83 27.20,50.69 27.42,50.57 27.64,50.53 27.86,50.45 28.08,50.41 28.30,50.35 28.52,50.29 28.73,50.17 28.95,50.00 29.17,49.91 29.39,49.84 29.61,49.81 29.83,49.85 30.05,49.85 30.27,49.88 30.49,49.90 30.70,49.95 30.92,50.01 31.14,50.09 31.36,50.21 31.58,50.34 31.80,50.46 32.02,50.61 32.24,50.66 32.46,50.58 32.67,50.48 32.89,50.42 33.11,50.28 33.33,50.19 33.55,50.14 33.77,50.13 33.99,50.17 34.21,50.23 34.43,50.30 34.64,50.37 34.86,50.43 35.08,50.53 35.30,50.63 35.52,50.72 35.74,50.83 35.96,50.91 36.18,50.98 36.40,51.03 36.61,51.10 36.83,51.15 37.05,51.29 37.27,51.13 37.49,51.08 37.71,51.07 37.93,51.03 38.15,50.97 38.37,50.92 38.58,50.85 38.80,50.77 39.02,50.68 39.24,50.57 39.46,50.45 39.68,50.32 39.90,50.17 40.12,50.04 40.34,49.93 40.55,49.82 40.77,49.73 40.99,49.61 41.21,49.55 41.43,49.45 41.65,49.32 41.87,49.19 42.09,49.02 42.31,48.87 42.52,48.72 42.74,48.56 42.96,48.43 43.18,48.35 43.40,48.24 43.62,48.10 43.84,48.07 44.06,47.98 44.28,47.87 44.49,47.95 44.71,48.11 44.93,48.46 45.15,48.69 45.37,49.02 45.59,49.16 45.81,49.28 46.03,49.38 46.25,49.45 46.46,49.55 46.68,49.72 46.90,49.83 47.12,49.82 47.34,49.85 47.56,49.87 47.78,49.90 48.00,49.93 48.22,49.91 48.43,49.88 48.65,49.81 48.87,49.76 49.09,49.71 49.31,49.61 49.53,49.53 49.75,49.45 49.97,49.34 50.19,49.24 50.40,49.12 50.62,48.98 50.84,48.81 51.06,48.64 51.28,48.49 51.50,48.30 51.72,48.18 51.94,48.10 52.16,47.88 52.37,47.67 52.59,47.46 52.81,47.28 53.03,47.08 53.25,46.66 53.47,46.54 53.69,46.38 53.91,46.10 54.13,45.77 54.34,45.44 54.56,45.08 54.78,44.85 55.00,44.70 55.22,44.53 55.44,44.38 55.66,44.07 55.88,43.86 56.10,43.54 56.31,43.36 56.53,43.16 56.75,42.91 56.97,42.69 57.19,42.48 57.41,42.25 57.63,42.07 57.85,41.86 58.07,41.58 58.28,41.31 58.50,41.04 58.72,40.75 58.94,40.45 59.16,40.16 59.38,39.94 59.60,39.69 59.82,39.44 60.04,39.17 60.25,38.90 60.47,38.70 60.69,38.51 60.91,38.27 61.13,37.91 61.35,37.63 61.57,37.42 61.79,37.19 62.01,36.93 62.22,36.61 62.44,36.29 62.66,36.00 62.88,35.71 63.10,35.45 63.32,35.21 63.54,35.06 63.76,35.00 63.98,34.59 64.19,34.24 64.41,34.00 64.63,33.34 64.85,33.22 65.07,32.84 65.29,32.60 65.51,32.40 65.73,32.18 65.95,32.19 66.16,32.19 66.38,32.11 66.60,32.09 66.82,31.98 67.04,31.83 67.26,31.47 67.48,31.26 67.70,31.07 67.92,30.91 68.13,30.77 68.35,30.67 68.57,30.67 68.79,30.82 69.01,30.94 69.23,30.74 69.45,30.31 69.67,30.02 69.89,29.77 70.10,29.53 70.32,29.31 70.54,29.10 70.76,28.89 70.98,28.65 71.20,28.32 71.42,27.89 71.64,27.49 71.86,27.26 72.07,26.98 72.29,26.90 72.51,26.79 72.73,26.88 72.95,26.87 73.17,5.12 73.39,5.00 73.61,4.93 73.83,4.83 74.04,4.73 74.26,4.68 74.48,4.57 74.70,4.54 74.92,4.49 75.14,4.46 75.36,4.39 75.58,4.31 75.80,4.20 76.01,4.05 76.23,26.87 76.45,26.86 76.67,26.68 76.89,26.47 77.11,26.30 77.33,26.16 77.55,26.12 77.77,25.94 77.99,26.01 78.20,26.05 78.42,26.23 78.64,26.00 78.86,25.44 79.08,25.14 79.30,25.03 79.52,24.99 79.74,24.90 79.96,24.81 80.17,24.61 80.39,24.53 80.61,24.53 80.83,24.33 81.05,24.06 81.27,24.05 81.49,23.99 81.71,24.14 81.93,24.33 82.14,24.49 82.36,24.34 82.58,23.29 82.80,22.70 83.02,22.10 83.24,21.51 83.46,21.47 83.68,21.54 83.90,21.88 84.11,21.84 84.33,21.70 84.55,21.60 84.77,21.32 84.99,20.96 85.21,20.79 85.43,20.58 85.65,20.50 85.87,20.31 86.08,20.00 86.30,19.76 86.52,19.51 86.74,19.34 86.96,19.35 87.18,19.42 87.40,19.41 87.62,19.37 87.84,19.31 88.05,19.27 88.27,19.16 88.49,19.00 88.71,18.82 88.93,18.69 89.15,18.54 89.37,18.36 89.59,18.14 89.81,17.95 90.02,17.77 90.24,17.50 90.46,17.26 90.68,16.93 90.90,16.34 91.12,15.92 91.34,15.88 91.56,15.95 91.78,15.66 91.99,15.36 92.21,15.16 92.43,14.87 92.65,14.56 92.87,14.19 93.09,13.88 93.31,13.53 93.53,13.13 93.75,12.80 93.96,12.45 94.18,12.32 94.40,12.05 94.62,11.71 94.84,11.39 95.06,11.10 95.28,10.89 95.50,10.43 95.72,10.27 95.93,9.96 96.15,9.95 96.37,9.92 96.59,9.81 96.81,9.72 97.03,9.56 97.25,9.36 97.47,9.09 97.69,8.89 97.90,8.59 98.12,8.24 98.34,7.91 98.56,7.66 98.78,7.45 99.00,7.21 99.22,6.92 99.44,6.69 99.66,6.53 99.87,6.45 100.09,6.36 100.31,6.24 100.53,6.07 100.75,5.90 100.97,5.66 101.19,5.48 101.41,5.26 101.63,5.12 101.84,55.82 102.06,55.72 102.28,55.70 102.50,55.74 102.72,55.84 102.94,55.84 103.16,55.93 103.38,55.77 103.60,55.70 103.81,55.64 104.03,55.60 104.25,55.55 104.47,55.51 104.69,55.46 104.91,55.42 105.13,55.37 105.35,55.33 105.57,55.28 105.78,55.20 106.00,55.17 106.22,55.13 106.44,55.10 106.66,55.07 106.88,55.04 107.10,54.96 107.32,54.93 107.54,54.89 107.75,54.85 107.97,54.81 108.19,54.77 108.41,54.69 108.63,54.66 108.85,54.63 109.07,54.58 109.29,54.57 109.51,54.58 109.72,54.49 109.94,54.46 110.16,54.47 110.38,54.55 110.60,54.50 110.82,54.56 111.04,54.39 111.26,54.35 111.48,54.32 111.69,54.20 111.91,54.09 112.13,53.97 112.35,53.92 112.57,53.88 112.79,53.84 113.01,53.80 113.23,53.79 113.45,53.71 113.66,53.67 113.88,53.64 114.10,53.61 114.32,53.56 114.54,53.51 114.76,53.38 114.98,53.32 115.20,53.25 115.42,53.20 115.63,53.16 115.85,53.16 116.07,53.12 116.29,53.00 116.51,52.83 116.73,52.73 116.95,52.88 117.17,53.01 117.39,52.96 117.60,52.98 117.82,53.04 118.04,53.00 118.26,52.87 118.48,52.60 118.70,52.56 118.92,52.55 119.14,52.57 119.36,52.52 119.57,52.46 119.79,52.36 120.01,52.32 120.23,52.28 120.45,52.24 120.67,52.20 120.89,52.14 121.11,51.97 121.33,51.90 121.54,51.83 121.76,51.74 121.98,51.60 122.20,51.44 122.42,51.25 122.64,51.20 122.86,51.13 123.08,51.03 123.30,50.90 123.51,50.78 123.73,50.94 123.95,50.95 124.17,50.97 124.39,50.94 124.61,50.94 124.83,50.73 125.05,50.79 125.27,50.67 125.48,50.56 125.70,50.47 125.92,50.41 126.14,50.29 126.36,50.39 126.58,50.27 126.80,49.99 127.02,49.93 127.24,49.83 127.45,49.82 127.67,49.83 127.89,49.85 128.11,49.87 128.33,49.90 128.55,49.96 128.77,50.04 128.99,50.13 129.21,50.25 129.42,50.39 129.64,50.52 129.86,50.64 130.08,50.64 130.30,50.56 130.52,50.50 130.74,50.45 130.96,50.31 131.18,50.19 131.39,50.17 131.61,50.16 131.83,50.15 132.05,50.21 132.27,50.28 132.49,50.37 132.71,50.31 132.93,50.50 133.15,50.66 133.36,50.60 133.58,50.79 133.80,50.93 134.02,50.87 134.24,51.00 134.46,50.96 134.68,51.04 134.90,51.10 135.12,51.04 135.33,51.00 135.55,50.96 135.77,50.99 135.99,50.93 136.21,50.86 136.43,50.73 136.65,50.66 136.87,50.59 137.09,50.51 137.30,50.42 137.52,50.31 137.74,50.03 137.96,49.92 138.18,49.83 138.40,49.75 138.62,49.66 138.84,49.57 139.06,49.39 139.27,49.26 139.49,49.08 139.71,48.96 139.93,48.85 140.15,48.92 140.37,48.68 140.59,48.55 140.81,48.43 141.03,48.31 141.24,48.16 141.46,47.98 141.68,48.08 141.90,47.96 142.12,48.00 142.34,47.98 142.56,48.09 142.78,48.56 143.00,48.67 143.21,48.82 143.43,49.05 143.65,49.26 143.87,49.20 144.09,49.43 144.31,49.70 144.53,49.65 144.75,49.88 144.97,49.84 145.18,49.74 145.40,49.93 145.62,49.89 145.84,49.83 146.06,49.92 146.28,49.86 146.50,49.85 146.72,49.80 146.94,49.66 147.15,49.60 147.37,49.49 147.59,49.43 147.81,49.33 148.03,49.20 148.25,49.11 148.47,48.89 148.69,48.83 148.91,48.74 149.12,48.29 149.34,48.30 149.56,48.35 149.78,47.95 150.00,47.96 150.22,47.43 150.44,47.44 150.66,47.44 150.88,46.99 151.09,46.58 151.31,46.63 151.53,46.24 151.75,45.74 151.97,45.80 152.19,45.37 152.41,44.99 152.63,45.00 152.85,44.68 153.06,44.57 153.28,44.24 153.50,43.98 153.72,43.72 153.94,43.41 154.16,43.41 154.38,43.10 154.60,42.91 154.82,42.57 155.03,42.47 155.25,42.09 155.47,42.03 155.69,41.61 155.91,41.58 156.13,41.07 156.35,41.05 156.57,40.57 156.79,40.61 157.00,40.16 157.22,39.77 157.44,39.97 157.66,39.38 157.88,39.04 158.10,38.78 158.32,38.78 158.54,38.74 158.76,38.35 158.97,38.03 159.19,37.72 159.41,37.42 159.63,37.11 159.85,37.27 160.07,36.81 160.29,36.34 160.51,35.89 160.73,35.68 160.94,35.29 161.16,35.19 161.38,35.19 161.60,35.08 161.82,34.67 162.04,34.15 162.26,33.60 162.48,33.31 162.70,33.03 162.91,32.75 163.13,32.49 163.35,32.06 163.57,31.98 163.79,32.06 164.01,32.29 164.23,32.00 164.45,32.33 164.67,31.99 164.88,31.65 165.10,31.65 165.32,31.33 165.54,31.01 165.76,30.78 165.98,30.78 166.20,30.66 166.42,30.61 166.64,31.12 166.85,31.20 167.07,30.69 167.29,30.22 167.51,30.10 167.73,29.68 167.95,29.53 168.17,29.20 168.39,28.91 168.61,28.98 168.82,28.56 169.04,28.26 169.26,27.73 169.48,27.65 169.70,27.29 169.92,26.94 170.14,26.75 170.36,27.17 170.58,26.69 170.79,26.66 171.01,26.62 171.23,26.18 171.45,26.21 171.67,26.40 171.89,25.90 172.11,26.18 172.33,25.74 172.55,26.21 172.76,25.73 172.98,25.85 173.20,25.19 173.42,25.39 173.64,24.90 173.86,25.45 174.08,25.05 174.30,24.64 174.52,25.31 174.73,24.90 174.95,24.51 175.17,24.11 175.39,24.84 175.61,24.16 175.83,23.93 176.05,23.80 176.27,25.02 176.49,24.92 176.70,24.53 176.92,23.57 177.14,22.46 177.36,21.64 177.58,20.87 177.80,21.41 178.02,21.02 178.24,21.92 178.46,21.71 178.67,21.42 178.89,22.02 179.11,21.34 179.33,20.64 179.55,21.01 179.77,20.49 179.99,20.80 180.21,20.21 180.43,20.31 180.64,19.60 180.86,19.63 181.08,19.73 181.30,19.21 181.52,19.55 181.74,19.22 181.96,19.57 182.18,19.24 182.40,19.45 182.61,19.09 182.83,19.11 183.05,18.85 183.27,18.82 183.49,18.61 183.71,18.45 183.93,18.18 184.15,17.89 184.37,17.78 184.58,17.32 184.80,17.15 185.02,16.94 185.24,16.11 185.46,15.82 185.68,15.54 185.90,15.82 186.12,15.58 186.34,14.99 186.55,14.81 186.77,14.56 186.99,14.56 187.21,14.32 187.43,13.81 187.65,13.69 187.87,12.84 188.09,12.46 188.31,12.12 188.52,12.35 188.74,12.03 188.96,11.63 189.18,11.16 189.40,11.14 189.62,10.60 189.84,10.62 190.06,10.58 190.28,9.97 190.49,10.02 190.71,9.43 190.93,9.42 191.15,9.45 191.37,8.88 191.59,9.01 191.81,9.00 192.03,9.00 192.25,8.89 192.46,8.29 192.68,8.02 192.90,7.48 193.12,7.40 193.34,6.94 193.56,6.92 193.78,6.58 194.00,6.53 194.22,6.44 194.43,6.39 194.65,6.24 194.87,6.13 195.09,5.90 195.31,5.74 195.53,5.45 195.75,5.36 195.97,5.11 196.19,4.87 196.40,4.87 196.62,4.67 196.84,4.70 197.06,4.56 197.28,4.47 197.50,4.54 197.72,4.49 197.94,4.47 198.16,4.41 198.37,4.34 198.59,4.19 198.81,4.00 199.03,55.64 199.25,55.40 199.47,55.40 199.69,55.64 199.91,55.64 200.13,55.64 200.34,55.75 200.56,55.75 200.78,55.65 201.00,55.65 201.22,55.65 201.44,55.55 201.66,55.55 201.88,55.44 202.10,55.44 202.31,55.44 202.53,55.36 202.75,55.36 202.97,55.25 203.19,55.25 203.41,55.25 203.63,55.18 203.85,55.18 204.07,55.18 204.28,55.02 204.50,55.02 204.72,54.86 204.94,54.86 205.16,54.86 205.38,54.72 205.60,54.72 205.82,54.67 206.04,54.67 206.25,54.67 206.47,54.63 206.69,54.63 206.91,54.51 207.13,54.51 207.35,54.51 207.57,54.43 207.79,54.43 208.01,54.43 208.22,54.32 208.44,54.32 208.66,54.13 208.88,54.13 209.10,54.13 209.32,53.95 209.54,53.95 209.76,53.84 209.98,53.84 210.19,53.84 210.41,53.73 210.63,53.73 210.85,53.62 211.07,53.62 211.29,53.62 211.51,53.46 211.73,53.46 211.95,53.27 212.16,53.27 212.38,53.27 212.60,53.16 212.82,53.16 213.04,53.16 213.26,53.02 213.48,53.02 213.70,52.94 213.92,52.94 214.13,52.94 214.35,53.02 214.57,53.02 214.79,52.94 215.01,52.94 215.23,52.94 215.45,52.75 215.67,52.75 215.89,52.65 216.10,52.65 216.32,52.65 216.54,52.42 216.76,52.42 216.98,52.25 217.20,52.25 217.42,52.25 217.64,52.12 217.86,52.12 218.07,52.12 218.29,51.94 218.51,51.94 218.73,51.61 218.95,51.61 219.17,51.61 219.39,51.26 219.61,51.26 219.83,50.91 220.04,50.91 220.26,50.91 220.48,50.52 220.70,50.52 220.92,50.52 221.14,50.79 221.36,50.79 221.58,50.79 221.80,50.79 222.01,50.60 222.23,50.56 222.45,50.56 222.67,50.39 222.89,50.39 223.11,50.39 223.33,50.29 223.55,50.29 223.77,50.07 223.99,50.07 224.20,50.07 224.42,49.71 224.64,49.71 224.86,49.71 225.08,49.76 225.30,49.76 225.52,49.76 225.74,49.92 225.96,49.92 226.17,49.92 226.39,50.30 226.61,50.30 226.83,50.30 227.05,50.58 227.27,50.58 227.49,50.58 227.71,50.58 227.93,50.45 228.14,50.32 228.36,50.32 228.58,50.19 228.80,50.19 229.02,50.18 229.24,50.18 229.46,50.30 229.68,50.30 229.90,50.26 230.11,50.26 230.33,50.63 230.55,50.63 230.77,50.58 230.99,50.58 231.21,50.58 231.43,50.96 231.65,50.96 231.87,50.96 232.08,50.85 232.30,50.85 232.52,50.85 232.74,50.64 232.96,50.87 233.18,50.87 233.40,50.65 233.62,50.65 233.84,50.45 234.05,50.45 234.27,50.45 234.49,50.12 234.71,50.12 234.93,49.79 235.15,49.79 235.37,49.79 235.59,49.54 235.81,49.54 236.02,49.54 236.24,49.20 236.46,49.20 236.68,48.83 236.90,48.83 237.12,48.83 237.34,48.51 237.56,48.51 237.78,48.09 237.99,48.09 238.21,48.09 238.43,47.72 238.65,47.72 238.87,47.72 239.09,47.52 239.31,48.07 239.53,48.25 239.75,48.25 239.96,48.25 240.18,48.73 240.40,48.73 240.62,48.73 240.84,49.46 241.06,49.46 241.28,49.46 241.50,50.04 241.72,49.14 241.93,49.14 242.15,49.82 242.37,49.82 242.59,49.82 242.81,49.68 243.03,49.68 243.25,49.68 243.47,49.68 243.69,49.62 243.90,49.62 244.12,49.62 244.34,49.62 244.56,49.27 244.78,49.27 245.00,49.27 245.22,49.06 245.44,49.06 245.66,48.83 245.87,48.83 246.09,48.42 246.31,48.42 246.53,48.30 246.75,48.30 246.97,47.23 247.19,46.88 247.41,46.88 247.63,46.88 247.84,47.00 248.06,47.00 248.28,45.58 248.50,45.75 248.72,45.75 248.94,45.75 249.16,45.75 249.38,44.76 249.60,44.76 249.81,44.76 250.03,44.76 250.25,43.83 250.47,43.83 250.69,43.83 250.91,43.19 251.13,43.19 251.35,43.19 251.57,42.89 251.78,42.25 252.00,42.25 252.22,42.25 252.44,41.99 252.66,41.99 252.88,40.96 253.10,40.59 253.32,40.59 253.54,40.59 253.75,40.77 253.97,40.77 254.19,39.09 254.41,39.65 254.63,39.65 254.85,39.65 255.07,38.08 255.29,39.34 255.51,39.34 255.72,39.34 255.94,38.41 256.16,38.41 256.38,38.41 256.60,37.33 256.82,37.33 257.04,37.33 257.26,35.96 257.48,35.96 257.69,35.96 257.91,35.31 258.13,35.31 258.35,35.31 258.57,35.31 258.79,34.37 259.01,34.37 259.23,33.66 259.45,32.82 259.66,32.82 259.88,31.80 260.10,31.80 260.32,31.80 260.54,31.10 260.76,31.10 260.98,31.38 261.20,31.38 261.42,31.38 261.63,32.41 261.85,32.41 262.07,30.40 262.29,30.40 262.51,31.53 262.73,31.53 262.95,29.74 263.17,29.74 263.39,31.23 263.60,31.23 263.82,31.23 264.04,31.11 264.26,31.11 264.48,31.11 264.70,29.60 264.92,29.60 265.14,29.60 265.36,28.63 265.57,28.63 265.79,28.47 266.01,28.47 266.23,27.73 266.45,27.73 266.67,27.73 266.89,26.75 267.11,27.23 267.33,27.23 267.54,27.23 267.76,25.83 267.98,27.37 268.20,27.37 268.42,25.80 268.64,25.80 268.86,28.43 269.08,26.76 269.30,26.76 269.51,26.76 269.73,25.17 269.95,25.17 270.17,27.79 270.39,26.05 270.61,26.05 270.83,26.05 271.05,24.67 271.27,24.67 271.48,24.67 271.70,27.04 271.92,27.04 272.14,27.04 272.36,25.77 272.58,25.77 272.80,25.11 273.02,25.11 273.24,25.11 273.45,24.17 273.67,24.17 273.89,24.17 274.11,21.66 274.33,24.34 274.55,22.63 274.77,22.63 274.99,22.63 275.21,21.66 275.42,21.66 275.64,21.66 275.86,20.34 276.08,23.31 276.30,23.31 276.52,21.42 276.74,21.42 276.96,21.42 277.18,19.54 277.39,19.54 277.61,21.99 277.83,19.84 278.05,19.84 278.27,19.84 278.49,18.64 278.71,20.90 278.93,20.90 279.15,19.58 279.36,19.58 279.58,19.58 279.80,18.91 280.02,19.82 280.24,19.82 280.46,18.65 280.68,18.65 280.90,18.65 281.12,18.02 281.33,18.02 281.55,17.69 281.77,16.43 281.99,16.43 282.21,15.36 282.43,15.36 282.65,15.36 282.87,14.43 283.09,14.43 283.30,15.56 283.52,13.94 283.74,13.94 283.96,13.94 284.18,13.94 284.40,13.30 284.62,13.30 284.84,13.30 285.06,12.00 285.27,12.00 285.49,10.94 285.71,10.94 285.93,10.94 286.15,9.56 286.37,9.56 286.59,11.10 286.81,9.43 287.03,9.43 287.24,9.43 287.46,7.69 287.68,9.39 287.90,9.39 288.12,7.69 288.34,7.69 288.56,7.69 288.78,7.90 289.00,7.90 289.21,7.90 289.43,7.90 289.65,6.56 289.87,7.54 290.09,7.54 290.31,6.45 290.53,6.45 290.75,6.45 290.97,6.75 291.18,6.62 291.40,6.62 291.62,7.79 291.84,7.79 292.06,6.24 292.28,6.24 292.50,6.71 292.72,6.71 292.94,5.43 293.15,5.43 293.37,6.11 293.59,6.11 293.81,4.97 294.03,4.97 294.25,4.97 294.47,5.29 294.69,5.29 294.91,5.29 295.12,5.29 295.34,4.66 295.56,5.89 295.78,5.89 296.00,4.30" />
</svg>