<svg width="300" height="60" xmlns="http://www.w3.org/2000/svg">
  <polyline fill="rgba(255,200,0,0.3)" stroke="#ffbb00" stroke-width="2" points="4.00,55.13 4.84,55.82 5.68,55.82 6.52,56.00 7.36,55.92 8.20,55.67 9.03,55.63 9.87,55.16 10.71,54.30 11.55,53.30 12.39,52.05 13.23,50.42 14.07,49.86 14.91,48.73 15.75,47.24 16.59,45.91 17.43,44.68 18.26,44.02 19.10,43.35 19.94,43.02 20.78,42.39 21.62,41.48 22.46,40.33 23.30,39.76 24.14,37.87 24.98,36.45 25.82,35.47 26.66,35.37 27.49,33.95 28.33,34.11 29.17,32.76 30.01,29.71 30.85,28.74 31.69,28.38 32.53,28.52 33.37,28.35 34.21,28.35 35.05,29.10 35.89,30.71 36.72,31.63 37.56,31.05 38.40,30.65 39.24,30.32 40.08,29.74 40.92,27.63 41.76,26.36 42.60,24.97 43.44,23.58 44.28,21.90 45.11,20.56 45.95,18.74 46.79,17.95 47.63,17.06 48.47,16.02 49.31,14.76 50.15,13.11 50.99,11.62 51.83,10.69 52.67,10.97 53.51,9.51 54.34,8.93 55.18,9.87 56.02,9.61 56.86,8.96 57.70,8.56 58.54,8.31 59.38,7.83 60.22,7.30 61.06,7.25 61.90,7.17 62.74,6.90 63.57,6.87 64.41,6.93 65.25,6.93 66.09,6.91 66.93,6.89 67.77,6.90 68.61,6.52 69.45,6.31 70.29,5.94 71.13,4.98 71.97,4.42 72.80,4.04 73.64,4.00 74.48,5.41 75.32,5.80 76.16,55.27 77.00,55.86 77.84,55.95 78.68,55.95 79.52,55.76 80.36,55.08 81.20,55.37 82.03,54.66 82.87,53.67 83.71,52.97 84.55,51.56 85.39,50.47 86.23,49.78 87.07,49.01 87.91,47.27 88.75,45.95 89.59,44.99 90.43,43.85 91.26,43.50 92.10,43.20 92.94,42.50 93.78,41.28 94.62,40.95 95.46,40.27 96.30,38.20 97.14,36.29 97.98,35.71 98.82,34.75 99.66,34.48 100.49,34.28 101.33,36.29 102.17,35.70 103.01,34.75 103.85,34.48 104.69,34.28 105.53,32.22 106.37,29.72 107.21,28.70 108.05,28.35 108.89,28.53 109.72,28.18 110.56,28.43 111.40,29.12 112.24,30.50 113.08,31.68 113.92,30.93 114.76,31.06 115.60,30.29 116.44,29.64 117.28,27.79 118.11,26.19 118.95,24.70 119.79,23.41 120.63,21.91 121.47,20.36 122.31,19.16 123.15,17.73 123.99,17.31 124.83,16.33 125.67,14.62 126.51,12.84 127.34,11.38 128.18,10.84 129.02,11.54 129.86,9.46 130.70,9.05 131.54,9.96 132.38,9.66 133.22,9.23 134.06,8.62 134.90,8.31 135.74,7.87 136.57,7.28 137.41,7.28 138.25,7.25 139.09,7.03 139.93,7.03 140.77,7.02 141.61,7.14 142.45,7.01 143.29,6.95 144.13,7.07 144.97,6.66 145.80,6.34 146.64,5.64 147.48,5.07 148.32,4.44 149.16,4.23 150.00,4.15 150.84,5.46 151.68,5.78 152.52,55.38 153.36,55.84 154.20,55.87 155.03,55.92 155.87,55.72 156.71,55.33 157.55,55.32 158.39,54.10 159.23,54.63 160.07,53.62 160.91,52.70 161.75,50.23 162.59,50.38 163.43,49.10 164.26,47.43 165.10,46.39 165.94,45.07 166.78,44.00 167.62,42.93 168.46,43.41 169.30,42.28 170.14,40.90 170.98,41.04 171.82,39.40 172.66,38.10 173.49,36.85 174.33,35.09 175.17,34.58 176.01,34.58 176.85,33.82 177.69,31.02 178.53,29.53 179.37,28.47 180.21,27.78 181.05,28.40 181.89,27.75 182.72,28.64 183.56,28.86 184.40,31.32 185.24,31.31 186.08,31.76 186.92,30.63 187.76,30.60 188.60,29.48 189.44,28.26 190.28,25.47 191.11,24.32 191.95,23.12 192.79,22.64 193.63,20.65 194.47,19.38 195.31,17.67 196.15,17.32 196.99,16.97 197.83,15.02 198.67,13.56 199.51,10.81 200.34,10.84 201.18,11.10 202.02,9.37 202.86,9.43 203.70,9.47 204.54,9.97 205.38,9.34 206.22,9.40 207.06,8.58 207.90,8.00 208.74,7.64 209.57,7.26 210.41,7.32 211.25,7.14 212.09,7.23 212.93,7.07 213.77,7.01 214.61,7.08 215.45,7.23 216.29,7.40 217.13,6.26 217.97,6.05 218.80,5.70 219.64,5.13 220.48,4.84 221.32,4.18 222.16,4.14 223.00,5.50 223.84,6.26 224.68,55.69 225.52,55.69 226.36,54.60 227.20,54.60 228.03,55.27 228.87,54.44 229.71,54.44 230.55,54.44 231.39,52.56 232.23,52.56 233.07,52.56 233.91,52.07 234.75,52.07 235.59,52.07 236.43,47.57 237.26,48.50 238.10,48.50 238.94,44.71 239.78,44.71 240.62,44.71 241.46,41.06 242.30,41.06 243.14,41.06 243.98,37.15 244.82,35.52 245.66,35.52 246.49,35.52 247.33,33.79 248.17,33.79 249.01,31.12 249.85,31.12 250.69,27.97 251.53,27.97 252.37,27.97 253.21,30.78 254.05,30.78 254.89,30.78 255.72,30.71 256.56,30.71 257.40,30.71 258.24,29.99 259.08,29.99 259.92,29.99 260.76,26.88 261.60,26.88 262.44,25.00 263.28,25.00 264.11,25.00 264.95,22.86 265.79,20.53 266.63,20.53 267.47,20.53 268.31,20.47 269.15,20.47 269.99,14.91 270.83,13.02 271.67,13.02 272.51,12.56 273.34,12.56 274.18,12.56 275.02,11.70 275.86,11.70 276.70,11.70 277.54,9.43 278.38,9.43 279.22,9.43 280.06,8.76 280.90,9.98 281.74,9.98 282.57,8.33 283.41,8.33 284.25,7.92 285.09,7.92 285.93,7.92 286.77,8.31 287.61,8.31 288.45,8.31 289.29,6.94 290.13,6.94 290.97,5.57 291.80,5.57 292.64,5.57 293.48,5.58 294.32,5.58 295.16,5.58 296.00,8.67" />
</svg>