<svg width="300" height="60" xmlns="http://www.w3.org/2000/svg">
  <polyline fill="rgba(255,200,0,0.3)" stroke="#ffbb00" stroke-width="2" points="4.00,22.07 4.33,24.48 4.67,25.81 5.00,26.98 5.34,28.34 5.67,28.27 6.01,27.91 6.34,27.60 6.68,28.96 7.01,29.41 7.35,32.48 7.68,25.76 8.02,22.60 8.35,20.87 8.69,15.75 9.02,11.91 9.36,10.75 9.69,11.63 10.03,15.28 10.36,15.08 10.70,12.27 11.03,6.61 11.37,4.43 11.70,5.08 12.04,7.48 12.37,10.43 12.71,14.13 13.04,15.63 13.38,19.85 13.71,18.27 14.05,16.18 14.38,15.63 14.72,15.47 15.05,15.18 15.39,16.28 15.72,15.72 16.06,15.06 16.39,13.15 16.72,13.09 17.06,13.67 17.39,13.26 17.73,12.60 18.06,12.06 18.40,31.34 18.73,30.43 19.07,30.16 19.40,25.84 19.74,23.44 20.07,23.16 20.41,24.12 20.74,24.89 21.08,25.42 21.41,23.81 21.75,23.35 22.08,22.61 22.42,21.28 22.75,19.44 23.09,17.44 23.42,16.11 23.76,14.54 24.09,13.96 24.43,12.79 24.76,11.85 25.10,10.79 25.43,10.09 25.77,9.36 26.10,10.10 26.44,11.48 26.77,14.08 27.11,18.06 27.44,22.05 27.78,27.10 28.11,30.11 28.44,29.94 28.78,30.47 29.11,31.45 29.45,33.39 29.78,33.99 30.12,33.18 30.45,30.52 30.79,27.26 31.12,26.36 31.46,23.61 31.79,23.35 32.13,29.15 32.46,32.86 32.80,35.32 33.13,35.73 33.47,31.24 33.80,27.21 34.14,23.88 34.47,19.19 34.81,16.94 35.14,15.78 35.48,16.59 35.81,17.87 36.15,19.86 36.48,22.09 36.82,25.25 37.15,27.30 37.49,29.71 37.82,32.44 38.16,35.74 38.49,38.75 38.83,35.40 39.16,29.24 39.50,25.35 39.83,24.30 40.17,26.28 40.50,29.56 40.83,36.70 41.17,40.63 41.50,42.64 41.84,40.56 42.17,39.88 42.51,39.31 42.84,38.89 43.18,41.36 43.51,45.51 43.85,48.48 44.18,48.81 44.52,49.99 44.85,50.23 45.19,50.17 45.52,48.61 45.86,49.37 46.19,52.56 46.53,49.26 46.86,45.58 47.20,46.91 47.53,48.50 47.87,49.81 48.20,50.14 48.54,49.64 48.87,49.09 49.21,48.40 49.54,49.03 49.88,49.99 50.21,52.68 50.55,52.70 50.88,53.14 51.22,53.87 51.55,55.38 51.89,56.00 52.22,54.91 52.56,54.56 52.89,53.22 53.22,49.56 53.56,45.88 53.89,44.07 54.23,42.39 54.56,42.44 54.90,44.05 55.23,43.19 55.57,41.78 55.90,40.80 56.24,40.46 56.57,41.01 56.91,40.76 57.24,40.87 57.58,39.98 57.91,36.78 58.25,36.30 58.58,36.92 58.92,34.81 59.25,33.98 59.59,33.29 59.92,34.25 60.26,31.99 60.59,31.36 60.93,31.40 61.26,31.37 61.60,30.72 61.93,29.76 62.27,29.95 62.60,28.80 62.94,28.34 63.27,27.29 63.61,27.34 63.94,28.12 64.28,30.63 64.61,36.09 64.94,39.22 65.28,39.65 65.61,38.09 65.95,36.23 66.28,34.70 66.62,33.80 66.95,30.94 67.29,26.41 67.62,20.94 67.96,17.97 68.29,17.02 68.63,18.17 68.96,19.09 69.30,21.22 69.63,24.27 69.97,27.03 70.30,27.69 70.64,26.72 70.97,28.59 71.31,27.88 71.64,28.25 71.98,29.52 72.31,34.02 72.65,35.57 72.98,31.26 73.32,31.06 73.65,30.65 73.99,30.17 74.32,27.14 74.66,23.81 74.99,21.42 75.33,20.34 75.66,19.54 76.00,19.31 76.33,19.78 76.67,20.62 77.00,22.07 77.33,32.02 77.67,29.78 78.00,30.61 78.34,26.35 78.67,22.89 79.01,22.49 79.34,23.97 79.68,25.22 80.01,24.87 80.35,23.38 80.68,23.97 81.02,22.42 81.35,21.31 81.69,19.09 82.02,17.06 82.36,15.76 82.69,14.56 83.03,13.56 83.36,13.72 83.70,12.25 84.03,11.10 84.37,10.15 84.70,8.86 85.04,9.51 85.37,11.53 85.71,14.48 86.04,18.27 86.38,21.20 86.71,26.29 87.05,29.57 87.38,29.90 87.72,30.21 88.05,31.51 88.39,33.72 88.72,33.50 89.06,32.35 89.39,30.70 89.72,27.26 90.06,26.50 90.39,22.60 90.73,23.08 91.06,28.45 91.40,32.45 91.73,35.01 92.07,35.81 92.40,31.10 92.74,27.60 93.07,24.35 93.41,20.09 93.74,17.09 94.08,15.84 94.41,16.69 94.75,18.22 95.08,20.36 95.42,23.59 95.75,25.16 96.09,27.64 96.42,30.56 96.76,32.91 97.09,35.55 97.43,39.57 97.76,35.14 98.10,28.83 98.43,25.48 98.77,25.17 99.10,27.94 99.44,30.77 99.77,35.45 100.11,40.96 100.44,44.01 100.78,41.99 101.11,40.35 101.44,39.41 101.78,38.01 102.11,39.68 102.45,43.99 102.78,47.76 103.12,48.80 103.45,49.82 103.79,50.43 104.12,50.43 104.46,49.07 104.79,48.13 105.13,51.54 105.46,49.00 105.80,45.44 106.13,46.12 106.47,47.69 106.80,50.30 107.14,51.06 107.47,49.67 107.81,48.04 108.14,48.56 108.48,48.59 108.81,50.38 109.15,51.23 109.48,53.08 109.82,52.61 110.15,54.53 110.49,54.17 110.82,54.12 111.16,53.19 111.49,52.55 111.83,52.05 112.16,48.48 112.50,46.52 112.83,43.45 113.17,42.08 113.50,42.86 113.83,44.96 114.17,42.40 114.50,42.63 114.84,40.65 115.17,40.15 115.51,40.35 115.84,40.82 116.18,40.86 116.51,38.97 116.85,37.14 117.18,36.36 117.52,37.17 117.85,35.13 118.19,33.48 118.52,33.22 118.86,33.83 119.19,32.07 119.53,30.62 119.86,29.84 120.20,30.66 120.53,30.74 120.87,29.66 121.20,29.52 121.54,29.97 121.87,27.78 122.21,27.27 122.54,28.00 122.88,28.13 123.21,31.12 123.55,36.21 123.88,38.75 124.22,38.92 124.55,38.28 124.89,36.01 125.22,34.75 125.56,33.92 125.89,30.98 126.22,26.91 126.56,22.83 126.89,18.34 127.23,17.57 127.56,18.47 127.90,19.39 128.23,21.39 128.57,24.20 128.90,26.41 129.24,26.54 129.57,26.91 129.91,27.79 130.24,28.30 130.58,28.31 130.91,29.84 131.25,33.79 131.58,35.80 131.92,31.54 132.25,31.12 132.59,30.78 132.92,30.05 133.26,27.41 133.59,24.52 133.93,21.53 134.26,21.03 134.60,18.87 134.93,19.43 135.27,19.92 135.60,19.43 135.94,21.78 136.27,24.35 136.61,25.70 136.94,27.40 137.28,28.57 137.61,27.58 137.94,28.08 138.28,27.55 138.61,28.68 138.95,29.70 139.28,32.70 139.62,27.03 139.95,21.68 140.29,20.85 140.62,16.13 140.96,11.92 141.29,11.66 141.63,11.38 141.96,15.73 142.30,15.05 142.63,10.75 142.97,7.86 143.30,4.87 143.64,4.72 143.97,7.64 144.31,11.36 144.64,13.83 144.98,15.78 145.31,19.48 145.65,18.98 145.98,15.92 146.32,15.45 146.65,15.24 146.99,16.37 147.32,15.42 147.66,15.70 147.99,15.44 148.33,13.77 148.66,13.16 149.00,13.58 149.33,13.04 149.67,12.33 150.00,12.57 150.33,33.05 150.67,29.00 151.00,30.06 151.34,28.34 151.67,23.75 152.01,24.65 152.34,23.54 152.68,26.06 153.01,27.28 153.35,22.57 153.68,23.09 154.02,23.42 154.35,23.16 154.69,17.72 155.02,17.39 155.36,17.44 155.69,13.65 156.03,13.81 156.36,14.03 156.70,14.00 157.03,10.19 157.37,10.59 157.70,8.70 158.04,10.54 158.37,13.08 158.71,16.33 159.04,19.09 159.38,24.15 159.71,27.56 160.05,27.42 160.38,30.17 160.72,29.61 161.05,29.84 161.39,34.53 161.72,34.34 162.06,33.47 162.39,31.89 162.72,26.35 163.06,25.55 163.39,21.48 163.73,23.84 164.06,28.40 164.40,31.23 164.73,35.52 165.07,35.05 165.40,31.50 165.74,27.92 166.07,24.69 166.41,19.39 166.74,18.55 167.08,15.72 167.41,16.92 167.75,18.95 168.08,21.71 168.42,23.50 168.75,23.50 169.09,25.14 169.42,29.05 169.76,31.97 170.09,35.76 170.43,41.17 170.76,36.96 171.10,31.17 171.43,26.18 171.77,23.93 172.10,26.44 172.44,30.71 172.77,32.96 173.11,36.82 173.44,45.17 173.78,38.65 174.11,40.84 174.44,39.64 174.78,37.50 175.11,38.00 175.45,46.33 175.78,47.27 176.12,47.02 176.45,50.22 176.79,50.22 177.12,49.16 177.46,50.46 177.79,49.58 178.13,50.54 178.46,48.92 178.80,47.41 179.13,45.74 179.47,44.87 179.80,49.55 180.14,47.27 180.47,48.94 180.81,46.20 181.14,48.84 181.48,48.84 181.81,52.58 182.15,50.44 182.48,52.49 182.82,48.98 183.15,53.42 183.49,54.25 183.82,54.44 184.16,50.53 184.49,50.76 184.83,53.09 185.16,48.69 185.50,45.61 185.83,41.30 186.17,41.42 186.50,43.21 186.83,43.21 187.17,43.63 187.50,42.55 187.84,38.57 188.17,37.77 188.51,42.05 188.84,40.74 189.18,38.57 189.51,40.48 189.85,34.12 190.18,36.19 190.52,35.03 190.85,32.39 191.19,34.23 191.52,32.69 191.86,31.61 192.19,32.27 192.53,30.38 192.86,25.75 193.20,29.80 193.53,28.49 193.87,27.45 194.20,31.24 194.54,30.11 194.87,26.09 195.21,26.03 195.54,29.02 195.88,27.96 196.21,29.16 196.55,33.57 196.88,39.00 197.22,39.43 197.55,38.02 197.89,35.80 198.22,33.42 198.56,33.40 198.89,31.87 199.22,28.95 199.56,24.54 199.89,18.61 200.23,17.98 200.56,17.80 200.90,17.63 201.23,21.30 201.57,22.53 201.90,24.93 202.24,27.78 202.57,25.47 202.91,27.50 203.24,29.43 203.58,28.32 203.91,30.06 204.25,33.76 204.58,35.97 204.92,33.74 205.25,31.92 205.59,30.93 205.92,30.29 206.26,28.53 206.59,25.94 206.93,23.84 207.26,21.56 207.60,18.12 207.93,17.42 208.27,20.76 208.60,20.55 208.94,20.57 209.27,20.81 209.61,26.34 209.94,26.88 210.28,26.77 210.61,26.21 210.94,28.33 211.28,28.12 211.61,28.16 211.95,30.26 212.28,31.13 212.62,29.79 212.95,21.89 213.29,19.14 213.62,15.51 213.96,12.28 214.29,10.47 214.63,10.47 214.96,14.10 215.30,16.66 215.63,12.89 215.97,8.30 216.30,5.53 216.64,4.35 216.97,5.62 217.31,8.02 217.64,10.99 217.98,16.58 218.31,19.41 218.65,18.80 218.98,16.94 219.32,16.25 219.65,16.65 219.99,15.05 220.32,16.78 220.66,14.33 220.99,15.11 221.33,15.39 221.66,13.67 222.00,13.30 222.33,13.79 222.67,12.49 223.00,11.68 223.33,40.05 223.67,29.00 224.00,29.00 224.34,29.83 224.67,29.83 225.01,29.83 225.34,37.49 225.68,37.49 226.01,37.49 226.35,23.22 226.68,23.22 227.02,23.22 227.35,21.90 227.69,21.90 228.02,21.90 228.36,22.56 228.69,22.56 229.03,22.56 229.36,22.56 229.70,22.75 230.03,11.19 230.37,11.19 230.70,15.74 231.04,15.74 231.37,15.74 231.71,21.03 232.04,21.03 232.38,21.03 232.71,16.79 233.05,16.79 233.38,29.34 233.72,29.08 234.05,29.08 234.39,29.08 234.72,29.08 235.06,26.63 235.39,26.63 235.72,26.63 236.06,28.35 236.39,20.18 236.73,20.18 237.06,29.91 237.40,32.92 237.73,32.92 238.07,34.24 238.40,34.24 238.74,34.24 239.07,27.98 239.41,23.55 239.74,23.55 240.08,23.55 240.41,23.27 240.75,23.27 241.08,23.27 241.42,23.53 241.75,23.53 242.09,23.53 242.42,23.53 242.76,35.24 243.09,29.05 243.43,29.05 243.76,29.05 244.10,38.96 244.43,26.51 244.77,26.51 245.10,26.51 245.44,31.50 245.77,33.17 246.11,33.17 246.44,38.28 246.78,38.28 247.11,38.28 247.44,39.20 247.78,39.20 248.11,39.20 248.45,42.12 248.78,42.12 249.12,42.12 249.45,40.31 249.79,40.31 250.12,40.31 250.46,51.59 250.79,47.52 251.13,47.52 251.46,47.52 251.80,40.05 252.13,40.05 252.47,40.05 252.80,34.14 253.14,34.14 253.47,49.00 253.81,41.21 254.14,41.21 254.48,41.21 254.81,41.21 255.15,35.68 255.48,48.48 255.82,48.48 256.15,48.48 256.49,36.62 256.82,48.91 257.16,48.91 257.49,38.55 257.83,38.55 258.16,38.55 258.50,45.16 258.83,35.97 259.17,35.97 259.50,35.97 259.83,35.97 260.17,35.19 260.50,35.19 260.84,35.19 261.17,21.16 261.51,31.78 261.84,31.78 262.18,31.78 262.51,39.69 262.85,25.89 263.18,25.89 263.52,25.89 263.85,32.63 264.19,32.63 264.52,20.46 264.86,26.68 265.19,26.68 265.53,26.68 265.86,14.25 266.20,21.03 266.53,21.03 266.87,21.03 267.20,30.94 267.54,21.83 267.87,21.83 268.21,21.83 268.54,30.05 268.88,33.27 269.21,33.27 269.55,33.27 269.88,36.78 270.22,36.78 270.55,36.78 270.89,29.91 271.22,30.57 271.56,30.57 271.89,30.57 272.22,26.02 272.56,26.02 272.89,16.91 273.23,16.91 273.56,16.91 273.90,14.68 274.23,14.68 274.57,14.68 274.90,17.74 275.24,17.74 275.57,17.74 275.91,24.12 276.24,24.12 276.58,24.12 276.91,26.31 277.25,26.31 277.58,26.31 277.92,30.24 278.25,30.24 278.59,26.45 278.92,26.45 279.26,26.45 279.59,22.75 279.93,22.75 280.26,22.75 280.60,16.28 280.93,16.28 281.27,21.27 281.60,21.27 281.94,21.27 282.27,21.05 282.61,21.05 282.94,22.39 283.28,22.39 283.61,22.39 283.94,21.96 284.28,21.96 284.61,21.96 284.95,30.13 285.28,30.13 285.62,30.13 285.95,24.88 286.29,24.88 286.62,13.80 286.96,13.80 287.29,17.91 287.63,17.91 287.96,10.54 288.30,10.54 288.63,10.54 288.97,9.08 289.30,9.08 289.64,9.08 289.97,4.00 290.31,4.00 290.64,4.00 290.98,11.20 291.31,11.20 291.65,15.75 291.98,15.75 292.32,15.75 292.65,13.46 292.99,13.46 293.32,16.29 293.66,6.40 293.99,6.40 294.33,11.42 294.66,11.42 295.00,11.42 295.33,14.08 295.67,7.43 296.00,7.43" />
</svg>