<svg width="300" height="60" xmlns="http://www.w3.org/2000/svg">
  <polyline fill="rgba(255,200,0,0.3)" stroke="#ffbb00" stroke-width="2" points="4.00,23.33 4.98,21.89 5.95,22.36 6.93,25.23 7.91,32.06 8.88,37.16 9.86,43.28 10.84,46.82 11.81,49.24 12.79,51.67 13.77,53.98 14.74,54.51 15.72,53.96 16.70,55.91 17.67,52.86 18.65,54.17 19.63,53.51 20.60,53.25 21.58,52.54 22.56,51.51 23.53,50.75 24.51,49.49 25.48,47.72 26.46,45.84 27.44,42.17 28.41,38.72 29.39,34.44 30.37,31.10 31.34,27.94 32.32,26.22 33.30,24.58 34.27,23.13 35.25,21.45 36.23,19.71 37.20,18.95 38.18,18.13 39.16,17.40 40.13,16.13 41.11,13.16 42.09,11.44 43.06,12.60 44.04,12.94 45.02,16.67 45.99,19.29 46.97,19.09 47.95,16.57 48.92,15.94 49.90,15.16 50.88,15.39 51.85,11.49 52.83,11.10 53.81,12.91 54.78,14.24 55.76,14.28 56.74,14.16 57.71,15.73 58.69,15.99 59.67,17.23 60.64,17.08 61.62,15.59 62.60,23.33 63.57,21.93 64.55,22.29 65.53,25.45 66.50,31.27 67.48,38.05 68.45,43.33 69.43,46.76 70.41,49.29 71.38,51.18 72.36,54.05 73.34,54.50 74.31,54.04 75.29,55.94 76.27,52.77 77.24,54.18 78.22,53.62 79.20,53.20 80.17,52.63 81.15,51.55 82.13,50.70 83.10,49.46 84.08,47.74 85.06,45.73 86.03,41.97 87.01,38.52 87.99,34.82 88.96,31.19 89.94,27.92 90.92,26.15 91.89,24.66 92.87,22.96 93.85,21.50 94.82,19.74 95.80,18.98 96.78,18.20 97.75,17.31 98.73,16.14 99.71,13.08 100.68,11.51 101.66,12.88 102.64,13.04 103.61,16.53 104.59,19.67 105.57,19.43 106.54,17.12 107.52,15.79 108.49,15.41 109.47,15.06 110.45,12.08 111.42,11.50 112.40,12.81 113.38,14.13 114.35,14.33 115.33,13.65 116.31,14.18 117.28,16.53 118.26,17.43 119.24,17.07 120.21,15.50 121.19,23.32 122.17,22.04 123.14,22.10 124.12,25.21 125.10,33.40 126.07,35.70 127.05,43.37 128.03,47.40 129.00,49.71 129.98,52.65 130.96,54.04 131.93,54.56 132.91,54.38 133.89,56.00 134.86,52.61 135.84,54.17 136.82,53.73 137.79,53.56 138.77,52.81 139.75,51.89 140.72,50.93 141.70,49.50 142.68,47.60 143.65,45.68 144.63,42.50 145.61,38.58 146.58,34.43 147.56,30.86 148.54,28.75 149.51,26.49 150.49,24.83 151.46,23.21 152.44,21.60 153.42,20.28 154.39,18.96 155.37,18.23 156.35,17.61 157.32,16.23 158.30,12.89 159.28,11.33 160.25,12.17 161.23,13.26 162.21,17.44 163.18,19.97 164.16,19.97 165.14,18.19 166.11,15.82 167.09,15.88 168.07,15.91 169.04,10.95 170.02,11.88 171.00,14.44 171.97,13.85 172.95,13.62 173.93,13.32 174.90,12.63 175.88,16.32 176.86,16.68 177.83,17.66 178.81,15.44 179.79,24.49 180.76,22.76 181.74,22.58 182.72,26.51 183.69,32.42 184.67,35.82 185.65,42.34 186.62,46.80 187.60,50.09 188.58,52.11 189.55,53.32 190.53,54.24 191.51,54.65 192.48,54.53 193.46,53.67 194.43,53.73 195.41,53.51 196.39,52.94 197.36,52.99 198.34,51.78 199.32,50.52 200.29,49.59 201.27,48.61 202.25,46.06 203.22,44.27 204.20,39.43 205.18,36.72 206.15,31.65 207.13,31.13 208.11,26.23 209.08,23.82 210.06,23.94 211.04,21.06 212.01,21.75 212.99,19.96 213.97,18.12 214.94,20.31 215.92,18.35 216.90,12.78 217.87,10.59 218.85,11.17 219.83,12.50 220.80,14.46 221.78,17.11 222.76,19.42 223.73,14.64 224.71,18.62 225.69,16.14 226.66,14.01 227.64,8.10 228.62,11.85 229.59,11.10 230.57,14.79 231.55,13.29 232.52,17.04 233.50,14.33 234.47,17.61 235.45,15.60 236.43,17.67 237.40,16.17 238.38,18.31 239.36,18.31 240.33,27.99 241.31,27.99 242.29,27.99 243.26,36.64 244.24,36.64 245.22,44.43 246.19,50.72 247.17,50.72 248.15,50.72 249.12,50.72 250.10,54.18 251.08,54.18 252.05,54.18 253.03,55.10 254.01,53.32 254.98,53.32 255.96,53.32 256.94,53.32 257.91,50.78 258.89,50.78 259.87,50.78 260.84,48.36 261.82,48.36 262.80,43.92 263.77,36.88 264.75,36.88 265.73,36.88 266.70,29.15 267.68,29.15 268.66,30.65 269.63,30.65 270.61,30.65 271.59,24.01 272.56,24.01 273.54,24.01 274.52,18.30 275.49,18.30 276.47,14.78 277.44,14.78 278.42,14.78 279.40,19.22 280.37,19.22 281.35,19.22 282.33,28.56 283.30,28.56 284.28,9.59 285.26,20.49 286.23,20.49 287.21,20.49 288.19,4.00 289.16,15.07 290.14,15.07 291.12,15.07 292.09,23.55 293.07,23.55 294.05,10.06 295.02,17.01 296.00,17.01" />
</svg>