<svg width="300" height="60" xmlns="http://www.w3.org/2000/svg">
  <polyline fill="rgba(255,200,0,0.3)" stroke="#ffbb00" stroke-width="2" points="4.00,4.31 4.57,5.51 5.14,7.12 5.71,8.41 6.29,9.67 6.86,10.72 7.43,11.68 8.00,12.80 8.57,14.09 9.14,15.34 9.71,16.89 10.29,17.85 10.86,19.41 11.43,20.55 12.00,21.70 12.57,22.28 13.14,22.73 13.71,23.32 14.29,24.31 14.86,25.12 15.43,26.04 16.00,27.20 16.57,27.66 17.14,27.46 17.71,28.02 18.29,29.40 18.86,30.59 19.43,30.77 20.00,30.61 20.57,30.79 21.14,31.64 21.71,32.23 22.29,32.62 22.86,32.83 23.43,33.27 24.00,33.55 24.57,34.16 25.14,34.01 25.71,34.35 26.29,34.78 26.86,34.60 27.43,35.26 28.00,35.42 28.57,35.44 29.14,36.26 29.71,37.20 30.29,37.76 30.86,38.18 31.43,37.85 32.00,38.61 32.57,39.02 33.14,39.84 33.71,39.98 34.29,39.92 34.86,39.95 35.43,40.35 36.00,40.58 36.57,41.56 37.14,42.10 37.71,42.84 38.29,43.19 38.86,43.32 39.43,43.91 40.00,44.70 40.57,45.77 41.14,46.67 41.71,48.16 42.29,49.14 42.86,49.48 43.43,50.35 44.00,51.34 44.57,52.15 45.14,52.39 45.71,52.70 46.29,53.48 46.86,54.28 47.43,55.10 48.00,55.89 48.57,55.12 49.14,54.93 49.71,54.57 50.29,4.10 50.86,5.35 51.43,6.90 52.00,8.33 52.57,9.46 53.14,10.61 53.71,11.52 54.29,12.55 54.86,13.90 55.43,15.16 56.00,16.71 56.57,17.72 57.14,19.23 57.71,20.39 58.29,21.56 58.86,22.14 59.43,22.55 60.00,23.16 60.57,24.25 61.14,25.00 61.71,25.90 62.29,27.12 62.86,27.49 63.43,27.31 64.00,27.86 64.57,29.28 65.14,30.48 65.71,30.60 66.29,30.47 66.86,30.66 67.43,31.48 68.00,32.13 68.57,32.44 69.14,32.68 69.71,33.11 70.29,33.40 70.86,33.98 71.43,33.94 72.00,34.10 72.57,34.59 73.14,34.83 73.71,35.12 74.29,35.22 74.86,35.26 75.43,36.14 76.00,37.10 76.57,37.62 77.14,38.02 77.71,38.04 78.29,38.50 78.86,39.06 79.43,39.69 80.00,39.81 80.57,39.73 81.14,39.76 81.71,40.19 82.29,40.98 82.86,41.43 83.43,41.94 84.00,42.69 84.57,43.10 85.14,43.12 85.71,43.80 86.29,44.80 86.86,45.66 87.43,46.88 88.00,48.10 88.57,49.01 89.14,49.33 89.71,50.21 90.29,51.20 90.86,51.96 91.43,52.21 92.00,52.63 92.57,53.34 93.14,54.16 93.71,55.01 94.29,55.60 94.86,55.08 95.43,54.76 96.00,54.38 96.57,4.00 97.14,5.34 97.71,6.67 98.29,8.40 98.86,9.52 99.43,10.95 100.00,11.79 100.57,12.91 101.14,14.03 101.71,15.49 102.29,16.84 102.86,17.74 103.43,19.01 104.00,20.55 104.57,21.72 105.14,22.31 105.71,22.68 106.29,23.44 106.86,24.16 107.43,24.98 108.00,26.00 108.57,27.27 109.14,27.57 109.71,27.30 110.29,27.92 110.86,29.51 111.43,30.73 112.00,30.63 112.57,30.57 113.14,30.69 113.71,31.48 114.29,32.30 114.86,32.54 115.43,32.26 116.00,33.14 116.57,33.44 117.14,34.08 117.71,33.71 118.29,33.52 118.86,34.50 119.43,33.97 120.00,35.21 120.57,35.48 121.14,35.20 121.71,35.89 122.29,36.76 122.86,37.81 123.43,38.11 124.00,37.80 124.57,38.42 125.14,38.68 125.71,39.78 126.29,39.93 126.86,39.61 127.43,39.75 128.00,40.13 128.57,40.21 129.14,41.05 129.71,41.96 130.29,42.61 130.86,42.88 131.43,43.24 132.00,43.67 132.57,44.80 133.14,45.35 133.71,46.71 134.29,48.18 134.86,49.05 135.43,49.53 136.00,50.39 136.57,51.41 137.14,51.92 137.71,52.23 138.29,52.31 138.86,53.39 139.43,54.05 140.00,54.79 140.57,55.42 141.14,55.23 141.71,54.85 142.29,54.42 142.86,54.42 143.43,4.34 144.00,5.73 144.57,7.11 145.14,8.55 145.71,9.84 146.29,11.23 146.86,12.25 147.43,13.26 148.00,14.53 148.57,15.75 149.14,17.07 149.71,18.03 150.29,19.23 150.86,20.72 151.43,21.82 152.00,22.35 152.57,22.88 153.14,23.43 153.71,24.00 154.29,25.18 154.86,26.28 155.43,27.31 156.00,27.94 156.57,27.70 157.14,28.08 157.71,29.50 158.29,30.72 158.86,30.99 159.43,30.86 160.00,30.10 160.57,31.46 161.14,32.37 161.71,32.15 162.29,32.37 162.86,33.20 163.43,33.74 164.00,34.65 164.57,34.36 165.14,34.21 165.71,34.79 166.29,34.89 166.86,35.80 167.43,36.17 168.00,35.63 168.57,36.36 169.14,36.69 169.71,37.89 170.29,38.83 170.86,38.51 171.43,38.77 172.00,39.63 172.57,39.87 173.14,39.97 173.71,39.96 174.29,40.51 174.86,41.22 175.43,41.35 176.00,42.52 176.57,43.22 177.14,43.51 177.71,43.66 178.29,43.93 178.86,43.95 179.43,45.44 180.00,45.42 180.57,46.64 181.14,48.39 181.71,49.55 182.29,50.10 182.86,50.44 183.43,51.50 184.00,52.14 184.57,52.52 185.14,52.66 185.71,54.19 186.29,53.59 186.86,54.54 187.43,56.00 188.00,55.78 188.57,55.16 189.14,54.75 189.71,54.75 190.29,4.49 190.86,4.49 191.43,6.21 192.00,7.24 192.57,9.00 193.14,10.70 193.71,11.40 194.29,12.83 194.86,13.49 195.43,14.36 196.00,16.06 196.57,16.99 197.14,18.00 197.71,20.67 198.29,20.44 198.86,22.30 199.43,22.85 200.00,22.49 200.57,23.93 201.14,25.36 201.71,25.55 202.29,26.73 202.86,26.73 203.43,26.94 204.00,28.20 204.57,29.37 205.14,30.49 205.71,31.02 206.29,30.47 206.86,29.04 207.43,31.33 208.00,32.07 208.57,32.19 209.14,30.59 209.71,33.15 210.29,33.03 210.86,33.34 211.43,34.80 212.00,32.60 212.57,33.87 213.14,34.92 213.71,35.78 214.29,36.33 214.86,33.61 215.43,35.02 216.00,35.02 216.57,36.82 217.14,36.79 217.71,37.56 218.29,38.54 218.86,38.54 219.43,39.09 220.00,39.43 220.57,39.23 221.14,41.05 221.71,38.73 222.29,41.22 222.86,39.78 223.43,43.61 224.00,42.56 224.57,41.89 225.14,44.52 225.71,43.03 226.29,44.94 226.86,43.75 227.43,46.11 228.00,48.24 228.57,48.24 229.14,49.48 229.71,49.98 230.29,51.27 230.86,51.04 231.43,50.42 232.00,53.86 232.57,53.22 233.14,53.81 233.71,55.32 234.29,55.56 234.86,54.77 235.43,53.43 236.00,54.50 236.57,55.32 237.14,55.56 237.71,54.77 238.29,53.44 238.86,54.50 239.43,4.23 240.00,4.23 240.57,4.23 241.14,4.23 241.71,9.23 242.29,9.23 242.86,11.72 243.43,11.72 244.00,11.72 244.57,11.72 245.14,16.33 245.71,16.33 246.29,16.33 246.86,19.44 247.43,19.34 248.00,19.34 248.57,19.34 249.14,23.26 249.71,23.26 250.29,23.26 250.86,25.08 251.43,25.08 252.00,25.08 252.57,25.08 253.14,26.30 253.71,26.30 254.29,26.30 254.86,31.18 255.43,31.18 256.00,31.18 256.57,31.18 257.14,32.21 257.71,32.21 258.29,32.21 258.86,32.21 259.43,23.46 260.00,28.98 260.57,28.98 261.14,28.98 261.71,33.40 262.29,33.40 262.86,33.40 263.43,36.22 264.00,30.97 264.57,30.97 265.14,34.85 265.71,34.85 266.29,34.85 266.86,40.18 267.43,40.18 268.00,40.18 268.57,36.81 269.14,30.90 269.71,30.90 270.29,36.00 270.86,36.00 271.43,36.00 272.00,33.80 272.57,33.80 273.14,33.80 273.71,42.76 274.29,42.76 274.86,38.82 275.43,38.82 276.00,38.82 276.57,46.61 277.14,45.92 277.71,45.92 278.29,45.92 278.86,45.39 279.43,45.39 280.00,45.39 280.57,51.18 281.14,51.18 281.71,51.18 282.29,51.18 282.86,51.84 283.43,51.84 284.00,51.84 284.57,47.49 285.14,51.42 285.71,38.80 286.29,38.80 286.86,38.80 287.43,46.62 288.00,45.90 288.57,45.90 289.14,45.90 289.71,45.40 290.29,45.40 290.86,45.40 291.43,51.19 292.00,51.19 292.57,51.19 293.14,51.19 293.71,51.83 294.29,51.83 294.86,51.83 295.43,47.51 296.00,51.43" />
</svg>