<svg width="300" height="60" xmlns="http://www.w3.org/2000/svg">
  <polyline fill="rgba(255,200,0,0.3)" stroke="#ffbb00" stroke-width="2" points="4.00,6.02 5.29,6.15 6.57,6.76 7.86,7.57 9.15,7.75 10.43,7.18 11.72,7.43 13.00,6.50 14.29,7.34 15.58,8.74 16.86,10.72 18.15,12.36 19.44,14.14 20.72,14.37 22.01,13.70 23.30,13.18 24.58,12.23 25.87,11.51 27.15,11.59 28.44,11.96 29.73,13.65 31.01,16.19 32.30,18.50 33.59,20.66 34.87,22.57 36.16,24.86 37.44,26.96 38.73,28.01 40.02,27.75 41.30,25.96 42.59,25.04 43.88,25.69 45.16,27.51 46.45,28.98 47.74,28.76 49.02,27.57 50.31,25.88 51.59,24.84 52.88,25.13 54.17,25.89 55.45,25.94 56.74,25.24 58.03,24.46 59.31,24.79 60.60,25.93 61.89,27.37 63.17,28.21 64.46,28.62 65.74,28.50 67.03,27.37 68.32,25.50 69.60,24.78 70.89,24.26 72.18,24.55 73.46,25.69 74.75,27.66 76.04,29.89 77.32,32.37 78.61,34.76 79.89,37.16 81.18,39.65 82.47,42.07 83.75,43.83 85.04,44.31 86.33,43.89 87.61,44.36 88.90,45.39 90.19,47.05 91.47,49.24 92.76,51.71 94.04,53.20 95.33,54.60 96.62,55.29 97.90,56.00 99.19,53.88 100.48,51.84 101.76,6.61 103.05,8.36 104.33,6.95 105.62,6.95 106.91,8.39 108.19,6.87 109.48,8.56 110.77,8.20 112.05,6.39 113.34,8.22 114.63,11.21 115.91,15.11 117.20,12.88 118.48,13.24 119.77,14.89 121.06,11.83 122.34,11.38 123.63,10.56 124.92,10.67 126.20,11.24 127.49,12.66 128.78,17.11 130.06,19.16 131.35,21.14 132.63,23.02 133.92,25.78 135.21,28.38 136.49,30.25 137.78,27.03 139.07,27.03 140.35,23.95 141.64,24.96 142.93,27.14 144.21,28.83 145.50,28.85 146.78,27.96 148.07,25.97 149.36,24.76 150.64,24.76 151.93,25.20 153.22,25.29 154.50,24.81 155.79,23.94 157.07,24.05 158.36,27.36 159.65,28.44 160.93,29.07 162.22,28.85 163.51,28.60 164.79,27.03 166.08,25.64 167.37,24.95 168.65,24.61 169.94,25.34 171.22,26.80 172.51,28.76 173.80,30.85 175.08,30.85 176.37,34.03 177.66,36.51 178.94,39.80 180.23,42.84 181.52,43.32 182.80,44.80 184.09,44.02 185.37,43.91 186.66,45.00 187.95,46.76 189.23,48.73 190.52,51.37 191.81,53.04 193.09,54.57 194.38,55.21 195.67,55.94 196.95,53.63 198.24,51.88 199.52,7.81 200.81,13.45 202.10,4.00 203.38,4.00 204.67,4.00 205.96,8.57 207.24,8.57 208.53,8.57 209.81,4.41 211.10,12.15 212.39,12.15 213.67,12.15 214.96,12.49 216.25,14.89 217.53,14.89 218.82,14.89 220.11,13.98 221.39,13.98 222.68,13.98 223.96,15.34 225.25,15.34 226.54,15.34 227.82,21.14 229.11,21.14 230.40,21.14 231.68,28.38 232.97,28.38 234.26,28.38 235.54,28.72 236.83,28.72 238.11,21.14 239.40,21.14 240.69,25.98 241.97,25.98 243.26,25.98 244.55,23.97 245.83,23.97 247.12,23.97 248.41,23.74 249.69,23.74 250.98,23.74 252.26,23.13 253.55,23.13 254.84,23.13 256.12,31.24 257.41,31.24 258.70,31.24 259.98,31.56 261.27,31.56 262.56,31.56 263.84,26.09 265.13,26.09 266.41,26.09 267.70,27.64 268.99,27.64 270.27,27.64 271.56,34.03 272.85,34.03 274.13,34.03 275.42,34.03 276.70,41.56 277.99,44.90 279.28,44.90 280.56,44.90 281.85,43.91 283.14,43.91 284.42,43.91 285.71,48.73 287.00,48.73 288.28,48.73 289.57,55.05 290.85,55.05 292.14,55.05 293.43,54.36 294.71,54.36 296.00,54.36" />
</svg>