<svg width="300" height="60" xmlns="http://www.w3.org/2000/svg">
  <polyline fill="rgba(255,200,0,0.3)" stroke="#ffbb00" stroke-width="2" points="4.00,51.74 4.23,52.60 4.46,54.09 4.70,54.68 4.93,56.00 5.16,53.71 5.39,52.63 5.63,50.68 5.86,49.78 6.09,49.21 6.32,48.92 6.56,47.27 6.79,44.96 7.02,42.43 7.25,40.90 7.48,41.74 7.72,42.87 7.95,42.04 8.18,41.36 8.41,41.06 8.65,41.42 8.88,40.84 9.11,41.59 9.34,41.94 9.58,41.15 9.81,40.24 10.04,39.48 10.27,39.00 10.50,38.67 10.74,38.65 10.97,39.50 11.20,40.16 11.43,41.12 11.67,42.51 11.90,44.18 12.13,44.09 12.36,43.13 12.60,42.58 12.83,42.24 13.06,42.47 13.29,42.75 13.52,42.58 13.76,42.64 13.99,42.83 14.22,45.05 14.45,46.99 14.69,45.48 14.92,44.67 15.15,42.55 15.38,42.75 15.61,43.13 15.85,45.36 16.08,44.84 16.31,44.45 16.54,44.20 16.78,43.94 17.01,45.36 17.24,49.39 17.47,46.35 17.71,45.27 17.94,45.11 18.17,44.97 18.40,44.86 18.63,44.45 18.87,44.58 19.10,43.44 19.33,42.89 19.56,39.73 19.80,38.18 20.03,36.56 20.26,34.89 20.49,34.06 20.73,33.10 20.96,32.33 21.19,32.69 21.42,35.12 21.65,40.07 21.89,41.51 22.12,46.78 22.35,43.31 22.58,39.73 22.82,38.96 23.05,38.32 23.28,38.47 23.51,40.79 23.75,44.83 23.98,48.03 24.21,50.49 24.44,51.73 24.67,49.52 24.91,47.86 25.14,46.41 25.37,45.07 25.60,44.30 25.84,44.30 26.07,44.39 26.30,44.68 26.53,43.85 26.77,44.25 27.00,45.18 27.23,44.11 27.46,42.05 27.69,39.56 27.93,36.09 28.16,33.61 28.39,26.96 28.62,25.23 28.86,25.60 29.09,25.51 29.32,24.78 29.55,22.64 29.79,20.20 30.02,18.81 30.25,16.96 30.48,16.79 30.71,17.00 30.95,17.80 31.18,18.74 31.41,18.72 31.64,17.86 31.88,17.27 32.11,16.79 32.34,15.73 32.57,12.70 32.81,9.57 33.04,9.31 33.27,10.80 33.50,13.50 33.73,17.37 33.97,18.79 34.20,16.45 34.43,14.00 34.66,12.48 34.90,11.94 35.13,11.92 35.36,13.86 35.59,17.95 35.82,22.24 36.06,25.64 36.29,24.88 36.52,24.21 36.75,20.78 36.99,17.70 37.22,16.86 37.45,17.56 37.68,18.90 37.92,20.92 38.15,22.63 38.38,22.38 38.61,21.64 38.84,22.49 39.08,24.46 39.31,25.62 39.54,26.47 39.77,27.07 40.01,28.41 40.24,30.90 40.47,33.97 40.70,37.17 40.94,38.17 41.17,36.54 41.40,35.86 41.63,39.57 41.86,42.79 42.10,42.58 42.33,42.52 42.56,40.73 42.79,43.06 43.03,45.76 43.26,43.83 43.49,42.07 43.72,39.02 43.96,37.08 44.19,36.48 44.42,36.13 44.65,36.85 44.88,37.96 45.12,37.47 45.35,37.46 45.58,37.72 45.81,37.94 46.05,37.01 46.28,35.13 46.51,33.72 46.74,32.52 46.98,29.44 47.21,26.16 47.44,21.98 47.67,19.23 47.90,16.73 48.14,14.97 48.37,14.33 48.60,14.01 48.83,13.82 49.07,14.66 49.30,15.49 49.53,16.54 49.76,16.97 50.00,17.25 50.23,17.58 50.46,17.86 50.69,18.38 50.92,20.24 51.16,19.37 51.39,17.44 51.62,15.70 51.85,15.05 52.09,14.07 52.32,14.09 52.55,13.71 52.78,13.40 53.02,13.67 53.25,14.43 53.48,15.36 53.71,16.71 53.94,14.89 54.18,13.22 54.41,14.68 54.64,18.41 54.87,21.27 55.11,23.13 55.34,24.88 55.57,24.69 55.80,22.30 56.04,19.92 56.27,17.66 56.50,16.67 56.73,16.78 56.96,17.14 57.20,15.80 57.43,13.22 57.66,10.43 57.89,7.80 58.13,6.14 58.36,5.22 58.59,5.24 58.82,7.86 59.05,10.38 59.29,12.39 59.52,13.19 59.75,14.41 59.98,13.80 60.22,12.39 60.45,10.02 60.68,8.54 60.91,8.59 61.15,10.05 61.38,13.80 61.61,14.47 61.84,51.76 62.07,52.51 62.31,54.03 62.54,54.66 62.77,56.00 63.00,53.92 63.24,52.40 63.47,50.74 63.70,50.09 63.93,49.19 64.17,48.68 64.40,47.12 64.63,44.92 64.86,42.43 65.09,40.84 65.33,41.18 65.56,43.20 65.79,42.13 66.02,41.34 66.26,40.91 66.49,41.33 66.72,41.04 66.95,41.60 67.19,42.05 67.42,41.12 67.65,39.85 67.88,39.30 68.11,39.12 68.35,38.81 68.58,38.86 68.81,39.56 69.04,40.11 69.28,40.92 69.51,42.66 69.74,44.12 69.97,44.19 70.21,43.12 70.44,42.36 70.67,42.18 70.90,42.60 71.13,42.59 71.37,42.64 71.60,42.92 71.83,43.02 72.06,44.85 72.30,47.03 72.53,45.49 72.76,44.75 72.99,42.72 73.23,42.74 73.46,43.27 73.69,45.61 73.92,44.86 74.15,44.41 74.39,44.18 74.62,43.83 74.85,45.29 75.08,49.38 75.32,46.57 75.55,45.14 75.78,45.08 76.01,45.02 76.25,44.86 76.48,44.77 76.71,44.67 76.94,43.45 77.17,42.88 77.41,40.02 77.64,38.09 77.87,36.35 78.10,34.87 78.34,34.19 78.57,33.08 78.80,32.39 79.03,32.57 79.26,35.18 79.50,40.26 79.73,41.58 79.96,46.92 80.19,43.29 80.43,39.92 80.66,38.94 80.89,38.51 81.12,38.46 81.36,40.70 81.59,44.87 81.82,48.18 82.05,50.41 82.28,51.83 82.52,49.43 82.75,47.89 82.98,46.17 83.21,45.02 83.45,44.64 83.68,44.41 83.91,44.93 84.14,44.78 84.38,43.81 84.61,43.98 84.84,44.97 85.07,44.86 85.30,42.08 85.54,39.36 85.77,36.07 86.00,33.80 86.23,26.67 86.47,25.14 86.70,25.65 86.93,25.42 87.16,24.86 87.40,22.59 87.63,20.37 87.86,18.77 88.09,17.15 88.32,16.70 88.56,16.82 88.79,17.65 89.02,18.80 89.25,18.50 89.49,17.82 89.72,17.28 89.95,16.66 90.18,15.39 90.42,12.64 90.65,9.90 90.88,9.31 91.11,10.54 91.34,13.48 91.58,17.87 91.81,18.58 92.04,16.61 92.27,14.01 92.51,12.46 92.74,11.81 92.97,11.79 93.20,13.97 93.44,18.12 93.67,22.09 93.90,25.69 94.13,24.87 94.36,24.06 94.60,20.68 94.83,17.83 95.06,16.78 95.29,17.67 95.53,18.80 95.76,39.65 95.99,42.80 96.22,42.64 96.46,16.78 96.69,17.66 96.92,18.80 97.15,21.08 97.38,22.63 97.62,22.23 97.85,21.39 98.08,22.56 98.31,24.63 98.55,25.75 98.78,26.37 99.01,27.12 99.24,28.21 99.47,30.79 99.71,33.90 99.94,37.28 100.17,38.32 100.40,36.62 100.64,35.86 100.87,39.64 101.10,42.81 101.33,42.64 101.57,42.46 101.80,40.64 102.03,43.16 102.26,45.66 102.49,43.85 102.73,41.84 102.96,39.18 103.19,37.52 103.42,36.09 103.66,36.08 103.89,37.16 104.12,38.02 104.35,37.70 104.59,37.61 104.82,37.63 105.05,38.33 105.28,37.08 105.51,34.90 105.75,33.83 105.98,32.36 106.21,29.49 106.44,26.29 106.68,22.20 106.91,19.01 107.14,16.83 107.37,14.95 107.61,14.11 107.84,14.09 108.07,14.21 108.30,14.40 108.53,15.48 108.77,16.59 109.00,16.91 109.23,17.09 109.46,17.62 109.70,17.66 109.93,18.36 110.16,20.05 110.39,19.44 110.63,17.49 110.86,15.84 111.09,15.54 111.32,14.31 111.55,14.15 111.79,13.67 112.02,13.54 112.25,13.61 112.48,14.25 112.72,15.80 112.95,16.38 113.18,14.68 113.41,13.38 113.65,14.50 113.88,18.61 114.11,21.25 114.34,23.20 114.57,24.71 114.81,24.84 115.04,22.44 115.27,19.88 115.50,17.70 115.74,16.62 115.97,16.87 116.20,17.19 116.43,15.75 116.67,13.45 116.90,10.34 117.13,7.65 117.36,5.92 117.59,5.08 117.83,5.20 118.06,7.48 118.29,10.39 118.52,12.21 118.76,13.29 118.99,14.26 119.22,14.03 119.45,12.73 119.68,10.19 119.92,8.53 120.15,8.79 120.38,10.11 120.61,13.78 120.85,15.06 121.08,51.84 121.31,52.49 121.54,54.26 121.78,54.47 122.01,55.74 122.24,54.49 122.47,53.54 122.70,51.62 122.94,50.02 123.17,49.22 123.40,48.57 123.63,47.07 123.87,45.28 124.10,42.74 124.33,40.85 124.56,41.74 124.80,42.60 125.03,41.57 125.26,41.96 125.49,41.26 125.72,40.83 125.96,41.54 126.19,41.81 126.42,41.04 126.65,41.25 126.89,40.47 127.12,39.36 127.35,39.27 127.58,38.42 127.82,39.27 128.05,39.58 128.28,40.45 128.51,40.59 128.74,43.12 128.98,44.14 129.21,43.87 129.44,43.42 129.67,43.33 129.91,42.63 130.14,42.57 130.37,42.65 130.60,42.70 130.84,42.97 131.07,42.94 131.30,44.33 131.53,47.11 131.76,45.91 132.00,44.21 132.23,42.43 132.46,43.05 132.69,43.11 132.93,45.19 133.16,44.87 133.39,44.56 133.62,44.31 133.86,44.35 134.09,45.99 134.32,49.25 134.55,47.23 134.78,45.34 135.02,45.39 135.25,45.39 135.48,44.67 135.71,44.65 135.95,45.26 136.18,43.56 136.41,42.27 136.64,40.24 136.88,38.52 137.11,36.09 137.34,34.95 137.57,33.93 137.80,33.11 138.04,32.36 138.27,32.76 138.50,34.94 138.73,39.84 138.97,41.39 139.20,47.11 139.43,43.57 139.66,39.64 139.89,38.87 140.13,38.13 140.36,38.14 140.59,41.45 140.82,44.96 141.06,48.47 141.29,50.02 141.52,52.10 141.75,50.04 141.99,48.36 142.22,41.44 142.45,44.96 142.68,48.47 142.91,50.02 143.15,52.10 143.38,50.05 143.61,48.37 143.84,45.98 144.08,44.58 144.31,45.04 144.54,43.65 144.77,44.50 145.01,44.98 145.24,43.76 145.47,44.37 145.70,45.78 145.93,44.10 146.17,41.98 146.40,39.08 146.63,36.23 146.86,32.74 147.10,27.23 147.33,25.54 147.56,25.72 147.79,25.53 148.03,24.73 148.26,22.69 148.49,20.92 148.72,18.57 148.95,16.78 149.19,16.79 149.42,16.83 149.65,17.26 149.88,18.83 150.12,18.68 150.35,18.04 150.58,17.37 150.81,16.30 151.05,15.26 151.28,12.77 151.51,9.59 151.74,9.37 151.97,10.20 152.21,12.94 152.44,16.99 152.67,18.62 152.90,16.13 153.14,12.93 153.37,12.74 153.60,11.90 153.83,12.09 154.07,14.48 154.30,17.65 154.53,22.30 154.76,25.65 154.99,24.94 155.23,23.83 155.46,20.48 155.69,17.55 155.92,16.51 156.16,17.99 156.39,18.85 156.62,20.79 156.85,22.35 157.09,22.20 157.32,21.33 157.55,22.95 157.78,24.18 158.01,25.81 158.25,26.64 158.48,26.69 158.71,28.72 158.94,30.90 159.18,34.38 159.41,37.85 159.64,38.35 159.87,36.18 160.11,35.66 160.34,39.68 160.57,42.77 160.80,42.43 161.03,42.50 161.27,40.96 161.50,43.21 161.73,45.09 161.96,44.27 162.20,41.55 162.43,39.37 162.66,37.70 162.89,36.93 163.12,36.19 163.36,37.39 163.59,37.88 163.82,37.36 164.05,37.32 164.29,38.08 164.52,38.72 164.75,37.03 164.98,34.69 165.22,34.05 165.45,32.31 165.68,29.40 165.91,26.26 166.14,22.31 166.38,18.80 166.61,17.46 166.84,15.40 167.07,14.48 167.31,13.84 167.54,13.80 167.77,14.44 168.00,15.45 168.24,16.36 168.47,16.67 168.70,17.15 168.93,17.28 169.16,17.84 169.40,18.54 169.63,20.31 169.86,19.45 170.09,18.12 170.33,16.10 170.56,14.99 170.79,14.93 171.02,14.46 171.26,13.32 171.49,13.50 171.72,13.94 171.95,14.45 172.18,15.13 172.42,16.63 172.65,15.30 172.88,13.28 173.11,14.47 173.35,17.97 173.58,21.33 173.81,23.05 174.04,24.75 174.28,24.42 174.51,22.28 174.74,19.76 174.97,17.80 175.20,16.48 175.44,16.85 175.67,17.19 175.90,15.84 176.13,12.87 176.37,10.22 176.60,8.34 176.83,5.72 177.06,5.00 177.30,4.81 177.53,6.43 177.76,11.28 177.99,12.55 178.22,13.25 178.46,13.85 178.69,13.94 178.92,11.66 179.15,9.32 179.39,7.99 179.62,8.33 179.85,10.19 180.08,13.01 180.32,14.26 180.55,51.85 180.78,52.83 181.01,54.02 181.24,54.86 181.48,55.56 181.71,55.16 181.94,53.18 182.17,50.66 182.41,49.64 182.64,48.03 182.87,48.30 183.10,45.83 183.33,44.54 183.57,41.79 183.80,39.25 184.03,42.42 184.26,40.95 184.50,43.18 184.73,40.59 184.96,42.72 185.19,40.98 185.43,43.88 185.66,42.38 185.89,40.38 186.12,42.50 186.35,39.87 186.59,40.37 186.82,39.16 187.05,38.55 187.28,38.55 187.52,39.05 187.75,39.77 187.98,40.80 188.21,44.29 188.45,45.68 188.68,44.02 188.91,44.68 189.14,42.84 189.37,44.75 189.61,44.82 189.84,42.48 190.07,42.64 190.30,45.41 190.54,43.28 190.77,45.15 191.00,46.33 191.23,46.33 191.47,44.83 191.70,42.99 191.93,43.76 192.16,43.01 192.39,44.76 192.63,44.87 192.86,44.07 193.09,44.98 193.32,44.55 193.56,46.77 193.79,46.69 194.02,46.69 194.25,45.19 194.49,44.66 194.72,44.57 194.95,44.63 195.18,44.68 195.41,44.90 195.65,42.62 195.88,40.42 196.11,40.42 196.34,39.72 196.58,35.93 196.81,35.50 197.04,33.74 197.27,34.28 197.51,32.46 197.74,31.97 197.97,34.01 198.20,39.29 198.43,43.89 198.67,44.75 198.90,44.48 199.13,39.85 199.36,39.78 199.60,37.72 199.83,39.26 200.06,40.65 200.29,43.94 200.53,48.13 200.76,49.94 200.99,51.28 201.22,48.61 201.45,48.61 201.69,46.67 201.92,44.02 202.15,46.04 202.38,41.95 202.62,42.72 202.85,44.36 203.08,41.46 203.31,45.29 203.54,44.25 203.78,44.25 204.01,40.67 204.24,37.43 204.47,39.33 204.71,29.67 204.94,25.88 205.17,25.25 205.40,26.09 205.64,27.19 205.87,23.61 206.10,23.25 206.33,22.88 206.56,18.84 206.80,16.01 207.03,17.69 207.26,17.49 207.49,18.26 207.73,20.98 207.96,18.56 208.19,16.88 208.42,18.81 208.66,16.36 208.89,17.31 209.12,11.66 209.35,10.60 209.58,10.46 209.82,11.78 210.05,13.85 210.28,15.93 210.51,19.81 210.75,16.07 210.98,15.27 211.21,11.30 211.44,11.80 211.68,12.82 211.91,16.07 212.14,16.07 212.37,21.40 212.60,23.82 212.84,24.57 213.07,23.75 213.30,18.90 213.53,18.47 213.77,17.75 214.00,16.98 214.23,21.05 214.46,21.27 214.70,20.94 214.93,23.15 215.16,20.43 215.39,21.91 215.62,24.83 215.86,27.01 216.09,26.99 216.32,27.62 216.55,30.80 216.79,32.84 217.02,37.08 217.25,39.48 217.48,36.72 217.72,37.76 217.95,35.45 218.18,41.45 218.41,42.96 218.64,42.76 218.88,41.67 219.11,41.03 219.34,43.63 219.57,43.38 219.81,41.52 220.04,39.33 220.27,36.85 220.50,35.20 220.74,34.31 220.97,34.44 221.20,35.48 221.43,35.78 221.66,35.50 221.90,35.26 222.13,35.75 222.36,35.75 222.59,36.34 222.83,35.85 223.06,31.89 223.29,33.48 223.52,30.85 223.75,26.56 223.99,22.68 224.22,19.42 224.45,17.38 224.68,16.06 224.92,15.18 225.15,14.52 225.38,14.36 225.61,15.47 225.85,16.86 226.08,18.42 226.31,16.25 226.54,17.84 226.77,17.17 227.01,18.94 227.24,19.80 227.47,19.52 227.70,18.74 227.94,20.44 228.17,16.27 228.40,17.04 228.63,17.00 228.87,13.88 229.10,14.94 229.33,13.11 229.56,14.58 229.79,14.24 230.03,16.73 230.26,15.29 230.49,15.55 230.72,15.21 230.96,15.94 231.19,17.80 231.42,22.25 231.65,22.32 231.89,24.40 232.12,23.63 232.35,22.29 232.58,18.50 232.81,18.19 233.05,16.71 233.28,17.74 233.51,16.61 233.74,17.48 233.98,11.76 234.21,8.95 234.44,8.61 234.67,7.02 234.91,5.32 235.14,4.00 235.37,9.58 235.60,9.53 235.83,14.29 236.07,13.62 236.30,12.03 236.53,15.21 236.76,13.33 237.00,11.17 237.23,10.02 237.46,10.13 237.69,13.87 237.93,13.82 238.16,14.95 238.39,50.98 238.62,54.47 238.85,54.47 239.09,54.47 239.32,51.11 239.55,55.13 239.78,55.13 240.02,51.74 240.25,51.74 240.48,45.54 240.71,45.54 240.95,45.54 241.18,49.20 241.41,49.20 241.64,49.20 241.87,43.03 242.11,43.03 242.34,43.03 242.57,36.93 242.80,49.81 243.04,49.81 243.27,44.68 243.50,44.68 243.73,44.68 243.96,38.15 244.20,38.15 244.43,46.38 244.66,46.38 244.89,46.38 245.13,47.38 245.36,47.38 245.59,47.38 245.82,50.55 246.06,50.55 246.29,53.21 246.52,44.79 246.75,44.79 246.98,49.11 247.22,49.11 247.45,49.11 247.68,42.42 247.91,49.31 248.15,49.31 248.38,49.31 248.61,44.62 248.84,48.33 249.08,48.33 249.31,48.33 249.54,43.15 249.77,45.43 250.00,45.43 250.24,45.43 250.47,44.94 250.70,44.94 250.93,44.94 251.17,41.79 251.40,41.79 251.63,41.79 251.86,41.79 252.10,39.12 252.33,39.12 252.56,39.12 252.79,39.19 253.02,39.19 253.26,39.19 253.49,42.99 253.72,42.99 253.95,42.99 254.19,37.19 254.42,37.19 254.65,37.85 254.88,37.85 255.12,37.85 255.35,37.85 255.58,35.72 255.81,35.72 256.04,43.36 256.28,40.79 256.51,40.79 256.74,40.79 256.97,41.20 257.21,41.20 257.44,32.13 257.67,37.32 257.90,37.32 258.14,44.58 258.37,44.58 258.60,38.46 258.83,43.74 259.06,43.74 259.30,43.74 259.53,43.74 259.76,36.31 259.99,47.10 260.23,36.31 260.46,38.37 260.69,38.37 260.92,38.37 261.16,46.61 261.39,46.61 261.62,46.61 261.85,30.82 262.08,37.61 262.32,37.61 262.55,28.86 262.78,28.86 263.01,28.86 263.25,30.44 263.48,30.44 263.71,30.44 263.94,31.73 264.18,31.73 264.41,19.44 264.64,23.44 264.87,23.44 265.10,23.44 265.34,23.23 265.57,23.23 265.80,23.23 266.03,23.23 266.27,29.76 266.50,16.62 266.73,16.62 266.96,16.55 267.19,16.55 267.43,18.82 267.66,18.82 267.89,18.82 268.12,15.40 268.36,15.40 268.59,15.40 268.82,15.98 269.05,15.98 269.29,15.98 269.52,9.74 269.75,21.78 269.98,21.78 270.21,21.78 270.45,21.78 270.68,22.39 270.91,22.39 271.14,13.96 271.38,21.53 271.61,21.53 271.84,21.53 272.07,20.03 272.31,20.03 272.54,20.03 272.77,25.43 273.00,25.43 273.23,25.43 273.47,25.43 273.70,33.16 273.93,33.16 274.16,33.16 274.40,37.95 274.63,33.21 274.86,41.97 275.09,41.97 275.33,41.97 275.56,41.97 275.79,40.65 276.02,40.65 276.25,41.33 276.49,41.33 276.72,41.33 276.95,40.31 277.18,40.31 277.42,40.31 277.65,34.23 277.88,34.23 278.11,34.23 278.35,31.12 278.58,31.12 278.81,31.12 279.04,31.71 279.27,31.71 279.51,31.71 279.74,31.52 279.97,31.52 280.20,31.52 280.44,31.52 280.67,33.54 280.90,33.54 281.13,33.54 281.37,29.44 281.60,29.44 281.83,29.44 282.06,23.42 282.29,23.42 282.53,20.39 282.76,20.39 282.99,20.39 283.22,21.05 283.46,21.05 283.69,25.43 283.92,25.43 284.15,25.43 284.39,30.42 284.62,19.74 284.85,19.74 285.08,25.68 285.31,25.68 285.55,19.30 285.78,19.30 286.01,19.30 286.24,21.21 286.48,21.21 286.71,23.39 286.94,23.39 287.17,13.48 287.40,19.15 287.64,19.15 287.87,19.15 288.10,22.59 288.33,22.59 288.57,22.59 288.80,23.73 289.03,23.73 289.26,23.73 289.50,20.29 289.73,20.29 289.96,19.14 290.19,19.14 290.42,19.14 290.66,22.13 290.89,19.30 291.12,19.30 291.35,19.30 291.59,12.22 291.82,12.22 292.05,5.51 292.28,16.65 292.52,16.65 292.75,14.95 292.98,14.95 293.21,14.95 293.44,13.04 293.68,13.04 293.91,13.04 294.14,10.05 294.37,22.06 294.61,18.30 294.84,18.30 295.07,18.30 295.30,21.96 295.54,21.96 295.77,13.64 296.00,13.64" />
</svg>