<svg width="300" height="60" xmlns="http://www.w3.org/2000/svg">
  <polyline fill="rgba(255,200,0,0.3)" stroke="#ffbb00" stroke-width="2" points="4.00,4.63 6.34,7.10 8.67,11.04 11.01,13.65 13.34,17.21 15.68,20.08 18.02,21.69 20.35,23.07 22.69,27.57 25.02,31.73 27.36,36.99 29.70,40.70 32.03,39.91 34.37,36.66 36.70,32.55 39.04,29.08 41.38,26.87 43.71,25.03 46.05,23.28 48.38,20.40 50.72,16.10 53.06,5.10 55.39,7.52 57.73,10.93 60.06,13.84 62.40,17.38 64.74,20.24 67.07,21.81 69.41,23.21 71.74,27.71 74.08,32.10 76.42,37.07 78.75,40.88 81.09,40.36 83.42,36.90 85.76,33.02 88.10,29.35 90.43,27.73 92.77,25.31 95.10,23.37 97.44,20.66 99.78,16.16 102.11,5.57 104.45,7.39 106.78,11.47 109.12,14.41 111.46,17.97 113.79,20.89 116.13,22.25 118.46,20.02 120.80,27.95 123.14,31.35 125.47,37.19 127.81,40.82 130.14,41.05 132.48,37.87 134.82,32.94 137.15,29.09 139.49,26.16 141.82,25.93 144.16,23.66 146.50,21.44 148.83,15.63 151.17,5.19 153.50,6.18 155.84,11.40 158.18,14.11 160.51,17.64 162.85,19.92 165.18,21.51 167.52,20.18 169.86,27.20 172.19,30.83 174.53,36.86 176.86,39.80 179.20,40.03 181.54,36.63 183.87,31.74 186.21,27.88 188.54,27.30 190.88,24.58 193.22,23.22 195.55,21.14 197.89,15.96 200.22,4.00 202.56,7.81 204.90,9.63 207.23,15.06 209.57,18.01 211.90,20.96 214.24,22.09 216.58,20.58 218.91,25.34 221.25,30.32 223.58,39.17 225.92,39.17 228.26,39.92 230.59,41.96 232.93,40.44 235.26,38.41 237.60,33.65 239.94,27.98 242.27,34.55 244.61,23.00 246.94,15.74 249.28,17.89 251.62,17.89 253.95,17.89 256.29,26.28 258.62,26.28 260.96,26.28 263.30,42.63 265.63,42.63 267.97,42.63 270.30,56.00 272.64,56.00 274.98,56.00 277.31,56.00 279.65,56.00 281.98,56.00 284.32,42.63 286.66,42.63 288.99,42.63 291.33,29.45 293.66,29.45 296.00,29.45" />
</svg>