<svg width="300" height="60" xmlns="http://www.w3.org/2000/svg">
  <polyline fill="rgba(255,200,0,0.3)" stroke="#ffbb00" stroke-width="2" points="4.00,17.90 4.30,17.59 4.60,16.97 4.90,16.28 5.20,15.43 5.50,14.82 5.80,14.53 6.10,14.38 6.40,14.74 6.70,15.25 7.00,15.79 7.30,15.81 7.60,16.06 7.90,16.08 8.20,15.80 8.50,15.59 8.80,15.36 9.10,15.46 9.40,15.08 9.70,14.47 10.00,13.85 10.30,13.48 10.60,12.52 10.90,11.93 11.20,11.30 11.49,11.01 11.79,10.98 12.09,11.35 12.39,11.92 12.69,12.16 12.99,11.71 13.29,11.07 13.59,10.48 13.89,9.95 14.19,9.46 14.49,9.13 14.79,9.02 15.09,9.07 15.39,9.44 15.69,9.96 15.99,9.92 16.29,9.43 16.59,8.91 16.89,8.74 17.19,8.68 17.49,8.31 17.79,8.13 18.09,8.28 18.39,7.95 18.69,7.38 18.99,6.91 19.29,6.48 19.59,6.27 19.89,5.97 20.19,5.66 20.49,5.54 20.79,5.39 21.09,5.27 21.39,5.69 21.69,6.49 21.99,6.45 22.29,6.16 22.59,5.72 22.89,5.19 23.19,4.90 23.49,4.62 23.79,4.37 24.09,4.05 24.39,53.10 24.69,52.37 24.99,51.67 25.29,50.81 25.59,50.27 25.89,49.83 26.18,49.77 26.48,49.80 26.78,49.66 27.08,49.40 27.38,49.41 27.68,49.80 27.98,50.03 28.28,50.23 28.58,50.47 28.88,50.73 29.18,50.07 29.48,49.63 29.78,50.54 30.08,52.09 30.38,52.85 30.68,52.13 30.98,51.95 31.28,51.05 31.58,50.31 31.88,49.57 32.18,48.62 32.48,47.77 32.78,47.06 33.08,46.21 33.38,45.25 33.68,44.55 33.98,44.29 34.28,44.34 34.58,44.40 34.88,44.90 35.18,45.35 35.48,45.11 35.78,44.69 36.08,44.30 36.38,43.75 36.68,43.03 36.98,42.29 37.28,41.54 37.58,40.94 37.88,40.34 38.18,40.13 38.48,40.06 38.78,39.60 39.08,39.14 39.38,39.03 39.68,38.87 39.98,38.67 40.28,38.67 40.57,38.63 40.87,38.43 41.17,38.27 41.47,37.97 41.77,37.73 42.07,37.53 42.37,37.60 42.67,37.97 42.97,38.25 43.27,38.99 43.57,39.28 43.87,40.20 44.17,40.51 44.47,39.88 44.77,38.72 45.07,37.51 45.37,37.04 45.67,37.12 45.97,37.72 46.27,37.44 46.57,37.35 46.87,37.49 47.17,36.97 47.47,36.64 47.77,36.48 48.07,36.05 48.37,35.68 48.67,35.37 48.97,34.54 49.27,34.07 49.57,33.88 49.87,33.78 50.17,34.12 50.47,34.09 50.77,33.54 51.07,33.65 51.37,33.73 51.67,34.12 51.97,34.63 52.27,34.26 52.57,34.64 52.87,35.40 53.17,36.62 53.47,36.38 53.77,36.39 54.07,34.62 54.37,33.56 54.67,32.87 54.97,32.59 55.26,32.43 55.56,32.38 55.86,32.77 56.16,33.18 56.46,33.45 56.76,33.06 57.06,33.50 57.36,32.85 57.66,31.29 57.96,30.52 58.26,29.73 58.56,29.61 58.86,29.38 59.16,29.11 59.46,28.87 59.76,29.03 60.06,28.79 60.36,28.56 60.66,28.92 60.96,28.59 61.26,28.54 61.56,28.95 61.86,29.25 62.16,28.64 62.46,28.01 62.76,27.50 63.06,27.57 63.36,26.73 63.66,25.73 63.96,24.72 64.26,24.23 64.56,24.00 64.86,24.09 65.16,24.22 65.46,23.71 65.76,23.70 66.06,23.98 66.36,24.14 66.66,23.77 66.96,24.02 67.26,24.11 67.56,23.37 67.86,22.92 68.16,22.73 68.46,22.38 68.76,22.41 69.06,22.73 69.36,22.67 69.66,22.29 69.95,21.39 70.25,20.52 70.55,19.26 70.85,18.89 71.15,18.78 71.45,18.89 71.75,19.11 72.05,19.32 72.35,18.82 72.65,18.59 72.95,18.27 73.25,17.97 73.55,17.71 73.85,17.57 74.15,17.71 74.45,17.93 74.75,17.33 75.05,16.89 75.35,16.53 75.65,16.65 75.95,17.21 76.25,17.72 76.55,17.90 76.85,17.90 77.15,17.60 77.45,16.97 77.75,53.05 78.05,52.11 78.35,51.57 78.65,50.60 78.95,49.95 79.25,49.67 79.55,49.64 79.85,49.67 80.15,49.42 80.45,49.31 80.75,49.36 81.05,49.77 81.35,49.99 81.65,50.21 81.95,50.41 82.25,50.12 82.55,49.57 82.85,49.29 83.15,50.52 83.45,51.72 83.75,52.24 84.05,51.81 84.34,52.06 84.64,51.09 84.94,50.38 85.24,49.38 85.54,48.54 85.84,47.45 86.14,47.01 86.44,46.17 86.74,45.23 87.04,44.38 87.34,44.19 87.64,44.23 87.94,44.44 88.24,44.87 88.54,45.14 88.84,44.89 89.14,44.56 89.44,44.16 89.74,43.67 90.04,42.97 90.34,42.23 90.64,41.14 90.94,40.78 91.24,40.32 91.54,39.64 91.84,39.76 92.14,39.65 92.44,38.96 92.74,38.82 93.04,38.84 93.34,38.65 93.64,38.55 93.94,38.02 94.24,38.17 94.54,37.77 94.84,38.04 95.14,37.58 95.44,37.64 95.74,37.64 96.04,38.01 96.34,38.07 96.64,38.92 96.94,39.37 97.24,40.22 97.54,40.39 97.84,39.97 98.14,38.68 98.44,37.71 98.74,37.05 99.03,37.16 99.33,37.74 99.63,37.34 99.93,37.21 100.23,37.42 100.53,36.78 100.83,36.58 101.13,36.36 101.43,35.88 101.73,35.05 102.03,35.14 102.33,34.63 102.63,34.09 102.93,33.73 103.23,33.80 103.53,34.18 103.83,34.03 104.13,33.46 104.43,33.37 104.73,33.65 105.03,33.84 105.33,34.61 105.63,34.07 105.93,34.59 106.23,35.17 106.53,36.83 106.83,36.68 107.13,36.06 107.43,34.66 107.73,33.39 108.03,32.82 108.33,32.34 108.63,32.49 108.93,32.37 109.23,32.85 109.53,33.11 109.83,33.30 110.13,32.94 110.43,33.32 110.73,32.87 111.03,31.26 111.33,30.53 111.63,29.55 111.93,29.61 112.23,29.30 112.53,29.01 112.83,28.76 113.13,29.04 113.43,28.73 113.72,28.29 114.02,28.84 114.32,28.77 114.62,28.59 114.92,28.72 115.22,28.98 115.52,28.76 115.82,27.78 116.12,27.19 116.42,27.70 116.72,26.79 117.02,25.81 117.32,24.68 117.62,24.06 117.92,24.17 118.22,24.08 118.52,24.39 118.82,23.71 119.12,23.84 119.42,24.02 119.72,23.89 120.02,23.84 120.32,23.90 120.62,24.02 120.92,23.25 121.22,22.81 121.52,22.83 121.82,22.23 122.12,22.44 122.42,22.61 122.72,22.80 123.02,22.02 123.32,21.20 123.62,20.32 123.92,19.42 124.22,19.00 124.52,18.76 124.82,18.80 125.12,19.16 125.42,19.22 125.72,18.73 126.02,18.59 126.32,18.24 126.62,18.09 126.92,17.48 127.22,17.48 127.52,17.59 127.82,17.83 128.11,17.25 128.41,16.78 128.71,16.42 129.01,16.62 129.31,17.29 129.61,17.79 129.91,17.90 130.21,17.82 130.51,17.44 130.81,16.77 131.11,16.43 131.41,15.49 131.71,14.95 132.01,14.41 132.31,14.37 132.61,14.66 132.91,15.29 133.21,15.83 133.51,15.82 133.81,15.96 134.11,16.03 134.41,15.71 134.71,15.59 135.01,15.44 135.31,15.41 135.61,14.98 135.91,14.52 136.21,13.80 136.51,13.52 136.81,12.39 137.11,11.95 137.41,11.35 137.71,10.94 138.01,11.02 138.31,11.39 138.61,12.06 138.91,12.06 139.21,11.72 139.51,11.01 139.81,10.37 140.11,9.83 140.41,9.44 140.71,9.14 141.01,8.92 141.31,8.97 141.61,9.51 141.91,9.80 142.21,10.19 142.51,9.51 142.80,8.81 143.10,8.73 143.40,8.64 143.70,8.22 144.00,8.17 144.30,8.57 144.60,8.05 144.90,7.43 145.20,6.98 145.50,6.44 145.80,6.24 146.10,5.86 146.40,5.53 146.70,5.46 147.00,5.40 147.30,5.26 147.60,5.65 147.90,6.52 148.20,6.56 148.50,6.15 148.80,5.57 149.10,5.29 149.40,4.92 149.70,4.63 150.00,4.50 150.30,4.04 150.60,52.82 150.90,52.23 151.20,51.63 151.50,50.21 151.80,49.93 152.10,49.85 152.40,50.08 152.70,49.48 153.00,49.35 153.30,49.78 153.60,49.41 153.90,49.96 154.20,50.08 154.50,50.58 154.80,50.95 155.10,50.75 155.40,49.78 155.70,49.95 156.00,51.63 156.30,51.63 156.60,52.88 156.90,51.94 157.20,52.82 157.49,51.32 157.79,50.20 158.09,49.15 158.39,49.15 158.69,48.19 158.99,47.45 159.29,46.43 159.59,45.48 159.89,44.55 160.19,44.07 160.49,44.41 160.79,44.79 161.09,45.13 161.39,45.48 161.69,44.95 161.99,44.35 162.29,44.60 162.59,43.94 162.89,42.99 163.19,42.13 163.49,41.30 163.79,41.30 164.09,40.56 164.39,39.71 164.69,39.90 164.99,39.90 165.29,38.72 165.59,38.97 165.89,39.30 166.19,38.73 166.49,39.08 166.79,38.39 167.09,38.88 167.39,38.24 167.69,38.69 167.99,37.66 168.29,38.06 168.59,37.60 168.89,38.24 169.19,38.03 169.49,39.62 169.79,40.36 170.09,39.94 170.39,40.58 170.69,40.68 170.99,38.85 171.29,37.71 171.59,37.71 171.89,37.27 172.18,37.41 172.48,37.78 172.78,37.30 173.08,37.91 173.38,37.21 173.68,36.56 173.98,37.09 174.28,36.56 174.58,35.55 174.88,35.12 175.18,35.43 175.48,34.37 175.78,33.74 176.08,34.22 176.38,34.90 176.68,34.16 176.98,33.58 177.28,33.58 177.58,33.44 177.88,34.11 178.18,35.03 178.48,33.97 178.78,34.43 179.08,35.13 179.38,37.09 179.68,37.51 179.98,35.23 180.28,34.55 180.58,33.28 180.88,33.58 181.18,32.44 181.48,32.89 181.78,32.48 182.08,32.50 182.38,33.42 182.68,32.93 182.98,32.76 183.28,33.01 183.58,33.01 183.88,31.51 184.18,30.48 184.48,29.52 184.78,30.00 185.08,29.64 185.38,28.99 185.68,29.45 185.98,29.05 186.28,29.50 186.57,28.42 186.87,29.43 187.17,29.28 187.47,28.67 187.77,29.40 188.07,29.20 188.37,29.47 188.67,28.28 188.97,27.45 189.27,27.95 189.57,26.50 189.87,26.50 190.17,24.96 190.47,23.82 190.77,24.19 191.07,23.84 191.37,24.36 191.67,23.55 191.97,23.84 192.27,23.66 192.57,24.28 192.87,23.73 193.17,24.41 193.47,24.15 193.77,22.91 194.07,23.28 194.37,23.74 194.67,22.53 194.97,22.90 195.27,22.39 195.57,22.86 195.87,22.22 196.17,21.00 196.47,21.12 196.77,19.61 197.07,18.92 197.37,18.74 197.67,19.45 197.97,19.59 198.27,18.86 198.57,19.28 198.87,18.78 199.17,18.58 199.47,17.81 199.77,17.66 200.07,17.66 200.37,17.91 200.67,17.95 200.97,17.07 201.26,17.22 201.56,16.46 201.86,16.77 202.16,17.16 202.46,17.52 202.76,17.97 203.06,18.29 203.36,16.94 203.66,17.02 203.96,17.04 204.26,15.82 204.56,14.71 204.86,14.41 205.16,15.09 205.46,14.67 205.76,15.11 206.06,15.81 206.36,16.04 206.66,16.23 206.96,16.27 207.26,16.27 207.56,16.37 207.86,15.67 208.16,15.91 208.46,15.44 208.76,14.97 209.06,13.81 209.36,13.40 209.66,12.28 209.96,12.02 210.26,11.31 210.56,11.24 210.86,10.89 211.16,11.50 211.46,11.83 211.76,11.97 212.06,11.54 212.36,11.04 212.66,10.64 212.96,9.72 213.26,9.63 213.56,9.00 213.86,9.18 214.16,8.82 214.46,9.33 214.76,9.98 215.06,10.57 215.36,9.72 215.66,8.70 215.95,8.91 216.25,8.91 216.55,8.15 216.85,8.16 217.15,8.57 217.45,8.13 217.75,7.31 218.05,7.33 218.35,6.70 218.65,6.31 218.95,6.12 219.25,5.60 219.55,5.62 219.85,5.16 220.15,5.48 220.45,5.66 220.75,6.39 221.05,6.37 221.35,6.30 221.65,5.64 221.95,5.64 222.25,5.07 222.55,4.77 222.85,4.55 223.15,4.00 223.45,52.85 223.75,51.22 224.05,51.22 224.35,48.73 224.65,49.06 224.95,49.06 225.25,49.06 225.55,49.06 225.85,50.62 226.15,50.62 226.45,50.22 226.75,50.22 227.05,50.22 227.35,50.56 227.65,50.56 227.95,49.36 228.25,49.36 228.55,52.63 228.85,52.14 229.15,52.14 229.45,52.14 229.75,52.14 230.05,56.00 230.34,51.75 230.64,51.75 230.94,52.48 231.24,52.48 231.54,48.65 231.84,48.65 232.14,48.65 232.44,45.54 232.74,45.54 233.04,46.53 233.34,46.53 233.64,46.53 233.94,47.79 234.24,47.79 234.54,44.95 234.84,45.81 235.14,45.81 235.44,45.81 235.74,42.96 236.04,43.66 236.34,43.66 236.64,43.66 236.94,40.58 237.24,41.06 237.54,41.06 237.84,41.06 238.14,41.64 238.44,41.64 238.74,41.64 239.04,39.17 239.34,39.17 239.64,40.43 239.94,40.43 240.24,40.43 240.54,41.58 240.84,38.63 241.14,38.63 241.44,38.63 241.74,40.57 242.04,40.57 242.34,42.99 242.64,42.99 242.94,39.77 243.24,40.38 243.54,40.38 243.84,40.38 244.14,40.75 244.44,40.75 244.74,38.07 245.03,38.07 245.33,39.67 245.63,39.67 245.93,39.67 246.23,38.14 246.53,38.14 246.83,38.14 247.13,39.63 247.43,36.39 247.73,36.39 248.03,36.39 248.33,36.81 248.63,34.25 248.93,34.25 249.23,35.31 249.53,35.31 249.83,35.31 250.13,35.31 250.43,34.57 250.73,34.57 251.03,35.50 251.33,35.50 251.63,35.50 251.93,37.10 252.23,37.10 252.53,37.10 252.83,36.42 253.13,36.42 253.43,36.43 253.73,36.43 254.03,33.02 254.33,33.02 254.63,34.81 254.93,34.81 255.23,34.81 255.53,32.87 255.83,32.87 256.13,33.18 256.43,33.18 256.73,33.18 257.03,33.18 257.33,29.69 257.63,31.00 257.93,31.00 258.23,31.00 258.53,32.42 258.83,29.50 259.13,29.50 259.43,29.50 259.72,30.60 260.02,30.60 260.32,31.30 260.62,31.30 260.92,28.90 261.22,29.92 261.52,29.92 261.82,29.92 262.12,30.63 262.42,26.42 262.72,26.42 263.02,26.42 263.32,26.93 263.62,26.93 263.92,23.87 264.22,24.94 264.52,24.94 264.82,24.94 265.12,26.10 265.42,26.10 265.72,23.83 266.02,25.27 266.32,25.27 266.62,25.27 266.92,26.33 267.22,26.33 267.52,22.68 267.82,23.72 268.12,23.72 268.42,23.72 268.72,24.65 269.02,21.09 269.32,21.09 269.62,21.09 269.92,21.93 270.22,19.51 270.52,19.51 270.82,21.35 271.12,21.35 271.42,21.35 271.72,18.85 272.02,20.45 272.32,20.45 272.62,18.48 272.92,18.48 273.22,18.48 273.52,20.36 273.82,17.45 274.11,17.45 274.41,17.45 274.71,18.68 275.01,18.68 275.31,17.15 275.61,18.03 275.91,18.03 276.21,18.10 276.51,18.10 276.81,18.10 277.11,18.93 277.41,16.08 277.71,16.08 278.01,16.08 278.31,16.08 278.61,16.55 278.91,16.55 279.21,16.55 279.51,18.79 279.81,17.00 280.11,17.00 280.41,17.00 280.71,17.00 281.01,17.42 281.31,17.42 281.61,17.42 281.91,13.81 282.21,13.81 282.51,13.81 282.81,12.78 283.11,12.78 283.41,12.78 283.71,10.74 284.01,11.55 284.31,11.55 284.61,11.55 284.91,12.06 285.21,12.06 285.51,12.06 285.81,11.33 286.11,11.33 286.41,9.28 286.71,9.28 287.01,9.83 287.31,9.83 287.61,9.83 287.91,10.83 288.21,10.83 288.51,8.22 288.80,8.81 289.10,8.81 289.40,8.81 289.70,8.81 290.00,8.85 290.30,8.85 290.60,7.01 290.90,7.40 291.20,7.40 291.50,7.40 291.80,5.49 292.10,5.49 292.40,6.59 292.70,5.15 293.00,5.15 293.30,5.15 293.60,6.55 293.90,6.55 294.20,6.55 294.50,5.64 294.80,5.64 295.10,5.64 295.40,5.64 295.70,4.47 296.00,4.47" />
</svg>