<svg width="300" height="60" xmlns="http://www.w3.org/2000/svg">
  <polyline fill="rgba(255,200,0,0.3)" stroke="#ffbb00" stroke-width="2" points="4.00,8.45 4.35,8.50 4.69,8.84 5.04,9.03 5.38,9.19 5.73,9.39 6.07,9.67 6.42,10.08 6.76,10.59 7.11,11.29 7.46,11.99 7.80,12.76 8.15,13.44 8.49,14.32 8.84,15.19 9.18,16.01 9.53,16.87 9.87,17.88 10.22,18.65 10.57,19.57 10.91,20.13 11.26,55.62 11.60,55.79 11.95,55.41 12.29,54.86 12.64,54.27 12.98,53.72 13.33,53.14 13.68,52.65 14.02,52.17 14.37,51.72 14.71,51.31 15.06,50.91 15.40,50.65 15.75,50.35 16.09,49.84 16.44,49.28 16.79,48.72 17.13,48.08 17.48,47.77 17.82,47.67 18.17,47.89 18.51,48.29 18.86,48.55 19.20,48.68 19.55,48.55 19.90,48.21 20.24,47.70 20.59,47.15 20.93,46.78 21.28,46.71 21.62,46.86 21.97,47.24 22.31,47.65 22.66,48.01 23.01,48.30 23.35,48.29 23.70,48.14 24.04,47.83 24.39,47.52 24.73,47.37 25.08,47.50 25.42,47.81 25.77,47.91 26.12,48.46 26.46,49.24 26.81,49.90 27.15,50.36 27.50,50.58 27.84,50.68 28.19,50.92 28.53,50.97 28.88,50.91 29.23,50.53 29.57,50.00 29.92,49.52 30.26,49.19 30.61,48.92 30.95,48.07 31.30,47.02 31.64,46.39 31.99,45.73 32.34,45.09 32.68,44.55 33.03,44.27 33.37,44.14 33.72,43.83 34.06,43.22 34.41,42.35 34.76,41.40 35.10,40.61 35.45,39.99 35.79,39.53 36.14,39.09 36.48,38.53 36.83,37.87 37.17,37.17 37.52,36.56 37.87,36.14 38.21,35.77 38.56,35.48 38.90,35.27 39.25,35.09 39.59,35.00 39.94,34.73 40.28,34.61 40.63,34.50 40.98,34.24 41.32,33.95 41.67,33.71 42.01,33.50 42.36,33.37 42.70,33.40 43.05,33.34 43.39,33.04 43.74,33.16 44.09,33.53 44.43,33.93 44.78,34.38 45.12,34.81 45.47,34.75 45.81,34.56 46.16,34.15 46.50,33.81 46.85,33.52 47.20,33.32 47.54,33.22 47.89,33.16 48.23,33.12 48.58,33.04 48.92,32.93 49.27,32.96 49.61,32.93 49.96,33.15 50.31,32.96 50.65,32.86 51.00,32.71 51.34,32.50 51.69,32.34 52.03,32.55 52.38,32.77 52.72,32.98 53.07,33.28 53.42,33.75 53.76,34.03 54.11,34.31 54.45,34.37 54.80,34.28 55.14,33.85 55.49,33.36 55.83,32.61 56.18,31.86 56.53,31.35 56.87,30.82 57.22,30.34 57.56,29.60 57.91,29.00 58.25,28.19 58.60,27.48 58.94,26.79 59.29,26.36 59.64,26.18 59.98,26.00 60.33,25.70 60.67,25.25 61.02,24.67 61.36,23.95 61.71,23.22 62.05,22.23 62.40,21.08 62.75,20.19 63.09,19.40 63.44,18.74 63.78,18.23 64.13,17.78 64.47,17.53 64.82,17.33 65.16,16.76 65.51,16.05 65.86,15.59 66.20,15.17 66.55,14.82 66.89,14.35 67.24,13.83 67.58,13.40 67.93,12.95 68.27,12.65 68.62,12.44 68.97,12.29 69.31,12.35 69.66,12.33 70.00,12.19 70.35,12.11 70.69,12.14 71.04,12.17 71.38,12.12 71.73,12.05 72.08,11.84 72.42,11.76 72.77,11.72 73.11,11.59 73.46,11.78 73.80,11.86 74.15,11.74 74.49,11.44 74.84,10.99 75.19,10.48 75.53,9.97 75.88,9.45 76.22,8.88 76.57,8.47 76.91,8.50 77.26,17.86 77.60,18.65 77.95,19.57 78.30,20.12 78.64,55.67 78.99,55.85 79.33,55.54 79.68,54.96 80.02,54.57 80.37,53.97 80.71,53.29 81.06,52.80 81.41,52.31 81.75,51.93 82.10,51.41 82.44,51.05 82.79,50.77 83.13,50.33 83.48,49.93 83.82,49.43 84.17,48.75 84.52,48.21 84.86,47.87 85.21,47.77 85.55,47.96 85.90,48.35 86.24,48.67 86.59,48.80 86.93,48.70 87.28,48.35 87.63,47.95 87.97,47.28 88.32,46.86 88.66,46.80 89.01,46.92 89.35,47.25 89.70,47.65 90.04,48.10 90.39,48.61 90.74,48.50 91.08,48.16 91.43,47.88 91.77,47.55 92.12,47.15 92.46,47.49 92.81,47.67 93.16,47.87 93.50,48.41 93.85,49.00 94.19,49.92 94.54,50.40 94.88,50.58 95.23,50.81 95.57,50.96 95.92,51.02 96.27,51.00 96.61,50.62 96.96,50.22 97.30,49.60 97.65,49.39 97.99,49.11 98.34,48.35 98.68,47.22 99.03,46.33 99.38,45.88 99.72,45.27 100.07,44.75 100.41,44.62 100.76,44.78 101.10,44.01 101.45,43.29 101.79,42.31 102.14,41.28 102.49,40.49 102.83,40.18 103.18,39.64 103.52,39.30 103.87,38.90 104.21,38.04 104.56,37.54 104.90,36.85 105.25,36.40 105.60,36.04 105.94,35.88 106.29,35.36 106.63,35.24 106.98,35.39 107.32,35.39 107.67,34.77 108.01,34.63 108.36,34.41 108.71,34.05 109.05,33.82 109.40,33.81 109.74,33.61 110.09,33.78 110.43,33.75 110.78,33.61 111.12,33.22 111.47,33.65 111.82,33.90 112.16,34.47 112.51,34.85 112.85,35.76 113.20,34.66 113.54,34.28 113.89,34.13 114.23,33.85 114.58,33.49 114.93,33.48 115.27,33.35 115.62,33.37 115.96,33.23 116.31,33.12 116.65,33.27 117.00,33.13 117.34,33.49 117.69,33.43 118.04,33.03 118.38,32.85 118.73,32.59 119.07,32.44 119.42,32.58 119.76,32.85 120.11,33.03 120.45,33.45 120.80,33.64 121.15,34.09 121.49,34.38 121.84,34.40 122.18,34.42 122.53,34.06 122.87,33.37 123.22,32.60 123.56,31.89 123.91,31.35 124.26,30.85 124.60,30.32 124.95,29.88 125.29,29.13 125.64,28.38 125.98,27.60 126.33,26.75 126.67,26.43 127.02,26.32 127.37,26.18 127.71,25.86 128.06,25.38 128.40,24.78 128.75,24.04 129.09,23.18 129.44,22.51 129.78,21.36 130.13,20.30 130.48,19.59 130.82,18.80 131.17,18.34 131.51,17.83 131.86,17.53 132.20,17.67 132.55,16.94 132.89,16.21 133.24,15.68 133.59,15.19 133.93,14.79 134.28,14.34 134.62,13.70 134.97,13.23 135.31,12.94 135.66,12.64 136.00,12.58 136.35,12.25 136.70,12.69 137.04,12.78 137.39,12.32 137.73,12.29 138.08,12.27 138.42,12.35 138.77,12.24 139.11,12.12 139.46,11.40 139.81,11.68 140.15,11.72 140.50,11.70 140.84,11.86 141.19,12.14 141.53,12.00 141.88,11.61 142.22,11.01 142.57,10.49 142.92,10.02 143.26,9.40 143.61,8.90 143.95,8.56 144.30,8.46 144.64,8.84 144.99,9.05 145.33,9.33 145.68,9.45 146.03,9.76 146.37,10.21 146.72,10.79 147.06,11.45 147.41,12.16 147.75,12.98 148.10,13.63 148.44,14.61 148.79,15.22 149.14,16.11 149.48,17.14 149.83,17.80 150.17,18.74 150.52,19.63 150.86,20.11 151.21,55.68 151.56,55.64 151.90,55.08 152.25,54.75 152.59,54.37 152.94,53.95 153.28,52.94 153.63,52.58 153.97,51.93 154.32,51.61 154.67,50.91 155.01,50.73 155.36,50.61 155.70,49.93 156.05,49.65 156.39,49.39 156.74,47.94 157.08,47.82 157.43,47.74 157.78,47.66 158.12,48.01 158.47,48.42 158.81,48.80 159.16,48.90 159.50,48.66 159.85,48.24 160.19,47.85 160.54,47.03 160.89,46.77 161.23,46.28 161.58,46.69 161.92,46.21 162.27,47.06 162.61,47.86 162.96,48.61 163.30,47.42 163.65,47.28 164.00,47.20 164.34,47.40 164.69,46.86 165.03,47.73 165.38,47.06 165.72,48.33 166.07,48.67 166.41,47.18 166.76,48.11 167.11,50.29 167.45,50.67 167.80,50.00 168.14,51.59 168.49,51.29 168.83,50.71 169.18,50.36 169.52,48.19 169.87,49.24 170.22,47.44 170.56,47.70 170.91,48.76 171.25,47.23 171.60,44.84 171.94,45.24 172.29,44.27 172.63,43.79 172.98,43.89 173.33,43.73 173.67,43.73 174.02,43.00 174.36,42.64 174.71,42.58 175.05,40.99 175.40,40.22 175.74,38.86 176.09,39.56 176.44,38.59 176.78,36.44 177.13,37.37 177.47,36.88 177.82,36.41 178.16,36.11 178.51,35.99 178.85,33.13 179.20,34.03 179.55,34.60 179.89,34.68 180.24,34.55 180.58,31.03 180.93,33.34 181.27,30.86 181.62,32.58 181.96,34.09 182.31,32.27 182.66,33.19 183.00,32.38 183.35,33.95 183.69,32.81 184.04,32.73 184.38,30.65 184.73,33.67 185.07,33.54 185.42,35.39 185.77,33.63 186.11,34.54 186.46,33.49 186.80,34.76 187.15,32.47 187.49,31.26 187.84,33.41 188.18,33.35 188.53,30.98 188.88,33.11 189.22,32.61 189.57,32.35 189.91,34.48 190.26,32.33 190.60,33.27 190.95,32.71 191.29,31.18 191.64,32.05 191.99,31.49 192.33,31.83 192.68,32.85 193.02,33.64 193.37,31.71 193.71,33.86 194.06,34.02 194.40,34.46 194.75,34.74 195.10,34.12 195.44,32.43 195.79,32.43 196.13,32.22 196.48,29.43 196.82,30.33 197.17,29.04 197.51,30.27 197.86,28.96 198.21,28.56 198.55,27.31 198.90,26.48 199.24,26.10 199.59,26.00 199.93,25.76 200.28,25.40 200.62,24.87 200.97,24.15 201.32,23.36 201.66,22.38 202.01,21.71 202.35,20.06 202.70,19.17 203.04,19.17 203.39,18.38 203.73,18.10 204.08,16.13 204.43,16.89 204.77,17.38 205.12,16.88 205.46,16.20 205.81,15.61 206.15,14.75 206.50,12.96 206.84,14.45 207.19,14.07 207.54,13.48 207.88,13.26 208.23,12.76 208.57,12.76 208.92,12.86 209.26,11.65 209.61,12.47 209.96,11.18 210.30,11.96 210.65,10.92 210.99,10.09 211.34,10.35 211.68,11.84 212.03,9.93 212.37,10.94 212.72,9.97 213.07,10.81 213.41,11.80 213.76,12.20 214.10,11.58 214.45,11.42 214.79,10.97 215.14,9.67 215.48,9.37 215.83,7.68 216.18,8.75 216.52,8.39 216.87,5.91 217.21,8.00 217.56,9.01 217.90,9.88 218.25,7.66 218.59,10.44 218.94,10.78 219.29,11.75 219.63,12.37 219.98,12.37 220.32,12.09 220.67,15.15 221.01,14.02 221.36,16.02 221.70,15.81 222.05,18.00 222.40,17.82 222.74,18.55 223.09,19.59 223.43,20.00 223.78,56.00 224.12,56.00 224.47,53.92 224.81,53.92 225.16,53.92 225.51,52.65 225.85,52.65 226.20,52.65 226.54,51.46 226.89,51.46 227.23,51.00 227.58,51.00 227.92,51.00 228.27,48.36 228.62,48.36 228.96,48.36 229.31,47.57 229.65,47.57 230.00,48.30 230.34,48.30 230.69,48.30 231.03,50.41 231.38,50.41 231.73,50.41 232.07,48.36 232.42,48.36 232.76,48.36 233.11,45.96 233.45,45.96 233.80,45.96 234.14,46.89 234.49,46.89 234.84,46.89 235.18,49.02 235.53,49.02 235.87,44.15 236.22,44.15 236.56,44.15 236.91,47.86 237.25,47.86 237.60,47.86 237.95,43.29 238.29,49.39 238.64,49.39 238.98,49.39 239.33,45.77 239.67,52.09 240.02,52.09 240.36,52.09 240.71,49.71 241.06,49.71 241.40,49.71 241.75,50.83 242.09,42.41 242.44,42.41 242.78,43.22 243.13,43.22 243.47,43.22 243.82,43.40 244.17,43.40 244.51,43.40 244.86,39.79 245.20,39.79 245.55,39.79 245.89,38.97 246.24,38.97 246.58,38.97 246.93,41.63 247.28,41.63 247.62,41.63 247.97,38.87 248.31,38.87 248.66,38.87 249.00,33.90 249.35,33.90 249.69,36.54 250.04,36.54 250.39,36.54 250.73,35.45 251.08,35.45 251.42,26.32 251.77,26.32 252.11,26.32 252.46,27.43 252.80,27.43 253.15,27.43 253.50,31.72 253.84,31.72 254.19,31.72 254.53,34.74 254.88,25.82 255.22,23.02 255.57,23.02 255.91,33.96 256.26,33.43 256.61,33.43 256.95,24.63 257.30,29.49 257.64,29.49 257.99,26.69 258.33,26.69 258.68,30.90 259.02,30.90 259.37,30.90 259.72,18.96 260.06,27.24 260.41,27.24 260.75,27.24 261.10,20.23 261.44,32.31 261.79,32.31 262.13,29.01 262.48,29.01 262.83,29.01 263.17,29.82 263.52,29.82 263.86,29.82 264.21,38.27 264.55,28.61 264.90,28.61 265.24,28.61 265.59,34.43 265.94,34.43 266.28,34.43 266.63,33.07 266.97,33.07 267.32,33.07 267.66,28.04 268.01,28.04 268.36,28.39 268.70,28.39 269.05,28.39 269.39,30.12 269.74,24.70 270.08,24.70 270.43,24.70 270.77,28.90 271.12,26.95 271.47,26.95 271.81,25.84 272.16,25.84 272.50,25.84 272.85,24.03 273.19,24.03 273.54,24.03 273.88,20.53 274.23,20.53 274.58,23.95 274.92,17.79 275.27,17.79 275.61,17.79 275.96,17.79 276.30,16.66 276.65,16.66 276.99,16.66 277.34,16.66 277.69,15.56 278.03,15.56 278.38,18.23 278.72,15.05 279.07,15.05 279.41,15.05 279.76,12.82 280.10,12.82 280.45,12.82 280.80,5.61 281.14,5.61 281.49,8.93 281.83,8.93 282.18,8.93 282.52,4.44 282.87,4.44 283.21,4.44 283.56,7.54 283.91,7.54 284.25,7.54 284.60,7.54 284.94,13.87 285.29,5.63 285.63,5.63 285.98,8.37 286.32,8.37 286.67,9.96 287.02,9.96 287.36,9.96 287.71,10.28 288.05,10.28 288.40,4.00 288.74,6.98 289.09,6.98 289.43,6.98 289.78,6.98 290.13,5.89 290.47,5.89 290.82,5.89 291.16,6.72 291.51,6.72 291.85,6.72 292.20,7.66 292.54,7.66 292.89,7.66 293.24,7.66 293.58,9.09 293.93,17.71 294.27,17.71 294.62,17.75 294.96,17.75 295.31,17.75 295.65,21.42 296.00,21.42" />
</svg>