<svg width="300" height="60" xmlns="http://www.w3.org/2000/svg">
  <polyline fill="rgba(255,200,0,0.3)" stroke="#ffbb00" stroke-width="2" points="4.00,29.63 4.41,31.18 4.82,31.50 5.23,31.60 5.63,31.66 6.04,31.84 6.45,31.38 6.86,30.89 7.27,30.40 7.68,29.96 8.08,29.51 8.49,29.17 8.90,29.03 9.31,28.80 9.72,28.40 10.13,27.73 10.53,27.29 10.94,27.03 11.35,26.48 11.76,25.91 12.17,25.32 12.58,24.49 12.98,23.69 13.39,22.85 13.80,21.89 14.21,20.71 14.62,19.83 15.03,18.69 15.43,17.35 15.84,16.03 16.25,14.78 16.66,13.92 17.07,13.21 17.48,12.57 17.89,12.38 18.29,12.15 18.70,11.80 19.11,11.45 19.52,10.35 19.93,9.48 20.34,8.70 20.74,8.02 21.15,7.59 21.56,7.49 21.97,6.90 22.38,6.57 22.79,6.35 23.19,6.22 23.60,5.74 24.01,5.18 24.42,4.50 24.83,4.16 25.24,4.58 25.64,5.08 26.05,5.85 26.46,6.83 26.87,7.57 27.28,8.21 27.69,8.73 28.10,9.18 28.50,9.35 28.91,9.27 29.32,9.51 29.73,9.61 30.14,9.87 30.55,10.24 30.95,11.02 31.36,11.58 31.77,11.34 32.18,12.03 32.59,13.00 33.00,13.89 33.40,14.56 33.81,14.80 34.22,15.63 34.63,16.55 35.04,17.09 35.45,18.07 35.85,19.15 36.26,20.20 36.67,21.65 37.08,23.04 37.49,23.96 37.90,25.05 38.30,26.01 38.71,26.98 39.12,27.98 39.53,28.87 39.94,29.82 40.35,30.61 40.76,31.16 41.16,32.05 41.57,32.63 41.98,33.05 42.39,33.67 42.80,34.69 43.21,35.87 43.61,37.08 44.02,38.19 44.43,39.38 44.84,40.54 45.25,41.46 45.66,42.35 46.06,43.20 46.47,43.84 46.88,44.38 47.29,44.76 47.70,44.92 48.11,45.45 48.51,46.41 48.92,47.66 49.33,48.18 49.74,47.37 50.15,46.73 50.56,45.98 50.97,46.11 51.37,46.70 51.78,47.64 52.19,47.51 52.60,47.48 53.01,47.63 53.42,47.93 53.82,48.89 54.23,49.83 54.64,50.75 55.05,51.70 55.46,53.02 55.87,53.98 56.27,54.53 56.68,55.30 57.09,55.70 57.50,56.00 57.91,55.69 58.32,29.61 58.72,31.17 59.13,31.52 59.54,31.59 59.95,31.67 60.36,31.79 60.77,31.37 61.17,30.90 61.58,30.38 61.99,29.96 62.40,29.54 62.81,29.22 63.22,29.02 63.63,28.78 64.03,28.38 64.44,27.72 64.85,27.30 65.26,27.09 65.67,26.51 66.08,25.91 66.48,25.35 66.89,24.41 67.30,23.70 67.71,22.90 68.12,21.94 68.53,20.78 68.93,19.84 69.34,18.61 69.75,17.39 70.16,16.10 70.57,14.84 70.98,13.87 71.38,13.22 71.79,12.62 72.20,12.37 72.61,12.16 73.02,11.87 73.43,11.46 73.83,10.52 74.24,9.56 74.65,8.62 75.06,8.04 75.47,7.55 75.88,7.51 76.29,6.82 76.69,6.55 77.10,6.29 77.51,6.31 77.92,5.71 78.33,5.32 78.74,4.50 79.14,4.06 79.55,4.55 79.96,5.20 80.37,5.83 80.78,6.88 81.19,7.54 81.59,8.19 82.00,8.72 82.41,9.22 82.82,9.29 83.23,9.34 83.64,9.47 84.04,9.53 84.45,9.80 84.86,10.27 85.27,11.02 85.68,11.53 86.09,11.39 86.50,12.03 86.90,12.90 87.31,13.80 87.72,14.37 88.13,14.86 88.54,15.75 88.95,16.48 89.35,17.12 89.76,18.06 90.17,19.25 90.58,20.32 90.99,21.64 91.40,22.95 91.80,23.94 92.21,24.98 92.62,25.92 93.03,26.92 93.44,28.08 93.85,28.89 94.25,29.87 94.66,30.61 95.07,31.19 95.48,32.07 95.89,32.63 96.30,33.04 96.70,33.65 97.11,34.74 97.52,35.90 97.93,37.08 98.34,38.19 98.75,39.33 99.16,40.44 99.56,41.45 99.97,42.35 100.38,43.14 100.79,43.86 101.20,44.34 101.61,44.72 102.01,44.93 102.42,45.51 102.83,46.47 103.24,47.62 103.65,48.18 104.06,47.44 104.46,46.74 104.87,45.98 105.28,46.13 105.69,46.69 106.10,47.67 106.51,47.46 106.91,47.52 107.32,47.62 107.73,47.90 108.14,48.85 108.55,49.75 108.96,50.69 109.37,51.74 109.77,53.00 110.18,53.98 110.59,54.50 111.00,55.26 111.41,55.71 111.82,55.98 112.22,55.70 112.63,29.64 113.04,30.86 113.45,31.51 113.86,31.61 114.27,31.68 114.67,31.63 115.08,31.38 115.49,30.89 115.90,30.34 116.31,29.96 116.72,29.28 117.12,29.12 117.53,29.00 117.94,28.93 118.35,28.39 118.76,27.71 119.17,27.44 119.57,26.93 119.98,26.44 120.39,25.91 120.80,25.16 121.21,24.50 121.62,23.56 122.03,22.88 122.43,22.06 122.84,20.82 123.25,20.01 123.66,18.80 124.07,17.38 124.48,16.27 124.88,14.83 125.29,13.91 125.70,13.06 126.11,12.82 126.52,12.19 126.93,12.10 127.33,11.93 127.74,11.49 128.15,10.40 128.56,9.22 128.97,8.52 129.38,7.86 129.78,7.43 130.19,7.22 130.60,6.97 131.01,6.30 131.42,6.28 131.83,5.83 132.23,5.43 132.64,5.34 133.05,4.22 133.46,4.00 133.87,4.69 134.28,5.19 134.69,5.98 135.09,6.88 135.50,7.62 135.91,8.13 136.32,8.64 136.73,9.19 137.14,9.63 137.54,9.66 137.95,9.87 138.36,9.46 138.77,9.92 139.18,10.48 139.59,9.46 139.99,9.92 140.40,10.47 140.81,11.15 141.22,11.79 141.63,11.72 142.04,11.99 142.44,13.03 142.85,13.91 143.26,14.23 143.67,15.23 144.08,15.76 144.49,16.50 144.90,16.87 145.30,18.12 145.71,19.13 146.12,20.18 146.53,21.27 146.94,22.92 147.35,23.54 147.75,24.94 148.16,25.65 148.57,26.93 148.98,27.64 149.39,28.74 149.80,29.72 150.20,30.60 150.61,30.86 151.02,31.91 151.43,32.48 151.84,32.98 152.25,33.57 152.65,34.50 153.06,35.75 153.47,36.83 153.88,38.08 154.29,39.06 154.70,40.42 155.10,41.28 155.51,42.25 155.92,43.13 156.33,43.83 156.74,44.18 157.15,44.68 157.56,44.98 157.96,45.18 158.37,46.29 158.78,47.67 159.19,48.12 159.60,47.47 160.01,46.82 160.41,46.19 160.82,46.22 161.23,46.47 161.64,47.53 162.05,47.48 162.46,47.37 162.86,47.59 163.27,47.59 163.68,48.57 164.09,49.55 164.50,50.65 164.91,51.60 165.31,53.02 165.72,53.77 166.13,54.27 166.54,55.17 166.95,55.67 167.36,55.98 167.77,55.67 168.17,29.82 168.58,30.49 168.99,31.41 169.40,31.63 169.81,31.52 170.22,31.64 170.62,31.30 171.03,30.74 171.44,30.17 171.85,29.54 172.26,29.15 172.67,29.15 173.07,29.02 173.48,29.06 173.89,28.34 174.30,27.60 174.71,27.49 175.12,26.60 175.52,26.25 175.93,25.75 176.34,25.13 176.75,24.34 177.16,23.52 177.57,23.04 177.97,21.88 178.38,21.13 178.79,19.67 179.20,19.08 179.61,17.37 180.02,16.59 180.43,14.90 180.83,13.50 181.24,12.95 181.65,12.72 182.06,12.16 182.47,12.50 182.88,11.17 183.28,11.19 183.69,9.46 184.10,9.74 184.51,8.47 184.92,7.45 185.33,8.18 185.73,7.08 186.14,7.58 186.55,7.06 186.96,6.66 187.37,6.26 187.78,5.05 188.18,5.30 188.59,4.62 189.00,4.18 189.41,4.23 189.82,4.66 190.23,6.02 190.63,6.77 191.04,7.54 191.45,8.32 191.86,8.00 192.27,8.85 192.68,9.62 193.09,8.66 193.49,9.37 193.90,8.43 194.31,10.18 194.72,11.30 195.13,10.92 195.54,12.04 195.94,12.04 196.35,11.49 196.76,13.36 197.17,8.85 197.58,9.62 197.99,8.66 198.39,9.37 198.80,8.43 199.21,10.18 199.62,11.30 200.03,10.92 200.44,12.04 200.84,12.04 201.25,11.49 201.66,13.36 202.07,14.66 202.48,13.64 202.89,14.29 203.30,16.25 203.70,17.25 204.11,16.75 204.52,18.53 204.93,19.32 205.34,21.18 205.75,21.61 206.15,23.82 206.56,24.32 206.97,25.62 207.38,26.32 207.79,27.01 208.20,27.75 208.60,28.59 209.01,29.49 209.42,30.68 209.83,31.32 210.24,31.98 210.65,32.55 211.05,33.12 211.46,33.74 211.87,34.47 212.28,36.14 212.69,36.89 213.10,38.60 213.50,39.06 213.91,40.41 214.32,41.45 214.73,42.30 215.14,43.02 215.55,43.86 215.96,44.51 216.36,45.19 216.77,45.57 217.18,44.98 217.59,46.23 218.00,47.49 218.41,47.98 218.81,47.53 219.22,46.76 219.63,45.91 220.04,46.10 220.45,47.21 220.86,47.09 221.26,47.50 221.67,47.41 222.08,47.62 222.49,48.24 222.90,49.20 223.31,50.11 223.71,50.81 224.12,51.58 224.53,53.15 224.94,53.73 225.35,54.23 225.76,55.23 226.17,55.73 226.57,55.94 226.98,55.33 227.39,30.06 227.80,29.65 228.21,29.65 228.62,31.48 229.02,31.04 229.43,31.04 229.84,31.04 230.25,30.06 230.66,29.57 231.07,29.57 231.47,27.35 231.88,27.35 232.29,27.35 232.70,28.67 233.11,26.89 233.52,26.89 233.92,26.89 234.33,25.37 234.74,25.37 235.15,23.50 235.56,23.50 235.97,23.50 236.37,20.60 236.78,22.10 237.19,20.60 237.60,18.15 238.01,18.15 238.42,18.15 238.83,15.81 239.23,15.81 239.64,13.81 240.05,11.29 240.46,11.29 240.87,11.03 241.28,11.03 241.68,11.03 242.09,11.03 242.50,11.54 242.91,6.38 243.32,6.38 243.73,8.41 244.13,8.41 244.54,8.41 244.95,5.87 245.36,9.59 245.77,9.59 246.18,7.38 246.58,7.38 246.99,4.95 247.40,4.95 247.81,4.95 248.22,4.50 248.63,4.50 249.03,4.50 249.44,6.30 249.85,6.30 250.26,8.84 250.67,8.84 251.08,5.17 251.49,7.05 251.89,7.05 252.30,7.05 252.71,9.35 253.12,9.35 253.53,12.52 253.94,12.52 254.34,8.77 254.75,13.29 255.16,13.29 255.57,13.29 255.98,13.29 256.39,16.43 256.79,16.43 257.20,16.43 257.61,16.43 258.02,20.11 258.43,20.11 258.84,20.11 259.24,20.11 259.65,25.77 260.06,25.77 260.47,25.77 260.88,27.34 261.29,27.34 261.70,4.96 262.10,4.96 262.51,4.96 262.92,4.51 263.33,4.51 263.74,4.51 264.15,6.30 264.55,6.30 264.96,8.84 265.37,8.84 265.78,5.17 266.19,7.05 266.60,7.05 267.00,7.05 267.41,9.35 267.82,9.35 268.23,12.52 268.64,12.52 269.05,8.77 269.45,13.29 269.86,13.29 270.27,13.29 270.68,13.29 271.09,16.44 271.50,16.44 271.90,16.44 272.31,16.44 272.72,20.11 273.13,20.11 273.54,20.11 273.95,20.11 274.36,25.76 274.76,25.76 275.17,25.76 275.58,27.33 275.99,27.33 276.40,29.39 276.81,29.39 277.21,29.39 277.62,31.34 278.03,31.34 278.44,32.66 278.85,32.66 279.26,32.66 279.66,34.65 280.07,34.65 280.48,34.65 280.89,37.03 281.30,37.03 281.71,37.03 282.11,41.22 282.52,41.22 282.93,41.22 283.34,41.22 283.75,43.29 284.16,43.29 284.57,43.29 284.97,45.20 285.38,45.20 285.79,45.20 286.20,45.09 286.61,47.63 287.02,47.63 287.42,47.63 287.83,46.78 288.24,46.78 288.65,46.78 289.06,46.02 289.47,48.02 289.87,48.02 290.28,48.02 290.69,49.02 291.10,49.02 291.51,49.02 291.92,51.51 292.32,51.51 292.73,51.51 293.14,51.51 293.55,55.23 293.96,55.23 294.37,55.23 294.77,55.81 295.18,55.81 295.59,54.95 296.00,54.94" />
</svg>