<svg width="300" height="60" xmlns="http://www.w3.org/2000/svg">
  <polyline fill="rgba(255,200,0,0.3)" stroke="#ffbb00" stroke-width="2" points="4.00,55.97 4.08,55.52 4.16,55.29 4.23,54.68 4.31,53.70 4.39,52.74 4.47,51.76 4.55,50.98 4.62,50.58 4.70,50.67 4.78,50.97 4.86,50.78 4.94,49.79 5.01,48.57 5.09,47.99 5.17,47.79 5.25,47.84 5.33,47.79 5.40,47.74 5.48,47.32 5.56,46.77 5.64,46.51 5.71,46.56 5.79,46.88 5.87,47.15 5.95,46.74 6.03,46.05 6.10,45.28 6.18,44.47 6.26,43.89 6.34,43.62 6.42,43.72 6.49,44.13 6.57,44.34 6.65,44.37 6.73,44.58 6.81,44.61 6.88,44.56 6.96,44.51 7.04,44.39 7.12,44.22 7.20,44.31 7.27,44.69 7.35,44.73 7.43,44.63 7.51,43.97 7.59,43.12 7.66,42.53 7.74,42.33 7.82,42.32 7.90,42.43 7.98,42.55 8.05,42.96 8.13,43.55 8.21,43.97 8.29,44.26 8.37,44.11 8.44,43.71 8.52,43.50 8.60,43.18 8.68,43.24 8.75,43.48 8.83,44.01 8.91,44.65 8.99,45.18 9.07,45.09 9.14,45.26 9.22,45.25 9.30,44.83 9.38,44.38 9.46,43.88 9.53,43.03 9.61,41.95 9.69,41.01 9.77,40.20 9.85,39.25 9.92,38.72 10.00,38.43 10.08,38.32 10.16,38.53 10.24,38.64 10.31,39.05 10.39,39.54 10.47,39.93 10.55,39.97 10.63,39.90 10.70,39.54 10.78,38.79 10.86,38.15 10.94,37.71 11.02,37.44 11.09,37.22 11.17,36.97 11.25,36.79 11.33,36.70 11.41,36.60 11.48,36.40 11.56,35.95 11.64,35.18 11.72,34.46 11.79,33.99 11.87,33.76 11.95,33.58 12.03,33.25 12.11,32.79 12.18,32.51 12.26,32.23 12.34,31.45 12.42,31.15 12.50,30.62 12.57,30.44 12.65,30.44 12.73,30.35 12.81,30.36 12.89,30.13 12.96,29.92 13.04,29.38 13.12,28.22 13.20,27.51 13.28,26.66 13.35,25.82 13.43,24.93 13.51,24.45 13.59,24.20 13.67,24.25 13.74,24.44 13.82,24.75 13.90,25.28 13.98,25.84 14.06,26.16 14.13,25.86 14.21,25.00 14.29,24.01 14.37,23.31 14.45,23.33 14.52,24.00 14.60,24.16 14.68,24.22 14.76,24.37 14.84,24.40 14.91,24.52 14.99,24.48 15.07,24.64 15.15,24.76 15.22,25.05 15.30,25.09 15.38,24.98 15.46,24.83 15.54,24.67 15.61,24.28 15.69,23.86 15.77,23.66 15.85,23.66 15.93,23.32 16.00,23.08 16.08,23.10 16.16,23.32 16.24,23.66 16.32,23.97 16.39,24.42 16.47,24.78 16.55,25.17 16.63,25.71 16.71,26.11 16.78,26.42 16.86,26.33 16.94,26.17 17.02,25.87 17.10,25.48 17.17,25.10 17.25,24.89 17.33,24.44 17.41,23.49 17.49,22.55 17.56,22.37 17.64,22.64 17.72,23.17 17.80,23.93 17.88,24.78 17.95,25.21 18.03,25.21 18.11,24.95 18.19,24.66 18.26,24.38 18.34,24.01 18.42,23.48 18.50,23.14 18.58,23.11 18.65,23.49 18.73,23.84 18.81,24.13 18.89,24.27 18.97,24.43 19.04,24.92 19.12,25.06 19.20,24.33 19.28,23.65 19.36,23.69 19.43,23.81 19.51,23.82 19.59,23.63 19.67,23.70 19.75,23.97 19.82,24.18 19.90,24.15 19.98,24.15 20.06,24.32 20.14,24.73 20.21,25.27 20.29,25.88 20.37,26.60 20.45,27.26 20.53,27.93 20.60,28.30 20.68,28.26 20.76,28.33 20.84,28.54 20.92,28.43 20.99,28.28 21.07,28.29 21.15,28.40 21.23,27.94 21.30,27.04 21.38,26.78 21.46,27.09 21.54,27.86 21.62,28.11 21.69,28.94 21.77,28.95 21.85,28.85 21.93,28.79 22.01,28.70 22.08,28.63 22.16,28.62 22.24,28.49 22.32,28.39 22.40,28.36 22.47,28.26 22.55,28.18 22.63,27.87 22.71,27.46 22.79,27.06 22.86,27.18 22.94,27.31 23.02,27.45 23.10,27.55 23.18,27.41 23.25,27.32 23.33,26.98 23.41,26.76 23.49,26.66 23.57,26.49 23.64,26.60 23.72,26.69 23.80,27.11 23.88,27.59 23.96,28.00 24.03,28.21 24.11,28.36 24.19,28.47 24.27,28.72 24.34,29.03 24.42,28.78 24.50,28.38 24.58,28.17 24.66,28.00 24.73,27.93 24.81,27.53 24.89,26.89 24.97,26.35 25.05,26.04 25.12,25.60 25.20,25.46 25.28,25.60 25.36,26.07 25.44,26.12 25.51,26.03 25.59,26.32 25.67,26.48 25.75,25.92 25.83,25.55 25.90,25.38 25.98,25.52 26.06,25.48 26.14,25.62 26.22,26.12 26.29,26.32 26.37,25.97 26.45,25.75 26.53,25.86 26.61,25.91 26.68,25.68 26.76,25.33 26.84,24.96 26.92,24.76 27.00,24.88 27.07,25.46 27.15,26.25 27.23,26.86 27.31,27.16 27.38,27.04 27.46,26.68 27.54,26.06 27.62,25.77 27.70,24.90 27.77,24.39 27.85,24.00 27.93,24.12 28.01,24.58 28.09,25.22 28.16,25.99 28.24,26.89 28.32,27.36 28.40,27.22 28.48,26.44 28.55,25.81 28.63,25.59 28.71,25.78 28.79,26.05 28.87,26.55 28.94,27.13 29.02,27.86 29.10,28.53 29.18,29.33 29.26,30.25 29.33,31.00 29.41,30.79 29.49,29.98 29.57,29.09 29.65,28.30 29.72,28.01 29.80,28.09 29.88,28.15 29.96,28.15 30.04,28.16 30.11,28.19 30.19,28.32 30.27,28.70 30.35,29.48 30.42,30.09 30.50,30.76 30.58,31.03 30.66,31.29 30.74,31.32 30.81,31.61 30.89,31.57 30.97,30.79 31.05,30.28 31.13,30.37 31.20,30.66 31.28,31.14 31.36,31.68 31.44,32.21 31.52,32.60 31.59,32.77 31.67,32.78 31.75,31.87 31.83,31.40 31.91,31.34 31.98,31.66 32.06,32.04 32.14,32.43 32.22,32.20 32.30,31.87 32.37,31.99 32.45,32.09 32.53,31.66 32.61,31.65 32.69,32.13 32.76,32.66 32.84,32.77 32.92,32.71 33.00,32.47 33.08,32.83 33.15,32.84 33.23,33.01 33.31,32.41 33.39,31.95 33.47,31.84 33.54,32.07 33.62,32.34 33.70,32.70 33.78,32.52 33.85,32.79 33.93,33.43 34.01,33.78 34.09,33.75 34.17,33.94 34.24,34.30 34.32,35.22 34.40,36.23 34.48,35.63 34.56,34.89 34.63,34.01 34.71,33.42 34.79,33.13 34.87,32.78 34.95,32.41 35.02,32.67 35.10,33.42 35.18,34.57 35.26,35.01 35.34,35.19 35.41,35.64 35.49,35.48 35.57,35.65 35.65,36.17 35.73,35.80 35.80,35.82 35.88,35.66 35.96,34.55 36.04,33.55 36.12,32.92 36.19,33.25 36.27,33.97 36.35,33.59 36.43,33.01 36.51,32.69 36.58,32.78 36.66,33.27 36.74,33.49 36.82,33.34 36.89,33.04 36.97,32.84 37.05,33.02 37.13,33.67 37.21,34.26 37.28,35.00 37.36,35.45 37.44,35.98 37.52,34.45 37.60,33.41 37.67,33.08 37.75,33.35 37.83,33.84 37.91,34.09 37.99,33.16 38.06,32.31 38.14,31.76 38.22,31.50 38.30,31.73 38.38,32.12 38.45,32.14 38.53,31.88 38.61,31.59 38.69,30.61 38.77,30.07 38.84,30.04 38.92,30.65 39.00,31.32 39.08,31.70 39.16,32.10 39.23,31.99 39.31,31.80 39.39,31.87 39.47,31.89 39.55,32.00 39.62,32.18 39.70,32.46 39.78,32.61 39.86,32.12 39.93,31.91 40.01,32.07 40.09,32.81 40.17,32.60 40.25,32.14 40.32,31.83 40.40,31.72 40.48,31.24 40.56,31.12 40.64,31.20 40.71,30.89 40.79,30.09 40.87,29.41 40.95,29.19 41.03,28.83 41.10,28.09 41.18,27.56 41.26,26.87 41.34,26.01 41.42,24.87 41.49,23.96 41.57,23.60 41.65,23.41 41.73,23.13 41.81,22.86 41.88,22.66 41.96,22.65 42.04,22.65 42.12,22.76 42.20,23.08 42.27,23.27 42.35,23.05 42.43,22.69 42.51,22.35 42.59,21.55 42.66,21.14 42.74,20.71 42.82,20.24 42.90,19.68 42.97,19.16 43.05,18.84 43.13,18.53 43.21,18.30 43.29,18.22 43.36,18.26 43.44,18.41 43.52,18.62 43.60,18.57 43.68,18.51 43.75,18.75 43.83,18.93 43.91,19.18 43.99,19.21 44.07,18.92 44.14,18.91 44.22,19.59 44.30,18.98 44.38,18.89 44.46,19.21 44.53,19.43 44.61,19.55 44.69,19.57 44.77,19.15 44.85,18.98 44.92,18.87 45.00,18.69 45.08,18.74 45.16,18.81 45.24,18.68 45.31,18.38 45.39,18.28 45.47,17.92 45.55,17.32 45.63,17.25 45.70,17.33 45.78,17.43 45.86,17.63 45.94,17.69 46.01,17.93 46.09,18.27 46.17,18.56 46.25,18.81 46.33,18.84 46.40,18.52 46.48,18.33 46.56,18.49 46.64,18.67 46.72,18.74 46.79,18.82 46.87,18.46 46.95,17.84 47.03,17.23 47.11,16.77 47.18,16.79 47.26,16.82 47.34,16.76 47.42,16.70 47.50,16.67 47.57,16.64 47.65,16.69 47.73,16.70 47.81,16.74 47.89,16.76 47.96,16.83 48.04,16.81 48.12,16.93 48.20,17.10 48.28,17.23 48.35,17.41 48.43,17.66 48.51,17.08 48.59,16.27 48.67,15.91 48.74,15.92 48.82,16.16 48.90,16.29 48.98,16.49 49.05,16.59 49.13,16.69 49.21,16.73 49.29,16.76 49.37,16.61 49.44,16.38 49.52,16.19 49.60,16.07 49.68,15.88 49.76,15.60 49.83,15.60 49.91,15.87 49.99,16.45 50.07,16.82 50.15,16.57 50.22,15.61 50.30,14.47 50.38,13.77 50.46,13.50 50.54,13.37 50.61,13.57 50.69,13.87 50.77,14.23 50.85,14.54 50.93,14.82 51.00,14.91 51.08,15.21 51.16,15.55 51.24,15.72 51.32,15.92 51.39,16.22 51.47,16.31 51.55,16.32 51.63,16.22 51.71,16.16 51.78,16.07 51.86,16.10 51.94,16.15 52.02,16.60 52.10,16.73 52.17,16.78 52.25,16.92 52.33,16.85 52.41,16.78 52.48,16.82 52.56,17.01 52.64,17.74 52.72,18.15 52.80,18.41 52.87,18.08 52.95,17.56 53.03,16.95 53.11,16.93 53.19,16.86 53.26,17.02 53.34,17.10 53.42,17.56 53.50,18.14 53.58,18.90 53.65,18.80 53.73,18.40 53.81,18.34 53.89,18.57 53.97,18.15 54.04,18.27 54.12,18.75 54.20,18.44 54.28,18.22 54.36,18.05 54.43,17.53 54.51,17.13 54.59,16.82 54.67,16.77 54.75,16.73 54.82,16.69 54.90,16.72 54.98,16.92 55.06,16.90 55.14,16.98 55.21,16.88 55.29,16.79 55.37,16.71 55.45,16.60 55.52,16.10 55.60,15.67 55.68,15.54 55.76,15.52 55.84,15.87 55.91,16.35 55.99,16.88 56.07,17.52 56.15,18.04 56.23,17.85 56.30,17.64 56.38,17.78 56.46,18.06 56.54,18.87 56.62,19.72 56.69,19.24 56.77,18.66 56.85,18.56 56.93,18.44 57.01,18.38 57.08,18.53 57.16,18.68 57.24,18.71 57.32,18.49 57.40,18.29 57.47,18.09 57.55,16.94 57.63,16.53 57.71,15.79 57.79,15.10 57.86,14.71 57.94,14.56 58.02,14.80 58.10,15.25 58.18,15.86 58.25,16.35 58.33,17.12 58.41,17.56 58.49,17.63 58.56,17.72 58.64,17.78 58.72,17.78 58.80,17.69 58.88,17.58 58.95,17.53 59.03,17.26 59.11,17.53 59.19,17.50 59.27,16.96 59.34,16.72 59.42,16.45 59.50,16.36 59.58,16.17 59.66,15.64 59.73,15.41 59.81,15.14 59.89,14.69 59.97,14.16 60.05,13.93 60.12,13.26 60.20,12.67 60.28,12.71 60.36,13.12 60.44,13.67 60.51,14.50 60.59,15.22 60.67,15.67 60.75,16.16 60.83,16.42 60.90,17.06 60.98,17.12 61.06,17.07 61.14,16.79 61.22,15.78 61.29,15.53 61.37,15.64 61.45,15.75 61.53,15.68 61.60,15.79 61.68,16.15 61.76,16.62 61.84,16.94 61.92,17.27 61.99,17.28 62.07,17.07 62.15,16.78 62.23,16.56 62.31,16.58 62.38,16.78 62.46,17.35 62.54,18.08 62.62,18.86 62.70,19.67 62.77,20.46 62.85,21.49 62.93,22.30 63.01,22.92 63.09,23.50 63.16,24.30 63.24,25.39 63.32,26.51 63.40,27.69 63.48,28.30 63.55,27.83 63.63,27.29 63.71,26.46 63.79,25.95 63.87,25.92 63.94,26.33 64.02,26.64 64.10,26.87 64.18,26.78 64.26,26.07 64.33,25.16 64.41,24.30 64.49,23.75 64.57,23.62 64.64,23.18 64.72,22.46 64.80,22.28 64.88,22.38 64.96,22.61 65.03,22.76 65.11,22.99 65.19,23.34 65.27,23.52 65.35,23.84 65.42,24.18 65.50,25.00 65.58,25.70 65.66,25.34 65.74,25.04 65.81,24.78 65.89,24.86 65.97,24.93 66.05,25.18 66.13,25.08 66.20,24.90 66.28,24.55 66.36,24.33 66.44,23.82 66.52,23.70 66.59,23.55 66.67,23.78 66.75,24.16 66.83,24.37 66.91,24.00 66.98,23.51 67.06,22.91 67.14,22.06 67.22,21.20 67.30,20.25 67.37,19.32 67.45,18.60 67.53,18.07 67.61,17.87 67.68,18.31 67.76,19.06 67.84,20.08 67.92,20.82 68.00,21.60 68.07,22.11 68.15,22.77 68.23,23.43 68.31,24.11 68.39,24.73 68.46,25.36 68.54,25.64 68.62,25.73 68.70,26.16 68.78,26.45 68.85,26.83 68.93,26.77 69.01,26.09 69.09,24.91 69.17,23.69 69.24,22.49 69.32,21.54 69.40,21.45 69.48,22.10 69.56,23.13 69.63,24.31 69.71,25.56 69.79,26.83 69.87,28.11 69.95,28.51 70.02,29.23 70.10,29.73 70.18,29.29 70.26,29.37 70.34,29.82 70.41,30.52 70.49,31.41 70.57,31.83 70.65,32.00 70.73,31.89 70.80,31.40 70.88,30.85 70.96,30.00 71.04,29.24 71.11,28.17 71.19,26.77 71.27,25.60 71.35,24.62 71.43,23.93 71.50,23.63 71.58,23.47 71.66,23.48 71.74,23.58 71.82,23.66 71.89,23.37 71.97,22.90 72.05,22.25 72.13,21.69 72.21,21.05 72.28,20.36 72.36,19.82 72.44,19.33 72.52,18.85 72.60,18.69 72.67,18.61 72.75,18.69 72.83,18.86 72.91,19.28 72.99,19.60 73.06,19.93 73.14,20.39 73.22,21.13 73.30,22.19 73.38,22.93 73.45,22.94 73.53,22.58 73.61,22.37 73.69,22.68 73.77,23.18 73.84,23.14 73.92,22.70 74.00,22.38 74.08,21.81 74.15,21.26 74.23,20.78 74.31,20.41 74.39,20.15 74.47,20.19 74.54,20.54 74.62,21.18 74.70,21.38 74.78,21.37 74.86,21.25 74.93,21.16 75.01,21.09 75.09,21.47 75.17,21.81 75.25,21.58 75.32,21.54 75.40,22.00 75.48,22.04 75.56,22.31 75.64,22.77 75.71,21.56 75.79,21.12 75.87,19.58 75.95,19.45 76.03,20.07 76.10,20.83 76.18,21.40 76.26,20.93 76.34,20.64 76.42,20.69 76.49,21.28 76.57,22.47 76.65,23.47 76.73,24.37 76.81,24.63 76.88,25.05 76.96,25.62 77.04,24.71 77.12,23.66 77.19,22.90 77.27,21.47 77.35,20.21 77.43,18.97 77.51,18.15 77.58,17.69 77.66,17.84 77.74,18.25 77.82,18.85 77.90,19.91 77.97,21.16 78.05,22.18 78.13,23.10 78.21,24.02 78.29,24.80 78.36,25.17 78.44,25.62 78.52,26.01 78.60,25.62 78.68,24.82 78.75,23.91 78.83,22.81 78.91,21.53 78.99,20.33 79.07,19.06 79.14,18.64 79.22,17.36 79.30,16.70 79.38,16.13 79.46,15.86 79.53,16.20 79.61,16.42 79.69,16.12 79.77,15.76 79.85,15.66 79.92,15.58 80.00,15.21 80.08,14.73 80.16,14.46 80.23,14.60 80.31,14.89 80.39,15.03 80.47,15.53 80.55,16.47 80.62,17.17 80.70,18.10 80.78,19.00 80.86,19.52 80.94,19.72 81.01,19.93 81.09,19.84 81.17,19.90 81.25,19.95 81.33,19.96 81.40,19.36 81.48,18.91 81.56,18.71 81.64,18.34 81.72,17.98 81.79,17.40 81.87,16.67 81.95,15.90 82.03,15.13 82.11,14.38 82.18,13.59 82.26,13.04 82.34,12.95 82.42,13.12 82.50,13.44 82.57,13.81 82.65,14.34 82.73,14.80 82.81,14.85 82.89,14.82 82.96,14.76 83.04,14.44 83.12,13.34 83.20,11.99 83.27,10.59 83.35,9.23 83.43,8.22 83.51,7.65 83.59,7.52 83.66,7.64 83.74,7.97 83.82,8.25 83.90,8.67 83.98,9.21 84.05,9.99 84.13,10.83 84.21,11.28 84.29,11.20 84.37,11.00 84.44,10.49 84.52,10.03 84.60,9.95 84.68,10.44 84.76,10.64 84.83,10.53 84.91,10.68 84.99,11.40 85.07,12.17 85.15,12.47 85.22,12.61 85.30,12.80 85.38,12.71 85.46,12.34 85.54,11.76 85.61,11.31 85.69,10.88 85.77,10.95 85.85,11.12 85.93,11.89 86.00,12.49 86.08,12.16 86.16,12.05 86.24,11.64 86.32,11.59 86.39,11.59 86.47,11.30 86.55,10.70 86.63,10.14 86.70,10.01 86.78,9.89 86.86,9.82 86.94,9.98 87.02,10.34 87.09,10.74 87.17,11.09 87.25,11.19 87.33,11.55 87.41,11.89 87.48,12.28 87.56,12.50 87.64,12.91 87.72,13.22 87.80,13.55 87.87,13.71 87.95,13.41 88.03,12.41 88.11,11.01 88.19,9.74 88.26,8.21 88.34,6.70 88.42,5.83 88.50,5.23 88.58,4.82 88.65,4.75 88.73,5.24 88.81,6.17 88.89,7.12 88.97,8.31 89.04,9.37 89.12,10.41 89.20,11.08 89.28,11.29 89.36,11.13 89.43,11.61 89.51,11.94 89.59,11.41 89.67,10.99 89.74,10.60 89.82,10.49 89.90,10.65 89.98,10.30 90.06,9.83 90.13,9.44 90.21,8.90 90.29,8.42 90.37,8.48 90.45,8.48 90.52,8.36 90.60,8.48 90.68,8.54 90.76,8.56 90.84,8.62 90.91,8.98 90.99,9.19 91.07,9.45 91.15,9.54 91.23,9.71 91.30,9.80 91.38,9.80 91.46,9.88 91.54,10.02 91.62,10.14 91.69,10.42 91.77,11.02 91.85,11.76 91.93,12.36 92.01,12.89 92.08,13.31 92.16,13.67 92.24,13.90 92.32,13.02 92.40,11.84 92.47,10.34 92.55,9.34 92.63,8.56 92.71,7.41 92.78,6.67 92.86,5.99 92.94,5.49 93.02,5.02 93.10,5.03 93.17,5.13 93.25,5.49 93.33,6.02 93.41,6.57 93.49,7.26 93.56,8.08 93.64,8.86 93.72,9.57 93.80,10.50 93.88,11.34 93.95,12.11 94.03,12.94 94.11,12.54 94.19,11.98 94.27,11.51 94.34,11.50 94.42,11.32 94.50,11.21 94.58,10.96 94.66,10.82 94.73,10.05 94.81,9.00 94.89,8.06 94.97,7.04 95.05,5.86 95.12,5.06 95.20,4.38 95.28,4.00 95.36,4.19 95.44,4.62 95.51,5.35 95.59,6.21 95.67,6.90 95.75,7.30 95.82,7.24 95.90,6.79 95.98,6.29 96.06,6.24 96.14,6.64 96.21,7.20 96.29,7.92 96.37,8.12 96.45,7.90 96.53,7.86 96.60,7.66 96.68,7.31 96.76,6.69 96.84,6.07 96.92,5.52 96.99,5.11 97.07,4.79 97.15,4.49 97.23,4.44 97.31,4.47 97.38,4.46 97.46,4.61 97.54,4.80 97.62,4.96 97.70,5.35 97.77,5.87 97.85,6.54 97.93,7.41 98.01,8.07 98.09,8.66 98.16,8.71 98.24,7.97 98.32,7.25 98.40,6.47 98.48,5.83 98.55,5.33 98.63,5.01 98.71,4.65 98.79,4.49 98.86,4.31 98.94,4.39 99.02,4.70 99.10,4.98 99.18,5.22 99.25,5.80 99.33,6.35 99.41,6.85 99.49,7.46 99.57,7.93 99.64,8.46 99.72,8.86 99.80,9.21 99.88,9.46 99.96,10.00 100.03,10.44 100.11,11.19 100.19,11.88 100.27,12.40 100.35,12.71 100.42,13.04 100.50,12.87 100.58,12.30 100.66,11.77 100.74,11.77 100.81,11.76 100.89,12.13 100.97,12.58 101.05,13.12 101.13,13.49 101.20,13.70 101.28,13.78 101.36,55.95 101.44,55.65 101.52,55.35 101.59,54.23 101.67,53.36 101.75,52.62 101.83,51.70 101.90,50.79 101.98,50.51 102.06,50.78 102.14,50.01 102.22,51.04 102.29,50.14 102.37,48.33 102.45,48.02 102.53,48.00 102.61,48.19 102.68,48.46 102.76,47.57 102.84,47.75 102.92,46.80 103.00,46.44 103.07,47.31 103.15,46.91 103.23,47.95 103.31,47.15 103.39,46.07 103.46,45.71 103.54,44.78 103.62,44.01 103.70,43.42 103.78,44.03 103.85,43.93 103.93,44.76 104.01,44.37 104.09,44.66 104.17,44.83 104.24,44.67 104.32,44.67 104.40,44.41 104.48,44.36 104.56,44.79 104.63,44.79 104.71,44.51 104.79,44.90 104.87,44.14 104.95,43.29 105.02,42.48 105.10,42.34 105.18,42.57 105.26,42.57 105.33,42.92 105.41,42.83 105.49,43.70 105.57,44.18 105.65,44.22 105.72,44.31 105.80,43.45 105.88,43.89 105.96,43.47 106.04,43.15 106.11,43.83 106.19,44.27 106.27,44.92 106.35,45.40 106.43,45.36 106.50,45.47 106.58,45.32 106.66,44.87 106.74,44.38 106.82,43.71 106.89,42.71 106.97,42.58 107.05,41.47 107.13,40.29 107.21,39.35 107.28,38.52 107.36,38.93 107.44,38.97 107.52,38.53 107.60,39.13 107.67,39.06 107.75,39.12 107.83,40.25 107.91,40.14 107.99,39.92 108.06,39.35 108.14,38.59 108.22,37.91 108.30,37.39 108.37,37.72 108.45,37.45 108.53,37.19 108.61,37.02 108.69,37.02 108.76,36.96 108.84,36.83 108.92,36.43 109.00,35.71 109.08,34.93 109.15,34.28 109.23,33.73 109.31,33.66 109.39,33.04 109.47,33.09 109.54,32.21 109.62,32.07 109.70,31.65 109.78,31.16 109.86,29.75 109.93,30.57 110.01,30.25 110.09,30.47 110.17,29.92 110.25,30.40 110.32,29.54 110.40,29.11 110.48,28.55 110.56,27.33 110.64,26.25 110.71,25.88 110.79,24.93 110.87,24.86 110.95,24.31 111.03,24.69 111.10,24.62 111.18,24.98 111.26,25.39 111.34,25.85 111.41,26.19 111.49,26.20 111.57,24.97 111.65,23.66 111.73,23.59 111.80,23.75 111.88,23.92 111.96,24.10 112.04,24.37 112.12,24.55 112.19,24.65 112.27,24.75 112.35,24.09 112.43,24.45 112.51,24.45 112.58,24.98 112.66,24.63 112.74,25.22 112.82,25.32 112.90,24.78 112.97,23.75 113.05,23.29 113.13,23.87 113.21,23.21 113.29,23.07 113.36,23.64 113.44,23.04 113.52,23.42 113.60,24.01 113.68,23.86 113.75,24.60 113.83,24.71 113.91,25.54 113.99,25.91 114.07,26.39 114.14,26.53 114.22,26.23 114.30,26.53 114.38,26.07 114.45,25.56 114.53,25.02 114.61,24.83 114.69,24.06 114.77,23.69 114.84,22.03 114.92,22.65 115.00,22.55 115.08,23.62 115.16,23.86 115.23,25.25 115.31,25.29 115.39,25.24 115.47,25.10 115.55,24.97 115.62,24.07 115.70,24.13 115.78,23.39 115.86,23.39 115.94,23.24 116.01,23.46 116.09,23.94 116.17,23.96 116.25,24.50 116.33,24.79 116.40,24.53 116.48,24.92 116.56,24.03 116.64,24.03 116.72,23.70 116.79,24.36 116.87,23.77 116.95,23.57 117.03,24.17 117.11,24.28 117.18,24.34 117.26,24.21 117.34,24.21 117.42,24.43 117.49,25.00 117.57,25.29 117.65,26.34 117.73,26.99 117.81,26.99 117.88,27.26 117.96,28.11 118.04,28.30 118.12,28.61 118.20,28.30 118.27,28.37 118.35,28.37 118.43,28.19 118.51,28.36 118.59,28.14 118.66,27.46 118.74,27.02 118.82,27.58 118.90,28.03 118.98,28.32 119.05,28.76 119.13,28.74 119.21,29.16 119.29,29.02 119.37,28.81 119.44,28.81 119.52,28.58 119.60,28.74 119.68,28.39 119.76,28.31 119.83,28.47 119.91,28.20 119.99,28.06 120.07,27.48 120.15,27.24 120.22,27.06 120.30,26.99 120.38,27.30 120.46,27.61 120.53,26.89 120.61,26.85 120.69,26.69 120.77,26.57 120.85,26.55 120.92,26.63 121.00,26.88 121.08,26.77 121.16,27.43 121.24,27.89 121.31,27.89 121.39,28.41 121.47,28.85 121.55,28.62 121.63,28.68 121.70,28.89 121.78,28.72 121.86,28.64 121.94,28.57 122.02,28.45 122.09,28.37 122.17,27.37 122.25,27.30 122.33,26.08 122.41,25.49 122.48,25.24 122.56,25.13 122.64,26.33 122.72,26.06 122.80,26.62 122.87,26.12 122.95,25.83 123.03,27.03 123.11,25.93 123.19,25.62 123.26,25.45 123.34,25.48 123.42,25.71 123.50,26.05 123.58,25.68 123.65,26.54 123.73,26.71 123.81,25.74 123.89,25.84 123.96,25.56 124.04,25.62 124.12,24.85 124.20,24.94 124.28,24.65 124.35,25.14 124.43,25.51 124.51,26.07 124.59,26.96 124.67,27.70 124.74,27.40 124.82,26.94 124.90,26.31 124.98,25.62 125.06,24.63 125.13,24.18 125.21,24.52 125.29,24.48 125.37,24.73 125.45,25.22 125.52,25.87 125.60,26.57 125.68,27.27 125.76,26.91 125.84,26.34 125.91,25.91 125.99,25.75 126.07,25.85 126.15,26.41 126.23,26.75 126.30,27.06 126.38,28.11 126.46,28.32 126.54,29.48 126.62,30.42 126.69,30.74 126.77,30.39 126.85,29.61 126.93,28.63 127.00,28.59 127.08,27.79 127.16,27.85 127.24,27.95 127.32,27.95 127.39,28.03 127.47,28.15 127.55,28.32 127.63,28.81 127.71,29.31 127.78,29.98 127.86,30.79 127.94,31.09 128.02,31.36 128.10,31.54 128.17,32.16 128.25,31.14 128.33,30.70 128.41,30.40 128.49,30.44 128.56,30.70 128.64,31.06 128.72,31.70 128.80,32.24 128.88,32.51 128.95,32.59 129.03,32.77 129.11,31.65 129.19,31.17 129.27,31.73 129.34,31.56 129.42,32.50 129.50,32.40 129.58,32.01 129.66,31.89 129.73,32.04 129.81,32.14 129.89,31.99 129.97,31.51 130.04,32.51 130.12,32.44 130.20,33.00 130.28,32.78 130.36,32.82 130.43,33.34 130.51,32.45 130.59,32.82 130.67,32.79 130.75,32.14 130.82,32.15 130.90,32.57 130.98,32.47 131.06,32.56 131.14,32.94 131.21,32.53 131.29,33.31 131.37,34.29 131.45,33.81 131.53,34.20 131.60,34.78 131.68,34.78 131.76,35.49 131.84,36.26 131.92,34.75 131.99,33.71 132.07,33.71 132.15,33.11 132.23,32.96 132.31,32.05 132.38,32.13 132.46,33.15 132.54,34.05 132.62,34.53 132.70,35.52 132.77,35.47 132.85,35.66 132.93,35.47 133.01,36.40 133.08,35.90 133.16,35.82 133.24,35.48 133.32,34.21 133.40,34.21 133.47,33.28 133.55,32.87 133.63,33.70 133.71,33.81 133.79,32.91 133.86,32.90 133.94,32.45 134.02,33.12 134.10,33.75 134.18,33.17 134.25,33.53 134.33,32.89 134.41,32.97 134.49,33.59 134.57,34.34 134.64,35.05 134.72,35.53 134.80,35.80 134.88,35.12 134.96,33.90 135.03,33.12 135.11,33.60 135.19,33.50 135.27,33.75 135.35,33.75 135.42,32.47 135.50,31.95 135.58,31.55 135.66,32.27 135.74,32.32 135.81,32.05 135.89,32.24 135.97,31.08 136.05,31.50 136.12,30.65 136.20,29.96 136.28,30.72 136.36,32.00 136.44,32.26 136.51,32.39 136.59,32.35 136.67,32.32 136.75,32.39 136.83,32.57 136.90,31.63 136.98,32.03 137.06,32.14 137.14,32.98 137.22,31.72 137.29,31.70 137.37,31.82 137.45,32.06 137.53,32.66 137.61,32.49 137.68,31.86 137.76,31.74 137.84,31.19 137.92,30.83 138.00,30.69 138.07,30.48 138.15,30.03 138.23,29.51 138.31,28.88 138.39,28.51 138.46,27.99 138.54,27.73 138.62,27.01 138.70,25.96 138.78,25.15 138.85,24.55 138.93,23.45 139.01,23.54 139.09,23.09 139.16,22.42 139.24,22.63 139.32,22.38 139.40,22.25 139.48,23.11 139.55,23.00 139.63,23.25 139.71,23.06 139.79,22.76 139.87,21.96 139.94,22.15 140.02,21.27 140.10,20.45 140.18,20.28 140.26,20.12 140.33,19.01 140.41,18.99 140.49,19.00 140.57,18.30 140.65,18.52 140.72,18.24 140.80,18.28 140.88,18.60 140.96,19.01 141.04,18.51 141.11,18.55 141.19,19.34 141.27,19.13 141.35,19.61 141.43,18.93 141.50,18.93 141.58,19.27 141.66,19.23 141.74,18.66 141.82,19.06 141.89,19.54 141.97,19.57 142.05,19.24 142.13,19.45 142.21,19.04 142.28,18.77 142.36,18.77 142.44,18.73 142.52,18.88 142.59,18.92 142.67,18.77 142.75,18.43 142.83,17.96 142.91,17.61 142.98,17.05 143.06,17.33 143.14,17.58 143.22,17.81 143.30,18.04 143.37,17.88 143.45,18.30 143.53,18.48 143.61,18.73 143.69,19.04 143.76,18.39 143.84,18.39 143.92,18.25 144.00,18.89 144.08,18.83 144.15,18.74 144.23,18.60 144.31,17.87 144.39,17.24 144.47,17.24 144.54,17.05 144.62,16.79 144.70,17.26 144.78,16.91 144.86,17.36 144.93,16.99 145.01,16.33 145.09,16.79 145.17,16.62 145.25,17.03 145.32,16.91 145.40,16.86 145.48,17.42 145.56,17.59 145.63,17.07 145.71,17.60 145.79,17.48 145.87,16.80 145.95,16.30 146.02,16.17 146.10,15.97 146.18,16.29 146.26,16.54 146.34,16.51 146.41,16.42 146.49,16.99 146.57,17.04 146.65,17.07 146.73,17.07 146.80,16.23 146.88,16.22 146.96,16.18 147.04,15.82 147.12,15.82 147.19,15.95 147.27,16.31 147.35,16.85 147.43,16.85 147.51,16.99 147.58,15.90 147.66,14.65 147.74,14.02 147.82,13.45 147.90,13.80 147.97,14.12 148.05,13.74 148.13,14.19 148.21,14.64 148.29,14.86 148.36,14.86 148.44,15.09 148.52,15.37 148.60,15.59 148.67,15.85 148.75,16.07 148.83,16.15 148.91,16.15 148.99,16.13 149.06,16.09 149.14,16.09 149.22,16.14 149.30,16.14 149.38,16.71 149.45,16.60 149.53,16.92 149.61,17.08 149.69,16.83 149.77,16.83 149.84,16.67 149.92,16.99 150.00,17.01 150.08,17.79 150.16,18.63 150.23,18.17 150.31,17.49 150.39,16.42 150.47,16.80 150.55,16.20 150.62,16.70 150.70,17.24 150.78,17.66 150.86,18.72 150.94,18.76 151.01,18.51 151.09,18.32 151.17,18.36 151.25,18.45 151.33,18.50 151.40,18.79 151.48,19.13 151.56,17.61 151.64,17.45 151.71,17.08 151.79,16.67 151.87,17.21 151.95,16.61 152.03,17.01 152.10,16.42 152.18,16.91 152.26,16.51 152.34,17.31 152.42,16.89 152.49,16.42 152.57,17.01 152.65,16.44 152.73,16.70 152.81,15.88 152.88,15.85 152.96,15.46 153.04,16.06 153.12,15.11 153.20,15.71 153.27,15.79 153.35,16.62 153.43,17.35 153.51,17.33 153.59,17.54 153.66,18.01 153.74,17.67 153.82,18.65 153.90,19.12 153.98,19.76 154.05,19.41 154.13,18.72 154.21,17.90 154.29,18.25 154.37,18.63 154.44,17.84 154.52,18.19 154.60,19.24 154.68,18.21 154.75,18.11 154.83,17.44 154.91,17.45 154.99,16.23 155.07,14.92 155.14,15.09 155.22,14.21 155.30,14.58 155.38,14.59 155.46,15.49 155.53,15.30 155.61,16.46 155.69,16.41 155.77,17.68 155.85,17.32 155.92,16.88 156.00,17.54 156.08,17.91 156.16,17.28 156.24,17.46 156.31,16.62 156.39,16.79 156.47,17.19 156.55,16.34 156.63,17.15 156.70,16.88 156.78,16.02 156.86,15.93 156.94,15.73 157.02,15.38 157.09,15.38 157.17,14.97 157.25,14.29 157.33,14.56 157.41,13.26 157.48,13.26 157.56,12.87 157.64,12.38 157.72,13.14 157.79,13.88 157.87,14.91 157.95,14.91 158.03,15.27 158.11,15.96 158.18,15.78 158.26,16.70 158.34,16.47 158.42,16.95 158.50,15.78 158.57,15.53 158.65,15.23 158.73,15.23 158.81,15.61 158.89,15.50 158.96,16.13 159.04,16.20 159.12,16.49 159.20,17.20 159.28,17.36 159.35,16.71 159.43,17.21 159.51,16.97 159.59,16.46 159.67,16.63 159.74,16.88 159.82,17.49 159.90,18.26 159.98,19.11 160.06,19.19 160.13,20.31 160.21,21.58 160.29,21.77 160.37,23.13 160.45,23.62 160.52,24.26 160.60,24.89 160.68,26.53 160.76,27.60 160.84,28.15 160.91,27.36 160.99,27.36 161.07,26.45 161.15,26.10 161.22,25.57 161.30,26.43 161.38,26.21 161.46,26.78 161.54,26.14 161.61,25.45 161.69,25.35 161.77,23.85 161.85,23.72 161.93,23.73 162.00,23.05 162.08,22.12 162.16,23.00 162.24,22.49 162.32,22.34 162.39,22.54 162.47,22.22 162.55,23.02 162.63,23.11 162.71,24.06 162.78,23.55 162.86,24.76 162.94,25.39 163.02,24.83 163.10,24.83 163.17,24.04 163.25,24.38 163.33,24.60 163.41,24.65 163.49,24.52 163.56,25.18 163.64,24.31 163.72,24.34 163.80,23.39 163.88,24.13 163.95,23.80 164.03,23.53 164.11,24.13 164.19,24.59 164.26,23.56 164.34,23.50 164.42,23.37 164.50,22.13 164.58,20.94 164.65,19.94 164.73,19.85 164.81,19.00 164.89,18.45 164.97,18.02 165.04,18.13 165.12,18.81 165.20,19.81 165.28,20.68 165.36,21.74 165.43,22.46 165.51,22.30 165.59,23.33 165.67,24.33 165.75,24.31 165.82,25.44 165.90,25.28 165.98,26.03 166.06,26.01 166.14,26.16 166.21,26.98 166.29,26.54 166.37,25.86 166.45,24.60 166.53,23.59 166.60,22.21 166.68,21.47 166.76,21.59 166.84,21.85 166.92,23.35 166.99,25.04 167.07,25.72 167.15,27.41 167.23,27.53 167.30,28.79 167.38,28.67 167.46,29.31 167.54,28.63 167.62,29.52 167.69,29.47 167.77,30.97 167.85,30.92 167.93,31.91 168.01,31.41 168.08,31.67 168.16,30.77 168.24,29.89 168.32,30.38 168.40,28.77 168.47,28.09 168.55,26.39 168.63,25.68 168.71,24.92 168.79,24.08 168.86,23.84 168.94,23.75 169.02,23.86 169.10,24.15 169.18,23.58 169.25,23.87 169.33,23.01 169.41,22.16 169.49,22.16 169.57,21.39 169.64,20.69 169.72,19.80 169.80,19.24 169.88,18.80 169.96,19.21 170.03,18.49 170.11,18.96 170.19,18.87 170.27,19.57 170.34,19.60 170.42,20.33 170.50,20.62 170.58,21.85 170.66,23.16 170.73,22.54 170.81,23.20 170.89,22.31 170.97,22.47 171.05,23.01 171.12,22.83 171.20,23.10 171.28,23.00 171.36,22.80 171.44,21.40 171.51,21.05 171.59,20.75 171.67,20.47 171.75,20.41 171.83,20.62 171.90,21.17 171.98,21.52 172.06,21.52 172.14,21.35 172.22,21.01 172.29,20.80 172.37,20.80 172.45,21.91 172.53,22.06 172.61,21.76 172.68,21.47 172.76,22.49 172.84,22.25 172.92,22.00 173.00,22.47 173.07,21.31 173.15,20.13 173.23,20.41 173.31,20.10 173.38,19.68 173.46,20.78 173.54,21.25 173.62,20.37 173.70,20.59 173.77,20.96 173.85,20.97 173.93,22.09 174.01,24.22 174.09,23.92 174.16,24.43 174.24,25.10 174.32,25.55 174.40,25.09 174.48,23.45 174.55,22.54 174.63,21.36 174.71,20.17 174.79,19.05 174.87,18.06 174.94,16.81 175.02,17.86 175.10,17.82 175.18,19.35 175.26,19.62 175.33,21.43 175.41,21.63 175.49,22.86 175.57,24.24 175.65,24.22 175.72,24.84 175.80,25.36 175.88,26.30 175.96,25.40 176.04,24.51 176.11,23.20 176.19,23.02 176.27,21.80 176.35,20.30 176.42,19.10 176.50,17.98 176.58,17.06 176.66,16.16 176.74,16.04 176.81,15.76 176.89,15.87 176.97,15.93 177.05,15.71 177.13,15.24 177.20,15.15 177.28,15.05 177.36,14.92 177.44,14.96 177.52,14.01 177.59,14.53 177.67,14.42 177.75,15.22 177.83,15.88 177.91,16.79 177.98,18.09 178.06,17.66 178.14,18.55 178.22,19.43 178.30,19.39 178.37,19.88 178.45,19.31 178.53,19.37 178.61,19.40 178.69,19.28 178.76,19.77 178.84,19.19 178.92,18.74 179.00,17.75 179.08,17.10 179.15,17.57 179.23,16.88 179.31,16.14 179.39,15.37 179.47,13.96 179.54,13.35 179.62,12.99 179.70,12.95 179.78,13.09 179.85,13.71 179.93,14.16 180.01,14.77 180.09,14.17 180.17,14.46 180.24,14.78 180.32,15.11 180.40,14.03 180.48,13.19 180.56,11.95 180.63,10.07 180.71,9.41 180.79,8.11 180.87,7.73 180.95,7.56 181.02,7.95 181.10,8.07 181.18,8.07 181.26,8.32 181.34,9.10 181.41,9.82 181.49,10.75 181.57,11.42 181.65,10.96 181.73,11.01 181.80,10.08 181.88,10.11 181.96,9.51 182.04,10.11 182.12,10.11 182.19,10.56 182.27,10.60 182.35,11.60 182.43,12.46 182.51,12.29 182.58,12.81 182.66,13.11 182.74,12.24 182.82,12.05 182.89,12.05 182.97,10.66 183.05,10.57 183.13,10.80 183.21,11.33 183.28,11.28 183.36,11.88 183.44,11.90 183.52,11.82 183.60,11.72 183.67,11.60 183.75,11.52 183.83,11.13 183.91,10.49 183.99,9.97 184.06,9.67 184.14,9.46 184.22,9.24 184.30,10.30 184.38,10.26 184.45,10.20 184.53,11.32 184.61,11.09 184.69,11.09 184.77,12.25 184.84,11.99 184.92,11.65 185.00,12.79 185.08,12.56 185.16,13.77 185.23,13.18 185.31,12.42 185.39,11.71 185.47,11.71 185.55,9.92 185.62,8.07 185.70,7.00 185.78,6.15 185.86,5.60 185.93,4.86 186.01,4.98 186.09,5.48 186.17,6.33 186.25,7.22 186.32,8.54 186.40,9.92 186.48,9.92 186.56,10.96 186.64,11.32 186.71,11.63 186.79,11.79 186.87,11.46 186.95,12.07 187.03,11.24 187.10,11.10 187.18,10.45 187.26,10.53 187.34,10.05 187.42,10.11 187.49,9.12 187.57,9.05 187.65,9.13 187.73,8.22 187.81,8.42 187.88,8.53 187.96,8.79 188.04,8.84 188.12,8.89 188.20,8.08 188.27,8.42 188.35,8.69 188.43,9.03 188.51,9.16 188.59,9.32 188.66,9.40 188.74,10.19 188.82,10.03 188.90,10.07 188.97,10.33 189.05,11.00 189.13,11.08 189.21,12.13 189.29,12.13 189.36,13.16 189.44,13.16 189.52,13.76 189.60,13.58 189.68,12.82 189.75,11.29 189.83,10.41 189.91,9.75 189.99,8.13 190.07,7.33 190.14,7.41 190.22,5.96 190.30,5.30 190.38,4.84 190.46,5.26 190.53,5.20 190.61,5.42 190.69,6.11 190.77,6.51 190.85,7.65 190.92,8.34 191.00,9.18 191.08,9.81 191.16,10.60 191.24,11.10 191.31,11.72 191.39,13.14 191.47,12.96 191.55,12.21 191.63,11.56 191.70,12.02 191.78,11.59 191.86,11.12 191.94,10.64 192.01,10.55 192.09,9.73 192.17,9.48 192.25,8.55 192.33,7.10 192.40,6.55 192.48,5.04 192.56,4.32 192.64,4.36 192.72,4.69 192.79,5.21 192.87,5.90 192.95,6.71 193.03,6.94 193.11,7.33 193.18,7.49 193.26,7.47 193.34,6.02 193.42,6.30 193.50,6.98 193.57,6.64 193.65,8.37 193.73,8.91 193.81,7.91 193.89,8.31 193.96,7.22 194.04,7.47 194.12,6.24 194.20,6.38 194.28,5.34 194.35,5.62 194.43,4.85 194.51,5.34 194.59,4.43 194.67,4.22 194.74,4.80 194.82,4.74 194.90,4.83 194.98,5.50 195.05,5.87 195.13,5.70 195.21,6.56 195.29,7.52 195.37,8.57 195.44,8.60 195.52,8.69 195.60,7.69 195.68,7.88 195.76,6.87 195.83,6.26 195.91,5.58 195.99,5.00 196.07,4.88 196.15,4.45 196.22,4.60 196.30,4.37 196.38,4.96 196.46,4.96 196.54,5.66 196.61,5.67 196.69,6.64 196.77,6.66 196.85,7.65 196.93,7.58 197.00,8.45 197.08,9.53 197.16,9.18 197.24,9.69 197.32,10.12 197.39,10.99 197.47,11.59 197.55,12.48 197.63,12.84 197.71,12.43 197.78,12.94 197.86,12.70 197.94,12.08 198.02,11.77 198.10,11.77 198.17,11.64 198.25,12.11 198.33,12.06 198.41,13.06 198.48,12.87 198.56,13.74 198.64,13.74 198.72,56.00 198.80,54.78 198.87,54.78 198.95,52.55 199.03,52.55 199.11,53.87 199.19,51.60 199.26,51.60 199.34,51.60 199.42,48.94 199.50,48.94 199.58,50.56 199.65,50.56 199.73,48.96 199.81,48.96 199.89,49.48 199.97,49.48 200.04,49.48 200.12,50.62 200.20,50.62 200.28,47.08 200.36,49.26 200.43,49.26 200.51,49.26 200.59,47.57 200.67,47.57 200.75,47.57 200.82,47.17 200.90,47.17 200.98,47.17 201.06,45.24 201.14,45.24 201.21,45.24 201.29,45.24 201.37,44.31 201.45,46.83 201.52,46.83 201.60,44.66 201.68,44.66 201.76,46.40 201.84,46.40 201.91,44.85 201.99,44.85 202.07,44.85 202.15,46.89 202.23,44.52 202.30,44.52 202.38,44.52 202.46,42.55 202.54,44.74 202.62,44.74 202.69,44.74 202.77,43.76 202.85,43.76 202.93,43.76 203.01,44.47 203.08,44.47 203.16,44.47 203.24,44.47 203.32,43.69 203.40,43.69 203.47,44.88 203.55,45.51 203.63,45.51 203.71,45.51 203.79,46.24 203.86,46.24 203.94,46.24 204.02,45.06 204.10,45.06 204.18,45.06 204.25,42.56 204.33,42.56 204.41,42.56 204.49,42.56 204.56,40.44 204.64,40.44 204.72,40.44 204.80,40.44 204.88,38.73 204.95,41.58 205.03,41.58 205.11,41.13 205.19,41.13 205.27,41.13 205.34,40.37 205.42,40.37 205.50,40.37 205.58,38.63 205.66,38.63 205.73,38.63 205.81,37.50 205.89,37.50 205.97,37.50 206.05,37.50 206.12,36.88 206.20,36.88 206.28,36.88 206.36,35.61 206.44,35.61 206.51,35.61 206.59,33.69 206.67,34.64 206.75,34.64 206.83,34.64 206.90,31.62 206.98,31.62 207.06,31.62 207.14,29.78 207.22,29.78 207.29,31.29 207.37,28.65 207.45,28.65 207.53,30.17 207.60,30.17 207.68,30.17 207.76,26.82 207.84,28.97 207.92,28.97 207.99,25.81 208.07,25.81 208.15,25.81 208.23,24.15 208.31,24.15 208.38,26.31 208.46,26.63 208.54,26.63 208.62,27.67 208.70,27.67 208.77,27.67 208.85,27.19 208.93,24.79 209.01,24.79 209.09,24.28 209.16,24.28 209.24,24.28 209.32,22.35 209.40,22.80 209.48,22.80 209.55,22.80 209.63,23.65 209.71,23.65 209.79,23.65 209.87,23.65 209.94,25.36 210.02,25.36 210.10,25.36 210.18,26.27 210.26,26.27 210.33,24.52 210.41,24.52 210.49,24.52 210.57,22.56 210.64,22.56 210.72,24.73 210.80,24.73 210.88,24.03 210.96,24.03 211.03,24.03 211.11,26.30 211.19,26.30 211.27,26.30 211.35,27.60 211.42,27.60 211.50,27.60 211.58,26.23 211.66,28.01 211.74,28.01 211.81,26.04 211.89,26.04 211.97,26.04 212.05,23.49 212.13,23.49 212.20,22.69 212.28,22.69 212.36,22.69 212.44,26.33 212.52,26.33 212.59,26.33 212.67,26.27 212.75,26.27 212.83,26.27 212.91,26.09 212.98,26.09 213.06,26.12 213.14,23.73 213.22,23.73 213.30,23.73 213.37,23.73 213.45,24.00 213.53,24.00 213.61,24.00 213.68,25.75 213.76,24.43 213.84,24.43 213.92,24.43 214.00,24.43 214.07,25.19 214.15,25.19 214.23,25.19 214.31,23.67 214.39,25.48 214.46,25.48 214.54,25.48 214.62,25.43 214.70,25.43 214.78,25.43 214.85,25.43 214.93,25.49 215.01,27.18 215.09,27.18 215.17,27.18 215.24,27.32 215.32,27.32 215.40,27.32 215.48,29.35 215.56,28.17 215.63,28.17 215.71,28.17 215.79,28.17 215.87,28.78 215.95,28.78 216.02,28.78 216.10,27.42 216.18,28.89 216.26,28.89 216.34,28.89 216.41,29.03 216.49,29.03 216.57,29.03 216.65,28.89 216.73,28.89 216.80,28.89 216.88,28.89 216.96,29.00 217.04,29.00 217.11,29.00 217.19,29.00 217.27,27.82 217.35,27.82 217.43,27.82 217.50,26.81 217.58,26.81 217.66,26.81 217.74,27.47 217.82,27.47 217.89,24.91 217.97,25.05 218.05,25.05 218.13,25.05 218.21,25.99 218.28,25.99 218.36,25.99 218.44,27.98 218.52,27.98 218.60,27.98 218.67,27.98 218.75,29.49 218.83,29.49 218.91,29.49 218.99,29.42 219.06,29.42 219.14,29.37 219.22,29.37 219.30,29.37 219.38,29.21 219.45,29.21 219.53,29.21 219.61,28.98 219.69,25.76 219.77,25.14 219.84,25.14 219.92,25.14 220.00,27.89 220.08,27.89 220.15,27.89 220.23,26.84 220.31,26.84 220.39,26.84 220.47,25.72 220.54,25.72 220.62,25.81 220.70,25.81 220.78,25.81 220.86,27.03 220.93,27.03 221.01,27.73 221.09,27.73 221.17,27.73 221.25,26.36 221.32,26.36 221.40,26.36 221.48,24.93 221.56,24.93 221.64,24.93 221.71,26.51 221.79,26.51 221.87,26.11 221.95,28.38 222.03,28.38 222.10,28.38 222.18,26.99 222.26,26.99 222.34,26.99 222.42,24.39 222.49,23.66 222.57,26.76 222.65,27.06 222.73,27.06 222.81,27.06 222.88,28.39 222.96,28.39 223.04,28.11 223.12,28.11 223.19,28.11 223.27,27.78 223.35,27.78 223.43,27.78 223.51,28.50 223.58,28.50 223.66,29.22 223.74,29.22 223.82,29.22 223.90,29.80 223.97,31.15 224.05,31.15 224.13,28.68 224.21,28.68 224.29,28.68 224.36,28.68 224.44,27.93 224.52,27.93 224.60,27.93 224.68,27.93 224.75,29.04 224.83,29.04 224.91,29.04 224.99,30.46 225.07,30.46 225.14,32.84 225.22,32.84 225.30,31.10 225.38,33.17 225.46,33.17 225.53,33.17 225.61,30.69 225.69,30.69 225.77,30.69 225.85,31.23 225.92,31.23 226.00,31.71 226.08,32.82 226.16,32.82 226.23,32.82 226.31,32.82 226.39,32.33 226.47,31.83 226.55,31.83 226.62,31.83 226.70,31.61 226.78,33.92 226.86,33.44 226.94,33.44 227.01,33.44 227.09,33.12 227.17,33.12 227.25,33.12 227.33,32.52 227.40,32.52 227.48,32.52 227.56,34.36 227.64,34.49 227.72,34.49 227.79,34.49 227.87,32.19 227.95,32.57 228.03,32.57 228.11,32.57 228.18,33.78 228.26,33.78 228.34,33.78 228.42,33.51 228.50,33.51 228.57,33.51 228.65,31.65 228.73,33.88 228.81,33.88 228.89,33.88 228.96,35.60 229.04,35.60 229.12,35.60 229.20,35.60 229.27,33.96 229.35,33.96 229.43,33.96 229.51,33.39 229.59,31.13 229.66,31.13 229.74,31.13 229.82,33.04 229.90,33.04 229.98,33.04 230.05,34.38 230.13,34.38 230.21,33.91 230.29,33.91 230.37,36.53 230.44,36.53 230.52,35.15 230.60,35.15 230.68,35.65 230.76,35.65 230.83,33.65 230.91,33.65 230.99,33.65 231.07,33.47 231.15,33.47 231.22,33.47 231.30,33.47 231.38,34.58 231.46,34.58 231.54,32.39 231.61,33.72 231.69,33.72 231.77,33.24 231.85,33.24 231.93,33.24 232.00,34.91 232.08,34.91 232.16,34.91 232.24,34.76 232.32,34.76 232.39,34.76 232.47,32.56 232.55,32.56 232.63,33.21 232.70,33.21 232.78,33.21 232.86,33.21 232.94,32.51 233.02,32.51 233.09,32.51 233.17,31.78 233.25,33.87 233.33,33.87 233.41,33.87 233.48,30.94 233.56,30.94 233.64,32.92 233.72,33.08 233.80,33.08 233.87,33.08 233.95,33.47 234.03,33.47 234.11,33.47 234.19,33.63 234.26,33.63 234.34,33.63 234.42,31.05 234.50,33.31 234.58,31.05 234.65,29.75 234.73,29.75 234.81,29.75 234.89,32.22 234.97,32.22 235.04,32.22 235.12,33.08 235.20,31.39 235.28,31.39 235.36,31.39 235.43,30.32 235.51,30.32 235.59,30.32 235.67,29.07 235.74,29.07 235.82,27.67 235.90,27.67 235.98,27.67 236.06,25.79 236.13,25.79 236.21,25.57 236.29,25.57 236.37,25.57 236.45,23.29 236.52,23.29 236.60,23.29 236.68,21.77 236.76,21.77 236.84,21.77 236.91,21.32 236.99,23.12 237.07,23.12 237.15,23.12 237.23,22.08 237.30,22.08 237.38,22.08 237.46,22.08 237.54,22.18 237.62,22.18 237.69,19.12 237.77,19.12 237.85,19.12 237.93,19.48 238.01,19.48 238.08,19.48 238.16,19.05 238.24,19.05 238.32,19.05 238.40,20.04 238.47,20.04 238.55,20.04 238.63,19.93 238.71,19.93 238.78,19.93 238.86,19.93 238.94,20.07 239.02,18.67 239.10,18.67 239.17,18.67 239.25,20.51 239.33,20.51 239.41,20.51 239.49,20.28 239.56,20.28 239.64,20.28 239.72,20.28 239.80,19.72 239.88,19.72 239.95,19.72 240.03,19.43 240.11,19.43 240.19,19.43 240.27,17.57 240.34,18.48 240.42,18.48 240.50,18.48 240.58,19.23 240.66,19.23 240.73,19.23 240.81,19.93 240.89,19.93 240.97,19.93 241.05,20.80 241.12,18.55 241.20,18.55 241.28,18.55 241.36,17.56 241.44,17.56 241.51,17.56 241.59,17.52 241.67,18.05 241.75,18.05 241.82,18.05 241.90,18.05 241.98,17.68 242.06,17.68 242.14,17.68 242.21,18.87 242.29,18.87 242.37,16.81 242.45,16.81 242.53,18.08 242.60,18.08 242.68,18.08 242.76,17.97 242.84,17.97 242.92,17.97 242.99,17.97 243.07,18.67 243.15,17.05 243.23,16.37 243.31,16.37 243.38,16.37 243.46,17.04 243.54,17.04 243.62,17.04 243.70,16.52 243.77,16.52 243.85,18.23 243.93,18.42 244.01,18.42 244.09,18.42 244.16,16.25 244.24,16.25 244.32,16.25 244.40,15.74 244.48,15.74 244.55,17.66 244.63,17.66 244.71,16.69 244.79,16.69 244.86,18.51 244.94,18.51 245.02,15.66 245.10,15.66 245.18,15.66 245.25,16.62 245.33,16.62 245.41,13.95 245.49,15.31 245.57,15.31 245.64,15.31 245.72,15.31 245.80,15.13 245.88,15.13 245.96,15.13 246.03,15.81 246.11,15.81 246.19,15.81 246.27,15.81 246.35,16.09 246.42,16.09 246.50,16.09 246.58,16.13 246.66,16.13 246.74,18.10 246.81,17.63 246.89,17.63 246.97,17.63 247.05,17.03 247.13,17.03 247.20,16.56 247.28,16.56 247.36,16.47 247.44,16.47 247.52,16.47 247.59,18.16 247.67,15.09 247.75,15.09 247.83,15.09 247.90,16.35 247.98,16.35 248.06,16.35 248.14,17.54 248.22,17.54 248.29,17.54 248.37,17.26 248.45,17.26 248.53,17.26 248.61,17.35 248.68,17.35 248.76,17.60 248.84,17.60 248.92,17.60 249.00,17.02 249.07,17.02 249.15,15.57 249.23,15.57 249.31,15.57 249.39,13.90 249.46,13.90 249.54,17.02 249.62,15.66 249.70,15.66 249.78,15.66 249.85,14.18 249.93,14.18 250.01,14.18 250.09,14.91 250.17,14.91 250.24,14.91 250.32,12.70 250.40,14.56 250.48,14.56 250.56,14.56 250.63,14.56 250.71,16.76 250.79,16.77 250.87,16.77 250.95,16.77 251.02,18.83 251.10,18.83 251.18,18.83 251.26,16.92 251.33,16.92 251.41,16.92 251.49,15.02 251.57,15.02 251.65,18.27 251.72,15.91 251.80,15.91 251.88,15.91 251.96,19.16 252.04,16.21 252.11,16.21 252.19,16.21 252.27,17.44 252.35,13.73 252.43,13.73 252.50,13.73 252.58,14.38 252.66,14.38 252.74,12.45 252.82,15.31 252.89,15.31 252.97,15.31 253.05,14.86 253.13,14.86 253.21,14.86 253.28,13.69 253.36,16.88 253.44,16.88 253.52,14.89 253.60,14.89 253.67,14.89 253.75,15.28 253.83,15.28 253.91,15.28 253.99,15.28 254.06,15.18 254.14,15.18 254.22,15.18 254.30,12.67 254.37,14.35 254.45,14.35 254.53,14.35 254.61,10.98 254.69,11.85 254.76,11.85 254.84,11.85 254.92,11.85 255.00,11.24 255.08,11.24 255.15,14.84 255.23,14.12 255.31,14.12 255.39,14.12 255.47,14.12 255.54,15.78 255.62,15.78 255.70,12.69 255.78,14.39 255.86,14.39 255.93,14.39 256.01,14.03 256.09,14.03 256.17,14.03 256.25,16.95 256.32,16.95 256.40,15.00 256.48,17.06 256.56,17.06 256.64,17.06 256.71,16.15 256.79,17.34 256.87,17.34 256.95,17.34 257.03,16.98 257.10,16.98 257.18,17.27 257.26,18.38 257.34,18.38 257.41,18.85 257.49,18.85 257.57,21.54 257.65,22.73 257.73,22.73 257.80,22.73 257.88,24.18 257.96,24.18 258.04,24.18 258.12,27.21 258.19,25.97 258.27,25.97 258.35,25.97 258.43,26.61 258.51,24.58 258.58,24.58 258.66,24.58 258.74,23.48 258.82,25.84 258.90,25.84 258.97,23.03 259.05,23.03 259.13,22.77 259.21,22.77 259.29,22.77 259.36,21.98 259.44,21.98 259.52,21.98 259.60,21.98 259.68,20.95 259.75,20.95 259.83,20.95 259.91,22.36 259.99,22.36 260.07,22.36 260.14,20.86 260.22,24.13 260.30,24.13 260.38,21.60 260.45,21.60 260.53,22.79 260.61,22.79 260.69,22.79 260.77,23.17 260.84,23.17 260.92,23.17 261.00,21.98 261.08,25.13 261.16,25.13 261.23,25.13 261.31,22.44 261.39,24.48 261.47,24.48 261.55,24.48 261.62,25.70 261.70,25.70 261.78,25.70 261.86,22.17 261.94,22.17 262.01,22.17 262.09,22.17 262.17,19.32 262.25,19.32 262.33,19.32 262.40,18.50 262.48,18.50 262.56,18.50 262.64,20.38 262.72,20.38 262.79,20.38 262.87,20.38 262.95,23.43 263.03,23.28 263.11,23.28 263.18,23.28 263.26,23.01 263.34,26.07 263.42,26.07 263.49,25.97 263.57,25.97 263.65,24.77 263.73,24.77 263.81,24.77 263.88,22.05 263.96,21.89 264.04,21.89 264.12,21.89 264.20,21.89 264.27,21.89 264.35,25.99 264.43,25.99 264.51,25.99 264.59,25.86 264.66,25.86 264.74,25.86 264.82,28.47 264.90,28.47 264.98,28.47 265.05,27.97 265.13,27.97 265.21,27.97 265.29,30.48 265.37,30.48 265.44,30.48 265.52,28.38 265.60,28.38 265.68,28.38 265.76,26.46 265.83,26.46 265.91,26.46 265.99,25.11 266.07,24.58 266.15,24.58 266.22,24.58 266.30,25.14 266.38,25.14 266.46,25.14 266.53,26.36 266.61,26.36 266.69,23.08 266.77,23.86 266.85,23.86 266.92,23.86 267.00,20.83 267.08,20.83 267.16,22.01 267.24,19.36 267.31,19.36 267.39,19.36 267.47,21.12 267.55,21.12 267.63,21.12 267.70,21.39 267.78,21.39 267.86,21.39 267.94,24.63 268.02,24.63 268.09,24.63 268.17,24.63 268.25,23.15 268.33,23.15 268.41,23.15 268.48,24.05 268.56,24.05 268.64,24.05 268.72,23.13 268.80,23.13 268.87,23.13 268.95,22.45 269.03,22.45 269.11,22.45 269.19,23.35 269.26,23.35 269.34,23.35 269.42,23.24 269.50,23.24 269.58,23.24 269.65,22.84 269.73,22.84 269.81,22.84 269.89,22.84 269.96,22.43 270.04,22.43 270.12,22.43 270.20,21.35 270.28,21.35 270.35,22.55 270.43,19.70 270.51,19.70 270.59,19.70 270.67,22.06 270.74,20.00 270.82,20.00 270.90,20.00 270.98,21.22 271.06,21.22 271.13,21.22 271.21,21.35 271.29,21.35 271.37,23.31 271.45,23.31 271.52,23.31 271.60,23.83 271.68,23.83 271.76,23.83 271.84,21.65 271.91,21.65 271.99,18.33 272.07,18.33 272.15,18.33 272.23,15.78 272.30,15.78 272.38,15.13 272.46,15.13 272.54,19.41 272.62,20.10 272.69,20.10 272.77,20.10 272.85,20.10 272.93,23.78 273.00,23.78 273.08,23.78 273.16,22.24 273.24,24.20 273.32,24.20 273.39,24.20 273.47,20.92 273.55,20.53 273.63,20.53 273.71,20.53 273.78,16.70 273.86,16.70 273.94,17.21 274.02,15.16 274.10,15.16 274.17,15.16 274.25,14.50 274.33,14.50 274.41,14.50 274.49,13.92 274.56,13.92 274.64,13.95 274.72,13.95 274.80,13.95 274.88,15.30 274.95,15.30 275.03,13.05 275.11,16.77 275.19,16.77 275.27,16.77 275.34,20.26 275.42,18.50 275.50,18.50 275.58,18.50 275.66,19.99 275.73,19.99 275.81,16.88 275.89,16.88 275.97,16.88 276.04,16.09 276.12,19.27 276.20,19.27 276.28,17.69 276.36,17.69 276.43,15.67 276.51,15.67 276.59,15.67 276.67,13.43 276.75,13.43 276.82,12.05 276.90,12.05 276.98,12.05 277.06,12.40 277.14,12.40 277.21,13.66 277.29,13.66 277.37,13.66 277.45,14.76 277.53,14.76 277.60,14.76 277.68,14.75 277.76,11.11 277.84,9.61 277.92,9.61 277.99,9.61 278.07,9.61 278.15,7.30 278.23,7.30 278.31,7.30 278.38,8.76 278.46,8.76 278.54,8.76 278.62,7.64 278.70,9.90 278.77,9.90 278.85,9.90 278.93,10.87 279.01,10.87 279.08,10.87 279.16,9.49 279.24,9.49 279.32,9.49 279.40,9.49 279.47,11.30 279.55,11.30 279.63,9.53 279.71,11.35 279.79,11.35 279.86,11.35 279.94,12.08 280.02,12.08 280.10,12.08 280.18,11.88 280.25,11.88 280.33,8.51 280.41,8.51 280.49,10.07 280.57,10.07 280.64,10.07 280.72,10.57 280.80,10.57 280.88,10.57 280.96,10.12 281.03,10.12 281.11,10.12 281.19,8.92 281.27,8.92 281.35,8.92 281.42,8.07 281.50,8.07 281.58,8.07 281.66,7.60 281.74,7.60 281.81,7.60 281.89,10.86 281.97,10.86 282.05,10.86 282.12,10.86 282.20,10.09 282.28,10.09 282.36,10.09 282.44,9.15 282.51,13.09 282.59,13.09 282.67,10.85 282.75,10.85 282.83,10.85 282.90,7.67 282.98,7.49 283.06,7.49 283.14,5.96 283.22,5.96 283.29,5.97 283.37,5.97 283.45,5.97 283.53,7.79 283.61,7.79 283.68,8.50 283.76,11.04 283.84,11.04 283.92,11.04 284.00,11.32 284.07,13.26 284.15,13.26 284.23,12.47 284.31,12.47 284.39,12.47 284.46,12.47 284.54,10.47 284.62,11.76 284.70,11.76 284.78,11.76 284.85,9.23 284.93,9.23 285.01,9.23 285.09,9.78 285.16,9.78 285.24,9.78 285.32,10.07 285.40,10.07 285.48,10.64 285.55,10.64 285.63,10.64 285.71,11.38 285.79,11.38 285.87,11.25 285.94,11.25 286.02,11.25 286.10,10.76 286.18,10.76 286.26,11.37 286.33,11.37 286.41,11.37 286.49,11.17 286.57,14.02 286.65,14.02 286.72,14.02 286.80,13.72 286.88,13.72 286.96,13.60 287.04,13.60 287.11,11.28 287.19,9.02 287.27,9.02 287.35,9.02 287.43,6.74 287.50,6.74 287.58,5.12 287.66,5.12 287.74,5.12 287.82,6.75 287.89,6.75 287.97,6.75 288.05,7.67 288.13,7.67 288.21,9.42 288.28,9.42 288.36,9.42 288.44,11.42 288.52,11.42 288.59,11.42 288.67,12.43 288.75,12.43 288.83,12.43 288.91,12.23 288.98,12.23 289.06,14.39 289.14,12.43 289.22,12.43 289.30,12.43 289.37,10.11 289.45,10.11 289.53,10.11 289.61,10.11 289.69,6.07 289.76,6.07 289.84,6.07 289.92,5.64 290.00,5.64 290.08,7.15 290.15,7.15 290.23,7.15 290.31,9.35 290.39,9.35 290.47,10.27 290.54,10.27 290.62,10.27 290.70,7.10 290.78,7.10 290.86,7.10 290.93,9.39 291.01,9.39 291.09,11.02 291.17,11.02 291.25,11.02 291.32,7.59 291.40,7.59 291.48,7.59 291.56,8.10 291.63,8.10 291.71,8.10 291.79,5.98 291.87,5.98 291.95,5.98 292.02,5.98 292.10,7.75 292.18,5.48 292.26,5.48 292.34,7.54 292.41,7.54 292.49,6.66 292.57,6.66 292.65,9.35 292.73,9.35 292.80,8.99 292.88,8.99 292.96,8.99 293.04,10.27 293.12,7.47 293.19,7.47 293.27,7.47 293.35,5.46 293.43,5.46 293.51,5.46 293.58,6.03 293.66,6.03 293.74,6.03 293.82,6.03 293.90,5.73 293.97,5.73 294.05,8.43 294.13,8.73 294.21,8.73 294.29,8.73 294.36,8.42 294.44,11.39 294.52,11.39 294.60,11.39 294.67,10.20 294.75,12.79 294.83,12.79 294.91,12.79 294.99,14.61 295.06,13.01 295.14,13.01 295.22,13.01 295.30,12.61 295.38,12.61 295.45,12.61 295.53,12.61 295.61,12.58 295.69,12.86 295.77,12.86 295.84,12.86 295.92,13.83 296.00,13.83" />
</svg>