<svg width="300" height="60" xmlns="http://www.w3.org/2000/svg">
  <polyline fill="rgba(255,200,0,0.3)" stroke="#ffbb00" stroke-width="2" points="4.00,15.69 8.71,17.26 13.42,19.99 18.13,21.58 22.84,17.43 27.55,15.28 32.26,15.91 36.97,18.20 41.68,21.64 46.39,25.14 51.10,29.21 55.81,32.73 60.52,37.81 65.23,43.45 69.94,50.24 74.65,53.94 79.35,55.84 84.06,56.00 88.77,55.66 93.48,55.11 98.19,54.48 102.90,15.92 107.61,18.07 112.32,19.18 117.03,16.57 121.74,20.26 126.45,14.83 131.16,12.92 135.87,21.19 140.58,24.75 145.29,27.55 150.00,30.31 154.71,33.01 159.42,36.15 164.13,43.72 168.84,47.42 173.55,52.82 178.26,55.02 182.97,55.22 187.68,55.48 192.39,55.35 197.10,53.15 201.81,4.00 206.52,17.23 211.23,17.23 215.94,17.23 220.65,17.23 225.35,11.36 230.06,11.36 234.77,21.84 239.48,21.84 244.19,31.40 248.90,31.40 253.61,31.40 258.32,39.77 263.03,39.77 267.74,39.77 272.45,44.58 277.16,44.58 281.87,44.58 286.58,52.85 291.29,52.85 296.00,53.55" />
</svg>