<svg width="300" height="60" xmlns="http://www.w3.org/2000/svg">
  <polyline fill="rgba(255,200,0,0.3)" stroke="#ffbb00" stroke-width="2" points="4.00,47.08 5.02,48.43 6.03,50.40 7.05,51.29 8.07,51.26 9.09,51.54 10.10,52.61 11.12,53.58 12.14,56.00 13.16,54.59 14.17,54.32 15.19,53.34 16.21,52.69 17.23,53.23 18.24,53.71 19.26,53.77 20.28,52.30 21.30,51.99 22.31,51.74 23.33,51.73 24.35,52.32 25.37,52.42 26.38,52.72 27.40,52.04 28.42,51.32 29.44,50.95 30.45,50.65 31.47,50.17 32.49,49.43 33.51,49.14 34.52,48.25 35.54,47.86 36.56,47.67 37.57,46.15 38.59,44.37 39.61,42.24 40.63,39.51 41.64,36.65 42.66,34.64 43.68,31.88 44.70,27.61 45.71,24.01 46.73,21.44 47.75,20.38 48.77,19.32 49.78,18.05 50.80,15.24 51.82,13.42 52.84,11.61 53.85,10.90 54.87,10.90 55.89,11.68 56.91,11.79 57.92,11.60 58.94,10.77 59.96,9.56 60.98,9.19 61.99,9.79 63.01,10.50 64.03,11.46 65.05,13.23 66.06,14.96 67.08,17.50 68.10,20.68 69.11,25.05 70.13,24.47 71.15,23.81 72.17,22.61 73.18,21.56 74.20,20.97 75.22,21.73 76.24,23.67 77.25,26.95 78.27,34.17 79.29,36.27 80.31,33.98 81.32,33.24 82.34,32.42 83.36,32.39 84.38,32.53 85.39,31.84 86.41,31.25 87.43,31.84 88.45,34.80 89.46,36.33 90.48,37.15 91.50,37.89 92.52,38.45 93.53,38.79 94.55,39.36 95.57,40.05 96.59,40.55 97.60,40.91 98.62,41.32 99.64,41.85 100.66,40.92 101.67,47.35 102.69,48.24 103.71,49.68 104.72,50.72 105.74,51.27 106.76,51.64 107.78,52.49 108.79,53.81 109.81,55.32 110.83,55.59 111.85,54.89 112.86,53.62 113.88,52.92 114.90,52.46 115.92,53.04 116.93,52.77 117.95,52.62 118.97,52.31 119.99,51.80 121.00,51.69 122.02,52.08 123.04,52.59 124.06,52.28 125.07,52.04 126.09,51.70 127.11,51.27 128.13,50.46 129.14,49.99 130.16,49.49 131.18,48.95 132.20,48.44 133.21,48.17 134.23,47.17 135.25,42.25 136.26,42.36 137.28,42.60 138.30,36.11 139.32,35.91 140.33,35.95 141.35,30.14 142.37,29.56 143.39,22.11 144.40,22.11 145.42,18.91 146.44,18.91 147.46,15.31 148.47,17.48 149.49,13.49 150.51,11.67 151.53,8.96 152.54,9.77 153.56,12.37 154.58,10.86 155.60,11.24 156.61,10.65 157.63,8.56 158.65,8.95 159.67,8.95 160.68,10.30 161.70,10.27 162.72,13.02 163.74,14.22 164.75,18.13 165.77,22.62 166.79,22.62 167.80,23.86 168.82,24.91 169.84,22.47 170.86,24.13 171.87,23.65 172.89,21.25 173.91,24.39 174.93,30.80 175.94,30.80 176.96,35.41 177.98,34.32 179.00,33.51 180.01,32.69 181.03,32.50 182.05,32.00 183.07,32.00 184.08,30.99 185.10,32.31 186.12,35.29 187.14,36.70 188.15,37.94 189.17,38.29 190.19,38.29 191.21,38.68 192.22,39.14 193.24,39.76 194.26,40.35 195.28,40.85 196.29,41.57 197.31,41.81 198.33,40.72 199.34,42.65 200.36,44.04 201.38,44.04 202.40,44.04 203.41,47.49 204.43,47.49 205.45,51.82 206.47,51.82 207.48,51.82 208.50,54.85 209.52,54.85 210.54,52.17 211.55,53.72 212.57,53.72 213.59,53.72 214.61,52.44 215.62,52.44 216.64,52.72 217.66,52.25 218.68,52.25 219.69,52.25 220.71,52.13 221.73,52.13 222.75,52.13 223.76,51.48 224.78,51.48 225.80,50.43 226.82,50.43 227.83,50.43 228.85,48.88 229.87,48.88 230.89,49.17 231.90,40.79 232.92,40.79 233.94,40.79 234.95,35.95 235.97,35.95 236.99,35.95 238.01,35.02 239.02,20.27 240.04,20.27 241.06,17.09 242.08,17.09 243.09,19.34 244.11,19.34 245.13,6.21 246.15,6.21 247.16,10.35 248.18,10.35 249.20,4.00 250.22,4.00 251.23,10.78 252.25,10.78 253.27,5.20 254.29,5.20 255.30,5.20 256.32,9.23 257.34,9.23 258.36,9.23 259.37,9.23 260.39,17.71 261.41,17.71 262.43,18.49 263.44,28.28 264.46,28.28 265.48,28.28 266.49,28.28 267.51,28.61 268.53,28.61 269.55,28.61 270.56,28.61 271.58,34.46 272.60,34.46 273.62,34.46 274.63,34.46 275.65,33.84 276.67,33.84 277.69,33.84 278.70,33.84 279.72,29.27 280.74,29.27 281.76,29.27 282.77,36.51 283.79,36.51 284.81,37.32 285.83,39.57 286.84,39.57 287.86,39.57 288.88,40.61 289.90,40.61 290.91,40.61 291.93,42.16 292.95,42.16 293.97,42.16 294.98,41.43 296.00,41.43" />
</svg>