<svg width="300" height="60" xmlns="http://www.w3.org/2000/svg">
  <polyline fill="rgba(255,200,0,0.3)" stroke="#ffbb00" stroke-width="2" points="4.00,11.94 5.46,11.19 6.92,11.22 8.38,11.36 9.84,12.06 11.30,11.75 12.76,13.00 14.22,14.83 15.68,14.21 17.14,14.29 18.60,15.01 20.06,16.57 21.52,17.56 22.98,18.21 24.44,19.42 25.90,20.60 27.36,21.64 28.82,23.74 30.28,23.28 31.74,22.46 33.20,22.81 34.66,24.06 36.12,24.66 37.58,25.60 39.04,26.68 40.50,27.32 41.96,28.71 43.42,30.43 44.88,31.44 46.34,30.35 47.80,30.21 49.26,30.21 50.72,30.41 52.18,30.83 53.64,31.38 55.10,31.73 56.56,32.04 58.02,31.75 59.48,32.05 60.94,32.31 62.40,32.98 63.86,33.28 65.32,33.67 66.78,35.07 68.24,35.99 69.70,36.61 71.16,37.14 72.62,38.00 74.08,38.56 75.54,39.07 77.00,40.00 78.46,40.80 79.92,41.82 81.38,42.80 82.84,43.91 84.30,45.16 85.76,46.31 87.22,48.23 88.68,49.60 90.14,50.57 91.60,51.48 93.06,52.41 94.52,53.29 95.98,53.96 97.44,54.59 98.90,54.99 100.36,55.04 101.82,12.11 103.28,10.62 104.74,9.45 106.20,11.38 107.66,10.16 109.12,11.20 110.58,13.82 112.04,14.86 113.50,12.16 114.96,13.78 116.42,13.93 117.88,14.72 119.34,16.92 120.80,17.42 122.26,19.66 123.72,20.35 125.18,21.46 126.64,23.83 128.10,21.48 129.56,20.90 131.02,22.47 132.48,23.51 133.94,23.49 135.40,26.15 136.86,26.88 138.32,27.88 139.78,29.25 141.24,30.54 142.70,29.76 144.16,29.76 145.62,31.05 147.08,29.38 148.54,30.85 150.00,29.07 151.46,30.38 152.92,31.82 154.38,31.82 155.84,32.62 157.30,30.47 158.76,31.58 160.22,32.67 161.68,31.12 163.14,33.89 164.60,35.75 166.06,34.42 167.52,36.01 168.98,34.66 170.44,37.63 171.90,39.36 173.36,37.79 174.82,39.05 176.28,40.25 177.74,43.22 179.20,41.56 180.66,42.62 182.12,45.50 183.58,46.63 185.04,47.52 186.50,50.09 187.96,50.85 189.42,49.07 190.88,51.81 192.34,52.83 193.80,53.63 195.26,56.00 196.72,54.18 198.18,55.67 199.64,12.62 201.10,8.34 202.56,8.34 204.02,8.34 205.48,4.00 206.94,4.00 208.40,11.96 209.86,11.96 211.32,5.52 212.78,5.52 214.24,12.35 215.70,12.35 217.16,12.35 218.62,14.35 220.08,14.35 221.54,14.35 223.00,21.15 224.46,21.15 225.92,16.25 227.38,16.25 228.84,22.02 230.30,22.02 231.76,21.97 233.22,21.97 234.68,21.97 236.14,23.61 237.60,23.61 239.06,23.61 240.52,20.69 241.98,20.69 243.44,29.46 244.90,29.46 246.36,24.79 247.82,24.79 249.28,24.79 250.74,27.94 252.20,27.94 253.66,27.94 255.12,27.94 256.58,22.96 258.04,31.34 259.50,31.34 260.96,31.34 262.42,27.28 263.88,27.28 265.34,36.05 266.80,31.79 268.26,31.79 269.72,31.79 271.18,31.79 272.64,35.83 274.10,35.83 275.56,35.83 277.02,35.83 278.48,39.18 279.94,39.18 281.40,39.18 282.86,47.33 284.32,47.33 285.78,41.77 287.24,41.77 288.70,49.90 290.16,49.90 291.62,44.61 293.08,51.94 294.54,51.94 296.00,51.94" />
</svg>