<svg width="300" height="60" xmlns="http://www.w3.org/2000/svg">
  <polyline fill="rgba(255,200,0,0.3)" stroke="#ffbb00" stroke-width="2" points="4.00,12.39 4.68,13.23 5.35,13.90 6.03,14.21 6.71,13.95 7.39,14.46 8.06,12.62 8.74,11.25 9.42,8.47 10.10,5.00 10.77,7.21 11.45,7.83 12.13,10.04 12.81,11.77 13.48,14.24 14.16,17.43 14.84,21.47 15.52,25.22 16.19,26.95 16.87,31.76 17.55,35.50 18.23,38.78 18.90,39.89 19.58,43.46 20.26,46.17 20.94,48.01 21.61,48.38 22.29,46.51 22.97,43.18 23.65,38.96 24.32,36.63 25.00,34.40 25.68,33.62 26.36,34.13 27.03,35.05 27.71,35.81 28.39,35.63 29.07,34.93 29.74,33.95 30.42,32.80 31.10,30.46 31.78,30.29 32.45,31.26 33.13,33.51 33.81,36.33 34.49,37.25 35.16,37.71 35.84,38.45 36.52,38.56 37.20,38.24 37.87,37.42 38.55,36.37 39.23,35.53 39.91,35.83 40.58,36.49 41.26,37.89 41.94,38.98 42.62,42.45 43.29,45.33 43.97,46.49 44.65,47.78 45.33,49.34 46.00,49.86 46.68,50.98 47.36,51.80 48.04,53.14 48.71,54.86 49.39,54.81 50.07,53.39 50.75,51.07 51.42,49.88 52.10,50.09 52.78,49.57 53.46,47.97 54.13,45.64 54.81,44.45 55.49,43.09 56.17,43.82 56.84,43.13 57.52,43.52 58.20,44.52 58.88,41.21 59.55,39.53 60.23,39.97 60.91,40.29 61.59,40.24 62.26,39.60 62.94,37.10 63.62,36.65 64.30,36.88 64.97,37.32 65.65,38.95 66.33,40.04 67.01,42.31 67.68,42.97 68.36,43.33 69.04,40.20 69.72,38.42 70.39,36.20 71.07,33.64 71.75,31.69 72.43,30.10 73.10,32.64 73.78,34.21 74.46,34.91 75.14,38.57 75.81,42.63 76.49,55.90 77.17,12.39 77.85,13.22 78.52,13.84 79.20,14.23 79.88,14.03 80.56,14.33 81.23,12.63 81.91,10.93 82.59,8.47 83.27,4.64 83.94,7.39 84.62,8.75 85.30,10.44 85.98,12.33 86.65,14.48 87.33,17.20 88.01,21.48 88.69,25.39 89.36,26.83 90.04,31.89 90.72,35.68 91.40,38.78 92.07,39.89 92.75,43.22 93.43,46.30 94.11,47.91 94.78,48.20 95.46,46.67 96.14,43.43 96.82,39.13 97.49,36.84 98.17,34.53 98.85,33.66 99.53,34.02 100.20,35.03 100.88,35.73 101.56,35.67 102.24,34.83 102.91,33.93 103.59,32.87 104.27,30.40 104.95,30.05 105.62,30.84 106.30,33.57 106.98,35.77 107.66,37.12 108.33,37.93 109.01,38.37 109.69,38.57 110.37,38.22 111.04,37.53 111.72,36.32 112.40,35.45 113.08,35.80 113.75,36.46 114.43,37.88 115.11,38.95 115.79,42.12 116.46,45.45 117.14,46.46 117.82,47.97 118.50,49.48 119.17,49.80 119.85,50.78 120.53,51.84 121.21,53.04 121.88,54.94 122.56,54.79 123.24,53.38 123.92,51.21 124.59,49.83 125.27,50.24 125.95,49.67 126.63,48.28 127.30,45.46 127.98,44.32 128.66,43.18 129.34,43.63 130.01,43.30 130.69,43.54 131.37,44.26 132.05,41.46 132.72,39.90 133.40,40.04 134.08,40.27 134.76,40.49 135.43,39.73 136.11,37.12 136.79,36.59 137.47,36.85 138.14,37.29 138.82,39.10 139.50,40.07 140.18,42.08 140.85,42.84 141.53,43.45 142.21,40.03 142.89,38.49 143.56,36.07 144.24,33.62 144.92,31.53 145.60,30.08 146.27,32.36 146.95,34.38 147.63,34.74 148.31,37.99 148.98,42.67 149.66,56.00 150.34,11.42 151.02,13.44 151.69,14.66 152.37,16.30 153.05,18.21 153.73,14.13 154.40,13.26 155.08,11.35 155.76,9.18 156.44,7.00 157.11,6.79 157.79,6.74 158.47,11.51 159.15,11.25 159.82,15.34 160.50,15.98 161.18,19.21 161.86,23.93 162.53,28.13 163.21,28.13 163.89,33.38 164.57,37.88 165.24,39.95 165.92,44.16 166.60,46.92 167.28,48.46 167.95,48.93 168.63,47.82 169.31,44.80 169.99,41.40 170.66,36.28 171.34,34.80 172.02,34.00 172.70,33.95 173.37,35.86 174.05,37.88 174.73,35.97 175.41,35.18 176.08,34.09 176.76,31.49 177.44,30.01 178.12,28.84 178.79,28.15 179.47,31.49 180.15,35.37 180.83,37.01 181.50,36.11 182.18,38.39 182.86,38.80 183.54,38.80 184.21,37.15 184.89,35.99 185.57,35.99 186.25,35.64 186.92,35.91 187.60,37.82 188.28,37.92 188.96,41.26 189.63,45.08 190.31,45.93 190.99,46.41 191.67,49.15 192.34,49.31 193.02,51.06 193.70,51.69 194.38,52.17 195.05,55.35 195.73,53.76 196.41,52.76 197.09,51.33 197.76,51.33 198.44,50.22 199.12,48.89 199.80,46.93 200.47,44.66 201.15,46.63 201.83,43.66 202.51,41.96 203.18,43.07 203.86,43.01 204.54,42.22 205.22,40.84 205.89,39.67 206.57,40.09 207.25,40.94 207.93,41.21 208.60,39.30 209.28,38.20 209.96,36.92 210.64,36.45 211.31,36.61 211.99,38.57 212.67,40.58 213.35,43.34 214.02,45.87 214.70,41.99 215.38,40.88 216.06,39.29 216.73,35.26 217.41,33.93 218.09,30.96 218.77,32.14 219.44,35.85 220.12,30.36 220.80,32.38 221.48,34.82 222.15,37.84 222.83,54.79 223.51,17.89 224.19,14.71 224.86,17.85 225.54,17.85 226.22,17.85 226.90,17.26 227.57,17.26 228.25,17.26 228.93,8.46 229.61,8.46 230.28,4.00 230.96,4.00 231.64,4.00 232.32,6.71 232.99,16.52 233.67,16.52 234.35,16.52 235.03,20.13 235.70,27.93 236.38,27.93 237.06,27.93 237.74,36.42 238.41,41.67 239.09,41.67 239.77,49.47 240.45,49.47 241.12,49.47 241.80,50.26 242.48,50.26 243.16,50.26 243.83,40.82 244.51,40.82 245.19,37.79 245.87,37.79 246.54,37.79 247.22,44.90 247.90,44.90 248.58,44.90 249.25,34.88 249.93,34.88 250.61,34.88 251.29,30.26 251.96,30.26 252.64,30.26 253.32,30.26 254.00,38.22 254.67,38.22 255.35,38.22 256.03,38.22 256.71,45.07 257.38,41.04 258.06,41.04 258.74,37.32 259.42,37.32 260.09,37.32 260.77,37.32 261.45,39.60 262.13,42.48 262.80,42.48 263.48,42.48 264.16,54.00 264.84,50.12 265.51,50.12 266.19,52.09 266.87,52.09 267.55,55.48 268.22,55.48 268.90,55.48 269.58,55.75 270.26,55.75 270.93,55.75 271.61,55.75 272.29,46.73 272.97,46.73 273.64,46.73 274.32,46.73 275.00,48.85 275.68,48.85 276.35,41.79 277.03,41.79 277.71,39.09 278.39,39.09 279.06,39.09 279.74,43.23 280.42,43.23 281.10,46.42 281.77,40.95 282.45,40.95 283.13,40.95 283.81,39.15 284.48,39.15 285.16,44.14 285.84,44.14 286.52,44.14 287.19,52.94 287.87,43.02 288.55,43.02 289.23,40.21 289.90,44.67 290.58,33.79 291.26,33.79 291.94,33.79 292.61,32.62 293.29,32.62 293.97,32.62 294.65,38.14 295.32,38.14 296.00,49.60" />
</svg>