<svg width="300" height="60" xmlns="http://www.w3.org/2000/svg">
  <polyline fill="rgba(255,200,0,0.3)" stroke="#ffbb00" stroke-width="2" points="4.00,30.21 4.15,31.33 4.31,32.30 4.46,33.28 4.62,34.12 4.77,34.09 4.93,33.47 5.08,32.72 5.24,32.06 5.39,31.42 5.55,31.19 5.70,31.04 5.85,30.97 6.01,30.90 6.16,30.69 6.32,30.63 6.47,30.83 6.63,31.14 6.78,31.47 6.94,32.03 7.09,32.83 7.25,33.74 7.40,34.90 7.56,36.09 7.71,36.74 7.86,37.14 8.02,36.94 8.17,36.73 8.33,36.35 8.48,35.89 8.64,36.22 8.79,35.82 8.95,35.74 9.10,35.79 9.26,36.04 9.41,36.12 9.56,36.34 9.72,37.11 9.87,39.02 10.03,40.23 10.18,39.24 10.34,38.84 10.49,38.88 10.65,38.90 10.80,38.73 10.96,38.07 11.11,38.09 11.27,38.19 11.42,38.11 11.57,38.44 11.73,39.27 11.88,40.43 12.04,43.06 12.19,44.19 12.35,44.00 12.50,44.05 12.66,44.10 12.81,44.47 12.97,45.55 13.12,44.61 13.27,44.01 13.43,43.73 13.58,43.66 13.74,43.91 13.89,44.62 14.05,45.07 14.20,45.48 14.36,45.86 14.51,46.41 14.67,46.72 14.82,46.92 14.98,47.09 15.13,47.49 15.28,48.17 15.44,48.62 15.59,48.83 15.75,49.19 15.90,48.69 16.06,49.02 16.21,49.21 16.37,49.10 16.52,49.17 16.68,49.03 16.83,48.84 16.98,48.80 17.14,48.92 17.29,48.82 17.45,48.84 17.60,48.69 17.76,48.52 17.91,47.90 18.07,47.34 18.22,47.08 18.38,45.99 18.53,44.90 18.69,44.15 18.84,43.68 18.99,43.20 19.15,42.57 19.30,41.64 19.46,41.00 19.61,40.53 19.77,40.61 19.92,41.24 20.08,41.26 20.23,41.72 20.39,41.14 20.54,41.02 20.69,40.80 20.85,41.01 21.00,41.39 21.16,41.87 21.31,42.69 21.47,43.33 21.62,43.46 21.78,43.11 21.93,42.51 22.09,41.88 22.24,41.20 22.39,40.38 22.55,39.92 22.70,39.67 22.86,40.00 23.01,41.41 23.17,41.45 23.32,41.56 23.48,41.48 23.63,41.56 23.79,41.19 23.94,40.96 24.10,41.33 24.25,41.71 24.40,42.12 24.56,41.97 24.71,42.04 24.87,42.06 25.02,42.53 25.18,42.55 25.33,42.19 25.49,41.30 25.64,39.35 25.80,37.47 25.95,36.96 26.10,36.69 26.26,37.58 26.41,38.70 26.57,39.61 26.72,40.31 26.88,41.05 27.03,41.66 27.19,42.09 27.34,42.60 27.50,42.99 27.65,43.35 27.81,43.87 27.96,44.17 28.11,44.29 28.27,44.47 28.42,44.67 28.58,44.60 28.73,45.00 28.89,45.29 29.04,45.49 29.20,45.63 29.35,46.30 29.51,47.58 29.66,49.41 29.81,49.94 29.97,50.66 30.12,51.27 30.28,49.41 30.43,48.30 30.59,46.43 30.74,46.17 30.90,46.16 31.05,48.19 31.21,50.14 31.36,51.42 31.52,51.38 31.67,51.12 31.82,51.19 31.98,51.38 32.13,51.62 32.29,51.77 32.44,51.59 32.60,52.60 32.75,53.61 32.91,52.62 33.06,51.75 33.22,50.43 33.37,50.23 33.52,50.72 33.68,50.47 33.83,50.74 33.99,51.57 34.14,52.45 34.30,54.42 34.45,54.29 34.61,53.89 34.76,53.13 34.92,53.20 35.07,54.92 35.22,55.78 35.38,56.00 35.53,55.08 35.69,53.53 35.84,52.88 36.00,53.08 36.15,53.29 36.31,52.77 36.46,52.31 36.62,51.68 36.77,51.13 36.93,50.04 37.08,47.94 37.23,45.93 37.39,45.10 37.54,44.60 37.70,44.53 37.85,44.57 38.01,45.25 38.16,44.92 38.32,43.33 38.47,42.51 38.63,41.96 38.78,41.20 38.93,40.63 39.09,39.39 39.24,38.45 39.40,37.68 39.55,37.14 39.71,37.19 39.86,37.89 40.02,37.75 40.17,37.77 40.33,38.06 40.48,38.54 40.64,39.10 40.79,39.78 40.94,38.85 41.10,38.93 41.25,39.53 41.41,38.70 41.56,37.60 41.72,36.92 41.87,36.85 42.03,36.71 42.18,36.73 42.34,36.21 42.49,35.70 42.64,35.97 42.80,36.82 42.95,37.87 43.11,38.30 43.26,39.47 43.42,40.21 43.57,40.62 43.73,41.38 43.88,41.67 44.04,41.98 44.19,42.03 44.35,42.02 44.50,41.74 44.65,41.54 44.81,42.27 44.96,42.58 45.12,42.99 45.27,43.10 45.43,42.63 45.58,42.04 45.74,42.13 45.89,42.20 46.05,41.90 46.20,41.39 46.35,40.06 46.51,38.75 46.66,39.00 46.82,40.43 46.97,41.31 47.13,41.95 47.28,41.71 47.44,41.56 47.59,41.04 47.75,40.33 47.90,38.15 48.06,36.43 48.21,36.52 48.36,37.19 48.52,41.74 48.67,43.14 48.83,43.17 48.98,43.05 49.14,42.66 49.29,42.00 49.45,41.66 49.60,40.47 49.76,39.83 49.91,39.84 50.06,38.70 50.22,37.85 50.37,37.43 50.53,36.98 50.68,36.45 50.84,35.73 50.99,35.12 51.15,34.37 51.30,33.47 51.46,32.48 51.61,31.46 51.76,30.49 51.92,29.74 52.07,29.01 52.23,28.27 52.38,27.71 52.54,27.59 52.69,27.20 52.85,27.15 53.00,27.08 53.16,26.99 53.31,27.17 53.47,26.21 53.62,24.91 53.77,24.34 53.93,24.08 54.08,24.22 54.24,24.31 54.39,25.06 54.55,25.31 54.70,26.41 54.86,26.44 55.01,25.83 55.17,24.39 55.32,22.68 55.47,21.61 55.63,19.63 55.78,19.12 55.94,19.40 56.09,20.23 56.25,19.62 56.40,18.13 56.56,17.03 56.71,15.38 56.87,14.98 57.02,13.92 57.18,12.93 57.33,12.49 57.48,12.50 57.64,12.01 57.79,11.87 57.95,11.46 58.10,10.57 58.26,9.64 58.41,8.54 58.57,6.93 58.72,5.80 58.88,4.99 59.03,4.20 59.18,4.00 59.34,4.70 59.49,6.32 59.65,8.05 59.80,9.51 59.96,11.47 60.11,12.75 60.27,14.21 60.42,16.59 60.58,18.03 60.73,16.22 60.89,13.56 61.04,11.98 61.19,11.68 61.35,11.71 61.50,12.94 61.66,15.40 61.81,18.31 61.97,21.47 62.12,21.14 62.28,20.21 62.43,18.59 62.59,18.34 62.74,18.98 62.89,19.46 63.05,19.50 63.20,19.57 63.36,19.45 63.51,20.55 63.67,23.12 63.82,24.94 63.98,23.76 64.13,24.23 64.29,26.02 64.44,27.60 64.60,26.65 64.75,26.86 64.90,26.69 65.06,26.84 65.21,27.48 65.37,26.77 65.52,25.90 65.68,25.21 65.83,25.37 65.99,25.21 66.14,25.44 66.30,25.38 66.45,25.48 66.60,25.81 66.76,25.94 66.91,26.12 67.07,27.03 67.22,25.32 67.38,24.13 67.53,23.89 67.69,23.57 67.84,23.08 68.00,22.33 68.15,21.11 68.30,20.39 68.46,19.72 68.61,19.20 68.77,19.03 68.92,18.97 69.08,18.93 69.23,19.36 69.39,20.21 69.54,21.33 69.70,21.55 69.85,21.24 70.01,22.32 70.16,23.12 70.31,24.09 70.47,23.55 70.62,24.74 70.78,26.01 70.93,25.79 71.09,25.71 71.24,41.77 71.40,43.15 71.55,43.18 71.71,43.02 71.86,42.50 72.01,41.99 72.17,41.64 72.32,40.42 72.48,39.75 72.63,39.84 72.79,38.66 72.94,37.84 73.10,37.46 73.25,37.03 73.41,36.48 73.56,35.75 73.72,35.11 73.87,34.36 74.02,33.45 74.18,32.48 74.33,31.47 74.49,30.50 74.64,29.77 74.80,29.00 74.95,28.26 75.11,27.71 75.26,27.64 75.42,27.22 75.57,27.10 75.72,26.91 75.88,26.87 76.03,27.19 76.19,26.12 76.34,24.92 76.50,24.30 76.65,24.09 76.81,24.15 76.96,24.30 77.12,25.09 77.27,25.36 77.43,26.33 77.58,26.40 77.73,25.73 77.89,24.40 78.04,22.83 78.20,21.68 78.35,19.67 78.51,19.10 78.66,19.47 78.82,20.23 78.97,19.62 79.13,18.15 79.28,17.00 79.43,15.44 79.59,14.98 79.74,14.06 79.90,12.93 80.05,12.47 80.21,12.49 80.36,11.96 80.52,12.04 80.67,11.35 80.83,10.71 80.98,9.69 81.13,8.73 81.29,6.97 81.44,5.78 81.60,4.95 81.75,4.19 81.91,4.00 82.06,4.70 82.22,6.27 82.37,8.04 82.53,9.55 82.68,11.52 82.84,12.74 82.99,14.05 83.14,16.40 83.30,17.82 83.45,16.14 83.61,13.75 83.76,12.01 83.92,11.54 84.07,11.79 84.23,12.93 84.38,15.38 84.54,18.37 84.69,21.56 84.84,20.97 85.00,20.33 85.15,18.42 85.31,18.30 85.46,18.99 85.62,19.61 85.77,19.43 85.93,19.49 86.08,19.61 86.24,20.63 86.39,23.24 86.55,24.84 86.70,23.63 86.85,24.17 87.01,26.08 87.16,27.61 87.32,26.74 87.47,26.84 87.63,26.74 87.78,26.79 87.94,27.51 88.09,26.76 88.25,25.98 88.40,25.19 88.55,25.38 88.71,25.22 88.86,25.35 89.02,25.33 89.17,25.45 89.33,25.74 89.48,25.74 89.64,26.30 89.79,27.04 89.95,25.27 90.10,23.94 90.26,23.92 90.41,23.60 90.56,23.00 90.72,22.29 90.87,21.14 91.03,20.38 91.18,19.67 91.34,19.26 91.49,18.99 91.65,18.96 91.80,18.90 91.96,19.32 92.11,20.11 92.26,21.28 92.42,21.53 92.57,21.28 92.73,22.23 92.88,23.10 93.04,24.02 93.19,23.65 93.35,24.69 93.50,25.76 93.66,25.98 93.81,25.81 93.97,25.81 94.12,26.35 94.27,26.33 94.43,26.44 94.58,26.38 94.74,25.93 94.89,25.68 95.05,25.20 95.20,24.49 95.36,24.17 95.51,23.92 95.67,23.62 95.82,23.45 95.97,23.55 96.13,23.89 96.28,24.33 96.44,24.50 96.59,24.89 96.75,25.34 96.90,25.82 97.06,26.27 97.21,26.80 97.37,27.18 97.52,27.71 97.67,28.25 97.83,28.66 97.98,29.09 98.14,29.09 98.29,29.34 98.45,29.21 98.60,28.86 98.76,28.42 98.91,28.25 99.07,28.19 99.22,28.44 99.38,28.90 99.53,29.53 99.68,30.22 99.84,25.71 99.99,25.94 100.15,26.31 100.30,26.40 100.46,26.36 100.61,26.42 100.77,25.95 100.92,25.67 101.08,25.22 101.23,24.53 101.38,24.16 101.54,23.92 101.69,23.62 101.85,23.44 102.00,23.55 102.16,23.92 102.31,24.33 102.47,24.51 102.62,24.88 102.78,25.38 102.93,25.82 103.09,26.22 103.24,26.72 103.39,27.18 103.55,27.62 103.70,28.23 103.86,28.69 104.01,29.08 104.17,29.15 104.32,29.31 104.48,29.19 104.63,28.90 104.79,28.49 104.94,28.26 105.09,28.20 105.25,28.41 105.40,28.86 105.56,29.49 105.71,30.23 105.87,31.35 106.02,32.34 106.18,33.31 106.33,34.12 106.49,34.05 106.64,33.45 106.80,32.77 106.95,32.02 107.10,31.43 107.26,31.19 107.41,31.04 107.57,30.98 107.72,30.87 107.88,30.70 108.03,30.62 108.19,30.83 108.34,31.13 108.50,31.46 108.65,32.02 108.80,32.76 108.96,33.80 109.11,34.96 109.27,36.05 109.42,36.75 109.58,37.11 109.73,37.00 109.89,36.67 110.04,36.31 110.20,35.90 110.35,36.22 110.51,35.76 110.66,35.78 110.81,35.81 110.97,36.06 111.12,36.06 111.28,36.33 111.43,37.19 111.59,39.01 111.74,40.22 111.90,39.16 112.05,38.86 112.21,38.84 112.36,38.97 112.51,38.65 112.67,38.21 112.82,38.07 112.98,38.09 113.13,38.06 113.29,38.31 113.44,39.29 113.60,40.30 113.75,42.97 113.91,44.23 114.06,43.97 114.21,44.01 114.37,44.11 114.52,44.48 114.68,45.59 114.83,44.57 114.99,44.04 115.14,43.72 115.30,43.71 115.45,43.91 115.61,44.66 115.76,44.98 115.92,45.50 116.07,45.88 116.22,46.39 116.38,46.71 116.53,46.93 116.69,47.12 116.84,47.47 117.00,48.18 117.15,48.60 117.31,48.81 117.46,49.24 117.62,48.69 117.77,48.98 117.92,49.24 118.08,49.07 118.23,49.25 118.39,49.05 118.54,48.80 118.70,48.70 118.85,49.06 119.01,48.69 119.16,48.87 119.32,48.64 119.47,48.59 119.63,47.86 119.78,47.41 119.93,47.05 120.09,46.03 120.24,44.91 120.40,44.17 120.55,43.67 120.71,43.24 120.86,42.62 121.02,41.64 121.17,41.09 121.33,40.56 121.48,40.60 121.63,41.29 121.79,41.21 121.94,41.79 122.10,41.08 122.25,41.03 122.41,40.92 122.56,40.99 122.72,41.38 122.87,41.87 123.03,42.69 123.18,43.36 123.34,43.44 123.49,43.06 123.64,42.55 123.80,41.81 123.95,41.12 124.11,40.42 124.26,39.91 124.42,39.67 124.57,40.26 124.73,41.41 124.88,41.49 125.04,41.56 125.19,41.47 125.34,41.60 125.50,41.21 125.65,40.92 125.81,41.12 125.96,41.70 126.12,42.13 126.27,41.90 126.43,42.01 126.58,42.09 126.74,42.51 126.89,42.52 127.04,42.17 127.20,41.22 127.35,39.43 127.51,37.55 127.66,37.01 127.82,36.77 127.97,37.59 128.13,38.65 128.28,39.64 128.44,40.31 128.59,41.11 128.75,41.65 128.90,42.08 129.05,42.58 129.21,42.98 129.36,43.31 129.52,43.86 129.67,44.11 129.83,44.27 129.98,44.50 130.14,44.64 130.29,44.62 130.45,44.98 130.60,45.29 130.75,45.47 130.91,45.65 131.06,46.20 131.22,47.42 131.37,49.38 131.53,49.93 131.68,50.91 131.84,51.17 131.99,49.43 132.15,48.29 132.30,46.55 132.46,46.16 132.61,46.32 132.76,48.35 132.92,50.15 133.07,51.39 133.23,51.40 133.38,51.12 133.54,51.16 133.69,51.39 133.85,51.61 134.00,51.79 134.16,51.68 134.31,52.65 134.46,53.58 134.62,52.68 134.77,51.74 134.93,50.36 135.08,50.21 135.24,50.73 135.39,50.53 135.55,50.75 135.70,51.58 135.86,52.69 136.01,54.38 136.17,54.28 136.32,53.85 136.47,53.13 136.63,53.20 136.78,54.83 136.94,55.75 137.09,55.95 137.25,54.97 137.40,53.54 137.56,52.77 137.71,53.10 137.87,53.29 138.02,52.81 138.17,52.25 138.33,51.70 138.48,51.05 138.64,50.06 138.79,47.98 138.95,45.91 139.10,44.93 139.26,44.67 139.41,44.84 139.57,44.71 139.72,45.19 139.88,44.66 140.03,43.36 140.18,42.61 140.34,41.82 140.49,41.18 140.65,40.42 140.80,39.42 140.96,38.58 141.11,37.66 141.27,37.21 141.42,37.28 141.58,37.89 141.73,37.81 141.88,37.76 142.04,38.11 142.19,38.53 142.35,39.26 142.50,39.76 142.66,38.73 142.81,38.94 142.97,39.56 143.12,38.67 143.28,37.65 143.43,36.87 143.58,36.86 143.74,36.83 143.89,36.75 144.05,36.28 144.20,35.75 144.36,36.03 144.51,36.77 144.67,37.89 144.82,38.28 144.98,39.49 145.13,40.17 145.29,40.63 145.44,41.36 145.59,41.67 145.75,41.94 145.90,42.02 146.06,42.09 146.21,41.69 146.37,41.55 146.52,42.24 146.68,42.62 146.83,42.95 146.99,43.09 147.14,42.48 147.29,42.26 147.45,42.18 147.60,42.12 147.76,41.73 147.91,41.23 148.07,39.92 148.22,38.68 148.38,39.05 148.53,40.41 148.69,41.41 148.84,41.95 149.00,41.73 149.15,41.57 149.30,41.01 149.46,40.34 149.61,37.97 149.77,36.42 149.92,36.55 150.08,37.11 150.23,42.26 150.39,43.08 150.54,43.15 150.70,42.95 150.85,42.54 151.00,41.83 151.16,40.81 151.31,40.11 151.47,39.36 151.62,39.11 151.78,38.31 151.93,37.71 152.09,37.17 152.24,36.70 152.40,36.08 152.55,35.56 152.71,35.05 152.86,34.42 153.01,33.63 153.17,32.72 153.32,31.78 153.48,30.25 153.63,29.40 153.79,28.81 153.94,27.93 154.10,27.83 154.25,27.95 154.41,26.92 154.56,26.70 154.71,26.25 154.87,26.93 155.02,26.59 155.18,26.59 155.33,24.96 155.49,23.84 155.64,24.37 155.80,24.76 155.95,24.56 156.11,24.83 156.26,26.30 156.42,26.13 156.57,26.68 156.72,25.33 156.88,23.55 157.03,23.49 157.19,21.75 157.34,20.08 157.50,19.39 157.65,20.25 157.81,19.88 157.96,19.30 158.12,17.58 158.27,16.03 158.42,16.03 158.58,14.74 158.73,13.62 158.89,12.74 159.04,12.72 159.20,12.30 159.35,12.12 159.51,12.17 159.66,11.00 159.82,10.62 159.97,9.49 160.12,8.49 160.28,7.55 160.43,5.72 160.59,5.05 160.74,4.07 160.90,4.21 161.05,5.09 161.21,6.17 161.36,7.40 161.52,8.81 161.67,11.04 161.83,13.09 161.98,14.59 162.13,16.48 162.29,17.82 162.44,14.88 162.60,14.77 162.75,12.32 162.91,11.54 163.06,13.09 163.22,12.40 163.37,17.13 163.53,19.18 163.68,19.62 163.83,21.47 163.99,20.65 164.14,17.22 164.30,17.50 164.45,18.53 164.61,17.69 164.76,20.00 164.92,19.36 165.07,19.36 165.23,20.82 165.38,22.96 165.54,24.48 165.69,23.67 165.84,24.86 166.00,27.06 166.15,26.07 166.31,25.72 166.46,25.59 166.62,26.76 166.77,26.32 166.93,27.23 167.08,25.99 167.24,25.67 167.39,24.43 167.54,24.94 167.70,24.43 167.85,25.73 168.01,24.82 168.16,25.68 168.32,25.96 168.47,24.73 168.63,26.42 168.78,26.43 168.94,25.20 169.09,23.32 169.25,23.52 169.40,23.74 169.55,22.34 169.71,22.34 169.86,20.68 170.02,20.70 170.17,19.88 170.33,19.17 170.48,19.48 170.64,19.21 170.79,19.04 170.95,20.38 171.10,20.45 171.25,21.84 171.41,21.84 171.56,21.31 171.72,21.69 171.87,22.93 172.03,23.93 172.18,24.09 172.34,24.14 172.49,26.27 172.65,25.25 172.80,26.26 172.96,25.49 173.11,26.60 173.26,25.70 173.42,26.20 173.57,25.54 173.73,25.56 173.88,26.14 174.04,25.24 174.19,24.58 174.35,24.13 174.50,24.29 174.66,23.80 174.81,23.55 174.96,23.82 175.12,23.81 175.27,24.31 175.43,24.41 175.58,24.66 175.74,25.76 175.89,26.11 176.05,26.36 176.20,26.66 176.36,26.73 176.51,27.76 176.66,27.64 176.82,28.64 176.97,28.34 177.13,29.09 177.28,28.75 177.44,29.41 177.59,29.04 177.75,28.70 177.90,28.45 178.06,28.38 178.21,28.65 178.37,29.11 178.52,29.69 178.67,30.22 178.83,31.25 178.98,31.85 179.14,33.45 179.29,33.72 179.45,34.39 179.60,33.40 179.76,33.03 179.91,32.07 180.07,31.65 180.22,31.29 180.37,31.13 180.53,31.16 180.68,30.90 180.84,30.86 180.99,30.68 181.15,30.92 181.30,31.27 181.46,31.59 181.61,31.95 181.77,32.70 181.92,33.47 182.08,35.38 182.23,36.36 182.38,36.50 182.54,37.27 182.69,36.69 182.85,37.40 183.00,36.41 183.16,35.98 183.31,36.06 183.47,36.29 183.62,36.20 183.78,35.74 183.93,36.33 184.08,36.21 184.24,36.23 184.39,36.52 184.55,38.93 184.70,39.80 184.86,39.96 185.01,38.59 185.17,39.12 185.32,40.29 185.48,38.97 185.63,37.95 185.79,39.13 185.94,38.50 186.09,37.14 186.25,38.87 186.40,38.87 186.56,40.99 186.71,43.26 186.87,44.13 187.02,43.89 187.18,43.90 187.33,44.23 187.49,44.64 187.64,45.11 187.79,44.09 187.95,43.79 188.10,43.65 188.26,43.82 188.41,44.06 188.57,44.33 188.72,45.25 188.88,45.49 189.03,45.77 189.19,46.44 189.34,46.66 189.49,46.85 189.65,47.15 189.80,47.47 189.96,47.93 190.11,48.15 190.27,48.20 190.42,48.15 190.58,49.10 190.73,49.15 190.89,49.19 191.04,49.08 191.20,48.97 191.35,48.68 191.50,48.48 191.66,48.41 191.81,48.45 191.97,48.36 192.12,48.42 192.28,48.51 192.43,48.40 192.59,48.35 192.74,46.65 192.90,47.28 193.05,45.86 193.20,44.88 193.36,44.11 193.51,43.52 193.67,43.22 193.82,41.98 193.98,41.99 194.13,40.96 194.29,40.62 194.44,41.00 194.60,41.00 194.75,41.62 194.91,42.02 195.06,41.20 195.21,40.90 195.37,41.68 195.52,41.65 195.68,41.69 195.83,42.75 195.99,42.75 196.14,43.09 196.30,43.39 196.45,43.23 196.61,42.53 196.76,41.94 196.91,41.29 197.07,40.39 197.22,40.02 197.38,40.16 197.53,40.97 197.69,41.53 197.84,41.66 198.00,41.67 198.15,41.74 198.31,41.69 198.46,40.95 198.62,41.00 198.77,41.41 198.92,41.89 199.08,41.85 199.23,41.95 199.39,42.08 199.54,42.16 199.70,42.06 199.85,41.84 200.01,42.44 200.16,41.69 200.32,38.39 200.47,36.83 200.62,37.52 200.78,36.67 200.93,37.72 201.09,38.96 201.24,39.95 201.40,39.91 201.55,40.76 201.71,41.58 201.86,42.00 202.02,42.68 202.17,43.18 202.33,43.26 202.48,43.94 202.63,44.43 202.79,44.20 202.94,44.74 203.10,44.46 203.25,44.82 203.41,45.40 203.56,44.97 203.72,45.49 203.87,46.92 204.03,46.47 204.18,48.29 204.33,48.78 204.49,49.68 204.64,50.91 204.80,50.46 204.95,50.92 205.11,48.19 205.26,46.62 205.42,46.61 205.57,47.78 205.73,47.78 205.88,49.88 206.03,51.36 206.19,51.40 206.34,50.92 206.50,51.09 206.65,51.34 206.81,51.20 206.96,51.93 207.12,52.49 207.27,52.74 207.43,54.05 207.58,52.75 207.74,51.72 207.89,51.22 208.04,50.85 208.20,50.57 208.35,51.25 208.51,50.67 208.66,51.34 208.82,53.35 208.97,54.33 209.13,54.15 209.28,53.63 209.44,53.44 209.59,53.43 209.74,54.41 209.90,55.14 210.05,55.69 210.21,55.11 210.36,54.10 210.52,53.15 210.67,53.28 210.83,52.75 210.98,52.68 211.14,52.68 211.29,51.37 211.45,51.25 211.60,49.02 211.75,48.24 211.91,45.79 212.06,45.25 212.22,43.50 212.37,45.96 212.53,44.23 212.68,45.63 212.84,46.16 212.99,43.81 213.15,44.41 213.30,42.62 213.45,40.91 213.61,41.97 213.76,39.21 213.92,38.17 214.07,37.39 214.23,36.99 214.38,37.03 214.54,38.06 214.69,38.62 214.85,37.85 215.00,38.68 215.16,39.54 215.31,38.92 215.46,39.67 215.62,38.37 215.77,38.85 215.93,39.57 216.08,37.94 216.24,37.05 216.39,36.51 216.55,36.58 216.70,37.05 216.86,36.59 217.01,36.30 217.16,35.75 217.32,35.85 217.47,37.15 217.63,37.66 217.78,38.79 217.94,39.52 218.09,40.44 218.25,40.39 218.40,41.27 218.56,41.98 218.71,42.24 218.87,41.79 219.02,41.60 219.17,41.91 219.33,42.02 219.48,42.35 219.64,42.64 219.79,42.47 219.95,41.91 220.10,42.44 220.26,41.47 220.41,42.10 220.57,41.20 220.72,41.52 220.87,41.23 221.03,39.39 221.18,39.05 221.34,38.98 221.49,41.02 221.65,40.93 221.80,41.68 221.96,41.80 222.11,41.71 222.27,40.59 222.42,38.89 222.57,38.89 222.73,36.67 222.88,36.52 223.04,37.24 223.19,43.27 223.35,43.27 223.50,43.18 223.66,43.18 223.81,43.18 223.97,42.36 224.12,40.42 224.28,38.76 224.43,38.76 224.58,38.76 224.74,36.93 224.89,36.93 225.05,36.80 225.20,35.70 225.36,35.70 225.51,35.70 225.67,33.78 225.82,33.78 225.98,33.78 226.13,31.02 226.28,31.02 226.44,28.94 226.59,28.94 226.75,28.94 226.90,26.55 227.06,26.55 227.21,26.55 227.37,25.33 227.52,25.33 227.68,25.33 227.83,23.35 227.99,24.93 228.14,24.93 228.29,24.93 228.45,22.16 228.60,23.93 228.76,23.93 228.91,23.93 229.07,25.22 229.22,25.22 229.38,26.44 229.53,26.44 229.69,21.98 229.84,21.98 229.99,21.70 230.15,21.70 230.30,20.25 230.46,20.25 230.61,20.25 230.77,18.28 230.92,16.82 231.08,16.82 231.23,14.44 231.39,14.44 231.54,13.72 231.70,13.72 231.85,11.27 232.00,11.27 232.16,13.34 232.31,13.34 232.47,9.95 232.62,9.95 232.78,13.10 232.93,10.76 233.09,10.76 233.24,10.76 233.40,4.81 233.55,4.81 233.70,5.21 233.86,5.21 234.01,5.21 234.17,8.20 234.32,8.20 234.48,8.20 234.63,11.54 234.79,11.54 234.94,13.94 235.10,13.94 235.25,13.94 235.40,15.52 235.56,15.52 235.71,9.56 235.87,14.84 236.02,14.84 236.18,14.84 236.33,18.27 236.49,18.27 236.64,18.27 236.80,17.75 236.95,17.75 237.11,17.75 237.26,19.88 237.41,19.88 237.57,14.26 237.72,19.09 237.88,19.09 238.03,19.09 238.19,23.94 238.34,20.72 238.50,20.72 238.65,25.94 238.81,25.94 238.96,25.94 239.11,19.21 239.27,19.21 239.42,19.21 239.58,25.24 239.73,25.24 239.89,25.24 240.04,21.73 240.20,21.73 240.35,21.73 240.51,24.73 240.66,24.73 240.82,24.73 240.97,26.92 241.12,26.92 241.28,23.66 241.43,23.66 241.59,24.64 241.74,24.64 241.90,24.64 242.05,20.80 242.21,20.80 242.36,20.80 242.52,19.26 242.67,21.95 242.82,19.26 242.98,21.06 243.13,21.06 243.29,21.06 243.44,20.56 243.60,20.56 243.75,20.56 243.91,20.26 244.06,20.26 244.22,24.32 244.37,24.32 244.53,20.69 244.68,20.69 244.83,21.88 244.99,21.88 245.14,21.88 245.30,21.88 245.45,21.88 245.61,21.71 245.76,25.80 245.92,25.80 246.07,25.10 246.23,25.10 246.38,25.10 246.53,26.96 246.69,25.78 246.84,25.78 247.00,25.78 247.15,26.82 247.31,24.56 247.46,24.56 247.62,24.56 247.77,25.30 247.93,24.23 248.08,24.23 248.24,24.44 248.39,24.44 248.54,24.44 248.70,24.97 248.85,24.97 249.01,24.97 249.16,25.74 249.32,25.74 249.47,28.12 249.63,28.12 249.78,28.12 249.94,28.77 250.09,28.77 250.24,28.77 250.40,29.21 250.55,29.21 250.71,29.21 250.86,28.97 251.02,28.97 251.17,30.10 251.33,30.10 251.48,31.38 251.64,31.67 251.79,31.87 251.94,31.87 252.10,32.07 252.25,32.07 252.41,32.07 252.56,30.97 252.72,32.32 252.87,32.32 253.03,31.79 253.18,31.79 253.34,31.79 253.49,33.03 253.65,31.18 253.80,31.18 253.95,31.46 254.11,31.46 254.26,32.33 254.42,32.33 254.57,32.33 254.73,34.21 254.88,34.21 255.04,36.65 255.19,36.65 255.35,35.07 255.50,36.85 255.65,36.85 255.81,36.85 255.96,36.85 256.12,36.42 256.27,36.42 256.43,36.42 256.58,38.50 256.74,38.50 256.89,37.44 257.05,37.44 257.20,37.44 257.36,38.21 257.51,38.21 257.66,38.21 257.82,40.71 257.97,40.71 258.13,40.71 258.28,44.33 258.44,44.33 258.59,42.39 258.75,42.39 258.90,42.39 259.06,40.45 259.21,40.45 259.36,40.45 259.52,43.80 259.67,43.80 259.83,43.80 259.98,43.43 260.14,43.43 260.29,44.65 260.45,44.65 260.60,44.65 260.76,42.40 260.91,42.40 261.07,42.40 261.22,42.94 261.37,42.94 261.53,44.16 261.68,45.58 261.84,45.58 261.99,46.20 262.15,46.20 262.30,46.20 262.46,46.42 262.61,46.42 262.77,46.70 262.92,46.70 263.07,46.70 263.23,46.93 263.38,46.93 263.54,46.52 263.69,46.52 263.85,46.52 264.00,45.93 264.16,45.93 264.31,45.38 264.47,45.38 264.62,45.38 264.78,45.44 264.93,45.44 265.08,45.44 265.24,45.21 265.39,45.21 265.55,46.29 265.70,46.29 265.86,46.29 266.01,46.29 266.17,43.86 266.32,43.86 266.48,43.86 266.63,43.57 266.78,43.57 266.94,43.57 267.09,43.57 267.25,42.43 267.40,42.43 267.56,42.43 267.71,42.43 267.87,43.31 268.02,43.31 268.18,43.31 268.33,43.31 268.48,43.23 268.64,43.23 268.79,43.23 268.95,43.23 269.10,43.29 269.26,43.29 269.41,43.29 269.57,41.17 269.72,41.17 269.88,41.17 270.03,41.06 270.19,41.06 270.34,41.06 270.49,42.09 270.65,42.09 270.80,42.09 270.96,42.25 271.11,42.25 271.27,42.25 271.42,42.59 271.58,42.59 271.73,42.59 271.89,39.91 272.04,39.91 272.19,39.91 272.35,39.91 272.50,40.00 272.66,40.00 272.81,40.00 272.97,39.30 273.12,39.30 273.28,36.93 273.43,36.93 273.59,36.93 273.74,36.93 273.90,39.27 274.05,39.27 274.20,39.27 274.36,39.27 274.51,41.71 274.67,41.71 274.82,41.71 274.98,42.21 275.13,43.88 275.29,43.88 275.44,43.88 275.60,43.74 275.75,43.74 275.90,45.16 276.06,45.16 276.21,44.76 276.37,44.76 276.52,44.76 276.68,48.03 276.83,48.03 276.99,48.03 277.14,48.03 277.30,47.47 277.45,50.41 277.61,50.41 277.76,50.41 277.91,50.45 278.07,50.45 278.22,50.45 278.38,47.29 278.53,50.53 278.69,50.53 278.84,50.53 279.00,50.53 279.15,51.40 279.31,50.13 279.46,50.13 279.61,50.85 279.77,50.85 279.92,52.65 280.08,52.65 280.23,52.65 280.39,54.22 280.54,53.88 280.70,53.88 280.85,53.88 281.01,53.87 281.16,53.87 281.31,53.87 281.47,52.27 281.62,52.27 281.78,53.93 281.93,53.93 282.09,53.93 282.24,51.64 282.40,51.64 282.55,54.65 282.71,54.65 282.86,54.65 283.02,54.93 283.17,54.24 283.32,54.24 283.48,52.21 283.63,52.21 283.79,52.32 283.94,52.32 284.10,52.32 284.25,48.20 284.41,46.64 284.56,46.64 284.72,46.64 284.87,49.15 285.02,44.61 285.18,44.61 285.33,44.61 285.49,44.61 285.64,46.06 285.80,46.06 285.95,46.06 286.11,41.18 286.26,41.18 286.42,41.18 286.57,44.08 286.73,44.08 286.88,41.69 287.03,41.69 287.19,41.69 287.34,41.32 287.50,41.32 287.65,41.95 287.81,38.68 287.96,38.68 288.12,39.13 288.27,39.13 288.43,39.13 288.58,35.96 288.73,36.26 288.89,36.26 289.04,36.26 289.20,35.76 289.35,35.76 289.51,35.76 289.66,37.16 289.82,37.16 289.97,35.95 290.13,35.95 290.28,35.95 290.44,38.66 290.59,38.66 290.74,38.66 290.90,40.94 291.05,40.94 291.21,40.76 291.36,40.76 291.52,42.63 291.67,42.63 291.83,40.58 291.98,40.58 292.14,42.55 292.29,42.55 292.44,40.51 292.60,38.50 292.75,38.50 292.91,38.50 293.06,40.25 293.22,40.25 293.37,40.25 293.53,36.27 293.68,36.27 293.84,40.79 293.99,38.46 294.15,38.46 294.30,38.46 294.45,40.52 294.61,40.52 294.76,40.52 294.92,40.73 295.07,40.73 295.23,37.66 295.38,37.66 295.54,37.66 295.69,37.66 295.85,37.23 296.00,37.23" />
</svg>