<svg width="300" height="60" xmlns="http://www.w3.org/2000/svg">
  <polyline fill="rgba(255,200,0,0.3)" stroke="#ffbb00" stroke-width="2" points="4.00,53.86 4.26,53.94 4.52,53.94 4.78,53.73 5.04,53.30 5.30,52.83 5.55,52.47 5.81,52.26 6.07,52.27 6.33,52.12 6.59,52.71 6.85,53.52 7.11,53.71 7.37,53.64 7.63,53.34 7.89,52.94 8.15,52.85 8.40,52.83 8.66,52.60 8.92,52.15 9.18,52.20 9.44,51.78 9.70,51.57 9.96,50.73 10.22,50.21 10.48,50.70 10.74,51.91 11.00,53.04 11.25,53.12 11.51,53.20 11.77,53.14 12.03,52.78 12.29,52.09 12.55,51.85 12.81,51.55 13.07,51.59 13.33,51.80 13.59,52.23 13.85,52.51 14.10,53.79 14.36,54.42 14.62,55.28 14.88,55.33 15.14,55.23 15.40,55.56 15.66,55.60 15.92,54.88 16.18,54.12 16.44,53.64 16.70,53.39 16.95,52.88 17.21,52.35 17.47,52.25 17.73,52.05 17.99,51.53 18.25,51.24 18.51,51.52 18.77,51.93 19.03,52.59 19.29,51.26 19.55,50.05 19.80,49.21 20.06,48.35 20.32,47.51 20.58,46.43 20.84,46.03 21.10,45.38 21.36,45.18 21.62,44.76 21.88,44.42 22.14,44.29 22.40,44.10 22.65,44.05 22.91,43.87 23.17,43.83 23.43,43.30 23.69,43.14 23.95,42.77 24.21,42.24 24.47,41.43 24.73,40.53 24.99,39.95 25.25,39.71 25.50,40.29 25.76,40.20 26.02,41.86 26.28,43.11 26.54,43.14 26.80,43.51 27.06,43.47 27.32,43.24 27.58,43.49 27.84,42.90 28.10,42.82 28.35,42.91 28.61,42.40 28.87,42.35 29.13,42.03 29.39,41.39 29.65,41.63 29.91,41.88 30.17,42.05 30.43,42.08 30.69,42.22 30.95,42.36 31.20,42.81 31.46,43.16 31.72,43.07 31.98,42.94 32.24,42.86 32.50,43.03 32.76,42.86 33.02,42.84 33.28,42.73 33.54,41.83 33.80,41.20 34.06,40.22 34.31,40.14 34.57,40.84 34.83,41.82 35.09,41.86 35.35,41.32 35.61,40.56 35.87,40.49 36.13,40.31 36.39,40.34 36.65,40.42 36.91,40.89 37.16,41.25 37.42,41.78 37.68,41.75 37.94,41.85 38.20,42.46 38.46,42.51 38.72,41.82 38.98,41.64 39.24,41.65 39.50,41.74 39.76,41.84 40.01,42.06 40.27,42.23 40.53,42.29 40.79,42.24 41.05,42.15 41.31,42.05 41.57,42.15 41.83,42.26 42.09,42.33 42.35,42.30 42.61,42.40 42.86,42.69 43.12,42.65 43.38,42.64 43.64,42.29 43.90,41.20 44.16,40.91 44.42,40.67 44.68,40.02 44.94,39.79 45.20,39.84 45.46,39.80 45.71,39.70 45.97,39.32 46.23,38.71 46.49,37.40 46.75,36.91 47.01,36.31 47.27,35.62 47.53,35.26 47.79,35.42 48.05,35.40 48.31,35.36 48.56,35.62 48.82,36.02 49.08,36.08 49.34,35.81 49.60,35.66 49.86,35.66 50.12,35.78 50.38,36.29 50.64,35.94 50.90,35.48 51.16,34.94 51.41,34.38 51.67,33.91 51.93,33.40 52.19,33.33 52.45,32.77 52.71,32.39 52.97,32.01 53.23,31.96 53.49,32.12 53.75,31.91 54.01,32.29 54.26,32.93 54.52,33.30 54.78,33.51 55.04,33.50 55.30,33.53 55.56,33.49 55.82,34.20 56.08,33.63 56.34,32.69 56.60,31.69 56.86,31.62 57.11,31.59 57.37,30.47 57.63,29.28 57.89,29.69 58.15,30.02 58.41,30.63 58.67,32.00 58.93,32.49 59.19,32.25 59.45,31.82 59.71,31.46 59.96,31.51 60.22,31.40 60.48,30.94 60.74,30.28 61.00,30.07 61.26,30.06 61.52,30.17 61.78,29.86 62.04,29.50 62.30,28.73 62.56,28.10 62.81,27.46 63.07,26.59 63.33,26.10 63.59,25.59 63.85,25.92 64.11,26.46 64.37,26.04 64.63,25.55 64.89,24.84 65.15,24.73 65.41,25.23 65.66,25.08 65.92,25.54 66.18,25.65 66.44,26.54 66.70,25.55 66.96,24.06 67.22,23.41 67.48,22.63 67.74,21.17 68.00,20.37 68.26,19.59 68.51,19.09 68.77,18.68 69.03,18.59 69.29,18.22 69.55,17.68 69.81,17.12 70.07,15.88 70.33,14.54 70.59,14.48 70.85,14.85 71.11,14.50 71.36,13.97 71.62,14.11 71.88,14.43 72.14,14.90 72.40,14.70 72.66,14.03 72.92,13.66 73.18,12.83 73.44,12.08 73.70,11.92 73.96,12.27 74.21,13.27 74.47,12.99 74.73,11.34 74.99,11.11 75.25,10.98 75.51,10.05 75.77,9.19 76.03,9.14 76.29,9.00 76.55,9.88 76.81,9.38 77.06,53.80 77.32,53.91 77.58,53.89 77.84,53.59 78.10,53.46 78.36,52.83 78.62,52.57 78.88,52.11 79.14,52.45 79.40,52.17 79.66,52.43 79.91,53.32 80.17,53.58 80.43,53.63 80.69,53.35 80.95,52.92 81.21,52.84 81.47,52.76 81.73,52.47 81.99,52.40 82.25,52.01 82.51,51.62 82.76,51.40 83.02,50.87 83.28,50.08 83.54,50.84 83.80,51.98 84.06,52.50 84.32,53.13 84.58,53.18 84.84,53.14 85.10,53.06 85.36,51.96 85.61,51.78 85.87,51.45 86.13,51.48 86.39,51.64 86.65,51.92 86.91,52.64 87.17,53.59 87.43,54.12 87.69,55.17 87.95,55.25 88.21,55.25 88.46,55.26 88.72,56.00 88.98,55.19 89.24,54.37 89.50,53.35 89.76,53.26 90.02,52.81 90.28,52.41 90.54,52.76 90.80,52.22 91.06,51.33 91.31,51.01 91.57,51.01 91.83,51.90 92.09,52.90 92.35,51.04 92.61,50.08 92.87,49.35 93.13,48.05 93.39,47.65 93.65,46.19 93.91,46.35 94.17,45.26 94.42,45.41 94.68,44.87 94.94,44.39 95.20,44.23 95.46,43.93 95.72,44.27 95.98,44.05 96.24,43.84 96.50,43.39 96.76,43.01 97.02,42.72 97.27,42.43 97.53,41.23 97.79,40.47 98.05,39.90 98.31,39.49 98.57,40.29 98.83,40.16 99.09,41.09 99.35,43.05 99.61,42.72 99.87,43.83 100.12,43.45 100.38,43.47 100.64,43.27 100.90,42.34 101.16,42.83 101.42,42.32 101.68,42.63 101.94,42.38 102.20,42.11 102.46,41.28 102.72,41.75 102.97,42.05 103.23,42.00 103.49,41.89 103.75,42.11 104.01,42.24 104.27,42.84 104.53,43.16 104.79,43.06 105.05,42.86 105.31,42.85 105.57,43.07 105.82,42.79 106.08,42.84 106.34,42.65 106.60,42.14 106.86,40.97 107.12,40.47 107.38,40.60 107.64,40.60 107.90,41.93 108.16,41.81 108.42,41.09 108.67,40.59 108.93,40.39 109.19,40.50 109.45,40.12 109.71,40.47 109.97,41.06 110.23,41.68 110.49,41.64 110.75,41.74 111.01,41.81 111.27,42.64 111.52,42.71 111.78,41.91 112.04,41.60 112.30,41.63 112.56,41.67 112.82,41.91 113.08,42.00 113.34,42.22 113.60,42.24 113.86,42.22 114.12,42.18 114.37,41.96 114.63,42.16 114.89,42.23 115.15,42.34 115.41,42.30 115.67,42.33 115.93,42.78 116.19,42.73 116.45,42.52 116.71,42.27 116.97,41.31 117.22,41.14 117.48,40.68 117.74,40.20 118.00,39.77 118.26,39.75 118.52,39.94 118.78,39.53 119.04,39.29 119.30,38.52 119.56,38.18 119.82,36.61 120.07,36.08 120.33,35.49 120.59,35.54 120.85,35.13 121.11,35.25 121.37,35.42 121.63,35.62 121.89,36.32 122.15,36.03 122.41,35.75 122.67,35.52 122.92,35.68 123.18,35.93 123.44,36.12 123.70,35.65 123.96,35.45 124.22,34.61 124.48,34.29 124.74,33.92 125.00,33.34 125.26,33.35 125.52,32.73 125.77,32.32 126.03,32.00 126.29,31.88 126.55,32.07 126.81,32.27 127.07,32.18 127.33,32.43 127.59,33.29 127.85,33.49 128.11,33.46 128.37,33.49 128.62,33.42 128.88,33.98 129.14,33.73 129.40,32.74 129.66,31.46 129.92,31.37 130.18,31.56 130.44,30.22 130.70,29.04 130.96,29.74 131.22,29.76 131.47,30.85 131.73,32.15 131.99,32.35 132.25,31.87 132.51,31.66 132.77,31.39 133.03,31.31 133.29,31.08 133.55,30.68 133.81,30.47 134.07,30.14 134.32,30.07 134.58,30.14 134.84,29.90 135.10,29.44 135.36,28.91 135.62,28.29 135.88,27.65 136.14,26.42 136.40,25.94 136.66,25.58 136.92,25.83 137.17,26.71 137.43,25.98 137.69,25.23 137.95,24.50 138.21,24.70 138.47,24.58 138.73,25.08 138.99,25.18 139.25,25.27 139.51,26.34 139.77,25.76 140.02,24.17 140.28,23.72 140.54,22.89 140.80,21.35 141.06,20.04 141.32,19.81 141.58,18.76 141.84,18.89 142.10,18.89 142.36,18.37 142.62,17.48 142.87,17.12 143.13,15.64 143.39,14.59 143.65,14.51 143.91,15.35 144.17,14.48 144.43,13.93 144.69,14.00 144.95,14.95 145.21,14.24 145.47,14.04 145.72,14.20 145.98,13.11 146.24,12.64 146.50,12.37 146.76,11.95 147.02,12.25 147.28,12.86 147.54,13.40 147.80,11.41 148.06,10.59 148.32,10.56 148.57,10.08 148.83,9.55 149.09,8.46 149.35,9.12 149.61,9.51 149.87,9.26 150.13,54.05 150.39,53.96 150.65,53.71 150.91,53.49 151.17,52.94 151.43,52.87 151.68,52.87 151.94,52.95 152.20,51.89 152.46,52.70 152.72,52.42 152.98,52.57 153.24,53.62 153.50,53.42 153.76,53.13 154.02,52.87 154.28,52.84 154.53,52.74 154.79,52.48 155.05,52.21 155.31,51.78 155.57,51.08 155.83,52.08 156.09,51.05 156.35,50.84 156.61,50.26 156.87,51.92 157.13,51.82 157.38,52.58 157.64,53.26 157.90,53.24 158.16,52.61 158.42,51.86 158.68,52.27 158.94,51.73 159.20,51.52 159.46,52.21 159.72,51.64 159.98,52.23 160.23,53.33 160.49,54.00 160.75,55.05 161.01,55.22 161.27,55.15 161.53,55.15 161.79,54.90 162.05,54.21 162.31,55.63 162.57,53.37 162.83,52.89 163.08,52.19 163.34,53.17 163.60,52.97 163.86,51.63 164.12,51.88 164.38,51.03 164.64,50.51 164.90,52.41 165.16,52.29 165.42,50.38 165.68,49.99 165.93,48.94 166.19,48.95 166.45,47.22 166.71,47.51 166.97,45.96 167.23,46.48 167.49,45.30 167.75,45.83 168.01,45.08 168.27,44.45 168.53,44.45 168.78,44.12 169.04,43.60 169.30,43.80 169.56,43.30 169.82,42.66 170.08,42.20 170.34,42.32 170.60,41.71 170.86,40.68 171.12,39.85 171.38,40.28 171.63,40.16 171.89,40.07 172.15,41.96 172.41,41.76 172.67,43.29 172.93,42.46 173.19,43.84 173.45,42.56 173.71,44.13 173.97,42.76 174.23,43.97 174.48,42.77 174.74,43.86 175.00,42.50 175.26,41.05 175.52,41.07 175.78,41.51 176.04,42.10 176.30,41.84 176.56,42.45 176.82,42.37 177.08,42.37 177.33,42.97 177.59,43.28 177.85,42.84 178.11,42.88 178.37,42.93 178.63,43.00 178.89,43.09 179.15,43.29 179.41,41.29 179.67,41.03 179.93,40.88 180.18,41.04 180.44,39.80 180.70,41.29 180.96,41.81 181.22,41.52 181.48,40.99 181.74,40.99 182.00,41.00 182.26,40.23 182.52,40.69 182.78,39.94 183.03,40.89 183.29,41.96 183.55,41.38 183.81,41.35 184.07,42.06 184.33,41.78 184.59,42.34 184.85,42.35 185.11,41.35 185.37,41.45 185.63,41.65 185.88,41.86 186.14,41.86 186.40,42.15 186.66,42.27 186.92,42.21 187.18,42.12 187.44,42.09 187.70,42.15 187.96,42.17 188.22,42.35 188.48,42.29 188.73,42.44 188.99,42.55 189.25,42.64 189.51,42.64 189.77,42.55 190.03,41.87 190.29,41.11 190.55,40.96 190.81,40.46 191.07,40.25 191.33,39.73 191.58,40.21 191.84,38.81 192.10,39.78 192.36,38.67 192.62,37.62 192.88,35.71 193.14,36.85 193.40,36.08 193.66,35.70 193.92,34.10 194.18,35.85 194.43,36.08 194.69,34.89 194.95,35.60 195.21,34.63 195.47,35.75 195.73,35.41 195.99,36.37 196.25,35.93 196.51,35.84 196.77,35.46 197.03,36.09 197.28,35.37 197.54,34.68 197.80,34.02 198.06,33.46 198.32,33.12 198.58,32.64 198.84,32.20 199.10,31.97 199.36,31.85 199.62,31.37 199.88,32.35 200.13,32.38 200.39,32.55 200.65,33.40 200.91,33.60 201.17,33.59 201.43,33.48 201.69,33.31 201.95,33.25 202.21,32.69 202.47,31.14 202.73,31.54 202.98,30.21 203.24,31.22 203.50,30.62 203.76,30.09 204.02,30.07 204.28,30.13 204.54,30.46 204.80,31.12 205.06,31.94 205.32,31.10 205.58,31.52 205.83,31.52 206.09,30.96 206.35,32.09 206.61,31.50 206.87,31.10 207.13,29.75 207.39,29.99 207.65,30.36 207.91,29.19 208.17,29.24 208.43,29.21 208.69,27.66 208.94,27.50 209.20,25.85 209.46,25.71 209.72,25.71 209.98,25.93 210.24,26.74 210.50,26.73 210.76,25.57 211.02,24.23 211.28,25.35 211.54,25.12 211.79,25.61 212.05,23.82 212.31,24.97 212.57,26.38 212.83,26.41 213.09,22.95 213.35,22.42 213.61,21.39 213.87,19.94 214.13,18.75 214.39,20.11 214.64,19.19 214.90,18.34 215.16,18.34 215.42,19.24 215.68,17.85 215.94,17.29 216.20,15.73 216.46,14.54 216.72,14.36 216.98,14.84 217.24,14.62 217.49,13.88 217.75,14.19 218.01,15.17 218.27,14.43 218.53,15.37 218.79,13.58 219.05,14.29 219.31,11.78 219.57,12.38 219.83,11.07 220.09,12.65 220.34,11.51 220.60,11.68 220.86,11.39 221.12,11.38 221.38,11.14 221.64,10.69 221.90,10.25 222.16,7.96 222.42,8.72 222.68,10.12 222.94,8.91 223.19,53.59 223.45,53.59 223.71,53.59 223.97,52.58 224.23,52.58 224.49,52.58 224.75,52.58 225.01,52.60 225.27,52.60 225.53,52.60 225.79,50.80 226.04,50.80 226.30,50.80 226.56,50.87 226.82,50.87 227.08,50.87 227.34,50.45 227.60,50.45 227.86,50.45 228.12,49.39 228.38,49.39 228.64,49.39 228.89,52.83 229.15,51.06 229.41,51.06 229.67,51.06 229.93,49.05 230.19,49.05 230.45,52.99 230.71,52.99 230.97,52.08 231.23,52.08 231.49,53.56 231.74,53.56 232.00,51.08 232.26,52.34 232.52,52.34 232.78,52.34 233.04,50.75 233.30,53.55 233.56,53.55 233.82,53.55 234.08,52.03 234.34,52.03 234.59,52.03 234.85,52.03 235.11,50.07 235.37,50.07 235.63,50.07 235.89,50.07 236.15,48.92 236.41,48.92 236.67,48.92 236.93,48.92 237.19,50.60 237.44,50.60 237.70,50.60 237.96,49.39 238.22,49.39 238.48,49.24 238.74,49.24 239.00,49.24 239.26,49.01 239.52,47.13 239.78,47.13 240.04,47.05 240.29,47.05 240.55,47.05 240.81,45.78 241.07,44.82 241.33,44.82 241.59,44.82 241.85,43.44 242.11,43.28 242.37,43.28 242.63,41.49 242.89,41.49 243.14,41.59 243.40,41.59 243.66,39.57 243.92,39.57 244.18,39.82 244.44,39.82 244.70,38.32 244.96,38.32 245.22,38.32 245.48,35.54 245.74,42.22 245.99,42.22 246.25,39.03 246.51,39.03 246.77,39.03 247.03,36.69 247.29,42.88 247.55,42.88 247.81,40.34 248.07,40.34 248.33,40.80 248.59,40.80 248.84,40.80 249.10,42.45 249.36,42.45 249.62,42.45 249.88,42.23 250.14,42.23 250.40,42.23 250.66,42.69 250.92,42.69 251.18,42.69 251.44,42.90 251.69,42.90 251.95,42.90 252.21,43.08 252.47,36.90 252.73,37.67 252.99,37.67 253.25,37.67 253.51,41.31 253.77,41.31 254.03,41.31 254.29,41.07 254.54,41.07 254.80,41.07 255.06,41.07 255.32,38.41 255.58,42.20 255.84,42.20 256.10,39.65 256.36,39.65 256.62,39.65 256.88,42.34 257.14,42.34 257.39,37.88 257.65,40.10 257.91,40.10 258.17,41.25 258.43,41.25 258.69,41.25 258.95,42.07 259.21,42.07 259.47,42.07 259.73,42.04 259.99,42.04 260.24,41.96 260.50,41.96 260.76,41.96 261.02,41.89 261.28,41.89 261.54,41.89 261.80,41.76 262.06,42.16 262.32,42.16 262.58,42.16 262.84,42.16 263.09,41.38 263.35,41.38 263.61,41.38 263.87,39.59 264.13,41.06 264.39,41.06 264.65,38.67 264.91,38.67 265.17,38.67 265.43,41.83 265.69,36.77 265.94,36.77 266.20,36.77 266.46,39.79 266.72,34.40 266.98,34.40 267.24,34.40 267.50,39.28 267.76,34.99 268.02,34.99 268.28,34.99 268.54,32.67 268.80,32.67 269.05,37.09 269.31,37.09 269.57,35.73 269.83,35.73 270.09,35.73 270.35,34.12 270.61,34.12 270.87,34.12 271.13,32.32 271.39,32.32 271.65,32.32 271.90,31.41 272.16,31.41 272.42,31.41 272.68,29.01 272.94,32.41 273.20,32.41 273.46,33.12 273.72,33.12 273.98,32.98 274.24,32.98 274.50,32.98 274.75,32.16 275.01,32.16 275.27,29.22 275.53,29.22 275.79,29.22 276.05,24.46 276.31,24.46 276.57,27.72 276.83,29.58 277.09,29.58 277.35,30.02 277.60,30.02 277.86,30.02 278.12,31.89 278.38,31.89 278.64,31.89 278.90,31.89 279.16,27.68 279.42,32.71 279.68,32.71 279.94,31.34 280.20,26.53 280.45,26.53 280.71,27.20 280.97,27.20 281.23,27.20 281.49,27.53 281.75,27.53 282.01,27.53 282.27,21.89 282.53,21.89 282.79,21.89 283.05,21.89 283.30,22.45 283.56,22.45 283.82,22.45 284.08,20.13 284.34,26.44 284.60,26.44 284.86,25.80 285.12,18.32 285.38,18.32 285.64,20.19 285.90,20.19 286.15,20.19 286.41,19.70 286.67,19.70 286.93,19.70 287.19,16.37 287.45,16.37 287.71,16.37 287.97,13.59 288.23,13.59 288.49,20.04 288.75,20.04 289.00,16.23 289.26,16.23 289.52,16.23 289.78,15.65 290.04,15.65 290.30,15.65 290.56,11.57 290.82,11.57 291.08,11.57 291.34,13.59 291.60,13.59 291.85,13.59 292.11,16.37 292.37,8.82 292.63,8.82 292.89,8.82 293.15,11.45 293.41,11.45 293.67,11.45 293.93,11.26 294.19,11.26 294.45,11.26 294.70,10.76 294.96,10.76 295.22,4.00 295.48,6.42 295.74,6.42 296.00,6.42" />
</svg>