<svg width="300" height="60" xmlns="http://www.w3.org/2000/svg">
  <polyline fill="rgba(255,200,0,0.3)" stroke="#ffbb00" stroke-width="2" points="4.00,12.13 5.40,17.45 6.79,19.07 8.19,21.35 9.59,23.35 10.99,25.13 12.38,25.65 13.78,28.43 15.18,30.86 16.57,32.36 17.97,33.05 19.37,33.63 20.77,34.26 22.16,35.25 23.56,35.90 24.96,37.35 26.35,38.93 27.75,40.45 29.15,41.90 30.55,42.73 31.94,43.60 33.34,44.46 34.74,45.34 36.13,45.99 37.53,46.48 38.93,47.21 40.33,48.28 41.72,49.33 43.12,50.71 44.52,51.22 45.91,53.55 47.31,54.87 48.71,55.32 50.11,55.79 51.50,55.73 52.90,13.09 54.30,17.68 55.69,19.49 57.09,21.51 58.49,23.53 59.89,25.27 61.28,25.71 62.68,28.72 64.08,30.99 65.47,32.59 66.87,33.23 68.27,33.78 69.67,34.49 71.06,35.28 72.46,36.10 73.86,37.46 75.25,39.05 76.65,40.65 78.05,42.12 79.44,42.99 80.84,43.86 82.24,44.79 83.64,45.53 85.03,46.21 86.43,46.67 87.83,47.16 89.22,48.32 90.62,49.44 92.02,50.74 93.42,51.32 94.81,53.74 96.21,54.86 97.61,55.46 99.00,55.79 100.40,55.79 101.80,13.61 103.20,16.89 104.59,19.35 105.99,21.49 107.39,23.09 108.78,24.93 110.18,25.66 111.58,28.40 112.98,30.83 114.37,32.17 115.77,33.10 117.17,33.69 118.56,34.43 119.96,35.20 121.36,35.86 122.76,37.13 124.15,38.81 125.55,40.42 126.95,42.09 128.34,42.99 129.74,43.86 131.14,44.46 132.54,45.27 133.93,46.01 135.33,46.40 136.73,47.31 138.12,48.11 139.52,49.71 140.92,50.46 142.32,51.47 143.71,53.85 145.11,55.05 146.51,55.12 147.90,55.52 149.30,55.86 150.70,12.84 152.10,16.78 153.49,18.88 154.89,21.08 156.29,22.15 157.68,24.11 159.08,24.71 160.48,27.65 161.88,30.43 163.27,31.57 164.67,32.70 166.07,33.31 167.46,34.05 168.86,34.76 170.26,35.43 171.66,36.77 173.05,38.52 174.45,40.26 175.85,41.73 177.24,42.60 178.64,43.27 180.04,44.07 181.44,45.21 182.83,45.74 184.23,46.37 185.63,47.03 187.02,47.77 188.42,49.44 189.82,49.97 191.22,51.04 192.61,53.75 194.01,54.82 195.41,55.09 196.80,54.82 198.20,55.62 199.60,11.98 201.00,14.79 202.39,19.80 203.79,20.87 205.19,21.88 206.58,25.29 207.98,26.08 209.38,27.22 210.78,31.56 212.17,31.56 213.57,32.03 214.97,33.90 216.36,33.97 217.76,34.17 219.16,36.24 220.56,37.18 221.95,38.31 223.35,40.86 224.75,41.66 226.14,41.72 227.54,44.06 228.94,44.06 230.33,44.13 231.73,46.32 233.13,46.32 234.53,46.32 235.92,48.33 237.32,48.93 238.72,49.80 240.11,50.53 241.51,53.47 242.91,54.95 244.31,54.33 245.70,55.33 247.10,56.00 248.50,4.00 249.89,4.00 251.29,18.71 252.69,21.78 254.09,21.78 255.48,21.78 256.88,22.79 258.28,22.79 259.67,22.79 261.07,22.79 262.47,20.91 263.87,33.22 265.26,33.22 266.66,34.42 268.06,34.42 269.45,34.42 270.85,35.09 272.25,35.09 273.65,35.09 275.04,30.77 276.44,43.45 277.84,43.45 279.23,43.11 280.63,43.11 282.03,43.11 283.43,43.11 284.82,41.58 286.22,41.58 287.62,41.58 289.01,42.78 290.41,53.48 291.81,53.48 293.21,43.65 294.60,43.65 296.00,36.43" />
</svg>