<svg width="300" height="60" xmlns="http://www.w3.org/2000/svg">
  <polyline fill="rgba(255,200,0,0.3)" stroke="#ffbb00" stroke-width="2" points="4.00,5.12 4.90,5.69 5.79,6.69 6.69,7.56 7.58,8.08 8.48,9.90 9.37,11.62 10.27,13.46 11.17,16.19 12.06,18.57 12.96,18.40 13.85,13.92 14.75,11.38 15.64,9.39 16.54,9.50 17.44,9.92 18.33,10.08 19.23,10.17 20.12,11.55 21.02,13.90 21.91,15.74 22.81,16.98 23.71,17.38 24.60,17.81 25.50,18.32 26.39,19.12 27.29,19.20 28.18,19.83 29.08,19.88 29.98,20.01 30.87,20.43 31.77,20.89 32.66,21.92 33.56,22.86 34.45,24.05 35.35,24.85 36.25,25.57 37.14,26.37 38.04,27.18 38.93,28.20 39.83,29.74 40.72,30.76 41.62,32.80 42.52,32.40 43.41,30.92 44.31,29.39 45.20,28.77 46.10,28.86 46.99,29.77 47.89,32.42 48.79,35.94 49.68,38.51 50.58,40.14 51.47,40.32 52.37,39.73 53.26,39.99 54.16,40.60 55.06,41.31 55.95,41.33 56.85,40.62 57.74,38.76 58.64,38.97 59.53,39.00 60.43,39.64 61.33,40.70 62.22,40.94 63.12,41.70 64.01,42.55 64.91,43.19 65.80,43.29 66.70,43.66 67.60,43.93 68.49,44.80 69.39,46.16 70.28,45.08 71.18,44.49 72.07,44.66 72.97,45.63 73.87,46.58 74.76,46.57 75.66,45.49 76.55,45.31 77.45,45.21 78.34,44.65 79.24,45.35 80.13,45.07 81.03,44.37 81.93,44.02 82.82,44.56 83.72,45.09 84.61,45.75 85.51,46.99 86.40,48.76 87.30,48.46 88.20,48.01 89.09,48.15 89.99,48.24 90.88,48.63 91.78,48.86 92.67,49.54 93.57,50.12 94.47,50.49 95.36,51.03 96.26,51.85 97.15,52.57 98.05,53.83 98.94,55.02 99.84,55.96 100.74,55.23 101.63,5.60 102.53,4.73 103.42,6.00 104.32,9.14 105.21,7.47 106.11,9.85 107.01,13.55 107.90,12.66 108.80,18.00 109.69,18.24 110.59,18.29 111.48,14.51 112.38,11.38 113.28,8.47 114.17,9.77 115.07,9.29 115.96,9.77 116.86,9.53 117.75,12.00 118.65,13.67 119.55,15.68 120.44,17.46 121.34,18.63 122.23,17.50 123.13,18.21 124.02,19.24 124.92,19.17 125.82,19.83 126.71,19.93 127.61,19.98 128.50,20.50 129.40,20.69 130.29,22.01 131.19,22.74 132.09,25.53 132.98,26.66 133.88,27.36 134.77,27.51 135.67,27.51 136.56,28.45 137.46,29.45 138.36,30.47 139.25,31.45 140.15,32.72 141.04,30.68 141.94,30.17 142.83,29.46 143.73,29.15 144.63,29.56 145.52,32.38 146.42,34.65 147.31,36.32 148.21,39.01 149.10,40.40 150.00,38.50 150.90,40.58 151.79,40.87 152.69,43.89 153.58,40.88 154.48,39.46 155.37,40.16 156.27,36.62 157.17,36.93 158.06,37.66 158.96,38.28 159.85,39.77 160.75,41.71 161.64,44.12 162.54,44.09 163.44,42.91 164.33,43.43 165.23,43.48 166.12,45.19 167.02,45.40 167.91,45.34 168.81,44.78 169.71,44.59 170.60,45.15 171.50,45.93 172.39,45.69 173.29,45.46 174.18,45.43 175.08,45.58 175.98,45.49 176.87,45.17 177.77,43.99 178.66,44.65 179.56,43.41 180.45,44.81 181.35,44.07 182.25,46.03 183.14,47.51 184.04,48.95 184.93,47.18 185.83,48.78 186.72,48.85 187.62,47.85 188.52,49.95 189.41,47.77 190.31,49.84 191.20,51.11 192.10,49.86 192.99,50.86 193.89,52.21 194.79,52.52 195.68,52.52 196.58,55.05 197.47,55.27 198.37,55.64 199.26,4.00 200.16,4.00 201.06,7.47 201.95,7.47 202.85,7.47 203.74,7.47 204.64,18.04 205.53,18.04 206.43,18.04 207.33,17.97 208.22,17.97 209.12,17.97 210.01,9.76 210.91,9.76 211.80,9.76 212.70,9.76 213.60,11.06 214.49,11.06 215.39,11.06 216.28,15.69 217.18,15.69 218.07,15.69 218.97,19.38 219.87,19.38 220.76,19.38 221.66,19.18 222.55,19.18 223.45,19.18 224.34,21.22 225.24,21.22 226.13,20.66 227.03,20.66 227.93,24.20 228.82,25.53 229.72,25.53 230.61,25.53 231.51,27.50 232.40,27.50 233.30,27.50 234.20,27.50 235.09,30.46 235.99,30.46 236.88,30.46 237.78,35.96 238.67,28.74 239.57,28.74 240.47,27.89 241.36,27.89 242.26,27.89 243.15,35.01 244.05,39.56 244.94,39.56 245.84,39.56 246.74,46.77 247.63,35.30 248.53,35.30 249.42,43.90 250.32,43.90 251.21,43.90 252.11,35.57 253.01,36.63 253.90,36.63 254.80,36.63 255.69,38.28 256.59,38.28 257.48,38.28 258.38,44.12 259.28,44.12 260.17,44.12 261.07,39.59 261.96,45.09 262.86,45.09 263.75,45.41 264.65,45.41 265.55,45.41 266.44,42.45 267.34,42.45 268.23,42.45 269.13,44.48 270.02,44.48 270.92,45.46 271.82,45.46 272.71,45.46 273.61,46.81 274.50,46.81 275.40,44.65 276.29,44.65 277.19,44.65 278.09,41.67 278.98,41.67 279.88,48.23 280.77,48.23 281.67,46.57 282.56,46.57 283.46,49.96 284.36,49.96 285.25,47.50 286.15,47.50 287.04,47.50 287.94,49.85 288.83,49.85 289.73,49.85 290.63,52.21 291.52,52.21 292.42,52.21 293.31,52.21 294.21,53.57 295.10,53.57 296.00,56.00" />
</svg>