<svg width="300" height="60" xmlns="http://www.w3.org/2000/svg">
  <polyline fill="rgba(255,200,0,0.3)" stroke="#ffbb00" stroke-width="2" points="4.00,6.02 5.52,7.87 7.04,10.12 8.56,11.71 10.08,13.25 11.60,14.26 13.12,14.68 14.65,15.20 16.17,16.32 17.69,18.28 19.21,20.61 20.73,24.28 22.25,25.70 23.77,28.36 25.29,30.32 26.81,33.36 28.33,35.83 29.85,37.79 31.38,38.97 32.90,40.37 34.42,41.70 35.94,43.51 37.46,44.69 38.98,47.55 40.50,48.32 42.02,48.90 43.54,50.42 45.06,52.01 46.58,53.18 48.10,54.64 49.62,54.88 51.15,54.77 52.67,54.51 54.19,53.84 55.71,51.56 57.23,50.49 58.75,48.43 60.27,46.69 61.79,46.37 63.31,45.87 64.83,45.21 66.35,44.25 67.88,44.25 69.40,42.99 70.92,42.57 72.44,41.77 73.96,41.71 75.48,42.53 77.00,44.72 78.52,6.09 80.04,8.54 81.56,10.36 83.08,12.37 84.60,14.70 86.12,15.25 87.65,15.45 89.17,15.24 90.69,15.78 92.21,16.85 93.73,20.75 95.25,23.08 96.77,26.20 98.29,28.82 99.81,30.39 101.33,33.11 102.85,35.71 104.38,37.59 105.90,39.49 107.42,39.68 108.94,41.70 110.46,43.48 111.98,45.03 113.50,48.48 115.02,48.80 116.54,50.10 118.06,50.88 119.58,52.02 121.10,53.32 122.62,54.65 124.15,55.26 125.67,55.10 127.19,54.35 128.71,53.57 130.23,50.86 131.75,49.98 133.27,48.12 134.79,46.88 136.31,46.43 137.83,45.80 139.35,45.21 140.88,44.42 142.40,44.06 143.92,42.61 145.44,42.08 146.96,42.34 148.48,42.31 150.00,44.85 151.52,4.73 153.04,8.28 154.56,10.16 156.08,13.34 157.60,11.23 159.12,13.64 160.65,15.53 162.17,12.53 163.69,14.26 165.21,16.24 166.73,24.33 168.25,26.34 169.77,28.26 171.29,28.74 172.81,31.01 174.33,31.01 175.85,35.13 177.38,38.22 178.90,40.53 180.42,39.39 181.94,42.51 183.46,42.74 184.98,44.56 186.50,46.47 188.02,48.63 189.54,49.54 191.06,51.22 192.58,52.04 194.10,53.14 195.62,53.86 197.15,55.54 198.67,55.16 200.19,54.77 201.71,52.86 203.23,51.10 204.75,49.77 206.27,48.44 207.79,47.27 209.31,46.59 210.83,44.35 212.35,44.32 213.88,44.58 215.40,42.24 216.92,42.66 218.44,41.43 219.96,42.17 221.48,43.31 223.00,45.19 224.52,5.20 226.04,4.00 227.56,4.00 229.08,9.17 230.60,9.17 232.12,9.17 233.65,15.63 235.17,7.80 236.69,7.80 238.21,19.72 239.73,19.72 241.25,32.23 242.77,32.23 244.29,32.23 245.81,31.87 247.33,31.87 248.85,31.87 250.38,31.87 251.90,41.07 253.42,41.07 254.94,41.07 256.46,41.07 257.98,43.54 259.50,43.54 261.02,43.54 262.54,49.87 264.06,49.87 265.58,49.87 267.10,55.09 268.62,55.09 270.15,56.00 271.67,56.00 273.19,56.00 274.71,53.47 276.23,53.47 277.75,53.47 279.27,49.28 280.79,49.28 282.31,49.28 283.83,45.44 285.35,45.44 286.88,42.00 288.40,42.00 289.92,42.00 291.44,43.04 292.96,43.04 294.48,49.39 296.00,47.53" />
</svg>