<svg width="300" height="60" xmlns="http://www.w3.org/2000/svg">
  <polyline fill="rgba(255,200,0,0.3)" stroke="#ffbb00" stroke-width="2" points="4.00,19.84 4.68,19.66 5.37,19.04 6.05,18.20 6.74,17.31 7.42,16.84 8.10,16.16 8.79,15.22 9.47,14.88 10.15,13.88 10.84,13.38 11.52,12.47 12.21,11.44 12.89,11.17 13.57,10.22 14.26,10.01 14.94,9.21 15.63,8.45 16.31,8.39 16.99,8.01 17.68,7.40 18.36,7.16 19.04,7.15 19.73,7.34 20.41,7.43 21.10,7.48 21.78,7.41 22.46,7.34 23.15,7.42 23.83,7.64 24.52,8.15 25.20,8.82 25.88,9.14 26.57,9.53 27.25,9.98 27.93,10.03 28.62,10.22 29.30,10.51 29.99,11.03 30.67,11.07 31.35,11.46 32.04,12.19 32.72,12.95 33.41,13.35 34.09,14.30 34.77,15.38 35.46,16.22 36.14,16.98 36.82,17.13 37.51,17.80 38.19,18.56 38.88,19.37 39.56,19.55 40.24,20.69 40.93,22.02 41.61,23.13 42.30,24.01 42.98,24.77 43.66,25.57 44.35,25.96 45.03,26.65 45.71,27.87 46.40,28.66 47.08,28.95 47.77,29.28 48.45,29.76 49.13,30.32 49.82,30.53 50.50,31.48 51.19,31.93 51.87,31.90 52.55,32.62 53.24,32.97 53.92,33.32 54.60,34.17 55.29,34.74 55.97,35.67 56.66,36.84 57.34,37.91 58.02,38.84 58.71,39.47 59.39,39.70 60.07,39.71 60.76,39.89 61.44,40.39 62.13,41.07 62.81,41.85 63.49,42.76 64.18,43.55 64.86,44.17 65.55,44.67 66.23,44.92 66.91,45.16 67.60,45.51 68.28,46.09 68.96,46.95 69.65,47.93 70.33,48.90 71.02,49.86 71.70,50.83 72.38,51.78 73.07,52.65 73.75,53.48 74.44,54.21 75.12,54.49 75.80,54.59 76.49,53.96 77.17,19.98 77.85,19.75 78.54,19.13 79.22,18.40 79.91,17.74 80.59,17.08 81.27,16.43 81.96,15.37 82.64,14.88 83.33,14.01 84.01,13.34 84.69,12.73 85.38,11.48 86.06,11.41 86.74,10.67 87.43,10.15 88.11,9.36 88.80,8.69 89.48,8.70 90.16,7.91 90.85,7.46 91.53,7.30 92.22,7.47 92.90,7.96 93.58,7.59 94.27,7.80 94.95,7.83 95.63,7.83 96.32,7.51 97.00,7.76 97.69,8.03 98.37,8.79 99.05,9.26 99.74,9.42 100.42,9.96 101.11,10.31 101.79,10.41 102.47,10.52 103.16,11.04 103.84,11.28 104.52,11.46 105.21,12.16 105.89,13.35 106.58,13.47 107.26,14.21 107.94,15.35 108.63,16.32 109.31,17.14 110.00,17.27 110.68,17.88 111.36,18.73 112.05,19.86 112.73,19.60 113.41,20.92 114.10,22.23 114.78,23.16 115.47,24.06 116.15,24.33 116.83,25.32 117.52,26.02 118.20,26.81 118.89,27.58 119.57,28.22 120.25,28.92 120.94,29.28 121.62,29.83 122.30,30.42 122.99,30.54 123.67,31.63 124.36,31.81 125.04,31.93 125.72,32.32 126.41,32.97 127.09,33.42 127.78,34.43 128.46,34.82 129.14,35.78 129.83,37.01 130.51,37.99 131.19,39.06 131.88,39.65 132.56,39.81 133.25,39.78 133.93,40.09 134.61,40.49 135.30,41.30 135.98,42.05 136.67,42.97 137.35,43.66 138.03,44.39 138.72,44.69 139.40,44.97 140.08,45.23 140.77,45.56 141.45,46.10 142.14,46.95 142.82,48.04 143.50,48.87 144.19,49.94 144.87,50.98 145.56,52.05 146.24,52.78 146.92,53.68 147.61,54.25 148.29,54.55 148.97,54.60 149.66,54.04 150.34,19.81 151.03,19.60 151.71,18.57 152.39,18.27 153.08,18.27 153.76,16.71 154.44,16.40 155.13,16.03 155.81,14.26 156.50,14.86 157.18,13.66 157.86,13.77 158.55,12.90 159.23,10.65 159.92,10.75 160.60,10.74 161.28,9.89 161.97,8.82 162.65,8.68 163.33,8.46 164.02,7.99 164.70,8.05 165.39,8.45 166.07,9.16 166.75,6.91 167.44,7.24 168.12,7.50 168.81,8.35 169.49,7.65 170.17,7.69 170.86,8.68 171.54,8.93 172.22,10.33 172.91,9.72 173.59,10.34 174.28,10.83 174.96,10.69 175.64,9.92 176.33,10.64 177.01,10.64 177.70,11.33 178.38,12.48 179.06,13.58 179.75,13.86 180.43,14.89 181.11,16.00 181.80,17.08 182.48,17.68 183.17,17.68 183.85,17.89 184.53,18.15 185.22,19.64 185.90,18.80 186.59,19.85 187.27,21.77 187.95,23.21 188.64,24.62 189.32,24.09 190.00,25.07 190.69,26.50 191.37,26.38 192.06,27.96 192.74,28.00 193.42,29.15 194.11,29.73 194.79,29.70 195.48,31.86 196.16,32.24 196.84,32.35 197.53,32.38 198.21,32.44 198.89,32.82 199.58,32.48 200.26,33.24 200.95,35.04 201.63,34.72 202.31,35.96 203.00,36.37 203.68,37.28 204.37,39.30 205.05,39.72 205.73,39.99 206.42,40.01 207.10,40.00 207.78,40.22 208.47,41.36 209.15,42.13 209.84,42.95 210.52,43.67 211.20,44.66 211.89,44.75 212.57,45.11 213.26,45.48 213.94,45.62 214.62,46.52 215.31,47.21 215.99,48.45 216.67,49.11 217.36,49.71 218.04,50.99 218.73,52.27 219.41,53.30 220.09,54.01 220.78,54.27 221.46,54.52 222.15,54.61 222.83,54.10 223.51,19.65 224.20,18.73 224.88,18.73 225.56,18.73 226.25,18.73 226.93,13.65 227.62,13.65 228.30,13.65 228.98,16.23 229.67,16.23 230.35,16.23 231.04,10.49 231.72,10.48 232.40,10.48 233.09,10.48 233.77,10.48 234.45,8.88 235.14,8.88 235.82,8.88 236.51,8.52 237.19,8.52 237.87,8.52 238.56,9.34 239.24,9.34 239.93,4.00 240.61,8.19 241.29,8.19 241.98,8.19 242.66,8.19 243.34,8.19 244.03,8.95 244.71,8.95 245.40,9.54 246.08,9.54 246.76,9.54 247.45,9.54 248.13,7.47 248.81,7.47 249.50,7.47 250.18,7.47 250.87,11.57 251.55,11.57 252.23,11.57 252.92,13.85 253.60,13.85 254.29,13.85 254.97,14.75 255.65,14.75 256.34,14.75 257.02,14.75 257.70,15.29 258.39,19.28 259.07,19.28 259.76,19.58 260.44,19.58 261.12,23.90 261.81,23.90 262.49,23.90 263.18,27.47 263.86,27.47 264.54,26.58 265.23,30.66 265.91,30.66 266.59,30.66 267.28,33.34 267.96,33.20 268.65,33.20 269.33,33.20 270.01,35.16 270.70,35.16 271.38,35.16 272.07,35.16 272.75,35.16 273.43,30.52 274.12,35.31 274.80,35.31 275.48,35.31 276.17,35.59 276.85,35.59 277.54,38.81 278.22,38.81 278.90,41.26 279.59,41.26 280.27,41.26 280.96,41.44 281.64,41.44 282.32,42.60 283.01,42.60 283.69,42.60 284.37,45.06 285.06,45.06 285.74,47.09 286.43,47.17 287.11,47.17 287.79,47.17 288.48,48.07 289.16,51.25 289.85,51.25 290.53,51.25 291.21,51.84 291.90,54.98 292.58,54.98 293.26,54.76 293.95,54.76 294.63,56.00 295.32,56.00 296.00,53.69" />
</svg>