<svg width="300" height="60" xmlns="http://www.w3.org/2000/svg">
  <polyline fill="rgba(255,200,0,0.3)" stroke="#ffbb00" stroke-width="2" points="4.00,48.92 13.42,43.28 22.84,39.17 32.26,35.01 41.68,30.84 51.10,26.74 60.52,22.96 69.94,17.58 79.35,47.31 88.77,42.89 98.19,39.47 107.61,35.70 117.03,31.80 126.45,28.73 135.87,24.52 145.29,24.11 154.71,21.41 164.13,33.70 173.55,27.10 182.97,25.21 192.39,23.87 201.81,18.45 211.23,18.68 220.65,21.51 230.06,4.00 239.48,56.00 248.90,26.88 258.32,26.88 267.74,26.88 277.16,20.27 286.58,20.27 296.00,19.89" />
</svg>