<svg width="300" height="60" xmlns="http://www.w3.org/2000/svg">
  <polyline fill="rgba(255,200,0,0.3)" stroke="#ffbb00" stroke-width="2" points="4.00,7.78 6.81,10.00 9.62,11.67 12.42,14.81 15.23,18.20 18.04,22.30 20.85,27.95 23.65,34.28 26.46,39.00 29.27,28.88 32.08,21.31 34.88,15.75 37.69,14.81 40.50,15.82 43.31,16.74 46.12,16.38 48.92,18.48 51.73,23.11 54.54,28.21 57.35,31.36 60.15,32.70 62.96,33.64 65.77,34.78 68.58,36.47 71.38,36.70 74.19,38.31 77.00,38.81 79.81,38.65 82.62,39.48 85.42,40.71 88.23,42.17 91.04,45.05 93.85,47.34 96.65,49.20 99.46,52.70 102.27,10.44 105.08,7.37 107.88,10.69 110.69,16.08 113.50,14.56 116.31,22.43 119.12,21.55 121.92,35.04 124.73,34.47 127.54,26.61 130.35,19.54 133.15,12.97 135.96,15.89 138.77,14.82 141.58,15.89 144.38,15.36 147.19,20.94 150.00,24.72 152.81,29.27 155.62,33.29 158.42,35.94 161.23,37.62 164.04,33.38 166.85,38.69 169.65,37.32 172.46,38.66 175.27,38.89 178.08,38.98 180.88,40.17 183.69,40.59 186.50,42.54 189.31,43.59 192.12,45.23 194.92,51.54 197.73,55.67 200.54,22.43 203.35,10.69 206.15,10.69 208.96,10.69 211.77,4.00 214.58,34.61 217.38,34.61 220.19,34.45 223.00,34.45 225.81,34.45 228.62,15.88 231.42,15.88 234.23,15.88 237.04,15.88 239.85,18.82 242.65,18.82 245.46,18.82 248.27,29.29 251.08,29.29 253.88,29.29 256.69,37.63 259.50,37.63 262.31,37.63 265.12,37.63 267.92,37.17 270.73,37.17 273.54,41.79 276.35,41.79 279.15,40.53 281.96,40.53 284.77,48.52 287.58,48.52 290.38,51.54 293.19,51.54 296.00,56.00" />
</svg>