<svg width="300" height="60" xmlns="http://www.w3.org/2000/svg">
  <polyline fill="rgba(255,200,0,0.3)" stroke="#ffbb00" stroke-width="2" points="4.00,4.00 4.36,4.49 4.72,5.10 5.07,5.67 5.43,6.33 5.79,6.91 6.15,7.38 6.51,7.90 6.87,8.39 7.22,9.05 7.58,9.63 7.94,10.17 8.30,10.55 8.66,10.92 9.02,11.26 9.37,11.70 9.73,12.21 10.09,12.89 10.45,13.67 10.81,14.37 11.17,14.86 11.52,15.27 11.88,15.67 12.24,16.04 12.60,16.29 12.96,16.57 13.32,16.87 13.67,17.18 14.03,17.48 14.39,17.63 14.75,17.85 15.11,18.14 15.47,18.23 15.82,18.48 16.18,18.81 16.54,19.33 16.90,19.96 17.26,20.79 17.61,21.46 17.97,21.95 18.33,22.28 18.69,22.58 19.05,22.95 19.41,23.49 19.76,23.98 20.12,24.56 20.48,25.25 20.84,26.02 21.20,26.53 21.56,27.06 21.91,27.30 22.27,27.60 22.63,28.08 22.99,28.47 23.35,28.78 23.71,28.96 24.06,29.14 24.42,29.40 24.78,29.75 25.14,30.15 25.50,30.50 25.86,30.83 26.21,31.25 26.57,31.68 26.93,32.26 27.29,32.67 27.65,33.16 28.00,33.63 28.36,33.92 28.72,34.11 29.08,34.41 29.44,34.83 29.80,35.26 30.15,35.78 30.51,36.42 30.87,36.91 31.23,37.29 31.59,37.81 31.95,38.38 32.30,38.94 32.66,39.39 33.02,39.71 33.38,40.05 33.74,40.15 34.10,40.47 34.45,41.01 34.81,41.65 35.17,42.32 35.53,42.92 35.89,43.56 36.25,44.15 36.60,44.67 36.96,45.03 37.32,45.18 37.68,45.27 38.04,45.37 38.40,45.49 38.75,45.58 39.11,45.82 39.47,46.34 39.83,47.09 40.19,47.80 40.54,48.49 40.90,48.78 41.26,48.90 41.62,49.13 41.98,49.60 42.34,50.03 42.69,50.29 43.05,50.82 43.41,51.23 43.77,51.53 44.13,51.77 44.49,52.08 44.84,52.56 45.20,53.10 45.56,53.48 45.92,53.66 46.28,53.88 46.64,54.19 46.99,54.54 47.35,54.98 47.71,55.26 48.07,55.33 48.43,55.27 48.79,55.17 49.14,55.04 49.50,54.90 49.86,54.70 50.22,54.41 50.58,54.23 50.93,54.02 51.29,53.52 51.65,52.88 52.01,52.28 52.37,51.73 52.73,51.15 53.08,50.57 53.44,49.96 53.80,49.25 54.16,48.99 54.52,49.05 54.88,49.24 55.23,49.19 55.59,48.86 55.95,48.37 56.31,47.71 56.67,46.90 57.03,46.40 57.38,45.82 57.74,45.13 58.10,44.54 58.46,44.07 58.82,43.69 59.18,43.29 59.53,42.83 59.89,42.18 60.25,41.61 60.61,41.10 60.97,40.53 61.33,39.89 61.68,39.43 62.04,39.20 62.40,39.07 62.76,38.58 63.12,37.73 63.47,36.94 63.83,36.19 64.19,35.51 64.55,35.10 64.91,34.77 65.27,34.36 65.62,33.87 65.98,33.23 66.34,32.55 66.70,31.79 67.06,31.11 67.42,30.42 67.77,29.77 68.13,29.20 68.49,28.67 68.85,28.27 69.21,27.82 69.57,27.29 69.92,26.73 70.28,26.17 70.64,25.54 71.00,24.81 71.36,24.07 71.72,23.44 72.07,22.87 72.43,22.34 72.79,21.88 73.15,21.47 73.51,21.02 73.87,20.63 74.22,20.28 74.58,19.97 74.94,19.48 75.30,18.85 75.66,18.13 76.01,17.37 76.37,16.68 76.73,15.86 77.09,4.00 77.45,4.64 77.81,5.20 78.16,5.73 78.52,6.48 78.88,6.71 79.24,6.93 79.60,8.00 79.96,8.41 80.31,9.58 80.67,9.49 81.03,9.87 81.39,10.16 81.75,11.02 82.11,11.50 82.46,11.81 82.82,12.29 83.18,12.92 83.54,13.72 83.90,14.59 84.26,14.99 84.61,15.35 84.97,15.88 85.33,16.14 85.69,16.53 86.05,16.62 86.40,17.95 86.76,17.42 87.12,18.68 87.48,17.91 87.84,18.12 88.20,18.20 88.55,18.45 88.91,18.67 89.27,19.19 89.63,19.49 89.99,20.21 90.35,21.19 90.70,21.73 91.06,22.08 91.42,22.05 91.78,22.70 92.14,23.09 92.50,23.55 92.85,24.52 93.21,24.73 93.57,25.47 93.93,26.16 94.29,26.57 94.65,27.30 95.00,27.47 95.36,27.67 95.72,28.02 96.08,28.66 96.44,28.98 96.80,29.18 97.15,29.28 97.51,29.54 97.87,29.81 98.23,30.05 98.59,30.76 98.94,31.43 99.30,31.23 99.66,31.96 100.02,32.68 100.38,33.46 100.74,33.09 101.09,34.54 101.45,34.70 101.81,34.46 102.17,34.48 102.53,34.97 102.89,35.93 103.24,36.39 103.60,36.55 103.96,37.46 104.32,37.47 104.68,37.76 105.04,38.35 105.39,39.51 105.75,39.57 106.11,40.06 106.47,40.37 106.83,40.29 107.19,40.62 107.54,41.15 107.90,41.67 108.26,42.22 108.62,42.95 108.98,43.54 109.33,44.43 109.69,44.74 110.05,45.05 110.41,45.49 110.77,46.62 111.13,45.67 111.48,45.69 111.84,46.17 112.20,46.03 112.56,46.52 112.92,47.12 113.28,48.20 113.63,48.72 113.99,49.42 114.35,49.11 114.71,49.25 115.07,49.88 115.43,50.29 115.78,50.46 116.14,51.12 116.50,51.43 116.86,53.16 117.22,52.40 117.58,52.18 117.93,52.61 118.29,53.42 118.65,53.70 119.01,53.97 119.37,54.21 119.73,54.52 120.08,54.60 120.44,55.21 120.80,56.00 121.16,55.95 121.52,55.65 121.87,55.51 122.23,55.21 122.59,55.29 122.95,55.12 123.31,54.83 123.67,54.39 124.02,54.34 124.38,53.82 124.74,53.09 125.10,52.69 125.46,52.06 125.82,51.33 126.17,50.86 126.53,50.10 126.89,49.82 127.25,49.05 127.61,49.15 127.97,49.38 128.32,49.63 128.68,49.31 129.04,48.72 129.40,47.50 129.76,47.18 130.12,46.44 130.47,46.38 130.83,45.24 131.19,44.65 131.55,44.16 131.91,43.78 132.27,43.48 132.62,43.55 132.98,41.96 133.34,41.69 133.70,41.21 134.06,40.88 134.41,39.91 134.77,39.47 135.13,39.35 135.49,39.08 135.85,38.67 136.21,37.56 136.56,37.01 136.92,36.48 137.28,35.44 137.64,35.19 138.00,35.12 138.36,34.40 138.71,33.98 139.07,33.11 139.43,32.66 139.79,31.74 140.15,31.00 140.51,30.29 140.86,29.95 141.22,29.25 141.58,28.81 141.94,28.67 142.30,28.01 142.66,27.45 143.01,26.95 143.37,26.33 143.73,25.70 144.09,25.11 144.45,24.54 144.80,23.77 145.16,23.33 145.52,23.31 145.88,22.19 146.24,21.65 146.60,21.32 146.95,20.84 147.31,20.64 147.67,20.06 148.03,19.78 148.39,19.36 148.75,18.53 149.10,17.71 149.46,16.87 149.82,15.52 150.18,4.31 150.54,4.31 150.90,5.60 151.25,4.68 151.61,6.11 151.97,7.53 152.33,6.50 152.69,8.23 153.05,7.95 153.40,7.95 153.76,7.91 154.12,10.42 154.48,10.07 154.84,9.52 155.20,11.67 155.55,11.70 155.91,11.91 156.27,12.53 156.63,11.40 156.99,12.96 157.34,14.05 157.70,14.78 158.06,15.60 158.42,15.15 158.78,16.44 159.14,15.23 159.49,16.91 159.85,16.60 160.21,15.90 160.57,14.67 160.93,17.63 161.29,16.91 161.64,17.20 162.00,18.53 162.36,17.98 162.72,17.98 163.08,17.09 163.44,19.30 163.79,20.98 164.15,20.71 164.51,21.31 164.87,20.94 165.23,21.13 165.59,21.31 165.94,24.53 166.30,23.29 166.66,21.41 167.02,24.68 167.38,26.41 167.73,27.74 168.09,25.13 168.45,25.13 168.81,26.44 169.17,26.12 169.53,28.41 169.88,27.99 170.24,27.20 170.60,29.54 170.96,27.29 171.32,27.45 171.68,29.91 172.03,30.95 172.39,30.63 172.75,30.21 173.11,29.29 173.47,30.95 173.83,28.93 174.18,32.47 174.54,33.83 174.90,32.87 175.26,32.42 175.62,32.96 175.98,33.90 176.33,34.84 176.69,35.57 177.05,36.22 177.41,36.90 177.77,36.32 178.13,38.35 178.48,41.47 178.84,39.56 179.20,40.24 179.56,39.65 179.92,40.98 180.27,40.05 180.63,41.72 180.99,41.84 181.35,42.36 181.71,42.85 182.07,44.98 182.42,43.99 182.78,45.02 183.14,42.43 183.50,43.70 183.86,44.63 184.22,41.90 184.57,44.46 184.93,44.54 185.29,45.65 185.65,45.64 186.01,48.45 186.37,47.72 186.72,47.25 187.08,46.63 187.44,47.62 187.80,49.38 188.16,48.94 188.52,49.31 188.87,50.22 189.23,49.88 189.59,49.04 189.95,51.38 190.31,51.10 190.67,52.87 191.02,52.34 191.38,53.45 191.74,52.64 192.10,52.42 192.46,51.30 192.81,49.88 193.17,50.07 193.53,52.52 193.89,53.37 194.25,54.08 194.61,54.64 194.96,55.26 195.32,53.27 195.68,54.69 196.04,51.42 196.40,53.13 196.76,54.41 197.11,53.67 197.47,52.71 197.83,52.47 198.19,52.51 198.55,48.60 198.91,49.23 199.26,50.56 199.62,48.25 199.98,49.35 200.34,49.27 200.70,49.96 201.06,49.59 201.41,47.84 201.77,46.71 202.13,47.44 202.49,45.10 202.85,43.01 203.20,42.81 203.56,43.94 203.92,44.70 204.28,41.26 204.64,43.00 205.00,40.12 205.35,41.70 205.71,42.97 206.07,41.73 206.43,40.64 206.79,40.06 207.15,40.08 207.50,39.91 207.86,38.74 208.22,38.78 208.58,39.02 208.94,38.21 209.30,34.88 209.65,35.23 210.01,32.40 210.37,34.42 210.73,33.88 211.09,34.10 211.45,32.77 211.80,33.95 212.16,31.59 212.52,32.52 212.88,30.23 213.24,30.30 213.60,30.45 213.95,29.15 214.31,28.28 214.67,28.51 215.03,28.46 215.39,27.57 215.74,27.18 216.10,26.98 216.46,26.90 216.82,25.28 217.18,24.62 217.54,23.95 217.89,23.49 218.25,23.12 218.61,22.65 218.97,22.18 219.33,21.83 219.69,21.91 220.04,22.26 220.40,22.55 220.76,19.89 221.12,19.89 221.48,19.97 221.84,19.77 222.19,19.62 222.55,16.18 222.91,14.54 223.27,6.56 223.63,6.56 223.99,11.90 224.34,11.90 224.70,11.90 225.06,7.72 225.42,7.72 225.78,17.15 226.13,14.55 226.49,14.55 226.85,14.55 227.21,14.55 227.57,13.04 227.93,13.04 228.28,13.04 228.64,12.11 229.00,12.11 229.36,12.11 229.72,14.33 230.08,14.33 230.43,14.33 230.79,17.56 231.15,17.56 231.51,17.56 231.87,20.87 232.23,15.52 232.58,15.52 232.94,12.90 233.30,12.90 233.66,12.90 234.02,9.99 234.38,9.99 234.73,20.69 235.09,20.69 235.45,14.38 235.81,14.38 236.17,19.28 236.53,19.28 236.88,19.28 237.24,24.53 237.60,19.21 237.96,19.21 238.32,19.21 238.67,16.70 239.03,16.70 239.39,16.70 239.75,12.45 240.11,25.61 240.47,25.61 240.82,25.61 241.18,25.13 241.54,25.13 241.90,25.13 242.26,25.13 242.62,30.50 242.97,30.50 243.33,22.83 243.69,29.66 244.05,29.66 244.41,29.66 244.77,29.66 245.12,31.54 245.48,31.54 245.84,29.40 246.20,29.40 246.56,29.40 246.92,25.72 247.27,25.72 247.63,35.49 247.99,35.49 248.35,32.41 248.71,32.41 249.07,33.67 249.42,33.67 249.78,33.67 250.14,36.38 250.50,36.38 250.86,27.21 251.21,35.91 251.57,35.91 251.93,35.91 252.29,29.00 252.65,37.31 253.01,37.31 253.36,37.31 253.72,35.37 254.08,35.37 254.44,35.37 254.80,35.26 255.16,42.61 255.51,42.61 255.87,42.61 256.23,32.85 256.59,42.33 256.95,42.33 257.31,42.33 257.66,37.71 258.02,37.71 258.38,37.71 258.74,42.85 259.10,42.85 259.46,42.85 259.81,47.08 260.17,47.08 260.53,47.08 260.89,49.67 261.25,40.87 261.60,40.87 261.96,43.96 262.32,43.96 262.68,43.96 263.04,51.50 263.40,45.58 263.75,45.58 264.11,45.58 264.47,52.65 264.83,39.79 265.19,39.79 265.55,40.63 265.90,40.63 266.26,40.63 266.62,41.89 266.98,41.89 267.34,46.14 267.70,46.14 268.05,46.14 268.41,48.42 268.77,48.42 269.13,48.42 269.49,53.18 269.85,48.05 270.20,47.59 270.56,47.59 270.92,47.59 271.28,43.99 271.64,43.99 272.00,43.99 272.35,46.19 272.71,46.19 273.07,50.68 273.43,48.10 273.79,48.10 274.14,48.10 274.50,39.59 274.86,39.59 275.22,46.20 275.58,46.20 275.94,46.20 276.29,43.16 276.65,43.16 277.01,43.16 277.37,33.68 277.73,33.68 278.09,33.68 278.44,37.50 278.80,37.50 279.16,41.72 279.52,35.53 279.88,35.53 280.24,35.53 280.59,37.28 280.95,37.28 281.31,27.63 281.67,32.24 282.03,39.03 282.39,39.03 282.74,32.14 283.10,32.14 283.46,32.14 283.82,28.23 284.18,28.23 284.53,28.23 284.89,33.32 285.25,33.32 285.61,33.32 285.97,29.19 286.33,30.37 286.68,30.37 287.04,30.37 287.40,30.37 287.76,28.07 288.12,28.07 288.48,26.75 288.83,26.75 289.19,26.75 289.55,25.41 289.91,25.41 290.27,25.41 290.63,23.44 290.98,23.44 291.34,23.44 291.70,22.26 292.06,22.26 292.42,22.26 292.78,22.65 293.13,22.65 293.49,22.65 293.85,12.48 294.21,12.48 294.57,12.48 294.93,12.48 295.28,11.98 295.64,11.98 296.00,10.06" />
</svg>