<svg width="300" height="60" xmlns="http://www.w3.org/2000/svg">
  <polyline fill="rgba(255,200,0,0.3)" stroke="#ffbb00" stroke-width="2" points="4.00,47.01 4.22,47.23 4.43,47.63 4.65,47.78 4.86,46.82 5.08,45.76 5.30,44.93 5.51,44.91 5.73,45.89 5.95,48.53 6.16,49.55 6.38,48.62 6.59,47.44 6.81,48.30 7.03,52.07 7.24,51.47 7.46,51.29 7.67,51.39 7.89,51.06 8.11,50.44 8.32,49.38 8.54,48.76 8.75,45.57 8.97,44.57 9.19,44.62 9.40,43.39 9.62,42.45 9.84,40.18 10.05,39.74 10.27,39.13 10.48,38.73 10.70,37.69 10.92,36.18 11.13,35.24 11.35,32.54 11.56,34.40 11.78,35.34 12.00,36.84 12.21,38.00 12.43,38.99 12.65,40.23 12.86,40.00 13.08,40.36 13.29,40.81 13.51,40.72 13.73,40.95 13.94,41.77 14.16,41.35 14.37,40.89 14.59,45.22 14.81,46.54 15.02,44.55 15.24,42.93 15.46,43.20 15.67,46.17 15.89,47.12 16.10,48.39 16.32,48.45 16.54,47.34 16.75,47.72 16.97,48.59 17.18,49.08 17.40,49.89 17.62,50.29 17.83,50.28 18.05,50.63 18.26,50.86 18.48,50.59 18.70,50.99 18.91,51.59 19.13,51.93 19.35,51.76 19.56,52.34 19.78,52.78 19.99,53.34 20.21,53.72 20.43,53.76 20.64,54.75 20.86,55.09 21.07,55.93 21.29,55.11 21.51,54.29 21.72,52.95 21.94,52.26 22.16,52.17 22.37,51.45 22.59,50.71 22.80,49.64 23.02,47.87 23.24,46.17 23.45,46.09 23.67,45.77 23.88,43.65 24.10,41.27 24.32,42.48 24.53,42.41 24.75,41.88 24.97,41.92 25.18,40.81 25.40,40.37 25.61,40.01 25.83,40.69 26.05,41.55 26.26,42.28 26.48,42.14 26.69,41.44 26.91,39.68 27.13,38.08 27.34,36.89 27.56,35.88 27.77,34.01 27.99,31.28 28.21,28.03 28.42,26.82 28.64,24.93 28.86,25.86 29.07,28.17 29.29,28.75 29.50,28.66 29.72,28.71 29.94,30.35 30.15,31.07 30.37,29.88 30.58,27.84 30.80,27.04 31.02,26.79 31.23,26.52 31.45,26.43 31.67,24.77 31.88,23.48 32.10,22.61 32.31,21.68 32.53,20.49 32.75,19.33 32.96,18.24 33.18,18.48 33.39,18.87 33.61,18.32 33.83,17.70 34.04,16.80 34.26,15.96 34.48,14.64 34.69,14.16 34.91,13.52 35.12,12.19 35.34,11.48 35.56,10.61 35.77,10.41 35.99,11.22 36.20,13.51 36.42,14.16 36.64,15.20 36.85,16.25 37.07,18.12 37.28,19.13 37.50,18.16 37.72,18.05 37.93,16.07 38.15,16.03 38.37,19.67 38.58,20.20 38.80,19.54 39.01,19.38 39.23,19.82 39.45,20.26 39.66,21.18 39.88,21.74 40.09,21.93 40.31,21.79 40.53,21.68 40.74,21.85 40.96,22.41 41.18,22.09 41.39,22.82 41.61,22.71 41.82,22.24 42.04,23.27 42.26,25.67 42.47,25.63 42.69,26.43 42.90,29.11 43.12,29.62 43.34,33.95 43.55,34.97 43.77,34.17 43.99,34.65 44.20,34.93 44.42,35.18 44.63,35.26 44.85,35.47 45.07,35.63 45.28,35.58 45.50,35.28 45.71,35.44 45.93,35.97 46.15,36.88 46.36,39.05 46.58,38.28 46.79,36.72 47.01,36.79 47.23,37.18 47.44,38.22 47.66,38.66 47.88,38.87 48.09,38.91 48.31,38.69 48.52,38.49 48.74,38.39 48.96,38.35 49.17,37.90 49.39,36.54 49.60,34.54 49.82,34.32 50.04,35.03 50.25,35.46 50.47,38.06 50.69,39.24 50.90,39.31 51.12,39.14 51.33,38.68 51.55,38.25 51.77,39.36 51.98,40.21 52.20,40.76 52.41,40.98 52.63,41.79 52.85,42.50 53.06,42.83 53.28,43.01 53.50,43.05 53.71,42.96 53.93,42.99 54.14,42.64 54.36,41.12 54.58,39.95 54.79,38.92 55.01,38.28 55.22,38.56 55.44,39.04 55.66,40.60 55.87,40.96 56.09,41.14 56.30,41.78 56.52,42.01 56.74,42.25 56.95,42.77 57.17,43.12 57.39,43.40 57.60,43.68 57.82,44.49 58.03,47.39 58.25,47.86 58.47,46.10 58.68,44.35 58.90,43.98 59.11,44.47 59.33,45.56 59.55,45.92 59.76,45.61 59.98,46.23 60.20,45.71 60.41,46.37 60.63,46.47 60.84,46.03 61.06,45.67 61.28,44.84 61.49,44.89 61.71,44.25 61.92,43.16 62.14,42.80 62.36,42.14 62.57,41.92 62.79,41.94 63.01,41.49 63.22,41.06 63.44,40.08 63.65,39.08 63.87,38.12 64.09,37.75 64.30,37.37 64.52,36.88 64.73,36.52 64.95,35.94 65.17,35.81 65.38,35.64 65.60,35.42 65.81,34.14 66.03,33.23 66.25,31.86 66.46,31.61 66.68,31.29 66.90,30.58 67.11,30.11 67.33,30.61 67.54,29.49 67.76,27.28 67.98,25.17 68.19,25.59 68.41,25.75 68.62,24.44 68.84,23.28 69.06,23.16 69.27,21.00 69.49,18.96 69.71,17.88 69.92,16.50 70.14,15.90 70.35,16.93 70.57,17.39 70.79,18.33 71.00,17.16 71.22,16.65 71.43,16.47 71.65,16.43 71.87,15.96 72.08,13.36 72.30,12.47 72.52,11.39 72.73,10.97 72.95,10.39 73.16,8.08 73.38,6.79 73.60,5.68 73.81,4.67 74.03,4.67 74.24,5.58 74.46,7.99 74.68,9.36 74.89,8.78 75.11,8.76 75.32,8.96 75.54,8.78 75.76,9.51 75.97,9.53 76.19,8.69 76.41,8.12 76.62,7.29 76.84,6.64 77.05,47.40 77.27,47.04 77.49,47.10 77.70,47.42 77.92,46.64 78.13,45.54 78.35,45.03 78.57,45.01 78.78,45.64 79.00,48.08 79.22,49.57 79.43,48.30 79.65,48.12 79.86,48.36 80.08,52.10 80.30,51.57 80.51,50.78 80.73,51.82 80.94,50.43 81.16,50.69 81.38,49.77 81.59,47.97 81.81,45.63 82.03,44.05 82.24,44.39 82.46,42.96 82.67,42.84 82.89,40.31 83.11,39.63 83.32,39.08 83.54,38.61 83.75,37.47 83.97,36.15 84.19,33.68 84.40,33.26 84.62,34.67 84.83,35.22 85.05,37.49 85.27,38.04 85.48,38.49 85.70,40.20 85.92,39.86 86.13,40.51 86.35,41.08 86.56,41.15 86.78,41.78 87.00,41.17 87.21,41.27 87.43,41.21 87.64,45.87 87.86,47.60 88.08,44.59 88.29,42.74 88.51,43.19 88.73,45.54 88.94,46.62 89.16,48.71 89.37,48.51 89.59,47.20 89.81,47.18 90.02,48.79 90.24,49.44 90.45,49.40 90.67,49.97 90.89,50.64 91.10,50.40 91.32,51.21 91.54,50.92 91.75,51.43 91.97,51.71 92.18,52.09 92.40,51.89 92.62,52.19 92.83,53.11 93.05,53.44 93.26,53.68 93.48,53.66 93.70,54.50 93.91,55.31 94.13,56.00 94.34,55.22 94.56,54.15 94.78,52.78 94.99,52.44 95.21,51.74 95.43,51.33 95.64,50.73 95.86,49.60 96.07,47.99 96.29,46.77 96.51,46.10 96.72,45.83 96.94,43.82 97.15,41.40 97.37,42.39 97.59,42.81 97.80,41.71 98.02,41.56 98.24,41.28 98.45,40.16 98.67,39.48 98.88,39.37 99.10,41.26 99.32,41.99 99.53,42.32 99.75,41.32 99.96,39.27 100.18,37.89 100.40,37.10 100.61,35.96 100.83,34.28 101.05,30.74 101.26,27.92 101.48,27.21 101.69,25.05 101.91,26.26 102.13,27.89 102.34,28.70 102.56,28.72 102.77,28.86 102.99,30.35 103.21,30.78 103.42,29.81 103.64,27.72 103.85,27.30 104.07,26.11 104.29,27.17 104.50,25.58 104.72,24.29 104.94,22.65 105.15,22.65 105.37,21.88 105.58,21.13 105.80,19.52 106.02,18.04 106.23,17.91 106.45,18.84 106.66,18.17 106.88,17.22 107.10,16.68 107.31,15.62 107.53,14.47 107.75,13.57 107.96,13.25 108.18,12.03 108.39,11.44 108.61,10.73 108.83,10.34 109.04,11.13 109.26,13.20 109.47,14.20 109.69,14.86 109.91,16.76 110.12,17.51 110.34,18.90 110.56,17.90 110.77,18.22 110.99,15.57 111.20,17.23 111.42,19.79 111.64,20.36 111.85,19.41 112.07,19.43 112.28,19.85 112.50,20.38 112.72,21.09 112.93,21.81 113.15,21.56 113.36,21.56 113.58,21.72 113.80,21.53 114.01,21.94 114.23,21.33 114.45,22.00 114.66,22.30 114.88,22.20 115.09,23.65 115.31,25.48 115.53,25.82 115.74,26.30 115.96,28.86 116.17,30.04 116.39,34.43 116.61,34.76 116.82,34.10 117.04,33.77 117.26,35.61 117.47,35.38 117.69,34.90 117.90,35.23 118.12,35.13 118.34,36.23 118.55,35.30 118.77,35.54 118.98,35.89 119.20,36.88 119.42,39.34 119.63,37.90 119.85,36.98 120.07,36.61 120.28,36.96 120.50,38.07 120.71,38.70 120.93,38.98 121.15,38.96 121.36,38.80 121.58,37.57 121.79,38.22 122.01,38.42 122.23,38.01 122.44,36.90 122.66,34.30 122.87,34.42 123.09,35.03 123.31,34.55 123.52,37.58 123.74,39.72 123.96,39.25 124.17,39.17 124.39,38.15 124.60,38.49 124.82,39.05 125.04,40.37 125.25,40.73 125.47,41.06 125.68,41.70 125.90,42.49 126.12,42.68 126.33,43.11 126.55,43.17 126.77,42.73 126.98,42.87 127.20,42.17 127.41,40.95 127.63,39.77 127.85,39.18 128.06,37.59 128.28,37.83 128.49,38.44 128.71,40.95 128.93,41.03 129.14,41.03 129.36,41.76 129.58,42.09 129.79,42.23 130.01,42.71 130.22,43.15 130.44,43.33 130.66,43.76 130.87,44.68 131.09,47.35 131.30,46.84 131.52,45.72 131.74,44.11 131.95,43.18 132.17,44.87 132.38,45.39 132.60,46.00 132.82,45.68 133.03,45.86 133.25,45.68 133.47,46.24 133.68,46.20 133.90,46.18 134.11,45.77 134.33,44.59 134.55,44.69 134.76,43.41 134.98,42.78 135.19,41.64 135.41,41.60 135.63,41.27 135.84,41.90 136.06,41.53 136.28,41.04 136.49,39.79 136.71,39.08 136.92,38.07 137.14,37.62 137.36,37.37 137.57,36.93 137.79,36.54 138.00,35.97 138.22,36.16 138.44,35.03 138.65,35.38 138.87,34.06 139.09,32.21 139.30,32.23 139.52,31.47 139.73,30.58 139.95,30.66 140.17,29.79 140.38,30.01 140.60,29.10 140.81,26.82 141.03,26.11 141.25,25.43 141.46,25.80 141.68,24.60 141.89,23.14 142.11,22.96 142.33,21.33 142.54,18.54 142.76,17.81 142.98,16.89 143.19,16.30 143.41,16.52 143.62,17.29 143.84,18.53 144.06,17.13 144.27,16.73 144.49,16.47 144.70,16.36 144.92,15.71 145.14,13.19 145.35,12.70 145.57,11.50 145.79,10.89 146.00,10.17 146.22,7.95 146.43,7.02 146.65,5.76 146.87,5.07 147.08,4.54 147.30,6.07 147.51,7.60 147.73,9.20 147.95,8.88 148.16,8.70 148.38,8.80 148.60,8.62 148.81,9.35 149.03,9.57 149.24,8.76 149.46,8.13 149.68,7.42 149.89,6.06 150.11,47.66 150.32,47.09 150.54,47.09 150.76,46.94 150.97,46.54 151.19,44.30 151.40,46.52 151.62,44.97 151.84,47.21 152.05,47.45 152.27,48.06 152.49,48.47 152.70,45.68 152.92,47.80 153.13,50.66 153.35,51.51 153.57,49.83 153.78,51.51 154.00,49.68 154.21,50.27 154.43,50.21 154.65,45.88 154.86,44.25 155.08,43.79 155.30,43.64 155.51,42.67 155.73,41.20 155.94,39.49 156.16,38.25 156.38,37.42 156.59,36.67 156.81,35.73 157.02,35.31 157.24,31.89 157.46,33.44 157.67,33.72 157.89,35.02 158.11,36.50 158.32,38.01 158.54,39.51 158.75,38.64 158.97,38.92 159.19,41.02 159.40,40.39 159.62,39.55 159.83,42.74 160.05,42.44 160.27,41.69 160.48,41.48 160.70,45.92 160.91,46.01 161.13,44.12 161.35,43.00 161.56,43.41 161.78,44.95 162.00,48.39 162.21,49.95 162.43,46.67 162.64,47.16 162.86,48.30 163.08,49.32 163.29,49.97 163.51,48.52 163.72,49.07 163.94,49.57 164.16,50.18 164.37,50.73 164.59,51.34 164.81,51.30 165.02,52.28 165.24,51.61 165.45,51.61 165.67,51.31 165.89,53.37 166.10,53.22 166.32,53.71 166.53,54.16 166.75,54.79 166.97,55.28 167.18,55.79 167.40,55.54 167.62,54.32 167.83,51.89 168.05,52.25 168.26,50.22 168.48,49.91 168.70,51.50 168.91,50.04 169.13,48.23 169.34,45.87 169.56,47.53 169.78,45.74 169.99,42.38 170.21,40.61 170.42,41.51 170.64,43.78 170.86,40.88 171.07,40.50 171.29,43.20 171.51,39.85 171.72,39.48 171.94,40.64 172.15,38.95 172.37,40.65 172.59,41.38 172.80,38.77 173.02,38.06 173.23,38.06 173.45,35.95 173.67,35.19 173.88,34.36 174.10,30.66 174.32,28.03 174.53,27.58 174.75,25.73 174.96,26.95 175.18,28.25 175.40,29.57 175.61,26.56 175.83,27.92 176.04,28.64 176.26,31.08 176.48,29.43 176.69,28.41 176.91,27.27 177.13,26.09 177.34,28.14 177.56,26.88 177.77,25.51 177.99,24.64 178.21,24.37 178.42,20.94 178.64,21.30 178.85,18.55 179.07,19.63 179.29,18.25 179.50,17.56 179.72,18.72 179.93,16.58 180.15,15.22 180.37,15.99 180.58,14.53 180.80,13.39 181.02,13.40 181.23,12.26 181.45,11.25 181.66,11.25 181.88,10.40 182.10,10.38 182.31,11.76 182.53,13.85 182.74,14.59 182.96,15.48 183.18,19.24 183.39,19.04 183.61,15.25 183.83,16.60 184.04,13.71 184.26,16.39 184.47,19.97 184.69,19.36 184.91,18.47 185.12,18.93 185.34,20.86 185.55,21.29 185.77,18.73 185.99,20.56 186.20,21.31 186.42,21.31 186.64,20.70 186.85,18.97 187.07,20.70 187.28,22.57 187.50,20.51 187.72,22.18 187.93,23.95 188.15,23.44 188.36,23.44 188.58,23.58 188.80,26.76 189.01,28.99 189.23,29.34 189.44,33.96 189.66,34.28 189.88,32.89 190.09,32.69 190.31,36.16 190.53,36.26 190.74,33.67 190.96,34.17 191.17,34.79 191.39,36.11 191.61,34.34 191.82,35.82 192.04,34.85 192.25,37.04 192.47,38.47 192.69,37.63 192.90,37.63 193.12,36.80 193.34,36.69 193.55,37.67 193.77,38.50 193.98,38.74 194.20,38.99 194.42,37.97 194.63,38.48 194.85,36.49 195.06,37.64 195.28,38.11 195.50,37.89 195.71,34.39 195.93,35.28 196.15,33.43 196.36,35.46 196.58,35.24 196.79,40.00 197.01,38.70 197.23,38.39 197.44,38.26 197.66,38.54 197.87,39.50 198.09,40.66 198.31,38.79 198.52,40.84 198.74,42.18 198.95,43.48 199.17,41.40 199.39,42.38 199.60,42.87 199.82,43.05 200.04,42.30 200.25,42.40 200.47,42.40 200.68,39.21 200.90,39.86 201.12,36.75 201.33,38.35 201.55,40.45 201.76,38.60 201.98,40.65 202.20,41.78 202.41,42.71 202.63,42.92 202.85,43.16 203.06,43.85 203.28,42.33 203.49,43.81 203.71,43.84 203.93,46.05 204.14,45.44 204.36,46.54 204.57,46.54 204.79,45.14 205.01,43.98 205.22,42.87 205.44,46.19 205.66,45.86 205.87,45.01 206.09,45.60 206.30,45.60 206.52,46.07 206.74,46.16 206.95,45.87 207.17,45.87 207.38,45.58 207.60,44.40 207.82,43.46 208.03,42.57 208.25,42.37 208.46,40.07 208.68,41.78 208.90,40.31 209.11,41.33 209.33,40.13 209.55,40.59 209.76,39.29 209.98,38.98 210.19,37.48 210.41,37.03 210.63,36.22 210.84,36.87 211.06,35.28 211.27,36.28 211.49,35.04 211.71,35.61 211.92,33.51 212.14,32.66 212.36,32.33 212.57,29.95 212.79,30.48 213.00,30.11 213.22,30.05 213.44,27.96 213.65,27.58 213.87,26.54 214.08,26.54 214.30,25.50 214.52,25.67 214.73,25.20 214.95,22.58 215.17,22.78 215.38,21.46 215.60,18.47 215.81,16.37 216.03,17.94 216.25,15.21 216.46,14.49 216.68,16.79 216.89,17.48 217.11,17.85 217.33,16.87 217.54,16.50 217.76,16.24 217.97,15.59 218.19,14.00 218.41,13.14 218.62,11.35 218.84,10.96 219.06,10.52 219.27,8.01 219.49,6.71 219.70,5.59 219.92,4.66 220.14,4.00 220.35,6.30 220.57,8.86 220.78,9.35 221.00,9.53 221.22,9.15 221.43,9.23 221.65,9.23 221.87,9.31 222.08,9.84 222.30,8.84 222.51,7.99 222.73,7.88 222.95,6.80 223.16,46.86 223.38,46.86 223.59,46.86 223.81,46.90 224.03,46.90 224.24,46.90 224.46,46.90 224.68,44.82 224.89,49.99 225.11,49.99 225.32,43.44 225.54,43.44 225.76,48.12 225.97,48.12 226.19,48.12 226.40,43.66 226.62,43.66 226.84,47.63 227.05,47.63 227.27,47.63 227.48,49.38 227.70,37.91 227.92,37.91 228.13,37.28 228.35,37.28 228.57,37.28 228.78,34.45 229.00,34.45 229.21,34.45 229.43,30.51 229.65,30.51 229.86,30.51 230.08,31.83 230.29,31.83 230.51,31.83 230.73,33.68 230.94,33.68 231.16,33.68 231.38,37.89 231.59,37.89 231.81,37.89 232.02,37.32 232.24,37.32 232.46,34.37 232.67,34.37 232.89,34.37 233.10,34.09 233.32,34.09 233.54,34.09 233.75,35.47 233.97,35.47 234.19,36.47 234.40,36.47 234.62,36.47 234.83,40.57 235.05,40.57 235.27,43.82 235.48,43.82 235.70,43.82 235.91,46.77 236.13,46.77 236.35,46.77 236.56,48.78 236.78,48.78 236.99,50.55 237.21,50.55 237.43,50.55 237.64,52.89 237.86,46.59 238.08,51.06 238.29,51.06 238.51,51.06 238.72,51.06 238.94,54.01 239.16,51.43 239.37,53.64 239.59,53.64 239.80,53.64 240.02,54.74 240.24,54.74 240.45,54.74 240.67,49.15 240.89,49.15 241.10,49.15 241.32,49.35 241.53,49.35 241.75,49.35 241.97,49.35 242.18,44.86 242.40,49.25 242.61,49.25 242.83,49.25 243.05,39.80 243.26,39.80 243.48,39.80 243.70,38.84 243.91,38.84 244.13,38.84 244.34,38.84 244.56,31.95 244.78,37.54 244.99,37.54 245.21,30.91 245.42,30.91 245.64,39.49 245.86,32.54 246.07,32.54 246.29,32.54 246.50,32.54 246.72,33.70 246.94,33.70 247.15,33.70 247.37,26.56 247.59,27.94 247.80,27.94 248.02,27.94 248.23,23.19 248.45,23.19 248.67,23.19 248.88,23.65 249.10,23.65 249.31,23.65 249.53,31.20 249.75,31.20 249.96,31.20 250.18,31.91 250.40,31.91 250.61,30.14 250.83,30.14 251.04,30.14 251.26,27.46 251.48,27.46 251.69,27.46 251.91,18.98 252.12,18.98 252.34,18.98 252.56,20.36 252.77,20.36 252.99,14.95 253.21,14.95 253.42,16.19 253.64,16.19 253.85,11.98 254.07,12.75 254.29,12.75 254.50,12.75 254.72,12.75 254.93,9.95 255.15,9.95 255.37,9.95 255.58,10.54 255.80,10.54 256.01,10.54 256.23,18.68 256.45,8.92 256.66,8.92 256.88,8.92 257.10,14.86 257.31,14.86 257.53,14.86 257.74,12.11 257.96,12.11 258.18,12.11 258.39,15.32 258.61,15.32 258.82,15.32 259.04,6.72 259.26,17.19 259.47,17.19 259.69,17.19 259.91,5.54 260.12,12.44 260.34,12.44 260.55,12.44 260.77,18.92 260.99,18.92 261.20,18.92 261.42,18.92 261.63,22.42 261.85,22.42 262.07,22.42 262.28,22.42 262.50,33.00 262.72,33.00 262.93,33.00 263.15,32.59 263.36,32.59 263.58,33.71 263.80,33.71 264.01,33.71 264.23,35.95 264.44,35.95 264.66,31.72 264.88,31.72 265.09,31.72 265.31,36.31 265.52,36.31 265.74,36.31 265.96,36.31 266.17,37.19 266.39,37.19 266.61,37.19 266.82,38.18 267.04,38.18 267.25,38.18 267.47,37.04 267.69,37.47 267.90,37.47 268.12,37.47 268.33,39.42 268.55,39.42 268.77,39.42 268.98,40.66 269.20,32.04 269.42,32.04 269.63,37.45 269.85,37.45 270.06,41.07 270.28,41.07 270.50,41.07 270.71,42.17 270.93,42.17 271.14,42.17 271.36,38.19 271.58,38.19 271.79,41.36 272.01,41.36 272.23,41.36 272.44,43.90 272.66,43.90 272.87,43.90 273.09,44.98 273.31,44.98 273.52,46.46 273.74,39.49 273.95,39.49 274.17,41.14 274.39,41.14 274.60,41.14 274.82,45.26 275.03,45.26 275.25,45.26 275.47,46.73 275.68,46.73 275.90,47.59 276.12,47.59 276.33,41.10 276.55,44.07 276.76,44.07 276.98,44.07 277.20,38.33 277.41,47.05 277.63,47.05 277.84,47.05 278.06,39.77 278.28,39.77 278.49,46.91 278.71,44.92 278.93,44.92 279.14,44.92 279.36,44.92 279.57,40.93 279.79,46.42 280.01,46.42 280.22,46.42 280.44,40.55 280.65,40.55 280.87,40.55 281.09,35.42 281.30,35.42 281.52,35.42 281.74,39.21 281.95,39.21 282.17,33.57 282.38,33.57 282.60,33.57 282.82,29.89 283.03,36.99 283.25,36.99 283.46,31.23 283.68,31.23 283.90,34.44 284.11,34.44 284.33,34.44 284.54,24.79 284.76,30.19 284.98,30.19 285.19,30.19 285.41,29.16 285.63,29.16 285.84,29.16 286.06,28.04 286.27,28.04 286.49,18.03 286.71,20.68 286.92,20.68 287.14,20.68 287.35,20.68 287.57,23.44 287.79,23.44 288.00,22.02 288.22,20.94 288.44,20.94 288.65,20.94 288.87,13.56 289.08,16.71 289.30,16.71 289.52,16.71 289.73,16.71 289.95,16.74 290.16,16.74 290.38,16.74 290.60,16.45 290.81,16.45 291.03,15.76 291.25,13.30 291.46,13.30 291.68,13.30 291.89,11.96 292.11,11.96 292.33,11.96 292.54,10.05 292.76,10.05 292.97,10.05 293.19,8.62 293.41,8.62 293.62,8.62 293.84,11.57 294.05,11.57 294.27,9.44 294.49,10.41 294.70,10.41 294.92,10.41 295.14,10.41 295.35,8.89 295.57,8.89 295.78,8.89 296.00,9.09" />
</svg>