<svg width="300" height="60" xmlns="http://www.w3.org/2000/svg">
  <polyline fill="rgba(255,200,0,0.3)" stroke="#ffbb00" stroke-width="2" points="4.00,14.62 4.44,13.63 4.88,13.48 5.32,12.38 5.76,11.49 6.20,10.91 6.64,10.23 7.08,9.47 7.52,8.80 7.96,8.17 8.40,7.79 8.84,7.25 9.28,7.30 9.72,8.11 10.16,8.72 10.60,9.14 11.04,9.41 11.48,9.50 11.92,9.52 12.36,9.72 12.80,9.63 13.23,9.36 13.67,9.10 14.11,8.87 14.55,8.63 14.99,8.35 15.43,7.82 15.87,7.07 16.31,6.28 16.75,5.41 17.19,4.80 17.63,4.46 18.07,4.45 18.51,4.61 18.95,5.14 19.39,5.87 19.83,7.04 20.27,7.95 20.71,8.78 21.15,9.82 21.59,10.79 22.03,11.18 22.47,11.42 22.91,11.78 23.35,12.34 23.79,12.41 24.23,12.71 24.67,12.80 25.11,13.06 25.55,13.21 25.99,12.80 26.43,12.73 26.87,12.67 27.31,12.64 27.75,11.95 28.19,11.56 28.63,11.17 29.07,10.68 29.51,10.05 29.95,9.43 30.39,9.07 30.83,8.60 31.27,8.79 31.70,9.12 32.14,9.96 32.58,11.34 33.02,13.52 33.46,14.44 33.90,15.54 34.34,15.43 34.78,15.48 35.22,16.29 35.66,16.59 36.10,16.83 36.54,16.39 36.98,15.78 37.42,15.10 37.86,14.34 38.30,13.60 38.74,13.64 39.18,14.05 39.62,15.53 40.06,16.51 40.50,17.03 40.94,18.92 41.38,19.84 41.82,20.09 42.26,21.00 42.70,20.83 43.14,21.93 43.58,22.04 44.02,22.59 44.46,23.19 44.90,23.66 45.34,21.95 45.78,21.31 46.22,20.92 46.66,22.00 47.10,22.29 47.54,23.39 47.98,25.63 48.42,28.22 48.86,31.43 49.30,33.52 49.73,35.21 50.17,34.62 50.61,34.94 51.05,35.88 51.49,37.17 51.93,38.87 52.37,40.30 52.81,40.29 53.25,39.30 53.69,38.28 54.13,37.56 54.57,37.28 55.01,37.42 55.45,38.30 55.89,40.14 56.33,41.98 56.77,42.07 57.21,43.51 57.65,45.46 58.09,47.61 58.53,49.79 58.97,51.84 59.41,53.44 59.85,54.69 60.29,55.36 60.73,54.90 61.17,53.98 61.61,52.93 62.05,50.26 62.49,48.38 62.93,45.45 63.37,45.49 63.81,42.66 64.25,43.34 64.69,42.38 65.13,41.36 65.57,39.77 66.01,38.77 66.45,37.68 66.89,38.49 67.33,40.99 67.77,43.91 68.20,45.42 68.64,44.96 69.08,41.33 69.52,42.85 69.96,40.07 70.40,37.25 70.84,40.58 71.28,40.74 71.72,41.47 72.16,39.59 72.60,36.70 73.04,35.36 73.48,34.26 73.92,31.99 74.36,30.99 74.80,29.87 75.24,30.97 75.68,30.97 76.12,31.20 76.56,31.12 77.00,30.35 77.44,14.55 77.88,13.46 78.32,13.18 78.76,12.25 79.20,11.20 79.64,10.69 80.08,9.97 80.52,9.34 80.96,8.65 81.40,7.90 81.84,7.10 82.28,6.71 82.72,6.94 83.16,7.83 83.60,8.32 84.04,8.82 84.48,9.08 84.92,9.33 85.36,9.27 85.80,9.37 86.23,9.37 86.67,9.11 87.11,8.82 87.55,8.49 87.99,8.50 88.43,8.17 88.87,7.49 89.31,6.70 89.75,6.10 90.19,5.20 90.63,4.54 91.07,4.13 91.51,4.00 91.95,4.13 92.39,4.52 92.83,4.99 93.27,6.66 93.71,7.62 94.15,8.64 94.59,9.76 95.03,10.71 95.47,11.10 95.91,11.17 96.35,11.64 96.79,12.20 97.23,12.10 97.67,12.25 98.11,12.74 98.55,12.51 98.99,12.74 99.43,12.67 99.87,12.57 100.31,12.40 100.75,12.87 101.19,11.61 101.63,11.33 102.07,11.06 102.51,10.44 102.95,9.74 103.39,9.21 103.83,8.82 104.27,8.29 104.70,8.55 105.14,8.91 105.58,9.67 106.02,11.42 106.46,13.08 106.90,14.28 107.34,15.50 107.78,15.59 108.22,15.29 108.66,15.13 109.10,16.91 109.54,16.88 109.98,16.91 110.42,15.95 110.86,14.60 111.30,14.33 111.74,13.35 112.18,13.41 112.62,13.74 113.06,14.66 113.50,15.88 113.94,16.97 114.38,19.21 114.82,19.71 115.26,20.40 115.70,20.76 116.14,20.17 116.58,21.65 117.02,22.27 117.46,22.90 117.90,22.89 118.34,23.45 118.78,21.12 119.22,21.08 119.66,20.65 120.10,21.46 120.54,22.31 120.98,23.41 121.42,25.39 121.86,27.76 122.30,31.28 122.73,33.29 123.17,35.06 123.61,34.04 124.05,34.60 124.49,35.85 124.93,36.77 125.37,38.52 125.81,39.88 126.25,39.95 126.69,39.02 127.13,38.22 127.57,37.23 128.01,36.99 128.45,37.19 128.89,37.95 129.33,40.96 129.77,42.31 130.21,41.89 130.65,43.34 131.09,44.91 131.53,46.89 131.97,49.46 132.41,51.74 132.85,53.52 133.29,54.54 133.73,55.15 134.17,54.75 134.61,53.76 135.05,53.76 135.49,50.00 135.93,48.25 136.37,45.79 136.81,43.91 137.25,44.65 137.69,42.90 138.13,41.13 138.57,39.94 139.01,38.14 139.45,37.35 139.89,38.73 140.33,40.73 140.77,42.79 141.20,45.16 141.64,44.86 142.08,42.86 142.52,42.33 142.96,40.06 143.40,37.16 143.84,40.58 144.28,40.48 144.72,41.62 145.16,40.01 145.60,36.94 146.04,34.27 146.48,33.91 146.92,30.61 147.36,30.38 147.80,29.77 148.24,30.69 148.68,30.75 149.12,31.04 149.56,30.84 150.00,30.43 150.44,14.50 150.88,13.84 151.32,12.59 151.76,12.29 152.20,9.88 152.64,10.01 153.08,9.78 153.52,9.42 153.96,9.05 154.40,6.94 154.84,6.88 155.28,7.36 155.72,6.81 156.16,8.09 156.60,8.46 157.04,9.48 157.48,10.10 157.92,10.40 158.36,10.35 158.80,10.18 159.23,10.22 159.67,9.75 160.11,9.33 160.55,8.87 160.99,8.58 161.43,8.61 161.87,8.74 162.31,6.37 162.75,5.87 163.19,5.28 163.63,4.72 164.07,4.13 164.51,4.03 164.95,4.13 165.39,4.46 165.83,5.02 166.27,5.75 166.71,7.36 167.15,8.19 167.59,9.12 168.03,10.01 168.47,10.60 168.91,12.25 169.35,12.32 169.79,12.32 170.23,12.35 170.67,13.36 171.11,13.06 171.55,14.09 171.99,13.29 172.43,13.26 172.87,13.36 173.31,13.06 173.75,13.53 174.19,12.42 174.63,11.66 175.07,11.43 175.51,10.44 175.95,9.45 176.39,9.58 176.83,8.94 177.27,8.71 177.70,8.75 178.14,9.34 178.58,10.62 179.02,12.69 179.46,12.69 179.90,14.94 180.34,17.01 180.78,16.32 181.22,15.99 181.66,15.99 182.10,16.22 182.54,16.32 182.98,16.19 183.42,15.73 183.86,15.20 184.30,14.87 184.74,14.80 185.18,13.85 185.62,14.18 186.06,14.88 186.50,15.80 186.94,16.85 187.38,18.30 187.82,19.89 188.26,19.47 188.70,20.72 189.14,21.81 189.58,22.70 190.02,23.22 190.46,23.68 190.90,21.57 191.34,23.63 191.78,22.78 192.22,22.51 192.66,19.84 193.10,20.80 193.54,22.45 193.98,21.48 194.42,25.91 194.86,28.38 195.30,30.75 195.73,33.16 196.17,35.70 196.61,34.21 197.05,34.61 197.49,34.31 197.93,34.31 198.37,39.22 198.81,40.97 199.25,40.94 199.69,38.62 200.13,37.36 200.57,36.34 201.01,36.24 201.45,37.07 201.89,38.81 202.33,38.89 202.77,41.41 203.21,41.35 203.65,43.49 204.09,43.82 204.53,43.82 204.97,49.55 205.41,52.45 205.85,54.60 206.29,55.98 206.73,56.00 207.17,53.43 207.61,52.84 208.05,54.78 208.49,52.04 208.93,49.11 209.37,43.17 209.81,41.89 210.25,41.92 210.69,42.65 211.13,39.65 211.57,41.30 212.01,38.07 212.45,38.07 212.89,37.45 213.33,41.99 213.77,42.16 214.20,43.91 214.64,43.91 215.08,41.37 215.52,40.38 215.96,41.04 216.40,36.46 216.84,38.60 217.28,39.31 217.72,40.99 218.16,41.55 218.60,37.33 219.04,34.66 219.48,30.67 219.92,30.67 220.36,31.12 220.80,28.42 221.24,29.57 221.68,30.72 222.12,30.43 222.56,31.15 223.00,30.20 223.44,14.27 223.88,13.84 224.32,7.58 224.76,7.58 225.20,5.90 225.64,5.90 226.08,5.90 226.52,6.30 226.96,6.30 227.40,6.30 227.84,6.59 228.28,6.59 228.72,4.65 229.16,4.65 229.60,4.65 230.04,9.13 230.48,9.13 230.92,9.13 231.36,11.51 231.80,11.51 232.23,11.51 232.67,10.91 233.11,10.91 233.55,10.35 233.99,9.00 234.43,9.00 234.87,8.60 235.31,8.60 235.75,8.60 236.19,7.81 236.63,7.81 237.07,6.36 237.51,6.36 237.95,6.36 238.39,5.50 238.83,5.50 239.27,5.50 239.71,6.59 240.15,6.59 240.59,9.55 241.03,9.55 241.47,9.55 241.91,12.39 242.35,12.39 242.79,13.01 243.23,13.01 243.67,18.78 244.11,17.17 244.55,17.17 244.99,17.17 245.43,14.42 245.87,14.42 246.31,16.63 246.75,12.97 247.19,12.97 247.63,12.97 248.07,12.97 248.51,10.73 248.95,10.73 249.39,10.73 249.83,9.44 250.27,11.62 250.70,11.62 251.14,11.62 251.58,11.16 252.02,17.51 252.46,17.51 252.90,17.51 253.34,17.18 253.78,17.18 254.22,17.18 254.66,16.69 255.10,16.69 255.54,16.92 255.98,16.92 256.42,16.92 256.86,15.90 257.30,15.90 257.74,15.90 258.18,15.24 258.62,15.24 259.06,14.52 259.50,14.52 259.94,14.52 260.38,16.03 260.82,16.03 261.26,19.49 261.70,19.49 262.14,19.49 262.58,22.40 263.02,22.40 263.46,22.40 263.90,14.55 264.34,23.94 264.78,23.38 265.22,23.38 265.66,15.37 266.10,17.40 266.54,17.40 266.98,17.40 267.42,22.54 267.86,22.54 268.30,28.51 268.73,28.51 269.17,28.51 269.61,35.17 270.05,34.02 270.49,34.02 270.93,34.02 271.37,34.02 271.81,36.98 272.25,36.98 272.69,37.64 273.13,37.64 273.57,36.36 274.01,36.36 274.45,36.36 274.89,39.88 275.33,34.02 275.77,34.02 276.21,41.50 276.65,41.50 277.09,45.88 277.53,45.88 277.97,45.88 278.41,45.88 278.85,49.77 279.29,49.77 279.73,49.77 280.17,45.50 280.61,45.50 281.05,55.16 281.49,51.80 281.93,51.80 282.37,44.97 282.81,44.97 283.25,44.97 283.69,43.75 284.13,35.98 284.57,35.98 285.01,35.98 285.45,39.67 285.89,37.18 286.33,37.18 286.77,37.18 287.20,29.17 287.64,29.17 288.08,37.25 288.52,37.25 288.96,37.25 289.40,29.73 289.84,29.73 290.28,29.73 290.72,35.90 291.16,35.90 291.60,35.90 292.04,35.62 292.48,24.94 292.92,25.27 293.36,25.27 293.80,25.27 294.24,27.35 294.68,27.35 295.12,27.35 295.56,30.81 296.00,27.18" />
</svg>