<svg width="300" height="60" xmlns="http://www.w3.org/2000/svg">
  <polyline fill="rgba(255,200,0,0.3)" stroke="#ffbb00" stroke-width="2" points="4.00,55.46 4.18,55.10 4.36,54.53 4.54,54.37 4.73,54.25 4.91,53.89 5.09,53.87 5.27,53.56 5.45,52.87 5.63,52.47 5.81,52.30 5.99,52.16 6.18,52.13 6.36,52.20 6.54,52.27 6.72,52.44 6.90,52.75 7.08,52.90 7.26,52.79 7.44,52.58 7.63,52.27 7.81,51.94 7.99,52.05 8.17,51.89 8.35,51.75 8.53,51.27 8.71,51.23 8.89,50.79 9.08,50.49 9.26,50.17 9.44,49.89 9.62,49.33 9.80,48.80 9.98,48.21 10.16,47.82 10.34,47.71 10.53,47.40 10.71,47.06 10.89,46.82 11.07,46.06 11.25,45.01 11.43,43.95 11.61,42.69 11.79,42.34 11.98,40.74 12.16,39.94 12.34,39.39 12.52,39.40 12.70,40.01 12.88,39.75 13.06,39.60 13.24,38.90 13.43,38.39 13.61,37.66 13.79,37.18 13.97,37.12 14.15,36.89 14.33,36.64 14.51,36.39 14.69,36.14 14.88,36.35 15.06,36.28 15.24,36.30 15.42,36.33 15.60,35.84 15.78,35.92 15.96,36.17 16.14,36.01 16.33,35.42 16.51,34.22 16.69,33.22 16.87,32.47 17.05,31.63 17.23,31.49 17.41,31.10 17.59,30.66 17.78,30.23 17.96,30.16 18.14,30.30 18.32,31.40 18.50,32.66 18.68,32.90 18.86,32.68 19.04,32.46 19.23,32.17 19.41,31.90 19.59,31.22 19.77,30.67 19.95,30.17 20.13,29.74 20.31,29.66 20.49,29.32 20.68,28.83 20.86,27.97 21.04,27.14 21.22,26.31 21.40,25.34 21.58,24.76 21.76,24.29 21.94,23.85 22.13,23.21 22.31,22.64 22.49,21.98 22.67,21.26 22.85,20.56 23.03,19.91 23.21,19.04 23.39,18.20 23.58,17.35 23.76,16.42 23.94,16.06 24.12,15.92 24.30,15.57 24.48,15.38 24.66,15.10 24.84,15.04 25.03,14.79 25.21,15.25 25.39,15.24 25.57,14.41 25.75,13.24 25.93,12.51 26.11,12.40 26.29,12.30 26.48,13.05 26.66,12.91 26.84,12.66 27.02,12.18 27.20,11.61 27.38,11.12 27.56,10.74 27.74,9.91 27.93,9.07 28.11,8.72 28.29,8.41 28.47,7.80 28.65,7.75 28.83,7.64 29.01,7.85 29.19,8.21 29.38,8.88 29.56,9.67 29.74,10.77 29.92,11.54 30.10,12.82 30.28,12.39 30.46,11.83 30.64,11.88 30.83,11.72 31.01,11.43 31.19,11.19 31.37,11.76 31.55,12.20 31.73,12.90 31.91,13.56 32.09,14.42 32.28,15.81 32.46,17.21 32.64,18.71 32.82,18.86 33.00,18.98 33.18,18.83 33.36,18.56 33.54,18.04 33.73,17.47 33.91,17.11 34.09,17.23 34.27,17.49 34.45,17.82 34.63,18.14 34.81,18.83 34.99,18.44 35.18,18.26 35.36,17.80 35.54,18.33 35.72,18.70 35.90,19.88 36.08,20.32 36.26,19.48 36.44,18.06 36.63,19.19 36.81,20.11 36.99,20.80 37.17,21.68 37.35,22.20 37.53,21.73 37.71,21.03 37.89,20.64 38.08,21.44 38.26,20.96 38.44,20.49 38.62,20.72 38.80,20.62 38.98,20.03 39.16,19.39 39.34,18.92 39.53,18.36 39.71,18.05 39.89,17.97 40.07,17.56 40.25,16.97 40.43,16.33 40.61,16.01 40.79,16.23 40.98,16.82 41.16,17.39 41.34,18.19 41.52,17.40 41.70,16.69 41.88,16.51 42.06,16.51 42.24,16.01 42.43,14.00 42.61,13.33 42.79,13.34 42.97,13.76 43.15,14.15 43.33,14.82 43.51,15.98 43.69,16.79 43.88,16.92 44.06,17.78 44.24,17.37 44.42,17.72 44.60,18.11 44.78,18.83 44.96,19.01 45.14,19.08 45.33,19.25 45.51,19.63 45.69,19.40 45.87,20.08 46.05,20.63 46.23,21.09 46.41,21.52 46.59,21.89 46.78,22.72 46.96,22.23 47.14,22.71 47.32,23.11 47.50,23.11 47.68,22.58 47.86,22.27 48.04,22.01 48.23,22.29 48.41,22.70 48.59,23.72 48.77,24.35 48.95,25.06 49.13,24.59 49.31,23.86 49.49,23.06 49.68,22.48 49.86,22.27 50.04,22.32 50.22,22.22 50.40,22.72 50.58,24.15 50.76,26.01 50.94,26.19 51.13,25.70 51.31,25.62 51.49,25.88 51.67,27.01 51.85,27.08 52.03,25.12 52.21,24.81 52.39,24.68 52.58,24.54 52.76,24.21 52.94,23.65 53.12,22.27 53.30,22.09 53.48,22.13 53.66,22.90 53.84,24.18 54.03,25.00 54.21,26.16 54.39,27.20 54.57,29.14 54.75,30.69 54.93,32.81 55.11,34.73 55.29,36.57 55.48,37.46 55.66,37.70 55.84,36.92 56.02,36.00 56.20,36.01 56.38,36.39 56.56,37.66 56.74,38.51 56.93,38.36 57.11,39.01 57.29,40.02 57.47,41.20 57.65,41.44 57.83,41.54 58.01,42.16 58.19,42.87 58.38,44.10 58.56,44.86 58.74,45.76 58.92,46.36 59.10,46.16 59.28,44.92 59.46,44.38 59.64,43.75 59.83,43.42 60.01,43.14 60.19,43.17 60.37,44.03 60.55,45.07 60.73,45.36 60.91,44.67 61.09,43.93 61.28,42.85 61.46,43.08 61.64,45.16 61.82,46.91 62.00,46.85 62.18,45.18 62.36,55.44 62.55,55.11 62.73,54.58 62.91,54.38 63.09,54.24 63.27,53.79 63.45,53.85 63.63,53.48 63.81,52.75 64.00,52.48 64.18,52.32 64.36,52.16 64.54,52.16 64.72,52.20 64.90,52.26 65.08,52.48 65.26,52.74 65.45,52.93 65.63,52.79 65.81,52.54 65.99,52.27 66.17,51.92 66.35,52.17 66.53,51.97 66.71,51.67 66.90,51.29 67.08,51.21 67.26,50.84 67.44,50.48 67.62,50.16 67.80,49.90 67.98,49.36 68.16,48.90 68.35,48.12 68.53,47.82 68.71,47.72 68.89,47.46 69.07,47.09 69.25,46.73 69.43,46.06 69.61,45.16 69.80,43.87 69.98,42.69 70.16,42.34 70.34,40.92 70.52,40.01 70.70,39.43 70.88,39.39 71.06,39.98 71.25,39.74 71.43,39.53 71.61,38.90 71.79,38.35 71.97,37.66 72.15,37.19 72.33,37.14 72.51,36.92 72.70,36.62 72.88,36.46 73.06,36.15 73.24,36.41 73.42,36.23 73.60,36.36 73.78,36.22 73.96,35.85 74.15,35.81 74.33,36.15 74.51,35.96 74.69,35.44 74.87,34.21 75.05,33.19 75.23,32.39 75.41,31.63 75.60,31.47 75.78,31.10 75.96,30.61 76.14,30.24 76.32,30.16 76.50,30.30 76.68,31.56 76.86,32.70 77.05,32.89 77.23,32.69 77.41,32.45 77.59,32.17 77.77,31.89 77.95,31.22 78.13,30.72 78.31,30.18 78.50,29.74 78.68,29.64 78.86,29.24 79.04,28.80 79.22,27.99 79.40,27.08 79.58,26.35 79.76,25.35 79.95,24.76 80.13,24.30 80.31,23.83 80.49,23.23 80.67,22.62 80.85,21.97 81.03,21.29 81.21,20.56 81.40,19.87 81.58,19.09 81.76,18.26 81.94,17.30 82.12,16.41 82.30,16.02 82.48,15.92 82.66,15.52 82.85,15.33 83.03,15.12 83.21,15.10 83.39,14.78 83.57,15.32 83.75,15.14 83.93,14.44 84.11,13.28 84.30,12.52 84.48,12.39 84.66,12.31 84.84,12.97 85.02,12.89 85.20,12.70 85.38,12.29 85.56,11.62 85.75,11.22 85.93,10.70 86.11,9.97 86.29,9.21 86.47,8.79 86.65,8.36 86.83,7.81 87.01,7.75 87.20,7.66 87.38,7.92 87.56,8.39 87.74,8.87 87.92,9.61 88.10,10.80 88.28,11.72 88.46,12.82 88.65,12.31 88.83,11.92 89.01,11.82 89.19,11.60 89.37,11.51 89.55,11.26 89.73,11.66 89.91,12.28 90.10,12.85 90.28,13.38 90.46,14.33 90.64,15.70 90.82,17.19 91.00,18.59 91.18,18.98 91.36,18.96 91.55,18.86 91.73,18.49 91.91,17.97 92.09,17.43 92.27,17.11 92.45,17.22 92.63,17.52 92.81,17.84 93.00,18.20 93.18,18.81 93.36,18.44 93.54,18.31 93.72,17.96 93.90,18.33 94.08,18.72 94.26,19.78 94.45,20.30 94.63,19.60 94.81,18.05 94.99,19.34 95.17,20.10 95.35,20.59 95.53,21.68 95.71,22.31 95.90,21.64 96.08,21.01 96.26,20.73 96.44,21.39 96.62,20.98 96.80,20.46 96.98,20.65 97.16,20.69 97.35,20.09 97.53,19.47 97.71,18.90 97.89,18.43 98.07,18.09 98.25,17.92 98.43,17.61 98.61,17.13 98.80,16.33 98.98,16.00 99.16,16.26 99.34,16.95 99.52,17.36 99.70,18.01 99.88,17.40 100.06,16.73 100.25,16.39 100.43,16.53 100.61,16.05 100.79,14.11 100.97,13.35 101.15,13.42 101.33,13.87 101.51,14.16 101.70,14.75 101.88,16.02 102.06,16.73 102.24,16.98 102.42,17.86 102.60,17.49 102.78,17.72 102.96,17.98 103.15,18.80 103.33,18.90 103.51,19.14 103.69,19.29 103.87,19.65 104.05,19.41 104.23,20.20 104.41,20.63 104.60,21.04 104.78,21.48 104.96,21.90 105.14,22.67 105.32,22.33 105.50,22.66 105.68,23.16 105.86,23.01 106.05,22.62 106.23,22.34 106.41,22.00 106.59,22.16 106.77,22.70 106.95,23.72 107.13,24.26 107.31,25.03 107.50,24.62 107.68,23.87 107.86,23.12 108.04,22.65 108.22,22.28 108.40,22.13 108.58,22.14 108.76,22.82 108.95,24.52 109.13,25.99 109.31,26.58 109.49,25.75 109.67,25.61 109.85,25.87 110.03,27.04 110.21,26.99 110.40,25.20 110.58,24.77 110.76,24.71 110.94,24.48 111.12,24.21 111.30,23.50 111.48,22.26 111.66,22.07 111.85,22.14 112.03,22.82 112.21,24.04 112.39,24.86 112.57,26.12 112.75,27.22 112.93,28.99 113.11,30.78 113.30,32.99 113.48,34.82 113.66,36.72 113.84,37.46 114.02,37.51 114.20,36.94 114.38,36.09 114.56,35.93 114.75,36.42 114.93,37.55 115.11,38.66 115.29,38.48 115.47,38.68 115.65,38.47 115.83,39.23 116.01,40.06 116.20,41.37 116.38,41.34 116.56,41.74 116.74,42.14 116.92,42.94 117.10,44.14 117.28,44.91 117.46,45.75 117.65,46.45 117.83,46.13 118.01,45.00 118.19,44.41 118.37,43.61 118.55,43.35 118.73,43.15 118.91,43.13 119.10,43.80 119.28,44.86 119.46,45.56 119.64,44.75 119.82,43.95 120.00,42.83 120.18,43.13 120.36,45.24 120.55,47.03 120.73,46.89 120.91,45.18 121.09,55.43 121.27,55.01 121.45,54.67 121.63,54.35 121.82,54.32 122.00,53.77 122.18,53.88 122.36,52.88 122.54,52.66 122.72,52.49 122.90,52.29 123.08,52.14 123.27,52.01 123.45,52.22 123.63,52.29 123.81,52.41 123.99,52.81 124.17,52.92 124.35,52.85 124.53,52.66 124.72,52.34 124.90,51.95 125.08,52.29 125.26,51.91 125.44,51.63 125.62,51.32 125.80,51.20 125.98,50.72 126.17,50.51 126.35,50.10 126.53,49.90 126.71,49.26 126.89,48.86 127.07,48.07 127.25,47.84 127.43,47.68 127.62,47.45 127.80,47.20 127.98,46.73 128.16,46.21 128.34,45.22 128.52,43.96 128.70,42.64 128.88,42.11 129.07,41.05 129.25,39.88 129.43,39.57 129.61,39.96 129.79,40.09 129.97,39.80 130.15,39.59 130.33,38.89 130.52,38.24 130.70,37.87 130.88,37.25 131.06,37.18 131.24,36.90 131.42,36.67 131.60,36.49 131.78,36.55 131.97,36.57 132.15,36.46 132.33,36.76 132.51,36.35 132.69,35.94 132.87,35.67 133.05,36.18 133.23,35.93 133.42,35.50 133.60,34.10 133.78,33.39 133.96,32.37 134.14,31.67 134.32,31.51 134.50,31.01 134.68,30.69 134.87,30.36 135.05,30.19 135.23,30.30 135.41,31.55 135.59,32.81 135.77,32.94 135.95,32.68 136.13,32.45 136.32,32.27 136.50,31.89 136.68,31.26 136.86,30.74 137.04,30.20 137.22,29.76 137.40,29.62 137.58,29.20 137.77,28.97 137.95,28.14 138.13,27.19 138.31,26.35 138.49,25.60 138.67,24.75 138.85,24.33 139.03,23.78 139.22,23.28 139.40,22.60 139.58,21.84 139.76,21.28 139.94,20.66 140.12,20.01 140.30,19.16 140.48,18.17 140.67,17.29 140.85,16.58 141.03,16.04 141.21,16.08 141.39,15.87 141.57,15.04 141.75,14.86 141.93,15.03 142.12,14.74 142.30,15.44 142.48,15.42 142.66,14.17 142.84,13.39 143.02,12.42 143.20,12.35 143.38,12.29 143.57,13.21 143.75,13.00 143.93,12.53 144.11,12.15 144.29,11.50 144.47,11.20 144.65,10.70 144.83,9.89 145.02,9.25 145.20,8.55 145.38,8.51 145.56,7.77 145.74,7.70 145.92,7.59 146.10,8.18 146.28,8.39 146.47,8.60 146.65,9.54 146.83,10.48 147.01,11.54 147.19,13.02 147.37,12.95 147.55,11.70 147.73,12.06 147.92,11.93 148.10,12.06 148.28,11.12 148.46,11.91 148.64,12.28 148.82,13.31 149.00,13.72 149.18,14.41 149.37,15.87 149.55,16.93 149.73,18.68 149.91,18.87 150.09,18.96 150.27,18.61 150.45,18.37 150.63,18.18 150.82,17.59 151.00,17.24 151.18,17.08 151.36,17.20 151.54,17.81 151.72,18.16 151.90,18.88 152.08,18.45 152.27,18.36 152.45,17.27 152.63,17.69 152.81,18.64 152.99,19.40 153.17,19.79 153.35,18.92 153.53,17.94 153.72,18.64 153.90,20.11 154.08,20.46 154.26,21.46 154.44,21.78 154.62,21.62 154.80,20.73 154.98,20.39 155.17,21.61 155.35,21.03 155.53,20.65 155.71,20.70 155.89,20.65 156.07,20.18 156.25,19.67 156.43,18.98 156.62,18.21 156.80,17.90 156.98,17.92 157.16,17.67 157.34,17.33 157.52,16.31 157.70,15.98 157.88,16.35 158.07,16.29 158.25,17.35 158.43,17.87 158.61,17.28 158.79,16.93 158.97,16.31 159.15,16.82 159.33,16.31 159.52,14.52 159.70,13.19 159.88,13.84 160.06,13.82 160.24,14.26 160.42,14.87 160.60,16.30 160.78,16.67 160.97,16.78 161.15,17.86 161.33,17.77 161.51,17.58 161.69,18.51 161.87,18.82 162.05,19.02 162.23,19.20 162.42,19.56 162.60,19.72 162.78,19.21 162.96,20.34 163.14,21.08 163.32,21.19 163.50,21.58 163.68,21.82 163.87,22.66 164.05,22.68 164.23,22.81 164.41,22.95 164.59,23.14 164.77,22.65 164.95,22.41 165.13,22.20 165.32,22.04 165.50,22.52 165.68,23.73 165.86,24.23 166.04,24.93 166.22,24.36 166.40,23.53 166.58,23.19 166.77,22.49 166.95,22.12 167.13,22.19 167.31,22.38 167.49,22.39 167.67,24.58 167.85,25.92 168.03,26.18 168.22,25.73 168.40,25.64 168.58,26.22 168.76,26.86 168.94,27.06 169.12,24.97 169.30,24.70 169.48,24.80 169.67,24.41 169.85,24.03 170.03,23.57 170.21,22.49 170.39,22.09 170.57,22.09 170.75,22.48 170.93,24.06 171.12,24.95 171.30,25.99 171.48,27.40 171.66,28.67 171.84,30.56 172.02,32.71 172.20,34.69 172.38,36.47 172.57,37.36 172.75,37.52 172.93,37.06 173.11,36.13 173.29,36.10 173.47,36.73 173.65,37.13 173.83,39.04 174.02,38.30 174.20,39.38 174.38,40.60 174.56,40.54 174.74,40.65 174.92,41.77 175.10,41.36 175.28,42.25 175.47,43.52 175.65,44.62 175.83,45.98 176.01,46.63 176.19,46.31 176.37,45.31 176.55,44.39 176.73,43.47 176.92,43.44 177.10,42.56 177.28,43.07 177.46,43.33 177.64,45.24 177.82,44.94 178.00,44.66 178.18,44.10 178.37,43.30 178.55,42.80 178.73,44.50 178.91,47.14 179.09,46.25 179.27,44.78 179.45,55.58 179.64,55.05 179.82,54.97 180.00,54.21 180.18,54.14 180.36,54.01 180.54,53.73 180.72,53.67 180.90,53.47 181.09,53.13 181.27,51.98 181.45,51.93 181.63,51.69 181.81,52.57 181.99,52.59 182.17,52.71 182.35,52.82 182.54,52.90 182.72,52.79 182.90,52.59 183.08,52.32 183.26,52.13 183.44,52.09 183.62,51.78 183.80,51.61 183.99,51.33 184.17,51.11 184.35,50.80 184.53,50.41 184.71,50.12 184.89,49.67 185.07,49.02 185.25,48.79 185.44,47.87 185.62,47.93 185.80,47.45 185.98,47.45 186.16,46.95 186.34,46.50 186.52,45.41 186.70,44.63 186.89,43.15 187.07,41.75 187.25,41.08 187.43,41.08 187.61,40.36 187.79,39.27 187.97,39.06 188.15,39.89 188.34,39.71 188.52,39.11 188.70,39.24 188.88,38.18 189.06,38.24 189.24,37.25 189.42,36.47 189.60,36.76 189.79,37.04 189.97,36.20 190.15,36.47 190.33,36.81 190.51,35.77 190.69,36.25 190.87,35.32 191.05,36.16 191.24,36.15 191.42,35.42 191.60,35.74 191.78,34.97 191.96,33.75 192.14,33.75 192.32,32.66 192.50,31.71 192.69,30.83 192.87,31.03 193.05,30.26 193.23,30.26 193.41,29.83 193.59,30.22 193.77,31.21 193.95,32.50 194.14,32.62 194.32,32.78 194.50,32.33 194.68,32.02 194.86,32.02 195.04,31.30 195.22,31.03 195.40,30.28 195.59,29.92 195.77,29.81 195.95,29.41 196.13,28.68 196.31,28.69 196.49,27.51 196.67,26.55 196.85,25.80 197.04,25.24 197.22,24.67 197.40,23.81 197.58,23.33 197.76,22.83 197.94,22.25 198.12,21.68 198.30,20.79 198.49,19.43 198.67,18.96 198.85,18.42 199.03,17.01 199.21,16.42 199.39,15.88 199.57,16.54 199.75,16.00 199.94,14.37 200.12,14.10 200.30,13.93 200.48,13.87 200.66,15.17 200.84,14.96 201.02,13.66 201.20,13.30 201.39,12.53 201.57,12.38 201.75,12.26 201.93,12.89 202.11,12.61 202.29,11.97 202.47,11.19 202.65,10.49 202.84,11.15 203.02,11.15 203.20,10.41 203.38,9.69 203.56,9.06 203.74,8.47 203.92,7.90 204.10,7.40 204.29,6.93 204.47,8.00 204.65,7.60 204.83,8.89 205.01,8.53 205.19,9.99 205.37,12.09 205.55,11.74 205.74,12.44 205.92,10.76 206.10,11.18 206.28,11.49 206.46,11.49 206.64,11.66 206.82,11.99 207.00,11.03 207.19,12.59 207.37,13.52 207.55,14.61 207.73,16.03 207.91,16.03 208.09,17.56 208.27,18.04 208.45,19.39 208.64,18.18 208.82,18.02 209.00,17.74 209.18,16.98 209.36,16.90 209.54,17.25 209.72,16.73 209.90,17.93 210.09,19.35 210.27,18.84 210.45,18.09 210.63,19.24 210.81,17.47 210.99,17.42 211.17,20.16 211.35,20.82 211.54,21.07 211.72,18.44 211.90,17.70 212.08,19.13 212.26,21.02 212.44,21.03 212.62,20.98 212.80,22.80 212.99,22.08 213.17,20.78 213.35,20.53 213.53,21.63 213.71,20.71 213.89,20.49 214.07,20.29 214.25,19.74 214.44,19.96 214.62,19.96 214.80,18.58 214.98,18.54 215.16,18.00 215.34,17.54 215.52,18.32 215.70,17.01 215.89,16.41 216.07,16.12 216.25,17.74 216.43,16.11 216.61,17.41 216.79,16.67 216.97,16.72 217.15,17.24 217.34,16.67 217.52,16.09 217.70,15.62 217.88,13.63 218.06,13.54 218.24,13.57 218.42,13.60 218.60,14.35 218.79,15.09 218.97,16.54 219.15,16.33 219.33,17.04 219.51,16.63 219.69,16.90 219.87,17.31 220.05,17.61 220.24,17.96 220.42,18.30 220.60,18.89 220.78,19.30 220.96,19.77 221.14,18.98 221.32,19.91 221.50,20.47 221.69,21.12 221.87,21.31 222.05,22.26 222.23,21.90 222.41,21.70 222.59,22.76 222.77,23.39 222.95,22.65 223.14,21.94 223.32,22.66 223.50,22.47 223.68,21.80 223.86,22.71 224.04,24.15 224.22,24.00 224.40,26.02 224.59,24.98 224.77,24.13 224.95,23.42 225.13,22.72 225.31,21.84 225.49,24.18 225.67,23.32 225.85,22.27 226.04,25.26 226.22,24.85 226.40,27.00 226.58,27.04 226.76,25.19 226.94,26.44 227.12,26.21 227.30,26.73 227.49,24.57 227.67,24.24 227.85,24.01 228.03,23.54 228.21,23.10 228.39,22.74 228.57,22.47 228.75,22.26 228.94,21.70 229.12,22.88 229.30,24.12 229.48,26.26 229.66,26.75 229.84,28.95 230.02,27.52 230.20,29.93 230.39,32.08 230.57,33.72 230.75,36.21 230.93,36.31 231.11,36.93 231.29,35.49 231.47,36.13 231.65,35.85 231.84,37.10 232.02,37.10 232.20,38.28 232.38,40.04 232.56,38.62 232.74,41.02 232.92,39.83 233.10,42.32 233.29,40.96 233.47,42.72 233.65,41.64 233.83,43.41 234.01,44.98 234.19,45.66 234.37,45.68 234.55,45.17 234.74,45.03 234.92,43.81 235.10,43.81 235.28,43.44 235.46,43.32 235.64,43.55 235.82,43.55 236.00,44.31 236.19,43.90 236.37,45.44 236.55,44.32 236.73,42.01 236.91,43.11 237.09,46.12 237.27,47.35 237.45,45.10 237.64,45.34 237.82,55.76 238.00,56.00 238.18,56.00 238.36,54.31 238.54,54.11 238.72,54.11 238.91,53.65 239.09,53.65 239.27,53.65 239.45,53.15 239.63,53.15 239.81,53.15 239.99,52.76 240.17,52.76 240.36,52.59 240.54,52.59 240.72,52.59 240.90,52.68 241.08,52.68 241.26,52.29 241.44,52.29 241.62,52.29 241.81,51.76 241.99,51.76 242.17,51.37 242.35,51.37 242.53,51.37 242.71,50.62 242.89,49.03 243.07,49.03 243.26,47.83 243.44,47.83 243.62,47.67 243.80,47.67 243.98,47.67 244.16,45.35 244.34,45.35 244.52,45.35 244.71,45.35 244.89,41.62 245.07,43.12 245.25,43.12 245.43,39.60 245.61,39.60 245.79,39.60 245.97,39.60 246.16,37.87 246.34,38.47 246.52,38.47 246.70,38.47 246.88,36.80 247.06,36.80 247.24,36.80 247.42,37.12 247.61,37.12 247.79,33.55 247.97,34.26 248.15,34.26 248.33,34.26 248.51,35.21 248.69,35.21 248.87,35.21 249.06,36.41 249.24,32.56 249.42,32.56 249.60,35.32 249.78,35.32 249.96,33.36 250.14,33.36 250.32,33.36 250.51,33.36 250.69,30.74 250.87,30.74 251.05,30.74 251.23,31.10 251.41,27.98 251.59,27.98 251.77,27.98 251.96,30.38 252.14,28.98 252.32,28.98 252.50,31.88 252.68,31.88 252.86,31.88 253.04,30.97 253.22,30.97 253.41,30.97 253.59,30.97 253.77,29.55 253.95,29.22 254.13,29.22 254.31,29.22 254.49,28.55 254.67,28.55 254.86,28.55 255.04,28.55 255.22,25.37 255.40,26.00 255.58,26.00 255.76,24.29 255.94,24.29 256.12,22.79 256.31,22.79 256.49,22.79 256.67,21.29 256.85,19.06 257.03,17.31 257.21,17.31 257.39,17.31 257.57,15.58 257.76,15.58 257.94,15.58 258.12,14.05 258.30,14.05 258.48,12.88 258.66,12.88 258.84,12.88 259.02,12.25 259.21,12.25 259.39,11.67 259.57,14.22 259.75,14.22 259.93,12.14 260.11,12.14 260.29,12.14 260.47,10.22 260.66,10.22 260.84,10.22 261.02,7.84 261.20,7.84 261.38,7.84 261.56,7.84 261.74,5.69 261.92,5.69 262.11,5.69 262.29,4.00 262.47,4.00 262.65,4.00 262.83,7.28 263.01,7.28 263.19,7.28 263.37,5.94 263.56,5.94 263.74,11.41 263.92,11.41 264.10,8.05 264.28,8.05 264.46,8.05 264.64,9.06 264.82,9.06 265.01,9.06 265.19,9.06 265.37,6.12 265.55,11.23 265.73,11.23 265.91,11.23 266.09,14.80 266.27,14.80 266.46,14.80 266.64,14.80 266.82,19.26 267.00,16.15 267.18,16.15 267.36,16.15 267.54,16.42 267.72,16.42 267.91,16.42 268.09,16.42 268.27,21.53 268.45,21.53 268.63,19.33 268.81,19.33 268.99,19.33 269.17,17.70 269.36,17.70 269.54,25.11 269.72,25.11 269.90,25.11 270.08,17.03 270.26,17.03 270.44,23.69 270.62,22.67 270.81,22.67 270.99,22.67 271.17,21.06 271.35,21.06 271.53,19.60 271.71,19.60 271.89,20.48 272.07,20.48 272.26,20.48 272.44,19.16 272.62,19.16 272.80,19.16 272.98,19.16 273.16,19.23 273.34,19.23 273.52,15.66 273.71,18.10 273.89,18.10 274.07,18.10 274.25,13.80 274.43,17.06 274.61,17.06 274.79,17.06 274.97,17.06 275.16,13.39 275.34,13.39 275.52,17.27 275.70,14.64 275.88,14.64 276.06,14.64 276.24,10.06 276.42,10.06 276.61,10.89 276.79,10.89 276.97,13.52 277.15,13.52 277.33,13.52 277.51,13.52 277.69,14.07 277.87,14.07 278.06,14.07 278.24,15.53 278.42,15.53 278.60,15.53 278.78,16.95 278.96,16.95 279.14,18.45 279.32,18.45 279.51,18.45 279.69,20.03 279.87,20.03 280.05,20.03 280.23,20.40 280.41,20.40 280.59,20.40 280.77,20.40 280.96,22.93 281.14,21.11 281.32,21.11 281.50,21.11 281.68,21.68 281.86,21.68 282.04,21.68 282.22,26.29 282.41,26.29 282.59,26.29 282.77,25.09 282.95,25.09 283.13,22.92 283.31,22.92 283.49,22.92 283.67,20.42 283.86,29.79 284.04,29.79 284.22,27.33 284.40,27.33 284.58,27.33 284.76,22.76 284.94,27.35 285.12,27.35 285.31,27.35 285.49,22.85 285.67,23.01 285.85,23.01 286.03,23.01 286.21,21.96 286.39,21.96 286.57,21.96 286.76,22.65 286.94,22.65 287.12,22.65 287.30,20.14 287.48,24.68 287.66,24.68 287.84,24.68 288.02,31.16 288.21,31.16 288.39,27.01 288.57,27.01 288.75,30.91 288.93,30.91 289.11,35.56 289.29,33.92 289.47,33.92 289.66,33.92 289.84,34.72 290.02,34.72 290.20,34.72 290.38,34.72 290.56,43.43 290.74,43.43 290.92,39.78 291.11,39.78 291.29,39.78 291.47,45.24 291.65,45.24 291.83,45.24 292.01,41.62 292.19,41.62 292.37,43.61 292.56,43.61 292.74,43.61 292.92,44.37 293.10,44.37 293.28,44.37 293.46,44.37 293.64,43.56 293.82,43.56 294.01,43.56 294.19,43.56 294.37,42.79 294.55,42.79 294.73,42.79 294.91,48.32 295.09,44.55 295.27,44.55 295.46,44.55 295.64,47.50 295.82,40.88 296.00,40.88" />
</svg>