<svg width="300" height="60" xmlns="http://www.w3.org/2000/svg">
  <polyline fill="rgba(255,200,0,0.3)" stroke="#ffbb00" stroke-width="2" points="4.00,56.00 4.22,55.11 4.44,55.12 4.67,55.12 4.89,54.98 5.11,53.47 5.33,52.25 5.55,50.66 5.78,49.15 6.00,48.60 6.22,48.85 6.44,49.00 6.66,49.44 6.89,49.63 7.11,49.45 7.33,49.12 7.55,48.57 7.77,48.27 8.00,48.47 8.22,48.99 8.44,49.73 8.66,49.97 8.89,49.82 9.11,50.06 9.33,49.98 9.55,49.82 9.77,49.80 10.00,49.83 10.22,49.97 10.44,50.39 10.66,50.25 10.88,49.72 11.11,48.95 11.33,48.43 11.55,47.90 11.77,47.59 11.99,46.71 12.22,45.77 12.44,44.69 12.66,43.83 12.88,43.37 13.10,43.07 13.33,42.73 13.55,43.32 13.77,43.61 13.99,43.30 14.21,43.40 14.44,44.20 14.66,44.10 14.88,43.38 15.10,42.40 15.32,41.17 15.55,40.02 15.77,38.65 15.99,38.49 16.21,39.89 16.43,39.63 16.66,39.55 16.88,40.78 17.10,41.05 17.32,39.70 17.55,38.72 17.77,38.09 17.99,37.84 18.21,37.62 18.43,37.94 18.66,37.17 18.88,36.41 19.10,35.60 19.32,34.31 19.54,33.93 19.77,34.46 19.99,34.79 20.21,35.46 20.43,35.80 20.65,35.36 20.88,35.15 21.10,34.42 21.32,33.99 21.54,34.36 21.76,35.49 21.99,36.55 22.21,37.56 22.43,38.12 22.65,38.80 22.87,39.69 23.10,39.76 23.32,39.47 23.54,39.02 23.76,38.44 23.98,38.15 24.21,37.71 24.43,36.56 24.65,35.84 24.87,35.68 25.10,35.52 25.32,35.84 25.54,35.68 25.76,35.40 25.98,35.28 26.21,35.52 26.43,36.40 26.65,37.50 26.87,37.48 27.09,36.36 27.32,36.63 27.54,36.92 27.76,35.95 27.98,35.60 28.20,35.23 28.43,35.33 28.65,35.28 28.87,35.28 29.09,36.02 29.31,37.53 29.54,38.93 29.76,37.66 29.98,36.98 30.20,36.73 30.42,36.85 30.65,36.48 30.87,36.31 31.09,36.41 31.31,37.04 31.53,38.54 31.76,39.69 31.98,40.09 32.20,39.49 32.42,38.09 32.64,37.28 32.87,36.58 33.09,36.06 33.31,35.69 33.53,35.29 33.76,34.97 33.98,34.57 34.20,33.79 34.42,33.37 34.64,33.24 34.87,33.51 35.09,34.63 35.31,35.58 35.53,36.25 35.75,36.69 35.98,37.17 36.20,37.27 36.42,37.19 36.64,36.93 36.86,36.44 37.09,35.07 37.31,34.59 37.53,34.06 37.75,33.91 37.97,33.90 38.20,33.72 38.42,33.38 38.64,32.65 38.86,31.96 39.08,31.76 39.31,31.77 39.53,31.67 39.75,31.68 39.97,31.98 40.19,31.70 40.42,32.37 40.64,32.05 40.86,31.74 41.08,31.66 41.30,31.76 41.53,31.99 41.75,31.68 41.97,31.38 42.19,31.22 42.42,31.00 42.64,30.86 42.86,30.73 43.08,30.35 43.30,30.04 43.53,29.97 43.75,29.62 43.97,29.42 44.19,29.22 44.41,29.15 44.64,29.75 44.86,29.66 45.08,29.55 45.30,29.40 45.52,28.85 45.75,27.97 45.97,27.90 46.19,28.41 46.41,28.55 46.63,28.59 46.86,28.94 47.08,29.01 47.30,28.94 47.52,28.97 47.74,29.32 47.97,29.41 48.19,30.02 48.41,28.99 48.63,27.61 48.85,27.52 49.08,27.85 49.30,28.37 49.52,28.68 49.74,28.58 49.97,28.62 50.19,28.38 50.41,28.22 50.63,27.81 50.85,27.65 51.08,27.38 51.30,27.27 51.52,27.32 51.74,26.85 51.96,25.58 52.19,24.96 52.41,25.41 52.63,26.23 52.85,26.35 53.07,26.33 53.30,24.57 53.52,24.45 53.74,25.74 53.96,25.68 54.18,25.93 54.41,25.61 54.63,24.84 54.85,23.54 55.07,23.65 55.29,24.19 55.52,23.97 55.74,23.87 55.96,23.29 56.18,23.16 56.40,22.87 56.63,23.12 56.85,23.00 57.07,22.86 57.29,22.69 57.51,22.61 57.74,22.58 57.96,22.52 58.18,22.36 58.40,22.54 58.63,22.90 58.85,23.06 59.07,22.74 59.29,21.67 59.51,21.75 59.74,22.25 59.96,21.78 60.18,21.45 60.40,20.86 60.62,21.50 60.85,21.74 61.07,21.54 61.29,21.03 61.51,20.62 61.73,19.46 61.96,18.81 62.18,18.59 62.40,18.31 62.62,17.92 62.84,18.12 63.07,18.47 63.29,18.13 63.51,17.58 63.73,17.06 63.95,16.70 64.18,16.97 64.40,17.56 64.62,18.25 64.84,19.34 65.06,18.98 65.29,17.81 65.51,16.88 65.73,16.13 65.95,16.11 66.17,16.25 66.40,16.60 66.62,16.52 66.84,16.25 67.06,16.44 67.29,16.21 67.51,15.80 67.73,15.46 67.95,15.14 68.17,14.77 68.40,14.51 68.62,14.84 68.84,14.31 69.06,13.83 69.28,13.52 69.51,13.27 69.73,13.12 69.95,13.15 70.17,13.30 70.39,13.07 70.62,13.02 70.84,12.38 71.06,11.64 71.28,11.10 71.50,10.76 71.73,10.50 71.95,10.07 72.17,9.74 72.39,9.49 72.61,8.91 72.84,8.53 73.06,7.21 73.28,6.73 73.50,6.45 73.72,6.50 73.95,6.71 74.17,7.37 74.39,7.44 74.61,7.40 74.83,7.30 75.06,7.25 75.28,7.29 75.50,7.40 75.72,7.10 75.95,6.76 76.17,6.70 76.39,6.65 76.61,6.75 76.83,6.70 77.06,55.96 77.28,55.12 77.50,55.09 77.72,55.09 77.94,54.87 78.17,53.62 78.39,52.25 78.61,50.50 78.83,49.04 79.05,48.43 79.28,48.53 79.50,48.65 79.72,49.19 79.94,49.19 80.16,49.38 80.39,48.78 80.61,48.35 80.83,48.30 81.05,48.50 81.27,48.80 81.50,49.75 81.72,49.87 81.94,49.79 82.16,49.97 82.38,49.86 82.61,49.68 82.83,49.81 83.05,49.63 83.27,49.80 83.50,50.23 83.72,50.22 83.94,49.67 84.16,48.87 84.38,48.24 84.61,47.87 84.83,47.32 85.05,46.79 85.27,45.95 85.49,44.67 85.72,43.91 85.94,43.43 86.16,42.88 86.38,42.43 86.60,43.48 86.83,43.73 87.05,42.90 87.27,43.19 87.49,44.06 87.71,44.30 87.94,43.24 88.16,42.60 88.38,41.02 88.60,39.93 88.82,38.85 89.05,38.10 89.27,40.09 89.49,39.62 89.71,39.69 89.93,40.61 90.16,40.88 90.38,39.79 90.60,38.33 90.82,38.04 91.04,37.54 91.27,37.57 91.49,37.69 91.71,37.27 91.93,36.20 92.16,35.11 92.38,34.44 92.60,33.69 92.82,34.14 93.04,34.81 93.27,35.15 93.49,35.51 93.71,35.04 93.93,34.85 94.15,34.14 94.38,33.94 94.60,34.41 94.82,35.12 95.04,36.40 95.26,37.27 95.49,38.32 95.71,38.93 95.93,39.87 96.15,39.46 96.37,39.53 96.60,38.87 96.82,38.44 97.04,38.12 97.26,37.29 97.48,36.56 97.71,35.92 97.93,35.79 98.15,35.83 98.37,35.75 98.59,35.77 98.82,35.46 99.04,35.21 99.26,35.68 99.48,36.27 99.70,37.41 99.93,37.48 100.15,36.49 100.37,36.56 100.59,37.01 100.82,35.95 101.04,35.58 101.26,35.25 101.48,35.50 101.70,35.09 101.93,35.31 102.15,36.25 102.37,37.83 102.59,38.51 102.81,37.33 103.04,36.86 103.26,37.02 103.48,36.79 103.70,36.58 103.92,36.34 104.15,36.46 104.37,37.17 104.59,38.71 104.81,39.71 105.03,39.88 105.26,39.15 105.48,38.08 105.70,37.46 105.92,36.48 106.14,36.10 106.37,35.84 106.59,35.57 106.81,35.23 107.03,34.80 107.25,33.94 107.48,33.46 107.70,33.21 107.92,33.94 108.14,35.05 108.37,35.91 108.59,36.44 108.81,37.11 109.03,37.05 109.25,37.13 109.48,37.19 109.70,36.93 109.92,36.58 110.14,35.29 110.36,35.00 110.59,33.99 110.81,34.07 111.03,34.28 111.25,34.12 111.47,33.42 111.70,32.92 111.92,31.94 112.14,31.70 112.36,31.63 112.58,31.54 112.81,31.60 113.03,32.28 113.25,31.94 113.47,32.28 113.69,32.00 113.92,31.75 114.14,31.62 114.36,31.74 114.58,31.91 114.80,31.79 115.03,31.68 115.25,31.27 115.47,31.20 115.69,30.84 115.91,31.02 116.14,30.62 116.36,30.20 116.58,30.07 116.80,29.95 117.03,29.23 117.25,29.35 117.47,29.10 117.69,29.84 117.91,29.76 118.14,29.47 118.36,29.44 118.58,28.97 118.80,28.07 119.02,27.85 119.25,28.60 119.47,28.39 119.69,28.55 119.91,28.92 120.13,28.89 120.36,28.97 120.58,29.10 120.80,29.37 121.02,29.39 121.24,29.80 121.47,29.10 121.69,27.84 121.91,27.54 122.13,27.76 122.35,28.16 122.58,28.67 122.80,28.57 123.02,28.57 123.24,28.42 123.46,28.08 123.69,27.77 123.91,27.72 124.13,27.46 124.35,27.23 124.57,27.18 124.80,26.80 125.02,25.81 125.24,24.94 125.46,25.34 125.69,25.78 125.91,26.19 126.13,26.36 126.35,24.52 126.57,24.39 126.80,25.65 127.02,25.67 127.24,25.93 127.46,25.52 127.68,24.56 127.91,23.53 128.13,23.63 128.35,24.23 128.57,23.99 128.79,23.26 129.02,23.22 129.24,23.30 129.46,22.62 129.68,22.98 129.90,22.99 130.13,22.84 130.35,22.02 130.57,22.64 130.79,22.41 131.01,22.53 131.24,22.27 131.46,22.63 131.68,22.87 131.90,22.83 132.12,22.45 132.35,21.62 132.57,21.75 132.79,22.04 133.01,21.76 133.23,21.47 133.46,20.82 133.68,21.51 133.90,21.58 134.12,21.57 134.35,20.99 134.57,20.58 134.79,19.68 135.01,19.02 135.23,18.71 135.46,18.53 135.68,18.16 135.90,18.40 136.12,18.40 136.34,18.16 136.57,17.42 136.79,16.82 137.01,16.84 137.23,17.01 137.45,17.70 137.68,18.24 137.90,19.46 138.12,18.87 138.34,17.60 138.56,16.85 138.79,16.23 139.01,16.12 139.23,16.11 139.45,16.59 139.67,16.52 139.90,16.29 140.12,16.34 140.34,16.49 140.56,15.88 140.78,15.51 141.01,15.12 141.23,14.77 141.45,14.71 141.67,14.76 141.90,14.25 142.12,13.82 142.34,13.28 142.56,13.23 142.78,13.10 143.01,13.47 143.23,13.21 143.45,13.04 143.67,12.76 143.89,12.37 144.12,11.83 144.34,11.05 144.56,10.75 144.78,10.46 145.00,9.97 145.23,9.68 145.45,9.59 145.67,8.83 145.89,8.28 146.11,7.26 146.34,6.65 146.56,6.29 146.78,6.42 147.00,6.41 147.22,7.37 147.45,7.50 147.67,7.40 147.89,7.27 148.11,7.37 148.33,7.23 148.56,7.14 148.78,7.24 149.00,6.89 149.22,6.67 149.44,6.65 149.67,6.69 149.89,6.58 150.11,55.63 150.33,55.11 150.56,55.11 150.78,55.10 151.00,53.81 151.22,53.23 151.44,51.70 151.67,51.02 151.89,48.93 152.11,48.19 152.33,49.43 152.55,48.23 152.78,48.29 153.00,49.84 153.22,49.39 153.44,48.57 153.66,48.57 153.89,48.16 154.11,48.46 154.33,49.63 154.55,50.30 154.77,49.69 155.00,49.61 155.22,50.39 155.44,50.32 155.66,49.57 155.88,49.60 156.11,49.79 156.33,49.79 156.55,50.34 156.77,50.26 156.99,49.51 157.22,48.86 157.44,48.09 157.66,47.95 157.88,46.97 158.10,46.80 158.33,45.61 158.55,45.54 158.77,44.41 158.99,43.31 159.22,43.70 159.44,43.61 159.66,43.82 159.88,43.96 160.10,43.81 160.33,43.87 160.55,44.92 160.77,44.95 160.99,42.70 161.21,42.08 161.44,41.36 161.66,40.30 161.88,39.91 162.10,38.72 162.32,39.95 162.55,39.40 162.77,40.85 162.99,40.07 163.21,40.10 163.43,40.31 163.66,39.27 163.88,37.59 164.10,37.58 164.32,37.94 164.54,36.63 164.77,37.77 164.99,37.04 165.21,35.22 165.43,34.40 165.65,34.40 165.88,33.08 166.10,34.83 166.32,35.17 166.54,34.90 166.77,36.05 166.99,34.46 167.21,34.17 167.43,34.74 167.65,34.78 167.88,35.48 168.10,36.39 168.32,37.25 168.54,39.07 168.76,40.07 168.99,39.88 169.21,39.82 169.43,39.82 169.65,39.65 169.87,38.55 170.10,38.06 170.32,36.93 170.54,36.78 170.76,36.68 170.98,35.62 171.21,35.94 171.43,36.26 171.65,35.48 171.87,35.59 172.09,35.76 172.32,36.27 172.54,36.34 172.76,37.18 172.98,37.64 173.20,36.83 173.43,36.35 173.65,36.90 173.87,35.85 174.09,35.77 174.31,34.83 174.54,34.88 174.76,35.00 174.98,35.55 175.20,36.81 175.43,38.28 175.65,37.99 175.87,36.96 176.09,36.96 176.31,36.43 176.54,36.14 176.76,35.88 176.98,35.66 177.20,35.72 177.42,36.35 177.65,37.91 177.87,39.48 178.09,39.88 178.31,39.31 178.53,37.96 178.76,36.98 178.98,36.30 179.20,35.81 179.42,35.43 179.64,35.10 179.87,34.73 180.09,34.36 180.31,34.18 180.53,32.50 180.75,32.75 180.98,32.93 181.20,35.31 181.42,35.47 181.64,35.44 181.86,37.21 182.09,37.21 182.31,37.13 182.53,37.08 182.75,36.98 182.97,36.30 183.20,35.28 183.42,34.64 183.64,34.42 183.86,34.37 184.09,34.51 184.31,34.43 184.53,32.44 184.75,32.00 184.97,31.53 185.20,31.33 185.42,31.30 185.64,31.23 185.86,31.26 186.08,31.27 186.31,31.19 186.53,31.13 186.75,31.00 186.97,30.86 187.19,30.91 187.42,31.03 187.64,31.06 187.86,30.89 188.08,30.85 188.30,30.93 188.53,30.97 188.75,31.08 188.97,31.28 189.19,29.60 189.41,29.82 189.64,30.16 189.86,28.94 190.08,29.53 190.30,28.58 190.52,29.40 190.75,28.90 190.97,29.53 191.19,28.84 191.41,29.02 191.63,29.02 191.86,27.81 192.08,27.76 192.30,28.47 192.52,28.32 192.75,28.69 192.97,29.10 193.19,28.49 193.41,28.50 193.63,28.65 193.86,28.76 194.08,29.04 194.30,29.68 194.52,28.62 194.74,27.95 194.97,27.35 195.19,27.95 195.41,28.65 195.63,28.43 195.85,28.43 196.08,28.73 196.30,28.55 196.52,27.93 196.74,27.28 196.96,27.91 197.19,26.95 197.41,27.76 197.63,27.29 197.85,26.15 198.07,26.15 198.30,25.62 198.52,26.03 198.74,25.03 198.96,25.66 199.18,26.13 199.41,24.71 199.63,24.72 199.85,24.72 200.07,25.83 200.30,26.09 200.52,25.72 200.74,24.64 200.96,23.84 201.18,23.05 201.41,24.50 201.63,24.33 201.85,22.66 202.07,23.07 202.29,23.76 202.52,22.30 202.74,21.89 202.96,23.08 203.18,22.51 203.40,23.10 203.63,22.88 203.85,21.23 204.07,22.77 204.29,22.91 204.51,23.85 204.74,23.12 204.96,22.52 205.18,22.88 205.40,21.72 205.62,21.58 205.85,21.90 206.07,22.03 206.29,20.60 206.51,21.04 206.73,21.68 206.96,22.17 207.18,21.88 207.40,20.73 207.62,20.22 207.84,19.36 208.07,18.58 208.29,18.19 208.51,17.93 208.73,17.61 208.96,17.56 209.18,17.65 209.40,17.52 209.62,17.03 209.84,16.64 210.07,17.14 210.29,17.30 210.51,17.79 210.73,18.49 210.95,19.16 211.18,18.69 211.40,17.50 211.62,16.52 211.84,16.17 212.06,16.02 212.29,15.95 212.51,15.91 212.73,16.05 212.95,16.05 213.17,15.79 213.40,16.90 213.62,16.36 213.84,15.55 214.06,15.59 214.28,14.95 214.51,15.24 214.73,14.64 214.95,14.20 215.17,13.69 215.39,13.04 215.62,12.62 215.84,12.54 216.06,13.79 216.28,12.77 216.50,13.21 216.73,12.30 216.95,12.30 217.17,11.35 217.39,10.85 217.62,10.04 217.84,10.34 218.06,9.72 218.28,9.28 218.50,9.48 218.73,9.01 218.95,7.70 219.17,6.59 219.39,6.62 219.61,6.04 219.84,5.81 220.06,5.92 220.28,7.52 220.50,7.80 220.72,6.33 220.95,6.63 221.17,6.93 221.39,7.16 221.61,7.39 221.83,7.44 222.06,6.55 222.28,6.67 222.50,6.93 222.72,6.37 222.94,6.53 223.17,54.97 223.39,54.97 223.61,53.51 223.83,53.51 224.05,53.51 224.28,52.27 224.50,48.14 224.72,48.14 224.94,48.14 225.17,50.89 225.39,50.89 225.61,46.87 225.83,46.87 226.05,50.27 226.28,50.27 226.50,46.60 226.72,46.60 226.94,49.79 227.16,49.79 227.39,49.79 227.61,50.28 227.83,50.28 228.05,50.28 228.27,50.28 228.50,50.24 228.72,50.24 228.94,50.24 229.16,48.50 229.38,48.50 229.61,50.50 229.83,50.50 230.05,48.07 230.27,48.07 230.49,48.07 230.72,47.74 230.94,47.74 231.16,47.74 231.38,44.63 231.60,44.63 231.83,44.63 232.05,42.16 232.27,48.24 232.49,47.63 232.71,47.63 232.94,47.63 233.16,47.11 233.38,47.11 233.60,46.71 233.83,46.71 234.05,42.50 234.27,40.10 234.49,40.10 234.71,40.10 234.94,40.97 235.16,40.97 235.38,40.97 235.60,37.83 235.82,40.39 236.05,40.39 236.27,40.39 236.49,40.39 236.71,39.10 236.93,39.10 237.16,39.10 237.38,34.76 237.60,34.76 237.82,37.98 238.04,37.98 238.27,33.18 238.49,33.18 238.71,37.79 238.93,33.47 239.15,33.47 239.38,33.47 239.60,37.27 239.82,37.27 240.04,33.78 240.26,33.78 240.49,38.81 240.71,39.64 240.93,39.64 241.15,39.64 241.37,40.83 241.60,40.83 241.82,41.37 242.04,40.29 242.26,40.29 242.49,40.29 242.71,41.13 242.93,39.27 243.15,39.27 243.37,39.27 243.60,39.92 243.82,39.92 244.04,35.90 244.26,36.80 244.48,36.80 244.71,36.80 244.93,37.11 245.15,37.11 245.37,37.84 245.59,37.84 245.82,37.84 246.04,36.97 246.26,36.97 246.48,36.97 246.70,35.15 246.93,34.88 247.15,34.88 247.37,34.88 247.59,36.08 247.81,36.08 248.04,36.08 248.26,37.60 248.48,37.60 248.70,37.60 248.92,36.23 249.15,36.23 249.37,36.23 249.59,36.23 249.81,36.25 250.03,36.25 250.26,36.25 250.48,38.90 250.70,38.90 250.92,38.90 251.15,38.25 251.37,38.25 251.59,38.25 251.81,36.03 252.03,36.03 252.26,36.03 252.48,34.82 252.70,34.82 252.92,34.82 253.14,34.42 253.37,34.42 253.59,29.12 253.81,29.40 254.03,29.40 254.25,35.02 254.48,35.36 254.70,35.36 254.92,35.36 255.14,35.36 255.36,35.38 255.59,35.38 255.81,35.38 256.03,33.21 256.25,33.21 256.47,33.21 256.70,32.29 256.92,32.29 257.14,32.29 257.36,31.84 257.58,31.84 257.81,31.84 258.03,31.19 258.25,31.19 258.47,31.19 258.70,31.02 258.92,31.02 259.14,31.02 259.36,30.77 259.58,30.77 259.81,30.77 260.03,30.76 260.25,30.76 260.47,30.76 260.69,30.67 260.92,30.67 261.14,30.67 261.36,30.86 261.58,30.86 261.80,30.86 262.03,31.41 262.25,26.67 262.47,26.67 262.69,26.67 262.91,28.57 263.14,28.57 263.36,28.57 263.58,30.22 263.80,26.85 264.02,26.85 264.25,27.86 264.47,27.86 264.69,27.86 264.91,27.86 265.13,28.84 265.36,28.84 265.58,26.59 265.80,27.24 266.02,27.24 266.24,27.24 266.47,27.54 266.69,27.54 266.91,27.54 267.13,27.81 267.36,27.81 267.58,27.81 267.80,27.17 268.02,27.17 268.24,27.17 268.47,28.37 268.69,28.37 268.91,28.37 269.13,28.37 269.35,27.41 269.58,27.41 269.80,27.41 270.02,27.86 270.24,27.86 270.46,27.86 270.69,25.87 270.91,25.87 271.13,25.87 271.35,25.87 271.57,25.66 271.80,25.66 272.02,25.66 272.24,25.66 272.46,24.17 272.68,24.17 272.91,24.17 273.13,24.17 273.35,23.92 273.57,23.92 273.79,23.92 274.02,20.62 274.24,20.62 274.46,24.57 274.68,24.91 274.90,20.30 275.13,20.30 275.35,23.01 275.57,23.01 275.79,23.01 276.02,23.01 276.24,21.51 276.46,21.51 276.68,21.51 276.90,21.51 277.13,26.27 277.35,22.95 277.57,22.95 277.79,22.95 278.01,20.61 278.24,23.53 278.46,23.53 278.68,20.13 278.90,20.13 279.12,21.07 279.35,21.07 279.57,21.07 279.79,21.65 280.01,21.65 280.23,21.65 280.46,17.92 280.68,16.32 280.90,16.32 281.12,16.32 281.34,15.02 281.57,15.02 281.79,15.02 282.01,15.78 282.23,15.78 282.45,15.78 282.68,16.94 282.90,16.94 283.12,17.70 283.34,18.46 283.57,18.46 283.79,18.46 284.01,17.46 284.23,17.46 284.45,17.46 284.68,14.72 284.90,14.72 285.12,14.72 285.34,14.30 285.56,14.30 285.79,14.30 286.01,14.30 286.23,16.47 286.45,16.47 286.67,16.47 286.90,14.12 287.12,15.77 287.34,15.77 287.56,13.71 287.78,13.71 288.01,13.71 288.23,12.77 288.45,12.77 288.67,12.77 288.89,12.94 289.12,12.94 289.34,12.94 289.56,13.91 289.78,10.47 290.00,10.47 290.23,10.47 290.45,12.52 290.67,10.38 290.89,10.38 291.11,10.38 291.34,8.59 291.56,8.59 291.78,8.59 292.00,4.00 292.23,4.00 292.45,6.81 292.67,5.96 292.89,5.96 293.11,5.96 293.34,6.57 293.56,6.57 293.78,6.57 294.00,6.57 294.22,7.33 294.45,7.33 294.67,7.33 294.89,7.35 295.11,4.56 295.33,4.56 295.56,5.25 295.78,5.25 296.00,5.25" />
</svg>