<svg width="300" height="60" xmlns="http://www.w3.org/2000/svg">
  <polyline fill="rgba(255,200,0,0.3)" stroke="#ffbb00" stroke-width="2" points="4.00,45.04 4.39,48.87 4.77,51.52 5.16,47.83 5.55,44.07 5.93,41.56 6.32,40.56 6.71,40.32 7.09,41.10 7.48,41.81 7.87,42.55 8.25,43.73 8.64,45.14 9.03,47.48 9.41,48.50 9.80,50.09 10.19,53.01 10.57,53.94 10.96,54.25 11.35,54.50 11.74,50.73 12.12,49.19 12.51,50.85 12.90,50.84 13.28,52.06 13.67,52.73 14.06,48.95 14.44,45.51 14.83,44.96 15.22,43.46 15.60,43.20 15.99,43.67 16.38,42.79 16.76,38.27 17.15,34.52 17.54,33.74 17.92,34.50 18.31,35.05 18.70,37.12 19.08,38.47 19.47,40.47 19.86,41.73 20.24,42.04 20.63,44.15 21.02,47.19 21.40,48.83 21.79,50.12 22.18,51.12 22.56,51.81 22.95,52.67 23.34,51.67 23.72,50.06 24.11,48.03 24.50,47.98 24.88,51.10 25.27,53.31 25.66,54.68 26.05,56.00 26.43,54.61 26.82,53.57 27.21,52.99 27.59,49.96 27.98,50.18 28.37,53.69 28.75,55.90 29.14,52.69 29.53,51.40 29.91,52.02 30.30,50.71 30.69,48.98 31.07,48.23 31.46,46.13 31.85,45.27 32.23,44.07 32.62,43.32 33.01,42.62 33.39,42.63 33.78,40.62 34.17,38.36 34.55,37.43 34.94,37.94 35.33,40.46 35.71,42.30 36.10,40.64 36.49,37.62 36.87,35.93 37.26,36.51 37.65,37.43 38.03,38.41 38.42,38.17 38.81,36.64 39.19,35.90 39.58,35.42 39.97,34.93 40.35,33.71 40.74,32.69 41.13,32.04 41.52,29.59 41.90,27.46 42.29,26.37 42.68,26.13 43.06,24.88 43.45,23.75 43.84,24.06 44.22,23.89 44.61,24.74 45.00,26.41 45.38,26.36 45.77,23.83 46.16,21.14 46.54,20.54 46.93,21.81 47.32,22.32 47.70,23.37 48.09,22.69 48.48,22.25 48.86,21.69 49.25,21.26 49.64,19.97 50.02,19.63 50.41,19.49 50.80,19.70 51.18,20.09 51.57,22.70 51.96,20.43 52.34,18.02 52.73,15.62 53.12,15.41 53.50,15.55 53.89,14.48 54.28,14.06 54.66,16.14 55.05,15.73 55.44,16.73 55.83,17.71 56.21,17.74 56.60,18.66 56.99,19.03 57.37,18.45 57.76,18.66 58.15,20.07 58.53,19.86 58.92,18.32 59.31,18.42 59.69,19.61 60.08,21.95 60.47,22.37 60.85,20.81 61.24,21.43 61.63,22.99 62.01,25.03 62.40,26.52 62.79,26.35 63.17,24.86 63.56,25.33 63.95,26.50 64.33,27.46 64.72,28.54 65.11,28.99 65.49,29.95 65.88,31.74 66.27,32.87 66.65,35.08 67.04,36.61 67.43,38.36 67.81,38.21 68.20,35.95 68.59,34.07 68.97,34.15 69.36,35.28 69.75,36.44 70.14,37.00 70.52,37.66 70.91,39.00 71.30,39.53 71.68,39.86 72.07,40.90 72.46,40.85 72.84,40.76 73.23,39.74 73.62,38.75 74.00,37.98 74.39,37.98 74.78,36.48 75.16,35.67 75.55,35.71 75.94,36.93 76.32,37.23 76.71,37.46 77.10,44.72 77.48,48.55 77.87,51.12 78.26,46.98 78.64,43.31 79.03,40.98 79.42,40.59 79.80,40.08 80.19,40.63 80.58,41.22 80.96,42.12 81.35,43.22 81.74,45.72 82.12,46.93 82.51,48.22 82.90,49.86 83.28,53.05 83.67,53.62 84.06,54.99 84.45,53.90 84.83,49.78 85.22,48.46 85.61,51.13 85.99,50.62 86.38,52.73 86.77,52.38 87.15,48.27 87.54,45.36 87.93,44.34 88.31,42.92 88.70,42.12 89.09,44.62 89.47,41.74 89.86,38.07 90.25,34.57 90.63,33.62 91.02,33.92 91.41,35.33 91.79,37.24 92.18,37.77 92.57,39.90 92.95,41.07 93.34,41.92 93.73,44.11 94.11,46.46 94.50,48.88 94.89,50.11 95.27,51.05 95.66,51.66 96.05,51.90 96.43,51.84 96.82,49.88 97.21,48.83 97.59,47.19 97.98,50.52 98.37,53.23 98.75,54.21 99.14,54.88 99.53,53.92 99.92,53.81 100.30,52.13 100.69,49.17 101.08,49.44 101.46,53.47 101.85,55.11 102.24,51.97 102.62,50.93 103.01,51.64 103.40,50.41 103.78,48.48 104.17,47.73 104.56,46.13 104.94,45.02 105.33,43.01 105.72,43.26 106.10,42.08 106.49,42.47 106.88,39.89 107.26,37.45 107.65,37.64 108.04,38.23 108.42,40.50 108.81,42.00 109.20,40.38 109.58,37.39 109.97,35.91 110.36,35.70 110.74,36.88 111.13,37.35 111.52,37.55 111.90,36.50 112.29,35.48 112.68,35.58 113.06,35.29 113.45,33.11 113.84,32.48 114.23,31.77 114.61,29.72 115.00,27.47 115.39,25.60 115.77,26.26 116.16,24.43 116.55,23.11 116.93,23.95 117.32,23.52 117.71,24.26 118.09,25.14 118.48,24.62 118.87,22.92 119.25,20.91 119.64,20.73 120.03,21.75 120.41,22.10 120.80,23.08 121.19,21.79 121.57,21.32 121.96,21.60 122.35,20.88 122.73,19.73 123.12,19.36 123.51,19.44 123.89,19.48 124.28,20.42 124.67,23.13 125.05,19.10 125.44,17.89 125.83,14.87 126.21,16.51 126.60,16.39 126.99,15.83 127.37,15.10 127.76,17.24 128.15,15.78 128.54,15.11 128.92,15.95 129.31,16.89 129.70,18.16 130.08,18.26 130.47,17.89 130.86,18.57 131.24,19.84 131.63,18.92 132.02,17.48 132.40,19.14 132.79,18.53 133.18,21.97 133.56,21.52 133.95,19.65 134.34,20.18 134.72,21.80 135.11,23.87 135.50,25.57 135.88,24.35 136.27,24.33 136.66,25.06 137.04,25.85 137.43,26.74 137.82,27.98 138.20,28.65 138.59,29.52 138.98,31.42 139.36,32.35 139.75,34.69 140.14,36.54 140.52,37.97 140.91,37.43 141.30,36.01 141.68,34.09 142.07,34.27 142.46,35.29 142.85,36.52 143.23,36.46 143.62,37.87 144.01,38.91 144.39,38.79 144.78,40.06 145.17,40.29 145.55,40.65 145.94,40.65 146.33,39.24 146.71,38.37 147.10,37.65 147.49,37.49 147.87,36.42 148.26,35.27 148.65,35.64 149.03,36.46 149.42,36.79 149.81,37.10 150.19,44.79 150.58,48.33 150.97,50.55 151.35,47.15 151.74,43.73 152.13,41.86 152.51,41.73 152.90,38.82 153.29,40.33 153.67,40.84 154.06,42.52 154.45,40.88 154.83,44.88 155.22,43.90 155.61,49.78 155.99,49.59 156.38,49.83 156.77,50.12 157.15,55.24 157.54,53.93 157.93,51.49 158.32,48.62 158.70,52.06 159.09,49.68 159.48,51.09 159.86,50.77 160.25,47.08 160.64,44.52 161.02,42.45 161.41,43.13 161.80,42.00 162.18,40.85 162.57,41.73 162.96,38.40 163.34,33.66 163.73,34.03 164.12,35.24 164.50,36.78 164.89,38.35 165.28,39.17 165.66,39.71 166.05,39.71 166.44,42.23 166.82,42.70 167.21,46.77 167.60,48.23 167.98,50.50 168.37,50.79 168.76,50.67 169.14,51.86 169.53,49.58 169.92,50.20 170.30,50.20 170.69,47.76 171.08,48.62 171.46,51.47 171.85,54.58 172.24,54.70 172.63,54.83 173.01,51.55 173.40,50.24 173.79,50.03 174.17,51.55 174.56,54.36 174.95,54.79 175.33,50.63 175.72,52.03 176.11,50.49 176.49,51.76 176.88,47.46 177.27,48.32 177.65,47.48 178.04,44.45 178.43,44.34 178.81,42.25 179.20,40.84 179.59,43.09 179.97,40.49 180.36,38.42 180.75,38.11 181.13,40.24 181.52,39.52 181.91,39.52 182.29,40.36 182.68,39.62 183.07,37.37 183.45,33.78 183.84,37.04 184.23,37.49 184.61,37.76 185.00,36.71 185.39,36.71 185.77,36.07 186.16,36.71 186.55,33.41 186.94,30.48 187.32,32.73 187.71,30.58 188.10,28.29 188.48,26.69 188.87,26.03 189.26,25.21 189.64,24.17 190.03,24.17 190.42,23.55 190.80,23.00 191.19,26.97 191.58,26.36 191.96,21.75 192.35,22.04 192.74,20.19 193.12,20.79 193.51,21.91 193.90,23.23 194.28,21.73 194.67,23.49 195.06,22.46 195.44,19.06 195.83,20.96 196.22,19.49 196.60,18.40 196.99,21.27 197.38,20.43 197.76,21.50 198.15,18.93 198.54,15.51 198.92,16.13 199.31,15.16 199.70,15.94 200.08,12.40 200.47,16.41 200.86,16.52 201.25,13.55 201.63,15.14 202.02,15.74 202.41,16.58 202.79,18.18 203.18,19.51 203.57,17.42 203.95,17.42 204.34,18.88 204.73,19.43 205.11,16.21 205.50,17.87 205.89,16.19 206.27,19.31 206.66,21.38 207.05,19.20 207.43,20.52 207.82,24.49 208.21,22.74 208.59,25.59 208.98,26.37 209.37,23.29 209.75,25.46 210.14,25.46 210.53,28.50 210.91,28.11 211.30,27.98 211.69,28.26 212.07,29.78 212.46,32.01 212.85,33.51 213.23,37.73 213.62,36.60 214.01,37.87 214.39,34.43 214.78,34.49 215.17,32.73 215.55,36.20 215.94,35.90 216.33,34.52 216.72,38.10 217.10,37.36 217.49,36.33 217.88,39.67 218.26,39.76 218.65,40.91 219.04,40.67 219.42,38.94 219.81,38.15 220.20,37.51 220.58,37.57 220.97,36.38 221.36,35.49 221.74,35.57 222.13,36.33 222.52,36.60 222.90,37.23 223.29,40.67 223.68,40.67 224.06,44.36 224.45,44.36 224.84,44.36 225.22,38.17 225.61,38.17 226.00,38.17 226.38,38.17 226.77,41.55 227.16,35.92 227.54,35.92 227.93,35.92 228.32,32.38 228.70,49.38 229.09,49.38 229.48,48.87 229.86,48.87 230.25,48.87 230.64,43.13 231.03,43.13 231.41,49.50 231.80,49.50 232.19,43.54 232.57,43.54 232.96,50.14 233.35,41.43 233.73,41.43 234.12,41.43 234.51,34.21 234.89,34.21 235.28,34.21 235.67,33.93 236.05,33.93 236.44,33.93 236.83,33.93 237.21,35.38 237.60,35.38 237.99,35.38 238.37,38.13 238.76,38.13 239.15,38.13 239.53,38.13 239.92,41.04 240.31,41.04 240.69,41.04 241.08,49.95 241.47,49.95 241.85,49.95 242.24,48.72 242.63,48.72 243.01,48.72 243.40,48.72 243.79,44.15 244.17,44.15 244.56,44.15 244.95,47.94 245.34,47.94 245.72,47.94 246.11,38.80 246.50,44.97 246.88,44.97 247.27,44.97 247.66,48.84 248.04,48.84 248.43,48.84 248.82,48.84 249.20,49.66 249.59,49.66 249.98,49.66 250.36,52.36 250.75,52.36 251.14,42.30 251.52,42.30 251.91,42.30 252.30,34.76 252.68,44.35 253.07,44.35 253.46,39.68 253.84,39.68 254.23,39.68 254.62,31.57 255.00,31.57 255.39,31.57 255.78,41.42 256.16,35.40 256.55,35.40 256.94,35.40 257.32,44.00 257.71,33.70 258.10,33.70 258.48,33.70 258.87,45.05 259.26,32.94 259.65,32.94 260.03,32.94 260.42,24.70 260.81,24.70 261.19,24.70 261.58,19.64 261.97,19.64 262.35,19.64 262.74,16.98 263.13,16.98 263.51,16.98 263.90,16.98 264.29,27.12 264.67,27.12 265.06,16.61 265.45,20.95 265.83,20.95 266.22,23.45 266.61,23.45 266.99,23.45 267.38,18.97 267.77,18.97 268.15,18.97 268.54,18.97 268.93,26.20 269.31,14.81 269.70,14.81 270.09,19.37 270.47,19.37 270.86,19.37 271.25,13.34 271.63,13.34 272.02,13.34 272.41,12.75 272.79,12.75 273.18,12.75 273.57,14.06 273.95,14.06 274.34,4.00 274.73,4.00 275.12,4.00 275.50,9.74 275.89,9.74 276.28,9.74 276.66,16.05 277.05,16.05 277.44,16.05 277.82,9.22 278.21,9.22 278.60,18.22 278.98,13.75 279.37,13.75 279.76,13.75 280.14,15.43 280.53,15.43 280.92,25.21 281.30,25.21 281.69,21.35 282.08,21.35 282.46,21.35 282.85,26.05 283.24,26.05 283.62,26.05 284.01,26.05 284.40,25.35 284.78,25.35 285.17,25.35 285.56,30.54 285.94,30.54 286.33,30.54 286.72,24.60 287.10,34.47 287.49,34.47 287.88,29.02 288.26,29.02 288.65,29.02 289.04,27.69 289.43,27.69 289.81,36.81 290.20,36.81 290.59,36.81 290.97,37.73 291.36,37.73 291.75,37.73 292.13,37.12 292.52,36.42 292.91,36.42 293.29,36.42 293.68,35.07 294.07,35.07 294.45,35.07 294.84,33.99 295.23,33.99 295.61,33.99 296.00,36.69" />
</svg>