<svg width="300" height="60" xmlns="http://www.w3.org/2000/svg">
  <polyline fill="rgba(255,200,0,0.3)" stroke="#ffbb00" stroke-width="2" points="4.00,55.21 5.67,52.63 7.34,50.69 9.01,46.91 10.67,45.41 12.34,45.51 14.01,44.11 15.68,43.67 17.35,44.40 19.02,43.12 20.69,38.53 22.35,32.90 24.02,29.19 25.69,26.71 27.36,24.93 29.03,23.56 30.70,24.28 32.37,25.17 34.03,28.72 35.70,32.10 37.37,33.26 39.04,33.73 40.71,32.13 42.38,30.50 44.05,24.62 45.71,20.06 47.38,17.10 49.05,17.03 50.72,18.66 52.39,22.08 54.06,26.00 55.73,26.54 57.39,27.78 59.06,30.68 60.73,31.17 62.40,29.14 64.07,27.06 65.74,21.87 67.41,18.08 69.07,13.38 70.74,7.60 72.41,5.03 74.08,4.28 75.75,5.04 77.42,56.00 79.09,52.62 80.75,49.63 82.42,47.78 84.09,45.15 85.76,45.47 87.43,44.85 89.10,44.04 90.77,44.67 92.43,43.10 94.10,37.09 95.77,32.70 97.44,29.29 99.11,26.84 100.78,24.90 102.45,23.44 104.11,24.99 105.78,25.53 107.45,28.56 109.12,33.15 110.79,31.24 112.46,34.27 114.13,31.75 115.79,30.44 117.46,25.83 119.13,20.56 120.80,17.23 122.47,17.06 124.14,18.89 125.81,22.53 127.47,25.14 129.14,27.14 130.81,27.68 132.48,29.23 134.15,31.18 135.82,28.99 137.49,26.36 139.15,22.69 140.82,18.67 142.49,12.80 144.16,7.65 145.83,4.97 147.50,4.53 149.17,5.14 150.83,54.92 152.50,54.87 154.17,51.09 155.84,48.79 157.51,45.06 159.18,44.23 160.85,45.20 162.51,45.67 164.18,43.46 165.85,43.55 167.52,36.19 169.19,32.39 170.86,29.03 172.53,25.97 174.19,24.77 175.86,22.92 177.53,26.30 179.20,24.80 180.87,28.53 182.54,33.79 184.21,30.55 185.87,35.08 187.54,32.10 189.21,31.75 190.88,28.69 192.55,20.56 194.22,17.12 195.89,19.12 197.55,17.66 199.22,23.33 200.89,23.47 202.56,29.13 204.23,30.47 205.90,28.87 207.57,32.23 209.23,28.68 210.90,25.07 212.57,24.60 214.24,19.52 215.91,14.82 217.58,6.58 219.25,4.66 220.91,4.00 222.58,4.33 224.25,55.74 225.92,55.74 227.59,46.34 229.26,51.32 230.93,51.32 232.59,41.25 234.26,41.25 235.93,44.76 237.60,44.76 239.27,44.76 240.94,39.80 242.61,39.80 244.27,29.30 245.94,29.30 247.61,32.68 249.28,29.62 250.95,29.62 252.62,29.62 254.29,35.26 255.95,27.40 257.62,27.40 259.29,27.40 260.96,36.98 262.63,36.98 264.30,36.98 265.97,32.80 267.63,32.80 269.30,24.79 270.97,24.79 272.64,24.79 274.31,24.79 275.98,37.25 277.65,37.25 279.31,29.14 280.98,29.14 282.65,29.14 284.32,29.14 285.99,31.19 287.66,18.76 289.33,18.76 290.99,12.68 292.66,12.68 294.33,12.68 296.00,7.37" />
</svg>