<svg width="300" height="60" xmlns="http://www.w3.org/2000/svg">
  <polyline fill="rgba(255,200,0,0.3)" stroke="#ffbb00" stroke-width="2" points="4.00,56.00 4.27,55.33 4.54,54.65 4.81,54.07 5.09,53.97 5.36,53.21 5.63,52.89 5.90,52.15 6.17,51.42 6.44,50.58 6.72,50.10 6.99,49.60 7.26,48.95 7.53,48.62 7.80,48.33 8.07,47.92 8.35,47.14 8.62,45.58 8.89,44.31 9.16,43.62 9.43,42.89 9.70,42.44 9.98,42.61 10.25,43.11 10.52,44.20 10.79,44.28 11.06,43.95 11.33,43.64 11.61,42.83 11.88,42.56 12.15,42.53 12.42,42.62 12.69,42.49 12.96,43.08 13.24,43.85 13.51,45.20 13.78,45.29 14.05,44.26 14.32,42.36 14.59,41.36 14.87,40.61 15.14,39.74 15.41,39.19 15.68,38.83 15.95,38.81 16.22,38.47 16.49,37.87 16.77,37.47 17.04,36.81 17.31,36.33 17.58,36.44 17.85,36.93 18.12,37.20 18.40,36.79 18.67,36.37 18.94,36.35 19.21,36.72 19.48,37.65 19.75,38.19 20.03,38.42 20.30,38.32 20.57,38.61 20.84,38.53 21.11,38.40 21.38,38.34 21.66,38.88 21.93,38.47 22.20,38.34 22.47,38.50 22.74,39.01 23.01,39.63 23.29,41.30 23.56,40.61 23.83,41.12 24.10,42.24 24.37,43.44 24.64,44.11 24.92,43.15 25.19,40.39 25.46,38.27 25.73,37.13 26.00,36.09 26.27,36.42 26.55,37.03 26.82,37.82 27.09,38.60 27.36,39.59 27.63,39.80 27.90,39.72 28.17,39.69 28.45,39.99 28.72,39.95 28.99,39.94 29.26,39.77 29.53,39.91 29.80,40.45 30.08,40.27 30.35,39.69 30.62,38.42 30.89,39.43 31.16,37.81 31.43,36.37 31.71,35.85 31.98,35.38 32.25,34.65 32.52,33.87 32.79,33.44 33.06,33.56 33.34,33.59 33.61,33.13 33.88,32.32 34.15,31.56 34.42,31.02 34.69,30.12 34.97,29.57 35.24,29.89 35.51,30.57 35.78,31.92 36.05,32.51 36.32,32.56 36.60,32.33 36.87,31.86 37.14,31.89 37.41,32.06 37.68,32.16 37.95,32.68 38.23,33.10 38.50,33.37 38.77,33.67 39.04,34.02 39.31,34.15 39.58,34.10 39.85,34.45 40.13,34.16 40.40,34.05 40.67,33.88 40.94,33.63 41.21,33.31 41.48,32.68 41.76,31.64 42.03,30.24 42.30,28.50 42.57,26.85 42.84,26.12 43.11,25.58 43.39,25.51 43.66,25.93 43.93,25.12 44.20,24.50 44.47,24.21 44.74,24.19 45.02,24.35 45.29,24.84 45.56,25.68 45.83,25.77 46.10,26.40 46.37,28.29 46.65,28.51 46.92,27.48 47.19,27.37 47.46,27.62 47.73,27.63 48.00,27.63 48.28,27.83 48.55,28.12 48.82,28.58 49.09,29.18 49.36,29.68 49.63,29.52 49.91,28.69 50.18,27.91 50.45,27.50 50.72,27.04 50.99,26.34 51.26,25.80 51.53,25.26 51.81,24.78 52.08,24.42 52.35,24.06 52.62,23.98 52.89,23.80 53.16,24.07 53.44,24.11 53.71,23.94 53.98,23.48 54.25,23.06 54.52,22.71 54.79,22.61 55.07,22.26 55.34,22.20 55.61,22.04 55.88,22.07 56.15,21.99 56.42,21.55 56.70,21.12 56.97,20.65 57.24,20.20 57.51,19.87 57.78,19.50 58.05,19.26 58.33,19.02 58.60,18.95 58.87,18.73 59.14,18.63 59.41,18.77 59.68,19.14 59.96,19.77 60.23,20.61 60.50,21.45 60.77,21.70 61.04,21.39 61.31,21.07 61.59,20.38 61.86,19.02 62.13,18.45 62.40,18.14 62.67,18.13 62.94,17.14 63.21,16.26 63.49,15.77 63.76,15.55 64.03,15.14 64.30,14.70 64.57,14.13 64.84,13.41 65.12,12.91 65.39,12.49 65.66,12.51 65.93,12.92 66.20,13.46 66.47,14.24 66.75,15.11 67.02,16.35 67.29,17.22 67.56,17.61 67.83,17.91 68.10,17.75 68.38,17.82 68.65,15.88 68.92,15.02 69.19,14.26 69.46,14.01 69.73,13.14 70.01,12.22 70.28,10.87 70.55,10.12 70.82,10.49 71.09,11.59 71.36,12.56 71.64,13.50 71.91,14.13 72.18,14.53 72.45,14.55 72.72,14.71 72.99,15.68 73.27,16.65 73.54,17.05 73.81,14.35 74.08,11.93 74.35,10.36 74.62,9.16 74.89,8.31 75.17,8.38 75.44,8.97 75.71,10.87 75.98,11.45 76.25,9.71 76.52,9.86 76.80,10.68 77.07,55.94 77.34,55.22 77.61,54.55 77.88,53.58 78.15,53.65 78.43,53.05 78.70,52.70 78.97,52.14 79.24,51.25 79.51,50.17 79.78,49.94 80.06,49.33 80.33,48.78 80.60,48.20 80.87,48.12 81.14,47.85 81.41,46.71 81.69,45.87 81.96,44.22 82.23,43.61 82.50,42.64 82.77,42.48 83.04,42.66 83.32,43.67 83.59,44.24 83.86,44.30 84.13,43.88 84.40,43.40 84.67,42.61 84.95,42.80 85.22,42.33 85.49,42.48 85.76,42.56 86.03,43.30 86.30,43.98 86.57,45.01 86.85,45.22 87.12,44.15 87.39,42.17 87.66,41.48 87.93,40.41 88.20,39.75 88.48,39.33 88.75,39.33 89.02,38.91 89.29,39.15 89.56,38.19 89.83,37.54 90.11,36.78 90.38,36.42 90.65,36.43 90.92,36.87 91.19,37.28 91.46,37.07 91.74,36.36 92.01,36.28 92.28,36.67 92.55,38.03 92.82,38.21 93.09,38.42 93.37,38.28 93.64,38.28 93.91,38.42 94.18,37.63 94.45,37.91 94.72,37.83 95.00,37.88 95.27,38.72 95.54,38.56 95.81,38.96 96.08,39.30 96.35,40.62 96.63,40.67 96.90,40.94 97.17,41.51 97.44,43.03 97.71,43.83 97.98,42.90 98.25,40.57 98.53,37.98 98.80,36.53 99.07,36.16 99.34,36.33 99.61,37.19 99.88,38.16 100.16,38.88 100.43,39.38 100.70,39.84 100.97,39.73 101.24,39.62 101.51,40.07 101.79,40.10 102.06,39.83 102.33,39.63 102.60,39.65 102.87,40.43 103.14,40.16 103.42,39.36 103.69,38.20 103.96,39.17 104.23,37.68 104.50,36.41 104.77,35.72 105.05,35.48 105.32,34.08 105.59,33.86 105.86,33.24 106.13,33.72 106.40,33.88 106.68,33.15 106.95,32.05 107.22,31.47 107.49,30.88 107.76,30.01 108.03,29.54 108.31,29.69 108.58,30.57 108.85,32.22 109.12,32.49 109.39,33.15 109.66,32.19 109.93,32.04 110.21,31.88 110.48,32.04 110.75,32.05 111.02,32.41 111.29,33.10 111.56,33.37 111.84,33.79 112.11,33.96 112.38,34.37 112.65,34.21 112.92,34.33 113.19,34.11 113.47,34.02 113.74,33.72 114.01,33.51 114.28,33.32 114.55,32.46 114.82,31.73 115.10,30.09 115.37,28.64 115.64,26.64 115.91,26.35 116.18,25.90 116.45,25.85 116.73,25.50 117.00,24.95 117.27,24.54 117.54,24.14 117.81,24.24 118.08,25.04 118.36,25.01 118.63,25.40 118.90,25.85 119.17,26.75 119.44,28.50 119.71,28.45 119.99,27.89 120.26,27.29 120.53,27.93 120.80,27.89 121.07,27.14 121.34,27.84 121.61,28.03 121.89,28.71 122.16,29.17 122.43,29.50 122.70,29.59 122.97,28.77 123.24,27.90 123.52,27.42 123.79,27.23 124.06,26.73 124.33,25.72 124.60,25.25 124.87,24.90 125.15,24.37 125.42,24.45 125.69,23.81 125.96,24.06 126.23,24.05 126.50,24.08 126.78,23.89 127.05,23.36 127.32,23.02 127.59,22.68 127.86,22.61 128.13,22.11 128.41,22.35 128.68,22.21 128.95,22.25 129.22,22.14 129.49,21.81 129.76,21.51 130.04,20.89 130.31,20.59 130.58,20.13 130.85,19.90 131.12,19.16 131.39,18.90 131.67,18.96 131.94,18.85 132.21,18.81 132.48,18.87 132.75,19.40 133.02,20.11 133.29,20.82 133.57,21.73 133.84,21.68 134.11,21.43 134.38,21.04 134.65,20.54 134.92,19.76 135.20,19.22 135.47,18.37 135.74,18.26 136.01,17.67 136.28,16.81 136.55,15.68 136.83,15.38 137.10,15.13 137.37,14.89 137.64,14.49 137.91,13.73 138.18,12.70 138.46,12.39 138.73,12.62 139.00,13.11 139.27,13.84 139.54,14.23 139.81,15.37 140.09,16.37 140.36,17.18 140.63,17.67 140.90,17.86 141.17,17.77 141.44,17.71 141.72,15.78 141.99,14.94 142.26,14.26 142.53,14.06 142.80,13.29 143.07,11.94 143.35,10.86 143.62,10.14 143.89,10.61 144.16,11.39 144.43,13.17 144.70,13.60 144.97,14.21 145.25,14.53 145.52,14.33 145.79,14.74 146.06,16.14 146.33,16.64 146.60,17.01 146.88,14.57 147.15,11.74 147.42,10.52 147.69,9.07 147.96,8.82 148.23,8.65 148.51,9.81 148.78,11.51 149.05,11.70 149.32,9.83 149.59,9.66 149.86,12.00 150.14,55.77 150.41,55.23 150.68,54.97 150.95,54.07 151.22,53.83 151.49,52.96 151.77,52.65 152.04,52.08 152.31,51.56 152.58,50.40 152.85,49.95 153.12,49.43 153.40,48.94 153.67,48.47 153.94,48.16 154.21,48.16 154.48,47.15 154.75,45.61 155.03,44.17 155.30,44.19 155.57,42.58 155.84,42.88 156.11,42.27 156.38,43.19 156.65,44.15 156.93,43.73 157.20,43.77 157.47,43.65 157.74,42.15 158.01,42.40 158.28,42.83 158.56,42.14 158.83,42.87 159.10,42.67 159.37,44.02 159.64,44.40 159.91,45.26 160.19,44.68 160.46,42.29 160.73,41.84 161.00,40.73 161.27,39.80 161.54,38.65 161.82,38.87 162.09,37.81 162.36,39.50 162.63,38.52 162.90,37.82 163.17,37.05 163.45,36.25 163.72,36.98 163.99,36.89 164.26,37.37 164.53,36.35 164.80,36.03 165.08,36.73 165.35,36.80 165.62,37.68 165.89,38.11 166.16,38.31 166.43,38.38 166.71,38.59 166.98,38.84 167.25,38.02 167.52,37.98 167.79,39.43 168.06,37.97 168.33,37.96 168.61,38.38 168.88,39.52 169.15,39.41 169.42,41.32 169.69,40.70 169.96,40.22 170.24,40.66 170.51,43.85 170.78,44.41 171.05,41.84 171.32,41.42 171.59,37.64 171.87,36.32 172.14,36.44 172.41,36.38 172.68,36.59 172.95,38.56 173.22,39.05 173.50,39.51 173.77,39.90 174.04,39.76 174.31,39.80 174.58,40.14 174.85,40.26 175.13,40.07 175.40,40.11 175.67,40.18 175.94,40.23 176.21,39.96 176.48,38.94 176.76,39.29 177.03,38.55 177.30,36.87 177.57,36.36 177.84,35.08 178.11,35.26 178.39,33.76 178.66,34.05 178.93,32.85 179.20,33.98 179.47,33.40 179.74,32.43 180.01,32.56 180.29,31.45 180.56,30.41 180.83,30.07 181.10,29.78 181.37,30.08 181.64,30.80 181.92,31.86 182.19,31.64 182.46,32.55 182.73,33.04 183.00,31.83 183.27,32.47 183.55,31.57 183.82,32.44 184.09,32.73 184.36,33.18 184.63,32.23 184.90,32.72 185.18,33.05 185.45,33.31 185.72,33.69 185.99,34.29 186.26,34.15 186.53,34.04 186.81,33.69 187.08,33.65 187.35,33.27 187.62,32.64 187.89,31.73 188.16,29.75 188.44,28.86 188.71,25.74 188.98,25.27 189.25,25.01 189.52,24.95 189.79,24.93 190.07,24.43 190.34,24.12 190.61,23.88 190.88,23.79 191.15,23.71 191.42,24.06 191.69,24.21 191.97,26.42 192.24,26.53 192.51,27.54 192.78,28.67 193.05,27.67 193.32,26.34 193.60,27.58 193.87,26.77 194.14,27.05 194.41,26.32 194.68,27.82 194.95,27.56 195.23,29.23 195.50,29.51 195.77,29.26 196.04,28.32 196.31,27.38 196.58,27.48 196.86,26.51 197.13,26.76 197.40,25.74 197.67,24.77 197.94,25.45 198.21,23.99 198.49,23.55 198.76,23.31 199.03,24.05 199.30,23.93 199.57,23.93 199.84,23.68 200.12,23.73 200.39,22.64 200.66,21.92 200.93,22.38 201.20,21.82 201.47,22.46 201.75,22.05 202.02,21.69 202.29,22.40 202.56,21.81 202.83,20.96 203.10,20.89 203.37,20.03 203.65,19.19 203.92,20.28 204.19,19.54 204.46,18.79 204.73,18.20 205.00,19.34 205.28,18.33 205.55,18.05 205.82,19.73 206.09,19.82 206.36,20.11 206.63,21.74 206.91,21.79 207.18,21.46 207.45,21.29 207.72,19.62 207.99,18.12 208.26,18.33 208.54,17.66 208.81,17.35 209.08,17.44 209.35,16.54 209.62,15.71 209.89,14.15 210.17,15.11 210.44,14.30 210.71,13.52 210.98,12.74 211.25,11.99 211.52,12.98 211.80,12.80 212.07,13.11 212.34,13.56 212.61,14.05 212.88,14.62 213.15,15.38 213.43,16.59 213.70,17.62 213.97,17.65 214.24,17.73 214.51,17.51 214.78,16.49 215.05,14.93 215.33,14.16 215.60,13.77 215.87,12.75 216.14,11.54 216.41,11.30 216.68,10.64 216.96,9.77 217.23,10.88 217.50,12.95 217.77,13.59 218.04,13.74 218.31,13.74 218.59,13.62 218.86,14.33 219.13,15.49 219.40,16.47 219.67,16.72 219.94,14.49 220.22,12.63 220.49,9.61 220.76,8.04 221.03,9.81 221.30,7.95 221.57,9.41 221.85,11.50 222.12,10.46 222.39,8.59 222.66,10.50 222.93,10.84 223.20,55.75 223.48,55.75 223.75,54.08 224.02,54.08 224.29,54.08 224.56,51.48 224.83,51.48 225.11,51.48 225.38,51.48 225.65,50.02 225.92,50.88 226.19,50.88 226.46,48.19 226.73,48.19 227.01,48.19 227.28,48.19 227.55,44.32 227.82,44.32 228.09,44.32 228.36,44.32 228.64,41.49 228.91,41.49 229.18,41.49 229.45,43.31 229.72,43.31 229.99,43.31 230.27,43.70 230.54,43.70 230.81,40.50 231.08,40.50 231.35,40.50 231.62,42.89 231.90,42.89 232.17,42.89 232.44,45.32 232.71,42.82 232.98,42.82 233.25,41.06 233.53,41.06 233.80,41.06 234.07,42.32 234.34,39.17 234.61,39.17 234.88,39.17 235.16,36.67 235.43,40.08 235.70,40.08 235.97,40.08 236.24,38.35 236.51,38.35 236.79,38.35 237.06,36.36 237.33,36.36 237.60,36.36 237.87,36.09 238.14,36.09 238.41,36.09 238.69,37.65 238.96,37.65 239.23,37.65 239.50,37.81 239.77,37.81 240.04,36.10 240.32,36.10 240.59,38.64 240.86,38.64 241.13,36.20 241.40,36.20 241.67,39.24 241.95,39.24 242.22,37.75 242.49,37.75 242.76,37.75 243.03,36.92 243.30,36.92 243.58,41.41 243.85,43.04 244.12,37.36 244.39,37.36 244.66,37.36 244.93,33.95 245.21,36.69 245.48,36.69 245.75,37.52 246.02,37.52 246.29,37.52 246.56,38.28 246.84,38.28 247.11,38.94 247.38,38.94 247.65,38.94 247.92,39.12 248.19,39.12 248.47,38.19 248.74,38.19 249.01,38.19 249.28,36.36 249.55,36.36 249.82,36.36 250.09,35.30 250.37,35.30 250.64,33.92 250.91,33.92 251.18,33.92 251.45,30.12 251.72,30.12 252.00,30.12 252.27,32.26 252.54,32.26 252.81,32.26 253.08,29.19 253.35,29.19 253.63,29.19 253.90,27.98 254.17,27.98 254.44,29.31 254.71,29.31 254.98,29.31 255.26,30.89 255.53,30.89 255.80,32.51 256.07,32.51 256.34,32.51 256.61,30.09 256.89,30.96 257.16,30.96 257.43,32.01 257.70,32.01 257.97,32.01 258.24,33.17 258.52,33.17 258.79,33.17 259.06,33.97 259.33,33.97 259.60,33.98 259.87,32.00 260.15,32.00 260.42,30.71 260.69,30.71 260.96,30.71 261.23,27.12 261.50,27.12 261.77,25.38 262.05,25.38 262.32,25.38 262.59,24.88 262.86,24.88 263.13,24.15 263.40,24.15 263.68,24.15 263.95,24.08 264.22,24.08 264.49,24.77 264.76,24.77 265.03,24.77 265.31,25.35 265.58,25.35 265.85,25.35 266.12,21.90 266.39,21.90 266.66,27.55 266.94,25.12 267.21,25.12 267.48,24.16 267.75,24.16 268.02,24.16 268.29,28.56 268.57,28.56 268.84,28.56 269.11,25.65 269.38,25.65 269.65,25.65 269.92,21.87 270.20,25.66 270.47,25.66 270.74,23.18 271.01,23.18 271.28,22.10 271.55,22.10 271.83,22.10 272.10,22.10 272.37,22.10 272.64,22.10 272.91,20.90 273.18,23.17 273.45,21.37 273.73,21.37 274.00,21.37 274.27,19.97 274.54,19.97 274.81,19.97 275.08,17.70 275.36,21.54 275.63,21.54 275.90,19.20 276.17,19.20 276.44,16.62 276.71,16.62 276.99,16.62 277.26,14.49 277.53,14.49 277.80,14.49 278.07,18.35 278.34,18.35 278.62,18.11 278.89,18.11 279.16,18.11 279.43,19.49 279.70,19.49 279.97,19.49 280.25,19.62 280.52,20.41 280.79,17.18 281.06,17.18 281.33,17.18 281.60,15.14 281.88,15.14 282.15,15.14 282.42,12.28 282.69,12.28 282.96,9.32 283.23,14.24 283.51,14.24 283.78,12.12 284.05,12.12 284.32,12.12 284.59,11.44 284.86,11.44 285.13,12.45 285.41,12.45 285.68,12.45 285.95,14.57 286.22,14.57 286.49,16.03 286.76,16.03 287.04,16.03 287.31,16.50 287.58,16.40 287.85,16.40 288.12,13.54 288.39,13.54 288.67,13.54 288.94,10.44 289.21,10.44 289.48,10.44 289.75,10.44 290.02,7.17 290.30,10.24 290.57,10.24 290.84,10.24 291.11,12.17 291.38,12.17 291.65,12.17 291.93,12.17 292.20,15.22 292.47,15.22 292.74,15.22 293.01,11.90 293.28,11.90 293.56,11.90 293.83,7.41 294.10,7.84 294.37,7.84 294.64,7.84 294.91,6.38 295.19,6.38 295.46,9.26 295.73,9.26 296.00,4.00" />
</svg>