<svg width="300" height="60" xmlns="http://www.w3.org/2000/svg">
  <polyline fill="rgba(255,200,0,0.3)" stroke="#ffbb00" stroke-width="2" points="4.00,10.59 4.45,11.49 4.89,13.19 5.34,12.67 5.78,11.91 6.23,12.08 6.67,12.72 7.12,13.90 7.56,16.26 8.01,20.08 8.45,20.67 8.90,20.94 9.34,21.44 9.79,22.98 10.23,25.67 10.68,28.56 11.12,30.01 11.57,32.55 12.01,31.13 12.46,28.99 12.90,28.60 13.35,28.67 13.79,28.81 14.24,28.08 14.68,29.22 15.13,29.32 15.57,30.72 16.02,32.15 16.46,33.84 16.91,35.03 17.35,36.57 17.80,38.11 18.24,39.85 18.69,41.29 19.13,43.57 19.58,46.48 20.02,50.07 20.47,50.54 20.91,48.83 21.36,46.15 21.80,46.01 22.25,46.56 22.70,47.70 23.14,48.88 23.59,49.47 24.03,49.36 24.48,49.37 24.92,49.54 25.37,50.00 25.81,50.84 26.26,52.00 26.70,52.95 27.15,53.66 27.59,53.86 28.04,53.46 28.48,53.90 28.93,53.23 29.37,52.89 29.82,53.49 30.26,54.45 30.71,55.14 31.15,55.72 31.60,55.74 32.04,55.29 32.49,54.95 32.93,54.96 33.38,54.74 33.82,55.07 34.27,55.48 34.71,55.19 35.16,55.18 35.60,55.06 36.05,54.91 36.49,54.77 36.94,54.32 37.38,54.03 37.83,53.60 38.27,53.27 38.72,52.75 39.16,52.52 39.61,52.37 40.05,52.25 40.50,52.13 40.95,52.12 41.39,52.18 41.84,52.19 42.28,51.94 42.73,51.79 43.17,51.48 43.62,51.28 44.06,51.11 44.51,51.14 44.95,50.75 45.40,50.78 45.84,50.94 46.29,51.32 46.73,51.35 47.18,50.85 47.62,50.50 48.07,50.83 48.51,50.51 48.96,49.75 49.40,49.76 49.85,49.58 50.29,49.42 50.74,48.39 51.18,47.26 51.63,45.64 52.07,46.73 52.52,48.04 52.96,48.18 53.41,47.20 53.85,47.15 54.30,47.36 54.74,47.17 55.19,46.79 55.63,45.69 56.08,42.98 56.52,42.07 56.97,41.96 57.41,42.62 57.86,42.89 58.30,43.29 58.75,43.09 59.20,43.38 59.64,43.67 60.09,43.68 60.53,44.01 60.98,43.80 61.42,42.79 61.87,42.80 62.31,43.02 62.76,43.51 63.20,43.95 63.65,44.77 64.09,45.34 64.54,44.85 64.98,44.39 65.43,43.90 65.87,43.54 66.32,43.71 66.76,44.15 67.21,43.38 67.65,43.32 68.10,43.15 68.54,42.69 68.99,42.66 69.43,42.91 69.88,42.79 70.32,41.74 70.77,41.50 71.21,40.99 71.66,40.80 72.10,40.72 72.55,40.51 72.99,39.89 73.44,40.03 73.88,40.19 74.33,39.67 74.77,39.40 75.22,39.36 75.66,39.35 76.11,39.19 76.55,38.95 77.00,38.47 77.45,38.40 77.89,38.20 78.34,37.54 78.78,37.00 79.23,36.99 79.67,36.39 80.12,36.20 80.56,35.68 81.01,35.31 81.45,35.67 81.90,34.20 82.34,32.37 82.79,32.13 83.23,32.39 83.68,34.00 84.12,34.30 84.57,33.56 85.01,33.30 85.46,33.49 85.90,33.15 86.35,32.69 86.79,31.89 87.24,29.31 87.68,29.15 88.13,26.81 88.57,26.87 89.02,26.26 89.46,25.66 89.91,25.30 90.35,24.74 90.80,23.61 91.24,22.64 91.69,22.22 92.13,22.26 92.58,22.20 93.02,21.94 93.47,22.91 93.91,24.88 94.36,25.86 94.80,25.34 95.25,24.85 95.70,25.04 96.14,25.15 96.59,24.88 97.03,24.72 97.48,24.13 97.92,23.23 98.37,22.99 98.81,22.94 99.26,22.99 99.70,22.91 100.15,22.52 100.59,22.17 101.04,21.54 101.48,6.84 101.93,8.89 102.37,12.24 102.82,12.18 103.26,12.15 103.71,12.89 104.15,11.07 104.60,13.44 105.04,14.41 105.49,18.19 105.93,20.86 106.38,23.05 106.82,20.47 107.27,23.18 107.71,26.23 108.16,28.33 108.60,30.41 109.05,32.64 109.49,30.63 109.94,28.00 110.38,29.95 110.83,28.57 111.27,27.63 111.72,27.23 112.16,27.36 112.61,27.93 113.05,30.45 113.50,31.98 113.95,33.57 114.39,35.07 114.84,35.73 115.28,37.50 115.73,38.98 116.17,40.78 116.62,43.50 117.06,45.62 117.51,49.97 117.95,50.44 118.40,48.89 118.84,46.40 119.29,45.23 119.73,47.90 120.18,47.81 120.62,47.55 121.07,47.09 121.51,48.95 121.96,48.15 122.40,49.88 122.85,49.50 123.29,51.07 123.74,50.70 124.18,52.11 124.63,50.92 125.07,52.35 125.52,54.36 125.96,53.66 126.41,52.67 126.85,51.76 127.30,53.90 127.74,53.79 128.19,53.75 128.63,56.00 129.08,55.76 129.52,55.31 129.97,55.02 130.41,55.28 130.86,55.15 131.30,55.35 131.75,55.26 132.20,55.08 132.64,55.02 133.09,54.94 133.53,54.79 133.98,54.61 134.42,53.55 134.87,53.55 135.31,53.31 135.76,53.06 136.20,52.76 136.65,53.09 137.09,52.70 137.54,52.39 137.98,52.42 138.43,52.11 138.87,52.09 139.32,51.80 139.76,51.69 140.21,51.40 140.65,50.70 141.10,50.70 141.54,51.11 141.99,51.00 142.43,50.78 142.88,50.61 143.32,50.69 143.77,50.80 144.21,50.94 144.66,50.70 145.10,50.48 145.55,50.68 145.99,49.22 146.44,49.58 146.88,47.63 147.33,48.56 147.77,48.80 148.22,48.17 148.66,46.80 149.11,45.66 149.55,44.16 150.00,47.98 150.45,46.39 150.89,46.72 151.34,43.89 151.78,45.44 152.23,47.18 152.67,46.60 153.12,44.08 153.56,43.20 154.01,43.01 154.45,43.17 154.90,43.52 155.34,43.89 155.79,44.23 156.23,44.22 156.68,44.36 157.12,44.52 157.57,44.47 158.01,44.38 158.46,43.72 158.90,43.08 159.35,42.70 159.79,42.55 160.24,43.79 160.68,44.08 161.13,44.79 161.57,44.85 162.02,43.97 162.46,44.35 162.91,43.77 163.35,43.00 163.80,42.42 164.24,43.48 164.69,42.53 165.13,41.80 165.58,42.84 166.02,41.84 166.47,42.69 166.91,42.63 167.36,42.34 167.80,42.31 168.25,41.63 168.70,41.04 169.14,40.86 169.59,40.76 170.03,40.63 170.48,40.08 170.92,40.24 171.37,39.81 171.81,39.97 172.26,39.55 172.70,39.27 173.15,39.13 173.59,38.84 174.04,38.82 174.48,38.36 174.93,38.05 175.37,37.61 175.82,37.60 176.26,36.96 176.71,36.90 177.15,36.46 177.60,36.15 178.04,35.85 178.49,35.34 178.93,34.51 179.38,33.05 179.82,31.41 180.27,30.48 180.71,33.22 181.16,33.22 181.60,32.85 182.05,33.69 182.49,33.26 182.94,32.47 183.38,32.73 183.83,31.78 184.27,30.19 184.72,27.39 185.16,28.16 185.61,25.91 186.05,24.78 186.50,25.80 186.95,23.85 187.39,21.73 187.84,25.29 188.28,22.82 188.73,23.21 189.17,21.05 189.62,22.35 190.06,20.87 190.51,22.07 190.95,20.63 191.40,23.70 191.84,25.01 192.29,25.36 192.73,24.41 193.18,24.90 193.62,25.09 194.07,24.68 194.51,23.92 194.96,24.25 195.40,23.46 195.85,23.09 196.29,22.80 196.74,23.09 197.18,23.04 197.63,22.51 198.07,22.14 198.52,21.41 198.96,4.00 199.41,4.00 199.85,6.38 200.30,6.38 200.74,9.08 201.19,9.08 201.63,9.08 202.08,14.09 202.52,6.92 202.97,6.92 203.41,12.72 203.86,12.72 204.30,18.16 204.75,18.16 205.20,18.16 205.64,23.84 206.09,23.84 206.53,31.83 206.98,31.83 207.42,28.74 207.87,28.74 208.31,28.74 208.76,25.89 209.20,25.89 209.65,25.89 210.09,27.26 210.54,27.26 210.98,31.29 211.43,31.29 211.87,31.29 212.32,36.26 212.76,36.26 213.21,38.93 213.65,44.47 214.10,44.47 214.54,44.47 214.99,49.05 215.43,46.62 215.88,46.62 216.32,46.62 216.77,42.24 217.21,42.24 217.66,42.24 218.10,40.89 218.55,40.89 218.99,48.60 219.44,46.81 219.88,46.81 220.33,46.81 220.77,46.81 221.22,42.76 221.66,50.58 222.11,50.58 222.55,47.14 223.00,47.14 223.45,47.14 223.89,47.14 224.34,45.06 224.78,53.32 225.23,53.32 225.67,53.77 226.12,53.77 226.56,53.77 227.01,54.21 227.45,54.21 227.90,54.21 228.34,54.32 228.79,54.32 229.23,54.32 229.68,53.92 230.12,53.92 230.57,53.92 231.01,53.23 231.46,53.23 231.90,53.23 232.35,53.23 232.79,52.05 233.24,52.05 233.68,52.05 234.13,49.04 234.57,49.04 235.02,49.04 235.46,50.63 235.91,50.63 236.35,50.63 236.80,46.19 237.24,46.19 237.69,46.19 238.13,41.86 238.58,41.86 239.02,50.22 239.47,50.22 239.91,49.82 240.36,49.82 240.80,49.82 241.25,49.55 241.70,49.55 242.14,49.55 242.59,49.47 243.03,49.47 243.48,40.59 243.92,42.99 244.37,42.99 244.81,42.99 245.26,42.17 245.70,42.17 246.15,42.17 246.59,37.05 247.04,37.05 247.48,37.05 247.93,37.05 248.37,41.87 248.82,41.87 249.26,41.87 249.71,41.87 250.15,41.27 250.60,41.27 251.04,41.27 251.49,38.33 251.93,38.33 252.38,38.33 252.82,39.28 253.27,39.28 253.71,40.85 254.16,40.85 254.60,40.85 255.05,41.69 255.49,41.69 255.94,41.91 256.38,41.91 256.83,41.91 257.27,41.73 257.72,41.73 258.16,41.73 258.61,42.96 259.05,42.96 259.50,42.96 259.95,40.25 260.39,40.25 260.84,40.25 261.28,35.14 261.73,41.64 262.17,41.64 262.62,39.23 263.06,39.23 263.51,39.23 263.95,39.23 264.40,40.60 264.84,40.60 265.29,40.60 265.73,40.60 266.18,40.60 266.62,40.60 267.07,40.60 267.51,40.60 267.96,39.33 268.40,39.33 268.85,39.33 269.29,39.33 269.74,35.40 270.18,38.59 270.63,38.59 271.07,37.17 271.52,37.17 271.96,37.17 272.41,37.57 272.85,36.57 273.30,36.57 273.74,36.57 274.19,36.26 274.63,35.73 275.08,35.73 275.52,35.73 275.97,27.91 276.41,27.91 276.86,27.91 277.30,23.31 277.75,23.31 278.20,31.95 278.64,31.95 279.09,30.10 279.53,30.10 279.98,30.10 280.42,25.59 280.87,25.59 281.31,25.59 281.76,17.81 282.20,17.81 282.65,27.45 283.09,23.01 283.54,23.01 283.98,23.01 284.43,16.25 284.87,16.25 285.32,16.25 285.76,16.25 286.21,19.43 286.65,19.43 287.10,19.43 287.54,14.52 287.99,14.52 288.43,14.52 288.88,23.32 289.32,21.79 289.77,21.79 290.21,24.37 290.66,24.37 291.10,24.37 291.55,23.18 291.99,23.18 292.44,23.18 292.88,23.18 293.33,22.45 293.77,22.45 294.22,22.45 294.66,22.45 295.11,20.97 295.55,21.63 296.00,19.91" />
</svg>