<svg width="300" height="60" xmlns="http://www.w3.org/2000/svg">
  <polyline fill="rgba(255,200,0,0.3)" stroke="#ffbb00" stroke-width="2" points="4.00,56.00 4.46,55.78 4.92,55.67 5.38,55.62 5.84,55.65 6.30,55.21 6.76,55.06 7.22,55.01 7.68,54.95 8.14,54.80 8.60,54.60 9.06,54.38 9.52,54.14 9.98,53.81 10.44,53.57 10.90,53.65 11.36,53.85 11.82,54.27 12.28,54.24 12.74,54.17 13.20,54.11 13.66,54.09 14.12,53.97 14.58,53.72 15.04,53.59 15.50,53.42 15.96,53.19 16.42,53.07 16.88,53.04 17.34,52.96 17.80,52.76 18.26,53.04 18.71,52.97 19.17,53.14 19.63,53.01 20.09,52.94 20.55,52.86 21.01,52.06 21.47,51.44 21.93,51.21 22.39,50.99 22.85,50.99 23.31,50.85 23.77,50.77 24.23,50.81 24.69,51.05 25.15,50.79 25.61,50.45 26.07,50.25 26.53,50.27 26.99,50.36 27.45,50.35 27.91,49.77 28.37,49.27 28.83,48.96 29.29,48.43 29.75,48.01 30.21,47.69 30.67,47.37 31.13,47.33 31.59,47.38 32.05,47.43 32.51,47.32 32.97,47.51 33.43,47.85 33.89,48.37 34.35,48.43 34.81,48.51 35.27,49.40 35.73,48.61 36.19,48.38 36.65,48.54 37.11,48.25 37.57,47.79 38.03,48.13 38.49,47.42 38.95,47.31 39.41,46.90 39.87,46.25 40.33,45.78 40.79,45.36 41.25,45.00 41.71,44.76 42.17,44.55 42.63,44.47 43.09,44.26 43.55,44.41 44.01,44.90 44.47,45.46 44.93,46.18 45.39,47.22 45.85,47.86 46.31,47.29 46.77,47.11 47.23,46.86 47.69,46.70 48.14,46.64 48.60,46.41 49.06,46.33 49.52,46.37 49.98,45.62 50.44,45.28 50.90,45.07 51.36,44.72 51.82,44.39 52.28,44.42 52.74,44.67 53.20,44.47 53.66,44.29 54.12,43.97 54.58,43.73 55.04,43.51 55.50,43.30 55.96,43.17 56.42,42.98 56.88,42.74 57.34,42.52 57.80,42.32 58.26,42.18 58.72,42.31 59.18,42.43 59.64,42.50 60.10,42.44 60.56,42.13 61.02,40.87 61.48,40.00 61.94,39.26 62.40,38.62 62.86,38.45 63.32,39.02 63.78,38.32 64.24,37.44 64.70,37.06 65.16,36.73 65.62,36.81 66.08,37.01 66.54,37.17 67.00,37.33 67.46,37.43 67.92,37.12 68.38,37.04 68.84,36.78 69.30,36.69 69.76,36.21 70.22,35.93 70.68,35.77 71.14,35.69 71.60,35.72 72.06,35.02 72.52,34.63 72.98,34.15 73.44,33.57 73.90,33.04 74.36,32.56 74.82,32.18 75.28,31.79 75.74,31.44 76.20,30.90 76.66,30.37 77.11,29.60 77.57,28.87 78.03,28.25 78.49,27.58 78.95,26.93 79.41,26.36 79.87,25.63 80.33,24.85 80.79,24.20 81.25,23.94 81.71,23.18 82.17,21.85 82.63,20.54 83.09,19.61 83.55,19.19 84.01,19.09 84.47,19.37 84.93,19.88 85.39,20.29 85.85,20.63 86.31,20.46 86.77,20.11 87.23,19.86 87.69,19.30 88.15,18.90 88.61,18.43 89.07,18.35 89.53,18.39 89.99,18.58 90.45,18.84 90.91,18.52 91.37,18.02 91.83,17.51 92.29,16.89 92.75,15.90 93.21,14.88 93.67,14.02 94.13,13.02 94.59,12.08 95.05,11.24 95.51,10.12 95.97,8.89 96.43,7.73 96.89,6.57 97.35,5.54 97.81,4.62 98.27,4.17 98.73,4.52 99.19,6.08 99.65,8.22 100.11,9.18 100.57,9.60 101.03,7.56 101.49,55.58 101.95,55.72 102.41,55.52 102.87,55.45 103.33,55.65 103.79,55.36 104.25,55.10 104.71,54.92 105.17,54.95 105.63,54.89 106.09,54.62 106.54,54.23 107.00,54.23 107.46,53.85 107.92,53.54 108.38,53.70 108.84,53.96 109.30,54.21 109.76,54.21 110.22,54.18 110.68,54.11 111.14,54.10 111.60,53.92 112.06,53.75 112.52,53.66 112.98,53.38 113.44,53.30 113.90,53.07 114.36,53.12 114.82,52.94 115.28,52.72 115.74,52.89 116.20,52.94 116.66,52.97 117.12,52.97 117.58,52.71 118.04,52.74 118.50,52.02 118.96,51.27 119.42,51.34 119.88,51.34 120.34,51.34 120.80,50.55 121.26,50.71 121.72,50.98 122.18,50.98 122.64,50.98 123.10,50.74 123.56,50.52 124.02,50.53 124.48,50.70 124.94,50.84 125.40,49.67 125.86,49.40 126.32,49.27 126.78,48.51 127.24,48.02 127.70,47.55 128.16,47.67 128.62,47.40 129.08,47.82 129.54,47.32 130.00,47.13 130.46,47.39 130.92,47.77 131.38,48.29 131.84,48.55 132.30,48.74 132.76,49.02 133.22,48.76 133.68,48.30 134.14,48.63 134.60,48.20 135.06,48.20 135.51,47.96 135.97,47.51 136.43,47.46 136.89,46.79 137.35,46.40 137.81,46.04 138.27,45.39 138.73,45.31 139.19,44.90 139.65,44.54 140.11,44.54 140.57,44.18 141.03,44.69 141.49,44.59 141.95,45.37 142.41,46.38 142.87,47.38 143.33,47.61 143.79,47.31 144.25,47.03 144.71,46.87 145.17,46.83 145.63,46.52 146.09,46.37 146.55,46.24 147.01,45.96 147.47,45.65 147.93,45.28 148.39,45.28 148.85,44.92 149.31,44.53 149.77,44.51 150.23,44.51 150.69,44.52 151.15,44.20 151.61,43.78 152.07,43.85 152.53,43.42 152.99,43.51 153.45,43.13 153.91,43.20 154.37,42.79 154.83,42.49 155.29,42.33 155.75,42.33 156.21,42.33 156.67,42.29 157.13,42.25 157.59,42.20 158.05,42.17 158.51,41.66 158.97,40.35 159.43,39.37 159.89,38.76 160.35,38.24 160.81,38.90 161.27,38.31 161.73,37.85 162.19,36.96 162.65,36.80 163.11,36.64 163.57,37.45 164.03,37.35 164.49,37.30 164.94,37.50 165.40,37.15 165.86,37.51 166.32,37.25 166.78,36.82 167.24,36.32 167.70,35.95 168.16,35.69 168.62,35.53 169.08,35.40 169.54,34.94 170.00,34.48 170.46,34.07 170.92,33.64 171.38,32.82 171.84,32.82 172.30,32.48 172.76,32.17 173.22,31.51 173.68,31.14 174.14,30.71 174.60,29.57 175.06,28.98 175.52,28.38 175.98,27.75 176.44,27.13 176.90,26.52 177.36,25.69 177.82,24.77 178.28,23.78 178.74,24.51 179.20,23.67 179.66,22.42 180.12,21.03 180.58,19.86 181.04,20.06 181.50,19.00 181.96,19.63 182.42,19.86 182.88,20.09 183.34,21.06 183.80,20.03 184.26,20.14 184.72,20.34 185.18,19.10 185.64,19.10 186.10,17.91 186.56,18.37 187.02,19.00 187.48,18.51 187.94,19.03 188.40,19.16 188.86,17.75 189.32,17.66 189.78,17.31 190.24,15.68 190.70,15.68 191.16,14.11 191.62,13.85 192.08,12.35 192.54,10.88 193.00,10.35 193.46,8.48 193.91,8.48 194.37,6.88 194.83,5.42 195.29,4.79 195.75,4.00 196.21,4.68 196.67,6.60 197.13,8.55 197.59,8.55 198.05,9.22 198.51,7.35 198.97,55.21 199.43,53.36 199.89,53.36 200.35,53.36 200.81,55.56 201.27,55.24 201.73,55.24 202.19,54.87 202.65,54.87 203.11,54.83 203.57,54.83 204.03,54.83 204.49,54.83 204.95,53.78 205.41,53.78 205.87,53.78 206.33,54.20 206.79,53.69 207.25,53.69 207.71,53.69 208.17,54.19 208.63,54.19 209.09,53.86 209.55,53.86 210.01,53.80 210.47,53.80 210.93,53.80 211.39,53.10 211.85,53.10 212.31,53.10 212.77,53.10 213.23,53.21 213.69,52.44 214.15,52.44 214.61,52.44 215.07,52.86 215.53,52.86 215.99,51.62 216.45,51.87 216.91,51.87 217.37,51.87 217.83,51.84 218.29,51.84 218.75,51.84 219.21,51.76 219.67,51.76 220.13,51.76 220.59,51.76 221.05,51.64 221.51,51.64 221.97,51.64 222.43,51.43 222.89,49.93 223.34,49.93 223.80,49.66 224.26,49.66 224.72,49.66 225.18,47.91 225.64,47.88 226.10,47.88 226.56,47.88 227.02,47.88 227.48,47.15 227.94,47.15 228.40,47.15 228.86,48.25 229.32,48.25 229.78,48.25 230.24,49.17 230.70,49.17 231.16,49.17 231.62,49.26 232.08,48.13 232.54,48.13 233.00,48.13 233.46,48.30 233.92,48.30 234.38,47.18 234.84,47.18 235.30,46.69 235.76,46.69 236.22,46.69 236.68,45.11 237.14,45.11 237.60,45.11 238.06,45.11 238.52,46.44 238.98,44.15 239.44,44.15 239.90,46.30 240.36,46.30 240.82,46.30 241.28,47.32 241.74,47.32 242.20,47.32 242.66,46.83 243.12,46.83 243.58,46.83 244.04,46.29 244.50,46.29 244.96,46.29 245.42,45.64 245.88,45.64 246.34,45.64 246.80,45.52 247.26,44.48 247.72,44.48 248.18,44.48 248.64,44.83 249.10,43.84 249.56,43.84 250.02,43.89 250.48,43.89 250.94,43.89 251.40,43.81 251.86,42.87 252.31,42.87 252.77,42.87 253.23,42.87 253.69,42.28 254.15,42.28 254.61,42.28 255.07,41.83 255.53,41.70 255.99,41.70 256.45,41.70 256.91,40.09 257.37,39.68 257.83,39.68 258.29,39.68 258.75,37.95 259.21,37.97 259.67,37.97 260.13,37.97 260.59,37.43 261.05,37.43 261.51,37.43 261.97,37.43 262.43,38.47 262.89,38.47 263.35,38.47 263.81,37.69 264.27,37.69 264.73,37.69 265.19,36.69 265.65,36.69 266.11,36.69 266.57,35.78 267.03,35.78 267.49,35.78 267.95,34.46 268.41,34.46 268.87,34.46 269.33,34.46 269.79,33.50 270.25,33.50 270.71,32.08 271.17,32.08 271.63,32.08 272.09,30.77 272.55,30.77 273.01,29.30 273.47,29.30 273.93,29.30 274.39,27.55 274.85,27.55 275.31,25.19 275.77,25.19 276.23,25.19 276.69,25.36 277.15,22.30 277.61,22.30 278.07,22.30 278.53,23.60 278.99,20.73 279.45,20.73 279.91,20.73 280.37,23.11 280.83,23.11 281.29,19.85 281.74,20.36 282.20,20.36 282.66,20.36 283.12,20.36 283.58,21.23 284.04,21.23 284.50,21.23 284.96,18.97 285.42,18.97 285.88,18.97 286.34,18.56 286.80,18.56 287.26,18.56 287.72,17.58 288.18,17.58 288.64,13.82 289.10,13.82 289.56,12.89 290.02,12.89 290.48,12.89 290.94,7.47 291.40,7.47 291.86,7.47 292.32,7.47 292.78,5.96 293.24,4.86 293.70,4.86 294.16,4.86 294.62,8.05 295.08,8.05 295.54,8.05 296.00,7.58" />
</svg>