<svg width="300" height="60" xmlns="http://www.w3.org/2000/svg">
  <polyline fill="rgba(255,200,0,0.3)" stroke="#ffbb00" stroke-width="2" points="4.00,15.04 4.26,14.84 4.51,14.33 4.77,13.87 5.03,13.74 5.28,13.51 5.54,13.18 5.80,12.87 6.05,12.73 6.31,12.08 6.57,11.50 6.82,10.75 7.08,9.88 7.34,8.94 7.60,8.14 7.85,7.72 8.11,7.51 8.37,7.25 8.62,6.91 8.88,6.71 9.14,6.57 9.39,6.16 9.65,5.52 9.91,5.13 10.16,4.90 10.42,4.30 10.68,4.07 10.93,4.03 11.19,4.29 11.45,4.59 11.70,4.93 11.96,5.29 12.22,5.73 12.47,6.21 12.73,6.62 12.99,7.08 13.25,7.77 13.50,8.66 13.76,9.06 14.02,9.35 14.27,9.51 14.53,9.77 14.79,9.97 15.04,10.20 15.30,10.09 15.56,10.20 15.81,10.47 16.07,10.68 16.33,10.96 16.58,11.30 16.84,11.42 17.10,11.86 17.35,12.23 17.61,12.57 17.87,12.71 18.12,12.92 18.38,12.93 18.64,13.22 18.90,13.50 19.15,13.82 19.41,14.04 19.67,14.44 19.92,14.75 20.18,15.19 20.44,15.26 20.69,15.59 20.95,15.72 21.21,15.98 21.46,16.18 21.72,16.27 21.98,16.41 22.23,16.85 22.49,17.26 22.75,17.64 23.00,18.02 23.26,18.36 23.52,18.61 23.77,18.70 24.03,18.83 24.29,18.98 24.55,19.13 24.80,19.07 25.06,19.19 25.32,19.32 25.57,19.46 25.83,19.60 26.09,19.74 26.34,19.85 26.60,19.91 26.86,19.97 27.11,19.96 27.37,20.09 27.63,20.37 27.88,20.64 28.14,20.89 28.40,21.05 28.65,20.98 28.91,20.92 29.17,21.07 29.42,21.14 29.68,21.25 29.94,21.34 30.20,21.29 30.45,20.98 30.71,20.78 30.97,20.75 31.22,20.77 31.48,20.33 31.74,20.10 31.99,19.89 32.25,20.12 32.51,20.42 32.76,20.70 33.02,21.18 33.28,21.59 33.53,21.81 33.79,21.99 34.05,22.07 34.30,22.30 34.56,23.05 34.82,23.77 35.07,24.42 35.33,24.77 35.59,25.49 35.85,26.18 36.10,26.75 36.36,27.24 36.62,27.61 36.87,27.67 37.13,27.33 37.39,26.86 37.64,26.29 37.90,25.84 38.16,25.65 38.41,25.60 38.67,25.95 38.93,26.28 39.18,26.57 39.44,26.93 39.70,27.24 39.95,27.43 40.21,27.70 40.47,28.26 40.72,28.68 40.98,29.55 41.24,30.11 41.50,30.67 41.75,31.35 42.01,32.18 42.27,32.72 42.52,33.46 42.78,34.25 43.04,34.70 43.29,35.18 43.55,35.62 43.81,35.93 44.06,36.22 44.32,36.65 44.58,37.06 44.83,37.44 45.09,37.83 45.35,38.08 45.60,38.18 45.86,38.07 46.12,38.12 46.37,38.18 46.63,38.18 46.89,38.09 47.15,37.83 47.40,37.64 47.66,37.45 47.92,37.22 48.17,37.06 48.43,36.87 48.69,36.80 48.94,36.93 49.20,36.81 49.46,36.82 49.71,36.79 49.97,36.69 50.23,36.59 50.48,36.46 50.74,36.29 51.00,36.24 51.25,36.02 51.51,35.72 51.77,35.56 52.02,35.14 52.28,35.15 52.54,34.85 52.80,34.56 53.05,34.52 53.31,34.23 53.57,34.28 53.82,34.14 54.08,34.19 54.34,34.13 54.59,34.01 54.85,33.74 55.11,33.74 55.36,33.99 55.62,34.22 55.88,34.37 56.13,34.46 56.39,34.53 56.65,34.60 56.90,34.52 57.16,34.37 57.42,34.49 57.67,34.62 57.93,34.58 58.19,34.17 58.45,34.01 58.70,34.11 58.96,34.33 59.22,34.36 59.47,34.25 59.73,34.08 59.99,33.62 60.24,33.12 60.50,32.81 60.76,32.86 61.01,33.31 61.27,33.74 61.53,33.97 61.78,34.49 62.04,33.97 62.30,34.48 62.55,34.88 62.81,35.59 63.07,36.50 63.32,37.14 63.58,37.70 63.84,37.94 64.09,38.55 64.35,38.93 64.61,39.07 64.87,39.65 65.12,39.99 65.38,40.26 65.64,40.60 65.89,40.96 66.15,41.37 66.41,41.66 66.66,41.84 66.92,41.97 67.18,42.20 67.43,42.29 67.69,42.38 67.95,42.51 68.20,42.65 68.46,42.74 68.72,42.70 68.97,42.43 69.23,42.03 69.49,42.12 69.74,42.23 70.00,42.54 70.26,43.25 70.52,43.73 70.77,43.88 71.03,43.94 71.29,44.07 71.54,44.05 71.80,44.74 72.06,45.50 72.31,46.22 72.57,46.91 72.83,47.56 73.08,48.05 73.34,48.39 73.60,48.47 73.85,48.45 74.11,48.55 74.37,48.78 74.62,49.40 74.88,50.27 75.14,50.78 75.39,50.87 75.65,50.84 75.91,51.04 76.17,51.53 76.42,52.18 76.68,53.13 76.94,54.44 77.19,55.93 77.45,15.03 77.71,14.78 77.96,14.08 78.22,13.80 78.48,13.73 78.73,13.46 78.99,13.13 79.25,13.00 79.50,12.57 79.76,12.10 80.02,11.45 80.27,10.66 80.53,9.74 80.79,8.79 81.04,8.17 81.30,7.67 81.56,7.23 81.82,7.20 82.07,6.55 82.33,6.64 82.59,6.39 82.84,6.11 83.10,5.45 83.36,4.98 83.61,4.90 83.87,4.29 84.13,4.02 84.38,4.00 84.64,4.23 84.90,4.51 85.15,4.94 85.41,5.30 85.67,5.58 85.92,6.10 86.18,6.51 86.44,7.14 86.69,7.73 86.95,8.49 87.21,9.06 87.47,9.24 87.72,9.49 87.98,9.65 88.24,9.68 88.49,9.97 88.75,9.97 89.01,10.10 89.26,10.37 89.52,10.74 89.78,10.90 90.03,11.22 90.29,11.33 90.55,11.74 90.80,12.04 91.06,12.46 91.32,12.56 91.57,12.64 91.83,12.88 92.09,13.08 92.34,13.46 92.60,13.67 92.86,13.94 93.12,14.21 93.37,14.66 93.63,15.02 93.89,15.17 94.14,15.46 94.40,15.65 94.66,15.92 94.91,16.08 95.17,16.12 95.43,16.48 95.68,16.77 95.94,17.08 96.20,17.34 96.45,17.77 96.71,18.18 96.97,18.51 97.22,18.70 97.48,18.83 97.74,19.00 97.99,19.02 98.25,19.15 98.51,19.11 98.77,19.28 99.02,19.41 99.28,19.61 99.54,19.80 99.79,19.82 100.05,19.90 100.31,19.95 100.56,19.94 100.82,19.96 101.08,20.26 101.33,20.44 101.59,20.76 101.85,20.80 102.10,20.88 102.36,20.83 102.62,20.96 102.87,21.00 103.13,21.09 103.39,21.18 103.64,21.15 103.90,20.88 104.16,20.66 104.42,20.56 104.67,20.61 104.93,20.21 105.19,19.95 105.44,19.84 105.70,19.98 105.96,20.43 106.21,20.68 106.47,21.02 106.73,21.55 106.98,21.82 107.24,21.97 107.50,21.92 107.75,22.35 108.01,23.01 108.27,23.61 108.52,24.37 108.78,24.64 109.04,25.55 109.29,26.16 109.55,26.78 109.81,27.33 110.07,27.69 110.32,27.66 110.58,27.25 110.84,26.73 111.09,26.25 111.35,25.82 111.61,25.62 111.86,25.68 112.12,25.98 112.38,26.28 112.63,26.57 112.89,26.86 113.15,27.11 113.40,27.46 113.66,27.74 113.92,28.16 114.17,28.73 114.43,29.59 114.69,30.33 114.94,30.81 115.20,31.25 115.46,32.18 115.72,32.82 115.97,33.64 116.23,34.31 116.49,34.59 116.74,35.10 117.00,35.55 117.26,35.93 117.51,36.24 117.77,36.70 118.03,37.09 118.28,37.39 118.54,37.77 118.80,37.97 119.05,38.14 119.31,38.05 119.57,38.10 119.82,38.14 120.08,38.10 120.34,38.03 120.59,37.86 120.85,37.61 121.11,37.39 121.36,37.16 121.62,37.11 121.88,36.93 122.14,36.94 122.39,36.90 122.65,36.82 122.91,36.75 123.16,36.77 123.42,36.77 123.68,36.59 123.93,36.48 124.19,36.27 124.45,36.22 124.70,36.06 124.96,35.76 125.22,35.53 125.47,35.23 125.73,35.11 125.99,34.88 126.24,34.62 126.50,34.55 126.76,34.40 127.01,34.41 127.27,34.12 127.53,34.20 127.79,34.15 128.04,33.95 128.30,33.83 128.56,33.45 128.81,33.98 129.07,34.18 129.33,34.34 129.58,34.42 129.84,34.55 130.10,34.62 130.35,34.48 130.61,34.38 130.87,34.48 131.12,34.58 131.38,34.62 131.64,34.18 131.89,34.04 132.15,34.43 132.41,34.37 132.66,34.35 132.92,34.25 133.18,34.10 133.44,33.62 133.69,33.26 133.95,32.81 134.21,32.86 134.46,33.24 134.72,33.69 134.98,34.04 135.23,34.50 135.49,34.91 135.75,35.63 136.00,36.37 136.26,37.21 136.52,37.62 136.77,38.03 137.03,38.47 137.29,38.94 137.54,39.02 137.80,39.60 138.06,40.01 138.31,40.20 138.57,40.68 138.83,40.98 139.09,41.35 139.34,41.68 139.60,41.83 139.86,42.04 140.11,42.20 140.37,42.25 140.63,42.41 140.88,42.54 141.14,42.64 141.40,42.77 141.65,42.72 141.91,42.49 142.17,42.02 142.42,42.00 142.68,42.30 142.94,42.65 143.19,43.19 143.45,43.62 143.71,43.82 143.96,43.92 144.22,44.09 144.48,44.11 144.74,44.80 144.99,45.42 145.25,46.37 145.51,46.98 145.76,47.59 146.02,48.09 146.28,48.32 146.53,48.50 146.79,48.48 147.05,48.60 147.30,48.83 147.56,49.38 147.82,50.11 148.07,50.94 148.33,50.57 148.59,50.74 148.84,51.03 149.10,51.59 149.36,52.35 149.61,53.24 149.87,54.52 150.13,56.00 150.39,15.17 150.64,14.79 150.90,14.32 151.16,13.87 151.41,13.67 151.67,13.63 151.93,13.36 152.18,13.06 152.44,12.56 152.70,11.86 152.95,11.07 153.21,10.27 153.47,9.48 153.72,8.47 153.98,7.69 154.24,7.36 154.49,6.74 154.75,7.25 155.01,6.51 155.26,6.30 155.52,6.07 155.78,5.26 156.04,5.03 156.29,4.51 156.55,4.94 156.81,4.44 157.06,4.13 157.32,4.02 157.58,4.18 157.83,4.49 158.09,4.83 158.35,5.49 158.60,5.80 158.86,6.17 159.12,6.77 159.37,7.53 159.63,8.19 159.89,8.56 160.14,9.46 160.40,9.34 160.66,9.27 160.91,9.88 161.17,9.82 161.43,10.12 161.69,10.12 161.94,10.39 162.20,10.64 162.46,10.92 162.71,11.27 162.97,11.27 163.23,11.57 163.48,12.00 163.74,12.18 164.00,12.61 164.25,12.76 164.51,13.03 164.77,13.17 165.02,13.49 165.28,13.71 165.54,13.89 165.79,14.07 166.05,14.54 166.31,14.97 166.56,15.06 166.82,15.44 167.08,15.61 167.34,15.87 167.59,16.24 167.85,16.44 168.11,16.96 168.36,16.64 168.62,17.03 168.88,17.47 169.13,17.47 169.39,17.98 169.65,18.40 169.90,18.50 170.16,18.72 170.42,18.96 170.67,18.96 170.93,19.19 171.19,19.01 171.44,19.20 171.70,19.40 171.96,19.29 172.21,19.64 172.47,19.92 172.73,19.75 172.99,20.07 173.24,20.00 173.50,20.09 173.76,20.35 174.01,20.74 174.27,20.71 174.53,21.03 174.78,21.21 175.04,21.25 175.30,21.03 175.55,21.35 175.81,21.47 176.07,21.59 176.32,21.31 176.58,21.15 176.84,21.41 177.09,21.35 177.35,20.82 177.61,20.57 177.86,20.85 178.12,20.66 178.38,20.12 178.64,20.53 178.89,21.12 179.15,20.91 179.41,21.80 179.66,21.70 179.92,22.51 180.18,22.25 180.43,22.08 180.69,22.92 180.95,23.25 181.20,23.69 181.46,24.18 181.72,24.64 181.97,26.15 182.23,26.63 182.49,26.99 182.74,27.97 183.00,28.06 183.26,27.87 183.51,27.82 183.77,27.03 184.03,26.38 184.28,25.91 184.54,25.76 184.80,26.07 185.06,26.21 185.31,27.01 185.57,27.01 185.83,27.06 186.08,27.61 186.34,27.47 186.60,27.64 186.85,28.06 187.11,28.62 187.37,29.71 187.62,30.14 187.88,30.72 188.14,31.44 188.39,32.61 188.65,33.12 188.91,33.65 189.16,34.55 189.42,34.93 189.68,35.43 189.93,35.83 190.19,36.26 190.45,36.73 190.71,37.21 190.96,37.58 191.22,37.58 191.48,38.01 191.73,37.84 191.99,38.04 192.25,38.10 192.50,38.27 192.76,38.24 193.02,38.32 193.27,38.00 193.53,37.85 193.79,37.75 194.04,37.29 194.30,37.21 194.56,37.16 194.81,37.09 195.07,36.80 195.33,36.87 195.58,37.05 195.84,36.43 196.10,36.49 196.36,36.93 196.61,36.72 196.87,36.49 197.13,36.38 197.38,36.12 197.64,35.93 197.90,35.74 198.15,35.38 198.41,35.19 198.67,34.77 198.92,34.69 199.18,34.30 199.44,34.35 199.69,34.35 199.95,34.42 200.21,34.01 200.46,34.10 200.72,33.54 200.98,33.32 201.23,33.63 201.49,33.21 201.75,33.47 202.01,34.03 202.26,33.93 202.52,34.33 202.78,34.33 203.03,34.74 203.29,34.31 203.55,34.00 203.80,34.53 204.06,34.38 204.32,34.45 204.57,34.01 204.83,33.66 205.09,34.12 205.34,33.97 205.60,34.36 205.86,34.26 206.11,34.03 206.37,33.46 206.63,33.67 206.88,33.71 207.14,33.01 207.40,34.02 207.66,34.35 207.91,35.04 208.17,34.67 208.43,35.52 208.68,36.20 208.94,36.86 209.20,37.49 209.45,37.46 209.71,37.95 209.97,38.58 210.22,38.94 210.48,39.32 210.74,39.75 210.99,40.08 211.25,40.18 211.51,40.64 211.76,41.34 212.02,41.78 212.28,42.57 212.53,41.84 212.79,42.35 213.05,42.30 213.31,42.68 213.56,42.66 213.82,42.72 214.08,42.80 214.33,42.81 214.59,42.58 214.85,41.88 215.10,41.70 215.36,41.80 215.62,42.17 215.87,42.39 216.13,42.92 216.39,43.39 216.64,43.06 216.90,43.79 217.16,44.07 217.41,43.99 217.67,44.93 217.93,45.53 218.18,46.08 218.44,46.45 218.70,47.41 218.96,47.61 219.21,48.40 219.47,48.59 219.73,48.68 219.98,48.98 220.24,49.14 220.50,49.58 220.75,50.00 221.01,50.45 221.27,50.31 221.52,50.58 221.78,51.28 222.04,51.28 222.29,52.36 222.55,53.45 222.81,53.89 223.06,55.29 223.32,15.01 223.58,15.01 223.83,15.01 224.09,13.95 224.35,13.95 224.61,13.95 224.86,13.11 225.12,13.11 225.38,13.11 225.63,11.64 225.89,11.64 226.15,11.64 226.40,9.01 226.66,9.01 226.92,9.01 227.17,7.03 227.43,7.03 227.69,7.03 227.94,7.03 228.20,6.08 228.46,6.08 228.71,6.08 228.97,4.54 229.23,4.54 229.48,5.66 229.74,5.66 230.00,4.70 230.26,4.70 230.51,4.70 230.77,5.35 231.03,5.35 231.28,5.35 231.54,6.58 231.80,6.58 232.05,6.58 232.31,8.35 232.57,8.35 232.82,8.35 233.08,9.04 233.34,9.04 233.59,9.04 233.85,10.53 234.11,10.53 234.36,10.53 234.62,10.53 234.88,11.26 235.13,11.26 235.39,11.17 235.65,12.00 235.91,12.00 236.16,12.00 236.42,12.19 236.68,12.75 236.93,12.75 237.19,12.75 237.45,13.78 237.70,13.67 237.96,13.67 238.22,13.67 238.47,13.67 238.73,14.36 238.99,14.87 239.24,14.87 239.50,15.63 239.76,15.63 240.01,15.95 240.27,15.95 240.53,16.99 240.78,16.99 241.04,16.99 241.30,16.82 241.55,17.64 241.81,17.64 242.07,17.64 242.33,18.03 242.58,18.50 242.84,18.50 243.10,18.50 243.35,19.23 243.61,19.23 243.87,19.23 244.12,19.23 244.38,18.99 244.64,19.88 244.89,19.88 245.15,19.88 245.41,19.76 245.66,19.76 245.92,20.65 246.18,20.43 246.43,20.43 246.69,20.43 246.95,21.60 247.20,21.60 247.46,21.60 247.72,20.97 247.98,21.94 248.23,21.94 248.49,21.94 248.75,21.03 249.00,22.29 249.26,22.29 249.52,20.91 249.77,20.91 250.03,22.18 250.29,22.18 250.54,20.27 250.80,20.27 251.06,22.10 251.31,22.10 251.57,20.59 251.83,20.59 252.08,20.59 252.34,22.88 252.60,22.88 252.85,22.88 253.11,22.48 253.37,22.48 253.63,22.48 253.88,23.30 254.14,23.30 254.40,23.30 254.65,24.75 254.91,26.34 255.17,27.67 255.42,27.67 255.68,27.67 255.94,27.92 256.19,27.92 256.45,27.92 256.71,26.65 256.96,27.08 257.22,27.08 257.48,26.04 257.73,26.04 257.99,26.04 258.25,28.18 258.50,28.18 258.76,28.18 259.02,27.87 259.28,27.87 259.53,27.87 259.79,29.06 260.05,29.06 260.30,29.79 260.56,29.79 260.82,29.79 261.07,32.02 261.33,33.15 261.59,33.15 261.84,34.60 262.10,34.60 262.36,34.60 262.61,36.00 262.87,36.00 263.13,36.00 263.38,37.70 263.64,37.70 263.90,37.70 264.15,37.70 264.41,39.17 264.67,37.04 264.93,37.04 265.18,38.08 265.44,39.12 265.70,39.12 265.95,38.35 266.21,38.35 266.47,38.35 266.72,37.77 266.98,37.77 267.24,37.77 267.49,37.37 267.75,37.37 268.01,36.82 268.26,36.47 268.52,36.47 268.78,36.47 269.03,36.47 269.29,36.61 269.55,36.61 269.80,36.61 270.06,36.91 270.32,36.53 270.58,36.53 270.83,35.46 271.09,35.46 271.35,35.46 271.60,34.52 271.86,34.52 272.12,34.52 272.37,34.52 272.63,34.52 272.89,34.52 273.14,34.52 273.40,33.04 273.66,33.04 273.91,33.90 274.17,33.90 274.43,32.97 274.68,32.97 274.94,34.32 275.20,34.28 275.45,34.28 275.71,34.28 275.97,34.28 276.23,33.46 276.48,33.46 276.74,35.33 277.00,34.44 277.25,34.44 277.51,34.44 277.77,33.51 278.02,33.51 278.28,33.51 278.54,35.11 278.79,34.06 279.05,34.06 279.31,34.06 279.56,34.59 279.82,33.50 280.08,33.50 280.33,33.50 280.59,36.46 280.85,34.78 281.10,34.78 281.36,34.78 281.62,37.82 281.88,36.64 282.13,36.64 282.39,36.64 282.65,38.85 282.90,38.85 283.16,38.11 283.42,39.71 283.67,39.71 283.93,39.71 284.19,39.71 284.44,41.70 284.70,41.08 284.96,41.08 285.21,43.30 285.47,43.30 285.73,43.30 285.98,42.23 286.24,43.07 286.50,43.07 286.75,43.07 287.01,43.55 287.27,42.46 287.53,42.46 287.78,41.97 288.04,41.97 288.30,41.97 288.55,42.76 288.81,42.76 289.07,42.76 289.32,44.42 289.58,42.55 289.84,43.85 290.09,43.85 290.35,43.85 290.61,45.48 290.86,45.48 291.12,45.48 291.38,47.22 291.63,48.77 291.89,48.77 292.15,48.95 292.40,48.95 292.66,49.78 292.92,49.78 293.18,50.49 293.43,50.83 293.69,50.83 293.95,50.83 294.20,51.02 294.46,51.02 294.72,52.52 294.97,52.52 295.23,53.14 295.49,53.14 295.74,54.73 296.00,54.73" />
</svg>