<svg width="300" height="60" xmlns="http://www.w3.org/2000/svg">
  <polyline fill="rgba(255,200,0,0.3)" stroke="#ffbb00" stroke-width="2" points="4.00,4.00 4.96,4.35 5.91,6.01 6.87,7.68 7.83,8.68 8.79,9.05 9.74,8.57 10.70,8.27 11.66,8.52 12.62,9.63 13.57,10.65 14.53,10.85 15.49,10.19 16.45,9.39 17.40,9.13 18.36,8.14 19.32,9.34 20.28,11.22 21.23,12.51 22.19,13.78 23.15,15.36 24.10,16.62 25.06,17.49 26.02,18.48 26.98,20.35 27.93,22.03 28.89,23.26 29.85,24.41 30.81,24.05 31.76,23.23 32.72,21.56 33.68,19.51 34.64,19.06 35.59,20.10 36.55,21.46 37.51,21.77 38.47,21.07 39.42,20.17 40.38,20.25 41.34,21.15 42.30,23.38 43.25,25.84 44.21,28.21 45.17,28.77 46.12,28.37 47.08,28.92 48.04,29.49 49.00,30.15 49.95,31.09 50.91,30.46 51.87,29.91 52.83,29.54 53.78,28.86 54.74,28.79 55.70,28.43 56.66,29.03 57.61,28.61 58.57,27.65 59.53,26.61 60.49,25.62 61.44,25.33 62.40,24.17 63.36,24.38 64.31,24.64 65.27,24.72 66.23,25.88 67.19,28.29 68.14,31.44 69.10,34.44 70.06,37.52 71.02,39.32 71.97,36.71 72.93,35.76 73.89,35.60 74.85,36.07 75.80,36.40 76.76,36.42 77.72,35.29 78.68,33.90 79.63,32.84 80.59,31.66 81.55,30.41 82.50,29.96 83.46,31.31 84.42,33.75 85.38,36.76 86.33,39.99 87.29,43.11 88.25,43.80 89.21,41.91 90.16,39.57 91.12,37.23 92.08,35.73 93.04,35.17 93.99,37.19 94.95,39.44 95.91,43.93 96.87,46.77 97.82,48.32 98.78,51.42 99.74,54.33 100.70,56.00 101.65,4.12 102.61,4.29 103.57,5.43 104.52,7.13 105.48,8.38 106.44,9.02 107.40,7.77 108.35,9.06 109.31,10.44 110.27,10.25 111.23,9.99 112.18,11.75 113.14,10.42 114.10,9.31 115.06,8.15 116.01,9.37 116.97,9.57 117.93,11.83 118.89,12.26 119.84,13.96 120.80,15.80 121.76,16.71 122.71,17.98 123.67,19.20 124.63,20.43 125.59,21.74 126.54,23.01 127.50,23.01 128.46,23.79 129.42,22.11 130.37,20.53 131.33,19.25 132.29,19.28 133.25,20.38 134.20,21.61 135.16,21.61 136.12,21.70 137.08,20.14 138.03,20.21 138.99,21.14 139.95,23.12 140.90,25.34 141.86,28.07 142.82,28.44 143.78,28.44 144.73,29.14 145.69,29.64 146.65,30.36 147.61,30.36 148.56,30.42 149.52,30.48 150.48,29.44 151.44,29.48 152.39,28.69 153.35,28.21 154.31,29.11 155.27,28.28 156.22,27.30 157.18,26.43 158.14,25.80 159.10,24.74 160.05,24.74 161.01,24.55 161.97,24.93 162.92,25.00 163.88,26.01 164.84,28.00 165.80,30.25 166.75,33.34 167.71,36.08 168.67,38.25 169.63,35.53 170.58,36.30 171.54,35.30 172.50,37.61 173.46,35.53 174.41,36.58 175.37,34.24 176.33,33.75 177.29,32.11 178.24,30.85 179.20,30.85 180.16,29.81 181.11,30.96 182.07,32.17 183.03,37.51 183.99,40.25 184.94,42.64 185.90,43.60 186.86,42.89 187.82,39.38 188.77,38.12 189.73,35.78 190.69,35.29 191.65,37.42 192.60,39.03 193.56,43.70 194.52,45.62 195.48,49.44 196.43,50.13 197.39,53.65 198.35,55.44 199.30,5.51 200.26,5.51 201.22,5.51 202.18,9.63 203.13,9.63 204.09,6.99 205.05,6.99 206.01,13.74 206.96,13.74 207.92,12.34 208.88,12.34 209.84,9.17 210.79,9.17 211.75,9.17 212.71,8.25 213.67,13.93 214.62,13.93 215.58,14.27 216.54,14.27 217.50,14.27 218.45,19.19 219.41,17.23 220.37,17.23 221.32,19.35 222.28,19.35 223.24,19.35 224.20,20.77 225.15,20.77 226.11,20.77 227.07,20.77 228.03,21.06 228.98,19.66 229.94,19.66 230.90,19.66 231.86,23.05 232.81,23.05 233.77,23.05 234.73,19.84 235.69,19.84 236.64,25.15 237.60,25.15 238.56,25.15 239.51,26.00 240.47,27.87 241.43,27.87 242.39,28.04 243.34,28.04 244.30,29.18 245.26,29.18 246.22,29.18 247.17,30.97 248.13,29.76 249.09,29.76 250.05,29.76 251.00,28.06 251.96,28.06 252.92,28.06 253.88,25.97 254.83,25.97 255.79,25.97 256.75,25.01 257.70,25.01 258.66,25.01 259.62,26.43 260.58,26.43 261.53,27.53 262.49,27.53 263.45,27.53 264.41,33.17 265.36,33.17 266.32,32.92 267.28,36.55 268.24,39.62 269.19,40.51 270.15,40.51 271.11,40.51 272.07,39.43 273.02,34.55 273.98,34.55 274.94,34.55 275.90,29.09 276.85,29.09 277.81,31.55 278.77,31.55 279.72,31.55 280.68,35.66 281.64,35.66 282.60,39.55 283.55,39.55 284.51,39.55 285.47,37.47 286.43,37.47 287.38,37.47 288.34,36.55 289.30,37.64 290.26,37.64 291.21,44.59 292.17,44.59 293.13,44.59 294.09,49.72 295.04,49.56 296.00,53.32" />
</svg>