<svg width="300" height="60" xmlns="http://www.w3.org/2000/svg">
  <polyline fill="rgba(255,200,0,0.3)" stroke="#ffbb00" stroke-width="2" points="4.00,29.46 4.09,29.44 4.17,29.75 4.26,29.98 4.35,30.24 4.44,30.47 4.52,30.52 4.61,30.84 4.70,30.94 4.79,31.08 4.87,31.09 4.96,30.80 5.05,30.59 5.14,30.63 5.22,31.14 5.31,31.31 5.40,31.28 5.49,31.27 5.57,31.25 5.66,31.45 5.75,31.94 5.84,31.73 5.92,31.56 6.01,31.99 6.10,31.97 6.19,31.64 6.27,31.67 6.36,31.83 6.45,31.96 6.54,31.90 6.62,31.75 6.71,31.78 6.80,31.38 6.89,31.24 6.97,31.39 7.06,31.15 7.15,30.82 7.24,30.60 7.32,30.48 7.41,30.42 7.50,30.22 7.59,30.47 7.67,30.48 7.76,30.41 7.85,30.37 7.94,30.26 8.02,30.13 8.11,29.96 8.20,29.76 8.29,29.47 8.37,29.46 8.46,29.56 8.55,29.50 8.64,29.46 8.72,29.42 8.81,29.73 8.90,30.01 8.99,30.05 9.07,30.18 9.16,30.32 9.25,30.42 9.34,30.46 9.42,30.50 9.51,30.76 9.60,30.50 9.69,30.36 9.77,30.47 9.86,30.72 9.95,30.86 10.04,31.06 10.12,31.26 10.21,31.14 10.30,30.97 10.39,31.05 10.47,31.19 10.56,31.39 10.65,31.69 10.74,31.78 10.82,31.88 10.91,32.03 11.00,32.20 11.09,32.46 11.17,32.65 11.26,32.80 11.35,32.79 11.44,32.80 11.52,32.94 11.61,33.12 11.70,33.38 11.79,33.55 11.87,33.58 11.96,33.58 12.05,33.70 12.14,33.79 12.22,33.82 12.31,33.85 12.40,33.80 12.49,33.66 12.57,33.73 12.66,33.89 12.75,34.01 12.84,34.16 12.92,34.30 13.01,34.46 13.10,34.55 13.19,34.59 13.27,34.60 13.36,34.68 13.45,35.02 13.54,35.15 13.62,35.25 13.71,35.27 13.80,35.31 13.88,35.31 13.97,35.44 14.06,35.54 14.15,35.60 14.23,35.68 14.32,35.78 14.41,35.85 14.50,36.01 14.58,36.13 14.67,36.23 14.76,36.31 14.85,36.37 14.93,36.41 15.02,36.45 15.11,36.42 15.20,36.37 15.28,36.44 15.37,36.58 15.46,36.79 15.55,36.93 15.63,36.99 15.72,37.02 15.81,37.04 15.90,37.03 15.98,37.03 16.07,37.12 16.16,37.29 16.25,37.45 16.33,37.65 16.42,37.72 16.51,37.83 16.60,37.96 16.68,37.96 16.77,38.09 16.86,38.32 16.95,38.51 17.03,38.60 17.12,38.63 17.21,38.82 17.30,38.93 17.38,38.87 17.47,38.96 17.56,39.04 17.65,39.08 17.73,39.13 17.82,39.17 17.91,39.31 18.00,39.61 18.08,39.86 18.17,39.94 18.26,39.97 18.35,40.09 18.43,40.22 18.52,40.05 18.61,40.12 18.70,40.19 18.78,40.51 18.87,40.79 18.96,40.81 19.05,40.86 19.13,40.76 19.22,40.72 19.31,40.90 19.40,41.14 19.48,41.24 19.57,41.22 19.66,41.20 19.75,41.33 19.83,41.69 19.92,41.96 20.01,42.19 20.10,42.35 20.18,42.46 20.27,42.51 20.36,42.54 20.45,42.60 20.53,42.60 20.62,42.58 20.71,42.60 20.80,42.34 20.88,42.41 20.97,42.55 21.06,43.01 21.15,43.58 21.23,43.64 21.32,43.84 21.41,44.02 21.50,43.83 21.58,43.90 21.67,44.07 21.76,44.53 21.85,44.93 21.93,45.17 22.02,45.23 22.11,45.19 22.20,45.25 22.28,45.31 22.37,45.33 22.46,45.48 22.55,45.52 22.63,45.49 22.72,45.47 22.81,45.40 22.90,45.25 22.98,45.22 23.07,45.23 23.16,45.24 23.25,45.28 23.33,45.31 23.42,45.37 23.51,45.32 23.59,45.31 23.68,45.33 23.77,45.32 23.86,45.32 23.94,45.28 24.03,45.27 24.12,45.30 24.21,45.35 24.29,45.43 24.38,45.52 24.47,45.60 24.56,45.65 24.64,45.71 24.73,45.80 24.82,45.95 24.91,46.04 24.99,46.04 25.08,46.04 25.17,46.03 25.26,45.95 25.34,46.09 25.43,45.83 25.52,45.84 25.61,45.76 25.69,45.58 25.78,45.38 25.87,45.23 25.96,45.38 26.04,45.42 26.13,45.64 26.22,45.81 26.31,45.82 26.39,45.83 26.48,45.93 26.57,46.26 26.66,46.34 26.74,46.33 26.83,46.31 26.92,46.12 27.01,46.23 27.09,46.46 27.18,46.80 27.27,46.86 27.36,46.95 27.44,46.88 27.53,46.56 27.62,46.27 27.71,46.14 27.79,46.12 27.88,46.19 27.97,46.40 28.06,46.71 28.14,46.96 28.23,46.85 28.32,46.84 28.41,46.98 28.49,47.05 28.58,46.97 28.67,47.17 28.76,47.60 28.84,47.65 28.93,47.43 29.02,47.20 29.11,47.37 29.19,47.75 29.28,47.81 29.37,47.78 29.46,47.50 29.54,47.24 29.63,46.99 29.72,46.99 29.81,47.08 29.89,47.31 29.98,47.63 30.07,47.90 30.16,48.04 30.24,48.25 30.33,48.51 30.42,48.54 30.51,48.50 30.59,48.49 30.68,48.27 30.77,48.18 30.86,48.68 30.94,48.83 31.03,48.84 31.12,48.78 31.21,48.50 31.29,48.51 31.38,49.04 31.47,49.32 31.56,49.36 31.64,49.26 31.73,49.30 31.82,49.41 31.91,49.46 31.99,49.55 32.08,49.70 32.17,49.83 32.26,49.98 32.34,50.08 32.43,50.17 32.52,50.23 32.61,50.33 32.69,50.85 32.78,51.05 32.87,51.32 32.96,51.52 33.04,51.61 33.13,51.55 33.22,51.57 33.30,51.56 33.39,51.82 33.48,51.96 33.57,52.21 33.65,52.32 33.74,52.33 33.83,52.45 33.92,52.49 34.00,52.37 34.09,52.25 34.18,52.34 34.27,52.37 34.35,52.47 34.44,52.41 34.53,52.45 34.62,52.45 34.70,52.59 34.79,52.55 34.88,52.70 34.97,53.17 35.05,53.68 35.14,53.92 35.23,54.09 35.32,54.43 35.40,54.44 35.49,54.67 35.58,54.81 35.67,54.76 35.75,54.71 35.84,54.55 35.93,54.54 36.02,54.64 36.10,54.74 36.19,54.81 36.28,54.83 36.37,55.01 36.45,55.22 36.54,55.48 36.63,55.56 36.72,55.67 36.80,55.93 36.89,56.00 36.98,55.61 37.07,4.06 37.15,4.04 37.24,4.41 37.33,4.80 37.42,5.17 37.50,5.22 37.59,5.18 37.68,5.41 37.77,5.77 37.85,6.19 37.94,6.51 38.03,6.27 38.12,6.00 38.20,5.86 38.29,5.72 38.38,5.61 38.47,5.67 38.55,5.79 38.64,5.99 38.73,6.16 38.82,6.23 38.90,6.28 38.99,6.36 39.08,6.41 39.17,6.38 39.25,6.33 39.34,6.26 39.43,6.25 39.52,6.32 39.60,6.42 39.69,6.53 39.78,6.76 39.87,7.01 39.95,7.21 40.04,7.58 40.13,7.96 40.22,8.21 40.30,8.49 40.39,8.59 40.48,8.32 40.57,8.13 40.65,8.11 40.74,8.25 40.83,8.36 40.92,8.42 41.00,8.71 41.09,9.35 41.18,9.96 41.27,10.50 41.35,11.04 41.44,11.27 41.53,11.29 41.62,11.06 41.70,10.98 41.79,11.02 41.88,11.20 41.97,11.56 42.05,10.87 42.14,10.49 42.23,10.41 42.32,10.57 42.40,10.97 42.49,11.32 42.58,10.99 42.67,10.40 42.75,9.91 42.84,9.93 42.93,9.98 43.01,10.03 43.10,9.96 43.19,9.98 43.28,10.03 43.36,10.14 43.45,10.32 43.54,10.87 43.63,11.27 43.71,11.46 43.80,11.60 43.89,11.32 43.98,11.01 44.06,11.12 44.15,11.19 44.24,11.33 44.33,11.47 44.41,11.61 44.50,11.74 44.59,11.84 44.68,11.99 44.76,12.33 44.85,12.65 44.94,13.19 45.03,13.40 45.11,13.06 45.20,12.67 45.29,12.63 45.38,12.70 45.46,12.63 45.55,12.64 45.64,12.78 45.73,12.83 45.81,12.80 45.90,12.87 45.99,12.92 46.08,13.05 46.16,13.31 46.25,13.60 46.34,13.86 46.43,13.94 46.51,14.03 46.60,14.24 46.69,14.26 46.78,14.25 46.86,14.23 46.95,14.15 47.04,14.08 47.13,13.96 47.21,13.87 47.30,13.81 47.39,13.86 47.48,14.03 47.56,14.22 47.65,14.40 47.74,14.60 47.83,14.82 47.91,15.04 48.00,15.30 48.09,15.51 48.18,15.66 48.26,15.79 48.35,15.92 48.44,16.05 48.53,16.18 48.61,16.26 48.70,16.32 48.79,16.36 48.88,16.44 48.96,16.52 49.05,16.57 49.14,16.62 49.23,16.68 49.31,16.73 49.40,16.74 49.49,16.70 49.58,16.70 49.66,16.73 49.75,16.74 49.84,16.82 49.93,16.92 50.01,16.98 50.10,17.05 50.19,17.14 50.28,17.15 50.36,17.17 50.45,17.24 50.54,17.32 50.63,17.40 50.71,17.47 50.80,17.51 50.89,17.35 50.98,17.35 51.06,17.40 51.15,17.50 51.24,17.62 51.33,17.71 51.41,17.79 51.50,18.11 51.59,17.89 51.68,17.98 51.76,18.16 51.85,18.28 51.94,18.29 52.03,18.19 52.11,18.04 52.20,18.05 52.29,18.25 52.38,18.33 52.46,18.49 52.55,18.70 52.64,18.90 52.72,19.08 52.81,19.24 52.90,19.42 52.99,19.69 53.07,19.92 53.16,20.15 53.25,20.25 53.34,20.46 53.42,20.46 53.51,20.63 53.60,20.86 53.69,21.04 53.77,21.06 53.86,21.18 53.95,21.28 54.04,21.56 54.12,21.83 54.21,22.11 54.30,22.44 54.39,22.51 54.47,22.41 54.56,22.26 54.65,22.19 54.74,22.20 54.82,21.98 54.91,21.82 55.00,21.92 55.09,22.16 55.17,22.44 55.26,22.70 55.35,23.01 55.44,23.26 55.52,23.51 55.61,23.88 55.70,24.22 55.79,24.45 55.87,24.57 55.96,24.50 56.05,24.40 56.14,24.39 56.22,24.43 56.31,24.51 56.40,24.59 56.49,24.73 56.57,24.92 56.66,25.12 56.75,25.25 56.84,25.34 56.92,25.43 57.01,25.47 57.10,25.57 57.19,25.66 57.27,25.75 57.36,25.96 57.45,26.06 57.54,26.14 57.62,26.30 57.71,26.68 57.80,26.95 57.89,27.16 57.97,27.25 58.06,27.41 58.15,27.56 58.24,27.75 58.32,28.19 58.41,28.48 58.50,28.55 58.59,28.47 58.67,28.38 58.76,27.98 58.85,27.90 58.94,27.87 59.02,28.08 59.11,28.13 59.20,28.16 59.29,28.44 59.37,28.70 59.46,28.85 59.55,28.94 59.64,28.92 59.72,28.77 59.81,28.82 59.90,28.64 59.99,28.32 60.07,28.13 60.16,28.16 60.25,28.28 60.34,28.31 60.42,28.37 60.51,28.42 60.60,28.41 60.69,28.44 60.77,28.38 60.86,28.34 60.95,28.33 61.04,28.28 61.12,28.23 61.21,28.19 61.30,28.17 61.39,28.19 61.47,28.11 61.56,28.02 61.65,27.95 61.74,27.67 61.82,27.43 61.91,27.36 62.00,27.13 62.09,26.94 62.17,26.83 62.26,26.74 62.35,26.70 62.43,26.61 62.52,26.53 62.61,26.52 62.70,26.52 62.78,26.46 62.87,26.40 62.96,26.37 63.05,26.38 63.13,26.39 63.22,26.42 63.31,26.58 63.40,26.50 63.48,26.27 63.57,26.01 63.66,25.86 63.75,25.86 63.83,26.04 63.92,25.91 64.01,25.69 64.10,25.62 64.18,25.39 64.27,25.19 64.36,25.07 64.45,25.11 64.53,25.19 64.62,25.31 64.71,25.45 64.80,25.49 64.88,25.61 64.97,25.65 65.06,25.69 65.15,25.74 65.23,25.77 65.32,25.78 65.41,25.76 65.50,25.74 65.58,25.82 65.67,25.80 65.76,25.77 65.85,25.75 65.93,25.68 66.02,25.67 66.11,25.69 66.20,25.66 66.28,25.70 66.37,25.56 66.46,25.45 66.55,25.28 66.63,25.04 66.72,24.95 66.81,24.79 66.90,24.61 66.98,24.47 67.07,24.41 67.16,24.26 67.25,24.23 67.33,24.06 67.42,23.76 67.51,23.58 67.60,23.58 67.68,23.65 67.77,23.74 67.86,23.83 67.95,23.93 68.03,23.95 68.12,24.01 68.21,23.99 68.30,23.98 68.38,24.00 68.47,24.11 68.56,24.11 68.65,24.25 68.73,24.29 68.82,24.43 68.91,24.54 69.00,24.50 69.08,24.40 69.17,24.36 69.26,24.35 69.35,24.37 69.43,24.38 69.52,24.55 69.61,24.74 69.70,25.04 69.78,25.12 69.87,25.18 69.96,25.10 70.05,25.00 70.13,24.95 70.22,24.97 70.31,24.96 70.40,24.76 70.48,24.72 70.57,24.77 70.66,24.92 70.75,25.19 70.83,25.30 70.92,25.26 71.01,25.30 71.10,25.49 71.18,25.61 71.27,25.71 71.36,25.89 71.45,25.85 71.53,25.77 71.62,25.73 71.71,25.84 71.80,26.03 71.88,26.34 71.97,26.46 72.06,26.46 72.14,26.42 72.23,26.44 72.32,26.24 72.41,26.34 72.49,26.53 72.58,26.66 72.67,26.69 72.76,26.64 72.84,26.87 72.93,27.07 73.02,27.11 73.11,27.17 73.19,27.41 73.28,27.34 73.37,27.16 73.46,27.26 73.54,27.32 73.63,27.28 73.72,27.08 73.81,27.43 73.89,27.47 73.98,27.52 74.07,27.91 74.16,27.50 74.24,27.51 74.33,27.58 74.42,27.67 74.51,27.50 74.59,27.54 74.68,27.74 74.77,27.61 74.86,27.51 74.94,27.60 75.03,27.47 75.12,27.45 75.21,27.44 75.29,27.48 75.38,27.59 75.47,28.00 75.56,27.81 75.64,27.80 75.73,27.99 75.82,28.13 75.91,28.24 75.99,28.48 76.08,28.62 76.17,28.77 76.26,28.89 76.34,29.00 76.43,28.94 76.52,28.82 76.61,28.85 76.69,29.06 76.78,29.45 76.87,29.46 76.96,29.45 77.04,38.95 77.13,38.97 77.22,39.03 77.31,39.08 77.39,39.13 77.48,39.19 77.57,39.53 77.66,39.82 77.74,39.95 77.83,39.90 77.92,39.88 78.01,40.17 78.09,40.17 78.18,40.04 78.27,40.10 78.36,40.19 78.44,40.57 78.53,40.83 78.62,40.85 78.71,40.93 78.79,40.83 78.88,40.71 78.97,40.92 79.06,41.16 79.14,41.30 79.23,41.16 79.32,41.21 79.41,41.22 79.49,41.67 79.58,41.96 79.67,42.16 79.76,42.42 79.84,42.40 79.93,42.54 80.02,42.53 80.11,42.51 80.19,42.58 80.28,42.58 80.37,42.45 80.46,42.33 80.54,42.38 80.63,42.51 80.72,42.95 80.81,43.66 80.89,43.58 80.98,43.86 81.07,44.03 81.16,43.80 81.24,43.88 81.33,44.09 81.42,44.56 81.51,44.86 81.59,45.13 81.68,45.21 81.77,45.22 81.86,45.30 81.94,45.31 82.03,45.31 82.12,45.48 82.20,45.51 82.29,45.49 82.38,45.45 82.47,45.39 82.55,45.25 82.64,45.21 82.73,45.24 82.82,45.27 82.90,45.29 82.99,45.32 83.08,45.33 83.17,45.30 83.25,45.29 83.34,45.28 83.43,45.29 83.52,45.30 83.60,45.28 83.69,45.26 83.78,45.29 83.87,45.33 83.95,45.40 84.04,45.51 84.13,45.60 84.22,45.64 84.30,45.68 84.39,45.79 84.48,45.92 84.57,46.00 84.65,46.02 84.74,46.03 84.83,45.97 84.92,45.95 85.00,46.06 85.09,45.77 85.18,45.78 85.27,45.73 85.35,45.66 85.44,45.18 85.53,45.16 85.62,45.33 85.70,45.55 85.79,45.52 85.88,45.71 85.97,45.81 86.05,45.83 86.14,46.07 86.23,46.17 86.32,46.32 86.40,46.30 86.49,46.16 86.58,46.04 86.67,46.10 86.75,46.54 86.84,46.71 86.93,46.80 87.02,46.97 87.10,46.79 87.19,46.53 87.28,46.32 87.37,46.17 87.45,46.19 87.54,46.11 87.63,46.33 87.72,46.78 87.80,46.98 87.89,46.83 87.98,46.85 88.07,46.90 88.15,47.03 88.24,47.00 88.33,47.25 88.42,47.60 88.50,47.63 88.59,47.45 88.68,47.17 88.77,47.34 88.85,47.67 88.94,47.80 89.03,47.79 89.12,47.47 89.20,47.24 89.29,47.01 89.38,47.01 89.47,46.99 89.55,47.33 89.64,47.45 89.73,47.82 89.82,48.03 89.90,48.28 89.99,48.40 90.08,48.49 90.17,48.45 90.25,48.44 90.34,48.42 90.43,48.01 90.52,48.53 90.60,48.82 90.69,48.83 90.78,48.82 90.87,48.31 90.95,48.44 91.04,49.13 91.13,49.26 91.22,49.48 91.30,49.26 91.39,49.29 91.48,49.40 91.57,49.45 91.65,49.57 91.74,49.67 91.83,49.79 91.91,49.98 92.00,50.07 92.09,50.17 92.18,50.20 92.26,50.27 92.35,50.65 92.44,50.97 92.53,51.13 92.61,51.45 92.70,51.69 92.79,51.43 92.88,51.39 92.96,51.55 93.05,51.60 93.14,51.99 93.23,52.13 93.31,52.36 93.40,52.34 93.49,52.38 93.58,52.52 93.66,52.33 93.75,52.25 93.84,52.31 93.93,52.38 94.01,52.48 94.10,52.49 94.19,52.59 94.28,52.38 94.36,52.64 94.45,52.63 94.54,52.79 94.63,53.31 94.71,53.72 94.80,53.97 94.89,54.03 94.98,54.42 95.06,54.54 95.15,54.72 95.24,54.72 95.33,54.84 95.41,54.69 95.50,54.57 95.59,54.54 95.68,54.63 95.76,54.75 95.85,54.66 95.94,54.77 96.03,54.92 96.11,55.23 96.20,55.46 96.29,55.58 96.38,55.65 96.46,55.93 96.55,55.99 96.64,55.60 96.73,4.04 96.81,4.00 96.90,4.37 96.99,4.77 97.08,5.12 97.16,5.19 97.25,5.16 97.34,5.38 97.43,5.77 97.51,6.15 97.60,6.49 97.69,6.23 97.78,6.09 97.86,5.84 97.95,5.70 98.04,5.59 98.13,5.60 98.21,5.79 98.30,5.97 98.39,6.17 98.48,6.20 98.56,6.34 98.65,6.28 98.74,6.44 98.83,6.34 98.91,6.27 99.00,6.21 99.09,6.22 99.18,6.36 99.26,6.48 99.35,6.58 99.44,6.80 99.53,7.00 99.61,7.21 99.70,7.63 99.79,7.94 99.88,8.16 99.96,8.48 100.05,8.55 100.14,8.31 100.23,8.12 100.31,8.06 100.40,8.26 100.49,8.36 100.58,8.47 100.66,8.71 100.75,9.40 100.84,9.96 100.93,10.49 101.01,10.95 101.10,11.33 101.19,11.27 101.28,10.92 101.36,10.93 101.45,10.86 101.54,11.12 101.62,11.54 101.71,10.80 101.80,10.42 101.89,10.33 101.97,10.41 102.06,10.95 102.15,11.23 102.24,10.92 102.32,10.43 102.41,9.94 102.50,9.90 102.59,9.95 102.67,9.95 102.76,9.94 102.85,9.98 102.94,10.03 103.02,10.10 103.11,10.25 103.20,10.78 103.29,11.26 103.37,11.56 103.46,11.67 103.55,11.20 103.64,11.03 103.72,11.13 103.81,11.18 103.90,11.34 103.99,11.46 104.07,11.59 104.16,11.71 104.25,11.83 104.34,11.95 104.42,12.17 104.51,12.58 104.60,13.13 104.69,13.38 104.77,13.10 104.86,12.81 104.95,12.61 105.04,12.71 105.12,12.72 105.21,12.58 105.30,12.66 105.39,12.75 105.47,12.76 105.56,12.83 105.65,12.93 105.74,13.06 105.82,13.28 105.91,13.59 106.00,13.86 106.09,13.94 106.17,14.08 106.26,14.23 106.35,14.22 106.44,14.22 106.52,14.22 106.61,14.12 106.70,14.07 106.79,13.96 106.87,13.85 106.96,13.80 107.05,13.83 107.14,14.04 107.22,14.19 107.31,14.39 107.40,14.63 107.49,14.80 107.57,15.06 107.66,15.29 107.75,15.49 107.84,15.66 107.92,15.76 108.01,15.90 108.10,16.05 108.19,16.20 108.27,16.25 108.36,16.32 108.45,16.35 108.54,16.45 108.62,16.52 108.71,16.57 108.80,16.60 108.89,16.66 108.97,16.80 109.06,16.83 109.15,16.69 109.24,16.70 109.32,16.74 109.41,16.76 109.50,16.82 109.59,16.92 109.67,16.97 109.76,17.08 109.85,17.13 109.94,17.10 110.02,17.18 110.11,17.22 110.20,17.32 110.29,17.42 110.37,17.48 110.46,17.51 110.55,17.46 110.64,17.36 110.72,17.38 110.81,17.53 110.90,17.60 110.99,17.69 111.07,17.86 111.16,18.11 111.25,17.94 111.33,17.90 111.42,18.28 111.51,18.31 111.60,18.37 111.68,18.09 111.77,17.97 111.86,18.06 111.95,18.28 112.03,18.26 112.12,18.44 112.21,18.68 112.30,18.82 112.38,19.07 112.47,19.28 112.56,19.28 112.65,19.47 112.73,19.87 112.82,20.15 112.91,20.19 113.00,20.46 113.08,20.51 113.17,20.73 113.26,20.79 113.35,21.01 113.43,21.07 113.52,21.11 113.61,21.25 113.70,21.54 113.78,21.82 113.87,22.01 113.96,22.50 114.05,22.37 114.13,22.34 114.22,22.22 114.31,21.90 114.40,22.07 114.48,21.93 114.57,21.73 114.66,21.83 114.75,22.09 114.83,22.41 114.92,22.58 115.01,23.05 115.10,23.27 115.18,23.57 115.27,23.90 115.36,24.24 115.45,24.47 115.53,24.58 115.62,24.46 115.71,24.40 115.80,24.38 115.88,24.40 115.97,24.46 116.06,24.60 116.15,24.69 116.23,24.96 116.32,25.05 116.41,25.29 116.50,25.22 116.58,25.44 116.67,25.43 116.76,25.51 116.85,25.58 116.93,25.77 117.02,26.01 117.11,26.03 117.20,26.10 117.28,26.33 117.37,26.67 117.46,26.97 117.55,27.09 117.63,27.23 117.72,27.38 117.81,27.51 117.90,27.70 117.98,28.00 118.07,28.39 118.16,28.52 118.25,28.47 118.33,28.38 118.42,27.98 118.51,27.86 118.60,27.94 118.68,28.05 118.77,28.14 118.86,28.19 118.95,28.49 119.03,28.75 119.12,28.82 119.21,28.91 119.30,28.79 119.38,28.75 119.47,28.67 119.56,28.48 119.65,28.37 119.73,28.14 119.82,28.17 119.91,28.26 120.00,28.41 120.08,28.32 120.17,28.35 120.26,28.43 120.35,28.36 120.43,28.36 120.52,28.34 120.61,28.33 120.70,28.27 120.78,28.24 120.87,28.21 120.96,28.17 121.04,28.17 121.13,28.12 121.22,28.01 121.31,27.97 121.39,27.60 121.48,27.40 121.57,27.29 121.66,27.18 121.74,26.87 121.83,26.77 121.92,26.76 122.01,26.67 122.09,26.62 122.18,26.52 122.27,26.53 122.36,26.55 122.44,26.50 122.53,26.41 122.62,26.43 122.71,26.39 122.79,26.39 122.88,26.46 122.97,26.62 123.06,26.47 123.14,26.18 123.23,26.03 123.32,25.85 123.41,25.84 123.49,25.90 123.58,25.87 123.67,25.63 123.76,25.64 123.84,25.39 123.93,25.17 124.02,25.07 124.11,25.11 124.19,25.20 124.28,25.26 124.37,25.44 124.46,25.52 124.54,25.60 124.63,25.62 124.72,25.68 124.81,25.75 124.89,25.76 124.98,25.78 125.07,25.75 125.16,25.73 125.24,25.80 125.33,25.81 125.42,25.82 125.51,25.74 125.59,25.69 125.68,25.66 125.77,25.68 125.86,25.65 125.94,25.69 126.03,25.56 126.12,25.41 126.21,25.21 126.29,24.97 126.38,24.94 126.47,24.75 126.56,24.60 126.64,24.50 126.73,24.38 126.82,24.26 126.91,24.17 126.99,24.02 127.08,23.80 127.17,23.68 127.26,23.59 127.34,23.65 127.43,23.73 127.52,23.83 127.61,23.96 127.69,23.96 127.78,23.96 127.87,24.00 127.96,24.01 128.04,24.01 128.13,24.10 128.22,24.15 128.31,24.26 128.39,24.29 128.48,24.43 128.57,24.53 128.66,24.54 128.74,24.36 128.83,24.35 128.92,24.38 129.01,24.36 129.09,24.35 129.18,24.55 129.27,24.70 129.36,25.01 129.44,25.02 129.53,25.19 129.62,25.15 129.71,25.08 129.79,24.99 129.88,24.99 129.97,24.94 130.06,24.81 130.14,24.74 130.23,24.74 130.32,24.88 130.41,25.11 130.49,25.17 130.58,25.05 130.67,25.30 130.75,25.48 130.84,25.58 130.93,25.72 131.02,25.87 131.10,25.87 131.19,25.73 131.28,25.81 131.37,25.84 131.45,25.98 131.54,26.30 131.63,26.37 131.72,26.41 131.80,26.41 131.89,26.45 131.98,26.23 132.07,26.29 132.15,26.46 132.24,26.65 132.33,26.65 132.42,26.63 132.50,26.70 132.59,27.09 132.68,27.12 132.77,27.18 132.85,27.54 132.94,27.24 133.03,27.16 133.12,27.19 133.20,27.34 133.29,27.11 133.38,26.87 133.47,27.45 133.55,27.48 133.64,27.64 133.73,27.80 133.82,27.49 133.90,27.53 133.99,27.58 134.08,27.65 134.17,27.29 134.25,27.31 134.34,27.76 134.43,27.50 134.52,27.42 134.60,27.39 134.69,27.46 134.78,27.39 134.87,27.33 134.95,27.43 135.04,27.58 135.13,28.05 135.22,27.68 135.30,27.76 135.39,27.89 135.48,28.08 135.57,28.31 135.65,28.27 135.74,28.67 135.83,28.80 135.92,28.92 136.00,28.99 136.09,28.64 136.18,28.58 136.27,28.59 136.35,28.62 136.44,29.38 136.53,29.08 136.62,29.20 136.70,29.37 136.79,29.88 136.88,29.99 136.97,30.35 137.05,30.40 137.14,30.46 137.23,30.92 137.32,30.85 137.40,30.97 137.49,30.70 137.58,30.47 137.67,30.48 137.75,30.95 137.84,31.10 137.93,31.11 138.02,31.08 138.10,31.09 138.19,31.28 138.28,31.67 138.37,31.68 138.45,31.61 138.54,31.96 138.63,31.98 138.72,31.55 138.80,31.68 138.89,31.88 138.98,31.97 139.07,31.91 139.15,31.80 139.24,31.66 139.33,31.21 139.42,31.05 139.50,31.26 139.59,31.22 139.68,30.80 139.77,30.58 139.85,30.45 139.94,30.50 140.03,30.23 140.12,30.38 140.20,30.47 140.29,30.41 140.38,30.37 140.46,30.28 140.55,30.14 140.64,29.92 140.73,29.67 140.81,29.37 140.90,29.30 140.99,29.65 141.08,29.43 141.16,29.45 141.25,29.42 141.34,29.83 141.43,29.99 141.51,30.04 141.60,30.16 141.69,30.33 141.78,30.41 141.86,30.48 141.95,30.51 142.04,30.75 142.13,30.51 142.21,30.40 142.30,30.59 142.39,30.77 142.48,30.92 142.56,31.07 142.65,31.27 142.74,31.22 142.83,30.97 142.91,31.10 143.00,31.18 143.09,31.39 143.18,31.67 143.26,31.80 143.35,31.88 143.44,31.99 143.53,32.24 143.61,32.43 143.70,32.66 143.79,32.80 143.88,32.80 143.96,32.81 144.05,32.96 144.14,33.14 144.23,33.36 144.31,33.55 144.40,33.49 144.49,33.49 144.58,33.62 144.66,33.78 144.75,33.83 144.84,33.86 144.93,33.68 145.01,33.62 145.10,33.69 145.19,33.99 145.28,34.05 145.36,34.14 145.45,34.29 145.54,34.42 145.63,34.55 145.71,34.62 145.80,34.63 145.89,34.70 145.98,35.02 146.06,35.14 146.15,35.24 146.24,35.30 146.33,35.28 146.41,35.32 146.50,35.47 146.59,35.53 146.68,35.60 146.76,35.74 146.85,35.86 146.94,35.96 147.03,36.08 147.11,36.17 147.20,36.24 147.29,36.32 147.38,36.39 147.46,36.41 147.55,36.45 147.64,36.40 147.73,36.40 147.81,36.49 147.90,36.59 147.99,36.83 148.08,36.96 148.16,36.99 148.25,37.03 148.34,37.05 148.43,37.01 148.51,37.03 148.60,37.13 148.69,37.27 148.78,37.48 148.86,37.74 148.95,37.71 149.04,37.77 149.13,37.89 149.21,37.95 149.30,38.12 149.39,38.29 149.48,38.56 149.56,38.60 149.65,38.65 149.74,38.87 149.83,38.93 149.91,38.95 150.00,38.97 150.09,39.03 150.17,39.08 150.26,39.13 150.35,4.08 150.44,4.10 150.52,4.47 150.61,4.88 150.70,5.24 150.79,5.37 150.87,5.37 150.96,5.51 151.05,5.86 151.14,6.07 151.22,6.36 151.31,6.07 151.40,5.98 151.49,6.00 151.57,5.80 151.66,5.69 151.75,5.76 151.84,5.96 151.92,5.92 152.01,6.21 152.10,6.45 152.19,6.60 152.27,6.22 152.36,6.61 152.45,6.46 152.54,6.29 152.62,6.13 152.71,6.43 152.80,6.34 152.89,6.68 152.97,6.65 153.06,6.99 153.15,6.96 153.24,7.28 153.32,7.58 153.41,7.90 153.50,8.17 153.59,8.62 153.67,8.64 153.76,8.43 153.85,8.24 153.94,8.20 154.02,8.19 154.11,8.14 154.20,8.70 154.29,8.73 154.37,9.60 154.46,9.54 154.55,10.42 154.64,11.02 154.72,11.25 154.81,11.25 154.90,11.04 154.99,11.01 155.07,10.60 155.16,11.04 155.25,11.15 155.34,10.46 155.42,10.16 155.51,10.55 155.60,10.16 155.69,10.58 155.77,11.19 155.86,10.80 155.95,10.16 156.04,10.16 156.12,9.93 156.21,10.01 156.30,9.91 156.39,9.90 156.47,9.89 156.56,10.09 156.65,10.06 156.74,10.46 156.82,10.55 156.91,11.19 157.00,11.72 157.09,11.54 157.17,11.22 157.26,10.97 157.35,10.89 157.44,10.97 157.52,11.14 157.61,11.35 157.70,11.56 157.79,11.72 157.87,12.00 157.96,12.32 158.05,12.13 158.14,12.46 158.22,12.93 158.31,13.21 158.40,12.93 158.49,12.70 158.57,12.45 158.66,12.77 158.75,12.55 158.84,12.35 158.92,12.64 159.01,12.78 159.10,12.67 159.19,12.88 159.27,12.98 159.36,13.17 159.45,13.26 159.54,13.51 159.62,13.79 159.71,13.96 159.80,14.12 159.88,14.16 159.97,14.22 160.06,14.22 160.15,14.22 160.23,14.14 160.32,14.18 160.41,14.01 160.50,13.90 160.58,13.85 160.67,13.87 160.76,14.06 160.85,14.25 160.93,14.50 161.02,14.70 161.11,14.70 161.20,15.03 161.28,15.24 161.37,15.41 161.46,15.67 161.55,15.73 161.63,15.92 161.72,16.07 161.81,16.23 161.90,16.23 161.98,16.32 162.07,16.42 162.16,16.54 162.25,16.69 162.33,16.42 162.42,16.46 162.51,16.52 162.60,17.08 162.68,17.07 162.77,16.66 162.86,16.74 162.95,16.80 163.03,16.83 163.12,16.83 163.21,16.87 163.30,17.02 163.38,17.15 163.47,17.29 163.56,16.96 163.65,17.35 163.73,17.02 163.82,17.32 163.91,17.42 164.00,17.50 164.08,17.50 164.17,17.50 164.26,17.51 164.35,17.36 164.43,17.60 164.52,17.56 164.61,17.82 164.70,17.82 164.78,18.13 164.87,18.13 164.96,17.87 165.05,17.95 165.13,18.42 165.22,18.53 165.31,18.23 165.40,18.32 165.48,17.93 165.57,18.08 165.66,18.42 165.75,18.39 165.83,18.73 165.92,19.08 166.01,19.23 166.10,19.06 166.18,19.45 166.27,19.46 166.36,19.53 166.45,20.26 166.53,20.27 166.62,20.32 166.71,20.35 166.80,20.67 166.88,20.90 166.97,20.97 167.06,21.07 167.15,21.15 167.23,21.34 167.32,21.34 167.41,21.69 167.50,22.05 167.58,22.36 167.67,22.34 167.76,22.52 167.85,22.09 167.93,22.02 168.02,21.75 168.11,21.62 168.20,21.83 168.28,21.60 168.37,22.15 168.46,22.67 168.55,22.59 168.63,23.25 168.72,23.32 168.81,23.52 168.90,24.02 168.98,24.29 169.07,24.54 169.16,24.54 169.25,24.59 169.33,24.48 169.42,24.47 169.51,24.51 169.59,24.43 169.68,24.60 169.77,24.75 169.86,24.93 169.94,25.23 170.03,25.27 170.12,25.27 170.21,25.29 170.29,25.48 170.38,25.49 170.47,25.70 170.56,25.77 170.64,26.04 170.73,26.10 170.82,26.10 170.91,26.26 170.99,26.71 171.08,26.83 171.17,27.05 171.26,27.12 171.34,27.44 171.43,27.43 171.52,27.89 171.61,28.04 171.69,28.18 171.78,28.52 171.87,28.44 171.96,28.39 172.04,28.04 172.13,28.09 172.22,28.21 172.31,27.95 172.39,28.22 172.48,28.36 172.57,28.28 172.66,28.69 172.74,28.96 172.83,28.85 172.92,28.82 173.01,28.92 173.09,28.84 173.18,28.38 173.27,28.65 173.36,28.29 173.44,28.23 173.53,28.09 173.62,28.41 173.71,28.49 173.79,28.16 173.88,28.14 173.97,28.49 174.06,28.35 174.14,28.50 174.23,28.40 174.32,28.13 174.41,28.32 174.49,28.28 174.58,28.25 174.67,28.07 174.76,28.23 174.84,28.14 174.93,27.82 175.02,27.65 175.11,27.54 175.19,27.20 175.28,27.08 175.37,26.83 175.46,27.05 175.54,26.59 175.63,26.79 175.72,26.54 175.81,26.70 175.89,26.44 175.98,26.59 176.07,26.69 176.16,26.48 176.24,26.53 176.33,26.29 176.42,26.38 176.51,26.37 176.59,26.42 176.68,26.44 176.77,26.35 176.86,25.90 176.94,25.89 177.03,26.01 177.12,25.70 177.21,25.67 177.29,25.61 177.38,25.61 177.47,25.45 177.56,25.24 177.64,25.07 177.73,24.92 177.82,25.10 177.91,25.31 177.99,25.46 178.08,25.53 178.17,25.59 178.26,25.66 178.34,25.73 178.43,25.78 178.52,25.83 178.61,25.79 178.69,25.78 178.78,25.76 178.87,25.79 178.96,25.80 179.04,25.80 179.13,25.74 179.22,25.65 179.30,25.69 179.39,25.69 179.48,25.70 179.57,25.68 179.65,25.65 179.74,25.49 179.83,25.32 179.92,25.09 180.00,24.89 180.09,24.76 180.18,24.66 180.27,24.55 180.35,24.44 180.44,24.30 180.53,24.08 180.62,24.16 180.70,23.83 180.79,23.65 180.88,23.63 180.97,23.67 181.05,23.72 181.14,23.78 181.23,23.95 181.32,23.95 181.40,24.10 181.49,24.00 181.58,24.09 181.67,23.98 181.75,24.15 181.84,24.14 181.93,24.22 182.02,24.32 182.10,24.41 182.19,24.49 182.28,24.49 182.37,24.31 182.45,24.38 182.54,24.50 182.63,24.38 182.72,24.45 182.80,24.72 182.89,24.83 182.98,25.04 183.07,25.04 183.15,25.17 183.24,24.89 183.33,24.87 183.42,24.80 183.50,25.11 183.59,25.02 183.68,24.96 183.77,24.77 183.85,24.77 183.94,24.93 184.03,25.09 184.12,25.09 184.20,25.08 184.29,25.53 184.38,25.62 184.47,25.62 184.55,25.83 184.64,25.93 184.73,26.00 184.82,25.65 184.90,25.74 184.99,25.90 185.08,26.09 185.17,26.47 185.25,26.53 185.34,26.55 185.43,26.47 185.52,26.47 185.60,26.26 185.69,26.36 185.78,26.62 185.87,26.63 185.95,26.63 186.04,26.61 186.13,26.77 186.22,27.03 186.30,27.42 186.39,27.16 186.48,27.27 186.57,27.10 186.65,26.87 186.74,26.91 186.83,27.09 186.92,27.13 187.00,26.91 187.09,27.12 187.18,27.40 187.27,27.77 187.35,27.55 187.44,27.43 187.53,27.46 187.62,27.36 187.70,27.82 187.79,27.40 187.88,27.35 187.97,27.82 188.05,27.58 188.14,27.56 188.23,27.56 188.32,27.39 188.40,27.74 188.49,27.78 188.58,27.45 188.67,27.72 188.75,28.08 188.84,27.73 188.93,27.82 189.01,27.89 189.10,28.27 189.19,28.34 189.28,28.49 189.36,28.42 189.45,28.95 189.54,28.73 189.63,28.84 189.71,28.55 189.80,28.61 189.89,29.14 189.98,28.99 190.06,29.55 190.15,29.46 190.24,29.06 190.33,29.71 190.41,29.56 190.50,30.03 190.59,30.69 190.68,30.40 190.76,30.88 190.85,30.66 190.94,31.19 191.03,31.04 191.11,30.85 191.20,30.85 191.29,30.60 191.38,31.23 191.46,31.27 191.55,31.31 191.64,31.44 191.73,31.14 191.81,31.58 191.90,31.93 191.99,31.85 192.08,31.80 192.16,31.94 192.25,31.94 192.34,31.76 192.43,31.57 192.51,31.97 192.60,31.84 192.69,31.92 192.78,31.99 192.86,31.52 192.95,31.32 193.04,31.25 193.13,31.27 193.21,31.00 193.30,30.65 193.39,30.65 193.48,30.79 193.56,30.63 193.65,30.16 193.74,30.43 193.83,30.58 193.91,30.39 194.00,30.39 194.09,30.38 194.18,30.15 194.26,29.88 194.35,30.02 194.44,29.68 194.53,29.35 194.61,29.68 194.70,29.38 194.79,29.45 194.88,29.73 194.96,29.86 195.05,30.00 195.14,30.00 195.23,30.16 195.31,30.04 195.40,30.36 195.49,30.47 195.58,30.61 195.66,30.62 195.75,30.45 195.84,30.48 195.93,30.48 196.01,30.60 196.10,30.78 196.19,31.00 196.28,31.19 196.36,31.07 196.45,31.05 196.54,31.09 196.63,31.21 196.71,31.58 196.80,31.81 196.89,31.93 196.98,31.78 197.06,32.05 197.15,32.33 197.24,32.10 197.33,32.55 197.41,32.83 197.50,32.68 197.59,32.70 197.68,32.81 197.76,33.21 197.85,33.52 197.94,33.49 198.03,33.53 198.11,33.53 198.20,33.51 198.29,33.92 198.38,33.86 198.46,33.64 198.55,33.57 198.64,33.59 198.72,33.69 198.81,33.86 198.90,34.05 198.99,34.08 199.07,34.34 199.16,34.48 199.25,34.57 199.34,34.78 199.42,34.66 199.51,34.86 199.60,34.97 199.69,35.13 199.77,35.22 199.86,35.23 199.95,35.34 200.04,35.32 200.12,35.42 200.21,35.54 200.30,35.63 200.39,35.69 200.47,35.81 200.56,35.87 200.65,36.09 200.74,36.16 200.82,36.28 200.91,36.28 201.00,36.34 201.09,36.46 201.17,36.44 201.26,36.37 201.35,36.47 201.44,36.58 201.52,36.62 201.61,36.72 201.70,36.88 201.79,37.05 201.87,37.20 201.96,37.07 202.05,36.87 202.14,37.00 202.22,37.14 202.31,37.26 202.40,37.63 202.49,37.50 202.57,37.63 202.66,38.04 202.75,38.07 202.84,37.70 202.92,38.11 203.01,38.28 203.10,38.64 203.19,38.50 203.27,38.44 203.36,39.00 203.45,39.12 203.54,38.87 203.62,38.87 203.71,38.74 203.80,39.11 203.89,39.03 203.97,39.28 204.06,39.36 204.15,39.87 204.24,39.79 204.32,40.02 204.41,40.22 204.50,40.42 204.59,40.10 204.67,39.88 204.76,40.14 204.85,40.27 204.94,40.66 205.02,40.66 205.11,40.83 205.20,40.98 205.29,40.70 205.37,40.85 205.46,41.00 205.55,41.22 205.64,41.38 205.72,41.13 205.81,41.17 205.90,41.27 205.99,41.76 206.07,42.05 206.16,42.29 206.25,42.52 206.34,42.24 206.42,42.46 206.51,42.61 206.60,42.78 206.69,42.45 206.77,42.72 206.86,42.37 206.95,42.55 207.04,42.50 207.12,42.69 207.21,43.14 207.30,43.44 207.39,43.52 207.47,43.91 207.56,44.07 207.65,43.68 207.74,43.76 207.82,44.01 207.91,44.42 208.00,44.64 208.09,45.00 208.17,45.03 208.26,45.22 208.35,45.30 208.43,45.41 208.52,45.34 208.61,45.49 208.70,45.46 208.78,45.46 208.87,45.40 208.96,45.49 209.05,45.38 209.13,45.26 209.22,45.25 209.31,45.29 209.40,45.33 209.48,45.35 209.57,45.37 209.66,45.35 209.75,45.33 209.83,45.32 209.92,45.34 210.01,45.37 210.10,45.36 210.18,45.14 210.27,45.25 210.36,45.39 210.45,45.34 210.53,45.54 210.62,45.72 210.71,45.58 210.80,45.58 210.88,45.74 210.97,45.92 211.06,45.82 211.15,45.96 211.23,46.08 211.32,45.86 211.41,45.80 211.50,46.03 211.58,45.75 211.67,45.62 211.76,45.68 211.85,45.29 211.93,44.94 212.02,45.35 212.11,45.23 212.20,45.68 212.28,45.43 212.37,45.80 212.46,45.45 212.55,45.69 212.63,46.15 212.72,45.95 212.81,46.27 212.90,46.02 212.98,45.70 213.07,46.00 213.16,45.85 213.25,46.45 213.33,46.44 213.42,46.87 213.51,46.85 213.60,46.78 213.68,46.68 213.77,46.33 213.86,46.36 213.95,46.10 214.03,46.30 214.12,46.15 214.21,46.63 214.30,46.83 214.38,46.77 214.47,46.77 214.56,46.93 214.65,47.22 214.73,47.03 214.82,46.98 214.91,47.60 215.00,47.58 215.08,47.57 215.17,47.20 215.26,47.33 215.35,47.71 215.43,47.85 215.52,47.76 215.61,47.46 215.70,47.13 215.78,46.87 215.87,47.11 215.96,46.93 216.05,47.32 216.13,46.97 216.22,47.51 216.31,47.94 216.40,48.13 216.48,48.43 216.57,48.63 216.66,48.31 216.75,48.55 216.83,48.40 216.92,47.78 217.01,48.38 217.10,48.41 217.18,48.77 217.27,48.51 217.36,48.02 217.45,48.38 217.53,49.03 217.62,49.27 217.71,49.30 217.80,49.29 217.88,49.47 217.97,49.44 218.06,49.44 218.14,49.44 218.23,49.58 218.32,50.04 218.41,50.14 218.49,49.70 218.58,50.04 218.67,49.82 218.76,50.21 218.84,50.61 218.93,50.86 219.02,50.87 219.11,51.42 219.19,51.74 219.28,51.32 219.37,51.15 219.46,51.76 219.54,51.76 219.63,51.88 219.72,51.97 219.81,52.04 219.89,52.07 219.98,52.07 220.07,52.69 220.16,52.58 220.24,52.05 220.33,52.17 220.42,52.39 220.51,52.30 220.59,52.36 220.68,52.36 220.77,52.52 220.86,52.37 220.94,52.81 221.03,52.81 221.12,52.92 221.21,53.67 221.29,53.93 221.38,54.04 221.47,54.37 221.56,54.37 221.64,54.61 221.73,54.65 221.82,54.58 221.91,54.50 221.99,54.46 222.08,54.52 222.17,54.69 222.26,54.59 222.34,54.57 222.43,54.96 222.52,54.75 222.61,55.09 222.69,55.44 222.78,55.59 222.87,55.71 222.96,55.92 223.04,55.96 223.13,55.65 223.22,4.27 223.31,4.27 223.39,4.27 223.48,4.98 223.57,4.98 223.66,4.98 223.74,5.97 223.83,5.97 223.92,5.97 224.01,5.97 224.09,6.13 224.18,6.12 224.27,6.12 224.36,6.32 224.44,6.32 224.53,6.32 224.62,6.38 224.71,6.38 224.79,5.68 224.88,6.19 224.97,6.19 225.06,6.19 225.14,6.57 225.23,6.57 225.32,6.57 225.41,6.31 225.49,6.31 225.58,7.26 225.67,7.26 225.76,7.10 225.84,7.10 225.93,7.10 226.02,7.00 226.11,7.99 226.19,7.99 226.28,7.99 226.37,8.72 226.46,8.72 226.54,8.47 226.63,8.47 226.72,8.47 226.81,7.79 226.89,7.79 226.98,7.34 227.07,8.80 227.16,8.80 227.24,8.66 227.33,8.66 227.42,8.66 227.51,10.87 227.59,9.71 227.68,9.71 227.77,9.71 227.86,11.14 227.94,10.09 228.03,10.09 228.12,10.09 228.20,8.96 228.29,9.87 228.38,9.87 228.47,9.87 228.55,8.75 228.64,9.92 228.73,9.92 228.82,9.92 228.90,9.92 228.99,9.65 229.08,9.65 229.17,9.65 229.25,9.18 229.34,9.89 229.43,9.89 229.52,9.89 229.60,9.84 229.69,9.84 229.78,11.16 229.87,10.81 229.95,10.81 230.04,10.81 230.13,10.45 230.22,10.45 230.30,10.84 230.39,10.84 230.48,10.84 230.57,11.35 230.65,11.35 230.74,12.18 230.83,12.18 230.92,12.18 231.00,13.02 231.09,13.02 231.18,13.02 231.27,12.67 231.35,12.67 231.44,12.07 231.53,12.07 231.62,12.07 231.70,12.39 231.79,12.39 231.88,12.92 231.97,12.94 232.05,12.94 232.14,12.94 232.23,13.34 232.32,13.71 232.40,13.71 232.49,13.71 232.58,14.27 232.67,14.27 232.75,14.27 232.84,14.40 232.93,14.40 233.02,14.40 233.10,14.28 233.19,14.28 233.28,14.28 233.37,14.28 233.45,14.37 233.54,14.05 233.63,14.05 233.72,14.05 233.80,14.82 233.89,14.82 233.98,14.82 234.07,14.82 234.15,15.38 234.24,15.38 234.33,15.38 234.42,15.73 234.50,16.26 234.59,16.26 234.68,16.26 234.77,16.41 234.85,16.41 234.94,16.41 235.03,16.75 235.12,16.75 235.20,17.01 235.29,17.01 235.38,17.01 235.47,17.09 235.55,17.09 235.64,17.09 235.73,17.31 235.82,17.31 235.90,17.11 235.99,17.11 236.08,17.11 236.17,17.92 236.25,17.92 236.34,17.92 236.43,17.42 236.52,17.42 236.60,17.42 236.69,18.16 236.78,18.16 236.87,17.46 236.95,18.14 237.04,18.14 237.13,18.14 237.22,17.66 237.30,17.66 237.39,17.66 237.48,18.23 237.57,18.23 237.65,18.23 237.74,18.38 237.83,18.38 237.91,17.72 238.00,17.72 238.09,18.93 238.18,18.93 238.26,17.88 238.35,17.88 238.44,17.88 238.53,19.15 238.61,18.12 238.70,18.12 238.79,19.10 238.88,19.10 238.96,19.10 239.05,18.62 239.14,18.62 239.23,18.62 239.31,20.26 239.40,20.26 239.49,20.43 239.58,20.43 239.66,20.43 239.75,20.43 239.84,20.95 239.93,20.95 240.01,20.95 240.10,21.53 240.19,21.53 240.28,21.53 240.36,21.53 240.45,21.51 240.54,21.51 240.63,21.51 240.71,20.39 240.80,21.42 240.89,21.42 240.98,21.42 241.06,21.33 241.15,21.33 241.24,21.33 241.33,22.89 241.41,22.65 241.50,22.65 241.59,23.07 241.68,23.07 241.76,23.07 241.85,24.15 241.94,24.44 242.03,24.44 242.11,24.44 242.20,25.08 242.29,24.63 242.38,24.63 242.46,24.63 242.55,24.63 242.64,24.83 242.73,24.83 242.81,24.83 242.90,25.60 242.99,25.60 243.08,25.14 243.16,25.14 243.25,25.64 243.34,25.64 243.43,25.64 243.51,26.29 243.60,25.96 243.69,25.96 243.78,25.96 243.86,26.63 243.95,26.91 244.04,26.91 244.13,26.31 244.21,27.49 244.30,27.49 244.39,27.49 244.48,27.76 244.56,27.76 244.65,27.76 244.74,27.68 244.83,28.11 244.91,28.11 245.00,28.29 245.09,28.29 245.18,28.29 245.26,28.54 245.35,28.05 245.44,28.05 245.53,28.05 245.61,29.06 245.70,28.76 245.79,28.76 245.88,28.76 245.96,29.13 246.05,29.13 246.14,29.13 246.23,29.13 246.31,28.65 246.40,28.65 246.49,28.65 246.58,28.46 246.66,28.46 246.75,28.46 246.84,28.46 246.93,28.29 247.01,28.29 247.10,28.29 247.19,28.29 247.28,28.75 247.36,28.03 247.45,28.03 247.54,28.03 247.62,28.54 247.71,27.90 247.80,27.90 247.89,27.90 247.97,27.50 248.06,27.50 248.15,27.50 248.24,26.42 248.32,27.00 248.41,27.00 248.50,27.00 248.59,27.00 248.67,27.12 248.76,26.32 248.85,26.32 248.94,26.54 249.02,26.54 249.11,26.54 249.20,26.54 249.29,26.15 249.37,26.15 249.46,26.15 249.55,25.66 249.64,25.66 249.72,25.66 249.81,25.76 249.90,25.76 249.99,25.07 250.07,25.07 250.16,25.71 250.25,25.71 250.34,25.26 250.42,25.26 250.51,25.26 250.60,24.73 250.69,24.73 250.77,24.73 250.86,25.23 250.95,25.23 251.04,25.23 251.12,25.93 251.21,25.93 251.30,25.93 251.39,25.93 251.47,25.88 251.56,25.88 251.65,25.88 251.74,25.71 251.82,25.71 251.91,25.71 252.00,25.71 252.09,25.83 252.17,25.83 252.26,25.83 252.35,25.73 252.44,25.73 252.52,25.73 252.61,25.49 252.70,25.49 252.79,25.17 252.87,24.89 252.96,24.89 253.05,24.89 253.14,24.52 253.22,24.52 253.31,24.52 253.40,23.91 253.49,23.91 253.57,23.91 253.66,23.58 253.75,23.58 253.84,23.58 253.92,23.95 254.01,23.95 254.10,24.13 254.19,24.13 254.27,24.08 254.36,24.08 254.45,24.08 254.54,24.04 254.62,24.41 254.71,24.41 254.80,24.34 254.89,24.34 254.97,24.34 255.06,24.34 255.15,24.49 255.24,24.49 255.32,24.82 255.41,24.82 255.50,24.82 255.59,25.05 255.67,25.05 255.76,25.05 255.85,25.05 255.94,25.22 256.02,25.22 256.11,25.22 256.20,25.22 256.29,25.22 256.37,25.38 256.46,25.38 256.55,25.34 256.64,25.34 256.72,25.09 256.81,25.09 256.90,25.09 256.99,25.39 257.07,25.39 257.16,25.39 257.25,25.55 257.33,25.55 257.42,26.12 257.51,26.12 257.60,26.12 257.68,26.35 257.77,26.35 257.86,26.35 257.95,26.73 258.03,26.73 258.12,26.73 258.21,26.59 258.30,26.59 258.38,26.59 258.47,26.59 258.56,26.83 258.65,26.83 258.73,26.83 258.82,26.83 258.91,26.85 259.00,26.85 259.08,26.85 259.17,27.85 259.26,27.34 259.35,27.34 259.43,27.05 259.52,27.05 259.61,27.05 259.70,27.00 259.78,27.00 259.87,27.02 259.96,27.02 260.05,27.02 260.13,27.69 260.22,26.03 260.31,26.03 260.40,27.55 260.48,27.55 260.57,27.55 260.66,26.82 260.75,26.82 260.83,28.17 260.92,27.47 261.01,27.47 261.10,27.47 261.18,27.47 261.27,28.63 261.36,27.44 261.45,27.44 261.53,27.44 261.62,27.94 261.71,27.94 261.80,27.94 261.88,27.94 261.97,28.35 262.06,28.35 262.15,28.35 262.23,27.79 262.32,27.79 262.41,27.79 262.50,27.79 262.58,28.27 262.67,28.27 262.76,28.27 262.85,29.68 262.93,29.68 263.02,28.41 263.11,28.41 263.20,30.04 263.28,29.41 263.37,29.41 263.46,29.41 263.55,29.41 263.63,30.87 263.72,30.87 263.81,30.87 263.90,30.02 263.98,30.77 264.07,30.77 264.16,30.77 264.25,32.41 264.33,32.60 264.42,32.60 264.51,32.60 264.60,31.20 264.68,31.20 264.77,31.20 264.86,31.79 264.95,31.79 265.03,31.79 265.12,31.79 265.21,32.48 265.30,31.26 265.38,31.26 265.47,32.17 265.56,32.17 265.65,32.17 265.73,32.40 265.82,32.40 265.91,32.40 266.00,31.96 266.08,31.96 266.17,31.96 266.26,31.96 266.35,31.15 266.43,31.15 266.52,31.15 266.61,31.27 266.70,30.12 266.78,30.12 266.87,30.12 266.96,30.69 267.04,30.69 267.13,30.69 267.22,29.99 267.31,29.99 267.39,29.99 267.48,30.38 267.57,30.38 267.66,30.38 267.74,29.77 267.83,29.77 267.92,29.77 268.01,29.77 268.09,30.20 268.18,30.20 268.27,30.20 268.36,30.81 268.44,30.81 268.53,30.81 268.62,30.62 268.71,30.62 268.79,30.62 268.88,30.62 268.97,30.79 269.06,30.79 269.14,30.79 269.23,31.25 269.32,31.25 269.41,31.25 269.49,31.74 269.58,31.74 269.67,31.74 269.76,32.30 269.84,32.30 269.93,32.30 270.02,32.96 270.11,32.15 270.19,32.15 270.28,32.15 270.37,33.24 270.46,33.24 270.54,33.24 270.63,33.38 270.72,33.38 270.81,33.88 270.89,33.88 270.98,33.88 271.07,33.85 271.16,33.85 271.24,33.85 271.33,33.67 271.42,33.67 271.51,33.89 271.59,33.89 271.68,33.89 271.77,34.47 271.86,34.47 271.94,34.47 272.03,35.34 272.12,34.82 272.21,34.82 272.29,34.82 272.38,35.49 272.47,35.49 272.56,35.49 272.64,35.49 272.73,35.60 272.82,35.60 272.91,35.60 272.99,35.60 273.08,35.77 273.17,35.77 273.26,35.77 273.34,36.26 273.43,36.26 273.52,36.26 273.61,36.26 273.69,36.26 273.78,36.33 273.87,36.73 273.96,36.73 274.04,36.73 274.13,36.68 274.22,36.68 274.31,36.68 274.39,36.68 274.48,36.75 274.57,36.75 274.66,36.75 274.74,37.22 274.83,37.22 274.92,37.22 275.01,37.22 275.09,37.22 275.18,37.22 275.27,37.22 275.36,37.16 275.44,37.16 275.53,38.37 275.62,38.37 275.71,37.38 275.79,37.38 275.88,38.62 275.97,38.62 276.06,38.03 276.14,38.03 276.23,38.03 276.32,38.15 276.41,38.15 276.49,38.15 276.58,38.15 276.67,39.09 276.75,37.52 276.84,37.52 276.93,38.05 277.02,39.59 277.10,39.59 277.19,39.59 277.28,40.61 277.37,40.61 277.45,40.61 277.54,39.93 277.63,39.93 277.72,39.93 277.80,40.84 277.89,40.84 277.98,40.47 278.07,40.47 278.15,41.00 278.24,41.00 278.33,41.34 278.42,41.34 278.50,41.34 278.59,41.68 278.68,41.68 278.77,41.68 278.85,42.17 278.94,42.17 279.03,42.91 279.12,42.91 279.20,41.88 279.29,42.37 279.38,42.37 279.47,42.83 279.55,42.83 279.64,42.83 279.73,42.83 279.82,42.77 279.90,42.77 279.99,42.77 280.08,43.02 280.17,43.02 280.25,43.02 280.34,43.84 280.43,43.84 280.52,43.84 280.60,44.34 280.69,44.34 280.78,44.34 280.87,44.53 280.95,44.53 281.04,44.53 281.13,45.27 281.22,45.27 281.30,44.81 281.39,44.81 281.48,45.46 281.57,45.33 281.65,45.33 281.74,45.33 281.83,45.33 281.92,45.06 282.00,45.06 282.09,45.06 282.18,44.83 282.27,44.83 282.35,44.83 282.44,44.74 282.53,44.74 282.62,44.74 282.70,44.73 282.79,44.73 282.88,44.73 282.97,44.97 283.05,44.97 283.14,44.97 283.23,45.37 283.32,44.37 283.40,44.37 283.49,44.89 283.58,44.89 283.67,44.89 283.75,44.89 283.84,45.52 283.93,45.52 284.02,45.52 284.10,46.01 284.19,44.95 284.28,44.95 284.37,45.72 284.45,45.72 284.54,44.77 284.63,44.77 284.72,44.77 284.80,43.71 284.89,45.16 284.98,45.16 285.07,44.48 285.15,44.48 285.24,44.48 285.33,43.59 285.42,45.48 285.50,45.48 285.59,44.73 285.68,44.73 285.77,44.73 285.85,44.30 285.94,45.92 286.03,45.92 286.12,46.06 286.20,46.06 286.29,46.06 286.38,46.17 286.46,46.17 286.55,46.66 286.64,45.78 286.73,45.78 286.81,45.78 286.90,45.38 286.99,45.38 287.08,46.57 287.16,45.97 287.25,45.97 287.34,45.97 287.43,46.85 287.51,46.44 287.60,46.44 287.69,46.44 287.78,46.34 287.86,46.34 287.95,47.48 288.04,46.93 288.13,46.93 288.21,46.93 288.30,47.77 288.39,47.18 288.48,47.18 288.56,47.18 288.65,46.23 288.74,46.97 288.83,46.97 288.91,46.14 289.00,46.14 289.09,46.14 289.18,47.64 289.26,47.64 289.35,47.64 289.44,48.57 289.53,47.24 289.61,47.24 289.70,47.87 289.79,47.87 289.88,47.87 289.96,46.34 290.05,47.71 290.14,47.71 290.23,47.71 290.31,46.97 290.40,48.49 290.49,48.49 290.58,48.49 290.66,48.86 290.75,48.86 290.84,48.86 290.93,48.86 291.01,48.52 291.10,48.52 291.19,48.52 291.28,50.07 291.36,48.33 291.45,48.33 291.54,48.33 291.63,49.65 291.71,49.65 291.80,49.65 291.89,50.25 291.98,50.25 292.06,51.71 292.15,51.44 292.24,51.44 292.33,51.44 292.41,51.44 292.50,51.31 292.59,51.31 292.68,51.31 292.76,51.50 292.85,51.50 292.94,51.50 293.03,51.51 293.11,51.51 293.20,51.51 293.29,52.02 293.38,52.02 293.46,51.22 293.55,51.22 293.64,52.54 293.73,52.26 293.81,52.26 293.90,52.26 293.99,52.20 294.08,52.20 294.16,53.44 294.25,53.44 294.34,53.44 294.43,53.35 294.51,54.42 294.60,54.42 294.69,54.42 294.78,54.45 294.86,54.45 294.95,54.45 295.04,54.70 295.13,53.74 295.21,53.74 295.30,54.80 295.39,54.80 295.48,54.54 295.56,54.54 295.65,55.59 295.74,55.59 295.83,55.59 295.91,55.74 296.00,55.74" />
</svg>