<svg width="300" height="60" xmlns="http://www.w3.org/2000/svg">
  <polyline fill="rgba(255,200,0,0.3)" stroke="#ffbb00" stroke-width="2" points="4.00,55.92 4.20,55.58 4.40,55.25 4.59,55.12 4.79,55.15 4.99,55.12 5.19,55.02 5.39,55.04 5.58,55.03 5.78,54.92 5.98,55.01 6.18,55.00 6.38,54.97 6.57,54.88 6.77,54.78 6.97,54.72 7.17,54.64 7.37,54.59 7.56,54.53 7.76,54.47 7.96,54.44 8.16,54.36 8.36,54.26 8.55,54.15 8.75,54.17 8.95,54.13 9.15,54.05 9.35,53.87 9.54,53.76 9.74,53.89 9.94,53.68 10.14,53.59 10.33,53.53 10.53,53.50 10.73,53.54 10.93,53.66 11.13,53.60 11.32,53.49 11.52,53.39 11.72,53.31 11.92,53.27 12.12,53.19 12.31,53.09 12.51,53.12 12.71,52.83 12.91,52.83 13.11,52.81 13.30,52.78 13.50,52.78 13.70,52.74 13.90,52.66 14.10,52.53 14.29,52.35 14.49,52.35 14.69,52.40 14.89,52.68 15.09,52.56 15.28,52.49 15.48,52.45 15.68,52.35 15.88,52.22 16.08,52.11 16.27,52.02 16.47,51.93 16.67,51.83 16.87,51.82 17.07,51.70 17.26,51.34 17.46,51.03 17.66,50.54 17.86,50.11 18.06,50.01 18.25,49.76 18.45,49.17 18.65,49.20 18.85,49.28 19.05,49.29 19.24,49.32 19.44,49.37 19.64,49.33 19.84,48.97 20.04,48.42 20.23,48.26 20.43,48.18 20.63,48.28 20.83,47.82 21.03,47.33 21.22,47.10 21.42,47.29 21.62,47.98 21.82,48.72 22.01,49.18 22.21,49.20 22.41,49.19 22.61,49.18 22.81,49.36 23.00,49.40 23.20,49.06 23.40,49.07 23.60,49.10 23.80,48.99 23.99,49.06 24.19,49.10 24.39,48.99 24.59,48.81 24.79,48.69 24.98,48.75 25.18,48.84 25.38,48.88 25.58,48.97 25.78,49.14 25.97,49.09 26.17,48.95 26.37,48.76 26.57,48.71 26.77,48.61 26.96,48.56 27.16,48.50 27.36,48.39 27.56,48.33 27.76,48.28 27.95,48.24 28.15,48.18 28.35,48.09 28.55,47.97 28.75,47.92 28.94,47.85 29.14,47.74 29.34,47.63 29.54,47.55 29.74,47.49 29.93,47.49 30.13,47.33 30.33,47.24 30.53,47.16 30.73,47.10 30.92,47.07 31.12,46.92 31.32,46.78 31.52,46.87 31.72,46.76 31.91,46.55 32.11,46.39 32.31,46.20 32.51,46.01 32.71,45.80 32.90,45.54 33.10,45.40 33.30,45.25 33.50,45.49 33.69,45.56 33.89,45.43 34.09,45.55 34.29,45.40 34.49,45.24 34.68,45.32 34.88,45.27 35.08,45.13 35.28,45.07 35.48,45.14 35.67,45.06 35.87,44.84 36.07,44.74 36.27,44.63 36.47,44.55 36.66,44.42 36.86,44.27 37.06,44.15 37.26,44.02 37.46,43.75 37.65,43.16 37.85,42.81 38.05,42.36 38.25,41.96 38.45,41.88 38.64,41.72 38.84,41.39 39.04,41.64 39.24,42.17 39.44,42.68 39.63,42.86 39.83,42.98 40.03,43.01 40.23,42.81 40.43,42.62 40.62,42.56 40.82,42.36 41.02,42.27 41.22,42.19 41.42,42.11 41.61,42.04 41.81,41.89 42.01,41.71 42.21,41.61 42.41,41.51 42.60,41.61 42.80,41.44 43.00,41.10 43.20,40.90 43.40,40.84 43.59,41.01 43.79,40.66 43.99,40.73 44.19,40.53 44.39,40.43 44.58,40.38 44.78,40.22 44.98,40.09 45.18,39.88 45.37,39.93 45.57,39.69 45.77,39.38 45.97,39.10 46.17,38.97 46.36,38.73 46.56,38.49 46.76,38.42 46.96,38.21 47.16,38.16 47.35,38.29 47.55,38.19 47.75,38.01 47.95,37.82 48.15,37.48 48.34,37.35 48.54,37.37 48.74,37.22 48.94,37.02 49.14,36.77 49.33,36.53 49.53,36.30 49.73,35.96 49.93,35.88 50.13,36.27 50.32,35.87 50.52,35.65 50.72,35.31 50.92,35.18 51.12,35.06 51.31,34.92 51.51,34.59 51.71,34.51 51.91,34.23 52.11,33.96 52.30,33.87 52.50,33.72 52.70,33.32 52.90,33.00 53.10,32.79 53.29,32.63 53.49,32.59 53.69,32.69 53.89,32.62 54.09,32.60 54.28,32.48 54.48,32.16 54.68,31.84 54.88,31.50 55.08,31.27 55.27,31.24 55.47,31.09 55.67,30.40 55.87,30.33 56.07,30.22 56.26,29.64 56.46,29.31 56.66,29.07 56.86,28.84 57.05,28.48 57.25,28.26 57.45,27.98 57.65,27.62 57.85,27.29 58.04,26.75 58.24,26.31 58.44,26.22 58.64,26.22 58.84,26.10 59.03,25.99 59.23,25.69 59.43,25.37 59.63,24.82 59.83,24.40 60.02,23.94 60.22,23.52 60.42,23.48 60.62,23.25 60.82,22.77 61.01,22.40 61.21,22.34 61.41,21.90 61.61,21.37 61.81,20.88 62.00,20.15 62.20,19.52 62.40,18.91 62.60,18.34 62.80,17.65 62.99,17.08 63.19,17.21 63.39,17.88 63.59,18.25 63.79,18.10 63.98,17.82 64.18,17.67 64.38,17.36 64.58,16.96 64.78,16.30 64.97,15.52 65.17,14.67 65.37,14.01 65.57,13.41 65.77,12.62 65.96,11.95 66.16,11.21 66.36,10.83 66.56,10.37 66.76,10.04 66.95,9.90 67.15,9.91 67.35,9.73 67.55,9.72 67.75,9.42 67.94,8.92 68.14,8.16 68.34,7.77 68.54,7.56 68.73,7.80 68.93,8.34 69.13,9.06 69.33,9.64 69.53,9.28 69.72,8.71 69.92,8.23 70.12,8.03 70.32,7.77 70.52,7.48 70.71,7.10 70.91,7.11 71.11,7.38 71.31,7.59 71.51,7.62 71.70,7.76 71.90,7.65 72.10,7.60 72.30,7.51 72.50,7.45 72.69,7.37 72.89,7.22 73.09,7.03 73.29,6.64 73.49,6.33 73.68,6.09 73.88,5.96 74.08,5.91 74.28,5.67 74.48,5.47 74.67,5.36 74.87,5.25 75.07,5.17 75.27,5.31 75.47,5.41 75.66,5.20 75.86,4.98 76.06,4.90 76.26,4.84 76.46,4.80 76.65,4.74 76.85,4.52 77.05,56.00 77.25,55.53 77.45,55.23 77.64,55.15 77.84,55.01 78.04,55.00 78.24,54.92 78.44,54.90 78.63,55.12 78.83,54.99 79.03,55.04 79.23,54.90 79.43,54.96 79.62,54.83 79.82,54.78 80.02,54.70 80.22,54.64 80.41,54.57 80.61,54.50 80.81,54.46 81.01,54.35 81.21,54.34 81.40,54.24 81.60,54.17 81.80,54.13 82.00,54.15 82.20,54.08 82.39,53.72 82.59,53.69 82.79,53.86 82.99,53.71 83.19,53.56 83.38,53.36 83.58,53.44 83.78,53.41 83.98,53.64 84.18,53.57 84.37,53.47 84.57,53.35 84.77,53.31 84.97,53.23 85.17,53.22 85.36,53.09 85.56,53.06 85.76,52.74 85.96,52.76 86.16,52.82 86.35,52.81 86.55,52.78 86.75,52.72 86.95,52.64 87.15,52.50 87.34,52.37 87.54,52.37 87.74,52.39 87.94,52.65 88.14,52.55 88.33,52.47 88.53,52.43 88.73,52.33 88.93,52.23 89.13,52.09 89.32,52.03 89.52,51.94 89.72,51.81 89.92,51.82 90.12,51.64 90.31,51.35 90.51,51.02 90.71,50.46 90.91,50.09 91.11,50.02 91.30,49.68 91.50,49.31 91.70,49.34 91.90,49.11 92.09,49.28 92.29,49.30 92.49,49.36 92.69,49.29 92.89,49.10 93.08,48.31 93.28,48.35 93.48,48.18 93.68,48.31 93.88,47.78 94.07,47.36 94.27,47.20 94.47,47.35 94.67,47.96 94.87,49.11 95.06,49.18 95.26,49.18 95.46,49.20 95.66,49.25 95.86,49.40 96.05,49.37 96.25,49.04 96.45,49.06 96.65,49.00 96.85,48.92 97.04,49.13 97.24,49.12 97.44,48.99 97.64,48.80 97.84,48.65 98.03,48.72 98.23,48.81 98.43,48.86 98.63,48.85 98.83,49.09 99.02,49.05 99.22,48.87 99.42,48.77 99.62,48.70 99.82,48.62 100.01,48.55 100.21,48.51 100.41,48.37 100.61,48.31 100.81,48.27 101.00,48.23 101.20,48.17 101.40,48.09 101.60,47.98 101.80,47.84 101.99,47.83 102.19,47.76 102.39,47.60 102.59,47.52 102.79,47.49 102.98,47.41 103.18,47.35 103.38,47.25 103.58,47.17 103.77,47.12 103.97,47.06 104.17,46.90 104.37,46.78 104.57,46.71 104.76,46.66 104.96,46.49 105.16,46.37 105.36,46.17 105.56,46.02 105.75,45.76 105.95,45.54 106.15,45.37 106.35,45.21 106.55,45.46 106.74,45.48 106.94,45.34 107.14,45.28 107.34,45.52 107.54,45.39 107.73,45.28 107.93,45.27 108.13,45.11 108.33,45.06 108.53,45.13 108.72,45.02 108.92,44.67 109.12,44.78 109.32,44.57 109.52,44.56 109.71,44.34 109.91,44.27 110.11,44.13 110.31,43.97 110.51,43.69 110.70,43.01 110.90,42.68 111.10,42.39 111.30,41.68 111.50,41.79 111.69,41.76 111.89,41.26 112.09,41.35 112.29,41.96 112.49,42.82 112.68,42.88 112.88,42.90 113.08,43.03 113.28,42.81 113.48,42.57 113.67,42.59 113.87,42.36 114.07,42.35 114.27,42.18 114.47,42.15 114.66,42.06 114.86,41.91 115.06,41.68 115.26,41.62 115.45,41.48 115.65,41.56 115.85,41.23 116.05,41.09 116.25,40.92 116.44,40.76 116.64,41.01 116.84,40.76 117.04,40.70 117.24,40.61 117.43,40.34 117.63,40.28 117.83,40.14 118.03,40.12 118.23,39.85 118.42,39.77 118.62,39.64 118.82,39.33 119.02,39.06 119.22,38.98 119.41,38.68 119.61,38.60 119.81,38.30 120.01,38.33 120.21,38.30 120.40,38.44 120.60,38.15 120.80,38.05 121.00,37.76 121.20,37.33 121.39,37.22 121.59,37.40 121.79,37.20 121.99,36.96 122.19,36.79 122.38,36.56 122.58,36.31 122.78,35.99 122.98,35.82 123.18,36.13 123.37,35.83 123.57,35.65 123.77,35.33 123.97,35.19 124.17,34.98 124.36,34.90 124.56,34.60 124.76,34.57 124.96,34.27 125.16,34.07 125.35,33.93 125.55,33.82 125.75,33.37 125.95,32.97 126.15,32.77 126.34,32.88 126.54,32.75 126.74,32.67 126.94,32.62 127.13,32.54 127.33,32.57 127.53,32.10 127.73,31.83 127.93,31.48 128.12,31.27 128.32,31.23 128.52,30.92 128.72,30.46 128.92,30.34 129.11,30.17 129.31,29.40 129.51,29.16 129.71,28.97 129.91,28.77 130.10,28.28 130.30,28.20 130.50,28.09 130.70,27.65 130.90,27.32 131.09,26.80 131.29,26.25 131.49,26.18 131.69,26.07 131.89,25.97 132.08,25.69 132.28,25.84 132.48,25.27 132.68,24.72 132.88,24.32 133.07,23.83 133.27,23.42 133.47,23.33 133.67,23.15 133.87,22.70 134.06,22.34 134.26,22.32 134.46,21.81 134.66,21.35 134.86,20.87 135.05,20.09 135.25,19.57 135.45,19.05 135.65,18.37 135.85,17.57 136.04,16.82 136.24,17.09 136.44,17.41 136.64,18.27 136.84,18.28 137.03,17.82 137.23,17.70 137.43,17.35 137.63,16.95 137.83,16.00 138.02,15.29 138.22,14.48 138.42,14.04 138.62,13.38 138.81,12.73 139.01,12.02 139.21,11.19 139.41,10.98 139.61,10.22 139.80,10.05 140.00,10.11 140.20,9.85 140.40,9.89 140.60,9.64 140.79,9.59 140.99,8.79 141.19,8.36 141.39,7.81 141.59,7.50 141.78,7.96 141.98,8.30 142.18,9.33 142.38,9.81 142.58,9.20 142.77,8.71 142.97,8.38 143.17,7.98 143.37,7.87 143.57,7.54 143.76,7.14 143.96,7.20 144.16,7.46 144.36,7.60 144.56,7.68 144.75,7.82 144.95,7.69 145.15,7.57 145.35,7.52 145.55,7.51 145.74,7.24 145.94,7.20 146.14,6.96 146.34,6.78 146.54,6.27 146.73,6.14 146.93,5.91 147.13,5.86 147.33,5.58 147.53,5.52 147.72,5.29 147.92,5.24 148.12,5.19 148.32,5.33 148.52,5.33 148.71,5.29 148.91,5.09 149.11,4.85 149.31,4.85 149.51,4.85 149.70,4.76 149.90,4.53 150.10,55.72 150.30,55.61 150.49,55.44 150.69,55.30 150.89,55.23 151.09,55.12 151.29,55.05 151.48,55.00 151.68,54.96 151.88,54.95 152.08,54.93 152.28,54.96 152.47,54.93 152.67,54.89 152.87,54.83 153.07,54.76 153.27,54.70 153.46,54.61 153.66,54.57 153.86,54.53 154.06,54.24 154.26,54.18 154.45,54.12 154.65,54.11 154.85,54.12 155.05,54.12 155.25,54.13 155.44,53.73 155.64,53.76 155.84,53.40 156.04,53.64 156.24,53.24 156.43,53.42 156.63,53.02 156.83,53.36 157.03,53.17 157.23,53.56 157.42,53.31 157.62,53.39 157.82,53.14 158.02,53.25 158.22,53.09 158.41,53.13 158.61,52.90 158.81,52.89 159.01,52.66 159.21,52.70 159.40,52.73 159.60,52.76 159.80,52.72 160.00,52.66 160.20,52.47 160.39,52.37 160.59,52.33 160.79,52.36 160.99,52.46 161.19,52.60 161.38,52.47 161.58,52.41 161.78,52.32 161.98,52.20 162.17,52.11 162.37,52.05 162.57,51.93 162.77,51.88 162.97,51.84 163.16,51.50 163.36,51.61 163.56,51.30 163.76,50.46 163.96,50.13 164.15,49.94 164.35,49.53 164.55,49.05 164.75,49.43 164.95,49.29 165.14,49.21 165.34,49.17 165.54,49.11 165.74,48.93 165.94,49.25 166.13,48.82 166.33,48.41 166.53,48.08 166.73,47.95 166.93,47.95 167.12,47.43 167.32,47.00 167.52,47.81 167.72,47.83 167.92,48.00 168.11,48.22 168.31,48.31 168.51,49.59 168.71,49.56 168.91,49.54 169.10,49.51 169.30,49.23 169.50,49.10 169.70,49.03 169.90,49.04 170.09,49.05 170.29,49.01 170.49,48.89 170.69,48.70 170.89,48.51 171.08,48.80 171.28,48.79 171.48,48.75 171.68,49.02 171.88,49.07 172.07,49.04 172.27,48.96 172.47,48.82 172.67,48.71 172.87,48.64 173.06,48.55 173.26,48.50 173.46,48.43 173.66,48.36 173.85,48.27 174.05,48.24 174.25,48.19 174.45,48.12 174.65,48.04 174.84,47.94 175.04,47.77 175.24,47.72 175.44,47.66 175.64,47.59 175.83,47.47 176.03,47.55 176.23,47.42 176.43,47.29 176.63,47.15 176.82,47.09 177.02,47.03 177.22,47.00 177.42,46.82 177.62,46.92 177.81,46.83 178.01,46.67 178.21,46.36 178.41,46.14 178.61,46.01 178.80,45.83 179.00,45.64 179.20,45.50 179.40,45.38 179.60,45.50 179.79,45.46 179.99,45.44 180.19,45.44 180.39,45.38 180.59,45.33 180.78,45.25 180.98,45.34 181.18,45.27 181.38,45.21 181.58,45.16 181.77,45.09 181.97,44.60 182.17,44.60 182.37,44.55 182.57,44.47 182.76,44.38 182.96,44.29 183.16,44.12 183.36,43.44 183.56,43.17 183.75,42.93 183.95,42.70 184.15,42.47 184.35,42.10 184.55,42.15 184.74,42.17 184.94,40.87 185.14,40.83 185.34,42.21 185.53,42.69 185.73,42.82 185.93,42.91 186.13,42.93 186.33,42.79 186.52,42.64 186.72,42.54 186.92,42.45 187.12,42.33 187.32,42.22 187.51,42.15 187.71,42.06 187.91,41.85 188.11,41.73 188.31,41.63 188.50,41.58 188.70,41.59 188.90,41.23 189.10,41.22 189.30,41.18 189.49,40.83 189.69,40.64 189.89,40.78 190.09,40.59 190.29,40.44 190.48,40.33 190.68,40.26 190.88,40.18 191.08,40.11 191.28,39.99 191.47,39.64 191.67,39.56 191.87,39.46 192.07,38.96 192.27,38.86 192.46,38.74 192.66,38.65 192.86,38.58 193.06,38.56 193.26,37.94 193.45,38.20 193.65,37.83 193.85,37.98 194.05,37.59 194.25,37.59 194.44,37.31 194.64,37.43 194.84,37.16 195.04,36.87 195.24,36.90 195.43,36.53 195.63,36.54 195.83,36.03 196.03,36.25 196.23,35.87 196.42,35.88 196.62,35.52 196.82,35.34 197.02,35.12 197.21,34.87 197.41,34.43 197.61,33.86 197.81,34.60 198.01,34.24 198.20,34.10 198.40,33.81 198.60,33.99 198.80,33.35 199.00,32.70 199.19,32.95 199.39,32.51 199.59,32.76 199.79,32.44 199.99,32.80 200.18,32.49 200.38,32.54 200.58,32.19 200.78,32.10 200.98,31.50 201.17,31.42 201.37,31.19 201.57,30.67 201.77,30.46 201.97,30.12 202.16,29.64 202.36,29.66 202.56,29.23 202.76,28.81 202.96,28.97 203.15,28.55 203.35,28.11 203.55,28.27 203.75,27.35 203.95,27.25 204.14,26.66 204.34,26.08 204.54,26.45 204.74,26.09 204.94,25.60 205.13,26.25 205.33,25.65 205.53,25.88 205.73,25.08 205.93,24.32 206.12,23.87 206.32,23.29 206.52,22.86 206.72,23.31 206.92,22.73 207.11,22.18 207.31,22.51 207.51,21.94 207.71,21.90 207.91,21.17 208.10,19.62 208.30,19.67 208.50,18.87 208.70,18.09 208.89,17.26 209.09,17.52 209.29,16.73 209.49,17.45 209.69,18.18 209.88,18.91 210.08,18.01 210.28,17.63 210.48,17.50 210.68,16.82 210.87,16.02 211.07,15.21 211.27,13.94 211.47,13.43 211.67,12.93 211.86,12.33 212.06,11.72 212.26,11.25 212.46,10.74 212.66,10.52 212.85,10.39 213.05,10.41 213.25,9.02 213.45,9.16 213.65,9.40 213.84,9.38 214.04,9.06 214.24,8.64 214.44,7.31 214.64,7.30 214.83,7.96 215.03,8.60 215.23,9.32 215.43,9.68 215.63,9.45 215.82,8.96 216.02,8.38 216.22,8.07 216.42,7.72 216.62,7.36 216.81,6.99 217.01,7.31 217.21,7.18 217.41,7.54 217.61,7.72 217.80,7.64 218.00,7.86 218.20,7.83 218.40,7.46 218.60,7.37 218.79,7.20 218.99,7.33 219.19,6.93 219.39,6.58 219.59,6.31 219.78,5.92 219.98,5.93 220.18,5.56 220.38,5.63 220.57,5.22 220.77,5.31 220.97,4.93 221.17,5.06 221.37,5.53 221.56,5.22 221.76,5.25 221.96,5.19 222.16,4.87 222.36,4.98 222.55,4.77 222.75,4.85 222.95,4.59 223.15,55.34 223.35,55.34 223.54,55.34 223.74,55.03 223.94,55.03 224.14,54.83 224.34,54.83 224.53,54.83 224.73,54.68 224.93,54.68 225.13,54.68 225.33,54.69 225.52,54.69 225.72,54.80 225.92,54.80 226.12,54.80 226.32,54.72 226.51,54.72 226.71,54.54 226.91,54.54 227.11,53.72 227.31,53.13 227.50,53.13 227.70,52.92 227.90,52.92 228.10,52.92 228.30,52.96 228.49,52.96 228.69,52.96 228.89,53.31 229.09,53.31 229.29,51.35 229.48,52.09 229.68,52.09 229.88,52.09 230.08,53.00 230.28,53.00 230.47,51.33 230.67,52.51 230.87,52.51 231.07,52.51 231.27,52.98 231.46,52.98 231.66,51.89 231.86,51.99 232.06,51.99 232.25,52.20 232.45,52.20 232.65,52.20 232.85,52.27 233.05,52.27 233.24,52.06 233.44,52.06 233.64,52.06 233.84,51.87 234.04,51.87 234.23,51.87 234.43,51.76 234.63,51.76 234.83,51.61 235.03,51.61 235.22,51.61 235.42,51.63 235.62,51.63 235.82,51.61 236.02,51.61 236.21,51.61 236.41,51.25 236.61,51.25 236.81,50.44 237.01,50.44 237.20,50.81 237.40,49.57 237.60,49.57 237.80,49.57 238.00,48.61 238.19,48.61 238.39,48.32 238.59,48.32 238.79,48.32 238.99,47.74 239.18,47.74 239.38,47.74 239.58,46.47 239.78,46.47 239.98,48.05 240.17,48.05 240.37,48.05 240.57,47.04 240.77,47.04 240.97,47.04 241.16,46.78 241.36,46.78 241.56,46.97 241.76,46.97 241.96,46.97 242.15,47.47 242.35,47.47 242.55,47.73 242.75,47.73 242.95,47.73 243.14,47.31 243.34,47.31 243.54,46.59 243.74,46.59 243.93,46.59 244.13,48.73 244.33,48.73 244.53,48.73 244.73,48.61 244.92,48.61 245.12,48.39 245.32,48.39 245.52,48.81 245.72,48.71 245.91,48.71 246.11,48.71 246.31,48.54 246.51,48.54 246.71,48.54 246.90,48.36 247.10,48.36 247.30,48.22 247.50,48.22 247.70,48.22 247.89,48.02 248.09,48.02 248.29,47.77 248.49,47.77 248.69,47.77 248.88,47.39 249.08,47.17 249.28,47.17 249.48,47.28 249.68,47.28 249.87,47.27 250.07,47.27 250.27,47.27 250.47,47.00 250.67,47.00 250.86,47.00 251.06,46.61 251.26,46.61 251.46,46.25 251.66,46.25 251.85,46.25 252.05,45.88 252.25,45.88 252.45,45.88 252.65,45.64 252.84,45.64 253.04,45.60 253.24,45.60 253.44,45.60 253.64,45.41 253.83,45.41 254.03,45.21 254.23,45.21 254.43,45.21 254.63,44.94 254.82,44.94 255.02,43.81 255.22,43.81 255.42,43.81 255.61,43.30 255.81,43.30 256.01,43.30 256.21,42.82 256.41,42.82 256.60,42.13 256.80,42.13 257.00,42.13 257.20,41.39 257.40,41.39 257.59,40.87 257.79,40.87 257.99,40.87 258.19,40.89 258.39,40.89 258.58,41.44 258.78,41.44 258.98,41.44 259.18,42.16 259.38,42.16 259.57,42.16 259.77,42.43 259.97,42.43 260.17,42.25 260.37,42.25 260.56,42.25 260.76,41.94 260.96,41.94 261.16,41.55 261.36,41.55 261.55,41.55 261.75,41.33 261.95,41.33 262.15,41.33 262.35,40.89 262.54,40.89 262.74,40.21 262.94,40.40 263.14,40.40 263.34,40.02 263.53,40.02 263.73,40.02 263.93,39.72 264.13,39.72 264.33,39.72 264.52,39.53 264.72,39.53 264.92,39.12 265.12,39.12 265.32,39.12 265.51,38.67 265.71,38.67 265.91,38.23 266.11,38.23 266.31,37.60 266.50,37.70 266.70,37.70 266.90,37.70 267.10,37.28 267.29,37.28 267.49,36.55 267.69,36.90 267.89,36.90 268.09,36.90 268.28,35.52 268.48,36.13 268.68,36.13 268.88,36.13 269.08,35.78 269.27,35.78 269.47,34.50 269.67,35.33 269.87,35.33 270.07,35.33 270.26,33.85 270.46,33.85 270.66,33.85 270.86,33.85 271.06,32.26 271.25,34.19 271.45,34.19 271.65,34.19 271.85,32.72 272.05,33.27 272.24,33.27 272.44,33.27 272.64,33.18 272.84,31.90 273.04,31.90 273.23,32.32 273.43,32.32 273.63,32.32 273.83,31.12 274.03,31.45 274.22,31.45 274.42,31.13 274.62,31.13 274.82,29.36 275.02,29.36 275.21,29.36 275.41,29.46 275.61,29.46 275.81,29.46 276.01,28.25 276.20,28.25 276.40,28.25 276.60,26.89 276.80,26.89 277.00,27.15 277.19,27.15 277.39,27.15 277.59,25.60 277.79,25.60 277.99,25.60 278.18,23.87 278.38,23.87 278.58,26.17 278.78,24.87 278.97,24.87 279.17,23.03 279.37,23.03 279.57,23.03 279.77,21.22 279.96,21.22 280.16,21.22 280.36,22.33 280.56,22.33 280.76,22.33 280.95,20.34 281.15,20.34 281.35,17.84 281.55,17.84 281.75,17.84 281.94,15.28 282.14,18.32 282.34,18.32 282.54,16.23 282.74,16.23 282.93,18.94 283.13,18.94 283.33,17.04 283.53,17.04 283.73,17.04 283.92,14.34 284.12,14.34 284.32,12.10 284.52,12.10 284.72,12.10 284.91,10.33 285.11,10.33 285.31,10.33 285.51,8.76 285.71,8.76 285.90,7.83 286.10,7.83 286.30,7.83 286.50,7.81 286.70,7.81 286.89,7.91 287.09,7.91 287.29,7.91 287.49,7.45 287.69,7.45 287.88,8.12 288.08,8.12 288.28,8.12 288.48,9.32 288.68,9.32 288.87,9.32 289.07,8.47 289.27,8.47 289.47,7.12 289.67,7.12 289.86,7.12 290.06,6.30 290.26,6.30 290.46,7.80 290.65,7.35 290.85,7.35 291.05,7.35 291.25,8.14 291.45,7.40 291.64,7.40 291.84,7.40 292.04,7.79 292.24,6.84 292.44,6.84 292.63,6.84 292.83,5.55 293.03,6.28 293.23,6.28 293.43,5.19 293.62,5.19 293.82,5.19 294.02,4.00 294.22,5.36 294.42,5.36 294.61,5.36 294.81,4.36 295.01,5.49 295.21,5.49 295.41,4.60 295.60,4.60 295.80,4.60 296.00,4.79" />
</svg>