<svg width="300" height="60" xmlns="http://www.w3.org/2000/svg">
  <polyline fill="rgba(255,200,0,0.3)" stroke="#ffbb00" stroke-width="2" points="4.00,55.28 4.29,55.38 4.58,56.00 4.87,55.52 5.16,55.22 5.45,54.72 5.75,54.32 6.04,54.02 6.33,53.80 6.62,53.76 6.91,53.62 7.20,53.34 7.49,52.95 7.78,52.73 8.07,52.48 8.36,52.12 8.65,51.59 8.94,51.11 9.24,50.72 9.53,50.27 9.82,49.86 10.11,49.47 10.40,49.28 10.69,49.10 10.98,48.86 11.27,48.68 11.56,48.46 11.85,48.28 12.14,47.99 12.43,47.74 12.73,47.69 13.02,47.53 13.31,47.26 13.60,47.07 13.89,46.84 14.18,46.66 14.47,46.47 14.76,46.41 15.05,46.68 15.34,46.62 15.63,46.74 15.92,46.61 16.22,46.33 16.51,46.01 16.80,45.67 17.09,45.31 17.38,44.96 17.67,44.45 17.96,44.18 18.25,44.21 18.54,44.39 18.83,44.96 19.12,44.80 19.41,43.91 19.71,43.31 20.00,42.95 20.29,42.67 20.58,42.45 20.87,42.30 21.16,42.27 21.45,42.13 21.74,42.42 22.03,42.37 22.32,42.76 22.61,43.73 22.90,44.69 23.20,45.38 23.49,45.71 23.78,45.21 24.07,44.64 24.36,44.11 24.65,43.42 24.94,42.73 25.23,41.97 25.52,41.36 25.81,40.97 26.10,40.47 26.39,40.16 26.69,39.83 26.98,39.57 27.27,39.30 27.56,39.18 27.85,38.87 28.14,38.55 28.43,38.38 28.72,38.31 29.01,38.05 29.30,37.60 29.59,37.02 29.88,36.14 30.18,35.85 30.47,35.63 30.76,35.42 31.05,35.19 31.34,34.52 31.63,34.10 31.92,33.79 32.21,33.46 32.50,33.37 32.79,32.98 33.08,32.58 33.37,32.30 33.67,32.56 33.96,32.78 34.25,33.34 34.54,34.00 34.83,33.99 35.12,33.59 35.41,33.33 35.70,32.90 35.99,32.38 36.28,32.12 36.57,32.00 36.86,31.81 37.16,31.90 37.45,31.84 37.74,31.57 38.03,31.31 38.32,31.33 38.61,30.91 38.90,30.47 39.19,29.50 39.48,28.71 39.77,27.77 40.06,27.09 40.35,26.53 40.65,26.31 40.94,26.13 41.23,26.22 41.52,26.10 41.81,26.20 42.10,26.73 42.39,27.01 42.68,26.95 42.97,26.73 43.26,26.50 43.55,26.33 43.84,26.23 44.14,26.43 44.43,26.68 44.72,26.67 45.01,26.22 45.30,25.09 45.59,24.61 45.88,24.32 46.17,24.20 46.46,23.89 46.75,23.63 47.04,23.44 47.33,23.41 47.63,23.40 47.92,23.91 48.21,24.46 48.50,24.98 48.79,25.11 49.08,25.02 49.37,24.63 49.66,24.00 49.95,22.94 50.24,22.43 50.53,22.10 50.82,21.42 51.12,20.85 51.41,20.28 51.70,19.80 51.99,19.45 52.28,19.14 52.57,18.92 52.86,18.72 53.15,18.55 53.44,18.60 53.73,18.09 54.02,17.69 54.31,16.99 54.61,15.86 54.90,15.03 55.19,14.97 55.48,15.43 55.77,14.68 56.06,13.50 56.35,12.85 56.64,12.21 56.93,11.95 57.22,12.01 57.51,12.42 57.80,12.66 58.10,12.53 58.39,12.36 58.68,12.19 58.97,12.17 59.26,11.87 59.55,11.45 59.84,11.04 60.13,10.69 60.42,10.44 60.71,10.42 61.00,10.25 61.29,10.52 61.59,10.65 61.88,10.97 62.17,11.02 62.46,11.07 62.75,11.46 63.04,10.91 63.33,10.91 63.62,10.70 63.91,10.70 64.20,10.71 64.49,10.68 64.78,10.62 65.08,10.62 65.37,10.61 65.66,10.64 65.95,11.32 66.24,11.55 66.53,11.34 66.82,10.83 67.11,10.32 67.40,10.34 67.69,10.22 67.98,10.05 68.27,9.54 68.57,9.43 68.86,9.40 69.15,9.32 69.44,9.24 69.73,9.05 70.02,8.67 70.31,8.27 70.60,8.12 70.89,8.03 71.18,8.09 71.47,8.38 71.76,8.36 72.06,8.36 72.35,8.41 72.64,8.37 72.93,7.60 73.22,7.25 73.51,7.43 73.80,7.69 74.09,8.26 74.38,8.93 74.67,9.16 74.96,9.39 75.25,9.64 75.55,9.88 75.84,10.08 76.13,10.25 76.42,10.40 76.71,10.55 77.00,10.59 77.29,10.79 77.58,10.83 77.87,11.04 78.16,10.91 78.45,10.93 78.75,10.94 79.04,11.04 79.33,11.01 79.62,11.17 79.91,11.19 80.20,11.36 80.49,11.52 80.78,11.85 81.07,11.86 81.36,11.45 81.65,11.21 81.94,11.14 82.24,11.40 82.53,11.40 82.82,11.40 83.11,11.32 83.40,11.00 83.69,10.81 83.98,10.61 84.27,10.33 84.56,10.15 84.85,9.98 85.14,9.78 85.43,9.56 85.73,9.36 86.02,9.10 86.31,8.78 86.60,8.61 86.89,8.64 87.18,8.75 87.47,8.21 87.76,7.57 88.05,7.08 88.34,7.28 88.63,7.38 88.92,7.42 89.22,7.29 89.51,7.03 89.80,6.74 90.09,6.45 90.38,5.84 90.67,5.70 90.96,6.03 91.25,5.88 91.54,5.95 91.83,6.15 92.12,6.48 92.41,6.71 92.71,6.82 93.00,6.11 93.29,5.96 93.58,5.67 93.87,5.68 94.16,5.81 94.45,5.90 94.74,6.08 95.03,6.16 95.32,6.41 95.61,6.57 95.90,6.82 96.20,7.26 96.49,8.08 96.78,7.75 97.07,7.60 97.36,7.42 97.65,7.29 97.94,6.91 98.23,6.73 98.52,6.66 98.81,6.73 99.10,6.82 99.39,7.00 99.69,7.59 99.98,7.91 100.27,7.89 100.56,7.78 100.85,6.77 101.14,6.23 101.43,55.31 101.72,55.46 102.01,55.78 102.30,55.39 102.59,54.97 102.88,54.58 103.18,54.23 103.47,54.14 103.76,53.80 104.05,53.86 104.34,53.63 104.63,53.34 104.92,52.79 105.21,52.41 105.50,52.68 105.79,51.98 106.08,51.57 106.37,51.15 106.67,50.36 106.96,49.92 107.25,50.23 107.54,49.77 107.83,49.15 108.12,48.90 108.41,49.12 108.70,48.80 108.99,48.32 109.28,47.96 109.57,48.04 109.86,47.60 110.16,47.64 110.45,47.57 110.74,47.43 111.03,46.67 111.32,46.56 111.61,46.49 111.90,46.47 112.19,46.47 112.48,46.61 112.77,46.71 113.06,46.25 113.35,46.49 113.65,46.32 113.94,45.98 114.23,45.78 114.52,44.93 114.81,44.81 115.10,44.66 115.39,43.73 115.68,43.79 115.97,44.00 116.26,44.81 116.55,44.24 116.84,43.67 117.14,42.87 117.43,42.87 117.72,42.69 118.01,42.27 118.30,42.30 118.59,42.13 118.88,42.06 119.17,42.26 119.46,42.60 119.75,42.60 120.04,43.89 120.33,44.12 120.63,46.11 120.92,46.01 121.21,45.75 121.50,44.20 121.79,43.41 122.08,42.92 122.37,42.46 122.66,41.98 122.95,41.48 123.24,40.97 123.53,39.91 123.82,40.48 124.12,39.93 124.41,39.46 124.70,39.01 124.99,39.53 125.28,38.95 125.57,38.42 125.86,38.95 126.15,38.37 126.44,38.09 126.73,37.83 127.02,37.47 127.31,36.98 127.61,36.49 127.90,35.40 128.19,34.81 128.48,35.26 128.77,34.62 129.06,34.02 129.35,33.47 129.64,34.04 129.93,33.56 130.22,32.44 130.51,32.88 130.80,32.32 131.10,33.04 131.39,32.58 131.68,33.67 131.97,33.99 132.26,33.99 132.55,33.87 132.84,33.64 133.13,33.05 133.42,32.94 133.71,32.42 134.00,31.38 134.29,31.81 134.59,31.36 134.88,32.02 135.17,31.34 135.46,30.78 135.75,31.54 136.04,31.18 136.33,30.85 136.62,29.45 136.91,29.03 137.20,27.71 137.49,27.10 137.78,26.58 138.08,26.04 138.37,26.19 138.66,26.19 138.95,26.21 139.24,26.55 139.53,27.05 139.82,26.50 140.11,26.84 140.40,26.84 140.69,26.95 140.98,27.17 141.27,26.53 141.57,27.25 141.86,26.77 142.15,27.40 142.44,26.40 142.73,25.99 143.02,24.97 143.31,25.09 143.60,24.24 143.89,24.46 144.18,23.66 144.47,24.04 144.76,23.36 145.06,23.98 145.35,23.37 145.64,24.01 145.93,25.27 146.22,25.72 146.51,25.00 146.80,25.36 147.09,24.39 147.38,22.34 147.67,22.16 147.96,22.16 148.25,21.64 148.55,20.81 148.84,19.99 149.13,19.53 149.42,19.53 149.71,18.65 150.00,18.73 150.29,18.75 150.58,18.51 150.87,18.12 151.16,17.82 151.45,17.82 151.75,17.12 152.04,15.64 152.33,14.52 152.62,15.12 152.91,15.79 153.20,14.41 153.49,13.76 153.78,12.53 154.07,12.11 154.36,11.87 154.65,11.90 154.94,12.14 155.24,12.72 155.53,12.82 155.82,12.79 156.11,12.77 156.40,11.36 156.69,11.39 156.98,11.06 157.27,10.89 157.56,10.78 157.85,10.80 158.14,10.26 158.43,10.42 158.73,10.32 159.02,10.72 159.31,10.65 159.60,10.78 159.89,11.06 160.18,11.61 160.47,11.45 160.76,10.80 161.05,11.18 161.34,10.88 161.63,10.71 161.92,10.46 162.22,10.38 162.51,10.35 162.80,10.27 163.09,11.42 163.38,10.94 163.67,11.56 163.96,11.60 164.25,10.41 164.54,10.62 164.83,9.85 165.12,10.35 165.41,9.80 165.71,9.43 166.00,9.12 166.29,10.04 166.58,9.80 166.87,9.57 167.16,9.18 167.45,8.93 167.74,8.64 168.03,8.45 168.32,8.34 168.61,8.31 168.90,8.34 169.20,8.35 169.49,8.75 169.78,8.45 170.07,8.06 170.36,7.47 170.65,7.03 170.94,7.71 171.23,7.13 171.52,7.79 171.81,8.39 172.10,9.07 172.39,8.80 172.69,9.20 172.98,9.67 173.27,9.67 173.56,9.96 173.85,10.21 174.14,10.50 174.43,10.50 174.72,10.78 175.01,11.02 175.30,10.58 175.59,10.75 175.88,10.30 176.18,10.97 176.47,11.28 176.76,10.80 177.05,11.12 177.34,10.77 177.63,11.19 177.92,11.02 178.21,11.84 178.50,11.75 178.79,11.17 179.08,11.48 179.37,11.06 179.67,10.75 179.96,11.33 180.25,11.22 180.54,10.89 180.83,10.81 181.12,10.25 181.41,10.78 181.70,10.72 181.99,10.14 182.28,9.95 182.57,9.53 182.86,9.53 183.16,9.02 183.45,8.66 183.74,8.50 184.03,8.50 184.32,8.54 184.61,8.58 184.90,7.76 185.19,7.09 185.48,7.05 185.77,7.05 186.06,7.39 186.35,7.24 186.65,7.26 186.94,6.80 187.23,6.44 187.52,5.87 187.81,6.03 188.10,5.74 188.39,5.79 188.68,5.72 188.97,5.99 189.26,6.36 189.55,6.16 189.84,6.57 190.14,6.01 190.43,5.84 190.72,5.49 191.01,5.65 191.30,5.29 191.59,5.98 191.88,5.67 192.17,6.07 192.46,5.76 192.75,6.27 193.04,6.82 193.33,6.77 193.63,7.50 193.92,7.63 194.21,7.61 194.50,7.47 194.79,6.79 195.08,6.94 195.37,6.94 195.66,7.27 195.95,6.85 196.24,6.52 196.53,7.14 196.82,7.01 197.12,7.07 197.41,7.89 197.70,7.65 197.99,7.12 198.28,6.29 198.57,6.27 198.86,55.15 199.15,55.15 199.44,55.52 199.73,54.64 200.02,54.64 200.31,54.64 200.61,54.38 200.90,54.38 201.19,53.06 201.48,53.06 201.77,53.59 202.06,53.59 202.35,51.86 202.64,51.86 202.93,52.63 203.22,52.63 203.51,50.46 203.80,50.46 204.10,50.46 204.39,49.24 204.68,49.24 204.97,49.24 205.26,49.24 205.55,48.36 205.84,48.36 206.13,48.36 206.42,48.36 206.71,47.05 207.00,47.05 207.29,47.05 207.59,46.81 207.88,46.81 208.17,46.81 208.46,46.53 208.75,46.53 209.04,46.53 209.33,46.67 209.62,46.67 209.91,46.67 210.20,46.67 210.49,45.03 210.78,45.03 211.08,45.03 211.37,44.25 211.66,44.25 211.95,44.25 212.24,43.84 212.53,43.84 212.82,43.84 213.11,43.83 213.40,43.83 213.69,43.83 213.98,42.21 214.27,42.21 214.57,42.21 214.86,42.21 215.15,42.08 215.44,42.08 215.73,42.08 216.02,42.32 216.31,42.32 216.60,42.32 216.89,45.33 217.18,45.33 217.47,45.59 217.76,45.59 218.06,45.59 218.35,45.13 218.64,45.13 218.93,45.13 219.22,43.97 219.51,43.97 219.80,42.61 220.09,42.61 220.38,42.61 220.67,41.10 220.96,41.10 221.25,39.57 221.55,39.57 221.84,39.57 222.13,38.10 222.42,41.03 222.71,41.03 223.00,39.95 223.29,39.95 223.58,39.17 223.87,39.17 224.16,39.17 224.45,37.82 224.75,37.82 225.04,37.82 225.33,35.97 225.62,35.97 225.91,34.14 226.20,34.14 226.49,34.14 226.78,32.55 227.07,35.61 227.36,35.61 227.65,33.81 227.94,33.81 228.24,32.50 228.53,32.50 228.82,32.50 229.11,35.08 229.40,33.16 229.69,33.16 229.98,33.16 230.27,35.29 230.56,33.59 230.85,33.59 231.14,33.59 231.43,32.05 231.73,32.05 232.02,30.47 232.31,33.93 232.60,33.93 232.89,32.33 233.18,32.33 233.47,32.33 233.76,30.67 234.05,30.67 234.34,30.67 234.63,26.64 234.92,26.64 235.22,26.98 235.51,26.98 235.80,26.98 236.09,26.98 236.38,25.32 236.67,28.21 236.96,28.21 237.25,26.21 237.54,26.21 237.83,26.21 238.12,29.35 238.41,27.33 238.71,27.33 239.00,27.33 239.29,25.29 239.58,28.17 239.87,28.17 240.16,25.19 240.45,25.19 240.74,25.19 241.03,22.57 241.32,26.15 241.61,26.15 241.90,24.06 242.20,24.06 242.49,24.06 242.78,22.17 243.07,25.68 243.36,25.68 243.65,25.68 243.94,23.29 244.23,25.14 244.52,25.14 244.81,22.36 245.10,22.36 245.39,22.36 245.69,19.48 245.98,20.41 246.27,20.41 246.56,17.65 246.85,17.65 247.14,17.90 247.43,17.90 247.72,17.90 248.01,16.62 248.30,16.62 248.59,16.62 248.88,16.62 249.18,14.29 249.47,14.29 249.76,14.29 250.05,14.29 250.34,15.40 250.63,11.09 250.92,11.09 251.21,10.48 251.50,10.48 251.79,9.59 252.08,9.59 252.37,9.59 252.67,9.75 252.96,9.75 253.25,10.14 253.54,10.14 253.83,10.14 254.12,10.20 254.41,10.20 254.70,10.06 254.99,10.06 255.28,10.06 255.57,10.38 255.86,10.38 256.16,9.38 256.45,10.96 256.74,10.96 257.03,10.96 257.32,12.56 257.61,12.56 257.90,10.56 258.19,10.56 258.48,13.93 258.77,13.50 259.06,13.50 259.35,13.57 259.65,13.57 259.94,13.57 260.23,12.47 260.52,12.47 260.81,12.47 261.10,9.48 261.39,13.00 261.68,13.00 261.97,10.53 262.26,10.53 262.55,10.53 262.84,9.24 263.14,9.24 263.43,9.24 263.72,11.81 264.01,11.81 264.30,11.81 264.59,10.85 264.88,10.85 265.17,10.15 265.46,10.15 265.75,10.15 266.04,9.80 266.33,9.80 266.63,8.68 266.92,8.68 267.21,8.68 267.50,7.04 267.79,7.04 268.08,8.29 268.37,8.29 268.66,6.37 268.95,6.37 269.24,6.48 269.53,8.69 269.82,8.69 270.12,7.76 270.41,7.76 270.70,7.76 270.99,9.89 271.28,8.72 271.57,8.72 271.86,8.72 272.15,10.75 272.44,9.49 272.73,9.49 273.02,9.49 273.31,8.19 273.61,10.16 273.90,10.16 274.19,10.16 274.48,9.13 274.77,9.13 275.06,11.28 275.35,10.50 275.64,10.50 275.93,10.50 276.22,10.50 276.51,9.42 276.80,9.42 277.10,9.42 277.39,10.67 277.68,10.67 277.97,10.67 278.26,9.10 278.55,9.10 278.84,9.10 279.13,10.71 279.42,8.80 279.71,8.80 280.00,8.80 280.29,8.80 280.59,7.46 280.88,7.46 281.17,7.46 281.46,7.46 281.75,7.25 282.04,7.25 282.33,7.25 282.62,5.30 282.91,6.85 283.20,6.85 283.49,6.85 283.78,5.95 284.08,5.95 284.37,5.95 284.66,5.57 284.95,5.57 285.24,5.57 285.53,5.57 285.82,5.54 286.11,5.54 286.40,5.54 286.69,6.36 286.98,6.36 287.27,6.36 287.57,4.00 287.86,4.00 288.15,4.00 288.44,5.00 288.73,5.00 289.02,5.00 289.31,5.00 289.60,4.26 289.89,4.26 290.18,6.34 290.47,6.16 290.76,6.16 291.06,6.16 291.35,6.16 291.64,6.28 291.93,6.28 292.22,6.28 292.51,4.81 292.80,4.81 293.09,6.89 293.38,6.89 293.67,6.27 293.96,6.27 294.25,6.27 294.55,5.88 294.84,5.88 295.13,5.88 295.42,4.41 295.71,4.41 296.00,6.41" />
</svg>