<svg width="300" height="60" xmlns="http://www.w3.org/2000/svg">
  <polyline fill="rgba(255,200,0,0.3)" stroke="#ffbb00" stroke-width="2" points="4.00,40.74 4.27,39.52 4.53,40.71 4.80,41.87 5.07,42.29 5.34,44.02 5.60,44.26 5.87,45.65 6.14,46.85 6.40,48.56 6.67,49.75 6.94,51.64 7.21,52.40 7.47,53.69 7.74,54.32 8.01,55.12 8.27,29.24 8.54,27.59 8.81,25.80 9.08,25.01 9.34,25.24 9.61,24.04 9.88,22.05 10.14,21.42 10.41,22.55 10.68,22.91 10.95,23.45 11.21,23.37 11.48,24.06 11.75,23.38 12.01,22.50 12.28,19.79 12.55,19.29 12.82,18.98 13.08,18.66 13.35,19.76 13.62,20.50 13.88,20.63 14.15,20.53 14.42,19.90 14.69,20.38 14.95,20.53 15.22,20.50 15.49,19.17 15.75,18.94 16.02,19.16 16.29,20.86 16.56,18.98 16.82,17.69 17.09,17.92 17.36,17.66 17.62,18.68 17.89,16.75 18.16,16.17 18.43,13.95 18.69,13.16 18.96,15.08 19.23,15.47 19.49,16.49 19.76,16.71 20.03,16.85 20.30,17.86 20.56,18.37 20.83,19.36 21.10,20.59 21.37,21.80 21.63,22.55 21.90,21.45 22.17,21.09 22.43,23.69 22.70,26.94 22.97,30.49 23.24,32.44 23.50,32.08 23.77,30.87 24.04,30.85 24.30,32.29 24.57,31.27 24.84,28.80 25.11,27.17 25.37,26.81 25.64,25.96 25.91,26.50 26.17,26.57 26.44,27.67 26.71,28.73 26.98,30.28 27.24,30.62 27.51,32.43 27.78,34.06 28.04,36.59 28.31,32.94 28.58,32.71 28.85,33.32 29.11,33.71 29.38,35.05 29.65,36.59 29.91,38.08 30.18,39.04 30.45,39.72 30.72,40.59 30.98,42.15 31.25,42.31 31.52,41.08 31.78,39.68 32.05,40.40 32.32,39.92 32.59,38.25 32.85,36.66 33.12,35.33 33.39,35.02 33.65,34.33 33.92,33.97 34.19,33.08 34.46,32.38 34.72,31.61 34.99,31.58 35.26,32.58 35.52,34.63 35.79,33.21 36.06,33.05 36.33,33.93 36.59,35.64 36.86,37.17 37.13,37.18 37.39,38.64 37.66,39.18 37.93,41.59 38.20,40.54 38.46,38.51 38.73,35.70 39.00,35.44 39.26,36.38 39.53,37.17 39.80,37.55 40.07,38.32 40.33,43.04 40.60,45.58 40.87,45.00 41.13,41.96 41.40,39.50 41.67,38.50 41.94,37.33 42.20,35.66 42.47,33.79 42.74,32.34 43.00,31.69 43.27,31.41 43.54,31.01 43.81,30.70 44.07,30.24 44.34,30.04 44.61,29.46 44.87,28.53 45.14,28.01 45.41,27.91 45.68,27.46 45.94,28.97 46.21,27.47 46.48,26.89 46.74,25.63 47.01,24.92 47.28,24.29 47.55,24.21 47.81,24.45 48.08,23.61 48.35,22.72 48.61,20.74 48.88,21.37 49.15,20.67 49.42,20.47 49.68,20.48 49.95,21.06 50.22,20.77 50.48,22.06 50.75,25.57 51.02,26.19 51.29,40.77 51.55,39.48 51.82,40.78 52.09,41.61 52.35,42.12 52.62,43.45 52.89,44.04 53.16,45.61 53.42,46.73 53.69,48.14 53.96,49.95 54.23,51.48 54.49,52.33 54.76,53.69 55.03,54.36 55.29,55.15 55.56,55.02 55.83,54.75 56.10,54.03 56.36,53.27 56.63,52.77 56.90,52.40 57.16,52.42 57.43,51.01 57.70,50.57 57.97,49.93 58.23,50.17 58.50,50.16 58.77,49.03 59.03,47.49 59.30,46.23 59.57,44.69 59.84,44.19 60.10,44.52 60.37,43.81 60.64,43.44 60.90,43.30 61.17,43.36 61.44,43.22 61.71,42.90 61.97,42.44 62.24,41.66 62.51,41.30 62.77,40.99 63.04,41.33 63.31,41.18 63.58,41.05 63.84,39.95 64.11,39.47 64.38,38.96 64.64,38.18 64.91,37.36 65.18,36.33 65.45,35.41 65.71,34.91 65.98,35.10 66.25,34.08 66.51,33.36 66.78,32.36 67.05,31.31 67.32,31.13 67.58,30.42 67.85,29.73 68.12,29.84 68.38,29.18 68.65,28.10 68.92,28.16 69.19,28.56 69.45,29.29 69.72,27.72 69.99,25.80 70.25,25.02 70.52,25.72 70.79,23.92 71.06,22.12 71.32,21.43 71.59,22.58 71.86,23.07 72.12,23.52 72.39,23.58 72.66,24.20 72.93,23.36 73.19,22.10 73.46,19.86 73.73,19.30 73.99,18.98 74.26,18.67 74.53,19.85 74.80,20.52 75.06,20.75 75.33,19.99 75.60,19.83 75.86,20.23 76.13,20.55 76.40,20.28 76.67,19.22 76.93,18.94 77.20,19.24 77.47,20.72 77.73,19.05 78.00,17.73 78.27,17.92 78.54,17.79 78.80,18.56 79.07,16.74 79.34,16.10 79.60,13.96 79.87,13.57 80.14,15.06 80.41,15.45 80.67,16.38 80.94,16.85 81.21,16.69 81.47,17.84 81.74,18.41 82.01,18.96 82.28,19.98 82.54,21.42 82.81,22.63 83.08,21.23 83.34,21.34 83.61,23.52 83.88,27.19 84.15,30.35 84.41,32.64 84.68,32.46 84.95,30.90 85.22,31.13 85.48,32.53 85.75,30.87 86.02,28.67 86.28,27.33 86.55,27.04 86.82,26.12 87.09,26.44 87.35,26.81 87.62,27.72 87.89,28.81 88.15,30.17 88.42,30.59 88.69,32.14 88.96,34.61 89.22,36.23 89.49,32.90 89.76,32.71 90.02,33.39 90.29,33.85 90.56,35.04 90.83,36.56 91.09,38.11 91.36,39.17 91.63,39.83 91.89,40.50 92.16,42.21 92.43,42.39 92.70,40.97 92.96,39.77 93.23,40.32 93.50,40.08 93.76,38.82 94.03,36.55 94.30,35.41 94.57,34.47 94.83,34.28 95.10,34.05 95.37,33.22 95.63,32.49 95.90,31.51 96.17,31.60 96.44,32.71 96.70,34.61 96.97,32.94 97.24,33.06 97.50,34.19 97.77,35.54 98.04,36.80 98.31,37.62 98.57,38.67 98.84,39.82 99.11,41.46 99.37,40.16 99.64,38.50 99.91,35.80 100.18,35.47 100.44,36.39 100.71,37.19 100.98,37.54 101.24,38.08 101.51,43.16 101.78,45.61 102.05,45.14 102.31,41.95 102.58,39.79 102.85,38.57 103.11,37.23 103.38,35.64 103.65,33.50 103.92,32.38 104.18,31.65 104.45,31.38 104.72,30.82 104.98,30.69 105.25,30.24 105.52,30.09 105.79,29.22 106.05,28.48 106.32,27.95 106.59,27.88 106.85,27.63 107.12,28.95 107.39,27.50 107.66,26.69 107.92,25.59 108.19,24.91 108.46,24.25 108.72,24.20 108.99,24.20 109.26,23.60 109.53,22.76 109.79,21.27 110.06,21.39 110.33,20.63 110.59,20.50 110.86,20.55 111.13,20.88 111.40,20.74 111.66,22.37 111.93,25.40 112.20,26.13 112.46,55.11 112.73,55.05 113.00,54.68 113.27,54.07 113.53,53.29 113.80,52.87 114.07,52.49 114.33,52.34 114.60,51.11 114.87,50.58 115.14,49.78 115.40,50.21 115.67,50.15 115.94,49.04 116.20,47.58 116.47,46.42 116.74,44.39 117.01,44.28 117.27,44.53 117.54,43.76 117.81,43.48 118.08,43.25 118.34,43.40 118.61,43.21 118.88,42.91 119.14,42.47 119.41,41.67 119.68,41.30 119.95,41.00 120.21,41.37 120.48,41.14 120.75,40.89 121.01,39.93 121.28,39.49 121.55,38.93 121.82,38.19 122.08,37.35 122.35,36.31 122.62,35.52 122.88,34.95 123.15,35.03 123.42,34.05 123.69,33.44 123.95,32.42 124.22,31.19 124.49,30.83 124.75,30.39 125.02,29.81 125.29,29.77 125.56,29.29 125.82,28.09 126.09,28.20 126.36,28.60 126.62,29.23 126.89,27.59 127.16,25.79 127.43,24.99 127.69,40.23 127.96,39.32 128.23,39.52 128.49,39.87 128.76,41.85 129.03,42.96 129.30,43.72 129.56,44.01 129.83,45.94 130.10,48.81 130.36,49.57 130.63,51.24 130.90,52.43 131.17,53.59 131.43,54.05 131.70,54.76 131.97,54.76 132.23,54.28 132.50,53.58 132.77,52.87 133.04,52.45 133.30,52.03 133.57,52.29 133.84,51.15 134.10,50.03 134.37,49.32 134.64,49.32 134.91,50.22 135.17,48.30 135.44,47.50 135.71,44.94 135.97,44.31 136.24,43.01 136.51,44.04 136.78,43.76 137.04,42.79 137.31,42.74 137.58,43.11 137.84,43.19 138.11,42.85 138.38,42.15 138.65,41.50 138.91,41.16 139.18,40.86 139.45,40.98 139.71,40.89 139.98,40.61 140.25,39.70 140.52,39.32 140.78,38.61 141.05,37.79 141.32,37.48 141.58,36.12 141.85,35.33 142.12,34.71 142.39,34.63 142.65,33.86 142.92,33.11 143.19,32.14 143.45,31.12 143.72,30.74 143.99,30.80 144.26,29.47 144.52,29.34 144.79,29.02 145.06,28.31 145.32,28.03 145.59,28.61 145.86,29.16 146.13,27.49 146.39,25.54 146.66,24.71 146.93,25.27 147.19,24.99 147.46,22.07 147.73,21.42 148.00,22.24 148.26,22.41 148.53,23.26 148.80,23.83 149.06,24.42 149.33,24.11 149.60,22.25 149.87,19.75 150.13,19.12 150.40,18.86 150.67,18.52 150.94,19.85 151.20,20.29 151.47,21.14 151.74,21.05 152.00,20.01 152.27,20.69 152.54,20.81 152.81,20.24 153.07,19.00 153.34,18.83 153.61,19.13 153.87,20.81 154.14,19.81 154.41,17.54 154.68,17.83 154.94,17.34 155.21,17.71 155.48,16.66 155.74,16.21 156.01,13.46 156.28,12.87 156.55,15.16 156.81,15.62 157.08,15.56 157.35,16.52 157.61,16.75 157.88,17.77 158.15,17.59 158.42,19.30 158.68,20.75 158.95,21.36 159.22,23.51 159.48,20.96 159.75,21.73 160.02,24.64 160.29,26.73 160.55,31.24 160.82,33.57 161.09,32.12 161.35,30.38 161.62,31.20 161.89,31.59 162.16,30.54 162.42,28.95 162.69,26.60 162.96,26.26 163.22,25.53 163.49,26.21 163.76,25.82 164.03,27.27 164.29,29.04 164.56,30.20 164.83,31.30 165.09,31.64 165.36,33.39 165.63,35.61 165.90,32.66 166.16,32.21 166.43,33.18 166.70,32.47 166.96,34.90 167.23,36.29 167.50,38.16 167.77,39.32 168.03,40.13 168.30,40.50 168.57,42.54 168.83,42.24 169.10,41.16 169.37,39.63 169.64,40.28 169.90,39.54 170.17,38.08 170.44,36.81 170.70,34.71 170.97,34.46 171.24,34.08 171.51,34.03 171.77,33.02 172.04,32.83 172.31,31.24 172.57,31.72 172.84,32.40 173.11,34.13 173.38,33.53 173.64,33.14 173.91,39.25 174.18,39.88 174.44,41.07 174.71,41.09 174.98,41.12 175.25,42.00 175.51,43.62 175.78,45.88 176.05,49.25 176.31,50.16 176.58,46.62 176.85,51.77 177.12,53.42 177.38,51.66 177.65,52.71 177.92,55.29 178.18,55.46 178.45,54.75 178.72,53.98 178.99,53.07 179.25,53.35 179.52,52.95 179.79,52.05 180.05,50.89 180.32,49.84 180.59,50.46 180.86,49.57 181.12,51.44 181.39,49.60 181.66,48.04 181.92,45.46 182.19,44.10 182.46,44.38 182.73,44.38 182.99,44.04 183.26,42.65 183.53,42.96 183.80,43.47 184.06,44.40 184.33,43.21 184.60,42.22 184.86,41.60 185.13,41.09 185.40,40.86 185.67,42.02 185.93,41.57 186.20,40.95 186.47,40.72 186.73,37.77 187.00,37.21 187.27,36.64 187.54,37.89 187.80,36.47 188.07,35.19 188.34,35.19 188.60,35.47 188.87,35.11 189.14,33.09 189.41,30.51 189.67,30.40 189.94,30.57 190.21,30.65 190.47,28.95 190.74,29.91 191.01,28.24 191.28,28.49 191.54,27.28 191.81,28.24 192.08,30.14 192.34,28.61 192.61,25.73 192.88,24.39 193.15,26.12 193.41,22.89 193.68,21.39 193.95,21.42 194.21,22.62 194.48,24.15 194.75,22.64 195.02,24.46 195.28,24.46 195.55,23.21 195.82,22.56 196.08,18.99 196.35,18.62 196.62,18.26 196.89,19.31 197.15,21.66 197.42,20.36 197.69,21.26 197.95,22.03 198.22,20.40 198.49,22.67 198.76,21.59 199.02,19.69 199.29,17.71 199.56,19.04 199.82,20.56 200.09,21.27 200.36,20.59 200.63,15.37 200.89,14.38 201.16,18.21 201.43,17.10 201.69,15.43 201.96,14.28 202.23,13.77 202.50,13.65 202.76,13.65 203.03,14.02 203.30,14.36 203.56,14.82 203.83,16.32 204.10,18.41 204.37,16.63 204.63,19.18 204.90,21.84 205.17,19.66 205.43,21.81 205.70,22.12 205.97,22.12 206.24,25.67 206.50,25.36 206.77,31.79 207.04,31.96 207.30,29.87 207.57,29.27 207.84,30.52 208.11,32.48 208.37,33.38 208.64,28.00 208.91,29.13 209.17,27.41 209.44,27.01 209.71,24.66 209.98,27.77 210.24,28.11 210.51,29.75 210.78,30.74 211.04,30.68 211.31,34.03 211.58,32.33 211.85,35.75 212.11,33.94 212.38,34.00 212.65,31.53 212.91,34.11 213.18,36.29 213.45,37.56 213.72,37.68 213.98,39.21 214.25,39.57 214.52,42.04 214.78,41.81 215.05,41.77 215.32,41.52 215.59,39.96 215.85,39.96 216.12,39.16 216.39,36.45 216.66,37.58 216.92,34.58 217.19,35.17 217.46,33.56 217.72,35.63 217.99,33.98 218.26,32.45 218.53,30.84 218.79,31.97 219.06,32.71 219.33,35.06 219.59,34.89 219.86,34.89 220.13,34.30 220.40,34.81 220.66,35.86 220.93,37.10 221.20,39.48 221.46,36.91 221.73,42.69 222.00,39.63 222.27,38.44 222.53,36.20 222.80,35.24 223.07,35.78 223.33,36.85 223.60,36.74 223.87,39.17 224.14,43.40 224.40,43.40 224.67,43.43 224.94,43.60 225.20,40.25 225.47,37.67 225.74,37.36 226.01,35.52 226.27,33.35 226.54,32.13 226.81,32.52 227.07,30.63 227.34,31.84 227.61,31.84 227.88,30.77 228.14,29.49 228.41,29.49 228.68,28.78 228.94,27.04 229.21,28.88 229.48,27.01 229.75,29.39 230.01,26.90 230.28,29.02 230.55,25.94 230.81,25.71 231.08,26.31 231.35,27.13 231.62,24.24 231.88,25.26 232.15,21.41 232.42,21.75 232.68,22.55 232.95,20.45 233.22,20.17 233.49,22.95 233.75,20.60 234.02,19.92 234.29,24.48 234.55,25.27 234.82,24.62 235.09,41.01 235.36,47.64 235.62,47.64 235.89,45.03 236.16,45.03 236.42,45.03 236.69,48.07 236.96,48.07 237.23,48.07 237.49,56.00 237.76,47.19 238.03,47.19 238.29,47.19 238.56,47.19 238.83,51.42 239.10,51.42 239.36,51.42 239.63,54.48 239.90,54.48 240.16,54.48 240.43,54.82 240.70,54.82 240.97,54.82 241.23,52.92 241.50,52.92 241.77,52.92 242.03,50.57 242.30,50.57 242.57,50.57 242.84,53.65 243.10,48.21 243.37,48.21 243.64,48.21 243.90,48.21 244.17,44.79 244.44,44.79 244.71,44.79 244.97,45.61 245.24,45.61 245.51,43.65 245.77,43.65 246.04,43.65 246.31,42.09 246.58,42.09 246.84,42.09 247.11,39.94 247.38,39.94 247.65,39.51 247.91,31.41 248.18,31.41 248.45,31.29 248.71,37.41 248.98,37.41 249.25,34.52 249.52,34.52 249.78,34.52 250.05,34.52 250.32,27.18 250.58,27.64 250.85,27.64 251.12,27.64 251.39,30.27 251.65,30.27 251.92,30.27 252.19,24.83 252.45,31.26 252.72,31.26 252.99,27.16 253.26,27.16 253.52,27.16 253.79,21.72 254.06,21.72 254.32,22.04 254.59,22.04 254.86,22.04 255.13,24.39 255.39,24.39 255.66,24.39 255.93,19.27 256.19,19.27 256.46,19.27 256.73,19.27 257.00,14.87 257.26,14.87 257.53,14.87 257.80,18.50 258.06,18.50 258.33,18.50 258.60,18.50 258.87,26.52 259.13,22.33 259.40,22.33 259.67,22.33 259.93,15.24 260.20,15.24 260.47,19.92 260.74,19.92 261.00,19.92 261.27,19.75 261.54,19.75 261.80,5.58 262.07,4.00 262.34,17.06 262.61,17.06 262.87,14.09 263.14,14.09 263.41,14.09 263.67,14.60 263.94,14.60 264.21,14.60 264.48,14.60 264.74,18.76 265.01,18.76 265.28,18.76 265.54,13.86 265.81,13.86 266.08,13.86 266.35,23.66 266.61,23.66 266.88,23.66 267.15,23.66 267.41,37.60 267.68,37.60 267.95,37.60 268.22,35.93 268.48,35.93 268.75,36.98 269.02,36.98 269.28,36.98 269.55,38.40 269.82,38.40 270.09,38.40 270.35,32.72 270.62,32.72 270.89,32.72 271.15,32.72 271.42,29.49 271.69,29.49 271.96,29.49 272.22,26.29 272.49,41.25 272.76,41.25 273.02,39.84 273.29,39.84 273.56,39.84 273.83,42.27 274.09,42.27 274.36,42.27 274.63,41.11 274.89,41.11 275.16,41.11 275.43,38.93 275.70,44.79 275.96,44.79 276.23,44.79 276.50,41.71 276.76,41.71 277.03,41.71 277.30,33.45 277.57,33.45 277.83,42.17 278.10,42.17 278.37,35.46 278.63,35.46 278.90,35.46 279.17,30.64 279.44,30.64 279.70,31.38 279.97,26.52 280.24,31.38 280.51,37.44 280.77,37.44 281.04,37.44 281.31,37.44 281.57,36.65 281.84,36.65 282.11,36.65 282.38,43.15 282.64,43.15 282.91,43.15 283.18,43.15 283.44,36.66 283.71,36.66 283.98,35.72 284.25,35.72 284.51,35.72 284.78,34.25 285.05,44.84 285.31,44.84 285.58,44.84 285.85,45.72 286.12,45.72 286.38,45.72 286.65,35.55 286.92,35.55 287.18,35.55 287.45,33.20 287.72,33.20 287.99,33.20 288.25,32.46 288.52,32.46 288.79,32.46 289.05,24.56 289.32,24.56 289.59,24.56 289.86,21.38 290.12,21.38 290.39,21.38 290.66,23.99 290.92,30.99 291.19,23.99 291.46,29.66 291.73,29.66 291.99,34.08 292.26,34.08 292.53,34.08 292.79,25.47 293.06,25.47 293.33,25.47 293.60,28.25 293.86,28.25 294.13,28.25 294.40,23.43 294.66,23.43 294.93,23.43 295.20,24.31 295.47,24.31 295.73,24.31 296.00,24.76" />
</svg>