<svg width="300" height="60" xmlns="http://www.w3.org/2000/svg">
  <polyline fill="rgba(255,200,0,0.3)" stroke="#ffbb00" stroke-width="2" points="4.00,45.73 4.40,42.68 4.79,43.50 5.19,43.42 5.58,43.10 5.98,43.03 6.37,42.87 6.77,42.72 7.16,42.58 7.56,41.14 7.95,40.25 8.35,40.00 8.74,41.54 9.14,42.70 9.53,44.46 9.93,45.56 10.32,45.72 10.72,46.55 11.11,45.14 11.51,43.92 11.90,40.53 12.30,37.72 12.69,36.69 13.09,35.08 13.48,31.34 13.88,30.74 14.27,30.85 14.67,34.09 15.06,36.37 15.46,37.05 15.85,37.16 16.25,36.61 16.64,34.87 17.04,31.50 17.43,31.93 17.83,31.06 18.22,30.01 18.62,28.75 19.01,25.63 19.41,26.65 19.81,27.94 20.20,27.94 20.60,26.96 20.99,27.14 21.39,28.03 21.78,27.49 22.18,30.22 22.57,29.35 22.97,31.74 23.36,33.66 23.76,33.87 24.15,32.93 24.55,31.32 24.94,29.75 25.34,30.51 25.73,29.36 26.13,31.43 26.52,33.77 26.92,31.15 27.31,30.93 27.71,31.45 28.10,32.44 28.50,33.10 28.89,32.47 29.29,32.02 29.68,31.86 30.08,33.53 30.47,36.60 30.87,35.26 31.26,33.32 31.66,33.62 32.05,33.60 32.45,39.27 32.84,39.72 33.24,35.78 33.63,35.92 34.03,35.88 34.42,34.79 34.82,35.33 35.22,37.08 35.61,35.71 36.01,35.26 36.40,35.16 36.80,35.67 37.19,36.69 37.59,37.92 37.98,39.36 38.38,39.86 38.77,40.64 39.17,42.02 39.56,43.64 39.96,45.18 40.35,46.99 40.75,48.48 41.14,47.58 41.54,47.48 41.93,49.32 42.33,49.85 42.72,50.35 43.12,51.16 43.51,50.76 43.91,49.69 44.30,49.97 44.70,49.56 45.09,43.02 45.49,39.29 45.88,36.62 46.28,34.71 46.67,32.29 47.07,29.92 47.46,28.04 47.86,25.65 48.25,23.09 48.65,19.36 49.04,17.64 49.44,16.69 49.83,17.02 50.23,22.00 50.63,28.26 51.02,26.42 51.42,24.25 51.81,23.31 52.21,20.67 52.60,22.31 53.00,21.66 53.39,20.41 53.79,20.84 54.18,19.62 54.58,15.29 54.97,13.91 55.37,13.59 55.76,15.10 56.16,14.55 56.55,12.39 56.95,9.47 57.34,7.88 57.74,5.69 58.13,5.50 58.53,6.28 58.92,8.32 59.32,13.93 59.71,17.60 60.11,25.69 60.50,28.32 60.90,29.90 61.29,31.86 61.69,34.82 62.08,35.26 62.48,35.62 62.87,29.52 63.27,31.80 63.66,37.47 64.06,35.28 64.45,33.61 64.85,33.50 65.24,32.75 65.64,33.25 66.04,34.17 66.43,31.62 66.83,30.12 67.22,29.57 67.62,27.32 68.01,26.49 68.41,26.41 68.80,26.81 69.20,27.37 69.59,28.41 69.99,29.67 70.38,30.44 70.78,32.04 71.17,34.09 71.57,36.01 71.96,36.90 72.36,38.89 72.75,42.09 73.15,44.76 73.54,45.12 73.94,44.15 74.33,43.51 74.73,45.24 75.12,48.56 75.52,27.43 75.91,28.48 76.31,29.91 76.70,30.58 77.10,32.31 77.49,34.28 77.89,36.08 78.28,37.09 78.68,39.50 79.07,42.43 79.47,44.96 79.86,45.30 80.26,44.33 80.65,43.66 81.05,45.26 81.45,48.69 81.84,45.69 82.24,42.28 82.63,43.49 83.03,43.48 83.42,43.52 83.82,43.10 84.21,42.95 84.61,42.55 85.00,42.78 85.40,40.70 85.79,40.29 86.19,40.71 86.58,40.56 86.98,42.59 87.37,44.60 87.77,45.16 88.16,45.99 88.56,46.73 88.95,45.17 89.35,43.04 89.74,40.43 90.14,37.58 90.53,36.33 90.93,34.01 91.32,31.17 91.72,30.49 92.11,31.39 92.51,34.80 92.90,36.55 93.30,37.16 93.69,37.30 94.09,36.70 94.48,34.66 94.88,30.48 95.27,32.28 95.67,31.14 96.06,30.14 96.46,29.05 96.86,26.09 97.25,26.69 97.65,27.54 98.04,27.73 98.44,27.09 98.83,27.37 99.23,28.56 99.62,27.48 100.02,30.65 100.41,29.29 100.81,31.37 101.20,33.93 101.60,34.05 101.99,33.22 102.39,30.81 102.78,30.57 103.18,30.35 103.57,30.29 103.97,31.49 104.36,32.39 104.76,30.88 105.15,30.62 105.55,30.76 105.94,31.47 106.34,33.69 106.73,32.56 107.13,32.01 107.52,32.25 107.92,33.36 108.31,36.24 108.71,35.06 109.10,33.36 109.50,33.69 109.89,33.31 110.29,39.08 110.68,39.18 111.08,35.90 111.47,36.03 111.87,34.99 112.27,36.13 112.66,35.05 113.06,36.75 113.45,35.42 113.85,35.28 114.24,35.29 114.64,35.84 115.03,36.70 115.43,38.04 115.82,39.41 116.22,39.72 116.61,40.76 117.01,41.61 117.40,43.53 117.80,44.62 118.19,46.66 118.59,48.74 118.98,48.23 119.38,47.90 119.77,48.42 120.17,49.75 120.56,50.74 120.96,51.64 121.35,50.32 121.75,49.62 122.14,49.48 122.54,48.25 122.93,42.85 123.33,39.16 123.72,36.10 124.12,34.35 124.51,32.28 124.91,29.63 125.30,27.70 125.70,25.38 126.09,23.30 126.49,18.83 126.88,17.45 127.28,16.46 127.68,16.79 128.07,22.10 128.47,27.87 128.86,25.23 129.26,24.04 129.65,23.43 130.05,20.86 130.44,21.58 130.84,21.80 131.23,20.05 131.63,19.86 132.02,19.75 132.42,14.93 132.81,13.08 133.21,13.06 133.60,14.96 134.00,13.88 134.39,12.16 134.79,7.85 135.18,7.71 135.58,4.00 135.97,5.44 136.37,6.16 136.76,7.15 137.16,14.06 137.55,20.11 137.95,26.31 138.34,27.71 138.74,29.81 139.13,32.37 139.53,34.16 139.92,35.85 140.32,35.82 140.71,30.90 141.11,31.66 141.50,36.05 141.90,34.78 142.29,32.35 142.69,33.39 143.09,32.68 143.48,33.02 143.88,34.91 144.27,31.10 144.67,30.82 145.06,29.40 145.46,27.54 145.85,26.50 146.25,26.48 146.64,26.77 147.04,27.24 147.43,28.44 147.83,29.77 148.22,30.45 148.62,33.95 149.01,33.39 149.41,35.69 149.80,37.38 150.20,37.99 150.59,41.78 150.99,44.95 151.38,44.80 151.78,44.41 152.17,43.56 152.57,45.12 152.96,48.33 153.36,46.72 153.75,43.60 154.15,43.22 154.54,44.31 154.94,44.93 155.33,44.74 155.73,42.79 156.12,43.17 156.52,43.17 156.91,41.75 157.31,42.42 157.71,41.33 158.10,40.95 158.50,41.14 158.89,44.38 159.29,45.99 159.68,47.84 160.08,47.08 160.47,46.84 160.87,43.29 161.26,40.55 161.66,36.86 162.05,35.82 162.45,35.15 162.84,32.41 163.24,33.12 163.63,31.89 164.03,35.31 164.42,36.01 164.82,38.99 165.21,40.32 165.61,36.53 166.00,33.69 166.40,30.61 166.79,32.99 167.19,32.94 167.58,31.33 167.98,28.68 168.37,25.56 168.77,27.64 169.16,28.21 169.56,28.04 169.95,31.17 170.35,30.69 170.74,29.41 171.14,31.17 171.53,31.26 171.93,32.11 172.32,32.02 172.72,35.37 173.12,36.41 173.51,32.20 173.91,31.35 174.30,35.96 174.70,31.94 175.09,32.84 175.49,32.04 175.88,34.50 176.28,32.11 176.67,30.40 177.07,32.72 177.46,33.10 177.86,33.34 178.25,31.06 178.65,30.21 179.04,30.98 179.44,32.97 179.83,37.70 180.23,35.85 180.62,33.39 181.02,34.15 181.41,37.04 181.81,38.27 182.20,38.60 182.60,35.15 182.99,36.24 183.39,35.05 183.78,36.66 184.18,34.77 184.57,36.52 184.97,36.57 185.36,35.34 185.76,34.72 186.15,34.01 186.55,35.06 186.94,38.75 187.34,43.62 187.73,41.02 188.13,46.32 188.53,46.84 188.92,46.51 189.32,44.54 189.71,44.35 190.11,48.09 190.50,52.16 190.90,52.63 191.29,47.00 191.69,49.42 192.08,52.16 192.48,52.63 192.87,52.63 193.27,51.78 193.66,49.51 194.06,47.24 194.45,40.14 194.85,36.59 195.24,35.55 195.64,33.27 196.03,31.95 196.43,30.15 196.82,28.49 197.22,24.32 197.61,22.85 198.01,21.10 198.40,19.40 198.80,18.12 199.19,17.88 199.59,25.17 199.98,28.41 200.38,25.95 200.77,24.58 201.17,25.48 201.56,23.02 201.96,22.40 202.35,23.96 202.75,21.83 203.14,24.51 203.54,21.76 203.94,20.39 204.33,16.70 204.73,19.54 205.12,16.75 205.52,16.79 205.91,14.05 206.31,8.99 206.70,7.29 207.10,7.48 207.49,5.73 207.89,12.16 208.28,14.86 208.68,17.98 209.07,21.11 209.47,24.28 209.86,30.36 210.26,30.74 210.65,35.05 211.05,42.01 211.44,37.23 211.84,34.81 212.23,34.15 212.63,33.39 213.02,36.09 213.42,34.35 213.81,32.41 214.21,33.92 214.60,33.92 215.00,33.54 215.39,36.87 215.79,33.89 216.18,31.43 216.58,28.83 216.97,27.74 217.37,28.07 217.76,27.22 218.16,26.42 218.55,27.88 218.95,28.69 219.35,30.01 219.74,33.47 220.14,37.49 220.53,36.50 220.93,40.00 221.32,38.30 221.72,42.13 222.11,41.66 222.51,45.00 222.90,47.16 223.30,47.02 223.69,44.13 224.09,46.16 224.48,51.75 224.88,44.77 225.27,44.77 225.67,44.77 226.06,44.77 226.46,44.91 226.85,44.91 227.25,44.91 227.64,39.90 228.04,39.90 228.43,39.90 228.83,46.15 229.22,43.68 229.62,43.68 230.01,43.68 230.41,44.58 230.80,44.58 231.20,47.75 231.59,47.75 231.99,47.75 232.38,39.33 232.78,39.33 233.17,39.33 233.57,37.08 233.96,37.08 234.36,31.12 234.76,31.12 235.15,35.57 235.55,35.57 235.94,35.57 236.34,40.49 236.73,40.49 237.13,34.29 237.52,34.29 237.92,34.29 238.31,31.78 238.71,31.78 239.10,31.78 239.50,26.81 239.89,26.81 240.29,25.06 240.68,25.06 241.08,25.06 241.47,33.77 241.87,33.77 242.26,33.77 242.66,30.77 243.05,30.77 243.45,30.77 243.84,28.40 244.24,36.87 244.63,36.87 245.03,28.31 245.42,28.31 245.82,39.71 246.21,39.71 246.61,32.09 247.00,32.09 247.40,32.09 247.79,28.45 248.19,28.45 248.58,34.70 248.98,34.70 249.37,34.70 249.77,31.24 250.17,31.24 250.56,31.24 250.96,33.37 251.35,33.37 251.75,29.52 252.14,29.52 252.54,40.41 252.93,40.41 253.33,35.35 253.72,35.35 254.12,38.99 254.51,38.99 254.91,30.94 255.30,36.91 255.70,36.91 256.09,36.91 256.49,36.91 256.88,32.98 257.28,32.98 257.67,36.34 258.07,36.34 258.46,36.34 258.86,43.25 259.25,43.25 259.65,43.25 260.04,45.19 260.44,45.19 260.83,45.19 261.23,45.48 261.62,45.48 262.02,45.62 262.41,45.62 262.81,45.62 263.20,49.98 263.60,49.98 263.99,50.88 264.39,50.88 264.78,50.88 265.18,46.29 265.58,46.29 265.97,38.90 266.37,38.90 266.76,38.90 267.16,32.85 267.55,32.85 267.95,32.85 268.34,27.64 268.74,27.64 269.13,23.62 269.53,23.62 269.92,23.62 270.32,23.84 270.71,23.84 271.11,26.35 271.50,26.35 271.90,26.35 272.29,22.66 272.69,22.66 273.08,22.66 273.48,18.45 273.87,26.63 274.27,26.63 274.66,20.72 275.06,20.72 275.45,20.72 275.85,9.36 276.24,22.75 276.64,22.75 277.03,10.78 277.43,10.78 277.82,10.78 278.22,8.27 278.61,8.27 279.01,8.27 279.40,9.80 279.80,9.80 280.19,9.80 280.59,19.45 280.99,19.45 281.38,33.18 281.78,28.87 282.17,28.87 282.57,38.19 282.96,38.19 283.36,38.19 283.75,32.56 284.15,32.56 284.54,39.24 284.94,34.60 285.33,34.60 285.73,34.60 286.12,33.60 286.52,33.60 286.91,33.60 287.31,31.85 287.70,31.85 288.10,24.90 288.49,30.24 288.89,30.24 289.28,26.41 289.68,26.41 290.07,26.41 290.47,27.45 290.86,27.45 291.26,35.08 291.65,34.89 292.05,34.89 292.44,34.89 292.84,31.48 293.23,44.97 293.63,44.97 294.02,44.97 294.42,38.77 294.81,49.75 295.21,49.75 295.60,44.50 296.00,56.00" />
</svg>