<svg width="300" height="60" xmlns="http://www.w3.org/2000/svg">
  <polyline fill="rgba(255,200,0,0.3)" stroke="#ffbb00" stroke-width="2" points="4.00,51.93 4.41,52.05 4.81,52.16 5.22,52.18 5.63,52.25 6.03,52.31 6.44,52.38 6.85,52.50 7.25,52.56 7.66,52.63 8.07,52.70 8.47,52.83 8.88,52.95 9.29,53.06 9.69,53.13 10.10,53.23 10.51,53.33 10.91,53.42 11.32,53.48 11.73,53.61 12.13,53.71 12.54,54.03 12.95,54.13 13.35,53.92 13.76,54.39 14.17,54.96 14.57,54.38 14.98,54.96 15.39,55.44 15.79,55.73 16.20,56.00 16.61,55.71 17.01,55.31 17.42,54.89 17.83,54.59 18.23,54.36 18.64,53.96 19.05,53.57 19.45,53.28 19.86,52.81 20.27,52.53 20.67,52.05 21.08,51.59 21.49,50.98 21.89,50.46 22.30,50.13 22.71,49.90 23.11,49.78 23.52,49.76 23.93,49.83 24.33,49.94 24.74,50.04 25.15,50.26 25.55,50.25 25.96,50.14 26.37,50.09 26.77,50.08 27.18,50.16 27.59,50.23 27.99,50.33 28.40,50.51 28.81,50.70 29.21,50.91 29.62,51.15 30.03,51.28 30.43,50.70 30.84,49.83 31.25,48.73 31.65,48.12 32.06,48.11 32.47,48.37 32.87,48.05 33.28,47.87 33.69,47.31 34.09,46.47 34.50,45.59 34.91,45.15 35.31,44.86 35.72,44.85 36.13,45.51 36.53,46.31 36.94,46.94 37.35,47.23 37.75,47.40 38.16,47.54 38.57,47.45 38.97,47.24 39.38,46.88 39.79,46.41 40.19,45.54 40.60,45.41 41.01,44.67 41.42,44.19 41.82,43.51 42.23,42.58 42.64,41.39 43.04,40.93 43.45,40.37 43.86,39.21 44.26,38.46 44.67,38.41 45.08,37.86 45.48,37.06 45.89,36.64 46.30,36.53 46.70,37.16 47.11,36.71 47.52,35.96 47.92,35.37 48.33,34.95 48.74,34.93 49.14,35.03 49.55,35.62 49.96,36.17 50.36,36.66 50.77,36.95 51.18,37.20 51.58,37.47 51.99,37.68 52.40,37.51 52.80,37.45 53.21,37.23 53.62,36.43 54.02,36.29 54.43,36.41 54.84,36.71 55.24,37.30 55.65,37.75 56.06,37.84 56.46,37.96 56.87,38.37 57.28,38.53 57.68,38.84 58.09,39.42 58.50,39.64 58.90,39.57 59.31,39.15 59.72,38.87 60.12,38.46 60.53,38.29 60.94,37.76 61.34,36.86 61.75,36.58 62.16,36.69 62.56,36.91 62.97,36.52 63.38,36.92 63.78,37.40 64.19,38.15 64.60,38.21 65.00,37.96 65.41,37.65 65.82,37.22 66.22,36.93 66.63,36.71 67.04,36.46 67.44,36.58 67.85,36.87 68.26,37.08 68.66,37.13 69.07,37.06 69.48,36.93 69.88,36.38 70.29,34.95 70.70,32.45 71.10,32.62 71.51,33.85 71.92,33.87 72.32,33.94 72.73,33.78 73.14,33.49 73.54,33.21 73.95,32.78 74.36,32.35 74.76,31.97 75.17,31.61 75.58,31.24 75.98,30.73 76.39,30.59 76.80,30.03 77.20,29.86 77.61,29.60 78.02,29.70 78.42,29.78 78.83,29.98 79.24,30.37 79.64,30.25 80.05,28.25 80.46,28.07 80.86,26.98 81.27,26.66 81.68,26.38 82.08,25.97 82.49,25.19 82.90,24.33 83.30,23.44 83.71,22.89 84.12,22.89 84.52,23.27 84.93,23.08 85.34,22.05 85.74,20.70 86.15,19.98 86.56,19.87 86.96,19.69 87.37,19.64 87.78,19.58 88.18,19.25 88.59,18.91 89.00,18.59 89.40,18.50 89.81,18.42 90.22,18.09 90.62,17.51 91.03,16.45 91.44,15.39 91.84,14.63 92.25,13.90 92.66,14.92 93.06,16.75 93.47,16.90 93.88,16.63 94.28,16.97 94.69,17.42 95.10,17.24 95.50,17.27 95.91,18.02 96.32,18.59 96.72,17.83 97.13,16.64 97.54,15.96 97.94,15.08 98.35,14.17 98.76,12.46 99.16,10.30 99.57,8.35 99.98,7.20 100.38,6.26 100.79,5.66 101.20,5.13 101.60,4.63 102.01,52.06 102.42,52.12 102.82,52.18 103.23,52.25 103.64,52.25 104.04,52.33 104.45,52.41 104.86,52.50 105.26,52.59 105.67,52.67 106.08,52.75 106.48,52.87 106.89,52.99 107.30,53.10 107.70,53.19 108.11,53.30 108.52,53.39 108.92,53.48 109.33,53.58 109.74,53.61 110.14,53.82 110.55,54.02 110.96,54.02 111.36,53.98 111.77,54.83 112.18,55.14 112.58,55.56 112.99,55.67 113.40,55.59 113.81,55.67 114.21,55.31 114.62,54.99 115.03,54.43 115.43,54.23 115.84,53.89 116.25,53.57 116.65,53.27 117.06,52.95 117.47,52.55 117.87,51.64 118.28,51.16 118.69,50.59 119.09,50.45 119.50,50.11 119.91,49.88 120.31,49.84 120.72,49.72 121.13,49.94 121.53,49.94 121.94,50.22 122.35,50.19 122.75,50.42 123.16,50.24 123.57,50.39 123.97,50.16 124.38,50.19 124.79,50.27 125.19,50.00 125.60,50.44 126.01,50.61 126.41,50.95 126.82,51.18 127.23,51.15 127.63,50.64 128.04,49.35 128.45,48.49 128.85,48.15 129.26,48.15 129.67,47.74 130.07,47.71 130.48,47.52 130.89,47.37 131.29,46.78 131.70,45.93 132.11,45.24 132.51,44.91 132.92,44.79 133.33,45.15 133.73,45.90 134.14,46.66 134.55,47.09 134.95,47.34 135.36,47.28 135.77,47.47 136.17,47.13 136.58,46.91 136.99,46.46 137.39,45.83 137.80,45.10 138.21,44.52 138.61,44.04 139.02,43.45 139.43,42.60 139.83,41.81 140.24,40.47 140.65,39.62 141.05,38.94 141.46,38.58 141.87,38.38 142.27,38.06 142.68,36.98 143.09,36.71 143.49,36.61 143.90,36.48 144.31,36.22 144.71,36.42 145.12,35.14 145.53,34.91 145.93,34.86 146.34,34.98 146.75,35.26 147.15,36.16 147.56,36.72 147.97,36.80 148.37,36.88 148.78,37.06 149.19,37.23 149.59,37.19 150.00,36.83 150.41,36.59 150.81,36.50 151.22,36.70 151.63,36.04 152.03,36.59 152.44,37.26 152.85,37.47 153.25,37.66 153.66,38.25 154.07,38.18 154.47,38.49 154.88,38.81 155.29,39.12 155.69,39.69 156.10,39.54 156.51,38.77 156.91,38.80 157.32,38.54 157.73,38.27 158.13,37.81 158.54,37.15 158.95,36.73 159.35,36.84 159.76,37.06 160.17,36.82 160.57,37.18 160.98,37.69 161.39,38.12 161.79,38.29 162.20,37.77 162.61,37.62 163.01,37.01 163.42,36.94 163.83,36.53 164.23,36.53 164.64,36.69 165.05,36.90 165.45,37.05 165.86,37.09 166.27,37.11 166.67,36.98 167.08,34.81 167.49,33.96 167.89,32.66 168.30,33.49 168.71,33.30 169.11,33.78 169.52,33.86 169.93,33.74 170.33,33.29 170.74,33.01 171.15,32.64 171.55,32.35 171.96,32.10 172.37,31.56 172.77,31.39 173.18,30.63 173.59,31.05 173.99,30.80 174.40,30.63 174.81,29.53 175.21,29.73 175.62,30.69 176.03,29.98 176.43,30.18 176.84,29.76 177.25,28.22 177.65,27.74 178.06,27.07 178.47,26.58 178.87,26.08 179.28,25.50 179.69,24.78 180.09,24.07 180.50,23.88 180.91,23.02 181.31,23.00 181.72,22.34 182.13,23.27 182.53,21.74 182.94,20.33 183.35,20.06 183.75,19.79 184.16,19.89 184.57,19.55 184.97,19.45 185.38,19.21 185.79,18.83 186.19,18.61 186.60,18.54 187.01,18.40 187.42,18.10 187.82,17.27 188.23,16.08 188.64,15.15 189.04,14.21 189.45,13.57 189.86,14.52 190.26,16.21 190.67,16.99 191.08,16.82 191.48,16.45 191.89,16.62 192.30,17.49 192.70,17.07 193.11,18.05 193.52,17.97 193.92,17.26 194.33,17.26 194.74,17.05 195.14,15.26 195.55,13.90 195.96,12.77 196.36,9.22 196.77,8.96 197.18,7.45 197.58,5.81 197.99,5.37 198.40,4.92 198.80,4.55 199.21,52.17 199.62,52.17 200.02,52.17 200.43,52.39 200.84,52.39 201.24,52.39 201.65,52.39 202.06,52.63 202.46,52.63 202.87,52.63 203.28,52.93 203.68,52.93 204.09,52.93 204.50,53.24 204.90,53.24 205.31,53.24 205.72,53.55 206.12,53.55 206.53,53.55 206.94,53.75 207.34,54.18 207.75,54.18 208.16,54.18 208.56,54.15 208.97,55.28 209.38,55.28 209.78,55.72 210.19,55.72 210.60,55.72 211.00,55.01 211.41,55.01 211.82,55.01 212.22,54.15 212.63,54.01 213.04,53.07 213.44,53.07 213.85,53.07 214.26,51.81 214.66,51.81 215.07,50.46 215.48,50.46 215.88,50.46 216.29,49.77 216.70,49.77 217.10,49.77 217.51,49.80 217.92,49.80 218.32,49.80 218.73,49.88 219.14,49.88 219.54,49.88 219.95,50.25 220.36,50.25 220.76,50.25 221.17,49.72 221.58,49.72 221.98,50.25 222.39,49.57 222.80,49.57 223.20,49.57 223.61,50.76 224.02,50.76 224.42,50.76 224.83,50.43 225.24,49.45 225.64,49.45 226.05,47.55 226.46,47.55 226.86,47.55 227.27,47.55 227.68,46.93 228.08,46.93 228.49,46.93 228.90,45.77 229.30,45.77 229.71,45.77 230.12,44.74 230.52,44.74 230.93,44.74 231.34,46.01 231.74,46.01 232.15,46.01 232.56,47.18 232.96,47.18 233.37,45.99 233.78,45.99 234.18,45.99 234.59,44.69 235.00,44.69 235.40,42.72 235.81,42.72 236.22,42.72 236.62,39.50 237.03,39.50 237.44,37.09 237.84,37.09 238.25,37.09 238.66,36.00 239.06,36.00 239.47,36.00 239.88,34.70 240.28,34.70 240.69,33.98 241.10,33.98 241.50,33.98 241.91,35.09 242.32,35.09 242.72,34.80 243.13,34.80 243.54,34.80 243.94,35.23 244.35,35.23 244.76,35.69 245.16,35.69 245.57,35.69 245.98,36.26 246.38,36.26 246.79,36.26 247.20,35.68 247.60,35.68 248.01,36.11 248.42,36.11 248.82,36.11 249.23,37.81 249.64,37.81 250.04,36.42 250.45,38.19 250.86,38.19 251.26,38.19 251.67,39.10 252.08,39.10 252.48,39.10 252.89,38.98 253.30,38.98 253.70,38.39 254.11,38.39 254.52,38.39 254.92,37.51 255.33,37.51 255.74,37.51 256.14,37.14 256.55,37.14 256.96,37.78 257.36,37.03 257.77,37.03 258.18,37.46 258.58,37.46 258.99,37.46 259.40,37.18 259.81,37.18 260.21,36.92 260.62,36.92 261.03,36.12 261.43,36.69 261.84,36.69 262.25,36.69 262.65,36.89 263.06,36.89 263.47,36.89 263.87,34.90 264.28,34.90 264.69,33.83 265.09,33.83 265.50,33.83 265.91,33.44 266.31,33.44 266.72,33.44 267.13,32.74 267.53,32.74 267.94,31.82 268.35,31.82 268.75,31.82 269.16,31.04 269.57,31.04 269.97,31.04 270.38,31.41 270.79,31.41 271.19,29.65 271.60,30.70 272.01,30.70 272.41,29.19 272.82,29.19 273.23,29.19 273.63,29.51 274.04,27.54 274.45,27.54 274.85,27.54 275.26,26.19 275.67,26.19 276.07,26.19 276.48,24.29 276.89,24.29 277.29,24.29 277.70,24.29 278.11,24.43 278.51,24.43 278.92,22.36 279.33,20.99 279.73,20.99 280.14,20.99 280.55,20.71 280.95,19.27 281.36,19.27 281.77,18.97 282.17,18.97 282.58,18.97 282.99,18.50 283.39,18.50 283.80,18.50 284.21,17.53 284.61,17.53 285.02,16.65 285.43,15.34 285.83,15.34 286.24,13.25 286.65,13.25 287.05,13.25 287.46,15.43 287.87,15.43 288.27,15.43 288.68,14.84 289.09,14.84 289.49,17.61 289.90,17.61 290.31,17.61 290.71,17.36 291.12,17.36 291.53,17.36 291.93,17.36 292.34,11.18 292.75,11.18 293.15,11.18 293.56,8.08 293.97,8.08 294.37,8.08 294.78,5.33 295.19,5.33 295.59,4.00 296.00,4.00" />
</svg>