<svg width="300" height="60" xmlns="http://www.w3.org/2000/svg">
  <polyline fill="rgba(255,200,0,0.3)" stroke="#ffbb00" stroke-width="2" points="4.00,54.74 4.65,54.29 5.29,53.87 5.94,53.44 6.59,52.87 7.24,52.38 7.88,51.94 8.53,51.39 9.18,50.73 9.83,50.05 10.47,49.43 11.12,48.91 11.77,48.53 12.42,48.12 13.06,47.66 13.71,47.32 14.36,46.86 15.01,46.47 15.65,46.17 16.30,45.85 16.95,45.50 17.60,45.07 18.24,44.60 18.89,44.41 19.54,43.90 20.19,43.56 20.83,43.08 21.48,42.70 22.13,42.35 22.78,41.91 23.42,41.34 24.07,40.65 24.72,39.87 25.37,39.19 26.01,38.57 26.66,37.96 27.31,37.42 27.96,36.59 28.60,35.93 29.25,35.33 29.90,34.88 30.55,34.59 31.19,34.51 31.84,34.26 32.49,33.97 33.14,33.65 33.78,33.05 34.43,32.54 35.08,32.21 35.73,31.90 36.37,31.56 37.02,31.21 37.67,30.76 38.31,30.29 38.96,29.81 39.61,29.16 40.26,28.59 40.90,28.00 41.55,27.53 42.20,26.92 42.85,26.52 43.49,26.25 44.14,25.94 44.79,25.61 45.44,25.41 46.08,25.09 46.73,24.76 47.38,24.32 48.03,23.84 48.67,23.30 49.32,22.85 49.97,22.46 50.62,21.98 51.26,21.57 51.91,21.20 52.56,20.86 53.21,20.41 53.85,19.97 54.50,19.37 55.15,18.80 55.80,18.03 56.44,17.62 57.09,17.30 57.74,16.98 58.39,16.35 59.03,15.85 59.68,15.32 60.33,14.79 60.98,14.02 61.62,13.34 62.27,12.88 62.92,12.42 63.57,11.99 64.21,11.61 64.86,11.24 65.51,10.79 66.16,10.46 66.80,10.15 67.45,9.69 68.10,9.21 68.75,8.69 69.39,8.28 70.04,7.92 70.69,7.55 71.33,7.25 71.98,6.93 72.63,6.53 73.28,6.20 73.92,5.88 74.57,5.48 75.22,5.00 75.87,4.55 76.51,4.06 77.16,54.97 77.81,54.43 78.46,53.93 79.10,53.47 79.75,52.99 80.40,52.48 81.05,52.07 81.69,51.69 82.34,51.37 82.99,50.54 83.64,49.75 84.28,49.00 84.93,49.86 85.58,48.66 86.23,48.10 86.87,47.46 87.52,46.98 88.17,47.05 88.82,47.52 89.46,46.42 90.11,45.94 90.76,45.24 91.41,44.67 92.05,44.30 92.70,44.03 93.35,43.45 94.00,43.25 94.64,42.82 95.29,42.43 95.94,41.94 96.59,41.69 97.23,40.65 97.88,40.04 98.53,39.35 99.18,38.74 99.82,37.95 100.47,37.51 101.12,36.52 101.76,36.12 102.41,35.49 103.06,35.02 103.71,34.88 104.35,34.58 105.00,34.27 105.65,33.93 106.30,33.47 106.94,33.15 107.59,32.76 108.24,32.16 108.89,31.88 109.53,31.54 110.18,31.28 110.83,30.73 111.48,30.46 112.12,29.99 112.77,29.14 113.42,28.74 114.07,28.26 114.71,27.64 115.36,27.01 116.01,26.79 116.66,26.46 117.30,26.14 117.95,26.00 118.60,25.52 119.25,25.21 119.89,24.77 120.54,24.47 121.19,23.98 121.84,23.41 122.48,23.04 123.13,22.78 123.78,22.06 124.43,21.71 125.07,21.40 125.72,21.09 126.37,20.49 127.02,20.09 127.66,19.47 128.31,19.01 128.96,18.21 129.61,17.75 130.25,17.56 130.90,16.77 131.55,16.53 132.20,15.94 132.84,15.61 133.49,14.68 134.14,13.98 134.78,13.75 135.43,12.96 136.08,12.85 136.73,11.99 137.37,11.92 138.02,11.45 138.67,11.05 139.32,10.69 139.96,10.21 140.61,9.84 141.26,9.56 141.91,8.82 142.55,8.40 143.20,8.26 143.85,7.75 144.50,7.18 145.14,6.98 145.79,6.69 146.44,6.11 147.09,5.99 147.73,5.44 148.38,5.12 149.03,4.58 149.68,4.12 150.32,55.00 150.97,56.00 151.62,54.61 152.27,54.32 152.91,53.03 153.56,53.03 154.21,51.90 154.86,50.41 155.50,51.46 156.15,49.90 156.80,49.93 157.45,49.76 158.09,47.80 158.74,48.34 159.39,47.72 160.04,47.86 160.68,47.86 161.33,45.33 161.98,46.84 162.63,46.32 163.27,45.30 163.92,45.79 164.57,44.85 165.22,45.41 165.86,44.49 166.51,45.47 167.16,43.60 167.80,43.60 168.45,43.57 169.10,42.73 169.75,41.85 170.39,40.86 171.04,40.11 171.69,39.71 172.34,39.39 172.98,37.66 173.63,37.30 174.28,36.92 174.93,36.41 175.57,35.94 176.22,35.72 176.87,35.25 177.52,36.64 178.16,34.75 178.81,34.24 179.46,32.21 180.11,34.16 180.75,35.26 181.40,33.25 182.05,32.55 182.70,31.95 183.34,31.38 183.99,30.73 184.64,32.01 185.29,30.96 185.93,29.15 186.58,29.63 187.23,28.13 187.88,27.99 188.52,26.77 189.17,27.47 189.82,27.04 190.47,26.53 191.11,26.53 191.76,25.97 192.41,25.37 193.06,25.71 193.70,25.47 194.35,23.95 195.00,23.69 195.65,22.75 196.29,24.72 196.94,23.38 197.59,22.25 198.24,21.59 198.88,21.14 199.53,20.66 200.18,21.62 200.82,20.68 201.47,19.38 202.12,19.30 202.77,18.23 203.41,17.61 204.06,16.91 204.71,17.61 205.36,15.89 206.00,16.64 206.65,14.75 207.30,15.30 207.95,15.30 208.59,14.29 209.24,14.06 209.89,12.15 210.54,12.43 211.18,12.70 211.83,12.70 212.48,13.05 213.13,11.51 213.77,10.13 214.42,10.78 215.07,9.11 215.72,9.83 216.36,8.38 217.01,8.98 217.66,7.58 218.31,7.58 218.95,7.92 219.60,6.68 220.25,6.87 220.90,6.57 221.54,4.97 222.19,5.74 222.84,4.63 223.49,54.56 224.13,54.56 224.78,54.56 225.43,50.87 226.08,50.87 226.72,50.87 227.37,50.87 228.02,50.87 228.67,47.55 229.31,47.55 229.96,47.55 230.61,40.18 231.25,40.18 231.90,47.84 232.55,39.97 233.20,39.97 233.84,39.97 234.49,42.43 235.14,42.43 235.79,42.43 236.43,39.43 237.08,39.43 237.73,39.43 238.38,46.28 239.02,43.43 239.67,43.43 240.32,46.39 240.97,46.39 241.61,46.39 242.26,40.69 242.91,40.69 243.56,40.69 244.20,37.68 244.85,37.68 245.50,37.68 246.15,37.00 246.79,37.00 247.44,37.00 248.09,35.91 248.74,35.91 249.38,35.91 250.03,34.29 250.68,34.29 251.33,34.29 251.97,35.71 252.62,35.71 253.27,35.71 253.92,40.92 254.56,40.19 255.21,40.19 255.86,37.77 256.51,37.77 257.15,37.77 257.80,34.26 258.45,34.26 259.10,33.53 259.74,33.53 260.39,27.57 261.04,27.57 261.69,27.57 262.33,27.75 262.98,27.75 263.63,27.75 264.27,27.75 264.92,25.57 265.57,25.57 266.22,25.57 266.86,22.31 267.51,22.31 268.16,27.04 268.81,23.04 269.45,23.04 270.10,23.04 270.75,23.04 271.40,20.15 272.04,20.15 272.69,20.15 273.34,17.23 273.99,17.23 274.63,17.23 275.28,19.47 275.93,19.47 276.58,19.47 277.22,16.21 277.87,16.21 278.52,16.21 279.17,16.21 279.81,14.87 280.46,14.87 281.11,14.87 281.76,17.90 282.40,17.90 283.05,10.59 283.70,10.59 284.35,17.19 284.99,17.19 285.64,11.27 286.29,11.27 286.94,11.27 287.58,6.23 288.23,6.23 288.88,13.38 289.53,8.42 290.17,8.42 290.82,8.42 291.47,8.42 292.12,4.00 292.76,4.00 293.41,9.66 294.06,5.14 294.71,5.14 295.35,5.14 296.00,7.25" />
</svg>