<svg width="300" height="60" xmlns="http://www.w3.org/2000/svg">
  <polyline fill="rgba(255,200,0,0.3)" stroke="#ffbb00" stroke-width="2" points="4.00,5.40 4.35,5.81 4.70,6.33 5.05,7.21 5.40,7.96 5.75,8.41 6.10,8.84 6.45,9.20 6.80,9.65 7.15,10.20 7.50,11.25 7.85,12.69 8.20,14.60 8.55,16.40 8.90,18.29 9.25,20.09 9.60,21.85 9.94,23.96 10.29,26.11 10.64,27.92 10.99,28.06 11.34,27.16 11.69,26.12 12.04,25.49 12.39,25.03 12.74,24.15 13.09,22.77 13.44,21.61 13.79,20.82 14.14,20.10 14.49,19.42 14.84,18.57 15.19,18.01 15.54,18.19 15.89,19.14 16.24,20.21 16.59,20.65 16.94,20.32 17.29,19.56 17.64,19.19 17.99,19.17 18.34,19.23 18.69,19.27 19.04,19.48 19.39,20.13 19.74,20.78 20.09,20.85 20.44,20.80 20.79,20.58 21.14,19.97 21.49,19.22 21.83,18.37 22.18,17.13 22.53,15.78 22.88,15.24 23.23,14.29 23.58,13.59 23.93,12.34 24.28,13.61 24.63,14.24 24.98,15.09 25.33,16.21 25.68,17.50 26.03,18.21 26.38,18.70 26.73,19.12 27.08,19.70 27.43,21.39 27.78,23.55 28.13,25.59 28.48,28.52 28.83,30.91 29.18,33.41 29.53,35.70 29.88,37.65 30.23,38.00 30.58,38.80 30.93,39.29 31.28,39.68 31.63,40.33 31.98,40.99 32.33,41.93 32.68,41.99 33.03,44.61 33.37,47.16 33.72,49.89 34.07,50.95 34.42,52.09 34.77,52.90 35.12,52.50 35.47,51.40 35.82,50.14 36.17,48.81 36.52,48.60 36.87,47.56 37.22,46.64 37.57,45.69 37.92,44.92 38.27,43.82 38.62,42.36 38.97,41.16 39.32,39.57 39.67,37.34 40.02,34.70 40.37,33.37 40.72,32.29 41.07,32.49 41.42,32.75 41.77,33.19 42.12,33.75 42.47,35.01 42.82,35.32 43.17,36.05 43.52,36.78 43.87,36.71 44.22,36.82 44.57,36.92 44.91,37.37 45.26,37.09 45.61,36.21 45.96,35.81 46.31,36.08 46.66,36.18 47.01,37.41 47.36,38.71 47.71,40.09 48.06,40.63 48.41,41.27 48.76,41.26 49.11,41.34 49.46,41.23 49.81,40.91 50.16,40.30 50.51,37.94 50.86,36.48 51.21,36.67 51.56,38.65 51.91,40.71 52.26,43.47 52.61,44.95 52.96,44.50 53.31,42.92 53.66,41.15 54.01,40.61 54.36,37.52 54.71,34.26 55.06,31.38 55.41,28.26 55.76,25.39 56.11,24.33 56.46,23.13 56.80,21.35 57.15,20.27 57.50,19.57 57.85,18.31 58.20,19.09 58.55,19.06 58.90,18.31 59.25,17.29 59.60,16.30 59.95,15.37 60.30,14.31 60.65,12.43 61.00,12.20 61.35,11.38 61.70,9.45 62.05,7.47 62.40,6.99 62.75,7.02 63.10,8.23 63.45,7.88 63.80,7.06 64.15,6.32 64.50,7.19 64.85,8.46 65.20,8.38 65.55,7.44 65.90,6.59 66.25,5.66 66.60,5.10 66.95,4.68 67.30,4.45 67.65,4.75 68.00,5.90 68.34,6.75 68.69,8.16 69.04,8.51 69.39,9.33 69.74,9.88 70.09,10.52 70.44,11.21 70.79,11.91 71.14,12.07 71.49,13.69 71.84,15.66 72.19,18.54 72.54,20.28 72.89,21.53 73.24,25.13 73.59,29.19 73.94,31.65 74.29,33.16 74.64,34.10 74.99,33.39 75.34,32.58 75.69,30.39 76.04,26.58 76.39,23.05 76.74,19.92 77.09,5.46 77.44,5.63 77.79,6.66 78.14,7.36 78.49,8.15 78.84,8.48 79.19,9.00 79.54,9.41 79.89,9.74 80.23,10.31 80.58,11.43 80.93,12.69 81.28,14.87 81.63,16.93 81.98,18.66 82.33,20.47 82.68,22.45 83.03,23.94 83.38,26.58 83.73,29.45 84.08,28.52 84.43,27.28 84.78,26.50 85.13,25.52 85.48,25.11 85.83,24.24 86.18,22.75 86.53,21.66 86.88,20.75 87.23,20.18 87.58,19.35 87.93,18.65 88.28,18.27 88.63,18.39 88.98,19.39 89.33,20.68 89.68,20.76 90.03,20.04 90.38,19.75 90.73,19.34 91.08,19.33 91.43,19.24 91.77,19.36 92.12,19.73 92.47,20.02 92.82,20.90 93.17,21.12 93.52,20.91 93.87,20.66 94.22,20.17 94.57,18.97 94.92,18.31 95.27,16.98 95.62,15.91 95.97,15.18 96.32,14.35 96.67,13.57 97.02,12.67 97.37,13.78 97.72,14.48 98.07,15.34 98.42,16.29 98.77,17.77 99.12,18.14 99.47,18.98 99.82,19.36 100.17,19.68 100.52,22.27 100.87,24.20 101.22,26.09 101.57,29.25 101.92,31.11 102.27,34.15 102.62,36.41 102.97,37.85 103.31,38.17 103.66,38.46 104.01,39.25 104.36,39.13 104.71,39.70 105.06,40.74 105.41,41.81 105.76,42.74 106.11,44.72 106.46,48.30 106.81,50.23 107.16,51.29 107.51,52.73 107.86,53.30 108.21,52.90 108.56,51.46 108.91,49.79 109.26,48.88 109.61,48.14 109.96,47.15 110.31,46.61 110.66,45.98 111.01,44.74 111.36,43.14 111.71,41.89 112.06,41.48 112.41,39.30 112.76,36.99 113.11,34.78 113.46,32.93 113.81,31.85 114.16,32.16 114.51,32.36 114.86,33.08 115.20,33.54 115.55,34.78 115.90,35.48 116.25,36.08 116.60,36.90 116.95,36.90 117.30,37.05 117.65,37.29 118.00,37.43 118.35,37.19 118.70,36.18 119.05,35.69 119.40,35.85 119.75,36.23 120.10,37.30 120.45,39.34 120.80,40.31 121.15,40.92 121.50,41.41 121.85,41.41 122.20,41.19 122.55,41.15 122.90,40.82 123.25,40.24 123.60,36.58 123.95,35.75 124.30,35.63 124.65,39.11 125.00,41.33 125.35,44.62 125.70,45.53 126.05,44.50 126.40,43.18 126.74,41.91 127.09,40.51 127.44,36.99 127.79,34.48 128.14,31.48 128.49,27.90 128.84,25.68 129.19,24.85 129.54,23.90 129.89,21.90 130.24,20.88 130.59,19.97 130.94,19.12 131.29,19.82 131.64,19.04 131.99,18.36 132.34,17.06 132.69,16.45 133.04,15.19 133.39,13.46 133.74,11.19 134.09,11.26 134.44,11.09 134.79,9.49 135.14,7.80 135.49,6.32 135.84,7.18 136.19,7.31 136.54,8.12 136.89,6.89 137.24,6.61 137.59,6.57 137.94,8.38 138.29,8.57 138.63,7.71 138.98,6.99 139.33,6.58 139.68,6.41 140.03,5.15 140.38,5.36 140.73,4.78 141.08,6.04 141.43,7.34 141.78,8.53 142.13,8.97 142.48,9.42 142.83,9.91 143.18,10.47 143.53,11.30 143.88,12.08 144.23,13.57 144.58,14.17 144.93,15.73 145.28,18.14 145.63,20.65 145.98,22.06 146.33,24.58 146.68,29.35 147.03,32.01 147.38,33.57 147.73,35.26 148.08,35.09 148.43,32.46 148.78,30.30 149.13,26.81 149.48,22.77 149.83,20.22 150.17,5.20 150.52,5.70 150.87,6.40 151.22,7.24 151.57,7.85 151.92,8.51 152.27,8.80 152.62,9.44 152.97,9.48 153.32,10.63 153.67,12.16 154.02,13.24 154.37,15.71 154.72,17.15 155.07,19.33 155.42,20.94 155.77,23.04 156.12,23.04 156.47,26.58 156.82,27.61 157.17,28.65 157.52,25.90 157.87,26.68 158.22,24.13 158.57,24.79 158.92,24.67 159.27,22.20 159.62,21.13 159.97,20.72 160.32,18.17 160.67,18.41 161.02,18.54 161.37,16.68 161.71,17.84 162.06,16.15 162.41,18.41 162.76,17.63 163.11,19.48 163.46,18.33 163.81,19.07 164.16,18.61 164.51,18.74 164.86,18.00 165.21,18.66 165.56,17.88 165.91,19.95 166.26,20.82 166.61,20.86 166.96,19.42 167.31,18.92 167.66,17.94 168.01,17.94 168.36,17.17 168.71,15.85 169.06,14.86 169.41,13.91 169.76,13.79 170.11,12.52 170.46,13.34 170.81,14.00 171.16,15.32 171.51,15.32 171.86,16.80 172.21,17.25 172.56,18.28 172.91,18.16 173.26,19.47 173.60,20.34 173.95,24.00 174.30,25.04 174.65,29.20 175.00,30.44 175.35,34.18 175.70,35.13 176.05,37.02 176.40,37.93 176.75,36.41 177.10,38.18 177.45,37.48 177.80,39.49 178.15,38.35 178.50,40.45 178.85,42.50 179.20,43.90 179.55,47.03 179.90,47.03 180.25,49.46 180.60,51.19 180.95,53.12 181.30,52.14 181.65,50.08 182.00,49.60 182.35,48.16 182.70,47.58 183.05,46.43 183.40,45.89 183.75,44.66 184.10,42.62 184.45,41.92 184.80,40.32 185.14,40.77 185.49,39.20 185.84,36.28 186.19,33.81 186.54,32.95 186.89,32.25 187.24,32.54 187.59,32.82 187.94,33.02 188.29,33.11 188.64,34.38 188.99,35.17 189.34,36.11 189.69,36.81 190.04,36.85 190.39,36.43 190.74,36.27 191.09,37.21 191.44,36.72 191.79,36.35 192.14,36.10 192.49,36.06 192.84,36.30 193.19,36.75 193.54,38.77 193.89,40.25 194.24,40.87 194.59,41.61 194.94,41.36 195.29,41.63 195.64,40.89 195.99,41.35 196.34,42.21 196.69,38.38 197.03,38.75 197.38,34.74 197.73,39.40 198.08,41.41 198.43,43.80 198.78,44.67 199.13,44.18 199.48,42.99 199.83,42.61 200.18,40.30 200.53,33.61 200.88,32.79 201.23,29.00 201.58,25.50 201.93,23.28 202.28,23.48 202.63,20.60 202.98,22.62 203.33,19.73 203.68,17.84 204.03,17.84 204.38,17.18 204.73,16.48 205.08,18.17 205.43,17.14 205.78,16.68 206.13,16.04 206.48,13.65 206.83,12.70 207.18,11.10 207.53,11.10 207.88,8.53 208.23,9.31 208.57,6.80 208.92,7.30 209.27,7.21 209.62,6.39 209.97,5.69 210.32,7.58 210.67,8.12 211.02,8.53 211.37,7.91 211.72,6.55 212.07,4.74 212.42,7.62 212.77,5.36 213.12,5.65 213.47,4.00 213.82,4.88 214.17,5.93 214.52,7.62 214.87,8.36 215.22,9.59 215.57,9.76 215.92,10.00 216.27,11.16 216.62,11.69 216.97,11.90 217.32,12.52 217.67,12.48 218.02,16.80 218.37,18.00 218.72,21.78 219.07,23.59 219.42,26.72 219.77,31.33 220.11,33.50 220.46,34.57 220.81,35.56 221.16,33.83 221.51,32.68 221.86,28.35 222.21,25.80 222.56,20.49 222.91,18.68 223.26,4.51 223.61,4.51 223.96,4.51 224.31,7.10 224.66,7.10 225.01,5.83 225.36,9.33 225.71,9.33 226.06,9.33 226.41,10.73 226.76,12.95 227.11,12.95 227.46,15.63 227.81,15.63 228.16,15.63 228.51,19.77 228.86,18.37 229.21,18.37 229.56,18.37 229.91,25.40 230.26,25.40 230.61,18.04 230.96,19.85 231.31,19.85 231.66,19.85 232.00,20.79 232.35,20.79 232.70,18.86 233.05,18.86 233.40,18.86 233.75,18.78 234.10,18.78 234.45,12.23 234.80,12.56 235.15,12.56 235.50,14.33 235.85,14.33 236.20,14.33 236.55,14.30 236.90,20.44 237.25,20.44 237.60,18.17 237.95,18.17 238.30,18.17 238.65,18.05 239.00,21.01 239.35,21.01 239.70,21.01 240.05,18.79 240.40,21.34 240.75,21.34 241.10,21.34 241.45,18.42 241.80,17.56 242.15,17.56 242.50,16.11 242.85,16.11 243.20,13.60 243.54,13.60 243.89,15.21 244.24,15.21 244.59,15.21 244.94,13.75 245.29,17.16 245.64,17.16 245.99,17.16 246.34,19.02 246.69,19.02 247.04,24.53 247.39,24.53 247.74,24.53 248.09,29.47 248.44,29.47 248.79,29.47 249.14,34.70 249.49,35.94 249.84,35.94 250.19,35.94 250.54,39.39 250.89,39.39 251.24,35.15 251.59,40.34 251.94,40.34 252.29,40.34 252.64,49.77 252.99,49.77 253.34,45.36 253.69,45.36 254.04,53.80 254.39,51.78 254.74,45.16 255.09,45.16 255.43,45.16 255.78,47.09 256.13,43.47 256.48,43.47 256.83,43.47 257.18,39.76 257.53,39.76 257.88,39.76 258.23,36.80 258.58,35.98 258.93,35.98 259.28,35.98 259.63,33.38 259.98,33.38 260.33,35.85 260.68,35.31 261.03,35.31 261.38,35.31 261.73,35.93 262.08,35.93 262.43,37.99 262.78,37.99 263.13,37.99 263.48,38.52 263.83,38.52 264.18,37.70 264.53,37.70 264.88,37.70 265.23,36.18 265.58,36.18 265.93,36.18 266.28,36.42 266.63,36.42 266.97,38.34 267.32,38.34 267.67,38.34 268.02,42.13 268.37,42.13 268.72,42.13 269.07,45.50 269.42,45.50 269.77,45.50 270.12,51.06 270.47,34.60 270.82,39.62 271.17,39.62 271.52,39.62 271.87,56.00 272.22,56.00 272.57,56.00 272.92,43.53 273.27,43.53 273.62,34.47 273.97,34.47 274.32,34.47 274.67,23.90 275.02,23.90 275.37,23.90 275.72,21.48 276.07,21.48 276.42,14.93 276.77,16.25 277.12,16.25 277.47,16.25 277.82,25.96 278.17,23.45 278.51,23.45 278.86,23.45 279.21,17.52 279.56,17.52 279.91,25.18 280.26,12.71 280.61,12.71 280.96,12.71 281.31,14.68 281.66,14.68 282.01,14.68 282.36,11.21 282.71,11.21 283.06,11.21 283.41,8.04 283.76,8.04 284.11,8.04 284.46,5.65 284.81,5.65 285.16,5.65 285.51,5.65 285.86,7.38 286.21,5.65 286.56,5.65 286.91,8.37 287.26,8.37 287.61,9.36 287.96,9.36 288.31,9.36 288.66,21.87 289.01,16.28 289.36,16.28 289.71,16.28 290.06,13.07 290.40,9.37 290.75,9.37 291.10,15.91 291.45,15.91 291.80,15.91 292.15,40.20 292.50,40.20 292.85,40.20 293.20,39.54 293.55,39.54 293.90,39.54 294.25,42.90 294.60,42.90 294.95,42.90 295.30,25.41 295.65,25.41 296.00,25.41" />
</svg>