<svg width="300" height="60" xmlns="http://www.w3.org/2000/svg">
  <polyline fill="rgba(255,200,0,0.3)" stroke="#ffbb00" stroke-width="2" points="4.00,9.03 6.73,12.95 9.46,17.06 12.19,19.66 14.92,19.66 17.64,19.46 20.37,17.61 23.10,17.92 25.83,17.72 28.56,17.38 31.29,18.00 34.02,18.23 36.75,19.12 39.48,19.94 42.21,22.04 44.93,25.49 47.66,28.44 50.39,32.60 53.12,36.81 55.85,41.65 58.58,44.95 61.31,48.70 64.04,51.55 66.77,52.38 69.50,52.72 72.22,53.06 74.95,55.11 77.68,8.38 80.41,13.09 83.14,15.76 85.87,17.44 88.60,18.93 91.33,18.05 94.06,15.54 96.79,16.69 99.51,16.15 102.24,15.94 104.97,16.99 107.70,18.07 110.43,18.60 113.16,20.18 115.89,21.36 118.62,25.12 121.35,28.21 124.07,32.19 126.80,36.37 129.53,41.61 132.26,44.80 134.99,48.98 137.72,51.91 140.45,52.68 143.18,53.42 145.91,52.73 148.64,54.85 151.36,6.32 154.09,12.21 156.82,13.67 159.55,18.92 162.28,17.04 165.01,21.44 167.74,17.98 170.47,17.25 173.20,15.99 175.93,20.07 178.65,18.82 181.38,22.59 184.11,20.94 186.84,20.94 189.57,20.94 192.30,23.26 195.03,27.45 197.76,32.99 200.49,32.99 203.21,38.75 205.94,43.87 208.67,47.33 211.40,50.46 214.13,53.08 216.86,53.69 219.59,51.60 222.32,52.64 225.05,4.00 227.78,9.55 230.50,19.59 233.23,19.59 235.96,19.59 238.69,19.59 241.42,16.87 244.15,29.84 246.88,29.84 249.61,29.84 252.34,26.08 255.07,26.08 257.79,26.08 260.52,32.98 263.25,32.98 265.98,26.60 268.71,26.60 271.44,32.07 274.17,32.07 276.90,39.50 279.63,39.50 282.36,39.50 285.08,51.64 287.81,51.64 290.54,51.64 293.27,44.80 296.00,56.00" />
</svg>