<svg width="300" height="60" xmlns="http://www.w3.org/2000/svg">
  <polyline fill="rgba(255,200,0,0.3)" stroke="#ffbb00" stroke-width="2" points="4.00,14.64 4.31,14.01 4.62,13.02 4.93,12.50 5.24,12.02 5.55,11.41 5.86,10.93 6.17,10.04 6.48,9.22 6.79,8.15 7.10,7.28 7.41,7.02 7.72,7.29 8.03,7.22 8.34,7.29 8.65,7.21 8.96,6.68 9.28,6.09 9.59,5.58 9.90,5.49 10.21,5.54 10.52,5.77 10.83,6.04 11.14,6.30 11.45,6.29 11.76,5.99 12.07,5.64 12.38,5.68 12.69,5.60 13.00,5.63 13.31,5.66 13.62,5.49 13.93,5.50 14.24,5.69 14.55,6.01 14.86,6.47 15.17,7.08 15.48,8.01 15.79,8.99 16.10,9.96 16.41,11.21 16.72,11.93 17.03,12.38 17.34,12.98 17.65,13.71 17.96,14.65 18.27,15.66 18.58,16.30 18.89,16.21 19.21,15.83 19.52,14.94 19.83,14.07 20.14,13.55 20.45,13.30 20.76,13.17 21.07,13.32 21.38,13.71 21.69,14.69 22.00,16.00 22.31,17.34 22.62,18.15 22.93,18.50 23.24,18.59 23.55,18.55 23.86,18.69 24.17,18.25 24.48,18.80 24.79,19.95 25.10,20.55 25.41,20.93 25.72,22.46 26.03,24.19 26.34,25.21 26.65,26.29 26.96,26.82 27.27,27.19 27.58,27.40 27.89,27.30 28.20,27.70 28.51,27.71 28.82,27.56 29.13,28.00 29.45,28.68 29.76,29.63 30.07,30.77 30.38,31.23 30.69,31.49 31.00,32.49 31.31,33.21 31.62,34.04 31.93,35.32 32.24,35.75 32.55,35.65 32.86,36.23 33.17,36.98 33.48,37.90 33.79,39.11 34.10,40.13 34.41,40.80 34.72,40.39 35.03,40.61 35.34,41.73 35.65,43.17 35.96,44.03 36.27,44.70 36.58,44.68 36.89,45.23 37.20,46.52 37.51,47.49 37.82,48.67 38.13,49.69 38.44,50.79 38.75,51.42 39.06,52.08 39.38,52.55 39.69,53.05 40.00,53.20 40.31,53.22 40.62,52.82 40.93,51.74 41.24,50.96 41.55,49.96 41.86,49.15 42.17,48.18 42.48,46.96 42.79,46.09 43.10,45.37 43.41,44.29 43.72,43.00 44.03,41.71 44.34,40.66 44.65,40.51 44.96,38.93 45.27,38.06 45.58,37.54 45.89,37.03 46.20,36.84 46.51,36.74 46.82,36.51 47.13,36.33 47.44,36.27 47.75,36.52 48.06,37.14 48.37,38.33 48.68,39.43 48.99,40.43 49.30,41.20 49.62,41.05 49.93,40.38 50.24,39.74 50.55,39.13 50.86,38.33 51.17,37.31 51.48,36.16 51.79,35.05 52.10,34.10 52.41,33.50 52.72,33.22 53.03,33.24 53.34,33.83 53.65,34.00 53.96,33.06 54.27,32.09 54.58,31.52 54.89,31.52 55.20,31.28 55.51,30.47 55.82,29.57 56.13,29.07 56.44,28.47 56.75,29.53 57.06,30.10 57.37,30.27 57.68,30.28 57.99,30.31 58.30,30.30 58.61,30.63 58.92,30.76 59.23,31.02 59.55,31.37 59.86,31.70 60.17,31.85 60.48,31.81 60.79,30.33 61.10,30.53 61.41,30.81 61.72,31.38 62.03,32.71 62.34,33.81 62.65,34.57 62.96,34.75 63.27,34.75 63.58,35.50 63.89,36.41 64.20,37.64 64.51,38.96 64.82,40.02 65.13,40.63 65.44,41.20 65.75,41.64 66.06,42.12 66.37,42.50 66.68,42.96 66.99,43.61 67.30,43.24 67.61,42.43 67.92,41.61 68.23,41.03 68.54,40.27 68.85,38.73 69.16,38.81 69.48,37.51 69.79,36.10 70.10,33.47 70.41,32.84 70.72,31.91 71.03,31.57 71.34,32.65 71.65,32.46 71.96,31.58 72.27,30.74 72.58,29.92 72.89,29.86 73.20,29.81 73.51,30.03 73.82,30.36 74.13,30.49 74.44,29.91 74.75,29.37 75.06,28.93 75.37,28.69 75.68,28.17 75.99,27.16 76.30,26.10 76.61,24.96 76.92,24.09 77.23,23.78 77.54,14.70 77.85,13.88 78.16,12.93 78.47,12.41 78.78,11.59 79.09,10.44 79.40,10.27 79.72,9.79 80.03,8.79 80.34,7.75 80.65,7.16 80.96,6.77 81.27,7.19 81.58,7.02 81.89,6.10 82.20,5.80 82.51,5.21 82.82,5.52 83.13,5.59 83.44,5.34 83.75,5.64 84.06,6.09 84.37,5.97 84.68,5.62 84.99,5.56 85.30,5.61 85.61,5.34 85.92,5.53 86.23,5.51 86.54,5.46 86.85,5.09 87.16,5.21 87.47,6.01 87.78,6.00 88.09,6.94 88.40,7.96 88.71,8.58 89.02,9.77 89.33,10.82 89.65,12.16 89.96,12.66 90.27,12.81 90.58,13.79 90.89,14.69 91.20,15.75 91.51,16.10 91.82,16.52 92.13,15.58 92.44,14.61 92.75,13.92 93.06,13.50 93.37,13.25 93.68,13.27 93.99,13.42 94.30,13.70 94.61,15.01 94.92,15.91 95.23,17.39 95.54,18.13 95.85,18.58 96.16,18.55 96.47,18.49 96.78,17.86 97.09,18.23 97.40,18.98 97.71,19.40 98.02,20.12 98.33,21.22 98.64,22.51 98.95,23.86 99.26,24.87 99.57,25.88 99.89,26.64 100.20,26.98 100.51,27.34 100.82,27.10 101.13,27.34 101.44,27.47 101.75,27.48 102.06,27.58 102.37,28.45 102.68,28.95 102.99,30.31 103.30,30.36 103.61,31.24 103.92,32.53 104.23,33.25 104.54,34.10 104.85,35.27 105.16,35.60 105.47,36.65 105.78,36.22 106.09,37.41 106.40,37.86 106.71,39.63 107.02,40.11 107.33,40.54 107.64,40.11 107.95,40.81 108.26,42.10 108.57,43.62 108.88,44.22 109.19,44.97 109.50,44.82 109.82,45.34 110.13,46.21 110.44,47.84 110.75,48.93 111.06,49.92 111.37,50.89 111.68,51.61 111.99,52.31 112.30,52.68 112.61,53.15 112.92,53.30 113.23,53.30 113.54,52.59 113.85,51.77 114.16,51.05 114.47,49.98 114.78,48.93 115.09,48.54 115.40,47.04 115.71,45.81 116.02,44.97 116.33,44.05 116.64,42.80 116.95,41.75 117.26,41.06 117.57,40.11 117.88,39.19 118.19,38.15 118.50,37.53 118.81,37.15 119.12,36.86 119.43,36.66 119.74,36.56 120.06,36.44 120.37,36.48 120.68,36.68 120.99,37.18 121.30,38.70 121.61,39.56 121.92,40.82 122.23,41.97 122.54,41.18 122.85,40.48 123.16,39.75 123.47,39.20 123.78,38.18 124.09,37.77 124.40,36.18 124.71,35.27 125.02,34.13 125.33,33.58 125.64,33.33 125.95,33.55 126.26,34.54 126.57,34.14 126.88,33.04 127.19,31.97 127.50,31.30 127.81,31.08 128.12,31.00 128.43,30.65 128.74,28.50 129.05,27.14 129.36,28.38 129.67,29.24 129.99,29.27 130.30,30.29 130.61,29.82 130.92,30.27 131.23,28.97 131.54,30.01 131.85,30.80 132.16,30.95 132.47,30.62 132.78,30.67 133.09,31.29 133.40,31.17 133.71,29.60 134.02,29.00 134.33,29.67 134.64,31.26 134.95,32.26 135.26,33.55 135.57,34.59 135.88,35.02 136.19,35.29 136.50,36.06 136.81,36.61 137.12,38.02 137.43,39.27 137.74,40.21 138.05,40.73 138.36,41.32 138.67,41.86 138.98,42.18 139.29,42.70 139.60,43.17 139.91,43.63 140.23,43.45 140.54,42.39 140.85,40.90 141.16,39.20 141.47,39.02 141.78,39.12 142.09,37.71 142.40,38.04 142.71,35.49 143.02,33.70 143.33,31.89 143.64,31.10 143.95,30.89 144.26,31.76 144.57,32.18 144.88,30.85 145.19,30.73 145.50,29.63 145.81,29.83 146.12,29.90 146.43,30.05 146.74,30.64 147.05,30.64 147.36,30.05 147.67,29.47 147.98,28.90 148.29,28.80 148.60,28.21 148.91,27.26 149.22,26.10 149.53,25.03 149.84,24.10 150.16,23.95 150.47,14.98 150.78,14.24 151.09,13.15 151.40,12.11 151.71,11.02 152.02,10.75 152.33,10.25 152.64,9.95 152.95,9.53 153.26,8.09 153.57,7.54 153.88,7.69 154.19,8.11 154.50,8.29 154.81,6.27 155.12,5.72 155.43,5.77 155.74,6.19 156.05,6.86 156.36,5.82 156.67,6.56 156.98,5.79 157.29,6.31 157.60,6.71 157.91,5.72 158.22,6.36 158.53,5.42 158.84,6.04 159.15,6.76 159.46,5.51 159.77,6.35 160.09,4.96 160.40,5.73 160.71,6.38 161.02,7.94 161.33,8.81 161.64,9.80 161.95,10.95 162.26,10.37 162.57,11.72 162.88,13.30 163.19,13.40 163.50,14.00 163.81,15.09 164.12,15.75 164.43,16.42 164.74,16.37 165.05,16.37 165.36,14.81 165.67,13.79 165.98,12.55 166.29,13.29 166.60,12.26 166.91,13.70 167.22,13.10 167.53,14.54 167.84,16.11 168.15,17.18 168.46,18.07 168.77,18.72 169.08,19.11 169.39,18.53 169.70,18.98 170.01,18.43 170.33,19.85 170.64,19.06 170.95,21.07 171.26,21.17 171.57,21.72 171.88,24.33 172.19,24.85 172.50,26.46 172.81,26.46 173.12,27.18 173.43,27.90 173.74,27.35 174.05,27.55 174.36,27.50 174.67,27.53 174.98,27.87 175.29,28.84 175.60,29.36 175.91,31.15 176.22,31.10 176.53,31.77 176.84,32.04 177.15,32.04 177.46,34.11 177.77,35.40 178.08,33.73 178.39,35.45 178.70,33.83 179.01,35.15 179.32,36.54 179.63,38.05 179.94,39.66 180.26,38.99 180.57,39.78 180.88,39.78 181.19,41.17 181.50,43.61 181.81,43.09 182.12,42.84 182.43,44.30 182.74,45.77 183.05,44.33 183.36,46.88 183.67,48.94 183.98,49.34 184.29,51.11 184.60,50.37 184.91,50.54 185.22,52.80 185.53,52.90 185.84,54.26 186.15,53.97 186.46,52.72 186.77,52.18 187.08,54.96 187.39,51.51 187.70,51.95 188.01,49.09 188.32,49.14 188.63,45.86 188.94,45.17 189.25,48.02 189.56,44.08 189.87,42.82 190.18,41.68 190.50,45.08 190.81,42.15 191.12,38.78 191.43,40.64 191.74,37.64 192.05,36.77 192.36,36.32 192.67,35.58 192.98,35.40 193.29,35.80 193.60,36.74 193.91,35.45 194.22,37.49 194.53,37.44 194.84,39.17 195.15,43.10 195.46,42.01 195.77,39.60 196.08,37.45 196.39,38.85 196.70,37.21 197.01,35.64 197.32,34.10 197.63,32.86 197.94,33.11 198.25,33.66 198.56,30.93 198.87,32.47 199.18,33.58 199.49,33.71 199.80,32.96 200.11,31.03 200.43,30.85 200.74,30.28 201.05,30.73 201.36,31.00 201.67,28.17 201.98,28.42 202.29,29.09 202.60,30.23 202.91,28.80 203.22,30.45 203.53,30.99 203.84,31.19 204.15,31.49 204.46,31.84 204.77,32.51 205.08,31.04 205.39,32.02 205.70,33.19 206.01,31.65 206.32,33.21 206.63,30.75 206.94,30.48 207.25,29.24 207.56,31.45 207.87,32.77 208.18,32.47 208.49,34.31 208.80,36.17 209.11,33.96 209.42,35.23 209.73,33.89 210.04,36.79 210.35,36.83 210.67,40.83 210.98,41.05 211.29,40.78 211.60,41.97 211.91,41.20 212.22,42.43 212.53,43.77 212.84,43.77 213.15,44.79 213.46,44.24 213.77,42.46 214.08,40.72 214.39,38.83 214.70,42.01 215.01,39.50 215.32,38.06 215.63,36.60 215.94,35.23 216.25,33.99 216.56,32.87 216.87,32.78 217.18,33.03 217.49,33.20 217.80,33.10 218.11,32.75 218.42,29.85 218.73,29.35 219.04,29.65 219.35,28.66 219.66,29.85 219.97,29.30 220.28,28.66 220.60,28.21 220.91,28.04 221.22,28.03 221.53,27.59 221.84,27.11 222.15,26.05 222.46,25.72 222.77,24.18 223.08,24.01 223.39,15.91 223.70,15.91 224.01,12.56 224.32,12.56 224.63,12.56 224.94,12.56 225.25,10.37 225.56,10.37 225.87,10.37 226.18,9.03 226.49,9.03 226.80,8.02 227.11,8.02 227.42,8.02 227.73,8.15 228.04,8.15 228.35,7.92 228.66,7.92 228.97,7.92 229.28,9.02 229.59,9.02 229.90,4.00 230.21,6.01 230.52,6.01 230.84,7.70 231.15,7.70 231.46,7.70 231.77,9.76 232.08,9.76 232.39,4.12 232.70,6.43 233.01,6.43 233.32,6.43 233.63,9.00 233.94,9.00 234.25,11.46 234.56,11.46 234.87,11.46 235.18,14.62 235.49,14.62 235.80,14.62 236.11,14.52 236.42,14.52 236.73,14.52 237.04,18.51 237.35,18.51 237.66,18.47 237.97,17.10 238.28,17.10 238.59,17.10 238.90,15.51 239.21,15.51 239.52,15.51 239.83,14.47 240.14,14.47 240.45,14.47 240.77,14.47 241.08,18.96 241.39,18.96 241.70,18.96 242.01,23.68 242.32,23.68 242.63,23.68 242.94,24.05 243.25,24.05 243.56,24.05 243.87,24.05 244.18,21.82 244.49,21.82 244.80,29.86 245.11,28.52 245.42,28.52 245.73,28.52 246.04,28.52 246.35,33.56 246.66,28.37 246.97,28.42 247.28,28.42 247.59,28.42 247.90,31.63 248.21,31.63 248.52,31.63 248.83,41.51 249.14,37.66 249.45,37.66 249.76,30.09 250.07,30.09 250.38,34.33 250.70,35.62 251.01,28.60 251.32,28.60 251.63,31.38 251.94,31.38 252.25,31.38 252.56,34.38 252.87,34.38 253.18,35.50 253.49,35.50 253.80,35.50 254.11,41.73 254.42,40.96 254.73,40.96 255.04,40.96 255.35,40.69 255.66,40.69 255.97,44.79 256.28,44.79 256.59,44.79 256.90,45.76 257.21,45.76 257.52,45.76 257.83,49.90 258.14,49.90 258.45,45.71 258.76,51.76 259.07,53.65 259.38,53.65 259.69,53.65 260.00,49.90 260.31,54.10 260.62,54.10 260.94,54.10 261.25,49.16 261.56,49.16 261.87,55.69 262.18,55.69 262.49,47.48 262.80,47.48 263.11,56.00 263.42,56.00 263.73,42.84 264.04,49.16 264.35,49.16 264.66,49.16 264.97,40.32 265.28,40.32 265.59,35.51 265.90,35.51 266.21,35.51 266.52,35.34 266.83,35.34 267.14,35.34 267.45,35.19 267.76,35.19 268.07,37.82 268.38,37.82 268.69,43.09 269.00,38.69 269.31,38.69 269.62,38.69 269.93,32.68 270.24,32.68 270.55,32.68 270.87,29.48 271.18,29.48 271.49,31.17 271.80,31.17 272.11,31.17 272.42,32.52 272.73,32.52 273.04,32.52 273.35,28.55 273.66,30.41 273.97,30.41 274.28,33.76 274.59,33.76 274.90,33.76 275.21,36.98 275.52,36.98 275.83,28.69 276.14,31.32 276.45,31.32 276.76,32.78 277.07,32.78 277.38,32.78 277.69,35.29 278.00,35.29 278.31,39.26 278.62,39.26 278.93,39.26 279.24,44.63 279.55,34.02 279.86,34.02 280.17,34.02 280.48,31.67 280.79,31.67 281.11,31.67 281.42,36.31 281.73,36.31 282.04,36.31 282.35,29.88 282.66,29.88 282.97,40.01 283.28,37.15 283.59,37.15 283.90,37.15 284.21,36.88 284.52,43.24 284.83,43.24 285.14,38.54 285.45,38.54 285.76,38.54 286.07,41.72 286.38,41.72 286.69,41.72 287.00,37.63 287.31,37.63 287.62,45.94 287.93,46.19 288.24,46.19 288.55,45.50 288.86,45.50 289.17,45.50 289.48,43.88 289.79,43.88 290.10,41.75 290.41,41.75 290.72,41.75 291.04,38.67 291.35,30.33 291.66,30.33 291.97,30.33 292.28,30.33 292.59,31.59 292.90,29.70 293.21,29.70 293.52,29.70 293.83,28.74 294.14,28.74 294.45,27.67 294.76,27.67 295.07,27.67 295.38,27.27 295.69,27.27 296.00,25.36" />
</svg>