<svg width="300" height="60" xmlns="http://www.w3.org/2000/svg">
  <polyline fill="rgba(255,200,0,0.3)" stroke="#ffbb00" stroke-width="2" points="4.00,55.88 4.28,55.76 4.57,55.39 4.85,54.94 5.14,54.65 5.42,54.28 5.71,53.41 5.99,53.14 6.27,52.89 6.56,52.68 6.84,52.49 7.13,52.02 7.41,51.42 7.70,51.10 7.98,51.24 8.26,51.88 8.55,52.08 8.83,52.15 9.12,51.95 9.40,52.07 9.69,52.21 9.97,50.89 10.26,49.55 10.54,48.14 10.82,47.00 11.11,46.71 11.39,47.02 11.68,47.61 11.96,48.60 12.25,49.13 12.53,49.94 12.81,49.91 13.10,49.72 13.38,49.09 13.67,49.29 13.95,49.04 14.24,48.70 14.52,48.19 14.80,48.93 15.09,48.75 15.37,48.26 15.66,48.88 15.94,49.60 16.23,50.82 16.51,50.34 16.79,49.10 17.08,48.29 17.36,47.99 17.65,47.84 17.93,47.64 18.22,47.59 18.50,48.04 18.78,47.88 19.07,48.30 19.35,48.99 19.64,49.14 19.92,49.20 20.21,49.15 20.49,49.22 20.78,49.26 21.06,49.68 21.34,49.17 21.63,48.50 21.91,47.96 22.20,47.27 22.48,46.67 22.77,46.12 23.05,45.99 23.33,45.54 23.62,45.02 23.90,45.08 24.19,44.92 24.47,44.23 24.76,43.83 25.04,43.03 25.32,42.99 25.61,43.07 25.89,43.27 26.18,43.43 26.46,43.77 26.75,43.89 27.03,43.40 27.31,43.05 27.60,41.85 27.88,41.37 28.17,41.40 28.45,41.82 28.74,41.97 29.02,41.93 29.30,41.77 29.59,41.12 29.87,40.22 30.16,39.43 30.44,38.91 30.73,38.47 31.01,37.79 31.30,37.10 31.58,37.10 31.86,37.68 32.15,38.01 32.43,37.30 32.72,36.12 33.00,34.62 33.29,33.11 33.57,32.00 33.85,31.17 34.14,30.48 34.42,30.09 34.71,29.80 34.99,29.35 35.28,28.95 35.56,29.06 35.84,28.75 36.13,28.55 36.41,28.47 36.70,28.16 36.98,27.97 37.27,27.46 37.55,27.02 37.83,26.55 38.12,26.46 38.40,26.26 38.69,26.24 38.97,26.29 39.26,25.60 39.54,25.50 39.82,24.43 40.11,23.31 40.39,23.25 40.68,23.41 40.96,24.16 41.25,24.85 41.53,25.06 41.81,25.28 42.10,25.52 42.38,24.94 42.67,24.49 42.95,24.76 43.24,24.71 43.52,24.13 43.81,23.69 44.09,23.16 44.37,22.86 44.66,22.96 44.94,23.03 45.23,23.70 45.51,24.50 45.80,25.18 46.08,25.86 46.36,26.12 46.65,25.88 46.93,25.53 47.22,25.11 47.50,25.48 47.79,26.16 48.07,27.13 48.35,26.90 48.64,25.86 48.92,24.90 49.21,24.54 49.49,24.43 49.78,24.11 50.06,23.31 50.34,22.60 50.63,23.14 50.91,23.87 51.20,24.03 51.48,23.73 51.77,23.15 52.05,22.88 52.33,22.74 52.62,22.47 52.90,21.98 53.19,21.78 53.47,21.24 53.76,20.86 54.04,20.34 54.33,20.20 54.61,20.24 54.89,20.73 55.18,21.43 55.46,20.54 55.75,19.61 56.03,18.84 56.32,18.58 56.60,18.37 56.88,18.51 57.17,18.50 57.45,18.23 57.74,16.98 58.02,15.99 58.31,15.39 58.59,15.28 58.87,15.54 59.16,15.85 59.44,16.87 59.73,17.20 60.01,17.17 60.30,16.70 60.58,15.84 60.86,14.87 61.15,15.10 61.43,15.30 61.72,15.24 62.00,15.30 62.29,15.15 62.57,15.36 62.85,15.79 63.14,14.82 63.42,13.75 63.71,13.60 63.99,13.45 64.28,13.35 64.56,13.18 64.85,13.22 65.13,12.80 65.41,13.04 65.70,13.69 65.98,13.40 66.27,12.66 66.55,11.87 66.84,11.45 67.12,10.84 67.40,11.39 67.69,11.62 67.97,11.87 68.26,11.79 68.54,10.92 68.83,10.57 69.11,10.50 69.39,9.55 69.68,9.36 69.96,9.12 70.25,9.14 70.53,8.72 70.82,8.02 71.10,7.52 71.38,6.35 71.67,4.99 71.95,4.72 72.24,4.50 72.52,4.06 72.81,4.00 73.09,4.65 73.37,5.24 73.66,5.59 73.94,5.63 74.23,5.69 74.51,5.66 74.80,5.62 75.08,5.58 75.37,5.43 75.65,5.27 75.93,5.17 76.22,4.99 76.50,4.86 76.79,4.50 77.07,55.92 77.36,55.85 77.64,55.47 77.92,55.04 78.21,54.74 78.49,54.42 78.78,53.70 79.06,52.98 79.35,52.86 79.63,52.73 79.91,52.30 80.20,52.25 80.48,51.40 80.77,51.17 81.05,51.29 81.34,51.74 81.62,52.03 81.90,52.18 82.19,51.95 82.47,51.83 82.76,52.26 83.04,50.89 83.33,49.76 83.61,48.29 83.89,47.28 84.18,47.00 84.46,46.96 84.75,47.58 85.03,48.34 85.32,49.09 85.60,49.54 85.89,49.93 86.17,49.68 86.45,49.45 86.74,48.85 87.02,49.00 87.31,48.68 87.59,48.51 87.88,48.83 88.16,48.61 88.44,48.36 88.73,48.88 89.01,49.51 89.30,50.70 89.58,50.51 89.87,49.14 90.15,48.33 90.43,48.07 90.72,47.94 91.00,47.69 91.29,47.71 91.57,47.86 91.86,47.81 92.14,48.10 92.42,49.09 92.71,49.22 92.99,49.16 93.28,48.92 93.56,48.83 93.85,49.45 94.13,49.74 94.41,49.36 94.70,48.54 94.98,48.03 95.27,47.25 95.55,46.63 95.84,46.42 96.12,46.07 96.41,45.66 96.69,45.22 96.97,44.81 97.26,45.38 97.54,44.44 97.83,43.70 98.11,43.08 98.40,43.06 98.68,43.08 98.96,43.33 99.25,43.41 99.53,43.73 99.82,43.86 100.10,43.51 100.39,43.00 100.67,41.74 100.95,41.41 101.24,41.44 101.52,41.90 101.81,42.12 102.09,42.05 102.38,41.86 102.66,41.24 102.94,40.21 103.23,39.63 103.51,38.98 103.80,38.45 104.08,37.90 104.37,37.15 104.65,37.22 104.93,38.21 105.22,38.36 105.50,37.30 105.79,36.27 106.07,34.77 106.36,33.13 106.64,31.95 106.93,31.41 107.21,30.52 107.49,30.28 107.78,29.89 108.06,29.19 108.35,28.91 108.63,29.16 108.92,29.15 109.20,28.76 109.48,28.37 109.77,28.34 110.05,27.62 110.34,27.14 110.62,27.07 110.91,26.52 111.19,26.45 111.47,26.26 111.76,26.25 112.04,25.90 112.33,25.42 112.61,25.74 112.90,24.47 113.18,23.47 113.46,23.25 113.75,23.94 114.03,23.92 114.32,24.70 114.60,25.15 114.89,25.26 115.17,25.84 115.45,25.11 115.74,24.56 116.02,24.84 116.31,24.37 116.59,24.23 116.88,23.74 117.16,23.16 117.44,22.99 117.73,22.98 118.01,22.93 118.30,23.35 118.58,24.53 118.87,25.46 119.15,26.19 119.44,26.12 119.72,25.59 120.00,25.57 120.29,25.47 120.57,25.78 120.86,26.05 121.14,26.98 121.43,26.84 121.71,25.90 121.99,24.83 122.28,24.21 122.56,24.24 122.85,24.01 123.13,23.46 123.42,22.75 123.70,22.73 123.98,23.72 124.27,23.98 124.55,23.41 124.84,22.98 125.12,22.81 125.41,22.73 125.69,22.37 125.97,21.96 126.26,21.69 126.54,21.08 126.83,20.78 127.11,20.14 127.40,20.11 127.68,20.44 127.96,20.72 128.25,21.39 128.53,20.49 128.82,19.18 129.10,18.87 129.39,18.51 129.67,18.38 129.96,18.45 130.24,18.49 130.52,18.14 130.81,16.98 131.09,16.01 131.38,15.53 131.66,15.41 131.95,15.57 132.23,15.71 132.51,16.88 132.80,17.31 133.08,16.95 133.37,16.62 133.65,15.61 133.94,14.90 134.22,14.94 134.50,15.04 134.79,15.35 135.07,15.25 135.36,15.11 135.64,15.28 135.93,15.81 136.21,14.63 136.49,13.81 136.78,13.50 137.06,13.45 137.35,13.31 137.63,13.05 137.92,13.28 138.20,12.70 138.48,12.92 138.77,12.63 139.05,12.33 139.34,12.81 139.62,11.86 139.91,11.57 140.19,10.65 140.48,11.01 140.76,11.55 141.04,11.92 141.33,11.82 141.61,11.09 141.90,10.57 142.18,10.68 142.47,9.50 142.75,9.07 143.03,9.42 143.32,8.39 143.60,8.26 143.89,7.91 144.17,7.42 144.46,6.66 144.74,4.84 145.02,4.52 145.31,4.58 145.59,4.15 145.88,4.06 146.16,4.58 146.45,5.31 146.73,5.58 147.01,5.59 147.30,5.69 147.58,5.66 147.87,5.62 148.15,5.61 148.44,5.46 148.72,5.31 149.00,5.18 149.29,4.99 149.57,4.88 149.86,4.47 150.14,55.98 150.43,56.00 150.71,54.90 151.00,54.74 151.28,54.67 151.56,54.55 151.85,53.07 152.13,53.35 152.42,52.29 152.70,52.67 152.99,51.80 153.27,52.11 153.55,51.35 153.84,50.85 154.12,51.37 154.41,51.32 154.69,51.43 154.98,52.28 155.26,52.10 155.54,52.00 155.83,51.87 156.11,50.77 156.40,49.07 156.68,48.72 156.97,47.11 157.25,46.49 157.53,47.35 157.82,47.97 158.10,47.80 158.39,48.28 158.67,49.51 158.96,49.56 159.24,48.86 159.52,49.64 159.81,48.15 160.09,47.96 160.38,48.75 160.66,48.32 160.95,48.76 161.23,48.08 161.52,48.21 161.80,48.40 162.08,49.19 162.37,50.43 162.65,49.99 162.94,48.69 163.22,48.69 163.51,48.05 163.79,47.81 164.07,47.72 164.36,47.71 164.64,47.70 164.93,48.09 165.21,48.34 165.50,49.11 165.78,48.98 166.06,48.94 166.35,48.94 166.63,48.23 166.92,48.88 167.20,49.43 167.49,49.14 167.77,48.22 168.05,47.38 168.34,45.50 168.62,46.74 168.91,46.33 169.19,46.33 169.48,45.18 169.76,45.46 170.04,44.56 170.33,45.89 170.61,44.68 170.90,43.67 171.18,42.90 171.47,43.84 171.75,43.79 172.04,43.98 172.32,43.21 172.60,43.67 172.89,43.66 173.17,43.29 173.46,42.27 173.74,41.41 174.03,41.41 174.31,40.96 174.59,41.75 174.88,41.79 175.16,41.75 175.45,41.71 175.73,41.27 176.02,39.94 176.30,39.10 176.58,38.86 176.87,38.03 177.15,37.97 177.44,37.45 177.72,37.38 178.01,38.14 178.29,38.14 178.57,37.99 178.86,36.55 179.14,35.05 179.43,33.54 179.71,32.24 180.00,31.18 180.28,30.35 180.56,29.73 180.85,30.09 181.13,29.38 181.42,28.58 181.70,29.03 181.99,29.44 182.27,28.60 182.56,27.79 182.84,28.31 183.12,27.40 183.41,27.79 183.69,26.73 183.98,27.09 184.26,26.38 184.55,26.96 184.83,26.66 185.11,25.73 185.40,25.73 185.68,24.98 185.97,25.01 186.25,23.19 186.54,22.41 186.82,23.50 187.10,23.60 187.39,24.87 187.67,24.47 187.96,25.03 188.24,25.50 188.53,25.55 188.81,24.38 189.09,24.86 189.38,25.08 189.66,24.90 189.95,22.82 190.23,22.90 190.52,23.65 190.80,22.45 191.08,23.09 191.37,23.98 191.65,25.06 191.94,24.60 192.22,25.73 192.51,26.38 192.79,25.06 193.07,24.76 193.36,24.64 193.64,24.86 193.93,25.29 194.21,25.98 194.50,26.54 194.78,25.54 195.07,24.55 195.35,24.64 195.63,23.95 195.92,23.93 196.20,22.81 196.49,22.87 196.77,22.42 197.06,24.01 197.34,23.77 197.62,23.32 197.91,24.32 198.19,23.73 198.48,22.60 198.76,22.07 199.05,21.59 199.33,21.27 199.61,21.68 199.90,21.30 200.18,20.42 200.47,20.11 200.75,20.83 201.04,20.83 201.32,21.45 201.60,20.01 201.89,19.55 202.17,18.53 202.46,18.53 202.74,18.30 203.03,18.11 203.31,18.58 203.59,17.83 203.88,16.62 204.16,16.32 204.45,15.92 204.73,15.87 205.02,15.97 205.30,16.12 205.59,16.98 205.87,17.16 206.15,17.09 206.44,15.66 206.72,15.53 207.01,15.54 207.29,15.14 207.58,15.51 207.86,14.91 208.14,15.61 208.43,15.09 208.71,15.44 209.00,15.13 209.28,14.21 209.57,14.21 209.85,12.97 210.13,13.39 210.42,13.50 210.70,13.95 210.99,12.77 211.27,12.82 211.56,14.37 211.84,13.19 212.12,13.16 212.41,12.84 212.69,12.14 212.98,11.41 213.26,10.72 213.55,11.34 213.83,11.16 214.11,12.07 214.40,11.88 214.68,10.92 214.97,9.79 215.25,10.27 215.54,9.05 215.82,9.66 216.11,9.04 216.39,7.75 216.67,8.55 216.96,7.88 217.24,6.84 217.53,6.33 217.81,5.42 218.10,5.27 218.38,4.38 218.66,4.25 218.95,4.36 219.23,4.36 219.52,5.44 219.80,5.43 220.09,5.28 220.37,5.83 220.65,5.69 220.94,5.55 221.22,5.45 221.51,5.27 221.79,5.07 222.08,5.10 222.36,4.98 222.64,4.88 222.93,4.43 223.21,54.90 223.50,54.05 223.78,54.05 224.07,54.05 224.35,53.51 224.63,53.51 224.92,53.28 225.20,53.28 225.49,49.91 225.77,50.40 226.06,50.40 226.34,50.40 226.63,51.61 226.91,50.54 227.19,50.54 227.48,50.54 227.76,50.54 228.05,50.03 228.33,50.03 228.62,50.03 228.90,49.00 229.18,49.13 229.47,49.13 229.75,49.13 230.04,44.91 230.32,46.05 230.61,46.05 230.89,46.05 231.17,44.18 231.46,47.48 231.74,47.48 232.03,47.48 232.31,45.99 232.60,45.99 232.88,45.99 233.16,45.99 233.45,48.75 233.73,46.54 234.02,46.54 234.30,46.54 234.59,48.53 234.87,48.16 235.15,48.16 235.44,49.62 235.72,49.62 236.01,47.88 236.29,47.88 236.58,48.16 236.86,48.16 237.15,47.93 237.43,47.93 237.71,47.93 238.00,49.23 238.28,47.56 238.57,47.56 238.85,48.29 239.14,48.29 239.42,48.29 239.70,48.29 239.99,48.15 240.27,48.15 240.56,48.15 240.84,46.41 241.13,46.41 241.41,46.41 241.69,46.41 241.98,46.28 242.26,46.28 242.55,46.28 242.83,43.35 243.12,43.35 243.40,45.99 243.68,45.99 243.97,44.48 244.25,44.48 244.54,44.48 244.82,43.87 245.11,43.87 245.39,43.87 245.67,43.21 245.96,43.21 246.24,42.67 246.53,40.01 246.81,40.01 247.10,40.01 247.38,40.01 247.67,41.56 247.95,39.73 248.23,39.73 248.52,41.57 248.80,39.73 249.09,37.65 249.37,37.65 249.66,37.43 249.94,37.43 250.22,37.43 250.51,37.36 250.79,37.36 251.08,40.26 251.36,40.26 251.65,35.88 251.93,35.88 252.21,35.88 252.50,31.86 252.78,31.86 253.07,31.86 253.35,28.90 253.64,28.90 253.92,29.99 254.20,29.99 254.49,26.36 254.77,27.38 255.06,27.38 255.34,27.38 255.63,29.20 255.91,29.20 256.19,24.60 256.48,25.95 256.76,25.95 257.05,25.95 257.33,28.31 257.62,28.31 257.90,23.64 258.19,24.89 258.47,24.89 258.75,24.89 259.04,24.89 259.32,22.24 259.61,22.24 259.89,22.24 260.18,25.43 260.46,25.43 260.74,20.77 261.03,22.20 261.31,22.20 261.60,22.82 261.88,22.82 262.17,22.82 262.45,22.93 262.73,22.93 263.02,22.93 263.30,23.63 263.59,23.63 263.87,20.89 264.16,20.89 264.44,20.89 264.72,23.84 265.01,23.84 265.29,23.84 265.58,24.79 265.86,24.79 266.15,24.83 266.43,24.83 266.71,24.83 267.00,25.99 267.28,25.99 267.57,24.43 267.85,24.43 268.14,24.43 268.42,24.50 268.70,24.50 268.99,24.50 269.27,22.73 269.56,22.73 269.84,22.73 270.13,23.98 270.41,23.98 270.70,23.98 270.98,23.71 271.26,23.71 271.55,22.48 271.83,22.48 272.12,22.48 272.40,21.26 272.69,21.26 272.97,21.26 273.25,20.27 273.54,20.27 273.82,19.94 274.11,19.94 274.39,19.94 274.68,19.94 274.96,20.11 275.24,18.19 275.53,18.19 275.81,18.19 276.10,18.19 276.38,17.65 276.67,17.65 276.95,17.65 277.23,16.34 277.52,16.34 277.80,16.34 278.09,16.52 278.37,16.52 278.66,16.19 278.94,16.19 279.22,17.05 279.51,13.68 279.79,13.68 280.08,13.68 280.36,16.57 280.65,16.57 280.93,14.77 281.22,14.77 281.50,14.77 281.78,12.74 282.07,12.74 282.35,12.74 282.64,12.74 282.92,13.71 283.21,13.71 283.49,13.71 283.77,13.56 284.06,13.56 284.34,13.56 284.63,13.56 284.91,11.75 285.20,12.21 285.48,12.21 285.76,11.64 286.05,11.64 286.33,11.64 286.62,10.66 286.90,10.66 287.19,11.86 287.47,9.60 287.75,9.60 288.04,9.60 288.32,10.40 288.61,7.02 288.89,7.02 289.18,8.76 289.46,8.76 289.74,8.76 290.03,5.85 290.31,5.85 290.60,8.34 290.88,7.21 291.17,7.21 291.45,5.06 291.74,5.92 292.02,5.92 292.30,5.92 292.59,5.74 292.87,5.74 293.16,5.74 293.44,5.82 293.73,5.82 294.01,5.16 294.29,5.16 294.58,5.16 294.86,4.60 295.15,4.97 295.43,4.97 295.72,4.65 296.00,4.25" />
</svg>