<svg width="300" height="60" xmlns="http://www.w3.org/2000/svg">
  <polyline fill="rgba(255,200,0,0.3)" stroke="#ffbb00" stroke-width="2" points="4.00,52.13 4.21,52.59 4.42,52.75 4.63,52.97 4.83,53.55 5.04,54.33 5.25,55.47 5.46,55.94 5.67,55.99 5.88,55.38 6.09,54.63 6.30,54.05 6.50,53.70 6.71,53.28 6.92,52.80 7.13,52.43 7.34,52.18 7.55,51.97 7.76,51.77 7.97,51.49 8.17,51.16 8.38,50.88 8.59,50.77 8.80,50.71 9.01,50.95 9.22,51.57 9.43,51.99 9.64,52.51 9.84,52.32 10.05,52.14 10.26,51.75 10.47,51.05 10.68,50.77 10.89,50.20 11.10,49.92 11.31,49.37 11.51,48.32 11.72,47.86 11.93,48.09 12.14,48.47 12.35,48.98 12.56,49.41 12.77,49.57 12.97,49.63 13.18,49.92 13.39,49.80 13.60,49.79 13.81,49.68 14.02,49.35 14.23,49.26 14.44,48.96 14.64,48.71 14.85,48.58 15.06,49.42 15.27,49.58 15.48,49.39 15.69,48.95 15.90,48.39 16.11,47.57 16.31,46.44 16.52,45.43 16.73,44.21 16.94,43.58 17.15,42.92 17.36,43.00 17.57,43.15 17.78,43.03 17.98,42.79 18.19,42.80 18.40,43.06 18.61,43.09 18.82,42.84 19.03,42.60 19.24,42.27 19.45,42.42 19.65,42.49 19.86,42.57 20.07,42.57 20.28,43.14 20.49,43.32 20.70,43.35 20.91,43.27 21.12,43.43 21.32,43.36 21.53,43.21 21.74,43.04 21.95,42.81 22.16,42.26 22.37,41.66 22.58,41.68 22.78,42.30 22.99,42.39 23.20,42.12 23.41,41.90 23.62,41.59 23.83,41.13 24.04,40.56 24.25,40.32 24.45,40.07 24.66,40.54 24.87,40.85 25.08,41.01 25.29,40.85 25.50,40.36 25.71,39.64 25.92,39.72 26.12,39.97 26.33,40.01 26.54,40.17 26.75,40.10 26.96,40.31 27.17,40.38 27.38,40.55 27.59,40.22 27.79,39.64 28.00,39.04 28.21,38.91 28.42,38.78 28.63,39.12 28.84,39.67 29.05,39.71 29.26,39.45 29.46,39.10 29.67,38.86 29.88,38.91 30.09,38.76 30.30,38.49 30.51,38.21 30.72,38.14 30.92,37.74 31.13,37.10 31.34,36.74 31.55,36.69 31.76,37.20 31.97,37.30 32.18,37.44 32.39,37.45 32.59,37.45 32.80,37.30 33.01,36.95 33.22,37.57 33.43,37.79 33.64,37.35 33.85,37.25 34.06,37.25 34.26,37.22 34.47,36.96 34.68,36.41 34.89,35.79 35.10,35.45 35.31,35.22 35.52,35.21 35.73,35.50 35.93,36.05 36.14,36.31 36.35,36.17 36.56,35.95 36.77,35.20 36.98,34.71 37.19,34.75 37.40,35.42 37.60,35.36 37.81,35.29 38.02,35.17 38.23,35.05 38.44,34.57 38.65,34.20 38.86,34.37 39.07,34.82 39.27,35.53 39.48,35.46 39.69,35.32 39.90,35.27 40.11,35.67 40.32,35.86 40.53,35.45 40.73,35.08 40.94,34.90 41.15,34.45 41.36,33.97 41.57,33.36 41.78,33.07 41.99,32.20 42.20,31.47 42.40,31.19 42.61,31.53 42.82,32.60 43.03,32.46 43.24,32.38 43.45,32.07 43.66,31.73 43.87,31.28 44.07,30.78 44.28,30.44 44.49,30.17 44.70,30.07 44.91,30.13 45.12,30.21 45.33,30.35 45.54,30.46 45.74,30.97 45.95,31.23 46.16,30.76 46.37,30.49 46.58,29.84 46.79,29.42 47.00,29.21 47.21,29.06 47.41,28.82 47.62,28.29 47.83,27.85 48.04,27.69 48.25,27.63 48.46,27.46 48.67,27.14 48.87,26.77 49.08,26.47 49.29,26.21 49.50,26.04 49.71,25.88 49.92,25.82 50.13,25.44 50.34,25.11 50.54,24.68 50.75,24.42 50.96,24.25 51.17,24.06 51.38,23.97 51.59,24.03 51.80,24.26 52.01,24.46 52.21,24.51 52.42,24.24 52.63,23.57 52.84,22.93 53.05,22.53 53.26,22.20 53.47,22.04 53.68,21.99 53.88,21.87 54.09,21.82 54.30,21.59 54.51,21.30 54.72,21.04 54.93,20.63 55.14,20.15 55.35,19.47 55.55,19.01 55.76,18.57 55.97,18.58 56.18,19.13 56.39,19.73 56.60,19.61 56.81,19.47 57.02,18.99 57.22,18.57 57.43,18.15 57.64,18.34 57.85,18.60 58.06,19.02 58.27,18.89 58.48,18.46 58.68,18.36 58.89,18.55 59.10,18.98 59.31,19.19 59.52,18.92 59.73,19.22 59.94,18.95 60.15,18.48 60.35,18.18 60.56,18.15 60.77,18.01 60.98,17.92 61.19,17.95 61.40,17.78 61.61,17.32 61.82,17.56 62.02,17.04 62.23,16.07 62.44,15.09 62.65,14.94 62.86,14.79 63.07,15.29 63.28,15.42 63.49,14.68 63.69,13.97 63.90,13.65 64.11,13.38 64.32,13.22 64.53,13.40 64.74,14.08 64.95,14.50 65.16,14.90 65.36,14.48 65.57,13.68 65.78,13.18 65.99,13.14 66.20,13.45 66.41,13.53 66.62,13.21 66.82,12.82 67.03,12.40 67.24,12.21 67.45,11.81 67.66,11.71 67.87,12.01 68.08,11.37 68.29,10.69 68.49,10.61 68.70,10.90 68.91,11.13 69.12,10.98 69.33,10.74 69.54,10.45 69.75,9.82 69.96,9.32 70.16,8.60 70.37,7.86 70.58,7.01 70.79,6.51 71.00,7.16 71.21,8.09 71.42,9.58 71.63,9.82 71.83,9.42 72.04,9.51 72.25,9.04 72.46,8.15 72.67,7.58 72.88,7.20 73.09,7.06 73.30,7.02 73.50,7.14 73.71,7.34 73.92,7.55 74.13,7.34 74.34,6.83 74.55,6.10 74.76,5.43 74.96,4.79 75.17,4.69 75.38,4.73 75.59,5.30 75.80,5.80 76.01,6.01 76.22,6.08 76.43,6.21 76.63,6.23 76.84,5.76 77.05,52.15 77.26,52.65 77.47,52.75 77.68,52.99 77.89,53.57 78.10,54.35 78.30,55.36 78.51,55.94 78.72,56.00 78.93,55.40 79.14,54.61 79.35,54.04 79.56,53.65 79.77,53.25 79.97,52.81 80.18,52.50 80.39,52.18 80.60,51.98 80.81,51.73 81.02,51.43 81.23,51.13 81.44,50.81 81.64,50.71 81.85,50.70 82.06,50.88 82.27,51.58 82.48,51.87 82.69,52.52 82.90,52.28 83.11,52.04 83.31,51.73 83.52,50.95 83.73,50.77 83.94,50.16 84.15,49.92 84.36,49.31 84.57,48.33 84.77,47.91 84.98,48.10 85.19,48.49 85.40,49.12 85.61,49.35 85.82,49.62 86.03,49.64 86.24,49.84 86.44,49.80 86.65,49.78 86.86,49.70 87.07,49.45 87.28,49.27 87.49,49.01 87.70,48.72 87.91,48.56 88.11,49.20 88.32,49.58 88.53,49.38 88.74,49.04 88.95,48.44 89.16,47.52 89.37,46.54 89.58,45.41 89.78,44.19 89.99,43.49 90.20,42.97 90.41,43.03 90.62,43.06 90.83,42.88 91.04,42.74 91.25,42.85 91.45,43.06 91.66,43.08 91.87,42.83 92.08,42.61 92.29,42.30 92.50,42.42 92.71,42.43 92.91,42.57 93.12,42.57 93.33,43.14 93.54,43.31 93.75,43.38 93.96,43.26 94.17,43.36 94.38,43.35 94.58,43.25 94.79,43.07 95.00,42.81 95.21,42.22 95.42,41.69 95.63,41.64 95.84,42.33 96.05,42.39 96.25,42.10 96.46,41.91 96.67,41.62 96.88,41.28 97.09,40.60 97.30,40.36 97.51,40.10 97.72,40.61 97.92,40.82 98.13,41.03 98.34,40.92 98.55,40.24 98.76,39.61 98.97,39.77 99.18,40.03 99.39,39.90 99.59,40.15 99.80,40.07 100.01,40.27 100.22,40.26 100.43,40.52 100.64,40.17 100.85,39.71 101.06,39.04 101.26,38.94 101.47,38.78 101.68,39.17 101.89,39.77 102.10,39.78 102.31,39.38 102.52,39.17 102.72,38.86 102.93,38.78 103.14,38.72 103.35,38.39 103.56,38.19 103.77,38.19 103.98,37.76 104.19,37.03 104.39,36.63 104.60,36.67 104.81,37.22 105.02,37.30 105.23,37.44 105.44,37.44 105.65,37.46 105.86,37.36 106.06,37.08 106.27,37.43 106.48,37.79 106.69,37.38 106.90,37.21 107.11,37.30 107.32,37.22 107.53,36.90 107.73,36.39 107.94,35.81 108.15,35.46 108.36,35.19 108.57,35.23 108.78,35.59 108.99,36.07 109.20,36.31 109.40,36.15 109.61,35.97 109.82,35.23 110.03,34.72 110.24,34.73 110.45,35.34 110.66,35.36 110.86,35.32 111.07,35.17 111.28,35.07 111.49,34.57 111.70,34.25 111.91,34.37 112.12,34.84 112.33,35.50 112.53,35.47 112.74,35.24 112.95,35.34 113.16,35.73 113.37,35.86 113.58,35.45 113.79,35.08 114.00,34.87 114.20,34.46 114.41,33.92 114.62,33.34 114.83,33.04 115.04,32.21 115.25,31.50 115.46,31.12 115.67,31.61 115.87,32.60 116.08,32.47 116.29,32.37 116.50,32.09 116.71,31.76 116.92,31.26 117.13,30.79 117.34,30.47 117.54,30.17 117.75,30.09 117.96,30.14 118.17,30.19 118.38,30.35 118.59,30.43 118.80,30.99 119.01,31.22 119.21,30.79 119.42,30.48 119.63,29.91 119.84,29.43 120.05,29.21 120.26,29.06 120.47,28.82 120.67,28.31 120.88,27.88 121.09,27.67 121.30,27.67 121.51,27.45 121.72,27.09 121.93,26.78 122.14,26.45 122.34,26.15 122.55,26.02 122.76,25.93 122.97,25.82 123.18,25.50 123.39,25.12 123.60,24.65 123.81,24.35 124.01,24.24 124.22,24.10 124.43,23.99 124.64,24.05 124.85,24.26 125.06,24.54 125.27,24.50 125.48,24.16 125.68,23.51 125.89,22.93 126.10,22.55 126.31,22.18 126.52,22.05 126.73,21.97 126.94,21.89 127.15,21.78 127.35,21.59 127.56,21.27 127.77,21.06 127.98,20.67 128.19,20.11 128.40,19.45 128.61,18.96 128.81,18.57 129.02,18.66 129.23,19.11 129.44,19.73 129.65,19.60 129.86,19.52 130.07,18.97 130.28,18.52 130.48,18.16 130.69,18.31 130.90,18.64 131.11,19.00 131.32,18.92 131.53,18.49 131.74,18.46 131.95,18.56 132.15,18.95 132.36,19.24 132.57,18.93 132.78,19.19 132.99,18.99 133.20,18.46 133.41,18.20 133.62,18.10 133.82,18.02 134.03,17.93 134.24,17.95 134.45,17.67 134.66,17.35 134.87,17.61 135.08,17.05 135.29,16.01 135.49,15.11 135.70,14.93 135.91,14.78 136.12,15.29 136.33,15.36 136.54,14.76 136.75,14.04 136.95,13.66 137.16,13.38 137.37,13.23 137.58,13.40 137.79,14.09 138.00,14.44 138.21,14.93 138.42,14.46 138.62,13.72 138.83,13.18 139.04,13.14 139.25,13.44 139.46,13.39 139.67,13.15 139.88,12.87 140.09,12.41 140.29,12.12 140.50,11.82 140.71,11.76 140.92,11.98 141.13,11.45 141.34,10.66 141.55,10.62 141.76,10.91 141.96,11.15 142.17,10.99 142.38,10.74 142.59,10.41 142.80,9.93 143.01,9.34 143.22,8.59 143.43,7.86 143.63,7.03 143.84,6.55 144.05,7.15 144.26,8.09 144.47,9.52 144.68,9.82 144.89,9.45 145.10,9.51 145.30,9.04 145.51,8.14 145.72,7.51 145.93,7.24 146.14,7.03 146.35,7.04 146.56,7.16 146.76,7.34 146.97,7.48 147.18,7.34 147.39,6.78 147.60,6.12 147.81,5.41 148.02,4.75 148.23,4.68 148.43,4.75 148.64,5.24 148.85,5.78 149.06,5.96 149.27,6.03 149.48,6.25 149.69,6.24 149.90,5.74 150.10,51.70 150.31,52.29 150.52,52.65 150.73,52.85 150.94,53.28 151.15,54.00 151.36,55.11 151.57,55.77 151.77,55.94 151.98,55.36 152.19,54.39 152.40,53.78 152.61,53.77 152.82,53.30 153.03,52.51 153.24,52.12 153.44,51.90 153.65,52.45 153.86,51.68 154.07,51.47 154.28,51.21 154.49,50.51 154.70,50.49 154.90,50.80 155.11,50.63 155.32,51.74 155.53,51.76 155.74,51.63 155.95,51.41 156.16,51.15 156.37,50.94 156.57,50.76 156.78,50.58 156.99,50.57 157.20,49.36 157.41,49.22 157.62,47.97 157.83,48.40 158.04,48.28 158.24,49.18 158.45,49.37 158.66,48.26 158.87,49.47 159.08,49.55 159.29,49.44 159.50,49.99 159.71,49.73 159.91,49.19 160.12,49.56 160.33,49.01 160.54,49.01 160.75,48.41 160.96,48.58 161.17,48.86 161.38,48.88 161.58,49.21 161.79,48.26 162.00,47.82 162.21,47.18 162.42,46.21 162.63,45.28 162.84,44.43 163.05,43.53 163.25,43.23 163.46,42.77 163.67,43.17 163.88,42.46 164.09,42.69 164.30,43.07 164.51,42.63 164.71,42.69 164.92,42.48 165.13,42.69 165.34,42.58 165.55,42.18 165.76,42.55 165.97,42.87 166.18,42.48 166.38,43.27 166.59,43.33 166.80,43.26 167.01,43.14 167.22,43.28 167.43,43.57 167.64,43.09 167.85,43.09 168.05,43.00 168.26,42.28 168.47,41.78 168.68,41.69 168.89,41.97 169.10,42.15 169.31,42.10 169.52,41.91 169.72,41.39 169.93,40.90 170.14,40.35 170.35,39.87 170.56,40.33 170.77,40.61 170.98,41.05 171.19,40.89 171.39,40.85 171.60,39.58 171.81,39.92 172.02,39.77 172.23,39.35 172.44,40.05 172.65,40.24 172.85,40.28 173.06,40.28 173.27,40.96 173.48,40.20 173.69,39.86 173.90,40.08 174.11,39.09 174.32,38.34 174.52,38.92 174.73,39.07 174.94,40.22 175.15,40.02 175.36,39.00 175.57,38.73 175.78,39.07 175.99,38.83 176.19,39.07 176.40,38.31 176.61,38.39 176.82,38.41 177.03,37.33 177.24,36.80 177.45,36.51 177.66,36.73 177.86,37.11 178.07,37.46 178.28,37.14 178.49,37.49 178.70,37.26 178.91,36.84 179.12,37.35 179.33,37.50 179.53,37.58 179.74,37.26 179.95,36.86 180.16,36.90 180.37,37.20 180.58,36.77 180.79,35.98 180.99,35.74 181.20,35.28 181.41,35.01 181.62,34.98 181.83,35.76 182.04,36.20 182.25,36.46 182.46,36.07 182.66,35.75 182.87,35.14 183.08,35.04 183.29,34.79 183.50,35.17 183.71,35.40 183.92,35.66 184.13,35.11 184.33,34.58 184.54,34.64 184.75,33.98 184.96,34.66 185.17,34.66 185.38,35.26 185.59,35.52 185.80,35.47 186.00,34.98 186.21,35.60 186.42,35.53 186.63,35.33 186.84,34.82 187.05,34.74 187.26,34.76 187.47,34.02 187.67,33.28 187.88,32.95 188.09,32.15 188.30,31.44 188.51,31.12 188.72,32.15 188.93,32.63 189.14,32.48 189.34,32.19 189.55,32.11 189.76,31.80 189.97,31.31 190.18,30.74 190.39,30.28 190.60,30.27 190.80,29.95 191.01,30.17 191.22,29.79 191.43,30.51 191.64,30.52 191.85,31.04 192.06,30.70 192.27,30.39 192.47,29.97 192.68,29.97 192.89,29.46 193.10,29.02 193.31,29.35 193.52,28.52 193.73,27.97 193.94,27.52 194.14,27.87 194.35,27.78 194.56,27.72 194.77,26.79 194.98,26.62 195.19,26.31 195.40,26.22 195.61,26.19 195.81,26.26 196.02,25.31 196.23,25.26 196.44,25.05 196.65,25.02 196.86,24.18 197.07,24.38 197.28,23.84 197.48,24.24 197.69,24.07 197.90,24.64 198.11,24.51 198.32,24.06 198.53,24.13 198.74,23.53 198.94,23.11 199.15,22.78 199.36,21.88 199.57,21.77 199.78,21.83 199.99,22.04 200.20,21.74 200.41,21.74 200.61,21.37 200.82,21.08 201.03,20.70 201.24,20.23 201.45,19.13 201.66,18.60 201.87,18.05 202.08,18.78 202.28,19.05 202.49,19.81 202.70,18.84 202.91,18.94 203.12,18.71 203.33,18.47 203.54,18.32 203.75,18.45 203.95,18.67 204.16,18.82 204.37,18.54 204.58,18.17 204.79,18.04 205.00,18.89 205.21,18.61 205.42,19.22 205.62,18.73 205.83,19.20 206.04,18.60 206.25,18.71 206.46,18.05 206.67,18.07 206.88,17.41 207.09,17.59 207.29,17.87 207.50,17.10 207.71,17.27 207.92,17.14 208.13,17.14 208.34,16.08 208.55,15.06 208.75,14.57 208.96,14.81 209.17,15.39 209.38,15.21 209.59,14.08 209.80,13.49 210.01,13.66 210.22,13.27 210.42,12.89 210.63,13.41 210.84,13.88 211.05,14.70 211.26,14.12 211.47,14.41 211.68,13.37 211.89,13.09 212.09,13.29 212.30,13.11 212.51,13.89 212.72,12.96 212.93,12.75 213.14,12.53 213.35,11.84 213.56,11.88 213.76,11.25 213.97,11.94 214.18,11.65 214.39,10.87 214.60,10.68 214.81,10.68 215.02,11.20 215.23,10.89 215.43,10.59 215.64,9.90 215.85,9.58 216.06,9.26 216.27,8.12 216.48,7.70 216.69,7.36 216.89,6.37 217.10,6.59 217.31,8.11 217.52,9.10 217.73,9.36 217.94,9.20 218.15,9.32 218.36,8.94 218.56,8.12 218.77,7.34 218.98,7.56 219.19,7.16 219.40,7.03 219.61,7.57 219.82,7.26 220.03,7.77 220.23,7.46 220.44,6.93 220.65,6.23 220.86,5.51 221.07,4.78 221.28,4.75 221.49,4.80 221.70,4.80 221.90,5.12 222.11,5.66 222.32,5.53 222.53,6.23 222.74,5.88 222.95,5.79 223.16,50.34 223.37,52.46 223.57,52.46 223.78,52.46 223.99,53.92 224.20,53.92 224.41,53.92 224.62,55.43 224.83,55.43 225.04,55.43 225.24,53.40 225.45,53.40 225.66,53.40 225.87,53.40 226.08,50.92 226.29,51.47 226.50,51.47 226.70,51.47 226.91,49.32 227.12,50.73 227.33,50.73 227.54,48.87 227.75,48.87 227.96,51.01 228.17,50.50 228.37,50.50 228.58,50.50 228.79,49.97 229.00,49.97 229.21,49.97 229.42,49.57 229.63,49.57 229.84,49.28 230.04,49.28 230.25,49.28 230.46,49.41 230.67,46.77 230.88,46.77 231.09,49.23 231.30,49.23 231.51,49.23 231.71,46.85 231.92,49.14 232.13,49.14 232.34,49.14 232.55,49.98 232.76,47.97 232.97,47.97 233.18,48.98 233.38,48.98 233.59,48.98 233.80,46.38 234.01,46.38 234.22,46.38 234.43,45.43 234.64,47.95 234.84,47.95 235.05,45.54 235.26,45.54 235.47,45.54 235.68,43.32 235.89,43.32 236.10,43.32 236.31,43.09 236.51,43.09 236.72,43.09 236.93,41.08 237.14,41.08 237.35,41.77 237.56,41.77 237.77,41.77 237.98,41.19 238.18,41.19 238.39,41.19 238.60,41.71 238.81,41.71 239.02,42.63 239.23,42.63 239.44,42.63 239.65,42.38 239.85,42.38 240.06,42.38 240.27,42.69 240.48,42.69 240.69,43.69 240.90,43.69 241.11,42.65 241.32,42.65 241.52,42.65 241.73,42.20 241.94,42.20 242.15,42.20 242.36,41.11 242.57,41.11 242.78,41.11 242.98,40.01 243.19,40.01 243.40,40.01 243.61,40.32 243.82,40.32 244.03,40.32 244.24,40.22 244.45,40.22 244.65,38.59 244.86,38.59 245.07,38.59 245.28,38.59 245.49,41.03 245.70,41.03 245.91,39.35 246.12,39.35 246.32,40.74 246.53,40.74 246.74,37.76 246.95,37.76 247.16,39.09 247.37,39.09 247.58,39.09 247.79,38.84 247.99,38.84 248.20,38.84 248.41,38.84 248.62,37.61 248.83,37.61 249.04,37.61 249.25,38.25 249.46,38.25 249.66,38.25 249.87,37.83 250.08,34.77 250.29,34.77 250.50,35.20 250.71,35.20 250.92,36.32 251.13,36.32 251.33,36.32 251.54,37.50 251.75,37.50 251.96,35.39 252.17,36.84 252.38,36.84 252.59,36.84 252.79,35.86 253.00,35.86 253.21,35.86 253.42,36.99 253.63,34.99 253.84,34.99 254.05,34.99 254.26,33.93 254.46,33.93 254.67,33.93 254.88,34.96 255.09,34.96 255.30,35.39 255.51,35.39 255.72,35.39 255.93,33.92 256.13,33.92 256.34,33.92 256.55,33.62 256.76,33.62 256.97,34.43 257.18,34.43 257.39,34.43 257.60,34.69 257.80,33.18 258.01,34.69 258.22,34.69 258.43,34.06 258.64,34.06 258.85,35.02 259.06,35.02 259.27,34.08 259.47,34.08 259.68,34.08 259.89,33.72 260.10,33.72 260.31,34.13 260.52,34.13 260.73,32.26 260.93,32.26 261.14,32.26 261.35,31.46 261.56,31.46 261.77,32.58 261.98,32.58 262.19,31.75 262.40,31.75 262.60,31.54 262.81,31.54 263.02,30.42 263.23,30.42 263.44,30.42 263.65,30.56 263.86,29.06 264.07,29.06 264.27,29.29 264.48,29.29 264.69,29.61 264.90,30.09 265.11,30.09 265.32,30.09 265.53,29.30 265.74,29.30 265.94,29.30 266.15,29.30 266.36,28.17 266.57,28.17 266.78,28.17 266.99,26.66 267.20,27.88 267.41,27.88 267.61,27.50 267.82,25.57 268.03,25.57 268.24,24.80 268.45,24.80 268.66,24.44 268.87,24.44 269.08,24.44 269.28,24.19 269.49,24.19 269.70,24.47 269.91,24.47 270.12,24.47 270.33,23.61 270.54,23.61 270.74,23.61 270.95,24.49 271.16,24.49 271.37,22.92 271.58,22.92 271.79,22.24 272.00,22.24 272.21,21.40 272.41,21.40 272.62,21.40 272.83,21.90 273.04,21.90 273.25,21.90 273.46,22.28 273.67,22.28 273.88,22.28 274.08,21.22 274.29,21.22 274.50,19.25 274.71,17.49 274.92,17.49 275.13,19.39 275.34,19.39 275.55,19.39 275.75,15.95 275.96,15.95 276.17,15.90 276.38,15.90 276.59,15.90 276.80,16.35 277.01,16.35 277.22,16.35 277.42,16.06 277.63,16.06 277.84,15.86 278.05,18.36 278.26,18.36 278.47,18.36 278.68,16.24 278.88,17.70 279.09,17.70 279.30,17.70 279.51,17.70 279.72,16.83 279.93,16.83 280.14,16.83 280.35,14.72 280.55,14.72 280.76,17.04 280.97,14.94 281.18,14.94 281.39,14.94 281.60,15.25 281.81,13.85 282.02,13.85 282.22,13.85 282.43,13.85 282.64,11.96 282.85,11.96 283.06,12.77 283.27,12.77 283.48,12.77 283.69,11.36 283.89,11.36 284.10,13.85 284.31,13.85 284.52,13.85 284.73,11.97 284.94,12.03 285.15,12.03 285.36,12.03 285.56,13.04 285.77,13.04 285.98,10.96 286.19,10.96 286.40,10.96 286.61,10.70 286.82,10.70 287.03,10.70 287.23,10.70 287.44,10.77 287.65,10.77 287.86,10.77 288.07,11.27 288.28,10.33 288.49,10.33 288.69,9.33 288.90,9.33 289.11,9.33 289.32,6.33 289.53,6.33 289.74,6.33 289.95,6.49 290.16,6.49 290.36,6.49 290.57,8.76 290.78,7.58 290.99,7.58 291.20,7.63 291.41,7.63 291.62,7.63 291.83,6.94 292.03,7.64 292.24,7.64 292.45,7.64 292.66,8.81 292.87,7.33 293.08,7.33 293.29,7.33 293.50,6.36 293.70,6.36 293.91,6.36 294.12,4.84 294.33,5.08 294.54,5.08 294.75,5.08 294.96,5.08 295.17,5.18 295.37,5.18 295.58,5.18 295.79,4.00 296.00,4.00" />
</svg>