<svg width="300" height="60" xmlns="http://www.w3.org/2000/svg">
  <polyline fill="rgba(255,200,0,0.3)" stroke="#ffbb00" stroke-width="2" points="4.00,54.01 4.23,55.26 4.47,56.00 4.70,54.70 4.94,54.30 5.17,53.59 5.41,52.87 5.64,52.13 5.88,50.40 6.11,49.06 6.35,48.56 6.58,48.09 6.82,47.74 7.05,47.46 7.29,46.83 7.52,46.42 7.76,46.20 7.99,46.18 8.23,47.79 8.46,50.52 8.70,48.80 8.93,47.36 9.17,47.43 9.40,46.83 9.64,46.19 9.87,45.94 10.11,46.21 10.34,46.30 10.58,46.42 10.81,45.18 11.05,45.44 11.28,45.74 11.52,46.94 11.75,46.95 11.99,46.66 12.22,46.17 12.46,45.92 12.69,48.18 12.93,47.43 13.16,50.42 13.40,47.31 13.63,46.11 13.87,45.89 14.10,45.94 14.34,46.03 14.57,45.50 14.81,45.27 15.04,45.08 15.28,45.18 15.51,46.45 15.75,48.77 15.98,48.93 16.22,47.28 16.45,46.95 16.69,45.75 16.92,45.16 17.16,44.83 17.39,44.71 17.63,44.70 17.86,45.11 18.09,45.75 18.33,45.55 18.56,44.35 18.80,43.11 19.03,41.13 19.27,38.32 19.50,37.28 19.74,38.39 19.97,41.77 20.21,45.17 20.44,47.53 20.68,47.88 20.91,48.93 21.15,50.03 21.38,49.89 21.62,49.56 21.85,47.58 22.09,45.62 22.32,44.10 22.56,43.09 22.79,43.75 23.03,45.76 23.26,47.54 23.50,46.68 23.73,44.88 23.97,43.58 24.20,42.93 24.44,42.56 24.67,41.89 24.91,41.51 25.14,40.81 25.38,39.79 25.61,39.18 25.85,38.47 26.08,38.06 26.32,37.24 26.55,36.37 26.79,35.75 27.02,35.12 27.26,34.58 27.49,33.70 27.73,33.03 27.96,32.36 28.20,31.70 28.43,31.35 28.67,31.17 28.90,31.31 29.14,30.97 29.37,31.00 29.61,30.64 29.84,29.91 30.08,29.42 30.31,28.51 30.55,27.67 30.78,27.06 31.02,26.72 31.25,26.28 31.49,26.04 31.72,25.76 31.95,25.50 32.19,25.42 32.42,25.20 32.66,24.95 32.89,23.80 33.13,22.59 33.36,22.87 33.60,23.87 33.83,23.94 34.07,22.92 34.30,20.43 34.54,18.63 34.77,17.77 35.01,17.30 35.24,17.25 35.48,17.64 35.71,17.61 35.95,17.73 36.18,17.87 36.42,17.78 36.65,17.33 36.89,16.98 37.12,16.40 37.36,15.58 37.59,13.99 37.83,12.32 38.06,10.96 38.30,10.35 38.53,11.61 38.77,13.48 39.00,15.33 39.24,15.42 39.47,14.95 39.71,14.34 39.94,13.76 40.18,11.56 40.41,11.00 40.65,10.70 40.88,10.02 41.12,9.47 41.35,8.92 41.59,8.28 41.82,7.77 42.06,7.31 42.29,6.94 42.53,6.48 42.76,5.70 43.00,5.22 43.23,4.92 43.47,4.94 43.70,5.02 43.94,5.24 44.17,5.56 44.41,6.03 44.64,6.70 44.88,7.40 45.11,7.77 45.35,7.43 45.58,6.91 45.81,6.21 46.05,6.09 46.28,6.19 46.52,6.19 46.75,5.94 46.99,5.80 47.22,5.81 47.46,5.25 47.69,4.70 47.93,4.41 48.16,4.09 48.40,4.44 48.63,5.27 48.87,6.38 49.10,7.21 49.34,8.04 49.57,8.42 49.81,8.33 50.04,7.75 50.28,6.63 50.51,6.32 50.75,5.79 50.98,6.24 51.22,6.51 51.45,7.01 51.69,7.81 51.92,8.98 52.16,10.12 52.39,11.01 52.63,11.96 52.86,12.09 53.10,11.53 53.33,11.01 53.57,10.38 53.80,9.84 54.04,9.73 54.27,9.98 54.51,9.99 54.74,9.88 54.98,9.93 55.21,10.34 55.45,10.72 55.68,11.34 55.92,11.91 56.15,11.92 56.39,11.47 56.62,11.03 56.86,10.53 57.09,9.81 57.33,8.90 57.56,8.70 57.80,9.34 58.03,11.09 58.27,11.31 58.50,11.33 58.74,10.72 58.97,10.62 59.21,10.63 59.44,10.27 59.67,9.96 59.91,9.98 60.14,9.68 60.38,9.84 60.61,10.08 60.85,10.60 61.08,11.40 61.32,12.08 61.55,12.89 61.79,13.20 62.02,13.07 62.26,13.69 62.49,13.74 62.73,13.50 62.96,12.90 63.20,11.96 63.43,11.90 63.67,12.58 63.90,13.62 64.14,14.65 64.37,15.52 64.61,16.04 64.84,16.13 65.08,16.49 65.31,16.88 65.55,17.07 65.78,17.15 66.02,17.32 66.25,17.39 66.49,17.59 66.72,17.88 66.96,18.61 67.19,19.09 67.43,19.89 67.66,20.36 67.90,21.02 68.13,22.27 68.37,23.19 68.60,24.38 68.84,25.50 69.07,26.45 69.31,26.56 69.54,25.89 69.78,25.86 70.01,26.40 70.25,27.26 70.48,27.51 70.72,27.28 70.95,27.00 71.19,26.99 71.42,26.80 71.66,26.68 71.89,26.50 72.13,26.04 72.36,25.68 72.60,25.04 72.83,25.13 73.07,25.96 73.30,27.14 73.53,27.81 73.77,27.87 74.00,27.50 74.24,27.51 74.47,27.66 74.71,28.58 74.94,29.06 75.18,30.08 75.41,30.99 75.65,31.91 75.88,32.03 76.12,32.12 76.35,31.98 76.59,32.68 76.82,33.51 77.06,54.03 77.29,55.35 77.53,55.96 77.76,54.49 78.00,54.48 78.23,53.86 78.47,52.96 78.70,52.23 78.94,50.66 79.17,49.11 79.41,48.60 79.64,48.05 79.88,47.74 80.11,47.51 80.35,46.76 80.58,46.50 80.82,46.21 81.05,46.22 81.29,48.27 81.52,50.83 81.76,48.60 81.99,47.92 82.23,47.64 82.46,46.91 82.70,46.19 82.93,45.90 83.17,46.33 83.40,46.56 83.64,46.25 83.87,44.94 84.11,45.92 84.34,45.24 84.58,46.81 84.81,46.96 85.05,46.53 85.28,46.09 85.52,45.85 85.75,48.17 85.99,47.60 86.22,49.83 86.46,47.79 86.69,46.08 86.93,45.85 87.16,45.97 87.40,45.65 87.63,45.56 87.86,45.23 88.10,44.78 88.33,45.17 88.57,46.05 88.80,48.74 89.04,48.31 89.27,47.20 89.51,46.46 89.74,45.73 89.98,44.94 90.21,44.92 90.45,44.95 90.68,44.75 90.92,45.27 91.15,45.94 91.39,45.84 91.62,44.51 91.86,43.26 92.09,41.14 92.33,38.22 92.56,37.07 92.80,39.06 93.03,41.66 93.27,45.45 93.50,47.59 93.74,47.83 93.97,49.07 94.21,49.65 94.44,49.85 94.68,49.81 94.91,47.24 95.15,46.03 95.38,44.39 95.62,43.13 95.85,43.65 96.09,46.04 96.32,47.60 96.56,46.74 96.79,44.57 97.03,43.90 97.26,43.32 97.50,42.14 97.73,41.81 97.97,41.79 98.20,41.05 98.44,39.50 98.67,39.30 98.91,38.48 99.14,37.96 99.38,37.27 99.61,36.29 99.85,35.71 100.08,35.32 100.32,34.29 100.55,33.61 100.79,33.10 101.02,32.32 101.26,31.78 101.49,31.30 101.72,31.20 101.96,31.52 102.19,31.06 102.43,31.26 102.66,30.54 102.90,29.79 103.13,29.19 103.37,28.59 103.60,27.81 103.84,27.01 104.07,26.68 104.31,26.43 104.54,25.95 104.78,25.65 105.01,25.51 105.25,25.38 105.48,25.60 105.72,25.11 105.95,23.59 106.19,22.93 106.42,23.02 106.66,23.02 106.89,23.95 107.13,23.25 107.36,20.52 107.60,18.52 107.83,17.79 108.07,17.41 108.30,17.48 108.54,17.82 108.77,17.50 109.01,17.73 109.24,17.92 109.48,17.87 109.71,17.48 109.95,17.22 110.18,16.41 110.42,15.86 110.65,13.96 110.89,12.58 111.12,10.82 111.36,10.16 111.59,11.49 111.83,13.16 112.06,15.13 112.30,15.56 112.53,15.36 112.77,14.43 113.00,13.79 113.24,11.78 113.47,11.08 113.71,10.86 113.94,9.87 114.18,9.51 114.41,8.79 114.65,8.33 114.88,7.75 115.12,7.33 115.35,7.04 115.58,6.37 115.82,5.82 116.05,5.21 116.29,4.99 116.52,4.70 116.76,4.98 116.99,5.43 117.23,5.79 117.46,5.99 117.70,6.85 117.93,7.20 118.17,7.79 118.40,7.43 118.64,6.80 118.87,6.58 119.11,6.18 119.34,6.50 119.58,6.09 119.81,5.77 120.05,5.74 120.28,5.52 120.52,5.43 120.75,4.73 120.99,4.44 121.22,4.00 121.46,4.24 121.69,5.16 121.93,6.37 122.16,7.11 122.40,7.72 122.63,8.59 122.87,8.16 123.10,7.55 123.34,6.55 123.57,6.41 123.81,6.03 124.04,6.30 124.28,6.57 124.51,7.15 124.75,7.25 124.98,8.83 125.22,9.60 125.45,11.26 125.69,11.64 125.92,12.00 126.16,11.40 126.39,10.91 126.63,10.48 126.86,9.76 127.10,9.85 127.33,9.95 127.57,9.61 127.80,10.03 128.04,10.07 128.27,10.33 128.51,10.89 128.74,10.97 128.98,12.01 129.21,12.19 129.44,11.27 129.68,11.13 129.91,10.75 130.15,9.57 130.38,9.07 130.62,8.78 130.85,9.36 131.09,11.20 131.32,11.42 131.56,11.54 131.79,10.90 132.03,10.96 132.26,10.38 132.50,10.16 132.73,9.97 132.97,9.80 133.20,9.66 133.44,9.85 133.67,10.12 133.91,10.65 134.14,11.22 134.38,11.98 134.61,12.83 134.85,13.24 135.08,13.36 135.32,13.80 135.55,13.57 135.79,13.67 136.02,12.86 136.26,11.78 136.49,11.97 136.73,12.60 136.96,13.81 137.20,14.66 137.43,15.53 137.67,16.00 137.90,16.10 138.14,16.39 138.37,17.28 138.61,17.28 138.84,17.54 139.08,17.55 139.31,17.92 139.55,18.07 139.78,17.18 140.02,18.05 140.25,18.79 140.49,19.61 140.72,20.29 140.96,20.58 141.19,22.33 141.43,22.88 141.66,24.50 141.90,25.99 142.13,26.52 142.37,26.72 142.60,25.98 142.84,25.54 143.07,26.51 143.30,27.60 143.54,27.82 143.77,27.36 144.01,26.73 144.24,27.35 144.48,26.56 144.71,26.60 144.95,26.52 145.18,26.03 145.42,25.62 145.65,25.04 145.89,25.25 146.12,26.05 146.36,27.01 146.59,27.82 146.83,27.68 147.06,27.40 147.30,27.56 147.53,27.96 147.77,27.98 148.00,29.04 148.24,30.35 148.47,31.09 148.71,31.55 148.94,31.89 149.18,32.18 149.41,31.63 149.65,32.81 149.88,33.14 150.12,53.96 150.35,54.64 150.59,55.27 150.82,55.24 151.06,55.02 151.29,52.97 151.53,53.46 151.76,51.90 152.00,49.67 152.23,48.07 152.47,49.39 152.70,47.76 152.94,48.07 153.17,47.69 153.41,45.72 153.64,45.68 153.88,46.74 154.11,45.91 154.35,48.76 154.58,51.43 154.82,48.91 155.05,48.06 155.29,48.04 155.52,45.63 155.76,44.84 155.99,46.47 156.23,46.57 156.46,44.60 156.70,46.24 156.93,44.73 157.16,46.25 157.40,45.75 157.63,47.09 157.87,47.48 158.10,45.08 158.34,44.72 158.57,46.19 158.81,46.68 159.04,48.05 159.28,48.08 159.51,47.01 159.75,46.08 159.98,45.66 160.22,45.44 160.45,45.08 160.69,45.99 160.92,45.45 161.16,44.25 161.39,44.72 161.63,45.90 161.86,48.22 162.10,49.47 162.33,47.88 162.57,45.59 162.80,45.09 163.04,44.72 163.27,44.59 163.51,44.72 163.74,45.12 163.98,44.74 164.21,45.72 164.45,46.06 164.68,44.35 164.92,42.12 165.15,39.53 165.39,38.26 165.62,36.68 165.86,39.66 166.09,42.56 166.33,46.40 166.56,46.40 166.80,48.58 167.03,47.71 167.27,50.12 167.50,49.27 167.74,48.17 167.97,46.66 168.21,45.54 168.44,44.82 168.68,42.45 168.91,44.32 169.15,46.17 169.38,45.73 169.62,47.47 169.85,44.96 170.09,43.69 170.32,43.51 170.56,41.66 170.79,41.45 171.02,41.45 171.26,41.77 171.49,39.12 171.73,38.68 171.96,38.56 172.20,37.03 172.43,37.40 172.67,36.82 172.90,35.78 173.14,35.60 173.37,34.64 173.61,33.63 173.84,33.74 174.08,32.17 174.31,31.64 174.55,31.34 174.78,31.34 175.02,31.55 175.25,31.65 175.49,31.64 175.72,30.09 175.96,29.97 176.19,29.85 176.43,28.39 176.66,28.45 176.90,27.53 177.13,26.70 177.37,26.37 177.60,25.92 177.84,25.38 178.07,25.35 178.31,26.22 178.54,25.23 178.78,25.17 179.01,24.58 179.25,24.03 179.48,22.66 179.72,23.94 179.95,24.05 180.19,22.07 180.42,20.09 180.66,18.03 180.89,18.02 181.13,18.31 181.36,17.57 181.60,18.22 181.83,17.39 182.07,17.97 182.30,18.73 182.54,18.19 182.77,17.63 183.01,17.63 183.24,17.27 183.48,15.79 183.71,14.31 183.95,13.00 184.18,10.74 184.42,10.05 184.65,11.39 184.88,12.83 185.12,14.61 185.35,15.58 185.59,14.53 185.82,16.08 186.06,14.66 186.29,11.37 186.53,11.42 186.76,11.74 187.00,10.55 187.23,9.90 187.47,8.95 187.70,8.24 187.94,7.66 188.17,7.19 188.41,6.85 188.64,6.52 188.88,6.26 189.11,5.06 189.35,5.30 189.58,4.32 189.82,4.87 190.05,5.17 190.29,5.88 190.52,6.10 190.76,6.92 190.99,7.63 191.23,7.81 191.46,7.14 191.70,7.29 191.93,7.14 192.17,5.94 192.40,6.44 192.64,6.23 192.87,6.27 193.11,6.08 193.34,5.68 193.58,5.19 193.81,4.81 194.05,4.60 194.28,4.48 194.52,4.53 194.75,5.76 194.99,6.99 195.22,7.39 195.46,8.19 195.69,8.77 195.93,9.13 196.16,7.25 196.40,7.28 196.63,6.06 196.87,6.56 197.10,6.30 197.34,7.38 197.57,7.68 197.81,7.83 198.04,9.49 198.28,11.10 198.51,12.18 198.74,12.61 198.98,12.32 199.21,10.65 199.45,11.61 199.68,10.63 199.92,9.95 200.15,9.58 200.39,9.48 200.62,9.39 200.86,10.71 201.09,10.75 201.33,11.03 201.56,11.40 201.80,10.74 202.03,11.73 202.27,11.69 202.50,11.32 202.74,10.71 202.97,11.34 203.21,9.97 203.44,9.43 203.68,8.02 203.91,9.29 204.15,9.81 204.38,10.64 204.62,11.65 204.85,10.54 205.09,10.62 205.32,9.31 205.56,10.40 205.79,10.14 206.03,10.05 206.26,9.12 206.50,10.09 206.73,10.56 206.97,10.56 207.20,11.13 207.44,11.90 207.67,12.82 207.91,12.94 208.14,14.35 208.38,13.51 208.61,13.78 208.85,13.40 209.08,11.89 209.32,11.79 209.55,12.40 209.79,12.97 210.02,14.38 210.26,15.00 210.49,15.23 210.73,16.46 210.96,16.18 211.20,15.69 211.43,17.32 211.67,16.46 211.90,17.45 212.14,18.17 212.37,16.46 212.60,18.55 212.84,18.40 213.07,17.65 213.31,19.10 213.54,20.68 213.78,19.77 214.01,19.77 214.25,21.45 214.48,23.00 214.72,24.56 214.95,26.05 215.19,25.27 215.42,26.27 215.66,25.99 215.89,24.98 216.13,26.52 216.36,28.43 216.60,27.98 216.83,27.49 217.07,27.08 217.30,26.70 217.54,25.30 217.77,27.35 218.01,26.27 218.24,25.17 218.48,26.37 218.71,25.04 218.95,26.11 219.18,25.51 219.42,27.26 219.65,27.25 219.89,26.91 220.12,27.23 220.36,26.86 220.59,27.79 220.83,27.68 221.06,28.89 221.30,30.03 221.53,31.17 221.77,30.96 222.00,31.88 222.24,31.22 222.47,32.13 222.71,32.61 222.94,33.61 223.18,54.74 223.41,50.87 223.65,51.04 223.88,51.04 224.12,51.04 224.35,52.07 224.59,52.07 224.82,52.07 225.06,45.81 225.29,50.24 225.53,50.24 225.76,50.24 226.00,44.33 226.23,49.63 226.47,49.63 226.70,46.25 226.93,46.25 227.17,46.25 227.40,48.55 227.64,48.55 227.87,48.55 228.11,48.55 228.34,46.67 228.58,46.67 228.81,46.67 229.05,46.67 229.28,44.88 229.52,44.88 229.75,44.88 229.99,44.88 230.22,48.32 230.46,43.37 230.69,43.37 230.93,43.62 231.16,43.62 231.40,43.62 231.63,43.62 231.87,43.11 232.10,47.33 232.34,47.33 232.57,44.41 232.81,44.41 233.04,44.41 233.28,43.09 233.51,43.09 233.75,45.74 233.98,45.74 234.22,44.63 234.45,44.63 234.69,44.63 234.92,45.22 235.16,45.22 235.39,45.22 235.63,43.22 235.86,43.22 236.10,43.22 236.33,43.82 236.57,43.82 236.80,43.82 237.04,45.85 237.27,45.85 237.51,45.85 237.74,40.97 237.98,40.97 238.21,40.97 238.45,36.11 238.68,36.11 238.92,41.81 239.15,41.81 239.39,41.81 239.62,41.81 239.86,46.96 240.09,46.96 240.33,46.96 240.56,43.95 240.79,43.95 241.03,43.95 241.26,43.32 241.50,43.32 241.73,43.32 241.97,44.51 242.20,44.51 242.44,44.51 242.67,44.51 242.91,39.31 243.14,39.31 243.38,43.74 243.61,38.64 243.85,38.64 244.08,38.64 244.32,38.64 244.55,37.12 244.79,37.12 245.02,37.12 245.26,38.20 245.49,38.20 245.73,34.79 245.96,34.79 246.20,37.13 246.43,34.78 246.67,34.78 246.90,34.78 247.14,33.01 247.37,33.01 247.61,32.78 247.84,32.78 248.08,32.78 248.31,33.40 248.55,33.40 248.78,33.46 249.02,33.46 249.25,33.46 249.49,28.81 249.72,28.81 249.96,28.81 250.19,28.81 250.43,27.76 250.66,27.76 250.90,27.76 251.13,25.66 251.37,25.66 251.60,26.19 251.84,26.19 252.07,26.19 252.31,26.24 252.54,26.24 252.78,26.24 253.01,25.04 253.25,25.04 253.48,25.04 253.72,18.42 253.95,18.42 254.19,19.18 254.42,19.18 254.65,21.15 254.89,21.15 255.12,21.15 255.36,23.90 255.59,19.20 255.83,19.20 256.06,19.20 256.30,23.17 256.53,19.19 256.77,19.19 257.00,19.19 257.24,11.14 257.47,11.14 257.71,15.64 257.94,15.64 258.18,17.03 258.41,17.03 258.65,17.03 258.88,14.28 259.12,14.28 259.35,14.28 259.59,14.29 259.82,14.29 260.06,14.29 260.29,11.92 260.53,11.92 260.76,11.92 261.00,9.66 261.23,9.66 261.47,9.66 261.70,9.23 261.94,9.23 262.17,5.70 262.41,5.47 262.64,5.47 262.88,5.47 263.11,5.47 263.35,5.61 263.58,8.00 263.82,8.00 264.05,8.00 264.29,7.19 264.52,7.19 264.76,7.19 264.99,8.37 265.23,8.37 265.46,8.37 265.70,7.89 265.93,7.89 266.17,7.89 266.40,5.74 266.64,5.74 266.87,5.74 267.11,4.75 267.34,4.75 267.58,4.75 267.81,7.68 268.05,7.73 268.28,7.73 268.51,10.37 268.75,10.37 268.98,10.37 269.22,11.49 269.45,11.49 269.69,6.31 269.92,8.69 270.16,8.69 270.39,8.69 270.63,13.35 270.86,9.35 271.10,9.35 271.33,12.13 271.57,12.13 271.80,12.13 272.04,10.77 272.27,10.77 272.51,13.65 272.74,13.65 272.98,13.65 273.21,12.92 273.45,12.92 273.68,12.64 273.92,12.64 274.15,12.64 274.39,13.54 274.62,13.54 274.86,13.54 275.09,14.75 275.33,14.75 275.56,12.56 275.80,12.56 276.03,12.56 276.27,8.44 276.50,8.44 276.74,8.44 276.97,11.36 277.21,6.56 277.44,6.56 277.68,9.17 277.91,9.17 278.15,9.17 278.38,6.42 278.62,6.42 278.85,9.26 279.09,9.26 279.32,8.22 279.56,8.22 279.79,10.99 280.03,10.99 280.26,13.01 280.50,13.01 280.73,13.01 280.97,13.82 281.20,13.82 281.44,13.82 281.67,13.82 281.91,12.55 282.14,12.55 282.37,12.55 282.61,13.35 282.84,13.35 283.08,15.09 283.31,17.11 283.55,17.11 283.78,17.11 284.02,16.96 284.25,16.96 284.49,16.96 284.72,13.66 284.96,19.85 285.19,19.85 285.43,14.31 285.66,14.31 285.90,19.13 286.13,19.13 286.37,19.13 286.60,23.76 286.84,16.96 287.07,16.96 287.31,16.96 287.54,21.88 287.78,21.88 288.01,21.88 288.25,26.34 288.48,26.34 288.72,26.34 288.95,23.74 289.19,30.90 289.42,30.90 289.66,29.63 289.89,29.63 290.13,29.63 290.36,27.98 290.60,27.98 290.83,25.10 291.07,25.10 291.30,25.10 291.54,27.68 291.77,27.68 292.01,27.68 292.24,25.63 292.48,25.63 292.71,24.07 292.95,24.07 293.18,24.07 293.42,23.58 293.65,23.58 293.89,23.58 294.12,27.71 294.36,27.71 294.59,27.71 294.83,30.84 295.06,30.84 295.30,26.18 295.53,30.32 295.77,30.32 296.00,30.32" />
</svg>