<svg width="300" height="60" xmlns="http://www.w3.org/2000/svg">
  <polyline fill="rgba(255,200,0,0.3)" stroke="#ffbb00" stroke-width="2" points="4.00,4.22 5.14,4.25 6.28,4.93 7.42,6.39 8.56,7.62 9.70,9.38 10.84,11.01 11.98,12.77 13.12,13.97 14.27,14.62 15.41,15.18 16.55,15.47 17.69,15.85 18.83,15.95 19.97,15.93 21.11,15.55 22.25,14.93 23.39,13.94 24.53,13.01 25.67,12.22 26.81,12.03 27.95,12.06 29.09,12.52 30.23,13.66 31.38,15.88 32.52,18.14 33.66,19.89 34.80,21.31 35.94,22.26 37.08,23.67 38.22,25.03 39.36,25.52 40.50,27.16 41.64,28.59 42.78,29.90 43.92,29.80 45.06,30.99 46.20,32.05 47.34,32.36 48.48,34.66 49.62,36.81 50.77,39.01 51.91,41.04 53.05,42.44 54.19,43.20 55.33,43.47 56.47,43.72 57.61,44.24 58.75,45.38 59.89,47.14 61.03,49.56 62.17,51.72 63.31,53.48 64.45,53.31 65.59,52.12 66.73,51.37 67.88,50.58 69.02,4.27 70.16,4.28 71.30,5.03 72.44,6.49 73.58,7.73 74.72,9.48 75.86,11.05 77.00,12.86 78.14,14.07 79.28,14.71 80.42,15.27 81.56,15.57 82.70,15.90 83.84,16.05 84.98,15.96 86.12,15.63 87.27,14.99 88.41,14.01 89.55,13.06 90.69,12.30 91.83,12.12 92.97,12.13 94.11,12.59 95.25,13.78 96.39,16.00 97.53,18.20 98.67,19.98 99.81,21.37 100.95,22.32 102.09,4.00 103.23,4.21 104.38,4.70 105.52,6.14 106.66,7.53 107.80,9.40 108.94,10.88 110.08,13.07 111.22,14.11 112.36,14.62 113.50,15.59 114.64,15.86 115.78,15.80 116.92,16.10 118.06,15.98 119.20,15.93 120.34,14.87 121.48,14.12 122.62,12.90 123.77,12.57 124.91,12.88 126.05,12.38 127.19,12.62 128.33,13.60 129.47,15.45 130.61,17.70 131.75,19.60 132.89,21.10 134.03,22.87 135.17,23.35 136.31,25.17 137.45,26.34 138.59,26.89 139.73,29.37 140.88,30.48 142.02,29.58 143.16,31.37 144.30,31.82 145.44,31.82 146.58,33.91 147.72,36.65 148.86,38.92 150.00,41.12 151.14,42.53 152.28,44.05 153.42,43.90 154.56,43.93 155.70,44.13 156.84,45.29 157.98,46.70 159.12,49.17 160.27,51.09 161.41,53.44 162.55,53.77 163.69,52.92 164.83,51.57 165.97,50.72 167.11,4.13 168.25,5.42 169.39,5.18 170.53,7.11 171.67,7.11 172.81,9.21 173.95,11.72 175.09,14.31 176.23,14.61 177.38,15.54 178.52,15.76 179.66,16.12 180.80,16.45 181.94,16.39 183.08,16.06 184.22,15.97 185.36,14.23 186.50,14.35 187.64,12.25 188.78,12.63 189.92,11.63 191.06,12.26 192.20,12.57 193.34,14.76 194.48,16.78 195.62,19.34 196.77,21.86 197.91,20.03 199.05,24.49 200.19,24.49 201.33,24.88 202.47,24.76 203.61,25.01 204.75,29.10 205.89,30.72 207.03,29.01 208.17,32.68 209.31,32.86 210.45,34.22 211.59,36.51 212.73,38.82 213.88,41.26 215.02,43.28 216.16,44.09 217.30,44.09 218.44,43.97 219.58,44.01 220.72,45.57 221.86,45.54 223.00,47.74 224.14,50.45 225.28,53.91 226.42,53.94 227.56,53.00 228.70,51.77 229.84,51.08 230.98,50.20 232.12,4.91 233.27,13.82 234.41,13.82 235.55,10.39 236.69,10.39 237.83,10.39 238.97,23.39 240.11,17.97 241.25,17.97 242.39,17.97 243.53,26.19 244.67,18.36 245.81,18.36 246.95,18.36 248.09,19.66 249.23,14.60 250.38,14.60 251.52,14.60 252.66,13.31 253.80,13.31 254.94,11.96 256.08,12.41 257.22,12.41 258.36,12.41 259.50,15.62 260.64,15.62 261.78,15.62 262.92,16.52 264.06,16.52 265.20,16.52 266.34,16.52 267.48,15.89 268.62,15.89 269.77,28.28 270.91,25.52 272.05,25.52 273.19,25.52 274.33,29.85 275.47,29.85 276.61,29.85 277.75,37.31 278.89,37.31 280.03,37.31 281.17,43.12 282.31,43.12 283.45,43.12 284.59,43.12 285.73,49.59 286.88,49.59 288.02,49.59 289.16,56.00 290.30,56.00 291.44,55.88 292.58,49.62 293.72,49.62 294.86,49.62 296.00,44.47" />
</svg>