<svg width="300" height="60" xmlns="http://www.w3.org/2000/svg">
  <polyline fill="rgba(255,200,0,0.3)" stroke="#ffbb00" stroke-width="2" points="4.00,55.07 4.28,54.92 4.56,54.80 4.84,54.72 5.12,54.66 5.39,54.44 5.67,54.16 5.95,53.93 6.23,53.57 6.51,52.80 6.79,52.18 7.07,51.45 7.35,50.58 7.63,49.20 7.90,48.47 8.18,47.18 8.46,45.76 8.74,44.50 9.02,43.89 9.30,43.64 9.58,43.43 9.86,42.85 10.14,42.12 10.41,41.36 10.69,40.74 10.97,41.01 11.25,40.58 11.53,39.16 11.81,38.03 12.09,37.23 12.37,36.12 12.65,34.55 12.92,33.36 13.20,32.49 13.48,31.61 13.76,31.68 14.04,32.14 14.32,32.51 14.60,32.89 14.88,33.17 15.16,34.07 15.43,34.48 15.71,33.16 15.99,32.72 16.27,31.45 16.55,30.02 16.83,29.41 17.11,29.57 17.39,29.98 17.67,30.81 17.94,31.53 18.22,32.05 18.50,32.04 18.78,32.13 19.06,32.56 19.34,33.05 19.62,34.09 19.90,36.36 20.18,32.26 20.45,30.76 20.73,30.42 21.01,30.34 21.29,30.25 21.57,30.83 21.85,29.90 22.13,29.20 22.41,29.00 22.69,28.74 22.96,28.35 23.24,27.71 23.52,26.81 23.80,26.30 24.08,26.23 24.36,26.46 24.64,27.17 24.92,27.96 25.20,28.59 25.47,29.19 25.75,30.74 26.03,33.64 26.31,34.61 26.59,35.81 26.87,35.23 27.15,34.60 27.43,34.73 27.71,35.28 27.98,36.53 28.26,38.13 28.54,38.76 28.82,38.06 29.10,37.22 29.38,35.59 29.66,34.22 29.94,34.31 30.22,33.95 30.49,33.64 30.77,33.55 31.05,33.04 31.33,32.52 31.61,32.14 31.89,31.10 32.17,31.72 32.45,33.06 32.73,33.91 33.00,34.32 33.28,34.77 33.56,34.77 33.84,34.74 34.12,36.17 34.40,37.72 34.68,39.23 34.96,37.83 35.24,36.05 35.51,34.79 35.79,35.63 36.07,35.65 36.35,35.55 36.63,35.96 36.91,36.42 37.19,37.50 37.47,37.31 37.75,37.39 38.02,37.74 38.30,38.06 38.58,38.38 38.86,38.79 39.14,42.23 39.42,42.93 39.70,43.18 39.98,42.90 40.26,40.34 40.53,38.66 40.81,37.26 41.09,35.97 41.37,35.24 41.65,34.11 41.93,32.95 42.21,31.51 42.49,30.69 42.77,30.13 43.04,29.35 43.32,28.38 43.60,27.51 43.88,26.95 44.16,26.62 44.44,26.61 44.72,26.45 45.00,26.12 45.28,26.17 45.55,27.79 45.83,27.94 46.11,27.90 46.39,28.17 46.67,28.74 46.95,27.75 47.23,28.31 47.51,27.52 47.79,27.91 48.06,28.27 48.34,28.64 48.62,27.57 48.90,25.79 49.18,23.14 49.46,23.77 49.74,25.80 50.02,31.14 50.30,32.65 50.57,34.01 50.85,34.74 51.13,34.73 51.41,35.38 51.69,35.64 51.97,35.53 52.25,35.03 52.53,34.75 52.81,34.25 53.09,34.04 53.36,34.12 53.64,34.01 53.92,34.18 54.20,34.25 54.48,33.17 54.76,32.69 55.04,31.78 55.32,31.29 55.60,30.87 55.87,30.72 56.15,30.82 56.43,30.89 56.71,30.18 56.99,26.61 57.27,26.36 57.55,26.01 57.83,26.70 58.11,28.28 58.38,28.39 58.66,28.11 58.94,29.00 59.22,28.61 59.50,28.39 59.78,28.50 60.06,28.50 60.34,28.93 60.62,29.08 60.89,29.38 61.17,29.76 61.45,29.01 61.73,28.03 62.01,27.06 62.29,26.63 62.57,27.57 62.85,25.62 63.13,26.21 63.40,27.41 63.68,27.70 63.96,27.33 64.24,24.62 64.52,24.24 64.80,24.11 65.08,23.98 65.36,22.83 65.64,21.04 65.91,20.12 66.19,19.95 66.47,19.58 66.75,19.21 67.03,18.61 67.31,18.24 67.59,18.11 67.87,18.43 68.15,18.07 68.42,19.04 68.70,19.72 68.98,19.64 69.26,19.92 69.54,22.04 69.82,22.64 70.10,22.42 70.38,22.52 70.66,22.05 70.93,21.70 71.21,21.22 71.49,20.82 71.77,20.79 72.05,20.90 72.33,20.67 72.61,19.93 72.89,19.78 73.17,19.71 73.44,19.25 73.72,18.45 74.00,17.99 74.28,17.20 74.56,17.07 74.84,15.79 75.12,16.16 75.40,16.44 75.68,16.39 75.95,16.27 76.23,16.50 76.51,16.74 76.79,16.59 77.07,55.64 77.35,55.55 77.63,55.40 77.91,55.33 78.19,55.22 78.46,55.05 78.74,54.84 79.02,54.51 79.30,54.13 79.58,53.22 79.86,52.77 80.14,51.92 80.42,50.87 80.70,50.01 80.97,48.66 81.25,47.57 81.53,46.35 81.81,44.95 82.09,44.37 82.37,44.25 82.65,44.03 82.93,43.38 83.21,42.73 83.48,42.15 83.76,41.66 84.04,41.56 84.32,41.23 84.60,39.65 84.88,38.66 85.16,37.50 85.44,36.52 85.72,35.59 85.99,34.14 86.27,33.17 86.55,32.33 86.83,32.33 87.11,32.94 87.39,33.62 87.67,33.37 87.95,33.95 88.23,35.19 88.50,34.44 88.78,33.67 89.06,33.46 89.34,31.83 89.62,30.99 89.90,30.15 90.18,30.35 90.46,30.89 90.74,31.03 91.01,31.78 91.29,32.38 91.57,32.62 91.85,32.81 92.13,32.92 92.41,33.80 92.69,34.97 92.97,36.73 93.25,32.59 93.52,31.45 93.80,30.96 94.08,30.92 94.36,31.00 94.64,31.14 94.92,30.45 95.20,30.00 95.48,29.75 95.76,29.45 96.03,29.12 96.31,28.67 96.59,27.71 96.87,26.92 97.15,26.54 97.43,27.31 97.71,28.15 97.99,28.46 98.27,29.58 98.54,29.65 98.82,31.78 99.10,33.83 99.38,35.02 99.66,36.17 99.94,35.70 100.22,35.17 100.50,35.09 100.78,35.72 101.05,36.88 101.33,38.58 101.61,39.18 101.89,38.76 102.17,37.70 102.45,35.62 102.73,35.01 103.01,34.56 103.29,34.47 103.56,34.42 103.84,34.08 104.12,33.47 104.40,32.94 104.68,32.68 104.96,31.89 105.24,32.23 105.52,33.33 105.80,34.82 106.07,34.85 106.35,34.96 106.63,35.30 106.91,35.72 107.19,36.77 107.47,38.48 107.75,39.62 108.03,37.99 108.31,35.91 108.58,35.40 108.86,36.28 109.14,35.92 109.42,35.83 109.70,36.48 109.98,36.87 110.26,37.50 110.54,38.12 110.82,38.18 111.09,38.39 111.37,38.72 111.65,38.92 111.93,39.95 112.21,42.09 112.49,43.52 112.77,43.26 113.05,43.19 113.33,40.66 113.60,39.22 113.88,37.79 114.16,37.23 114.44,36.30 114.72,34.38 115.00,33.21 115.28,32.30 115.56,31.67 115.84,30.63 116.11,29.49 116.39,28.88 116.67,27.64 116.95,27.45 117.23,27.29 117.51,26.77 117.79,27.17 118.07,26.91 118.35,28.29 118.62,27.89 118.90,29.02 119.18,28.08 119.46,28.48 119.74,29.07 120.02,29.07 120.30,29.04 120.58,28.38 120.86,29.05 121.13,28.85 121.41,29.10 121.69,28.85 121.97,26.05 122.25,23.12 122.53,24.64 122.81,27.29 123.09,32.90 123.37,33.32 123.64,34.83 123.92,34.61 124.20,34.87 124.48,35.62 124.76,36.29 125.04,35.92 125.32,35.62 125.60,35.20 125.88,34.80 126.15,34.46 126.43,34.62 126.71,34.53 126.99,34.54 127.27,34.75 127.55,33.38 127.83,33.15 128.11,32.59 128.39,31.19 128.66,31.36 128.94,31.01 129.22,31.35 129.50,31.11 129.78,30.18 130.06,27.39 130.34,27.16 130.62,26.44 130.90,27.16 131.17,28.05 131.45,28.11 131.73,28.76 132.01,29.37 132.29,29.05 132.57,28.98 132.85,28.91 133.13,28.97 133.41,29.34 133.68,29.57 133.96,29.98 134.24,29.84 134.52,28.94 134.80,27.59 135.08,27.31 135.36,27.35 135.64,27.35 135.92,26.32 136.19,25.84 136.47,27.71 136.75,27.64 137.03,26.65 137.31,25.00 137.59,24.77 137.87,24.58 138.15,24.42 138.43,23.20 138.70,21.12 138.98,20.52 139.26,20.49 139.54,19.86 139.82,19.35 140.10,18.90 140.38,18.10 140.66,18.66 140.94,18.28 141.21,18.34 141.49,19.85 141.77,20.20 142.05,20.13 142.33,20.55 142.61,22.36 142.89,22.72 143.17,22.55 143.45,22.88 143.72,22.45 144.00,22.00 144.28,21.13 144.56,21.22 144.84,21.11 145.12,21.35 145.40,21.21 145.68,20.53 145.96,20.38 146.23,19.64 146.51,19.59 146.79,17.70 147.07,18.77 147.35,17.40 147.63,17.95 147.91,15.59 148.19,17.02 148.47,15.83 148.74,16.79 149.02,16.66 149.30,17.06 149.58,17.11 149.86,16.94 150.14,55.07 150.42,54.86 150.70,55.00 150.98,54.84 151.26,54.66 151.53,54.76 151.81,54.39 152.09,53.90 152.37,53.90 152.65,53.04 152.93,52.13 153.21,51.78 153.49,50.04 153.77,49.25 154.04,48.81 154.32,46.95 154.60,45.14 154.88,44.10 155.16,44.10 155.44,43.63 155.72,43.19 156.00,42.95 156.28,42.40 156.55,41.44 156.83,41.56 157.11,41.05 157.39,41.26 157.67,39.31 157.95,38.98 158.23,37.28 158.51,37.00 158.79,34.72 159.06,34.60 159.34,32.46 159.62,32.73 159.90,32.03 160.18,33.06 160.46,34.24 160.74,32.87 161.02,33.82 161.30,34.01 161.57,34.85 161.85,33.01 162.13,32.94 162.41,30.89 162.69,30.31 162.97,30.47 163.25,29.90 163.53,31.02 163.81,29.55 164.08,30.88 164.36,31.99 164.64,31.36 164.92,32.22 165.20,33.06 165.48,33.97 165.76,34.52 166.04,35.60 166.32,31.80 166.59,30.99 166.87,31.22 167.15,30.20 167.43,30.89 167.71,31.34 167.99,29.47 168.27,29.52 168.55,29.87 168.83,28.78 169.10,29.29 169.38,27.70 169.66,28.10 169.94,27.05 170.22,25.33 170.50,26.58 170.78,26.79 171.06,28.70 171.34,28.84 171.61,31.12 171.89,32.64 172.17,32.64 172.45,34.08 172.73,35.53 173.01,35.08 173.29,34.41 173.57,34.32 173.85,35.22 174.12,36.60 174.40,37.74 174.68,38.57 174.96,37.62 175.24,36.43 175.52,34.90 175.80,34.94 176.08,34.48 176.36,33.99 176.63,33.55 176.91,33.58 177.19,33.26 177.47,32.91 177.75,31.84 178.03,32.37 178.31,31.63 178.59,33.05 178.87,33.93 179.14,35.30 179.42,34.02 179.70,33.97 179.98,35.20 180.26,36.15 180.54,38.45 180.82,38.10 181.10,37.41 181.38,34.38 181.65,34.45 181.93,35.22 182.21,36.03 182.49,35.89 182.77,35.59 183.05,37.30 183.33,37.02 183.61,38.61 183.89,37.98 184.16,37.65 184.44,38.77 184.72,38.56 185.00,39.42 185.28,41.98 185.56,43.32 185.84,43.18 186.12,42.67 186.40,40.18 186.67,38.60 186.95,37.62 187.23,37.30 187.51,37.50 187.79,34.31 188.07,34.52 188.35,31.53 188.63,31.53 188.91,29.41 189.18,29.76 189.46,27.82 189.74,28.24 190.02,26.50 190.30,27.30 190.58,25.97 190.86,26.55 191.14,27.58 191.42,29.04 191.69,29.04 191.97,30.39 192.25,26.64 192.53,27.11 192.81,27.46 193.09,27.65 193.37,28.00 193.65,28.49 193.93,29.26 194.20,30.42 194.48,27.46 194.76,28.46 195.04,24.52 195.32,27.24 195.60,27.41 195.88,27.41 196.16,30.16 196.44,32.35 196.71,34.63 196.99,34.12 197.27,34.75 197.55,35.33 197.83,35.54 198.11,35.12 198.39,34.88 198.67,34.44 198.95,34.19 199.22,34.19 199.50,34.12 199.78,34.07 200.06,34.05 200.34,33.98 200.62,33.40 200.90,32.98 201.18,32.51 201.46,27.95 201.73,28.32 202.01,29.58 202.29,30.24 202.57,30.66 202.85,25.86 203.13,26.38 203.41,27.98 203.69,24.42 203.97,27.07 204.24,28.42 204.52,25.48 204.80,27.38 205.08,28.48 205.36,28.43 205.64,28.66 205.92,28.57 206.20,28.52 206.48,28.62 206.75,29.13 207.03,29.39 207.31,28.79 207.59,28.69 207.87,26.97 208.15,25.34 208.43,27.20 208.71,25.69 208.99,23.55 209.26,26.76 209.54,25.62 209.82,25.62 210.10,27.27 210.38,25.11 210.66,25.16 210.94,23.85 211.22,23.27 211.50,22.84 211.77,20.56 212.05,18.59 212.33,19.26 212.61,17.84 212.89,18.84 213.17,18.84 213.45,17.07 213.73,18.33 214.01,16.93 214.28,18.55 214.56,18.24 214.84,19.78 215.12,19.41 215.40,20.76 215.68,21.48 215.96,20.85 216.24,22.41 216.52,22.18 216.79,21.62 217.07,21.67 217.35,21.09 217.63,20.44 217.91,19.95 218.19,19.65 218.47,20.86 218.75,20.16 219.03,19.28 219.30,18.09 219.58,16.51 219.86,14.88 220.14,18.35 220.42,17.14 220.70,15.56 220.98,14.32 221.26,13.38 221.54,12.33 221.81,16.31 222.09,16.31 222.37,16.48 222.65,16.48 222.93,16.27 223.21,56.00 223.49,56.00 223.77,56.00 224.05,54.74 224.32,55.12 224.60,55.12 224.88,55.12 225.16,53.28 225.44,53.28 225.72,53.28 226.00,53.28 226.28,51.74 226.56,49.57 226.83,49.57 227.11,49.57 227.39,48.48 227.67,45.38 227.95,45.38 228.23,45.38 228.51,45.83 228.79,43.13 229.07,43.13 229.34,43.13 229.62,43.89 229.90,43.89 230.18,40.87 230.46,40.68 230.74,40.68 231.02,40.68 231.30,40.68 231.58,40.54 231.85,34.67 232.13,34.67 232.41,35.37 232.69,35.37 232.97,35.37 233.25,37.54 233.53,37.54 233.81,33.88 234.09,33.88 234.36,35.53 234.64,35.53 234.92,35.53 235.20,34.81 235.48,30.57 235.76,30.57 236.04,32.37 236.32,32.37 236.60,32.37 236.87,32.37 237.15,34.97 237.43,34.97 237.71,31.13 237.99,34.02 238.27,34.02 238.55,34.02 238.83,35.16 239.11,35.16 239.38,35.16 239.66,34.81 239.94,34.81 240.22,30.20 240.50,31.25 240.78,31.25 241.06,31.25 241.34,31.25 241.62,32.04 241.89,32.04 242.17,32.04 242.45,28.73 242.73,28.73 243.01,28.73 243.29,28.73 243.57,32.50 243.85,28.69 244.13,28.69 244.40,33.74 244.68,33.74 244.96,33.74 245.24,33.74 245.52,35.37 245.80,35.37 246.08,35.37 246.36,36.16 246.64,36.16 246.91,36.16 247.19,37.91 247.47,37.91 247.75,37.91 248.03,34.81 248.31,36.00 248.59,36.00 248.87,36.00 249.15,33.46 249.43,33.46 249.70,33.46 249.98,34.74 250.26,34.74 250.54,34.74 250.82,34.41 251.10,34.41 251.38,34.41 251.66,34.41 251.94,36.46 252.21,36.46 252.49,36.46 252.77,36.46 253.05,38.04 253.33,38.04 253.61,38.04 253.89,33.54 254.17,33.73 254.45,33.73 254.72,33.73 255.00,36.41 255.28,36.41 255.56,36.41 255.84,35.15 256.12,39.67 256.40,39.67 256.68,39.67 256.96,38.97 257.23,38.97 257.51,38.97 257.79,41.34 258.07,41.34 258.35,41.34 258.63,42.25 258.91,42.25 259.19,42.25 259.47,40.27 259.74,40.27 260.02,40.27 260.30,39.76 260.58,39.76 260.86,39.76 261.14,38.64 261.42,33.01 261.70,33.01 261.98,33.01 262.25,35.21 262.53,35.21 262.81,35.21 263.09,29.44 263.37,29.44 263.65,29.44 263.93,33.35 264.21,33.35 264.49,33.35 264.76,33.35 265.04,34.75 265.32,34.75 265.60,34.75 265.88,35.07 266.16,35.07 266.44,35.07 266.72,35.82 267.00,35.82 267.27,35.82 267.55,29.46 267.83,29.46 268.11,29.46 268.39,34.35 268.67,34.35 268.95,34.35 269.23,28.72 269.51,34.98 269.78,34.98 270.06,34.98 270.34,35.26 270.62,35.26 270.90,35.26 271.18,34.30 271.46,34.30 271.74,34.59 272.02,33.93 272.29,33.93 272.57,33.93 272.85,33.93 273.13,32.42 273.41,32.42 273.69,32.42 273.97,30.49 274.25,30.49 274.53,17.01 274.80,15.68 275.08,15.68 275.36,15.68 275.64,19.36 275.92,19.36 276.20,19.36 276.48,25.11 276.76,25.11 277.04,25.11 277.31,28.09 277.59,21.95 277.87,21.95 278.15,27.58 278.43,27.58 278.71,28.61 278.99,28.61 279.27,28.47 279.55,28.47 279.82,28.47 280.10,23.53 280.38,23.53 280.66,23.53 280.94,13.96 281.22,13.96 281.50,25.69 281.78,21.47 282.06,21.47 282.33,21.47 282.61,17.47 282.89,17.47 283.17,17.47 283.45,17.47 283.73,22.64 284.01,22.64 284.29,22.64 284.57,17.24 284.84,17.24 285.12,17.24 285.40,10.89 285.68,10.89 285.96,18.73 286.24,18.73 286.52,14.33 286.80,14.33 287.08,14.33 287.35,14.68 287.63,14.68 287.91,19.71 288.19,18.43 288.47,18.43 288.75,18.43 289.03,15.59 289.31,15.59 289.59,15.59 289.86,15.59 290.14,19.59 290.42,19.59 290.70,19.59 290.98,17.25 291.26,17.25 291.54,17.25 291.82,13.40 292.10,13.40 292.37,13.40 292.65,9.40 292.93,9.40 293.21,9.40 293.49,5.77 293.77,5.77 294.05,5.77 294.33,4.00 294.61,4.00 294.88,15.15 295.16,15.97 295.44,15.97 295.72,15.97 296.00,14.78" />
</svg>