<svg width="300" height="60" xmlns="http://www.w3.org/2000/svg">
  <polyline fill="rgba(255,200,0,0.3)" stroke="#ffbb00" stroke-width="2" points="4.00,10.37 4.54,10.69 5.08,10.82 5.62,10.56 6.15,10.28 6.69,10.61 7.23,10.76 7.77,10.96 8.31,10.43 8.85,9.72 9.39,8.76 9.93,8.07 10.46,8.02 11.00,8.27 11.54,8.32 12.08,8.01 12.62,7.04 13.16,7.10 13.70,7.43 14.24,8.00 14.77,7.83 15.31,7.62 15.85,8.12 16.39,7.26 16.93,6.69 17.47,6.06 18.01,6.74 18.55,6.32 19.08,5.59 19.62,5.66 20.16,7.35 20.70,8.64 21.24,9.20 21.78,9.71 22.32,10.11 22.86,10.72 23.39,11.23 23.93,12.25 24.47,13.23 25.01,14.66 25.55,15.34 26.09,16.29 26.63,18.63 27.17,18.64 27.70,17.15 28.24,15.43 28.78,14.32 29.32,13.44 29.86,13.76 30.40,14.95 30.94,15.84 31.48,16.46 32.01,16.61 32.55,17.05 33.09,18.28 33.63,19.97 34.17,21.96 34.71,24.01 35.25,26.72 35.79,27.72 36.32,28.77 36.86,30.10 37.40,30.19 37.94,30.54 38.48,30.72 39.02,31.92 39.56,32.55 40.10,32.14 40.63,30.63 41.17,30.04 41.71,30.08 42.25,30.77 42.79,30.91 43.33,30.64 43.87,29.68 44.41,28.94 44.94,28.37 45.48,28.03 46.02,28.59 46.56,29.87 47.10,30.78 47.64,31.35 48.18,31.70 48.72,31.96 49.25,32.29 49.79,32.43 50.33,31.90 50.87,10.18 51.41,10.49 51.95,10.58 52.49,10.46 53.03,10.12 53.56,10.45 54.10,10.63 54.64,10.79 55.18,10.22 55.72,9.62 56.26,8.52 56.80,7.88 57.34,7.84 57.87,8.13 58.41,8.13 58.95,7.81 59.49,6.87 60.03,6.90 60.57,7.23 61.11,7.73 61.65,7.68 62.18,7.85 62.72,7.90 63.26,7.12 63.80,6.49 64.34,6.27 64.88,6.55 65.42,6.21 65.96,5.38 66.49,5.54 67.03,7.11 67.57,8.47 68.11,9.04 68.65,9.62 69.19,9.95 69.73,10.57 70.27,11.14 70.80,12.05 71.34,13.05 71.88,14.49 72.42,15.12 72.96,16.08 73.50,18.43 74.04,18.54 74.58,17.10 75.11,15.33 75.65,14.21 76.19,13.27 76.73,13.55 77.27,14.83 77.81,15.66 78.35,16.24 78.89,16.47 79.42,16.89 79.96,18.09 80.50,19.81 81.04,21.78 81.58,23.89 82.12,26.47 82.66,27.57 83.20,28.64 83.73,29.95 84.27,30.01 84.81,30.43 85.35,30.54 85.89,31.75 86.43,32.49 86.97,32.17 87.51,30.61 88.04,29.98 88.58,29.98 89.12,30.71 89.66,30.83 90.20,30.62 90.74,29.78 91.28,28.90 91.82,28.35 92.35,28.04 92.89,28.44 93.43,29.72 93.97,30.62 94.51,31.23 95.05,31.58 95.59,31.84 96.13,32.18 96.66,32.33 97.20,31.79 97.74,30.17 98.28,31.07 98.82,30.49 99.36,29.99 99.90,28.52 100.44,28.34 100.97,28.10 101.51,28.32 102.05,29.96 102.59,30.83 103.13,31.37 103.67,31.50 104.21,31.82 104.75,32.13 105.28,32.12 105.82,31.77 106.36,14.41 106.90,13.43 107.44,13.62 107.98,14.73 108.52,15.98 109.06,16.69 109.59,16.52 110.13,16.87 110.67,18.39 111.21,20.17 111.75,21.82 112.29,24.31 112.83,26.49 113.37,27.24 113.90,28.56 114.44,30.24 114.98,30.11 115.52,30.51 116.06,30.82 116.60,31.54 117.14,32.52 117.68,32.43 118.21,30.63 118.75,29.96 119.29,29.91 119.83,30.18 120.37,31.07 120.91,30.49 121.45,29.96 121.99,27.95 122.52,30.74 123.06,28.16 123.60,27.78 124.14,25.19 124.68,25.91 125.22,24.06 125.76,22.95 126.30,28.23 126.83,30.88 127.37,30.26 127.91,28.79 128.45,28.30 128.99,30.40 129.53,31.73 130.07,31.59 130.61,10.21 131.14,10.74 131.68,10.80 132.22,10.88 132.76,9.95 133.30,10.37 133.84,11.10 134.38,10.01 134.92,9.39 135.45,9.42 135.99,8.44 136.53,7.24 137.07,7.97 137.61,6.59 138.15,7.25 138.69,7.56 139.23,6.58 139.76,6.00 140.30,7.27 140.84,6.60 141.38,5.57 141.92,7.89 142.46,6.83 143.00,4.54 143.54,5.25 144.07,5.23 144.61,5.59 145.15,5.87 145.69,4.75 146.23,4.53 146.77,4.00 147.31,7.90 147.85,10.07 148.38,10.38 148.92,9.89 149.46,8.19 150.00,10.55 150.54,11.44 151.08,12.02 151.62,13.44 152.15,15.14 152.69,17.34 153.23,18.18 153.77,18.06 154.31,16.45 154.85,15.30 155.39,14.01 155.93,13.61 156.46,12.43 157.00,15.95 157.54,16.04 158.08,17.20 158.62,16.29 159.16,16.92 159.70,17.32 160.24,19.95 160.77,22.84 161.31,26.42 161.85,28.74 162.39,27.99 162.93,29.40 163.47,30.96 164.01,30.52 164.55,30.47 165.08,29.98 165.62,31.21 166.16,32.28 166.70,32.23 167.24,29.58 167.78,29.24 168.32,30.26 168.86,27.94 169.39,30.74 169.93,28.16 170.47,27.76 171.01,30.02 171.55,33.45 172.09,33.45 172.63,30.46 173.17,32.24 173.70,29.66 174.24,31.84 174.78,32.20 175.32,30.77 175.86,26.19 176.40,30.05 176.94,24.44 177.48,35.75 178.01,29.29 178.55,34.63 179.09,33.07 179.63,30.89 180.17,29.33 180.71,29.60 181.25,31.00 181.79,32.16 182.32,31.39 182.86,7.75 183.40,11.18 183.94,10.73 184.48,10.29 185.02,10.33 185.56,9.88 186.10,10.60 186.63,11.18 187.17,11.36 187.71,9.17 188.25,8.95 188.79,7.91 189.33,10.09 189.87,8.22 190.41,8.76 190.94,9.42 191.48,5.99 192.02,7.11 192.56,9.47 193.10,7.15 193.64,4.93 194.18,9.25 194.72,6.63 195.25,9.34 195.79,4.67 196.33,6.32 196.87,8.59 197.41,4.58 197.95,7.21 198.49,6.73 199.03,4.28 199.56,9.69 200.10,8.26 200.64,12.81 201.18,10.27 201.72,9.69 202.26,9.65 202.80,11.43 203.34,11.43 203.87,12.72 204.41,15.94 204.95,14.20 205.49,19.01 206.03,21.24 206.57,18.88 207.11,18.88 207.65,12.47 208.18,13.89 208.72,11.31 209.26,15.99 209.80,11.98 210.34,16.79 210.88,16.79 211.42,16.88 211.96,17.72 212.49,19.00 213.03,18.47 213.57,20.07 214.11,23.72 214.65,28.09 215.19,29.38 215.73,30.22 216.27,29.60 216.80,30.00 217.34,30.27 217.88,30.02 218.42,33.45 218.96,33.45 219.50,30.46 220.04,32.24 220.58,29.66 221.11,31.84 221.65,32.20 222.19,30.77 222.73,26.19 223.27,30.08 223.81,24.42 224.35,35.78 224.89,29.28 225.42,34.62 225.96,23.22 226.50,23.22 227.04,23.22 227.58,23.22 228.12,27.54 228.66,8.17 229.20,8.17 229.73,8.17 230.27,13.55 230.81,13.55 231.35,13.55 231.89,13.55 232.43,24.15 232.97,24.15 233.51,20.73 234.04,20.73 234.58,20.73 235.12,26.25 235.66,26.25 236.20,26.47 236.74,26.47 237.28,26.25 237.82,36.14 238.35,36.14 238.89,36.14 239.43,36.14 239.97,40.06 240.51,36.54 241.05,36.54 241.59,36.54 242.13,29.59 242.66,29.59 243.20,56.00 243.74,45.80 244.28,45.80 244.82,45.80 245.36,45.80 245.90,33.54 246.44,33.54 246.97,33.54 247.51,30.56 248.05,30.56 248.59,30.56 249.13,32.56 249.67,4.43 250.21,4.43 250.75,4.83 251.28,4.83 251.82,4.83 252.36,11.11 252.90,11.11 253.44,11.11 253.98,14.05 254.52,9.95 255.06,9.95 255.59,13.74 256.13,13.74 256.67,13.74 257.21,18.19 257.75,18.19 258.29,6.70 258.83,13.60 259.37,13.60 259.90,13.60 260.44,23.58 260.98,23.58 261.52,6.03 262.06,15.03 262.60,15.03 263.14,15.03 263.68,23.47 264.21,23.47 264.75,23.47 265.29,23.91 265.83,23.91 266.37,23.91 266.91,16.25 267.45,16.25 267.99,16.25 268.52,10.33 269.06,10.33 269.60,10.33 270.14,10.33 270.68,17.32 271.22,17.32 271.76,7.48 272.30,7.48 272.83,23.22 273.37,23.22 273.91,23.22 274.45,23.22 274.99,27.54 275.53,8.17 276.07,8.17 276.61,8.17 277.14,13.55 277.68,13.55 278.22,13.55 278.76,13.55 279.30,24.15 279.84,24.15 280.38,20.73 280.92,20.73 281.45,20.73 281.99,26.25 282.53,26.25 283.07,26.47 283.61,26.47 284.15,26.25 284.69,36.14 285.23,36.14 285.76,36.14 286.30,36.14 286.84,40.06 287.38,36.54 287.92,36.54 288.46,36.54 289.00,29.59 289.54,29.59 290.07,56.00 290.61,45.80 291.15,45.80 291.69,45.80 292.23,45.80 292.77,33.55 293.31,33.55 293.85,33.55 294.38,30.57 294.92,30.57 295.46,30.57 296.00,32.53" />
</svg>