<svg width="300" height="60" xmlns="http://www.w3.org/2000/svg">
  <polyline fill="rgba(255,200,0,0.3)" stroke="#ffbb00" stroke-width="2" points="4.00,50.27 5.19,50.67 6.37,51.70 7.56,53.32 8.75,54.43 9.93,54.83 11.12,56.00 12.31,4.28 13.50,5.19 14.68,6.76 15.87,8.05 17.06,8.01 18.24,8.07 19.43,8.21 20.62,8.54 21.80,9.19 22.99,9.63 24.18,10.94 25.37,11.74 26.55,12.53 27.74,12.72 28.93,13.37 30.11,15.13 31.30,15.10 32.49,17.78 33.67,20.01 34.86,21.23 36.05,22.62 37.24,22.66 38.42,23.41 39.61,24.35 40.80,27.21 41.98,28.48 43.17,26.39 44.36,25.31 45.54,21.55 46.73,21.16 47.92,21.26 49.11,20.60 50.29,20.53 51.48,21.01 52.67,22.12 53.85,23.73 55.04,25.49 56.23,24.90 57.41,26.38 58.60,26.35 59.79,28.31 60.98,28.58 62.16,27.26 63.35,26.32 64.54,26.52 65.72,27.43 66.91,28.73 68.10,30.62 69.28,30.79 70.47,31.14 71.66,32.68 72.85,33.68 74.03,33.58 75.22,32.57 76.41,34.03 77.59,34.43 78.78,34.71 79.97,35.30 81.15,34.01 82.34,35.15 83.53,38.35 84.72,40.23 85.90,41.28 87.09,41.74 88.28,41.73 89.46,42.25 90.65,44.01 91.84,45.54 93.02,47.08 94.21,48.66 95.40,50.61 96.59,49.57 97.77,48.78 98.96,49.21 100.15,50.70 101.33,50.26 102.52,4.00 103.71,5.28 104.89,7.47 106.08,7.51 107.27,9.16 108.46,8.08 109.64,9.06 110.83,7.61 112.02,8.90 113.20,10.48 114.39,8.83 115.58,11.56 116.76,10.92 117.95,10.65 119.14,15.18 120.33,15.12 121.51,14.68 122.70,19.16 123.89,18.79 125.07,23.17 126.26,22.60 127.45,22.47 128.63,24.79 129.82,26.97 131.01,29.27 132.20,29.87 133.38,25.36 134.57,24.08 135.76,18.65 136.94,22.79 138.13,21.18 139.32,19.12 140.50,17.27 141.69,21.65 142.88,20.20 144.07,24.95 145.25,24.71 146.44,23.23 147.63,25.52 148.81,24.85 150.00,27.56 151.19,28.70 152.37,28.77 153.56,24.79 154.75,26.31 155.93,25.77 157.12,27.56 158.31,29.81 159.50,29.56 160.68,31.85 161.87,34.85 163.06,33.43 164.24,33.91 165.43,29.89 166.62,35.22 167.80,34.65 168.99,32.79 170.18,35.63 171.37,35.84 172.55,32.77 173.74,36.58 174.93,39.18 176.11,38.40 177.30,41.00 178.49,41.33 179.67,41.10 180.86,43.53 182.05,46.60 183.24,44.27 184.42,47.68 185.61,49.70 186.80,49.77 187.98,48.22 189.17,48.93 190.36,50.34 191.54,50.31 192.73,50.31 193.92,50.84 195.11,51.95 196.29,53.91 197.48,55.02 198.67,55.52 199.85,6.42 201.04,7.30 202.23,7.30 203.41,7.30 204.60,12.18 205.79,12.18 206.98,12.18 208.16,7.46 209.35,7.46 210.54,19.50 211.72,15.59 212.91,15.59 214.10,15.59 215.28,14.78 216.47,14.78 217.66,14.78 218.85,13.56 220.03,28.50 221.22,28.50 222.41,27.32 223.59,27.32 224.78,27.32 225.97,29.95 227.15,29.95 228.34,26.37 229.53,26.37 230.72,26.37 231.90,14.33 233.09,14.33 234.28,11.40 235.46,11.40 236.65,11.40 237.84,8.26 239.02,19.89 240.21,19.89 241.40,19.89 242.59,15.34 243.77,15.34 244.96,15.34 246.15,16.14 247.33,16.14 248.52,16.14 249.71,22.79 250.89,22.79 252.08,22.79 253.27,27.78 254.46,27.78 255.64,27.78 256.83,32.93 258.02,32.93 259.20,32.93 260.39,32.93 261.58,24.81 262.76,24.81 263.95,24.81 265.14,24.81 266.33,22.55 267.51,36.71 268.70,36.71 269.89,26.36 271.07,26.36 272.26,26.36 273.45,17.70 274.63,27.00 275.82,27.00 277.01,27.00 278.20,29.80 279.38,29.80 280.57,39.04 281.76,39.04 282.94,39.04 284.13,46.15 285.32,46.15 286.50,49.02 287.69,49.02 288.88,49.63 290.07,49.63 291.25,49.63 292.44,49.63 293.63,49.63 294.81,54.93 296.00,54.93" />
</svg>