<svg width="300" height="60" xmlns="http://www.w3.org/2000/svg">
  <polyline fill="rgba(255,200,0,0.3)" stroke="#ffbb00" stroke-width="2" points="4.00,39.86 4.57,40.21 5.14,40.89 5.70,40.98 6.27,41.16 6.84,41.33 7.41,42.75 7.98,42.92 8.54,43.14 9.11,43.35 9.68,43.65 10.25,43.16 10.82,43.15 11.39,42.73 11.95,42.78 12.52,42.71 13.09,42.19 13.66,42.70 14.23,40.52 14.79,41.05 15.36,42.41 15.93,42.68 16.50,43.16 17.07,42.62 17.63,42.26 18.20,41.70 18.77,39.47 19.34,40.93 19.91,41.01 20.47,40.15 21.04,40.26 21.61,41.62 22.18,41.86 22.75,40.70 23.32,39.08 23.88,39.46 24.45,38.98 25.02,39.21 25.59,41.61 26.16,41.32 26.72,40.43 27.29,40.94 27.86,43.13 28.43,43.23 29.00,42.05 29.56,42.49 30.13,42.04 30.70,41.05 31.27,42.19 31.84,40.63 32.40,41.78 32.97,42.37 33.54,41.07 34.11,41.59 34.68,41.98 35.25,43.48 35.81,45.70 36.38,43.55 36.95,43.86 37.52,42.70 38.09,40.54 38.65,42.48 39.22,42.89 39.79,40.77 40.36,41.89 40.93,39.77 41.49,40.40 42.06,43.58 42.63,44.64 43.20,45.09 43.77,44.57 44.33,44.22 44.90,43.65 45.47,42.11 46.04,38.73 46.61,42.26 47.18,40.44 47.74,38.27 48.31,35.14 48.88,32.86 49.45,34.66 50.02,37.47 50.58,39.38 51.15,41.29 51.72,42.09 52.29,42.94 52.86,43.27 53.42,43.98 53.99,44.86 54.56,45.91 55.13,46.39 55.70,46.95 56.26,47.50 56.83,47.58 57.40,47.42 57.97,46.97 58.54,46.64 59.11,47.01 59.67,46.98 60.24,47.48 60.81,48.34 61.38,48.81 61.95,49.36 62.51,49.65 63.08,49.96 63.65,50.15 64.22,50.13 64.79,49.97 65.35,50.30 65.92,50.62 66.49,50.53 67.06,50.63 67.63,50.77 68.19,50.55 68.76,49.96 69.33,50.22 69.90,50.84 70.47,51.14 71.04,51.33 71.60,51.49 72.17,51.58 72.74,51.90 73.31,52.35 73.88,52.54 74.44,52.65 75.01,52.81 75.58,52.93 76.15,52.99 76.72,53.13 77.28,52.59 77.85,52.47 78.42,52.14 78.99,52.57 79.56,52.41 80.12,52.41 80.69,52.35 81.26,52.30 81.83,55.70 82.40,39.03 82.96,41.73 83.53,41.47 84.10,40.01 84.67,40.96 85.24,42.91 85.81,43.31 86.37,42.08 86.94,42.60 87.51,41.88 88.08,40.48 88.65,41.81 89.21,40.19 89.78,41.51 90.35,41.43 90.92,40.66 91.49,41.19 92.05,41.62 92.62,43.06 93.19,45.32 93.76,43.19 94.33,43.50 94.89,42.42 95.46,40.62 96.03,42.23 96.60,42.37 97.17,40.35 97.74,41.76 98.30,39.75 98.87,40.10 99.44,43.24 100.01,44.73 100.58,45.19 101.14,44.68 101.71,44.32 102.28,43.69 102.85,42.01 103.42,38.89 103.98,42.36 104.55,40.44 105.12,38.66 105.69,35.11 106.26,32.98 106.82,34.72 107.39,37.38 107.96,39.52 108.53,41.31 109.10,42.18 109.67,42.89 110.23,43.17 110.80,44.08 111.37,44.92 111.94,46.01 112.51,46.29 113.07,46.94 113.64,47.35 114.21,47.46 114.78,47.49 115.35,46.52 115.91,46.70 116.48,47.02 117.05,46.70 117.62,47.50 118.19,48.37 118.75,48.87 119.32,49.23 119.89,49.72 120.46,49.93 121.03,50.11 121.60,50.08 122.16,49.96 122.73,50.39 123.30,50.62 123.87,50.56 124.44,50.63 125.00,50.76 125.57,50.66 126.14,50.05 126.71,50.29 127.28,50.94 127.84,51.27 128.41,51.44 128.98,51.50 129.55,51.66 130.12,51.93 130.68,52.40 131.25,52.53 131.82,52.67 132.39,52.80 132.96,52.98 133.53,52.90 134.09,53.15 134.66,52.54 135.23,52.51 135.80,52.24 136.37,52.71 136.93,52.46 137.50,52.47 138.07,52.42 138.64,52.34 139.21,56.00 139.77,39.78 140.34,39.41 140.91,40.46 141.48,42.51 142.05,33.17 142.61,36.68 143.18,40.14 143.75,42.92 144.32,44.38 144.89,41.01 145.46,42.67 146.02,43.36 146.59,38.94 147.16,41.17 147.73,42.63 148.30,37.84 148.86,39.89 149.43,41.72 150.00,36.34 150.57,38.64 151.14,40.69 151.70,41.97 152.27,42.79 152.84,36.12 153.41,38.49 153.98,39.63 154.54,39.99 155.11,41.39 155.68,35.38 156.25,37.97 156.82,40.39 157.39,42.17 157.95,33.64 158.52,35.15 159.09,36.01 159.66,36.88 160.23,39.32 160.79,36.13 161.36,38.45 161.93,36.99 162.50,41.32 163.07,40.23 163.63,37.04 164.20,39.59 164.77,34.24 165.34,41.26 165.91,42.74 166.47,39.37 167.04,41.83 167.61,36.23 168.18,38.69 168.75,31.49 169.32,40.97 169.88,43.52 170.45,38.89 171.02,43.27 171.59,39.53 172.16,42.17 172.72,36.57 173.29,43.58 173.86,43.47 174.43,38.41 175.00,39.19 175.56,39.65 176.13,39.65 176.70,39.65 177.27,38.83 177.84,44.44 178.40,42.20 178.97,44.62 179.54,39.29 180.11,39.97 180.68,41.57 181.25,41.07 181.81,41.39 182.38,41.29 182.95,39.02 183.52,35.74 184.09,35.74 184.65,34.37 185.22,33.37 185.79,37.65 186.36,38.38 186.93,40.34 187.49,41.75 188.06,42.46 188.63,43.28 189.20,43.86 189.77,44.95 190.33,45.82 190.90,46.14 191.47,46.87 192.04,47.23 192.61,47.50 193.18,47.19 193.74,47.23 194.31,46.60 194.88,46.55 195.45,47.37 196.02,47.55 196.58,48.01 197.15,49.31 197.72,49.27 198.29,48.58 198.86,49.81 199.42,49.68 199.99,49.09 200.56,47.76 201.13,50.00 201.70,50.03 202.26,49.62 202.83,49.90 203.40,50.40 203.97,49.21 204.54,50.31 205.11,50.31 205.67,50.16 206.24,50.16 206.81,49.98 207.38,50.12 207.95,51.62 208.51,50.51 209.08,51.52 209.65,49.83 210.22,52.38 210.79,52.43 211.35,52.56 211.92,52.75 212.49,52.79 213.06,52.51 213.63,52.46 214.19,52.74 214.76,52.83 215.33,52.74 215.90,52.74 216.47,53.06 217.04,52.83 217.60,53.93 218.17,40.34 218.74,40.34 219.31,40.34 219.88,43.89 220.44,21.15 221.01,21.15 221.58,27.13 222.15,27.13 222.72,27.13 223.28,35.47 223.85,35.47 224.42,35.47 224.99,35.47 225.56,40.85 226.12,40.85 226.69,17.33 227.26,26.13 227.83,26.13 228.40,26.13 228.96,31.00 229.53,31.00 230.10,31.00 230.67,34.70 231.24,34.70 231.81,34.70 232.37,38.30 232.94,38.30 233.51,38.30 234.08,24.94 234.65,24.94 235.21,24.94 235.78,27.38 236.35,27.38 236.92,27.38 237.49,27.38 238.05,33.30 238.62,33.30 239.19,33.30 239.76,31.76 240.33,31.76 240.89,31.76 241.46,19.18 242.03,19.18 242.60,19.18 243.17,4.00 243.74,30.93 244.30,30.93 244.87,30.93 245.44,8.51 246.01,8.51 246.58,35.54 247.14,17.03 247.71,17.03 248.28,17.03 248.85,17.03 249.42,30.62 249.98,30.62 250.55,30.62 251.12,8.60 251.69,8.60 252.26,35.40 252.82,35.40 253.39,10.97 253.96,10.97 254.53,10.97 255.10,36.08 255.67,14.30 256.23,14.30 256.80,32.85 257.37,32.85 257.94,32.85 258.51,40.14 259.07,40.14 259.64,37.32 260.21,37.32 260.78,37.32 261.35,28.93 261.91,28.93 262.48,28.93 263.05,36.00 263.62,35.77 264.19,35.77 264.75,35.77 265.32,35.77 265.89,40.51 266.46,40.51 267.03,40.51 267.60,43.88 268.16,42.83 268.73,42.83 269.30,42.83 269.87,46.39 270.44,46.39 271.00,43.58 271.57,45.72 272.14,45.72 272.71,45.72 273.28,46.36 273.84,46.36 274.41,46.36 274.98,46.45 275.55,46.45 276.12,41.26 276.68,41.26 277.25,49.08 277.82,46.70 278.39,46.70 278.96,46.70 279.53,43.65 280.09,43.65 280.66,42.05 281.23,42.05 281.80,42.05 282.37,47.02 282.93,47.02 283.50,31.34 284.07,43.74 284.64,43.74 285.21,43.74 285.77,28.38 286.34,45.43 286.91,45.43 287.48,45.43 288.05,42.14 288.61,42.14 289.18,42.14 289.75,48.89 290.32,48.89 290.89,48.89 291.46,52.31 292.02,52.31 292.59,52.67 293.16,53.08 293.73,53.08 294.30,53.08 294.86,53.08 295.43,53.36 296.00,53.36" />
</svg>