<svg width="300" height="60" xmlns="http://www.w3.org/2000/svg">
  <polyline fill="rgba(255,200,0,0.3)" stroke="#ffbb00" stroke-width="2" points="4.00,31.86 4.85,29.12 5.70,25.39 6.55,21.96 7.41,20.13 8.26,18.78 9.11,16.09 9.96,12.92 10.81,9.88 11.66,10.58 12.51,16.42 13.36,13.27 14.22,8.80 15.07,8.25 15.92,9.23 16.77,10.82 17.62,12.85 18.47,15.68 19.32,17.45 20.17,19.56 21.03,21.18 21.88,21.97 22.73,22.65 23.58,24.02 24.43,26.36 25.28,30.14 26.13,33.40 26.99,41.37 27.84,42.75 28.69,39.19 29.54,32.28 30.39,29.44 31.24,30.71 32.09,31.18 32.94,25.39 33.80,17.66 34.65,16.60 35.50,22.64 36.35,24.99 37.20,24.04 38.05,21.30 38.90,19.35 39.76,16.98 40.61,15.03 41.46,16.18 42.31,19.27 43.16,23.95 44.01,21.54 44.86,21.47 45.71,25.33 46.57,27.85 47.42,28.31 48.27,26.84 49.12,26.75 49.97,25.21 50.82,24.05 51.67,26.19 52.52,29.23 53.38,27.30 54.23,26.75 55.08,24.51 55.93,22.59 56.78,21.23 57.63,21.36 58.48,19.78 59.34,18.47 60.19,18.30 61.04,19.93 61.89,21.80 62.74,23.81 63.59,25.85 64.44,29.22 65.29,33.32 66.15,36.45 67.00,37.62 67.85,39.35 68.70,40.09 69.55,38.65 70.40,36.34 71.25,36.12 72.10,30.20 72.96,28.51 73.81,28.75 74.66,29.43 75.51,32.08 76.36,33.25 77.21,31.84 78.06,29.10 78.92,25.38 79.77,21.97 80.62,20.11 81.47,18.77 82.32,16.06 83.17,12.91 84.02,9.94 84.87,10.67 85.73,16.51 86.58,13.25 87.43,8.84 88.28,8.30 89.13,9.27 89.98,10.86 90.83,12.89 91.69,15.69 92.54,17.51 93.39,19.59 94.24,21.21 95.09,22.00 95.94,22.68 96.79,24.06 97.64,26.43 98.50,30.16 99.35,33.44 100.20,41.38 101.05,42.74 101.90,39.28 102.75,32.26 103.60,29.50 104.45,30.76 105.31,31.24 106.16,25.29 107.01,17.62 107.86,16.61 108.71,22.60 109.56,25.03 110.41,24.08 111.27,21.26 112.12,19.30 112.97,16.97 113.82,14.99 114.67,16.17 115.52,19.26 116.37,24.00 117.22,21.49 118.08,21.51 118.93,25.38 119.78,27.89 120.63,28.36 121.48,26.89 122.33,26.80 123.18,25.25 124.03,24.13 124.89,26.22 125.74,29.29 126.59,27.32 127.44,26.73 128.29,24.54 129.14,22.59 129.99,21.22 130.85,21.29 131.70,19.77 132.55,18.50 133.40,18.32 134.25,19.93 135.10,21.78 135.95,23.77 136.80,25.89 137.66,29.30 138.51,33.37 139.36,36.44 140.21,37.64 141.06,39.35 141.91,40.12 142.76,38.69 143.62,36.34 144.47,36.16 145.32,30.28 146.17,28.54 147.02,28.82 147.87,29.48 148.72,32.12 149.57,33.33 150.43,29.33 151.28,25.53 152.13,25.53 152.98,24.68 153.83,19.28 154.68,20.59 155.53,13.73 156.38,13.98 157.24,10.40 158.09,6.51 158.94,13.99 159.79,13.31 160.64,6.98 161.49,10.78 162.34,8.08 163.20,11.90 164.05,11.90 164.90,11.39 165.75,17.81 166.60,19.71 167.45,21.56 168.30,16.62 169.15,24.69 170.01,28.36 170.86,24.10 171.71,29.67 172.56,40.69 173.41,34.36 174.26,42.68 175.11,31.58 175.97,25.88 176.82,31.83 177.67,28.85 178.52,29.61 179.37,21.76 180.22,13.15 181.07,19.63 181.92,20.47 182.78,20.47 183.63,28.70 184.48,26.26 185.33,15.45 186.18,13.97 187.03,13.51 187.88,15.79 188.73,19.18 189.59,19.53 190.44,20.63 191.29,22.78 192.14,26.07 192.99,30.50 193.84,27.46 194.69,23.12 195.55,26.58 196.40,21.47 197.25,22.69 198.10,28.74 198.95,30.52 199.80,24.65 200.65,27.26 201.50,22.03 202.36,22.33 203.21,21.74 204.06,21.69 204.91,20.93 205.76,19.86 206.61,19.40 207.46,20.49 208.31,22.52 209.17,25.22 210.02,27.29 210.87,30.67 211.72,35.14 212.57,38.16 213.42,40.86 214.27,39.09 215.13,42.21 215.98,36.64 216.83,33.56 217.68,39.30 218.53,31.32 219.38,31.70 220.23,28.07 221.08,32.93 221.94,30.23 222.79,33.43 223.64,26.52 224.49,19.45 225.34,19.45 226.19,19.45 227.04,19.45 227.90,20.76 228.75,20.76 229.60,20.76 230.45,14.00 231.30,14.00 232.15,14.00 233.00,14.00 233.85,4.00 234.71,4.00 235.56,4.00 236.41,16.62 237.26,16.62 238.11,16.62 238.96,16.62 239.81,21.56 240.66,21.56 241.52,21.56 242.37,21.56 243.22,33.50 244.07,33.50 244.92,33.50 245.77,22.28 246.62,22.28 247.48,56.00 248.33,25.86 249.18,25.86 250.03,25.86 250.88,36.63 251.73,36.63 252.58,36.63 253.43,19.62 254.29,19.62 255.14,19.62 255.99,19.62 256.84,16.67 257.69,16.67 258.54,16.67 259.39,13.50 260.24,13.50 261.10,13.50 261.95,24.77 262.80,24.77 263.65,24.77 264.50,31.06 265.35,23.42 266.20,23.42 267.06,23.42 267.91,12.18 268.76,32.31 269.61,32.31 270.46,18.89 271.31,18.89 272.16,33.66 273.01,33.66 273.87,33.66 274.72,13.82 275.57,14.35 276.42,14.35 277.27,14.35 278.12,12.41 278.97,12.41 279.83,12.41 280.68,16.97 281.53,16.97 282.38,16.97 283.23,25.08 284.08,25.08 284.93,25.08 285.78,36.47 286.64,36.47 287.49,36.47 288.34,43.27 289.19,43.27 290.04,28.75 290.89,28.75 291.74,28.75 292.59,41.20 293.45,32.93 294.30,32.93 295.15,32.93 296.00,22.92" />
</svg>