<svg width="300" height="60" xmlns="http://www.w3.org/2000/svg">
  <polyline fill="rgba(255,200,0,0.3)" stroke="#ffbb00" stroke-width="2" points="4.00,16.13 4.23,15.60 4.47,15.06 4.70,14.54 4.93,14.08 5.17,13.61 5.40,13.19 5.63,12.89 5.87,13.05 6.10,12.87 6.33,12.59 6.57,12.19 6.80,11.83 7.03,11.67 7.27,11.75 7.50,11.76 7.73,11.62 7.97,11.32 8.20,10.87 8.43,10.32 8.67,10.04 8.90,9.82 9.14,9.87 9.37,9.73 9.60,9.28 9.84,8.90 10.07,8.61 10.30,8.41 10.54,8.37 10.77,8.35 11.00,8.23 11.24,8.10 11.47,7.95 11.70,7.91 11.94,7.78 12.17,7.66 12.40,7.52 12.64,7.42 12.87,7.27 13.10,6.96 13.34,6.80 13.57,6.42 13.80,6.04 14.04,5.88 14.27,5.96 14.50,6.06 14.74,6.24 14.97,6.45 15.20,6.74 15.44,7.33 15.67,7.75 15.90,7.72 16.14,7.91 16.37,8.34 16.60,8.81 16.84,9.39 17.07,9.94 17.30,10.20 17.54,10.42 17.77,10.80 18.00,11.16 18.24,11.46 18.47,11.78 18.71,12.25 18.94,12.94 19.17,13.64 19.41,13.85 19.64,14.08 19.87,14.58 20.11,15.04 20.34,15.36 20.57,15.80 20.81,16.11 21.04,16.31 21.27,16.57 21.51,17.03 21.74,17.35 21.97,17.85 22.21,18.29 22.44,18.59 22.67,18.65 22.91,18.46 23.14,18.26 23.37,18.10 23.61,17.97 23.84,17.85 24.07,17.87 24.31,18.16 24.54,18.61 24.77,19.20 25.01,19.77 25.24,20.31 25.47,20.69 25.71,20.79 25.94,21.05 26.17,21.23 26.41,21.40 26.64,21.62 26.87,22.12 27.11,22.63 27.34,22.96 27.57,23.26 27.81,23.85 28.04,24.35 28.27,24.84 28.51,25.14 28.74,25.11 28.98,24.91 29.21,24.93 29.44,25.05 29.68,24.99 29.91,24.85 30.14,24.63 30.38,24.39 30.61,24.40 30.84,24.35 31.08,24.31 31.31,24.35 31.54,24.60 31.78,24.92 32.01,25.44 32.24,26.11 32.48,26.69 32.71,27.04 32.94,27.30 33.18,27.43 33.41,27.44 33.64,27.32 33.88,27.57 34.11,28.09 34.34,28.13 34.58,28.55 34.81,29.29 35.04,29.86 35.28,30.45 35.51,30.97 35.74,31.27 35.98,31.29 36.21,30.84 36.44,30.27 36.68,29.99 36.91,29.77 37.14,29.57 37.38,29.33 37.61,29.05 37.84,28.85 38.08,28.74 38.31,28.82 38.55,29.12 38.78,29.50 39.01,30.07 39.25,30.56 39.48,30.86 39.71,31.02 39.95,31.55 40.18,32.15 40.41,32.79 40.65,33.33 40.88,33.60 41.11,34.03 41.35,34.85 41.58,35.49 41.81,35.64 42.05,36.08 42.28,36.51 42.51,36.98 42.75,37.32 42.98,37.79 43.21,38.52 43.45,39.20 43.68,39.64 43.91,39.73 44.15,40.20 44.38,40.65 44.61,41.07 44.85,41.20 45.08,41.32 45.31,41.54 45.55,41.76 45.78,41.99 46.01,42.20 46.25,42.19 46.48,42.19 46.71,42.14 46.95,42.11 47.18,42.01 47.41,42.31 47.65,42.39 47.88,42.81 48.12,43.29 48.35,43.78 48.58,44.18 48.82,44.22 49.05,44.64 49.28,45.32 49.52,45.92 49.75,46.48 49.98,46.48 50.22,46.56 50.45,46.73 50.68,46.82 50.92,46.66 51.15,46.55 51.38,46.58 51.62,46.65 51.85,47.10 52.08,47.60 52.32,47.85 52.55,48.04 52.78,48.46 53.02,48.88 53.25,49.56 53.48,50.28 53.72,51.05 53.95,51.63 54.18,51.85 54.42,51.63 54.65,51.18 54.88,50.65 55.12,49.98 55.35,49.51 55.58,49.43 55.82,49.36 56.05,49.00 56.28,48.55 56.52,48.06 56.75,47.59 56.98,47.23 57.22,47.11 57.45,46.84 57.69,46.37 57.92,45.88 58.15,45.38 58.39,44.99 58.62,44.72 58.85,44.26 59.09,43.69 59.32,43.19 59.55,42.89 59.79,42.48 60.02,42.15 60.25,41.74 60.49,41.47 60.72,41.45 60.95,41.54 61.19,41.14 61.42,40.74 61.65,40.41 61.89,40.23 62.12,40.10 62.35,39.66 62.59,39.06 62.82,38.64 63.05,38.61 63.29,38.88 63.52,38.50 63.75,37.99 63.99,37.14 64.22,36.66 64.45,36.28 64.69,35.67 64.92,35.26 65.15,35.25 65.39,35.26 65.62,34.91 65.85,34.66 66.09,34.51 66.32,34.27 66.55,34.14 66.79,34.39 67.02,35.00 67.25,35.33 67.49,35.43 67.72,35.83 67.96,36.49 68.19,37.13 68.42,37.89 68.66,38.66 68.89,39.27 69.12,39.68 69.36,40.02 69.59,40.47 69.82,41.02 70.06,41.61 70.29,42.06 70.52,42.32 70.76,42.91 70.99,43.89 71.22,44.70 71.46,45.36 71.69,45.59 71.92,45.81 72.16,46.20 72.39,46.56 72.62,47.06 72.86,47.70 73.09,48.35 73.32,48.78 73.56,49.11 73.79,49.87 74.02,50.37 74.26,50.87 74.49,51.24 74.72,51.78 74.96,52.27 75.19,52.48 75.42,52.98 75.66,53.79 75.89,54.34 76.12,54.94 76.36,55.38 76.59,55.80 76.82,55.46 77.06,16.03 77.29,15.71 77.53,15.05 77.76,14.59 77.99,14.07 78.23,13.64 78.46,12.99 78.69,13.06 78.93,13.72 79.16,12.78 79.39,12.56 79.63,12.32 79.86,11.85 80.09,11.65 80.33,12.11 80.56,11.46 80.79,11.41 81.03,11.28 81.26,10.78 81.49,10.29 81.73,10.13 81.96,10.02 82.19,10.16 82.43,10.26 82.66,9.32 82.89,9.16 83.13,8.87 83.36,8.52 83.59,8.49 83.83,8.43 84.06,8.24 84.29,8.24 84.53,8.06 84.76,8.04 84.99,8.03 85.23,7.83 85.46,7.69 85.69,7.61 85.93,7.39 86.16,7.32 86.39,7.22 86.63,6.58 86.86,6.40 87.10,5.98 87.33,6.24 87.56,6.14 87.80,6.35 88.03,6.54 88.26,6.82 88.50,7.56 88.73,8.41 88.96,7.89 89.20,8.10 89.43,8.57 89.66,9.06 89.90,9.48 90.13,10.11 90.36,10.52 90.60,10.89 90.83,11.06 91.06,11.30 91.30,11.60 91.53,12.01 91.76,12.21 92.00,13.05 92.23,13.56 92.46,13.81 92.70,14.03 92.93,14.88 93.16,15.20 93.40,15.37 93.63,15.97 93.86,16.15 94.10,16.43 94.33,16.67 94.56,17.04 94.80,17.47 95.03,17.92 95.26,18.42 95.50,18.67 95.73,18.63 95.96,18.57 96.20,18.36 96.43,18.23 96.67,17.97 96.90,17.86 97.13,18.00 97.37,18.59 97.60,18.85 97.83,19.64 98.07,20.00 98.30,20.48 98.53,21.14 98.77,21.05 99.00,21.08 99.23,21.45 99.47,21.37 99.70,21.52 99.93,21.93 100.17,22.72 100.40,22.94 100.63,23.24 100.87,23.71 101.10,24.08 101.33,24.66 101.57,25.09 101.80,24.77 102.03,24.91 102.27,24.80 102.50,25.39 102.73,25.04 102.97,24.94 103.20,24.69 103.43,24.37 103.67,24.65 103.90,24.75 104.13,24.67 104.37,24.62 104.60,24.85 104.83,25.27 105.07,25.60 105.30,26.39 105.53,27.00 105.77,27.02 106.00,27.62 106.24,27.65 106.47,27.59 106.70,27.56 106.94,28.08 107.17,28.91 107.40,28.49 107.64,29.04 107.87,29.61 108.10,29.97 108.34,30.61 108.57,31.16 108.80,31.43 109.04,31.33 109.27,30.75 109.50,30.35 109.74,30.28 109.97,29.98 110.20,29.77 110.44,29.37 110.67,29.12 110.90,29.02 111.14,28.85 111.37,28.85 111.60,29.35 111.84,29.52 112.07,30.30 112.30,30.59 112.54,30.74 112.77,31.08 113.00,31.24 113.24,32.13 113.47,33.01 113.70,33.49 113.94,33.66 114.17,34.14 114.40,35.16 114.64,35.74 114.87,35.77 115.10,36.28 115.34,36.84 115.57,37.46 115.80,37.54 116.04,37.94 116.27,38.62 116.51,39.40 116.74,39.96 116.97,39.43 117.21,40.34 117.44,40.69 117.67,41.08 117.91,41.54 118.14,41.82 118.37,42.04 118.61,42.13 118.84,42.14 119.07,42.61 119.31,42.31 119.54,42.67 119.77,42.42 120.01,42.04 120.24,42.17 120.47,42.12 120.71,42.61 120.94,42.89 121.17,43.34 121.41,44.20 121.64,44.16 121.87,44.46 122.11,44.78 122.34,45.45 122.57,46.41 122.81,46.70 123.04,46.88 123.27,46.78 123.51,46.85 123.74,47.18 123.97,47.09 124.21,46.84 124.44,46.58 124.67,46.83 124.91,47.05 125.14,47.73 125.37,47.97 125.61,48.00 125.84,48.57 126.08,48.85 126.31,49.74 126.54,50.45 126.78,51.34 127.01,51.82 127.24,51.90 127.48,51.62 127.71,51.13 127.94,50.53 128.18,49.82 128.41,49.60 128.64,49.35 128.88,49.32 129.11,49.02 129.34,48.25 129.58,47.89 129.81,47.62 130.04,47.08 130.28,46.95 130.51,46.43 130.74,46.24 130.98,45.45 131.21,44.95 131.44,44.97 131.68,44.44 131.91,43.54 132.14,43.54 132.38,43.21 132.61,43.06 132.84,42.25 133.08,42.10 133.31,41.79 133.54,41.55 133.78,41.85 134.01,42.25 134.24,41.34 134.48,40.75 134.71,40.61 134.94,40.53 135.18,40.17 135.41,40.09 135.65,39.41 135.88,38.67 136.11,38.82 136.35,39.09 136.58,39.24 136.81,39.05 137.05,37.89 137.28,36.77 137.51,36.46 137.75,36.01 137.98,35.41 138.21,35.38 138.45,35.41 138.68,35.28 138.91,35.01 139.15,34.76 139.38,34.31 139.61,34.18 139.85,34.29 140.08,35.10 140.31,35.35 140.55,35.65 140.78,35.85 141.01,36.79 141.25,37.33 141.48,38.01 141.71,39.09 141.95,39.34 142.18,40.19 142.41,40.29 142.65,41.27 142.88,41.59 143.11,41.91 143.35,41.94 143.58,42.26 143.81,42.76 144.05,44.14 144.28,44.74 144.51,45.59 144.75,45.89 144.98,45.88 145.22,46.24 145.45,46.63 145.68,47.13 145.92,48.00 146.15,48.73 146.38,49.61 146.62,49.36 146.85,50.09 147.08,50.67 147.32,51.56 147.55,51.89 147.78,52.42 148.02,52.30 148.25,52.44 148.48,53.11 148.72,54.44 148.95,54.33 149.18,55.68 149.42,55.49 149.65,55.87 149.88,55.43 150.12,16.24 150.35,15.89 150.58,15.07 150.82,14.32 151.05,13.52 151.28,14.43 151.52,12.13 151.75,12.13 151.98,12.81 152.22,12.83 152.45,12.79 152.68,12.36 152.92,10.70 153.15,12.29 153.38,12.29 153.62,12.94 153.85,11.70 154.08,11.62 154.32,10.57 154.55,10.09 154.78,10.09 155.02,8.86 155.25,10.12 155.49,10.77 155.72,8.39 155.95,9.57 156.19,8.71 156.42,8.78 156.65,7.89 156.89,8.02 157.12,8.10 157.35,7.33 157.59,7.54 157.82,7.77 158.05,7.16 158.29,7.59 158.52,7.11 158.75,6.55 158.99,7.32 159.22,6.87 159.45,6.37 159.69,5.76 159.92,6.30 160.15,5.51 160.39,5.62 160.62,6.39 160.85,6.69 161.09,5.97 161.32,6.72 161.55,6.48 161.79,8.42 162.02,7.67 162.25,8.06 162.49,8.00 162.72,9.03 162.95,9.85 163.19,10.52 163.42,11.13 163.65,11.63 163.89,11.63 164.12,11.80 164.35,11.99 164.59,12.40 164.82,12.78 165.06,12.48 165.29,13.74 165.52,14.30 165.76,13.93 165.99,14.16 166.22,14.52 166.46,14.82 166.69,16.12 166.92,15.90 167.16,16.32 167.39,16.64 167.62,16.59 167.86,17.03 168.09,17.68 168.32,18.32 168.56,18.32 168.79,18.59 169.02,18.70 169.26,18.77 169.49,18.16 169.72,17.57 169.96,18.11 170.19,18.35 170.42,18.28 170.66,18.28 170.89,18.59 171.12,18.95 171.36,20.91 171.59,21.15 171.82,19.70 172.06,20.40 172.29,20.78 172.52,21.63 172.76,21.01 172.99,22.42 173.22,22.48 173.46,21.91 173.69,23.12 173.92,23.58 174.16,23.58 174.39,24.79 174.63,25.26 174.86,23.92 175.09,24.09 175.33,23.84 175.56,25.12 175.79,24.09 176.03,24.69 176.26,22.29 176.49,23.59 176.73,23.31 176.96,23.42 177.19,24.87 177.43,23.70 177.66,24.44 177.89,25.27 178.13,26.39 178.36,25.61 178.59,26.99 178.83,24.58 179.06,26.56 179.29,26.47 179.53,27.32 179.76,27.95 179.99,27.55 180.23,28.22 180.46,28.22 180.69,27.99 180.93,29.49 181.16,29.52 181.39,30.60 181.63,31.29 181.86,31.61 182.09,31.57 182.33,31.05 182.56,30.56 182.79,30.70 183.03,29.74 183.26,29.53 183.49,29.37 183.73,29.38 183.96,29.05 184.20,28.87 184.43,28.87 184.66,28.88 184.90,28.88 185.13,30.86 185.36,30.91 185.60,30.84 185.83,32.05 186.06,30.75 186.30,31.21 186.53,33.06 186.76,33.66 187.00,32.90 187.23,33.84 187.46,35.69 187.70,35.83 187.93,35.83 188.16,37.36 188.40,37.07 188.63,36.28 188.86,37.43 189.10,37.90 189.33,37.44 189.56,39.42 189.80,39.34 190.03,37.75 190.26,39.25 190.50,39.55 190.73,39.87 190.96,42.13 191.20,41.32 191.43,42.20 191.66,42.20 191.90,40.88 192.13,43.58 192.36,41.77 192.60,41.65 192.83,42.97 193.06,40.56 193.30,41.96 193.53,42.47 193.76,42.47 194.00,43.84 194.23,44.12 194.47,43.57 194.70,43.34 194.93,45.00 195.17,44.84 195.40,45.48 195.63,45.56 195.87,45.74 196.10,45.96 196.33,45.74 196.57,46.22 196.80,47.18 197.03,47.14 197.27,46.92 197.50,46.18 197.73,48.51 197.97,46.64 198.20,46.87 198.43,48.96 198.67,49.35 198.90,48.20 199.13,49.27 199.37,49.16 199.60,50.44 199.83,51.48 200.07,51.48 200.30,51.94 200.53,51.58 200.77,51.78 201.00,50.97 201.23,49.82 201.47,50.13 201.70,49.33 201.93,49.58 202.17,49.65 202.40,48.55 202.63,48.68 202.87,47.60 203.10,47.93 203.33,46.79 203.57,46.90 203.80,46.76 204.04,46.61 204.27,44.91 204.50,45.05 204.74,45.06 204.97,44.91 205.20,44.94 205.44,42.82 205.67,43.69 205.90,41.74 206.14,42.53 206.37,41.50 206.60,41.08 206.84,41.44 207.07,42.21 207.30,42.21 207.54,40.01 207.77,39.12 208.00,40.53 208.24,39.26 208.47,39.46 208.70,38.98 208.94,37.48 209.17,37.46 209.40,37.58 209.64,38.99 209.87,38.79 210.10,36.63 210.34,37.18 210.57,35.48 210.80,35.90 211.04,36.18 211.27,36.27 211.50,35.68 211.74,34.86 211.97,34.47 212.20,34.75 212.44,33.50 212.67,33.51 212.90,34.61 213.14,34.83 213.37,35.58 213.61,35.67 213.84,35.14 214.07,37.05 214.31,37.26 214.54,36.61 214.77,37.55 215.01,38.86 215.24,40.70 215.47,38.81 215.71,39.75 215.94,40.50 216.17,43.76 216.41,42.27 216.64,43.27 216.87,42.38 217.11,45.11 217.34,44.44 217.57,47.73 217.81,46.04 218.04,45.27 218.27,45.89 218.51,45.16 218.74,46.40 218.97,47.24 219.21,47.92 219.44,48.34 219.67,48.23 219.91,48.37 220.14,50.07 220.37,51.58 220.61,49.72 220.84,51.45 221.07,52.58 221.31,52.99 221.54,53.12 221.77,53.65 222.01,53.49 222.24,55.99 222.47,55.39 222.71,56.00 222.94,55.86 223.18,16.76 223.41,16.76 223.64,14.92 223.88,14.92 224.11,14.92 224.34,12.10 224.58,12.10 224.81,12.10 225.04,12.10 225.28,10.02 225.51,10.02 225.74,16.74 225.98,10.97 226.21,10.97 226.44,10.97 226.68,10.97 226.91,12.21 227.14,12.21 227.38,12.21 227.61,8.78 227.84,8.78 228.08,8.78 228.31,8.78 228.54,8.40 228.78,8.40 229.01,8.40 229.24,5.55 229.48,5.55 229.71,5.55 229.94,6.35 230.18,6.35 230.41,6.35 230.64,4.07 230.88,7.12 231.11,7.12 231.34,5.34 231.58,5.34 231.81,5.34 232.04,4.00 232.28,4.00 232.51,4.00 232.75,6.54 232.98,5.92 233.21,5.92 233.45,5.29 233.68,5.29 233.91,4.66 234.15,4.66 234.38,4.66 234.61,4.66 234.85,6.43 235.08,6.43 235.31,6.43 235.55,4.62 235.78,6.67 236.01,6.67 236.25,6.67 236.48,8.34 236.71,8.34 236.95,8.34 237.18,8.34 237.41,9.13 237.65,9.13 237.88,9.13 238.11,9.19 238.35,14.85 238.58,14.85 238.81,12.70 239.05,12.70 239.28,12.70 239.51,14.07 239.75,14.07 239.98,14.07 240.21,17.90 240.45,17.02 240.68,17.02 240.91,17.02 241.15,17.02 241.38,18.46 241.61,18.46 241.85,18.46 242.08,17.89 242.31,18.24 242.55,18.24 242.78,18.24 243.02,17.27 243.25,17.27 243.48,17.27 243.72,17.27 243.95,19.34 244.18,18.32 244.42,18.32 244.65,20.59 244.88,20.59 245.12,21.58 245.35,21.58 245.58,21.58 245.82,21.58 246.05,25.70 246.28,25.70 246.52,25.70 246.75,26.90 246.98,26.90 247.22,26.90 247.45,26.90 247.68,27.98 247.92,23.57 248.15,23.57 248.38,20.60 248.62,22.30 248.85,22.30 249.08,22.30 249.32,24.56 249.55,24.56 249.78,18.21 250.02,16.76 250.25,22.07 250.48,22.07 250.72,22.07 250.95,25.29 251.18,25.29 251.42,17.44 251.65,22.22 251.88,22.22 252.12,22.22 252.35,22.22 252.59,27.20 252.82,27.20 253.05,21.13 253.29,26.47 253.52,26.47 253.75,26.47 253.99,26.47 254.22,30.94 254.45,30.94 254.69,30.94 254.92,34.02 255.15,34.02 255.39,34.02 255.62,32.92 255.85,32.92 256.09,32.92 256.32,30.83 256.55,30.83 256.79,30.83 257.02,30.92 257.25,30.92 257.49,30.92 257.72,30.92 257.95,28.88 258.19,31.21 258.42,31.21 258.65,30.65 258.89,30.65 259.12,30.65 259.35,29.48 259.59,33.43 259.82,33.43 260.05,33.43 260.29,32.23 260.52,32.23 260.75,32.23 260.99,32.23 261.22,33.65 261.45,33.65 261.69,33.65 261.92,36.62 262.16,36.62 262.39,35.39 262.62,35.39 262.86,35.39 263.09,36.65 263.32,36.65 263.56,36.65 263.79,36.83 264.02,36.83 264.26,41.08 264.49,41.08 264.72,41.08 264.96,33.26 265.19,43.90 265.42,36.04 265.66,36.04 265.89,40.06 266.12,40.06 266.36,40.06 266.59,40.06 266.82,39.91 267.06,39.91 267.29,46.42 267.52,46.42 267.76,43.56 267.99,43.56 268.22,43.56 268.46,46.07 268.69,45.62 268.92,45.62 269.16,43.41 269.39,43.41 269.62,43.41 269.86,43.41 270.09,46.92 270.32,46.92 270.56,46.92 270.79,46.92 271.02,44.25 271.26,44.25 271.49,51.58 271.73,51.58 271.96,47.79 272.19,47.79 272.43,47.79 272.66,50.98 272.89,50.98 273.13,50.98 273.36,50.98 273.59,51.77 273.83,51.77 274.06,51.77 274.29,52.37 274.53,52.37 274.76,48.56 274.99,49.52 275.23,49.52 275.46,49.52 275.69,50.37 275.93,50.37 276.16,50.37 276.39,46.55 276.63,46.55 276.86,46.55 277.09,46.72 277.33,46.72 277.56,47.59 277.79,47.59 278.03,47.59 278.26,48.00 278.49,48.00 278.73,48.00 278.96,42.07 279.19,42.07 279.43,42.07 279.66,42.07 279.89,37.41 280.13,37.41 280.36,37.41 280.59,37.41 280.83,39.07 281.06,39.07 281.29,33.62 281.53,33.62 281.76,38.86 282.00,37.06 282.23,37.06 282.46,37.06 282.70,35.67 282.93,35.67 283.16,35.67 283.40,37.37 283.63,34.43 283.86,34.43 284.10,31.75 284.33,31.75 284.56,31.75 284.80,32.42 285.03,32.42 285.26,32.42 285.50,32.42 285.73,32.42 285.96,33.03 286.20,33.03 286.43,33.03 286.66,34.90 286.90,34.90 287.13,34.90 287.36,38.72 287.60,38.72 287.83,38.72 288.06,40.96 288.30,39.48 288.53,39.48 288.76,39.48 289.00,39.48 289.23,40.38 289.46,40.38 289.70,40.38 289.93,37.72 290.16,46.21 290.40,46.21 290.63,46.21 290.86,44.22 291.10,44.22 291.33,44.22 291.57,44.22 291.80,40.82 292.03,40.82 292.27,42.46 292.50,42.46 292.73,42.46 292.97,46.97 293.20,48.98 293.43,48.98 293.67,47.52 293.90,47.52 294.13,49.34 294.37,49.34 294.60,49.34 294.83,53.89 295.07,53.89 295.30,55.43 295.53,55.43 295.77,55.43 296.00,55.66" />
</svg>