<svg width="300" height="60" xmlns="http://www.w3.org/2000/svg">
  <polyline fill="rgba(255,200,0,0.3)" stroke="#ffbb00" stroke-width="2" points="4.00,55.27 5.63,54.90 7.26,53.06 8.89,50.94 10.53,48.84 12.16,46.43 13.79,44.39 15.42,42.80 17.05,41.51 18.68,40.97 20.31,41.43 21.94,42.79 23.58,44.04 25.21,45.38 26.84,46.61 28.47,47.71 30.10,48.96 31.73,49.59 33.36,49.25 34.99,48.28 36.63,46.61 38.26,44.78 39.89,42.39 41.52,39.61 43.15,36.34 44.78,33.19 46.41,30.21 48.04,28.32 49.68,27.40 51.31,27.30 52.94,26.85 54.57,26.38 56.20,25.10 57.83,22.52 59.46,19.75 61.09,17.14 62.73,15.90 64.36,15.70 65.99,15.67 67.62,15.55 69.25,15.80 70.88,15.20 72.51,13.34 74.15,10.81 75.78,5.79 77.41,55.66 79.04,55.45 80.67,53.73 82.30,51.45 83.93,49.13 85.56,46.98 87.20,44.56 88.83,42.93 90.46,41.83 92.09,41.10 93.72,41.53 95.35,42.58 96.98,43.97 98.61,45.16 100.25,47.06 101.88,48.01 103.51,48.86 105.14,50.01 106.77,49.63 108.40,48.87 110.03,47.35 111.66,45.28 113.30,42.85 114.93,39.73 116.56,36.25 118.19,33.30 119.82,31.66 121.45,29.52 123.08,28.00 124.72,27.73 126.35,27.35 127.98,26.59 129.61,25.32 131.24,22.13 132.87,19.67 134.50,17.08 136.13,16.27 137.77,15.94 139.40,16.13 141.03,16.13 142.66,15.75 144.29,15.49 145.92,13.69 147.55,11.50 149.18,5.71 150.82,56.00 152.45,54.81 154.08,52.76 155.71,50.38 157.34,48.24 158.97,45.00 160.60,43.15 162.23,41.91 163.87,41.14 165.50,41.33 167.13,42.47 168.76,44.18 170.39,46.37 172.02,45.66 173.65,47.47 175.28,49.32 176.92,50.93 178.55,50.93 180.18,49.03 181.81,49.03 183.44,47.12 185.07,44.31 186.70,42.93 188.34,39.31 189.97,35.70 191.60,32.10 193.23,31.15 194.86,28.44 196.49,25.58 198.12,24.84 199.75,27.17 201.39,25.31 203.02,25.03 204.65,20.98 206.28,17.08 207.91,16.89 209.54,15.46 211.17,15.27 212.80,15.52 214.44,15.52 216.07,15.57 217.70,14.71 219.33,11.62 220.96,11.62 222.59,4.00 224.22,54.39 225.85,54.39 227.49,48.34 229.12,48.34 230.75,48.34 232.38,44.58 234.01,44.58 235.64,44.58 237.27,46.58 238.91,46.58 240.54,46.58 242.17,51.72 243.80,51.72 245.43,51.72 247.06,52.01 248.69,52.01 250.32,52.01 251.96,41.58 253.59,46.25 255.22,46.25 256.85,46.25 258.48,35.90 260.11,35.90 261.74,35.90 263.37,24.91 265.01,24.91 266.64,24.91 268.27,15.77 269.90,15.77 271.53,24.00 273.16,24.00 274.79,13.24 276.42,17.81 278.06,17.81 279.69,17.81 281.32,18.00 282.95,11.86 284.58,11.86 286.21,11.86 287.84,11.86 289.47,11.82 291.11,11.82 292.74,11.82 294.37,11.82 296.00,4.17" />
</svg>