<svg width="300" height="60" xmlns="http://www.w3.org/2000/svg">
  <polyline fill="rgba(255,200,0,0.3)" stroke="#ffbb00" stroke-width="2" points="4.00,52.40 4.61,50.96 5.22,50.21 5.83,49.71 6.44,49.18 7.05,48.66 7.66,48.02 8.27,48.18 8.88,49.09 9.49,50.13 10.10,51.30 10.71,51.09 11.32,49.82 11.92,48.58 12.53,48.95 13.14,48.54 13.75,49.15 14.36,51.78 14.97,49.12 15.58,48.18 16.19,48.65 16.80,48.87 17.41,49.03 18.02,49.13 18.63,49.11 19.24,49.02 19.85,48.57 20.46,48.76 21.07,48.42 21.68,49.10 22.29,48.63 22.90,48.46 23.51,48.33 24.12,48.01 24.73,48.26 25.34,48.45 25.95,48.11 26.56,48.24 27.16,48.44 27.77,47.56 28.38,47.15 28.99,46.56 29.60,44.98 30.21,42.27 30.82,41.67 31.43,43.41 32.04,43.62 32.65,43.82 33.26,43.25 33.87,41.98 34.48,41.15 35.09,38.85 35.70,35.95 36.31,36.91 36.92,36.86 37.53,37.12 38.14,35.64 38.75,33.28 39.36,30.19 39.97,28.23 40.58,27.79 41.19,27.27 41.80,27.97 42.41,29.07 43.01,31.44 43.62,32.59 44.23,32.65 44.84,33.08 45.45,34.39 46.06,33.82 46.67,33.40 47.28,32.46 47.89,30.66 48.50,29.67 49.11,29.57 49.72,30.77 50.33,32.65 50.94,34.78 51.55,36.09 52.16,36.43 52.77,35.24 53.38,33.97 53.99,32.83 54.60,31.03 55.21,27.00 55.82,23.59 56.43,21.23 57.04,19.76 57.65,18.99 58.25,18.35 58.86,18.50 59.47,18.89 60.08,19.02 60.69,18.57 61.30,18.43 61.91,18.04 62.52,17.73 63.13,16.75 63.74,16.42 64.35,15.27 64.96,14.13 65.57,13.40 66.18,12.38 66.79,11.37 67.40,10.89 68.01,11.60 68.62,11.48 69.23,11.72 69.84,12.40 70.45,14.63 71.06,14.75 71.67,14.27 72.28,14.65 72.89,12.32 73.49,11.18 74.10,10.20 74.71,8.04 75.32,6.61 75.93,5.98 76.54,4.00 77.15,52.24 77.76,50.63 78.37,50.07 78.98,49.27 79.59,48.76 80.20,47.88 80.81,47.58 81.42,47.38 82.03,48.44 82.64,49.53 83.25,50.92 83.86,50.01 84.47,49.26 85.08,48.46 85.69,48.65 86.30,48.88 86.91,49.07 87.52,51.64 88.13,49.64 88.73,47.75 89.34,48.18 89.95,48.44 90.56,48.64 91.17,48.56 91.78,48.66 92.39,48.61 93.00,47.92 93.61,46.54 94.22,49.09 94.83,47.43 95.44,48.20 96.05,48.72 96.66,47.89 97.27,47.93 97.88,48.24 98.49,48.10 99.10,47.49 99.71,48.01 100.32,48.51 100.93,47.20 101.54,46.26 102.15,46.27 102.76,45.38 103.37,41.68 103.97,40.99 104.58,43.47 105.19,43.31 105.80,43.56 106.41,42.74 107.02,41.68 107.63,40.93 108.24,38.94 108.85,36.35 109.46,35.02 110.07,36.66 110.68,36.75 111.29,35.86 111.90,32.86 112.51,30.51 113.12,28.07 113.73,28.77 114.34,27.71 114.95,28.04 115.56,29.18 116.17,31.10 116.78,32.29 117.39,32.37 118.00,32.75 118.61,33.69 119.22,33.79 119.82,32.83 120.43,32.18 121.04,29.90 121.65,29.52 122.26,29.12 122.87,30.85 123.48,32.19 124.09,34.30 124.70,35.85 125.31,36.93 125.92,34.88 126.53,33.80 127.14,32.89 127.75,31.05 128.36,27.30 128.97,23.19 129.58,21.19 130.19,19.90 130.80,18.77 131.41,18.33 132.02,18.26 132.63,18.95 133.24,19.16 133.85,19.18 134.46,17.89 135.06,17.72 135.67,17.70 136.28,16.51 136.89,16.11 137.50,15.50 138.11,14.10 138.72,13.28 139.33,12.62 139.94,11.01 140.55,11.10 141.16,10.95 141.77,11.47 142.38,11.22 142.99,12.18 143.60,13.33 144.21,14.33 144.82,14.94 145.43,14.93 146.04,12.07 146.65,10.78 147.26,9.83 147.87,7.48 148.48,6.24 149.09,5.83 149.70,4.09 150.30,53.28 150.91,51.33 151.52,49.94 152.13,49.24 152.74,49.87 153.35,48.99 153.96,47.52 154.57,48.03 155.18,50.78 155.79,49.82 156.40,51.81 157.01,49.44 157.62,49.12 158.23,49.64 158.84,49.64 159.45,49.83 160.06,48.94 160.67,51.33 161.28,51.97 161.89,47.02 162.50,48.26 163.11,49.57 163.72,49.36 164.33,48.40 164.94,49.74 165.54,49.20 166.15,48.47 166.76,47.98 167.37,48.05 167.98,48.33 168.59,48.92 169.20,50.42 169.81,49.90 170.42,47.65 171.03,48.74 171.64,51.16 172.25,47.88 172.86,48.40 173.47,48.80 174.08,49.45 174.69,46.40 175.30,44.53 175.91,46.38 176.52,44.88 177.13,41.38 177.74,43.87 178.35,43.48 178.96,43.91 179.57,42.41 180.18,41.63 180.78,40.53 181.39,38.37 182.00,36.70 182.61,36.78 183.22,37.27 183.83,37.11 184.44,35.30 185.05,32.58 185.66,30.35 186.27,28.08 186.88,27.47 187.49,28.60 188.10,28.41 188.71,30.64 189.32,30.64 189.93,32.12 190.54,33.21 191.15,34.12 191.76,34.92 192.37,34.75 192.98,32.74 193.59,31.42 194.20,29.83 194.81,30.46 195.42,29.15 196.03,30.79 196.63,32.85 197.24,34.92 197.85,36.41 198.46,35.44 199.07,34.72 199.68,33.75 200.29,32.49 200.90,30.73 201.51,28.24 202.12,23.13 202.73,21.82 203.34,19.72 203.95,17.89 204.56,18.29 205.17,18.95 205.78,19.56 206.39,19.72 207.00,19.72 207.61,16.67 208.22,16.58 208.83,16.47 209.44,16.21 210.05,16.30 210.66,14.26 211.27,14.59 211.87,13.25 212.48,11.85 213.09,10.10 213.70,11.42 214.31,10.55 214.92,12.54 215.53,12.97 216.14,14.42 216.75,12.73 217.36,14.56 217.97,16.18 218.58,15.19 219.19,13.67 219.80,10.88 220.41,8.22 221.02,7.99 221.63,6.86 222.24,6.39 222.85,5.91 223.46,53.30 224.07,49.55 224.68,49.55 225.29,51.68 225.90,51.68 226.51,46.66 227.11,46.66 227.72,54.21 228.33,54.21 228.94,49.36 229.55,49.36 230.16,49.36 230.77,50.16 231.38,50.16 231.99,50.16 232.60,50.16 233.21,42.88 233.82,42.88 234.43,42.88 235.04,47.88 235.65,47.88 236.26,47.88 236.87,52.48 237.48,51.21 238.09,51.21 238.70,51.21 239.31,51.85 239.92,51.85 240.53,51.85 241.14,54.59 241.75,54.59 242.35,54.59 242.96,56.00 243.57,52.50 244.18,52.50 244.79,52.50 245.40,52.32 246.01,52.32 246.62,52.32 247.23,47.98 247.84,47.39 248.45,47.39 249.06,47.39 249.67,44.11 250.28,43.45 250.89,43.45 251.50,43.45 252.11,38.64 252.72,38.64 253.33,35.57 253.94,35.57 254.55,35.57 255.16,33.67 255.77,33.67 256.38,33.67 256.99,32.96 257.59,32.96 258.20,28.50 258.81,28.50 259.42,28.50 260.03,29.36 260.64,29.36 261.25,29.36 261.86,31.97 262.47,31.97 263.08,33.75 263.69,33.75 264.30,33.75 264.91,33.28 265.52,33.28 266.13,33.28 266.74,28.54 267.35,28.54 267.96,28.54 268.57,33.23 269.18,33.23 269.79,33.23 270.40,36.05 271.01,33.94 271.62,33.94 272.23,30.44 272.84,30.44 273.44,30.44 274.05,26.59 274.66,26.59 275.27,21.41 275.88,21.41 276.49,18.08 277.10,18.08 277.71,18.08 278.32,18.90 278.93,18.90 279.54,18.90 280.15,18.90 280.76,11.09 281.37,11.09 281.98,11.09 282.59,10.97 283.20,10.97 283.81,10.97 284.42,12.66 285.03,12.66 285.64,6.40 286.25,6.40 286.86,11.56 287.47,11.56 288.08,10.69 288.68,10.69 289.29,14.82 289.90,14.82 290.51,14.82 291.12,21.55 291.73,11.09 292.34,11.09 292.95,11.09 293.56,5.34 294.17,12.57 294.78,12.57 295.39,12.73 296.00,12.73" />
</svg>