<svg width="300" height="60" xmlns="http://www.w3.org/2000/svg">
  <polyline fill="rgba(255,200,0,0.3)" stroke="#ffbb00" stroke-width="2" points="4.00,24.25 4.19,23.48 4.38,23.12 4.58,23.51 4.77,24.18 4.96,23.95 5.15,23.33 5.35,22.48 5.54,22.43 5.73,21.45 5.92,20.68 6.11,20.09 6.31,19.01 6.50,19.34 6.69,19.85 6.88,19.66 7.08,19.67 7.27,20.24 7.46,20.37 7.65,20.09 7.84,19.23 8.04,18.95 8.23,17.93 8.42,17.55 8.61,17.16 8.81,16.59 9.00,17.56 9.19,20.07 9.38,20.89 9.57,20.61 9.77,19.46 9.96,18.86 10.15,16.52 10.34,15.44 10.54,14.75 10.73,13.84 10.92,13.26 11.11,13.02 11.30,13.13 11.50,13.71 11.69,13.85 11.88,13.39 12.07,13.12 12.27,12.73 12.46,12.16 12.65,12.17 12.84,12.35 13.03,12.77 13.23,14.20 13.42,14.51 13.61,14.93 13.80,16.99 14.00,17.69 14.19,18.00 14.38,18.68 14.57,18.10 14.76,16.52 14.96,14.50 15.15,12.42 15.34,10.20 15.53,9.51 15.73,9.84 15.92,10.15 16.11,10.52 16.30,10.67 16.50,10.05 16.69,8.76 16.88,7.90 17.07,7.49 17.26,7.10 17.46,6.45 17.65,6.15 17.84,6.64 18.03,7.51 18.23,7.45 18.42,7.15 18.61,6.60 18.80,6.69 18.99,7.10 19.19,8.09 19.38,8.34 19.57,7.09 19.76,7.00 19.96,8.40 20.15,9.42 20.34,9.53 20.53,7.97 20.72,7.03 20.92,7.08 21.11,6.94 21.30,6.94 21.49,6.43 21.69,6.10 21.88,6.32 22.07,6.66 22.26,7.41 22.45,7.08 22.65,6.33 22.84,6.33 23.03,6.85 23.22,7.53 23.42,8.23 23.61,9.33 23.80,10.11 23.99,11.53 24.18,12.01 24.38,11.02 24.57,10.18 24.76,10.27 24.95,10.58 25.15,11.87 25.34,12.94 25.53,13.18 25.72,12.73 25.91,12.02 26.11,11.89 26.30,12.14 26.49,13.38 26.68,14.31 26.88,14.76 27.07,14.76 27.26,15.26 27.45,15.87 27.64,16.77 27.84,17.05 28.03,17.12 28.22,17.68 28.41,17.52 28.61,16.96 28.80,17.77 28.99,17.61 29.18,16.08 29.37,15.62 29.57,14.97 29.76,15.71 29.95,16.40 30.14,17.09 30.34,16.82 30.53,16.30 30.72,15.05 30.91,15.20 31.10,17.34 31.30,18.41 31.49,20.84 31.68,23.32 31.87,23.27 32.07,24.02 32.26,24.12 32.45,23.17 32.64,22.37 32.83,21.70 33.03,21.62 33.22,20.95 33.41,20.85 33.60,20.44 33.80,20.52 33.99,20.22 34.18,19.84 34.37,19.27 34.56,18.73 34.76,17.51 34.95,16.43 35.14,15.83 35.33,15.70 35.53,16.68 35.72,19.79 35.91,20.91 36.10,20.80 36.29,20.35 36.49,20.33 36.68,21.43 36.87,22.07 37.06,22.46 37.26,22.53 37.45,22.47 37.64,21.95 37.83,21.32 38.03,21.56 38.22,23.34 38.41,24.17 38.60,24.11 38.79,24.63 38.99,24.61 39.18,24.05 39.37,23.81 39.56,22.86 39.76,21.62 39.95,21.34 40.14,21.29 40.33,21.43 40.52,21.21 40.72,21.01 40.91,22.02 41.10,23.40 41.29,24.41 41.49,24.02 41.68,23.32 41.87,21.97 42.06,20.86 42.25,19.71 42.45,19.91 42.64,20.79 42.83,22.43 43.02,22.46 43.22,21.78 43.41,20.55 43.60,20.06 43.79,20.36 43.98,21.84 44.18,23.39 44.37,24.20 44.56,24.01 44.75,23.57 44.95,23.04 45.14,22.73 45.33,22.99 45.52,23.30 45.71,24.22 45.91,24.72 46.10,24.95 46.29,26.26 46.48,27.51 46.68,27.90 46.87,27.97 47.06,27.91 47.25,27.92 47.44,28.11 47.64,28.24 47.83,28.15 48.02,27.11 48.21,26.28 48.41,25.67 48.60,25.54 48.79,25.59 48.98,25.68 49.17,24.77 49.37,24.35 49.56,24.24 49.75,24.44 49.94,24.83 50.14,24.72 50.33,24.01 50.52,23.49 50.71,22.96 50.90,22.08 51.10,21.50 51.29,21.15 51.48,21.20 51.67,21.32 51.87,21.16 52.06,20.44 52.25,19.95 52.44,19.74 52.63,19.45 52.83,19.07 53.02,18.69 53.21,18.30 53.40,18.27 53.60,18.25 53.79,17.75 53.98,17.66 54.17,18.96 54.36,20.24 54.56,21.98 54.75,23.45 54.94,24.42 55.13,24.09 55.33,23.89 55.52,23.77 55.71,23.83 55.90,24.16 56.09,24.89 56.29,25.47 56.48,26.12 56.67,26.28 56.86,26.54 57.06,26.01 57.25,25.28 57.44,24.87 57.63,25.14 57.82,26.41 58.02,28.79 58.21,26.33 58.40,23.92 58.59,21.85 58.79,21.34 58.98,21.09 59.17,21.19 59.36,21.91 59.55,21.77 59.75,21.71 59.94,21.95 60.13,21.99 60.32,21.97 60.52,21.56 60.71,21.33 60.90,22.46 61.09,24.54 61.29,24.57 61.48,22.58 61.67,20.01 61.86,18.20 62.05,17.62 62.25,18.05 62.44,18.98 62.63,21.02 62.82,23.72 63.02,25.72 63.21,26.37 63.40,24.63 63.59,23.28 63.78,23.25 63.98,24.62 64.17,26.26 64.36,27.34 64.55,26.66 64.75,26.06 64.94,26.11 65.13,26.17 65.32,25.73 65.51,25.16 65.71,25.24 65.90,25.59 66.09,26.09 66.28,26.33 66.48,25.93 66.67,25.63 66.86,25.34 67.05,24.83 67.24,24.39 67.44,23.88 67.63,23.95 67.82,24.07 68.01,23.56 68.21,23.86 68.40,24.57 68.59,25.61 68.78,26.74 68.97,28.40 69.17,30.80 69.36,32.37 69.55,33.65 69.74,34.49 69.94,33.81 70.13,32.27 70.32,31.95 70.51,31.88 70.70,30.83 70.90,30.36 71.09,30.30 71.28,30.29 71.47,30.78 71.67,31.55 71.86,32.32 72.05,32.55 72.24,32.71 72.43,33.30 72.63,34.00 72.82,35.23 73.01,36.59 73.20,37.44 73.40,38.81 73.59,40.23 73.78,41.11 73.97,40.92 74.16,42.27 74.36,44.06 74.55,44.96 74.74,46.05 74.93,48.60 75.13,50.01 75.32,50.50 75.51,50.43 75.70,50.90 75.89,51.21 76.09,51.96 76.28,52.88 76.47,54.45 76.66,56.00 76.86,55.84 77.05,24.25 77.24,23.47 77.43,23.11 77.62,23.52 77.82,24.17 78.01,23.94 78.20,23.33 78.39,22.47 78.59,22.44 78.78,21.46 78.97,20.69 79.16,20.09 79.35,19.01 79.55,19.33 79.74,19.85 79.93,19.66 80.12,19.67 80.32,20.24 80.51,20.36 80.70,20.09 80.89,19.22 81.08,18.95 81.28,17.93 81.47,17.55 81.66,17.16 81.85,16.60 82.05,17.56 82.24,20.07 82.43,20.89 82.62,20.60 82.82,19.48 83.01,18.86 83.20,16.53 83.39,15.44 83.58,14.74 83.78,13.85 83.97,13.28 84.16,13.03 84.35,13.14 84.55,13.73 84.74,13.87 84.93,13.40 85.12,13.13 85.31,12.73 85.51,12.17 85.70,12.16 85.89,12.36 86.08,12.79 86.28,14.20 86.47,14.52 86.66,14.94 86.85,16.99 87.04,17.67 87.24,18.00 87.43,18.67 87.62,18.09 87.81,16.51 88.01,14.49 88.20,12.41 88.39,10.20 88.58,9.51 88.77,9.84 88.97,10.15 89.16,10.52 89.35,10.68 89.54,10.05 89.74,8.76 89.93,7.89 90.12,7.49 90.31,7.11 90.50,6.45 90.70,6.15 90.89,6.65 91.08,7.52 91.27,7.46 91.47,7.16 91.66,6.61 91.85,6.69 92.04,7.11 92.23,8.09 92.43,8.35 92.62,7.10 92.81,7.01 93.00,8.40 93.20,9.42 93.39,9.52 93.58,7.96 93.77,7.03 93.96,7.08 94.16,6.94 94.35,6.93 94.54,6.43 94.73,6.10 94.93,6.32 95.12,6.65 95.31,7.41 95.50,7.07 95.69,6.32 95.89,6.32 96.08,6.85 96.27,7.52 96.46,8.22 96.66,9.31 96.85,10.11 97.04,11.52 97.23,12.01 97.42,11.02 97.62,10.17 97.81,10.26 98.00,10.57 98.19,11.86 98.39,12.94 98.58,13.19 98.77,12.72 98.96,12.01 99.15,11.87 99.35,12.15 99.54,13.40 99.73,14.30 99.92,14.75 100.12,14.75 100.31,15.25 100.50,15.87 100.69,16.77 100.88,17.06 101.08,17.12 101.27,17.67 101.46,17.51 101.65,16.95 101.85,17.76 102.04,17.59 102.23,16.08 102.42,15.61 102.61,14.97 102.81,15.69 103.00,16.39 103.19,17.08 103.38,16.82 103.58,16.30 103.77,15.05 103.96,15.21 104.15,17.35 104.34,18.42 104.54,20.82 104.73,23.33 104.92,23.28 105.11,24.02 105.31,24.11 105.50,23.16 105.69,22.37 105.88,21.70 106.08,21.62 106.27,20.95 106.46,20.85 106.65,20.46 106.84,20.52 107.04,20.22 107.23,19.84 107.42,19.28 107.61,18.74 107.81,17.52 108.00,16.43 108.19,15.84 108.38,15.70 108.57,16.68 108.77,19.81 108.96,20.92 109.15,20.80 109.34,20.36 109.54,20.33 109.73,21.45 109.92,22.07 110.11,22.45 110.30,22.52 110.50,22.47 110.69,21.96 110.88,21.31 111.07,21.55 111.27,23.35 111.46,24.16 111.65,24.10 111.84,24.62 112.03,24.61 112.23,24.06 112.42,23.81 112.61,22.85 112.80,21.61 113.00,21.34 113.19,21.29 113.38,21.42 113.57,21.21 113.76,21.01 113.96,22.02 114.15,23.40 114.34,24.41 114.53,24.03 114.73,23.32 114.92,21.97 115.11,20.87 115.30,19.71 115.49,19.91 115.69,20.80 115.88,22.43 116.07,22.46 116.26,21.80 116.46,20.54 116.65,20.05 116.84,20.36 117.03,21.84 117.22,23.39 117.42,24.20 117.61,24.01 117.80,23.58 117.99,23.04 118.19,22.73 118.38,23.00 118.57,23.30 118.76,24.22 118.95,24.72 119.15,24.95 119.34,26.26 119.53,27.51 119.72,27.91 119.92,27.97 120.11,27.91 120.30,27.93 120.49,28.11 120.68,28.25 120.88,28.15 121.07,27.11 121.26,26.29 121.45,25.67 121.65,25.54 121.84,25.59 122.03,25.68 122.22,24.77 122.41,24.35 122.61,24.24 122.80,24.43 122.99,24.83 123.18,24.72 123.38,24.01 123.57,23.50 123.76,22.96 123.95,22.08 124.14,21.50 124.34,21.15 124.53,21.20 124.72,21.32 124.91,21.16 125.11,20.44 125.30,19.95 125.49,19.74 125.68,19.45 125.87,19.07 126.07,18.69 126.26,18.30 126.45,18.27 126.64,18.25 126.84,17.76 127.03,17.66 127.22,18.96 127.41,20.24 127.61,21.99 127.80,23.46 127.99,24.42 128.18,24.09 128.37,23.89 128.57,23.76 128.76,23.83 128.95,24.16 129.14,24.90 129.34,25.46 129.53,26.13 129.72,26.29 129.91,26.54 130.10,26.01 130.30,25.29 130.49,24.87 130.68,25.14 130.87,26.41 131.07,28.78 131.26,26.33 131.45,23.92 131.64,21.85 131.83,21.34 132.03,21.09 132.22,21.19 132.41,21.90 132.60,21.77 132.80,21.71 132.99,21.95 133.18,21.99 133.37,21.97 133.56,21.56 133.76,21.33 133.95,22.46 134.14,24.54 134.33,24.57 134.53,22.59 134.72,20.01 134.91,18.20 135.10,17.61 135.29,18.05 135.49,18.98 135.68,21.03 135.87,23.72 136.06,25.72 136.26,26.37 136.45,24.63 136.64,23.28 136.83,23.25 137.02,24.62 137.22,26.26 137.41,27.34 137.60,26.66 137.79,26.05 137.99,26.11 138.18,26.17 138.37,25.73 138.56,25.15 138.75,25.24 138.95,25.59 139.14,26.09 139.33,26.33 139.52,25.93 139.72,25.63 139.91,25.34 140.10,24.83 140.29,24.39 140.48,23.88 140.68,23.95 140.87,24.07 141.06,23.56 141.25,23.87 141.45,24.57 141.64,25.61 141.83,26.74 142.02,28.40 142.21,30.80 142.41,32.38 142.60,33.65 142.79,34.49 142.98,33.81 143.18,32.27 143.37,31.96 143.56,31.88 143.75,30.83 143.94,30.36 144.14,30.30 144.33,30.29 144.52,30.78 144.71,31.55 144.91,32.32 145.10,32.55 145.29,32.71 145.48,33.31 145.67,34.00 145.87,35.23 146.06,36.59 146.25,37.45 146.44,38.82 146.64,40.23 146.83,41.11 147.02,40.92 147.21,42.27 147.40,44.06 147.60,44.96 147.79,46.06 147.98,48.60 148.17,50.02 148.37,50.50 148.56,50.43 148.75,50.90 148.94,51.21 149.13,51.97 149.33,52.88 149.52,54.45 149.71,56.00 149.90,55.85 150.10,24.18 150.29,22.46 150.48,23.66 150.67,23.32 150.87,24.02 151.06,25.55 151.25,23.55 151.44,22.72 151.63,22.88 151.83,21.17 152.02,20.43 152.21,18.94 152.40,19.03 152.60,19.24 152.79,19.24 152.98,19.83 153.17,21.01 153.36,19.95 153.56,20.84 153.75,19.72 153.94,19.05 154.13,18.82 154.33,17.42 154.52,16.95 154.71,16.95 154.90,17.13 155.09,17.73 155.29,19.12 155.48,20.96 155.67,20.17 155.86,20.75 156.06,18.99 156.25,17.51 156.44,15.23 156.63,14.17 156.82,13.71 157.02,12.07 157.21,13.58 157.40,13.03 157.59,12.52 157.79,14.45 157.98,13.17 158.17,14.99 158.36,13.31 158.55,12.12 158.75,13.34 158.94,11.85 159.13,12.69 159.32,13.58 159.52,14.42 159.71,14.37 159.90,16.42 160.09,16.31 160.28,17.80 160.48,19.18 160.67,17.64 160.86,17.64 161.05,15.42 161.25,12.27 161.44,10.03 161.63,9.36 161.82,9.98 162.01,10.32 162.21,10.07 162.40,10.69 162.59,9.67 162.78,8.33 162.98,7.71 163.17,7.57 163.36,6.68 163.55,6.62 163.74,6.02 163.94,6.97 164.13,8.11 164.32,6.77 164.51,6.36 164.71,7.31 164.90,6.28 165.09,7.24 165.28,7.16 165.47,7.84 165.67,6.12 165.86,7.93 166.05,8.45 166.24,9.08 166.44,7.97 166.63,7.26 166.82,7.26 167.01,7.83 167.20,7.25 167.40,6.69 167.59,7.30 167.78,6.46 167.97,6.21 168.17,6.41 168.36,7.28 168.55,6.81 168.74,6.19 168.93,6.18 169.13,6.34 169.32,8.45 169.51,9.00 169.70,8.94 169.90,10.73 170.09,10.73 170.28,11.80 170.47,12.23 170.66,9.53 170.86,10.41 171.05,11.18 171.24,12.34 171.43,13.53 171.63,12.18 171.82,13.18 172.01,11.90 172.20,12.03 172.39,12.23 172.59,13.54 172.78,13.82 172.97,15.21 173.16,14.95 173.36,14.72 173.55,16.52 173.74,16.83 173.93,16.57 174.13,17.25 174.32,16.83 174.51,17.95 174.70,16.26 174.89,17.02 175.09,17.29 175.28,15.96 175.47,15.64 175.66,14.68 175.86,14.78 176.05,16.23 176.24,16.53 176.43,18.30 176.62,16.32 176.82,14.97 177.01,14.87 177.20,17.45 177.39,18.35 177.59,21.71 177.78,23.57 177.97,22.79 178.16,23.50 178.35,23.88 178.55,23.32 178.74,22.40 178.93,21.57 179.12,21.57 179.32,21.96 179.51,21.12 179.70,20.71 179.89,20.69 180.08,20.83 180.28,19.83 180.47,19.10 180.66,17.87 180.85,16.72 181.05,15.71 181.24,15.13 181.43,14.78 181.62,15.13 181.81,18.58 182.01,20.88 182.20,21.08 182.39,20.24 182.58,20.14 182.78,22.57 182.97,21.65 183.16,21.65 183.35,23.52 183.54,21.94 183.74,22.31 183.93,21.82 184.12,21.17 184.31,23.70 184.51,23.94 184.70,24.38 184.89,24.29 185.08,24.78 185.27,24.87 185.47,24.34 185.66,21.41 185.85,21.24 186.04,21.11 186.24,21.10 186.43,21.10 186.62,20.84 186.81,20.66 187.00,22.66 187.20,23.30 187.39,23.52 187.58,24.69 187.77,23.56 187.97,22.68 188.16,20.10 188.35,20.10 188.54,19.87 188.73,21.51 188.93,22.36 189.12,22.13 189.31,21.96 189.50,20.13 189.70,20.13 189.89,20.20 190.08,21.17 190.27,22.90 190.46,24.02 190.66,24.35 190.85,23.23 191.04,23.00 191.23,21.86 191.43,23.44 191.62,24.39 191.81,23.79 192.00,24.99 192.19,23.74 192.39,25.79 192.58,27.58 192.77,27.63 192.96,28.89 193.16,27.76 193.35,27.08 193.54,27.55 193.73,29.51 193.92,29.12 194.12,27.11 194.31,25.35 194.50,25.42 194.69,24.77 194.89,25.71 195.08,25.20 195.27,25.74 195.46,24.45 195.66,23.77 195.85,24.55 196.04,24.44 196.23,24.92 196.42,23.42 196.62,23.67 196.81,22.22 197.00,21.93 197.19,21.93 197.39,22.31 197.58,20.99 197.77,21.16 197.96,21.01 198.15,21.01 198.35,20.10 198.54,19.92 198.73,19.31 198.92,19.08 199.12,18.58 199.31,18.02 199.50,18.03 199.69,18.03 199.88,17.63 200.08,17.33 200.27,18.49 200.46,19.60 200.65,22.66 200.85,23.62 201.04,24.73 201.23,24.70 201.42,22.62 201.61,24.24 201.81,23.97 202.00,24.19 202.19,26.53 202.38,25.00 202.58,25.85 202.77,26.17 202.96,28.25 203.15,25.99 203.34,24.84 203.54,24.08 203.73,26.30 203.92,27.51 204.11,27.46 204.31,27.46 204.50,24.99 204.69,22.54 204.88,21.35 205.07,20.70 205.27,22.05 205.46,22.27 205.65,21.02 205.84,22.03 206.04,21.13 206.23,22.50 206.42,21.60 206.61,21.07 206.80,21.07 207.00,21.65 207.19,23.70 207.38,24.94 207.57,23.42 207.77,20.73 207.96,18.58 208.15,17.59 208.34,17.87 208.53,18.40 208.73,20.65 208.92,23.69 209.11,25.30 209.30,26.50 209.50,23.65 209.69,22.91 209.88,23.77 210.07,25.09 210.26,27.23 210.46,27.23 210.65,26.13 210.84,25.49 211.03,26.56 211.23,25.75 211.42,26.40 211.61,25.05 211.80,25.85 211.99,24.99 212.19,26.00 212.38,26.00 212.57,26.54 212.76,26.66 212.96,24.88 213.15,25.34 213.34,24.06 213.53,23.66 213.72,24.16 213.92,24.36 214.11,23.36 214.30,23.36 214.49,24.41 214.69,24.75 214.88,26.70 215.07,28.55 215.26,31.54 215.45,31.54 215.65,33.03 215.84,34.92 216.03,33.01 216.22,32.10 216.42,31.82 216.61,30.62 216.80,31.65 216.99,30.46 217.18,29.88 217.38,29.91 217.57,30.22 217.76,30.80 217.95,33.16 218.15,33.10 218.34,33.38 218.53,34.06 218.72,35.33 218.92,36.76 219.11,36.96 219.30,36.96 219.49,38.36 219.68,39.89 219.88,41.11 220.07,40.19 220.26,41.51 220.45,43.20 220.65,45.13 220.84,45.74 221.03,48.39 221.22,49.98 221.41,50.12 221.61,51.80 221.80,50.72 221.99,52.32 222.18,51.81 222.38,52.78 222.57,54.87 222.76,54.39 222.95,55.67 223.14,21.52 223.34,21.52 223.53,26.47 223.72,24.02 223.91,24.02 224.11,24.02 224.30,24.02 224.49,22.88 224.68,22.88 224.87,22.88 225.07,18.95 225.26,18.95 225.45,18.95 225.64,18.11 225.84,18.11 226.03,18.11 226.22,23.59 226.41,20.84 226.60,20.84 226.80,20.84 226.99,18.83 227.18,18.83 227.37,18.83 227.57,17.38 227.76,17.38 227.95,17.38 228.14,19.12 228.33,19.12 228.53,19.12 228.72,18.99 228.91,18.99 229.10,18.99 229.30,18.99 229.49,11.95 229.68,15.61 229.87,15.61 230.06,10.95 230.26,10.95 230.45,10.95 230.64,8.44 230.83,16.95 231.03,16.95 231.22,13.31 231.41,13.31 231.60,13.31 231.79,9.35 231.99,9.35 232.18,16.35 232.37,11.96 232.56,11.96 232.76,13.13 232.95,16.30 233.14,16.30 233.33,19.18 233.52,19.18 233.72,19.18 233.91,19.18 234.10,13.87 234.29,11.10 234.49,11.10 234.68,11.10 234.87,11.45 235.06,9.28 235.25,9.28 235.45,10.41 235.64,10.41 235.83,7.71 236.02,7.71 236.22,7.71 236.41,7.75 236.60,7.75 236.79,5.04 236.98,6.64 237.18,6.64 237.37,6.64 237.56,5.48 237.75,5.48 237.95,5.48 238.14,9.43 238.33,9.43 238.52,6.12 238.71,6.12 238.91,6.12 239.10,10.45 239.29,10.45 239.48,10.45 239.68,6.79 239.87,6.79 240.06,6.79 240.25,6.79 240.45,4.00 240.64,8.96 240.83,8.96 241.02,7.61 241.21,7.61 241.41,7.61 241.60,6.98 241.79,6.98 241.98,6.98 242.18,8.46 242.37,8.46 242.56,8.46 242.75,8.29 242.94,8.29 243.14,8.29 243.33,14.80 243.52,14.80 243.71,6.79 243.91,8.72 244.10,8.72 244.29,11.29 244.48,11.29 244.67,11.29 244.87,13.72 245.06,13.72 245.25,10.89 245.44,10.89 245.64,14.40 245.83,14.40 246.02,14.95 246.21,14.95 246.40,14.95 246.60,15.38 246.79,15.38 246.98,15.38 247.17,17.95 247.37,17.95 247.56,17.95 247.75,17.95 247.94,19.37 248.13,19.37 248.33,17.33 248.52,17.33 248.71,17.33 248.90,17.71 249.10,17.71 249.29,20.84 249.48,20.84 249.67,14.97 249.86,14.97 250.06,14.97 250.25,17.38 250.44,17.38 250.63,22.26 250.83,22.26 251.02,19.10 251.21,21.23 251.40,21.23 251.59,21.23 251.79,19.73 251.98,19.73 252.17,19.73 252.36,22.46 252.56,22.46 252.75,23.09 252.94,23.09 253.13,23.09 253.32,19.10 253.52,19.10 253.71,19.10 253.90,15.71 254.09,15.71 254.29,15.71 254.48,15.12 254.67,15.12 254.86,15.12 255.05,23.00 255.25,19.57 255.44,19.57 255.63,20.09 255.82,20.09 256.02,20.09 256.21,20.09 256.40,24.29 256.59,24.29 256.78,24.29 256.98,18.53 257.17,18.53 257.36,25.93 257.55,25.93 257.75,25.93 257.94,22.06 258.13,22.06 258.32,22.06 258.51,21.70 258.71,21.70 258.90,21.12 259.09,21.12 259.28,21.12 259.48,20.98 259.67,20.98 259.86,20.66 260.05,20.66 260.24,20.66 260.44,21.14 260.63,26.66 260.82,26.66 261.01,24.50 261.21,19.59 261.40,19.59 261.59,19.99 261.78,19.99 261.97,22.13 262.17,22.13 262.36,22.13 262.55,21.24 262.74,21.24 262.94,21.24 263.13,21.24 263.32,21.24 263.51,24.34 263.71,24.34 263.90,24.34 264.09,20.57 264.28,20.57 264.47,25.37 264.67,25.37 264.86,23.08 265.05,23.08 265.24,23.08 265.44,28.41 265.63,26.57 265.82,26.57 266.01,30.32 266.20,30.32 266.40,25.39 266.59,25.39 266.78,31.05 266.97,31.05 267.17,25.34 267.36,25.34 267.55,25.34 267.74,22.78 267.93,27.07 268.13,27.07 268.32,27.07 268.51,23.76 268.70,23.76 268.90,23.76 269.09,22.16 269.28,26.32 269.47,26.32 269.66,22.23 269.86,22.23 270.05,22.23 270.24,22.23 270.43,22.71 270.63,22.71 270.82,22.71 271.01,18.26 271.20,18.26 271.39,21.23 271.59,21.23 271.78,18.01 271.97,18.01 272.16,18.01 272.36,15.17 272.55,19.55 272.74,19.55 272.93,19.55 273.12,14.89 273.32,19.24 273.51,19.24 273.70,22.20 273.89,22.20 274.09,25.58 274.28,25.58 274.47,20.44 274.66,20.44 274.85,25.89 275.05,25.89 275.24,25.89 275.43,20.57 275.62,28.11 275.82,28.11 276.01,28.11 276.20,21.60 276.39,26.30 276.58,26.30 276.78,26.30 276.97,27.11 277.16,27.11 277.35,27.11 277.55,27.11 277.74,19.98 277.93,22.37 278.12,22.37 278.31,22.37 278.51,23.24 278.70,23.24 278.89,23.24 279.08,20.32 279.28,20.32 279.47,20.32 279.66,19.59 279.85,19.59 280.04,19.59 280.24,19.59 280.43,23.24 280.62,23.24 280.81,23.24 281.01,17.54 281.20,17.54 281.39,17.54 281.58,20.65 281.77,20.65 281.97,20.65 282.16,28.67 282.35,28.67 282.54,21.61 282.74,22.83 282.93,22.83 283.12,22.83 283.31,27.78 283.50,27.78 283.70,27.78 283.89,27.78 284.08,25.74 284.27,25.74 284.47,25.74 284.66,23.62 284.85,28.01 285.04,28.01 285.24,24.45 285.43,24.45 285.62,24.45 285.81,30.51 286.00,25.35 286.20,25.35 286.39,25.35 286.58,22.92 286.77,22.92 286.97,22.92 287.16,24.41 287.35,24.41 287.54,24.41 287.73,24.41 287.93,29.32 288.12,28.82 288.31,28.82 288.50,28.82 288.70,36.81 288.89,36.81 289.08,30.92 289.27,30.17 289.46,30.17 289.66,30.17 289.85,32.20 290.04,32.20 290.23,32.20 290.43,32.17 290.62,32.17 290.81,32.17 291.00,33.10 291.19,33.10 291.39,33.10 291.58,35.32 291.77,35.32 291.96,35.32 292.16,40.36 292.35,40.36 292.54,39.41 292.73,39.41 292.92,42.72 293.12,39.41 293.31,39.41 293.50,45.13 293.69,45.13 293.89,45.13 294.08,49.46 294.27,49.46 294.46,49.46 294.65,53.34 294.85,53.34 295.04,53.34 295.23,50.93 295.42,50.93 295.62,50.93 295.81,55.85 296.00,55.85" />
</svg>