<svg width="300" height="60" xmlns="http://www.w3.org/2000/svg">
  <polyline fill="rgba(255,200,0,0.3)" stroke="#ffbb00" stroke-width="2" points="4.00,46.27 4.15,46.40 4.29,46.21 4.44,46.11 4.59,45.28 4.73,44.94 4.88,44.63 5.02,44.05 5.17,43.53 5.32,42.54 5.46,43.17 5.61,43.52 5.76,43.52 5.90,43.73 6.05,43.84 6.19,44.01 6.34,44.00 6.49,44.15 6.63,44.03 6.78,43.28 6.93,43.74 7.07,44.25 7.22,44.30 7.36,44.24 7.51,42.61 7.66,41.82 7.80,41.50 7.95,41.26 8.10,41.02 8.24,40.69 8.39,40.57 8.54,40.83 8.68,41.03 8.83,40.81 8.97,40.30 9.12,39.67 9.27,39.10 9.41,38.46 9.56,37.85 9.71,37.38 9.85,36.59 10.00,35.91 10.14,34.60 10.29,33.44 10.44,32.51 10.58,31.99 10.73,31.55 10.88,31.74 11.02,31.75 11.17,31.78 11.31,31.30 11.46,30.74 11.61,30.59 11.75,30.53 11.90,30.58 12.05,30.63 12.19,30.20 12.34,29.96 12.48,30.01 12.63,30.39 12.78,30.57 12.92,30.56 13.07,30.81 13.22,30.47 13.36,30.14 13.51,29.75 13.66,30.23 13.80,30.48 13.95,30.63 14.09,30.72 14.24,30.43 14.39,29.96 14.53,29.67 14.68,29.23 14.83,28.32 14.97,27.80 15.12,27.05 15.26,26.19 15.41,25.95 15.56,26.07 15.70,25.99 15.85,25.95 16.00,26.37 16.14,27.27 16.29,27.38 16.43,27.17 16.58,26.45 16.73,25.66 16.87,25.05 17.02,24.58 17.17,24.00 17.31,23.48 17.46,22.97 17.61,22.68 17.75,23.19 17.90,22.62 18.04,21.81 18.19,21.16 18.34,20.02 18.48,18.90 18.63,18.76 18.78,18.78 18.92,18.55 19.07,18.35 19.21,18.24 19.36,17.86 19.51,17.50 19.65,17.27 19.80,17.66 19.95,18.17 20.09,18.54 20.24,19.00 20.38,19.67 20.53,20.83 20.68,22.57 20.82,23.32 20.97,24.17 21.12,24.83 21.26,25.89 21.41,26.62 21.56,27.67 21.70,28.36 21.85,28.91 21.99,29.35 22.14,29.48 22.29,29.84 22.43,30.32 22.58,30.62 22.73,31.17 22.87,30.91 23.02,30.67 23.16,30.72 23.31,31.19 23.46,31.82 23.60,32.50 23.75,33.53 23.90,34.75 24.04,36.02 24.19,36.45 24.33,36.14 24.48,37.00 24.63,37.85 24.77,38.70 24.92,39.08 25.07,38.79 25.21,38.55 25.36,39.08 25.51,39.49 25.65,40.00 25.80,41.22 25.94,42.21 26.09,42.67 26.24,42.30 26.38,42.31 26.53,42.11 26.68,41.72 26.82,41.65 26.97,41.36 27.11,40.92 27.26,40.92 27.41,40.91 27.55,40.92 27.70,41.00 27.85,40.96 27.99,40.82 28.14,41.14 28.28,41.84 28.43,42.73 28.58,43.56 28.72,43.71 28.87,43.59 29.02,43.72 29.16,44.20 29.31,44.81 29.45,44.99 29.60,44.66 29.75,44.90 29.89,45.08 30.04,45.58 30.19,46.04 30.33,46.66 30.48,47.37 30.63,47.99 30.77,48.34 30.92,48.78 31.06,49.49 31.21,49.90 31.36,50.18 31.50,51.03 31.65,51.70 31.80,52.21 31.94,52.36 32.09,52.71 32.23,52.72 32.38,52.81 32.53,53.28 32.67,53.82 32.82,53.42 32.97,52.80 33.11,52.86 33.26,53.10 33.40,52.99 33.55,53.15 33.70,53.06 33.84,53.46 33.99,53.17 34.14,53.14 34.28,53.45 34.43,53.96 34.58,55.06 34.72,55.45 34.87,55.87 35.01,55.89 35.16,55.98 35.31,55.83 35.45,55.58 35.60,55.30 35.75,54.81 35.89,54.06 36.04,53.75 36.18,53.42 36.33,53.54 36.48,53.23 36.62,52.85 36.77,52.59 36.92,52.56 37.06,52.55 37.21,52.50 37.35,52.59 37.50,52.43 37.65,52.43 37.79,52.27 37.94,52.24 38.09,51.98 38.23,51.79 38.38,51.23 38.53,50.47 38.67,49.93 38.82,49.14 38.96,48.45 39.11,47.56 39.26,46.94 39.40,46.78 39.55,47.22 39.70,48.27 39.84,47.83 39.99,47.05 40.13,46.33 40.28,45.96 40.43,45.74 40.57,45.14 40.72,44.32 40.87,44.07 41.01,44.01 41.16,43.87 41.30,43.29 41.45,42.58 41.60,41.77 41.74,40.80 41.89,40.15 42.04,39.71 42.18,39.32 42.33,38.29 42.47,37.04 42.62,35.95 42.77,35.20 42.91,33.61 43.06,32.70 43.21,31.99 43.35,31.62 43.50,31.15 43.65,30.38 43.79,29.48 43.94,29.09 44.08,29.35 44.23,29.14 44.38,28.38 44.52,27.61 44.67,27.16 44.82,26.70 44.96,26.14 45.11,25.38 45.25,24.67 45.40,23.55 45.55,22.24 45.69,21.36 45.84,20.56 45.99,20.17 46.13,20.15 46.28,18.90 46.42,17.82 46.57,16.88 46.72,16.33 46.86,15.62 47.01,14.91 47.16,14.17 47.30,14.33 47.45,14.55 47.60,15.90 47.74,15.80 47.89,14.85 48.03,14.06 48.18,13.89 48.33,13.37 48.47,13.09 48.62,13.27 48.77,12.83 48.91,12.07 49.06,11.61 49.20,10.99 49.35,10.61 49.50,10.06 49.64,8.88 49.79,8.40 49.94,8.43 50.08,8.02 50.23,7.44 50.37,7.31 50.52,6.87 50.67,6.47 50.81,5.83 50.96,4.98 51.11,4.33 51.25,4.01 51.40,4.15 51.55,4.61 51.69,4.94 51.84,4.96 51.98,4.86 52.13,4.95 52.28,5.50 52.42,5.96 52.57,5.82 52.72,5.62 52.86,5.48 53.01,5.35 53.15,5.48 53.30,5.73 53.45,6.01 53.59,6.32 53.74,6.57 53.89,6.77 54.03,7.03 54.18,7.34 54.32,7.70 54.47,7.99 54.62,8.01 54.76,7.70 54.91,7.39 55.06,6.77 55.20,6.49 55.35,6.29 55.49,6.08 55.64,5.93 55.79,6.08 55.93,6.51 56.08,7.09 56.23,7.62 56.37,8.12 56.52,8.50 56.67,8.90 56.81,9.68 56.96,10.50 57.10,11.29 57.25,11.58 57.40,11.64 57.54,11.75 57.69,11.84 57.84,11.97 57.98,12.09 58.13,12.25 58.27,12.45 58.42,12.59 58.57,12.90 58.71,13.00 58.86,13.06 59.01,12.88 59.15,12.78 59.30,12.61 59.44,12.26 59.59,11.72 59.74,11.21 59.88,10.68 60.03,10.26 60.18,9.95 60.32,9.75 60.47,9.53 60.62,9.04 60.76,8.49 60.91,7.79 61.05,7.27 61.20,6.64 61.35,6.25 61.49,5.88 61.64,6.02 61.79,6.15 61.93,6.59 62.08,46.23 62.22,46.11 62.37,45.09 62.52,44.95 62.66,44.55 62.81,44.03 62.96,43.57 63.10,42.53 63.25,43.23 63.39,43.51 63.54,43.60 63.69,43.75 63.83,43.93 63.98,43.99 64.13,43.91 64.27,44.14 64.42,44.03 64.57,43.28 64.71,43.71 64.86,44.24 65.00,44.30 65.15,44.18 65.30,42.62 65.44,41.78 65.59,41.50 65.74,41.23 65.88,41.04 66.03,40.66 66.17,40.64 66.32,40.82 66.47,41.05 66.61,40.82 66.76,40.25 66.91,39.69 67.05,39.08 67.20,38.49 67.34,37.82 67.49,37.38 67.64,36.58 67.78,35.85 67.93,34.53 68.08,33.45 68.22,32.57 68.37,31.99 68.52,31.59 68.66,31.77 68.81,31.84 68.95,31.82 69.10,31.43 69.25,30.80 69.39,30.55 69.54,30.58 69.69,30.57 69.83,30.55 69.98,30.22 70.12,29.90 70.27,30.03 70.42,30.36 70.56,30.58 70.71,30.54 70.86,30.89 71.00,30.61 71.15,30.07 71.29,29.73 71.44,30.36 71.59,30.49 71.73,30.55 71.88,30.64 72.03,30.44 72.17,29.99 72.32,29.66 72.46,29.31 72.61,28.34 72.76,27.73 72.90,27.04 73.05,26.23 73.20,25.94 73.34,26.14 73.49,26.12 73.64,25.99 73.78,26.40 73.93,27.33 74.07,27.38 74.22,27.21 74.37,26.54 74.51,25.63 74.66,25.08 74.81,24.51 74.95,24.07 75.10,23.53 75.24,22.91 75.39,22.73 75.54,23.19 75.68,22.64 75.83,21.83 75.98,21.14 76.12,19.81 76.27,19.06 76.41,18.85 76.56,18.80 76.71,18.48 76.85,18.35 77.00,18.23 77.15,17.88 77.29,17.48 77.44,17.33 77.59,17.59 77.73,18.15 77.88,18.60 78.02,18.98 78.17,19.71 78.32,20.82 78.46,22.47 78.61,23.37 78.76,24.21 78.90,24.85 79.05,25.81 79.19,26.64 79.34,27.61 79.49,28.38 79.63,28.88 79.78,29.35 79.93,29.43 80.07,29.87 80.22,30.29 80.36,30.66 80.51,31.12 80.66,30.96 80.80,30.68 80.95,30.62 81.10,31.17 81.24,31.75 81.39,32.51 81.54,33.57 81.68,34.75 81.83,36.02 81.97,36.45 82.12,36.20 82.27,36.94 82.41,37.87 82.56,38.69 82.71,39.05 82.85,38.69 83.00,38.57 83.14,39.08 83.29,39.60 83.44,39.97 83.58,41.14 83.73,42.23 83.88,42.69 84.02,42.45 84.17,42.42 84.31,42.19 84.46,41.93 84.61,41.50 84.75,41.33 84.90,40.86 85.05,40.91 85.19,40.87 85.34,40.94 85.48,40.98 85.63,40.87 85.78,40.82 85.92,41.08 86.07,41.87 86.22,42.85 86.36,43.59 86.51,43.74 86.66,43.60 86.80,43.64 86.95,44.20 87.09,44.73 87.24,45.03 87.39,44.78 87.53,44.80 87.68,45.06 87.83,45.55 87.97,46.12 88.12,46.61 88.26,47.29 88.41,47.98 88.56,48.30 88.70,48.80 88.85,49.46 89.00,49.95 89.14,50.18 89.29,50.91 89.43,51.71 89.58,52.17 89.73,52.36 89.87,52.68 90.02,52.68 90.17,52.75 90.31,53.28 90.46,53.82 90.61,53.36 90.75,52.73 90.90,52.82 91.04,53.07 91.19,52.98 91.34,53.21 91.48,53.04 91.63,53.44 91.78,53.18 91.92,53.18 92.07,53.46 92.21,53.97 92.36,55.09 92.51,55.46 92.65,55.88 92.80,55.89 92.95,55.99 93.09,55.83 93.24,55.60 93.38,55.31 93.53,54.78 93.68,54.17 93.82,53.71 93.97,53.59 94.12,53.52 94.26,53.21 94.41,52.86 94.56,52.61 94.70,52.57 94.85,52.56 94.99,52.55 95.14,52.60 95.29,52.59 95.43,52.27 95.58,52.22 95.73,52.19 95.87,51.98 96.02,51.80 96.16,51.26 96.31,50.58 96.46,49.97 96.60,49.25 96.75,48.31 96.90,47.51 97.04,46.81 97.19,46.76 97.33,47.30 97.48,48.31 97.63,47.80 97.77,47.02 97.92,46.29 98.07,45.95 98.21,45.74 98.36,45.12 98.51,44.35 98.65,44.10 98.80,44.02 98.94,43.99 99.09,43.27 99.24,42.50 99.38,41.85 99.53,40.83 99.68,40.16 99.82,39.52 99.97,39.16 100.11,38.27 100.26,37.11 100.41,35.96 100.55,35.15 100.70,33.65 100.85,32.62 100.99,31.99 101.14,31.54 101.28,31.19 101.43,30.29 101.58,29.50 101.72,29.33 101.87,29.31 102.02,28.96 102.16,28.57 102.31,27.69 102.45,27.16 102.60,26.72 102.75,26.10 102.89,25.46 103.04,24.62 103.19,23.51 103.33,22.07 103.48,21.40 103.63,20.43 103.77,20.11 103.92,20.04 104.06,18.88 104.21,17.70 104.36,16.86 104.50,16.33 104.65,15.59 104.80,14.89 104.94,14.23 105.09,14.37 105.23,14.57 105.38,15.95 105.53,15.77 105.67,14.81 105.82,14.14 105.97,13.92 106.11,13.38 106.26,13.24 106.40,13.05 106.55,12.74 106.70,11.91 106.84,11.59 106.99,10.95 107.14,10.60 107.28,10.04 107.43,8.98 107.58,8.69 107.72,8.47 107.87,8.08 108.01,7.49 108.16,7.29 108.31,6.80 108.45,6.48 108.60,5.82 108.75,5.00 108.89,4.36 109.04,4.00 109.18,4.16 109.33,4.59 109.48,4.93 109.62,4.99 109.77,4.89 109.92,5.00 110.06,5.46 110.21,5.91 110.35,5.85 110.50,5.62 110.65,5.47 110.79,5.36 110.94,5.50 111.09,5.70 111.23,6.00 111.38,6.30 111.53,6.57 111.67,6.77 111.82,6.99 111.96,7.35 112.11,7.70 112.26,7.98 112.40,8.04 112.55,7.71 112.70,7.38 112.84,6.78 112.99,6.49 113.13,6.29 113.28,6.08 113.43,5.92 113.57,6.07 113.72,6.51 113.87,7.03 114.01,7.65 114.16,8.14 114.30,8.52 114.45,8.89 114.60,9.62 114.74,10.48 114.89,11.30 115.04,11.58 115.18,11.66 115.33,11.73 115.47,11.84 115.62,11.97 115.77,12.09 115.91,12.24 116.06,12.45 116.21,12.62 116.35,12.89 116.50,12.99 116.65,13.07 116.79,12.89 116.94,12.77 117.08,12.61 117.23,12.24 117.38,11.72 117.52,11.18 117.67,10.68 117.82,10.24 117.96,9.93 118.11,9.76 118.25,9.53 118.40,9.06 118.55,8.52 118.69,7.81 118.84,7.25 118.99,6.72 119.13,6.26 119.28,5.94 119.42,6.06 119.57,6.16 119.72,6.58 119.86,46.76 120.01,46.27 120.16,46.75 120.30,46.33 120.45,46.39 120.60,46.24 120.74,29.95 120.89,30.00 121.03,30.48 121.18,30.61 121.33,30.44 121.47,30.69 121.62,30.64 121.77,30.02 121.91,29.60 122.06,28.82 122.20,28.70 122.35,27.99 122.50,27.26 122.64,26.14 122.79,25.96 122.94,26.06 123.08,26.19 123.23,25.99 123.37,26.58 123.52,27.36 123.67,27.30 123.81,27.17 123.96,26.38 124.11,25.75 124.25,25.30 124.40,24.62 124.55,24.21 124.69,23.55 124.84,22.92 124.98,22.92 125.13,23.09 125.28,22.41 125.42,21.68 125.57,20.95 125.72,19.51 125.86,19.07 126.01,18.95 126.15,18.94 126.30,18.42 126.45,18.38 126.59,18.25 126.74,17.89 126.89,17.45 127.03,17.25 127.18,17.51 127.32,18.26 127.47,18.47 127.62,19.20 127.76,19.66 127.91,21.11 128.06,22.53 128.20,23.25 128.35,24.48 128.49,25.13 128.64,25.94 128.79,26.59 128.93,27.39 129.08,28.57 129.23,28.90 129.37,29.48 129.52,29.46 129.67,30.09 129.81,30.31 129.96,30.62 130.10,31.27 130.25,30.79 130.40,30.69 130.54,30.57 130.69,31.37 130.84,31.76 130.98,32.35 131.13,33.81 131.27,34.81 131.42,36.03 131.57,36.42 131.71,36.29 131.86,36.76 132.01,37.97 132.15,38.73 132.30,39.10 132.44,38.82 132.59,38.28 132.74,39.02 132.88,39.54 133.03,40.22 133.18,41.02 133.32,42.53 133.47,42.90 133.62,42.67 133.76,41.77 133.91,42.13 134.05,41.70 134.20,41.62 134.35,41.09 134.49,41.00 134.64,41.06 134.79,40.81 134.93,41.04 135.08,40.84 135.22,40.94 135.37,40.84 135.52,40.95 135.66,42.00 135.81,42.65 135.96,43.44 136.10,43.93 136.25,43.60 136.39,43.71 136.54,44.31 136.69,45.02 136.83,45.34 136.98,44.94 137.13,44.98 137.27,44.83 137.42,45.41 137.57,46.20 137.71,46.83 137.86,47.36 138.00,48.04 138.15,48.23 138.30,48.67 138.44,49.43 138.59,49.84 138.74,50.04 138.88,51.29 139.03,51.56 139.17,52.19 139.32,52.49 139.47,52.61 139.61,52.62 139.76,52.68 139.91,53.10 140.05,53.77 140.20,53.57 140.34,52.72 140.49,52.85 140.64,53.15 140.78,52.92 140.93,53.18 141.08,52.98 141.22,53.48 141.37,53.24 141.52,53.18 141.66,53.52 141.81,53.90 141.95,55.08 142.10,55.43 142.25,55.85 142.39,55.80 142.54,55.80 142.69,55.77 142.83,55.46 142.98,55.15 143.12,54.81 143.27,53.86 143.42,53.97 143.56,53.18 143.71,53.48 143.86,53.15 144.00,52.75 144.15,52.57 144.29,52.40 144.44,52.54 144.59,52.38 144.73,52.29 144.88,52.39 145.03,52.22 145.17,52.08 145.32,52.08 145.46,51.88 145.61,51.71 145.76,50.96 145.90,50.30 146.05,50.05 146.20,49.17 146.34,48.42 146.49,47.62 146.64,47.03 146.78,46.74 146.93,47.47 147.07,48.18 147.22,47.65 147.37,46.75 147.51,46.31 147.66,45.94 147.81,45.59 147.95,44.72 148.10,44.37 148.24,44.01 148.39,43.87 148.54,43.92 148.68,42.90 148.83,42.59 148.98,41.61 149.12,40.32 149.27,39.88 149.41,39.85 149.56,39.07 149.71,37.75 149.85,36.55 150.00,35.74 150.15,35.31 150.29,33.42 150.44,32.93 150.59,32.05 150.73,31.93 150.88,31.27 151.02,30.33 151.17,29.98 151.32,29.60 151.46,28.97 151.61,28.95 151.76,28.63 151.90,27.26 152.05,27.07 152.19,26.71 152.34,26.13 152.49,25.58 152.63,24.85 152.78,23.24 152.93,22.11 153.07,21.27 153.22,20.87 153.36,20.69 153.51,19.96 153.66,18.76 153.80,17.70 153.95,16.76 154.10,16.44 154.24,15.59 154.39,14.47 154.54,14.08 154.68,14.47 154.83,14.38 154.97,15.88 155.12,15.61 155.27,14.72 155.41,13.73 155.56,13.55 155.71,13.08 155.85,13.00 156.00,12.41 156.14,12.74 156.29,11.73 156.44,11.42 156.58,10.97 156.73,10.53 156.88,9.98 157.02,8.67 157.17,8.75 157.31,8.15 157.46,7.92 157.61,7.46 157.75,7.14 157.90,6.66 158.05,6.28 158.19,5.60 158.34,5.01 158.48,4.31 158.63,4.03 158.78,4.30 158.92,4.66 159.07,4.96 159.22,5.02 159.36,4.84 159.51,4.86 159.66,5.69 159.80,5.96 159.95,5.75 160.09,5.68 160.24,5.48 160.39,5.39 160.53,5.59 160.68,5.80 160.83,6.08 160.97,6.40 161.12,6.61 161.26,6.83 161.41,7.09 161.56,7.49 161.70,7.64 161.85,8.04 162.00,7.98 162.14,7.68 162.29,7.30 162.43,6.71 162.58,6.48 162.73,6.23 162.87,6.08 163.02,5.83 163.17,6.03 163.31,6.45 163.46,7.09 163.61,7.67 163.75,8.03 163.90,8.42 164.04,8.83 164.19,9.35 164.34,10.36 164.48,11.29 164.63,11.57 164.78,11.70 164.92,11.76 165.07,11.90 165.21,12.02 165.36,12.14 165.51,12.24 165.65,12.47 165.80,12.66 165.95,12.93 166.09,12.98 166.24,13.09 166.38,12.94 166.53,12.80 166.68,12.62 166.82,12.27 166.97,11.75 167.12,11.25 167.26,10.66 167.41,10.29 167.56,9.98 167.70,9.80 167.85,9.63 167.99,9.15 168.14,8.57 168.29,7.82 168.43,7.25 168.58,6.83 168.73,6.32 168.87,5.98 169.02,6.00 169.16,6.24 169.31,6.84 169.46,46.73 169.60,46.23 169.75,46.20 169.90,46.18 170.04,46.04 170.19,45.12 170.33,44.74 170.48,44.47 170.63,43.93 170.77,43.48 170.92,42.49 171.07,42.97 171.21,43.39 171.36,43.63 171.51,43.63 171.65,43.85 171.80,44.00 171.94,44.05 172.09,44.14 172.24,43.95 172.38,43.27 172.53,43.60 172.68,44.31 172.82,44.36 172.97,44.11 173.11,42.61 173.26,41.74 173.41,41.48 173.55,41.23 173.70,40.99 173.85,40.75 173.99,40.55 174.14,40.80 174.28,41.11 174.43,40.70 174.58,40.25 174.72,39.79 174.87,38.92 175.02,38.61 175.16,37.80 175.31,37.37 175.45,36.50 175.60,35.68 175.75,34.36 175.89,33.55 176.04,32.45 176.19,31.99 176.33,31.30 176.48,31.49 176.63,31.60 176.77,31.99 176.92,31.35 177.06,31.04 177.21,30.47 177.36,30.71 177.50,30.70 177.65,30.35 177.80,30.21 177.94,29.93 178.09,29.81 178.23,30.43 178.38,30.54 178.53,30.48 178.67,30.90 178.82,30.57 178.97,29.95 179.11,30.00 179.26,30.48 179.40,30.61 179.55,30.44 179.70,47.03 179.84,46.24 179.99,46.42 180.14,46.04 180.28,46.05 180.43,45.19 180.58,44.41 180.72,44.70 180.87,43.92 181.01,42.99 181.16,42.73 181.31,42.73 181.45,43.68 181.60,43.54 181.75,43.48 181.89,43.76 182.04,43.47 182.18,43.89 182.33,44.13 182.48,43.69 182.62,43.31 182.77,43.31 182.92,43.79 183.06,44.30 183.21,43.92 183.35,42.26 183.50,41.89 183.65,41.20 183.79,41.20 183.94,41.13 184.09,40.43 184.23,40.47 184.38,40.68 184.53,40.84 184.67,40.96 184.82,39.88 184.96,39.46 185.11,39.15 185.26,38.23 185.40,38.11 185.55,37.37 185.70,36.36 185.84,35.01 185.99,34.84 186.13,33.51 186.28,32.29 186.43,31.61 186.57,30.46 186.72,31.03 186.87,31.59 187.01,32.09 187.16,31.03 187.30,31.35 187.45,30.22 187.60,30.90 187.74,30.21 187.89,30.71 188.04,29.67 188.18,29.67 188.33,28.89 188.47,29.70 188.62,30.47 188.77,30.10 188.91,30.69 189.06,30.07 189.21,30.28 189.35,29.79 189.50,30.48 189.65,30.48 189.79,30.07 189.94,30.64 190.08,30.02 190.23,30.27 190.38,29.39 190.52,28.28 190.67,28.47 190.82,27.24 190.96,27.50 191.11,26.36 191.25,26.02 191.40,25.15 191.55,26.03 191.69,25.80 191.84,26.65 191.99,26.77 192.13,27.05 192.28,26.79 192.42,26.13 192.57,25.75 192.72,25.10 192.86,24.29 193.01,23.68 193.16,23.00 193.30,23.30 193.45,22.34 193.60,22.93 193.74,22.70 193.89,21.80 194.03,20.73 194.18,19.70 194.33,19.06 194.47,19.04 194.62,18.19 194.77,18.49 194.91,18.63 195.06,17.74 195.20,17.73 195.35,17.17 195.50,17.45 195.64,17.38 195.79,18.44 195.94,18.32 196.08,19.54 196.23,19.56 196.37,21.52 196.52,22.13 196.67,22.66 196.81,24.36 196.96,24.45 197.11,26.18 197.25,26.33 197.40,26.51 197.55,28.33 197.69,28.25 197.84,29.10 197.98,28.86 198.13,29.90 198.28,29.70 198.42,30.67 198.57,30.08 198.72,30.65 198.86,29.98 199.01,30.82 199.15,30.92 199.30,32.17 199.45,32.66 199.59,34.16 199.74,34.99 199.89,35.65 200.03,36.50 200.18,35.74 200.32,36.31 200.47,37.83 200.62,38.39 200.76,39.15 200.91,38.43 201.06,38.43 201.20,37.94 201.35,39.28 201.49,39.49 201.64,41.15 201.79,41.74 201.93,42.95 202.08,42.14 202.23,42.58 202.37,41.62 202.52,42.38 202.67,41.59 202.81,40.11 202.96,41.14 203.10,40.81 203.25,40.63 203.40,40.56 203.54,40.64 203.69,40.77 203.84,41.48 203.98,40.44 204.13,41.18 204.27,41.97 204.42,43.48 204.57,43.09 204.71,43.37 204.86,43.96 205.01,43.47 205.15,44.74 205.30,44.38 205.44,44.16 205.59,44.23 205.74,44.54 205.88,45.01 206.03,46.25 206.18,47.00 206.32,47.74 206.47,48.34 206.62,47.74 206.76,48.23 206.91,49.22 207.05,49.37 207.20,49.68 207.35,51.20 207.49,51.49 207.64,51.81 207.79,52.24 207.93,52.38 208.08,52.86 208.22,52.94 208.37,53.38 208.52,53.65 208.66,53.43 208.81,53.11 208.96,52.80 209.10,53.17 209.25,52.91 209.39,53.31 209.54,52.95 209.69,53.11 209.83,52.98 209.98,52.92 210.13,53.73 210.27,53.89 210.42,55.09 210.57,55.38 210.71,55.86 210.86,56.00 211.00,55.91 211.15,55.91 211.30,55.63 211.44,55.15 211.59,54.81 211.74,53.91 211.88,53.84 212.03,53.26 212.17,53.16 212.32,53.22 212.47,53.07 212.61,52.38 212.76,52.40 212.91,52.49 213.05,52.57 213.20,52.70 213.34,52.71 213.49,52.65 213.64,52.53 213.78,52.34 213.93,52.12 214.08,51.22 214.22,50.92 214.37,50.71 214.52,49.44 214.66,49.44 214.81,48.18 214.95,46.99 215.10,47.29 215.25,46.79 215.39,47.96 215.54,47.59 215.69,47.33 215.83,46.12 215.98,46.60 216.12,45.94 216.27,45.54 216.42,45.46 216.56,44.45 216.71,44.08 216.86,43.98 217.00,43.98 217.15,43.69 217.29,43.08 217.44,41.53 217.59,40.97 217.73,39.73 217.88,40.04 218.03,39.14 218.17,37.97 218.32,36.94 218.46,36.07 218.61,34.86 218.76,34.18 218.90,32.20 219.05,32.52 219.20,31.54 219.34,30.50 219.49,30.50 219.64,29.31 219.78,28.58 219.93,28.40 220.07,28.40 220.22,27.86 220.37,26.85 220.51,26.29 220.66,26.29 220.81,25.67 220.95,24.50 221.10,24.98 221.24,23.60 221.39,21.45 221.54,20.24 221.68,21.24 221.83,20.59 221.98,18.88 222.12,18.08 222.27,18.43 222.41,17.42 222.56,16.06 222.71,15.49 222.85,14.22 223.00,13.63 223.15,14.67 223.29,14.82 223.44,15.74 223.59,15.74 223.73,15.10 223.88,13.75 224.02,14.39 224.17,13.10 224.32,13.29 224.46,12.74 224.61,12.39 224.76,12.09 224.90,11.89 225.05,10.49 225.19,10.23 225.34,9.96 225.49,8.83 225.63,8.84 225.78,7.76 225.93,7.96 226.07,7.83 226.22,7.55 226.36,7.06 226.51,6.49 226.66,5.77 226.80,4.98 226.95,4.44 227.10,4.05 227.24,4.44 227.39,4.44 227.54,4.69 227.68,5.07 227.83,4.58 227.97,4.68 228.12,5.61 228.27,6.06 228.41,5.59 228.56,5.72 228.71,5.37 228.85,5.52 229.00,5.46 229.14,5.74 229.29,5.99 229.44,6.30 229.58,6.57 229.73,6.80 229.88,7.02 230.02,7.43 230.17,7.71 230.31,8.12 230.46,7.97 230.61,7.95 230.75,7.34 230.90,6.99 231.05,6.71 231.19,6.22 231.34,6.03 231.48,5.92 231.63,6.27 231.78,6.81 231.92,7.47 232.07,8.06 232.22,7.92 232.36,8.41 232.51,8.83 232.66,9.36 232.80,10.06 232.95,10.84 233.09,11.42 233.24,11.57 233.39,11.81 233.53,11.79 233.68,12.00 233.83,12.22 233.97,12.22 234.12,12.48 234.26,12.65 234.41,12.84 234.56,12.96 234.70,13.09 234.85,12.96 235.00,12.79 235.14,12.62 235.29,12.24 235.43,11.72 235.58,11.22 235.73,10.52 235.87,10.16 236.02,9.89 236.17,9.72 236.31,9.38 236.46,8.84 236.61,8.18 236.75,7.51 236.90,6.85 237.04,6.98 237.19,6.32 237.34,6.06 237.48,6.09 237.63,6.20 237.78,6.92 237.92,47.35 238.07,45.22 238.21,45.07 238.36,45.07 238.51,45.07 238.65,45.22 238.80,43.22 238.95,43.22 239.09,43.22 239.24,43.05 239.38,43.05 239.53,43.05 239.68,43.05 239.82,42.79 239.97,42.79 240.12,42.79 240.26,43.54 240.41,43.54 240.56,43.54 240.70,42.76 240.85,42.76 240.99,42.76 241.14,42.76 241.29,43.98 241.43,42.52 241.58,42.52 241.73,41.43 241.87,41.43 242.02,41.43 242.16,41.43 242.31,38.86 242.46,38.86 242.60,38.86 242.75,39.10 242.90,39.10 243.04,39.10 243.19,38.58 243.33,38.58 243.48,38.58 243.63,38.16 243.77,35.02 243.92,35.02 244.07,35.02 244.21,34.79 244.36,31.06 244.51,31.06 244.65,31.06 244.80,26.81 244.94,28.02 245.09,28.02 245.24,28.02 245.38,29.42 245.53,29.42 245.68,29.42 245.82,30.81 245.97,26.38 246.11,26.38 246.26,28.30 246.41,28.30 246.55,28.30 246.70,28.30 246.85,30.31 246.99,26.62 247.14,26.62 247.28,28.72 247.43,28.72 247.58,28.72 247.72,30.46 247.87,30.46 248.02,26.78 248.16,26.78 248.31,28.73 248.45,28.73 248.60,28.73 248.75,25.42 248.89,25.42 249.04,25.42 249.19,25.42 249.33,26.51 249.48,23.03 249.63,23.03 249.77,23.03 249.92,25.82 250.06,25.82 250.21,23.06 250.36,24.54 250.50,24.54 250.65,24.54 250.80,24.24 250.94,24.24 251.09,24.24 251.23,21.55 251.38,21.55 251.53,21.55 251.67,18.14 251.82,19.87 251.97,19.87 252.11,19.87 252.26,18.34 252.40,18.34 252.55,18.34 252.70,17.20 252.84,17.20 252.99,17.20 253.14,17.57 253.28,17.57 253.43,17.57 253.58,15.66 253.72,17.45 253.87,17.45 254.01,17.68 254.16,17.68 254.31,17.68 254.45,19.30 254.60,22.04 254.75,22.04 254.89,23.05 255.04,23.05 255.18,23.05 255.33,23.75 255.48,23.75 255.62,23.75 255.77,27.94 255.92,27.94 256.06,27.51 256.21,27.51 256.35,27.51 256.50,28.00 256.65,30.01 256.79,30.01 256.94,29.33 257.09,29.33 257.23,29.33 257.38,30.18 257.53,32.93 257.67,32.93 257.82,34.15 257.96,34.15 258.11,34.15 258.26,33.11 258.40,33.11 258.55,36.38 258.70,36.38 258.84,34.93 258.99,36.75 259.13,36.75 259.28,36.75 259.43,36.75 259.57,39.26 259.72,36.18 259.87,36.18 260.01,40.57 260.16,40.57 260.30,40.57 260.45,38.03 260.60,38.03 260.74,42.37 260.89,40.29 261.04,40.29 261.18,39.16 261.33,39.16 261.47,39.16 261.62,39.18 261.77,39.18 261.91,39.18 262.06,40.47 262.21,40.47 262.35,41.92 262.50,41.92 262.65,41.92 262.79,40.42 262.94,40.42 263.08,44.06 263.23,42.95 263.38,42.95 263.52,42.95 263.67,43.09 263.82,43.09 263.96,43.09 264.11,45.02 264.25,45.02 264.40,47.27 264.55,47.27 264.69,47.27 264.84,48.80 264.99,48.80 265.13,49.79 265.28,49.79 265.42,49.79 265.57,50.75 265.72,50.75 265.86,50.75 266.01,51.93 266.16,51.93 266.30,52.43 266.45,52.43 266.60,52.43 266.74,51.76 266.89,51.76 267.03,52.65 267.18,52.65 267.33,52.65 267.47,53.45 267.62,53.45 267.77,51.81 267.91,51.56 268.06,51.56 268.20,51.56 268.35,54.34 268.50,54.34 268.64,54.34 268.79,55.26 268.94,55.26 269.08,55.93 269.23,56.00 269.37,56.00 269.52,56.00 269.67,55.11 269.81,55.11 269.96,54.19 270.11,53.13 270.25,53.13 270.40,53.13 270.55,53.13 270.69,52.56 270.84,52.56 270.98,52.56 271.13,52.40 271.28,52.40 271.42,52.40 271.57,52.56 271.72,52.56 271.86,52.56 272.01,52.25 272.15,52.25 272.30,49.76 272.45,49.22 272.59,49.22 272.74,49.22 272.89,49.22 273.03,48.42 273.18,45.46 273.32,45.46 273.47,45.82 273.62,45.82 273.76,45.82 273.91,46.74 274.06,46.74 274.20,46.74 274.35,46.74 274.49,44.47 274.64,44.47 274.79,44.47 274.93,44.10 275.08,44.10 275.23,44.10 275.37,44.10 275.52,43.08 275.67,43.08 275.81,43.08 275.96,38.61 276.10,38.61 276.25,38.61 276.40,35.02 276.54,35.02 276.69,35.02 276.84,35.02 276.98,32.74 277.13,32.74 277.27,32.74 277.42,28.33 277.57,28.33 277.71,28.33 277.86,28.33 278.01,25.97 278.15,25.97 278.30,25.97 278.44,25.97 278.59,23.69 278.74,23.69 278.88,23.69 279.03,23.69 279.18,20.49 279.32,20.49 279.47,20.49 279.62,20.49 279.76,16.97 279.91,16.97 280.05,16.97 280.20,16.97 280.35,15.01 280.49,15.01 280.64,15.01 280.79,15.01 280.93,13.02 281.08,13.02 281.22,13.02 281.37,13.02 281.52,12.82 281.66,12.82 281.81,12.82 281.96,15.42 282.10,13.60 282.25,13.60 282.39,13.60 282.54,15.87 282.69,13.07 282.83,13.07 282.98,13.07 283.13,12.03 283.27,8.49 283.42,8.49 283.57,7.94 283.71,7.94 283.86,7.94 284.00,7.94 284.15,7.88 284.30,7.88 284.44,7.88 284.59,7.06 284.74,7.06 284.88,7.06 285.03,5.29 285.17,5.29 285.32,5.29 285.47,4.91 285.61,4.91 285.76,4.22 285.91,4.22 286.05,5.17 286.20,5.17 286.34,5.17 286.49,6.29 286.64,6.29 286.78,6.29 286.93,6.29 287.08,6.88 287.22,5.82 287.37,5.82 287.52,6.73 287.66,6.73 287.81,6.73 287.95,7.84 288.10,7.47 288.25,7.47 288.39,8.62 288.54,8.62 288.69,8.62 288.83,8.73 288.98,7.20 289.12,7.20 289.27,6.58 289.42,6.58 289.56,6.46 289.71,6.46 289.86,6.46 290.00,8.27 290.15,8.27 290.29,8.27 290.44,8.03 290.59,9.61 290.73,9.61 290.88,9.61 291.03,11.09 291.17,11.09 291.32,11.09 291.46,11.45 291.61,12.10 291.76,12.10 291.90,12.33 292.05,12.33 292.20,12.33 292.34,12.78 292.49,13.18 292.64,13.18 292.78,13.18 292.93,12.93 293.07,12.93 293.22,12.93 293.37,11.94 293.51,11.94 293.66,11.94 293.81,10.87 293.95,10.87 294.10,10.87 294.24,9.70 294.39,9.70 294.54,9.70 294.68,7.89 294.83,7.89 294.98,7.89 295.12,6.14 295.27,6.14 295.41,6.14 295.56,6.14 295.71,5.89 295.85,5.89 296.00,5.89" />
</svg>