<svg width="300" height="60" xmlns="http://www.w3.org/2000/svg">
  <polyline fill="rgba(255,200,0,0.3)" stroke="#ffbb00" stroke-width="2" points="4.00,52.69 4.23,52.25 4.45,51.61 4.68,50.84 4.91,50.26 5.14,49.60 5.36,50.06 5.59,50.28 5.82,47.29 6.05,45.71 6.27,43.13 6.50,40.14 6.73,37.86 6.96,35.31 7.18,32.87 7.41,30.99 7.64,29.49 7.87,29.06 8.09,30.61 8.32,33.88 8.55,35.19 8.78,37.61 9.00,38.48 9.23,39.20 9.46,39.30 9.69,38.94 9.91,38.29 10.14,37.36 10.37,36.77 10.60,35.90 10.82,34.84 11.05,32.87 11.28,31.87 11.50,30.73 11.73,29.90 11.96,28.69 12.19,28.30 12.41,26.34 12.64,24.46 12.87,22.35 13.10,20.17 13.32,18.45 13.55,16.76 13.78,15.27 14.01,13.66 14.23,12.14 14.46,10.52 14.69,8.54 14.92,6.64 15.14,4.86 15.37,4.05 15.60,5.05 15.83,6.64 16.05,7.90 16.28,8.16 16.51,9.79 16.74,12.53 16.96,14.59 17.19,15.95 17.42,17.32 17.64,17.76 17.87,16.90 18.10,15.40 18.33,13.30 18.55,12.39 18.78,13.30 19.01,14.61 19.24,14.33 19.46,13.92 19.69,13.06 19.92,12.16 20.15,12.09 20.37,12.43 20.60,12.50 20.83,11.84 21.06,11.86 21.28,12.60 21.51,14.03 21.74,17.05 21.97,19.87 22.19,20.28 22.42,19.67 22.65,19.68 22.88,17.53 23.10,16.73 23.33,17.07 23.56,18.06 23.79,18.29 24.01,17.40 24.24,17.43 24.47,18.41 24.69,19.67 24.92,18.58 25.15,17.09 25.38,16.66 25.60,17.62 25.83,19.28 26.06,22.04 26.29,23.69 26.51,22.80 26.74,22.21 26.97,22.21 27.20,22.08 27.42,20.71 27.65,20.40 27.88,20.71 28.11,21.34 28.33,21.22 28.56,21.83 28.79,22.46 29.02,22.85 29.24,22.28 29.47,20.52 29.70,19.76 29.93,20.10 30.15,20.90 30.38,19.99 30.61,18.17 30.83,16.04 31.06,15.61 31.29,16.13 31.52,16.69 31.74,17.28 31.97,18.19 32.20,19.67 32.43,20.73 32.65,21.29 32.88,22.69 33.11,24.04 33.34,25.19 33.56,24.34 33.79,23.01 34.02,21.83 34.25,21.77 34.47,22.24 34.70,23.18 34.93,24.14 35.16,23.82 35.38,22.94 35.61,22.04 35.84,21.48 36.07,21.19 36.29,21.20 36.52,20.98 36.75,20.82 36.98,21.29 37.20,22.50 37.43,24.52 37.66,26.41 37.88,28.19 38.11,29.94 38.34,32.17 38.57,34.51 38.79,35.82 39.02,36.71 39.25,36.44 39.48,36.58 39.70,34.73 39.93,33.16 40.16,33.10 40.39,33.78 40.61,35.25 40.84,36.52 41.07,36.42 41.30,35.99 41.52,36.43 41.75,38.13 41.98,37.77 42.21,37.40 42.43,38.81 42.66,39.79 42.89,40.01 43.12,40.13 43.34,40.66 43.57,41.68 43.80,41.70 44.02,40.97 44.25,39.89 44.48,39.04 44.71,38.45 44.93,38.31 45.16,37.77 45.39,38.06 45.62,38.63 45.84,39.90 46.07,41.27 46.30,43.16 46.53,44.90 46.75,46.63 46.98,47.79 47.21,49.02 47.44,50.94 47.66,51.80 47.89,51.31 48.12,50.29 48.35,49.54 48.57,49.19 48.80,49.44 49.03,50.94 49.26,52.90 49.48,54.20 49.71,54.68 49.94,54.45 50.17,52.64 50.39,50.26 50.62,48.56 50.85,48.77 51.07,48.35 51.30,47.29 51.53,46.08 51.76,45.46 51.98,45.22 52.21,44.68 52.44,44.58 52.67,45.97 52.89,47.12 53.12,48.00 53.35,47.63 53.58,46.65 53.80,45.86 54.03,46.18 54.26,46.00 54.49,46.81 54.71,48.37 54.94,46.98 55.17,45.60 55.40,45.37 55.62,45.97 55.85,46.40 56.08,47.26 56.31,48.80 56.53,48.11 56.76,47.87 56.99,48.66 57.21,49.71 57.44,50.59 57.67,51.81 57.90,51.42 58.12,49.79 58.35,50.03 58.58,50.67 58.81,51.55 59.03,49.80 59.26,49.45 59.49,48.48 59.72,47.46 59.94,48.76 60.17,49.59 60.40,48.06 60.63,46.18 60.85,45.07 61.08,45.39 61.31,45.31 61.54,45.84 61.76,46.81 61.99,46.84 62.22,46.82 62.45,52.69 62.67,52.26 62.90,51.69 63.13,50.84 63.36,50.22 63.58,49.57 63.81,50.27 64.04,50.19 64.26,47.58 64.49,45.87 64.72,43.15 64.95,40.40 65.17,37.83 65.40,35.13 65.63,32.91 65.86,30.89 66.08,29.42 66.31,29.05 66.54,30.57 66.77,33.81 66.99,35.16 67.22,37.44 67.45,38.49 67.68,39.21 67.90,39.32 68.13,38.93 68.36,38.26 68.59,37.37 68.81,36.74 69.04,35.90 69.27,34.96 69.50,33.08 69.72,31.79 69.95,30.82 70.18,29.86 70.40,28.61 70.63,28.31 70.86,26.37 71.09,24.61 71.31,22.38 71.54,20.07 71.77,18.22 72.00,16.66 72.22,15.31 72.45,13.83 72.68,12.17 72.91,10.69 73.13,8.50 73.36,6.57 73.59,4.85 73.82,4.05 74.04,5.00 74.27,6.75 74.50,7.82 74.73,7.88 74.95,9.56 75.18,12.34 75.41,14.48 75.64,15.91 75.86,17.06 76.09,17.69 76.32,16.85 76.55,15.30 76.77,13.36 77.00,12.23 77.23,13.30 77.45,14.61 77.68,14.43 77.91,13.94 78.14,13.15 78.36,12.23 78.59,12.03 78.82,12.46 79.05,12.48 79.27,11.84 79.50,11.97 79.73,12.49 79.96,14.14 80.18,17.09 80.41,19.92 80.64,20.15 80.87,19.67 81.09,19.81 81.32,17.48 81.55,16.70 81.78,17.24 82.00,18.08 82.23,18.51 82.46,17.43 82.69,17.52 82.91,18.40 83.14,19.75 83.37,18.44 83.60,17.20 83.82,16.66 84.05,17.59 84.28,19.55 84.50,22.15 84.73,23.85 84.96,22.79 85.19,22.35 85.41,22.16 85.64,21.85 85.87,20.81 86.10,20.45 86.32,20.78 86.55,21.38 86.78,21.39 87.01,21.83 87.23,22.52 87.46,22.88 87.69,22.40 87.92,20.63 88.14,19.76 88.37,20.18 88.60,20.80 88.83,20.04 89.05,18.01 89.28,15.98 89.51,15.60 89.74,16.11 89.96,16.79 90.19,17.27 90.42,18.19 90.64,19.60 90.87,20.56 91.10,21.38 91.33,22.65 91.55,24.14 91.78,25.11 92.01,24.45 92.24,23.02 92.46,21.63 92.69,21.71 92.92,22.31 93.15,23.27 93.37,24.15 93.60,23.92 93.83,23.01 94.06,22.02 94.28,21.44 94.51,21.28 94.74,21.22 94.97,20.99 95.19,20.80 95.42,21.22 95.65,22.53 95.88,24.44 96.10,26.31 96.33,28.26 96.56,29.87 96.79,32.16 97.01,34.54 97.24,35.78 97.47,36.71 97.69,36.49 97.92,36.51 98.15,34.86 98.38,33.30 98.60,33.09 98.83,33.79 99.06,35.36 99.29,36.62 99.51,36.31 99.74,36.01 99.97,36.36 100.20,38.08 100.42,37.84 100.65,37.38 100.88,38.66 101.11,39.75 101.33,39.99 101.56,40.24 101.79,40.71 102.02,41.72 102.24,41.69 102.47,40.84 102.70,39.86 102.93,38.89 103.15,38.46 103.38,38.38 103.61,37.94 103.83,38.01 104.06,38.63 104.29,39.90 104.52,41.38 104.74,43.05 104.97,44.95 105.20,46.57 105.43,47.84 105.65,48.87 105.88,50.95 106.11,51.87 106.34,51.43 106.56,50.31 106.79,49.38 107.02,49.12 107.25,49.47 107.47,51.00 107.70,52.82 107.93,54.10 108.16,54.74 108.38,54.66 108.61,52.67 108.84,50.09 109.07,48.47 109.29,48.78 109.52,48.32 109.75,47.25 109.98,46.01 110.20,45.43 110.43,45.40 110.66,44.65 110.88,44.62 111.11,45.99 111.34,47.18 111.57,48.11 111.79,47.69 112.02,46.74 112.25,45.79 112.48,45.99 112.70,45.99 112.93,46.96 113.16,48.39 113.39,47.01 113.61,45.73 113.84,45.37 114.07,45.86 114.30,46.39 114.52,47.35 114.75,48.97 114.98,48.06 115.21,47.81 115.43,48.71 115.66,49.55 115.89,50.56 116.12,51.83 116.34,51.31 116.57,49.78 116.80,49.97 117.02,50.82 117.25,51.51 117.48,49.81 117.71,49.38 117.93,48.47 118.16,47.31 118.39,48.80 118.62,49.43 118.84,48.08 119.07,46.23 119.30,45.10 119.53,45.42 119.75,45.39 119.98,45.85 120.21,46.67 120.44,46.76 120.66,46.87 120.89,52.75 121.12,52.35 121.35,51.70 121.57,50.93 121.80,50.25 122.03,49.54 122.26,50.01 122.48,49.97 122.71,46.45 122.94,45.82 123.17,42.69 123.39,40.58 123.62,37.84 123.85,35.08 124.07,32.62 124.30,31.23 124.53,29.53 124.76,29.04 124.98,30.65 125.21,33.71 125.44,35.67 125.67,37.56 125.89,38.15 126.12,39.51 126.35,39.43 126.58,38.96 126.80,38.38 127.03,37.40 127.26,36.83 127.49,35.86 127.71,34.56 127.94,32.68 128.17,31.90 128.40,30.82 128.62,29.57 128.85,28.70 129.08,28.44 129.31,25.87 129.53,24.23 129.76,22.02 129.99,19.79 130.21,17.79 130.44,16.80 130.67,14.79 130.90,13.37 131.12,11.81 131.35,10.94 131.58,7.94 131.81,6.57 132.03,4.94 132.26,4.12 132.49,5.18 132.72,6.86 132.94,7.77 133.17,8.09 133.40,9.31 133.63,12.14 133.85,15.00 134.08,16.50 134.31,17.12 134.54,17.89 134.76,16.52 134.99,15.32 135.22,13.38 135.45,12.08 135.67,13.13 135.90,14.53 136.13,14.54 136.36,13.25 136.58,13.33 136.81,12.17 137.04,11.85 137.26,12.17 137.49,12.50 137.72,11.94 137.95,11.73 138.17,12.37 138.40,14.14 138.63,17.07 138.86,20.28 139.08,19.80 139.31,20.07 139.54,19.72 139.77,16.96 139.99,16.77 140.22,17.02 140.45,18.52 140.68,18.31 140.90,17.46 141.13,17.35 141.36,18.18 141.59,19.85 141.81,18.68 142.04,17.20 142.27,17.00 142.50,18.12 142.72,19.43 142.95,22.05 143.18,24.03 143.40,22.82 143.63,22.10 143.86,22.56 144.09,22.26 144.31,20.84 144.54,20.22 144.77,20.68 145.00,20.92 145.22,21.19 145.45,21.96 145.68,22.02 145.91,22.49 146.13,22.20 146.36,20.53 146.59,19.43 146.82,20.28 147.04,20.69 147.27,19.78 147.50,17.95 147.73,15.89 147.95,15.92 148.18,16.45 148.41,16.73 148.64,17.25 148.86,18.34 149.09,19.80 149.32,20.65 149.55,21.44 149.77,22.45 150.00,24.33 150.23,25.26 150.45,24.73 150.68,22.78 150.91,22.35 151.14,22.34 151.36,22.52 151.59,23.12 151.82,24.09 152.05,24.25 152.27,22.97 152.50,22.00 152.73,21.54 152.96,21.12 153.18,21.30 153.41,21.00 153.64,20.77 153.87,21.13 154.09,22.26 154.32,24.31 154.55,26.51 154.78,28.07 155.00,29.52 155.23,31.97 155.46,34.93 155.69,35.86 155.91,36.56 156.14,36.39 156.37,36.64 156.60,34.64 156.82,33.55 157.05,33.00 157.28,33.86 157.50,35.50 157.73,36.72 157.96,36.52 158.19,36.28 158.41,36.75 158.64,37.86 158.87,37.82 159.10,37.75 159.32,38.62 159.55,40.09 159.78,40.07 160.01,40.23 160.23,40.92 160.46,41.76 160.69,41.62 160.92,40.68 161.14,39.90 161.37,38.86 161.60,38.61 161.83,38.64 162.05,37.93 162.28,38.10 162.51,39.09 162.74,39.96 162.96,41.57 163.19,43.43 163.42,44.97 163.64,46.43 163.87,47.75 164.10,48.98 164.33,50.70 164.55,51.90 164.78,51.24 165.01,50.06 165.24,49.59 165.46,49.00 165.69,49.46 165.92,50.68 166.15,53.12 166.37,54.15 166.60,54.82 166.83,54.78 167.06,52.84 167.28,50.04 167.51,48.92 167.74,48.94 167.97,48.41 168.19,47.43 168.42,45.98 168.65,45.80 168.88,45.56 169.10,45.31 169.33,44.67 169.56,45.78 169.79,47.58 170.01,48.16 170.24,47.78 170.47,46.43 170.69,46.17 170.92,46.40 171.15,46.04 171.38,47.01 171.60,48.47 171.83,46.85 172.06,45.28 172.29,45.68 172.51,45.58 172.74,46.47 172.97,46.96 173.20,49.08 173.42,48.31 173.65,47.90 173.88,48.66 174.11,49.45 174.33,50.25 174.56,51.94 174.79,51.36 175.02,50.00 175.24,49.90 175.47,50.77 175.70,51.26 175.93,49.87 176.15,49.37 176.38,48.30 176.61,47.31 176.83,48.77 177.06,49.12 177.29,48.21 177.52,46.11 177.74,44.85 177.97,45.24 178.20,45.54 178.43,45.90 178.65,46.53 178.88,46.94 179.11,46.49 179.34,53.08 179.56,52.33 179.79,50.67 180.02,50.31 180.25,50.12 180.47,50.12 180.70,50.38 180.93,49.11 181.16,46.49 181.38,44.54 181.61,41.69 181.84,39.27 182.07,36.89 182.29,33.80 182.52,31.72 182.75,31.72 182.98,29.88 183.20,29.13 183.43,30.39 183.66,32.84 183.88,35.26 184.11,37.65 184.34,38.81 184.57,39.96 184.79,39.21 185.02,38.71 185.25,38.27 185.48,37.58 185.70,36.82 185.93,35.62 186.16,34.31 186.39,32.43 186.61,30.80 186.84,30.28 187.07,28.46 187.30,29.41 187.52,27.94 187.75,25.35 187.98,23.02 188.21,22.92 188.43,19.70 188.66,16.61 188.89,16.64 189.12,13.55 189.34,13.22 189.57,12.66 189.80,11.87 190.02,8.27 190.25,7.47 190.48,4.87 190.71,4.09 190.93,5.78 191.16,5.78 191.39,8.21 191.62,8.44 191.84,9.85 192.07,12.49 192.30,15.26 192.53,15.13 192.75,16.53 192.98,16.51 193.21,16.50 193.44,14.03 193.66,12.86 193.89,11.31 194.12,13.44 194.35,13.22 194.57,14.26 194.80,12.36 195.03,13.12 195.26,11.48 195.48,12.18 195.71,11.60 195.94,11.04 196.17,10.67 196.39,10.43 196.62,12.85 196.85,12.85 197.07,15.42 197.30,19.19 197.53,19.50 197.76,19.88 197.98,20.45 198.21,17.03 198.44,17.25 198.67,17.32 198.89,18.66 199.12,17.24 199.35,17.60 199.58,17.60 199.80,18.10 200.03,18.52 200.26,18.20 200.49,16.56 200.71,17.65 200.94,16.89 201.17,19.79 201.40,21.38 201.62,22.65 201.85,22.21 202.08,21.61 202.31,21.32 202.53,20.89 202.76,19.83 202.99,18.97 203.21,20.62 203.44,19.18 203.67,20.52 203.90,22.02 204.12,22.96 204.35,21.21 204.58,22.17 204.81,20.27 205.03,19.18 205.26,18.80 205.49,20.45 205.72,18.50 205.94,16.49 206.17,15.45 206.40,16.25 206.63,16.25 206.85,17.60 207.08,17.64 207.31,18.51 207.54,20.99 207.76,21.10 207.99,22.73 208.22,22.17 208.45,23.95 208.67,24.87 208.90,26.20 209.13,23.69 209.36,21.36 209.58,21.68 209.81,23.07 210.04,24.17 210.26,24.27 210.49,25.18 210.72,23.48 210.95,22.26 211.17,21.66 211.40,20.67 211.63,21.80 211.86,22.02 212.08,21.08 212.31,22.11 212.54,21.96 212.77,23.94 212.99,26.13 213.22,28.35 213.45,30.76 213.68,33.06 213.90,34.56 214.13,36.27 214.36,36.30 214.59,35.90 214.81,36.69 215.04,35.09 215.27,33.55 215.50,32.97 215.72,34.86 215.95,36.01 216.18,37.08 216.40,37.23 216.63,36.59 216.86,36.53 217.09,38.34 217.31,37.94 217.54,36.80 217.77,38.93 218.00,39.94 218.22,39.53 218.45,40.17 218.68,41.01 218.91,41.01 219.13,41.24 219.36,41.24 219.59,38.93 219.82,39.14 220.04,38.04 220.27,38.06 220.50,37.75 220.73,38.40 220.95,39.73 221.18,39.35 221.41,41.09 221.64,42.83 221.86,45.00 222.09,47.46 222.32,47.86 222.55,48.34 222.77,51.47 223.00,52.25 223.23,50.74 223.45,50.46 223.68,50.09 223.91,47.70 224.14,48.68 224.36,50.76 224.59,53.28 224.82,54.78 225.05,54.13 225.27,54.38 225.50,52.48 225.73,50.42 225.96,48.86 226.18,48.12 226.41,47.55 226.64,46.24 226.87,46.45 227.09,45.18 227.32,46.41 227.55,44.55 227.78,45.63 228.00,44.83 228.23,47.12 228.46,46.95 228.69,46.83 228.91,46.06 229.14,45.41 229.37,47.02 229.60,46.47 229.82,47.11 230.05,48.10 230.28,47.38 230.50,45.18 230.73,46.43 230.96,46.26 231.19,46.40 231.41,47.07 231.64,48.03 231.87,47.82 232.10,47.26 232.32,47.57 232.55,49.64 232.78,51.11 233.01,51.10 233.23,51.20 233.46,50.75 233.69,49.62 233.92,50.91 234.14,50.52 234.37,50.10 234.60,49.68 234.83,48.24 235.05,46.29 235.28,49.12 235.51,49.44 235.74,48.84 235.96,45.40 236.19,44.15 236.42,45.79 236.64,45.56 236.87,45.61 237.10,46.06 237.33,46.86 237.55,47.24 237.78,53.05 238.01,53.05 238.24,48.45 238.46,48.45 238.69,52.43 238.92,52.43 239.15,46.51 239.37,46.51 239.60,46.51 239.83,39.16 240.06,39.16 240.28,39.16 240.51,32.27 240.74,32.51 240.97,32.51 241.19,32.51 241.42,31.69 241.65,31.69 241.88,31.69 242.10,38.53 242.33,38.53 242.56,37.18 242.79,39.91 243.01,39.91 243.24,39.91 243.47,38.04 243.69,36.36 243.92,36.36 244.15,36.36 244.38,32.49 244.60,32.49 244.83,32.49 245.06,28.91 245.29,28.91 245.51,28.91 245.74,28.92 245.97,22.93 246.20,22.93 246.42,22.93 246.65,22.74 246.88,15.08 247.11,15.08 247.33,13.70 247.56,13.70 247.79,13.70 248.02,12.41 248.24,12.41 248.47,4.72 248.70,4.00 248.93,4.00 249.15,4.00 249.38,7.28 249.61,7.28 249.83,7.28 250.06,7.28 250.29,12.65 250.52,12.65 250.74,12.65 250.97,15.26 251.20,15.26 251.43,15.26 251.65,10.07 251.88,10.07 252.11,10.07 252.34,4.63 252.56,9.25 252.79,9.25 253.02,9.25 253.25,12.64 253.47,12.64 253.70,8.09 253.93,8.09 254.16,8.09 254.38,6.11 254.61,6.11 254.84,6.11 255.07,11.22 255.29,11.22 255.52,11.22 255.75,15.63 255.98,15.63 256.20,15.63 256.43,17.19 256.66,17.19 256.88,17.19 257.11,15.88 257.34,15.88 257.57,15.88 257.79,17.00 258.02,17.00 258.25,17.00 258.48,17.00 258.70,22.62 258.93,19.57 259.16,19.57 259.39,19.57 259.61,19.57 259.84,16.92 260.07,16.92 260.30,16.92 260.52,16.28 260.75,16.28 260.98,16.28 261.21,15.81 261.43,15.81 261.66,20.16 261.89,16.70 262.12,16.70 262.34,17.87 262.57,17.87 262.80,17.87 263.02,21.06 263.25,21.06 263.48,18.20 263.71,18.20 263.93,18.20 264.16,16.22 264.39,16.22 264.62,16.22 264.84,20.39 265.07,20.39 265.30,20.39 265.53,20.55 265.75,20.55 265.98,24.23 266.21,24.23 266.44,24.23 266.66,24.23 266.89,27.22 267.12,27.22 267.35,27.22 267.57,27.22 267.80,22.83 268.03,22.83 268.26,25.47 268.48,25.47 268.71,25.47 268.94,28.69 269.17,28.69 269.39,23.41 269.62,23.41 269.85,23.41 270.07,26.67 270.30,23.59 270.53,23.59 270.76,23.59 270.98,22.36 271.21,28.16 271.44,28.16 271.67,28.93 271.89,34.67 272.12,34.67 272.35,34.67 272.58,35.58 272.80,35.58 273.03,35.58 273.26,36.99 273.49,36.99 273.71,36.99 273.94,36.59 274.17,36.59 274.40,38.33 274.62,38.33 274.85,38.33 275.08,37.75 275.31,37.75 275.53,37.75 275.76,34.53 275.99,36.40 276.21,36.40 276.44,36.40 276.67,39.12 276.90,39.12 277.12,39.12 277.35,39.12 277.58,37.97 277.81,37.62 278.03,37.62 278.26,37.62 278.49,38.66 278.72,38.34 278.94,38.34 279.17,38.34 279.40,43.17 279.63,43.17 279.85,43.17 280.08,43.30 280.31,50.29 280.54,50.29 280.76,50.29 280.99,50.37 281.22,50.37 281.45,52.42 281.67,45.99 281.90,45.99 282.13,45.99 282.36,50.12 282.58,50.12 282.81,50.12 283.04,56.00 283.26,56.00 283.49,52.30 283.72,52.30 283.95,52.30 284.17,48.43 284.40,48.43 284.63,45.45 284.86,45.45 285.08,47.54 285.31,47.54 285.54,41.95 285.77,47.51 285.99,47.51 286.22,47.51 286.45,43.39 286.68,43.39 286.90,43.82 287.13,43.82 287.36,43.82 287.59,45.76 287.81,45.76 288.04,45.76 288.27,45.76 288.50,46.06 288.72,46.06 288.95,46.06 289.18,45.18 289.40,45.18 289.63,45.04 289.86,45.04 290.09,45.04 290.31,46.00 290.54,46.00 290.77,46.00 291.00,47.09 291.22,47.09 291.45,50.37 291.68,50.37 291.91,50.37 292.13,46.58 292.36,46.58 292.59,46.58 292.82,48.56 293.04,48.56 293.27,48.56 293.50,42.80 293.73,48.51 293.95,48.51 294.18,48.25 294.41,48.25 294.64,44.88 294.86,44.88 295.09,44.88 295.32,43.69 295.55,43.69 295.77,44.79 296.00,44.79" />
</svg>