<svg width="300" height="60" xmlns="http://www.w3.org/2000/svg">
  <polyline fill="rgba(255,200,0,0.3)" stroke="#ffbb00" stroke-width="2" points="4.00,4.00 10.21,7.88 16.43,11.59 22.64,15.13 28.85,18.84 35.06,22.42 41.28,25.83 47.49,29.64 53.70,33.86 59.91,37.29 66.13,41.92 72.34,45.92 78.55,49.26 84.77,50.38 90.98,51.17 97.19,50.67 103.40,4.60 109.62,9.22 115.83,13.83 122.04,13.83 128.26,18.52 134.47,23.25 140.68,26.63 146.89,31.47 153.11,33.33 159.32,36.62 165.53,42.19 171.74,47.37 177.96,51.03 184.17,50.08 190.38,50.36 196.60,49.51 202.81,7.68 209.02,9.62 215.23,21.75 221.45,21.75 227.66,21.75 233.87,23.64 240.09,34.43 246.30,34.43 252.51,34.43 258.72,34.43 264.94,49.47 271.15,49.47 277.36,49.47 283.57,49.47 289.79,56.00 296.00,56.00" />
</svg>