<svg width="300" height="60" xmlns="http://www.w3.org/2000/svg">
  <polyline fill="rgba(255,200,0,0.3)" stroke="#ffbb00" stroke-width="2" points="4.00,50.04 4.34,49.40 4.68,48.42 5.02,46.84 5.36,45.00 5.70,43.55 6.03,42.55 6.37,41.91 6.71,42.50 7.05,43.43 7.39,45.34 7.73,45.95 8.07,47.04 8.41,46.53 8.75,46.36 9.09,46.18 9.43,46.19 9.77,46.79 10.10,46.05 10.44,45.41 10.78,44.32 11.12,43.25 11.46,43.07 11.80,42.44 12.14,40.84 12.48,40.01 12.82,39.09 13.16,38.63 13.50,38.41 13.84,38.54 14.17,38.62 14.51,39.29 14.85,39.75 15.19,40.49 15.53,41.20 15.87,42.01 16.21,42.55 16.55,41.96 16.89,42.11 17.23,42.82 17.57,43.31 17.90,43.14 18.24,42.99 18.58,42.06 18.92,41.34 19.26,41.17 19.60,40.77 19.94,40.02 20.28,40.03 20.62,40.90 20.96,41.14 21.30,40.96 21.64,40.57 21.97,40.61 22.31,41.01 22.65,40.92 22.99,40.85 23.33,40.83 23.67,40.93 24.01,40.39 24.35,39.42 24.69,39.00 25.03,38.05 25.37,37.91 25.70,38.22 26.04,38.72 26.38,38.16 26.72,37.30 27.06,37.04 27.40,37.42 27.74,39.17 28.08,39.46 28.42,39.22 28.76,39.93 29.10,39.09 29.44,38.64 29.77,37.68 30.11,34.83 30.45,32.25 30.79,30.60 31.13,30.21 31.47,30.13 31.81,30.16 32.15,30.24 32.49,30.91 32.83,31.63 33.17,31.68 33.51,32.59 33.84,32.84 34.18,33.29 34.52,33.71 34.86,33.26 35.20,32.93 35.54,32.92 35.88,32.66 36.22,30.14 36.56,28.06 36.90,27.40 37.24,28.03 37.57,28.28 37.91,28.73 38.25,29.98 38.59,30.20 38.93,28.98 39.27,26.38 39.61,25.51 39.95,24.70 40.29,24.11 40.63,24.23 40.97,25.68 41.31,26.01 41.64,26.46 41.98,25.94 42.32,24.71 42.66,22.60 43.00,22.34 43.34,21.40 43.68,21.45 44.02,21.18 44.36,20.54 44.70,20.72 45.04,20.02 45.38,19.45 45.71,17.92 46.05,18.02 46.39,18.10 46.73,17.72 47.07,18.98 47.41,19.30 47.75,20.05 48.09,19.62 48.43,18.10 48.77,16.90 49.11,15.08 49.44,13.83 49.78,12.69 50.12,11.45 50.46,10.83 50.80,11.07 51.14,12.53 51.48,13.69 51.82,13.04 52.16,12.57 52.50,11.00 52.84,10.13 53.18,9.36 53.51,8.57 53.85,8.07 54.19,7.35 54.53,6.76 54.87,6.46 55.21,5.51 55.55,4.73 55.89,4.25 56.23,5.21 56.57,6.22 56.91,7.00 57.25,7.28 57.58,7.81 57.92,8.12 58.26,8.33 58.60,8.09 58.94,7.12 59.28,6.05 59.62,6.45 59.96,7.62 60.30,8.07 60.64,8.75 60.98,8.98 61.31,9.98 61.65,9.08 61.99,10.18 62.33,9.89 62.67,50.15 63.01,49.44 63.35,48.49 63.69,46.61 64.03,44.98 64.37,43.28 64.71,42.46 65.05,41.99 65.38,42.86 65.72,43.43 66.06,44.84 66.40,45.98 66.74,47.09 67.08,46.64 67.42,46.16 67.76,46.24 68.10,46.46 68.44,46.76 68.78,46.16 69.11,45.34 69.45,44.01 69.79,43.37 70.13,43.08 70.47,42.49 70.81,41.01 71.15,40.14 71.49,39.01 71.83,38.70 72.17,38.42 72.51,38.66 72.85,38.61 73.18,39.31 73.52,39.72 73.86,40.33 74.20,41.21 74.54,41.89 74.88,42.54 75.22,41.88 75.56,42.33 75.90,42.87 76.24,43.30 76.58,43.15 76.92,42.96 77.25,41.89 77.59,41.31 77.93,41.23 78.27,40.35 78.61,40.02 78.95,40.34 79.29,40.87 79.63,41.20 79.97,40.78 80.31,40.63 80.65,40.72 80.98,40.90 81.32,40.96 81.66,40.85 82.00,40.84 82.34,40.86 82.68,40.17 83.02,39.53 83.36,38.99 83.70,38.07 84.04,38.08 84.38,38.29 84.72,38.58 85.05,38.24 85.39,37.24 85.73,36.81 86.07,37.31 86.41,39.19 86.75,39.47 87.09,39.24 87.43,39.98 87.77,39.07 88.11,38.61 88.45,37.64 88.79,34.61 89.12,32.30 89.46,30.91 89.80,30.37 90.14,30.42 90.48,30.32 90.82,30.22 91.16,30.76 91.50,31.73 91.84,31.98 92.18,32.73 92.52,32.84 92.85,33.61 93.19,33.70 93.53,33.29 93.87,32.94 94.21,32.94 94.55,32.70 94.89,30.13 95.23,27.85 95.57,27.35 95.91,27.83 96.25,28.36 96.59,28.38 96.92,29.94 97.26,30.16 97.60,29.02 97.94,26.28 98.28,25.16 98.62,24.95 98.96,24.21 99.30,24.24 99.64,25.80 99.98,25.98 100.32,26.61 100.66,25.91 100.99,24.70 101.33,22.71 101.67,22.35 102.01,21.43 102.35,21.39 102.69,20.96 103.03,20.35 103.37,20.93 103.71,20.03 104.05,19.36 104.39,18.04 104.72,18.24 105.06,18.11 105.40,18.08 105.74,18.98 106.08,19.30 106.42,20.22 106.76,19.78 107.10,18.10 107.44,16.91 107.78,14.74 108.12,13.76 108.46,12.56 108.79,11.52 109.13,11.03 109.47,11.07 109.81,12.38 110.15,13.63 110.49,13.26 110.83,12.72 111.17,11.00 111.51,9.99 111.85,9.39 112.19,8.64 112.52,8.05 112.86,7.30 113.20,6.65 113.54,6.13 113.88,5.54 114.22,4.78 114.56,4.33 114.90,5.24 115.24,6.13 115.58,7.06 115.92,7.23 116.26,7.54 116.59,8.13 116.93,8.41 117.27,8.14 117.61,7.08 117.95,6.21 118.29,6.41 118.63,7.51 118.97,8.08 119.31,8.62 119.65,8.96 119.99,9.82 120.33,9.06 120.66,10.29 121.00,9.89 121.34,46.75 121.68,45.27 122.02,44.13 122.36,42.28 122.70,41.54 123.04,43.14 123.38,43.60 123.72,45.40 124.06,46.10 124.39,47.31 124.73,46.27 125.07,46.24 125.41,46.00 125.75,46.24 126.09,46.08 126.43,46.42 126.77,45.71 127.11,44.10 127.45,43.45 127.79,43.12 128.13,42.98 128.46,41.26 128.80,40.18 129.14,38.76 129.48,38.52 129.82,38.54 130.16,38.80 130.50,38.84 130.84,39.02 131.18,39.82 131.52,40.65 131.86,41.30 132.20,41.83 132.53,42.54 132.87,42.12 133.21,42.41 133.55,42.55 133.89,43.31 134.23,43.15 134.57,43.26 134.91,41.62 135.25,41.39 135.59,41.46 135.93,40.95 136.26,40.51 136.60,39.63 136.94,40.97 137.28,41.25 137.62,41.36 137.96,40.82 138.30,41.35 138.64,41.11 138.98,41.08 139.32,41.02 139.66,40.98 140.00,40.85 140.33,40.56 140.67,39.50 141.01,39.07 141.35,38.76 141.69,37.86 142.03,38.66 142.37,39.16 142.71,38.21 143.05,37.89 143.39,37.63 143.73,37.36 144.07,39.27 144.40,39.73 144.74,39.44 145.08,40.24 145.42,39.52 145.76,38.81 146.10,37.97 146.44,35.16 146.78,33.11 147.12,30.95 147.46,30.58 147.80,30.55 148.13,30.57 148.47,30.61 148.81,30.98 149.15,31.98 149.49,32.15 149.83,32.02 150.17,32.54 150.51,32.92 150.85,33.73 151.19,33.41 151.53,33.16 151.87,33.02 152.20,32.78 152.54,30.53 152.88,28.08 153.22,27.49 153.56,27.21 153.90,28.13 154.24,28.77 154.58,30.36 154.92,30.52 155.26,28.43 155.60,26.90 155.93,25.19 156.27,24.47 156.61,24.24 156.95,24.64 157.29,25.57 157.63,26.09 157.97,26.89 158.31,25.88 158.65,24.94 158.99,22.37 159.33,21.46 159.67,21.13 160.00,21.37 160.34,21.18 160.68,20.42 161.02,20.81 161.36,20.47 161.70,19.69 162.04,17.71 162.38,18.27 162.72,17.53 163.06,17.87 163.40,19.23 163.74,19.59 164.07,20.85 164.41,19.63 164.75,18.21 165.09,16.70 165.43,15.09 165.77,13.93 166.11,12.57 166.45,12.48 166.79,10.85 167.13,10.74 167.47,13.26 167.80,13.78 168.14,13.12 168.48,12.49 168.82,11.23 169.16,9.80 169.50,9.01 169.84,8.69 170.18,7.83 170.52,7.59 170.86,6.43 171.20,6.10 171.54,5.76 171.87,4.53 172.21,4.00 172.55,5.22 172.89,6.12 173.23,7.52 173.57,7.63 173.91,7.83 174.25,8.72 174.59,8.48 174.93,8.05 175.27,7.10 175.61,6.17 175.94,5.64 176.28,7.76 176.62,8.05 176.96,8.50 177.30,8.95 177.64,9.81 177.98,9.47 178.32,10.37 178.66,9.96 179.00,50.70 179.34,50.17 179.67,48.04 180.01,46.34 180.35,46.71 180.69,44.91 181.03,42.19 181.37,41.29 181.71,43.75 182.05,44.65 182.39,46.13 182.73,46.13 183.07,47.39 183.41,47.52 183.74,45.88 184.08,46.27 184.42,49.32 184.76,46.75 185.10,46.54 185.44,45.22 185.78,44.11 186.12,44.11 186.46,43.80 186.80,43.52 187.14,41.38 187.48,40.59 187.81,38.56 188.15,38.84 188.49,39.30 188.83,38.11 189.17,39.55 189.51,39.89 189.85,40.50 190.19,39.96 190.53,41.50 190.87,42.52 191.21,42.98 191.54,41.63 191.88,43.03 192.22,43.82 192.56,42.84 192.90,43.68 193.24,44.55 193.58,42.38 193.92,42.59 194.26,39.82 194.60,40.24 194.94,41.31 195.28,39.77 195.61,41.50 195.95,40.52 196.29,41.73 196.63,41.62 196.97,40.72 197.31,40.96 197.65,41.34 197.99,41.34 198.33,41.47 198.67,41.71 199.01,40.25 199.34,39.72 199.68,39.12 200.02,40.30 200.36,38.53 200.70,38.30 201.04,39.93 201.38,38.65 201.72,39.22 202.06,37.11 202.40,38.30 202.74,39.20 203.08,39.46 203.41,39.46 203.75,39.61 204.09,39.27 204.43,38.83 204.77,38.43 205.11,35.13 205.45,34.24 205.79,31.28 206.13,32.10 206.47,30.16 206.81,31.09 207.15,32.27 207.48,30.64 207.82,31.49 208.16,31.49 208.50,32.28 208.84,32.96 209.18,33.16 209.52,33.42 209.86,33.49 210.20,33.39 210.54,33.66 210.88,31.94 211.21,32.09 211.55,29.45 211.89,28.13 212.23,28.13 212.57,28.01 212.91,30.39 213.25,30.34 213.59,29.91 213.93,29.84 214.27,26.58 214.61,26.91 214.95,24.76 215.28,26.03 215.62,25.58 215.96,24.60 216.30,26.70 216.64,26.46 216.98,27.78 217.32,25.42 217.66,24.16 218.00,21.72 218.34,20.38 218.68,21.92 219.02,20.39 219.35,22.14 219.69,20.68 220.03,22.43 220.37,19.66 220.71,19.58 221.05,17.98 221.39,17.08 221.73,16.82 222.07,17.85 222.41,20.81 222.75,20.71 223.08,19.75 223.42,20.09 223.76,17.61 224.10,15.42 224.44,15.82 224.78,14.01 225.12,14.42 225.46,11.12 225.80,10.13 226.14,12.93 226.48,14.62 226.82,13.41 227.15,11.92 227.49,10.87 227.83,10.49 228.17,8.94 228.51,10.80 228.85,8.45 229.19,8.13 229.53,7.73 229.87,5.34 230.21,7.19 230.55,6.38 230.89,4.39 231.22,5.77 231.56,5.42 231.90,8.94 232.24,9.13 232.58,9.27 232.92,9.30 233.26,9.06 233.60,8.66 233.94,8.27 234.28,7.27 234.62,6.99 234.95,6.77 235.29,8.53 235.63,8.30 235.97,9.29 236.31,9.75 236.65,9.81 236.99,10.36 237.33,10.00 237.67,56.00 238.01,49.90 238.35,49.90 238.69,53.09 239.02,53.09 239.36,45.17 239.70,45.17 240.04,50.92 240.38,50.92 240.72,44.76 241.06,51.97 241.40,51.97 241.74,51.97 242.08,47.88 242.42,47.88 242.75,53.50 243.09,53.50 243.43,48.78 243.77,48.78 244.11,51.75 244.45,45.41 244.79,45.41 245.13,45.41 245.47,48.92 245.81,44.19 246.15,44.19 246.49,44.19 246.82,38.93 247.16,43.10 247.50,43.10 247.84,43.10 248.18,39.94 248.52,44.00 248.86,44.00 249.20,44.00 249.54,42.27 249.88,46.27 250.22,46.27 250.56,46.27 250.89,43.74 251.23,43.74 251.57,47.62 251.91,45.58 252.25,45.58 252.59,45.58 252.93,39.64 253.27,45.35 253.61,45.35 253.95,41.70 254.29,41.70 254.62,41.70 254.96,44.93 255.30,42.84 255.64,42.84 255.98,42.84 256.32,43.60 256.66,43.60 257.00,43.60 257.34,43.60 257.68,40.22 258.02,42.60 258.36,42.60 258.69,42.60 259.03,38.58 259.37,41.38 259.71,41.38 260.05,41.38 260.39,41.68 260.73,37.77 261.07,37.77 261.41,39.23 261.75,39.23 262.09,39.23 262.43,39.23 262.76,38.00 263.10,38.00 263.44,38.00 263.78,36.75 264.12,36.75 264.46,36.75 264.80,37.55 265.14,31.12 265.48,31.12 265.82,33.84 266.16,33.84 266.49,33.84 266.83,33.84 267.17,34.71 267.51,34.71 267.85,34.71 268.19,34.74 268.53,34.74 268.87,34.74 269.21,35.30 269.55,35.30 269.89,35.30 270.23,32.26 270.56,32.26 270.90,32.26 271.24,32.26 271.58,34.12 271.92,31.01 272.26,31.01 272.60,32.09 272.94,32.09 273.28,32.09 273.62,25.23 273.96,29.61 274.30,29.61 274.63,29.61 274.97,27.00 275.31,27.00 275.65,30.90 275.99,28.20 276.33,28.20 276.67,28.20 277.01,20.47 277.35,25.25 277.69,25.25 278.03,25.25 278.36,27.89 278.70,27.89 279.04,22.06 279.38,22.06 279.72,22.06 280.06,17.54 280.40,17.54 280.74,17.58 281.08,24.60 281.42,24.60 281.76,23.20 282.10,23.20 282.43,23.20 282.77,17.84 283.11,17.84 283.45,17.84 283.79,19.26 284.13,19.26 284.47,15.25 284.81,15.25 285.15,15.25 285.49,15.25 285.83,11.24 286.16,11.24 286.50,11.24 286.84,14.72 287.18,14.72 287.52,14.72 287.86,8.10 288.20,13.32 288.54,13.32 288.88,13.32 289.22,6.86 289.56,6.86 289.90,14.20 290.23,12.19 290.57,12.19 290.91,11.69 291.25,11.69 291.59,11.69 291.93,11.02 292.27,11.02 292.61,11.02 292.95,9.70 293.29,9.70 293.63,8.46 293.97,8.46 294.30,8.46 294.64,11.52 294.98,9.73 295.32,9.73 295.66,9.33 296.00,9.33" />
</svg>