<svg width="300" height="60" xmlns="http://www.w3.org/2000/svg">
  <polyline fill="rgba(255,200,0,0.3)" stroke="#ffbb00" stroke-width="2" points="4.00,20.90 5.63,16.84 7.26,17.21 8.89,19.68 10.53,22.41 12.16,28.34 13.79,34.14 15.42,36.19 17.05,37.71 18.68,38.81 20.31,39.34 21.94,40.26 23.58,42.81 25.21,47.17 26.84,48.62 28.47,50.35 30.10,49.83 31.73,51.46 33.36,49.86 34.99,49.11 36.63,48.28 38.26,47.02 39.89,45.78 41.52,44.45 43.15,42.22 44.78,40.14 46.41,37.61 48.04,35.03 49.68,31.82 51.31,27.67 52.94,24.29 54.57,19.82 56.20,17.05 57.83,12.34 59.46,8.09 61.09,4.67 62.73,4.39 64.36,5.19 65.99,9.63 67.62,13.54 69.25,19.22 70.88,23.75 72.51,27.12 74.15,30.19 75.78,33.41 77.41,36.11 79.04,39.34 80.67,42.30 82.30,46.63 83.93,51.27 85.56,53.24 87.20,53.39 88.83,54.26 90.46,55.44 92.09,55.57 93.72,55.24 95.35,55.48 96.98,53.80 98.61,51.70 100.25,45.87 101.88,19.99 103.51,16.23 105.14,19.99 106.77,17.75 108.40,22.52 110.03,24.33 111.66,31.86 113.30,33.82 114.93,38.01 116.56,39.89 118.19,39.89 119.82,40.40 121.45,42.64 123.08,47.36 124.72,48.52 126.35,50.04 127.98,50.76 129.61,51.63 131.24,50.00 132.87,49.71 134.50,48.19 136.13,47.48 137.77,47.12 139.40,44.59 141.03,43.43 142.66,39.09 144.29,38.08 145.92,36.56 147.55,29.30 149.18,26.41 150.82,23.30 152.45,18.46 154.08,16.21 155.71,12.67 157.34,7.39 158.97,5.44 160.60,4.32 162.23,4.51 163.87,8.05 165.50,10.36 167.13,17.67 168.76,20.63 170.39,24.32 172.02,27.86 173.65,30.54 175.28,32.92 176.92,35.44 178.55,37.75 180.18,49.40 181.81,52.22 183.44,52.94 185.07,53.37 186.70,53.66 188.34,55.18 189.97,55.83 191.60,55.49 193.23,56.00 194.86,53.32 196.49,50.79 198.12,45.33 199.75,17.76 201.39,17.76 203.02,17.76 204.65,17.76 206.28,23.03 207.91,23.03 209.54,23.03 211.17,28.53 212.80,28.53 214.44,28.53 216.07,28.53 217.70,40.72 219.33,40.72 220.96,40.72 222.59,42.17 224.22,48.75 225.85,48.75 227.49,51.00 229.12,51.00 230.75,51.00 232.38,52.09 234.01,52.09 235.64,52.09 237.27,44.06 238.91,44.06 240.54,44.06 242.17,39.43 243.80,39.43 245.43,30.83 247.06,30.83 248.69,30.83 250.32,17.02 251.96,17.02 253.59,17.02 255.22,8.34 256.85,8.34 258.48,8.34 260.11,4.00 261.74,8.34 263.37,8.34 265.01,8.34 266.64,15.86 268.27,15.86 269.90,15.86 271.53,25.48 273.16,25.48 274.79,25.48 276.42,31.62 278.06,31.62 279.69,31.62 281.32,42.42 282.95,42.42 284.58,42.42 286.21,54.70 287.84,54.70 289.47,54.70 291.11,54.70 292.74,52.90 294.37,52.90 296.00,52.90" />
</svg>