<svg width="300" height="60" xmlns="http://www.w3.org/2000/svg">
  <polyline fill="rgba(255,200,0,0.3)" stroke="#ffbb00" stroke-width="2" points="4.00,51.13 5.40,47.89 6.79,46.05 8.19,36.45 9.59,27.29 10.99,19.79 12.38,18.32 13.78,19.09 15.18,23.07 16.57,33.62 17.97,37.28 19.37,38.99 20.77,40.13 22.16,34.42 23.56,33.68 24.96,33.35 26.35,37.42 27.75,39.96 29.15,42.96 30.55,42.17 31.94,36.20 33.34,33.43 34.74,32.11 36.13,30.79 37.53,28.22 38.93,26.49 40.33,28.70 41.72,39.12 43.12,49.20 44.52,52.97 45.91,55.08 47.31,51.43 48.71,45.05 50.11,33.00 51.50,27.37 52.90,18.42 54.30,21.40 55.69,24.65 57.09,27.88 58.49,33.06 59.89,35.42 61.28,43.41 62.68,46.17 64.08,46.26 65.47,43.33 66.87,38.78 68.27,33.57 69.67,28.80 71.06,27.01 72.46,24.28 73.86,22.32 75.25,24.93 76.65,29.19 78.05,31.19 79.44,32.94 80.84,36.64 82.24,32.96 83.64,19.49 85.03,9.87 86.43,5.63 87.83,5.49 89.22,6.77 90.62,7.61 92.02,15.76 93.42,25.29 94.81,31.83 96.21,41.71 97.61,42.26 99.00,36.28 100.40,31.97 101.80,49.11 103.20,47.38 104.59,42.70 105.99,37.28 107.39,26.59 108.78,21.45 110.18,17.64 111.58,14.47 112.98,25.50 114.37,38.06 115.77,38.06 117.17,32.65 118.56,41.58 119.96,34.83 121.36,35.50 122.76,31.22 124.15,35.50 125.55,40.05 126.95,44.32 128.34,41.65 129.74,36.90 131.14,33.56 132.54,36.64 133.93,31.83 135.33,30.56 136.73,25.27 138.12,33.21 139.52,43.37 140.92,49.65 142.32,56.00 143.71,50.39 145.11,51.99 146.51,49.52 147.90,35.17 149.30,22.39 150.70,17.05 152.10,16.78 153.49,17.65 154.89,30.47 156.29,34.08 157.68,38.76 159.08,43.41 160.48,48.02 161.88,44.34 163.27,43.14 164.67,40.53 166.07,32.58 167.46,26.77 168.86,29.37 170.26,23.89 171.66,24.43 173.05,27.20 174.45,27.87 175.85,37.22 177.24,32.81 178.64,37.36 180.04,31.13 181.44,16.03 182.83,6.67 184.23,4.00 185.63,4.00 187.02,12.82 188.42,8.01 189.82,24.05 191.22,22.44 192.61,26.52 194.01,44.97 195.41,33.14 196.80,41.56 198.20,36.95 199.60,51.51 201.00,42.68 202.39,42.68 203.79,42.68 205.19,26.58 206.58,26.58 207.98,14.48 209.38,14.48 210.78,14.48 212.17,32.66 213.57,32.66 214.97,32.66 216.36,32.66 217.76,21.77 219.16,30.45 220.56,30.45 221.95,40.01 223.35,40.01 224.75,40.01 226.14,55.18 227.54,45.88 228.94,36.66 230.33,36.66 231.73,36.66 233.13,18.62 234.53,33.26 235.92,33.26 237.32,33.26 238.72,33.26 240.11,50.36 241.51,50.36 242.91,50.36 244.31,39.74 245.70,39.74 247.10,24.30 248.50,24.30 249.89,24.30 251.29,30.45 252.69,30.45 254.09,38.74 255.48,38.74 256.88,38.74 258.28,50.63 259.67,50.63 261.07,50.63 262.47,46.44 263.87,21.05 265.26,29.38 266.66,29.38 268.06,29.38 269.45,27.04 270.85,19.82 272.25,19.82 273.65,39.34 275.04,39.34 276.44,39.34 277.84,21.16 279.23,21.16 280.63,21.16 282.03,18.29 283.43,18.29 284.82,7.99 286.22,7.99 287.62,7.99 289.01,40.07 290.41,40.07 291.81,40.07 293.21,20.56 294.60,20.56 296.00,46.29" />
</svg>