<svg width="300" height="60" xmlns="http://www.w3.org/2000/svg">
  <polyline fill="rgba(255,200,0,0.3)" stroke="#ffbb00" stroke-width="2" points="4.00,6.60 4.18,6.76 4.35,7.07 4.53,7.16 4.71,7.13 4.88,7.11 5.06,7.12 5.24,7.16 5.41,7.24 5.59,7.31 5.76,7.38 5.94,7.44 6.12,7.50 6.29,7.56 6.47,7.61 6.65,7.64 6.82,7.65 7.00,7.69 7.18,7.66 7.35,7.63 7.53,7.56 7.71,7.48 7.88,7.41 8.06,7.32 8.23,7.23 8.41,7.16 8.59,7.12 8.76,7.09 8.94,7.11 9.12,7.11 9.29,7.12 9.47,7.07 9.65,7.01 9.82,6.94 10.00,6.85 10.18,6.79 10.35,6.73 10.53,6.68 10.70,6.59 10.88,6.53 11.06,6.42 11.23,6.32 11.41,6.19 11.59,5.97 11.76,5.75 11.94,5.50 12.12,5.21 12.29,4.91 12.47,4.60 12.65,4.36 12.82,4.24 13.00,4.24 13.17,4.37 13.35,4.60 13.53,4.84 13.70,5.12 13.88,5.40 14.06,5.63 14.23,5.91 14.41,6.15 14.59,6.33 14.76,6.50 14.94,6.67 15.12,6.81 15.29,6.91 15.47,6.98 15.64,7.06 15.82,7.13 16.00,7.19 16.17,7.21 16.35,7.22 16.53,7.23 16.70,7.19 16.88,7.13 17.06,7.05 17.23,6.96 17.41,6.88 17.59,6.80 17.76,6.72 17.94,6.65 18.11,6.62 18.29,6.59 18.47,6.58 18.64,6.50 18.82,6.43 19.00,6.36 19.17,6.29 19.35,6.21 19.53,6.18 19.70,6.17 19.88,6.18 20.06,6.15 20.23,6.15 20.41,6.16 20.58,6.19 20.76,6.26 20.94,6.39 21.11,6.53 21.29,6.66 21.47,6.74 21.64,6.87 21.82,7.06 22.00,7.17 22.17,7.31 22.35,7.41 22.53,7.54 22.70,7.61 22.88,7.71 23.05,7.80 23.23,7.91 23.41,7.98 23.58,8.09 23.76,8.21 23.94,8.37 24.11,8.52 24.29,8.70 24.47,8.84 24.64,9.03 24.82,9.18 25.00,9.31 25.17,9.43 25.35,9.58 25.53,9.78 25.70,9.92 25.88,10.06 26.05,10.21 26.23,10.33 26.41,10.45 26.58,10.60 26.76,10.72 26.94,10.85 27.11,10.97 27.29,11.06 27.47,11.12 27.64,11.26 27.82,11.43 28.00,11.49 28.17,11.62 28.35,11.72 28.52,11.84 28.70,12.00 28.88,12.18 29.05,12.38 29.23,12.62 29.41,12.82 29.58,13.03 29.76,13.20 29.94,13.52 30.11,13.82 30.29,14.13 30.47,14.40 30.64,14.63 30.82,14.86 30.99,15.13 31.17,15.35 31.35,15.57 31.52,15.75 31.70,15.90 31.88,16.06 32.05,16.21 32.23,16.38 32.41,16.49 32.58,16.72 32.76,17.03 32.94,17.32 33.11,17.59 33.29,17.90 33.46,18.19 33.64,18.46 33.82,18.69 33.99,18.94 34.17,19.22 34.35,19.50 34.52,19.94 34.70,20.31 34.88,20.61 35.05,20.88 35.23,21.15 35.41,21.36 35.58,21.59 35.76,21.85 35.93,22.09 36.11,22.34 36.29,22.65 36.46,22.98 36.64,23.26 36.82,23.56 36.99,23.88 37.17,24.20 37.35,24.47 37.52,24.75 37.70,25.04 37.88,25.04 38.05,25.33 38.23,25.61 38.40,25.90 38.58,26.24 38.76,26.51 38.93,26.77 39.11,26.93 39.29,27.05 39.46,27.17 39.64,27.22 39.82,27.26 39.99,27.30 40.17,27.31 40.35,27.25 40.52,27.20 40.70,27.13 40.87,27.02 41.05,26.92 41.23,26.84 41.40,26.87 41.58,26.96 41.76,27.24 41.93,27.59 42.11,27.92 42.29,28.24 42.46,28.63 42.64,28.99 42.82,29.21 42.99,29.59 43.17,29.84 43.35,30.20 43.52,30.70 43.70,31.11 43.87,31.38 44.05,31.63 44.23,31.93 44.40,32.24 44.58,32.45 44.76,32.74 44.93,33.08 45.11,33.34 45.29,33.64 45.46,33.88 45.64,34.16 45.82,34.45 45.99,34.76 46.17,35.06 46.34,35.32 46.52,35.58 46.70,35.92 46.87,36.23 47.05,36.53 47.23,36.85 47.40,37.13 47.58,37.45 47.76,37.78 47.93,38.03 48.11,38.24 48.29,38.44 48.46,38.71 48.64,38.95 48.81,39.18 48.99,39.45 49.17,39.74 49.34,39.96 49.52,40.22 49.70,40.42 49.87,40.62 50.05,40.79 50.23,40.88 50.40,41.01 50.58,41.09 50.76,41.19 50.93,41.29 51.11,41.42 51.28,41.56 51.46,41.75 51.64,42.00 51.81,42.26 51.99,42.59 52.17,42.87 52.34,43.17 52.52,43.44 52.70,43.69 52.87,43.93 53.05,44.14 53.23,44.17 53.40,44.03 53.58,43.89 53.75,43.59 53.93,43.38 54.11,43.23 54.28,43.17 54.46,43.12 54.64,43.02 54.81,42.95 54.99,42.93 55.17,42.93 55.34,42.92 55.52,42.91 55.70,42.84 55.87,42.80 56.05,42.73 56.22,42.69 56.40,42.71 56.58,42.74 56.75,42.73 56.93,42.74 57.11,42.77 57.28,42.82 57.46,42.71 57.64,42.64 57.81,42.47 57.99,42.28 58.17,42.11 58.34,42.02 58.52,42.02 58.69,42.07 58.87,42.17 59.05,42.29 59.22,42.39 59.40,42.44 59.58,42.46 59.75,42.50 59.93,42.58 60.11,42.66 60.28,42.80 60.46,42.97 60.64,43.13 60.81,43.28 60.99,43.37 61.16,43.52 61.34,43.70 61.52,43.93 61.69,44.23 61.87,44.52 62.05,44.90 62.22,45.37 62.40,45.70 62.58,45.99 62.75,46.36 62.93,46.73 63.11,47.10 63.28,47.46 63.46,47.89 63.64,48.29 63.81,48.73 63.99,49.20 64.16,49.56 64.34,49.93 64.52,50.35 64.69,50.82 64.87,51.17 65.05,51.60 65.22,51.91 65.40,52.27 65.58,52.64 65.75,52.92 65.93,53.25 66.11,53.49 66.28,53.72 66.46,53.94 66.63,54.18 66.81,54.50 66.99,54.79 67.16,55.01 67.34,55.12 67.52,55.06 67.69,54.84 67.87,54.57 68.05,54.50 68.22,54.45 68.40,54.48 68.58,54.55 68.75,54.66 68.93,54.73 69.10,54.68 69.28,54.62 69.46,54.55 69.63,54.48 69.81,54.44 69.99,54.46 70.16,54.60 70.34,40.64 70.52,40.80 70.69,40.90 70.87,41.02 71.05,41.11 71.22,41.22 71.40,41.32 71.57,41.44 71.75,41.59 71.93,41.76 72.10,42.01 72.28,42.31 72.46,42.59 72.63,42.89 72.81,43.19 72.99,43.45 73.16,43.72 73.34,43.95 73.52,44.17 73.69,44.17 73.87,44.03 74.04,43.90 74.22,43.60 74.40,43.38 74.57,43.26 74.75,43.18 74.93,43.11 75.10,43.03 75.28,42.97 75.46,42.94 75.63,42.94 75.81,42.93 75.99,42.91 76.16,42.85 76.34,42.81 76.51,42.74 76.69,42.71 76.87,42.74 77.04,42.77 77.22,42.75 77.40,42.77 77.57,42.79 77.75,42.84 77.93,42.72 78.10,42.66 78.28,42.48 78.46,42.30 78.63,42.13 78.81,42.05 78.98,42.04 79.16,42.09 79.34,42.20 79.51,42.32 79.69,42.43 79.87,42.48 80.04,42.49 80.22,42.53 80.40,42.59 80.57,42.68 80.75,42.81 80.93,43.00 81.10,43.16 81.28,43.31 81.45,43.40 81.63,43.54 81.81,43.71 81.98,43.98 82.16,44.25 82.34,44.54 82.51,44.92 82.69,45.36 82.87,45.71 83.04,46.02 83.22,46.39 83.40,46.76 83.57,47.11 83.75,47.48 83.93,47.91 84.10,48.33 84.28,48.75 84.45,49.25 84.63,49.59 84.81,49.96 84.98,50.35 85.16,50.84 85.34,51.20 85.51,51.63 85.69,51.93 85.87,52.28 86.04,52.64 86.22,53.02 86.40,53.27 86.57,53.45 86.75,53.73 86.92,53.97 87.10,54.20 87.28,54.52 87.45,54.84 87.63,55.03 87.81,55.12 87.98,55.07 88.16,54.85 88.34,54.58 88.51,54.52 88.69,54.46 88.87,54.48 89.04,54.56 89.22,54.68 89.39,54.74 89.57,54.69 89.75,54.62 89.92,54.56 90.10,54.51 90.28,54.45 90.45,54.46 90.63,54.61 90.81,6.63 90.98,6.82 91.16,7.16 91.34,7.19 91.51,7.18 91.69,7.15 91.86,7.16 92.04,7.20 92.22,7.27 92.39,7.35 92.57,7.40 92.75,7.49 92.92,7.53 93.10,7.58 93.28,7.65 93.45,7.67 93.63,7.71 93.81,7.76 93.98,7.72 94.16,7.72 94.33,7.68 94.51,7.56 94.69,7.48 94.86,7.38 95.04,7.29 95.22,7.21 95.39,7.07 95.57,7.17 95.75,7.16 95.92,7.18 96.10,7.20 96.28,7.17 96.45,7.12 96.63,7.05 96.80,6.94 96.98,6.87 97.16,6.82 97.33,6.78 97.51,6.74 97.69,6.59 97.86,6.54 98.04,6.41 98.22,6.28 98.39,6.01 98.57,5.87 98.75,5.57 98.92,5.32 99.10,5.02 99.27,4.73 99.45,4.47 99.63,4.40 99.80,4.37 99.98,4.51 100.16,4.75 100.33,4.99 100.51,5.30 100.69,5.52 100.86,5.80 101.04,6.03 101.22,6.26 101.39,6.37 101.57,6.54 101.75,6.71 101.92,6.78 102.10,6.85 102.27,6.98 102.45,7.09 102.63,7.17 102.80,7.24 102.98,7.32 103.16,7.33 103.33,7.28 103.51,7.24 103.69,7.19 103.86,7.10 104.04,7.04 104.22,6.98 104.39,6.88 104.57,6.81 104.74,6.73 104.92,6.69 105.10,6.76 105.27,6.67 105.45,6.66 105.63,6.63 105.80,6.41 105.98,6.37 106.16,6.26 106.33,6.20 106.51,6.23 106.69,6.23 106.86,6.20 107.04,6.24 107.21,6.22 107.39,6.26 107.57,6.30 107.74,6.42 107.92,6.55 108.10,6.71 108.27,6.80 108.45,6.90 108.63,6.86 108.80,7.12 108.98,7.24 109.16,7.48 109.33,7.57 109.51,7.73 109.68,7.80 109.86,7.95 110.04,8.10 110.21,8.10 110.39,8.19 110.57,8.22 110.74,8.39 110.92,8.55 111.10,8.72 111.27,8.85 111.45,9.20 111.63,9.24 111.80,9.39 111.98,9.52 112.15,9.58 112.33,9.75 112.51,9.88 112.68,10.04 112.86,10.16 113.04,10.28 113.21,10.42 113.39,10.46 113.57,10.67 113.74,10.78 113.92,10.80 114.10,10.97 114.27,11.13 114.45,11.07 114.62,11.36 114.80,11.43 114.98,11.56 115.15,11.67 115.33,11.83 115.51,11.91 115.68,12.16 115.86,12.24 116.04,12.52 116.21,12.68 116.39,12.98 116.57,13.23 116.74,13.48 116.92,13.85 117.09,14.01 117.27,14.43 117.45,14.60 117.62,14.86 117.80,15.09 117.98,15.38 118.15,15.55 118.33,15.74 118.51,15.90 118.68,16.04 118.86,16.19 119.04,16.32 119.21,16.52 119.39,16.70 119.56,16.96 119.74,17.21 119.92,17.52 120.09,17.88 120.27,18.20 120.45,18.41 120.62,18.67 120.80,18.95 120.98,19.11 121.15,19.46 121.33,19.85 121.51,20.23 121.68,20.60 121.86,20.90 122.04,21.11 122.21,21.38 122.39,21.57 122.56,21.86 122.74,22.06 122.92,22.31 123.09,22.66 123.27,22.75 123.45,23.24 123.62,23.53 123.80,23.86 123.98,24.12 124.15,24.38 124.33,24.76 124.51,25.02 124.68,25.25 124.86,25.62 125.03,25.92 125.21,26.15 125.39,26.46 125.56,26.75 125.74,27.05 125.92,27.17 126.09,27.17 126.27,27.23 126.45,27.30 126.62,27.31 126.80,27.31 126.98,27.28 127.15,27.21 127.33,27.15 127.50,27.04 127.68,26.95 127.86,26.87 128.03,26.86 128.21,26.96 128.39,27.02 128.56,27.46 128.74,27.87 128.92,28.18 129.09,28.53 129.27,29.04 129.45,29.17 129.62,29.45 129.80,29.67 129.97,30.08 130.15,30.63 130.33,30.86 130.50,31.29 130.68,31.53 130.86,31.88 131.03,32.09 131.21,32.37 131.39,32.72 131.56,33.05 131.74,33.39 131.92,33.55 132.09,33.88 132.27,34.09 132.44,34.45 132.62,34.69 132.80,34.98 132.97,35.27 133.15,35.60 133.33,35.97 133.50,36.30 133.68,36.52 133.86,36.85 134.03,37.12 134.21,37.41 134.39,37.78 134.56,38.11 134.74,38.32 134.91,38.44 135.09,38.73 135.27,38.94 135.44,39.25 135.62,39.54 135.80,39.95 135.97,40.00 136.15,40.26 136.33,40.45 136.50,40.67 136.68,40.93 136.86,40.90 137.03,41.09 137.21,41.42 137.38,41.28 137.56,41.49 137.74,41.67 137.91,41.62 138.09,41.82 138.27,42.04 138.44,42.57 138.62,42.90 138.80,43.02 138.97,43.26 139.15,43.63 139.33,43.72 139.50,44.00 139.68,44.41 139.85,44.27 140.03,44.24 140.21,44.02 140.38,43.72 140.56,43.46 140.74,43.32 140.91,43.28 141.09,43.16 141.27,43.12 141.44,43.01 141.62,42.97 141.80,42.98 141.97,42.99 142.15,42.98 142.33,42.91 142.50,42.87 142.68,42.85 142.85,42.77 143.03,42.92 143.21,42.98 143.38,42.99 143.56,42.85 143.74,42.97 143.91,42.88 144.09,42.95 144.27,42.71 144.44,42.67 144.62,42.68 144.80,42.22 144.97,42.15 145.15,42.13 145.32,42.30 145.50,42.20 145.68,42.39 145.85,42.50 146.03,42.51 146.21,42.63 146.38,42.55 146.56,42.60 146.74,42.73 146.91,42.83 147.09,42.99 147.27,43.21 147.44,43.60 147.62,43.54 147.79,43.79 147.97,43.74 148.15,44.08 148.32,44.39 148.50,44.53 148.68,44.91 148.85,45.24 149.03,45.65 149.21,46.02 149.38,46.43 149.56,46.69 149.74,47.09 149.91,47.44 150.09,47.89 150.26,48.34 150.44,48.71 150.62,49.20 150.79,49.53 150.97,49.93 151.15,50.35 151.32,50.75 151.50,51.12 151.68,51.51 151.85,51.86 152.03,52.24 152.21,52.57 152.38,52.95 152.56,53.23 152.73,53.47 152.91,53.89 153.09,53.97 153.26,54.24 153.44,54.49 153.62,54.74 153.79,54.97 153.97,55.22 154.15,55.16 154.32,54.88 154.50,54.64 154.68,54.51 154.85,54.47 155.03,54.48 155.20,54.53 155.38,54.62 155.56,54.69 155.73,54.71 155.91,54.63 156.09,54.55 156.26,54.52 156.44,54.48 156.62,54.49 156.79,54.64 156.97,47.97 157.15,48.37 157.32,48.77 157.50,49.31 157.67,49.60 157.85,49.96 158.03,50.45 158.20,50.84 158.38,51.23 158.56,51.59 158.73,51.96 158.91,52.33 159.09,52.66 159.26,53.04 159.44,53.30 159.62,53.51 159.79,53.80 159.97,53.99 160.15,54.28 160.32,54.54 160.50,54.82 160.67,55.04 160.85,55.17 161.03,55.08 161.20,54.87 161.38,54.62 161.56,54.53 161.73,54.49 161.91,54.52 162.09,54.58 162.26,54.66 162.44,54.75 162.62,54.74 162.79,54.67 162.97,54.58 163.14,54.54 163.32,54.51 163.50,54.52 163.67,54.62 163.85,6.64 164.03,6.85 164.20,7.33 164.38,7.26 164.56,7.14 164.73,7.17 164.91,7.11 165.09,7.22 165.26,7.29 165.44,7.29 165.61,7.30 165.79,7.28 165.97,7.52 166.14,7.51 166.32,7.68 166.50,7.61 166.67,7.71 166.85,7.80 167.03,7.46 167.20,7.43 167.38,7.37 167.56,7.34 167.73,7.33 167.91,7.29 168.08,7.23 168.26,7.12 168.44,6.96 168.61,7.32 168.79,7.48 168.97,7.45 169.14,7.35 169.32,7.18 169.50,6.85 169.67,6.77 169.85,6.73 170.03,6.72 170.20,6.73 170.38,6.79 170.55,6.75 170.73,6.29 170.91,6.24 171.08,6.31 171.26,6.40 171.44,5.82 171.61,5.68 171.79,5.44 171.97,5.09 172.14,4.95 172.32,4.58 172.50,4.38 172.67,4.28 172.85,4.09 173.02,4.34 173.20,4.66 173.38,4.69 173.55,5.10 173.73,5.50 173.91,5.52 174.08,5.93 174.26,6.25 174.44,6.25 174.61,6.48 174.79,6.70 174.97,6.79 175.14,6.79 175.32,6.98 175.49,7.09 175.67,7.14 175.85,7.17 176.02,7.40 176.20,7.34 176.38,7.40 176.55,7.42 176.73,7.40 176.91,7.11 177.08,7.02 177.26,6.90 177.44,6.78 177.61,6.66 177.79,6.68 177.96,6.66 178.14,6.77 178.32,6.58 178.49,6.68 178.67,6.36 178.85,6.38 179.02,6.14 179.20,6.19 179.38,6.16 179.55,6.32 179.73,6.26 179.91,6.57 180.08,6.31 180.26,6.51 180.44,6.28 180.61,6.46 180.79,6.40 180.96,6.63 181.14,6.83 181.32,7.09 181.49,6.76 181.67,6.88 181.85,7.02 182.02,7.04 182.20,7.52 182.38,7.59 182.55,7.54 182.73,7.40 182.91,7.99 183.08,7.91 183.26,7.63 183.43,8.15 183.61,8.07 183.79,8.01 183.96,8.58 184.14,8.56 184.32,8.54 184.49,9.01 184.67,8.94 184.85,9.27 185.02,9.55 185.20,9.50 185.38,9.76 185.55,9.85 185.73,10.02 185.90,10.20 186.08,10.48 186.26,10.27 186.43,10.47 186.61,10.78 186.79,10.98 186.96,11.24 187.14,11.50 187.32,11.57 187.49,10.98 187.67,11.29 187.85,11.42 188.02,11.52 188.20,11.65 188.37,11.85 188.55,11.89 188.73,12.05 188.90,12.25 189.08,12.53 189.26,12.53 189.43,12.85 189.61,13.17 189.79,13.50 189.96,13.83 190.14,13.84 190.32,14.42 190.49,14.71 190.67,14.97 190.84,15.19 191.02,15.47 191.20,15.63 191.37,15.92 191.55,16.41 191.73,16.04 191.90,16.26 192.08,16.51 192.26,16.73 192.43,16.73 192.61,17.03 192.79,17.31 192.96,17.83 193.14,18.13 193.31,18.63 193.49,18.63 193.67,18.55 193.84,19.08 194.02,19.25 194.20,19.79 194.37,19.53 194.55,20.40 194.73,20.74 194.90,21.25 195.08,21.31 195.26,22.18 195.43,21.58 195.61,21.87 195.78,22.54 195.96,22.24 196.14,23.01 196.31,22.75 196.49,23.16 196.67,23.55 196.84,23.96 197.02,23.90 197.20,24.29 197.37,24.96 197.55,25.05 197.73,25.36 197.90,25.67 198.08,25.90 198.25,26.14 198.43,26.38 198.61,26.60 198.78,26.95 198.96,27.30 199.14,27.31 199.31,27.30 199.49,27.32 199.67,27.35 199.84,27.30 200.02,27.56 200.20,27.38 200.37,27.12 200.55,27.22 200.73,26.85 200.90,26.86 201.08,27.01 201.25,26.86 201.43,27.38 201.61,27.38 201.78,28.05 201.96,28.65 202.14,28.58 202.31,29.02 202.49,29.41 202.67,29.41 202.84,29.88 203.02,30.48 203.20,31.21 203.37,31.01 203.55,31.83 203.72,31.88 203.90,32.08 204.08,32.26 204.25,32.50 204.43,32.79 204.61,33.20 204.78,33.55 204.96,34.00 205.14,34.31 205.31,34.39 205.49,34.81 205.67,35.11 205.84,35.29 206.02,35.40 206.19,35.55 206.37,35.48 206.55,36.02 206.72,35.50 206.90,36.75 207.08,37.31 207.25,37.10 207.43,37.69 207.61,37.99 207.78,38.13 207.96,38.15 208.14,38.03 208.31,38.31 208.49,38.83 208.66,39.41 208.84,39.98 209.02,39.84 209.19,40.31 209.37,40.44 209.55,40.77 209.72,40.43 209.90,40.62 210.08,40.88 210.25,40.79 210.43,40.50 210.61,41.56 210.78,41.40 210.96,41.21 211.13,40.99 211.31,42.05 211.49,42.00 211.66,42.97 211.84,42.99 212.02,43.17 212.19,43.89 212.37,43.92 212.55,44.10 212.72,44.14 212.90,43.97 213.08,44.17 213.25,43.85 213.43,43.56 213.60,43.35 213.78,43.25 213.96,43.25 214.13,43.25 214.31,43.22 214.49,42.73 214.66,42.73 214.84,42.82 215.02,42.92 215.19,42.91 215.37,42.83 215.55,42.71 215.72,43.00 215.90,42.72 216.07,42.97 216.25,42.59 216.43,43.30 216.60,43.13 216.78,42.82 216.96,42.64 217.13,42.39 217.31,42.08 217.49,42.97 217.66,42.58 217.84,42.21 218.02,41.76 218.19,41.76 218.37,41.90 218.55,42.10 218.72,42.29 218.90,42.36 219.07,42.27 219.25,42.11 219.43,42.73 219.60,42.58 219.78,42.67 219.96,42.97 220.13,42.61 220.31,43.43 220.49,43.16 220.66,43.95 220.84,43.25 221.02,44.02 221.19,43.78 221.37,44.74 221.54,44.85 221.72,45.23 221.90,44.79 222.07,45.72 222.25,46.73 222.43,46.53 222.60,47.16 222.78,47.18 222.96,47.83 223.13,48.11 223.31,48.55 223.49,48.99 223.66,50.05 223.84,49.59 224.01,50.16 224.19,50.66 224.37,50.13 224.54,51.10 224.72,51.95 224.90,52.22 225.07,52.35 225.25,52.22 225.43,53.07 225.60,53.82 225.78,53.02 225.96,53.27 226.13,53.73 226.31,54.33 226.48,53.46 226.66,54.28 226.84,55.02 227.01,54.90 227.19,54.99 227.37,54.44 227.54,54.56 227.72,54.38 227.90,54.45 228.07,54.16 228.25,54.46 228.43,54.63 228.60,54.97 228.78,54.82 228.95,54.78 229.13,54.65 229.31,54.66 229.48,54.51 229.66,54.63 229.84,54.56 230.01,6.93 230.19,7.62 230.37,7.62 230.54,7.34 230.72,7.34 230.90,7.34 231.07,7.59 231.25,7.43 231.42,7.43 231.60,7.43 231.78,7.73 231.95,7.34 232.13,7.34 232.31,7.64 232.48,7.64 232.66,7.64 232.84,7.91 233.01,7.91 233.19,6.93 233.37,6.50 233.54,6.50 233.72,6.48 233.89,6.48 234.07,6.48 234.25,7.05 234.42,7.05 234.60,7.82 234.78,7.82 234.95,7.82 235.13,7.49 235.31,7.49 235.48,7.49 235.66,6.57 235.84,6.57 236.01,6.26 236.19,6.26 236.36,6.26 236.54,6.25 236.72,6.25 236.89,6.23 237.07,6.23 237.25,6.23 237.42,6.14 237.60,6.14 237.78,5.30 237.95,5.30 238.13,5.30 238.31,4.74 238.48,4.74 238.66,4.26 238.84,4.00 239.01,4.00 239.19,4.00 239.36,4.47 239.54,4.72 239.72,4.72 239.89,4.72 240.07,5.35 240.25,6.12 240.42,6.12 240.60,6.12 240.78,7.11 240.95,7.11 241.13,6.88 241.31,7.58 241.48,7.58 241.66,7.58 241.83,8.25 242.01,8.25 242.19,7.67 242.36,7.70 242.54,7.70 242.72,7.61 242.89,7.61 243.07,7.61 243.25,7.29 243.42,7.29 243.60,7.01 243.78,7.01 243.95,7.01 244.13,7.61 244.30,6.85 244.48,6.85 244.66,6.39 244.83,6.39 245.01,6.39 245.19,6.63 245.36,6.32 245.54,6.32 245.72,7.35 245.89,7.35 246.07,7.35 246.25,6.84 246.42,6.84 246.60,6.84 246.77,7.72 246.95,7.72 247.13,7.72 247.30,8.39 247.48,8.39 247.66,6.73 247.83,6.95 248.01,6.95 248.19,6.95 248.36,6.95 248.54,6.95 248.72,6.61 248.89,6.61 249.07,6.61 249.24,6.52 249.42,6.52 249.60,8.09 249.77,8.09 249.95,8.09 250.13,8.45 250.30,8.45 250.48,8.45 250.66,9.16 250.83,9.16 251.01,9.43 251.19,9.57 251.36,9.57 251.54,9.57 251.71,11.35 251.89,10.29 252.07,10.29 252.24,11.15 252.42,11.15 252.60,11.15 252.77,11.88 252.95,11.88 253.13,12.53 253.30,12.53 253.48,12.53 253.66,11.67 253.83,11.67 254.01,11.52 254.18,11.52 254.36,11.40 254.54,12.29 254.71,12.29 254.89,12.29 255.07,13.49 255.24,12.88 255.42,12.88 255.60,12.88 255.77,14.32 255.95,13.83 256.13,13.83 256.30,13.83 256.48,14.94 256.65,14.94 256.83,15.64 257.01,15.64 257.18,15.64 257.36,15.75 257.54,16.68 257.71,16.68 257.89,16.68 258.07,15.53 258.24,17.41 258.42,17.41 258.60,17.41 258.77,15.79 258.95,18.07 259.13,18.07 259.30,18.07 259.48,20.09 259.65,20.09 259.83,17.73 260.01,17.73 260.18,20.99 260.36,20.99 260.54,19.23 260.71,19.23 260.89,21.57 261.07,21.57 261.24,21.57 261.42,24.81 261.60,22.58 261.77,22.58 261.95,22.58 262.12,22.58 262.30,24.91 262.48,22.71 262.65,24.01 262.83,24.01 263.01,24.01 263.18,25.14 263.36,25.14 263.54,25.76 263.71,25.76 263.89,25.76 264.07,26.62 264.24,26.15 264.42,26.15 264.59,26.87 264.77,26.87 264.95,26.87 265.12,27.34 265.30,27.34 265.48,27.62 265.65,27.62 265.83,27.62 266.01,27.55 266.18,27.55 266.36,26.90 266.54,26.90 266.71,28.23 266.89,27.23 267.06,27.23 267.24,27.23 267.42,26.74 267.59,28.82 267.77,28.82 267.95,28.82 268.12,28.33 268.30,28.33 268.48,30.26 268.65,29.66 268.83,29.66 269.01,29.66 269.18,31.68 269.36,31.78 269.53,31.78 269.71,31.78 269.89,32.18 270.06,32.18 270.24,32.18 270.42,33.18 270.59,33.18 270.77,34.24 270.95,34.24 271.12,34.24 271.30,34.81 271.48,34.81 271.65,34.77 271.83,34.77 272.00,34.77 272.18,35.09 272.36,35.09 272.53,35.09 272.71,36.65 272.89,34.23 273.06,36.44 273.24,36.44 273.42,36.44 273.59,36.92 273.77,36.92 273.95,36.92 274.12,36.94 274.30,36.94 274.47,38.57 274.65,38.57 274.83,38.57 275.00,40.19 275.18,40.19 275.36,40.19 275.53,39.32 275.71,39.32 275.89,39.32 276.06,39.64 276.24,39.64 276.42,38.91 276.59,38.91 276.77,38.91 276.95,38.69 277.12,38.69 277.30,38.69 277.47,42.08 277.65,42.08 277.83,43.35 278.00,43.35 278.18,43.35 278.36,43.84 278.53,43.84 278.71,43.84 278.89,43.28 279.06,43.28 279.24,42.12 279.42,42.12 279.59,42.12 279.77,42.13 279.94,42.13 280.12,42.19 280.30,42.19 280.47,42.19 280.65,42.08 280.83,42.08 281.00,42.08 281.18,42.10 281.36,42.10 281.53,41.56 281.71,41.56 281.89,41.56 282.06,39.81 282.24,42.51 282.41,42.51 282.59,41.60 282.77,41.60 282.94,40.74 283.12,40.74 283.30,40.74 283.47,39.66 283.65,39.66 283.83,39.66 284.00,39.08 284.18,39.08 284.36,39.12 284.53,39.12 284.71,39.12 284.88,38.72 285.06,38.72 285.24,38.37 285.41,38.37 285.59,42.96 285.77,43.32 285.94,43.32 286.12,43.32 286.30,41.38 286.47,41.38 286.65,41.38 286.83,44.24 287.00,44.24 287.18,44.24 287.35,44.09 287.53,44.09 287.71,44.09 287.88,47.85 288.06,46.44 288.24,46.44 288.41,46.44 288.59,46.44 288.77,48.58 288.94,48.58 289.12,48.58 289.30,49.77 289.47,49.77 289.65,49.77 289.82,48.02 290.00,48.02 290.18,50.24 290.35,50.24 290.53,50.24 290.71,53.11 290.88,53.11 291.06,50.08 291.24,52.83 291.41,52.83 291.59,52.83 291.77,55.07 291.94,49.34 292.12,49.34 292.29,51.29 292.47,51.29 292.65,51.29 292.82,53.90 293.00,53.90 293.18,54.58 293.35,54.58 293.53,52.75 293.71,54.40 293.88,54.40 294.06,54.40 294.24,53.29 294.41,53.29 294.59,55.41 294.76,55.41 294.94,56.00 295.12,55.36 295.29,55.00 295.47,55.00 295.65,55.00 295.82,54.40 296.00,54.40" />
</svg>