<svg width="300" height="60" xmlns="http://www.w3.org/2000/svg">
  <polyline fill="rgba(255,200,0,0.3)" stroke="#ffbb00" stroke-width="2" points="4.00,55.34 4.41,55.31 4.81,54.42 5.22,53.67 5.62,52.68 6.03,52.41 6.44,52.09 6.84,51.25 7.25,51.33 7.66,50.68 8.06,49.99 8.47,49.08 8.87,48.68 9.28,48.25 9.69,47.30 10.09,46.48 10.50,45.27 10.90,44.60 11.31,43.82 11.72,43.10 12.12,42.65 12.53,42.25 12.93,42.19 13.34,42.02 13.75,41.20 14.15,40.73 14.56,40.26 14.97,39.28 15.37,38.47 15.78,37.89 16.18,36.72 16.59,36.49 17.00,36.26 17.40,36.74 17.81,36.43 18.21,36.76 18.62,36.90 19.03,36.75 19.43,35.63 19.84,33.69 20.24,32.87 20.65,32.59 21.06,32.27 21.46,33.24 21.87,33.43 22.28,33.34 22.68,32.13 23.09,31.72 23.49,31.36 23.90,31.05 24.31,30.81 24.71,31.10 25.12,31.02 25.52,30.68 25.93,30.42 26.34,30.25 26.74,29.97 27.15,29.54 27.55,28.72 27.96,27.49 28.37,26.21 28.77,24.74 29.18,24.35 29.59,24.78 29.99,25.35 30.40,25.82 30.80,26.75 31.21,26.60 31.62,26.17 32.02,25.59 32.43,26.04 32.83,26.47 33.24,27.27 33.65,26.91 34.05,24.85 34.46,24.19 34.87,24.50 35.27,24.41 35.68,24.78 36.08,24.72 36.49,24.27 36.90,23.80 37.30,22.93 37.71,21.84 38.11,21.46 38.52,22.12 38.93,24.03 39.33,24.59 39.74,24.79 40.14,24.88 40.55,24.51 40.96,23.70 41.36,24.16 41.77,24.19 42.18,24.02 42.58,24.03 42.99,23.58 43.39,23.51 43.80,22.61 44.21,22.15 44.61,21.89 45.02,21.40 45.42,21.20 45.83,21.26 46.24,21.26 46.64,21.17 47.05,21.16 47.45,21.20 47.86,20.60 48.27,19.85 48.67,19.55 49.08,19.83 49.49,19.93 49.89,19.92 50.30,19.72 50.70,19.40 51.11,18.88 51.52,18.48 51.92,17.80 52.33,17.12 52.73,16.27 53.14,16.15 53.55,16.14 53.95,16.18 54.36,16.18 54.76,16.23 55.17,16.04 55.58,16.02 55.98,15.41 56.39,13.84 56.80,12.75 57.20,12.25 57.61,12.13 58.01,11.90 58.42,11.25 58.83,10.97 59.23,10.94 59.64,12.12 60.04,10.60 60.45,9.04 60.86,7.87 61.26,6.90 61.67,6.12 62.08,5.31 62.48,55.24 62.89,55.37 63.29,54.21 63.70,53.67 64.11,52.71 64.51,52.40 64.92,52.10 65.32,51.33 65.73,51.30 66.14,50.68 66.54,49.83 66.95,49.15 67.35,48.59 67.76,48.24 68.17,47.34 68.57,46.44 68.98,45.30 69.39,44.63 69.79,43.89 70.20,43.18 70.60,42.64 71.01,42.33 71.42,42.14 71.82,41.71 72.23,41.36 72.63,40.71 73.04,40.31 73.45,39.27 73.85,38.26 74.26,37.79 74.66,36.83 75.07,36.42 75.48,36.33 75.88,36.50 76.29,36.38 76.70,36.77 77.10,36.90 77.51,36.77 77.91,35.96 78.32,33.76 78.73,32.79 79.13,32.54 79.54,32.41 79.94,33.14 80.35,33.43 80.76,33.40 81.16,32.15 81.57,31.52 81.97,31.38 82.38,31.04 82.79,30.84 83.19,31.06 83.60,31.01 84.01,30.86 84.41,30.39 84.82,30.25 85.22,29.94 85.63,29.53 86.04,28.71 86.44,27.62 86.85,26.29 87.25,24.70 87.66,24.32 88.07,24.83 88.47,25.34 88.88,25.99 89.29,26.70 89.69,26.68 90.10,26.38 90.50,25.61 90.91,25.81 91.32,26.37 91.72,27.31 92.13,26.75 92.53,24.76 92.94,24.34 93.35,24.41 93.75,24.50 94.16,24.82 94.56,24.69 94.97,24.23 95.38,23.84 95.78,22.95 96.19,21.76 96.60,21.45 97.00,22.36 97.41,23.85 97.81,24.57 98.22,24.79 98.63,24.92 99.03,24.53 99.44,24.10 99.84,24.10 100.25,24.12 100.66,24.04 101.06,23.83 101.47,23.54 101.87,23.56 102.28,22.71 102.69,22.21 103.09,21.83 103.50,21.40 103.91,21.22 104.31,21.25 104.72,21.19 105.12,21.14 105.53,21.21 105.94,21.26 106.34,20.66 106.75,19.74 107.15,19.54 107.56,19.70 107.97,20.01 108.37,19.91 108.78,19.73 109.18,19.39 109.59,18.99 110.00,18.54 110.40,17.89 110.81,17.03 111.22,16.25 111.62,16.13 112.03,16.15 112.43,16.14 112.84,16.25 113.25,16.22 113.65,16.01 114.06,15.96 114.46,15.27 114.87,13.87 115.28,12.80 115.68,12.22 116.09,12.16 116.50,11.75 116.90,11.19 117.31,10.88 117.71,10.91 118.12,12.29 118.53,10.66 118.93,9.08 119.34,7.84 119.74,6.90 120.15,6.11 120.56,5.30 120.96,55.18 121.37,55.71 121.77,54.51 122.18,53.15 122.59,52.65 122.99,52.41 123.40,52.16 123.81,51.41 124.21,51.59 124.62,50.68 125.02,50.27 125.43,49.24 125.84,47.95 126.24,48.30 126.65,47.33 127.05,45.97 127.46,45.40 127.87,44.38 128.27,43.91 128.68,43.23 129.08,42.63 129.49,42.33 129.90,42.04 130.30,42.14 130.71,41.09 131.12,40.76 131.52,40.33 131.93,39.64 132.33,38.74 132.74,38.17 133.15,37.02 133.55,36.31 133.96,36.67 134.36,37.04 134.77,36.69 135.18,36.95 135.58,36.97 135.99,36.71 136.39,35.50 136.80,33.88 137.21,33.31 137.61,32.36 138.02,32.27 138.43,33.48 138.83,33.37 139.24,33.44 139.64,32.15 140.05,31.73 140.46,31.45 140.86,31.10 141.27,30.87 141.67,31.25 142.08,31.34 142.49,30.67 142.89,30.45 143.30,30.27 143.71,30.04 144.11,29.29 144.52,28.60 144.92,27.99 145.33,26.21 145.74,24.87 146.14,23.98 146.55,24.94 146.95,25.33 147.36,26.14 147.77,26.60 148.17,26.38 148.58,26.53 148.98,25.78 149.39,26.29 149.80,26.48 150.20,27.60 150.61,26.41 151.02,25.08 151.42,23.83 151.83,24.64 152.23,24.62 152.64,24.84 153.05,24.52 153.45,24.63 153.86,24.08 154.26,22.65 154.67,21.81 155.08,21.32 155.48,21.86 155.89,23.64 156.29,24.66 156.70,24.84 157.11,24.93 157.51,24.06 157.92,24.13 158.33,24.21 158.73,24.24 159.14,23.87 159.54,23.50 159.95,23.81 160.36,23.50 160.76,22.92 161.17,22.63 161.57,21.70 161.98,21.36 162.39,21.16 162.79,21.31 163.20,21.07 163.61,21.27 164.01,20.80 164.42,21.04 164.82,20.41 165.23,20.20 165.64,19.92 166.04,19.70 166.45,20.09 166.85,19.86 167.26,19.45 167.67,19.40 168.07,19.07 168.48,18.68 168.88,17.81 169.29,17.20 169.70,16.42 170.10,16.29 170.51,16.08 170.92,16.21 171.32,16.36 171.73,16.11 172.13,16.04 172.54,16.03 172.95,15.61 173.35,13.86 173.76,12.84 174.16,12.57 174.57,12.44 174.98,11.69 175.38,11.42 175.79,11.18 176.19,10.69 176.60,11.98 177.01,10.60 177.41,8.94 177.82,7.62 178.23,6.94 178.63,6.03 179.04,5.34 179.44,54.10 179.85,55.25 180.26,54.71 180.66,53.48 181.07,52.70 181.47,52.38 181.88,51.58 182.29,52.24 182.69,51.17 183.10,51.18 183.50,49.71 183.91,49.91 184.32,48.59 184.72,49.37 185.13,48.29 185.54,46.70 185.94,46.11 186.35,43.43 186.75,42.93 187.16,42.55 187.57,42.47 187.97,43.21 188.38,43.65 188.78,43.76 189.19,40.63 189.60,40.54 190.00,40.50 190.41,40.59 190.82,37.97 191.22,38.37 191.63,38.57 192.03,35.58 192.44,35.78 192.85,35.86 193.25,35.70 193.66,37.58 194.06,36.53 194.47,35.96 194.88,34.48 195.28,33.06 195.69,32.38 196.09,32.97 196.50,32.97 196.91,33.59 197.31,32.49 197.72,33.75 198.13,32.60 198.53,31.49 198.94,30.77 199.34,30.63 199.75,31.15 200.16,31.23 200.56,31.19 200.97,30.06 201.37,30.56 201.78,29.07 202.19,28.72 202.59,27.90 203.00,28.34 203.40,26.56 203.81,24.33 204.22,23.70 204.62,23.70 205.03,23.93 205.44,24.63 205.84,26.30 206.25,26.13 206.65,25.14 207.06,26.14 207.47,24.61 207.87,25.75 208.28,26.90 208.68,27.87 209.09,24.87 209.50,23.75 209.90,23.47 210.31,24.14 210.71,22.80 211.12,24.24 211.53,22.96 211.93,24.09 212.34,23.17 212.75,21.49 213.15,22.04 213.56,20.75 213.96,21.40 214.37,23.28 214.78,23.70 215.18,24.04 215.59,25.76 215.99,23.89 216.40,23.85 216.81,24.73 217.21,23.80 217.62,24.77 218.03,23.81 218.43,24.53 218.84,23.34 219.24,23.04 219.65,21.67 220.06,21.25 220.46,21.87 220.87,21.13 221.27,21.73 221.68,20.91 222.09,21.16 222.49,21.46 222.90,20.53 223.30,20.35 223.71,20.10 224.12,19.93 224.52,19.83 224.93,19.61 225.34,19.48 225.74,19.35 226.15,19.22 226.55,19.09 226.96,18.28 227.37,17.90 227.77,17.27 228.18,16.65 228.58,16.52 228.99,16.42 229.40,16.27 229.80,16.10 230.21,15.96 230.61,16.36 231.02,15.72 231.43,14.68 231.83,14.15 232.24,12.87 232.65,12.06 233.05,12.84 233.46,11.93 233.86,11.65 234.27,10.55 234.68,10.61 235.08,11.15 235.49,10.56 235.89,8.70 236.30,7.33 236.71,6.36 237.11,5.86 237.52,4.53 237.92,48.98 238.33,52.65 238.74,52.65 239.14,52.65 239.55,51.81 239.96,51.81 240.36,51.81 240.77,56.00 241.17,51.67 241.58,51.67 241.99,51.67 242.39,47.66 242.80,47.66 243.20,53.61 243.61,51.33 244.02,51.33 244.42,50.61 244.83,43.02 245.24,43.02 245.64,42.76 246.05,42.76 246.45,43.61 246.86,43.61 247.27,43.61 247.67,43.79 248.08,43.79 248.48,43.79 248.89,44.09 249.30,44.09 249.70,43.60 250.11,43.60 250.51,35.45 250.92,35.34 251.33,35.34 251.73,35.34 252.14,34.42 252.55,34.42 252.95,34.42 253.36,34.42 253.76,33.60 254.17,33.60 254.58,33.60 254.98,31.95 255.39,31.95 255.79,31.95 256.20,31.95 256.61,30.06 257.01,30.06 257.42,30.06 257.82,31.29 258.23,31.29 258.64,31.29 259.04,28.67 259.45,28.67 259.86,28.67 260.26,28.67 260.67,26.09 261.07,26.09 261.48,26.09 261.89,20.02 262.29,20.02 262.70,20.02 263.10,20.02 263.51,20.15 263.92,20.15 264.32,20.15 264.73,25.71 265.13,18.34 265.54,18.34 265.95,21.87 266.35,21.87 266.76,21.87 267.17,24.31 267.57,24.31 267.98,24.02 268.38,24.02 268.79,24.02 269.20,18.79 269.60,18.79 270.01,18.79 270.41,22.26 270.82,22.26 271.23,20.63 271.63,20.63 272.04,20.63 272.45,20.63 272.85,25.73 273.26,25.73 273.66,20.63 274.07,26.28 274.48,26.28 274.88,26.28 275.29,22.96 275.69,22.96 276.10,28.28 276.51,24.25 276.91,24.25 277.32,24.25 277.72,20.54 278.13,20.54 278.54,22.49 278.94,22.49 279.35,21.74 279.76,21.74 280.16,22.32 280.57,22.32 280.97,22.32 281.38,21.95 281.79,21.95 282.19,21.95 282.60,21.40 283.00,21.40 283.41,20.93 283.82,20.93 284.22,20.93 284.63,20.22 285.03,20.22 285.44,17.99 285.85,17.05 286.25,17.05 286.66,16.40 287.07,16.40 287.47,16.40 287.88,15.84 288.28,15.84 288.69,15.84 289.10,16.72 289.50,16.72 289.91,14.10 290.31,14.10 290.72,14.10 291.13,11.53 291.53,11.53 291.94,11.53 292.34,10.24 292.75,10.24 293.16,10.24 293.56,10.24 293.97,6.90 294.38,6.90 294.78,6.90 295.19,4.00 295.59,4.00 296.00,4.00" />
</svg>