<svg width="300" height="60" xmlns="http://www.w3.org/2000/svg">
  <polyline fill="rgba(255,200,0,0.3)" stroke="#ffbb00" stroke-width="2" points="4.00,52.23 4.40,50.38 4.81,49.19 5.21,48.93 5.61,48.71 6.02,48.75 6.42,49.73 6.82,51.00 7.23,51.59 7.63,51.41 8.03,51.66 8.44,52.41 8.84,52.32 9.24,51.15 9.65,49.40 10.05,47.20 10.45,45.32 10.86,44.70 11.26,45.06 11.66,46.08 12.07,45.87 12.47,45.71 12.87,46.42 13.28,47.43 13.68,47.96 14.08,48.27 14.49,48.82 14.89,50.72 15.29,49.12 15.70,47.75 16.10,47.68 16.50,48.59 16.91,48.94 17.31,49.20 17.71,48.73 18.12,47.92 18.52,47.74 18.92,47.44 19.33,47.07 19.73,46.62 20.13,46.15 20.54,45.62 20.94,44.06 21.34,42.56 21.75,41.69 22.15,40.89 22.55,40.30 22.96,39.88 23.36,39.45 23.76,39.49 24.17,40.31 24.57,40.93 24.97,40.64 25.38,39.32 25.78,38.24 26.18,37.21 26.59,36.74 26.99,36.22 27.39,35.49 27.80,34.82 28.20,34.67 28.60,34.39 29.01,33.85 29.41,33.15 29.81,32.95 30.22,32.65 30.62,32.23 31.02,31.30 31.43,31.13 31.83,30.91 32.23,30.65 32.64,30.10 33.04,29.30 33.44,29.09 33.85,29.48 34.25,29.76 34.65,29.58 35.06,27.81 35.46,27.48 35.86,26.22 36.27,25.67 36.67,26.69 37.07,26.94 37.48,26.33 37.88,25.58 38.28,25.03 38.69,24.91 39.09,25.41 39.49,24.25 39.90,22.64 40.30,22.04 40.70,21.66 41.10,21.57 41.51,21.85 41.91,21.32 42.31,20.27 42.72,19.77 43.12,18.72 43.52,18.15 43.93,18.00 44.33,18.42 44.73,18.98 45.14,19.18 45.54,19.15 45.94,19.15 46.35,18.69 46.75,17.85 47.15,17.51 47.56,17.89 47.96,17.68 48.36,16.76 48.77,15.77 49.17,16.01 49.57,16.37 49.98,16.20 50.38,15.51 50.78,15.08 51.19,15.12 51.59,14.51 51.99,13.76 52.40,13.35 52.80,12.85 53.20,12.88 53.61,12.89 54.01,12.67 54.41,12.14 54.82,10.82 55.22,9.40 55.62,8.65 56.03,8.12 56.43,7.28 56.83,6.51 57.24,6.09 57.64,6.36 58.04,7.28 58.45,8.37 58.85,9.02 59.25,8.96 59.66,7.90 60.06,9.12 60.46,10.77 60.87,10.81 61.27,10.51 61.67,9.28 62.08,30.68 62.48,30.30 62.88,29.28 63.29,28.86 63.69,29.53 64.09,29.81 64.50,29.52 64.90,27.60 65.30,27.34 65.71,26.18 66.11,25.59 66.51,26.54 66.92,18.68 67.32,18.09 67.72,17.50 68.13,17.82 68.53,17.86 68.93,16.71 69.34,15.78 69.74,16.06 70.14,16.44 70.55,16.14 70.95,15.45 71.35,14.95 71.76,15.09 72.16,14.60 72.56,14.01 72.97,13.35 73.37,12.99 73.77,12.80 74.18,12.92 74.58,12.65 74.98,12.13 75.39,10.88 75.79,9.43 76.19,8.68 76.60,8.07 77.00,7.22 77.40,6.52 77.81,6.25 78.21,6.56 78.61,7.41 79.02,8.36 79.42,9.07 79.82,8.97 80.23,8.07 80.63,9.08 81.03,10.74 81.44,10.81 81.84,10.60 82.24,9.31 82.65,52.24 83.05,50.27 83.45,49.18 83.86,48.97 84.26,48.72 84.66,48.67 85.07,49.80 85.47,50.96 85.87,51.58 86.28,51.31 86.68,51.77 87.08,52.36 87.49,52.31 87.89,51.04 88.29,49.40 88.70,47.06 89.10,45.33 89.50,44.63 89.91,45.17 90.31,46.05 90.71,45.83 91.12,45.74 91.52,46.59 91.92,47.37 92.33,47.93 92.73,48.39 93.13,48.80 93.54,50.68 93.94,49.18 94.34,47.74 94.75,47.71 95.15,48.65 95.55,48.95 95.96,49.26 96.36,48.70 96.76,47.98 97.17,47.71 97.57,47.46 97.97,46.98 98.38,46.65 98.78,46.10 99.18,45.63 99.59,44.24 99.99,42.57 100.39,41.61 100.80,41.07 101.20,40.37 101.60,39.81 102.01,39.47 102.41,39.75 102.81,40.31 103.22,40.92 103.62,40.69 104.02,39.24 104.43,38.22 104.83,37.21 105.23,36.72 105.64,36.22 106.04,35.59 106.44,34.81 106.85,34.69 107.25,34.38 107.65,33.89 108.06,33.16 108.46,32.91 108.86,32.67 109.27,32.21 109.67,31.33 110.07,31.04 110.48,30.87 110.88,30.67 111.28,26.54 111.69,26.99 112.09,26.28 112.49,25.57 112.90,25.03 113.30,24.95 113.70,25.54 114.10,24.37 114.51,22.60 114.91,21.97 115.31,21.62 115.72,21.58 116.12,21.76 116.52,21.40 116.93,20.25 117.33,19.77 117.73,18.91 118.14,18.16 118.54,17.97 118.94,18.44 119.35,19.07 119.75,19.18 120.15,19.15 120.56,19.14 120.96,18.68 121.36,18.09 121.77,17.50 122.17,52.13 122.57,50.06 122.98,49.53 123.38,48.74 123.78,49.10 124.19,48.90 124.59,49.84 124.99,51.02 125.40,51.56 125.80,51.25 126.20,51.54 126.61,52.51 127.01,52.38 127.41,51.05 127.82,49.46 128.22,47.09 128.62,45.52 129.03,45.08 129.43,45.05 129.83,45.48 130.24,45.88 130.64,45.63 131.04,47.18 131.45,47.57 131.85,47.96 132.25,48.45 132.66,49.50 133.06,50.84 133.46,49.36 133.87,47.64 134.27,47.76 134.67,48.60 135.08,48.97 135.48,49.28 135.88,48.76 136.29,47.80 136.69,47.77 137.09,47.47 137.50,47.12 137.90,46.68 138.30,46.51 138.71,45.72 139.11,43.91 139.51,42.91 139.92,41.75 140.32,41.24 140.72,40.51 141.13,40.01 141.53,39.68 141.93,39.93 142.34,40.08 142.74,40.83 143.14,40.81 143.55,39.35 143.95,38.09 144.35,37.33 144.76,36.76 145.16,36.23 145.56,35.60 145.97,34.76 146.37,34.66 146.77,34.40 147.18,33.93 147.58,32.74 147.98,32.97 148.39,32.73 148.79,32.32 149.19,31.26 149.60,30.67 150.00,31.02 150.40,30.81 150.81,30.43 151.21,29.44 151.61,28.63 152.02,28.98 152.42,29.78 152.82,29.68 153.23,27.54 153.63,27.37 154.03,26.23 154.44,25.78 154.84,26.68 155.24,26.86 155.65,26.42 156.05,25.65 156.45,25.03 156.86,25.14 157.26,25.87 157.66,24.50 158.07,22.60 158.47,22.24 158.87,21.66 159.28,21.59 159.68,21.43 160.08,21.50 160.49,20.32 160.89,19.84 161.29,19.00 161.70,17.90 162.10,18.13 162.50,18.35 162.91,19.12 163.31,18.98 163.71,19.17 164.12,19.14 164.52,17.99 164.92,17.85 165.33,17.61 165.73,18.10 166.13,18.00 166.54,16.75 166.94,15.82 167.34,15.64 167.75,16.41 168.15,16.39 168.55,15.63 168.96,14.70 169.36,14.68 169.76,14.83 170.17,13.66 170.57,12.78 170.97,13.41 171.38,12.81 171.78,12.83 172.18,12.58 172.59,12.18 172.99,11.14 173.39,9.53 173.80,8.50 174.20,8.40 174.60,7.47 175.01,6.39 175.41,6.22 175.81,6.51 176.22,6.95 176.62,8.28 177.02,8.94 177.43,8.75 177.83,8.20 178.23,9.19 178.64,10.74 179.04,10.76 179.44,10.69 179.85,8.78 180.25,51.95 180.65,49.65 181.06,50.06 181.46,48.82 181.86,49.71 182.27,48.46 182.67,49.87 183.07,50.38 183.48,51.85 183.88,52.25 184.28,51.94 184.69,52.91 185.09,51.87 185.49,51.23 185.90,49.64 186.30,46.91 186.70,46.27 187.10,45.40 187.51,46.09 187.91,44.76 188.31,46.57 188.72,46.32 189.12,46.85 189.52,49.16 189.93,47.59 190.33,47.86 190.73,49.95 191.14,49.63 191.54,49.51 191.94,48.03 192.35,48.18 192.75,48.41 193.15,49.34 193.56,49.14 193.96,48.70 194.36,48.23 194.77,47.69 195.17,47.32 195.57,46.74 195.98,46.78 196.38,45.77 196.78,44.81 197.19,43.10 197.59,43.30 197.99,42.64 198.40,42.15 198.80,41.65 199.20,41.08 199.61,40.92 200.01,40.73 200.41,40.48 200.82,40.12 201.22,40.40 201.62,39.34 202.03,38.16 202.43,37.44 202.83,36.98 203.24,35.44 203.64,35.19 204.04,34.41 204.45,34.74 204.85,34.20 205.25,32.82 205.66,32.29 206.06,33.49 206.46,32.54 206.87,32.94 207.27,31.66 207.67,31.41 208.08,31.20 208.48,30.88 208.88,30.37 209.29,29.67 209.69,27.67 210.09,29.32 210.50,28.99 210.90,29.31 211.30,27.26 211.71,26.43 212.11,26.43 212.51,25.09 212.92,24.98 213.32,26.70 213.72,26.45 214.13,25.08 214.53,24.16 214.93,25.74 215.34,24.91 215.74,23.39 216.14,23.29 216.55,21.63 216.95,21.06 217.35,22.26 217.76,21.60 218.16,20.87 218.56,20.29 218.97,19.99 219.37,18.67 219.77,17.68 220.18,18.54 220.58,17.74 220.98,18.86 221.39,19.32 221.79,18.80 222.19,19.23 222.60,17.97 223.00,17.01 223.40,17.71 223.81,17.49 224.21,18.24 224.61,17.06 225.02,16.43 225.42,15.47 225.82,16.21 226.23,16.28 226.63,14.93 227.03,15.53 227.44,14.78 227.84,14.03 228.24,13.21 228.65,12.02 229.05,13.91 229.45,13.60 229.86,13.49 230.26,13.18 230.66,12.20 231.07,11.59 231.47,9.64 231.87,9.07 232.28,9.08 232.68,7.52 233.08,6.08 233.49,7.60 233.89,6.88 234.29,6.37 234.70,8.53 235.10,9.94 235.50,8.70 235.91,8.00 236.31,9.02 236.71,9.43 237.12,9.27 237.52,10.50 237.92,8.59 238.33,56.00 238.73,49.88 239.13,51.76 239.54,51.76 239.94,51.76 240.34,51.76 240.75,54.88 241.15,50.94 241.55,53.19 241.96,53.19 242.36,53.19 242.76,53.76 243.17,53.76 243.57,53.76 243.97,49.33 244.38,48.18 244.78,48.18 245.18,48.18 245.59,50.04 245.99,50.04 246.39,50.04 246.80,50.04 247.20,50.58 247.60,50.58 248.01,50.58 248.41,50.58 248.81,50.06 249.22,48.46 249.62,48.46 250.02,49.12 250.43,49.12 250.83,49.12 251.23,48.55 251.64,48.55 252.04,48.55 252.44,47.61 252.85,47.61 253.25,45.75 253.65,45.75 254.06,47.95 254.46,44.50 254.86,44.50 255.27,44.50 255.67,42.00 256.07,42.00 256.48,42.00 256.88,40.62 257.28,40.62 257.69,39.46 258.09,39.46 258.49,39.46 258.90,37.70 259.30,35.97 259.70,35.97 260.10,35.97 260.51,34.31 260.91,34.31 261.31,34.31 261.72,34.90 262.12,34.90 262.52,34.90 262.93,33.70 263.33,33.70 263.73,33.70 264.14,33.70 264.54,30.86 264.94,36.45 265.35,34.18 265.75,34.18 266.15,34.18 266.56,31.32 266.96,31.32 267.36,31.32 267.77,27.88 268.17,27.88 268.57,27.88 268.98,23.84 269.38,23.84 269.78,23.84 270.19,23.84 270.59,21.99 270.99,21.99 271.40,21.99 271.80,26.60 272.20,23.63 272.61,23.63 273.01,23.63 273.41,20.51 273.82,20.51 274.22,20.51 274.62,21.96 275.03,18.52 275.43,18.52 275.83,18.52 276.24,18.52 276.64,17.69 277.04,17.69 277.45,17.69 277.85,19.78 278.25,19.78 278.66,17.58 279.06,17.58 279.46,20.26 279.87,20.26 280.27,16.84 280.67,16.84 281.08,16.84 281.48,18.96 281.88,15.82 282.29,15.82 282.69,15.82 283.09,19.08 283.50,16.19 283.90,16.19 284.30,16.19 284.71,12.96 285.11,19.37 285.51,19.37 285.92,17.22 286.32,17.22 286.72,15.96 287.13,15.96 287.53,15.96 287.93,13.16 288.34,13.16 288.74,13.16 289.14,7.80 289.55,7.80 289.95,12.68 290.35,8.77 290.76,8.77 291.16,8.77 291.56,6.38 291.97,6.38 292.37,6.38 292.77,9.43 293.18,9.43 293.58,9.43 293.98,4.00 294.39,4.27 294.79,4.27 295.19,8.84 295.60,8.84 296.00,4.61" />
</svg>