<svg width="300" height="60" xmlns="http://www.w3.org/2000/svg">
  <polyline fill="rgba(255,200,0,0.3)" stroke="#ffbb00" stroke-width="2" points="4.00,5.50 4.82,5.88 5.65,6.47 6.47,6.72 7.29,7.05 8.11,7.86 8.94,8.41 9.76,8.68 10.58,8.90 11.40,9.09 12.23,9.22 13.05,9.45 13.87,9.46 14.69,9.66 15.52,9.43 16.34,9.88 17.16,10.28 17.98,10.41 18.81,10.60 19.63,10.56 20.45,11.72 21.27,12.70 22.10,14.22 22.92,15.22 23.74,16.40 24.56,17.47 25.39,18.22 26.21,18.93 27.03,20.13 27.85,21.17 28.68,21.73 29.50,23.17 30.32,23.90 31.14,24.21 31.97,25.24 32.79,26.08 33.61,26.70 34.43,27.34 35.26,28.83 36.08,29.83 36.90,31.01 37.72,32.06 38.55,32.88 39.37,33.45 40.19,33.99 41.01,34.23 41.84,34.37 42.66,34.51 43.48,34.75 44.30,34.81 45.13,34.36 45.95,33.84 46.77,34.39 47.59,35.43 48.42,36.09 49.24,35.91 50.06,35.88 50.88,36.74 51.71,37.38 52.53,38.22 53.35,38.79 54.17,39.05 55.00,39.47 55.82,39.71 56.64,39.94 57.46,39.13 58.29,39.88 59.11,40.32 59.93,41.00 60.75,41.23 61.58,41.20 62.40,41.75 63.22,43.51 64.05,44.70 64.87,45.37 65.69,45.53 66.51,46.13 67.34,46.31 68.16,47.11 68.98,48.25 69.80,49.37 70.63,50.11 71.45,51.14 72.27,51.88 73.09,52.51 73.92,53.45 74.74,54.09 75.56,54.79 76.38,55.90 77.21,5.53 78.03,5.94 78.85,6.40 79.67,6.85 80.50,6.96 81.32,7.78 82.14,8.34 82.96,8.63 83.79,8.87 84.61,9.13 85.43,9.41 86.25,9.69 87.08,9.36 87.90,9.61 88.72,9.41 89.54,9.59 90.37,10.18 91.19,10.43 92.01,10.65 92.83,10.46 93.66,11.19 94.48,12.49 95.30,13.62 96.12,14.70 96.95,16.05 97.77,17.29 98.59,18.65 99.41,19.11 100.24,19.96 101.06,21.20 101.88,21.91 102.70,22.82 103.53,23.44 104.35,24.23 105.17,24.99 105.99,25.86 106.82,26.49 107.64,27.15 108.46,28.31 109.28,29.53 110.11,30.72 110.93,31.62 111.75,32.75 112.57,33.38 113.40,33.96 114.22,34.38 115.04,34.86 115.86,35.21 116.69,35.36 117.51,34.92 118.33,34.60 119.15,33.95 119.98,34.65 120.80,35.29 121.62,36.74 122.45,36.67 123.27,36.20 124.09,36.65 124.91,37.18 125.74,38.13 126.56,38.46 127.38,38.90 128.20,39.32 129.03,39.72 129.85,39.95 130.67,39.48 131.49,39.96 132.32,40.64 133.14,41.16 133.96,41.68 134.78,41.96 135.61,42.26 136.43,43.74 137.25,45.16 138.07,45.43 138.90,46.23 139.72,46.37 140.54,46.31 141.36,46.96 142.19,48.55 143.01,49.37 143.83,50.21 144.65,50.98 145.48,51.98 146.30,52.80 147.12,53.80 147.94,54.17 148.77,55.07 149.59,56.00 150.41,5.60 151.23,4.60 152.06,5.08 152.88,6.25 153.70,5.64 154.52,8.00 155.35,8.13 156.17,8.78 156.99,8.80 157.81,9.00 158.64,9.26 159.46,9.37 160.28,9.94 161.10,9.68 161.93,9.63 162.75,10.09 163.57,9.91 164.39,10.31 165.22,10.59 166.04,10.57 166.86,11.13 167.68,12.01 168.51,13.05 169.33,14.30 170.15,16.19 170.97,16.43 171.80,17.11 172.62,18.81 173.44,19.44 174.26,20.50 175.09,20.50 175.91,21.72 176.73,23.22 177.55,21.88 178.38,23.60 179.20,25.51 180.02,25.40 180.85,27.10 181.67,28.73 182.49,29.65 183.31,30.34 184.14,31.16 184.96,33.21 185.78,33.75 186.60,34.03 187.43,34.08 188.25,34.42 189.07,34.77 189.89,34.77 190.72,34.79 191.54,34.36 192.36,32.31 193.18,33.53 194.01,32.58 194.83,35.40 195.65,36.62 196.47,34.43 197.30,35.97 198.12,35.53 198.94,37.80 199.76,38.54 200.59,39.04 201.41,39.31 202.23,39.82 203.05,39.86 203.88,39.39 204.70,40.45 205.52,41.49 206.34,41.71 207.17,41.71 207.99,41.97 208.81,40.91 209.63,42.55 210.46,43.97 211.28,45.08 212.10,47.23 212.92,45.01 213.75,45.01 214.57,48.21 215.39,49.86 216.21,48.04 217.04,50.12 217.86,50.46 218.68,52.15 219.50,52.60 220.33,53.54 221.15,54.46 221.97,55.20 222.79,55.81 223.62,4.00 224.44,4.00 225.26,6.15 226.08,6.15 226.91,6.15 227.73,10.63 228.55,10.63 229.37,10.63 230.20,15.87 231.02,10.55 231.84,10.55 232.66,10.55 233.49,10.95 234.31,12.03 235.13,12.03 235.95,12.03 236.78,13.21 237.60,13.21 238.42,13.82 239.25,13.82 240.07,13.82 240.89,16.21 241.71,16.21 242.54,16.21 243.36,18.06 244.18,18.06 245.00,18.06 245.83,18.06 246.65,18.72 247.47,18.72 248.29,18.72 249.12,18.72 249.94,25.27 250.76,20.96 251.58,20.96 252.41,25.66 253.23,25.66 254.05,30.08 254.87,30.08 255.70,30.08 256.52,32.84 257.34,32.84 258.16,35.19 258.99,35.19 259.81,35.19 260.63,37.41 261.45,37.41 262.28,37.41 263.10,37.41 263.92,32.23 264.74,32.23 265.57,32.23 266.39,31.00 267.21,31.00 268.03,34.92 268.86,31.70 269.68,31.70 270.50,31.70 271.32,35.00 272.15,39.99 272.97,39.99 273.79,39.99 274.61,46.17 275.44,40.94 276.26,40.94 277.08,41.56 277.90,41.56 278.73,38.48 279.55,38.48 280.37,38.48 281.19,38.48 282.02,40.63 282.84,40.63 283.66,40.63 284.48,42.61 285.31,42.61 286.13,42.61 286.95,42.61 287.77,42.16 288.60,50.73 289.42,50.73 290.24,50.73 291.06,47.10 291.89,53.04 292.71,53.04 293.53,53.04 294.35,54.95 295.18,54.95 296.00,54.95" />
</svg>