<svg width="300" height="60" xmlns="http://www.w3.org/2000/svg">
  <polyline fill="rgba(255,200,0,0.3)" stroke="#ffbb00" stroke-width="2" points="4.00,4.59 4.38,4.00 4.76,4.27 5.14,4.74 5.52,4.91 5.90,5.93 6.28,5.84 6.66,6.37 7.04,6.54 7.42,7.08 7.80,7.42 8.18,8.03 8.56,9.11 8.94,10.58 9.32,11.48 9.70,13.08 10.08,14.25 10.46,15.40 10.83,16.19 11.21,16.32 11.59,16.96 11.97,17.94 12.35,18.56 12.73,18.38 13.11,18.89 13.49,19.11 13.87,19.02 14.25,17.99 14.63,17.02 15.01,16.39 15.39,16.42 15.77,15.57 16.15,15.14 16.53,14.66 16.91,14.77 17.29,15.18 17.67,15.89 18.05,16.77 18.43,17.78 18.81,18.32 19.19,18.68 19.57,19.52 19.95,19.46 20.33,19.59 20.71,20.20 21.09,21.23 21.47,22.17 21.85,22.42 22.23,22.48 22.61,22.56 22.99,22.45 23.37,23.16 23.75,23.33 24.12,24.65 24.50,26.06 24.88,27.58 25.26,27.54 25.64,28.39 26.02,30.40 26.40,30.62 26.78,31.62 27.16,32.90 27.54,33.49 27.92,34.27 28.30,35.07 28.68,35.41 29.06,35.81 29.44,36.33 29.82,37.18 30.20,37.67 30.58,37.76 30.96,37.09 31.34,36.13 31.72,35.37 32.10,34.52 32.48,34.00 32.86,32.93 33.24,31.57 33.62,30.38 34.00,29.99 34.38,30.41 34.76,30.99 35.14,31.08 35.52,30.10 35.90,28.07 36.28,26.75 36.66,25.46 37.04,24.26 37.41,23.02 37.79,22.03 38.17,21.37 38.55,21.25 38.93,21.25 39.31,21.70 39.69,22.12 40.07,22.41 40.45,22.59 40.83,22.50 41.21,22.22 41.59,23.82 41.97,25.59 42.35,28.01 42.73,30.03 43.11,29.10 43.49,29.18 43.87,30.01 44.25,30.53 44.63,31.83 45.01,32.61 45.39,34.31 45.77,36.19 46.15,37.28 46.53,38.12 46.91,38.61 47.29,39.29 47.67,40.24 48.05,40.50 48.43,40.65 48.81,40.94 49.19,40.97 49.57,40.71 49.95,40.88 50.33,40.88 50.70,41.08 51.08,41.65 51.46,41.11 51.84,40.50 52.22,39.84 52.60,39.38 52.98,38.81 53.36,38.49 53.74,37.54 54.12,36.57 54.50,34.87 54.88,33.49 55.26,32.12 55.64,30.68 56.02,29.65 56.40,28.41 56.78,27.87 57.16,27.09 57.54,27.34 57.92,27.20 58.30,26.34 58.68,25.40 59.06,24.07 59.44,22.80 59.82,21.28 60.20,20.14 60.58,19.13 60.96,18.54 61.34,18.18 61.72,17.56 62.10,16.88 62.48,4.55 62.86,4.02 63.24,4.28 63.62,4.72 63.99,4.93 64.37,6.26 64.75,5.74 65.13,6.37 65.51,6.58 65.89,7.02 66.27,7.39 66.65,7.92 67.03,9.54 67.41,10.64 67.79,11.44 68.17,12.86 68.55,14.26 68.93,15.36 69.31,16.18 69.69,16.32 70.07,17.00 70.45,18.52 70.83,18.57 71.21,18.44 71.59,18.77 71.97,19.20 72.35,18.85 72.73,17.99 73.11,17.01 73.49,16.39 73.87,16.37 74.25,15.58 74.63,15.10 75.01,14.71 75.39,14.80 75.77,15.35 76.15,15.90 76.53,16.87 76.91,17.74 77.28,18.20 77.66,18.64 78.04,19.68 78.42,19.71 78.80,19.60 79.18,20.27 79.56,21.15 79.94,22.17 80.32,22.27 80.70,22.54 81.08,22.49 81.46,22.48 81.84,23.13 82.22,23.33 82.60,24.46 82.98,26.32 83.36,27.32 83.74,27.55 84.12,28.15 84.50,30.38 84.88,30.74 85.26,31.70 85.64,32.90 86.02,33.54 86.40,34.27 86.78,35.04 87.16,35.39 87.54,35.84 87.92,36.28 88.30,37.15 88.68,37.66 89.06,37.75 89.44,37.17 89.82,36.12 90.20,35.44 90.57,34.49 90.95,33.95 91.33,32.92 91.71,31.65 92.09,30.41 92.47,30.03 92.85,30.42 93.23,31.00 93.61,31.00 93.99,30.08 94.37,28.01 94.75,26.83 95.13,25.61 95.51,24.35 95.89,23.02 96.27,22.01 96.65,21.46 97.03,21.50 97.41,21.28 97.79,21.66 98.17,22.17 98.55,22.38 98.93,22.58 99.31,22.42 99.69,22.38 100.07,23.69 100.45,25.63 100.83,27.92 101.21,30.14 101.59,29.23 101.97,29.15 102.35,30.13 102.73,30.55 103.11,31.72 103.49,32.58 103.86,34.38 104.24,36.31 104.62,37.25 105.00,38.01 105.38,38.66 105.76,39.36 106.14,40.25 106.52,40.52 106.90,40.59 107.28,41.09 107.66,41.14 108.04,40.71 108.42,40.89 108.80,40.91 109.18,41.09 109.56,41.52 109.94,41.14 110.32,40.51 110.70,39.90 111.08,39.40 111.46,38.78 111.84,38.35 112.22,37.51 112.60,36.52 112.98,35.21 113.36,33.45 113.74,32.05 114.12,30.87 114.50,29.61 114.88,28.43 115.26,27.80 115.64,27.21 116.02,27.25 116.40,27.16 116.78,26.34 117.15,25.44 117.53,24.10 117.91,22.68 118.29,21.25 118.67,20.12 119.05,19.11 119.43,18.51 119.81,18.20 120.19,17.55 120.57,16.90 120.95,4.43 121.33,4.09 121.71,4.05 122.09,4.61 122.47,4.81 122.85,5.65 123.23,5.99 123.61,6.08 123.99,7.28 124.37,7.11 124.75,7.45 125.13,8.16 125.51,9.22 125.89,10.99 126.27,11.37 126.65,12.92 127.03,14.22 127.41,15.39 127.79,15.97 128.17,16.35 128.55,16.97 128.93,17.62 129.31,18.20 129.69,18.34 130.07,18.54 130.44,19.83 130.82,19.45 131.20,18.01 131.58,17.04 131.96,16.45 132.34,16.32 132.72,15.72 133.10,15.04 133.48,14.66 133.86,14.76 134.24,15.79 134.62,15.94 135.00,16.93 135.38,17.44 135.76,18.30 136.14,18.43 136.52,20.04 136.90,19.66 137.28,19.56 137.66,20.18 138.04,21.23 138.42,22.01 138.80,22.45 139.18,22.49 139.56,22.64 139.94,22.51 140.32,23.23 140.70,23.29 141.08,24.43 141.46,26.55 141.84,27.12 142.22,27.39 142.60,28.83 142.98,30.12 143.36,30.56 143.73,31.45 144.11,32.72 144.49,33.40 144.87,34.39 145.25,35.11 145.63,35.55 146.01,35.85 146.39,36.68 146.77,37.16 147.15,37.64 147.53,37.66 147.91,37.35 148.29,36.42 148.67,35.46 149.05,34.54 149.43,33.86 149.81,32.90 150.19,32.02 150.57,30.51 150.95,30.17 151.33,30.40 151.71,30.92 152.09,31.04 152.47,30.59 152.85,28.57 153.23,26.66 153.61,26.05 153.99,24.06 154.37,23.06 154.75,22.07 155.13,21.52 155.51,21.17 155.89,21.44 156.27,21.61 156.64,22.06 157.02,22.44 157.40,22.78 157.78,22.56 158.16,22.84 158.54,22.87 158.92,25.76 159.30,27.82 159.68,29.74 160.06,28.85 160.44,29.27 160.82,29.75 161.20,30.68 161.58,32.01 161.96,32.32 162.34,34.10 162.72,36.26 163.10,37.02 163.48,38.32 163.86,38.71 164.24,39.40 164.62,40.30 165.00,40.68 165.38,40.68 165.76,41.20 166.14,40.93 166.52,40.65 166.90,40.93 167.28,40.75 167.66,40.95 168.04,41.43 168.42,41.32 168.80,40.50 169.18,39.84 169.56,39.26 169.93,38.75 170.31,38.48 170.69,37.34 171.07,36.59 171.45,35.15 171.83,33.64 172.21,31.96 172.59,30.52 172.97,29.67 173.35,28.47 173.73,27.83 174.11,27.14 174.49,27.24 174.87,27.31 175.25,26.49 175.63,25.51 176.01,23.90 176.39,22.67 176.77,21.40 177.15,20.14 177.53,19.08 177.91,18.52 178.29,18.28 178.67,17.70 179.05,17.11 179.43,6.31 179.81,8.43 180.19,5.15 180.57,9.80 180.95,7.82 181.33,13.30 181.71,10.51 182.09,4.96 182.47,9.25 182.85,9.93 183.22,7.50 183.60,10.62 183.98,10.20 184.36,10.44 184.74,10.57 185.12,15.51 185.50,15.64 185.88,15.99 186.26,15.88 186.64,15.81 187.02,16.47 187.40,17.56 187.78,17.56 188.16,18.56 188.54,19.93 188.92,22.05 189.30,19.00 189.68,20.20 190.06,17.08 190.44,18.77 190.82,17.23 191.20,13.49 191.58,13.79 191.96,16.25 192.34,14.78 192.72,13.62 193.10,12.48 193.48,19.71 193.86,19.06 194.24,17.59 194.62,18.41 195.00,22.41 195.38,20.46 195.76,19.24 196.14,22.53 196.51,20.06 196.89,22.43 197.27,21.02 197.65,19.69 198.03,24.14 198.41,23.78 198.79,25.22 199.17,20.84 199.55,22.21 199.93,24.02 200.31,26.15 200.69,27.59 201.07,29.77 201.45,31.93 201.83,26.14 202.21,26.27 202.59,27.92 202.97,30.49 203.35,32.63 203.73,34.61 204.11,35.23 204.49,31.26 204.87,35.20 205.25,34.59 205.63,35.93 206.01,36.78 206.39,37.09 206.77,38.40 207.15,35.63 207.53,30.80 207.91,29.80 208.29,33.30 208.67,30.59 209.05,28.77 209.43,29.45 209.80,27.95 210.18,27.12 210.56,30.72 210.94,30.14 211.32,27.64 211.70,29.08 212.08,24.25 212.46,23.09 212.84,27.27 213.22,24.87 213.60,21.00 213.98,22.12 214.36,22.12 214.74,24.52 215.12,23.94 215.50,24.04 215.88,24.28 216.26,21.61 216.64,23.15 217.02,23.53 217.40,26.51 217.78,26.34 218.16,31.10 218.54,31.65 218.92,30.89 219.30,27.40 219.68,30.58 220.06,32.06 220.44,33.94 220.82,32.67 221.20,35.83 221.58,37.33 221.96,37.16 222.34,41.27 222.72,41.49 223.09,42.52 223.47,43.65 223.85,40.53 224.23,43.58 224.61,38.72 224.99,38.27 225.37,42.86 225.75,39.98 226.13,41.76 226.51,40.77 226.89,42.65 227.27,42.20 227.65,39.36 228.03,38.13 228.41,40.97 228.79,40.41 229.17,36.20 229.55,35.24 229.93,31.23 230.31,32.60 230.69,29.55 231.07,32.23 231.45,30.20 231.83,28.60 232.21,27.16 232.59,27.50 232.97,28.29 233.35,28.02 233.73,25.48 234.11,24.49 234.49,25.62 234.87,23.39 235.25,19.14 235.63,18.46 236.01,19.21 236.38,18.01 236.76,17.19 237.14,17.60 237.52,17.02 237.90,13.15 238.28,13.15 238.66,13.15 239.04,28.16 239.42,28.16 239.80,28.16 240.18,21.48 240.56,21.48 240.94,21.48 241.32,21.48 241.70,8.22 242.08,23.26 242.46,23.26 242.84,21.17 243.22,21.17 243.60,21.17 243.98,20.88 244.36,20.88 244.74,20.88 245.12,21.16 245.50,21.16 245.88,21.16 246.26,21.16 246.64,23.90 247.02,23.90 247.40,23.90 247.78,28.83 248.16,28.83 248.54,13.55 248.92,19.38 249.30,19.38 249.67,19.38 250.05,6.49 250.43,19.17 250.81,19.17 251.19,13.93 251.57,13.93 251.95,13.93 252.33,10.30 252.71,10.30 253.09,10.30 253.47,29.86 253.85,17.11 254.23,17.11 254.61,27.08 254.99,27.08 255.37,18.01 255.75,18.01 256.13,18.01 256.51,13.45 256.89,13.45 257.27,13.55 257.65,13.55 258.03,13.55 258.41,16.95 258.79,16.95 259.17,16.95 259.55,21.37 259.93,21.37 260.31,25.58 260.69,25.58 261.07,25.58 261.45,29.31 261.83,29.31 262.21,33.77 262.59,33.77 262.96,13.04 263.34,23.18 263.72,23.18 264.10,23.18 264.48,29.79 264.86,29.79 265.24,29.79 265.62,27.19 266.00,27.19 266.38,17.46 266.76,33.90 267.14,33.90 267.52,25.92 267.90,25.92 268.28,25.92 268.66,16.32 269.04,30.20 269.42,30.20 269.80,30.20 270.18,28.07 270.56,28.07 270.94,41.33 271.32,41.33 271.70,26.53 272.08,26.53 272.46,41.64 272.84,41.64 273.22,30.30 273.60,30.30 273.98,30.30 274.36,28.79 274.74,28.79 275.12,28.79 275.50,24.13 275.88,24.13 276.25,24.13 276.63,24.13 277.01,31.53 277.39,31.53 277.77,31.53 278.15,31.53 278.53,42.08 278.91,42.08 279.29,26.36 279.67,34.35 280.05,34.35 280.43,34.35 280.81,52.75 281.19,52.75 281.57,52.75 281.95,56.00 282.33,38.97 282.71,38.97 283.09,38.97 283.47,47.98 283.85,47.98 284.23,34.72 284.61,34.72 284.99,34.72 285.37,40.78 285.75,40.78 286.13,40.78 286.51,29.44 286.89,40.54 287.27,40.54 287.65,40.54 288.03,27.28 288.41,27.28 288.79,40.50 289.17,29.54 289.54,29.54 289.92,29.54 290.30,22.18 290.68,22.18 291.06,19.98 291.44,19.98 291.82,19.98 292.20,18.13 292.58,18.13 292.96,30.88 293.34,30.88 293.72,16.66 294.10,16.66 294.48,25.27 294.86,17.86 295.24,17.86 295.62,17.86 296.00,14.64" />
</svg>