<svg width="300" height="60" xmlns="http://www.w3.org/2000/svg">
  <polyline fill="rgba(255,200,0,0.3)" stroke="#ffbb00" stroke-width="2" points="4.00,55.44 4.67,54.88 5.34,52.34 6.01,50.73 6.68,48.90 7.35,46.48 8.02,44.50 8.69,40.83 9.36,37.24 10.03,34.72 10.70,30.80 11.37,28.12 12.04,25.05 12.71,22.28 13.38,19.54 14.05,17.78 14.72,17.71 15.39,19.84 16.06,23.19 16.72,24.83 17.39,26.18 18.06,28.15 18.73,29.71 19.40,32.31 20.07,34.80 20.74,36.05 21.41,37.62 22.08,37.61 22.75,38.07 23.42,37.16 24.09,35.91 24.76,31.33 25.43,32.79 26.10,30.47 26.77,28.14 27.44,25.92 28.11,20.92 28.78,18.18 29.45,15.26 30.12,13.13 30.79,10.59 31.46,8.22 32.13,7.27 32.80,7.27 33.47,6.58 34.14,11.31 34.81,15.04 35.48,19.99 36.15,25.23 36.82,29.01 37.49,29.73 38.16,31.21 38.83,31.99 39.50,33.23 40.17,34.46 40.83,35.86 41.50,34.14 42.17,34.58 42.84,33.15 43.51,31.79 44.18,31.66 44.85,31.79 45.52,29.34 46.19,26.32 46.86,23.98 47.53,21.29 48.20,19.23 48.87,17.88 49.54,16.74 50.21,15.10 50.88,15.16 51.55,14.59 52.22,14.13 52.89,13.33 53.56,16.11 54.23,17.74 54.90,20.27 55.57,23.18 56.24,25.05 56.91,27.27 57.58,27.26 58.25,29.61 58.92,30.60 59.59,31.54 60.26,32.88 60.93,32.97 61.60,33.65 62.27,34.25 62.94,34.58 63.61,34.80 64.28,33.76 64.94,33.46 65.61,33.52 66.28,33.94 66.95,33.99 67.62,34.49 68.29,35.61 68.96,33.86 69.63,33.62 70.30,33.57 70.97,35.86 71.64,38.73 72.31,41.49 72.98,43.62 73.65,44.84 74.32,47.28 74.99,47.29 75.66,47.68 76.33,49.24 77.00,51.10 77.67,56.00 78.34,53.13 79.01,51.24 79.68,50.07 80.35,47.57 81.02,44.64 81.69,43.47 82.36,39.53 83.03,37.07 83.70,33.40 84.37,30.19 85.04,26.88 85.71,24.01 86.38,21.54 87.05,20.02 87.72,18.68 88.39,19.14 89.06,20.75 89.72,22.97 90.39,23.24 91.06,25.17 91.73,26.84 92.40,29.17 93.07,28.99 93.74,34.95 94.41,36.20 95.08,37.01 95.75,37.74 96.42,37.69 97.09,36.80 97.76,35.54 98.43,33.51 99.10,31.63 99.77,30.74 100.44,26.46 101.11,23.86 101.78,20.73 102.45,16.01 103.12,14.76 103.79,12.16 104.46,10.26 105.13,8.38 105.80,6.95 106.47,8.42 107.14,8.60 107.81,13.25 108.48,15.95 109.15,20.93 109.82,24.87 110.49,27.19 111.16,29.66 111.83,31.24 112.50,32.40 113.17,33.20 113.83,33.92 114.50,34.77 115.17,34.36 115.84,34.27 116.51,33.37 117.18,31.76 117.85,28.58 118.52,30.17 119.19,27.04 119.86,23.19 120.53,19.17 121.20,19.34 121.87,15.07 122.54,15.34 123.21,16.07 123.88,14.91 124.55,14.22 125.22,13.86 125.89,14.10 126.56,14.67 127.23,13.78 127.90,16.81 128.57,16.63 129.24,22.09 129.91,21.35 130.58,26.45 131.25,26.09 131.92,29.31 132.59,29.67 133.26,29.37 133.93,32.32 134.60,32.14 135.27,33.73 135.94,34.36 136.61,34.25 137.28,34.55 137.94,34.19 138.61,33.34 139.28,33.43 139.95,33.96 140.62,34.03 141.29,34.12 141.96,35.02 142.63,34.63 143.30,33.89 143.97,34.69 144.64,36.19 145.31,36.10 145.98,40.40 146.65,43.36 147.32,45.06 147.99,46.09 148.66,49.42 149.33,50.41 150.00,50.98 150.67,54.77 151.34,49.49 152.01,51.01 152.68,48.82 153.35,45.24 154.02,43.27 154.69,43.27 155.36,40.23 156.03,35.31 156.70,33.52 157.37,30.93 158.04,28.06 158.71,25.26 159.38,20.97 160.05,19.53 160.72,18.37 161.39,18.37 162.06,19.71 162.72,18.10 163.39,20.79 164.06,23.74 164.73,21.50 165.40,26.32 166.07,28.91 166.74,30.97 167.41,35.35 168.08,35.17 168.75,37.50 169.42,37.59 170.09,38.31 170.76,34.46 171.43,34.46 172.10,32.58 172.77,28.37 173.44,26.85 174.11,22.02 174.78,19.78 175.45,14.31 176.12,13.24 176.79,10.29 177.46,8.94 178.13,6.08 178.80,6.61 179.47,6.16 180.14,7.68 180.81,11.17 181.48,15.65 182.15,15.65 182.82,19.94 183.49,22.27 184.16,27.19 184.83,30.37 185.50,33.05 186.17,32.60 186.83,34.04 187.50,35.11 188.17,36.54 188.84,35.02 189.51,34.04 190.18,31.62 190.85,31.17 191.52,28.71 192.19,24.59 192.86,22.80 193.53,21.73 194.20,21.90 194.87,14.80 195.54,14.62 196.21,15.05 196.88,15.58 197.55,15.41 198.22,12.45 198.89,14.42 199.56,15.85 200.23,15.49 200.90,17.66 201.57,18.46 202.24,21.78 202.91,23.92 203.58,30.10 204.25,29.29 204.92,36.36 205.59,32.61 206.26,30.37 206.93,34.93 207.60,32.71 208.27,36.83 208.94,35.13 209.61,34.77 210.28,33.16 210.94,29.76 211.61,31.71 212.28,30.99 212.95,33.49 213.62,35.02 214.29,34.03 214.96,34.30 215.63,37.07 216.30,33.58 216.97,35.91 217.64,29.91 218.31,34.12 218.98,32.78 219.65,38.59 220.32,41.55 220.99,43.46 221.66,45.07 222.33,47.78 223.00,49.30 223.67,55.96 224.34,55.96 225.01,55.96 225.68,49.70 226.35,47.01 227.02,47.01 227.69,47.01 228.36,47.01 229.03,41.20 229.70,41.20 230.37,41.20 231.04,33.50 231.71,33.50 232.38,23.93 233.05,19.00 233.72,19.00 234.39,19.00 235.06,20.08 235.72,20.08 236.39,16.41 237.06,16.41 237.73,16.41 238.40,24.65 239.07,24.65 239.74,24.65 240.41,24.65 241.08,24.65 241.75,38.43 242.42,38.43 243.09,38.43 243.76,33.42 244.43,33.42 245.10,33.42 245.77,33.42 246.44,28.23 247.11,28.23 247.78,28.23 248.45,12.86 249.12,12.86 249.79,12.86 250.46,11.52 251.13,11.52 251.80,11.52 252.47,4.00 253.14,8.03 253.81,8.03 254.48,8.03 255.15,8.03 255.82,19.48 256.49,19.48 257.16,19.48 257.83,31.39 258.50,31.39 259.17,33.71 259.83,33.71 260.50,40.25 261.17,40.25 261.84,37.28 262.51,37.28 263.18,36.03 263.85,31.38 264.52,31.38 265.19,31.38 265.86,29.14 266.53,29.14 267.20,28.06 267.87,28.06 268.54,28.06 269.21,23.68 269.88,23.68 270.55,23.68 271.22,10.61 271.89,10.61 272.56,15.45 273.23,15.45 273.90,15.45 274.57,26.36 275.24,26.36 275.91,10.19 276.58,28.49 277.25,28.49 277.92,28.49 278.59,54.09 279.26,26.16 279.93,26.16 280.60,43.79 281.27,43.79 281.94,43.79 282.61,46.93 283.28,36.19 283.94,36.19 284.61,32.16 285.28,32.16 285.95,32.16 286.62,46.30 287.29,37.53 287.96,37.53 288.63,37.53 289.30,49.79 289.97,49.79 290.64,30.19 291.31,30.19 291.98,35.92 292.65,35.92 293.32,35.92 293.99,36.72 294.66,36.72 295.33,36.10 296.00,45.05" />
</svg>