<svg width="300" height="60" xmlns="http://www.w3.org/2000/svg">
  <polyline fill="rgba(255,200,0,0.3)" stroke="#ffbb00" stroke-width="2" points="4.00,22.94 4.38,22.68 4.76,22.24 5.14,21.59 5.52,20.78 5.90,19.75 6.28,18.66 6.65,17.48 7.03,16.45 7.41,15.49 7.79,14.69 8.17,13.93 8.55,12.11 8.93,51.03 9.31,48.84 9.69,48.49 10.07,47.09 10.45,47.30 10.83,47.13 11.21,47.32 11.58,46.90 11.96,46.68 12.34,47.34 12.72,46.35 13.10,44.33 13.48,42.05 13.86,40.60 14.24,39.61 14.62,38.84 15.00,37.61 15.38,36.64 15.76,36.35 16.14,36.48 16.51,36.42 16.89,36.43 17.27,34.81 17.65,33.57 18.03,32.96 18.41,33.30 18.79,34.10 19.17,34.72 19.55,35.57 19.93,36.20 20.31,35.80 20.69,34.89 21.06,34.48 21.44,34.57 21.82,34.60 22.20,33.74 22.58,32.94 22.96,32.52 23.34,32.86 23.72,33.04 24.10,32.29 24.48,31.17 24.86,30.73 25.24,30.53 25.62,31.28 25.99,33.36 26.37,32.73 26.75,29.67 27.13,27.00 27.51,25.13 27.89,24.00 28.27,23.78 28.65,24.17 29.03,25.52 29.41,28.30 29.79,31.38 30.17,31.65 30.55,29.43 30.92,28.86 31.30,30.04 31.68,31.66 32.06,32.80 32.44,33.61 32.82,34.15 33.20,34.64 33.58,33.80 33.96,32.40 34.34,32.29 34.72,32.86 35.10,33.32 35.48,33.76 35.85,33.78 36.23,33.60 36.61,33.00 36.99,31.86 37.37,31.20 37.75,30.61 38.13,29.50 38.51,28.70 38.89,28.01 39.27,27.24 39.65,26.18 40.03,25.01 40.41,24.21 40.78,23.21 41.16,22.07 41.54,20.89 41.92,19.37 42.30,18.01 42.68,17.61 43.06,17.63 43.44,17.64 43.82,18.04 44.20,18.34 44.58,18.37 44.96,18.60 45.34,18.31 45.71,17.10 46.09,15.36 46.47,13.94 46.85,12.64 47.23,11.42 47.61,10.29 47.99,9.98 48.37,9.80 48.75,9.72 49.13,9.46 49.51,8.93 49.89,8.39 50.26,8.05 50.64,7.79 51.02,7.65 51.40,7.36 51.78,6.60 52.16,6.02 52.54,5.44 52.92,4.99 53.30,4.50 53.68,4.00 54.06,4.09 54.44,4.48 54.82,5.52 55.19,6.31 55.57,7.22 55.95,8.07 56.33,8.22 56.71,7.79 57.09,7.58 57.47,7.36 57.85,7.23 58.23,6.98 58.61,6.91 58.99,7.14 59.37,8.87 59.75,10.49 60.12,11.32 60.50,11.46 60.88,11.06 61.26,9.51 61.64,8.51 62.02,7.85 62.40,7.33 62.78,7.06 63.16,6.86 63.54,6.82 63.92,7.57 64.30,8.75 64.68,9.94 65.05,10.95 65.43,11.49 65.81,11.66 66.19,11.68 66.57,12.00 66.95,11.92 67.33,11.94 67.71,12.40 68.09,12.86 68.47,13.06 68.85,12.78 69.23,12.59 69.61,12.65 69.98,12.66 70.36,12.65 70.74,12.51 71.12,12.69 71.50,13.44 71.88,14.50 72.26,15.89 72.64,17.65 73.02,19.61 73.40,21.65 73.78,23.21 74.16,24.02 74.54,24.66 74.91,24.44 75.29,24.07 75.67,23.81 76.05,23.19 76.43,22.93 76.81,22.66 77.19,7.94 77.57,7.72 77.95,7.35 78.33,7.45 78.71,7.27 79.09,7.14 79.46,7.68 79.84,9.12 80.22,11.23 80.60,12.02 80.98,11.99 81.36,10.84 81.74,9.78 82.12,8.69 82.50,8.08 82.88,7.46 83.26,7.18 83.64,6.78 84.02,7.02 84.39,7.69 84.77,8.86 85.15,10.16 85.53,11.26 85.91,11.50 86.29,11.69 86.67,11.84 87.05,12.08 87.43,12.13 87.81,12.08 88.19,12.59 88.57,12.64 88.95,12.91 89.32,12.80 89.70,12.62 90.08,12.78 90.46,12.78 90.84,12.89 91.22,12.54 91.60,12.75 91.98,13.67 92.36,14.78 92.74,16.27 93.12,18.14 93.50,19.86 93.88,22.08 94.25,23.22 94.63,24.09 95.01,25.05 95.39,24.39 95.77,24.07 96.15,23.81 96.53,23.05 96.91,22.86 97.29,22.70 97.67,22.32 98.05,21.82 98.43,20.71 98.81,19.79 99.18,18.40 99.56,17.57 99.94,16.41 100.32,15.30 100.70,14.67 101.08,14.12 101.46,11.53 101.84,50.51 102.22,48.34 102.60,48.01 102.98,47.09 103.36,46.75 103.74,47.01 104.11,47.47 104.49,46.46 104.87,46.59 105.25,47.14 105.63,46.51 106.01,43.80 106.39,42.50 106.77,40.81 107.15,39.69 107.53,38.93 107.91,37.60 108.29,36.81 108.66,36.43 109.04,36.54 109.42,36.52 109.80,36.42 110.18,35.08 110.56,33.96 110.94,33.64 111.32,34.14 111.70,34.20 112.08,35.23 112.46,35.43 112.84,36.03 113.22,35.37 113.59,35.24 113.97,34.34 114.35,34.78 114.73,34.10 115.11,33.72 115.49,33.20 115.87,31.98 116.25,33.04 116.63,32.43 117.01,32.51 117.39,31.35 117.77,31.03 118.15,30.60 118.52,30.87 118.90,33.94 119.28,32.93 119.66,29.44 120.04,26.74 120.42,24.85 120.80,23.98 121.18,23.40 121.56,24.15 121.94,25.21 122.32,27.84 122.70,31.61 123.08,31.13 123.45,29.23 123.83,28.81 124.21,29.82 124.59,31.91 124.97,32.71 125.35,33.68 125.73,34.52 126.11,34.71 126.49,33.86 126.87,32.44 127.25,32.47 127.63,32.72 128.01,33.44 128.38,33.71 128.76,33.71 129.14,33.52 129.52,32.76 129.90,31.72 130.28,31.73 130.66,30.64 131.04,29.84 131.42,28.30 131.80,27.74 132.18,26.90 132.56,26.03 132.94,25.33 133.31,23.72 133.69,22.83 134.07,21.77 134.45,20.83 134.83,19.38 135.21,18.24 135.59,17.65 135.97,17.68 136.35,17.66 136.73,18.46 137.11,18.46 137.49,18.35 137.86,18.32 138.24,18.21 138.62,16.77 139.00,14.99 139.38,13.16 139.76,12.58 140.14,11.19 140.52,10.20 140.90,9.73 141.28,9.78 141.66,9.56 142.04,9.21 142.42,8.76 142.79,8.21 143.17,7.71 143.55,7.68 143.93,7.37 144.31,7.31 144.69,6.22 145.07,5.93 145.45,5.50 145.83,5.11 146.21,4.49 146.59,4.30 146.97,4.24 147.35,4.87 147.72,6.07 148.10,6.40 148.48,6.98 148.86,8.36 149.24,7.99 149.62,7.94 150.00,7.70 150.38,7.35 150.76,7.46 151.14,7.25 151.52,49.95 151.90,51.57 152.28,49.85 152.65,46.67 153.03,46.59 153.41,48.53 153.79,46.95 154.17,47.03 154.55,47.64 154.93,46.13 155.31,48.14 155.69,44.96 156.07,43.35 156.45,41.02 156.83,40.26 157.21,38.95 157.58,37.86 157.96,37.18 158.34,37.47 158.72,37.28 159.10,35.88 159.48,36.46 159.86,34.90 160.24,33.26 160.62,34.32 161.00,33.37 161.38,33.76 161.76,35.30 162.14,36.58 162.51,36.19 162.89,37.35 163.27,35.02 163.65,36.16 164.03,34.78 164.41,35.82 164.79,33.20 165.17,33.94 165.55,32.07 165.93,33.52 166.31,32.33 166.69,33.26 167.06,31.38 167.44,32.59 167.82,30.71 168.20,31.56 168.58,33.57 168.96,34.81 169.34,31.00 169.72,28.01 170.10,25.87 170.48,24.47 170.86,24.04 171.24,24.36 171.62,24.97 171.99,28.54 172.37,31.58 172.75,32.62 173.13,30.08 173.51,28.65 173.89,30.36 174.27,32.22 174.65,33.78 175.03,33.34 175.41,35.20 175.79,35.94 176.17,34.22 176.55,32.42 176.92,32.34 177.30,32.34 177.68,33.29 178.06,34.34 178.44,33.70 178.82,33.30 179.20,33.88 179.58,31.58 179.96,31.37 180.34,31.02 180.72,30.39 181.10,29.31 181.48,28.72 181.85,27.96 182.23,26.95 182.61,25.87 182.99,24.23 183.37,23.46 183.75,22.59 184.13,21.63 184.51,20.44 184.89,18.46 185.27,17.90 185.65,17.24 186.03,17.00 186.41,18.11 186.78,18.19 187.16,18.77 187.54,19.99 187.92,18.46 188.30,18.80 188.68,15.49 189.06,13.14 189.44,12.78 189.82,11.08 190.20,11.08 190.58,9.97 190.96,10.29 191.34,9.76 191.71,9.07 192.09,9.49 192.47,8.65 192.85,7.95 193.23,8.85 193.61,7.53 193.99,7.00 194.37,6.27 194.75,6.74 195.13,5.71 195.51,4.92 195.89,4.28 196.26,4.12 196.64,4.41 197.02,5.00 197.40,5.47 197.78,5.84 198.16,6.40 198.54,6.93 198.92,7.01 199.30,8.15 199.68,7.72 200.06,7.43 200.44,7.49 200.82,6.88 201.19,6.89 201.57,6.97 201.95,8.66 202.33,10.38 202.71,11.27 203.09,11.27 203.47,10.98 203.85,9.55 204.23,8.41 204.61,8.41 204.99,7.77 205.37,7.51 205.75,7.01 206.12,7.40 206.50,7.85 206.88,8.67 207.26,10.47 207.64,10.98 208.02,11.99 208.40,11.78 208.78,12.09 209.16,12.22 209.54,13.20 209.92,12.09 210.30,12.20 210.68,13.31 211.05,13.18 211.43,12.81 211.81,12.81 212.19,12.86 212.57,12.54 212.95,12.88 213.33,12.20 213.71,12.88 214.09,12.75 214.47,14.52 214.85,16.71 215.23,17.85 215.61,19.22 215.98,21.55 216.36,23.48 216.74,24.94 217.12,25.55 217.50,23.95 217.88,25.14 218.26,24.53 218.64,23.13 219.02,22.85 219.40,23.27 219.78,22.45 220.16,22.03 220.54,21.13 220.91,20.10 221.29,18.25 221.67,17.66 222.05,16.09 222.43,15.74 222.81,14.71 223.19,13.71 223.57,12.38 223.95,50.87 224.33,52.24 224.71,51.10 225.09,51.10 225.46,51.10 225.84,56.00 226.22,50.71 226.60,50.71 226.98,50.71 227.36,45.78 227.74,50.68 228.12,50.68 228.50,50.68 228.88,42.61 229.26,42.61 229.64,42.61 230.02,38.16 230.39,38.16 230.77,38.16 231.15,39.43 231.53,39.43 231.91,34.70 232.29,34.70 232.67,34.70 233.05,30.33 233.43,30.33 233.81,35.36 234.19,35.36 234.57,35.36 234.95,39.91 235.32,39.91 235.70,35.23 236.08,38.51 236.46,38.51 236.84,38.51 237.22,41.50 237.60,41.50 237.98,32.29 238.36,36.07 238.74,36.07 239.12,36.07 239.50,39.46 239.88,39.46 240.25,33.37 240.63,33.37 241.01,40.15 241.39,40.15 241.77,31.79 242.15,31.79 242.53,31.79 242.91,26.65 243.29,26.65 243.67,26.65 244.05,27.74 244.43,27.74 244.81,35.49 245.18,35.49 245.56,31.04 245.94,31.04 246.32,36.28 246.70,36.28 247.08,34.27 247.46,34.27 247.84,40.27 248.22,40.27 248.60,34.42 248.98,34.42 249.36,34.42 249.74,34.42 250.11,34.72 250.49,34.72 250.87,34.72 251.25,34.45 251.63,34.45 252.01,34.45 252.39,33.76 252.77,33.76 253.15,33.76 253.53,31.56 253.91,31.56 254.29,28.60 254.66,28.60 255.04,28.60 255.42,26.19 255.80,26.19 256.18,23.20 256.56,23.20 256.94,23.20 257.32,19.76 257.70,19.76 258.08,19.07 258.46,19.07 258.84,18.97 259.22,21.21 259.59,21.21 259.97,21.21 260.35,26.11 260.73,26.11 261.11,16.40 261.49,15.44 261.87,15.44 262.25,15.44 262.63,15.44 263.01,11.16 263.39,11.16 263.77,11.16 264.15,13.51 264.52,13.51 264.90,9.02 265.28,11.93 265.66,11.93 266.04,11.93 266.42,7.51 266.80,8.96 267.18,8.96 267.56,8.96 267.94,5.23 268.32,5.23 268.70,5.23 269.08,4.83 269.45,4.83 269.83,4.83 270.21,6.26 270.59,6.26 270.97,6.26 271.35,7.64 271.73,7.64 272.11,7.64 272.49,7.67 272.87,7.67 273.25,7.67 273.63,7.67 274.01,9.49 274.38,9.49 274.76,9.49 275.14,11.69 275.52,11.69 275.90,11.03 276.28,11.03 276.66,9.52 277.04,9.52 277.42,10.99 277.80,10.99 278.18,8.35 278.56,8.35 278.94,8.35 279.31,9.12 279.69,12.93 280.07,12.93 280.45,12.93 280.83,12.95 281.21,12.95 281.59,16.98 281.97,16.98 282.35,13.54 282.73,13.54 283.11,16.92 283.49,16.92 283.86,13.51 284.24,13.69 284.62,13.69 285.00,13.69 285.38,14.04 285.76,14.04 286.14,13.59 286.52,14.36 286.90,14.36 287.28,14.36 287.66,17.69 288.04,22.59 288.42,22.59 288.79,22.59 289.17,29.38 289.55,27.15 289.93,27.15 290.31,27.15 290.69,31.71 291.07,25.17 291.45,25.17 291.83,25.17 292.21,27.97 292.59,21.97 292.97,21.97 293.35,21.97 293.72,21.57 294.10,21.57 294.48,16.38 294.86,16.41 295.24,16.41 295.62,16.41 296.00,12.44" />
</svg>