<svg width="300" height="60" xmlns="http://www.w3.org/2000/svg">
  <polyline fill="rgba(255,200,0,0.3)" stroke="#ffbb00" stroke-width="2" points="4.00,49.54 6.10,47.21 8.20,48.15 10.30,49.57 12.40,51.73 14.50,54.07 16.60,56.00 18.71,50.86 20.81,51.08 22.91,53.19 25.01,53.37 27.11,53.37 29.21,53.72 31.31,52.66 33.41,51.61 35.51,50.06 37.61,49.33 39.71,49.45 41.81,49.92 43.91,50.21 46.01,48.85 48.12,46.66 50.22,42.84 52.32,40.62 54.42,38.81 56.52,39.13 58.62,40.40 60.72,38.96 62.82,36.24 64.92,35.22 67.02,32.00 69.12,31.88 71.22,27.43 73.32,24.01 75.42,25.13 77.53,49.91 79.63,47.51 81.73,48.97 83.83,48.56 85.93,51.85 88.03,54.29 90.13,55.78 92.23,51.48 94.33,50.94 96.43,53.32 98.53,53.50 100.63,53.95 102.73,52.89 104.83,53.71 106.94,51.57 109.04,49.50 111.14,49.35 113.24,49.38 115.34,50.40 117.44,50.37 119.54,49.32 121.64,45.78 123.74,42.07 125.84,39.84 127.94,39.19 130.04,39.26 132.14,40.45 134.24,37.25 136.35,36.13 138.45,34.43 140.55,31.45 142.65,29.15 144.75,26.13 146.85,25.27 148.95,26.56 151.05,46.26 153.15,49.27 155.25,48.86 157.35,48.19 159.45,53.10 161.55,54.55 163.65,52.24 165.76,53.36 167.86,49.29 169.96,52.89 172.06,50.79 174.16,52.82 176.26,49.80 178.36,51.02 180.46,47.66 182.56,48.45 184.66,48.45 186.76,50.59 188.86,48.96 190.96,50.38 193.06,47.37 195.17,42.59 197.27,42.89 199.37,38.56 201.47,34.70 203.57,39.31 205.67,38.05 207.77,32.60 209.87,38.22 211.97,34.05 214.07,28.94 216.17,31.75 218.27,26.91 220.37,21.93 222.47,27.82 224.58,46.86 226.68,53.80 228.78,44.35 230.88,44.35 232.98,46.92 235.08,46.92 237.18,46.92 239.28,53.02 241.38,45.16 243.48,45.16 245.58,45.16 247.68,36.05 249.78,36.05 251.88,49.84 253.99,41.67 256.09,41.67 258.19,41.67 260.29,41.67 262.39,29.64 264.49,45.37 266.59,45.37 268.69,32.46 270.79,32.46 272.89,32.46 274.99,26.42 277.09,26.42 279.19,26.42 281.29,8.78 283.40,28.26 285.50,28.26 287.60,28.26 289.70,14.95 291.80,14.95 293.90,14.95 296.00,4.00" />
</svg>