<svg width="300" height="60" xmlns="http://www.w3.org/2000/svg">
  <polyline fill="rgba(255,200,0,0.3)" stroke="#ffbb00" stroke-width="2" points="4.00,53.55 4.86,52.31 5.72,50.21 6.58,48.60 7.45,47.14 8.31,46.02 9.17,45.37 10.03,44.92 10.89,44.69 11.75,44.57 12.61,44.62 13.47,44.77 14.34,44.88 15.20,44.84 16.06,44.56 16.92,43.88 17.78,42.80 18.64,41.32 19.50,40.00 20.37,38.96 21.23,38.07 22.09,36.95 22.95,35.73 23.81,34.14 24.67,32.62 25.53,31.13 26.40,29.69 27.26,28.29 28.12,27.02 28.98,26.11 29.84,25.44 30.70,25.08 31.56,24.70 32.42,24.36 33.29,24.17 34.15,24.04 35.01,23.70 35.87,23.33 36.73,22.64 37.59,21.57 38.45,20.73 39.32,19.80 40.18,19.05 41.04,18.72 41.90,18.72 42.76,19.01 43.62,19.45 44.48,19.85 45.35,20.26 46.21,20.58 47.07,20.59 47.93,20.58 48.79,20.75 49.65,20.77 50.51,20.79 51.37,21.04 52.24,21.75 53.10,23.25 53.96,24.65 54.82,25.44 55.68,25.59 56.54,25.59 57.40,25.48 58.27,25.51 59.13,25.83 59.99,26.41 60.85,27.13 61.71,28.31 62.57,30.10 63.43,32.31 64.29,34.22 65.16,35.15 66.02,35.99 66.88,37.31 67.74,39.52 68.60,42.25 69.46,44.59 70.32,46.03 71.19,46.84 72.05,47.39 72.91,48.00 73.77,48.59 74.63,49.11 75.49,49.71 76.35,50.40 77.22,54.01 78.08,53.14 78.94,50.17 79.80,48.90 80.66,47.63 81.52,46.67 82.38,46.09 83.24,45.55 84.11,45.15 84.97,45.55 85.83,45.95 86.69,46.20 87.55,46.09 88.41,46.20 89.27,45.72 90.14,45.21 91.00,43.77 91.86,42.28 92.72,40.46 93.58,39.27 94.44,38.47 95.30,37.61 96.17,36.48 97.03,36.23 97.89,32.93 98.75,31.81 99.61,30.36 100.47,28.77 101.33,27.68 102.19,26.31 103.06,26.42 103.92,26.10 104.78,25.78 105.64,25.21 106.50,25.75 107.36,26.04 108.22,26.09 109.09,25.00 109.95,25.60 110.81,22.88 111.67,22.52 112.53,22.05 113.39,20.12 114.25,20.26 115.12,19.82 115.98,20.51 116.84,20.16 117.70,20.49 118.56,21.17 119.42,21.99 120.28,22.24 121.14,22.03 122.01,22.83 122.87,23.36 123.73,21.81 124.59,21.08 125.45,23.07 126.31,23.91 127.17,26.16 128.04,26.59 128.90,26.95 129.76,27.08 130.62,26.76 131.48,26.21 132.34,26.52 133.20,27.59 134.06,27.74 134.93,28.97 135.79,30.51 136.65,32.39 137.51,34.58 138.37,35.89 139.23,36.67 140.09,37.76 140.96,39.90 141.82,43.17 142.68,45.31 143.54,46.61 144.40,47.45 145.26,48.10 146.12,49.26 146.99,50.76 147.85,53.49 148.71,54.47 149.57,56.00 150.43,53.27 151.29,52.19 152.15,49.69 153.01,47.58 153.88,45.95 154.74,46.10 155.60,45.29 156.46,44.92 157.32,44.04 158.18,44.65 159.04,44.58 159.91,44.98 160.77,44.44 161.63,44.69 162.49,44.46 163.35,42.72 164.21,42.04 165.07,41.13 165.94,39.43 166.80,38.19 167.66,38.19 168.52,36.82 169.38,34.79 170.24,34.03 171.10,31.84 171.96,31.04 172.83,29.95 173.69,26.58 174.55,26.22 175.41,25.75 176.27,25.40 177.13,25.14 177.99,24.78 178.86,24.27 179.72,24.71 180.58,21.74 181.44,22.53 182.30,23.28 183.16,20.34 184.02,21.17 184.88,18.06 185.75,19.18 186.61,16.32 187.47,18.06 188.33,16.46 189.19,18.64 190.05,17.48 190.91,19.04 191.78,17.34 192.64,19.62 193.50,17.92 194.36,20.46 195.22,19.41 196.08,21.74 196.94,21.01 197.81,21.38 198.67,23.55 199.53,23.55 200.39,25.51 201.25,25.91 202.11,23.98 202.97,25.90 203.83,25.83 204.70,25.85 205.56,26.25 206.42,27.37 207.28,27.30 208.14,29.47 209.00,30.74 209.86,32.15 210.73,36.21 211.59,36.36 212.45,36.68 213.31,37.55 214.17,39.73 215.03,41.21 215.89,43.21 216.76,45.02 217.62,47.01 218.48,47.12 219.34,47.84 220.20,48.68 221.06,49.30 221.92,50.06 222.78,51.00 223.65,51.29 224.51,51.29 225.37,51.29 226.23,44.00 227.09,44.00 227.95,44.00 228.81,44.00 229.68,42.58 230.54,42.58 231.40,42.58 232.26,42.58 233.12,44.99 233.98,40.46 234.84,40.64 235.71,40.64 236.57,40.64 237.43,39.73 238.29,39.73 239.15,39.73 240.01,35.60 240.87,35.60 241.73,35.60 242.60,35.60 243.46,34.37 244.32,29.12 245.18,29.12 246.04,25.57 246.90,25.57 247.76,23.72 248.63,23.72 249.49,23.72 250.35,22.56 251.21,22.56 252.07,21.54 252.93,21.54 253.79,21.54 254.65,22.41 255.52,22.41 256.38,10.92 257.24,11.94 258.10,11.94 258.96,11.94 259.82,15.81 260.68,15.81 261.55,4.00 262.41,11.36 263.27,11.36 264.13,11.36 264.99,16.97 265.85,16.97 266.71,4.54 267.58,11.72 268.44,11.72 269.30,11.72 270.16,21.47 271.02,13.60 271.88,13.60 272.74,13.60 273.60,25.26 274.47,18.20 275.33,18.20 276.19,18.20 277.05,26.28 277.91,22.98 278.77,22.98 279.63,27.73 280.50,27.73 281.36,31.79 282.22,31.79 283.08,36.21 283.94,36.21 284.80,37.76 285.66,37.76 286.53,37.76 287.39,38.24 288.25,38.24 289.11,41.46 289.97,41.46 290.83,41.46 291.69,46.24 292.55,46.24 293.42,46.24 294.28,50.37 295.14,50.37 296.00,48.89" />
</svg>