<svg width="300" height="60" xmlns="http://www.w3.org/2000/svg">
  <polyline fill="rgba(255,200,0,0.3)" stroke="#ffbb00" stroke-width="2" points="4.00,47.19 4.30,47.50 4.59,47.79 4.89,47.94 5.18,48.66 5.48,49.01 5.77,49.42 6.07,49.85 6.36,50.20 6.66,50.39 6.96,50.53 7.25,50.74 7.55,50.91 7.84,50.98 8.14,51.15 8.43,51.34 8.73,51.20 9.02,51.60 9.32,52.05 9.62,52.23 9.91,52.66 10.21,52.82 10.50,53.05 10.80,53.05 11.09,53.09 11.39,53.43 11.68,53.45 11.98,53.91 12.28,54.10 12.57,54.17 12.87,54.37 13.16,54.78 13.46,55.10 13.75,55.23 14.05,55.30 14.34,55.38 14.64,55.42 14.94,55.45 15.23,55.47 15.53,55.51 15.82,55.52 16.12,55.56 16.41,4.36 16.71,4.62 17.00,4.65 17.30,4.88 17.60,5.09 17.89,5.32 18.19,5.33 18.48,5.50 18.78,5.56 19.07,5.60 19.37,5.63 19.66,5.68 19.96,5.69 20.26,5.68 20.55,5.73 20.85,5.68 21.14,5.74 21.44,5.79 21.73,5.81 22.03,5.85 22.32,5.82 22.62,5.70 22.91,5.56 23.21,5.55 23.51,5.53 23.80,5.39 24.10,5.45 24.39,5.61 24.69,5.65 24.98,5.77 25.28,5.82 25.57,5.89 25.87,5.93 26.17,5.97 26.46,5.99 26.76,6.10 27.05,6.08 27.35,6.07 27.64,6.11 27.94,6.28 28.23,6.44 28.53,6.65 28.83,6.89 29.12,7.40 29.42,7.66 29.71,7.75 30.01,7.92 30.30,8.19 30.60,8.43 30.89,8.71 31.19,9.05 31.49,9.17 31.78,9.48 32.08,9.79 32.37,10.03 32.67,10.40 32.96,10.80 33.26,10.90 33.55,11.31 33.85,11.47 34.15,11.76 34.44,12.38 34.74,12.69 35.03,13.06 35.33,13.48 35.62,13.55 35.92,14.03 36.21,14.15 36.51,14.48 36.81,15.09 37.10,15.54 37.40,15.82 37.69,16.14 37.99,16.68 38.28,16.96 38.58,17.47 38.87,17.82 39.17,18.06 39.47,18.21 39.76,18.46 40.06,18.63 40.35,18.73 40.65,18.87 40.94,18.96 41.24,19.17 41.53,19.28 41.83,19.61 42.13,19.92 42.42,20.55 42.72,21.04 43.01,21.40 43.31,22.16 43.60,22.66 43.90,22.95 44.19,23.20 44.49,23.41 44.79,23.50 45.08,23.68 45.38,23.78 45.67,23.98 45.97,24.08 46.26,24.29 46.56,24.39 46.85,24.58 47.15,24.81 47.45,25.06 47.74,25.19 48.04,25.30 48.33,25.74 48.63,25.97 48.92,26.23 49.22,26.31 49.51,26.50 49.81,26.60 50.11,26.86 50.40,27.31 50.70,27.52 50.99,28.04 51.29,28.28 51.58,28.33 51.88,28.51 52.17,28.61 52.47,28.73 52.77,28.86 53.06,29.01 53.36,29.25 53.65,29.59 53.95,29.79 54.24,29.84 54.54,30.13 54.83,30.26 55.13,30.53 55.43,30.71 55.72,30.81 56.02,30.81 56.31,31.00 56.61,31.12 56.90,31.18 57.20,31.22 57.49,31.31 57.79,31.36 58.09,31.43 58.38,31.56 58.68,31.63 58.97,31.67 59.27,31.74 59.56,31.77 59.86,31.99 60.15,32.38 60.45,32.52 60.74,32.94 61.04,33.24 61.34,33.56 61.63,33.66 61.93,33.94 62.22,34.20 62.52,34.40 62.81,34.45 63.11,34.56 63.40,34.67 63.70,34.72 64.00,34.76 64.29,34.79 64.59,34.80 64.88,34.86 65.18,34.99 65.47,35.18 65.77,35.47 66.06,35.87 66.36,36.14 66.66,36.28 66.95,36.34 67.25,36.35 67.54,36.34 67.84,36.35 68.13,36.28 68.43,36.17 68.72,36.21 69.02,36.44 69.32,36.83 69.61,37.12 69.91,37.32 70.20,37.44 70.50,37.72 70.79,38.15 71.09,38.43 71.38,38.67 71.68,38.89 71.98,39.17 72.27,39.57 72.57,39.93 72.86,40.42 73.16,40.97 73.45,41.30 73.75,41.98 74.04,42.44 74.34,43.03 74.64,43.78 74.93,44.33 75.23,44.80 75.52,45.37 75.82,45.91 76.11,46.28 76.41,46.61 76.70,46.93 77.00,47.19 77.30,4.35 77.59,4.62 77.89,4.68 78.18,4.93 78.48,5.11 78.77,5.30 79.07,5.41 79.36,5.48 79.66,5.56 79.96,5.56 80.25,5.61 80.55,5.68 80.84,5.65 81.14,5.71 81.43,5.68 81.73,5.66 82.02,5.72 82.32,5.79 82.62,5.83 82.91,5.83 83.21,5.89 83.50,5.73 83.80,5.62 84.09,5.56 84.39,5.43 84.68,5.35 84.98,5.40 85.28,5.56 85.57,5.60 85.87,5.73 86.16,5.79 86.46,5.83 86.75,5.93 87.05,5.97 87.34,6.04 87.64,6.05 87.94,6.01 88.23,6.06 88.53,5.96 88.82,6.16 89.12,6.20 89.41,6.54 89.71,6.70 90.00,7.12 90.30,7.45 90.60,7.65 90.89,7.95 91.19,8.28 91.48,8.63 91.78,8.89 92.07,9.15 92.37,9.23 92.66,9.66 92.96,10.01 93.26,10.08 93.55,10.42 93.85,10.88 94.14,11.04 94.44,11.48 94.73,11.68 95.03,11.90 95.32,12.39 95.62,12.71 95.91,13.12 96.21,13.51 96.51,13.96 96.80,14.20 97.10,14.45 97.39,14.74 97.69,15.16 97.98,15.36 98.28,15.61 98.57,16.20 98.87,16.47 99.17,16.86 99.46,17.37 99.76,17.68 100.05,17.97 100.35,18.26 100.64,18.50 100.94,18.65 101.23,18.84 101.53,18.83 101.83,19.00 102.12,19.21 102.42,19.26 102.71,19.70 103.01,20.00 103.30,20.63 103.60,21.01 103.89,21.52 104.19,22.13 104.49,22.55 104.78,23.03 105.08,23.23 105.37,23.38 105.67,23.57 105.96,23.73 106.26,23.85 106.55,23.98 106.85,24.06 107.15,24.29 107.44,24.37 107.74,24.56 108.03,24.74 108.33,25.01 108.62,25.14 108.92,25.36 109.21,25.80 109.51,25.89 109.81,26.12 110.10,26.23 110.40,26.51 110.69,26.71 110.99,26.89 111.28,27.29 111.58,27.55 111.87,27.99 112.17,28.25 112.47,28.42 112.76,28.56 113.06,28.68 113.35,28.78 113.65,28.88 113.94,28.99 114.24,29.18 114.53,29.44 114.83,29.70 115.13,29.92 115.42,30.05 115.72,30.37 116.01,30.51 116.31,30.67 116.60,30.74 116.90,30.86 117.19,30.98 117.49,31.08 117.79,31.03 118.08,31.07 118.38,30.97 118.67,31.18 118.97,31.19 119.26,31.46 119.56,31.58 119.85,31.52 120.15,31.61 120.45,31.73 120.74,31.77 121.04,32.33 121.33,32.49 121.63,32.77 121.92,33.07 122.22,33.48 122.51,33.62 122.81,33.90 123.11,33.99 123.40,34.23 123.70,34.48 123.99,34.50 124.29,34.69 124.58,34.71 124.88,34.81 125.17,34.83 125.47,34.85 125.77,34.84 126.06,34.99 126.36,35.15 126.65,35.56 126.95,35.90 127.24,36.21 127.54,36.32 127.83,36.52 128.13,36.35 128.43,36.32 128.72,36.34 129.02,36.18 129.31,36.13 129.61,36.12 129.90,36.48 130.20,36.78 130.49,37.09 130.79,37.35 131.09,37.42 131.38,37.61 131.68,38.01 131.97,38.48 132.27,38.78 132.56,38.93 132.86,39.23 133.15,39.61 133.45,40.01 133.74,40.21 134.04,40.90 134.34,41.35 134.63,41.88 134.93,42.52 135.22,42.95 135.52,43.32 135.81,44.30 136.11,44.82 136.40,45.37 136.70,45.60 137.00,46.25 137.29,46.40 137.59,46.84 137.88,47.19 138.18,47.35 138.47,47.68 138.77,48.04 139.06,48.76 139.36,49.04 139.66,49.42 139.95,49.90 140.25,50.15 140.54,50.38 140.84,50.50 141.13,50.72 141.43,50.88 141.72,50.78 142.02,51.09 142.32,51.14 142.61,51.19 142.91,51.64 143.20,51.77 143.50,52.26 143.79,52.61 144.09,52.90 144.38,53.07 144.68,53.09 144.98,53.18 145.27,53.41 145.57,53.55 145.86,53.84 146.16,54.07 146.45,54.21 146.75,54.44 147.04,54.77 147.34,55.11 147.64,55.26 147.93,55.34 148.23,55.39 148.52,55.41 148.82,55.47 149.11,55.47 149.41,55.48 149.70,55.54 150.00,55.60 150.30,4.25 150.59,4.67 150.89,4.63 151.18,5.00 151.48,4.80 151.77,5.26 152.07,5.49 152.36,5.44 152.66,5.53 152.96,5.67 153.25,5.64 153.55,5.92 153.84,5.75 154.14,5.95 154.43,5.76 154.73,5.90 155.02,5.70 155.32,5.81 155.62,5.79 155.91,5.84 156.21,5.99 156.50,5.77 156.80,5.65 157.09,5.56 157.39,5.40 157.68,5.28 157.98,5.28 158.28,5.45 158.57,5.53 158.87,5.58 159.16,5.66 159.46,5.75 159.75,5.94 160.05,5.89 160.34,6.00 160.64,5.95 160.94,6.04 161.23,5.88 161.53,5.95 161.82,6.05 162.12,6.25 162.41,6.52 162.71,6.50 163.00,6.94 163.30,7.36 163.60,7.62 163.89,7.94 164.19,8.29 164.48,8.66 164.78,8.92 165.07,9.13 165.37,9.13 165.66,9.42 165.96,9.80 166.26,10.13 166.55,9.63 166.85,10.27 167.14,10.72 167.44,11.12 167.73,11.55 168.03,11.97 168.32,11.78 168.62,12.29 168.91,12.63 169.21,12.97 169.51,13.40 169.80,13.82 170.10,14.22 170.39,14.57 170.69,14.94 170.98,15.31 171.28,15.70 171.57,15.64 171.87,16.19 172.17,16.75 172.46,16.79 172.76,17.35 173.05,17.86 173.35,18.23 173.64,18.52 173.94,18.52 174.23,18.78 174.53,18.79 174.83,19.46 175.12,19.33 175.42,19.35 175.71,20.00 176.01,19.67 176.30,20.31 176.60,20.95 176.89,20.91 177.19,21.61 177.49,22.23 177.78,22.80 178.08,22.98 178.37,23.18 178.67,23.50 178.96,23.74 179.26,23.89 179.55,24.04 179.85,24.03 180.15,24.20 180.44,24.20 180.74,24.35 181.03,24.55 181.33,24.83 181.62,24.95 181.92,25.31 182.21,25.77 182.51,25.80 182.81,26.15 183.10,26.08 183.40,26.35 183.69,26.65 183.99,27.03 184.28,27.34 184.58,27.59 184.87,27.89 185.17,28.23 185.47,28.47 185.76,28.85 186.06,28.85 186.35,29.34 186.65,28.82 186.94,28.91 187.24,29.17 187.53,29.17 187.83,29.56 188.13,29.69 188.42,30.12 188.72,30.07 189.01,30.35 189.31,30.74 189.60,30.89 189.90,30.93 190.19,31.14 190.49,31.29 190.79,31.27 191.08,31.09 191.38,31.74 191.67,31.23 191.97,31.46 192.26,31.79 192.56,31.51 192.85,31.95 193.15,31.79 193.45,31.82 193.74,31.94 194.04,32.32 194.33,32.46 194.63,32.57 194.92,32.36 195.22,32.79 195.51,33.20 195.81,33.20 196.11,33.65 196.40,34.02 196.70,34.30 196.99,33.78 197.29,34.57 197.58,34.71 197.88,34.45 198.17,34.66 198.47,34.87 198.77,34.61 199.06,34.91 199.36,35.00 199.65,35.30 199.95,35.69 200.24,36.24 200.54,36.31 200.83,36.03 201.13,36.14 201.43,35.47 201.72,36.26 202.02,36.23 202.31,35.62 202.61,35.79 202.90,36.27 203.20,36.36 203.49,36.46 203.79,36.90 204.09,37.26 204.38,37.55 204.68,38.02 204.97,38.51 205.27,39.01 205.56,39.54 205.86,39.23 206.15,40.04 206.45,40.03 206.74,40.32 207.04,41.15 207.34,40.84 207.63,41.23 207.93,42.16 208.22,42.64 208.52,42.98 208.81,43.86 209.11,44.43 209.40,44.60 209.70,45.41 210.00,45.65 210.29,45.98 210.59,46.28 210.88,47.02 211.18,47.28 211.47,47.78 211.77,48.11 212.06,48.44 212.36,49.01 212.66,49.43 212.95,49.87 213.25,50.12 213.54,50.55 213.84,50.71 214.13,50.79 214.43,50.88 214.72,50.94 215.02,51.13 215.32,51.26 215.61,51.44 215.91,51.61 216.20,51.79 216.50,52.18 216.79,52.62 217.09,52.78 217.38,52.89 217.68,52.97 217.98,53.24 218.27,53.33 218.57,53.43 218.86,53.62 219.16,53.84 219.45,54.37 219.75,54.59 220.04,54.66 220.34,55.03 220.64,54.96 220.93,55.24 221.23,55.20 221.52,55.21 221.82,55.50 222.11,55.47 222.41,55.46 222.70,55.50 223.00,55.54 223.30,4.01 223.59,4.01 223.89,4.01 224.18,4.00 224.48,4.00 224.77,5.51 225.07,5.51 225.36,5.47 225.66,5.47 225.96,6.26 226.25,6.26 226.55,6.26 226.84,6.00 227.14,6.00 227.43,6.00 227.73,6.57 228.02,6.57 228.32,6.57 228.62,6.01 228.91,6.01 229.21,6.01 229.50,6.14 229.80,6.14 230.09,6.14 230.39,5.52 230.68,5.52 230.98,5.52 231.28,5.77 231.57,5.59 231.87,5.59 232.16,5.59 232.46,5.82 232.75,5.99 233.05,5.99 233.34,5.99 233.64,5.99 233.94,6.60 234.23,5.87 234.53,5.87 234.82,6.09 235.12,6.09 235.41,6.09 235.71,6.65 236.00,6.65 236.30,6.65 236.60,7.09 236.89,7.09 237.19,7.09 237.48,7.33 237.78,7.33 238.07,7.33 238.37,7.33 238.66,7.90 238.96,7.90 239.26,7.90 239.55,8.97 239.85,8.97 240.14,8.97 240.44,10.21 240.73,10.21 241.03,10.21 241.32,11.62 241.62,11.62 241.91,11.62 242.21,12.89 242.51,12.89 242.80,12.89 243.10,14.06 243.39,14.06 243.69,14.06 243.98,15.45 244.28,14.60 244.57,14.60 244.87,14.60 245.17,16.73 245.46,16.35 245.76,16.35 246.05,16.35 246.35,18.17 246.64,18.17 246.94,18.17 247.23,18.17 247.53,18.21 247.83,19.27 248.12,19.27 248.42,19.27 248.71,21.05 249.01,19.78 249.30,19.78 249.60,19.78 249.89,19.56 250.19,21.62 250.49,21.62 250.78,21.62 251.08,21.94 251.37,23.39 251.67,23.39 251.96,23.39 252.26,24.87 252.55,24.23 252.85,24.23 253.15,24.23 253.44,24.23 253.74,24.44 254.03,24.44 254.33,24.44 254.62,25.03 254.92,25.03 255.21,25.15 255.51,25.80 255.81,25.80 256.10,25.80 256.40,25.80 256.69,26.75 256.99,26.75 257.28,26.75 257.58,28.19 257.87,28.19 258.17,28.19 258.47,28.84 258.76,28.84 259.06,28.84 259.35,30.46 259.65,30.46 259.94,29.15 260.24,29.15 260.53,29.15 260.83,30.09 261.13,29.77 261.42,29.77 261.72,29.77 262.01,30.47 262.31,30.97 262.60,30.97 262.90,30.97 263.19,32.99 263.49,32.99 263.79,32.99 264.08,33.36 264.38,33.36 264.67,33.36 264.97,31.59 265.26,34.79 265.56,34.79 265.85,33.26 266.15,33.26 266.45,33.26 266.74,32.84 267.04,32.84 267.33,33.42 267.63,33.42 267.92,33.42 268.22,32.57 268.51,32.57 268.81,32.57 269.11,32.57 269.40,33.55 269.70,33.55 269.99,33.55 270.29,33.55 270.58,34.58 270.88,34.58 271.17,34.58 271.47,33.64 271.77,33.64 272.06,35.25 272.36,34.83 272.65,34.83 272.95,34.83 273.24,35.73 273.54,35.73 273.83,35.79 274.13,35.79 274.43,35.79 274.72,35.79 275.02,36.09 275.31,36.09 275.61,36.09 275.90,34.94 276.20,34.94 276.49,34.94 276.79,36.36 277.09,36.36 277.38,36.36 277.68,37.24 277.97,37.24 278.27,38.55 278.56,38.55 278.86,38.55 279.15,40.84 279.45,39.25 279.74,39.25 280.04,41.99 280.34,41.99 280.63,40.10 280.93,40.10 281.22,42.60 281.52,42.60 281.81,44.44 282.11,44.44 282.40,44.44 282.70,45.17 283.00,45.17 283.29,45.17 283.59,45.17 283.88,47.29 284.18,47.29 284.47,47.83 284.77,47.83 285.06,47.83 285.36,49.24 285.66,49.24 285.95,49.24 286.25,51.05 286.54,51.05 286.84,51.49 287.13,51.49 287.43,51.49 287.72,51.43 288.02,51.43 288.32,51.43 288.61,51.43 288.91,51.43 289.20,51.85 289.50,51.85 289.79,52.53 290.09,52.53 290.38,52.53 290.68,53.13 290.98,53.13 291.27,53.13 291.57,53.55 291.86,53.55 292.16,53.55 292.45,54.11 292.75,54.11 293.04,54.51 293.34,54.51 293.64,54.51 293.93,54.51 294.23,55.09 294.52,55.09 294.82,55.25 295.11,55.95 295.41,55.95 295.70,55.95 296.00,56.00" />
</svg>