<svg width="300" height="60" xmlns="http://www.w3.org/2000/svg">
  <polyline fill="rgba(255,200,0,0.3)" stroke="#ffbb00" stroke-width="2" points="4.00,30.10 5.38,30.16 6.77,29.84 8.15,29.53 9.54,29.67 10.92,28.64 12.30,27.23 13.69,24.82 15.07,21.44 16.45,22.24 17.84,20.35 19.22,20.81 20.61,22.66 21.99,23.88 23.37,23.59 24.76,23.35 26.14,21.92 27.53,17.79 28.91,13.22 30.29,10.02 31.68,9.24 33.06,12.58 34.45,16.51 35.83,19.82 37.21,20.56 38.60,20.05 39.98,19.09 41.36,20.20 42.75,20.59 44.13,22.24 45.52,23.08 46.90,22.57 48.28,21.74 49.67,20.45 51.05,17.52 52.44,12.65 53.82,8.59 55.20,6.11 56.59,5.22 57.97,8.94 59.36,14.48 60.74,18.40 62.12,22.11 63.51,24.41 64.89,27.42 66.27,38.75 67.66,48.94 69.04,52.08 70.43,52.93 71.81,53.03 73.19,48.41 74.58,48.39 75.96,54.02 77.35,30.26 78.73,29.45 80.11,29.71 81.50,29.15 82.88,29.15 84.27,27.35 85.65,23.60 87.03,23.52 88.42,19.57 89.80,19.37 91.18,20.30 92.57,19.79 93.95,21.41 95.34,24.10 96.72,24.10 98.10,24.30 99.49,22.07 100.87,16.95 102.26,12.59 103.64,8.23 105.02,6.11 106.41,9.65 107.79,13.10 109.18,17.32 110.56,18.95 111.94,17.94 113.33,17.35 114.71,17.86 116.09,18.77 117.48,20.96 118.86,21.26 120.25,21.46 121.63,21.20 123.01,19.79 124.40,15.03 125.78,9.93 127.17,8.82 128.55,5.17 129.93,4.00 131.32,6.73 132.70,11.39 134.09,18.67 135.47,21.94 136.85,24.37 138.24,28.00 139.62,39.15 141.00,49.38 142.39,52.76 143.77,52.86 145.16,53.52 146.54,49.67 147.92,50.08 149.31,53.93 150.69,29.88 152.08,29.66 153.46,29.46 154.84,29.76 156.23,30.37 157.61,24.29 159.00,23.79 160.38,23.08 161.76,22.17 163.15,21.48 164.53,21.38 165.91,20.27 167.30,22.49 168.68,22.19 170.07,23.81 171.45,23.20 172.83,20.97 174.22,16.00 175.60,10.73 176.99,5.37 178.37,11.75 179.75,17.12 181.14,12.77 182.52,20.67 183.91,23.50 185.29,18.03 186.67,20.96 188.06,15.70 189.44,19.85 190.82,23.90 192.21,23.90 193.59,25.14 194.98,21.69 196.36,20.58 197.74,16.43 199.13,12.25 200.51,9.71 201.90,5.56 203.28,6.47 204.66,6.57 206.05,13.97 207.43,19.94 208.82,22.88 210.20,24.40 211.58,30.87 212.97,38.98 214.35,50.22 215.73,48.09 217.12,52.04 218.50,46.78 219.89,48.19 221.27,48.19 222.65,54.07 224.04,27.68 225.42,27.68 226.81,34.46 228.19,34.46 229.57,34.46 230.96,34.87 232.34,34.87 233.73,34.87 235.11,33.45 236.49,33.45 237.88,33.45 239.26,23.99 240.64,23.99 242.03,23.99 243.41,23.99 244.80,23.08 246.18,23.08 247.56,23.08 248.95,23.08 250.33,21.56 251.72,21.56 253.10,21.56 254.48,21.56 255.87,30.98 257.25,30.98 258.64,30.98 260.02,18.92 261.40,18.92 262.79,34.42 264.17,26.42 265.55,26.42 266.94,26.42 268.32,26.42 269.71,24.19 271.09,24.19 272.47,24.19 273.86,10.92 275.24,10.92 276.63,23.82 278.01,18.02 279.39,18.02 280.78,18.02 282.16,25.00 283.55,28.25 284.93,28.25 286.31,28.25 287.70,45.87 289.08,43.14 290.46,43.14 291.85,43.14 293.23,56.00 294.62,56.00 296.00,54.68" />
</svg>