<svg width="300" height="60" xmlns="http://www.w3.org/2000/svg">
  <polyline fill="rgba(255,200,0,0.3)" stroke="#ffbb00" stroke-width="2" points="4.00,52.65 5.24,53.38 6.47,55.30 7.71,56.00 8.95,55.98 10.19,55.12 11.42,53.84 12.66,52.53 13.90,51.05 15.14,49.76 16.37,49.85 17.61,50.59 18.85,51.51 20.08,53.14 21.32,53.55 22.56,53.01 23.80,52.64 25.03,51.09 26.27,49.81 27.51,48.07 28.75,46.94 29.98,47.55 31.22,48.94 32.46,50.15 33.69,51.55 34.93,53.16 36.17,54.83 37.41,52.05 38.64,50.99 39.88,52.51 41.12,50.75 42.36,51.81 43.59,51.95 44.83,51.52 46.07,51.04 47.31,49.57 48.54,49.01 49.78,48.07 51.02,44.58 52.25,42.36 53.49,40.92 54.73,40.75 55.97,41.71 57.20,43.37 58.44,45.51 59.68,46.88 60.92,47.90 62.15,48.18 63.39,47.61 64.63,48.21 65.86,44.41 67.10,40.47 68.34,38.38 69.58,38.72 70.81,41.66 72.05,44.26 73.29,45.84 74.53,45.07 75.76,41.16 77.00,37.00 78.24,32.59 79.47,28.84 80.71,25.33 81.95,22.85 83.19,18.77 84.42,15.18 85.66,12.97 86.90,13.57 88.14,16.35 89.37,19.48 90.61,18.63 91.85,16.68 93.08,13.90 94.32,13.10 95.56,15.06 96.80,16.43 98.03,14.92 99.27,12.63 100.51,10.33 101.75,52.16 102.98,53.94 104.22,54.35 105.46,55.64 106.69,55.11 107.93,54.78 109.17,54.59 110.41,51.38 111.64,51.01 112.88,50.78 114.12,50.87 115.36,51.61 116.59,52.42 117.83,53.56 119.07,53.58 120.31,53.25 121.54,53.42 122.78,51.25 124.02,49.16 125.25,48.65 126.49,46.44 127.73,48.53 128.97,48.50 130.20,51.14 131.44,51.07 132.68,54.22 133.92,54.34 135.15,51.27 136.39,52.79 137.63,50.38 138.86,51.75 140.10,52.35 141.34,51.67 142.58,51.21 143.81,50.39 145.05,49.98 146.29,49.22 147.53,48.27 148.76,43.22 150.00,41.13 151.24,41.66 152.47,41.16 153.71,41.72 154.95,43.38 156.19,45.09 157.42,46.15 158.66,47.19 159.90,47.67 161.14,47.75 162.37,45.81 163.61,42.38 164.85,41.23 166.08,37.26 167.32,38.80 168.56,40.80 169.80,43.26 171.03,46.34 172.27,43.45 173.51,40.47 174.75,34.66 175.98,32.09 177.22,29.38 178.46,24.71 179.69,20.54 180.93,17.37 182.17,14.74 183.41,13.45 184.64,14.16 185.88,15.13 187.12,17.79 188.36,17.37 189.59,15.76 190.83,14.27 192.07,14.07 193.31,15.94 194.54,14.42 195.78,11.93 197.02,10.16 198.25,8.31 199.49,51.58 200.73,51.58 201.97,51.58 203.20,52.15 204.44,53.61 205.68,53.61 206.92,53.34 208.15,53.34 209.39,53.34 210.63,53.29 211.86,53.29 213.10,54.27 214.34,54.27 215.58,54.27 216.81,54.49 218.05,54.49 219.29,54.49 220.53,54.54 221.76,49.14 223.00,49.14 224.24,48.35 225.47,48.35 226.71,48.35 227.95,54.61 229.19,54.61 230.42,54.61 231.66,54.06 232.90,54.06 234.14,54.06 235.37,50.95 236.61,50.95 237.85,50.95 239.08,50.58 240.32,50.58 241.56,50.58 242.80,46.93 244.03,46.93 245.27,46.93 246.51,39.67 247.75,39.67 248.98,39.67 250.22,39.67 251.46,42.30 252.69,42.30 253.93,42.30 255.17,45.01 256.41,45.01 257.64,45.01 258.88,41.63 260.12,41.63 261.36,41.63 262.59,41.63 263.83,30.85 265.07,36.07 266.31,36.07 267.54,36.07 268.78,45.83 270.02,38.13 271.25,38.13 272.49,29.65 273.73,29.65 274.97,23.47 276.20,23.47 277.44,15.89 278.68,15.89 279.92,15.89 281.15,16.75 282.39,16.75 283.63,10.95 284.86,11.03 286.10,11.03 287.34,8.55 288.58,8.55 289.81,8.55 291.05,9.15 292.29,9.15 293.53,5.57 294.76,5.57 296.00,4.00" />
</svg>