<svg width="300" height="60" xmlns="http://www.w3.org/2000/svg">
  <polyline fill="rgba(255,200,0,0.3)" stroke="#ffbb00" stroke-width="2" points="4.00,5.83 4.73,5.01 5.46,4.75 6.20,4.95 6.93,5.79 7.66,6.57 8.39,7.43 9.12,8.54 9.85,9.16 10.59,9.50 11.32,10.03 12.05,10.92 12.78,11.78 13.51,12.74 14.25,13.64 14.98,14.39 15.71,15.03 16.44,15.62 17.17,16.05 17.90,16.37 18.64,16.77 19.37,17.08 20.10,17.37 20.83,17.70 21.56,18.03 22.30,18.38 23.03,18.49 23.76,18.69 24.49,18.88 25.22,19.12 25.95,19.32 26.69,19.68 27.42,19.98 28.15,20.33 28.88,20.87 29.61,21.47 30.35,22.34 31.08,23.35 31.81,24.30 32.54,25.33 33.27,26.24 34.01,27.12 34.74,27.92 35.47,28.73 36.20,29.33 36.93,30.01 37.66,30.77 38.40,31.54 39.13,32.30 39.86,33.40 40.59,34.34 41.32,35.40 42.06,36.49 42.79,37.58 43.52,38.56 44.25,39.58 44.98,40.38 45.71,41.05 46.45,41.56 47.18,42.16 47.91,43.22 48.64,44.97 49.37,46.77 50.11,48.59 50.84,50.02 51.57,51.41 52.30,52.63 53.03,53.61 53.76,54.30 54.50,54.77 55.23,55.14 55.96,55.35 56.69,55.41 57.42,55.45 58.16,55.27 58.89,55.01 59.62,54.55 60.35,54.05 61.08,53.35 61.81,52.37 62.55,51.32 63.28,50.14 64.01,48.86 64.74,47.59 65.47,46.29 66.21,45.32 66.94,44.43 67.67,43.89 68.40,43.33 69.13,42.85 69.86,42.22 70.60,41.46 71.33,40.56 72.06,39.33 72.79,37.82 73.52,36.04 74.26,34.24 74.99,32.30 75.72,30.81 76.45,28.44 77.18,5.94 77.91,4.97 78.65,4.70 79.38,4.98 80.11,4.88 80.84,6.52 81.57,7.49 82.31,8.61 83.04,8.73 83.77,9.59 84.50,10.02 85.23,10.96 85.96,11.63 86.70,12.83 87.43,13.65 88.16,14.53 88.89,15.25 89.62,15.72 90.36,16.24 91.09,16.58 91.82,17.01 92.55,17.31 93.28,17.40 94.02,17.92 94.75,18.16 95.48,18.23 96.21,18.49 96.94,18.79 97.67,18.93 98.41,19.21 99.14,19.50 99.87,19.73 100.60,19.82 101.33,20.07 102.07,20.50 102.80,21.75 103.53,22.36 104.26,23.31 104.99,24.28 105.72,25.38 106.46,26.48 107.19,27.20 107.92,28.12 108.65,28.82 109.38,29.26 110.12,30.05 110.85,31.03 111.58,31.81 112.31,32.69 113.04,33.36 113.77,34.49 114.51,35.65 115.24,36.90 115.97,37.69 116.70,38.93 117.43,39.63 118.17,40.78 118.90,41.36 119.63,41.81 120.36,42.43 121.09,43.74 121.82,45.38 122.56,47.09 123.29,48.61 124.02,50.02 124.75,51.72 125.48,52.85 126.22,53.70 126.95,54.46 127.68,54.93 128.41,56.00 129.14,55.59 129.87,55.84 130.61,55.48 131.34,55.39 132.07,55.05 132.80,54.52 133.53,53.88 134.27,53.09 135.00,52.27 135.73,50.95 136.46,49.58 137.19,48.88 137.92,47.39 138.66,45.93 139.39,45.16 140.12,44.29 140.85,43.83 141.58,43.28 142.32,42.83 143.05,42.19 143.78,41.31 144.51,40.45 145.24,38.84 145.97,37.38 146.71,35.80 147.44,33.01 148.17,31.73 148.90,30.27 149.63,28.45 150.37,5.60 151.10,5.06 151.83,4.60 152.56,4.29 153.29,4.96 154.03,5.94 154.76,7.46 155.49,7.40 156.22,8.22 156.95,8.37 157.68,8.92 158.42,9.92 159.15,11.16 159.88,10.55 160.61,12.37 161.34,13.44 162.08,13.65 162.81,14.93 163.54,16.00 164.27,15.66 165.00,16.48 165.73,17.24 166.47,17.14 167.20,17.78 167.93,17.68 168.66,17.99 169.39,17.99 170.13,18.32 170.86,18.63 171.59,18.41 172.32,18.99 173.05,19.48 173.78,19.36 174.52,19.91 175.25,19.75 175.98,20.70 176.71,21.65 177.44,22.71 178.18,22.53 178.91,24.05 179.64,25.30 180.37,26.42 181.10,26.21 181.83,27.67 182.57,28.89 183.30,29.04 184.03,30.41 184.76,30.50 185.49,31.78 186.23,31.78 186.96,33.16 187.69,34.26 188.42,35.11 189.15,36.63 189.88,37.97 190.62,37.88 191.35,39.34 192.08,40.62 192.81,40.62 193.54,41.74 194.28,42.87 195.01,43.97 195.74,44.51 196.47,46.89 197.20,48.20 197.93,51.03 198.67,52.63 199.40,53.82 200.13,54.61 200.86,54.98 201.59,55.49 202.33,55.65 203.06,55.92 203.79,55.51 204.52,55.21 205.25,54.78 205.98,54.63 206.72,53.66 207.45,52.04 208.18,51.86 208.91,49.88 209.64,49.16 210.38,46.66 211.11,46.22 211.84,45.58 212.57,44.43 213.30,44.37 214.04,43.85 214.77,43.18 215.50,42.54 216.23,41.44 216.96,40.56 217.69,39.28 218.43,37.73 219.16,36.45 219.89,34.20 220.62,33.17 221.35,31.16 222.09,29.98 222.82,28.03 223.55,4.00 224.28,4.00 225.01,4.00 225.74,5.89 226.48,5.89 227.21,5.89 227.94,5.86 228.67,5.86 229.40,5.55 230.14,6.99 230.87,6.99 231.60,6.99 232.33,9.61 233.06,9.61 233.79,9.61 234.53,9.61 235.26,9.67 235.99,14.27 236.72,14.27 237.45,14.51 238.19,14.51 238.92,18.07 239.65,17.25 240.38,17.25 241.11,17.25 241.84,16.06 242.58,16.06 243.31,17.80 244.04,17.80 244.77,16.76 245.50,16.76 246.24,18.95 246.97,19.02 247.70,19.02 248.43,19.02 249.16,19.02 249.89,20.99 250.63,20.99 251.36,20.99 252.09,20.99 252.82,24.13 253.55,24.13 254.29,24.13 255.02,25.28 255.75,27.44 256.48,27.44 257.21,29.09 257.94,29.09 258.68,29.09 259.41,29.09 260.14,32.25 260.87,32.25 261.60,32.25 262.34,33.72 263.07,35.49 263.80,35.49 264.53,37.62 265.26,37.62 265.99,37.62 266.73,38.96 267.46,41.89 268.19,41.89 268.92,41.89 269.65,45.12 270.39,45.12 271.12,50.87 271.85,50.26 272.58,50.26 273.31,54.62 274.05,54.62 274.78,54.62 275.51,55.99 276.24,55.99 276.97,54.59 277.70,54.59 278.44,54.59 279.17,54.19 279.90,54.19 280.63,54.19 281.36,49.44 282.10,49.44 282.83,49.44 283.56,43.66 284.29,46.67 285.02,46.67 285.75,42.62 286.49,42.62 287.22,42.62 287.95,40.06 288.68,40.06 289.41,40.46 290.15,40.46 290.88,40.46 291.61,37.26 292.34,37.26 293.07,37.26 293.80,32.57 294.54,32.57 295.27,32.09 296.00,28.43" />
</svg>