<svg width="300" height="60" xmlns="http://www.w3.org/2000/svg">
  <polyline fill="rgba(255,200,0,0.3)" stroke="#ffbb00" stroke-width="2" points="4.00,11.70 4.11,11.61 4.21,11.72 4.32,11.74 4.43,11.70 4.53,11.60 4.64,11.45 4.75,11.30 4.85,11.14 4.96,10.98 5.07,10.73 5.18,10.50 5.28,10.32 5.39,10.12 5.50,9.96 5.60,9.87 5.71,9.78 5.82,9.74 5.92,9.70 6.03,9.68 6.14,9.64 6.24,9.57 6.35,9.44 6.46,9.23 6.56,8.93 6.67,8.55 6.78,8.29 6.88,8.17 6.99,8.15 7.10,8.17 7.21,8.18 7.31,8.15 7.42,8.16 7.53,8.22 7.63,8.27 7.74,8.35 7.85,8.42 7.95,8.42 8.06,8.42 8.17,8.38 8.27,8.30 8.38,8.21 8.49,8.07 8.59,7.93 8.70,7.86 8.81,7.87 8.91,7.96 9.02,8.16 9.13,8.41 9.24,8.65 9.34,8.86 9.45,9.02 9.56,9.15 9.66,9.26 9.77,9.32 9.88,9.37 9.98,9.34 10.09,9.27 10.20,9.19 10.30,9.16 10.41,9.18 10.52,9.25 10.62,9.42 10.73,9.64 10.84,9.95 10.94,10.23 11.05,10.47 11.16,10.67 11.27,10.85 11.37,11.05 11.48,11.27 11.59,11.53 11.69,11.76 11.80,12.02 11.91,12.28 12.01,12.56 12.12,12.79 12.23,13.00 12.33,13.24 12.44,13.46 12.55,13.75 12.65,14.03 12.76,14.37 12.87,14.70 12.97,15.02 13.08,15.22 13.19,15.37 13.30,15.62 13.40,15.83 13.51,15.96 13.62,16.00 13.72,15.97 13.83,15.88 13.94,15.79 14.04,15.72 14.15,15.64 14.26,15.53 14.36,15.49 14.47,15.41 14.58,15.34 14.68,15.23 14.79,15.14 14.90,15.05 15.00,14.91 15.11,14.73 15.22,14.46 15.33,14.20 15.43,14.02 15.54,14.03 15.65,14.22 15.75,14.41 15.86,14.54 15.97,14.57 16.07,14.54 16.18,14.49 16.29,14.52 16.39,14.61 16.50,14.75 16.61,14.94 16.71,15.19 16.82,15.40 16.93,15.60 17.03,15.83 17.14,16.12 17.25,16.42 17.36,16.68 17.46,16.94 17.57,17.19 17.68,17.42 17.78,17.66 17.89,17.93 18.00,18.24 18.10,18.52 18.21,18.91 18.32,19.22 18.42,19.53 18.53,19.71 18.64,19.75 18.74,19.65 18.85,19.45 18.96,19.24 19.06,19.00 19.17,18.76 19.28,18.55 19.39,18.35 19.49,18.19 19.60,18.04 19.71,17.92 19.81,17.73 19.92,17.57 20.03,17.47 20.13,17.26 20.24,17.09 20.35,17.02 20.45,16.94 20.56,16.83 20.67,16.74 20.77,16.70 20.88,16.72 20.99,16.77 21.09,16.82 21.20,16.86 21.31,16.95 21.42,17.18 21.52,17.43 21.63,17.59 21.74,17.77 21.84,17.96 21.95,18.18 22.06,18.44 22.16,18.72 22.27,18.95 22.38,19.13 22.48,19.13 22.59,19.02 22.70,18.82 22.80,18.68 22.91,18.56 23.02,18.47 23.12,18.46 23.23,18.55 23.34,18.67 23.45,18.79 23.55,18.93 23.66,18.88 23.77,18.81 23.87,18.64 23.98,18.46 24.09,18.35 24.19,18.49 24.30,18.65 24.41,18.87 24.51,18.99 24.62,18.98 24.73,18.83 24.83,18.60 24.94,18.33 25.05,18.03 25.15,17.86 25.26,17.76 25.37,17.69 25.48,17.63 25.58,17.52 25.69,17.37 25.80,17.22 25.90,17.15 26.01,17.06 26.12,16.90 26.22,16.78 26.33,16.73 26.44,16.75 26.54,16.78 26.65,16.75 26.76,16.67 26.86,16.62 26.97,16.55 27.08,16.46 27.18,16.32 27.29,16.16 27.40,16.03 27.51,15.89 27.61,15.68 27.72,15.45 27.83,15.27 27.93,15.05 28.04,14.86 28.15,14.67 28.25,14.49 28.36,14.31 28.47,14.16 28.57,13.99 28.68,13.78 28.79,13.54 28.89,13.31 29.00,13.05 29.11,12.81 29.21,12.65 29.32,12.40 29.43,12.09 29.54,11.86 29.64,11.72 29.75,11.68 29.86,11.68 29.96,11.74 30.07,11.84 30.18,11.96 30.28,12.10 30.39,12.27 30.50,12.39 30.60,12.52 30.71,12.76 30.82,12.89 30.92,13.01 31.03,13.10 31.14,13.08 31.24,12.99 31.35,12.86 31.46,12.75 31.57,12.64 31.67,12.57 31.78,12.55 31.89,12.53 31.99,12.53 32.10,12.51 32.21,12.48 32.31,12.43 32.42,12.39 32.53,12.33 32.63,12.30 32.74,12.30 32.85,12.29 32.95,12.27 33.06,12.25 33.17,12.23 33.27,12.17 33.38,12.12 33.49,11.86 33.60,11.45 33.70,11.10 33.81,10.90 33.92,10.88 34.02,10.93 34.13,11.03 34.24,10.98 34.34,10.80 34.45,10.61 34.56,10.53 34.66,10.53 34.77,10.59 34.88,10.78 34.98,10.96 35.09,11.14 35.20,11.35 35.30,11.52 35.41,11.65 35.52,11.80 35.63,11.96 35.73,12.15 35.84,12.40 35.95,12.65 36.05,13.01 36.16,13.40 36.27,13.77 36.37,14.08 36.48,14.32 36.59,14.54 36.69,14.72 36.80,14.80 36.91,14.74 37.01,14.68 37.12,14.62 37.23,14.55 37.33,14.47 37.44,14.39 37.55,14.27 37.66,14.11 37.76,13.96 37.87,13.88 37.98,13.78 38.08,13.66 38.19,13.49 38.30,13.29 38.40,13.00 38.51,12.67 38.62,12.30 38.72,11.95 38.83,11.60 38.94,11.26 39.04,10.90 39.15,10.60 39.26,10.30 39.36,10.05 39.47,9.80 39.58,9.60 39.69,9.39 39.79,9.21 39.90,9.08 40.01,8.93 40.11,8.76 40.22,8.60 40.33,8.48 40.43,8.41 40.54,8.31 40.65,8.12 40.75,7.87 40.86,7.53 40.97,7.21 41.07,6.86 41.18,6.54 41.29,6.29 41.39,6.09 41.50,5.96 41.61,5.83 41.72,5.71 41.82,5.54 41.93,5.36 42.04,5.18 42.14,5.02 42.25,4.85 42.36,4.73 42.46,4.68 42.57,4.67 42.68,4.68 42.78,4.71 42.89,4.83 43.00,4.98 43.10,5.17 43.21,5.45 43.32,5.77 43.42,6.11 43.53,6.44 43.64,6.71 43.75,6.98 43.85,7.25 43.96,7.48 44.07,7.69 44.17,7.87 44.28,8.07 44.39,8.29 44.49,8.52 44.60,8.78 44.71,9.05 44.81,9.31 44.92,9.58 45.03,9.87 45.13,10.16 45.24,10.45 45.35,10.74 45.45,11.07 45.56,11.36 45.67,11.69 45.78,12.05 45.88,12.43 45.99,12.81 46.10,13.21 46.20,13.62 46.31,13.98 46.42,14.32 46.52,14.58 46.63,14.78 46.74,14.91 46.84,14.95 46.95,14.88 47.06,14.67 47.16,14.45 47.27,14.06 47.38,13.72 47.48,13.47 47.59,13.35 47.70,13.38 47.81,13.52 47.91,13.71 48.02,13.96 48.13,14.23 48.23,14.45 48.34,14.65 48.45,14.86 48.55,15.06 48.66,15.28 48.77,15.48 48.87,15.71 48.98,15.95 49.09,16.18 49.19,16.39 49.30,16.58 49.41,16.78 49.51,17.07 49.62,17.36 49.73,17.67 49.84,17.91 49.94,18.17 50.05,18.38 50.16,18.56 50.26,18.75 50.37,18.96 50.48,19.19 50.58,19.51 50.69,19.93 50.80,20.40 50.90,20.79 51.01,21.18 51.12,21.55 51.22,21.95 51.33,22.24 51.44,22.44 51.54,22.61 51.65,22.80 51.76,23.05 51.87,23.31 51.97,23.63 52.08,23.88 52.19,24.09 52.29,24.29 52.40,24.56 52.51,24.79 52.61,25.02 52.72,25.26 52.83,25.48 52.93,25.67 53.04,25.84 53.15,26.02 53.25,26.22 53.36,26.40 53.47,26.56 53.57,26.74 53.68,26.89 53.79,26.98 53.90,27.35 54.00,28.04 54.11,28.66 54.22,29.37 54.32,30.03 54.43,30.72 54.54,30.46 54.64,31.25 54.75,31.78 54.86,31.75 54.96,32.28 55.07,32.94 55.18,33.39 55.28,33.91 55.39,34.36 55.50,34.62 55.60,35.28 55.71,35.90 55.82,36.34 55.93,36.48 56.03,36.53 56.14,36.22 56.25,35.75 56.35,35.52 56.46,34.99 56.57,34.57 56.67,34.31 56.78,34.26 56.89,34.29 56.99,34.22 57.10,34.03 57.21,33.68 57.31,33.40 57.42,33.30 57.53,33.24 57.63,33.34 57.74,33.49 57.85,33.54 57.96,33.61 58.06,33.79 58.17,34.24 58.28,34.71 58.38,34.94 58.49,35.21 58.60,35.31 58.70,35.34 58.81,35.56 58.92,35.88 59.02,36.06 59.13,36.46 59.24,36.92 59.34,37.16 59.45,37.77 59.56,38.28 59.66,38.99 59.77,39.39 59.88,39.58 59.99,39.92 60.09,40.40 60.20,40.60 60.31,40.70 60.41,41.03 60.52,41.21 60.63,41.41 60.73,41.38 60.84,41.21 60.95,41.44 61.05,42.06 61.16,42.62 61.27,42.81 61.37,43.04 61.48,42.93 61.59,42.54 61.69,42.03 61.80,42.09 61.91,42.42 62.02,42.54 62.12,42.11 62.23,41.69 62.34,40.97 62.44,40.27 62.55,39.77 62.66,39.67 62.76,39.94 62.87,39.98 62.98,40.17 63.08,40.31 63.19,39.96 63.30,39.70 63.40,39.58 63.51,39.41 63.62,39.57 63.72,39.91 63.83,39.94 63.94,40.09 64.05,40.29 64.15,40.41 64.26,40.42 64.37,41.04 64.47,41.46 64.58,42.13 64.69,42.81 64.79,43.10 64.90,43.46 65.01,43.94 65.11,44.24 65.22,44.48 65.33,44.67 65.43,45.17 65.54,45.80 65.65,46.15 65.75,46.67 65.86,47.05 65.97,47.55 66.08,47.86 66.18,47.92 66.29,47.95 66.40,48.20 66.50,48.29 66.61,48.39 66.72,48.44 66.82,48.55 66.93,48.60 67.04,48.73 67.14,48.89 67.25,49.24 67.36,49.71 67.46,49.89 67.57,49.68 67.68,49.84 67.78,49.72 67.89,50.12 68.00,50.38 68.11,50.46 68.21,50.68 68.32,50.88 68.43,51.28 68.53,51.50 68.64,51.35 68.75,51.17 68.85,51.29 68.96,51.59 69.07,51.99 69.17,52.64 69.28,53.19 69.39,53.62 69.49,53.79 69.60,53.79 69.71,54.05 69.81,54.49 69.92,54.73 70.03,54.99 70.14,55.23 70.24,55.32 70.35,55.23 70.46,55.14 70.56,55.08 70.67,55.10 70.78,55.01 70.88,54.80 70.99,54.54 71.10,54.77 71.20,54.99 71.31,55.08 71.42,55.00 71.52,54.94 71.63,7.26 71.74,7.50 71.84,7.70 71.95,7.90 72.06,8.09 72.17,8.32 72.27,8.53 72.38,8.82 72.49,9.06 72.59,9.33 72.70,9.60 72.81,9.89 72.91,10.16 73.02,10.47 73.13,10.76 73.23,11.08 73.34,11.38 73.45,11.71 73.55,12.07 73.66,12.44 73.77,12.84 73.87,13.23 73.98,13.65 74.09,14.00 74.20,14.34 74.30,14.59 74.41,14.80 74.52,14.93 74.62,14.97 74.73,14.89 74.84,14.69 74.94,14.47 75.05,14.08 75.16,13.74 75.26,13.49 75.37,13.37 75.48,13.40 75.58,13.54 75.69,13.74 75.80,13.98 75.90,14.25 76.01,14.47 76.12,14.67 76.23,14.89 76.33,15.09 76.44,15.29 76.55,15.51 76.65,15.74 76.76,15.98 76.87,16.21 76.97,16.41 77.08,16.60 77.19,16.81 77.29,17.09 77.40,17.38 77.51,17.68 77.61,17.92 77.72,18.18 77.83,18.39 77.93,18.59 78.04,18.78 78.15,18.97 78.26,19.20 78.36,19.52 78.47,19.94 78.58,20.41 78.68,20.80 78.79,21.20 78.90,21.56 79.00,21.96 79.11,22.25 79.22,22.44 79.32,22.62 79.43,22.80 79.54,23.06 79.64,23.31 79.75,23.62 79.86,23.86 79.96,24.09 80.07,24.30 80.18,24.55 80.29,24.79 80.39,25.02 80.50,25.26 80.61,25.48 80.71,25.67 80.82,25.85 80.93,26.02 81.03,26.23 81.14,26.40 81.25,26.56 81.35,26.74 81.46,26.89 81.57,26.98 81.67,27.37 81.78,28.04 81.89,28.67 81.99,29.33 82.10,30.01 82.21,30.73 82.32,30.49 82.42,31.30 82.53,31.94 82.64,31.81 82.74,32.38 82.85,33.01 82.96,33.47 83.06,33.93 83.17,34.38 83.28,34.62 83.38,35.32 83.49,35.91 83.60,36.39 83.70,36.49 83.81,36.54 83.92,36.38 84.02,35.85 84.13,35.57 84.24,35.04 84.35,34.57 84.45,34.31 84.56,34.26 84.67,34.35 84.77,34.29 84.88,34.03 84.99,33.69 85.09,33.41 85.20,33.32 85.31,33.25 85.41,33.36 85.52,33.56 85.63,33.59 85.73,33.65 85.84,33.82 85.95,34.25 86.05,34.72 86.16,34.96 86.27,41.04 86.38,41.49 86.48,42.12 86.59,42.81 86.70,43.07 86.80,43.46 86.91,43.93 87.02,44.23 87.12,44.41 87.23,44.66 87.34,45.16 87.44,45.80 87.55,46.20 87.66,46.74 87.76,47.04 87.87,47.55 87.98,47.86 88.08,47.93 88.19,47.95 88.30,48.20 88.41,48.29 88.51,48.40 88.62,48.44 88.73,48.55 88.83,48.61 88.94,48.75 89.05,48.90 89.15,49.22 89.26,49.70 89.37,49.89 89.47,49.70 89.58,49.85 89.69,49.73 89.79,50.12 89.90,50.39 90.01,50.46 90.11,50.66 90.22,50.86 90.33,51.29 90.44,51.49 90.54,51.36 90.65,51.18 90.76,51.30 90.86,51.59 90.97,52.05 91.08,52.62 91.18,53.18 91.29,53.59 91.40,53.78 91.50,53.81 91.61,54.06 91.72,54.49 91.82,54.74 91.93,55.00 92.04,55.21 92.14,55.34 92.25,55.24 92.36,55.16 92.47,55.11 92.57,55.12 92.68,55.02 92.79,54.80 92.89,54.51 93.00,54.77 93.11,54.98 93.21,55.09 93.32,55.01 93.43,54.94 93.53,11.79 93.64,11.62 93.75,11.74 93.85,11.83 93.96,11.91 94.07,11.78 94.17,11.57 94.28,11.34 94.39,11.20 94.50,10.99 94.60,10.80 94.71,10.51 94.82,10.20 94.92,10.13 95.03,9.93 95.14,9.89 95.24,9.82 95.35,9.80 95.46,9.82 95.56,9.78 95.67,9.74 95.78,9.63 95.88,9.66 95.99,9.40 96.10,8.92 96.20,8.62 96.31,8.34 96.42,8.17 96.53,8.16 96.63,8.18 96.74,8.19 96.85,8.12 96.95,8.11 97.06,8.11 97.17,8.20 97.27,8.27 97.38,8.35 97.49,8.45 97.59,8.48 97.70,8.43 97.81,8.35 97.91,8.23 98.02,8.10 98.13,7.98 98.23,7.89 98.34,7.86 98.45,7.90 98.56,8.12 98.66,8.38 98.77,8.71 98.88,8.99 98.98,9.05 99.09,9.15 99.20,9.27 99.30,9.36 99.41,9.42 99.52,9.55 99.62,9.37 99.73,9.23 99.84,9.24 99.94,9.22 100.05,9.30 100.16,9.47 100.26,9.68 100.37,10.00 100.48,10.28 100.59,10.53 100.69,10.74 100.80,11.11 100.91,11.13 101.01,11.37 101.12,11.60 101.23,11.79 101.33,12.18 101.44,12.31 101.55,12.58 101.65,12.82 101.76,13.00 101.87,13.24 101.97,13.45 102.08,13.74 102.19,14.09 102.29,14.43 102.40,14.72 102.51,14.98 102.62,15.20 102.72,15.37 102.83,15.58 102.94,15.83 103.04,15.97 103.15,16.06 103.26,15.95 103.36,15.82 103.47,15.81 103.58,15.66 103.68,15.52 103.79,15.54 103.90,15.42 104.00,15.40 104.11,15.22 104.22,15.16 104.32,15.06 104.43,14.98 104.54,14.95 104.65,14.77 104.75,14.51 104.86,14.15 104.97,13.90 105.07,14.04 105.18,14.23 105.29,14.45 105.39,14.55 105.50,14.72 105.61,14.63 105.71,14.50 105.82,14.56 105.93,14.61 106.03,14.70 106.14,15.01 106.25,15.25 106.35,15.44 106.46,15.63 106.57,15.96 106.68,16.22 106.78,16.54 106.89,16.75 107.00,17.03 107.10,17.26 107.21,17.54 107.32,17.68 107.42,17.90 107.53,18.26 107.64,18.59 107.74,18.88 107.85,19.20 107.96,19.53 108.06,19.94 108.17,19.81 108.28,19.69 108.38,19.53 108.49,19.32 108.60,19.08 108.71,18.79 108.81,18.58 108.92,18.46 109.03,18.23 109.13,18.07 109.24,17.89 109.35,17.81 109.45,17.63 109.56,17.54 109.67,17.27 109.77,17.18 109.88,17.18 109.99,17.05 110.09,16.86 110.20,16.80 110.31,16.72 110.41,16.74 110.52,16.83 110.63,16.92 110.74,16.96 110.84,16.98 110.95,17.12 111.06,17.31 111.16,17.60 111.27,17.79 111.38,17.91 111.48,18.09 111.59,18.12 111.70,18.64 111.80,18.91 111.91,18.84 112.02,19.15 112.12,18.89 112.23,18.84 112.34,18.68 112.44,18.53 112.55,18.48 112.66,18.36 112.77,17.87 112.87,17.98 112.98,18.83 113.09,19.08 113.19,18.92 113.30,18.84 113.41,18.68 113.51,18.48 113.62,18.35 113.73,18.40 113.83,18.66 113.94,18.91 114.05,19.02 114.15,19.00 114.26,18.85 114.37,18.78 114.47,18.46 114.58,18.02 114.69,17.87 114.80,17.75 114.90,17.73 115.01,17.67 115.12,17.59 115.22,17.40 115.33,17.24 115.44,17.00 115.54,17.01 115.65,16.78 115.76,16.68 115.86,16.74 115.97,16.59 116.08,16.72 116.18,16.72 116.29,16.70 116.40,16.66 116.50,16.54 116.61,16.46 116.72,16.35 116.83,16.18 116.93,16.09 117.04,15.86 117.15,15.74 117.25,15.49 117.36,15.28 117.47,15.04 117.57,14.81 117.68,14.61 117.79,14.43 117.89,14.28 118.00,14.13 118.11,13.83 118.21,13.34 118.32,13.22 118.43,13.26 118.53,12.99 118.64,12.81 118.75,12.63 118.86,12.22 118.96,12.13 119.07,11.89 119.18,11.74 119.28,11.57 119.39,11.71 119.50,11.78 119.60,11.91 119.71,11.99 119.82,12.17 119.92,12.43 120.03,12.38 120.14,12.56 120.24,12.73 120.35,12.89 120.46,13.07 120.56,13.16 120.67,13.11 120.78,13.01 120.89,12.89 120.99,12.77 121.10,12.68 121.21,12.61 121.31,12.56 121.42,12.57 121.53,12.52 121.63,12.56 121.74,12.47 121.85,12.41 121.95,12.38 122.06,12.32 122.17,12.27 122.27,12.27 122.38,12.26 122.49,12.23 122.59,12.28 122.70,12.22 122.81,12.20 122.92,12.17 123.02,11.90 123.13,11.44 123.24,11.15 123.34,10.89 123.45,10.83 123.56,10.88 123.66,10.84 123.77,10.94 123.88,10.76 123.98,10.65 124.09,10.57 124.20,10.65 124.30,10.83 124.41,10.92 124.52,10.66 124.62,11.37 124.73,11.56 124.84,11.64 124.95,11.85 125.05,11.95 125.16,12.20 125.27,12.28 125.37,12.46 125.48,12.82 125.59,13.30 125.69,13.76 125.80,14.00 125.91,14.27 126.01,14.59 126.12,14.78 126.23,14.83 126.33,14.76 126.44,14.72 126.55,14.67 126.65,14.54 126.76,14.49 126.87,14.52 126.98,14.32 127.08,14.16 127.19,14.00 127.30,13.88 127.40,13.74 127.51,13.74 127.62,13.54 127.72,13.30 127.83,13.00 127.94,12.75 128.04,12.34 128.15,12.01 128.26,11.70 128.36,11.38 128.47,10.90 128.58,10.62 128.68,10.36 128.79,10.06 128.90,9.78 129.01,9.58 129.11,9.39 129.22,9.26 129.33,9.09 129.43,8.98 129.54,8.82 129.65,8.65 129.75,8.53 129.86,8.61 129.97,8.32 130.07,8.11 130.18,7.97 130.29,7.72 130.39,7.29 130.50,7.00 130.61,6.57 130.71,6.41 130.82,6.15 130.93,5.99 131.04,6.02 131.14,5.75 131.25,5.61 131.36,5.40 131.46,5.26 131.57,5.05 131.68,4.93 131.78,4.76 131.89,4.70 132.00,4.70 132.10,4.69 132.21,4.71 132.32,4.83 132.42,4.97 132.53,5.13 132.64,5.43 132.74,5.75 132.85,5.94 132.96,6.16 133.07,6.57 133.17,7.02 133.28,7.25 133.39,7.57 133.49,7.73 133.60,7.84 133.71,8.11 133.81,8.29 133.92,8.46 134.03,8.75 134.13,8.87 134.24,9.30 134.35,9.53 134.45,9.89 134.56,10.12 134.67,10.48 134.77,10.73 134.88,11.04 134.99,11.36 135.10,11.73 135.20,12.04 135.31,12.39 135.42,12.72 135.52,13.25 135.63,13.62 135.74,13.98 135.84,14.33 135.95,14.70 136.06,14.82 136.16,14.95 136.27,15.09 136.38,14.94 136.48,14.76 136.59,14.47 136.70,14.13 136.80,13.78 136.91,13.54 137.02,13.39 137.13,13.42 137.23,13.53 137.34,13.65 137.45,14.00 137.55,14.42 137.66,14.66 137.77,14.80 137.87,14.83 137.98,15.16 138.09,15.29 138.19,15.48 138.30,15.82 138.41,15.97 138.51,16.29 138.62,16.51 138.73,16.66 138.83,16.77 138.94,17.02 139.05,17.35 139.16,17.75 139.26,17.89 139.37,18.19 139.48,18.41 139.58,18.61 139.69,18.84 139.80,18.99 139.90,19.12 140.01,19.45 140.12,19.81 140.22,20.39 140.33,20.70 140.44,20.99 140.54,21.53 140.65,21.91 140.76,22.28 140.86,22.45 140.97,22.65 141.08,22.79 141.19,22.99 141.29,23.31 141.40,23.60 141.51,23.95 141.61,24.07 141.72,24.33 141.83,24.52 141.93,24.85 142.04,25.00 142.15,25.36 142.25,25.61 142.36,25.88 142.47,25.94 142.57,26.08 142.68,26.39 142.79,26.44 142.89,26.63 143.00,26.75 143.11,26.88 143.22,26.96 143.32,27.26 143.43,27.93 143.54,28.63 143.64,29.17 143.75,29.74 143.86,30.22 143.96,30.66 144.07,31.00 144.18,31.74 144.28,31.85 144.39,32.44 144.50,32.98 144.60,33.29 144.71,34.08 144.82,34.26 144.92,34.58 145.03,35.55 145.14,35.96 145.25,36.31 145.35,36.58 145.46,36.57 145.57,36.45 145.67,35.87 145.78,35.60 145.89,35.17 145.99,34.62 146.10,34.65 146.21,34.40 146.31,34.39 146.42,34.29 146.53,34.05 146.63,33.94 146.74,33.48 146.85,33.46 146.95,33.33 147.06,33.57 147.17,33.78 147.28,33.59 147.38,33.65 147.49,33.85 147.60,34.14 147.70,34.70 147.81,34.91 147.92,35.03 148.02,35.25 148.13,35.44 148.24,35.60 148.34,35.89 148.45,35.94 148.56,36.36 148.66,36.75 148.77,37.17 148.88,37.63 148.98,38.12 149.09,38.89 149.20,39.42 149.31,39.58 149.41,39.95 149.52,40.17 149.63,40.39 149.73,40.64 149.84,40.90 149.95,41.16 150.05,41.37 150.16,41.24 150.27,41.24 150.37,41.40 150.48,41.91 150.59,42.47 150.69,42.83 150.80,43.08 150.91,42.90 151.02,42.69 151.12,42.19 151.23,42.05 151.34,42.28 151.44,42.49 151.55,42.26 151.66,41.54 151.76,41.06 151.87,40.27 151.98,39.69 152.08,39.65 152.19,39.86 152.30,39.93 152.40,40.07 152.51,40.32 152.62,39.86 152.72,39.72 152.83,39.52 152.94,39.47 153.05,39.47 153.15,39.89 153.26,40.10 153.37,40.15 153.47,40.22 153.58,40.38 153.69,40.46 153.79,41.05 153.90,41.55 154.01,42.04 154.11,42.77 154.22,43.12 154.33,43.37 154.43,43.76 154.54,43.96 154.65,44.20 154.75,44.49 154.86,45.07 154.97,45.79 155.08,46.23 155.18,46.74 155.29,47.07 155.40,47.66 155.50,47.98 155.61,48.02 155.72,47.98 155.82,48.48 155.93,48.34 156.04,48.43 156.14,48.45 156.25,48.62 156.36,48.66 156.46,48.89 156.57,49.06 156.68,49.38 156.78,49.80 156.89,50.00 157.00,49.71 157.11,50.34 157.21,49.73 157.32,50.30 157.43,50.52 157.53,50.89 157.64,50.70 157.75,50.78 157.85,51.19 157.96,51.54 158.07,51.37 158.17,51.30 158.28,51.18 158.39,51.50 158.49,51.92 158.60,52.59 158.71,52.83 158.81,53.52 158.92,53.96 159.03,53.66 159.14,53.74 159.24,54.30 159.35,54.74 159.46,55.03 159.56,55.27 159.67,55.51 159.78,55.35 159.88,55.52 159.99,55.39 160.10,55.13 160.20,55.11 160.31,54.95 160.42,54.64 160.52,54.76 160.63,54.92 160.74,55.25 160.84,54.97 160.95,54.98 161.06,11.87 161.17,11.72 161.27,11.96 161.38,11.89 161.49,11.87 161.59,11.87 161.70,11.47 161.81,11.26 161.91,11.09 162.02,10.82 162.13,10.74 162.23,10.37 162.34,10.14 162.45,9.89 162.55,9.79 162.66,9.56 162.77,9.75 162.87,9.57 162.98,9.93 163.09,9.71 163.20,9.47 163.30,9.75 163.41,9.44 163.52,9.62 163.62,8.56 163.73,8.06 163.84,8.27 163.94,8.18 164.05,8.09 164.16,8.22 164.26,8.09 164.37,8.01 164.48,8.01 164.58,8.08 164.69,8.18 164.80,8.27 164.90,8.33 165.01,8.35 165.12,8.30 165.23,8.30 165.33,8.52 165.44,8.28 165.55,8.11 165.65,7.85 165.76,7.77 165.87,7.72 165.97,7.89 166.08,8.10 166.19,8.23 166.29,8.44 166.40,8.62 166.51,8.93 166.61,9.03 166.72,9.12 166.83,9.23 166.93,9.30 167.04,9.08 167.15,8.86 167.26,8.68 167.36,9.25 167.47,9.17 167.58,9.16 167.68,9.36 167.79,9.55 167.90,9.75 168.00,9.94 168.11,10.07 168.22,10.78 168.32,10.74 168.43,11.17 168.54,11.10 168.64,11.46 168.75,11.80 168.86,12.27 168.96,12.10 169.07,12.36 169.18,12.67 169.29,12.90 169.39,13.20 169.50,13.39 169.61,13.59 169.71,14.04 169.82,14.43 169.93,14.51 170.03,15.00 170.14,15.15 170.25,15.22 170.35,15.54 170.46,15.65 170.57,16.04 170.67,15.77 170.78,15.75 170.89,15.76 170.99,15.79 171.10,15.80 171.21,15.25 171.32,15.33 171.42,15.46 171.53,15.67 171.64,15.23 171.74,15.28 171.85,14.87 171.96,14.96 172.06,14.90 172.17,14.90 172.28,14.32 172.38,14.09 172.49,13.87 172.60,14.35 172.70,14.57 172.81,14.70 172.92,14.64 173.02,14.97 173.13,14.56 173.24,14.28 173.35,14.44 173.45,14.43 173.56,15.11 173.67,15.17 173.77,15.79 173.88,15.79 173.99,16.46 174.09,15.97 174.20,16.05 174.31,17.60 174.41,17.79 174.52,17.87 174.63,17.76 174.73,17.78 174.84,17.90 174.95,18.14 175.05,18.36 175.16,18.50 175.27,18.69 175.38,19.66 175.48,19.92 175.59,20.16 175.70,20.09 175.80,19.48 175.91,19.60 176.02,18.55 176.12,18.81 176.23,17.62 176.34,18.18 176.44,18.56 176.55,17.81 176.66,17.17 176.76,17.81 176.87,17.22 176.98,17.55 177.08,17.16 177.19,17.22 177.30,17.24 177.41,17.32 177.51,17.25 177.62,16.98 177.73,16.68 177.83,16.42 177.94,16.51 178.05,16.58 178.15,16.65 178.26,16.69 178.37,17.05 178.47,16.73 178.58,17.54 178.69,17.84 178.79,18.32 178.90,17.79 179.01,17.75 179.11,18.48 179.22,18.80 179.33,19.33 179.44,18.96 179.54,19.42 179.65,19.07 179.76,18.78 179.86,18.54 179.97,18.65 180.08,18.71 180.18,18.78 180.29,18.75 180.40,18.43 180.50,18.96 180.61,19.12 180.72,18.86 180.82,18.27 180.93,18.63 181.04,18.21 181.14,18.34 181.25,18.66 181.36,18.57 181.47,18.98 181.57,19.17 181.68,18.75 181.79,18.75 181.89,18.32 182.00,18.27 182.11,17.85 182.21,17.76 182.32,17.22 182.43,17.87 182.53,17.56 182.64,17.80 182.75,17.33 182.85,16.91 182.96,16.64 183.07,16.79 183.17,17.04 183.28,16.53 183.39,16.52 183.50,16.74 183.60,16.36 183.71,17.01 183.82,16.95 183.92,16.97 184.03,17.10 184.14,17.26 184.24,17.24 184.35,17.32 184.46,17.71 184.56,15.78 184.67,15.88 184.78,15.93 184.88,16.14 184.99,15.34 185.10,15.91 185.20,15.02 185.31,15.45 185.42,14.44 185.53,14.50 185.63,14.45 185.74,13.24 185.85,13.16 185.95,13.14 186.06,12.97 186.17,12.72 186.27,12.66 186.38,12.30 186.49,11.98 186.59,11.60 186.70,11.76 186.81,11.87 186.91,11.71 187.02,12.94 187.13,12.68 187.23,12.55 187.34,12.51 187.45,12.68 187.56,12.96 187.66,13.24 187.77,13.64 187.88,13.25 187.98,13.10 188.09,13.25 188.20,13.15 188.30,12.84 188.41,12.20 188.52,12.56 188.62,12.09 188.73,12.50 188.84,12.13 188.94,12.54 189.05,12.15 189.16,12.48 189.26,12.28 189.37,11.80 189.48,12.38 189.59,12.15 189.69,12.03 189.80,12.06 189.91,12.17 190.01,12.30 190.12,12.47 190.23,12.09 190.33,12.28 190.44,11.88 190.55,11.61 190.65,11.21 190.76,10.83 190.87,10.61 190.97,10.68 191.08,10.79 191.19,10.79 191.29,10.82 191.40,10.60 191.51,10.26 191.62,10.06 191.72,10.17 191.83,10.58 191.94,11.14 192.04,10.63 192.15,11.14 192.26,11.79 192.36,11.31 192.47,12.04 192.58,11.99 192.68,12.15 192.79,12.59 192.90,12.30 193.00,13.01 193.11,13.57 193.22,14.20 193.32,13.70 193.43,13.95 193.54,14.88 193.65,14.88 193.75,15.04 193.86,14.52 193.97,14.52 194.07,14.32 194.18,14.41 194.29,13.94 194.39,14.26 194.50,13.71 194.61,14.11 194.71,13.65 194.82,13.58 194.93,13.28 195.03,13.77 195.14,13.75 195.25,13.29 195.35,13.18 195.46,12.77 195.57,12.07 195.68,11.84 195.78,11.67 195.89,10.82 196.00,10.62 196.10,10.14 196.21,10.05 196.32,9.74 196.42,9.45 196.53,9.34 196.64,9.18 196.74,9.03 196.85,8.81 196.96,8.71 197.06,8.63 197.17,8.56 197.28,8.55 197.38,8.60 197.49,8.04 197.60,7.87 197.71,8.07 197.81,7.63 197.92,7.16 198.03,7.19 198.13,6.32 198.24,5.82 198.35,5.37 198.45,5.12 198.56,6.07 198.67,5.11 198.77,5.11 198.88,4.82 198.99,4.74 199.09,4.73 199.20,4.73 199.31,4.71 199.41,4.69 199.52,4.72 199.63,4.81 199.74,4.89 199.84,5.01 199.95,5.01 200.06,5.21 200.16,5.53 200.27,5.96 200.38,5.96 200.48,6.04 200.59,6.98 200.70,7.30 200.80,7.56 200.91,7.74 201.02,7.83 201.12,7.67 201.23,8.19 201.34,8.17 201.44,8.63 201.55,8.68 201.66,8.87 201.77,9.08 201.87,9.31 201.98,9.90 202.09,10.25 202.19,10.58 202.30,10.93 202.41,10.41 202.51,10.84 202.62,11.76 202.73,11.97 202.83,12.39 202.94,12.70 203.05,13.40 203.15,13.80 203.26,14.23 203.37,14.82 203.47,15.18 203.58,15.21 203.69,15.34 203.80,15.27 203.90,14.93 204.01,14.62 204.12,14.54 204.22,14.17 204.33,13.76 204.44,13.43 204.54,13.26 204.65,13.31 204.76,13.58 204.86,13.46 204.97,14.10 205.08,14.80 205.18,14.37 205.29,14.76 205.40,15.16 205.50,15.48 205.61,15.19 205.72,15.57 205.83,15.97 205.93,16.32 206.04,16.58 206.15,16.70 206.25,16.82 206.36,16.82 206.47,16.87 206.57,17.33 206.68,17.54 206.79,18.00 206.89,18.35 207.00,18.53 207.11,18.63 207.21,18.78 207.32,19.02 207.43,19.32 207.53,19.69 207.64,19.85 207.75,20.53 207.86,20.99 207.96,21.50 208.07,21.54 208.18,22.26 208.28,22.45 208.39,22.64 208.50,22.65 208.60,22.62 208.71,23.05 208.82,23.52 208.92,23.81 209.03,24.07 209.14,24.20 209.24,24.30 209.35,24.34 209.46,24.35 209.56,24.35 209.67,25.60 209.78,25.41 209.89,25.18 209.99,26.21 210.10,25.96 210.21,26.59 210.31,26.33 210.42,26.75 210.53,26.73 210.63,26.81 210.74,27.02 210.85,27.22 210.95,27.88 211.06,28.27 211.17,28.45 211.27,29.24 211.38,30.73 211.49,31.50 211.59,32.30 211.70,32.84 211.81,33.00 211.92,33.00 212.02,32.91 212.13,34.14 212.24,34.26 212.34,34.26 212.45,34.72 212.56,35.24 212.66,35.77 212.77,36.23 212.88,36.46 212.98,36.72 213.09,36.23 213.20,35.24 213.30,35.09 213.41,33.63 213.52,33.62 213.62,35.05 213.73,34.24 213.84,33.66 213.95,34.68 214.05,33.93 214.16,33.03 214.27,33.48 214.37,32.54 214.48,33.21 214.59,32.71 214.69,34.11 214.80,34.07 214.91,34.20 215.01,34.77 215.12,33.78 215.23,34.95 215.33,34.54 215.44,34.94 215.55,35.08 215.65,34.85 215.76,35.91 215.87,35.92 215.98,36.47 216.08,37.15 216.19,36.55 216.30,37.55 216.40,37.91 216.51,38.36 216.62,39.13 216.72,39.53 216.83,39.53 216.94,40.13 217.04,40.14 217.15,40.53 217.26,40.70 217.36,41.16 217.47,41.34 217.58,41.23 217.68,41.05 217.79,41.27 217.90,41.61 218.01,42.25 218.11,43.22 218.22,42.91 218.33,43.45 218.43,42.99 218.54,42.91 218.65,42.33 218.75,42.30 218.86,42.32 218.97,42.51 219.07,41.76 219.18,41.31 219.29,40.85 219.39,39.13 219.50,39.14 219.61,39.51 219.71,40.08 219.82,39.72 219.93,39.30 220.04,39.52 220.14,38.73 220.25,39.88 220.36,39.48 220.46,39.65 220.57,38.49 220.68,38.75 220.78,40.09 220.89,39.84 221.00,39.87 221.10,40.36 221.21,40.72 221.32,41.24 221.42,41.66 221.53,42.12 221.64,42.98 221.74,44.05 221.85,43.94 221.96,44.29 222.07,45.09 222.17,44.64 222.28,44.93 222.39,45.03 222.49,45.53 222.60,46.19 222.71,46.86 222.81,46.87 222.92,47.28 223.03,47.22 223.13,48.01 223.24,47.84 223.35,48.13 223.45,46.89 223.56,47.93 223.67,47.93 223.77,48.94 223.88,48.45 223.99,48.66 224.10,48.59 224.20,49.49 224.31,48.86 224.42,49.13 224.52,49.97 224.63,49.89 224.74,48.99 224.84,50.38 224.95,49.69 225.06,50.67 225.16,50.02 225.27,49.85 225.38,50.10 225.48,51.18 225.59,51.53 225.70,51.14 225.80,50.57 225.91,50.37 226.02,52.41 226.13,53.05 226.23,51.82 226.34,52.44 226.45,53.04 226.55,53.76 226.66,53.96 226.77,54.40 226.87,54.23 226.98,54.79 227.09,54.79 227.19,55.47 227.30,55.61 227.41,55.64 227.51,54.15 227.62,54.98 227.73,54.57 227.83,54.51 227.94,53.94 228.05,53.89 228.16,53.95 228.26,55.56 228.37,55.21 228.48,55.20 228.58,11.94 228.69,11.94 228.80,12.38 228.90,11.22 229.01,11.22 229.12,11.09 229.22,11.09 229.33,10.41 229.44,10.41 229.54,10.41 229.65,9.37 229.76,9.37 229.86,9.98 229.97,9.02 230.08,9.02 230.19,9.02 230.29,8.21 230.40,8.21 230.51,9.92 230.61,9.13 230.72,9.13 230.83,9.13 230.93,7.91 231.04,7.91 231.15,7.16 231.25,7.16 231.36,8.41 231.47,8.86 231.57,8.19 231.68,8.19 231.79,8.19 231.89,8.09 232.00,8.09 232.11,8.09 232.22,8.34 232.32,8.34 232.43,8.34 232.54,8.43 232.64,8.43 232.75,8.43 232.86,9.11 232.96,7.98 233.07,7.98 233.18,7.98 233.28,7.96 233.39,8.44 233.50,8.44 233.60,8.45 233.71,8.45 233.82,8.45 233.92,8.45 234.03,8.45 234.14,8.59 234.25,8.59 234.35,8.59 234.46,8.42 234.57,8.42 234.67,8.11 234.78,8.11 234.89,8.11 234.99,8.35 235.10,8.35 235.21,8.94 235.31,8.94 235.42,8.94 235.53,9.73 235.63,9.73 235.74,10.80 235.85,10.82 235.95,10.82 236.06,10.82 236.17,11.60 236.28,11.95 236.38,11.95 236.49,11.95 236.60,12.87 236.70,13.03 236.81,13.03 236.92,13.03 237.02,13.60 237.13,13.60 237.24,13.60 237.34,14.64 237.45,15.02 237.56,15.02 237.66,15.02 237.77,15.78 237.88,15.78 237.98,16.23 238.09,16.23 238.20,16.23 238.31,16.50 238.41,16.50 238.52,16.50 238.63,16.66 238.73,16.66 238.84,16.66 238.95,17.00 239.05,17.00 239.16,15.16 239.27,15.37 239.37,15.37 239.48,15.37 239.59,14.17 239.69,14.17 239.80,14.17 239.91,14.17 240.01,15.03 240.12,15.03 240.23,15.03 240.34,15.53 240.44,15.53 240.55,15.53 240.66,14.38 240.76,15.34 240.87,15.34 240.98,15.34 241.08,15.27 241.19,15.27 241.30,18.84 241.40,18.84 241.51,18.84 241.62,17.88 241.72,17.88 241.83,17.88 241.94,18.03 242.04,18.03 242.15,18.03 242.26,17.93 242.37,17.93 242.47,18.00 242.58,18.00 242.69,18.00 242.79,18.13 242.90,20.17 243.01,20.17 243.11,20.17 243.22,20.17 243.33,16.29 243.43,17.17 243.54,17.17 243.65,17.17 243.75,18.56 243.86,18.56 243.97,18.56 244.07,17.22 244.18,17.22 244.29,17.22 244.40,17.22 244.50,16.05 244.61,16.05 244.72,16.05 244.82,16.18 244.93,16.18 245.04,16.18 245.14,15.69 245.25,15.69 245.36,15.84 245.46,15.84 245.57,15.84 245.68,16.54 245.78,16.54 245.89,18.49 246.00,18.49 246.10,19.27 246.21,19.27 246.32,19.27 246.43,19.27 246.53,19.53 246.64,19.53 246.75,19.53 246.85,21.81 246.96,20.14 247.07,20.14 247.17,20.14 247.28,19.17 247.39,19.17 247.49,19.17 247.60,20.05 247.71,20.05 247.81,19.64 247.92,19.64 248.03,19.64 248.13,19.64 248.24,18.33 248.35,18.33 248.46,18.33 248.56,18.33 248.67,22.58 248.78,22.58 248.88,18.50 248.99,18.19 249.10,18.19 249.20,19.58 249.31,19.58 249.42,15.36 249.52,15.36 249.63,16.11 249.74,16.11 249.84,18.49 249.95,18.49 250.06,18.49 250.16,16.94 250.27,16.94 250.38,16.94 250.49,17.24 250.59,17.24 250.70,17.24 250.81,17.24 250.91,19.49 251.02,17.74 251.13,17.74 251.23,17.74 251.34,17.29 251.45,17.29 251.55,17.29 251.66,17.53 251.77,17.53 251.87,17.73 251.98,17.73 252.09,17.73 252.19,17.79 252.30,17.79 252.41,17.79 252.52,17.11 252.62,17.11 252.73,14.76 252.84,14.76 252.94,14.76 253.05,14.64 253.16,14.64 253.26,14.64 253.37,13.82 253.48,13.82 253.58,12.94 253.69,12.94 253.80,12.94 253.90,12.09 254.01,12.09 254.12,12.09 254.22,11.97 254.33,13.00 254.44,13.00 254.55,13.00 254.65,12.90 254.76,12.90 254.87,12.55 254.97,12.55 255.08,12.55 255.19,12.87 255.29,12.87 255.40,12.90 255.51,12.90 255.61,12.43 255.72,12.43 255.83,12.43 255.93,10.97 256.04,10.97 256.15,10.97 256.25,12.47 256.36,12.47 256.47,12.47 256.58,11.92 256.68,11.92 256.79,11.92 256.90,11.92 257.00,13.68 257.11,13.24 257.22,13.24 257.32,13.24 257.43,13.25 257.54,13.25 257.64,13.25 257.75,11.63 257.86,11.49 257.96,11.49 258.07,11.49 258.18,10.76 258.28,10.76 258.39,10.76 258.50,11.69 258.61,11.91 258.71,11.91 258.82,11.91 258.93,10.89 259.03,10.89 259.14,10.89 259.25,12.04 259.35,12.04 259.46,12.04 259.57,12.04 259.67,12.01 259.78,12.01 259.89,12.01 259.99,12.32 260.10,12.32 260.21,12.32 260.31,14.85 260.42,14.85 260.53,14.85 260.64,13.32 260.74,14.72 260.85,14.72 260.96,14.72 261.06,13.89 261.17,13.89 261.28,15.11 261.38,15.11 261.49,15.11 261.60,13.23 261.70,15.40 261.81,15.40 261.92,13.40 262.02,13.40 262.13,13.40 262.24,14.58 262.34,13.69 262.45,13.69 262.56,13.69 262.67,14.17 262.77,12.56 262.88,12.56 262.99,12.56 263.09,11.41 263.20,11.41 263.31,11.41 263.41,9.22 263.52,9.22 263.63,9.20 263.73,9.20 263.84,9.20 263.95,8.95 264.05,8.95 264.16,8.95 264.27,8.77 264.37,8.77 264.48,8.54 264.59,8.54 264.70,8.54 264.80,8.77 264.91,8.77 265.02,5.84 265.12,5.84 265.23,8.14 265.34,6.47 265.44,6.47 265.55,6.47 265.66,4.88 265.76,4.88 265.87,4.16 265.98,4.16 266.08,4.16 266.19,4.00 266.30,4.00 266.40,4.03 266.51,4.03 266.62,4.03 266.73,4.57 266.83,4.57 266.94,4.57 267.05,4.67 267.15,5.43 267.26,5.43 267.37,4.22 267.47,4.22 267.58,6.22 267.69,6.22 267.79,5.90 267.90,5.90 268.01,5.90 268.11,10.42 268.22,10.42 268.33,10.42 268.43,10.45 268.54,10.45 268.65,9.03 268.76,9.03 268.86,9.03 268.97,8.48 269.08,8.48 269.18,8.48 269.29,8.89 269.40,8.89 269.50,9.87 269.61,9.87 269.72,9.87 269.82,11.26 269.93,9.05 270.04,9.05 270.14,10.91 270.25,10.91 270.36,13.14 270.46,13.14 270.57,13.14 270.68,15.02 270.79,15.02 270.89,17.01 271.00,15.82 271.11,15.82 271.21,15.82 271.32,15.85 271.43,14.23 271.53,14.23 271.64,14.23 271.75,14.23 271.85,13.50 271.96,13.50 272.07,13.50 272.17,14.51 272.28,14.51 272.39,13.17 272.49,14.11 272.60,14.11 272.71,14.11 272.82,15.07 272.92,15.07 273.03,15.07 273.14,16.20 273.24,16.20 273.35,16.20 273.46,16.92 273.56,16.92 273.67,16.92 273.78,17.76 273.88,17.76 273.99,17.14 274.10,17.14 274.20,18.11 274.31,18.11 274.42,18.11 274.52,18.82 274.63,18.82 274.74,18.82 274.85,20.06 274.95,20.06 275.06,20.06 275.17,20.06 275.27,21.19 275.38,21.19 275.49,23.15 275.59,23.15 275.70,23.15 275.81,23.77 275.91,23.77 276.02,23.77 276.13,23.45 276.23,23.45 276.34,23.45 276.45,23.12 276.55,23.12 276.66,23.12 276.77,22.48 276.88,22.48 276.98,22.48 277.09,22.78 277.20,25.26 277.30,24.78 277.41,24.78 277.52,24.78 277.62,24.37 277.73,24.37 277.84,24.37 277.94,26.61 278.05,26.61 278.16,26.61 278.26,27.27 278.37,27.27 278.48,27.27 278.58,28.15 278.69,29.09 278.80,29.09 278.91,33.21 279.01,33.21 279.12,35.73 279.23,35.73 279.33,35.73 279.44,34.99 279.55,34.99 279.65,34.99 279.76,34.22 279.87,34.22 279.97,36.29 280.08,36.29 280.19,36.29 280.29,36.10 280.40,36.10 280.51,36.83 280.61,33.86 280.72,33.86 280.83,33.86 280.94,29.95 281.04,29.95 281.15,34.44 281.26,34.44 281.36,32.22 281.47,32.22 281.58,32.22 281.68,29.78 281.79,29.78 281.90,29.78 282.00,32.61 282.11,32.61 282.22,32.61 282.32,33.87 282.43,33.87 282.54,33.87 282.64,33.87 282.75,36.15 282.86,32.15 282.97,32.15 283.07,33.06 283.18,33.06 283.29,36.21 283.39,37.15 283.50,37.15 283.61,37.15 283.71,38.29 283.82,38.25 283.93,38.25 284.03,38.25 284.14,40.97 284.25,40.52 284.35,40.52 284.46,40.52 284.57,40.52 284.67,41.46 284.78,41.46 284.89,41.46 285.00,41.56 285.10,41.56 285.21,41.56 285.32,41.56 285.42,43.17 285.53,43.17 285.64,43.17 285.74,43.17 285.85,44.22 285.96,44.22 286.06,44.22 286.17,42.77 286.28,42.77 286.38,42.77 286.49,40.48 286.60,40.48 286.70,40.48 286.81,39.51 286.92,39.51 287.03,39.51 287.13,41.64 287.24,39.73 287.35,39.73 287.45,39.73 287.56,35.47 287.67,35.26 287.77,39.72 287.88,39.72 287.99,40.07 288.09,36.69 288.20,38.42 288.31,40.08 288.41,40.08 288.52,40.47 288.63,40.47 288.73,41.74 288.84,41.74 288.95,41.74 289.06,42.87 289.16,44.52 289.27,44.52 289.38,46.98 289.48,46.98 289.59,46.98 289.70,49.54 289.80,46.19 289.91,46.19 290.02,46.19 290.12,48.46 290.23,47.17 290.34,47.17 290.44,47.17 290.55,46.05 290.66,46.00 290.76,46.00 290.87,46.00 290.98,42.82 291.09,44.73 291.19,44.73 291.30,48.50 291.41,48.50 291.51,47.39 291.62,47.39 291.73,47.39 291.83,47.39 291.94,49.01 292.05,49.01 292.15,45.74 292.26,45.74 292.37,50.22 292.47,48.21 292.58,48.21 292.69,48.21 292.79,47.91 292.90,47.91 293.01,47.91 293.12,51.49 293.22,49.02 293.33,49.02 293.44,49.02 293.54,49.68 293.65,49.68 293.76,49.68 293.86,52.63 293.97,52.63 294.08,52.63 294.18,54.68 294.29,50.27 294.40,50.27 294.50,51.48 294.61,51.48 294.72,51.48 294.82,51.48 294.93,52.27 295.04,52.27 295.15,52.27 295.25,54.54 295.36,52.55 295.47,52.55 295.57,52.55 295.68,53.60 295.79,53.60 295.89,53.60 296.00,56.00" />
</svg>