<svg width="300" height="60" xmlns="http://www.w3.org/2000/svg">
  <polyline fill="rgba(255,200,0,0.3)" stroke="#ffbb00" stroke-width="2" points="4.00,51.39 4.90,45.45 5.80,39.84 6.70,37.97 7.60,40.11 8.51,43.06 9.41,42.43 10.31,41.07 11.21,38.71 12.11,36.31 13.01,32.26 13.91,30.65 14.81,31.77 15.72,32.64 16.62,32.97 17.52,33.45 18.42,35.46 19.32,37.95 20.22,38.10 21.12,38.21 22.02,41.47 22.93,44.20 23.83,45.30 24.73,45.64 25.63,47.83 26.53,51.59 27.43,55.54 28.33,53.03 29.23,50.84 30.14,48.81 31.04,45.68 31.94,41.62 32.84,39.18 33.74,40.55 34.64,42.94 35.54,45.48 36.44,49.57 37.35,52.51 38.25,52.67 39.15,52.39 40.05,51.78 40.95,53.21 41.85,55.04 42.75,53.71 43.65,48.80 44.56,44.76 45.46,41.25 46.36,37.97 47.26,34.25 48.16,30.31 49.06,27.17 49.96,26.75 50.86,26.14 51.77,26.04 52.67,25.21 53.57,23.97 54.47,24.48 55.37,25.07 56.27,23.42 57.17,23.11 58.07,21.53 58.98,19.81 59.88,14.43 60.78,11.03 61.68,5.97 62.58,51.92 63.48,45.53 64.38,39.88 65.28,37.85 66.19,40.22 67.09,43.22 67.99,42.47 68.89,41.02 69.79,38.95 70.69,36.25 71.59,32.60 72.49,30.68 73.40,31.56 74.30,32.67 75.20,32.83 76.10,33.51 77.00,35.30 77.90,37.61 78.80,37.95 79.70,38.40 80.60,41.30 81.51,44.15 82.41,45.33 83.31,45.55 84.21,47.68 85.11,51.23 86.01,55.05 86.91,52.96 87.81,51.02 88.72,48.76 89.62,45.29 90.52,41.08 91.42,39.06 92.32,40.24 93.22,42.97 94.12,45.29 95.02,49.71 95.93,53.02 96.83,52.86 97.73,52.42 98.63,51.63 99.53,52.88 100.43,55.42 101.33,53.66 102.23,49.04 103.14,44.69 104.04,41.40 104.94,37.91 105.84,34.34 106.74,30.24 107.64,27.22 108.54,26.59 109.44,26.10 110.35,26.15 111.25,25.12 112.15,24.11 113.05,23.99 113.95,24.99 114.85,23.83 115.75,22.88 116.65,21.69 117.56,19.35 118.46,14.95 119.36,10.73 120.26,5.44 121.16,50.83 122.06,45.22 122.96,40.37 123.86,38.18 124.77,40.54 125.67,43.27 126.57,42.04 127.47,41.71 128.37,39.91 129.27,35.62 130.17,32.51 131.07,31.40 131.98,31.76 132.88,32.55 133.78,32.69 134.68,33.64 135.58,35.77 136.48,38.34 137.38,38.37 138.28,37.90 139.19,42.30 140.09,44.98 140.99,46.49 141.89,45.82 142.79,48.89 143.69,52.26 144.59,55.29 145.49,53.37 146.40,50.48 147.30,48.07 148.20,46.40 149.10,41.96 150.00,39.79 150.90,40.38 151.80,41.95 152.70,46.24 153.60,49.43 154.51,52.47 155.41,52.46 156.31,51.82 157.21,52.64 158.11,53.14 159.01,56.00 159.91,54.39 160.81,47.98 161.72,45.26 162.62,41.90 163.52,37.36 164.42,33.62 165.32,30.26 166.22,27.75 167.12,26.51 168.02,26.04 168.93,26.00 169.83,25.74 170.73,24.28 171.63,24.32 172.53,25.92 173.43,23.69 174.33,23.68 175.23,21.08 176.14,19.83 177.04,15.16 177.94,11.57 178.84,5.45 179.74,48.04 180.64,44.01 181.54,41.29 182.44,37.02 183.35,39.36 184.25,42.92 185.15,41.35 186.05,40.91 186.95,40.56 187.85,34.25 188.75,32.91 189.65,32.25 190.56,32.45 191.46,33.03 192.36,30.97 193.26,32.96 194.16,33.81 195.06,37.89 195.96,39.82 196.86,39.58 197.77,42.85 198.67,45.36 199.57,47.96 200.47,45.92 201.37,50.18 202.27,50.68 203.17,54.13 204.07,54.21 204.98,48.52 205.88,44.46 206.78,41.89 207.68,39.06 208.58,37.39 209.48,37.54 210.38,39.08 211.28,48.93 212.19,51.64 213.09,53.75 213.99,53.83 214.89,53.19 215.79,52.31 216.69,52.78 217.59,54.94 218.49,54.94 219.40,49.31 220.30,44.37 221.20,40.11 222.10,35.81 223.00,34.91 223.90,29.80 224.80,26.82 225.70,25.74 226.60,25.04 227.51,24.92 228.41,25.71 229.31,23.75 230.21,27.35 231.11,27.30 232.01,22.68 232.91,22.65 233.81,18.18 234.72,22.53 235.62,17.04 236.52,11.55 237.42,7.02 238.32,41.95 239.22,38.24 240.12,38.24 241.02,38.24 241.93,43.82 242.83,43.82 243.73,31.26 244.63,29.74 245.53,29.74 246.43,28.40 247.33,28.40 248.23,28.40 249.14,31.52 250.04,31.52 250.94,31.52 251.84,40.43 252.74,30.03 253.64,30.03 254.54,30.73 255.44,30.73 256.35,37.95 257.25,37.95 258.15,37.95 259.05,49.37 259.95,49.37 260.85,49.37 261.75,52.87 262.65,52.87 263.56,35.63 264.46,29.47 265.36,29.47 266.26,27.36 267.16,27.36 268.06,27.36 268.96,33.29 269.86,49.54 270.77,53.07 271.67,53.07 272.57,53.07 273.47,52.25 274.37,52.25 275.27,47.46 276.17,47.46 277.07,47.46 277.98,47.46 278.88,35.45 279.78,35.45 280.68,35.45 281.58,35.45 282.48,25.67 283.38,25.67 284.28,25.67 285.19,23.71 286.09,23.71 286.99,23.71 287.89,32.04 288.79,32.04 289.69,19.65 290.59,19.65 291.49,31.48 292.40,16.56 293.30,16.56 294.20,16.56 295.10,16.56 296.00,4.00" />
</svg>