<svg width="300" height="60" xmlns="http://www.w3.org/2000/svg">
  <polyline fill="rgba(255,200,0,0.3)" stroke="#ffbb00" stroke-width="2" points="4.00,55.72 5.20,55.58 6.40,55.26 7.60,54.93 8.81,54.57 10.01,54.29 11.21,53.55 12.41,52.86 13.61,52.16 14.81,51.64 16.02,51.14 17.22,50.68 18.42,50.19 19.62,49.59 20.82,49.12 22.02,48.36 23.23,47.62 24.43,46.87 25.63,46.00 26.83,45.39 28.03,44.68 29.23,43.76 30.44,42.82 31.64,42.04 32.84,41.12 34.04,40.23 35.24,39.08 36.44,37.90 37.65,36.53 38.85,34.99 40.05,33.70 41.25,32.15 42.45,30.78 43.65,29.44 44.86,28.17 46.06,26.77 47.26,25.54 48.46,24.14 49.66,22.94 50.86,21.92 52.07,21.39 53.27,21.33 54.47,21.24 55.67,20.31 56.87,19.40 58.07,18.67 59.28,17.80 60.48,17.06 61.68,16.63 62.88,15.65 64.08,15.03 65.28,14.42 66.49,13.84 67.69,12.99 68.89,11.99 70.09,10.80 71.29,9.34 72.49,7.90 73.70,6.55 74.90,5.76 76.10,4.50 77.30,56.00 78.50,55.76 79.70,55.32 80.91,55.17 82.11,54.71 83.31,54.55 84.51,54.21 85.71,52.97 86.91,52.08 88.12,51.74 89.32,51.18 90.52,50.86 91.72,50.37 92.92,49.61 94.12,49.15 95.33,48.50 96.53,47.43 97.73,46.15 98.93,45.93 100.13,45.40 101.33,44.47 102.53,43.67 103.74,42.97 104.94,42.05 106.14,41.34 107.34,40.30 108.54,39.12 109.74,38.04 110.95,36.86 112.15,35.06 113.35,33.54 114.55,32.49 115.75,31.00 116.95,29.46 118.16,28.50 119.36,27.15 120.56,25.67 121.76,24.24 122.96,23.06 124.16,21.99 125.37,21.63 126.57,21.29 127.77,21.34 128.97,20.39 130.17,19.49 131.37,18.75 132.58,17.75 133.78,17.12 134.98,16.61 136.18,15.69 137.38,14.99 138.58,14.06 139.79,13.45 140.99,12.82 142.19,11.81 143.39,10.52 144.59,9.13 145.79,7.82 147.00,6.64 148.20,5.76 149.40,4.11 150.60,55.47 151.80,55.09 153.00,54.75 154.21,54.73 155.41,54.90 156.61,54.69 157.81,54.14 159.01,52.22 160.21,51.34 161.42,50.98 162.62,51.23 163.82,49.59 165.02,49.85 166.22,49.66 167.42,49.13 168.63,48.23 169.83,47.28 171.03,45.21 172.23,45.78 173.43,43.79 174.63,43.56 175.84,42.70 177.04,42.43 178.24,40.74 179.44,40.76 180.64,39.03 181.84,39.07 183.05,37.24 184.25,35.44 185.45,33.94 186.65,32.00 187.85,32.00 189.05,30.82 190.26,28.94 191.46,27.99 192.66,26.19 193.86,25.31 195.06,23.77 196.26,22.55 197.47,21.79 198.67,21.60 199.87,21.66 201.07,21.68 202.27,20.23 203.47,19.06 204.67,19.04 205.88,18.16 207.08,17.28 208.28,16.26 209.48,15.32 210.68,15.59 211.88,14.75 213.09,13.42 214.29,12.57 215.49,11.58 216.69,10.00 217.89,8.98 219.09,7.55 220.30,6.22 221.50,5.33 222.70,4.00 223.90,54.13 225.10,54.13 226.30,54.13 227.51,53.03 228.71,53.03 229.91,52.84 231.11,52.84 232.31,52.84 233.51,50.49 234.72,50.49 235.92,49.27 237.12,49.27 238.32,49.27 239.52,49.23 240.72,49.23 241.93,49.23 243.13,46.39 244.33,46.39 245.53,47.89 246.73,47.89 247.93,42.72 249.14,42.72 250.34,42.72 251.54,40.84 252.74,40.84 253.94,36.51 255.14,35.50 256.35,35.50 257.55,35.50 258.75,30.66 259.95,30.66 261.15,30.66 262.35,31.34 263.56,26.31 264.76,26.31 265.96,26.31 267.16,24.08 268.36,24.08 269.56,24.08 270.77,24.56 271.97,24.56 273.17,24.56 274.37,25.32 275.57,20.72 276.77,20.72 277.98,20.72 279.18,22.53 280.38,18.06 281.58,18.06 282.78,18.06 283.98,20.38 285.19,15.69 286.39,15.69 287.59,15.69 288.79,13.95 289.99,13.95 291.19,13.95 292.40,8.65 293.60,8.65 294.80,8.65 296.00,4.72" />
</svg>