<svg width="300" height="60" xmlns="http://www.w3.org/2000/svg">
  <polyline fill="rgba(255,200,0,0.3)" stroke="#ffbb00" stroke-width="2" points="4.00,27.72 4.30,28.24 4.61,28.68 4.91,29.04 5.22,29.32 5.52,29.33 5.83,29.21 6.13,29.03 6.44,28.61 6.74,27.74 7.04,26.76 7.35,25.69 7.65,24.55 7.96,23.32 8.26,21.98 8.57,20.73 8.87,19.41 9.18,18.29 9.48,17.15 9.79,16.12 10.09,15.47 10.39,14.91 10.70,14.65 11.00,14.74 11.31,14.81 11.61,14.95 11.92,15.19 12.22,15.46 12.53,15.92 12.83,16.47 13.13,17.14 13.44,17.96 13.74,18.80 14.05,19.58 14.35,20.20 14.66,20.75 14.96,21.27 15.27,21.86 15.57,22.47 15.87,23.15 16.18,23.85 16.48,24.58 16.79,25.36 17.09,25.97 17.40,26.41 17.70,26.93 18.01,27.48 18.31,28.21 18.62,28.88 18.92,29.49 19.22,30.07 19.53,30.63 19.83,31.15 20.14,31.60 20.44,32.09 20.75,32.57 21.05,33.13 21.36,33.64 21.66,34.34 21.96,35.16 22.27,35.76 22.57,36.34 22.88,36.80 23.18,37.19 23.49,37.79 23.79,38.43 24.10,38.96 24.40,39.47 24.70,39.88 25.01,40.32 25.31,40.77 25.62,41.21 25.92,41.59 26.23,42.09 26.53,42.67 26.84,43.19 27.14,43.65 27.45,44.17 27.75,44.65 28.05,45.11 28.36,45.42 28.66,45.69 28.97,45.85 29.27,45.79 29.58,45.47 29.88,44.87 30.19,44.08 30.49,43.28 30.79,42.40 31.10,41.54 31.40,40.82 31.71,40.21 32.01,39.49 32.32,38.59 32.62,37.59 32.93,36.42 33.23,35.65 33.53,34.98 33.84,34.58 34.14,34.45 34.45,34.10 34.75,33.41 35.06,32.53 35.36,31.47 35.67,30.55 35.97,29.76 36.28,28.82 36.58,27.78 36.88,26.76 37.19,25.78 37.49,24.97 37.80,23.94 38.10,22.96 38.41,22.04 38.71,21.29 39.02,20.73 39.32,20.47 39.62,19.83 39.93,19.02 40.23,18.24 40.54,17.52 40.84,17.18 41.15,17.07 41.45,16.86 41.76,16.63 42.06,16.54 42.36,16.60 42.67,16.86 42.97,17.15 43.28,17.40 43.58,17.58 43.89,17.54 44.19,17.23 44.50,16.79 44.80,16.32 45.11,15.93 45.41,15.46 45.71,14.98 46.02,14.58 46.32,14.21 46.63,14.01 46.93,13.75 47.24,13.36 47.54,13.13 47.85,13.08 48.15,13.45 48.45,13.85 48.76,13.87 49.06,13.89 49.37,14.08 49.67,14.33 49.98,14.67 50.28,15.08 50.59,15.44 50.89,15.92 51.19,16.43 51.50,17.02 51.80,17.57 52.11,18.15 52.41,18.83 52.72,19.44 53.02,20.03 53.33,20.49 53.63,21.05 53.94,21.68 54.24,22.22 54.54,22.67 54.85,23.13 55.15,23.54 55.46,24.01 55.76,24.50 56.07,25.10 56.37,25.67 56.68,26.23 56.98,26.91 57.28,27.55 57.59,28.14 57.89,28.76 58.20,29.26 58.50,29.76 58.81,30.13 59.11,30.51 59.42,30.91 59.72,31.15 60.03,31.45 60.33,31.71 60.63,31.92 60.94,32.09 61.24,32.29 61.55,32.60 61.85,32.95 62.16,33.35 62.46,33.83 62.77,34.38 63.07,34.87 63.37,35.50 63.68,36.22 63.98,36.89 64.29,37.56 64.59,38.20 64.90,38.61 65.20,38.61 65.51,38.34 65.81,38.06 66.11,37.87 66.42,37.85 66.72,37.86 67.03,37.96 67.33,38.13 67.64,38.48 67.94,38.87 68.25,39.48 68.55,40.11 68.86,40.89 69.16,41.82 69.46,42.60 69.77,43.34 70.07,43.88 70.38,44.53 70.68,45.22 70.99,45.81 71.29,46.25 71.60,46.61 71.90,46.96 72.20,47.22 72.51,47.52 72.81,47.71 73.12,47.88 73.42,47.94 73.73,47.99 74.03,47.85 74.34,47.59 74.64,47.17 74.94,46.68 75.25,46.09 75.55,45.42 75.86,44.88 76.16,44.48 76.47,44.22 76.77,44.03 77.08,27.78 77.38,28.18 77.69,28.64 77.99,29.26 78.29,29.52 78.60,32.64 78.90,29.44 79.21,29.25 79.51,28.66 79.82,27.91 80.12,27.18 80.43,25.84 80.73,24.81 81.03,23.28 81.34,22.17 81.64,21.08 81.95,19.66 82.25,18.55 82.56,16.44 82.86,16.40 83.17,15.75 83.47,15.32 83.77,14.95 84.08,14.92 84.38,15.06 84.69,15.52 84.99,15.63 85.30,17.05 85.60,16.92 85.91,17.07 86.21,17.37 86.52,18.18 86.82,18.99 87.12,19.69 87.43,20.39 87.73,22.71 88.04,22.09 88.34,22.56 88.65,23.67 88.95,23.58 89.26,25.26 89.56,25.18 89.86,26.03 90.17,26.29 90.47,26.65 90.78,27.24 91.08,28.08 91.39,28.83 91.69,29.19 92.00,30.67 92.30,30.81 92.60,30.90 92.91,31.41 93.21,32.44 93.52,32.28 93.82,33.06 94.13,33.46 94.43,33.91 94.74,34.64 95.04,35.68 95.35,37.41 95.65,36.53 95.95,37.15 96.26,37.44 96.56,37.90 96.87,38.39 97.17,39.57 97.48,41.95 97.78,41.77 98.09,41.80 98.39,41.82 98.69,41.80 99.00,42.57 99.30,43.24 99.61,43.89 99.91,43.69 100.22,44.12 100.52,44.56 100.83,44.99 101.13,45.37 101.43,45.64 101.74,45.69 102.04,46.10 102.35,46.50 102.65,46.06 102.96,45.22 103.26,44.29 103.57,43.40 103.87,42.55 104.18,41.69 104.48,40.90 104.78,41.75 105.09,43.42 105.39,39.07 105.70,37.82 106.00,36.63 106.31,35.96 106.61,35.28 106.92,35.36 107.22,34.66 107.52,34.17 107.83,33.60 108.13,32.73 108.44,31.35 108.74,30.44 109.05,30.01 109.35,29.11 109.66,28.03 109.96,27.11 110.26,26.38 110.57,25.19 110.87,24.52 111.18,23.30 111.48,22.35 111.79,21.81 112.09,21.07 112.40,21.07 112.70,20.01 113.01,19.25 113.31,18.39 113.61,17.86 113.92,17.56 114.22,18.75 114.53,18.78 114.83,16.81 115.14,16.73 115.44,16.78 115.75,17.29 116.05,17.34 116.35,17.68 116.66,17.92 116.96,18.44 117.27,17.86 117.57,17.37 117.88,16.55 118.18,16.17 118.49,15.77 118.79,15.36 119.09,15.02 119.40,14.78 119.70,14.23 120.01,14.02 120.31,13.70 120.62,13.30 120.92,13.36 121.23,13.53 121.53,14.03 121.84,15.06 122.14,15.76 122.44,15.10 122.75,16.17 123.05,16.25 123.36,15.63 123.66,16.39 123.97,16.25 124.27,16.76 124.58,17.46 124.88,17.84 125.18,18.57 125.49,18.90 125.79,19.77 126.10,20.39 126.40,20.97 126.71,21.01 127.01,21.74 127.32,22.22 127.62,22.77 127.92,23.07 128.23,23.61 128.53,24.02 128.84,24.46 129.14,25.76 129.45,25.50 129.75,26.13 130.06,26.80 130.36,27.35 130.67,28.05 130.97,28.65 131.27,29.35 131.58,29.76 131.88,30.32 132.19,30.59 132.49,30.89 132.80,31.14 133.10,31.41 133.41,31.81 133.71,32.19 134.01,32.30 134.32,32.22 134.62,32.63 134.93,32.87 135.23,33.30 135.54,33.98 135.84,34.39 136.15,35.14 136.45,35.65 136.75,36.87 137.06,37.35 137.36,37.55 137.67,38.20 137.97,38.74 138.28,39.09 138.58,39.61 138.89,39.44 139.19,38.06 139.50,37.90 139.80,37.85 140.10,38.17 140.41,38.14 140.71,38.49 141.02,39.06 141.32,39.61 141.63,39.96 141.93,41.07 142.24,41.61 142.54,42.44 142.84,43.04 143.15,43.98 143.45,44.60 143.76,45.14 144.06,45.87 144.37,46.33 144.67,46.79 144.98,46.50 145.28,46.99 145.58,47.50 145.89,48.11 146.19,48.03 146.50,47.95 146.80,48.13 147.11,48.26 147.41,46.93 147.72,47.68 148.02,46.79 148.33,46.06 148.63,45.00 148.93,44.82 149.24,44.45 149.54,44.61 149.85,44.14 150.15,26.45 150.46,27.45 150.76,26.91 151.07,28.12 151.37,28.94 151.67,30.04 151.98,30.68 152.28,30.55 152.59,29.17 152.89,28.52 153.20,27.76 153.50,26.38 153.81,25.25 154.11,23.64 154.42,21.68 154.72,21.27 155.02,19.86 155.33,15.67 155.63,14.72 155.94,15.67 156.24,14.13 156.55,14.13 156.85,13.92 157.16,12.75 157.46,13.86 157.76,14.70 158.07,11.70 158.37,13.24 158.68,14.89 158.98,16.41 159.29,15.33 159.59,17.63 159.90,17.11 160.20,16.11 160.50,19.82 160.81,19.14 161.11,20.98 161.42,19.99 161.72,23.08 162.03,22.16 162.33,23.05 162.64,22.08 162.94,24.54 163.25,26.30 163.55,26.43 163.85,29.16 164.16,28.43 164.46,28.03 164.77,31.57 165.07,31.57 165.38,31.11 165.68,31.47 165.99,32.37 166.29,33.26 166.59,30.88 166.90,33.53 167.20,32.23 167.51,34.40 167.81,34.10 168.12,35.58 168.42,35.58 168.73,36.34 169.03,37.86 169.33,36.99 169.64,38.91 169.94,36.80 170.25,39.37 170.55,42.59 170.86,38.29 171.16,37.19 171.47,40.57 171.77,39.76 172.08,42.65 172.38,41.44 172.68,43.93 172.99,41.17 173.29,42.51 173.60,41.19 173.90,44.41 174.21,44.65 174.51,41.86 174.82,44.22 175.12,44.95 175.42,45.65 175.73,44.27 176.03,42.73 176.34,43.01 176.64,40.93 176.95,38.53 177.25,40.53 177.56,40.53 177.86,39.23 178.16,38.88 178.47,39.36 178.77,35.44 179.08,34.01 179.38,32.87 179.69,30.25 179.99,35.02 180.30,34.56 180.60,34.32 180.91,34.94 181.21,34.50 181.51,33.15 181.82,32.64 182.12,33.09 182.43,32.82 182.73,27.11 183.04,26.73 183.34,27.24 183.65,24.84 183.95,24.16 184.25,22.73 184.56,21.92 184.86,22.62 185.17,20.32 185.47,22.27 185.78,19.81 186.08,20.51 186.39,18.92 186.69,17.46 186.99,17.29 187.30,15.82 187.60,17.09 187.91,17.68 188.21,15.09 188.52,13.16 188.82,14.65 189.13,16.63 189.43,16.64 189.74,16.64 190.04,18.35 190.34,16.35 190.65,15.21 190.95,10.96 191.26,14.45 191.56,12.18 191.87,14.21 192.17,12.65 192.48,12.01 192.78,14.28 193.08,13.01 193.39,13.25 193.69,11.62 194.00,13.08 194.30,13.14 194.61,14.16 194.91,13.70 195.22,12.48 195.52,15.37 195.82,18.05 196.13,14.45 196.43,16.02 196.74,17.81 197.04,14.64 197.35,16.21 197.65,16.18 197.96,17.35 198.26,17.73 198.57,16.35 198.87,18.25 199.17,19.79 199.48,19.79 199.78,20.08 200.09,18.16 200.39,21.30 200.70,22.68 201.00,21.84 201.31,23.57 201.61,23.44 201.91,23.15 202.22,22.88 202.52,26.22 202.83,26.41 203.13,26.41 203.44,26.49 203.74,26.81 204.05,27.56 204.35,28.72 204.65,29.94 204.96,30.86 205.26,31.67 205.57,31.67 205.87,31.62 206.18,31.70 206.48,31.75 206.79,31.32 207.09,32.59 207.40,32.03 207.70,31.46 208.00,30.57 208.31,33.54 208.61,33.46 208.92,32.57 209.22,33.71 209.53,35.12 209.83,35.12 210.14,36.25 210.44,37.58 210.74,38.55 211.05,38.65 211.35,38.84 211.66,35.03 211.96,35.95 212.27,36.73 212.57,37.33 212.88,36.22 213.18,36.84 213.48,38.24 213.79,38.34 214.09,38.70 214.40,38.94 214.70,38.83 215.01,41.32 215.31,42.19 215.62,43.27 215.92,43.35 216.23,44.37 216.53,44.78 216.83,45.78 217.14,46.54 217.44,45.53 217.75,47.05 218.05,46.70 218.36,45.70 218.66,45.70 218.97,47.35 219.27,45.75 219.57,47.40 219.88,45.05 220.18,47.02 220.49,43.97 220.79,46.10 221.10,44.02 221.40,42.53 221.71,41.59 222.01,44.94 222.31,43.91 222.62,43.91 222.92,41.70 223.23,27.19 223.53,27.19 223.84,27.73 224.14,27.73 224.45,27.73 224.75,30.79 225.06,30.79 225.36,29.55 225.66,29.14 225.97,29.14 226.27,25.42 226.58,25.42 226.88,25.42 227.19,16.34 227.49,16.34 227.80,19.01 228.10,14.28 228.40,14.28 228.71,14.71 229.01,14.71 229.32,9.30 229.62,9.30 229.93,13.01 230.23,13.01 230.54,13.01 230.84,16.23 231.14,4.00 231.45,9.03 231.75,9.03 232.06,9.03 232.36,16.82 232.67,16.82 232.97,16.82 233.28,13.56 233.58,13.56 233.89,13.56 234.19,22.49 234.49,22.49 234.80,22.49 235.10,7.07 235.41,7.07 235.71,7.07 236.02,14.72 236.32,14.72 236.63,14.72 236.93,28.33 237.23,28.33 237.54,28.33 237.84,26.76 238.15,26.76 238.45,26.76 238.76,26.76 239.06,28.14 239.37,28.14 239.67,28.14 239.97,33.72 240.28,21.20 240.58,21.20 240.89,32.69 241.19,32.69 241.50,32.69 241.80,25.52 242.11,30.64 242.41,30.64 242.72,30.64 243.02,36.72 243.32,36.72 243.63,36.72 243.93,22.44 244.24,32.34 244.54,32.34 244.85,32.34 245.15,42.89 245.46,33.02 245.76,33.02 246.06,33.02 246.37,42.89 246.67,41.62 246.98,41.62 247.28,41.62 247.59,47.00 247.89,47.00 248.20,41.49 248.50,49.98 248.81,49.98 249.11,43.41 249.41,43.41 249.72,43.41 250.02,38.73 250.33,38.73 250.63,38.73 250.94,38.73 251.24,34.83 251.55,33.80 251.85,33.80 252.15,33.80 252.46,30.23 252.76,30.23 253.07,29.42 253.37,29.42 253.68,29.42 253.98,29.42 254.29,34.24 254.59,34.24 254.89,34.24 255.20,33.32 255.50,33.32 255.81,15.49 256.11,15.27 256.42,15.27 256.72,15.27 257.03,17.95 257.33,17.95 257.64,17.95 257.94,21.01 258.24,21.01 258.55,10.86 258.85,10.86 259.16,10.86 259.46,14.94 259.77,14.94 260.07,14.94 260.38,14.94 260.68,12.40 260.98,12.40 261.29,12.40 261.59,11.59 261.90,11.59 262.20,19.55 262.51,19.55 262.81,19.55 263.12,8.37 263.42,11.59 263.72,11.59 264.03,11.59 264.33,17.14 264.64,6.20 264.94,6.20 265.25,13.91 265.55,13.91 265.86,13.91 266.16,8.80 266.47,8.80 266.77,8.80 267.07,13.88 267.38,13.88 267.68,13.88 267.99,4.09 268.29,4.09 268.60,4.09 268.90,12.26 269.21,12.26 269.51,12.26 269.81,18.52 270.12,10.29 270.42,10.29 270.73,10.29 271.03,17.08 271.34,19.06 271.64,13.16 271.95,13.16 272.25,19.76 272.55,19.76 272.86,19.76 273.16,15.92 273.47,23.95 273.77,23.95 274.08,23.95 274.38,22.41 274.69,22.41 274.99,22.41 275.30,21.84 275.60,30.55 275.90,30.55 276.21,31.80 276.51,31.80 276.82,31.80 277.12,33.99 277.43,33.99 277.73,33.99 278.04,35.83 278.34,35.83 278.64,35.83 278.95,35.83 279.25,36.10 279.56,36.10 279.86,36.10 280.17,34.12 280.47,34.12 280.78,34.12 281.08,32.61 281.38,32.61 281.69,32.61 281.99,29.23 282.30,37.13 282.60,37.13 282.91,37.13 283.21,35.62 283.52,37.65 283.82,37.65 284.13,37.65 284.43,39.00 284.73,32.10 285.04,32.10 285.34,35.91 285.65,35.91 285.95,35.91 286.26,40.10 286.56,40.10 286.87,40.97 287.17,40.97 287.47,40.97 287.78,42.86 288.08,42.86 288.39,42.86 288.69,45.86 289.00,45.86 289.30,45.86 289.61,49.11 289.91,49.11 290.21,49.11 290.52,43.80 290.82,50.94 291.13,50.94 291.43,49.13 291.74,49.13 292.04,49.13 292.35,49.13 292.65,41.96 292.96,41.96 293.26,56.00 293.56,50.24 293.87,50.24 294.17,50.24 294.48,45.59 294.78,45.59 295.09,45.59 295.39,41.72 295.70,41.72 296.00,41.72" />
</svg>