<svg width="300" height="60" xmlns="http://www.w3.org/2000/svg">
  <polyline fill="rgba(255,200,0,0.3)" stroke="#ffbb00" stroke-width="2" points="4.00,55.55 4.26,55.46 4.52,55.14 4.79,54.83 5.05,54.08 5.31,53.39 5.57,52.73 5.84,52.08 6.10,51.40 6.36,50.94 6.62,50.70 6.89,50.16 7.15,49.72 7.41,49.38 7.67,49.13 7.94,49.08 8.20,48.67 8.46,48.17 8.72,47.77 8.98,47.42 9.25,47.05 9.51,46.86 9.77,46.72 10.03,46.42 10.30,37.03 10.56,36.63 10.82,36.45 11.08,36.48 11.35,36.36 11.61,36.24 11.87,35.98 12.13,35.61 12.40,34.23 12.66,33.69 12.92,33.14 13.18,32.62 13.44,32.22 13.71,32.21 13.97,26.62 14.23,26.36 14.49,25.97 14.76,25.72 15.02,25.28 15.28,24.97 15.54,24.78 15.81,54.08 16.07,53.39 16.33,52.74 16.59,52.08 16.86,51.40 17.12,50.94 17.38,50.70 17.64,50.16 17.90,49.72 18.17,49.38 18.43,46.72 18.69,46.42 18.95,46.14 19.22,45.94 19.48,45.74 19.74,45.49 20.00,45.45 20.27,45.11 20.53,44.76 20.79,44.45 21.05,44.10 21.32,43.67 21.58,43.20 21.84,42.74 22.10,42.55 22.36,42.02 22.63,41.55 22.89,41.01 23.15,40.61 23.41,40.10 23.68,39.58 23.94,39.24 24.20,38.98 24.46,38.78 24.73,38.36 24.99,37.66 25.25,37.03 25.51,36.63 25.78,36.24 26.04,35.98 26.30,35.61 26.56,35.18 26.82,34.59 27.09,34.23 27.35,33.70 27.61,33.14 27.87,32.62 28.14,32.22 28.40,32.22 28.66,32.30 28.92,32.16 29.19,31.96 29.45,31.63 29.71,31.34 29.97,31.10 30.24,31.09 30.50,30.75 30.76,30.40 31.02,29.99 31.28,29.56 31.55,29.20 31.81,28.89 32.07,28.52 32.33,27.91 32.60,27.44 32.86,27.17 33.12,26.94 33.38,26.62 33.65,26.36 33.91,25.97 34.17,24.97 34.43,24.78 34.70,24.59 34.96,24.41 35.22,24.52 35.48,24.39 35.74,24.17 36.01,24.00 36.27,23.81 36.53,23.67 36.79,23.27 37.06,22.75 37.32,22.30 37.58,21.91 37.84,21.76 38.11,21.73 38.37,21.39 38.63,21.02 38.89,20.69 39.16,20.39 39.42,19.97 39.68,19.75 39.94,19.68 40.20,19.27 40.47,19.09 40.73,19.24 40.99,19.02 41.25,18.53 41.52,18.15 41.78,18.06 42.04,18.18 42.30,17.89 42.57,17.46 42.83,17.01 43.09,16.63 43.35,16.31 43.62,16.01 43.88,15.39 44.14,14.92 44.40,14.64 44.66,14.56 44.93,14.37 45.19,14.45 45.45,14.12 45.71,13.74 45.98,13.28 46.24,12.88 46.50,12.78 46.76,12.98 47.03,13.05 47.29,12.95 47.55,12.92 47.81,12.45 48.08,11.91 48.34,11.35 48.60,10.77 48.86,10.35 49.12,10.11 49.39,10.01 49.65,9.93 49.91,9.63 50.17,9.09 50.44,8.45 50.70,8.20 50.96,8.24 51.22,8.05 51.49,7.59 51.75,7.08 52.01,6.71 52.27,6.72 52.54,6.73 52.80,6.53 53.06,6.23 53.32,6.05 53.58,6.11 53.85,6.18 54.11,6.30 54.37,6.52 54.63,6.71 54.90,6.87 55.16,6.90 55.42,7.09 55.68,7.33 55.95,7.72 56.21,8.06 56.47,8.24 56.73,8.44 57.00,8.50 57.26,8.63 57.52,8.86 57.78,8.97 58.04,8.94 58.31,8.90 58.57,9.02 58.83,9.22 59.09,9.45 59.36,9.69 59.62,9.81 59.88,9.73 60.14,9.49 60.41,9.36 60.67,9.43 60.93,9.57 61.19,9.69 61.46,9.61 61.72,9.34 61.98,8.90 62.24,8.47 62.50,8.00 62.77,7.71 63.03,7.74 63.29,7.67 63.55,7.67 63.82,7.77 64.08,7.57 64.34,7.20 64.60,6.82 64.87,6.52 65.13,6.44 65.39,6.41 65.65,6.30 65.92,6.21 66.18,6.16 66.44,6.08 66.70,6.03 66.96,6.18 67.23,6.34 67.49,6.52 67.75,6.49 68.01,6.38 68.28,6.36 68.54,6.35 68.80,6.51 69.06,6.52 69.33,6.53 69.59,6.63 69.85,6.89 70.11,7.24 70.38,7.69 70.64,7.83 70.90,8.21 71.16,8.45 71.42,8.60 71.69,8.87 71.95,8.89 72.21,8.80 72.47,8.96 72.74,9.24 73.00,9.46 73.26,9.66 73.52,9.84 73.79,9.89 74.05,9.89 74.31,9.91 74.57,10.12 74.84,10.49 75.10,10.85 75.36,11.22 75.62,11.52 75.88,11.60 76.15,11.76 76.41,11.83 76.67,11.96 76.93,12.17 77.20,12.51 77.46,12.44 77.72,12.57 77.98,12.68 78.25,12.87 78.51,13.11 78.77,13.29 79.03,13.32 79.30,13.43 79.56,13.55 79.82,13.45 80.08,13.42 80.35,13.53 80.61,13.68 80.87,13.88 81.13,14.10 81.39,14.31 81.66,14.50 81.92,14.46 82.18,14.76 82.44,15.04 82.71,15.15 82.97,15.28 83.23,15.49 83.49,15.71 83.76,16.08 84.02,16.11 84.28,16.38 84.54,16.67 84.81,16.97 85.07,17.27 85.33,17.35 85.59,17.25 85.85,17.10 86.12,17.14 86.38,17.27 86.64,17.40 86.90,17.70 87.17,18.09 87.43,18.28 87.69,18.33 87.95,18.17 88.22,17.89 88.48,17.61 88.74,17.32 89.00,17.21 89.27,17.23 89.53,17.12 89.79,17.02 90.05,17.13 90.31,17.36 90.58,17.54 90.84,17.46 91.10,17.54 91.36,17.64 91.63,17.72 91.89,17.98 92.15,18.17 92.41,18.20 92.68,18.13 92.94,18.07 93.20,18.01 93.46,17.88 93.73,17.95 93.99,18.02 94.25,17.94 94.51,17.93 94.77,17.98 95.04,17.90 95.30,17.65 95.56,17.58 95.82,17.71 96.09,17.65 96.35,17.68 96.61,17.67 96.87,17.68 97.14,17.67 97.40,17.56 97.66,17.48 97.92,17.59 98.19,55.62 98.45,55.51 98.71,55.16 98.97,54.70 99.23,54.22 99.50,53.62 99.76,52.39 100.02,52.03 100.28,51.31 100.55,50.97 100.81,50.79 101.07,50.09 101.33,49.17 101.60,49.31 101.86,48.68 102.12,48.99 102.38,48.58 102.65,47.84 102.91,47.77 103.17,47.42 103.43,47.07 103.69,46.94 103.96,46.71 104.22,46.39 104.48,46.18 104.74,45.98 105.01,45.79 105.27,45.53 105.53,45.41 105.79,45.07 106.06,44.68 106.32,44.46 106.58,44.06 106.84,43.62 107.11,43.15 107.37,42.74 107.63,42.46 107.89,42.05 108.15,41.31 108.42,40.87 108.68,40.59 108.94,40.07 109.20,39.53 109.47,39.22 109.73,38.97 109.99,38.98 110.25,38.51 110.52,37.69 110.78,37.03 111.04,36.68 111.30,36.49 111.57,36.52 111.83,36.37 112.09,36.21 112.35,36.02 112.61,35.56 112.88,34.98 113.14,34.53 113.40,34.08 113.66,33.65 113.93,33.15 114.19,32.58 114.45,32.35 114.71,32.28 114.98,32.44 115.24,32.21 115.50,31.94 115.76,31.72 116.03,31.32 116.29,31.19 116.55,31.06 116.81,30.72 117.07,30.37 117.34,29.89 117.60,29.53 117.86,29.24 118.12,28.82 118.39,28.13 118.65,27.79 118.91,27.30 119.17,27.03 119.44,26.89 119.70,26.43 119.96,26.23 120.22,25.95 120.49,25.73 120.75,25.27 121.01,24.99 121.27,24.83 121.53,24.63 121.80,24.52 122.06,24.55 122.32,24.45 122.58,55.96 122.85,55.66 123.11,55.46 123.37,55.02 123.63,54.46 123.90,52.42 124.16,52.50 124.42,52.47 124.68,51.64 124.95,50.89 125.21,50.55 125.47,50.18 125.73,49.56 125.99,48.44 126.26,50.08 126.52,48.87 126.78,49.39 127.04,47.44 127.31,47.35 127.57,47.17 127.83,46.82 128.09,46.82 128.36,46.36 128.62,45.26 128.88,44.77 129.14,45.71 129.41,45.13 129.67,44.97 129.93,44.74 130.19,44.64 130.45,44.56 130.72,44.41 130.98,43.83 131.24,43.60 131.50,43.34 131.77,42.95 132.03,42.60 132.29,42.38 132.55,41.04 132.82,41.47 133.08,40.75 133.34,40.06 133.60,39.85 133.87,38.78 134.13,38.79 134.39,38.76 134.65,38.76 134.91,38.27 135.18,37.95 135.44,36.86 135.70,36.48 135.96,36.32 136.23,36.35 136.49,36.16 136.75,35.68 137.01,35.53 137.28,35.26 137.54,34.86 137.80,34.23 138.06,33.61 138.33,33.02 138.59,32.46 138.85,31.92 139.11,31.84 139.37,31.60 139.64,31.62 139.90,31.62 140.16,31.01 140.42,31.13 140.69,30.99 140.95,30.91 141.21,30.73 141.47,30.29 141.74,29.77 142.00,29.22 142.26,28.75 142.52,28.50 142.79,28.40 143.05,27.96 143.31,26.85 143.57,27.72 143.83,26.94 144.10,27.14 144.36,26.39 144.62,26.56 144.88,25.87 145.15,25.50 145.41,24.80 145.67,24.45 145.93,24.45 146.20,24.09 146.46,24.30 146.72,24.33 146.98,23.80 147.25,23.63 147.51,23.56 147.77,22.56 148.03,23.15 148.29,22.93 148.56,22.24 148.82,22.06 149.08,21.48 149.34,21.41 149.61,21.51 149.87,21.51 150.13,20.95 150.39,20.49 150.66,19.58 150.92,19.43 151.18,18.45 151.44,19.00 151.71,18.31 151.97,19.10 152.23,19.12 152.49,17.98 152.75,18.80 153.02,17.89 153.28,17.56 153.54,17.49 153.80,17.88 154.07,17.09 154.33,16.73 154.59,15.61 154.85,15.57 155.12,14.99 155.38,14.99 155.64,14.63 155.90,14.22 156.17,13.39 156.43,14.12 156.69,13.66 156.95,13.09 157.21,12.36 157.48,12.98 157.74,11.91 158.00,11.57 158.26,12.15 158.53,11.96 158.79,11.88 159.05,11.77 159.31,12.70 159.58,11.69 159.84,10.59 160.10,10.67 160.36,9.95 160.63,10.09 160.89,9.20 161.15,9.95 161.41,9.11 161.67,8.84 161.94,8.30 162.20,7.75 162.46,7.84 162.72,6.91 162.99,7.00 163.25,5.97 163.51,5.87 163.77,6.43 164.04,5.80 164.30,5.32 164.56,6.09 164.82,5.85 165.09,6.02 165.35,7.03 165.61,6.45 165.87,6.68 166.13,6.99 166.40,6.99 166.66,7.37 166.92,7.83 167.18,7.18 167.45,7.41 167.71,7.72 167.97,8.23 168.23,8.48 168.50,8.09 168.76,8.70 169.02,9.02 169.28,8.96 169.55,9.09 169.81,8.48 170.07,9.46 170.33,9.15 170.59,9.08 170.86,9.29 171.12,9.53 171.38,8.70 171.64,9.16 171.91,9.44 172.17,9.14 172.43,8.88 172.69,9.36 172.96,9.36 173.22,8.49 173.48,7.61 173.74,6.65 174.01,6.51 174.27,6.49 174.53,6.50 174.79,6.54 175.05,7.74 175.32,7.13 175.58,7.69 175.84,7.43 176.10,6.90 176.37,5.71 176.63,6.49 176.89,6.23 177.15,7.01 177.42,6.48 177.68,6.04 177.94,6.48 178.20,5.97 178.47,5.63 178.73,5.63 178.99,6.43 179.25,5.37 179.51,5.22 179.78,6.00 180.04,5.78 180.30,5.69 180.56,5.86 180.83,6.17 181.09,6.69 181.35,7.68 181.61,6.27 181.88,6.81 182.14,7.19 182.40,7.38 182.66,8.39 182.93,8.69 183.19,9.14 183.45,8.60 183.71,8.63 183.97,9.68 184.24,9.97 184.50,10.72 184.76,10.07 185.02,10.66 185.29,11.20 185.55,9.94 185.81,10.21 186.07,10.42 186.34,10.31 186.60,10.31 186.86,10.83 187.12,11.14 187.39,11.63 187.65,12.17 187.91,11.87 188.17,12.28 188.43,12.47 188.70,13.50 188.96,13.20 189.22,12.74 189.48,12.74 189.75,12.63 190.01,13.00 190.27,12.68 190.53,13.08 190.80,13.18 191.06,13.41 191.32,13.50 191.58,13.19 191.85,13.19 192.11,13.17 192.37,13.60 192.63,13.60 192.89,14.35 193.16,13.75 193.42,14.63 193.68,14.63 193.94,15.41 194.21,15.86 194.47,16.29 194.73,15.79 194.99,15.82 195.26,16.71 195.52,16.28 195.78,16.13 196.04,16.07 196.31,17.29 196.57,16.31 196.83,16.37 197.09,16.34 197.35,16.45 197.62,16.76 197.88,17.10 198.14,17.52 198.40,17.94 198.67,18.19 198.93,18.34 199.19,18.31 199.45,18.18 199.72,16.98 199.98,17.20 200.24,16.31 200.50,16.82 200.77,16.30 201.03,16.49 201.29,17.50 201.55,17.78 201.81,17.29 202.08,17.29 202.34,16.69 202.60,17.14 202.86,17.49 203.13,17.83 203.39,17.70 203.65,17.09 203.91,17.86 204.18,17.23 204.44,17.16 204.70,17.81 204.96,17.64 205.23,17.21 205.49,17.64 205.75,17.71 206.01,17.58 206.27,17.21 206.54,17.10 206.80,16.86 207.06,17.74 207.32,17.21 207.59,18.10 207.85,17.34 208.11,17.00 208.37,17.41 208.64,17.30 208.90,16.73 209.16,17.03 209.42,56.00 209.69,56.00 209.95,55.47 210.21,55.47 210.47,55.47 210.73,52.75 211.00,52.75 211.26,52.75 211.52,51.35 211.78,51.35 212.05,51.35 212.31,49.81 212.57,49.81 212.83,49.81 213.10,53.82 213.36,52.12 213.62,52.12 213.88,52.12 214.15,51.10 214.41,51.10 214.67,51.10 214.93,49.75 215.19,45.74 215.46,45.74 215.72,45.74 215.98,47.17 216.24,44.15 216.51,44.15 216.77,44.65 217.03,44.65 217.29,44.65 217.56,44.34 217.82,44.34 218.08,44.34 218.34,44.34 218.61,43.70 218.87,43.70 219.13,43.70 219.39,42.85 219.65,42.85 219.92,42.85 220.18,41.01 220.44,41.01 220.70,41.01 220.97,39.53 221.23,39.53 221.49,39.53 221.75,39.53 222.02,41.11 222.28,37.48 222.54,37.48 222.80,37.48 223.07,36.34 223.33,36.34 223.59,36.34 223.85,36.34 224.12,36.04 224.38,36.04 224.64,36.04 224.90,35.36 225.16,35.36 225.43,35.36 225.69,34.69 225.95,34.69 226.21,31.28 226.48,32.23 226.74,32.23 227.00,32.23 227.26,32.23 227.53,32.70 227.79,32.70 228.05,32.70 228.31,31.80 228.58,31.80 228.84,31.80 229.10,30.70 229.36,30.70 229.62,30.70 229.89,28.77 230.15,28.77 230.41,28.77 230.67,28.77 230.94,28.50 231.20,28.50 231.46,28.50 231.72,26.81 231.99,26.81 232.25,26.81 232.51,24.48 232.77,24.48 233.04,24.48 233.30,24.48 233.56,25.60 233.82,23.94 234.08,23.94 234.35,23.94 234.61,21.44 234.87,22.56 235.13,22.56 235.40,22.56 235.66,24.19 235.92,24.19 236.18,24.19 236.45,22.06 236.71,22.06 236.97,22.06 237.23,24.46 237.50,22.04 237.76,22.04 238.02,19.07 238.28,19.07 238.54,19.43 238.81,19.43 239.07,19.43 239.33,18.82 239.59,18.82 239.86,18.82 240.12,18.82 240.38,17.14 240.64,20.39 240.91,20.39 241.17,18.97 241.43,15.72 241.69,15.72 241.96,14.75 242.22,17.20 242.48,17.20 242.74,14.70 243.00,14.70 243.27,14.70 243.53,12.52 243.79,12.52 244.05,12.52 244.32,10.14 244.58,10.14 244.84,8.31 245.10,11.49 245.37,11.49 245.63,11.49 245.89,11.35 246.15,15.25 246.42,15.25 246.68,12.72 246.94,12.72 247.20,12.72 247.46,9.93 247.73,9.93 247.99,10.81 248.25,10.81 248.51,10.81 248.78,9.87 249.04,8.33 249.30,8.33 249.56,7.98 249.83,7.98 250.09,7.98 250.35,5.43 250.61,7.17 250.88,7.17 251.14,5.67 251.40,5.67 251.66,5.67 251.92,4.93 252.19,4.93 252.45,4.93 252.71,4.93 252.97,5.71 253.24,5.71 253.50,5.71 253.76,5.71 254.02,4.48 254.29,6.39 254.55,6.39 254.81,6.39 255.07,8.35 255.34,8.35 255.60,8.35 255.86,8.35 256.12,9.15 256.38,9.15 256.65,9.15 256.91,9.84 257.17,10.56 257.43,10.56 257.70,10.56 257.96,11.05 258.22,8.50 258.48,8.50 258.75,10.06 259.01,10.06 259.27,8.76 259.53,8.76 259.80,8.76 260.06,7.21 260.32,7.21 260.58,5.10 260.84,5.10 261.11,5.10 261.37,4.00 261.63,4.00 261.89,7.46 262.16,6.74 262.42,7.46 262.68,7.46 262.94,6.84 263.21,6.84 263.47,8.83 263.73,8.83 263.99,8.83 264.26,7.55 264.52,7.55 264.78,7.55 265.04,7.55 265.30,6.37 265.57,6.37 265.83,6.37 266.09,4.49 266.35,6.22 266.62,6.22 266.88,4.60 267.14,4.60 267.40,4.60 267.67,4.51 267.93,4.51 268.19,5.68 268.45,5.68 268.72,5.68 268.98,6.81 269.24,6.81 269.50,6.81 269.76,6.81 270.03,8.83 270.29,8.83 270.55,10.02 270.81,10.02 271.08,9.59 271.34,11.31 271.60,11.31 271.86,11.31 272.13,12.14 272.39,12.14 272.65,12.14 272.91,12.81 273.18,10.46 273.44,10.46 273.70,10.46 273.96,12.01 274.22,12.01 274.49,12.01 274.75,12.01 275.01,13.45 275.27,13.45 275.54,13.45 275.80,14.28 276.06,14.28 276.32,14.28 276.59,12.99 276.85,12.99 277.11,12.99 277.37,13.59 277.64,13.59 277.90,13.59 278.16,15.23 278.42,15.23 278.68,15.23 278.95,15.23 279.21,15.61 279.47,12.99 279.73,12.99 280.00,12.99 280.26,13.90 280.52,13.90 280.78,15.56 281.05,15.56 281.31,15.56 281.57,17.39 281.83,16.88 282.10,16.88 282.36,16.88 282.62,16.88 282.88,16.15 283.14,19.73 283.41,16.15 283.67,16.28 283.93,16.28 284.19,16.28 284.46,16.78 284.72,16.78 284.98,16.78 285.24,17.83 285.51,17.83 285.77,17.83 286.03,18.25 286.29,18.25 286.56,18.25 286.82,18.60 287.08,18.60 287.34,16.05 287.60,16.05 287.87,16.05 288.13,16.57 288.39,16.57 288.65,12.96 288.92,12.96 289.18,14.54 289.44,14.54 289.70,15.36 289.97,15.36 290.23,15.36 290.49,15.10 290.75,15.10 291.02,15.10 291.28,14.90 291.54,14.90 291.80,14.90 292.06,16.91 292.33,16.91 292.59,16.91 292.85,17.10 293.11,17.10 293.38,17.10 293.64,17.79 293.90,17.79 294.16,17.79 294.43,19.68 294.69,20.02 294.95,20.02 295.21,20.02 295.48,17.06 295.74,17.06 296.00,17.06" />
</svg>