<svg width="300" height="60" xmlns="http://www.w3.org/2000/svg">
  <polyline fill="rgba(255,200,0,0.3)" stroke="#ffbb00" stroke-width="2" points="4.00,26.88 4.37,27.47 4.74,27.74 5.11,29.68 5.48,32.78 5.86,34.30 6.23,35.60 6.60,36.87 6.97,37.93 7.34,38.86 7.71,39.59 8.08,40.65 8.45,41.58 8.82,42.53 9.19,43.61 9.57,43.96 9.94,44.07 10.31,44.76 10.68,45.89 11.05,46.61 11.42,45.06 11.79,44.39 12.16,43.80 12.53,43.89 12.90,44.23 13.28,44.74 13.65,45.41 14.02,46.06 14.39,47.37 14.76,48.33 15.13,48.64 15.50,48.69 15.87,48.69 16.24,48.32 16.61,47.86 16.99,48.76 17.36,49.01 17.73,49.41 18.10,49.85 18.47,50.03 18.84,50.45 19.21,50.40 19.58,50.77 19.95,52.91 20.33,54.51 20.70,55.17 21.07,55.47 21.44,55.51 21.81,55.46 22.18,54.69 22.55,54.19 22.92,53.37 23.29,52.35 23.66,51.01 24.04,49.88 24.41,48.89 24.78,47.98 25.15,47.16 25.52,46.73 25.89,45.68 26.26,44.92 26.63,44.64 27.00,44.01 27.37,43.56 27.75,43.20 28.12,42.98 28.49,42.77 28.86,42.59 29.23,42.32 29.60,41.87 29.97,41.22 30.34,40.95 30.71,40.73 31.09,40.57 31.46,40.44 31.83,40.43 32.20,40.35 32.57,40.54 32.94,40.59 33.31,41.31 33.68,42.65 34.05,44.05 34.42,45.21 34.80,46.60 35.17,48.41 35.54,49.95 35.91,50.34 36.28,51.42 36.65,51.51 37.02,51.45 37.39,51.27 37.76,51.04 38.13,50.72 38.51,49.78 38.88,48.86 39.25,47.30 39.62,45.90 39.99,43.69 40.36,42.17 40.73,40.65 41.10,40.55 41.47,40.86 41.84,40.26 42.22,39.69 42.59,38.79 42.96,37.75 43.33,36.87 43.70,34.44 44.07,34.56 44.44,35.19 44.81,35.08 45.18,35.00 45.56,34.53 45.93,34.57 46.30,33.89 46.67,32.73 47.04,32.40 47.41,32.14 47.78,31.92 48.15,31.30 48.52,30.63 48.89,30.46 49.27,30.09 49.64,29.57 50.01,28.62 50.38,27.61 50.75,27.09 51.12,26.34 51.49,25.53 51.86,24.76 52.23,24.03 52.60,22.00 52.98,21.08 53.35,20.22 53.72,19.81 54.09,19.71 54.46,20.25 54.83,19.75 55.20,19.15 55.57,18.38 55.94,17.31 56.32,17.31 56.69,17.60 57.06,17.53 57.43,16.76 57.80,16.09 58.17,15.00 58.54,13.38 58.91,11.76 59.28,11.30 59.65,11.26 60.03,10.20 60.40,8.75 60.77,7.47 61.14,6.36 61.51,5.31 61.88,5.88 62.25,6.34 62.62,7.33 62.99,6.79 63.36,5.53 63.74,4.96 64.11,4.86 64.48,5.54 64.85,6.35 65.22,6.73 65.59,7.11 65.96,7.91 66.33,8.74 66.70,9.95 67.07,12.18 67.45,14.24 67.82,13.70 68.19,14.27 68.56,15.39 68.93,16.43 69.30,17.14 69.67,18.52 70.04,19.25 70.41,19.94 70.79,23.20 71.16,24.95 71.53,27.27 71.90,31.26 72.27,33.54 72.64,37.82 73.01,41.57 73.38,35.88 73.75,37.13 74.12,35.33 74.50,37.08 74.87,44.34 75.24,44.26 75.61,48.05 75.98,48.02 76.35,48.30 76.72,45.38 77.09,27.07 77.46,27.70 77.83,27.90 78.21,30.40 78.58,32.42 78.95,34.18 79.32,35.56 79.69,36.62 80.06,37.84 80.43,38.69 80.80,39.58 81.17,40.39 81.55,41.49 81.92,42.16 82.29,43.71 82.66,43.78 83.03,43.49 83.40,44.27 83.77,45.47 84.14,46.57 84.51,44.76 84.88,44.02 85.26,43.77 85.63,43.82 86.00,44.25 86.37,44.49 86.74,45.44 87.11,46.07 87.48,47.33 87.85,48.27 88.22,48.52 88.59,48.52 88.97,48.46 89.34,48.36 89.71,47.84 90.08,48.81 90.45,49.05 90.82,49.36 91.19,49.54 91.56,49.98 91.93,50.37 92.30,50.52 92.68,51.01 93.05,53.01 93.42,54.38 93.79,55.22 94.16,55.51 94.53,55.40 94.90,55.54 95.27,54.84 95.64,54.16 96.02,53.26 96.39,52.56 96.76,50.80 97.13,50.02 97.50,48.81 97.87,47.93 98.24,47.22 98.61,46.74 98.98,45.52 99.35,45.32 99.73,44.47 100.10,43.86 100.47,43.61 100.84,43.18 101.21,42.95 101.58,42.92 101.95,42.67 102.32,42.35 102.69,41.95 103.06,41.30 103.44,41.04 103.81,40.82 104.18,40.78 104.55,40.69 104.92,40.57 105.29,40.50 105.66,40.55 106.03,40.64 106.40,41.43 106.78,42.79 107.15,44.03 107.52,45.17 107.89,46.43 108.26,48.40 108.63,50.30 109.00,50.68 109.37,51.42 109.74,51.65 110.11,51.53 110.49,51.38 110.86,51.04 111.23,50.67 111.60,49.88 111.97,49.00 112.34,47.43 112.71,45.62 113.08,43.70 113.45,42.15 113.82,40.62 114.20,41.00 114.57,40.67 114.94,40.38 115.31,39.91 115.68,38.69 116.05,37.80 116.42,36.66 116.79,35.57 117.16,34.06 117.53,35.48 117.91,35.08 118.28,34.99 118.65,34.34 119.02,34.43 119.39,33.85 119.76,32.97 120.13,32.41 120.50,32.21 120.87,31.99 121.25,31.41 121.62,30.62 121.99,30.34 122.36,30.09 122.73,29.38 123.10,28.89 123.47,28.00 123.84,27.35 124.21,26.31 124.58,25.59 124.96,24.74 125.33,23.93 125.70,22.29 126.07,21.55 126.44,20.72 126.81,20.00 127.18,19.78 127.55,19.90 127.92,19.79 128.29,19.09 128.67,18.51 129.04,18.18 129.41,17.19 129.78,17.61 130.15,17.31 130.52,16.80 130.89,15.62 131.26,14.51 131.63,13.46 132.01,11.85 132.38,11.38 132.75,10.95 133.12,10.21 133.49,8.42 133.86,7.71 134.23,6.24 134.60,5.61 134.97,5.99 135.34,6.40 135.72,7.27 136.09,6.85 136.46,5.39 136.83,5.08 137.20,4.74 137.57,5.71 137.94,6.39 138.31,6.66 138.68,7.33 139.05,7.91 139.43,8.79 139.80,9.92 140.17,12.12 140.54,14.48 140.91,13.90 141.28,14.62 141.65,15.32 142.02,16.44 142.39,17.60 142.76,18.32 143.14,19.12 143.51,20.37 143.88,23.16 144.25,24.92 144.62,27.78 144.99,30.37 145.36,34.28 145.73,38.35 146.10,40.99 146.48,35.79 146.85,37.21 147.22,36.05 147.59,37.53 147.96,44.38 148.33,44.32 148.70,48.14 149.07,48.66 149.44,48.33 149.81,46.50 150.19,22.86 150.56,27.35 150.93,25.53 151.30,28.86 151.67,32.55 152.04,34.55 152.41,36.17 152.78,36.50 153.15,37.63 153.52,39.02 153.90,40.24 154.27,41.45 154.64,42.85 155.01,42.47 155.38,44.23 155.75,44.68 156.12,44.70 156.49,47.04 156.86,45.55 157.24,47.33 157.61,45.06 157.98,44.63 158.35,44.36 158.72,44.05 159.09,44.52 159.46,45.17 159.83,46.30 160.20,46.65 160.57,48.36 160.95,49.40 161.32,48.59 161.69,49.17 162.06,48.48 162.43,48.43 162.80,48.73 163.17,49.06 163.54,49.47 163.91,49.94 164.28,50.34 164.66,50.48 165.03,50.25 165.40,51.30 165.77,52.09 166.14,53.35 166.51,54.63 166.88,55.21 167.25,55.87 167.62,56.00 167.99,55.20 168.37,55.29 168.74,53.64 169.11,52.92 169.48,52.18 169.85,51.70 170.22,51.10 170.59,49.57 170.96,49.11 171.33,47.94 171.71,47.13 172.08,45.87 172.45,45.47 172.82,45.18 173.19,44.84 173.56,44.38 173.93,43.41 174.30,43.14 174.67,42.85 175.04,42.47 175.42,42.02 175.79,41.73 176.16,40.98 176.53,40.66 176.90,40.48 177.27,40.37 177.64,40.24 178.01,40.15 178.38,40.47 178.75,39.77 179.13,40.49 179.50,41.57 179.87,42.78 180.24,44.31 180.61,45.80 180.98,46.85 181.35,49.67 181.72,50.42 182.09,51.70 182.47,51.70 182.84,51.72 183.21,52.10 183.58,51.65 183.95,51.46 184.32,50.74 184.69,49.28 185.06,48.59 185.43,47.64 185.80,45.53 186.18,44.07 186.55,41.70 186.92,40.94 187.29,38.92 187.66,39.41 188.03,37.52 188.40,38.26 188.77,37.59 189.14,36.66 189.51,35.59 189.89,33.74 190.26,31.83 190.63,33.33 191.00,34.52 191.37,34.95 191.74,34.88 192.11,33.73 192.48,33.94 192.85,32.36 193.22,31.96 193.60,30.86 193.97,31.67 194.34,31.11 194.71,30.63 195.08,30.32 195.45,29.71 195.82,29.24 196.19,28.70 196.56,28.10 196.94,27.54 197.31,24.99 197.68,24.07 198.05,24.68 198.42,23.67 198.79,22.16 199.16,21.24 199.53,19.67 199.90,19.42 200.27,19.10 200.65,19.10 201.02,18.88 201.39,18.43 201.76,17.46 202.13,17.46 202.50,16.98 202.87,17.16 203.24,15.95 203.61,15.63 203.98,14.73 204.36,12.91 204.73,13.92 205.10,12.01 205.47,11.20 205.84,10.00 206.21,8.79 206.58,6.95 206.95,7.94 207.32,6.81 207.70,5.30 208.07,4.65 208.44,5.88 208.81,6.00 209.18,6.78 209.55,5.19 209.92,5.12 210.29,4.00 210.66,4.90 211.03,5.66 211.41,5.39 211.78,6.74 212.15,6.63 212.52,7.94 212.89,9.83 213.26,10.66 213.63,13.78 214.00,12.07 214.37,12.66 214.74,13.20 215.12,15.90 215.49,16.82 215.86,17.89 216.23,19.00 216.60,20.48 216.97,22.10 217.34,24.06 217.71,28.22 218.08,28.22 218.45,32.38 218.83,37.80 219.20,37.56 219.57,35.87 219.94,34.81 220.31,33.49 220.68,37.02 221.05,44.19 221.42,46.02 221.79,49.59 222.17,50.72 222.54,51.12 222.91,48.51 223.28,20.93 223.65,31.75 224.02,29.34 224.39,29.34 224.76,29.34 225.13,36.92 225.50,36.54 225.88,36.54 226.25,36.54 226.62,39.10 226.99,41.24 227.36,41.24 227.73,41.24 228.10,40.34 228.47,44.54 228.84,44.54 229.21,44.54 229.59,49.38 229.96,44.79 230.33,44.79 230.70,44.79 231.07,44.79 231.44,44.79 231.81,44.79 232.18,45.35 232.55,45.35 232.93,45.38 233.30,45.38 233.67,49.69 234.04,48.32 234.41,48.32 234.78,48.32 235.15,49.31 235.52,49.31 235.89,49.31 236.26,50.16 236.64,50.16 237.01,50.16 237.38,51.24 237.75,51.24 238.12,51.24 238.49,53.79 238.86,53.79 239.23,53.79 239.60,53.79 239.97,55.70 240.35,55.70 240.72,55.70 241.09,54.14 241.46,54.14 241.83,54.14 242.20,51.63 242.57,51.63 242.94,51.63 243.31,49.65 243.68,49.65 244.06,49.65 244.43,47.69 244.80,47.69 245.17,45.58 245.54,45.58 245.91,45.58 246.28,43.83 246.65,43.83 247.02,43.76 247.40,43.76 247.77,43.76 248.14,42.95 248.51,42.95 248.88,42.95 249.25,41.90 249.62,41.90 249.99,41.45 250.36,41.45 250.73,41.45 251.11,41.58 251.48,41.58 251.85,40.46 252.22,40.46 252.59,40.46 252.96,43.98 253.33,43.98 253.70,43.98 254.07,47.51 254.44,47.51 254.82,50.43 255.19,52.99 255.56,52.99 255.93,52.18 256.30,52.18 256.67,52.18 257.04,50.92 257.41,50.92 257.78,47.11 258.16,46.12 258.53,46.12 258.90,46.12 259.27,43.40 259.64,43.40 260.01,43.40 260.38,37.31 260.75,37.31 261.12,37.31 261.49,37.05 261.87,37.05 262.24,34.62 262.61,34.62 262.98,34.62 263.35,30.91 263.72,30.91 264.09,35.58 264.46,35.58 264.83,35.58 265.20,32.47 265.58,32.47 265.95,32.47 266.32,32.47 266.69,28.13 267.06,33.63 267.43,33.63 267.80,32.89 268.17,32.89 268.54,32.11 268.91,32.11 269.29,32.11 269.66,29.90 270.03,29.90 270.40,21.87 270.77,21.87 271.14,26.87 271.51,22.82 271.88,22.82 272.25,22.82 272.63,18.32 273.00,18.32 273.37,21.67 273.74,21.67 274.11,17.02 274.48,17.02 274.85,20.26 275.22,20.26 275.59,15.51 275.96,15.51 276.34,15.51 276.71,14.59 277.08,14.59 277.45,14.59 277.82,14.59 278.19,9.15 278.56,13.04 278.93,13.04 279.30,8.63 279.67,8.63 280.05,8.63 280.42,6.34 280.79,6.34 281.16,6.34 281.53,6.34 281.90,5.06 282.27,5.06 282.64,5.06 283.01,6.38 283.39,6.38 283.76,6.38 284.13,4.38 284.50,4.38 284.87,8.47 285.24,8.18 285.61,8.18 285.98,8.18 286.35,9.66 286.72,16.11 287.10,9.66 287.47,11.71 287.84,11.71 288.21,17.67 288.58,18.65 288.95,18.65 289.32,21.15 289.69,21.15 290.06,21.15 290.43,26.86 290.81,26.86 291.18,26.86 291.55,35.27 291.92,35.27 292.29,35.27 292.66,34.95 293.03,34.95 293.40,34.95 293.77,38.57 294.14,38.57 294.52,49.23 294.89,49.23 295.26,49.23 295.63,53.73 296.00,53.73" />
</svg>