<svg width="300" height="60" xmlns="http://www.w3.org/2000/svg">
  <polyline fill="rgba(255,200,0,0.3)" stroke="#ffbb00" stroke-width="2" points="4.00,4.96 4.65,5.01 5.31,5.14 5.96,5.72 6.61,6.29 7.27,6.91 7.92,7.53 8.57,8.05 9.23,8.48 9.88,9.01 10.53,9.75 11.19,10.63 11.84,11.38 12.49,12.10 13.15,12.90 13.80,13.75 14.45,14.56 15.11,15.53 15.76,16.25 16.41,16.94 17.06,17.52 17.72,18.11 18.37,18.49 19.02,18.71 19.68,18.77 20.33,18.70 20.98,18.25 21.64,17.78 22.29,17.43 22.94,17.28 23.60,17.18 24.25,16.98 24.90,16.64 25.56,16.36 26.21,16.28 26.86,16.17 27.52,15.93 28.17,15.92 28.82,15.96 29.48,16.02 30.13,16.32 30.78,16.84 31.44,17.49 32.09,18.31 32.74,18.88 33.40,19.21 34.05,19.32 34.70,19.41 35.36,19.88 36.01,20.46 36.66,21.11 37.32,21.60 37.97,22.23 38.62,22.88 39.28,23.58 39.93,24.22 40.58,25.02 41.23,25.70 41.89,26.33 42.54,26.90 43.19,27.56 43.85,28.36 44.50,29.06 45.15,29.88 45.81,30.65 46.46,31.53 47.11,32.42 47.77,33.28 48.42,34.17 49.07,34.99 49.73,35.87 50.38,36.54 51.03,37.10 51.69,37.61 52.34,38.04 52.99,38.48 53.65,38.97 54.30,39.36 54.95,39.69 55.61,40.08 56.26,40.53 56.91,41.06 57.57,41.78 58.22,42.53 58.87,43.19 59.53,43.85 60.18,44.53 60.83,45.02 61.49,45.78 62.14,46.51 62.79,47.10 63.45,47.47 64.10,47.84 64.75,48.48 65.40,49.12 66.06,49.65 66.71,50.18 67.36,50.52 68.02,51.12 68.67,51.71 69.32,52.18 69.98,52.73 70.63,53.42 71.28,54.07 71.94,54.61 72.59,55.05 73.24,55.34 73.90,55.67 74.55,55.81 75.20,55.65 75.86,55.17 76.51,54.52 77.16,5.16 77.82,5.38 78.47,5.28 79.12,5.90 79.78,6.36 80.43,6.82 81.08,7.57 81.74,8.08 82.39,8.42 83.04,8.96 83.70,9.87 84.35,10.80 85.00,11.47 85.66,12.29 86.31,12.82 86.96,14.02 87.62,14.78 88.27,15.61 88.92,16.30 89.57,17.17 90.23,17.76 90.88,18.34 91.53,18.51 92.19,18.80 92.84,19.10 93.49,19.10 94.15,18.26 94.80,17.70 95.45,17.56 96.11,17.22 96.76,17.30 97.41,16.55 98.07,16.63 98.72,16.62 99.37,16.38 100.03,16.21 100.68,16.14 101.33,16.03 101.99,16.07 102.64,16.14 103.29,16.45 103.95,16.92 104.60,17.58 105.25,18.41 105.91,18.93 106.56,19.25 107.21,19.38 107.87,19.56 108.52,20.16 109.17,20.66 109.83,21.20 110.48,21.71 111.13,22.53 111.79,23.10 112.44,23.73 113.09,24.36 113.74,25.16 114.40,25.79 115.05,26.44 115.70,26.98 116.36,27.67 117.01,28.65 117.66,29.21 118.32,30.12 118.97,30.87 119.62,31.63 120.28,32.55 120.93,33.58 121.58,34.25 122.24,35.16 122.89,36.07 123.54,36.58 124.20,37.31 124.85,37.76 125.50,38.26 126.16,38.65 126.81,39.03 127.46,39.48 128.12,39.80 128.77,40.27 129.42,40.66 130.08,41.11 130.73,42.09 131.38,42.62 132.04,43.25 132.69,44.13 133.34,44.56 134.00,45.10 134.65,45.72 135.30,46.41 135.96,47.31 136.61,47.47 137.26,47.98 137.91,48.70 138.57,49.41 139.22,50.40 139.87,50.63 140.53,51.28 141.18,51.27 141.83,52.23 142.49,52.43 143.14,53.14 143.79,54.22 144.45,54.68 145.10,55.07 145.75,55.22 146.41,55.51 147.06,55.82 147.71,56.00 148.37,55.80 149.02,55.30 149.67,54.63 150.33,4.23 150.98,4.87 151.63,5.09 152.29,6.13 152.94,6.70 153.59,7.22 154.25,7.72 154.90,8.11 155.55,8.41 156.21,8.76 156.86,10.17 157.51,11.31 158.17,11.13 158.82,11.94 159.47,12.99 160.13,13.71 160.78,14.88 161.43,15.97 162.09,17.30 162.74,17.22 163.39,18.75 164.04,18.69 164.70,18.72 165.35,18.75 166.00,18.89 166.66,18.77 167.31,17.54 167.96,16.58 168.62,16.79 169.27,15.80 169.92,16.46 170.58,15.44 171.23,15.66 171.88,15.66 172.54,15.87 173.19,16.10 173.84,15.57 174.50,15.70 175.15,15.92 175.80,15.91 176.46,16.14 177.11,16.70 177.76,16.94 178.42,17.90 179.07,18.44 179.72,19.08 180.38,19.11 181.03,19.33 181.68,19.58 182.34,20.33 182.99,20.51 183.64,21.44 184.30,22.19 184.95,22.36 185.60,23.08 186.26,24.02 186.91,24.94 187.56,24.94 188.21,25.81 188.87,26.68 189.52,27.24 190.17,28.17 190.83,28.90 191.48,29.87 192.13,30.31 192.79,31.01 193.44,32.20 194.09,32.87 194.75,33.93 195.40,34.82 196.05,35.67 196.71,35.76 197.36,36.69 198.01,37.27 198.67,37.93 199.32,38.48 199.97,38.48 200.63,39.05 201.28,39.63 201.93,39.87 202.59,40.46 203.24,40.88 203.89,41.91 204.55,41.91 205.20,43.31 205.85,43.61 206.51,44.90 207.16,44.84 207.81,45.87 208.47,46.90 209.12,48.09 209.77,47.69 210.43,48.58 211.08,48.77 211.73,49.01 212.38,48.14 213.04,49.92 213.69,49.26 214.34,48.66 215.00,51.07 215.65,52.59 216.30,51.12 216.96,52.12 217.61,54.08 218.26,54.57 218.92,53.81 219.57,54.61 220.22,55.22 220.88,55.99 221.53,55.67 222.18,55.13 222.84,54.44 223.49,4.00 224.14,4.00 224.80,4.00 225.45,6.11 226.10,6.11 226.76,8.50 227.41,8.50 228.06,8.50 228.72,9.63 229.37,9.63 230.02,11.01 230.68,11.01 231.33,9.95 231.98,9.95 232.64,13.44 233.29,13.44 233.94,12.39 234.60,16.35 235.25,16.35 235.90,16.83 236.55,16.83 237.21,16.83 237.86,17.56 238.51,17.56 239.17,18.47 239.82,18.47 240.47,17.08 241.13,17.08 241.78,17.08 242.43,14.39 243.09,17.55 243.74,17.55 244.39,14.73 245.05,14.73 245.70,14.73 246.35,18.52 247.01,15.72 247.66,15.72 248.31,15.72 248.97,15.83 249.62,16.55 250.27,16.55 250.93,16.55 251.58,17.73 252.23,18.44 252.89,18.44 253.54,18.44 254.19,19.49 254.85,19.49 255.50,20.23 256.15,20.78 256.81,20.78 257.46,20.78 258.11,22.38 258.77,23.19 259.42,23.19 260.07,23.19 260.72,23.19 261.38,25.90 262.03,25.90 262.68,25.90 263.34,27.89 263.99,27.89 264.64,28.79 265.30,28.79 265.95,30.72 266.60,30.72 267.26,30.72 267.91,34.11 268.56,34.11 269.22,34.11 269.87,34.11 270.52,36.49 271.18,36.49 271.83,37.31 272.48,38.55 273.14,38.55 273.79,38.55 274.44,39.71 275.10,40.18 275.75,40.18 276.40,40.18 277.06,41.50 277.71,41.50 278.36,43.18 279.02,43.18 279.67,43.87 280.32,43.87 280.98,43.87 281.63,46.88 282.28,46.88 282.94,46.88 283.59,46.88 284.24,47.36 284.89,47.36 285.55,47.36 286.20,45.06 286.85,45.06 287.51,45.06 288.16,49.55 288.81,49.55 289.47,49.55 290.12,50.57 290.77,54.73 291.43,54.73 292.08,53.79 292.73,53.79 293.39,53.79 294.04,55.23 294.69,55.23 295.35,55.23 296.00,54.04" />
</svg>