<svg width="300" height="60" xmlns="http://www.w3.org/2000/svg">
  <polyline fill="rgba(255,200,0,0.3)" stroke="#ffbb00" stroke-width="2" points="4.00,51.01 4.88,54.49 5.76,55.12 6.65,55.51 7.53,55.92 8.41,55.60 9.29,54.16 10.18,52.40 11.06,52.23 11.94,51.99 12.82,51.22 13.70,50.48 14.59,49.31 15.47,48.07 16.35,47.17 17.23,46.30 18.11,45.23 19.00,43.90 19.88,41.79 20.76,39.74 21.64,37.65 22.53,35.34 23.41,35.41 24.29,37.82 25.17,39.79 26.05,40.90 26.94,42.88 27.82,43.12 28.70,40.10 29.58,36.04 30.47,34.32 31.35,32.37 32.23,30.75 33.11,29.00 33.99,28.34 34.88,26.40 35.76,23.79 36.64,21.75 37.52,20.11 38.40,18.40 39.29,17.23 40.17,16.98 41.05,16.84 41.93,15.31 42.82,13.67 43.70,12.49 44.58,11.68 45.46,10.94 46.34,10.56 47.23,10.43 48.11,9.67 48.99,9.35 49.87,9.91 50.76,11.55 51.64,13.70 52.52,15.44 53.40,15.44 54.28,14.40 55.17,12.89 56.05,11.31 56.93,10.82 57.81,10.47 58.69,10.33 59.58,9.93 60.46,9.90 61.34,10.18 62.22,10.41 63.11,10.88 63.99,11.38 64.87,11.73 65.75,11.90 66.63,11.94 67.52,11.95 68.40,12.81 69.28,12.40 70.16,11.05 71.05,9.85 71.93,8.91 72.81,8.75 73.69,8.72 74.57,8.49 75.46,9.27 76.34,9.90 77.22,51.01 78.10,54.27 78.98,55.02 79.87,55.68 80.75,55.95 81.63,55.43 82.51,53.96 83.40,52.43 84.28,52.26 85.16,51.80 86.04,51.30 86.92,50.43 87.81,49.38 88.69,48.06 89.57,47.06 90.45,46.32 91.34,45.23 92.22,43.31 93.10,41.46 93.98,39.90 94.86,37.49 95.75,34.47 96.63,34.77 97.51,37.90 98.39,39.91 99.27,40.61 100.16,42.78 101.04,43.32 101.92,39.91 102.80,36.25 103.69,34.31 104.57,32.55 105.45,30.04 106.33,29.08 107.21,27.91 108.10,26.70 108.98,23.55 109.86,22.14 110.74,19.77 111.63,17.82 112.51,16.49 113.39,16.45 114.27,16.79 115.15,14.25 116.04,13.41 116.92,11.83 117.80,11.63 118.68,11.25 119.56,10.08 120.45,10.66 121.33,10.05 122.21,9.84 123.09,10.02 123.98,11.66 124.86,13.94 125.74,15.69 126.62,15.05 127.50,14.54 128.39,12.35 129.27,10.92 130.15,10.47 131.03,9.98 131.92,10.02 132.80,9.77 133.68,9.75 134.56,10.07 135.44,10.53 136.33,11.09 137.21,10.98 138.09,11.58 138.97,11.34 139.85,11.83 140.74,11.89 141.62,12.91 142.50,12.66 143.38,11.04 144.27,9.86 145.15,8.58 146.03,8.56 146.91,8.81 147.79,8.45 148.68,9.17 149.56,9.83 150.44,50.45 151.32,53.56 152.21,54.94 153.09,55.51 153.97,56.00 154.85,55.10 155.73,53.06 156.62,52.33 157.50,51.97 158.38,51.53 159.26,51.44 160.15,50.61 161.03,49.63 161.91,47.22 162.79,46.01 163.67,46.67 164.56,45.67 165.44,44.35 166.32,42.65 167.20,39.17 168.08,37.51 168.97,36.21 169.85,36.45 170.73,38.44 171.61,42.47 172.50,39.98 173.38,41.49 174.26,41.91 175.14,40.00 176.02,36.80 176.91,31.82 177.79,29.91 178.67,28.25 179.55,27.27 180.44,26.82 181.32,25.88 182.20,22.88 183.08,21.50 183.96,20.71 184.85,16.19 185.73,16.25 186.61,16.96 187.49,14.62 188.37,15.47 189.26,11.85 190.14,12.73 191.02,9.88 191.90,10.88 192.79,8.93 193.67,10.22 194.55,8.86 195.43,10.16 196.31,10.36 197.20,11.88 198.08,14.22 198.96,15.58 199.84,14.14 200.73,14.27 201.61,11.32 202.49,12.30 203.37,10.98 204.25,8.79 205.14,10.30 206.02,9.92 206.90,10.02 207.78,10.02 208.66,10.51 209.55,11.30 210.43,10.43 211.31,11.24 212.19,11.85 213.08,11.85 213.96,12.37 214.84,13.10 215.72,12.12 216.60,10.54 217.49,10.59 218.37,9.14 219.25,8.60 220.13,8.35 221.02,9.65 221.90,9.53 222.78,9.42 223.66,52.23 224.54,52.23 225.43,55.49 226.31,55.49 227.19,55.49 228.07,54.00 228.95,54.00 229.84,50.89 230.72,50.89 231.60,50.89 232.48,49.72 233.37,49.72 234.25,49.72 235.13,46.15 236.01,46.15 236.89,41.78 237.78,41.78 238.66,41.78 239.54,36.20 240.42,36.20 241.31,33.88 242.19,33.88 243.07,33.88 243.95,38.22 244.83,38.22 245.72,40.76 246.60,40.76 247.48,40.76 248.36,34.64 249.24,34.64 250.13,28.64 251.01,28.64 251.89,28.64 252.77,25.65 253.66,25.65 254.54,25.65 255.42,22.13 256.30,22.13 257.18,20.66 258.07,8.96 258.95,8.96 259.83,11.29 260.71,11.29 261.60,11.29 262.48,13.80 263.36,13.80 264.24,4.00 265.12,8.07 266.01,8.07 266.89,8.07 267.77,12.37 268.65,12.37 269.53,9.63 270.42,14.70 271.30,14.70 272.18,14.70 273.06,8.70 273.95,8.70 274.83,8.70 275.71,12.58 276.59,12.58 277.47,6.89 278.36,6.89 279.24,11.53 280.12,11.53 281.00,11.53 281.89,8.22 282.77,13.37 283.65,13.37 284.53,10.73 285.41,10.73 286.30,10.73 287.18,13.86 288.06,10.79 288.94,10.79 289.82,10.79 290.71,11.78 291.59,8.43 292.47,8.43 293.35,8.43 294.24,10.65 295.12,8.30 296.00,8.30" />
</svg>