<svg width="300" height="60" xmlns="http://www.w3.org/2000/svg">
  <polyline fill="rgba(255,200,0,0.3)" stroke="#ffbb00" stroke-width="2" points="4.00,31.49 4.20,31.04 4.40,30.60 4.60,30.17 4.80,29.52 5.00,29.36 5.20,29.15 5.40,28.85 5.60,28.45 5.80,28.39 6.00,28.24 6.20,28.12 6.40,27.86 6.60,26.55 6.80,25.56 7.00,25.13 7.20,24.98 7.40,24.88 7.60,24.81 7.80,24.41 8.00,23.68 8.20,22.86 8.40,21.76 8.60,20.79 8.80,19.58 9.00,18.53 9.20,18.16 9.40,18.97 9.60,19.68 9.80,20.16 10.00,20.24 10.20,20.46 10.40,21.56 10.60,22.57 10.80,22.80 11.00,21.61 11.20,21.21 11.41,21.27 11.61,22.37 11.81,22.60 12.01,21.70 12.21,20.13 12.41,17.61 12.61,16.63 12.81,15.18 13.01,14.22 13.21,11.64 13.41,8.97 13.61,6.75 13.81,5.27 14.01,5.16 14.21,6.79 14.41,8.94 14.61,11.20 14.81,11.63 15.01,12.04 15.21,11.55 15.41,10.00 15.61,9.46 15.81,9.06 16.01,8.72 16.21,8.94 16.41,9.88 16.61,11.38 16.81,11.59 17.01,11.09 17.21,11.11 17.41,11.25 17.61,11.91 17.81,13.28 18.01,15.30 18.21,16.23 18.41,16.54 18.61,17.12 18.81,17.42 19.01,16.58 19.21,15.47 19.41,14.43 19.61,14.12 19.81,13.45 20.01,12.83 20.21,12.23 20.41,11.87 20.61,12.10 20.81,12.44 21.01,12.94 21.21,13.23 21.41,13.18 21.61,13.93 21.81,15.66 22.01,16.47 22.21,18.62 22.41,20.31 22.61,22.06 22.81,22.96 23.01,22.44 23.21,22.14 23.41,21.36 23.61,21.33 23.81,21.83 24.01,22.22 24.21,22.67 24.41,23.00 24.61,23.96 24.81,24.95 25.01,25.30 25.21,25.26 25.41,24.51 25.61,24.15 25.81,24.12 26.02,24.09 26.22,24.11 26.42,24.23 26.62,25.41 26.82,26.46 27.02,26.06 27.22,26.65 27.42,26.08 27.62,25.63 27.82,25.22 28.02,25.28 28.22,24.78 28.42,24.82 28.62,23.91 28.82,47.48 29.02,47.96 29.22,49.08 29.42,49.77 29.62,50.75 29.82,50.86 30.02,49.59 30.22,47.96 30.42,47.37 30.62,45.93 30.82,45.28 31.02,45.01 31.22,44.74 31.42,44.58 31.62,44.42 31.82,44.05 32.02,43.76 32.22,43.07 32.42,42.38 32.62,41.80 32.82,40.62 33.02,39.67 33.22,38.51 33.42,38.10 33.62,37.94 33.82,37.65 34.02,36.98 34.22,36.50 34.42,36.07 34.62,35.95 34.82,35.76 35.02,35.40 35.22,34.85 35.42,35.50 35.62,37.24 35.82,40.17 36.02,41.22 36.22,42.80 36.42,42.89 36.62,43.31 36.82,42.00 37.02,41.22 37.22,40.33 37.42,39.70 37.62,40.22 37.82,40.96 38.02,41.23 38.22,41.24 38.42,41.75 38.62,41.97 38.82,41.75 39.02,41.09 39.22,40.56 39.42,40.68 39.62,39.42 39.82,36.82 40.02,37.29 40.22,38.96 40.42,36.53 40.63,35.39 40.83,35.54 41.03,35.75 41.23,36.28 41.43,37.04 41.63,36.68 41.83,36.87 42.03,36.92 42.23,36.67 42.43,36.61 42.63,37.58 42.83,40.01 43.03,40.22 43.23,39.54 43.43,38.66 43.63,38.23 43.83,38.38 44.03,39.06 44.23,39.76 44.43,40.62 44.63,31.55 44.83,31.10 45.03,30.66 45.23,30.24 45.43,29.68 45.63,29.44 45.83,29.22 46.03,28.92 46.23,28.53 46.43,28.49 46.63,28.59 46.83,28.18 47.03,27.97 47.23,26.59 47.43,25.69 47.63,25.17 47.83,25.03 48.03,25.07 48.23,24.86 48.43,24.56 48.63,23.76 48.83,22.94 49.03,21.86 49.23,20.86 49.43,19.67 49.63,18.62 49.83,18.24 50.03,19.05 50.23,19.77 50.43,20.28 50.63,20.39 50.83,20.49 51.03,21.77 51.23,22.85 51.43,22.91 51.63,21.95 51.83,21.29 52.03,21.43 52.23,22.61 52.43,22.70 52.63,21.76 52.83,20.30 53.03,17.68 53.23,16.68 53.43,15.58 53.63,14.40 53.83,11.70 54.03,9.00 54.23,6.83 54.43,5.36 54.63,5.21 54.83,6.90 55.03,9.05 55.24,11.24 55.44,11.78 55.64,12.10 55.84,11.63 56.04,10.04 56.24,9.49 56.44,9.10 56.64,8.77 56.84,8.98 57.04,9.97 57.24,11.45 57.44,11.63 57.64,11.14 57.84,11.19 58.04,11.36 58.24,11.99 58.44,13.31 58.64,15.36 58.84,16.33 59.04,16.65 59.24,17.19 59.44,17.46 59.64,16.64 59.84,15.50 60.04,14.51 60.24,14.15 60.44,13.54 60.64,12.84 60.84,12.35 61.04,11.93 61.24,12.16 61.44,12.51 61.64,12.96 61.84,13.28 62.04,13.26 62.24,13.93 62.44,15.66 62.64,16.55 62.84,18.67 63.04,20.38 63.24,22.11 63.44,23.02 63.64,22.48 63.84,22.19 64.04,21.44 64.24,21.44 64.44,21.92 64.64,22.30 64.84,22.75 65.04,23.10 65.24,24.03 65.44,25.00 65.64,25.33 65.84,25.31 66.04,24.53 66.24,24.18 66.44,24.13 66.64,24.13 66.84,24.13 67.04,24.30 67.24,25.51 67.44,26.51 67.64,26.45 67.84,26.71 68.04,26.24 68.24,25.67 68.44,25.27 68.64,25.32 68.84,24.96 69.04,24.90 69.24,24.04 69.44,23.29 69.64,23.09 69.85,23.04 70.05,23.24 70.25,22.83 70.45,22.89 70.65,23.78 70.85,23.71 71.05,23.90 71.25,23.18 71.45,22.16 71.65,21.71 71.85,20.97 72.05,20.36 72.25,20.53 72.45,21.07 72.65,21.75 72.85,22.35 73.05,22.76 73.25,23.13 73.45,24.79 73.65,27.20 73.85,28.58 74.05,28.29 74.25,26.38 74.45,26.21 74.65,26.94 74.85,26.86 75.05,26.95 75.25,28.29 75.45,33.36 75.65,34.29 75.85,38.41 76.05,40.07 76.25,38.37 76.45,37.93 76.65,38.11 76.85,38.29 77.05,38.55 77.25,38.70 77.45,38.94 77.65,39.12 77.85,39.75 78.05,42.05 78.25,44.34 78.45,41.37 78.65,39.75 78.85,39.40 79.05,40.54 79.25,41.06 79.45,40.19 79.65,39.98 79.85,41.13 80.05,41.83 80.25,41.88 80.45,39.97 80.65,38.59 80.85,38.76 81.05,39.20 81.25,39.97 81.45,41.55 81.65,43.08 81.85,45.66 82.05,46.58 82.25,47.37 82.45,48.48 82.65,48.65 82.85,47.45 83.05,47.71 83.25,48.02 83.45,48.44 83.65,48.92 83.85,51.27 84.05,52.99 84.25,52.03 84.46,50.44 84.66,49.08 84.86,47.86 85.06,47.51 85.26,47.98 85.46,49.11 85.66,49.83 85.86,50.78 86.06,50.92 86.26,49.64 86.46,48.01 86.66,47.42 86.86,45.94 87.06,45.31 87.26,45.16 87.46,44.77 87.66,44.62 87.86,44.48 88.06,44.10 88.26,43.82 88.46,43.26 88.66,42.42 88.86,41.85 89.06,40.67 89.26,39.67 89.46,38.54 89.66,38.14 89.86,37.95 90.06,37.68 90.26,36.98 90.46,36.54 90.66,36.10 90.86,36.01 91.06,35.78 91.26,35.41 91.46,34.92 91.66,35.59 91.86,37.29 92.06,40.24 92.26,41.22 92.46,42.80 92.66,43.00 92.86,43.28 93.06,42.01 93.26,41.25 93.46,40.38 93.66,39.72 93.86,40.30 94.06,41.01 94.26,41.29 94.46,41.36 94.66,41.86 94.86,42.10 95.06,41.86 95.26,41.22 95.46,40.69 95.66,40.84 95.86,39.51 96.06,36.99 96.26,37.51 96.46,39.05 96.66,36.53 96.86,35.49 97.06,35.57 97.26,35.79 97.46,36.33 97.66,37.07 97.86,36.78 98.06,36.92 98.26,37.00 98.46,36.73 98.66,36.66 98.86,37.66 99.07,40.08 99.27,40.29 99.47,39.65 99.67,38.70 99.87,38.27 100.07,38.46 100.27,39.12 100.47,39.81 100.67,40.70 100.87,41.35 101.07,41.90 101.27,42.08 101.47,42.58 101.67,43.23 101.87,43.36 102.07,43.53 102.27,42.88 102.47,41.56 102.67,41.63 102.87,41.82 103.07,42.15 103.27,42.55 103.47,43.13 103.67,43.81 103.87,44.79 104.07,45.55 104.27,46.46 104.47,46.72 104.67,47.11 104.87,48.39 105.07,47.32 105.27,47.78 105.47,48.82 105.67,50.28 105.87,51.29 106.07,52.44 106.27,52.13 106.47,51.43 106.67,52.41 106.87,55.20 107.07,55.90 107.27,29.13 107.47,28.96 107.67,28.68 107.87,29.06 108.07,28.65 108.27,28.00 108.47,26.51 108.67,25.96 108.87,25.42 109.07,25.23 109.27,25.04 109.47,25.02 109.67,24.50 109.87,24.23 110.07,23.29 110.27,22.32 110.47,21.15 110.67,20.04 110.87,18.95 111.07,18.62 111.27,19.45 111.47,20.03 111.67,21.36 111.87,21.15 112.07,21.18 112.27,21.66 112.47,22.43 112.67,22.92 112.87,22.09 113.07,22.06 113.27,22.48 113.47,22.64 113.68,23.27 113.88,22.99 114.08,20.80 114.28,17.95 114.48,17.16 114.68,15.89 114.88,14.92 115.08,12.29 115.28,9.56 115.48,8.00 115.68,6.17 115.88,5.84 116.08,7.02 116.28,9.37 116.48,11.30 116.68,12.05 116.88,12.84 117.08,12.16 117.28,10.96 117.48,9.88 117.68,9.47 117.88,9.19 118.08,9.38 118.28,10.02 118.48,11.66 118.68,11.71 118.88,11.58 119.08,11.32 119.28,11.92 119.48,12.26 119.68,14.05 119.88,15.57 120.08,17.18 120.28,17.28 120.48,17.31 120.68,17.91 120.88,16.87 121.08,16.17 121.28,14.96 121.48,14.31 121.68,13.41 121.88,12.60 122.08,12.66 122.28,11.95 122.48,12.16 122.68,12.70 122.88,12.70 123.08,13.33 123.28,13.16 123.48,14.60 123.68,15.85 123.88,16.72 124.08,18.18 124.28,20.19 124.48,21.57 124.68,23.15 124.88,23.32 125.08,22.52 125.28,21.63 125.48,21.99 125.68,22.01 125.88,22.74 126.08,23.05 126.28,23.36 126.48,24.19 126.68,25.32 126.88,25.47 127.08,25.59 127.28,25.05 127.48,24.85 127.68,24.54 127.88,24.61 128.08,24.48 128.29,24.85 128.49,26.23 128.69,26.86 128.89,27.43 129.09,26.83 129.29,26.32 129.49,25.85 129.69,25.44 129.89,25.44 130.09,25.25 130.29,25.01 130.49,24.09 130.69,23.86 130.89,23.43 131.09,23.19 131.29,23.42 131.49,23.11 131.69,23.22 131.89,24.33 132.09,24.18 132.29,24.15 132.49,23.28 132.69,22.21 132.89,21.97 133.09,20.96 133.29,20.79 133.49,20.81 133.69,21.31 133.89,22.06 134.09,22.61 134.29,23.02 134.49,23.30 134.69,24.62 134.89,27.14 135.09,28.23 135.29,28.49 135.49,27.28 135.69,26.17 135.89,27.28 136.09,27.07 136.29,26.95 136.49,28.80 136.69,32.41 136.89,34.95 137.09,38.70 137.29,39.85 137.49,38.72 137.69,38.43 137.89,38.80 138.09,38.56 138.29,38.75 138.49,39.19 138.69,40.19 138.89,39.68 139.09,40.36 139.29,43.10 139.49,44.61 139.69,41.69 139.89,40.14 140.09,40.38 140.29,41.06 140.49,41.08 140.69,40.45 140.89,40.26 141.09,41.44 141.29,42.12 141.49,42.17 141.69,40.17 141.89,38.91 142.09,39.75 142.29,39.78 142.49,40.12 142.69,41.92 142.90,43.75 143.10,46.08 143.30,46.93 143.50,48.22 143.70,48.77 143.90,48.79 144.10,47.74 144.30,47.89 144.50,48.06 144.70,48.90 144.90,49.43 145.10,51.57 145.30,53.41 145.50,52.56 145.70,50.52 145.90,49.39 146.10,48.55 146.30,48.16 146.50,48.42 146.70,49.60 146.90,50.37 147.10,51.50 147.30,51.19 147.50,49.63 147.70,48.21 147.90,47.44 148.10,46.59 148.30,45.65 148.50,45.98 148.70,45.11 148.90,45.30 149.10,44.75 149.30,44.77 149.50,44.39 149.70,43.47 149.90,42.87 150.10,42.10 150.30,41.57 150.50,39.79 150.70,39.04 150.90,38.78 151.10,38.63 151.30,38.62 151.50,37.20 151.70,36.75 151.90,36.47 152.10,36.54 152.30,36.16 152.50,35.68 152.70,35.63 152.90,35.69 153.10,38.24 153.30,40.50 153.50,41.99 153.70,43.39 153.90,43.36 154.10,44.04 154.30,42.57 154.50,41.67 154.70,40.86 154.90,40.31 155.10,40.91 155.30,41.22 155.50,41.40 155.70,41.48 155.90,42.23 156.10,42.09 156.30,41.92 156.50,41.15 156.70,40.65 156.90,40.18 157.10,39.18 157.31,36.99 157.51,36.76 157.71,38.38 157.91,36.78 158.11,35.61 158.31,35.51 158.51,35.92 158.71,36.49 158.91,36.93 159.11,36.87 159.31,36.99 159.51,37.01 159.71,36.84 159.91,37.01 160.11,37.83 160.31,38.78 160.51,40.18 160.71,39.65 160.91,38.60 161.11,38.72 161.31,38.87 161.51,39.14 161.71,39.97 161.91,40.96 162.11,41.22 162.31,41.92 162.51,41.89 162.71,42.54 162.91,43.27 163.11,43.22 163.31,43.78 163.51,43.15 163.71,41.86 163.91,41.77 164.11,41.72 164.31,42.18 164.51,42.66 164.71,43.16 164.91,44.04 165.11,44.71 165.31,45.57 165.51,46.70 165.71,46.64 165.91,46.93 166.11,47.85 166.31,47.53 166.51,47.75 166.71,48.79 166.91,50.01 167.11,51.33 167.31,51.75 167.51,51.91 167.71,51.65 167.91,52.73 168.11,54.97 168.31,56.00 168.51,31.34 168.71,30.96 168.91,30.47 169.11,30.13 169.31,29.52 169.51,29.35 169.71,29.23 169.91,28.85 170.11,28.58 170.31,28.27 170.51,23.88 170.71,22.82 170.91,31.34 171.11,30.98 171.31,30.48 171.51,30.00 171.71,29.49 171.92,29.05 172.12,28.63 172.32,28.23 172.52,28.87 172.72,28.53 172.92,27.90 173.12,27.64 173.32,26.67 173.52,26.38 173.72,25.74 173.92,24.87 174.12,24.67 174.32,24.55 174.52,24.40 174.72,24.17 174.92,23.87 175.12,21.73 175.32,21.73 175.52,20.13 175.72,18.71 175.92,18.35 176.12,18.83 176.32,19.89 176.52,19.89 176.72,21.23 176.92,22.15 177.12,20.49 177.32,22.83 177.52,21.46 177.72,22.59 177.92,22.69 178.12,22.69 178.32,23.12 178.52,22.79 178.72,21.44 178.92,19.58 179.12,17.67 179.32,14.37 179.52,14.50 179.72,11.49 179.92,12.20 180.12,11.82 180.32,5.92 180.52,5.82 180.72,4.23 180.92,5.99 181.12,6.07 181.32,9.86 181.52,11.20 181.72,11.20 181.92,12.71 182.12,10.96 182.32,11.77 182.52,11.07 182.72,9.51 182.92,9.66 183.12,10.66 183.32,10.01 183.52,12.04 183.72,11.43 183.92,11.96 184.12,10.26 184.32,11.94 184.52,11.84 184.72,13.46 184.92,15.19 185.12,15.87 185.32,15.87 185.52,16.56 185.72,17.02 185.92,15.87 186.12,15.43 186.32,14.49 186.53,13.60 186.73,14.09 186.93,14.01 187.13,14.20 187.33,12.47 187.53,13.06 187.73,13.66 187.93,14.16 188.13,14.58 188.33,14.57 188.53,14.65 188.73,16.38 188.93,18.14 189.13,18.43 189.33,20.16 189.53,21.82 189.73,21.16 189.93,22.24 190.13,21.42 190.33,20.96 190.53,21.11 190.73,21.35 190.93,22.60 191.13,22.51 191.33,22.51 191.53,23.72 191.73,24.65 191.93,24.77 192.13,25.52 192.33,24.31 192.53,23.71 192.73,24.33 192.93,24.00 193.13,23.80 193.33,24.89 193.53,26.06 193.73,25.36 193.93,26.80 194.13,26.89 194.33,26.24 194.53,25.31 194.73,25.31 194.93,24.87 195.13,24.44 195.33,25.21 195.53,24.05 195.73,24.31 195.93,23.23 196.13,22.57 196.33,23.08 196.53,23.54 196.73,22.43 196.93,23.22 197.13,23.80 197.33,23.84 197.53,23.14 197.73,22.27 197.93,21.67 198.13,20.98 198.33,21.21 198.53,21.12 198.73,21.53 198.93,22.04 199.13,22.54 199.33,22.91 199.53,23.37 199.73,23.87 199.93,25.91 200.13,28.03 200.33,27.43 200.53,26.69 200.73,25.41 200.93,26.56 201.14,27.56 201.34,25.62 201.54,28.94 201.74,30.72 201.94,33.59 202.14,36.71 202.34,39.02 202.54,38.79 202.74,38.44 202.94,38.15 203.14,37.93 203.34,37.78 203.54,39.66 203.74,40.03 203.94,39.49 204.14,39.53 204.34,43.77 204.54,44.08 204.74,41.55 204.94,40.38 205.14,41.29 205.34,40.93 205.54,40.35 205.74,40.27 205.94,39.43 206.14,41.62 206.34,41.98 206.54,41.57 206.74,40.51 206.94,39.40 207.14,39.49 207.34,40.24 207.54,39.56 207.74,40.96 207.94,42.62 208.14,46.17 208.34,47.46 208.54,48.20 208.74,48.88 208.94,49.29 209.14,47.31 209.34,47.29 209.54,47.70 209.74,48.41 209.94,49.64 210.14,50.91 210.34,52.93 210.54,51.89 210.74,50.55 210.94,49.32 211.14,48.59 211.34,47.99 211.54,48.19 211.74,48.66 211.94,50.78 212.14,50.25 212.34,50.50 212.54,49.15 212.74,47.90 212.94,46.82 213.14,46.29 213.34,45.76 213.54,45.46 213.74,45.32 213.94,45.08 214.14,44.28 214.34,43.68 214.54,44.29 214.74,43.23 214.94,42.17 215.14,42.05 215.34,40.79 215.54,40.18 215.75,38.94 215.95,38.00 216.15,38.12 216.35,37.29 216.55,36.29 216.75,35.30 216.95,36.41 217.15,35.68 217.35,35.09 217.55,34.47 217.75,34.74 217.95,35.87 218.15,36.85 218.35,39.55 218.55,40.25 218.75,42.20 218.95,41.34 219.15,42.08 219.35,42.08 219.55,41.48 219.75,40.28 219.95,40.11 220.15,40.44 220.35,41.07 220.55,41.13 220.75,41.47 220.95,43.23 221.15,44.21 221.35,42.27 221.55,42.62 221.75,42.98 221.95,40.62 222.15,40.32 222.35,38.37 222.55,39.58 222.75,37.97 222.95,36.00 223.15,35.45 223.35,35.18 223.55,37.25 223.75,37.28 223.95,37.45 224.15,36.22 224.35,36.84 224.55,37.32 224.75,36.48 224.95,37.08 225.15,38.31 225.35,40.33 225.55,40.09 225.75,40.09 225.95,38.81 226.15,38.38 226.35,39.54 226.55,39.66 226.75,40.04 226.95,40.57 227.15,41.32 227.35,42.07 227.55,42.89 227.75,42.66 227.95,44.00 228.15,42.94 228.35,43.64 228.55,43.40 228.75,42.44 228.95,41.93 229.15,41.60 229.35,42.22 229.55,42.32 229.75,42.72 229.95,44.16 230.15,43.88 230.36,44.63 230.56,46.14 230.76,46.72 230.96,47.63 231.16,47.06 231.36,47.11 231.56,47.10 231.76,48.98 231.96,50.72 232.16,51.41 232.36,51.83 232.56,51.59 232.76,52.28 232.96,52.55 233.16,55.89 233.36,55.85 233.56,32.30 233.76,32.30 233.96,31.10 234.16,31.10 234.36,31.10 234.56,29.75 234.76,29.75 234.96,29.75 235.16,28.45 235.36,28.45 235.56,28.45 235.76,26.42 235.96,26.42 236.16,25.79 236.36,25.79 236.56,24.67 236.76,24.67 236.96,24.67 237.16,24.13 237.36,24.13 237.56,24.13 237.76,23.15 237.96,23.15 238.16,19.25 238.36,19.46 238.56,19.46 238.76,20.59 238.96,20.59 239.16,20.59 239.36,20.59 239.56,24.42 239.76,24.42 239.96,24.42 240.16,21.10 240.36,21.10 240.56,21.10 240.76,20.94 240.96,20.94 241.16,20.94 241.36,19.69 241.56,19.69 241.76,22.22 241.96,11.82 242.16,11.82 242.36,11.82 242.56,11.77 242.76,11.77 242.96,10.69 243.16,10.69 243.36,4.00 243.56,9.11 243.76,9.11 243.96,9.11 244.16,11.85 244.36,11.85 244.56,11.85 244.76,11.85 244.97,13.97 245.17,8.60 245.37,8.60 245.57,8.60 245.77,10.23 245.97,10.23 246.17,10.23 246.37,10.23 246.57,12.76 246.77,6.80 246.97,12.76 247.17,12.51 247.37,12.51 247.57,12.51 247.77,17.82 247.97,17.82 248.17,15.67 248.37,15.67 248.57,15.67 248.77,14.25 248.97,14.25 249.17,14.25 249.37,11.67 249.57,11.67 249.77,11.67 249.97,11.64 250.17,11.64 250.37,11.64 250.57,12.61 250.77,12.61 250.97,12.63 251.17,12.63 251.37,12.63 251.57,17.25 251.77,17.25 251.97,17.25 252.17,17.25 252.37,18.05 252.57,22.16 252.77,22.16 252.97,21.68 253.17,21.68 253.37,21.68 253.57,21.57 253.77,21.57 253.97,21.57 254.17,21.57 254.37,24.50 254.57,24.50 254.77,24.50 254.97,24.50 255.17,24.06 255.37,24.06 255.57,24.06 255.77,26.45 255.97,26.45 256.17,23.77 256.37,23.77 256.57,27.61 256.77,27.61 256.97,25.41 257.17,26.93 257.37,26.93 257.57,26.93 257.77,24.48 257.97,25.17 258.17,25.17 258.37,25.17 258.57,26.18 258.77,22.60 258.97,22.60 259.17,23.51 259.37,23.51 259.58,23.51 259.78,24.57 259.98,24.57 260.18,23.54 260.38,23.54 260.58,23.54 260.78,21.95 260.98,21.95 261.18,21.77 261.38,21.77 261.58,21.77 261.78,23.30 261.98,23.30 262.18,23.30 262.38,25.02 262.58,25.02 262.78,27.57 262.98,23.72 263.18,23.72 263.38,24.24 263.58,24.24 263.78,24.24 263.98,26.17 264.18,26.17 264.38,26.17 264.58,26.17 264.78,35.83 264.98,35.83 265.18,38.95 265.38,38.95 265.58,38.95 265.78,38.96 265.98,38.96 266.18,43.51 266.38,45.53 266.58,45.53 266.78,45.91 266.98,45.91 267.18,45.91 267.38,42.86 267.58,42.86 267.78,49.48 267.98,43.99 268.18,43.99 268.38,43.99 268.58,41.75 268.78,41.75 268.98,41.75 269.18,41.29 269.38,48.56 269.58,46.20 269.78,46.20 269.98,46.20 270.18,40.68 270.38,40.68 270.58,40.68 270.78,44.59 270.98,44.59 271.18,48.10 271.38,48.10 271.58,48.10 271.78,48.93 271.98,48.93 272.18,48.93 272.38,50.38 272.58,50.38 272.78,52.89 272.98,52.89 273.18,52.89 273.38,50.53 273.58,50.53 273.78,50.53 273.98,48.43 274.19,48.43 274.39,48.94 274.59,53.51 274.79,53.51 274.99,50.62 275.19,50.62 275.39,50.62 275.59,46.87 275.79,48.24 275.99,48.24 276.19,49.83 276.39,49.83 276.59,49.83 276.79,49.83 276.99,49.83 277.19,46.29 277.39,46.29 277.59,46.29 277.79,42.17 277.99,42.17 278.19,44.36 278.39,42.58 278.59,42.58 278.79,41.69 278.99,41.69 279.19,41.69 279.39,38.65 279.59,38.65 279.79,38.65 279.99,36.46 280.19,36.46 280.39,36.50 280.59,36.50 280.79,36.50 280.99,41.49 281.19,41.49 281.39,41.49 281.59,42.21 281.79,42.21 281.99,42.21 282.19,42.54 282.39,42.54 282.59,41.34 282.79,41.34 282.99,41.34 283.19,42.79 283.39,42.79 283.59,40.72 283.79,40.72 283.99,40.72 284.19,39.99 284.39,39.99 284.59,39.99 284.79,39.00 284.99,39.00 285.19,36.11 285.39,36.11 285.59,36.11 285.79,33.70 285.99,33.70 286.19,37.00 286.39,36.25 286.59,36.25 286.79,36.25 286.99,36.25 287.19,39.50 287.39,35.73 287.59,35.73 287.79,38.81 287.99,38.81 288.19,38.81 288.39,38.81 288.59,38.42 288.80,38.42 289.00,43.36 289.20,43.13 289.40,43.13 289.60,43.13 289.80,44.36 290.00,44.36 290.20,44.36 290.40,42.77 290.60,42.77 290.80,42.77 291.00,42.77 291.20,44.17 291.40,44.17 291.60,44.17 291.80,43.61 292.00,41.55 292.20,41.55 292.40,41.55 292.60,42.31 292.80,42.31 293.00,42.31 293.20,44.21 293.40,44.21 293.60,46.35 293.80,46.35 294.00,46.35 294.20,47.41 294.40,47.41 294.60,49.00 294.80,49.00 295.00,49.00 295.20,50.10 295.40,50.10 295.60,50.10 295.80,55.62 296.00,55.62" />
</svg>