<svg width="300" height="60" xmlns="http://www.w3.org/2000/svg">
  <polyline fill="rgba(255,200,0,0.3)" stroke="#ffbb00" stroke-width="2" points="4.00,45.23 4.59,45.50 5.17,45.94 5.76,46.31 6.34,46.39 6.93,46.67 7.51,47.40 8.10,48.07 8.68,48.93 9.27,49.74 9.85,50.42 10.44,51.01 11.02,51.54 11.61,52.12 12.19,53.04 12.78,53.68 13.36,53.98 13.95,53.67 14.53,52.90 15.12,51.82 15.70,50.52 16.29,48.83 16.87,47.21 17.46,45.56 18.04,43.68 18.63,41.82 19.21,39.96 19.80,38.20 20.38,36.57 20.97,34.99 21.56,33.66 22.14,32.55 22.73,31.53 23.31,30.48 23.90,29.84 24.48,28.93 25.07,28.73 25.65,28.85 26.24,28.39 26.82,28.11 27.41,28.20 27.99,28.45 28.58,28.75 29.16,29.06 29.75,29.13 30.33,28.85 30.92,28.02 31.50,26.84 32.09,25.85 32.67,24.97 33.26,24.10 33.84,23.42 34.43,22.85 35.01,22.53 35.60,22.09 36.18,21.77 36.77,21.56 37.35,21.42 37.94,20.99 38.53,20.22 39.11,18.94 39.70,17.86 40.28,17.04 40.87,15.89 41.45,15.58 42.04,15.62 42.62,14.64 43.21,13.75 43.79,12.91 44.38,11.81 44.96,11.56 45.55,11.84 46.13,12.90 46.72,14.04 47.30,15.42 47.89,15.40 48.47,15.24 49.06,15.13 49.64,15.19 50.23,15.63 50.81,16.46 51.40,17.85 51.98,18.93 52.57,20.38 53.15,21.60 53.74,22.55 54.32,22.05 54.91,20.45 55.49,18.88 56.08,17.86 56.67,16.90 57.25,16.03 57.84,15.52 58.42,15.39 59.01,14.94 59.59,14.46 60.18,14.19 60.76,14.22 61.35,14.18 61.93,14.58 62.52,14.78 63.10,14.79 63.69,13.80 64.27,12.83 64.86,11.82 65.44,10.91 66.03,10.40 66.61,10.28 67.20,10.60 67.78,11.45 68.37,12.42 68.95,12.73 69.54,12.43 70.12,11.70 70.71,10.86 71.29,10.31 71.88,10.60 72.46,9.90 73.05,8.97 73.64,8.25 74.22,7.88 74.81,7.70 75.39,7.71 75.98,7.72 76.56,7.81 77.15,45.29 77.73,45.52 78.32,45.87 78.90,46.29 79.49,46.47 80.07,46.70 80.66,47.46 81.24,48.16 81.83,49.46 82.41,49.88 83.00,50.72 83.58,51.07 84.17,51.58 84.75,52.03 85.34,52.94 85.92,53.61 86.51,54.19 87.09,53.93 87.68,53.23 88.26,52.11 88.85,51.02 89.43,49.57 90.02,48.01 90.61,45.70 91.19,44.06 91.78,42.03 92.36,40.06 92.95,38.32 93.53,36.55 94.12,35.52 94.70,34.03 95.29,32.99 95.87,31.69 96.46,30.65 97.04,29.91 97.63,29.08 98.21,28.99 98.80,28.71 99.38,28.37 99.97,28.19 100.55,28.05 101.14,28.58 101.72,28.97 102.31,29.15 102.89,29.15 103.48,29.03 104.06,27.80 104.65,26.94 105.23,25.90 105.82,25.12 106.40,23.86 106.99,23.35 107.58,22.89 108.16,22.63 108.75,22.13 109.33,21.62 109.92,21.43 110.50,20.36 111.09,19.85 111.67,19.78 112.26,18.34 112.84,17.92 113.43,16.81 114.01,15.50 114.60,15.06 115.18,15.09 115.77,14.16 116.35,13.83 116.94,12.69 117.52,11.71 118.11,11.42 118.69,11.88 119.28,12.93 119.86,14.21 120.45,15.03 121.03,15.36 121.62,15.42 122.20,15.26 122.79,15.25 123.37,15.74 123.96,16.41 124.55,17.69 125.13,18.90 125.72,20.21 126.30,21.42 126.89,22.38 127.47,22.05 128.06,20.84 128.64,19.35 129.23,18.40 129.81,17.31 130.40,16.23 130.98,15.56 131.57,15.18 132.15,15.27 132.74,14.35 133.32,13.95 133.91,14.17 134.49,14.33 135.08,14.89 135.66,15.07 136.25,14.89 136.83,14.78 137.42,13.32 138.00,12.07 138.59,11.19 139.17,10.55 139.76,10.34 140.34,10.53 140.93,11.42 141.52,12.58 142.10,13.25 142.69,12.56 143.27,12.35 143.86,11.21 144.44,10.70 145.03,10.93 145.61,10.16 146.20,9.04 146.78,8.25 147.37,7.96 147.95,7.84 148.54,7.87 149.12,7.89 149.71,7.93 150.29,45.10 150.88,45.59 151.46,46.63 152.05,46.59 152.63,46.19 153.22,47.49 153.80,46.77 154.39,47.67 154.97,48.79 155.56,49.95 156.14,50.78 156.73,51.33 157.31,52.05 157.90,52.59 158.48,53.82 159.07,54.63 159.66,54.35 160.24,54.79 160.83,52.21 161.41,51.61 162.00,51.61 162.58,50.68 163.17,49.33 163.75,43.67 164.34,45.08 164.92,42.77 165.51,40.17 166.09,37.85 166.68,35.39 167.26,36.11 167.85,34.41 168.43,32.46 169.02,30.77 169.60,29.03 170.19,28.41 170.77,29.59 171.36,31.89 171.94,28.52 172.53,28.15 173.11,26.57 173.70,27.90 174.28,29.03 174.87,30.61 175.45,30.40 176.04,28.08 176.63,30.80 177.21,30.31 177.80,28.59 178.38,24.74 178.97,26.04 179.55,22.94 180.14,24.86 180.72,25.75 181.31,23.08 181.89,24.65 182.48,21.71 183.06,20.80 183.65,20.27 184.23,22.26 184.82,19.75 185.40,19.08 185.99,18.57 186.57,16.84 187.16,15.68 187.74,15.31 188.33,14.94 188.91,14.06 189.50,14.06 190.08,14.49 190.67,12.40 191.25,11.58 191.84,11.67 192.42,13.14 193.01,14.46 193.60,16.50 194.18,15.30 194.77,15.44 195.35,15.21 195.94,15.09 196.52,16.12 197.11,17.30 197.69,18.88 198.28,18.93 198.86,20.90 199.45,22.82 200.03,24.00 200.62,23.89 201.20,20.75 201.79,18.83 202.37,19.24 202.96,17.57 203.54,16.41 204.13,14.41 204.71,15.62 205.30,14.58 205.88,13.79 206.47,13.81 207.05,14.07 207.64,13.86 208.22,14.69 208.81,15.64 209.39,13.79 209.98,13.61 210.57,13.17 211.15,12.62 211.74,9.78 212.32,10.43 212.91,9.76 213.49,11.50 214.08,13.94 214.66,12.82 215.25,11.89 215.83,10.31 216.42,13.28 217.00,11.77 217.59,10.40 218.17,9.47 218.76,8.31 219.34,7.22 219.93,6.69 220.51,6.71 221.10,7.17 221.68,7.57 222.27,7.68 222.85,7.96 223.44,48.62 224.02,48.62 224.61,46.30 225.19,46.30 225.78,46.30 226.36,50.27 226.95,41.72 227.54,41.72 228.12,44.67 228.71,44.67 229.29,44.67 229.88,48.55 230.46,48.55 231.05,56.00 231.63,56.00 232.22,56.00 232.80,51.40 233.39,51.40 233.97,51.40 234.56,49.61 235.14,49.61 235.73,49.61 236.31,49.61 236.90,27.09 237.48,42.97 238.07,42.97 238.65,34.50 239.24,34.50 239.82,34.50 240.41,27.80 240.99,27.80 241.58,27.80 242.16,25.22 242.75,25.22 243.33,25.22 243.92,36.30 244.51,36.30 245.09,25.89 245.68,25.89 246.26,25.89 246.85,38.85 247.43,38.85 248.02,38.85 248.60,40.18 249.19,40.18 249.77,40.18 250.36,40.18 250.94,34.74 251.53,34.74 252.11,34.74 252.70,34.74 253.28,37.34 253.87,37.34 254.45,27.03 255.04,27.03 255.62,27.03 256.21,27.03 256.79,24.93 257.38,24.93 257.96,24.93 258.55,24.93 259.13,24.25 259.72,24.25 260.30,24.25 260.89,20.91 261.47,20.91 262.06,20.91 262.65,20.91 263.23,16.13 263.82,16.13 264.40,16.13 264.99,15.20 265.57,15.20 266.16,15.20 266.74,20.24 267.33,20.24 267.91,20.24 268.50,21.86 269.08,21.86 269.67,24.63 270.25,24.63 270.84,24.63 271.42,22.67 272.01,22.67 272.59,22.67 273.18,22.16 273.76,22.16 274.35,16.59 274.93,16.59 275.52,18.19 276.10,18.19 276.69,12.66 277.27,12.66 277.86,13.66 278.44,13.66 279.03,13.66 279.62,12.36 280.20,12.36 280.79,12.36 281.37,12.36 281.96,13.29 282.54,13.29 283.13,13.29 283.71,13.11 284.30,13.11 284.88,4.61 285.47,9.81 286.05,9.81 286.64,9.81 287.22,11.41 287.81,11.41 288.39,11.41 288.98,7.00 289.56,7.00 290.15,7.00 290.73,7.00 291.32,4.00 291.90,4.00 292.49,4.00 293.07,4.63 293.66,4.63 294.24,4.63 294.83,7.55 295.41,7.55 296.00,7.55" />
</svg>