<svg width="300" height="60" xmlns="http://www.w3.org/2000/svg">
  <polyline fill="rgba(255,200,0,0.3)" stroke="#ffbb00" stroke-width="2" points="4.00,16.83 4.12,16.85 4.23,16.73 4.35,16.56 4.46,16.42 4.58,16.33 4.70,16.36 4.81,16.35 4.93,16.42 5.04,16.56 5.16,17.05 5.28,17.54 5.39,17.62 5.51,17.90 5.62,18.39 5.74,18.55 5.85,18.84 5.97,19.01 6.09,19.26 6.20,19.46 6.32,19.67 6.43,19.84 6.55,19.98 6.67,20.09 6.78,20.22 6.90,20.30 7.01,20.33 7.13,20.38 7.25,20.27 7.36,19.96 7.48,19.89 7.59,20.09 7.71,20.44 7.83,20.93 7.94,21.32 8.06,21.89 8.17,22.11 8.29,22.37 8.40,22.76 8.52,23.32 8.64,23.64 8.75,23.69 8.87,23.61 8.98,23.42 9.10,23.60 9.22,23.80 9.33,23.97 9.45,24.14 9.56,24.43 9.68,25.01 9.80,25.64 9.91,25.80 10.03,26.11 10.14,26.38 10.26,26.56 10.38,26.91 10.49,26.88 10.61,27.15 10.72,27.60 10.84,27.72 10.96,27.51 11.07,27.15 11.19,27.22 11.30,27.47 11.42,28.28 11.53,29.03 11.65,29.60 11.77,29.42 11.88,29.30 12.00,29.22 12.11,29.38 12.23,29.54 12.35,29.74 12.46,30.00 12.58,30.23 12.69,30.59 12.81,30.88 12.93,31.13 13.04,31.05 13.16,31.16 13.27,31.48 13.39,31.66 13.51,31.81 13.62,32.02 13.74,32.22 13.85,32.50 13.97,32.79 14.08,33.00 14.20,33.19 14.32,33.32 14.43,33.00 14.55,32.72 14.66,32.76 14.78,33.17 14.90,34.17 15.01,34.46 15.13,34.55 15.24,34.67 15.36,34.93 15.48,35.28 15.59,35.64 15.71,35.90 15.82,36.14 15.94,36.23 16.06,36.37 16.17,36.67 16.29,36.97 16.40,37.27 16.52,37.53 16.64,37.73 16.75,37.86 16.87,38.06 16.98,38.20 17.10,38.44 17.21,38.62 17.33,38.76 17.45,38.91 17.56,39.06 17.68,39.30 17.79,39.62 17.91,39.81 18.03,39.96 18.14,40.24 18.26,40.44 18.37,40.62 18.49,40.72 18.61,40.94 18.72,41.17 18.84,41.29 18.95,41.41 19.07,41.67 19.19,41.91 19.30,42.09 19.42,42.31 19.53,42.51 19.65,42.66 19.76,42.83 19.88,43.15 20.00,43.51 20.11,43.93 20.23,44.14 20.34,44.35 20.46,44.67 20.58,44.84 20.69,45.16 20.81,45.35 20.92,45.72 21.04,46.03 21.16,46.26 21.27,46.44 21.39,46.53 21.50,46.82 21.62,47.09 21.74,47.20 21.85,47.58 21.97,47.79 22.08,48.05 22.20,48.29 22.32,48.51 22.43,48.73 22.55,48.92 22.66,49.21 22.78,49.37 22.89,49.36 23.01,49.71 23.13,50.09 23.24,50.39 23.36,50.43 23.47,50.03 23.59,49.51 23.71,49.25 23.82,48.47 23.94,48.11 24.05,48.01 24.17,47.91 24.29,48.07 24.40,48.34 24.52,48.64 24.63,49.01 24.75,49.20 24.87,49.44 24.98,49.63 25.10,49.91 25.21,50.27 25.33,50.52 25.45,50.61 25.56,50.73 25.68,50.85 25.79,50.79 25.91,50.82 26.02,50.75 26.14,50.72 26.26,50.69 26.37,50.67 26.49,50.54 26.60,50.41 26.72,50.36 26.84,50.75 26.95,50.97 27.07,50.88 27.18,51.00 27.30,51.15 27.42,51.27 27.53,51.39 27.65,51.59 27.76,51.85 27.88,52.02 28.00,52.18 28.11,52.30 28.23,52.27 28.34,52.29 28.46,52.29 28.57,52.23 28.69,53.20 28.81,53.77 28.92,53.94 29.04,54.00 29.15,54.05 29.27,54.09 29.39,54.21 29.50,54.27 29.62,54.35 29.73,54.41 29.85,54.44 29.97,54.51 30.08,54.51 30.20,54.36 30.31,54.16 30.43,54.03 30.55,53.86 30.66,53.77 30.78,53.71 30.89,53.73 31.01,53.75 31.13,53.76 31.24,53.80 31.36,53.93 31.47,54.31 31.59,54.38 31.70,54.54 31.82,54.59 31.94,54.53 32.05,54.54 32.17,54.41 32.28,54.18 32.40,53.89 32.52,53.73 32.63,53.78 32.75,53.99 32.86,54.43 32.98,54.91 33.10,55.19 33.21,55.45 33.33,55.60 33.44,55.67 33.56,55.70 33.68,55.71 33.79,55.99 33.91,55.92 34.02,55.80 34.14,55.83 34.25,55.80 34.37,55.77 34.49,55.35 34.60,55.30 34.72,54.62 34.83,53.88 34.95,53.39 35.07,53.23 35.18,53.42 35.30,53.51 35.41,52.29 35.53,52.03 35.65,51.68 35.76,51.52 35.88,51.27 35.99,50.89 36.11,50.59 36.23,50.55 36.34,50.56 36.46,50.42 36.57,50.12 36.69,49.82 36.81,49.54 36.92,49.60 37.04,49.57 37.15,49.53 37.27,49.04 37.38,48.73 37.50,48.64 37.62,48.69 37.73,48.61 37.85,48.39 37.96,48.19 38.08,48.35 38.20,48.40 38.31,48.41 38.43,48.04 38.54,47.63 38.66,47.32 38.78,47.11 38.89,47.05 39.01,46.78 39.12,46.60 39.24,46.44 39.36,46.37 39.47,46.39 39.59,46.47 39.70,46.56 39.82,46.60 39.93,46.60 40.05,46.64 40.17,46.67 40.28,46.79 40.40,46.94 40.51,47.27 40.63,47.72 40.75,48.19 40.86,48.73 40.98,49.24 41.09,49.37 41.21,49.32 41.33,49.50 41.44,49.62 41.56,49.48 41.67,49.00 41.79,48.91 41.91,49.02 42.02,49.36 42.14,50.02 42.25,50.53 42.37,50.68 42.49,50.70 42.60,50.69 42.72,50.57 42.83,50.46 42.95,50.33 43.06,50.22 43.18,50.02 43.30,49.78 43.41,49.46 43.53,49.38 43.64,49.02 43.76,48.69 43.88,48.32 43.99,47.99 44.11,47.23 44.22,46.67 44.34,46.24 44.46,45.82 44.57,45.33 44.69,44.60 44.80,44.47 44.92,44.51 45.04,43.83 45.15,43.30 45.27,42.78 45.38,42.29 45.50,41.86 45.61,41.40 45.73,40.99 45.85,41.08 45.96,40.29 46.08,39.87 46.19,39.58 46.31,39.26 46.43,38.99 46.54,39.15 46.66,38.82 46.77,37.69 46.89,36.47 47.01,35.79 47.12,35.64 47.24,35.71 47.35,35.61 47.47,34.54 47.59,33.48 47.70,32.99 47.82,32.76 47.93,32.57 48.05,32.21 48.17,32.13 48.28,32.01 48.40,32.34 48.51,33.32 48.63,33.95 48.74,33.59 48.86,32.37 48.98,31.88 49.09,31.47 49.21,31.31 49.32,31.59 49.44,31.13 49.56,30.09 49.67,29.68 49.79,29.04 49.90,28.13 50.02,27.50 50.14,26.81 50.25,26.28 50.37,25.86 50.48,25.83 50.60,26.26 50.72,26.64 50.83,26.82 50.95,26.90 51.06,26.35 51.18,25.83 51.29,25.48 51.41,25.21 51.53,25.05 51.64,24.90 51.76,24.92 51.87,24.69 51.99,24.27 52.11,23.76 52.22,23.77 52.34,24.14 52.45,24.01 52.57,23.39 52.69,22.51 52.80,22.13 52.92,22.06 53.03,21.97 53.15,21.70 53.27,21.37 53.38,20.74 53.50,20.03 53.61,19.24 53.73,18.93 53.85,18.58 53.96,17.99 54.08,17.47 54.19,17.15 54.31,17.48 54.42,18.00 54.54,18.48 54.66,18.49 54.77,17.91 54.89,17.28 55.00,16.59 55.12,15.84 55.24,15.43 55.35,15.18 55.47,14.96 55.58,14.56 55.70,14.43 55.82,14.67 55.93,14.91 56.05,15.01 56.16,15.03 56.28,15.25 56.40,15.07 56.51,14.92 56.63,14.65 56.74,14.25 56.86,13.89 56.97,13.50 57.09,13.23 57.21,13.01 57.32,12.75 57.44,12.33 57.55,11.72 57.67,11.18 57.79,11.14 57.90,10.78 58.02,10.40 58.13,10.11 58.25,9.68 58.37,9.13 58.48,8.69 58.60,8.60 58.71,8.12 58.83,7.56 58.95,6.93 59.06,6.23 59.18,6.14 59.29,5.92 59.41,5.78 59.53,5.57 59.64,5.26 59.76,5.02 59.87,4.93 59.99,4.95 60.10,4.96 60.22,4.89 60.34,4.83 60.45,4.73 60.57,4.58 60.68,4.31 60.80,4.13 60.92,4.04 61.03,4.03 61.15,4.09 61.26,4.16 61.38,4.28 61.50,4.49 61.61,4.73 61.73,4.92 61.84,5.05 61.96,5.16 62.08,5.27 62.19,5.46 62.31,5.88 62.42,16.84 62.54,16.84 62.66,16.72 62.77,16.56 62.89,16.42 63.00,16.33 63.12,16.36 63.23,16.35 63.35,16.45 63.47,16.58 63.58,16.99 63.70,17.54 63.81,17.62 63.93,17.93 64.05,18.38 64.16,18.55 64.28,18.85 64.39,19.01 64.51,19.23 64.63,19.47 64.74,19.68 64.86,19.84 64.97,19.97 65.09,20.08 65.21,20.25 65.32,20.28 65.44,20.34 65.55,20.38 65.67,20.31 65.78,19.90 65.90,19.93 66.02,20.08 66.13,20.47 66.25,21.05 66.36,21.41 66.48,21.90 66.60,22.12 66.71,22.35 66.83,22.79 66.94,23.40 67.06,23.75 67.18,23.71 67.29,23.53 67.41,23.43 67.52,23.60 67.64,23.78 67.76,23.99 67.87,24.14 67.99,24.39 68.10,25.04 68.22,25.61 68.34,25.86 68.45,26.10 68.57,26.30 68.68,26.67 68.80,26.93 68.91,26.94 69.03,27.10 69.15,27.43 69.26,27.68 69.38,27.38 69.49,27.17 69.61,27.21 69.73,27.43 69.84,28.30 69.96,28.96 70.07,29.61 70.19,29.39 70.31,29.33 70.42,29.20 70.54,29.39 70.65,29.54 70.77,29.76 70.89,29.99 71.00,30.24 71.12,30.56 71.23,30.83 71.35,31.12 71.46,31.08 71.58,31.18 71.70,31.50 71.81,31.63 71.93,31.81 72.04,32.00 72.16,32.23 72.28,32.48 72.39,32.78 72.51,33.02 72.62,33.19 72.74,33.33 72.86,33.00 72.97,32.69 73.09,32.80 73.20,33.15 73.32,34.20 73.44,34.44 73.55,34.54 73.67,34.68 73.78,34.96 73.90,35.29 74.02,35.66 74.13,35.92 74.25,36.12 74.36,36.23 74.48,36.38 74.59,36.67 74.71,36.96 74.83,37.27 74.94,37.56 75.06,37.74 75.17,37.87 75.29,38.09 75.41,38.23 75.52,38.55 75.64,38.64 75.75,38.75 75.87,38.89 75.99,39.08 76.10,39.24 76.22,39.61 76.33,39.80 76.45,39.99 76.57,40.25 76.68,40.42 76.80,40.61 76.91,40.73 77.03,40.94 77.14,41.17 77.26,41.28 77.38,41.44 77.49,41.65 77.61,41.91 77.72,42.10 77.84,42.31 77.96,42.53 78.07,42.65 78.19,42.84 78.30,43.14 78.42,43.52 78.54,43.87 78.65,44.12 78.77,44.34 78.88,44.65 79.00,44.83 79.12,45.16 79.23,45.33 79.35,45.74 79.46,46.04 79.58,46.25 79.70,46.40 79.81,46.52 79.93,46.70 80.04,47.00 80.16,47.24 80.27,47.53 80.39,47.83 80.51,48.06 80.62,48.30 80.74,48.51 80.85,48.73 80.97,48.92 81.09,49.21 81.20,49.35 81.32,49.38 81.43,49.68 81.55,50.10 81.67,50.39 81.78,50.44 81.90,50.00 82.01,49.52 82.13,49.24 82.25,48.46 82.36,48.10 82.48,47.96 82.59,47.92 82.71,48.03 82.82,48.29 82.94,48.61 83.06,49.01 83.17,49.20 83.29,49.48 83.40,49.64 83.52,49.89 83.64,50.27 83.75,50.51 83.87,50.56 83.98,50.72 84.10,50.80 84.22,50.76 84.33,50.83 84.45,50.74 84.56,50.72 84.68,50.66 84.80,50.59 84.91,50.54 85.03,50.41 85.14,50.39 85.26,50.78 85.38,50.97 85.49,50.88 85.61,51.00 85.72,51.15 85.84,51.29 85.95,51.40 86.07,51.58 86.19,51.86 86.30,52.01 86.42,52.20 86.53,52.30 86.65,52.27 86.77,52.29 86.88,52.29 87.00,52.23 87.11,53.22 87.23,53.78 87.35,53.95 87.46,54.01 87.58,54.04 87.69,54.10 87.81,54.21 87.93,54.29 88.04,54.37 88.16,54.42 88.27,54.45 88.39,54.51 88.50,54.51 88.62,54.38 88.74,54.17 88.85,54.03 88.97,53.87 89.08,53.77 89.20,53.70 89.32,53.74 89.43,53.75 89.55,53.76 89.66,53.80 89.78,53.94 89.90,54.31 90.01,54.38 90.13,54.58 90.24,54.59 90.36,54.55 90.48,54.55 90.59,54.39 90.71,54.18 90.82,53.91 90.94,53.73 91.06,53.79 91.17,54.03 91.29,54.41 91.40,54.81 91.52,55.16 91.63,55.42 91.75,55.60 91.87,55.66 91.98,55.69 92.10,55.70 92.21,56.00 92.33,55.92 92.45,55.80 92.56,55.83 92.68,55.81 92.79,55.76 92.91,55.40 93.03,55.31 93.14,54.77 93.26,53.92 93.37,53.47 93.49,53.25 93.61,53.37 93.72,53.55 93.84,52.34 93.95,52.07 94.07,51.68 94.18,51.53 94.30,51.28 94.42,50.91 94.53,50.60 94.65,50.56 94.76,50.60 94.88,50.42 95.00,50.13 95.11,49.81 95.23,49.53 95.34,49.58 95.46,49.58 95.58,49.50 95.69,49.05 95.81,48.72 95.92,48.64 96.04,48.65 96.16,48.55 96.27,48.34 96.39,48.22 96.50,48.28 96.62,48.39 96.74,48.44 96.85,48.11 96.97,47.65 97.08,47.29 97.20,47.11 97.31,47.00 97.43,46.83 97.55,46.60 97.66,46.47 97.78,46.37 97.89,46.36 98.01,46.46 98.13,46.50 98.24,46.57 98.36,46.59 98.47,46.59 98.59,46.66 98.71,46.79 98.82,46.97 98.94,47.25 99.05,47.71 99.17,48.18 99.29,48.66 99.40,49.20 99.52,49.37 99.63,49.35 99.75,49.49 99.87,49.63 99.98,49.53 100.10,49.01 100.21,48.96 100.33,48.99 100.44,49.37 100.56,49.98 100.68,50.52 100.79,50.69 100.91,50.70 101.02,50.69 101.14,50.57 101.26,50.46 101.37,50.33 101.49,50.23 101.60,50.02 101.72,49.80 101.84,49.46 101.95,49.39 102.07,49.09 102.18,48.72 102.30,48.34 102.42,47.99 102.53,47.30 102.65,46.68 102.76,46.26 102.88,45.79 102.99,45.45 103.11,44.56 103.23,44.47 103.34,44.49 103.46,43.85 103.57,43.37 103.69,42.79 103.81,42.30 103.92,41.83 104.04,41.41 104.15,41.00 104.27,41.09 104.39,40.28 104.50,39.87 104.62,39.59 104.73,39.23 104.85,39.04 104.97,39.15 105.08,38.83 105.20,37.89 105.31,36.50 105.43,35.70 105.55,35.62 105.66,35.82 105.78,35.56 105.89,34.57 106.01,33.55 106.12,32.98 106.24,32.83 106.36,32.51 106.47,32.25 106.59,32.12 106.70,32.02 106.82,32.32 106.94,33.32 107.05,33.93 107.17,33.66 107.28,32.38 107.40,31.93 107.52,31.49 107.63,31.34 107.75,31.54 107.86,31.10 107.98,30.12 108.10,29.65 108.21,28.97 108.33,28.15 108.44,27.48 108.56,26.83 108.67,26.27 108.79,25.89 108.91,25.82 109.02,26.30 109.14,26.62 109.25,26.85 109.37,26.85 109.49,26.38 109.60,25.88 109.72,25.47 109.83,25.26 109.95,25.03 110.07,24.92 110.18,24.98 110.30,24.69 110.41,24.22 110.53,23.88 110.65,23.78 110.76,24.21 110.88,24.02 110.99,23.43 111.11,22.60 111.23,22.18 111.34,22.14 111.46,21.95 111.57,21.78 111.69,21.51 111.80,20.89 111.92,19.98 112.04,19.10 112.15,18.90 112.27,18.53 112.38,17.97 112.50,17.46 112.62,17.15 112.73,17.44 112.85,18.08 112.96,18.44 113.08,18.48 113.20,17.90 113.31,17.36 113.43,16.65 113.54,15.84 113.66,15.50 113.78,15.27 113.89,14.91 114.01,14.55 114.12,14.40 114.24,14.65 114.35,14.92 114.47,15.01 114.59,15.03 114.70,15.25 114.82,15.07 114.93,14.94 115.05,14.64 115.17,14.24 115.28,13.89 115.40,13.50 115.51,13.22 115.63,13.01 115.75,12.73 115.86,12.33 115.98,11.77 116.09,11.30 116.21,11.05 116.33,10.77 116.44,10.42 116.56,10.14 116.67,9.69 116.79,9.12 116.91,8.72 117.02,8.59 117.14,8.17 117.25,7.58 117.37,6.92 117.48,6.27 117.60,6.16 117.72,5.92 117.83,5.81 117.95,5.54 118.06,5.24 118.18,5.04 118.30,4.93 118.41,4.95 118.53,4.96 118.64,4.89 118.76,4.83 118.88,4.76 118.99,4.57 119.11,4.30 119.22,4.13 119.34,4.04 119.46,4.05 119.57,4.09 119.69,4.16 119.80,4.28 119.92,4.49 120.03,4.72 120.15,4.93 120.27,5.05 120.38,5.16 120.50,5.29 120.61,5.47 120.73,5.88 120.85,16.83 120.96,16.85 121.08,16.72 121.19,16.55 121.31,16.42 121.43,16.32 121.54,16.34 121.66,16.34 121.77,16.46 121.89,16.54 122.01,17.18 122.12,17.57 122.24,17.46 122.35,17.74 122.47,17.99 122.59,18.16 122.70,18.37 122.82,18.98 122.93,19.23 123.05,19.49 123.16,19.67 123.28,19.84 123.40,19.97 123.51,20.09 123.63,20.16 123.74,20.29 123.86,20.31 123.98,20.38 124.09,20.13 124.21,19.79 124.32,19.90 124.44,19.84 124.56,20.47 124.67,20.46 124.79,21.49 124.90,21.91 125.02,22.07 125.14,22.32 125.25,22.93 125.37,23.08 125.48,23.80 125.60,23.71 125.71,23.52 125.83,23.38 125.95,23.60 126.06,23.75 126.18,23.99 126.29,24.15 126.41,24.35 126.53,24.77 126.64,25.59 126.76,25.63 126.87,26.08 126.99,26.53 127.11,26.68 127.22,26.81 127.34,27.00 127.45,27.12 127.57,27.40 127.69,27.75 127.80,27.29 127.92,27.03 128.03,27.13 128.15,27.34 128.27,28.36 128.38,28.96 128.50,29.51 128.61,29.40 128.73,29.28 128.84,29.22 128.96,29.39 129.08,29.58 129.19,29.72 129.31,29.98 129.42,30.23 129.54,30.62 129.66,30.62 129.77,31.04 129.89,30.92 130.00,31.19 130.12,31.47 130.24,31.60 130.35,31.77 130.47,31.98 130.58,32.24 130.70,32.49 130.82,32.61 130.93,33.03 131.05,33.16 131.16,33.29 131.28,33.03 131.39,32.85 131.51,32.89 131.63,33.11 131.74,34.17 131.86,34.47 131.97,34.55 132.09,34.74 132.21,34.89 132.32,35.34 132.44,35.61 132.55,35.93 132.67,36.06 132.79,36.23 132.90,36.36 133.02,36.69 133.13,36.93 133.25,37.25 133.37,37.58 133.48,37.71 133.60,37.89 133.71,38.33 133.83,38.18 133.95,38.57 134.06,38.62 134.18,38.74 134.29,38.95 134.41,39.01 134.52,39.17 134.64,39.65 134.76,39.76 134.87,39.93 134.99,40.04 135.10,40.43 135.22,40.61 135.34,40.77 135.45,40.93 135.57,41.13 135.68,41.19 135.80,41.42 135.92,41.46 136.03,41.89 136.15,42.11 136.26,42.28 136.38,42.50 136.50,42.62 136.61,42.88 136.73,43.09 136.84,43.58 136.96,44.05 137.08,44.08 137.19,44.33 137.31,44.62 137.42,44.77 137.54,45.09 137.65,45.36 137.77,45.76 137.89,46.02 138.00,46.24 138.12,46.46 138.23,46.50 138.35,46.56 138.47,46.99 138.58,46.95 138.70,47.45 138.81,47.77 138.93,48.05 139.05,48.33 139.16,48.49 139.28,48.70 139.39,48.97 139.51,49.24 139.63,49.44 139.74,49.64 139.86,49.71 139.97,50.09 140.09,50.36 140.20,50.47 140.32,50.01 140.44,49.45 140.55,49.23 140.67,48.44 140.78,48.30 140.90,48.04 141.02,47.95 141.13,48.17 141.25,48.38 141.36,48.75 141.48,49.06 141.60,49.25 141.71,49.45 141.83,49.65 141.94,49.88 142.06,50.21 142.18,50.44 142.29,50.56 142.41,50.69 142.52,50.67 142.64,50.87 142.76,50.81 142.87,50.70 142.99,50.67 143.10,50.73 143.22,50.75 143.33,50.65 143.45,50.41 143.57,50.34 143.68,50.87 143.80,50.92 143.91,50.92 144.03,51.04 144.15,51.20 144.26,51.31 144.38,51.38 144.49,51.58 144.61,51.86 144.73,52.07 144.84,52.14 144.96,52.30 145.07,52.31 145.19,52.31 145.31,52.30 145.42,52.28 145.54,53.26 145.65,53.76 145.77,53.88 145.88,53.98 146.00,53.99 146.12,54.10 146.23,54.18 146.35,54.29 146.46,54.35 146.58,54.39 146.70,54.43 146.81,54.44 146.93,54.50 147.04,54.39 147.16,54.16 147.28,54.05 147.39,53.93 147.51,53.74 147.62,53.70 147.74,53.72 147.86,53.75 147.97,53.77 148.09,53.78 148.20,53.85 148.32,54.33 148.44,54.34 148.55,54.53 148.67,54.62 148.78,54.50 148.90,54.46 149.01,54.43 149.13,54.19 149.25,53.89 149.36,53.76 149.48,53.65 149.59,53.82 149.71,54.31 149.83,54.78 149.94,55.16 150.06,55.43 150.17,55.61 150.29,55.65 150.41,55.69 150.52,55.69 150.64,55.92 150.75,56.00 150.87,55.81 150.99,55.84 151.10,55.81 151.22,55.78 151.33,55.42 151.45,55.29 151.56,54.56 151.68,53.77 151.80,53.34 151.91,53.18 152.03,53.16 152.14,53.58 152.26,52.48 152.38,52.08 152.49,51.72 152.61,51.50 152.72,51.29 152.84,50.92 152.96,50.57 153.07,50.48 153.19,50.55 153.30,50.37 153.42,50.10 153.54,49.78 153.65,49.54 153.77,49.65 153.88,49.56 154.00,49.54 154.12,49.13 154.23,48.80 154.35,48.78 154.46,48.78 154.58,48.77 154.69,48.60 154.81,48.48 154.93,48.56 155.04,48.49 155.16,48.33 155.27,48.29 155.39,47.79 155.51,47.34 155.62,47.31 155.74,47.14 155.85,46.86 155.97,46.75 156.09,46.53 156.20,46.39 156.32,46.46 156.43,46.56 156.55,46.59 156.67,46.60 156.78,46.79 156.90,46.75 157.01,46.75 157.13,46.81 157.24,46.98 157.36,47.39 157.48,47.82 157.59,48.29 157.71,48.77 157.82,49.10 157.94,49.55 158.06,49.49 158.17,49.53 158.29,49.69 158.40,49.55 158.52,49.29 158.64,49.15 158.75,49.20 158.87,49.34 158.98,50.04 159.10,50.60 159.22,50.70 159.33,50.70 159.45,50.72 159.56,50.60 159.68,50.48 159.80,50.34 159.91,50.27 160.03,50.05 160.14,49.81 160.26,49.51 160.37,49.34 160.49,48.95 160.61,48.58 160.72,48.21 160.84,47.89 160.95,47.01 161.07,46.63 161.19,46.40 161.30,45.71 161.42,45.77 161.53,44.68 161.65,44.39 161.77,44.56 161.88,43.93 162.00,43.33 162.11,42.71 162.23,42.37 162.35,41.89 162.46,41.40 162.58,40.98 162.69,41.23 162.81,40.39 162.92,40.00 163.04,39.62 163.16,39.26 163.27,38.88 163.39,38.43 163.50,38.73 163.62,37.90 163.74,36.48 163.85,35.86 163.97,35.86 164.08,35.97 164.20,35.77 164.32,34.56 164.43,33.76 164.55,33.06 164.66,33.03 164.78,32.62 164.90,32.46 165.01,32.11 165.13,32.17 165.24,32.49 165.36,33.52 165.48,34.03 165.59,33.58 165.71,32.54 165.82,31.53 165.94,31.42 166.05,31.28 166.17,31.76 166.29,31.28 166.40,30.12 166.52,29.62 166.63,29.30 166.75,28.19 166.87,27.56 166.98,26.87 167.10,26.34 167.21,25.93 167.33,25.79 167.45,25.80 167.56,26.61 167.68,26.91 167.79,26.94 167.91,26.45 168.03,26.08 168.14,25.47 168.26,25.36 168.37,25.07 168.49,25.14 168.61,24.89 168.72,24.61 168.84,24.35 168.95,23.86 169.07,23.63 169.18,24.16 169.30,24.19 169.42,23.60 169.53,22.73 169.65,22.44 169.76,22.08 169.88,22.10 170.00,21.89 170.11,21.65 170.23,21.09 170.34,19.78 170.46,19.30 170.58,19.03 170.69,18.53 170.81,18.05 170.92,17.50 171.04,17.35 171.16,17.65 171.27,18.08 171.39,18.39 171.50,18.73 171.62,18.21 171.73,17.51 171.85,16.60 171.97,15.82 172.08,15.73 172.20,15.29 172.31,14.86 172.43,14.67 172.55,14.38 172.66,14.64 172.78,14.88 172.89,14.94 173.01,15.01 173.13,15.27 173.24,15.06 173.36,14.85 173.47,14.68 173.59,14.23 173.71,13.83 173.82,13.51 173.94,13.27 174.05,13.01 174.17,12.71 174.29,12.41 174.40,11.94 174.52,11.54 174.63,11.09 174.75,10.88 174.86,10.36 174.98,10.10 175.10,9.66 175.21,9.22 175.33,8.71 175.44,8.69 175.56,8.12 175.68,7.67 175.79,6.92 175.91,6.42 176.02,6.07 176.14,5.95 176.26,5.73 176.37,5.48 176.49,5.31 176.60,5.07 176.72,4.94 176.84,4.97 176.95,4.95 177.07,4.93 177.18,4.80 177.30,4.68 177.41,4.67 177.53,4.37 177.65,4.11 177.76,4.05 177.88,4.00 177.99,4.03 178.11,4.18 178.23,4.26 178.34,4.49 178.46,4.80 178.57,5.00 178.69,5.05 178.81,5.14 178.92,5.26 179.04,5.45 179.15,5.87 179.27,16.84 179.39,16.84 179.50,16.74 179.62,16.51 179.73,16.37 179.85,16.37 179.97,16.35 180.08,16.36 180.20,16.73 180.31,16.78 180.43,17.28 180.54,17.44 180.66,17.72 180.78,18.09 180.89,18.47 181.01,18.61 181.12,18.80 181.24,19.00 181.36,19.23 181.47,19.24 181.59,19.50 181.70,19.74 181.82,19.78 181.94,20.04 182.05,20.05 182.17,20.29 182.28,20.24 182.40,20.49 182.52,19.93 182.63,19.59 182.75,20.28 182.86,20.23 182.98,21.08 183.09,20.32 183.21,21.26 183.33,21.47 183.44,21.72 183.56,22.47 183.67,23.23 183.79,23.49 183.91,24.32 184.02,23.40 184.14,23.15 184.25,23.65 184.37,23.52 184.49,24.28 184.60,24.40 184.72,24.03 184.83,24.52 184.95,25.13 185.07,26.04 185.18,25.42 185.30,26.13 185.41,25.98 185.53,26.58 185.65,27.01 185.76,27.34 185.88,26.70 185.99,27.34 186.11,28.08 186.22,27.66 186.34,26.88 186.46,27.18 186.57,28.14 186.69,28.06 186.80,29.57 186.92,29.57 187.04,29.68 187.15,29.21 187.27,29.47 187.38,29.71 187.50,29.45 187.62,29.45 187.73,29.89 187.85,29.89 187.96,30.56 188.08,30.54 188.20,31.11 188.31,30.93 188.43,31.62 188.54,31.72 188.66,31.72 188.77,31.98 188.89,32.29 189.01,32.15 189.12,32.64 189.24,32.75 189.35,32.91 189.47,33.05 189.59,33.19 189.70,33.36 189.82,32.94 189.93,33.11 190.05,33.11 190.17,34.06 190.28,34.20 190.40,34.69 190.51,34.57 190.63,35.32 190.75,35.80 190.86,35.16 190.98,35.87 191.09,36.36 191.21,36.25 191.33,36.29 191.44,36.52 191.56,36.77 191.67,37.53 191.79,37.73 191.90,37.73 192.02,37.58 192.14,38.34 192.25,38.85 192.37,38.53 192.48,39.27 192.60,38.65 192.72,39.03 192.83,39.03 192.95,39.45 193.06,39.33 193.18,39.81 193.30,39.83 193.41,40.10 193.53,40.21 193.64,40.76 193.76,40.75 193.88,40.76 193.99,41.47 194.11,40.90 194.22,41.08 194.34,41.65 194.45,41.95 194.57,42.15 194.69,42.21 194.80,42.98 194.92,42.76 195.03,43.35 195.15,43.30 195.27,44.17 195.38,43.97 195.50,44.50 195.61,44.14 195.73,44.40 195.85,45.02 195.96,45.36 196.08,45.17 196.19,45.78 196.31,45.81 196.43,46.32 196.54,46.37 196.66,46.54 196.77,46.52 196.89,46.65 197.01,47.26 197.12,47.36 197.24,47.71 197.35,47.91 197.47,48.27 197.58,48.57 197.70,48.72 197.82,48.80 197.93,49.21 198.05,49.38 198.16,49.51 198.28,49.91 198.40,49.91 198.51,50.29 198.63,50.45 198.74,49.90 198.86,49.40 198.98,48.83 199.09,47.94 199.21,48.46 199.32,48.39 199.44,47.91 199.56,48.21 199.67,48.70 199.79,48.49 199.90,48.98 200.02,49.53 200.13,49.34 200.25,49.67 200.37,50.09 200.48,49.98 200.60,50.40 200.71,50.78 200.83,50.65 200.95,50.88 201.06,50.73 201.18,50.81 201.29,50.71 201.41,50.58 201.53,50.73 201.64,50.56 201.76,50.72 201.87,50.49 201.99,50.32 202.11,50.86 202.22,50.82 202.34,51.04 202.45,51.08 202.57,51.19 202.69,51.40 202.80,51.40 202.92,51.71 203.03,51.77 203.15,52.09 203.26,52.03 203.38,52.26 203.50,52.28 203.61,52.28 203.73,52.28 203.84,52.32 203.96,53.35 204.08,53.82 204.19,53.84 204.31,53.92 204.42,54.00 204.54,54.13 204.66,54.13 204.77,54.24 204.89,54.31 205.00,54.36 205.12,54.45 205.24,54.49 205.35,54.36 205.47,54.41 205.58,54.23 205.70,54.15 205.82,53.87 205.93,53.79 206.05,54.07 206.16,53.80 206.28,53.82 206.39,53.89 206.51,53.99 206.63,53.99 206.74,54.10 206.86,54.38 206.97,54.48 207.09,54.67 207.21,54.52 207.32,54.58 207.44,54.54 207.55,53.65 207.67,53.52 207.79,53.52 207.90,53.55 208.02,53.77 208.13,54.13 208.25,54.55 208.37,54.90 208.48,55.22 208.60,55.50 208.71,55.64 208.83,55.69 208.94,55.73 209.06,55.86 209.18,55.88 209.29,55.80 209.41,55.83 209.52,55.76 209.64,55.67 209.76,55.27 209.87,54.93 209.99,54.32 210.10,53.70 210.22,53.34 210.34,53.20 210.45,53.20 210.57,53.05 210.68,52.59 210.80,52.32 210.92,51.83 211.03,51.50 211.15,51.30 211.26,50.99 211.38,50.69 211.50,50.60 211.61,50.64 211.73,50.52 211.84,50.09 211.96,49.74 212.07,49.39 212.19,49.71 212.31,49.36 212.42,49.35 212.54,48.92 212.65,48.64 212.77,48.64 212.89,48.71 213.00,48.34 213.12,48.60 213.23,48.23 213.35,48.01 213.47,47.91 213.58,47.77 213.70,48.08 213.81,47.61 213.93,47.24 214.05,47.02 214.16,46.81 214.28,46.56 214.39,46.37 214.51,46.25 214.62,46.15 214.74,46.55 214.86,46.55 214.97,46.61 215.09,46.63 215.20,46.62 215.32,46.58 215.44,46.58 215.55,46.65 215.67,46.79 215.78,47.04 215.90,47.46 216.02,47.96 216.13,48.45 216.25,48.91 216.36,49.60 216.48,49.59 216.60,49.65 216.71,49.71 216.83,49.49 216.94,49.11 217.06,48.98 217.18,49.10 217.29,49.55 217.41,50.15 217.52,50.55 217.64,50.72 217.75,50.71 217.87,50.65 217.99,50.52 218.10,50.52 218.22,50.33 218.33,50.23 218.45,49.97 218.57,49.68 218.68,49.59 218.80,49.10 218.91,48.08 219.03,48.44 219.15,47.84 219.26,48.15 219.38,47.26 219.49,46.66 219.61,46.28 219.73,45.68 219.84,45.07 219.96,44.93 220.07,44.64 220.19,44.40 220.30,44.02 220.42,43.63 220.54,42.75 220.65,42.36 220.77,41.64 220.88,41.24 221.00,41.03 221.12,40.80 221.23,40.80 221.35,40.26 221.46,39.76 221.58,39.55 221.70,39.23 221.81,38.98 221.93,38.13 222.04,38.13 222.16,36.19 222.28,35.54 222.39,35.20 222.51,35.20 222.62,35.05 222.74,34.15 222.86,33.07 222.97,33.07 223.09,32.43 223.20,32.52 223.32,31.87 223.43,31.97 223.55,31.97 223.67,32.42 223.78,32.81 223.90,33.64 224.01,33.31 224.13,32.18 224.25,31.54 224.36,31.54 224.48,31.50 224.59,31.14 224.71,30.93 224.83,29.84 224.94,29.50 225.06,29.04 225.17,28.36 225.29,27.46 225.41,26.79 225.52,26.30 225.64,26.35 225.75,26.10 225.87,25.78 225.98,26.55 226.10,26.53 226.22,26.61 226.33,26.35 226.45,26.03 226.56,24.86 226.68,24.84 226.80,24.87 226.91,24.95 227.03,24.88 227.14,24.51 227.26,24.51 227.38,24.07 227.49,23.89 227.61,23.81 227.72,23.35 227.84,23.88 227.96,22.68 228.07,21.81 228.19,21.33 228.30,22.12 228.42,21.50 228.54,20.79 228.65,20.94 228.77,19.72 228.88,18.79 229.00,18.09 229.11,18.17 229.23,17.19 229.35,17.90 229.46,17.13 229.58,17.87 229.69,17.64 229.81,18.28 229.93,18.05 230.04,18.05 230.16,17.30 230.27,16.30 230.39,15.19 230.51,15.66 230.62,14.89 230.74,15.05 230.85,14.44 230.97,14.44 231.09,14.70 231.20,14.95 231.32,15.11 231.43,15.12 231.55,15.20 231.66,15.17 231.78,14.84 231.90,14.67 232.01,14.19 232.13,14.01 232.24,13.28 232.36,13.24 232.48,13.25 232.59,12.31 232.71,12.16 232.82,11.96 232.94,10.85 233.06,11.01 233.17,10.15 233.29,10.39 233.40,9.59 233.52,9.59 233.64,8.68 233.75,8.89 233.87,8.49 233.98,8.00 234.10,7.40 234.22,6.60 234.33,6.60 234.45,6.07 234.56,5.87 234.68,5.74 234.79,5.63 234.91,5.42 235.03,5.13 235.14,5.01 235.26,5.04 235.37,5.02 235.49,4.96 235.61,4.81 235.72,4.71 235.84,4.57 235.95,4.41 236.07,4.24 236.19,4.11 236.30,4.05 236.42,4.07 236.53,4.32 236.65,4.39 236.77,4.52 236.88,4.68 237.00,5.07 237.11,5.08 237.23,5.23 237.34,5.37 237.46,5.57 237.58,5.79 237.69,16.68 237.81,16.68 237.92,16.70 238.04,16.23 238.16,16.23 238.27,16.23 238.39,16.85 238.50,15.90 238.62,15.90 238.74,17.23 238.85,17.23 238.97,17.23 239.08,18.49 239.20,17.31 239.32,17.31 239.43,18.73 239.55,18.73 239.66,18.73 239.78,19.33 239.90,19.33 240.01,19.33 240.13,19.33 240.24,19.82 240.36,19.82 240.47,19.82 240.59,19.82 240.71,19.50 240.82,19.50 240.94,19.50 241.05,19.50 241.17,20.78 241.29,19.52 241.40,19.52 241.52,19.52 241.63,21.95 241.75,21.95 241.87,20.00 241.98,22.62 242.10,22.62 242.21,22.62 242.33,24.63 242.45,24.63 242.56,21.99 242.68,21.99 242.79,24.65 242.91,24.65 243.03,24.65 243.14,23.13 243.26,25.97 243.37,25.97 243.49,25.97 243.60,23.84 243.72,25.60 243.84,25.60 243.95,25.60 244.07,26.91 244.18,26.91 244.30,26.91 244.42,28.95 244.53,28.95 244.65,26.46 244.76,26.46 244.88,29.55 245.00,29.55 245.11,29.20 245.23,29.20 245.34,29.20 245.46,28.67 245.58,28.67 245.69,28.67 245.81,29.92 245.92,29.92 246.04,29.92 246.15,29.92 246.27,29.88 246.39,29.88 246.50,29.88 246.62,31.85 246.73,31.85 246.85,31.85 246.97,32.54 247.08,32.54 247.20,32.54 247.31,32.54 247.43,32.12 247.55,34.00 247.66,34.00 247.78,34.46 247.89,34.46 248.01,34.46 248.13,35.54 248.24,33.68 248.36,33.68 248.47,33.68 248.59,33.58 248.71,33.58 248.82,35.46 248.94,35.48 249.05,35.48 249.17,35.48 249.28,33.78 249.40,36.36 249.52,36.36 249.63,36.36 249.75,36.36 249.86,36.28 249.98,36.28 250.10,38.77 250.21,37.06 250.33,37.06 250.44,37.06 250.56,40.06 250.68,40.06 250.79,38.91 250.91,38.91 251.02,38.10 251.14,40.21 251.26,40.21 251.37,40.21 251.49,39.77 251.60,39.77 251.72,39.77 251.83,40.07 251.95,40.07 252.07,42.19 252.18,42.19 252.30,42.19 252.41,42.71 252.53,42.71 252.65,42.71 252.76,43.47 252.88,43.47 252.99,43.64 253.11,43.64 253.23,43.64 253.34,43.28 253.46,43.28 253.57,43.28 253.69,45.30 253.81,45.30 253.92,45.30 254.04,44.04 254.15,44.04 254.27,46.06 254.39,46.06 254.50,45.69 254.62,45.69 254.73,45.69 254.85,47.51 254.96,47.51 255.08,47.51 255.20,47.26 255.31,47.26 255.43,47.26 255.54,48.10 255.66,48.10 255.78,48.10 255.89,48.70 256.01,48.70 256.12,49.14 256.24,49.14 256.36,49.14 256.47,49.52 256.59,50.07 256.70,50.07 256.82,50.07 256.94,49.36 257.05,50.09 257.17,50.09 257.28,48.02 257.40,48.02 257.51,48.02 257.63,49.52 257.75,48.27 257.86,48.27 257.98,48.27 258.09,49.54 258.21,49.54 258.33,49.54 258.44,49.54 258.56,48.78 258.67,50.56 258.79,50.56 258.91,50.14 259.02,50.14 259.14,51.25 259.25,51.25 259.37,50.91 259.49,50.91 259.60,50.53 259.72,50.53 259.83,50.53 259.95,50.93 260.07,50.93 260.18,50.93 260.30,50.77 260.41,50.77 260.53,50.77 260.64,50.87 260.76,51.40 260.88,51.40 260.99,51.54 261.11,51.54 261.22,51.54 261.34,52.16 261.46,52.16 261.57,52.16 261.69,52.16 261.80,52.20 261.92,52.44 262.04,52.44 262.15,52.44 262.27,53.36 262.38,53.36 262.50,52.55 262.62,52.96 262.73,52.96 262.85,52.96 262.96,53.90 263.08,53.90 263.19,53.90 263.31,53.90 263.43,54.38 263.54,54.38 263.66,54.38 263.77,53.55 263.89,54.12 264.01,54.12 264.12,54.12 264.24,53.48 264.35,54.02 264.47,54.02 264.59,54.02 264.70,53.60 264.82,54.22 264.93,54.22 265.05,54.22 265.17,53.75 265.28,54.28 265.40,54.28 265.51,54.28 265.63,54.36 265.75,54.36 265.86,54.36 265.98,52.06 266.09,52.06 266.21,52.06 266.32,52.06 266.44,52.95 266.56,52.95 266.67,52.95 266.79,54.48 266.90,54.48 267.02,54.48 267.14,55.64 267.25,55.64 267.37,55.64 267.48,55.85 267.60,55.85 267.72,55.85 267.83,55.44 267.95,55.44 268.06,55.67 268.18,54.72 268.30,54.72 268.41,54.72 268.53,53.75 268.64,53.75 268.76,53.75 268.87,53.75 268.99,52.77 269.11,52.77 269.22,52.77 269.34,51.98 269.45,51.98 269.57,51.98 269.69,51.35 269.80,51.35 269.92,51.35 270.03,50.30 270.15,50.30 270.27,50.05 270.38,48.87 270.50,48.87 270.61,48.87 270.73,48.87 270.85,48.14 270.96,48.14 271.08,48.14 271.19,48.14 271.31,47.94 271.43,47.94 271.54,47.94 271.66,46.97 271.77,46.97 271.89,46.97 272.00,46.10 272.12,46.10 272.24,46.10 272.35,45.46 272.47,45.46 272.58,45.46 272.70,45.20 272.82,45.20 272.93,45.20 273.05,44.55 273.16,46.54 273.28,46.54 273.40,46.54 273.51,46.56 273.63,46.56 273.74,46.56 273.86,46.87 273.98,46.87 274.09,46.87 274.21,48.00 274.32,48.00 274.44,48.00 274.55,48.98 274.67,48.98 274.79,48.98 274.90,49.14 275.02,49.14 275.13,49.14 275.25,48.77 275.37,48.77 275.48,48.77 275.60,49.52 275.71,49.52 275.83,49.52 275.95,50.43 276.06,50.43 276.18,50.43 276.29,50.46 276.41,50.01 276.53,50.01 276.64,50.01 276.76,49.70 276.87,49.70 276.99,49.28 277.11,49.28 277.22,47.53 277.34,47.53 277.45,47.84 277.57,47.84 277.68,47.84 277.80,45.81 277.92,45.81 278.03,45.81 278.15,45.63 278.26,44.40 278.38,44.40 278.50,44.40 278.61,44.40 278.73,43.27 278.84,43.27 278.96,43.27 279.08,41.94 279.19,41.94 279.31,41.94 279.42,40.46 279.54,40.46 279.66,40.46 279.77,40.46 279.89,39.29 280.00,39.29 280.12,39.29 280.24,38.07 280.35,35.99 280.47,35.99 280.58,35.99 280.70,34.12 280.81,34.12 280.93,34.12 281.05,32.20 281.16,32.20 281.28,32.20 281.39,30.05 281.51,30.05 281.63,32.55 281.74,31.22 281.86,31.22 281.97,31.22 282.09,31.22 282.21,30.34 282.32,32.60 282.44,32.60 282.55,29.54 282.67,29.54 282.79,29.54 282.90,31.59 283.02,29.27 283.13,29.27 283.25,29.27 283.36,27.66 283.48,27.66 283.60,27.66 283.71,27.66 283.83,27.18 283.94,27.18 284.06,27.18 284.18,26.23 284.29,26.23 284.41,26.23 284.52,24.51 284.64,24.51 284.76,24.51 284.87,23.94 284.99,23.94 285.10,23.94 285.22,23.65 285.34,23.65 285.45,23.65 285.57,22.63 285.68,22.63 285.80,22.63 285.92,22.63 286.03,21.01 286.15,21.01 286.26,21.01 286.38,18.76 286.49,18.76 286.61,18.76 286.73,20.67 286.84,20.67 286.96,20.67 287.07,17.73 287.19,17.73 287.31,17.73 287.42,14.74 287.54,14.74 287.65,14.74 287.77,17.99 287.89,15.99 288.00,15.99 288.12,15.99 288.23,13.27 288.35,16.48 288.47,16.48 288.58,16.48 288.70,12.37 288.81,14.14 288.93,14.14 289.04,14.14 289.16,15.14 289.28,14.10 289.39,14.10 289.51,14.93 289.62,14.93 289.74,14.93 289.86,15.32 289.97,15.32 290.09,15.32 290.20,14.66 290.32,14.66 290.44,13.36 290.55,13.36 290.67,13.36 290.78,12.60 290.90,12.60 291.02,12.60 291.13,12.11 291.25,12.11 291.36,9.98 291.48,9.30 291.60,9.30 291.71,9.47 291.83,9.47 291.94,9.47 292.06,7.29 292.17,7.65 292.29,7.65 292.41,7.65 292.52,6.26 292.64,6.35 292.75,6.35 292.87,6.35 292.99,6.35 293.10,5.84 293.22,5.84 293.33,5.84 293.45,5.49 293.57,5.49 293.68,5.43 293.80,5.13 293.91,5.13 294.03,4.91 294.15,4.91 294.26,4.91 294.38,4.55 294.49,4.55 294.61,4.55 294.72,4.28 294.84,4.28 294.96,5.13 295.07,5.13 295.19,5.13 295.30,5.23 295.42,5.23 295.54,5.31 295.65,5.31 295.77,5.31 295.88,5.70 296.00,5.70" />
</svg>