<svg width="300" height="60" xmlns="http://www.w3.org/2000/svg">
  <polyline fill="rgba(255,200,0,0.3)" stroke="#ffbb00" stroke-width="2" points="4.00,47.03 4.57,46.27 5.13,45.66 5.70,44.75 6.27,44.00 6.83,43.22 7.40,42.67 7.97,42.31 8.54,42.18 9.10,42.35 9.67,42.56 10.24,42.43 10.80,41.98 11.37,41.18 11.94,40.09 12.50,39.12 13.07,38.09 13.64,37.19 14.21,36.64 14.77,36.43 15.34,36.41 15.91,36.56 16.47,36.89 17.04,37.49 17.61,37.98 18.17,38.39 18.74,38.86 19.31,38.92 19.88,39.02 20.44,39.09 21.01,39.33 21.58,39.44 22.14,39.32 22.71,38.92 23.28,38.74 23.84,39.35 24.41,40.21 24.98,40.45 25.55,40.80 26.11,41.30 26.68,41.93 27.25,42.16 27.81,42.26 28.38,42.26 28.95,42.10 29.51,41.96 30.08,42.24 30.65,42.81 31.22,43.19 31.78,43.54 32.35,44.14 32.92,45.04 33.48,45.86 34.05,46.50 34.62,46.95 35.18,47.47 35.75,47.77 36.32,47.94 36.89,48.04 37.45,48.13 38.02,48.11 38.59,47.94 39.15,47.70 39.72,47.30 40.29,46.63 40.85,45.90 41.42,44.81 41.99,43.86 42.56,43.15 43.12,42.43 43.69,41.73 44.26,40.98 44.82,40.14 45.39,39.35 45.96,38.13 46.52,37.16 47.09,36.27 47.66,35.32 48.23,34.31 48.79,33.04 49.36,31.69 49.93,30.39 50.49,28.84 51.06,27.70 51.63,26.64 52.19,25.80 52.76,25.00 53.33,24.22 53.90,23.31 54.46,21.83 55.03,20.11 55.60,18.67 56.16,17.52 56.73,16.67 57.30,15.94 57.86,15.35 58.43,15.07 59.00,15.44 59.57,15.79 60.13,16.14 60.70,16.23 61.27,16.34 61.83,16.56 62.40,17.01 62.97,17.33 63.53,18.06 64.10,18.94 64.67,18.61 65.23,18.79 65.80,19.47 66.37,20.08 66.94,21.03 67.50,22.12 68.07,23.28 68.64,24.31 69.20,25.07 69.77,25.69 70.34,26.14 70.90,26.59 71.47,27.13 72.04,27.62 72.61,28.11 73.17,28.67 73.74,29.54 74.31,30.02 74.87,30.42 75.44,30.84 76.01,31.03 76.57,32.92 77.14,47.17 77.71,46.33 78.28,45.54 78.84,44.70 79.41,44.03 79.98,42.98 80.54,42.85 81.11,42.34 81.68,41.96 82.24,42.44 82.81,42.56 83.38,42.46 83.95,41.94 84.51,41.40 85.08,40.27 85.65,39.05 86.21,37.44 86.78,37.25 87.35,36.66 87.91,35.88 88.48,36.26 89.05,36.42 89.62,36.78 90.18,37.15 90.75,37.42 91.32,37.72 91.88,39.03 92.45,38.93 93.02,39.08 93.58,39.08 94.15,39.46 94.72,39.75 95.29,39.71 95.85,39.01 96.42,38.69 96.99,39.16 97.55,40.02 98.12,39.46 98.69,40.72 99.25,41.31 99.82,41.52 100.39,42.14 100.96,42.22 101.52,42.19 102.09,41.88 102.66,42.01 103.22,42.19 103.79,42.66 104.36,43.12 104.92,43.48 105.49,43.88 106.06,44.88 106.63,45.39 107.19,45.49 107.76,46.51 108.33,47.44 108.89,47.33 109.46,47.81 110.03,48.11 110.59,48.13 111.16,48.08 111.73,48.24 112.30,47.68 112.86,47.22 113.43,46.76 114.00,45.92 114.56,44.89 115.13,43.85 115.70,43.13 116.26,42.62 116.83,41.89 117.40,41.16 117.97,40.31 118.53,39.40 119.10,38.65 119.67,37.40 120.23,35.78 120.80,35.36 121.37,34.64 121.93,33.27 122.50,31.47 123.07,29.36 123.63,28.96 124.20,27.99 124.77,26.86 125.34,25.87 125.90,25.33 126.47,24.37 127.04,23.00 127.60,21.74 128.17,20.27 128.74,18.70 129.30,17.60 129.87,17.38 130.44,16.16 131.01,15.60 131.57,15.29 132.14,15.42 132.71,15.66 133.27,16.03 133.84,16.30 134.41,16.42 134.97,16.52 135.54,16.96 136.11,17.37 136.68,17.99 137.24,18.60 137.81,18.73 138.38,19.00 138.94,20.51 139.51,20.37 140.08,21.26 140.64,21.96 141.21,23.32 141.78,24.32 142.35,25.04 142.91,26.03 143.48,26.49 144.05,26.81 144.61,28.24 145.18,27.92 145.75,28.87 146.31,29.20 146.88,29.55 147.45,30.49 148.02,31.03 148.58,30.95 149.15,31.18 149.72,32.96 150.28,46.99 150.85,46.29 151.42,45.11 151.98,43.55 152.55,44.09 153.12,43.25 153.69,42.50 154.25,41.91 154.82,41.70 155.39,41.85 155.95,42.06 156.52,41.69 157.09,41.85 157.65,40.05 158.22,37.74 158.79,38.11 159.36,37.12 159.92,36.57 160.49,36.38 161.06,36.46 161.62,36.76 162.19,36.76 162.76,37.24 163.32,37.75 163.89,37.99 164.46,37.70 165.03,38.46 165.59,37.52 166.16,38.46 166.73,39.08 167.29,39.54 167.86,39.94 168.43,40.06 168.99,37.97 169.56,38.77 170.13,38.85 170.70,39.28 171.26,39.93 171.83,40.98 172.40,41.57 172.96,41.32 173.53,41.73 174.10,41.73 174.66,41.08 175.23,40.25 175.80,41.22 176.37,41.14 176.93,42.50 177.50,42.50 178.07,42.82 178.63,43.82 179.20,45.49 179.77,45.98 180.33,47.51 180.90,46.33 181.47,48.18 182.03,46.81 182.60,48.26 183.17,48.05 183.74,48.45 184.30,49.42 184.87,48.11 185.44,48.52 186.00,46.80 186.57,46.53 187.14,45.91 187.70,43.59 188.27,42.81 188.84,42.50 189.41,42.50 189.97,42.46 190.54,40.90 191.11,37.81 191.67,39.02 192.24,38.29 192.81,35.58 193.37,35.15 193.94,33.61 194.51,35.06 195.08,33.83 195.64,30.87 196.21,27.51 196.78,28.60 197.34,27.13 197.91,24.90 198.48,22.72 199.04,23.82 199.61,25.16 200.18,22.15 200.75,16.38 201.31,17.15 201.88,18.14 202.45,16.90 203.01,17.14 203.58,15.04 204.15,13.27 204.71,12.60 205.28,13.89 205.85,15.82 206.42,16.69 206.98,16.15 207.55,15.80 208.12,15.45 208.68,14.83 209.25,17.28 209.82,16.93 210.38,19.74 210.95,17.86 211.52,17.86 212.09,19.74 212.65,21.22 213.22,20.36 213.79,22.16 214.35,22.72 214.92,24.36 215.49,23.91 216.05,25.22 216.62,27.98 217.19,26.80 217.76,29.65 218.32,26.64 218.89,28.87 219.46,27.88 220.02,30.19 220.59,32.02 221.16,32.54 221.72,30.71 222.29,29.77 222.86,31.38 223.43,49.10 223.99,46.01 224.56,46.01 225.13,46.01 225.69,42.43 226.26,42.43 226.83,42.43 227.39,43.19 227.96,43.19 228.53,43.19 229.10,41.47 229.66,41.47 230.23,41.47 230.80,35.99 231.36,35.99 231.93,41.47 232.50,40.13 233.06,40.13 233.63,40.13 234.20,42.09 234.77,42.09 235.33,42.09 235.90,42.09 236.47,41.45 237.03,41.45 237.60,41.45 238.17,36.23 238.73,36.23 239.30,36.69 239.87,36.69 240.43,36.69 241.00,38.12 241.57,38.12 242.14,40.13 242.70,40.13 243.27,42.28 243.84,42.28 244.40,42.28 244.97,42.71 245.54,42.71 246.10,42.71 246.67,38.87 247.24,38.87 247.81,41.59 248.37,41.59 248.94,41.59 249.51,45.38 250.07,45.38 250.64,45.38 251.21,45.38 251.77,52.37 252.34,52.37 252.91,52.37 253.48,56.00 254.04,56.00 254.61,56.00 255.18,48.80 255.74,48.80 256.31,53.08 256.88,53.08 257.44,53.08 258.01,54.82 258.58,54.82 259.15,47.59 259.71,45.01 260.28,45.01 260.85,45.01 261.41,41.28 261.98,41.28 262.55,41.28 263.11,45.52 263.68,36.41 264.25,36.41 264.82,36.41 265.38,43.50 265.95,35.04 266.52,35.04 267.08,35.04 267.65,35.04 268.22,33.19 268.78,33.19 269.35,33.19 269.92,24.83 270.49,24.83 271.05,24.83 271.62,10.21 272.19,6.55 272.75,21.25 273.32,21.25 273.89,16.77 274.45,16.77 275.02,16.44 275.59,4.00 276.16,16.44 276.72,12.36 277.29,12.36 277.86,12.36 278.42,17.92 278.99,17.92 279.56,9.97 280.12,9.97 280.69,9.97 281.26,6.66 281.83,6.66 282.39,17.27 282.96,16.84 283.53,16.84 284.09,10.69 284.66,10.69 285.23,10.69 285.79,16.95 286.36,16.95 286.93,16.95 287.50,17.97 288.06,17.97 288.63,17.97 289.20,8.57 289.76,18.81 290.33,18.81 290.90,18.81 291.46,18.81 292.03,28.80 292.60,13.99 293.17,13.99 293.73,23.75 294.30,23.75 294.87,23.75 295.43,23.75 296.00,29.71" />
</svg>