<svg width="300" height="60" xmlns="http://www.w3.org/2000/svg">
  <polyline fill="rgba(255,200,0,0.3)" stroke="#ffbb00" stroke-width="2" points="4.00,7.02 4.41,6.71 4.82,6.58 5.23,7.72 5.64,7.71 6.05,7.26 6.46,8.55 6.87,8.23 7.28,8.18 7.69,8.65 8.10,9.39 8.51,10.16 8.92,10.75 9.33,11.79 9.74,13.38 10.15,14.65 10.56,15.69 10.97,15.34 11.38,14.99 11.79,14.96 12.20,15.02 12.61,14.81 13.02,13.86 13.43,13.25 13.84,13.41 14.25,12.92 14.66,12.59 15.07,11.64 15.48,10.41 15.89,9.68 16.30,9.79 16.71,10.39 17.12,9.90 17.53,9.49 17.94,9.28 18.35,9.08 18.76,8.83 19.17,8.83 19.58,8.97 19.99,9.37 20.40,11.29 20.81,12.51 21.22,13.69 21.63,14.63 22.04,15.94 22.46,17.25 22.87,18.79 23.28,20.56 23.69,21.99 24.10,23.45 24.51,24.62 24.92,25.44 25.33,26.54 25.74,27.71 26.15,28.64 26.56,30.26 26.97,32.41 27.38,33.52 27.79,35.66 28.20,37.10 28.61,39.08 29.02,40.01 29.43,40.95 29.84,41.38 30.25,41.98 30.66,42.37 31.07,42.46 31.48,42.43 31.89,42.20 32.30,41.90 32.71,41.32 33.12,40.26 33.53,39.14 33.94,38.16 34.35,37.19 34.76,36.51 35.17,35.40 35.58,34.41 35.99,33.97 36.40,33.96 36.81,34.08 37.22,33.76 37.63,33.13 38.04,32.94 38.45,32.75 38.86,32.49 39.27,32.75 39.68,33.58 40.09,34.83 40.50,35.53 40.91,36.71 41.32,37.36 41.73,38.60 42.14,40.01 42.55,41.19 42.96,41.57 43.37,41.77 43.78,41.78 44.19,41.74 44.60,41.28 45.01,40.66 45.42,40.12 45.83,39.22 46.24,38.58 46.65,38.28 47.06,37.88 47.47,37.60 47.88,37.68 48.29,38.04 48.70,39.12 49.11,39.92 49.52,40.94 49.93,41.62 50.34,42.40 50.75,43.23 51.16,44.18 51.57,44.69 51.98,44.90 52.39,44.76 52.80,44.65 53.21,44.50 53.62,44.25 54.03,44.00 54.44,43.80 54.85,43.17 55.26,42.70 55.67,41.77 56.08,40.58 56.49,39.18 56.90,38.75 57.31,37.44 57.72,37.15 58.13,36.75 58.54,35.31 58.96,35.49 59.37,36.01 59.78,35.74 60.19,36.31 60.60,36.31 61.01,35.78 61.42,35.31 61.83,34.03 62.24,34.82 62.65,35.20 63.06,36.30 63.47,37.35 63.88,38.00 64.29,38.55 64.70,37.92 65.11,38.78 65.52,39.86 65.93,40.12 66.34,40.38 66.75,40.47 67.16,40.13 67.57,39.66 67.98,39.19 68.39,38.35 68.80,38.36 69.21,36.84 69.62,36.08 70.03,36.85 70.44,38.33 70.85,39.52 71.26,41.41 71.67,42.86 72.08,44.24 72.49,45.45 72.90,46.76 73.31,48.01 73.72,49.43 74.13,50.36 74.54,51.81 74.95,53.62 75.36,53.63 75.77,54.30 76.18,54.71 76.59,54.64 77.00,54.15 77.41,7.11 77.82,6.79 78.23,6.66 78.64,7.87 79.05,7.71 79.46,7.53 79.87,8.22 80.28,8.70 80.69,8.78 81.10,8.90 81.51,9.82 81.92,10.79 82.33,12.05 82.74,12.33 83.15,13.69 83.56,14.94 83.97,16.45 84.38,16.25 84.79,15.00 85.20,15.05 85.61,15.12 86.02,14.63 86.43,14.04 86.84,13.67 87.25,13.49 87.66,13.23 88.07,12.42 88.48,11.67 88.89,10.36 89.30,9.84 89.71,9.79 90.12,10.77 90.53,10.16 90.94,9.48 91.35,9.38 91.76,9.09 92.17,8.78 92.58,8.76 92.99,9.21 93.40,9.86 93.81,11.69 94.22,12.92 94.63,13.71 95.04,14.92 95.46,16.36 95.87,17.84 96.28,19.21 96.69,20.39 97.10,22.14 97.51,23.71 97.92,24.66 98.33,25.85 98.74,26.58 99.15,27.89 99.56,28.66 99.97,30.76 100.38,32.71 100.79,33.93 101.20,35.95 101.61,37.37 102.02,38.94 102.43,40.43 102.84,41.19 103.25,41.78 103.66,42.39 104.07,42.42 104.48,42.61 104.89,42.45 105.30,42.36 105.71,41.94 106.12,41.31 106.53,40.25 106.94,39.31 107.35,38.07 107.76,37.23 108.17,36.16 108.58,35.24 108.99,34.45 109.40,33.90 109.81,33.95 110.22,34.11 110.63,33.82 111.04,33.35 111.45,32.77 111.86,32.58 112.27,32.47 112.68,32.80 113.09,33.61 113.50,34.55 113.91,35.58 114.32,36.73 114.73,37.58 115.14,38.86 115.55,40.25 115.96,41.17 116.37,42.32 116.78,42.14 117.19,41.91 117.60,41.65 118.01,41.40 118.42,40.62 118.83,40.12 119.24,38.92 119.65,38.63 120.06,38.11 120.47,37.71 120.88,37.51 121.29,37.66 121.70,38.14 122.11,39.37 122.52,40.15 122.93,41.33 123.34,41.75 123.75,42.43 124.16,43.16 124.57,44.30 124.98,44.89 125.39,44.83 125.80,44.82 126.21,44.56 126.62,44.64 127.03,44.30 127.44,44.17 127.85,43.73 128.26,43.12 128.67,42.61 129.08,41.51 129.49,40.10 129.90,38.96 130.31,38.64 130.72,36.92 131.13,36.17 131.54,36.79 131.96,36.00 132.37,35.92 132.78,35.80 133.19,36.17 133.60,35.71 134.01,36.52 134.42,35.34 134.83,35.19 135.24,34.01 135.65,34.82 136.06,35.84 136.47,35.77 136.88,37.10 137.29,37.93 137.70,38.51 138.11,38.62 138.52,39.09 138.93,40.02 139.34,40.28 139.75,40.41 140.16,40.46 140.57,40.17 140.98,39.57 141.39,38.88 141.80,37.78 142.21,36.73 142.62,35.79 143.03,36.60 143.44,38.17 143.85,39.49 144.26,41.24 144.67,42.55 145.08,44.41 145.49,45.54 145.90,46.66 146.31,47.63 146.72,49.34 147.13,50.60 147.54,51.99 147.95,53.17 148.36,53.69 148.77,54.26 149.18,54.78 149.59,54.72 150.00,54.36 150.41,7.17 150.82,6.72 151.23,5.54 151.64,6.77 152.05,6.12 152.46,6.09 152.87,8.27 153.28,8.53 153.69,12.06 154.10,9.23 154.51,10.47 154.92,12.05 155.33,11.19 155.74,11.58 156.15,12.76 156.56,14.14 156.97,15.45 157.38,15.45 157.79,13.54 158.20,14.41 158.61,13.96 159.02,12.39 159.43,13.70 159.84,13.41 160.25,13.41 160.66,13.28 161.07,10.45 161.48,9.67 161.89,8.86 162.30,8.15 162.71,7.70 163.12,10.04 163.53,9.64 163.94,9.79 164.35,9.58 164.76,8.95 165.17,8.95 165.58,9.22 165.99,9.38 166.40,10.47 166.81,12.23 167.22,13.25 167.63,13.25 168.04,14.24 168.46,16.08 168.87,17.85 169.28,18.98 169.69,20.55 170.10,22.17 170.51,23.85 170.92,24.84 171.33,25.97 171.74,25.97 172.15,27.12 172.56,28.66 172.97,29.66 173.38,31.83 173.79,33.95 174.20,34.58 174.61,36.29 175.02,38.51 175.43,40.66 175.84,41.05 176.25,42.94 176.66,42.15 177.07,42.74 177.48,42.74 177.89,43.56 178.30,42.66 178.71,42.25 179.12,41.85 179.53,40.46 179.94,39.97 180.35,39.35 180.76,37.15 181.17,36.79 181.58,34.90 181.99,34.43 182.40,34.01 182.81,33.54 183.22,33.89 183.63,33.57 184.04,33.26 184.45,33.36 184.86,32.55 185.27,32.63 185.68,32.76 186.09,33.39 186.50,34.10 186.91,34.71 187.32,36.15 187.73,37.15 188.14,39.17 188.55,40.58 188.96,40.66 189.37,41.68 189.78,42.68 190.19,42.03 190.60,41.51 191.01,42.24 191.42,41.14 191.83,40.56 192.24,39.57 192.65,40.12 193.06,38.55 193.47,38.73 193.88,37.53 194.29,37.87 194.70,38.36 195.11,39.12 195.52,39.65 195.93,41.69 196.34,42.32 196.75,42.38 197.16,42.38 197.57,43.40 197.98,44.62 198.39,45.12 198.80,45.04 199.21,44.93 199.62,44.93 200.03,45.09 200.44,44.36 200.85,44.43 201.26,43.33 201.67,42.57 202.08,43.41 202.49,40.74 202.90,40.95 203.31,40.48 203.72,36.79 204.13,36.34 204.54,38.80 204.96,38.20 205.37,37.73 205.78,37.79 206.19,37.95 206.60,35.54 207.01,36.17 207.42,36.77 207.83,34.81 208.24,35.12 208.65,34.31 209.06,35.51 209.47,34.79 209.88,36.86 210.29,37.52 210.70,39.17 211.11,39.12 211.52,39.32 211.93,40.08 212.34,40.06 212.75,40.63 213.16,40.60 213.57,40.31 213.98,40.26 214.39,38.43 214.80,37.64 215.21,36.49 215.62,35.57 216.03,35.60 216.44,36.12 216.85,38.77 217.26,41.28 217.67,42.41 218.08,43.30 218.49,44.21 218.90,45.18 219.31,46.36 219.72,48.79 220.13,50.10 220.54,51.49 220.95,52.90 221.36,53.92 221.77,54.12 222.18,54.54 222.59,54.65 223.00,54.15 223.41,11.41 223.82,6.55 224.23,6.55 224.64,4.82 225.05,4.82 225.46,4.82 225.87,4.00 226.28,4.00 226.69,12.27 227.10,12.27 227.51,7.56 227.92,7.56 228.33,7.56 228.74,6.35 229.15,6.35 229.56,6.35 229.97,10.15 230.38,10.15 230.79,10.15 231.20,10.15 231.61,14.08 232.02,11.44 232.43,11.44 232.84,11.44 233.25,10.78 233.66,10.78 234.07,8.87 234.48,8.87 234.89,8.87 235.30,7.25 235.71,7.25 236.12,7.25 236.53,4.39 236.94,4.84 237.35,4.84 237.76,4.84 238.17,4.84 238.58,9.42 238.99,9.42 239.40,9.42 239.81,14.37 240.22,12.41 240.63,12.41 241.04,12.41 241.46,16.28 241.87,16.28 242.28,21.16 242.69,21.16 243.10,20.89 243.51,24.26 243.92,24.26 244.33,24.26 244.74,24.26 245.15,27.64 245.56,27.64 245.97,27.64 246.38,31.25 246.79,33.40 247.20,33.40 247.61,33.40 248.02,36.12 248.43,39.81 248.84,39.81 249.25,39.81 249.66,39.81 250.07,44.01 250.48,44.01 250.89,44.01 251.30,44.01 251.71,43.38 252.12,43.38 252.53,43.38 252.94,43.43 253.35,43.43 253.76,43.64 254.17,43.64 254.58,36.83 254.99,35.29 255.40,35.29 255.81,35.29 256.22,35.34 256.63,35.34 257.04,35.00 257.45,34.19 257.86,34.19 258.27,34.19 258.68,34.82 259.09,34.82 259.50,34.82 259.91,34.79 260.32,34.79 260.73,37.05 261.14,38.76 261.55,38.76 261.96,38.76 262.37,42.90 262.78,42.37 263.19,42.37 263.60,42.37 264.01,42.37 264.42,41.74 264.83,42.66 265.24,42.66 265.65,42.66 266.06,38.69 266.47,38.69 266.88,38.69 267.29,39.38 267.70,39.38 268.11,39.38 268.52,41.92 268.93,41.92 269.34,46.06 269.75,42.73 270.16,42.73 270.57,42.73 270.98,45.03 271.39,45.85 271.80,45.85 272.21,45.85 272.62,45.85 273.03,46.16 273.44,46.16 273.85,46.16 274.26,44.01 274.67,44.01 275.08,46.74 275.49,46.74 275.90,46.74 276.31,49.46 276.72,37.36 277.13,37.36 277.54,46.42 277.96,46.42 278.37,44.77 278.78,44.77 279.19,44.77 279.60,35.78 280.01,35.78 280.42,35.78 280.83,37.11 281.24,37.11 281.65,37.11 282.06,35.36 282.47,35.36 282.88,35.36 283.29,35.36 283.70,41.33 284.11,38.40 284.52,38.40 284.93,38.40 285.34,41.88 285.75,41.99 286.16,41.99 286.57,42.14 286.98,42.14 287.39,43.01 287.80,43.01 288.21,43.01 288.62,40.02 289.03,40.02 289.44,40.02 289.85,39.13 290.26,39.13 290.67,42.54 291.08,42.54 291.49,42.54 291.90,45.44 292.31,45.44 292.72,49.01 293.13,49.01 293.54,49.01 293.95,53.12 294.36,53.12 294.77,53.12 295.18,55.84 295.59,55.84 296.00,56.00" />
</svg>