<svg width="300" height="60" xmlns="http://www.w3.org/2000/svg">
  <polyline fill="rgba(255,200,0,0.3)" stroke="#ffbb00" stroke-width="2" points="4.00,20.31 4.90,18.94 5.81,16.50 6.71,13.58 7.62,11.24 8.52,8.82 9.42,6.60 10.33,5.33 11.23,4.44 12.14,4.21 13.04,4.61 13.94,5.84 14.85,7.66 15.75,9.96 16.66,13.06 17.56,16.36 18.46,19.26 19.37,21.52 20.27,23.51 21.18,25.20 22.08,26.45 22.98,27.58 23.89,28.23 24.79,28.85 25.70,28.99 26.60,28.99 27.50,28.72 28.41,28.25 29.31,27.62 30.22,26.61 31.12,25.24 32.02,24.06 32.93,22.77 33.83,22.05 34.74,21.39 35.64,20.94 36.54,20.77 37.45,21.38 38.35,22.46 39.26,23.77 40.16,24.62 41.07,24.78 41.97,25.01 42.87,24.77 43.78,23.99 44.68,22.72 45.59,21.11 46.49,19.04 47.39,16.99 48.30,15.67 49.20,14.60 50.11,13.86 51.01,13.94 51.91,14.41 52.82,15.50 53.72,16.93 54.63,18.13 55.53,19.20 56.43,20.44 57.34,21.89 58.24,23.45 59.15,24.77 60.05,25.58 60.95,26.28 61.86,27.30 62.76,28.83 63.67,30.85 64.57,33.26 65.47,35.57 66.38,38.08 67.28,40.05 68.19,41.47 69.09,42.39 69.99,42.87 70.90,42.79 71.80,42.40 72.71,42.14 73.61,42.23 74.51,42.31 75.42,42.86 76.32,43.74 77.23,20.71 78.13,18.93 79.03,16.76 79.94,13.60 80.84,10.98 81.75,8.89 82.65,6.65 83.55,5.49 84.46,4.23 85.36,4.02 86.27,4.44 87.17,6.35 88.07,7.71 88.98,10.32 89.88,13.04 90.79,16.67 91.69,19.16 92.59,21.83 93.50,23.60 94.40,25.46 95.31,26.64 96.21,27.90 97.11,29.11 98.02,29.41 98.92,29.27 99.83,29.22 100.73,29.02 101.63,28.87 102.54,28.11 103.44,26.96 104.35,25.85 105.25,24.27 106.15,23.17 107.06,21.81 107.96,20.85 108.87,19.43 109.77,20.84 110.67,21.40 111.58,23.41 112.48,24.37 113.39,24.77 114.29,25.13 115.20,25.83 116.10,25.62 117.00,25.01 117.91,22.92 118.81,21.61 119.72,19.75 120.62,17.35 121.52,15.33 122.43,14.40 123.33,13.49 124.24,13.24 125.14,14.89 126.04,15.90 126.95,17.11 127.85,18.66 128.76,19.47 129.66,20.69 130.56,22.46 131.47,23.73 132.37,24.94 133.28,25.65 134.18,26.55 135.08,27.31 135.99,28.96 136.89,30.37 137.80,33.10 138.70,35.23 139.60,38.30 140.51,40.12 141.41,41.94 142.32,42.60 143.22,43.30 144.12,43.69 145.03,42.98 145.93,42.53 146.84,42.47 147.74,42.53 148.64,43.04 149.55,44.25 150.45,18.76 151.36,16.50 152.26,16.50 153.16,12.76 154.07,9.99 154.97,8.23 155.88,5.84 156.78,6.47 157.68,4.25 158.59,4.00 159.49,6.77 160.40,8.64 161.30,8.64 162.20,11.61 163.11,17.31 164.01,16.86 164.92,20.86 165.82,23.74 166.72,23.74 167.63,25.98 168.53,27.49 169.44,28.65 170.34,28.65 171.24,29.71 172.15,29.96 173.05,29.71 173.96,29.26 174.86,28.45 175.76,28.69 176.67,26.58 177.57,26.93 178.48,23.20 179.38,22.09 180.28,19.87 181.19,19.52 182.09,19.52 183.00,20.22 183.90,20.86 184.80,22.02 185.71,23.18 186.61,23.49 187.52,27.22 188.42,26.11 189.33,26.36 190.23,25.96 191.13,21.72 192.04,22.12 192.94,15.34 193.85,15.63 194.75,8.98 195.65,10.99 196.56,12.26 197.46,9.73 198.37,13.06 199.27,12.51 200.17,16.09 201.08,18.60 201.98,19.71 202.89,20.77 203.79,22.43 204.69,23.85 205.60,24.70 206.50,31.11 207.41,27.04 208.31,27.09 209.21,28.05 210.12,29.80 211.02,33.43 211.93,33.43 212.83,37.87 213.73,41.30 214.64,44.88 215.54,44.32 216.45,44.02 217.35,43.36 218.25,42.54 219.16,41.73 220.06,41.38 220.97,41.83 221.87,42.94 222.77,44.10 223.68,21.68 224.58,18.49 225.49,18.49 226.39,18.49 227.29,18.49 228.20,11.48 229.10,24.08 230.01,24.08 230.91,24.08 231.81,8.20 232.72,37.39 233.62,37.39 234.53,37.39 235.43,16.67 236.33,44.71 237.24,44.71 238.14,29.18 239.05,29.18 239.95,29.18 240.85,48.64 241.76,33.51 242.66,33.51 243.57,33.51 244.47,50.61 245.37,50.61 246.28,33.92 247.18,32.10 248.09,32.10 248.99,32.10 249.89,33.87 250.80,33.87 251.70,33.87 252.61,22.28 253.51,22.28 254.41,20.21 255.32,20.21 256.22,23.79 257.13,23.79 258.03,23.79 258.93,27.63 259.84,27.63 260.74,27.63 261.65,49.81 262.55,49.81 263.46,27.64 264.36,27.64 265.26,27.64 266.17,10.60 267.07,10.60 267.98,10.60 268.88,8.07 269.78,8.07 270.69,8.07 271.59,14.02 272.50,24.56 273.40,24.56 274.30,24.51 275.21,24.51 276.11,27.79 277.02,27.79 277.92,27.79 278.82,31.62 279.73,31.62 280.63,31.62 281.54,29.10 282.44,29.10 283.34,29.10 284.25,35.30 285.15,35.30 286.06,41.65 286.96,41.65 287.86,53.08 288.77,53.08 289.67,53.08 290.58,47.63 291.48,47.63 292.38,47.63 293.29,44.35 294.19,44.35 295.10,44.35 296.00,56.00" />
</svg>