<svg width="300" height="60" xmlns="http://www.w3.org/2000/svg">
  <polyline fill="rgba(255,200,0,0.3)" stroke="#ffbb00" stroke-width="2" points="4.00,9.30 4.18,9.13 4.35,9.02 4.53,8.93 4.70,8.80 4.88,8.67 5.06,8.53 5.23,8.57 5.41,8.85 5.58,8.79 5.76,8.77 5.94,8.75 6.11,8.87 6.29,9.10 6.46,9.27 6.64,9.24 6.82,9.21 6.99,9.25 7.17,9.41 7.34,9.64 7.52,9.75 7.70,9.65 7.87,9.44 8.05,9.31 8.22,9.09 8.40,9.08 8.58,8.98 8.75,8.33 8.93,8.00 9.10,7.30 9.28,7.05 9.46,6.89 9.63,6.65 9.81,6.45 9.98,6.37 10.16,6.23 10.34,6.23 10.51,6.21 10.69,6.36 10.86,6.40 11.04,6.40 11.22,6.49 11.39,6.51 11.57,6.97 11.74,7.19 11.92,6.72 12.10,6.40 12.27,6.63 12.45,6.80 12.62,6.85 12.80,6.88 12.98,6.99 13.15,6.99 13.33,7.09 13.50,7.08 13.68,7.17 13.86,7.42 14.03,7.62 14.21,7.81 14.38,7.99 14.56,8.25 14.74,8.59 14.91,8.93 15.09,9.51 15.26,9.87 15.44,10.06 15.62,10.24 15.79,10.27 15.97,10.26 16.14,10.34 16.32,10.54 16.50,10.88 16.67,10.98 16.85,11.21 17.02,11.34 17.20,11.59 17.38,11.73 17.55,11.92 17.73,11.93 17.90,11.98 18.08,12.02 18.26,12.04 18.43,12.19 18.61,12.41 18.78,12.60 18.96,12.67 19.14,12.68 19.31,12.68 19.49,12.62 19.66,12.60 19.84,12.85 20.02,13.02 20.19,13.21 20.37,13.45 20.54,13.58 20.72,13.74 20.90,13.92 21.07,14.00 21.25,14.32 21.42,14.25 21.60,14.39 21.78,14.63 21.95,14.73 22.13,14.99 22.31,15.17 22.48,15.45 22.66,15.61 22.83,15.94 23.01,16.37 23.19,16.67 23.36,16.91 23.54,17.05 23.71,17.15 23.89,17.21 24.07,17.32 24.24,17.62 24.42,17.90 24.59,18.17 24.77,18.02 24.95,18.17 25.12,18.28 25.30,18.33 25.47,18.47 25.65,18.66 25.83,18.95 26.00,19.22 26.18,19.55 26.35,19.79 26.53,20.04 26.71,19.95 26.88,19.96 27.06,19.79 27.23,19.81 27.41,19.89 27.59,19.68 27.76,19.65 27.94,19.58 28.11,19.77 28.29,19.92 28.47,20.18 28.64,20.42 28.82,20.69 28.99,20.95 29.17,21.08 29.35,21.08 29.52,21.02 29.70,55.85 29.87,55.41 30.05,55.16 30.23,54.94 30.40,54.74 30.58,54.62 30.75,54.30 30.93,54.04 31.11,53.84 31.28,53.73 31.46,53.80 31.63,53.56 31.81,53.54 31.99,53.83 32.16,53.17 32.34,52.84 32.51,52.62 32.69,52.42 32.87,52.10 33.04,51.92 33.22,51.90 33.39,51.98 33.57,52.16 33.75,52.71 33.92,53.16 34.10,53.51 34.27,53.27 34.45,53.04 34.63,52.36 34.80,51.91 34.98,51.70 35.15,51.34 35.33,51.23 35.51,51.19 35.68,52.06 35.86,51.15 36.03,50.22 36.21,49.00 36.39,47.99 36.56,47.56 36.74,47.24 36.91,47.48 37.09,48.25 37.27,48.60 37.44,48.64 37.62,48.07 37.79,47.56 37.97,47.04 38.15,46.91 38.32,46.66 38.50,46.48 38.67,46.15 38.85,45.69 39.03,45.16 39.20,44.55 39.38,44.16 39.55,43.97 39.73,43.70 39.91,43.70 40.08,43.59 40.26,43.63 40.43,43.78 40.61,44.75 40.79,44.40 40.96,43.90 41.14,43.30 41.31,43.13 41.49,42.96 41.67,42.85 41.84,42.61 42.02,42.28 42.19,42.10 42.37,41.93 42.55,41.71 42.72,41.44 42.90,41.32 43.07,40.89 43.25,40.53 43.43,40.16 43.60,39.71 43.78,39.28 43.95,39.04 44.13,38.83 44.31,38.78 44.48,38.74 44.66,38.84 44.83,38.89 45.01,38.84 45.19,38.68 45.36,38.73 45.54,38.34 45.71,37.90 45.89,37.52 46.07,37.13 46.24,36.91 46.42,36.63 46.59,36.19 46.77,35.76 46.95,35.54 47.12,35.44 47.30,35.39 47.47,35.11 47.65,35.06 47.83,34.69 48.00,34.31 48.18,33.75 48.35,33.20 48.53,32.87 48.71,32.27 48.88,31.92 49.06,31.59 49.23,31.25 49.41,30.70 49.59,30.19 49.76,29.69 49.94,29.51 50.11,29.47 50.29,29.43 50.47,29.50 50.64,30.07 50.82,30.94 50.99,31.82 51.17,32.43 51.35,32.83 51.52,32.12 51.70,30.50 51.87,29.18 52.05,28.79 52.23,28.47 52.40,28.89 52.58,29.50 52.75,30.04 52.93,30.61 53.11,30.97 53.28,31.08 53.46,30.70 53.63,30.64 53.81,30.76 53.99,31.10 54.16,31.05 54.34,30.95 54.51,30.76 54.69,30.68 54.87,30.84 55.04,30.83 55.22,30.60 55.39,30.03 55.57,30.12 55.75,30.29 55.92,30.56 56.10,30.91 56.27,31.59 56.45,32.08 56.63,32.68 56.80,33.07 56.98,33.56 57.15,34.06 57.33,34.75 57.51,35.02 57.68,35.00 57.86,34.92 58.03,34.86 58.21,34.82 58.39,34.79 58.56,34.41 58.74,34.10 58.92,33.62 59.09,33.31 59.27,33.16 59.44,32.71 59.62,32.44 59.80,31.85 59.97,31.31 60.15,31.00 60.32,30.51 60.50,30.08 60.68,29.62 60.85,29.37 61.03,29.05 61.20,28.87 61.38,28.56 61.56,28.15 61.73,27.90 61.91,27.38 62.08,27.33 62.26,27.32 62.44,27.27 62.61,27.32 62.79,26.79 62.96,27.17 63.14,25.82 63.32,24.97 63.49,24.64 63.67,24.85 63.84,25.05 64.02,25.48 64.20,25.78 64.37,26.03 64.55,26.14 64.72,26.22 64.90,26.14 65.08,25.98 65.25,25.80 65.43,25.74 65.60,25.73 65.78,25.85 65.96,25.93 66.13,25.91 66.31,25.98 66.48,26.03 66.66,26.07 66.84,26.33 67.01,26.58 67.19,26.82 67.36,27.10 67.54,27.40 67.72,27.50 67.89,27.70 68.07,27.93 68.24,27.93 68.42,27.83 68.60,27.58 68.77,27.08 68.95,26.58 69.12,26.38 69.30,26.32 69.48,26.23 69.65,26.26 69.83,26.39 70.00,26.62 70.18,26.78 70.36,26.90 70.53,27.03 70.71,27.25 70.88,27.46 71.06,27.77 71.24,28.15 71.41,28.18 71.59,28.21 71.76,28.65 71.94,28.87 72.12,28.93 72.29,28.92 72.47,29.29 72.64,29.45 72.82,29.53 73.00,29.65 73.17,29.49 73.35,29.35 73.52,29.43 73.70,29.31 73.88,29.15 74.05,29.04 74.23,28.77 74.40,28.09 74.58,27.31 74.76,26.53 74.93,25.53 75.11,24.44 75.28,23.72 75.46,23.43 75.64,23.66 75.81,23.46 75.99,23.35 76.16,23.32 76.34,23.23 76.52,23.28 76.69,23.16 76.87,23.15 77.04,23.07 77.22,23.00 77.40,22.99 77.57,23.17 77.75,23.17 77.92,23.17 78.10,23.22 78.28,23.14 78.45,23.23 78.63,23.30 78.80,23.18 78.98,23.42 79.16,23.78 79.33,24.21 79.51,24.31 79.68,24.21 79.86,23.95 80.04,23.60 80.21,23.21 80.39,23.13 80.56,23.04 80.74,23.20 80.92,23.48 81.09,23.60 81.27,23.94 81.44,24.09 81.62,24.18 81.80,24.20 81.97,23.99 82.15,23.75 82.32,23.32 82.50,23.08 82.68,22.64 82.85,22.42 83.03,22.23 83.20,21.94 83.38,21.34 83.56,20.92 83.73,20.41 83.91,20.07 84.08,19.90 84.26,19.84 84.44,19.80 84.61,19.86 84.79,20.00 84.96,20.13 85.14,20.09 85.32,19.95 85.49,19.90 85.67,19.80 85.84,19.74 86.02,19.62 86.20,19.52 86.37,19.23 86.55,18.80 86.72,18.36 86.90,17.52 87.08,16.82 87.25,16.19 87.43,15.49 87.60,15.05 87.78,14.74 87.96,14.46 88.13,14.46 88.31,14.53 88.48,14.57 88.66,14.77 88.84,14.90 89.01,14.90 89.19,15.75 89.36,15.90 89.54,14.77 89.72,14.77 89.89,14.66 90.07,15.94 90.24,16.32 90.42,16.33 90.60,15.57 90.77,14.42 90.95,13.69 91.12,13.31 91.30,12.96 91.48,12.48 91.65,12.10 91.83,11.80 92.00,11.42 92.18,11.49 92.36,12.21 92.53,14.70 92.71,15.80 92.88,17.79 93.06,18.34 93.24,17.95 93.41,17.82 93.59,17.91 93.76,18.18 93.94,18.58 94.12,18.89 94.29,18.90 94.47,18.69 94.64,18.31 94.82,18.01 95.00,18.30 95.17,18.50 95.35,18.52 95.53,18.39 95.70,18.28 95.88,18.50 96.05,18.30 96.23,18.16 96.41,17.55 96.58,16.27 96.76,15.14 96.93,13.94 97.11,12.83 97.29,11.96 97.46,10.99 97.64,10.24 97.81,9.74 97.99,9.43 98.17,9.24 98.34,9.16 98.52,8.98 98.69,8.94 98.87,9.02 99.05,9.21 99.22,9.57 99.40,9.63 99.57,9.69 99.75,9.90 99.93,10.01 100.10,10.08 100.28,10.10 100.45,9.84 100.63,9.71 100.81,9.52 100.98,9.39 101.16,9.34 101.33,9.30 101.51,56.00 101.69,55.60 101.86,55.31 102.04,55.10 102.21,54.45 102.39,54.35 102.57,54.22 102.74,54.20 102.92,53.79 103.09,53.79 103.27,53.56 103.45,53.31 103.62,53.79 103.80,53.66 103.97,52.85 104.15,52.96 104.33,52.57 104.50,52.22 104.68,51.87 104.85,51.87 105.03,51.77 105.21,51.99 105.38,52.02 105.56,52.90 105.73,53.28 105.91,53.79 106.09,53.36 106.26,52.94 106.44,52.01 106.61,52.01 106.79,51.79 106.97,51.37 107.14,51.19 107.32,51.28 107.49,51.49 107.67,51.43 107.85,50.14 108.02,48.89 108.20,47.74 108.37,47.80 108.55,47.23 108.73,47.64 108.90,47.88 109.08,48.39 109.25,48.63 109.43,47.37 109.61,47.43 109.78,46.37 109.96,46.76 110.13,46.12 110.31,46.72 110.49,45.99 110.66,44.95 110.84,45.22 111.01,44.02 111.19,44.44 111.37,43.53 111.54,44.12 111.72,43.47 111.89,44.31 112.07,43.65 112.25,44.37 112.42,44.93 112.60,44.62 112.77,43.35 112.95,42.56 113.13,42.92 113.30,43.23 113.48,42.27 113.65,42.47 113.83,42.67 114.01,42.03 114.18,42.03 114.36,41.56 114.53,41.18 114.71,41.46 114.89,40.91 115.06,40.77 115.24,39.97 115.41,39.69 115.59,39.52 115.77,38.63 115.94,38.58 116.12,38.64 116.29,39.06 116.47,39.40 116.65,38.74 116.82,39.11 117.00,38.36 117.17,38.69 117.35,37.75 117.53,37.86 117.70,37.86 117.88,36.86 118.05,36.89 118.23,36.88 118.41,36.04 118.58,35.30 118.76,35.61 118.93,35.39 119.11,35.55 119.29,35.55 119.46,34.91 119.64,35.27 119.81,34.40 119.99,34.53 120.17,33.53 120.34,32.57 120.52,32.69 120.69,31.71 120.87,31.86 121.05,30.94 121.22,29.99 121.40,30.90 121.57,29.87 121.75,29.73 121.93,29.55 122.10,29.49 122.28,29.49 122.45,29.59 122.63,30.97 122.81,31.08 122.98,32.14 123.16,32.62 123.33,31.48 123.51,30.00 123.69,28.67 123.86,28.18 124.04,28.82 124.21,28.65 124.39,29.29 124.57,29.29 124.74,30.68 124.92,31.00 125.09,31.27 125.27,30.92 125.45,30.41 125.62,30.99 125.80,31.33 125.97,30.70 126.15,31.05 126.33,30.64 126.50,31.19 126.68,30.33 126.85,30.95 127.03,30.63 127.21,30.23 127.38,29.91 127.56,30.59 127.73,30.45 127.91,31.27 128.09,32.01 128.26,32.04 128.44,32.88 128.61,33.10 128.79,34.10 128.97,34.60 129.14,35.25 129.32,35.25 129.49,35.98 129.67,35.39 129.85,34.84 130.02,35.62 130.20,34.91 130.37,34.08 130.55,34.38 130.73,33.47 130.90,32.66 131.08,33.03 131.25,32.23 131.43,32.76 131.61,32.05 131.78,32.05 131.96,31.42 132.14,30.79 132.31,30.20 132.49,29.65 132.66,29.20 132.84,28.82 133.02,28.50 133.19,29.36 133.37,29.02 133.54,28.62 133.72,28.22 133.90,27.83 134.07,27.45 134.25,27.14 134.42,27.58 134.60,26.92 134.78,26.11 134.95,26.11 135.13,25.30 135.30,24.65 135.48,24.82 135.66,25.05 135.83,25.50 136.01,25.85 136.18,26.28 136.36,26.19 136.54,26.47 136.71,26.27 136.89,26.04 137.06,25.89 137.24,25.86 137.42,25.91 137.59,25.99 137.77,26.02 137.94,25.99 138.12,25.97 138.30,25.94 138.47,25.86 138.65,25.78 138.82,26.61 139.00,26.58 139.18,26.51 139.35,27.41 139.53,27.39 139.70,27.40 139.88,27.42 140.06,27.39 140.23,27.26 140.41,26.98 140.58,26.68 140.76,26.46 140.94,26.38 141.11,26.46 141.29,26.03 141.46,26.57 141.64,25.97 141.82,26.18 141.99,26.55 142.17,26.55 142.34,26.94 142.52,27.26 142.70,27.58 142.87,27.58 143.05,27.88 143.22,28.31 143.40,28.29 143.58,28.43 143.75,29.10 143.93,28.67 144.10,29.09 144.28,29.53 144.46,28.92 144.63,29.23 144.81,29.99 144.98,29.13 145.16,29.48 145.34,29.99 145.51,29.70 145.69,28.87 145.86,28.77 146.04,28.77 146.22,28.58 146.39,27.78 146.57,26.92 146.74,26.13 146.92,24.46 147.10,23.42 147.27,23.64 147.45,23.16 147.62,23.50 147.80,23.10 147.98,23.72 148.15,23.37 148.33,23.08 148.50,22.65 148.68,23.30 148.86,23.04 149.03,22.79 149.21,23.26 149.38,22.89 149.56,23.12 149.74,22.67 149.91,23.19 150.09,22.94 150.26,23.11 150.44,23.09 150.62,22.89 150.79,23.50 150.97,23.06 151.14,24.13 151.32,24.39 151.50,23.68 151.67,23.77 151.85,23.39 152.02,23.39 152.20,23.01 152.38,23.33 152.55,23.01 152.73,22.74 152.90,23.75 153.08,23.60 153.26,24.70 153.43,24.05 153.61,23.59 153.78,23.06 153.96,23.65 154.14,23.04 154.31,22.53 154.49,23.11 154.66,22.67 154.84,21.73 155.02,21.38 155.19,20.99 155.37,20.61 155.54,20.30 155.72,20.07 155.90,19.84 156.07,19.83 156.25,19.88 156.42,19.90 156.60,20.03 156.78,20.21 156.95,20.02 157.13,20.05 157.30,20.22 157.48,19.81 157.66,20.07 157.83,19.56 158.01,20.02 158.18,19.21 158.36,19.38 158.54,18.32 158.71,17.30 158.89,17.06 159.06,16.15 159.24,15.71 159.42,14.92 159.59,14.96 159.77,14.55 159.94,14.16 160.12,14.16 160.30,13.70 160.47,14.31 160.65,14.93 160.82,14.10 161.00,16.27 161.18,16.03 161.35,14.94 161.53,15.33 161.70,14.54 161.88,15.45 162.06,16.66 162.23,16.03 162.41,15.68 162.58,14.49 162.76,13.91 162.94,13.51 163.11,12.94 163.29,12.32 163.46,12.49 163.64,11.78 163.82,12.06 163.99,11.18 164.17,11.84 164.34,13.94 164.52,15.30 164.70,17.50 164.87,18.51 165.05,18.11 165.22,17.55 165.40,18.30 165.58,18.30 165.75,19.21 165.93,18.52 166.10,18.87 166.28,18.18 166.46,18.27 166.63,17.52 166.81,18.33 166.98,18.25 167.16,19.05 167.34,18.54 167.51,18.01 167.69,18.91 167.86,18.54 168.04,17.26 168.22,18.26 168.39,16.15 168.57,15.23 168.75,13.68 168.92,12.32 169.10,11.69 169.27,10.57 169.45,10.57 169.63,9.79 169.80,9.44 169.98,8.77 170.15,8.65 170.33,8.58 170.51,9.56 170.68,8.59 170.86,8.70 171.03,9.59 171.21,9.61 171.39,9.66 171.56,9.66 171.74,9.58 171.91,9.88 172.09,10.26 172.27,9.69 172.44,9.77 172.62,9.13 172.79,9.21 172.97,9.43 173.15,8.76 173.32,8.66 173.50,9.17 173.67,9.00 173.85,8.82 174.03,8.61 174.20,8.42 174.38,8.42 174.55,8.76 174.73,8.83 174.91,8.82 175.08,8.82 175.26,8.82 175.43,8.65 175.61,9.17 175.79,9.07 175.96,9.40 176.14,9.42 176.31,9.48 176.49,9.95 176.67,9.89 176.84,9.02 177.02,9.49 177.19,8.95 177.37,9.46 177.55,8.97 177.72,9.44 177.90,8.88 178.07,8.21 178.25,7.23 178.43,7.22 178.60,6.78 178.78,6.61 178.95,5.81 179.13,6.56 179.31,6.55 179.48,5.81 179.66,5.95 179.83,6.26 180.01,5.62 180.19,6.58 180.36,6.87 180.54,6.18 180.71,6.54 180.89,6.63 181.07,6.91 181.24,5.99 181.42,6.37 181.59,6.73 181.77,7.01 181.95,7.05 182.12,7.04 182.30,7.04 182.47,7.04 182.65,7.01 182.83,6.96 183.00,7.42 183.18,7.31 183.35,7.78 183.53,7.73 183.71,8.27 183.88,8.78 184.06,8.71 184.23,9.35 184.41,9.93 184.59,9.93 184.76,10.34 184.94,10.21 185.11,10.06 185.29,10.51 185.47,10.37 185.64,10.87 185.82,10.75 185.99,11.20 186.17,11.20 186.35,11.67 186.52,11.55 186.70,11.96 186.87,11.77 187.05,12.21 187.23,12.05 187.40,11.92 187.58,11.84 187.75,12.50 187.93,12.47 188.11,12.36 188.28,12.36 188.46,12.94 188.63,12.86 188.81,12.82 188.99,12.78 189.16,12.71 189.34,13.39 189.51,13.30 189.69,13.19 189.87,13.78 190.04,13.65 190.22,14.32 190.39,14.23 190.57,13.98 190.75,14.54 190.92,14.54 191.10,14.48 191.27,15.09 191.45,15.16 191.63,15.24 191.80,15.32 191.98,15.99 192.15,16.19 192.33,16.36 192.51,16.46 192.68,17.13 192.86,17.13 193.03,17.10 193.21,17.08 193.39,17.81 193.56,17.88 193.74,17.99 193.91,18.10 194.09,18.22 194.27,18.37 194.44,18.54 194.62,18.74 194.79,18.74 194.97,18.97 195.15,18.51 195.32,18.88 195.50,19.37 195.67,19.79 195.85,19.98 196.03,19.34 196.20,19.53 196.38,19.65 196.55,20.05 196.73,19.44 196.91,19.39 197.08,20.00 197.26,19.49 197.43,19.67 197.61,20.25 197.79,20.51 197.96,20.76 198.14,20.55 198.31,20.99 198.49,21.08 198.67,20.99 198.84,55.64 199.02,55.64 199.19,55.64 199.37,54.20 199.55,54.20 199.72,54.20 199.90,53.79 200.07,53.79 200.25,53.79 200.43,53.79 200.60,52.56 200.78,52.56 200.95,52.56 201.13,53.51 201.31,51.57 201.48,51.57 201.66,51.57 201.83,52.21 202.01,50.93 202.19,50.93 202.36,50.93 202.54,52.12 202.71,52.60 202.89,52.60 203.07,52.60 203.24,54.32 203.42,54.32 203.59,51.53 203.77,51.53 203.95,51.53 204.12,53.39 204.30,52.51 204.47,52.51 204.65,52.51 204.83,50.13 205.00,50.13 205.18,50.13 205.36,47.16 205.53,47.16 205.71,47.84 205.88,47.84 206.06,47.84 206.24,46.18 206.41,46.18 206.59,46.18 206.76,46.54 206.94,46.54 207.12,46.54 207.29,48.03 207.47,44.38 207.64,44.38 207.82,45.22 208.00,45.22 208.17,45.22 208.35,42.48 208.52,42.48 208.70,42.48 208.88,44.23 209.05,44.23 209.23,44.23 209.40,42.30 209.58,42.30 209.76,42.30 209.93,40.95 210.11,40.95 210.28,42.58 210.46,42.58 210.64,42.58 210.81,40.40 210.99,40.40 211.16,40.40 211.34,41.29 211.52,41.29 211.69,41.29 211.87,39.28 212.04,40.42 212.22,40.42 212.40,40.42 212.57,39.21 212.75,39.21 212.92,38.75 213.10,38.75 213.28,38.75 213.45,39.17 213.63,39.17 213.80,40.23 213.98,37.12 214.16,37.12 214.33,37.72 214.51,37.72 214.68,37.72 214.86,37.75 215.04,37.75 215.21,34.90 215.39,35.21 215.56,35.21 215.74,35.21 215.92,36.24 216.09,36.24 216.27,34.20 216.44,36.94 216.62,36.94 216.80,36.94 216.97,34.56 217.15,34.56 217.32,34.56 217.50,31.84 217.68,31.84 217.85,34.99 218.03,32.02 218.20,32.02 218.38,32.02 218.56,28.98 218.73,28.98 218.91,28.98 219.08,31.90 219.26,28.63 219.44,28.63 219.61,28.63 219.79,31.91 219.96,31.91 220.14,28.77 220.32,29.41 220.49,29.41 220.67,27.22 220.84,27.22 221.02,27.22 221.20,26.73 221.37,26.73 221.55,26.73 221.72,28.56 221.90,28.56 222.08,28.56 222.25,28.56 222.43,30.10 222.60,30.10 222.78,30.10 222.96,29.69 223.13,29.69 223.31,30.69 223.48,30.69 223.66,30.69 223.84,32.48 224.01,29.65 224.19,29.65 224.36,29.65 224.54,31.60 224.72,28.98 224.89,28.98 225.07,31.31 225.24,31.31 225.42,31.31 225.60,33.90 225.77,33.90 225.95,32.00 226.12,35.33 226.30,35.33 226.48,35.33 226.65,35.33 226.83,37.36 227.00,37.36 227.18,37.36 227.36,35.30 227.53,35.30 227.71,35.30 227.88,32.71 228.06,32.71 228.24,32.71 228.41,33.93 228.59,33.93 228.76,33.93 228.94,32.07 229.12,32.07 229.29,32.07 229.47,32.07 229.64,30.53 229.82,30.53 230.00,30.53 230.17,29.42 230.35,29.42 230.52,29.42 230.70,28.32 230.88,28.32 231.05,28.32 231.23,27.11 231.40,27.11 231.58,27.11 231.76,25.40 231.93,25.40 232.11,25.40 232.28,25.40 232.46,25.40 232.64,25.03 232.81,25.03 232.99,25.03 233.16,26.87 233.34,26.87 233.52,26.43 233.69,26.43 233.87,28.50 234.04,27.34 234.22,27.34 234.40,27.34 234.57,26.47 234.75,26.47 234.92,26.47 235.10,25.91 235.28,25.91 235.45,25.91 235.63,25.35 235.80,25.35 235.98,25.35 236.16,26.76 236.33,26.64 236.51,26.64 236.68,26.64 236.86,26.47 237.04,26.47 237.21,26.47 237.39,26.33 237.56,26.33 237.74,26.33 237.92,25.85 238.09,25.85 238.27,25.85 238.44,25.88 238.62,25.88 238.80,25.88 238.97,24.42 239.15,25.91 239.32,25.91 239.50,25.91 239.68,26.25 239.85,27.34 240.03,27.34 240.20,27.34 240.38,28.48 240.56,28.30 240.73,28.30 240.91,28.30 241.08,28.30 241.26,28.67 241.44,28.67 241.61,28.67 241.79,29.95 241.97,29.95 242.14,31.09 242.32,31.09 242.49,31.09 242.67,32.48 242.85,29.21 243.02,29.21 243.20,29.21 243.37,29.21 243.55,28.63 243.73,28.63 243.90,28.63 244.08,26.14 244.25,23.91 244.43,23.91 244.61,23.54 244.78,23.54 244.96,22.39 245.13,22.39 245.31,22.39 245.49,21.80 245.66,21.80 245.84,21.48 246.01,23.15 246.19,23.15 246.37,22.32 246.54,22.32 246.72,22.32 246.89,21.71 247.07,21.71 247.25,22.64 247.42,22.64 247.60,22.64 247.77,23.06 247.95,23.06 248.13,23.06 248.30,22.25 248.48,22.25 248.65,24.90 248.83,24.90 249.01,23.27 249.18,23.27 249.36,23.27 249.53,23.27 249.71,22.89 249.89,22.89 250.06,22.89 250.24,22.07 250.41,22.07 250.59,22.07 250.77,20.94 250.94,20.94 251.12,19.48 251.29,23.09 251.47,23.09 251.65,21.57 251.82,21.57 252.00,21.57 252.17,20.37 252.35,20.37 252.53,19.83 252.70,19.83 252.88,19.83 253.05,20.03 253.23,20.03 253.41,20.65 253.58,20.65 253.76,20.65 253.93,21.62 254.11,21.62 254.29,20.13 254.46,20.62 254.64,20.62 254.81,20.62 254.99,21.85 255.17,21.85 255.34,23.80 255.52,19.51 255.69,19.51 255.87,19.51 256.05,19.35 256.22,19.35 256.40,16.51 256.57,15.31 256.75,15.31 256.93,15.31 257.10,14.84 257.28,12.78 257.45,12.78 257.63,12.78 257.81,13.31 257.98,13.31 258.16,13.31 258.33,14.41 258.51,14.41 258.69,14.41 258.86,13.23 259.04,13.23 259.21,16.62 259.39,16.62 259.57,14.65 259.74,14.65 259.92,14.65 260.09,13.11 260.27,13.11 260.45,13.11 260.62,11.10 260.80,11.10 260.97,11.10 261.15,10.81 261.33,10.81 261.50,10.81 261.68,10.81 261.85,14.93 262.03,14.93 262.21,14.93 262.38,17.56 262.56,17.06 262.73,17.06 262.91,19.29 263.09,19.29 263.26,19.29 263.44,17.00 263.61,17.00 263.79,19.66 263.97,17.27 264.14,17.27 264.32,17.27 264.49,19.85 264.67,19.85 264.85,16.29 265.02,18.84 265.20,18.84 265.37,18.84 265.55,18.84 265.73,15.36 265.90,15.36 266.08,15.36 266.25,11.01 266.43,11.01 266.61,11.01 266.78,11.01 266.96,8.93 267.13,8.97 267.31,8.97 267.49,6.82 267.66,6.82 267.84,8.68 268.01,8.68 268.19,6.64 268.37,6.64 268.54,9.16 268.72,9.16 268.89,9.16 269.07,7.53 269.25,8.67 269.42,8.67 269.60,8.67 269.77,9.12 269.95,9.12 270.13,9.12 270.30,9.38 270.48,7.28 270.65,7.28 270.83,9.19 271.01,9.19 271.18,9.19 271.36,8.63 271.53,8.63 271.71,8.63 271.89,8.63 272.06,7.76 272.24,9.38 272.41,9.38 272.59,9.38 272.77,7.63 272.94,9.11 273.12,9.11 273.29,9.11 273.47,10.34 273.65,9.03 273.82,9.03 274.00,10.28 274.17,10.28 274.35,10.28 274.53,7.95 274.70,9.43 274.88,9.43 275.05,9.43 275.23,10.73 275.41,8.44 275.58,6.71 275.76,6.71 275.93,6.25 276.11,6.25 276.29,4.16 276.46,4.16 276.64,5.90 276.81,5.90 276.99,4.00 277.17,4.00 277.34,4.00 277.52,6.58 277.69,4.71 277.87,4.71 278.05,4.71 278.22,4.88 278.40,4.88 278.58,4.88 278.75,4.88 278.93,6.14 279.10,6.14 279.28,6.14 279.46,6.57 279.63,6.57 279.81,6.57 279.98,6.54 280.16,6.54 280.34,6.54 280.51,6.29 280.69,7.85 280.86,7.85 281.04,7.85 281.22,7.67 281.39,7.67 281.57,9.37 281.74,9.25 281.92,9.25 282.10,9.25 282.27,9.25 282.45,8.89 282.62,10.64 282.80,10.64 282.98,10.25 283.15,10.25 283.33,10.25 283.50,10.25 283.68,11.64 283.86,11.64 284.03,11.64 284.21,11.21 284.38,11.21 284.56,11.21 284.74,10.81 284.91,10.81 285.09,12.61 285.26,12.44 285.44,12.44 285.62,12.44 285.79,12.44 285.97,12.22 286.14,12.22 286.32,12.22 286.50,12.07 286.67,12.07 286.85,12.07 287.02,11.91 287.20,13.90 287.38,13.90 287.55,13.60 287.73,13.60 287.90,13.60 288.08,13.34 288.26,13.34 288.43,13.34 288.61,15.16 288.78,15.14 288.96,15.14 289.14,15.14 289.31,15.44 289.49,15.44 289.66,15.44 289.84,15.76 290.02,15.76 290.19,15.76 290.37,15.77 290.54,15.77 290.72,17.74 290.90,17.86 291.07,17.86 291.25,17.86 291.42,18.21 291.60,18.21 291.78,18.21 291.95,18.73 292.13,18.73 292.30,18.73 292.48,16.67 292.66,17.49 292.83,17.49 293.01,17.49 293.18,18.38 293.36,18.38 293.54,18.38 293.71,18.81 293.89,18.81 294.06,18.81 294.24,19.48 294.42,19.48 294.59,19.48 294.77,19.48 294.94,21.11 295.12,19.97 295.30,19.97 295.47,19.97 295.65,21.48 295.82,20.82 296.00,20.82" />
</svg>