<svg width="300" height="60" xmlns="http://www.w3.org/2000/svg">
  <polyline fill="rgba(255,200,0,0.3)" stroke="#ffbb00" stroke-width="2" points="4.00,34.53 4.89,40.41 5.79,41.71 6.68,41.92 7.57,41.63 8.46,39.74 9.36,37.08 10.25,34.98 11.14,33.26 12.04,32.07 12.93,30.47 13.82,29.82 14.72,29.01 15.61,27.68 16.50,26.59 17.39,24.18 18.29,24.60 19.18,25.68 20.07,25.74 20.97,26.41 21.86,26.54 22.75,25.75 23.65,24.44 24.54,24.95 25.43,27.22 26.32,30.13 27.22,33.81 28.11,39.64 29.00,43.15 29.90,47.12 30.79,49.32 31.68,52.23 32.57,53.86 33.47,54.63 34.36,55.31 35.25,54.47 36.15,52.82 37.04,50.29 37.93,47.04 38.83,45.22 39.72,44.56 40.61,41.41 41.50,39.73 42.40,37.11 43.29,34.90 44.18,33.27 45.08,31.64 45.97,30.14 46.86,28.57 47.76,25.29 48.65,22.96 49.54,22.55 50.43,23.29 51.33,24.17 52.22,25.75 53.11,27.68 54.01,30.21 54.90,32.23 55.79,33.44 56.69,32.58 57.58,31.02 58.47,26.89 59.36,22.68 60.26,18.80 61.15,16.39 62.04,16.06 62.94,16.22 63.83,16.33 64.72,17.52 65.61,18.36 66.51,18.91 67.40,19.60 68.29,22.39 69.19,26.40 70.08,31.46 70.97,35.99 71.87,39.27 72.76,43.25 73.65,45.84 74.54,47.40 75.44,48.38 76.33,49.23 77.22,35.20 78.12,41.00 79.01,41.88 79.90,42.41 80.80,42.04 81.69,40.52 82.58,36.54 83.47,34.93 84.37,33.55 85.26,32.37 86.15,31.42 87.05,30.12 87.94,29.57 88.83,28.81 89.72,26.54 90.62,26.38 91.51,25.75 92.40,26.17 93.30,26.25 94.19,26.91 95.08,26.91 95.98,26.11 96.87,25.04 97.76,25.58 98.65,27.11 99.55,30.71 100.44,34.61 101.33,39.19 102.23,42.51 103.12,47.47 104.01,50.41 104.91,52.47 105.80,54.29 106.69,55.47 107.58,56.00 108.48,54.46 109.37,53.47 110.26,49.43 111.16,46.60 112.05,44.85 112.94,44.74 113.83,41.61 114.73,39.65 115.62,36.83 116.51,35.61 117.41,33.92 118.30,32.81 119.19,30.52 120.09,29.38 120.98,25.68 121.87,23.78 122.76,23.02 123.66,24.29 124.55,25.67 125.44,26.66 126.34,28.99 127.23,31.87 128.12,32.87 129.02,33.64 129.91,32.80 130.80,30.79 131.69,26.73 132.59,22.04 133.48,18.14 134.37,15.54 135.27,16.81 136.16,17.88 137.05,18.05 137.94,18.56 138.84,19.10 139.73,19.92 140.62,20.38 141.52,22.67 142.41,27.66 143.30,31.55 144.20,36.94 145.09,40.38 145.98,44.12 146.87,45.51 147.77,47.61 148.66,48.46 149.55,48.76 150.45,36.12 151.34,38.64 152.23,40.73 153.13,41.34 154.02,42.26 154.91,40.19 155.80,32.63 156.70,33.32 157.59,31.03 158.48,29.79 159.38,30.25 160.27,29.18 161.16,24.52 162.06,28.34 162.95,27.12 163.84,25.90 164.73,21.93 165.63,26.13 166.52,26.59 167.41,26.55 168.31,23.57 169.20,25.63 170.09,24.41 170.98,25.09 171.88,27.31 172.77,29.98 173.66,33.96 174.56,36.48 175.45,40.86 176.34,45.14 177.24,48.96 178.13,49.64 179.02,52.85 179.91,54.38 180.81,55.07 181.70,54.39 182.59,52.86 183.49,50.42 184.38,44.11 185.27,42.59 186.17,42.74 187.06,38.31 187.95,38.57 188.84,34.90 189.74,32.84 190.63,34.29 191.52,32.61 192.42,28.64 193.31,25.97 194.20,24.06 195.09,24.06 195.99,21.62 196.88,23.91 197.77,25.90 198.67,21.16 199.56,26.75 200.45,26.91 201.35,31.19 202.24,28.97 203.13,31.49 204.02,27.29 204.92,24.62 205.81,18.20 206.70,12.47 207.60,15.60 208.49,16.21 209.38,14.31 210.28,17.59 211.17,16.83 212.06,16.29 212.95,19.05 213.85,18.36 214.74,22.03 215.63,26.76 216.53,28.14 217.42,33.41 218.31,38.22 219.20,41.19 220.10,43.40 220.99,46.84 221.88,48.75 222.78,53.64 223.67,30.96 224.56,30.96 225.46,38.83 226.35,38.83 227.24,42.12 228.13,39.75 229.03,39.75 229.92,30.20 230.81,30.20 231.71,30.20 232.60,27.07 233.49,27.07 234.39,17.52 235.28,17.52 236.17,22.99 237.06,22.99 237.96,16.12 238.85,16.12 239.74,24.06 240.64,24.06 241.53,24.37 242.42,24.37 243.31,24.98 244.21,24.98 245.10,24.98 245.99,26.65 246.89,26.65 247.78,26.65 248.67,37.04 249.57,37.04 250.46,37.04 251.35,48.88 252.24,48.88 253.14,47.05 254.03,47.05 254.92,47.05 255.82,45.67 256.71,45.67 257.60,45.67 258.50,39.87 259.39,39.87 260.28,38.49 261.17,38.49 262.07,29.02 262.96,29.02 263.85,31.08 264.75,31.08 265.64,20.31 266.53,20.31 267.43,25.28 268.32,25.28 269.21,16.87 270.10,16.87 271.00,16.87 271.89,11.99 272.78,17.18 273.68,17.18 274.57,17.18 275.46,27.19 276.35,27.19 277.25,22.22 278.14,22.22 279.03,22.22 279.93,7.02 280.82,18.71 281.71,18.71 282.61,5.91 283.50,5.91 284.39,5.91 285.28,15.92 286.18,15.92 287.07,4.00 287.96,15.46 288.86,15.46 289.75,15.46 290.64,30.66 291.54,30.66 292.43,30.66 293.32,36.24 294.21,36.24 295.11,36.24 296.00,48.69" />
</svg>