<svg width="300" height="60" xmlns="http://www.w3.org/2000/svg">
  <polyline fill="rgba(255,200,0,0.3)" stroke="#ffbb00" stroke-width="2" points="4.00,7.16 4.35,7.03 4.71,6.46 5.06,5.86 5.41,5.86 5.76,6.17 6.12,7.00 6.47,8.22 6.82,8.81 7.17,9.12 7.53,10.69 7.88,11.74 8.23,12.72 8.58,13.41 8.94,13.94 9.29,14.34 9.64,14.54 10.00,14.69 10.35,14.93 10.70,15.13 11.05,14.99 11.41,14.54 11.76,14.07 12.11,13.73 12.46,13.44 12.82,13.32 13.17,13.29 13.52,13.22 13.87,12.96 14.23,13.02 14.58,12.91 14.93,12.62 15.29,12.43 15.64,12.30 15.99,12.28 16.34,12.17 16.70,12.36 17.05,12.66 17.40,12.92 17.75,13.06 18.11,13.41 18.46,13.72 18.81,13.97 19.16,13.73 19.52,13.76 19.87,13.91 20.22,14.07 20.57,14.55 20.93,15.20 21.28,15.83 21.63,16.79 21.99,17.35 22.34,17.84 22.69,18.29 23.04,18.86 23.40,19.59 23.75,20.03 24.10,20.71 24.45,21.20 24.81,21.57 25.16,21.73 25.51,21.75 25.86,21.65 26.22,21.53 26.57,21.49 26.92,21.62 27.28,21.96 27.63,22.40 27.98,22.55 28.33,23.75 28.69,24.99 29.04,26.03 29.39,27.00 29.74,28.05 30.10,29.10 30.45,30.12 30.80,31.01 31.15,31.20 31.51,31.20 31.86,31.12 32.21,30.92 32.57,30.64 32.92,30.61 33.27,30.81 33.62,31.41 33.98,32.23 34.33,33.08 34.68,34.03 35.03,34.60 35.39,35.21 35.74,35.87 36.09,36.28 36.44,36.58 36.80,36.67 37.15,36.31 37.50,35.98 37.86,35.80 38.21,36.14 38.56,36.25 38.91,36.23 39.27,36.16 39.62,35.87 39.97,35.36 40.32,34.98 40.68,35.35 41.03,36.29 41.38,37.29 41.73,38.32 42.09,39.45 42.44,40.53 42.79,41.72 43.14,42.80 43.50,43.72 43.85,44.55 44.20,44.63 44.56,44.13 44.91,42.66 45.26,41.32 45.61,41.08 45.97,41.66 46.32,41.93 46.67,41.89 47.02,41.86 47.38,42.37 47.73,43.18 48.08,44.16 48.43,44.84 48.79,45.66 49.14,46.56 49.49,47.31 49.85,47.70 50.20,47.69 50.55,47.37 50.90,46.80 51.26,45.85 51.61,44.79 51.96,43.85 52.31,43.18 52.67,42.75 53.02,42.14 53.37,41.90 53.72,41.34 54.08,41.49 54.43,42.26 54.78,42.94 55.14,43.06 55.49,43.11 55.84,43.30 56.19,43.79 56.55,44.51 56.90,44.81 57.25,44.03 57.60,43.04 57.96,42.49 58.31,42.05 58.66,41.72 59.01,41.34 59.37,40.76 59.72,40.04 60.07,39.42 60.43,38.97 60.78,38.25 61.13,37.41 61.48,35.88 61.84,34.39 62.19,33.23 62.54,32.44 62.89,32.12 63.25,32.26 63.60,32.63 63.95,33.10 64.30,33.83 64.66,34.88 65.01,35.67 65.36,36.20 65.71,36.48 66.07,36.32 66.42,36.17 66.77,35.94 67.13,35.96 67.48,36.49 67.83,37.15 68.18,37.95 68.54,38.32 68.89,38.38 69.24,38.48 69.59,39.12 69.95,40.23 70.30,41.62 70.65,42.95 71.00,44.14 71.36,45.14 71.71,46.00 72.06,47.37 72.42,48.67 72.77,50.01 73.12,51.82 73.47,53.24 73.83,53.72 74.18,53.75 74.53,53.00 74.88,52.43 75.24,51.97 75.59,51.69 75.94,51.75 76.29,52.04 76.65,36.12 77.00,36.21 77.35,36.15 77.71,36.04 78.06,35.37 78.41,34.90 78.76,35.31 79.12,36.26 79.47,37.09 79.82,38.13 80.17,39.48 80.53,40.54 80.88,41.78 81.23,42.84 81.58,43.49 81.94,44.69 82.29,44.89 82.64,44.22 83.00,42.75 83.35,41.70 83.70,41.22 84.05,41.75 84.41,41.97 84.76,42.04 85.11,41.71 85.46,42.25 85.82,43.07 86.17,44.04 86.52,44.77 86.87,45.55 87.23,46.73 87.58,47.29 87.93,47.77 88.29,47.77 88.64,47.36 88.99,46.78 89.34,46.16 89.70,44.76 90.05,43.80 90.40,43.64 90.75,42.88 91.11,42.33 91.46,42.18 91.81,41.82 92.16,41.62 92.52,42.14 92.87,43.00 93.22,43.16 93.57,43.36 93.93,43.34 94.28,43.57 94.63,44.23 94.99,44.83 95.34,44.27 95.69,43.08 96.04,42.58 96.40,41.70 96.75,41.79 97.10,41.56 97.45,40.58 97.81,40.22 98.16,39.66 98.51,38.98 98.86,38.85 99.22,37.47 99.57,35.92 99.92,34.45 100.28,33.41 100.63,32.53 100.98,32.19 101.33,32.24 101.69,32.35 102.04,32.80 102.39,33.68 102.74,34.48 103.10,35.55 103.45,35.95 103.80,36.18 104.15,36.36 104.51,36.35 104.86,35.98 105.21,36.13 105.57,36.62 105.92,37.25 106.27,38.28 106.62,38.51 106.98,38.27 107.33,38.49 107.68,39.13 108.03,40.26 108.39,41.48 108.74,43.05 109.09,44.23 109.44,45.29 109.80,45.90 110.15,46.92 110.50,48.35 110.86,49.97 111.21,51.42 111.56,52.81 111.91,53.57 112.27,53.84 112.62,53.15 112.97,52.51 113.32,52.11 113.68,51.74 114.03,51.78 114.38,52.06 114.73,7.23 115.09,7.20 115.44,6.61 115.79,6.04 116.14,5.88 116.50,6.31 116.85,6.92 117.20,8.14 117.56,9.13 117.91,9.36 118.26,10.91 118.61,11.83 118.97,12.69 119.32,13.32 119.67,13.85 120.02,14.35 120.38,14.58 120.73,14.66 121.08,14.80 121.43,15.10 121.79,14.94 122.14,14.35 122.49,14.07 122.85,13.64 123.20,13.46 123.55,13.26 123.90,13.28 124.26,13.20 124.61,13.07 124.96,13.04 125.31,12.93 125.67,12.59 126.02,12.54 126.37,12.38 126.72,12.38 127.08,12.22 127.43,12.40 127.78,12.78 128.14,13.09 128.49,13.30 128.84,13.59 129.19,13.72 129.55,14.12 129.90,14.15 130.25,14.00 130.60,14.27 130.96,14.38 131.31,14.57 131.66,15.27 132.01,15.66 132.37,16.44 132.72,17.21 133.07,17.73 133.43,18.23 133.78,18.77 134.13,19.51 134.48,19.60 134.84,20.34 135.19,21.08 135.54,21.67 135.89,21.89 136.25,21.88 136.60,21.97 136.95,21.61 137.30,21.52 137.66,21.55 138.01,22.00 138.36,22.42 138.71,22.60 139.07,24.04 139.42,24.73 139.77,25.97 140.13,27.07 140.48,27.86 140.83,28.70 141.18,30.05 141.54,31.16 141.89,31.48 142.24,31.75 142.59,31.40 142.95,31.06 143.30,31.27 143.65,30.89 144.00,30.89 144.36,31.34 144.71,32.22 145.06,33.13 145.42,34.15 145.77,34.94 146.12,35.28 146.47,36.06 146.83,36.42 147.18,36.60 147.53,36.69 147.88,36.42 148.24,36.10 148.59,35.88 148.94,36.22 149.29,36.11 149.65,36.21 150.00,36.15 150.35,36.03 150.71,35.37 151.06,7.14 151.41,7.14 151.76,6.71 152.12,6.03 152.47,5.38 152.82,6.13 153.17,7.16 153.53,8.43 153.88,9.24 154.23,9.27 154.58,10.62 154.94,11.70 155.29,12.93 155.64,13.25 156.00,13.86 156.35,14.41 156.70,14.73 157.05,14.91 157.41,14.91 157.76,15.00 158.11,15.09 158.46,14.35 158.82,14.32 159.17,13.67 159.52,13.71 159.87,13.35 160.23,13.33 160.58,13.26 160.93,13.26 161.29,13.19 161.64,12.92 161.99,12.56 162.34,12.24 162.70,12.00 163.05,12.54 163.40,12.41 163.75,12.36 164.11,12.27 164.46,13.40 164.81,13.13 165.16,12.70 165.52,13.79 165.87,13.02 166.22,14.65 166.57,14.04 166.93,13.77 167.28,14.81 167.63,14.85 167.99,15.31 168.34,15.96 168.69,16.79 169.04,17.49 169.40,17.70 169.75,18.35 170.10,19.10 170.45,20.00 170.81,20.03 171.16,20.84 171.51,21.30 171.86,21.50 172.22,21.48 172.57,21.46 172.92,21.52 173.28,21.75 173.63,22.27 173.98,20.99 174.33,21.80 174.69,22.68 175.04,22.21 175.39,23.70 175.74,25.17 176.10,26.68 176.45,27.77 176.80,28.33 177.15,29.66 177.51,31.39 177.86,30.94 178.21,32.47 178.57,32.25 178.92,31.32 179.27,31.80 179.62,32.09 179.98,30.71 180.33,31.41 180.68,31.41 181.03,32.21 181.39,33.16 181.74,34.11 182.09,34.85 182.44,35.48 182.80,36.30 183.15,36.42 183.50,37.01 183.86,36.69 184.21,36.69 184.56,35.90 184.91,35.94 185.27,35.94 185.62,36.39 185.97,35.65 186.32,35.42 186.68,35.90 187.03,34.81 187.38,34.44 187.73,35.57 188.09,35.50 188.44,37.53 188.79,38.14 189.14,39.11 189.50,40.38 189.85,41.73 190.20,43.00 190.56,44.30 190.91,44.95 191.26,45.00 191.61,44.16 191.97,42.51 192.32,41.72 192.67,41.48 193.02,41.75 193.38,41.92 193.73,41.65 194.08,41.36 194.43,42.22 194.79,43.48 195.14,43.71 195.49,45.04 195.85,45.88 196.20,47.25 196.55,47.25 196.90,47.91 197.26,47.64 197.61,46.14 197.96,45.75 198.31,45.08 198.67,43.83 199.02,42.39 199.37,43.16 199.72,41.58 200.08,42.08 200.43,40.58 200.78,41.55 201.14,40.80 201.49,40.65 201.84,42.79 202.19,42.29 202.55,43.24 202.90,43.23 203.25,43.23 203.60,44.34 203.96,44.97 204.31,43.23 204.66,42.46 205.01,42.37 205.37,41.11 205.72,41.11 206.07,41.42 206.43,40.93 206.78,40.20 207.13,39.70 207.48,39.14 207.84,38.66 208.19,37.10 208.54,35.07 208.89,34.26 209.25,33.49 209.60,32.39 209.95,32.18 210.30,32.25 210.66,32.52 211.01,32.95 211.36,33.49 211.71,34.71 212.07,36.94 212.42,37.28 212.77,37.26 213.13,36.92 213.48,36.51 213.83,36.58 214.18,36.24 214.54,37.29 214.89,36.48 215.24,36.93 215.59,37.15 215.95,37.20 216.30,38.67 216.65,38.51 217.00,39.47 217.36,41.84 217.71,43.11 218.06,44.49 218.42,44.42 218.77,45.68 219.12,47.11 219.47,48.30 219.83,50.42 220.18,52.50 220.53,52.50 220.88,53.85 221.24,53.67 221.59,53.11 221.94,52.52 222.29,52.14 222.65,51.89 223.00,52.06 223.35,52.60 223.71,5.26 224.06,5.26 224.41,5.26 224.76,4.00 225.12,4.00 225.47,6.26 225.82,6.01 226.17,6.01 226.53,9.31 226.88,9.31 227.23,9.11 227.58,9.11 227.94,12.72 228.29,12.72 228.64,12.72 229.00,12.90 229.35,15.23 229.70,15.23 230.05,15.23 230.41,16.79 230.76,16.79 231.11,14.96 231.46,14.91 231.82,14.91 232.17,14.91 232.52,14.91 232.87,14.23 233.23,14.23 233.58,13.56 233.93,12.73 234.29,12.73 234.64,12.73 234.99,11.91 235.34,11.91 235.70,11.91 236.05,11.12 236.40,11.12 236.75,11.12 237.11,9.93 237.46,9.93 237.81,9.93 238.16,12.91 238.52,12.91 238.87,12.91 239.22,12.91 239.57,13.77 239.93,13.77 240.28,13.77 240.63,17.29 240.99,17.29 241.34,17.29 241.69,21.49 242.04,18.35 242.40,18.35 242.75,20.77 243.10,20.77 243.45,20.77 243.81,21.24 244.16,21.24 244.51,21.24 244.86,20.61 245.22,20.61 245.57,20.61 245.92,21.88 246.28,21.88 246.63,21.88 246.98,21.88 247.33,25.04 247.69,22.08 248.04,22.08 248.39,26.46 248.74,26.46 249.10,26.46 249.45,31.09 249.80,31.09 250.15,31.09 250.51,28.15 250.86,31.18 251.21,31.18 251.57,31.18 251.92,32.88 252.27,32.88 252.62,30.04 252.98,32.93 253.33,32.93 253.68,32.93 254.03,32.93 254.39,35.44 254.74,35.44 255.09,35.44 255.44,37.38 255.80,37.38 256.15,37.38 256.50,37.36 256.86,37.36 257.21,37.60 257.56,35.77 257.91,35.77 258.27,35.77 258.62,35.77 258.97,34.06 259.32,34.06 259.68,34.06 260.03,37.15 260.38,37.15 260.73,38.19 261.09,38.19 261.44,38.19 261.79,41.68 262.14,41.68 262.50,41.68 262.85,45.16 263.20,45.16 263.56,45.52 263.91,42.88 264.26,42.88 264.61,42.88 264.97,42.88 265.32,42.52 265.67,42.52 266.02,42.52 266.38,44.78 266.73,44.44 267.08,44.44 267.43,44.44 267.79,44.44 268.14,48.33 268.49,48.33 268.85,48.33 269.20,48.33 269.55,48.15 269.90,45.84 270.26,45.84 270.61,45.84 270.96,42.45 271.31,42.45 271.67,42.45 272.02,38.46 272.37,38.46 272.72,38.46 273.08,36.20 273.43,41.17 273.78,41.17 274.14,41.66 274.49,41.66 274.84,44.71 275.19,44.71 275.55,41.62 275.90,41.62 276.25,45.48 276.60,45.48 276.96,42.93 277.31,42.93 277.66,42.93 278.01,43.01 278.37,43.01 278.72,43.01 279.07,43.01 279.43,40.14 279.78,40.14 280.13,40.14 280.48,36.39 280.84,36.39 281.19,34.12 281.54,34.12 281.89,34.12 282.25,33.12 282.60,33.12 282.95,33.80 283.30,33.80 283.66,33.80 284.01,35.43 284.36,35.43 284.71,42.88 285.07,42.88 285.42,42.88 285.77,38.23 286.13,38.23 286.48,38.23 286.83,37.14 287.18,37.14 287.54,38.54 287.89,38.54 288.24,38.54 288.59,38.97 288.95,38.97 289.30,38.97 289.65,41.32 290.00,41.32 290.36,45.11 290.71,45.11 291.06,45.11 291.42,48.86 291.77,48.86 292.12,48.86 292.47,54.85 292.83,54.85 293.18,54.85 293.53,54.85 293.88,55.07 294.24,55.07 294.59,55.07 294.94,54.51 295.29,54.51 295.65,56.00 296.00,56.00" />
</svg>