<svg width="300" height="60" xmlns="http://www.w3.org/2000/svg">
  <polyline fill="rgba(255,200,0,0.3)" stroke="#ffbb00" stroke-width="2" points="4.00,55.99 4.06,55.97 4.11,55.92 4.17,55.88 4.23,55.89 4.28,55.90 4.34,55.92 4.40,55.90 4.45,55.90 4.51,55.88 4.57,55.86 4.62,55.82 4.68,55.80 4.74,55.79 4.79,55.77 4.85,55.77 4.91,55.76 4.96,55.75 5.02,55.76 5.08,55.77 5.13,55.77 5.19,55.71 5.25,55.69 5.30,55.63 5.36,55.58 5.42,55.54 5.47,55.50 5.53,55.44 5.59,55.38 5.64,55.32 5.70,55.24 5.76,55.20 5.81,55.17 5.87,55.07 5.93,54.95 5.98,54.87 6.04,54.81 6.10,54.68 6.15,54.46 6.21,54.25 6.27,53.88 6.32,53.51 6.38,53.38 6.44,53.39 6.49,53.23 6.55,53.04 6.61,52.90 6.66,52.79 6.72,52.68 6.78,52.71 6.83,52.60 6.89,52.61 6.95,52.46 7.00,52.36 7.06,52.32 7.12,52.30 7.17,52.28 7.23,52.37 7.29,52.49 7.34,52.52 7.40,52.53 7.46,52.53 7.51,52.23 7.57,51.90 7.63,51.66 7.68,51.42 7.74,51.17 7.80,51.17 7.85,51.45 7.91,51.43 7.97,51.37 8.02,51.35 8.08,51.26 8.14,51.23 8.19,51.32 8.25,51.36 8.31,51.15 8.36,51.02 8.42,50.92 8.48,50.83 8.54,50.86 8.59,51.28 8.65,51.11 8.71,50.78 8.76,50.58 8.82,50.48 8.88,50.44 8.93,50.31 8.99,50.07 9.05,49.63 9.10,49.16 9.16,48.77 9.22,48.40 9.27,48.09 9.33,47.78 9.39,47.58 9.44,47.40 9.50,47.21 9.56,46.88 9.61,46.75 9.67,46.97 9.73,47.29 9.78,47.61 9.84,47.81 9.90,47.80 9.95,47.91 10.01,47.98 10.07,48.17 10.12,48.29 10.18,48.37 10.24,48.42 10.29,48.44 10.35,48.47 10.41,48.44 10.46,48.53 10.52,48.60 10.58,48.66 10.63,48.69 10.69,48.78 10.75,49.02 10.80,49.05 10.86,48.82 10.92,48.60 10.97,48.43 11.03,48.34 11.09,48.36 11.14,48.53 11.20,48.67 11.26,48.81 11.31,48.89 11.37,49.08 11.43,49.55 11.48,49.43 11.54,49.16 11.60,48.80 11.65,48.47 11.71,48.62 11.77,48.44 11.82,48.44 11.88,48.45 11.94,48.63 11.99,48.72 12.05,48.45 12.11,48.30 12.16,48.19 12.22,47.79 12.28,47.58 12.33,47.50 12.39,47.64 12.45,47.92 12.50,48.19 12.56,48.50 12.62,48.44 12.67,48.40 12.73,48.32 12.79,48.25 12.84,48.20 12.90,47.97 12.96,47.88 13.01,48.09 13.07,48.25 13.13,48.30 13.18,48.28 13.24,48.23 13.30,48.18 13.35,48.19 13.41,48.28 13.47,48.34 13.52,48.50 13.58,48.65 13.64,48.89 13.69,49.21 13.75,49.33 13.81,49.42 13.86,49.49 13.92,49.57 13.98,49.71 14.03,49.91 14.09,50.13 14.15,50.33 14.20,50.42 14.26,50.70 14.32,50.92 14.37,50.96 14.43,50.76 14.49,50.89 14.54,50.77 14.60,51.08 14.66,50.66 14.71,50.32 14.77,49.94 14.83,49.69 14.88,49.67 14.94,49.81 15.00,50.13 15.05,50.60 15.11,50.88 15.17,50.92 15.22,51.04 15.28,51.16 15.34,51.18 15.39,51.16 15.45,51.17 15.51,51.06 15.56,50.91 15.62,50.81 15.68,50.80 15.73,50.87 15.79,50.89 15.85,50.84 15.90,50.71 15.96,50.50 16.02,50.19 16.07,49.91 16.13,49.93 16.19,49.64 16.24,49.65 16.30,49.75 16.36,50.03 16.41,50.25 16.47,50.29 16.53,50.22 16.58,50.06 16.64,50.29 16.70,50.39 16.75,50.42 16.81,50.59 16.87,50.75 16.92,50.88 16.98,50.99 17.04,51.18 17.09,51.26 17.15,51.37 17.21,51.12 17.26,50.65 17.32,50.24 17.38,49.97 17.44,49.87 17.49,49.72 17.55,49.39 17.61,49.65 17.66,49.92 17.72,49.92 17.78,50.07 17.83,50.06 17.89,50.27 17.95,50.41 18.00,50.58 18.06,50.65 18.12,50.52 18.17,50.66 18.23,50.77 18.29,50.66 18.34,50.53 18.40,50.16 18.46,49.86 18.51,49.72 18.57,49.50 18.63,49.49 18.68,49.49 18.74,49.50 18.80,49.42 18.85,49.23 18.91,49.01 18.97,48.87 19.02,48.73 19.08,49.02 19.14,49.03 19.19,49.10 19.25,49.18 19.31,49.25 19.36,49.34 19.42,49.58 19.48,49.52 19.53,49.44 19.59,49.34 19.65,49.43 19.70,49.32 19.76,49.42 19.82,49.44 19.87,49.43 19.93,49.43 19.99,49.53 20.04,49.52 20.10,49.49 20.16,49.47 20.21,49.44 20.27,49.45 20.33,49.38 20.38,49.10 20.44,49.00 20.50,49.22 20.55,49.30 20.61,49.23 20.67,49.20 20.72,49.26 20.78,49.07 20.84,48.97 20.89,48.39 20.95,48.31 21.01,48.28 21.06,48.45 21.12,49.01 21.18,49.37 21.23,49.43 21.29,49.39 21.35,49.31 21.40,49.31 21.46,49.33 21.52,49.21 21.57,48.64 21.63,48.44 21.69,48.23 21.74,47.93 21.80,47.84 21.86,47.89 21.91,47.94 21.97,48.09 22.03,48.20 22.08,48.47 22.14,48.36 22.20,48.21 22.25,48.09 22.31,48.00 22.37,47.73 22.42,47.53 22.48,47.20 22.54,47.18 22.59,47.31 22.65,47.28 22.71,47.17 22.76,47.08 22.82,47.29 22.88,47.68 22.93,48.07 22.99,48.15 23.05,47.87 23.10,47.45 23.16,47.05 23.22,46.66 23.27,46.23 23.33,46.01 23.39,45.67 23.44,45.40 23.50,45.39 23.56,45.41 23.61,45.31 23.67,45.44 23.73,45.62 23.78,45.32 23.84,44.75 23.90,44.64 23.95,44.56 24.01,44.35 24.07,44.11 24.12,43.43 24.18,43.16 24.24,43.04 24.29,42.79 24.35,42.52 24.41,42.34 24.46,42.38 24.52,42.29 24.58,42.60 24.63,42.85 24.69,42.46 24.75,42.02 24.80,41.77 24.86,41.62 24.92,41.47 24.97,41.42 25.03,41.38 25.09,41.27 25.14,41.13 25.20,41.06 25.26,40.96 25.31,41.02 25.37,40.97 25.43,40.84 25.48,40.69 25.54,40.56 25.60,40.41 25.65,40.28 25.71,40.19 25.77,40.06 25.82,39.93 25.88,39.88 25.94,39.77 25.99,39.67 26.05,39.56 26.11,39.45 26.17,39.36 26.22,39.28 26.28,39.20 26.34,39.10 26.39,39.03 26.45,39.04 26.51,38.99 26.56,38.95 26.62,38.91 26.68,38.85 26.73,38.82 26.79,38.75 26.85,38.75 26.90,38.68 26.96,38.51 27.02,38.42 27.07,38.32 27.13,38.42 27.19,38.53 27.24,38.57 27.30,38.59 27.36,38.61 27.41,38.63 27.47,38.64 27.53,38.65 27.58,38.68 27.64,38.70 27.70,38.71 27.75,38.70 27.81,38.66 27.87,38.64 27.92,38.67 27.98,38.72 28.04,38.79 28.09,38.87 28.15,38.94 28.21,38.98 28.26,38.97 28.32,38.93 28.38,38.89 28.43,38.85 28.49,38.74 28.55,38.69 28.60,38.68 28.66,38.60 28.72,38.60 28.77,38.64 28.83,38.92 28.89,38.72 28.94,38.60 29.00,38.71 29.06,38.66 29.11,38.72 29.17,38.90 29.23,39.13 29.28,39.23 29.34,39.29 29.40,39.34 29.45,39.34 29.51,39.35 29.57,39.38 29.62,39.43 29.68,39.45 29.74,39.35 29.79,39.23 29.85,39.16 29.91,39.20 29.96,39.33 30.02,39.35 30.08,39.37 30.13,39.39 30.19,39.62 30.25,39.77 30.30,39.86 30.36,39.58 30.42,39.35 30.47,39.64 30.53,39.91 30.59,39.65 30.64,39.70 30.70,39.96 30.76,40.17 30.81,40.31 30.87,40.40 30.93,40.67 30.98,40.79 31.04,40.84 31.10,40.94 31.15,41.04 31.21,40.97 31.27,40.93 31.32,40.83 31.38,41.04 31.44,41.24 31.49,41.21 31.55,41.01 31.61,40.95 31.66,40.84 31.72,41.10 31.78,41.49 31.83,41.58 31.89,41.66 31.95,41.74 32.00,41.81 32.06,41.89 32.12,41.98 32.17,42.06 32.23,42.13 32.29,42.16 32.34,42.16 32.40,42.08 32.46,42.04 32.51,41.94 32.57,42.20 32.63,42.31 32.68,42.32 32.74,42.33 32.80,42.35 32.85,42.42 32.91,42.62 32.97,42.71 33.02,42.73 33.08,42.76 33.14,42.84 33.19,42.57 33.25,42.57 33.31,42.63 33.36,42.78 33.42,43.09 33.48,43.02 33.53,42.81 33.59,42.85 33.65,42.99 33.70,42.87 33.76,42.46 33.82,42.53 33.87,42.41 33.93,42.58 33.99,42.23 34.04,42.12 34.10,42.18 34.16,42.49 34.21,42.25 34.27,42.22 34.33,42.29 34.38,42.42 34.44,42.41 34.50,42.45 34.55,42.54 34.61,42.62 34.67,42.43 34.72,42.48 34.78,42.47 34.84,42.08 34.89,42.03 34.95,42.23 35.01,42.21 35.07,40.83 35.12,40.68 35.18,40.42 35.24,40.41 35.29,40.40 35.35,40.00 35.41,39.78 35.46,39.53 35.52,39.55 35.58,42.21 35.63,42.07 35.69,41.95 35.75,41.79 35.80,41.59 35.86,41.27 35.92,41.13 35.97,41.01 36.03,40.88 36.09,40.87 36.14,40.99 36.20,41.04 36.26,41.06 36.31,40.91 36.37,40.83 36.43,39.53 36.48,39.55 36.54,39.06 36.60,39.11 36.65,39.11 36.71,39.01 36.77,38.91 36.82,39.04 36.88,38.85 36.94,38.59 36.99,38.30 37.05,38.12 37.11,37.95 37.16,37.85 37.22,37.72 37.28,37.65 37.33,37.59 37.39,37.68 37.45,37.13 37.50,36.74 37.56,36.89 37.62,37.30 37.67,36.92 37.73,36.68 37.79,36.74 37.84,37.31 37.90,37.30 37.96,37.35 38.01,37.98 38.07,38.36 38.13,38.55 38.18,38.50 38.24,38.35 38.30,37.98 38.35,37.73 38.41,37.52 38.47,37.28 38.52,37.28 38.58,37.33 38.64,37.01 38.69,36.53 38.75,36.33 38.81,36.39 38.86,36.72 38.92,37.05 38.98,36.67 39.03,36.60 39.09,36.55 39.15,36.55 39.20,36.79 39.26,37.28 39.32,37.77 39.37,37.87 39.43,37.79 39.49,37.57 39.54,37.31 39.60,37.13 39.66,37.09 39.71,37.17 39.77,37.39 39.83,37.44 39.88,37.43 39.94,37.32 40.00,37.18 40.05,37.21 40.11,37.57 40.17,37.56 40.22,37.33 40.28,37.06 40.34,37.01 40.39,37.03 40.45,37.15 40.51,37.10 40.56,37.06 40.62,37.19 40.68,37.12 40.73,37.16 40.79,37.16 40.85,37.26 40.90,37.37 40.96,37.44 41.02,37.55 41.07,37.55 41.13,36.82 41.19,36.45 41.24,36.72 41.30,36.49 41.36,36.41 41.41,36.50 41.47,36.74 41.53,37.03 41.58,37.17 41.64,37.13 41.70,37.23 41.75,37.26 41.81,37.29 41.87,37.23 41.92,37.29 41.98,37.50 42.04,37.28 42.09,37.28 42.15,37.23 42.21,37.03 42.26,36.94 42.32,36.84 42.38,36.80 42.43,36.60 42.49,36.38 42.55,36.29 42.60,36.32 42.66,36.31 42.72,36.34 42.77,36.43 42.83,36.59 42.89,36.66 42.94,36.66 43.00,36.70 43.06,36.79 43.11,37.09 43.17,37.31 43.23,36.96 43.28,36.65 43.34,36.50 43.40,36.36 43.45,35.95 43.51,35.66 43.57,35.62 43.62,35.82 43.68,36.19 43.74,36.20 43.79,36.03 43.85,35.93 43.91,35.96 43.97,35.96 44.02,35.88 44.08,35.92 44.14,36.03 44.19,36.17 44.25,36.09 44.31,35.92 44.36,35.83 44.42,35.80 44.48,35.31 44.53,35.18 44.59,35.25 44.65,35.27 44.70,35.04 44.76,34.77 44.82,34.57 44.87,34.58 44.93,34.71 44.99,34.65 45.04,34.52 45.10,34.38 45.16,34.21 45.21,34.05 45.27,34.15 45.33,34.20 45.38,34.29 45.44,33.94 45.50,33.89 45.55,33.68 45.61,33.39 45.67,33.28 45.72,33.14 45.78,33.09 45.84,32.90 45.89,32.67 45.95,32.57 46.01,32.47 46.06,32.31 46.12,32.18 46.18,32.09 46.23,31.94 46.29,31.82 46.35,31.72 46.40,31.62 46.46,31.52 46.52,31.43 46.57,31.33 46.63,31.20 46.69,31.05 46.74,30.92 46.80,30.85 46.86,30.84 46.91,30.84 46.97,30.87 47.03,30.84 47.08,30.78 47.14,30.79 47.20,30.76 47.25,30.67 47.31,30.70 47.37,30.91 47.42,30.66 47.48,30.40 47.54,30.33 47.59,30.28 47.65,30.44 47.71,30.50 47.76,30.48 47.82,30.33 47.88,30.11 47.93,29.95 47.99,29.95 48.05,30.13 48.10,30.22 48.16,30.22 48.22,30.16 48.27,30.18 48.33,30.21 48.39,30.29 48.44,30.61 48.50,30.90 48.56,30.58 48.61,30.68 48.67,30.69 48.73,30.72 48.78,30.79 48.84,30.14 48.90,29.45 48.95,29.05 49.01,28.91 49.07,29.14 49.12,29.36 49.18,29.44 49.24,29.44 49.29,29.56 49.35,29.13 49.41,28.80 49.46,28.51 49.52,28.40 49.58,28.50 49.63,28.63 49.69,28.79 49.75,29.01 49.80,28.90 49.86,28.54 49.92,28.33 49.97,28.27 50.03,28.36 50.09,28.28 50.14,28.41 50.20,28.71 50.26,29.04 50.31,29.19 50.37,29.45 50.43,29.63 50.48,29.76 50.54,29.75 50.60,30.04 50.65,30.57 50.71,30.48 50.77,30.18 50.82,29.97 50.88,29.95 50.94,30.11 50.99,30.31 51.05,30.54 51.11,30.71 51.16,30.87 51.22,31.02 51.28,31.17 51.33,31.34 51.39,31.58 51.45,31.75 51.50,31.93 51.56,32.11 51.62,32.21 51.67,32.28 51.73,32.37 51.79,32.48 51.84,32.75 51.90,32.80 51.96,32.94 52.01,33.07 52.07,33.14 52.13,33.18 52.18,33.09 52.24,33.02 52.30,32.99 52.35,32.75 52.41,33.05 52.47,33.04 52.52,33.13 52.58,33.15 52.64,33.06 52.70,32.93 52.75,32.81 52.81,32.56 52.87,32.09 52.92,31.88 52.98,31.66 53.04,31.51 53.09,31.45 53.15,31.28 53.21,30.69 53.26,30.51 53.32,30.48 53.38,30.74 53.43,30.52 53.49,30.19 53.55,29.97 53.60,29.64 53.66,29.55 53.72,29.58 53.77,29.49 53.83,29.50 53.89,29.47 53.94,29.39 54.00,29.25 54.06,29.10 54.11,28.78 54.17,28.26 54.23,28.32 54.28,28.56 54.34,28.58 54.40,28.48 54.45,28.11 54.51,27.85 54.57,27.69 54.62,27.52 54.68,27.51 54.74,27.30 54.79,27.12 54.85,26.91 54.91,26.55 54.96,25.97 55.02,25.66 55.08,25.28 55.13,24.99 55.19,24.93 55.25,25.28 55.30,25.56 55.36,24.84 55.42,24.61 55.47,24.21 55.53,23.92 55.59,23.74 55.64,23.58 55.70,23.37 55.76,23.38 55.81,23.60 55.87,23.79 55.93,23.45 55.98,22.69 56.04,22.27 56.10,22.13 56.15,22.12 56.21,22.46 56.27,22.52 56.32,22.37 56.38,22.18 56.44,21.96 56.49,21.64 56.55,21.48 56.61,21.34 56.66,21.25 56.72,20.95 56.78,20.62 56.83,20.29 56.89,20.02 56.95,19.84 57.00,19.81 57.06,19.93 57.12,19.50 57.17,19.21 57.23,19.05 57.29,19.22 57.34,19.15 57.40,18.75 57.46,18.42 57.51,18.21 57.57,18.03 57.63,17.88 57.68,17.87 57.74,17.66 57.80,17.47 57.85,17.41 57.91,17.12 57.97,17.05 58.02,17.11 58.08,17.00 58.14,16.87 58.19,16.73 58.25,16.61 58.31,16.49 58.36,16.21 58.42,16.11 58.48,16.15 58.53,16.07 58.59,15.89 58.65,15.78 58.70,15.65 58.76,15.54 58.82,15.48 58.87,15.33 58.93,15.22 58.99,15.15 59.04,15.03 59.10,14.91 59.16,14.79 59.21,14.58 59.27,14.26 59.33,14.12 59.38,13.85 59.44,13.85 59.50,13.88 59.55,13.87 59.61,13.64 59.67,13.52 59.72,13.43 59.78,13.26 59.84,13.10 59.89,12.93 59.95,12.83 60.01,12.74 60.06,12.55 60.12,12.40 60.18,12.25 60.23,12.17 60.29,12.13 60.35,12.03 60.40,11.94 60.46,11.91 60.52,11.88 60.57,11.82 60.63,11.83 60.69,11.82 60.74,11.85 60.80,11.93 60.86,11.86 60.91,11.80 60.97,11.77 61.03,11.84 61.08,11.83 61.14,11.63 61.20,11.48 61.25,11.41 61.31,11.33 61.37,11.24 61.42,11.09 61.48,10.91 61.54,10.83 61.60,10.87 61.65,10.75 61.71,10.55 61.77,10.40 61.82,10.39 61.88,10.08 61.94,9.67 61.99,9.48 62.05,9.60 62.11,9.64 62.16,9.79 62.22,10.04 62.28,9.92 62.33,9.78 62.39,9.71 62.45,9.64 62.50,9.48 62.56,9.32 62.62,9.26 62.67,9.27 62.73,9.38 62.79,9.53 62.84,9.19 62.90,9.04 62.96,8.96 63.01,9.02 63.07,9.20 63.13,9.13 63.18,9.03 63.24,8.85 63.30,8.43 63.35,8.56 63.41,8.66 63.47,8.69 63.52,8.54 63.58,8.41 63.64,8.28 63.69,8.32 63.75,8.35 63.81,8.05 63.86,7.82 63.92,7.70 63.98,7.54 64.03,7.44 64.09,7.42 64.15,7.33 64.20,7.21 64.26,7.07 64.32,7.04 64.37,6.95 64.43,6.76 64.49,6.64 64.54,6.63 64.60,6.64 64.66,6.48 64.71,6.75 64.77,6.97 64.83,7.19 64.88,7.18 64.94,7.31 65.00,6.96 65.05,6.61 65.11,6.42 65.17,6.23 65.22,6.20 65.28,6.51 65.34,6.51 65.39,6.01 65.45,5.65 65.51,5.42 65.56,5.24 65.62,5.22 65.68,5.18 65.73,5.17 65.79,5.18 65.85,5.07 65.90,4.87 65.96,4.82 66.02,4.79 66.07,4.79 66.13,4.83 66.19,4.81 66.24,4.64 66.30,4.69 66.36,4.78 66.41,4.73 66.47,4.67 66.53,4.63 66.58,4.58 66.64,4.47 66.70,4.34 66.75,4.21 66.81,4.22 66.87,4.29 66.92,4.37 66.98,4.42 67.04,4.46 67.09,4.48 67.15,4.48 67.21,4.46 67.26,4.45 67.32,4.54 67.38,4.67 67.43,4.84 67.49,5.07 67.55,5.25 67.60,5.44 67.66,5.58 67.72,5.68 67.77,5.78 67.83,5.85 67.89,5.85 67.94,5.79 68.00,5.68 68.06,5.59 68.11,5.54 68.17,5.55 68.23,5.64 68.28,5.66 68.34,5.67 68.40,5.70 68.45,5.63 68.51,5.57 68.57,5.52 68.62,5.51 68.68,5.44 68.74,5.50 68.79,5.48 68.85,5.54 68.91,5.61 68.96,5.60 69.02,5.48 69.08,5.32 69.13,5.24 69.19,5.12 69.25,5.13 69.30,5.18 69.36,5.25 69.42,5.32 69.47,5.36 69.53,5.39 69.59,5.42 69.64,5.34 69.70,5.31 69.76,5.26 69.81,5.28 69.87,5.44 69.93,5.65 69.98,5.86 70.04,5.98 70.10,5.94 70.15,5.92 70.21,5.87 70.27,5.96 70.32,5.96 70.38,5.87 70.44,5.75 70.50,5.68 70.55,5.67 70.61,5.73 70.67,5.80 70.72,5.81 70.78,5.76 70.84,5.72 70.89,5.82 70.95,6.06 71.01,6.49 71.06,6.67 71.12,6.53 71.18,6.38 71.23,6.37 71.29,6.56 71.35,6.70 71.40,6.74 71.46,6.80 71.52,6.87 71.57,6.94 71.63,7.04 71.69,7.43 71.74,7.64 71.80,7.85 71.86,7.97 71.91,8.18 71.97,8.22 72.03,8.25 72.08,8.27 72.14,8.37 72.20,8.49 72.25,8.64 72.31,8.81 72.37,9.00 72.42,9.16 72.48,9.33 72.54,9.46 72.59,9.57 72.65,9.74 72.71,9.94 72.76,10.14 72.82,10.36 72.88,10.53 72.93,10.67 72.99,10.79 73.05,10.79 73.10,10.78 73.16,10.76 73.22,10.77 73.27,10.84 73.33,10.90 73.39,10.92 73.44,10.85 73.50,10.71 73.56,10.57 73.61,10.48 73.67,10.38 73.73,10.26 73.78,10.16 73.84,9.99 73.90,9.82 73.95,9.61 74.01,9.52 74.07,9.53 74.12,9.51 74.18,9.44 74.24,9.53 74.29,9.78 74.35,9.62 74.41,9.69 74.46,9.95 74.52,10.28 74.58,10.54 74.63,10.57 74.69,10.62 74.75,10.97 74.80,11.10 74.86,10.93 74.92,10.68 74.97,10.84 75.03,11.02 75.09,11.29 75.14,11.47 75.20,11.95 75.26,12.41 75.31,12.75 75.37,12.83 75.43,12.90 75.48,13.19 75.54,13.25 75.60,13.17 75.65,12.96 75.71,12.98 75.77,13.11 75.82,13.33 75.88,13.41 75.94,13.67 75.99,13.79 76.05,13.83 76.11,13.94 76.16,14.08 76.22,14.36 76.28,14.78 76.33,15.11 76.39,15.30 76.45,14.95 76.50,14.32 76.56,13.97 76.62,14.01 76.67,14.30 76.73,14.78 76.79,15.24 76.84,15.69 76.90,15.92 76.96,16.01 77.01,16.02 77.07,16.25 77.13,16.72 77.18,56.00 77.24,55.96 77.30,55.92 77.35,55.89 77.41,55.89 77.47,55.91 77.52,55.92 77.58,55.91 77.64,55.91 77.69,55.87 77.75,55.86 77.81,55.82 77.86,55.78 77.92,55.84 77.98,55.83 78.03,55.78 78.09,55.76 78.15,55.76 78.20,55.76 78.26,55.76 78.32,55.70 78.37,55.69 78.43,55.67 78.49,55.64 78.54,55.60 78.60,55.53 78.66,55.48 78.71,55.45 78.77,55.38 78.83,55.31 78.88,55.23 78.94,55.21 79.00,55.17 79.05,55.05 79.11,54.96 79.17,54.88 79.23,54.81 79.28,54.67 79.34,54.48 79.40,54.28 79.45,53.89 79.51,53.44 79.57,53.47 79.62,53.27 79.68,53.08 79.74,52.96 79.79,52.84 79.85,52.76 79.91,52.68 79.96,52.59 80.02,52.64 80.08,52.49 80.13,52.43 80.19,52.37 80.25,52.32 80.30,52.31 80.36,52.34 80.42,52.34 80.47,52.52 80.53,52.55 80.59,52.53 80.64,52.60 80.70,52.15 80.76,51.83 80.81,51.67 80.87,51.39 80.93,51.16 80.98,51.25 81.04,51.47 81.10,51.42 81.15,51.47 81.21,51.49 81.27,51.28 81.32,51.28 81.38,51.32 81.44,51.43 81.49,51.17 81.55,51.01 81.61,50.94 81.66,50.82 81.72,50.92 81.78,51.27 81.83,51.03 81.89,50.73 81.95,50.57 82.00,50.49 82.06,50.36 82.12,50.31 82.17,50.02 82.23,49.61 82.29,49.08 82.34,48.75 82.40,48.31 82.46,47.99 82.51,47.73 82.57,47.57 82.63,47.41 82.68,47.02 82.74,47.05 82.80,46.86 82.85,46.92 82.91,47.23 82.97,47.66 83.02,47.71 83.08,47.86 83.14,47.92 83.19,47.97 83.25,48.17 83.31,48.29 83.36,48.38 83.42,48.50 83.48,48.45 83.53,48.40 83.59,48.41 83.65,48.53 83.70,48.58 83.76,48.68 83.82,48.68 83.87,48.93 83.93,49.02 83.99,49.06 84.04,48.85 84.10,48.57 84.16,48.50 84.21,48.33 84.27,48.36 84.33,48.59 84.38,48.76 84.44,48.84 84.50,48.92 84.55,49.13 84.61,49.56 84.67,49.37 84.72,49.17 84.78,48.84 84.84,48.44 84.89,48.67 84.95,48.42 85.01,48.37 85.06,48.38 85.12,48.66 85.18,48.56 85.23,48.43 85.29,48.33 85.35,48.20 85.40,47.73 85.46,47.61 85.52,47.50 85.57,47.65 85.63,47.90 85.69,48.39 85.74,48.50 85.80,48.46 85.86,48.42 85.91,48.39 85.97,48.31 86.03,48.18 86.08,47.94 86.14,47.93 86.20,48.08 86.25,48.25 86.31,48.31 86.37,48.30 86.42,48.17 86.48,48.12 86.54,48.22 86.59,48.30 86.65,48.34 86.71,48.47 86.76,48.62 86.82,48.95 86.88,49.20 86.93,49.33 86.99,49.49 87.05,49.60 87.10,49.62 87.16,49.75 87.22,49.94 87.27,50.14 87.33,50.41 87.39,50.53 87.44,50.81 87.50,50.97 87.56,50.97 87.61,50.78 87.67,50.91 87.73,50.80 87.78,51.07 87.84,50.67 87.90,50.37 87.95,49.81 88.01,49.69 88.07,49.78 88.13,49.87 88.18,50.21 88.24,50.80 88.30,50.95 88.35,51.10 88.41,51.28 88.47,51.20 88.52,51.25 88.58,51.21 88.64,51.16 88.69,51.05 88.75,50.86 88.81,50.80 88.86,50.81 88.92,50.94 88.98,50.91 89.03,50.87 89.09,50.68 89.15,50.51 89.20,50.32 89.26,50.16 89.32,49.80 89.37,49.58 89.43,49.71 89.49,49.89 89.54,50.36 89.60,50.35 89.66,50.25 89.71,50.14 89.77,50.13 89.83,50.34 89.88,50.40 89.94,50.44 90.00,50.57 90.05,50.74 90.11,50.89 90.17,51.02 90.22,51.21 90.28,51.27 90.34,51.39 90.39,51.16 90.45,50.59 90.51,50.23 90.56,50.12 90.62,49.89 90.68,49.74 90.73,49.69 90.79,49.65 90.85,49.97 90.90,49.84 90.96,50.13 91.02,50.16 91.07,50.30 91.13,50.49 91.19,50.64 91.24,50.63 91.30,50.57 91.36,50.72 91.41,50.67 91.47,50.64 91.53,50.47 91.58,50.21 91.64,49.87 91.70,49.71 91.75,49.57 91.81,49.50 91.87,49.49 91.92,49.60 91.98,49.43 92.04,49.32 92.09,48.97 92.15,48.95 92.21,48.84 92.26,49.27 92.32,49.37 92.38,48.99 92.43,49.13 92.49,49.19 92.55,49.45 92.60,49.59 92.66,49.52 92.72,49.47 92.77,49.31 92.83,49.34 92.89,49.46 92.94,49.44 93.00,49.47 93.06,49.40 93.11,49.53 93.17,49.55 93.23,49.57 93.28,49.49 93.34,49.45 93.40,49.49 93.45,49.42 93.51,49.44 93.57,49.12 93.62,49.03 93.68,49.32 93.74,49.39 93.79,49.32 93.85,49.23 93.91,49.30 93.96,49.19 94.02,49.02 94.08,48.57 94.13,48.33 94.19,48.23 94.25,48.48 94.30,49.16 94.36,49.38 94.42,49.40 94.47,49.37 94.53,49.32 94.59,49.26 94.64,49.36 94.70,49.13 94.76,48.65 94.81,48.48 94.87,48.29 94.93,47.93 94.98,47.82 95.04,47.96 95.10,47.88 95.15,48.14 95.21,48.33 95.27,48.44 95.32,48.36 95.38,48.22 95.44,48.09 95.49,47.93 95.55,47.56 95.61,47.57 95.66,47.25 95.72,47.19 95.78,47.24 95.83,47.29 95.89,47.17 95.95,47.10 96.00,47.18 96.06,47.72 96.12,48.07 96.17,48.17 96.23,47.90 96.29,47.49 96.34,47.16 96.40,46.62 96.46,46.32 96.51,46.02 96.57,45.68 96.63,45.38 96.68,45.35 96.74,45.29 96.80,45.26 96.85,45.34 96.91,45.47 96.97,45.19 97.03,44.72 97.08,44.65 97.14,44.61 97.20,44.36 97.25,44.00 97.31,43.35 97.37,43.03 97.42,43.05 97.48,42.68 97.54,42.49 97.59,42.25 97.65,42.37 97.71,42.30 97.76,42.44 97.82,42.86 97.88,42.41 97.93,41.94 97.99,41.80 98.05,41.64 98.10,41.41 98.16,41.38 98.22,41.36 98.27,41.24 98.33,41.15 98.39,41.03 98.44,40.95 98.50,41.01 98.56,40.99 98.61,40.83 98.67,40.68 98.73,40.54 98.78,40.47 98.84,40.43 98.90,40.21 98.95,40.09 99.01,39.94 99.07,39.92 99.12,39.81 99.18,39.68 99.24,39.55 99.29,39.46 99.35,39.36 99.41,39.29 99.46,39.19 99.52,39.17 99.58,39.10 99.63,39.06 99.69,39.00 99.75,38.95 99.80,38.95 99.86,38.91 99.92,38.79 99.97,38.88 100.03,38.73 100.09,38.85 100.14,38.58 100.20,38.44 100.26,38.41 100.31,38.47 100.37,38.55 100.43,38.60 100.48,38.64 100.54,38.66 100.60,38.64 100.65,38.66 100.71,38.69 100.77,38.69 100.82,38.71 100.88,38.75 100.94,38.72 100.99,38.68 101.05,38.66 101.11,38.69 101.16,38.74 101.22,38.81 101.28,38.91 101.33,38.95 101.39,38.99 101.45,38.99 101.50,38.95 101.56,38.91 101.62,38.86 101.67,38.84 101.73,38.75 101.79,38.77 101.84,38.71 101.90,38.56 101.96,38.81 102.01,38.94 102.07,38.93 102.13,38.67 102.18,38.90 102.24,38.75 102.30,38.84 102.35,38.93 102.41,39.23 102.47,39.21 102.52,39.33 102.58,39.35 102.64,39.35 102.69,39.38 102.75,39.40 102.81,39.53 102.86,39.46 102.92,39.46 102.98,39.27 103.03,39.24 103.09,39.25 103.15,39.35 103.20,39.32 103.26,39.38 103.32,39.43 103.37,39.50 103.43,39.81 103.49,39.97 103.54,39.65 103.60,39.36 103.66,39.70 103.71,39.97 103.77,39.74 103.83,39.78 103.88,40.00 103.94,40.15 104.00,40.43 104.05,40.41 104.11,40.68 104.17,40.79 104.22,40.84 104.28,40.95 104.34,41.03 104.39,41.05 104.45,40.95 104.51,40.83 104.56,41.02 104.62,41.27 104.68,41.22 104.73,41.08 104.79,41.01 104.85,40.74 104.90,40.99 104.96,41.49 105.02,41.60 105.07,41.65 105.13,41.74 105.19,41.80 105.24,41.91 105.30,41.94 105.36,42.09 105.41,42.15 105.47,42.15 105.53,42.17 105.58,42.03 105.64,42.02 105.70,42.01 105.75,42.28 105.81,42.31 105.87,42.32 105.93,42.34 105.98,42.36 106.04,42.49 106.10,42.59 106.15,42.74 106.21,42.82 106.27,42.74 106.32,42.95 106.38,42.59 106.44,42.58 106.49,42.67 106.55,42.79 106.61,43.14 106.66,42.98 106.72,42.82 106.78,42.85 106.83,42.99 106.89,42.81 106.95,42.59 107.00,42.22 107.06,42.35 107.12,42.63 107.17,42.13 107.23,42.21 107.29,42.21 107.34,42.50 107.40,42.21 107.46,42.15 107.51,42.25 107.57,42.41 107.63,42.42 107.68,42.45 107.74,42.58 107.80,42.63 107.85,42.47 107.91,42.50 107.97,42.51 108.02,42.07 108.08,41.97 108.14,42.27 108.19,42.19 108.25,42.09 108.31,42.03 108.36,41.76 108.42,41.72 108.48,41.33 108.53,41.17 108.59,41.03 108.65,40.90 108.70,40.86 108.76,41.05 108.82,41.11 108.87,41.02 108.93,40.94 108.99,40.85 109.04,40.66 109.10,40.50 109.16,40.39 109.21,40.43 109.27,40.01 109.33,39.94 109.38,39.77 109.44,39.66 109.50,39.14 109.55,39.16 109.61,39.11 109.67,38.99 109.72,38.89 109.78,39.08 109.84,38.93 109.89,38.60 109.95,38.39 110.01,38.15 110.06,37.95 110.12,37.80 110.18,37.79 110.23,37.63 110.29,37.59 110.35,37.62 110.40,37.25 110.46,36.76 110.52,36.87 110.57,37.40 110.63,37.04 110.69,36.66 110.74,36.69 110.80,37.30 110.86,37.26 110.91,37.39 110.97,38.10 111.03,38.44 111.08,38.55 111.14,38.48 111.20,38.37 111.25,38.15 111.31,37.77 111.37,37.54 111.42,37.22 111.48,37.36 111.54,37.29 111.59,36.96 111.65,36.51 111.71,36.27 111.76,36.43 111.82,36.72 111.88,37.04 111.93,36.65 111.99,36.54 112.05,36.56 112.10,36.51 112.16,36.84 112.22,37.21 112.27,37.77 112.33,37.84 112.39,37.79 112.44,37.65 112.50,37.26 112.56,37.13 112.61,37.04 112.67,37.18 112.73,37.41 112.78,37.45 112.84,37.43 112.90,37.42 112.95,37.16 113.01,37.24 113.07,37.61 113.12,37.56 113.18,37.38 113.24,37.10 113.29,37.00 113.35,37.13 113.41,37.13 113.46,37.10 113.52,37.03 113.58,37.18 113.63,37.13 113.69,37.10 113.75,37.15 113.80,37.32 113.86,37.39 113.92,37.43 113.97,37.58 114.03,37.57 114.09,36.86 114.14,36.45 114.20,36.88 114.26,36.43 114.31,36.34 114.37,36.46 114.43,36.79 114.48,37.01 114.54,37.20 114.60,37.20 114.66,37.22 114.71,37.36 114.77,37.29 114.83,37.24 114.88,37.31 114.94,37.49 115.00,37.34 115.05,37.21 115.11,37.29 115.17,37.04 115.22,36.95 115.28,36.83 115.34,36.81 115.39,36.71 115.45,36.53 115.51,36.40 115.56,36.31 115.62,36.32 115.68,36.34 115.73,36.43 115.79,36.66 115.85,36.72 115.90,36.66 115.96,36.73 116.02,36.74 116.07,37.13 116.13,37.12 116.19,36.88 116.24,36.59 116.30,36.49 116.36,36.34 116.41,36.00 116.47,35.67 116.53,35.59 116.58,35.88 116.64,36.14 116.70,36.18 116.75,36.00 116.81,35.97 116.87,36.01 116.92,35.95 116.98,35.87 117.04,35.96 117.09,35.97 117.15,36.11 117.21,36.05 117.26,35.90 117.32,35.84 117.38,35.86 117.43,35.28 117.49,35.23 117.55,35.23 117.60,35.17 117.66,34.94 117.72,34.81 117.77,34.54 117.83,34.57 117.89,34.74 117.94,34.69 118.00,34.56 118.06,34.33 118.11,34.17 118.17,34.03 118.23,34.18 118.28,34.22 118.34,34.24 118.40,33.94 118.45,33.84 118.51,33.74 118.57,33.39 118.62,33.28 118.68,33.14 118.74,33.08 118.79,32.84 118.85,32.66 118.91,32.56 118.96,32.47 119.02,32.28 119.08,32.19 119.13,32.08 119.19,31.92 119.25,31.81 119.30,31.71 119.36,31.58 119.42,31.52 119.47,31.41 119.53,31.32 119.59,31.18 119.64,31.06 119.70,30.91 119.76,30.85 119.81,30.81 119.87,30.82 119.93,30.87 119.98,30.83 120.04,30.78 120.10,30.77 120.15,30.75 120.21,30.65 120.27,30.77 120.32,30.89 120.38,30.62 120.44,30.56 120.49,30.38 120.55,30.28 120.61,30.39 120.66,30.60 120.72,30.45 120.78,30.27 120.83,30.18 120.89,29.96 120.95,30.00 121.00,30.12 121.06,30.20 121.12,30.26 121.17,30.13 121.23,30.17 121.29,30.19 121.34,30.28 121.40,30.63 121.46,30.80 121.51,30.53 121.57,30.61 121.63,30.64 121.68,30.66 121.74,30.74 121.80,30.18 121.85,29.33 121.91,29.21 121.97,28.87 122.02,29.04 122.08,29.49 122.14,29.31 122.19,29.43 122.25,29.63 122.31,29.07 122.36,28.75 122.42,28.46 122.48,28.40 122.53,28.49 122.59,28.54 122.65,28.82 122.70,28.88 122.76,28.79 122.82,28.49 122.87,28.41 122.93,28.29 122.99,28.32 123.04,28.32 123.10,28.46 123.16,28.60 123.21,29.02 123.27,29.12 123.33,29.44 123.38,29.58 123.44,29.74 123.50,29.73 123.56,30.03 123.61,30.55 123.67,30.52 123.73,30.19 123.78,29.97 123.84,29.90 123.90,30.12 123.95,30.34 124.01,30.51 124.07,30.67 124.12,30.86 124.18,31.02 124.24,31.18 124.29,31.30 124.35,31.53 124.41,31.74 124.46,31.84 124.52,32.10 124.58,32.18 124.63,32.28 124.69,32.34 124.75,32.48 124.80,32.78 124.86,32.79 124.92,32.78 124.97,33.13 125.03,33.26 125.09,33.19 125.14,33.04 125.20,32.99 125.26,32.98 125.31,32.95 125.37,33.03 125.43,33.01 125.48,33.18 125.54,33.15 125.60,33.05 125.65,32.85 125.71,32.76 125.77,32.58 125.82,32.04 125.88,31.79 125.94,31.62 125.99,31.45 126.05,31.25 126.11,31.13 126.16,30.82 126.22,30.53 126.28,30.50 126.33,30.74 126.39,30.54 126.45,30.09 126.50,29.80 126.56,29.49 126.62,29.57 126.67,29.62 126.73,29.41 126.79,29.51 126.84,29.43 126.90,29.34 126.96,29.25 127.01,29.08 127.07,28.77 127.13,28.23 127.18,28.26 127.24,28.47 127.30,28.52 127.35,28.36 127.41,28.13 127.47,27.86 127.52,27.67 127.58,27.35 127.64,27.41 127.69,27.32 127.75,27.12 127.81,26.89 127.86,26.51 127.92,25.89 127.98,25.64 128.03,25.25 128.09,25.04 128.15,24.88 128.20,25.16 128.26,25.37 128.32,24.89 128.37,24.55 128.43,24.12 128.49,23.90 128.54,23.69 128.60,23.52 128.66,23.36 128.71,23.46 128.77,23.44 128.83,23.66 128.88,23.39 128.94,22.52 129.00,22.16 129.05,22.19 129.11,22.07 129.17,22.27 129.22,22.51 129.28,22.34 129.34,22.12 129.39,21.78 129.45,21.41 129.51,21.42 129.56,21.20 129.62,21.17 129.68,21.00 129.73,20.55 129.79,20.29 129.85,19.96 129.90,19.78 129.96,19.74 130.02,19.83 130.07,19.48 130.13,19.15 130.19,19.10 130.24,19.20 130.30,19.12 130.36,18.72 130.41,18.40 130.47,18.16 130.53,17.95 130.58,17.88 130.64,17.91 130.70,17.64 130.75,17.45 130.81,17.29 130.87,17.08 130.92,16.93 130.98,17.08 131.04,16.94 131.09,16.87 131.15,16.72 131.21,16.58 131.26,16.39 131.32,15.98 131.38,15.92 131.43,16.14 131.49,16.00 131.55,15.80 131.60,15.76 131.66,15.61 131.72,15.53 131.77,15.40 131.83,15.29 131.89,15.20 131.94,15.13 132.00,14.99 132.06,14.91 132.11,14.71 132.17,14.46 132.23,14.27 132.28,14.08 132.34,13.83 132.40,13.85 132.46,13.86 132.51,13.81 132.57,13.60 132.63,13.54 132.68,13.41 132.74,13.26 132.80,13.09 132.85,12.90 132.91,12.80 132.97,12.68 133.02,12.52 133.08,12.35 133.14,12.24 133.19,12.15 133.25,12.11 133.31,12.03 133.36,11.94 133.42,11.94 133.48,11.86 133.53,11.78 133.59,11.78 133.65,11.91 133.70,11.94 133.76,11.78 133.82,11.93 133.87,11.82 133.93,11.69 133.99,11.86 134.04,11.88 134.10,11.54 134.16,11.55 134.21,11.38 134.27,11.29 134.33,11.33 134.38,11.17 134.44,10.94 134.50,10.82 134.55,10.92 134.61,10.78 134.67,10.66 134.72,10.40 134.78,10.38 134.84,9.95 134.89,9.67 134.95,9.50 135.01,9.53 135.06,9.60 135.12,9.90 135.18,10.05 135.23,9.90 135.29,9.76 135.35,9.68 135.40,9.62 135.46,9.52 135.52,9.28 135.57,9.24 135.63,9.31 135.69,9.50 135.74,9.38 135.80,9.17 135.86,8.90 135.91,9.01 135.97,8.99 136.03,9.22 136.08,9.19 136.14,8.99 136.20,8.73 136.25,8.30 136.31,8.33 136.37,8.56 136.42,8.61 136.48,8.49 136.54,8.35 136.59,8.25 136.65,8.41 136.71,8.32 136.76,8.01 136.82,7.81 136.88,7.68 136.93,7.51 136.99,7.41 137.05,7.39 137.10,7.33 137.16,7.15 137.22,7.06 137.27,7.03 137.33,6.90 137.39,6.72 137.44,6.62 137.50,6.60 137.56,6.64 137.61,6.43 137.67,6.77 137.73,6.96 137.78,7.18 137.84,7.18 137.90,7.22 137.95,7.06 138.01,6.56 138.07,6.35 138.12,6.26 138.18,6.22 138.24,6.43 138.29,6.42 138.35,5.94 138.41,5.70 138.46,5.43 138.52,5.23 138.58,5.14 138.63,5.20 138.69,5.18 138.75,5.21 138.80,5.12 138.86,4.85 138.92,4.80 138.97,4.76 139.03,4.76 139.09,4.84 139.14,4.70 139.20,4.67 139.26,4.75 139.31,4.76 139.37,4.76 139.43,4.67 139.48,4.60 139.54,4.63 139.60,4.48 139.65,4.31 139.71,4.19 139.77,4.19 139.82,4.28 139.88,4.37 139.94,4.41 139.99,4.45 140.05,4.46 140.11,4.47 140.16,4.43 140.22,4.43 140.28,4.54 140.33,4.66 140.39,4.83 140.45,5.04 140.50,5.25 140.56,5.42 140.62,5.50 140.67,5.68 140.73,5.76 140.79,5.83 140.84,5.83 140.90,5.74 140.96,5.68 141.01,5.54 141.07,5.55 141.13,5.60 141.19,5.61 141.24,5.66 141.30,5.65 141.36,5.63 141.41,5.59 141.47,5.55 141.53,5.52 141.58,5.50 141.64,5.43 141.70,5.49 141.75,5.47 141.81,5.53 141.87,5.60 141.92,5.57 141.98,5.46 142.04,5.27 142.09,5.23 142.15,5.16 142.21,5.15 142.26,5.16 142.32,5.26 142.38,5.31 142.43,5.38 142.49,5.39 142.55,5.40 142.60,5.33 142.66,5.29 142.72,5.25 142.77,5.27 142.83,5.26 142.89,5.68 142.94,5.90 143.00,5.94 143.06,5.95 143.11,5.87 143.17,5.87 143.23,5.88 143.28,5.92 143.34,5.92 143.40,5.72 143.45,5.67 143.51,5.66 143.57,5.72 143.62,5.83 143.68,5.84 143.74,5.78 143.79,5.75 143.85,5.86 143.91,6.11 143.96,6.43 144.02,6.45 144.08,6.51 144.13,6.36 144.19,6.40 144.25,6.58 144.30,6.73 144.36,6.67 144.42,6.89 144.47,6.85 144.53,6.92 144.59,7.11 144.64,7.33 144.70,7.71 144.76,7.87 144.81,8.04 144.87,8.16 144.93,8.24 144.98,8.25 145.04,8.30 145.10,8.39 145.15,8.50 145.21,8.60 145.27,8.83 145.32,9.04 145.38,9.19 145.44,9.32 145.49,9.46 145.55,9.58 145.61,9.75 145.66,9.94 145.72,10.14 145.78,10.37 145.83,10.55 145.89,10.70 145.95,10.78 146.00,10.78 146.06,10.78 146.12,10.77 146.17,10.78 146.23,10.81 146.29,10.88 146.34,10.91 146.40,10.84 146.46,10.71 146.51,10.56 146.57,10.48 146.63,10.39 146.68,10.22 146.74,10.14 146.80,9.97 146.85,9.84 146.91,9.58 146.97,9.47 147.02,9.52 147.08,9.56 147.14,9.46 147.19,9.55 147.25,9.68 147.31,9.63 147.36,9.60 147.42,9.99 147.48,10.21 147.53,10.43 147.59,10.58 147.65,10.59 147.70,10.94 147.76,11.07 147.82,10.76 147.87,10.70 147.93,10.85 147.99,11.00 148.04,11.24 148.10,11.42 148.16,11.93 148.21,12.35 148.27,12.64 148.33,12.85 148.38,12.86 148.44,13.17 148.50,13.23 148.55,13.01 148.61,12.95 148.67,12.91 148.72,12.97 148.78,13.39 148.84,13.48 148.89,13.68 148.95,13.81 149.01,13.81 149.06,13.91 149.12,14.06 149.18,14.29 149.23,14.78 149.29,14.93 149.35,15.22 149.40,14.93 149.46,14.27 149.52,13.91 149.57,14.00 149.63,14.24 149.69,14.72 149.74,15.17 149.80,15.66 149.86,15.88 149.91,15.96 149.97,16.00 150.03,16.21 150.09,16.67 150.14,55.97 150.20,55.95 150.26,55.91 150.31,55.87 150.37,55.86 150.43,55.86 150.48,55.84 150.54,55.89 150.60,55.83 150.65,55.81 150.71,55.66 150.77,55.79 150.82,55.70 150.88,55.82 150.94,55.76 150.99,55.72 151.05,55.78 151.11,55.77 151.16,55.77 151.22,55.78 151.28,55.77 151.33,55.76 151.39,55.66 151.45,55.61 151.50,55.58 151.56,55.53 151.62,55.49 151.67,55.44 151.73,55.40 151.79,55.30 151.84,55.25 151.90,55.19 151.96,55.13 152.01,55.07 152.07,54.94 152.13,54.87 152.18,54.81 152.24,54.64 152.30,54.38 152.35,54.13 152.41,53.90 152.47,53.30 152.52,53.22 152.58,53.22 152.64,53.19 152.69,52.71 152.75,52.69 152.81,52.75 152.86,52.62 152.92,52.62 152.98,52.62 153.03,52.52 153.09,52.32 153.15,52.14 153.20,52.35 153.26,52.35 153.32,52.08 153.37,52.19 153.43,52.48 153.49,52.54 153.54,52.57 153.60,52.49 153.66,52.18 153.71,51.65 153.77,51.69 153.83,51.23 153.88,51.38 153.94,51.34 154.00,51.11 154.05,51.37 154.11,51.32 154.17,51.28 154.22,51.25 154.28,51.23 154.34,51.25 154.39,51.24 154.45,51.29 154.51,51.08 154.56,50.88 154.62,50.73 154.68,50.92 154.73,51.19 154.79,50.88 154.85,50.85 154.90,50.54 154.96,50.41 155.02,50.09 155.07,50.34 155.13,50.07 155.19,49.53 155.24,49.13 155.30,48.60 155.36,48.16 155.41,48.16 155.47,47.80 155.53,47.51 155.58,47.36 155.64,46.95 155.70,47.05 155.75,46.89 155.81,47.11 155.87,47.38 155.92,47.49 155.98,47.71 156.04,47.63 156.09,47.95 156.15,47.91 156.21,47.92 156.26,48.38 156.32,48.33 156.38,48.25 156.43,48.24 156.49,48.26 156.55,48.30 156.60,48.37 156.66,48.45 156.72,48.55 156.77,48.57 156.83,48.63 156.89,48.79 156.94,49.08 157.00,48.84 157.06,48.52 157.11,48.44 157.17,48.29 157.23,48.35 157.28,48.58 157.34,48.66 157.40,49.08 157.45,48.85 157.51,49.20 157.57,49.54 157.62,49.20 157.68,48.93 157.74,48.56 157.79,48.21 157.85,48.53 157.91,48.59 157.96,48.17 158.02,48.41 158.08,48.81 158.13,48.39 158.19,48.39 158.25,47.97 158.30,48.23 158.36,47.88 158.42,47.47 158.47,47.57 158.53,47.56 158.59,47.65 158.64,48.24 158.70,48.53 158.76,48.29 158.81,48.54 158.87,48.17 158.93,48.29 158.99,47.77 159.04,47.91 159.10,48.08 159.16,48.05 159.21,48.24 159.27,48.30 159.33,48.20 159.38,48.09 159.44,48.27 159.50,48.18 159.55,48.38 159.61,48.38 159.67,48.29 159.72,48.55 159.78,48.83 159.84,49.08 159.89,49.21 159.95,49.40 160.01,49.50 160.06,49.50 160.12,49.90 160.18,49.99 160.23,50.06 160.29,50.40 160.35,50.44 160.40,50.80 160.46,50.93 160.52,50.87 160.57,50.69 160.63,50.82 160.69,50.84 160.74,50.90 160.80,50.56 160.86,50.12 160.91,49.64 160.97,49.62 161.03,49.49 161.08,49.56 161.14,49.82 161.20,50.71 161.25,50.97 161.31,51.23 161.37,51.20 161.42,50.91 161.48,51.13 161.54,51.00 161.59,50.85 161.65,51.03 161.71,50.74 161.76,50.60 161.82,50.80 161.88,50.92 161.93,50.93 161.99,50.69 162.05,50.59 162.10,50.45 162.16,50.23 162.22,50.05 162.27,49.81 162.33,49.71 162.39,49.81 162.44,49.98 162.50,50.23 162.56,49.89 162.61,50.08 162.67,50.26 162.73,49.98 162.78,50.25 162.84,50.27 162.90,50.27 162.95,50.52 163.01,50.94 163.07,50.96 163.12,51.05 163.18,51.27 163.24,51.18 163.29,51.31 163.35,51.02 163.41,50.29 163.46,50.17 163.52,50.32 163.58,49.77 163.63,49.93 163.69,49.26 163.75,49.77 163.80,49.56 163.86,49.94 163.92,49.83 163.97,50.12 164.03,50.16 164.09,50.36 164.14,50.61 164.20,50.48 164.26,50.82 164.31,50.72 164.37,50.24 164.43,50.57 164.48,50.30 164.54,49.96 164.60,50.22 164.65,49.59 164.71,49.57 164.77,49.30 164.82,49.63 164.88,49.45 164.94,49.21 164.99,49.21 165.05,49.06 165.11,48.88 165.16,48.90 165.22,49.50 165.28,49.00 165.33,48.93 165.39,48.89 165.45,49.47 165.50,49.49 165.56,49.35 165.62,49.49 165.67,49.13 165.73,48.88 165.79,49.37 165.84,49.14 165.90,49.55 165.96,49.43 166.01,49.28 166.07,49.46 166.13,49.60 166.18,49.44 166.24,49.50 166.30,49.28 166.35,49.30 166.41,49.32 166.47,49.31 166.52,49.35 166.58,48.95 166.64,49.19 166.69,49.38 166.75,49.22 166.81,49.12 166.86,49.26 166.92,49.00 166.98,49.08 167.03,48.39 167.09,48.06 167.15,47.99 167.20,48.61 167.26,49.16 167.32,49.38 167.37,49.38 167.43,49.37 167.49,49.32 167.54,49.32 167.60,49.22 167.66,49.11 167.72,48.52 167.77,48.52 167.83,48.15 167.89,47.98 167.94,47.81 168.00,47.74 168.06,47.71 168.11,48.20 168.17,48.28 168.23,48.36 168.28,48.29 168.34,48.31 168.40,48.10 168.45,47.83 168.51,47.42 168.57,47.52 168.62,47.20 168.68,47.00 168.74,47.25 168.79,47.25 168.85,47.40 168.91,47.10 168.96,47.19 169.02,47.57 169.08,47.93 169.13,48.12 169.19,47.84 169.25,47.33 169.30,47.33 169.36,46.82 169.42,46.30 169.47,46.04 169.53,45.79 169.59,45.52 169.64,45.46 169.70,45.08 169.76,45.12 169.81,45.26 169.87,45.42 169.93,45.34 169.98,44.83 170.04,44.44 170.10,44.61 170.15,44.41 170.21,43.93 170.27,43.60 170.32,43.21 170.38,42.99 170.44,42.80 170.49,42.59 170.55,42.32 170.61,42.32 170.66,42.47 170.72,42.26 170.78,42.77 170.83,42.59 170.89,42.04 170.95,41.66 171.00,41.71 171.06,41.31 171.12,41.30 171.17,41.39 171.23,41.11 171.29,41.22 171.34,41.16 171.40,40.99 171.46,40.81 171.51,40.81 171.57,40.86 171.63,40.66 171.68,40.34 171.74,40.52 171.80,40.41 171.85,40.28 171.91,39.91 171.97,39.85 172.02,40.10 172.08,39.81 172.14,39.73 172.19,39.40 172.25,39.32 172.31,39.30 172.36,39.30 172.42,39.28 172.48,38.97 172.53,38.99 172.59,39.10 172.65,38.90 172.70,38.72 172.76,39.08 172.82,38.89 172.87,39.03 172.93,38.75 172.99,38.91 173.04,38.65 173.10,38.54 173.16,38.17 173.21,38.42 173.27,38.51 173.33,38.67 173.38,38.42 173.44,38.76 173.50,38.88 173.55,38.65 173.61,38.76 173.67,38.60 173.72,38.71 173.78,38.59 173.84,38.83 173.89,38.68 173.95,38.70 174.01,38.58 174.06,38.68 174.12,38.70 174.18,38.84 174.23,38.95 174.29,38.95 174.35,39.04 174.40,39.02 174.46,38.96 174.52,38.90 174.57,38.78 174.63,38.92 174.69,38.72 174.74,38.72 174.80,38.66 174.86,38.37 174.91,38.70 174.97,38.77 175.03,38.55 175.08,38.94 175.14,38.88 175.20,38.40 175.25,38.80 175.31,38.90 175.37,39.04 175.42,39.13 175.48,39.45 175.54,39.16 175.59,39.19 175.65,39.47 175.71,39.51 175.76,39.47 175.82,39.47 175.88,39.27 175.93,39.04 175.99,39.26 176.05,39.22 176.10,39.21 176.16,39.47 176.22,39.45 176.27,39.46 176.33,39.46 176.39,39.69 176.44,40.00 176.50,39.51 176.56,39.18 176.62,39.58 176.67,39.93 176.73,39.51 176.79,39.92 176.84,40.21 176.90,40.11 176.96,40.35 177.01,40.44 177.07,40.84 177.13,40.69 177.18,40.75 177.24,40.91 177.30,40.55 177.35,41.07 177.41,41.18 177.47,40.89 177.52,41.20 177.58,41.04 177.64,41.06 177.69,40.88 177.75,40.96 177.81,40.94 177.86,41.15 177.92,41.02 177.98,41.48 178.03,41.47 178.09,41.82 178.15,41.45 178.20,41.37 178.26,41.86 178.32,42.04 178.37,42.09 178.43,42.09 178.49,41.96 178.54,41.81 178.60,42.05 178.66,42.11 178.71,42.14 178.77,42.30 178.83,42.37 178.88,42.29 178.94,42.49 179.00,42.58 179.05,42.64 179.11,42.62 179.17,42.98 179.22,42.91 179.28,42.82 179.34,42.86 179.39,42.54 179.45,42.75 179.51,42.75 179.56,43.33 179.62,43.05 179.68,42.92 179.73,42.91 179.79,42.93 179.85,42.79 179.90,42.59 179.96,42.43 180.02,42.32 180.07,42.25 180.13,42.38 180.19,41.97 180.24,42.45 180.30,42.35 180.36,41.87 180.41,42.25 180.47,42.20 180.53,42.21 180.58,42.29 180.64,42.44 180.70,42.51 180.75,42.70 180.81,42.49 180.87,42.65 180.92,42.40 180.98,41.92 181.04,41.99 181.09,42.01 181.15,42.00 181.21,42.04 181.26,41.83 181.32,41.70 181.38,41.70 181.43,41.38 181.49,41.17 181.55,41.02 181.60,40.90 181.66,40.85 181.72,41.21 181.77,40.99 181.83,41.15 181.89,41.15 181.94,40.96 182.00,40.74 182.06,40.63 182.11,40.39 182.17,40.31 182.23,40.02 182.28,39.56 182.34,39.53 182.40,39.56 182.45,39.06 182.51,38.80 182.57,39.11 182.62,38.99 182.68,38.95 182.74,39.30 182.79,38.93 182.85,38.61 182.91,38.32 182.96,38.05 183.02,37.80 183.08,37.63 183.13,38.06 183.19,37.57 183.25,37.60 183.30,37.51 183.36,37.03 183.42,36.55 183.47,36.91 183.53,37.34 183.59,36.92 183.64,36.77 183.70,36.46 183.76,37.05 183.81,37.09 183.87,37.30 183.93,37.69 183.98,38.21 184.04,38.14 184.10,38.63 184.15,38.30 184.21,37.99 184.27,37.49 184.32,37.59 184.38,37.26 184.44,37.22 184.49,37.30 184.55,37.05 184.61,36.47 184.66,36.37 184.72,36.46 184.78,36.76 184.83,36.90 184.89,36.56 184.95,36.56 185.00,36.44 185.06,36.37 185.12,36.72 185.17,37.36 185.23,37.67 185.29,37.80 185.34,37.80 185.40,37.61 185.46,37.41 185.52,37.17 185.57,37.16 185.63,37.32 185.69,37.25 185.74,37.50 185.80,37.11 185.86,37.35 185.91,37.23 185.97,37.38 186.03,37.34 186.08,37.52 186.14,37.17 186.20,37.22 186.25,37.00 186.31,36.92 186.37,36.94 186.42,36.97 186.48,37.04 186.54,37.14 186.59,37.24 186.65,37.11 186.71,37.06 186.76,37.34 186.82,37.44 186.88,37.33 186.93,37.58 186.99,37.58 187.05,37.09 187.10,36.52 187.16,36.72 187.22,36.60 187.27,36.50 187.33,36.53 187.39,36.98 187.44,37.01 187.50,37.33 187.56,37.31 187.61,37.00 187.67,37.37 187.73,37.48 187.78,37.27 187.84,37.56 187.90,37.44 187.95,37.18 188.01,37.39 188.07,37.25 188.12,37.04 188.18,36.83 188.24,36.66 188.29,36.85 188.35,36.85 188.41,36.45 188.46,36.53 188.52,36.31 188.58,36.43 188.63,36.21 188.69,36.50 188.75,36.87 188.80,36.73 188.86,36.81 188.92,36.75 188.97,36.78 189.03,37.28 189.09,37.16 189.14,36.87 189.20,36.62 189.26,36.46 189.31,36.14 189.37,36.00 189.43,35.44 189.48,35.35 189.54,35.88 189.60,36.11 189.65,35.76 189.71,35.96 189.77,35.86 189.82,35.85 189.88,35.91 189.94,35.99 189.99,35.93 190.05,36.16 190.11,36.02 190.16,36.02 190.22,36.02 190.28,35.86 190.33,35.48 190.39,35.12 190.45,35.17 190.50,35.17 190.56,35.11 190.62,35.11 190.67,35.01 190.73,34.41 190.79,34.53 190.84,34.70 190.90,34.72 190.96,34.53 191.01,34.34 191.07,34.12 191.13,34.11 191.18,34.08 191.24,34.13 191.30,34.05 191.35,33.86 191.41,33.75 191.47,33.64 191.52,33.39 191.58,33.38 191.64,33.15 191.69,33.23 191.75,32.96 191.81,32.67 191.86,32.54 191.92,32.29 191.98,32.20 192.03,32.20 192.09,32.12 192.15,31.87 192.20,31.81 192.26,31.60 192.32,31.60 192.37,31.39 192.43,31.45 192.49,31.25 192.54,30.99 192.60,31.12 192.66,30.92 192.71,30.97 192.77,30.84 192.83,30.70 192.88,30.93 192.94,30.78 193.00,30.63 193.05,31.04 193.11,30.71 193.17,30.91 193.22,31.18 193.28,31.19 193.34,30.83 193.39,30.83 193.45,30.43 193.51,30.61 193.56,30.46 193.62,30.75 193.68,30.46 193.73,30.16 193.79,30.08 193.85,29.88 193.90,30.11 193.96,30.05 194.02,30.50 194.07,30.35 194.13,30.26 194.19,30.23 194.25,30.24 194.30,30.38 194.36,30.69 194.42,30.76 194.47,30.58 194.53,30.72 194.59,30.63 194.64,30.64 194.70,30.68 194.76,30.45 194.81,29.05 194.87,29.54 194.93,28.95 194.98,29.25 195.04,29.62 195.10,29.24 195.15,29.65 195.21,29.49 195.27,29.16 195.32,28.78 195.38,28.38 195.44,28.37 195.49,28.46 195.55,28.53 195.61,28.62 195.66,28.70 195.72,28.67 195.78,28.23 195.83,28.49 195.89,28.48 195.95,28.09 196.00,28.37 196.06,28.19 196.12,28.55 196.17,28.95 196.23,28.98 196.29,29.39 196.34,29.83 196.40,29.82 196.46,29.58 196.51,30.02 196.57,30.51 196.63,30.51 196.68,30.30 196.74,30.13 196.80,29.92 196.85,30.11 196.91,30.33 196.97,30.55 197.02,30.74 197.08,30.92 197.14,31.09 197.19,31.24 197.25,31.24 197.31,31.44 197.36,31.67 197.42,31.88 197.48,32.11 197.53,32.13 197.59,32.25 197.65,32.44 197.70,32.63 197.76,33.00 197.82,32.77 197.87,33.07 197.93,32.98 197.99,33.36 198.04,33.17 198.10,33.04 198.16,32.91 198.21,33.00 198.27,33.00 198.33,33.06 198.38,33.03 198.44,33.16 198.50,33.05 198.55,32.98 198.61,32.89 198.67,32.56 198.72,32.49 198.78,32.01 198.84,31.70 198.89,31.70 198.95,31.51 199.01,31.45 199.06,31.06 199.12,30.77 199.18,30.59 199.23,30.15 199.29,30.52 199.35,30.34 199.40,29.84 199.46,29.74 199.52,29.38 199.57,29.63 199.63,29.37 199.69,29.05 199.74,29.33 199.80,29.17 199.86,29.48 199.91,29.16 199.97,29.06 200.03,28.63 200.08,28.40 200.14,28.09 200.20,28.27 200.25,28.39 200.31,28.03 200.37,28.25 200.42,28.05 200.48,27.64 200.54,27.60 200.59,27.18 200.65,27.22 200.71,26.80 200.76,26.75 200.82,26.46 200.88,25.93 200.93,25.48 200.99,25.13 201.05,25.13 201.10,25.01 201.16,25.31 201.22,25.10 201.27,25.10 201.33,24.40 201.39,24.32 201.44,24.05 201.50,23.83 201.56,23.41 201.61,23.20 201.67,23.36 201.73,23.18 201.78,23.62 201.84,23.32 201.90,22.43 201.95,22.36 202.01,22.07 202.07,22.07 202.12,21.92 202.18,22.27 202.24,22.53 202.29,22.23 202.35,21.88 202.41,21.53 202.46,21.39 202.52,20.99 202.58,21.12 202.63,20.80 202.69,20.35 202.75,20.44 202.80,20.12 202.86,19.79 202.92,19.89 202.97,19.76 203.03,19.53 203.09,19.23 203.15,19.05 203.20,18.90 203.26,18.94 203.32,18.54 203.37,18.57 203.43,18.25 203.49,18.02 203.54,17.91 203.60,17.87 203.66,17.63 203.71,17.31 203.77,17.15 203.83,17.27 203.88,17.03 203.94,16.76 204.00,16.89 204.05,16.89 204.11,16.89 204.17,16.68 204.22,16.40 204.28,16.07 204.34,15.85 204.39,16.18 204.45,15.79 204.51,15.62 204.56,15.47 204.62,15.38 204.68,15.31 204.73,15.27 204.79,15.21 204.85,15.15 204.90,15.08 204.96,14.91 205.02,14.65 205.07,14.38 205.13,14.48 205.19,14.22 205.24,14.05 205.30,13.88 205.36,13.91 205.41,13.91 205.47,13.82 205.53,13.63 205.58,13.55 205.64,13.37 205.70,13.21 205.75,13.00 205.81,13.00 205.87,12.84 205.92,12.69 205.98,12.49 206.04,12.41 206.09,12.24 206.15,12.23 206.21,12.14 206.26,12.01 206.32,12.04 206.38,11.94 206.43,11.79 206.49,11.93 206.55,11.83 206.60,12.09 206.66,11.98 206.72,11.79 206.77,12.01 206.83,11.77 206.89,12.01 206.94,11.83 207.00,12.14 207.06,11.66 207.11,11.87 207.17,11.52 207.23,11.19 207.28,11.41 207.34,11.09 207.40,11.09 207.45,11.05 207.51,11.14 207.57,10.65 207.62,10.56 207.68,10.15 207.74,10.46 207.79,9.79 207.85,9.60 207.91,9.45 207.96,9.45 208.02,9.54 208.08,9.97 208.13,10.21 208.19,9.94 208.25,9.74 208.30,9.74 208.36,9.60 208.42,9.33 208.47,9.19 208.53,9.19 208.59,9.26 208.64,9.39 208.70,9.20 208.76,9.36 208.81,8.71 208.87,8.98 208.93,8.78 208.98,9.54 209.04,9.06 209.10,9.05 209.15,8.38 209.21,8.35 209.27,8.57 209.32,8.24 209.38,8.57 209.44,8.29 209.49,8.59 209.55,8.48 209.61,8.36 209.66,8.36 209.72,8.01 209.78,7.63 209.83,7.75 209.89,7.48 209.95,7.38 210.00,7.54 210.06,7.32 210.12,7.28 210.17,7.12 210.23,7.09 210.29,7.09 210.34,6.85 210.40,6.60 210.46,6.76 210.51,6.66 210.57,6.61 210.63,6.98 210.68,7.21 210.74,7.31 210.80,7.31 210.85,7.35 210.91,7.20 210.97,6.89 211.02,6.30 211.08,6.36 211.14,6.36 211.19,6.46 211.25,6.26 211.31,5.87 211.36,5.87 211.42,5.52 211.48,5.24 211.53,5.33 211.59,5.18 211.65,5.29 211.70,5.11 211.76,5.07 211.82,4.73 211.87,4.90 211.93,4.88 211.99,4.72 212.05,4.75 212.10,4.71 212.16,4.71 212.22,4.84 212.27,4.72 212.33,4.86 212.39,4.68 212.44,4.51 212.50,4.53 212.56,4.38 212.61,4.38 212.67,4.15 212.73,4.22 212.78,4.29 212.84,4.36 212.90,4.40 212.95,4.48 213.01,4.47 213.07,4.49 213.12,4.46 213.18,4.43 213.24,4.50 213.29,4.59 213.35,4.68 213.41,4.89 213.46,5.19 213.52,5.34 213.58,5.55 213.63,5.68 213.69,5.77 213.75,5.82 213.80,5.84 213.86,5.69 213.92,5.62 213.97,5.44 214.03,5.58 214.09,5.61 214.14,5.65 214.20,5.58 214.26,5.64 214.31,5.77 214.37,5.66 214.43,5.61 214.48,5.45 214.54,5.38 214.60,5.53 214.65,5.51 214.71,5.48 214.77,5.67 214.82,5.49 214.88,5.44 214.94,5.55 214.99,5.43 215.05,5.21 215.11,5.20 215.16,5.13 215.22,5.15 215.28,5.35 215.33,5.32 215.39,5.44 215.45,5.44 215.50,5.53 215.56,5.37 215.62,5.38 215.67,5.38 215.73,5.14 215.79,5.30 215.84,5.78 215.90,6.08 215.96,5.80 216.01,5.87 216.07,5.90 216.13,5.90 216.18,5.99 216.24,6.00 216.30,5.86 216.35,5.62 216.41,5.74 216.47,5.73 216.52,5.70 216.58,5.85 216.64,5.86 216.69,5.88 216.75,5.79 216.81,5.88 216.86,5.95 216.92,6.43 216.98,6.68 217.03,6.47 217.09,6.47 217.15,6.32 217.20,6.68 217.26,6.59 217.32,6.75 217.37,6.93 217.43,7.10 217.49,7.23 217.54,7.42 217.60,7.64 217.66,7.78 217.71,7.90 217.77,7.95 217.83,8.23 217.88,8.23 217.94,8.32 218.00,8.40 218.05,8.39 218.11,8.44 218.17,8.71 218.22,8.81 218.28,9.07 218.34,9.23 218.39,9.30 218.45,9.53 218.51,9.54 218.56,9.79 218.62,10.02 218.68,10.07 218.73,10.32 218.79,10.51 218.85,10.67 218.90,10.85 218.96,10.80 219.02,10.77 219.07,10.76 219.13,10.77 219.19,10.81 219.24,10.88 219.30,10.92 219.36,10.77 219.41,10.70 219.47,10.66 219.53,10.38 219.58,10.35 219.64,10.28 219.70,10.22 219.75,9.85 219.81,9.85 219.87,9.57 219.92,9.57 219.98,9.50 220.04,9.41 220.09,9.32 220.15,9.33 220.21,9.41 220.26,9.66 220.32,9.57 220.38,9.91 220.43,10.26 220.49,10.52 220.55,10.69 220.60,10.46 220.66,10.69 220.72,10.78 220.77,10.59 220.83,10.88 220.89,11.04 220.95,11.04 221.00,10.96 221.06,11.30 221.12,11.74 221.17,12.24 221.23,12.42 221.29,12.91 221.34,12.95 221.40,13.06 221.46,12.99 221.51,13.13 221.57,12.72 221.63,12.84 221.68,13.29 221.74,13.46 221.80,13.28 221.85,13.60 221.91,13.77 221.97,13.86 222.02,13.98 222.08,14.11 222.14,14.43 222.19,14.86 222.25,15.11 222.31,15.08 222.36,14.65 222.42,14.13 222.48,13.86 222.53,14.12 222.59,14.14 222.65,14.65 222.70,15.41 222.76,15.74 222.82,15.89 222.87,16.12 222.93,15.96 222.99,16.29 223.04,16.68 223.10,55.92 223.16,55.54 223.21,55.54 223.27,55.82 223.33,55.26 223.38,55.26 223.44,55.26 223.50,55.69 223.55,55.69 223.61,55.01 223.67,55.01 223.72,55.71 223.78,55.53 223.84,55.53 223.89,55.53 223.95,55.44 224.01,55.44 224.06,55.44 224.12,55.74 224.18,55.74 224.23,55.74 224.29,55.65 224.35,55.65 224.40,55.62 224.46,55.52 224.52,55.52 224.57,55.52 224.63,55.40 224.69,55.40 224.74,55.40 224.80,55.27 224.86,55.27 224.91,55.10 224.97,55.10 225.03,54.94 225.08,54.72 225.14,54.72 225.20,54.72 225.25,54.37 225.31,53.56 225.37,53.56 225.42,53.56 225.48,52.93 225.54,52.93 225.59,52.93 225.65,52.93 225.71,52.65 225.76,52.65 225.82,51.89 225.88,52.41 225.93,52.41 225.99,51.83 226.05,51.83 226.10,51.83 226.16,51.79 226.22,51.79 226.27,51.79 226.33,52.11 226.39,52.11 226.44,52.17 226.50,52.17 226.56,52.17 226.61,51.43 226.67,51.27 226.73,51.27 226.78,51.27 226.84,51.43 226.90,50.68 226.95,50.68 227.01,50.68 227.07,50.40 227.12,50.40 227.18,50.40 227.24,50.50 227.29,50.50 227.35,50.50 227.41,50.76 227.46,50.76 227.52,50.76 227.58,49.81 227.63,50.60 227.69,50.60 227.75,50.60 227.80,50.60 227.86,50.00 227.92,50.00 227.97,50.00 228.03,50.00 228.09,49.15 228.14,49.15 228.20,49.15 228.26,47.97 228.31,47.84 228.37,47.84 228.43,47.84 228.48,46.79 228.54,46.97 228.60,46.97 228.65,46.97 228.71,46.72 228.77,46.72 228.82,47.19 228.88,47.20 228.94,47.20 228.99,47.20 229.05,46.85 229.11,46.85 229.16,46.85 229.22,48.12 229.28,48.12 229.33,48.17 229.39,48.17 229.45,48.17 229.50,48.39 229.56,48.39 229.62,48.39 229.68,48.57 229.73,48.57 229.79,48.76 229.85,48.76 229.90,48.76 229.96,48.13 230.02,48.13 230.07,48.57 230.13,48.67 230.19,48.67 230.24,48.67 230.30,49.15 230.36,49.15 230.41,49.15 230.47,49.15 230.53,48.52 230.58,48.52 230.64,48.52 230.70,47.17 230.75,47.17 230.81,47.90 230.87,47.90 230.92,47.90 230.98,48.47 231.04,48.47 231.09,47.06 231.15,47.06 231.21,47.54 231.26,47.54 231.32,47.54 231.38,46.55 231.43,47.67 231.49,47.67 231.55,48.19 231.60,48.19 231.66,49.18 231.72,47.52 231.77,47.52 231.83,47.52 231.89,47.86 231.94,47.86 232.00,48.31 232.06,48.31 232.11,47.89 232.17,48.21 232.23,48.21 232.28,48.21 232.34,47.55 232.40,47.98 232.45,47.98 232.51,47.98 232.57,47.98 232.62,48.64 232.68,48.64 232.74,48.64 232.79,49.04 232.85,49.04 232.91,48.82 232.96,49.87 233.02,49.87 233.08,49.87 233.13,50.38 233.19,50.38 233.25,50.38 233.30,50.47 233.36,50.85 233.42,50.85 233.47,50.85 233.53,50.33 233.59,50.42 233.64,50.42 233.70,49.51 233.76,49.51 233.81,49.51 233.87,48.48 233.93,49.66 233.98,49.66 234.04,50.26 234.10,50.26 234.15,51.17 234.21,51.17 234.27,51.17 234.32,50.92 234.38,50.92 234.44,50.92 234.49,50.92 234.55,50.51 234.61,50.51 234.66,50.51 234.72,50.99 234.78,50.99 234.83,50.51 234.89,50.23 234.95,50.23 235.00,50.23 235.06,49.64 235.12,49.64 235.17,49.64 235.23,49.28 235.29,49.28 235.34,49.67 235.40,49.67 235.46,49.67 235.51,50.20 235.57,50.20 235.63,50.68 235.68,50.08 235.74,50.08 235.80,50.98 235.85,50.98 235.91,50.98 235.97,51.04 236.02,51.04 236.08,51.04 236.14,50.95 236.19,50.95 236.25,50.95 236.31,50.95 236.36,48.98 236.42,48.98 236.48,48.98 236.53,49.41 236.59,49.41 236.65,49.41 236.70,50.37 236.76,48.78 236.82,48.78 236.87,50.11 236.93,50.11 236.99,50.11 237.04,49.80 237.10,49.80 237.16,49.80 237.21,50.73 237.27,50.73 237.33,49.19 237.38,49.19 237.44,50.15 237.50,50.15 237.55,50.15 237.61,48.89 237.67,50.07 237.72,50.07 237.78,49.18 237.84,49.18 237.89,49.18 237.95,49.18 238.01,48.85 238.06,48.85 238.12,48.85 238.18,50.10 238.23,48.89 238.29,48.89 238.35,48.89 238.40,50.02 238.46,48.85 238.52,48.85 238.58,48.85 238.63,49.70 238.69,48.09 238.75,48.09 238.80,49.33 238.86,49.33 238.92,49.33 238.97,48.71 239.03,48.71 239.09,48.71 239.14,49.11 239.20,49.11 239.26,49.11 239.31,49.22 239.37,49.22 239.43,49.38 239.48,49.38 239.54,47.93 239.60,48.87 239.65,48.87 239.71,48.87 239.77,49.23 239.82,49.23 239.88,47.43 239.94,48.52 239.99,48.52 240.05,48.52 240.11,47.51 240.16,49.12 240.22,49.12 240.28,49.12 240.33,49.12 240.39,49.24 240.45,49.24 240.50,49.24 240.56,48.73 240.62,48.73 240.67,48.73 240.73,48.73 240.79,47.39 240.84,47.39 240.90,47.39 240.96,47.10 241.01,47.10 241.07,48.30 241.13,48.26 241.18,48.26 241.24,48.26 241.30,47.98 241.35,47.98 241.41,47.98 241.47,47.04 241.52,47.04 241.58,47.04 241.64,46.22 241.69,47.37 241.75,47.37 241.81,47.37 241.86,46.63 241.92,46.63 241.98,47.77 242.03,47.77 242.09,48.18 242.15,48.18 242.20,48.18 242.26,48.18 242.32,46.81 242.37,46.81 242.43,46.81 242.49,45.79 242.54,45.79 242.60,45.79 242.66,44.89 242.71,44.89 242.77,44.89 242.83,44.83 242.88,44.83 242.94,44.83 243.00,43.37 243.05,43.48 243.11,43.48 243.17,43.48 243.22,43.69 243.28,43.69 243.34,43.69 243.39,42.82 243.45,42.82 243.51,42.82 243.56,42.82 243.62,42.08 243.68,42.08 243.73,42.08 243.79,42.56 243.85,42.56 243.90,42.56 243.96,41.54 244.02,41.54 244.07,41.54 244.13,41.45 244.19,40.72 244.24,40.72 244.30,40.72 244.36,40.72 244.41,40.32 244.47,40.32 244.53,40.61 244.58,40.61 244.64,40.61 244.70,40.61 244.75,40.24 244.81,40.24 244.87,40.24 244.92,39.33 244.98,40.10 245.04,40.10 245.09,40.10 245.15,39.08 245.21,39.08 245.26,40.26 245.32,40.26 245.38,39.08 245.43,39.08 245.49,39.08 245.55,39.54 245.60,39.54 245.66,39.54 245.72,39.54 245.77,38.82 245.83,38.82 245.89,38.82 245.94,38.88 246.00,38.88 246.06,38.88 246.11,38.15 246.17,38.15 246.23,39.11 246.28,39.11 246.34,38.46 246.40,38.46 246.45,39.54 246.51,39.54 246.57,38.80 246.62,38.80 246.68,38.80 246.74,38.68 246.79,39.06 246.85,39.06 246.91,39.06 246.96,38.92 247.02,38.92 247.08,38.92 247.13,39.19 247.19,39.19 247.25,39.19 247.30,39.19 247.36,39.29 247.42,39.28 247.48,39.28 247.53,38.64 247.59,38.64 247.65,38.64 247.70,39.51 247.76,38.40 247.82,38.40 247.87,38.40 247.93,39.57 247.99,38.15 248.04,38.15 248.10,39.24 248.16,39.24 248.21,39.24 248.27,38.43 248.33,39.48 248.38,39.48 248.44,39.48 248.50,38.69 248.55,39.51 248.61,39.51 248.67,39.51 248.72,39.11 248.78,39.11 248.84,39.11 248.89,39.11 248.95,39.81 249.01,38.95 249.06,38.95 249.12,39.77 249.18,39.77 249.23,38.93 249.29,38.93 249.35,39.55 249.40,39.55 249.46,39.55 249.52,38.94 249.57,38.94 249.63,38.94 249.69,39.62 249.74,39.62 249.80,40.41 249.86,40.41 249.91,40.41 249.97,40.73 250.03,40.73 250.08,40.73 250.14,40.73 250.20,41.06 250.25,41.06 250.31,41.06 250.37,41.06 250.42,40.44 250.48,40.39 250.54,40.39 250.59,40.39 250.65,40.39 250.71,40.39 250.76,40.93 250.82,40.93 250.88,39.55 250.93,40.62 250.99,40.62 251.05,40.62 251.10,40.62 251.16,40.89 251.22,40.89 251.27,40.89 251.33,42.12 251.39,42.12 251.44,41.59 251.50,41.59 251.56,42.05 251.61,42.05 251.67,42.41 251.73,42.41 251.78,42.41 251.84,42.29 251.90,43.14 251.95,43.14 252.01,43.20 252.07,43.20 252.12,43.20 252.18,43.20 252.24,42.62 252.29,42.62 252.35,42.62 252.41,43.59 252.46,43.59 252.52,43.59 252.58,42.94 252.63,42.94 252.69,42.94 252.75,41.43 252.80,41.43 252.86,40.81 252.92,40.81 252.97,40.81 253.03,40.21 253.09,42.08 253.14,42.08 253.20,41.52 253.26,41.52 253.31,41.47 253.37,41.47 253.43,41.47 253.48,42.03 253.54,42.03 253.60,42.03 253.65,42.77 253.71,42.77 253.77,42.77 253.82,41.86 253.88,41.86 253.94,42.06 253.99,42.06 254.05,42.06 254.11,42.22 254.16,42.22 254.22,41.25 254.28,42.05 254.33,42.05 254.39,42.05 254.45,41.73 254.50,41.73 254.56,41.73 254.62,41.78 254.67,41.78 254.73,41.78 254.79,41.46 254.84,40.91 254.90,40.91 254.96,40.91 255.01,40.43 255.07,40.43 255.13,39.40 255.18,39.40 255.24,39.40 255.30,39.63 255.35,39.63 255.41,38.08 255.47,39.03 255.52,39.03 255.58,39.03 255.64,39.00 255.69,39.00 255.75,39.00 255.81,39.00 255.86,38.27 255.92,38.27 255.98,38.27 256.03,37.84 256.09,37.84 256.15,37.84 256.21,37.12 256.26,37.12 256.32,37.12 256.38,35.99 256.43,35.99 256.49,36.50 256.55,36.50 256.60,36.50 256.66,36.08 256.72,36.08 256.77,36.08 256.83,37.09 256.89,37.09 256.94,37.09 257.00,38.09 257.06,38.09 257.11,38.09 257.17,37.22 257.23,37.22 257.28,37.22 257.34,37.22 257.40,36.37 257.45,36.52 257.51,36.52 257.57,36.51 257.62,36.51 257.68,36.51 257.74,36.70 257.79,36.70 257.85,35.71 257.91,35.71 257.96,36.19 258.02,36.19 258.08,36.19 258.13,37.01 258.19,37.01 258.25,37.01 258.30,37.01 258.36,37.57 258.42,37.57 258.47,37.57 258.53,36.98 258.59,36.98 258.64,36.98 258.70,37.50 258.76,36.48 258.81,36.48 258.87,36.48 258.93,37.45 258.98,36.86 259.04,36.86 259.10,36.86 259.15,36.28 259.21,36.28 259.27,36.28 259.32,36.37 259.38,36.37 259.44,36.68 259.49,36.68 259.55,36.68 259.61,37.34 259.66,37.34 259.72,37.34 259.78,37.63 259.83,37.63 259.89,37.63 259.95,37.63 260.00,35.73 260.06,35.99 260.12,35.99 260.17,35.99 260.23,36.44 260.29,36.44 260.34,37.31 260.40,37.31 260.46,37.31 260.51,37.54 260.57,37.54 260.63,37.54 260.68,37.54 260.74,37.02 260.80,38.19 260.85,38.19 260.91,37.68 260.97,37.68 261.02,37.68 261.08,37.07 261.14,37.07 261.19,37.07 261.25,36.17 261.31,36.17 261.36,36.17 261.42,37.35 261.48,36.64 261.53,36.64 261.59,36.64 261.65,36.18 261.70,37.37 261.76,37.37 261.82,37.37 261.87,37.05 261.93,37.05 261.99,37.05 262.04,36.50 262.10,36.50 262.16,36.50 262.21,35.61 262.27,35.61 262.33,35.61 262.38,34.28 262.44,34.28 262.50,35.58 262.55,35.58 262.61,35.06 262.67,35.06 262.72,35.06 262.78,35.52 262.84,35.52 262.89,35.52 262.95,36.29 263.01,36.29 263.06,35.60 263.12,35.60 263.18,35.60 263.23,35.39 263.29,34.45 263.35,34.45 263.40,34.26 263.46,34.26 263.52,34.26 263.57,34.26 263.63,34.48 263.69,34.48 263.74,34.48 263.80,34.75 263.86,34.07 263.91,34.07 263.97,34.07 264.03,33.52 264.08,33.52 264.14,33.34 264.20,33.34 264.25,33.34 264.31,33.01 264.37,33.01 264.42,33.01 264.48,32.84 264.54,32.84 264.59,32.99 264.65,32.99 264.71,32.99 264.76,32.14 264.82,32.60 264.88,32.60 264.93,31.85 264.99,31.85 265.05,31.85 265.11,31.85 265.16,31.86 265.22,31.86 265.28,31.86 265.33,31.22 265.39,31.22 265.45,31.22 265.50,30.53 265.56,31.34 265.62,31.34 265.67,31.34 265.73,30.94 265.79,30.94 265.84,30.94 265.90,30.74 265.96,30.74 266.01,32.43 266.07,31.13 266.13,31.13 266.18,31.13 266.24,30.53 266.30,30.53 266.35,30.53 266.41,30.53 266.47,31.06 266.52,31.06 266.58,31.06 266.64,30.18 266.69,30.18 266.75,30.18 266.81,29.73 266.86,30.81 266.92,30.81 266.98,30.81 267.03,30.51 267.09,30.51 267.15,30.51 267.20,30.84 267.26,30.84 267.32,30.84 267.37,30.66 267.43,30.66 267.49,30.66 267.54,30.16 267.60,29.78 267.66,29.78 267.71,29.78 267.77,28.10 267.83,29.16 267.88,29.16 267.94,28.11 268.00,28.11 268.05,28.11 268.11,29.14 268.17,29.14 268.22,29.14 268.28,28.51 268.34,28.51 268.39,28.55 268.45,28.55 268.51,28.55 268.56,28.57 268.62,28.57 268.68,27.66 268.73,27.66 268.79,27.66 268.85,28.46 268.90,27.37 268.96,27.37 269.02,27.37 269.07,28.30 269.13,28.30 269.19,28.30 269.24,29.44 269.30,29.44 269.36,28.88 269.41,28.88 269.47,30.06 269.53,29.64 269.58,29.64 269.64,29.64 269.70,30.26 269.75,29.99 269.81,29.99 269.87,29.99 269.92,30.61 269.98,30.61 270.04,30.61 270.09,31.23 270.15,31.23 270.21,31.23 270.26,31.23 270.32,31.75 270.38,31.75 270.43,31.75 270.49,31.75 270.55,32.25 270.60,32.25 270.66,33.31 270.72,33.31 270.77,33.31 270.83,32.92 270.89,32.92 270.94,33.65 271.00,32.90 271.06,32.90 271.11,32.90 271.17,32.90 271.23,32.90 271.28,32.88 271.34,32.88 271.40,32.88 271.45,32.58 271.51,32.38 271.57,32.38 271.62,32.38 271.68,32.38 271.74,32.10 271.79,30.95 271.85,30.95 271.91,30.95 271.96,31.39 272.02,30.09 272.08,30.09 272.13,30.09 272.19,28.96 272.25,29.96 272.30,29.96 272.36,28.74 272.42,28.74 272.47,28.74 272.53,29.07 272.59,29.07 272.64,29.07 272.70,28.34 272.76,28.34 272.81,28.34 272.87,27.34 272.93,28.52 272.98,28.52 273.04,27.45 273.10,27.45 273.15,27.45 273.21,27.49 273.27,27.49 273.32,27.49 273.38,27.49 273.44,26.09 273.49,27.13 273.55,27.13 273.61,25.81 273.66,25.81 273.72,25.81 273.78,25.43 273.83,25.43 273.89,25.43 273.95,24.15 274.01,24.15 274.06,24.89 274.12,24.89 274.18,24.29 274.23,24.29 274.29,24.16 274.35,24.16 274.40,24.16 274.46,23.24 274.52,23.24 274.57,22.45 274.63,23.19 274.69,23.19 274.74,23.19 274.80,22.43 274.86,22.08 274.91,22.08 274.97,22.08 275.03,22.08 275.08,20.90 275.14,20.90 275.20,22.32 275.25,22.16 275.31,22.16 275.37,22.16 275.42,21.48 275.48,20.32 275.54,20.32 275.59,20.30 275.65,20.30 275.71,20.30 275.76,19.12 275.82,19.12 275.88,19.87 275.93,19.18 275.99,19.18 276.05,18.47 276.10,18.47 276.16,18.47 276.22,17.80 276.27,17.80 276.33,18.26 276.39,18.26 276.44,17.54 276.50,17.54 276.56,17.78 276.61,16.94 276.67,16.94 276.73,16.94 276.78,16.44 276.84,16.44 276.90,16.44 276.95,16.86 277.01,16.86 277.07,16.86 277.12,16.86 277.18,16.08 277.24,16.08 277.29,16.08 277.35,15.46 277.41,15.46 277.46,15.46 277.52,15.04 277.58,15.04 277.63,15.04 277.69,14.70 277.75,14.70 277.80,14.70 277.86,14.45 277.92,14.45 277.97,14.45 278.03,14.03 278.09,14.03 278.14,14.03 278.20,14.08 278.26,14.08 278.31,14.08 278.37,14.08 278.43,13.65 278.48,13.65 278.54,13.65 278.60,13.27 278.65,13.27 278.71,13.33 278.77,13.33 278.82,12.65 278.88,12.65 278.94,12.65 278.99,12.68 279.05,12.30 279.11,12.30 279.16,12.30 279.22,12.19 279.28,11.91 279.33,11.91 279.39,11.91 279.45,12.60 279.50,11.35 279.56,11.35 279.62,12.01 279.67,12.01 279.73,12.01 279.79,11.21 279.84,11.21 279.90,11.21 279.96,11.90 280.01,11.90 280.07,11.90 280.13,10.84 280.18,10.84 280.24,10.84 280.30,11.88 280.35,11.88 280.41,10.61 280.47,10.61 280.52,10.61 280.58,9.64 280.64,9.64 280.69,9.64 280.75,9.64 280.81,9.49 280.86,9.49 280.92,9.49 280.98,9.94 281.03,9.94 281.09,10.66 281.15,9.26 281.20,9.26 281.26,9.26 281.32,10.06 281.37,8.82 281.43,8.82 281.49,8.82 281.54,10.20 281.60,8.40 281.66,8.40 281.71,9.44 281.77,9.44 281.83,9.44 281.88,7.21 281.94,8.26 282.00,8.26 282.05,8.48 282.11,8.48 282.17,8.48 282.22,9.18 282.28,7.36 282.34,7.36 282.39,8.48 282.45,8.48 282.51,8.48 282.56,7.64 282.62,7.64 282.68,7.64 282.74,7.64 282.79,8.06 282.85,7.11 282.91,7.11 282.96,7.75 283.02,7.75 283.08,7.44 283.13,7.44 283.19,7.44 283.25,7.88 283.30,7.88 283.36,6.84 283.42,6.84 283.47,7.57 283.53,7.57 283.59,7.57 283.64,7.83 283.70,7.83 283.76,7.83 283.81,7.83 283.87,7.56 283.93,7.56 283.98,6.50 284.04,6.67 284.10,6.67 284.15,6.67 284.21,5.99 284.27,5.99 284.32,5.99 284.38,5.99 284.44,5.44 284.49,5.44 284.55,5.44 284.61,4.79 284.66,4.79 284.72,5.36 284.78,4.70 284.83,4.70 284.89,4.70 284.95,4.70 285.00,4.89 285.06,4.89 285.12,4.89 285.17,4.89 285.23,4.41 285.29,5.03 285.34,5.03 285.40,4.33 285.46,4.33 285.51,4.33 285.57,4.33 285.63,4.00 285.68,4.00 285.74,4.29 285.80,4.29 285.85,4.29 285.91,4.29 285.97,4.33 286.02,4.42 286.08,4.42 286.14,4.41 286.19,4.41 286.25,4.41 286.31,4.69 286.36,5.01 286.42,5.46 286.48,5.46 286.53,5.46 286.59,5.79 286.65,5.79 286.70,5.79 286.76,5.74 286.82,5.74 286.87,5.42 286.93,5.42 286.99,5.77 287.04,5.77 287.10,5.57 287.16,5.57 287.21,5.91 287.27,5.91 287.33,5.50 287.38,5.50 287.44,5.50 287.50,5.37 287.55,5.37 287.61,5.37 287.67,5.92 287.72,5.92 287.78,5.19 287.84,5.19 287.89,5.63 287.95,5.63 288.01,5.17 288.06,5.17 288.12,5.17 288.18,5.14 288.23,5.68 288.29,5.52 288.35,5.52 288.40,5.52 288.46,5.52 288.52,4.92 288.57,5.77 288.63,5.77 288.69,5.20 288.74,5.20 288.80,6.46 288.86,6.46 288.91,5.72 288.97,5.72 289.03,6.62 289.08,6.62 289.14,5.78 289.20,5.78 289.25,6.22 289.31,5.75 289.37,5.75 289.42,5.75 289.48,5.75 289.54,6.24 289.59,6.24 289.65,6.24 289.71,6.29 289.76,6.29 289.82,5.85 289.88,6.45 289.93,6.45 289.99,6.45 290.05,6.45 290.10,6.42 290.16,6.42 290.22,6.42 290.27,7.20 290.33,7.20 290.39,7.20 290.44,7.77 290.50,7.77 290.56,7.77 290.61,8.16 290.67,8.16 290.73,8.16 290.78,8.16 290.84,8.16 290.90,8.83 290.95,8.83 291.01,8.61 291.07,8.61 291.12,8.61 291.18,8.80 291.24,9.33 291.29,9.33 291.35,9.33 291.41,9.52 291.46,9.52 291.52,10.11 291.58,10.11 291.64,10.27 291.69,10.27 291.75,10.82 291.81,10.82 291.86,10.82 291.92,10.77 291.98,10.77 292.03,10.77 292.09,10.74 292.15,10.74 292.20,10.74 292.26,10.84 292.32,10.20 292.37,10.20 292.43,10.16 292.49,10.16 292.54,10.16 292.60,10.04 292.66,10.04 292.71,10.04 292.77,10.04 292.83,9.39 292.88,9.39 292.94,9.39 293.00,9.11 293.05,9.11 293.11,9.11 293.17,8.94 293.22,8.94 293.28,8.56 293.34,9.59 293.39,9.59 293.45,9.59 293.51,10.24 293.56,10.24 293.62,10.24 293.68,10.62 293.73,10.62 293.79,10.62 293.85,10.80 293.90,10.80 293.96,10.80 294.02,10.80 294.07,11.80 294.13,11.80 294.19,11.10 294.24,12.77 294.30,12.77 294.36,12.77 294.41,12.80 294.47,12.80 294.53,12.80 294.58,12.11 294.64,13.33 294.70,13.33 294.75,13.33 294.81,13.17 294.87,13.90 294.92,13.90 294.98,13.90 295.04,14.34 295.09,15.03 295.15,15.03 295.21,14.43 295.26,14.18 295.32,14.18 295.38,14.18 295.43,13.41 295.49,14.32 295.55,14.32 295.60,14.32 295.66,15.38 295.72,15.38 295.77,15.38 295.83,16.18 295.89,16.18 295.94,16.18 296.00,16.18" />
</svg>