<svg width="300" height="60" xmlns="http://www.w3.org/2000/svg">
  <polyline fill="rgba(255,200,0,0.3)" stroke="#ffbb00" stroke-width="2" points="4.00,4.00 4.80,4.35 5.59,4.94 6.39,5.70 7.18,6.62 7.98,7.23 8.77,7.75 9.57,8.18 10.37,8.44 11.16,8.46 11.96,8.66 12.75,9.10 13.55,10.02 14.34,11.16 15.14,11.99 15.93,12.92 16.73,13.79 17.53,14.17 18.32,14.48 19.12,14.70 19.91,14.44 20.71,14.27 21.50,13.97 22.30,13.47 23.10,13.32 23.89,13.99 24.69,14.17 25.48,14.66 26.28,15.13 27.07,15.72 27.87,16.39 28.66,17.18 29.46,18.17 30.26,19.66 31.05,20.42 31.85,21.65 32.64,23.30 33.44,25.17 34.23,26.74 35.03,27.99 35.83,30.91 36.62,31.61 37.42,32.01 38.21,32.81 39.01,33.95 39.80,34.43 40.60,36.38 41.40,36.53 42.19,37.23 42.99,38.12 43.78,38.71 44.58,39.72 45.37,40.32 46.17,42.28 46.96,43.63 47.76,44.73 48.56,45.81 49.35,46.80 50.15,48.19 50.94,49.54 51.74,51.02 52.53,52.38 53.33,53.62 54.13,54.90 54.92,54.91 55.72,53.78 56.51,51.23 57.31,48.33 58.10,45.96 58.90,42.10 59.69,39.76 60.49,37.26 61.29,35.20 62.08,32.63 62.88,31.89 63.67,29.40 64.47,27.00 65.26,25.39 66.06,24.78 66.86,23.74 67.65,22.80 68.45,22.25 69.24,21.46 70.04,20.37 70.83,19.56 71.63,19.23 72.43,18.90 73.22,18.57 74.02,17.81 74.81,16.96 75.61,16.49 76.40,16.21 77.20,4.13 77.99,4.43 78.79,5.16 79.59,5.82 80.38,6.71 81.18,6.80 81.97,7.59 82.77,8.25 83.56,8.32 84.36,8.37 85.16,8.68 85.95,9.43 86.75,10.64 87.54,11.62 88.34,12.63 89.13,13.42 89.93,13.93 90.72,14.33 91.52,14.86 92.32,15.02 93.11,15.00 93.91,14.82 94.70,14.37 95.50,13.79 96.29,13.54 97.09,14.25 97.89,14.52 98.68,14.90 99.48,15.48 100.27,15.84 101.07,16.42 101.86,17.33 102.66,18.50 103.46,20.06 104.25,20.70 105.05,22.27 105.84,22.83 106.64,24.93 107.43,26.80 108.23,29.33 109.02,31.76 109.82,31.94 110.62,32.66 111.41,33.11 112.21,33.49 113.00,34.59 113.80,36.12 114.59,36.69 115.39,37.67 116.19,38.07 116.98,38.97 117.78,40.09 118.57,40.62 119.37,42.22 120.16,44.55 120.96,45.48 121.75,46.43 122.55,47.24 123.35,47.82 124.14,48.73 124.94,49.81 125.73,52.24 126.53,53.79 127.32,54.86 128.12,55.07 128.92,54.15 129.71,51.01 130.51,48.00 131.30,46.13 132.10,43.17 132.89,40.23 133.69,38.28 134.49,36.31 135.28,32.54 136.08,31.98 136.87,29.19 137.67,26.23 138.46,25.27 139.26,24.37 140.05,23.97 140.85,23.16 141.65,22.19 142.44,21.25 143.24,20.43 144.03,19.79 144.83,19.30 145.62,19.25 146.42,18.51 147.22,18.30 148.01,17.49 148.81,16.48 149.60,16.19 150.40,4.46 151.19,4.86 151.99,5.34 152.78,5.06 153.58,6.33 154.38,7.41 155.17,7.13 155.97,8.14 156.76,7.89 157.56,8.40 158.35,8.62 159.15,9.41 159.95,10.57 160.74,11.86 161.54,13.03 162.33,13.03 163.13,13.13 163.92,13.91 164.72,14.44 165.51,14.95 166.31,15.28 167.11,14.14 167.90,14.21 168.70,14.38 169.49,12.18 170.29,13.35 171.08,15.19 171.88,16.36 172.68,16.06 173.47,14.26 174.27,15.39 175.06,16.94 175.86,19.04 176.65,17.93 177.45,20.61 178.25,20.66 179.04,20.81 179.84,20.69 180.63,26.18 181.43,27.40 182.22,28.01 183.02,31.75 183.81,29.96 184.61,33.27 185.41,33.72 186.20,32.91 187.00,35.57 187.79,36.51 188.59,35.44 189.38,38.10 190.18,36.08 190.98,38.51 191.77,36.14 192.57,39.95 193.36,43.17 194.16,45.62 194.95,43.12 195.75,45.42 196.54,47.95 197.34,48.54 198.14,48.99 198.93,52.36 199.73,52.36 200.52,55.56 201.32,55.58 202.11,54.23 202.91,49.42 203.71,48.18 204.50,47.15 205.30,42.72 206.09,37.58 206.89,34.69 207.68,37.43 208.48,31.48 209.28,33.54 210.07,32.22 210.87,28.70 211.66,25.89 212.46,24.27 213.25,23.46 214.05,22.55 214.84,22.32 215.64,20.98 216.44,19.99 217.23,19.59 218.03,17.59 218.82,18.51 219.62,16.71 220.41,17.49 221.21,15.98 222.01,15.98 222.80,15.72 223.60,7.52 224.39,7.52 225.19,7.52 225.98,5.37 226.78,9.84 227.57,9.84 228.37,9.84 229.17,8.35 229.96,8.35 230.76,12.20 231.55,10.63 232.35,10.63 233.14,10.63 233.94,12.22 234.74,12.22 235.53,12.22 236.33,12.22 237.12,14.68 237.92,14.68 238.71,14.68 239.51,15.03 240.31,15.03 241.10,15.03 241.90,15.06 242.69,9.87 243.49,9.87 244.28,9.01 245.08,9.01 245.87,9.01 246.67,12.04 247.47,12.04 248.26,12.04 249.06,18.75 249.85,18.75 250.65,16.93 251.44,16.93 252.24,16.93 253.04,17.16 253.83,17.16 254.63,19.16 255.42,19.16 256.22,31.79 257.01,31.61 257.81,31.61 258.60,31.61 259.40,35.49 260.20,35.49 260.99,35.49 261.79,31.52 262.58,31.52 263.38,31.52 264.17,28.20 264.97,28.20 265.77,40.28 266.56,37.11 267.36,37.11 268.15,37.11 268.95,51.04 269.74,51.04 270.54,51.04 271.34,56.00 272.13,56.00 272.93,56.00 273.72,56.00 274.52,52.10 275.31,52.10 276.11,52.10 276.90,44.36 277.70,44.36 278.50,44.36 279.29,35.42 280.09,31.14 280.88,31.14 281.68,31.14 282.47,31.14 283.27,30.94 284.07,30.94 284.86,30.94 285.66,24.96 286.45,24.96 287.25,24.96 288.04,23.14 288.84,18.18 289.63,18.18 290.43,18.18 291.23,18.86 292.02,18.86 292.82,14.49 293.61,14.49 294.41,14.49 295.20,14.49 296.00,13.65" />
</svg>