<svg width="300" height="60" xmlns="http://www.w3.org/2000/svg">
  <polyline fill="rgba(255,200,0,0.3)" stroke="#ffbb00" stroke-width="2" points="4.00,30.70 4.09,30.34 4.17,29.81 4.26,28.89 4.35,28.14 4.43,28.11 4.52,28.35 4.61,28.68 4.69,28.73 4.78,28.98 4.87,28.75 4.95,28.74 5.04,28.76 5.13,28.53 5.21,28.71 5.30,29.11 5.39,29.29 5.47,29.14 5.56,29.15 5.65,29.18 5.73,29.52 5.82,30.38 5.91,31.39 5.99,32.49 6.08,32.68 6.16,33.02 6.25,33.58 6.34,35.04 6.42,36.01 6.51,37.45 6.60,37.23 6.68,37.09 6.77,37.06 6.86,37.52 6.94,37.89 7.03,38.50 7.12,39.09 7.20,39.68 7.29,40.23 7.38,40.70 7.46,41.11 7.55,41.53 7.64,42.00 7.72,42.78 7.81,43.56 7.90,44.54 7.98,45.02 8.07,45.74 8.16,46.97 8.24,48.03 8.33,49.29 8.42,50.49 8.50,51.95 8.59,51.87 8.68,52.31 8.76,52.49 8.85,52.86 8.94,53.39 9.02,53.63 9.11,54.30 9.20,54.75 9.28,55.64 9.37,54.25 9.46,53.98 9.54,52.79 9.63,52.04 9.72,52.21 9.80,49.94 9.89,49.93 9.98,49.88 10.06,49.84 10.15,49.88 10.23,50.26 10.32,50.57 10.41,50.93 10.49,51.29 10.58,51.82 10.67,52.28 10.75,52.87 10.84,53.42 10.93,54.06 11.01,54.16 11.10,54.78 11.19,55.52 11.27,54.88 11.36,54.93 11.45,54.54 11.53,54.55 11.62,54.47 11.71,54.33 11.79,54.07 11.88,53.84 11.97,53.65 12.05,53.43 12.14,53.10 12.23,52.94 12.31,52.55 12.40,52.26 12.49,51.20 12.57,50.56 12.66,50.03 12.75,49.41 12.83,49.57 12.92,49.34 13.01,49.17 13.09,48.49 13.18,47.87 13.27,47.51 13.35,46.65 13.44,45.99 13.53,45.52 13.61,44.91 13.70,44.20 13.79,43.59 13.87,43.55 13.96,42.76 14.05,42.68 14.13,42.28 14.22,41.18 14.30,41.13 14.39,40.70 14.48,40.35 14.56,41.24 14.65,40.04 14.74,40.85 14.82,41.66 14.91,39.88 15.00,37.91 15.08,36.70 15.17,36.32 15.26,36.26 15.34,36.30 15.43,36.07 15.52,36.47 15.60,35.98 15.69,35.58 15.78,34.70 15.86,34.25 15.95,33.63 16.04,32.58 16.12,31.38 16.21,30.06 16.30,28.24 16.38,28.17 16.47,28.80 16.56,27.45 16.64,26.87 16.73,27.48 16.82,27.09 16.90,25.95 16.99,24.75 17.08,23.49 17.16,22.81 17.25,21.92 17.34,20.94 17.42,19.72 17.51,18.57 17.60,17.90 17.68,18.08 17.77,18.30 17.86,17.61 17.94,16.89 18.03,15.94 18.12,14.94 18.20,14.19 18.29,13.46 18.37,13.42 18.46,14.00 18.55,15.54 18.63,17.09 18.72,17.26 18.81,17.61 18.89,18.17 18.98,18.62 19.07,18.33 19.15,17.56 19.24,16.36 19.33,14.92 19.41,13.94 19.50,13.67 19.59,14.63 19.67,15.94 19.76,16.26 19.85,16.28 19.93,16.47 20.02,17.17 20.11,19.67 20.19,23.08 20.28,28.12 20.37,25.88 20.45,23.59 20.54,22.40 20.63,22.39 20.71,23.21 20.80,25.45 20.89,27.70 20.97,26.90 21.06,24.77 21.15,24.10 21.23,27.21 21.32,27.12 21.41,27.90 21.49,25.04 21.58,25.14 21.67,25.39 21.75,21.30 21.84,19.55 21.93,18.54 22.01,17.97 22.10,19.09 22.19,22.89 22.27,25.16 22.36,22.84 22.44,20.55 22.53,18.84 22.62,18.71 22.70,20.08 22.79,22.27 22.88,24.62 22.96,26.91 23.05,27.16 23.14,28.49 23.22,29.64 23.31,30.91 23.40,33.23 23.48,33.69 23.57,33.92 23.66,34.14 23.74,34.41 23.83,34.64 23.92,34.83 24.00,35.17 24.09,35.63 24.18,36.21 24.26,37.28 24.35,36.62 24.44,36.48 24.52,36.35 24.61,32.96 24.70,30.59 24.78,30.48 24.87,27.89 24.96,26.15 25.04,25.24 25.13,24.38 25.22,24.73 25.30,24.68 25.39,26.70 25.48,29.40 25.56,29.64 25.65,29.58 25.74,29.29 25.82,25.85 25.91,22.78 26.00,23.77 26.08,27.95 26.17,29.36 26.26,28.67 26.34,28.36 26.43,26.13 26.51,25.18 26.60,23.40 26.69,21.92 26.77,20.87 26.86,20.93 26.95,20.82 27.03,20.83 27.12,20.23 27.21,19.58 27.29,18.40 27.38,17.50 27.47,17.22 27.55,16.48 27.64,15.76 27.73,14.91 27.81,14.98 27.90,15.10 27.99,16.65 28.07,16.52 28.16,16.56 28.25,15.93 28.33,14.72 28.42,14.45 28.51,14.57 28.59,13.36 28.68,12.98 28.77,11.71 28.85,9.98 28.94,8.90 29.03,7.62 29.11,7.08 29.20,6.26 29.29,5.66 29.37,5.11 29.46,4.73 29.55,4.40 29.63,4.50 29.72,5.26 29.81,6.08 29.89,6.60 29.98,7.71 30.07,9.74 30.15,10.52 30.24,10.89 30.33,11.85 30.41,13.17 30.50,14.22 30.58,12.81 30.67,12.54 30.76,12.22 30.84,10.98 30.93,10.78 31.02,10.92 31.10,10.98 31.19,11.12 31.28,11.61 31.36,12.27 31.45,12.47 31.54,13.23 31.62,16.70 31.71,16.90 31.80,18.73 31.88,19.74 31.97,21.24 32.06,22.27 32.14,19.37 32.23,19.30 32.32,18.23 32.40,18.56 32.49,16.86 32.58,14.65 32.66,13.37 32.75,13.34 32.84,13.18 32.92,13.73 33.01,14.47 33.10,16.08 33.18,18.62 33.27,21.48 33.36,20.00 33.44,18.29 33.53,17.37 33.62,18.11 33.70,20.88 33.79,18.02 33.88,17.58 33.96,17.77 34.05,17.92 34.14,18.65 34.22,21.08 34.31,22.99 34.40,19.34 34.48,17.04 34.57,18.60 34.65,21.71 34.74,24.31 34.83,23.65 34.91,24.62 35.00,21.76 35.09,20.52 35.17,21.98 35.26,21.81 35.35,21.17 35.43,21.38 35.52,21.65 35.61,22.16 35.69,24.39 35.78,25.96 35.87,26.27 35.95,26.63 36.04,26.97 36.13,27.29 36.21,27.59 36.30,27.90 36.39,28.21 36.47,28.50 36.56,28.85 36.65,29.26 36.73,29.49 36.82,29.57 36.91,29.80 36.99,30.55 37.08,30.92 37.17,31.43 37.25,31.89 37.34,31.25 37.43,32.11 37.51,33.26 37.60,34.21 37.69,35.33 37.77,36.66 37.86,37.80 37.95,38.65 38.03,39.50 38.12,40.20 38.21,40.80 38.29,41.06 38.38,41.11 38.47,40.92 38.55,39.20 38.64,36.51 38.72,36.76 38.81,36.78 38.90,36.83 38.98,36.52 39.07,36.77 39.16,37.39 39.24,38.00 39.33,39.01 39.42,40.33 39.50,41.23 39.59,41.64 39.68,42.53 39.76,42.92 39.85,43.68 39.94,44.82 40.02,45.46 40.11,46.17 40.20,47.16 40.28,47.24 40.37,47.70 40.46,47.96 40.54,48.62 40.63,48.91 40.72,49.15 40.80,49.35 40.89,49.50 40.98,49.86 41.06,50.16 41.15,50.34 41.24,50.56 41.32,50.73 41.41,50.67 41.50,50.63 41.58,50.75 41.67,51.27 41.76,51.85 41.84,50.85 41.93,50.85 42.02,50.81 42.10,50.78 42.19,50.85 42.28,50.85 42.36,50.77 42.45,50.78 42.53,50.78 42.62,50.77 42.71,49.41 42.79,49.54 42.88,50.24 42.97,50.05 43.05,49.83 43.14,49.52 43.23,49.18 43.31,48.84 43.40,48.44 43.49,47.67 43.57,46.77 43.66,45.78 43.75,44.44 43.83,43.15 43.92,42.15 44.01,41.38 44.09,40.65 44.18,40.47 44.27,40.70 44.35,41.04 44.44,40.39 44.53,40.00 44.61,39.57 44.70,39.21 44.79,38.88 44.87,38.64 44.96,38.35 45.05,38.00 45.13,37.80 45.22,37.13 45.31,36.36 45.39,37.00 45.48,36.67 45.57,36.49 45.65,36.33 45.74,36.42 45.83,36.07 45.91,35.53 46.00,33.89 46.09,33.37 46.17,33.75 46.26,33.47 46.35,33.50 46.43,33.70 46.52,33.99 46.60,34.28 46.69,32.56 46.78,30.44 46.86,29.67 46.95,29.09 47.04,28.64 47.12,28.11 47.21,27.84 47.30,27.24 47.38,26.72 47.47,26.50 47.56,26.71 47.64,28.28 47.73,29.11 47.82,29.30 47.90,29.23 47.99,29.16 48.08,29.04 48.16,28.82 48.25,28.66 48.34,28.53 48.42,28.40 48.51,28.25 48.60,28.14 48.68,28.05 48.77,27.93 48.86,27.87 48.94,27.89 49.03,28.01 49.12,28.12 49.20,28.19 49.29,28.06 49.38,27.11 49.46,25.93 49.55,25.42 49.64,26.09 49.72,26.25 49.81,26.40 49.90,26.55 49.98,27.03 50.07,28.04 50.16,28.84 50.24,29.66 50.33,29.80 50.42,29.82 50.50,29.69 50.59,29.44 50.67,29.21 50.76,29.06 50.85,28.97 50.93,29.04 51.02,29.24 51.11,29.38 51.19,29.54 51.28,29.68 51.37,29.72 51.45,29.81 51.54,29.85 51.63,29.79 51.71,29.71 51.80,29.62 51.89,29.51 51.97,29.41 52.06,29.35 52.15,29.14 52.23,28.92 52.32,28.63 52.41,28.27 52.49,27.82 52.58,27.17 52.67,27.01 52.75,26.70 52.84,26.37 52.93,25.64 53.01,25.33 53.10,25.59 53.19,24.84 53.27,25.00 53.36,24.79 53.45,24.58 53.53,24.41 53.62,23.46 53.71,22.13 53.79,22.03 53.88,22.56 53.97,23.51 54.05,24.78 54.14,25.88 54.23,26.57 54.31,26.89 54.40,25.92 54.49,25.05 54.57,25.26 54.66,24.94 54.74,24.99 54.83,24.71 54.92,24.31 55.00,23.86 55.09,23.30 55.18,23.18 55.26,22.30 55.35,21.98 55.44,21.39 55.52,20.95 55.61,20.59 55.70,20.25 55.78,20.02 55.87,19.87 55.96,19.72 56.04,19.55 56.13,19.37 56.22,19.23 56.30,19.17 56.39,18.77 56.48,18.50 56.56,17.54 56.65,15.96 56.74,15.66 56.82,15.73 56.91,16.15 57.00,16.60 57.08,17.39 57.17,17.88 57.26,18.18 57.34,18.43 57.43,18.61 57.52,30.79 57.60,30.36 57.69,29.93 57.78,29.21 57.86,28.23 57.95,28.18 58.04,28.41 58.12,28.75 58.21,28.83 58.30,29.02 58.38,28.94 58.47,28.78 58.56,28.79 58.64,28.56 58.73,28.76 58.81,29.12 58.90,29.34 58.99,29.19 59.07,29.20 59.16,29.24 59.25,29.60 59.33,30.45 59.42,31.46 59.51,32.50 59.59,32.74 59.68,33.11 59.77,33.67 59.85,35.19 59.94,36.14 60.03,37.59 60.11,37.26 60.20,37.17 60.29,37.16 60.37,37.63 60.46,37.95 60.55,38.52 60.63,39.12 60.72,39.70 60.81,40.25 60.89,40.74 60.98,41.13 61.07,41.58 61.15,42.05 61.24,42.87 61.33,43.67 61.41,44.64 61.50,45.06 61.59,45.87 61.67,47.05 61.76,48.10 61.85,49.35 61.93,50.63 62.02,52.08 62.11,51.93 62.19,52.41 62.28,52.57 62.37,52.96 62.45,53.50 62.54,53.76 62.63,54.38 62.71,54.83 62.80,55.72 62.88,54.36 62.97,54.03 63.06,52.84 63.14,52.13 63.23,52.20 63.32,49.97 63.40,49.92 63.49,49.90 63.58,49.87 63.66,49.92 63.75,50.28 63.84,50.56 63.92,50.95 64.01,51.29 64.10,51.85 64.18,52.29 64.27,52.95 64.36,53.42 64.44,54.05 64.53,54.16 64.62,54.83 64.70,55.51 64.79,54.88 64.88,55.03 64.96,54.54 65.05,54.54 65.14,54.51 65.22,54.34 65.31,54.09 65.40,53.86 65.48,53.68 65.57,53.44 65.66,53.10 65.74,52.96 65.83,52.58 65.92,52.30 66.00,51.29 66.09,50.60 66.18,50.08 66.26,49.48 66.35,49.62 66.44,49.42 66.52,49.21 66.61,48.56 66.70,47.93 66.78,47.54 66.87,46.67 66.95,46.04 67.04,45.56 67.13,44.94 67.21,44.20 67.30,43.64 67.39,43.56 67.47,42.82 67.56,42.74 67.65,42.30 67.73,41.21 67.82,41.16 67.91,40.74 67.99,40.42 68.08,41.55 68.17,40.15 68.25,41.12 68.34,41.71 68.43,39.87 68.51,38.01 68.60,36.76 68.69,36.42 68.77,36.32 68.86,36.34 68.95,36.11 69.03,36.51 69.12,36.02 69.21,35.59 69.29,34.74 69.38,34.29 69.47,33.65 69.55,32.63 69.64,31.40 69.73,30.08 69.81,28.25 69.90,28.13 69.99,28.78 70.07,27.51 70.16,26.87 70.25,27.49 70.33,27.12 70.42,26.00 70.51,24.80 70.59,23.52 70.68,22.82 70.77,21.95 70.85,20.98 70.94,19.75 71.02,18.58 71.11,17.93 71.20,18.05 71.28,18.34 71.37,17.61 71.46,16.91 71.54,15.96 71.63,14.93 71.72,14.20 71.80,13.40 71.89,13.42 71.98,13.81 72.06,15.44 72.15,17.11 72.24,17.27 72.32,17.64 72.41,18.13 72.50,18.59 72.58,18.34 72.67,17.58 72.76,16.38 72.84,14.96 72.93,13.99 73.02,13.69 73.10,14.69 73.19,15.95 73.28,16.27 73.36,16.29 73.45,16.48 73.54,17.18 73.62,19.73 73.71,23.15 73.80,28.18 73.88,25.85 73.97,23.53 74.06,22.43 74.14,22.42 74.23,23.20 74.32,25.44 74.40,27.70 74.49,26.82 74.58,24.79 74.66,24.15 74.75,27.22 74.84,27.16 74.92,27.82 75.01,25.09 75.09,25.16 75.18,25.39 75.27,21.30 75.35,19.59 75.44,18.54 75.53,17.97 75.61,19.09 75.70,22.79 75.79,25.27 75.87,22.84 75.96,20.57 76.05,18.86 76.13,18.69 76.22,20.06 76.31,22.21 76.39,24.60 76.48,26.90 76.57,27.13 76.65,28.46 76.74,29.64 76.83,30.89 76.91,33.22 77.00,33.73 77.09,33.93 77.17,34.14 77.26,34.40 77.35,34.65 77.43,34.85 77.52,35.18 77.61,35.67 77.69,36.23 77.78,37.23 77.87,36.64 77.95,36.50 78.04,36.41 78.13,33.02 78.21,30.59 78.30,30.44 78.39,27.88 78.47,26.11 78.56,25.23 78.65,24.39 78.73,24.71 78.82,24.80 78.91,26.72 78.99,29.36 79.08,29.66 79.16,29.61 79.25,29.34 79.34,25.95 79.42,22.78 79.51,23.81 79.60,27.93 79.68,29.35 79.77,28.75 79.86,28.48 79.94,26.13 80.03,25.19 80.12,23.42 80.20,21.91 80.29,20.92 80.38,20.95 80.46,20.82 80.55,20.81 80.64,20.20 80.72,19.71 80.81,18.39 80.90,17.67 80.98,17.26 81.07,16.48 81.16,15.76 81.24,15.00 81.33,15.01 81.42,15.11 81.50,16.73 81.59,16.53 81.68,16.60 81.76,15.92 81.85,14.76 81.94,14.48 82.02,14.59 82.11,13.38 82.20,12.93 82.28,11.70 82.37,9.96 82.46,8.90 82.54,7.62 82.63,7.07 82.72,6.24 82.80,5.70 82.89,5.19 82.98,4.77 83.06,4.37 83.15,4.53 83.23,5.26 83.32,6.08 83.41,6.57 83.49,7.70 83.58,9.74 83.67,10.52 83.75,10.92 83.84,11.81 83.93,13.19 84.01,14.26 84.10,12.80 84.19,12.56 84.27,12.22 84.36,11.21 84.45,10.77 84.53,10.93 84.62,10.99 84.71,11.18 84.79,11.62 84.88,12.23 84.97,12.47 85.05,13.24 85.14,16.71 85.23,16.92 85.31,18.75 85.40,19.70 85.49,21.21 85.57,22.27 85.66,19.38 85.75,19.31 85.83,18.24 85.92,18.54 86.01,16.89 86.09,14.70 86.18,13.36 86.27,13.31 86.35,13.15 86.44,13.74 86.53,14.51 86.61,16.06 86.70,18.63 86.79,21.46 86.87,20.00 86.96,18.37 87.05,17.36 87.13,18.06 87.22,20.93 87.30,17.96 87.39,17.59 87.48,17.79 87.56,17.90 87.65,18.62 87.74,21.07 87.82,23.01 87.91,19.34 88.00,17.05 88.08,18.56 88.17,21.82 88.26,24.25 88.34,23.66 88.43,24.65 88.52,21.76 88.60,20.47 88.69,21.95 88.78,21.81 88.86,21.19 88.95,21.40 89.04,21.66 89.12,22.28 89.21,24.53 89.30,26.01 89.38,26.26 89.47,26.62 89.56,26.97 89.64,27.28 89.73,27.57 89.82,27.91 89.90,28.21 89.99,28.51 90.08,28.89 90.16,29.28 90.25,29.52 90.34,29.50 90.42,29.89 90.51,30.54 90.60,30.95 90.68,31.43 90.77,31.89 90.86,31.32 90.94,32.14 91.03,33.22 91.12,34.13 91.20,35.34 91.29,36.71 91.37,37.81 91.46,38.67 91.55,39.51 91.63,40.18 91.72,40.76 91.81,41.05 91.89,41.12 91.98,40.94 92.07,39.19 92.15,36.50 92.24,36.75 92.33,36.78 92.41,36.83 92.50,36.51 92.59,36.75 92.67,37.38 92.76,37.99 92.85,39.11 92.93,40.31 93.02,41.30 93.11,41.65 93.19,42.50 93.28,42.90 93.37,43.64 93.45,44.81 93.54,45.45 93.63,46.16 93.71,47.12 93.80,47.24 93.89,47.68 93.97,47.97 94.06,48.60 94.15,48.93 94.23,49.17 94.32,49.39 94.41,49.50 94.49,49.84 94.58,50.13 94.67,50.31 94.75,50.54 94.84,50.70 94.93,50.65 95.01,50.63 95.10,50.73 95.19,51.29 95.27,51.97 95.36,50.84 95.44,50.88 95.53,50.85 95.62,50.81 95.70,50.88 95.79,50.86 95.88,50.82 95.96,50.78 96.05,50.82 96.14,50.83 96.22,49.50 96.31,49.53 96.40,50.28 96.48,50.09 96.57,49.84 96.66,49.53 96.74,49.20 96.83,48.87 96.92,48.47 97.00,47.69 97.09,46.78 97.18,45.78 97.26,44.50 97.35,43.15 97.44,42.09 97.52,41.38 97.61,40.64 97.70,40.45 97.78,40.73 97.87,41.03 97.96,40.40 98.04,40.02 98.13,39.59 98.22,39.23 98.30,38.94 98.39,38.70 98.48,38.35 98.56,37.99 98.65,37.84 98.74,37.14 98.82,36.39 98.91,37.06 99.00,36.78 99.08,36.54 99.17,36.40 99.26,36.43 99.34,36.10 99.43,35.55 99.51,33.97 99.60,33.40 99.69,33.75 99.77,33.49 99.86,33.52 99.95,33.74 100.03,34.02 100.12,34.35 100.21,32.64 100.29,30.50 100.38,29.72 100.47,29.13 100.55,28.63 100.64,28.13 100.73,27.88 100.81,27.18 100.90,26.74 100.99,26.49 101.07,26.75 101.16,28.28 101.25,29.16 101.33,29.35 101.42,29.25 101.51,29.20 101.59,29.06 101.68,28.85 101.77,28.69 101.85,28.54 101.94,28.40 102.03,28.27 102.11,28.16 102.20,28.04 102.29,27.91 102.37,27.88 102.46,27.89 102.55,28.03 102.63,28.15 102.72,28.21 102.81,28.06 102.89,27.08 102.98,25.97 103.07,25.45 103.15,26.12 103.24,26.27 103.33,26.46 103.41,26.66 103.50,27.18 103.58,28.03 103.67,28.85 103.76,29.71 103.84,29.85 103.93,29.90 104.02,29.73 104.10,29.50 104.19,29.27 104.28,29.12 104.36,29.03 104.45,29.10 104.54,29.29 104.62,29.44 104.71,29.61 104.80,29.71 104.88,29.76 104.97,29.85 105.06,29.90 105.14,29.85 105.23,29.75 105.32,29.67 105.40,29.55 105.49,29.48 105.58,29.42 105.66,29.20 105.75,28.98 105.84,28.70 105.92,28.34 106.01,27.86 106.10,27.26 106.18,27.02 106.27,26.76 106.36,26.41 106.44,25.71 106.53,25.41 106.62,25.64 106.70,24.84 106.79,25.06 106.88,24.87 106.96,24.63 107.05,24.49 107.14,23.57 107.22,22.18 107.31,22.09 107.40,22.60 107.48,23.55 107.57,24.85 107.65,25.95 107.74,26.61 107.83,26.91 107.91,26.00 108.00,25.06 108.09,25.36 108.17,25.04 108.26,25.05 108.35,24.77 108.43,24.39 108.52,23.91 108.61,23.36 108.69,23.27 108.78,30.72 108.87,30.36 108.95,30.09 109.04,29.21 109.13,28.14 109.21,28.17 109.30,28.31 109.39,28.54 109.47,28.69 109.56,28.94 109.65,28.78 109.73,28.79 109.82,28.67 109.91,28.80 109.99,28.90 110.08,29.29 110.17,29.53 110.25,29.16 110.34,29.21 110.43,29.27 110.51,29.60 110.60,30.32 110.69,31.91 110.77,32.36 110.86,32.70 110.95,33.11 111.03,33.75 111.12,35.18 111.21,36.51 111.29,37.89 111.38,36.67 111.47,37.26 111.55,37.06 111.64,37.42 111.72,37.98 111.81,38.49 111.90,39.12 111.98,39.58 112.07,40.19 112.16,40.70 112.24,41.15 112.33,41.52 112.42,42.48 112.50,43.09 112.59,43.38 112.68,44.25 112.76,44.91 112.85,45.92 112.94,46.67 113.02,47.59 113.11,49.04 113.20,50.38 113.28,51.73 113.37,51.39 113.46,51.65 113.54,51.92 113.63,52.42 113.72,52.98 113.80,53.81 113.89,53.45 113.98,54.84 114.06,54.41 114.15,54.24 114.24,54.07 114.32,52.47 114.41,51.88 114.50,51.23 114.58,49.92 114.67,49.84 114.76,49.00 114.84,49.29 114.93,49.31 115.02,49.89 115.10,50.68 115.19,50.82 115.28,51.31 115.36,51.96 115.45,52.12 115.53,52.83 115.62,53.36 115.71,53.87 115.79,54.10 115.88,54.61 115.97,55.20 116.05,55.00 116.14,55.21 116.23,54.62 116.31,54.55 116.40,54.43 116.49,54.26 116.57,54.06 116.66,53.82 116.75,53.58 116.83,53.50 116.92,52.97 117.01,52.94 117.09,52.50 117.18,51.97 117.27,51.07 117.35,50.64 117.44,50.11 117.53,49.64 117.61,49.59 117.70,49.29 117.79,48.83 117.87,48.57 117.96,47.97 118.05,47.48 118.13,46.72 118.22,45.91 118.31,45.68 118.39,44.77 118.48,44.34 118.57,14.37 118.65,21.05 118.74,20.14 118.83,19.91 118.91,18.56 119.00,17.40 119.09,17.08 119.17,16.45 119.26,15.74 119.35,14.79 119.43,14.97 119.52,14.93 119.60,17.04 119.69,16.56 119.78,16.65 119.86,15.60 119.95,14.84 120.04,14.39 120.12,14.70 120.21,13.58 120.30,12.88 120.38,11.53 120.47,9.76 120.56,8.89 120.64,7.97 120.73,6.82 120.82,6.17 120.90,5.78 120.99,5.02 121.08,4.74 121.16,4.36 121.25,4.68 121.34,4.98 121.42,6.00 121.51,6.67 121.60,9.03 121.68,9.27 121.77,10.51 121.86,10.85 121.94,11.66 122.03,13.03 122.12,13.70 122.20,12.74 122.29,12.61 122.38,12.06 122.46,11.26 122.55,11.24 122.64,11.44 122.72,10.73 122.81,11.25 122.90,11.42 122.98,12.36 123.07,12.50 123.16,13.45 123.24,16.69 123.33,17.03 123.42,18.20 123.50,19.90 123.59,20.27 123.67,21.99 123.76,19.40 123.85,19.31 123.93,19.04 124.02,18.92 124.11,16.75 124.19,15.26 124.28,13.53 124.37,13.42 124.45,13.09 124.54,14.13 124.63,14.55 124.71,16.45 124.80,18.23 124.89,21.49 124.97,19.64 125.06,18.31 125.15,16.89 125.23,18.36 125.32,20.91 125.41,18.31 125.49,17.53 125.58,17.44 125.67,18.38 125.75,19.02 125.84,20.63 125.93,23.02 126.01,18.47 126.10,17.26 126.19,18.11 126.27,21.31 126.36,24.58 126.45,24.34 126.53,24.61 126.62,22.13 126.71,20.45 126.79,21.96 126.88,21.88 126.97,21.37 127.05,21.51 127.14,21.66 127.23,22.38 127.31,24.35 127.40,25.88 127.49,26.17 127.57,26.58 127.66,26.97 127.74,27.26 127.83,27.59 127.92,27.90 128.00,28.21 128.09,28.55 128.18,28.87 128.26,29.37 128.35,29.61 128.44,29.08 128.52,29.30 128.61,30.42 128.70,30.81 128.78,31.17 128.87,31.95 128.96,32.29 129.04,32.07 129.13,33.29 129.22,34.46 129.30,35.13 129.39,36.41 129.48,37.75 129.56,38.70 129.65,39.50 129.74,40.23 129.82,40.80 129.91,41.07 130.00,41.19 130.08,41.07 130.17,38.75 130.26,36.63 130.34,36.50 130.43,36.75 130.52,36.95 130.60,36.30 130.69,36.67 130.78,37.31 130.86,37.92 130.95,39.15 131.04,39.62 131.12,41.43 131.21,41.28 131.30,42.49 131.38,42.95 131.47,43.56 131.56,44.71 131.64,45.40 131.73,46.21 131.81,47.11 131.90,47.23 131.99,47.67 132.07,47.77 132.16,48.47 132.25,48.76 132.33,49.22 132.42,49.38 132.51,49.54 132.59,49.69 132.68,50.04 132.77,50.16 132.85,50.53 132.94,50.55 133.03,50.66 133.11,50.61 133.20,50.63 133.29,52.60 133.37,51.63 133.46,50.88 133.55,50.92 133.63,50.76 133.72,50.88 133.81,50.85 133.89,50.76 133.98,50.73 134.07,50.68 134.15,50.56 134.24,50.91 134.33,49.76 134.41,49.68 134.50,50.31 134.59,50.09 134.67,49.80 134.76,49.54 134.85,49.10 134.93,48.81 135.02,48.33 135.11,47.79 135.19,46.75 135.28,45.51 135.37,44.25 135.45,43.13 135.54,41.75 135.63,40.92 135.71,40.76 135.80,40.15 135.88,40.33 135.97,40.84 136.06,40.24 136.14,40.02 136.23,39.42 136.32,39.16 136.40,38.89 136.49,38.62 136.58,38.41 136.66,38.00 136.75,37.88 136.84,36.92 136.92,35.98 137.01,36.92 137.10,36.75 137.18,36.61 137.27,36.44 137.36,36.53 137.44,35.83 137.53,35.44 137.62,33.98 137.70,33.39 137.79,33.09 137.88,33.43 137.96,33.42 138.05,33.38 138.14,33.76 138.22,34.31 138.31,32.81 138.40,30.26 138.48,29.38 138.57,28.67 138.66,28.20 138.74,29.23 138.83,28.07 138.92,26.92 139.00,26.67 139.09,26.40 139.18,26.53 139.26,27.89 139.35,28.77 139.44,28.99 139.52,28.81 139.61,29.05 139.70,29.07 139.78,28.58 139.87,28.67 139.95,27.96 140.04,27.99 140.13,28.36 140.21,28.04 140.30,27.53 140.39,27.70 140.47,27.48 140.56,28.01 140.65,27.67 140.73,27.62 140.82,27.71 140.91,27.26 140.99,26.95 141.08,25.50 141.17,25.03 141.25,25.68 141.34,25.76 141.43,25.78 141.51,26.86 141.60,28.29 141.69,28.66 141.77,28.89 141.86,29.44 141.95,29.76 142.03,29.88 142.12,29.71 142.21,29.49 142.29,29.14 142.38,29.11 142.47,28.97 142.55,29.02 142.64,29.20 142.73,29.37 142.81,29.49 142.90,29.57 142.99,29.73 143.07,29.77 143.16,29.77 143.25,29.79 143.33,29.63 143.42,29.36 143.51,29.48 143.59,29.41 143.68,29.33 143.77,28.98 143.85,28.82 143.94,28.39 144.02,28.17 144.11,27.65 144.20,27.13 144.28,27.08 144.37,26.69 144.46,26.46 144.54,26.20 144.63,25.46 144.72,25.63 144.80,25.34 144.89,25.18 144.98,24.79 145.06,24.53 145.15,24.39 145.24,23.49 145.32,22.23 145.41,22.06 145.50,22.62 145.58,23.62 145.67,25.11 145.76,26.21 145.84,26.59 145.93,27.02 146.02,25.82 146.10,25.91 146.19,25.57 146.28,25.53 146.36,24.58 146.45,24.53 146.54,24.29 146.62,23.73 146.71,23.33 146.80,22.79 146.88,22.28 146.97,21.92 147.06,21.26 147.14,20.98 147.23,20.47 147.32,20.13 147.40,19.99 147.49,19.91 147.58,19.79 147.66,19.55 147.75,19.35 147.84,19.24 147.92,19.11 148.01,18.48 148.09,18.63 148.18,17.28 148.27,15.91 148.35,15.64 148.44,15.77 148.53,16.16 148.61,16.60 148.70,17.31 148.79,17.91 148.87,18.16 148.96,18.43 149.05,18.52 149.13,54.24 149.22,53.89 149.31,55.16 149.39,55.08 149.48,54.52 149.57,54.52 149.65,52.73 149.74,52.26 149.83,51.73 149.91,50.06 150.00,50.09 150.09,49.28 150.17,49.60 150.26,49.65 150.35,50.40 150.43,50.74 150.52,50.94 150.61,51.37 150.69,52.19 150.78,52.36 150.87,52.85 150.95,53.50 151.04,54.06 151.13,54.22 151.21,54.85 151.30,56.00 151.39,55.05 151.47,55.52 151.56,54.75 151.65,54.77 151.73,54.53 151.82,54.43 151.91,54.16 151.99,53.92 152.08,53.68 152.16,53.61 152.25,53.33 152.34,53.08 152.42,52.66 152.51,52.31 152.60,51.10 152.68,50.70 152.77,50.21 152.86,49.65 152.94,49.67 153.03,49.47 153.12,48.99 153.20,48.79 153.29,47.98 153.38,47.63 153.46,46.84 153.55,45.96 153.64,45.80 153.72,44.80 153.81,44.50 153.90,43.74 153.98,43.58 154.07,42.95 154.16,42.77 154.24,42.34 154.33,41.38 154.42,40.95 154.50,40.58 154.59,40.34 154.68,41.48 154.76,39.18 154.85,41.52 154.94,41.34 155.02,40.37 155.11,38.20 155.20,36.81 155.28,36.06 155.37,36.25 155.46,36.42 155.54,36.11 155.63,36.57 155.72,36.06 155.80,35.62 155.89,34.75 155.98,34.29 156.06,33.61 156.15,32.57 156.23,31.77 156.32,30.56 156.41,28.58 156.49,28.07 156.58,28.59 156.67,27.66 156.75,26.97 156.84,27.81 156.93,27.37 157.01,26.04 157.10,25.16 157.19,23.80 157.27,22.83 157.36,22.35 157.45,21.09 157.53,20.00 157.62,18.57 157.71,18.20 157.79,18.39 157.88,18.62 157.97,17.51 158.05,17.00 158.14,16.21 158.23,15.48 158.31,14.34 158.40,13.48 158.49,13.51 158.57,14.26 158.66,15.53 158.75,17.11 158.83,17.40 158.92,18.21 159.01,18.37 159.09,18.94 159.18,18.28 159.27,17.77 159.35,16.71 159.44,15.36 159.53,13.87 159.61,13.65 159.70,14.84 159.79,15.96 159.87,16.29 159.96,16.44 160.05,16.60 160.13,17.22 160.22,19.54 160.30,23.23 160.39,27.03 160.48,26.20 160.56,23.88 160.65,22.32 160.74,22.83 160.82,22.27 160.91,24.85 161.00,28.02 161.08,26.63 161.17,25.07 161.26,24.00 161.34,25.73 161.43,26.96 161.52,29.33 161.60,25.18 161.69,25.10 161.78,25.34 161.86,21.76 161.95,19.18 162.04,18.79 162.12,18.04 162.21,19.60 162.30,22.27 162.38,26.56 162.47,23.11 162.56,20.92 162.64,19.44 162.73,19.26 162.82,20.10 162.90,21.82 162.99,25.13 163.08,26.88 163.16,27.72 163.25,27.80 163.34,29.42 163.42,30.82 163.51,33.27 163.60,33.85 163.68,34.02 163.77,34.18 163.86,34.45 163.94,34.67 164.03,34.95 164.12,35.44 164.20,35.81 164.29,36.82 164.37,37.09 164.46,36.83 164.55,36.60 164.63,36.59 164.72,33.20 164.81,31.25 164.89,30.15 164.98,28.14 165.07,26.53 165.15,24.97 165.24,25.05 165.33,24.49 165.41,24.63 165.50,27.14 165.59,30.11 165.67,29.57 165.76,29.84 165.85,29.44 165.93,25.61 166.02,22.91 166.11,24.34 166.19,28.49 166.28,29.08 166.37,28.80 166.45,28.54 166.54,27.42 166.63,25.25 166.71,23.34 166.80,22.10 166.89,20.72 166.97,20.94 167.06,21.18 167.15,21.03 167.23,20.18 167.32,20.01 167.41,18.66 167.49,17.43 167.58,17.18 167.67,16.53 167.75,15.88 167.84,14.90 167.93,15.20 168.01,15.07 168.10,17.22 168.19,16.56 168.27,16.77 168.36,15.69 168.44,14.92 168.53,14.53 168.62,14.81 168.70,13.62 168.79,12.99 168.88,11.56 168.96,9.94 169.05,8.96 169.14,7.72 169.22,6.95 169.31,6.42 169.40,5.85 169.48,5.20 169.57,4.83 169.66,4.44 169.74,4.69 169.83,5.30 169.92,6.12 170.00,6.77 170.09,9.29 170.18,9.37 170.26,10.56 170.35,10.90 170.44,11.85 170.52,13.25 170.61,13.96 170.70,12.83 170.78,12.66 170.87,12.26 170.96,11.31 171.04,11.26 171.13,11.60 171.22,10.89 171.30,11.29 171.39,11.56 171.48,12.44 171.56,12.66 171.65,13.44 171.74,16.67 171.82,17.00 171.91,18.27 172.00,19.98 172.08,20.44 172.17,22.78 172.26,19.50 172.34,19.39 172.43,19.34 172.51,19.07 172.60,16.92 172.69,15.39 172.77,13.70 172.86,13.61 172.95,13.24 173.03,14.25 173.12,14.67 173.21,16.64 173.29,18.29 173.38,21.63 173.47,19.92 173.55,18.54 173.64,17.10 173.73,18.54 173.81,21.09 173.90,18.50 173.99,17.74 174.07,17.57 174.16,18.55 174.25,19.26 174.33,20.77 174.42,23.20 174.51,18.72 174.59,17.41 174.68,18.23 174.77,21.51 174.85,24.57 174.94,24.73 175.03,24.74 175.11,22.31 175.20,20.51 175.29,22.14 175.37,21.98 175.46,21.50 175.55,21.63 175.63,21.77 175.72,22.56 175.81,24.65 175.89,25.96 175.98,26.23 176.07,26.64 176.15,27.02 176.24,27.34 176.33,27.64 176.41,27.94 176.50,28.27 176.58,28.59 176.67,29.01 176.76,29.60 176.84,29.73 176.93,29.02 177.02,29.14 177.10,30.55 177.19,30.94 177.28,31.32 177.36,32.06 177.45,32.61 177.54,32.49 177.62,33.66 177.71,34.70 177.80,35.43 177.88,36.57 177.97,37.76 178.06,38.80 178.14,39.48 178.23,40.25 178.32,40.88 178.40,41.14 178.49,41.24 178.58,41.08 178.66,39.49 178.75,36.76 178.84,36.65 178.92,37.00 179.01,37.21 179.10,36.51 179.18,36.83 179.27,37.50 179.36,38.07 179.44,39.40 179.53,39.84 179.62,41.51 179.70,41.51 179.79,42.58 179.88,42.94 179.96,43.50 180.05,44.82 180.14,45.45 180.22,46.17 180.31,47.33 180.40,47.38 180.48,47.69 180.57,47.89 180.65,48.66 180.74,48.90 180.83,49.33 180.91,49.45 181.00,49.65 181.09,49.87 181.17,50.14 181.26,50.36 181.35,50.63 181.43,50.74 181.52,50.73 181.61,50.69 181.69,50.68 181.78,51.35 181.87,51.62 181.95,50.98 182.04,50.97 182.13,51.04 182.21,51.06 182.30,50.95 182.39,50.97 182.47,50.98 182.56,50.91 182.65,50.96 182.73,50.96 182.82,49.84 182.91,49.90 182.99,50.42 183.08,50.29 183.17,49.95 183.25,49.58 183.34,49.22 183.43,48.91 183.51,48.56 183.60,48.05 183.69,47.20 183.77,46.13 183.86,44.83 183.95,43.76 184.03,42.37 184.12,41.44 184.21,41.32 184.29,40.74 184.38,40.76 184.47,41.10 184.55,40.47 184.64,40.20 184.72,39.65 184.81,39.31 184.90,38.97 184.98,38.82 185.07,38.57 185.16,38.07 185.24,37.88 185.33,37.61 185.42,36.39 185.50,37.24 185.59,36.83 185.68,36.64 185.76,36.46 185.85,36.54 185.94,36.16 186.02,35.65 186.11,34.05 186.20,33.99 186.28,33.59 186.37,33.57 186.46,33.62 186.54,33.77 186.63,34.10 186.72,34.53 186.80,32.93 186.89,30.44 186.98,29.74 187.06,29.03 187.15,28.61 187.24,30.02 187.32,29.30 187.41,27.25 187.50,27.36 187.58,26.92 187.67,27.07 187.76,28.36 187.84,29.48 187.93,29.40 188.02,29.35 188.10,29.24 188.19,29.10 188.28,28.93 188.36,28.79 188.45,28.64 188.53,28.50 188.62,28.35 188.71,28.26 188.79,28.24 188.88,27.97 188.97,27.89 189.05,31.50 189.14,30.47 189.23,29.75 189.31,29.22 189.40,28.87 189.49,28.17 189.57,28.21 189.66,28.72 189.75,28.58 189.83,28.58 189.92,28.87 190.01,28.63 190.09,29.58 190.18,30.27 190.27,28.88 190.35,29.32 190.44,30.64 190.53,29.64 190.61,29.71 190.70,29.32 190.79,29.39 190.87,30.03 190.96,30.80 191.05,30.40 191.13,32.01 191.22,32.00 191.31,33.97 191.39,34.34 191.48,34.72 191.57,37.48 191.65,36.52 191.74,36.43 191.83,36.54 191.91,36.76 192.00,36.98 192.09,37.17 192.17,37.85 192.26,38.38 192.35,39.09 192.43,39.88 192.52,40.72 192.60,41.44 192.69,42.79 192.78,43.44 192.86,42.27 192.95,43.00 193.04,43.67 193.12,44.35 193.21,45.97 193.30,46.91 193.38,48.08 193.47,49.42 193.56,50.72 193.64,48.63 193.73,49.67 193.82,52.03 193.90,50.35 193.99,52.09 194.08,53.96 194.16,52.32 194.25,54.33 194.34,52.48 194.42,53.83 194.51,51.36 194.60,52.00 194.68,50.22 194.77,50.44 194.86,50.12 194.94,49.26 195.03,47.17 195.12,46.26 195.20,45.76 195.29,48.88 195.38,48.43 195.46,48.14 195.55,51.36 195.64,51.38 195.72,51.82 195.81,52.36 195.90,52.92 195.98,53.40 196.07,53.79 196.16,54.04 196.24,53.96 196.33,55.02 196.42,54.98 196.50,54.74 196.59,54.57 196.67,54.42 196.76,54.30 196.85,54.08 196.93,53.92 197.02,53.64 197.11,53.86 197.19,53.47 197.28,53.07 197.37,52.90 197.45,52.54 197.54,51.93 197.63,51.08 197.71,50.44 197.80,49.90 197.89,49.43 197.97,49.76 198.06,49.30 198.15,48.98 198.23,48.11 198.32,47.55 198.41,47.55 198.49,47.09 198.58,45.91 198.67,45.51 198.75,44.15 198.84,43.80 198.93,43.09 199.01,43.73 199.10,43.00 199.19,42.61 199.27,42.02 199.36,41.41 199.45,39.83 199.53,40.02 199.62,39.21 199.71,41.36 199.79,39.82 199.88,40.89 199.97,38.78 200.05,39.10 200.14,38.02 200.23,35.98 200.31,35.66 200.40,35.67 200.49,35.83 200.57,36.18 200.66,36.18 200.74,35.54 200.83,34.81 200.92,34.36 201.00,33.72 201.09,32.58 201.18,31.87 201.26,30.41 201.35,28.51 201.44,28.63 201.52,28.63 201.61,28.41 201.70,27.04 201.78,28.01 201.87,27.19 201.96,26.48 202.04,25.02 202.13,23.72 202.22,22.92 202.30,22.92 202.39,21.72 202.48,20.09 202.56,18.90 202.65,19.98 202.74,18.42 202.82,18.51 202.91,17.85 203.00,18.37 203.08,16.83 203.17,15.85 203.26,15.39 203.34,13.85 203.43,13.85 203.52,15.48 203.60,15.51 203.69,16.21 203.78,17.02 203.86,17.73 203.95,18.41 204.04,18.90 204.12,17.60 204.21,17.45 204.30,16.87 204.38,15.70 204.47,14.24 204.56,14.42 204.64,15.51 204.73,15.51 204.81,16.17 204.90,16.43 204.99,16.54 205.07,17.00 205.16,17.73 205.25,21.80 205.33,23.93 205.42,25.10 205.51,23.40 205.59,20.57 205.68,21.18 205.77,20.43 205.85,23.37 205.94,27.57 206.03,26.21 206.11,24.85 206.20,24.87 206.29,26.04 206.37,26.26 206.46,29.55 206.55,25.26 206.63,25.20 206.72,22.35 206.81,22.35 206.89,19.52 206.98,17.85 207.07,17.46 207.15,20.72 207.24,20.09 207.33,24.60 207.41,22.77 207.50,22.25 207.59,18.96 207.67,20.21 207.76,20.35 207.85,23.06 207.93,26.10 208.02,27.59 208.11,30.73 208.19,28.17 208.28,30.05 208.37,28.99 208.45,32.79 208.54,33.27 208.63,33.84 208.71,34.44 208.80,35.07 208.88,35.66 208.97,34.10 209.06,35.12 209.14,36.07 209.23,36.86 209.32,37.03 209.40,37.03 209.49,36.95 209.58,36.83 209.66,35.20 209.75,34.18 209.84,30.08 209.92,28.62 210.01,27.31 210.10,26.68 210.18,26.99 210.27,27.66 210.36,25.85 210.44,29.21 210.53,29.68 210.62,27.97 210.70,29.85 210.79,29.53 210.88,26.34 210.96,25.53 211.05,26.78 211.14,28.36 211.22,29.12 211.31,29.41 211.40,28.12 211.48,26.52 211.57,26.29 211.66,24.23 211.74,22.47 211.83,21.27 211.92,22.73 212.00,22.49 212.09,21.28 212.18,21.54 212.26,19.84 212.35,19.84 212.44,18.18 212.52,17.06 212.61,17.86 212.70,16.97 212.78,15.22 212.87,14.93 212.95,16.80 213.04,15.92 213.13,17.03 213.21,16.68 213.30,16.19 213.39,15.34 213.47,14.72 213.56,14.46 213.65,14.06 213.73,12.97 213.82,12.33 213.91,10.16 213.99,9.73 214.08,7.97 214.17,7.84 214.25,6.55 214.34,6.60 214.43,5.28 214.51,5.43 214.60,4.70 214.69,5.66 214.77,4.94 214.86,6.11 214.95,7.89 215.03,7.46 215.12,7.46 215.21,10.02 215.29,10.58 215.38,11.41 215.47,12.42 215.55,13.50 215.64,13.50 215.73,13.18 215.81,13.08 215.90,12.33 215.99,11.57 216.07,13.13 216.16,12.76 216.25,12.61 216.33,13.52 216.42,14.51 216.51,14.41 216.59,13.34 216.68,16.17 216.77,16.97 216.85,16.97 216.94,18.87 217.02,19.43 217.11,21.64 217.20,19.74 217.28,19.35 217.37,19.18 217.46,19.18 217.54,17.72 217.63,18.08 217.72,14.76 217.80,13.31 217.89,14.85 217.98,15.00 218.06,15.78 218.15,15.36 218.24,18.89 218.32,19.50 218.41,21.06 218.50,19.23 218.58,18.09 218.67,20.28 218.76,20.82 218.84,19.27 218.93,20.39 219.02,19.22 219.10,21.24 219.19,20.88 219.28,19.81 219.36,22.88 219.45,21.37 219.54,18.57 219.62,18.03 219.71,22.28 219.80,22.97 219.88,24.55 219.97,24.28 220.06,23.60 220.14,21.55 220.23,22.89 220.32,22.11 220.40,21.40 220.49,22.47 220.58,22.61 220.66,24.03 220.75,23.83 220.84,24.32 220.92,25.49 221.01,26.63 221.09,27.24 221.18,27.36 221.27,27.34 221.35,27.53 221.44,28.00 221.53,28.54 221.61,29.12 221.70,29.77 221.79,29.83 221.87,29.14 221.96,29.14 222.05,29.36 222.13,30.39 222.22,30.99 222.31,32.21 222.39,31.48 222.48,32.29 222.57,33.75 222.65,34.58 222.74,35.63 222.83,35.63 222.91,36.97 223.00,37.80 223.09,38.86 223.17,39.66 223.26,40.35 223.35,40.86 223.43,41.22 223.52,41.34 223.61,39.30 223.69,38.98 223.78,38.88 223.87,38.74 223.95,38.57 224.04,36.94 224.13,37.33 224.21,37.17 224.30,38.07 224.39,39.72 224.47,40.18 224.56,40.74 224.65,41.40 224.73,42.18 224.82,40.94 224.91,42.70 224.99,43.93 225.08,45.00 225.16,45.69 225.25,46.46 225.34,46.93 225.42,47.76 225.51,47.76 225.60,48.34 225.68,48.76 225.77,49.10 225.86,49.39 225.94,49.51 226.03,49.68 226.12,50.11 226.20,50.19 226.29,50.14 226.38,50.56 226.46,50.39 226.55,50.62 226.64,50.60 226.72,51.36 226.81,51.92 226.90,51.04 226.98,50.82 227.07,50.82 227.16,50.87 227.24,50.82 227.33,50.88 227.42,50.78 227.50,50.81 227.59,50.80 227.68,50.76 227.76,50.27 227.85,49.47 227.94,50.07 228.02,49.84 228.11,49.82 228.20,49.35 228.28,49.35 228.37,48.91 228.46,48.64 228.54,48.16 228.63,47.35 228.72,46.18 228.80,45.62 228.89,44.13 228.98,42.38 229.06,40.79 229.15,41.77 229.23,41.16 229.32,40.92 229.41,40.84 229.49,40.29 229.58,40.07 229.67,39.87 229.75,39.46 229.84,38.94 229.93,38.33 230.01,38.33 230.10,38.21 230.19,37.92 230.27,37.56 230.36,37.07 230.45,36.48 230.53,36.80 230.62,36.56 230.71,36.38 230.79,36.46 230.88,35.87 230.97,35.87 231.05,35.02 231.14,34.17 231.23,33.60 231.31,33.24 231.40,33.32 231.49,33.35 231.57,33.40 231.66,33.92 231.75,33.28 231.83,32.02 231.92,32.06 232.01,29.96 232.09,30.30 232.18,30.52 232.27,30.52 232.35,28.72 232.44,29.16 232.53,27.28 232.61,28.09 232.70,28.84 232.79,29.16 232.87,29.72 232.96,30.45 233.05,29.27 233.13,29.79 233.22,30.30 233.30,28.84 233.39,29.46 233.48,28.25 233.56,28.88 233.65,29.25 233.74,28.10 233.82,28.74 233.91,27.98 234.00,28.47 234.08,28.11 234.17,28.67 234.26,28.21 234.34,28.69 234.43,27.60 234.52,28.08 234.60,27.06 234.69,27.06 234.78,26.62 234.86,26.12 234.95,27.61 235.04,27.32 235.12,28.73 235.21,28.85 235.30,28.95 235.38,29.92 235.47,30.05 235.56,29.99 235.64,30.00 235.73,29.31 235.82,29.36 235.90,28.76 235.99,29.00 236.08,29.36 236.16,29.09 236.25,29.52 236.34,29.89 236.42,29.72 236.51,29.93 236.60,30.10 236.68,29.93 236.77,30.12 236.86,29.65 236.94,29.75 237.03,29.80 237.12,29.29 237.20,28.94 237.29,28.94 237.37,28.67 237.46,28.14 237.55,28.11 237.63,27.39 237.72,27.32 237.81,26.93 237.89,27.02 237.98,26.17 238.07,26.29 238.15,25.52 238.24,25.53 238.33,25.54 238.41,24.90 238.50,25.36 238.59,24.17 238.67,23.32 238.76,22.61 238.85,22.36 238.93,24.14 239.02,24.60 239.11,25.04 239.19,26.60 239.28,26.62 239.37,26.57 239.45,26.19 239.54,25.73 239.63,25.21 239.71,25.90 239.80,25.53 239.89,25.14 239.97,24.71 240.06,23.60 240.15,23.13 240.23,22.77 240.32,22.36 240.41,21.85 240.49,20.94 240.58,21.09 240.67,20.93 240.75,20.35 240.84,20.13 240.93,19.77 241.01,19.97 241.10,19.67 241.19,19.33 241.27,18.89 241.36,19.01 241.44,18.62 241.53,18.24 241.62,17.70 241.70,17.24 241.79,15.90 241.88,15.75 241.96,16.12 242.05,16.76 242.14,17.36 242.22,17.76 242.31,18.17 242.40,18.37 242.48,18.46 242.57,31.96 242.66,30.44 242.74,29.05 242.83,29.05 242.92,28.86 243.00,28.86 243.09,28.86 243.18,30.48 243.26,27.98 243.35,27.98 243.44,27.98 243.52,27.05 243.61,30.83 243.70,30.83 243.78,28.59 243.87,28.59 243.96,31.78 244.04,31.78 244.13,29.69 244.22,29.69 244.30,29.69 244.39,31.40 244.48,31.40 244.56,30.54 244.65,30.54 244.74,30.54 244.82,37.32 244.91,37.32 245.00,37.32 245.08,37.46 245.17,37.46 245.26,36.68 245.34,36.68 245.43,36.68 245.51,37.12 245.60,37.12 245.69,38.39 245.77,38.39 245.86,38.39 245.95,40.70 246.03,40.70 246.12,40.70 246.21,43.06 246.29,43.06 246.38,45.13 246.47,45.13 246.55,45.13 246.64,47.40 246.73,47.40 246.81,50.47 246.90,50.47 246.99,50.47 247.07,53.51 247.16,46.04 247.25,46.04 247.33,49.06 247.42,49.06 247.51,52.98 247.59,52.98 247.68,52.98 247.77,55.64 247.85,48.72 247.94,48.72 248.03,52.00 248.11,52.00 248.20,52.00 248.29,52.49 248.37,52.49 248.46,52.49 248.55,50.57 248.63,50.57 248.72,48.94 248.81,48.94 248.89,48.94 248.98,48.04 249.07,48.04 249.15,48.04 249.24,48.71 249.33,48.71 249.41,50.60 249.50,50.60 249.58,50.60 249.67,51.83 249.76,51.83 249.84,54.86 249.93,54.66 250.02,54.66 250.10,54.45 250.19,54.45 250.28,54.45 250.36,53.74 250.45,53.74 250.54,53.74 250.62,54.15 250.71,53.22 250.80,53.22 250.88,53.22 250.97,51.83 251.06,51.83 251.14,51.83 251.23,50.01 251.32,50.01 251.40,50.01 251.49,48.33 251.58,48.33 251.66,49.88 251.75,47.28 251.84,47.28 251.92,47.28 252.01,47.28 252.10,43.58 252.18,45.66 252.27,45.66 252.36,42.90 252.44,42.90 252.53,42.90 252.62,42.90 252.70,41.37 252.79,41.37 252.88,41.37 252.96,42.37 253.05,42.37 253.14,42.37 253.22,40.54 253.31,38.70 253.40,38.70 253.48,38.70 253.57,37.95 253.65,37.95 253.74,37.95 253.83,35.96 253.91,35.96 254.00,35.96 254.09,32.20 254.17,32.20 254.26,32.20 254.35,32.35 254.43,32.35 254.52,32.35 254.61,27.80 254.69,27.80 254.78,27.80 254.87,23.31 254.95,23.31 255.04,23.31 255.13,27.50 255.21,23.80 255.30,23.80 255.39,25.45 255.47,25.45 255.56,22.41 255.65,22.41 255.73,22.41 255.82,22.41 255.91,18.49 255.99,18.49 256.08,18.49 256.17,20.02 256.25,15.95 256.34,15.95 256.43,15.95 256.51,17.63 256.60,13.73 256.69,13.73 256.77,13.73 256.86,10.85 256.95,10.85 257.03,16.09 257.12,16.09 257.21,18.21 257.29,18.21 257.38,18.21 257.47,18.35 257.55,18.35 257.64,14.84 257.72,14.74 257.81,14.74 257.90,14.74 257.98,14.94 258.07,14.94 258.16,14.94 258.24,14.94 258.33,17.70 258.42,17.70 258.50,17.70 258.59,20.13 258.68,20.13 258.76,26.32 258.85,24.76 258.94,24.76 259.02,24.76 259.11,18.75 259.20,28.59 259.28,28.59 259.37,27.00 259.46,27.00 259.54,27.00 259.63,26.15 259.72,26.15 259.80,26.15 259.89,24.61 259.98,23.19 260.06,20.70 260.15,20.70 260.24,20.70 260.32,20.70 260.41,13.57 260.50,13.57 260.58,13.57 260.67,21.57 260.76,16.75 260.84,16.75 260.93,16.75 261.02,18.86 261.10,18.86 261.19,20.72 261.28,15.09 261.36,15.09 261.45,22.05 261.53,22.05 261.62,22.05 261.71,22.05 261.79,29.66 261.88,29.66 261.97,29.66 262.05,31.73 262.14,31.73 262.23,31.73 262.31,34.27 262.40,34.27 262.49,34.27 262.57,37.08 262.66,37.08 262.75,37.08 262.83,36.13 262.92,36.13 263.01,36.13 263.09,36.13 263.18,32.62 263.27,32.62 263.35,28.70 263.44,28.70 263.53,28.70 263.61,26.70 263.70,26.70 263.79,27.93 263.87,20.06 263.96,20.06 264.05,28.37 264.13,28.37 264.22,28.37 264.31,25.93 264.39,24.22 264.48,24.22 264.57,24.22 264.65,26.68 264.74,26.68 264.83,27.08 264.91,27.08 265.00,27.08 265.09,25.76 265.17,25.76 265.26,25.76 265.35,22.49 265.43,22.49 265.52,22.49 265.60,22.20 265.69,22.20 265.78,18.44 265.86,18.44 265.95,18.44 266.04,18.44 266.12,19.93 266.21,15.69 266.30,15.69 266.38,15.69 266.47,18.68 266.56,16.49 266.64,16.49 266.73,16.49 266.82,14.98 266.90,14.98 266.99,14.98 267.08,13.44 267.16,13.44 267.25,13.44 267.34,12.49 267.42,9.99 267.51,9.99 267.60,8.19 267.68,8.19 267.77,8.19 267.86,7.88 267.94,4.31 268.03,4.31 268.12,5.87 268.20,5.87 268.29,5.87 268.38,4.00 268.46,9.33 268.55,9.33 268.64,9.33 268.72,10.50 268.81,10.50 268.90,10.50 268.98,13.02 269.07,13.02 269.16,13.02 269.24,11.80 269.33,10.47 269.42,10.47 269.50,10.47 269.59,15.06 269.67,15.06 269.76,15.06 269.85,15.59 269.93,15.59 270.02,15.89 270.11,15.89 270.19,15.89 270.28,20.41 270.37,20.41 270.45,20.41 270.54,16.56 270.63,19.24 270.71,19.24 270.80,19.24 270.89,17.11 270.97,17.11 271.06,17.11 271.15,17.11 271.23,18.62 271.32,11.98 271.41,11.98 271.49,17.81 271.58,17.81 271.67,16.79 271.75,16.79 271.84,16.79 271.93,22.27 272.01,18.15 272.10,18.15 272.19,18.15 272.27,23.20 272.36,16.37 272.45,16.37 272.53,21.03 272.62,21.03 272.71,21.03 272.79,17.49 272.88,21.07 272.97,21.07 273.05,21.07 273.14,16.45 273.23,24.10 273.31,24.10 273.40,24.10 273.49,22.10 273.57,22.10 273.66,24.15 273.74,24.15 273.83,20.45 273.92,20.45 274.00,23.35 274.09,23.35 274.18,21.93 274.26,21.93 274.35,21.93 274.44,25.64 274.52,25.64 274.61,25.64 274.70,25.37 274.78,25.37 274.87,25.37 274.96,26.32 275.04,26.32 275.13,26.32 275.22,28.58 275.30,28.58 275.39,28.58 275.48,28.58 275.56,28.15 275.65,28.15 275.74,28.15 275.82,32.88 275.91,32.88 276.00,32.88 276.08,32.88 276.17,35.77 276.26,35.77 276.34,35.77 276.43,35.77 276.52,37.09 276.60,37.09 276.69,37.09 276.78,39.48 276.86,39.48 276.95,39.48 277.04,39.01 277.12,39.01 277.21,39.01 277.30,38.22 277.38,38.22 277.47,38.22 277.56,38.40 277.64,38.40 277.73,36.27 277.81,38.61 277.90,38.61 277.99,40.27 278.07,40.27 278.16,40.27 278.25,43.20 278.33,43.20 278.42,43.20 278.51,43.20 278.59,46.44 278.68,44.29 278.77,44.29 278.85,46.36 278.94,47.99 279.03,47.99 279.11,47.99 279.20,48.50 279.29,49.26 279.37,49.26 279.46,49.74 279.55,49.74 279.63,49.74 279.72,50.11 279.81,50.11 279.89,50.43 279.98,50.55 280.07,50.55 280.15,50.55 280.24,51.11 280.33,51.11 280.41,51.11 280.50,50.55 280.59,50.55 280.67,50.55 280.76,50.48 280.85,50.48 280.93,50.75 281.02,50.68 281.11,50.68 281.19,50.68 281.28,50.12 281.37,50.12 281.45,49.80 281.54,49.87 281.63,49.87 281.71,49.28 281.80,49.28 281.88,49.28 281.97,49.28 282.06,47.00 282.14,47.58 282.23,47.58 282.32,43.97 282.40,43.97 282.49,43.97 282.58,40.27 282.66,40.27 282.75,40.27 282.84,39.27 282.92,39.27 283.01,39.27 283.10,39.27 283.18,40.12 283.27,40.12 283.36,37.22 283.44,37.78 283.53,37.78 283.62,37.78 283.70,37.78 283.79,36.93 283.88,36.93 283.96,36.93 284.05,36.71 284.14,36.71 284.22,38.17 284.31,35.74 284.40,35.74 284.48,35.74 284.57,35.74 284.66,34.12 284.74,33.36 284.83,33.36 284.92,33.36 285.00,31.54 285.09,33.61 285.18,33.61 285.26,33.61 285.35,32.80 285.44,32.80 285.52,28.22 285.61,28.22 285.70,28.22 285.78,28.27 285.87,28.27 285.95,28.27 286.04,29.05 286.13,29.05 286.21,29.05 286.30,26.96 286.39,26.96 286.47,28.83 286.56,28.83 286.65,28.83 286.73,30.49 286.82,30.49 286.91,30.49 286.99,26.67 287.08,26.67 287.17,26.67 287.25,28.34 287.34,28.34 287.43,29.77 287.51,29.77 287.60,26.03 287.69,28.02 287.77,28.02 287.86,28.02 287.95,29.66 288.03,29.66 288.12,24.36 288.21,24.36 288.29,27.68 288.38,27.68 288.47,27.68 288.55,26.95 288.64,26.95 288.73,26.95 288.81,30.33 288.90,30.33 288.99,28.39 289.07,29.17 289.16,29.17 289.25,29.17 289.33,29.48 289.42,29.48 289.51,29.48 289.59,30.05 289.68,27.83 289.77,29.03 289.85,29.03 289.94,29.03 290.02,29.93 290.11,29.93 290.20,29.93 290.28,29.17 290.37,29.17 290.46,29.17 290.54,29.54 290.63,29.54 290.72,28.83 290.80,28.83 290.89,28.76 290.98,28.76 291.06,28.76 291.15,26.88 291.24,26.88 291.32,26.88 291.41,27.18 291.50,27.18 291.58,27.18 291.67,24.60 291.76,24.60 291.84,24.60 291.93,25.25 292.02,25.25 292.10,25.25 292.19,24.91 292.28,24.91 292.36,24.23 292.45,24.23 292.54,24.23 292.62,25.11 292.71,25.11 292.80,25.11 292.88,25.86 292.97,25.92 293.06,25.28 293.14,25.28 293.23,25.28 293.32,24.26 293.40,24.26 293.49,24.26 293.58,23.29 293.66,23.29 293.75,22.14 293.84,22.14 293.92,22.14 294.01,20.82 294.09,20.82 294.18,19.83 294.27,19.83 294.35,21.12 294.44,19.39 294.53,19.39 294.61,19.39 294.70,20.05 294.79,18.19 294.87,18.19 294.96,18.19 295.05,18.19 295.13,16.68 295.22,16.68 295.31,16.15 295.39,15.96 295.48,15.96 295.57,17.22 295.65,17.22 295.74,17.22 295.83,18.27 295.91,18.17 296.00,18.17" />
</svg>