<svg width="300" height="60" xmlns="http://www.w3.org/2000/svg">
  <polyline fill="rgba(255,200,0,0.3)" stroke="#ffbb00" stroke-width="2" points="4.00,53.91 4.20,53.93 4.40,54.09 4.61,54.05 4.81,54.09 5.01,54.33 5.21,55.13 5.41,55.33 5.61,55.29 5.82,54.86 6.02,54.50 6.22,54.38 6.42,54.48 6.62,54.53 6.83,54.59 7.03,54.47 7.23,54.36 7.43,54.19 7.63,53.98 7.83,53.80 8.04,53.80 8.24,53.92 8.44,54.17 8.64,54.27 8.84,53.88 9.04,53.73 9.25,53.69 9.45,53.78 9.65,54.48 9.85,54.76 10.05,54.99 10.26,55.37 10.46,55.32 10.66,54.61 10.86,53.48 11.06,52.52 11.26,51.88 11.47,51.28 11.67,51.25 11.87,51.28 12.07,50.96 12.27,50.49 12.48,50.22 12.68,50.23 12.88,50.27 13.08,49.85 13.28,48.97 13.48,48.29 13.69,47.68 13.89,47.81 14.09,48.41 14.29,49.07 14.49,49.77 14.70,50.01 14.90,49.65 15.10,49.05 15.30,48.00 15.50,47.78 15.70,47.87 15.91,48.40 16.11,49.47 16.31,50.28 16.51,50.58 16.71,50.52 16.91,50.61 17.12,50.57 17.32,50.27 17.52,49.89 17.72,50.36 17.92,50.24 18.13,50.49 18.33,50.47 18.53,50.59 18.73,50.59 18.93,50.53 19.13,50.49 19.34,50.49 19.54,50.60 19.74,50.72 19.94,50.74 20.14,50.85 20.35,50.74 20.55,50.58 20.75,50.26 20.95,49.95 21.15,49.74 21.35,49.30 21.56,49.01 21.76,48.74 21.96,48.51 22.16,48.24 22.36,48.19 22.57,47.94 22.77,47.80 22.97,47.91 23.17,48.09 23.37,48.06 23.57,47.92 23.78,47.74 23.98,47.54 24.18,47.30 24.38,47.02 24.58,46.78 24.79,46.32 24.99,46.10 25.19,45.70 25.39,45.37 25.59,44.89 25.79,44.45 26.00,44.14 26.20,44.00 26.40,43.93 26.60,43.73 26.80,43.41 27.00,43.65 27.21,43.50 27.41,43.19 27.61,42.64 27.81,41.93 28.01,42.05 28.22,42.41 28.42,42.23 28.62,42.22 28.82,42.35 29.02,42.47 29.22,42.45 29.43,42.29 29.63,42.13 29.83,41.96 30.03,41.84 30.23,41.79 30.44,41.83 30.64,41.92 30.84,41.89 31.04,41.41 31.24,40.74 31.44,40.40 31.65,39.96 31.85,39.74 32.05,39.37 32.25,39.07 32.45,38.65 32.66,38.36 32.86,37.82 33.06,37.48 33.26,37.01 33.46,36.71 33.66,36.41 33.87,35.80 34.07,34.93 34.27,34.31 34.47,34.09 34.67,33.81 34.87,33.75 35.08,33.92 35.28,34.22 35.48,34.46 35.68,34.57 35.88,34.44 36.09,34.29 36.29,34.02 36.49,33.80 36.69,33.97 36.89,34.13 37.09,33.95 37.30,33.62 37.50,33.57 37.70,33.22 37.90,32.78 38.10,32.37 38.31,31.87 38.51,31.40 38.71,30.84 38.91,30.59 39.11,30.06 39.31,29.17 39.52,28.11 39.72,27.10 39.92,26.06 40.12,25.24 40.32,24.85 40.53,24.97 40.73,24.75 40.93,23.88 41.13,23.81 41.33,24.42 41.53,25.07 41.74,24.73 41.94,24.60 42.14,24.67 42.34,24.74 42.54,25.20 42.74,25.47 42.95,25.48 43.15,25.64 43.35,25.39 43.55,25.29 43.75,25.61 43.96,26.12 44.16,25.72 44.36,25.07 44.56,25.00 44.76,25.24 44.96,25.53 45.17,25.81 45.37,26.35 45.57,27.45 45.77,27.98 45.97,27.66 46.18,27.68 46.38,27.64 46.58,26.96 46.78,26.51 46.98,26.74 47.18,26.47 47.39,25.67 47.59,25.74 47.79,24.73 47.99,23.85 48.19,22.74 48.40,21.43 48.60,20.03 48.80,18.65 49.00,17.42 49.20,16.41 49.40,15.64 49.61,14.99 49.81,14.79 50.01,15.12 50.21,15.72 50.41,16.44 50.62,17.26 50.82,17.80 51.02,17.81 51.22,17.82 51.42,17.96 51.62,17.44 51.83,16.60 52.03,15.94 52.23,15.36 52.43,15.01 52.63,14.56 52.83,14.22 53.04,13.90 53.24,13.82 53.44,13.89 53.64,14.06 53.84,14.38 54.05,14.65 54.25,15.00 54.45,15.46 54.65,15.66 54.85,15.16 55.05,14.39 55.26,13.47 55.46,12.81 55.66,12.44 55.86,12.44 56.06,12.66 56.27,12.92 56.47,13.21 56.67,13.69 56.87,14.26 57.07,14.98 57.27,15.99 57.48,17.24 57.68,17.84 57.88,17.71 58.08,17.38 58.28,16.81 58.49,15.98 58.69,15.13 58.89,14.47 59.09,13.88 59.29,13.52 59.49,13.32 59.70,13.44 59.90,13.92 60.10,14.95 60.30,14.37 60.50,13.72 60.70,12.92 60.91,12.05 61.11,10.99 61.31,9.88 61.51,8.78 61.71,7.53 61.92,6.32 62.12,5.28 62.32,4.54 62.52,4.00 62.72,53.90 62.92,53.93 63.13,54.08 63.33,54.08 63.53,54.08 63.73,54.29 63.93,55.09 64.14,55.35 64.34,55.30 64.54,54.86 64.74,54.46 64.94,54.36 65.14,54.48 65.35,54.49 65.55,54.53 65.75,54.44 65.95,54.38 66.15,54.18 66.36,53.90 66.56,53.80 66.76,53.81 66.96,53.94 67.16,54.20 67.36,54.24 67.57,53.90 67.77,53.73 67.97,53.63 68.17,53.80 68.37,54.48 68.57,54.68 68.78,55.12 68.98,55.26 69.18,55.32 69.38,54.56 69.58,53.43 69.79,52.58 69.99,51.81 70.19,51.31 70.39,51.20 70.59,51.26 70.79,50.95 71.00,50.49 71.20,50.23 71.40,50.26 71.60,50.27 71.80,49.83 72.01,48.97 72.21,48.37 72.41,47.69 72.61,47.80 72.81,48.40 73.01,49.11 73.22,49.81 73.42,50.00 73.62,49.68 73.82,49.05 74.02,48.11 74.23,47.79 74.43,47.85 74.63,48.41 74.83,49.45 75.03,50.27 75.23,50.50 75.44,50.54 75.64,50.63 75.84,50.51 76.04,50.23 76.24,49.96 76.45,50.35 76.65,50.26 76.85,50.47 77.05,50.43 77.25,50.68 77.45,50.60 77.66,50.52 77.86,50.49 78.06,50.47 78.26,50.60 78.46,50.75 78.66,50.74 78.87,50.79 79.07,50.74 79.27,50.56 79.47,50.27 79.67,49.97 79.88,49.71 80.08,49.28 80.28,48.99 80.48,48.71 80.68,48.50 80.88,48.24 81.09,48.18 81.29,47.90 81.49,47.85 81.69,47.92 81.89,48.07 82.10,48.07 82.30,47.94 82.50,47.77 82.70,47.51 82.90,47.33 83.10,47.08 83.31,46.73 83.51,46.35 83.71,46.10 83.91,45.73 84.11,45.42 84.32,44.91 84.52,44.43 84.72,44.14 84.92,43.98 85.12,43.94 85.32,43.77 85.53,43.39 85.73,43.54 85.93,43.62 86.13,43.20 86.33,42.60 86.53,41.94 86.74,42.12 86.94,42.41 87.14,42.25 87.34,42.25 87.54,42.36 87.75,42.45 87.95,42.46 88.15,42.34 88.35,42.14 88.55,41.99 88.75,41.82 88.96,41.80 89.16,41.79 89.36,41.91 89.56,41.90 89.76,41.39 89.97,40.79 90.17,40.38 90.37,39.97 90.57,39.77 90.77,39.37 90.97,39.07 91.18,38.64 91.38,38.36 91.58,37.82 91.78,37.52 91.98,37.02 92.19,36.70 92.39,36.42 92.59,35.85 92.79,34.89 92.99,34.36 93.19,34.11 93.40,33.83 93.60,33.81 93.80,33.94 94.00,34.19 94.20,34.48 94.40,34.55 94.61,34.41 94.81,34.27 95.01,34.02 95.21,33.77 95.41,33.97 95.62,34.15 95.82,33.99 96.02,33.63 96.22,33.54 96.42,33.28 96.62,32.83 96.83,32.37 97.03,31.91 97.23,31.40 97.43,30.82 97.63,30.60 97.84,30.05 98.04,29.20 98.24,28.09 98.44,27.04 98.64,26.06 98.84,25.20 99.05,24.89 99.25,24.89 99.45,24.75 99.65,23.83 99.85,23.81 100.06,24.45 100.26,25.03 100.46,24.79 100.66,24.55 100.86,24.65 101.06,24.80 101.27,25.17 101.47,25.49 101.67,25.44 101.87,25.65 102.07,25.33 102.28,25.27 102.48,25.54 102.68,26.12 102.88,25.66 103.08,25.04 103.28,25.02 103.49,25.20 103.69,25.51 103.89,25.80 104.09,26.30 104.29,27.34 104.49,28.02 104.70,27.71 104.90,27.66 105.10,27.64 105.30,26.96 105.50,26.57 105.71,26.72 105.91,26.43 106.11,25.68 106.31,25.73 106.51,24.75 106.71,23.86 106.92,22.75 107.12,21.41 107.32,20.11 107.52,18.70 107.72,17.42 107.93,16.36 108.13,15.65 108.33,15.00 108.53,14.80 108.73,15.15 108.93,15.78 109.14,16.46 109.34,17.22 109.54,17.83 109.74,17.83 109.94,17.80 110.15,18.00 110.35,17.46 110.55,16.64 110.75,15.95 110.95,15.42 111.15,14.91 111.36,14.52 111.56,14.23 111.76,13.96 111.96,13.85 112.16,13.85 112.36,14.05 112.57,14.33 112.77,14.65 112.97,15.04 113.17,15.44 113.37,15.68 113.58,15.18 113.78,14.38 113.98,13.45 114.18,12.76 114.38,12.44 114.58,12.47 114.79,12.67 114.99,12.88 115.19,13.20 115.39,13.70 115.59,14.28 115.80,15.02 116.00,16.02 116.20,17.39 116.40,17.85 116.60,17.70 116.80,17.34 117.01,16.77 117.21,15.91 117.41,15.09 117.61,14.45 117.81,13.93 118.02,13.53 118.22,13.34 118.42,13.46 118.62,13.98 118.82,14.87 119.02,14.40 119.23,13.73 119.43,12.92 119.63,12.03 119.83,11.02 120.03,53.72 120.23,53.83 120.44,54.25 120.64,54.03 120.84,54.10 121.04,54.27 121.24,55.13 121.45,55.14 121.65,55.28 121.85,54.76 122.05,54.39 122.25,54.48 122.45,54.44 122.66,54.46 122.86,54.45 123.06,54.39 123.26,54.32 123.46,54.17 123.67,53.77 123.87,53.72 124.07,53.80 124.27,53.88 124.47,54.03 124.67,54.17 124.88,53.83 125.08,53.77 125.28,53.74 125.48,53.84 125.68,54.58 125.89,54.59 126.09,55.01 126.29,55.38 126.49,55.29 126.69,54.25 126.89,53.56 127.10,52.58 127.30,51.78 127.50,51.30 127.70,51.15 127.90,51.26 128.11,50.84 128.31,50.55 128.51,50.28 128.71,50.17 128.91,50.21 129.11,49.81 129.32,48.94 129.52,48.16 129.72,47.64 129.92,47.79 130.12,48.50 130.32,49.08 130.53,49.73 130.73,49.93 130.93,49.65 131.13,49.12 131.33,48.11 131.54,47.78 131.74,47.91 131.94,48.36 132.14,49.51 132.34,50.29 132.54,50.33 132.75,50.42 132.95,50.42 133.15,50.65 133.35,50.44 133.55,49.90 133.76,50.40 133.96,50.20 134.16,50.37 134.36,50.48 134.56,50.54 134.76,50.50 134.97,50.60 135.17,50.50 135.37,50.48 135.57,50.55 135.77,50.70 135.98,50.71 136.18,50.80 136.38,50.74 136.58,50.55 136.78,50.27 136.98,49.90 137.19,49.65 137.39,49.32 137.59,49.04 137.79,48.71 137.99,48.45 138.19,48.22 138.40,48.16 138.60,47.88 138.80,47.75 139.00,47.89 139.20,48.07 139.41,48.03 139.61,47.92 139.81,47.83 140.01,47.60 140.21,47.38 140.41,47.09 140.62,46.67 140.82,46.36 141.02,46.12 141.22,45.68 141.42,45.36 141.63,44.96 141.83,44.58 142.03,44.24 142.23,44.07 142.43,44.05 142.63,43.53 142.84,43.32 143.04,43.50 143.24,43.56 143.44,43.35 143.64,42.56 143.85,41.86 144.05,41.92 144.25,42.41 144.45,42.25 144.65,42.22 144.85,42.38 145.06,42.39 145.26,42.48 145.46,42.42 145.66,41.98 145.86,41.97 146.06,41.77 146.27,41.63 146.47,41.70 146.67,41.76 146.87,41.78 147.07,41.42 147.28,40.73 147.48,40.39 147.68,39.87 147.88,39.78 148.08,39.34 148.28,39.04 148.49,38.62 148.69,38.31 148.89,37.79 149.09,37.40 149.29,36.97 149.50,36.68 149.70,36.36 149.90,35.81 150.10,34.97 150.30,34.33 150.50,34.10 150.71,33.89 150.91,33.78 151.11,33.85 151.31,34.23 151.51,34.45 151.72,34.47 151.92,34.36 152.12,34.23 152.32,33.98 152.52,33.82 152.72,34.06 152.93,34.19 153.13,33.90 153.33,33.60 153.53,33.52 153.73,33.29 153.94,32.89 154.14,32.30 154.34,31.87 154.54,31.40 154.74,30.90 154.94,30.56 155.15,30.01 155.35,29.23 155.55,28.09 155.75,26.89 155.95,26.13 156.15,25.13 156.36,24.93 156.56,24.88 156.76,24.66 156.96,23.76 157.16,23.70 157.37,24.24 157.57,25.05 157.77,24.73 157.97,24.72 158.17,24.62 158.37,24.70 158.58,25.34 158.78,25.41 158.98,25.59 159.18,25.38 159.38,25.41 159.59,25.21 159.79,25.66 159.99,26.04 160.19,25.79 160.39,25.08 160.59,25.04 160.80,25.20 161.00,25.46 161.20,25.93 161.40,26.48 161.60,27.33 161.81,27.91 162.01,27.63 162.21,27.67 162.41,27.52 162.61,27.04 162.81,26.48 163.02,26.73 163.22,26.50 163.42,25.59 163.62,25.76 163.82,24.61 164.02,23.90 164.23,22.62 164.43,21.37 164.63,20.06 164.83,18.70 165.03,17.38 165.24,16.31 165.44,15.47 165.64,15.10 165.84,14.81 166.04,15.11 166.24,15.90 166.45,16.46 166.65,17.10 166.85,17.83 167.05,17.79 167.25,17.71 167.46,17.98 167.66,17.36 167.86,16.55 168.06,15.77 168.26,15.47 168.46,15.04 168.67,14.45 168.87,14.15 169.07,13.83 169.27,13.84 169.47,13.94 169.68,13.99 169.88,14.22 170.08,14.71 170.28,14.91 170.48,15.42 170.68,15.57 170.89,14.99 171.09,14.26 171.29,13.61 171.49,12.73 171.69,12.38 171.89,12.45 172.10,12.67 172.30,12.84 172.50,13.24 172.70,13.70 172.90,14.31 173.11,14.93 173.31,16.03 173.51,17.44 173.71,17.85 173.91,17.73 174.11,17.34 174.32,16.69 174.52,16.00 174.72,15.06 174.92,14.44 175.12,13.84 175.33,13.47 175.53,13.36 175.73,13.55 175.93,13.84 176.13,15.01 176.33,14.38 176.54,13.72 176.74,12.88 176.94,11.97 177.14,11.03 177.34,9.91 177.55,8.67 177.75,7.39 177.95,6.48 178.15,5.38 178.35,4.61 178.55,4.02 178.76,54.45 178.96,54.18 179.16,54.02 179.36,54.02 179.56,53.66 179.77,54.18 179.97,55.41 180.17,55.06 180.37,55.08 180.57,54.95 180.77,54.78 180.98,54.76 181.18,54.20 181.38,54.43 181.58,54.16 181.78,54.48 181.98,54.32 182.19,54.12 182.39,53.40 182.59,53.95 182.79,53.99 182.99,54.08 183.20,53.51 183.40,54.21 183.60,53.90 183.80,53.59 184.00,54.27 184.20,53.59 184.41,53.85 184.61,54.23 184.81,55.41 185.01,54.74 185.21,55.09 185.42,54.01 185.62,53.38 185.82,52.33 186.02,51.41 186.22,51.15 186.42,51.15 186.63,51.33 186.83,50.88 187.03,50.80 187.23,50.50 187.43,49.90 187.64,50.02 187.84,49.75 188.04,49.06 188.24,48.27 188.44,47.61 188.64,47.90 188.85,48.33 189.05,48.95 189.25,49.67 189.45,49.89 189.65,49.47 189.85,49.47 190.06,48.46 190.26,47.51 190.46,47.65 190.66,48.10 190.86,49.68 191.07,50.43 191.27,50.25 191.47,50.85 191.67,50.10 191.87,50.02 192.07,50.84 192.28,50.57 192.48,49.86 192.68,50.33 192.88,49.85 193.08,50.37 193.29,50.05 193.49,50.91 193.69,50.45 193.89,50.77 194.09,50.47 194.29,50.32 194.50,50.72 194.70,50.58 194.90,50.79 195.10,50.59 195.30,50.29 195.51,50.25 195.71,49.87 195.91,49.48 196.11,49.48 196.31,49.07 196.51,48.70 196.72,48.39 196.92,48.18 197.12,47.99 197.32,47.74 197.52,47.60 197.72,47.62 197.93,48.13 198.13,48.10 198.33,48.00 198.53,47.86 198.73,47.68 198.94,47.45 199.14,47.18 199.34,46.82 199.54,46.39 199.74,46.00 199.94,45.58 200.15,45.13 200.35,44.62 200.55,44.58 200.75,44.09 200.95,43.70 201.16,44.13 201.36,43.58 201.56,43.58 201.76,43.13 201.96,44.07 202.16,43.70 202.37,42.55 202.57,41.82 202.77,42.32 202.97,42.16 203.17,42.25 203.38,42.42 203.58,42.57 203.78,42.16 203.98,42.27 204.18,42.19 204.38,42.01 204.59,41.83 204.79,41.60 204.99,41.43 205.19,41.37 205.39,41.42 205.60,41.53 205.80,41.42 206.00,40.94 206.20,40.22 206.40,40.02 206.60,39.75 206.81,39.43 207.01,38.86 207.21,38.59 207.41,38.41 207.61,37.84 207.81,37.56 208.02,37.04 208.22,36.77 208.42,36.29 208.62,35.91 208.82,34.92 209.03,34.33 209.23,34.04 209.43,33.70 209.63,33.93 209.83,33.78 210.03,34.35 210.24,34.35 210.44,34.39 210.64,34.44 210.84,34.02 211.04,34.11 211.25,33.64 211.45,33.75 211.65,33.89 211.85,33.85 212.05,33.74 212.25,33.26 212.46,33.23 212.66,32.64 212.86,32.02 213.06,31.99 213.26,31.27 213.47,30.73 213.67,30.28 213.87,30.16 214.07,29.06 214.27,28.08 214.47,26.80 214.68,25.66 214.88,24.68 215.08,24.83 215.28,24.45 215.48,24.50 215.68,23.99 215.89,24.01 216.09,24.53 216.29,24.88 216.49,24.53 216.69,24.26 216.90,24.18 217.10,24.30 217.30,25.58 217.50,25.68 217.70,25.83 217.90,24.84 218.11,25.16 218.31,24.93 218.51,25.68 218.71,25.86 218.91,25.49 219.12,24.91 219.32,24.73 219.52,24.91 219.72,25.19 219.92,26.21 220.12,26.83 220.33,26.83 220.53,27.95 220.73,27.78 220.93,27.44 221.13,27.65 221.34,27.06 221.54,26.73 221.74,26.56 221.94,26.60 222.14,25.62 222.34,25.44 222.55,24.53 222.75,23.74 222.95,22.78 223.15,21.50 223.35,20.26 223.55,18.94 223.76,17.67 223.96,16.69 224.16,15.59 224.36,15.07 224.56,15.10 224.77,15.10 224.97,15.74 225.17,16.25 225.37,17.23 225.57,17.68 225.77,18.08 225.98,17.61 226.18,17.89 226.38,17.09 226.58,17.09 226.78,15.97 226.99,15.93 227.19,15.21 227.39,14.68 227.59,14.03 227.79,13.83 227.99,14.26 228.20,13.94 228.40,14.34 228.60,14.30 228.80,14.58 229.00,14.79 229.21,15.56 229.41,15.44 229.61,15.46 229.81,14.26 230.01,13.71 230.21,12.70 230.42,12.60 230.62,12.59 230.82,12.97 231.02,12.80 231.22,13.19 231.43,13.75 231.63,14.49 231.83,15.25 232.03,15.61 232.23,17.16 232.43,18.01 232.64,17.73 232.84,17.69 233.04,17.20 233.24,16.51 233.44,15.14 233.64,14.55 233.85,13.99 234.05,13.46 234.25,13.54 234.45,13.87 234.65,13.87 234.86,14.56 235.06,14.25 235.26,13.73 235.46,13.08 235.66,11.77 235.86,10.90 236.07,9.35 236.27,8.27 236.47,7.20 236.67,6.63 236.87,5.71 237.08,5.06 237.28,4.17 237.48,55.47 237.68,54.17 237.88,54.17 238.08,54.17 238.29,54.17 238.49,56.00 238.69,56.00 238.89,54.95 239.09,54.95 239.30,54.95 239.50,54.89 239.70,54.89 239.90,54.89 240.10,55.13 240.30,55.13 240.51,55.13 240.71,54.33 240.91,54.33 241.11,54.33 241.31,54.33 241.51,54.04 241.72,54.04 241.92,54.04 242.12,54.04 242.32,53.94 242.52,53.94 242.73,53.94 242.93,53.94 243.13,53.85 243.33,53.85 243.53,53.85 243.73,53.85 243.94,54.47 244.14,54.47 244.34,54.47 244.54,51.76 244.74,51.76 244.95,51.76 245.15,51.76 245.35,51.30 245.55,51.30 245.75,51.30 245.95,50.08 246.16,50.08 246.36,50.08 246.56,49.45 246.76,49.45 246.96,49.45 247.17,47.50 247.37,47.50 247.57,48.46 247.77,48.46 247.97,48.46 248.17,50.03 248.38,50.03 248.58,50.03 248.78,48.37 248.98,48.22 249.18,48.22 249.38,48.22 249.59,49.20 249.79,49.20 249.99,51.46 250.19,51.46 250.39,49.33 250.60,49.33 250.80,51.55 251.00,51.55 251.20,49.20 251.40,49.20 251.60,49.20 251.81,50.43 252.01,50.43 252.21,50.43 252.41,50.43 252.61,49.52 252.82,49.52 253.02,49.52 253.22,50.62 253.42,50.62 253.62,50.62 253.82,50.06 254.03,50.06 254.23,50.06 254.43,49.07 254.63,49.07 254.83,49.07 255.04,49.07 255.24,47.96 255.44,47.96 255.64,47.96 255.84,47.02 256.04,47.02 256.25,47.02 256.45,46.49 256.65,48.04 256.85,48.04 257.05,47.88 257.26,47.88 257.46,47.88 257.66,47.31 257.86,47.31 258.06,47.31 258.26,46.32 258.47,46.32 258.67,46.32 258.87,45.10 259.07,45.10 259.27,45.10 259.47,43.69 259.68,43.69 259.88,43.69 260.08,42.57 260.28,42.57 260.48,42.57 260.69,44.62 260.89,43.80 261.09,41.66 261.29,41.66 261.49,41.88 261.69,41.88 261.90,41.88 262.10,42.46 262.30,42.46 262.50,41.05 262.70,41.05 262.91,40.67 263.11,40.67 263.31,40.67 263.51,40.06 263.71,40.06 263.91,40.06 264.12,40.07 264.32,40.07 264.52,40.07 264.72,40.14 264.92,40.14 265.13,40.14 265.33,39.40 265.53,39.40 265.73,39.40 265.93,38.66 266.13,37.68 266.34,37.68 266.54,37.68 266.74,36.22 266.94,36.22 267.14,36.01 267.34,34.57 267.55,34.57 267.75,34.57 267.95,33.57 268.15,33.57 268.35,33.57 268.56,32.82 268.76,34.42 268.96,34.42 269.16,34.42 269.36,34.50 269.56,32.96 269.77,32.96 269.97,33.21 270.17,33.21 270.37,33.21 270.57,33.29 270.78,33.29 270.98,33.29 271.18,33.23 271.38,31.56 271.58,31.56 271.78,31.56 271.99,31.33 272.19,29.68 272.39,29.68 272.59,29.68 272.79,29.06 273.00,26.24 273.20,26.24 273.40,26.24 273.60,23.64 273.80,23.26 274.00,23.26 274.21,23.26 274.41,23.41 274.61,23.41 274.81,23.41 275.01,23.60 275.21,23.60 275.42,23.60 275.62,23.32 275.82,23.32 276.02,23.32 276.22,23.74 276.43,23.74 276.63,23.74 276.83,23.74 277.03,25.09 277.23,25.09 277.43,23.70 277.64,23.88 277.84,23.88 278.04,23.88 278.24,23.56 278.44,23.56 278.65,25.74 278.85,26.70 279.05,26.70 279.25,26.70 279.45,26.70 279.65,27.05 279.86,27.46 280.06,27.46 280.26,27.46 280.46,27.28 280.66,27.28 280.87,26.07 281.07,25.31 281.27,25.31 281.47,23.53 281.67,23.53 281.87,23.96 282.08,20.49 282.28,20.49 282.48,20.49 282.68,16.90 282.88,16.90 283.09,18.31 283.29,16.02 283.49,16.02 283.69,16.02 283.89,17.60 284.09,17.60 284.30,17.60 284.50,18.74 284.70,18.74 284.90,18.74 285.10,17.01 285.30,17.01 285.51,16.88 285.71,16.88 285.91,16.88 286.11,15.40 286.31,15.40 286.52,15.40 286.72,15.40 286.92,14.07 287.12,16.23 287.32,16.23 287.52,15.99 287.73,15.99 287.93,15.53 288.13,15.53 288.33,15.53 288.53,14.80 288.74,14.80 288.94,12.94 289.14,13.31 289.34,13.31 289.54,13.31 289.74,13.31 289.95,14.57 290.15,14.57 290.35,14.57 290.55,17.05 290.75,17.05 290.96,17.70 291.16,17.70 291.36,17.70 291.56,18.06 291.76,18.06 291.96,18.06 292.17,16.62 292.37,16.62 292.57,15.09 292.77,15.09 292.97,15.09 293.17,13.94 293.38,13.94 293.58,14.52 293.78,14.52 293.98,14.52 294.18,12.18 294.39,10.78 294.59,10.78 294.79,7.83 294.99,7.83 295.19,7.83 295.39,7.83 295.60,6.24 295.80,6.24 296.00,5.54" />
</svg>