<svg width="300" height="60" xmlns="http://www.w3.org/2000/svg">
  <polyline fill="rgba(255,200,0,0.3)" stroke="#ffbb00" stroke-width="2" points="4.00,52.19 7.79,51.49 11.58,50.59 15.38,49.77 19.17,48.61 22.96,46.90 26.75,44.79 30.55,39.21 34.34,36.57 38.13,35.66 41.92,33.41 45.71,34.23 49.51,32.67 53.30,28.56 57.09,25.26 60.88,21.54 64.68,18.25 68.47,15.87 72.26,14.94 76.05,17.40 79.84,16.98 83.64,16.26 87.43,12.03 91.22,9.20 95.01,6.48 98.81,4.49 102.60,50.24 106.39,49.76 110.18,49.01 113.97,50.97 117.77,49.76 121.56,47.23 125.35,41.25 129.14,38.25 132.94,36.63 136.73,35.42 140.52,34.20 144.31,33.08 148.10,30.55 151.90,27.19 155.69,24.19 159.48,21.15 163.27,18.44 167.06,14.41 170.86,14.32 174.65,14.88 178.44,15.63 182.23,15.54 186.03,13.54 189.82,8.40 193.61,5.87 197.40,4.00 201.19,56.00 204.99,51.14 208.78,51.14 212.57,51.14 216.36,42.62 220.16,42.62 223.95,37.20 227.74,37.20 231.53,37.20 235.32,34.86 239.12,34.86 242.91,29.21 246.70,29.21 250.49,29.21 254.29,22.66 258.08,22.66 261.87,22.66 265.66,18.27 269.45,18.27 273.25,14.34 277.04,14.34 280.83,14.34 284.62,9.57 288.42,9.57 292.21,5.92 296.00,5.92" />
</svg>