<svg width="300" height="60" xmlns="http://www.w3.org/2000/svg">
  <polyline fill="rgba(255,200,0,0.3)" stroke="#ffbb00" stroke-width="2" points="4.00,4.19 4.55,5.71 5.11,6.80 5.66,7.56 6.22,8.01 6.77,8.35 7.32,9.28 7.88,9.92 8.43,10.31 8.99,9.87 9.54,9.44 10.09,9.67 10.65,10.32 11.20,11.63 11.76,14.12 12.31,15.69 12.87,18.09 13.42,19.60 13.97,19.92 14.53,19.73 15.08,19.65 15.64,19.05 16.19,19.11 16.74,18.72 17.30,17.46 17.85,16.37 18.41,15.75 18.96,15.94 19.51,15.81 20.07,15.96 20.62,15.82 21.18,16.83 21.73,17.68 22.28,18.86 22.84,19.67 23.39,20.34 23.95,20.91 24.50,21.17 25.06,22.07 25.61,22.51 26.16,23.79 26.72,25.27 27.27,27.68 27.83,30.63 28.38,32.33 28.93,34.54 29.49,35.65 30.04,36.12 30.60,4.12 31.15,5.39 31.70,6.77 32.26,7.51 32.81,7.97 33.37,8.35 33.92,9.25 34.47,9.91 35.03,10.30 35.58,9.63 36.14,9.34 36.69,9.64 37.24,10.34 37.80,11.56 38.35,14.10 38.91,15.68 39.46,17.99 40.02,19.52 40.57,19.89 41.12,19.67 41.68,19.66 42.23,19.02 42.79,19.11 43.34,18.70 43.89,17.32 44.45,16.42 45.00,15.76 45.56,15.93 46.11,15.79 46.66,15.92 47.22,15.91 47.77,16.82 48.33,17.64 48.88,18.84 49.43,19.67 49.99,20.31 50.54,20.90 51.10,21.08 51.65,21.94 52.20,22.36 52.76,23.73 53.31,25.26 53.87,27.53 54.42,30.46 54.98,32.27 55.53,34.43 56.08,35.66 56.64,35.67 57.19,36.30 57.75,37.00 58.30,37.58 58.85,38.37 59.41,38.06 59.96,37.34 60.52,37.43 61.07,35.06 61.62,34.84 62.18,34.03 62.73,33.84 63.29,33.67 63.84,33.29 64.39,31.72 64.95,30.54 65.50,31.53 66.06,33.91 66.61,34.94 67.17,34.98 67.72,34.95 68.27,35.26 68.83,35.51 69.38,36.87 69.94,38.81 70.49,41.73 71.04,44.71 71.60,46.26 72.15,45.91 72.71,45.90 73.26,47.27 73.81,47.81 74.37,47.60 74.92,47.35 75.48,47.57 76.03,47.91 76.58,48.71 77.14,49.05 77.69,49.39 78.25,49.66 78.80,50.30 79.35,50.77 79.91,50.83 80.46,50.93 81.02,50.03 81.57,50.74 82.13,53.38 82.68,53.43 83.23,52.22 83.79,50.92 84.34,50.27 84.90,48.78 85.45,48.60 86.00,47.72 86.56,47.89 87.11,47.43 87.67,47.22 88.22,47.06 88.77,45.99 89.33,45.07 89.88,44.93 90.44,45.88 90.99,45.45 91.54,43.36 92.10,40.89 92.65,38.88 93.21,37.03 93.76,36.19 94.31,35.90 94.87,36.33 95.42,36.09 95.98,35.42 96.53,35.05 97.09,35.08 97.64,34.75 98.19,34.45 98.75,33.79 99.30,33.35 99.86,33.25 100.41,32.58 100.96,31.58 101.52,29.78 102.07,28.41 102.63,27.06 103.18,25.73 103.73,25.02 104.29,24.08 104.84,22.40 105.40,20.55 105.95,18.98 106.50,17.27 107.06,16.18 107.61,15.06 108.17,14.27 108.72,13.31 109.28,12.37 109.83,12.20 110.38,11.94 110.94,11.82 111.49,11.82 112.05,11.76 112.60,11.72 113.15,11.76 113.71,11.52 114.26,10.82 114.82,10.07 115.37,9.37 115.92,8.65 116.48,8.34 117.03,8.53 117.59,9.25 118.14,9.94 118.69,9.52 119.25,4.00 119.80,5.44 120.36,6.42 120.91,7.79 121.46,8.12 122.02,8.75 122.57,8.80 123.13,9.66 123.68,10.82 124.24,10.34 124.79,10.24 125.34,10.24 125.90,10.75 126.45,12.27 127.01,14.74 127.56,15.69 128.11,17.79 128.67,18.65 129.22,20.57 129.78,19.37 130.33,20.15 130.88,18.47 131.44,18.76 131.99,18.76 132.55,18.41 133.10,17.40 133.65,16.44 134.21,16.44 134.76,15.27 135.32,16.49 135.87,15.34 136.43,17.16 136.98,17.19 137.53,19.38 138.09,21.41 138.64,21.00 139.20,21.00 139.75,20.93 140.30,21.77 140.86,22.98 141.41,22.98 141.97,24.96 142.52,28.20 143.07,29.01 143.63,32.97 144.18,33.00 144.74,36.26 145.29,34.89 145.84,36.14 146.40,36.68 146.95,38.53 147.51,37.54 148.06,37.80 148.61,36.99 149.17,36.43 149.72,34.58 150.28,34.31 150.83,34.10 151.39,34.01 151.94,33.46 152.49,31.73 153.05,31.05 153.60,29.70 154.16,30.95 154.71,34.55 155.26,36.39 155.82,34.88 156.37,33.80 156.93,37.37 157.48,36.53 158.03,35.83 158.59,39.86 159.14,40.49 159.70,43.68 160.25,46.43 160.80,46.16 161.36,45.43 161.91,47.88 162.47,47.55 163.02,47.85 163.57,47.39 164.13,47.58 164.68,47.72 165.24,48.43 165.79,49.29 166.35,49.39 166.90,49.66 167.45,50.16 168.01,50.67 168.56,50.78 169.12,51.65 169.67,49.97 170.22,51.98 170.78,53.10 171.33,55.08 171.89,52.56 172.44,52.05 172.99,49.43 173.55,49.54 174.10,47.13 174.66,48.99 175.21,48.60 175.76,46.54 176.32,47.50 176.87,48.85 177.43,45.63 177.98,45.28 178.54,46.31 179.09,45.32 179.64,45.60 180.20,43.11 180.75,40.44 181.31,37.74 181.86,37.74 182.41,36.60 182.97,35.95 183.52,36.44 184.08,37.12 184.63,35.28 185.18,35.13 185.74,34.98 186.29,34.82 186.85,34.52 187.40,33.71 187.95,32.89 188.51,31.96 189.06,34.82 189.62,30.59 190.17,30.75 190.72,27.29 191.28,26.78 191.83,26.14 192.39,25.59 192.94,24.44 193.50,22.95 194.05,19.17 194.60,18.26 195.16,16.65 195.71,15.73 196.27,15.01 196.82,13.73 197.37,13.20 197.93,13.03 198.48,12.56 199.04,12.34 199.59,11.87 200.14,11.45 200.70,11.76 201.25,11.43 201.81,11.20 202.36,12.06 202.91,11.28 203.47,10.15 204.02,9.55 204.58,8.45 205.13,7.96 205.69,8.53 206.24,8.73 206.79,10.29 207.35,8.94 207.90,6.92 208.46,5.45 209.01,8.45 209.56,8.45 210.12,8.45 210.67,9.95 211.23,9.81 211.78,9.81 212.33,9.81 212.89,14.16 213.44,10.25 214.00,10.25 214.55,10.25 215.10,15.05 215.66,15.94 216.21,15.94 216.77,15.94 217.32,15.94 217.87,23.06 218.43,23.06 218.98,18.98 219.54,18.98 220.09,18.98 220.65,18.98 221.20,17.40 221.75,17.40 222.31,17.40 222.86,17.40 223.42,13.68 223.97,13.68 224.52,13.68 225.08,19.16 225.63,19.16 226.19,19.16 226.74,25.95 227.29,18.67 227.85,18.67 228.40,18.67 228.96,25.36 229.51,22.22 230.06,22.22 230.62,22.22 231.17,30.40 231.73,32.96 232.28,32.96 232.83,32.96 233.39,31.93 233.94,31.93 234.50,40.74 235.05,35.46 235.61,35.46 236.16,37.80 236.71,37.80 237.27,37.80 237.82,32.51 238.38,32.51 238.93,32.51 239.48,29.83 240.04,29.83 240.59,29.83 241.15,27.03 241.70,27.03 242.25,23.12 242.81,34.56 243.36,34.56 243.92,34.56 244.47,29.83 245.02,29.83 245.58,41.72 246.13,40.00 246.69,40.00 247.24,40.00 247.80,40.04 248.35,40.04 248.90,43.65 249.46,43.65 250.01,43.65 250.57,48.23 251.12,48.23 251.67,47.03 252.23,48.23 252.78,48.23 253.34,48.23 253.89,49.20 254.44,49.20 255.00,49.99 255.55,49.99 256.11,49.99 256.66,51.72 257.21,51.72 257.77,53.37 258.32,47.57 258.88,47.57 259.43,55.07 259.98,55.07 260.54,55.07 261.09,47.07 261.65,47.07 262.20,56.00 262.76,45.82 263.31,45.82 263.86,45.82 264.42,52.83 264.97,52.83 265.53,52.83 266.08,41.84 266.63,41.84 267.19,41.84 267.74,48.42 268.30,48.42 268.85,40.44 269.40,40.44 269.96,40.44 270.51,40.44 271.07,38.30 271.62,38.30 272.17,40.18 272.73,40.18 273.28,34.64 273.84,34.64 274.39,35.87 274.94,35.87 275.50,35.87 276.05,35.43 276.61,35.43 277.16,35.43 277.72,34.49 278.27,34.49 278.82,34.21 279.38,25.62 279.93,25.62 280.49,23.87 281.04,23.87 281.59,23.87 282.15,20.09 282.70,20.09 283.26,17.41 283.81,17.41 284.36,17.41 284.92,14.66 285.47,14.66 286.03,14.66 286.58,14.17 287.13,14.17 287.69,14.17 288.24,12.73 288.80,12.73 289.35,11.44 289.91,11.44 290.46,11.44 291.01,10.66 291.57,10.66 292.12,10.66 292.68,8.91 293.23,8.91 293.78,7.72 294.34,7.72 294.89,7.72 295.45,10.38 296.00,10.38" />
</svg>