<svg width="300" height="60" xmlns="http://www.w3.org/2000/svg">
  <polyline fill="rgba(255,200,0,0.3)" stroke="#ffbb00" stroke-width="2" points="4.00,52.73 5.25,54.21 6.51,55.27 7.76,53.24 9.01,51.25 10.27,53.10 11.52,53.31 12.77,53.19 14.03,52.03 15.28,51.21 16.53,50.68 17.79,50.14 19.04,47.85 20.29,46.80 21.55,46.06 22.80,44.37 24.05,42.87 25.30,41.13 26.56,41.04 27.81,43.52 29.06,44.59 30.32,44.82 31.57,44.11 32.82,43.55 34.08,43.10 35.33,42.77 36.58,42.51 37.84,42.23 39.09,41.80 40.34,41.47 41.60,40.92 42.85,40.26 44.10,39.02 45.36,36.79 46.61,34.73 47.86,34.02 49.12,33.78 50.37,33.22 51.62,33.13 52.88,33.45 54.13,32.76 55.38,33.65 56.64,32.27 57.89,31.73 59.14,32.10 60.39,32.19 61.65,31.88 62.90,33.10 64.15,32.29 65.41,31.06 66.66,30.02 67.91,28.33 69.17,25.76 70.42,24.45 71.67,25.21 72.93,22.38 74.18,20.83 75.43,19.41 76.69,22.26 77.94,20.96 79.19,17.79 80.45,17.01 81.70,18.51 82.95,19.58 84.21,21.24 85.46,21.23 86.71,22.31 87.97,22.30 89.22,21.77 90.47,20.83 91.73,20.34 92.98,18.05 94.23,16.98 95.48,16.15 96.74,16.83 97.99,17.51 99.24,17.19 100.50,15.09 101.75,53.59 103.00,53.81 104.26,54.01 105.51,52.70 106.76,51.62 108.02,51.18 109.27,53.94 110.52,51.94 111.78,52.07 113.03,51.68 114.28,47.49 115.54,48.31 116.79,46.84 118.04,46.84 119.30,47.85 120.55,44.76 121.80,44.63 123.06,44.60 124.31,44.26 125.56,43.71 126.82,44.60 128.07,43.03 129.32,43.83 130.58,42.48 131.83,43.53 133.08,43.53 134.33,40.76 135.59,39.07 136.84,38.49 138.09,40.38 139.35,40.83 140.60,37.09 141.85,35.55 143.11,37.99 144.36,34.11 145.61,33.68 146.87,32.06 148.12,34.06 149.37,34.67 150.63,33.13 151.88,34.88 153.13,32.09 154.39,31.81 155.64,32.90 156.89,32.05 158.15,31.87 159.40,32.60 160.65,33.83 161.91,31.96 163.16,32.11 164.41,28.95 165.67,25.23 166.92,27.45 168.17,26.95 169.42,23.87 170.68,25.73 171.93,23.24 173.18,20.52 174.44,20.78 175.69,18.14 176.94,16.84 178.20,16.84 179.45,15.74 180.70,19.31 181.96,20.57 183.21,20.57 184.46,21.53 185.72,20.06 186.97,21.69 188.22,18.54 189.48,17.90 190.73,19.89 191.98,17.02 193.24,18.20 194.49,15.35 195.74,17.02 197.00,14.81 198.25,13.99 199.50,50.47 200.76,50.47 202.01,56.00 203.26,56.00 204.52,52.49 205.77,52.49 207.02,52.49 208.27,43.43 209.53,43.98 210.78,43.98 212.03,43.98 213.29,50.76 214.54,50.76 215.79,50.76 217.05,45.26 218.30,45.26 219.55,42.81 220.81,42.81 222.06,42.81 223.31,36.75 224.57,31.61 225.82,31.61 227.07,44.15 228.33,43.39 229.58,43.39 230.83,43.39 232.09,31.13 233.34,28.12 234.59,28.12 235.85,39.49 237.10,30.06 238.35,30.06 239.61,30.06 240.86,37.76 242.11,30.44 243.36,30.44 244.62,30.44 245.87,30.75 247.12,30.75 248.38,30.75 249.63,37.06 250.88,37.06 252.14,32.82 253.39,32.82 254.64,32.82 255.90,34.07 257.15,34.07 258.40,34.07 259.66,32.71 260.91,32.71 262.16,23.96 263.42,23.96 264.67,23.96 265.92,31.61 267.18,23.65 268.43,23.65 269.68,23.65 270.94,14.76 272.19,14.76 273.44,4.87 274.70,4.87 275.95,4.87 277.20,15.47 278.45,15.47 279.71,14.99 280.96,14.99 282.21,14.99 283.47,14.99 284.72,6.77 285.97,6.77 287.23,16.98 288.48,16.98 289.73,4.00 290.99,10.03 292.24,10.03 293.49,10.03 294.75,15.32 296.00,11.75" />
</svg>