<svg width="300" height="60" xmlns="http://www.w3.org/2000/svg">
  <polyline fill="rgba(255,200,0,0.3)" stroke="#ffbb00" stroke-width="2" points="4.00,27.06 4.46,26.79 4.93,26.31 5.39,25.82 5.85,25.00 6.31,24.10 6.78,23.24 7.24,22.28 7.70,21.46 8.16,20.70 8.63,20.00 9.09,19.42 9.55,18.84 10.02,18.27 10.48,17.88 10.94,17.43 11.40,16.85 11.87,16.05 12.33,14.98 12.79,13.67 13.26,12.50 13.72,11.57 14.18,10.94 14.64,10.53 15.11,10.16 15.57,9.80 16.03,9.44 16.49,8.94 16.96,8.02 17.42,7.30 17.88,6.39 18.35,5.50 18.81,4.72 19.27,4.24 19.73,4.09 20.20,4.18 20.66,4.48 21.12,4.99 21.58,5.78 22.05,6.72 22.51,7.58 22.97,8.35 23.44,8.76 23.90,8.76 24.36,8.50 24.82,8.19 25.29,8.04 25.75,8.14 26.21,8.59 26.68,8.99 27.14,9.65 27.60,10.21 28.06,10.95 28.53,11.85 28.99,12.98 29.45,14.17 29.91,14.64 30.38,15.34 30.84,16.06 31.30,17.05 31.77,18.11 32.23,18.73 32.69,19.49 33.15,20.37 33.62,21.29 34.08,22.41 34.54,23.46 35.00,24.73 35.47,25.96 35.93,26.91 36.39,27.77 36.86,28.37 37.32,28.88 37.78,29.30 38.24,29.72 38.71,30.33 39.17,30.94 39.63,31.56 40.10,32.03 40.56,32.28 41.02,32.39 41.48,32.33 41.95,31.99 42.41,31.45 42.87,31.06 43.33,31.11 43.80,31.48 44.26,32.18 44.72,32.98 45.19,33.75 45.65,34.43 46.11,35.19 46.57,36.07 47.04,37.29 47.50,38.50 47.96,39.53 48.42,40.68 48.89,41.60 49.35,42.76 49.81,43.74 50.28,44.60 50.74,45.25 51.20,45.65 51.66,45.97 52.13,46.36 52.59,47.12 53.05,47.97 53.52,48.55 53.98,49.27 54.44,50.02 54.90,50.78 55.37,51.70 55.83,52.21 56.29,52.54 56.75,52.28 57.22,51.65 57.68,50.66 58.14,49.87 58.61,49.38 59.07,49.03 59.53,48.52 59.99,47.62 60.46,46.49 60.92,45.46 61.38,44.50 61.84,43.48 62.31,42.56 62.77,41.66 63.23,40.88 63.70,40.08 64.16,39.13 64.62,37.98 65.08,36.82 65.55,35.76 66.01,34.99 66.47,34.44 66.94,34.07 67.40,33.86 67.86,33.70 68.32,33.56 68.79,33.22 69.25,32.80 69.71,32.21 70.17,31.71 70.64,31.31 71.10,31.03 71.56,30.89 72.03,30.99 72.49,31.24 72.95,31.51 73.41,31.72 73.88,31.55 74.34,30.81 74.80,29.77 75.26,29.03 75.73,28.75 76.19,28.70 76.65,28.82 77.12,27.01 77.58,26.73 78.04,26.28 78.50,25.84 78.97,24.90 79.43,24.08 79.89,23.03 80.35,22.07 80.82,21.47 81.28,20.71 81.74,20.19 82.21,19.40 82.67,18.86 83.13,18.35 83.59,17.83 84.06,17.40 84.52,16.74 84.98,16.10 85.45,15.18 85.91,13.82 86.37,12.50 86.83,11.53 87.30,11.06 87.76,10.52 88.22,10.15 88.68,9.86 89.15,9.60 89.61,8.72 90.07,7.93 90.54,7.11 91.00,6.45 91.46,5.34 91.92,4.65 92.39,4.30 92.85,4.15 93.31,4.19 93.77,4.58 94.24,5.08 94.70,5.90 95.16,6.71 95.63,7.86 96.09,8.42 96.55,8.93 97.01,8.87 97.48,8.44 97.94,8.28 98.40,8.04 98.87,8.19 99.33,8.39 99.79,9.05 100.25,9.48 100.72,10.14 101.18,11.00 101.64,11.98 102.10,12.97 102.57,13.89 103.03,14.57 103.49,15.51 103.96,16.17 104.42,16.95 104.88,18.30 105.34,18.78 105.81,19.50 106.27,20.26 106.73,21.17 107.19,22.28 107.66,23.37 108.12,24.72 108.58,25.92 109.05,26.96 109.51,27.78 109.97,28.31 110.43,28.88 110.90,29.15 111.36,29.79 111.82,30.32 112.29,30.94 112.75,31.52 113.21,32.16 113.67,32.40 114.14,32.58 114.60,32.42 115.06,32.09 115.52,31.68 115.99,31.19 116.45,31.11 116.91,31.59 117.38,32.17 117.84,32.88 118.30,33.85 118.76,34.50 119.23,35.31 119.69,36.00 120.15,37.20 120.61,38.23 121.08,39.77 121.54,40.36 122.00,41.66 122.47,42.96 122.93,43.83 123.39,44.77 123.85,45.42 124.32,45.79 124.78,46.08 125.24,46.37 125.71,47.49 126.17,48.15 126.63,48.62 127.09,48.97 127.56,49.84 128.02,50.45 128.48,52.58 128.94,52.66 129.41,52.85 129.87,52.33 130.33,51.85 130.80,50.80 131.26,49.98 131.72,49.38 132.18,49.23 132.65,49.03 133.11,48.10 133.57,46.59 134.03,45.60 134.50,44.73 134.96,43.59 135.42,42.68 135.89,41.70 136.35,40.97 136.81,40.07 137.27,39.41 137.74,38.13 138.20,36.87 138.66,35.65 139.13,34.87 139.59,34.50 140.05,34.14 140.51,33.85 140.98,33.75 141.44,33.74 141.90,33.41 142.36,32.91 142.83,32.34 143.29,31.86 143.75,31.44 144.22,30.97 144.68,30.49 145.14,30.02 145.60,30.70 146.07,31.65 146.53,31.84 146.99,31.55 147.45,31.00 147.92,29.86 148.38,29.07 148.84,28.80 149.31,28.78 149.77,28.91 150.23,26.99 150.69,27.09 151.16,26.63 151.62,25.54 152.08,25.23 152.55,24.28 153.01,23.13 153.47,22.12 153.93,21.18 154.40,20.39 154.86,20.56 155.32,19.71 155.78,18.95 156.25,18.10 156.71,17.90 157.17,17.46 157.64,16.80 158.10,17.05 158.56,15.11 159.02,14.60 159.49,13.19 159.95,11.92 160.41,11.13 160.87,10.84 161.34,10.31 161.80,10.00 162.26,9.52 162.73,8.56 163.19,8.56 163.65,7.24 164.11,6.66 164.58,5.96 165.04,5.19 165.50,4.52 165.97,4.00 166.43,4.74 166.89,4.41 167.35,5.44 167.82,5.44 168.28,6.99 168.74,7.24 169.20,9.26 169.67,8.73 170.13,8.85 170.59,9.49 171.06,8.05 171.52,8.44 171.98,7.96 172.44,9.06 172.91,9.76 173.37,10.07 173.83,11.82 174.29,11.85 174.76,13.81 175.22,14.57 175.68,16.76 176.15,15.16 176.61,16.42 177.07,17.70 177.53,17.21 178.00,18.53 178.46,18.55 178.92,19.63 179.39,20.64 179.85,20.80 180.31,21.71 180.77,22.93 181.24,23.94 181.70,25.40 182.16,26.43 182.62,28.72 183.09,28.35 183.55,28.70 184.01,29.03 184.48,30.47 184.94,30.63 185.40,31.35 185.86,31.80 186.33,33.14 186.79,33.04 187.25,32.88 187.71,32.63 188.18,32.74 188.64,31.94 189.10,31.52 189.57,31.11 190.03,31.73 190.49,32.41 190.95,33.01 191.42,33.79 191.88,35.78 192.34,35.92 192.81,36.38 193.27,37.49 193.73,37.51 194.19,39.80 194.66,39.80 195.12,39.26 195.58,41.49 196.04,42.63 196.51,44.61 196.97,44.38 197.43,45.10 197.90,45.69 198.36,44.51 198.82,46.38 199.28,48.30 199.75,46.41 200.21,46.03 200.67,49.56 201.13,47.93 201.60,51.34 202.06,52.39 202.52,52.68 202.99,53.26 203.45,53.26 203.91,50.93 204.37,50.60 204.84,50.22 205.30,49.67 205.76,52.10 206.23,49.25 206.69,47.04 207.15,47.82 207.61,45.86 208.08,43.76 208.54,43.86 209.00,41.49 209.46,41.49 209.93,40.99 210.39,39.86 210.85,38.66 211.32,37.05 211.78,35.49 212.24,34.47 212.70,34.74 213.17,34.27 213.63,33.65 214.09,34.12 214.55,34.72 215.02,33.33 215.48,33.31 215.94,33.27 216.41,31.58 216.87,31.75 217.33,30.47 217.79,30.98 218.26,30.42 218.72,30.94 219.18,32.03 219.65,32.03 220.11,32.75 220.57,31.35 221.03,29.85 221.50,28.98 221.96,28.92 222.42,28.80 222.88,28.63 223.35,27.70 223.81,27.70 224.27,27.70 224.74,27.59 225.20,27.59 225.66,25.02 226.12,25.02 226.59,24.36 227.05,21.53 227.51,21.53 227.97,21.53 228.44,21.53 228.90,19.12 229.36,19.12 229.83,19.12 230.29,17.90 230.75,17.90 231.21,17.90 231.68,19.14 232.14,19.14 232.60,13.65 233.06,13.65 233.53,13.65 233.99,11.57 234.45,11.57 234.92,11.57 235.38,11.26 235.84,9.80 236.30,9.80 236.77,9.80 237.23,9.80 237.69,8.70 238.16,8.70 238.62,8.70 239.08,7.16 239.54,7.16 240.01,7.16 240.47,5.89 240.93,5.89 241.39,12.22 241.86,12.22 242.32,11.91 242.78,11.91 243.25,11.91 243.71,17.81 244.17,8.86 244.63,8.86 245.10,11.95 245.56,11.95 246.02,11.95 246.48,14.31 246.95,14.31 247.41,14.31 247.87,21.40 248.34,21.40 248.80,21.40 249.26,18.39 249.72,18.39 250.19,18.39 250.65,22.06 251.11,22.06 251.58,22.06 252.04,25.18 252.50,25.18 252.96,20.93 253.43,24.02 253.89,24.02 254.35,24.02 254.81,27.32 255.28,27.32 255.74,30.81 256.20,29.10 256.67,29.10 257.13,30.62 257.59,33.93 258.05,33.93 258.52,35.58 258.98,35.58 259.44,34.88 259.90,34.88 260.37,34.88 260.83,32.73 261.29,32.73 261.76,32.73 262.22,32.38 262.68,32.38 263.14,33.70 263.61,33.70 264.07,33.70 264.53,33.70 265.00,39.46 265.46,39.46 265.92,40.28 266.38,39.44 266.85,39.44 267.31,39.44 267.77,39.44 268.23,41.79 268.70,41.79 269.16,41.79 269.62,44.39 270.09,44.39 270.55,44.39 271.01,44.39 271.47,40.88 271.94,46.58 272.40,46.58 272.86,44.72 273.32,44.72 273.79,50.62 274.25,50.62 274.71,48.57 275.18,48.57 275.64,52.76 276.10,55.28 276.56,55.28 277.03,55.28 277.49,56.00 277.95,56.00 278.42,56.00 278.88,51.36 279.34,51.36 279.80,51.36 280.27,45.85 280.73,45.85 281.19,45.54 281.65,45.54 282.12,45.54 282.58,45.54 283.04,44.10 283.51,39.60 283.97,39.60 284.43,39.60 284.89,35.17 285.36,35.17 285.82,36.33 286.28,36.33 286.74,33.61 287.21,35.01 287.67,35.01 288.13,35.01 288.60,35.69 289.06,35.69 289.52,35.69 289.98,37.71 290.45,31.20 290.91,31.20 291.37,33.71 291.84,33.71 292.30,31.94 292.76,31.94 293.22,33.44 293.69,33.44 294.15,29.88 294.61,29.88 295.07,30.60 295.54,30.60 296.00,30.60" />
</svg>