<svg width="300" height="60" xmlns="http://www.w3.org/2000/svg">
  <polyline fill="rgba(255,200,0,0.3)" stroke="#ffbb00" stroke-width="2" points="4.00,8.72 4.89,8.71 5.79,8.37 6.68,7.32 7.57,6.50 8.46,5.93 9.36,6.51 10.25,7.22 11.14,7.61 12.04,7.70 12.93,7.73 13.82,8.08 14.72,9.03 15.61,10.94 16.50,10.09 17.39,9.82 18.29,10.10 19.18,10.90 20.07,11.72 20.97,12.48 21.86,13.17 22.75,13.09 23.65,12.43 24.54,12.72 25.43,14.21 26.32,14.78 27.22,14.98 28.11,14.65 29.00,15.12 29.90,15.32 30.79,14.38 31.68,14.20 32.57,13.53 33.47,13.93 34.36,13.72 35.25,12.75 36.15,11.50 37.04,10.23 37.93,9.15 38.83,8.24 39.72,7.72 40.61,7.16 41.50,8.89 42.40,9.98 43.29,10.11 44.18,10.45 45.08,11.01 45.97,11.87 46.86,12.93 47.76,14.11 48.65,16.20 49.54,18.96 50.43,19.67 51.33,19.72 52.22,20.02 53.11,21.08 54.01,21.89 54.90,21.87 55.79,22.18 56.69,22.80 57.58,21.53 58.47,21.42 59.36,21.69 60.26,21.62 61.15,21.47 62.04,21.21 62.94,22.36 63.83,23.53 64.72,24.26 65.61,25.50 66.51,26.29 67.40,26.97 68.29,27.58 69.19,28.33 70.08,29.49 70.97,30.32 71.87,31.40 72.76,32.69 73.65,33.92 74.54,35.31 75.44,36.55 76.33,37.73 77.22,38.71 78.12,39.77 79.01,40.37 79.90,41.00 80.80,41.35 81.69,41.79 82.58,42.23 83.47,43.02 84.37,43.68 85.26,43.48 86.15,43.24 87.05,43.07 87.94,42.97 88.83,42.93 89.72,43.16 90.62,43.26 91.51,43.88 92.40,44.61 93.30,45.35 94.19,46.33 95.08,47.78 95.98,49.38 96.87,50.98 97.76,52.72 98.65,54.39 99.55,55.57 100.44,56.00 101.33,55.66 102.23,8.73 103.12,7.91 104.01,7.91 104.91,6.74 105.80,7.01 106.69,6.76 107.58,6.68 108.48,8.85 109.37,6.49 110.26,6.57 111.16,7.44 112.05,8.16 112.94,12.05 113.83,11.07 114.73,10.15 115.62,10.75 116.51,11.51 117.41,12.87 118.30,13.83 119.19,11.91 120.09,11.47 120.98,13.84 121.87,13.15 122.76,14.21 123.66,15.76 124.55,13.30 125.44,14.56 126.34,15.32 127.23,14.47 128.12,14.49 129.02,13.55 129.91,12.98 130.80,13.16 131.69,13.02 132.59,13.13 133.48,11.22 134.37,9.71 135.27,8.44 136.16,7.26 137.05,8.52 137.94,7.56 138.84,10.09 139.73,9.94 140.62,11.84 141.52,9.85 142.41,11.24 143.30,12.75 144.20,12.83 145.09,15.13 145.98,16.94 146.87,17.79 147.77,19.69 148.66,18.16 149.55,19.95 150.45,21.03 151.34,21.97 152.23,21.87 153.13,21.87 154.02,22.66 154.91,21.07 155.80,22.28 156.70,22.09 157.59,21.97 158.48,21.70 159.38,21.48 160.27,21.71 161.16,23.15 162.06,24.32 162.95,25.74 163.84,26.82 164.73,26.82 165.63,27.50 166.52,28.47 167.41,29.82 168.31,29.82 169.20,31.32 170.09,32.96 170.98,34.74 171.88,34.74 172.77,36.40 173.66,37.96 174.56,38.65 175.45,39.89 176.34,40.42 177.24,41.03 178.13,41.40 179.02,41.94 179.91,42.05 180.81,43.30 181.70,43.24 182.59,43.87 183.49,43.39 184.38,43.04 185.27,43.44 186.17,42.92 187.06,43.15 187.95,43.43 188.84,43.83 189.74,44.54 190.63,45.20 191.52,46.11 192.42,48.63 193.31,49.97 194.20,50.97 195.09,52.41 195.99,53.40 196.88,55.51 197.77,55.61 198.67,55.24 199.56,7.83 200.45,6.74 201.35,6.74 202.24,6.74 203.13,6.74 204.02,4.55 204.92,4.55 205.81,12.06 206.70,4.00 207.60,4.00 208.49,5.22 209.38,5.22 210.28,14.04 211.17,13.24 212.06,13.24 212.95,14.87 213.85,14.87 214.74,14.87 215.63,18.80 216.53,7.55 217.42,6.38 218.31,13.14 219.20,13.14 220.10,13.14 220.99,19.33 221.88,12.06 222.78,12.06 223.67,12.06 224.56,15.77 225.46,15.77 226.35,12.98 227.24,12.98 228.13,12.98 229.03,13.13 229.92,13.13 230.81,13.13 231.71,7.57 232.60,7.57 233.49,7.57 234.39,10.09 235.28,10.09 236.17,10.09 237.06,10.09 237.96,16.21 238.85,7.20 239.74,7.20 240.64,12.83 241.53,12.83 242.42,12.83 243.31,17.78 244.21,17.78 245.10,17.78 245.99,14.39 246.89,21.03 247.78,21.03 248.67,21.03 249.57,22.66 250.46,22.66 251.35,22.66 252.24,22.66 253.14,20.07 254.03,20.07 254.92,20.03 255.82,20.03 256.71,20.03 257.60,20.73 258.50,24.31 259.39,24.31 260.28,24.31 261.17,27.50 262.07,27.50 262.96,27.50 263.85,27.50 264.75,31.33 265.64,31.33 266.53,31.33 267.43,31.33 268.32,36.40 269.21,36.40 270.10,36.40 271.00,36.40 271.89,38.58 272.78,40.37 273.68,40.37 274.57,41.41 275.46,41.41 276.35,41.41 277.25,42.25 278.14,45.42 279.03,45.42 279.93,43.38 280.82,43.38 281.71,43.38 282.61,42.67 283.50,42.67 284.39,43.73 285.28,43.73 286.18,43.45 287.07,45.07 287.96,45.07 288.86,45.07 289.75,48.38 290.64,48.38 291.54,52.40 292.43,52.40 293.32,52.40 294.21,55.52 295.11,55.52 296.00,54.71" />
</svg>