<svg width="300" height="60" xmlns="http://www.w3.org/2000/svg">
  <polyline fill="rgba(255,200,0,0.3)" stroke="#ffbb00" stroke-width="2" points="4.00,4.09 5.13,5.86 6.25,6.99 7.38,7.71 8.51,9.27 9.64,10.90 10.76,11.68 11.89,12.83 13.02,13.95 14.15,15.62 15.27,16.97 16.40,18.85 17.53,19.53 18.66,20.41 19.78,22.01 20.91,23.03 22.04,23.65 23.17,23.94 24.29,24.32 25.42,24.56 26.55,25.05 27.68,25.52 28.80,26.82 29.93,27.54 31.06,28.93 32.19,30.48 33.31,31.51 34.44,31.82 35.57,32.64 36.69,33.79 37.82,34.52 38.95,34.83 40.08,34.90 41.20,34.39 42.33,33.83 43.46,33.67 44.59,33.29 45.71,33.57 46.84,34.02 47.97,34.73 49.10,35.22 50.22,35.76 51.35,36.54 52.48,36.40 53.61,36.64 54.73,37.50 55.86,38.83 56.99,39.87 58.12,40.33 59.24,40.62 60.37,41.40 61.50,41.30 62.63,41.94 63.75,42.85 64.88,44.39 66.01,45.40 67.14,46.69 68.26,48.14 69.39,49.26 70.52,50.68 71.64,51.58 72.77,52.03 73.90,52.77 75.03,53.85 76.15,54.15 77.28,4.00 78.41,5.54 79.54,7.00 80.66,8.04 81.79,9.18 82.92,10.93 84.05,11.82 85.17,13.46 86.30,14.63 87.43,15.26 88.56,16.95 89.68,18.77 90.81,19.83 91.94,20.64 93.07,22.11 94.19,22.81 95.32,22.71 96.45,22.57 97.58,23.15 98.70,23.93 99.83,24.61 100.96,25.57 102.08,26.65 103.21,27.72 104.34,29.52 105.47,30.17 106.59,31.26 107.72,31.49 108.85,32.69 109.98,33.60 111.10,34.28 112.23,34.80 113.36,34.87 114.49,34.72 115.61,34.33 116.74,33.75 117.87,33.25 119.00,33.95 120.12,34.35 121.25,34.56 122.38,35.16 123.51,35.91 124.63,36.20 125.76,35.81 126.89,36.71 128.02,37.41 129.14,38.04 130.27,39.63 131.40,40.57 132.53,40.71 133.65,41.29 134.78,41.31 135.91,41.86 137.03,42.62 138.16,44.34 139.29,45.51 140.42,46.47 141.54,48.61 142.67,49.37 143.80,50.86 144.93,51.49 146.05,51.77 147.18,52.92 148.31,53.86 149.44,54.20 150.56,4.01 151.69,5.42 152.82,6.80 153.95,7.84 155.07,7.84 156.20,9.28 157.33,10.79 158.46,12.17 159.58,13.76 160.71,15.14 161.84,16.89 162.97,18.54 164.09,20.10 165.22,19.79 166.35,21.40 167.47,23.28 168.60,21.90 169.73,24.49 170.86,24.02 171.98,25.84 173.11,24.19 174.24,25.13 175.37,26.66 176.49,26.12 177.62,28.41 178.75,29.92 179.88,31.33 181.00,32.58 182.13,32.06 183.26,32.92 184.39,34.17 185.51,35.11 186.64,35.27 187.77,34.82 188.90,35.14 190.02,32.92 191.15,33.03 192.28,33.78 193.41,35.24 194.53,33.17 195.66,34.27 196.79,35.99 197.92,35.28 199.04,35.28 200.17,37.73 201.30,38.72 202.42,37.79 203.55,39.72 204.68,40.98 205.81,40.50 206.93,40.35 208.06,40.32 209.19,40.32 210.32,41.10 211.44,42.30 212.57,46.66 213.70,47.73 214.83,47.29 215.95,48.70 217.08,51.83 218.21,51.26 219.34,53.76 220.46,54.05 221.59,54.12 222.72,54.07 223.85,4.77 224.97,4.77 226.10,7.30 227.23,7.30 228.36,7.30 229.48,13.46 230.61,11.55 231.74,11.55 232.86,11.55 233.99,12.38 235.12,12.38 236.25,12.38 237.37,18.09 238.50,18.09 239.63,18.09 240.76,23.05 241.88,23.05 243.01,29.02 244.14,29.02 245.27,29.02 246.39,27.32 247.52,27.32 248.65,27.32 249.78,29.67 250.90,29.67 252.03,31.75 253.16,31.75 254.29,38.35 255.41,38.35 256.54,36.60 257.67,36.60 258.80,36.60 259.92,37.49 261.05,37.49 262.18,37.49 263.31,35.98 264.43,35.98 265.56,35.98 266.69,32.98 267.81,32.98 268.94,32.98 270.07,38.14 271.20,38.14 272.32,38.14 273.45,38.14 274.58,39.60 275.71,39.60 276.83,50.00 277.96,44.55 279.09,44.55 280.22,44.55 281.34,41.27 282.47,41.27 283.60,41.27 284.73,41.27 285.85,42.47 286.98,50.44 288.11,50.44 289.24,50.37 290.36,50.37 291.49,50.37 292.62,50.37 293.75,56.00 294.87,56.00 296.00,56.00" />
</svg>