<svg width="300" height="60" xmlns="http://www.w3.org/2000/svg">
  <polyline fill="rgba(255,200,0,0.3)" stroke="#ffbb00" stroke-width="2" points="4.00,48.93 4.27,48.69 4.53,48.89 4.80,49.07 5.07,49.55 5.33,49.18 5.60,48.57 5.87,48.32 6.13,47.67 6.40,46.53 6.67,45.53 6.93,44.76 7.20,43.95 7.47,43.43 7.73,42.99 8.00,42.70 8.27,43.72 8.53,43.62 8.80,43.05 9.07,42.35 9.33,41.90 9.60,42.11 9.87,42.59 10.13,43.14 10.40,43.32 10.67,43.54 10.93,43.54 11.20,43.35 11.47,43.38 11.73,43.02 12.00,42.46 12.27,42.18 12.53,42.25 12.80,43.05 13.07,42.71 13.33,42.37 13.60,42.08 13.87,41.81 14.13,41.31 14.40,40.13 14.67,39.22 14.93,38.63 15.20,38.18 15.47,38.14 15.73,37.74 16.00,37.37 16.27,36.70 16.53,35.08 16.80,33.59 17.07,33.22 17.33,33.27 17.60,33.40 17.87,33.38 18.13,32.58 18.40,31.69 18.67,31.56 18.93,31.96 19.20,32.41 19.47,32.09 19.73,30.85 20.00,29.83 20.27,28.81 20.53,28.05 20.80,27.97 21.07,27.79 21.33,27.44 21.60,26.86 21.87,26.26 22.13,25.72 22.40,26.04 22.67,27.60 22.93,27.68 23.20,27.38 23.47,27.02 23.73,26.20 24.00,26.25 24.27,26.51 24.53,26.87 24.80,27.17 25.07,27.48 25.33,27.65 25.60,27.76 25.87,27.78 26.13,28.12 26.40,27.52 26.67,25.96 26.93,24.30 27.20,23.71 27.47,23.14 27.73,22.16 28.00,21.21 28.27,20.41 28.53,19.56 28.80,17.93 29.07,16.89 29.33,15.94 29.60,14.77 29.87,14.03 30.13,13.71 30.40,13.67 30.67,13.48 30.93,13.17 31.20,13.04 31.47,13.13 31.73,13.33 32.00,12.53 32.27,11.10 32.53,9.99 32.80,8.80 33.07,8.47 33.33,8.30 33.60,8.39 33.87,9.10 34.13,9.97 34.40,10.24 34.67,8.54 34.93,7.19 35.20,6.35 35.47,5.69 35.73,5.19 36.00,4.45 36.27,4.08 36.53,4.12 36.80,4.27 37.07,4.28 37.33,4.32 37.60,4.39 37.87,4.63 38.13,4.80 38.40,5.06 38.67,5.34 38.93,5.91 39.20,6.34 39.47,6.60 39.73,6.60 40.00,6.86 40.27,7.10 40.53,7.26 40.80,7.62 41.07,7.00 41.33,6.71 41.60,6.93 41.87,7.32 42.13,7.77 42.40,8.11 42.67,8.55 42.93,8.84 43.20,9.19 43.47,9.65 43.73,10.27 44.00,10.98 44.27,12.03 44.53,12.71 44.80,13.73 45.07,14.76 45.33,15.17 45.60,15.56 45.87,15.77 46.13,15.87 46.40,16.87 46.67,18.01 46.93,17.89 47.20,16.85 47.47,16.17 47.73,16.11 48.00,16.21 48.27,16.55 48.53,16.78 48.80,16.97 49.07,17.22 49.33,17.47 49.60,17.73 49.87,18.02 50.13,18.28 50.40,18.58 50.67,19.01 50.93,19.24 51.20,19.52 51.47,19.53 51.73,19.73 52.00,19.76 52.27,19.69 52.53,19.36 52.80,19.01 53.07,18.66 53.33,18.58 53.60,18.70 53.87,19.09 54.13,19.86 54.40,20.89 54.67,22.11 54.93,23.31 55.20,24.59 55.47,25.10 55.73,25.40 56.00,25.61 56.27,25.83 56.53,25.91 56.80,25.93 57.07,26.05 57.33,26.38 57.60,26.74 57.87,26.52 58.13,26.29 58.40,26.23 58.67,26.34 58.93,26.46 59.20,26.64 59.47,26.87 59.73,27.08 60.00,27.29 60.27,27.58 60.53,27.93 60.80,28.34 61.07,28.80 61.33,29.27 61.60,29.80 61.87,30.49 62.13,31.09 62.40,31.82 62.67,32.53 62.93,33.19 63.20,33.64 63.47,34.30 63.73,34.68 64.00,35.03 64.27,35.37 64.53,35.97 64.80,36.43 65.07,37.12 65.33,38.53 65.60,39.56 65.87,39.97 66.13,40.00 66.40,39.37 66.67,38.85 66.93,38.90 67.20,38.99 67.47,39.41 67.73,39.53 68.00,39.97 68.27,40.42 68.53,40.56 68.80,40.79 69.07,41.04 69.33,41.54 69.60,42.14 69.87,42.83 70.13,43.64 70.40,44.19 70.67,44.64 70.93,45.30 71.20,46.21 71.47,47.60 71.73,48.89 72.00,48.69 72.27,47.47 72.53,46.27 72.80,46.33 73.07,47.07 73.33,48.10 73.60,49.30 73.87,50.70 74.13,51.69 74.40,52.47 74.67,53.55 74.93,54.48 75.20,55.01 75.47,55.34 75.73,55.78 76.00,56.00 76.27,55.30 76.53,55.24 76.80,54.97 77.07,48.94 77.33,48.68 77.60,48.85 77.87,49.09 78.13,49.41 78.40,49.13 78.67,48.45 78.93,48.63 79.20,47.43 79.47,46.60 79.73,45.23 80.00,44.76 80.27,43.92 80.53,43.43 80.80,42.89 81.07,42.66 81.33,43.69 81.60,43.73 81.87,43.30 82.13,42.10 82.40,41.63 82.67,41.97 82.93,42.43 83.20,43.08 83.47,43.41 83.73,43.67 84.00,43.71 84.27,43.53 84.53,43.87 84.80,43.03 85.07,42.37 85.33,41.97 85.60,42.15 85.87,42.75 86.13,42.47 86.40,41.95 86.67,42.00 86.93,41.65 87.20,41.23 87.47,40.17 87.73,39.33 88.00,38.70 88.27,38.53 88.53,38.11 88.80,37.82 89.07,37.41 89.33,36.18 89.60,35.32 89.87,33.08 90.13,32.95 90.40,33.24 90.67,33.17 90.93,32.95 91.20,32.20 91.47,31.57 91.73,31.59 92.00,31.65 92.27,32.01 92.53,32.05 92.80,31.45 93.07,29.57 93.33,28.75 93.60,27.90 93.87,28.02 94.13,27.46 94.40,27.03 94.67,26.60 94.93,26.25 95.20,25.63 95.47,26.14 95.73,27.32 96.00,27.58 96.27,27.31 96.53,27.05 96.80,26.27 97.07,26.11 97.33,26.46 97.60,27.05 97.87,26.80 98.13,27.41 98.40,27.76 98.67,27.83 98.93,27.68 99.20,28.17 99.47,27.32 99.73,25.86 100.00,24.38 100.27,23.55 100.53,23.05 100.80,21.95 101.07,20.85 101.33,20.29 101.60,19.30 101.87,17.80 102.13,16.65 102.40,15.74 102.67,14.74 102.93,13.96 103.20,13.61 103.47,13.69 103.73,13.16 104.00,13.16 104.27,12.92 104.53,13.11 104.80,13.10 105.07,12.48 105.33,10.80 105.60,10.00 105.87,8.71 106.13,8.24 106.40,8.32 106.67,8.44 106.93,8.51 107.20,10.10 107.47,10.31 107.73,8.74 108.00,7.38 108.27,6.38 108.53,5.80 108.80,4.92 109.07,4.23 109.33,4.04 109.60,4.00 109.87,4.23 110.13,4.30 110.40,4.28 110.67,4.29 110.93,4.58 111.20,4.77 111.47,4.87 111.73,5.36 112.00,6.01 112.27,6.27 112.53,6.45 112.80,6.81 113.07,6.90 113.33,7.14 113.60,7.23 113.87,7.66 114.13,6.96 114.40,6.72 114.67,6.97 114.93,7.20 115.20,7.66 115.47,8.15 115.73,8.43 116.00,8.75 116.27,9.17 116.53,9.61 116.80,10.28 117.07,10.93 117.33,12.17 117.60,12.44 117.87,13.41 118.13,14.53 118.40,15.37 118.67,15.40 118.93,15.88 119.20,15.88 119.47,17.02 119.73,17.85 120.00,17.50 120.27,16.99 120.53,16.24 120.80,16.15 121.07,16.23 121.33,16.39 121.60,16.81 121.87,16.85 122.13,17.26 122.40,17.41 122.67,17.62 122.93,18.02 123.20,18.27 123.47,18.47 123.73,19.12 124.00,19.15 124.27,19.37 124.53,19.39 124.80,19.79 125.07,19.73 125.33,19.55 125.60,19.34 125.87,19.13 126.13,18.64 126.40,18.52 126.67,18.65 126.93,19.00 127.20,19.85 127.47,20.86 127.73,22.05 128.00,23.26 128.27,24.56 128.53,25.20 128.80,25.21 129.07,25.64 129.33,25.80 129.60,25.96 129.87,25.89 130.13,25.85 130.40,26.44 130.67,26.58 130.93,26.38 131.20,26.29 131.47,26.15 131.73,26.31 132.00,26.45 132.27,26.59 132.53,26.86 132.80,27.02 133.07,27.21 133.33,27.53 133.60,27.91 133.87,28.33 134.13,28.67 134.40,29.25 134.67,29.68 134.93,30.35 135.20,30.92 135.47,31.88 135.73,32.32 136.00,33.06 136.27,33.56 136.53,34.25 136.80,34.46 137.07,34.91 137.33,35.40 137.60,35.68 137.87,36.41 138.13,37.07 138.40,38.07 138.67,39.28 138.93,39.51 139.20,39.62 139.47,39.38 139.73,38.88 140.00,38.77 140.27,38.85 140.53,39.29 140.80,39.51 141.07,39.84 141.33,40.46 141.60,40.44 141.87,40.74 142.13,41.04 142.40,41.40 142.67,42.04 142.93,42.80 143.20,43.57 143.47,44.09 143.73,44.63 144.00,45.03 144.27,46.23 144.53,47.54 144.80,48.75 145.07,48.57 145.33,47.42 145.60,45.99 145.87,46.25 146.13,46.71 146.40,47.97 146.67,49.06 146.93,50.34 147.20,51.60 147.47,52.48 147.73,53.56 148.00,54.28 148.27,54.91 148.53,55.22 148.80,55.64 149.07,55.79 149.33,55.25 149.60,55.10 149.87,54.89 150.13,48.55 150.40,48.73 150.67,48.81 150.93,48.96 151.20,48.85 151.47,48.46 151.73,48.16 152.00,47.97 152.27,47.54 152.53,47.04 152.80,45.50 153.07,43.86 153.33,43.59 153.60,43.48 153.87,42.55 154.13,43.15 154.40,43.78 154.67,43.58 154.93,43.08 155.20,42.58 155.47,42.22 155.73,42.67 156.00,43.23 156.27,43.68 156.53,43.97 156.80,44.07 157.07,44.06 157.33,43.84 157.60,43.64 157.87,43.17 158.13,42.66 158.40,42.06 158.67,42.56 158.93,42.06 159.20,42.14 159.47,42.00 159.73,41.66 160.00,41.54 160.27,41.54 160.53,41.06 160.80,39.99 161.07,38.94 161.33,39.47 161.60,38.55 161.87,37.65 162.13,38.20 162.40,36.98 162.67,34.82 162.93,33.14 163.20,33.90 163.47,33.63 163.73,33.48 164.00,33.12 164.27,32.37 164.53,31.87 164.80,32.16 165.07,32.16 165.33,31.68 165.60,31.99 165.87,31.13 166.13,30.18 166.40,28.72 166.67,28.80 166.93,27.69 167.20,27.94 167.47,27.03 167.73,26.81 168.00,25.80 168.27,25.70 168.53,25.73 168.80,26.91 169.07,28.19 169.33,27.17 169.60,26.82 169.87,26.31 170.13,26.64 170.40,26.28 170.67,27.23 170.93,25.95 171.20,26.93 171.47,27.77 171.73,27.17 172.00,27.52 172.27,27.52 172.53,27.40 172.80,25.99 173.07,25.45 173.33,23.86 173.60,23.86 173.87,22.24 174.13,21.87 174.40,20.44 174.67,19.15 174.93,18.41 175.20,17.40 175.47,16.01 175.73,14.72 176.00,14.45 176.27,13.63 176.53,13.95 176.80,13.19 177.07,13.46 177.33,12.76 177.60,13.35 177.87,12.72 178.13,12.87 178.40,10.82 178.67,10.30 178.93,8.85 179.20,9.09 179.47,9.07 179.73,7.82 180.00,8.20 180.27,10.30 180.53,10.55 180.80,8.24 181.07,8.52 181.33,6.80 181.60,5.51 181.87,5.99 182.13,4.74 182.40,4.17 182.67,4.15 182.93,4.47 183.20,4.28 183.47,4.07 183.73,4.02 184.00,4.73 184.27,4.88 184.53,5.21 184.80,5.42 185.07,5.77 185.33,6.00 185.60,6.14 185.87,7.34 186.13,7.31 186.40,7.10 186.67,6.80 186.93,7.85 187.20,7.08 187.47,7.12 187.73,6.63 188.00,7.36 188.27,7.73 188.53,8.27 188.80,8.62 189.07,9.00 189.33,9.40 189.60,9.84 189.87,10.55 190.13,11.32 190.40,12.16 190.67,12.16 190.93,12.97 191.20,13.95 191.47,14.90 191.73,15.52 192.00,16.04 192.27,15.11 192.53,15.95 192.80,17.13 193.07,17.98 193.33,17.50 193.60,15.93 193.87,16.11 194.13,16.47 194.40,16.23 194.67,16.61 194.93,16.95 195.20,17.34 195.47,17.74 195.73,17.64 196.00,18.02 196.27,18.42 196.53,18.91 196.80,19.57 197.07,18.78 197.33,19.14 197.60,19.54 197.87,19.93 198.13,19.28 198.40,19.45 198.67,19.41 198.93,19.13 199.20,18.79 199.47,18.65 199.73,18.83 200.00,19.13 200.27,19.88 200.53,20.93 200.80,22.13 201.07,23.37 201.33,24.30 201.60,24.47 201.87,25.47 202.13,25.05 202.40,26.35 202.67,25.74 202.93,26.36 203.20,26.18 203.47,26.28 203.73,26.45 204.00,26.34 204.27,26.20 204.53,26.28 204.80,26.36 205.07,26.49 205.33,26.69 205.60,26.89 205.87,27.07 206.13,27.38 206.40,27.60 206.67,27.84 206.93,28.58 207.20,28.94 207.47,29.33 207.73,29.33 208.00,30.37 208.27,30.78 208.53,32.03 208.80,32.25 209.07,33.36 209.33,33.31 209.60,34.18 209.87,34.18 210.13,34.96 210.40,35.75 210.67,35.68 210.93,36.61 211.20,36.69 211.47,38.00 211.73,39.29 212.00,39.00 212.27,39.79 212.53,40.08 212.80,38.72 213.07,38.87 213.33,39.29 213.60,39.49 213.87,39.75 214.13,40.04 214.40,40.35 214.67,40.57 214.93,41.00 215.20,41.25 215.47,41.62 215.73,42.08 216.00,42.98 216.27,43.51 216.53,44.07 216.80,44.81 217.07,44.81 217.33,45.83 217.60,47.56 217.87,48.80 218.13,48.18 218.40,47.75 218.67,45.65 218.93,45.81 219.20,46.60 219.47,47.77 219.73,48.92 220.00,50.04 220.27,51.11 220.53,51.98 220.80,53.71 221.07,54.19 221.33,54.51 221.60,55.43 221.87,55.75 222.13,55.75 222.40,55.36 222.67,55.32 222.93,54.64 223.20,47.89 223.47,47.89 223.73,48.93 224.00,48.78 224.27,48.78 224.53,47.70 224.80,47.70 225.07,47.70 225.33,46.61 225.60,46.61 225.87,43.52 226.13,42.59 226.40,42.59 226.67,42.59 226.93,43.23 227.20,43.23 227.47,43.12 227.73,43.12 228.00,43.12 228.27,42.50 228.53,42.50 228.80,43.15 229.07,43.15 229.33,43.15 229.60,43.33 229.87,43.33 230.13,43.33 230.40,42.70 230.67,42.70 230.93,41.80 231.20,41.80 231.47,41.80 231.73,39.96 232.00,39.96 232.27,39.96 232.53,40.04 232.80,40.04 233.07,40.04 233.33,40.04 233.60,40.51 233.87,40.51 234.13,40.51 234.40,39.31 234.67,39.31 234.93,39.31 235.20,38.21 235.47,38.21 235.73,38.21 236.00,35.18 236.27,35.18 236.53,35.18 236.80,33.44 237.07,33.44 237.33,33.44 237.60,32.32 237.87,32.32 238.13,32.32 238.40,32.32 238.67,32.33 238.93,32.33 239.20,32.33 239.47,29.00 239.73,29.00 240.00,29.00 240.27,27.74 240.53,27.74 240.80,27.74 241.07,25.53 241.33,25.53 241.60,25.53 241.87,27.29 242.13,27.29 242.40,27.29 242.67,27.26 242.93,27.26 243.20,27.26 243.47,23.94 243.73,23.94 244.00,23.94 244.27,23.94 244.53,26.23 244.80,26.23 245.07,26.23 245.33,26.93 245.60,26.93 245.87,26.93 246.13,26.93 246.40,24.16 246.67,24.16 246.93,24.16 247.20,24.09 247.47,24.09 247.73,19.46 248.00,18.81 248.27,18.81 248.53,18.81 248.80,15.47 249.07,14.79 249.33,14.79 249.60,14.79 249.87,15.76 250.13,15.76 250.40,11.89 250.67,13.49 250.93,13.49 251.20,13.49 251.47,13.70 251.73,13.70 252.00,9.51 252.27,9.64 252.53,9.64 252.80,9.64 253.07,6.10 253.33,10.17 253.60,10.17 253.87,10.17 254.13,10.17 254.40,7.07 254.67,7.07 254.93,7.07 255.20,7.50 255.47,4.59 255.73,4.59 256.00,4.50 256.27,4.50 256.53,4.50 256.80,4.80 257.07,4.80 257.33,4.80 257.60,7.20 257.87,7.20 258.13,7.66 258.40,7.66 258.67,7.66 258.93,7.70 259.20,7.70 259.47,7.34 259.73,7.34 260.00,7.34 260.27,6.21 260.53,6.21 260.80,6.21 261.07,8.84 261.33,7.57 261.60,7.57 261.87,9.03 262.13,9.03 262.40,9.03 262.67,10.24 262.93,10.24 263.20,10.24 263.47,11.44 263.73,11.44 264.00,11.44 264.27,11.44 264.53,12.89 264.80,12.89 265.07,12.89 265.33,14.42 265.60,14.42 265.87,14.42 266.13,16.09 266.40,16.09 266.67,16.09 266.93,16.42 267.20,16.42 267.47,15.07 267.73,16.25 268.00,16.25 268.27,16.25 268.53,17.46 268.80,17.46 269.07,17.46 269.33,18.63 269.60,18.63 269.87,18.63 270.13,18.63 270.40,19.67 270.67,19.67 270.93,19.67 271.20,19.40 271.47,19.40 271.73,19.40 272.00,19.29 272.27,19.29 272.53,19.29 272.80,19.20 273.07,19.20 273.33,19.20 273.60,20.33 273.87,20.33 274.13,20.33 274.40,21.97 274.67,21.97 274.93,25.02 275.20,25.20 275.47,25.20 275.73,25.20 276.00,25.20 276.27,24.68 276.53,24.68 276.80,24.68 277.07,25.44 277.33,25.44 277.60,25.44 277.87,26.65 278.13,26.65 278.40,26.65 278.67,27.05 278.93,27.05 279.20,27.05 279.47,27.43 279.73,27.43 280.00,27.43 280.27,28.16 280.53,28.16 280.80,28.16 281.07,29.56 281.33,30.91 281.60,30.91 281.87,30.91 282.13,32.00 282.40,32.00 282.67,34.45 282.93,34.45 283.20,34.49 283.47,34.49 283.73,34.49 284.00,36.88 284.27,36.88 284.53,36.88 284.80,36.88 285.07,39.01 285.33,39.01 285.60,39.01 285.87,40.37 286.13,40.37 286.40,40.67 286.67,40.67 286.93,40.67 287.20,40.58 287.47,40.58 287.73,40.58 288.00,40.53 288.27,40.53 288.53,41.52 288.80,41.52 289.07,42.33 289.33,42.33 289.60,42.33 289.87,45.03 290.13,45.03 290.40,45.03 290.67,45.03 290.93,46.68 291.20,46.68 291.47,46.68 291.73,46.68 292.00,46.34 292.27,46.34 292.53,46.34 292.80,48.86 293.07,48.86 293.33,48.86 293.60,51.64 293.87,51.64 294.13,51.64 294.40,53.27 294.67,53.27 294.93,53.27 295.20,54.82 295.47,54.82 295.73,55.53 296.00,54.00" />
</svg>