<svg width="300" height="60" xmlns="http://www.w3.org/2000/svg">
  <polyline fill="rgba(255,200,0,0.3)" stroke="#ffbb00" stroke-width="2" points="4.00,27.88 6.00,23.92 8.00,23.01 10.00,22.48 12.00,23.17 14.00,23.93 16.00,24.54 18.00,25.16 20.00,26.07 22.00,27.38 24.00,29.46 26.00,32.26 28.00,34.36 30.00,34.23 32.00,35.86 34.00,37.04 36.00,37.49 38.00,38.80 40.00,42.01 42.00,39.02 44.00,37.21 46.00,36.46 48.00,35.59 50.00,35.37 52.00,35.21 54.00,38.58 56.00,41.82 58.00,37.08 60.00,34.33 62.00,34.29 64.00,30.86 66.00,31.62 68.00,32.36 70.00,32.60 72.00,32.37 74.00,30.40 76.00,28.29 78.00,25.51 80.00,22.65 82.00,20.13 84.00,18.02 86.00,17.25 88.00,17.34 90.00,17.90 92.00,20.36 94.00,24.52 96.00,27.18 98.00,30.29 100.00,34.56 102.00,31.11 104.00,26.22 106.00,23.73 108.00,22.19 110.00,20.79 112.00,23.21 114.00,26.06 116.00,23.76 118.00,28.49 120.00,27.21 122.00,30.25 124.00,33.41 126.00,30.29 128.00,35.47 130.00,38.34 132.00,35.02 134.00,37.48 136.00,41.00 138.00,37.72 140.00,41.87 142.00,36.21 144.00,38.35 146.00,39.50 148.00,35.48 150.00,36.79 152.00,36.79 154.00,39.57 156.00,39.57 158.00,34.49 160.00,32.73 162.00,31.45 164.00,34.01 166.00,31.36 168.00,32.91 170.00,29.72 172.00,30.36 174.00,26.39 176.00,25.50 178.00,21.09 180.00,19.62 182.00,18.91 184.00,15.04 186.00,15.75 188.00,20.60 190.00,17.54 192.00,22.93 194.00,25.42 196.00,29.20 198.00,31.02 200.00,48.45 202.00,27.52 204.00,27.52 206.00,27.52 208.00,20.84 210.00,20.84 212.00,20.84 214.00,14.76 216.00,27.65 218.00,27.65 220.00,27.65 222.00,40.02 224.00,40.02 226.00,49.06 228.00,49.06 230.00,29.73 232.00,37.59 234.00,37.59 236.00,37.59 238.00,48.62 240.00,48.62 242.00,48.62 244.00,56.00 246.00,34.17 248.00,34.17 250.00,34.17 252.00,43.34 254.00,43.34 256.00,32.03 258.00,37.02 260.00,37.02 262.00,35.19 264.00,27.65 266.00,27.65 268.00,27.65 270.00,19.25 272.00,19.25 274.00,25.80 276.00,13.78 278.00,13.78 280.00,13.78 282.00,4.00 284.00,13.56 286.00,13.56 288.00,13.56 290.00,13.56 292.00,22.51 294.00,22.51 296.00,22.51" />
</svg>