<svg width="300" height="60" xmlns="http://www.w3.org/2000/svg">
  <polyline fill="rgba(255,200,0,0.3)" stroke="#ffbb00" stroke-width="2" points="4.00,50.32 4.51,50.93 5.03,51.34 5.54,52.41 6.06,52.95 6.57,53.65 7.09,54.30 7.60,54.92 8.12,55.12 8.63,55.49 9.15,56.00 9.66,55.22 10.18,55.13 10.69,54.67 11.21,54.42 11.72,53.96 12.24,53.72 12.75,53.38 13.27,53.25 13.78,53.21 14.30,53.23 14.81,53.47 15.33,53.22 15.84,52.98 16.36,52.76 16.87,52.03 17.39,51.38 17.90,50.70 18.42,50.32 18.93,50.07 19.45,50.11 19.96,50.45 20.48,50.75 20.99,50.63 21.51,50.30 22.02,50.15 22.54,50.12 23.05,49.72 23.57,49.33 24.08,49.17 24.60,49.33 25.11,49.24 25.63,49.53 26.14,49.33 26.66,49.88 27.17,50.13 27.69,50.47 28.20,50.63 28.72,51.01 29.23,50.93 29.75,51.00 30.26,51.24 30.78,51.57 31.29,51.83 31.81,51.88 32.32,51.94 32.84,51.91 33.35,50.99 33.87,49.85 34.38,49.47 34.90,48.51 35.41,47.53 35.93,46.72 36.44,46.02 36.96,45.24 37.47,44.43 37.99,43.61 38.50,43.11 39.02,42.48 39.53,41.78 40.05,41.54 40.56,41.36 41.08,41.42 41.59,41.40 42.11,41.53 42.62,41.80 43.14,41.53 43.65,41.25 44.17,40.80 44.68,40.14 45.20,39.31 45.71,38.57 46.23,37.57 46.74,36.61 47.26,35.62 47.77,35.67 48.29,36.14 48.80,36.09 49.32,35.44 49.83,34.34 50.35,33.51 50.86,33.01 51.38,32.74 51.89,32.71 52.41,32.31 52.92,31.78 53.44,31.64 53.95,31.60 54.47,30.98 54.98,30.23 55.50,29.71 56.01,29.35 56.53,28.47 57.04,27.80 57.56,27.38 58.07,27.11 58.59,27.10 59.10,26.98 59.62,26.66 60.13,26.06 60.65,25.17 61.16,24.05 61.68,23.37 62.19,22.79 62.71,21.61 63.22,20.46 63.74,19.62 64.25,18.82 64.77,18.74 65.28,18.85 65.80,18.40 66.31,17.35 66.83,16.68 67.34,16.43 67.86,16.47 68.37,16.47 68.89,16.79 69.40,17.04 69.92,16.89 70.43,16.75 70.95,16.65 71.46,16.96 71.98,17.27 72.49,17.37 73.01,17.36 73.52,17.23 74.04,17.29 74.55,17.44 75.07,17.58 75.58,17.28 76.10,16.74 76.61,16.19 77.13,50.41 77.64,50.69 78.16,51.80 78.67,52.83 79.19,53.45 79.70,54.05 80.22,54.69 80.73,55.49 81.25,55.49 81.76,55.83 82.28,55.85 82.79,55.45 83.31,54.68 83.82,54.89 84.34,54.50 84.85,54.04 85.37,53.62 85.88,53.22 86.40,53.44 86.91,53.42 87.43,53.13 87.94,53.74 88.46,53.35 88.97,53.23 89.49,52.74 90.00,52.21 90.52,51.35 91.03,50.70 91.55,50.38 92.06,50.18 92.58,50.11 93.09,50.69 93.61,50.95 94.12,50.67 94.64,50.14 95.15,50.39 95.67,50.45 96.18,49.93 96.70,49.53 97.21,49.52 97.73,49.53 98.24,49.37 98.76,49.62 99.27,49.22 99.79,50.22 100.30,50.47 100.82,50.60 101.33,50.91 101.85,51.03 102.36,51.11 102.88,51.25 103.39,51.57 103.91,51.87 104.42,52.12 104.94,52.18 105.45,52.23 105.97,51.87 106.48,51.12 107.00,50.18 107.51,49.58 108.03,48.60 108.54,48.03 109.06,47.12 109.57,46.69 110.09,45.44 110.60,44.81 111.12,43.91 111.63,43.43 112.15,42.60 112.66,42.15 113.18,41.78 113.69,41.53 114.21,41.71 114.72,41.94 115.24,41.83 115.75,41.73 116.27,41.73 116.78,41.41 117.30,40.91 117.81,40.12 118.33,39.45 118.84,38.80 119.36,37.72 119.87,36.31 120.39,35.43 120.90,35.84 121.42,36.26 121.93,35.51 122.45,34.88 122.96,33.97 123.48,33.18 123.99,33.24 124.51,32.39 125.02,32.77 125.54,32.02 126.05,31.78 126.57,31.60 127.08,31.23 127.60,31.22 128.11,29.80 128.63,29.23 129.14,29.62 129.66,28.82 130.17,28.11 130.69,27.23 131.20,26.98 131.72,26.52 132.23,27.33 132.75,25.89 133.26,25.96 133.78,24.73 134.29,24.27 134.81,23.67 135.32,23.34 135.84,22.38 136.35,20.65 136.87,19.89 137.38,19.16 137.90,19.03 138.41,18.99 138.93,18.69 139.44,17.66 139.96,16.93 140.47,16.73 140.99,16.60 141.50,16.84 142.02,17.04 142.53,17.97 143.05,17.92 143.56,17.24 144.08,17.14 144.59,17.29 145.11,18.46 145.62,17.89 146.14,18.73 146.65,17.75 147.17,18.12 147.68,17.86 148.20,18.81 148.71,18.96 149.23,17.42 149.74,16.87 150.26,49.91 150.77,50.27 151.29,50.90 151.80,51.73 152.32,52.75 152.83,53.40 153.35,53.90 153.86,54.51 154.38,54.99 154.89,55.41 155.41,55.77 155.92,55.77 156.44,55.43 156.95,54.40 157.47,54.05 157.98,53.62 158.50,54.10 159.01,53.70 159.53,52.54 160.04,53.27 160.56,52.66 161.07,53.54 161.59,53.01 162.10,53.01 162.62,52.83 163.13,52.09 163.65,51.55 164.16,50.61 164.68,49.80 165.19,50.03 165.71,49.64 166.22,49.51 166.74,50.64 167.25,50.45 167.77,50.02 168.28,49.74 168.80,49.74 169.31,49.71 169.83,48.17 170.34,48.53 170.86,49.03 171.37,48.27 171.89,48.93 172.40,47.89 172.92,48.39 173.43,49.25 173.95,49.81 174.46,49.93 174.98,50.10 175.49,50.38 176.01,50.75 176.52,51.23 177.04,51.23 177.55,51.72 178.07,52.14 178.58,51.96 179.10,51.77 179.61,51.31 180.13,49.83 180.64,48.64 181.16,48.64 181.67,47.84 182.19,46.60 182.70,45.94 183.22,45.04 183.73,45.26 184.25,43.29 184.76,43.19 185.28,43.07 185.79,41.99 186.31,41.67 186.82,41.28 187.34,40.75 187.85,40.89 188.37,41.36 188.88,41.24 189.40,41.49 189.91,41.31 190.43,40.86 190.94,40.49 191.46,39.99 191.97,38.73 192.49,37.64 193.00,38.28 193.52,37.24 194.03,36.96 194.55,37.56 195.06,37.05 195.58,35.69 196.09,34.33 196.61,35.13 197.12,34.20 197.64,33.60 198.15,33.41 198.67,32.04 199.18,32.74 199.70,32.16 200.21,31.51 200.73,31.51 201.24,30.98 201.76,29.27 202.27,30.86 202.79,29.82 203.30,29.77 203.82,28.44 204.33,27.71 204.85,27.23 205.36,30.40 205.88,28.95 206.39,27.80 206.91,26.21 207.42,24.73 207.94,23.62 208.45,23.19 208.97,22.13 209.48,20.29 210.00,19.48 210.51,18.98 211.03,19.53 211.54,19.03 212.06,18.93 212.57,18.37 213.09,16.86 213.60,15.27 214.12,15.01 214.63,14.51 215.15,16.37 215.66,15.46 216.18,17.23 216.69,15.82 217.21,14.93 217.72,14.49 218.24,14.57 218.75,14.21 219.27,16.64 219.78,14.50 220.30,16.79 220.81,15.85 221.33,15.05 221.84,18.31 222.36,15.41 222.87,16.09 223.39,49.64 223.90,49.64 224.42,51.23 224.93,51.23 225.45,51.23 225.96,53.49 226.48,53.49 226.99,53.49 227.51,55.10 228.02,55.10 228.54,55.10 229.05,55.10 229.57,55.76 230.08,55.76 230.60,55.76 231.11,53.07 231.63,55.15 232.14,55.15 232.66,55.15 233.17,55.15 233.69,53.34 234.20,53.34 234.72,54.47 235.23,54.47 235.75,54.47 236.26,52.35 236.78,52.35 237.29,52.35 237.81,49.74 238.32,52.28 238.84,52.28 239.35,51.38 239.87,51.38 240.38,51.38 240.90,51.08 241.41,51.08 241.93,51.08 242.44,51.08 242.96,50.72 243.47,50.72 243.99,50.72 244.50,48.00 245.02,48.00 245.53,48.00 246.05,49.66 246.56,49.66 247.08,49.66 247.59,50.93 248.11,50.93 248.62,50.93 249.14,51.11 249.65,51.11 250.17,51.11 250.68,52.52 251.20,52.52 251.71,51.99 252.23,51.30 252.74,51.30 253.26,51.30 253.77,46.23 254.29,46.23 254.80,46.23 255.32,46.23 255.83,41.58 256.35,42.86 256.86,42.86 257.38,42.86 257.89,43.38 258.41,43.38 258.92,43.10 259.44,43.10 259.95,43.51 260.47,42.37 260.98,42.37 261.50,41.65 262.01,41.65 262.53,41.65 263.04,41.06 263.56,41.06 264.07,41.06 264.59,40.09 265.10,40.09 265.62,37.86 266.13,37.86 266.65,37.86 267.16,37.23 267.68,37.23 268.19,34.34 268.71,34.34 269.22,34.34 269.74,37.54 270.25,37.54 270.77,37.54 271.28,35.25 271.80,35.25 272.31,32.82 272.83,32.82 273.34,32.82 273.86,26.83 274.37,32.22 274.89,32.22 275.40,32.22 275.92,26.32 276.43,31.89 276.95,31.89 277.46,32.97 277.98,32.97 278.49,32.97 279.01,30.13 279.52,30.13 280.04,25.24 280.55,25.24 281.07,25.24 281.58,21.78 282.10,21.78 282.61,20.35 283.13,21.93 283.64,21.93 284.16,21.93 284.67,19.11 285.19,19.11 285.70,21.70 286.22,15.50 286.73,15.50 287.25,10.63 287.76,10.63 288.28,16.44 288.79,12.85 289.31,12.85 289.82,12.85 290.34,10.71 290.85,10.71 291.37,8.46 291.88,8.46 292.40,8.46 292.91,4.00 293.43,15.93 293.94,15.93 294.46,13.28 294.97,13.28 295.49,13.38 296.00,13.38" />
</svg>