<svg width="300" height="60" xmlns="http://www.w3.org/2000/svg">
  <polyline fill="rgba(255,200,0,0.3)" stroke="#ffbb00" stroke-width="2" points="4.00,8.17 5.07,6.92 6.15,5.42 7.22,4.45 8.29,4.21 9.37,4.75 10.44,5.67 11.51,6.70 12.59,7.55 13.66,8.69 14.74,10.47 15.81,12.58 16.88,14.46 17.96,16.64 19.03,18.01 20.10,19.10 21.18,19.67 22.25,20.45 23.32,21.79 24.40,23.42 25.47,25.04 26.54,26.57 27.62,27.66 28.69,29.20 29.76,31.37 30.84,33.46 31.91,35.57 32.99,36.08 34.06,34.64 35.13,33.15 36.21,33.88 37.28,34.54 38.35,35.95 39.43,38.15 40.50,40.51 41.57,43.43 42.65,46.25 43.72,48.09 44.79,46.83 45.87,45.59 46.94,44.41 48.01,43.98 49.09,43.46 50.16,43.40 51.24,43.02 52.31,42.70 53.38,43.57 54.46,44.52 55.53,45.86 56.60,47.03 57.68,48.78 58.75,47.79 59.82,46.92 60.90,46.25 61.97,46.21 63.04,43.85 64.12,42.59 65.19,42.87 66.26,44.12 67.34,45.40 68.41,47.71 69.49,49.57 70.56,52.19 71.63,53.87 72.71,51.76 73.78,48.31 74.85,45.73 75.93,45.24 77.00,46.51 78.07,48.29 79.15,46.40 80.22,43.61 81.29,41.29 82.37,39.95 83.44,38.79 84.51,37.46 85.59,36.70 86.66,36.10 87.74,36.93 88.81,38.97 89.88,41.86 90.96,45.46 92.03,49.82 93.10,53.89 94.18,56.00 95.25,54.62 96.32,51.33 97.40,48.76 98.47,46.06 99.54,45.03 100.62,45.92 101.69,7.22 102.76,7.22 103.84,6.22 104.91,4.33 105.99,4.00 107.06,4.97 108.13,5.89 109.21,6.90 110.28,7.56 111.35,8.28 112.43,9.58 113.50,13.57 114.57,14.91 115.65,16.21 116.72,19.39 117.79,19.82 118.87,20.02 119.94,20.02 121.01,22.06 122.09,23.97 123.16,25.11 124.24,26.52 125.31,27.43 126.38,28.81 127.46,30.50 128.53,34.11 129.60,35.93 130.68,36.52 131.75,35.75 132.82,32.47 133.90,33.77 134.97,35.05 136.04,35.53 137.12,38.39 138.19,40.54 139.26,44.27 140.34,46.99 141.41,47.28 142.49,47.28 143.56,46.09 144.63,44.56 145.71,43.64 146.78,45.00 147.85,43.79 148.93,42.83 150.00,41.95 151.07,42.69 152.15,44.74 153.22,45.94 154.29,47.13 155.37,48.98 156.44,48.98 157.51,47.57 158.59,46.70 159.66,46.32 160.74,44.08 161.81,42.28 162.88,42.30 163.96,42.90 165.03,46.30 166.10,48.06 167.18,49.92 168.25,52.37 169.32,53.85 170.40,51.18 171.47,47.69 172.54,44.92 173.62,44.29 174.69,46.48 175.76,47.69 176.84,47.73 177.91,44.22 178.99,41.61 180.06,40.08 181.13,39.24 182.21,37.42 183.28,36.52 184.35,36.17 185.43,36.54 186.50,38.28 187.57,41.72 188.65,46.64 189.72,52.19 190.79,52.19 191.87,55.38 192.94,55.78 194.01,50.91 195.09,50.12 196.16,45.16 197.24,45.13 198.31,44.98 199.38,6.60 200.46,6.60 201.53,6.60 202.60,4.03 203.68,4.03 204.75,5.94 205.82,5.94 206.90,8.97 207.97,8.97 209.04,8.97 210.12,11.36 211.19,14.76 212.26,18.80 213.34,18.80 214.41,18.80 215.49,20.01 216.56,20.01 217.63,20.01 218.71,22.05 219.78,22.05 220.85,26.18 221.93,26.18 223.00,26.18 224.07,30.31 225.15,30.31 226.22,34.09 227.29,34.09 228.37,34.09 229.44,32.48 230.51,32.48 231.59,32.48 232.66,37.31 233.74,37.31 234.81,37.31 235.88,37.31 236.96,48.05 238.03,48.05 239.10,48.05 240.18,48.05 241.25,44.56 242.32,44.56 243.40,44.56 244.47,41.55 245.54,41.55 246.62,41.55 247.69,40.43 248.76,44.73 249.84,44.73 250.91,44.73 251.99,48.97 253.06,48.97 254.13,48.97 255.21,48.97 256.28,46.33 257.35,46.33 258.43,46.33 259.50,40.54 260.57,40.54 261.65,40.54 262.72,47.21 263.79,47.21 264.87,52.44 265.94,52.44 267.01,52.44 268.09,52.44 269.16,46.62 270.24,46.62 271.31,46.62 272.38,46.62 273.46,47.32 274.53,47.32 275.60,47.32 276.68,40.16 277.75,40.16 278.82,40.16 279.90,36.54 280.97,36.54 282.04,36.54 283.12,37.20 284.19,41.72 285.26,41.72 286.34,41.72 287.41,55.38 288.49,55.38 289.56,55.38 290.63,55.38 291.71,54.91 292.78,54.91 293.85,42.38 294.93,44.98 296.00,44.98" />
</svg>