<svg width="300" height="60" xmlns="http://www.w3.org/2000/svg">
  <polyline fill="rgba(255,200,0,0.3)" stroke="#ffbb00" stroke-width="2" points="4.00,45.24 5.09,43.85 6.17,37.64 7.26,31.08 8.34,29.47 9.43,27.89 10.51,28.50 11.60,35.67 12.68,38.05 13.77,37.86 14.86,30.84 15.94,26.36 17.03,23.84 18.11,24.16 19.20,26.07 20.28,27.14 21.37,28.58 22.45,32.68 23.54,37.60 24.62,38.12 25.71,37.80 26.80,35.27 27.88,33.92 28.97,37.16 30.05,40.45 31.14,41.72 32.22,42.03 33.31,42.37 34.39,42.71 35.48,40.24 36.57,35.67 37.65,33.29 38.74,33.39 39.82,36.15 40.91,34.61 41.99,30.64 43.08,29.98 44.16,31.70 45.25,32.40 46.33,30.79 47.42,28.24 48.51,25.73 49.59,20.41 50.68,16.93 51.76,14.87 52.85,12.49 53.93,9.83 55.02,10.72 56.10,11.56 57.19,11.73 58.28,15.09 59.36,19.34 60.45,21.87 61.53,23.08 62.62,23.84 63.70,24.11 64.79,23.67 65.87,25.45 66.96,28.85 68.04,29.67 69.13,33.00 70.22,35.14 71.30,40.25 72.39,40.89 73.47,42.44 74.56,43.76 75.64,44.10 76.73,45.41 77.81,44.00 78.90,39.69 79.99,33.21 81.07,29.30 82.16,27.59 83.24,28.45 84.33,35.59 85.41,38.14 86.50,37.96 87.58,31.33 88.67,26.68 89.75,24.13 90.84,24.39 91.93,26.32 93.01,27.33 94.10,28.83 95.18,32.58 96.27,37.67 97.35,38.14 98.44,38.20 99.52,34.77 100.61,33.89 101.70,37.34 102.78,40.48 103.87,41.76 104.95,42.10 106.04,42.40 107.12,42.77 108.21,38.71 109.29,35.78 110.38,33.45 111.46,33.47 112.55,36.42 113.64,34.48 114.72,30.63 115.81,30.12 116.89,31.93 117.98,32.55 119.06,30.90 120.15,28.25 121.23,25.91 122.32,20.70 123.41,17.26 124.49,15.06 125.58,12.62 126.66,10.22 127.75,10.92 128.83,11.81 129.92,11.59 131.00,14.64 132.09,19.99 133.17,22.50 134.26,23.33 135.35,23.79 136.43,24.30 137.52,23.65 138.60,25.97 139.69,28.28 140.77,29.58 141.86,33.18 142.94,35.01 144.03,40.44 145.12,41.31 146.20,42.65 147.29,43.89 148.37,44.68 149.46,46.00 150.54,38.77 151.63,39.89 152.71,32.95 153.80,30.89 154.88,27.80 155.97,28.53 157.06,32.55 158.14,37.23 159.23,38.16 160.31,30.33 161.40,29.33 162.48,22.79 163.57,22.79 164.65,26.08 165.74,24.97 166.83,29.42 167.91,34.03 169.00,32.94 170.08,38.06 171.17,36.76 172.25,35.60 173.34,31.72 174.42,37.49 175.51,41.31 176.59,40.28 177.68,42.08 178.77,42.61 179.85,42.94 180.94,43.24 182.02,33.94 183.11,31.75 184.19,31.25 185.28,33.41 186.36,32.85 187.45,34.14 188.54,32.75 189.62,33.94 190.71,30.33 191.79,33.18 192.88,25.85 193.96,28.97 195.05,26.11 196.13,15.52 197.22,11.51 198.30,6.95 199.39,12.02 200.48,8.97 201.56,6.94 202.65,5.02 203.73,19.49 204.82,20.55 205.90,20.88 206.99,19.68 208.07,19.05 209.16,29.57 210.25,26.32 211.33,26.75 212.42,28.81 213.50,31.25 214.59,34.97 215.67,31.08 216.76,38.02 217.84,36.00 218.93,41.47 220.01,40.20 221.10,43.94 222.19,56.00 223.27,22.61 224.36,32.96 225.44,32.96 226.53,32.96 227.61,20.48 228.70,20.48 229.78,20.48 230.87,32.33 231.96,38.31 233.04,38.31 234.13,38.31 235.21,21.10 236.30,21.10 237.38,21.10 238.47,21.10 239.55,36.40 240.64,36.40 241.72,31.55 242.81,31.55 243.90,31.55 244.98,28.70 246.07,28.70 247.15,40.19 248.24,40.19 249.32,40.19 250.41,42.51 251.49,42.51 252.58,42.51 253.67,42.51 254.75,39.82 255.84,39.82 256.92,39.82 258.01,38.22 259.09,38.22 260.18,38.22 261.26,34.84 262.35,34.84 263.43,34.84 264.52,41.87 265.61,22.56 266.69,22.56 267.78,22.56 268.86,4.00 269.95,4.00 271.03,4.00 272.12,22.62 273.20,22.62 274.29,22.62 275.38,15.66 276.46,15.66 277.55,17.12 278.63,17.12 279.72,17.12 280.80,14.27 281.89,14.27 282.97,13.53 284.06,13.53 285.14,13.53 286.23,22.13 287.32,22.13 288.40,22.13 289.49,38.23 290.57,38.23 291.66,38.23 292.74,35.08 293.83,35.08 294.91,55.99 296.00,22.63" />
</svg>