<svg width="300" height="60" xmlns="http://www.w3.org/2000/svg">
  <polyline fill="rgba(255,200,0,0.3)" stroke="#ffbb00" stroke-width="2" points="4.00,4.00 5.09,5.05 6.19,6.12 7.28,7.18 8.37,8.24 9.47,9.26 10.56,10.77 11.66,12.33 12.75,13.58 13.84,14.21 14.94,15.28 16.03,16.58 17.12,18.13 18.22,19.94 19.31,21.41 20.40,22.66 21.50,23.93 22.59,25.71 23.69,27.08 24.78,27.53 25.87,27.85 26.97,28.57 28.06,29.59 29.15,30.55 30.25,31.14 31.34,32.20 32.43,32.98 33.53,34.12 34.62,35.04 35.72,35.69 36.81,36.45 37.90,37.28 39.00,38.03 40.09,39.57 41.18,41.44 42.28,42.92 43.37,44.57 44.46,46.13 45.56,47.37 46.65,48.27 47.75,49.07 48.84,50.06 49.93,49.92 51.03,49.48 52.12,48.94 53.21,47.82 54.31,46.77 55.40,45.30 56.49,44.45 57.59,43.44 58.68,41.31 59.78,40.49 60.87,39.59 61.96,38.75 63.06,38.02 64.15,37.47 65.24,37.32 66.34,36.37 67.43,35.59 68.52,35.07 69.62,34.57 70.71,34.54 71.81,34.33 72.90,34.45 73.99,34.11 75.09,33.70 76.18,33.92 77.27,4.14 78.37,5.30 79.46,6.30 80.55,7.70 81.65,8.30 82.74,9.48 83.84,10.99 84.93,12.62 86.02,13.76 87.12,13.96 88.21,14.90 89.30,16.53 90.40,18.29 91.49,20.53 92.58,22.01 93.68,22.89 94.77,24.22 95.87,25.55 96.96,26.99 98.05,27.18 99.15,28.06 100.24,28.56 101.33,29.57 102.43,30.45 103.52,31.15 104.61,32.17 105.71,33.13 106.80,33.86 107.90,34.61 108.99,35.53 110.08,36.54 111.18,37.46 112.27,38.35 113.36,39.95 114.46,41.43 115.55,43.30 116.64,44.99 117.74,46.17 118.83,47.61 119.93,48.45 121.02,49.24 122.11,50.13 123.21,50.36 124.30,49.57 125.39,49.20 126.49,47.79 127.58,46.59 128.67,45.01 129.77,44.47 130.86,42.97 131.96,41.05 133.05,40.30 134.14,39.70 135.24,38.41 136.33,37.87 137.42,37.58 138.52,37.32 139.61,36.61 140.70,35.65 141.80,35.52 142.89,34.90 143.99,34.62 145.08,34.44 146.17,34.55 147.27,34.10 148.36,33.78 149.45,33.86 150.55,4.28 151.64,5.57 152.73,6.97 153.83,8.40 154.92,8.40 156.01,8.53 157.11,9.55 158.20,11.42 159.30,13.20 160.39,13.95 161.48,14.68 162.58,16.63 163.67,18.20 164.76,20.85 165.86,20.66 166.95,21.35 168.04,22.18 169.14,26.00 170.23,25.93 171.33,26.81 172.42,28.45 173.51,29.65 174.61,30.42 175.70,30.08 176.79,31.04 177.89,33.14 178.98,31.56 180.07,33.21 181.17,34.32 182.26,34.11 183.36,35.61 184.45,37.24 185.54,38.80 186.64,38.72 187.73,41.14 188.82,42.62 189.92,42.54 191.01,45.13 192.10,47.10 193.20,48.52 194.29,48.52 195.39,50.66 196.48,50.70 197.57,53.04 198.67,51.60 199.76,48.30 200.85,48.62 201.95,46.09 203.04,46.69 204.13,44.22 205.23,41.60 206.32,40.57 207.42,39.86 208.51,38.00 209.60,36.09 210.70,34.93 211.79,35.97 212.88,37.19 213.98,35.58 215.07,34.16 216.16,34.91 217.26,34.72 218.35,35.73 219.45,34.77 220.54,34.85 221.63,33.93 222.73,35.13 223.82,4.58 224.91,4.92 226.01,4.92 227.10,9.81 228.19,9.81 229.29,9.81 230.38,10.18 231.48,10.18 232.57,10.18 233.66,13.44 234.76,13.44 235.85,13.44 236.94,18.72 238.04,18.72 239.13,18.87 240.22,18.87 241.32,18.87 242.41,21.32 243.51,21.32 244.60,28.68 245.69,28.68 246.79,28.68 247.88,36.40 248.97,29.77 250.07,29.77 251.16,36.22 252.25,29.77 253.35,31.25 254.44,31.25 255.54,31.25 256.63,27.86 257.72,36.98 258.82,36.98 259.91,36.98 261.00,37.30 262.10,37.30 263.19,37.30 264.28,41.50 265.38,41.50 266.47,44.98 267.57,44.98 268.66,51.20 269.75,51.20 270.85,56.00 271.94,56.00 273.03,51.26 274.13,51.26 275.22,50.55 276.31,50.55 277.41,50.55 278.50,42.62 279.60,42.62 280.69,42.62 281.78,38.18 282.88,38.18 283.97,34.19 285.06,34.19 286.16,34.19 287.25,37.02 288.34,35.54 289.44,35.54 290.53,35.54 291.63,42.12 292.72,42.12 293.81,36.72 294.91,36.72 296.00,36.05" />
</svg>