<svg width="300" height="60" xmlns="http://www.w3.org/2000/svg">
  <polyline fill="rgba(255,200,0,0.3)" stroke="#ffbb00" stroke-width="2" points="4.00,34.43 4.59,35.36 5.18,37.02 5.76,37.76 6.35,38.24 6.94,39.03 7.53,39.06 8.11,38.46 8.70,38.82 9.29,39.51 9.88,39.86 10.46,40.46 11.05,41.09 11.64,41.55 12.23,42.29 12.81,42.66 13.40,43.17 13.99,44.09 14.58,44.76 15.16,45.24 15.75,46.10 16.34,47.40 16.93,48.73 17.51,49.53 18.10,49.83 18.69,50.11 19.28,50.03 19.86,51.00 20.45,52.63 21.04,51.33 21.63,50.83 22.21,50.11 22.80,49.60 23.39,49.50 23.98,50.06 24.56,51.01 25.15,53.29 25.74,53.85 26.33,53.83 26.91,53.75 27.50,54.10 28.09,53.63 28.68,52.55 29.26,52.22 29.85,50.33 30.44,49.82 31.03,49.85 31.61,49.82 32.20,49.67 32.79,48.79 33.38,48.13 33.96,48.07 34.55,47.90 35.14,47.84 35.73,47.99 36.31,47.63 36.90,46.90 37.49,46.61 38.08,46.26 38.66,46.68 39.25,47.15 39.84,47.02 40.43,47.19 41.01,45.96 41.60,45.31 42.19,44.84 42.78,43.85 43.36,43.51 43.95,43.44 44.54,43.38 45.13,43.43 45.71,43.28 46.30,41.61 46.89,40.69 47.48,40.29 48.06,40.16 48.65,39.30 49.24,39.40 49.83,39.97 50.41,39.35 51.00,39.05 51.59,39.07 52.18,39.01 52.76,39.15 53.35,38.27 53.94,39.32 54.53,39.52 55.11,38.99 55.70,38.71 56.29,38.02 56.88,37.37 57.46,36.78 58.05,36.08 58.64,35.41 59.23,34.82 59.81,34.32 60.40,33.78 60.99,30.43 61.58,30.39 62.16,31.06 62.75,31.06 63.34,30.23 63.93,29.77 64.52,30.17 65.10,29.69 65.69,29.15 66.28,28.59 66.87,28.02 67.45,27.51 68.04,27.34 68.63,27.90 69.22,28.47 69.80,26.33 70.39,25.58 70.98,25.12 71.57,24.49 72.15,24.40 72.74,24.33 73.33,22.88 73.92,22.04 74.50,21.44 75.09,20.55 75.68,19.93 76.27,19.79 76.85,19.05 77.44,17.74 78.03,17.14 78.62,15.08 79.20,15.59 79.79,16.38 80.38,16.60 80.97,17.71 81.55,16.75 82.14,16.53 82.73,16.54 83.32,15.69 83.90,15.22 84.49,14.62 85.08,13.78 85.67,12.65 86.25,11.83 86.84,11.11 87.43,10.52 88.02,10.19 88.60,10.13 89.19,9.72 89.78,8.64 90.37,7.35 90.95,6.79 91.54,5.68 92.13,6.48 92.72,6.80 93.30,7.04 93.89,7.71 94.48,9.94 95.07,11.43 95.65,9.49 96.24,8.31 96.83,8.56 97.42,8.78 98.00,9.14 98.59,10.58 99.18,12.00 99.77,13.40 100.35,14.58 100.94,16.97 101.53,34.65 102.12,35.93 102.70,36.28 103.29,37.99 103.88,38.01 104.47,38.91 105.05,38.62 105.64,39.46 106.23,39.11 106.82,39.02 107.40,39.02 107.99,38.76 108.58,40.73 109.17,40.47 109.75,42.54 110.34,42.42 110.93,44.53 111.52,42.79 112.10,43.68 112.69,45.84 113.28,47.20 113.87,46.36 114.45,48.22 115.04,49.33 115.63,52.21 116.22,50.70 116.80,51.07 117.39,52.25 117.98,53.08 118.57,51.70 119.15,48.83 119.74,49.99 120.33,48.04 120.92,48.97 121.51,50.18 122.09,52.36 122.68,53.07 123.27,53.77 123.86,54.34 124.44,54.89 125.03,53.17 125.62,52.74 126.21,51.73 126.79,52.47 127.38,50.21 127.97,50.28 128.56,49.34 129.14,50.88 129.73,49.99 130.32,49.42 130.91,47.42 131.49,47.85 132.08,48.18 132.67,47.64 133.26,47.58 133.84,47.58 134.43,47.20 135.02,47.02 135.61,47.21 136.19,47.13 136.78,47.01 137.37,46.25 137.96,46.93 138.54,44.78 139.13,43.91 139.72,44.74 140.31,43.17 140.89,44.06 141.48,41.62 142.07,42.15 142.66,43.85 143.24,43.16 143.83,41.96 144.42,40.73 145.01,40.14 145.59,39.84 146.18,38.75 146.77,40.42 147.36,40.11 147.94,40.03 148.53,40.15 149.12,40.63 149.71,40.74 150.29,40.63 150.88,40.35 151.47,40.25 152.06,40.05 152.64,39.94 153.23,39.74 153.82,37.81 154.41,37.07 154.99,36.75 155.58,35.77 156.17,35.17 156.76,34.63 157.34,34.16 157.93,32.55 158.52,29.67 159.11,31.21 159.69,31.22 160.28,29.31 160.87,29.71 161.46,30.42 162.04,28.97 162.63,30.23 163.22,29.99 163.81,28.91 164.39,28.33 164.98,27.49 165.57,26.33 166.16,27.83 166.74,28.35 167.33,26.01 167.92,23.53 168.51,24.53 169.09,24.38 169.68,23.81 170.27,23.71 170.86,24.18 171.44,22.70 172.03,21.59 172.62,18.99 173.21,20.36 173.79,18.79 174.38,19.29 174.97,16.47 175.56,14.89 176.14,12.56 176.73,15.58 177.32,16.18 177.91,17.31 178.49,17.31 179.08,17.19 179.67,15.29 180.26,15.99 180.85,17.16 181.43,15.42 182.02,13.92 182.61,13.92 183.20,12.04 183.78,12.26 184.37,10.25 184.96,10.12 185.55,9.13 186.13,9.84 186.72,8.55 187.31,7.44 187.90,7.44 188.48,5.83 189.07,6.33 189.66,6.38 190.25,6.54 190.83,7.79 191.42,7.27 192.01,9.04 192.60,11.56 193.18,9.79 193.77,8.24 194.36,8.40 194.95,9.03 195.53,9.53 196.12,10.52 196.71,12.77 197.30,13.90 197.88,15.42 198.47,17.03 199.06,36.61 199.65,36.61 200.23,36.61 200.82,38.37 201.41,36.74 202.00,36.74 202.58,36.74 203.17,40.28 203.76,40.28 204.35,34.07 204.93,34.07 205.52,40.23 206.11,40.23 206.70,40.23 207.28,46.14 207.87,41.13 208.46,41.13 209.05,41.13 209.63,48.33 210.22,48.33 210.81,45.11 211.40,45.11 211.98,53.91 212.57,51.04 213.16,51.04 213.75,51.04 214.33,51.76 214.92,51.76 215.51,51.76 216.10,45.98 216.68,45.98 217.27,49.72 217.86,49.72 218.45,49.72 219.03,54.82 219.62,56.00 220.21,56.00 220.80,56.00 221.38,55.79 221.97,55.79 222.56,55.79 223.15,52.17 223.73,52.17 224.32,52.17 224.91,48.26 225.50,52.09 226.08,52.09 226.67,52.09 227.26,49.71 227.85,49.71 228.43,47.33 229.02,47.33 229.61,47.33 230.20,47.54 230.78,47.54 231.37,47.54 231.96,47.54 232.55,50.86 233.13,49.69 233.72,49.69 234.31,46.32 234.90,46.32 235.48,46.32 236.07,39.68 236.66,43.01 237.25,43.01 237.84,43.01 238.42,43.44 239.01,35.97 239.60,35.97 240.19,43.44 240.77,40.63 241.36,40.63 241.95,40.63 242.54,42.12 243.12,40.70 243.71,40.70 244.30,40.70 244.89,40.12 245.47,40.12 246.06,40.12 246.65,40.19 247.24,40.19 247.82,39.73 248.41,39.73 249.00,39.73 249.59,39.53 250.17,39.53 250.76,37.35 251.35,37.35 251.94,37.35 252.52,34.17 253.11,33.23 253.70,33.23 254.29,33.23 254.87,28.82 255.46,28.82 256.05,28.82 256.64,28.82 257.22,26.27 257.81,26.27 258.40,26.27 258.99,28.13 259.57,28.13 260.16,28.13 260.75,29.18 261.34,29.18 261.92,29.18 262.51,29.86 263.10,29.86 263.69,29.86 264.27,22.78 264.86,22.78 265.45,22.78 266.04,23.89 266.62,23.89 267.21,23.89 267.80,25.99 268.39,25.99 268.97,17.24 269.56,21.58 270.15,21.58 270.74,21.58 271.32,11.44 271.91,10.97 272.50,10.97 273.09,10.97 273.67,7.05 274.26,7.05 274.85,15.38 275.44,15.38 276.02,15.38 276.61,16.27 277.20,16.27 277.79,16.27 278.37,19.90 278.96,10.55 279.55,10.55 280.14,10.55 280.72,12.42 281.31,12.42 281.90,4.36 282.49,4.00 283.07,4.00 283.66,9.91 284.25,7.11 284.84,7.11 285.42,7.11 286.01,5.24 286.60,10.65 287.19,10.65 287.77,9.33 288.36,9.33 288.95,9.33 289.54,9.33 290.12,15.87 290.71,12.18 291.30,12.18 291.89,11.54 292.47,11.54 293.06,11.54 293.65,14.46 294.24,14.46 294.82,18.23 295.41,18.23 296.00,18.23" />
</svg>