<svg width="300" height="60" xmlns="http://www.w3.org/2000/svg">
  <polyline fill="rgba(255,200,0,0.3)" stroke="#ffbb00" stroke-width="2" points="4.00,28.84 8.63,32.31 13.27,40.44 17.90,41.62 22.54,42.88 27.17,47.13 31.81,53.30 36.44,53.85 41.08,55.78 45.71,53.81 50.35,48.27 54.98,46.83 59.62,41.84 64.25,34.56 68.89,28.80 73.52,12.06 78.16,28.53 82.79,31.90 87.43,39.40 92.06,41.61 96.70,42.69 101.33,47.19 105.97,53.01 110.60,53.96 115.24,56.00 119.87,53.50 124.51,47.84 129.14,45.95 133.78,41.80 138.41,35.19 143.05,28.60 147.68,12.16 152.32,26.72 156.95,30.11 161.59,36.01 166.22,40.08 170.86,45.33 175.49,49.06 180.13,52.62 184.76,53.81 189.40,54.32 194.03,54.30 198.67,44.80 203.30,40.56 207.94,36.66 212.57,35.99 217.21,29.20 221.84,15.15 226.48,35.03 231.11,35.03 235.75,35.03 240.38,44.36 245.02,44.36 249.65,51.65 254.29,51.65 258.92,51.65 263.56,50.80 268.19,50.80 272.83,39.61 277.46,39.61 282.10,39.61 286.73,19.09 291.37,19.09 296.00,4.00" />
</svg>