<svg width="300" height="60" xmlns="http://www.w3.org/2000/svg">
  <polyline fill="rgba(255,200,0,0.3)" stroke="#ffbb00" stroke-width="2" points="4.00,50.94 6.45,49.90 8.91,48.35 11.36,47.67 13.82,48.23 16.27,48.69 18.72,49.33 21.18,44.18 23.63,35.70 26.08,25.43 28.54,20.07 30.99,15.76 33.45,12.73 35.90,10.41 38.35,7.61 40.81,5.66 43.26,4.56 45.71,5.92 48.17,8.17 50.62,12.05 53.08,16.28 55.53,20.95 57.98,26.94 60.44,31.43 62.89,35.75 65.34,38.62 67.80,39.55 70.25,39.57 72.71,38.75 75.16,38.98 77.61,49.02 80.07,49.14 82.52,47.60 84.97,47.81 87.43,46.63 89.88,46.40 92.34,48.95 94.79,42.04 97.24,35.71 99.70,26.22 102.15,19.95 104.61,14.89 107.06,11.66 109.51,10.33 111.97,7.67 114.42,5.38 116.87,4.80 119.33,5.52 121.78,8.69 124.24,12.74 126.69,16.62 129.14,20.79 131.60,26.88 134.05,32.16 136.50,35.46 138.96,38.79 141.41,39.22 143.87,39.33 146.32,38.27 148.77,37.94 151.23,47.81 153.68,49.71 156.13,44.66 158.59,50.18 161.04,50.89 163.50,46.16 165.95,48.63 168.40,44.70 170.86,33.13 173.31,28.51 175.76,19.45 178.22,13.75 180.67,12.93 183.13,9.16 185.58,9.16 188.03,5.68 190.49,4.00 192.94,5.86 195.39,8.62 197.85,13.78 200.30,16.43 202.76,19.79 205.21,26.74 207.66,33.33 210.12,35.59 212.57,39.42 215.03,39.31 217.48,38.74 219.93,39.89 222.39,40.14 224.84,50.95 227.29,50.95 229.75,40.82 232.20,40.82 234.66,56.00 237.11,56.00 239.56,41.86 242.02,41.86 244.47,41.86 246.92,29.35 249.38,16.46 251.83,16.46 254.29,10.59 256.74,10.59 259.19,10.59 261.65,9.08 264.10,6.40 266.55,6.40 269.01,6.40 271.46,20.22 273.92,20.22 276.37,20.22 278.82,20.22 281.28,38.87 283.73,38.87 286.18,38.87 288.64,39.81 291.09,39.81 293.55,39.81 296.00,34.33" />
</svg>