<svg width="300" height="60" xmlns="http://www.w3.org/2000/svg">
  <polyline fill="rgba(255,200,0,0.3)" stroke="#ffbb00" stroke-width="2" points="4.00,55.31 5.33,55.37 6.67,55.38 8.00,54.99 9.33,53.87 10.67,52.22 12.00,51.27 13.33,49.49 14.67,48.02 16.00,46.84 17.33,45.76 18.67,44.36 20.00,43.19 21.33,42.44 22.67,41.51 24.00,40.83 25.33,40.34 26.67,39.35 28.00,38.41 29.33,38.01 30.67,37.11 32.00,35.57 33.33,34.04 34.67,32.93 36.00,31.42 37.33,30.25 38.67,28.77 40.00,28.10 41.33,26.36 42.67,24.46 44.00,23.21 45.33,22.07 46.67,21.17 48.00,20.17 49.33,18.86 50.67,17.68 52.00,16.07 53.33,14.96 54.67,13.88 56.00,12.39 57.33,10.89 58.67,9.60 60.00,8.16 61.33,6.94 62.67,5.88 64.00,5.09 65.33,4.72 66.67,4.88 68.00,4.90 69.33,4.59 70.67,5.11 72.00,5.78 73.33,6.93 74.67,7.82 76.00,9.07 77.33,55.39 78.67,55.39 80.00,55.37 81.33,54.64 82.67,53.81 84.00,52.49 85.33,50.84 86.67,49.17 88.00,48.07 89.33,46.39 90.67,45.81 92.00,44.05 93.33,43.08 94.67,42.14 96.00,41.62 97.33,40.72 98.67,40.25 100.00,38.94 101.33,38.12 102.67,37.83 104.00,36.47 105.33,35.15 106.67,33.84 108.00,32.79 109.33,31.45 110.67,30.21 112.00,28.73 113.33,27.51 114.67,26.51 116.00,24.64 117.33,23.25 118.67,21.90 120.00,20.97 121.33,19.97 122.67,18.29 124.00,17.44 125.33,15.95 126.67,14.94 128.00,13.32 129.33,12.21 130.67,10.53 132.00,9.33 133.33,8.03 134.67,6.59 136.00,5.75 137.33,5.02 138.67,4.44 140.00,4.40 141.33,4.51 142.67,4.46 144.00,4.92 145.33,6.01 146.67,6.76 148.00,7.96 149.33,9.25 150.67,55.41 152.00,55.42 153.33,55.34 154.67,54.43 156.00,54.43 157.33,53.39 158.67,52.01 160.00,50.33 161.33,48.71 162.67,46.67 164.00,45.60 165.33,44.44 166.67,44.44 168.00,42.93 169.33,41.60 170.67,41.11 172.00,41.11 173.33,39.74 174.67,38.54 176.00,38.15 177.33,36.74 178.67,34.88 180.00,33.37 181.33,32.21 182.67,30.95 184.00,29.75 185.33,28.66 186.67,27.60 188.00,25.39 189.33,24.29 190.67,23.32 192.00,22.68 193.33,22.49 194.67,20.16 196.00,19.93 197.33,17.47 198.67,17.59 200.00,15.54 201.33,14.03 202.67,12.03 204.00,10.43 205.33,10.64 206.67,8.61 208.00,7.00 209.33,5.61 210.67,5.08 212.00,4.41 213.33,4.00 214.67,4.02 216.00,4.04 217.33,4.25 218.67,5.59 220.00,6.77 221.33,7.31 222.67,9.40 224.00,56.00 225.33,56.00 226.67,56.00 228.00,55.48 229.33,55.48 230.67,55.48 232.00,55.48 233.33,51.92 234.67,51.92 236.00,51.92 237.33,45.45 238.67,49.73 240.00,49.73 241.33,49.73 242.67,41.87 244.00,46.30 245.33,46.30 246.67,46.30 248.00,42.63 249.33,42.63 250.67,37.21 252.00,37.21 253.33,37.21 254.67,33.49 256.00,33.49 257.33,30.07 258.67,30.07 260.00,30.07 261.33,26.97 262.67,26.97 264.00,24.13 265.33,24.13 266.67,24.13 268.00,23.33 269.33,23.33 270.67,23.33 272.00,24.53 273.33,15.92 274.67,15.92 276.00,15.92 277.33,10.93 278.67,10.93 280.00,10.93 281.33,10.93 282.67,6.30 284.00,6.30 285.33,6.30 286.67,6.30 288.00,5.18 289.33,5.18 290.67,5.18 292.00,6.27 293.33,8.65 294.67,8.65 296.00,10.74" />
</svg>