<svg width="300" height="60" xmlns="http://www.w3.org/2000/svg">
  <polyline fill="rgba(255,200,0,0.3)" stroke="#ffbb00" stroke-width="2" points="4.00,52.94 8.11,53.48 12.23,53.26 16.34,52.13 20.45,49.66 24.56,47.05 28.68,49.18 32.79,53.14 36.90,54.90 41.01,53.81 45.13,52.53 49.24,49.31 53.35,47.72 57.46,46.21 61.58,43.44 65.69,43.21 69.80,44.82 73.92,46.86 78.03,52.88 82.14,53.38 86.25,54.90 90.37,51.33 94.48,48.81 98.59,50.51 102.70,49.75 106.82,56.00 110.93,54.71 115.04,54.89 119.15,52.75 123.27,50.38 127.38,47.47 131.49,47.18 135.61,43.61 139.72,44.09 143.83,45.16 147.94,46.42 152.06,52.90 156.17,48.08 160.28,50.04 164.39,37.18 168.51,42.36 172.62,46.20 176.73,48.87 180.85,49.68 184.96,49.50 189.07,50.39 193.18,49.77 197.30,49.23 201.41,36.37 205.52,39.26 209.63,39.61 213.75,39.61 217.86,41.04 221.97,44.79 226.08,45.71 230.20,45.71 234.31,45.71 238.42,4.00 242.54,4.00 246.65,6.68 250.76,6.68 254.87,6.68 258.99,9.63 263.10,9.63 267.21,10.52 271.32,10.52 275.44,10.52 279.55,19.00 283.66,19.00 287.77,19.00 291.89,29.81 296.00,29.81" />
</svg>