<svg width="300" height="60" xmlns="http://www.w3.org/2000/svg">
  <polyline fill="rgba(255,200,0,0.3)" stroke="#ffbb00" stroke-width="2" points="4.00,53.52 4.41,53.03 4.82,50.09 5.23,48.82 5.63,48.10 6.04,47.75 6.45,47.38 6.86,46.94 7.27,46.46 7.68,46.10 8.08,45.70 8.49,45.16 8.90,44.62 9.31,43.91 9.72,43.18 10.13,42.34 10.53,41.66 10.94,41.17 11.35,40.57 11.76,39.90 12.17,39.47 12.58,38.78 12.98,38.48 13.39,38.14 13.80,37.85 14.21,37.32 14.62,37.00 15.03,36.67 15.43,36.45 15.84,36.15 16.25,35.80 16.66,35.52 17.07,35.12 17.48,34.75 17.89,34.18 18.29,33.82 18.70,33.13 19.11,32.64 19.52,31.94 19.93,31.43 20.34,30.91 20.74,30.29 21.15,29.79 21.56,29.12 21.97,28.60 22.38,28.23 22.79,27.76 23.19,27.75 23.60,27.73 24.01,27.24 24.42,26.79 24.83,26.18 25.24,25.55 25.64,25.14 26.05,24.65 26.46,24.44 26.87,24.16 27.28,23.96 27.69,23.78 28.10,23.52 28.50,23.38 28.91,23.34 29.32,23.34 29.73,23.43 30.14,23.76 30.55,23.89 30.95,24.02 31.36,23.95 31.77,23.78 32.18,23.53 32.59,23.45 33.00,23.16 33.40,22.65 33.81,22.16 34.22,21.72 34.63,21.45 35.04,20.79 35.45,19.97 35.85,19.68 36.26,19.32 36.67,19.28 37.08,19.22 37.49,19.06 37.90,18.91 38.30,19.03 38.71,19.17 39.12,19.13 39.53,18.97 39.94,18.51 40.35,17.74 40.76,16.95 41.16,15.93 41.57,15.23 41.98,14.61 42.39,13.81 42.80,13.05 43.21,12.32 43.61,11.51 44.02,10.58 44.43,9.60 44.84,8.92 45.25,8.16 45.66,7.64 46.06,6.66 46.47,5.74 46.88,5.85 47.29,6.99 47.70,8.57 48.11,10.33 48.51,12.58 48.92,14.71 49.33,16.30 49.74,18.26 50.15,20.82 50.56,23.41 50.97,24.07 51.37,25.22 51.78,26.88 52.19,28.59 52.60,30.24 53.01,30.24 53.42,31.13 53.82,31.70 54.23,32.15 54.64,32.14 55.05,32.18 55.46,32.17 55.87,32.37 56.27,32.94 56.68,33.73 57.09,34.67 57.50,35.61 57.91,36.90 58.32,38.25 58.72,39.62 59.13,41.06 59.54,42.90 59.95,44.49 60.36,46.64 60.77,48.77 61.17,47.94 61.58,48.25 61.99,48.48 62.40,48.56 62.81,48.36 63.22,48.14 63.63,48.39 64.03,49.08 64.44,50.26 64.85,51.79 65.26,50.62 65.67,48.89 66.08,47.22 66.48,46.35 66.89,45.63 67.30,45.32 67.71,45.55 68.12,46.23 68.53,47.38 68.93,49.06 69.34,50.66 69.75,51.00 70.16,50.33 70.57,49.42 70.98,48.72 71.38,48.25 71.79,47.28 72.20,46.20 72.61,45.33 73.02,45.10 73.43,45.90 73.83,46.75 74.24,48.11 74.65,50.25 75.06,51.55 75.47,51.30 75.88,50.80 76.29,50.35 76.69,50.12 77.10,53.63 77.51,52.85 77.92,49.67 78.33,48.85 78.74,48.12 79.14,47.68 79.55,47.20 79.96,46.99 80.37,46.37 80.78,46.16 81.19,45.62 81.59,45.18 82.00,44.45 82.41,44.18 82.82,43.03 83.23,42.43 83.64,41.83 84.04,41.29 84.45,40.73 84.86,40.01 85.27,39.53 85.68,38.88 86.09,38.75 86.50,38.24 86.90,37.66 87.31,37.27 87.72,36.89 88.13,36.64 88.54,37.36 88.95,36.21 89.35,35.89 89.76,36.04 90.17,35.17 90.58,35.03 90.99,34.33 91.40,33.83 91.80,33.25 92.21,32.92 92.62,32.29 93.03,31.80 93.44,31.13 93.85,30.44 94.25,29.93 94.66,29.16 95.07,28.92 95.48,28.32 95.89,28.16 96.30,28.13 96.70,27.71 97.11,27.29 97.52,26.79 97.93,26.35 98.34,25.47 98.75,25.08 99.16,24.96 99.56,24.57 99.97,24.56 100.38,24.13 100.79,24.13 101.20,23.66 101.61,23.79 102.01,23.52 102.42,23.49 102.83,23.69 103.24,23.76 103.65,23.91 104.06,24.22 104.46,24.07 104.87,23.72 105.28,23.65 105.69,23.43 106.10,23.28 106.51,22.57 106.91,22.24 107.32,21.75 107.73,21.46 108.14,20.83 108.55,20.09 108.96,19.51 109.37,18.99 109.77,19.07 110.18,19.11 110.59,18.82 111.00,18.87 111.41,18.97 111.82,18.98 112.22,19.04 112.63,18.90 113.04,18.48 113.45,17.77 113.86,16.80 114.27,15.91 114.67,15.08 115.08,14.58 115.49,13.86 115.90,13.04 116.31,12.43 116.72,11.53 117.12,10.51 117.53,9.73 117.94,9.10 118.35,8.19 118.76,7.42 119.17,6.47 119.57,5.85 119.98,6.33 120.39,7.51 120.80,8.93 121.21,11.11 121.62,13.25 122.03,15.17 122.43,17.03 122.84,18.98 123.25,20.75 123.66,23.39 124.07,24.04 124.48,25.05 124.88,26.89 125.29,28.81 125.70,30.19 126.11,30.29 126.52,31.42 126.93,31.74 127.33,32.09 127.74,32.26 128.15,32.21 128.56,32.17 128.97,32.54 129.38,32.98 129.78,33.86 130.19,34.66 130.60,35.82 131.01,36.82 131.42,38.31 131.83,39.52 132.23,41.28 132.64,43.08 133.05,44.52 133.46,46.47 133.87,48.50 134.28,48.27 134.69,48.35 135.09,48.55 135.50,48.67 135.91,48.41 136.32,48.26 136.73,48.41 137.14,49.11 137.54,50.14 137.95,51.80 138.36,51.12 138.77,48.94 139.18,47.27 139.59,46.54 139.99,45.75 140.40,45.42 140.81,45.52 141.22,46.42 141.63,47.48 142.04,48.87 142.44,50.77 142.85,51.15 143.26,50.48 143.67,49.79 144.08,48.79 144.49,48.20 144.90,47.43 145.30,45.94 145.71,45.40 146.12,45.10 146.53,45.71 146.94,46.90 147.35,47.97 147.75,50.10 148.16,51.83 148.57,51.09 148.98,51.27 149.39,50.51 149.80,50.60 150.20,53.59 150.61,52.66 151.02,50.21 151.43,48.88 151.84,48.02 152.25,47.65 152.65,46.35 153.06,46.25 153.47,45.17 153.88,45.64 154.29,45.08 154.70,44.61 155.10,44.35 155.51,44.32 155.92,42.36 156.33,42.47 156.74,41.59 157.15,40.63 157.56,41.24 157.96,40.11 158.37,38.70 158.78,38.08 159.19,38.95 159.60,37.27 160.01,37.69 160.41,35.91 160.82,36.17 161.23,36.60 161.64,37.15 162.05,36.29 162.46,35.88 162.86,35.55 163.27,34.40 163.68,35.44 164.09,34.37 164.50,33.41 164.91,33.58 165.31,32.57 165.72,31.57 166.13,31.89 166.54,30.75 166.95,29.44 167.36,29.26 167.77,27.55 168.17,28.91 168.58,27.49 168.99,28.08 169.40,26.79 169.81,27.66 170.22,26.66 170.62,25.95 171.03,25.95 171.44,25.28 171.85,24.41 172.26,25.10 172.67,23.98 173.07,24.62 173.48,23.49 173.89,24.18 174.30,23.09 174.71,23.80 175.12,23.19 175.52,23.39 175.93,22.91 176.34,24.15 176.75,23.53 177.16,23.79 177.57,23.92 177.97,23.84 178.38,23.54 178.79,23.48 179.20,23.01 179.61,22.71 180.02,22.10 180.43,21.84 180.83,21.24 181.24,20.83 181.65,20.07 182.06,19.41 182.47,19.41 182.88,18.85 183.28,19.11 183.69,18.79 184.10,19.08 184.51,19.55 184.92,19.43 185.33,19.21 185.73,19.21 186.14,18.62 186.55,17.49 186.96,16.30 187.37,16.30 187.78,15.18 188.18,14.28 188.59,14.44 189.00,13.34 189.41,12.35 189.82,11.16 190.23,10.00 190.63,10.00 191.04,8.87 191.45,7.82 191.86,7.28 192.27,6.02 192.68,5.49 193.09,5.44 193.49,7.45 193.90,8.34 194.31,9.46 194.72,12.61 195.13,13.96 195.54,16.38 195.94,19.45 196.35,21.19 196.76,22.38 197.17,22.63 197.58,25.07 197.99,25.86 198.39,26.84 198.80,30.05 199.21,29.93 199.62,31.43 200.03,31.49 200.44,32.07 200.84,32.07 201.25,32.35 201.66,32.25 202.07,32.82 202.48,32.82 202.89,33.82 203.30,35.06 203.70,35.82 204.11,37.36 204.52,39.20 204.93,39.20 205.34,41.24 205.75,43.51 206.15,46.03 206.56,46.87 206.97,48.00 207.38,47.30 207.79,48.25 208.20,48.10 208.60,47.99 209.01,48.60 209.42,48.39 209.83,48.76 210.24,49.03 210.65,50.54 211.05,50.93 211.46,51.16 211.87,48.91 212.28,47.33 212.69,46.24 213.10,45.56 213.50,45.28 213.91,45.27 214.32,46.52 214.73,48.49 215.14,48.49 215.55,50.54 215.96,50.76 216.36,49.69 216.77,49.69 217.18,48.65 217.59,47.73 218.00,46.88 218.41,45.74 218.81,45.21 219.22,45.19 219.63,46.03 220.04,47.44 220.45,49.27 220.86,51.18 221.26,51.66 221.67,51.66 222.08,50.44 222.49,51.06 222.90,51.00 223.31,56.00 223.71,52.03 224.12,52.03 224.53,52.03 224.94,48.34 225.35,48.34 225.76,48.34 226.17,44.97 226.57,44.97 226.98,47.57 227.39,45.41 227.80,45.41 228.21,45.41 228.62,44.58 229.02,40.27 229.43,40.27 229.84,41.12 230.25,41.12 230.66,38.51 231.07,38.51 231.47,38.51 231.88,37.94 232.29,36.33 232.70,36.33 233.11,36.33 233.52,36.35 233.92,36.35 234.33,36.35 234.74,37.53 235.15,33.02 235.56,33.02 235.97,35.67 236.37,32.18 236.78,32.18 237.19,32.18 237.60,32.18 238.01,29.44 238.42,29.44 238.83,29.44 239.23,29.38 239.64,29.38 240.05,29.38 240.46,24.78 240.87,24.78 241.28,24.78 241.68,27.48 242.09,27.48 242.50,21.86 242.91,23.96 243.32,23.96 243.73,23.96 244.13,23.96 244.54,22.27 244.95,22.27 245.36,22.27 245.77,24.33 246.18,24.33 246.58,21.97 246.99,22.24 247.40,22.24 247.81,22.24 248.22,23.83 248.63,23.39 249.03,23.39 249.44,23.39 249.85,23.39 250.26,25.18 250.67,25.18 251.08,25.18 251.49,24.35 251.89,24.35 252.30,26.62 252.71,23.90 253.12,23.90 253.53,23.90 253.94,21.90 254.34,21.90 254.75,23.35 255.16,19.97 255.57,19.97 255.98,19.97 256.39,21.60 256.79,21.60 257.20,21.60 257.61,26.35 258.02,21.06 258.43,21.06 258.84,21.06 259.24,23.97 259.65,18.12 260.06,18.12 260.47,18.12 260.88,20.12 261.29,14.99 261.70,14.99 262.10,14.99 262.51,16.59 262.92,11.36 263.33,11.36 263.74,11.36 264.15,11.26 264.55,7.58 264.96,7.58 265.37,6.55 265.78,6.55 266.19,4.00 266.60,7.08 267.00,7.08 267.41,9.60 267.82,9.60 268.23,9.60 268.64,13.60 269.05,13.60 269.45,17.38 269.86,17.38 270.27,17.38 270.68,25.50 271.09,25.50 271.50,25.50 271.90,27.94 272.31,27.94 272.72,30.24 273.13,30.24 273.54,32.79 273.95,32.59 274.36,32.59 274.76,32.75 275.17,33.88 275.58,33.88 275.99,33.88 276.40,37.56 276.81,38.22 277.21,38.22 277.62,38.22 278.03,38.22 278.44,44.13 278.85,44.13 279.26,44.13 279.66,46.55 280.07,45.29 280.48,45.29 280.89,45.29 281.30,48.01 281.71,46.88 282.11,46.88 282.52,48.97 282.93,48.97 283.34,48.97 283.75,49.15 284.16,49.23 284.57,49.23 284.97,49.23 285.38,45.63 285.79,45.63 286.20,45.63 286.61,44.03 287.02,44.03 287.42,46.77 287.83,48.06 288.24,48.06 288.65,48.06 289.06,50.31 289.47,46.96 289.87,46.96 290.28,46.96 290.69,47.16 291.10,44.83 291.51,44.83 291.92,44.83 292.32,44.83 292.73,47.93 293.14,47.93 293.55,47.93 293.96,50.34 294.37,50.34 294.77,50.34 295.18,50.34 295.59,52.79 296.00,48.16" />
</svg>