<svg width="300" height="60" xmlns="http://www.w3.org/2000/svg">
  <polyline fill="rgba(255,200,0,0.3)" stroke="#ffbb00" stroke-width="2" points="4.00,33.80 6.54,34.88 9.08,38.00 11.62,41.38 14.16,41.93 16.70,43.57 19.23,50.78 21.77,53.27 24.31,56.00 26.85,54.81 29.39,50.70 31.93,50.79 34.47,49.88 37.01,44.22 39.55,41.27 42.09,37.66 44.63,36.17 47.17,34.16 49.70,34.12 52.24,35.07 54.78,35.96 57.32,30.80 59.86,33.83 62.40,35.35 64.94,34.42 67.48,30.94 70.02,28.44 72.56,22.90 75.10,5.68 77.63,35.28 80.17,34.51 82.71,37.45 85.25,39.75 87.79,42.88 90.33,46.07 92.87,49.20 95.41,50.95 97.95,52.87 100.49,53.05 103.03,51.99 105.57,52.99 108.10,49.28 110.64,44.71 113.18,42.53 115.72,37.69 118.26,35.94 120.80,33.88 123.34,33.82 125.88,34.57 128.42,33.13 130.96,30.98 133.50,34.92 136.03,34.60 138.57,31.97 141.11,29.84 143.65,27.36 146.19,20.79 148.73,6.09 151.27,28.46 153.81,35.53 156.35,35.51 158.89,42.55 161.43,40.93 163.97,48.18 166.50,48.06 169.04,47.99 171.58,54.00 174.12,53.87 176.66,50.53 179.20,51.22 181.74,47.21 184.28,43.65 186.82,43.65 189.36,42.15 191.90,37.33 194.43,32.05 196.97,36.30 199.51,33.18 202.05,30.30 204.59,26.80 207.13,35.24 209.67,34.62 212.21,33.68 214.75,31.97 217.29,28.28 219.83,15.65 222.37,10.64 224.90,9.57 227.44,35.03 229.98,35.03 232.52,35.03 235.06,34.53 237.60,34.53 240.14,34.53 242.68,32.52 245.22,45.04 247.76,45.04 250.30,47.23 252.83,47.23 255.37,47.23 257.91,41.28 260.45,41.28 262.99,41.28 265.53,41.28 268.07,21.45 270.61,21.45 273.15,21.45 275.69,4.00 278.23,4.00 280.77,34.71 283.30,28.33 285.84,28.33 288.38,28.33 290.92,23.33 293.46,23.33 296.00,23.33" />
</svg>