<svg width="300" height="60" xmlns="http://www.w3.org/2000/svg">
  <polyline fill="rgba(255,200,0,0.3)" stroke="#ffbb00" stroke-width="2" points="4.00,40.71 4.34,39.28 4.69,38.33 5.03,37.77 5.38,36.93 5.72,36.43 6.07,36.03 6.41,35.87 6.76,35.50 7.10,35.16 7.45,34.79 7.79,34.31 8.14,33.64 8.48,33.09 8.83,32.25 9.17,31.47 9.52,31.86 9.86,31.74 10.21,31.45 10.55,30.51 10.89,29.68 11.24,29.03 11.58,28.68 11.93,29.23 12.27,28.72 12.62,28.13 12.96,27.49 13.31,25.92 13.65,24.84 14.00,24.24 14.34,23.25 14.69,22.61 15.03,21.73 15.38,20.85 15.72,20.08 16.07,19.73 16.41,19.03 16.76,18.38 17.10,17.20 17.45,16.28 17.79,15.33 18.13,14.63 18.48,13.84 18.82,13.17 19.17,11.80 19.51,10.60 19.86,8.37 20.20,6.49 20.55,5.83 20.89,5.88 21.24,6.43 21.58,6.93 21.93,8.42 22.27,10.10 22.62,11.71 22.96,13.06 23.31,13.71 23.65,13.71 24.00,14.38 24.34,15.46 24.68,14.84 25.03,16.02 25.37,17.92 25.72,18.91 26.06,19.40 26.41,21.10 26.75,20.44 27.10,19.04 27.44,18.64 27.79,18.42 28.13,19.29 28.48,20.56 28.82,22.74 29.17,20.78 29.51,20.76 29.86,22.72 30.20,25.29 30.55,26.93 30.89,26.16 31.23,26.95 31.58,28.68 31.92,28.46 32.27,27.04 32.61,26.49 32.96,26.59 33.30,25.24 33.65,25.15 33.99,24.57 34.34,23.64 34.68,22.15 35.03,23.11 35.37,25.53 35.72,27.19 36.06,28.72 36.41,30.16 36.75,31.64 37.10,32.48 37.44,33.60 37.79,34.93 38.13,36.16 38.47,37.61 38.82,38.40 39.16,38.67 39.51,38.30 39.85,37.00 40.20,34.14 40.54,30.48 40.89,30.81 41.23,29.81 41.58,29.82 41.92,31.50 42.27,34.49 42.61,38.18 42.96,37.57 43.30,34.59 43.65,33.59 43.99,32.24 44.34,33.28 44.68,36.61 45.02,39.85 45.37,41.29 45.71,42.91 46.06,46.27 46.40,46.04 46.75,45.26 47.09,45.31 47.44,43.77 47.78,40.97 48.13,41.07 48.47,42.39 48.82,41.83 49.16,43.77 49.51,46.29 49.85,46.29 50.20,45.96 50.54,47.23 50.89,46.57 51.23,45.73 51.57,44.47 51.92,45.04 52.26,44.86 52.61,43.57 52.95,43.88 53.30,44.13 53.64,44.43 53.99,47.08 54.33,48.54 54.68,48.60 55.02,49.26 55.37,50.53 55.71,47.28 56.06,47.10 56.40,47.71 56.75,48.41 57.09,48.96 57.44,50.30 57.78,51.77 58.13,52.28 58.47,51.22 58.81,50.85 59.16,51.50 59.50,50.58 59.85,49.21 60.19,49.21 60.54,48.80 60.88,48.97 61.23,50.01 61.57,50.16 61.92,51.84 62.26,53.00 62.61,53.63 62.95,54.33 63.30,54.47 63.64,54.41 63.99,53.90 64.33,53.56 64.68,53.52 65.02,53.99 65.36,54.51 65.71,54.54 66.05,54.85 66.40,55.11 66.74,55.30 67.09,55.34 67.43,55.21 67.78,54.97 68.12,54.77 68.47,54.34 68.81,55.60 69.16,55.54 69.50,54.11 69.85,52.75 70.19,52.55 70.54,51.62 70.88,50.58 71.23,48.46 71.57,46.47 71.91,45.99 72.26,45.96 72.60,46.71 72.95,46.38 73.29,45.85 73.64,45.54 73.98,45.60 74.33,45.30 74.67,44.46 75.02,44.16 75.36,43.83 75.71,43.96 76.05,43.89 76.40,43.58 76.74,44.05 77.09,40.63 77.43,39.25 77.78,38.22 78.12,37.64 78.47,36.82 78.81,36.22 79.15,36.00 79.50,35.84 79.84,35.49 80.19,35.06 80.53,34.70 80.88,34.15 81.22,33.60 81.57,32.99 81.91,32.27 82.26,31.06 82.60,31.67 82.95,31.57 83.29,31.35 83.64,30.35 83.98,29.67 84.33,28.84 84.67,28.66 85.02,29.23 85.36,28.63 85.70,27.80 86.05,26.99 86.39,25.68 86.74,24.60 87.08,24.14 87.43,23.13 87.77,22.20 88.12,21.67 88.46,20.58 88.81,19.99 89.15,19.52 89.50,18.94 89.84,17.79 90.19,16.66 90.53,16.53 90.88,15.20 91.22,14.16 91.57,14.14 91.91,13.08 92.26,11.59 92.60,10.29 92.94,8.53 93.29,6.33 93.63,5.51 93.98,5.46 94.32,6.22 94.67,6.01 95.01,8.26 95.36,10.59 95.70,11.62 96.05,13.53 96.39,13.85 96.74,13.37 97.08,13.96 97.43,15.22 97.77,14.63 98.12,15.70 98.46,18.75 98.81,18.90 99.15,19.02 99.49,20.79 99.84,20.08 100.18,19.14 100.53,18.58 100.87,17.37 101.22,19.06 101.56,20.87 101.91,22.66 102.25,20.82 102.60,20.52 102.94,22.86 103.29,26.09 103.63,26.40 103.98,25.78 104.32,26.98 104.67,28.64 105.01,28.14 105.36,26.70 105.70,26.15 106.04,26.53 106.39,24.97 106.73,25.02 107.08,23.43 107.42,23.35 107.77,21.90 108.11,24.09 108.46,25.26 108.80,27.76 109.15,28.39 109.49,30.19 109.84,31.60 110.18,32.36 110.53,33.63 110.87,34.69 111.22,36.33 111.56,37.87 111.91,38.35 112.25,38.76 112.60,38.35 112.94,36.89 113.28,33.83 113.63,30.36 113.97,30.35 114.32,29.65 114.66,30.83 115.01,32.02 115.35,34.53 115.70,38.59 116.04,37.61 116.39,34.94 116.73,34.15 117.08,32.68 117.42,34.54 117.77,35.97 118.11,40.13 118.46,41.51 118.80,43.27 119.15,46.58 119.49,45.98 119.83,45.26 120.18,45.28 120.52,43.99 120.87,40.79 121.21,40.63 121.56,41.92 121.90,42.27 122.25,44.16 122.59,46.25 122.94,46.64 123.28,46.17 123.63,47.33 123.97,46.39 124.32,45.89 124.66,45.29 125.01,45.70 125.35,44.80 125.70,43.51 126.04,43.90 126.38,44.23 126.73,44.34 127.07,47.18 127.42,48.59 127.76,48.54 128.11,49.06 128.45,49.47 128.80,46.77 129.14,46.94 129.49,47.18 129.83,47.68 130.18,49.19 130.52,49.82 130.87,51.08 131.21,52.16 131.56,50.66 131.90,51.11 132.25,51.99 132.59,50.77 132.94,49.51 133.28,48.64 133.62,48.43 133.97,49.32 134.31,49.87 134.66,50.43 135.00,51.85 135.35,53.37 135.69,53.84 136.04,54.12 136.38,54.74 136.73,54.51 137.07,54.16 137.42,53.39 137.76,53.30 138.11,54.41 138.45,54.74 138.80,54.52 139.14,54.78 139.49,55.22 139.83,55.34 140.17,55.43 140.52,55.20 140.86,54.95 141.21,54.63 141.55,54.41 141.90,55.60 142.24,55.30 142.59,53.99 142.93,52.68 143.28,52.48 143.62,51.57 143.97,50.18 144.31,48.28 144.66,46.20 145.00,46.29 145.35,45.95 145.69,46.81 146.04,45.78 146.38,46.00 146.72,45.57 147.07,45.32 147.41,45.15 147.76,44.12 148.10,44.40 148.45,43.82 148.79,44.39 149.14,43.89 149.48,43.58 149.83,44.13 150.17,40.04 150.52,39.37 150.86,38.20 151.21,38.20 151.55,37.14 151.90,36.39 152.24,36.32 152.59,35.99 152.93,35.51 153.28,35.10 153.62,34.65 153.96,34.09 154.31,33.41 154.65,32.63 155.00,32.63 155.34,31.85 155.69,32.08 156.03,30.54 156.38,30.86 156.72,29.40 157.07,28.30 157.41,27.57 157.76,27.69 158.10,28.16 158.45,28.28 158.79,27.91 159.14,26.14 159.48,25.64 159.83,25.06 160.17,24.56 160.51,22.14 160.86,21.63 161.20,22.12 161.55,20.93 161.89,19.70 162.24,18.42 162.58,19.22 162.93,17.88 163.27,16.20 163.62,16.14 163.96,14.45 164.31,12.87 164.65,14.31 165.00,12.72 165.34,11.88 165.69,9.93 166.03,8.67 166.38,6.43 166.72,5.62 167.06,5.62 167.41,6.52 167.75,6.69 168.10,8.20 168.44,10.30 168.79,12.36 169.13,14.41 169.48,12.18 169.82,13.27 170.17,15.57 170.51,14.51 170.86,16.21 171.20,14.67 171.55,16.43 171.89,19.89 172.24,19.83 172.58,20.87 172.93,18.57 173.27,20.46 173.62,18.85 173.96,16.15 174.30,18.50 174.65,20.59 174.99,20.14 175.34,21.60 175.68,21.40 176.03,22.70 176.37,24.29 176.72,23.87 177.06,24.48 177.41,27.40 177.75,27.90 178.10,26.61 178.44,27.82 178.79,25.08 179.13,25.42 179.48,24.62 179.82,25.95 180.17,24.75 180.51,24.12 180.85,21.70 181.20,22.48 181.54,24.43 181.89,26.82 182.23,27.15 182.58,29.19 182.92,31.33 183.27,31.80 183.61,31.88 183.96,35.01 184.30,35.23 184.65,38.03 184.99,37.83 185.34,36.85 185.68,38.33 186.03,36.67 186.37,32.39 186.72,30.70 187.06,30.52 187.40,30.27 187.75,30.60 188.09,31.50 188.44,36.19 188.78,39.07 189.13,37.22 189.47,35.04 189.82,33.30 190.16,34.55 190.51,34.20 190.85,34.63 191.20,39.04 191.54,41.52 191.89,43.69 192.23,44.47 192.58,44.47 192.92,42.84 193.27,45.53 193.61,45.35 193.96,40.37 194.30,41.63 194.64,43.44 194.99,41.72 195.33,43.49 195.68,46.18 196.02,45.02 196.37,47.24 196.71,47.75 197.06,45.28 197.40,46.25 197.75,44.16 198.09,45.09 198.44,43.45 198.78,44.85 199.13,43.97 199.47,43.16 199.82,45.78 200.16,46.43 200.51,48.33 200.85,48.08 201.19,49.11 201.54,47.79 201.88,47.09 202.23,46.99 202.57,47.26 202.92,48.32 203.26,49.56 203.61,51.53 203.95,51.66 204.30,49.96 204.64,49.44 204.99,50.49 205.33,52.10 205.68,49.17 206.02,50.53 206.37,50.03 206.71,48.29 207.06,49.05 207.40,49.15 207.74,52.39 208.09,52.19 208.43,52.02 208.78,54.42 209.12,53.74 209.47,54.51 209.81,53.35 210.16,54.36 210.50,54.01 210.85,52.96 211.19,53.40 211.54,54.80 211.88,55.04 212.23,54.48 212.57,54.81 212.92,55.26 213.26,55.21 213.61,55.25 213.95,54.87 214.30,54.84 214.64,54.51 214.98,55.10 215.33,55.07 215.67,54.29 216.02,52.82 216.36,51.92 216.71,50.58 217.05,50.63 217.40,48.03 217.74,45.99 218.09,47.30 218.43,45.84 218.78,46.04 219.12,45.58 219.47,47.15 219.81,44.91 220.16,44.38 220.50,45.64 220.85,44.11 221.19,44.89 221.53,43.78 221.88,44.35 222.22,43.35 222.57,43.72 222.91,43.83 223.26,39.75 223.60,38.14 223.95,38.14 224.29,38.14 224.64,37.02 224.98,35.69 225.33,35.69 225.67,35.77 226.02,35.77 226.36,34.47 226.71,34.47 227.05,34.47 227.40,31.42 227.74,31.37 228.09,31.37 228.43,31.37 228.77,26.10 229.12,26.10 229.46,30.63 229.81,27.79 230.15,27.79 230.50,27.79 230.84,27.11 231.19,27.11 231.53,27.11 231.88,24.87 232.22,19.89 232.57,19.89 232.91,19.89 233.26,18.83 233.60,18.83 233.95,18.83 234.29,15.07 234.64,15.07 234.98,15.07 235.32,10.68 235.67,17.15 236.01,17.15 236.36,12.42 236.70,12.42 237.05,12.42 237.39,7.67 237.74,7.67 238.08,7.67 238.43,11.06 238.77,5.76 239.12,5.76 239.46,5.59 239.81,5.59 240.15,5.59 240.50,4.00 240.84,4.00 241.19,4.00 241.53,7.68 241.87,7.68 242.22,7.68 242.56,12.80 242.91,12.80 243.25,12.80 243.60,20.34 243.94,20.34 244.29,13.78 244.63,13.78 244.98,19.01 245.32,19.01 245.67,19.01 246.01,12.05 246.36,12.05 246.70,12.05 247.05,12.05 247.39,19.55 247.74,16.10 248.08,16.10 248.43,16.10 248.77,16.67 249.11,16.67 249.46,16.67 249.80,15.79 250.15,22.66 250.49,22.66 250.84,22.66 251.18,23.37 251.53,23.37 251.87,23.37 252.22,23.37 252.56,26.47 252.91,26.47 253.25,26.47 253.60,26.47 253.94,29.72 254.29,29.72 254.63,29.72 254.98,28.49 255.32,28.49 255.66,28.49 256.01,28.49 256.35,28.54 256.70,28.54 257.04,28.54 257.39,27.83 257.73,36.69 258.08,36.69 258.42,34.31 258.77,34.31 259.11,34.31 259.46,36.48 259.80,37.59 260.15,37.59 260.49,37.59 260.84,37.59 261.18,37.59 261.53,37.59 261.87,37.59 262.21,32.30 262.56,39.09 262.90,39.09 263.25,38.23 263.59,38.23 263.94,38.23 264.28,37.01 264.63,34.54 264.97,41.03 265.32,41.03 265.66,41.03 266.01,36.06 266.35,42.19 266.70,42.19 267.04,42.19 267.39,46.65 267.73,42.19 268.08,42.19 268.42,42.19 268.77,42.59 269.11,42.59 269.45,42.59 269.80,44.88 270.14,44.88 270.49,44.88 270.83,44.88 271.18,48.42 271.52,48.42 271.87,48.42 272.21,46.37 272.56,46.37 272.90,46.37 273.25,44.61 273.59,47.60 273.94,47.60 274.28,47.60 274.63,39.44 274.97,39.44 275.32,41.33 275.66,41.33 276.00,44.28 276.35,44.28 276.69,44.28 277.04,50.98 277.38,50.98 277.73,52.24 278.07,52.24 278.42,52.24 278.76,45.21 279.11,50.20 279.45,50.20 279.80,50.20 280.14,48.87 280.49,48.87 280.83,56.00 281.18,55.65 281.52,55.65 281.87,53.58 282.21,53.58 282.55,53.58 282.90,49.98 283.24,54.14 283.59,54.14 283.93,54.14 284.28,51.72 284.62,54.87 284.97,54.87 285.31,54.87 285.66,52.14 286.00,54.64 286.35,54.64 286.69,54.64 287.04,55.04 287.38,55.04 287.73,53.93 288.07,53.93 288.42,52.86 288.76,52.86 289.11,52.86 289.45,47.47 289.79,48.22 290.14,48.22 290.48,48.22 290.83,45.45 291.17,45.45 291.52,45.45 291.86,45.45 292.21,43.84 292.55,43.84 292.90,43.84 293.24,43.84 293.59,46.49 293.93,40.59 294.28,40.59 294.62,43.16 294.97,43.16 295.31,43.16 295.66,46.84 296.00,40.58" />
</svg>