<svg width="300" height="60" xmlns="http://www.w3.org/2000/svg">
  <polyline fill="rgba(255,200,0,0.3)" stroke="#ffbb00" stroke-width="2" points="4.00,51.40 4.92,49.83 5.83,47.70 6.75,47.61 7.66,47.32 8.58,47.04 9.49,46.79 10.41,46.78 11.32,45.97 12.24,45.09 13.15,44.38 14.07,44.22 14.98,43.34 15.90,41.28 16.82,40.24 17.73,38.94 18.65,39.25 19.56,40.21 20.48,40.23 21.39,38.87 22.31,34.78 23.22,32.49 24.14,33.31 25.05,35.17 25.97,34.07 26.88,33.25 27.80,31.98 28.71,32.37 29.63,33.87 30.55,34.27 31.46,34.35 32.38,33.80 33.29,33.12 34.21,32.18 35.12,30.69 36.04,29.55 36.95,28.68 37.87,27.25 38.78,26.72 39.70,26.03 40.61,25.29 41.53,24.17 42.45,23.15 43.36,22.34 44.28,21.40 45.19,19.51 46.11,18.03 47.02,17.91 47.94,17.78 48.85,18.44 49.77,19.46 50.68,19.89 51.60,19.11 52.51,18.38 53.43,17.05 54.34,16.14 55.26,14.64 56.18,13.36 57.09,13.16 58.01,13.84 58.92,14.00 59.84,14.02 60.75,13.37 61.67,13.91 62.58,13.78 63.50,13.75 64.41,13.52 65.33,13.11 66.24,12.84 67.16,12.32 68.08,12.22 68.99,12.67 69.91,11.52 70.82,9.85 71.74,8.66 72.65,7.88 73.57,7.58 74.48,8.46 75.40,9.41 76.31,7.92 77.23,56.00 78.14,52.11 79.06,47.68 79.97,47.85 80.89,47.50 81.81,47.05 82.72,46.79 83.64,46.82 84.55,45.90 85.47,44.81 86.38,44.62 87.30,44.27 88.21,43.24 89.13,41.35 90.04,40.72 90.96,39.14 91.87,39.01 92.79,39.97 93.71,40.45 94.62,39.33 95.54,36.22 96.45,34.88 97.37,31.85 98.28,35.15 99.20,34.89 100.11,34.71 101.03,31.95 101.94,32.35 102.86,34.40 103.77,34.23 104.69,34.16 105.61,33.90 106.52,33.15 107.44,32.05 108.35,30.83 109.27,30.31 110.18,28.46 111.10,28.14 112.01,27.26 112.93,26.45 113.84,25.39 114.76,24.38 115.67,23.27 116.59,22.48 117.50,21.13 118.42,19.51 119.34,18.28 120.25,17.53 121.17,17.93 122.08,18.46 123.00,19.45 123.91,19.85 124.83,18.31 125.74,17.74 126.66,17.47 127.57,16.12 128.49,14.85 129.40,14.10 130.32,13.71 131.24,13.84 132.15,13.70 133.07,14.18 133.98,13.74 134.90,13.96 135.81,13.80 136.73,13.71 137.64,13.58 138.56,13.22 139.47,12.83 140.39,12.22 141.30,13.14 142.22,12.65 143.13,11.34 144.05,9.77 144.97,8.19 145.88,7.49 146.80,7.61 147.71,8.99 148.63,8.25 149.54,8.25 150.46,54.68 151.37,52.94 152.29,47.80 153.20,47.67 154.12,47.37 155.03,47.06 155.95,46.88 156.87,46.67 157.78,46.85 158.70,45.22 159.61,44.70 160.53,44.08 161.44,43.21 162.36,41.10 163.27,40.35 164.19,39.96 165.10,40.00 166.02,40.35 166.93,40.26 167.85,39.21 168.76,38.03 169.68,37.18 170.60,27.67 171.51,30.34 172.43,32.32 173.34,32.62 174.26,32.80 175.17,33.81 176.09,34.63 177.00,34.85 177.92,34.76 178.83,34.28 179.75,33.40 180.66,32.30 181.58,30.55 182.50,29.12 183.41,28.16 184.33,27.63 185.24,26.84 186.16,26.05 187.07,25.26 187.99,24.34 188.90,22.73 189.82,21.99 190.73,20.85 191.65,19.80 192.56,18.96 193.48,18.39 194.39,18.70 195.31,18.16 196.23,19.25 197.14,19.52 198.06,18.25 198.97,17.81 199.89,17.15 200.80,15.82 201.72,15.08 202.63,14.07 203.55,14.33 204.46,14.38 205.38,14.42 206.29,14.60 207.21,13.90 208.13,14.07 209.04,13.77 209.96,13.20 210.87,13.58 211.79,12.44 212.70,13.14 213.62,12.17 214.53,12.26 215.45,12.04 216.36,10.51 217.28,9.41 218.19,8.36 219.11,7.83 220.03,8.05 220.94,7.86 221.86,7.51 222.77,7.42 223.69,52.57 224.60,51.12 225.52,51.12 226.43,48.97 227.35,48.97 228.26,48.97 229.18,47.04 230.09,47.04 231.01,45.95 231.92,45.95 232.84,45.95 233.76,44.78 234.67,44.78 235.59,43.42 236.50,43.42 237.42,43.42 238.33,42.63 239.25,42.63 240.16,42.63 241.08,41.35 241.99,41.35 242.91,40.39 243.82,27.54 244.74,27.54 245.66,30.39 246.57,30.39 247.49,33.24 248.40,33.24 249.32,33.24 250.23,34.51 251.15,34.51 252.06,32.97 252.98,32.97 253.89,32.97 254.81,29.60 255.72,29.60 256.64,26.97 257.55,26.97 258.47,26.97 259.39,24.64 260.30,24.64 261.22,24.64 262.13,22.01 263.05,22.01 263.96,18.98 264.88,18.98 265.79,21.22 266.71,19.12 267.62,19.12 268.54,19.12 269.45,19.12 270.37,16.92 271.29,16.92 272.20,16.92 273.12,16.92 274.03,14.36 274.95,14.36 275.86,14.36 276.78,16.03 277.69,14.06 278.61,14.06 279.52,14.06 280.44,14.06 281.35,13.27 282.27,13.27 283.18,13.27 284.10,13.27 285.02,10.68 285.93,10.68 286.85,10.68 287.76,10.18 288.68,10.18 289.59,10.18 290.51,8.34 291.42,8.34 292.34,8.34 293.25,9.00 294.17,4.44 295.08,4.44 296.00,4.00" />
</svg>