<svg width="300" height="60" xmlns="http://www.w3.org/2000/svg">
  <polyline fill="rgba(255,200,0,0.3)" stroke="#ffbb00" stroke-width="2" points="4.00,13.89 4.42,13.29 4.84,12.79 5.26,12.32 5.68,11.92 6.10,11.70 6.52,11.61 6.94,11.57 7.36,11.47 7.78,11.33 8.20,11.05 8.62,10.57 9.04,9.99 9.46,9.49 9.88,9.02 10.30,8.57 10.72,8.10 11.14,7.63 11.56,7.27 11.98,7.06 12.40,6.87 12.82,6.64 13.24,6.29 13.66,6.04 14.08,5.93 14.50,6.05 14.92,6.42 15.34,7.17 15.76,7.46 16.18,7.57 16.60,7.28 17.02,7.16 17.44,6.93 17.86,6.70 18.28,6.49 18.71,6.16 19.13,5.54 19.55,5.17 19.97,4.91 20.39,4.68 20.81,4.62 21.23,4.64 21.65,4.73 22.07,4.87 22.49,5.09 22.91,5.30 23.33,5.51 23.75,5.65 24.17,5.81 24.59,6.12 25.01,6.63 25.43,7.20 25.85,7.79 26.27,8.42 26.69,9.02 27.11,9.61 27.53,10.29 27.95,11.00 28.37,11.76 28.79,12.44 29.21,13.20 29.63,13.97 30.05,14.65 30.47,15.36 30.89,16.02 31.31,16.83 31.73,17.77 32.15,18.61 32.57,19.40 32.99,20.19 33.41,20.93 33.83,21.73 34.25,22.64 34.67,23.53 35.09,24.45 35.51,25.42 35.93,26.21 36.35,27.02 36.77,27.73 37.19,28.28 37.61,29.11 38.03,29.01 38.45,28.72 38.87,28.30 39.29,27.77 39.71,27.17 40.13,26.70 40.55,26.29 40.97,25.83 41.39,25.45 41.81,25.23 42.23,25.23 42.65,25.04 43.07,25.12 43.49,25.42 43.91,25.63 44.33,25.90 44.75,26.12 45.17,26.40 45.59,26.76 46.01,27.16 46.43,27.54 46.85,28.04 47.27,28.50 47.69,28.94 48.12,29.39 48.54,29.83 48.96,30.50 49.38,31.00 49.80,31.54 50.22,32.12 50.64,32.93 51.06,33.42 51.48,33.28 51.90,32.99 52.32,32.54 52.74,32.08 53.16,31.61 53.58,31.23 54.00,30.79 54.42,30.42 54.84,30.28 55.26,30.44 55.68,30.71 56.10,31.11 56.52,31.27 56.94,31.75 57.36,32.28 57.78,32.95 58.20,33.46 58.62,33.81 59.04,34.26 59.46,34.69 59.88,35.25 60.30,35.82 60.72,36.39 61.14,36.59 61.56,37.11 61.98,37.76 62.40,38.56 62.82,39.03 63.24,39.45 63.66,39.96 64.08,40.53 64.50,41.01 64.92,41.63 65.34,42.21 65.76,42.77 66.18,43.43 66.60,44.10 67.02,44.87 67.44,45.67 67.86,46.43 68.28,47.17 68.70,47.74 69.12,48.19 69.54,48.72 69.96,49.25 70.38,49.70 70.80,50.16 71.22,50.72 71.64,51.18 72.06,51.26 72.48,51.29 72.90,51.25 73.32,51.19 73.74,50.96 74.16,50.82 74.58,50.72 75.00,50.62 75.42,50.51 75.84,50.54 76.26,50.65 76.68,50.96 77.11,13.86 77.53,13.29 77.95,12.91 78.37,12.31 78.79,12.08 79.21,11.94 79.63,11.68 80.05,11.64 80.47,11.56 80.89,11.60 81.31,11.13 81.73,10.59 82.15,10.07 82.57,9.45 82.99,8.91 83.41,8.49 83.83,8.16 84.25,7.72 84.67,7.54 85.09,7.13 85.51,6.95 85.93,6.63 86.35,6.28 86.77,6.11 87.19,5.97 87.61,6.04 88.03,6.45 88.45,7.08 88.87,7.25 89.29,7.49 89.71,7.38 90.13,7.27 90.55,7.04 90.97,6.74 91.39,6.43 91.81,5.92 92.23,5.46 92.65,5.10 93.07,4.86 93.49,4.73 93.91,4.68 94.33,4.65 94.75,4.77 95.17,4.82 95.59,5.12 96.01,5.40 96.43,5.69 96.85,5.77 97.27,6.14 97.69,6.25 98.11,6.72 98.53,7.34 98.95,7.94 99.37,8.37 99.79,9.10 100.21,9.80 100.63,10.49 101.05,11.18 101.47,11.76 101.89,12.44 102.31,13.29 102.73,14.06 103.15,14.79 103.57,15.48 103.99,16.22 104.41,17.04 104.83,18.14 105.25,18.92 105.67,19.56 106.09,20.32 106.52,21.19 106.94,21.81 107.36,22.76 107.78,23.61 108.20,24.70 108.62,25.62 109.04,26.48 109.46,27.13 109.88,27.78 110.30,28.40 110.72,28.90 111.14,29.04 111.56,28.64 111.98,28.24 112.40,27.70 112.82,27.02 113.24,26.64 113.66,26.20 114.08,25.74 114.50,25.33 114.92,25.24 115.34,25.13 115.76,25.07 116.18,25.20 116.60,25.40 117.02,25.78 117.44,25.98 117.86,26.30 118.28,26.50 118.70,26.83 119.12,26.92 119.54,27.57 119.96,28.01 120.38,28.47 120.80,28.61 121.22,29.07 121.64,29.15 122.06,30.13 122.48,30.79 122.90,31.68 123.32,32.14 123.74,32.80 124.16,33.50 124.58,33.24 125.00,32.92 125.42,32.53 125.84,32.02 126.26,31.76 126.68,31.44 127.10,30.84 127.52,30.40 127.94,30.32 128.36,30.41 128.78,30.71 129.20,31.02 129.62,31.34 130.04,31.91 130.46,32.47 130.88,33.24 131.30,33.70 131.72,33.97 132.14,34.29 132.56,34.81 132.98,35.19 133.40,35.74 133.82,36.35 134.24,36.66 134.66,37.22 135.08,37.66 135.51,38.52 135.93,39.14 136.35,39.57 136.77,40.08 137.19,40.62 137.61,41.04 138.03,41.81 138.45,42.33 138.87,42.90 139.29,43.64 139.71,44.46 140.13,44.98 140.55,45.76 140.97,46.52 141.39,47.81 141.81,47.87 142.23,48.38 142.65,48.91 143.07,49.43 143.49,50.05 143.91,50.20 144.33,50.75 144.75,51.18 145.17,51.35 145.59,51.32 146.01,51.41 146.43,51.18 146.85,51.04 147.27,50.85 147.69,50.74 148.11,50.66 148.53,50.57 148.95,50.59 149.37,50.70 149.79,51.00 150.21,14.04 150.63,13.71 151.05,12.69 151.47,12.83 151.89,11.91 152.31,11.94 152.73,11.42 153.15,11.60 153.57,11.86 153.99,12.15 154.41,11.30 154.83,10.91 155.25,10.33 155.67,9.81 156.09,9.43 156.51,8.79 156.93,8.27 157.35,7.81 157.77,7.40 158.19,7.17 158.61,7.29 159.03,6.71 159.45,6.20 159.87,6.76 160.29,6.23 160.71,5.97 161.13,6.05 161.55,6.70 161.97,7.47 162.39,7.54 162.81,7.64 163.23,7.59 163.65,7.42 164.07,7.19 164.49,7.17 164.92,6.36 165.34,5.69 165.76,5.25 166.18,4.94 166.60,4.75 167.02,4.64 167.44,4.44 167.86,4.17 168.28,4.00 168.70,5.53 169.12,5.67 169.54,6.59 169.96,6.52 170.38,7.52 170.80,6.24 171.22,6.56 171.64,7.72 172.06,7.23 172.48,8.27 172.90,8.73 173.32,9.25 173.74,10.81 174.16,10.79 174.58,11.94 175.00,11.94 175.42,13.12 175.84,14.88 176.26,14.74 176.68,14.40 177.10,16.21 177.52,16.60 177.94,19.02 178.36,19.07 178.78,19.48 179.20,20.29 179.62,21.39 180.04,19.72 180.46,21.45 180.88,22.91 181.30,24.14 181.72,25.09 182.14,25.70 182.56,28.03 182.98,27.98 183.40,28.68 183.82,29.36 184.24,29.39 184.66,29.22 185.08,28.40 185.50,28.63 185.92,27.56 186.34,26.60 186.76,26.23 187.18,25.28 187.60,24.53 188.02,25.33 188.44,24.79 188.86,24.91 189.28,24.99 189.70,23.81 190.12,25.50 190.54,24.34 190.96,26.48 191.38,26.24 191.80,24.94 192.22,25.04 192.64,27.28 193.06,27.02 193.48,28.22 193.91,26.85 194.33,28.21 194.75,29.13 195.17,29.92 195.59,30.41 196.01,31.42 196.43,32.31 196.85,33.04 197.27,33.45 197.69,33.48 198.11,33.36 198.53,32.60 198.95,32.13 199.37,32.13 199.79,32.72 200.21,31.67 200.63,30.80 201.05,30.44 201.47,31.06 201.89,31.30 202.31,30.74 202.73,32.41 203.15,32.85 203.57,34.26 203.99,32.94 204.41,34.26 204.83,35.51 205.25,36.20 205.67,35.43 206.09,34.49 206.51,35.71 206.93,36.03 207.35,37.42 207.77,37.67 208.19,38.75 208.61,39.23 209.03,40.47 209.45,39.95 209.87,39.98 210.29,41.25 210.71,41.27 211.13,41.52 211.55,42.07 211.97,42.85 212.39,43.18 212.81,44.67 213.23,44.67 213.65,45.13 214.07,46.18 214.49,47.40 214.91,47.89 215.33,48.03 215.75,48.33 216.17,48.84 216.59,49.56 217.01,49.01 217.43,50.64 217.85,51.37 218.27,51.32 218.69,50.80 219.11,51.77 219.53,50.91 219.95,51.46 220.37,51.72 220.79,50.19 221.21,50.50 221.63,50.31 222.05,50.64 222.47,50.88 222.89,51.35 223.32,16.15 223.74,14.63 224.16,14.99 224.58,14.99 225.00,14.99 225.42,12.80 225.84,12.80 226.26,12.80 226.68,13.07 227.10,13.07 227.52,16.38 227.94,13.53 228.36,13.53 228.78,13.53 229.20,11.01 229.62,11.01 230.04,11.01 230.46,8.70 230.88,8.70 231.30,8.70 231.72,8.10 232.14,8.10 232.56,8.10 232.98,9.30 233.40,6.89 233.82,6.89 234.24,6.89 234.66,7.31 235.08,7.31 235.50,7.31 235.92,8.92 236.34,8.92 236.76,8.92 237.18,8.33 237.60,8.33 238.02,8.33 238.44,6.62 238.86,6.62 239.28,6.62 239.70,4.98 240.12,4.98 240.54,4.98 240.96,4.68 241.38,4.68 241.80,4.68 242.22,7.71 242.64,7.71 243.06,7.71 243.48,11.52 243.90,8.14 244.32,8.14 244.74,8.14 245.16,8.14 245.58,9.32 246.00,9.32 246.42,9.32 246.84,10.57 247.26,10.57 247.68,10.57 248.10,10.57 248.52,13.92 248.94,13.92 249.36,13.92 249.78,11.81 250.20,11.81 250.62,11.81 251.04,19.48 251.46,19.48 251.88,19.48 252.31,20.26 252.73,20.26 253.15,14.49 253.57,14.49 253.99,19.09 254.41,19.09 254.83,19.09 255.25,24.57 255.67,28.58 256.09,28.58 256.51,30.57 256.93,30.57 257.35,30.57 257.77,33.14 258.19,33.14 258.61,31.69 259.03,31.69 259.45,28.86 259.87,28.86 260.29,27.54 260.71,27.54 261.13,27.54 261.55,28.19 261.97,28.19 262.39,28.19 262.81,24.18 263.23,24.18 263.65,24.18 264.07,24.18 264.49,23.14 264.91,23.14 265.33,27.33 265.75,27.76 266.17,27.76 266.59,27.33 267.01,27.33 267.43,27.33 267.85,30.60 268.27,30.60 268.69,30.60 269.11,32.99 269.53,32.41 269.95,32.41 270.37,34.57 270.79,34.57 271.21,38.01 271.63,35.92 272.05,35.92 272.47,35.92 272.89,34.59 273.31,32.83 273.73,32.83 274.15,32.83 274.57,32.83 274.99,37.22 275.41,37.22 275.83,35.95 276.25,35.95 276.67,35.95 277.09,38.68 277.51,38.68 277.93,38.68 278.35,40.03 278.77,40.03 279.19,35.76 279.61,35.76 280.03,35.76 280.45,42.69 280.87,42.69 281.29,42.69 281.72,42.19 282.14,42.19 282.56,42.19 282.98,41.38 283.40,41.38 283.82,41.38 284.24,41.77 284.66,41.77 285.08,41.77 285.50,41.77 285.92,44.80 286.34,44.80 286.76,44.80 287.18,44.80 287.60,46.82 288.02,46.82 288.44,46.82 288.86,47.85 289.28,47.85 289.70,47.85 290.12,44.47 290.54,44.47 290.96,44.47 291.38,47.16 291.80,51.88 292.22,51.88 292.64,51.88 293.06,56.00 293.48,56.00 293.90,48.83 294.32,50.19 294.74,50.19 295.16,52.10 295.58,52.10 296.00,52.10" />
</svg>