<svg width="300" height="60" xmlns="http://www.w3.org/2000/svg">
  <polyline fill="rgba(255,200,0,0.3)" stroke="#ffbb00" stroke-width="2" points="4.00,53.26 4.54,53.14 5.09,53.64 5.63,54.09 6.18,54.17 6.72,54.18 7.26,53.99 7.81,53.82 8.35,53.34 8.89,52.92 9.44,51.91 9.98,50.71 10.53,49.56 11.07,48.22 11.61,46.80 12.16,45.60 12.70,44.56 13.24,43.90 13.79,43.65 14.33,42.59 14.88,41.76 15.42,41.03 15.96,41.14 16.51,40.27 17.05,39.11 17.59,37.73 18.14,36.59 18.68,35.73 19.23,34.81 19.77,33.98 20.31,33.09 20.86,31.91 21.40,30.90 21.94,29.66 22.49,28.61 23.03,27.72 23.58,26.80 24.12,25.80 24.66,24.85 25.21,23.92 25.75,22.83 26.29,21.34 26.84,20.01 27.38,18.62 27.93,17.34 28.47,16.44 29.01,17.32 29.56,16.43 30.10,15.47 30.64,14.47 31.19,13.45 31.73,12.46 32.28,11.24 32.82,9.96 33.36,8.98 33.91,8.08 34.45,7.31 34.99,6.84 35.54,6.43 36.08,6.04 36.63,5.77 37.17,5.75 37.71,6.04 38.26,6.53 38.80,7.03 39.34,7.46 39.89,7.96 40.43,8.59 40.98,9.10 41.52,9.70 42.06,10.30 42.61,10.92 43.15,11.52 43.69,12.32 44.24,13.10 44.78,13.79 45.33,14.83 45.87,14.84 46.41,15.39 46.96,15.85 47.50,16.33 48.04,16.43 48.59,16.51 49.13,17.27 49.68,17.95 50.22,17.95 50.76,18.16 51.31,18.54 51.85,19.12 52.39,19.82 52.94,20.71 53.48,21.64 54.03,21.50 54.57,22.17 55.11,23.05 55.66,23.65 56.20,24.54 56.74,25.60 57.29,27.21 57.83,28.49 58.38,27.73 58.92,28.33 59.46,28.99 60.01,29.45 60.55,29.82 61.09,30.56 61.64,30.95 62.18,32.05 62.73,32.85 63.27,32.75 63.81,33.29 64.36,33.79 64.90,33.90 65.45,34.16 65.99,34.42 66.53,34.63 67.08,35.02 67.62,35.14 68.16,35.06 68.71,34.49 69.25,33.82 69.80,32.97 70.34,31.92 70.88,31.11 71.43,30.46 71.97,29.53 72.51,28.78 73.06,27.87 73.60,26.93 74.15,25.87 74.69,24.75 75.23,23.70 75.78,22.64 76.32,21.79 76.86,20.96 77.41,20.11 77.95,53.25 78.50,53.33 79.04,53.61 79.58,54.21 80.13,54.28 80.67,54.23 81.21,54.05 81.76,53.77 82.30,53.43 82.85,53.15 83.39,51.69 83.93,50.79 84.48,49.48 85.02,48.21 85.56,46.84 86.11,45.40 86.65,44.49 87.20,43.66 87.74,43.89 88.28,42.78 88.83,41.71 89.37,41.13 89.91,40.10 90.46,40.48 91.00,39.15 91.55,38.34 92.09,36.65 92.63,35.89 93.18,34.90 93.72,33.82 94.26,33.04 94.81,32.45 95.35,30.38 95.90,29.40 96.44,28.74 96.98,27.96 97.53,26.82 98.07,25.96 98.61,25.05 99.16,23.08 99.70,22.81 100.25,21.07 100.79,20.01 101.33,18.37 101.88,17.06 102.42,16.38 102.96,15.39 103.51,14.65 104.05,13.87 104.60,12.31 105.14,11.30 105.68,9.89 106.23,8.90 106.77,7.81 107.31,7.33 107.86,7.09 108.40,6.42 108.95,6.16 109.49,5.68 110.03,5.86 110.58,6.27 111.12,6.95 111.66,7.08 112.21,7.59 112.75,8.14 113.30,8.65 113.84,9.35 114.38,9.91 114.93,10.46 115.47,11.07 116.01,11.85 116.56,12.54 117.10,13.40 117.65,13.95 118.19,14.96 118.73,14.96 119.28,15.36 119.82,15.96 120.36,16.36 120.91,16.39 121.45,16.22 122.00,16.95 122.54,17.97 123.08,17.51 123.63,17.46 124.17,18.26 124.72,19.35 125.26,19.83 125.80,20.28 126.35,21.29 126.89,21.27 127.43,21.77 127.98,23.20 128.52,23.80 129.07,24.88 129.61,25.84 130.15,26.79 130.70,27.10 131.24,27.40 131.78,27.87 132.33,29.34 132.87,29.35 133.42,29.96 133.96,30.49 134.50,30.98 135.05,32.11 135.59,32.62 136.13,32.54 136.68,33.25 137.22,33.62 137.77,33.85 138.31,33.37 138.85,34.41 139.40,34.66 139.94,34.90 140.48,35.28 141.03,35.28 141.57,34.53 142.12,34.35 142.66,33.22 143.20,32.36 143.75,30.96 144.29,30.89 144.83,29.63 145.38,28.99 145.92,28.00 146.47,26.97 147.01,26.26 147.55,24.87 148.10,23.61 148.64,22.68 149.18,21.65 149.73,21.04 150.27,20.17 150.82,53.68 151.36,54.49 151.90,54.72 152.45,54.52 152.99,54.92 153.53,54.36 154.08,53.76 154.62,53.58 155.17,53.75 155.71,54.30 156.25,51.40 156.80,50.59 157.34,49.65 157.88,48.61 158.43,47.49 158.97,46.25 159.52,44.96 160.06,44.41 160.60,44.36 161.15,42.21 161.69,43.45 162.23,41.78 162.78,39.80 163.32,44.18 163.87,43.83 164.41,42.79 164.95,40.84 165.50,38.46 166.04,35.65 166.58,37.94 167.13,35.05 167.67,34.90 168.22,33.92 168.76,32.20 169.30,29.01 169.85,27.19 170.39,25.34 170.93,24.96 171.48,23.95 172.02,23.98 172.57,24.76 173.11,20.72 173.65,21.65 174.20,20.00 174.74,17.47 175.28,16.59 175.83,15.10 176.37,17.33 176.92,16.86 177.46,14.03 178.00,12.49 178.55,10.31 179.09,8.74 179.64,7.48 180.18,8.16 180.72,9.00 181.27,6.51 181.81,6.31 182.35,6.08 182.90,6.08 183.44,4.87 183.99,8.28 184.53,8.13 185.07,7.48 185.62,7.65 186.16,9.63 186.70,9.05 187.25,10.09 187.79,9.93 188.34,10.29 188.88,11.22 189.42,12.51 189.97,13.45 190.51,15.93 191.05,15.60 191.60,14.66 192.14,15.78 192.69,17.93 193.23,16.67 193.77,16.59 194.32,16.29 194.86,20.10 195.40,17.90 195.95,17.17 196.49,21.04 197.04,18.64 197.58,18.60 198.12,19.62 198.67,18.90 199.21,20.88 199.75,22.01 200.30,22.57 200.84,22.37 201.39,25.20 201.93,26.01 202.47,26.69 203.02,30.49 203.56,28.21 204.10,27.19 204.65,30.60 205.19,29.24 205.74,32.58 206.28,31.67 206.82,30.83 207.37,32.53 207.91,32.14 208.45,34.26 209.00,33.48 209.54,35.00 210.09,33.35 210.63,33.48 211.17,33.88 211.72,35.25 212.26,34.54 212.80,35.20 213.35,35.81 213.89,35.53 214.44,34.52 214.98,34.52 215.52,32.30 216.07,32.22 216.61,31.06 217.15,30.40 217.70,28.81 218.24,27.92 218.79,27.08 219.33,26.00 219.87,26.00 220.42,24.61 220.96,23.33 221.50,22.32 222.05,21.46 222.59,20.65 223.14,19.74 223.68,53.02 224.22,53.02 224.77,53.02 225.31,54.58 225.85,56.00 226.40,56.00 226.94,54.10 227.49,54.10 228.03,55.90 228.57,55.90 229.12,50.16 229.66,50.16 230.20,47.33 230.75,47.33 231.29,47.33 231.84,44.80 232.38,44.80 232.92,44.80 233.47,48.42 234.01,48.42 234.55,48.42 235.10,48.42 235.64,42.12 236.19,54.59 236.73,51.22 237.27,51.22 237.82,51.22 238.36,44.45 238.91,44.45 239.45,44.45 239.99,37.77 240.54,37.77 241.08,31.78 241.62,31.78 242.17,31.78 242.71,24.39 243.26,28.89 243.80,28.89 244.34,28.89 244.89,33.24 245.43,33.24 245.97,33.24 246.52,33.24 247.06,24.34 247.61,24.34 248.15,24.34 248.69,15.89 249.24,15.89 249.78,15.89 250.32,15.89 250.87,13.31 251.41,13.31 251.96,13.31 252.50,8.61 253.04,8.61 253.59,11.18 254.13,11.18 254.67,4.00 255.22,4.00 255.76,4.00 256.31,4.00 256.85,8.08 257.39,8.08 257.94,8.08 258.48,8.54 259.02,8.54 259.57,8.54 260.11,8.31 260.66,8.31 261.20,8.31 261.74,8.89 262.29,8.89 262.83,13.26 263.37,13.26 263.92,16.88 264.46,16.88 265.01,16.88 265.55,21.05 266.09,21.00 266.64,21.00 267.18,21.00 267.72,27.48 268.27,25.43 268.81,25.43 269.36,25.43 269.90,20.04 270.44,20.04 270.99,23.99 271.53,23.99 272.07,23.99 272.62,29.62 273.16,25.60 273.71,25.60 274.25,25.60 274.79,26.30 275.34,26.30 275.88,37.22 276.42,37.88 276.97,37.88 277.51,35.20 278.06,35.20 278.60,35.20 279.14,31.36 279.69,31.36 280.23,40.11 280.77,37.45 281.32,37.45 281.86,37.45 282.41,34.04 282.95,34.04 283.49,38.74 284.04,35.38 284.58,35.38 285.12,35.38 285.67,37.10 286.21,37.10 286.76,37.10 287.30,28.50 287.84,28.50 288.39,28.50 288.93,30.29 289.47,30.29 290.02,28.78 290.56,28.78 291.11,25.34 291.65,25.29 292.19,25.29 292.74,25.29 293.28,18.36 293.82,21.44 294.37,21.44 294.91,20.15 295.46,20.15 296.00,19.31" />
</svg>