<svg width="300" height="60" xmlns="http://www.w3.org/2000/svg">
  <polyline fill="rgba(255,200,0,0.3)" stroke="#ffbb00" stroke-width="2" points="4.00,45.23 5.26,46.07 6.53,46.48 7.79,46.80 9.06,46.60 10.32,46.13 11.58,45.54 12.85,44.40 14.11,42.53 15.38,40.39 16.64,37.36 17.90,34.20 19.17,30.37 20.43,26.87 21.70,23.21 22.96,20.14 24.23,17.32 25.49,15.05 26.75,12.43 28.02,11.01 29.28,9.37 30.55,8.54 31.81,7.59 33.07,7.16 34.34,7.13 35.60,7.46 36.87,7.82 38.13,9.49 39.39,10.73 40.66,11.79 41.92,13.24 43.19,15.44 44.45,17.78 45.71,19.43 46.98,21.72 48.24,23.21 49.51,24.59 50.77,25.50 52.03,27.48 53.30,29.82 54.56,30.79 55.83,31.68 57.09,31.58 58.35,30.67 59.62,30.12 60.88,29.57 62.15,29.11 63.41,30.06 64.68,31.53 65.94,33.17 67.20,34.83 68.47,36.44 69.73,38.03 71.00,39.09 72.26,39.57 73.52,39.24 74.79,38.79 76.05,40.01 77.32,45.68 78.58,46.74 79.84,47.05 81.11,47.05 82.37,46.87 83.64,46.37 84.90,45.53 86.16,44.20 87.43,42.52 88.69,40.35 89.96,37.44 91.22,33.01 92.48,30.49 93.75,26.62 95.01,22.86 96.28,20.08 97.54,17.20 98.81,15.29 100.07,13.13 101.33,11.09 102.60,9.63 103.86,8.54 105.13,7.83 106.39,7.31 107.65,7.13 108.92,7.56 110.18,8.00 111.45,8.93 112.71,10.37 113.97,11.86 115.24,13.36 116.50,16.16 117.77,18.02 119.03,19.79 120.29,22.64 121.56,24.41 122.82,24.90 124.09,26.03 125.35,28.15 126.61,29.66 127.88,30.98 129.14,31.73 130.41,31.88 131.67,30.86 132.94,30.18 134.20,29.82 135.46,29.56 136.73,30.49 137.99,32.17 139.26,33.48 140.52,35.34 141.78,36.70 143.05,38.47 144.31,39.37 145.58,39.81 146.84,39.55 148.10,38.87 149.37,41.25 150.63,45.55 151.90,46.43 153.16,47.01 154.42,47.14 155.69,47.14 156.95,46.36 158.22,45.03 159.48,44.19 160.74,43.84 162.01,41.23 163.27,40.38 164.54,34.58 165.80,32.50 167.06,27.02 168.33,22.33 169.59,17.59 170.86,17.59 172.12,14.64 173.39,12.12 174.65,10.61 175.91,9.19 177.18,8.44 178.44,7.38 179.71,8.09 180.97,7.11 182.23,9.54 183.50,8.96 184.76,8.08 186.03,9.18 187.29,11.17 188.55,11.83 189.82,15.56 191.08,17.24 192.35,20.69 193.61,22.11 194.87,25.83 196.14,22.46 197.40,24.99 198.67,27.12 199.93,29.02 201.19,30.30 202.46,31.28 203.72,31.89 204.99,31.23 206.25,30.66 207.52,29.59 208.78,29.46 210.04,30.30 211.31,31.63 212.57,33.08 213.84,35.83 215.10,37.20 216.36,38.53 217.63,40.04 218.89,40.17 220.16,40.08 221.42,40.20 222.68,41.66 223.95,56.00 225.21,56.00 226.48,56.00 227.74,52.81 229.00,52.81 230.27,52.81 231.53,52.81 232.80,46.08 234.06,53.65 235.32,53.65 236.59,38.72 237.85,38.72 239.12,38.72 240.38,26.23 241.65,16.49 242.91,16.49 244.17,16.49 245.44,16.49 246.70,9.40 247.97,9.40 249.23,9.40 250.49,11.71 251.76,7.72 253.02,7.72 254.29,7.72 255.55,13.52 256.81,13.52 258.08,13.52 259.34,4.00 260.61,4.00 261.87,11.80 263.13,15.43 264.40,15.43 265.66,15.43 266.93,23.98 268.19,23.98 269.45,23.98 270.72,23.98 271.98,27.74 273.25,27.74 274.51,32.79 275.77,32.79 277.04,32.79 278.30,33.06 279.57,43.69 280.83,38.77 282.10,38.77 283.36,38.77 284.62,42.31 285.89,42.31 287.15,44.44 288.42,44.44 289.68,44.44 290.94,44.04 292.21,44.04 293.47,44.04 294.74,48.21 296.00,48.21" />
</svg>