<svg width="300" height="60" xmlns="http://www.w3.org/2000/svg">
  <polyline fill="rgba(255,200,0,0.3)" stroke="#ffbb00" stroke-width="2" points="4.00,53.30 4.17,53.29 4.34,53.59 4.51,53.64 4.68,53.39 4.85,54.13 5.02,53.52 5.19,53.76 5.36,54.62 5.53,55.44 5.70,55.92 5.87,55.66 6.04,55.53 6.21,54.50 6.38,52.93 6.55,51.38 6.72,50.95 6.89,51.63 7.06,53.18 7.23,52.83 7.41,52.80 7.58,52.46 7.75,52.75 7.92,52.87 8.09,53.44 8.26,53.59 8.43,53.99 8.60,54.07 8.77,53.69 8.94,53.42 9.11,54.01 9.28,55.49 9.45,55.91 9.62,55.56 9.79,55.61 9.96,53.50 10.13,52.41 10.30,51.67 10.47,50.93 10.64,50.67 10.81,49.98 10.98,49.87 11.15,49.20 11.32,48.91 11.49,48.67 11.66,48.01 11.83,47.75 12.00,47.81 12.17,48.31 12.34,49.62 12.51,51.10 12.68,52.04 12.85,52.28 13.02,52.18 13.19,51.91 13.36,51.61 13.53,51.46 13.70,51.18 13.88,50.48 14.05,50.01 14.22,49.38 14.39,48.94 14.56,48.48 14.73,48.54 14.90,48.45 15.07,48.03 15.24,47.44 15.41,46.74 15.58,46.09 15.75,45.38 15.92,44.65 16.09,44.28 16.26,43.75 16.43,42.76 16.60,41.93 16.77,41.12 16.94,40.18 17.11,39.11 17.28,38.19 17.45,37.40 17.62,36.62 17.79,35.86 17.96,34.81 18.13,34.05 18.30,33.21 18.47,32.25 18.64,31.29 18.81,30.13 18.98,29.37 19.15,29.34 19.32,29.28 19.49,29.30 19.66,29.38 19.83,29.12 20.00,29.06 20.17,29.26 20.35,29.69 20.52,30.42 20.69,31.17 20.86,32.05 21.03,32.71 21.20,32.88 21.37,33.85 21.54,34.50 21.71,33.97 21.88,33.19 22.05,32.43 22.22,31.88 22.39,31.39 22.56,31.68 22.73,31.98 22.90,32.21 23.07,32.38 23.24,31.87 23.41,30.99 23.58,30.28 23.75,29.82 23.92,29.65 24.09,29.39 24.26,29.16 24.43,29.04 24.60,28.70 24.77,28.17 24.94,27.19 25.11,26.88 25.28,26.31 25.45,25.90 25.62,25.86 25.79,27.06 25.96,27.26 26.13,28.42 26.30,28.91 26.47,29.38 26.64,29.73 26.82,30.27 26.99,30.93 27.16,30.96 27.33,30.65 27.50,30.23 27.67,29.75 27.84,29.24 28.01,28.19 28.18,28.01 28.35,27.21 28.52,27.37 28.69,28.01 28.86,28.12 29.03,28.68 29.20,29.43 29.37,29.40 29.54,29.57 29.71,29.61 29.88,29.32 30.05,28.92 30.22,29.38 30.39,30.70 30.56,32.07 30.73,33.16 30.90,34.88 31.07,34.56 31.24,33.70 31.41,33.73 31.58,32.17 31.75,29.71 31.92,27.92 32.09,26.35 32.26,25.94 32.43,26.69 32.60,28.14 32.77,29.17 32.94,29.94 33.11,30.45 33.29,30.46 33.46,30.18 33.63,29.66 33.80,28.66 33.97,28.30 34.14,28.19 34.31,27.80 34.48,28.58 34.65,28.67 34.82,28.42 34.99,27.73 35.16,27.80 35.33,27.30 35.50,26.45 35.67,26.31 35.84,26.59 36.01,26.84 36.18,26.62 36.35,26.61 36.52,26.45 36.69,26.17 36.86,25.68 37.03,25.08 37.20,25.51 37.37,25.98 37.54,26.08 37.71,25.08 37.88,24.89 38.05,23.23 38.22,21.56 38.39,21.33 38.56,21.61 38.73,21.78 38.90,21.69 39.07,21.29 39.24,20.94 39.41,20.68 39.58,20.30 39.76,20.79 39.93,21.48 40.10,22.67 40.27,22.71 40.44,22.61 40.61,22.84 40.78,22.38 40.95,22.30 41.12,22.32 41.29,22.46 41.46,22.25 41.63,21.77 41.80,21.56 41.97,21.31 42.14,21.57 42.31,21.05 42.48,20.85 42.65,20.77 42.82,20.57 42.99,20.26 43.16,20.03 43.33,19.60 43.50,19.15 43.67,18.64 43.84,18.10 44.01,17.56 44.18,16.94 44.35,16.18 44.52,15.47 44.69,15.37 44.86,15.76 45.03,15.52 45.20,15.45 45.37,15.45 45.54,15.65 45.71,15.78 45.88,15.89 46.05,16.01 46.23,16.21 46.40,16.38 46.57,16.50 46.74,16.58 46.91,16.71 47.08,16.87 47.25,17.69 47.42,17.57 47.59,17.21 47.76,15.77 47.93,15.00 48.10,14.28 48.27,13.77 48.44,13.80 48.61,14.37 48.78,15.03 48.95,15.74 49.12,16.53 49.29,18.10 49.46,17.67 49.63,17.79 49.80,17.39 49.97,17.34 50.14,17.26 50.31,17.20 50.48,17.08 50.65,17.04 50.82,16.96 50.99,16.90 51.16,16.73 51.33,16.78 51.50,16.93 51.67,16.77 51.84,17.25 52.01,16.77 52.18,16.54 52.35,16.21 52.52,15.03 52.70,14.13 52.87,13.62 53.04,13.41 53.21,13.27 53.38,13.42 53.55,13.34 53.72,13.14 53.89,13.05 54.06,13.45 54.23,13.89 54.40,13.85 54.57,14.63 54.74,15.47 54.91,16.00 55.08,16.13 55.25,15.96 55.42,16.05 55.59,15.75 55.76,15.95 55.93,15.56 56.10,15.12 56.27,14.20 56.44,13.37 56.61,12.91 56.78,12.85 56.95,13.72 57.12,14.75 57.29,14.77 57.46,14.95 57.63,14.74 57.80,14.74 57.97,14.74 58.14,14.57 58.31,14.01 58.48,12.75 58.65,12.22 58.82,12.04 58.99,12.30 59.17,12.17 59.34,11.77 59.51,11.93 59.68,12.71 59.85,13.14 60.02,12.81 60.19,11.03 60.36,9.98 60.53,10.00 60.70,11.92 60.87,11.58 61.04,10.91 61.21,10.47 61.38,11.17 61.55,12.21 61.72,13.09 61.89,13.08 62.06,13.00 62.23,13.28 62.40,13.23 62.57,12.75 62.74,12.77 62.91,12.60 63.08,12.49 63.25,12.43 63.42,12.36 63.59,12.58 63.76,12.44 63.93,12.27 64.10,12.18 64.27,12.29 64.44,12.06 64.61,12.04 64.78,12.06 64.95,11.95 65.12,11.84 65.29,11.76 65.46,11.59 65.63,11.50 65.81,11.45 65.98,11.41 66.15,11.48 66.32,11.35 66.49,11.17 66.66,11.08 66.83,10.97 67.00,11.19 67.17,11.08 67.34,11.00 67.51,10.88 67.68,10.77 67.85,10.65 68.02,10.58 68.19,10.30 68.36,9.97 68.53,9.74 68.70,9.52 68.87,9.25 69.04,9.77 69.21,9.68 69.38,9.68 69.55,9.90 69.72,9.69 69.89,9.57 70.06,9.43 70.23,9.34 70.40,9.52 70.57,9.25 70.74,9.04 70.91,8.72 71.08,7.96 71.25,7.63 71.42,7.64 71.59,6.92 71.76,6.82 71.93,7.48 72.10,7.89 72.28,7.99 72.45,8.18 72.62,8.20 72.79,7.89 72.96,7.84 73.13,7.90 73.30,7.60 73.47,6.98 73.64,6.65 73.81,6.81 73.98,5.72 74.15,5.33 74.32,4.94 74.49,5.62 74.66,5.99 74.83,5.29 75.00,5.24 75.17,5.01 75.34,5.21 75.51,5.57 75.68,5.56 75.85,5.41 76.02,5.54 76.19,5.55 76.36,5.25 76.53,4.99 76.70,5.01 76.87,4.74 77.04,53.79 77.21,53.50 77.38,53.48 77.55,53.91 77.72,53.64 77.89,54.38 78.06,53.79 78.23,53.41 78.40,54.51 78.57,55.13 78.75,56.00 78.92,55.69 79.09,55.72 79.26,54.74 79.43,52.82 79.60,51.92 79.77,51.48 79.94,51.48 80.11,53.61 80.28,52.71 80.45,52.70 80.62,52.72 80.79,52.71 80.96,53.51 81.13,53.14 81.30,53.53 81.47,53.97 81.64,54.05 81.81,53.60 81.98,53.00 82.15,54.20 82.32,55.39 82.49,55.57 82.66,55.85 82.83,55.70 83.00,53.61 83.17,52.61 83.34,51.61 83.51,51.24 83.68,50.51 83.85,49.87 84.02,49.38 84.19,49.91 84.36,49.00 84.53,48.33 84.70,48.08 84.87,47.91 85.04,47.80 85.22,48.35 85.39,49.66 85.56,50.74 85.73,52.03 85.90,52.26 86.07,52.12 86.24,51.89 86.41,51.68 86.58,51.42 86.75,51.23 86.92,50.57 87.09,49.99 87.26,49.47 87.43,48.98 87.60,48.38 87.77,48.45 87.94,48.42 88.11,48.12 88.28,47.36 88.45,46.68 88.62,46.17 88.79,45.42 88.96,44.61 89.13,44.33 89.30,43.65 89.47,42.75 89.64,41.98 89.81,41.21 89.98,40.45 90.15,39.11 90.32,38.30 90.49,37.69 90.66,36.47 90.83,35.82 91.00,35.24 91.17,34.21 91.34,33.14 91.51,32.12 91.69,31.40 91.86,30.32 92.03,29.40 92.20,29.14 92.37,28.63 92.54,29.28 92.71,29.32 92.88,29.19 93.05,28.81 93.22,28.93 93.39,29.72 93.56,30.04 93.73,30.97 93.90,32.11 94.07,32.50 94.24,32.97 94.41,33.50 94.58,34.51 94.75,33.84 94.92,33.23 95.09,32.56 95.26,31.74 95.43,32.00 95.60,31.67 95.77,32.06 95.94,32.01 96.11,32.20 96.28,31.91 96.45,31.25 96.62,30.82 96.79,30.11 96.96,29.57 97.13,29.37 97.30,29.13 97.47,28.97 97.64,28.74 97.81,27.84 97.98,27.46 98.16,26.97 98.33,26.39 98.50,25.88 98.67,25.90 98.84,26.97 99.01,27.19 99.18,28.30 99.35,28.86 99.52,29.21 99.69,29.56 99.86,30.51 100.03,30.61 100.20,30.87 100.37,30.69 100.54,30.18 100.71,29.76 100.88,29.32 101.05,28.20 101.22,27.92 101.39,27.11 101.56,27.04 101.73,28.11 101.90,28.12 102.07,28.94 102.24,29.56 102.41,29.43 102.58,30.13 102.75,29.49 102.92,29.02 103.09,29.02 103.26,29.32 103.43,30.44 103.60,31.79 103.77,33.36 103.94,34.83 104.11,34.46 104.28,34.59 104.45,33.53 104.63,32.53 104.80,29.72 104.97,28.27 105.14,26.39 105.31,25.94 105.48,26.62 105.65,28.08 105.82,29.11 105.99,30.20 106.16,30.55 106.33,30.45 106.50,30.07 106.67,29.36 106.84,28.49 107.01,28.29 107.18,28.13 107.35,27.99 107.52,28.50 107.69,29.02 107.86,28.64 108.03,27.80 108.20,27.75 108.37,27.43 108.54,26.41 108.71,26.24 108.88,26.51 109.05,26.79 109.22,26.63 109.39,26.55 109.56,26.37 109.73,25.93 109.90,25.89 110.07,24.94 110.24,25.54 110.41,25.75 110.58,26.17 110.75,25.08 110.92,24.82 111.10,23.31 111.27,21.66 111.44,21.14 111.61,20.91 111.78,21.24 111.95,21.72 112.12,21.24 112.29,20.74 112.46,20.38 112.63,20.19 112.80,20.70 112.97,21.51 113.14,22.56 113.31,22.55 113.48,22.67 113.65,22.79 113.82,22.43 113.99,22.25 114.16,22.09 114.33,22.24 114.50,22.10 114.67,21.65 114.84,21.46 115.01,21.24 115.18,21.46 115.35,20.77 115.52,20.85 115.69,20.66 115.86,20.39 116.03,20.15 116.20,19.88 116.37,19.56 116.54,18.90 116.71,18.51 116.88,18.07 117.05,17.37 117.22,16.79 117.39,15.92 117.57,15.39 117.74,15.23 117.91,15.60 118.08,15.43 118.25,15.54 118.42,15.13 118.59,15.48 118.76,15.73 118.93,15.95 119.10,15.86 119.27,16.19 119.44,16.33 119.61,16.43 119.78,16.51 119.95,16.72 120.12,17.00 120.29,17.79 120.46,17.50 120.63,17.09 120.80,15.93 120.97,15.18 121.14,14.23 121.31,13.45 121.48,13.77 121.65,14.10 121.82,15.10 121.99,15.44 122.16,16.77 122.33,18.01 122.50,17.64 122.67,17.63 122.84,17.33 123.01,17.32 123.18,17.21 123.35,17.12 123.52,17.03 123.69,16.95 123.86,16.86 124.03,16.87 124.21,16.66 124.38,16.64 124.55,16.95 124.72,16.84 124.89,17.14 125.06,16.53 125.23,16.59 125.40,16.18 125.57,14.86 125.74,13.89 125.91,13.50 126.08,12.96 126.25,13.37 126.42,13.35 126.59,13.27 126.76,13.14 126.93,13.04 127.10,13.66 127.27,13.32 127.44,13.29 127.61,14.91 127.78,15.64 127.95,15.61 128.12,15.71 128.29,15.89 128.46,15.85 128.63,15.55 128.80,15.79 128.97,15.30 129.14,15.10 129.31,14.08 129.48,13.44 129.65,12.97 129.82,12.65 129.99,14.42 130.16,14.66 130.33,14.71 130.50,14.73 130.68,14.72 130.85,14.69 131.02,14.79 131.19,14.65 131.36,13.97 131.53,12.74 131.70,11.68 131.87,12.35 132.04,12.73 132.21,11.79 132.38,11.57 132.55,11.88 132.72,12.55 132.89,13.30 133.06,13.16 133.23,10.69 133.40,9.95 133.57,10.22 133.74,11.98 133.91,11.60 134.08,10.78 134.25,10.46 134.42,10.78 134.59,12.24 134.76,12.98 134.93,13.02 135.10,12.94 135.27,13.28 135.44,13.20 135.61,12.80 135.78,12.80 135.95,12.57 136.12,12.48 136.29,12.41 136.46,12.29 136.63,12.52 136.80,12.29 136.97,12.22 137.15,12.14 137.32,12.21 137.49,12.04 137.66,12.01 137.83,12.06 138.00,11.98 138.17,11.90 138.34,11.74 138.51,11.51 138.68,11.40 138.85,11.37 139.02,11.39 139.19,11.59 139.36,11.30 139.53,11.11 139.70,10.99 139.87,10.89 140.04,11.27 140.21,11.11 140.38,10.98 140.55,10.83 140.72,10.76 140.89,10.58 141.06,10.56 141.23,10.28 141.40,9.95 141.57,9.67 141.74,9.51 141.91,9.19 142.08,9.73 142.25,9.65 142.42,9.63 142.59,9.92 142.76,9.64 142.93,9.52 143.10,9.43 143.27,9.24 143.44,9.49 143.62,9.20 143.79,8.98 143.96,8.74 144.13,7.90 144.30,7.54 144.47,7.54 144.64,6.72 144.81,6.67 144.98,7.50 145.15,7.71 145.32,8.18 145.49,8.23 145.66,8.27 145.83,7.76 146.00,7.84 146.17,7.81 146.34,7.70 146.51,7.00 146.68,6.67 146.85,6.81 147.02,6.17 147.19,5.45 147.36,5.03 147.53,5.97 147.70,5.81 147.87,5.26 148.04,5.27 148.21,4.96 148.38,5.14 148.55,5.42 148.72,5.20 148.89,4.71 149.06,5.45 149.23,5.51 149.40,5.33 149.57,4.97 149.74,5.03 149.91,4.71 150.09,53.79 150.26,54.56 150.43,53.56 150.60,53.82 150.77,53.82 150.94,53.90 151.11,53.38 151.28,53.53 151.45,55.06 151.62,54.82 151.79,55.68 151.96,54.71 152.13,55.31 152.30,53.30 152.47,53.56 152.64,51.32 152.81,53.21 152.98,51.06 153.15,52.27 153.32,52.22 153.49,53.92 153.66,52.31 153.83,52.95 154.00,53.81 154.17,53.12 154.34,54.13 154.51,54.13 154.68,53.80 154.85,54.17 155.02,53.46 155.19,53.74 155.36,55.53 155.53,55.86 155.70,55.63 155.87,55.05 156.04,53.51 156.21,53.08 156.38,51.65 156.56,50.42 156.73,50.69 156.90,49.76 157.07,48.51 157.24,50.62 157.41,48.98 157.58,49.27 157.75,48.04 157.92,48.61 158.09,48.13 158.26,48.31 158.43,50.71 158.60,51.49 158.77,51.98 158.94,52.29 159.11,52.05 159.28,51.78 159.45,51.83 159.62,51.54 159.79,51.18 159.96,50.71 160.13,50.19 160.30,49.81 160.47,49.18 160.64,48.71 160.81,48.45 160.98,48.86 161.15,47.99 161.32,47.23 161.49,46.64 161.66,45.83 161.83,45.05 162.00,44.40 162.17,44.20 162.34,43.54 162.51,42.59 162.68,41.47 162.85,41.51 163.03,40.25 163.20,38.84 163.37,37.63 163.54,38.18 163.71,36.64 163.88,35.66 164.05,34.80 164.22,33.42 164.39,32.85 164.56,31.51 164.73,31.51 164.90,30.90 165.07,30.17 165.24,29.96 165.41,29.21 165.58,30.20 165.75,29.76 165.92,29.52 166.09,28.58 166.26,29.63 166.43,30.11 166.60,30.60 166.77,31.76 166.94,32.52 167.11,32.88 167.28,33.09 167.45,33.34 167.62,34.13 167.79,33.36 167.96,33.24 168.13,31.74 168.30,31.58 168.47,31.93 168.64,31.16 168.81,31.90 168.98,31.90 169.15,32.59 169.32,31.38 169.50,31.38 169.67,30.43 169.84,29.43 170.01,29.72 170.18,28.69 170.35,27.79 170.52,28.71 170.69,27.95 170.86,27.00 171.03,27.00 171.20,27.48 171.37,26.49 171.54,25.59 171.71,26.42 171.88,26.76 172.05,27.49 172.22,28.51 172.39,28.38 172.56,29.13 172.73,29.93 172.90,30.77 173.07,29.68 173.24,29.67 173.41,30.63 173.58,30.05 173.75,29.51 173.92,29.07 174.09,28.21 174.26,26.93 174.43,27.34 174.60,26.69 174.77,27.56 174.94,28.25 175.11,28.68 175.28,30.18 175.45,29.16 175.62,30.24 175.79,29.29 175.97,30.02 176.14,28.98 176.31,30.28 176.48,30.72 176.65,31.13 176.82,34.60 176.99,34.55 177.16,34.02 177.33,33.70 177.50,32.98 177.67,32.10 177.84,29.12 178.01,27.59 178.18,26.52 178.35,26.22 178.52,26.80 178.69,29.00 178.86,29.65 179.03,30.14 179.20,30.18 179.37,30.11 179.54,30.10 179.71,29.49 179.88,28.73 180.05,28.30 180.22,27.44 180.39,28.04 180.56,28.43 180.73,28.76 180.90,28.23 181.07,27.70 181.24,27.70 181.41,26.62 181.58,26.70 181.75,26.31 181.92,26.31 182.09,26.41 182.26,27.01 182.43,26.97 182.61,26.33 182.78,26.05 182.95,25.60 183.12,25.38 183.29,25.72 183.46,26.16 183.63,26.57 183.80,25.58 183.97,23.99 184.14,23.99 184.31,21.76 184.48,20.67 184.65,21.85 184.82,20.43 184.99,20.93 185.16,21.25 185.33,21.42 185.50,20.03 185.67,20.36 185.84,20.98 186.01,21.84 186.18,22.34 186.35,22.57 186.52,22.72 186.69,22.77 186.86,22.54 187.03,22.30 187.20,22.26 187.37,22.37 187.54,22.26 187.71,21.82 187.88,21.44 188.05,21.54 188.22,21.27 188.39,21.16 188.56,20.83 188.73,20.91 188.90,20.51 189.08,19.99 189.25,20.13 189.42,19.59 189.59,19.03 189.76,18.39 189.93,18.36 190.10,17.52 190.27,16.90 190.44,15.99 190.61,15.61 190.78,15.14 190.95,15.80 191.12,16.08 191.29,15.39 191.46,15.77 191.63,15.40 191.80,15.87 191.97,17.08 192.14,16.37 192.31,16.94 192.48,16.34 192.65,16.87 192.82,16.18 192.99,16.85 193.16,17.91 193.33,17.64 193.50,17.23 193.67,15.91 193.84,16.78 194.01,14.95 194.18,14.41 194.35,13.25 194.52,14.00 194.69,13.70 194.86,15.54 195.03,15.23 195.20,17.01 195.37,17.88 195.55,17.75 195.72,17.63 195.89,17.53 196.06,17.47 196.23,17.29 196.40,17.08 196.57,17.18 196.74,17.03 196.91,16.56 197.08,16.38 197.25,16.82 197.42,16.71 197.59,16.91 197.76,16.99 197.93,16.99 198.10,16.96 198.27,16.57 198.44,16.28 198.61,14.82 198.78,13.53 198.95,14.55 199.12,13.19 199.29,13.06 199.46,12.89 199.63,13.91 199.80,13.78 199.97,12.67 200.14,13.91 200.31,14.12 200.48,14.48 200.65,15.22 200.82,15.22 200.99,15.84 201.16,15.92 201.33,15.74 201.50,15.76 201.67,15.60 201.84,15.60 202.02,15.57 202.19,14.90 202.36,14.06 202.53,13.32 202.70,12.90 202.87,12.84 203.04,13.59 203.21,14.51 203.38,14.60 203.55,14.89 203.72,14.82 203.89,14.72 204.06,14.52 204.23,14.09 204.40,13.22 204.57,12.22 204.74,11.38 204.91,13.13 205.08,12.58 205.25,11.74 205.42,11.06 205.59,12.87 205.76,12.81 205.93,12.56 206.10,12.56 206.27,12.03 206.44,9.98 206.61,10.29 206.78,11.61 206.95,11.07 207.12,11.46 207.29,10.87 207.46,11.46 207.63,12.87 207.80,12.46 207.97,12.92 208.14,13.03 208.31,13.03 208.49,12.98 208.66,12.87 208.83,12.78 209.00,12.65 209.17,12.53 209.34,12.44 209.51,12.40 209.68,12.57 209.85,12.41 210.02,12.34 210.19,12.24 210.36,12.20 210.53,12.00 210.70,11.96 210.87,11.96 211.04,11.95 211.21,11.88 211.38,11.80 211.55,11.75 211.72,11.61 211.89,11.50 212.06,11.51 212.23,11.49 212.40,11.34 212.57,11.20 212.74,11.06 212.91,11.01 213.08,11.06 213.25,10.99 213.42,10.91 213.59,10.84 213.76,10.69 213.93,10.59 214.10,10.59 214.27,10.40 214.44,10.08 214.61,9.76 214.78,9.69 214.96,9.48 215.13,9.60 215.30,9.64 215.47,9.73 215.64,9.78 215.81,9.78 215.98,9.58 216.15,9.44 216.32,9.39 216.49,9.36 216.66,9.26 216.83,9.01 217.00,8.50 217.17,7.75 217.34,7.58 217.51,7.58 217.68,7.20 217.85,6.63 218.02,7.68 218.19,7.28 218.36,8.04 218.53,7.84 218.70,8.16 218.87,7.97 219.04,7.85 219.21,7.66 219.38,7.66 219.55,7.15 219.72,6.74 219.89,6.43 220.06,5.94 220.23,5.29 220.40,4.79 220.57,4.92 220.74,5.36 220.91,5.39 221.08,5.48 221.25,5.38 221.43,5.32 221.60,5.00 221.77,5.53 221.94,4.92 222.11,5.38 222.28,5.00 222.45,5.36 222.62,5.13 222.79,5.06 222.96,4.48 223.13,54.08 223.30,54.81 223.47,54.81 223.64,54.81 223.81,54.81 223.98,50.64 224.15,54.45 224.32,54.45 224.49,54.45 224.66,51.87 224.83,51.87 225.00,51.87 225.17,53.34 225.34,53.34 225.51,53.34 225.68,51.79 225.85,51.79 226.02,51.79 226.19,51.79 226.36,52.84 226.53,52.84 226.70,52.84 226.87,52.84 227.04,54.64 227.21,54.64 227.38,54.64 227.55,54.64 227.72,53.80 227.90,53.80 228.07,53.80 228.24,55.11 228.41,55.43 228.58,55.43 228.75,54.47 228.92,54.47 229.09,54.47 229.26,51.82 229.43,51.82 229.60,51.82 229.77,48.66 229.94,48.66 230.11,48.66 230.28,53.03 230.45,49.86 230.62,49.86 230.79,49.86 230.96,48.74 231.13,48.74 231.30,48.74 231.47,52.37 231.64,52.37 231.81,52.37 231.98,51.78 232.15,51.78 232.32,51.78 232.49,51.78 232.66,50.65 232.83,50.65 233.00,50.65 233.17,49.21 233.34,50.31 233.51,50.31 233.68,49.17 233.85,49.17 234.02,49.17 234.19,46.73 234.37,46.73 234.54,46.73 234.71,44.21 234.88,44.22 235.05,44.22 235.22,44.22 235.39,41.29 235.56,41.29 235.73,41.40 235.90,41.40 236.07,37.25 236.24,37.25 236.41,38.33 236.58,38.33 236.75,34.06 236.92,34.06 237.09,35.76 237.26,32.07 237.43,32.07 237.60,32.07 237.77,32.07 237.94,30.30 238.11,30.30 238.28,30.30 238.45,31.92 238.62,31.92 238.79,31.92 238.96,30.76 239.13,30.76 239.30,30.76 239.47,30.76 239.64,31.90 239.81,31.90 239.98,31.90 240.15,32.45 240.32,32.45 240.49,32.45 240.66,32.45 240.83,29.12 241.01,29.12 241.18,29.12 241.35,29.62 241.52,29.62 241.69,29.62 241.86,26.79 242.03,26.79 242.20,31.30 242.37,31.30 242.54,27.63 242.71,27.63 242.88,27.63 243.05,24.09 243.22,24.09 243.39,24.09 243.56,27.01 243.73,27.01 243.90,27.01 244.07,27.01 244.24,24.86 244.41,24.86 244.58,24.86 244.75,25.72 244.92,25.72 245.09,25.72 245.26,27.97 245.43,27.97 245.60,27.97 245.77,29.30 245.94,29.30 246.11,29.30 246.28,28.62 246.45,28.62 246.62,28.62 246.79,27.71 246.96,27.71 247.13,27.71 247.30,24.08 247.48,26.42 247.65,26.42 247.82,26.42 247.99,30.33 248.16,30.33 248.33,30.33 248.50,27.83 248.67,33.78 248.84,33.78 249.01,31.09 249.18,31.09 249.35,31.09 249.52,31.81 249.69,31.81 249.86,30.08 250.03,30.08 250.20,30.08 250.37,29.73 250.54,31.25 250.71,31.25 250.88,28.23 251.05,28.23 251.22,27.47 251.39,27.47 251.56,27.47 251.73,29.12 251.90,29.12 252.07,29.06 252.24,29.06 252.41,29.06 252.58,28.67 252.75,28.67 252.92,28.67 253.09,26.33 253.26,26.33 253.43,28.31 253.60,28.31 253.77,28.31 253.95,26.36 254.12,26.36 254.29,26.36 254.46,26.36 254.63,27.00 254.80,24.83 254.97,24.83 255.14,26.75 255.31,26.75 255.48,26.75 255.65,24.86 255.82,26.32 255.99,26.32 256.16,24.95 256.33,24.95 256.50,25.30 256.67,25.30 256.84,25.30 257.01,20.99 257.18,20.99 257.35,20.99 257.52,20.99 257.69,22.60 257.86,17.55 258.03,17.55 258.20,19.07 258.37,19.07 258.54,21.08 258.71,21.08 258.88,21.08 259.05,22.53 259.22,22.53 259.39,22.32 259.56,22.32 259.73,22.32 259.90,22.04 260.07,22.04 260.24,22.04 260.42,21.82 260.59,21.82 260.76,21.82 260.93,20.83 261.10,20.82 261.27,20.82 261.44,20.82 261.61,20.76 261.78,20.76 261.95,19.45 262.12,19.45 262.29,19.48 262.46,19.48 262.63,17.71 262.80,17.71 262.97,17.26 263.14,17.26 263.31,15.17 263.48,15.17 263.65,16.10 263.82,16.10 263.99,16.10 264.16,17.35 264.33,17.35 264.50,17.35 264.67,15.38 264.84,15.38 265.01,18.58 265.18,18.58 265.35,16.93 265.52,16.93 265.69,16.93 265.86,15.23 266.03,17.75 266.20,17.75 266.37,17.75 266.54,13.41 266.71,15.87 266.89,15.87 267.06,15.87 267.23,12.77 267.40,12.77 267.57,16.46 267.74,16.71 267.91,16.71 268.08,16.71 268.25,16.71 268.42,17.52 268.59,17.52 268.76,17.52 268.93,17.52 269.10,16.98 269.27,16.98 269.44,16.98 269.61,16.98 269.78,16.39 269.95,16.39 270.12,16.39 270.29,16.39 270.46,16.31 270.63,16.31 270.80,16.31 270.97,16.31 271.14,15.53 271.31,15.53 271.48,15.99 271.65,13.19 271.82,13.19 271.99,13.19 272.16,13.19 272.33,12.71 272.50,12.71 272.67,12.71 272.84,15.31 273.01,13.19 273.18,13.19 273.36,13.19 273.53,15.21 273.70,14.68 273.87,14.68 274.04,14.68 274.21,13.97 274.38,14.99 274.55,14.99 274.72,14.99 274.89,14.99 275.06,13.89 275.23,13.89 275.40,13.89 275.57,13.13 275.74,13.13 275.91,13.13 276.08,13.83 276.25,13.83 276.42,13.83 276.59,14.64 276.76,14.64 276.93,14.64 277.10,14.24 277.27,14.24 277.44,14.24 277.61,13.56 277.78,13.56 277.95,13.56 278.12,12.62 278.29,12.62 278.46,12.62 278.63,11.99 278.80,11.99 278.97,11.99 279.14,11.99 279.31,11.99 279.48,11.99 279.65,11.99 279.83,10.21 280.00,10.21 280.17,10.21 280.34,12.71 280.51,11.48 280.68,11.48 280.85,11.48 281.02,12.94 281.19,12.70 281.36,12.70 281.53,12.70 281.70,12.70 281.87,12.47 282.04,12.47 282.21,11.94 282.38,12.19 282.55,12.19 282.72,12.19 282.89,12.04 283.06,12.04 283.23,12.04 283.40,11.89 283.57,11.89 283.74,9.79 283.91,9.79 284.08,10.40 284.25,10.40 284.42,10.40 284.59,10.81 284.76,10.81 284.93,10.81 285.10,11.06 285.27,11.06 285.44,11.06 285.61,10.97 285.78,9.92 285.95,9.92 286.12,10.64 286.30,10.64 286.47,10.64 286.64,10.51 286.81,10.51 286.98,10.51 287.15,10.51 287.32,9.73 287.49,9.73 287.66,9.73 287.83,9.87 288.00,9.87 288.17,9.87 288.34,9.62 288.51,9.62 288.68,9.62 288.85,9.62 289.02,9.38 289.19,9.38 289.36,9.38 289.53,8.84 289.70,8.84 289.87,8.84 290.04,7.01 290.21,7.01 290.38,8.36 290.55,8.36 290.72,7.36 290.89,7.36 291.06,7.36 291.23,6.62 291.40,8.14 291.57,8.14 291.74,7.81 291.91,7.81 292.08,7.81 292.25,7.06 292.42,7.06 292.59,7.06 292.77,7.06 292.94,6.12 293.11,6.12 293.28,6.12 293.45,5.62 293.62,5.62 293.79,5.62 293.96,5.31 294.13,5.31 294.30,5.31 294.47,4.05 294.64,4.05 294.81,5.93 294.98,5.18 295.15,5.18 295.32,5.18 295.49,5.18 295.66,4.42 295.83,4.95 296.00,4.00" />
</svg>