<svg width="300" height="60" xmlns="http://www.w3.org/2000/svg">
  <polyline fill="rgba(255,200,0,0.3)" stroke="#ffbb00" stroke-width="2" points="4.00,52.86 4.17,53.02 4.34,53.06 4.50,53.11 4.67,53.08 4.84,52.94 5.01,52.83 5.18,52.41 5.34,52.04 5.51,51.60 5.68,51.18 5.85,50.84 6.01,50.46 6.18,50.25 6.35,50.11 6.52,50.02 6.69,50.00 6.85,49.43 7.02,48.94 7.19,48.74 7.36,48.66 7.53,48.64 7.69,48.55 7.86,48.44 8.03,48.30 8.20,48.05 8.37,47.86 8.53,47.67 8.70,47.49 8.87,47.31 9.04,47.17 9.21,47.05 9.37,46.92 9.54,46.80 9.71,46.53 9.88,46.35 10.04,46.23 10.21,46.13 10.38,46.07 10.55,46.11 10.72,46.22 10.88,46.23 11.05,46.23 11.22,46.24 11.39,46.20 11.56,46.39 11.72,46.26 11.89,46.00 12.06,45.78 12.23,45.53 12.40,45.33 12.56,45.21 12.73,45.06 12.90,44.88 13.07,44.71 13.24,44.61 13.40,44.49 13.57,44.42 13.74,44.35 13.91,44.37 14.07,44.40 14.24,44.41 14.41,44.41 14.58,44.43 14.75,44.45 14.91,44.42 15.08,44.42 15.25,44.40 15.42,44.38 15.59,44.36 15.75,44.33 15.92,44.27 16.09,44.24 16.26,44.25 16.43,44.27 16.59,44.30 16.76,44.32 16.93,44.30 17.10,44.23 17.27,44.10 17.43,43.96 17.60,43.88 17.77,43.88 17.94,43.98 18.10,44.10 18.27,44.22 18.44,44.35 18.61,44.44 18.78,44.55 18.94,44.50 19.11,44.75 19.28,44.86 19.45,44.93 19.62,45.02 19.78,45.10 19.95,45.21 20.12,45.32 20.29,45.42 20.46,45.47 20.62,45.44 20.79,45.34 20.96,45.21 21.13,45.13 21.29,45.14 21.46,45.25 21.63,45.44 21.80,45.75 21.97,46.03 22.13,46.23 22.30,46.33 22.47,46.39 22.64,46.43 22.81,46.21 22.97,45.95 23.14,46.05 23.31,45.93 23.48,45.76 23.65,45.63 23.81,45.64 23.98,45.72 24.15,46.03 24.32,46.22 24.49,46.42 24.65,46.57 24.82,46.67 24.99,46.81 25.16,46.93 25.32,46.99 25.49,47.01 25.66,47.00 25.83,46.95 26.00,46.89 26.16,46.82 26.33,46.76 26.50,46.67 26.67,46.58 26.84,46.49 27.00,46.37 27.17,46.28 27.34,46.17 27.51,46.02 27.68,45.86 27.84,45.70 28.01,45.52 28.18,45.33 28.35,45.14 28.52,44.96 28.68,44.77 28.85,44.57 29.02,44.35 29.19,44.12 29.35,43.94 29.52,43.76 29.69,43.55 29.86,43.18 30.03,43.03 30.19,42.96 30.36,42.84 30.53,42.80 30.70,42.70 30.87,42.56 31.03,42.39 31.20,42.24 31.37,42.04 31.54,41.82 31.71,41.61 31.87,41.35 32.04,41.07 32.21,40.79 32.38,40.50 32.55,40.22 32.71,40.04 32.88,40.01 33.05,40.11 33.22,40.15 33.38,40.18 33.55,40.16 33.72,40.14 33.89,40.11 34.06,40.05 34.22,40.09 34.39,40.13 34.56,40.39 34.73,40.56 34.90,40.77 35.06,40.89 35.23,40.93 35.40,41.29 35.57,41.89 35.74,42.46 35.90,42.87 36.07,43.22 36.24,43.59 36.41,43.96 36.58,44.28 36.74,44.64 36.91,44.97 37.08,45.37 37.25,45.65 37.41,45.82 37.58,45.96 37.75,46.04 37.92,46.02 38.09,45.95 38.25,45.86 38.42,45.70 38.59,45.45 38.76,45.23 38.93,45.06 39.09,44.97 39.26,44.88 39.43,44.80 39.60,44.73 39.77,44.68 39.93,44.64 40.10,44.57 40.27,44.51 40.44,44.44 40.60,44.38 40.77,44.33 40.94,44.29 41.11,44.26 41.28,44.24 41.44,44.25 41.61,44.30 41.78,44.45 41.95,44.65 42.12,44.85 42.28,45.03 42.45,45.17 42.62,45.29 42.79,45.38 42.96,45.44 43.12,45.45 43.29,45.42 43.46,45.37 43.63,45.30 43.80,45.27 43.96,45.33 44.13,45.36 44.30,45.43 44.47,45.36 44.63,45.43 44.80,45.57 44.97,45.73 45.14,45.87 45.31,46.00 45.47,46.17 45.64,46.41 45.81,46.66 45.98,46.87 46.15,47.08 46.31,47.30 46.48,47.56 46.65,47.88 46.82,48.20 46.99,48.45 47.15,48.84 47.32,49.13 47.49,49.44 47.66,49.87 47.83,50.30 47.99,50.71 48.16,50.99 48.33,51.49 48.50,51.96 48.66,52.49 48.83,52.87 49.00,52.93 49.17,53.56 49.34,54.05 49.50,54.49 49.67,54.72 49.84,54.95 50.01,55.13 50.18,55.30 50.34,55.48 50.51,55.60 50.68,55.73 50.85,55.86 51.02,55.94 51.18,55.83 51.35,55.72 51.52,55.57 51.69,55.29 51.86,54.97 52.02,54.69 52.19,54.39 52.36,54.03 52.53,53.71 52.69,53.39 52.86,53.10 53.03,52.67 53.20,52.43 53.37,52.04 53.53,51.73 53.70,51.41 53.87,51.05 54.04,50.73 54.21,50.44 54.37,50.16 54.54,49.78 54.71,49.41 54.88,48.98 55.05,48.69 55.21,48.42 55.38,48.09 55.55,47.73 55.72,47.38 55.88,46.98 56.05,46.61 56.22,46.27 56.39,45.86 56.56,45.38 56.72,45.25 56.89,44.98 57.06,44.65 57.23,44.17 57.40,43.81 57.56,43.27 57.73,43.18 57.90,42.94 58.07,42.69 58.24,42.45 58.40,42.21 58.57,41.88 58.74,41.55 58.91,41.23 59.08,41.05 59.24,40.88 59.41,40.58 59.58,40.35 59.75,40.21 59.91,40.06 60.08,39.96 60.25,39.87 60.42,39.78 60.59,39.68 60.75,39.63 60.92,39.51 61.09,39.40 61.26,39.28 61.43,39.18 61.59,39.13 61.76,38.89 61.93,38.45 62.10,38.15 62.27,37.75 62.43,37.37 62.60,37.05 62.77,36.66 62.94,36.16 63.11,35.74 63.27,35.45 63.44,34.97 63.61,34.34 63.78,34.06 63.94,33.79 64.11,33.28 64.28,32.70 64.45,31.86 64.62,31.93 64.78,31.51 64.95,31.14 65.12,30.80 65.29,30.43 65.46,30.12 65.62,29.80 65.79,29.59 65.96,29.37 66.13,29.14 66.30,28.88 66.46,28.66 66.63,28.38 66.80,28.15 66.97,27.90 67.14,27.81 67.30,27.55 67.47,26.80 67.64,26.20 67.81,25.67 67.97,25.20 68.14,24.87 68.31,24.53 68.48,24.22 68.65,23.93 68.81,23.60 68.98,23.26 69.15,22.80 69.32,22.48 69.49,22.12 69.65,21.77 69.82,21.42 69.99,21.02 70.16,20.63 70.33,20.28 70.49,19.89 70.66,19.29 70.83,18.77 71.00,18.35 71.17,17.86 71.33,17.42 71.50,16.95 71.67,16.46 71.84,16.01 72.00,15.54 72.17,15.06 72.34,14.60 72.51,14.17 72.68,13.72 72.84,13.25 73.01,12.77 73.18,12.30 73.35,11.84 73.52,11.44 73.68,11.00 73.85,10.57 74.02,10.13 74.19,9.59 74.36,9.15 74.52,8.88 74.69,8.64 74.86,8.42 75.03,7.18 75.19,6.29 75.36,6.44 75.53,5.83 75.70,5.47 75.87,5.34 76.03,5.39 76.20,4.25 76.37,4.00 76.54,4.04 76.71,4.40 76.87,4.59 77.04,52.85 77.21,53.03 77.38,53.05 77.55,53.09 77.71,53.04 77.88,52.95 78.05,52.76 78.22,52.45 78.39,52.00 78.55,51.48 78.72,51.16 78.89,50.74 79.06,50.46 79.22,50.16 79.39,50.07 79.56,50.01 79.73,49.98 79.90,49.49 80.06,48.95 80.23,48.71 80.40,48.66 80.57,48.63 80.74,48.56 80.90,48.45 81.07,48.26 81.24,48.04 81.41,47.89 81.58,47.68 81.74,47.50 81.91,47.32 82.08,47.17 82.25,47.06 82.42,46.95 82.58,46.80 82.75,46.49 82.92,46.33 83.09,46.19 83.25,46.11 83.42,46.06 83.59,46.09 83.76,46.21 83.93,46.21 84.09,46.22 84.26,46.23 84.43,46.26 84.60,46.34 84.77,46.25 84.93,45.94 85.10,45.78 85.27,45.51 85.44,45.34 85.61,45.19 85.77,45.01 85.94,44.85 86.11,44.71 86.28,44.58 86.45,44.47 86.61,44.40 86.78,44.33 86.95,44.38 87.12,44.37 87.28,44.42 87.45,44.43 87.62,44.43 87.79,44.42 87.96,44.45 88.12,44.42 88.29,44.41 88.46,44.39 88.63,44.35 88.80,44.34 88.96,44.27 89.13,44.24 89.30,44.24 89.47,44.26 89.64,44.33 89.80,44.33 89.97,44.31 90.14,44.24 90.31,44.10 90.47,43.96 90.64,43.86 90.81,43.89 90.98,43.99 91.15,44.13 91.31,44.19 91.48,44.33 91.65,44.21 91.82,44.54 91.99,44.47 92.15,44.51 92.32,44.86 92.49,44.93 92.66,44.97 92.83,45.08 92.99,45.16 93.16,45.26 93.33,45.38 93.50,45.44 93.67,45.43 93.83,45.33 94.00,45.19 94.17,45.09 94.34,45.14 94.50,45.23 94.67,45.40 94.84,45.70 95.01,46.02 95.18,46.21 95.34,46.33 95.51,46.39 95.68,46.41 95.85,45.95 96.02,45.66 96.18,45.92 96.35,45.96 96.52,45.64 96.69,45.55 96.86,45.55 97.02,45.37 97.19,46.01 97.36,46.14 97.53,46.44 97.70,46.60 97.86,46.65 98.03,46.81 98.20,46.92 98.37,46.99 98.53,47.01 98.70,47.06 98.87,46.96 99.04,46.88 99.21,46.82 99.37,46.75 99.54,46.67 99.71,46.63 99.88,46.46 100.05,46.42 100.21,46.26 100.38,46.17 100.55,46.00 100.72,45.86 100.89,45.67 101.05,45.43 101.22,45.32 101.39,45.11 101.56,44.92 101.73,44.64 101.89,44.51 102.06,44.36 102.23,44.11 102.40,43.91 102.56,43.72 102.73,43.40 102.90,43.16 103.07,43.03 103.24,42.92 103.40,42.85 103.57,42.76 103.74,42.69 103.91,42.44 104.08,42.37 104.24,42.20 104.41,42.00 104.58,41.72 104.75,41.55 104.92,41.30 105.08,41.08 105.25,40.70 105.42,40.47 105.59,40.17 105.76,39.78 105.92,39.76 106.09,40.06 106.26,40.02 106.43,40.05 106.59,40.10 106.76,40.07 106.93,40.04 107.10,39.85 107.27,39.79 107.43,39.95 107.60,40.18 107.77,40.48 107.94,40.72 108.11,40.87 108.27,40.69 108.44,41.11 108.61,41.89 108.78,42.24 108.95,42.71 109.11,42.96 109.28,43.47 109.45,43.81 109.62,44.19 109.78,44.53 109.95,44.79 110.12,45.25 110.29,45.56 110.46,45.73 110.62,45.89 110.79,46.06 110.96,45.98 111.13,45.95 111.30,45.81 111.46,45.66 111.63,45.41 111.80,45.20 111.97,45.02 112.14,44.95 112.30,44.82 112.47,44.74 112.64,44.68 112.81,44.64 112.98,44.60 113.14,44.56 113.31,44.47 113.48,44.41 113.65,44.35 113.81,44.30 113.98,44.25 114.15,44.21 114.32,44.21 114.49,44.23 114.65,44.28 114.82,44.43 114.99,44.58 115.16,44.82 115.33,45.02 115.49,45.15 115.66,45.32 115.83,45.35 116.00,45.43 116.17,45.49 116.33,45.39 116.50,45.34 116.67,45.28 116.84,45.27 117.01,45.41 117.17,45.35 117.34,45.65 117.51,45.41 117.68,45.41 117.84,45.56 118.01,45.72 118.18,45.87 118.35,46.09 118.52,46.17 118.68,46.37 118.85,46.64 119.02,46.83 119.19,47.04 119.36,47.27 119.52,47.57 119.69,47.87 119.86,48.24 120.03,48.58 120.20,48.78 120.36,49.09 120.53,49.51 120.70,49.99 120.87,50.25 121.04,50.76 121.20,51.09 121.37,51.50 121.54,51.96 121.71,52.52 121.87,52.57 122.04,52.92 122.21,53.63 122.38,54.15 122.55,54.52 122.71,54.77 122.88,55.01 123.05,55.17 123.22,55.32 123.39,55.51 123.55,55.61 123.72,55.74 123.89,55.91 124.06,55.94 124.23,55.88 124.39,55.75 124.56,55.51 124.73,55.22 124.90,55.00 125.06,54.59 125.23,54.32 125.40,53.98 125.57,53.70 125.74,53.40 125.90,53.01 126.07,52.41 126.24,52.42 126.41,52.01 126.58,51.74 126.74,51.41 126.91,51.02 127.08,50.73 127.25,50.49 127.42,50.07 127.58,49.73 127.75,49.36 127.92,49.02 128.09,48.70 128.26,48.42 128.42,48.07 128.59,47.70 128.76,47.35 128.93,46.94 129.09,46.57 129.26,46.34 129.43,45.88 129.60,45.27 129.77,45.27 129.93,45.10 130.10,44.65 130.27,44.15 130.44,43.68 130.61,43.19 130.77,43.18 130.94,42.92 131.11,42.76 131.28,42.41 131.45,42.27 131.61,42.07 131.78,41.51 131.95,41.32 132.12,41.03 132.29,41.03 132.45,40.62 132.62,40.35 132.79,40.21 132.96,40.09 133.12,39.99 133.29,39.87 133.46,39.78 133.63,39.71 133.80,39.63 133.96,39.52 134.13,39.41 134.30,39.30 134.47,39.19 134.64,39.21 134.80,38.80 134.97,38.40 135.14,38.10 135.31,37.83 135.48,37.44 135.64,37.12 135.81,36.31 135.98,36.18 136.15,35.79 136.32,35.30 136.48,34.90 136.65,34.15 136.82,34.20 136.99,33.81 137.15,33.41 137.32,32.71 137.49,32.05 137.66,31.64 137.83,31.33 137.99,31.16 138.16,30.84 138.33,30.43 138.50,30.13 138.67,29.83 138.83,29.61 139.00,29.40 139.17,29.13 139.34,28.93 139.51,28.72 139.67,28.43 139.84,28.13 140.01,27.93 140.18,28.08 140.35,27.61 140.51,26.78 140.68,26.20 140.85,25.74 141.02,25.11 141.18,24.84 141.35,24.60 141.52,24.26 141.69,23.91 141.86,23.54 142.02,23.22 142.19,22.87 142.36,22.52 142.53,22.11 142.70,21.73 142.86,21.47 143.03,21.06 143.20,20.62 143.37,20.36 143.54,19.95 143.70,19.30 143.87,18.73 144.04,18.29 144.21,17.89 144.37,17.34 144.54,16.92 144.71,16.43 144.88,16.04 145.05,15.54 145.21,15.11 145.38,14.62 145.55,14.24 145.72,13.76 145.89,13.31 146.05,12.78 146.22,12.38 146.39,11.86 146.56,11.48 146.73,10.96 146.89,10.66 147.06,10.11 147.23,9.65 147.40,9.22 147.57,8.85 147.73,8.73 147.90,8.44 148.07,8.15 148.24,6.43 148.40,6.83 148.57,6.21 148.74,5.38 148.91,5.41 149.08,5.47 149.24,4.43 149.41,4.02 149.58,4.04 149.75,4.42 149.92,4.58 150.08,52.90 150.25,53.04 150.42,53.06 150.59,53.13 150.76,52.93 150.92,52.82 151.09,52.63 151.26,52.37 151.43,51.54 151.60,51.25 151.76,51.05 151.93,50.84 152.10,50.62 152.27,50.09 152.43,50.01 152.60,50.01 152.77,49.87 152.94,49.46 153.11,48.98 153.27,48.75 153.44,48.66 153.61,48.60 153.78,48.52 153.95,48.42 154.11,48.21 154.28,47.99 154.45,47.81 154.62,47.61 154.79,47.42 154.95,47.25 155.12,47.13 155.29,46.98 155.46,46.86 155.63,46.66 155.79,46.42 155.96,46.29 156.13,46.19 156.30,46.14 156.46,46.16 156.63,46.23 156.80,46.16 156.97,46.04 157.14,46.12 157.30,46.12 157.47,46.28 157.64,46.07 157.81,46.03 157.98,45.83 158.14,45.60 158.31,45.41 158.48,45.23 158.65,45.07 158.82,44.90 158.98,44.95 159.15,44.81 159.32,44.70 159.49,44.60 159.65,44.54 159.82,44.52 159.99,44.55 160.16,44.32 160.33,44.36 160.49,44.38 160.66,44.41 160.83,44.44 161.00,44.49 161.17,44.40 161.33,44.42 161.50,44.33 161.67,44.20 161.84,44.25 162.01,44.07 162.17,43.99 162.34,44.03 162.51,43.57 162.68,44.18 162.85,44.33 163.01,44.29 163.18,43.77 163.35,43.62 163.52,43.74 163.68,43.67 163.85,43.87 164.02,43.85 164.19,44.33 164.36,44.21 164.52,44.05 164.69,43.92 164.86,44.04 165.03,44.16 165.20,44.23 165.36,45.15 165.53,45.27 165.70,44.41 165.87,44.58 166.04,44.58 166.20,44.77 166.37,44.89 166.54,45.11 166.71,45.62 166.88,45.29 167.04,44.86 167.21,44.52 167.38,45.43 167.55,45.45 167.71,45.67 167.88,46.02 168.05,46.36 168.22,46.66 168.39,46.25 168.55,46.51 168.72,46.65 168.89,45.99 169.06,46.03 169.23,45.98 169.39,45.79 169.56,45.10 169.73,44.99 169.90,44.99 170.07,44.87 170.23,45.74 170.40,46.19 170.57,46.40 170.74,46.64 170.91,46.74 171.07,46.90 171.24,46.90 171.41,46.97 171.58,46.98 171.74,47.01 171.91,46.78 172.08,46.79 172.25,46.79 172.42,46.55 172.58,46.55 172.75,46.55 172.92,46.50 173.09,46.08 173.26,46.10 173.42,46.05 173.59,45.94 173.76,45.76 173.93,45.59 174.10,45.48 174.26,45.18 174.43,45.01 174.60,44.84 174.77,44.67 174.94,44.51 175.10,44.36 175.27,44.04 175.44,43.86 175.61,43.68 175.77,43.48 175.94,43.41 176.11,43.22 176.28,43.06 176.45,43.03 176.61,42.77 176.78,42.65 176.95,42.51 177.12,42.44 177.29,42.28 177.45,42.09 177.62,41.68 177.79,41.49 177.96,41.29 178.13,41.02 178.29,40.78 178.46,40.50 178.63,40.03 178.80,40.00 178.96,39.94 179.13,40.04 179.30,40.11 179.47,40.11 179.64,40.24 179.80,40.09 179.97,40.21 180.14,39.98 180.31,39.97 180.48,40.19 180.64,40.38 180.81,40.67 180.98,40.73 181.15,41.10 181.32,41.29 181.48,41.47 181.65,42.20 181.82,42.51 181.99,42.98 182.16,43.30 182.32,43.87 182.49,43.87 182.66,44.24 182.83,44.70 182.99,45.11 183.16,45.62 183.33,45.66 183.50,45.97 183.67,45.98 183.83,46.11 184.00,46.08 184.17,46.02 184.34,45.87 184.51,45.62 184.67,45.30 184.84,45.30 185.01,44.99 185.18,44.98 185.35,44.99 185.51,44.77 185.68,44.79 185.85,44.84 186.02,44.61 186.19,44.62 186.35,44.63 186.52,44.41 186.69,44.39 186.86,44.26 187.02,44.33 187.19,44.40 187.36,44.15 187.53,44.24 187.70,44.33 187.86,44.42 188.03,44.63 188.20,44.91 188.37,45.04 188.54,45.27 188.70,45.35 188.87,45.47 189.04,45.44 189.21,45.48 189.38,45.38 189.54,45.28 189.71,45.27 189.88,45.07 190.05,45.42 190.22,45.24 190.38,45.56 190.55,45.50 190.72,45.59 190.89,45.81 191.05,45.91 191.22,45.78 191.39,46.13 191.56,45.71 191.73,46.57 191.89,46.34 192.06,47.04 192.23,47.00 192.40,47.06 192.57,47.91 192.73,47.58 192.90,47.91 193.07,48.18 193.24,48.28 193.41,49.22 193.57,49.26 193.74,49.93 193.91,50.40 194.08,50.80 194.24,51.19 194.41,51.70 194.58,52.02 194.75,52.30 194.92,52.54 195.08,52.88 195.25,53.35 195.42,53.97 195.59,54.38 195.76,54.82 195.92,55.15 196.09,55.11 196.26,55.40 196.43,55.63 196.60,55.58 196.76,55.80 196.93,55.86 197.10,55.93 197.27,55.95 197.44,55.97 197.60,55.53 197.77,55.30 197.94,55.00 198.11,54.64 198.27,54.29 198.44,53.98 198.61,53.54 198.78,53.58 198.95,53.11 199.11,52.54 199.28,52.54 199.45,51.94 199.62,51.40 199.79,51.56 199.95,51.03 200.12,50.77 200.29,50.20 200.46,49.21 200.63,49.58 200.79,49.20 200.96,48.88 201.13,48.60 201.30,47.67 201.47,47.72 201.63,47.30 201.80,47.03 201.97,46.58 202.14,46.12 202.30,46.16 202.47,45.78 202.64,45.45 202.81,45.19 202.98,44.88 203.14,44.49 203.31,43.98 203.48,43.44 203.65,42.53 203.82,42.75 203.98,42.25 204.15,42.70 204.32,42.49 204.49,42.26 204.66,41.52 204.82,40.69 204.99,40.96 205.16,40.02 205.33,40.38 205.50,40.44 205.66,40.11 205.83,40.20 206.00,39.39 206.17,39.98 206.33,39.73 206.50,39.16 206.67,39.78 206.84,40.03 207.01,39.51 207.17,39.92 207.34,39.04 207.51,39.23 207.68,39.18 207.85,38.86 208.01,38.47 208.18,38.30 208.35,37.56 208.52,37.37 208.69,36.70 208.85,36.10 209.02,36.05 209.19,35.66 209.36,35.13 209.53,34.71 209.69,34.05 209.86,34.12 210.03,33.13 210.20,33.06 210.36,32.21 210.53,32.47 210.70,31.81 210.87,31.98 211.04,31.46 211.20,32.16 211.37,30.41 211.54,30.01 211.71,29.82 211.88,28.50 212.04,28.04 212.21,27.88 212.38,28.23 212.55,28.87 212.72,27.97 212.88,27.94 213.05,27.70 213.22,29.02 213.39,26.99 213.55,26.32 213.72,25.33 213.89,25.63 214.06,24.79 214.23,24.94 214.39,24.90 214.56,24.09 214.73,24.03 214.90,24.10 215.07,22.99 215.23,22.81 215.40,23.13 215.57,22.09 215.74,22.13 215.91,21.24 216.07,21.01 216.24,20.28 216.41,20.06 216.58,19.57 216.75,19.12 216.91,18.58 217.08,18.10 217.25,17.64 217.42,17.23 217.58,15.73 217.75,14.91 217.92,14.66 218.09,14.43 218.26,14.18 218.42,13.96 218.59,13.73 218.76,13.28 218.93,13.00 219.10,12.69 219.26,12.32 219.43,11.91 219.60,11.53 219.77,10.75 219.94,10.36 220.10,8.68 220.27,8.86 220.44,9.08 220.61,8.70 220.78,7.65 220.94,7.56 221.11,5.73 221.28,6.03 221.45,6.57 221.61,5.81 221.78,4.66 221.95,5.05 222.12,4.71 222.29,4.70 222.45,4.70 222.62,4.14 222.79,4.59 222.96,4.36 223.13,53.02 223.29,53.02 223.46,53.02 223.63,53.13 223.80,52.49 223.97,52.49 224.13,51.82 224.30,51.82 224.47,51.82 224.64,51.06 224.81,51.06 224.97,51.06 225.14,50.45 225.31,50.45 225.48,50.45 225.64,50.45 225.81,49.53 225.98,49.53 226.15,49.53 226.32,48.69 226.48,48.69 226.65,48.69 226.82,48.39 226.99,48.39 227.16,48.39 227.32,47.88 227.49,47.88 227.66,47.88 227.83,47.29 228.00,47.29 228.16,47.29 228.33,46.79 228.50,46.79 228.67,46.79 228.83,46.34 229.00,46.34 229.17,46.34 229.34,46.14 229.51,46.14 229.67,46.14 229.84,45.89 230.01,45.89 230.18,46.54 230.35,46.54 230.51,46.06 230.68,46.06 230.85,46.06 231.02,45.67 231.19,45.67 231.35,45.67 231.52,45.03 231.69,45.03 231.86,45.03 232.03,45.03 232.19,44.51 232.36,44.51 232.53,44.51 232.70,44.25 232.86,44.25 233.03,44.25 233.20,44.31 233.37,44.31 233.54,44.31 233.70,44.39 233.87,44.39 234.04,44.39 234.21,44.40 234.38,44.40 234.54,44.05 234.71,44.01 234.88,44.01 235.05,44.01 235.22,44.01 235.38,44.24 235.55,44.24 235.72,44.24 235.89,44.24 236.06,43.95 236.22,43.95 236.39,43.95 236.56,43.95 236.73,42.93 236.89,43.89 237.06,43.89 237.23,44.10 237.40,44.10 237.57,44.10 237.73,43.99 237.90,43.99 238.07,43.99 238.24,44.29 238.41,44.29 238.57,44.29 238.74,44.49 238.91,44.49 239.08,44.49 239.25,44.49 239.41,44.94 239.58,44.94 239.75,44.94 239.92,44.19 240.09,44.19 240.25,44.19 240.42,46.69 240.59,46.69 240.76,46.69 240.92,47.42 241.09,47.42 241.26,47.42 241.43,45.58 241.60,45.58 241.76,45.58 241.93,45.73 242.10,45.73 242.27,45.73 242.44,45.40 242.60,45.40 242.77,45.40 242.94,45.40 243.11,45.58 243.28,45.58 243.44,45.58 243.61,46.30 243.78,46.72 243.95,46.72 244.12,46.72 244.28,46.83 244.45,47.00 244.62,47.00 244.79,47.04 244.95,47.04 245.12,47.04 245.29,47.15 245.46,46.44 245.63,46.44 245.79,46.23 245.96,46.23 246.13,46.23 246.30,46.13 246.47,46.13 246.63,45.87 246.80,45.87 246.97,45.87 247.14,45.48 247.31,45.48 247.47,45.01 247.64,45.01 247.81,45.01 247.98,44.51 248.14,44.51 248.31,43.99 248.48,43.99 248.65,43.99 248.82,43.45 248.98,43.45 249.15,43.45 249.32,43.07 249.49,43.07 249.66,42.88 249.82,42.88 249.99,42.88 250.16,42.30 250.33,42.30 250.50,42.30 250.66,41.77 250.83,41.77 251.00,41.10 251.17,41.10 251.34,41.10 251.50,40.43 251.67,40.43 251.84,40.44 252.01,39.79 252.17,39.79 252.34,40.44 252.51,40.44 252.68,40.44 252.85,39.96 253.01,39.96 253.18,39.96 253.35,39.81 253.52,39.81 253.69,39.81 253.85,40.19 254.02,40.19 254.19,41.77 254.36,41.77 254.53,41.77 254.69,42.41 254.86,42.41 255.03,43.37 255.20,43.37 255.37,43.37 255.53,43.37 255.70,44.64 255.87,44.73 256.04,44.73 256.20,45.99 256.37,45.99 256.54,46.08 256.71,46.08 256.88,46.08 257.04,46.52 257.21,46.15 257.38,46.15 257.55,45.29 257.72,45.29 257.88,45.29 258.05,45.32 258.22,45.32 258.39,45.32 258.56,44.53 258.72,44.53 258.89,44.53 259.06,44.64 259.23,44.64 259.40,44.64 259.56,44.67 259.73,44.67 259.90,43.97 260.07,44.15 260.23,44.15 260.40,44.15 260.57,44.15 260.74,44.52 260.91,44.52 261.07,44.52 261.24,45.35 261.41,45.35 261.58,45.35 261.75,45.57 261.91,45.57 262.08,45.57 262.25,46.23 262.42,45.40 262.59,45.40 262.75,45.40 262.92,44.86 263.09,45.85 263.26,45.85 263.42,45.85 263.59,45.76 263.76,45.76 263.93,45.76 264.10,45.61 264.26,45.61 264.43,45.61 264.60,44.40 264.77,47.44 264.94,47.44 265.10,47.44 265.27,46.98 265.44,46.98 265.61,46.98 265.78,47.71 265.94,47.71 266.11,47.71 266.28,48.30 266.45,48.30 266.62,48.30 266.78,50.97 266.95,50.81 267.12,50.81 267.29,51.72 267.45,51.72 267.62,51.72 267.79,52.90 267.96,52.90 268.13,52.90 268.29,54.08 268.46,54.13 268.63,54.13 268.80,55.28 268.97,55.28 269.13,55.44 269.30,55.44 269.47,55.98 269.64,55.98 269.81,55.98 269.97,55.82 270.14,56.00 270.31,56.00 270.48,56.00 270.65,55.71 270.81,55.71 270.98,54.71 271.15,54.71 271.32,54.78 271.48,53.43 271.65,53.43 271.82,53.43 271.99,53.52 272.16,51.84 272.32,51.84 272.49,51.84 272.66,52.07 272.83,52.07 273.00,50.38 273.16,50.38 273.33,50.38 273.50,48.74 273.67,50.48 273.84,49.54 274.00,49.54 274.17,49.54 274.34,47.21 274.51,47.21 274.68,47.21 274.84,47.81 275.01,46.25 275.18,46.25 275.35,46.25 275.51,46.25 275.68,45.21 275.85,45.21 276.02,45.21 276.19,43.89 276.35,43.89 276.52,43.89 276.69,41.80 276.86,42.28 277.03,42.28 277.19,42.28 277.36,44.24 277.53,41.43 277.70,41.43 277.87,41.43 278.03,42.72 278.20,39.04 278.37,39.04 278.54,38.84 278.71,38.84 278.87,39.44 279.04,39.44 279.21,39.44 279.38,41.91 279.54,40.22 279.71,40.22 279.88,40.22 280.05,41.28 280.22,41.28 280.38,38.26 280.55,38.26 280.72,39.32 280.89,39.32 281.06,39.32 281.22,39.36 281.39,37.37 281.56,37.37 281.73,37.19 281.90,37.19 282.06,35.51 282.23,35.51 282.40,35.51 282.57,33.81 282.73,33.81 282.90,33.99 283.07,33.99 283.24,33.99 283.41,31.96 283.57,31.96 283.74,31.96 283.91,31.96 284.08,29.95 284.25,32.18 284.41,29.68 284.58,29.68 284.75,29.68 284.92,28.20 285.09,28.20 285.25,28.20 285.42,28.55 285.59,28.55 285.76,28.55 285.93,29.13 286.09,29.13 286.26,29.13 286.43,26.99 286.60,26.99 286.76,26.99 286.93,26.99 287.10,24.17 287.27,24.17 287.44,24.17 287.60,24.27 287.77,24.27 287.94,24.27 288.11,24.66 288.28,24.66 288.44,24.66 288.61,20.99 288.78,20.99 288.95,20.99 289.12,20.99 289.28,20.30 289.45,20.30 289.62,19.88 289.79,20.09 289.96,18.35 290.12,18.35 290.29,18.35 290.46,17.06 290.63,17.06 290.79,16.14 290.96,16.14 291.13,16.14 291.30,15.33 291.47,15.33 291.63,15.33 291.80,14.77 291.97,14.77 292.14,13.86 292.31,13.86 292.47,13.86 292.64,12.41 292.81,12.41 292.98,11.32 293.15,8.17 293.31,8.17 293.48,9.81 293.65,9.81 293.82,9.81 293.99,8.17 294.15,5.64 294.32,5.43 294.49,5.43 294.66,5.43 294.82,5.43 294.99,5.63 295.16,5.63 295.33,5.63 295.50,5.63 295.66,4.03 295.83,4.03 296.00,4.03" />
</svg>