<svg width="300" height="60" xmlns="http://www.w3.org/2000/svg">
  <polyline fill="rgba(255,200,0,0.3)" stroke="#ffbb00" stroke-width="2" points="4.00,4.78 4.43,5.27 4.86,5.84 5.30,6.27 5.73,6.58 6.16,5.97 6.59,5.88 7.02,6.12 7.46,5.87 7.89,6.21 8.32,7.19 8.75,9.28 9.18,10.28 9.62,10.51 10.05,10.98 10.48,11.52 10.91,12.22 11.34,12.13 11.78,12.38 12.21,12.83 12.64,12.11 13.07,11.98 13.50,12.64 13.93,13.56 14.37,12.99 14.80,13.57 15.23,14.68 15.66,14.78 16.09,13.90 16.53,13.83 16.96,14.48 17.39,13.90 17.82,13.85 18.25,14.18 18.69,14.42 19.12,14.63 19.55,15.12 19.98,15.17 20.41,15.25 20.85,15.90 21.28,16.49 21.71,16.97 22.14,17.26 22.57,17.41 23.01,17.49 23.44,17.62 23.87,17.93 24.30,18.26 24.73,18.59 25.17,18.57 25.60,18.64 26.03,55.20 26.46,55.70 26.89,56.00 27.33,4.78 27.76,5.27 28.19,5.85 28.62,6.26 29.05,6.60 29.49,6.04 29.92,5.90 30.35,6.12 30.78,5.89 31.21,6.24 31.64,7.21 32.08,9.27 32.51,10.28 32.94,10.55 33.37,11.00 33.80,11.52 34.24,12.33 34.67,12.14 35.10,12.40 35.53,12.84 35.96,12.14 36.40,11.96 36.83,12.67 37.26,13.45 37.69,12.97 38.12,13.53 38.56,14.66 38.99,14.78 39.42,13.97 39.85,13.83 40.28,14.48 40.72,13.93 41.15,13.89 41.58,14.18 42.01,14.42 42.44,14.64 42.88,15.16 43.31,15.19 43.74,15.23 44.17,16.00 44.60,16.52 45.04,17.02 45.47,17.27 45.90,17.42 46.33,17.49 46.76,17.61 47.20,17.91 47.63,18.24 48.06,18.55 48.49,18.55 48.92,18.60 49.36,18.70 49.79,18.74 50.22,18.77 50.65,18.80 51.08,18.75 51.51,18.56 51.95,18.31 52.38,18.01 52.81,17.68 53.24,17.70 53.67,18.13 54.11,18.30 54.54,18.62 54.97,18.34 55.40,17.70 55.83,17.08 56.27,17.03 56.70,18.06 57.13,19.46 57.56,19.90 57.99,20.86 58.43,20.31 58.86,20.73 59.29,22.40 59.72,23.92 60.15,24.77 60.59,25.52 61.02,25.98 61.45,26.41 61.88,26.69 62.31,26.95 62.75,27.25 63.18,27.59 63.61,27.99 64.04,28.12 64.47,28.63 64.91,29.12 65.34,28.74 65.77,28.99 66.20,28.89 66.63,29.06 67.07,29.73 67.50,30.20 67.93,30.53 68.36,30.70 68.79,30.77 69.22,30.67 69.66,31.12 70.09,31.25 70.52,31.38 70.95,31.46 71.38,30.96 71.82,30.59 72.25,28.49 72.68,27.61 73.11,28.96 73.54,32.04 73.98,34.29 74.41,34.60 74.84,34.36 75.27,34.56 75.70,33.63 76.14,33.63 76.57,33.83 77.00,35.34 77.43,37.19 77.86,39.04 78.30,37.63 78.73,36.26 79.16,34.98 79.59,34.20 80.02,36.12 80.46,34.87 80.89,35.30 81.32,36.48 81.75,38.43 82.18,37.37 82.62,36.34 83.05,35.76 83.48,36.40 83.91,37.21 84.34,38.82 84.78,39.46 85.21,39.72 85.64,39.64 86.07,39.80 86.50,41.83 86.93,44.00 87.37,45.76 87.80,48.74 88.23,49.47 88.66,52.08 89.09,53.82 89.53,54.92 89.96,55.09 90.39,53.89 90.82,52.37 91.25,52.22 91.69,52.83 92.12,53.54 92.55,54.25 92.98,54.91 93.41,55.20 93.85,55.70 94.28,4.83 94.71,5.20 95.14,5.75 95.57,6.24 96.01,6.75 96.44,6.26 96.87,5.98 97.30,6.39 97.73,5.89 98.17,6.38 98.60,7.34 99.03,9.00 99.46,9.92 99.89,10.54 100.33,11.02 100.76,11.42 101.19,12.05 101.62,12.10 102.05,12.01 102.49,12.87 102.92,12.20 103.35,12.09 103.78,12.84 104.21,14.28 104.64,13.47 105.08,14.21 105.51,15.10 105.94,14.91 106.37,14.74 106.80,13.97 107.24,14.60 107.67,14.04 108.10,13.93 108.53,14.42 108.96,14.60 109.40,14.77 109.83,15.28 110.26,15.54 110.69,15.91 111.12,16.21 111.56,16.72 111.99,17.27 112.42,17.35 112.85,17.50 113.28,17.57 113.72,17.72 114.15,18.05 114.58,18.35 115.01,18.62 115.44,18.59 115.88,18.70 116.31,18.80 116.74,18.80 117.17,18.83 117.60,18.83 118.04,18.80 118.47,18.82 118.90,18.64 119.33,18.26 119.76,17.83 120.20,18.09 120.63,18.58 121.06,18.31 121.49,18.92 121.92,18.92 122.36,18.40 122.79,17.66 123.22,17.63 123.65,18.99 124.08,19.65 124.51,20.17 124.95,21.05 125.38,20.33 125.81,20.88 126.24,22.70 126.67,24.25 127.11,25.18 127.54,25.70 127.97,26.19 128.40,26.60 128.83,26.83 129.27,27.11 129.70,27.36 130.13,27.72 130.56,28.12 130.99,28.24 131.43,28.47 131.86,28.96 132.29,28.75 132.72,29.20 133.15,28.92 133.59,29.14 134.02,29.89 134.45,30.40 134.88,30.39 135.31,31.02 135.75,31.03 136.18,30.82 136.61,31.03 137.04,31.23 137.47,31.28 137.91,31.64 138.34,31.09 138.77,30.38 139.20,29.17 139.63,27.99 140.07,29.58 140.50,31.49 140.93,34.36 141.36,34.70 141.79,34.88 142.22,34.45 142.66,33.94 143.09,33.85 143.52,34.04 143.95,35.09 144.38,37.22 144.82,39.15 145.25,37.73 145.68,35.85 146.11,34.36 146.54,34.78 146.98,36.06 147.41,34.88 147.84,35.59 148.27,36.32 148.70,38.77 149.14,37.78 149.57,36.38 150.00,35.88 150.43,36.96 150.86,37.12 151.30,39.10 151.73,39.43 152.16,39.68 152.59,39.62 153.02,39.76 153.46,41.95 153.89,44.10 154.32,46.75 154.75,48.88 155.18,49.99 155.62,52.07 156.05,54.31 156.48,54.98 156.91,55.31 157.34,54.49 157.78,52.17 158.21,52.18 158.64,52.83 159.07,53.62 159.50,54.17 159.93,55.04 160.37,55.30 160.80,55.44 161.23,55.66 161.66,4.63 162.09,4.63 162.53,5.32 162.96,5.78 163.39,6.23 163.82,5.88 164.25,5.07 164.69,5.78 165.12,5.31 165.55,6.20 165.98,7.34 166.41,7.30 166.85,9.08 167.28,10.21 167.71,10.65 168.14,11.09 168.57,11.59 169.01,11.92 169.44,11.98 169.87,12.46 170.30,12.48 170.73,12.08 171.17,13.11 171.60,13.11 172.03,13.70 172.46,14.20 172.89,14.04 173.33,14.49 173.76,14.92 174.19,14.34 174.62,14.48 175.05,14.12 175.49,14.16 175.92,14.16 176.35,14.70 176.78,15.14 177.21,14.71 177.64,15.53 178.08,15.80 178.51,16.31 178.94,15.74 179.37,16.76 179.80,17.17 180.24,17.51 180.67,17.33 181.10,17.65 181.53,17.87 181.96,18.10 182.40,18.46 182.83,18.62 183.26,18.62 183.69,18.68 184.12,18.75 184.56,18.75 184.99,18.75 185.42,18.55 185.85,18.09 186.28,17.71 186.72,18.43 187.15,17.39 187.58,17.06 188.01,18.04 188.44,18.07 188.88,18.80 189.31,18.39 189.74,17.38 190.17,18.12 190.60,17.93 191.04,18.48 191.47,20.37 191.90,19.16 192.33,21.02 192.76,20.06 193.20,21.24 193.63,21.71 194.06,24.70 194.49,25.19 194.92,25.81 195.36,26.21 195.79,26.57 196.22,26.82 196.65,27.12 197.08,27.39 197.51,27.83 197.95,28.10 198.38,28.21 198.81,28.61 199.24,28.73 199.67,28.56 200.11,28.99 200.54,29.15 200.97,29.29 201.40,29.64 201.83,30.02 202.27,30.24 202.70,30.40 203.13,30.67 203.56,30.66 203.99,30.53 204.43,30.65 204.86,31.02 205.29,30.64 205.72,30.18 206.15,29.72 206.59,28.78 207.02,28.31 207.45,29.09 207.88,31.83 208.31,34.35 208.75,35.15 209.18,34.59 209.61,34.47 210.04,34.31 210.47,34.44 210.91,34.59 211.34,35.51 211.77,37.13 212.20,38.52 212.63,38.00 213.07,34.77 213.50,35.42 213.93,33.65 214.36,36.19 214.79,34.41 215.22,35.58 215.66,35.08 216.09,37.82 216.52,38.08 216.95,36.08 217.38,36.72 217.82,35.72 218.25,37.77 218.68,37.83 219.11,39.73 219.54,39.38 219.98,39.05 220.41,39.24 220.84,42.64 221.27,44.80 221.70,47.27 222.14,48.47 222.57,50.68 223.00,51.98 223.43,54.10 223.86,54.44 224.30,54.94 224.73,53.77 225.16,51.91 225.59,53.08 226.02,53.13 226.46,53.84 226.89,54.61 227.32,54.97 227.75,55.30 228.18,55.67 228.62,56.00 229.05,4.00 229.48,4.00 229.91,5.12 230.34,5.12 230.78,5.12 231.21,6.16 231.64,4.98 232.07,4.98 232.50,7.51 232.93,7.51 233.37,7.51 233.80,7.51 234.23,9.74 234.66,10.55 235.09,10.55 235.53,11.78 235.96,11.78 236.39,11.78 236.82,11.28 237.25,11.28 237.69,11.29 238.12,12.51 238.55,12.51 238.98,12.51 239.41,12.51 239.85,14.06 240.28,14.06 240.71,14.06 241.14,14.06 241.57,12.61 242.01,14.52 242.44,14.52 242.87,13.24 243.30,13.24 243.73,15.52 244.17,15.52 244.60,14.46 245.03,14.46 245.46,16.43 245.89,16.43 246.33,15.56 246.76,15.56 247.19,17.15 247.62,17.15 248.05,17.63 248.49,17.63 248.92,18.03 249.35,18.03 249.78,18.31 250.21,18.31 250.64,18.31 251.08,18.74 251.51,17.88 251.94,17.88 252.37,17.88 252.80,18.78 253.24,16.49 253.67,16.49 254.10,18.43 254.53,18.43 254.96,16.28 255.40,16.28 255.83,17.99 256.26,17.99 256.69,17.99 257.12,16.82 257.56,16.82 257.99,16.82 258.42,21.27 258.85,21.27 259.28,17.39 259.72,17.39 260.15,21.95 260.58,21.95 261.01,21.95 261.44,25.36 261.88,24.48 262.31,26.39 262.74,26.39 263.17,26.39 263.60,27.13 264.04,27.13 264.47,25.90 264.90,27.67 265.33,27.67 265.76,27.67 266.20,28.10 266.63,28.10 267.06,27.92 267.49,28.80 267.92,28.80 268.36,28.80 268.79,29.27 269.22,29.27 269.65,29.27 270.08,29.55 270.51,29.55 270.95,29.85 271.38,29.85 271.81,29.85 272.24,29.84 272.67,29.84 273.11,29.06 273.54,29.06 273.97,29.06 274.40,32.15 274.83,31.29 275.27,31.29 275.70,36.74 276.13,36.74 276.56,35.94 276.99,35.94 277.43,35.94 277.86,36.83 278.29,36.83 278.72,36.83 279.15,36.83 279.59,32.84 280.02,32.84 280.45,32.84 280.88,28.51 281.31,28.51 281.75,35.70 282.18,32.86 282.61,32.86 283.04,32.86 283.47,30.69 283.91,36.58 284.34,36.58 284.77,33.60 285.20,33.60 285.63,33.60 286.07,33.46 286.50,39.57 286.93,39.57 287.36,40.87 287.79,40.87 288.22,46.83 288.66,46.83 289.09,46.83 289.52,49.45 289.95,49.45 290.38,49.45 290.82,53.75 291.25,53.75 291.68,53.75 292.11,52.34 292.54,52.34 292.98,52.34 293.41,54.65 293.84,54.65 294.27,55.26 294.70,55.80 295.14,55.80 295.57,55.80 296.00,55.95" />
</svg>