<svg width="300" height="60" xmlns="http://www.w3.org/2000/svg">
  <polyline fill="rgba(255,200,0,0.3)" stroke="#ffbb00" stroke-width="2" points="4.00,53.87 4.57,54.40 5.13,54.31 5.70,54.18 6.27,54.10 6.83,53.59 7.40,53.34 7.97,53.65 8.54,54.91 9.10,55.93 9.67,55.37 10.24,55.60 10.80,55.96 11.37,55.21 11.94,53.92 12.50,53.87 13.07,54.46 13.64,54.39 14.21,53.86 14.77,53.32 15.34,52.86 15.91,52.27 16.47,51.99 17.04,51.60 17.61,51.29 18.17,51.01 18.74,50.93 19.31,50.77 19.88,50.61 20.44,50.41 21.01,50.84 21.58,52.11 22.14,52.80 22.71,52.90 23.28,51.94 23.84,50.39 24.41,49.44 24.98,48.97 25.55,48.86 26.11,48.79 26.68,48.43 27.25,48.52 27.81,48.96 28.38,49.45 28.95,50.59 29.51,51.42 30.08,51.13 30.65,51.13 31.22,50.55 31.78,50.42 32.35,50.53 32.92,50.36 33.48,50.57 34.05,50.88 34.62,52.98 35.18,53.52 35.75,53.32 36.32,52.83 36.89,51.78 37.45,51.21 38.02,50.53 38.59,49.89 39.15,49.48 39.72,49.65 40.29,49.83 40.85,48.40 41.42,47.19 41.99,45.36 42.56,44.13 43.12,43.30 43.69,41.61 44.26,39.32 44.82,36.64 45.39,33.20 45.96,31.40 46.52,30.50 47.09,30.21 47.66,29.77 48.23,29.91 48.79,30.17 49.36,30.15 49.93,29.50 50.49,29.45 51.06,29.30 51.63,28.71 52.19,27.98 52.76,27.24 53.33,26.53 53.90,26.26 54.46,26.08 55.03,25.90 55.60,25.78 56.16,26.00 56.73,25.53 57.30,25.37 57.86,24.98 58.43,24.42 59.00,23.82 59.57,23.25 60.13,22.66 60.70,22.05 61.27,21.69 61.83,20.78 62.40,19.42 62.97,18.74 63.53,17.43 64.10,17.53 64.67,17.55 65.23,17.12 65.80,16.08 66.37,14.15 66.94,13.24 67.50,13.81 68.07,14.32 68.64,14.25 69.20,13.18 69.77,12.04 70.34,11.25 70.90,11.25 71.47,10.82 72.04,9.90 72.61,8.80 73.17,7.69 73.74,6.70 74.31,6.15 74.87,5.86 75.44,6.00 76.01,6.53 76.57,6.89 77.14,53.93 77.71,54.08 78.28,54.06 78.84,54.07 79.41,53.67 79.98,53.35 80.54,53.23 81.11,53.52 81.68,54.75 82.24,56.00 82.81,55.07 83.38,55.63 83.95,55.97 84.51,54.84 85.08,53.89 85.65,53.89 86.21,54.44 86.78,54.37 87.35,53.76 87.91,53.19 88.48,52.61 89.05,52.09 89.62,51.93 90.18,51.59 90.75,51.29 91.32,51.03 91.88,50.79 92.45,50.74 93.02,50.57 93.58,50.42 94.15,50.71 94.72,52.09 95.29,53.10 95.85,52.84 96.42,51.95 96.99,50.48 97.55,49.19 98.12,48.92 98.69,48.75 99.25,48.38 99.82,48.42 100.39,48.40 100.96,48.81 101.52,49.27 102.09,50.57 102.66,51.44 103.22,51.09 103.79,50.74 104.36,50.43 104.92,50.17 105.49,50.44 106.06,50.26 106.63,50.54 107.19,50.93 107.76,52.71 108.33,53.42 108.89,53.29 109.46,52.85 110.03,51.63 110.59,51.09 111.16,50.49 111.73,49.80 112.30,49.57 112.86,49.68 113.43,49.81 114.00,48.78 114.56,47.52 115.13,45.62 115.70,43.84 116.26,43.13 116.83,40.72 117.40,39.21 117.97,36.11 118.53,33.10 119.10,31.15 119.67,30.45 120.23,30.18 120.80,29.78 121.37,29.84 121.93,30.25 122.50,30.02 123.07,29.39 123.63,29.49 124.20,29.26 124.77,28.69 125.34,27.86 125.90,27.27 126.47,26.54 127.04,26.19 127.60,26.03 128.17,25.64 128.74,25.72 129.30,26.01 129.87,25.50 130.44,25.39 131.01,23.93 131.57,24.45 132.14,23.61 132.71,22.94 133.27,22.74 133.84,21.89 134.41,21.67 134.97,20.27 135.54,19.55 136.11,18.86 136.68,17.38 137.24,17.56 137.81,17.44 138.38,17.15 138.94,15.78 139.51,14.37 140.08,13.14 140.64,13.82 141.21,14.27 141.78,14.06 142.35,13.18 142.91,11.78 143.48,11.48 144.05,11.37 144.61,10.89 145.18,9.60 145.75,8.78 146.31,7.66 146.88,6.71 147.45,5.82 148.02,5.80 148.58,5.81 149.15,6.50 149.72,7.03 150.28,54.03 150.85,53.65 151.42,54.81 151.98,55.01 152.55,53.59 153.12,53.83 153.69,54.11 154.25,54.39 154.82,54.90 155.39,55.86 155.95,54.61 156.52,54.94 157.09,55.04 157.65,54.45 158.22,54.45 158.79,53.76 159.36,54.50 159.92,54.08 160.49,53.64 161.06,53.34 161.62,53.11 162.19,52.00 162.76,51.90 163.32,51.82 163.89,51.75 164.46,51.52 165.03,51.13 165.59,50.68 166.16,50.49 166.73,50.86 167.29,50.81 167.86,52.48 168.43,52.69 168.99,52.69 169.56,51.82 170.13,50.71 170.70,48.91 171.26,48.91 171.83,48.28 172.40,49.20 172.96,48.85 173.53,48.04 174.10,49.14 174.66,49.90 175.23,50.25 175.80,51.64 176.37,51.27 176.93,51.10 177.50,50.74 178.07,49.43 178.63,50.48 179.20,50.15 179.77,51.06 180.33,51.23 180.90,53.26 181.47,53.20 182.03,52.86 182.60,52.78 183.17,51.99 183.74,51.14 184.30,50.12 184.87,50.16 185.44,49.40 186.00,49.73 186.57,49.37 187.14,48.16 187.70,46.97 188.27,44.98 188.84,42.86 189.41,42.13 189.97,42.13 190.54,38.76 191.11,36.32 191.67,33.61 192.24,31.74 192.81,30.97 193.37,29.92 193.94,29.60 194.51,30.12 195.08,30.20 195.64,29.95 196.21,29.68 196.78,29.50 197.34,28.84 197.91,28.20 198.48,27.51 199.04,27.31 199.61,26.78 200.18,26.06 200.75,26.21 201.31,25.83 201.88,25.80 202.45,25.80 203.01,25.47 203.58,24.67 204.15,24.34 204.71,23.82 205.28,23.00 205.85,22.55 206.42,22.06 206.98,21.12 207.55,21.34 208.12,20.53 208.68,19.58 209.25,18.31 209.82,17.28 210.38,17.89 210.95,17.26 211.52,16.96 212.09,15.54 212.65,14.19 213.22,13.57 213.79,13.44 214.35,14.57 214.92,14.04 215.49,13.89 216.05,11.96 216.62,11.77 217.19,11.97 217.76,10.67 218.32,10.37 218.89,9.09 219.46,7.84 220.02,6.65 220.59,5.72 221.16,6.06 221.72,6.11 222.29,6.60 222.86,6.33 223.43,55.15 223.99,55.15 224.56,55.15 225.13,55.48 225.69,55.48 226.26,55.48 226.83,55.74 227.39,55.74 227.96,55.74 228.53,53.11 229.10,53.69 229.66,53.69 230.23,53.69 230.80,54.82 231.36,54.82 231.93,54.82 232.50,53.67 233.06,53.67 233.63,53.67 234.20,52.93 234.77,52.93 235.33,52.93 235.90,52.71 236.47,52.71 237.03,51.61 237.60,51.61 238.17,51.61 238.73,49.78 239.30,49.78 239.87,51.01 240.43,51.01 241.00,51.01 241.57,49.86 242.14,49.86 242.70,49.86 243.27,49.86 243.84,49.81 244.40,49.81 244.97,46.70 245.54,49.57 246.10,49.57 246.67,49.57 247.24,49.57 247.81,52.03 248.37,52.03 248.94,52.03 249.51,50.05 250.07,50.05 250.64,52.26 251.21,48.63 251.77,48.63 252.34,48.63 252.91,52.37 253.48,52.37 254.04,52.37 254.61,51.56 255.18,51.56 255.74,51.56 256.31,51.56 256.88,48.82 257.44,49.08 258.01,49.08 258.58,49.08 259.15,46.86 259.71,46.86 260.28,44.76 260.85,42.01 261.41,42.01 261.98,42.01 262.55,37.27 263.11,37.27 263.68,32.60 264.25,32.60 264.82,30.99 265.38,30.99 265.95,30.99 266.52,28.57 267.08,28.57 267.65,29.32 268.22,29.32 268.78,29.32 269.35,28.82 269.92,28.82 270.49,27.12 271.05,27.12 271.62,27.33 272.19,27.33 272.75,24.82 273.32,24.82 273.89,25.66 274.45,25.66 275.02,23.93 275.59,23.93 276.16,24.36 276.72,24.36 277.29,21.94 277.86,21.94 278.42,21.87 278.99,20.08 279.56,20.08 280.12,20.08 280.69,20.08 281.26,17.74 281.83,17.74 282.39,17.74 282.96,14.58 283.53,16.24 284.09,16.24 284.66,16.24 285.23,13.72 285.79,13.20 286.36,13.20 286.93,13.20 287.50,15.41 288.06,13.03 288.63,13.03 289.20,13.61 289.76,13.61 290.33,13.61 290.90,13.28 291.46,13.28 292.03,9.05 292.60,9.05 293.17,9.05 293.73,4.99 294.30,6.85 294.87,6.85 295.43,6.78 296.00,4.00" />
</svg>