<svg width="300" height="60" xmlns="http://www.w3.org/2000/svg">
  <polyline fill="rgba(255,200,0,0.3)" stroke="#ffbb00" stroke-width="2" points="4.00,41.02 4.06,41.18 4.12,41.24 4.17,41.37 4.23,41.39 4.29,41.57 4.35,41.76 4.41,41.97 4.46,42.14 4.52,42.55 4.58,42.86 4.64,42.68 4.70,42.55 4.76,42.50 4.81,42.34 4.87,42.29 4.93,41.88 4.99,40.20 5.05,40.01 5.10,39.85 5.16,39.80 5.22,39.80 5.28,39.92 5.34,40.10 5.39,40.21 5.45,40.25 5.51,40.37 5.57,40.50 5.63,40.55 5.68,40.65 5.74,40.87 5.80,41.21 5.86,41.44 5.92,41.42 5.98,41.50 6.03,41.45 6.09,42.56 6.15,41.89 6.21,41.72 6.27,41.63 6.32,41.85 6.38,42.17 6.44,43.11 6.50,43.48 6.56,43.47 6.61,43.68 6.67,44.49 6.73,44.62 6.79,44.68 6.85,44.76 6.90,44.92 6.96,44.75 7.02,44.78 7.08,44.77 7.14,44.89 7.20,45.17 7.25,44.47 7.31,44.13 7.37,44.08 7.43,44.17 7.49,44.83 7.54,45.76 7.60,46.43 7.66,46.76 7.72,46.95 7.78,47.04 7.83,47.04 7.89,46.71 7.95,46.24 8.01,46.73 8.07,46.68 8.12,46.54 8.18,46.29 8.24,45.67 8.30,45.02 8.36,44.30 8.42,43.88 8.47,43.27 8.53,44.21 8.59,44.28 8.65,44.20 8.71,44.15 8.76,44.01 8.82,43.83 8.88,43.58 8.94,43.43 9.00,43.09 9.05,42.41 9.11,42.37 9.17,42.64 9.23,42.98 9.29,43.14 9.35,43.03 9.40,42.03 9.46,41.66 9.52,41.62 9.58,41.58 9.64,42.13 9.69,42.41 9.75,42.35 9.81,42.20 9.87,42.43 9.93,42.52 9.98,42.39 10.04,42.16 10.10,42.25 10.16,42.23 10.22,42.56 10.27,42.00 10.33,42.30 10.39,43.44 10.45,43.72 10.51,44.11 10.57,44.53 10.62,44.17 10.68,43.58 10.74,43.69 10.80,44.61 10.86,45.29 10.91,45.42 10.97,44.99 11.03,45.00 11.09,45.34 11.15,45.47 11.20,45.65 11.26,45.93 11.32,46.25 11.38,46.43 11.44,46.45 11.49,46.75 11.55,46.66 11.61,46.74 11.67,47.01 11.73,48.37 11.79,49.05 11.84,49.71 11.90,49.53 11.96,50.18 12.02,50.48 12.08,50.53 12.13,50.51 12.19,52.00 12.25,51.23 12.31,50.16 12.37,49.72 12.42,49.38 12.48,48.97 12.54,48.44 12.60,47.86 12.66,47.23 12.71,47.30 12.77,46.93 12.83,46.66 12.89,45.43 12.95,44.87 13.01,45.08 13.06,44.81 13.12,44.64 13.18,44.60 13.24,44.14 13.30,43.87 13.35,43.65 13.41,44.28 13.47,43.88 13.53,43.52 13.59,43.04 13.64,42.65 13.70,42.53 13.76,42.62 13.82,42.22 13.88,42.05 13.93,41.76 13.99,40.93 14.05,40.52 14.11,39.93 14.17,39.47 14.23,39.06 14.28,38.63 14.34,38.13 14.40,37.61 14.46,37.41 14.52,37.01 14.57,36.86 14.63,36.72 14.69,36.46 14.75,36.09 14.81,35.70 14.86,35.29 14.92,34.86 14.98,34.65 15.04,34.42 15.10,34.24 15.15,34.25 15.21,33.59 15.27,33.22 15.33,32.75 15.39,32.36 15.45,32.13 15.50,31.82 15.56,31.66 15.62,31.36 15.68,31.17 15.74,30.95 15.79,30.71 15.85,30.52 15.91,30.34 15.97,30.33 16.03,30.08 16.08,29.93 16.14,29.86 16.20,29.82 16.26,29.82 16.32,29.95 16.37,30.18 16.43,30.39 16.49,30.25 16.55,30.33 16.61,30.43 16.67,30.51 16.72,30.59 16.78,30.66 16.84,30.76 16.90,30.92 16.96,31.10 17.01,31.28 17.07,31.49 17.13,31.66 17.19,31.83 17.25,31.94 17.30,32.04 17.36,32.12 17.42,32.17 17.48,32.18 17.54,32.20 17.59,32.26 17.65,32.29 17.71,32.34 17.77,32.34 17.83,32.35 17.89,32.25 17.94,32.03 18.00,31.90 18.06,31.67 18.12,31.26 18.18,31.00 18.23,30.72 18.29,30.57 18.35,30.45 18.41,30.15 18.47,29.41 18.52,29.41 18.58,29.62 18.64,29.74 18.70,29.77 18.76,29.27 18.81,28.75 18.87,28.28 18.93,27.78 18.99,27.34 19.05,26.89 19.11,26.71 19.16,26.39 19.22,25.84 19.28,25.46 19.34,25.03 19.40,24.55 19.45,24.15 19.51,24.04 19.57,23.86 19.63,24.19 19.69,24.43 19.74,24.41 19.80,24.38 19.86,24.19 19.92,24.73 19.98,25.24 20.04,25.58 20.09,25.80 20.15,26.21 20.21,26.37 20.27,26.54 20.33,26.56 20.38,26.58 20.44,26.53 20.50,26.40 20.56,26.23 20.62,26.03 20.67,25.81 20.73,25.44 20.79,25.01 20.85,24.95 20.91,24.94 20.96,25.09 21.02,25.21 21.08,25.31 21.14,25.38 21.20,25.40 21.26,25.42 21.31,25.47 21.37,25.56 21.43,25.72 21.49,25.79 21.55,25.70 21.60,25.33 21.66,25.48 21.72,25.86 21.78,26.01 21.84,26.41 21.89,26.26 21.95,25.95 22.01,25.65 22.07,25.21 22.13,24.92 22.18,24.67 22.24,24.14 22.30,23.69 22.36,23.20 22.42,22.87 22.48,22.90 22.53,22.91 22.59,23.15 22.65,23.60 22.71,24.06 22.77,24.52 22.82,24.96 22.88,25.44 22.94,25.88 23.00,26.23 23.06,26.74 23.11,27.07 23.17,27.37 23.23,27.72 23.29,28.10 23.35,28.49 23.40,28.95 23.46,29.44 23.52,29.85 23.58,30.25 23.64,30.57 23.70,30.90 23.75,31.30 23.81,31.68 23.87,32.05 23.93,32.51 23.99,32.98 24.04,33.36 24.10,33.70 24.16,33.84 24.22,33.88 24.28,34.05 24.33,34.16 24.39,34.24 24.45,34.37 24.51,34.46 24.57,34.53 24.62,34.49 24.68,34.75 24.74,34.81 24.80,34.88 24.86,34.96 24.92,35.10 24.97,35.26 25.03,35.41 25.09,35.49 25.15,35.59 25.21,35.67 25.26,35.82 25.32,35.97 25.38,36.02 25.44,36.35 25.50,35.92 25.55,35.34 25.61,34.75 25.67,33.86 25.73,32.49 25.79,31.55 25.84,30.90 25.90,30.42 25.96,30.37 26.02,30.77 26.08,31.38 26.14,31.67 26.19,31.70 26.25,31.25 26.31,31.01 26.37,30.99 26.43,31.29 26.48,31.16 26.54,30.95 26.60,30.71 26.66,30.44 26.72,30.11 26.77,29.81 26.83,29.49 26.89,29.16 26.95,28.87 27.01,28.54 27.06,28.22 27.12,27.81 27.18,27.51 27.24,27.16 27.30,26.85 27.36,26.44 27.41,26.10 27.47,25.82 27.53,25.58 27.59,25.64 27.65,25.97 27.70,26.41 27.76,26.84 27.82,27.21 27.88,27.58 27.94,27.94 27.99,28.34 28.05,28.88 28.11,29.26 28.17,29.55 28.23,29.86 28.28,30.22 28.34,30.66 28.40,31.13 28.46,31.65 28.52,32.17 28.58,32.67 28.63,33.20 28.69,33.73 28.75,34.33 28.81,34.64 28.87,34.96 28.92,35.50 28.98,35.79 29.04,35.94 29.10,36.02 29.16,36.04 29.21,35.96 29.27,35.83 29.33,35.56 29.39,35.04 29.45,34.34 29.50,33.87 29.56,32.53 29.62,31.71 29.68,31.17 29.74,31.15 29.80,30.76 29.85,30.16 29.91,29.65 29.97,29.45 30.03,30.09 30.09,30.14 30.14,30.11 30.20,30.41 30.26,30.12 30.32,29.74 30.38,29.33 30.43,28.83 30.49,28.40 30.55,28.01 30.61,27.76 30.67,27.81 30.73,27.98 30.78,28.15 30.84,28.31 30.90,28.47 30.96,28.56 31.02,28.51 31.07,28.42 31.13,28.32 31.19,28.13 31.25,28.05 31.31,27.83 31.36,27.58 31.42,27.17 31.48,26.35 31.54,25.80 31.60,25.42 31.65,24.98 31.71,24.53 31.77,24.52 31.83,24.91 31.89,24.94 31.95,24.95 32.00,25.16 32.06,25.41 32.12,25.55 32.18,25.83 32.24,26.03 32.29,26.15 32.35,26.20 32.41,26.25 32.47,26.37 32.53,26.46 32.58,26.58 32.64,26.38 32.70,25.89 32.76,25.63 32.82,25.60 32.87,25.68 32.93,26.40 32.99,26.92 33.05,27.78 33.11,28.31 33.17,28.77 33.22,29.07 33.28,29.17 33.34,29.53 33.40,30.49 33.46,31.03 33.51,31.50 33.57,31.28 33.63,31.46 33.69,31.50 33.75,31.61 33.80,31.83 33.86,32.43 33.92,33.31 33.98,33.78 34.04,34.04 34.09,34.23 34.15,34.42 34.21,34.54 34.27,34.68 34.33,34.79 34.39,34.91 34.44,35.06 34.50,35.30 34.56,35.54 34.62,35.34 34.68,35.16 34.73,35.01 34.79,34.92 34.85,34.34 34.91,34.15 34.97,33.88 35.02,33.88 35.08,33.73 35.14,33.46 35.20,32.99 35.26,32.64 35.31,32.22 35.37,32.61 35.43,32.93 35.49,33.23 35.55,33.22 35.61,33.02 35.66,32.67 35.72,32.44 35.78,32.45 35.84,32.53 35.90,32.60 35.95,32.53 36.01,32.44 36.07,32.36 36.13,32.25 36.19,32.05 36.24,31.85 36.30,31.59 36.36,31.25 36.42,30.80 36.48,30.15 36.53,29.42 36.59,28.68 36.65,27.54 36.71,26.14 36.77,25.33 36.83,24.46 36.88,23.74 36.94,23.08 37.00,22.67 37.06,22.39 37.12,22.53 37.17,22.33 37.23,21.85 37.29,21.24 37.35,20.83 37.41,19.50 37.46,18.23 37.52,17.78 37.58,18.06 37.64,17.99 37.70,17.38 37.75,16.88 37.81,16.17 37.87,15.75 37.93,14.43 37.99,13.37 38.05,13.93 38.10,13.74 38.16,13.30 38.22,12.50 38.28,11.43 38.34,11.73 38.39,11.68 38.45,11.94 38.51,12.38 38.57,12.90 38.63,13.51 38.68,14.02 38.74,14.54 38.80,14.92 38.86,15.23 38.92,15.47 38.97,15.65 39.03,15.80 39.09,15.91 39.15,15.97 39.21,15.97 39.27,15.91 39.32,15.84 39.38,15.78 39.44,15.77 39.50,15.86 39.56,15.90 39.61,16.14 39.67,16.56 39.73,16.85 39.79,17.50 39.85,17.82 39.90,18.20 39.96,18.54 40.02,18.70 40.08,19.10 40.14,19.27 40.19,19.52 40.25,19.48 40.31,19.48 40.37,19.46 40.43,19.48 40.49,19.54 40.54,19.63 40.60,19.77 40.66,19.92 40.72,20.11 40.78,20.33 40.83,20.51 40.89,20.70 40.95,20.91 41.01,21.10 41.07,21.28 41.12,21.44 41.18,21.60 41.24,21.73 41.30,21.86 41.36,21.93 41.42,22.06 41.47,22.25 41.53,22.43 41.59,22.57 41.65,22.34 41.71,22.22 41.76,22.14 41.82,22.19 41.88,22.36 41.94,22.49 42.00,22.69 42.05,23.51 42.11,24.46 42.17,24.68 42.23,24.98 42.29,25.57 42.34,25.83 42.40,25.94 42.46,25.96 42.52,25.60 42.58,24.42 42.64,24.65 42.69,25.27 42.75,26.45 42.81,26.67 42.87,27.90 42.93,28.02 42.98,28.22 43.04,28.38 43.10,28.55 43.16,28.63 43.22,28.68 43.27,28.72 43.33,28.74 43.39,28.72 43.45,28.71 43.51,28.61 43.56,28.14 43.62,28.30 43.68,28.21 43.74,28.41 43.80,28.24 43.86,28.44 43.91,28.80 43.97,29.35 44.03,29.21 44.09,29.67 44.15,30.16 44.20,30.55 44.26,30.68 44.32,30.88 44.38,31.00 44.44,31.06 44.49,31.20 44.55,31.27 44.61,31.40 44.67,31.56 44.73,31.68 44.78,31.85 44.84,32.09 44.90,32.31 44.96,32.52 45.02,32.74 45.08,32.95 45.13,33.14 45.19,33.14 45.25,33.16 45.31,33.31 45.37,33.25 45.42,33.60 45.48,33.68 45.54,33.77 45.60,33.90 45.66,33.92 45.71,33.92 45.77,33.95 45.83,33.96 45.89,33.97 45.95,34.05 46.00,34.38 46.06,34.38 46.12,34.61 46.18,35.00 46.24,35.08 46.30,35.17 46.35,35.13 46.41,35.14 46.47,35.18 46.53,35.05 46.59,35.20 46.64,35.11 46.70,34.91 46.76,34.95 46.82,34.59 46.88,34.78 46.93,34.49 46.99,34.20 47.05,34.37 47.11,34.45 47.17,34.65 47.22,34.81 47.28,35.03 47.34,35.28 47.40,35.58 47.46,35.82 47.52,36.03 47.57,36.30 47.63,36.48 47.69,36.66 47.75,36.69 47.81,36.55 47.86,36.41 47.92,36.26 47.98,36.26 48.04,36.49 48.10,37.12 48.15,37.55 48.21,37.03 48.27,36.77 48.33,36.42 48.39,36.21 48.44,36.12 48.50,36.63 48.56,36.55 48.62,37.63 48.68,38.15 48.74,38.24 48.79,38.30 48.85,38.37 48.91,38.44 48.97,38.51 49.03,38.54 49.08,38.55 49.14,38.58 49.20,38.61 49.26,38.64 49.32,38.55 49.37,38.45 49.43,38.27 49.49,38.16 49.55,38.00 49.61,37.94 49.66,38.28 49.72,38.67 49.78,38.95 49.84,39.25 49.90,39.81 49.96,39.59 50.01,39.40 50.07,39.66 50.13,39.69 50.19,39.42 50.25,39.28 50.30,38.94 50.36,38.44 50.42,38.03 50.48,38.10 50.54,37.41 50.59,37.31 50.65,37.26 50.71,37.21 50.77,37.16 50.83,37.11 50.88,37.07 50.94,37.02 51.00,36.99 51.06,36.93 51.12,36.78 51.18,36.78 51.23,36.10 51.29,36.40 51.35,36.97 51.41,37.66 51.47,37.97 51.52,38.34 51.58,38.65 51.64,39.06 51.70,39.90 51.76,40.27 51.81,40.62 51.87,40.99 51.93,41.38 51.99,41.81 52.05,42.19 52.11,42.58 52.16,42.92 52.22,43.19 52.28,43.50 52.34,43.66 52.40,43.59 52.45,43.91 52.51,44.56 52.57,45.26 52.63,45.61 52.69,45.93 52.74,46.26 52.80,46.57 52.86,46.95 52.92,47.35 52.98,47.73 53.03,48.03 53.09,48.27 53.15,47.73 53.21,47.73 53.27,47.69 53.33,48.84 53.38,50.07 53.44,50.42 53.50,50.54 53.56,50.48 53.62,51.10 53.67,51.37 53.73,51.66 53.79,51.90 53.85,52.00 53.91,51.64 53.96,51.98 54.02,52.44 54.08,52.81 54.14,53.02 54.20,53.22 54.25,53.40 54.31,53.75 54.37,54.04 54.43,54.39 54.49,54.58 54.55,54.89 54.60,54.97 54.66,54.92 54.72,54.91 54.78,55.53 54.84,54.89 54.89,54.65 54.95,54.51 55.01,54.26 55.07,54.11 55.13,53.46 55.18,53.21 55.24,53.31 55.30,53.49 55.36,53.69 55.42,53.61 55.47,53.55 55.53,53.81 55.59,53.97 55.65,54.14 55.71,53.74 55.77,53.69 55.82,53.20 55.88,52.92 55.94,52.76 56.00,52.62 56.06,52.60 56.11,52.61 56.17,52.82 56.23,54.02 56.29,54.96 56.35,55.00 56.40,54.24 56.46,54.31 56.52,54.37 56.58,54.52 56.64,54.79 56.69,54.57 56.75,54.54 56.81,54.40 56.87,54.31 56.93,54.24 56.99,54.09 57.04,54.09 57.10,54.19 57.16,54.10 57.22,54.17 57.28,54.31 57.33,54.36 57.39,54.60 57.45,55.35 57.51,54.92 57.57,54.68 57.62,53.97 57.68,53.71 57.74,53.56 57.80,53.02 57.86,52.60 57.91,52.19 57.97,51.50 58.03,51.17 58.09,50.94 58.15,50.61 58.21,51.42 58.26,52.85 58.32,53.53 58.38,54.47 58.44,54.41 58.50,53.71 58.55,52.73 58.61,51.78 58.67,51.02 58.73,50.40 58.79,49.87 58.84,49.37 58.90,48.87 58.96,48.46 59.02,48.04 59.08,47.79 59.13,47.62 59.19,47.89 59.25,48.42 59.31,49.11 59.37,49.95 59.43,50.86 59.48,51.72 59.54,52.33 59.60,52.41 59.66,52.39 59.72,52.58 59.77,52.72 59.83,52.81 59.89,52.77 59.95,52.26 60.01,52.08 60.06,52.20 60.12,52.34 60.18,52.37 60.24,52.53 60.30,52.77 60.35,52.63 60.41,52.45 60.47,52.20 60.53,51.94 60.59,51.72 60.65,51.44 60.70,51.44 60.76,52.53 60.82,52.87 60.88,52.90 60.94,51.64 60.99,51.63 61.05,51.90 61.11,52.04 61.17,52.16 61.23,52.41 61.28,52.27 61.34,52.20 61.40,52.13 61.46,52.08 61.52,52.01 61.58,51.91 61.63,51.80 61.69,51.74 61.75,51.63 61.81,51.42 61.87,51.24 61.92,50.99 61.98,49.93 62.04,49.30 62.10,50.05 62.16,50.18 62.21,49.51 62.27,50.40 62.33,50.10 62.39,49.76 62.45,49.64 62.50,49.19 62.56,49.05 62.62,48.73 62.68,47.35 62.74,46.85 62.80,43.67 62.85,43.18 62.91,43.42 62.97,44.52 63.03,44.25 63.09,44.24 63.14,43.82 63.20,43.50 63.26,43.70 63.32,42.83 63.38,42.32 63.43,41.97 63.49,41.60 63.55,41.29 63.61,40.65 63.67,39.71 63.72,37.19 63.78,36.14 63.84,35.45 63.90,34.92 63.96,34.29 64.02,33.73 64.07,32.54 64.13,32.08 64.19,32.10 64.25,32.21 64.31,32.49 64.36,35.43 64.42,35.51 64.48,35.27 64.54,34.69 64.60,34.25 64.65,33.88 64.71,33.53 64.77,33.15 64.83,32.43 64.89,31.91 64.94,31.63 65.00,31.22 65.06,30.73 65.12,30.32 65.18,29.91 65.24,29.42 65.29,29.11 65.35,28.66 65.41,28.22 65.47,27.81 65.53,27.44 65.58,27.01 65.64,26.66 65.70,25.94 65.76,24.47 65.82,23.65 65.87,23.02 65.93,22.52 65.99,21.69 66.05,21.06 66.11,20.60 66.16,20.30 66.22,19.85 66.28,19.56 66.34,19.37 66.40,18.94 66.46,18.53 66.51,18.09 66.57,17.87 66.63,17.57 66.69,17.06 66.75,16.96 66.80,17.20 66.86,16.88 66.92,17.13 66.98,17.37 67.04,17.77 67.09,18.18 67.15,18.16 67.21,18.00 67.27,17.59 67.33,17.07 67.38,16.51 67.44,16.04 67.50,15.60 67.56,15.13 67.62,14.75 67.68,14.48 67.73,14.18 67.79,13.95 67.85,13.71 67.91,13.46 67.97,13.20 68.02,12.87 68.08,12.52 68.14,12.22 68.20,11.89 68.26,11.56 68.31,11.32 68.37,11.06 68.43,10.83 68.49,10.75 68.55,10.62 68.60,10.59 68.66,10.62 68.72,10.66 68.78,10.76 68.84,10.89 68.90,11.01 68.95,11.17 69.01,11.30 69.07,11.44 69.13,11.55 69.19,11.63 69.24,11.76 69.30,11.87 69.36,11.96 69.42,11.98 69.48,11.88 69.53,11.73 69.59,11.66 69.65,11.64 69.71,11.55 69.77,11.42 69.82,11.32 69.88,11.27 69.94,11.20 70.00,10.91 70.06,10.69 70.12,10.32 70.17,9.98 70.23,9.42 70.29,8.09 70.35,7.61 70.41,7.21 70.46,7.16 70.52,6.84 70.58,6.95 70.64,6.81 70.70,7.04 70.75,6.97 70.81,6.94 70.87,6.87 70.93,6.79 70.99,6.45 71.04,5.94 71.10,6.39 71.16,6.34 71.22,6.47 71.28,6.39 71.34,6.40 71.39,6.44 71.45,6.55 71.51,6.64 71.57,6.58 71.63,6.93 71.68,7.12 71.74,7.34 71.80,7.35 71.86,18.42 71.92,18.71 71.97,19.62 72.03,20.34 72.09,20.97 72.15,21.44 72.21,21.43 72.27,21.71 72.32,22.07 72.38,22.54 72.44,22.74 72.50,23.11 72.56,24.01 72.61,24.36 72.67,25.51 72.73,26.08 72.79,26.16 72.85,26.42 72.90,26.07 72.96,26.51 73.02,27.22 73.08,27.89 73.14,27.91 73.19,28.10 73.25,28.50 73.31,29.03 73.37,29.30 73.43,29.58 73.49,29.73 73.54,29.63 73.60,29.74 73.66,29.91 73.72,30.56 73.78,30.84 73.83,31.11 73.89,31.03 73.95,30.54 74.01,30.86 74.07,31.24 74.12,31.77 74.18,32.44 74.24,33.57 74.30,33.97 74.36,34.17 74.41,34.29 74.47,34.47 74.53,34.74 74.59,35.01 74.65,35.38 74.71,35.70 74.76,36.08 74.82,36.12 74.88,36.08 74.94,36.65 75.00,37.03 75.05,37.53 75.11,38.07 75.17,38.23 75.23,38.44 75.29,39.00 75.34,38.81 75.40,38.93 75.46,39.21 75.52,39.45 75.58,39.62 75.63,38.98 75.69,39.02 75.75,39.09 75.81,39.24 75.87,39.42 75.93,39.61 75.98,39.79 76.04,39.88 76.10,39.87 76.16,39.79 76.22,39.74 76.27,39.69 76.33,39.65 76.39,39.51 76.45,39.25 76.51,39.24 76.56,39.70 76.62,39.94 76.68,40.65 76.74,40.83 76.80,41.01 76.85,40.92 76.91,40.87 76.97,41.11 77.03,41.16 77.09,41.25 77.15,41.41 77.20,41.40 77.26,41.59 77.32,41.76 77.38,41.97 77.44,42.12 77.49,42.54 77.55,42.84 77.61,42.64 77.67,42.58 77.73,42.50 77.78,42.34 77.84,42.29 77.90,41.81 77.96,40.28 78.02,40.07 78.07,39.72 78.13,39.78 78.19,39.89 78.25,39.79 78.31,40.05 78.37,40.20 78.42,40.30 78.48,40.27 78.54,40.47 78.60,40.53 78.66,40.52 78.71,40.85 78.77,41.29 78.83,41.59 78.89,41.43 78.95,41.46 79.00,41.51 79.06,42.53 79.12,41.92 79.18,41.59 79.24,41.63 79.29,41.82 79.35,42.30 79.41,43.08 79.47,43.51 79.53,43.48 79.59,43.72 79.64,44.57 79.70,44.58 79.76,44.61 79.82,44.80 79.88,44.84 79.93,44.75 79.99,44.78 80.05,44.75 80.11,44.78 80.17,45.23 80.22,44.53 80.28,44.11 80.34,44.05 80.40,44.31 80.46,44.81 80.51,45.72 80.57,46.44 80.63,46.75 80.69,46.94 80.75,47.03 80.81,47.05 80.86,46.70 80.92,46.44 80.98,46.69 81.04,46.74 81.10,46.58 81.15,46.32 81.21,45.65 81.27,45.01 81.33,44.37 81.39,43.84 81.44,43.27 81.50,44.13 81.56,44.28 81.62,44.18 81.68,44.13 81.73,44.01 81.79,43.84 81.85,43.59 81.91,43.43 81.97,42.90 82.03,42.61 82.08,42.37 82.14,42.72 82.20,42.88 82.26,43.14 82.32,43.03 82.37,42.14 82.43,41.79 82.49,41.61 82.55,41.61 82.61,42.10 82.66,42.34 82.72,42.34 82.78,42.21 82.84,42.44 82.90,42.53 82.96,42.55 83.01,42.25 83.07,42.29 83.13,42.02 83.19,42.48 83.25,42.08 83.30,42.27 83.36,43.48 83.42,43.67 83.48,44.10 83.54,44.53 83.59,44.08 83.65,43.60 83.71,43.81 83.77,44.54 83.83,44.87 83.88,45.51 83.94,44.88 84.00,45.09 84.06,45.58 84.12,45.36 84.18,45.65 84.23,46.00 84.29,46.38 84.35,46.41 84.41,46.48 84.47,46.63 84.52,46.63 84.58,46.75 84.64,47.06 84.70,48.42 84.76,49.00 84.81,49.71 84.87,49.73 84.93,50.19 84.99,50.48 85.05,50.52 85.10,50.50 85.16,51.97 85.22,51.40 85.28,50.18 85.34,49.75 85.40,49.36 85.45,49.00 85.51,48.48 85.57,47.85 85.63,47.21 85.69,47.38 85.74,46.93 85.80,46.65 85.86,45.66 85.92,44.84 85.98,44.97 86.03,44.59 86.09,44.66 86.15,44.53 86.21,44.35 86.27,43.92 86.32,43.70 86.38,44.27 86.44,43.91 86.50,43.52 86.56,43.04 86.62,42.63 86.67,42.58 86.73,42.78 86.79,42.26 86.85,41.98 86.91,41.72 86.96,40.92 87.02,40.54 87.08,18.43 87.14,18.68 87.20,19.69 87.25,20.37 87.31,20.93 87.37,21.43 87.43,21.50 87.49,21.47 87.54,22.29 87.60,22.40 87.66,22.66 87.72,23.08 87.78,23.89 87.84,24.45 87.89,25.39 87.95,25.99 88.01,26.06 88.07,26.26 88.13,26.42 88.18,26.55 88.24,27.36 88.30,27.88 88.36,27.79 88.42,28.09 88.47,28.71 88.53,29.04 88.59,29.25 88.65,29.54 88.71,29.80 88.76,29.84 88.82,29.85 88.88,29.75 88.94,30.24 89.00,30.81 89.06,30.86 89.11,30.82 89.17,30.68 89.23,30.79 89.29,31.21 89.35,31.75 89.40,32.61 89.46,33.53 89.52,33.99 89.58,34.15 89.64,34.29 89.69,34.47 89.75,34.72 89.81,35.01 89.87,35.35 89.93,35.72 89.98,36.08 90.04,36.11 90.10,36.27 90.16,36.67 90.22,37.11 90.28,37.37 90.33,38.07 90.39,38.21 90.45,38.44 90.51,39.04 90.57,38.81 90.62,38.96 90.68,39.25 90.74,39.42 90.80,39.61 90.86,38.96 90.91,39.03 90.97,39.10 91.03,39.24 91.09,39.42 91.15,39.60 91.20,39.75 91.26,39.85 91.32,39.85 91.38,39.79 91.44,39.74 91.50,39.69 91.55,39.68 91.61,39.53 91.67,39.23 91.73,39.26 91.79,39.58 91.84,40.04 91.90,40.64 91.96,40.66 92.02,41.07 92.08,40.88 92.13,40.94 92.19,41.02 92.25,40.92 92.31,40.54 92.37,39.92 92.42,39.47 92.48,39.10 92.54,38.63 92.60,38.17 92.66,37.59 92.72,37.42 92.77,37.04 92.83,36.85 92.89,36.75 92.95,36.45 93.01,36.08 93.06,35.72 93.12,35.32 93.18,34.86 93.24,34.64 93.30,34.47 93.35,34.24 93.41,34.25 93.47,33.58 93.53,33.18 93.59,32.75 93.65,32.37 93.70,32.12 93.76,31.83 93.82,31.63 93.88,31.33 93.94,31.14 93.99,30.93 94.05,30.71 94.11,30.54 94.17,30.37 94.23,30.31 94.28,30.09 94.34,29.94 94.40,29.87 94.46,29.82 94.52,29.84 94.57,29.96 94.63,30.27 94.69,30.42 94.75,30.24 94.81,30.32 94.87,30.43 94.92,30.51 94.98,30.59 95.04,30.66 95.10,30.77 95.16,30.92 95.21,31.09 95.27,31.29 95.33,31.48 95.39,31.65 95.45,31.82 95.50,31.94 95.56,32.04 95.62,32.12 95.68,32.16 95.74,32.18 95.79,32.20 95.85,32.26 95.91,32.29 95.97,32.33 96.03,32.35 96.09,32.35 96.14,32.25 96.20,32.02 96.26,31.88 96.32,31.67 96.38,31.29 96.43,31.02 96.49,30.74 96.55,30.60 96.61,30.47 96.67,30.07 96.72,29.42 96.78,29.42 96.84,29.58 96.90,29.79 96.96,29.77 97.01,29.22 97.07,28.75 97.13,28.24 97.19,27.77 97.25,27.27 97.31,26.87 97.36,26.59 97.42,26.21 97.48,25.91 97.54,25.51 97.60,25.01 97.65,24.51 97.71,24.16 97.77,24.08 97.83,23.84 97.89,24.28 97.94,24.45 98.00,24.42 98.06,24.34 98.12,24.22 98.18,24.53 98.23,25.33 98.29,25.50 98.35,25.82 98.41,26.13 98.47,26.39 98.53,26.53 98.58,26.55 98.64,26.57 98.70,26.53 98.76,26.41 98.82,26.23 98.87,26.03 98.93,25.80 98.99,25.46 99.05,24.99 99.11,24.96 99.16,24.94 99.22,25.09 99.28,25.20 99.34,25.31 99.40,25.37 99.45,25.39 99.51,25.44 99.57,25.47 99.63,25.56 99.69,25.69 99.75,25.80 99.80,25.78 99.86,25.32 99.92,25.42 99.98,25.90 100.04,26.08 100.09,26.33 100.15,26.25 100.21,25.99 100.27,25.67 100.33,25.18 100.38,24.95 100.44,24.66 100.50,24.15 100.56,23.68 100.62,23.18 100.67,22.86 100.73,22.90 100.79,22.92 100.85,23.16 100.91,23.57 100.97,24.06 101.02,24.53 101.08,25.00 101.14,25.44 101.20,25.87 101.26,26.26 101.31,26.68 101.37,27.07 101.43,27.40 101.49,27.70 101.55,28.10 101.60,28.51 101.66,28.97 101.72,29.44 101.78,29.84 101.84,30.21 101.89,30.53 101.95,30.91 102.01,31.29 102.07,31.70 102.13,32.03 102.19,32.50 102.24,32.97 102.30,33.39 102.36,33.72 102.42,33.85 102.48,33.89 102.53,34.04 102.59,34.17 102.65,34.20 102.71,34.27 102.77,34.41 102.82,34.49 102.88,34.62 102.94,34.68 103.00,34.80 103.06,34.89 103.12,34.97 103.17,35.13 103.23,35.29 103.29,35.39 103.35,35.51 103.41,35.61 103.46,35.66 103.52,35.81 103.58,35.96 103.64,36.05 103.70,36.33 103.75,35.89 103.81,35.40 103.87,34.80 103.93,33.83 103.99,32.47 104.04,31.43 104.10,30.92 104.16,30.48 104.22,30.49 104.28,30.81 104.34,31.29 104.39,31.67 104.45,31.57 104.51,31.19 104.57,31.06 104.63,30.91 104.68,31.28 104.74,31.14 104.80,30.92 104.86,30.69 104.92,30.41 104.97,30.13 105.03,29.77 105.09,29.49 105.15,29.14 105.21,28.86 105.26,28.52 105.32,28.21 105.38,27.85 105.44,27.51 105.50,27.15 105.56,26.84 105.61,26.46 105.67,26.10 105.73,25.79 105.79,25.57 105.85,25.64 105.90,25.97 105.96,26.43 106.02,26.85 106.08,27.22 106.14,27.59 106.19,27.93 106.25,28.32 106.31,28.84 106.37,29.17 106.43,29.55 106.48,29.81 106.54,30.18 106.60,30.62 106.66,31.10 106.72,31.67 106.78,32.21 106.83,32.70 106.89,33.16 106.95,33.73 107.01,34.31 107.07,34.64 107.12,34.96 107.18,35.49 107.24,35.80 107.30,35.94 107.36,36.03 107.41,36.04 107.47,35.95 107.53,35.84 107.59,35.60 107.65,34.83 107.70,34.36 107.76,33.90 107.82,32.48 107.88,31.67 107.94,31.08 108.00,31.05 108.05,30.61 108.11,30.12 108.17,29.62 108.23,29.52 108.29,30.02 108.34,30.15 108.40,30.35 108.46,30.46 108.52,30.11 108.58,29.76 108.63,29.30 108.69,28.82 108.75,28.42 108.81,27.98 108.87,27.75 108.92,27.80 108.98,27.97 109.04,28.21 109.10,28.32 109.16,28.46 109.22,28.53 109.27,28.51 109.33,28.41 109.39,28.31 109.45,28.13 109.51,28.04 109.56,27.84 109.62,27.57 109.68,27.11 109.74,26.33 109.80,25.85 109.85,25.41 109.91,24.95 109.97,24.54 110.03,24.53 110.09,24.85 110.14,24.87 110.20,24.95 110.26,25.17 110.32,25.41 110.38,25.63 110.44,25.85 110.49,26.02 110.55,26.17 110.61,26.20 110.67,26.25 110.73,26.38 110.78,26.38 110.84,26.57 110.90,26.34 110.96,25.93 111.02,25.63 111.07,25.58 111.13,25.59 111.19,26.39 111.25,27.09 111.31,27.74 111.36,28.33 111.42,28.79 111.48,29.14 111.54,29.13 111.60,29.56 111.66,30.42 111.71,31.10 111.77,31.44 111.83,31.53 111.89,31.26 111.95,31.44 112.00,31.48 112.06,31.96 112.12,32.49 112.18,32.97 112.24,33.84 112.29,34.03 112.35,34.22 112.41,34.45 112.47,34.54 112.53,34.67 112.58,34.79 112.64,34.91 112.70,35.06 112.76,35.26 112.82,35.58 112.88,35.33 112.93,35.18 112.99,35.00 113.05,34.93 113.11,34.36 113.17,34.15 113.22,33.88 113.28,33.88 113.34,33.77 113.40,33.51 113.46,33.10 113.51,32.50 113.57,32.24 113.63,32.41 113.69,32.90 113.75,33.17 113.81,33.17 113.86,33.02 113.92,32.82 113.98,32.40 114.04,32.41 114.10,32.59 114.15,32.60 114.21,32.51 114.27,32.44 114.33,32.36 114.39,32.26 114.44,32.06 114.50,31.82 114.56,31.60 114.62,31.25 114.68,30.84 114.73,30.16 114.79,29.44 114.85,28.68 114.91,27.52 114.97,26.21 115.03,25.35 115.08,24.44 115.14,23.70 115.20,23.12 115.26,22.66 115.32,22.46 115.37,22.37 115.43,22.40 115.49,21.90 115.55,21.27 115.61,20.84 115.66,19.49 115.72,18.29 115.78,17.83 115.84,17.89 115.90,17.99 115.95,17.40 116.01,16.88 116.07,16.20 116.13,15.72 116.19,14.30 116.25,13.35 116.30,13.97 116.36,13.73 116.42,13.25 116.48,12.54 116.54,11.64 116.59,11.73 116.65,11.70 116.71,11.93 116.77,12.41 116.83,12.89 116.88,13.49 116.94,14.05 117.00,14.51 117.06,14.92 117.12,15.22 117.17,15.47 117.23,15.65 117.29,15.80 117.35,15.90 117.41,15.97 117.47,15.97 117.52,15.92 117.58,15.84 117.64,15.78 117.70,15.78 117.76,15.80 117.81,15.87 117.87,16.03 117.93,16.34 117.99,17.07 118.05,17.55 118.10,17.82 118.16,18.21 118.22,18.49 118.28,18.73 118.34,19.10 118.39,19.28 118.45,19.51 118.51,19.49 118.57,19.49 118.63,19.46 118.69,19.48 118.74,19.52 118.80,19.62 118.86,19.77 118.92,19.93 118.98,20.13 119.03,20.30 119.09,20.51 119.15,20.73 119.21,20.92 119.27,21.08 119.32,21.28 119.38,21.45 119.44,21.60 119.50,21.72 119.56,21.82 119.61,21.93 119.67,22.06 119.73,22.24 119.79,22.48 119.85,22.55 119.91,22.38 119.96,22.36 120.02,22.08 120.08,22.16 120.14,22.24 120.20,22.40 120.25,22.64 120.31,23.09 120.37,24.22 120.43,24.70 120.49,24.90 120.54,25.42 120.60,25.82 120.66,25.94 120.72,25.97 120.78,25.69 120.83,24.43 120.89,24.61 120.95,25.31 121.01,26.32 121.07,27.04 121.13,27.95 121.18,27.85 121.24,28.17 121.30,28.40 121.36,28.51 121.42,28.61 121.47,28.67 121.53,28.72 121.59,28.72 121.65,28.72 121.71,28.71 121.76,28.44 121.82,28.32 121.88,28.24 121.94,28.29 122.00,28.29 122.05,28.39 122.11,28.40 122.17,28.95 122.23,29.11 122.29,29.54 122.35,29.71 122.40,29.87 122.46,30.48 122.52,30.68 122.58,30.89 122.64,31.02 122.69,31.06 122.75,31.17 122.81,31.27 122.87,31.41 122.93,31.56 122.98,31.68 123.04,31.81 123.10,32.06 123.16,32.30 123.22,32.55 123.27,32.77 123.33,32.94 123.39,33.05 123.45,33.05 123.51,33.34 123.57,33.31 123.62,33.37 123.68,33.53 123.74,33.67 123.80,33.79 123.86,33.90 123.91,33.92 123.97,33.94 124.03,33.93 124.09,33.95 124.15,33.97 124.20,34.09 124.26,34.25 124.32,34.33 124.38,34.65 124.44,34.86 124.50,35.01 124.55,35.19 124.61,35.20 124.67,35.25 124.73,35.18 124.79,35.09 124.84,35.11 124.90,35.06 124.96,34.90 125.02,34.80 125.08,34.46 125.13,34.78 125.19,34.55 125.25,34.28 125.31,34.37 125.37,34.47 125.42,34.65 125.48,34.82 125.54,35.04 125.60,35.31 125.66,35.59 125.72,35.84 125.77,36.06 125.83,36.27 125.89,36.46 125.95,36.54 126.01,36.84 126.06,36.84 126.12,36.40 126.18,36.38 126.24,36.18 126.30,36.50 126.35,37.16 126.41,37.57 126.47,37.01 126.53,36.62 126.59,36.53 126.64,36.17 126.70,36.12 126.76,36.41 126.82,36.74 126.88,37.59 126.94,38.18 126.99,38.24 127.05,38.31 127.11,38.37 127.17,38.46 127.23,38.50 127.28,38.54 127.34,38.56 127.40,38.57 127.46,38.61 127.52,38.58 127.57,38.53 127.63,38.42 127.69,38.29 127.75,38.18 127.81,38.00 127.86,37.94 127.92,38.24 127.98,38.74 128.04,38.69 128.10,39.44 128.16,39.71 128.21,39.54 128.27,39.48 128.33,39.60 128.39,39.72 128.45,39.54 128.50,39.21 128.56,38.95 128.62,38.52 128.68,38.21 128.74,38.09 128.79,37.43 128.85,37.32 128.91,37.26 128.97,37.22 129.03,37.16 129.08,37.11 129.14,37.07 129.20,37.02 129.26,36.97 129.32,36.91 129.38,36.78 129.43,36.79 129.49,36.18 129.55,36.42 129.61,37.12 129.67,37.64 129.72,38.00 129.78,38.33 129.84,38.64 129.90,39.07 129.96,39.87 130.01,40.31 130.07,40.62 130.13,41.01 130.19,41.36 130.25,41.78 130.30,42.20 130.36,42.57 130.42,42.92 130.48,43.21 130.54,43.36 130.60,43.55 130.65,43.58 130.71,44.23 130.77,44.47 130.83,45.29 130.89,45.61 130.94,45.95 131.00,46.24 131.06,46.56 131.12,46.93 131.18,47.36 131.23,47.74 131.29,48.05 131.35,48.31 131.41,47.76 131.47,47.55 131.52,47.76 131.58,48.80 131.64,49.94 131.70,50.42 131.76,50.66 131.82,50.65 131.87,51.06 131.93,51.20 131.99,51.66 132.05,51.93 132.11,52.01 132.16,51.53 132.22,51.74 132.28,52.44 132.34,52.82 132.40,53.00 132.45,53.21 132.51,53.41 132.57,53.77 132.63,54.05 132.69,54.38 132.74,54.56 132.80,54.86 132.86,54.99 132.92,54.94 132.98,54.93 133.04,56.00 133.09,54.95 133.15,54.65 133.21,54.49 133.27,54.26 133.33,54.11 133.38,53.71 133.44,53.22 133.50,53.32 133.56,53.65 133.62,53.69 133.67,53.59 133.73,53.55 133.79,53.76 133.85,54.11 133.91,53.94 133.96,53.82 134.02,53.45 134.08,53.18 134.14,53.00 134.20,52.78 134.26,52.62 134.31,52.60 134.37,52.66 134.43,52.84 134.49,54.05 134.55,54.85 134.60,54.95 134.66,54.31 134.72,54.29 134.78,54.40 134.84,54.52 134.89,54.76 134.95,54.60 135.01,54.52 135.07,54.40 135.13,54.32 135.19,54.23 135.24,54.12 135.30,54.05 135.36,54.13 135.42,54.11 135.48,54.26 135.53,54.29 135.59,54.43 135.65,54.58 135.71,55.44 135.77,54.90 135.82,54.67 135.88,54.11 135.94,53.93 136.00,53.43 136.06,52.98 136.11,52.74 136.17,52.17 136.23,51.88 136.29,51.32 136.35,50.82 136.41,50.87 136.46,51.32 136.52,52.43 136.58,53.84 136.64,54.47 136.70,54.43 136.75,53.68 136.81,52.73 136.87,51.81 136.93,51.12 136.99,50.55 137.04,49.89 137.10,49.45 137.16,49.04 137.22,48.50 137.28,48.01 137.33,47.65 137.39,47.61 137.45,47.90 137.51,48.29 137.57,49.04 137.63,49.93 137.68,50.90 137.74,51.70 137.80,52.37 137.86,52.40 137.92,52.39 137.97,52.56 138.03,52.66 138.09,52.85 138.15,52.84 138.21,52.25 138.26,52.15 138.32,52.17 138.38,52.25 138.44,52.38 138.50,52.67 138.55,52.77 138.61,52.74 138.67,52.47 138.73,52.22 138.79,51.94 138.85,51.74 138.90,51.43 138.96,51.43 139.02,52.70 139.08,52.79 139.14,52.83 139.19,51.67 139.25,51.62 139.31,51.83 139.37,52.07 139.43,52.15 139.48,52.33 139.54,52.26 139.60,52.19 139.66,52.14 139.72,52.07 139.77,52.01 139.83,51.90 139.89,51.83 139.95,51.74 140.01,51.60 140.07,51.44 140.12,51.22 140.18,50.84 140.24,49.97 140.30,49.16 140.36,49.68 140.41,50.17 140.47,49.64 140.53,50.39 140.59,50.09 140.65,49.75 140.70,49.59 140.76,49.19 140.82,49.05 140.88,48.73 140.94,47.30 140.99,46.89 141.05,43.73 141.11,43.17 141.17,43.42 141.23,44.35 141.29,44.25 141.34,44.28 141.40,43.85 141.46,43.50 141.52,43.42 141.58,42.87 141.63,42.34 141.69,42.00 141.75,41.58 141.81,41.31 141.87,40.65 141.92,39.44 141.98,37.03 142.04,36.20 142.10,35.56 142.16,35.09 142.21,34.20 142.27,33.47 142.33,32.48 142.39,32.16 142.45,32.10 142.51,32.34 142.56,32.51 142.62,35.34 142.68,35.54 142.74,35.19 142.80,34.70 142.85,34.29 142.91,33.88 142.97,33.50 143.03,33.12 143.09,32.53 143.14,31.92 143.20,31.58 143.26,31.23 143.32,30.74 143.38,30.30 143.43,29.93 143.49,29.49 143.55,29.07 143.61,28.66 143.67,28.22 143.73,27.81 143.78,27.43 143.84,27.02 143.90,26.69 143.96,25.93 144.02,24.53 144.07,23.73 144.13,23.09 144.19,22.59 144.25,21.71 144.31,21.10 144.36,20.61 144.42,20.22 144.48,19.95 144.54,19.54 144.60,19.46 144.65,18.95 144.71,18.55 144.77,18.15 144.83,17.82 144.89,17.54 144.95,17.04 145.00,16.95 145.06,17.12 145.12,16.92 145.18,17.11 145.24,17.41 145.29,17.76 145.35,18.41 145.41,18.32 145.47,18.00 145.53,17.60 145.58,17.04 145.64,16.54 145.70,16.05 145.76,15.61 145.82,15.11 145.88,14.76 145.93,14.50 145.99,14.21 146.05,13.94 146.11,13.71 146.17,13.46 146.22,13.17 146.28,12.86 146.34,12.57 146.40,12.27 146.46,11.94 146.51,11.56 146.57,11.31 146.63,11.02 146.69,10.83 146.75,10.74 146.80,10.60 146.86,10.60 146.92,10.59 146.98,10.65 147.04,10.77 147.10,10.86 147.15,11.02 147.21,11.18 147.27,11.31 147.33,11.43 147.39,11.55 147.44,11.64 147.50,11.76 147.56,11.88 147.62,11.92 147.68,11.95 147.73,11.86 147.79,11.74 147.85,11.67 147.91,11.61 147.97,11.54 148.02,11.43 148.08,11.30 148.14,11.23 148.20,11.10 148.26,10.99 148.32,10.70 148.37,10.28 148.43,9.99 148.49,9.47 148.55,8.14 148.61,7.61 148.66,7.18 148.72,7.07 148.78,7.09 148.84,6.93 148.90,6.97 148.95,7.03 149.01,6.98 149.07,6.94 149.13,6.87 149.19,6.79 149.24,6.39 149.30,5.79 149.36,6.31 149.42,6.38 149.48,6.48 149.54,6.40 149.59,6.40 149.65,6.43 149.71,6.54 149.77,6.59 149.83,6.58 149.88,6.94 149.94,7.13 150.00,7.33 150.06,7.35 150.12,18.50 150.17,18.54 150.23,19.06 150.29,19.42 150.35,19.73 150.41,20.07 150.46,21.73 150.52,21.39 150.58,21.73 150.64,22.91 150.70,23.06 150.76,23.28 150.81,23.28 150.87,24.00 150.93,25.36 150.99,25.31 151.05,25.91 151.10,24.97 151.16,26.61 151.22,25.81 151.28,27.02 151.34,26.44 151.39,27.31 151.45,26.43 151.51,27.67 151.57,28.92 151.63,28.65 151.68,29.36 151.74,28.66 151.80,29.83 151.86,29.18 151.92,28.45 151.98,29.49 152.03,30.83 152.09,31.15 152.15,29.53 152.21,29.55 152.27,31.54 152.32,30.21 152.38,31.26 152.44,33.02 152.50,33.35 152.56,33.84 152.61,34.23 152.67,34.57 152.73,34.37 152.79,34.78 152.85,35.33 152.90,36.13 152.96,35.21 153.02,35.78 153.08,34.81 153.14,35.46 153.20,36.24 153.25,36.98 153.31,35.75 153.37,36.80 153.43,38.23 153.49,38.41 153.54,38.87 153.60,38.78 153.66,39.02 153.72,39.19 153.78,39.26 153.83,39.41 153.89,39.17 153.95,39.17 154.01,38.89 154.07,39.15 154.12,39.32 154.18,39.42 154.24,39.57 154.30,39.67 154.36,39.78 154.42,39.90 154.47,40.02 154.53,39.46 154.59,39.43 154.65,40.08 154.71,40.12 154.76,40.34 154.82,40.66 154.88,40.85 154.94,41.00 155.00,40.52 155.05,41.00 155.11,41.00 155.17,40.85 155.23,40.82 155.29,41.22 155.35,41.17 155.40,41.45 155.46,41.61 155.52,41.67 155.58,41.86 155.64,41.98 155.69,42.18 155.75,42.50 155.81,42.67 155.87,42.60 155.93,42.61 155.98,42.41 156.04,42.43 156.10,42.06 156.16,40.97 156.22,40.97 156.27,39.39 156.33,40.10 156.39,40.64 156.45,41.02 156.51,38.73 156.57,39.54 156.62,39.54 156.68,40.12 156.74,40.12 156.80,40.64 156.86,41.30 156.91,41.30 156.97,39.94 157.03,39.94 157.09,40.99 157.15,41.83 157.20,40.93 157.26,40.67 157.32,42.03 157.38,41.63 157.44,41.27 157.49,41.27 157.55,41.54 157.61,42.33 157.67,43.40 157.73,42.82 157.79,43.80 157.84,44.17 157.90,43.67 157.96,43.49 158.02,44.61 158.08,44.50 158.13,44.35 158.19,45.35 158.25,44.08 158.31,43.58 158.37,44.96 158.42,44.77 158.48,44.48 158.54,42.86 158.60,44.69 158.66,43.50 158.71,44.83 158.77,45.19 158.83,46.51 158.89,46.64 158.95,46.95 159.01,46.90 159.06,46.98 159.12,46.24 159.18,46.65 159.24,46.38 159.30,46.72 159.35,46.07 159.41,46.09 159.47,45.79 159.53,45.09 159.59,44.70 159.64,43.10 159.70,43.46 159.76,44.09 159.82,43.80 159.88,43.80 159.93,44.44 159.99,43.87 160.05,43.87 160.11,44.01 160.17,43.23 160.23,42.59 160.28,42.59 160.34,42.26 160.40,42.26 160.46,42.28 160.52,43.34 160.57,42.77 160.63,41.97 160.69,41.37 160.75,41.37 160.81,41.14 160.86,41.14 160.92,42.42 160.98,42.32 161.04,42.11 161.10,41.77 161.15,41.77 161.21,41.67 161.27,41.67 161.33,41.88 161.39,42.29 161.45,42.29 161.50,42.01 161.56,42.65 161.62,42.65 161.68,43.14 161.74,43.81 161.79,43.51 161.85,43.51 161.91,43.61 161.97,43.61 162.03,44.53 162.08,44.63 162.14,44.63 162.20,44.51 162.26,45.47 162.32,45.47 162.37,44.45 162.43,45.18 162.49,45.18 162.55,45.92 162.61,45.92 162.67,46.57 162.72,46.57 162.78,47.06 162.84,47.67 162.90,47.67 162.96,48.02 163.01,48.84 163.07,48.96 163.13,49.23 163.19,50.35 163.25,50.35 163.30,50.61 163.36,50.73 163.42,51.53 163.48,51.38 163.54,50.42 163.59,49.79 163.65,49.67 163.71,49.49 163.77,48.87 163.83,47.73 163.89,47.67 163.94,47.46 164.00,46.80 164.06,45.39 164.12,45.31 164.18,45.21 164.23,45.21 164.29,44.96 164.35,44.96 164.41,44.69 164.47,44.48 164.52,44.48 164.58,43.23 164.64,43.23 164.70,43.78 164.76,43.31 164.81,43.24 164.87,42.97 164.93,43.10 164.99,43.44 165.05,42.32 165.11,42.32 165.16,41.86 165.22,41.15 165.28,41.15 165.34,39.98 165.40,40.26 165.45,39.96 165.51,39.45 165.57,38.76 165.63,37.95 165.69,37.26 165.74,37.18 165.80,37.18 165.86,37.11 165.92,37.23 165.98,36.31 166.04,36.64 166.09,35.40 166.15,35.45 166.21,35.46 166.27,35.46 166.33,34.22 166.38,34.22 166.44,34.27 166.50,33.36 166.56,32.64 166.62,32.80 166.67,32.12 166.73,32.15 166.79,31.89 166.85,31.89 166.91,30.99 166.96,30.99 167.02,31.20 167.08,31.20 167.14,30.98 167.20,30.73 167.26,30.73 167.31,30.34 167.37,30.34 167.43,30.05 167.49,30.05 167.55,29.92 167.60,30.84 167.66,30.38 167.72,30.47 167.78,30.45 167.84,30.70 167.89,30.52 167.95,30.49 168.01,30.80 168.07,30.51 168.13,30.85 168.18,30.56 168.24,31.02 168.30,31.02 168.36,31.42 168.42,31.75 168.48,32.02 168.53,32.13 168.59,32.24 168.65,32.35 168.71,32.18 168.77,32.08 168.82,31.99 168.88,32.11 168.94,32.20 169.00,32.25 169.06,32.34 169.11,32.24 169.17,31.99 169.23,31.44 169.29,31.25 169.35,31.22 169.40,30.86 169.46,30.86 169.52,30.33 169.58,29.99 169.64,29.83 169.70,29.38 169.75,29.38 169.81,29.60 169.87,29.48 169.93,29.48 169.99,28.84 170.04,28.92 170.10,28.23 170.16,27.48 170.22,27.48 170.28,26.72 170.33,26.94 170.39,25.96 170.45,25.93 170.51,25.79 170.57,24.63 170.62,24.37 170.68,24.12 170.74,23.80 170.80,24.19 170.86,24.02 170.92,24.02 170.97,24.61 171.03,24.30 171.09,24.03 171.15,24.89 171.21,24.68 171.26,25.36 171.32,25.91 171.38,26.42 171.44,26.36 171.50,26.69 171.55,26.58 171.61,26.48 171.67,26.76 171.73,26.36 171.79,26.32 171.84,25.76 171.90,25.50 171.96,25.37 172.02,25.13 172.08,25.00 172.14,25.09 172.19,25.36 172.25,25.22 172.31,25.38 172.37,25.51 172.43,25.60 172.48,25.62 172.54,25.65 172.60,25.67 172.66,25.72 172.72,25.93 172.77,25.63 172.83,25.63 172.89,25.09 172.95,25.26 173.01,25.40 173.06,26.20 173.12,26.09 173.18,26.00 173.24,25.18 173.30,25.03 173.36,24.59 173.41,24.59 173.47,23.60 173.53,23.40 173.59,22.83 173.65,22.74 173.70,22.74 173.76,22.69 173.82,23.25 173.88,23.58 173.94,23.87 173.99,24.02 174.05,25.23 174.11,25.52 174.17,25.71 174.23,25.73 174.28,26.63 174.34,26.77 174.40,27.41 174.46,27.68 174.52,28.29 174.58,28.39 174.63,28.91 174.69,28.85 174.75,29.55 174.81,29.59 174.87,30.57 174.92,31.06 174.98,30.63 175.04,31.74 175.10,31.54 175.16,32.44 175.21,32.80 175.27,33.37 175.33,33.74 175.39,33.68 175.45,33.70 175.50,33.83 175.56,34.00 175.62,34.23 175.68,34.23 175.74,34.44 175.80,34.44 175.85,34.63 175.91,34.63 175.97,34.63 176.03,34.55 176.09,34.55 176.14,34.62 176.20,34.62 176.26,34.88 176.32,35.27 176.38,35.27 176.43,35.66 176.49,35.79 176.55,36.17 176.61,36.01 176.67,36.13 176.73,36.00 176.78,35.69 176.84,34.67 176.90,33.94 176.96,32.89 177.02,31.73 177.07,30.70 177.13,29.93 177.19,31.11 177.25,31.10 177.31,31.23 177.36,31.19 177.42,32.14 177.48,31.93 177.54,31.03 177.60,31.03 177.65,31.29 177.71,30.95 177.77,30.68 177.83,30.46 177.89,29.91 177.95,30.06 178.00,29.66 178.06,28.88 178.12,29.22 178.18,28.72 178.24,28.13 178.29,27.56 178.35,27.82 178.41,27.01 178.47,26.45 178.53,26.83 178.58,26.34 178.64,25.71 178.70,25.60 178.76,25.48 178.82,25.02 178.87,25.78 178.93,26.48 178.99,27.25 179.05,27.16 179.11,27.09 179.17,28.28 179.22,28.48 179.28,28.63 179.34,28.63 179.40,30.12 179.46,30.00 179.51,29.99 179.57,30.25 179.63,30.85 179.69,31.59 179.75,32.31 179.80,32.90 179.86,33.13 179.92,33.75 179.98,34.35 180.04,34.78 180.09,35.15 180.15,35.52 180.21,35.72 180.27,36.06 180.33,36.33 180.39,36.13 180.44,35.98 180.50,35.42 180.56,35.52 180.62,34.22 180.68,33.15 180.73,32.26 180.79,33.41 180.85,31.57 180.91,31.35 180.97,30.08 181.02,29.76 181.08,30.77 181.14,30.25 181.20,28.81 181.26,29.24 181.31,30.34 181.37,29.98 181.43,30.11 181.49,29.61 181.55,28.83 181.61,28.85 181.66,27.98 181.72,27.61 181.78,27.76 181.84,27.64 181.90,27.58 181.95,27.58 182.01,28.66 182.07,28.73 182.13,28.82 182.19,28.86 182.24,28.75 182.30,28.43 182.36,28.07 182.42,27.72 182.48,27.84 182.53,28.03 182.59,27.57 182.65,27.46 182.71,26.42 182.77,26.22 182.83,25.26 182.88,25.08 182.94,24.52 183.00,24.68 183.06,24.61 183.12,25.33 183.17,24.97 183.23,24.43 183.29,23.74 183.35,25.38 183.41,25.38 183.46,25.38 183.52,25.49 183.58,26.23 183.64,25.98 183.70,26.39 183.75,26.41 183.81,26.95 183.87,26.16 183.93,26.18 183.99,25.65 184.05,25.46 184.10,25.87 184.16,26.59 184.22,26.70 184.28,27.64 184.34,28.43 184.39,28.36 184.45,28.98 184.51,29.44 184.57,30.01 184.63,29.84 184.68,31.04 184.74,31.37 184.80,31.37 184.86,31.90 184.92,31.90 184.97,31.15 185.03,32.14 185.09,32.14 185.15,33.29 185.21,33.29 185.27,34.09 185.32,34.09 185.38,34.50 185.44,34.54 185.50,34.54 185.56,34.81 185.61,34.81 185.67,35.08 185.73,35.08 185.79,35.12 185.85,35.14 185.90,35.14 185.96,35.10 186.02,35.10 186.08,34.52 186.14,33.42 186.19,33.83 186.25,33.14 186.31,33.78 186.37,33.20 186.43,32.58 186.49,32.58 186.54,32.21 186.60,32.39 186.66,32.83 186.72,31.98 186.78,32.81 186.83,32.58 186.89,31.34 186.95,31.34 187.01,32.43 187.07,32.42 187.12,32.45 187.18,32.45 187.24,32.47 187.30,32.47 187.36,32.32 187.42,32.08 187.47,31.89 187.53,31.58 187.59,31.31 187.65,30.68 187.71,30.24 187.76,29.25 187.82,28.01 187.88,28.01 187.94,26.75 188.00,25.56 188.05,24.65 188.11,24.06 188.17,23.33 188.23,23.30 188.29,22.64 188.34,22.99 188.40,22.24 188.46,22.24 188.52,21.52 188.58,20.94 188.64,20.23 188.69,19.15 188.75,17.66 188.81,18.41 188.87,17.67 188.93,17.95 188.98,16.98 189.04,15.94 189.10,15.45 189.16,14.59 189.22,13.50 189.27,14.08 189.33,13.66 189.39,12.99 189.45,11.95 189.51,12.18 189.56,11.46 189.62,11.05 189.68,11.60 189.74,11.98 189.80,12.96 189.86,13.86 189.91,13.86 189.97,14.55 190.03,15.15 190.09,15.41 190.15,15.61 190.20,15.83 190.26,15.92 190.32,15.98 190.38,16.07 190.44,16.23 190.49,16.04 190.55,15.98 190.61,16.00 190.67,15.63 190.73,15.66 190.78,15.64 190.84,15.71 190.90,16.60 190.96,16.98 191.02,17.47 191.08,18.03 191.13,18.13 191.19,18.55 191.25,18.52 191.31,18.87 191.37,19.41 191.42,19.48 191.48,19.84 191.54,19.54 191.60,19.65 191.66,19.33 191.71,19.33 191.77,19.62 191.83,19.62 191.89,19.99 191.95,19.47 192.00,20.00 192.06,20.46 192.12,20.46 192.18,20.84 192.24,20.84 192.30,21.15 192.35,21.15 192.41,21.61 192.47,21.82 192.53,21.82 192.59,22.00 192.64,22.00 192.70,22.16 192.76,22.16 192.82,22.26 192.88,22.34 192.93,22.34 192.99,22.42 193.05,22.42 193.11,22.64 193.17,23.00 193.22,23.00 193.28,23.72 193.34,23.72 193.40,24.58 193.46,24.58 193.52,25.53 193.57,26.01 193.63,26.01 193.69,25.84 193.75,25.44 193.81,23.89 193.86,24.95 193.92,25.58 193.98,26.72 194.04,26.13 194.10,27.72 194.15,27.72 194.21,27.45 194.27,27.45 194.33,27.50 194.39,28.78 194.44,28.70 194.50,28.70 194.56,28.59 194.62,28.59 194.68,27.99 194.74,28.38 194.79,28.38 194.85,27.96 194.91,27.96 194.97,27.63 195.03,27.63 195.08,29.04 195.14,29.04 195.20,29.02 195.26,28.97 195.32,28.97 195.37,29.03 195.43,30.46 195.49,30.60 195.55,30.60 195.61,30.77 195.66,30.77 195.72,30.84 195.78,30.72 195.84,31.59 195.90,31.55 195.96,31.55 196.01,31.39 196.07,31.39 196.13,31.18 196.19,30.84 196.25,32.82 196.30,32.73 196.36,32.73 196.42,32.56 196.48,32.56 196.54,32.30 196.59,32.06 196.65,32.06 196.71,33.80 196.77,33.80 196.83,33.83 196.88,33.83 196.94,33.84 197.00,33.87 197.06,33.87 197.12,33.92 197.18,33.92 197.23,34.00 197.29,34.00 197.35,34.09 197.41,34.25 197.47,34.25 197.52,34.40 197.58,34.40 197.64,34.44 197.70,34.37 197.76,34.37 197.81,34.22 197.87,34.22 197.93,34.01 197.99,33.74 198.05,33.74 198.11,35.60 198.16,35.60 198.22,35.41 198.28,35.41 198.34,35.26 198.40,35.23 198.45,35.23 198.51,35.31 198.57,35.31 198.63,35.45 198.69,35.65 198.74,35.65 198.80,35.85 198.86,35.85 198.92,36.03 198.98,36.09 199.03,36.09 199.09,36.07 199.15,36.07 199.21,36.19 199.27,36.19 199.33,36.77 199.38,36.94 199.44,36.94 199.50,36.19 199.56,36.19 199.62,35.63 199.67,35.56 199.73,35.56 199.79,35.95 199.85,35.95 199.91,36.86 199.96,38.34 200.02,38.62 200.08,38.73 200.14,38.73 200.20,38.74 200.25,38.74 200.31,38.61 200.37,38.41 200.43,38.41 200.49,38.16 200.55,38.63 200.60,37.72 200.66,38.22 200.72,37.22 200.78,37.86 200.84,37.32 200.89,38.68 200.95,38.68 201.01,38.47 201.07,38.47 201.13,38.22 201.18,40.30 201.24,40.30 201.30,39.94 201.36,39.94 201.42,39.50 201.47,39.50 201.53,39.05 201.59,38.54 201.65,38.54 201.71,38.16 201.77,38.16 201.82,37.78 201.88,37.56 201.94,37.56 202.00,37.51 202.06,37.51 202.11,36.70 202.17,37.17 202.23,36.95 202.29,36.75 202.35,36.58 202.40,36.52 202.46,35.61 202.52,36.40 202.58,37.09 202.64,37.87 202.69,37.56 202.75,38.65 202.81,39.46 202.87,39.57 202.93,39.83 202.99,40.71 203.04,40.29 203.10,40.92 203.16,42.17 203.22,41.42 203.28,41.74 203.33,42.80 203.39,42.61 203.45,43.75 203.51,43.08 203.57,44.01 203.62,42.20 203.68,43.42 203.74,42.82 203.80,44.27 203.86,45.43 203.91,45.10 203.97,46.27 204.03,46.09 204.09,47.15 204.15,47.55 204.21,47.55 204.26,47.75 204.32,48.00 204.38,48.24 204.44,46.53 204.50,46.90 204.55,47.78 204.61,48.68 204.67,49.17 204.73,49.41 204.79,49.63 204.84,49.94 204.90,50.52 204.96,50.95 205.02,50.90 205.08,50.61 205.13,50.44 205.19,50.51 205.25,50.83 205.31,52.84 205.37,53.02 205.43,53.20 205.48,53.41 205.54,53.41 205.60,53.69 205.66,54.40 205.72,54.54 205.77,54.81 205.83,55.03 205.89,55.43 205.95,55.17 206.01,55.84 206.06,54.92 206.12,54.74 206.18,54.38 206.24,53.57 206.30,53.57 206.35,53.55 206.41,51.75 206.47,52.06 206.53,52.06 206.59,52.84 206.65,52.84 206.70,53.70 206.76,53.21 206.82,54.23 206.88,53.73 206.94,53.31 206.99,54.45 207.05,52.87 207.11,52.04 207.17,53.26 207.23,52.64 207.28,51.16 207.34,52.29 207.40,53.40 207.46,54.85 207.52,54.02 207.58,54.55 207.63,53.86 207.69,54.32 207.75,54.51 207.81,54.57 207.87,54.61 207.92,54.55 207.98,54.42 208.04,54.26 208.10,53.97 208.16,53.63 208.21,53.44 208.27,53.38 208.33,53.50 208.39,53.84 208.45,54.27 208.50,53.97 208.56,54.83 208.62,54.21 208.68,54.94 208.74,54.97 208.80,54.07 208.85,52.83 208.91,54.02 208.97,54.02 209.03,53.18 209.09,53.18 209.14,52.21 209.20,52.21 209.26,51.27 209.32,50.77 209.38,50.77 209.43,51.51 209.49,51.51 209.55,52.64 209.61,53.27 209.67,53.27 209.72,52.49 209.78,52.49 209.84,52.41 209.90,52.41 209.96,51.08 210.02,49.89 210.07,49.89 210.13,48.72 210.19,48.72 210.25,47.65 210.31,47.65 210.36,46.99 210.42,49.13 210.48,49.13 210.54,49.73 210.60,49.73 210.65,51.58 210.71,51.45 210.77,52.03 210.83,52.14 210.89,52.69 210.94,52.05 211.00,52.60 211.06,52.25 211.12,52.69 211.18,51.98 211.24,52.45 211.29,51.91 211.35,52.52 211.41,52.99 211.47,52.73 211.53,52.73 211.58,52.23 211.64,52.46 211.70,52.42 211.76,51.71 211.82,51.50 211.87,51.70 211.93,51.11 211.99,51.67 212.05,52.61 212.11,51.79 212.16,50.59 212.22,52.20 212.28,52.14 212.34,52.24 212.40,52.36 212.46,52.36 212.51,52.26 212.57,52.15 212.63,52.04 212.69,52.01 212.75,51.96 212.80,51.90 212.86,51.53 212.92,51.50 212.98,51.43 213.04,51.30 213.09,50.98 213.15,50.30 213.21,49.68 213.27,49.59 213.33,50.02 213.38,49.59 213.44,48.33 213.50,49.91 213.56,50.08 213.62,50.08 213.68,49.70 213.73,49.25 213.79,48.81 213.85,47.67 213.91,47.79 213.97,45.98 214.02,43.28 214.08,42.34 214.14,43.62 214.20,44.44 214.26,43.96 214.31,43.73 214.37,43.63 214.43,43.61 214.49,43.62 214.55,42.93 214.60,41.99 214.66,41.38 214.72,41.26 214.78,39.51 214.84,40.06 214.90,37.91 214.95,37.51 215.01,35.65 215.07,35.65 215.13,35.75 215.19,35.75 215.24,33.72 215.30,32.15 215.36,32.69 215.42,31.84 215.48,32.82 215.53,32.22 215.59,35.06 215.65,36.98 215.71,35.61 215.77,35.09 215.82,33.28 215.88,32.98 215.94,34.04 216.00,32.78 216.06,30.35 216.12,31.00 216.17,31.38 216.23,29.54 216.29,29.79 216.35,29.86 216.41,29.69 216.46,29.28 216.52,28.74 216.58,28.27 216.64,28.04 216.70,27.60 216.75,27.14 216.81,26.65 216.87,25.55 216.93,25.17 216.99,25.17 217.04,24.76 217.10,23.24 217.16,22.69 217.22,21.19 217.28,20.54 217.34,21.35 217.39,20.84 217.45,19.55 217.51,19.25 217.57,20.13 217.63,19.56 217.68,18.32 217.74,17.81 217.80,18.63 217.86,18.11 217.92,16.99 217.97,16.77 218.03,17.51 218.09,17.58 218.15,16.93 218.21,17.52 218.27,18.13 218.32,18.13 218.38,18.14 218.44,17.44 218.50,17.06 218.56,16.38 218.61,16.01 218.67,15.40 218.73,14.95 218.79,14.95 218.85,14.24 218.90,14.32 218.96,14.09 219.02,13.77 219.08,13.52 219.14,13.33 219.19,13.16 219.25,12.93 219.31,12.38 219.37,12.29 219.43,12.20 219.49,11.55 219.54,11.54 219.60,11.57 219.66,10.83 219.72,10.83 219.78,10.93 219.83,10.48 219.89,10.65 219.95,10.83 220.01,10.62 220.07,10.85 220.12,11.05 220.18,11.32 220.24,11.29 220.30,11.47 220.36,11.63 220.41,11.67 220.47,11.80 220.53,11.86 220.59,12.22 220.65,12.02 220.71,12.02 220.76,11.84 220.82,11.68 220.88,11.81 220.94,11.47 221.00,11.45 221.05,11.08 221.11,11.71 221.17,11.90 221.23,10.97 221.29,10.68 221.34,10.20 221.40,9.61 221.46,8.77 221.52,8.24 221.58,8.22 221.63,7.88 221.69,7.27 221.75,7.12 221.81,6.76 221.87,6.74 221.93,7.12 221.98,6.77 222.04,6.71 222.10,6.43 222.16,6.66 222.22,5.75 222.27,6.37 222.33,6.08 222.39,4.62 222.45,5.25 222.51,6.33 222.56,6.16 222.62,6.48 222.68,6.42 222.74,6.19 222.80,6.12 222.85,6.97 222.91,7.18 222.97,7.15 223.03,7.35 223.09,18.65 223.15,18.65 223.20,19.49 223.26,19.49 223.32,19.49 223.38,19.72 223.44,19.72 223.49,19.72 223.55,18.25 223.61,21.26 223.67,21.26 223.73,21.26 223.78,21.26 223.84,24.11 223.90,24.11 223.96,24.11 224.02,22.10 224.07,22.10 224.13,25.60 224.19,25.60 224.25,24.03 224.31,24.03 224.37,24.03 224.42,21.32 224.48,26.53 224.54,26.53 224.60,26.53 224.66,23.63 224.71,23.63 224.77,29.12 224.83,27.77 224.89,27.77 224.95,27.77 225.00,27.77 225.06,28.28 225.12,28.28 225.18,28.28 225.24,28.28 225.29,26.25 225.35,31.22 225.41,31.22 225.47,32.69 225.53,32.69 225.59,32.69 225.64,34.62 225.70,34.62 225.76,34.62 225.82,36.15 225.88,36.15 225.93,32.49 225.99,32.49 226.05,34.15 226.11,34.15 226.17,34.15 226.22,36.49 226.28,36.49 226.34,36.49 226.40,38.38 226.46,38.38 226.51,38.38 226.57,38.68 226.63,39.17 226.69,39.17 226.75,39.17 226.81,39.45 226.86,39.12 226.92,39.12 226.98,39.12 227.04,39.55 227.10,39.55 227.15,39.55 227.21,40.05 227.27,40.05 227.33,40.05 227.39,40.37 227.44,40.37 227.50,38.98 227.56,38.85 227.62,40.61 227.68,40.61 227.73,40.91 227.79,40.91 227.85,40.91 227.91,41.25 227.97,40.57 228.03,40.57 228.08,40.57 228.14,41.54 228.20,41.54 228.26,41.54 228.32,41.61 228.37,41.61 228.43,41.61 228.49,42.09 228.55,42.09 228.61,42.09 228.66,42.09 228.72,42.53 228.78,42.53 228.84,42.53 228.90,41.51 228.96,41.51 229.01,41.51 229.07,40.34 229.13,39.53 229.19,39.53 229.25,39.53 229.30,39.53 229.36,40.24 229.42,40.24 229.48,34.83 229.54,34.83 229.59,34.83 229.65,36.24 229.71,36.24 229.77,36.24 229.83,36.24 229.88,36.24 229.94,38.43 230.00,38.43 230.06,38.43 230.12,38.43 230.18,41.09 230.23,38.43 230.29,38.43 230.35,40.58 230.41,40.58 230.47,40.58 230.52,37.82 230.58,41.87 230.64,41.87 230.70,39.85 230.76,39.85 230.81,43.09 230.87,43.09 230.93,38.57 230.99,38.57 231.05,42.70 231.10,42.70 231.16,42.70 231.22,37.77 231.28,41.84 231.34,41.84 231.40,41.84 231.45,42.36 231.51,42.36 231.57,42.36 231.63,42.36 231.69,43.55 231.74,43.55 231.80,46.33 231.86,46.61 231.92,46.61 231.98,46.61 232.03,46.61 232.09,44.19 232.15,46.55 232.21,46.55 232.27,45.36 232.32,45.36 232.38,45.36 232.44,45.67 232.50,45.67 232.56,45.67 232.62,42.52 232.67,41.66 232.73,41.66 232.79,41.66 232.85,41.66 232.91,42.64 232.96,42.64 233.02,42.64 233.08,45.25 233.14,43.43 233.20,43.43 233.25,43.43 233.31,43.43 233.37,43.43 233.43,42.26 233.49,42.26 233.54,42.26 233.60,41.30 233.66,41.30 233.72,41.30 233.78,41.30 233.84,41.30 233.89,40.13 233.95,40.13 234.01,40.13 234.07,40.02 234.13,40.02 234.18,40.02 234.24,40.02 234.30,40.02 234.36,40.91 234.42,40.91 234.47,40.91 234.53,40.91 234.59,40.91 234.65,40.64 234.71,43.25 234.76,43.76 234.82,43.76 234.88,43.76 234.94,43.76 235.00,43.76 235.06,42.47 235.11,42.47 235.17,42.47 235.23,42.47 235.29,42.47 235.35,44.84 235.40,44.84 235.46,44.84 235.52,44.84 235.58,44.84 235.64,46.81 235.69,46.81 235.75,46.81 235.81,46.81 235.87,46.81 235.93,47.50 235.98,47.50 236.04,47.50 236.10,49.71 236.16,51.14 236.22,51.14 236.28,51.14 236.33,51.14 236.39,51.29 236.45,51.29 236.51,51.29 236.57,50.30 236.62,50.30 236.68,50.30 236.74,48.71 236.80,47.22 236.86,48.71 236.91,45.22 236.97,45.22 237.03,45.22 237.09,45.22 237.15,44.76 237.20,44.76 237.26,44.76 237.32,44.76 237.38,44.76 237.44,45.37 237.50,45.37 237.55,41.95 237.61,41.95 237.67,41.95 237.73,45.09 237.79,45.09 237.84,44.48 237.90,44.48 237.96,44.48 238.02,43.28 238.08,43.28 238.13,41.82 238.19,41.82 238.25,41.82 238.31,40.64 238.37,40.64 238.42,40.64 238.48,38.07 238.54,38.07 238.60,38.07 238.66,37.65 238.72,38.74 238.77,38.74 238.83,38.74 238.89,38.74 238.95,39.27 239.01,39.27 239.06,35.69 239.12,35.77 239.18,35.77 239.24,35.77 239.30,35.77 239.35,35.77 239.41,35.91 239.47,35.91 239.53,32.70 239.59,33.07 239.65,33.07 239.70,33.07 239.76,33.13 239.82,33.13 239.88,33.13 239.94,33.13 239.99,33.13 240.05,33.13 240.11,32.28 240.17,32.28 240.23,32.28 240.28,32.28 240.34,32.28 240.40,31.34 240.46,31.34 240.52,31.34 240.57,31.34 240.63,30.28 240.69,31.77 240.75,31.77 240.81,31.77 240.87,30.74 240.92,30.15 240.98,30.15 241.04,30.15 241.10,30.61 241.16,30.61 241.21,31.11 241.27,31.11 241.33,32.58 241.39,32.58 241.45,32.58 241.50,32.52 241.56,32.52 241.62,32.52 241.68,32.37 241.74,32.37 241.79,32.37 241.85,32.37 241.91,33.07 241.97,32.38 242.03,32.38 242.09,31.29 242.14,31.29 242.20,31.29 242.26,28.59 242.32,28.61 242.38,28.61 242.43,28.61 242.49,28.61 242.55,28.49 242.61,28.49 242.67,28.49 242.72,28.49 242.78,29.69 242.84,29.69 242.90,29.69 242.96,27.62 243.01,27.62 243.07,27.62 243.13,28.52 243.19,28.52 243.25,25.45 243.31,25.45 243.36,25.06 243.42,25.06 243.48,25.06 243.54,24.29 243.60,24.29 243.65,24.29 243.71,23.25 243.77,25.71 243.83,25.71 243.89,25.71 243.94,24.91 244.00,24.91 244.06,24.91 244.12,24.94 244.18,24.94 244.23,26.76 244.29,26.99 244.35,26.99 244.41,26.99 244.47,26.74 244.53,26.74 244.58,27.11 244.64,27.11 244.70,26.26 244.76,25.54 244.82,25.54 244.87,25.54 244.93,25.54 244.99,25.20 245.05,26.81 245.11,26.81 245.16,27.84 245.22,25.65 245.28,25.65 245.34,25.85 245.40,25.85 245.45,25.85 245.51,25.95 245.57,25.95 245.63,25.95 245.69,26.43 245.75,24.64 245.80,24.64 245.86,24.64 245.92,24.36 245.98,24.36 246.04,24.36 246.09,24.35 246.15,24.35 246.21,24.35 246.27,23.91 246.33,23.91 246.38,23.91 246.44,23.91 246.50,23.17 246.56,21.04 246.62,21.04 246.67,21.93 246.73,21.93 246.79,21.93 246.85,21.71 246.91,21.71 246.97,21.71 247.02,25.33 247.08,25.33 247.14,25.33 247.20,25.32 247.26,25.32 247.31,25.32 247.37,25.32 247.43,25.83 247.49,25.83 247.55,25.83 247.60,27.92 247.66,27.92 247.72,27.92 247.78,28.52 247.84,28.52 247.89,28.52 247.95,28.52 248.01,31.19 248.07,32.22 248.13,32.22 248.19,32.22 248.24,33.24 248.30,33.14 248.36,33.14 248.42,33.14 248.48,33.14 248.53,33.44 248.59,33.44 248.65,33.44 248.71,33.44 248.77,33.44 248.82,33.98 248.88,33.98 248.94,33.98 249.00,33.98 249.06,33.98 249.12,34.32 249.17,34.32 249.23,34.32 249.29,34.32 249.35,34.32 249.41,35.52 249.46,34.59 249.52,34.59 249.58,34.59 249.64,35.93 249.70,35.93 249.75,35.13 249.81,35.13 249.87,35.13 249.93,33.66 249.99,33.66 250.04,33.66 250.10,32.46 250.16,32.46 250.22,32.46 250.28,31.91 250.34,31.91 250.39,31.91 250.45,31.40 250.51,31.40 250.57,31.40 250.63,31.40 250.68,29.22 250.74,29.79 250.80,29.79 250.86,26.68 250.92,26.68 250.97,28.38 251.03,28.38 251.09,28.38 251.15,25.22 251.21,26.96 251.26,26.96 251.32,26.96 251.38,24.09 251.44,25.56 251.50,25.56 251.56,25.56 251.61,24.35 251.67,24.35 251.73,24.35 251.79,24.35 251.85,25.62 251.90,25.13 251.96,25.13 252.02,25.13 252.08,24.78 252.14,28.10 252.19,28.10 252.25,28.73 252.31,28.73 252.37,28.73 252.43,28.73 252.48,30.34 252.54,30.34 252.60,30.34 252.66,32.37 252.72,32.37 252.78,32.37 252.83,34.08 252.89,34.08 252.95,34.08 253.01,35.24 253.07,35.24 253.12,35.24 253.18,35.94 253.24,35.94 253.30,35.94 253.36,35.94 253.41,34.57 253.47,34.57 253.53,34.57 253.59,34.57 253.65,30.43 253.70,30.43 253.76,30.43 253.82,30.43 253.88,28.67 253.94,28.67 254.00,28.67 254.05,28.67 254.11,27.86 254.17,27.86 254.23,27.86 254.29,27.86 254.34,27.97 254.40,27.97 254.46,27.97 254.52,28.13 254.58,28.13 254.63,25.69 254.69,25.69 254.75,27.55 254.81,27.50 254.87,27.50 254.92,27.50 254.98,27.50 255.04,27.30 255.10,27.30 255.16,27.30 255.22,26.80 255.27,26.80 255.33,26.80 255.39,25.90 255.45,25.90 255.51,27.23 255.56,27.23 255.62,27.23 255.68,23.95 255.74,23.95 255.80,23.95 255.85,24.23 255.91,24.23 255.97,22.04 256.03,22.04 256.09,25.18 256.14,23.89 256.20,23.89 256.26,23.89 256.32,23.90 256.38,23.90 256.44,23.90 256.49,23.90 256.55,22.78 256.61,22.78 256.67,26.07 256.73,23.31 256.78,23.31 256.84,25.33 256.90,25.33 256.96,25.33 257.02,25.78 257.07,26.67 257.13,26.67 257.19,26.67 257.25,27.44 257.31,29.02 257.36,29.02 257.42,29.02 257.48,29.32 257.54,31.51 257.60,31.51 257.66,32.26 257.71,32.26 257.77,32.26 257.83,32.26 257.89,32.26 257.95,33.37 258.00,33.37 258.06,33.37 258.12,33.37 258.18,33.37 258.24,34.58 258.29,34.58 258.35,34.58 258.41,33.15 258.47,33.15 258.53,34.85 258.58,34.85 258.64,34.85 258.70,34.85 258.76,34.99 258.82,34.58 258.88,34.58 258.93,34.58 258.99,34.58 259.05,33.34 259.11,33.34 259.17,33.34 259.22,29.81 259.28,29.81 259.34,29.81 259.40,32.35 259.46,32.35 259.51,28.80 259.57,28.80 259.63,32.38 259.69,29.59 259.75,29.59 259.81,29.59 259.86,29.59 259.92,29.50 259.98,29.50 260.04,29.50 260.10,32.12 260.15,32.12 260.21,32.12 260.27,32.12 260.33,32.12 260.39,31.70 260.44,31.70 260.50,31.70 260.56,31.15 260.62,31.15 260.68,31.15 260.73,28.79 260.79,28.79 260.85,28.79 260.91,28.79 260.97,26.43 261.03,26.43 261.08,26.43 261.14,24.22 261.20,24.22 261.26,24.22 261.32,23.44 261.37,23.44 261.43,23.44 261.49,21.78 261.55,21.78 261.61,21.78 261.66,19.55 261.72,19.55 261.78,19.55 261.84,19.55 261.90,17.66 261.95,16.43 262.01,16.43 262.07,15.45 262.13,15.45 262.19,13.89 262.25,13.89 262.30,14.70 262.36,14.70 262.42,11.96 262.48,11.96 262.54,11.51 262.59,11.51 262.65,11.74 262.71,11.74 262.77,13.15 262.83,13.15 262.88,13.15 262.94,14.44 263.00,16.19 263.06,16.19 263.12,16.19 263.17,17.61 263.23,16.57 263.29,16.57 263.35,16.57 263.41,16.95 263.47,16.95 263.52,16.95 263.58,16.99 263.64,16.99 263.70,16.99 263.76,17.15 263.81,17.15 263.87,16.60 263.93,18.07 263.99,18.07 264.05,18.07 264.10,18.59 264.16,18.59 264.22,18.59 264.28,18.99 264.34,18.99 264.39,20.17 264.45,20.14 264.51,20.14 264.57,20.14 264.63,19.70 264.69,19.70 264.74,19.70 264.80,19.70 264.86,19.70 264.92,19.73 264.98,20.09 265.03,20.09 265.09,20.09 265.15,20.09 265.21,20.09 265.27,21.81 265.32,21.81 265.38,21.81 265.44,21.81 265.50,21.81 265.56,22.49 265.61,22.49 265.67,22.49 265.73,22.49 265.79,22.49 265.85,21.92 265.91,21.92 265.96,21.92 266.02,21.92 266.08,21.92 266.14,22.19 266.20,22.19 266.25,22.19 266.31,22.19 266.37,22.19 266.43,22.19 266.49,24.30 266.54,24.30 266.60,24.30 266.66,24.30 266.72,23.78 266.78,23.78 266.83,26.15 266.89,26.15 266.95,23.68 267.01,23.68 267.07,28.26 267.13,28.26 267.18,27.41 267.24,27.41 267.30,27.41 267.36,27.41 267.42,27.41 267.47,27.41 267.53,27.43 267.59,27.43 267.65,27.43 267.71,27.43 267.76,27.43 267.82,25.68 267.88,25.68 267.94,25.68 268.00,25.68 268.05,29.21 268.11,29.21 268.17,28.83 268.23,28.83 268.29,28.83 268.35,28.83 268.40,28.83 268.46,29.25 268.52,29.25 268.58,29.25 268.64,29.25 268.69,29.25 268.75,29.43 268.81,29.43 268.87,29.43 268.93,29.43 268.98,29.43 269.04,29.43 269.10,27.63 269.16,27.63 269.22,32.67 269.27,32.67 269.33,32.67 269.39,32.24 269.45,32.24 269.51,32.24 269.57,32.24 269.62,32.24 269.68,31.97 269.74,31.97 269.80,31.97 269.86,31.97 269.91,31.97 269.97,32.24 270.03,32.24 270.09,32.24 270.15,32.24 270.20,32.24 270.26,32.24 270.32,32.39 270.38,32.39 270.44,32.39 270.50,32.39 270.55,32.39 270.61,32.70 270.67,32.70 270.73,32.70 270.79,32.70 270.84,32.70 270.90,32.13 270.96,32.13 271.02,32.13 271.08,32.13 271.13,32.13 271.19,30.71 271.25,30.71 271.31,30.71 271.37,30.71 271.42,30.71 271.48,30.12 271.54,30.12 271.60,30.12 271.66,30.12 271.72,30.12 271.77,30.64 271.83,30.64 271.89,30.64 271.95,30.64 272.01,30.64 272.06,32.51 272.12,32.51 272.18,32.51 272.24,32.51 272.30,32.51 272.35,34.16 272.41,34.16 272.47,34.16 272.53,34.16 272.59,34.16 272.64,33.31 272.70,33.31 272.76,33.31 272.82,33.31 272.88,33.31 272.94,37.69 272.99,38.52 273.05,38.52 273.11,38.52 273.17,38.52 273.23,38.52 273.28,38.38 273.34,38.38 273.40,38.38 273.46,38.38 273.52,37.01 273.57,37.01 273.63,37.01 273.69,34.10 273.75,38.80 273.81,38.80 273.86,36.89 273.92,36.89 273.98,36.89 274.04,36.89 274.10,36.89 274.16,35.88 274.21,35.88 274.27,35.88 274.33,35.88 274.39,35.88 274.45,35.88 274.50,35.09 274.56,35.09 274.62,35.09 274.68,35.09 274.74,35.09 274.79,34.61 274.85,34.61 274.91,34.61 274.97,34.61 275.03,34.61 275.08,36.27 275.14,36.27 275.20,35.71 275.26,35.71 275.32,35.71 275.38,36.58 275.43,36.58 275.49,36.58 275.55,36.58 275.61,39.22 275.67,39.22 275.72,39.22 275.78,39.22 275.84,39.47 275.90,39.47 275.96,41.59 276.01,41.59 276.07,41.59 276.13,41.59 276.19,38.71 276.25,42.21 276.30,42.21 276.36,42.21 276.42,44.20 276.48,40.43 276.54,40.43 276.60,40.43 276.65,43.74 276.71,43.74 276.77,43.74 276.83,45.51 276.89,42.92 276.94,42.92 277.00,46.92 277.06,46.92 277.12,46.92 277.18,46.92 277.23,44.64 277.29,44.64 277.35,44.64 277.41,45.47 277.47,45.47 277.52,45.47 277.58,47.15 277.64,47.15 277.70,47.15 277.76,48.16 277.82,48.16 277.87,48.16 277.93,48.26 277.99,48.26 278.05,48.26 278.11,48.47 278.16,48.47 278.22,48.47 278.28,48.77 278.34,48.77 278.40,48.77 278.45,50.51 278.51,50.51 278.57,50.51 278.63,54.28 278.69,55.06 278.74,55.06 278.80,55.06 278.86,55.55 278.92,55.30 278.98,55.30 279.04,55.30 279.09,54.85 279.15,51.27 279.21,51.27 279.27,51.67 279.33,51.67 279.38,51.67 279.44,51.67 279.50,51.67 279.56,52.64 279.62,52.64 279.67,52.64 279.73,46.73 279.79,50.03 279.85,50.03 279.91,50.03 279.96,54.05 280.02,49.00 280.08,49.00 280.14,49.00 280.20,52.71 280.26,52.89 280.31,52.89 280.37,52.89 280.43,55.86 280.49,53.77 280.55,53.77 280.60,53.77 280.66,53.77 280.72,54.41 280.78,54.41 280.84,54.41 280.89,53.92 280.95,53.92 281.01,53.92 281.07,53.15 281.13,53.15 281.19,53.15 281.24,53.49 281.30,53.49 281.36,53.49 281.42,54.83 281.48,52.49 281.53,52.49 281.59,52.49 281.65,53.73 281.71,53.46 281.77,53.46 281.82,53.46 281.88,51.79 281.94,51.79 282.00,51.79 282.06,51.79 282.11,51.79 282.17,51.79 282.23,51.37 282.29,51.37 282.35,51.37 282.41,51.37 282.46,51.37 282.52,51.45 282.58,51.45 282.64,51.45 282.70,51.45 282.75,51.45 282.81,52.95 282.87,52.95 282.93,52.95 282.99,52.95 283.04,52.95 283.10,51.47 283.16,51.47 283.22,51.47 283.28,51.47 283.33,51.47 283.39,51.24 283.45,51.24 283.51,51.24 283.57,51.24 283.63,51.24 283.68,49.13 283.74,52.29 283.80,52.29 283.86,52.29 283.92,48.32 283.97,50.84 284.03,50.84 284.09,50.84 284.15,52.47 284.21,52.47 284.26,47.36 284.32,50.76 284.38,50.76 284.44,50.76 284.50,50.76 284.55,52.24 284.61,52.24 284.67,52.24 284.73,48.99 284.79,48.99 284.85,48.99 284.90,47.23 284.96,47.23 285.02,47.23 285.08,45.58 285.14,45.58 285.19,51.72 285.25,52.12 285.31,52.12 285.37,52.12 285.43,52.16 285.48,52.16 285.54,50.62 285.60,50.62 285.66,50.40 285.72,50.40 285.77,50.40 285.83,49.98 285.89,49.98 285.95,49.98 286.01,48.08 286.07,48.08 286.12,48.08 286.18,48.41 286.24,48.41 286.30,48.41 286.36,50.68 286.41,49.20 286.47,49.20 286.53,49.20 286.59,49.20 286.65,47.32 286.70,47.32 286.76,47.32 286.82,46.97 286.88,46.97 286.94,42.81 286.99,42.81 287.05,42.96 287.11,42.96 287.17,40.60 287.23,40.60 287.29,40.60 287.34,39.71 287.40,39.71 287.46,39.71 287.52,37.78 287.58,37.78 287.63,37.78 287.69,38.39 287.75,38.39 287.81,38.39 287.87,38.39 287.92,37.80 287.98,37.80 288.04,37.80 288.10,37.80 288.16,37.80 288.21,33.30 288.27,33.30 288.33,33.30 288.39,31.26 288.45,36.44 288.51,36.44 288.56,34.74 288.62,34.74 288.68,34.74 288.74,33.26 288.80,33.26 288.85,33.26 288.91,33.26 288.97,28.69 289.03,28.69 289.09,28.69 289.14,28.69 289.20,28.84 289.26,28.84 289.32,28.84 289.38,27.89 289.43,27.89 289.49,27.89 289.55,25.02 289.61,25.02 289.67,25.02 289.73,25.21 289.78,25.21 289.84,25.21 289.90,22.96 289.96,22.96 290.02,23.37 290.07,23.37 290.13,20.92 290.19,20.92 290.25,20.92 290.31,21.29 290.36,19.22 290.42,19.22 290.48,19.22 290.54,19.49 290.60,17.73 290.65,17.73 290.71,17.73 290.77,18.14 290.83,16.60 290.89,16.60 290.95,16.60 291.00,17.56 291.06,17.23 291.12,17.23 291.18,17.23 291.24,16.96 291.29,16.96 291.35,16.96 291.41,16.96 291.47,14.76 291.53,14.76 291.58,14.64 291.64,13.98 291.70,13.98 291.76,13.98 291.82,13.98 291.88,13.36 291.93,13.36 291.99,13.36 292.05,12.73 292.11,12.73 292.17,12.73 292.22,12.45 292.28,12.45 292.34,12.45 292.40,12.66 292.46,12.66 292.51,12.66 292.57,13.14 292.63,11.04 292.69,11.04 292.75,11.04 292.80,11.65 292.86,11.65 292.92,11.65 292.98,12.35 293.04,12.35 293.10,12.35 293.15,13.28 293.21,11.61 293.27,11.61 293.33,12.06 293.39,12.06 293.44,12.06 293.50,12.14 293.56,12.14 293.62,12.14 293.68,12.14 293.73,12.06 293.79,12.06 293.85,12.18 293.91,11.25 293.97,11.25 294.02,11.25 294.08,11.25 294.14,10.63 294.20,10.63 294.26,10.63 294.32,9.35 294.37,9.35 294.43,9.35 294.49,8.84 294.55,7.86 294.61,7.86 294.66,7.86 294.72,7.67 294.78,7.67 294.84,7.13 294.90,7.13 294.95,6.66 295.01,6.66 295.07,6.64 295.13,6.64 295.19,4.79 295.24,4.63 295.30,4.63 295.36,4.63 295.42,4.00 295.48,5.85 295.54,5.85 295.59,5.85 295.65,5.97 295.71,5.97 295.77,5.97 295.83,6.78 295.88,6.78 295.94,6.78 296.00,6.94" />
</svg>