<svg width="300" height="60" xmlns="http://www.w3.org/2000/svg">
  <polyline fill="rgba(255,200,0,0.3)" stroke="#ffbb00" stroke-width="2" points="4.00,4.40 6.37,5.63 8.75,7.19 11.12,8.84 13.50,11.07 15.87,13.49 18.24,15.79 20.62,18.22 22.99,20.10 25.37,21.60 27.74,22.62 30.11,23.35 32.49,23.51 34.86,23.39 37.24,23.12 39.61,23.11 41.98,22.65 44.36,22.69 46.73,24.51 49.11,26.46 51.48,28.58 53.85,30.42 56.23,32.23 58.60,34.31 60.98,36.26 63.35,38.91 65.72,41.72 68.10,45.13 70.47,47.74 72.85,49.40 75.22,51.57 77.59,4.00 79.97,5.71 82.34,6.94 84.72,8.89 87.09,10.95 89.46,12.78 91.84,15.51 94.21,18.02 96.59,20.31 98.96,21.86 101.33,22.68 103.71,23.37 106.08,23.65 108.46,23.52 110.83,23.31 113.20,23.04 115.58,22.72 117.95,22.72 120.33,24.04 122.70,26.16 125.07,28.86 127.45,30.35 129.82,32.00 132.20,34.47 134.57,35.78 136.94,38.70 139.32,41.35 141.69,44.87 144.07,47.47 146.44,50.08 148.81,52.05 151.19,5.52 153.56,6.34 155.93,6.62 158.31,9.50 160.68,11.78 163.06,14.66 165.43,17.53 167.80,19.77 170.18,21.55 172.55,22.97 174.93,22.97 177.30,23.65 179.67,24.13 182.05,23.95 184.42,23.58 186.80,23.08 189.17,22.67 191.54,23.36 193.92,25.00 196.29,25.92 198.67,28.79 201.04,31.19 203.41,33.25 205.79,36.12 208.16,36.12 210.54,38.00 212.91,41.01 215.28,43.98 217.66,46.44 220.03,51.97 222.41,53.90 224.78,18.28 227.15,15.22 229.53,15.22 231.90,15.22 234.28,16.71 236.65,23.33 239.02,23.33 241.40,23.33 243.77,25.98 246.15,25.98 248.52,25.98 250.89,25.98 253.27,25.34 255.64,25.34 258.02,32.69 260.39,25.80 262.76,25.80 265.14,25.80 267.51,31.51 269.89,31.51 272.26,30.18 274.63,30.18 277.01,40.18 279.38,40.18 281.76,40.18 284.13,37.44 286.50,49.65 288.88,49.65 291.25,49.65 293.63,56.00 296.00,56.00" />
</svg>