<svg width="300" height="60" xmlns="http://www.w3.org/2000/svg">
  <polyline fill="rgba(255,200,0,0.3)" stroke="#ffbb00" stroke-width="2" points="4.00,48.71 4.59,48.73 5.17,48.39 5.76,47.99 6.34,47.81 6.93,48.80 7.51,49.90 8.10,50.75 8.68,51.38 9.27,51.78 9.85,51.39 10.44,50.98 11.02,49.88 11.61,48.28 12.19,47.26 12.78,46.84 13.36,46.86 13.95,47.51 14.53,48.28 15.12,49.18 15.70,50.09 16.29,50.98 16.87,52.08 17.46,53.60 18.04,54.70 18.63,55.08 19.21,55.02 19.80,53.94 20.38,50.72 20.97,48.73 21.56,47.79 22.14,47.83 22.73,48.04 23.31,47.57 23.90,46.76 24.48,45.89 25.07,45.35 25.65,44.43 26.24,42.51 26.82,40.79 27.41,39.94 27.99,40.59 28.58,41.99 29.16,43.01 29.75,43.87 30.33,44.00 30.92,42.88 31.50,40.54 32.09,38.72 32.67,37.63 33.26,36.30 33.84,36.12 34.43,37.06 35.01,38.02 35.60,38.62 36.18,36.23 36.77,35.03 37.35,35.77 37.94,36.11 38.53,36.01 39.11,36.59 39.70,36.57 40.28,35.95 40.87,34.92 41.45,33.66 42.04,32.56 42.62,31.67 43.21,29.95 43.79,27.97 44.38,27.02 44.96,26.26 45.55,25.67 46.13,25.24 46.72,25.73 47.30,27.44 47.89,28.91 48.47,28.38 49.06,27.47 49.64,26.58 50.23,26.08 50.81,25.75 51.40,24.12 51.98,22.09 52.57,21.66 53.15,20.75 53.74,20.25 54.32,19.98 54.91,20.10 55.49,21.23 56.08,21.85 56.67,22.50 57.25,22.13 57.84,21.34 58.42,21.04 59.01,20.99 59.59,20.38 60.18,19.46 60.76,18.85 61.35,17.46 61.93,15.93 62.52,14.99 63.10,14.04 63.69,13.83 64.27,13.81 64.86,12.83 65.44,11.50 66.03,9.93 66.61,9.97 67.20,10.98 67.78,11.68 68.37,11.23 68.95,10.51 69.54,9.74 70.12,9.49 70.71,8.89 71.29,8.16 71.88,7.01 72.46,6.04 73.05,5.23 73.64,4.25 74.22,4.04 74.81,4.03 75.39,4.79 75.98,6.00 76.56,7.92 77.15,48.72 77.73,48.72 78.32,48.39 78.90,48.00 79.49,47.64 80.07,49.00 80.66,50.04 81.24,50.65 81.83,51.29 82.41,51.62 83.00,51.15 83.58,51.00 84.17,49.98 84.75,47.91 85.34,47.34 85.92,46.42 86.51,47.05 87.09,47.79 87.68,48.08 88.26,49.02 88.85,50.21 89.43,50.75 90.02,51.74 90.61,53.49 91.19,54.40 91.78,55.06 92.36,54.95 92.95,53.73 93.53,51.04 94.12,48.58 94.70,48.31 95.29,47.88 95.87,48.32 96.46,47.73 97.04,46.47 97.63,45.83 98.21,44.80 98.80,44.61 99.38,42.70 99.97,40.67 100.55,39.62 101.14,40.64 101.72,41.88 102.31,42.86 102.89,43.66 103.48,43.84 104.06,43.01 104.65,40.84 105.23,38.62 105.82,37.36 106.40,36.13 106.99,35.88 107.58,37.36 108.16,38.14 108.75,38.70 109.33,35.95 109.92,35.24 110.50,35.85 111.09,36.08 111.67,35.71 112.26,36.46 112.84,36.77 113.43,36.18 114.01,34.92 114.60,33.79 115.18,32.58 115.77,31.69 116.35,30.19 116.94,27.85 117.52,27.46 118.11,26.79 118.69,25.65 119.28,25.44 119.86,25.77 120.45,27.35 121.03,28.95 121.62,28.27 122.20,27.31 122.79,26.38 123.37,25.62 123.96,25.74 124.55,24.38 125.13,22.09 125.72,21.84 126.30,20.75 126.89,20.04 127.47,19.98 128.06,20.22 128.64,20.98 129.23,21.99 129.81,22.24 130.40,22.14 130.98,21.18 131.57,21.16 132.15,20.98 132.74,20.32 133.32,19.34 133.91,18.86 134.49,17.59 135.08,15.93 135.66,14.74 136.25,14.04 136.83,13.73 137.42,13.90 138.00,12.57 138.59,11.68 139.17,9.86 139.76,10.06 140.34,10.93 140.93,11.96 141.52,11.04 142.10,10.33 142.69,9.97 143.27,9.17 143.86,9.02 144.44,7.97 145.03,7.29 145.61,5.86 146.20,5.45 146.78,4.11 147.37,4.00 147.95,4.10 148.54,4.49 149.12,5.73 149.71,7.52 150.29,48.53 150.88,48.81 151.46,48.42 152.05,48.09 152.63,47.81 153.22,49.70 153.80,50.64 154.39,50.64 154.97,51.28 155.56,51.94 156.14,51.05 156.73,49.95 157.31,48.94 157.90,48.00 158.48,47.64 159.07,45.90 159.66,46.98 160.24,48.28 160.83,48.05 161.41,49.51 162.00,49.65 162.58,50.98 163.17,51.32 163.75,54.50 164.34,55.03 164.92,55.07 165.51,55.03 166.09,53.43 166.68,50.81 167.26,48.70 167.85,47.86 168.43,48.66 169.02,49.89 169.60,47.70 170.19,46.79 170.77,46.06 171.36,44.07 171.94,45.67 172.53,43.49 173.11,41.36 173.70,39.82 174.28,41.79 174.87,42.67 175.45,43.41 176.04,43.74 176.63,43.24 177.21,43.90 177.80,42.26 178.38,39.39 178.97,36.66 179.55,36.72 180.14,36.60 180.72,38.27 181.31,37.63 181.89,38.10 182.48,35.74 183.06,35.72 183.65,36.64 184.23,37.01 184.82,36.64 185.40,36.52 185.99,36.19 186.57,35.78 187.16,34.53 187.74,34.14 188.33,32.32 188.91,30.96 189.50,29.00 190.08,27.33 190.67,28.18 191.25,27.66 191.84,25.09 192.42,24.96 193.01,25.29 193.60,28.53 194.18,27.90 194.77,27.47 195.35,28.39 195.94,26.01 196.52,24.98 197.11,24.74 197.69,22.77 198.28,22.95 198.86,22.44 199.45,20.86 200.03,20.08 200.62,21.17 201.20,20.30 201.79,21.64 202.37,21.90 202.96,21.99 203.54,22.07 204.13,22.29 204.71,21.30 205.30,21.30 205.88,20.65 206.47,19.31 207.05,19.53 207.64,17.83 208.22,15.78 208.81,15.70 209.39,13.93 209.98,13.95 210.57,13.52 211.15,13.01 211.74,10.80 212.32,10.87 212.91,10.43 213.49,11.62 214.08,11.56 214.66,11.01 215.25,10.21 215.83,10.21 216.42,9.82 217.00,9.74 217.59,7.54 218.17,6.98 218.76,6.36 219.34,5.79 219.93,5.13 220.51,4.49 221.10,4.23 221.68,4.66 222.27,6.22 222.85,6.60 223.44,48.96 224.02,48.96 224.61,49.56 225.19,49.56 225.78,49.56 226.36,51.73 226.95,50.52 227.54,50.52 228.12,52.57 228.71,52.57 229.29,52.57 229.88,52.12 230.46,52.12 231.05,51.65 231.63,51.65 232.22,46.09 232.80,49.56 233.39,49.56 233.97,49.56 234.56,53.25 235.14,53.25 235.73,53.25 236.31,54.03 236.90,54.03 237.48,53.99 238.07,53.99 238.65,56.00 239.24,52.98 239.82,52.98 240.41,52.98 240.99,52.94 241.58,52.94 242.16,54.30 242.75,50.28 243.33,50.28 243.92,50.28 244.51,44.31 245.09,49.13 245.68,49.13 246.26,49.13 246.85,44.84 247.43,44.84 248.02,44.84 248.60,43.94 249.19,43.94 249.77,43.94 250.36,43.06 250.94,43.06 251.53,41.62 252.11,41.62 252.70,41.62 253.28,38.59 253.87,38.59 254.45,38.59 255.04,38.59 255.62,38.20 256.21,38.20 256.79,40.35 257.38,40.35 257.96,37.42 258.55,37.42 259.13,37.42 259.72,35.25 260.30,35.25 260.89,33.28 261.47,33.28 262.06,33.28 262.65,30.90 263.23,30.90 263.82,30.90 264.40,30.35 264.99,30.35 265.57,29.71 266.16,29.71 266.74,29.71 267.33,24.62 267.91,24.62 268.50,29.14 269.08,29.14 269.67,23.31 270.25,23.31 270.84,23.31 271.42,24.22 272.01,24.22 272.59,21.36 273.18,23.66 273.76,23.66 274.35,23.66 274.93,22.02 275.52,22.02 276.10,22.02 276.69,22.37 277.27,22.37 277.86,22.37 278.44,22.37 279.03,23.68 279.62,18.76 280.20,18.76 280.79,19.23 281.37,19.23 281.96,19.23 282.54,14.35 283.13,13.67 283.71,13.67 284.30,16.66 284.88,11.33 285.47,11.33 286.05,13.16 286.64,13.16 287.22,13.16 287.81,12.75 288.39,12.75 288.98,12.75 289.56,12.75 290.15,11.54 290.73,11.54 291.32,11.54 291.90,10.04 292.49,10.04 293.07,10.04 293.66,7.37 294.24,7.37 294.83,7.37 295.41,5.71 296.00,5.71" />
</svg>