<svg width="300" height="60" xmlns="http://www.w3.org/2000/svg">
  <polyline fill="rgba(255,200,0,0.3)" stroke="#ffbb00" stroke-width="2" points="4.00,42.23 4.60,41.85 5.20,41.96 5.81,41.02 6.41,40.26 7.01,38.28 7.61,35.69 8.21,33.58 8.82,31.82 9.42,30.57 10.02,29.36 10.62,28.69 11.22,27.91 11.83,27.52 12.43,27.67 13.03,26.97 13.63,25.97 14.24,25.00 14.84,23.93 15.44,23.42 16.04,22.82 16.64,22.15 17.25,21.25 17.85,20.26 18.45,19.29 19.05,18.79 19.65,18.63 20.26,18.58 20.86,19.17 21.46,19.81 22.06,20.16 22.66,20.06 23.27,20.41 23.87,20.76 24.47,20.09 25.07,19.58 25.67,18.79 26.28,17.55 26.88,16.83 27.48,16.53 28.08,15.91 28.68,15.42 29.29,14.76 29.89,14.29 30.49,13.75 31.09,12.65 31.69,11.42 32.30,10.19 32.90,8.69 33.50,8.27 34.10,7.61 34.71,6.93 35.31,6.45 35.91,6.18 36.51,6.22 37.11,6.75 37.72,7.39 38.32,8.33 38.92,9.53 39.52,11.22 40.12,11.99 40.73,13.35 41.33,13.76 41.93,13.48 42.53,13.80 43.13,14.10 43.74,14.97 44.34,16.39 44.94,17.49 45.54,19.04 46.14,18.68 46.75,18.12 47.35,17.27 47.95,16.89 48.55,17.03 49.15,17.61 49.76,18.33 50.36,19.31 50.96,20.30 51.56,21.04 52.16,21.60 52.77,22.36 53.37,23.00 53.97,23.41 54.57,23.48 55.18,24.05 55.78,24.76 56.38,25.51 56.98,26.35 57.58,26.92 58.19,27.29 58.79,28.14 59.39,29.13 59.99,29.67 60.59,31.11 61.20,31.74 61.80,32.64 62.40,33.32 63.00,33.96 63.60,34.42 64.21,35.04 64.81,35.49 65.41,36.03 66.01,36.71 66.61,37.04 67.22,37.03 67.82,38.04 68.42,38.70 69.02,39.64 69.62,40.44 70.23,41.02 70.83,41.51 71.43,42.02 72.03,42.52 72.64,42.71 73.24,42.82 73.84,43.95 74.44,44.24 75.04,44.63 75.65,45.05 76.25,45.51 76.85,45.81 77.45,46.14 78.05,46.40 78.66,46.52 79.26,46.73 79.86,46.90 80.46,46.96 81.06,46.76 81.67,46.81 82.27,46.99 82.87,46.54 83.47,45.61 84.07,45.25 84.68,45.98 85.28,46.82 85.88,47.51 86.48,48.58 87.08,49.16 87.69,49.57 88.29,50.22 88.89,50.50 89.49,51.06 90.09,51.60 90.70,52.08 91.30,52.51 91.90,52.48 92.50,52.64 93.11,52.88 93.71,52.94 94.31,53.15 94.91,53.15 95.51,53.75 96.12,53.59 96.72,54.15 97.32,54.62 97.92,54.61 98.52,54.75 99.13,56.00 99.73,55.67 100.33,54.41 100.93,53.29 101.53,42.16 102.14,41.98 102.74,41.89 103.34,40.75 103.94,40.75 104.54,38.89 105.15,37.03 105.75,33.94 106.35,32.47 106.95,30.44 107.55,29.03 108.16,28.96 108.76,27.68 109.36,27.68 109.96,27.95 110.56,26.39 111.17,26.09 111.77,24.03 112.37,23.84 112.97,21.87 113.58,22.39 114.18,20.89 114.78,22.54 115.38,20.86 115.98,21.02 116.59,19.32 117.19,17.89 117.79,18.80 118.39,18.18 118.99,19.97 119.60,19.23 120.20,20.42 120.80,20.42 121.40,19.92 122.00,20.17 122.61,19.47 123.21,18.74 123.81,17.91 124.41,16.46 125.01,16.39 125.62,15.95 126.22,15.03 126.82,14.87 127.42,13.51 128.02,13.02 128.63,12.19 129.23,11.43 129.83,9.88 130.43,8.36 131.04,8.40 131.64,6.95 132.24,7.13 132.84,5.99 133.44,6.42 134.05,5.59 134.65,6.89 135.25,6.69 135.85,8.43 136.45,9.00 137.06,11.21 137.66,12.26 138.26,13.65 138.86,13.00 139.46,13.00 140.07,14.50 140.67,13.83 141.27,13.54 141.87,16.45 142.47,16.86 143.08,18.85 143.68,17.93 144.28,18.25 144.88,17.02 145.48,16.01 146.09,16.68 146.69,16.34 147.29,17.80 147.89,18.11 148.49,19.75 149.10,20.13 149.70,21.47 150.30,22.89 150.90,22.48 151.51,23.64 152.11,22.82 152.71,24.83 153.31,24.70 153.91,25.57 154.52,26.45 155.12,26.96 155.72,27.43 156.32,28.39 156.92,29.36 157.53,30.43 158.13,30.43 158.73,31.38 159.33,32.36 159.93,33.03 160.54,33.86 161.14,34.42 161.74,35.20 162.34,35.94 162.94,35.94 163.55,36.70 164.15,36.97 164.75,37.75 165.35,37.68 165.95,39.14 166.56,39.39 167.16,40.24 167.76,40.73 168.36,41.01 168.96,41.48 169.57,41.25 170.17,42.06 170.77,42.91 171.37,43.58 171.98,43.98 172.58,44.30 173.18,44.81 173.78,45.06 174.38,45.72 174.99,46.06 175.59,46.15 176.19,46.15 176.79,46.49 177.39,47.03 178.00,46.58 178.60,46.07 179.20,47.10 179.80,46.63 180.40,45.93 181.01,44.50 181.61,45.93 182.21,44.92 182.81,45.89 183.41,46.87 184.02,47.92 184.62,50.01 185.22,49.50 185.82,50.46 186.42,51.42 187.03,51.09 187.63,50.86 188.23,52.03 188.83,52.18 189.44,51.02 190.04,52.36 190.64,52.77 191.24,51.88 191.84,52.50 192.45,53.91 193.05,53.22 193.65,53.76 194.25,54.25 194.85,54.61 195.46,54.79 196.06,55.23 196.66,55.83 197.26,55.34 197.86,54.80 198.47,53.86 199.07,41.87 199.67,40.93 200.27,41.58 200.87,41.58 201.48,41.58 202.08,41.58 202.68,38.47 203.28,36.41 203.88,36.41 204.49,31.08 205.09,31.08 205.69,31.08 206.29,26.94 206.89,26.94 207.50,29.40 208.10,29.40 208.70,24.66 209.30,24.66 209.91,24.66 210.51,18.88 211.11,24.05 211.71,24.05 212.31,24.05 212.92,19.10 213.52,19.10 214.12,19.10 214.72,14.99 215.32,20.75 215.93,20.75 216.53,17.98 217.13,17.98 217.73,17.98 218.33,17.98 218.94,15.96 219.54,19.97 220.14,19.97 220.74,17.57 221.34,17.57 221.95,17.57 222.55,15.60 223.15,15.60 223.75,15.60 224.35,13.77 224.96,13.05 225.56,13.05 226.16,13.05 226.76,11.35 227.36,11.35 227.97,9.69 228.57,9.69 229.17,6.80 229.77,6.73 230.38,6.73 230.98,6.73 231.58,7.76 232.18,7.76 232.78,4.00 233.39,8.37 233.99,8.37 234.59,8.37 235.19,13.54 235.79,11.39 236.40,11.39 237.00,11.39 237.60,11.39 238.20,9.55 238.80,9.55 239.41,16.25 240.01,16.65 240.61,16.65 241.21,16.65 241.81,16.65 242.42,17.19 243.02,17.19 243.62,17.19 244.22,19.07 244.82,19.07 245.43,15.31 246.03,19.92 246.63,19.92 247.23,19.92 247.84,25.07 248.44,25.07 249.04,25.07 249.64,23.19 250.24,23.19 250.85,25.92 251.45,25.92 252.05,25.92 252.65,28.00 253.25,27.60 253.86,27.60 254.46,27.60 255.06,29.36 255.66,29.36 256.26,29.36 256.87,29.36 257.47,32.77 258.07,32.77 258.67,32.77 259.27,34.25 259.88,34.25 260.48,34.25 261.08,34.25 261.68,36.35 262.28,34.67 262.89,34.67 263.49,38.48 264.09,38.48 264.69,38.48 265.29,38.48 265.90,39.40 266.50,39.40 267.10,39.40 267.70,40.63 268.31,40.63 268.91,40.63 269.51,42.52 270.11,42.52 270.71,42.52 271.32,43.91 271.92,43.91 272.52,43.91 273.12,44.14 273.72,44.14 274.33,44.70 274.93,44.70 275.53,44.70 276.13,42.73 276.73,46.55 277.34,46.55 277.94,45.43 278.54,45.43 279.14,44.43 279.74,44.43 280.35,44.43 280.95,46.68 281.55,46.68 282.15,49.83 282.75,45.20 283.36,45.20 283.96,48.45 284.56,48.45 285.16,48.45 285.76,51.74 286.37,48.04 286.97,48.04 287.57,48.04 288.17,52.36 288.78,49.16 289.38,49.16 289.98,49.16 290.58,49.16 291.18,51.79 291.79,51.79 292.39,51.79 292.99,54.79 293.59,54.79 294.19,54.79 294.80,55.28 295.40,55.28 296.00,55.28" />
</svg>