<svg width="300" height="60" xmlns="http://www.w3.org/2000/svg">
  <polyline fill="rgba(255,200,0,0.3)" stroke="#ffbb00" stroke-width="2" points="4.00,42.71 4.57,41.32 5.13,41.94 5.70,39.59 6.26,36.55 6.83,36.50 7.40,37.96 7.96,40.46 8.53,43.08 9.09,46.07 9.66,46.51 10.22,43.28 10.79,39.39 11.36,36.39 11.92,33.84 12.49,32.87 13.05,32.18 13.62,32.34 14.19,32.01 14.75,31.75 15.32,31.43 15.88,30.79 16.45,30.28 17.02,29.63 17.58,28.55 18.15,27.93 18.71,27.71 19.28,27.08 19.84,26.42 20.41,26.06 20.98,25.56 21.54,25.82 22.11,25.45 22.67,24.53 23.24,23.99 23.81,22.67 24.37,23.78 24.94,24.68 25.50,24.81 26.07,24.71 26.64,24.04 27.20,22.65 27.77,19.63 28.33,19.87 28.90,19.10 29.47,19.02 30.03,20.08 30.60,19.16 31.16,19.79 31.73,19.70 32.29,20.26 32.86,20.83 33.43,21.01 33.99,21.15 34.56,20.96 35.12,20.73 35.69,20.50 36.26,21.30 36.82,22.25 37.39,24.99 37.95,29.59 38.52,31.12 39.09,31.71 39.65,31.57 40.22,27.52 40.78,26.20 41.35,25.77 41.91,27.16 42.48,26.98 43.05,25.29 43.61,24.64 44.18,25.27 44.74,26.00 45.31,27.11 45.88,25.40 46.44,24.20 47.01,22.75 47.57,22.93 48.14,22.46 48.71,23.14 49.27,23.77 49.84,23.31 50.40,22.33 50.97,21.13 51.53,21.01 52.10,20.33 52.67,19.18 53.23,18.80 53.80,18.24 54.36,17.92 54.93,18.07 55.50,18.41 56.06,18.02 56.63,15.56 57.19,13.72 57.76,12.91 58.33,12.18 58.89,11.92 59.46,12.23 60.02,12.73 60.59,12.35 61.16,11.97 61.72,12.99 62.29,13.09 62.85,13.20 63.42,14.07 63.98,14.72 64.55,15.14 65.12,15.29 65.68,14.05 66.25,14.60 66.81,13.77 67.38,12.25 67.95,12.37 68.51,12.29 69.08,13.41 69.64,15.57 70.21,16.38 70.78,13.54 71.34,12.61 71.91,12.82 72.47,13.62 73.04,13.41 73.60,13.33 74.17,14.77 74.74,12.46 75.30,11.41 75.87,11.19 76.43,10.54 77.00,10.34 77.57,9.56 78.13,8.72 78.70,9.06 79.26,10.58 79.83,10.52 80.40,10.57 80.96,52.56 81.53,52.42 82.09,53.23 82.66,53.87 83.22,54.39 83.79,55.56 84.36,55.97 84.92,55.90 85.49,55.81 86.05,56.00 86.62,55.33 87.19,55.30 87.75,55.27 88.32,54.70 88.88,54.29 89.45,53.96 90.02,53.57 90.58,52.82 91.15,51.75 91.71,50.74 92.28,48.92 92.84,46.48 93.41,42.29 93.98,38.45 94.54,36.47 95.11,35.52 95.67,36.63 96.24,39.83 96.81,44.56 97.37,44.32 97.94,42.87 98.50,43.56 99.07,46.48 99.64,46.11 100.20,45.78 100.77,45.03 101.33,42.70 101.90,52.05 102.47,52.16 103.03,52.48 103.60,53.01 104.16,55.00 104.73,55.57 105.29,55.98 105.86,55.89 106.43,55.85 106.99,55.78 107.56,55.41 108.12,55.21 108.69,55.05 109.26,54.69 109.82,54.10 110.39,53.80 110.95,53.80 111.52,52.96 112.09,52.28 112.65,50.55 113.22,49.58 113.78,45.75 114.35,42.39 114.91,36.92 115.48,37.60 116.05,36.56 116.61,36.56 117.18,39.98 117.74,43.77 118.31,44.38 118.88,41.91 119.44,44.06 120.01,44.49 120.57,46.89 121.14,46.71 121.71,44.11 122.27,41.34 122.84,42.20 123.40,41.14 123.97,38.44 124.53,36.62 125.10,36.62 125.67,38.39 126.23,41.01 126.80,43.35 127.36,46.46 127.93,44.36 128.50,44.36 129.06,39.73 129.63,35.86 130.19,33.70 130.76,31.98 131.33,32.83 131.89,32.78 132.46,31.96 133.02,31.38 133.59,31.31 134.16,31.90 134.72,30.46 135.29,29.08 135.85,28.87 136.42,28.74 136.98,27.08 137.55,27.22 138.12,25.61 138.68,26.35 139.25,25.74 139.81,25.74 140.38,25.83 140.95,25.94 141.51,24.11 142.08,22.45 142.64,24.40 143.21,22.90 143.78,24.03 144.34,25.01 144.91,23.99 145.47,21.78 146.04,20.65 146.60,17.80 147.17,18.09 147.74,18.54 148.30,19.25 148.87,18.16 149.43,19.63 150.00,18.86 150.57,20.40 151.13,20.51 151.70,20.43 152.26,20.18 152.83,21.61 153.40,19.96 153.96,21.24 154.53,21.65 155.09,23.05 155.66,26.55 156.22,30.81 156.79,29.68 157.36,31.22 157.92,30.20 158.49,28.32 159.05,27.37 159.62,27.15 160.19,27.23 160.75,26.38 161.32,25.30 161.88,24.64 162.45,24.93 163.02,26.20 163.58,26.13 164.15,24.87 164.71,23.23 165.28,23.64 165.84,23.21 166.41,22.91 166.98,22.85 167.54,23.53 168.11,22.80 168.67,21.68 169.24,20.34 169.81,21.59 170.37,20.89 170.94,18.71 171.50,19.53 172.07,19.30 172.64,17.92 173.20,18.12 173.77,17.71 174.33,16.67 174.90,15.56 175.47,14.63 176.03,13.79 176.60,13.16 177.16,12.88 177.73,11.90 178.29,11.90 178.86,12.58 179.43,12.28 179.99,12.58 180.56,13.35 181.12,14.61 181.69,16.52 182.26,14.78 182.82,16.81 183.39,15.90 183.95,14.78 184.52,14.49 185.09,13.26 185.65,10.30 186.22,12.33 186.78,11.68 187.35,14.15 187.91,15.49 188.48,14.61 189.05,14.44 189.61,12.91 190.18,12.77 190.74,12.77 191.31,13.67 191.88,13.38 192.44,13.19 193.01,11.24 193.57,9.92 194.14,11.80 194.71,10.74 195.27,7.42 195.84,9.04 196.40,7.24 196.97,9.31 197.53,10.24 198.10,10.08 198.67,10.80 199.23,49.60 199.80,51.69 200.36,51.69 200.93,51.69 201.50,54.64 202.06,54.64 202.63,54.64 203.19,55.38 203.76,55.38 204.33,55.66 204.89,55.09 205.46,55.09 206.02,55.09 206.59,54.34 207.16,54.34 207.72,54.34 208.29,54.34 208.85,51.39 209.42,51.39 209.98,51.39 210.55,47.34 211.12,47.34 211.68,47.34 212.25,34.65 212.81,42.90 213.38,42.90 213.95,42.90 214.51,39.84 215.08,39.84 215.64,43.85 216.21,43.85 216.78,43.85 217.34,43.80 217.91,43.80 218.47,43.80 219.04,43.80 219.60,39.09 220.17,42.80 220.74,42.80 221.30,39.19 221.87,39.19 222.43,39.19 223.00,39.19 223.57,44.21 224.13,44.21 224.70,44.21 225.26,41.45 225.83,41.45 226.40,34.26 226.96,34.26 227.53,34.26 228.09,32.15 228.66,32.15 229.22,32.15 229.79,32.15 230.36,32.00 230.92,32.00 231.49,32.00 232.05,32.00 232.62,32.70 233.19,32.70 233.75,32.70 234.32,27.73 234.88,27.73 235.45,27.73 236.02,31.65 236.58,31.65 237.15,31.65 237.71,25.96 238.28,31.12 238.84,31.12 239.41,27.43 239.98,27.43 240.54,27.43 241.11,22.92 241.67,21.13 242.24,21.13 242.81,21.13 243.37,15.60 243.94,15.60 244.50,15.60 245.07,18.66 245.64,18.66 246.20,18.66 246.77,23.13 247.33,22.20 247.90,22.20 248.47,22.20 249.03,19.05 249.60,19.05 250.16,24.40 250.73,24.40 251.29,26.62 251.86,26.62 252.43,26.62 252.99,31.39 253.56,31.39 254.12,31.39 254.69,29.32 255.26,29.32 255.82,29.32 256.39,27.07 256.95,27.07 257.52,27.07 258.09,26.03 258.65,26.03 259.22,24.60 259.78,25.82 260.35,25.82 260.91,25.82 261.48,23.57 262.05,23.57 262.61,23.57 263.18,22.47 263.74,22.47 264.31,22.47 264.88,22.33 265.44,22.33 266.01,19.56 266.57,19.56 267.14,19.56 267.71,19.65 268.27,19.65 268.84,19.65 269.40,18.15 269.97,18.15 270.53,18.15 271.10,13.14 271.67,9.38 272.23,9.38 272.80,9.38 273.36,9.08 273.93,9.08 274.50,9.08 275.06,13.51 275.63,13.51 276.19,13.51 276.76,13.84 277.33,13.84 277.89,13.84 278.46,18.74 279.02,18.74 279.59,18.74 280.16,18.74 280.72,14.93 281.29,14.93 281.85,14.00 282.42,14.00 282.98,14.00 283.55,14.00 284.12,9.29 284.68,13.85 285.25,13.85 285.81,13.85 286.38,16.68 286.95,11.86 287.51,11.86 288.08,11.86 288.64,17.55 289.21,12.50 289.78,12.50 290.34,12.50 290.91,4.00 291.47,9.24 292.04,9.24 292.60,9.24 293.17,9.24 293.74,9.67 294.30,9.67 294.87,9.67 295.43,9.67 296.00,18.20" />
</svg>