<svg width="300" height="60" xmlns="http://www.w3.org/2000/svg">
  <polyline fill="rgba(255,200,0,0.3)" stroke="#ffbb00" stroke-width="2" points="4.00,47.63 5.36,44.60 6.72,42.58 8.07,40.96 9.43,39.70 10.79,37.47 12.15,35.21 13.51,33.16 14.87,31.68 16.22,30.81 17.58,30.00 18.94,29.30 20.30,28.49 21.66,27.79 23.01,26.98 24.37,26.40 25.73,25.92 27.09,25.58 28.45,25.60 29.80,26.13 31.16,27.19 32.52,28.28 33.88,29.47 35.24,30.23 36.60,30.85 37.95,31.62 39.31,32.38 40.67,33.14 42.03,33.86 43.39,34.66 44.74,35.41 46.10,36.23 47.46,37.17 48.82,38.40 50.18,39.73 51.53,40.89 52.89,47.81 54.25,44.80 55.61,42.74 56.97,41.11 58.33,39.86 59.68,37.62 61.04,35.40 62.40,33.33 63.76,31.82 65.12,31.01 66.47,30.21 67.83,29.45 69.19,28.70 70.55,27.95 71.91,27.18 73.27,26.61 74.62,26.05 75.98,25.80 77.34,25.80 78.70,26.29 80.06,27.40 81.41,28.48 82.77,29.67 84.13,30.43 85.49,31.07 86.85,31.80 88.20,32.54 89.56,33.31 90.92,34.01 92.28,34.81 93.64,35.55 95.00,36.44 96.35,37.34 97.71,38.59 99.07,39.92 100.43,41.11 101.79,47.50 103.14,44.85 104.50,42.94 105.86,41.15 107.22,39.66 108.58,37.66 109.93,35.65 111.29,33.41 112.65,32.04 114.01,31.14 115.37,30.35 116.73,29.56 118.08,28.67 119.44,27.98 120.80,27.36 122.16,26.57 123.52,26.13 124.87,25.76 126.23,25.71 127.59,26.37 128.95,27.53 130.31,28.85 131.67,29.51 133.02,30.47 134.38,31.09 135.74,31.99 137.10,32.68 138.46,33.37 139.81,34.19 141.17,34.83 142.53,35.51 143.89,36.55 145.25,37.50 146.60,39.09 147.96,40.09 149.32,40.99 150.68,47.58 152.04,45.04 153.40,43.22 154.75,41.63 156.11,39.94 157.47,37.68 158.83,35.99 160.19,33.59 161.54,32.32 162.90,31.56 164.26,30.61 165.62,29.68 166.98,28.97 168.33,28.33 169.69,27.66 171.05,26.92 172.41,26.43 173.77,26.12 175.13,25.91 176.48,26.70 177.84,27.60 179.20,28.98 180.56,29.72 181.92,30.83 183.27,31.43 184.63,32.28 185.99,33.04 187.35,33.68 188.71,34.46 190.07,35.25 191.42,35.99 192.78,36.85 194.14,37.86 195.50,39.15 196.86,40.15 198.21,41.32 199.57,49.82 200.93,44.90 202.29,42.73 203.65,41.14 205.00,39.45 206.36,37.23 207.72,33.42 209.08,32.84 210.44,32.10 211.80,28.71 213.15,29.67 214.51,29.25 215.87,28.72 217.23,27.08 218.59,27.03 219.94,26.66 221.30,26.34 222.66,25.59 224.02,25.80 225.38,26.54 226.73,28.34 228.09,30.40 229.45,29.08 230.81,30.72 232.17,31.04 233.53,31.58 234.88,32.81 236.24,33.13 237.60,34.13 238.96,34.18 240.32,35.77 241.67,36.41 243.03,36.97 244.39,38.71 245.75,39.56 247.11,40.56 248.47,56.00 249.82,41.13 251.18,41.13 252.54,41.13 253.90,29.54 255.26,29.54 256.61,29.54 257.97,30.13 259.33,30.13 260.69,4.00 262.05,11.35 263.40,11.35 264.76,18.65 266.12,18.65 267.48,18.65 268.84,24.31 270.20,24.31 271.55,29.50 272.91,29.50 274.27,29.50 275.63,48.81 276.99,48.81 278.34,29.50 279.70,35.69 281.06,35.69 282.42,31.61 283.78,31.61 285.13,31.61 286.49,31.19 287.85,31.19 289.21,30.93 290.57,30.93 291.93,30.93 293.28,40.13 294.64,40.13 296.00,40.13" />
</svg>