<svg width="300" height="60" xmlns="http://www.w3.org/2000/svg">
  <polyline fill="rgba(255,200,0,0.3)" stroke="#ffbb00" stroke-width="2" points="4.00,49.57 4.86,51.65 5.71,53.36 6.57,54.68 7.43,55.75 8.28,56.00 9.14,55.86 9.99,54.87 10.85,52.76 11.71,50.93 12.56,49.26 13.42,48.49 14.28,48.52 15.13,49.14 15.99,48.67 16.84,47.27 17.70,46.37 18.56,42.63 19.41,40.63 20.27,41.72 21.13,42.48 21.98,42.31 22.84,43.11 23.70,42.17 24.55,41.44 25.41,39.37 26.26,38.92 27.12,37.88 27.98,36.86 28.83,38.05 29.69,38.77 30.55,37.74 31.40,36.91 32.26,36.59 33.11,35.31 33.97,33.69 34.83,31.92 35.68,29.49 36.54,27.40 37.40,25.23 38.25,23.79 39.11,22.50 39.96,22.45 40.82,22.95 41.68,21.14 42.53,20.90 43.39,23.24 44.25,25.72 45.10,27.91 45.96,26.42 46.82,24.70 47.67,25.17 48.53,26.48 49.38,27.73 50.24,29.84 51.10,31.74 51.95,32.33 52.81,34.18 53.67,39.59 54.52,40.66 55.38,41.19 56.23,39.02 57.09,37.70 57.95,36.68 58.80,37.69 59.66,38.09 60.52,38.42 61.37,38.18 62.23,37.60 63.09,36.94 63.94,36.86 64.80,36.60 65.65,36.13 66.51,35.88 67.37,36.28 68.22,36.35 69.08,37.04 69.94,38.93 70.79,42.06 71.65,41.48 72.50,41.44 73.36,40.53 74.22,41.04 75.07,41.28 75.93,37.54 76.79,29.84 77.64,26.62 78.50,25.11 79.35,23.99 80.21,23.34 81.07,22.73 81.92,22.57 82.78,23.23 83.64,22.83 84.49,23.35 85.35,25.79 86.21,31.94 87.06,31.55 87.92,29.89 88.77,30.41 89.63,30.99 90.49,31.22 91.34,28.99 92.20,26.44 93.06,22.43 93.91,20.82 94.77,20.06 95.62,20.60 96.48,21.86 97.34,24.32 98.19,25.98 99.05,28.49 99.91,30.18 100.76,32.06 101.62,48.98 102.48,51.58 103.33,53.29 104.19,55.00 105.04,55.96 105.90,55.89 106.76,55.69 107.61,54.59 108.47,52.90 109.33,50.58 110.18,48.46 111.04,48.25 111.89,48.39 112.75,49.28 113.61,48.32 114.46,46.75 115.32,46.75 116.18,42.51 117.03,42.32 117.89,41.16 118.74,37.95 119.60,42.46 120.46,39.18 121.31,41.98 122.17,41.98 123.03,38.83 123.88,39.25 124.74,37.24 125.60,38.06 126.45,37.65 127.31,38.54 128.16,36.96 129.02,36.22 129.88,36.22 130.73,35.33 131.59,34.16 132.45,30.26 133.30,28.96 134.16,23.28 135.01,23.49 135.87,23.49 136.73,26.09 137.58,21.09 138.44,24.99 139.30,19.79 140.15,16.04 141.01,21.24 141.87,24.95 142.72,28.44 143.58,25.36 144.43,25.36 145.29,23.58 146.15,24.61 147.00,27.48 147.86,27.48 148.72,31.18 149.57,30.78 150.43,34.88 151.28,38.65 152.14,40.95 153.00,39.10 153.85,39.92 154.71,38.42 155.57,36.16 156.42,37.39 157.28,38.31 158.13,38.31 158.99,38.24 159.85,37.63 160.70,37.08 161.56,36.74 162.42,36.33 163.27,36.33 164.13,35.78 164.99,36.09 165.84,36.32 166.70,37.55 167.55,38.92 168.41,41.65 169.27,41.31 170.12,41.58 170.98,40.35 171.84,40.63 172.69,41.39 173.55,37.76 174.40,28.25 175.26,28.05 176.12,23.97 176.97,20.82 177.83,23.83 178.69,21.16 179.54,24.24 180.40,22.56 181.26,21.60 182.11,24.27 182.97,28.51 183.82,28.51 184.68,31.32 185.54,27.42 186.39,29.81 187.25,26.35 188.11,28.64 188.96,30.28 189.82,22.76 190.67,24.33 191.53,19.61 192.39,17.63 193.24,22.89 194.10,23.64 194.96,19.68 195.81,22.63 196.67,28.10 197.52,30.36 198.38,32.38 199.24,52.99 200.09,52.99 200.95,52.99 201.81,54.80 202.66,54.80 203.52,54.80 204.38,54.80 205.23,48.78 206.09,50.35 206.94,50.35 207.80,44.40 208.66,44.40 209.51,45.43 210.37,45.43 211.23,45.43 212.08,45.15 212.94,45.15 213.79,26.28 214.65,26.28 215.51,13.89 216.36,13.89 217.22,40.30 218.08,32.51 218.93,32.51 219.79,32.51 220.65,32.51 221.50,29.09 222.36,29.09 223.21,38.39 224.07,35.38 224.93,35.38 225.78,35.38 226.64,29.98 227.50,29.98 228.35,32.37 229.21,32.37 230.06,17.67 230.92,17.67 231.78,17.67 232.63,13.44 233.49,13.44 234.35,13.44 235.20,13.44 236.06,4.00 236.91,4.00 237.77,4.00 238.63,16.52 239.48,16.52 240.34,16.52 241.20,25.75 242.05,25.75 242.91,13.07 243.77,13.07 244.62,27.71 245.48,27.71 246.33,27.91 247.19,27.91 248.05,27.91 248.90,33.52 249.76,38.24 250.62,38.24 251.47,38.24 252.33,34.34 253.18,34.34 254.04,37.70 254.90,36.87 255.75,36.87 256.61,36.87 257.47,36.87 258.32,36.26 259.18,36.26 260.04,36.26 260.89,34.55 261.75,34.55 262.60,34.55 263.46,36.81 264.32,38.72 265.17,38.72 266.03,40.91 266.89,40.91 267.74,40.91 268.60,36.46 269.45,35.43 270.31,35.43 271.17,35.43 272.02,16.62 272.88,17.65 273.74,17.65 274.59,17.65 275.45,24.28 276.30,9.92 277.16,9.92 278.02,19.77 278.87,19.77 279.73,19.77 280.59,25.17 281.44,25.17 282.30,25.17 283.16,25.17 284.01,29.14 284.87,11.29 285.72,11.29 286.58,13.95 287.44,13.95 288.29,13.95 289.15,20.31 290.01,5.61 290.86,5.61 291.72,20.52 292.57,20.52 293.43,18.26 294.29,18.26 295.14,29.34 296.00,29.34" />
</svg>