<svg width="300" height="60" xmlns="http://www.w3.org/2000/svg">
  <polyline fill="rgba(255,200,0,0.3)" stroke="#ffbb00" stroke-width="2" points="4.00,40.93 4.15,41.56 4.29,41.10 4.44,41.30 4.59,40.87 4.73,40.84 4.88,39.73 5.03,38.08 5.18,37.34 5.32,38.43 5.47,36.17 5.62,36.29 5.76,35.84 5.91,34.49 6.06,32.72 6.20,32.14 6.35,31.31 6.50,31.14 6.65,30.24 6.79,29.48 6.94,29.24 7.09,29.89 7.23,31.35 7.38,33.54 7.53,36.28 7.67,39.47 7.82,42.09 7.97,44.38 8.11,44.15 8.26,43.46 8.41,42.09 8.56,41.13 8.70,40.14 8.85,38.93 9.00,37.73 9.14,36.59 9.29,36.08 9.44,36.31 9.58,37.08 9.73,38.65 9.88,40.90 10.03,43.11 10.17,44.93 10.32,46.43 10.47,46.49 10.61,45.69 10.76,44.41 10.91,43.76 11.05,44.28 11.20,44.49 11.35,44.50 11.49,44.50 11.64,44.26 11.79,43.23 11.94,43.25 12.08,43.22 12.23,43.44 12.38,44.33 12.52,46.46 12.67,47.39 12.82,47.62 12.96,47.27 13.11,46.42 13.26,44.61 13.41,44.01 13.55,43.89 13.70,43.18 13.85,42.40 13.99,40.93 14.14,39.49 14.29,39.39 14.43,40.27 14.58,41.69 14.73,42.54 14.87,42.51 15.02,43.21 15.17,43.02 15.32,41.10 15.46,41.34 15.61,43.82 15.76,44.59 15.90,44.99 16.05,46.11 16.20,44.75 16.34,42.62 16.49,40.70 16.64,39.44 16.79,39.53 16.93,41.10 17.08,42.91 17.23,43.63 17.37,43.86 17.52,44.68 17.67,44.42 17.81,45.52 17.96,47.11 18.11,48.94 18.25,50.19 18.40,49.71 18.55,48.91 18.70,48.11 18.84,47.22 18.99,45.32 19.14,44.22 19.28,43.54 19.43,41.84 19.58,41.05 19.72,41.75 19.87,43.31 20.02,44.45 20.17,45.79 20.31,48.21 20.46,51.93 20.61,54.50 20.75,55.08 20.90,54.21 21.05,53.30 21.19,52.52 21.34,51.42 21.49,50.73 21.63,49.98 21.78,49.55 21.93,49.41 22.08,48.64 22.22,48.99 22.37,49.38 22.52,49.49 22.66,49.40 22.81,49.30 22.96,50.03 23.10,50.39 23.25,50.17 23.40,50.09 23.55,48.83 23.69,47.03 23.84,46.30 23.99,45.42 24.13,45.13 24.28,45.33 24.43,46.43 24.57,47.22 24.72,47.74 24.87,48.02 25.01,48.59 25.16,48.75 25.31,48.55 25.46,47.37 25.60,45.58 25.75,44.09 25.90,43.16 26.04,42.57 26.19,41.87 26.34,40.82 26.48,40.33 26.63,40.61 26.78,41.92 26.93,43.26 27.07,43.88 27.22,45.27 27.37,46.71 27.51,47.45 27.66,47.12 27.81,47.24 27.95,47.60 28.10,48.66 28.25,47.87 28.39,47.99 28.54,46.58 28.69,45.27 28.84,44.05 28.98,43.00 29.13,42.77 29.28,41.82 29.42,40.69 29.57,40.14 29.72,40.75 29.86,41.95 30.01,43.50 30.16,45.48 30.30,47.44 30.45,48.17 30.60,47.95 30.75,48.60 30.89,49.23 31.04,49.13 31.19,49.83 31.33,50.27 31.48,50.40 31.63,48.53 31.77,47.46 31.92,45.94 32.07,44.58 32.22,37.27 32.36,38.59 32.51,40.36 32.66,39.83 32.80,39.92 32.95,39.73 33.10,39.30 33.24,38.65 33.39,38.62 33.54,38.88 33.68,39.32 33.83,39.71 33.98,40.44 34.13,41.05 34.27,41.67 34.42,41.68 34.57,38.23 34.71,35.87 34.86,34.26 35.01,33.96 35.15,34.10 35.30,34.62 35.45,33.59 35.60,31.66 35.74,30.29 35.89,29.63 36.04,29.07 36.18,28.03 36.33,27.35 36.48,26.24 36.62,25.26 36.77,23.88 36.92,22.70 37.06,21.61 37.21,19.95 37.36,19.23 37.51,18.93 37.65,19.01 37.80,19.04 37.95,18.77 38.09,18.35 38.24,17.98 38.39,17.39 38.53,16.96 38.68,16.64 38.83,16.32 38.98,15.87 39.12,15.35 39.27,14.69 39.42,14.11 39.56,13.68 39.71,12.80 39.86,11.46 40.00,10.74 40.15,10.41 40.30,10.11 40.44,10.34 40.59,10.28 40.74,9.85 40.89,9.55 41.03,8.98 41.18,8.51 41.33,8.46 41.47,8.76 41.62,8.96 41.77,8.97 41.91,8.09 42.06,7.65 42.21,7.43 42.36,7.21 42.50,7.01 42.65,7.48 42.80,8.85 42.94,9.98 43.09,9.65 43.24,9.13 43.38,8.95 43.53,9.90 43.68,11.60 43.82,13.21 43.97,15.36 44.12,17.38 44.27,16.74 44.41,17.12 44.56,16.77 44.71,17.17 44.85,17.54 45.00,18.06 45.15,18.79 45.29,20.07 45.44,21.17 45.59,21.14 45.74,21.62 45.88,23.32 46.03,24.49 46.18,24.75 46.32,24.48 46.47,24.15 46.62,23.95 46.76,23.75 46.91,23.27 47.06,22.91 47.20,22.35 47.35,21.88 47.50,21.37 47.65,19.98 47.79,18.31 47.94,16.42 48.09,14.60 48.23,13.16 48.38,12.48 48.53,12.56 48.67,12.97 48.82,14.19 48.97,15.87 49.12,16.39 49.26,15.09 49.41,45.94 49.56,44.59 49.70,43.24 49.85,42.07 50.00,41.39 50.14,40.66 50.29,40.81 50.44,39.82 50.58,39.15 50.73,38.54 50.88,38.90 51.03,40.52 51.17,42.43 51.32,43.74 51.47,44.25 51.61,43.90 51.76,41.27 51.91,37.93 52.05,35.01 52.20,32.20 52.35,29.89 52.50,29.40 52.64,29.17 52.79,27.57 52.94,26.02 53.08,25.92 53.23,27.47 53.38,27.11 53.52,26.65 53.67,23.26 53.82,20.57 53.96,18.94 54.11,17.90 54.26,18.76 54.41,20.52 54.55,20.76 54.70,18.75 54.85,17.02 54.99,16.45 55.14,16.13 55.29,16.61 55.43,17.63 55.58,18.38 55.73,18.42 55.88,18.07 56.02,18.66 56.17,19.44 56.32,21.24 56.46,22.32 56.61,23.46 56.76,23.42 56.90,23.35 57.05,24.01 57.20,24.34 57.34,24.95 57.49,25.52 57.64,27.23 57.79,28.60 57.93,29.10 58.08,27.82 58.23,27.46 58.37,27.94 58.52,28.31 58.67,28.06 58.81,28.02 58.96,29.25 59.11,29.25 59.26,30.45 59.40,32.08 59.55,32.28 59.70,33.16 59.84,33.67 59.99,34.41 60.14,34.99 60.28,36.42 60.43,36.37 60.58,36.71 60.72,37.59 60.87,38.45 61.02,39.94 61.17,41.25 61.31,40.82 61.46,41.54 61.61,43.26 61.75,44.69 61.90,45.42 62.05,46.32 62.19,47.17 62.34,48.07 62.49,48.67 62.64,47.82 62.78,47.90 62.93,47.56 63.08,47.93 63.22,48.46 63.37,48.51 63.52,48.91 63.66,48.09 63.81,48.46 63.96,49.63 64.10,51.33 64.25,53.12 64.40,53.78 64.55,54.94 64.69,55.78 64.84,55.73 64.99,55.93 65.13,56.00 65.28,55.82 65.43,55.48 65.57,55.24 65.72,54.84 65.87,54.50 66.02,54.24 66.16,54.88 66.31,54.05 66.46,54.38 66.60,54.48 66.75,54.25 66.90,54.22 67.04,53.94 67.19,53.65 67.34,53.53 67.48,53.49 67.63,53.26 67.78,53.06 67.93,52.98 68.07,52.77 68.22,52.55 68.37,52.29 68.51,51.74 68.66,51.40 68.81,51.11 68.95,50.99 69.10,50.64 69.25,50.25 69.40,49.86 69.54,49.87 69.69,49.71 69.84,50.13 69.98,50.44 70.13,51.27 70.28,51.53 70.42,51.37 70.57,51.85 70.72,51.66 70.86,51.38 71.01,51.46 71.16,51.06 71.31,49.92 71.45,50.01 71.60,50.60 71.75,50.19 71.89,49.97 72.04,49.88 72.19,49.78 72.33,49.61 72.48,49.48 72.63,49.28 72.78,49.29 72.92,49.07 73.07,48.99 73.22,48.79 73.36,48.60 73.51,48.48 73.66,48.62 73.80,48.61 73.95,48.40 74.10,48.12 74.24,47.90 74.39,47.39 74.54,47.06 74.69,46.85 74.83,46.68 74.98,46.24 75.13,45.97 75.27,44.76 75.42,43.44 75.57,42.72 75.71,41.71 75.86,40.61 76.01,38.79 76.16,36.81 76.30,35.71 76.45,36.59 76.60,37.81 76.74,37.29 76.89,37.04 77.04,36.87 77.18,37.26 77.33,38.59 77.48,41.00 77.62,41.56 77.77,41.18 77.92,41.02 78.07,40.89 78.21,40.81 78.36,39.57 78.51,38.10 78.65,37.37 78.80,38.42 78.95,36.61 79.09,35.36 79.24,36.06 79.39,33.78 79.53,32.63 79.68,32.38 79.83,30.91 79.98,31.04 80.12,29.46 80.27,29.08 80.42,28.97 80.56,30.17 80.71,30.91 80.86,33.15 81.00,35.92 81.15,39.77 81.30,42.17 81.45,44.21 81.59,44.38 81.74,43.46 81.89,42.19 82.03,40.97 82.18,40.53 82.33,38.72 82.47,36.70 82.62,36.20 82.77,35.29 82.91,36.12 83.06,36.65 83.21,38.95 83.36,40.82 83.50,42.21 83.65,45.64 83.80,45.88 83.94,46.44 84.09,44.91 84.24,44.51 84.38,43.93 84.53,44.37 84.68,44.73 84.83,44.46 84.97,44.74 85.12,44.41 85.27,42.43 85.41,43.36 85.56,43.22 85.71,43.63 85.85,44.67 86.00,46.48 86.15,47.45 86.29,47.50 86.44,47.29 86.59,46.88 86.74,44.53 86.88,43.86 87.03,43.68 87.18,43.79 87.32,42.14 87.47,40.37 87.62,39.81 87.76,39.03 87.91,39.55 88.06,41.98 88.21,42.17 88.35,42.19 88.50,42.90 88.65,42.71 88.79,40.38 88.94,41.41 89.09,42.95 89.23,43.96 89.38,44.83 89.53,46.80 89.67,45.13 89.82,42.45 89.97,40.99 90.12,38.84 90.26,39.71 90.41,40.81 90.56,42.94 90.70,43.88 90.85,44.26 91.00,44.70 91.14,44.01 91.29,45.21 91.44,47.02 91.59,49.37 91.73,49.75 91.88,49.77 92.03,48.99 92.17,48.06 92.32,46.37 92.47,44.81 92.61,44.21 92.76,43.17 92.91,41.54 93.05,40.72 93.20,41.98 93.35,42.84 93.50,44.43 93.64,45.54 93.79,47.79 93.94,51.41 94.08,54.56 94.23,55.14 94.38,54.07 94.52,53.46 94.67,52.44 94.82,51.92 94.97,50.75 95.11,49.91 95.26,49.64 95.41,49.04 95.55,48.72 95.70,49.32 95.85,49.32 95.99,49.07 96.14,49.50 96.29,49.11 96.43,50.01 96.58,50.47 96.73,50.19 96.88,50.19 97.02,48.67 97.17,47.12 97.32,46.23 97.46,45.17 97.61,45.30 97.76,45.32 97.90,46.07 98.05,46.89 98.20,47.86 98.35,47.73 98.49,48.58 98.64,48.71 98.79,48.56 98.93,47.31 99.08,45.47 99.23,44.06 99.37,43.51 99.52,42.24 99.67,41.81 99.81,40.56 99.96,39.96 100.11,40.57 100.26,41.80 100.40,43.18 100.55,43.86 100.70,44.62 100.84,46.21 100.99,47.69 101.14,46.44 101.28,47.25 101.43,47.75 101.58,48.59 101.73,48.09 101.87,48.05 102.02,46.17 102.17,45.00 102.31,43.98 102.46,43.11 102.61,42.46 102.75,41.87 102.90,40.36 103.05,39.93 103.19,40.65 103.34,41.96 103.49,43.78 103.64,45.47 103.78,47.38 103.93,48.27 104.08,47.99 104.22,48.27 104.37,48.99 104.52,49.36 104.66,49.79 104.81,50.44 104.96,50.39 105.11,48.26 105.25,47.55 105.40,45.69 105.55,44.37 105.69,43.21 105.84,41.98 105.99,41.06 106.13,40.25 106.28,40.31 106.43,39.34 106.57,39.09 106.72,38.37 106.87,38.85 107.02,40.62 107.16,42.58 107.31,43.82 107.46,44.38 107.60,43.81 107.75,41.02 107.90,37.65 108.04,34.29 108.19,32.16 108.34,29.69 108.49,29.42 108.63,28.82 108.78,26.69 108.93,25.59 109.07,25.39 109.22,27.01 109.37,26.96 109.51,26.60 109.66,23.64 109.81,20.46 109.95,18.28 110.10,17.71 110.25,18.69 110.40,20.65 110.54,20.46 110.69,18.91 110.84,16.90 110.98,16.20 111.13,16.05 111.28,16.58 111.42,17.60 111.57,18.29 111.72,18.37 111.87,17.92 112.01,18.39 112.16,19.07 112.31,20.96 112.45,22.33 112.60,23.26 112.75,23.95 112.89,22.80 113.04,23.45 113.19,24.04 113.33,25.06 113.48,24.85 113.63,27.37 113.78,27.67 113.92,28.77 114.07,27.37 114.22,27.26 114.36,27.81 114.51,27.82 114.66,27.70 114.80,27.91 114.95,28.98 115.10,29.47 115.25,30.76 115.39,31.89 115.54,32.49 115.69,33.02 115.83,33.80 115.98,34.44 116.13,34.96 116.27,36.50 116.42,35.95 116.57,36.93 116.71,37.47 116.86,39.00 117.01,41.15 117.16,41.03 117.30,40.71 117.45,41.84 117.60,43.32 117.74,44.75 117.89,44.93 118.04,45.90 118.18,46.54 118.33,47.82 118.48,47.78 118.63,47.97 118.77,47.43 118.92,47.73 119.07,48.41 119.21,48.39 119.36,48.81 119.51,48.34 119.65,48.05 119.80,48.23 119.95,49.71 120.09,51.29 120.24,53.06 120.39,53.41 120.54,54.87 120.68,55.58 120.83,55.69 120.98,55.95 121.12,55.78 121.27,55.46 121.42,55.49 121.56,55.35 121.71,54.69 121.86,54.19 122.01,54.56 122.15,54.86 122.30,54.01 122.45,54.40 122.59,54.32 122.74,54.17 122.89,54.24 123.03,53.83 123.18,53.63 123.33,53.45 123.47,53.47 123.62,53.29 123.77,52.97 123.92,52.85 124.06,52.70 124.21,52.42 124.36,52.32 124.50,51.81 124.65,51.29 124.80,50.81 124.94,50.79 125.09,50.70 125.24,50.20 125.39,49.44 125.53,49.88 125.68,50.13 125.83,50.17 125.97,50.23 126.12,51.28 126.27,51.50 126.41,51.29 126.56,51.65 126.71,51.38 126.85,51.20 127.00,51.31 127.15,50.92 127.30,49.93 127.44,50.10 127.59,50.36 127.74,50.09 127.88,49.95 128.03,49.77 128.18,49.71 128.32,49.60 128.47,49.39 128.62,49.19 128.76,49.15 128.91,48.92 129.06,48.82 129.21,48.76 129.35,48.50 129.50,48.52 129.65,48.49 129.79,48.72 129.94,48.40 130.09,48.08 130.23,47.88 130.38,47.50 130.53,47.09 130.68,46.84 130.82,46.57 130.97,46.17 131.12,45.88 131.26,44.16 131.41,43.25 131.56,42.34 131.70,41.69 131.85,40.92 132.00,38.78 132.14,36.85 132.29,35.68 132.44,36.44 132.59,37.81 132.73,37.15 132.88,36.97 133.03,36.98 133.17,37.34 133.32,38.27 133.47,40.17 133.61,39.69 133.76,39.83 133.91,39.54 134.06,39.09 134.20,38.79 134.35,38.81 134.50,38.65 134.64,39.29 134.79,39.66 134.94,40.53 135.08,41.06 135.23,41.67 135.38,41.73 135.52,37.80 135.67,35.76 135.82,34.23 135.97,33.38 136.11,33.69 136.26,34.05 136.41,32.87 136.55,31.55 136.70,30.50 136.85,29.84 136.99,28.81 137.14,28.11 137.29,27.22 137.44,25.82 137.58,24.93 137.73,24.08 137.88,22.58 138.02,21.33 138.17,20.06 138.32,19.17 138.46,18.85 138.61,19.04 138.76,19.03 138.90,18.96 139.05,18.17 139.20,17.72 139.35,17.53 139.49,16.93 139.64,16.60 139.79,16.29 139.93,15.94 140.08,15.29 140.23,14.62 140.37,13.67 140.52,13.26 140.67,12.60 140.82,11.52 140.96,10.57 141.11,10.23 141.26,9.84 141.40,10.16 141.55,10.13 141.70,10.08 141.84,9.52 141.99,8.74 142.14,8.53 142.28,8.47 142.43,8.68 142.58,9.02 142.73,8.72 142.87,7.62 143.02,7.86 143.17,7.37 143.31,6.96 143.46,7.02 143.61,7.45 143.75,8.69 143.90,10.03 144.05,9.06 144.20,9.11 144.34,8.60 144.49,10.35 144.64,11.84 144.78,13.52 144.93,15.63 145.08,17.72 145.22,16.26 145.37,17.07 145.52,16.72 145.66,17.33 145.81,17.14 145.96,17.96 146.11,18.43 146.25,20.46 146.40,20.93 146.55,21.54 146.69,22.02 146.84,23.10 146.99,24.23 147.13,24.52 147.28,24.64 147.43,24.33 147.58,23.99 147.72,23.79 147.87,23.42 148.02,22.72 148.16,22.43 148.31,21.67 148.46,21.50 148.60,20.24 148.75,18.39 148.90,16.24 149.04,13.70 149.19,13.09 149.34,12.34 149.49,12.92 149.63,12.69 149.78,14.07 149.93,15.73 150.07,16.39 150.22,15.42 150.37,41.05 150.51,40.99 150.66,41.25 150.81,41.34 150.96,40.50 151.10,39.71 151.25,39.89 151.40,38.07 151.54,37.28 151.69,38.13 151.84,35.71 151.98,37.06 152.13,34.27 152.28,34.84 152.42,31.12 152.57,32.05 152.72,29.23 152.87,30.52 153.01,27.83 153.16,28.81 153.31,29.79 153.45,28.36 153.60,30.53 153.75,31.55 153.89,34.47 154.04,40.43 154.19,42.63 154.34,44.33 154.48,44.41 154.63,43.81 154.78,42.96 154.92,40.12 155.07,40.02 155.22,37.09 155.36,37.50 155.51,34.78 155.66,35.42 155.80,35.95 155.95,36.36 156.10,36.88 156.25,41.58 156.39,41.94 156.54,45.57 156.69,45.82 156.83,45.80 156.98,45.41 157.13,45.25 157.27,42.87 157.42,43.85 157.57,44.36 157.72,44.38 157.86,44.71 158.01,45.14 158.16,42.54 158.30,43.11 158.45,43.21 158.60,42.62 158.74,45.99 158.89,46.04 159.04,45.96 159.18,47.42 159.33,46.89 159.48,45.25 159.63,45.67 159.77,44.78 159.92,44.67 160.07,44.84 160.21,42.02 160.36,38.60 160.51,39.26 160.65,37.07 160.80,39.13 160.95,39.10 161.10,41.84 161.24,40.81 161.39,41.79 161.54,43.41 161.68,40.43 161.83,42.23 161.98,40.59 162.12,41.86 162.27,42.85 162.42,45.16 162.56,44.83 162.71,40.89 162.86,40.79 163.01,37.38 163.15,38.16 163.30,39.30 163.45,43.74 163.59,43.83 163.74,43.32 163.89,44.16 164.03,44.16 164.18,44.80 164.33,46.65 164.48,48.97 164.62,49.83 164.77,48.95 164.92,47.98 165.06,47.33 165.21,45.46 165.36,43.68 165.50,45.09 165.65,43.98 165.80,42.69 165.94,41.59 166.09,42.98 166.24,42.27 166.39,44.08 166.53,46.01 166.68,47.56 166.83,51.04 166.97,53.72 167.12,54.51 167.27,54.54 167.41,53.57 167.56,51.96 167.71,51.70 167.86,50.48 168.00,50.25 168.15,48.89 168.30,50.16 168.44,48.86 168.59,49.57 168.74,48.81 168.88,49.43 169.03,49.55 169.18,48.56 169.32,49.43 169.47,50.23 169.62,50.60 169.77,49.99 169.91,48.82 170.06,47.43 170.21,46.63 170.35,46.03 170.50,45.53 170.65,44.28 170.79,46.74 170.94,45.63 171.09,48.37 171.24,49.13 171.38,47.68 171.53,48.40 171.68,48.29 171.82,46.86 171.97,45.19 172.12,43.79 172.26,43.91 172.41,41.80 172.56,41.22 172.70,40.77 172.85,40.57 173.00,40.47 173.15,42.13 173.29,44.01 173.44,44.38 173.59,43.39 173.73,46.01 173.88,48.32 174.03,47.35 174.17,46.18 174.32,47.36 174.47,47.97 174.61,47.97 174.76,47.30 174.91,45.98 175.06,44.26 175.20,44.76 175.35,42.94 175.50,42.21 175.64,41.31 175.79,39.22 175.94,40.92 176.08,39.78 176.23,41.59 176.38,43.37 176.53,45.51 176.67,47.18 176.82,48.20 176.97,48.43 177.11,48.37 177.26,49.40 177.41,49.57 177.55,50.04 177.70,50.59 177.85,49.79 177.99,48.34 178.14,46.62 178.29,45.21 178.44,44.11 178.58,43.31 178.73,41.66 178.88,41.70 179.02,40.64 179.17,40.00 179.32,40.00 179.46,39.09 179.61,38.54 179.76,38.66 179.91,41.73 180.05,42.36 180.20,42.36 180.35,44.88 180.49,43.91 180.64,41.86 180.79,38.74 180.93,35.39 181.08,31.93 181.23,29.28 181.37,30.77 181.52,28.50 181.67,25.51 181.82,27.32 181.96,24.18 182.11,24.33 182.26,27.11 182.40,26.46 182.55,23.23 182.70,20.16 182.84,17.41 182.99,17.55 183.14,18.56 183.29,19.45 183.43,20.72 183.58,18.96 183.73,16.88 183.87,15.75 184.02,16.47 184.17,16.98 184.31,17.32 184.46,18.43 184.61,18.54 184.75,18.39 184.90,19.11 185.05,18.65 185.20,19.70 185.34,20.72 185.49,21.60 185.64,24.17 185.78,21.99 185.93,23.80 186.08,25.69 186.22,23.67 186.37,24.84 186.52,25.70 186.67,26.27 186.81,29.91 186.96,27.28 187.11,26.77 187.25,28.58 187.40,27.65 187.55,28.01 187.69,28.01 187.84,28.04 187.99,29.34 188.13,30.19 188.28,30.67 188.43,32.04 188.58,33.05 188.72,33.71 188.87,34.65 189.02,35.00 189.16,36.35 189.31,36.81 189.46,37.24 189.60,37.94 189.75,38.20 189.90,41.83 190.05,41.59 190.19,40.64 190.34,41.07 190.49,42.50 190.63,44.66 190.78,44.32 190.93,45.84 191.07,47.34 191.22,46.68 191.37,48.56 191.51,48.04 191.66,48.31 191.81,48.48 191.96,48.25 192.10,48.46 192.25,49.06 192.40,48.33 192.54,49.07 192.69,47.64 192.84,49.53 192.98,52.25 193.13,53.38 193.28,53.38 193.43,54.17 193.57,54.61 193.72,55.13 193.87,55.91 194.01,55.98 194.16,55.01 194.31,55.41 194.45,55.71 194.60,54.40 194.75,54.61 194.89,53.62 195.04,54.29 195.19,54.58 195.34,54.37 195.48,54.44 195.63,53.89 195.78,54.09 195.92,54.12 196.07,53.74 196.22,53.65 196.36,53.62 196.51,53.12 196.66,53.10 196.81,52.68 196.95,52.70 197.10,52.04 197.25,52.18 197.39,51.24 197.54,50.39 197.69,51.15 197.83,50.92 197.98,49.91 198.13,49.59 198.27,49.50 198.42,50.90 198.57,49.70 198.72,50.05 198.86,50.37 199.01,51.45 199.16,50.65 199.30,51.16 199.45,51.70 199.60,51.45 199.74,51.33 199.89,51.12 200.04,50.62 200.19,50.62 200.33,50.06 200.48,49.96 200.63,50.11 200.77,49.89 200.92,49.74 201.07,49.58 201.21,49.58 201.36,49.37 201.51,49.33 201.65,48.82 201.80,48.90 201.95,48.84 202.10,48.76 202.24,48.38 202.39,48.38 202.54,48.50 202.68,48.49 202.83,48.18 202.98,47.85 203.12,47.54 203.27,47.27 203.42,47.03 203.57,46.78 203.71,46.49 203.86,46.17 204.01,45.54 204.15,44.53 204.30,43.73 204.45,42.53 204.59,42.53 204.74,41.24 204.89,39.58 205.03,37.64 205.18,36.18 205.33,36.42 205.48,37.32 205.62,37.00 205.77,37.50 205.92,36.96 206.06,38.44 206.21,38.80 206.36,39.94 206.50,39.94 206.65,39.82 206.80,39.48 206.95,38.89 207.09,39.44 207.24,38.60 207.39,38.74 207.53,39.10 207.68,40.11 207.83,40.84 207.97,41.24 208.12,41.79 208.27,41.86 208.41,36.66 208.56,33.56 208.71,35.26 208.86,34.48 209.00,34.70 209.15,32.61 209.30,33.54 209.44,31.59 209.59,30.53 209.74,28.75 209.88,28.52 210.03,28.52 210.18,27.06 210.33,26.67 210.47,25.02 210.62,24.02 210.77,22.33 210.91,21.07 211.06,19.90 211.21,19.25 211.35,19.25 211.50,19.07 211.65,19.00 211.79,20.05 211.94,18.75 212.09,18.23 212.24,17.54 212.38,17.04 212.53,17.04 212.68,16.74 212.82,16.18 212.97,15.32 213.12,14.59 213.26,13.36 213.41,13.94 213.56,12.75 213.71,11.67 213.85,10.03 214.00,11.05 214.15,11.14 214.29,10.07 214.44,10.21 214.59,10.80 214.73,9.94 214.88,9.05 215.03,9.05 215.17,8.63 215.32,8.17 215.47,8.77 215.62,7.60 215.76,8.28 215.91,6.73 216.06,7.90 216.20,6.58 216.35,7.42 216.50,6.82 216.64,8.27 216.79,10.81 216.94,8.07 217.09,8.21 217.23,8.76 217.38,10.02 217.53,11.33 217.67,13.85 217.82,16.97 217.97,16.56 218.11,17.17 218.26,17.51 218.41,16.15 218.55,15.89 218.70,15.62 218.85,18.42 219.00,19.59 219.14,18.49 219.29,21.71 219.44,21.51 219.58,22.26 219.73,23.66 219.88,22.76 220.02,24.45 220.17,23.82 220.32,24.36 220.47,23.74 220.61,22.99 220.76,23.61 220.91,22.67 221.05,21.68 221.20,21.68 221.35,20.77 221.49,18.99 221.64,19.12 221.79,16.31 221.93,13.58 222.08,12.55 222.23,12.78 222.38,12.78 222.52,13.92 222.67,13.66 222.82,15.74 222.96,15.97 223.11,14.69 223.26,40.43 223.40,37.90 223.55,37.90 223.70,39.94 223.84,39.94 223.99,33.34 224.14,33.34 224.29,36.50 224.43,36.50 224.58,36.50 224.73,30.39 224.87,30.39 225.02,30.39 225.17,30.91 225.31,30.91 225.46,30.91 225.61,22.37 225.76,22.37 225.90,22.37 226.05,25.90 226.20,25.90 226.34,25.90 226.49,31.19 226.64,27.57 226.78,27.57 226.93,36.73 227.08,36.73 227.22,42.99 227.37,42.99 227.52,42.99 227.67,41.18 227.81,41.18 227.96,41.18 228.11,32.24 228.25,32.24 228.40,31.32 228.55,31.32 228.69,31.32 228.84,31.98 228.99,31.98 229.14,31.98 229.28,32.60 229.43,43.99 229.58,43.99 229.72,44.34 229.87,44.34 230.02,44.54 230.16,36.07 230.31,36.07 230.46,38.56 230.60,38.56 230.75,39.78 230.90,39.78 231.05,39.78 231.19,40.17 231.34,40.17 231.49,40.17 231.63,39.31 231.78,39.31 231.93,39.78 232.07,47.48 232.22,47.48 232.37,44.91 232.52,44.91 232.66,44.91 232.81,41.82 232.96,41.82 233.10,42.16 233.25,32.27 233.40,32.27 233.54,32.27 233.69,36.44 233.84,36.44 233.98,36.44 234.13,36.06 234.28,36.06 234.43,36.06 234.57,40.59 234.72,40.59 234.87,27.50 235.01,33.11 235.16,33.11 235.31,36.88 235.45,36.88 235.60,36.88 235.75,37.17 235.90,37.17 236.04,37.17 236.19,39.13 236.34,39.13 236.48,39.13 236.63,40.65 236.78,40.65 236.92,40.65 237.07,45.12 237.22,41.14 237.36,41.14 237.51,47.17 237.66,47.17 237.81,49.55 237.95,45.97 238.10,45.97 238.25,45.97 238.39,40.79 238.54,40.79 238.69,40.79 238.83,38.18 238.98,38.18 239.13,40.87 239.28,40.87 239.42,40.87 239.57,48.38 239.72,48.38 239.86,49.07 240.01,53.57 240.16,53.57 240.30,53.57 240.45,52.40 240.60,52.40 240.74,49.31 240.89,51.45 241.04,51.45 241.19,51.45 241.33,47.79 241.48,47.79 241.63,47.79 241.77,49.12 241.92,49.12 242.07,49.12 242.21,46.76 242.36,50.29 242.51,50.29 242.66,50.29 242.80,48.77 242.95,48.77 243.10,48.77 243.24,46.76 243.39,46.76 243.54,44.69 243.68,44.69 243.83,44.69 243.98,44.69 244.12,48.86 244.27,48.86 244.42,48.86 244.57,44.97 244.71,44.97 244.86,47.76 245.01,44.20 245.15,44.20 245.30,44.20 245.45,41.65 245.59,41.65 245.74,41.65 245.89,37.16 246.04,37.16 246.18,41.68 246.33,41.68 246.48,41.68 246.62,41.68 246.77,46.06 246.92,46.06 247.06,46.06 247.21,41.36 247.36,41.36 247.50,41.36 247.65,46.88 247.80,40.16 247.95,40.16 248.09,43.14 248.24,43.14 248.39,37.61 248.53,37.61 248.68,37.61 248.83,41.50 248.97,38.40 249.12,38.40 249.27,38.40 249.42,45.21 249.56,45.21 249.71,45.21 249.86,48.21 250.00,48.21 250.15,48.21 250.30,48.21 250.44,50.22 250.59,49.76 250.74,49.76 250.88,49.76 251.03,46.72 251.18,46.72 251.33,46.72 251.47,42.87 251.62,42.87 251.77,42.87 251.91,41.50 252.06,39.85 252.21,39.85 252.35,39.85 252.50,39.51 252.65,39.69 252.80,39.69 252.94,39.69 253.09,37.52 253.24,37.52 253.38,37.52 253.53,37.52 253.68,29.49 253.82,32.01 253.97,32.01 254.12,20.42 254.26,20.42 254.41,24.47 254.56,24.47 254.71,24.47 254.85,13.85 255.00,21.31 255.15,21.31 255.29,21.31 255.44,12.90 255.59,12.90 255.73,12.90 255.88,14.12 256.03,14.12 256.18,14.12 256.32,16.37 256.47,16.37 256.62,16.37 256.76,16.37 256.91,16.98 257.06,17.47 257.20,17.47 257.35,17.47 257.50,19.17 257.64,19.73 257.79,19.73 257.94,17.83 258.09,17.83 258.23,17.83 258.38,18.96 258.53,18.96 258.67,22.50 258.82,22.50 258.97,22.50 259.11,21.04 259.26,21.04 259.41,21.04 259.56,23.64 259.70,29.53 259.85,27.89 260.00,27.89 260.14,27.89 260.29,27.86 260.44,27.86 260.58,27.86 260.73,28.39 260.88,28.39 261.02,28.39 261.17,32.41 261.32,32.41 261.47,32.41 261.61,35.87 261.76,35.87 261.91,36.56 262.05,36.56 262.20,36.56 262.35,37.59 262.49,37.59 262.64,37.55 262.79,44.22 262.94,44.22 263.08,39.93 263.23,39.93 263.38,39.93 263.52,42.53 263.67,42.53 263.82,45.35 263.96,45.35 264.11,46.06 264.26,46.06 264.40,46.06 264.55,50.75 264.70,50.75 264.85,50.75 264.99,52.47 265.14,52.47 265.29,52.47 265.43,54.07 265.58,48.59 265.73,50.39 265.87,52.38 266.02,52.38 266.17,52.38 266.32,52.38 266.46,54.30 266.61,54.30 266.76,54.30 266.90,53.92 267.05,54.51 267.20,54.51 267.34,54.51 267.49,51.77 267.64,54.72 267.78,54.72 267.93,53.35 268.08,53.35 268.23,53.98 268.37,53.98 268.52,53.98 268.67,53.98 268.81,53.63 268.96,53.63 269.11,53.63 269.25,53.38 269.40,51.59 269.55,51.59 269.70,51.70 269.84,51.70 269.99,51.70 270.14,52.23 270.28,49.70 270.43,49.70 270.58,49.70 270.72,52.08 270.87,49.37 271.02,49.37 271.16,49.37 271.31,51.75 271.46,49.80 271.61,49.80 271.75,49.80 271.90,51.19 272.05,50.56 272.19,50.56 272.34,50.56 272.49,50.37 272.63,50.37 272.78,50.37 272.93,50.37 273.07,50.37 273.22,49.63 273.37,49.63 273.52,49.63 273.66,49.69 273.81,49.69 273.96,48.96 274.10,48.96 274.25,48.59 274.40,48.59 274.54,48.59 274.69,48.50 274.84,48.50 274.99,48.50 275.13,46.34 275.28,46.34 275.43,46.34 275.57,46.91 275.72,46.91 275.87,46.91 276.01,47.15 276.16,47.15 276.31,47.15 276.45,46.77 276.60,46.77 276.75,46.77 276.90,45.66 277.04,45.66 277.19,45.66 277.34,41.57 277.48,41.57 277.63,41.57 277.78,41.57 277.92,39.41 278.07,39.41 278.22,39.41 278.37,39.14 278.51,39.14 278.66,39.14 278.81,38.42 278.95,38.42 279.10,38.42 279.25,39.31 279.39,39.31 279.54,39.31 279.69,39.31 279.83,38.68 279.98,38.68 280.13,38.68 280.28,38.68 280.42,39.48 280.57,39.48 280.72,39.48 280.86,40.61 281.01,40.61 281.16,40.61 281.30,33.82 281.45,33.82 281.60,35.09 281.75,35.09 281.89,35.09 282.04,29.63 282.19,29.63 282.33,29.63 282.48,33.79 282.63,28.44 282.77,28.44 282.92,28.44 283.07,28.44 283.21,23.67 283.36,23.67 283.51,26.05 283.66,20.88 283.80,20.88 283.95,20.88 284.10,22.59 284.24,22.59 284.39,20.05 284.54,20.05 284.68,21.62 284.83,21.62 284.98,19.17 285.13,19.17 285.27,18.30 285.42,18.30 285.57,18.68 285.71,18.68 285.86,14.17 286.01,14.17 286.15,14.17 286.30,16.66 286.45,10.82 286.59,10.82 286.74,10.82 286.89,14.84 287.04,11.43 287.18,11.43 287.33,11.43 287.48,12.82 287.62,10.40 287.77,10.40 287.92,10.40 288.06,10.69 288.21,7.95 288.36,7.95 288.51,7.17 288.65,7.17 288.80,7.17 288.95,9.64 289.09,4.00 289.24,4.00 289.39,7.00 289.53,7.00 289.68,8.97 289.83,8.97 289.97,8.97 290.12,12.71 290.27,12.71 290.42,11.77 290.56,16.21 290.71,16.21 290.86,16.21 291.00,16.21 291.15,13.52 291.30,13.52 291.44,13.52 291.59,9.22 291.74,16.04 291.89,16.04 292.03,16.04 292.18,17.49 292.33,17.49 292.47,17.49 292.62,22.44 292.77,22.44 292.91,22.44 293.06,24.67 293.21,24.67 293.35,19.65 293.50,22.06 293.65,22.06 293.80,22.06 293.94,18.74 294.09,18.74 294.24,18.74 294.38,18.74 294.53,19.97 294.68,13.11 294.82,13.11 294.97,13.11 295.12,15.65 295.27,15.65 295.41,15.65 295.56,15.65 295.71,14.27 295.85,15.33 296.00,15.33" />
</svg>