<svg width="300" height="60" xmlns="http://www.w3.org/2000/svg">
  <polyline fill="rgba(255,200,0,0.3)" stroke="#ffbb00" stroke-width="2" points="4.00,27.67 4.78,28.73 5.56,29.82 6.34,30.40 7.11,31.18 7.89,31.83 8.67,32.31 9.45,33.23 10.23,34.41 11.01,36.43 11.79,37.34 12.57,38.14 13.34,40.04 14.12,40.91 14.90,41.99 15.68,42.11 16.46,41.35 17.24,39.84 18.02,39.49 18.79,39.22 19.57,39.30 20.35,38.91 21.13,38.90 21.91,38.48 22.69,37.59 23.47,36.24 24.25,35.68 25.02,36.15 25.80,36.27 26.58,36.14 27.36,35.90 28.14,35.45 28.92,35.27 29.70,34.52 30.47,33.15 31.25,31.47 32.03,29.87 32.81,28.58 33.59,27.32 34.37,26.43 35.15,26.30 35.93,26.07 36.70,25.61 37.48,25.76 38.26,24.55 39.04,24.42 39.82,24.19 40.60,24.63 41.38,24.41 42.15,23.76 42.93,23.43 43.71,23.76 44.49,24.04 45.27,24.34 46.05,24.80 46.83,26.31 47.61,26.96 48.38,26.84 49.16,26.75 49.94,27.50 50.72,29.24 51.50,29.00 52.28,28.19 53.06,29.07 53.83,32.64 54.61,37.16 55.39,37.91 56.17,41.94 56.95,36.54 57.73,31.96 58.51,29.00 59.29,24.95 60.06,25.03 60.84,27.81 61.62,26.44 62.40,24.87 63.18,23.38 63.96,23.02 64.74,22.33 65.51,21.06 66.29,19.19 67.07,17.09 67.85,14.85 68.63,15.35 69.41,15.36 70.19,14.57 70.97,12.90 71.74,11.68 72.52,10.38 73.30,9.69 74.08,8.59 74.86,7.02 75.64,5.59 76.42,4.24 77.19,26.72 77.97,28.42 78.75,29.58 79.53,30.26 80.31,31.96 81.09,32.03 81.87,32.27 82.65,32.89 83.42,34.29 84.20,36.25 84.98,37.43 85.76,38.26 86.54,39.61 87.32,40.08 88.10,42.76 88.87,40.19 89.65,39.49 90.43,40.02 91.21,39.37 91.99,39.25 92.77,39.04 93.55,38.92 94.33,38.57 95.10,38.12 95.88,37.51 96.66,35.63 97.44,36.01 98.22,35.97 99.00,36.09 99.78,36.08 100.55,35.58 101.33,35.56 102.11,35.05 102.89,34.12 103.67,33.01 104.45,32.05 105.23,30.33 106.01,28.83 106.78,27.22 107.56,26.50 108.34,26.29 109.12,25.93 109.90,25.40 110.68,25.55 111.46,24.38 112.23,23.61 113.01,23.97 113.79,24.09 114.57,24.47 115.35,23.22 116.13,22.97 116.91,23.80 117.69,24.19 118.46,24.06 119.24,24.51 120.02,26.08 120.80,27.01 121.58,26.85 122.36,26.88 123.14,27.75 123.91,29.01 124.69,28.56 125.47,28.38 126.25,29.64 127.03,33.60 127.81,39.39 128.59,40.44 129.37,43.37 130.14,38.14 130.92,32.53 131.70,29.34 132.48,25.27 133.26,25.15 134.04,27.60 134.82,26.46 135.59,24.01 136.37,23.54 137.15,23.02 137.93,22.36 138.71,21.40 139.49,19.85 140.27,17.37 141.05,14.87 141.82,15.15 142.60,15.36 143.38,14.41 144.16,12.81 144.94,10.54 145.72,10.59 146.50,9.13 147.27,8.65 148.05,6.68 148.83,5.23 149.61,4.34 150.39,27.55 151.17,28.68 151.95,30.95 152.73,30.68 153.50,32.62 154.28,34.26 155.06,32.44 155.84,33.87 156.62,34.32 157.40,36.37 158.18,37.72 158.95,38.43 159.73,40.22 160.51,42.55 161.29,45.01 162.07,40.74 162.85,42.02 163.63,42.26 164.41,39.52 165.18,39.52 165.96,39.55 166.74,39.47 167.52,39.26 168.30,38.28 169.08,37.59 169.86,36.07 170.63,35.53 171.41,35.83 172.19,36.61 172.97,36.05 173.75,36.11 174.53,35.57 175.31,34.91 176.09,35.15 176.86,33.57 177.64,32.36 178.42,30.42 179.20,29.11 179.98,27.73 180.76,26.90 181.54,27.51 182.31,26.26 183.09,26.02 183.87,26.17 184.65,26.11 185.43,25.37 186.21,24.83 186.99,24.38 187.77,23.97 188.54,23.53 189.32,23.92 190.10,24.19 190.88,24.52 191.66,25.23 192.44,25.23 193.22,26.43 193.99,27.29 194.77,27.44 195.55,27.44 196.33,27.84 197.11,28.95 197.89,28.44 198.67,32.23 199.45,27.61 200.22,37.54 201.00,37.39 201.78,42.14 202.56,46.04 203.34,34.88 204.12,32.94 204.90,31.77 205.67,24.52 206.45,24.82 207.23,27.75 208.01,28.46 208.79,24.70 209.57,24.38 210.35,23.70 211.13,24.38 211.90,20.86 212.68,20.53 213.46,16.74 214.24,14.21 215.02,15.31 215.80,15.01 216.58,14.92 217.35,11.64 218.13,12.10 218.91,9.95 219.69,11.44 220.47,9.20 221.25,7.26 222.03,6.37 222.81,5.92 223.58,28.98 224.36,28.98 225.14,39.44 225.92,31.06 226.70,31.06 227.48,36.40 228.26,36.40 229.03,36.40 229.81,44.12 230.59,36.55 231.37,36.55 232.15,42.04 232.93,42.04 233.71,42.04 234.49,52.93 235.26,52.93 236.04,56.00 236.82,56.00 237.60,41.62 238.38,41.41 239.16,41.41 239.94,41.41 240.71,41.17 241.49,41.17 242.27,39.13 243.05,39.13 243.83,39.13 244.61,39.34 245.39,39.34 246.17,39.34 246.94,42.65 247.72,42.65 248.50,41.64 249.28,37.40 250.06,37.40 250.84,32.75 251.62,32.75 252.39,32.75 253.17,30.42 253.95,30.42 254.73,30.30 255.51,28.09 256.29,28.09 257.07,27.32 257.85,27.32 258.62,27.32 259.40,26.88 260.18,26.88 260.96,25.89 261.74,25.89 262.52,25.89 263.30,28.13 264.07,28.13 264.85,26.49 265.63,26.49 266.41,29.45 267.19,29.45 267.97,29.62 268.75,29.62 269.53,31.92 270.30,31.92 271.08,26.70 271.86,34.19 272.64,34.19 273.42,34.19 274.20,51.17 274.98,51.17 275.75,51.17 276.53,35.16 277.31,35.16 278.09,35.16 278.87,32.17 279.65,32.17 280.43,32.17 281.21,40.25 281.98,27.27 282.76,27.27 283.54,27.27 284.32,29.21 285.10,29.21 285.88,29.21 286.66,18.20 287.43,18.20 288.21,18.20 288.99,13.28 289.77,13.28 290.55,13.28 291.33,13.46 292.11,12.53 292.89,12.53 293.66,8.62 294.44,8.62 295.22,8.62 296.00,4.00" />
</svg>