<svg width="300" height="60" xmlns="http://www.w3.org/2000/svg">
  <polyline fill="rgba(255,200,0,0.3)" stroke="#ffbb00" stroke-width="2" points="4.00,44.70 4.57,46.73 5.15,48.97 5.72,50.72 6.29,52.11 6.86,52.67 7.44,52.82 8.01,54.53 8.58,53.98 9.15,53.13 9.73,52.68 10.30,52.03 10.87,4.00 11.44,4.44 12.02,4.90 12.59,5.20 13.16,5.32 13.73,5.42 14.31,5.60 14.88,5.89 15.45,6.19 16.02,6.65 16.60,7.16 17.17,7.20 17.74,6.79 18.31,7.42 18.89,8.43 19.46,9.13 20.03,9.65 20.60,9.91 21.18,9.97 21.75,10.17 22.32,10.46 22.89,10.82 23.47,11.24 24.04,11.30 24.61,11.62 25.18,11.99 25.76,12.42 26.33,12.91 26.90,13.73 27.47,14.33 28.05,14.68 28.62,14.49 29.19,14.72 29.76,15.32 30.34,15.97 30.91,16.18 31.48,16.38 32.05,16.71 32.63,17.12 33.20,17.45 33.77,17.75 34.35,19.18 34.92,20.27 35.49,20.72 36.06,21.17 36.64,21.57 37.21,21.94 37.78,21.87 38.35,21.71 38.93,21.27 39.50,21.09 40.07,21.48 40.64,22.00 41.22,22.52 41.79,22.94 42.36,23.13 42.93,23.65 43.51,23.82 44.08,24.22 44.65,24.72 45.22,24.97 45.80,25.43 46.37,25.49 46.94,25.96 47.51,26.53 48.09,27.13 48.66,27.81 49.23,28.37 49.80,28.72 50.38,29.20 50.95,29.53 51.52,29.76 52.09,30.00 52.67,30.03 53.24,30.30 53.81,30.56 54.38,30.72 54.96,30.91 55.53,31.22 56.10,31.71 56.67,32.33 57.25,33.06 57.82,33.68 58.39,34.83 58.96,35.13 59.54,35.52 60.11,35.78 60.68,35.27 61.25,35.25 61.83,35.65 62.40,36.43 62.97,37.01 63.55,37.37 64.12,37.74 64.69,38.10 65.26,38.71 65.84,38.64 66.41,38.48 66.98,38.62 67.55,38.95 68.13,39.10 68.70,39.67 69.27,40.15 69.84,40.57 70.42,40.94 70.99,40.92 71.56,40.95 72.13,40.14 72.71,40.21 73.28,41.33 73.85,41.37 74.42,42.52 75.00,42.98 75.57,43.03 76.14,43.06 76.71,42.44 77.29,42.77 77.86,45.04 78.43,46.16 79.00,45.93 79.58,46.41 80.15,46.79 80.72,45.72 81.29,43.76 81.87,44.14 82.44,43.39 83.01,43.41 83.58,44.74 84.16,46.76 84.73,49.18 85.30,50.74 85.87,52.09 86.45,52.71 87.02,52.86 87.59,53.25 88.16,53.55 88.74,53.80 89.31,54.40 89.88,54.61 90.45,54.06 91.03,53.18 91.60,52.73 92.17,52.08 92.75,39.13 93.32,41.07 93.89,39.18 94.46,39.63 95.04,42.14 95.61,41.51 96.18,40.31 96.75,43.01 97.33,41.58 97.90,43.66 98.47,42.62 99.04,43.43 99.62,45.70 100.19,45.68 100.76,45.68 101.33,46.04 101.91,46.62 102.48,45.27 103.05,45.27 103.62,43.65 104.20,42.75 104.77,44.66 105.34,43.46 105.91,46.63 106.49,51.02 107.06,51.45 107.63,51.96 108.20,53.18 108.78,52.81 109.35,53.27 109.92,53.57 110.49,53.81 111.07,54.00 111.64,54.49 112.21,53.23 112.78,53.91 113.36,52.26 113.93,52.26 114.50,4.03 115.07,4.42 115.65,5.11 116.22,5.15 116.79,5.52 117.36,5.30 117.94,5.58 118.51,6.41 119.08,6.34 119.65,6.75 120.23,7.15 120.80,7.41 121.37,7.24 121.95,7.39 122.52,8.63 123.09,9.25 123.66,9.74 124.24,9.92 124.81,10.04 125.38,10.32 125.95,10.59 126.53,10.56 127.10,11.85 127.67,12.08 128.24,12.60 128.82,12.50 129.39,12.44 129.96,12.68 130.53,13.53 131.11,15.69 131.68,15.21 132.25,14.38 132.82,14.49 133.40,16.03 133.97,15.57 134.54,15.71 135.11,16.79 135.69,16.81 136.26,16.83 136.83,16.71 137.40,18.31 137.98,19.02 138.55,19.68 139.12,18.84 139.69,22.25 140.27,21.49 140.84,20.69 141.41,20.36 141.98,20.51 142.56,23.20 143.13,22.39 143.70,22.40 144.27,22.47 144.85,23.21 145.42,23.90 145.99,25.13 146.56,23.35 147.14,23.70 147.71,24.08 148.28,24.54 148.85,24.94 149.43,25.14 150.00,25.39 150.57,25.70 151.15,27.06 151.72,27.14 152.29,27.25 152.86,28.31 153.44,29.01 154.01,29.07 154.58,29.55 155.15,30.22 155.73,29.83 156.30,29.95 156.87,30.37 157.44,30.51 158.02,30.75 158.59,31.11 159.16,31.21 159.73,32.07 160.31,31.92 160.88,33.45 161.45,32.68 162.02,34.73 162.60,35.22 163.17,35.07 163.74,36.47 164.31,34.38 164.89,34.92 165.46,36.55 166.03,35.50 166.60,38.42 167.18,38.89 167.75,37.76 168.32,38.56 168.89,37.82 169.47,38.03 170.04,39.35 170.61,38.59 171.18,39.32 171.76,38.48 172.33,39.63 172.90,40.38 173.47,40.52 174.05,40.86 174.62,39.13 175.19,41.08 175.76,39.18 176.34,39.64 176.91,42.14 177.48,41.51 178.05,40.31 178.63,43.01 179.20,41.58 179.77,43.66 180.35,42.62 180.92,43.43 181.49,45.70 182.06,45.69 182.64,45.69 183.21,36.56 183.78,36.56 184.35,36.56 184.93,38.89 185.50,38.89 186.07,38.89 186.64,37.08 187.22,37.08 187.79,39.50 188.36,39.50 188.93,33.59 189.51,38.49 190.08,38.49 190.65,38.49 191.22,40.95 191.80,40.95 192.37,40.95 192.94,37.32 193.51,37.32 194.09,37.32 194.66,42.15 195.23,42.15 195.80,40.32 196.38,40.32 196.95,40.32 197.52,36.94 198.09,43.97 198.67,43.97 199.24,45.48 199.81,45.48 200.38,38.64 200.96,38.64 201.53,47.51 202.10,47.51 202.67,39.25 203.25,39.25 203.82,45.91 204.39,45.91 204.96,45.91 205.54,40.57 206.11,50.61 206.68,50.61 207.25,51.96 207.83,51.96 208.40,54.41 208.97,54.41 209.55,54.41 210.12,55.99 210.69,55.99 211.26,55.99 211.84,53.36 212.41,53.36 212.98,55.30 213.55,55.30 214.13,55.30 214.70,4.82 215.27,4.82 215.84,4.82 216.42,5.16 216.99,5.16 217.56,5.16 218.13,6.42 218.71,6.42 219.28,6.42 219.85,7.15 220.42,7.15 221.00,7.15 221.57,9.02 222.14,6.86 222.71,6.86 223.29,9.73 223.86,9.73 224.43,9.73 225.00,11.30 225.58,11.30 226.15,11.30 226.72,8.16 227.29,10.18 227.87,10.64 228.44,10.64 229.01,10.64 229.58,13.93 230.16,13.93 230.73,15.69 231.30,15.69 231.87,15.69 232.45,14.48 233.02,14.48 233.59,14.48 234.16,13.43 234.74,13.43 235.31,19.30 235.88,19.30 236.45,19.30 237.03,18.31 237.60,18.31 238.17,18.31 238.75,19.18 239.32,19.18 239.89,19.26 240.46,19.26 241.04,19.26 241.61,18.66 242.18,18.66 242.75,20.79 243.33,23.62 243.90,23.62 244.47,24.62 245.04,24.62 245.62,24.62 246.19,24.55 246.76,19.64 247.33,21.56 247.91,21.56 248.48,21.56 249.05,22.78 249.62,22.78 250.20,23.08 250.77,23.08 251.34,25.17 251.91,28.26 252.49,28.26 253.06,28.26 253.63,28.43 254.20,28.43 254.78,28.46 255.35,28.46 255.92,29.07 256.49,29.07 257.07,31.12 257.64,30.75 258.21,30.75 258.78,30.75 259.36,28.19 259.93,30.83 260.50,30.83 261.07,32.69 261.65,32.69 262.22,32.69 262.79,33.96 263.36,34.03 263.94,34.03 264.51,34.03 265.08,36.55 265.65,36.55 266.23,36.55 266.80,38.89 267.37,38.89 267.95,38.89 268.52,37.08 269.09,37.08 269.66,39.51 270.24,39.51 270.81,33.59 271.38,38.49 271.95,38.49 272.53,38.49 273.10,40.96 273.67,40.96 274.24,40.96 274.82,37.33 275.39,37.33 275.96,37.33 276.53,42.15 277.11,42.15 277.68,40.31 278.25,40.31 278.82,40.31 279.40,36.94 279.97,43.97 280.54,43.97 281.11,45.47 281.69,45.47 282.26,38.64 282.83,38.64 283.40,47.52 283.98,47.52 284.55,39.24 285.12,39.24 285.69,45.91 286.27,45.91 286.84,45.91 287.41,40.56 287.98,50.62 288.56,50.62 289.13,51.97 289.70,51.97 290.27,54.41 290.85,54.41 291.42,54.41 291.99,56.00 292.56,56.00 293.14,56.00 293.71,53.36 294.28,53.36 294.85,55.29 295.43,55.29 296.00,55.29" />
</svg>