<svg width="300" height="60" xmlns="http://www.w3.org/2000/svg">
  <polyline fill="rgba(255,200,0,0.3)" stroke="#ffbb00" stroke-width="2" points="4.00,5.18 4.71,4.50 5.42,4.21 6.14,4.34 6.85,4.55 7.56,4.74 8.27,5.06 8.99,5.15 9.70,5.48 10.41,5.56 11.12,5.38 11.83,5.17 12.55,5.22 13.26,5.35 13.97,5.31 14.68,5.12 15.40,4.77 16.11,4.62 16.82,4.59 17.53,4.35 18.24,4.41 18.96,4.38 19.67,4.35 20.38,4.46 21.09,4.46 21.80,4.49 22.52,4.64 23.23,4.74 23.94,5.13 24.65,5.04 25.37,5.08 26.08,5.04 26.79,5.17 27.50,5.31 28.21,5.33 28.93,5.38 29.64,5.67 30.35,5.91 31.06,6.43 31.78,7.33 32.49,8.56 33.20,10.37 33.91,12.38 34.62,15.10 35.34,18.42 36.05,20.62 36.76,23.60 37.47,26.16 38.19,25.89 38.90,24.36 39.61,23.50 40.32,23.01 41.03,23.27 41.75,23.31 42.46,22.87 43.17,23.19 43.88,23.36 44.60,23.94 45.31,24.32 46.02,24.67 46.73,24.31 47.44,24.44 48.16,23.48 48.87,22.93 49.58,22.73 50.29,22.72 51.00,23.13 51.72,23.89 52.43,24.41 53.14,24.87 53.85,25.48 54.57,26.42 55.28,26.74 55.99,27.70 56.70,28.50 57.41,28.46 58.13,28.09 58.84,27.57 59.55,26.27 60.26,25.04 60.98,24.31 61.69,24.13 62.40,24.49 63.11,25.12 63.82,25.92 64.54,26.74 65.25,27.68 65.96,28.65 66.67,29.54 67.39,30.58 68.10,31.57 68.81,32.59 69.52,33.56 70.23,34.38 70.95,35.01 71.66,35.25 72.37,35.10 73.08,34.97 73.80,34.58 74.51,34.42 75.22,34.47 75.93,34.81 76.64,35.40 77.36,36.18 78.07,37.02 78.78,37.96 79.49,39.06 80.20,40.12 80.92,40.99 81.63,41.95 82.34,42.85 83.05,43.47 83.77,43.96 84.48,44.63 85.19,45.70 85.90,47.41 86.61,49.96 87.33,51.91 88.04,54.00 88.75,55.21 89.46,55.41 90.18,56.00 90.89,55.08 91.60,54.03 92.31,53.76 93.02,53.85 93.74,53.93 94.45,53.74 95.16,53.18 95.87,52.68 96.59,53.20 97.30,53.58 98.01,53.24 98.72,53.38 99.43,54.41 100.15,52.68 100.86,51.85 101.57,5.35 102.28,4.65 103.00,4.61 103.71,4.40 104.42,4.28 105.13,4.14 105.84,5.61 106.56,5.58 107.27,5.50 107.98,5.28 108.69,4.98 109.40,4.76 110.12,6.14 110.83,6.10 111.54,5.98 112.25,5.80 112.97,5.67 113.68,4.30 114.39,4.43 115.10,4.43 115.81,4.65 116.53,4.97 117.24,4.00 117.95,4.42 118.66,4.88 119.38,4.23 120.09,4.81 120.80,5.46 121.51,4.96 122.22,5.52 122.94,6.06 123.65,5.31 124.36,5.87 125.07,5.39 125.79,5.39 126.50,5.97 127.21,5.32 127.92,5.83 128.63,6.45 129.35,7.17 130.06,9.80 130.77,10.55 131.48,13.50 132.20,16.15 132.91,19.34 133.62,21.72 134.33,24.67 135.04,25.75 135.76,25.42 136.47,24.32 137.18,23.54 137.89,22.91 138.60,22.95 139.32,23.00 140.03,22.89 140.74,22.94 141.45,23.27 142.17,24.25 142.88,24.82 143.59,25.40 144.30,24.06 145.01,24.63 145.73,23.05 146.44,23.49 147.15,22.74 147.86,22.90 148.58,23.76 149.29,23.79 150.00,24.60 150.71,25.35 151.42,25.35 152.14,26.54 152.85,27.40 153.56,27.61 154.27,28.55 154.99,27.42 155.70,28.17 156.41,27.25 157.12,25.49 157.83,25.95 158.55,24.50 159.26,24.40 159.97,24.40 160.68,25.19 161.40,25.76 162.11,26.85 162.82,28.12 163.53,28.71 164.24,29.96 164.96,31.25 165.67,32.03 166.38,32.55 167.09,33.78 167.80,34.47 168.52,35.19 169.23,35.24 169.94,35.57 170.65,34.81 171.37,34.54 172.08,34.56 172.79,34.50 173.50,34.95 174.21,35.73 174.93,36.75 175.64,37.32 176.35,38.59 177.06,39.19 177.78,39.97 178.49,41.36 179.20,41.79 179.91,42.98 180.62,43.99 181.34,44.37 182.05,45.30 182.76,45.30 183.47,47.09 184.19,49.24 184.90,51.31 185.61,53.74 186.32,55.00 187.03,55.55 187.75,55.49 188.46,55.20 189.17,52.32 189.88,54.05 190.60,53.08 191.31,55.12 192.02,53.31 192.73,52.03 193.44,53.04 194.16,52.37 194.87,53.39 195.58,54.01 196.29,53.64 197.00,53.09 197.72,52.80 198.43,51.27 199.14,5.00 199.85,5.00 200.57,6.99 201.28,6.99 201.99,6.99 202.70,6.96 203.41,6.96 204.13,6.96 204.84,6.49 205.55,6.49 206.26,6.49 206.98,6.10 207.69,6.10 208.40,6.10 209.11,5.79 209.82,5.79 210.54,5.79 211.25,6.20 211.96,6.20 212.67,6.20 213.39,6.20 214.10,7.57 214.81,7.57 215.52,7.57 216.23,9.21 216.95,5.01 217.66,5.01 218.37,6.91 219.08,6.91 219.80,6.91 220.51,8.66 221.22,8.66 221.93,8.66 222.64,6.70 223.36,6.70 224.07,6.70 224.78,6.70 225.49,8.96 226.20,8.96 226.92,8.96 227.63,11.53 228.34,11.53 229.05,18.38 229.77,18.38 230.48,20.39 231.19,22.61 231.90,22.61 232.61,22.61 233.33,20.99 234.04,20.99 234.75,20.99 235.46,20.34 236.18,20.34 236.89,20.82 237.60,20.82 238.31,20.82 239.02,22.25 239.74,22.25 240.45,24.13 241.16,24.13 241.87,24.13 242.59,25.64 243.30,21.53 244.01,21.53 244.72,23.98 245.43,23.98 246.15,23.98 246.86,23.53 247.57,26.32 248.28,26.32 249.00,26.32 249.71,26.19 250.42,29.23 251.13,29.23 251.84,26.31 252.56,26.31 253.27,26.31 253.98,27.96 254.69,24.34 255.40,24.34 256.12,25.63 256.83,25.63 257.54,25.63 258.25,28.11 258.97,28.64 259.68,28.64 260.39,28.64 261.10,30.82 261.81,32.65 262.53,32.65 263.24,34.41 263.95,34.41 264.66,35.95 265.38,35.95 266.09,35.60 266.80,35.60 267.51,36.91 268.22,36.91 268.94,35.35 269.65,35.35 270.36,35.35 271.07,37.60 271.79,37.68 272.50,37.68 273.21,37.68 273.92,41.52 274.63,41.52 275.35,41.52 276.06,41.52 276.77,43.49 277.48,44.96 278.20,44.96 278.91,47.00 279.62,47.00 280.33,47.00 281.04,47.00 281.76,51.95 282.47,51.95 283.18,53.09 283.89,53.36 284.60,55.25 285.32,55.25 286.03,51.36 286.74,51.36 287.45,51.36 288.17,55.17 288.88,55.17 289.59,49.15 290.30,52.39 291.01,52.39 291.73,52.39 292.44,54.98 293.15,54.98 293.86,50.70 294.58,51.41 295.29,51.41 296.00,51.41" />
</svg>