<svg width="300" height="60" xmlns="http://www.w3.org/2000/svg">
  <polyline fill="rgba(255,200,0,0.3)" stroke="#ffbb00" stroke-width="2" points="4.00,4.31 10.79,11.84 17.58,15.43 24.37,20.70 31.16,25.15 37.95,29.13 44.74,32.70 51.53,37.14 58.33,39.41 65.12,41.63 71.91,45.42 78.70,4.00 85.49,11.57 92.28,15.45 99.07,20.84 105.86,25.25 112.65,29.26 119.44,32.87 126.23,37.24 133.02,39.43 139.81,41.66 146.60,45.21 153.40,5.93 160.19,10.28 166.98,13.57 173.77,18.00 180.56,26.21 187.35,29.58 194.14,33.11 200.93,36.48 207.72,39.19 214.51,41.08 221.30,44.69 228.09,7.47 234.88,7.47 241.67,7.47 248.47,25.21 255.26,25.21 262.05,39.74 268.84,39.74 275.63,39.74 282.42,48.69 289.21,48.69 296.00,56.00" />
</svg>