<svg width="300" height="60" xmlns="http://www.w3.org/2000/svg">
  <polyline fill="rgba(255,200,0,0.3)" stroke="#ffbb00" stroke-width="2" points="4.00,51.96 5.38,51.80 6.77,51.18 8.15,50.35 9.54,49.25 10.92,48.30 12.30,47.43 13.69,46.69 15.07,46.09 16.45,45.56 17.84,44.99 19.22,44.43 20.61,44.00 21.99,43.58 23.37,43.11 24.76,42.50 26.14,41.78 27.53,41.16 28.91,40.43 30.29,39.66 31.68,39.06 33.06,38.42 34.45,37.81 35.83,37.27 37.21,36.82 38.60,36.23 39.98,35.40 41.36,34.66 42.75,33.81 44.13,33.10 45.52,32.52 46.90,31.70 48.28,30.83 49.67,30.01 51.05,29.34 52.44,28.71 53.82,28.23 55.20,27.80 56.59,27.20 57.97,26.45 59.36,25.39 60.74,24.26 62.12,23.36 63.51,22.87 64.89,22.93 66.27,23.36 67.66,23.69 69.04,23.42 70.43,22.55 71.81,21.66 73.19,20.86 74.58,20.28 75.96,19.33 77.35,52.07 78.73,51.98 80.11,51.20 81.50,49.63 82.88,49.47 84.27,48.39 85.65,47.51 87.03,46.99 88.42,46.39 89.80,45.68 91.18,45.95 92.57,44.83 93.95,44.22 95.34,44.08 96.72,43.66 98.10,42.94 99.49,42.17 100.87,41.36 102.26,40.42 103.64,39.95 105.02,39.27 106.41,38.52 107.79,38.13 109.18,38.54 110.56,37.16 111.94,36.65 113.33,36.25 114.71,34.87 116.09,34.15 117.48,33.25 118.86,32.78 120.25,31.98 121.63,31.03 123.01,29.84 124.40,29.65 125.78,28.42 127.17,28.71 128.55,27.92 129.93,27.45 131.32,26.49 132.70,25.55 134.09,24.65 135.47,23.51 136.85,23.00 138.24,23.14 139.62,23.62 141.00,28.52 142.39,23.92 143.77,22.77 145.16,21.67 146.54,20.92 147.92,20.47 149.31,19.62 150.69,52.24 152.08,51.42 153.46,46.68 154.84,48.13 156.23,46.48 157.61,44.77 159.00,43.77 160.38,46.30 161.76,45.42 163.15,46.13 164.53,44.76 165.91,43.62 167.30,43.68 168.68,42.64 170.07,41.75 171.45,41.03 172.83,40.09 174.22,39.97 175.60,39.95 176.99,38.36 178.37,39.59 179.75,37.32 181.14,36.83 182.52,36.63 183.91,34.38 185.29,34.99 186.67,35.73 188.06,32.71 189.44,33.83 190.82,32.61 192.21,30.13 193.59,31.60 194.98,30.20 196.36,28.95 197.74,27.25 199.13,27.25 200.51,29.21 201.90,26.38 203.28,26.46 204.66,21.72 206.05,22.82 207.43,24.01 208.82,23.04 210.20,21.45 211.58,23.65 212.97,22.83 214.35,21.67 215.73,20.79 217.12,19.57 218.50,20.20 219.89,19.46 221.27,19.46 222.65,18.25 224.04,56.00 225.42,52.65 226.81,52.65 228.19,47.05 229.57,47.05 230.96,47.05 232.34,44.11 233.73,44.11 235.11,44.11 236.49,40.89 237.88,40.89 239.26,47.95 240.64,41.81 242.03,41.81 243.41,41.81 244.80,37.54 246.18,37.54 247.56,36.75 248.95,36.75 250.33,36.75 251.72,39.99 253.10,31.48 254.48,31.48 255.87,31.48 257.25,25.32 258.64,25.32 260.02,25.32 261.40,29.13 262.79,29.13 264.17,29.13 265.55,19.31 266.94,30.50 268.32,30.50 269.71,24.23 271.09,24.23 272.47,24.23 273.86,24.23 275.24,15.23 276.63,15.23 278.01,21.58 279.39,21.58 280.78,21.58 282.16,19.41 283.55,19.41 284.93,19.41 286.31,11.35 287.70,11.35 289.08,14.94 290.46,14.94 291.85,16.76 293.23,16.76 294.62,16.76 296.00,4.00" />
</svg>