<svg width="300" height="60" xmlns="http://www.w3.org/2000/svg">
  <polyline fill="rgba(255,200,0,0.3)" stroke="#ffbb00" stroke-width="2" points="4.00,24.41 5.05,23.94 6.09,21.85 7.14,19.64 8.19,19.09 9.23,20.46 10.28,21.89 11.33,23.12 12.37,23.52 13.42,24.40 14.47,25.56 15.51,25.82 16.56,25.04 17.61,24.00 18.65,22.44 19.70,21.59 20.75,21.38 21.79,21.71 22.84,22.38 23.89,21.41 24.93,20.24 25.98,18.13 27.03,16.31 28.07,15.01 29.12,14.27 30.16,15.11 31.21,16.04 32.26,15.62 33.30,15.38 34.35,14.74 35.40,13.74 36.44,13.43 37.49,13.02 38.54,13.38 39.58,14.17 40.63,15.71 41.68,16.99 42.72,18.05 43.77,19.55 44.82,20.97 45.86,22.68 46.91,23.65 47.96,24.51 49.00,25.73 50.05,27.10 51.10,28.64 52.14,29.85 53.19,31.43 54.24,32.56 55.28,33.90 56.33,35.68 57.38,36.99 58.42,38.25 59.47,38.82 60.52,37.26 61.56,36.09 62.61,36.10 63.66,36.94 64.70,37.73 65.75,38.86 66.80,39.99 67.84,41.36 68.89,42.35 69.94,40.44 70.98,34.56 72.03,30.69 73.08,25.80 74.12,21.14 75.17,16.07 76.22,10.55 77.26,24.60 78.31,23.36 79.35,21.97 80.40,18.69 81.45,19.10 82.49,18.93 83.54,20.28 84.59,21.77 85.63,22.98 86.68,24.17 87.73,24.67 88.77,24.72 89.82,23.76 90.87,23.55 91.91,23.30 92.96,22.42 94.01,21.24 95.05,21.34 96.10,21.73 97.15,21.88 98.19,19.66 99.24,17.71 100.29,16.01 101.33,14.65 102.38,14.03 103.43,15.11 104.47,16.05 105.52,16.77 106.57,16.17 107.61,14.21 108.66,14.57 109.71,13.61 110.75,13.09 111.80,13.40 112.85,14.37 113.89,15.65 114.94,16.27 115.99,16.81 117.03,18.70 118.08,18.29 119.13,20.86 120.17,21.27 121.22,24.18 122.27,25.36 123.31,24.12 124.36,25.59 125.41,27.34 126.45,28.48 127.50,29.87 128.54,30.90 129.59,32.05 130.64,34.58 131.68,38.50 132.73,37.31 133.78,37.27 134.82,32.27 135.87,33.56 136.92,36.04 137.96,37.27 139.01,38.66 140.06,40.83 141.10,41.66 142.15,41.04 143.20,39.15 144.24,33.02 145.29,30.29 146.34,25.28 147.38,20.44 148.43,15.24 149.48,10.43 150.52,25.32 151.57,23.88 152.62,23.57 153.66,24.13 154.71,20.21 155.76,22.69 156.80,25.93 157.85,24.03 158.90,26.14 159.94,24.28 160.99,26.65 162.04,28.76 163.08,29.23 164.13,27.37 165.18,26.19 166.22,23.97 167.27,20.88 168.32,24.23 169.36,22.14 170.41,25.59 171.46,21.13 172.50,20.98 173.55,13.92 174.59,13.10 175.64,14.18 176.69,15.67 177.73,15.62 178.78,15.47 179.83,15.44 180.87,15.44 181.92,15.28 182.97,16.00 184.01,12.40 185.06,14.97 186.11,18.73 187.15,19.66 188.20,22.54 189.25,18.73 190.29,23.39 191.34,20.57 192.39,25.88 193.43,22.12 194.48,28.66 195.53,34.22 196.57,30.36 197.62,27.99 198.67,34.84 199.71,33.97 200.76,33.40 201.81,40.56 202.85,40.15 203.90,41.33 204.95,46.02 205.99,40.25 207.04,39.70 208.09,38.36 209.13,38.72 210.18,40.37 211.23,36.35 212.27,39.34 213.32,38.21 214.37,41.40 215.41,40.63 216.46,37.68 217.51,33.97 218.55,29.80 219.60,27.95 220.65,24.55 221.69,20.07 222.74,11.26 223.78,22.23 224.83,22.23 225.88,25.99 226.92,25.99 227.97,25.78 229.02,25.78 230.06,25.78 231.11,32.27 232.16,32.27 233.20,32.27 234.25,35.11 235.30,35.11 236.34,35.11 237.39,25.17 238.44,25.17 239.48,25.17 240.53,14.56 241.58,25.11 242.62,25.11 243.67,25.11 244.72,4.00 245.76,6.32 246.81,6.32 247.86,6.32 248.90,8.73 249.95,8.73 251.00,8.73 252.04,9.51 253.09,9.51 254.14,9.51 255.18,9.51 256.23,15.48 257.28,15.48 258.32,15.48 259.37,31.34 260.42,19.21 261.46,19.21 262.51,19.21 263.56,35.12 264.60,35.12 265.65,35.12 266.70,23.59 267.74,23.59 268.79,50.52 269.84,50.52 270.88,42.18 271.93,42.18 272.97,40.48 274.02,40.48 275.07,40.48 276.11,43.16 277.16,43.16 278.21,47.59 279.25,47.59 280.30,47.59 281.35,48.46 282.39,48.46 283.44,48.46 284.49,56.00 285.53,56.00 286.58,39.31 287.63,55.02 288.67,55.02 289.72,41.94 290.77,41.94 291.81,31.38 292.86,31.38 293.91,23.04 294.95,23.04 296.00,14.23" />
</svg>