<svg width="300" height="60" xmlns="http://www.w3.org/2000/svg">
  <polyline fill="rgba(255,200,0,0.3)" stroke="#ffbb00" stroke-width="2" points="4.00,48.05 5.17,49.04 6.35,55.81 7.52,50.75 8.69,47.65 9.86,46.36 11.04,45.49 12.21,44.67 13.38,43.72 14.55,44.26 15.73,43.46 16.90,42.44 18.07,40.56 19.24,38.99 20.42,37.74 21.59,36.72 22.76,34.97 23.94,33.42 25.11,32.50 26.28,30.95 27.45,29.54 28.63,27.78 29.80,27.21 30.97,26.45 32.14,25.06 33.32,24.93 34.49,24.83 35.66,23.08 36.84,23.43 38.01,25.38 39.18,24.66 40.35,13.27 41.53,10.49 42.70,10.07 43.87,9.52 45.04,8.10 46.22,7.87 47.39,6.93 48.56,5.59 49.73,5.82 50.91,8.18 52.08,13.21 53.25,18.41 54.43,16.59 55.60,15.86 56.77,13.82 57.94,8.67 59.12,7.44 60.29,13.86 61.46,19.26 62.63,48.01 63.81,48.72 64.98,55.08 66.15,50.75 67.33,48.00 68.50,46.46 69.67,45.39 70.84,45.02 72.02,43.78 73.19,44.38 74.36,43.38 75.53,42.37 76.71,40.54 77.88,38.98 79.05,37.65 80.22,36.71 81.40,35.10 82.57,33.86 83.74,32.50 84.92,31.16 86.09,29.55 87.26,27.39 88.43,27.15 89.61,26.58 90.78,24.67 91.95,24.93 93.12,24.37 94.30,23.07 95.47,23.75 96.64,25.34 97.82,24.38 98.99,13.85 100.16,10.56 101.33,9.66 102.51,9.50 103.68,8.42 104.85,7.65 106.02,7.02 107.20,6.12 108.37,6.05 109.54,7.92 110.71,13.86 111.89,17.94 113.06,16.58 114.23,15.51 115.41,13.79 116.58,8.18 117.75,6.73 118.92,11.98 120.10,18.90 121.27,48.11 122.44,49.82 123.61,56.00 124.79,49.80 125.96,47.53 127.13,46.17 128.31,45.75 129.48,45.36 130.65,45.57 131.82,44.48 133.00,44.37 134.17,44.07 135.34,40.58 136.51,39.02 137.69,37.67 138.86,36.59 140.03,35.50 141.20,33.10 142.38,32.23 143.55,31.43 144.72,29.58 145.90,28.31 147.07,27.64 148.24,26.75 149.41,25.85 150.59,24.63 151.76,24.71 152.93,23.23 154.10,24.57 155.28,26.24 156.45,22.92 157.62,14.17 158.80,8.74 159.97,9.92 161.14,7.70 162.31,7.91 163.49,8.14 164.66,5.28 165.83,5.74 167.00,6.07 168.18,6.95 169.35,12.70 170.52,16.90 171.69,16.86 172.87,15.62 174.04,13.94 175.21,7.20 176.39,4.00 177.56,9.89 178.73,19.11 179.90,49.83 181.08,50.08 182.25,49.70 183.42,48.15 184.59,46.30 185.77,48.62 186.94,45.64 188.11,43.95 189.29,43.74 190.46,43.37 191.63,45.64 192.80,43.27 193.98,41.55 195.15,40.04 196.32,39.15 197.49,36.67 198.67,35.45 199.84,32.17 201.01,29.27 202.18,30.07 203.36,25.85 204.53,26.35 205.70,26.02 206.88,24.84 208.05,24.84 209.22,23.75 210.39,25.16 211.57,23.27 212.74,24.24 213.91,24.41 215.08,26.59 216.26,14.37 217.43,13.40 218.60,15.59 219.78,6.84 220.95,6.94 222.12,7.07 223.29,7.40 224.47,8.50 225.64,11.78 226.81,6.69 227.98,12.49 229.16,14.13 230.33,16.87 231.50,14.77 232.67,13.76 233.85,11.15 235.02,8.58 236.19,6.90 237.37,18.97 238.54,41.79 239.71,41.79 240.88,30.06 242.06,30.06 243.23,30.06 244.40,44.40 245.57,44.40 246.75,42.92 247.92,42.92 249.09,42.92 250.27,38.88 251.44,38.88 252.61,38.88 253.78,33.17 254.96,33.17 256.13,37.37 257.30,31.27 258.47,31.27 259.65,31.27 260.82,29.00 261.99,20.84 263.16,20.84 264.34,18.78 265.51,18.78 266.68,18.78 267.86,18.78 269.03,24.46 270.20,24.46 271.37,24.46 272.55,21.10 273.72,21.10 274.89,21.26 276.06,21.26 277.24,21.43 278.41,21.43 279.58,21.43 280.76,22.95 281.93,22.95 283.10,22.95 284.27,21.56 285.45,5.33 286.62,5.33 287.79,16.26 288.96,16.26 290.14,21.90 291.31,21.90 292.48,21.90 293.65,18.74 294.83,18.74 296.00,18.74" />
</svg>