<svg width="300" height="60" xmlns="http://www.w3.org/2000/svg">
  <polyline fill="rgba(255,200,0,0.3)" stroke="#ffbb00" stroke-width="2" points="4.00,54.08 4.66,53.45 5.32,52.90 5.98,52.22 6.64,51.45 7.30,50.55 7.95,50.07 8.61,49.40 9.27,48.96 9.93,48.14 10.59,47.48 11.25,46.69 11.91,45.39 12.57,43.60 13.23,42.82 13.89,41.47 14.55,40.95 15.21,41.32 15.86,42.66 16.52,42.15 17.18,41.40 17.84,40.31 18.50,39.64 19.16,39.20 19.82,38.44 20.48,38.23 21.14,38.03 21.80,37.55 22.46,37.07 23.12,37.08 23.77,36.39 24.43,35.57 25.09,34.50 25.75,33.27 26.41,33.14 27.07,33.10 27.73,32.73 28.39,31.52 29.05,30.67 29.71,29.86 30.37,29.59 31.02,29.82 31.68,29.89 32.34,30.15 33.00,30.10 33.66,29.59 34.32,29.47 34.98,28.81 35.64,28.41 36.30,27.81 36.96,27.52 37.62,26.96 38.28,25.43 38.93,23.52 39.59,23.19 40.25,22.56 40.91,22.20 41.57,22.48 42.23,22.70 42.89,22.62 43.55,21.62 44.21,20.48 44.87,19.11 45.53,17.65 46.19,16.66 46.84,16.93 47.50,16.78 48.16,16.60 48.82,15.86 49.48,15.49 50.14,14.23 50.80,12.82 51.46,13.59 52.12,13.64 52.78,15.52 53.44,15.46 54.09,14.71 54.75,13.52 55.41,12.35 56.07,9.77 56.73,8.80 57.39,6.82 58.05,6.51 58.71,6.98 59.37,7.06 60.03,5.90 60.69,4.93 61.35,4.27 62.00,4.18 62.66,4.24 63.32,4.39 63.98,5.19 64.64,5.05 65.30,5.04 65.96,6.18 66.62,7.12 67.28,7.75 67.94,7.62 68.60,7.31 69.26,6.68 69.91,6.10 70.57,5.83 71.23,5.56 71.89,5.36 72.55,5.43 73.21,5.65 73.87,6.08 74.53,6.74 75.19,7.16 75.85,7.49 76.51,7.42 77.16,53.91 77.82,53.43 78.48,52.96 79.14,52.28 79.80,51.54 80.46,50.86 81.12,49.34 81.78,48.94 82.44,48.78 83.10,48.13 83.76,47.50 84.42,46.79 85.07,45.58 85.73,43.58 86.39,42.23 87.05,41.58 87.71,40.46 88.37,41.32 89.03,42.59 89.69,42.47 90.35,41.34 91.01,40.25 91.67,39.53 92.33,39.17 92.98,38.50 93.64,38.22 94.30,37.97 94.96,37.44 95.62,37.04 96.28,37.08 96.94,36.31 97.60,35.48 98.26,34.07 98.92,33.42 99.58,33.12 100.23,32.99 100.89,32.17 101.55,31.78 102.21,30.96 102.87,29.87 103.53,29.75 104.19,29.75 104.85,29.94 105.51,30.33 106.17,30.13 106.83,29.49 107.49,29.26 108.14,29.03 108.80,28.44 109.46,27.80 110.12,27.62 110.78,26.98 111.44,25.69 112.10,23.44 112.76,23.02 113.42,22.45 114.08,22.09 114.74,22.77 115.40,23.23 116.05,22.87 116.71,21.48 117.37,20.64 118.03,19.20 118.69,18.06 119.35,16.79 120.01,17.26 120.67,16.65 121.33,16.38 121.99,15.80 122.65,15.36 123.30,14.19 123.96,12.96 124.62,13.49 125.28,13.60 125.94,15.50 126.60,14.85 127.26,15.31 127.92,13.85 128.58,12.64 129.24,9.63 129.90,9.11 130.56,6.99 131.21,6.34 131.87,6.54 132.53,6.59 133.19,5.71 133.85,4.80 134.51,4.38 135.17,4.00 135.83,4.24 136.49,4.28 137.15,4.63 137.81,4.81 138.47,5.14 139.12,6.09 139.78,6.89 140.44,7.73 141.10,7.29 141.76,7.03 142.42,6.76 143.08,6.18 143.74,5.81 144.40,5.45 145.06,5.25 145.72,5.28 146.37,5.48 147.03,5.90 147.69,6.63 148.35,6.96 149.01,7.21 149.67,7.35 150.33,54.52 150.99,53.79 151.65,53.82 152.31,51.89 152.97,51.77 153.63,50.17 154.28,50.17 154.94,48.11 155.60,48.44 156.26,48.61 156.92,46.51 157.58,46.64 158.24,44.52 158.90,44.59 159.56,43.38 160.22,41.42 160.88,41.25 161.53,41.39 162.19,42.43 162.85,41.96 163.51,41.47 164.17,40.24 164.83,39.62 165.49,39.40 166.15,38.70 166.81,38.35 167.47,38.04 168.13,37.52 168.79,37.26 169.44,36.42 170.10,35.78 170.76,35.80 171.42,34.53 172.08,33.46 172.74,32.82 173.40,32.42 174.06,32.07 174.72,31.54 175.38,31.07 176.04,30.28 176.70,29.95 177.35,29.88 178.01,30.07 178.67,30.27 179.33,30.38 179.99,29.07 180.65,29.14 181.31,29.41 181.97,28.14 182.63,28.24 183.29,28.13 183.95,26.65 184.60,24.99 185.26,23.67 185.92,22.96 186.58,22.34 187.24,22.22 187.90,23.86 188.56,23.67 189.22,23.67 189.88,22.09 190.54,20.47 191.20,19.06 191.86,17.44 192.51,17.34 193.17,17.87 193.83,16.43 194.49,16.43 195.15,16.35 195.81,15.84 196.47,15.00 197.13,14.05 197.79,13.93 198.45,14.88 199.11,16.40 199.77,16.38 200.42,14.61 201.08,13.93 201.74,11.06 202.40,10.82 203.06,8.83 203.72,7.52 204.38,7.43 205.04,6.40 205.70,6.76 206.36,6.48 207.02,4.59 207.67,4.38 208.33,4.51 208.99,4.96 209.65,4.35 210.31,5.65 210.97,5.31 211.63,5.02 212.29,6.46 212.95,7.48 213.61,7.95 214.27,7.38 214.93,6.76 215.58,7.58 216.24,6.64 216.90,6.07 217.56,5.81 218.22,5.48 218.88,5.58 219.54,5.72 220.20,6.24 220.86,6.72 221.52,7.45 222.18,7.40 222.84,7.76 223.49,56.00 224.15,56.00 224.81,56.00 225.47,52.18 226.13,52.18 226.79,52.18 227.45,52.18 228.11,53.37 228.77,53.37 229.43,53.37 230.09,46.51 230.74,46.51 231.40,46.51 232.06,47.19 232.72,47.19 233.38,42.46 234.04,42.46 234.70,42.46 235.36,41.91 236.02,40.81 236.68,40.81 237.34,40.03 238.00,40.03 238.65,40.03 239.31,38.75 239.97,38.75 240.63,38.75 241.29,37.12 241.95,37.12 242.61,37.12 243.27,33.64 243.93,33.64 244.59,33.64 245.25,33.64 245.91,31.39 246.56,31.39 247.22,31.39 247.88,30.82 248.54,30.82 249.20,30.82 249.86,30.82 250.52,30.44 251.18,30.44 251.84,30.65 252.50,30.65 253.16,30.02 253.81,27.57 254.47,27.57 255.13,27.57 255.79,25.97 256.45,25.97 257.11,23.21 257.77,23.21 258.43,23.21 259.09,23.47 259.75,23.47 260.41,23.02 261.07,23.02 261.72,23.02 262.38,23.02 263.04,18.75 263.70,20.65 264.36,20.65 265.02,21.29 265.68,21.29 266.34,21.29 267.00,15.71 267.66,15.71 268.32,15.71 268.98,15.71 269.63,14.61 270.29,14.61 270.95,14.61 271.61,15.21 272.27,15.21 272.93,15.21 273.59,9.67 274.25,11.46 274.91,11.46 275.57,11.46 276.23,7.74 276.88,7.74 277.54,7.74 278.20,7.73 278.86,7.73 279.52,7.73 280.18,7.12 280.84,7.12 281.50,7.12 282.16,8.48 282.82,8.12 283.48,8.12 284.14,8.12 284.79,7.05 285.45,7.05 286.11,9.70 286.77,9.70 287.43,9.70 288.09,7.03 288.75,7.03 289.41,7.03 290.07,7.03 290.73,6.12 291.39,6.12 292.05,6.12 292.70,7.78 293.36,7.78 294.02,7.78 294.68,7.77 295.34,7.77 296.00,7.77" />
</svg>