<svg width="300" height="60" xmlns="http://www.w3.org/2000/svg">
  <polyline fill="rgba(255,200,0,0.3)" stroke="#ffbb00" stroke-width="2" points="4.00,56.00 5.47,55.87 6.93,53.06 8.40,52.43 9.87,51.27 11.34,51.39 12.80,51.51 14.27,51.11 15.74,50.91 17.21,50.86 18.67,50.15 20.14,47.72 21.61,45.04 23.08,43.15 24.54,41.00 26.01,36.44 27.48,30.60 28.94,28.50 30.41,30.63 31.88,32.19 33.35,34.10 34.81,33.95 36.28,32.09 37.75,30.38 39.22,28.12 40.68,23.07 42.15,20.41 43.62,18.09 45.09,21.26 46.55,20.03 48.02,17.73 49.49,12.76 50.95,9.55 52.42,6.33 53.89,10.36 55.36,15.43 56.82,19.45 58.29,22.17 59.76,24.24 61.23,27.01 62.69,30.47 64.16,35.72 65.63,31.08 67.10,30.82 68.56,25.85 70.03,25.07 71.50,23.33 72.96,24.67 74.43,25.88 75.90,30.18 77.37,51.61 78.83,55.35 80.30,52.96 81.77,51.50 83.24,50.62 84.70,50.83 86.17,50.91 87.64,51.17 89.11,51.03 90.57,50.30 92.04,49.77 93.51,47.02 94.97,44.36 96.44,41.27 97.91,39.88 99.38,37.09 100.84,32.21 102.31,27.63 103.78,29.75 105.25,32.74 106.71,31.53 108.18,33.14 109.65,30.48 111.12,30.08 112.58,27.06 114.05,23.54 115.52,19.02 116.98,18.59 118.45,20.08 119.92,19.35 121.39,16.01 122.85,11.75 124.32,8.49 125.79,4.00 127.26,10.58 128.72,10.98 130.19,18.01 131.66,21.79 133.13,24.33 134.59,26.19 136.06,29.61 137.53,33.60 138.99,31.62 140.46,30.09 141.93,28.03 143.40,21.04 144.86,23.03 146.33,24.00 147.80,26.99 149.27,28.40 150.73,53.75 152.20,52.95 153.67,52.62 155.14,52.15 156.60,51.75 158.07,51.68 159.54,50.75 161.01,50.89 162.47,51.15 163.94,51.15 165.41,48.15 166.87,47.75 168.34,47.15 169.81,38.44 171.28,40.37 172.74,41.97 174.21,28.08 175.68,35.52 177.15,30.87 178.61,35.71 180.08,33.65 181.55,39.36 183.02,30.65 184.48,25.60 185.95,31.98 187.42,25.54 188.88,19.22 190.35,24.73 191.82,19.15 193.29,17.66 194.75,20.52 196.22,13.94 197.69,7.36 199.16,11.15 200.62,15.27 202.09,11.02 203.56,15.20 205.03,19.03 206.49,26.20 207.96,28.93 209.43,32.32 210.89,36.24 212.36,37.17 213.83,25.14 215.30,22.80 216.76,23.53 218.23,24.86 219.70,26.32 221.17,28.32 222.63,34.43 224.10,52.42 225.57,51.87 227.04,51.87 228.50,51.87 229.97,51.67 231.44,51.67 232.90,51.67 234.37,51.94 235.84,51.94 237.31,52.14 238.77,43.96 240.24,43.96 241.71,44.89 243.18,44.89 244.64,44.89 246.11,46.69 247.58,46.69 249.05,48.68 250.51,34.26 251.98,34.26 253.45,44.09 254.91,44.09 256.38,44.09 257.85,23.42 259.32,35.80 260.78,35.80 262.25,35.80 263.72,41.45 265.19,26.36 266.65,26.36 268.12,26.36 269.59,34.54 271.06,11.66 272.52,11.66 273.99,22.56 275.46,22.56 276.92,22.56 278.39,31.27 279.86,31.27 281.33,37.85 282.79,37.85 284.26,37.85 285.73,39.77 287.20,39.77 288.66,39.77 290.13,39.77 291.60,39.77 293.07,40.86 294.53,40.86 296.00,42.19" />
</svg>