<svg width="300" height="60" xmlns="http://www.w3.org/2000/svg">
  <polyline fill="rgba(255,200,0,0.3)" stroke="#ffbb00" stroke-width="2" points="4.00,55.94 4.14,55.34 4.28,54.85 4.42,54.44 4.57,54.16 4.71,53.89 4.85,53.87 4.99,53.94 5.13,53.61 5.27,53.35 5.41,53.27 5.55,53.07 5.70,53.01 5.84,52.94 5.98,52.79 6.12,52.30 6.26,51.56 6.40,50.36 6.54,49.19 6.68,49.40 6.83,50.52 6.97,51.31 7.11,51.09 7.25,50.09 7.39,49.40 7.53,48.27 7.67,47.73 7.81,47.45 7.96,47.83 8.10,48.47 8.24,49.35 8.38,49.82 8.52,50.27 8.66,49.70 8.80,49.02 8.94,48.70 9.09,48.90 9.23,48.66 9.37,47.54 9.51,47.49 9.65,47.31 9.79,46.97 9.93,47.14 10.07,47.81 10.22,47.96 10.36,47.95 10.50,48.05 10.64,47.96 10.78,47.61 10.92,47.44 11.06,47.12 11.20,47.01 11.35,47.84 11.49,48.07 11.63,46.73 11.77,46.32 11.91,45.96 12.05,46.09 12.19,46.28 12.33,46.57 12.48,46.69 12.62,46.27 12.76,45.93 12.90,45.67 13.04,45.89 13.18,46.36 13.32,46.48 13.46,45.67 13.61,45.27 13.75,44.55 13.89,45.07 14.03,45.56 14.17,47.16 14.31,47.69 14.45,47.45 14.60,46.86 14.74,46.56 14.88,47.13 15.02,47.07 15.16,45.82 15.30,45.00 15.44,44.63 15.58,44.25 15.73,44.07 15.87,43.02 16.01,42.35 16.15,42.04 16.29,40.57 16.43,41.54 16.57,42.57 16.71,42.63 16.86,41.00 17.00,40.38 17.14,40.73 17.28,41.95 17.42,42.15 17.56,42.72 17.70,43.08 17.84,42.24 17.99,41.32 18.13,40.72 18.27,39.50 18.41,38.87 18.55,38.95 18.69,39.32 18.83,39.90 18.97,40.01 19.12,39.60 19.26,39.43 19.40,38.84 19.54,38.03 19.68,37.40 19.82,37.61 19.96,37.83 20.10,37.95 20.25,38.40 20.39,38.63 20.53,37.00 20.67,37.17 20.81,37.26 20.95,37.07 21.09,36.11 21.23,35.14 21.38,34.40 21.52,34.17 21.66,34.32 21.80,34.31 21.94,34.35 22.08,34.44 22.22,34.43 22.36,34.12 22.51,33.70 22.65,33.36 22.79,33.09 22.93,33.08 23.07,32.93 23.21,33.49 23.35,34.34 23.49,6.95 23.64,6.94 23.78,7.30 23.92,7.69 24.06,8.18 24.20,8.54 24.34,7.29 24.48,5.76 24.63,4.06 24.77,55.93 24.91,55.32 25.05,54.83 25.19,54.42 25.33,54.15 25.47,53.87 25.61,53.85 25.76,53.95 25.90,53.65 26.04,53.36 26.18,53.21 26.32,53.09 26.46,53.02 26.60,52.94 26.74,52.79 26.89,52.23 27.03,51.59 27.17,50.37 27.31,49.20 27.45,49.40 27.59,50.53 27.73,51.31 27.87,50.99 28.02,50.10 28.16,49.33 28.30,48.27 28.44,47.73 28.58,47.43 28.72,47.88 28.86,48.44 29.00,49.34 29.15,49.95 29.29,50.19 29.43,49.72 29.57,49.04 29.71,48.66 29.85,48.91 29.99,48.56 30.13,47.56 30.28,47.49 30.42,47.14 30.56,46.98 30.70,47.03 30.84,47.67 30.98,47.97 31.12,48.00 31.26,48.04 31.41,47.94 31.55,47.60 31.69,47.42 31.83,47.12 31.97,47.12 32.11,47.69 32.25,48.03 32.39,46.87 32.54,46.31 32.68,45.87 32.82,46.09 32.96,46.32 33.10,46.64 33.24,46.53 33.38,46.14 33.52,45.92 33.67,45.68 33.81,45.96 33.95,46.38 34.09,46.56 34.23,45.67 34.37,45.27 34.51,44.68 34.66,45.07 34.80,45.52 34.94,47.02 35.08,47.65 35.22,47.52 35.36,46.78 35.50,46.56 35.64,47.18 35.79,47.05 35.93,45.67 36.07,44.93 36.21,44.72 36.35,44.22 36.49,43.96 36.63,43.02 36.77,42.32 36.92,41.93 37.06,40.33 37.20,41.41 37.34,42.40 37.48,42.64 37.62,40.81 37.76,40.36 37.90,40.83 38.05,41.95 38.19,42.09 38.33,42.60 38.47,43.06 38.61,42.26 38.75,41.30 38.89,40.81 39.03,39.50 39.18,38.88 39.32,38.91 39.46,39.33 39.60,39.88 39.74,39.88 39.88,39.60 40.02,39.48 40.16,38.85 40.31,37.97 40.45,37.45 40.59,37.62 40.73,37.85 40.87,38.08 41.01,38.40 41.15,38.56 41.29,38.25 41.44,38.35 41.58,38.46 41.72,38.15 41.86,37.61 42.00,37.77 42.14,38.41 42.28,38.66 42.42,39.13 42.57,39.56 42.71,39.51 42.85,39.46 42.99,39.25 43.13,38.99 43.27,38.65 43.41,38.35 43.55,37.99 43.70,37.71 43.84,37.56 43.98,36.98 44.12,37.16 44.26,37.26 44.40,37.05 44.54,36.07 44.69,35.15 44.83,34.39 44.97,34.22 45.11,34.28 45.25,34.24 45.39,34.37 45.53,34.40 45.67,34.60 45.82,34.52 45.96,34.18 46.10,33.71 46.24,33.48 46.38,33.11 46.52,33.04 46.66,32.98 46.80,33.46 46.95,34.34 47.09,34.43 47.23,35.04 47.37,35.42 47.51,35.80 47.65,36.10 47.79,35.76 47.93,35.54 48.08,35.18 48.22,34.33 48.36,33.56 48.50,33.42 48.64,33.41 48.78,33.46 48.92,33.57 49.06,33.05 49.21,32.73 49.35,33.12 49.49,33.65 49.63,32.82 49.77,31.42 49.91,30.96 50.05,30.09 50.19,29.70 50.34,29.29 50.48,28.80 50.62,28.51 50.76,28.46 50.90,28.15 51.04,27.82 51.18,27.71 51.32,27.76 51.47,27.83 51.61,27.97 51.75,28.11 51.89,28.01 52.03,28.11 52.17,28.14 52.31,27.94 52.45,27.76 52.60,27.44 52.74,26.90 52.88,26.38 53.02,26.00 53.16,25.88 53.30,26.16 53.44,27.05 53.58,27.53 53.73,28.67 53.87,28.57 54.01,28.40 54.15,28.21 54.29,28.09 54.43,27.94 54.57,27.73 54.72,27.48 54.86,27.29 55.00,26.91 55.14,26.89 55.28,26.72 55.42,26.54 55.56,26.39 55.70,26.55 55.85,26.30 55.99,25.96 56.13,25.25 56.27,23.94 56.41,23.17 56.55,23.06 56.69,23.70 56.83,24.60 56.98,25.11 57.12,25.11 57.26,25.00 57.40,24.92 57.54,24.86 57.68,24.77 57.82,24.62 57.96,24.48 58.11,24.42 58.25,24.47 58.39,24.13 58.53,23.25 58.67,22.24 58.81,21.04 58.95,20.19 59.09,20.24 59.24,21.07 59.38,22.51 59.52,22.59 59.66,22.54 59.80,22.41 59.94,21.96 60.08,20.19 60.22,19.74 60.37,19.29 60.51,18.66 60.65,18.45 60.79,18.35 60.93,18.15 61.07,18.41 61.21,18.52 61.35,18.82 61.50,19.17 61.64,19.55 61.78,19.93 61.92,20.72 62.06,20.89 62.20,19.83 62.34,19.29 62.48,18.92 62.63,18.84 62.77,18.72 62.91,18.07 63.05,17.75 63.19,17.51 63.33,18.13 63.47,18.80 63.61,18.63 63.76,18.38 63.90,18.49 64.04,18.70 64.18,18.74 64.32,18.93 64.46,19.01 64.60,18.95 64.75,18.87 64.89,18.81 65.03,18.50 65.17,18.18 65.31,18.35 65.45,18.69 65.59,18.62 65.73,18.55 65.88,17.40 66.02,16.14 66.16,15.50 66.30,15.79 66.44,16.57 66.58,17.16 66.72,17.01 66.86,16.53 67.01,16.20 67.15,16.74 67.29,18.01 67.43,18.52 67.57,18.98 67.71,19.18 67.85,19.83 67.99,20.87 68.14,21.43 68.28,22.27 68.42,22.66 68.56,22.34 68.70,22.31 68.84,22.57 68.98,22.54 69.12,22.44 69.27,22.48 69.41,22.43 69.55,22.04 69.69,21.59 69.83,21.33 69.97,20.64 70.11,19.17 70.25,18.41 70.40,18.45 70.54,18.21 70.68,16.33 70.82,15.29 70.96,14.74 71.10,14.61 71.24,14.56 71.38,14.65 71.53,15.02 71.67,15.60 71.81,16.01 71.95,16.97 72.09,18.16 72.23,19.43 72.37,18.64 72.51,17.34 72.66,15.84 72.80,14.71 72.94,14.08 73.08,13.73 73.22,13.75 73.36,13.99 73.50,14.67 73.64,15.66 73.79,16.35 73.93,16.40 74.07,16.05 74.21,16.15 74.35,16.29 74.49,16.34 74.63,16.67 74.78,16.81 74.92,17.17 75.06,16.25 75.20,14.93 75.34,14.12 75.48,14.02 75.62,14.26 75.76,14.71 75.91,14.65 76.05,14.54 76.19,14.13 76.33,13.35 76.47,12.14 76.61,11.25 76.75,10.79 76.89,11.03 77.04,11.46 77.18,11.91 77.32,12.39 77.46,12.18 77.60,11.53 77.74,11.10 77.88,11.21 78.02,12.51 78.17,11.69 78.31,10.98 78.45,11.18 78.59,11.56 78.73,10.81 78.87,9.87 79.01,8.98 79.15,8.21 79.30,7.63 79.44,7.21 79.58,6.54 79.72,5.84 79.86,6.04 80.00,6.80 80.14,7.63 80.28,7.86 80.43,7.84 80.57,7.69 80.71,7.60 80.85,7.79 80.99,7.95 81.13,8.00 81.27,7.53 81.41,7.03 81.56,6.90 81.70,7.33 81.84,7.72 81.98,8.29 82.12,8.39 82.26,7.21 82.40,5.75 82.54,4.00 82.69,38.41 82.83,38.63 82.97,38.17 83.11,38.47 83.25,38.57 83.39,38.05 83.53,37.63 83.67,37.85 83.82,38.39 83.96,38.73 84.10,39.02 84.24,39.30 84.38,39.53 84.52,39.47 84.66,39.24 84.81,38.98 84.95,38.66 85.09,38.36 85.23,38.01 85.37,37.70 85.51,37.54 85.65,37.00 85.79,34.41 85.94,34.17 86.08,34.32 86.22,34.31 86.36,34.34 86.50,34.45 86.64,34.56 86.78,34.43 86.92,34.12 87.07,33.71 87.21,33.37 87.35,33.09 87.49,33.08 87.63,33.51 87.77,34.34 87.91,34.40 88.05,35.17 88.20,35.42 88.34,35.89 88.48,36.29 88.62,35.77 88.76,35.50 88.90,35.23 89.04,34.24 89.18,33.62 89.33,33.38 89.47,33.41 89.61,33.26 89.75,33.53 89.89,32.98 90.03,32.71 90.17,33.13 90.31,33.67 90.46,32.90 90.60,31.43 90.74,31.08 90.88,30.17 91.02,29.73 91.16,29.35 91.30,28.80 91.44,28.58 91.59,28.41 91.73,28.08 91.87,27.84 92.01,27.75 92.15,27.73 92.29,27.81 92.43,28.01 92.57,28.14 92.72,28.05 92.86,28.07 93.00,28.08 93.14,28.03 93.28,27.75 93.42,27.46 93.56,26.82 93.70,26.34 93.85,26.03 93.99,25.88 94.13,26.16 94.27,27.09 94.41,27.61 94.55,28.66 94.69,28.59 94.84,28.42 94.98,28.21 95.12,28.09 95.26,27.94 95.40,27.73 95.54,27.54 95.68,27.11 95.82,26.80 95.97,26.89 96.11,26.72 96.25,26.54 96.39,26.40 96.53,26.48 96.67,26.32 96.81,25.95 96.95,25.15 97.10,23.82 97.24,23.13 97.38,22.97 97.52,23.71 97.66,24.49 97.80,25.11 97.94,25.09 98.08,25.00 98.23,24.92 98.37,24.85 98.51,24.77 98.65,24.62 98.79,24.48 98.93,24.42 99.07,24.48 99.21,24.16 99.36,23.17 99.50,22.07 99.64,21.04 99.78,20.20 99.92,20.29 100.06,21.06 100.20,22.55 100.34,22.58 100.49,22.56 100.63,22.42 100.77,22.07 100.91,20.34 101.05,19.70 101.19,19.28 101.33,18.68 101.47,18.37 101.62,18.17 101.76,18.24 101.90,18.41 102.04,18.58 102.18,18.80 102.32,19.11 102.46,19.55 102.60,19.90 102.75,20.75 102.89,20.78 103.03,19.80 103.17,19.29 103.31,19.02 103.45,18.83 103.59,18.81 103.73,18.01 103.88,17.67 104.02,17.62 104.16,18.18 104.30,18.89 104.44,18.59 104.58,18.42 104.72,18.63 104.87,18.71 105.01,18.93 105.15,19.08 105.29,19.02 105.43,18.95 105.57,18.86 105.71,18.86 105.85,18.53 106.00,18.21 106.14,18.18 106.28,18.75 106.42,18.63 106.56,18.53 106.70,17.35 106.84,16.09 106.98,15.49 107.13,15.96 107.27,16.65 107.41,17.08 107.55,17.07 107.69,16.59 107.83,16.25 107.97,16.69 108.11,17.70 108.26,18.41 108.40,18.97 108.54,19.16 108.68,19.87 108.82,20.80 108.96,21.44 109.10,22.34 109.24,22.62 109.39,22.37 109.53,22.26 109.67,22.58 109.81,22.40 109.95,22.42 110.09,22.58 110.23,22.35 110.37,22.05 110.52,21.74 110.66,21.35 110.80,20.55 110.94,19.19 111.08,18.41 111.22,18.44 111.36,18.33 111.50,16.27 111.65,15.36 111.79,14.74 111.93,14.69 112.07,14.59 112.21,14.64 112.35,15.07 112.49,15.73 112.63,16.08 112.78,16.96 112.92,18.10 113.06,19.51 113.20,18.66 113.34,17.30 113.48,15.88 113.62,14.82 113.76,14.12 113.91,13.75 114.05,13.82 114.19,14.02 114.33,14.75 114.47,15.67 114.61,16.26 114.75,16.41 114.90,16.02 115.04,16.14 115.18,16.30 115.32,16.36 115.46,16.53 115.60,16.79 115.74,17.09 115.88,16.25 116.03,14.81 116.17,14.10 116.31,14.10 116.45,14.26 116.59,14.63 116.73,14.78 116.87,14.57 117.01,14.08 117.16,13.22 117.30,12.22 117.44,11.26 117.58,10.86 117.72,11.02 117.86,11.50 118.00,11.92 118.14,12.34 118.29,12.20 118.43,11.60 118.57,11.11 118.71,11.30 118.85,12.50 118.99,11.53 119.13,11.13 119.27,11.06 119.42,11.50 119.56,10.82 119.70,9.79 119.84,8.98 119.98,8.18 120.12,7.64 120.26,7.23 120.40,6.49 120.55,5.82 120.69,6.04 120.83,6.84 120.97,7.73 121.11,7.84 121.25,7.88 121.39,7.78 121.53,7.60 121.68,7.75 121.82,8.02 121.96,7.99 122.10,7.66 122.24,6.96 122.38,56.00 122.52,55.30 122.66,54.97 122.81,54.46 122.95,54.26 123.09,53.84 123.23,53.98 123.37,53.90 123.51,53.59 123.65,53.33 123.79,53.20 123.94,53.12 124.08,53.08 124.22,52.98 124.36,52.79 124.50,52.25 124.64,51.73 124.78,50.34 124.93,49.31 125.07,49.48 125.21,50.52 125.35,51.06 125.49,51.03 125.63,50.15 125.77,49.25 125.91,48.44 126.06,47.72 126.20,47.50 126.34,47.93 126.48,48.58 126.62,49.43 126.76,49.85 126.90,50.04 127.04,49.83 127.19,48.87 127.33,48.80 127.47,48.77 127.61,48.66 127.75,47.58 127.89,47.25 128.03,47.44 128.17,47.17 128.32,47.68 128.46,47.91 128.60,47.94 128.74,47.85 128.88,48.09 129.02,47.95 129.16,47.81 129.30,47.38 129.45,47.10 129.59,47.03 129.73,47.67 129.87,47.94 130.01,46.74 130.15,46.33 130.29,46.25 130.43,46.10 130.58,46.24 130.72,46.34 130.86,46.83 131.00,46.26 131.14,45.97 131.28,45.74 131.42,45.67 131.56,46.50 131.71,46.35 131.85,45.66 131.99,45.30 132.13,45.01 132.27,45.17 132.41,45.81 132.55,47.38 132.69,47.48 132.84,47.28 132.98,46.82 133.12,46.74 133.26,46.97 133.40,46.86 133.54,45.85 133.68,44.45 133.82,44.72 133.97,43.81 134.11,44.43 134.25,43.08 134.39,42.40 134.53,42.18 134.67,40.45 134.81,40.83 134.96,42.41 135.10,42.30 135.24,40.75 135.38,40.34 135.52,40.86 135.66,42.15 135.80,41.99 135.94,42.79 136.09,42.87 136.23,42.30 136.37,41.34 136.51,40.82 136.65,39.47 136.79,38.86 136.93,38.85 137.07,39.40 137.22,39.85 137.36,39.81 137.50,39.52 137.64,39.38 137.78,38.90 137.92,37.97 138.06,37.46 138.20,37.59 138.35,38.07 138.49,37.77 138.63,38.14 138.77,38.29 138.91,38.51 139.05,38.27 139.19,38.61 139.33,38.09 139.48,37.42 139.62,37.55 139.76,38.25 139.90,38.50 140.04,38.80 140.18,39.68 140.32,39.58 140.46,39.51 140.61,39.26 140.75,38.99 140.89,38.70 141.03,38.40 141.17,38.17 141.31,37.75 141.45,37.60 141.59,37.27 141.74,37.21 141.88,37.29 142.02,36.83 142.16,36.22 142.30,35.07 142.44,34.33 142.58,34.20 142.72,34.50 142.87,34.16 143.01,34.55 143.15,34.37 143.29,34.81 143.43,34.54 143.57,34.09 143.71,34.07 143.85,33.58 144.00,33.06 144.14,33.35 144.28,32.92 144.42,33.66 144.56,34.40 144.70,34.27 144.84,34.81 144.99,34.87 145.13,35.67 145.27,36.29 145.41,35.57 145.55,35.34 145.69,35.22 145.83,34.25 145.97,33.46 146.12,33.29 146.26,33.14 146.40,33.52 146.54,33.35 146.68,32.99 146.82,32.68 146.96,33.24 147.10,33.72 147.25,32.69 147.39,31.41 147.53,30.80 147.67,29.96 147.81,29.89 147.95,29.31 148.09,28.66 148.23,28.46 148.38,28.58 148.52,28.14 148.66,27.83 148.80,27.74 148.94,27.73 149.08,27.75 149.22,28.20 149.36,28.42 149.51,28.02 149.65,28.08 149.79,28.17 149.93,27.85 150.07,27.69 150.21,27.12 150.35,26.92 150.49,26.36 150.64,26.11 150.78,25.83 150.92,26.11 151.06,27.26 151.20,28.02 151.34,28.71 151.48,28.56 151.62,28.42 151.77,28.25 151.91,28.14 152.05,27.97 152.19,27.79 152.33,27.48 152.47,27.01 152.61,26.87 152.75,26.89 152.90,26.72 153.04,26.55 153.18,26.52 153.32,26.46 153.46,26.43 153.60,25.95 153.74,25.58 153.88,23.90 154.03,23.24 154.17,23.18 154.31,23.95 154.45,24.35 154.59,25.20 154.73,25.13 154.87,25.04 155.01,24.95 155.16,24.89 155.30,24.83 155.44,24.67 155.58,24.51 155.72,24.46 155.86,24.47 156.00,24.19 156.15,23.24 156.29,22.12 156.43,21.27 156.57,20.00 156.71,20.07 156.85,21.07 156.99,22.47 157.13,22.63 157.28,22.54 157.42,22.42 157.56,21.77 157.70,20.44 157.84,19.89 157.98,19.35 158.12,18.48 158.26,18.20 158.41,17.93 158.55,18.41 158.69,18.45 158.83,18.62 158.97,18.72 159.11,19.14 159.25,19.74 159.39,20.02 159.54,20.68 159.68,20.83 159.82,19.65 159.96,19.34 160.10,19.05 160.24,18.48 160.38,18.98 160.52,17.98 160.67,17.76 160.81,17.63 160.95,18.01 161.09,19.01 161.23,18.77 161.37,18.55 161.51,18.60 161.65,18.69 161.80,18.65 161.94,18.81 162.08,18.98 162.22,18.99 162.36,18.92 162.50,18.76 162.64,18.75 162.78,18.44 162.93,18.07 163.07,18.48 163.21,18.87 163.35,18.63 163.49,17.58 163.63,16.29 163.77,15.89 163.91,15.59 164.06,16.84 164.20,17.06 164.34,17.31 164.48,16.20 164.62,15.94 164.76,17.29 164.90,18.35 165.04,18.68 165.19,19.01 165.33,19.06 165.47,19.38 165.61,20.48 165.75,21.17 165.89,22.47 166.03,22.55 166.18,22.64 166.32,22.43 166.46,22.37 166.60,22.49 166.74,22.14 166.88,22.70 167.02,22.64 167.16,21.91 167.31,21.77 167.45,21.23 167.59,20.65 167.73,18.96 167.87,18.44 168.01,18.49 168.15,18.39 168.29,17.04 168.44,16.07 168.58,14.82 168.72,14.70 168.86,14.43 169.00,14.75 169.14,15.04 169.28,15.84 169.42,16.01 169.57,16.92 169.71,18.02 169.85,19.58 169.99,18.73 170.13,17.28 170.27,15.88 170.41,14.76 170.55,14.06 170.70,13.75 170.84,14.00 170.98,14.27 171.12,14.70 171.26,15.60 171.40,16.17 171.54,16.30 171.68,16.05 171.83,16.25 171.97,16.52 172.11,16.46 172.25,16.46 172.39,16.63 172.53,17.25 172.67,16.05 172.81,14.80 172.96,14.01 173.10,14.11 173.24,14.35 173.38,14.80 173.52,14.91 173.66,14.69 173.80,14.21 173.94,13.37 174.09,12.29 174.23,11.33 174.37,10.69 174.51,11.09 174.65,11.51 174.79,11.95 174.93,12.43 175.07,12.37 175.22,11.71 175.36,11.27 175.50,11.42 175.64,12.66 175.78,11.80 175.92,11.43 176.06,11.22 176.21,11.73 176.35,10.80 176.49,9.95 176.63,9.07 176.77,8.13 176.91,7.81 177.05,7.40 177.19,6.43 177.34,5.82 177.48,6.04 177.62,6.97 177.76,7.65 177.90,7.82 178.04,7.70 178.18,7.74 178.32,7.83 178.47,7.80 178.61,7.88 178.75,8.21 178.89,7.65 179.03,6.93 179.17,6.82 179.31,7.36 179.45,7.72 179.60,8.23 179.74,8.53 179.88,7.07 180.02,5.84 180.16,4.18 180.30,55.81 180.44,55.06 180.58,54.70 180.73,54.36 180.87,54.02 181.01,53.65 181.15,53.79 181.29,53.57 181.43,53.62 181.57,53.59 181.71,52.83 181.86,53.00 182.00,53.05 182.14,52.97 182.28,52.16 182.42,52.12 182.56,51.78 182.70,50.02 182.84,49.22 182.99,49.41 183.13,50.29 183.27,50.96 183.41,51.14 183.55,49.75 183.69,48.68 183.83,48.33 183.97,47.27 184.12,47.89 184.26,47.95 184.40,48.99 184.54,49.31 184.68,49.14 184.82,50.09 184.96,49.77 185.10,48.59 185.25,48.63 185.39,48.37 185.53,47.72 185.67,47.08 185.81,46.78 185.95,46.78 186.09,46.64 186.24,46.39 186.38,47.86 186.52,47.53 186.66,46.75 186.80,46.94 186.94,47.63 187.08,47.30 187.22,47.24 187.37,46.13 187.51,46.54 187.65,46.90 187.79,47.13 187.93,46.41 188.07,45.84 188.21,45.76 188.35,45.46 188.50,46.28 188.64,46.42 188.78,47.46 188.92,46.21 189.06,45.47 189.20,46.00 189.34,45.66 189.48,46.50 189.63,45.70 189.77,45.68 189.91,44.77 190.05,44.77 190.19,45.10 190.33,45.09 190.47,47.95 190.61,46.92 190.76,47.80 190.90,46.16 191.04,46.07 191.18,46.64 191.32,46.64 191.46,45.40 191.60,44.87 191.74,43.86 191.89,43.30 192.03,43.96 192.17,42.71 192.31,41.56 192.45,41.56 192.59,39.71 192.73,40.04 192.87,40.92 193.02,41.60 193.16,41.56 193.30,41.38 193.44,41.36 193.58,42.30 193.72,41.81 193.86,42.48 194.00,43.28 194.15,42.12 194.29,41.10 194.43,40.03 194.57,39.12 194.71,38.86 194.85,39.20 194.99,39.86 195.13,39.56 195.28,39.79 195.42,39.79 195.56,38.75 195.70,38.76 195.84,37.55 195.98,38.07 196.12,38.37 196.27,37.61 196.41,38.40 196.55,37.57 196.69,38.28 196.83,38.63 196.97,37.44 197.11,39.02 197.25,37.93 197.40,37.81 197.54,37.77 197.68,37.75 197.82,39.23 197.96,39.04 198.10,38.98 198.24,39.03 198.38,39.18 198.53,39.30 198.67,39.51 198.81,38.41 198.95,38.76 199.09,38.74 199.23,38.24 199.37,37.81 199.51,37.38 199.66,37.10 199.80,37.21 199.94,36.90 200.08,36.19 200.22,34.49 200.36,33.86 200.50,34.86 200.64,34.67 200.79,34.44 200.93,34.23 201.07,34.11 201.21,35.45 201.35,34.24 201.49,34.26 201.63,34.32 201.77,34.43 201.92,32.60 202.06,33.03 202.20,33.18 202.34,33.22 202.48,34.41 202.62,34.56 202.76,35.43 202.90,34.82 203.05,36.00 203.19,36.87 203.33,35.15 203.47,34.38 203.61,34.97 203.75,33.75 203.89,34.13 204.03,33.31 204.18,34.09 204.32,33.13 204.46,33.13 204.60,33.25 204.74,32.47 204.88,33.02 205.02,33.17 205.16,32.11 205.31,30.72 205.45,30.67 205.59,29.88 205.73,29.17 205.87,30.13 206.01,28.40 206.15,28.58 206.30,29.00 206.44,28.37 206.58,28.00 206.72,27.90 206.86,27.90 207.00,27.92 207.14,28.15 207.28,29.13 207.43,28.20 207.57,28.29 207.71,28.45 207.85,27.23 207.99,28.31 208.13,28.09 208.27,26.80 208.41,26.62 208.56,25.53 208.70,25.72 208.84,27.14 208.98,27.32 209.12,28.12 209.26,28.50 209.40,28.58 209.54,29.17 209.69,28.60 209.83,28.05 209.97,28.05 210.11,27.78 210.25,26.82 210.39,25.79 210.53,26.40 210.67,25.93 210.82,26.79 210.96,26.87 211.10,26.25 211.24,26.96 211.38,26.17 211.52,26.17 211.66,25.19 211.80,24.09 211.95,23.18 212.09,24.07 212.23,23.76 212.37,24.95 212.51,24.74 212.65,25.82 212.79,25.40 212.93,24.34 213.08,25.07 213.22,24.74 213.36,24.45 213.50,24.26 213.64,24.16 213.78,24.00 213.92,24.08 214.06,23.27 214.21,22.19 214.35,20.98 214.49,19.95 214.63,21.12 214.77,20.81 214.91,22.22 215.05,22.59 215.19,23.09 215.34,22.25 215.48,20.66 215.62,21.10 215.76,20.84 215.90,19.78 216.04,17.67 216.18,18.54 216.33,17.89 216.47,18.81 216.61,18.51 216.75,18.26 216.89,19.16 217.03,18.81 217.17,19.72 217.31,20.59 217.46,20.07 217.60,21.01 217.74,20.29 217.88,19.14 218.02,18.68 218.16,18.09 218.30,18.93 218.44,17.78 218.59,17.94 218.73,18.29 218.87,17.90 219.01,19.34 219.15,19.28 219.29,19.24 219.43,19.28 219.57,19.34 219.72,19.34 219.86,19.34 220.00,19.39 220.14,19.44 220.28,18.37 220.42,18.92 220.56,18.90 220.70,18.01 220.85,18.55 220.99,17.91 221.13,18.94 221.27,18.69 221.41,16.92 221.55,16.04 221.69,15.05 221.83,16.14 221.98,17.41 222.12,17.41 222.26,18.24 222.40,16.11 222.54,15.37 222.68,17.50 222.82,17.25 222.96,18.84 223.11,18.20 223.25,19.40 223.39,19.11 223.53,19.67 223.67,20.34 223.81,22.73 223.95,22.74 224.09,22.40 224.24,22.20 224.38,22.18 224.52,22.32 224.66,22.73 224.80,23.35 224.94,22.06 225.08,22.59 225.22,20.85 225.37,21.41 225.51,19.88 225.65,18.80 225.79,18.44 225.93,18.50 226.07,17.40 226.21,15.96 226.36,16.25 226.50,15.24 226.64,15.03 226.78,14.34 226.92,14.43 227.06,15.34 227.20,15.86 227.34,16.45 227.49,17.68 227.63,18.34 227.77,19.75 227.91,18.61 228.05,17.59 228.19,16.39 228.33,15.54 228.47,14.88 228.62,14.31 228.76,13.92 228.90,14.83 229.04,14.79 229.18,16.02 229.32,15.71 229.46,16.64 229.60,16.04 229.75,16.07 229.89,16.72 230.03,16.67 230.17,16.30 230.31,16.81 230.45,16.67 230.59,15.61 230.73,15.61 230.88,14.25 231.02,14.09 231.16,14.97 231.30,14.60 231.44,14.54 231.58,14.75 231.72,13.86 231.86,13.28 232.01,12.23 232.15,11.32 232.29,10.62 232.43,10.37 232.57,11.73 232.71,11.50 232.85,12.30 232.99,11.95 233.14,12.09 233.28,11.31 233.42,11.68 233.56,12.51 233.70,12.02 233.84,12.33 233.98,10.94 234.12,11.16 234.27,10.96 234.41,10.74 234.55,9.27 234.69,8.58 234.83,7.74 234.97,6.92 235.11,5.89 235.25,5.59 235.40,6.58 235.54,7.55 235.68,8.24 235.82,8.51 235.96,8.55 236.10,8.36 236.24,8.39 236.39,7.94 236.53,8.17 236.67,8.17 236.81,8.47 236.95,7.48 237.09,7.35 237.23,8.27 237.37,7.93 237.52,8.85 237.66,8.10 237.80,6.48 237.94,6.48 238.08,4.83 238.22,54.81 238.36,54.81 238.50,54.81 238.65,53.56 238.79,53.56 238.93,53.56 239.07,53.56 239.21,52.01 239.35,51.83 239.49,51.83 239.63,51.36 239.78,51.36 239.92,51.36 240.06,51.69 240.20,51.69 240.34,51.69 240.48,51.15 240.62,51.15 240.76,49.67 240.91,49.67 241.05,49.67 241.19,50.66 241.33,50.66 241.47,49.60 241.61,49.60 241.75,49.60 241.89,46.74 242.04,46.74 242.18,48.94 242.32,48.94 242.46,48.64 242.60,48.64 242.74,48.64 242.88,47.93 243.02,47.93 243.17,47.93 243.31,45.80 243.45,45.80 243.59,45.80 243.73,44.58 243.87,44.58 244.01,44.58 244.15,44.58 244.30,43.22 244.44,43.22 244.58,43.22 244.72,43.83 244.86,43.83 245.00,44.29 245.14,44.29 245.28,44.29 245.43,44.93 245.57,44.93 245.71,44.93 245.85,45.33 245.99,45.33 246.13,45.14 246.27,45.14 246.42,45.14 246.56,44.62 246.70,44.62 246.84,44.62 246.98,44.62 247.12,46.20 247.26,42.19 247.40,42.19 247.55,43.96 247.69,43.96 247.83,42.56 247.97,42.56 248.11,46.00 248.25,46.00 248.39,45.70 248.53,45.70 248.68,47.96 248.82,43.83 248.96,43.83 249.10,43.83 249.24,43.83 249.38,42.92 249.52,42.92 249.66,42.92 249.81,39.90 249.95,39.90 250.09,39.90 250.23,37.02 250.37,37.02 250.51,38.20 250.65,38.20 250.79,38.80 250.94,38.80 251.08,38.80 251.22,39.46 251.36,39.46 251.50,40.95 251.64,40.95 251.78,40.95 251.92,43.12 252.07,39.54 252.21,39.54 252.35,39.54 252.49,38.55 252.63,38.55 252.77,38.55 252.91,39.61 253.05,39.61 253.20,39.61 253.34,39.61 253.48,36.74 253.62,36.74 253.76,36.74 253.90,39.81 254.04,39.81 254.18,37.45 254.33,37.45 254.47,37.45 254.61,38.84 254.75,38.84 254.89,38.84 255.03,38.84 255.17,36.53 255.31,40.62 255.46,40.81 255.60,40.81 255.74,40.81 255.88,40.94 256.02,40.94 256.16,40.94 256.30,41.37 256.45,41.37 256.59,42.15 256.73,42.15 256.87,42.15 257.01,39.68 257.15,39.68 257.29,39.68 257.43,37.41 257.58,37.41 257.72,37.41 257.86,37.41 258.00,35.65 258.14,35.65 258.28,34.68 258.42,34.68 258.56,34.68 258.71,34.27 258.85,34.27 258.99,34.16 259.13,38.42 259.27,34.16 259.41,34.39 259.55,34.39 259.69,34.39 259.84,34.64 259.98,34.64 260.12,33.54 260.26,33.54 260.40,33.54 260.54,36.44 260.68,36.44 260.82,32.16 260.97,34.37 261.11,34.37 261.25,34.37 261.39,34.37 261.53,35.94 261.67,30.72 261.81,30.72 261.95,32.85 262.10,32.85 262.24,32.85 262.38,32.85 262.52,34.09 262.66,31.09 262.80,31.09 262.94,32.94 263.08,32.94 263.23,29.98 263.37,29.98 263.51,29.98 263.65,28.67 263.79,32.49 263.93,28.67 264.07,29.65 264.21,29.65 264.36,29.65 264.50,32.09 264.64,28.91 264.78,28.91 264.92,28.91 265.06,32.01 265.20,32.01 265.34,29.21 265.49,29.21 265.63,32.52 265.77,29.24 265.91,29.24 266.05,29.24 266.19,29.24 266.33,29.01 266.48,29.01 266.62,29.01 266.76,29.01 266.90,28.10 267.04,28.10 267.18,28.10 267.32,27.35 267.46,30.55 267.61,30.55 267.75,27.58 267.89,27.58 268.03,27.58 268.17,23.68 268.31,25.85 268.45,25.85 268.59,25.85 268.74,28.99 268.88,26.90 269.02,26.90 269.16,26.90 269.30,24.04 269.44,27.57 269.58,27.57 269.72,25.41 269.87,25.41 270.01,25.41 270.15,24.66 270.29,24.66 270.43,24.66 270.57,27.91 270.71,27.91 270.85,26.34 271.00,26.34 271.14,26.34 271.28,25.67 271.42,25.67 271.56,25.67 271.70,24.07 271.84,24.07 271.98,21.15 272.13,21.15 272.27,21.15 272.41,19.14 272.55,23.62 272.69,23.62 272.83,21.10 272.97,21.10 273.11,22.37 273.26,22.37 273.40,18.66 273.54,18.66 273.68,22.81 273.82,22.81 273.96,20.14 274.10,20.14 274.24,18.52 274.39,18.52 274.53,18.52 274.67,17.66 274.81,21.00 274.95,21.00 275.09,19.87 275.23,19.87 275.37,19.87 275.52,20.79 275.66,18.56 275.80,18.56 275.94,18.56 276.08,17.82 276.22,19.97 276.36,17.82 276.51,18.67 276.65,18.67 276.79,19.31 276.93,19.31 277.07,19.31 277.21,19.35 277.35,19.35 277.49,19.35 277.64,19.40 277.78,19.40 277.92,19.78 278.06,19.78 278.20,19.78 278.34,21.56 278.48,21.56 278.62,19.20 278.77,19.20 278.91,19.20 279.05,22.00 279.19,18.08 279.33,18.08 279.47,16.13 279.61,16.13 279.75,16.13 279.90,18.94 280.04,18.94 280.18,18.94 280.32,17.31 280.46,17.31 280.60,17.31 280.74,15.92 280.88,20.28 281.03,20.28 281.17,20.28 281.31,15.47 281.45,17.31 281.59,17.31 281.73,22.38 281.87,22.33 282.01,22.33 282.16,22.33 282.30,22.87 282.44,22.87 282.58,22.87 282.72,24.43 282.86,19.31 283.00,19.31 283.14,19.31 283.29,20.55 283.43,20.55 283.57,18.66 283.71,18.66 283.85,18.66 283.99,19.24 284.13,19.24 284.27,19.24 284.42,16.03 284.56,16.03 284.70,16.03 284.84,16.36 284.98,16.36 285.12,16.36 285.26,19.77 285.40,19.77 285.55,18.24 285.69,22.22 285.83,22.22 285.97,22.22 286.11,18.24 286.25,15.74 286.39,15.74 286.54,15.74 286.68,14.07 286.82,17.51 286.96,17.51 287.10,16.80 287.24,16.80 287.38,16.80 287.52,16.80 287.67,16.31 287.81,16.31 287.95,16.31 288.09,17.86 288.23,17.86 288.37,17.86 288.51,15.89 288.65,15.89 288.80,15.89 288.94,17.72 289.08,17.72 289.22,15.97 289.36,15.97 289.50,15.97 289.64,16.71 289.78,12.94 289.93,12.94 290.07,12.94 290.21,10.32 290.35,10.32 290.49,10.32 290.63,9.46 290.77,11.92 290.91,11.92 291.06,11.92 291.20,12.90 291.34,12.90 291.48,12.90 291.62,12.90 291.76,14.73 291.90,10.92 292.04,10.92 292.19,11.10 292.33,11.10 292.47,11.10 292.61,12.48 292.75,9.79 292.89,9.79 293.03,9.79 293.17,6.51 293.32,6.51 293.46,8.34 293.60,8.34 293.74,8.34 293.88,8.51 294.02,8.51 294.16,9.50 294.30,9.50 294.45,9.50 294.59,9.50 294.73,10.40 294.87,10.40 295.01,10.40 295.15,10.40 295.29,9.08 295.43,9.08 295.58,9.08 295.72,8.71 295.86,8.71 296.00,5.11" />
</svg>