<svg width="300" height="60" xmlns="http://www.w3.org/2000/svg">
  <polyline fill="rgba(255,200,0,0.3)" stroke="#ffbb00" stroke-width="2" points="4.00,55.04 4.30,55.00 4.60,54.80 4.90,54.92 5.20,54.29 5.50,54.07 5.80,53.07 6.11,51.84 6.41,50.08 6.71,48.80 7.01,47.94 7.31,47.21 7.61,47.68 7.91,48.93 8.21,49.30 8.51,48.63 8.81,47.00 9.11,45.19 9.41,43.42 9.71,41.76 10.01,40.26 10.32,38.52 10.62,36.69 10.92,35.85 11.22,34.83 11.52,33.55 11.82,31.66 12.12,30.34 12.42,29.68 12.72,30.00 13.02,30.78 13.32,31.91 13.62,33.72 13.92,35.91 14.22,36.96 14.53,38.24 14.83,39.54 15.13,39.83 15.43,39.74 15.73,38.90 16.03,36.28 16.33,34.24 16.63,32.18 16.93,30.51 17.23,28.49 17.53,26.97 17.83,25.93 18.13,25.82 18.43,23.65 18.74,20.62 19.04,17.14 19.34,14.54 19.64,12.12 19.94,10.99 20.24,10.93 20.54,11.76 20.84,13.29 21.14,14.91 21.44,16.10 21.74,16.73 22.04,16.97 22.34,17.11 22.64,18.03 22.95,18.22 23.25,17.97 23.55,16.08 23.85,14.81 24.15,12.82 24.45,10.74 24.75,8.54 25.05,6.14 25.35,4.24 25.65,4.91 25.95,6.19 26.25,7.50 26.55,8.93 26.85,9.29 27.16,9.57 27.46,9.97 27.76,10.37 28.06,10.29 28.36,10.34 28.66,10.88 28.96,11.94 29.26,13.12 29.56,14.38 29.86,15.56 30.16,16.81 30.46,18.43 30.76,20.10 31.06,21.86 31.37,23.25 31.67,24.36 31.97,25.44 32.27,25.98 32.57,26.55 32.87,26.89 33.17,27.11 33.47,26.41 33.77,25.64 34.07,24.85 34.37,22.66 34.67,20.54 34.97,19.24 35.27,19.20 35.58,19.42 35.88,20.13 36.18,20.82 36.48,21.56 36.78,22.35 37.08,22.85 37.38,22.17 37.68,22.43 37.98,24.00 38.28,25.62 38.58,26.92 38.88,28.12 39.18,30.33 39.49,31.21 39.79,32.42 40.09,33.90 40.39,33.74 40.69,30.99 40.99,29.20 41.29,26.01 41.59,23.75 41.89,22.31 42.19,21.04 42.49,19.63 42.79,18.20 43.09,17.51 43.39,17.04 43.70,16.40 44.00,16.05 44.30,16.25 44.60,16.66 44.90,17.86 45.20,18.97 45.50,18.77 45.80,18.54 46.10,18.85 46.40,18.90 46.70,19.81 47.00,21.07 47.30,19.88 47.60,18.95 47.91,17.25 48.21,15.44 48.51,13.90 48.81,12.36 49.11,10.65 49.41,8.60 49.71,6.67 50.01,6.33 50.31,7.52 50.61,7.96 50.91,7.32 51.21,5.69 51.51,4.82 51.81,4.30 52.12,4.59 52.42,5.31 52.72,6.46 53.02,7.79 53.32,9.11 53.62,9.98 53.92,10.68 54.22,11.34 54.52,12.17 54.82,12.46 55.12,12.83 55.42,13.16 55.72,13.21 56.02,13.33 56.33,13.96 56.63,14.82 56.93,15.42 57.23,15.46 57.53,15.87 57.83,16.59 58.13,18.41 58.43,20.20 58.73,21.70 59.03,22.16 59.33,22.52 59.63,22.67 59.93,22.18 60.23,21.73 60.54,22.03 60.84,24.22 61.14,25.86 61.44,26.55 61.74,27.07 62.04,26.58 62.34,24.68 62.64,23.01 62.94,21.42 63.24,18.89 63.54,16.76 63.84,14.89 64.14,13.49 64.44,12.04 64.75,11.11 65.05,11.26 65.35,11.24 65.65,11.65 65.95,11.76 66.25,11.18 66.55,11.43 66.85,11.76 67.15,12.66 67.45,14.05 67.75,14.63 68.05,14.64 68.35,13.04 68.65,12.04 68.96,11.40 69.26,11.49 69.56,11.61 69.86,11.89 70.16,12.73 70.46,13.90 70.76,16.12 71.06,18.92 71.36,21.55 71.66,20.16 71.96,20.13 72.26,20.74 72.56,21.82 72.87,23.49 73.17,25.80 73.47,25.77 73.77,22.43 74.07,20.90 74.37,19.22 74.67,17.51 74.97,16.59 75.27,17.01 75.57,15.12 75.87,14.88 76.17,15.45 76.47,16.56 76.77,17.21 77.08,55.01 77.38,55.02 77.68,54.79 77.98,54.88 78.28,54.24 78.58,54.03 78.88,53.18 79.18,51.84 79.48,50.43 79.78,48.77 80.08,47.77 80.38,47.05 80.68,47.58 80.98,48.58 81.29,49.35 81.59,48.44 81.89,46.91 82.19,44.89 82.49,43.20 82.79,41.86 83.09,40.44 83.39,38.10 83.69,36.58 83.99,35.89 84.29,34.20 84.59,33.89 84.89,31.84 85.19,30.02 85.50,29.42 85.80,30.17 86.10,30.84 86.40,32.10 86.70,34.05 87.00,36.16 87.30,37.02 87.60,38.34 87.90,39.46 88.20,39.70 88.50,39.97 88.80,38.30 89.10,36.02 89.40,33.88 89.71,31.90 90.01,30.78 90.31,28.55 90.61,26.62 90.91,26.49 91.21,25.85 91.51,23.42 91.81,20.30 92.11,17.08 92.41,14.60 92.71,12.53 93.01,11.18 93.31,10.52 93.61,11.65 93.92,13.26 94.22,14.86 94.52,16.14 94.82,16.72 95.12,17.23 95.42,16.78 95.72,18.48 96.02,18.12 96.32,17.50 96.62,15.97 96.92,14.51 97.22,12.86 97.52,10.58 97.82,8.74 98.13,5.53 98.43,4.20 98.73,5.24 99.03,5.86 99.33,7.43 99.63,9.17 99.93,8.97 100.23,9.91 100.53,10.01 100.83,9.94 101.13,10.50 101.43,10.31 101.73,11.13 102.04,11.77 102.34,13.11 102.64,14.47 102.94,15.77 103.24,16.79 103.54,18.64 103.84,20.11 104.14,21.99 104.44,23.18 104.74,24.37 105.04,25.48 105.34,26.38 105.64,26.40 105.94,26.98 106.25,27.17 106.55,26.56 106.85,25.57 107.15,24.85 107.45,22.65 107.75,20.45 108.05,19.03 108.35,19.42 108.65,19.57 108.95,20.15 109.25,20.70 109.55,21.47 109.85,22.00 110.15,22.94 110.46,22.06 110.76,22.57 111.06,24.10 111.36,25.55 111.66,27.12 111.96,28.22 112.26,30.32 112.56,30.83 112.86,32.40 113.16,33.96 113.46,33.89 113.76,30.77 114.06,28.78 114.36,25.72 114.67,23.69 114.97,22.25 115.27,20.59 115.57,19.59 115.87,18.58 116.17,17.17 116.47,16.77 116.77,16.37 117.07,16.00 117.37,16.02 117.67,16.81 117.97,18.21 118.27,18.80 118.57,18.77 118.88,18.30 119.18,19.09 119.48,18.84 119.78,20.29 120.08,20.99 120.38,19.87 120.68,18.80 120.98,17.80 121.28,15.40 121.58,13.88 121.88,12.42 122.18,10.88 122.48,8.35 122.78,6.64 123.09,6.47 123.39,7.62 123.69,7.82 123.99,7.13 124.29,5.94 124.59,4.38 124.89,4.32 125.19,4.34 125.49,5.42 125.79,6.34 126.09,8.11 126.39,8.65 126.69,10.23 126.99,10.50 127.30,11.38 127.60,12.40 127.90,12.31 128.20,12.48 128.50,12.97 128.80,13.41 129.10,13.22 129.40,13.75 129.70,14.53 130.00,15.35 130.30,15.23 130.60,15.81 130.90,16.36 131.20,18.45 131.51,20.05 131.81,21.57 132.11,21.81 132.41,22.46 132.71,22.70 133.01,22.08 133.31,21.66 133.61,22.23 133.91,23.60 134.21,25.86 134.51,26.14 134.81,27.07 135.11,26.52 135.42,24.73 135.72,22.99 136.02,21.41 136.32,19.08 136.62,17.00 136.92,14.63 137.22,13.26 137.52,11.93 137.82,10.81 138.12,11.45 138.42,11.44 138.72,11.54 139.02,11.36 139.32,10.83 139.63,11.05 139.93,11.40 140.23,12.46 140.53,14.39 140.83,14.62 141.13,14.42 141.43,12.97 141.73,12.05 142.03,11.49 142.33,11.50 142.63,11.47 142.93,11.82 143.23,12.77 143.53,13.56 143.84,16.13 144.14,19.29 144.44,21.53 144.74,20.02 145.04,20.13 145.34,20.47 145.64,21.72 145.94,23.56 146.24,25.82 146.54,25.32 146.84,22.81 147.14,20.65 147.44,19.07 147.74,17.72 148.05,16.49 148.35,17.03 148.65,15.07 148.95,15.06 149.25,15.74 149.55,16.36 149.85,17.58 150.15,54.95 150.45,54.88 150.75,55.04 151.05,55.12 151.35,54.60 151.65,53.37 151.95,53.94 152.26,52.96 152.56,50.59 152.86,48.31 153.16,48.98 153.46,47.45 153.76,48.55 154.06,48.48 154.36,49.30 154.66,48.11 154.96,47.65 155.26,45.12 155.56,42.78 155.86,43.17 156.16,40.62 156.47,38.47 156.77,36.48 157.07,37.19 157.37,34.51 157.67,35.08 157.97,32.15 158.27,29.46 158.57,30.15 158.87,29.63 159.17,31.20 159.47,31.82 159.77,33.98 160.07,35.42 160.37,37.41 160.68,38.05 160.98,40.07 161.28,40.43 161.58,40.15 161.88,38.63 162.18,35.44 162.48,34.92 162.78,32.13 163.08,32.10 163.38,29.09 163.68,26.37 163.98,27.07 164.28,26.63 164.58,22.51 164.89,20.20 165.19,17.70 165.49,15.27 165.79,13.16 166.09,10.32 166.39,10.01 166.69,12.87 166.99,13.61 167.29,14.27 167.59,17.42 167.89,17.14 168.19,16.59 168.49,16.26 168.80,19.93 169.10,19.67 169.40,19.02 169.70,17.84 170.00,14.84 170.30,13.16 170.60,11.43 170.90,9.66 171.20,5.39 171.50,4.00 171.80,4.61 172.10,5.03 172.40,8.65 172.70,8.06 173.01,10.21 173.31,9.13 173.61,11.25 173.91,10.13 174.21,11.43 174.51,10.61 174.81,11.95 175.11,12.11 175.41,13.78 175.71,14.57 176.01,16.12 176.31,17.15 176.61,18.46 176.91,19.88 177.22,22.84 177.52,22.84 177.82,24.94 178.12,25.62 178.42,26.29 178.72,26.94 179.02,27.46 179.32,27.62 179.62,27.06 179.92,25.47 180.22,24.66 180.52,22.97 180.82,20.75 181.12,19.12 181.43,20.23 181.73,20.41 182.03,20.89 182.33,21.38 182.63,21.85 182.93,22.32 183.23,22.37 183.53,21.74 183.83,23.99 184.13,25.49 184.43,26.77 184.73,27.73 185.03,29.00 185.33,30.33 185.64,30.33 185.94,32.96 186.24,33.82 186.54,33.90 186.84,32.32 187.14,30.09 187.44,26.33 187.74,23.34 188.04,22.97 188.34,20.74 188.64,20.46 188.94,17.91 189.24,17.29 189.54,16.43 189.85,17.33 190.15,15.77 190.45,15.77 190.75,17.17 191.05,19.45 191.35,19.06 191.65,20.22 191.95,18.86 192.25,20.44 192.55,19.43 192.85,21.54 193.15,20.50 193.45,18.80 193.75,18.67 194.06,16.60 194.36,15.73 194.66,13.79 194.96,11.84 195.26,10.80 195.56,8.72 195.86,7.81 196.16,6.93 196.46,6.84 196.76,8.11 197.06,6.51 197.36,4.78 197.66,5.10 197.96,4.04 198.27,5.23 198.57,5.24 198.87,7.35 199.17,7.87 199.47,8.53 199.77,11.04 200.07,10.31 200.37,11.34 200.67,12.65 200.97,13.26 201.27,12.53 201.57,13.49 201.87,14.57 202.18,12.96 202.48,12.84 202.78,14.61 203.08,14.88 203.38,16.29 203.68,16.37 203.98,15.44 204.28,17.56 204.58,19.87 204.88,21.68 205.18,21.19 205.48,22.61 205.78,23.51 206.08,22.32 206.39,22.23 206.69,23.27 206.99,23.33 207.29,26.45 207.59,26.06 207.89,27.67 208.19,26.48 208.49,25.11 208.79,23.29 209.09,21.63 209.39,19.57 209.69,17.58 209.99,15.56 210.29,14.46 210.60,12.69 210.90,11.04 211.20,11.76 211.50,10.80 211.80,12.04 212.10,10.86 212.40,9.47 212.70,10.67 213.00,11.91 213.30,11.91 213.60,13.48 213.90,15.31 214.20,14.35 214.50,13.52 214.81,12.38 215.11,11.84 215.41,11.73 215.71,11.76 216.01,12.02 216.31,13.11 216.61,13.88 216.91,17.07 217.21,19.97 217.51,20.28 217.81,19.89 218.11,21.24 218.41,20.53 218.71,21.44 219.02,24.64 219.32,25.82 219.62,25.79 219.92,23.89 220.22,21.48 220.52,19.87 220.82,18.77 221.12,17.26 221.42,17.33 221.72,15.40 222.02,15.40 222.32,15.77 222.62,16.40 222.92,17.08 223.23,55.19 223.53,55.99 223.83,55.99 224.13,54.87 224.43,56.00 224.73,56.00 225.03,56.00 225.33,52.42 225.63,52.42 225.93,53.55 226.23,53.55 226.53,47.75 226.83,50.25 227.13,50.25 227.44,50.25 227.74,51.29 228.04,51.29 228.34,45.41 228.64,46.16 228.94,46.16 229.24,46.16 229.54,38.57 229.84,40.19 230.14,40.19 230.44,40.19 230.74,40.19 231.04,33.01 231.35,33.01 231.65,33.01 231.95,35.81 232.25,35.81 232.55,31.91 232.85,38.10 233.15,38.10 233.45,38.10 233.75,43.05 234.05,43.05 234.35,40.02 234.65,40.84 234.95,40.84 235.25,35.02 235.56,35.02 235.86,34.80 236.16,34.80 236.46,34.80 236.76,25.63 237.06,25.63 237.36,25.63 237.66,19.85 237.96,19.85 238.26,19.85 238.56,14.66 238.86,14.66 239.16,13.24 239.46,13.24 239.77,13.24 240.07,14.10 240.37,14.10 240.67,22.94 240.97,22.70 241.27,22.70 241.57,22.54 241.87,22.54 242.17,22.54 242.47,19.09 242.77,19.09 243.07,14.35 243.37,14.35 243.67,14.35 243.98,10.33 244.28,10.33 244.58,10.33 244.88,10.82 245.18,10.82 245.48,10.07 245.78,10.07 246.08,10.07 246.38,8.68 246.68,15.19 246.98,15.19 247.28,12.78 247.58,12.78 247.88,12.78 248.19,14.69 248.49,17.91 248.79,17.91 249.09,19.19 249.39,19.19 249.69,19.19 249.99,22.94 250.29,22.94 250.59,22.94 250.89,27.61 251.19,28.85 251.49,28.85 251.79,28.85 252.09,29.30 252.40,29.30 252.70,29.30 253.00,25.02 253.30,25.02 253.60,25.02 253.90,21.11 254.20,21.11 254.50,24.11 254.80,23.83 255.10,23.83 255.40,23.83 255.70,24.94 256.00,24.94 256.30,24.94 256.61,25.65 256.91,25.65 257.21,25.65 257.51,28.62 257.81,28.62 258.11,28.62 258.41,31.84 258.71,31.84 259.01,31.84 259.31,31.84 259.61,32.60 259.91,32.60 260.21,32.60 260.51,25.08 260.82,25.08 261.12,25.08 261.42,22.91 261.72,22.91 262.02,17.61 262.32,15.34 262.62,15.34 262.92,20.71 263.22,19.80 263.52,19.80 263.82,19.80 264.12,17.76 264.42,17.76 264.73,25.44 265.03,22.59 265.33,22.59 265.63,22.59 265.93,20.38 266.23,20.38 266.53,15.49 266.83,19.16 267.13,19.16 267.43,12.71 267.73,12.71 268.03,12.71 268.33,7.22 268.63,7.22 268.94,12.38 269.24,10.87 269.54,10.87 269.84,6.96 270.14,6.96 270.44,6.96 270.74,4.62 271.04,4.62 271.34,10.21 271.64,10.40 271.94,10.40 272.24,10.40 272.54,12.29 272.84,12.29 273.15,12.29 273.45,14.36 273.75,14.36 274.05,14.95 274.35,14.95 274.65,14.95 274.95,17.96 275.25,13.13 275.55,13.13 275.85,13.13 276.15,17.59 276.45,17.59 276.75,13.21 277.05,13.21 277.36,18.39 277.66,18.39 277.96,16.89 278.26,16.89 278.56,23.09 278.86,23.09 279.16,20.83 279.46,20.83 279.76,25.20 280.06,23.67 280.36,23.67 280.66,23.67 280.96,22.87 281.26,22.87 281.57,28.12 281.87,23.24 282.17,23.24 282.47,23.24 282.77,17.35 283.07,17.35 283.37,18.45 283.67,13.18 283.97,13.18 284.27,13.18 284.57,9.02 284.87,9.02 285.17,5.70 285.47,5.70 285.78,13.17 286.08,9.47 286.38,9.47 286.68,9.47 286.98,15.68 287.28,15.68 287.58,15.68 287.88,15.82 288.18,15.82 288.48,15.82 288.78,13.94 289.08,13.94 289.38,13.94 289.68,14.39 289.99,14.39 290.29,14.39 290.59,15.82 290.89,21.22 291.19,21.22 291.49,21.22 291.79,19.85 292.09,19.85 292.39,21.98 292.69,21.98 292.99,21.98 293.29,22.07 293.59,22.07 293.89,22.07 294.20,17.22 294.50,17.22 294.80,19.55 295.10,19.55 295.40,19.55 295.70,19.55 296.00,19.94" />
</svg>