<svg width="300" height="60" xmlns="http://www.w3.org/2000/svg">
  <polyline fill="rgba(255,200,0,0.3)" stroke="#ffbb00" stroke-width="2" points="4.00,53.08 4.87,56.00 5.74,53.56 6.61,49.57 7.49,48.38 8.36,48.20 9.23,48.05 10.10,48.82 10.97,49.46 11.84,48.57 12.72,47.64 13.59,46.56 14.46,45.00 15.33,44.42 16.20,43.49 17.07,42.13 17.95,40.17 18.82,38.33 19.69,36.87 20.56,36.95 21.43,38.19 22.30,40.24 23.18,41.77 24.05,41.87 24.92,41.56 25.79,41.04 26.66,40.45 27.53,39.36 28.41,37.67 29.28,36.16 30.15,35.49 31.02,34.70 31.89,33.67 32.76,32.53 33.64,32.01 34.51,31.23 35.38,30.43 36.25,29.00 37.12,26.23 37.99,24.28 38.87,22.95 39.74,25.85 40.61,29.27 41.48,28.46 42.35,26.57 43.22,24.56 44.10,22.18 44.97,20.33 45.84,19.68 46.71,18.83 47.58,18.54 48.45,17.77 49.33,16.77 50.20,14.95 51.07,13.74 51.94,12.69 52.81,10.84 53.68,11.11 54.56,11.35 55.43,12.07 56.30,12.68 57.17,13.08 58.04,13.32 58.91,13.19 59.79,12.47 60.66,11.54 61.53,10.75 62.40,9.87 63.27,9.24 64.14,8.14 65.01,7.57 65.89,8.53 66.76,7.76 67.63,7.88 68.50,7.68 69.37,7.47 70.24,7.21 71.12,6.88 71.99,6.83 72.86,7.73 73.73,8.90 74.60,10.17 75.47,10.56 76.35,10.20 77.22,54.65 78.09,55.59 78.96,53.26 79.83,49.03 80.70,48.09 81.58,48.16 82.45,48.14 83.32,49.19 84.19,49.15 85.06,48.53 85.93,47.56 86.81,46.17 87.68,44.79 88.55,43.05 89.42,42.99 90.29,41.74 91.16,40.16 92.04,38.32 92.91,36.28 93.78,36.63 94.65,37.67 95.52,40.17 96.39,41.37 97.27,41.26 98.14,41.12 99.01,40.77 99.88,40.17 100.75,39.38 101.62,37.59 102.50,36.12 103.37,34.95 104.24,34.70 105.11,33.41 105.98,32.35 106.85,31.83 107.73,30.79 108.60,29.96 109.47,29.04 110.34,27.67 111.21,24.13 112.08,23.22 112.96,25.52 113.83,28.93 114.70,28.05 115.57,26.68 116.44,24.55 117.31,21.59 118.19,20.43 119.06,19.59 119.93,18.93 120.80,17.75 121.67,17.58 122.54,16.33 123.41,14.54 124.29,13.57 125.16,11.72 126.03,10.73 126.90,11.05 127.77,11.28 128.64,12.13 129.52,12.66 130.39,13.07 131.26,13.13 132.13,12.91 133.00,12.23 133.87,11.31 134.75,10.21 135.62,9.60 136.49,8.97 137.36,7.84 138.23,7.39 139.10,8.51 139.98,7.99 140.85,7.76 141.72,7.49 142.59,7.50 143.46,7.09 144.33,6.56 145.21,6.74 146.08,7.66 146.95,8.98 147.82,10.29 148.69,10.48 149.56,10.12 150.44,53.80 151.31,55.37 152.18,53.53 153.05,49.47 153.92,48.29 154.79,47.76 155.67,49.05 156.54,48.91 157.41,48.81 158.28,47.23 159.15,45.84 160.02,46.84 160.90,45.25 161.77,44.07 162.64,42.88 163.51,39.69 164.38,39.97 165.25,37.62 166.13,35.75 167.00,36.66 167.87,38.12 168.74,40.21 169.61,41.56 170.48,41.53 171.36,41.19 172.23,40.70 173.10,40.70 173.97,39.81 174.84,38.30 175.71,36.83 176.59,35.67 177.46,36.17 178.33,35.27 179.20,33.83 180.07,32.44 180.94,31.39 181.81,30.30 182.69,28.48 183.56,27.79 184.43,24.80 185.30,22.31 186.17,25.29 187.04,29.87 187.92,28.92 188.79,27.12 189.66,25.05 190.53,22.84 191.40,20.80 192.27,18.94 193.15,18.53 194.02,18.31 194.89,18.00 195.76,17.51 196.63,15.07 197.50,13.67 198.38,13.71 199.25,11.46 200.12,11.91 200.99,11.65 201.86,12.39 202.73,13.18 203.61,13.27 204.48,13.48 205.35,13.48 206.22,12.97 207.09,11.21 207.96,10.19 208.84,10.23 209.71,9.52 210.58,8.05 211.45,7.81 212.32,7.42 213.19,8.52 214.07,8.15 214.94,7.76 215.81,7.39 216.68,6.96 217.55,6.56 218.42,6.30 219.30,7.90 220.17,8.90 221.04,10.36 221.91,10.28 222.78,10.09 223.65,49.43 224.53,52.86 225.40,51.89 226.27,51.89 227.14,49.73 228.01,49.73 228.88,49.73 229.76,49.47 230.63,49.47 231.50,46.60 232.37,46.60 233.24,47.10 234.11,43.11 234.99,43.11 235.86,43.11 236.73,38.45 237.60,38.45 238.47,36.09 239.34,36.09 240.21,36.09 241.09,38.81 241.96,38.81 242.83,38.81 243.70,40.69 244.57,40.69 245.44,40.69 246.32,40.69 247.19,39.95 248.06,39.95 248.93,39.95 249.80,36.54 250.67,37.84 251.55,37.84 252.42,34.40 253.29,34.40 254.16,34.40 255.03,29.92 255.90,29.92 256.78,29.92 257.65,23.06 258.52,23.06 259.39,23.06 260.26,29.74 261.13,29.74 262.01,29.59 262.88,29.59 263.75,29.59 264.62,23.90 265.49,23.90 266.36,21.06 267.24,21.06 268.11,21.06 268.98,19.58 269.85,19.58 270.72,13.72 271.59,14.27 272.47,14.27 273.34,14.27 274.21,16.72 275.08,16.72 275.95,16.72 276.82,14.35 277.70,14.35 278.57,14.35 279.44,13.42 280.31,13.42 281.18,9.86 282.05,9.86 282.93,8.34 283.80,8.34 284.67,5.97 285.54,5.97 286.41,5.97 287.28,4.98 288.16,4.98 289.03,4.33 289.90,4.33 290.77,4.33 291.64,4.00 292.51,8.33 293.39,7.92 294.26,7.92 295.13,7.92 296.00,7.92" />
</svg>