<svg width="300" height="60" xmlns="http://www.w3.org/2000/svg">
  <polyline fill="rgba(255,200,0,0.3)" stroke="#ffbb00" stroke-width="2" points="4.00,5.38 4.21,5.32 4.41,5.22 4.62,5.09 4.82,4.92 5.03,4.83 5.23,4.60 5.44,4.42 5.65,4.44 5.85,4.39 6.06,4.40 6.26,4.46 6.47,4.58 6.68,4.75 6.88,4.99 7.09,5.24 7.29,5.45 7.50,5.64 7.70,5.81 7.91,5.99 8.12,6.15 8.32,6.35 8.53,6.53 8.73,6.81 8.94,7.09 9.14,7.38 9.35,7.64 9.56,7.86 9.76,7.92 9.97,8.05 10.17,8.18 10.38,8.28 10.58,8.37 10.79,8.46 11.00,8.54 11.20,8.56 11.41,8.61 11.61,8.68 11.82,8.77 12.03,8.86 12.23,8.94 12.44,9.02 12.64,9.14 12.85,9.19 13.05,9.19 13.26,9.19 13.47,9.16 13.67,9.17 13.88,9.16 14.08,9.09 14.29,9.04 14.49,8.90 14.70,8.76 14.91,8.65 15.11,8.63 15.32,8.62 15.52,8.66 15.73,8.70 15.94,8.77 16.14,8.82 16.35,8.85 16.55,8.87 16.76,8.88 16.96,8.90 17.17,8.97 17.38,9.00 17.58,9.00 17.79,9.02 17.99,9.09 18.20,9.15 18.40,9.13 18.61,9.29 18.82,9.35 19.02,9.44 19.23,9.57 19.43,9.70 19.64,9.83 19.84,9.96 20.05,10.04 20.26,10.14 20.46,10.23 20.67,10.31 20.87,10.39 21.08,10.45 21.29,10.48 21.49,10.53 21.70,10.54 21.90,10.56 22.11,10.61 22.31,10.63 22.52,10.64 22.73,10.64 22.93,10.63 23.14,10.60 23.34,10.55 23.55,10.49 23.75,10.44 23.96,10.42 24.17,10.35 24.37,10.29 24.58,10.29 24.78,10.24 24.99,10.14 25.20,10.11 25.40,10.12 25.61,10.12 25.81,10.17 26.02,10.15 26.22,10.19 26.43,10.27 26.64,10.26 26.84,10.34 27.05,10.45 27.25,10.58 27.46,10.76 27.66,10.86 27.87,10.93 28.08,11.07 28.28,11.20 28.49,11.34 28.69,11.46 28.90,11.52 29.11,11.60 29.31,11.73 29.52,11.86 29.72,11.99 29.93,12.13 30.13,12.30 30.34,12.45 30.55,12.62 30.75,12.79 30.96,12.99 31.16,13.21 31.37,13.42 31.57,13.70 31.78,13.95 31.99,14.23 32.19,14.46 32.40,14.70 32.60,15.00 32.81,15.26 33.01,15.53 33.22,15.83 33.43,16.13 33.63,16.35 33.84,16.60 34.04,16.87 34.25,17.16 34.46,17.45 34.66,17.72 34.87,17.96 35.07,18.27 35.28,18.55 35.48,18.84 35.69,19.11 35.90,19.42 36.10,19.70 36.31,20.00 36.51,20.28 36.72,20.57 36.92,20.86 37.13,21.21 37.34,21.59 37.54,21.98 37.75,22.35 37.95,22.71 38.16,23.01 38.37,23.27 38.57,23.59 38.78,23.93 38.98,24.28 39.19,24.60 39.39,24.86 39.60,25.14 39.81,25.44 40.01,25.78 40.22,26.18 40.42,26.48 40.63,26.80 40.83,27.13 41.04,27.44 41.25,27.79 41.45,28.11 41.66,28.50 41.86,28.86 42.07,29.21 42.27,29.54 42.48,29.84 42.69,30.15 42.89,30.41 43.10,30.67 43.30,30.85 43.51,30.96 43.72,31.09 43.92,31.23 44.13,31.35 44.33,31.41 44.54,31.45 44.74,31.44 44.95,31.44 45.16,31.47 45.36,31.44 45.57,31.42 45.77,31.42 45.98,31.43 46.18,31.45 46.39,31.46 46.60,31.48 46.80,31.52 47.01,31.56 47.21,31.62 47.42,31.70 47.63,31.81 47.83,31.97 48.04,32.15 48.24,32.33 48.45,32.54 48.65,32.75 48.86,32.95 49.07,33.18 49.27,33.41 49.48,33.63 49.68,33.84 49.89,34.09 50.09,34.34 50.30,34.53 50.51,34.76 50.71,35.04 50.92,35.33 51.12,35.68 51.33,35.96 51.53,36.27 51.74,36.56 51.95,36.77 52.15,36.95 52.36,37.28 52.56,37.69 52.77,38.29 52.98,38.72 53.18,38.67 53.39,38.52 53.59,38.66 53.80,38.85 54.00,39.11 54.21,39.35 54.42,39.57 54.62,39.83 54.83,40.13 55.03,40.45 55.24,40.75 55.44,40.99 55.65,41.28 55.86,41.55 56.06,41.87 56.27,42.18 56.47,42.49 56.68,42.80 56.89,43.13 57.09,43.48 57.30,43.81 57.50,44.19 57.71,44.58 57.91,44.96 58.12,45.32 58.33,45.60 58.53,45.94 58.74,46.29 58.94,46.67 59.15,47.04 59.35,47.37 59.56,47.68 59.77,47.97 59.97,48.31 60.18,48.64 60.38,48.95 60.59,49.20 60.79,49.43 61.00,49.69 61.21,49.97 61.41,50.23 61.62,50.48 61.82,50.72 62.03,50.98 62.24,51.22 62.44,51.43 62.65,51.58 62.85,51.79 63.06,51.92 63.26,51.98 63.47,52.04 63.68,52.07 63.88,52.12 64.09,52.20 64.29,52.27 64.50,52.29 64.70,52.28 64.91,52.27 65.12,52.29 65.32,52.32 65.53,52.41 65.73,52.40 65.94,52.42 66.15,52.44 66.35,52.46 66.56,52.46 66.76,52.47 66.97,52.51 67.17,52.57 67.38,52.67 67.59,52.79 67.79,52.91 68.00,53.02 68.20,53.15 68.41,53.30 68.61,53.51 68.82,53.75 69.03,54.05 69.23,54.31 69.44,54.38 69.64,54.40 69.85,54.27 70.05,54.13 70.26,54.17 70.47,53.78 70.67,54.03 70.88,54.57 71.08,54.89 71.29,54.96 71.50,54.99 71.70,55.20 71.91,55.38 72.11,55.14 72.32,55.12 72.52,55.04 72.73,55.17 72.94,55.30 73.14,55.43 73.35,55.57 73.55,55.71 73.76,55.84 73.96,55.90 74.17,55.96 74.38,55.98 74.58,55.99 74.79,55.97 74.99,55.94 75.20,55.89 75.41,55.84 75.61,55.78 75.82,55.73 76.02,55.68 76.23,55.63 76.43,55.49 76.64,52.31 76.85,52.34 77.05,52.36 77.26,52.38 77.46,52.43 77.67,52.45 77.87,52.47 78.08,52.46 78.29,52.49 78.49,52.52 78.70,52.58 78.90,52.71 79.11,52.80 79.32,52.93 79.52,53.06 79.73,53.21 79.93,53.35 80.14,53.54 80.34,53.76 80.55,54.13 80.76,54.34 80.96,54.40 81.17,54.37 81.37,54.25 81.58,54.11 81.78,54.15 81.99,53.78 82.20,54.19 82.40,54.46 82.61,54.90 82.81,54.99 83.02,55.00 83.22,55.21 83.43,55.40 83.64,55.37 83.84,55.42 84.05,55.04 84.25,55.18 84.46,55.34 84.67,55.42 84.87,55.57 85.08,55.74 85.28,55.84 85.49,55.93 85.69,55.97 85.90,55.99 86.11,56.00 86.31,55.99 86.52,55.95 86.72,55.90 86.93,55.85 87.13,55.80 87.34,55.74 87.55,55.70 87.75,55.64 87.96,55.49 88.16,5.39 88.37,5.34 88.58,5.25 88.78,5.14 88.99,4.96 89.19,4.81 89.40,4.63 89.60,4.43 89.81,4.44 90.02,4.40 90.22,4.42 90.43,4.49 90.63,4.63 90.84,4.76 91.04,5.01 91.25,5.25 91.46,5.50 91.66,5.71 91.87,5.86 92.07,6.08 92.28,6.22 92.48,6.33 92.69,6.56 92.90,6.83 93.10,7.15 93.31,7.44 93.51,7.70 93.72,7.88 93.93,7.97 94.13,8.11 94.34,8.24 94.54,8.32 94.75,8.38 94.95,8.48 95.16,8.55 95.37,8.59 95.57,8.67 95.78,8.68 95.98,8.81 96.19,8.92 96.39,8.96 96.60,9.02 96.81,9.13 97.01,9.22 97.22,9.20 97.42,9.21 97.63,9.18 97.84,9.22 98.04,9.16 98.25,9.10 98.45,9.01 98.66,8.91 98.86,8.79 99.07,8.68 99.28,8.65 99.48,8.62 99.69,8.67 99.89,8.73 100.10,8.76 100.30,8.83 100.51,8.86 100.72,8.87 100.92,8.89 101.13,8.93 101.33,8.99 101.54,8.99 101.74,8.99 101.95,9.01 102.16,9.08 102.36,9.18 102.57,9.16 102.77,9.30 102.98,9.36 103.19,9.44 103.39,9.59 103.60,9.73 103.80,9.89 104.01,9.99 104.21,10.06 104.42,10.13 104.63,10.21 104.83,10.33 105.04,10.36 105.24,10.46 105.45,10.50 105.65,10.54 105.86,10.57 106.07,10.59 106.27,10.64 106.48,10.64 106.68,10.65 106.89,10.64 107.10,10.66 107.30,10.63 107.51,10.59 107.71,10.51 107.92,10.47 108.12,10.46 108.33,10.40 108.54,10.33 108.74,10.29 108.95,10.21 109.15,10.16 109.36,10.12 109.56,10.14 109.77,10.15 109.98,10.15 110.18,10.20 110.39,10.21 110.59,10.26 110.80,10.29 111.00,10.37 111.21,10.44 111.42,10.63 111.62,10.78 111.83,10.85 112.03,10.97 112.24,11.10 112.45,11.24 112.65,11.40 112.86,11.52 113.06,11.53 113.27,11.61 113.47,11.75 113.68,11.87 113.89,12.01 114.09,12.16 114.30,12.29 114.50,12.48 114.71,12.63 114.91,12.80 115.12,13.03 115.33,13.19 115.53,13.44 115.74,13.70 115.94,13.91 116.15,14.28 116.36,14.50 116.56,14.74 116.77,14.98 116.97,15.28 117.18,15.63 117.38,15.87 117.59,16.19 117.80,16.43 118.00,16.64 118.21,16.88 118.41,17.22 118.62,17.45 118.82,17.77 119.03,18.02 119.24,18.27 119.44,18.59 119.65,18.90 119.85,19.14 120.06,19.49 120.26,19.77 120.47,20.07 120.68,20.34 120.88,20.63 121.09,20.92 121.29,21.30 121.50,21.66 121.71,21.96 121.91,22.33 122.12,22.78 122.32,23.05 122.53,23.39 122.73,23.59 122.94,23.92 123.15,24.30 123.35,24.63 123.56,24.92 123.76,25.25 123.97,25.45 124.17,25.78 124.38,26.19 124.59,26.55 124.79,26.92 125.00,27.18 125.20,27.55 125.41,27.88 125.62,28.18 125.82,28.50 126.03,28.92 126.23,29.28 126.44,29.57 126.64,29.92 126.85,30.23 127.06,30.48 127.26,30.70 127.47,30.86 127.67,30.99 127.88,31.13 128.08,31.25 128.29,31.37 128.50,31.47 128.70,31.46 128.91,31.43 129.11,31.44 129.32,31.45 129.53,31.44 129.73,31.44 129.94,31.46 130.14,31.46 130.35,31.50 130.55,31.48 130.76,31.50 130.97,31.56 131.17,31.58 131.38,31.63 131.58,31.71 131.79,31.87 131.99,32.00 132.20,32.20 132.41,32.35 132.61,32.60 132.82,32.81 133.02,33.00 133.23,33.19 133.43,33.43 133.64,33.63 133.85,33.89 134.05,34.19 134.26,34.39 134.46,34.55 134.67,34.80 134.88,35.09 135.08,35.35 135.29,35.70 135.49,35.99 135.70,36.27 135.90,36.63 136.11,36.74 136.32,36.95 136.52,37.43 136.73,37.83 136.93,38.82 137.14,39.11 137.34,38.68 137.55,38.53 137.76,38.74 137.96,38.89 138.17,39.15 138.37,39.37 138.58,39.58 138.79,39.88 138.99,40.13 139.20,40.57 139.40,40.81 139.61,41.08 139.81,41.36 140.02,41.56 140.23,41.89 140.43,42.19 140.64,42.53 140.84,42.87 141.05,43.23 141.25,43.58 141.46,43.88 141.67,44.24 141.87,44.60 142.08,45.02 142.28,45.31 142.49,45.67 142.69,46.02 142.90,46.35 143.11,46.67 143.31,47.11 143.52,47.36 143.72,47.71 143.93,48.05 144.14,48.40 144.34,48.64 144.55,48.95 144.75,49.24 144.96,49.47 145.16,49.70 145.37,49.98 145.58,50.23 145.78,50.53 145.99,50.73 146.19,51.01 146.40,51.22 146.60,51.45 146.81,51.60 147.02,51.80 147.22,51.92 147.43,52.02 147.63,52.05 147.84,52.10 148.05,52.15 148.25,52.19 148.46,52.22 148.66,52.29 148.87,52.27 149.07,52.29 149.28,52.32 149.49,52.34 149.69,52.36 149.90,52.38 150.10,52.43 150.31,52.44 150.51,52.47 150.72,52.47 150.93,5.43 151.13,5.37 151.34,5.29 151.54,5.32 151.75,4.95 151.95,4.63 152.16,4.62 152.37,4.28 152.57,4.04 152.78,4.33 152.98,4.31 153.19,4.41 153.40,4.61 153.60,4.58 153.81,4.83 154.01,5.19 154.22,5.66 154.42,5.70 154.63,5.73 154.84,5.83 155.04,6.08 155.25,6.12 155.45,6.49 155.66,6.76 155.86,6.70 156.07,7.26 156.28,7.69 156.48,7.95 156.69,7.90 156.89,8.01 157.10,8.41 157.31,8.23 157.51,8.38 157.72,8.54 157.92,8.49 158.13,8.68 158.33,8.69 158.54,8.69 158.75,8.87 158.95,8.85 159.16,8.91 159.36,9.00 159.57,8.97 159.77,8.68 159.98,9.11 160.19,9.15 160.39,9.15 160.60,9.21 160.80,9.08 161.01,9.01 161.21,9.23 161.42,8.94 161.63,8.77 161.83,8.60 162.04,8.35 162.24,8.54 162.45,8.54 162.66,8.75 162.86,8.86 163.07,8.87 163.27,8.85 163.48,9.07 163.68,8.93 163.89,8.90 164.10,8.80 164.30,8.92 164.51,8.95 164.71,9.00 164.92,8.76 165.12,8.94 165.33,8.65 165.54,9.17 165.74,9.14 165.95,9.14 166.15,9.73 166.36,9.80 166.57,9.93 166.77,10.18 166.98,10.07 167.18,9.95 167.39,10.15 167.59,10.13 167.80,10.27 168.01,10.43 168.21,10.40 168.42,10.39 168.62,10.51 168.83,10.47 169.03,10.73 169.24,10.69 169.45,10.63 169.65,10.36 169.86,10.58 170.06,10.40 170.27,10.57 170.47,10.38 170.68,10.28 170.89,10.49 171.09,10.35 171.30,10.42 171.50,10.36 171.71,10.23 171.92,10.48 172.12,10.23 172.33,10.41 172.53,10.16 172.74,10.30 172.94,10.18 173.15,10.37 173.36,10.29 173.56,10.50 173.77,10.43 173.97,10.30 174.18,10.51 174.38,10.40 174.59,10.74 174.80,10.85 175.00,10.98 175.21,11.15 175.41,11.34 175.62,11.51 175.83,11.57 176.03,11.49 176.24,11.74 176.44,11.39 176.65,11.69 176.85,12.16 177.06,12.35 177.27,12.59 177.47,12.59 177.68,12.86 177.88,13.04 178.09,13.45 178.29,13.43 178.50,13.54 178.71,13.86 178.91,13.98 179.12,14.43 179.32,14.75 179.53,15.28 179.74,15.39 179.94,15.63 180.15,15.44 180.35,15.80 180.56,16.32 180.76,16.23 180.97,16.68 181.18,17.11 181.38,17.11 181.59,17.53 181.79,17.96 182.00,17.80 182.20,18.31 182.41,18.78 182.62,19.21 182.82,19.54 183.03,19.98 183.23,20.10 183.44,20.48 183.64,20.63 183.85,21.01 184.06,21.35 184.26,21.35 184.47,21.65 184.67,22.10 184.88,22.55 185.09,22.57 185.29,23.25 185.50,23.47 185.70,23.78 185.91,24.20 186.11,24.60 186.32,24.61 186.53,25.14 186.73,25.14 186.94,25.58 187.14,25.94 187.35,26.17 187.55,26.76 187.76,27.11 187.97,27.58 188.17,27.68 188.38,28.15 188.58,28.27 188.79,28.83 189.00,29.39 189.20,29.58 189.41,29.98 189.61,30.27 189.82,30.27 190.02,30.51 190.23,30.75 190.44,31.09 190.64,31.01 190.85,31.29 191.05,31.47 191.26,32.08 191.46,31.49 191.67,31.46 191.88,31.53 192.08,31.57 192.29,31.56 192.49,31.51 192.70,31.46 192.90,31.43 193.11,31.49 193.32,31.51 193.52,31.61 193.73,31.51 193.93,31.58 194.14,31.60 194.35,31.57 194.55,31.73 194.76,31.93 194.96,31.87 195.17,32.27 195.37,32.63 195.58,32.53 195.79,33.05 195.99,32.90 196.20,33.08 196.40,33.54 196.61,33.69 196.81,33.95 197.02,34.25 197.23,34.43 197.43,34.91 197.64,35.25 197.84,35.38 198.05,35.69 198.26,36.04 198.46,36.04 198.67,36.50 198.87,36.82 199.08,37.12 199.28,37.50 199.49,37.66 199.70,38.40 199.90,38.33 200.11,38.99 200.31,38.57 200.52,38.77 200.72,38.99 200.93,39.25 201.14,39.35 201.34,39.65 201.55,40.07 201.75,40.27 201.96,40.25 202.16,40.74 202.37,41.17 202.58,41.45 202.78,41.45 202.99,41.74 203.19,42.03 203.40,42.64 203.61,42.85 203.81,43.10 204.02,43.38 204.22,43.71 204.43,44.11 204.63,44.56 204.84,44.63 205.05,45.13 205.25,45.65 205.46,45.62 205.66,46.23 205.87,46.70 206.07,47.18 206.28,47.29 206.49,47.57 206.69,48.01 206.90,48.22 207.10,48.59 207.31,48.93 207.52,49.25 207.72,49.46 207.93,49.87 208.13,50.26 208.34,49.92 208.54,50.25 208.75,50.82 208.96,50.67 209.16,51.12 209.37,51.52 209.57,51.32 209.78,51.78 209.98,52.16 210.19,52.02 210.40,52.10 210.60,52.17 210.81,52.19 211.01,52.22 211.22,52.50 211.42,52.49 211.63,52.25 211.84,52.39 212.04,52.27 212.25,52.50 212.45,52.39 212.66,52.57 212.87,52.45 213.07,52.64 213.28,52.52 213.48,52.74 213.69,52.59 213.89,52.83 214.10,52.68 214.31,52.75 214.51,52.85 214.72,52.98 214.92,53.10 215.13,53.20 215.33,53.33 215.54,53.70 215.75,53.59 215.95,53.96 216.16,54.12 216.36,54.15 216.57,54.36 216.78,54.23 216.98,54.04 217.19,54.11 217.39,54.04 217.60,54.23 217.80,54.43 218.01,54.58 218.22,54.65 218.42,54.65 218.63,54.73 218.83,54.95 219.04,55.29 219.24,54.97 219.45,55.22 219.66,55.24 219.86,55.38 220.07,55.43 220.27,55.58 220.48,55.50 220.68,55.65 220.89,55.75 221.10,55.22 221.30,55.78 221.51,55.31 221.71,55.67 221.92,55.99 222.13,55.78 222.33,55.82 222.54,55.85 222.74,55.61 222.95,55.65 223.15,55.68 223.36,55.65 223.57,5.60 223.77,5.51 223.98,5.51 224.18,5.51 224.39,5.35 224.59,4.90 224.80,4.90 225.01,4.90 225.21,4.00 225.42,4.17 225.62,4.17 225.83,4.17 226.04,5.04 226.24,4.49 226.45,4.49 226.65,4.49 226.86,6.28 227.06,6.28 227.27,5.49 227.48,6.09 227.68,6.09 227.89,6.09 228.09,5.65 228.30,5.65 228.50,5.65 228.71,6.70 228.92,6.70 229.12,6.70 229.33,7.38 229.53,7.38 229.74,8.88 229.95,8.88 230.15,7.85 230.36,7.85 230.56,7.85 230.77,8.87 230.97,8.87 231.18,8.87 231.39,8.87 231.59,8.62 231.80,8.62 232.00,8.62 232.21,7.57 232.41,7.57 232.62,7.57 232.83,8.94 233.03,8.94 233.24,8.94 233.44,7.19 233.65,7.60 233.85,9.51 234.06,9.51 234.27,8.43 234.47,8.43 234.68,8.43 234.88,9.05 235.09,8.34 235.30,8.34 235.50,8.34 235.71,8.63 235.91,8.63 236.12,8.63 236.32,8.38 236.53,8.38 236.74,8.38 236.94,8.92 237.15,8.92 237.35,8.13 237.56,8.13 237.76,8.89 237.97,8.48 238.18,8.48 238.38,8.48 238.59,9.02 238.79,9.02 239.00,9.02 239.21,8.99 239.41,10.14 239.62,10.14 239.82,9.56 240.03,9.56 240.23,9.82 240.44,9.82 240.65,9.82 240.85,10.01 241.06,10.01 241.26,10.01 241.47,9.95 241.67,9.95 241.88,9.67 242.09,9.67 242.29,9.67 242.50,10.17 242.70,10.17 242.91,10.17 243.11,9.25 243.32,9.25 243.53,10.11 243.73,10.11 243.94,10.11 244.14,10.49 244.35,10.49 244.56,10.49 244.76,10.49 244.97,11.57 245.17,9.90 245.38,9.90 245.58,10.73 245.79,10.73 246.00,10.73 246.20,11.94 246.41,10.19 246.61,10.19 246.82,10.19 247.02,9.35 247.23,10.80 247.44,10.80 247.64,10.80 247.85,11.16 248.05,11.16 248.26,11.16 248.47,11.57 248.67,11.57 248.88,11.57 249.08,10.77 249.29,10.77 249.49,12.53 249.70,12.53 249.91,11.65 250.11,11.65 250.32,13.11 250.52,13.11 250.73,13.11 250.93,13.36 251.14,13.36 251.35,13.36 251.55,13.96 251.76,13.96 251.96,13.96 252.17,15.38 252.37,14.97 252.58,14.97 252.79,14.97 252.99,15.66 253.20,15.66 253.40,15.66 253.61,15.66 253.82,16.93 254.02,16.93 254.23,16.93 254.43,16.93 254.64,16.53 254.84,18.25 255.05,18.25 255.26,18.25 255.46,19.55 255.67,19.55 255.87,19.55 256.08,21.27 256.28,21.27 256.49,21.27 256.70,21.27 256.90,21.27 257.11,21.27 257.31,21.27 257.52,23.49 257.73,22.46 257.93,22.46 258.14,22.46 258.34,22.86 258.55,22.86 258.75,22.86 258.96,24.43 259.17,24.43 259.37,24.43 259.58,24.43 259.78,25.70 259.99,25.70 260.19,25.70 260.40,25.95 260.61,27.34 260.81,27.34 261.02,27.34 261.22,27.34 261.43,29.04 261.63,29.04 261.84,29.04 262.05,30.40 262.25,30.45 262.46,30.45 262.66,30.45 262.87,31.63 263.08,31.63 263.28,30.60 263.49,30.60 263.69,32.30 263.90,32.30 264.10,31.79 264.31,31.79 264.52,32.22 264.72,32.22 264.93,32.41 265.13,32.41 265.34,32.41 265.54,32.10 265.75,32.10 265.96,32.43 266.16,32.43 266.37,32.43 266.57,33.86 266.78,30.95 266.99,30.95 267.19,30.95 267.40,32.31 267.60,31.40 267.81,31.40 268.01,31.40 268.22,30.07 268.43,33.07 268.63,33.07 268.84,33.07 269.04,33.07 269.25,33.77 269.45,33.77 269.66,33.77 269.87,33.77 270.07,35.18 270.28,35.18 270.48,33.91 270.69,35.52 270.89,35.52 271.10,35.52 271.31,35.52 271.51,37.39 271.72,37.39 271.92,37.39 272.13,37.91 272.34,37.91 272.54,37.91 272.75,38.77 272.95,38.77 273.16,38.77 273.36,39.18 273.57,39.18 273.78,39.73 273.98,39.73 274.19,41.40 274.39,41.40 274.60,40.77 274.80,40.77 275.01,43.07 275.22,43.21 275.42,43.21 275.63,43.21 275.83,43.21 276.04,43.90 276.25,43.90 276.45,43.90 276.66,44.11 276.86,44.11 277.07,44.11 277.27,45.34 277.48,44.52 277.69,44.52 277.89,44.52 278.10,43.91 278.30,46.16 278.51,46.16 278.71,46.16 278.92,46.44 279.13,47.80 279.33,47.80 279.54,47.80 279.74,48.95 279.95,48.95 280.16,48.95 280.36,50.22 280.57,50.22 280.77,48.69 280.98,48.69 281.18,50.98 281.39,50.98 281.60,49.25 281.80,49.25 282.01,51.78 282.21,50.95 282.42,50.95 282.62,50.95 282.83,52.19 283.04,52.19 283.24,52.19 283.45,51.29 283.65,52.40 283.86,52.40 284.06,52.40 284.27,51.23 284.48,52.33 284.68,52.33 284.89,52.33 285.09,52.97 285.30,52.97 285.51,51.60 285.71,52.74 285.92,52.74 286.12,52.74 286.33,53.40 286.53,53.40 286.74,52.11 286.95,53.26 287.15,53.26 287.36,52.71 287.56,52.71 287.77,52.71 287.97,52.71 288.18,53.68 288.39,53.68 288.59,53.68 288.80,53.68 289.00,54.07 289.21,54.07 289.42,54.07 289.62,54.07 289.83,54.35 290.03,54.35 290.24,54.35 290.44,54.52 290.65,54.52 290.86,54.52 291.06,54.52 291.27,54.85 291.47,54.85 291.68,54.85 291.88,54.19 292.09,54.19 292.30,54.19 292.50,55.09 292.71,55.09 292.91,55.09 293.12,52.87 293.32,54.54 293.53,54.54 293.74,52.54 293.94,52.54 294.15,52.54 294.35,53.72 294.56,53.72 294.77,53.72 294.97,53.72 295.18,54.53 295.38,54.53 295.59,54.53 295.79,52.24 296.00,54.90" />
</svg>