<svg width="300" height="60" xmlns="http://www.w3.org/2000/svg">
  <polyline fill="rgba(255,200,0,0.3)" stroke="#ffbb00" stroke-width="2" points="4.00,7.55 4.49,7.03 4.98,7.72 5.47,9.07 5.96,10.00 6.45,11.33 6.93,12.25 7.42,14.11 7.91,16.16 8.40,17.94 8.89,18.29 9.38,19.26 9.87,20.19 10.36,21.24 10.85,22.13 11.34,23.21 11.83,23.91 12.31,24.64 12.80,25.52 13.29,26.35 13.78,27.35 14.27,28.89 14.76,29.01 15.25,28.62 15.74,29.89 16.23,30.93 16.72,31.99 17.21,32.44 17.70,31.17 18.18,31.83 18.67,32.99 19.16,34.34 19.65,35.41 20.14,37.07 20.63,38.23 21.12,39.28 21.61,40.22 22.10,41.29 22.59,42.40 23.08,43.06 23.56,43.77 24.05,43.95 24.54,44.95 25.03,45.37 25.52,46.59 26.01,46.47 26.50,47.47 26.99,48.28 27.48,49.50 27.97,51.19 28.46,52.36 28.94,53.37 29.43,53.94 29.92,54.62 30.41,55.13 30.90,55.23 31.39,55.07 31.88,53.85 32.37,51.04 32.86,50.26 33.35,50.62 33.84,50.41 34.32,49.45 34.81,48.47 35.30,47.54 35.79,46.73 36.28,45.91 36.77,44.93 37.26,43.89 37.75,43.25 38.24,42.40 38.73,41.89 39.22,41.56 39.71,41.32 40.19,41.08 40.68,40.95 41.17,41.25 41.66,41.71 42.15,42.19 42.64,42.92 43.13,43.56 43.62,43.99 44.11,44.38 44.60,44.73 45.09,45.14 45.57,45.02 46.06,46.18 46.55,46.22 47.04,45.96 47.53,46.09 48.02,46.46 48.51,46.72 49.00,46.69 49.49,48.12 49.98,48.71 50.47,48.84 50.95,49.25 51.44,49.46 51.93,49.75 52.42,50.24 52.91,50.55 53.40,51.26 53.89,51.94 54.38,52.46 54.87,53.09 55.36,53.68 55.85,53.48 56.34,52.69 56.82,51.76 57.31,50.46 57.80,48.99 58.29,47.68 58.78,46.21 59.27,44.27 59.76,43.17 60.25,41.79 60.74,40.91 61.23,40.02 61.72,40.41 62.20,40.93 62.69,41.34 63.18,39.74 63.67,37.24 64.16,34.27 64.65,30.87 65.14,28.98 65.63,28.18 66.12,28.15 66.61,28.62 67.10,29.21 67.58,30.06 68.07,30.67 68.56,31.05 69.05,30.88 69.54,30.65 70.03,30.19 70.52,29.70 71.01,31.07 71.50,30.07 71.99,29.39 72.48,27.52 72.96,25.58 73.45,24.00 73.94,21.66 74.43,19.76 74.92,18.07 75.41,16.23 75.90,46.79 76.39,45.80 76.88,45.56 77.37,46.17 77.86,48.10 78.35,48.68 78.83,48.85 79.32,49.14 79.81,49.63 80.30,49.87 80.79,50.03 81.28,50.68 81.77,50.99 82.26,51.95 82.75,52.68 83.24,53.23 83.73,53.72 84.21,53.50 84.70,52.38 85.19,51.66 85.68,50.53 86.17,48.88 86.66,47.54 87.15,46.60 87.64,44.77 88.13,43.71 88.62,42.52 89.11,40.95 89.59,40.17 90.08,7.54 90.57,7.12 91.06,7.54 91.55,9.67 92.04,10.46 92.53,11.51 93.02,12.55 93.51,14.07 94.00,16.10 94.49,17.86 94.97,18.73 95.46,19.45 95.95,20.44 96.44,21.15 96.93,22.19 97.42,23.40 97.91,24.25 98.40,24.33 98.89,25.66 99.38,26.15 99.87,27.38 100.36,28.76 100.84,28.32 101.33,26.17 101.82,28.80 102.31,29.74 102.80,32.52 103.29,30.93 103.78,29.80 104.27,32.29 104.76,32.92 105.25,33.98 105.74,35.51 106.22,36.72 106.71,37.90 107.20,39.59 107.69,40.61 108.18,41.39 108.67,42.38 109.16,43.12 109.65,43.77 110.14,44.35 110.63,44.42 111.12,45.14 111.60,46.67 112.09,46.38 112.58,47.56 113.07,48.84 113.56,48.22 114.05,50.08 114.54,52.02 115.03,53.44 115.52,54.14 116.01,54.84 116.50,55.05 116.98,55.49 117.47,55.04 117.96,53.44 118.45,49.53 118.94,51.30 119.43,49.38 119.92,49.77 120.41,49.74 120.90,48.56 121.39,47.76 121.88,46.57 122.37,45.74 122.85,44.72 123.34,43.90 123.83,43.46 124.32,42.27 124.81,41.87 125.30,41.45 125.79,41.16 126.28,41.06 126.77,41.04 127.26,41.27 127.75,41.93 128.23,42.31 128.72,43.09 129.21,43.65 129.70,44.32 130.19,44.47 130.68,43.43 131.17,43.62 131.66,45.24 132.15,45.80 132.64,46.20 133.13,45.40 133.61,46.80 134.10,45.79 134.59,45.57 135.08,46.18 135.57,48.09 136.06,48.67 136.55,48.85 137.04,42.51 137.53,40.94 138.02,40.18 138.51,40.83 138.99,41.20 139.48,41.52 139.97,39.87 140.46,37.71 140.95,34.21 141.44,30.55 141.93,29.37 142.42,28.16 142.91,28.57 143.40,28.65 143.89,29.47 144.38,30.55 144.86,31.06 145.35,31.20 145.84,31.72 146.33,31.45 146.82,31.09 147.31,30.29 147.80,31.68 148.29,30.83 148.78,29.58 149.27,27.84 149.76,25.61 150.24,24.86 150.73,22.14 151.22,19.85 151.71,18.25 152.20,16.48 152.69,7.14 153.18,6.43 153.67,7.60 154.16,9.24 154.65,10.59 155.14,9.77 155.62,12.43 156.11,14.77 156.60,14.19 157.09,17.27 157.58,18.46 158.07,18.05 158.56,19.09 159.05,20.92 159.54,22.97 160.03,24.09 160.52,24.62 161.01,24.35 161.49,24.35 161.98,26.21 162.47,26.05 162.96,28.54 163.45,28.54 163.94,27.92 164.43,26.86 164.92,30.65 165.41,30.65 165.90,33.06 166.39,31.01 166.87,34.08 167.36,33.21 167.85,33.16 168.34,36.29 168.83,36.65 169.32,36.89 169.81,39.38 170.30,39.62 170.79,41.63 171.28,42.07 171.77,42.28 172.25,44.31 172.74,44.29 173.23,44.17 173.72,44.08 174.21,46.74 174.70,46.69 175.19,46.69 175.68,49.59 176.17,49.69 176.66,49.93 177.15,50.68 177.63,53.39 178.12,54.36 178.61,55.30 179.10,56.00 179.59,55.81 180.08,55.85 180.57,54.28 181.06,52.51 181.55,49.88 182.04,51.45 182.53,47.75 183.02,48.67 183.50,48.98 183.99,48.68 184.48,48.07 184.97,47.30 185.46,45.65 185.95,45.15 186.44,45.05 186.93,45.73 187.42,42.35 187.91,41.17 188.40,44.36 188.88,40.46 189.37,39.74 189.86,42.01 190.35,42.30 190.84,41.08 191.33,42.48 191.82,42.43 192.31,44.59 192.80,44.14 193.29,44.14 193.78,44.55 194.26,43.24 194.75,45.73 195.24,44.90 195.73,44.61 196.22,46.84 196.71,46.04 197.20,47.03 197.69,45.41 198.18,46.96 198.67,48.50 199.16,48.50 199.64,49.43 200.13,49.65 200.62,49.43 201.11,49.43 201.60,49.34 202.09,49.14 202.58,50.86 203.07,51.08 203.56,52.75 204.05,53.52 204.54,53.13 205.03,52.67 205.51,51.59 206.00,50.55 206.49,47.96 206.98,46.99 207.47,46.02 207.96,45.13 208.45,42.61 208.94,41.80 209.43,40.68 209.92,40.51 210.41,40.73 210.89,41.34 211.38,39.50 211.87,39.38 212.36,36.79 212.85,31.66 213.34,30.55 213.83,28.52 214.32,27.96 214.81,29.03 215.30,28.78 215.79,28.95 216.27,30.83 216.76,30.86 217.25,30.18 217.74,30.25 218.23,31.60 218.72,30.53 219.21,30.14 219.70,32.49 220.19,30.87 220.68,27.50 221.17,28.49 221.65,24.79 222.14,25.28 222.63,21.52 223.12,18.50 223.61,18.50 224.10,16.59 224.59,6.37 225.08,6.37 225.57,6.37 226.06,4.00 226.55,9.95 227.04,9.95 227.52,9.95 228.01,7.87 228.50,7.87 228.99,16.42 229.48,12.16 229.97,12.16 230.46,12.16 230.95,20.48 231.44,17.01 231.93,17.01 232.42,15.63 232.90,15.63 233.39,15.63 233.88,26.40 234.37,26.11 234.86,26.11 235.35,26.11 235.84,25.12 236.33,25.12 236.82,32.33 237.31,32.33 237.80,29.04 238.28,29.04 238.77,29.04 239.26,26.26 239.75,26.26 240.24,37.72 240.73,36.42 241.22,36.42 241.71,36.42 242.20,36.55 242.69,36.55 243.18,36.55 243.66,36.55 244.15,43.69 244.64,43.69 245.13,43.69 245.62,43.95 246.11,43.95 246.60,43.95 247.09,44.34 247.58,44.34 248.07,44.34 248.56,46.20 249.05,46.20 249.53,51.31 250.02,54.45 250.51,54.45 251.00,54.45 251.49,54.86 251.98,54.86 252.47,54.86 252.96,54.86 253.45,48.98 253.94,48.98 254.43,48.98 254.91,52.83 255.40,52.83 255.89,52.83 256.38,53.31 256.87,53.31 257.36,52.25 257.85,52.25 258.34,52.25 258.83,52.88 259.32,52.88 259.81,37.44 260.29,44.62 260.78,44.62 261.27,44.62 261.76,44.62 262.25,42.83 262.74,42.83 263.23,42.83 263.72,39.25 264.21,39.25 264.70,47.50 265.19,47.50 265.68,42.08 266.16,42.08 266.65,42.08 267.14,37.63 267.63,45.78 268.12,45.78 268.61,45.78 269.10,41.33 269.59,41.33 270.08,48.56 270.57,45.64 271.06,45.64 271.54,45.64 272.03,52.60 272.52,47.43 273.01,47.43 273.50,47.43 273.99,52.72 274.48,52.72 274.97,48.13 275.46,52.79 275.95,52.79 276.44,52.79 276.92,53.54 277.41,50.25 277.90,50.25 278.39,48.13 278.88,43.82 279.37,43.82 279.86,43.82 280.35,40.46 280.84,40.46 281.33,38.87 281.82,38.87 282.30,38.87 282.79,38.62 283.28,38.62 283.77,38.62 284.26,35.02 284.75,28.32 285.24,29.48 285.73,29.48 286.22,29.48 286.71,29.48 287.20,29.12 287.69,29.12 288.17,33.76 288.66,31.20 289.15,31.20 289.64,31.20 290.13,31.20 290.62,29.19 291.11,29.19 291.60,29.19 292.09,32.26 292.58,21.89 293.07,21.89 293.55,21.89 294.04,21.45 294.53,21.45 295.02,16.91 295.51,16.76 296.00,16.76" />
</svg>