<svg width="300" height="60" xmlns="http://www.w3.org/2000/svg">
  <polyline fill="rgba(255,200,0,0.3)" stroke="#ffbb00" stroke-width="2" points="4.00,55.73 4.15,55.95 4.31,55.94 4.46,55.78 4.62,55.49 4.77,54.98 4.93,54.37 5.08,53.76 5.24,53.08 5.39,52.53 5.55,52.13 5.70,51.96 5.86,52.02 6.01,52.10 6.17,52.19 6.32,52.25 6.48,52.35 6.63,52.53 6.79,52.72 6.94,52.84 7.10,52.91 7.25,52.04 7.41,51.28 7.56,50.95 7.72,51.04 7.87,50.95 8.03,51.03 8.18,51.31 8.34,51.67 8.49,51.53 8.64,50.95 8.80,50.43 8.95,49.85 9.11,49.67 9.26,50.03 9.42,50.87 9.57,50.66 9.73,50.21 9.88,49.84 10.04,48.90 10.19,48.70 10.35,48.38 10.50,48.10 10.66,47.86 10.81,47.51 10.97,47.09 11.12,46.60 11.28,45.64 11.43,44.89 11.59,44.20 11.74,44.11 11.90,43.87 12.05,42.95 12.21,42.39 12.36,42.01 12.52,41.36 12.67,40.73 12.83,40.00 12.98,39.21 13.13,38.41 13.29,37.45 13.44,35.84 13.60,35.53 13.75,34.89 13.91,34.79 14.06,34.37 14.22,33.82 14.37,33.30 14.53,32.74 14.68,32.15 14.84,31.52 14.99,30.97 15.15,30.28 15.30,29.90 15.46,30.50 15.61,30.89 15.77,30.96 15.92,30.78 16.08,30.87 16.23,30.79 16.39,31.10 16.54,31.36 16.70,31.91 16.85,32.44 17.01,32.80 17.16,33.74 17.31,35.70 17.47,35.24 17.62,34.58 17.78,34.58 17.93,35.08 18.09,35.37 18.24,35.81 18.40,36.16 18.55,36.83 18.71,37.50 18.86,37.72 19.02,38.03 19.17,37.48 19.33,36.75 19.48,36.33 19.64,35.22 19.79,34.30 19.95,33.52 20.10,33.30 20.26,32.88 20.41,32.59 20.57,32.83 20.72,32.66 20.88,31.59 21.03,30.21 21.19,29.07 21.34,27.77 21.50,26.45 21.65,25.90 21.80,25.37 21.96,24.38 22.11,23.77 22.27,23.51 22.42,23.73 22.58,23.69 22.73,23.95 22.89,24.28 23.04,24.75 23.20,25.69 23.35,25.83 23.51,25.82 23.66,25.75 23.82,25.43 23.97,24.45 24.13,23.82 24.28,23.14 24.44,22.79 24.59,22.07 24.75,21.97 24.90,22.57 25.06,23.61 25.21,24.02 25.37,24.42 25.52,23.93 25.68,24.35 25.83,24.27 25.99,23.47 26.14,23.51 26.29,23.11 26.45,23.46 26.60,23.69 26.76,23.72 26.91,23.68 27.07,23.35 27.22,22.87 27.38,21.99 27.53,20.21 27.69,19.00 27.84,17.97 28.00,17.31 28.15,16.30 28.31,15.38 28.46,14.56 28.62,13.67 28.77,13.14 28.93,12.71 29.08,12.66 29.24,12.62 29.39,13.34 29.55,13.43 29.70,13.61 29.86,13.15 30.01,12.71 30.17,12.30 30.32,12.08 30.48,11.60 30.63,11.02 30.78,11.11 30.94,11.01 31.09,11.72 31.25,11.90 31.40,11.01 31.56,10.32 31.71,9.78 31.87,9.45 32.02,9.20 32.18,9.05 32.33,8.97 32.49,8.71 32.64,8.66 32.80,9.31 32.95,9.28 33.11,9.61 33.26,10.09 33.42,9.85 33.57,8.99 33.73,8.66 33.88,7.56 34.04,7.35 34.19,7.53 34.35,7.72 34.50,7.97 34.66,9.06 34.81,9.12 34.97,9.07 35.12,8.75 35.27,8.55 35.43,8.40 35.58,8.30 35.74,8.26 35.89,8.27 36.05,8.26 36.20,8.37 36.36,8.64 36.51,9.12 36.67,9.52 36.82,9.08 36.98,8.65 37.13,8.57 37.29,8.55 37.44,8.70 37.60,8.83 37.75,9.14 37.91,9.52 38.06,9.67 38.22,10.15 38.37,10.73 38.53,10.86 38.68,11.27 38.84,13.20 38.99,13.16 39.15,12.69 39.30,12.99 39.45,13.50 39.61,13.53 39.76,13.20 39.92,13.60 40.07,13.97 40.23,14.43 40.38,14.96 40.54,15.18 40.69,15.26 40.85,15.28 41.00,15.59 41.16,16.11 41.31,16.77 41.47,18.01 41.62,18.63 41.78,19.21 41.93,19.32 42.09,18.91 42.24,17.52 42.40,16.73 42.55,16.81 42.71,17.00 42.86,17.01 43.02,17.07 43.17,17.08 43.33,17.03 43.48,17.13 43.64,17.39 43.79,17.67 43.94,18.00 44.10,18.35 44.25,18.07 44.41,18.00 44.56,17.84 44.72,17.74 44.87,18.05 45.03,18.81 45.18,19.15 45.34,19.24 45.49,18.99 45.65,18.58 45.80,18.48 45.96,19.10 46.11,20.04 46.27,20.67 46.42,20.83 46.58,20.59 46.73,20.26 46.89,19.73 47.04,19.02 47.20,18.03 47.35,17.11 47.51,16.41 47.66,15.93 47.82,15.99 47.97,15.46 48.13,15.37 48.28,15.00 48.43,14.66 48.59,14.30 48.74,14.11 48.90,13.91 49.05,13.87 49.21,14.24 49.36,14.81 49.52,14.68 49.67,14.67 49.83,14.63 49.98,14.26 50.14,14.01 50.29,13.76 50.45,12.95 50.60,12.37 50.76,12.14 50.91,11.58 51.07,11.45 51.22,12.22 51.38,11.59 51.53,11.15 51.69,11.24 51.84,10.79 52.00,10.60 52.15,10.74 52.31,10.86 52.46,10.99 52.62,10.99 52.77,11.12 52.92,11.55 53.08,12.26 53.23,12.74 53.39,12.49 53.54,11.47 53.70,11.41 53.85,11.78 54.01,12.40 54.16,12.93 54.32,13.31 54.47,13.62 54.63,13.91 54.78,13.87 54.94,14.24 55.09,15.22 55.25,16.87 55.40,17.10 55.56,17.04 55.71,16.38 55.87,14.76 56.02,14.20 56.18,13.85 56.33,13.62 56.49,13.64 56.64,13.83 56.80,14.24 56.95,14.34 57.10,14.60 57.26,14.92 57.41,14.92 57.57,14.75 57.72,14.69 57.88,14.51 58.03,14.19 58.19,13.99 58.34,13.40 58.50,13.01 58.65,12.67 58.81,12.57 58.96,12.26 59.12,12.04 59.27,11.79 59.43,11.78 59.58,11.78 59.74,12.08 59.89,11.75 60.05,11.89 60.20,11.91 60.36,11.75 60.51,11.71 60.67,11.84 60.82,11.79 60.98,11.82 61.13,11.76 61.29,11.75 61.44,11.72 61.59,11.44 61.75,11.09 61.90,10.79 62.06,10.56 62.21,10.91 62.37,10.82 62.52,10.30 62.68,9.50 62.83,9.57 62.99,9.59 63.14,9.45 63.30,9.35 63.45,9.39 63.61,9.25 63.76,9.15 63.92,9.09 64.07,8.98 64.23,8.88 64.38,8.51 64.54,8.35 64.69,8.47 64.85,8.66 65.00,8.54 65.16,8.58 65.31,8.70 65.47,8.64 65.62,8.43 65.78,8.30 65.93,8.15 66.08,8.29 66.24,8.53 66.39,8.92 66.55,9.29 66.70,9.83 66.86,10.40 67.01,11.02 67.17,11.69 67.32,12.23 67.48,12.38 67.63,12.00 67.79,11.61 67.94,11.41 68.10,12.38 68.25,11.43 68.41,11.28 68.56,11.45 68.72,11.37 68.87,10.87 69.03,10.70 69.18,10.82 69.34,10.65 69.49,10.92 69.65,10.03 69.80,9.48 69.96,9.32 70.11,9.37 70.27,9.44 70.42,9.23 70.57,9.00 70.73,9.29 70.88,10.36 71.04,9.74 71.19,9.60 71.35,9.14 71.50,9.14 71.66,9.28 71.81,9.78 71.97,9.49 72.12,9.23 72.28,8.90 72.43,9.00 72.59,9.23 72.74,10.12 72.90,10.82 73.05,11.00 73.21,10.96 73.36,10.91 73.52,10.83 73.67,11.08 73.83,11.75 73.98,13.07 74.14,13.58 74.29,13.54 74.45,13.50 74.60,13.80 74.76,14.05 74.91,14.14 75.06,14.39 75.22,14.84 75.37,15.02 75.53,15.07 75.68,15.94 75.84,15.72 75.99,15.74 76.15,16.79 76.30,17.05 76.46,17.04 76.61,17.12 76.77,17.23 76.92,17.48 77.08,17.37 77.23,17.65 77.39,17.74 77.54,17.76 77.70,17.59 77.85,17.55 78.01,17.31 78.16,17.08 78.32,16.78 78.47,16.44 78.63,16.17 78.78,15.87 78.94,15.51 79.09,15.32 79.24,15.04 79.40,14.97 79.55,14.85 79.71,14.73 79.86,14.81 80.02,15.05 80.17,15.10 80.33,14.53 80.48,14.26 80.64,14.43 80.79,14.29 80.95,14.74 81.10,13.83 81.26,12.47 81.41,11.88 81.57,11.33 81.72,10.64 81.88,9.84 82.03,9.18 82.19,9.34 82.34,10.09 82.50,11.05 82.65,11.48 82.81,11.96 82.96,12.33 83.12,12.59 83.27,12.71 83.43,12.89 83.58,12.84 83.73,12.92 83.89,13.15 84.04,13.01 84.20,13.08 84.35,13.20 84.51,13.31 84.66,13.64 84.82,13.50 84.97,13.58 85.13,13.95 85.28,14.26 85.44,14.66 85.59,14.88 85.75,14.90 85.90,15.06 86.06,15.15 86.21,15.37 86.37,15.35 86.52,15.24 86.68,15.08 86.83,14.73 86.99,14.55 87.14,14.58 87.30,14.59 87.45,14.59 87.61,14.25 87.76,14.16 87.92,14.35 88.07,14.72 88.22,15.13 88.38,15.36 88.53,16.03 88.69,16.84 88.84,17.71 89.00,18.23 89.15,18.64 89.31,19.03 89.46,19.35 89.62,19.69 89.77,20.15 89.93,20.90 90.08,21.64 90.24,22.45 90.39,23.06 90.55,23.45 90.70,23.67 90.86,23.77 91.01,23.80 91.17,23.82 91.32,24.01 91.48,24.36 91.63,24.65 91.79,25.17 91.94,25.65 92.10,25.96 92.25,25.57 92.41,25.07 92.56,24.81 92.71,24.78 92.87,24.89 93.02,24.99 93.18,25.10 93.33,25.13 93.49,25.01 93.64,24.95 93.80,24.55 93.95,24.50 94.11,24.25 94.26,24.03 94.42,24.05 94.57,24.33 94.73,24.64 94.88,24.75 95.04,24.56 95.19,23.96 95.35,23.66 95.50,23.07 95.66,22.71 95.81,22.52 95.97,22.38 96.12,22.28 96.28,22.34 96.43,22.24 96.59,21.69 96.74,21.03 96.90,20.75 97.05,20.80 97.20,20.24 97.36,19.64 97.51,19.61 97.67,19.66 97.82,19.48 97.98,18.96 98.13,18.26 98.29,17.88 98.44,17.38 98.60,16.85 98.75,16.50 98.91,16.27 99.06,16.18 99.22,16.27 99.37,16.01 99.53,15.92 99.68,15.80 99.84,15.45 99.99,14.80 100.15,14.36 100.30,14.12 100.46,14.17 100.61,14.41 100.77,14.89 100.92,15.40 101.08,15.45 101.23,15.30 101.38,55.81 101.54,55.97 101.69,56.00 101.85,55.77 102.00,55.45 102.16,54.53 102.31,54.06 102.47,53.18 102.62,52.70 102.78,51.78 102.93,52.34 103.09,52.04 103.24,51.35 103.40,51.84 103.55,51.60 103.71,52.20 103.86,52.27 104.02,52.48 104.17,51.67 104.33,52.61 104.48,52.13 104.64,51.47 104.79,50.74 104.95,50.36 105.10,50.20 105.26,50.12 105.41,50.07 105.57,51.87 105.72,51.74 105.87,51.34 106.03,50.39 106.18,49.38 106.34,49.62 106.49,50.61 106.65,50.50 106.80,51.29 106.96,50.51 107.11,50.18 107.27,49.69 107.42,48.36 107.58,48.51 107.73,48.25 107.89,47.66 108.04,47.73 108.20,47.73 108.35,47.32 108.51,46.53 108.66,45.10 108.82,44.40 108.97,42.67 109.13,43.92 109.28,43.28 109.44,42.13 109.59,43.22 109.75,41.28 109.90,40.88 110.06,40.33 110.21,41.54 110.36,39.29 110.52,37.82 110.67,36.57 110.83,34.94 110.98,36.25 111.14,34.38 111.29,34.46 111.45,33.66 111.60,33.98 111.76,32.85 111.91,32.36 112.07,31.71 112.22,31.13 112.38,30.68 112.53,30.25 112.69,29.78 112.84,30.12 113.00,30.59 113.15,31.00 113.31,30.12 113.46,30.14 113.62,31.23 113.77,31.21 113.93,30.10 114.08,31.21 114.24,31.84 114.39,32.95 114.55,34.47 114.70,34.73 114.85,35.14 115.01,33.98 115.16,34.80 115.32,34.22 115.47,34.85 115.63,35.49 115.78,36.30 115.94,36.22 116.09,37.18 116.25,38.07 116.40,37.65 116.56,36.30 116.71,37.11 116.87,36.78 117.02,35.45 117.18,34.73 117.33,33.47 117.49,33.27 117.64,32.80 117.80,31.51 117.95,32.61 118.11,32.25 118.26,31.06 118.42,31.06 118.57,29.38 118.73,27.64 118.88,26.13 119.03,25.85 119.19,24.95 119.34,23.82 119.50,24.17 119.65,23.65 119.81,22.81 119.96,22.93 120.12,23.95 120.27,23.62 120.43,24.61 120.58,25.75 120.74,25.06 120.89,25.35 121.05,25.37 121.20,24.14 121.36,23.95 121.51,23.03 121.67,22.88 121.82,22.01 121.98,21.47 122.13,21.47 122.29,21.41 122.44,22.69 122.60,23.77 122.75,23.65 122.91,23.83 123.06,24.23 123.22,23.29 123.37,23.29 123.52,23.07 123.68,23.18 123.83,22.42 123.99,23.34 124.14,23.30 124.30,23.98 124.45,23.23 124.61,22.89 124.76,22.13 124.92,21.11 125.07,18.66 125.23,17.90 125.38,16.50 125.54,16.84 125.69,15.61 125.85,14.96 126.00,13.81 126.16,13.41 126.31,12.58 126.47,12.78 126.62,12.37 126.78,13.42 126.93,13.16 127.09,12.92 127.24,13.58 127.40,12.70 127.55,11.80 127.71,11.81 127.86,10.65 128.01,10.64 128.17,10.78 128.32,10.78 128.48,11.06 128.63,10.80 128.79,11.02 128.94,10.08 129.10,10.27 129.25,9.28 129.41,8.46 129.56,9.00 129.72,8.73 129.87,8.52 130.03,7.57 130.18,8.81 130.34,9.00 130.49,9.69 130.65,9.37 130.80,9.73 130.96,8.59 131.11,8.75 131.27,7.59 131.42,6.91 131.58,7.72 131.73,7.61 131.89,7.61 132.04,7.86 132.20,8.79 132.35,8.91 132.50,8.88 132.66,7.61 132.81,7.84 132.97,8.14 133.12,7.41 133.28,8.04 133.43,8.59 133.59,8.03 133.74,8.65 133.90,9.13 134.05,9.04 134.21,8.56 134.36,9.23 134.52,8.75 134.67,8.46 134.83,8.38 134.98,8.52 135.14,8.80 135.29,9.33 135.45,9.13 135.60,10.00 135.76,10.60 135.91,10.55 136.07,11.74 136.22,12.35 136.38,13.19 136.53,12.48 136.69,12.45 136.84,13.26 136.99,13.14 137.15,13.92 137.30,13.74 137.46,13.74 137.61,13.76 137.77,14.89 137.92,15.00 138.08,14.87 138.23,15.67 138.39,15.13 138.54,15.87 138.70,17.19 138.85,18.42 139.01,18.42 139.16,18.89 139.32,19.27 139.47,18.88 139.63,17.91 139.78,17.16 139.94,16.21 140.09,16.62 140.25,17.07 140.40,16.53 140.56,17.11 140.71,16.77 140.87,16.77 141.02,16.56 141.17,17.44 141.33,17.31 141.48,18.31 141.64,18.37 141.79,17.60 141.95,18.08 142.10,17.50 142.26,18.54 142.41,18.30 142.57,18.35 142.72,18.82 142.88,19.17 143.03,18.48 143.19,17.60 143.34,18.69 143.50,19.50 143.65,20.30 143.81,20.36 143.96,20.14 144.12,20.21 144.27,19.52 144.43,18.88 144.58,18.37 144.74,17.45 144.89,16.40 145.05,15.69 145.20,16.37 145.36,15.37 145.51,15.34 145.66,15.38 145.82,14.50 145.97,14.70 146.13,14.10 146.28,13.58 146.44,14.40 146.59,14.05 146.75,13.52 146.90,14.73 147.06,14.63 147.21,14.29 147.37,14.55 147.52,13.83 147.68,12.92 147.83,13.11 147.99,12.14 148.14,12.62 148.30,10.94 148.45,12.41 148.61,11.86 148.76,12.03 148.92,10.78 149.07,10.82 149.23,10.60 149.38,9.57 149.54,10.50 149.69,10.58 149.85,10.73 150.00,9.86 150.15,11.00 150.31,11.59 150.46,12.33 150.62,11.27 150.77,12.24 150.93,11.29 151.08,11.79 151.24,11.47 151.39,12.24 151.55,13.01 151.70,13.81 151.86,13.95 152.01,13.34 152.17,13.91 152.32,13.78 152.48,15.49 152.63,16.91 152.79,16.91 152.94,16.85 153.10,16.15 153.25,15.00 153.41,14.48 153.56,13.55 153.72,13.95 153.87,13.62 154.03,13.62 154.18,13.54 154.34,13.49 154.49,14.48 154.64,14.63 154.80,14.68 154.95,14.68 155.11,14.72 155.26,14.81 155.42,13.99 155.57,14.19 155.73,13.00 155.88,12.91 156.04,11.76 156.19,11.77 156.35,11.69 156.50,11.69 156.66,11.49 156.81,11.33 156.97,12.33 157.12,12.20 157.28,11.12 157.43,11.93 157.59,11.70 157.74,11.45 157.90,12.36 158.05,11.27 158.21,11.11 158.36,12.07 158.52,11.92 158.67,11.83 158.83,10.79 158.98,11.68 159.13,11.45 159.29,10.37 159.44,10.24 159.60,10.54 159.75,11.42 159.91,10.15 160.06,8.94 160.22,9.10 160.37,9.30 160.53,9.38 160.68,9.43 160.84,9.49 160.99,9.51 161.15,8.60 161.30,8.69 161.46,8.81 161.61,9.02 161.77,8.42 161.92,8.78 162.08,7.95 162.23,8.46 162.39,8.19 162.54,8.81 162.70,8.65 162.85,8.40 163.01,8.40 163.16,8.25 163.31,8.20 163.47,8.38 163.62,8.38 163.78,8.75 163.93,9.37 164.09,10.14 164.24,9.87 164.40,11.19 164.55,11.17 164.71,12.10 164.86,11.56 165.02,11.31 165.17,11.31 165.33,11.36 165.48,12.03 165.64,10.92 165.79,10.73 165.95,11.14 166.10,12.02 166.26,10.78 166.41,10.68 166.57,10.64 166.72,9.58 166.88,10.54 167.03,9.86 167.19,9.23 167.34,8.21 167.50,9.25 167.65,9.55 167.80,8.56 167.96,8.87 168.11,9.94 168.27,9.62 168.42,9.70 168.58,8.57 168.73,9.44 168.89,9.10 169.04,8.87 169.20,9.55 169.35,9.85 169.51,8.96 169.66,8.96 169.82,8.68 169.97,8.71 170.13,9.76 170.28,10.60 170.44,10.95 170.59,11.13 170.75,11.19 170.90,10.55 171.06,11.24 171.21,12.20 171.37,12.25 171.52,12.64 171.68,13.46 171.83,13.25 171.99,13.48 172.14,14.42 172.29,13.32 172.45,14.24 172.60,14.36 172.76,15.23 172.91,15.05 173.07,15.44 173.22,16.07 173.38,14.92 173.53,16.31 173.69,16.56 173.84,17.25 174.00,16.76 174.15,17.56 174.31,17.14 174.46,17.14 174.62,16.82 174.77,17.63 174.93,17.47 175.08,17.20 175.24,17.99 175.39,16.92 175.55,16.60 175.70,16.35 175.86,16.12 176.01,16.12 176.17,15.79 176.32,15.43 176.48,14.34 176.63,15.05 176.78,14.78 176.94,14.43 177.09,15.28 177.25,14.21 177.40,14.15 177.56,15.00 177.71,14.14 177.87,14.72 178.02,14.54 178.18,13.43 178.33,14.44 178.49,13.52 178.64,12.92 178.80,11.73 178.95,10.63 179.11,10.63 179.26,9.65 179.42,8.86 179.57,9.33 179.73,10.40 179.88,10.33 180.04,11.46 180.19,11.33 180.35,12.19 180.50,12.34 180.66,12.56 180.81,13.40 180.97,12.59 181.12,12.79 181.27,13.27 181.43,12.34 181.58,12.86 181.74,12.22 181.89,12.87 182.05,14.33 182.20,13.56 182.36,13.60 182.51,13.86 182.67,14.80 182.82,13.99 182.98,14.01 183.13,14.79 183.29,14.41 183.44,15.27 183.60,15.29 183.75,15.29 183.91,14.92 184.06,15.17 184.22,14.68 184.37,14.34 184.53,14.39 184.68,14.51 184.84,14.72 184.99,13.49 185.15,13.57 185.30,13.90 185.45,14.32 185.61,14.79 185.76,15.21 185.92,15.81 186.07,16.71 186.23,17.74 186.38,18.42 186.54,18.37 186.69,18.37 186.85,19.20 187.00,19.38 187.16,20.15 187.31,20.13 187.47,21.90 187.62,22.28 187.78,22.75 187.93,23.24 188.09,23.63 188.24,23.67 188.40,23.51 188.55,23.40 188.71,23.72 188.86,24.42 189.02,24.72 189.17,24.72 189.33,25.11 189.48,26.18 189.64,25.24 189.79,24.73 189.94,24.51 190.10,24.56 190.25,24.88 190.41,24.48 190.56,25.14 190.72,24.81 190.87,24.81 191.03,24.46 191.18,24.08 191.34,24.74 191.49,24.51 191.65,23.71 191.80,23.94 191.96,24.56 192.11,24.30 192.27,24.54 192.42,24.61 192.58,23.64 192.73,23.64 192.89,22.78 193.04,22.14 193.20,22.71 193.35,22.26 193.51,22.26 193.66,21.97 193.82,21.85 193.97,21.32 194.13,20.42 194.28,20.91 194.43,20.44 194.59,19.66 194.74,19.68 194.90,19.38 195.05,18.95 195.21,19.43 195.36,19.20 195.52,18.10 195.67,17.75 195.83,16.87 195.98,16.87 196.14,16.75 196.29,15.85 196.45,16.20 196.60,15.95 196.76,16.09 196.91,16.09 197.07,15.10 197.22,15.05 197.38,14.86 197.53,14.16 197.69,14.16 197.84,14.05 198.00,14.42 198.15,14.55 198.31,15.58 198.46,15.32 198.62,14.89 198.77,55.83 198.92,55.78 199.08,55.78 199.23,55.78 199.39,54.45 199.54,54.45 199.70,51.68 199.85,51.68 200.01,51.68 200.16,48.13 200.32,50.43 200.47,50.43 200.63,50.43 200.78,50.43 200.94,49.24 201.09,49.24 201.25,49.24 201.40,52.35 201.56,49.43 201.71,49.43 201.87,49.43 202.02,50.20 202.18,50.20 202.33,50.20 202.49,48.93 202.64,48.93 202.80,48.93 202.95,48.38 203.10,48.38 203.26,48.38 203.41,47.01 203.57,47.01 203.72,51.48 203.88,51.48 204.03,48.32 204.19,51.01 204.34,51.01 204.50,51.01 204.65,50.79 204.81,50.79 204.96,50.79 205.12,48.31 205.27,48.31 205.43,48.31 205.58,48.31 205.74,45.76 205.89,47.84 206.05,47.84 206.20,43.38 206.36,43.38 206.51,43.38 206.67,46.34 206.82,41.02 206.98,41.02 207.13,41.02 207.29,44.70 207.44,38.61 207.59,38.61 207.75,38.61 207.90,42.94 208.06,35.73 208.21,35.73 208.37,35.73 208.52,35.73 208.68,33.45 208.83,33.45 208.99,33.45 209.14,29.63 209.30,29.63 209.45,29.63 209.61,29.06 209.76,29.06 209.92,29.06 210.07,29.06 210.23,29.82 210.38,29.82 210.54,27.66 210.69,27.66 210.85,30.18 211.00,30.18 211.16,27.36 211.31,27.36 211.47,30.64 211.62,30.64 211.78,30.64 211.93,33.74 212.08,33.74 212.24,33.74 212.39,30.79 212.55,30.79 212.70,33.01 212.86,33.01 213.01,33.01 213.17,35.25 213.32,35.25 213.48,35.25 213.63,37.95 213.79,34.34 213.94,34.34 214.10,34.34 214.25,36.66 214.41,32.87 214.56,32.87 214.72,32.87 214.87,29.12 215.03,31.61 215.18,31.61 215.34,31.61 215.49,28.13 215.65,29.69 215.80,29.69 215.96,29.69 216.11,26.75 216.27,25.34 216.42,25.34 216.57,25.34 216.73,22.07 216.88,22.41 217.04,22.41 217.19,22.41 217.35,20.03 217.50,23.25 217.66,23.25 217.81,23.25 217.97,21.71 218.12,21.71 218.28,25.31 218.43,22.14 218.59,22.14 218.74,22.14 218.90,18.79 219.05,21.71 219.21,21.71 219.36,18.37 219.52,18.37 219.67,18.37 219.83,21.58 219.98,21.58 220.14,21.58 220.29,21.69 220.45,21.69 220.60,21.69 220.76,21.69 220.91,22.03 221.06,22.03 221.22,22.03 221.37,23.37 221.53,20.11 221.68,20.11 221.84,21.74 221.99,21.74 222.15,21.74 222.30,21.74 222.46,16.19 222.61,16.19 222.77,16.19 222.92,15.90 223.08,15.90 223.23,12.57 223.39,12.57 223.54,12.57 223.70,10.02 223.85,12.51 224.01,12.51 224.16,11.60 224.32,11.60 224.47,10.31 224.63,10.31 224.78,10.31 224.94,7.44 225.09,10.60 225.24,10.60 225.40,7.67 225.55,7.67 225.71,7.67 225.86,10.93 226.02,8.07 226.17,8.07 226.33,8.91 226.48,8.91 226.64,8.91 226.79,5.23 226.95,6.92 227.10,6.92 227.26,6.92 227.41,4.00 227.57,7.04 227.72,7.04 227.88,7.04 228.03,9.25 228.19,9.25 228.34,5.44 228.50,5.44 228.65,6.49 228.81,6.49 228.96,6.49 229.12,5.53 229.27,5.53 229.43,5.53 229.58,5.53 229.73,7.49 229.89,7.49 230.04,7.49 230.20,7.83 230.35,7.83 230.51,4.04 230.66,5.51 230.82,5.51 230.97,5.51 231.13,7.27 231.28,7.27 231.44,7.27 231.59,7.32 231.75,7.32 231.90,7.32 232.06,7.32 232.21,6.80 232.37,6.80 232.52,6.80 232.68,8.06 232.83,8.06 232.99,8.06 233.14,10.53 233.30,10.83 233.45,10.83 233.61,10.83 233.76,9.56 233.92,9.56 234.07,12.28 234.22,12.28 234.38,9.27 234.53,11.94 234.69,11.94 234.84,11.94 235.00,11.94 235.15,14.80 235.31,12.48 235.46,12.48 235.62,15.35 235.77,15.35 235.93,15.56 236.08,15.56 236.24,18.28 236.39,18.28 236.55,18.79 236.70,18.79 236.86,18.79 237.01,17.86 237.17,17.86 237.32,14.93 237.48,14.61 237.63,14.61 237.79,14.61 237.94,16.18 238.10,16.18 238.25,16.18 238.41,13.27 238.56,15.59 238.71,15.59 238.87,15.59 239.02,18.44 239.18,16.52 239.33,16.52 239.49,16.52 239.64,15.05 239.80,15.05 239.95,18.00 240.11,18.00 240.26,18.00 240.42,16.98 240.57,16.98 240.73,16.98 240.88,16.98 241.04,19.71 241.19,19.71 241.35,19.71 241.50,19.18 241.66,19.18 241.81,19.18 241.97,17.61 242.12,17.61 242.28,15.09 242.43,15.09 242.59,15.64 242.74,15.64 242.90,13.36 243.05,13.36 243.20,13.36 243.36,13.75 243.51,13.75 243.67,13.75 243.82,12.58 243.98,12.58 244.13,11.79 244.29,11.79 244.44,11.79 244.60,10.33 244.75,13.77 244.91,13.77 245.06,11.03 245.22,11.03 245.37,11.03 245.53,8.45 245.68,8.45 245.84,12.33 245.99,9.89 246.15,9.89 246.30,9.89 246.46,6.91 246.61,9.66 246.77,9.66 246.92,9.66 247.08,6.83 247.23,9.94 247.38,9.94 247.54,9.94 247.69,7.42 247.85,10.99 248.00,10.99 248.16,10.99 248.31,7.68 248.47,9.91 248.62,9.91 248.78,9.91 248.93,12.29 249.09,12.29 249.24,12.29 249.40,10.67 249.55,14.06 249.71,14.06 249.86,14.73 250.02,14.73 250.17,14.73 250.33,16.22 250.48,16.22 250.64,16.22 250.79,14.90 250.95,11.72 251.10,11.72 251.26,12.77 251.41,12.77 251.57,12.77 251.72,9.85 251.87,12.57 252.03,12.57 252.18,12.57 252.34,12.57 252.49,12.75 252.65,12.75 252.80,12.75 252.96,9.69 253.11,9.69 253.27,12.94 253.42,9.66 253.58,9.66 253.73,9.66 253.89,9.66 254.04,9.36 254.20,9.36 254.35,9.36 254.51,12.16 254.66,8.95 254.82,8.95 254.97,8.95 255.13,11.45 255.28,11.45 255.44,8.21 255.59,8.21 255.75,10.98 255.90,10.98 256.06,7.88 256.21,7.88 256.36,10.60 256.52,10.60 256.67,7.55 256.83,7.55 256.98,10.29 257.14,10.29 257.29,7.00 257.45,7.00 257.60,7.96 257.76,7.96 257.91,7.96 258.07,8.36 258.22,8.36 258.38,8.36 258.53,8.61 258.69,8.61 258.84,8.61 259.00,9.06 259.15,6.40 259.31,6.40 259.46,6.40 259.62,7.68 259.77,7.68 259.93,7.68 260.08,6.89 260.24,6.89 260.39,6.89 260.55,6.89 260.70,6.87 260.85,6.87 261.01,6.87 261.16,6.87 261.32,8.70 261.47,8.70 261.63,8.70 261.78,8.12 261.94,8.12 262.09,11.77 262.25,9.47 262.40,9.47 262.56,9.47 262.71,9.47 262.87,9.91 263.02,9.91 263.18,9.91 263.33,7.08 263.49,9.82 263.64,9.82 263.80,9.82 263.95,6.80 264.11,6.80 264.26,9.18 264.42,9.18 264.57,5.75 264.73,5.75 264.88,8.44 265.03,8.44 265.19,5.92 265.34,5.92 265.50,9.83 265.65,7.51 265.81,7.51 265.96,7.51 266.12,7.51 266.27,6.87 266.43,6.87 266.58,6.87 266.74,8.64 266.89,8.64 267.05,8.64 267.20,5.21 267.36,7.76 267.51,7.76 267.67,7.76 267.82,9.66 267.98,9.66 268.13,9.66 268.29,10.83 268.44,10.83 268.60,10.83 268.75,8.64 268.91,11.56 269.06,11.56 269.22,11.56 269.37,11.47 269.52,11.47 269.68,11.47 269.83,11.47 269.99,14.29 270.14,14.29 270.30,11.24 270.45,14.18 270.61,14.18 270.76,14.18 270.92,14.18 271.07,14.17 271.23,14.17 271.38,14.17 271.54,16.39 271.69,16.39 271.85,16.39 272.00,13.12 272.16,15.53 272.31,15.53 272.47,15.53 272.62,17.93 272.78,14.80 272.93,14.80 273.09,14.80 273.24,14.02 273.40,14.02 273.55,14.02 273.71,14.02 273.86,10.70 274.01,12.83 274.17,12.83 274.32,12.83 274.48,15.34 274.63,12.04 274.79,12.04 274.94,12.04 275.10,14.24 275.25,14.24 275.41,10.89 275.56,10.89 275.72,12.82 275.87,12.82 276.03,12.82 276.18,9.64 276.34,9.64 276.49,9.64 276.65,9.64 276.80,7.53 276.96,7.53 277.11,7.53 277.27,10.03 277.42,10.03 277.58,10.03 277.73,10.03 277.89,10.70 278.04,10.70 278.20,10.70 278.35,10.70 278.50,11.32 278.66,11.32 278.81,11.32 278.97,8.95 279.12,8.95 279.28,12.82 279.43,12.82 279.59,10.27 279.74,10.27 279.90,13.71 280.05,13.71 280.21,10.55 280.36,10.55 280.52,13.50 280.67,13.50 280.83,13.50 280.98,12.69 281.14,12.69 281.29,12.69 281.45,12.69 281.60,13.62 281.76,13.62 281.91,13.62 282.07,13.43 282.22,13.43 282.38,13.43 282.53,13.70 282.69,13.70 282.84,13.70 282.99,14.77 283.15,14.77 283.30,14.77 283.46,16.73 283.61,16.73 283.77,14.55 283.92,17.42 284.08,17.42 284.23,17.42 284.39,17.42 284.54,20.27 284.70,20.27 284.85,20.27 285.01,19.72 285.16,19.72 285.32,21.80 285.47,21.80 285.63,21.80 285.78,22.16 285.94,22.16 286.09,22.16 286.25,23.64 286.40,23.64 286.56,23.64 286.71,21.10 286.87,23.68 287.02,23.68 287.17,23.68 287.33,23.39 287.48,23.39 287.64,23.39 287.79,24.43 287.95,24.43 288.10,21.34 288.26,21.34 288.41,23.36 288.57,23.36 288.72,23.36 288.88,23.02 289.03,23.02 289.19,23.02 289.34,21.33 289.50,21.33 289.65,24.19 289.81,24.19 289.96,21.71 290.12,21.71 290.27,21.75 290.43,21.75 290.58,21.75 290.74,20.25 290.89,20.25 291.05,20.25 291.20,20.25 291.36,19.84 291.51,19.84 291.66,19.84 291.82,17.75 291.97,17.75 292.13,17.75 292.28,15.46 292.44,15.46 292.59,19.13 292.75,16.03 292.90,16.03 293.06,16.03 293.21,14.36 293.37,14.36 293.52,14.36 293.68,14.36 293.83,15.34 293.99,15.34 294.14,15.34 294.30,16.03 294.45,13.27 294.61,13.27 294.76,13.59 294.92,13.59 295.07,13.59 295.23,13.59 295.38,14.39 295.54,14.39 295.69,14.39 295.85,12.94 296.00,12.94" />
</svg>