<svg width="300" height="60" xmlns="http://www.w3.org/2000/svg">
  <polyline fill="rgba(255,200,0,0.3)" stroke="#ffbb00" stroke-width="2" points="4.00,7.51 5.84,5.86 7.67,8.05 9.51,10.54 11.35,11.79 13.18,13.36 15.02,16.06 16.86,20.08 18.69,22.21 20.53,25.37 22.36,30.51 24.20,33.89 26.04,36.52 27.87,39.09 29.71,41.27 31.55,43.22 33.38,44.94 35.22,46.39 37.06,46.86 38.89,47.46 40.73,50.52 42.57,53.94 44.40,52.13 46.24,52.83 48.08,53.35 49.91,53.65 51.75,53.87 53.58,53.94 55.42,54.22 57.26,54.76 59.09,54.67 60.93,54.59 62.77,54.56 64.60,53.49 66.44,51.12 68.28,51.87 70.11,52.72 71.95,55.09 73.79,54.90 75.62,55.48 77.46,8.02 79.30,5.66 81.13,4.00 82.97,9.54 84.81,9.11 86.64,8.23 88.48,14.26 90.31,16.09 92.15,21.78 93.99,22.79 95.82,25.53 97.66,32.64 99.50,37.35 101.33,39.46 103.17,41.77 105.01,43.24 106.84,44.91 108.68,46.58 110.52,47.13 112.35,48.14 114.19,55.00 116.03,55.06 117.86,52.56 119.70,53.10 121.53,53.75 123.37,53.82 125.21,54.27 127.04,54.38 128.88,54.38 130.72,54.97 132.55,54.85 134.39,55.15 136.23,54.24 138.06,53.92 139.90,51.42 141.74,52.30 143.57,52.90 145.41,56.00 147.25,55.85 149.08,55.17 150.92,8.34 152.75,6.44 154.59,6.83 156.43,9.24 158.26,15.12 160.10,11.40 161.94,15.81 163.77,19.78 165.61,23.34 167.45,26.14 169.28,29.03 171.12,34.23 172.96,36.39 174.79,38.70 176.63,40.71 178.47,42.67 180.30,44.43 182.14,46.93 183.97,47.72 185.81,49.68 187.65,51.89 189.48,49.19 191.32,52.72 193.16,51.87 194.99,53.44 196.83,52.90 198.67,53.78 200.50,53.13 202.34,53.13 204.18,52.14 206.01,53.42 207.85,54.50 209.69,53.08 211.52,53.81 213.36,51.51 215.19,52.05 217.03,52.05 218.87,53.17 220.70,54.29 222.54,54.78 224.38,8.15 226.21,8.15 228.05,11.98 229.89,11.98 231.72,17.36 233.56,17.36 235.40,17.36 237.23,22.41 239.07,22.41 240.91,22.41 242.74,27.56 244.58,27.56 246.42,34.58 248.25,34.58 250.09,34.58 251.92,42.52 253.76,42.52 255.60,49.64 257.43,49.64 259.27,49.64 261.11,44.68 262.94,44.68 264.78,44.68 266.62,50.86 268.45,50.86 270.29,40.80 272.13,49.73 273.96,49.73 275.80,49.73 277.64,49.73 279.47,53.07 281.31,53.07 283.14,41.27 284.98,46.57 286.82,46.57 288.65,46.57 290.49,46.57 292.33,47.65 294.16,47.65 296.00,47.65" />
</svg>