<svg width="300" height="60" xmlns="http://www.w3.org/2000/svg">
  <polyline fill="rgba(255,200,0,0.3)" stroke="#ffbb00" stroke-width="2" points="4.00,23.60 4.92,24.28 5.84,24.98 6.75,25.79 7.67,26.23 8.59,26.86 9.51,27.25 10.43,28.31 11.35,28.84 12.26,29.29 13.18,30.14 14.10,30.86 15.02,31.44 15.94,32.11 16.86,32.67 17.77,33.45 18.69,34.09 19.61,34.79 20.53,35.50 21.45,36.03 22.36,36.29 23.28,36.53 24.20,36.67 25.12,36.99 26.04,37.58 26.96,38.62 27.87,39.79 28.79,40.81 29.71,41.26 30.63,41.95 31.55,42.46 32.47,42.95 33.38,43.68 34.30,44.08 35.22,45.00 36.14,46.27 37.06,47.80 37.97,49.29 38.89,50.14 39.81,50.24 40.73,50.37 41.65,50.97 42.57,51.59 43.48,52.33 44.40,53.11 45.32,54.04 46.24,54.38 47.16,4.03 48.08,4.71 48.99,5.52 49.91,6.32 50.83,7.17 51.75,7.85 52.67,8.37 53.58,9.07 54.50,9.84 55.42,10.49 56.34,11.23 57.26,11.78 58.18,12.18 59.09,12.48 60.01,13.26 60.93,14.04 61.85,14.93 62.77,15.55 63.69,16.43 64.60,17.00 65.52,17.52 66.44,17.95 67.36,18.48 68.28,19.39 69.19,19.42 70.11,20.16 71.03,20.52 71.95,21.40 72.87,22.28 73.79,22.88 74.70,23.61 75.62,54.04 76.54,54.38 77.46,54.60 78.38,55.16 79.30,4.00 80.21,4.46 81.13,5.27 82.05,6.46 82.97,6.74 83.89,7.72 84.81,8.25 85.72,8.91 86.64,9.99 87.56,10.48 88.48,11.32 89.40,11.67 90.31,12.22 91.23,12.32 92.15,13.12 93.07,13.94 93.99,14.87 94.91,15.34 95.82,16.42 96.74,16.99 97.66,17.54 98.58,17.80 99.50,18.38 100.42,19.25 101.33,19.42 102.25,20.02 103.17,20.30 104.09,21.02 105.01,22.13 105.92,22.41 106.84,23.06 107.76,24.27 108.68,25.10 109.60,25.64 110.52,26.05 111.43,26.83 112.35,26.84 113.27,27.84 114.19,28.83 115.11,29.45 116.03,30.02 116.94,30.71 117.86,31.43 118.78,32.16 119.70,32.56 120.62,33.40 121.53,34.07 122.45,34.61 123.37,35.43 124.29,36.08 125.21,36.31 126.13,36.97 127.04,36.63 127.96,36.83 128.88,37.67 129.80,38.51 130.72,39.56 131.64,40.82 132.55,41.29 133.47,42.01 134.39,42.45 135.31,43.07 136.23,43.97 137.14,44.44 138.06,45.51 138.98,46.27 139.90,48.19 140.82,49.35 141.74,50.22 142.65,50.29 143.57,50.35 144.49,50.98 145.41,51.74 146.33,52.43 147.25,53.56 148.16,54.18 149.08,54.40 150.00,54.78 150.92,55.36 151.84,4.35 152.75,4.56 153.67,6.44 154.59,6.40 155.51,7.94 156.43,7.59 157.35,8.76 158.26,9.74 159.18,11.61 160.10,10.42 161.02,10.76 161.94,11.98 162.86,13.04 163.77,13.40 164.69,13.15 165.61,13.68 166.53,14.60 167.45,16.02 168.36,16.89 169.28,17.22 170.20,17.43 171.12,18.19 172.04,18.60 172.96,18.56 173.87,19.97 174.79,20.12 175.71,19.79 176.63,21.79 177.55,22.15 178.47,22.52 179.38,23.14 180.30,24.66 181.22,25.16 182.14,25.55 183.06,26.54 183.97,26.97 184.89,27.78 185.81,29.29 186.73,29.31 187.65,30.13 188.57,30.33 189.48,30.62 190.40,31.62 191.32,32.10 192.24,32.69 193.16,34.65 194.08,34.63 194.99,35.04 195.91,36.38 196.83,36.20 197.75,35.50 198.67,35.59 199.58,35.91 200.50,36.32 201.42,37.84 202.34,38.10 203.26,39.12 204.18,41.65 205.09,41.60 206.01,42.08 206.93,42.87 207.85,42.82 208.77,43.59 209.69,44.17 210.60,45.49 211.52,45.68 212.44,47.97 213.36,48.80 214.28,50.47 215.19,50.64 216.11,50.91 217.03,51.25 217.95,51.65 218.87,51.65 219.79,52.66 220.70,53.83 221.62,54.73 222.54,54.49 223.46,55.32 224.38,5.78 225.30,5.78 226.21,6.36 227.13,6.36 228.05,10.08 228.97,9.73 229.89,9.73 230.81,9.73 231.72,13.34 232.64,11.48 233.56,11.48 234.48,11.48 235.40,15.79 236.31,15.79 237.23,16.43 238.15,16.43 239.07,16.43 239.99,18.38 240.91,18.38 241.82,19.35 242.74,19.35 243.66,19.35 244.58,19.55 245.50,19.55 246.42,19.55 247.33,24.33 248.25,24.55 249.17,24.55 250.09,24.55 251.01,24.55 251.92,26.18 252.84,26.18 253.76,27.61 254.68,27.61 255.60,27.61 256.52,32.88 257.43,32.88 258.35,32.88 259.27,31.52 260.19,31.52 261.11,32.99 262.03,32.99 262.94,34.73 263.86,34.73 264.78,36.67 265.70,36.67 266.62,36.78 267.53,36.78 268.45,36.78 269.37,37.59 270.29,35.65 271.21,35.65 272.13,38.57 273.04,38.57 273.96,38.59 274.88,40.72 275.80,40.72 276.72,43.84 277.64,43.84 278.55,43.84 279.47,43.84 280.39,43.68 281.31,47.25 282.23,47.25 283.14,46.72 284.06,46.72 284.98,49.65 285.90,49.65 286.82,49.65 287.74,53.48 288.65,53.48 289.57,55.02 290.49,52.66 291.41,52.66 292.33,52.66 293.25,56.00 294.16,55.34 295.08,55.34 296.00,55.34" />
</svg>