<svg width="300" height="60" xmlns="http://www.w3.org/2000/svg">
  <polyline fill="rgba(255,200,0,0.3)" stroke="#ffbb00" stroke-width="2" points="4.00,11.71 4.73,14.52 5.47,15.52 6.20,16.02 6.93,15.81 7.67,12.11 8.40,9.67 9.14,8.54 9.87,8.62 10.60,9.60 11.34,10.33 12.07,11.32 12.80,12.22 13.54,13.89 14.27,15.02 15.01,15.67 15.74,15.98 16.47,16.97 17.21,17.67 17.94,18.68 18.67,19.91 19.41,20.85 20.14,21.42 20.87,20.78 21.61,21.26 22.34,21.24 23.08,21.91 23.81,22.47 24.54,23.51 25.28,24.90 26.01,26.23 26.74,25.67 27.48,25.26 28.21,24.00 28.94,25.50 29.68,24.37 30.41,18.28 31.15,14.95 31.88,13.88 32.61,13.94 33.35,14.18 34.08,16.13 34.81,19.49 35.55,22.11 36.28,20.83 37.02,19.61 37.75,18.50 38.48,18.33 39.22,19.46 39.95,21.60 40.68,24.03 41.42,25.04 42.15,25.43 42.88,25.21 43.62,26.01 44.35,26.46 45.09,25.87 45.82,26.55 46.55,26.17 47.29,25.24 48.02,23.96 48.75,23.75 49.49,24.58 50.22,28.16 50.95,33.86 51.69,36.56 52.42,39.85 53.16,43.45 53.89,45.54 54.62,45.46 55.36,42.19 56.09,38.74 56.82,36.70 57.56,38.05 58.29,39.55 59.03,40.66 59.76,36.89 60.49,34.08 61.23,35.21 61.96,35.02 62.69,34.53 63.43,33.53 64.16,33.39 64.89,37.15 65.63,40.08 66.36,41.77 67.10,42.99 67.83,44.07 68.56,44.29 69.30,44.87 70.03,45.82 70.76,47.66 71.50,49.49 72.23,45.27 72.96,39.77 73.70,35.90 74.43,36.45 75.17,38.85 75.90,38.85 76.63,39.42 77.37,39.77 78.10,41.27 78.83,43.53 79.57,43.19 80.30,42.47 81.04,41.83 81.77,42.08 82.50,41.72 83.24,40.14 83.97,38.22 84.70,37.73 85.44,39.47 86.17,39.09 86.90,43.31 87.64,45.10 88.37,46.30 89.11,39.30 89.84,33.87 90.57,31.50 91.31,29.99 92.04,29.60 92.77,29.12 93.51,26.20 94.24,24.37 94.97,22.10 95.71,22.15 96.44,21.50 97.18,19.78 97.91,18.30 98.64,16.85 99.38,16.35 100.11,16.51 100.84,17.27 101.58,13.49 102.31,14.28 103.05,15.30 103.78,16.45 104.51,15.58 105.25,11.31 105.98,9.86 106.71,8.76 107.45,8.40 108.18,8.60 108.91,9.25 109.65,10.20 110.38,11.53 111.12,13.03 111.85,14.52 112.58,18.25 113.32,15.49 114.05,16.41 114.78,17.73 115.52,21.13 116.25,18.32 116.98,18.17 117.72,21.49 118.45,21.41 119.19,21.54 119.92,19.06 120.65,22.46 121.39,24.10 122.12,23.48 122.85,25.11 123.59,28.59 124.32,27.00 125.06,24.22 125.79,22.79 126.52,24.96 127.26,22.48 127.99,16.40 128.72,17.04 129.46,11.64 130.19,12.77 130.92,15.53 131.66,17.59 132.39,19.86 133.13,20.09 133.86,18.28 134.59,21.40 135.33,19.94 136.06,19.76 136.79,21.09 137.53,23.49 138.26,23.28 138.99,27.47 139.73,27.83 140.46,23.39 141.20,22.44 141.93,25.94 142.66,24.85 143.40,24.40 144.13,27.67 144.86,26.19 145.60,23.97 146.33,24.02 147.07,24.27 147.80,29.21 148.53,34.81 149.27,39.46 150.00,43.81 150.73,47.95 151.47,43.88 152.20,44.55 152.93,40.84 153.67,37.37 154.40,34.63 155.14,39.21 155.87,37.60 156.60,40.18 157.34,36.22 158.07,33.28 158.80,35.43 159.54,37.24 160.27,34.13 161.01,35.05 161.74,34.30 162.47,36.58 163.21,42.28 163.94,40.75 164.67,46.11 165.41,43.32 166.14,41.43 166.87,46.33 167.61,45.59 168.34,45.57 169.08,49.53 169.81,46.03 170.54,41.79 171.28,39.43 172.01,34.09 172.74,36.50 173.48,40.05 174.21,38.87 174.94,43.42 175.68,42.55 176.41,46.13 177.15,41.15 177.88,44.32 178.61,42.27 179.35,45.41 180.08,42.86 180.81,39.33 181.55,42.14 182.28,36.06 183.02,39.66 183.75,37.52 184.48,41.41 185.22,45.73 185.95,41.79 186.68,36.01 187.42,30.67 188.15,28.32 188.88,32.20 189.62,31.46 190.35,26.09 191.09,23.66 191.82,21.38 192.55,21.38 193.29,20.46 194.02,20.77 194.75,16.27 195.49,16.94 196.22,13.56 196.95,16.17 197.69,15.02 198.42,15.02 199.16,15.57 199.89,15.57 200.62,11.66 201.36,11.66 202.09,11.66 202.82,8.90 203.56,8.90 204.29,8.90 205.03,8.95 205.76,8.95 206.49,11.81 207.23,11.81 207.96,11.81 208.69,16.28 209.43,16.28 210.16,21.98 210.89,17.15 211.63,17.15 212.36,17.15 213.10,23.64 213.83,17.92 214.56,17.92 215.30,17.92 216.03,25.57 216.76,21.99 217.50,21.99 218.23,21.99 218.96,30.78 219.70,32.11 220.43,32.11 221.17,32.11 221.90,26.16 222.63,26.16 223.37,21.54 224.10,16.76 224.83,16.76 225.57,16.76 226.30,16.76 227.04,4.00 227.77,4.00 228.50,8.68 229.24,8.68 229.97,8.68 230.70,8.50 231.44,8.50 232.17,21.76 232.90,20.77 233.64,20.77 234.37,27.59 235.11,27.59 235.84,16.63 236.57,27.36 237.31,27.36 238.04,27.36 238.77,16.37 239.51,25.44 240.24,25.44 240.97,25.44 241.71,34.85 242.44,25.83 243.18,25.83 243.91,25.83 244.64,25.83 245.38,38.89 246.11,38.89 246.84,38.89 247.58,52.00 248.31,52.00 249.05,52.00 249.78,44.13 250.51,44.13 251.25,44.13 251.98,34.98 252.71,40.95 253.45,40.95 254.18,34.51 254.91,34.51 255.65,34.25 256.38,34.25 257.12,34.25 257.85,38.39 258.58,38.39 259.32,38.39 260.05,51.91 260.78,51.91 261.52,47.57 262.25,47.57 262.98,43.22 263.72,43.22 264.45,56.00 265.19,53.14 265.92,53.14 266.65,53.14 267.39,45.04 268.12,45.04 268.85,45.04 269.59,49.84 270.32,49.84 271.06,49.84 271.79,46.03 272.52,46.03 273.26,46.03 273.99,46.93 274.72,46.93 275.46,46.93 276.19,41.46 276.92,45.04 277.66,45.04 278.39,45.04 279.13,40.22 279.86,40.91 280.59,40.91 281.33,40.91 282.06,42.65 282.79,42.65 283.53,31.48 284.26,31.48 284.99,31.48 285.73,16.15 286.46,16.15 287.20,25.66 287.93,25.66 288.66,9.40 289.40,9.40 290.13,9.40 290.86,21.11 291.60,8.46 292.33,8.46 293.07,8.46 293.80,4.86 294.53,16.41 295.27,16.41 296.00,21.22" />
</svg>