<svg width="300" height="60" xmlns="http://www.w3.org/2000/svg">
  <polyline fill="rgba(255,200,0,0.3)" stroke="#ffbb00" stroke-width="2" points="4.00,50.93 4.33,50.92 4.66,51.70 4.98,52.69 5.31,53.29 5.64,55.05 5.97,55.74 6.30,55.37 6.62,53.82 6.95,53.77 7.28,53.64 7.61,53.37 7.94,53.25 8.27,53.13 8.59,53.05 8.92,52.71 9.25,52.57 9.58,52.36 9.91,51.78 10.23,51.24 10.56,50.81 10.89,50.83 11.22,50.57 11.55,50.96 11.87,51.06 12.20,50.92 12.53,50.56 12.86,50.53 13.19,50.14 13.51,50.52 13.84,51.29 14.17,51.16 14.50,51.31 14.83,51.24 15.16,51.17 15.48,51.09 15.81,50.75 16.14,50.42 16.47,50.39 16.80,50.15 17.12,50.09 17.45,49.94 17.78,49.65 18.11,49.20 18.44,49.02 18.76,46.93 19.09,28.77 19.42,26.87 19.75,23.62 20.08,22.21 20.40,20.42 20.73,19.62 21.06,18.73 21.39,20.14 21.72,20.42 22.04,19.77 22.37,18.64 22.70,17.62 23.03,16.82 23.36,18.65 23.69,21.61 24.01,22.62 24.34,22.59 24.67,22.53 25.00,24.15 25.33,26.19 25.65,23.68 25.98,21.75 26.31,21.10 26.64,20.09 26.97,19.09 27.29,18.21 27.62,17.40 27.95,16.25 28.28,15.01 28.61,13.89 28.93,13.07 29.26,12.27 29.59,11.66 29.92,11.24 30.25,10.35 30.58,10.26 30.90,10.00 31.23,8.99 31.56,8.90 31.89,8.91 32.22,9.41 32.54,9.56 32.87,9.80 33.20,10.04 33.53,10.50 33.86,10.31 34.18,10.41 34.51,10.28 34.84,8.97 35.17,7.33 35.50,5.46 35.82,4.91 36.15,4.48 36.48,4.20 36.81,4.00 37.14,38.55 37.47,38.43 37.79,38.52 38.12,38.16 38.45,38.04 38.78,37.68 39.11,37.41 39.43,37.12 39.76,35.63 40.09,35.52 40.42,33.27 40.75,32.76 41.07,33.88 41.40,33.16 41.73,34.03 42.06,33.79 42.39,33.45 42.71,33.13 43.04,32.88 43.37,32.38 43.70,31.89 44.03,31.35 44.36,30.34 44.68,29.60 45.01,28.97 45.34,28.34 45.67,27.62 46.00,26.85 46.32,26.25 46.65,26.02 46.98,26.22 47.31,28.27 47.64,26.80 47.96,25.89 48.29,23.74 48.62,23.67 48.95,24.80 49.28,24.20 49.60,25.50 49.93,25.87 50.26,25.96 50.59,25.51 50.92,24.87 51.24,24.61 51.57,25.20 51.90,26.49 52.23,27.51 52.56,28.10 52.89,28.94 53.21,29.64 53.54,29.56 53.87,29.44 54.20,29.34 54.53,29.36 54.85,29.39 55.18,29.37 55.51,30.79 55.84,29.42 56.17,29.80 56.49,29.18 56.82,28.80 57.15,28.26 57.48,27.84 57.81,27.80 58.13,27.51 58.46,27.99 58.79,27.57 59.12,28.54 59.45,27.69 59.78,26.48 60.10,26.08 60.43,25.68 60.76,26.35 61.09,25.59 61.42,26.47 61.74,27.83 62.07,29.13 62.40,26.72 62.73,23.11 63.06,22.24 63.38,20.60 63.71,18.51 64.04,18.68 64.37,20.11 64.70,20.37 65.02,19.43 65.35,18.65 65.68,17.52 66.01,16.80 66.34,18.03 66.67,19.85 66.99,22.73 67.32,22.60 67.65,22.60 67.98,25.07 68.31,25.68 68.63,23.66 68.96,21.81 69.29,20.39 69.62,19.67 69.95,18.82 70.27,17.97 70.60,17.33 70.93,16.13 71.26,14.86 71.59,13.85 71.91,13.14 72.24,12.23 72.57,11.71 72.90,11.40 73.23,10.40 73.56,10.14 73.88,9.95 74.21,8.95 74.54,9.10 74.87,9.01 75.20,9.47 75.52,9.79 75.85,9.90 76.18,10.14 76.51,10.49 76.84,10.62 77.16,10.53 77.49,10.46 77.82,9.01 78.15,6.70 78.48,5.36 78.80,5.03 79.13,4.59 79.46,4.29 79.79,4.11 80.12,50.99 80.44,50.91 80.77,51.76 81.10,52.78 81.43,53.47 81.76,54.53 82.09,56.00 82.41,55.09 82.74,53.66 83.07,53.74 83.40,53.67 83.73,53.39 84.05,53.27 84.38,53.15 84.71,53.10 85.04,52.99 85.37,52.57 85.69,52.49 86.02,51.88 86.35,51.62 86.68,51.01 87.01,50.80 87.33,50.81 87.66,51.20 87.99,51.09 88.32,50.99 88.65,50.83 88.98,50.93 89.30,50.42 89.63,50.72 89.96,51.41 90.29,51.27 90.62,51.33 90.94,51.33 91.27,51.29 91.60,51.15 91.93,50.82 92.26,50.45 92.58,50.31 92.91,50.25 93.24,50.18 93.57,50.00 93.90,49.60 94.22,49.14 94.55,48.58 94.88,48.11 95.21,47.55 95.54,45.02 95.87,42.02 96.19,42.54 96.52,39.95 96.85,40.75 97.18,41.08 97.51,42.92 97.83,42.37 98.16,42.98 98.49,44.35 98.82,44.34 99.15,47.50 99.47,48.19 99.80,48.69 100.13,47.77 100.46,45.33 100.79,45.59 101.11,45.82 101.44,46.18 101.77,46.46 102.10,46.28 102.43,46.20 102.76,46.35 103.08,46.09 103.41,45.95 103.74,45.84 104.07,45.65 104.40,45.62 104.72,45.43 105.05,45.22 105.38,45.14 105.71,45.01 106.04,44.79 106.36,44.48 106.69,44.32 107.02,44.09 107.35,44.01 107.68,43.82 108.00,43.74 108.33,43.30 108.66,43.11 108.99,42.68 109.32,42.32 109.64,42.38 109.97,42.13 110.30,41.74 110.63,41.31 110.96,40.73 111.29,40.46 111.61,39.93 111.94,40.28 112.27,40.34 112.60,39.73 112.93,39.07 113.25,39.15 113.58,40.14 113.91,41.18 114.24,42.03 114.57,41.79 114.89,41.83 115.22,41.62 115.55,41.42 115.88,41.29 116.21,40.17 116.53,39.10 116.86,38.25 117.19,39.11 117.52,38.85 117.85,38.76 118.18,38.89 118.50,38.49 118.83,38.64 119.16,38.44 119.49,38.65 119.82,38.68 120.14,38.70 120.47,38.56 120.80,38.54 121.13,38.66 121.46,38.90 121.78,38.97 122.11,39.42 122.44,39.16 122.77,38.91 123.10,38.77 123.42,38.55 123.75,50.74 124.08,50.69 124.41,51.58 124.74,53.15 125.07,53.15 125.39,53.48 125.72,54.68 126.05,54.12 126.38,54.28 126.71,53.82 127.03,53.70 127.36,53.28 127.69,53.26 128.02,52.91 128.35,52.95 128.67,51.98 129.00,52.16 129.33,50.99 129.66,51.51 129.99,49.99 130.31,51.02 130.64,49.47 130.97,49.47 131.30,50.57 131.63,49.69 131.96,50.88 132.28,49.78 132.61,50.86 132.94,49.84 133.27,51.13 133.60,50.73 133.92,50.73 134.25,49.35 134.58,50.74 134.91,49.76 135.24,50.83 135.56,50.60 135.89,50.34 136.22,50.22 136.55,50.27 136.88,50.44 137.20,50.20 137.53,49.83 137.86,49.27 138.19,48.75 138.52,48.45 138.84,45.15 139.17,47.18 139.50,46.86 139.83,37.43 140.16,45.73 140.49,38.76 140.81,43.32 141.14,41.80 141.47,40.42 141.80,40.28 142.13,44.40 142.45,45.36 142.78,46.97 143.11,47.85 143.44,48.92 143.77,47.89 144.09,45.41 144.42,45.23 144.75,44.69 145.08,46.12 145.41,46.26 145.73,46.31 146.06,44.11 146.39,45.37 146.72,46.07 147.05,46.26 147.38,46.05 147.70,45.86 148.03,45.80 148.36,45.01 148.69,44.75 149.02,44.84 149.34,44.98 149.67,45.03 150.00,45.15 150.33,44.51 150.66,44.30 150.98,43.47 151.31,43.24 151.64,43.19 151.97,43.26 152.30,43.17 152.62,42.92 152.95,42.73 153.28,42.54 153.61,41.63 153.94,40.67 154.27,41.68 154.59,40.35 154.92,39.65 155.25,39.86 155.58,39.44 155.91,40.40 156.23,39.18 156.56,38.95 156.89,40.94 157.22,39.72 157.55,41.50 157.87,42.43 158.20,41.82 158.53,41.89 158.86,41.73 159.19,41.45 159.51,39.81 159.84,40.99 160.17,40.88 160.50,36.90 160.83,35.59 161.16,39.96 161.48,39.87 161.81,39.54 162.14,38.84 162.47,36.53 162.80,35.31 163.12,38.80 163.45,38.70 163.78,38.68 164.11,38.49 164.44,38.00 164.76,39.86 165.09,39.50 165.42,39.20 165.75,39.55 166.08,39.11 166.40,39.41 166.73,39.20 167.06,39.13 167.39,38.92 167.72,39.08 168.04,38.54 168.37,38.40 168.70,38.36 169.03,37.04 169.36,36.53 169.69,35.24 170.01,36.02 170.34,35.71 170.67,35.50 171.00,35.24 171.33,34.86 171.65,34.51 171.98,34.20 172.31,31.00 172.64,34.06 172.97,33.76 173.29,33.06 173.62,32.29 173.95,31.12 174.28,30.39 174.61,29.79 174.93,28.15 175.26,25.06 175.59,23.31 175.92,26.60 176.25,25.71 176.58,25.99 176.90,28.99 177.23,28.10 177.56,26.16 177.89,25.88 178.22,22.06 178.54,25.50 178.87,24.12 179.20,22.20 179.53,22.41 179.86,23.68 180.18,25.34 180.51,24.90 180.84,25.69 181.17,25.74 181.50,20.83 181.82,25.09 182.15,26.93 182.48,27.45 182.81,28.19 183.14,28.61 183.47,29.36 183.79,29.39 184.12,29.29 184.45,29.32 184.78,29.99 185.11,29.48 185.43,31.64 185.76,29.41 186.09,29.99 186.42,29.36 186.75,28.45 187.07,28.42 187.40,28.77 187.73,29.35 188.06,26.36 188.39,29.19 188.71,28.23 189.04,25.85 189.37,24.51 189.70,28.61 190.03,25.74 190.36,29.57 190.68,28.38 191.01,21.67 191.34,28.40 191.67,29.41 192.00,28.19 192.32,27.19 192.65,22.19 192.98,22.17 193.31,20.65 193.64,18.19 193.96,18.89 194.29,18.61 194.62,21.55 194.95,19.86 195.28,18.16 195.60,18.18 195.93,16.08 196.26,18.65 196.59,19.66 196.92,22.72 197.24,22.72 197.57,22.93 197.90,24.90 198.23,25.36 198.56,23.18 198.89,21.90 199.21,21.38 199.54,20.63 199.87,19.54 200.20,18.30 200.53,17.24 200.85,15.98 201.18,15.98 201.51,14.16 201.84,13.16 202.17,12.01 202.49,13.00 202.82,12.34 203.15,11.08 203.48,10.05 203.81,9.70 204.13,8.97 204.46,8.67 204.79,8.67 205.12,8.92 205.45,9.49 205.78,10.35 206.10,11.66 206.43,9.25 206.76,10.91 207.09,8.22 207.42,9.67 207.74,10.67 208.07,6.90 208.40,7.48 208.73,8.28 209.06,5.17 209.38,6.01 209.71,4.02 210.04,50.85 210.37,50.85 210.70,50.85 211.02,55.13 211.35,55.13 211.68,55.13 212.01,55.13 212.34,53.77 212.67,53.77 212.99,53.77 213.32,53.46 213.65,53.46 213.98,53.46 214.31,51.96 214.63,51.82 214.96,51.82 215.29,51.82 215.62,51.86 215.95,51.86 216.27,46.87 216.60,49.47 216.93,49.47 217.26,49.47 217.59,49.47 217.91,52.16 218.24,52.16 218.57,45.54 218.90,50.66 219.23,50.66 219.56,50.66 219.88,51.93 220.21,51.93 220.54,44.77 220.87,44.77 221.20,50.73 221.52,50.73 221.85,50.73 222.18,51.25 222.51,51.30 222.84,51.30 223.16,51.77 223.49,51.77 223.82,44.18 224.15,41.73 224.48,41.73 224.80,45.14 225.13,45.14 225.46,45.14 225.79,51.22 226.12,38.76 226.44,38.76 226.77,38.76 227.10,38.76 227.43,34.87 227.76,34.87 228.09,34.87 228.41,48.89 228.74,48.89 229.07,48.89 229.40,48.80 229.73,48.80 230.05,48.80 230.38,46.06 230.71,46.06 231.04,46.06 231.37,46.06 231.69,48.40 232.02,48.40 232.35,41.15 232.68,43.75 233.01,43.75 233.33,45.15 233.66,45.15 233.99,45.15 234.32,45.38 234.65,45.38 234.98,44.84 235.30,44.84 235.63,44.84 235.96,45.15 236.29,45.15 236.62,44.31 236.94,44.31 237.27,44.31 237.60,43.56 237.93,43.56 238.26,43.56 238.58,43.23 238.91,43.23 239.24,42.51 239.57,42.51 239.90,40.22 240.22,39.79 240.55,42.04 240.88,40.89 241.21,40.89 241.54,40.89 241.87,38.84 242.19,38.84 242.52,38.84 242.85,40.94 243.18,40.94 243.51,40.94 243.83,40.78 244.16,40.78 244.49,42.98 244.82,42.98 245.15,39.70 245.47,39.70 245.80,39.70 246.13,42.13 246.46,42.13 246.79,40.17 247.11,40.17 247.44,40.17 247.77,39.54 248.10,39.54 248.43,39.54 248.76,36.52 249.08,36.52 249.41,33.52 249.74,33.52 250.07,33.52 250.40,31.51 250.72,31.51 251.05,42.09 251.38,42.09 251.71,42.09 252.04,41.08 252.36,41.08 252.69,41.22 253.02,41.22 253.35,41.22 253.68,41.36 254.00,41.36 254.33,41.36 254.66,40.85 254.99,40.85 255.32,31.45 255.64,31.45 255.97,31.45 256.30,26.65 256.63,26.65 256.96,27.09 257.29,27.09 257.61,27.09 257.94,28.87 258.27,28.87 258.60,30.50 258.93,30.50 259.25,30.50 259.58,25.35 259.91,25.35 260.24,19.57 260.57,19.57 260.89,19.57 261.22,14.78 261.55,14.78 261.88,14.78 262.21,33.52 262.53,33.52 262.86,29.00 263.19,29.00 263.52,29.00 263.85,22.97 264.18,22.97 264.50,22.97 264.83,27.79 265.16,27.79 265.49,27.79 265.82,26.35 266.14,26.35 266.47,30.35 266.80,30.35 267.13,30.35 267.46,34.09 267.78,11.16 268.11,16.69 268.44,16.69 268.77,16.69 269.10,21.78 269.42,21.78 269.75,21.86 270.08,21.86 270.41,21.86 270.74,23.45 271.07,32.66 271.39,32.66 271.72,29.41 272.05,29.41 272.38,29.41 272.71,24.71 273.03,31.35 273.36,31.35 273.69,29.36 274.02,29.36 274.35,25.62 274.67,25.62 275.00,25.62 275.33,18.27 275.66,18.27 275.99,29.18 276.31,29.58 276.64,29.58 276.97,29.58 277.30,21.67 277.63,21.67 277.96,26.09 278.28,27.19 278.61,27.19 278.94,27.19 279.27,22.37 279.60,22.37 279.92,22.37 280.25,21.60 280.58,21.60 280.91,21.60 281.24,21.60 281.56,15.52 281.89,15.52 282.22,15.52 282.55,22.25 282.88,22.25 283.20,22.25 283.53,22.25 283.86,25.22 284.19,25.22 284.52,25.22 284.84,23.38 285.17,23.38 285.50,20.45 285.83,20.45 286.16,20.45 286.49,16.94 286.81,16.94 287.14,18.60 287.47,18.60 287.80,14.03 288.13,14.03 288.45,14.03 288.78,16.00 289.11,11.23 289.44,11.23 289.77,11.23 290.09,10.39 290.42,10.39 290.75,10.39 291.08,10.39 291.41,12.33 291.73,12.33 292.06,12.33 292.39,15.51 292.72,6.83 293.05,6.83 293.38,10.69 293.70,10.69 294.03,10.69 294.36,12.77 294.69,12.77 295.02,12.77 295.34,4.87 295.67,4.87 296.00,4.87" />
</svg>