<svg width="300" height="60" xmlns="http://www.w3.org/2000/svg">
  <polyline fill="rgba(255,200,0,0.3)" stroke="#ffbb00" stroke-width="2" points="4.00,55.36 4.37,54.87 4.75,54.52 5.12,53.93 5.49,53.11 5.87,52.63 6.24,52.68 6.61,52.55 6.99,52.00 7.36,51.30 7.73,50.76 8.11,50.01 8.48,49.63 8.85,49.53 9.23,49.43 9.60,49.35 9.97,49.49 10.35,49.25 10.72,48.79 11.09,48.32 11.47,47.91 11.84,47.72 12.21,47.80 12.59,47.64 12.96,47.30 13.34,47.08 13.71,46.71 14.08,46.38 14.46,46.19 14.83,45.89 15.20,45.43 15.58,45.04 15.95,44.89 16.32,44.88 16.70,44.97 17.07,44.46 17.44,43.79 17.82,43.01 18.19,42.26 18.56,41.85 18.94,41.37 19.31,40.54 19.68,39.95 20.06,39.33 20.43,38.51 20.80,37.95 21.18,37.41 21.55,36.59 21.92,35.80 22.30,35.07 22.67,34.76 23.04,34.51 23.42,34.02 23.79,33.30 24.16,32.98 24.54,32.68 24.91,32.27 25.28,31.76 25.66,31.24 26.03,30.47 26.40,29.62 26.78,28.81 27.15,28.05 27.52,27.16 27.90,26.15 28.27,25.36 28.64,24.63 29.02,24.22 29.39,24.06 29.76,23.99 30.14,23.98 30.51,24.00 30.88,24.08 31.26,24.26 31.63,24.37 32.01,24.60 32.38,24.84 32.75,25.07 33.13,25.19 33.50,25.19 33.87,25.29 34.25,25.19 34.62,25.08 34.99,24.96 35.37,24.59 35.74,24.25 36.11,23.82 36.49,23.53 36.86,23.12 37.23,22.89 37.61,22.56 37.98,22.34 38.35,22.07 38.73,21.68 39.10,21.27 39.47,20.75 39.85,20.16 40.22,19.74 40.59,19.29 40.97,18.95 41.34,18.69 41.71,18.48 42.09,18.30 42.46,18.22 42.83,18.12 43.21,18.04 43.58,18.03 43.95,18.02 44.33,17.95 44.70,17.95 45.07,17.90 45.45,17.76 45.82,17.62 46.19,17.51 46.57,17.28 46.94,17.05 47.31,16.81 47.69,16.59 48.06,16.43 48.43,16.41 48.81,16.44 49.18,16.70 49.55,17.19 49.93,17.75 50.30,18.28 50.68,18.56 51.05,18.28 51.42,17.91 51.80,16.80 52.17,16.14 52.54,15.11 52.92,14.64 53.29,14.18 53.66,13.29 54.04,12.34 54.41,11.84 54.78,11.35 55.16,11.22 55.53,10.84 55.90,10.52 56.28,10.27 56.65,9.68 57.02,8.68 57.40,8.42 57.77,7.48 58.14,7.83 58.52,7.94 58.89,8.05 59.26,7.87 59.64,7.96 60.01,8.78 60.38,9.52 60.76,10.08 61.13,10.22 61.50,10.34 61.88,10.09 62.25,10.15 62.62,9.68 63.00,9.18 63.37,8.80 63.74,8.54 64.12,8.34 64.49,8.36 64.86,8.30 65.24,8.25 65.61,8.05 65.98,7.99 66.36,9.06 66.73,8.09 67.10,7.21 67.48,7.03 67.85,6.64 68.23,6.90 68.60,7.68 68.97,8.19 69.35,8.77 69.72,8.42 70.09,7.89 70.47,7.76 70.84,8.38 71.21,8.94 71.59,8.92 71.96,7.11 72.33,7.01 72.71,8.11 73.08,9.26 73.45,10.36 73.83,10.88 74.20,11.11 74.57,11.31 74.95,11.51 75.32,11.63 75.69,12.02 76.07,13.93 76.44,15.77 76.81,16.60 77.19,17.23 77.56,18.02 77.93,19.33 78.31,18.36 78.68,17.39 79.05,16.84 79.43,15.64 79.80,15.13 80.17,15.45 80.55,16.02 80.92,15.93 81.29,15.91 81.67,15.85 82.04,15.72 82.41,16.28 82.79,16.47 83.16,16.20 83.53,16.12 83.91,16.46 84.28,16.72 84.65,17.45 85.03,18.15 85.40,18.82 85.77,19.70 86.15,20.69 86.52,21.73 86.90,22.44 87.27,23.91 87.64,26.06 88.02,28.28 88.39,30.33 88.76,31.88 89.14,32.90 89.51,32.93 89.88,32.51 90.26,32.88 90.63,33.69 91.00,35.27 91.38,37.32 91.75,39.14 92.12,40.78 92.50,42.30 92.87,43.39 93.24,43.84 93.62,43.67 93.99,44.11 94.36,44.24 94.74,44.17 95.11,44.10 95.48,44.03 95.86,44.05 96.23,44.25 96.60,44.43 96.98,43.94 97.35,43.81 97.72,43.43 98.10,43.06 98.47,42.84 98.84,42.64 99.22,42.48 99.59,42.09 99.96,42.05 100.34,42.03 100.71,41.62 101.08,41.19 101.46,55.55 101.83,54.87 102.20,54.70 102.58,54.13 102.95,53.40 103.32,52.15 103.70,52.69 104.07,52.41 104.45,52.00 104.82,51.42 105.19,51.22 105.57,50.66 105.94,49.74 106.31,49.47 106.69,49.33 107.06,49.28 107.43,49.19 107.81,48.88 108.18,48.68 108.55,48.15 108.93,47.79 109.30,47.60 109.67,47.61 110.05,47.58 110.42,47.34 110.79,46.88 111.17,46.41 111.54,46.41 111.91,45.98 112.29,45.75 112.66,45.22 113.03,45.22 113.41,45.09 113.78,44.95 114.15,44.79 114.53,44.37 114.90,44.39 115.27,43.54 115.65,42.67 116.02,41.98 116.39,41.22 116.77,40.43 117.14,39.85 117.51,39.20 117.89,38.59 118.26,37.75 118.63,36.82 119.01,36.04 119.38,35.99 119.75,35.24 120.13,34.71 120.50,34.21 120.87,34.08 121.25,33.36 121.62,33.17 121.99,32.82 122.37,32.41 122.74,31.96 123.12,31.26 123.49,30.28 123.86,29.93 124.24,29.20 124.61,28.06 124.98,26.85 125.36,26.49 125.73,25.68 126.10,24.77 126.48,24.25 126.85,23.98 127.22,23.98 127.60,23.98 127.97,24.19 128.34,24.11 128.72,24.18 129.09,24.47 129.46,24.56 129.84,24.72 130.21,24.87 130.58,24.95 130.96,24.97 131.33,25.50 131.70,25.49 132.08,25.29 132.45,24.99 132.82,24.58 133.20,24.12 133.57,23.72 133.94,23.43 134.32,23.43 134.69,23.12 135.06,22.75 135.44,22.42 135.81,22.20 136.18,21.98 136.56,21.34 136.93,20.78 137.30,20.21 137.68,19.85 138.05,19.36 138.42,18.99 138.80,18.73 139.17,18.53 139.54,18.43 139.92,18.38 140.29,18.11 140.66,18.06 141.04,18.03 141.41,18.02 141.79,17.95 142.16,17.95 142.53,17.86 142.91,17.74 143.28,17.80 143.65,17.61 144.03,17.49 144.40,17.43 144.77,16.84 145.15,16.71 145.52,16.68 145.89,16.39 146.27,16.55 146.64,16.89 147.01,17.46 147.39,18.09 147.76,18.09 148.13,18.63 148.51,18.46 148.88,18.08 149.25,17.09 149.63,16.11 150.00,15.21 150.37,14.67 150.75,14.13 151.12,13.00 151.49,13.00 151.87,12.09 152.24,11.29 152.61,12.10 152.99,10.66 153.36,10.89 153.73,10.90 154.11,9.06 154.48,9.26 154.85,8.16 155.23,7.77 155.60,7.48 155.97,7.59 156.35,7.79 156.72,8.12 157.09,8.88 157.47,8.24 157.84,8.24 158.21,9.13 158.59,9.64 158.96,9.67 159.34,9.40 159.71,10.78 160.08,10.25 160.46,9.18 160.83,7.84 161.20,8.73 161.58,8.38 161.95,8.22 162.32,8.14 162.70,8.22 163.07,8.50 163.44,9.16 163.82,7.75 164.19,8.35 164.56,6.90 164.94,7.56 165.31,5.42 165.68,6.04 166.06,6.78 166.43,8.35 166.80,9.08 167.18,9.35 167.55,7.99 167.92,8.22 168.30,8.69 168.67,10.00 169.04,8.19 169.42,7.99 169.79,8.13 170.16,8.88 170.54,8.30 170.91,9.50 171.28,11.20 171.66,11.16 172.03,12.19 172.40,11.40 172.78,11.41 173.15,11.90 173.52,13.11 173.90,15.01 174.27,16.87 174.64,16.48 175.02,17.99 175.39,19.40 175.76,17.97 176.14,17.91 176.51,16.36 176.88,16.10 177.26,15.54 177.63,15.07 178.01,16.47 178.38,15.20 178.75,16.08 179.13,15.03 179.50,16.60 179.87,16.21 180.25,15.97 180.62,15.67 180.99,17.24 181.37,16.67 181.74,17.83 182.11,17.37 182.49,18.46 182.86,19.80 183.23,19.69 183.61,21.42 183.98,21.50 184.35,23.08 184.73,24.07 185.10,25.66 185.47,27.41 185.85,30.27 186.22,31.86 186.59,33.84 186.97,33.78 187.34,33.29 187.71,33.16 188.09,33.53 188.46,35.98 188.83,37.66 189.21,39.33 189.58,40.94 189.95,41.63 190.33,42.96 190.70,44.05 191.07,43.51 191.45,44.14 191.82,44.06 192.19,44.03 192.57,44.34 192.94,44.09 193.31,43.96 193.69,44.23 194.06,44.22 194.43,44.12 194.81,43.74 195.18,43.37 195.55,43.23 195.93,42.88 196.30,42.73 196.68,42.36 197.05,42.53 197.42,42.22 197.80,41.89 198.17,41.49 198.54,41.15 198.92,56.00 199.29,54.83 199.66,54.83 200.04,54.83 200.41,52.84 200.78,52.84 201.16,51.22 201.53,51.22 201.90,51.22 202.28,49.88 202.65,51.96 203.02,51.96 203.40,50.30 203.77,50.30 204.14,49.38 204.52,49.38 204.89,49.38 205.26,48.67 205.64,48.67 206.01,47.42 206.38,47.42 206.76,47.42 207.13,46.81 207.50,46.81 207.88,46.52 208.25,46.52 208.62,46.52 209.00,46.55 209.37,46.55 209.74,46.55 210.12,46.10 210.49,46.10 210.86,45.28 211.24,45.28 211.61,45.28 211.98,44.05 212.36,44.05 212.73,44.05 213.10,41.69 213.48,41.69 213.85,41.69 214.23,40.22 214.60,40.22 214.97,40.22 215.35,38.78 215.72,38.78 216.09,38.78 216.47,36.39 216.84,36.39 217.21,36.39 217.59,36.57 217.96,34.60 218.33,34.60 218.71,34.21 219.08,34.21 219.45,34.21 219.83,33.37 220.20,32.04 220.57,32.04 220.95,32.04 221.32,31.48 221.69,29.21 222.07,29.21 222.44,29.21 222.81,28.64 223.19,25.87 223.56,25.87 223.93,25.87 224.31,24.70 224.68,24.46 225.05,24.46 225.43,24.46 225.80,24.26 226.17,24.26 226.55,24.26 226.92,24.72 227.29,24.72 227.67,24.72 228.04,25.24 228.41,25.24 228.79,25.56 229.16,25.54 229.53,25.54 229.91,25.54 230.28,24.68 230.65,24.68 231.03,24.68 231.40,23.69 231.77,23.69 232.15,23.69 232.52,23.69 232.90,22.81 233.27,22.81 233.64,22.81 234.02,21.74 234.39,21.74 234.76,21.74 235.14,20.06 235.51,20.06 235.88,20.06 236.26,19.07 236.63,19.07 237.00,19.07 237.38,18.69 237.75,18.96 238.12,18.96 238.50,18.38 238.87,18.38 239.24,18.38 239.62,18.38 239.99,18.05 240.36,18.05 240.74,18.61 241.11,17.89 241.48,17.89 241.86,17.89 242.23,17.46 242.60,17.46 242.98,17.46 243.35,17.39 243.72,17.39 244.10,17.39 244.47,17.75 244.84,17.75 245.22,17.75 245.59,17.75 245.96,19.60 246.34,19.10 246.71,19.10 247.08,16.61 247.46,16.61 247.83,16.61 248.20,14.90 248.58,14.90 248.95,14.90 249.32,14.60 249.70,11.15 250.07,11.15 250.45,12.70 250.82,12.70 251.19,12.70 251.57,13.31 251.94,13.31 252.31,7.57 252.69,8.85 253.06,8.85 253.43,7.77 253.81,7.77 254.18,7.77 254.55,9.09 254.93,4.00 255.30,4.00 255.67,4.00 256.05,4.99 256.42,4.99 256.79,4.99 257.17,10.70 257.54,10.70 257.91,10.70 258.29,7.83 258.66,7.83 259.03,7.83 259.41,5.96 259.78,5.96 260.15,5.96 260.53,6.60 260.90,6.60 261.27,6.60 261.65,6.61 262.02,6.61 262.39,6.61 262.77,9.98 263.14,9.98 263.51,9.98 263.89,11.91 264.26,11.91 264.63,12.38 265.01,7.77 265.38,7.77 265.75,9.63 266.13,9.63 266.50,9.63 266.87,11.80 267.25,11.80 267.62,11.80 267.99,8.31 268.37,8.31 268.74,10.80 269.12,10.80 269.49,14.86 269.86,13.72 270.24,13.72 270.61,13.72 270.98,13.77 271.36,12.98 271.73,12.98 272.10,12.98 272.48,18.43 272.85,16.92 273.22,16.92 273.60,16.92 273.97,19.80 274.34,19.80 274.72,19.82 275.09,19.82 275.46,19.82 275.84,17.33 276.21,17.33 276.58,17.33 276.96,21.70 277.33,21.70 277.70,21.70 278.08,19.94 278.45,19.94 278.82,19.94 279.20,17.90 279.57,17.90 279.94,23.54 280.32,21.91 280.69,21.91 281.06,21.91 281.44,21.77 281.81,25.65 282.18,25.65 282.56,28.08 282.93,28.08 283.30,28.08 283.68,32.67 284.05,32.67 284.42,35.27 284.80,35.27 285.17,35.27 285.54,35.52 285.92,35.52 286.29,38.75 286.66,38.75 287.04,38.75 287.41,43.17 287.79,43.17 288.16,43.17 288.53,43.61 288.91,43.61 289.28,43.61 289.65,44.87 290.03,44.87 290.40,43.61 290.77,44.27 291.15,44.27 291.52,44.27 291.89,44.64 292.27,43.64 292.64,43.64 293.01,43.64 293.39,43.51 293.76,42.62 294.13,42.62 294.51,42.62 294.88,42.23 295.25,41.74 295.63,41.74 296.00,41.74" />
</svg>