<svg width="300" height="60" xmlns="http://www.w3.org/2000/svg">
  <polyline fill="rgba(255,200,0,0.3)" stroke="#ffbb00" stroke-width="2" points="4.00,10.08 4.81,8.34 5.63,6.76 6.44,5.64 7.25,4.52 8.07,4.54 8.88,5.53 9.69,5.65 10.51,6.21 11.32,6.44 12.13,5.62 12.95,4.84 13.76,4.03 14.57,4.42 15.39,6.35 16.20,7.96 17.01,8.84 17.83,11.19 18.64,12.20 19.45,13.74 20.27,15.40 21.08,16.11 21.89,15.30 22.71,17.22 23.52,21.41 24.33,22.15 25.15,25.33 25.96,28.70 26.77,29.25 27.59,28.51 28.40,29.16 29.21,32.36 30.03,34.85 30.84,37.50 31.65,39.31 32.47,40.28 33.28,40.74 34.09,41.34 34.91,41.66 35.72,42.36 36.53,42.75 37.35,42.84 38.16,42.64 38.97,42.49 39.79,43.37 40.60,43.43 41.42,43.89 42.23,44.28 43.04,44.13 43.86,43.03 44.67,42.71 45.48,42.90 46.30,44.06 47.11,44.86 47.92,44.74 48.74,43.85 49.55,43.81 50.36,44.12 51.18,44.17 51.99,43.98 52.80,43.68 53.62,44.90 54.43,45.29 55.24,45.20 56.06,45.45 56.87,45.69 57.68,46.12 58.50,46.34 59.31,46.57 60.12,46.35 60.94,46.73 61.75,47.67 62.56,48.30 63.38,48.79 64.19,49.26 65.00,49.49 65.82,49.99 66.63,50.95 67.44,51.23 68.26,51.23 69.07,50.77 69.88,50.13 70.70,50.58 71.51,51.07 72.32,52.42 73.14,54.16 73.95,54.80 74.76,55.20 75.58,55.59 76.39,56.00 77.20,10.42 78.02,9.13 78.83,7.08 79.64,5.31 80.46,5.23 81.27,5.00 82.08,6.25 82.90,6.93 83.71,6.09 84.52,5.82 85.34,5.88 86.15,4.93 86.96,4.00 87.78,4.49 88.59,6.34 89.40,6.57 90.22,9.04 91.03,11.24 91.84,12.49 92.66,13.43 93.47,16.01 94.28,14.02 95.10,16.59 95.91,13.86 96.72,19.51 97.54,23.91 98.35,24.29 99.16,27.18 99.98,28.85 100.79,27.95 101.60,29.47 102.42,31.17 103.23,33.54 104.04,36.06 104.86,39.25 105.67,39.99 106.48,40.56 107.30,41.49 108.11,41.91 108.92,42.47 109.74,42.62 110.55,42.85 111.36,42.97 112.18,42.86 112.99,43.84 113.81,43.66 114.62,43.97 115.43,44.16 116.25,44.90 117.06,43.57 117.87,42.84 118.69,43.51 119.50,43.96 120.31,44.80 121.13,44.79 121.94,44.14 122.75,43.84 123.57,44.64 124.38,44.17 125.19,44.29 126.01,42.96 126.82,44.94 127.63,45.02 128.45,45.10 129.26,45.22 130.07,45.41 130.89,46.05 131.70,46.17 132.51,46.31 133.33,45.97 134.14,46.11 134.95,47.67 135.77,47.56 136.58,48.59 137.39,49.21 138.21,49.33 139.02,49.86 139.83,50.85 140.65,51.04 141.46,50.94 142.27,51.25 143.09,50.22 143.90,51.67 144.71,52.58 145.53,52.05 146.34,54.21 147.15,54.70 147.97,55.12 148.78,55.50 149.59,55.62 150.41,11.10 151.22,10.45 152.03,9.81 152.85,9.13 153.66,8.84 154.47,5.16 155.29,8.57 156.10,11.04 156.91,8.80 157.73,10.54 158.54,10.24 159.35,7.35 160.17,5.26 160.98,4.69 161.79,6.25 162.61,8.60 163.42,11.41 164.23,14.06 165.05,12.19 165.86,13.52 166.67,15.11 167.49,14.58 168.30,13.52 169.11,12.76 169.93,17.96 170.74,18.59 171.55,18.29 172.37,24.17 173.18,28.04 173.99,26.11 174.81,28.99 175.62,31.91 176.43,31.91 177.25,34.74 178.06,35.96 178.87,40.40 179.69,40.70 180.50,41.50 181.31,42.11 182.13,42.71 182.94,43.17 183.75,43.07 184.57,43.33 185.38,43.07 186.19,45.08 187.01,44.62 187.82,44.13 188.64,46.26 189.45,45.15 190.26,46.45 191.08,44.43 191.89,43.76 192.70,44.63 193.52,44.44 194.33,45.05 195.14,44.63 195.96,44.25 196.77,46.26 197.58,45.16 198.40,45.88 199.21,44.18 200.02,43.71 200.84,45.00 201.65,44.51 202.46,44.51 203.28,44.66 204.09,46.06 204.90,46.25 205.72,46.79 206.53,46.25 207.34,46.37 208.16,46.98 208.97,47.40 209.78,47.74 210.60,48.15 211.41,49.10 212.22,49.45 213.04,50.81 213.85,51.04 214.66,51.44 215.48,51.59 216.29,50.94 217.10,51.51 217.92,51.13 218.73,52.84 219.54,52.73 220.36,54.21 221.17,54.89 221.98,54.89 222.80,55.79 223.61,7.20 224.42,7.20 225.24,5.26 226.05,5.26 226.86,5.26 227.68,7.20 228.49,7.20 229.30,12.68 230.12,12.68 230.93,12.68 231.74,10.25 232.56,10.25 233.37,10.25 234.18,8.17 235.00,8.17 235.81,14.69 236.62,14.69 237.44,14.69 238.25,11.58 239.06,11.58 239.88,16.06 240.69,16.06 241.50,16.06 242.32,17.96 243.13,17.96 243.94,17.96 244.76,19.32 245.57,19.32 246.38,31.28 247.20,30.53 248.01,30.53 248.82,30.53 249.64,30.53 250.45,38.08 251.26,38.08 252.08,41.50 252.89,41.50 253.70,41.50 254.52,44.42 255.33,44.42 256.14,44.42 256.96,46.96 257.77,46.96 258.58,44.99 259.40,46.13 260.21,46.13 261.03,46.13 261.84,53.83 262.65,44.80 263.47,44.80 264.28,47.30 265.09,47.30 265.91,47.30 266.72,46.20 267.53,47.03 268.35,47.03 269.16,44.53 269.97,44.53 270.79,44.53 271.60,51.13 272.41,45.32 273.23,45.32 274.04,45.32 274.85,47.49 275.67,47.49 276.48,46.99 277.29,46.99 278.11,47.30 278.92,47.30 279.73,47.30 280.55,48.55 281.36,48.55 282.17,48.55 282.99,48.55 283.80,50.29 284.61,50.29 285.43,49.95 286.24,52.08 287.05,52.08 287.87,52.08 288.68,51.93 289.49,51.93 290.31,51.93 291.12,51.93 291.93,54.36 292.75,54.36 293.56,54.36 294.37,55.58 295.19,55.58 296.00,55.58" />
</svg>