<svg width="300" height="60" xmlns="http://www.w3.org/2000/svg">
  <polyline fill="rgba(255,200,0,0.3)" stroke="#ffbb00" stroke-width="2" points="4.00,20.10 4.38,18.78 4.77,18.43 5.15,17.16 5.53,16.62 5.91,16.61 6.30,16.14 6.68,15.90 7.06,15.94 7.44,16.27 7.83,16.71 8.21,16.73 8.59,16.92 8.98,16.99 9.36,16.57 9.74,16.09 10.12,15.51 10.51,15.15 10.89,15.17 11.27,14.71 11.65,14.07 12.04,13.24 12.42,12.60 12.80,11.95 13.18,11.23 13.57,10.43 13.95,10.01 14.33,10.01 14.72,9.74 15.10,9.33 15.48,8.64 15.86,8.07 16.25,7.58 16.63,7.51 17.01,7.37 17.39,8.39 17.78,8.62 18.16,8.54 18.54,8.75 18.93,8.34 19.31,8.24 19.69,8.60 20.07,8.56 20.46,8.59 20.84,8.20 21.22,8.72 21.60,9.73 21.99,10.59 22.37,11.51 22.75,12.58 23.13,12.62 23.52,12.27 23.90,11.27 24.28,10.54 24.67,9.23 25.05,8.89 25.43,8.84 25.81,9.37 26.20,9.70 26.58,9.69 26.96,9.71 27.34,9.56 27.73,9.40 28.11,9.16 28.49,9.04 28.88,9.07 29.26,8.94 29.64,8.81 30.02,8.55 30.41,8.22 30.79,7.75 31.17,7.23 31.55,6.88 31.94,6.41 32.32,5.97 32.70,5.45 33.09,5.02 33.47,4.67 33.85,4.44 34.23,4.02 34.62,4.12 35.00,4.60 35.38,5.15 35.76,5.88 36.15,6.37 36.53,6.91 36.91,7.53 37.29,8.14 37.68,8.98 38.06,10.62 38.44,10.53 38.83,11.22 39.21,12.20 39.59,12.88 39.97,14.10 40.36,14.61 40.74,15.15 41.12,15.98 41.50,17.84 41.89,18.55 42.27,19.42 42.65,20.13 43.04,20.75 43.42,21.69 43.80,22.65 44.18,23.52 44.57,24.41 44.95,25.20 45.33,26.38 45.71,27.52 46.10,28.49 46.48,29.48 46.86,30.20 47.25,30.56 47.63,31.79 48.01,32.23 48.39,32.21 48.78,32.49 49.16,32.61 49.54,32.13 49.92,32.33 50.31,32.65 50.69,32.72 51.07,32.60 51.45,32.49 51.84,32.18 52.22,31.97 52.60,31.82 52.99,31.78 53.37,32.06 53.75,32.27 54.13,32.46 54.52,32.27 54.90,32.20 55.28,32.69 55.66,33.63 56.05,33.68 56.43,33.94 56.81,34.54 57.20,35.06 57.58,35.44 57.96,36.14 58.34,36.82 58.73,37.97 59.11,39.20 59.49,40.13 59.87,41.35 60.26,41.67 60.64,41.91 61.02,42.26 61.40,42.68 61.79,42.68 62.17,42.67 62.55,42.19 62.94,42.20 63.32,42.23 63.70,42.63 64.08,43.47 64.47,44.01 64.85,45.53 65.23,47.15 65.61,48.26 66.00,48.99 66.38,49.26 66.76,50.08 67.15,50.95 67.53,51.50 67.91,51.69 68.29,51.98 68.68,53.02 69.06,54.34 69.44,55.18 69.82,56.00 70.21,55.09 70.59,54.10 70.97,51.26 71.36,47.26 71.74,44.89 72.12,42.39 72.50,40.26 72.89,38.93 73.27,36.56 73.65,34.93 74.03,33.98 74.42,32.57 74.80,31.56 75.18,30.81 75.56,31.80 75.95,31.49 76.33,26.23 76.71,22.86 77.10,19.53 77.48,18.77 77.86,18.37 78.24,17.19 78.63,16.44 79.01,16.49 79.39,16.37 79.77,15.87 80.16,16.05 80.54,16.34 80.92,16.51 81.31,16.93 81.69,17.06 82.07,17.11 82.45,16.57 82.84,16.11 83.22,15.78 83.60,15.09 83.98,15.12 84.37,14.67 84.75,13.85 85.13,13.29 85.52,12.59 85.90,11.96 86.28,11.17 86.66,10.71 87.05,10.19 87.43,9.99 87.81,9.94 88.19,9.35 88.58,8.69 88.96,8.21 89.34,7.80 89.72,7.62 90.11,7.39 90.49,8.53 90.87,8.65 91.26,8.60 91.64,9.05 92.02,8.40 92.40,8.20 92.79,8.67 93.17,8.69 93.55,8.18 93.93,8.21 94.32,8.98 94.70,9.67 95.08,10.66 95.47,11.37 95.85,12.47 96.23,12.87 96.61,12.16 97.00,11.24 97.38,10.25 97.76,9.12 98.14,9.19 98.53,8.66 98.91,9.35 99.29,9.52 99.67,9.72 100.06,9.74 100.44,9.64 100.82,9.43 101.21,9.28 101.59,9.12 101.97,9.16 102.35,9.02 102.74,8.89 103.12,8.67 103.50,8.26 103.88,7.82 104.27,7.33 104.65,6.85 105.03,6.54 105.42,5.90 105.80,5.54 106.18,5.10 106.56,4.64 106.95,4.42 107.33,4.00 107.71,4.62 108.09,4.56 108.48,5.23 108.86,5.87 109.24,6.44 109.63,7.00 110.01,7.62 110.39,8.17 110.77,9.18 111.16,10.56 111.54,10.53 111.92,11.29 112.30,12.09 112.69,12.91 113.07,14.01 113.45,14.50 113.83,15.26 114.22,15.95 114.60,17.57 114.98,18.54 115.37,19.43 115.75,20.13 116.13,20.64 116.51,21.64 116.90,22.55 117.28,23.31 117.66,23.96 118.04,25.18 118.43,26.27 118.81,27.45 119.19,28.46 119.58,29.42 119.96,30.12 120.34,30.04 120.72,31.87 121.11,32.09 121.49,32.24 121.87,32.61 122.25,32.76 122.64,32.25 123.02,32.36 123.40,32.79 123.79,32.80 124.17,32.71 124.55,32.43 124.93,32.13 125.32,31.85 125.70,31.75 126.08,31.73 126.46,31.98 126.85,32.14 127.23,32.50 127.61,32.32 127.99,32.16 128.38,32.75 128.76,33.42 129.14,33.10 129.53,33.85 129.91,34.59 130.29,35.11 130.67,35.32 131.06,35.97 131.44,36.95 131.82,38.04 132.20,39.07 132.59,40.08 132.97,41.39 133.35,41.65 133.74,41.77 134.12,42.23 134.50,42.40 134.88,42.51 135.27,42.56 135.65,41.93 136.03,42.10 136.41,42.20 136.80,42.40 137.18,43.18 137.56,44.01 137.94,45.26 138.33,47.16 138.71,48.03 139.09,48.88 139.48,49.21 139.86,49.80 140.24,50.68 140.62,51.15 141.01,51.52 141.39,51.93 141.77,52.78 142.15,54.49 142.54,54.71 142.92,55.60 143.30,55.14 143.69,53.13 144.07,50.47 144.45,46.69 144.83,44.54 145.22,42.33 145.60,40.23 145.98,38.20 146.36,36.68 146.75,34.85 147.13,33.67 147.51,32.65 147.90,31.53 148.28,30.82 148.66,31.44 149.04,31.92 149.43,26.37 149.81,23.26 150.19,19.92 150.57,18.81 150.96,18.27 151.34,17.27 151.72,16.40 152.10,16.40 152.49,16.02 152.87,15.93 153.25,15.97 153.64,16.25 154.02,16.59 154.40,16.80 154.78,17.02 155.17,17.18 155.55,16.48 155.93,16.18 156.31,15.73 156.70,15.30 157.08,14.80 157.46,14.43 157.85,13.99 158.23,13.56 158.61,13.12 158.99,12.58 159.38,11.68 159.76,11.18 160.14,10.08 160.52,9.75 160.91,10.37 161.29,9.57 161.67,8.64 162.06,8.64 162.44,8.43 162.82,7.47 163.20,8.27 163.59,8.29 163.97,8.62 164.35,8.85 164.73,9.15 165.12,9.27 165.50,8.02 165.88,8.15 166.26,8.25 166.65,8.44 167.03,8.61 167.41,9.00 167.80,9.74 168.18,11.10 168.56,11.10 168.94,12.04 169.33,12.24 169.71,12.27 170.09,11.73 170.47,10.79 170.86,9.67 171.24,8.49 171.62,9.18 172.01,8.57 172.39,9.15 172.77,9.95 173.15,9.98 173.54,9.17 173.92,9.57 174.30,8.96 174.68,9.29 175.07,8.97 175.45,9.04 175.83,8.96 176.21,8.61 176.60,7.64 176.98,7.71 177.36,7.30 177.75,6.98 178.13,6.75 178.51,6.22 178.89,5.84 179.28,5.64 179.66,4.68 180.04,4.63 180.42,4.63 180.81,4.32 181.19,4.85 181.57,5.20 181.96,6.07 182.34,6.41 182.72,7.15 183.10,7.52 183.49,8.29 183.87,9.21 184.25,9.89 184.63,10.66 185.02,11.83 185.40,12.21 185.78,12.72 186.17,14.27 186.55,14.22 186.93,15.05 187.31,16.16 187.70,17.10 188.08,17.96 188.46,19.35 188.84,20.27 189.23,20.11 189.61,21.50 189.99,22.27 190.37,23.29 190.76,24.49 191.14,25.01 191.52,26.31 191.91,27.11 192.29,28.40 192.67,29.47 193.05,29.47 193.44,29.37 193.82,31.46 194.20,32.01 194.58,32.66 194.97,32.71 195.35,32.69 195.73,32.53 196.12,32.52 196.50,32.67 196.88,32.84 197.26,32.93 197.65,32.86 198.03,32.59 198.41,32.29 198.79,32.16 199.18,32.21 199.56,32.38 199.94,32.52 200.33,32.52 200.71,32.42 201.09,32.43 201.47,32.72 201.86,32.90 202.24,33.70 202.62,33.79 203.00,34.85 203.39,34.82 203.77,35.69 204.15,35.49 204.53,36.94 204.92,38.73 205.30,38.65 205.68,40.29 206.07,41.49 206.45,42.27 206.83,41.90 207.21,42.13 207.60,42.79 207.98,43.22 208.36,42.46 208.74,42.11 209.13,42.38 209.51,42.18 209.89,42.50 210.28,43.08 210.66,43.76 211.04,44.63 211.42,46.77 211.81,48.29 212.19,48.99 212.57,49.68 212.95,49.91 213.34,50.83 213.72,51.65 214.10,51.28 214.48,51.95 214.87,53.50 215.25,53.67 215.63,55.55 216.02,55.07 216.40,54.11 216.78,52.79 217.16,50.79 217.55,46.00 217.93,44.42 218.31,42.58 218.69,40.09 219.08,38.40 219.46,36.56 219.84,35.38 220.23,34.36 220.61,33.42 220.99,31.29 221.37,30.85 221.76,31.66 222.14,31.07 222.52,25.50 222.90,24.62 223.29,19.60 223.67,19.60 224.05,19.60 224.44,17.80 224.82,17.90 225.20,17.90 225.58,17.90 225.97,16.57 226.35,16.67 226.73,16.67 227.11,16.74 227.50,16.74 227.88,17.26 228.26,17.26 228.64,16.50 229.03,16.50 229.41,16.50 229.79,16.50 230.18,15.54 230.56,14.94 230.94,14.94 231.32,14.94 231.71,13.67 232.09,13.67 232.47,13.67 232.85,11.27 233.24,11.27 233.62,13.28 234.00,13.28 234.39,9.60 234.77,11.17 235.15,11.17 235.53,11.17 235.92,8.82 236.30,8.82 236.68,8.82 237.06,8.64 237.45,8.64 237.83,8.64 238.21,9.45 238.60,9.45 238.98,9.45 239.36,9.76 239.74,9.76 240.13,9.76 240.51,10.33 240.89,10.33 241.27,10.33 241.66,10.33 242.04,11.96 242.42,10.12 242.80,10.12 243.19,8.84 243.57,8.84 243.95,8.84 244.34,6.09 244.72,10.22 245.10,10.22 245.48,8.85 245.87,8.85 246.25,11.16 246.63,11.16 247.01,11.16 247.40,8.85 247.78,9.47 248.16,9.47 248.55,9.47 248.93,9.38 249.31,9.38 249.69,8.66 250.08,8.38 250.46,8.38 250.84,7.36 251.22,7.36 251.61,7.36 251.99,6.87 252.37,6.87 252.75,6.55 253.14,6.55 253.52,6.55 253.90,4.58 254.29,4.58 254.67,4.58 255.05,6.35 255.43,6.35 255.82,6.35 256.20,7.89 256.58,7.89 256.96,7.89 257.35,9.80 257.73,9.80 258.11,11.81 258.50,12.50 258.88,12.50 259.26,12.50 259.64,14.65 260.03,14.65 260.41,15.11 260.79,19.63 261.17,19.63 261.56,23.07 261.94,23.07 262.32,19.41 262.71,19.41 263.09,19.41 263.47,21.27 263.85,21.27 264.24,21.27 264.62,25.43 265.00,25.43 265.38,25.43 265.77,29.72 266.15,29.72 266.53,29.72 266.91,31.25 267.30,31.25 267.68,31.25 268.06,31.25 268.45,34.23 268.83,33.26 269.21,33.26 269.59,33.26 269.98,33.08 270.36,33.08 270.74,33.08 271.12,33.02 271.51,33.02 271.89,33.02 272.27,32.92 272.66,32.92 273.04,32.92 273.42,33.12 273.80,33.12 274.19,33.12 274.57,33.14 274.95,33.14 275.33,33.14 275.72,33.14 276.10,35.12 276.48,35.12 276.87,35.12 277.25,35.71 277.63,35.71 278.01,39.05 278.40,39.05 278.78,40.08 279.16,40.08 279.54,40.08 279.93,43.36 280.31,42.95 280.69,42.95 281.07,42.95 281.46,43.34 281.84,43.13 282.22,43.13 282.61,41.77 282.99,41.77 283.37,41.77 283.75,43.31 284.14,43.31 284.52,43.31 284.90,48.70 285.28,48.70 285.67,48.70 286.05,48.70 286.43,51.41 286.82,51.08 287.20,51.08 287.58,51.08 287.96,53.69 288.35,53.69 288.73,53.69 289.11,52.37 289.49,52.37 289.88,52.37 290.26,48.97 290.64,48.97 291.02,44.32 291.41,44.32 291.79,44.32 292.17,38.81 292.56,38.81 292.94,38.81 293.32,38.81 293.70,38.81 294.09,31.44 294.47,31.44 294.85,31.44 295.23,29.05 295.62,29.05 296.00,29.05" />
</svg>