<svg width="300" height="60" xmlns="http://www.w3.org/2000/svg">
  <polyline fill="rgba(255,200,0,0.3)" stroke="#ffbb00" stroke-width="2" points="4.00,4.26 4.40,4.42 4.81,4.82 5.21,5.41 5.61,6.20 6.01,6.99 6.42,7.88 6.82,8.89 7.22,10.07 7.62,10.78 8.03,11.96 8.43,12.56 8.83,13.69 9.24,14.59 9.64,15.70 10.04,16.76 10.44,17.59 10.85,18.59 11.25,19.58 11.65,20.43 12.06,21.32 12.46,22.39 12.86,23.40 13.26,24.35 13.67,25.16 14.07,26.18 14.47,27.21 14.87,27.92 15.28,28.99 15.68,29.88 16.08,30.80 16.49,31.79 16.89,32.73 17.29,33.87 17.69,34.75 18.10,35.96 18.50,36.73 18.90,37.88 19.30,38.63 19.71,39.56 20.11,40.48 20.51,41.17 20.92,41.77 21.32,42.31 21.72,42.87 22.12,43.26 22.53,43.94 22.93,44.36 23.33,44.69 23.74,45.02 24.14,45.49 24.54,46.10 24.94,46.80 25.35,47.47 25.75,48.11 26.15,48.60 26.55,49.14 26.96,49.48 27.36,49.85 27.76,50.15 28.17,50.40 28.57,50.59 28.97,50.72 29.37,50.77 29.78,51.05 30.18,51.25 30.58,51.54 30.98,51.85 31.39,52.21 31.79,52.46 32.19,52.21 32.60,53.33 33.00,53.96 33.40,54.08 33.80,54.00 34.21,53.93 34.61,54.06 35.01,53.92 35.42,54.05 35.82,54.17 36.22,54.49 36.62,54.57 37.03,54.74 37.43,54.87 37.83,55.03 38.23,55.01 38.64,55.07 39.04,55.12 39.44,55.11 39.85,55.12 40.25,55.08 40.65,55.12 41.05,55.03 41.46,54.79 41.86,54.51 42.26,53.87 42.66,53.11 43.07,51.74 43.47,50.93 43.87,50.03 44.28,49.70 44.68,49.68 45.08,49.71 45.48,49.85 45.89,49.97 46.29,50.06 46.69,50.12 47.10,50.30 47.50,50.38 47.90,50.37 48.30,50.09 48.71,50.11 49.11,50.03 49.51,49.89 49.91,50.19 50.32,50.44 50.72,50.83 51.12,51.04 51.53,51.23 51.93,51.24 52.33,51.38 52.73,4.30 53.14,4.46 53.54,4.86 53.94,5.46 54.34,6.26 54.75,7.02 55.15,7.91 55.55,8.95 55.96,10.13 56.36,10.83 56.76,11.98 57.16,12.60 57.57,13.69 57.97,14.57 58.37,15.70 58.78,16.77 59.18,17.63 59.58,18.60 59.98,19.61 60.39,20.49 60.79,21.38 61.19,22.43 61.59,23.55 62.00,24.40 62.40,25.22 62.80,26.23 63.21,27.21 63.61,27.93 64.01,29.02 64.41,29.94 64.82,30.82 65.22,31.90 65.62,32.73 66.02,33.92 66.43,34.79 66.83,36.02 67.23,36.73 67.64,37.94 68.04,38.63 68.44,39.58 68.84,40.46 69.25,41.18 69.65,41.79 70.05,42.37 70.46,42.87 70.86,43.29 71.26,43.98 71.66,44.40 72.07,44.74 72.47,45.04 72.87,45.52 73.27,46.14 73.68,46.78 74.08,47.51 74.48,48.15 74.89,48.93 75.29,49.18 75.69,49.53 76.09,49.93 76.50,50.28 76.90,50.43 77.30,50.62 77.70,50.78 78.11,50.77 78.51,51.07 78.91,51.30 79.32,51.61 79.72,51.90 80.12,52.24 80.52,52.52 80.93,52.69 81.33,53.35 81.73,54.07 82.14,54.16 82.54,54.09 82.94,54.05 83.34,54.16 83.75,53.96 84.15,54.18 84.55,54.19 84.95,54.52 85.36,54.65 85.76,54.76 86.16,54.86 86.57,55.02 86.97,55.00 87.37,55.12 87.77,55.16 88.18,55.12 88.58,55.14 88.98,55.11 89.38,55.15 89.79,55.05 90.19,54.87 90.59,54.58 91.00,53.97 91.40,53.15 91.80,51.78 92.20,51.03 92.61,50.09 93.01,49.72 93.41,49.72 93.82,49.75 94.22,49.82 94.62,49.98 95.02,50.10 95.43,50.14 95.83,50.40 96.23,50.43 96.63,50.48 97.04,50.21 97.44,50.16 97.84,50.05 98.25,49.96 98.65,50.23 99.05,50.57 99.45,50.83 99.86,51.05 100.26,51.27 100.66,51.24 101.06,51.35 101.47,4.45 101.87,4.45 102.27,4.74 102.68,5.41 103.08,6.14 103.48,6.87 103.88,7.63 104.29,8.78 104.69,10.16 105.09,10.78 105.50,11.65 105.90,12.64 106.30,13.49 106.70,14.68 107.11,15.54 107.51,16.74 107.91,17.45 108.31,18.56 108.72,19.50 109.12,20.59 109.52,21.55 109.93,22.48 110.33,23.31 110.73,24.30 111.13,25.20 111.54,26.26 111.94,27.13 112.34,27.82 112.74,28.98 113.15,29.74 113.55,30.76 113.95,31.82 114.36,32.64 114.76,33.79 115.16,34.69 115.56,35.93 115.97,36.88 116.37,37.83 116.77,38.79 117.18,39.60 117.58,40.67 117.98,41.27 118.38,41.92 118.79,42.34 119.19,42.96 119.59,43.39 119.99,44.27 120.40,44.36 120.80,44.75 121.20,45.05 121.61,45.55 122.01,46.13 122.41,46.66 122.81,47.49 123.22,48.17 123.62,48.69 124.02,49.22 124.42,49.59 124.83,50.40 125.23,50.27 125.63,50.48 126.04,50.58 126.44,50.51 126.84,50.41 127.24,51.00 127.65,51.30 128.05,51.52 128.45,51.98 128.86,52.32 129.26,52.37 129.66,52.21 130.06,53.22 130.47,54.08 130.87,54.15 131.27,54.08 131.67,53.80 132.08,53.87 132.48,53.83 132.88,54.11 133.29,54.20 133.69,54.47 134.09,54.64 134.49,54.57 134.90,54.82 135.30,54.87 135.70,54.89 136.10,55.08 136.51,55.05 136.91,54.89 137.31,55.16 137.72,55.07 138.12,54.95 138.52,55.03 138.92,54.75 139.33,54.36 139.73,53.71 140.13,52.79 140.54,51.69 140.94,50.64 141.34,49.70 141.74,49.68 142.15,49.53 142.55,49.63 142.95,49.74 143.35,49.63 143.76,49.92 144.16,49.97 144.56,49.95 144.97,50.14 145.37,50.37 145.77,49.83 146.17,49.88 146.58,49.88 146.98,49.85 147.38,50.03 147.78,50.33 148.19,50.77 148.59,50.65 148.99,51.05 149.40,51.16 149.80,51.14 150.20,4.00 150.60,4.18 151.01,4.48 151.41,5.27 151.81,6.00 152.22,6.74 152.62,7.48 153.02,8.77 153.42,9.97 153.83,10.53 154.23,11.59 154.63,12.27 155.03,13.40 155.44,14.47 155.84,15.04 156.24,16.37 156.65,17.23 157.05,18.29 157.45,19.46 157.85,20.26 158.26,21.34 158.66,22.33 159.06,23.14 159.46,24.13 159.87,25.05 160.27,26.20 160.67,27.12 161.08,27.70 161.48,28.89 161.88,29.69 162.28,30.64 162.69,31.63 163.09,32.48 163.49,33.87 163.90,34.42 164.30,35.80 164.70,36.70 165.10,37.65 165.51,38.50 165.91,39.28 166.31,40.24 166.71,40.91 167.12,41.66 167.52,42.05 167.92,42.65 168.33,43.10 168.73,43.72 169.13,44.01 169.53,44.54 169.94,44.80 170.34,45.35 170.74,45.90 171.14,46.40 171.55,47.48 171.95,47.99 172.35,48.47 172.76,49.01 173.16,49.40 173.56,49.54 173.96,49.93 174.37,50.26 174.77,50.42 175.17,50.22 175.58,49.96 175.98,50.92 176.38,51.22 176.78,51.34 177.19,51.83 177.59,52.12 177.99,51.89 178.39,51.93 178.80,53.10 179.20,53.88 179.60,53.60 180.01,53.95 180.41,53.55 180.81,53.58 181.21,53.65 181.62,53.92 182.02,53.99 182.42,54.35 182.82,54.43 183.23,54.41 183.63,54.63 184.03,54.82 184.44,54.63 184.84,54.94 185.24,55.00 185.64,55.00 186.05,55.02 186.45,55.00 186.85,54.91 187.26,54.86 187.66,54.65 188.06,54.35 188.46,53.64 188.87,52.95 189.27,51.45 189.67,50.77 190.07,49.60 190.48,49.78 190.88,49.54 191.28,49.54 191.69,49.74 192.09,49.74 192.49,49.88 192.89,50.02 193.30,50.07 193.70,50.12 194.10,50.30 194.50,49.78 194.91,49.92 195.31,49.87 195.71,49.88 196.12,50.04 196.52,50.32 196.92,50.67 197.32,50.71 197.73,50.88 198.13,51.00 198.53,51.02 198.94,4.36 199.34,4.85 199.74,4.88 200.14,5.37 200.55,6.33 200.95,7.46 201.35,8.08 201.75,9.75 202.16,10.99 202.56,11.84 202.96,12.67 203.37,13.03 203.77,13.45 204.17,14.23 204.57,15.47 204.98,15.26 205.38,17.40 205.78,18.03 206.18,19.76 206.59,20.46 206.99,21.24 207.39,23.02 207.80,23.77 208.20,25.39 208.60,25.62 209.00,26.58 209.41,27.80 209.81,28.74 210.21,31.43 210.62,29.79 211.02,30.80 211.42,32.78 211.82,33.49 212.23,34.34 212.63,36.76 213.03,37.17 213.43,38.06 213.84,38.06 214.24,39.53 214.64,39.32 215.05,41.16 215.45,41.25 215.85,43.33 216.25,43.39 216.66,44.18 217.06,43.49 217.46,44.22 217.86,44.73 218.27,45.10 218.67,45.41 219.07,45.87 219.48,46.52 219.88,46.52 220.28,47.18 220.68,48.38 221.09,49.16 221.49,49.51 221.89,49.62 222.30,50.50 222.70,50.78 223.10,50.59 223.50,50.76 223.91,51.10 224.31,50.56 224.71,51.46 225.11,51.57 225.52,51.71 225.92,51.87 226.32,52.36 226.73,52.49 227.13,52.54 227.53,53.47 227.93,54.42 228.34,54.32 228.74,54.02 229.14,53.86 229.54,53.93 229.95,54.00 230.35,54.17 230.75,54.33 231.16,54.51 231.56,54.63 231.96,54.77 232.36,54.79 232.77,55.00 233.17,54.97 233.57,54.95 233.98,55.17 234.38,55.12 234.78,55.12 235.18,55.12 235.59,55.08 235.99,55.01 236.39,54.85 236.79,54.57 237.20,54.06 237.60,53.28 238.00,52.41 238.41,50.77 238.81,50.06 239.21,49.53 239.61,49.81 240.02,49.81 240.42,49.78 240.82,49.68 241.22,50.05 241.63,50.32 242.03,50.21 242.43,50.60 242.84,50.67 243.24,50.12 243.64,50.37 244.04,49.70 244.45,50.62 244.85,50.21 245.25,50.71 245.66,51.16 246.06,51.00 246.46,51.32 246.86,51.09 247.27,51.09 247.67,5.28 248.07,5.28 248.47,5.28 248.88,8.41 249.28,8.85 249.68,8.85 250.09,8.85 250.49,15.23 250.89,15.23 251.29,15.23 251.70,16.94 252.10,16.94 252.50,16.94 252.90,21.65 253.31,21.65 253.71,21.65 254.11,32.40 254.52,20.23 254.92,20.23 255.32,31.27 255.72,31.27 256.13,31.27 256.53,29.55 256.93,29.55 257.34,29.55 257.74,40.11 258.14,40.11 258.54,29.45 258.95,40.94 259.35,40.94 259.75,40.94 260.15,40.94 260.56,42.05 260.96,42.05 261.36,42.05 261.77,51.51 262.17,42.75 262.57,42.75 262.97,42.75 263.38,42.75 263.78,47.17 264.18,47.17 264.58,47.17 264.99,46.66 265.39,46.66 265.79,46.66 266.20,48.23 266.60,48.23 267.00,48.23 267.40,47.75 267.81,47.75 268.21,47.75 268.61,47.75 269.02,48.80 269.42,48.80 269.82,48.80 270.22,50.44 270.63,50.44 271.03,50.44 271.43,51.24 271.83,52.16 272.24,52.16 272.64,52.16 273.04,50.68 273.45,52.44 273.85,52.44 274.25,52.76 274.65,52.76 275.06,52.76 275.46,53.41 275.86,53.41 276.26,53.41 276.67,55.41 277.07,55.41 277.47,55.41 277.88,54.63 278.28,54.63 278.68,55.48 279.08,55.48 279.49,54.33 279.89,55.66 280.29,55.66 280.70,55.66 281.10,54.85 281.50,54.85 281.90,54.85 282.31,54.85 282.71,56.00 283.11,56.00 283.51,55.68 283.92,55.68 284.32,55.68 284.72,55.68 285.13,55.49 285.53,55.49 285.93,55.49 286.33,55.29 286.74,55.29 287.14,52.39 287.54,52.39 287.94,52.39 288.35,50.22 288.75,50.22 289.15,50.22 289.56,51.61 289.96,51.61 290.36,51.61 290.76,51.10 291.17,51.10 291.57,51.10 291.97,51.10 292.38,51.44 292.78,51.44 293.18,51.44 293.58,51.44 293.99,50.36 294.39,52.08 294.79,52.08 295.19,51.60 295.60,51.60 296.00,50.68" />
</svg>