<svg width="300" height="60" xmlns="http://www.w3.org/2000/svg">
  <polyline fill="rgba(255,200,0,0.3)" stroke="#ffbb00" stroke-width="2" points="4.00,55.42 6.58,53.77 9.17,52.21 11.75,51.05 14.34,48.77 16.92,47.39 19.50,45.33 22.09,43.73 24.67,41.71 27.26,40.34 29.84,39.83 32.42,38.93 35.01,37.53 37.59,36.32 40.18,35.59 42.76,35.20 45.35,33.84 47.93,33.06 50.51,32.85 53.10,31.46 55.68,28.33 58.27,28.29 60.85,30.21 63.43,30.21 66.02,30.36 68.60,30.72 71.19,29.42 73.77,25.73 76.35,22.89 78.94,22.63 81.52,24.90 84.11,24.93 86.69,24.22 89.27,22.36 91.86,21.10 94.44,20.89 97.03,20.55 99.61,19.74 102.19,56.00 104.78,50.93 107.36,51.63 109.95,51.63 112.53,45.65 115.12,45.28 117.70,45.10 120.28,44.96 122.87,41.17 125.45,40.89 128.04,38.97 130.62,37.26 133.20,36.31 135.79,36.31 138.37,36.24 140.96,35.79 143.54,33.06 146.12,33.08 148.71,34.61 151.29,32.80 153.88,26.75 156.46,30.28 159.04,29.90 161.63,29.76 164.21,30.59 166.80,30.59 169.38,27.35 171.96,23.26 174.55,17.78 177.13,21.94 179.72,21.17 182.30,24.52 184.88,21.69 187.47,23.26 190.05,19.70 192.64,20.15 195.22,21.69 197.81,19.98 200.39,45.12 202.97,45.12 205.56,46.43 208.14,46.43 210.73,45.06 213.31,45.06 215.89,45.06 218.48,47.30 221.06,39.54 223.65,39.54 226.23,39.54 228.81,36.01 231.40,36.01 233.98,36.01 236.57,36.01 239.15,29.68 241.73,29.68 244.32,39.05 246.90,34.68 249.49,34.68 252.07,34.68 254.65,30.74 257.24,30.74 259.82,30.74 262.41,23.89 264.99,23.89 267.58,14.87 270.16,14.87 272.74,4.00 275.33,12.98 277.91,12.98 280.50,12.98 283.08,21.92 285.66,21.92 288.25,17.13 290.83,17.13 293.42,22.90 296.00,22.90" />
</svg>