<svg width="300" height="60" xmlns="http://www.w3.org/2000/svg">
  <polyline fill="rgba(255,200,0,0.3)" stroke="#ffbb00" stroke-width="2" points="4.00,55.97 4.43,55.48 4.86,53.88 5.28,53.95 5.71,54.29 6.14,53.91 6.57,52.96 6.99,52.84 7.42,51.75 7.85,49.72 8.28,48.44 8.70,46.30 9.13,44.94 9.56,44.09 9.99,43.50 10.41,43.49 10.84,43.69 11.27,44.81 11.70,44.92 12.12,44.41 12.55,43.99 12.98,43.81 13.41,43.56 13.83,43.00 14.26,41.97 14.69,41.19 15.12,40.62 15.54,39.75 15.97,38.76 16.40,38.60 16.83,38.75 17.25,39.04 17.68,39.86 18.11,40.85 18.54,40.09 18.96,38.67 19.39,37.52 19.82,36.12 20.25,34.95 20.67,34.40 21.10,34.20 21.53,34.30 21.96,34.72 22.38,34.07 22.81,34.11 23.24,33.44 23.67,32.14 24.09,30.39 24.52,27.69 24.95,25.83 25.38,25.27 25.80,27.58 26.23,30.57 26.66,33.02 27.09,34.69 27.51,33.25 27.94,30.95 28.37,28.71 28.80,27.35 29.22,27.13 29.65,27.58 30.08,27.27 30.51,26.42 30.93,26.80 31.36,27.59 31.79,26.21 32.22,24.93 32.64,22.64 33.07,21.39 33.50,20.83 33.93,20.39 34.35,20.22 34.78,21.02 35.21,23.12 35.64,24.15 36.06,26.84 36.49,28.90 36.92,29.00 37.35,27.84 37.77,26.89 38.20,25.66 38.63,24.37 39.06,23.18 39.48,22.25 39.91,21.60 40.34,22.25 40.77,22.54 41.19,21.34 41.62,19.63 42.05,17.82 42.48,17.22 42.90,15.78 43.33,14.34 43.76,13.65 44.19,13.23 44.61,12.59 45.04,12.95 45.47,14.94 45.90,15.28 46.33,16.29 46.75,17.47 47.18,17.39 47.61,17.24 48.04,16.67 48.46,15.85 48.89,15.75 49.32,15.99 49.75,16.06 50.17,15.97 50.60,15.67 51.03,15.26 51.46,14.76 51.88,14.14 52.31,13.71 52.74,13.15 53.17,12.58 53.59,12.00 54.02,11.63 54.45,11.35 54.88,11.32 55.30,11.48 55.73,11.62 56.16,11.69 56.59,11.38 57.01,10.83 57.44,10.30 57.87,10.01 58.30,9.19 58.72,8.34 59.15,7.49 59.58,7.31 60.01,7.07 60.43,7.44 60.86,7.89 61.29,7.74 61.72,6.67 62.14,5.92 62.57,5.19 63.00,4.49 63.43,4.19 63.85,4.27 64.28,4.70 64.71,5.75 65.14,6.25 65.56,6.11 65.99,5.69 66.42,5.19 66.85,5.05 67.27,5.11 67.70,5.63 68.13,6.13 68.56,6.32 68.98,5.91 69.41,5.41 69.84,5.44 70.27,5.67 70.69,6.69 71.12,6.92 71.55,6.93 71.98,7.05 72.40,6.79 72.83,6.65 73.26,6.31 73.69,5.35 74.11,5.03 74.54,5.39 74.97,6.30 75.40,6.28 75.82,6.17 76.25,6.86 76.68,7.02 77.11,55.94 77.53,55.53 77.96,53.85 78.39,53.94 78.82,54.12 79.24,53.90 79.67,52.90 80.10,52.91 80.53,51.81 80.95,49.80 81.38,48.18 81.81,46.48 82.24,44.84 82.66,44.11 83.09,43.39 83.52,43.46 83.95,43.25 84.37,44.90 84.80,44.88 85.23,44.48 85.66,43.81 86.08,43.73 86.51,43.59 86.94,43.19 87.37,41.98 87.80,41.24 88.22,40.64 88.65,39.41 89.08,38.45 89.51,38.32 89.93,38.62 90.36,39.07 90.79,39.64 91.22,40.54 91.64,39.67 92.07,38.93 92.50,37.55 92.93,36.16 93.35,34.70 93.78,34.30 94.21,33.95 94.64,34.02 95.06,34.91 95.49,33.76 95.92,33.98 96.35,33.16 96.77,31.74 97.20,29.90 97.63,27.53 98.06,25.65 98.48,25.31 98.91,28.25 99.34,30.50 99.77,33.19 100.19,34.85 100.62,32.56 101.05,30.80 101.48,29.32 101.90,27.26 102.33,27.08 102.76,27.24 103.19,26.72 103.61,26.42 104.04,26.92 104.47,27.82 104.90,26.77 105.32,24.67 105.75,22.60 106.18,21.42 106.61,20.90 107.03,20.42 107.46,19.98 107.89,20.99 108.32,23.08 108.74,23.97 109.17,26.87 109.60,28.82 110.03,28.92 110.45,27.40 110.88,26.91 111.31,25.80 111.74,24.44 112.16,23.26 112.59,22.11 113.02,21.92 113.45,21.81 113.87,22.78 114.30,21.42 114.73,19.42 115.16,17.67 115.58,16.84 116.01,15.28 116.44,14.34 116.87,13.79 117.29,13.17 117.72,12.44 118.15,13.23 118.58,14.90 119.00,15.25 119.43,16.53 119.86,16.80 120.29,16.93 120.71,16.83 121.14,16.84 121.57,16.02 122.00,15.73 122.42,15.99 122.85,16.00 123.28,16.03 123.71,15.75 124.13,15.43 124.56,14.62 124.99,14.10 125.42,13.75 125.84,13.17 126.27,12.61 126.70,11.87 127.13,11.52 127.55,11.29 127.98,11.30 128.41,11.49 128.84,11.52 129.27,11.57 129.69,11.34 130.12,10.63 130.55,10.09 130.98,10.08 131.40,9.05 131.83,8.58 132.26,7.62 132.69,7.06 133.11,6.82 133.54,7.07 133.97,7.51 134.40,7.41 134.82,6.90 135.25,5.94 135.68,5.11 136.11,4.39 136.53,4.11 136.96,4.08 137.39,4.79 137.82,5.39 138.24,5.76 138.67,5.97 139.10,5.59 139.53,5.11 139.95,4.92 140.38,4.87 140.81,5.68 141.24,5.91 141.66,5.75 142.09,5.76 142.52,5.16 142.95,5.40 143.37,5.83 143.80,6.31 144.23,6.90 144.66,6.82 145.08,6.92 145.51,7.11 145.94,6.62 146.37,6.10 146.79,5.40 147.22,5.21 147.65,5.23 148.08,6.26 148.50,6.23 148.93,6.10 149.36,6.27 149.79,7.20 150.21,56.00 150.64,55.23 151.07,54.06 151.50,53.90 151.92,53.74 152.35,53.14 152.78,52.65 153.21,52.65 153.63,52.09 154.06,50.84 154.49,47.84 154.92,47.84 155.34,45.63 155.77,44.72 156.20,43.35 156.63,43.21 157.05,44.05 157.48,43.65 157.91,45.10 158.34,44.35 158.76,43.95 159.19,44.13 159.62,42.97 160.05,42.97 160.47,41.71 160.90,41.52 161.33,40.64 161.76,39.66 162.18,38.97 162.61,38.76 163.04,38.00 163.47,39.65 163.89,40.14 164.32,40.01 164.75,38.88 165.18,38.44 165.60,36.87 166.03,35.63 166.46,35.19 166.89,34.32 167.31,34.32 167.74,33.71 168.17,34.54 168.60,33.42 169.02,33.29 169.45,32.62 169.88,31.40 170.31,30.29 170.73,27.61 171.16,26.33 171.59,25.88 172.02,29.43 172.45,31.10 172.87,33.25 173.30,33.74 173.73,31.83 174.16,31.75 174.58,29.51 175.01,27.31 175.44,27.26 175.87,27.41 176.29,27.00 176.72,26.51 177.15,27.41 177.58,28.23 178.00,25.68 178.43,23.52 178.86,23.38 179.29,21.70 179.71,20.86 180.14,20.34 180.57,19.88 181.00,21.55 181.42,23.59 181.85,25.50 182.28,27.15 182.71,28.69 183.13,28.79 183.56,27.60 183.99,26.34 184.42,25.69 184.84,24.25 185.27,22.92 185.70,21.83 186.13,21.25 186.55,21.50 186.98,22.31 187.41,21.59 187.84,19.01 188.26,17.08 188.69,17.08 189.12,15.23 189.55,13.92 189.97,14.46 190.40,13.35 190.83,12.72 191.26,13.73 191.68,13.71 192.11,15.85 192.54,18.95 192.97,16.79 193.39,17.49 193.82,18.10 194.25,16.46 194.68,16.62 195.10,16.53 195.53,15.90 195.96,16.13 196.39,15.87 196.81,16.08 197.24,15.46 197.67,14.68 198.10,14.80 198.52,13.94 198.95,13.47 199.38,12.73 199.81,12.26 200.23,12.09 200.66,11.60 201.09,11.68 201.52,11.68 201.94,11.84 202.37,12.10 202.80,11.81 203.23,11.19 203.65,10.60 204.08,9.69 204.51,9.07 204.94,9.53 205.36,7.95 205.79,6.84 206.22,7.15 206.65,7.58 207.07,7.84 207.50,7.65 207.93,7.18 208.36,6.59 208.78,5.02 209.21,5.03 209.64,4.36 210.07,4.00 210.49,4.83 210.92,5.91 211.35,6.83 211.78,5.65 212.20,5.97 212.63,6.16 213.06,4.60 213.49,5.02 213.92,5.73 214.34,7.04 214.77,5.57 215.20,5.61 215.63,5.56 216.05,5.67 216.48,6.06 216.91,7.13 217.34,7.86 217.76,6.41 218.19,6.83 218.62,6.96 219.05,6.83 219.47,6.04 219.90,5.68 220.33,5.58 220.76,5.83 221.18,6.20 221.61,6.23 222.04,5.80 222.47,5.54 222.89,7.89 223.32,55.83 223.75,53.50 224.18,53.50 224.60,53.50 225.03,50.03 225.46,50.03 225.89,51.90 226.31,51.90 226.74,49.08 227.17,49.08 227.60,49.67 228.02,49.67 228.45,49.14 228.88,44.71 229.31,44.71 229.73,44.71 230.16,44.44 230.59,44.44 231.02,44.44 231.44,43.08 231.87,43.08 232.30,43.08 232.73,42.89 233.15,42.89 233.58,39.26 234.01,39.86 234.44,39.86 234.86,39.86 235.29,39.35 235.72,39.35 236.15,37.22 236.57,39.49 237.00,39.49 237.43,39.49 237.86,36.25 238.28,36.25 238.71,36.25 239.14,35.02 239.57,35.02 239.99,35.02 240.42,35.02 240.85,33.94 241.28,33.94 241.70,33.94 242.13,32.27 242.56,32.27 242.99,32.27 243.41,29.38 243.84,29.38 244.27,29.38 244.70,28.32 245.12,28.32 245.55,28.43 245.98,28.43 246.41,28.43 246.83,23.51 247.26,30.00 247.69,30.00 248.12,27.49 248.54,27.49 248.97,26.62 249.40,26.62 249.83,26.62 250.25,27.57 250.68,27.57 251.11,23.24 251.54,23.24 251.96,23.24 252.39,23.24 252.82,21.83 253.25,21.83 253.67,21.83 254.10,21.32 254.53,24.35 254.96,24.35 255.39,24.35 255.81,23.23 256.24,23.23 256.67,23.23 257.10,19.84 257.52,25.61 257.95,22.29 258.38,22.29 258.81,22.29 259.23,21.92 259.66,21.92 260.09,21.30 260.52,21.30 260.94,15.90 261.37,15.74 261.80,15.74 262.23,15.74 262.65,13.56 263.08,14.97 263.51,14.97 263.94,14.97 264.36,14.08 264.79,15.83 265.22,15.83 265.65,20.88 266.07,20.88 266.50,20.88 266.93,23.53 267.36,16.65 267.78,16.65 268.21,17.10 268.64,17.10 269.07,17.10 269.49,16.58 269.92,16.58 270.35,18.16 270.78,15.28 271.20,15.28 271.63,15.28 272.06,17.35 272.49,15.15 272.91,15.15 273.34,15.15 273.77,12.53 274.20,12.53 274.62,12.53 275.05,13.19 275.48,13.19 275.91,13.19 276.33,13.86 276.76,13.86 277.19,10.88 277.62,10.88 278.04,10.88 278.47,10.88 278.90,7.53 279.33,7.53 279.75,7.53 280.18,7.11 280.61,7.11 281.04,7.11 281.46,6.26 281.89,6.26 282.32,6.26 282.75,6.26 283.17,4.55 283.60,4.55 284.03,5.84 284.46,5.84 284.88,5.84 285.31,7.73 285.74,7.73 286.17,7.73 286.59,8.62 287.02,8.62 287.45,11.55 287.88,5.27 288.30,5.27 288.73,5.80 289.16,5.80 289.59,5.80 290.01,6.71 290.44,6.71 290.87,8.44 291.30,8.44 291.72,8.44 292.15,8.35 292.58,8.35 293.01,7.36 293.43,7.36 293.86,7.36 294.29,6.97 294.72,6.97 295.14,4.86 295.57,4.86 296.00,4.86" />
</svg>