<svg width="300" height="60" xmlns="http://www.w3.org/2000/svg">
  <polyline fill="rgba(255,200,0,0.3)" stroke="#ffbb00" stroke-width="2" points="4.00,23.27 14.07,20.80 24.14,23.46 34.21,26.33 44.28,29.54 54.34,32.62 64.41,35.19 74.48,38.06 84.55,44.14 94.62,56.00 104.69,22.60 114.76,22.26 124.83,25.07 134.90,25.70 144.97,29.41 155.03,31.38 165.10,35.21 175.17,35.84 185.24,43.63 195.31,47.08 205.38,13.32 215.45,13.32 225.52,4.00 235.59,26.47 245.66,26.47 255.72,26.47 265.79,18.30 275.86,18.30 285.93,40.94 296.00,44.65" />
</svg>