<svg width="300" height="60" xmlns="http://www.w3.org/2000/svg">
  <polyline fill="rgba(255,200,0,0.3)" stroke="#ffbb00" stroke-width="2" points="4.00,53.17 4.34,52.72 4.69,52.10 5.03,51.31 5.38,50.74 5.72,49.55 6.07,49.29 6.41,49.86 6.76,50.39 7.10,51.50 7.45,52.74 7.79,53.69 8.14,53.78 8.48,54.34 8.83,53.69 9.17,52.81 9.52,51.04 9.86,50.13 10.21,50.16 10.55,51.05 10.89,51.44 11.24,51.44 11.58,50.49 11.93,49.86 12.27,50.04 12.62,48.40 12.96,46.78 13.31,46.53 13.65,46.30 14.00,46.28 14.34,46.04 14.69,45.28 15.03,44.83 15.38,44.18 15.72,44.09 16.07,44.04 16.41,45.03 16.76,46.11 17.10,46.49 17.45,46.21 17.79,45.60 18.13,44.61 18.48,43.86 18.82,43.84 19.17,43.26 19.51,42.64 19.86,42.47 20.20,42.89 20.55,43.41 20.89,43.46 21.24,43.03 21.58,42.61 21.93,42.22 22.27,41.44 22.62,40.38 22.96,40.56 23.31,41.81 23.65,41.83 24.00,41.64 24.34,41.43 24.68,40.60 25.03,39.47 25.37,38.63 25.72,37.61 26.06,37.35 26.41,36.96 26.75,36.85 27.10,37.23 27.44,36.85 27.79,35.82 28.13,34.96 28.48,34.22 28.82,34.59 29.17,35.21 29.51,34.35 29.86,32.98 30.20,30.80 30.55,29.76 30.89,29.25 31.23,28.98 31.58,29.17 31.92,29.69 32.27,30.17 32.61,30.92 32.96,31.31 33.30,31.43 33.65,31.15 33.99,31.46 34.34,31.59 34.68,31.90 35.03,31.32 35.37,30.02 35.72,29.51 36.06,29.30 36.41,29.28 36.75,29.36 37.10,29.06 37.44,28.34 37.79,28.00 38.13,27.76 38.47,27.46 38.82,27.17 39.16,26.24 39.51,25.44 39.85,24.95 40.20,24.59 40.54,24.42 40.89,24.19 41.23,23.93 41.58,23.45 41.92,23.03 42.27,22.83 42.61,22.94 42.96,23.55 43.30,23.70 43.65,23.88 43.99,23.49 44.34,22.59 44.68,22.24 45.02,22.06 45.37,22.73 45.71,23.15 46.06,23.36 46.40,23.33 46.75,23.01 47.09,21.81 47.44,20.00 47.78,18.36 48.13,18.69 48.47,19.47 48.82,19.99 49.16,19.86 49.51,19.04 49.85,19.37 50.20,20.32 50.54,19.98 50.89,18.96 51.23,18.21 51.57,17.29 51.92,18.05 52.26,19.67 52.61,21.68 52.95,21.57 53.30,20.67 53.64,20.01 53.99,19.39 54.33,18.69 54.68,19.08 55.02,20.28 55.37,22.03 55.71,23.35 56.06,21.41 56.40,19.58 56.75,17.53 57.09,15.46 57.44,13.09 57.78,12.10 58.13,12.02 58.47,13.38 58.81,15.26 59.16,15.47 59.50,15.84 59.85,15.44 60.19,15.07 60.54,14.63 60.88,13.91 61.23,13.06 61.57,12.55 61.92,13.05 62.26,13.29 62.61,14.11 62.95,14.87 63.30,14.80 63.64,14.31 63.99,12.72 64.33,11.39 64.68,9.92 65.02,9.01 65.36,7.65 65.71,6.66 66.05,6.41 66.40,7.68 66.74,9.26 67.09,10.90 67.43,11.80 67.78,11.91 68.12,12.24 68.47,11.77 68.81,10.72 69.16,9.19 69.50,7.51 69.85,5.56 70.19,5.12 70.54,4.94 70.88,4.67 71.23,4.67 71.57,5.06 71.91,5.46 72.26,6.11 72.60,6.54 72.95,6.68 73.29,7.42 73.64,8.76 73.98,10.17 74.33,10.67 74.67,10.18 75.02,10.45 75.36,11.84 75.71,13.67 76.05,15.10 76.40,15.48 76.74,13.26 77.09,53.25 77.43,52.72 77.78,52.18 78.12,51.28 78.47,50.74 78.81,49.32 79.15,49.01 79.50,49.86 79.84,50.16 80.19,51.31 80.53,52.67 80.88,53.74 81.22,53.74 81.57,54.62 81.91,53.86 82.26,52.92 82.60,51.06 82.95,50.56 83.29,50.13 83.64,50.97 83.98,51.65 84.33,51.49 84.67,50.11 85.02,49.67 85.36,50.41 85.70,48.32 86.05,46.79 86.39,47.13 86.74,46.65 87.08,46.51 87.43,46.37 87.77,44.88 88.12,44.59 88.46,44.13 88.81,43.96 89.15,44.05 89.50,45.05 89.84,46.44 90.19,46.68 90.53,46.30 90.88,45.97 91.22,44.59 91.57,44.01 91.91,43.99 92.26,43.67 92.60,42.68 92.94,42.56 93.29,43.22 93.63,43.57 93.98,43.95 94.32,43.25 94.67,42.82 95.01,42.52 95.36,41.58 95.70,40.21 96.05,40.31 96.39,41.52 96.74,42.15 97.08,41.61 97.43,41.84 97.77,40.90 98.12,39.37 98.46,38.77 98.81,37.61 99.15,37.13 99.49,36.50 99.84,36.55 100.18,36.76 100.53,36.89 100.87,35.90 101.22,35.00 101.56,34.55 101.91,34.40 102.25,35.48 102.60,34.63 102.94,33.54 103.29,30.83 103.63,30.13 103.98,29.14 104.32,28.72 104.67,29.24 105.01,29.73 105.36,30.21 105.70,30.63 106.04,31.70 106.39,31.57 106.73,31.33 107.08,31.95 107.42,31.82 107.77,32.02 108.11,31.49 108.46,29.91 108.80,29.39 109.15,29.19 109.49,29.27 109.84,29.33 110.18,28.80 110.53,28.32 110.87,27.98 111.22,27.71 111.56,27.47 111.91,27.21 112.25,26.03 112.60,25.43 112.94,24.84 113.28,24.75 113.63,24.43 113.97,24.12 114.32,23.82 114.66,23.33 115.01,22.86 115.35,22.70 115.70,22.84 116.04,23.70 116.39,23.54 116.73,23.65 117.08,23.57 117.42,22.50 117.77,22.08 118.11,21.90 118.46,22.94 118.80,23.00 119.15,23.18 119.49,23.28 119.83,22.94 120.18,21.72 120.52,19.92 120.87,18.34 121.21,18.74 121.56,19.38 121.90,19.90 122.25,19.77 122.59,18.99 122.94,19.51 123.28,20.42 123.63,19.87 123.97,18.43 124.32,17.94 124.66,17.10 125.01,18.22 125.35,20.02 125.70,21.28 126.04,21.42 126.38,20.62 126.73,19.99 127.07,19.58 127.42,18.70 127.76,18.92 128.11,20.31 128.45,22.09 128.80,23.07 129.14,21.39 129.49,19.74 129.83,17.31 130.18,15.31 130.52,13.25 130.87,12.08 131.21,12.08 131.56,13.05 131.90,15.41 132.25,15.56 132.59,15.75 132.94,15.43 133.28,15.30 133.62,14.62 133.97,13.87 134.31,12.95 134.66,12.43 135.00,13.09 135.35,13.38 135.69,13.99 136.04,14.93 136.38,15.03 136.73,14.19 137.07,12.66 137.42,11.42 137.76,9.79 138.11,8.93 138.45,7.51 138.80,6.75 139.14,6.56 139.49,7.55 139.83,9.42 140.17,10.96 140.52,11.71 140.86,12.16 141.21,11.96 141.55,12.00 141.90,10.53 142.24,9.41 142.59,7.56 142.93,5.60 143.28,5.11 143.62,4.90 143.97,4.34 144.31,4.00 144.66,4.57 145.00,5.07 145.35,5.96 145.69,6.47 146.04,6.70 146.38,7.08 146.72,8.90 147.07,9.90 147.41,10.87 147.76,10.23 148.10,10.05 148.45,11.57 148.79,13.57 149.14,14.73 149.48,15.56 149.83,13.40 150.17,53.12 150.52,52.79 150.86,52.24 151.21,51.72 151.55,50.25 151.90,50.15 152.24,49.21 152.59,49.85 152.93,50.43 153.28,51.92 153.62,52.82 153.96,53.36 154.31,54.19 154.65,54.99 155.00,54.27 155.34,53.12 155.69,51.31 156.03,51.01 156.38,50.31 156.72,51.46 157.07,51.95 157.41,50.69 157.76,51.20 158.10,50.18 158.45,49.60 158.79,49.09 159.14,47.32 159.48,47.64 159.83,47.33 160.17,46.37 160.51,45.81 160.86,43.96 161.20,44.94 161.55,43.50 161.89,43.95 162.24,43.52 162.58,44.81 162.93,45.77 163.27,47.12 163.62,46.77 163.96,46.42 164.31,44.58 164.65,44.58 165.00,43.25 165.34,44.29 165.69,43.32 166.03,42.63 166.38,43.70 166.72,43.51 167.06,43.33 167.41,43.24 167.75,43.36 168.10,42.25 168.44,41.07 168.79,40.34 169.13,41.17 169.48,41.18 169.82,41.86 170.17,41.52 170.51,41.94 170.86,40.27 171.20,39.09 171.55,39.26 171.89,37.67 172.24,37.61 172.58,36.25 172.93,36.66 173.27,37.18 173.62,37.40 173.96,37.12 174.30,34.27 174.65,33.89 174.99,35.42 175.34,34.72 175.68,34.58 176.03,33.04 176.37,31.41 176.72,29.91 177.06,29.79 177.41,28.45 177.75,28.62 178.10,30.32 178.44,31.23 178.79,30.28 179.13,30.87 179.48,32.46 179.82,32.94 180.17,31.64 180.51,32.14 180.85,32.74 181.20,31.75 181.54,30.05 181.89,29.33 182.23,29.33 182.58,29.50 182.92,29.12 183.27,29.01 183.61,28.36 183.96,28.36 184.30,28.04 184.65,27.62 184.99,26.59 185.34,25.71 185.68,26.16 186.03,25.06 186.37,24.80 186.72,24.76 187.06,23.81 187.40,23.49 187.75,24.04 188.09,22.78 188.44,22.25 188.78,22.91 189.13,22.93 189.47,23.69 189.82,23.47 190.16,23.17 190.51,22.69 190.85,22.45 191.20,22.55 191.54,23.09 191.89,23.06 192.23,23.55 192.58,22.44 192.92,22.40 193.27,22.17 193.61,20.55 193.96,18.19 194.30,18.25 194.64,19.98 194.99,19.98 195.33,19.89 195.68,19.58 196.02,19.61 196.37,20.57 196.71,20.34 197.06,19.42 197.40,18.45 197.75,17.39 198.09,18.54 198.44,19.07 198.78,20.18 199.13,21.15 199.47,20.39 199.82,19.76 200.16,19.24 200.51,19.17 200.85,19.46 201.19,21.14 201.54,22.65 201.88,22.43 202.23,21.97 202.57,20.39 202.92,18.48 203.26,16.41 203.61,13.34 203.95,12.37 204.30,12.29 204.64,13.15 204.99,14.48 205.33,16.13 205.68,15.58 206.02,15.17 206.37,15.50 206.71,14.41 207.06,14.65 207.40,13.49 207.74,12.01 208.09,12.99 208.43,13.82 208.78,14.63 209.12,15.24 209.47,15.00 209.81,14.09 210.16,12.84 210.50,11.03 210.85,10.22 211.19,9.31 211.54,8.61 211.88,7.85 212.23,7.77 212.57,8.28 212.92,8.97 213.26,11.04 213.61,12.50 213.95,12.36 214.30,12.36 214.64,11.49 214.98,11.34 215.33,8.96 215.67,8.18 216.02,6.61 216.36,5.37 216.71,4.86 217.05,4.16 217.40,4.13 217.74,4.23 218.09,4.66 218.43,5.31 218.78,5.86 219.12,6.47 219.47,7.05 219.81,9.52 220.16,10.50 220.50,11.12 220.85,10.84 221.19,10.55 221.53,11.56 221.88,14.30 222.22,14.92 222.57,16.30 222.91,13.74 223.26,53.53 223.60,53.53 223.95,53.53 224.29,52.88 224.64,52.88 224.98,52.88 225.33,49.33 225.67,49.33 226.02,49.33 226.36,52.86 226.71,52.86 227.05,52.86 227.40,54.89 227.74,54.89 228.09,54.89 228.43,54.89 228.77,51.25 229.12,52.64 229.46,52.64 229.81,52.64 230.15,56.00 230.50,53.66 230.84,53.66 231.19,53.66 231.53,50.26 231.88,50.26 232.22,50.26 232.57,48.76 232.91,48.76 233.26,48.76 233.60,42.94 233.95,42.94 234.29,42.94 234.64,45.20 234.98,45.20 235.32,42.44 235.67,47.28 236.01,47.28 236.36,47.28 236.70,46.38 237.05,46.38 237.39,46.38 237.74,46.38 238.08,44.91 238.43,44.91 238.77,44.91 239.12,43.60 239.46,43.60 239.81,43.60 240.15,43.55 240.50,43.55 240.84,43.55 241.19,44.97 241.53,44.97 241.87,42.93 242.22,42.93 242.56,42.93 242.91,41.47 243.25,43.74 243.60,43.74 243.94,43.74 244.29,39.53 244.63,42.46 244.98,39.53 245.32,37.94 245.67,37.94 246.01,37.94 246.36,39.02 246.70,39.02 247.05,39.02 247.39,38.89 247.74,38.89 248.08,36.92 248.43,36.92 248.77,36.92 249.11,33.19 249.46,33.19 249.80,33.19 250.15,33.11 250.49,33.11 250.84,33.11 251.18,33.11 251.53,35.13 251.87,35.13 252.22,35.13 252.56,35.13 252.91,35.97 253.25,35.97 253.60,35.97 253.94,32.64 254.29,32.64 254.63,32.64 254.98,30.76 255.32,30.76 255.66,29.01 256.01,29.01 256.35,29.01 256.70,28.40 257.04,28.40 257.39,28.40 257.73,28.40 258.08,25.54 258.42,26.86 258.77,26.86 259.11,26.86 259.46,23.51 259.80,25.64 260.15,25.64 260.49,22.75 260.84,22.75 261.18,22.75 261.53,24.49 261.87,24.49 262.21,21.46 262.56,23.56 262.90,23.56 263.25,24.04 263.59,24.04 263.94,24.04 264.28,23.99 264.63,23.99 264.97,23.99 265.32,23.36 265.66,23.36 266.01,23.36 266.35,23.36 266.70,20.17 267.04,20.13 267.39,20.13 267.73,21.36 268.08,21.36 268.42,21.36 268.77,17.35 269.11,20.64 269.45,20.64 269.80,20.64 270.14,20.80 270.49,20.80 270.83,20.80 271.18,19.18 271.52,19.18 271.87,19.18 272.21,20.52 272.56,20.52 272.90,19.68 273.25,19.68 273.59,22.88 273.94,21.03 274.28,21.03 274.63,21.13 274.97,21.13 275.32,21.13 275.66,21.13 276.00,16.00 276.35,16.00 276.69,16.00 277.04,15.68 277.38,13.52 277.73,13.52 278.07,14.18 278.42,17.34 278.76,17.34 279.11,15.40 279.45,15.40 279.80,16.46 280.14,16.46 280.49,16.46 280.83,12.34 281.18,14.44 281.52,14.44 281.87,14.44 282.21,13.80 282.55,13.80 282.90,13.80 283.24,12.28 283.59,12.28 283.93,12.28 284.28,10.12 284.62,10.12 284.97,10.12 285.31,8.24 285.66,8.24 286.00,8.66 286.35,13.76 286.69,13.76 287.04,13.76 287.38,13.76 287.73,10.45 288.07,10.45 288.42,10.45 288.76,9.20 289.11,9.20 289.45,6.88 289.79,6.88 290.14,6.01 290.48,6.01 290.83,6.01 291.17,6.53 291.52,6.53 291.86,6.53 292.21,8.00 292.55,8.00 292.90,9.68 293.24,9.68 293.59,9.68 293.93,10.68 294.28,10.68 294.62,11.77 294.97,17.01 295.31,17.01 295.66,16.13 296.00,16.13" />
</svg>