<svg width="300" height="60" xmlns="http://www.w3.org/2000/svg">
  <polyline fill="rgba(255,200,0,0.3)" stroke="#ffbb00" stroke-width="2" points="4.00,6.09 4.64,5.81 5.28,5.87 5.93,6.13 6.57,6.28 7.21,6.32 7.85,6.28 8.49,6.40 9.13,7.25 9.78,7.93 10.42,8.35 11.06,8.64 11.70,8.79 12.34,8.78 12.98,9.23 13.63,9.65 14.27,10.09 14.91,10.64 15.55,11.19 16.19,11.53 16.84,11.80 17.48,12.01 18.12,12.24 18.76,12.53 19.40,12.74 20.04,12.90 20.69,13.12 21.33,13.47 21.97,13.77 22.61,13.89 23.25,14.00 23.89,14.35 24.54,14.56 25.18,14.77 25.82,15.30 26.46,16.09 27.10,16.83 27.75,17.27 28.39,17.30 29.03,17.26 29.67,17.61 30.31,18.42 30.95,18.73 31.60,18.55 32.24,18.35 32.88,18.34 33.52,18.37 34.16,18.49 34.80,18.67 35.45,18.85 36.09,18.98 36.73,19.17 37.37,19.57 38.01,19.81 38.65,20.13 39.30,20.47 39.94,20.93 40.58,21.43 41.22,22.29 41.86,23.10 42.51,23.09 43.15,22.72 43.79,22.84 44.43,23.32 45.07,23.82 45.71,23.94 46.36,23.79 47.00,23.92 47.64,25.20 48.28,25.89 48.92,26.34 49.56,26.16 50.21,26.04 50.85,26.10 51.49,26.80 52.13,27.06 52.77,26.97 53.42,26.85 54.06,27.06 54.70,27.34 55.34,27.64 55.98,28.18 56.62,28.52 57.27,28.95 57.91,29.18 58.55,29.74 59.19,30.05 59.83,30.86 60.47,31.32 61.12,31.78 61.76,31.82 62.40,31.95 63.04,32.27 63.68,32.71 64.33,33.08 64.97,33.31 65.61,33.47 66.25,33.63 66.89,33.79 67.53,34.09 68.18,34.17 68.82,34.03 69.46,33.41 70.10,33.32 70.74,33.76 71.38,34.29 72.03,34.79 72.67,35.24 73.31,35.60 73.95,36.17 74.59,36.61 75.24,36.84 75.88,37.23 76.52,37.80 77.16,6.31 77.80,5.13 78.44,5.85 79.09,6.48 79.73,6.11 80.37,5.14 81.01,6.57 81.65,6.91 82.29,6.88 82.94,8.67 83.58,7.11 84.22,8.49 84.86,8.38 85.50,8.78 86.15,8.48 86.79,10.31 87.43,10.44 88.07,11.07 88.71,10.85 89.35,11.67 90.00,12.21 90.64,11.46 91.28,12.99 91.92,12.99 92.56,13.11 93.20,13.02 93.85,13.08 94.49,14.00 95.13,13.87 95.77,12.99 96.41,14.43 97.05,13.49 97.70,14.78 98.34,15.72 98.98,15.81 99.62,15.08 100.26,17.46 100.91,19.03 101.55,17.49 102.19,17.42 102.83,18.37 103.47,18.40 104.11,19.12 104.76,19.34 105.40,18.69 106.04,18.88 106.68,18.94 107.32,18.85 107.96,18.82 108.61,19.26 109.25,18.65 109.89,19.44 110.53,18.56 111.17,19.35 111.82,20.63 112.46,20.76 113.10,21.33 113.74,22.05 114.38,22.64 115.02,23.81 115.67,24.24 116.31,23.89 116.95,23.51 117.59,22.98 118.23,23.94 118.87,23.72 119.52,24.14 120.16,24.11 120.80,25.71 121.44,24.53 122.08,25.40 122.73,26.93 123.37,24.23 124.01,24.48 124.65,25.46 125.29,26.67 125.93,27.33 126.58,27.21 127.22,26.85 127.86,27.39 128.50,26.42 129.14,26.27 129.78,27.11 130.43,27.79 131.07,27.95 131.71,27.46 132.35,30.54 132.99,30.70 133.64,31.42 134.28,31.01 134.92,32.25 135.56,30.82 136.20,31.99 136.84,32.63 137.49,33.29 138.13,32.88 138.77,33.57 139.41,34.14 140.05,34.30 140.69,34.15 141.34,33.96 141.98,34.65 142.62,33.93 143.26,33.98 143.90,34.48 144.55,34.58 145.19,35.41 145.83,35.73 146.47,36.34 147.11,36.68 147.75,37.28 148.40,38.14 149.04,37.95 149.68,39.27 150.32,8.58 150.96,7.39 151.60,7.17 152.25,11.53 152.89,7.36 153.53,8.39 154.17,8.83 154.81,6.48 155.45,10.43 156.10,10.43 156.74,10.31 157.38,13.60 158.02,9.81 158.66,12.66 159.31,11.56 159.95,9.55 160.59,12.94 161.23,10.33 161.87,9.99 162.51,13.41 163.16,12.00 163.80,12.00 164.44,9.99 165.08,11.98 165.72,13.45 166.36,9.78 167.01,12.36 167.65,15.02 168.29,12.70 168.93,15.27 169.57,16.79 170.22,16.26 170.86,16.07 171.50,16.29 172.14,17.67 172.78,14.94 173.42,19.05 174.07,21.03 174.71,18.83 175.35,19.46 175.99,19.53 176.63,16.17 177.27,16.23 177.92,13.66 178.56,13.28 179.20,17.49 179.84,17.49 180.48,17.42 181.13,18.11 181.77,19.34 182.41,16.02 183.05,19.88 183.69,19.09 184.33,20.79 184.98,19.28 185.62,16.11 186.26,21.26 186.90,17.87 187.54,20.47 188.18,19.22 188.83,20.22 189.47,21.82 190.11,22.45 190.75,22.70 191.39,23.42 192.04,23.20 192.68,23.96 193.32,26.59 193.96,26.15 194.60,23.67 195.24,22.95 195.89,26.19 196.53,25.72 197.17,25.72 197.81,27.48 198.45,27.89 199.09,28.45 199.74,30.49 200.38,28.36 201.02,33.87 201.66,30.58 202.30,33.38 202.95,33.97 203.59,32.37 204.23,29.52 204.87,34.81 205.51,30.09 206.15,35.18 206.80,32.76 207.44,30.41 208.08,32.70 208.72,30.59 209.36,31.69 210.00,35.11 210.65,34.67 211.29,30.71 211.93,34.73 212.57,36.93 213.21,34.92 213.85,34.17 214.50,32.86 215.14,30.29 215.78,28.12 216.42,34.12 217.06,34.74 217.71,35.53 218.35,35.25 218.99,34.87 219.63,34.95 220.27,34.95 220.91,32.82 221.56,35.98 222.20,34.45 222.84,39.12 223.48,15.23 224.12,15.23 224.76,7.11 225.41,7.11 226.05,7.11 226.69,15.30 227.33,15.30 227.97,15.30 228.62,11.22 229.26,11.22 229.90,11.22 230.54,11.22 231.18,4.00 231.82,11.59 232.47,11.59 233.11,11.59 233.75,21.79 234.39,21.79 235.03,21.79 235.67,21.79 236.32,17.47 236.96,17.47 237.60,17.47 238.24,17.47 238.88,24.82 239.53,24.82 240.17,24.82 240.81,32.58 241.45,16.74 242.09,16.74 242.73,32.02 243.38,32.02 244.02,33.56 244.66,33.56 245.30,33.56 245.94,15.17 246.58,15.17 247.23,15.17 247.87,18.37 248.51,24.49 249.15,24.49 249.79,12.88 250.44,12.88 251.08,18.52 251.72,18.52 252.36,18.52 253.00,18.52 253.64,20.00 254.29,20.00 254.93,20.00 255.57,29.13 256.21,29.13 256.85,29.13 257.49,27.03 258.14,27.03 258.78,27.03 259.42,27.03 260.06,14.38 260.70,14.38 261.35,23.92 261.99,23.92 262.63,23.92 263.27,36.10 263.91,36.10 264.55,36.10 265.20,37.34 265.84,37.34 266.48,27.96 267.12,27.96 267.76,27.96 268.40,31.48 269.05,31.48 269.69,31.48 270.33,31.48 270.97,27.52 271.61,27.52 272.25,27.52 272.90,32.42 273.54,32.42 274.18,32.42 274.82,45.41 275.46,45.41 276.11,45.41 276.75,48.78 277.39,48.78 278.03,48.78 278.67,40.81 279.31,40.81 279.96,32.59 280.60,32.59 281.24,50.89 281.88,39.05 282.52,39.05 283.16,39.05 283.81,56.00 284.45,41.88 285.09,41.88 285.73,41.88 286.37,41.88 287.02,34.00 287.66,40.31 288.30,40.31 288.94,40.31 289.58,41.44 290.22,41.44 290.87,41.44 291.51,39.78 292.15,39.78 292.79,39.78 293.43,39.78 294.07,35.51 294.72,35.51 295.36,35.51 296.00,47.76" />
</svg>