<svg width="300" height="60" xmlns="http://www.w3.org/2000/svg">
  <polyline fill="rgba(255,200,0,0.3)" stroke="#ffbb00" stroke-width="2" points="4.00,7.99 4.99,7.94 5.98,9.53 6.97,11.84 7.96,14.34 8.95,16.15 9.94,18.55 10.93,20.70 11.92,22.55 12.91,23.85 13.90,24.75 14.89,25.99 15.88,28.02 16.87,29.26 17.86,32.75 18.85,35.99 19.84,39.66 20.83,41.94 21.82,44.25 22.81,45.18 23.80,45.62 24.79,46.12 25.78,46.15 26.77,46.61 27.76,47.08 28.75,45.74 29.74,45.71 30.73,44.20 31.72,43.85 32.71,43.51 33.69,43.61 34.68,43.39 35.67,42.93 36.66,42.11 37.65,42.46 38.64,42.51 39.63,42.79 40.62,42.78 41.61,41.14 42.60,39.12 43.59,37.31 44.58,36.19 45.57,35.64 46.56,37.36 47.55,40.80 48.54,44.77 49.53,48.80 50.52,52.70 51.51,53.08 52.50,50.84 53.49,51.95 54.48,51.54 55.47,50.49 56.46,49.12 57.45,47.54 58.44,48.80 59.43,52.03 60.42,53.21 61.41,51.40 62.40,50.46 63.39,50.53 64.38,49.66 65.37,48.65 66.36,50.48 67.35,51.94 68.34,53.06 69.33,54.17 70.32,54.11 71.31,53.15 72.30,50.67 73.29,47.98 74.28,46.09 75.27,43.89 76.26,40.97 77.25,8.09 78.24,7.98 79.23,9.41 80.22,11.74 81.21,14.55 82.20,16.15 83.19,18.52 84.18,20.85 85.17,22.55 86.16,23.70 87.15,24.60 88.14,26.01 89.13,27.95 90.12,29.34 91.11,32.73 92.09,36.06 93.08,39.40 94.07,42.10 95.06,44.28 96.05,45.08 97.04,45.61 98.03,45.99 99.02,46.06 100.01,46.90 101.00,46.92 101.99,45.79 102.98,45.67 103.97,44.14 104.96,43.81 105.95,43.60 106.94,43.66 107.93,43.35 108.92,42.90 109.91,41.94 110.90,42.48 111.89,42.51 112.88,42.74 113.87,42.82 114.86,41.18 115.85,39.26 116.84,37.12 117.83,36.07 118.82,35.65 119.81,37.43 120.80,40.80 121.79,44.64 122.78,48.47 123.77,52.53 124.76,53.07 125.75,50.98 126.74,51.87 127.73,51.06 128.72,50.59 129.71,49.17 130.70,47.62 131.69,48.51 132.68,51.98 133.67,53.08 134.66,51.41 135.65,50.42 136.64,50.57 137.63,49.59 138.62,48.51 139.61,49.97 140.60,51.87 141.59,53.06 142.58,54.02 143.57,54.17 144.56,53.34 145.55,50.62 146.54,48.31 147.53,46.17 148.52,43.95 149.51,40.73 150.49,8.74 151.48,7.55 152.47,9.53 153.46,9.23 154.45,14.57 155.44,16.05 156.43,17.29 157.42,21.99 158.41,21.99 159.40,23.47 160.39,24.23 161.38,26.36 162.37,27.70 163.36,28.93 164.35,31.01 165.34,36.95 166.33,39.77 167.32,42.19 168.31,44.16 169.30,44.80 170.29,45.69 171.28,48.26 172.27,47.57 173.26,49.99 174.25,47.27 175.24,47.87 176.23,45.34 177.22,45.34 178.21,44.42 179.20,43.98 180.19,43.54 181.18,43.69 182.17,43.10 183.16,42.56 184.15,42.51 185.14,42.65 186.13,43.49 187.12,43.11 188.11,42.31 189.10,40.43 190.09,36.77 191.08,35.93 192.07,35.93 193.06,37.37 194.05,38.72 195.04,42.77 196.03,45.69 197.02,50.14 198.01,52.72 199.00,49.35 199.99,51.28 200.98,49.41 201.97,50.20 202.96,50.20 203.95,49.12 204.94,50.60 205.93,50.55 206.92,53.07 207.91,51.24 208.89,49.61 209.88,50.30 210.87,48.62 211.86,46.94 212.85,46.74 213.84,48.87 214.83,51.34 215.82,54.26 216.81,54.58 217.80,51.60 218.79,50.56 219.78,48.83 220.77,44.78 221.76,43.29 222.75,41.32 223.74,4.00 224.73,4.00 225.72,9.39 226.71,10.28 227.70,10.28 228.69,10.28 229.68,10.28 230.67,10.28 231.66,10.28 232.65,22.94 233.64,21.71 234.63,21.71 235.62,27.74 236.61,27.74 237.60,27.74 238.59,33.55 239.58,33.55 240.57,44.82 241.56,44.82 242.55,44.82 243.54,47.39 244.53,47.39 245.52,53.97 246.51,53.97 247.50,53.97 248.49,56.00 249.48,46.70 250.47,46.70 251.46,46.70 252.45,46.70 253.44,47.15 254.43,47.15 255.42,47.15 256.41,45.46 257.40,45.46 258.39,44.38 259.38,44.38 260.37,44.38 261.36,42.00 262.35,42.00 263.34,37.62 264.33,37.62 265.32,37.62 266.31,38.36 267.29,32.64 268.28,32.64 269.27,43.17 270.26,43.17 271.25,43.17 272.24,49.75 273.23,49.75 274.22,45.64 275.21,45.64 276.20,45.64 277.19,53.79 278.18,48.55 279.17,48.55 280.16,48.55 281.15,45.93 282.14,52.16 283.13,52.16 284.12,46.37 285.11,46.37 286.10,46.37 287.09,45.43 288.08,45.43 289.07,49.89 290.06,49.89 291.05,49.89 292.04,49.59 293.03,49.59 294.02,37.37 295.01,36.48 296.00,36.48" />
</svg>