<svg width="300" height="60" xmlns="http://www.w3.org/2000/svg">
  <polyline fill="rgba(255,200,0,0.3)" stroke="#ffbb00" stroke-width="2" points="4.00,36.55 4.23,38.36 4.46,38.50 4.69,38.80 4.92,39.49 5.15,39.96 5.38,41.21 5.61,44.73 5.84,46.66 6.07,47.45 6.30,47.10 6.54,45.90 6.77,42.04 7.00,41.51 7.23,39.99 7.46,40.51 7.69,40.08 7.92,39.32 8.15,37.69 8.38,38.21 8.61,37.25 8.84,39.45 9.07,39.79 9.30,36.78 9.53,34.46 9.76,33.44 9.99,31.59 10.22,30.82 10.45,29.42 10.68,29.26 10.91,30.27 11.14,32.07 11.37,30.27 11.61,27.01 11.84,25.03 12.07,24.12 12.30,19.94 12.53,18.04 12.76,11.94 12.99,14.44 13.22,20.58 13.45,23.36 13.68,28.96 13.91,31.56 14.14,30.19 14.37,28.57 14.60,28.06 14.83,27.02 15.06,27.11 15.29,23.36 15.52,22.07 15.75,21.54 15.98,20.00 16.21,18.25 16.45,18.24 16.68,18.65 16.91,20.37 17.14,19.95 17.37,19.43 17.60,19.47 17.83,19.90 18.06,21.34 18.29,23.13 18.52,23.89 18.75,23.86 18.98,22.52 19.21,24.37 19.44,27.87 19.67,30.02 19.90,32.18 20.13,33.60 20.36,33.41 20.59,31.75 20.82,30.18 21.05,29.34 21.28,30.78 21.52,29.68 21.75,28.18 21.98,25.14 22.21,24.59 22.44,28.01 22.67,28.65 22.90,28.13 23.13,25.19 23.36,28.22 23.59,29.71 23.82,27.89 24.05,27.16 24.28,27.41 24.51,29.90 24.74,34.07 24.97,35.62 25.20,36.29 25.43,37.87 25.66,39.64 25.89,40.30 26.12,39.90 26.36,35.48 26.59,33.94 26.82,33.64 27.05,36.15 27.28,41.22 27.51,44.50 27.74,47.20 27.97,50.93 28.20,45.45 28.43,43.08 28.66,39.32 28.89,39.91 29.12,45.53 29.35,48.56 29.58,56.00 29.81,54.82 30.04,54.90 30.27,53.37 30.50,51.03 30.73,48.99 30.96,50.99 31.19,53.74 31.43,54.75 31.66,54.58 31.89,54.88 32.12,51.40 32.35,49.86 32.58,44.79 32.81,40.25 33.04,40.27 33.27,42.99 33.50,44.04 33.73,44.42 33.96,43.93 34.19,42.86 34.42,42.25 34.65,41.77 34.88,40.73 35.11,40.04 35.34,39.08 35.57,39.35 35.80,40.47 36.03,41.66 36.27,41.96 36.50,40.13 36.73,38.46 36.96,37.84 37.19,38.45 37.42,39.50 37.65,39.42 37.88,39.23 38.11,39.00 38.34,38.69 38.57,38.66 38.80,38.45 39.03,39.33 39.26,40.39 39.49,42.56 39.72,40.44 39.95,37.08 40.18,35.49 40.41,7.65 40.64,8.03 40.87,7.91 41.10,8.07 41.34,8.21 41.57,8.84 41.80,10.00 42.03,11.37 42.26,13.39 42.49,14.16 42.72,13.56 42.95,12.47 43.18,12.68 43.41,13.22 43.64,13.06 43.87,13.22 44.10,13.21 44.33,13.64 44.56,13.40 44.79,13.50 45.02,14.30 45.25,13.75 45.48,13.91 45.71,14.42 45.94,16.11 46.18,16.13 46.41,15.43 46.64,13.76 46.87,11.76 47.10,11.93 47.33,11.55 47.56,11.50 47.79,11.99 48.02,12.54 48.25,13.06 48.48,13.34 48.71,13.58 48.94,14.55 49.17,15.89 49.40,15.93 49.63,15.58 49.86,15.89 50.09,16.20 50.32,16.26 50.55,16.14 50.78,16.83 51.01,17.83 51.25,18.78 51.48,19.08 51.71,19.89 51.94,20.27 52.17,20.21 52.40,19.87 52.63,37.84 52.86,38.45 53.09,39.50 53.32,39.42 53.55,39.23 53.78,39.00 54.01,35.49 54.24,35.53 54.47,36.17 54.70,35.80 54.93,34.90 55.16,32.95 55.39,31.57 55.62,31.40 55.85,32.15 56.09,31.43 56.32,29.14 56.55,28.65 56.78,28.16 57.01,27.75 57.24,27.06 57.47,26.24 57.70,26.37 57.93,28.48 58.16,34.78 58.39,33.44 58.62,31.36 58.85,28.05 59.08,25.34 59.31,23.06 59.54,21.22 59.77,18.69 60.00,16.91 60.23,16.22 60.46,16.13 60.69,16.40 60.93,14.61 61.16,12.01 61.39,9.63 61.62,9.36 61.85,9.69 62.08,10.73 62.31,11.37 62.54,10.47 62.77,12.63 63.00,15.16 63.23,19.19 63.46,21.50 63.69,19.51 63.92,17.71 64.15,18.01 64.38,18.31 64.61,19.29 64.84,21.01 65.07,23.17 65.30,21.35 65.53,18.46 65.76,16.61 66.00,14.49 66.23,13.86 66.46,13.53 66.69,13.02 66.92,12.23 67.15,10.64 67.38,8.33 67.61,5.59 67.84,4.17 68.07,4.52 68.30,5.97 68.53,8.59 68.76,12.85 68.99,18.11 69.22,16.11 69.45,14.93 69.68,14.21 69.91,12.29 70.14,11.24 70.37,10.71 70.60,10.39 70.84,10.43 71.07,9.13 71.30,7.96 71.53,7.32 71.76,7.64 71.99,8.03 72.22,20.27 72.45,20.21 72.68,19.87 72.91,20.44 73.14,21.17 73.37,21.48 73.60,21.27 73.83,21.40 74.06,22.22 74.29,23.39 74.52,23.56 74.75,22.50 74.98,21.11 75.21,19.52 75.44,19.00 75.67,18.74 75.91,18.50 76.14,18.22 76.37,19.00 76.60,19.20 76.83,20.28 77.06,20.67 77.29,20.23 77.52,20.27 77.75,20.13 77.98,20.53 78.21,21.09 78.44,22.10 78.67,23.52 78.90,25.77 79.13,36.40 79.36,38.41 79.59,38.34 79.82,38.73 80.05,39.36 80.28,39.79 80.51,40.96 80.75,44.38 80.98,45.64 81.21,48.03 81.44,46.96 81.67,46.72 81.90,41.83 82.13,41.35 82.36,40.78 82.59,39.56 82.82,40.29 83.05,38.07 83.28,37.25 83.51,38.10 83.74,37.56 83.97,39.03 84.20,40.45 84.43,37.05 84.66,35.27 84.89,33.95 85.12,31.32 85.35,30.29 85.58,29.27 85.82,29.62 86.05,30.94 86.28,31.21 86.51,30.42 86.74,25.94 86.97,23.78 87.20,22.64 87.43,19.71 87.66,18.63 87.89,12.42 88.12,13.00 88.35,20.54 88.58,23.40 88.81,28.48 89.04,32.48 89.27,30.10 89.50,28.23 89.73,28.64 89.96,27.82 90.19,25.96 90.42,22.89 90.66,22.00 90.89,20.72 91.12,18.86 91.35,17.47 91.58,19.16 91.81,19.66 92.04,20.73 92.27,20.67 92.50,18.91 92.73,19.46 92.96,19.97 93.19,21.38 93.42,23.08 93.65,23.97 93.88,23.50 94.11,22.43 94.34,24.58 94.57,27.84 94.80,30.40 95.03,31.86 95.26,32.93 95.49,32.85 95.73,32.56 95.96,30.62 96.19,30.78 96.42,30.48 96.65,30.86 96.88,28.10 97.11,24.64 97.34,24.94 97.57,27.02 97.80,28.58 98.03,28.27 98.26,24.55 98.49,28.79 98.72,29.13 98.95,28.54 99.18,26.84 99.41,28.02 99.64,30.31 99.87,34.74 100.10,35.64 100.33,36.27 100.57,38.42 100.80,39.83 101.03,40.88 101.26,39.80 101.49,36.21 101.72,33.24 101.95,33.16 102.18,35.04 102.41,40.31 102.64,44.30 102.87,45.42 103.10,50.04 103.33,45.44 103.56,42.39 103.79,38.20 104.02,39.84 104.25,45.60 104.48,47.59 104.71,53.99 104.94,54.90 105.17,54.99 105.40,53.23 105.64,51.60 105.87,50.69 106.10,51.24 106.33,54.00 106.56,54.91 106.79,54.47 107.02,54.57 107.25,52.91 107.48,49.86 107.71,44.24 107.94,39.54 108.17,41.51 108.40,43.76 108.63,45.57 108.86,44.53 109.09,43.68 109.32,42.69 109.55,42.27 109.78,41.64 110.01,40.59 110.24,39.88 110.48,39.13 110.71,38.84 110.94,40.50 111.17,41.69 111.40,42.01 111.63,39.71 111.86,38.51 112.09,37.72 112.32,38.59 112.55,39.15 112.78,39.01 113.01,39.31 113.24,38.53 113.47,38.85 113.70,38.47 113.93,37.85 114.16,39.27 114.39,41.10 114.62,42.44 114.85,41.02 115.08,38.01 115.31,37.06 115.55,35.74 115.78,35.60 116.01,36.26 116.24,34.94 116.47,33.10 116.70,31.55 116.93,31.50 117.16,32.45 117.39,31.98 117.62,29.57 117.85,28.18 118.08,28.20 118.31,26.56 118.54,26.94 118.77,26.78 119.00,26.82 119.23,28.77 119.46,34.21 119.69,34.20 119.92,30.66 120.15,29.57 120.39,25.42 120.62,23.05 120.85,22.02 121.08,18.82 121.31,16.79 121.54,16.18 121.77,16.60 122.00,17.09 122.23,14.42 122.46,11.89 122.69,9.74 122.92,9.44 123.15,9.63 123.38,10.66 123.61,10.72 123.84,10.46 124.07,12.37 124.30,15.13 124.53,19.50 124.76,21.04 124.99,19.44 125.22,17.36 125.46,17.80 125.69,18.40 125.92,18.64 126.15,20.42 126.38,21.86 126.61,22.13 126.84,18.42 127.07,18.06 127.30,14.33 127.53,13.70 127.76,13.15 127.99,13.05 128.22,11.97 128.45,11.02 128.68,8.86 128.91,5.77 129.14,4.22 129.37,4.62 129.60,5.23 129.83,8.37 130.06,12.06 130.30,18.19 130.53,15.66 130.76,14.98 130.99,13.58 131.22,11.92 131.45,11.33 131.68,10.21 131.91,10.11 132.14,10.42 132.37,9.11 132.60,7.68 132.83,7.09 133.06,7.37 133.29,7.57 133.52,7.70 133.75,7.92 133.98,8.04 134.21,9.04 134.44,10.06 134.67,11.32 134.90,12.71 135.13,13.78 135.37,13.20 135.60,12.18 135.83,12.36 136.06,12.99 136.29,12.43 136.52,12.89 136.75,12.98 136.98,13.12 137.21,12.85 137.44,12.88 137.67,13.67 137.90,13.62 138.13,13.76 138.36,14.41 138.59,15.68 138.82,16.29 139.05,15.83 139.28,13.44 139.51,12.59 139.74,12.50 139.97,11.94 140.21,11.39 140.44,11.84 140.67,12.88 140.90,13.77 141.13,14.13 141.36,13.44 141.59,15.00 141.82,16.36 142.05,16.16 142.28,15.51 142.51,15.81 142.74,16.35 142.97,16.15 143.20,16.32 143.43,16.52 143.66,17.80 143.89,18.63 144.12,19.02 144.35,19.94 144.58,20.14 144.81,20.32 145.04,19.98 145.28,20.22 145.51,20.78 145.74,21.23 145.97,21.13 146.20,21.33 146.43,22.49 146.66,23.15 146.89,23.62 147.12,22.44 147.35,21.21 147.58,19.40 147.81,19.14 148.04,18.67 148.27,18.32 148.50,18.09 148.73,18.86 148.96,19.35 149.19,19.71 149.42,20.61 149.65,20.61 149.88,20.32 150.12,20.01 150.35,20.39 150.58,20.91 150.81,22.04 151.04,23.61 151.27,25.36 151.50,37.18 151.73,37.69 151.96,37.96 152.19,38.20 152.42,41.01 152.65,39.23 152.88,41.70 153.11,43.36 153.34,46.27 153.57,49.48 153.80,45.09 154.03,47.08 154.26,42.50 154.49,40.26 154.72,40.50 154.96,38.52 155.19,38.21 155.42,37.95 155.65,35.48 155.88,37.79 156.11,41.05 156.34,40.14 156.57,38.66 156.80,36.74 157.03,35.64 157.26,33.15 157.49,30.97 157.72,29.37 157.95,28.58 158.18,27.91 158.41,31.70 158.64,31.70 158.87,33.38 159.10,29.06 159.33,26.17 159.56,24.07 159.79,20.67 160.03,19.45 160.26,12.83 160.49,14.86 160.72,20.12 160.95,23.18 161.18,27.41 161.41,29.78 161.64,30.42 161.87,30.48 162.10,26.72 162.33,28.67 162.56,26.53 162.79,23.71 163.02,21.20 163.25,19.18 163.48,19.34 163.71,17.12 163.94,20.47 164.17,19.75 164.40,19.75 164.63,18.69 164.87,20.66 165.10,19.30 165.33,20.88 165.56,22.30 165.79,23.29 166.02,23.69 166.25,23.59 166.48,23.51 166.71,25.93 166.94,29.01 167.17,33.46 167.40,33.24 167.63,32.52 167.86,35.07 168.09,31.71 168.32,31.71 168.55,29.85 168.78,30.60 169.01,30.84 169.24,26.61 169.47,23.61 169.70,26.69 169.94,23.80 170.17,28.76 170.40,29.13 170.63,25.00 170.86,28.87 171.09,30.39 171.32,30.45 171.55,25.47 171.78,26.46 172.01,28.93 172.24,36.42 172.47,35.60 172.70,38.17 172.93,40.48 173.16,41.43 173.39,40.92 173.62,39.65 173.85,37.12 174.08,32.12 174.31,34.07 174.54,35.36 174.78,40.50 175.01,45.18 175.24,45.18 175.47,47.12 175.70,47.73 175.93,41.73 176.16,37.40 176.39,41.83 176.62,46.16 176.85,46.16 177.08,51.14 177.31,54.92 177.54,54.28 177.77,54.40 178.00,51.28 178.23,49.05 178.46,52.57 178.69,53.53 178.92,54.40 179.15,54.96 179.38,52.62 179.61,52.62 179.85,50.04 180.08,44.94 180.31,40.17 180.54,39.38 180.77,44.84 181.00,45.23 181.23,44.16 181.46,47.11 181.69,42.58 181.92,41.93 182.15,44.05 182.38,42.28 182.61,39.65 182.84,38.89 183.07,41.62 183.30,40.09 183.53,43.93 183.76,44.03 183.99,40.23 184.22,37.50 184.45,38.32 184.69,38.32 184.92,38.48 185.15,38.68 185.38,38.58 185.61,39.01 185.84,36.41 186.07,37.87 186.30,36.39 186.53,38.69 186.76,41.50 186.99,41.90 187.22,39.96 187.45,40.87 187.68,38.42 187.91,34.56 188.14,36.66 188.37,34.92 188.60,35.06 188.83,33.28 189.06,31.48 189.29,32.17 189.52,31.64 189.76,30.35 189.99,28.99 190.22,28.10 190.45,27.86 190.68,28.02 190.91,28.12 191.14,27.72 191.37,27.72 191.60,29.01 191.83,34.01 192.06,34.42 192.29,29.20 192.52,30.01 192.75,25.11 192.98,23.57 193.21,20.75 193.44,17.75 193.67,15.16 193.90,15.57 194.13,15.57 194.36,18.36 194.60,16.38 194.83,13.08 195.06,10.27 195.29,10.37 195.52,9.87 195.75,10.55 195.98,11.28 196.21,11.00 196.44,13.23 196.67,15.33 196.90,19.76 197.13,19.74 197.36,20.22 197.59,18.14 197.82,16.95 198.05,20.00 198.28,19.01 198.51,22.04 198.74,20.96 198.97,22.04 199.20,19.24 199.43,18.09 199.67,15.05 199.90,11.81 200.13,14.08 200.36,13.78 200.59,11.13 200.82,10.52 201.05,7.75 201.28,5.20 201.51,4.31 201.74,5.18 201.97,5.18 202.20,8.56 202.43,11.82 202.66,16.74 202.89,15.09 203.12,16.10 203.35,13.10 203.58,10.41 203.81,11.20 204.04,9.24 204.27,10.35 204.51,11.00 204.74,8.13 204.97,7.63 205.20,7.77 205.43,6.82 205.66,7.55 205.89,7.44 206.12,7.86 206.35,8.86 206.58,9.89 206.81,9.81 207.04,11.57 207.27,13.88 207.50,13.84 207.73,13.23 207.96,12.14 208.19,12.77 208.42,12.12 208.65,11.74 208.88,13.65 209.11,13.02 209.34,12.46 209.58,13.99 209.81,13.12 210.04,12.60 210.27,13.73 210.50,12.94 210.73,14.34 210.96,16.36 211.19,17.17 211.42,16.34 211.65,14.06 211.88,11.15 212.11,13.68 212.34,12.51 212.57,10.54 212.80,13.37 213.03,11.89 213.26,14.24 213.49,16.73 213.72,14.26 213.95,17.01 214.18,16.55 214.42,16.52 214.65,15.42 214.88,16.41 215.11,16.49 215.34,16.90 215.57,16.55 215.80,16.86 216.03,17.67 216.26,18.54 216.49,19.43 216.72,19.90 216.95,20.67 217.18,20.10 217.41,20.10 217.64,19.96 217.87,21.23 218.10,22.16 218.33,21.42 218.56,21.52 218.79,22.54 219.02,23.48 219.25,23.56 219.49,22.71 219.72,21.47 219.95,20.28 220.18,19.51 220.41,18.59 220.64,18.66 220.87,17.97 221.10,19.08 221.33,19.34 221.56,20.78 221.79,21.49 222.02,21.30 222.25,20.91 222.48,20.65 222.71,20.77 222.94,21.42 223.17,22.63 223.40,24.31 223.63,25.31 223.86,35.61 224.09,35.61 224.33,35.61 224.56,37.94 224.79,37.94 225.02,37.94 225.25,44.76 225.48,44.57 225.71,44.57 225.94,44.57 226.17,34.29 226.40,37.05 226.63,37.05 226.86,37.05 227.09,33.41 227.32,33.41 227.55,43.21 227.78,43.21 228.01,43.21 228.24,43.55 228.47,43.55 228.70,43.55 228.93,38.92 229.16,38.92 229.40,38.92 229.63,38.41 229.86,38.41 230.09,30.19 230.32,30.19 230.55,30.19 230.78,25.80 231.01,25.80 231.24,25.80 231.47,25.80 231.70,17.47 231.93,17.47 232.16,17.47 232.39,26.94 232.62,26.94 232.85,23.43 233.08,23.43 233.31,23.43 233.54,27.68 233.77,27.68 234.00,27.68 234.24,34.52 234.47,34.52 234.70,22.03 234.93,22.03 235.16,22.03 235.39,15.96 235.62,17.15 235.85,26.46 236.08,26.46 236.31,26.46 236.54,23.12 236.77,23.12 237.00,23.12 237.23,23.12 237.46,25.71 237.69,25.71 237.92,25.71 238.15,26.89 238.38,26.89 238.61,26.89 238.84,28.16 239.07,27.72 239.31,27.72 239.54,35.61 239.77,30.04 240.00,30.04 240.23,39.56 240.46,39.56 240.69,39.56 240.92,26.62 241.15,33.65 241.38,33.65 241.61,24.58 241.84,24.58 242.07,24.58 242.30,24.58 242.53,22.52 242.76,22.52 242.99,22.52 243.22,29.34 243.45,29.34 243.68,33.79 243.91,25.07 244.15,25.07 244.38,29.88 244.61,29.88 244.84,39.31 245.07,39.31 245.30,39.31 245.53,46.86 245.76,40.95 245.99,40.95 246.22,40.95 246.45,26.79 246.68,26.79 246.91,26.79 247.14,37.50 247.37,37.50 247.60,37.50 247.83,37.50 248.06,46.57 248.29,32.22 248.52,32.22 248.75,40.36 248.99,40.36 249.22,40.36 249.45,40.36 249.68,52.19 249.91,52.19 250.14,52.19 250.37,48.77 250.60,48.77 250.83,55.31 251.06,53.23 251.29,53.23 251.52,53.23 251.75,47.46 251.98,47.46 252.21,51.34 252.44,51.34 252.67,51.34 252.90,44.40 253.13,44.40 253.36,55.01 253.59,55.01 253.82,55.01 254.06,43.25 254.29,51.75 254.52,51.75 254.75,51.75 254.98,40.13 255.21,49.26 255.44,49.26 255.67,49.26 255.90,44.97 256.13,44.97 256.36,45.22 256.59,45.22 256.82,37.20 257.05,37.20 257.28,37.20 257.51,37.20 257.74,35.89 257.97,35.89 258.20,35.89 258.43,38.30 258.66,30.87 258.90,30.87 259.13,34.47 259.36,34.47 259.59,34.47 259.82,40.48 260.05,40.48 260.28,38.11 260.51,38.11 260.74,38.11 260.97,38.80 261.20,38.80 261.43,33.38 261.66,33.38 261.89,33.38 262.12,33.38 262.35,30.02 262.58,30.02 262.81,30.02 263.04,28.60 263.27,28.60 263.50,28.60 263.73,28.71 263.97,28.71 264.20,28.71 264.43,28.71 264.66,29.62 264.89,29.62 265.12,29.62 265.35,29.62 265.58,17.43 265.81,17.43 266.04,17.43 266.27,16.26 266.50,16.26 266.73,16.26 266.96,16.26 267.19,10.75 267.42,10.75 267.65,10.75 267.88,9.40 268.11,12.25 268.34,12.25 268.57,12.25 268.81,15.93 269.04,15.93 269.27,15.93 269.50,12.45 269.73,12.45 269.96,12.45 270.19,7.59 270.42,18.64 270.65,18.64 270.88,15.65 271.11,15.65 271.34,15.65 271.57,14.90 271.80,14.90 272.03,22.16 272.26,12.29 272.49,12.29 272.72,12.29 272.95,12.29 273.18,10.26 273.41,10.26 273.64,10.26 273.88,5.31 274.11,5.75 274.34,5.75 274.57,5.75 274.80,12.55 275.03,12.55 275.26,8.30 275.49,10.06 275.72,10.06 275.95,10.06 276.18,10.06 276.41,5.36 276.64,5.36 276.87,5.36 277.10,6.91 277.33,6.91 277.56,6.91 277.79,6.91 278.02,8.49 278.25,8.49 278.48,8.49 278.72,12.38 278.95,11.47 279.18,11.47 279.41,11.47 279.64,14.26 279.87,9.67 280.10,9.67 280.33,6.47 280.56,12.34 280.79,12.34 281.02,10.46 281.25,10.46 281.48,10.46 281.71,7.78 281.94,7.78 282.17,7.78 282.40,4.00 282.63,11.37 282.86,11.37 283.09,11.37 283.32,15.56 283.55,15.56 283.79,15.56 284.02,13.79 284.25,13.79 284.48,13.79 284.71,13.79 284.94,11.14 285.17,11.14 285.40,11.14 285.63,18.87 285.86,18.87 286.09,18.87 286.32,25.23 286.55,15.56 286.78,15.56 287.01,15.56 287.24,23.45 287.47,18.13 287.70,18.13 287.93,19.60 288.16,19.60 288.39,19.60 288.63,22.19 288.86,22.19 289.09,23.55 289.32,20.72 289.55,20.72 289.78,20.72 290.01,20.72 290.24,22.97 290.47,21.51 290.70,21.51 290.93,21.51 291.16,24.51 291.39,24.51 291.62,25.38 291.85,25.38 292.08,25.38 292.31,20.62 292.54,20.62 292.77,19.34 293.00,19.34 293.23,19.34 293.46,19.34 293.70,19.43 293.93,19.43 294.16,19.43 294.39,21.22 294.62,21.22 294.85,21.22 295.08,21.42 295.31,21.42 295.54,21.42 295.77,28.11 296.00,28.11" />
</svg>