<svg width="300" height="60" xmlns="http://www.w3.org/2000/svg">
  <polyline fill="rgba(255,200,0,0.3)" stroke="#ffbb00" stroke-width="2" points="4.00,6.63 4.19,7.22 4.37,7.72 4.56,8.22 4.74,8.79 4.93,9.35 5.11,9.80 5.30,10.06 5.48,10.40 5.67,10.71 5.85,11.01 6.04,11.39 6.22,11.82 6.41,12.23 6.60,12.39 6.78,12.51 6.97,12.83 7.15,13.20 7.34,13.56 7.52,13.91 7.71,14.22 7.89,14.44 8.08,14.56 8.26,14.53 8.45,14.16 8.63,13.85 8.82,13.49 9.01,13.31 9.19,13.31 9.38,13.40 9.56,13.44 9.75,13.51 9.93,13.60 10.12,13.44 10.30,13.02 10.49,12.44 10.67,12.04 10.86,11.73 11.05,11.58 11.23,11.64 11.42,11.70 11.60,11.89 11.79,12.26 11.97,12.77 12.16,13.13 12.34,13.28 12.53,13.49 12.71,14.15 12.90,14.72 13.08,15.34 13.27,15.70 13.46,15.93 13.64,16.22 13.83,16.56 14.01,16.80 14.20,16.85 14.38,16.76 14.57,16.57 14.75,16.71 14.94,17.20 15.12,17.79 15.31,18.36 15.49,18.69 15.68,18.72 15.87,18.92 16.05,19.32 16.24,19.89 16.42,20.55 16.61,21.01 16.79,21.11 16.98,21.37 17.16,21.96 17.35,22.51 17.53,22.86 17.72,22.96 17.90,22.83 18.09,22.87 18.28,23.03 18.46,23.00 18.65,22.80 18.83,22.69 19.02,22.77 19.20,23.16 19.39,23.67 19.57,24.19 19.76,24.23 19.94,23.87 20.13,23.43 20.31,23.08 20.50,22.95 20.69,23.00 20.87,22.74 21.06,22.23 21.24,21.78 21.43,21.38 21.61,20.90 21.80,20.44 21.98,20.32 22.17,20.16 22.35,19.50 22.54,18.95 22.73,18.68 22.91,18.39 23.10,17.99 23.28,17.51 23.47,17.19 23.65,17.01 23.84,16.63 24.02,15.95 24.21,15.41 24.39,15.22 24.58,14.97 24.76,14.66 24.95,14.39 25.14,14.28 25.32,14.26 25.51,14.65 25.69,15.16 25.88,15.75 26.06,16.10 26.25,16.26 26.43,16.66 26.62,17.22 26.80,17.57 26.99,17.85 27.17,18.11 27.36,18.22 27.55,18.10 27.73,17.83 27.92,17.36 28.10,16.87 28.29,16.53 28.47,16.52 28.66,16.73 28.84,17.04 29.03,17.41 29.21,17.90 29.40,18.41 29.58,19.08 29.77,19.67 29.96,20.19 30.14,20.69 30.33,21.19 30.51,21.61 30.70,21.87 30.88,22.03 31.07,22.13 31.25,22.29 31.44,22.64 31.62,23.17 31.81,23.63 31.99,23.85 32.18,23.93 32.37,24.33 32.55,24.75 32.74,25.10 32.92,25.45 33.11,25.61 33.29,25.48 33.48,25.16 33.66,25.01 33.85,25.31 34.03,25.84 34.22,26.41 34.41,26.88 34.59,27.48 34.78,27.73 34.96,27.90 35.15,28.13 35.33,28.35 35.52,28.32 35.70,28.15 35.89,28.23 36.07,28.46 36.26,28.69 36.44,29.05 36.63,29.44 36.82,29.70 37.00,29.68 37.19,29.49 37.37,29.18 37.56,28.72 37.74,28.25 37.93,27.82 38.11,27.50 38.30,27.53 38.48,27.72 38.67,27.40 38.85,27.07 39.04,26.52 39.23,26.27 39.41,25.88 39.60,25.50 39.78,25.09 39.97,24.98 40.15,24.75 40.34,24.13 40.52,23.49 40.71,23.13 40.89,23.20 41.08,23.61 41.26,24.30 41.45,24.93 41.64,25.22 41.82,25.87 42.01,26.07 42.19,26.53 42.38,26.91 42.56,27.17 42.75,27.24 42.93,27.21 43.12,27.36 43.30,27.90 43.49,28.53 43.67,29.13 43.86,29.52 44.05,29.69 44.23,29.74 44.42,29.65 44.60,29.50 44.79,29.12 44.97,28.77 45.16,28.52 45.34,28.35 45.53,28.21 45.71,28.32 45.90,28.45 46.09,28.52 46.27,28.49 46.46,28.53 46.64,28.59 46.83,28.62 47.01,28.43 47.20,28.04 47.38,27.66 47.57,27.58 47.75,27.78 47.94,28.26 48.12,28.82 48.31,29.15 48.50,29.28 48.68,29.37 48.87,29.64 49.05,29.98 49.24,30.09 49.42,30.32 49.61,30.75 49.79,31.35 49.98,31.90 50.16,32.27 50.35,32.50 50.53,33.10 50.72,33.65 50.91,33.88 51.09,34.03 51.28,34.08 51.46,34.29 51.65,34.54 51.83,34.60 52.02,34.32 52.20,33.91 52.39,33.44 52.57,33.05 52.76,32.66 52.94,32.27 53.13,31.88 53.32,31.77 53.50,31.85 53.69,32.12 53.87,32.20 54.06,32.06 54.24,31.74 54.43,31.50 54.61,31.75 54.80,32.21 54.98,32.51 55.17,32.89 55.35,33.21 55.54,33.75 55.73,34.35 55.91,34.78 56.10,35.13 56.28,35.31 56.47,35.48 56.65,35.99 56.84,36.01 57.02,36.24 57.21,36.35 57.39,36.74 57.58,37.38 57.77,38.06 57.95,38.66 58.14,38.92 58.32,39.19 58.51,39.67 58.69,40.12 58.88,40.60 59.06,40.92 59.25,41.03 59.43,41.46 59.62,42.16 59.80,42.71 59.99,43.13 60.18,43.33 60.36,43.45 60.55,43.44 60.73,43.29 60.92,43.02 61.10,42.53 61.29,41.96 61.47,41.56 61.66,41.35 61.84,41.17 62.03,40.74 62.21,40.38 62.40,40.18 62.59,40.15 62.77,40.29 62.96,40.50 63.14,40.90 63.33,41.35 63.51,41.94 63.70,42.67 63.88,43.42 64.07,43.91 64.25,44.19 64.44,44.72 64.62,45.42 64.81,45.99 65.00,46.52 65.18,46.88 65.37,47.30 65.55,47.79 65.74,48.01 65.92,48.36 66.11,48.79 66.29,49.14 66.48,49.49 66.66,49.83 66.85,50.16 67.03,50.48 67.22,50.81 67.41,51.21 67.59,51.38 67.78,51.28 67.96,50.94 68.15,50.57 68.33,50.23 68.52,50.10 68.70,49.82 68.89,49.28 69.07,48.74 69.26,48.31 69.45,47.77 69.63,47.52 69.82,47.26 70.00,46.66 70.19,46.32 70.37,46.27 70.56,46.36 70.74,46.77 70.93,47.17 71.11,47.49 71.30,47.78 71.48,48.25 71.67,48.91 71.86,49.39 72.04,49.92 72.23,49.57 72.41,49.69 72.60,49.85 72.78,50.11 72.97,50.45 73.15,50.68 73.34,50.79 73.52,50.81 73.71,50.85 73.89,50.96 74.08,51.04 74.27,51.15 74.45,51.18 74.64,51.17 74.82,51.03 75.01,50.82 75.19,50.41 75.38,49.94 75.56,49.63 75.75,49.57 75.93,49.21 76.12,48.73 76.30,48.45 76.49,48.46 76.68,48.54 76.86,48.65 77.05,6.67 77.23,7.41 77.42,7.86 77.60,8.46 77.79,8.93 77.97,9.52 78.16,9.88 78.34,10.12 78.53,10.50 78.71,10.72 78.90,11.09 79.09,11.37 79.27,11.90 79.46,12.34 79.64,12.46 79.83,12.71 80.01,12.98 80.20,13.32 80.38,13.54 80.57,13.92 80.75,14.16 80.94,14.32 81.13,14.59 81.31,14.58 81.50,14.12 81.68,13.66 81.87,13.39 82.05,13.17 82.24,13.31 82.42,13.13 82.61,13.38 82.79,13.43 82.98,13.68 83.16,13.44 83.35,13.01 83.54,12.50 83.72,11.96 83.91,11.71 84.09,11.60 84.28,11.42 84.46,11.53 84.65,11.65 84.83,11.96 85.02,12.83 85.20,13.19 85.39,13.38 85.57,13.75 85.76,14.67 85.95,15.32 86.13,15.53 86.32,15.87 86.50,16.26 86.69,16.36 86.87,16.43 87.06,16.62 87.24,16.83 87.43,16.60 87.61,16.59 87.80,16.85 87.98,17.21 88.17,17.79 88.36,18.56 88.54,18.95 88.73,18.87 88.91,19.04 89.10,19.39 89.28,19.93 89.47,20.69 89.65,21.17 89.84,21.20 90.02,21.46 90.21,22.10 90.39,22.81 90.58,22.85 90.77,22.95 90.95,22.86 91.14,22.85 91.32,23.01 91.51,23.06 91.69,22.71 91.88,22.76 92.06,22.86 92.25,23.30 92.43,23.87 92.62,24.43 92.81,24.22 92.99,23.85 93.18,23.27 93.36,23.13 93.55,23.03 93.73,23.23 93.92,22.59 94.10,22.31 94.29,22.22 94.47,21.34 94.66,20.89 94.84,20.72 95.03,20.40 95.22,20.27 95.40,19.55 95.59,18.84 95.77,18.43 95.96,18.36 96.14,17.84 96.33,17.47 96.51,17.16 96.70,17.04 96.88,16.43 97.07,15.84 97.25,15.29 97.44,15.22 97.63,14.91 97.81,14.67 98.00,14.60 98.18,14.46 98.37,14.43 98.55,14.95 98.74,15.31 98.92,15.78 99.11,16.17 99.29,16.30 99.48,17.05 99.66,17.43 99.85,17.73 100.04,17.91 100.22,18.20 100.41,18.35 100.59,18.25 100.78,17.81 100.96,17.23 101.15,16.82 101.33,16.57 101.52,16.63 101.70,16.79 101.89,17.14 102.07,17.54 102.26,17.95 102.45,18.50 102.63,19.09 102.82,19.62 103.00,20.24 103.19,20.74 103.37,21.20 103.56,21.59 103.74,21.73 103.93,22.11 104.11,22.14 104.30,22.31 104.49,22.56 104.67,23.13 104.86,23.58 105.04,23.87 105.23,23.92 105.41,24.33 105.60,24.67 105.78,25.14 105.97,25.23 106.15,25.59 106.34,25.39 106.52,25.12 106.71,25.05 106.90,25.45 107.08,26.06 107.27,26.59 107.45,26.90 107.64,27.44 107.82,27.61 108.01,27.88 108.19,28.10 108.38,28.25 108.56,28.23 108.75,28.17 108.93,28.28 109.12,28.59 109.31,28.79 109.49,29.42 109.68,29.72 109.86,30.10 110.05,29.79 110.23,29.48 110.42,29.25 110.60,28.69 110.79,28.31 110.97,27.61 111.16,27.34 111.34,27.53 111.53,27.84 111.72,27.40 111.90,27.29 112.09,26.56 112.27,26.42 112.46,25.75 112.64,25.64 112.83,25.24 113.01,25.17 113.20,24.60 113.38,23.88 113.57,23.40 113.75,23.08 113.94,23.24 114.13,23.55 114.31,24.54 114.50,25.13 114.68,25.20 114.87,25.70 115.05,25.97 115.24,26.16 115.42,26.92 115.61,26.96 115.79,27.28 115.98,27.27 116.17,27.50 116.35,27.99 116.54,28.98 116.72,29.44 116.91,29.65 117.09,29.61 117.28,29.69 117.46,29.58 117.65,29.56 117.83,29.02 118.02,28.77 118.20,28.58 118.39,28.43 118.58,28.34 118.76,28.50 118.95,28.58 119.13,28.70 119.32,28.58 119.50,28.59 119.69,28.66 119.87,28.65 120.06,28.44 120.24,27.84 120.43,27.59 120.61,27.58 120.80,27.80 120.99,28.33 121.17,28.98 121.36,29.48 121.54,29.35 121.73,29.39 121.91,29.55 122.10,29.94 122.28,30.21 122.47,30.71 122.65,30.79 122.84,31.74 123.02,32.35 123.21,32.47 123.40,33.07 123.58,33.60 123.77,33.73 123.95,34.05 124.14,34.41 124.32,34.19 124.51,34.87 124.69,35.52 124.88,34.85 125.06,34.64 125.25,34.15 125.43,33.93 125.62,33.48 125.81,32.93 125.99,32.34 126.18,32.18 126.36,31.85 126.55,31.91 126.73,32.44 126.92,32.17 127.10,32.28 127.29,31.66 127.47,31.39 127.66,31.86 127.85,32.40 128.03,32.57 128.22,32.78 128.40,33.15 128.59,33.79 128.77,34.46 128.96,34.77 129.14,35.04 129.33,35.36 129.51,35.45 129.70,35.89 129.88,35.89 130.07,36.31 130.26,36.49 130.44,37.07 130.63,37.38 130.81,38.03 131.00,38.61 131.18,38.94 131.37,39.29 131.55,39.73 131.74,40.17 131.92,40.69 132.11,41.01 132.29,41.10 132.48,41.66 132.67,42.33 132.85,42.98 133.04,43.27 133.22,43.56 133.41,43.53 133.59,43.53 133.78,43.30 133.96,42.85 134.15,42.16 134.33,41.90 134.52,41.38 134.70,41.11 134.89,40.85 135.08,40.47 135.26,40.43 135.45,40.26 135.63,40.23 135.82,40.42 136.00,40.40 136.19,41.03 136.37,41.29 136.56,42.01 136.74,42.59 136.93,43.70 137.11,43.97 137.30,44.26 137.49,44.84 137.67,45.89 137.86,46.44 138.04,47.08 138.23,47.03 138.41,47.43 138.60,47.83 138.78,48.30 138.97,48.42 139.15,48.81 139.34,49.33 139.53,49.62 139.71,49.90 139.90,50.28 140.08,50.53 140.27,50.96 140.45,51.23 140.64,51.44 140.82,51.32 141.01,50.91 141.19,50.55 141.38,50.19 141.56,50.14 141.75,49.67 141.94,49.26 142.12,48.81 142.31,48.05 142.49,47.67 142.68,47.44 142.86,47.26 143.05,46.69 143.23,46.36 143.42,46.31 143.60,46.39 143.79,46.71 143.97,47.10 144.16,47.21 144.35,47.61 144.53,48.48 144.72,49.12 144.90,49.52 145.09,49.79 145.27,49.58 145.46,49.75 145.64,49.87 145.83,50.11 146.01,50.51 146.20,50.76 146.38,50.89 146.57,50.82 146.76,50.88 146.94,51.06 147.13,51.20 147.31,51.22 147.50,51.21 147.68,51.21 147.87,51.10 148.05,50.97 148.24,50.39 148.42,50.01 148.61,49.76 148.79,49.66 148.98,49.22 149.17,48.73 149.35,48.50 149.54,48.51 149.72,48.57 149.91,48.80 150.09,6.36 150.28,7.26 150.46,7.55 150.65,8.07 150.83,8.92 151.02,8.68 151.21,9.58 151.39,9.65 151.58,10.25 151.76,10.76 151.95,10.97 152.13,10.93 152.32,11.12 152.50,11.49 152.69,11.95 152.87,12.63 153.06,12.66 153.24,13.30 153.43,13.77 153.62,13.92 153.80,14.56 153.99,15.16 154.17,15.58 154.36,15.65 154.54,15.32 154.73,13.85 154.91,13.14 155.10,13.68 155.28,13.11 155.47,13.61 155.65,13.16 155.84,13.93 156.03,13.49 156.21,13.22 156.40,13.23 156.58,12.50 156.77,12.63 156.95,12.23 157.14,12.14 157.32,12.41 157.51,12.49 157.69,12.60 157.88,12.90 158.06,13.57 158.25,12.63 158.44,14.38 158.62,15.57 158.81,15.31 158.99,17.10 159.18,15.48 159.36,15.98 159.55,16.58 159.73,16.58 159.92,16.20 160.10,17.14 160.29,16.66 160.47,16.64 160.66,16.54 160.85,16.57 161.03,17.15 161.22,17.82 161.40,18.37 161.59,18.55 161.77,19.52 161.96,19.05 162.14,19.07 162.33,19.75 162.51,20.84 162.70,20.16 162.89,20.60 163.07,21.33 163.26,21.33 163.44,22.11 163.63,22.42 163.81,22.98 164.00,22.77 164.18,23.65 164.37,23.52 164.55,24.27 164.74,23.01 164.92,23.06 165.11,23.19 165.30,23.39 165.48,23.56 165.67,24.68 165.85,24.32 166.04,23.92 166.22,23.10 166.41,23.75 166.59,24.15 166.78,23.13 166.96,23.33 167.15,21.91 167.33,23.08 167.52,22.52 167.71,21.90 167.89,20.37 168.08,20.16 168.26,20.24 168.45,19.58 168.63,18.91 168.82,18.14 169.00,18.06 169.19,17.61 169.37,17.33 169.56,17.22 169.74,17.15 169.93,16.40 170.12,16.21 170.30,15.20 170.49,15.24 170.67,14.80 170.86,14.80 171.04,14.37 171.23,14.33 171.41,14.38 171.60,15.34 171.78,14.85 171.97,15.69 172.15,16.77 172.34,17.20 172.53,17.78 172.71,18.66 172.90,18.19 173.08,18.22 173.27,18.37 173.45,18.37 173.64,17.99 173.82,18.56 174.01,17.49 174.19,17.24 174.38,16.61 174.57,16.40 174.75,16.13 174.94,17.19 175.12,17.54 175.31,18.04 175.49,18.74 175.68,19.27 175.86,19.51 176.05,20.72 176.23,21.68 176.42,21.22 176.60,21.96 176.79,21.68 176.98,22.46 177.16,22.15 177.35,22.52 177.53,22.91 177.72,23.77 177.90,23.33 178.09,24.04 178.27,24.19 178.46,24.47 178.64,25.23 178.83,25.36 179.01,25.36 179.20,25.57 179.39,25.84 179.57,25.45 179.76,25.31 179.94,25.51 180.13,25.80 180.31,26.12 180.50,26.34 180.68,27.36 180.87,27.41 181.05,27.82 181.24,29.20 181.42,28.67 181.61,28.29 181.80,28.12 181.98,28.30 182.17,28.39 182.35,28.83 182.54,29.52 182.72,28.65 182.91,29.25 183.09,29.57 183.28,29.77 183.46,28.54 183.65,28.31 183.83,27.61 184.02,27.39 184.21,26.76 184.39,27.84 184.58,27.48 184.76,27.09 184.95,26.38 185.13,25.74 185.32,25.12 185.50,24.58 185.69,25.75 185.87,24.42 186.06,25.49 186.25,23.92 186.43,23.20 186.62,23.20 186.80,22.62 186.99,22.66 187.17,22.50 187.36,24.18 187.54,24.67 187.73,24.84 187.91,25.79 188.10,25.89 188.28,25.98 188.47,28.45 188.66,26.55 188.84,27.23 189.03,27.71 189.21,28.07 189.40,27.56 189.58,28.50 189.77,29.64 189.95,29.71 190.14,29.65 190.32,30.80 190.51,29.92 190.69,30.48 190.88,29.04 191.07,29.01 191.25,28.77 191.44,28.53 191.62,28.35 191.81,28.29 191.99,28.83 192.18,28.53 192.36,28.58 192.55,28.96 192.73,28.63 192.92,28.61 193.10,28.53 193.29,28.18 193.48,27.71 193.66,27.45 193.85,27.72 194.03,28.10 194.22,28.79 194.40,29.59 194.59,28.65 194.77,29.14 194.96,29.65 195.14,29.34 195.33,29.42 195.51,30.34 195.70,30.08 195.89,30.72 196.07,31.89 196.26,31.81 196.44,32.38 196.63,32.92 196.81,33.19 197.00,34.75 197.18,34.56 197.37,34.81 197.55,35.68 197.74,34.76 197.93,35.52 198.11,33.87 198.30,34.38 198.48,33.30 198.67,33.85 198.85,32.96 199.04,31.51 199.22,31.58 199.41,31.16 199.59,31.47 199.78,33.04 199.96,32.54 200.15,32.54 200.34,32.79 200.52,31.76 200.71,31.85 200.89,32.34 201.08,33.35 201.26,33.56 201.45,32.91 201.63,34.47 201.82,35.74 202.00,34.98 202.19,34.73 202.37,37.25 202.56,35.25 202.75,35.92 202.93,36.47 203.12,37.13 203.30,36.49 203.49,36.47 203.67,36.61 203.86,38.63 204.04,37.60 204.23,38.60 204.41,39.75 204.60,38.67 204.78,40.03 204.97,40.33 205.16,41.39 205.34,41.67 205.53,41.25 205.71,42.66 205.90,43.88 206.08,43.23 206.27,43.74 206.45,44.08 206.64,44.08 206.82,43.71 207.01,43.16 207.19,42.62 207.38,41.81 207.57,41.96 207.75,41.26 207.94,40.51 208.12,41.06 208.31,40.35 208.49,39.68 208.68,40.70 208.86,40.55 209.05,40.80 209.23,40.73 209.42,40.73 209.61,42.12 209.79,42.04 209.98,43.78 210.16,43.74 210.35,44.05 210.53,44.97 210.72,45.23 210.90,46.53 211.09,46.73 211.27,45.94 211.46,46.31 211.64,46.84 211.83,47.31 212.02,47.51 212.20,48.66 212.39,48.58 212.57,49.63 212.76,49.46 212.94,50.16 213.13,50.16 213.31,51.04 213.50,51.29 213.68,51.61 213.87,51.61 214.05,51.44 214.24,50.59 214.43,50.22 214.61,50.26 214.80,49.84 214.98,49.40 215.17,50.81 215.35,48.82 215.54,48.41 215.72,47.94 215.91,47.94 216.09,47.73 216.28,46.79 216.46,46.21 216.65,47.24 216.84,46.51 217.02,47.17 217.21,46.69 217.39,48.04 217.58,48.04 217.76,49.88 217.95,49.71 218.13,50.69 218.32,49.62 218.50,49.79 218.69,49.66 218.87,50.11 219.06,50.78 219.25,50.86 219.43,50.86 219.62,50.79 219.80,50.86 219.99,50.46 220.17,51.17 220.36,51.48 220.54,50.70 220.73,50.80 220.91,50.45 221.10,50.89 221.29,49.81 221.47,50.02 221.66,50.02 221.84,49.17 222.03,48.49 222.21,48.94 222.40,48.45 222.58,48.48 222.77,48.48 222.95,48.89 223.14,4.00 223.32,6.28 223.51,7.78 223.70,7.78 223.88,8.43 224.07,8.43 224.25,8.43 224.44,10.80 224.62,10.80 224.81,10.80 224.99,11.14 225.18,11.14 225.36,11.14 225.55,11.52 225.73,11.52 225.92,12.05 226.11,12.05 226.29,12.05 226.48,13.37 226.66,13.66 226.85,13.66 227.03,14.89 227.22,14.89 227.40,14.89 227.59,15.06 227.77,15.06 227.96,13.27 228.14,17.16 228.33,17.16 228.52,14.94 228.70,14.94 228.89,14.94 229.07,13.31 229.26,15.11 229.44,15.11 229.63,15.11 229.81,13.51 230.00,13.51 230.18,13.51 230.37,12.86 230.55,12.86 230.74,13.03 230.93,13.03 231.11,13.03 231.30,15.02 231.48,15.02 231.67,18.45 231.85,18.45 232.04,18.45 232.22,12.86 232.41,17.37 232.59,17.37 232.78,17.37 232.97,14.81 233.15,18.95 233.34,18.95 233.52,17.25 233.71,17.25 233.89,17.25 234.08,17.25 234.26,16.49 234.45,16.49 234.63,16.49 234.82,19.48 235.00,19.48 235.19,19.48 235.38,20.04 235.56,20.04 235.75,17.26 235.93,17.26 236.12,21.25 236.30,21.25 236.49,19.50 236.67,19.50 236.86,22.55 237.04,22.55 237.23,22.55 237.41,25.22 237.60,25.22 237.79,23.00 237.97,23.59 238.16,23.59 238.34,23.59 238.53,23.59 238.71,24.63 238.90,24.63 239.08,24.63 239.27,23.42 239.45,23.42 239.64,25.43 239.82,25.43 240.01,22.30 240.20,22.30 240.38,22.30 240.57,24.86 240.75,20.71 240.94,20.71 241.12,20.71 241.31,21.62 241.49,21.62 241.68,21.62 241.86,19.15 242.05,19.15 242.23,17.73 242.42,17.73 242.61,17.73 242.79,18.28 242.98,16.38 243.16,16.38 243.35,16.06 243.53,16.06 243.72,16.06 243.90,16.06 244.09,13.81 244.27,13.81 244.46,13.81 244.65,15.08 244.83,15.08 245.02,15.08 245.20,17.90 245.39,17.90 245.57,17.90 245.76,20.44 245.94,20.44 246.13,16.20 246.31,19.36 246.50,19.36 246.68,19.36 246.87,19.36 247.06,17.19 247.24,17.19 247.43,17.19 247.61,16.23 247.80,16.23 247.98,16.49 248.17,16.49 248.35,16.49 248.54,19.21 248.72,19.21 248.91,19.21 249.09,20.67 249.28,23.59 249.47,23.59 249.65,23.54 249.84,23.54 250.02,23.54 250.21,22.40 250.39,25.53 250.58,25.53 250.76,25.53 250.95,23.39 251.13,26.30 251.32,26.30 251.50,26.30 251.69,29.73 251.88,26.49 252.06,26.49 252.25,26.49 252.43,30.01 252.62,27.14 252.80,27.14 252.99,25.24 253.17,25.24 253.36,25.24 253.54,24.44 253.73,27.38 253.91,27.38 254.10,27.38 254.29,30.06 254.47,30.06 254.66,30.06 254.84,29.44 255.03,29.44 255.21,29.44 255.40,28.13 255.58,28.13 255.77,28.13 255.95,29.29 256.14,29.29 256.33,29.29 256.51,26.96 256.70,26.96 256.88,26.96 257.07,27.82 257.25,27.82 257.44,27.82 257.62,23.89 257.81,23.89 257.99,23.89 258.18,22.78 258.36,22.78 258.55,22.78 258.74,24.14 258.92,24.14 259.11,24.14 259.29,21.43 259.48,20.92 259.66,20.92 259.85,20.92 260.03,20.92 260.22,21.97 260.40,21.97 260.59,21.97 260.77,24.10 260.96,24.10 261.15,25.68 261.33,25.68 261.52,25.36 261.70,27.15 261.89,27.15 262.07,27.15 262.26,27.15 262.44,26.34 262.63,26.34 262.81,26.34 263.00,30.16 263.18,30.16 263.37,30.16 263.56,31.25 263.74,31.25 263.93,31.25 264.11,30.03 264.30,30.03 264.48,28.74 264.67,28.74 264.85,28.74 265.04,28.29 265.22,28.29 265.41,28.29 265.59,30.09 265.78,28.97 265.97,28.97 266.15,28.97 266.34,28.74 266.52,28.74 266.71,28.74 266.89,28.20 267.08,28.20 267.26,28.20 267.45,30.04 267.63,29.11 267.82,29.11 268.01,29.11 268.19,29.91 268.38,29.91 268.56,29.91 268.75,30.93 268.93,30.93 269.12,31.36 269.30,31.36 269.49,31.36 269.67,33.01 269.86,33.01 270.04,33.01 270.23,33.28 270.42,33.28 270.60,33.28 270.79,35.00 270.97,35.00 271.16,30.42 271.34,30.42 271.53,31.86 271.71,31.86 271.90,31.86 272.08,29.01 272.27,30.59 272.45,30.59 272.64,30.59 272.83,31.99 273.01,31.99 273.20,31.99 273.38,31.99 273.57,31.11 273.75,31.11 273.94,31.11 274.12,32.27 274.31,32.27 274.49,32.27 274.68,38.33 274.86,38.33 275.05,38.33 275.24,37.09 275.42,37.09 275.61,37.09 275.79,39.67 275.98,39.67 276.16,39.67 276.35,43.07 276.53,36.91 276.72,36.91 276.90,36.91 277.09,37.68 277.27,37.68 277.46,37.68 277.65,32.41 277.83,35.16 278.02,35.16 278.20,41.27 278.39,40.93 278.57,40.93 278.76,40.93 278.94,46.28 279.13,44.38 279.31,44.38 279.50,44.38 279.69,44.38 279.87,44.90 280.06,44.90 280.24,44.90 280.43,41.97 280.61,46.36 280.80,46.36 280.98,43.62 281.17,43.62 281.35,43.62 281.54,41.31 281.72,41.31 281.91,41.31 282.10,41.35 282.28,41.35 282.47,41.35 282.65,41.35 282.84,38.56 283.02,44.41 283.21,43.96 283.39,43.96 283.58,43.96 283.76,42.30 283.95,42.30 284.13,42.30 284.32,45.59 284.51,45.59 284.69,45.59 284.88,47.10 285.06,47.10 285.25,47.51 285.43,47.51 285.62,47.51 285.80,48.58 285.99,50.73 286.17,50.73 286.36,51.20 286.54,51.20 286.73,52.15 286.92,52.15 287.10,52.15 287.29,53.21 287.47,50.39 287.66,50.39 287.84,50.39 288.03,52.27 288.21,52.27 288.40,52.27 288.58,52.27 288.77,51.06 288.95,51.06 289.14,51.06 289.33,51.06 289.51,48.22 289.70,48.22 289.88,48.22 290.07,51.37 290.25,51.37 290.44,51.37 290.62,51.37 290.81,50.12 290.99,50.12 291.18,56.00 291.37,52.59 291.55,52.59 291.74,52.59 291.92,51.40 292.11,51.40 292.29,51.40 292.48,51.40 292.66,51.69 292.85,51.69 293.03,55.32 293.22,51.18 293.40,51.18 293.59,51.18 293.78,54.03 293.96,51.06 294.15,51.06 294.33,51.06 294.52,50.58 294.70,50.58 294.89,50.04 295.07,50.04 295.26,48.73 295.44,48.73 295.63,51.75 295.81,51.75 296.00,50.08" />
</svg>