<svg width="300" height="60" xmlns="http://www.w3.org/2000/svg">
  <polyline fill="rgba(255,200,0,0.3)" stroke="#ffbb00" stroke-width="2" points="4.00,56.00 4.28,55.90 4.55,55.65 4.83,55.46 5.11,55.39 5.38,55.27 5.66,55.15 5.94,55.08 6.21,55.18 6.49,55.27 6.77,54.75 7.04,54.21 7.32,53.97 7.60,53.96 7.87,53.62 8.15,53.38 8.43,53.05 8.71,53.01 8.98,52.92 9.26,52.90 9.54,52.94 9.81,52.84 10.09,52.89 10.37,52.60 10.64,52.15 10.92,52.02 11.20,51.63 11.47,51.23 11.75,51.00 12.03,50.69 12.30,51.13 12.58,51.30 12.86,51.17 13.13,51.03 13.41,50.81 13.69,50.38 13.96,49.75 14.24,49.39 14.52,49.21 14.79,48.86 15.07,49.00 15.35,49.06 15.62,48.89 15.90,48.68 16.18,48.34 16.45,47.87 16.73,47.28 17.01,46.99 17.29,46.94 17.56,46.83 17.84,46.61 18.12,46.29 18.39,46.06 18.67,46.11 18.95,46.59 19.22,46.66 19.50,46.18 19.78,45.85 20.05,46.14 20.33,46.31 20.61,46.24 20.88,46.23 21.16,46.22 21.44,46.60 21.71,46.15 21.99,45.91 22.27,45.90 22.54,45.84 22.82,45.56 23.10,45.34 23.37,45.30 23.65,45.83 23.93,45.58 24.20,45.15 24.48,44.62 24.76,44.46 25.04,44.50 25.31,44.87 25.59,45.05 25.87,45.15 26.14,44.93 26.42,44.13 26.70,43.35 26.97,43.47 27.25,43.43 27.53,42.34 27.80,42.20 28.08,42.03 28.36,41.83 28.63,41.82 28.91,41.58 29.19,41.40 29.46,41.10 29.74,41.05 30.02,41.32 30.29,41.01 30.57,40.55 30.85,40.39 31.12,40.21 31.40,39.96 31.68,39.85 31.95,39.46 32.23,39.44 32.51,39.39 32.78,38.79 33.06,38.09 33.34,38.68 33.62,38.82 33.89,39.46 34.17,38.31 34.45,37.97 34.72,37.76 35.00,37.53 35.28,37.39 35.55,37.30 35.83,36.32 36.11,35.81 36.38,35.22 36.66,34.96 36.94,35.03 37.21,36.13 37.49,36.18 37.77,36.00 38.04,35.32 38.32,34.94 38.60,34.67 38.87,34.50 39.15,34.17 39.43,33.22 39.70,32.49 39.98,31.84 40.26,32.02 40.53,32.58 40.81,33.49 41.09,32.62 41.36,32.10 41.64,31.86 41.92,31.66 42.20,31.70 42.47,31.56 42.75,31.41 43.03,31.43 43.30,31.22 43.58,31.09 43.86,30.94 44.13,30.77 44.41,30.63 44.69,30.45 44.96,30.16 45.24,29.81 45.52,29.79 45.79,29.27 46.07,29.02 46.35,28.53 46.62,28.11 46.90,27.83 47.18,27.77 47.45,27.79 47.73,27.65 48.01,27.24 48.28,26.79 48.56,26.63 48.84,26.19 49.11,25.80 49.39,25.42 49.67,25.30 49.95,25.11 50.22,25.07 50.50,24.89 50.78,24.87 51.05,24.76 51.33,24.60 51.61,24.16 51.88,23.87 52.16,23.38 52.44,23.25 52.71,22.97 52.99,22.92 53.27,22.74 53.54,22.75 53.82,22.44 54.10,21.91 54.37,21.26 54.65,21.01 54.93,20.81 55.20,21.06 55.48,21.93 55.76,21.37 56.03,21.09 56.31,20.73 56.59,20.20 56.86,19.42 57.14,18.89 57.42,18.59 57.69,18.69 57.97,19.07 58.25,18.61 58.53,17.93 58.80,17.49 59.08,17.41 59.36,17.50 59.63,17.27 59.91,16.28 60.19,14.87 60.46,14.26 60.74,14.58 61.02,15.53 61.29,15.88 61.57,15.70 61.85,15.87 62.12,16.13 62.40,15.98 62.68,15.97 62.95,16.37 63.23,16.67 63.51,16.56 63.78,15.72 64.06,15.44 64.34,15.71 64.61,15.66 64.89,15.50 65.17,15.18 65.44,14.98 65.72,14.38 66.00,14.03 66.27,13.81 66.55,14.00 66.83,14.32 67.11,14.53 67.38,15.31 67.66,15.37 67.94,14.22 68.21,13.65 68.49,13.58 68.77,13.49 69.04,13.29 69.32,12.67 69.60,12.25 69.87,12.53 70.15,12.34 70.43,11.85 70.70,11.19 70.98,10.55 71.26,9.47 71.53,8.53 71.81,8.22 72.09,8.16 72.36,8.57 72.64,7.92 72.92,7.24 73.19,6.68 73.47,6.37 73.75,6.53 74.02,6.00 74.30,5.63 74.58,5.23 74.85,5.11 75.13,5.00 75.41,5.02 75.69,5.18 75.96,5.25 76.24,4.93 76.52,5.25 76.79,4.95 77.07,55.98 77.35,55.91 77.62,55.65 77.90,55.39 78.18,55.38 78.45,55.30 78.73,55.06 79.01,54.97 79.28,55.09 79.56,55.22 79.84,54.37 80.11,54.37 80.39,54.01 80.67,53.88 80.94,53.57 81.22,52.94 81.50,53.18 81.77,53.01 82.05,52.89 82.33,52.90 82.60,52.70 82.88,52.74 83.16,52.88 83.44,52.37 83.71,52.17 83.99,52.01 84.27,51.25 84.54,51.21 84.82,51.23 85.10,50.54 85.37,51.26 85.65,51.19 85.93,51.18 86.20,51.02 86.48,50.77 86.76,50.49 87.03,49.70 87.31,49.41 87.59,49.18 87.86,48.87 88.14,48.87 88.42,49.05 88.69,48.80 88.97,48.75 89.25,48.30 89.52,47.81 89.80,47.27 90.08,47.03 90.35,47.00 90.63,46.86 90.91,46.54 91.18,46.36 91.46,45.97 91.74,46.08 92.02,46.39 92.29,46.60 92.57,46.10 92.85,45.91 93.12,46.21 93.40,46.31 93.68,46.20 93.95,46.20 94.23,46.14 94.51,46.71 94.78,46.13 95.06,45.77 95.34,45.93 95.61,45.76 95.89,45.51 96.17,45.31 96.44,45.19 96.72,45.88 97.00,45.57 97.27,45.23 97.55,44.51 97.83,44.42 98.10,44.57 98.38,44.96 98.66,45.24 98.93,45.07 99.21,44.76 99.49,44.09 99.76,43.14 100.04,43.70 100.32,43.45 100.60,42.42 100.87,42.11 101.15,42.03 101.43,41.87 101.70,41.76 101.98,41.58 102.26,41.42 102.53,41.34 102.81,41.20 103.09,41.32 103.36,40.97 103.64,40.50 103.92,40.38 104.19,40.21 104.47,39.95 104.75,39.77 105.02,39.45 105.30,39.50 105.58,39.14 105.85,38.65 106.13,38.07 106.41,38.68 106.68,38.61 106.96,39.37 107.24,38.43 107.51,37.98 107.79,37.76 108.07,37.52 108.35,37.36 108.62,37.09 108.90,36.21 109.18,35.60 109.45,35.36 109.73,34.83 110.01,34.97 110.28,35.98 110.56,35.91 110.84,35.71 111.11,35.41 111.39,34.95 111.67,34.66 111.94,34.44 112.22,34.17 112.50,33.32 112.77,32.47 113.05,31.82 113.33,31.74 113.60,32.52 113.88,33.33 114.16,32.72 114.43,32.00 114.71,31.83 114.99,31.67 115.26,31.70 115.54,31.52 115.82,31.40 116.09,31.45 116.37,31.23 116.65,31.10 116.93,30.90 117.20,30.78 117.48,30.57 117.76,30.42 118.03,30.29 118.31,29.84 118.59,29.87 118.86,29.33 119.14,28.90 119.42,28.53 119.69,27.94 119.97,27.71 120.25,27.69 120.52,27.89 120.80,27.71 121.08,27.31 121.35,26.88 121.63,26.39 121.91,26.16 122.18,25.71 122.46,25.41 122.74,25.23 123.01,25.06 123.29,25.21 123.57,24.99 123.84,24.86 124.12,24.74 124.40,24.51 124.67,24.23 124.95,23.77 125.23,23.56 125.51,23.33 125.78,23.24 126.06,23.13 126.34,22.88 126.61,22.68 126.89,22.33 127.17,21.69 127.44,21.22 127.72,20.66 128.00,20.54 128.27,20.97 128.55,21.83 128.83,21.68 129.10,21.35 129.38,20.81 129.66,20.34 129.93,19.58 130.21,18.87 130.49,18.50 130.76,18.72 131.04,18.97 131.32,18.71 131.59,17.85 131.87,17.55 132.15,17.24 132.42,17.37 132.70,17.16 132.98,16.19 133.25,14.94 133.53,14.10 133.81,14.73 134.09,15.70 134.36,15.73 134.64,15.71 134.92,16.10 135.19,16.04 135.47,15.90 135.75,15.78 136.02,16.24 136.30,16.64 136.58,16.51 136.85,15.98 137.13,15.35 137.41,15.63 137.68,15.50 137.96,15.13 138.24,14.95 138.51,14.77 138.79,14.41 139.07,13.89 139.34,13.74 139.62,13.95 139.90,14.37 140.17,14.44 140.45,15.07 140.73,15.34 141.00,13.91 141.28,13.66 141.56,13.57 141.84,13.37 142.11,13.13 142.39,12.56 142.67,12.09 142.94,12.30 143.22,12.34 143.50,11.62 143.77,11.18 144.05,10.66 144.33,9.48 144.60,8.44 144.88,8.23 145.16,8.16 145.43,8.42 145.71,8.05 145.99,7.08 146.26,6.81 146.54,6.22 146.82,6.51 147.09,5.86 147.37,5.51 147.65,5.33 147.92,5.13 148.20,4.91 148.48,4.99 148.75,5.15 149.03,5.25 149.31,4.76 149.58,4.96 149.86,4.76 150.14,55.99 150.42,55.76 150.69,55.62 150.97,55.48 151.25,55.40 151.52,55.33 151.80,55.25 152.08,55.19 152.35,55.31 152.63,55.38 152.91,54.06 153.18,54.01 153.46,54.06 153.74,54.17 154.01,52.72 154.29,52.73 154.57,52.90 154.84,53.14 155.12,52.27 155.40,52.60 155.67,52.74 155.95,52.85 156.23,52.98 156.50,52.21 156.78,52.21 157.06,51.47 157.33,51.61 157.61,50.64 157.89,51.04 158.16,50.14 158.44,51.05 158.72,50.70 159.00,51.27 159.27,50.41 159.55,51.04 159.83,50.49 160.10,49.51 160.38,49.53 160.66,48.87 160.93,49.41 161.21,49.02 161.49,49.31 161.76,49.01 162.04,48.94 162.32,48.21 162.59,47.67 162.87,47.04 163.15,47.49 163.42,47.61 163.70,46.82 163.98,46.93 164.25,46.30 164.53,46.44 164.81,46.56 165.08,46.44 165.36,46.65 165.64,46.44 165.91,46.27 166.19,46.14 166.47,46.51 166.75,46.17 167.02,46.26 167.30,46.07 167.58,46.26 167.85,46.09 168.13,45.75 168.41,45.76 168.68,45.77 168.96,45.10 169.24,45.10 169.51,45.22 169.79,45.39 170.07,45.67 170.34,45.22 170.62,44.30 170.90,45.10 171.17,44.30 171.45,45.26 171.73,45.46 172.00,44.39 172.28,44.23 172.56,43.60 172.83,43.01 173.11,43.96 173.39,43.05 173.66,42.21 173.94,42.30 174.22,41.67 174.49,41.88 174.77,41.88 175.05,41.45 175.33,41.33 175.60,41.25 175.88,41.43 176.16,41.71 176.43,41.37 176.71,40.92 176.99,40.02 177.26,40.20 177.54,39.67 177.82,39.67 178.09,39.08 178.37,39.52 178.65,38.89 178.92,37.61 179.20,37.88 179.48,38.57 179.75,38.99 180.03,38.55 180.31,38.15 180.58,37.29 180.86,37.65 181.14,37.56 181.41,37.70 181.69,36.82 181.97,36.22 182.24,35.37 182.52,36.07 182.80,35.23 183.07,35.46 183.35,36.11 183.63,35.62 183.91,35.31 184.18,35.97 184.46,34.90 184.74,34.85 185.01,34.35 185.29,34.38 185.57,33.33 185.84,31.91 186.12,32.23 186.40,31.22 186.67,32.15 186.95,32.65 187.23,32.57 187.50,31.52 187.78,31.77 188.06,31.29 188.33,31.05 188.61,30.83 188.89,30.63 189.16,32.04 189.44,31.85 189.72,31.60 189.99,30.16 190.27,30.23 190.55,30.33 190.82,30.47 191.10,29.82 191.38,30.06 191.65,29.81 191.93,29.19 192.21,29.19 192.49,28.69 192.76,28.33 193.04,28.15 193.32,28.22 193.59,28.41 193.87,27.59 194.15,27.54 194.42,27.47 194.70,26.06 194.98,26.06 195.25,25.64 195.53,25.30 195.81,25.08 196.08,24.90 196.36,25.99 196.64,25.76 196.91,25.62 197.19,25.51 197.47,25.33 197.74,25.10 198.02,24.71 198.30,24.34 198.57,24.13 198.85,23.97 199.13,23.78 199.40,23.52 199.68,23.03 199.96,22.04 200.24,22.15 200.51,21.77 200.79,21.02 201.07,20.99 201.34,21.53 201.62,21.13 201.90,21.46 202.17,20.95 202.45,20.81 202.73,20.81 203.00,19.78 203.28,18.93 203.56,18.49 203.83,18.52 204.11,19.58 204.39,18.73 204.66,17.72 204.94,17.93 205.22,17.71 205.49,17.43 205.77,16.92 206.05,15.58 206.32,15.20 206.60,13.65 206.88,15.19 207.15,15.44 207.43,15.47 207.71,16.16 207.98,15.69 208.26,15.69 208.54,16.10 208.82,15.12 209.09,15.76 209.37,16.55 209.65,16.24 209.92,15.92 210.20,15.29 210.48,14.94 210.75,14.78 211.03,14.87 211.31,15.18 211.58,14.50 211.86,13.46 212.14,14.00 212.41,13.82 212.69,14.31 212.97,14.53 213.24,14.20 213.52,15.38 213.80,15.27 214.07,14.01 214.35,14.01 214.63,13.35 214.90,13.71 215.18,12.16 215.46,12.31 215.73,12.43 216.01,12.45 216.29,12.25 216.56,11.96 216.84,10.76 217.12,10.69 217.40,9.33 217.67,8.65 217.95,8.27 218.23,8.18 218.50,8.52 218.78,8.11 219.06,6.62 219.33,6.42 219.61,6.65 219.89,6.28 220.16,5.38 220.44,5.23 220.72,5.95 220.99,4.96 221.27,4.78 221.55,4.86 221.82,5.92 222.10,5.01 222.38,4.94 222.65,5.34 222.93,5.29 223.21,55.51 223.48,54.93 223.76,54.93 224.04,54.50 224.31,54.50 224.59,54.50 224.87,54.26 225.15,54.26 225.42,53.84 225.70,53.84 225.98,53.84 226.25,53.71 226.53,53.71 226.81,53.71 227.08,49.86 227.36,49.86 227.64,51.12 227.91,51.12 228.19,51.12 228.47,52.05 228.74,52.05 229.02,52.13 229.30,52.13 229.57,52.13 229.85,52.41 230.13,49.33 230.40,49.33 230.68,50.26 230.96,50.26 231.23,50.26 231.51,51.91 231.79,48.53 232.06,48.53 232.34,50.43 232.62,50.43 232.89,50.43 233.17,48.37 233.45,49.91 233.73,49.91 234.00,49.91 234.28,48.92 234.56,48.92 234.83,48.92 235.11,48.36 235.39,48.36 235.66,48.36 235.94,47.67 236.22,47.67 236.49,47.67 236.77,47.67 237.05,47.28 237.32,47.28 237.60,47.28 237.88,45.76 238.15,45.76 238.43,45.76 238.71,45.76 238.98,46.18 239.26,46.18 239.54,47.07 239.81,45.74 240.09,45.74 240.37,45.74 240.64,45.54 240.92,45.54 241.20,45.54 241.47,45.54 241.75,45.85 242.03,43.68 242.31,43.68 242.58,43.68 242.86,45.09 243.14,45.09 243.41,45.09 243.69,44.22 243.97,44.22 244.24,44.22 244.52,44.22 244.80,43.03 245.07,43.03 245.35,43.03 245.63,42.57 245.90,42.57 246.18,42.57 246.46,42.43 246.73,42.43 247.01,41.64 247.29,41.64 247.56,41.64 247.84,40.19 248.12,40.19 248.39,40.19 248.67,40.19 248.95,41.14 249.22,41.14 249.50,40.07 249.78,40.07 250.05,40.64 250.33,40.64 250.61,37.51 250.89,37.51 251.16,37.90 251.44,37.90 251.72,36.00 251.99,36.00 252.27,36.00 252.55,37.99 252.82,37.99 253.10,36.22 253.38,36.22 253.65,36.22 253.93,37.90 254.21,37.90 254.48,37.90 254.76,36.14 255.04,36.14 255.31,36.14 255.59,36.14 255.87,33.53 256.14,34.06 256.42,34.06 256.70,34.06 256.97,31.28 257.25,34.15 257.53,34.15 257.80,34.15 258.08,33.27 258.36,33.27 258.64,34.21 258.91,30.41 259.19,30.41 259.47,30.41 259.74,30.83 260.02,30.83 260.30,30.82 260.57,30.82 260.85,30.82 261.13,29.44 261.40,29.44 261.68,29.44 261.96,28.93 262.23,28.93 262.51,28.93 262.79,28.97 263.06,28.97 263.34,29.56 263.62,29.56 263.89,29.56 264.17,30.18 264.45,30.18 264.72,28.65 265.00,28.65 265.28,30.70 265.55,29.93 265.83,29.93 266.11,29.93 266.38,30.35 266.66,30.35 266.94,27.51 267.22,27.14 267.49,27.14 267.77,27.14 268.05,27.14 268.32,26.39 268.60,26.39 268.88,26.39 269.15,25.82 269.43,25.82 269.71,25.82 269.98,25.29 270.26,25.29 270.54,25.29 270.81,24.38 271.09,24.38 271.37,24.38 271.64,23.57 271.92,23.57 272.20,23.57 272.47,21.50 272.75,21.50 273.03,21.50 273.30,21.48 273.58,21.48 273.86,21.75 274.13,21.75 274.41,21.75 274.69,20.05 274.96,20.05 275.24,20.05 275.52,22.80 275.80,22.80 276.07,20.83 276.35,20.83 276.63,20.83 276.90,19.36 277.18,19.36 277.46,19.36 277.73,17.55 278.01,17.55 278.29,17.55 278.56,15.42 278.84,15.42 279.12,15.21 279.39,15.21 279.67,11.71 279.95,14.62 280.22,14.62 280.50,14.62 280.78,14.62 281.05,13.10 281.33,13.10 281.61,13.10 281.88,13.10 282.16,14.80 282.44,14.80 282.71,14.80 282.99,15.12 283.27,15.12 283.55,15.12 283.82,15.00 284.10,15.00 284.38,15.00 284.65,13.68 284.93,13.68 285.21,13.87 285.48,13.87 285.76,13.87 286.04,16.58 286.31,13.82 286.59,13.82 286.87,13.82 287.14,14.48 287.42,14.48 287.70,9.47 287.97,10.34 288.25,10.34 288.53,10.34 288.80,10.88 289.08,10.88 289.36,10.88 289.63,10.45 289.91,10.45 290.19,10.45 290.46,6.87 290.74,6.87 291.02,6.87 291.29,6.35 291.57,6.35 291.85,5.71 292.13,5.71 292.40,5.71 292.68,7.16 292.96,7.16 293.23,4.34 293.51,4.34 293.79,6.48 294.06,6.48 294.34,4.00 294.62,4.00 294.89,7.18 295.17,7.18 295.45,4.07 295.72,4.07 296.00,5.98" />
</svg>