<svg width="300" height="60" xmlns="http://www.w3.org/2000/svg">
  <polyline fill="rgba(255,200,0,0.3)" stroke="#ffbb00" stroke-width="2" points="4.00,8.82 4.28,8.44 4.55,7.87 4.83,7.50 5.10,7.05 5.38,6.84 5.65,6.69 5.93,6.59 6.21,6.52 6.48,6.60 6.76,6.70 7.03,6.95 7.31,7.08 7.58,7.30 7.86,7.57 8.14,7.76 8.41,7.93 8.69,8.21 8.96,8.47 9.24,8.79 9.51,9.02 9.79,9.43 10.07,9.77 10.34,10.08 10.62,10.28 10.89,10.32 11.17,10.38 11.44,10.53 11.72,10.68 12.00,10.93 12.27,11.05 12.55,11.29 12.82,11.63 13.10,12.02 13.37,12.39 13.65,12.61 13.93,13.11 14.20,13.44 14.48,13.96 14.75,14.29 15.03,14.58 15.31,14.74 15.58,14.81 15.86,14.99 16.13,15.23 16.41,15.33 16.68,15.76 16.96,16.32 17.24,16.63 17.51,16.98 17.79,17.42 18.06,17.92 18.34,18.32 18.61,18.70 18.89,19.21 19.17,19.68 19.44,19.92 19.72,20.37 19.99,20.69 20.27,20.94 20.54,21.15 20.82,21.55 21.10,21.83 21.37,22.35 21.65,22.74 21.92,23.11 22.20,23.48 22.47,24.03 22.75,24.50 23.03,24.82 23.30,25.27 23.58,25.75 23.85,26.26 24.13,26.84 24.40,27.44 24.68,27.77 24.96,28.34 25.23,28.76 25.51,29.27 25.78,29.66 26.06,30.15 26.33,30.66 26.61,31.15 26.89,31.68 27.16,32.09 27.44,32.41 27.71,32.79 27.99,33.22 28.26,33.70 28.54,34.05 28.82,34.23 29.09,34.29 29.37,34.18 29.64,33.79 29.92,33.39 30.19,32.80 30.47,32.37 30.75,32.03 31.02,31.86 31.30,31.78 31.57,31.80 31.85,31.81 32.12,31.72 32.40,31.63 32.68,31.67 32.95,31.95 33.23,32.30 33.50,32.61 33.78,32.85 34.05,33.12 34.33,33.39 34.61,33.78 34.88,34.08 35.16,34.20 35.43,34.25 35.71,34.09 35.98,33.98 36.26,33.93 36.54,33.92 36.81,33.97 37.09,34.20 37.36,34.53 37.64,34.85 37.92,35.17 38.19,35.22 38.47,35.26 38.74,35.38 39.02,35.89 39.29,36.28 39.57,36.45 39.85,36.61 40.12,36.79 40.40,37.07 40.67,37.38 40.95,37.56 41.22,37.77 41.50,37.94 41.78,38.06 42.05,38.22 42.33,38.31 42.60,38.43 42.88,38.53 43.15,38.56 43.43,38.67 43.71,38.83 43.98,39.07 44.26,39.30 44.53,39.54 44.81,40.04 45.08,40.47 45.36,40.63 45.64,40.88 45.91,41.25 46.19,41.52 46.46,41.89 46.74,42.26 47.01,42.46 47.29,42.77 47.57,43.32 47.84,43.57 48.12,43.72 48.39,44.00 48.67,44.23 48.94,44.39 49.22,44.51 49.50,44.52 49.77,44.60 50.05,44.79 50.32,44.99 50.60,45.05 50.87,45.02 51.15,44.94 51.43,44.69 51.70,44.65 51.98,44.72 52.25,44.80 52.53,44.91 52.80,44.82 53.08,44.82 53.36,45.00 53.63,45.29 53.91,45.45 54.18,45.53 54.46,45.77 54.73,46.13 55.01,46.65 55.29,46.95 55.56,47.60 55.84,48.16 56.11,48.51 56.39,48.80 56.66,48.95 56.94,49.02 57.22,48.95 57.49,48.58 57.77,48.10 58.04,47.60 58.32,47.02 58.59,46.40 58.87,45.85 59.15,45.40 59.42,44.84 59.70,44.45 59.97,44.18 60.25,43.92 60.53,43.62 60.80,43.43 61.08,43.33 61.35,43.30 61.63,43.28 61.90,43.14 62.18,42.98 62.46,42.82 62.73,42.76 63.01,42.85 63.28,42.98 63.56,43.15 63.83,43.36 64.11,43.56 64.39,43.80 64.66,43.94 64.94,44.05 65.21,44.03 65.49,44.15 65.76,44.33 66.04,44.60 66.32,44.93 66.59,45.31 66.87,45.65 67.14,45.98 67.42,46.45 67.69,46.87 67.97,47.35 68.25,47.76 68.52,48.21 68.80,48.66 69.07,49.05 69.35,49.29 69.62,49.52 69.90,49.71 70.18,49.91 70.45,50.08 70.73,50.22 71.00,50.17 71.28,50.05 71.55,49.85 71.83,49.71 72.11,49.72 72.38,49.86 72.66,50.12 72.93,50.53 73.21,50.87 73.48,51.23 73.76,51.79 74.04,52.41 74.31,52.75 74.59,53.21 74.86,53.70 75.14,54.11 75.41,54.42 75.69,54.67 75.97,54.82 76.24,54.94 76.52,55.02 76.79,55.11 77.07,8.85 77.34,8.46 77.62,8.09 77.90,7.57 78.17,7.18 78.45,6.74 78.72,6.77 79.00,6.81 79.27,6.50 79.55,6.53 79.83,6.93 80.10,7.08 80.38,7.10 80.65,7.50 80.93,8.07 81.20,7.81 81.48,8.02 81.76,8.41 82.03,8.45 82.31,9.06 82.58,9.08 82.86,9.52 83.14,9.99 83.41,10.31 83.69,10.31 83.96,10.36 84.24,10.31 84.51,10.53 84.79,10.78 85.07,10.86 85.34,11.01 85.62,11.30 85.89,11.70 86.17,11.99 86.44,12.38 86.72,12.49 87.00,12.98 87.27,13.48 87.55,13.96 87.82,14.35 88.10,14.57 88.37,14.76 88.65,14.81 88.93,14.99 89.20,15.27 89.48,15.39 89.75,15.74 90.03,16.23 90.30,16.57 90.58,16.97 90.86,17.54 91.13,17.72 91.41,18.36 91.68,18.66 91.96,19.02 92.23,19.54 92.51,20.00 92.79,20.45 93.06,20.71 93.34,20.97 93.61,21.15 93.89,21.48 94.16,21.80 94.44,22.01 94.72,22.65 94.99,23.11 95.27,23.48 95.54,24.06 95.82,24.41 96.09,24.70 96.37,25.27 96.65,25.69 96.92,26.00 97.20,26.74 97.47,27.59 97.75,28.09 98.02,28.31 98.30,28.98 98.58,29.31 98.85,29.86 99.13,30.10 99.40,30.57 99.68,31.17 99.95,31.51 100.23,32.53 100.51,32.51 100.78,32.99 101.06,33.28 101.33,33.83 101.61,34.16 101.88,34.27 102.16,34.31 102.44,34.24 102.71,33.84 102.99,33.47 103.26,32.81 103.54,32.42 103.81,32.11 104.09,31.89 104.37,31.76 104.64,31.83 104.92,31.90 105.19,31.68 105.47,31.71 105.75,31.69 106.02,31.90 106.30,32.36 106.57,32.61 106.85,32.88 107.12,33.12 107.40,33.41 107.68,33.82 107.95,34.07 108.23,34.25 108.50,34.25 108.78,34.14 109.05,33.99 109.33,33.94 109.61,33.91 109.88,33.99 110.16,34.23 110.43,34.60 110.71,34.89 110.98,35.23 111.26,35.28 111.54,35.39 111.81,35.53 112.09,35.98 112.36,36.27 112.64,36.48 112.91,36.63 113.19,36.83 113.47,37.14 113.74,37.46 114.02,37.61 114.29,37.77 114.57,37.93 114.84,38.10 115.12,38.24 115.40,38.34 115.67,38.45 115.95,38.54 116.22,38.59 116.50,38.71 116.77,38.82 117.05,39.08 117.33,39.30 117.60,39.66 117.88,40.19 118.15,40.56 118.43,40.77 118.70,40.94 118.98,41.25 119.26,41.48 119.53,41.88 119.81,42.29 120.08,42.37 120.36,42.84 120.63,43.38 120.91,43.65 121.19,43.74 121.46,44.08 121.74,44.35 122.01,44.42 122.29,44.53 122.56,44.63 122.84,44.63 123.12,44.87 123.39,45.02 123.67,45.06 123.94,44.99 124.22,44.92 124.49,44.55 124.77,44.68 125.05,44.77 125.32,44.64 125.60,44.90 125.87,44.75 126.15,44.58 126.42,45.00 126.70,45.00 126.98,45.33 127.25,45.40 127.53,45.51 127.80,45.93 128.08,46.55 128.36,46.90 128.63,47.48 128.91,48.09 129.18,48.50 129.46,48.81 129.73,48.99 130.01,49.04 130.29,48.92 130.56,48.58 130.84,48.15 131.11,47.42 131.39,47.07 131.66,46.38 131.94,45.77 132.22,45.44 132.49,44.86 132.77,44.40 133.04,44.22 133.32,43.90 133.59,43.62 133.87,43.46 134.15,43.36 134.42,43.34 134.70,43.29 134.97,43.19 135.25,42.99 135.52,42.84 135.80,42.79 136.08,42.86 136.35,42.98 136.63,43.17 136.90,43.37 137.18,43.62 137.45,43.79 137.73,43.91 138.01,44.06 138.28,44.07 138.56,44.14 138.83,44.31 139.11,44.66 139.38,44.95 139.66,45.29 139.94,45.69 140.21,46.09 140.49,46.40 140.76,46.93 141.04,47.37 141.31,47.79 141.59,48.24 141.87,48.65 142.14,49.08 142.42,49.29 142.69,49.54 142.97,49.71 143.24,49.88 143.52,50.02 143.80,50.21 144.07,50.22 144.35,50.19 144.62,50.01 144.90,49.83 145.17,49.79 145.45,49.94 145.73,50.12 146.00,50.54 146.28,50.93 146.55,51.23 146.83,51.76 147.10,52.29 147.38,52.66 147.66,53.26 147.93,53.79 148.21,54.22 148.48,54.51 148.76,54.74 149.03,54.89 149.31,54.99 149.59,55.04 149.86,55.12 150.14,9.13 150.41,8.27 150.69,7.51 150.97,6.91 151.24,6.42 151.52,5.93 151.79,6.94 152.07,6.76 152.34,6.48 152.62,6.41 152.90,6.43 153.17,6.21 153.45,7.23 153.72,6.59 154.00,7.81 154.27,7.07 154.55,7.62 154.83,8.44 155.10,7.93 155.38,9.14 155.65,8.64 155.93,9.57 156.20,9.16 156.48,9.98 156.76,9.45 157.03,10.02 157.31,9.48 157.58,10.00 157.86,10.67 158.13,10.22 158.41,10.90 158.69,10.82 158.96,11.84 159.24,12.10 159.51,11.44 159.79,11.72 160.06,12.92 160.34,13.38 160.62,14.14 160.89,14.76 161.17,14.86 161.44,14.87 161.72,14.98 161.99,14.89 162.27,15.14 162.55,15.30 162.82,15.27 163.10,15.58 163.37,16.60 163.65,17.08 163.92,17.65 164.20,16.65 164.48,17.17 164.75,17.60 165.03,18.66 165.30,19.19 165.58,19.55 165.85,19.70 166.13,20.76 166.41,20.33 166.68,21.13 166.96,21.18 167.23,22.22 167.51,21.89 167.78,21.78 168.06,22.41 168.34,22.96 168.61,24.14 168.89,24.09 169.16,24.95 169.44,25.03 169.71,25.96 169.99,25.43 170.27,26.45 170.54,27.68 170.82,27.66 171.09,27.34 171.37,28.45 171.64,28.92 171.92,29.93 172.20,30.19 172.47,30.15 172.75,30.72 173.02,30.81 173.30,31.86 173.58,32.46 173.85,32.97 174.13,33.48 174.40,33.79 174.68,34.47 174.95,34.55 175.23,34.80 175.51,35.08 175.78,34.16 176.06,33.76 176.33,32.75 176.61,32.46 176.88,32.21 177.16,31.98 177.44,31.85 177.71,31.72 177.99,31.51 178.26,31.96 178.54,31.36 178.81,31.88 179.09,31.27 179.37,32.00 179.64,32.50 179.92,32.88 180.19,33.08 180.47,33.26 180.74,33.71 181.02,33.93 181.30,34.21 181.57,34.26 181.85,34.13 182.12,34.02 182.40,34.00 182.67,33.91 182.95,33.95 183.23,34.22 183.50,34.75 183.78,34.75 184.05,35.10 184.33,35.22 184.60,35.27 184.88,35.47 185.16,35.85 185.43,36.35 185.71,36.52 185.98,36.64 186.26,36.72 186.53,37.16 186.81,37.63 187.09,37.54 187.36,37.72 187.64,37.91 187.91,38.09 188.19,38.25 188.46,38.38 188.74,38.52 189.02,38.61 189.29,38.62 189.57,38.67 189.84,38.84 190.12,39.08 190.39,39.29 190.67,39.92 190.95,40.92 191.22,40.43 191.50,40.72 191.77,40.97 192.05,41.04 192.32,41.42 192.60,41.07 192.88,41.79 193.15,42.29 193.43,42.46 193.70,43.43 193.98,43.56 194.25,43.71 194.53,43.83 194.81,44.08 195.08,44.29 195.36,44.77 195.63,44.59 195.91,44.78 196.19,44.96 196.46,45.15 196.74,45.12 197.01,45.18 197.29,44.80 197.56,44.40 197.84,45.22 198.12,45.00 198.39,44.35 198.67,44.79 198.94,45.91 199.22,45.11 199.49,45.29 199.77,45.29 200.05,45.07 200.32,45.63 200.60,45.22 200.87,46.01 201.15,46.87 201.42,47.37 201.70,48.20 201.98,48.30 202.25,48.65 202.53,48.91 202.80,49.01 203.08,49.19 203.35,49.08 203.63,49.10 203.91,48.60 204.18,47.74 204.46,47.09 204.73,46.40 205.01,45.89 205.28,45.89 205.56,45.33 205.84,44.68 206.11,44.35 206.39,43.99 206.66,43.62 206.94,43.46 207.21,43.32 207.49,43.34 207.77,43.43 208.04,43.43 208.32,43.14 208.59,42.97 208.87,42.81 209.14,42.79 209.42,43.02 209.70,43.11 209.97,43.45 210.25,43.57 210.52,43.82 210.80,44.06 211.07,44.16 211.35,44.52 211.63,44.14 211.90,44.32 212.18,44.64 212.45,44.72 212.73,45.09 213.00,45.55 213.28,45.90 213.56,46.43 213.83,46.81 214.11,47.20 214.38,47.90 214.66,48.40 214.93,48.73 215.21,49.13 215.49,49.34 215.76,49.67 216.04,49.67 216.31,49.87 216.59,49.92 216.86,50.25 217.14,50.26 217.42,50.01 217.69,49.80 217.97,49.06 218.24,49.32 218.52,50.09 218.80,49.75 219.07,50.26 219.35,50.80 219.62,51.12 219.90,51.91 220.17,52.11 220.45,52.81 220.73,53.19 221.00,53.12 221.28,54.19 221.55,54.26 221.83,54.74 222.10,54.88 222.38,54.98 222.66,54.98 222.93,55.06 223.21,9.44 223.48,8.03 223.76,8.03 224.03,6.45 224.31,6.45 224.59,6.45 224.86,5.66 225.14,5.66 225.41,5.04 225.69,5.04 225.96,5.04 226.24,4.00 226.52,4.00 226.79,4.00 227.07,6.34 227.34,6.34 227.62,6.34 227.89,5.12 228.17,5.12 228.45,9.24 228.72,7.79 229.00,7.79 229.27,7.79 229.55,7.35 229.82,7.35 230.10,10.13 230.38,9.44 230.65,9.44 230.93,9.44 231.20,10.59 231.48,11.02 231.75,11.02 232.03,11.65 232.31,11.65 232.58,11.65 232.86,13.14 233.13,13.14 233.41,16.42 233.68,16.42 233.96,16.42 234.24,16.83 234.51,16.83 234.79,16.83 235.06,16.83 235.34,15.21 235.61,15.21 235.89,15.66 236.17,15.66 236.44,16.87 236.72,16.87 236.99,16.87 237.27,18.17 237.54,18.17 237.82,18.17 238.10,19.57 238.37,19.57 238.65,19.96 238.92,19.96 239.20,19.96 239.47,20.88 239.75,20.88 240.03,20.88 240.30,23.51 240.58,23.51 240.85,21.55 241.13,21.55 241.41,23.02 241.68,23.02 241.96,25.27 242.23,25.27 242.51,25.27 242.78,27.83 243.06,25.75 243.34,25.75 243.61,26.59 243.89,26.59 244.16,26.59 244.44,28.48 244.71,28.47 244.99,28.47 245.27,30.58 245.54,30.58 245.82,32.79 246.09,30.51 246.37,30.51 246.64,32.81 246.92,32.81 247.20,36.18 247.47,36.18 247.75,36.18 248.02,36.13 248.30,36.13 248.57,36.13 248.85,35.20 249.13,35.20 249.40,33.63 249.68,33.63 249.95,33.63 250.23,33.31 250.50,33.31 250.78,33.31 251.06,30.94 251.33,30.94 251.61,30.94 251.88,31.62 252.16,31.62 252.43,31.62 252.71,32.31 252.99,33.54 253.26,33.54 253.54,33.54 253.81,35.32 254.09,35.32 254.36,34.51 254.64,35.15 254.92,35.15 255.19,35.15 255.47,34.30 255.74,34.89 256.02,34.89 256.29,34.89 256.57,36.30 256.85,36.30 257.12,36.30 257.40,36.30 257.67,38.66 257.95,36.69 258.22,36.69 258.50,36.69 258.78,37.01 259.05,37.01 259.33,37.01 259.60,37.01 259.88,37.61 260.15,37.61 260.43,37.61 260.71,39.28 260.98,39.28 261.26,39.28 261.53,39.40 261.81,39.40 262.08,39.40 262.36,39.54 262.64,39.54 262.91,39.54 263.19,39.77 263.46,39.77 263.74,39.77 264.02,40.88 264.29,40.90 264.57,40.90 264.84,40.90 265.12,40.90 265.39,40.93 265.67,40.93 265.95,40.93 266.22,43.07 266.50,43.07 266.77,43.07 267.05,46.54 267.32,44.52 267.60,44.52 267.88,44.52 268.15,44.70 268.43,44.70 268.70,44.70 268.98,45.38 269.25,45.38 269.53,45.38 269.81,45.38 270.08,46.51 270.36,46.51 270.63,46.51 270.91,46.79 271.18,46.79 271.46,46.79 271.74,44.56 272.01,47.55 272.29,47.55 272.56,47.55 272.84,47.55 273.11,46.54 273.39,46.54 273.67,46.54 273.94,49.03 274.22,49.03 274.49,47.58 274.77,49.90 275.04,49.90 275.32,49.90 275.60,51.27 275.87,51.27 276.15,49.71 276.42,49.71 276.70,51.60 276.97,51.60 277.25,48.37 277.53,48.37 277.80,48.37 278.08,47.17 278.35,47.17 278.63,47.17 278.90,47.17 279.18,44.62 279.46,44.62 279.73,45.52 280.01,44.20 280.28,44.20 280.56,44.20 280.83,43.82 281.11,43.82 281.39,43.82 281.66,45.71 281.94,44.08 282.21,44.08 282.49,44.08 282.76,43.71 283.04,43.71 283.32,43.71 283.59,45.80 283.87,44.66 284.14,44.66 284.42,46.37 284.69,46.37 284.97,44.85 285.25,44.85 285.52,45.53 285.80,45.53 286.07,45.81 286.35,45.81 286.63,45.81 286.90,46.98 287.18,48.14 287.45,48.14 287.73,48.14 288.00,49.86 288.28,49.79 288.56,49.79 288.83,51.29 289.11,51.29 289.38,51.29 289.66,50.45 289.93,50.80 290.21,50.80 290.49,49.30 290.76,49.30 291.04,49.30 291.31,48.16 291.59,50.10 291.86,50.10 292.14,50.10 292.42,50.10 292.69,51.43 292.97,53.76 293.24,53.76 293.52,53.66 293.79,53.66 294.07,53.66 294.35,52.71 294.62,52.71 294.90,54.91 295.17,54.91 295.45,54.91 295.72,54.91 296.00,56.00" />
</svg>