<svg width="300" height="60" xmlns="http://www.w3.org/2000/svg">
  <polyline fill="rgba(255,200,0,0.3)" stroke="#ffbb00" stroke-width="2" points="4.00,11.07 4.28,11.70 4.56,12.24 4.85,12.99 5.13,14.07 5.41,15.07 5.69,15.02 5.98,15.46 6.26,16.70 6.54,17.58 6.82,19.01 7.11,20.60 7.39,22.89 7.67,22.38 7.95,23.54 8.24,24.92 8.52,25.19 8.80,25.37 9.08,26.46 9.37,28.58 9.65,30.08 9.93,30.36 10.21,31.05 10.50,32.44 10.78,32.90 11.06,31.99 11.34,31.38 11.62,29.73 11.91,29.98 12.19,32.07 12.47,34.90 12.75,35.32 13.04,39.00 13.32,41.24 13.60,44.19 13.88,46.43 14.17,48.08 14.45,48.97 14.73,50.49 15.01,51.86 15.30,54.55 15.58,55.37 15.86,55.78 16.14,54.98 16.43,52.91 16.71,51.50 16.99,49.08 17.27,49.33 17.56,51.06 17.84,50.96 18.12,49.71 18.40,46.93 18.68,43.39 18.97,41.03 19.25,41.11 19.53,42.57 19.81,44.55 20.10,46.43 20.38,47.73 20.66,48.02 20.94,48.68 21.23,48.86 21.51,47.94 21.79,48.24 22.07,48.44 22.36,47.45 22.64,45.57 22.92,44.89 23.20,40.58 23.49,37.89 23.77,35.72 24.05,33.76 24.33,33.18 24.62,34.01 24.90,34.64 25.18,34.51 25.46,34.55 25.74,33.19 26.03,33.45 26.31,32.82 26.59,32.42 26.87,32.24 27.16,31.87 27.44,31.10 27.72,31.07 28.00,31.95 28.29,34.95 28.57,36.13 28.85,30.89 29.13,28.70 29.42,29.58 29.70,30.25 29.98,31.01 30.26,33.53 30.55,30.52 30.83,29.63 31.11,28.83 31.39,28.41 31.68,27.93 31.96,27.08 32.24,30.03 32.52,33.04 32.80,37.65 33.09,42.69 33.37,50.08 33.65,52.31 33.93,50.81 34.22,50.66 34.50,48.11 34.78,38.67 35.06,29.86 35.35,25.74 35.63,22.24 35.91,25.15 36.19,24.91 36.48,24.39 36.76,24.28 37.04,24.12 37.32,23.98 37.61,23.77 37.89,22.84 38.17,22.33 38.45,21.72 38.74,21.52 39.02,20.93 39.30,20.26 39.58,19.58 39.86,18.12 40.15,17.92 40.43,17.65 40.71,17.61 40.99,21.83 41.28,21.64 41.56,20.34 41.84,19.39 42.12,18.61 42.41,17.80 42.69,18.60 42.97,17.56 43.25,18.98 43.54,18.15 43.82,17.69 44.10,16.83 44.38,15.12 44.67,14.02 44.95,13.38 45.23,12.76 45.51,12.25 45.79,11.68 46.08,10.91 46.36,8.89 46.64,7.19 46.92,5.40 47.21,4.33 47.49,4.25 47.77,4.82 48.05,5.91 48.34,5.95 48.62,5.93 48.90,6.47 49.18,6.53 49.47,8.76 49.75,9.77 50.03,10.98 50.31,15.14 50.60,14.76 50.88,13.53 51.16,12.79 51.44,12.45 51.73,12.93 52.01,13.51 52.29,14.95 52.57,15.97 52.85,16.78 53.14,17.08 53.42,17.11 53.70,16.57 53.98,17.76 54.27,20.11 54.55,24.40 54.83,28.35 55.11,34.71 55.40,38.86 55.68,37.25 55.96,32.65 56.24,27.49 56.53,22.95 56.81,22.01 57.09,22.66 57.37,24.17 57.66,25.14 57.94,26.12 58.22,22.84 58.50,22.38 58.79,22.49 59.07,21.92 59.35,20.28 59.63,20.47 59.91,22.33 60.20,22.70 60.48,23.31 60.76,23.71 61.04,24.18 61.33,24.68 61.61,25.47 61.89,26.34 62.17,27.34 62.46,10.99 62.74,11.69 63.02,12.44 63.30,12.90 63.59,13.96 63.87,14.99 64.15,15.04 64.43,15.29 64.72,16.82 65.00,17.54 65.28,19.06 65.56,20.55 65.85,22.95 66.13,22.36 66.41,23.48 66.69,24.66 66.97,25.28 67.26,25.27 67.54,26.47 67.82,28.84 68.10,30.02 68.39,30.43 68.67,31.05 68.95,32.36 69.23,33.05 69.52,32.01 69.80,31.35 70.08,29.89 70.36,30.36 70.65,32.15 70.93,34.87 71.21,35.55 71.49,39.05 71.78,41.58 72.06,44.07 72.34,46.18 72.62,48.16 72.91,49.30 73.19,50.42 73.47,52.17 73.75,54.52 74.03,55.47 74.32,55.75 74.60,54.53 74.88,52.98 75.16,51.42 75.45,49.17 75.73,49.58 76.01,50.91 76.29,50.95 76.58,49.56 76.86,46.89 77.14,43.26 77.42,41.16 77.71,41.02 77.99,42.62 78.27,44.45 78.55,46.44 78.84,47.66 79.12,48.51 79.40,48.72 79.68,49.18 79.97,48.05 80.25,48.29 80.53,48.73 80.81,47.51 81.09,45.85 81.38,44.96 81.66,41.06 81.94,37.60 82.22,35.55 82.51,33.87 82.79,33.17 83.07,33.97 83.35,35.06 83.64,34.68 83.92,34.43 84.20,33.41 84.48,33.40 84.77,32.51 85.05,32.46 85.33,32.06 85.61,31.77 85.90,30.83 86.18,31.14 86.46,31.44 86.74,34.86 87.03,35.96 87.31,30.86 87.59,28.83 87.87,29.66 88.15,30.23 88.44,30.94 88.72,33.51 89.00,31.50 89.28,29.68 89.57,29.23 89.85,28.54 90.13,27.90 90.41,27.60 90.70,30.03 90.98,33.39 91.26,38.22 91.54,42.68 91.83,50.64 92.11,52.36 92.39,50.69 92.67,50.68 92.96,48.00 93.24,38.76 93.52,29.68 93.80,25.32 94.09,22.20 94.37,25.10 94.65,24.95 94.93,24.38 95.21,24.30 95.50,24.12 95.78,23.99 96.06,23.42 96.34,22.64 96.63,22.47 96.91,21.72 97.19,21.36 97.47,20.99 97.76,20.21 98.04,19.39 98.32,18.11 98.60,17.62 98.89,17.63 99.17,17.62 99.45,21.89 99.73,21.49 100.02,20.39 100.30,19.99 100.58,18.46 100.86,17.86 101.15,17.96 101.43,17.66 101.71,19.07 101.99,18.13 102.27,17.57 102.56,16.69 102.84,15.21 103.12,14.30 103.40,13.43 103.69,12.84 103.97,12.28 104.25,11.71 104.53,10.78 104.82,8.44 105.10,7.21 105.38,5.57 105.66,4.40 105.95,4.18 106.23,4.57 106.51,5.90 106.79,5.85 107.08,6.11 107.36,6.30 107.64,6.17 107.92,7.67 108.21,9.81 108.49,10.98 108.77,14.80 109.05,14.63 109.33,13.66 109.62,12.71 109.90,12.32 110.18,12.94 110.46,13.47 110.75,14.42 111.03,16.48 111.31,17.05 111.59,17.06 111.88,16.88 112.16,16.55 112.44,17.54 112.72,20.06 113.01,24.45 113.29,28.23 113.57,34.67 113.85,38.47 114.14,37.37 114.42,32.38 114.70,27.67 114.98,23.82 115.26,22.19 115.55,22.65 115.83,24.43 116.11,25.02 116.39,25.91 116.68,22.86 116.96,22.40 117.24,22.50 117.52,21.68 117.81,19.84 118.09,20.43 118.37,22.10 118.65,22.72 118.94,23.27 119.22,23.76 119.50,24.06 119.78,24.78 120.07,25.53 120.35,26.37 120.63,27.38 120.91,10.95 121.20,11.55 121.48,11.63 121.76,12.49 122.04,13.54 122.32,14.79 122.61,15.05 122.89,15.30 123.17,16.60 123.45,17.39 123.74,18.73 124.02,20.80 124.30,23.22 124.58,21.73 124.87,23.25 125.15,24.41 125.43,24.93 125.71,25.43 126.00,25.97 126.28,28.37 126.56,29.83 126.84,30.57 127.13,30.70 127.41,32.17 127.69,33.10 127.97,32.10 128.26,30.75 128.54,29.09 128.82,29.28 129.10,30.38 129.38,34.70 129.67,35.19 129.95,38.96 130.23,41.71 130.51,44.01 130.80,45.50 131.08,48.17 131.36,48.64 131.64,50.62 131.93,51.38 132.21,54.49 132.49,55.14 132.77,56.00 133.06,55.60 133.34,53.83 133.62,51.37 133.90,49.49 134.19,49.67 134.47,50.76 134.75,50.94 135.03,49.54 135.32,47.27 135.60,43.12 135.88,41.81 136.16,41.42 136.44,42.99 136.73,44.64 137.01,47.15 137.29,47.45 137.57,48.34 137.86,48.34 138.14,48.98 138.42,48.69 138.70,49.11 138.99,47.77 139.27,47.03 139.55,46.65 139.83,45.03 140.12,40.06 140.40,38.38 140.68,35.93 140.96,33.68 141.25,33.20 141.53,33.64 141.81,34.59 142.09,34.43 142.38,35.29 142.66,33.25 142.94,34.42 143.22,32.38 143.50,33.24 143.79,33.02 144.07,31.63 144.35,30.74 144.63,30.84 144.92,31.78 145.20,35.88 145.48,36.96 145.76,31.76 146.05,30.06 146.33,29.36 146.61,29.67 146.89,31.27 147.18,32.89 147.46,30.22 147.74,29.07 148.02,29.10 148.31,27.97 148.59,28.81 148.87,28.66 149.15,30.07 149.44,33.13 149.72,36.94 150.00,42.73 150.28,48.48 150.56,53.01 150.85,50.18 151.13,50.73 151.41,47.59 151.69,38.44 151.98,30.59 152.26,23.80 152.54,21.39 152.82,23.72 153.11,24.77 153.39,24.50 153.67,24.16 153.95,24.01 154.24,23.92 154.52,23.73 154.80,22.76 155.08,21.95 155.37,21.80 155.65,21.18 155.93,20.48 156.21,19.88 156.50,18.87 156.78,16.83 157.06,17.71 157.34,17.66 157.62,17.40 157.91,20.24 158.19,20.26 158.47,19.91 158.75,18.86 159.04,17.17 159.32,16.86 159.60,17.46 159.88,17.60 160.17,19.43 160.45,18.18 160.73,17.94 161.01,16.32 161.30,15.40 161.58,13.86 161.86,13.08 162.14,12.74 162.43,12.19 162.71,11.77 162.99,10.56 163.27,9.33 163.56,6.67 163.84,5.37 164.12,4.48 164.40,4.68 164.68,4.00 164.97,5.12 165.25,5.92 165.53,5.89 165.81,6.42 166.10,6.08 166.38,9.34 166.66,9.76 166.94,11.85 167.23,15.05 167.51,14.48 167.79,14.15 168.07,12.37 168.36,12.35 168.64,12.85 168.92,13.53 169.20,15.28 169.49,17.00 169.77,16.27 170.05,16.66 170.33,16.90 170.62,16.27 170.90,17.73 171.18,20.50 171.46,23.93 171.74,28.40 172.03,34.54 172.31,36.99 172.59,36.73 172.87,32.52 173.16,28.39 173.44,25.66 173.72,22.76 174.00,22.90 174.29,23.90 174.57,25.86 174.85,26.64 175.13,23.06 175.42,22.34 175.70,22.50 175.98,21.82 176.26,20.45 176.55,19.51 176.83,22.18 177.11,22.77 177.39,23.18 177.68,23.68 177.96,23.94 178.24,24.98 178.52,25.34 178.80,26.20 179.09,27.56 179.37,10.58 179.65,11.10 179.93,11.65 180.22,12.38 180.50,13.43 180.78,14.92 181.06,15.15 181.35,15.89 181.63,16.85 181.91,18.13 182.19,19.34 182.48,21.74 182.76,25.02 183.04,22.67 183.32,24.42 183.61,25.44 183.89,24.82 184.17,24.55 184.45,24.40 184.74,27.82 185.02,30.04 185.30,31.18 185.58,30.16 185.86,33.01 186.15,33.20 186.43,31.63 186.71,29.25 186.99,27.21 187.28,30.69 187.56,30.75 187.84,34.93 188.12,35.90 188.41,37.78 188.69,40.14 188.97,43.25 189.25,43.35 189.54,47.38 189.82,48.50 190.10,51.26 190.38,51.26 190.67,55.26 190.95,54.24 191.23,53.40 191.51,53.09 191.79,53.19 192.08,48.43 192.36,49.32 192.64,50.76 192.92,49.70 193.21,50.04 193.49,47.58 193.77,44.79 194.05,41.57 194.34,42.43 194.62,40.34 194.90,43.63 195.18,42.28 195.47,45.75 195.75,47.48 196.03,47.48 196.31,48.65 196.60,50.62 196.88,48.58 197.16,46.93 197.44,45.34 197.73,45.24 198.01,44.92 198.29,44.01 198.57,37.71 198.85,37.92 199.14,33.84 199.42,35.73 199.70,34.21 199.98,32.33 200.27,34.76 200.55,36.17 200.83,36.54 201.11,30.92 201.40,31.47 201.68,31.69 201.96,33.36 202.24,35.45 202.53,32.38 202.81,30.23 203.09,34.23 203.37,30.00 203.66,35.20 203.94,34.90 204.22,29.54 204.50,32.02 204.79,32.02 205.07,29.04 205.35,31.84 205.63,30.29 205.91,31.31 206.20,29.27 206.48,27.78 206.76,27.78 207.04,31.12 207.33,30.57 207.61,30.52 207.89,35.65 208.17,36.96 208.46,41.76 208.74,49.94 209.02,51.28 209.30,51.28 209.59,49.92 209.87,47.56 210.15,43.03 210.43,33.35 210.72,23.47 211.00,23.47 211.28,25.07 211.56,25.35 211.85,25.43 212.13,23.10 212.41,26.19 212.69,24.74 212.97,22.39 213.26,21.12 213.54,20.47 213.82,20.00 214.10,19.42 214.39,18.93 214.67,17.93 214.95,16.10 215.23,14.01 215.52,17.75 215.80,17.75 216.08,18.30 216.36,19.79 216.65,18.95 216.93,21.62 217.21,19.35 217.49,16.33 217.78,18.89 218.06,18.08 218.34,18.76 218.62,20.25 218.91,18.79 219.19,17.59 219.47,15.08 219.75,16.54 220.03,14.34 220.32,14.83 220.60,13.24 220.88,11.64 221.16,13.63 221.45,11.71 221.73,9.65 222.01,7.61 222.29,6.14 222.58,5.36 222.86,5.49 223.14,6.43 223.42,8.05 223.71,7.00 223.99,7.00 224.27,7.26 224.55,8.93 224.84,7.49 225.12,11.54 225.40,11.18 225.68,14.94 225.97,13.35 226.25,13.27 226.53,13.06 226.81,13.25 227.09,13.93 227.38,15.06 227.66,16.47 227.94,17.72 228.22,18.51 228.51,18.51 228.79,19.03 229.07,15.63 229.35,17.05 229.64,19.33 229.92,22.57 230.20,29.71 230.48,33.58 230.77,35.69 231.05,35.67 231.33,36.24 231.61,28.87 231.90,27.41 232.18,24.72 232.46,23.70 232.74,24.54 233.03,26.94 233.31,27.27 233.59,24.73 233.87,22.67 234.15,22.49 234.44,22.70 234.72,21.26 235.00,20.42 235.28,20.89 235.57,22.10 235.85,23.53 236.13,25.18 236.41,22.62 236.70,24.24 236.98,26.03 237.26,27.73 237.54,29.43 237.83,12.06 238.11,13.89 238.39,13.89 238.67,13.89 238.96,15.38 239.24,15.38 239.52,17.44 239.80,17.44 240.09,17.44 240.37,24.11 240.65,19.64 240.93,19.64 241.21,24.27 241.50,24.27 241.78,24.27 242.06,24.27 242.34,17.44 242.63,17.44 242.91,17.44 243.19,26.65 243.47,26.65 243.76,26.65 244.04,23.06 244.32,32.06 244.60,32.06 244.89,31.07 245.17,31.07 245.45,31.07 245.73,27.33 246.02,27.33 246.30,27.33 246.58,27.33 246.86,30.89 247.15,30.89 247.43,30.89 247.71,40.77 247.99,40.77 248.27,40.77 248.56,48.96 248.84,48.96 249.12,48.96 249.40,47.81 249.69,47.81 249.97,47.81 250.25,49.55 250.53,49.55 250.82,49.55 251.10,51.41 251.38,45.84 251.66,45.84 251.95,38.81 252.23,38.81 252.51,27.59 252.79,40.53 253.08,40.53 253.36,34.65 253.64,34.65 253.92,34.65 254.21,42.83 254.49,42.83 254.77,42.83 255.05,42.83 255.33,36.25 255.62,36.25 255.90,33.14 256.18,33.14 256.46,33.14 256.75,33.00 257.03,33.00 257.31,33.00 257.59,38.62 257.88,38.62 258.16,22.93 258.44,29.18 258.72,29.18 259.01,29.18 259.29,31.38 259.57,31.38 259.85,31.38 260.14,33.96 260.42,33.96 260.70,40.81 260.98,27.01 261.26,27.01 261.55,37.52 261.83,37.52 262.11,37.52 262.39,24.16 262.68,32.42 262.96,32.42 263.24,32.42 263.52,25.73 263.81,36.95 264.09,36.95 264.37,32.09 264.65,32.09 264.94,32.09 265.22,32.09 265.50,30.61 265.78,30.61 266.07,30.61 266.35,47.34 266.63,47.34 266.91,47.34 267.20,47.34 267.48,45.95 267.76,45.95 268.04,38.29 268.32,38.29 268.61,38.29 268.89,33.66 269.17,33.66 269.45,33.66 269.74,28.75 270.02,28.75 270.30,28.75 270.58,15.96 270.87,26.50 271.15,26.50 271.43,26.50 271.71,23.83 272.00,23.83 272.28,23.83 272.56,21.95 272.84,21.95 273.13,21.95 273.41,16.57 273.69,16.57 273.97,16.57 274.26,16.57 274.54,8.30 274.82,8.30 275.10,8.30 275.38,18.29 275.67,18.29 275.95,16.41 276.23,16.41 276.51,16.41 276.80,19.02 277.08,19.02 277.36,19.02 277.64,17.19 277.93,17.19 278.21,17.19 278.49,17.19 278.77,11.92 279.06,11.92 279.34,11.92 279.62,19.24 279.90,19.24 280.19,19.24 280.47,14.69 280.75,14.69 281.03,14.69 281.32,16.20 281.60,16.20 281.88,16.20 282.16,13.67 282.44,13.67 282.73,13.67 283.01,13.67 283.29,7.89 283.57,21.88 283.86,21.88 284.14,15.65 284.42,15.65 284.70,17.93 284.99,17.93 285.27,17.93 285.55,20.44 285.83,20.44 286.12,20.44 286.40,23.52 286.68,23.52 286.96,23.52 287.25,23.52 287.53,28.13 287.81,28.13 288.09,28.13 288.38,37.96 288.66,37.96 288.94,37.96 289.22,41.77 289.50,41.77 289.79,41.77 290.07,41.77 290.35,35.21 290.63,35.21 290.92,35.21 291.20,37.15 291.48,37.15 291.76,26.45 292.05,26.45 292.33,26.45 292.61,18.77 292.89,28.34 293.18,28.34 293.46,31.24 293.74,31.24 294.02,31.24 294.31,36.65 294.59,36.65 294.87,22.53 295.15,27.76 295.44,27.76 295.72,27.76 296.00,30.30" />
</svg>