<svg width="300" height="60" xmlns="http://www.w3.org/2000/svg">
  <polyline fill="rgba(255,200,0,0.3)" stroke="#ffbb00" stroke-width="2" points="4.00,55.07 5.00,54.86 6.01,54.46 7.01,53.91 8.01,53.27 9.02,52.14 10.02,50.42 11.02,48.88 12.03,47.35 13.03,45.89 14.03,44.49 15.04,43.08 16.04,41.61 17.04,40.11 18.05,39.02 19.05,37.99 20.05,37.89 21.06,38.17 22.06,38.10 23.07,37.93 24.07,37.92 25.07,37.94 26.08,38.65 27.08,39.87 28.08,40.91 29.09,41.97 30.09,42.93 31.09,43.63 32.10,44.08 33.10,44.14 34.10,44.22 35.11,44.08 36.11,43.76 37.11,47.18 38.12,49.58 39.12,50.36 40.12,46.99 41.13,43.18 42.13,42.10 43.13,41.64 44.14,41.54 45.14,41.50 46.14,41.36 47.15,38.84 48.15,40.32 49.15,43.35 50.16,43.46 51.16,43.69 52.16,49.46 53.17,45.87 54.17,42.51 55.18,31.77 56.18,28.69 57.18,28.93 58.19,32.14 59.19,33.29 60.19,34.99 61.20,37.33 62.20,37.82 63.20,34.66 64.21,33.30 65.21,33.47 66.21,34.87 67.22,31.36 68.22,28.36 69.22,33.23 70.23,37.60 71.23,40.85 72.23,40.81 73.24,41.09 74.24,41.18 75.24,41.51 76.25,43.51 77.25,55.12 78.25,55.02 79.26,54.36 80.26,53.90 81.26,53.26 82.27,52.02 83.27,50.30 84.27,48.85 85.28,47.47 86.28,46.17 87.29,44.20 88.29,43.08 89.29,41.32 90.30,38.29 91.30,39.02 92.30,37.89 93.31,37.82 94.31,38.17 95.31,38.13 96.32,38.20 97.32,37.88 98.32,37.89 99.33,38.55 100.33,39.75 101.33,40.76 102.34,42.07 103.34,42.84 104.34,43.62 105.35,43.97 106.35,44.18 107.35,44.28 108.36,44.04 109.36,43.72 110.36,44.85 111.37,47.96 112.37,49.40 113.37,48.42 114.38,42.83 115.38,42.09 116.38,41.63 117.39,41.56 118.39,39.22 119.40,39.87 120.40,37.75 121.40,39.34 122.41,42.50 123.41,44.94 124.41,45.11 125.42,49.13 126.42,46.80 127.42,40.34 128.43,29.94 129.43,26.93 130.43,28.98 131.44,29.72 132.44,33.13 133.44,32.78 134.45,35.27 135.45,37.56 136.45,34.74 137.46,33.24 138.46,32.60 139.46,33.99 140.47,28.42 141.47,29.10 142.47,34.93 143.48,36.30 144.48,39.87 145.48,40.89 146.49,41.05 147.49,41.08 148.49,41.29 149.50,44.25 150.50,52.72 151.51,56.00 152.51,53.81 153.51,55.05 154.52,50.13 155.52,51.91 156.52,48.45 157.53,47.29 158.53,48.81 159.53,46.16 160.54,44.57 161.54,40.59 162.54,41.33 163.55,37.83 164.55,37.56 165.55,37.56 166.56,38.62 167.56,39.61 168.56,37.07 169.57,39.22 170.57,38.69 171.57,37.84 172.58,40.63 173.58,39.86 174.58,42.08 175.59,41.59 176.59,43.67 177.59,43.53 178.60,44.44 179.60,44.24 180.60,41.63 181.61,44.17 182.61,45.54 183.62,44.73 184.62,47.28 185.62,48.65 186.63,48.65 187.63,47.52 188.63,41.52 189.64,37.99 190.64,35.28 191.64,41.27 192.65,39.72 193.65,37.85 194.65,37.85 195.66,38.73 196.66,42.93 197.66,43.78 198.67,47.41 199.67,43.81 200.67,38.49 201.68,29.98 202.68,22.32 203.68,28.78 204.69,23.73 205.69,31.88 206.69,27.30 207.70,36.54 208.70,35.45 209.70,34.07 210.71,31.64 211.71,31.54 212.71,29.95 213.72,26.07 214.72,25.12 215.73,32.67 216.73,37.70 217.73,41.47 218.74,35.93 219.74,40.13 220.74,43.41 221.75,41.26 222.75,42.78 223.75,49.33 224.76,49.33 225.76,53.45 226.76,53.45 227.77,36.34 228.77,45.91 229.77,45.91 230.78,45.91 231.78,49.50 232.78,39.87 233.79,39.87 234.79,39.87 235.79,42.80 236.80,35.11 237.80,35.11 238.80,35.11 239.81,43.37 240.81,34.30 241.81,34.30 242.82,34.30 243.82,42.75 244.82,27.06 245.83,27.06 246.83,39.34 247.84,39.34 248.84,39.34 249.84,45.51 250.85,38.38 251.85,38.38 252.85,47.66 253.86,47.66 254.86,47.66 255.86,40.78 256.87,40.78 257.87,50.91 258.87,39.37 259.88,39.37 260.88,39.37 261.88,39.37 262.89,33.16 263.89,33.16 264.89,33.16 265.90,45.09 266.90,33.62 267.90,33.62 268.91,33.62 269.91,45.79 270.91,45.79 271.92,45.79 272.92,37.73 273.92,37.73 274.93,18.71 275.93,18.71 276.93,18.71 277.94,4.00 278.94,4.00 279.95,4.00 280.95,32.26 281.95,32.26 282.96,32.26 283.96,29.79 284.96,29.79 285.97,26.72 286.97,26.72 287.97,26.72 288.98,34.73 289.98,34.73 290.98,41.11 291.99,16.91 292.99,16.91 293.99,36.21 295.00,36.21 296.00,42.14" />
</svg>