<svg width="300" height="60" xmlns="http://www.w3.org/2000/svg">
  <polyline fill="rgba(255,200,0,0.3)" stroke="#ffbb00" stroke-width="2" points="4.00,26.27 4.46,25.94 4.92,25.52 5.37,25.29 5.83,25.12 6.29,25.18 6.75,25.35 7.20,26.15 7.66,27.06 8.12,27.45 8.58,27.37 9.03,27.67 9.49,27.96 9.95,27.99 10.41,28.79 10.87,29.41 11.32,30.12 11.78,30.20 12.24,30.59 12.70,30.86 13.15,31.37 13.61,31.52 14.07,30.67 14.53,29.70 14.98,29.31 15.44,28.64 15.90,28.37 16.36,28.47 16.82,28.66 17.27,28.59 17.73,28.76 18.19,29.37 18.65,30.04 19.10,29.09 19.56,27.85 20.02,27.18 20.48,26.37 20.93,25.59 21.39,24.97 21.85,25.70 22.31,26.52 22.76,27.64 23.22,29.04 23.68,30.49 24.14,31.62 24.60,31.53 25.05,31.81 25.51,32.01 25.97,32.34 26.43,32.19 26.88,31.66 27.34,31.14 27.80,30.92 28.26,30.55 28.71,30.23 29.17,29.77 29.63,29.43 30.09,29.03 30.55,28.46 31.00,28.47 31.46,28.47 31.92,28.32 32.38,27.57 32.83,27.43 33.29,27.45 33.75,27.32 34.21,26.63 34.66,26.02 35.12,25.53 35.58,24.67 36.04,23.99 36.50,23.12 36.95,22.15 37.41,21.21 37.87,20.19 38.33,18.44 38.78,16.42 39.24,15.24 39.70,14.06 40.16,13.24 40.61,12.32 41.07,12.25 41.53,12.41 41.99,12.68 42.45,12.94 42.90,12.94 43.36,12.95 43.82,13.48 44.28,14.32 44.73,15.40 45.19,16.60 45.65,17.90 46.11,19.26 46.56,19.81 47.02,19.79 47.48,20.59 47.94,21.32 48.39,21.92 48.85,21.90 49.31,22.46 49.77,22.81 50.23,22.73 50.68,22.25 51.14,21.93 51.60,21.69 52.06,19.94 52.51,18.71 52.97,18.53 53.43,18.14 53.89,17.62 54.34,17.34 54.80,16.63 55.26,16.14 55.72,15.65 56.18,14.81 56.63,14.23 57.09,14.51 57.55,15.32 58.01,15.86 58.46,14.85 58.92,13.52 59.38,12.13 59.84,10.84 60.29,9.22 60.75,7.50 61.21,5.85 61.67,4.59 62.13,4.00 62.58,4.15 63.04,4.38 63.50,5.10 63.96,6.17 64.41,7.04 64.87,8.06 65.33,8.83 65.79,9.57 66.24,10.77 66.70,12.23 67.16,13.70 67.62,15.04 68.08,15.75 68.53,15.95 68.99,16.04 69.45,15.94 69.91,16.47 70.36,17.08 70.82,17.89 71.28,18.75 71.74,19.86 72.19,20.99 72.65,21.77 73.11,22.50 73.57,23.84 74.03,24.85 74.48,25.45 74.94,26.37 75.40,26.84 75.86,26.80 76.31,26.36 76.77,25.83 77.23,25.88 77.69,26.46 78.14,27.64 78.60,29.01 79.06,30.75 79.52,32.42 79.97,34.38 80.43,35.96 80.89,37.05 81.35,37.86 81.81,38.51 82.26,38.98 82.72,39.26 83.18,39.07 83.64,39.88 84.09,40.78 84.55,41.63 85.01,41.97 85.47,42.08 85.92,42.03 86.38,42.07 86.84,41.81 87.30,41.52 87.76,40.85 88.21,40.00 88.67,39.52 89.13,40.24 89.59,40.83 90.04,41.38 90.50,41.78 90.96,41.88 91.42,41.66 91.87,41.15 92.33,41.25 92.79,41.12 93.25,41.39 93.71,41.80 94.16,41.90 94.62,42.01 95.08,42.37 95.54,42.94 95.99,43.70 96.45,44.23 96.91,44.89 97.37,45.73 97.82,46.37 98.28,46.89 98.74,47.89 99.20,49.02 99.66,50.27 100.11,52.09 100.57,52.96 101.03,55.67 101.49,26.56 101.94,26.29 102.40,26.21 102.86,24.95 103.32,26.02 103.77,25.70 104.23,26.09 104.69,25.57 105.15,27.62 105.61,28.78 106.06,27.49 106.52,28.31 106.98,27.46 107.44,28.50 107.89,30.39 108.35,29.34 108.81,30.06 109.27,30.76 109.72,30.76 110.18,31.36 110.64,31.58 111.10,30.94 111.55,31.45 112.01,29.02 112.47,29.22 112.93,29.17 113.39,29.45 113.84,27.70 114.30,28.61 114.76,27.92 115.22,29.48 115.67,29.45 116.13,30.57 116.59,28.27 117.05,28.23 117.50,26.99 117.96,26.60 118.42,26.60 118.88,26.25 119.34,26.07 119.79,27.17 120.25,28.28 120.71,29.37 121.17,30.55 121.62,31.98 122.08,32.11 122.54,32.34 123.00,32.64 123.45,32.88 123.91,31.79 124.37,31.81 124.83,31.60 125.29,30.82 125.74,30.62 126.20,29.98 126.66,29.90 127.12,29.66 127.57,29.10 128.03,28.58 128.49,28.68 128.95,28.52 129.40,28.59 129.86,27.66 130.32,27.94 130.78,27.28 131.24,27.12 131.69,26.13 132.15,25.87 132.61,24.67 133.07,24.54 133.52,23.35 133.98,23.08 134.44,21.91 134.90,20.93 135.35,19.29 135.81,19.29 136.27,17.53 136.73,15.49 137.18,13.37 137.64,13.37 138.10,13.41 138.56,11.52 139.02,12.10 139.47,12.41 139.93,12.52 140.39,12.54 140.85,12.77 141.30,13.87 141.76,14.77 142.22,15.79 142.68,16.84 143.13,17.90 143.59,19.05 144.05,19.87 144.51,20.61 144.97,20.27 145.42,21.23 145.88,22.23 146.34,22.41 146.80,22.42 147.25,22.79 147.71,22.81 148.17,22.16 148.63,22.16 149.08,20.85 149.54,20.81 150.00,18.99 150.46,18.82 150.92,17.99 151.37,17.48 151.83,17.13 152.29,16.83 152.75,16.67 153.20,15.65 153.66,14.61 154.12,14.82 154.58,15.08 155.03,15.00 155.49,15.17 155.95,15.15 156.41,13.54 156.87,12.33 157.32,11.09 157.78,9.72 158.24,8.28 158.70,6.93 159.15,5.46 159.61,4.24 160.07,4.65 160.53,4.68 160.98,6.23 161.44,5.87 161.90,6.91 162.36,8.32 162.82,9.03 163.27,10.03 163.73,11.20 164.19,12.68 164.65,13.69 165.10,15.36 165.56,15.65 166.02,15.65 166.48,15.55 166.93,16.55 167.39,16.96 167.85,17.46 168.31,18.07 168.76,18.78 169.22,19.64 169.68,21.37 170.14,22.03 170.60,22.83 171.05,23.86 171.51,24.78 171.97,25.56 172.43,26.70 172.88,27.12 173.34,26.74 173.80,26.25 174.26,25.88 174.71,25.96 175.17,26.58 175.63,27.27 176.09,30.00 176.55,31.48 177.00,33.04 177.46,34.58 177.92,35.92 178.38,37.18 178.83,37.86 179.29,38.40 179.75,38.48 180.21,39.20 180.66,39.46 181.12,40.32 181.58,41.40 182.04,41.58 182.50,42.06 182.95,42.19 183.41,42.15 183.87,42.06 184.33,42.16 184.78,41.44 185.24,40.55 185.70,39.55 186.16,39.67 186.61,40.55 187.07,40.52 187.53,41.58 187.99,41.74 188.45,41.83 188.90,41.27 189.36,41.27 189.82,41.05 190.28,41.13 190.73,41.72 191.19,41.72 191.65,42.48 192.11,42.11 192.56,42.58 193.02,42.88 193.48,43.60 193.94,44.33 194.39,45.04 194.85,45.86 195.31,46.50 195.77,47.03 196.23,47.81 196.68,49.41 197.14,49.41 197.60,51.36 198.06,52.24 198.51,56.00 198.97,27.19 199.43,27.19 199.89,30.13 200.34,27.07 200.80,27.07 201.26,27.07 201.72,31.15 202.18,29.13 202.63,29.13 203.09,29.13 203.55,29.13 204.01,31.94 204.46,31.94 204.92,31.94 205.38,31.94 205.84,29.29 206.29,34.99 206.75,34.99 207.21,34.99 207.67,31.10 208.13,35.45 208.58,35.45 209.04,35.45 209.50,29.37 209.96,29.37 210.41,29.37 210.87,31.11 211.33,31.11 211.79,31.11 212.24,34.64 212.70,34.64 213.16,29.11 213.62,30.71 214.08,30.71 214.53,30.71 214.99,32.50 215.45,27.91 215.91,27.91 216.36,27.91 216.82,30.96 217.28,30.96 217.74,30.96 218.19,32.15 218.65,32.15 219.11,31.96 219.57,31.96 220.03,31.96 220.48,32.54 220.94,32.54 221.40,32.54 221.86,31.87 222.31,31.87 222.77,31.87 223.23,29.52 223.69,29.63 224.14,29.63 224.60,29.63 225.06,29.07 225.52,29.07 225.97,29.07 226.43,29.96 226.89,27.85 227.35,27.85 227.81,27.85 228.26,25.51 228.72,27.55 229.18,27.55 229.64,25.06 230.09,25.06 230.55,25.06 231.01,21.54 231.47,22.83 231.92,22.83 232.38,20.06 232.84,20.06 233.30,20.06 233.76,17.49 234.21,17.49 234.67,18.02 235.13,18.02 235.59,18.02 236.04,12.17 236.50,12.17 236.96,12.91 237.42,12.91 237.87,12.91 238.33,14.36 238.79,14.36 239.25,16.82 239.71,16.82 240.16,16.82 240.62,19.59 241.08,19.59 241.54,19.59 241.99,22.69 242.45,22.69 242.91,22.69 243.37,25.91 243.82,23.95 244.28,23.95 244.74,23.95 245.20,23.23 245.66,23.23 246.11,23.23 246.57,20.18 247.03,20.83 247.49,20.83 247.94,20.83 248.40,18.29 248.86,18.29 249.32,18.29 249.77,16.95 250.23,16.95 250.69,16.95 251.15,16.95 251.61,16.72 252.06,14.59 252.52,14.59 252.98,14.59 253.44,13.79 253.89,13.79 254.35,12.07 254.81,12.07 255.27,12.07 255.72,8.50 256.18,8.50 256.64,8.50 257.10,4.34 257.55,4.34 258.01,4.34 258.47,8.73 258.93,8.70 259.39,8.70 259.84,8.70 260.30,12.86 260.76,11.58 261.22,11.58 261.67,14.48 262.13,14.48 262.59,14.48 263.05,16.44 263.50,16.44 263.96,16.44 264.42,17.60 264.88,17.60 265.34,19.28 265.79,19.28 266.25,19.28 266.71,21.56 267.17,21.56 267.62,24.24 268.08,24.24 268.54,24.24 269.00,26.81 269.45,26.81 269.91,27.72 270.37,27.72 270.83,27.72 271.29,26.70 271.74,26.70 272.20,26.70 272.66,28.86 273.12,28.86 273.57,33.15 274.03,33.15 274.49,33.15 274.95,37.21 275.40,37.21 275.86,37.21 276.32,39.24 276.78,39.24 277.24,39.24 277.69,40.56 278.15,40.56 278.61,43.95 279.07,43.95 279.52,41.89 279.98,42.90 280.44,42.90 280.90,42.20 281.35,42.20 281.81,42.20 282.27,39.97 282.73,39.97 283.18,39.97 283.64,40.24 284.10,41.08 284.56,41.08 285.02,42.77 285.47,42.77 285.93,42.77 286.39,41.12 286.85,41.12 287.30,41.12 287.76,41.12 288.22,43.48 288.68,43.48 289.13,43.48 289.59,43.48 290.05,43.17 290.51,43.17 290.97,43.17 291.42,46.29 291.88,46.29 292.34,46.29 292.80,46.90 293.25,46.90 293.71,46.90 294.17,49.04 294.63,49.04 295.08,49.04 295.54,51.76 296.00,54.93" />
</svg>