<svg width="300" height="60" xmlns="http://www.w3.org/2000/svg">
  <polyline fill="rgba(255,200,0,0.3)" stroke="#ffbb00" stroke-width="2" points="4.00,56.00 4.62,54.03 5.25,52.43 5.87,50.82 6.50,49.73 7.12,48.95 7.74,48.27 8.37,47.83 8.99,47.69 9.62,47.37 10.24,46.54 10.86,45.76 11.49,45.12 12.11,44.37 12.74,43.81 13.36,43.23 13.98,42.74 14.61,42.24 15.23,41.78 15.85,41.60 16.48,41.87 17.10,42.10 17.73,42.06 18.35,41.88 18.97,41.59 19.60,41.45 20.22,41.14 20.85,41.15 21.47,41.10 22.09,40.90 22.72,40.55 23.34,39.90 23.97,39.21 24.59,38.69 25.21,38.21 25.84,37.64 26.46,36.89 27.09,36.34 27.71,36.04 28.33,36.04 28.96,36.10 29.58,35.90 30.21,36.10 30.83,36.17 31.45,36.50 32.08,36.86 32.70,36.93 33.32,37.46 33.95,37.77 34.57,37.26 35.20,36.56 35.82,36.00 36.44,35.42 37.07,34.94 37.69,34.40 38.32,33.87 38.94,33.58 39.56,33.23 40.19,32.91 40.81,32.75 41.44,32.55 42.06,31.95 42.68,31.21 43.31,30.66 43.93,30.36 44.56,30.24 45.18,30.20 45.80,30.21 46.43,30.13 47.05,30.01 47.68,30.27 48.30,30.36 48.92,30.40 49.55,30.15 50.17,29.86 50.79,29.58 51.42,29.15 52.04,28.83 52.67,28.40 53.29,28.40 53.91,28.18 54.54,27.84 55.16,27.58 55.79,27.41 56.41,27.11 57.03,27.05 57.66,26.90 58.28,26.69 58.91,26.40 59.53,26.09 60.15,25.69 60.78,25.35 61.40,25.19 62.03,24.74 62.65,23.95 63.27,22.99 63.90,22.12 64.52,21.39 65.15,20.17 65.77,18.77 66.39,17.29 67.02,15.76 67.64,14.12 68.26,12.51 68.89,10.86 69.51,9.13 70.14,7.46 70.76,6.22 71.38,5.32 72.01,4.38 72.63,4.00 73.26,4.21 73.88,5.23 74.50,6.80 75.13,8.49 75.75,10.43 76.38,12.43 77.00,14.54 77.62,16.78 78.25,19.05 78.87,21.40 79.50,24.01 80.12,26.97 80.74,27.53 81.37,26.59 81.99,25.63 82.62,24.59 83.24,23.50 83.86,22.77 84.49,22.46 85.11,23.09 85.74,24.46 86.36,26.76 86.98,28.04 87.61,30.23 88.23,32.65 88.85,32.03 89.48,30.43 90.10,28.58 90.73,26.94 91.35,25.84 91.97,24.97 92.60,23.96 93.22,23.49 93.85,23.77 94.47,24.92 95.09,25.70 95.72,27.95 96.34,29.77 96.97,29.60 97.59,29.77 98.21,30.45 98.84,30.23 99.46,29.79 100.09,29.17 100.71,28.77 101.33,28.72 101.96,55.18 102.58,53.57 103.21,51.32 103.83,50.11 104.45,50.11 105.08,49.36 105.70,48.55 106.32,48.21 106.95,47.69 107.57,47.49 108.20,46.73 108.82,45.78 109.44,45.06 110.07,44.31 110.69,43.61 111.32,42.87 111.94,42.46 112.56,41.81 113.19,41.29 113.81,41.84 114.44,41.58 115.06,42.05 115.68,41.58 116.31,41.64 116.93,41.12 117.56,41.35 118.18,41.27 118.80,41.27 119.43,41.31 120.05,40.94 120.68,40.52 121.30,39.85 121.92,39.36 122.55,39.06 123.17,38.06 123.79,37.41 124.42,36.70 125.04,35.99 125.67,35.99 126.29,35.60 126.91,36.09 127.54,35.53 128.16,35.92 128.79,35.73 129.41,36.66 130.03,36.95 130.66,37.02 131.28,37.13 131.91,37.17 132.53,37.64 133.15,36.83 133.78,35.55 134.40,34.97 135.03,35.22 135.65,34.72 136.27,34.30 136.90,34.03 137.52,32.82 138.15,32.81 138.77,32.89 139.39,32.92 140.02,31.60 140.64,31.38 141.26,30.07 141.89,30.01 142.51,30.31 143.14,30.48 143.76,29.60 144.38,29.85 145.01,30.19 145.63,30.43 146.26,30.61 146.88,30.49 147.50,30.27 148.13,29.97 148.75,29.61 149.38,29.21 150.00,28.82 150.62,28.32 151.25,28.08 151.87,27.82 152.50,27.50 153.12,27.86 153.74,27.55 154.37,26.93 154.99,26.66 155.62,26.40 156.24,26.12 156.86,25.77 157.49,25.47 158.11,25.23 158.74,25.15 159.36,24.97 159.98,24.68 160.61,22.72 161.23,22.27 161.85,21.54 162.48,19.34 163.10,18.95 163.73,16.64 164.35,16.64 164.97,14.37 165.60,12.28 166.22,11.35 166.85,9.21 167.47,8.11 168.09,6.49 168.72,5.66 169.34,4.90 169.97,4.09 170.59,4.29 171.21,5.10 171.84,7.30 172.46,9.70 173.09,10.46 173.71,12.44 174.33,15.43 174.96,16.09 175.58,19.22 176.21,22.49 176.83,25.16 177.45,25.92 178.08,28.23 178.70,26.96 179.32,25.20 179.95,25.20 180.57,23.79 181.20,22.87 181.82,22.79 182.44,23.60 183.07,25.20 183.69,27.02 184.32,28.88 184.94,31.18 185.56,32.67 186.19,31.77 186.81,30.15 187.44,28.48 188.06,27.04 188.68,25.93 189.31,24.09 189.93,23.55 190.56,23.67 191.18,23.67 191.80,24.51 192.43,25.74 193.05,27.49 193.68,29.26 194.30,29.21 194.92,30.29 195.55,30.95 196.17,29.38 196.79,30.50 197.42,30.04 198.04,28.97 198.67,28.67 199.29,51.55 199.91,51.55 200.54,51.55 201.16,48.99 201.79,48.99 202.41,48.99 203.03,48.99 203.66,47.91 204.28,47.91 204.91,47.91 205.53,45.43 206.15,45.43 206.78,45.43 207.40,42.92 208.03,42.92 208.65,42.92 209.27,41.08 209.90,41.08 210.52,41.08 211.15,41.08 211.77,40.37 212.39,41.67 213.02,41.67 213.64,41.75 214.26,41.75 214.89,41.75 215.51,41.65 216.14,41.65 216.76,41.65 217.38,41.65 218.01,41.78 218.63,41.78 219.26,41.78 219.88,40.30 220.50,37.76 221.13,37.76 221.75,35.72 222.38,35.72 223.00,35.72 223.62,35.72 224.25,36.29 224.87,35.12 225.50,35.12 226.12,36.09 226.74,36.09 227.37,37.13 227.99,37.13 228.62,37.13 229.24,36.52 229.86,36.52 230.49,36.52 231.11,34.90 231.74,34.90 232.36,35.32 232.98,35.32 233.61,35.32 234.23,34.17 234.85,31.47 235.48,30.86 236.10,30.86 236.73,30.86 237.35,30.50 237.97,30.50 238.60,30.50 239.22,30.26 239.85,30.26 240.47,30.67 241.09,29.22 241.72,29.22 242.34,30.21 242.97,30.21 243.59,30.21 244.21,30.48 244.84,30.48 245.46,29.95 246.09,29.95 246.71,29.95 247.33,29.54 247.96,29.54 248.58,29.35 249.21,29.35 249.83,29.35 250.45,28.25 251.08,28.25 251.70,27.28 252.32,27.28 252.95,27.28 253.57,26.33 254.20,26.33 254.82,26.33 255.44,25.54 256.07,25.54 256.69,25.05 257.32,25.05 257.94,22.31 258.56,19.92 259.19,19.92 259.81,17.96 260.44,17.96 261.06,17.96 261.68,17.96 262.31,12.56 262.93,12.56 263.56,12.56 264.18,9.54 264.80,9.54 265.43,9.00 266.05,6.29 266.68,6.29 267.30,6.29 267.92,6.29 268.55,9.97 269.17,9.97 269.79,9.97 270.42,12.27 271.04,18.63 271.67,18.63 272.29,18.63 272.91,20.65 273.54,25.39 274.16,25.39 274.79,25.39 275.41,28.31 276.03,26.73 276.66,26.73 277.28,26.73 277.91,24.29 278.53,24.29 279.15,24.29 279.78,27.44 280.40,27.44 281.03,27.44 281.65,32.05 282.27,32.05 282.90,32.05 283.52,29.73 284.15,29.73 284.77,29.73 285.39,26.14 286.02,26.14 286.64,26.14 287.26,26.54 287.89,26.54 288.51,26.54 289.14,26.54 289.76,30.61 290.38,30.61 291.01,30.61 291.63,30.58 292.26,30.58 292.88,30.58 293.50,28.11 294.13,30.10 294.75,30.10 295.38,30.10 296.00,29.42" />
</svg>