<svg width="300" height="60" xmlns="http://www.w3.org/2000/svg">
  <polyline fill="rgba(255,200,0,0.3)" stroke="#ffbb00" stroke-width="2" points="4.00,56.00 4.26,55.57 4.53,54.80 4.79,54.42 5.06,53.90 5.32,53.66 5.58,53.86 5.85,53.90 6.11,53.77 6.38,53.37 6.64,52.79 6.90,52.50 7.17,51.93 7.43,51.68 7.70,51.96 7.96,51.96 8.22,51.69 8.49,51.41 8.75,50.88 9.02,50.99 9.28,50.81 9.54,50.55 9.81,49.93 10.07,49.73 10.34,49.52 10.60,49.15 10.86,48.98 11.13,48.29 11.39,47.22 11.66,44.84 11.92,43.25 12.18,42.68 12.45,41.97 12.71,42.75 12.98,44.07 13.24,45.80 13.50,46.30 13.77,45.88 14.03,45.28 14.30,44.90 14.56,44.97 14.82,44.92 15.09,44.81 15.35,44.46 15.62,44.30 15.88,44.09 16.14,43.81 16.41,43.88 16.67,43.52 16.94,43.30 17.20,43.60 17.46,44.07 17.73,44.30 17.99,44.10 18.26,43.17 18.52,41.93 18.78,40.74 19.05,40.26 19.31,39.59 19.58,39.74 19.84,40.71 20.10,40.12 20.37,40.13 20.63,40.08 20.90,40.01 21.16,39.95 21.42,39.87 21.69,39.54 21.95,39.12 22.22,39.66 22.48,39.09 22.75,38.41 23.01,38.09 23.27,37.92 23.54,37.70 23.80,37.33 24.07,37.06 24.33,36.46 24.59,35.81 24.86,34.68 25.12,33.63 25.39,32.95 25.65,32.72 25.91,33.36 26.18,35.16 26.44,35.34 26.71,35.92 26.97,34.73 27.23,33.77 27.50,33.19 27.76,33.24 28.03,33.85 28.29,33.82 28.55,33.69 28.82,33.41 29.08,33.84 29.35,33.09 29.61,32.59 29.87,32.03 30.14,31.96 30.40,31.77 30.67,31.47 30.93,30.69 31.19,30.33 31.46,30.02 31.72,29.92 31.99,28.68 32.25,28.80 32.51,29.23 32.78,30.71 33.04,31.03 33.31,30.79 33.57,29.54 33.83,28.55 34.10,27.74 34.36,27.76 34.63,28.32 34.89,29.22 35.15,29.33 35.42,28.63 35.68,27.62 35.95,26.67 36.21,26.06 36.47,25.84 36.74,25.71 37.00,25.84 37.27,25.57 37.53,25.24 37.79,24.72 38.06,24.13 38.32,23.83 38.59,23.90 38.85,24.59 39.11,24.64 39.38,23.89 39.64,23.53 39.91,23.40 40.17,23.72 40.43,23.72 40.70,22.88 40.96,21.52 41.23,20.20 41.49,19.29 41.75,18.61 42.02,18.21 42.28,18.01 42.55,18.32 42.81,19.02 43.07,20.16 43.34,20.48 43.60,20.55 43.87,20.52 44.13,19.64 44.39,19.28 44.66,19.01 44.92,18.76 45.19,18.80 45.45,18.96 45.71,18.71 45.98,18.39 46.24,18.30 46.51,18.41 46.77,18.27 47.03,17.52 47.30,16.80 47.56,16.04 47.83,15.60 48.09,14.62 48.35,14.61 48.62,14.97 48.88,15.78 49.15,16.39 49.41,16.06 49.67,15.36 49.94,15.20 50.20,14.78 50.47,15.14 50.73,15.39 50.99,15.25 51.26,14.99 51.52,14.28 51.79,13.64 52.05,13.17 52.31,12.99 52.58,12.98 52.84,13.12 53.11,13.01 53.37,13.69 53.63,13.65 53.90,12.78 54.16,12.26 54.43,11.89 54.69,11.73 54.95,11.69 55.22,11.76 55.48,11.57 55.75,11.63 56.01,11.09 56.27,11.42 56.54,11.65 56.80,11.73 57.07,11.86 57.33,11.90 57.59,11.89 57.86,11.91 58.12,11.86 58.39,11.79 58.65,11.84 58.92,11.98 59.18,12.24 59.44,12.49 59.71,12.30 59.97,12.08 60.24,11.79 60.50,11.60 60.76,11.62 61.03,11.53 61.29,11.00 61.56,11.11 61.82,10.91 62.08,10.90 62.35,10.92 62.61,10.70 62.88,10.40 63.14,10.03 63.40,9.85 63.67,9.69 63.93,9.18 64.20,9.01 64.46,9.08 64.72,8.64 64.99,8.81 65.25,8.60 65.52,8.48 65.78,8.37 66.04,8.32 66.31,8.03 66.57,7.76 66.84,7.41 67.10,7.34 67.36,6.64 67.63,6.51 67.89,6.29 68.16,6.67 68.42,6.67 68.68,6.23 68.95,5.83 69.21,5.51 69.48,5.16 69.74,5.73 70.00,5.63 70.27,5.42 70.53,4.88 70.80,5.12 71.06,4.49 71.32,4.31 71.59,4.65 71.85,4.84 72.12,5.45 72.38,5.60 72.64,5.85 72.91,6.03 73.17,6.14 73.44,6.26 73.70,6.29 73.96,6.37 74.23,6.19 74.49,6.13 74.76,6.25 75.02,6.35 75.28,6.47 75.55,7.15 75.81,7.64 76.08,7.80 76.34,7.95 76.60,8.14 76.87,8.34 77.13,8.62 77.40,8.89 77.66,9.00 77.92,9.27 78.19,9.68 78.45,9.67 78.72,9.97 78.98,10.25 79.24,10.49 79.51,10.66 79.77,10.78 80.04,10.93 80.30,11.16 80.56,11.34 80.83,11.64 81.09,12.13 81.36,11.90 81.62,11.95 81.88,11.71 82.15,11.65 82.41,11.59 82.68,11.68 82.94,12.10 83.20,12.59 83.47,12.56 83.73,12.10 84.00,12.24 84.26,12.25 84.52,12.54 84.79,12.75 85.05,13.20 85.32,12.67 85.58,12.46 85.84,12.74 86.11,12.78 86.37,13.09 86.64,13.07 86.90,13.42 87.16,13.18 87.43,12.75 87.69,12.79 87.96,13.02 88.22,13.27 88.48,13.23 88.75,13.05 89.01,12.04 89.28,12.03 89.54,12.35 89.80,11.95 90.07,11.37 90.33,11.45 90.60,11.41 90.86,10.85 91.12,10.37 91.39,10.15 91.65,9.80 91.92,9.92 92.18,9.60 92.44,9.88 92.71,10.24 92.97,10.07 93.24,9.48 93.50,8.83 93.76,8.67 94.03,8.21 94.29,7.44 94.56,7.59 94.82,7.93 95.08,7.46 95.35,8.22 95.61,8.20 95.88,8.19 96.14,8.37 96.41,8.38 96.67,8.52 96.93,7.97 97.20,7.74 97.46,7.83 97.73,8.32 97.99,8.79 98.25,8.97 98.52,8.96 98.78,9.41 99.05,9.64 99.31,9.75 99.57,9.78 99.84,9.98 100.10,9.94 100.37,9.85 100.63,9.76 100.89,10.31 101.16,10.81 101.42,55.80 101.69,55.49 101.95,54.43 102.21,54.25 102.48,54.07 102.74,53.43 103.01,53.75 103.27,53.87 103.53,53.18 103.80,53.05 104.06,52.04 104.33,51.93 104.59,51.93 104.85,52.05 105.12,51.42 105.38,51.32 105.65,51.74 105.91,50.91 106.17,50.65 106.44,50.72 106.70,50.93 106.97,49.60 107.23,49.98 107.49,49.12 107.76,48.41 108.02,49.36 108.29,48.01 108.55,47.45 108.81,45.78 109.08,45.78 109.34,44.28 109.61,43.20 109.87,41.77 110.13,43.15 110.40,44.53 110.66,46.29 110.93,45.74 111.19,45.94 111.45,44.86 111.72,44.69 111.98,44.69 112.25,44.74 112.51,44.77 112.77,44.04 113.04,44.26 113.30,43.77 113.57,43.34 113.83,44.26 114.09,43.82 114.36,43.78 114.62,44.20 114.89,44.84 115.15,44.27 115.41,44.27 115.68,43.07 115.94,41.74 116.21,40.47 116.47,39.32 116.73,39.96 117.00,39.63 117.26,40.29 117.53,39.96 117.79,39.53 118.05,39.48 118.32,39.52 118.58,40.06 118.85,39.58 119.11,38.98 119.37,38.98 119.64,39.73 119.90,39.03 120.17,38.51 120.43,37.99 120.69,38.45 120.96,37.49 121.22,37.74 121.49,36.42 121.75,36.49 122.01,34.95 122.28,35.41 122.54,34.15 122.81,33.25 123.07,33.08 123.33,32.76 123.60,34.32 123.86,35.15 124.13,35.51 124.39,33.97 124.65,33.88 124.92,33.72 125.18,33.56 125.45,33.51 125.71,33.73 125.97,34.08 126.24,33.25 126.50,33.95 126.77,33.21 127.03,32.91 127.29,31.11 127.56,31.56 127.82,31.84 128.09,31.55 128.35,30.86 128.61,30.15 128.88,30.20 129.14,29.67 129.41,29.18 129.67,29.18 129.93,29.44 130.20,30.57 130.46,30.51 130.73,30.55 130.99,29.24 131.25,29.33 131.52,28.30 131.78,27.75 132.05,28.71 132.31,28.71 132.58,29.52 132.84,28.77 133.10,28.33 133.37,26.61 133.63,26.13 133.90,26.10 134.16,25.83 134.42,25.36 134.69,26.06 134.95,24.90 135.22,24.67 135.48,24.43 135.74,23.54 136.01,23.72 136.27,24.24 136.54,23.99 136.80,23.72 137.06,23.45 137.33,23.28 137.59,23.33 137.86,23.92 138.12,23.18 138.38,22.16 138.65,20.74 138.91,19.71 139.18,18.93 139.44,18.25 139.70,17.35 139.97,18.58 140.23,18.87 140.50,19.23 140.76,19.48 141.02,21.18 141.29,19.72 141.55,19.39 141.82,19.53 142.08,18.67 142.34,17.64 142.61,18.95 142.87,18.36 143.14,18.89 143.40,18.15 143.66,17.77 143.93,18.79 144.19,18.23 144.46,17.44 144.72,16.56 144.98,15.69 145.25,14.56 145.51,14.30 145.78,13.58 146.04,14.87 146.30,14.84 146.57,16.17 146.83,15.50 147.10,15.48 147.36,14.82 147.62,14.22 147.89,15.00 148.15,15.14 148.42,15.34 148.68,14.88 148.94,13.94 149.21,13.49 149.47,13.38 149.74,12.88 150.00,12.99 150.26,13.16 150.53,13.12 150.79,13.60 151.06,13.30 151.32,12.73 151.58,12.03 151.85,11.78 152.11,11.31 152.38,11.73 152.64,10.58 152.90,11.18 153.17,10.60 153.43,11.32 153.70,10.85 153.96,11.34 154.22,11.74 154.49,11.26 154.75,11.63 155.02,11.88 155.28,12.00 155.54,12.12 155.81,11.17 156.07,11.74 156.34,11.77 156.60,11.82 156.86,12.64 157.13,12.35 157.39,11.40 157.66,11.96 157.92,11.71 158.18,11.40 158.45,11.38 158.71,10.88 158.98,10.96 159.24,10.35 159.50,11.15 159.77,11.02 160.03,10.60 160.30,9.60 160.56,10.23 160.82,10.09 161.09,9.52 161.35,9.07 161.62,8.78 161.88,8.55 162.14,8.23 162.41,8.65 162.67,8.43 162.94,8.43 163.20,8.11 163.46,8.03 163.73,7.26 163.99,7.60 164.26,6.95 164.52,7.82 164.78,7.34 165.05,6.88 165.31,6.44 165.58,7.27 165.84,6.86 166.10,6.20 166.37,5.56 166.63,5.99 166.90,5.17 167.16,5.82 167.42,5.49 167.69,4.78 167.95,5.17 168.22,5.17 168.48,4.61 168.75,4.71 169.01,4.00 169.27,4.55 169.54,5.77 169.80,5.47 170.07,5.65 170.33,5.35 170.59,6.37 170.86,6.37 171.12,6.07 171.39,5.74 171.65,6.72 171.91,6.65 172.18,6.83 172.44,7.19 172.71,6.34 172.97,7.25 173.23,7.78 173.50,7.98 173.76,7.98 174.03,8.58 174.29,7.82 174.55,8.27 174.82,8.85 175.08,9.55 175.35,9.59 175.61,10.75 175.87,10.13 176.14,10.79 176.40,11.16 176.67,10.78 176.93,10.78 177.19,11.14 177.46,10.67 177.72,10.57 177.99,12.05 178.25,12.13 178.51,11.70 178.78,11.30 179.04,12.09 179.31,12.09 179.57,11.96 179.83,11.79 180.10,12.01 180.36,12.01 180.63,12.07 180.89,12.37 181.15,12.73 181.42,12.39 181.68,12.99 181.95,12.35 182.21,12.91 182.47,13.21 182.74,13.08 183.00,13.14 183.27,12.67 183.53,13.16 183.79,13.12 184.06,13.16 184.32,13.55 184.59,13.58 184.85,12.71 185.11,13.31 185.38,12.88 185.64,13.49 185.91,13.52 186.17,13.57 186.43,12.45 186.70,12.45 186.96,12.69 187.23,11.88 187.49,11.26 187.75,11.76 188.02,11.01 188.28,11.17 188.55,11.17 188.81,10.04 189.07,9.69 189.34,10.73 189.60,9.86 189.87,9.39 190.13,10.35 190.39,9.83 190.66,9.40 190.92,9.40 191.19,8.63 191.45,8.74 191.71,7.42 191.98,7.47 192.24,7.28 192.51,7.15 192.77,8.21 193.03,7.56 193.30,8.36 193.56,7.65 193.83,8.29 194.09,8.65 194.35,7.30 194.62,7.59 194.88,8.73 195.15,8.80 195.41,8.11 195.67,8.95 195.94,9.10 196.20,9.50 196.47,9.33 196.73,10.22 196.99,10.12 197.26,10.12 197.52,9.99 197.79,9.91 198.05,9.80 198.31,10.55 198.58,10.91 198.84,55.97 199.11,54.81 199.37,54.81 199.63,54.81 199.90,54.16 200.16,52.26 200.43,52.26 200.69,53.17 200.95,53.17 201.22,50.64 201.48,50.64 201.75,50.64 202.01,50.64 202.27,50.48 202.54,50.48 202.80,50.48 203.07,50.48 203.33,51.18 203.59,51.18 203.86,50.77 204.12,50.77 204.39,46.26 204.65,46.94 204.92,46.94 205.18,46.94 205.44,48.72 205.71,44.83 205.97,44.83 206.24,44.83 206.50,44.83 206.76,44.23 207.03,44.23 207.29,42.49 207.56,42.49 207.82,42.49 208.08,45.35 208.35,45.35 208.61,42.69 208.88,42.69 209.14,42.69 209.40,42.69 209.67,42.81 209.93,42.81 210.20,42.81 210.46,40.58 210.72,40.58 210.99,40.58 211.25,44.07 211.52,44.07 211.78,44.07 212.04,45.10 212.31,45.10 212.57,41.45 212.84,41.45 213.10,42.08 213.36,42.08 213.63,38.23 213.89,38.23 214.16,39.72 214.42,39.72 214.68,39.72 214.95,39.38 215.21,39.38 215.48,39.38 215.74,38.35 216.00,38.35 216.27,38.35 216.53,36.66 216.80,36.66 217.06,36.66 217.32,36.66 217.59,36.09 217.85,36.09 218.12,36.09 218.38,37.27 218.64,37.27 218.91,32.41 219.17,33.42 219.44,33.42 219.70,33.42 219.96,33.42 220.23,32.07 220.49,32.07 220.76,32.07 221.02,33.89 221.28,33.89 221.55,33.89 221.81,30.50 222.08,30.50 222.34,30.50 222.60,30.34 222.87,30.34 223.13,30.34 223.40,31.29 223.66,31.29 223.92,31.29 224.19,32.93 224.45,32.93 224.72,28.46 224.98,28.46 225.24,28.46 225.51,28.73 225.77,28.73 226.04,28.73 226.30,29.53 226.56,29.53 226.83,31.84 227.09,31.84 227.36,31.20 227.62,31.20 227.88,31.20 228.15,30.61 228.41,30.61 228.68,30.61 228.94,30.61 229.20,28.08 229.47,28.08 229.73,28.08 230.00,28.08 230.26,29.50 230.52,29.50 230.79,29.50 231.05,28.47 231.32,28.47 231.58,25.72 231.84,25.72 232.11,26.88 232.37,24.10 232.64,24.10 232.90,24.10 233.16,23.38 233.43,23.38 233.69,23.38 233.96,23.82 234.22,23.82 234.48,23.52 234.75,23.52 235.01,23.52 235.28,22.86 235.54,22.86 235.80,22.86 236.07,20.77 236.33,20.77 236.60,20.87 236.86,18.51 237.12,18.51 237.39,17.53 237.65,17.53 237.92,17.53 238.18,17.82 238.44,17.82 238.71,17.82 238.97,18.01 239.24,18.01 239.50,19.12 239.76,16.50 240.03,16.50 240.29,16.50 240.56,16.50 240.82,15.15 241.08,15.15 241.35,18.51 241.61,16.48 241.88,16.48 242.14,16.48 242.41,13.62 242.67,13.62 242.93,13.62 243.20,12.12 243.46,12.12 243.73,12.12 243.99,15.69 244.25,14.04 244.52,14.04 244.78,14.04 245.05,12.74 245.31,12.74 245.57,12.74 245.84,14.97 246.10,13.92 246.37,13.51 246.63,13.51 246.89,13.51 247.16,13.51 247.42,13.30 247.69,13.30 247.95,13.30 248.21,12.60 248.48,11.00 248.74,11.00 249.01,11.00 249.27,9.83 249.53,9.83 249.80,9.83 250.06,9.83 250.33,11.18 250.59,7.93 250.85,7.93 251.12,9.67 251.38,9.67 251.65,9.67 251.91,11.13 252.17,11.13 252.44,11.13 252.70,12.12 252.97,12.12 253.23,9.00 253.49,9.00 253.76,10.94 254.02,10.94 254.29,10.94 254.55,10.76 254.81,10.76 255.08,10.76 255.34,10.76 255.61,10.46 255.87,10.46 256.13,10.46 256.40,12.61 256.66,10.00 256.93,10.00 257.19,10.00 257.45,11.76 257.72,9.59 257.98,9.59 258.25,9.59 258.51,9.59 258.77,8.49 259.04,8.49 259.30,8.49 259.57,6.74 259.83,9.23 260.09,9.23 260.36,9.23 260.62,6.46 260.89,9.34 261.15,9.34 261.41,7.40 261.68,7.40 261.94,7.40 262.21,7.40 262.47,6.13 262.73,6.13 263.00,9.40 263.26,5.97 263.53,5.97 263.79,5.97 264.05,5.97 264.32,5.00 264.58,5.00 264.85,5.00 265.11,5.00 265.37,7.36 265.64,7.36 265.90,5.61 266.17,5.61 266.43,5.61 266.69,6.28 266.96,6.28 267.22,6.28 267.49,6.32 267.75,6.32 268.01,6.32 268.28,6.32 268.54,5.44 268.81,5.44 269.07,9.86 269.33,10.78 269.60,10.78 269.86,10.78 270.13,8.43 270.39,8.43 270.65,8.43 270.92,11.17 271.18,11.17 271.45,11.17 271.71,7.71 271.97,9.86 272.24,9.86 272.50,9.86 272.77,13.09 273.03,13.09 273.29,13.09 273.56,13.38 273.82,13.38 274.09,13.38 274.35,13.38 274.61,12.08 274.88,12.08 275.14,12.08 275.41,11.27 275.67,11.27 275.93,11.27 276.20,12.31 276.46,12.31 276.73,12.31 276.99,12.31 277.25,14.71 277.52,14.71 277.78,14.71 278.05,11.65 278.31,13.58 278.58,13.58 278.84,13.58 279.10,15.55 279.37,15.55 279.63,15.55 279.90,15.82 280.16,15.82 280.42,15.82 280.69,14.08 280.95,14.49 281.22,14.49 281.48,14.49 281.74,14.08 282.01,14.08 282.27,14.08 282.54,14.08 282.80,12.65 283.06,12.65 283.33,12.65 283.59,15.25 283.86,15.25 284.12,15.25 284.38,12.48 284.65,12.48 284.91,14.15 285.18,14.15 285.44,10.76 285.70,12.07 285.97,12.07 286.23,12.07 286.50,12.07 286.76,15.00 287.02,12.58 287.29,12.58 287.55,10.75 287.82,10.75 288.08,10.75 288.34,10.75 288.61,8.55 288.87,8.55 289.14,8.55 289.40,6.98 289.66,6.98 289.93,6.98 290.19,9.43 290.46,5.24 290.72,5.24 290.98,6.99 291.25,6.99 291.51,6.99 291.78,8.21 292.04,8.21 292.30,10.48 292.57,8.36 292.83,8.36 293.10,8.36 293.36,10.91 293.62,10.22 293.89,10.22 294.15,10.22 294.42,9.88 294.68,9.88 294.94,9.88 295.21,9.88 295.47,9.97 295.74,11.71 296.00,12.44" />
</svg>