<svg width="300" height="60" xmlns="http://www.w3.org/2000/svg">
  <polyline fill="rgba(255,200,0,0.3)" stroke="#ffbb00" stroke-width="2" points="4.00,54.92 4.27,54.57 4.53,54.18 4.80,53.87 5.06,53.64 5.33,53.45 5.59,53.28 5.86,53.16 6.13,53.06 6.39,52.97 6.66,52.87 6.92,52.79 7.19,52.72 7.45,52.67 7.72,52.66 7.99,52.65 8.25,52.68 8.52,52.76 8.78,52.91 9.05,53.10 9.31,53.29 9.58,53.53 9.85,53.75 10.11,53.96 10.38,54.15 10.64,54.31 10.91,54.48 11.17,54.56 11.44,54.53 11.71,54.47 11.97,54.32 12.24,54.15 12.50,53.95 12.77,53.74 13.03,53.48 13.30,53.24 13.57,53.00 13.83,52.79 14.10,52.55 14.36,52.26 14.63,52.05 14.89,51.84 15.16,51.66 15.42,51.47 15.69,51.29 15.96,51.11 16.22,50.94 16.49,50.76 16.75,50.59 17.02,50.34 17.28,50.09 17.55,49.83 17.82,49.67 18.08,49.49 18.35,49.25 18.61,49.01 18.88,48.72 19.14,48.43 19.41,48.13 19.68,47.88 19.94,47.57 20.21,47.24 20.47,46.92 20.74,46.60 21.00,46.29 21.27,45.98 21.54,45.68 21.80,45.33 22.07,44.99 22.33,44.68 22.60,44.31 22.86,43.95 23.13,43.58 23.40,43.23 23.66,42.89 23.93,42.56 24.19,42.24 24.46,41.89 24.72,41.58 24.99,41.24 25.26,40.89 25.52,40.54 25.79,40.22 26.05,39.89 26.32,39.57 26.58,39.27 26.85,38.97 27.12,38.70 27.38,38.33 27.65,38.05 27.91,37.75 28.18,37.48 28.44,37.19 28.71,36.93 28.98,36.63 29.24,36.36 29.51,36.13 29.77,35.88 30.04,35.66 30.30,35.47 30.57,35.25 30.84,34.93 31.10,34.66 31.37,34.38 31.63,34.14 31.90,33.85 32.16,33.64 32.43,33.37 32.70,33.13 32.96,32.84 33.23,32.57 33.49,32.29 33.76,32.02 34.02,31.79 34.29,31.56 34.56,31.36 34.82,31.17 35.09,30.98 35.35,30.84 35.62,30.79 35.88,30.83 36.15,30.99 36.41,31.24 36.68,31.55 36.95,31.92 37.21,32.35 37.48,32.80 37.74,33.20 38.01,33.59 38.27,33.95 38.54,34.33 38.81,34.66 39.07,35.04 39.34,35.43 39.60,35.79 39.87,36.17 40.13,36.53 40.40,36.88 40.67,37.25 40.93,37.60 41.20,37.89 41.46,38.23 41.73,38.55 41.99,38.91 42.26,39.23 42.53,39.55 42.79,39.93 43.06,40.21 43.32,40.54 43.59,40.87 43.85,41.23 44.12,41.63 44.39,42.00 44.65,42.45 44.92,42.87 45.18,43.23 45.45,43.48 45.71,43.69 45.98,43.80 46.25,43.82 46.51,43.79 46.78,43.66 47.04,43.52 47.31,43.33 47.57,43.12 47.84,42.88 48.11,42.60 48.37,42.24 48.64,41.80 48.90,41.37 49.17,40.91 49.43,40.39 49.70,39.89 49.97,39.36 50.23,38.91 50.50,38.39 50.76,37.97 51.03,37.51 51.29,37.07 51.56,36.64 51.83,36.21 52.09,35.76 52.36,35.37 52.62,35.11 52.89,34.72 53.15,34.30 53.42,33.82 53.69,33.36 53.95,32.94 54.22,32.51 54.48,32.10 54.75,31.75 55.01,31.42 55.28,31.07 55.55,30.73 55.81,30.37 56.08,29.94 56.34,29.49 56.61,29.04 56.87,28.61 57.14,28.16 57.40,27.75 57.67,27.37 57.94,27.01 58.20,26.62 58.47,26.23 58.73,25.84 59.00,25.41 59.26,25.03 59.53,24.64 59.80,24.27 60.06,23.87 60.33,23.51 60.59,23.10 60.86,22.73 61.12,22.36 61.39,22.00 61.66,21.65 61.92,21.30 62.19,21.01 62.45,20.70 62.72,20.41 62.98,20.16 63.25,19.83 63.52,19.49 63.78,19.08 64.05,18.67 64.31,18.30 64.58,17.91 64.84,17.60 65.11,17.24 65.38,16.88 65.64,16.57 65.91,16.28 66.17,15.93 66.44,15.55 66.70,15.16 66.97,14.78 67.24,14.42 67.50,14.04 67.77,13.69 68.03,13.38 68.30,13.03 68.56,12.70 68.83,12.40 69.10,12.12 69.36,11.86 69.63,11.58 69.89,11.31 70.16,11.02 70.42,10.72 70.69,10.47 70.96,10.20 71.22,9.98 71.49,9.81 71.75,9.68 72.02,9.57 72.28,9.50 72.55,9.41 72.82,9.34 73.08,9.10 73.35,8.77 73.61,8.44 73.88,8.01 74.14,7.63 74.41,7.15 74.68,6.71 74.94,6.21 75.21,5.74 75.47,5.35 75.74,5.08 76.00,4.93 76.27,4.70 76.54,4.38 76.80,4.02 77.07,54.95 77.33,54.62 77.60,54.21 77.86,53.83 78.13,53.66 78.39,53.51 78.66,53.31 78.93,53.21 79.19,53.07 79.46,53.01 79.72,52.98 79.99,52.82 80.25,52.75 80.52,52.70 80.79,52.65 81.05,52.69 81.32,52.79 81.58,52.78 81.85,52.90 82.11,53.10 82.38,53.25 82.65,53.51 82.91,53.78 83.18,54.00 83.44,54.32 83.71,54.59 83.97,54.55 84.24,54.57 84.51,54.58 84.77,54.58 85.04,54.45 85.30,54.25 85.57,54.00 85.83,53.76 86.10,53.53 86.37,53.23 86.63,53.00 86.90,52.76 87.16,52.51 87.43,52.28 87.69,52.08 87.96,51.91 88.23,51.69 88.49,51.55 88.76,51.34 89.02,51.24 89.29,50.99 89.55,50.80 89.82,50.56 90.09,50.31 90.35,50.18 90.62,49.90 90.88,49.67 91.15,49.45 91.41,49.22 91.68,48.97 91.95,48.79 92.21,48.52 92.48,48.29 92.74,48.32 93.01,47.90 93.27,47.48 93.54,47.09 93.81,46.64 94.07,46.39 94.34,46.04 94.60,45.77 94.87,45.42 95.13,45.05 95.40,44.74 95.67,44.37 95.93,43.96 96.20,43.73 96.46,43.33 96.73,42.94 96.99,42.65 97.26,42.30 97.53,41.98 97.79,41.73 98.06,41.36 98.32,40.93 98.59,40.74 98.85,40.24 99.12,39.92 99.38,39.63 99.65,39.33 99.92,38.99 100.18,38.66 100.45,38.38 100.71,38.16 100.98,37.86 101.24,37.54 101.51,37.33 101.78,36.95 102.04,36.71 102.31,36.50 102.57,36.19 102.84,35.95 103.10,35.73 103.37,35.44 103.64,35.18 103.90,34.90 104.17,34.66 104.43,34.44 104.70,34.15 104.96,33.96 105.23,33.70 105.50,33.39 105.76,33.20 106.03,32.86 106.29,32.55 106.56,32.34 106.82,32.02 107.09,31.82 107.36,31.59 107.62,31.44 107.89,31.25 108.15,31.07 108.42,31.01 108.68,30.85 108.95,30.87 109.22,31.01 109.48,31.22 109.75,31.63 110.01,31.95 110.28,32.35 110.54,32.90 110.81,33.24 111.08,33.73 111.34,34.04 111.61,34.50 111.87,34.69 112.14,35.12 112.40,35.41 112.67,35.87 112.94,36.16 113.20,36.60 113.47,36.93 113.73,37.33 114.00,37.58 114.26,37.99 114.53,38.27 114.80,38.58 115.06,38.88 115.33,39.19 115.59,39.52 115.86,39.96 116.12,40.24 116.39,40.61 116.66,40.90 116.92,41.31 117.19,41.66 117.45,42.11 117.72,42.49 117.98,43.01 118.25,43.26 118.52,43.59 118.78,43.71 119.05,43.84 119.31,43.89 119.58,43.82 119.84,43.71 120.11,43.55 120.37,43.42 120.64,43.37 120.91,42.95 121.17,42.67 121.44,42.26 121.70,41.87 121.97,41.43 122.23,40.91 122.50,40.39 122.77,39.93 123.03,39.38 123.30,38.85 123.56,38.51 123.83,38.06 124.09,37.51 124.36,37.10 124.63,36.73 124.89,36.25 125.16,35.79 125.42,35.49 125.69,35.03 125.95,34.56 126.22,34.39 126.49,33.87 126.75,33.38 127.02,32.89 127.28,32.58 127.55,32.23 127.81,31.72 128.08,31.45 128.35,31.09 128.61,30.84 128.88,30.52 129.14,30.06 129.41,29.62 129.67,29.11 129.94,28.74 130.21,28.25 130.47,27.84 130.74,27.47 131.00,27.08 131.27,26.62 131.53,26.29 131.80,25.95 132.07,25.49 132.33,24.95 132.60,24.48 132.86,23.89 133.13,23.74 133.39,23.49 133.66,23.15 133.93,22.79 134.19,22.32 134.46,22.04 134.72,21.68 134.99,21.32 135.25,21.00 135.52,20.79 135.79,20.48 136.05,20.16 136.32,19.89 136.58,19.52 136.85,19.08 137.11,18.67 137.38,18.29 137.65,17.95 137.91,17.44 138.18,17.08 138.44,16.84 138.71,16.58 138.97,16.32 139.24,15.95 139.51,15.50 139.77,15.20 140.04,14.90 140.30,14.46 140.57,14.07 140.83,13.73 141.10,13.41 141.36,13.01 141.63,12.75 141.90,12.48 142.16,12.14 142.43,11.91 142.69,11.61 142.96,11.41 143.22,11.11 143.49,10.79 143.76,10.48 144.02,10.22 144.29,9.99 144.55,9.86 144.82,9.74 145.08,9.61 145.35,9.57 145.62,9.51 145.88,9.15 146.15,8.55 146.41,8.62 146.68,8.36 146.94,7.96 147.21,7.68 147.48,7.21 147.74,6.69 148.01,6.14 148.27,5.82 148.54,5.21 148.80,5.09 149.07,4.84 149.34,4.73 149.60,4.45 149.87,4.04 150.13,54.70 150.40,54.41 150.66,53.97 150.93,53.51 151.20,53.06 151.46,53.78 151.73,53.25 151.99,53.07 152.26,53.00 152.52,53.03 152.79,53.19 153.06,52.03 153.32,52.27 153.59,52.33 153.85,52.59 154.12,52.75 154.38,52.87 154.65,51.98 154.92,52.40 155.18,53.08 155.45,53.39 155.71,54.00 155.98,54.31 156.24,54.35 156.51,54.29 156.78,54.42 157.04,54.44 157.31,54.52 157.57,54.72 157.84,54.63 158.10,54.63 158.37,54.27 158.64,53.73 158.90,53.92 159.17,53.50 159.43,52.96 159.70,52.96 159.96,52.36 160.23,51.69 160.49,52.19 160.76,51.86 161.03,51.86 161.29,51.60 161.56,51.68 161.82,51.38 162.09,51.31 162.35,51.25 162.62,51.23 162.89,50.94 163.15,50.56 163.42,50.23 163.68,49.96 163.95,49.59 164.21,49.48 164.48,49.02 164.75,48.35 165.01,48.68 165.28,48.30 165.54,48.78 165.81,48.41 166.07,47.50 166.34,47.78 166.61,47.09 166.87,46.56 167.14,45.66 167.40,45.31 167.67,45.86 167.93,45.22 168.20,45.11 168.47,44.32 168.73,44.33 169.00,44.16 169.26,43.43 169.53,43.17 169.79,42.10 170.06,41.90 170.33,41.66 170.59,42.42 170.86,41.39 171.12,40.89 171.39,41.33 171.65,40.48 171.92,40.58 172.19,39.66 172.45,39.66 172.72,38.82 172.98,39.14 173.25,38.65 173.51,38.33 173.78,37.45 174.05,37.48 174.31,37.42 174.58,37.42 174.84,37.14 175.11,36.80 175.37,36.26 175.64,36.26 175.91,35.72 176.17,35.26 176.44,34.84 176.70,34.84 176.97,34.38 177.23,33.80 177.50,34.49 177.77,33.54 178.03,33.50 178.30,33.51 178.56,32.53 178.83,32.81 179.09,32.63 179.36,31.56 179.63,31.83 179.89,30.82 180.16,31.41 180.42,30.61 180.69,31.31 180.95,30.79 181.22,29.96 181.48,30.60 181.75,30.73 182.02,29.57 182.28,30.83 182.55,31.13 182.81,31.59 183.08,31.01 183.34,32.24 183.61,32.74 183.88,33.14 184.14,34.07 184.41,33.47 184.67,34.29 184.94,34.43 185.20,34.46 185.47,35.46 185.74,35.68 186.00,35.68 186.27,35.84 186.53,35.99 186.80,37.12 187.06,37.36 187.33,38.28 187.60,37.68 187.86,38.09 188.13,38.54 188.39,37.44 188.66,39.03 188.92,39.59 189.19,40.19 189.46,39.62 189.72,40.42 189.99,41.15 190.25,41.15 190.52,41.82 190.78,42.43 191.05,43.24 191.32,43.09 191.58,43.75 191.85,43.77 192.11,44.01 192.38,44.26 192.64,43.95 192.91,44.44 193.18,43.87 193.44,43.94 193.71,43.51 193.97,43.42 194.24,42.98 194.50,42.78 194.77,42.24 195.04,41.66 195.30,41.12 195.57,40.64 195.83,40.16 196.10,39.45 196.36,38.85 196.63,38.85 196.90,38.33 197.16,37.80 197.43,37.22 197.69,36.64 197.96,36.66 198.22,36.02 198.49,36.35 198.76,35.62 199.02,34.75 199.29,35.20 199.55,33.89 199.82,34.19 200.08,33.27 200.35,33.76 200.62,32.49 200.88,32.33 201.15,31.96 201.41,31.50 201.68,30.88 201.94,31.68 202.21,30.91 202.47,30.42 202.74,29.91 203.01,29.67 203.27,29.41 203.54,27.51 203.80,27.43 204.07,27.40 204.33,27.62 204.60,26.23 204.87,26.51 205.13,25.33 205.40,25.71 205.66,24.74 205.93,23.38 206.19,24.08 206.46,23.53 206.73,23.10 206.99,24.07 207.26,22.82 207.52,22.78 207.79,21.87 208.05,21.23 208.32,21.26 208.59,20.69 208.85,20.01 209.12,20.48 209.38,20.02 209.65,19.61 209.91,19.29 210.18,19.06 210.45,17.77 210.71,17.77 210.98,16.35 211.24,16.95 211.51,16.56 211.77,15.55 212.04,16.20 212.31,15.81 212.57,15.47 212.84,15.29 213.10,15.11 213.37,13.39 213.63,13.29 213.90,13.16 214.17,13.07 214.43,12.21 214.70,12.63 214.96,11.44 215.23,11.17 215.49,12.06 215.76,11.31 216.03,11.50 216.29,10.94 216.56,10.45 216.82,10.05 217.09,9.81 217.35,9.76 217.62,9.79 217.89,9.51 218.15,10.37 218.42,9.70 218.68,9.32 218.95,8.84 219.21,8.96 219.48,9.21 219.75,8.50 220.01,7.51 220.28,8.00 220.54,7.69 220.81,6.95 221.07,6.35 221.34,5.91 221.61,5.21 221.87,4.65 222.14,4.37 222.40,4.36 222.67,4.22 222.93,4.00 223.20,54.03 223.46,54.03 223.73,52.79 224.00,52.79 224.26,52.79 224.53,51.75 224.79,51.75 225.06,51.57 225.32,51.57 225.59,51.57 225.86,52.20 226.12,52.20 226.39,52.77 226.65,52.77 226.92,52.77 227.18,53.27 227.45,53.27 227.72,51.57 227.98,53.51 228.25,53.51 228.51,55.24 228.78,55.24 229.04,55.24 229.31,54.67 229.58,54.67 229.84,54.37 230.11,54.37 230.37,54.37 230.64,56.00 230.90,54.70 231.17,54.70 231.44,54.70 231.70,52.77 231.97,52.07 232.23,52.07 232.50,52.07 232.76,52.07 233.03,50.28 233.30,50.28 233.56,50.28 233.83,51.69 234.09,51.69 234.36,50.52 234.62,50.52 234.89,51.64 235.16,51.64 235.42,51.64 235.69,51.60 235.95,51.60 236.22,51.60 236.48,50.71 236.75,51.55 237.02,51.55 237.28,49.02 237.55,49.02 237.81,49.02 238.08,49.02 238.34,46.81 238.61,46.81 238.88,46.81 239.14,46.81 239.41,47.91 239.67,44.70 239.94,44.70 240.20,44.70 240.47,43.42 240.74,43.42 241.00,43.42 241.27,43.42 241.53,41.53 241.80,43.38 242.06,43.38 242.33,41.02 242.60,41.02 242.86,41.02 243.13,40.06 243.39,40.06 243.66,40.06 243.92,40.06 244.19,38.58 244.45,38.58 244.72,38.58 244.99,39.30 245.25,39.30 245.52,39.30 245.78,36.67 246.05,37.10 246.31,37.10 246.58,37.10 246.85,35.66 247.11,36.69 247.38,36.69 247.64,36.69 247.91,34.90 248.17,35.76 248.44,35.76 248.71,35.76 248.97,33.23 249.24,34.13 249.50,34.13 249.77,34.13 250.03,31.16 250.30,32.57 250.57,32.57 250.83,32.57 251.10,29.44 251.36,32.41 251.63,32.41 251.89,29.10 252.16,29.10 252.43,29.10 252.69,29.58 252.96,29.58 253.22,29.58 253.49,26.87 253.75,26.87 254.02,26.87 254.29,23.85 254.55,28.83 254.82,28.83 255.08,25.07 255.35,25.07 255.61,29.89 255.88,29.89 256.15,27.24 256.41,27.24 256.68,31.87 256.94,31.87 257.21,31.87 257.47,28.36 257.74,32.04 258.01,32.04 258.27,32.04 258.54,35.50 258.80,31.87 259.07,31.87 259.33,31.87 259.60,35.81 259.87,35.81 260.13,32.52 260.40,36.55 260.66,36.55 260.93,36.55 261.19,34.05 261.46,34.05 261.73,38.05 261.99,38.05 262.26,36.72 262.52,36.72 262.79,40.39 263.05,40.49 263.32,40.49 263.59,40.49 263.85,42.89 264.12,42.89 264.38,44.92 264.65,44.92 264.91,44.75 265.18,44.75 265.44,47.49 265.71,45.48 265.98,45.48 266.24,45.48 266.51,45.48 266.77,44.43 267.04,46.22 267.30,46.22 267.57,43.90 267.84,43.90 268.10,43.90 268.37,41.91 268.63,41.91 268.90,41.91 269.16,39.83 269.43,39.83 269.70,39.83 269.96,41.04 270.23,38.33 270.49,38.33 270.76,38.33 271.02,40.02 271.29,36.52 271.56,36.52 271.82,38.28 272.09,38.28 272.35,38.28 272.62,33.89 272.88,35.78 273.15,35.78 273.42,35.78 273.68,37.42 273.95,37.42 274.21,35.15 274.48,35.15 274.74,35.15 275.01,32.74 275.28,32.74 275.54,32.74 275.81,32.06 276.07,32.06 276.34,31.87 276.60,31.87 276.87,31.87 277.14,32.07 277.40,32.07 277.67,27.17 277.93,27.17 278.20,27.17 278.46,28.82 278.73,28.82 279.00,24.02 279.26,24.02 279.53,26.84 279.79,26.84 280.06,26.84 280.32,23.02 280.59,27.14 280.86,27.14 281.12,23.89 281.39,23.89 281.65,23.89 281.92,21.37 282.18,21.37 282.45,21.37 282.72,19.81 282.98,19.81 283.25,19.81 283.51,19.36 283.78,19.36 284.04,19.36 284.31,19.36 284.58,16.50 284.84,16.50 285.11,16.50 285.37,14.44 285.64,14.44 285.90,13.80 286.17,13.80 286.43,13.80 286.70,13.15 286.97,13.15 287.23,13.15 287.50,8.26 287.76,8.26 288.03,8.26 288.29,11.04 288.56,11.04 288.83,7.97 289.09,7.97 289.36,7.97 289.62,6.95 289.89,6.95 290.15,6.95 290.42,8.82 290.69,8.82 290.95,8.82 291.22,13.13 291.48,13.13 291.75,12.22 292.01,12.22 292.28,13.62 292.55,13.62 292.81,8.75 293.08,8.75 293.34,11.51 293.61,11.51 293.87,8.10 294.14,8.10 294.41,8.10 294.67,6.92 294.94,5.07 295.20,5.07 295.47,5.07 295.73,4.74 296.00,5.55" />
</svg>