<svg width="300" height="60" xmlns="http://www.w3.org/2000/svg">
  <polyline fill="rgba(255,200,0,0.3)" stroke="#ffbb00" stroke-width="2" points="4.00,51.45 4.12,51.45 4.23,51.60 4.35,51.85 4.47,52.83 4.59,54.31 4.70,53.53 4.82,53.13 4.94,52.88 5.06,52.65 5.17,52.53 5.29,52.86 5.41,53.17 5.53,52.84 5.64,53.09 5.76,52.72 5.88,52.46 6.00,52.87 6.11,52.66 6.23,52.94 6.35,53.41 6.47,53.79 6.58,54.26 6.70,54.96 6.82,55.26 6.94,55.63 7.05,55.73 7.17,54.86 7.29,54.48 7.41,53.95 7.52,53.49 7.64,53.22 7.76,52.92 7.88,52.81 7.99,53.28 8.11,54.24 8.23,54.26 8.35,54.10 8.46,53.93 8.58,52.20 8.70,51.59 8.82,51.17 8.93,51.20 9.05,51.72 9.17,52.13 9.29,51.98 9.40,51.61 9.52,51.29 9.64,49.75 9.76,49.18 9.87,48.91 9.99,49.42 10.11,49.56 10.23,49.47 10.34,49.24 10.46,48.84 10.58,47.67 10.70,47.71 10.81,47.82 10.93,48.00 11.05,47.70 11.16,47.46 11.28,47.30 11.40,47.04 11.52,46.97 11.63,46.83 11.75,46.82 11.87,46.85 11.99,46.99 12.10,46.58 12.22,46.44 12.34,46.46 12.46,45.54 12.57,45.45 12.69,45.78 12.81,46.36 12.93,46.14 13.04,46.22 13.16,46.26 13.28,46.13 13.40,46.23 13.51,46.38 13.63,46.38 13.75,46.44 13.87,46.27 13.98,46.17 14.10,45.98 14.22,45.94 14.34,45.91 14.45,45.95 14.57,46.13 14.69,9.56 14.81,9.17 14.92,9.24 15.04,9.23 15.16,9.31 15.28,9.39 15.39,9.83 15.51,10.25 15.63,10.77 15.75,11.36 15.86,12.04 15.98,12.85 16.10,12.98 16.22,12.66 16.33,12.48 16.45,12.45 16.57,12.38 16.69,12.47 16.80,12.51 16.92,12.56 17.04,12.68 17.16,12.82 17.27,13.16 17.39,14.24 17.51,15.23 17.63,16.13 17.74,16.21 17.86,16.41 17.98,16.77 18.09,17.34 18.21,17.99 18.33,18.51 18.45,18.86 18.56,18.41 18.68,18.41 18.80,19.01 18.92,19.40 19.03,19.50 19.15,20.07 19.27,20.62 19.39,21.19 19.50,21.59 19.62,21.84 19.74,22.07 19.86,22.32 19.97,22.55 20.09,22.75 20.21,22.92 20.33,23.50 20.44,22.13 20.56,22.11 20.68,20.91 20.80,20.93 20.91,21.57 21.03,22.41 21.15,22.51 21.27,22.59 21.38,22.71 21.50,22.50 21.62,22.50 21.74,23.26 21.85,23.30 21.97,22.14 22.09,19.92 22.21,18.52 22.32,18.01 22.44,18.52 22.56,20.21 22.68,20.62 22.79,20.35 22.91,20.41 23.03,21.25 23.15,21.18 23.26,20.44 23.38,20.41 23.50,20.66 23.62,20.55 23.73,20.46 23.85,20.37 23.97,20.30 24.09,20.30 24.20,20.11 24.32,19.82 24.44,19.16 24.56,17.85 24.67,16.83 24.79,16.30 24.91,15.89 25.02,15.46 25.14,14.99 25.26,14.62 25.38,13.94 25.49,13.44 25.61,13.15 25.73,12.57 25.85,11.91 25.96,11.81 26.08,11.82 26.20,11.28 26.32,11.40 26.43,11.79 26.55,12.27 26.67,12.67 26.79,10.84 26.90,10.42 27.02,10.43 27.14,11.34 27.26,11.09 27.37,10.75 27.49,10.27 27.61,9.81 27.73,9.39 27.84,8.95 27.96,8.54 28.08,8.17 28.20,7.88 28.31,7.74 28.43,7.82 28.55,7.63 28.67,7.05 28.78,6.30 28.90,5.99 29.02,5.63 29.14,5.25 29.25,4.94 29.37,4.73 29.49,4.58 29.61,4.28 29.72,4.12 29.84,4.08 29.96,4.28 30.08,4.54 30.19,4.74 30.31,4.95 30.43,5.43 30.55,5.86 30.66,6.08 30.78,6.26 30.90,6.39 31.02,6.75 31.13,7.07 31.25,7.48 31.37,7.91 31.49,8.42 31.60,8.85 31.72,9.14 31.84,9.57 31.95,10.16 32.07,10.56 32.19,11.02 32.31,11.85 32.42,12.42 32.54,12.87 32.66,13.43 32.78,13.86 32.89,14.19 33.01,14.57 33.13,14.88 33.25,15.53 33.36,16.32 33.48,16.86 33.60,17.05 33.72,16.84 33.83,17.78 33.95,19.06 34.07,20.38 34.19,21.47 34.30,22.13 34.42,22.76 34.54,23.31 34.66,23.55 34.77,23.79 34.89,23.95 35.01,24.10 35.13,24.35 35.24,24.47 35.36,24.57 35.48,24.77 35.60,25.00 35.71,25.24 35.83,26.70 35.95,26.99 36.07,26.58 36.18,26.16 36.30,26.07 36.42,26.16 36.54,26.16 36.65,26.21 36.77,26.57 36.89,26.88 37.01,26.51 37.12,26.35 37.24,26.38 37.36,26.09 37.48,26.19 37.59,27.44 37.71,29.44 37.83,31.56 37.95,33.21 38.06,34.64 38.18,35.32 38.30,35.52 38.42,37.10 38.53,38.57 38.65,38.58 38.77,37.32 38.88,36.67 39.00,35.59 39.12,34.55 39.24,33.76 39.35,32.67 39.47,31.56 39.59,30.13 39.71,28.59 39.82,27.04 39.94,25.62 40.06,24.31 40.18,23.24 40.29,22.06 40.41,20.92 40.53,20.36 40.65,20.17 40.76,20.38 40.88,21.08 41.00,21.86 41.12,22.71 41.23,23.67 41.35,24.51 41.47,24.73 41.59,24.25 41.70,24.22 41.82,24.43 41.94,24.66 42.06,25.08 42.17,25.42 42.29,25.62 42.41,25.72 42.53,25.77 42.64,25.59 42.76,25.24 42.88,25.12 43.00,24.92 43.11,24.61 43.23,24.30 43.35,24.06 43.47,23.87 43.58,23.64 43.70,23.37 43.82,22.99 43.94,23.04 44.05,24.41 44.17,26.72 44.29,28.64 44.41,30.79 44.52,32.95 44.64,33.87 44.76,33.54 44.88,33.32 44.99,33.14 45.11,32.98 45.23,32.80 45.35,32.66 45.46,32.76 45.58,32.37 45.70,32.24 45.81,32.26 45.93,32.24 46.05,31.58 46.17,30.19 46.28,30.06 46.40,30.82 46.52,30.71 46.64,30.80 46.75,31.03 46.87,30.92 46.99,30.75 47.11,30.93 47.22,31.78 47.34,32.54 47.46,33.40 47.58,34.34 47.69,34.34 47.81,34.28 47.93,33.99 48.05,33.93 48.16,33.94 48.28,34.12 48.40,34.34 48.52,34.62 48.63,35.14 48.75,35.87 48.87,36.00 48.99,36.02 49.10,35.95 49.22,35.57 49.34,35.61 49.46,36.10 49.57,36.02 49.69,34.85 49.81,34.18 49.93,33.91 50.04,34.48 50.16,35.48 50.28,36.17 50.40,35.60 50.51,35.58 50.63,35.91 50.75,35.78 50.87,35.99 50.98,36.26 51.10,36.56 51.22,36.09 51.34,36.57 51.45,36.55 51.57,36.39 51.69,35.89 51.81,35.89 51.92,36.46 52.04,37.59 52.16,38.33 52.28,37.50 52.39,37.01 52.51,37.54 52.63,38.69 52.74,38.79 52.86,38.80 52.98,38.88 53.10,39.25 53.21,39.41 53.33,40.01 53.45,40.37 53.57,40.99 53.68,41.23 53.80,41.16 53.92,41.44 54.04,42.01 54.15,42.51 54.27,42.97 54.39,43.12 54.51,43.32 54.62,43.68 54.74,44.06 54.86,44.36 54.98,44.45 55.09,44.76 55.21,45.03 55.33,45.56 55.45,45.85 55.56,46.17 55.68,46.22 55.80,46.15 55.92,46.05 56.03,46.16 56.15,46.00 56.27,45.91 56.39,45.91 56.50,45.91 56.62,45.98 56.74,45.99 56.86,46.03 56.97,46.14 57.09,46.21 57.21,46.24 57.33,46.40 57.44,46.36 57.56,46.46 57.68,46.48 57.80,46.63 57.91,46.77 58.03,46.73 58.15,47.02 58.27,46.88 58.38,46.91 58.50,46.94 58.62,47.06 58.74,47.18 58.85,47.40 58.97,47.60 59.09,47.70 59.21,47.71 59.32,48.29 59.44,48.68 59.56,49.31 59.67,49.15 59.79,48.76 59.91,49.12 60.03,49.07 60.14,48.95 60.26,48.91 60.38,48.43 60.50,48.43 60.61,48.49 60.73,48.78 60.85,49.47 60.97,50.22 61.08,50.74 61.20,50.67 61.32,50.20 61.44,49.90 61.55,49.63 61.67,49.56 61.79,49.78 61.91,49.92 62.02,50.08 62.14,50.50 62.26,50.73 62.38,51.21 62.49,51.31 62.61,51.40 62.73,51.45 62.85,9.24 62.96,9.32 63.08,9.41 63.20,9.86 63.32,10.27 63.43,10.78 63.55,11.36 63.67,12.07 63.79,12.85 63.90,12.98 64.02,12.66 64.14,12.47 64.26,12.45 64.37,12.38 64.49,12.47 64.61,12.51 64.73,12.56 64.84,12.67 64.96,12.82 65.08,13.16 65.20,14.22 65.31,15.21 65.43,16.15 65.55,16.23 65.67,16.40 65.78,16.75 65.90,17.34 66.02,17.99 66.14,18.51 66.25,18.90 66.37,18.41 66.49,18.42 66.60,18.99 66.72,19.47 66.84,19.56 66.96,20.12 67.07,20.67 67.19,21.20 67.31,21.60 67.43,21.83 67.54,22.07 67.66,22.33 67.78,22.57 67.90,22.76 68.01,22.95 68.13,23.49 68.25,22.10 68.37,22.14 68.48,20.93 68.60,20.94 68.72,21.58 68.84,22.42 68.95,22.52 69.07,22.61 69.19,22.72 69.31,22.52 69.42,22.54 69.54,23.28 69.66,23.30 69.78,22.18 69.89,19.95 70.01,18.52 70.13,18.01 70.25,18.54 70.36,20.27 70.48,20.67 70.60,20.34 70.72,20.42 70.83,21.19 70.95,21.17 71.07,20.44 71.19,20.40 71.30,20.65 71.42,20.56 71.54,20.47 71.66,20.37 71.77,20.31 71.89,20.33 72.01,20.13 72.13,19.84 72.24,19.23 72.36,17.77 72.48,16.89 72.60,16.31 72.71,15.92 72.83,15.50 72.95,15.03 73.07,14.66 73.18,13.89 73.30,13.41 73.42,13.12 73.53,12.55 73.65,11.93 73.77,11.76 73.89,11.74 74.00,11.44 74.12,11.37 74.24,11.80 74.36,12.41 74.47,12.62 74.59,10.81 74.71,10.43 74.83,10.45 74.94,11.36 75.06,11.11 75.18,10.75 75.30,10.29 75.41,9.80 75.53,9.40 75.65,8.97 75.77,8.54 75.88,8.18 76.00,7.93 76.12,7.79 76.24,7.81 76.35,7.64 76.47,7.06 76.59,6.31 76.71,6.01 76.82,5.65 76.94,5.26 77.06,4.95 77.18,4.76 77.29,4.60 77.41,4.28 77.53,4.13 77.65,4.10 77.76,4.33 77.88,4.56 78.00,4.75 78.12,4.97 78.23,5.46 78.35,5.89 78.47,6.10 78.59,6.28 78.70,6.41 78.82,6.77 78.94,7.10 79.06,7.50 79.17,7.93 79.29,8.46 79.41,8.87 79.53,9.16 79.64,9.59 79.76,10.18 79.88,10.56 80.00,11.03 80.11,11.91 80.23,12.42 80.35,12.88 80.47,13.44 80.58,13.87 80.70,14.19 80.82,14.58 80.93,14.91 81.05,15.55 81.17,16.35 81.29,16.89 81.40,17.06 81.52,16.85 81.64,17.79 81.76,19.08 81.87,20.38 81.99,21.47 82.11,22.14 82.23,22.77 82.34,23.31 82.46,23.55 82.58,23.79 82.70,23.96 82.81,24.10 82.93,24.36 83.05,24.47 83.17,24.58 83.28,24.76 83.40,25.01 83.52,25.28 83.64,26.73 83.75,27.00 83.87,26.61 83.99,26.19 84.11,26.08 84.22,26.17 84.34,26.17 84.46,26.21 84.58,26.54 84.69,26.88 84.81,26.52 84.93,26.35 85.05,26.38 85.16,26.10 85.28,26.19 85.40,27.45 85.52,29.44 85.63,31.58 85.75,33.21 85.87,34.65 85.99,35.33 86.10,35.49 86.22,37.10 86.34,38.58 86.46,38.59 86.57,37.34 86.69,36.67 86.81,35.60 86.93,34.55 87.04,33.76 87.16,32.69 87.28,31.58 87.40,30.15 87.51,28.60 87.63,27.07 87.75,25.66 87.86,24.32 87.98,23.27 88.10,22.07 88.22,20.92 88.33,20.36 88.45,20.17 88.57,20.38 88.69,21.08 88.80,21.90 88.92,22.71 89.04,23.68 89.16,24.49 89.27,24.73 89.39,24.26 89.51,24.22 89.63,24.42 89.74,24.68 89.86,25.07 89.98,25.43 90.10,25.62 90.21,25.73 90.33,25.78 90.45,25.61 90.57,25.25 90.68,25.13 90.80,24.91 90.92,24.62 91.04,24.31 91.15,24.07 91.27,23.88 91.39,23.67 91.51,23.38 91.62,22.99 91.74,23.05 91.86,24.43 91.98,26.73 92.09,28.68 92.21,30.78 92.33,32.97 92.45,33.89 92.56,33.54 92.68,33.32 92.80,33.14 92.92,32.97 93.03,32.80 93.15,32.65 93.27,32.77 93.39,32.36 93.50,32.24 93.62,32.25 93.74,32.31 93.86,31.56 93.97,30.21 94.09,30.09 94.21,30.85 94.33,30.71 94.44,30.82 94.56,31.04 94.68,30.95 94.79,30.76 94.91,30.96 95.03,31.81 95.15,32.55 95.26,33.42 95.38,34.35 95.50,34.34 95.62,34.30 95.73,34.01 95.85,33.93 95.97,33.94 96.09,34.13 96.20,34.34 96.32,34.62 96.44,35.14 96.56,35.90 96.67,36.01 96.79,36.00 96.91,35.91 97.03,35.56 97.14,35.61 97.26,36.08 97.38,36.04 97.50,34.86 97.61,34.19 97.73,33.93 97.85,34.49 97.97,35.50 98.08,36.18 98.20,35.61 98.32,35.58 98.44,35.91 98.55,35.79 98.67,9.55 98.79,9.18 98.91,9.24 99.02,11.02 99.14,11.12 99.26,10.80 99.38,10.31 99.49,9.78 99.61,9.36 99.73,8.97 99.85,8.57 99.96,8.13 100.08,7.93 100.20,7.76 100.32,7.71 100.43,7.49 100.55,7.10 100.67,6.31 100.79,6.02 100.90,5.66 101.02,5.33 101.14,4.96 101.26,4.71 101.37,4.55 101.49,4.26 101.61,4.03 101.72,4.00 101.84,4.39 101.96,4.53 102.08,9.57 102.19,10.19 102.31,10.46 102.43,10.82 102.55,11.91 102.66,12.13 102.78,12.51 102.90,13.30 103.02,13.86 103.13,14.32 103.25,14.56 103.37,14.82 103.49,15.65 103.60,16.25 103.72,16.73 103.84,16.71 103.96,16.93 104.07,17.59 104.19,19.06 104.31,20.28 104.43,21.44 104.54,21.95 104.66,22.62 104.78,22.94 104.90,23.53 105.01,23.75 105.13,23.96 105.25,24.07 105.37,24.34 105.48,24.44 105.60,24.55 105.72,24.78 105.84,24.96 105.95,25.40 106.07,26.86 106.19,27.11 106.31,26.52 106.42,26.30 106.54,26.12 106.66,26.12 106.78,26.17 106.89,26.17 107.01,26.32 107.13,26.91 107.25,26.55 107.36,26.38 107.48,26.42 107.60,26.15 107.72,26.22 107.83,27.28 107.95,29.38 108.07,31.31 108.19,32.89 108.30,34.57 108.42,35.28 108.54,35.65 108.65,37.50 108.77,38.40 108.89,38.51 109.01,37.57 109.12,36.59 109.24,35.44 109.36,34.50 109.48,33.42 109.59,32.83 109.71,31.46 109.83,30.08 109.95,28.81 110.06,27.08 110.18,25.40 110.30,24.39 110.42,23.18 110.53,22.05 110.65,20.77 110.77,20.19 110.89,20.12 111.00,20.54 111.12,21.13 111.24,21.83 111.36,22.80 111.47,23.65 111.59,24.56 111.71,25.02 111.83,24.34 111.94,24.22 112.06,24.54 112.18,24.68 112.30,25.09 112.41,25.44 112.53,25.62 112.65,25.79 112.77,25.77 112.88,25.61 113.00,25.26 113.12,25.14 113.24,24.76 113.35,24.66 113.47,24.31 113.59,24.08 113.71,23.85 113.82,23.58 113.94,23.30 114.06,22.96 114.18,23.17 114.29,24.50 114.41,26.99 114.53,28.83 114.65,31.03 114.76,32.97 114.88,33.93 115.00,33.60 115.12,33.42 115.23,33.25 115.35,33.05 115.47,32.92 115.58,32.71 115.70,32.80 115.82,32.44 115.94,32.34 116.05,32.32 116.17,32.41 116.29,31.42 116.41,30.39 116.52,30.15 116.64,30.56 116.76,30.74 116.88,30.87 116.99,31.07 117.11,31.02 117.23,30.93 117.35,31.26 117.46,31.80 117.58,32.59 117.70,33.69 117.82,34.47 117.93,34.48 118.05,34.32 118.17,34.04 118.29,33.96 118.40,34.03 118.52,34.28 118.64,34.57 118.76,34.83 118.87,35.25 118.99,35.86 119.11,36.29 119.23,36.17 119.34,35.75 119.46,35.69 119.58,35.72 119.70,35.99 119.81,35.87 119.93,34.75 120.05,34.25 120.17,34.07 120.28,34.49 120.40,35.65 120.52,36.23 120.64,35.73 120.75,35.63 120.87,35.94 120.99,35.86 121.11,36.06 121.22,36.28 121.34,36.52 121.46,36.38 121.58,36.02 121.69,36.61 121.81,36.32 121.93,36.06 122.05,35.78 122.16,36.36 122.28,37.78 122.40,38.21 122.51,37.40 122.63,37.08 122.75,37.52 122.87,38.59 122.98,39.11 123.10,38.89 123.22,39.14 123.34,39.28 123.45,39.64 123.57,40.10 123.69,40.40 123.81,41.10 123.92,41.13 124.04,41.25 124.16,41.64 124.28,41.91 124.39,42.57 124.51,43.04 124.63,43.06 124.75,43.42 124.86,43.72 124.98,44.02 125.10,44.29 125.22,44.49 125.33,44.65 125.45,44.99 125.57,45.69 125.69,45.95 125.80,46.26 125.92,46.26 126.04,46.14 126.16,46.02 126.27,45.88 126.39,45.99 126.51,46.05 126.63,45.94 126.74,45.93 126.86,46.09 126.98,45.99 127.10,46.12 127.21,46.19 127.33,46.22 127.45,46.22 127.57,46.44 127.68,46.38 127.80,46.57 127.92,46.51 128.04,46.63 128.15,46.74 128.27,46.79 128.39,46.98 128.51,46.89 128.62,46.80 128.74,46.86 128.86,46.96 128.98,47.29 129.09,47.37 129.21,47.64 129.33,47.96 129.44,48.02 129.56,48.13 129.68,48.57 129.80,49.37 129.91,49.40 130.03,48.67 130.15,49.15 130.27,49.07 130.38,48.97 130.50,48.83 130.62,48.40 130.74,48.36 130.85,48.46 130.97,48.70 131.09,49.95 131.21,50.29 131.32,50.72 131.44,50.52 131.56,50.07 131.68,50.20 131.79,49.85 131.91,49.69 132.03,49.87 132.15,49.66 132.26,49.91 132.38,50.26 132.50,50.82 132.62,51.02 132.73,51.31 132.85,51.61 132.97,51.45 133.09,51.46 133.20,51.72 133.32,52.20 133.44,52.53 133.56,53.80 133.67,53.51 133.79,53.24 133.91,52.80 134.03,52.62 134.14,52.57 134.26,53.10 134.38,52.91 134.50,52.80 134.61,53.22 134.73,53.12 134.85,52.23 134.97,52.95 135.08,52.98 135.20,52.50 135.32,53.12 135.44,53.77 135.55,54.52 135.67,55.06 135.79,54.99 135.91,55.63 136.02,55.97 136.14,55.03 136.26,54.72 136.37,53.84 136.49,53.53 136.61,53.36 136.73,52.93 136.84,52.78 136.96,53.01 137.08,54.35 137.20,53.87 137.31,54.08 137.43,53.96 137.55,52.12 137.67,51.59 137.78,51.23 137.90,51.28 138.02,51.60 138.14,52.17 138.25,51.96 138.37,51.64 138.49,50.88 138.61,50.01 138.72,49.13 138.84,49.32 138.96,49.71 139.08,49.46 139.19,49.63 139.31,48.96 139.43,49.03 139.55,48.19 139.66,47.93 139.78,47.32 139.90,48.00 140.02,47.71 140.13,47.44 140.25,47.27 140.37,46.98 140.49,46.86 140.60,46.79 140.72,46.55 140.84,47.03 140.96,46.92 141.07,46.74 141.19,45.96 141.31,45.92 141.43,45.81 141.54,45.30 141.66,45.58 141.78,46.20 141.90,46.11 142.01,46.17 142.13,46.08 142.25,45.92 142.37,46.09 142.48,46.39 142.60,46.33 142.72,46.48 142.84,46.38 142.95,46.29 143.07,45.99 143.19,46.05 143.30,45.86 143.42,46.03 143.54,46.08 143.66,9.47 143.77,9.24 143.89,9.24 144.01,9.42 144.13,9.35 144.24,9.78 144.36,10.48 144.48,10.80 144.60,11.36 144.71,12.04 144.83,13.17 144.95,13.28 145.07,12.71 145.18,12.49 145.30,12.47 145.42,12.41 145.54,12.51 145.65,12.53 145.77,12.62 145.89,12.68 146.01,12.81 146.12,13.21 146.24,14.23 146.36,15.26 146.48,16.40 146.59,16.76 146.71,16.29 146.83,16.84 146.95,17.47 147.06,18.03 147.18,18.66 147.30,18.98 147.42,18.46 147.53,18.97 147.65,18.97 147.77,19.29 147.89,19.80 148.00,19.89 148.12,20.80 148.24,20.96 148.36,21.63 148.47,21.86 148.59,22.14 148.71,22.42 148.83,22.60 148.94,22.75 149.06,22.94 149.18,23.08 149.30,21.89 149.41,21.33 149.53,20.87 149.65,21.06 149.77,21.45 149.88,22.44 150.00,22.57 150.12,22.65 150.23,22.69 150.35,22.84 150.47,22.26 150.59,23.21 150.70,23.29 150.82,21.67 150.94,19.42 151.06,18.70 151.17,17.74 151.29,18.61 151.41,19.52 151.53,20.27 151.64,20.33 151.76,20.03 151.88,20.90 152.00,21.21 152.11,19.76 152.23,20.75 152.35,20.59 152.47,20.62 152.58,20.48 152.70,20.37 152.82,20.34 152.94,20.38 153.05,20.13 153.17,19.69 153.29,18.75 153.41,18.27 153.52,17.06 153.64,15.95 153.76,15.68 153.88,15.38 153.99,15.12 154.11,14.59 154.23,14.09 154.35,13.10 154.46,12.87 154.58,12.83 154.70,12.05 154.82,11.36 154.93,11.78 155.05,11.39 155.17,11.32 155.29,11.61 155.40,11.63 155.52,12.43 155.64,10.72 155.76,10.38 155.87,10.37 155.99,10.99 156.11,11.08 156.23,10.75 156.34,10.24 156.46,9.72 156.58,9.38 156.70,8.95 156.81,8.54 156.93,8.13 157.05,7.94 157.16,7.77 157.28,7.79 157.40,7.59 157.52,7.23 157.63,6.31 157.75,5.99 157.87,5.64 157.99,5.32 158.10,4.98 158.22,4.75 158.34,4.58 158.46,4.36 158.57,4.22 158.69,4.08 158.81,4.45 158.93,4.55 159.04,4.71 159.16,4.91 159.28,5.46 159.40,5.81 159.51,6.14 159.63,6.32 159.75,6.44 159.87,6.88 159.98,7.15 160.10,7.34 160.22,7.96 160.34,8.40 160.45,8.82 160.57,9.28 160.69,9.71 160.81,10.32 160.92,10.56 161.04,11.00 161.16,11.95 161.28,12.39 161.39,12.91 161.51,13.42 161.63,13.84 161.75,14.45 161.86,14.61 161.98,14.91 162.10,15.65 162.22,16.32 162.33,16.95 162.45,16.96 162.57,17.15 162.69,17.85 162.80,19.35 162.92,20.48 163.04,21.71 163.16,22.10 163.27,22.57 163.39,23.21 163.51,23.58 163.63,23.82 163.74,23.99 163.86,24.14 163.98,24.41 164.09,24.51 164.21,24.60 164.33,24.91 164.45,25.09 164.56,25.52 164.68,27.24 164.80,27.34 164.92,26.75 165.03,26.41 165.15,26.28 165.27,26.23 165.39,26.21 165.50,26.24 165.62,26.44 165.74,26.94 165.86,26.56 165.97,26.36 166.09,26.37 166.21,26.11 166.33,26.21 166.44,27.55 166.56,29.58 166.68,31.55 166.80,33.06 166.91,34.72 167.03,35.31 167.15,35.78 167.27,37.76 167.38,38.60 167.50,38.59 167.62,37.70 167.74,36.66 167.85,35.30 167.97,34.35 168.09,33.46 168.21,32.64 168.32,31.28 168.44,29.85 168.56,28.44 168.68,26.92 168.79,25.25 168.91,24.39 169.03,23.12 169.15,21.96 169.26,20.68 169.38,20.11 169.50,20.07 169.62,20.55 169.73,21.18 169.85,21.92 169.97,22.92 170.09,23.74 170.20,24.67 170.32,25.02 170.44,24.41 170.56,24.26 170.67,24.53 170.79,24.77 170.91,25.17 171.02,25.47 171.14,25.59 171.26,25.80 171.38,25.78 171.49,25.61 171.61,25.25 171.73,25.19 171.85,24.76 171.96,24.75 172.08,24.34 172.20,24.07 172.32,23.98 172.43,23.66 172.55,23.35 172.67,23.05 172.79,23.11 172.90,24.44 173.02,26.82 173.14,28.65 173.26,30.91 173.37,32.81 173.49,33.95 173.61,33.60 173.73,33.35 173.84,33.20 173.96,32.99 174.08,32.86 174.20,32.65 174.31,32.78 174.43,32.45 174.55,32.30 174.67,32.29 174.78,32.51 174.90,31.59 175.02,30.45 175.14,30.05 175.25,30.45 175.37,30.61 175.49,30.76 175.61,31.07 175.72,30.88 175.84,30.88 175.96,31.00 176.08,31.55 176.19,32.57 176.31,33.49 176.43,34.31 176.55,34.37 176.66,34.23 176.78,33.88 176.90,33.89 177.02,33.95 177.13,34.22 177.25,34.50 177.37,34.78 177.49,35.29 177.60,35.96 177.72,36.27 177.84,36.20 177.95,35.91 178.07,35.59 178.19,35.76 178.31,36.06 178.42,35.77 178.54,34.64 178.66,34.14 178.78,34.00 178.89,9.56 179.01,9.34 179.13,9.16 179.25,9.37 179.36,9.41 179.48,9.99 179.60,10.85 179.72,11.62 179.83,11.39 179.95,12.31 180.07,13.31 180.19,13.41 180.30,12.75 180.42,12.44 180.54,12.44 180.66,12.43 180.77,12.49 180.89,12.56 181.01,12.68 181.13,12.68 181.24,12.97 181.36,13.53 181.48,14.33 181.60,15.18 181.71,15.99 181.83,16.80 181.95,16.56 182.07,17.29 182.18,17.20 182.30,17.74 182.42,18.48 182.54,19.24 182.65,19.11 182.77,17.97 182.89,18.95 183.01,18.67 183.12,19.88 183.24,20.04 183.36,20.25 183.48,20.25 183.59,20.94 183.71,21.95 183.83,22.10 183.95,22.09 184.06,21.17 184.18,22.60 184.30,22.99 184.42,22.24 184.53,22.24 184.65,21.89 184.77,21.72 184.88,20.50 185.00,21.82 185.12,22.02 185.24,22.35 185.35,22.78 185.47,21.28 185.59,21.77 185.71,22.17 185.82,22.55 185.94,23.21 186.06,20.94 186.18,19.89 186.29,19.04 186.41,16.94 186.53,18.89 186.65,19.77 186.76,18.74 186.88,20.18 187.00,19.88 187.12,20.75 187.23,20.95 187.35,19.27 187.47,20.27 187.59,20.03 187.70,20.98 187.82,20.25 187.94,20.34 188.06,20.64 188.17,20.64 188.29,20.09 188.41,19.43 188.53,17.40 188.64,16.30 188.76,16.96 188.88,15.96 189.00,15.21 189.11,14.75 189.23,13.95 189.35,13.85 189.47,14.08 189.58,12.46 189.70,13.04 189.82,11.44 189.94,12.35 190.05,10.95 190.17,12.17 190.29,11.13 190.41,10.48 190.52,12.17 190.64,10.30 190.76,10.04 190.88,11.26 190.99,9.97 191.11,10.92 191.23,10.50 191.35,10.62 191.46,9.14 191.58,9.86 191.70,8.54 191.81,8.84 191.93,7.67 192.05,8.14 192.17,7.79 192.28,7.93 192.40,7.77 192.52,7.80 192.64,7.80 192.75,7.11 192.87,6.64 192.99,6.08 193.11,5.90 193.22,5.41 193.34,5.43 193.46,5.06 193.58,4.86 193.69,4.47 193.81,4.28 193.93,4.01 194.05,4.32 194.16,4.32 194.28,4.61 194.40,4.74 194.52,5.51 194.63,5.99 194.75,5.99 194.87,6.55 194.99,6.68 195.10,6.93 195.22,7.22 195.34,7.58 195.46,7.98 195.57,8.39 195.69,8.86 195.81,9.41 195.93,10.06 196.04,10.77 196.16,11.30 196.28,11.16 196.40,12.29 196.51,12.23 196.63,13.48 196.75,13.53 196.87,13.76 196.98,15.51 197.10,14.66 197.22,15.25 197.34,16.25 197.45,16.25 197.57,16.54 197.69,17.46 197.81,16.94 197.92,17.60 198.04,19.35 198.16,20.73 198.28,21.84 198.39,21.84 198.51,22.69 198.63,23.03 198.74,23.53 198.86,23.71 198.98,23.91 199.10,24.08 199.21,24.45 199.33,24.56 199.45,24.56 199.57,24.85 199.68,25.05 199.80,25.94 199.92,26.95 200.04,27.51 200.15,27.04 200.27,26.68 200.39,26.55 200.51,26.35 200.62,26.17 200.74,26.13 200.86,26.61 200.98,26.77 201.09,26.62 201.21,26.39 201.33,26.35 201.45,26.19 201.56,26.31 201.68,27.76 201.80,29.34 201.92,31.68 202.03,32.98 202.15,34.11 202.27,34.99 202.39,35.84 202.50,37.79 202.62,37.79 202.74,37.67 202.86,36.91 202.97,36.00 203.09,34.93 203.21,34.02 203.33,33.11 203.44,32.24 203.56,30.66 203.68,29.66 203.80,28.65 203.91,26.60 204.03,24.80 204.15,24.27 204.27,23.39 204.38,22.38 204.50,20.56 204.62,20.86 204.74,20.20 204.85,20.63 204.97,21.51 205.09,22.45 205.21,23.59 205.32,23.59 205.44,24.78 205.56,24.98 205.67,24.50 205.79,24.35 205.91,25.12 206.03,25.08 206.14,25.16 206.26,25.59 206.38,25.76 206.50,25.96 206.61,25.77 206.73,25.48 206.85,25.10 206.97,25.24 207.08,24.86 207.20,24.52 207.32,24.22 207.44,23.93 207.55,23.70 207.67,23.58 207.79,23.59 207.91,23.20 208.02,23.32 208.14,25.53 208.26,27.07 208.38,29.75 208.49,31.22 208.61,33.42 208.73,33.73 208.85,33.60 208.96,33.54 209.08,33.34 209.20,33.13 209.32,32.93 209.43,32.73 209.55,32.68 209.67,32.53 209.79,32.33 209.90,32.40 210.02,32.30 210.14,30.59 210.26,29.67 210.37,29.90 210.49,30.52 210.61,29.79 210.73,30.50 210.84,30.46 210.96,31.07 211.08,31.18 211.20,31.62 211.31,32.29 211.43,32.29 211.55,33.80 211.67,34.41 211.78,34.53 211.90,34.83 212.02,34.73 212.14,34.12 212.25,34.34 212.37,34.79 212.49,34.67 212.60,35.64 212.72,35.75 212.84,35.98 212.96,37.59 213.07,37.24 213.19,35.95 213.31,35.84 213.43,35.85 213.54,36.01 213.66,36.21 213.78,35.14 213.90,34.31 214.01,34.49 214.13,34.94 214.25,35.66 214.37,36.27 214.48,36.11 214.60,35.60 214.72,35.84 214.84,35.99 214.95,36.09 215.07,36.29 215.19,36.46 215.31,35.88 215.42,36.38 215.54,36.79 215.66,35.53 215.78,35.54 215.89,35.71 216.01,36.06 216.13,37.53 216.25,37.63 216.36,37.70 216.48,37.43 216.60,37.49 216.72,38.79 216.83,39.14 216.95,40.03 217.07,39.91 217.19,39.24 217.30,40.07 217.42,40.65 217.54,41.09 217.66,41.95 217.77,41.22 217.89,41.25 218.01,41.77 218.13,42.56 218.24,42.80 218.36,43.54 218.48,43.54 218.60,43.76 218.71,43.76 218.83,44.05 218.95,44.47 219.07,44.64 219.18,45.28 219.30,45.63 219.42,46.19 219.53,45.77 219.65,45.96 219.77,45.94 219.89,45.88 220.00,45.85 220.12,45.85 220.24,45.89 220.36,45.93 220.47,46.01 220.59,46.26 220.71,46.18 220.83,46.30 220.94,46.30 221.06,46.61 221.18,46.40 221.30,46.67 221.41,46.49 221.53,46.77 221.65,46.68 221.77,46.59 221.88,46.57 222.00,46.34 222.12,46.34 222.24,46.45 222.35,46.84 222.47,46.40 222.59,46.59 222.71,46.88 222.82,47.26 222.94,46.77 223.06,47.35 223.18,46.74 223.29,47.21 223.41,47.82 223.53,47.92 223.65,49.19 223.76,49.19 223.88,48.59 224.00,49.20 224.12,49.20 224.23,48.96 224.35,48.60 224.47,48.29 224.59,48.16 224.70,48.36 224.82,48.96 224.94,49.49 225.06,49.00 225.17,50.27 225.29,49.49 225.41,48.61 225.53,49.52 225.64,48.73 225.76,49.56 225.88,48.79 226.00,49.55 226.11,48.87 226.23,49.71 226.35,50.77 226.47,50.43 226.58,50.26 226.70,51.50 226.82,51.36 226.93,51.30 227.05,51.73 227.17,52.13 227.29,52.75 227.40,53.54 227.52,53.65 227.64,53.15 227.76,52.33 227.87,52.02 227.99,51.87 228.11,53.42 228.23,52.42 228.34,51.67 228.46,53.05 228.58,52.90 228.70,50.73 228.81,52.66 228.93,52.18 229.05,51.83 229.17,51.76 229.28,53.62 229.40,53.86 229.52,54.21 229.64,54.79 229.75,54.01 229.87,54.82 229.99,54.92 230.11,54.68 230.22,52.46 230.34,52.09 230.46,51.93 230.58,52.06 230.69,52.41 230.81,51.71 230.93,52.87 231.05,53.24 231.16,53.37 231.28,53.37 231.40,52.01 231.52,51.01 231.63,50.18 231.75,50.97 231.87,51.60 231.99,52.61 232.10,52.08 232.22,51.31 232.34,49.70 232.46,49.62 232.57,47.85 232.69,47.79 232.81,47.78 232.93,48.14 233.04,48.85 233.16,47.64 233.28,48.38 233.40,47.05 233.51,47.40 233.63,46.92 233.75,47.86 233.86,47.64 233.98,47.76 234.10,47.57 234.22,47.64 234.33,46.81 234.45,47.98 234.57,48.52 234.69,48.55 234.80,46.94 234.92,48.16 235.04,46.81 235.16,45.36 235.27,45.83 235.39,45.74 235.51,45.76 235.63,46.66 235.74,46.00 235.86,45.74 235.98,46.11 236.10,45.70 236.21,45.80 236.33,46.18 236.45,46.22 236.57,46.43 236.68,46.00 236.80,45.84 236.92,45.64 237.04,45.87 237.15,45.86 237.27,46.01 237.39,46.21 237.51,9.80 237.62,9.80 237.74,9.55 237.86,9.55 237.98,9.55 238.09,9.89 238.21,9.89 238.33,9.89 238.45,10.19 238.56,11.83 238.68,11.83 238.80,11.83 238.92,11.95 239.03,12.40 239.15,12.40 239.27,12.40 239.39,12.51 239.50,12.51 239.62,12.51 239.74,12.51 239.86,12.99 239.97,12.99 240.09,12.99 240.21,14.58 240.33,14.58 240.44,14.58 240.56,14.92 240.68,14.92 240.79,14.92 240.91,16.25 241.03,16.25 241.15,16.25 241.26,18.77 241.38,15.57 241.50,15.57 241.62,15.57 241.73,18.63 241.85,18.63 241.97,16.76 242.09,16.76 242.20,20.48 242.32,20.48 242.44,20.48 242.56,20.60 242.67,20.60 242.79,20.60 242.91,20.60 243.03,20.89 243.14,20.89 243.26,22.38 243.38,22.38 243.50,19.75 243.61,19.75 243.73,19.75 243.85,19.15 243.97,19.15 244.08,19.15 244.20,19.15 244.32,20.06 244.44,20.06 244.55,20.06 244.67,20.90 244.79,20.90 244.91,20.90 245.02,19.63 245.14,19.63 245.26,19.63 245.38,21.58 245.49,21.58 245.61,21.58 245.73,21.51 245.85,21.51 245.96,17.32 246.08,17.32 246.20,18.13 246.32,18.13 246.43,18.13 246.55,19.87 246.67,19.87 246.79,19.87 246.90,19.87 247.02,19.87 247.14,20.23 247.26,20.23 247.37,17.48 247.49,17.48 247.61,17.48 247.72,15.13 247.84,15.13 247.96,14.23 248.08,14.23 248.19,14.23 248.31,15.45 248.43,15.45 248.55,15.45 248.66,11.25 248.78,11.25 248.90,11.25 249.02,14.93 249.13,14.93 249.25,9.45 249.37,9.45 249.49,13.18 249.60,13.18 249.72,10.05 249.84,10.05 249.96,10.05 250.07,7.06 250.19,8.93 250.31,8.93 250.43,8.93 250.54,9.94 250.66,9.94 250.78,6.87 250.90,9.09 251.01,9.09 251.13,9.27 251.25,9.27 251.37,6.51 251.48,6.51 251.60,6.51 251.72,5.93 251.84,5.93 251.95,5.93 252.07,4.92 252.19,4.92 252.31,4.92 252.42,4.50 252.54,4.50 252.66,4.50 252.78,4.50 252.89,4.54 253.01,4.54 253.13,5.62 253.25,5.62 253.36,5.62 253.48,7.62 253.60,7.62 253.72,7.62 253.83,8.37 253.95,8.37 254.07,8.37 254.19,9.49 254.30,9.49 254.42,9.49 254.54,11.18 254.65,11.18 254.77,10.06 254.89,10.06 255.01,13.44 255.12,13.27 255.24,13.27 255.36,13.27 255.48,13.94 255.59,13.94 255.71,13.94 255.83,16.37 255.95,16.37 256.06,16.37 256.18,15.71 256.30,15.71 256.42,15.71 256.53,18.02 256.65,18.02 256.77,20.73 256.89,22.29 257.00,22.29 257.12,22.29 257.24,21.23 257.36,23.59 257.47,23.59 257.59,23.59 257.71,24.19 257.83,24.19 257.94,24.76 258.06,24.76 258.18,24.76 258.30,24.76 258.41,27.31 258.53,27.31 258.65,27.31 258.77,27.97 258.88,27.97 259.00,27.72 259.12,26.34 259.24,26.34 259.35,26.34 259.47,26.27 259.59,26.27 259.71,26.27 259.82,26.17 259.94,26.64 260.06,26.64 260.18,26.64 260.29,27.51 260.41,31.59 260.53,31.59 260.65,31.59 260.76,35.15 260.88,35.15 261.00,35.15 261.12,38.51 261.23,38.51 261.35,36.44 261.47,36.44 261.58,36.44 261.70,33.28 261.82,33.28 261.94,33.28 262.05,30.50 262.17,30.50 262.29,30.50 262.41,28.14 262.52,26.05 262.64,26.05 262.76,26.05 262.88,22.98 262.99,23.52 263.11,20.67 263.23,20.67 263.35,20.67 263.46,20.67 263.58,23.54 263.70,22.83 263.82,22.83 263.93,22.83 264.05,25.97 264.17,25.64 264.29,25.64 264.40,25.18 264.52,25.18 264.64,25.18 264.76,25.52 264.87,25.52 264.99,26.29 265.11,26.29 265.23,25.84 265.34,25.84 265.46,25.10 265.58,25.16 265.70,25.16 265.81,25.16 265.93,24.53 266.05,24.53 266.17,24.53 266.28,24.60 266.40,24.60 266.52,23.60 266.64,23.60 266.75,25.64 266.87,29.73 266.99,29.73 267.11,29.73 267.22,32.88 267.34,32.88 267.46,33.86 267.58,33.66 267.69,33.20 267.81,33.20 267.93,33.20 268.05,32.51 268.16,32.51 268.28,32.51 268.40,32.22 268.51,32.22 268.63,32.22 268.75,30.66 268.87,30.66 268.98,30.73 269.10,30.73 269.22,30.73 269.34,32.69 269.45,30.39 269.57,30.39 269.69,30.39 269.81,31.44 269.92,31.44 270.04,31.44 270.16,34.02 270.28,35.51 270.39,35.51 270.51,35.51 270.63,34.92 270.75,34.92 270.86,34.92 270.98,33.73 271.10,33.73 271.22,36.64 271.33,37.13 271.45,37.13 271.57,37.13 271.69,37.19 271.80,37.19 271.92,36.69 272.04,36.69 272.16,36.69 272.27,35.17 272.39,35.17 272.51,35.17 272.63,35.88 272.74,35.88 272.86,35.88 272.98,36.61 273.10,36.61 273.21,35.51 273.33,36.18 273.45,36.18 273.57,36.21 273.68,36.21 273.80,36.21 273.92,35.38 274.04,35.38 274.15,36.79 274.27,36.18 274.39,35.81 274.51,35.81 274.62,35.81 274.74,38.01 274.86,37.40 274.98,37.40 275.09,37.40 275.21,37.81 275.33,37.81 275.44,39.84 275.56,39.84 275.68,38.45 275.80,38.45 275.91,41.07 276.03,41.07 276.15,39.75 276.27,41.90 276.38,41.90 276.50,41.90 276.62,41.90 276.74,43.68 276.85,42.60 276.97,42.60 277.09,44.13 277.21,44.13 277.32,44.13 277.44,43.47 277.56,44.82 277.68,44.82 277.79,44.82 277.91,46.36 278.03,46.36 278.15,45.38 278.26,45.38 278.38,45.46 278.50,45.46 278.62,45.46 278.73,45.37 278.85,45.37 278.97,45.37 279.09,45.89 279.20,45.89 279.32,45.89 279.44,47.04 279.56,47.04 279.67,46.44 279.79,46.44 279.91,45.95 280.03,45.95 280.14,47.16 280.26,46.52 280.38,46.52 280.50,46.52 280.61,46.33 280.73,46.33 280.85,46.33 280.97,46.79 281.08,46.79 281.20,47.72 281.32,47.72 281.44,47.72 281.55,46.54 281.67,46.54 281.79,46.54 281.91,47.94 282.02,47.94 282.14,48.65 282.26,48.65 282.37,48.65 282.49,48.65 282.61,49.02 282.73,49.02 282.84,49.02 282.96,48.35 283.08,48.35 283.20,48.35 283.31,49.20 283.43,49.20 283.55,49.20 283.67,47.16 283.78,51.89 283.90,51.89 284.02,49.53 284.14,49.53 284.25,49.53 284.37,47.44 284.49,47.44 284.61,52.10 284.72,49.94 284.84,49.94 284.96,49.94 285.08,48.99 285.19,48.99 285.31,53.36 285.43,53.02 285.55,53.02 285.66,53.80 285.78,53.80 285.90,53.80 286.02,53.77 286.13,53.77 286.25,53.77 286.37,51.60 286.49,51.60 286.60,54.53 286.72,54.53 286.84,52.18 286.96,52.18 287.07,51.26 287.19,51.26 287.31,51.26 287.43,50.76 287.54,50.76 287.66,50.76 287.78,50.48 287.90,55.56 288.01,56.00 288.13,56.00 288.25,56.00 288.37,53.26 288.48,53.26 288.60,53.26 288.72,52.89 288.84,52.89 288.95,52.22 289.07,52.22 289.19,52.22 289.30,53.43 289.42,53.43 289.54,53.43 289.66,52.91 289.77,52.91 289.89,52.91 290.01,52.91 290.13,50.39 290.24,50.39 290.36,50.39 290.48,52.61 290.60,52.61 290.71,50.72 290.83,50.72 290.95,50.72 291.07,50.72 291.18,46.44 291.30,46.44 291.42,46.81 291.54,46.81 291.65,46.81 291.77,48.37 291.89,48.37 292.01,48.37 292.12,49.63 292.24,47.03 292.36,47.03 292.48,47.03 292.59,47.03 292.71,49.01 292.83,49.01 292.95,45.90 293.06,45.90 293.18,49.43 293.30,49.43 293.42,45.32 293.53,45.32 293.65,45.89 293.77,45.89 293.89,45.89 294.00,45.89 294.12,44.86 294.24,47.24 294.36,47.24 294.47,45.58 294.59,45.58 294.71,45.58 294.83,46.70 294.94,46.70 295.06,45.74 295.18,46.09 295.30,46.09 295.41,46.09 295.53,46.05 295.65,46.05 295.77,46.05 295.88,46.14 296.00,46.14" />
</svg>