<svg width="300" height="60" xmlns="http://www.w3.org/2000/svg">
  <polyline fill="rgba(255,200,0,0.3)" stroke="#ffbb00" stroke-width="2" points="4.00,53.65 5.44,53.38 6.88,52.91 8.32,52.75 9.75,53.10 11.19,53.77 12.63,53.50 14.07,53.16 15.51,52.51 16.95,51.95 18.38,50.92 19.82,48.44 21.26,43.18 22.70,38.39 24.14,37.98 25.58,41.78 27.01,44.45 28.45,47.73 29.89,49.44 31.33,48.65 32.77,48.78 34.21,48.58 35.65,47.80 37.08,47.91 38.52,47.81 39.96,48.81 41.40,50.57 42.84,49.04 44.28,49.55 45.71,48.40 47.15,45.83 48.59,44.95 50.03,46.09 51.47,44.24 52.91,43.93 54.34,44.26 55.78,40.73 57.22,39.20 58.66,38.16 60.10,38.02 61.54,36.41 62.98,34.68 64.41,34.87 65.85,34.61 67.29,32.23 68.73,31.90 70.17,32.01 71.61,33.62 73.04,32.85 74.48,32.94 75.92,33.38 77.36,33.33 78.80,33.26 80.24,33.24 81.67,33.59 83.11,32.98 84.55,32.97 85.99,31.56 87.43,23.04 88.87,17.98 90.31,11.47 91.74,10.24 93.18,9.12 94.62,7.40 96.06,6.77 97.50,7.33 98.94,9.69 100.37,10.09 101.81,53.70 103.25,53.62 104.69,53.55 106.13,53.70 107.57,53.85 109.00,53.85 110.44,53.31 111.88,52.93 113.32,52.41 114.76,51.74 116.20,50.54 117.64,48.07 119.07,40.36 120.51,38.98 121.95,39.95 123.39,42.20 124.83,44.45 126.27,46.77 127.70,49.01 129.14,49.39 130.58,49.48 132.02,49.25 133.46,49.48 134.90,49.85 136.33,49.48 137.77,47.83 139.21,48.20 140.65,48.03 142.09,47.74 143.53,47.29 144.97,45.71 146.40,44.52 147.84,43.39 149.28,42.42 150.72,41.81 152.16,41.29 153.60,40.76 155.03,39.86 156.47,38.37 157.91,37.54 159.35,36.20 160.79,35.51 162.23,34.53 163.67,33.94 165.10,32.74 166.54,32.06 167.98,31.91 169.42,32.06 170.86,33.00 172.30,33.07 173.73,33.22 175.17,33.30 176.61,33.30 178.05,33.30 179.49,33.08 180.93,33.00 182.36,32.85 183.80,30.16 185.24,24.32 186.68,19.15 188.12,10.32 189.56,9.34 191.00,8.36 192.43,7.84 193.87,7.54 195.31,7.39 196.75,9.41 198.19,9.04 199.63,56.00 201.06,56.00 202.50,56.00 203.94,54.21 205.38,54.21 206.82,54.21 208.26,51.14 209.69,51.14 211.13,45.45 212.57,45.45 214.01,45.45 215.45,40.21 216.89,40.21 218.33,45.15 219.76,45.15 221.20,45.15 222.64,51.51 224.08,51.51 225.52,52.41 226.96,52.41 228.39,52.41 229.83,50.76 231.27,50.76 232.71,50.76 234.15,47.92 235.59,47.62 237.02,46.87 238.46,46.87 239.90,46.87 241.34,45.08 242.78,45.08 244.22,42.38 245.66,42.38 247.09,42.38 248.53,40.43 249.97,40.43 251.41,38.11 252.85,38.11 254.29,38.11 255.72,34.74 257.16,34.74 258.60,35.34 260.04,33.02 261.48,33.02 262.92,32.75 264.35,32.75 265.79,32.75 267.23,32.37 268.67,32.37 270.11,32.82 271.55,32.82 272.99,32.82 274.42,32.75 275.86,32.75 277.30,26.68 278.74,26.68 280.18,26.68 281.62,14.93 283.05,14.93 284.49,14.93 285.93,9.02 287.37,9.02 288.81,4.00 290.25,4.00 291.68,7.82 293.12,7.82 294.56,7.82 296.00,9.91" />
</svg>