<svg width="300" height="60" xmlns="http://www.w3.org/2000/svg">
  <polyline fill="rgba(255,200,0,0.3)" stroke="#ffbb00" stroke-width="2" points="4.00,12.10 4.56,13.06 5.13,13.61 5.69,14.19 6.25,14.65 6.82,14.60 7.38,14.13 7.95,14.11 8.51,14.40 9.07,14.81 9.64,15.21 10.20,15.61 10.76,15.73 11.33,15.54 11.89,15.13 12.46,14.54 13.02,13.83 13.58,13.24 14.15,12.82 14.71,12.42 15.27,12.07 15.84,11.67 16.40,11.13 16.97,10.38 17.53,9.66 18.09,9.13 18.66,8.79 19.22,8.36 19.78,7.68 20.35,6.63 20.91,5.56 21.47,4.91 22.04,4.43 22.60,4.04 23.17,4.00 23.73,4.78 24.29,5.36 24.86,6.11 25.42,6.79 25.98,7.92 26.55,8.64 27.11,9.22 27.68,9.67 28.24,9.93 28.80,10.31 29.37,10.22 29.93,10.11 30.49,9.84 31.06,9.55 31.62,9.80 32.19,9.63 32.75,9.37 33.31,10.22 33.88,10.52 34.44,10.08 35.00,9.56 35.57,9.54 36.13,10.57 36.69,12.53 37.26,13.70 37.82,15.34 38.39,18.21 38.95,19.67 39.51,20.63 40.08,21.38 40.64,22.02 41.20,22.89 41.77,23.71 42.33,24.73 42.90,25.84 43.46,26.80 44.02,27.64 44.59,27.92 45.15,28.55 45.71,29.16 46.28,29.57 46.84,30.60 47.41,30.71 47.97,31.25 48.53,31.91 49.10,32.38 49.66,33.05 50.22,34.22 50.79,35.12 51.35,36.78 51.92,37.71 52.48,39.10 53.04,40.46 53.61,41.33 54.17,41.87 54.73,42.90 55.30,43.65 55.86,44.33 56.42,44.92 56.99,45.46 57.55,46.35 58.12,47.14 58.68,47.67 59.24,47.78 59.81,48.03 60.37,48.49 60.93,48.84 61.50,50.37 62.06,51.52 62.63,52.28 63.19,53.75 63.75,53.07 64.32,52.75 64.88,52.37 65.44,51.92 66.01,51.31 66.57,50.37 67.14,48.73 67.70,47.86 68.26,48.89 68.83,48.75 69.39,48.08 69.95,47.56 70.52,47.19 71.08,47.53 71.64,48.38 72.21,48.93 72.77,49.12 73.34,49.39 73.90,49.76 74.46,49.63 75.03,49.78 75.59,49.85 76.15,49.96 76.72,50.50 77.28,51.22 77.85,52.34 78.41,53.48 78.97,54.81 79.54,54.40 80.10,53.21 80.66,52.74 81.23,52.04 81.79,51.14 82.36,50.17 82.92,49.23 83.48,48.34 84.05,47.38 84.61,46.59 85.17,45.38 85.74,44.27 86.30,43.31 86.86,42.56 87.43,41.24 87.99,40.62 88.56,41.00 89.12,41.92 89.68,42.70 90.25,43.44 90.81,44.62 91.37,45.18 91.94,45.44 92.50,44.85 93.07,43.89 93.63,43.06 94.19,41.97 94.76,41.67 95.32,42.38 95.88,43.54 96.45,44.81 97.01,46.36 97.58,47.29 98.14,47.63 98.70,47.06 99.27,47.29 99.83,47.89 100.39,48.42 100.96,48.45 101.52,12.38 102.08,12.38 102.65,13.74 103.21,14.11 103.78,14.33 104.34,14.20 104.90,13.85 105.47,13.72 106.03,14.15 106.59,14.62 107.16,15.47 107.72,15.47 108.29,15.97 108.85,15.45 109.41,15.29 109.98,14.50 110.54,14.02 111.10,13.25 111.67,12.40 112.23,12.40 112.80,11.61 113.36,11.67 113.92,10.89 114.49,10.40 115.05,9.28 115.61,8.93 116.18,8.24 116.74,8.07 117.31,8.07 117.87,6.93 118.43,6.16 119.00,5.33 119.56,4.71 120.12,4.16 120.69,4.25 121.25,4.80 121.81,5.67 122.38,6.31 122.94,7.01 123.51,7.36 124.07,8.15 124.63,9.33 125.20,9.42 125.76,10.08 126.32,11.46 126.89,10.60 127.45,11.44 128.02,9.59 128.58,10.08 129.14,8.78 129.71,9.99 130.27,9.77 130.83,9.77 131.40,11.13 131.96,10.43 132.53,9.71 133.09,9.71 133.65,10.37 134.22,12.19 134.78,13.65 135.34,15.30 135.91,17.26 136.47,19.45 137.03,20.33 137.60,21.62 138.16,22.10 138.73,22.56 139.29,23.75 139.85,24.06 140.42,25.69 140.98,25.93 141.54,27.48 142.11,28.03 142.67,28.93 143.24,29.35 143.80,29.87 144.36,30.70 144.93,30.70 145.49,31.82 146.05,31.95 146.62,31.97 147.18,33.70 147.75,34.08 148.31,34.67 148.87,36.41 149.44,37.72 150.00,38.91 150.56,40.38 151.13,41.25 151.69,42.31 152.25,43.03 152.82,43.71 153.38,44.77 153.95,45.40 154.51,45.95 155.07,46.52 155.64,47.11 156.20,47.57 156.76,48.06 157.33,48.37 157.89,48.58 158.46,48.96 159.02,50.75 159.58,51.57 160.15,53.68 160.71,54.60 161.27,53.03 161.84,52.79 162.40,52.28 162.97,51.47 163.53,50.53 164.09,48.25 164.66,47.00 165.22,47.81 165.78,46.37 166.35,48.36 166.91,47.88 167.47,47.13 168.04,47.68 168.60,46.91 169.17,47.72 169.73,48.80 170.29,49.50 170.86,49.37 171.42,49.50 171.98,49.70 172.55,50.09 173.11,51.34 173.68,50.44 174.24,51.51 174.80,51.22 175.37,52.30 175.93,53.42 176.49,54.40 177.06,53.79 177.62,53.13 178.19,52.53 178.75,51.81 179.31,50.95 179.88,50.10 180.44,49.20 181.00,48.39 181.57,47.46 182.13,46.65 182.69,45.95 183.26,44.00 183.82,42.25 184.39,41.46 184.95,40.82 185.51,40.56 186.08,40.82 186.64,42.33 187.20,43.12 187.77,43.84 188.33,44.59 188.90,44.94 189.46,45.92 190.02,45.37 190.59,43.38 191.15,42.27 191.71,41.63 192.28,41.63 192.84,42.51 193.41,44.74 193.97,45.07 194.53,45.64 195.10,46.63 195.66,48.12 196.22,47.03 196.79,47.38 197.35,47.38 197.92,48.13 198.48,48.55 199.04,12.42 199.61,12.42 200.17,12.42 200.73,12.42 201.30,14.00 201.86,14.00 202.42,14.00 202.99,13.98 203.55,13.98 204.12,13.98 204.68,15.32 205.24,15.32 205.81,15.32 206.37,15.32 206.93,15.93 207.50,15.93 208.06,14.44 208.63,13.39 209.19,13.39 209.75,13.39 210.32,11.92 210.88,11.92 211.44,12.49 212.01,10.37 212.57,10.37 213.14,10.37 213.70,8.55 214.26,8.55 214.83,8.55 215.39,8.68 215.95,6.71 216.52,6.71 217.08,6.71 217.64,4.87 218.21,4.87 218.77,4.87 219.34,6.03 219.90,6.98 220.46,6.98 221.03,6.98 221.59,9.00 222.15,9.00 222.72,9.00 223.28,12.22 223.85,12.22 224.41,12.22 224.97,14.87 225.54,14.87 226.10,14.87 226.66,11.32 227.23,11.32 227.79,11.32 228.36,15.92 228.92,15.92 229.48,10.49 230.05,13.56 230.61,13.56 231.17,13.56 231.74,13.56 232.30,16.78 232.86,16.78 233.43,16.78 233.99,20.81 234.56,20.81 235.12,24.33 235.68,24.33 236.25,24.33 236.81,24.79 237.37,24.79 237.94,24.79 238.50,27.77 239.07,27.77 239.63,27.77 240.19,30.76 240.76,30.76 241.32,30.76 241.88,33.82 242.45,33.82 243.01,32.84 243.58,32.93 244.14,32.93 244.70,32.93 245.27,34.99 245.83,34.99 246.39,39.31 246.96,39.31 247.52,39.31 248.08,44.32 248.65,44.32 249.21,42.98 249.78,44.97 250.34,44.97 250.90,46.35 251.47,46.35 252.03,46.35 252.59,47.93 253.16,47.93 253.72,47.93 254.29,49.12 254.85,49.12 255.41,50.96 255.98,50.96 256.54,50.96 257.10,54.66 257.67,54.66 258.23,55.25 258.80,55.25 259.36,55.25 259.92,50.16 260.49,50.16 261.05,50.16 261.61,46.80 262.18,46.80 262.74,45.86 263.31,45.86 263.87,45.86 264.43,45.86 265.00,46.07 265.56,46.07 266.12,46.07 266.69,46.07 267.25,49.77 267.81,49.77 268.38,49.77 268.94,49.77 269.51,52.93 270.07,52.93 270.63,56.00 271.20,51.75 271.76,51.75 272.32,54.86 272.89,54.86 273.45,54.86 274.02,54.84 274.58,54.84 275.14,52.18 275.71,52.18 276.27,54.51 276.83,50.32 277.40,50.32 277.96,50.32 278.53,47.03 279.09,47.03 279.65,47.03 280.22,44.67 280.78,41.47 281.34,39.51 281.91,39.51 282.47,39.51 283.03,41.18 283.60,41.18 284.16,44.51 284.73,44.51 285.29,44.51 285.85,46.51 286.42,46.51 286.98,46.51 287.54,44.12 288.11,44.12 288.67,41.65 289.24,41.65 289.80,41.65 290.36,47.37 290.93,48.03 291.49,48.03 292.05,48.03 292.62,47.66 293.18,47.66 293.75,45.33 294.31,48.58 294.87,48.58 295.44,48.58 296.00,48.58" />
</svg>