<svg width="300" height="60" xmlns="http://www.w3.org/2000/svg">
  <polyline fill="rgba(255,200,0,0.3)" stroke="#ffbb00" stroke-width="2" points="4.00,35.62 4.21,35.89 4.42,36.30 4.63,36.77 4.83,37.36 5.04,37.96 5.25,38.54 5.46,39.16 5.67,39.58 5.88,39.99 6.08,40.53 6.29,40.99 6.50,41.50 6.71,42.01 6.92,42.56 7.13,43.15 7.33,44.84 7.54,45.21 7.75,45.35 7.96,45.63 8.17,45.98 8.38,46.54 8.59,46.85 8.79,47.34 9.00,47.90 9.21,48.48 9.42,49.02 9.63,49.54 9.84,50.08 10.04,50.87 10.25,51.78 10.46,52.50 10.67,53.02 10.88,53.50 11.09,53.77 11.29,53.70 11.50,53.38 11.71,52.88 11.92,52.20 12.13,51.50 12.34,50.81 12.55,50.10 12.75,49.50 12.96,48.68 13.17,48.15 13.38,47.78 13.59,47.22 13.80,46.77 14.00,46.36 14.21,45.97 14.42,45.68 14.63,45.22 14.84,44.75 15.05,44.30 15.25,43.73 15.46,43.35 15.67,43.05 15.88,42.81 16.09,42.46 16.30,42.31 16.51,41.98 16.71,41.79 16.92,41.53 17.13,41.30 17.34,41.13 17.55,40.98 17.76,41.00 17.96,41.38 18.17,42.17 18.38,43.21 18.59,43.77 18.80,44.55 19.01,45.34 19.21,46.03 19.42,46.97 19.63,47.82 19.84,48.40 20.05,49.00 20.26,49.41 20.47,49.61 20.67,49.60 20.88,49.45 21.09,49.12 21.30,48.79 21.51,48.45 21.72,48.25 21.92,48.05 22.13,47.91 22.34,47.87 22.55,47.97 22.76,48.00 22.97,48.18 23.17,48.43 23.38,48.58 23.59,48.67 23.80,48.68 24.01,48.57 24.22,48.34 24.43,48.24 24.63,48.24 24.84,48.40 25.05,48.61 25.26,48.82 25.47,49.13 25.68,49.47 25.88,49.72 26.09,49.94 26.30,49.97 26.51,49.58 26.72,49.24 26.93,48.90 27.13,48.45 27.34,48.11 27.55,47.76 27.76,47.42 27.97,47.13 28.18,46.72 28.39,46.26 28.59,45.76 28.80,45.26 29.01,44.75 29.22,44.21 29.43,43.79 29.64,43.36 29.84,42.93 30.05,42.41 30.26,41.89 30.47,41.27 30.68,40.68 30.89,40.24 31.09,39.84 31.30,39.47 31.51,39.22 31.72,38.89 31.93,38.64 32.14,38.19 32.35,37.73 32.55,37.53 32.76,37.34 32.97,37.12 33.18,36.75 33.39,36.20 33.60,35.50 33.80,34.84 34.01,34.06 34.22,33.23 34.43,32.43 34.64,31.66 34.85,30.91 35.05,30.25 35.26,29.70 35.47,29.15 35.68,28.69 35.89,28.14 36.10,27.80 36.31,27.64 36.51,27.56 36.72,27.41 36.93,27.17 37.14,26.80 37.35,26.52 37.56,26.23 37.76,25.96 37.97,25.68 38.18,25.48 38.39,25.39 38.60,25.38 38.81,25.55 39.01,25.61 39.22,25.68 39.43,25.65 39.64,25.51 39.85,25.09 40.06,24.53 40.27,23.80 40.47,22.92 40.68,21.99 40.89,21.17 41.10,20.37 41.31,19.73 41.52,19.21 41.72,18.60 41.93,18.15 42.14,17.74 42.35,17.23 42.56,16.68 42.77,16.13 42.98,15.66 43.18,15.27 43.39,14.93 43.60,14.68 43.81,14.63 44.02,14.66 44.23,14.84 44.43,15.13 44.64,15.49 44.85,15.90 45.06,16.35 45.27,16.85 45.48,17.24 45.68,17.26 45.89,17.03 46.10,16.72 46.31,16.34 46.52,15.99 46.73,15.60 46.94,15.28 47.14,15.14 47.35,15.07 47.56,15.01 47.77,15.07 47.98,15.26 48.19,15.72 48.39,16.10 48.60,16.50 48.81,16.89 49.02,17.44 49.23,18.14 49.44,17.66 49.64,17.47 49.85,17.09 50.06,16.62 50.27,15.99 50.48,15.71 50.69,15.87 50.90,16.02 51.10,16.22 51.31,16.38 51.52,16.46 51.73,16.50 51.94,16.38 52.15,16.77 52.35,16.71 52.56,17.04 52.77,16.81 52.98,16.88 53.19,16.52 53.40,15.44 53.60,14.82 53.81,14.16 54.02,13.49 54.23,12.76 54.44,11.90 54.65,11.04 54.86,10.02 55.06,9.17 55.27,8.48 55.48,8.00 55.69,7.64 55.90,7.33 56.11,6.95 56.31,6.60 56.52,6.38 56.73,5.97 56.94,5.69 57.15,5.43 57.36,5.34 57.56,5.29 57.77,5.36 57.98,5.54 58.19,5.76 58.40,6.21 58.61,6.86 58.82,7.42 59.02,7.95 59.23,8.71 59.44,9.49 59.65,10.40 59.86,11.36 60.07,12.05 60.27,12.77 60.48,13.43 60.69,14.09 60.90,14.80 61.11,15.36 61.32,16.08 61.52,16.63 61.73,17.30 61.94,17.97 62.15,18.56 62.36,19.17 62.57,19.79 62.78,20.43 62.98,21.30 63.19,22.04 63.40,22.86 63.61,23.51 63.82,24.16 64.03,24.93 64.23,25.62 64.44,26.31 64.65,26.91 64.86,27.34 65.07,27.83 65.28,28.30 65.48,28.74 65.69,29.05 65.90,29.44 66.11,30.06 66.32,30.83 66.53,31.75 66.74,32.68 66.94,33.36 67.15,33.86 67.36,34.07 67.57,33.90 67.78,33.46 67.99,32.93 68.19,32.24 68.40,31.46 68.61,30.66 68.82,29.88 69.03,29.29 69.24,29.04 69.44,28.85 69.65,28.83 69.86,28.80 70.07,28.67 70.28,28.76 70.49,34.63 70.70,34.59 70.90,34.50 71.11,34.42 71.32,34.44 71.53,34.45 71.74,34.51 71.95,34.07 72.15,33.89 72.36,33.55 72.57,33.41 72.78,33.37 72.99,33.35 73.20,33.31 73.40,33.24 73.61,33.03 73.82,32.58 74.03,32.25 74.24,31.98 74.45,31.80 74.66,31.70 74.86,31.71 75.07,31.85 75.28,32.12 75.49,32.48 75.70,32.92 75.91,33.57 76.11,34.12 76.32,34.61 76.53,35.02 76.74,35.33 76.95,35.62 77.16,35.89 77.36,34.70 77.57,34.77 77.78,34.56 77.99,34.46 78.20,34.46 78.41,34.53 78.62,34.59 78.82,34.14 79.03,33.86 79.24,33.61 79.45,33.42 79.66,33.36 79.87,33.33 80.07,33.33 80.28,33.30 80.49,33.04 80.70,32.76 80.91,32.42 81.12,32.15 81.32,31.92 81.53,31.84 81.74,31.79 81.95,31.94 82.16,32.10 82.37,32.50 82.58,33.09 82.78,33.49 82.99,34.20 83.20,34.54 83.41,35.15 83.62,35.44 83.83,35.67 84.03,35.97 84.24,36.30 84.45,36.62 84.66,37.03 84.87,37.69 85.08,38.53 85.28,39.07 85.49,39.42 85.70,39.94 85.91,40.56 86.12,40.95 86.33,41.63 86.54,42.00 86.74,42.56 86.95,43.15 87.16,44.22 87.37,45.16 87.58,45.16 87.79,45.48 87.99,46.08 88.20,46.62 88.41,46.97 88.62,47.49 88.83,48.08 89.04,48.57 89.24,49.12 89.45,49.69 89.66,50.21 89.87,51.02 90.08,51.87 90.29,52.56 90.50,53.00 90.70,53.38 90.91,53.85 91.12,54.72 91.33,53.69 91.54,52.98 91.75,52.28 91.95,51.73 92.16,50.93 92.37,50.06 92.58,49.51 92.79,48.76 93.00,48.31 93.20,47.73 93.41,47.32 93.62,46.91 93.83,46.52 94.04,46.07 94.25,45.69 94.46,45.17 94.66,44.96 94.87,44.25 95.08,44.41 95.29,43.68 95.50,43.21 95.71,42.78 95.91,42.53 96.12,42.31 96.33,42.23 96.54,41.72 96.75,41.60 96.96,41.42 97.16,41.22 97.37,41.10 97.58,41.06 97.79,41.44 98.00,42.19 98.21,43.33 98.42,43.78 98.62,44.51 98.83,45.18 99.04,45.96 99.25,46.96 99.46,48.17 99.67,48.43 99.87,48.98 100.08,49.48 100.29,49.76 100.50,49.76 100.71,49.66 100.92,49.37 101.12,48.90 101.33,48.56 101.54,48.35 101.75,48.20 101.96,47.97 102.17,48.03 102.38,47.94 102.58,47.75 102.79,48.22 103.00,48.46 103.21,48.74 103.42,48.85 103.63,48.92 103.83,48.57 104.04,48.43 104.25,48.37 104.46,48.37 104.67,48.53 104.88,48.65 105.08,48.88 105.29,49.23 105.50,49.49 105.71,49.77 105.92,50.18 106.13,50.02 106.34,49.57 106.54,49.25 106.75,48.93 106.96,48.62 107.17,47.88 107.38,47.73 107.59,47.42 107.79,47.14 108.00,46.61 108.21,46.36 108.42,45.89 108.63,45.46 108.84,45.19 109.04,44.44 109.25,43.99 109.46,44.41 109.67,43.01 109.88,42.53 110.09,42.11 110.30,41.41 110.50,40.76 110.71,40.33 110.92,39.93 111.13,39.57 111.34,39.30 111.55,39.32 111.75,39.09 111.96,38.38 112.17,37.80 112.38,37.55 112.59,37.41 112.80,37.26 113.00,37.05 113.21,36.45 113.42,35.74 113.63,34.49 113.84,33.75 114.05,33.14 114.26,32.53 114.46,31.74 114.67,31.06 114.88,30.41 115.09,29.75 115.30,29.43 115.51,28.83 115.71,28.29 115.92,27.92 116.13,27.75 116.34,27.71 116.55,27.51 116.76,27.27 116.97,26.92 117.17,26.56 117.38,26.17 117.59,25.89 117.80,25.73 118.01,25.60 118.22,25.50 118.42,25.51 118.63,25.70 118.84,25.72 119.05,25.82 119.26,25.80 119.47,25.58 119.67,25.63 119.88,24.82 120.09,24.04 120.30,23.22 120.51,22.11 120.72,21.42 120.93,20.37 121.13,19.95 121.34,19.25 121.55,18.59 121.76,18.28 121.97,17.75 122.18,17.41 122.38,16.82 122.59,16.37 122.80,15.74 123.01,15.38 123.22,15.00 123.43,14.83 123.63,14.74 123.84,14.81 124.05,15.03 124.26,15.22 124.47,15.61 124.68,16.01 124.89,16.53 125.09,16.84 125.30,17.25 125.51,17.44 125.72,17.17 125.93,16.82 126.14,16.47 126.34,16.01 126.55,15.64 126.76,15.45 126.97,15.21 127.18,15.07 127.39,15.09 127.59,15.15 127.80,15.27 128.01,15.77 128.22,16.20 128.43,16.68 128.64,17.03 128.85,17.50 129.05,17.88 129.26,17.74 129.47,17.43 129.68,17.04 129.89,16.59 130.10,16.05 130.30,15.88 130.51,15.93 130.72,16.10 130.93,16.14 131.14,16.54 131.35,16.64 131.55,16.54 131.76,15.62 131.97,16.97 132.18,16.78 132.39,17.39 132.60,16.81 132.81,16.74 133.01,16.04 133.22,15.42 133.43,15.00 133.64,14.26 133.85,13.46 134.06,12.68 134.26,12.03 134.47,10.91 134.68,10.05 134.89,9.36 135.10,8.51 135.31,8.07 135.51,7.84 135.72,7.42 135.93,7.09 136.14,6.77 136.35,6.34 136.56,6.05 136.77,5.77 136.97,5.56 137.18,5.44 137.39,5.40 137.60,5.56 137.81,5.70 138.02,5.93 138.22,6.59 138.43,7.51 138.64,8.05 138.85,8.13 139.06,8.95 139.27,9.55 139.47,10.50 139.68,11.58 139.89,12.20 140.10,13.46 140.31,14.52 140.52,14.42 140.73,14.84 140.93,16.06 141.14,16.28 141.35,16.85 141.56,17.55 141.77,18.02 141.98,18.72 142.18,19.50 142.39,20.30 142.60,20.65 142.81,21.34 143.02,22.26 143.23,23.06 143.43,23.74 143.64,24.32 143.85,25.04 144.06,25.77 144.27,26.52 144.48,27.06 144.69,27.59 144.89,28.09 145.10,28.44 145.31,28.86 145.52,29.24 145.73,29.53 145.94,30.15 146.14,30.87 146.35,32.15 146.56,32.78 146.77,33.52 146.98,33.89 147.19,34.27 147.39,34.55 147.60,33.49 147.81,32.93 148.02,32.30 148.23,31.52 148.44,30.72 148.65,29.97 148.85,29.38 149.06,29.19 149.27,28.96 149.48,28.93 149.69,28.84 149.90,28.75 150.10,28.87 150.31,34.95 150.52,34.67 150.73,34.46 150.94,34.46 151.15,34.47 151.35,34.61 151.56,34.18 151.77,34.06 151.98,33.80 152.19,33.50 152.40,33.33 152.61,33.33 152.81,33.36 153.02,33.43 153.23,33.82 153.44,33.24 153.65,32.69 153.86,31.70 154.06,31.91 154.27,30.85 154.48,31.65 154.69,31.07 154.90,31.31 155.11,32.29 155.31,32.22 155.52,33.17 155.73,33.40 155.94,34.46 156.15,34.84 156.36,35.55 156.57,36.18 156.77,35.97 156.98,36.17 157.19,36.28 157.40,36.66 157.61,36.71 157.82,38.29 158.02,38.29 158.23,39.26 158.44,40.24 158.65,39.99 158.86,41.92 159.07,41.00 159.27,43.37 159.48,43.37 159.69,42.45 159.90,43.35 160.11,45.02 160.32,45.66 160.53,46.44 160.73,46.44 160.94,45.82 161.15,45.99 161.36,46.65 161.57,47.69 161.78,46.32 161.98,47.59 162.19,48.77 162.40,48.06 162.61,50.19 162.82,50.82 163.03,51.64 163.23,51.83 163.44,53.20 163.65,53.37 163.86,55.58 164.07,54.45 164.28,53.96 164.49,53.01 164.69,52.26 164.90,51.74 165.11,51.32 165.32,49.68 165.53,49.68 165.74,48.18 165.94,48.58 166.15,48.88 166.36,48.20 166.57,47.49 166.78,48.53 166.99,47.93 167.19,46.98 167.40,45.41 167.61,45.69 167.82,43.81 168.03,44.21 168.24,43.16 168.45,44.90 168.65,45.03 168.86,44.47 169.07,42.81 169.28,42.79 169.49,41.23 169.70,40.93 169.90,40.93 170.11,40.64 170.32,41.08 170.53,41.01 170.74,41.85 170.95,42.56 171.15,44.44 171.36,45.17 171.57,45.64 171.78,46.02 171.99,46.54 172.20,46.94 172.41,47.58 172.61,48.97 172.82,49.63 173.03,49.98 173.24,50.53 173.45,49.86 173.66,49.32 173.86,48.72 174.07,48.23 174.28,48.32 174.49,49.58 174.70,48.52 174.91,47.78 175.11,50.28 175.32,49.71 175.53,48.82 175.74,48.63 175.95,48.83 176.16,49.02 176.37,49.04 176.57,48.88 176.78,48.34 176.99,48.65 177.20,48.95 177.41,47.89 177.62,48.60 177.82,48.79 178.03,48.81 178.24,49.67 178.45,49.67 178.66,50.59 178.87,50.98 179.07,50.96 179.28,49.88 179.49,49.17 179.70,48.04 179.91,46.77 180.12,45.29 180.33,47.55 180.53,47.54 180.74,45.50 180.95,46.57 181.16,44.98 181.37,46.48 181.58,44.08 181.78,43.63 181.99,43.53 182.20,43.53 182.41,43.20 182.62,42.17 182.83,41.79 183.03,41.79 183.24,40.56 183.45,39.64 183.66,39.15 183.87,39.01 184.08,38.68 184.29,40.18 184.49,38.60 184.70,39.29 184.91,36.95 185.12,37.57 185.33,37.46 185.54,37.41 185.74,36.80 185.95,39.49 186.16,38.96 186.37,37.60 186.58,36.07 186.79,35.27 187.00,34.93 187.20,34.25 187.41,32.63 187.62,30.62 187.83,29.37 188.04,29.47 188.25,29.23 188.45,28.84 188.66,27.66 188.87,27.42 189.08,27.77 189.29,27.89 189.50,29.33 189.70,28.09 189.91,26.51 190.12,26.92 190.33,26.25 190.54,25.67 190.75,26.23 190.96,25.54 191.16,25.71 191.37,25.83 191.58,25.84 191.79,25.83 192.00,26.23 192.21,26.47 192.41,25.83 192.62,25.41 192.83,25.08 193.04,23.59 193.25,22.67 193.46,21.85 193.66,21.11 193.87,19.84 194.08,19.41 194.29,18.99 194.50,18.57 194.71,18.00 194.92,17.83 195.12,17.83 195.33,17.43 195.54,16.90 195.75,16.21 195.96,15.43 196.17,15.12 196.37,14.18 196.58,13.90 196.79,14.56 197.00,14.96 197.21,14.60 197.42,15.20 197.62,15.77 197.83,16.47 198.04,17.28 198.25,17.51 198.46,17.77 198.67,17.34 198.88,17.28 199.08,16.73 199.29,16.17 199.50,15.62 199.71,15.62 199.92,15.03 200.13,14.54 200.33,14.96 200.54,15.05 200.75,15.24 200.96,16.02 201.17,16.08 201.38,16.01 201.58,16.93 201.79,17.17 202.00,18.66 202.21,18.20 202.42,18.07 202.63,17.42 202.84,17.42 203.04,16.93 203.25,15.99 203.46,14.62 203.67,15.62 203.88,15.61 204.09,15.59 204.29,15.59 204.50,15.73 204.71,13.13 204.92,15.89 205.13,16.27 205.34,16.71 205.54,17.11 205.75,16.05 205.96,16.43 206.17,14.50 206.38,14.50 206.59,13.51 206.80,13.60 207.00,12.19 207.21,12.17 207.42,11.58 207.63,11.49 207.84,10.17 208.05,9.08 208.25,8.59 208.46,8.28 208.67,8.43 208.88,7.08 209.09,6.09 209.30,6.09 209.50,4.96 209.71,5.91 209.92,5.32 210.13,5.97 210.34,4.76 210.55,4.73 210.76,5.06 210.96,6.08 211.17,7.49 211.38,7.49 211.59,6.72 211.80,7.92 212.01,7.20 212.21,9.09 212.42,10.48 212.63,9.23 212.84,10.62 213.05,12.91 213.26,13.03 213.46,15.20 213.67,13.10 213.88,13.90 214.09,16.38 214.30,16.14 214.51,17.58 214.72,17.06 214.92,18.60 215.13,20.06 215.34,20.03 215.55,20.03 215.76,20.74 215.97,21.62 216.17,22.45 216.38,24.53 216.59,24.32 216.80,24.10 217.01,26.06 217.22,26.32 217.42,26.86 217.63,27.71 217.84,28.82 218.05,26.23 218.26,27.60 218.47,28.78 218.68,28.83 218.88,30.10 219.09,30.12 219.30,30.61 219.51,31.50 219.72,32.70 219.93,34.00 220.13,34.54 220.34,34.54 220.55,33.83 220.76,32.13 220.97,32.23 221.18,31.61 221.38,30.55 221.59,29.58 221.80,29.26 222.01,29.63 222.22,28.74 222.43,28.20 222.64,28.53 222.84,28.71 223.05,28.91 223.26,35.63 223.47,33.81 223.68,33.81 223.89,33.81 224.09,35.51 224.30,33.85 224.51,33.85 224.72,33.96 224.93,33.96 225.14,33.96 225.34,33.96 225.55,34.29 225.76,34.29 225.97,34.29 226.18,33.79 226.39,33.79 226.60,33.79 226.80,29.77 227.01,29.77 227.22,31.25 227.43,31.25 227.64,31.25 227.85,33.28 228.05,33.28 228.26,33.28 228.47,33.28 228.68,34.25 228.89,36.67 229.10,36.67 229.30,36.34 229.51,36.34 229.72,36.34 229.93,36.74 230.14,37.28 230.35,37.28 230.56,37.28 230.76,41.09 230.97,38.23 231.18,38.23 231.39,38.23 231.60,45.05 231.81,45.05 232.01,45.05 232.22,43.94 232.43,43.94 232.64,46.13 232.85,46.13 233.06,46.13 233.26,52.33 233.47,50.21 233.68,50.21 233.89,50.21 234.10,50.21 234.31,50.17 234.52,50.17 234.72,50.17 234.93,53.00 235.14,53.00 235.35,44.49 235.56,50.20 235.77,50.20 235.97,50.20 236.18,52.82 236.39,52.82 236.60,52.82 236.81,56.00 237.02,56.00 237.22,55.22 237.43,55.22 237.64,55.22 237.85,52.34 238.06,52.34 238.27,46.73 238.48,46.73 238.68,46.73 238.89,50.98 239.10,50.98 239.31,48.66 239.52,48.66 239.73,48.66 239.93,45.97 240.14,45.97 240.35,40.53 240.56,45.27 240.77,45.27 240.98,45.27 241.18,41.64 241.39,44.28 241.60,44.28 241.81,39.44 242.02,39.44 242.23,39.44 242.44,39.44 242.64,39.06 242.85,39.06 243.06,40.71 243.27,40.71 243.48,41.02 243.69,41.02 243.89,44.46 244.10,44.46 244.31,44.46 244.52,46.28 244.73,46.28 244.94,46.28 245.14,43.23 245.35,47.39 245.56,47.39 245.77,47.39 245.98,49.70 246.19,49.70 246.40,49.70 246.60,48.59 246.81,48.59 247.02,48.59 247.23,54.11 247.44,54.11 247.65,51.30 247.85,51.30 248.06,49.07 248.27,49.07 248.48,49.07 248.69,49.17 248.90,49.17 249.10,49.17 249.31,48.98 249.52,48.98 249.73,45.96 249.94,49.50 250.15,49.50 250.36,44.90 250.56,44.90 250.77,48.13 250.98,48.13 251.19,48.13 251.40,50.95 251.61,50.95 251.81,50.17 252.02,49.65 252.23,48.50 252.44,48.50 252.65,48.50 252.86,45.19 253.06,45.19 253.27,45.19 253.48,41.94 253.69,41.94 253.90,43.59 254.11,43.59 254.32,43.59 254.52,37.02 254.73,41.14 254.94,41.14 255.15,41.14 255.36,35.34 255.57,40.01 255.77,40.01 255.98,40.01 256.19,35.84 256.40,35.84 256.61,35.84 256.82,33.74 257.02,33.74 257.23,33.74 257.44,32.99 257.65,36.48 257.86,36.48 258.07,36.48 258.28,38.52 258.48,44.99 258.69,44.99 258.90,44.99 259.11,41.29 259.32,41.29 259.53,41.29 259.73,38.21 259.94,38.21 260.15,31.45 260.36,31.45 260.57,31.45 260.78,25.84 260.99,27.63 261.19,27.63 261.40,27.63 261.61,27.84 261.82,27.84 262.03,30.15 262.24,30.15 262.44,30.15 262.65,34.02 262.86,27.91 263.07,27.91 263.28,27.91 263.49,31.81 263.69,31.81 263.90,26.07 264.11,26.87 264.32,26.87 264.53,26.87 264.74,27.92 264.95,29.21 265.15,29.21 265.36,26.05 265.57,26.05 265.78,26.05 265.99,22.79 266.20,22.79 266.40,22.79 266.61,20.80 266.82,20.80 267.03,19.68 267.24,19.68 267.45,19.68 267.65,19.81 267.86,19.81 268.07,18.43 268.28,18.43 268.49,18.43 268.70,14.18 268.91,14.18 269.11,14.18 269.32,12.11 269.53,13.13 269.74,13.13 269.95,13.13 270.16,14.69 270.36,14.69 270.57,14.69 270.78,17.11 270.99,19.10 271.20,19.10 271.41,19.12 271.61,19.12 271.82,19.12 272.03,19.12 272.24,16.51 272.45,16.51 272.66,16.51 272.87,16.51 273.07,14.74 273.28,14.74 273.49,14.74 273.70,15.96 273.91,15.96 274.12,15.96 274.32,16.13 274.53,19.20 274.74,19.20 274.95,19.20 275.16,18.92 275.37,18.92 275.57,22.22 275.78,22.22 275.99,18.61 276.20,18.61 276.41,18.61 276.62,18.25 276.83,13.92 277.03,13.92 277.24,13.92 277.45,19.55 277.66,13.68 277.87,13.68 278.08,13.68 278.28,20.00 278.49,20.00 278.70,20.00 278.91,19.29 279.12,19.29 279.33,19.29 279.53,19.29 279.74,15.42 279.95,15.42 280.16,15.42 280.37,10.76 280.58,10.76 280.79,9.20 280.99,9.20 281.20,9.20 281.41,10.33 281.62,10.33 281.83,10.33 282.04,10.33 282.24,10.33 282.45,6.88 282.66,6.88 282.87,6.88 283.08,9.54 283.29,4.00 283.49,4.00 283.70,5.74 283.91,5.74 284.12,5.74 284.33,5.74 284.54,4.02 284.75,4.02 284.95,4.02 285.16,8.22 285.37,8.22 285.58,5.29 285.79,5.29 286.00,10.72 286.20,10.72 286.41,10.72 286.62,6.47 286.83,11.45 287.04,11.45 287.25,11.45 287.45,17.86 287.66,11.73 287.87,11.73 288.08,16.74 288.29,16.74 288.50,16.74 288.71,16.74 288.91,16.85 289.12,16.85 289.33,22.46 289.54,24.38 289.75,24.38 289.96,24.38 290.16,24.00 290.37,24.00 290.58,24.00 290.79,26.47 291.00,26.47 291.21,26.47 291.41,26.47 291.62,28.52 291.83,28.52 292.04,28.52 292.25,32.98 292.46,32.98 292.67,32.98 292.87,38.31 293.08,38.31 293.29,38.31 293.50,31.61 293.71,31.61 293.92,31.61 294.12,29.70 294.33,29.70 294.54,29.70 294.75,28.53 294.96,28.53 295.17,28.53 295.37,28.94 295.58,28.94 295.79,34.24 296.00,34.24" />
</svg>