<svg width="300" height="60" xmlns="http://www.w3.org/2000/svg">
  <polyline fill="rgba(255,200,0,0.3)" stroke="#ffbb00" stroke-width="2" points="4.00,28.05 4.12,28.03 4.24,28.18 4.36,28.38 4.47,28.47 4.59,28.37 4.71,28.40 4.83,28.47 4.95,28.56 5.07,28.60 5.19,28.71 5.31,28.60 5.42,28.35 5.54,28.12 5.66,28.00 5.78,28.13 5.90,28.29 6.02,28.49 6.14,28.80 6.26,29.02 6.37,29.27 6.49,29.50 6.61,29.57 6.73,30.21 6.85,30.49 6.97,30.82 7.09,30.79 7.20,30.46 7.32,30.06 7.44,29.91 7.56,29.84 7.68,29.91 7.80,30.04 7.92,30.38 8.04,30.44 8.15,30.42 8.27,30.07 8.39,30.21 8.51,30.33 8.63,30.58 8.75,30.73 8.87,31.10 8.99,31.14 9.10,31.01 9.22,30.80 9.34,30.63 9.46,30.83 9.58,31.14 9.70,31.46 9.82,31.71 9.93,31.96 10.05,32.01 10.17,32.17 10.29,32.41 10.41,32.51 10.53,32.42 10.65,32.44 10.77,32.60 10.88,32.73 11.00,32.86 11.12,33.10 11.24,33.35 11.36,33.67 11.48,34.08 11.60,34.39 11.72,34.70 11.83,34.82 11.95,35.08 12.07,35.34 12.19,35.72 12.31,35.87 12.43,36.31 12.55,36.68 12.67,36.75 12.78,37.19 12.90,37.38 13.02,37.37 13.14,37.58 13.26,37.93 13.38,38.12 13.50,38.28 13.61,38.53 13.73,38.98 13.85,39.72 13.97,40.05 14.09,40.29 14.21,40.56 14.33,41.00 14.45,41.03 14.56,41.18 14.68,41.19 14.80,41.46 14.92,41.60 15.04,42.00 15.16,42.44 15.28,42.07 15.40,42.10 15.51,42.51 15.63,42.62 15.75,42.99 15.87,43.22 15.99,43.33 16.11,43.12 16.23,43.41 16.34,43.89 16.46,44.30 16.58,44.60 16.70,45.02 16.82,45.64 16.94,45.99 17.06,45.83 17.18,45.85 17.29,45.85 17.41,46.09 17.53,46.23 17.65,46.47 17.77,47.07 17.89,47.21 18.01,47.46 18.13,47.47 18.24,47.87 18.36,47.91 18.48,48.24 18.60,47.93 18.72,47.94 18.84,48.40 18.96,48.73 19.07,48.85 19.19,49.10 19.31,49.22 19.43,49.30 19.55,49.70 19.67,50.40 19.79,50.62 19.91,50.73 20.02,50.55 20.14,50.54 20.26,50.84 20.38,51.21 20.50,51.58 20.62,51.87 20.74,52.03 20.86,52.24 20.97,52.19 21.09,52.29 21.21,52.50 21.33,52.78 21.45,52.52 21.57,52.30 21.69,51.94 21.80,51.75 21.92,52.04 22.04,52.51 22.16,53.11 22.28,53.42 22.40,53.84 22.52,54.32 22.64,54.49 22.75,54.92 22.87,55.21 22.99,55.34 23.11,55.31 23.23,55.52 23.35,55.82 23.47,55.93 23.59,55.14 23.70,54.59 23.82,54.19 23.94,54.67 24.06,55.37 24.18,55.75 24.30,55.87 24.42,55.91 24.53,55.93 24.65,55.90 24.77,55.66 24.89,55.34 25.01,55.11 25.13,55.55 25.25,55.73 25.37,53.92 25.48,53.43 25.60,53.03 25.72,52.63 25.84,52.31 25.96,51.95 26.08,51.68 26.20,51.80 26.32,50.92 26.43,50.09 26.55,49.74 26.67,49.53 26.79,49.36 26.91,48.87 27.03,49.00 27.15,48.95 27.27,47.59 27.38,46.99 27.50,46.96 27.62,47.71 27.74,48.14 27.86,48.44 27.98,48.50 28.10,48.81 28.21,48.64 28.33,48.61 28.45,48.16 28.57,47.78 28.69,47.46 28.81,47.94 28.93,48.11 29.05,48.53 29.16,48.80 29.28,48.79 29.40,48.83 29.52,48.44 29.64,48.30 29.76,48.59 29.88,48.92 30.00,49.03 30.11,48.61 30.23,48.85 30.35,49.64 30.47,49.08 30.59,48.47 30.71,48.38 30.83,48.84 30.94,49.88 31.06,49.42 31.18,49.21 31.30,49.34 31.42,48.91 31.54,47.81 31.66,47.78 31.78,48.30 31.89,47.59 32.01,47.28 32.13,47.39 32.25,47.56 32.37,47.73 32.49,47.61 32.61,47.49 32.73,47.55 32.84,47.31 32.96,46.92 33.08,46.43 33.20,45.18 33.32,45.61 33.44,45.69 33.56,45.67 33.67,45.54 33.79,45.21 33.91,45.08 34.03,44.28 34.15,43.85 34.27,43.55 34.39,44.07 34.51,43.92 34.62,43.70 34.74,43.79 34.86,43.47 34.98,42.99 35.10,42.64 35.22,42.02 35.34,41.39 35.46,41.01 35.57,40.35 35.69,40.18 35.81,40.12 35.93,39.63 36.05,39.27 36.17,38.86 36.29,38.46 36.40,38.17 36.52,37.86 36.64,37.32 36.76,37.38 36.88,37.82 37.00,37.92 37.12,38.53 37.24,38.84 37.35,39.32 37.47,39.84 37.59,40.35 37.71,40.77 37.83,40.89 37.95,41.13 38.07,41.13 38.19,41.14 38.30,40.79 38.42,39.96 38.54,39.60 38.66,39.79 38.78,39.83 38.90,40.37 39.02,40.44 39.13,40.25 39.25,39.83 39.37,39.80 39.49,40.22 39.61,40.19 39.73,39.56 39.85,40.03 39.97,39.50 40.08,39.59 40.20,39.25 40.32,38.82 40.44,39.36 40.56,40.05 40.68,40.90 40.80,40.04 40.92,39.08 41.03,38.58 41.15,38.55 41.27,38.58 41.39,38.20 41.51,39.17 41.63,39.85 41.75,40.17 41.87,41.04 41.98,41.80 42.10,42.02 42.22,42.65 42.34,41.24 42.46,41.15 42.58,41.78 42.70,42.12 42.81,42.51 42.93,41.95 43.05,40.38 43.17,39.44 43.29,39.10 43.41,38.95 43.53,38.64 43.65,38.27 43.76,37.85 43.88,37.62 44.00,37.21 44.12,36.78 44.24,36.30 44.36,35.91 44.48,35.60 44.60,35.30 44.71,35.36 44.83,35.15 44.95,35.01 45.07,34.64 45.19,34.27 45.31,34.00 45.43,33.49 45.54,32.95 45.66,32.65 45.78,32.49 45.90,32.30 46.02,32.20 46.14,32.06 46.26,31.78 46.38,31.68 46.49,31.68 46.61,31.84 46.73,31.87 46.85,31.99 46.97,32.09 47.09,31.83 47.21,31.66 47.33,31.77 47.44,31.12 47.56,31.53 47.68,31.55 47.80,31.71 47.92,32.01 48.04,32.09 48.16,32.30 48.27,32.25 48.39,32.66 48.51,32.93 48.63,33.14 48.75,33.33 48.87,33.29 48.99,33.27 49.11,33.39 49.22,33.61 49.34,33.83 49.46,33.84 49.58,34.02 49.70,34.40 49.82,34.86 49.94,35.21 50.06,34.98 50.17,34.29 50.29,34.28 50.41,34.62 50.53,35.17 50.65,36.40 50.77,35.96 50.89,35.53 51.00,35.35 51.12,34.55 51.24,33.90 51.36,34.26 51.48,33.82 51.60,33.41 51.72,33.55 51.84,33.86 51.95,34.26 52.07,35.13 52.19,34.50 52.31,34.26 52.43,34.03 52.55,33.81 52.67,33.62 52.79,33.27 52.90,32.76 53.02,32.53 53.14,32.27 53.26,31.94 53.38,31.71 53.50,31.46 53.62,31.27 53.73,30.88 53.85,30.56 53.97,30.26 54.09,29.86 54.21,29.65 54.33,29.70 54.45,29.76 54.57,29.73 54.68,29.72 54.80,29.68 54.92,29.77 55.04,29.99 55.16,30.25 55.28,29.90 55.40,29.96 55.52,30.24 55.63,30.32 55.75,30.18 55.87,30.16 55.99,29.91 56.11,30.43 56.23,30.65 56.35,30.87 56.47,31.04 56.58,31.12 56.70,30.80 56.82,30.69 56.94,30.60 57.06,30.50 57.18,29.93 57.30,29.55 57.41,29.02 57.53,28.44 57.65,27.88 57.77,27.69 57.89,27.63 58.01,27.42 58.13,27.06 58.25,26.98 58.36,26.81 58.48,26.70 58.60,26.87 58.72,28.10 58.84,27.75 58.96,27.23 59.08,27.53 59.20,27.57 59.31,27.53 59.43,27.44 59.55,27.27 59.67,26.94 59.79,26.57 59.91,26.29 60.03,25.85 60.14,25.44 60.26,25.43 60.38,24.45 60.50,23.98 60.62,23.52 60.74,22.84 60.86,23.17 60.98,22.20 61.09,21.08 61.21,20.61 61.33,19.92 61.45,19.18 61.57,18.94 61.69,18.13 61.81,17.72 61.93,17.41 62.04,17.21 62.16,17.04 62.28,17.23 62.40,17.21 62.52,17.66 62.64,17.65 62.76,17.88 62.87,16.90 62.99,16.35 63.11,15.47 63.23,15.50 63.35,15.03 63.47,14.55 63.59,14.18 63.71,13.78 63.82,13.12 63.94,12.76 64.06,12.53 64.18,12.51 64.30,12.61 64.42,12.52 64.54,12.39 64.66,12.22 64.77,11.91 64.89,11.61 65.01,11.61 65.13,11.86 65.25,11.90 65.37,11.72 65.49,11.70 65.60,11.67 65.72,11.72 65.84,11.80 65.96,11.92 66.08,12.10 66.20,12.23 66.32,11.84 66.44,11.81 66.55,11.53 66.67,11.48 66.79,11.64 66.91,11.94 67.03,12.04 67.15,12.50 67.27,13.02 67.39,13.01 67.50,12.63 67.62,12.23 67.74,11.65 67.86,11.41 67.98,11.07 68.10,10.72 68.22,10.59 68.33,10.16 68.45,10.15 68.57,10.00 68.69,10.17 68.81,9.87 68.93,9.63 69.05,9.73 69.17,8.79 69.28,9.22 69.40,9.63 69.52,10.11 69.64,9.84 69.76,9.82 69.88,10.11 70.00,10.29 70.12,9.87 70.23,9.63 70.35,9.19 70.47,8.97 70.59,9.03 70.71,9.20 70.83,9.29 70.95,9.27 71.07,9.16 71.18,9.08 71.30,8.73 71.42,8.10 71.54,7.56 71.66,7.31 71.78,7.25 71.90,6.87 72.01,6.41 72.13,5.63 72.25,5.16 72.37,4.92 72.49,5.57 72.61,6.79 72.73,6.45 72.85,5.36 72.96,5.38 73.08,5.97 73.20,6.62 73.32,6.76 73.44,6.69 73.56,7.27 73.68,7.14 73.80,6.61 73.91,6.40 74.03,6.29 74.15,6.27 74.27,6.34 74.39,6.39 74.51,6.56 74.63,6.47 74.74,6.40 74.86,6.36 74.98,6.61 75.10,6.64 75.22,6.64 75.34,6.60 75.46,6.60 75.58,6.47 75.69,5.86 75.81,5.52 75.93,5.53 76.05,5.90 76.17,6.57 76.29,6.80 76.41,6.36 76.53,5.64 76.64,5.42 76.76,5.06 76.88,4.56 77.00,32.26 77.12,32.48 77.24,32.79 77.36,33.16 77.47,33.24 77.59,33.23 77.71,33.26 77.83,33.31 77.95,33.58 78.07,33.85 78.19,33.83 78.31,33.81 78.42,34.36 78.54,34.77 78.66,35.20 78.78,34.96 78.90,34.33 79.02,34.29 79.14,34.76 79.26,35.61 79.37,36.36 79.49,36.08 79.61,35.57 79.73,35.29 79.85,34.66 79.97,33.58 80.09,34.28 80.20,33.93 80.32,33.41 80.44,33.52 80.56,33.75 80.68,34.30 80.80,34.96 80.92,34.53 81.04,34.22 81.15,33.96 81.27,33.76 81.39,33.59 81.51,33.24 81.63,32.71 81.75,32.50 81.87,32.29 81.99,31.93 82.10,31.65 82.22,31.40 82.34,31.25 82.46,30.85 82.58,30.47 82.70,30.19 82.82,29.83 82.93,29.59 83.05,29.63 83.17,29.71 83.29,29.69 83.41,29.69 83.53,29.84 83.65,29.65 83.77,29.90 83.88,29.88 84.00,30.08 84.12,30.01 84.24,30.40 84.36,30.22 84.48,30.17 84.60,30.14 84.72,30.00 84.83,30.38 84.95,30.57 85.07,31.27 85.19,30.90 85.31,30.83 85.43,30.72 85.55,30.60 85.67,30.55 85.78,30.26 85.90,29.95 86.02,29.32 86.14,28.91 86.26,28.42 86.38,27.64 86.50,27.67 86.61,27.47 86.73,27.17 86.85,27.01 86.97,26.92 87.09,26.75 87.21,26.74 87.33,27.20 87.45,28.38 87.56,27.41 87.68,27.24 87.80,27.52 87.92,27.57 88.04,27.44 88.16,27.39 88.28,27.25 88.40,26.86 88.51,26.52 88.63,26.22 88.75,25.69 88.87,25.31 88.99,24.86 89.11,24.43 89.23,23.71 89.34,23.12 89.46,22.84 89.58,22.72 89.70,21.96 89.82,21.01 89.94,20.67 90.06,19.82 90.18,19.13 90.29,18.95 90.41,18.05 90.53,17.68 90.65,17.23 90.77,17.18 90.89,16.78 91.01,16.92 91.13,17.02 91.24,17.28 91.36,17.66 91.48,17.21 91.60,16.87 91.72,16.26 91.84,15.20 91.96,15.46 92.07,15.12 92.19,14.44 92.31,14.19 92.43,13.60 92.55,13.17 92.67,12.77 92.79,12.49 92.91,12.45 93.02,12.52 93.14,12.51 93.26,12.34 93.38,12.13 93.50,11.86 93.62,11.53 93.74,11.53 93.86,11.87 93.97,11.84 94.09,11.70 94.21,11.68 94.33,11.62 94.45,11.58 94.57,11.78 94.69,11.85 94.80,11.84 94.92,12.17 95.04,11.49 95.16,11.67 95.28,11.43 95.40,11.44 95.52,11.68 95.64,11.90 95.75,12.00 95.87,12.51 95.99,13.03 96.11,12.97 96.23,12.61 96.35,12.25 96.47,11.33 96.59,11.47 96.70,11.02 96.82,10.63 96.94,10.48 97.06,10.15 97.18,9.79 97.30,9.86 97.42,10.11 97.53,9.73 97.65,9.45 97.77,9.69 97.89,8.74 98.01,8.84 98.13,9.61 98.25,9.96 98.37,9.66 98.48,9.66 98.60,10.12 98.72,10.29 98.84,9.87 98.96,9.69 99.08,9.24 99.20,8.91 99.32,9.03 99.43,9.11 99.55,9.32 99.67,9.30 99.79,9.21 99.91,9.14 100.03,8.82 100.15,8.43 100.27,7.92 100.38,7.19 100.50,7.26 100.62,7.11 100.74,6.86 100.86,5.46 100.98,4.00 101.10,4.89 101.21,5.71 101.33,6.55 101.45,6.30 101.57,5.82 101.69,5.24 101.81,5.80 101.93,6.63 102.05,6.79 102.16,7.05 102.28,7.30 102.40,7.27 102.52,6.51 102.64,6.34 102.76,6.35 102.88,6.43 103.00,6.26 103.11,6.35 103.23,6.58 103.35,6.29 103.47,6.58 103.59,6.60 103.71,6.60 103.83,6.60 103.94,6.59 104.06,6.56 104.18,6.57 104.30,6.45 104.42,5.67 104.54,5.42 104.66,5.36 104.78,6.08 104.89,6.53 105.01,6.70 105.13,6.44 105.25,5.72 105.37,5.40 105.49,4.82 105.61,4.27 105.73,28.06 105.84,28.04 105.96,28.16 106.08,28.43 106.20,28.44 106.32,28.31 106.44,28.40 106.56,28.46 106.67,28.56 106.79,28.60 106.91,28.69 107.03,28.57 107.15,28.35 107.27,28.06 107.39,28.06 107.51,28.12 107.62,28.29 107.74,28.56 107.86,28.80 107.98,29.00 108.10,29.21 108.22,29.50 108.34,29.62 108.46,30.10 108.57,30.56 108.69,30.75 108.81,30.77 108.93,30.49 109.05,29.87 109.17,29.90 109.29,29.86 109.40,29.85 109.52,30.03 109.64,30.39 109.76,30.41 109.88,30.41 110.00,30.29 110.12,30.22 110.24,30.30 110.35,30.40 110.47,31.01 110.59,31.22 110.71,31.14 110.83,31.03 110.95,30.79 111.07,30.68 111.19,30.83 111.30,31.16 111.42,31.37 111.54,31.70 111.66,31.91 111.78,31.89 111.90,31.93 112.02,32.20 112.13,32.47 112.25,32.35 112.37,32.44 112.49,32.56 112.61,32.71 112.73,32.84 112.85,33.06 112.97,33.37 113.08,33.61 113.20,34.07 113.32,34.30 113.44,34.71 113.56,34.80 113.68,35.05 113.80,35.31 113.92,35.73 114.03,35.85 114.15,36.23 114.27,36.65 114.39,36.80 114.51,37.04 114.63,37.35 114.75,37.37 114.87,37.60 114.98,37.88 115.10,38.17 115.22,38.23 115.34,38.53 115.46,38.89 115.58,39.72 115.70,40.27 115.81,40.30 115.93,40.51 116.05,40.92 116.17,41.05 116.29,41.24 116.41,41.45 116.53,41.43 116.65,42.06 116.76,42.34 116.88,42.09 117.00,41.89 117.12,42.50 117.24,42.54 117.36,43.06 117.48,43.35 117.60,43.31 117.71,42.99 117.83,43.35 117.95,43.88 118.07,44.30 118.19,44.61 118.31,44.94 118.43,45.52 118.54,45.92 118.66,45.85 118.78,45.94 118.90,45.80 119.02,46.05 119.14,46.17 119.26,46.46 119.38,46.98 119.49,47.10 119.61,47.18 119.73,47.62 119.85,47.69 119.97,47.84 120.09,47.96 120.21,47.87 120.33,47.96 120.44,48.43 120.56,48.51 120.68,48.88 120.80,48.98 120.92,49.17 121.04,49.24 121.16,49.64 121.27,50.30 121.39,50.47 121.51,50.57 121.63,50.52 121.75,50.21 121.87,50.66 121.99,51.11 122.11,51.55 122.22,51.77 122.34,52.02 122.46,52.25 122.58,52.13 122.70,52.28 122.82,52.42 122.94,52.72 123.06,52.52 123.17,52.26 123.29,51.72 123.41,51.67 123.53,52.08 123.65,52.48 123.77,52.81 123.89,53.33 124.00,53.85 124.12,54.34 124.24,54.49 124.36,54.79 124.48,55.10 124.60,55.03 124.72,55.30 124.84,55.38 124.95,55.87 125.07,55.98 125.19,55.08 125.31,54.75 125.43,54.03 125.55,54.81 125.67,55.29 125.79,55.71 125.90,55.84 126.02,55.85 126.14,55.95 126.26,55.85 126.38,55.63 126.50,55.32 126.62,55.08 126.73,55.51 126.85,55.83 126.97,53.86 127.09,53.37 127.21,53.03 127.33,52.60 127.45,52.30 127.57,51.87 127.68,51.65 127.80,51.93 127.92,50.91 128.04,50.01 128.16,49.88 128.28,49.33 128.40,49.27 128.52,48.81 128.63,49.01 128.75,48.63 128.87,47.55 128.99,46.92 129.11,46.92 129.23,48.01 129.35,48.02 129.47,48.35 129.58,48.34 129.70,48.97 129.82,48.63 129.94,48.48 130.06,48.11 130.18,47.80 130.30,47.39 130.41,47.91 130.53,48.08 130.65,48.60 130.77,48.72 130.89,48.88 131.01,48.93 131.13,48.37 131.25,48.13 131.36,48.60 131.48,49.29 131.60,49.34 131.72,48.63 131.84,49.09 131.96,49.65 132.08,48.68 132.20,48.42 132.31,48.40 132.43,48.97 132.55,49.61 132.67,49.49 132.79,49.07 132.91,48.58 133.03,48.46 133.14,47.58 133.26,48.05 133.38,48.33 133.50,47.78 133.62,47.24 133.74,47.36 133.86,47.52 133.98,47.69 134.09,47.59 134.21,47.55 134.33,47.93 134.45,47.27 134.57,46.81 134.69,46.46 134.81,45.33 134.93,45.79 135.04,45.82 135.16,45.72 135.28,45.50 135.40,44.75 135.52,45.01 135.64,44.42 135.76,43.81 135.87,42.17 135.99,44.08 136.11,43.75 136.23,43.83 136.35,43.73 136.47,43.42 136.59,43.01 136.71,42.44 136.82,42.07 136.94,41.47 137.06,41.03 137.18,40.62 137.30,39.93 137.42,39.96 137.54,39.66 137.66,39.00 137.77,38.75 137.89,38.44 138.01,38.10 138.13,37.93 138.25,37.42 138.37,37.09 138.49,37.64 138.60,37.69 138.72,38.48 138.84,38.72 138.96,39.29 139.08,39.64 139.20,40.28 139.32,41.01 139.44,40.85 139.55,40.85 139.67,41.02 139.79,41.04 139.91,40.54 140.03,40.00 140.15,39.55 140.27,39.51 140.39,39.96 140.50,40.18 140.62,40.36 140.74,40.23 140.86,39.80 140.98,39.90 141.10,40.05 141.22,39.92 141.33,39.17 141.45,39.44 141.57,39.80 141.69,39.66 141.81,39.43 141.93,39.15 142.05,39.05 142.17,40.40 142.28,40.90 142.40,40.38 142.52,39.20 142.64,38.45 142.76,38.16 142.88,38.16 143.00,37.54 143.12,39.51 143.23,40.16 143.35,39.10 143.47,39.37 143.59,41.66 143.71,41.99 143.83,41.99 143.95,41.28 144.07,41.08 144.18,41.75 144.30,42.54 144.42,42.27 144.54,41.42 144.66,40.78 144.78,39.52 144.90,39.07 145.01,38.96 145.13,38.65 145.25,38.15 145.37,37.83 145.49,37.62 145.61,37.26 145.73,36.66 145.85,36.31 145.96,35.63 146.08,35.38 146.20,35.46 146.32,35.24 146.44,35.10 146.56,35.02 146.68,34.63 146.80,34.18 146.91,33.90 147.03,33.33 147.15,32.83 147.27,32.57 147.39,32.41 147.51,32.13 147.63,32.20 147.74,32.01 147.86,31.63 147.98,31.52 148.10,31.66 148.22,31.78 148.34,31.83 148.46,31.94 148.58,32.08 148.69,31.78 148.81,31.63 148.93,31.76 149.05,31.16 149.17,31.50 149.29,31.52 149.41,31.70 149.53,32.02 149.64,32.10 149.76,32.23 149.88,32.26 150.00,32.48 150.12,32.79 150.24,33.15 150.36,28.09 150.47,28.02 150.59,28.00 150.71,28.03 150.83,28.00 150.95,27.60 151.07,28.77 151.19,28.72 151.31,28.78 151.42,28.82 151.54,28.78 151.66,28.97 151.78,28.34 151.90,27.96 152.02,28.27 152.14,28.22 152.26,28.35 152.37,28.29 152.49,28.84 152.61,28.98 152.73,29.21 152.85,29.43 152.97,29.87 153.09,29.87 153.20,30.45 153.32,30.87 153.44,30.58 153.56,30.58 153.68,29.64 153.80,29.94 153.92,29.64 154.04,30.06 154.15,29.93 154.27,30.54 154.39,30.54 154.51,30.44 154.63,30.21 154.75,30.21 154.87,30.41 154.99,30.15 155.10,30.77 155.22,31.07 155.34,31.02 155.46,30.65 155.58,30.77 155.70,30.43 155.82,30.95 155.93,31.21 156.05,31.78 156.17,31.55 156.29,31.96 156.41,31.53 156.53,32.00 156.65,32.22 156.77,31.66 156.88,31.89 157.00,32.57 157.12,32.62 157.24,32.57 157.36,32.97 157.48,32.99 157.60,33.41 157.72,33.88 157.83,34.29 157.95,34.14 158.07,34.73 158.19,34.61 158.31,35.19 158.43,35.31 158.55,35.57 158.67,35.48 158.78,35.99 158.90,36.34 159.02,36.63 159.14,36.63 159.26,36.98 159.38,37.46 159.50,37.19 159.61,37.92 159.73,38.31 159.85,38.06 159.97,38.84 160.09,38.90 160.21,39.88 160.33,40.70 160.45,40.15 160.56,40.51 160.68,40.98 160.80,40.72 160.92,41.31 161.04,41.33 161.16,41.56 161.28,41.42 161.40,42.09 161.51,42.21 161.63,41.81 161.75,42.44 161.87,42.09 161.99,42.88 162.11,43.27 162.23,43.39 162.34,43.11 162.46,43.56 162.58,44.10 162.70,44.62 162.82,45.22 162.94,45.22 163.06,45.76 163.18,46.16 163.29,45.69 163.41,45.97 163.53,45.68 163.65,46.03 163.77,45.81 163.89,46.38 164.01,46.79 164.13,47.22 164.24,46.95 164.36,47.63 164.48,47.33 164.60,47.89 164.72,48.00 164.84,47.92 164.96,47.92 165.07,48.05 165.19,48.70 165.31,48.81 165.43,49.24 165.55,49.06 165.67,49.34 165.79,49.83 165.91,50.49 166.02,50.49 166.14,50.78 166.26,50.41 166.38,49.81 166.50,50.70 166.62,51.30 166.74,51.29 166.86,51.53 166.97,52.03 167.09,51.99 167.21,51.83 167.33,52.53 167.45,52.49 167.57,52.94 167.69,52.65 167.80,51.98 167.92,51.79 168.04,51.81 168.16,52.38 168.28,52.38 168.40,53.17 168.52,53.66 168.64,53.60 168.75,54.27 168.87,54.32 168.99,55.03 169.11,55.08 169.23,54.41 169.35,55.06 169.47,55.24 169.59,55.66 169.70,55.97 169.82,55.04 169.94,54.95 170.06,54.15 170.18,54.57 170.30,55.09 170.42,55.59 170.53,55.43 170.65,55.75 170.77,55.89 170.89,55.98 171.01,56.00 171.13,55.31 171.25,55.20 171.37,55.25 171.48,55.25 171.60,54.00 171.72,53.38 171.84,52.97 171.96,52.70 172.08,51.23 172.20,51.35 172.32,51.53 172.43,51.39 172.55,51.37 172.67,50.52 172.79,50.29 172.91,49.34 173.03,49.15 173.15,48.73 173.27,49.21 173.38,48.43 173.50,47.39 173.62,47.45 173.74,47.48 173.86,48.35 173.98,47.76 174.10,48.84 174.21,48.80 174.33,49.16 174.45,49.23 174.57,48.89 174.69,48.08 174.81,48.16 174.93,47.99 175.05,48.58 175.16,48.50 175.28,49.53 175.40,48.73 175.52,48.90 175.64,48.96 175.76,48.20 175.88,48.25 176.00,48.99 176.11,49.49 176.23,49.49 176.35,49.15 176.47,49.30 176.59,49.36 176.71,49.84 176.83,48.31 176.94,48.88 177.06,49.81 177.18,49.19 177.30,49.60 177.42,49.95 177.54,48.59 177.66,49.38 177.78,48.68 177.89,48.30 178.01,49.29 178.13,47.95 178.25,47.87 178.37,47.64 178.49,48.10 178.61,48.41 178.73,47.69 178.84,48.88 178.96,48.39 179.08,47.41 179.20,47.41 179.32,46.47 179.44,45.57 179.56,45.31 179.67,45.66 179.79,45.90 179.91,45.67 180.03,44.87 180.15,43.98 180.27,43.91 180.39,45.08 180.51,43.45 180.62,43.25 180.74,44.29 180.86,43.09 180.98,44.18 181.10,43.54 181.22,43.18 181.34,42.20 181.46,41.37 181.57,40.90 181.69,40.87 181.81,41.00 181.93,39.21 182.05,39.39 182.17,40.20 182.29,39.29 182.40,38.64 182.52,38.97 182.64,37.85 182.76,37.59 182.88,37.53 183.00,36.92 183.12,37.75 183.24,36.91 183.35,37.42 183.47,38.05 183.59,38.68 183.71,39.30 183.83,39.99 183.95,41.16 184.07,41.20 184.19,41.56 184.30,41.89 184.42,41.77 184.54,39.81 184.66,40.02 184.78,38.55 184.90,39.21 185.02,39.50 185.13,39.52 185.25,40.97 185.37,40.11 185.49,39.50 185.61,39.48 185.73,39.89 185.85,38.75 185.97,39.41 186.08,39.96 186.20,40.13 186.32,38.68 186.44,38.88 186.56,39.24 186.68,38.47 186.80,39.75 186.92,39.91 187.03,40.61 187.15,38.92 187.27,37.64 187.39,38.60 187.51,37.57 187.63,39.10 187.75,37.48 187.87,38.93 187.98,40.38 188.10,38.31 188.22,41.27 188.34,42.37 188.46,42.92 188.58,42.26 188.70,41.53 188.81,41.25 188.93,41.42 189.05,41.79 189.17,42.11 189.29,41.49 189.41,39.00 189.53,39.08 189.65,39.43 189.76,38.12 189.88,38.06 190.00,38.06 190.12,37.58 190.24,36.27 190.36,36.22 190.48,36.17 190.60,34.45 190.71,35.78 190.83,35.41 190.95,34.13 191.07,34.21 191.19,35.67 191.31,35.09 191.43,33.23 191.54,33.52 191.66,32.19 191.78,33.11 191.90,32.62 192.02,31.56 192.14,31.61 192.26,32.72 192.38,31.35 192.49,31.18 192.61,30.74 192.73,31.76 192.85,30.75 192.97,31.31 193.09,31.64 193.21,32.00 193.33,31.55 193.44,32.06 193.56,31.97 193.68,30.64 193.80,31.64 193.92,31.96 194.04,31.80 194.16,31.71 194.27,31.94 194.39,32.46 194.51,31.46 194.63,32.03 194.75,31.63 194.87,33.05 194.99,33.28 195.11,33.17 195.22,33.21 195.34,33.21 195.46,33.39 195.58,33.03 195.70,33.84 195.82,33.91 195.94,34.29 196.06,34.29 196.17,35.09 196.29,34.54 196.41,34.88 196.53,34.73 196.65,34.14 196.77,35.35 196.89,36.14 197.00,36.14 197.12,35.09 197.24,35.39 197.36,35.09 197.48,34.08 197.60,33.91 197.72,34.47 197.84,33.90 197.95,33.01 198.07,33.92 198.19,33.90 198.31,35.31 198.43,35.62 198.55,34.10 198.67,34.16 198.79,34.37 198.90,33.77 199.02,32.98 199.14,32.52 199.26,32.35 199.38,32.35 199.50,32.45 199.62,31.90 199.73,30.89 199.85,30.41 199.97,31.07 200.09,30.48 200.21,29.94 200.33,30.22 200.45,29.74 200.57,29.32 200.68,29.86 200.80,29.96 200.92,30.03 201.04,29.21 201.16,29.74 201.28,29.74 201.40,30.21 201.52,29.59 201.63,30.08 201.75,30.84 201.87,30.13 201.99,30.68 202.11,29.91 202.23,29.66 202.35,30.43 202.47,31.06 202.58,30.78 202.70,31.53 202.82,31.10 202.94,30.70 203.06,30.70 203.18,30.50 203.30,30.15 203.41,29.04 203.53,28.60 203.65,29.39 203.77,27.97 203.89,27.46 204.01,27.42 204.13,26.29 204.25,27.55 204.36,26.56 204.48,27.04 204.60,26.68 204.72,26.56 204.84,26.86 204.96,27.57 205.08,27.86 205.20,27.30 205.31,27.56 205.43,27.70 205.55,27.19 205.67,27.00 205.79,26.93 205.91,26.84 206.03,26.79 206.14,25.98 206.26,24.83 206.38,25.28 206.50,24.15 206.62,24.64 206.74,23.27 206.86,23.85 206.98,22.51 207.09,23.16 207.21,22.26 207.33,20.97 207.45,20.53 207.57,20.10 207.69,18.70 207.81,18.68 207.93,18.56 208.04,17.45 208.16,17.51 208.28,17.74 208.40,16.80 208.52,18.02 208.64,17.01 208.76,17.58 208.87,17.92 208.99,17.32 209.11,16.84 209.23,16.17 209.35,15.36 209.47,15.15 209.59,15.15 209.71,14.75 209.82,14.23 209.94,13.60 210.06,12.89 210.18,12.63 210.30,12.50 210.42,12.57 210.54,12.21 210.66,12.47 210.77,11.86 210.89,12.01 211.01,12.17 211.13,11.19 211.25,11.55 211.37,11.70 211.49,11.85 211.60,12.08 211.72,11.39 211.84,11.59 211.96,11.79 212.08,12.00 212.20,11.13 212.32,11.33 212.44,12.57 212.55,11.35 212.67,11.71 212.79,11.14 212.91,11.47 213.03,12.08 213.15,11.92 213.27,11.94 213.39,12.85 213.50,13.03 213.62,12.72 213.74,13.02 213.86,12.25 213.98,11.13 214.10,11.14 214.22,10.82 214.33,10.82 214.45,9.79 214.57,10.03 214.69,10.45 214.81,9.56 214.93,10.10 215.05,9.21 215.17,10.03 215.28,9.01 215.40,9.55 215.52,8.42 215.64,9.04 215.76,9.70 215.88,10.04 216.00,10.12 216.12,10.17 216.23,10.17 216.35,10.20 216.47,10.15 216.59,9.14 216.71,9.21 216.83,8.57 216.95,8.95 217.07,9.14 217.18,9.42 217.30,9.85 217.42,8.58 217.54,9.26 217.66,8.39 217.78,7.74 217.90,6.32 218.01,7.50 218.13,7.50 218.25,6.79 218.37,5.86 218.49,4.73 218.61,5.42 218.73,5.12 218.85,6.21 218.96,5.68 219.08,5.46 219.20,5.73 219.32,5.91 219.44,6.74 219.56,6.59 219.68,7.33 219.80,7.86 219.91,7.52 220.03,6.95 220.15,6.77 220.27,5.94 220.39,6.32 220.51,5.82 220.63,6.26 220.74,6.68 220.86,6.21 220.98,6.68 221.10,6.47 221.22,6.37 221.34,6.90 221.46,6.99 221.58,6.62 221.69,6.57 221.81,6.40 221.93,5.95 222.05,5.55 222.17,5.14 222.29,5.96 222.41,6.81 222.53,6.81 222.64,6.52 222.76,6.00 222.88,5.41 223.00,5.02 223.12,4.62 223.24,28.31 223.36,28.31 223.47,27.19 223.59,27.19 223.71,27.19 223.83,26.18 223.95,29.38 224.07,28.84 224.19,28.84 224.31,28.84 224.42,28.49 224.54,28.49 224.66,28.49 224.78,27.29 224.90,28.30 225.02,28.30 225.14,28.30 225.26,27.53 225.37,28.76 225.49,28.76 225.61,29.30 225.73,28.23 225.85,28.23 225.97,28.23 226.09,30.36 226.20,29.50 226.32,29.50 226.44,29.50 226.56,29.62 226.68,29.62 226.80,29.62 226.92,28.85 227.04,28.85 227.15,30.82 227.27,30.51 227.39,30.51 227.51,29.67 227.63,29.67 227.75,29.67 227.87,29.67 227.99,28.69 228.10,30.31 228.22,30.31 228.34,30.31 228.46,29.63 228.58,29.63 228.70,31.36 228.82,31.36 228.93,31.36 229.05,30.55 229.17,32.22 229.29,30.55 229.41,31.10 229.53,31.10 229.65,31.10 229.77,29.74 229.88,31.61 230.00,31.61 230.12,31.61 230.24,31.61 230.36,32.97 230.48,32.97 230.60,32.97 230.72,34.66 230.83,34.66 230.95,34.07 231.07,34.07 231.19,34.07 231.31,34.34 231.43,34.34 231.55,34.34 231.67,35.65 231.78,35.65 231.90,34.31 232.02,34.31 232.14,36.00 232.26,36.00 232.38,35.70 232.50,37.85 232.61,37.85 232.73,37.85 232.85,37.18 232.97,37.18 233.09,39.97 233.21,39.97 233.33,39.43 233.45,39.43 233.56,41.81 233.68,40.81 233.80,40.81 233.92,40.81 234.04,41.07 234.16,41.07 234.28,41.07 234.40,41.49 234.51,41.49 234.63,41.49 234.75,40.25 234.87,40.25 234.99,42.14 235.11,43.31 235.23,43.31 235.34,43.31 235.46,44.61 235.58,44.61 235.70,44.61 235.82,44.61 235.94,46.20 236.06,46.20 236.18,45.06 236.29,46.09 236.41,46.09 236.53,46.09 236.65,46.09 236.77,46.57 236.89,45.59 237.01,45.59 237.13,45.59 237.24,46.69 237.36,46.69 237.48,46.69 237.60,46.69 237.72,46.77 237.84,46.77 237.96,48.33 238.07,48.33 238.19,48.33 238.31,49.58 238.43,48.61 238.55,48.61 238.67,49.95 238.79,49.95 238.91,49.95 239.02,49.95 239.14,49.95 239.26,48.60 239.38,51.10 239.50,51.10 239.62,50.67 239.74,50.67 239.86,50.67 239.97,52.05 240.09,49.52 240.21,49.52 240.33,51.46 240.45,51.46 240.57,51.46 240.69,51.29 240.80,51.29 240.92,53.01 241.04,51.94 241.16,51.94 241.28,51.94 241.40,53.02 241.52,53.02 241.64,53.02 241.75,53.16 241.87,53.16 241.99,53.16 242.11,53.16 242.23,55.08 242.35,53.87 242.47,53.87 242.59,55.05 242.70,55.05 242.82,55.05 242.94,52.53 243.06,52.53 243.18,52.53 243.30,53.97 243.42,53.97 243.53,53.97 243.65,55.41 243.77,55.41 243.89,55.41 244.01,55.05 244.13,55.05 244.25,55.05 244.37,55.05 244.48,55.28 244.60,55.28 244.72,52.34 244.84,52.34 244.96,52.34 245.08,51.17 245.20,51.17 245.32,50.77 245.43,50.77 245.55,50.77 245.67,50.77 245.79,50.98 245.91,50.98 246.03,50.98 246.15,49.64 246.27,49.64 246.38,49.64 246.50,50.46 246.62,48.61 246.74,48.61 246.86,48.61 246.98,51.33 247.10,48.80 247.21,48.80 247.33,47.97 247.45,47.97 247.57,47.97 247.69,51.54 247.81,51.54 247.93,53.36 248.05,49.67 248.16,49.67 248.28,49.67 248.40,53.13 248.52,50.29 248.64,50.29 248.76,50.29 248.88,50.03 249.00,50.03 249.11,50.03 249.23,50.03 249.35,49.32 249.47,51.57 249.59,51.57 249.71,51.57 249.83,53.08 249.94,53.08 250.06,48.91 250.18,50.27 250.30,50.27 250.42,50.27 250.54,52.33 250.66,52.33 250.78,48.41 250.89,51.75 251.01,51.75 251.13,51.75 251.25,49.80 251.37,49.80 251.49,49.80 251.61,48.54 251.73,48.54 251.84,51.01 251.96,51.01 252.08,51.01 252.20,46.59 252.32,46.59 252.44,46.59 252.56,45.58 252.67,45.58 252.79,45.58 252.91,44.58 253.03,44.58 253.15,49.34 253.27,49.34 253.39,44.65 253.51,44.65 253.62,48.30 253.74,48.30 253.86,48.30 253.98,45.66 254.10,45.66 254.22,45.66 254.34,43.08 254.46,43.08 254.57,43.08 254.69,42.68 254.81,42.68 254.93,42.68 255.05,42.68 255.17,40.58 255.29,40.58 255.40,40.58 255.52,38.84 255.64,38.84 255.76,38.84 255.88,38.84 256.00,38.06 256.12,36.26 256.24,35.10 256.35,35.10 256.47,35.10 256.59,35.62 256.71,35.62 256.83,36.73 256.95,36.73 257.07,36.73 257.19,37.28 257.30,37.28 257.42,37.28 257.54,38.18 257.66,38.18 257.78,38.18 257.90,39.44 258.02,39.44 258.13,38.92 258.25,38.92 258.37,38.92 258.49,38.05 258.61,38.05 258.73,38.98 258.85,38.98 258.97,38.98 259.08,40.16 259.20,35.04 259.32,35.04 259.44,36.50 259.56,36.50 259.68,36.50 259.80,39.43 259.92,39.43 260.03,34.42 260.15,35.96 260.27,35.96 260.39,35.96 260.51,38.98 260.63,32.88 260.75,32.88 260.87,35.36 260.98,35.36 261.10,38.96 261.22,38.96 261.34,38.96 261.46,40.02 261.58,40.02 261.70,40.02 261.81,39.18 261.93,39.18 262.05,39.70 262.17,39.70 262.29,39.70 262.41,39.47 262.53,39.47 262.65,34.46 262.76,35.28 262.88,35.28 263.00,35.28 263.12,35.28 263.24,33.31 263.36,33.31 263.48,33.31 263.60,33.31 263.71,31.25 263.83,31.25 263.95,31.25 264.07,31.92 264.19,31.92 264.31,31.92 264.43,32.11 264.54,32.11 264.66,32.11 264.78,30.49 264.90,30.49 265.02,30.49 265.14,30.49 265.26,26.62 265.38,29.73 265.49,29.73 265.61,29.73 265.73,25.75 265.85,29.72 265.97,29.72 266.09,29.72 266.21,30.96 266.33,30.96 266.44,33.66 266.56,33.66 266.68,33.66 266.80,29.84 266.92,29.84 267.04,29.84 267.16,31.70 267.27,31.70 267.39,31.70 267.51,31.70 267.63,29.01 267.75,33.11 267.87,33.11 267.99,33.11 268.11,35.15 268.22,35.15 268.34,35.15 268.46,32.22 268.58,33.64 268.70,33.64 268.82,33.64 268.94,33.64 269.06,34.70 269.17,34.70 269.29,34.70 269.41,36.59 269.53,34.34 269.65,34.34 269.77,34.34 269.89,34.34 270.00,35.01 270.12,35.01 270.24,35.01 270.36,35.01 270.48,33.72 270.60,33.72 270.72,33.72 270.84,33.72 270.95,34.22 271.07,34.22 271.19,34.22 271.31,34.22 271.43,37.06 271.55,37.06 271.67,37.06 271.79,33.84 271.90,33.84 272.02,33.84 272.14,31.28 272.26,31.28 272.38,33.32 272.50,33.32 272.62,31.51 272.73,31.51 272.85,29.87 272.97,29.87 273.09,29.87 273.21,28.47 273.33,28.47 273.45,28.47 273.57,29.14 273.68,29.14 273.80,26.60 273.92,26.60 274.04,29.69 274.16,29.69 274.28,26.30 274.40,26.30 274.52,28.64 274.63,28.64 274.75,28.64 274.87,30.73 274.99,26.68 275.11,26.68 275.23,29.14 275.35,29.14 275.47,29.14 275.58,31.29 275.70,27.86 275.82,27.86 275.94,27.86 276.06,30.24 276.18,26.93 276.30,26.93 276.41,26.93 276.53,29.26 276.65,25.40 276.77,25.40 276.89,25.40 277.01,22.50 277.13,25.99 277.25,25.99 277.36,25.99 277.48,25.72 277.60,25.72 277.72,25.72 277.84,26.97 277.96,26.97 278.08,26.97 278.20,26.97 278.31,26.97 278.43,26.15 278.55,24.34 278.67,24.34 278.79,24.34 278.91,23.82 279.03,23.82 279.14,23.82 279.26,24.78 279.38,20.13 279.50,20.13 279.62,21.71 279.74,21.71 279.86,21.71 279.98,21.71 280.09,22.65 280.21,19.66 280.33,19.21 280.45,19.21 280.57,19.21 280.69,17.52 280.81,17.52 280.93,17.52 281.04,17.52 281.16,17.52 281.28,14.12 281.40,14.77 281.52,14.77 281.64,16.34 281.76,16.34 281.87,16.34 281.99,15.35 282.11,15.35 282.23,15.35 282.35,14.99 282.47,14.99 282.59,14.99 282.71,14.99 282.82,13.26 282.94,13.26 283.06,13.26 283.18,12.12 283.30,12.12 283.42,12.12 283.54,12.42 283.66,9.89 283.77,9.89 283.89,9.88 284.01,9.88 284.13,9.88 284.25,11.08 284.37,11.08 284.49,12.05 284.60,9.28 284.72,9.28 284.84,9.35 284.96,9.35 285.08,9.35 285.20,9.66 285.32,9.66 285.44,10.37 285.55,10.37 285.67,10.37 285.79,11.64 285.91,11.64 286.03,8.68 286.15,11.15 286.27,11.15 286.39,11.15 286.50,12.20 286.62,12.20 286.74,12.20 286.86,12.20 286.98,11.49 287.10,11.49 287.22,11.49 287.33,7.74 287.45,7.74 287.57,7.74 287.69,8.09 287.81,8.09 287.93,8.09 288.05,9.80 288.17,5.18 288.28,5.18 288.40,6.87 288.52,6.87 288.64,6.87 288.76,8.51 288.88,8.51 289.00,9.24 289.12,9.24 289.23,9.24 289.35,10.29 289.47,10.29 289.59,10.29 289.71,7.82 289.83,8.99 289.95,8.99 290.07,8.99 290.18,10.49 290.30,10.49 290.42,10.49 290.54,11.80 290.66,8.83 290.78,8.83 290.90,8.83 291.01,10.87 291.13,7.47 291.25,7.47 291.37,7.47 291.49,7.47 291.61,7.47 291.73,6.90 291.85,6.90 291.96,6.90 292.08,8.34 292.20,8.34 292.32,8.34 292.44,6.53 292.56,8.28 292.68,8.28 292.80,8.28 292.91,8.47 293.03,8.47 293.15,8.47 293.27,10.22 293.39,6.30 293.51,6.30 293.63,7.77 293.74,7.77 293.86,7.77 293.98,10.12 294.10,7.09 294.22,7.09 294.34,9.44 294.46,9.44 294.58,8.07 294.69,6.27 294.81,6.27 294.93,6.27 295.05,4.87 295.17,4.87 295.29,7.52 295.41,7.52 295.53,5.45 295.64,5.45 295.76,5.46 295.88,5.46 296.00,5.46" />
</svg>