<svg width="300" height="60" xmlns="http://www.w3.org/2000/svg">
  <polyline fill="rgba(255,200,0,0.3)" stroke="#ffbb00" stroke-width="2" points="4.00,5.98 6.73,4.96 9.46,7.44 12.19,10.36 14.92,12.93 17.64,16.40 20.37,20.30 23.10,22.84 25.83,22.08 28.56,20.32 31.29,20.80 34.02,22.39 36.75,24.01 39.48,26.85 42.21,26.98 44.93,27.08 47.66,28.91 50.39,31.53 53.12,32.42 55.85,32.29 58.58,32.04 61.31,31.63 64.04,43.94 66.77,55.53 69.50,49.26 72.22,42.24 74.95,18.28 77.68,5.49 80.41,4.00 83.14,5.27 85.87,9.01 88.60,11.74 91.33,16.75 94.06,18.25 96.79,21.48 99.51,19.45 102.24,18.20 104.97,18.82 107.70,20.56 110.43,23.17 113.16,25.78 115.89,25.03 118.62,25.78 121.35,27.24 124.07,29.98 126.80,31.10 129.53,31.34 132.26,31.22 134.99,30.10 137.72,42.19 140.45,56.00 143.18,46.80 145.91,36.14 148.64,17.11 151.36,5.41 154.09,5.17 156.82,6.78 159.55,8.27 162.28,10.89 165.01,13.75 167.74,17.36 170.47,21.09 173.20,22.58 175.93,21.33 178.65,20.71 181.38,21.58 184.11,22.83 186.84,24.44 189.57,25.56 192.30,27.43 195.03,28.87 197.76,30.73 200.49,32.22 203.21,32.60 205.94,32.47 208.67,32.97 211.40,43.42 214.13,47.65 216.86,47.65 219.59,38.45 222.32,17.93 225.05,9.94 227.78,9.94 230.50,9.94 233.23,16.28 235.96,16.28 238.69,16.28 241.42,25.99 244.15,25.99 246.88,25.99 249.61,24.37 252.34,24.37 255.07,24.37 257.79,24.69 260.52,24.69 263.25,24.69 265.98,29.04 268.71,29.04 271.44,29.04 274.17,33.02 276.90,33.02 279.63,33.02 282.36,45.96 285.08,45.96 287.81,45.96 290.54,45.96 293.27,33.42 296.00,33.42" />
</svg>