<svg width="300" height="60" xmlns="http://www.w3.org/2000/svg">
  <polyline fill="rgba(255,200,0,0.3)" stroke="#ffbb00" stroke-width="2" points="4.00,55.38 4.42,54.33 4.84,52.28 5.26,49.80 5.68,48.17 6.10,46.30 6.52,45.30 6.94,45.29 7.36,45.92 7.78,46.97 8.20,46.62 8.62,46.04 9.04,46.23 9.46,46.09 9.88,45.39 10.30,44.26 10.72,42.80 11.14,40.70 11.56,38.42 11.98,37.16 12.40,36.76 12.82,36.21 13.24,35.16 13.66,34.50 14.08,33.80 14.50,33.91 14.92,32.29 15.34,30.18 15.76,28.55 16.18,26.65 16.60,25.99 17.02,25.80 17.44,25.95 17.86,25.75 18.28,25.90 18.71,26.07 19.13,26.39 19.55,24.98 19.97,23.24 20.39,20.85 20.81,18.71 21.23,16.24 21.65,15.33 22.07,15.29 22.49,13.74 22.91,12.47 23.33,11.45 23.75,12.10 24.17,13.63 24.59,15.37 25.01,17.42 25.43,17.15 25.85,15.30 26.27,14.03 26.69,12.35 27.11,11.17 27.53,9.32 27.95,7.69 28.37,6.37 28.79,5.28 29.21,4.83 29.63,5.06 30.05,5.97 30.47,6.87 30.89,7.84 31.31,9.03 31.73,10.48 32.15,12.21 32.57,13.54 32.99,14.14 33.41,13.95 33.83,13.47 34.25,12.94 34.67,12.82 35.09,13.22 35.51,13.61 35.93,14.19 36.35,15.23 36.77,16.58 37.19,18.36 37.61,19.62 38.03,19.22 38.45,17.74 38.87,16.76 39.29,16.58 39.71,15.69 40.13,14.60 40.55,13.41 40.97,12.43 41.39,12.01 41.81,11.82 42.23,11.92 42.65,11.97 43.07,11.94 43.49,11.67 43.91,11.30 44.33,10.91 44.75,10.89 45.17,11.40 45.59,12.41 46.01,13.43 46.43,14.96 46.85,16.68 47.27,18.97 47.69,21.94 48.12,24.83 48.54,27.77 48.96,29.89 49.38,27.48 49.80,25.55 50.22,24.45 50.64,24.97 51.06,26.69 51.48,28.55 51.90,26.81 52.32,25.58 52.74,25.64 53.16,28.00 53.58,30.87 54.00,29.76 54.42,27.64 54.84,25.13 55.26,22.98 55.68,22.07 56.10,23.57 56.52,27.70 56.94,27.95 57.36,27.97 57.78,27.17 58.20,24.99 58.62,23.32 59.04,22.80 59.46,22.11 59.88,21.98 60.30,22.60 60.72,23.74 61.14,24.69 61.56,23.69 61.98,23.24 62.40,21.56 62.82,19.07 63.24,18.48 63.66,18.91 64.08,19.49 64.50,19.81 64.92,20.42 65.34,21.66 65.76,23.25 66.18,25.41 66.60,27.63 67.02,29.59 67.44,27.77 67.86,26.59 68.28,26.10 68.70,25.37 69.12,24.83 69.54,24.42 69.96,24.18 70.38,24.34 70.80,24.83 71.22,25.44 71.64,26.45 72.06,27.72 72.48,28.98 72.90,30.37 73.32,31.53 73.74,32.72 74.16,33.80 74.58,35.44 75.00,36.98 75.42,38.23 75.84,39.41 76.26,41.23 76.68,44.14 77.11,55.46 77.53,54.19 77.95,52.42 78.37,50.00 78.79,47.93 79.21,45.54 79.63,45.28 80.05,44.80 80.47,45.01 80.89,47.08 81.31,46.61 81.73,46.17 82.15,45.73 82.57,45.93 82.99,45.50 83.41,43.76 83.83,42.70 84.25,39.41 84.67,38.32 85.09,37.10 85.51,36.77 85.93,36.35 86.35,35.16 86.77,34.44 87.19,33.40 87.61,34.68 88.03,32.24 88.45,29.96 88.87,27.77 89.29,26.48 89.71,25.80 90.13,25.54 90.55,26.05 90.97,25.73 91.39,25.88 91.81,25.76 92.23,26.45 92.65,24.69 93.07,22.99 93.49,21.05 93.91,18.38 94.33,15.95 94.75,15.14 95.17,14.95 95.59,13.38 96.01,12.26 96.43,11.49 96.85,12.10 97.27,13.40 97.69,15.47 98.11,17.78 98.53,17.45 98.95,15.13 99.37,14.19 99.79,12.19 100.21,11.43 100.63,9.28 101.05,7.49 101.47,6.60 101.89,5.28 102.31,4.72 102.73,4.91 103.15,5.99 103.57,6.98 103.99,7.73 104.41,8.95 104.83,10.28 105.25,12.23 105.67,13.59 106.09,14.04 106.52,14.34 106.94,13.73 107.36,12.73 107.78,12.73 108.20,13.21 108.62,13.57 109.04,14.21 109.46,15.32 109.88,16.58 110.30,18.19 110.72,19.69 111.14,19.12 111.56,17.77 111.98,16.64 112.40,16.24 112.82,15.80 113.24,14.52 113.66,13.33 114.08,12.25 114.50,11.96 114.92,11.70 115.34,11.92 115.76,11.77 116.18,11.85 116.60,11.76 117.02,11.12 117.44,10.86 117.86,10.87 118.28,11.50 118.70,12.70 119.12,13.37 119.54,14.75 119.96,16.95 120.38,19.01 120.80,22.22 121.22,24.80 121.64,27.44 122.06,29.34 122.48,27.60 122.90,24.90 123.32,24.43 123.74,24.83 124.16,26.46 124.58,28.63 125.00,26.81 125.42,25.39 125.84,25.49 126.26,27.81 126.68,31.17 127.10,29.69 127.52,27.91 127.94,24.70 128.36,23.07 128.78,22.14 129.20,23.84 129.62,27.86 130.04,28.63 130.46,27.58 130.88,27.40 131.30,25.04 131.72,23.22 132.14,23.30 132.56,20.60 132.98,20.81 133.40,22.09 133.82,23.89 134.24,24.34 134.66,23.46 135.08,22.40 135.51,20.94 135.93,18.38 136.35,18.36 136.77,18.92 137.19,18.84 137.61,19.72 138.03,20.41 138.45,21.49 138.87,22.98 139.29,25.51 139.71,27.60 140.13,29.68 140.55,27.55 140.97,26.99 141.39,26.04 141.81,25.13 142.23,24.75 142.65,24.05 143.07,24.18 143.49,24.10 143.91,25.11 144.33,25.36 144.75,26.58 145.17,27.71 145.59,29.16 146.01,30.29 146.43,31.72 146.85,32.70 147.27,34.19 147.69,35.51 148.11,37.19 148.53,38.20 148.95,39.65 149.37,41.24 149.79,44.26 150.21,55.84 150.63,54.85 151.05,52.85 151.47,50.62 151.89,48.25 152.31,45.49 152.73,44.01 153.15,45.91 153.57,46.22 153.99,46.71 154.41,46.71 154.83,47.18 155.25,46.28 155.67,46.79 156.09,44.41 156.51,45.07 156.93,42.13 157.35,38.60 157.77,37.08 158.19,36.60 158.61,36.60 159.03,35.88 159.45,34.08 159.87,34.20 160.29,34.04 160.71,33.74 161.13,31.75 161.55,28.81 161.97,27.66 162.39,24.86 162.81,27.53 163.23,25.26 163.65,25.92 164.07,26.39 164.49,24.69 164.92,26.42 165.34,26.39 165.76,24.03 166.18,23.20 166.60,21.44 167.02,18.76 167.44,16.74 167.86,15.91 168.28,14.93 168.70,12.33 169.12,12.35 169.54,11.90 169.96,12.35 170.38,13.70 170.80,15.25 171.22,16.81 171.64,17.12 172.06,13.97 172.48,13.84 172.90,10.97 173.32,11.07 173.74,8.11 174.16,8.01 174.58,5.71 175.00,5.73 175.42,4.88 175.84,5.17 176.26,6.21 176.68,7.10 177.10,8.38 177.52,9.64 177.94,11.20 178.36,12.93 178.78,13.85 179.20,15.02 179.62,13.45 180.04,14.06 180.46,12.91 180.88,13.02 181.30,13.20 181.72,14.16 182.14,14.78 182.56,15.45 182.98,16.74 183.40,18.31 183.82,19.47 184.24,19.95 184.66,17.76 185.08,17.08 185.50,17.11 185.92,16.69 186.34,14.27 186.76,13.53 187.18,12.89 187.60,12.52 188.02,12.01 188.44,11.96 188.86,11.82 189.28,11.61 189.70,12.08 190.12,11.51 190.54,11.04 190.96,10.99 191.38,12.14 191.80,12.83 192.22,13.77 192.64,15.17 193.06,17.15 193.48,18.85 193.91,22.05 194.33,24.28 194.75,26.68 195.17,28.78 195.59,29.30 196.01,25.29 196.43,25.38 196.85,24.72 197.27,26.06 197.69,27.85 198.11,26.43 198.53,26.49 198.95,25.92 199.37,27.70 199.79,30.72 200.21,29.54 200.63,28.90 201.05,24.84 201.47,24.14 201.89,22.45 202.31,24.09 202.73,26.94 203.15,27.89 203.57,28.17 203.99,28.01 204.41,24.92 204.83,23.85 205.25,23.76 205.67,23.72 206.09,23.69 206.51,25.47 206.93,27.20 207.35,23.65 207.77,24.20 208.19,24.45 208.61,20.06 209.03,19.53 209.45,19.76 209.87,18.10 210.29,19.68 210.71,20.06 211.13,21.50 211.55,23.06 211.97,23.78 212.39,25.98 212.81,28.47 213.23,28.66 213.65,28.12 214.07,27.48 214.49,26.99 214.91,24.70 215.33,24.46 215.75,24.37 216.17,24.50 216.59,24.93 217.01,26.40 217.43,25.73 217.85,26.68 218.27,27.77 218.69,28.89 219.11,29.94 219.53,32.06 219.95,33.07 220.37,34.13 220.79,35.41 221.21,36.65 221.63,37.80 222.05,40.59 222.47,42.47 222.89,44.36 223.32,56.00 223.74,56.00 224.16,54.20 224.58,50.62 225.00,50.62 225.42,50.62 225.84,42.83 226.26,42.83 226.68,48.51 227.10,48.51 227.52,48.51 227.94,42.33 228.36,42.33 228.78,42.33 229.20,40.74 229.62,40.74 230.04,40.74 230.46,32.29 230.88,35.29 231.30,35.29 231.72,35.29 232.14,31.40 232.56,31.57 232.98,31.57 233.40,31.57 233.82,30.41 234.24,30.41 234.66,30.41 235.08,24.18 235.50,24.18 235.92,29.88 236.34,29.88 236.76,23.20 237.18,23.20 237.60,23.20 238.02,29.41 238.44,24.96 238.86,24.96 239.28,24.96 239.70,18.86 240.12,17.30 240.54,17.30 240.96,12.70 241.38,12.70 241.80,11.41 242.22,11.41 242.64,11.41 243.06,14.38 243.48,14.38 243.90,14.38 244.32,16.42 244.74,16.42 245.16,8.81 245.58,8.37 246.00,8.37 246.42,8.37 246.84,7.96 247.26,7.96 247.68,4.00 248.10,5.61 248.52,5.61 248.94,5.61 249.36,8.89 249.78,9.07 250.20,9.07 250.62,12.71 251.04,12.71 251.46,12.71 251.88,12.95 252.31,12.95 252.73,12.95 253.15,12.95 253.57,13.70 253.99,13.70 254.41,13.70 254.83,15.23 255.25,15.23 255.67,18.54 256.09,18.54 256.51,18.06 256.93,19.59 257.35,19.59 257.77,19.59 258.19,19.19 258.61,19.19 259.03,17.20 259.45,17.20 259.87,17.20 260.29,15.83 260.71,15.83 261.13,12.40 261.55,12.40 261.97,12.40 262.39,11.87 262.81,11.87 263.23,11.87 263.65,12.48 264.07,12.48 264.49,16.07 264.91,16.07 265.33,16.07 265.75,21.95 266.17,19.83 266.59,19.83 267.01,26.71 267.43,26.71 267.85,26.71 268.27,32.52 268.69,32.52 269.11,27.03 269.53,27.03 269.95,27.03 270.37,27.03 270.79,31.35 271.21,26.89 271.63,26.89 272.05,29.26 272.47,29.26 272.89,29.26 273.31,28.09 273.73,28.09 274.15,28.09 274.57,27.34 274.99,27.34 275.41,27.34 275.83,27.23 276.25,27.23 276.67,27.23 277.09,25.20 277.51,25.20 277.93,23.69 278.35,23.69 278.77,23.69 279.19,25.62 279.61,25.62 280.03,28.19 280.45,28.19 280.87,28.19 281.29,27.78 281.72,27.78 282.14,27.78 282.56,27.65 282.98,19.68 283.40,19.68 283.82,23.64 284.24,23.64 284.66,27.99 285.08,27.99 285.50,27.99 285.92,33.13 286.34,27.92 286.76,27.92 287.18,27.27 287.60,27.27 288.02,26.88 288.44,26.88 288.86,26.88 289.28,28.27 289.70,28.27 290.12,31.35 290.54,31.35 290.96,31.35 291.38,34.95 291.80,34.95 292.22,34.95 292.64,37.56 293.06,37.56 293.48,39.56 293.90,39.56 294.32,39.56 294.74,42.66 295.16,42.66 295.58,48.48 296.00,48.48" />
</svg>