<svg width="300" height="60" xmlns="http://www.w3.org/2000/svg">
  <polyline fill="rgba(255,200,0,0.3)" stroke="#ffbb00" stroke-width="2" points="4.00,41.50 9.96,54.97 15.92,54.97 21.88,54.97 27.84,52.63 33.80,47.29 39.76,34.28 45.71,21.77 51.67,15.72 57.63,9.48 63.59,41.38 69.55,54.97 75.51,54.97 81.47,54.82 87.43,53.88 93.39,43.59 99.35,34.51 105.31,24.14 111.27,15.55 117.22,10.05 123.18,56.00 129.14,55.84 135.10,55.10 141.06,54.33 147.02,52.93 152.98,44.35 158.94,38.23 164.90,23.43 170.86,14.85 176.82,8.56 182.78,46.09 188.73,47.96 194.69,51.39 200.65,48.42 206.61,43.12 212.57,51.54 218.53,44.68 224.49,23.02 230.45,13.20 236.41,4.00 242.37,45.80 248.33,50.48 254.29,50.48 260.24,29.44 266.20,29.44 272.16,50.79 278.12,50.79 284.08,7.62 290.04,7.62 296.00,36.45" />
</svg>