<svg width="300" height="60" xmlns="http://www.w3.org/2000/svg">
  <polyline fill="rgba(255,200,0,0.3)" stroke="#ffbb00" stroke-width="2" points="4.00,52.60 5.05,52.71 6.09,52.83 7.14,52.86 8.19,52.62 9.23,51.87 10.28,50.90 11.33,50.01 12.37,49.21 13.42,48.04 14.47,46.90 15.51,46.19 16.56,45.05 17.61,43.32 18.65,42.05 19.70,40.90 20.75,38.72 21.79,37.51 22.84,37.25 23.89,36.67 24.93,35.90 25.98,35.11 27.03,34.74 28.07,34.31 29.12,32.20 30.16,29.56 31.21,27.30 32.26,25.33 33.30,23.27 34.35,21.99 35.40,20.28 36.44,19.37 37.49,18.90 38.54,19.25 39.58,19.17 40.63,18.60 41.68,17.01 42.72,15.27 43.77,13.31 44.82,11.66 45.86,10.94 46.91,10.90 47.96,11.65 49.00,13.33 50.05,15.15 51.10,16.56 52.14,17.32 53.19,17.98 54.24,18.18 55.28,16.75 56.33,18.76 57.38,20.88 58.42,22.10 59.47,24.25 60.52,26.80 61.56,28.98 62.61,31.04 63.66,31.86 64.70,31.74 65.75,30.34 66.80,27.82 67.84,26.15 68.89,25.58 69.94,24.83 70.98,24.86 72.03,25.26 73.08,25.88 74.12,26.78 75.17,27.83 76.22,28.54 77.26,53.35 78.31,53.16 79.35,53.40 80.40,52.73 81.45,53.35 82.49,52.23 83.54,51.80 84.59,49.44 85.63,49.82 86.68,48.25 87.73,46.73 88.77,47.21 89.82,45.30 90.87,44.06 91.91,42.16 92.96,40.58 94.01,39.99 95.05,38.56 96.10,37.69 97.15,37.02 98.19,36.73 99.24,35.61 100.29,35.04 101.33,33.94 102.38,32.41 103.43,30.28 104.47,27.82 105.52,25.29 106.57,23.94 107.61,22.17 108.66,20.92 109.71,19.15 110.75,19.49 111.80,19.59 112.85,19.88 113.89,19.32 114.94,18.03 115.99,15.92 117.03,13.87 118.08,12.34 119.13,11.75 120.17,11.25 121.22,13.01 122.27,13.78 123.31,16.11 124.36,17.83 125.41,17.64 126.45,18.41 127.50,18.22 128.54,18.27 129.59,17.51 130.64,19.32 131.68,21.70 132.73,24.32 133.78,27.57 134.82,29.75 135.87,31.80 136.92,32.30 137.96,31.98 139.01,30.36 140.06,27.25 141.10,26.06 142.15,25.64 143.20,24.89 144.24,24.99 145.29,25.37 146.34,26.13 147.38,26.57 148.43,27.58 149.48,28.79 150.52,54.65 151.57,52.55 152.62,51.02 153.66,49.73 154.71,48.87 155.76,47.49 156.80,52.48 157.85,43.79 158.90,43.03 159.94,43.88 160.99,44.94 162.04,47.47 163.08,38.35 164.13,37.92 165.18,33.57 166.22,32.24 167.27,39.11 168.32,37.06 169.36,35.72 170.41,35.10 171.46,36.09 172.50,36.18 173.55,36.09 174.59,34.25 175.64,33.39 176.69,30.81 177.73,27.90 178.78,24.56 179.83,22.17 180.87,20.74 181.92,19.69 182.97,19.50 184.01,19.74 185.06,20.55 186.11,20.26 187.15,18.93 188.20,17.85 189.25,14.79 190.29,13.74 191.34,9.92 192.39,9.35 193.43,9.11 194.48,13.16 195.53,8.63 196.57,13.12 197.62,16.70 198.67,17.65 199.71,20.75 200.76,15.55 201.81,19.27 202.85,17.75 203.90,20.85 204.95,20.37 205.99,23.52 207.04,31.03 208.09,31.41 209.13,32.13 210.18,32.13 211.23,31.89 212.27,30.60 213.32,28.55 214.37,26.16 215.41,25.97 216.46,24.51 217.51,25.37 218.55,25.75 219.60,25.04 220.65,26.33 221.69,28.35 222.74,29.40 223.78,56.00 224.83,42.49 225.88,42.49 226.92,34.57 227.97,34.57 229.02,34.57 230.06,50.56 231.11,30.18 232.16,29.32 233.20,29.32 234.25,29.32 235.30,29.36 236.34,29.36 237.39,29.36 238.44,28.31 239.48,28.31 240.53,33.62 241.58,33.62 242.62,33.62 243.67,48.70 244.72,39.78 245.76,39.78 246.81,48.51 247.86,48.51 248.90,34.72 249.95,34.72 251.00,35.96 252.04,35.96 253.09,35.96 254.14,21.27 255.18,21.27 256.23,21.27 257.28,23.17 258.32,23.17 259.37,18.88 260.42,18.88 261.46,18.88 262.51,10.81 263.56,10.81 264.60,10.81 265.65,4.00 266.70,4.00 267.74,4.00 268.79,4.00 269.84,12.31 270.88,12.31 271.93,12.31 272.97,14.07 274.02,14.07 275.07,14.07 276.11,30.10 277.16,30.10 278.21,16.73 279.25,25.32 280.30,25.32 281.35,37.21 282.39,37.21 283.44,37.21 284.49,31.15 285.53,31.15 286.58,31.15 287.63,30.00 288.67,30.00 289.72,30.00 290.77,30.00 291.81,32.20 292.86,32.20 293.91,32.20 294.95,32.20 296.00,35.19" />
</svg>