<svg width="300" height="60" xmlns="http://www.w3.org/2000/svg">
  <polyline fill="rgba(255,200,0,0.3)" stroke="#ffbb00" stroke-width="2" points="4.00,9.93 4.27,9.53 4.54,9.20 4.81,8.67 5.08,7.88 5.35,7.18 5.62,6.56 5.89,6.05 6.16,5.73 6.44,5.56 6.71,5.63 6.98,5.53 7.25,5.78 7.52,6.02 7.79,6.23 8.06,6.58 8.33,7.12 8.60,7.82 8.87,8.60 9.14,9.47 9.41,9.93 9.68,10.54 9.95,11.24 10.22,11.90 10.49,12.44 10.77,12.98 11.04,13.22 11.31,13.29 11.58,13.18 11.85,13.14 12.12,13.25 12.39,13.52 12.66,13.93 12.93,14.40 13.20,14.86 13.47,15.40 13.74,15.86 14.01,16.24 14.28,16.69 14.55,17.16 14.82,17.40 15.10,18.02 15.37,18.89 15.64,19.45 15.91,20.04 16.18,20.31 16.45,20.74 16.72,20.98 16.99,21.13 17.26,21.18 17.53,21.13 17.80,20.94 18.07,20.75 18.34,20.66 18.61,20.70 18.88,20.86 19.15,21.13 19.43,21.44 19.70,21.74 19.97,22.02 20.24,22.22 20.51,22.55 20.78,22.87 21.05,23.13 21.32,23.41 21.59,23.68 21.86,24.05 22.13,24.26 22.40,24.57 22.67,24.87 22.94,25.11 23.21,25.31 23.48,25.56 23.76,25.67 24.03,25.95 24.30,26.01 24.57,26.11 24.84,26.46 25.11,26.82 25.38,27.44 25.65,28.17 25.92,28.85 26.19,28.99 26.46,29.48 26.73,29.83 27.00,30.52 27.27,30.94 27.54,31.32 27.81,31.39 28.09,31.71 28.36,31.94 28.63,32.34 28.90,32.52 29.17,32.67 29.44,32.64 29.71,32.84 29.98,33.18 30.25,33.62 30.52,33.82 30.79,33.84 31.06,33.79 31.33,33.88 31.60,34.15 31.87,34.73 32.14,35.20 32.42,36.13 32.69,37.40 32.96,37.54 33.23,37.71 33.50,38.03 33.77,38.03 34.04,37.80 34.31,38.16 34.58,38.65 34.85,39.32 35.12,39.73 35.39,39.72 35.66,40.03 35.93,40.41 36.20,40.82 36.47,40.80 36.75,40.68 37.02,40.56 37.29,40.42 37.56,40.24 37.83,40.36 38.10,40.56 38.37,40.83 38.64,41.12 38.91,41.60 39.18,41.75 39.45,41.98 39.72,41.77 39.99,41.70 40.26,41.78 40.53,42.01 40.80,42.37 41.08,42.57 41.35,42.95 41.62,43.40 41.89,43.58 42.16,43.62 42.43,43.53 42.70,43.68 42.97,43.69 43.24,43.80 43.51,43.93 43.78,44.29 44.05,44.52 44.32,44.71 44.59,44.90 44.86,45.17 45.13,45.49 45.41,45.63 45.68,45.78 45.95,46.04 46.22,46.27 46.49,46.53 46.76,46.96 47.03,47.20 47.30,46.86 47.57,46.24 47.84,46.05 48.11,46.22 48.38,46.71 48.65,47.70 48.92,47.95 49.19,47.84 49.46,46.93 49.73,47.14 50.01,47.16 50.28,47.30 50.55,47.42 50.82,47.67 51.09,47.85 51.36,48.42 51.63,48.92 51.90,49.05 52.17,49.32 52.44,48.98 52.71,48.43 52.98,47.98 53.25,47.63 53.52,46.55 53.79,46.22 54.06,45.59 54.34,45.26 54.61,45.35 54.88,45.08 55.15,44.69 55.42,44.23 55.69,43.40 55.96,42.66 56.23,42.45 56.50,42.65 56.77,42.87 57.04,43.14 57.31,43.31 57.58,43.57 57.85,43.66 58.12,43.82 58.39,43.99 58.67,44.22 58.94,44.38 59.21,44.55 59.48,44.72 59.75,44.95 60.02,45.12 60.29,45.38 60.56,45.60 60.83,45.76 61.10,45.68 61.37,45.90 61.64,46.25 61.91,46.74 62.18,47.18 62.45,47.93 62.72,48.51 63.00,48.70 63.27,49.13 63.54,49.16 63.81,49.12 64.08,49.50 64.35,49.19 64.62,48.14 64.89,47.36 65.16,46.44 65.43,46.17 65.70,46.51 65.97,47.23 66.24,47.60 66.51,48.06 66.78,48.59 67.05,49.19 67.33,49.58 67.60,50.12 67.87,50.27 68.14,50.29 68.41,50.39 68.68,50.56 68.95,51.17 69.22,51.75 69.49,52.35 69.76,52.77 70.03,52.68 70.30,52.71 70.57,52.67 70.84,52.52 71.11,52.45 71.38,52.78 71.66,53.39 71.93,53.50 72.20,53.59 72.47,53.43 72.74,53.83 73.01,54.27 73.28,54.63 73.55,55.13 73.82,55.99 74.09,55.76 74.36,55.69 74.63,55.64 74.90,55.51 75.17,55.64 75.44,55.72 75.71,55.72 75.99,55.72 76.26,55.60 76.53,55.73 76.80,55.56 77.07,9.94 77.34,9.59 77.61,9.22 77.88,8.69 78.15,7.84 78.42,7.15 78.69,6.55 78.96,6.06 79.23,5.74 79.50,5.54 79.77,5.57 80.04,5.56 80.32,5.83 80.59,6.02 80.86,6.19 81.13,6.61 81.40,7.11 81.67,7.84 81.94,8.61 82.21,9.39 82.48,9.92 82.75,10.54 83.02,11.24 83.29,11.88 83.56,12.44 83.83,12.96 84.10,13.19 84.37,13.26 84.65,13.18 84.92,13.12 85.19,13.26 85.46,13.59 85.73,13.92 86.00,14.38 86.27,14.84 86.54,15.38 86.81,15.86 87.08,16.24 87.35,16.66 87.62,17.15 87.89,17.43 88.16,18.03 88.43,18.90 88.70,19.43 88.97,20.03 89.25,20.32 89.52,20.75 89.79,20.97 90.06,21.14 90.33,21.19 90.60,21.12 90.87,20.97 91.14,20.74 91.41,20.64 91.68,20.69 91.95,20.87 92.22,21.13 92.49,21.43 92.76,21.75 93.03,22.03 93.30,22.20 93.58,22.54 93.85,22.87 94.12,23.13 94.39,23.42 94.66,23.68 94.93,24.04 95.20,24.30 95.47,24.56 95.74,24.83 96.01,25.09 96.28,25.33 96.55,25.56 96.82,25.67 97.09,25.95 97.36,26.08 97.63,26.13 97.91,26.48 98.18,26.82 98.45,27.43 98.72,28.20 98.99,28.85 99.26,29.02 99.53,29.46 99.80,29.84 100.07,30.48 100.34,30.96 100.61,31.31 100.88,31.38 101.15,31.71 101.42,31.91 101.69,32.36 101.96,32.49 102.24,32.66 102.51,32.67 102.78,32.83 103.05,33.19 103.32,33.59 103.59,33.82 103.86,33.82 104.13,33.78 104.40,33.86 104.67,34.16 104.94,34.72 105.21,35.22 105.48,36.08 105.75,37.28 106.02,37.58 106.29,37.75 106.57,38.00 106.84,37.97 107.11,37.81 107.38,38.07 107.65,38.62 107.92,39.31 108.19,39.69 108.46,39.71 108.73,39.97 109.00,40.39 109.27,40.77 109.54,40.72 109.81,40.68 110.08,40.51 110.35,40.31 110.62,40.21 110.90,40.37 111.17,40.54 111.44,40.78 111.71,41.17 111.98,41.57 112.25,41.79 112.52,41.95 112.79,41.78 113.06,41.69 113.33,41.77 113.60,42.02 113.87,42.37 114.14,42.61 114.41,42.96 114.68,43.36 114.95,43.59 115.23,43.62 115.50,43.53 115.77,43.74 116.04,43.67 116.31,43.79 116.58,43.93 116.85,44.28 117.12,44.52 117.39,44.74 117.66,44.91 117.93,45.15 118.20,45.45 118.47,45.70 118.74,45.80 119.01,46.05 119.28,46.31 119.56,46.53 119.83,46.93 120.10,47.20 120.37,46.83 120.64,46.29 120.91,46.03 121.18,46.19 121.45,46.71 121.72,47.70 121.99,47.96 122.26,47.85 122.53,46.90 122.80,47.20 123.07,47.13 123.34,47.26 123.61,47.44 123.89,47.60 124.16,47.85 124.43,48.39 124.70,48.92 124.97,49.06 125.24,49.36 125.51,48.98 125.78,48.53 126.05,48.04 126.32,47.55 126.59,46.50 126.86,46.22 127.13,45.67 127.40,45.27 127.67,45.24 127.94,45.08 128.22,44.68 128.49,44.21 128.76,43.36 129.03,42.69 129.30,42.46 129.57,42.64 129.84,42.88 130.11,43.14 130.38,43.34 130.65,43.59 130.92,43.66 131.19,43.79 131.46,44.00 131.73,44.22 132.00,44.41 132.27,44.57 132.54,44.73 132.82,44.95 133.09,45.15 133.36,45.40 133.63,45.63 133.90,45.68 134.17,45.67 134.44,45.91 134.71,46.24 134.98,46.71 135.25,47.26 135.52,47.95 135.79,48.55 136.06,48.70 136.33,49.11 136.60,49.12 136.87,49.11 137.15,49.48 137.42,49.20 137.69,48.10 137.96,47.26 138.23,46.45 138.50,46.11 138.77,46.50 139.04,47.16 139.31,47.59 139.58,48.05 139.85,48.65 140.12,49.20 140.39,49.58 140.66,50.10 140.93,50.23 141.20,50.25 141.48,50.40 141.75,50.54 142.02,51.06 142.29,51.69 142.56,52.37 142.83,52.75 143.10,52.71 143.37,52.66 143.64,52.61 143.91,52.52 144.18,52.44 144.45,52.75 144.72,53.36 144.99,53.51 145.26,53.68 145.53,53.51 145.81,53.79 146.08,54.25 146.35,54.69 146.62,55.09 146.89,56.00 147.16,55.75 147.43,55.69 147.70,55.69 147.97,55.50 148.24,55.64 148.51,55.72 148.78,55.71 149.05,55.71 149.32,55.63 149.59,55.74 149.86,55.61 150.14,10.09 150.41,9.57 150.68,8.96 150.95,8.44 151.22,7.57 151.49,7.22 151.76,6.70 152.03,6.06 152.30,5.94 152.57,5.15 152.84,5.19 153.11,5.30 153.38,5.64 153.65,6.36 153.92,6.80 154.19,6.23 154.47,6.88 154.74,7.61 155.01,8.39 155.28,9.72 155.55,10.25 155.82,10.38 156.09,11.00 156.36,11.99 156.63,12.72 156.90,13.31 157.17,13.17 157.44,13.23 157.71,13.22 157.98,13.22 158.25,13.29 158.52,13.88 158.80,14.22 159.07,14.62 159.34,14.97 159.61,15.34 159.88,16.09 160.15,16.47 160.42,16.92 160.69,17.13 160.96,17.54 161.23,18.04 161.50,18.83 161.77,19.67 162.04,20.25 162.31,20.29 162.58,20.75 162.85,21.05 163.13,21.15 163.40,21.24 163.67,21.20 163.94,21.04 164.21,20.83 164.48,20.72 164.75,20.73 165.02,20.92 165.29,21.20 165.56,21.51 165.83,21.57 166.10,21.91 166.37,22.22 166.64,22.84 166.91,22.99 167.18,23.29 167.46,23.57 167.73,23.82 168.00,24.17 168.27,24.17 168.54,24.55 168.81,24.93 169.08,25.23 169.35,25.23 169.62,25.48 169.89,25.54 170.16,25.93 170.43,25.92 170.70,26.19 170.97,26.36 171.24,26.73 171.51,27.31 171.78,28.19 172.06,28.97 172.33,29.64 172.60,29.44 172.87,30.18 173.14,30.35 173.41,31.04 173.68,31.53 173.95,31.25 174.22,31.49 174.49,31.99 174.76,32.18 175.03,32.41 175.30,33.05 175.57,32.99 175.84,32.99 176.11,33.10 176.39,33.98 176.66,34.03 176.93,34.06 177.20,33.83 177.47,34.23 177.74,34.13 178.01,34.95 178.28,35.52 178.55,36.44 178.82,37.53 179.09,37.94 179.36,38.12 179.63,38.29 179.90,38.24 180.17,38.11 180.44,38.28 180.72,38.74 180.99,39.98 181.26,39.21 181.53,39.65 181.80,39.58 182.07,40.11 182.34,40.80 182.61,40.08 182.88,40.25 183.15,40.35 183.42,40.39 183.69,40.41 183.96,40.49 184.23,40.69 184.50,40.61 184.77,41.10 185.05,41.74 185.32,41.40 185.59,41.85 185.86,41.72 186.13,41.74 186.40,41.90 186.67,41.94 186.94,42.32 187.21,42.53 187.48,42.99 187.75,43.54 188.02,43.41 188.29,43.59 188.56,43.74 188.83,43.42 189.10,43.68 189.38,44.24 189.65,43.99 189.92,44.42 190.19,44.41 190.46,44.86 190.73,44.75 191.00,45.38 191.27,45.90 191.54,45.77 191.81,46.19 192.08,46.01 192.35,46.59 192.62,46.70 192.89,46.95 193.16,47.12 193.43,47.12 193.71,46.57 193.98,46.51 194.25,46.23 194.52,47.04 194.79,47.42 195.06,48.08 195.33,47.23 195.60,47.00 195.87,47.00 196.14,48.01 196.41,47.62 196.68,47.34 196.95,48.13 197.22,47.90 197.49,48.69 197.76,48.89 198.04,49.16 198.31,49.53 198.58,48.77 198.85,47.92 199.12,47.81 199.39,47.39 199.66,46.30 199.93,46.19 200.20,45.15 200.47,45.35 200.74,44.76 201.01,44.98 201.28,44.40 201.55,43.97 201.82,43.44 202.09,42.54 202.37,42.49 202.64,42.66 202.91,42.78 203.18,43.06 203.45,43.38 203.72,43.23 203.99,43.64 204.26,43.80 204.53,44.02 204.80,43.84 205.07,44.24 205.34,44.46 205.61,44.76 205.88,44.44 206.15,44.84 206.42,45.54 206.70,45.35 206.97,45.94 207.24,45.65 207.51,46.16 207.78,46.58 208.05,46.92 208.32,47.33 208.59,47.84 208.86,48.29 209.13,48.55 209.40,49.08 209.67,49.01 209.94,48.98 210.21,49.05 210.48,48.63 210.75,47.94 211.03,47.17 211.30,46.23 211.57,46.46 211.84,46.82 212.11,46.82 212.38,47.49 212.65,47.95 212.92,48.60 213.19,48.94 213.46,49.71 213.73,49.81 214.00,50.53 214.27,49.99 214.54,50.61 214.81,50.67 215.08,51.40 215.35,52.21 215.63,52.27 215.90,52.41 216.17,52.41 216.44,52.59 216.71,52.94 216.98,52.47 217.25,52.84 217.52,53.34 217.79,53.60 218.06,53.60 218.33,53.96 218.60,53.71 218.87,54.29 219.14,54.06 219.41,54.99 219.68,55.84 219.96,55.84 220.23,55.79 220.50,55.71 220.77,55.52 221.04,55.44 221.31,55.63 221.58,55.67 221.85,55.74 222.12,55.68 222.39,55.71 222.66,55.64 222.93,55.41 223.20,10.34 223.47,8.88 223.74,8.11 224.01,8.11 224.29,6.49 224.56,6.49 224.83,6.49 225.10,6.24 225.37,6.24 225.64,4.00 225.91,4.05 226.18,4.05 226.45,4.05 226.72,5.40 226.99,5.40 227.26,7.54 227.53,7.54 227.80,7.54 228.07,9.99 228.34,9.99 228.62,12.23 228.89,11.93 229.16,11.93 229.43,11.93 229.70,14.11 229.97,14.11 230.24,13.42 230.51,13.74 230.78,13.74 231.05,13.74 231.32,14.45 231.59,14.45 231.86,15.39 232.13,15.39 232.40,15.39 232.67,16.34 232.95,16.34 233.22,17.62 233.49,17.62 233.76,17.38 234.03,18.71 234.30,18.71 234.57,18.71 234.84,20.69 235.11,20.69 235.38,20.88 235.65,20.88 235.92,21.84 236.19,21.84 236.46,21.84 236.73,21.48 237.00,21.48 237.28,21.48 237.55,20.92 237.82,20.92 238.09,21.39 238.36,21.39 238.63,21.39 238.90,22.33 239.17,22.33 239.44,22.33 239.71,23.36 239.98,23.45 240.25,24.15 240.52,24.15 240.79,24.15 241.06,24.53 241.33,24.53 241.61,25.30 241.88,25.30 242.15,25.37 242.42,25.37 242.69,26.16 242.96,26.16 243.23,26.56 243.50,26.56 243.77,26.56 244.04,27.31 244.31,27.31 244.58,27.31 244.85,29.21 245.12,29.21 245.39,29.64 245.66,29.64 245.94,32.23 246.21,31.67 246.48,31.67 246.75,31.67 247.02,31.67 247.29,32.35 247.56,32.35 247.83,32.35 248.10,33.07 248.37,33.07 248.64,33.29 248.91,33.29 249.18,33.29 249.45,35.54 249.72,35.54 249.99,35.33 250.27,34.39 250.54,34.39 250.81,34.39 251.08,36.14 251.35,37.31 251.62,37.31 251.89,37.31 252.16,39.56 252.43,39.56 252.70,39.56 252.97,39.35 253.24,39.35 253.51,39.35 253.78,39.30 254.05,39.27 254.32,39.30 254.59,39.30 254.87,39.70 255.14,39.70 255.41,39.70 255.68,40.26 255.95,40.26 256.22,40.26 256.49,40.56 256.76,40.56 257.03,40.56 257.30,40.89 257.57,39.94 257.84,39.94 258.11,41.39 258.38,41.39 258.65,41.39 258.92,41.70 259.20,41.70 259.47,41.70 259.74,42.83 260.01,42.83 260.28,42.26 260.55,43.87 260.82,43.87 261.09,43.87 261.36,42.87 261.63,44.74 261.90,44.74 262.17,43.87 262.44,43.87 262.71,43.87 262.98,45.23 263.25,45.28 263.53,45.28 263.80,45.28 264.07,45.28 264.34,46.83 264.61,46.83 264.88,46.83 265.15,46.77 265.42,46.77 265.69,46.77 265.96,47.48 266.23,47.48 266.50,47.48 266.77,47.48 267.04,49.15 267.31,47.90 267.58,47.90 267.86,47.90 268.13,47.67 268.40,47.79 268.67,47.79 268.94,47.79 269.21,47.79 269.48,47.27 269.75,47.27 270.02,49.75 270.29,49.31 270.56,49.31 270.83,49.31 271.10,48.34 271.37,47.66 271.64,47.66 271.91,47.66 272.19,46.48 272.46,46.48 272.73,43.94 273.00,44.33 273.27,44.33 273.54,44.33 273.81,44.32 274.08,44.32 274.35,43.08 274.62,43.08 274.89,42.35 275.16,42.35 275.43,42.48 275.70,42.48 275.97,42.70 276.24,42.70 276.52,43.19 276.79,43.33 277.06,43.33 277.33,43.33 277.60,43.80 277.87,43.96 278.14,43.96 278.41,43.96 278.68,44.83 278.95,45.18 279.22,45.18 279.49,45.18 279.76,45.18 280.03,46.74 280.30,46.74 280.57,46.74 280.85,47.43 281.12,47.43 281.39,48.04 281.66,48.04 281.93,48.04 282.20,48.10 282.47,48.10 282.74,47.60 283.01,47.60 283.28,47.60 283.55,46.74 283.82,46.74 284.09,46.90 284.36,46.90 284.63,47.13 284.90,47.13 285.18,47.13 285.45,47.13 285.72,48.06 285.99,48.06 286.26,48.06 286.53,50.04 286.80,50.04 287.07,50.04 287.34,50.73 287.61,50.73 287.88,50.73 288.15,53.49 288.42,53.49 288.69,53.54 288.96,53.54 289.23,53.54 289.51,53.83 289.78,53.83 290.05,53.83 290.32,54.42 290.59,54.42 290.86,54.42 291.13,54.42 291.40,53.52 291.67,53.52 291.94,55.60 292.21,55.60 292.48,55.60 292.75,55.60 293.02,55.60 293.29,55.60 293.56,55.38 293.84,55.38 294.11,55.38 294.38,55.33 294.65,55.33 294.92,55.70 295.19,55.50 295.46,55.50 295.73,55.50 296.00,55.22" />
</svg>