<svg width="300" height="60" xmlns="http://www.w3.org/2000/svg">
  <polyline fill="rgba(255,200,0,0.3)" stroke="#ffbb00" stroke-width="2" points="4.00,56.00 4.45,53.62 4.91,53.45 5.36,53.30 5.82,53.03 6.27,52.48 6.72,51.43 7.18,51.49 7.63,50.96 8.09,48.84 8.54,46.54 9.00,45.67 9.45,45.06 9.90,44.24 10.36,41.96 10.81,42.65 11.27,43.25 11.72,44.83 12.17,46.26 12.63,47.01 13.08,47.10 13.54,47.37 13.99,47.93 14.44,47.51 14.90,45.22 15.35,43.72 15.81,43.83 16.26,44.56 16.72,45.00 17.17,43.20 17.62,41.36 18.08,40.90 18.53,41.37 18.99,42.23 19.44,40.79 19.89,38.29 20.35,35.80 20.80,33.06 21.26,31.66 21.71,31.10 22.16,30.62 22.62,30.35 23.07,28.81 23.53,29.15 23.98,29.94 24.44,30.60 24.89,31.20 25.34,31.18 25.80,28.69 26.25,26.97 26.71,25.56 27.16,24.54 27.61,23.52 28.07,21.73 28.52,20.42 28.98,19.09 29.43,18.07 29.88,15.93 30.34,14.00 30.79,12.30 31.25,11.32 31.70,9.97 32.16,8.53 32.61,8.31 33.06,9.44 33.52,12.05 33.97,15.60 34.43,16.94 34.88,15.22 35.33,13.70 35.79,12.29 36.24,11.08 36.70,10.92 37.15,10.36 37.60,9.43 38.06,8.21 38.51,7.00 38.97,5.90 39.42,5.00 39.88,5.13 40.33,6.19 40.78,8.00 41.24,10.15 41.69,12.28 42.15,15.16 42.60,14.32 43.05,14.01 43.51,14.06 43.96,13.04 44.42,12.24 44.87,11.65 45.33,10.64 45.78,9.72 46.23,9.19 46.69,8.22 47.14,7.76 47.60,7.72 48.05,7.73 48.50,7.51 48.96,7.60 49.41,7.67 49.87,8.16 50.32,8.73 50.77,9.00 51.23,9.01 51.68,8.79 52.14,8.68 52.59,8.64 53.05,8.65 53.50,8.96 53.95,9.82 54.41,10.99 54.86,12.49 55.32,13.88 55.77,14.53 56.22,14.67 56.68,16.42 57.13,16.22 57.59,14.66 58.04,14.22 58.49,14.10 58.95,14.18 59.40,13.87 59.86,13.24 60.31,11.30 60.77,9.07 61.22,8.09 61.67,7.55 62.13,7.45 62.58,7.69 63.04,8.23 63.49,9.51 63.94,11.14 64.40,13.16 64.85,15.32 65.31,16.65 65.76,15.88 66.21,14.67 66.67,13.02 67.12,12.08 67.58,10.92 68.03,11.78 68.49,13.30 68.94,14.37 69.39,14.36 69.85,13.26 70.30,12.80 70.76,12.13 71.21,11.36 71.66,10.79 72.12,9.85 72.57,9.00 73.03,9.38 73.48,9.69 73.93,9.98 74.39,10.55 74.84,11.07 75.30,11.65 75.75,11.73 76.21,11.54 76.66,10.51 77.11,56.00 77.57,53.95 78.02,53.42 78.48,53.42 78.93,52.59 79.38,52.43 79.84,51.50 80.29,51.11 80.75,51.14 81.20,48.52 81.65,46.47 82.11,45.39 82.56,45.14 83.02,44.23 83.47,42.10 83.93,42.67 84.38,43.09 84.83,44.73 85.29,46.12 85.74,47.39 86.20,46.64 86.65,47.55 87.10,47.93 87.56,47.17 88.01,45.43 88.47,43.82 88.92,43.92 89.37,44.79 89.83,44.82 90.28,43.26 90.74,41.28 91.19,41.26 91.65,41.30 92.10,42.15 92.55,40.48 93.01,37.91 93.46,35.93 93.92,33.02 94.37,31.91 94.82,30.85 95.28,30.72 95.73,29.59 96.19,29.16 96.64,28.70 97.09,29.64 97.55,31.09 98.00,31.22 98.46,31.75 98.91,28.25 99.37,26.95 99.82,25.47 100.27,24.82 100.73,23.38 101.18,21.68 101.64,20.21 102.09,19.22 102.54,18.04 103.00,16.25 103.45,14.26 103.91,12.33 104.36,11.55 104.81,10.16 105.27,8.24 105.72,8.41 106.18,9.43 106.63,12.73 107.09,15.45 107.54,17.34 107.99,15.14 108.45,14.05 108.90,12.07 109.36,11.26 109.81,10.99 110.26,9.93 110.72,9.42 111.17,8.23 111.63,6.99 112.08,5.82 112.53,5.18 112.99,5.25 113.44,6.25 113.90,7.76 114.35,10.34 114.81,12.40 115.26,14.87 115.71,14.08 116.17,14.03 116.62,13.84 117.08,13.12 117.53,12.25 117.98,11.83 118.44,10.57 118.89,9.67 119.35,9.07 119.80,8.14 120.26,7.73 120.71,7.70 121.16,7.62 121.62,7.48 122.07,7.58 122.53,7.69 122.98,8.12 123.43,8.74 123.89,9.08 124.34,8.85 124.80,8.64 125.25,8.65 125.70,8.61 126.16,8.65 126.61,8.95 127.07,9.74 127.52,10.91 127.98,12.51 128.43,13.59 128.88,14.61 129.34,14.70 129.79,15.88 130.25,16.31 130.70,14.58 131.15,13.78 131.61,14.15 132.06,14.23 132.52,13.89 132.97,13.18 133.42,11.31 133.88,9.08 134.33,8.13 134.79,7.64 135.24,7.53 135.70,7.77 136.15,8.41 136.60,9.17 137.06,12.02 137.51,13.17 137.97,15.55 138.42,16.49 138.87,15.63 139.33,15.15 139.78,13.15 140.24,11.55 140.69,11.05 141.14,12.05 141.60,13.14 142.05,14.58 142.51,14.47 142.96,13.64 143.42,12.75 143.87,12.06 144.32,11.30 144.78,10.93 145.23,9.73 145.69,8.91 146.14,9.38 146.59,9.68 147.05,10.06 147.50,10.61 147.96,11.24 148.41,11.75 148.86,11.69 149.32,11.57 149.77,10.64 150.23,55.26 150.68,54.22 151.14,53.95 151.59,53.81 152.04,51.65 152.50,51.45 152.95,50.90 153.41,50.97 153.86,50.86 154.31,48.46 154.77,45.87 155.22,43.76 155.68,44.54 156.13,44.41 156.58,41.66 157.04,42.11 157.49,42.00 157.95,43.67 158.40,45.66 158.86,46.20 159.31,45.41 159.76,48.25 160.22,46.81 160.67,47.71 161.13,45.13 161.58,43.75 162.03,44.65 162.49,43.72 162.94,43.66 163.40,43.84 163.85,41.62 164.30,41.18 164.76,41.85 165.21,40.52 165.67,40.89 166.12,37.97 166.58,35.63 167.03,33.36 167.48,31.60 167.94,30.43 168.39,29.39 168.85,28.39 169.30,28.02 169.75,29.05 170.21,31.02 170.66,30.93 171.12,30.93 171.57,30.26 172.02,28.10 172.48,26.00 172.93,25.34 173.39,23.64 173.84,22.43 174.30,20.60 174.75,19.70 175.20,18.84 175.66,17.16 176.11,16.02 176.57,14.07 177.02,13.07 177.47,10.94 177.93,9.12 178.38,7.97 178.84,8.91 179.29,9.21 179.74,12.98 180.20,15.45 180.65,15.86 181.11,15.40 181.56,13.06 182.02,10.99 182.47,11.66 182.92,10.56 183.38,9.89 183.83,9.09 184.29,8.05 184.74,6.88 185.19,5.69 185.65,4.62 186.10,5.54 186.56,6.50 187.01,7.97 187.47,9.83 187.92,11.92 188.37,14.21 188.83,14.03 189.28,14.12 189.74,14.04 190.19,12.94 190.64,12.62 191.10,12.29 191.55,10.78 192.01,9.55 192.46,9.65 192.91,8.64 193.37,7.84 193.82,8.10 194.28,7.53 194.73,7.75 195.19,8.07 195.64,7.98 196.09,7.98 196.55,8.75 197.00,8.64 197.46,8.20 197.91,8.80 198.36,8.35 198.82,8.65 199.27,8.53 199.73,9.04 200.18,9.99 200.63,11.59 201.09,12.95 201.54,13.57 202.00,15.36 202.45,14.74 202.91,15.82 203.36,16.06 203.81,14.44 204.27,14.52 204.72,14.00 205.18,14.11 205.63,13.45 206.08,12.59 206.54,10.69 206.99,9.11 207.45,8.08 207.90,7.51 208.35,7.66 208.81,7.43 209.26,8.95 209.72,9.88 210.17,11.38 210.63,12.96 211.08,14.58 211.53,16.05 211.99,14.84 212.44,14.74 212.90,12.41 213.35,12.28 213.80,11.71 214.26,12.38 214.71,13.22 215.17,14.14 215.62,14.41 216.07,13.96 216.53,12.83 216.98,12.24 217.44,11.59 217.89,10.96 218.35,9.80 218.80,9.24 219.25,9.22 219.71,9.29 220.16,9.97 220.62,10.78 221.07,10.81 221.52,11.59 221.98,11.43 222.43,11.45 222.89,10.50 223.34,52.57 223.79,52.57 224.25,51.12 224.70,51.12 225.16,51.12 225.61,50.69 226.07,50.69 226.52,50.08 226.97,50.08 227.43,42.35 227.88,42.35 228.34,42.35 228.79,43.97 229.24,43.97 229.70,36.97 230.15,39.78 230.61,39.78 231.06,39.78 231.51,44.65 231.97,44.65 232.42,44.50 232.88,44.50 233.33,44.50 233.79,47.54 234.24,47.54 234.69,43.33 235.15,43.33 235.60,43.33 236.06,41.33 236.51,41.33 236.96,41.33 237.42,41.33 237.87,37.27 238.33,37.27 238.78,37.27 239.23,37.27 239.69,32.09 240.14,32.09 240.60,32.09 241.05,28.98 241.51,28.98 241.96,28.98 242.41,31.21 242.87,31.21 243.32,31.21 243.78,27.26 244.23,27.26 244.68,27.26 245.14,27.26 245.59,21.32 246.05,21.32 246.50,21.32 246.95,18.81 247.41,18.81 247.86,18.81 248.32,15.86 248.77,11.96 249.23,11.96 249.68,11.96 250.13,11.96 250.59,6.14 251.04,6.14 251.50,8.96 251.95,8.96 252.40,10.24 252.86,10.24 253.31,10.24 253.77,11.12 254.22,11.12 254.67,11.12 255.13,11.12 255.58,9.56 256.04,8.31 256.49,8.31 256.95,8.31 257.40,5.70 257.85,5.70 258.31,5.70 258.76,4.00 259.22,4.00 259.67,7.17 260.12,7.17 260.58,7.17 261.03,11.82 261.49,11.82 261.94,11.82 262.40,11.82 262.85,11.95 263.30,12.17 263.76,12.17 264.21,12.17 264.67,11.67 265.12,11.67 265.57,11.67 266.03,8.65 266.48,8.65 266.94,8.65 267.39,9.29 267.84,9.29 268.30,9.29 268.75,8.29 269.21,8.29 269.66,8.29 270.12,8.29 270.57,7.59 271.02,7.59 271.48,8.71 271.93,9.31 272.39,9.31 272.84,9.31 273.29,9.75 273.75,9.75 274.20,12.86 274.66,12.86 275.11,12.86 275.56,12.86 276.02,14.71 276.47,14.71 276.93,14.71 277.38,13.60 277.84,13.60 278.29,13.60 278.74,10.51 279.20,10.51 279.65,10.97 280.11,10.97 280.56,10.97 281.01,7.90 281.47,7.90 281.92,7.90 282.38,7.28 282.83,7.28 283.28,7.28 283.74,10.34 284.19,10.34 284.65,10.34 285.10,12.51 285.56,12.51 286.01,12.51 286.46,12.15 286.92,12.15 287.37,10.73 287.83,12.44 288.28,12.44 288.73,13.91 289.19,13.91 289.64,12.13 290.10,12.13 290.55,12.13 291.00,8.72 291.46,9.16 291.91,9.16 292.37,9.16 292.82,8.33 293.28,8.33 293.73,10.87 294.18,10.66 294.64,10.66 295.09,10.66 295.55,10.43 296.00,11.56" />
</svg>