<svg width="300" height="60" xmlns="http://www.w3.org/2000/svg">
  <polyline fill="rgba(255,200,0,0.3)" stroke="#ffbb00" stroke-width="2" points="4.00,42.64 4.94,43.22 5.89,43.87 6.83,43.93 7.78,44.80 8.72,45.94 9.67,47.73 10.61,48.45 11.56,48.72 12.50,48.49 13.45,48.63 14.39,49.47 15.34,49.48 16.28,49.02 17.23,48.93 18.17,49.15 19.12,49.56 20.06,50.50 21.01,50.54 21.95,49.94 22.90,50.71 23.84,50.41 24.79,49.78 25.73,49.09 26.68,48.34 27.62,48.46 28.57,48.79 29.51,48.06 30.46,47.54 31.40,46.82 32.35,43.68 33.29,43.15 34.24,42.75 35.18,44.12 36.13,45.59 37.07,46.00 38.02,45.90 38.96,45.81 39.91,46.50 40.85,45.91 41.80,44.12 42.74,44.67 43.69,43.84 44.63,45.40 45.58,46.48 46.52,49.54 47.47,50.71 48.41,53.34 49.36,51.49 50.30,4.00 51.25,5.01 52.19,6.14 53.14,6.63 54.08,7.37 55.03,7.18 55.97,8.45 56.92,9.19 57.86,10.57 58.81,12.42 59.75,13.91 60.70,12.22 61.64,12.34 62.59,12.90 63.53,13.76 64.48,14.96 65.42,15.93 66.37,17.09 67.31,17.89 68.26,18.71 69.20,19.49 70.15,20.14 71.09,21.28 72.04,22.49 72.98,23.30 73.93,23.93 74.87,24.46 75.82,24.95 76.76,26.19 77.71,26.79 78.65,27.63 79.60,28.94 80.54,30.27 81.49,30.58 82.43,31.06 83.38,31.58 84.32,30.90 85.27,31.61 86.21,31.54 87.16,30.94 88.10,31.17 89.05,31.71 89.99,31.45 90.94,33.17 91.88,34.66 92.83,34.84 93.77,35.89 94.72,36.61 95.66,38.47 96.61,40.01 97.55,41.79 98.50,43.12 99.44,43.02 100.39,42.67 101.33,42.64 102.28,4.75 103.22,5.13 104.17,5.55 105.11,6.94 106.06,7.91 107.00,7.26 107.95,8.52 108.89,7.30 109.84,8.86 110.78,12.62 111.73,13.63 112.67,14.08 113.62,11.74 114.56,12.64 115.51,14.00 116.45,14.00 117.40,15.70 118.34,17.37 119.29,16.05 120.23,17.62 121.18,19.11 122.12,20.49 123.07,21.88 124.01,21.68 124.96,23.14 125.90,24.26 126.85,25.13 127.79,26.83 128.74,26.03 129.68,27.15 130.63,28.37 131.57,29.38 132.52,30.35 133.46,30.84 134.41,31.05 135.35,31.40 136.30,31.78 137.24,32.43 138.19,31.18 139.13,31.18 140.08,31.42 141.02,32.05 141.97,32.64 142.91,33.34 143.86,34.62 144.80,35.18 145.75,34.67 146.69,34.50 147.64,38.92 148.58,40.31 149.53,42.78 150.47,42.82 151.42,42.12 152.36,42.61 153.31,44.38 154.25,43.69 155.20,44.95 156.14,44.42 157.09,44.53 158.03,47.07 158.98,48.04 159.92,48.43 160.87,48.15 161.81,49.36 162.76,49.53 163.70,49.71 164.65,49.36 165.59,48.70 166.54,48.63 167.48,48.87 168.43,49.53 169.37,50.30 170.32,50.30 171.26,51.24 172.21,50.82 173.15,50.33 174.10,49.78 175.04,49.78 175.99,49.94 176.93,50.36 177.88,48.62 178.82,48.34 179.77,47.29 180.71,47.29 181.66,45.27 182.60,43.26 183.55,46.18 184.49,46.18 185.44,45.97 186.38,45.97 187.33,45.10 188.27,47.85 189.22,46.39 190.16,48.44 191.11,45.73 192.05,47.36 193.00,42.70 193.94,45.42 194.89,43.50 195.83,47.82 196.78,50.43 197.72,51.87 198.67,51.69 199.61,6.51 200.56,6.51 201.50,6.51 202.45,8.74 203.39,8.74 204.34,8.74 205.28,12.74 206.23,5.92 207.17,5.92 208.12,14.83 209.06,14.83 210.01,14.83 210.95,18.31 211.90,18.31 212.84,18.31 213.79,18.31 214.73,21.09 215.68,21.09 216.62,15.42 217.57,20.01 218.51,20.01 219.46,20.01 220.40,24.08 221.35,24.08 222.29,24.08 223.24,26.69 224.18,26.69 225.13,26.69 226.07,28.08 227.02,28.08 227.96,28.08 228.91,28.61 229.85,28.61 230.80,28.61 231.74,30.97 232.69,30.97 233.63,30.97 234.58,31.74 235.52,31.74 236.47,31.74 237.41,31.74 238.36,34.24 239.30,34.24 240.25,34.24 241.19,36.68 242.14,36.68 243.08,36.68 244.03,39.60 244.97,39.60 245.92,39.60 246.86,44.68 247.81,44.68 248.75,44.68 249.70,42.38 250.64,42.38 251.59,42.38 252.53,47.29 253.48,48.47 254.42,48.47 255.37,48.47 256.31,49.20 257.26,49.20 258.20,49.20 259.15,48.64 260.09,48.64 261.04,48.64 261.98,48.09 262.93,48.09 263.87,48.09 264.82,49.83 265.76,49.83 266.71,49.83 267.65,49.83 268.60,52.58 269.54,52.58 270.49,52.58 271.43,52.59 272.38,52.59 273.32,52.59 274.27,52.59 275.21,47.82 276.16,52.56 277.10,52.56 278.05,52.56 278.99,45.00 279.94,51.72 280.88,51.72 281.83,51.72 282.77,51.34 283.72,51.34 284.66,51.34 285.61,51.34 286.55,56.00 287.50,56.00 288.44,45.28 289.39,51.02 290.33,51.02 291.28,51.02 292.22,51.02 293.17,55.41 294.11,55.41 295.06,55.41 296.00,52.87" />
</svg>