<svg width="300" height="60" xmlns="http://www.w3.org/2000/svg">
  <polyline fill="rgba(255,200,0,0.3)" stroke="#ffbb00" stroke-width="2" points="4.00,40.24 4.74,53.91 5.47,54.22 6.21,55.12 6.95,54.36 7.69,53.02 8.42,50.93 9.16,49.37 9.90,47.98 10.64,46.39 11.37,44.85 12.11,43.37 12.85,42.41 13.59,41.30 14.32,39.78 15.06,37.93 15.80,36.59 16.54,35.35 17.27,34.06 18.01,33.75 18.75,32.97 19.48,31.71 20.22,31.42 20.96,30.69 21.70,29.78 22.43,27.80 23.17,26.95 23.91,27.74 24.65,29.50 25.38,31.00 26.12,30.38 26.86,29.35 27.60,28.49 28.33,28.39 29.07,28.47 29.81,29.74 30.55,31.17 31.28,30.73 32.02,28.63 32.76,27.54 33.49,27.31 34.23,26.69 34.97,25.92 35.71,25.35 36.44,24.90 37.18,24.08 37.92,22.65 38.66,21.44 39.39,18.92 40.13,16.78 40.87,14.68 41.61,12.76 42.34,11.26 43.08,9.86 43.82,8.65 44.56,6.19 45.29,4.79 46.03,4.00 46.77,4.94 47.51,6.45 48.24,8.50 48.98,10.76 49.72,12.69 50.45,14.33 51.19,15.86 51.93,17.42 52.67,18.59 53.40,19.90 54.14,21.36 54.88,22.96 55.62,24.46 56.35,25.90 57.09,27.48 57.83,28.38 58.57,29.58 59.30,30.16 60.04,30.84 60.78,31.63 61.52,32.09 62.25,33.17 62.99,34.22 63.73,35.81 64.46,36.66 65.20,37.32 65.94,37.82 66.68,38.49 67.41,38.96 68.15,38.75 68.89,37.94 69.63,37.49 70.36,37.24 71.10,37.16 71.84,36.86 72.58,37.16 73.31,38.05 74.05,39.33 74.79,40.16 75.53,40.53 76.26,40.71 77.00,40.22 77.74,54.30 78.47,54.36 79.21,56.00 79.95,54.79 80.69,53.32 81.42,51.75 82.16,49.63 82.90,47.99 83.64,46.64 84.37,45.15 85.11,44.08 85.85,43.28 86.59,41.75 87.32,40.24 88.06,38.36 88.80,36.86 89.54,35.74 90.27,34.30 91.01,34.41 91.75,32.99 92.48,31.67 93.22,31.95 93.96,31.50 94.70,30.01 95.43,28.09 96.17,27.16 96.91,27.84 97.65,29.51 98.38,31.72 99.12,30.61 99.86,30.22 100.60,29.23 101.33,28.97 102.07,28.94 102.81,29.50 103.55,31.17 104.28,30.76 105.02,29.16 105.76,28.20 106.49,27.35 107.23,26.67 107.97,26.67 108.71,25.50 109.44,24.92 110.18,24.24 110.92,22.89 111.66,20.46 112.39,18.57 113.13,16.79 113.87,14.11 114.61,13.01 115.34,10.71 116.08,9.18 116.82,7.93 117.56,5.86 118.29,5.04 119.03,4.26 119.77,5.64 120.51,6.99 121.24,8.23 121.98,10.62 122.72,12.87 123.45,14.47 124.19,16.08 124.93,17.50 125.67,18.93 126.40,19.86 127.14,21.14 127.88,22.78 128.62,24.36 129.35,25.93 130.09,27.35 130.83,27.99 131.57,29.41 132.30,30.34 133.04,31.13 133.78,31.88 134.52,32.60 135.25,33.06 135.99,34.69 136.73,36.57 137.46,37.11 138.20,37.50 138.94,38.02 139.68,38.81 140.41,39.27 141.15,38.81 141.89,38.27 142.63,37.77 143.36,37.58 144.10,37.40 144.84,37.12 145.58,37.06 146.31,38.09 147.05,39.15 147.79,40.26 148.53,41.00 149.26,40.97 150.00,40.47 150.74,54.08 151.47,54.26 152.21,55.83 152.95,53.16 153.69,52.23 154.42,51.56 155.16,49.66 155.90,48.31 156.64,46.81 157.37,45.64 158.11,44.36 158.85,40.83 159.59,38.20 160.32,39.64 161.06,37.44 161.80,37.01 162.54,34.84 163.27,35.02 164.01,32.85 164.75,33.95 165.48,30.18 166.22,30.33 166.96,30.40 167.70,29.87 168.43,27.23 169.17,25.28 169.91,27.79 170.65,27.79 171.38,31.03 172.12,27.72 172.86,31.10 173.60,30.50 174.33,26.33 175.07,26.77 175.81,24.60 176.55,30.22 177.28,27.16 178.02,29.33 178.76,27.27 179.49,26.91 180.23,24.00 180.97,26.17 181.71,25.92 182.44,25.24 183.18,24.18 183.92,25.10 184.66,21.27 185.39,20.38 186.13,16.33 186.87,15.51 187.61,12.49 188.34,10.81 189.08,9.85 189.82,7.29 190.56,7.29 191.29,4.80 192.03,4.65 192.77,4.86 193.51,6.68 194.24,6.68 194.98,9.10 195.72,11.09 196.45,12.98 197.19,15.75 197.93,16.92 198.67,17.74 199.40,18.74 200.14,21.02 200.88,22.26 201.62,23.79 202.35,25.29 203.09,27.24 203.83,28.20 204.57,29.12 205.30,29.87 206.04,31.75 206.78,32.00 207.52,33.03 208.25,33.10 208.99,33.96 209.73,35.10 210.46,37.09 211.20,36.43 211.94,37.42 212.68,38.78 213.41,37.96 214.15,38.60 214.89,39.03 215.63,36.73 216.36,37.41 217.10,37.41 217.84,36.28 218.58,36.28 219.31,37.66 220.05,37.66 220.79,38.98 221.53,40.62 222.26,40.15 223.00,40.55 223.74,52.99 224.47,52.99 225.21,52.99 225.95,50.32 226.69,50.32 227.42,50.32 228.16,46.80 228.90,46.80 229.64,46.80 230.37,41.82 231.11,41.82 231.85,34.38 232.59,34.38 233.32,34.38 234.06,25.59 234.80,25.59 235.54,25.59 236.27,35.36 237.01,26.84 237.75,26.84 238.48,26.38 239.22,26.38 239.96,26.38 240.70,26.98 241.43,26.98 242.17,19.94 242.91,19.94 243.65,19.94 244.38,23.18 245.12,23.18 245.86,23.18 246.60,23.18 247.33,12.04 248.07,25.49 248.81,25.49 249.55,18.34 250.28,18.34 251.02,18.34 251.76,28.16 252.49,21.01 253.23,21.01 253.97,21.01 254.71,27.02 255.44,27.02 256.18,31.11 256.92,31.11 257.66,21.36 258.39,19.55 259.13,19.55 259.87,19.55 260.61,19.03 261.34,13.86 262.08,13.86 262.82,10.67 263.56,10.67 264.29,6.75 265.03,6.75 265.77,6.75 266.51,7.29 267.24,7.29 267.98,7.29 268.72,7.29 269.45,13.80 270.19,13.80 270.93,13.80 271.67,18.21 272.40,18.21 273.14,23.19 273.88,26.46 274.62,26.46 275.35,26.46 276.09,29.56 276.83,29.56 277.57,29.56 278.30,31.98 279.04,31.98 279.78,31.98 280.52,35.25 281.25,37.78 281.99,37.78 282.73,37.78 283.46,36.78 284.20,36.78 284.94,36.78 285.68,39.63 286.41,37.28 287.15,37.28 287.89,36.46 288.63,36.46 289.36,36.46 290.10,36.46 290.84,37.57 291.58,37.96 292.31,37.96 293.05,37.96 293.79,39.74 294.53,39.74 295.26,42.01 296.00,41.16" />
</svg>