<svg width="300" height="60" xmlns="http://www.w3.org/2000/svg">
  <polyline fill="rgba(255,200,0,0.3)" stroke="#ffbb00" stroke-width="2" points="4.00,43.48 5.22,43.12 6.44,41.96 7.67,41.44 8.89,41.33 10.11,40.75 11.33,40.67 12.55,40.99 13.77,40.61 15.00,39.93 16.22,39.45 17.44,38.74 18.66,38.40 19.88,36.09 21.10,35.87 22.33,34.53 23.55,30.71 24.77,28.02 25.99,27.21 27.21,23.59 28.44,21.88 29.66,23.55 30.88,25.82 32.10,21.96 33.32,16.65 34.54,14.32 35.77,13.08 36.99,13.87 38.21,14.63 39.43,13.39 40.65,13.43 41.87,18.74 43.10,20.71 44.32,18.89 45.54,14.14 46.76,9.23 47.98,5.68 49.21,5.09 50.43,7.28 51.65,9.78 52.87,10.58 54.09,10.78 55.31,12.50 56.54,14.22 57.76,16.40 58.98,21.34 60.20,26.84 61.42,36.12 62.64,43.32 63.87,43.05 65.09,41.96 66.31,41.44 67.53,41.32 68.75,40.73 69.97,40.65 71.20,40.90 72.42,40.61 73.64,39.91 74.86,39.56 76.08,39.00 77.31,38.11 78.53,35.93 79.75,36.04 80.97,33.96 82.19,30.45 83.41,27.93 84.64,27.09 85.86,23.38 87.08,21.74 88.30,23.05 89.52,25.42 90.74,21.78 91.97,16.67 93.19,13.99 94.41,12.97 95.63,13.87 96.85,14.05 98.08,13.11 99.30,14.06 100.52,18.66 101.74,20.86 102.96,18.00 104.18,13.92 105.41,8.88 106.63,5.69 107.85,5.15 109.07,7.24 110.29,9.97 111.51,10.46 112.74,10.73 113.96,12.61 115.18,14.08 116.40,16.56 117.62,21.35 118.85,26.47 120.07,36.12 121.29,43.63 122.51,42.91 123.73,41.70 124.95,41.51 126.18,41.27 127.40,40.78 128.62,40.72 129.84,40.04 131.06,40.64 132.28,39.81 133.51,39.96 134.73,38.64 135.95,38.06 137.17,35.58 138.39,33.78 139.62,32.58 140.84,29.90 142.06,28.13 143.28,26.18 144.50,23.07 145.72,21.49 146.95,21.39 148.17,23.97 149.39,19.91 150.61,16.61 151.83,9.94 153.05,11.11 154.28,13.64 155.50,13.38 156.72,12.65 157.94,14.30 159.16,17.30 160.38,20.36 161.61,17.88 162.83,13.43 164.05,8.50 165.27,5.82 166.49,5.63 167.72,7.35 168.94,9.81 170.16,10.35 171.38,10.47 172.60,11.93 173.82,13.90 175.05,15.35 176.27,21.09 177.49,25.71 178.71,35.67 179.93,43.38 181.15,42.70 182.38,42.22 183.60,42.70 184.82,42.12 186.04,41.49 187.26,40.34 188.49,39.02 189.71,41.16 190.93,37.17 192.15,43.20 193.37,44.90 194.59,39.60 195.82,42.33 197.04,39.55 198.26,32.44 199.48,27.92 200.70,28.89 201.92,22.67 203.15,24.81 204.37,21.94 205.59,24.90 206.81,24.90 208.03,21.55 209.26,15.62 210.48,11.29 211.70,8.90 212.92,17.41 214.14,15.96 215.36,12.70 216.59,16.49 217.81,18.54 219.03,23.26 220.25,17.03 221.47,12.99 222.69,7.98 223.92,6.57 225.14,6.43 226.36,9.93 227.58,11.18 228.80,10.74 230.03,11.56 231.25,13.02 232.47,16.71 233.69,16.81 234.91,22.99 236.13,29.46 237.36,37.04 238.58,49.01 239.80,49.01 241.02,46.23 242.24,46.23 243.46,46.23 244.69,43.75 245.91,43.75 247.13,36.36 248.35,36.36 249.57,36.36 250.79,53.38 252.02,42.66 253.24,42.66 254.46,42.66 255.68,31.23 256.90,31.23 258.13,15.67 259.35,30.36 260.57,30.36 261.79,30.36 263.01,11.64 264.23,32.41 265.46,32.41 266.68,18.54 267.90,18.54 269.12,18.54 270.34,14.31 271.56,14.31 272.79,14.31 274.01,4.00 275.23,22.24 276.45,22.24 277.67,22.24 278.90,10.71 280.12,12.51 281.34,12.51 282.56,11.98 283.78,11.98 285.00,11.98 286.23,15.63 287.45,15.63 288.67,15.63 289.89,15.63 291.11,30.17 292.33,30.17 293.56,30.17 294.78,30.17 296.00,56.00" />
</svg>