<svg width="300" height="60" xmlns="http://www.w3.org/2000/svg">
  <polyline fill="rgba(255,200,0,0.3)" stroke="#ffbb00" stroke-width="2" points="4.00,55.25 5.93,52.50 7.87,48.96 9.80,45.83 11.74,41.20 13.67,37.90 15.60,36.89 17.54,35.07 19.47,36.51 21.40,37.99 23.34,37.64 25.27,36.19 27.21,35.07 29.14,34.52 31.07,35.68 33.01,36.82 34.94,39.01 36.87,41.10 38.81,38.43 40.74,34.54 42.68,31.20 44.61,26.80 46.54,23.96 48.48,22.73 50.41,18.25 52.34,15.48 54.28,14.50 56.21,14.57 58.15,16.87 60.08,17.94 62.01,17.67 63.95,14.77 65.88,11.11 67.81,9.75 69.75,9.09 71.68,10.58 73.62,9.11 75.55,8.67 77.48,56.00 79.42,53.52 81.35,48.92 83.28,46.17 85.22,41.06 87.15,39.68 89.09,36.22 91.02,36.29 92.95,36.85 94.89,38.35 96.82,38.50 98.75,36.85 100.69,35.95 102.62,35.50 104.56,36.21 106.49,37.26 108.42,39.67 110.36,40.45 112.29,39.33 114.23,35.42 116.16,32.62 118.09,28.33 120.03,25.48 121.96,25.17 123.89,18.85 125.83,16.22 127.76,14.19 129.70,14.98 131.63,16.78 133.56,18.13 135.50,17.41 137.43,16.13 139.36,11.40 141.30,10.25 143.23,9.79 145.17,10.71 147.10,9.52 149.03,8.61 150.97,52.62 152.90,51.12 154.83,43.26 156.77,45.44 158.70,40.41 160.64,36.58 162.57,35.52 164.50,36.27 166.44,38.15 168.37,38.83 170.30,37.63 172.24,36.07 174.17,35.54 176.11,35.61 178.04,36.67 179.97,38.62 181.91,41.78 183.84,39.90 185.77,39.90 187.71,35.16 189.64,27.63 191.58,27.56 193.51,23.57 195.44,19.82 197.38,16.17 199.31,16.17 201.25,14.14 203.18,14.36 205.11,16.77 207.05,19.17 208.98,18.01 210.91,13.12 212.85,10.19 214.78,6.89 216.72,7.94 218.65,11.17 220.58,8.24 222.52,9.14 224.45,46.05 226.38,46.05 228.32,46.05 230.25,46.65 232.19,38.83 234.12,38.83 236.05,38.83 237.99,40.58 239.92,40.58 241.85,40.58 243.79,40.20 245.72,40.20 247.66,40.20 249.59,46.59 251.52,46.59 253.46,46.59 255.39,37.35 257.32,37.35 259.26,37.35 261.19,37.35 263.13,29.16 265.06,22.47 266.99,22.47 268.93,22.47 270.86,26.22 272.79,26.22 274.73,26.22 276.66,26.22 278.60,27.65 280.53,27.65 282.46,27.65 284.40,12.17 286.33,12.17 288.26,12.17 290.20,4.00 292.13,15.80 294.07,15.80 296.00,15.80" />
</svg>