<svg width="300" height="60" xmlns="http://www.w3.org/2000/svg">
  <polyline fill="rgba(255,200,0,0.3)" stroke="#ffbb00" stroke-width="2" points="4.00,55.67 4.34,56.00 4.68,55.77 5.02,55.37 5.36,54.74 5.70,54.74 6.04,54.51 6.39,54.99 6.73,54.98 7.07,54.53 7.41,54.01 7.75,53.63 8.09,53.67 8.43,53.63 8.77,53.16 9.11,52.82 9.45,52.59 9.79,52.03 10.13,51.80 10.47,51.49 10.81,51.24 11.16,50.58 11.50,49.74 11.84,49.09 12.18,48.07 12.52,46.28 12.86,44.28 13.20,42.98 13.54,41.90 13.88,40.90 14.22,40.81 14.56,41.15 14.90,42.36 15.24,43.17 15.58,44.60 15.93,46.72 16.27,49.14 16.61,51.50 16.95,51.38 17.29,50.90 17.63,51.09 17.97,50.87 18.31,50.88 18.65,50.76 18.99,50.65 19.33,50.46 19.67,50.47 20.01,50.41 20.35,50.41 20.70,50.40 21.04,50.28 21.38,50.08 21.72,49.68 22.06,49.45 22.40,49.67 22.74,49.46 23.08,49.22 23.42,48.96 23.76,48.80 24.10,48.57 24.44,48.70 24.78,48.50 25.12,48.24 25.47,48.27 25.81,48.14 26.15,47.98 26.49,47.83 26.83,47.20 27.17,47.11 27.51,46.89 27.85,46.88 28.19,47.05 28.53,46.72 28.87,46.29 29.21,45.68 29.55,44.76 29.89,43.67 30.24,42.32 30.58,41.58 30.92,41.22 31.26,41.20 31.60,41.23 31.94,41.44 32.28,42.28 32.62,42.86 32.96,43.18 33.30,43.49 33.64,43.78 33.98,43.97 34.32,43.99 34.67,43.99 35.01,43.96 35.35,43.85 35.69,43.88 36.03,43.63 36.37,42.13 36.71,40.81 37.05,40.21 37.39,40.26 37.73,40.93 38.07,41.56 38.41,41.57 38.75,41.53 39.09,41.36 39.44,41.03 39.78,41.09 40.12,41.98 40.46,42.50 40.80,42.57 41.14,42.22 41.48,42.01 41.82,41.81 42.16,41.30 42.50,41.09 42.84,41.17 43.18,41.13 43.52,41.03 43.86,40.89 44.21,40.29 44.55,39.50 44.89,38.61 45.23,37.96 45.57,37.39 45.91,36.90 46.25,36.53 46.59,36.37 46.93,35.87 47.27,35.40 47.61,35.14 47.95,34.72 48.29,34.31 48.63,33.90 48.98,33.56 49.32,33.17 49.66,33.14 50.00,33.24 50.34,33.26 50.68,33.16 51.02,33.67 51.36,34.57 51.70,35.23 52.04,34.85 52.38,34.68 52.72,34.22 53.06,33.85 53.40,33.19 53.75,32.12 54.09,31.52 54.43,31.04 54.77,30.90 55.11,30.84 55.45,31.03 55.79,31.41 56.13,31.37 56.47,31.44 56.81,31.45 57.15,31.04 57.49,30.59 57.83,30.19 58.18,29.80 58.52,29.89 58.86,29.53 59.20,30.03 59.54,30.12 59.88,30.35 60.22,30.50 60.56,30.74 60.90,30.73 61.24,30.25 61.58,29.41 61.92,28.70 62.26,28.21 62.60,27.53 62.95,26.71 63.29,25.96 63.63,25.39 63.97,25.23 64.31,25.56 64.65,26.11 64.99,27.41 65.33,29.27 65.67,29.79 66.01,29.66 66.35,29.06 66.69,28.01 67.03,27.07 67.37,26.08 67.72,25.35 68.06,24.88 68.40,23.83 68.74,23.13 69.08,22.76 69.42,22.76 69.76,23.34 70.10,24.01 70.44,24.43 70.78,24.53 71.12,25.56 71.46,27.71 71.80,28.26 72.14,28.22 72.49,27.63 72.83,26.86 73.17,26.09 73.51,25.46 73.85,24.08 74.19,23.02 74.53,22.29 74.87,21.39 75.21,20.93 75.55,20.56 75.89,20.67 76.23,20.60 76.57,20.46 76.91,19.20 77.26,17.98 77.60,16.99 77.94,16.45 78.28,16.24 78.62,16.68 78.96,17.25 79.30,17.08 79.64,16.74 79.98,16.18 80.32,15.26 80.66,13.91 81.00,13.08 81.34,12.26 81.68,10.82 82.03,9.57 82.37,8.29 82.71,7.51 83.05,6.64 83.39,5.99 83.73,5.42 84.07,4.95 84.41,4.77 84.75,4.89 85.09,4.73 85.43,4.61 85.77,4.76 86.11,5.78 86.46,6.43 86.80,7.01 87.14,7.64 87.48,8.34 87.82,7.37 88.16,8.25 88.50,8.94 88.84,9.58 89.18,10.53 89.52,11.51 89.86,12.36 90.20,13.11 90.54,13.38 90.88,13.55 91.23,13.75 91.57,14.03 91.91,13.93 92.25,13.91 92.59,14.20 92.93,14.82 93.27,15.14 93.61,14.89 93.95,14.65 94.29,14.25 94.63,14.55 94.97,14.49 95.31,13.45 95.65,11.96 96.00,11.44 96.34,11.47 96.68,10.66 97.02,10.80 97.36,11.13 97.70,11.76 98.04,12.26 98.38,12.34 98.72,12.69 99.06,13.20 99.40,13.37 99.74,13.29 100.08,12.90 100.42,12.30 100.77,11.89 101.11,9.75 101.45,55.80 101.79,55.80 102.13,55.46 102.47,55.49 102.81,55.44 103.15,54.26 103.49,54.64 103.83,53.80 104.17,54.52 104.51,54.72 104.85,53.87 105.19,53.02 105.54,53.43 105.88,52.89 106.22,52.29 106.56,52.29 106.90,52.23 107.24,52.01 107.58,50.56 107.92,50.47 108.26,51.32 108.60,50.50 108.94,49.60 109.28,48.94 109.62,47.15 109.96,44.87 110.31,44.87 110.65,43.00 110.99,41.92 111.33,38.89 111.67,41.16 112.01,40.20 112.35,39.42 112.69,42.19 113.03,42.30 113.37,45.35 113.71,48.05 114.05,51.30 114.39,51.39 114.74,50.85 115.08,50.79 115.42,50.63 115.76,50.52 116.10,50.47 116.44,50.36 116.78,50.29 117.12,50.18 117.46,49.98 117.80,49.71 118.14,49.27 118.48,49.16 118.82,50.09 119.16,49.94 119.51,49.78 119.85,48.78 120.19,48.78 120.53,48.73 120.87,48.63 121.21,48.56 121.55,48.56 121.89,48.56 122.23,48.36 122.57,48.21 122.91,48.10 123.25,48.00 123.59,47.89 123.93,47.58 124.28,47.35 124.62,47.18 124.96,46.91 125.30,47.27 125.64,47.20 125.98,46.67 126.32,46.22 126.66,45.62 127.00,44.80 127.34,43.90 127.68,42.99 128.02,41.56 128.36,41.31 128.70,41.16 129.05,41.18 129.39,41.38 129.73,41.91 130.07,42.91 130.41,43.22 130.75,43.46 131.09,43.73 131.43,43.98 131.77,44.06 132.11,44.06 132.45,44.03 132.79,43.96 133.13,43.94 133.47,43.71 133.82,41.71 134.16,40.82 134.50,40.37 134.84,40.20 135.18,40.85 135.52,41.72 135.86,41.83 136.20,41.47 136.54,41.61 136.88,40.89 137.22,41.18 137.56,41.57 137.90,42.64 138.25,42.64 138.59,41.68 138.93,42.30 139.27,42.04 139.61,41.24 139.95,41.53 140.29,41.20 140.63,41.08 140.97,41.31 141.31,40.68 141.65,40.01 141.99,39.28 142.33,38.63 142.67,38.01 143.02,37.87 143.36,36.54 143.70,36.27 144.04,36.08 144.38,35.90 144.72,35.59 145.06,35.37 145.40,34.86 145.74,34.52 146.08,34.28 146.42,33.88 146.76,33.25 147.10,33.28 147.44,33.25 147.79,33.32 148.13,33.21 148.47,33.90 148.81,33.90 149.15,34.93 149.49,35.19 149.83,34.90 150.17,34.18 150.51,33.78 150.85,33.25 151.19,32.56 151.53,31.98 151.87,31.67 152.21,30.64 152.56,30.82 152.90,31.20 153.24,31.67 153.58,32.02 153.92,32.18 154.26,31.07 154.60,30.84 154.94,30.60 155.28,30.49 155.62,30.49 155.96,30.53 156.30,29.20 156.64,29.54 156.98,30.03 157.33,30.61 157.67,31.10 158.01,31.45 158.35,30.18 158.69,30.16 159.03,29.73 159.37,29.11 159.71,28.68 160.05,27.32 160.39,26.83 160.73,26.25 161.07,25.32 161.41,25.27 161.75,25.44 162.10,25.82 162.44,27.57 162.78,28.66 163.12,29.84 163.46,29.46 163.80,29.46 164.14,28.28 164.48,27.66 164.82,26.55 165.16,25.40 165.50,25.51 165.84,24.13 166.18,22.93 166.53,23.17 166.87,22.95 167.21,24.17 167.55,24.75 167.89,23.73 168.23,25.18 168.57,25.87 168.91,27.79 169.25,28.50 169.59,28.14 169.93,28.16 170.27,27.16 170.61,26.05 170.95,25.67 171.30,24.04 171.64,23.23 171.98,22.64 172.32,21.45 172.66,21.50 173.00,20.96 173.34,20.74 173.68,20.74 174.02,20.27 174.36,18.96 174.70,18.38 175.04,17.05 175.38,17.05 175.72,16.21 176.07,16.16 176.41,17.34 176.75,17.05 177.09,16.43 177.43,16.43 177.77,15.43 178.11,14.71 178.45,13.40 178.79,11.78 179.13,10.71 179.47,9.28 179.81,7.63 180.15,8.68 180.49,6.90 180.84,6.09 181.18,5.60 181.52,4.34 181.86,5.72 182.20,4.94 182.54,4.50 182.88,4.38 183.22,4.81 183.56,5.01 183.90,6.50 184.24,6.95 184.58,8.00 184.92,7.66 185.26,7.42 185.61,8.96 185.95,9.02 186.29,9.85 186.63,10.09 186.97,11.54 187.31,12.34 187.65,13.26 187.99,13.35 188.33,13.80 188.67,13.71 189.01,14.22 189.35,14.22 189.69,13.71 190.04,14.29 190.38,15.13 190.72,14.78 191.06,15.10 191.40,14.55 191.74,14.30 192.08,14.24 192.42,14.90 192.76,14.15 193.10,12.79 193.44,11.27 193.78,11.54 194.12,10.00 194.46,11.54 194.81,11.69 195.15,12.16 195.49,12.63 195.83,12.63 196.17,13.39 196.51,13.32 196.85,13.36 197.19,13.66 197.53,13.19 197.87,12.36 198.21,11.54 198.55,10.09 198.89,54.49 199.23,54.07 199.58,54.07 199.92,54.07 200.26,54.73 200.60,48.27 200.94,48.27 201.28,51.46 201.62,51.46 201.96,51.46 202.30,53.60 202.64,49.59 202.98,49.59 203.32,51.01 203.66,51.01 204.00,51.01 204.35,46.02 204.69,50.34 205.03,50.34 205.37,47.87 205.71,47.87 206.05,47.87 206.39,49.59 206.73,44.29 207.07,44.29 207.41,44.29 207.75,44.29 208.09,37.81 208.43,37.81 208.77,37.81 209.12,37.81 209.46,34.60 209.80,34.60 210.14,34.60 210.48,42.84 210.82,42.84 211.16,42.84 211.50,49.52 211.84,49.52 212.18,49.75 212.52,49.75 212.86,49.75 213.20,49.97 213.54,49.97 213.89,49.21 214.23,49.21 214.57,49.21 214.91,47.31 215.25,47.31 215.59,46.18 215.93,46.18 216.27,50.10 216.61,49.77 216.95,49.77 217.29,47.05 217.63,47.89 217.97,47.89 218.32,47.49 218.66,47.49 219.00,47.49 219.34,46.71 219.68,46.71 220.02,45.80 220.36,45.80 220.70,45.80 221.04,45.73 221.38,45.73 221.72,46.19 222.06,46.19 222.40,46.19 222.74,47.30 223.09,47.30 223.43,46.61 223.77,46.61 224.11,46.61 224.45,44.74 224.79,44.74 225.13,44.74 225.47,42.36 225.81,42.36 226.15,41.44 226.49,41.44 226.83,41.44 227.17,42.09 227.51,42.09 227.86,43.16 228.20,43.16 228.54,43.16 228.88,43.82 229.22,43.82 229.56,44.00 229.90,44.00 230.24,44.00 230.58,43.60 230.92,43.60 231.26,41.84 231.60,41.84 231.94,41.84 232.28,40.61 232.63,40.61 232.97,40.61 233.31,41.41 233.65,40.92 233.99,40.92 234.33,40.92 234.67,41.77 235.01,41.77 235.35,41.77 235.69,42.15 236.03,42.15 236.37,42.15 236.71,42.15 237.05,38.74 237.40,41.88 237.74,41.88 238.08,40.86 238.42,40.86 238.76,40.42 239.10,40.42 239.44,40.42 239.78,38.66 240.12,38.66 240.46,38.66 240.80,36.74 241.14,36.74 241.48,35.63 241.82,35.63 242.17,35.63 242.51,35.09 242.85,35.09 243.19,35.09 243.53,35.02 243.87,35.02 244.21,34.22 244.55,34.22 244.89,34.22 245.23,33.61 245.57,33.61 245.91,33.61 246.25,33.61 246.60,33.65 246.94,34.81 247.28,34.81 247.62,34.81 247.96,34.32 248.30,34.32 248.64,34.32 248.98,33.09 249.32,33.09 249.66,33.09 250.00,32.89 250.34,32.89 250.68,32.89 251.02,33.78 251.37,33.78 251.71,30.67 252.05,30.69 252.39,30.69 252.73,30.69 253.07,30.69 253.41,30.58 253.75,30.58 254.09,30.58 254.43,31.69 254.77,31.69 255.11,31.69 255.45,32.52 255.79,32.52 256.14,32.52 256.48,31.58 256.82,31.58 257.16,31.58 257.50,27.28 257.84,27.28 258.18,27.28 258.52,25.97 258.86,25.97 259.20,25.97 259.54,25.97 259.88,27.64 260.22,27.64 260.56,27.64 260.91,29.72 261.25,29.72 261.59,28.36 261.93,28.36 262.27,27.56 262.61,27.56 262.95,27.56 263.29,23.97 263.63,24.33 263.97,24.33 264.31,24.33 264.65,25.82 264.99,23.39 265.33,23.39 265.68,23.39 266.02,27.53 266.36,26.48 266.70,26.48 267.04,26.48 267.38,28.49 267.72,28.49 268.06,26.62 268.40,25.53 268.74,25.53 269.08,25.53 269.42,25.53 269.76,21.67 270.11,21.67 270.45,21.67 270.79,22.54 271.13,22.54 271.47,19.44 271.81,19.44 272.15,19.71 272.49,19.71 272.83,19.71 273.17,16.16 273.51,17.19 273.85,17.19 274.19,17.19 274.53,16.25 274.88,16.25 275.22,16.25 275.56,16.25 275.90,15.72 276.24,12.13 276.58,12.13 276.92,9.06 277.26,9.06 277.60,12.51 277.94,12.51 278.28,7.23 278.62,7.23 278.96,7.23 279.30,10.46 279.65,7.74 279.99,7.74 280.33,7.74 280.67,7.50 281.01,4.00 281.35,4.00 281.69,7.70 282.03,7.70 282.37,7.70 282.71,9.82 283.05,9.82 283.39,9.82 283.73,9.82 284.07,10.37 284.42,12.87 284.76,12.87 285.10,12.87 285.44,13.18 285.78,14.94 286.12,14.94 286.46,14.85 286.80,14.85 287.14,14.85 287.48,15.59 287.82,15.59 288.16,13.63 288.50,13.63 288.84,14.98 289.19,14.98 289.53,14.98 289.87,14.43 290.21,14.43 290.55,14.43 290.89,11.22 291.23,15.41 291.57,15.41 291.91,15.41 292.25,11.76 292.59,15.93 292.93,15.93 293.27,15.93 293.61,13.52 293.96,13.52 294.30,13.52 294.64,13.61 294.98,13.61 295.32,13.61 295.66,10.71 296.00,10.87" />
</svg>