<svg width="300" height="60" xmlns="http://www.w3.org/2000/svg">
  <polyline fill="rgba(255,200,0,0.3)" stroke="#ffbb00" stroke-width="2" points="4.00,13.18 4.05,12.94 4.10,12.81 4.15,13.30 4.19,14.00 4.24,14.67 4.29,15.31 4.34,15.94 4.39,16.64 4.44,17.26 4.48,17.37 4.53,17.62 4.58,17.78 4.63,17.95 4.68,18.14 4.73,18.22 4.78,18.12 4.82,18.10 4.87,18.12 4.92,18.32 4.97,18.60 5.02,18.87 5.07,19.10 5.11,19.33 5.16,19.38 5.21,19.68 5.26,19.92 5.31,20.12 5.36,20.18 5.41,20.19 5.45,20.38 5.50,20.66 5.55,20.40 5.60,19.94 5.65,19.55 5.70,19.41 5.74,19.58 5.79,19.89 5.84,20.21 5.89,20.56 5.94,20.25 5.99,20.02 6.04,19.91 6.08,19.86 6.13,19.75 6.18,19.52 6.23,19.23 6.28,18.97 6.33,18.60 6.37,18.25 6.42,18.07 6.47,17.84 6.52,17.68 6.57,17.72 6.62,17.86 6.67,17.91 6.71,17.66 6.76,17.37 6.81,17.10 6.86,17.53 6.91,17.95 6.96,18.35 7.00,18.60 7.05,18.70 7.10,18.56 7.15,18.54 7.20,18.62 7.25,18.76 7.30,18.79 7.34,18.77 7.39,18.70 7.44,18.51 7.49,18.27 7.54,18.06 7.59,17.69 7.63,17.35 7.68,17.23 7.73,17.11 7.78,16.99 7.83,17.12 7.88,17.31 7.92,17.69 7.97,18.11 8.02,18.29 8.07,18.11 8.12,18.10 8.17,18.03 8.22,17.82 8.26,17.66 8.31,17.47 8.36,17.27 8.41,17.34 8.46,17.32 8.51,17.11 8.55,16.96 8.60,16.92 8.65,17.00 8.70,17.09 8.75,17.14 8.80,17.11 8.85,17.08 8.89,16.88 8.94,16.67 8.99,16.53 9.04,16.81 9.09,16.75 9.14,16.53 9.18,16.43 9.23,16.13 9.28,16.06 9.33,16.02 9.38,15.97 9.43,15.93 9.48,15.88 9.52,15.87 9.57,15.86 9.62,15.92 9.67,16.12 9.72,16.33 9.77,16.54 9.81,16.67 9.86,16.50 9.91,16.31 9.96,16.37 10.01,16.46 10.06,16.53 10.11,16.39 10.15,16.29 10.20,16.25 10.25,16.06 10.30,15.98 10.35,16.02 10.40,16.13 10.44,16.14 10.49,16.19 10.54,16.24 10.59,16.19 10.64,16.17 10.69,16.21 10.74,16.25 10.78,16.13 10.83,16.06 10.88,15.89 10.93,15.81 10.98,15.82 11.03,15.75 11.07,15.64 11.12,15.55 11.17,15.46 11.22,15.36 11.27,15.27 11.32,15.23 11.37,15.19 11.41,15.06 11.46,14.91 11.51,14.80 11.56,14.68 11.61,14.58 11.66,14.61 11.70,14.50 11.75,14.15 11.80,13.73 11.85,13.13 11.90,12.95 11.95,12.42 12.00,12.31 12.04,12.31 12.09,12.45 12.14,12.62 12.19,12.87 12.24,13.07 12.29,13.19 12.33,13.18 12.38,13.15 12.43,13.07 12.48,12.84 12.53,12.60 12.58,12.33 12.63,12.11 12.67,12.09 12.72,12.22 12.77,12.35 12.82,12.68 12.87,13.04 12.92,13.35 12.96,13.53 13.01,13.73 13.06,13.64 13.11,13.45 13.16,13.31 13.21,13.25 13.26,13.12 13.30,13.09 13.35,13.07 13.40,13.02 13.45,12.93 13.50,12.91 13.55,12.91 13.59,12.87 13.64,12.82 13.69,12.66 13.74,12.57 13.79,12.51 13.84,12.54 13.89,12.59 13.93,12.65 13.98,12.70 14.03,12.53 14.08,12.32 14.13,12.12 14.18,12.10 14.22,12.02 14.27,11.90 14.32,11.73 14.37,11.68 14.42,11.59 14.47,11.47 14.52,11.46 14.56,11.43 14.61,11.42 14.66,11.44 14.71,11.47 14.76,11.47 14.81,11.52 14.85,11.58 14.90,11.55 14.95,11.55 15.00,11.65 15.05,11.91 15.10,12.09 15.15,12.31 15.19,12.42 15.24,12.56 15.29,12.61 15.34,12.59 15.39,12.44 15.44,12.25 15.48,12.07 15.53,11.90 15.58,11.94 15.63,12.04 15.68,12.20 15.73,12.44 15.77,12.63 15.82,12.75 15.87,12.71 15.92,12.63 15.97,12.46 16.02,12.33 16.07,12.30 16.11,12.18 16.16,12.08 16.21,12.01 16.26,11.99 16.31,12.10 16.36,12.30 16.40,12.51 16.45,12.78 16.50,13.05 16.55,13.16 16.60,13.19 16.65,13.17 16.70,13.04 16.74,12.92 16.79,12.82 16.84,12.86 16.89,12.82 16.94,12.51 16.99,12.34 17.03,12.16 17.08,12.09 17.13,12.06 17.18,12.16 17.23,12.37 17.28,12.76 17.33,13.24 17.37,13.62 17.42,13.82 17.47,13.98 17.52,14.53 17.57,15.09 17.62,15.53 17.66,15.64 17.71,15.32 17.76,14.90 17.81,14.67 17.86,14.67 17.91,15.30 17.96,15.75 18.00,15.91 18.05,15.84 18.10,15.92 18.15,16.01 18.20,16.14 18.25,16.34 18.29,16.42 18.34,16.40 18.39,16.45 18.44,16.60 18.49,16.75 18.54,17.08 18.59,17.20 18.63,17.43 18.68,17.55 18.73,17.35 18.78,17.33 18.83,17.28 18.88,17.25 18.92,17.28 18.97,17.30 19.02,17.22 19.07,17.06 19.12,16.81 19.17,16.74 19.22,16.82 19.26,17.00 19.31,17.28 19.36,17.46 19.41,17.55 19.46,17.48 19.51,17.55 19.55,17.57 19.60,17.64 19.65,17.38 19.70,17.11 19.75,16.81 19.80,16.64 19.85,16.68 19.89,16.71 19.94,16.73 19.99,16.98 20.04,17.42 20.09,17.72 20.14,18.04 20.18,18.33 20.23,18.46 20.28,18.31 20.33,17.84 20.38,17.39 20.43,17.07 20.48,17.00 20.52,17.10 20.57,17.19 20.62,17.25 20.67,17.28 20.72,17.25 20.77,17.11 20.81,17.12 20.86,17.01 20.91,16.77 20.96,16.69 21.01,16.90 21.06,16.99 21.11,16.73 21.15,16.53 21.20,16.51 21.25,16.71 21.30,17.25 21.35,17.42 21.40,17.33 21.44,17.38 21.49,17.59 21.54,17.70 21.59,17.76 21.64,17.94 21.69,18.01 21.74,18.34 21.78,18.40 21.83,18.48 21.88,18.58 21.93,18.44 21.98,18.27 22.03,18.13 22.07,18.08 22.12,17.79 22.17,17.79 22.22,18.06 22.27,18.39 22.32,18.61 22.37,18.56 22.41,18.48 22.46,18.40 22.51,18.44 22.56,18.44 22.61,18.66 22.66,18.88 22.70,19.29 22.75,19.88 22.80,20.51 22.85,21.24 22.90,21.73 22.95,22.11 23.00,22.26 23.04,22.30 23.09,22.08 23.14,21.55 23.19,21.09 23.24,20.83 23.29,20.60 23.33,20.50 23.38,20.48 23.43,20.46 23.48,20.45 23.53,20.60 23.58,20.61 23.62,20.35 23.67,20.09 23.72,19.90 23.77,19.65 23.82,19.59 23.87,19.21 23.92,19.16 23.96,19.25 24.01,19.36 24.06,19.46 24.11,19.58 24.16,19.82 24.21,19.87 24.25,19.97 24.30,20.08 24.35,20.31 24.40,20.86 24.45,21.38 24.50,21.81 24.55,22.14 24.59,22.26 24.64,22.18 24.69,22.23 24.74,21.97 24.79,21.67 24.84,21.38 24.88,21.43 24.93,21.17 24.98,21.30 25.03,21.41 25.08,21.71 25.13,21.82 25.18,22.47 25.22,23.27 25.27,23.83 25.32,24.26 25.37,24.60 25.42,24.62 25.47,24.36 25.51,23.88 25.56,23.45 25.61,22.92 25.66,22.49 25.71,21.86 25.76,21.69 25.81,21.75 25.85,21.77 25.90,21.90 25.95,21.90 26.00,21.91 26.05,22.22 26.10,22.71 26.14,23.04 26.19,23.42 26.24,23.48 26.29,23.24 26.34,23.05 26.39,23.05 26.44,23.20 26.48,23.47 26.53,23.83 26.58,24.29 26.63,24.78 26.68,25.17 26.73,25.49 26.77,25.70 26.82,26.20 26.87,26.65 26.92,26.89 26.97,26.94 27.02,26.97 27.07,26.95 27.11,27.04 27.16,26.94 27.21,26.82 27.26,26.50 27.31,26.60 27.36,26.70 27.40,26.82 27.45,26.94 27.50,26.93 27.55,26.39 27.60,26.21 27.65,26.50 27.70,26.99 27.74,27.57 27.79,27.62 27.84,28.42 27.89,28.74 27.94,28.66 27.99,28.48 28.03,28.38 28.08,28.43 28.13,28.49 28.18,28.84 28.23,28.90 28.28,28.90 28.33,28.85 28.37,28.87 28.42,29.08 28.47,29.42 28.52,29.68 28.57,30.07 28.62,30.59 28.66,30.66 28.71,30.51 28.76,30.60 28.81,30.79 28.86,30.83 28.91,30.47 28.96,30.10 29.00,29.74 29.05,29.18 29.10,28.82 29.15,28.79 29.20,29.26 29.25,29.51 29.29,29.13 29.34,28.64 29.39,27.53 29.44,27.08 29.49,26.97 29.54,26.94 29.59,27.04 29.63,27.31 29.68,27.78 29.73,28.46 29.78,29.00 29.83,29.07 29.88,29.16 29.92,29.49 29.97,29.55 30.02,29.39 30.07,29.35 30.12,29.39 30.17,29.45 30.22,29.51 30.26,29.57 30.31,29.38 30.36,29.07 30.41,28.91 30.46,28.93 30.51,29.09 30.55,29.31 30.60,29.55 30.65,29.77 30.70,29.95 30.75,30.22 30.80,30.38 30.85,30.71 30.89,30.99 30.94,31.21 30.99,31.26 31.04,31.29 31.09,31.29 31.14,31.28 31.18,31.55 31.23,31.72 31.28,31.76 31.33,31.70 31.38,31.98 31.43,32.10 31.47,32.37 31.52,32.45 31.57,32.53 31.62,32.54 31.67,32.74 31.72,33.08 31.77,33.32 31.81,33.56 31.86,33.77 31.91,33.87 31.96,33.82 32.01,33.57 32.06,33.46 32.10,33.43 32.15,33.46 32.20,33.38 32.25,33.11 32.30,33.10 32.35,33.23 32.40,33.48 32.44,33.48 32.49,33.82 32.54,34.13 32.59,34.70 32.64,35.04 32.69,34.90 32.73,34.20 32.78,33.99 32.83,33.65 32.88,33.38 32.93,33.58 32.98,34.07 33.03,34.25 33.07,34.22 33.12,34.63 33.17,34.45 33.22,34.07 33.27,34.00 33.32,34.03 33.36,34.23 33.41,34.35 33.46,34.47 33.51,34.44 33.56,34.31 33.61,34.31 33.66,34.16 33.70,34.45 33.75,34.55 33.80,34.92 33.85,35.29 33.90,35.33 33.95,35.29 33.99,35.49 34.04,35.61 34.09,35.73 34.14,35.75 34.19,35.56 34.24,35.49 34.29,35.50 34.33,35.55 34.38,35.90 34.43,36.33 34.48,36.58 34.53,36.84 34.58,36.97 34.62,36.89 34.67,36.80 34.72,36.64 34.77,36.56 34.82,36.64 34.87,36.92 34.92,37.29 34.96,37.43 35.01,37.24 35.06,37.00 35.11,36.84 35.16,36.84 35.21,36.89 35.25,36.89 35.30,36.98 35.35,36.94 35.40,36.86 35.45,36.72 35.50,36.55 35.55,36.37 35.59,36.39 35.64,36.34 35.69,36.38 35.74,36.43 35.79,36.61 35.84,36.72 35.88,36.79 35.93,36.99 35.98,37.05 36.03,37.13 36.08,37.17 36.13,37.17 36.18,37.24 36.22,37.37 36.27,37.64 36.32,37.95 36.37,38.32 36.42,38.72 36.47,39.02 36.51,39.04 36.56,39.07 36.61,39.10 36.66,39.08 36.71,38.90 36.76,38.68 36.81,38.46 36.85,38.40 36.90,38.38 36.95,38.47 37.00,38.58 37.05,38.74 37.10,38.98 37.14,39.36 37.19,39.63 37.24,39.79 37.29,39.87 37.34,40.05 37.39,40.38 37.44,40.52 37.48,40.26 37.53,40.05 37.58,40.01 37.63,39.90 37.68,39.94 37.73,39.98 37.77,40.09 37.82,40.73 37.87,41.06 37.92,41.07 37.97,40.77 38.02,40.52 38.07,40.27 38.11,40.11 38.16,40.07 38.21,40.06 38.26,40.17 38.31,40.31 38.36,40.57 38.40,40.77 38.45,41.10 38.50,41.37 38.55,41.64 38.60,41.59 38.65,41.39 38.69,41.28 38.74,41.26 38.79,41.27 38.84,41.30 38.89,41.52 38.94,41.67 38.99,41.84 39.03,41.94 39.08,42.04 39.13,42.14 39.18,42.25 39.23,42.32 39.28,42.39 39.32,42.17 39.37,42.05 39.42,42.22 39.47,42.54 39.52,42.72 39.57,42.85 39.62,43.01 39.66,43.11 39.71,43.19 39.76,43.26 39.81,43.34 39.86,43.46 39.91,43.43 39.95,43.40 40.00,43.46 40.05,43.55 40.10,43.79 40.15,44.21 40.20,44.53 40.25,44.66 40.29,44.81 40.34,44.95 40.39,44.98 40.44,44.94 40.49,44.99 40.54,45.19 40.58,45.07 40.63,45.12 40.68,45.39 40.73,45.73 40.78,45.89 40.83,46.16 40.88,46.33 40.92,46.50 40.97,46.42 41.02,46.22 41.07,46.37 41.12,46.63 41.17,47.05 41.21,47.12 41.26,47.23 41.31,47.27 41.36,47.58 41.41,47.98 41.46,48.23 41.51,48.13 41.55,48.09 41.60,48.07 41.65,48.14 41.70,48.20 41.75,48.45 41.80,48.63 41.84,48.78 41.89,48.98 41.94,49.13 41.99,49.11 42.04,49.03 42.09,49.07 42.14,49.16 42.18,49.30 42.23,49.54 42.28,49.89 42.33,50.20 42.38,50.52 42.43,50.82 42.47,51.03 42.52,51.09 42.57,51.14 42.62,51.18 42.67,51.25 42.72,51.39 42.77,51.52 42.81,51.67 42.86,51.80 42.91,51.96 42.96,52.10 43.01,52.23 43.06,52.37 43.10,52.48 43.15,52.60 43.20,52.69 43.25,52.67 43.30,52.49 43.35,52.37 43.40,52.27 43.44,52.16 43.49,52.08 43.54,52.00 43.59,52.01 43.64,51.92 43.69,52.03 43.73,52.23 43.78,52.56 43.83,52.88 43.88,53.00 43.93,53.02 43.98,52.95 44.03,52.91 44.07,52.91 44.12,52.92 44.17,52.94 44.22,52.93 44.27,52.95 44.32,52.85 44.36,52.73 44.41,52.81 44.46,52.85 44.51,52.81 44.56,52.76 44.61,52.75 44.66,52.46 44.70,52.56 44.75,52.63 44.80,52.77 44.85,52.87 44.90,52.90 44.95,52.84 44.99,52.83 45.04,52.86 45.09,52.90 45.14,53.00 45.19,52.99 45.24,53.02 45.29,53.07 45.33,53.23 45.38,53.41 45.43,53.83 45.48,53.89 45.53,54.11 45.58,54.41 45.62,54.77 45.67,55.08 45.72,55.34 45.77,55.60 45.82,55.74 45.87,55.88 45.92,55.97 45.96,21.89 46.01,21.88 46.06,21.83 46.11,21.79 46.16,21.74 46.21,21.67 46.25,21.60 46.30,21.34 46.35,21.07 46.40,20.94 46.45,20.76 46.50,20.49 46.54,20.44 46.59,20.39 46.64,20.28 46.69,20.14 46.74,19.90 46.79,19.69 46.84,19.59 46.88,19.54 46.93,19.50 46.98,19.47 47.03,19.45 47.08,19.44 47.13,19.43 47.17,19.43 47.22,19.42 47.27,19.41 47.32,19.40 47.37,19.37 47.42,19.30 47.47,19.12 47.51,18.85 47.56,18.44 47.61,18.21 47.66,18.26 47.71,18.21 47.76,17.86 47.80,17.69 47.85,17.61 47.90,17.56 47.95,17.39 48.00,17.23 48.05,17.04 48.10,16.85 48.14,16.73 48.19,16.76 48.24,16.82 48.29,16.84 48.34,16.79 48.39,16.76 48.43,16.89 48.48,16.97 48.53,17.05 48.58,17.12 48.63,17.18 48.68,17.20 48.73,17.10 48.77,16.72 48.82,16.60 48.87,16.48 48.92,16.37 48.97,16.17 49.02,15.98 49.06,15.85 49.11,15.71 49.16,15.74 49.21,15.98 49.26,16.33 49.31,16.83 49.36,16.86 49.40,16.57 49.45,16.17 49.50,15.92 49.55,15.84 49.60,15.70 49.65,15.53 49.69,15.50 49.74,15.45 49.79,15.64 49.84,15.75 49.89,15.60 49.94,15.84 49.99,15.71 50.03,15.72 50.08,15.50 50.13,15.31 50.18,14.99 50.23,15.11 50.28,15.06 50.32,15.07 50.37,15.15 50.42,15.21 50.47,15.29 50.52,15.23 50.57,14.84 50.62,14.31 50.66,13.80 50.71,13.35 50.76,12.94 50.81,12.57 50.86,12.23 50.91,11.95 50.95,11.93 51.00,12.04 51.05,12.20 51.10,12.21 51.15,12.35 51.20,12.10 51.25,11.60 51.29,11.39 51.34,11.37 51.39,11.60 51.44,11.70 51.49,11.70 51.54,11.74 51.58,11.79 51.63,11.56 51.68,11.49 51.73,11.57 51.78,11.69 51.83,11.86 51.88,12.02 51.92,11.80 51.97,11.49 52.02,11.23 52.07,11.12 52.12,11.20 52.17,11.46 52.21,11.84 52.26,12.14 52.31,12.34 52.36,12.44 52.41,12.53 52.46,12.66 52.51,12.78 52.55,12.64 52.60,12.43 52.65,12.45 52.70,12.41 52.75,12.55 52.80,12.70 52.84,13.04 52.89,13.29 52.94,13.57 52.99,13.49 53.04,13.08 53.09,12.70 53.14,12.29 53.18,11.83 53.23,11.21 53.28,11.03 53.33,10.58 53.38,10.27 53.43,10.06 53.47,9.87 53.52,9.72 53.57,9.61 53.62,9.51 53.67,9.48 53.72,9.47 53.77,9.31 53.81,9.58 53.86,9.99 53.91,10.11 53.96,10.57 54.01,11.04 54.06,11.28 54.10,11.27 54.15,10.87 54.20,10.54 54.25,10.40 54.30,10.46 54.35,10.58 54.39,10.84 54.44,11.06 54.49,11.38 54.54,11.78 54.59,12.11 54.64,12.20 54.69,11.94 54.73,11.40 54.78,10.93 54.83,10.47 54.88,10.13 54.93,9.65 54.98,9.41 55.02,9.28 55.07,9.38 55.12,9.66 55.17,9.87 55.22,10.00 55.27,10.17 55.32,10.23 55.36,10.29 55.41,10.43 55.46,10.49 55.51,10.77 55.56,11.14 55.61,11.42 55.65,11.49 55.70,11.35 55.75,11.20 55.80,11.03 55.85,10.74 55.90,10.41 55.95,10.09 55.99,9.66 56.04,9.11 56.09,8.61 56.14,8.21 56.19,8.06 56.24,7.89 56.28,7.64 56.33,7.32 56.38,7.09 56.43,6.63 56.48,6.09 56.53,5.59 56.58,5.17 56.62,4.59 56.67,4.22 56.72,4.10 56.77,4.07 56.82,4.09 56.87,4.25 56.91,4.30 56.96,4.36 57.01,4.45 57.06,4.70 57.11,4.98 57.16,5.44 57.21,5.59 57.25,5.42 57.30,5.32 57.35,5.54 57.40,5.63 57.45,5.78 57.50,5.88 57.54,5.69 57.59,5.34 57.64,5.24 57.69,5.22 57.74,5.10 57.79,5.13 57.84,5.17 57.88,5.20 57.93,5.33 57.98,5.22 58.03,5.07 58.08,4.95 58.13,4.90 58.17,4.99 58.22,5.17 58.27,5.26 58.32,5.53 58.37,5.65 58.42,5.58 58.47,5.51 58.51,5.46 58.56,5.48 58.61,5.53 58.66,5.62 58.71,5.70 58.76,5.83 58.80,5.93 58.85,6.06 58.90,6.15 58.95,6.24 59.00,6.34 59.05,6.51 59.10,6.82 59.14,6.86 59.19,6.75 59.24,6.76 59.29,6.86 59.34,6.96 59.39,7.02 59.43,7.01 59.48,7.00 59.53,6.97 59.58,6.95 59.63,6.98 59.68,7.12 59.73,7.43 59.77,7.80 59.82,7.88 59.87,8.38 59.92,8.90 59.97,9.33 60.02,9.65 60.06,9.83 60.11,9.87 60.16,9.82 60.21,9.58 60.26,9.15 60.31,8.77 60.36,8.80 60.40,8.49 60.45,7.98 60.50,7.57 60.55,7.19 60.60,7.33 60.65,7.50 60.69,8.10 60.74,8.80 60.79,9.33 60.84,9.85 60.89,10.51 60.94,10.93 60.99,11.02 61.03,11.25 61.08,11.41 61.13,11.61 61.18,11.81 61.23,12.09 61.28,12.25 61.32,12.41 61.37,12.69 61.42,13.00 61.47,13.01 61.52,12.71 61.57,12.50 61.62,12.42 61.66,12.63 61.71,13.04 61.76,13.23 61.81,13.28 61.86,13.03 61.91,12.78 61.95,12.77 62.00,12.95 62.05,13.23 62.10,13.58 62.15,13.77 62.20,13.55 62.24,13.47 62.29,13.61 62.34,13.49 62.39,13.18 62.44,12.70 62.49,13.26 62.54,13.64 62.58,13.82 62.63,14.01 62.68,14.52 62.73,15.05 62.78,15.55 62.83,15.65 62.87,15.29 62.92,14.90 62.97,14.62 63.02,14.66 63.07,15.35 63.12,15.72 63.17,15.93 63.21,15.80 63.26,15.92 63.31,16.03 63.36,16.10 63.41,16.37 63.46,16.48 63.50,16.40 63.55,16.48 63.60,16.62 63.65,16.79 63.70,17.08 63.75,17.22 63.80,17.48 63.84,17.55 63.89,17.38 63.94,17.33 63.99,17.30 64.04,17.31 64.09,17.33 64.13,17.37 64.18,17.14 64.23,17.02 64.28,16.81 64.33,16.68 64.38,16.80 64.43,17.02 64.47,17.25 64.52,17.45 64.57,17.60 64.62,17.45 64.67,17.46 64.72,17.64 64.76,17.66 64.81,17.44 64.86,17.22 64.91,16.84 64.96,16.64 65.01,16.67 65.06,16.71 65.10,16.74 65.15,17.05 65.20,17.42 65.25,17.75 65.30,18.03 65.35,18.36 65.39,18.46 65.44,18.27 65.49,17.84 65.54,17.38 65.59,17.00 65.64,17.00 65.69,17.11 65.73,17.25 65.78,17.27 65.83,17.25 65.88,17.24 65.93,17.15 65.98,17.11 66.02,16.93 66.07,16.76 66.12,16.77 66.17,16.86 66.22,16.94 66.27,16.75 66.32,16.57 66.36,16.52 66.41,16.81 66.46,17.20 66.51,17.46 66.56,17.37 66.61,17.38 66.65,17.59 66.70,17.72 66.75,17.72 66.80,17.94 66.85,17.99 66.90,18.34 66.95,18.36 66.99,18.50 67.04,18.55 67.09,18.44 67.14,18.24 67.19,18.19 67.24,18.09 67.28,17.81 67.33,17.79 67.38,18.10 67.43,18.36 67.48,18.62 67.53,18.53 67.58,18.49 67.62,18.43 67.67,18.43 67.72,18.45 67.77,18.64 67.82,18.89 67.87,19.34 67.91,19.89 67.96,20.59 68.01,21.19 68.06,21.72 68.11,22.07 68.16,22.25 68.21,22.29 68.25,22.08 68.30,21.57 68.35,21.08 68.40,20.84 68.45,20.64 68.50,20.44 68.54,20.48 68.59,20.40 68.64,20.41 68.69,20.56 68.74,20.59 68.79,20.38 68.84,20.16 68.88,19.86 68.93,19.65 68.98,19.59 69.03,19.16 69.08,19.16 69.13,19.25 69.17,19.35 69.22,19.45 69.27,19.58 69.32,19.76 69.37,19.86 69.42,19.97 69.46,20.07 69.51,20.33 69.56,20.91 69.61,21.38 69.66,21.76 69.71,22.12 69.76,22.29 69.80,22.13 69.85,22.24 69.90,21.92 69.95,21.67 70.00,21.36 70.05,21.43 70.09,21.20 70.14,21.23 70.19,21.41 70.24,21.70 70.29,21.82 70.34,22.55 70.39,23.22 70.43,23.83 70.48,24.31 70.53,24.57 70.58,24.63 70.63,24.33 70.68,23.89 70.72,23.42 70.77,22.92 70.82,22.45 70.87,21.88 70.92,21.68 70.97,21.75 71.02,21.80 71.06,21.89 71.11,21.86 71.16,21.92 71.21,22.20 71.26,22.67 71.31,23.06 71.35,23.40 71.40,23.46 71.45,23.25 71.50,23.08 71.55,23.05 71.60,23.17 71.65,23.46 71.69,23.83 71.74,24.26 71.79,24.81 71.84,25.20 71.89,25.50 71.94,25.73 71.98,26.22 72.03,26.66 72.08,26.91 72.13,27.00 72.18,26.98 72.23,26.95 72.28,27.05 72.32,26.90 72.37,26.74 72.42,26.50 72.47,26.59 72.52,26.70 72.57,26.82 72.61,26.95 72.66,26.97 72.71,26.38 72.76,26.22 72.81,26.49 72.86,27.00 72.91,27.58 72.95,27.66 73.00,28.45 73.05,28.71 73.10,28.65 73.15,28.49 73.20,28.39 73.24,28.46 73.29,28.50 73.34,28.79 73.39,28.88 73.44,28.90 73.49,28.81 73.54,28.84 73.58,29.04 73.63,29.40 73.68,29.67 73.73,30.13 73.78,30.60 73.83,30.67 73.87,30.55 73.92,30.60 73.97,30.80 74.02,30.82 74.07,30.41 74.12,30.09 74.17,29.77 74.21,29.17 74.26,28.85 74.31,28.79 74.36,29.26 74.41,29.47 74.46,29.12 74.50,28.64 74.55,27.61 74.60,27.03 74.65,26.95 74.70,26.86 74.75,27.08 74.80,27.32 74.84,27.73 74.89,28.45 74.94,28.97 74.99,29.07 75.04,29.18 75.09,29.44 75.13,29.45 75.18,29.43 75.23,29.35 75.28,29.39 75.33,29.45 75.38,29.51 75.43,29.57 75.47,29.38 75.52,29.04 75.57,28.91 75.62,28.93 75.67,29.11 75.72,29.30 75.76,29.54 75.81,29.76 75.86,29.94 75.91,30.23 75.96,30.38 76.01,30.71 76.06,30.97 76.10,31.19 76.15,31.24 76.20,31.25 76.25,31.29 76.30,31.33 76.35,31.56 76.39,31.73 76.44,31.79 76.49,31.75 76.54,31.93 76.59,32.10 76.64,32.31 76.69,32.41 76.73,32.50 76.78,32.58 76.83,32.78 76.88,33.06 76.93,33.33 76.98,33.57 77.02,33.74 77.07,33.91 77.12,33.81 77.17,33.52 77.22,33.46 77.27,33.49 77.31,33.48 77.36,33.42 77.41,33.10 77.46,33.13 77.51,33.23 77.56,33.51 77.61,33.47 77.65,33.88 77.70,34.20 77.75,34.70 77.80,35.06 77.85,34.88 77.90,34.24 77.94,33.99 77.99,33.64 78.04,33.42 78.09,33.58 78.14,34.01 78.19,34.25 78.24,34.21 78.28,34.61 78.33,34.48 78.38,34.05 78.43,33.99 78.48,34.03 78.53,34.23 78.57,34.37 78.62,34.45 78.67,34.44 78.72,34.31 78.77,34.26 78.82,34.18 78.87,34.43 78.91,34.55 78.96,34.93 79.01,35.33 79.06,35.32 79.11,35.31 79.16,35.46 79.20,35.60 79.25,35.76 79.30,35.76 79.35,35.58 79.40,35.47 79.45,35.48 79.50,35.54 79.54,35.90 79.59,36.34 79.64,36.57 79.69,36.81 79.74,36.96 79.79,36.91 79.83,36.80 79.88,36.65 79.93,36.57 79.98,36.62 80.03,36.92 80.08,37.28 80.13,37.43 80.17,37.21 80.22,36.99 80.27,36.83 80.32,36.85 80.37,36.88 80.42,36.91 80.46,36.96 80.51,36.95 80.56,36.84 80.61,36.72 80.66,36.57 80.71,36.37 80.76,36.40 80.80,36.34 80.85,36.37 80.90,36.44 80.95,36.61 81.00,36.72 81.05,36.79 81.09,36.99 81.14,37.04 81.19,37.14 81.24,37.19 81.29,37.17 81.34,37.24 81.39,37.41 81.43,37.60 81.48,37.94 81.53,38.35 81.58,38.74 81.63,39.02 81.68,39.06 81.72,39.07 81.77,39.11 81.82,39.12 81.87,38.92 81.92,38.66 81.97,38.40 82.02,38.39 82.06,38.39 82.11,38.47 82.16,38.59 82.21,38.75 82.26,39.05 82.31,39.39 82.35,39.62 82.40,39.76 82.45,39.88 82.50,40.06 82.55,40.42 82.60,40.57 82.65,40.29 82.69,39.99 82.74,40.05 82.79,39.89 82.84,39.94 82.89,39.98 82.94,40.14 82.98,40.74 83.03,41.05 83.08,41.06 83.13,40.79 83.18,40.51 83.23,40.28 83.28,40.09 83.32,40.07 83.37,40.06 83.42,40.14 83.47,40.35 83.52,40.57 83.57,40.74 83.61,41.11 83.66,41.39 83.71,41.64 83.76,41.60 83.81,41.42 83.86,41.27 83.91,41.25 83.95,41.28 84.00,41.31 84.05,41.53 84.10,41.67 84.15,41.84 84.20,41.93 84.24,42.04 84.29,42.14 84.34,42.25 84.39,42.32 84.44,42.38 84.49,42.18 84.54,42.07 84.58,42.25 84.63,42.55 84.68,42.74 84.73,42.87 84.78,43.02 84.83,43.10 84.87,43.19 84.92,43.27 84.97,43.35 85.02,43.44 85.07,43.38 85.12,43.38 85.16,43.46 85.21,43.54 85.26,43.79 85.31,44.24 85.36,44.51 85.41,44.66 85.46,44.81 85.50,44.93 85.55,44.97 85.60,44.93 85.65,45.01 85.70,45.25 85.75,45.05 85.79,45.13 85.84,45.40 85.89,45.72 85.94,45.92 85.99,46.17 86.04,46.34 86.09,46.49 86.13,46.43 86.18,46.24 86.23,46.34 86.28,46.65 86.33,47.05 86.38,47.12 86.42,47.22 86.47,47.27 86.52,47.57 86.57,47.99 86.62,48.22 86.67,48.17 86.72,48.10 86.76,48.09 86.81,48.13 86.86,48.20 86.91,48.44 86.96,48.63 87.01,48.76 87.05,48.98 87.10,49.15 87.15,49.12 87.20,49.04 87.25,49.07 87.30,49.15 87.35,49.31 87.39,49.53 87.44,49.87 87.49,50.20 87.54,50.57 87.59,50.82 87.64,51.02 87.68,51.09 87.73,51.13 87.78,51.17 87.83,51.26 87.88,51.38 87.93,51.52 87.98,51.66 88.02,51.81 88.07,51.95 88.12,52.10 88.17,52.23 88.22,52.37 88.27,52.47 88.31,52.59 88.36,52.69 88.41,52.67 88.46,52.48 88.51,52.37 88.56,52.28 88.61,52.16 88.65,52.08 88.70,52.00 88.75,52.01 88.80,51.91 88.85,52.03 88.90,52.21 88.94,52.58 88.99,52.89 89.04,53.00 89.09,53.01 89.14,52.94 89.19,52.91 89.24,52.91 89.28,52.92 89.33,52.94 89.38,52.93 89.43,52.95 89.48,52.90 89.53,52.73 89.57,52.82 89.62,52.84 89.67,52.82 89.72,52.76 89.77,52.75 89.82,52.46 89.87,52.55 89.91,52.63 89.96,52.76 90.01,52.87 90.06,52.90 90.11,52.84 90.16,52.83 90.20,52.86 90.25,52.89 90.30,53.00 90.35,52.99 90.40,53.01 90.45,53.08 90.50,53.23 90.54,53.41 90.59,53.83 90.64,53.89 90.69,54.12 90.74,54.40 90.79,54.78 90.83,55.09 90.88,55.33 90.93,55.59 90.98,55.75 91.03,55.90 91.08,55.98 91.13,21.90 91.17,21.90 91.22,21.82 91.27,21.78 91.32,21.73 91.37,21.70 91.42,21.60 91.46,21.34 91.51,21.08 91.56,20.97 91.61,20.76 91.66,20.49 91.71,20.48 91.76,20.42 91.80,20.35 91.85,20.15 91.90,19.99 91.95,19.67 92.00,19.59 92.05,19.54 92.09,19.50 92.14,19.47 92.19,19.45 92.24,19.43 92.29,19.43 92.34,19.43 92.38,19.42 92.43,19.41 92.48,19.40 92.53,19.37 92.58,19.25 92.63,19.13 92.68,18.88 92.72,18.45 92.77,18.18 92.82,18.23 92.87,18.23 92.92,17.86 92.97,17.71 93.01,17.62 93.06,17.56 93.11,17.41 93.16,17.24 93.21,17.05 93.26,16.86 93.31,16.73 93.35,16.77 93.40,16.81 93.45,16.81 93.50,16.81 93.55,16.81 93.60,16.92 93.64,16.96 93.69,17.06 93.74,17.11 93.79,17.18 93.84,17.21 93.89,17.09 93.94,16.73 93.98,16.59 94.03,16.48 94.08,16.39 94.13,16.18 94.18,15.97 94.23,15.81 94.27,15.72 94.32,15.72 94.37,15.98 94.42,16.36 94.47,16.87 94.52,16.84 94.57,16.56 94.61,16.16 94.66,15.87 94.71,15.81 94.76,15.71 94.81,15.56 94.86,15.51 94.90,15.43 94.95,15.62 95.00,15.72 95.05,15.64 95.10,15.88 95.15,15.74 95.20,15.73 95.24,15.49 95.29,15.32 95.34,14.97 95.39,15.10 95.44,15.06 95.49,15.04 95.53,15.12 95.58,15.23 95.63,15.32 95.68,15.23 95.73,14.86 95.78,14.28 95.83,13.78 95.87,13.37 95.92,12.92 95.97,12.54 96.02,12.23 96.07,11.96 96.12,11.91 96.16,12.03 96.21,12.20 96.26,12.23 96.31,12.30 96.36,12.10 96.41,11.59 96.46,11.37 96.50,11.39 96.55,11.58 96.60,11.71 96.65,11.66 96.70,11.72 96.75,11.80 96.79,11.54 96.84,11.47 96.89,11.55 96.94,11.68 96.99,11.87 97.04,12.02 97.09,11.83 97.13,11.49 97.18,11.23 97.23,11.10 97.28,11.20 97.33,11.47 97.38,11.85 97.42,12.14 97.47,12.33 97.52,12.44 97.57,12.54 97.62,12.66 97.67,12.77 97.72,12.62 97.76,12.45 97.81,12.44 97.86,12.38 97.91,12.55 97.96,12.67 98.01,13.04 98.05,13.30 98.10,13.54 98.15,13.48 98.20,13.05 98.25,12.70 98.30,12.26 98.35,11.78 98.39,11.19 98.44,11.03 98.49,10.58 98.54,10.29 98.59,10.07 98.64,9.85 98.68,9.71 98.73,9.60 98.78,9.54 98.83,9.48 98.88,9.44 98.93,9.33 98.98,9.62 99.02,9.98 99.07,10.12 99.12,10.58 99.17,11.02 99.22,11.29 99.27,11.31 99.31,10.89 99.36,10.51 99.41,10.38 99.46,10.47 99.51,10.61 99.56,10.84 99.61,11.04 99.65,11.36 99.70,11.77 99.75,12.15 99.80,12.21 99.85,11.90 99.90,11.41 99.94,10.90 99.99,10.54 100.04,10.16 100.09,9.71 100.14,9.38 100.19,9.28 100.23,9.38 100.28,9.60 100.33,9.90 100.38,9.98 100.43,10.09 100.48,10.23 100.53,10.30 100.57,10.38 100.62,10.58 100.67,10.81 100.72,11.13 100.77,11.41 100.82,11.48 100.86,11.36 100.91,11.20 100.96,11.01 101.01,10.74 101.06,10.41 101.11,10.08 101.16,9.62 101.20,9.12 101.25,8.59 101.30,8.23 101.35,8.07 101.40,7.90 101.45,7.65 101.49,7.34 101.54,7.12 101.59,6.65 101.64,6.12 101.69,5.58 101.74,5.18 101.79,4.64 101.83,4.22 101.88,4.11 101.93,4.10 101.98,4.16 102.03,4.22 102.08,4.28 102.12,4.32 102.17,4.46 102.22,4.71 102.27,4.99 102.32,5.42 102.37,5.60 102.42,5.40 102.46,5.32 102.51,5.54 102.56,5.63 102.61,5.80 102.66,5.89 102.71,5.69 102.75,5.37 102.80,5.23 102.85,5.23 102.90,5.11 102.95,5.13 103.00,5.17 103.05,5.19 103.09,5.29 103.14,5.21 103.19,5.04 103.24,4.95 103.29,4.89 103.34,5.04 103.38,5.17 103.43,5.28 103.48,5.54 103.53,5.69 103.58,5.68 103.63,5.46 103.68,5.45 103.72,5.48 103.77,5.52 103.82,5.62 103.87,5.71 103.92,5.82 103.97,5.94 104.01,6.05 104.06,6.15 104.11,6.24 104.16,6.33 104.21,6.52 104.26,6.82 104.31,6.80 104.35,6.71 104.40,6.76 104.45,6.86 104.50,6.95 104.55,7.02 104.60,7.08 104.64,6.98 104.69,6.96 104.74,6.91 104.79,6.97 104.84,7.13 104.89,7.41 104.94,7.79 104.98,7.88 105.03,8.42 105.08,8.92 105.13,9.33 105.18,9.63 105.23,9.84 105.27,9.89 105.32,9.81 105.37,9.58 105.42,9.17 105.47,8.77 105.52,8.80 105.57,8.47 105.61,7.97 105.66,7.54 105.71,7.21 105.76,7.29 105.81,7.53 105.86,8.08 105.90,8.72 105.95,9.34 106.00,9.85 106.05,10.50 106.10,10.91 106.15,11.03 106.20,11.21 106.24,11.40 106.29,11.55 106.34,11.80 106.39,12.12 106.44,12.25 106.49,12.33 106.53,12.68 106.58,12.97 106.63,13.01 106.68,12.69 106.73,12.51 106.78,12.44 106.83,12.66 106.87,13.03 106.92,13.18 106.97,13.27 107.02,13.02 107.07,12.77 107.12,12.77 107.16,12.97 107.21,13.21 107.26,13.58 107.31,13.75 107.36,13.56 107.41,13.49 107.46,13.59 107.50,13.51 107.55,13.22 107.60,12.94 107.65,12.82 107.70,13.30 107.75,14.00 107.79,14.69 107.84,15.31 107.89,15.98 107.94,16.62 107.99,17.27 108.04,17.40 108.08,17.62 108.13,17.81 108.18,17.96 108.23,18.17 108.28,18.18 108.33,18.10 108.38,18.06 108.42,18.11 108.47,18.33 108.52,18.58 108.57,18.88 108.62,19.07 108.67,19.28 108.71,19.43 108.76,19.67 108.81,19.95 108.86,20.11 108.91,20.14 108.96,20.21 109.01,20.38 109.05,20.63 109.10,20.39 109.15,19.94 109.20,19.57 109.25,19.41 109.30,19.59 109.34,19.85 109.39,20.19 109.44,20.56 109.49,20.25 109.54,20.05 109.59,19.90 109.64,19.87 109.68,19.80 109.73,19.52 109.78,19.26 109.83,18.98 109.88,18.58 109.93,18.24 109.97,18.06 110.02,17.85 110.07,17.69 110.12,17.73 110.17,17.85 110.22,17.92 110.27,17.68 110.31,17.34 110.36,17.08 110.41,17.53 110.46,17.94 110.51,18.36 110.56,18.58 110.60,18.65 110.65,18.55 110.70,18.56 110.75,18.62 110.80,18.75 110.85,18.80 110.90,18.76 110.94,18.70 110.99,18.54 111.04,18.27 111.09,18.03 111.14,17.70 111.19,17.33 111.23,17.23 111.28,17.13 111.33,16.98 111.38,17.12 111.43,17.28 111.48,17.70 111.53,18.11 111.57,18.28 111.62,18.07 111.67,18.08 111.72,18.02 111.77,17.84 111.82,17.64 111.86,17.49 111.91,17.30 111.96,17.34 112.01,17.28 112.06,17.10 112.11,16.98 112.16,16.92 112.20,16.99 112.25,17.08 112.30,17.14 112.35,17.16 112.40,17.07 112.45,16.85 112.49,16.67 112.54,16.63 112.59,16.83 112.64,16.68 112.69,16.57 112.74,16.31 112.79,16.16 112.83,16.06 112.88,16.01 112.93,15.98 112.98,15.93 113.03,15.89 113.08,15.84 113.12,15.88 113.17,15.89 113.22,16.10 113.27,16.37 113.32,16.54 113.37,16.64 113.42,16.53 113.46,16.31 113.51,16.34 113.56,16.52 113.61,16.55 113.66,16.38 113.71,16.30 113.75,16.22 113.80,16.08 113.85,15.96 113.90,16.02 113.95,16.11 114.00,16.15 114.05,16.20 114.09,16.21 114.14,16.17 114.19,16.17 114.24,16.23 114.29,16.23 114.34,16.16 114.38,16.04 114.43,15.87 114.48,15.81 114.53,15.77 114.58,15.73 114.63,15.67 114.68,15.54 114.72,15.47 114.77,15.37 114.82,15.28 114.87,15.24 114.92,15.18 114.97,15.08 115.01,14.89 115.06,14.81 115.11,14.65 115.16,14.58 115.21,14.57 115.26,14.49 115.31,14.16 115.35,13.78 115.40,13.06 115.45,12.95 115.50,12.43 115.55,12.30 115.60,12.28 115.64,12.45 115.69,12.61 115.74,12.89 115.79,13.06 115.84,13.21 115.89,13.17 115.93,13.17 115.98,13.01 116.03,12.85 116.08,12.56 116.13,12.36 116.18,12.14 116.23,12.13 116.27,12.15 116.32,12.39 116.37,12.68 116.42,13.00 116.47,13.34 116.52,13.56 116.56,13.79 116.61,13.66 116.66,13.48 116.71,13.34 116.76,13.23 116.81,13.16 116.86,13.09 116.90,13.08 116.95,13.03 117.00,12.90 117.05,12.95 117.10,12.91 117.15,12.83 117.19,12.83 117.24,12.68 117.29,12.56 117.34,12.55 117.39,12.52 117.44,12.54 117.49,12.62 117.53,12.70 117.58,12.56 117.63,12.29 117.68,12.10 117.73,12.09 117.78,12.02 117.82,11.88 117.87,11.74 117.92,11.67 117.97,11.57 118.02,11.47 118.07,11.49 118.12,11.42 118.16,11.43 118.21,11.42 118.26,11.47 118.31,11.46 118.36,11.51 118.41,11.54 118.45,11.55 118.50,11.56 118.55,11.66 118.60,11.88 118.65,12.07 118.70,12.24 118.75,12.36 118.79,12.56 118.84,12.62 118.89,12.58 118.94,12.42 118.99,12.25 119.04,12.12 119.08,11.92 119.13,11.98 119.18,12.03 119.23,12.20 119.28,12.45 119.33,12.65 119.38,12.74 119.42,12.74 119.47,12.68 119.52,12.46 119.57,12.35 119.62,12.32 119.67,12.17 119.71,12.07 119.76,11.97 119.81,12.01 119.86,12.11 119.91,12.32 119.96,12.50 120.01,12.80 120.05,13.03 120.10,13.16 120.15,13.22 120.20,13.16 120.25,13.07 120.30,12.88 120.34,12.78 120.39,12.86 120.44,12.83 120.49,12.45 120.54,12.33 120.59,12.18 120.64,12.09 120.68,12.03 120.73,12.13 120.78,12.41 120.83,12.70 120.88,21.85 120.93,21.81 120.97,21.74 121.02,21.70 121.07,21.78 121.12,21.66 121.17,21.50 121.22,21.24 121.27,21.01 121.31,20.88 121.36,20.68 121.41,20.44 121.46,20.54 121.51,20.47 121.56,20.44 121.60,20.05 121.65,19.76 121.70,19.65 121.75,19.58 121.80,19.52 121.85,19.49 121.90,19.46 121.94,19.43 121.99,19.41 122.04,19.41 122.09,19.41 122.14,19.39 122.19,19.39 122.23,19.38 122.28,19.36 122.33,19.25 122.38,19.09 122.43,18.85 122.48,18.46 122.53,18.16 122.57,18.16 122.62,18.22 122.67,17.78 122.72,17.55 122.77,17.60 122.82,17.53 122.86,17.36 122.91,17.26 122.96,17.07 123.01,16.87 123.06,16.72 123.11,16.74 123.15,16.81 123.20,16.76 123.25,16.75 123.30,16.83 123.35,16.78 123.40,16.94 123.45,17.03 123.49,17.10 123.54,17.18 123.59,17.19 123.64,17.05 123.69,16.74 123.74,16.57 123.78,16.44 123.83,16.33 123.88,16.19 123.93,15.93 123.98,15.80 124.03,15.67 124.08,15.69 124.12,16.00 124.17,16.27 124.22,16.74 124.27,16.84 124.32,16.58 124.37,16.16 124.41,15.84 124.46,15.76 124.51,15.74 124.56,15.55 124.61,15.38 124.66,15.49 124.71,15.53 124.75,15.62 124.80,15.60 124.85,15.84 124.90,15.70 124.95,15.75 125.00,15.47 125.04,15.15 125.09,14.98 125.14,15.14 125.19,15.06 125.24,14.97 125.29,15.08 125.34,15.18 125.38,15.16 125.43,15.26 125.48,14.88 125.53,14.21 125.58,13.74 125.63,13.31 125.67,12.85 125.72,12.53 125.77,12.16 125.82,11.95 125.87,11.91 125.92,11.98 125.97,12.23 126.01,12.17 126.06,12.36 126.11,11.95 126.16,11.60 126.21,11.31 126.26,11.23 126.30,11.63 126.35,11.69 126.40,11.68 126.45,11.75 126.50,11.84 126.55,11.58 126.60,11.40 126.64,11.48 126.69,11.68 126.74,11.84 126.79,11.99 126.84,11.81 126.89,11.44 126.93,11.14 126.98,11.12 127.03,11.16 127.08,11.44 127.13,11.79 127.18,12.18 127.23,12.33 127.27,12.42 127.32,12.51 127.37,12.64 127.42,12.72 127.47,12.66 127.52,12.45 127.56,12.42 127.61,12.38 127.66,12.52 127.71,12.65 127.76,13.02 127.81,13.37 127.86,13.44 127.90,13.45 127.95,12.99 128.00,12.76 128.05,12.34 128.10,11.88 128.15,11.10 128.19,11.04 128.24,10.51 128.29,10.27 128.34,10.05 128.39,9.87 128.44,9.73 128.49,9.59 128.53,9.54 128.58,9.44 128.63,9.43 128.68,9.36 128.73,9.60 128.78,9.92 128.82,10.12 128.87,10.69 128.92,11.01 128.97,11.29 129.02,11.23 129.07,10.95 129.12,10.45 129.16,10.45 129.21,10.44 129.26,10.52 129.31,10.86 129.36,11.02 129.41,11.30 129.45,11.76 129.50,12.16 129.55,12.23 129.60,11.92 129.65,11.45 129.70,10.76 129.75,10.36 129.79,10.04 129.84,9.50 129.89,9.37 129.94,9.21 129.99,9.51 130.04,9.45 130.08,9.57 130.13,9.93 130.18,10.06 130.23,10.11 130.28,10.18 130.33,10.51 130.38,10.44 130.42,10.68 130.47,11.04 130.52,11.35 130.57,11.50 130.62,11.36 130.67,11.18 130.71,10.94 130.76,10.74 130.81,10.35 130.86,10.05 130.91,9.51 130.96,9.10 131.00,8.52 131.05,8.21 131.10,8.05 131.15,7.86 131.20,7.60 131.25,7.25 131.30,7.02 131.34,6.56 131.39,5.96 131.44,5.44 131.49,4.98 131.54,4.60 131.59,4.16 131.63,4.00 131.68,4.14 131.73,4.14 131.78,4.22 131.83,4.24 131.88,4.41 131.93,4.47 131.97,4.67 132.02,5.00 132.07,5.50 132.12,5.62 132.17,5.42 132.22,5.33 132.26,5.52 132.31,5.51 132.36,5.72 132.41,5.79 132.46,5.65 132.51,5.34 132.56,5.22 132.60,5.20 132.65,5.02 132.70,5.13 132.75,5.18 132.80,5.31 132.85,5.30 132.89,5.29 132.94,5.07 132.99,5.00 133.04,4.90 133.09,4.95 133.14,5.15 133.19,5.23 133.23,5.45 133.28,5.44 133.33,5.59 133.38,5.40 133.43,5.44 133.48,5.47 133.52,5.54 133.57,5.48 133.62,5.50 133.67,5.57 133.72,5.70 133.77,6.03 133.82,6.15 133.86,6.22 133.91,6.32 133.96,6.54 134.01,6.68 134.06,6.65 134.11,6.72 134.15,6.75 134.20,6.86 134.25,6.91 134.30,7.03 134.35,7.05 134.40,6.90 134.45,6.94 134.49,6.93 134.54,6.96 134.59,7.13 134.64,7.44 134.69,7.81 134.74,7.87 134.78,8.38 134.83,8.86 134.88,9.24 134.93,9.67 134.98,9.85 135.03,9.88 135.08,9.77 135.12,9.61 135.17,9.06 135.22,8.75 135.27,8.58 135.32,8.45 135.37,7.81 135.41,7.54 135.46,7.28 135.51,7.31 135.56,7.60 135.61,7.98 135.66,8.68 135.71,9.32 135.75,9.68 135.80,10.45 135.85,10.87 135.90,10.98 135.95,11.14 136.00,11.29 136.04,11.40 136.09,11.76 136.14,11.86 136.19,12.17 136.24,12.36 136.29,12.67 136.34,12.86 136.38,12.98 136.43,12.68 136.48,12.54 136.53,12.39 136.58,12.61 136.63,13.01 136.67,13.04 136.72,13.25 136.77,12.98 136.82,12.79 136.87,12.70 136.92,12.81 136.97,13.18 137.01,13.47 137.06,13.77 137.11,13.57 137.16,13.52 137.21,13.39 137.26,13.39 137.30,13.12 137.35,12.83 137.40,12.78 137.45,13.21 137.50,13.97 137.55,14.70 137.60,15.27 137.64,15.92 137.69,16.70 137.74,17.26 137.79,17.29 137.84,17.52 137.89,17.66 137.93,17.98 137.98,18.19 138.03,18.16 138.08,17.97 138.13,17.92 138.18,18.05 138.23,18.23 138.27,18.57 138.32,18.84 138.37,19.10 138.42,19.15 138.47,19.35 138.52,19.69 138.56,19.82 138.61,20.09 138.66,20.14 138.71,20.18 138.76,20.39 138.81,20.61 138.85,20.32 138.90,19.83 138.95,19.55 139.00,19.35 139.05,19.64 139.10,19.88 139.15,20.19 139.19,20.52 139.24,20.22 139.29,20.06 139.34,19.82 139.39,19.81 139.44,19.77 139.48,19.54 139.53,19.22 139.58,18.90 139.63,18.49 139.68,18.22 139.73,17.93 139.78,17.88 139.82,17.70 139.87,17.74 139.92,17.84 139.97,17.85 140.02,17.61 140.07,17.28 140.11,17.12 140.16,17.51 140.21,17.91 140.26,18.29 140.31,18.42 140.36,18.61 140.41,18.55 140.45,18.60 140.50,18.62 140.55,18.70 140.60,18.83 140.65,18.80 140.70,18.71 140.74,18.57 140.79,18.26 140.84,18.09 140.89,17.70 140.94,17.25 140.99,17.22 141.04,17.09 141.08,16.95 141.13,17.11 141.18,17.19 141.23,17.65 141.28,18.08 141.33,18.31 141.37,18.08 141.42,18.02 141.47,18.03 141.52,17.73 141.57,17.67 141.62,17.38 141.67,17.29 141.71,17.17 141.76,17.26 141.81,17.06 141.86,16.93 141.91,16.88 141.96,16.92 142.00,17.00 142.05,17.20 142.10,17.04 142.15,17.09 142.20,16.83 142.25,16.34 142.30,16.30 142.34,16.78 142.39,16.39 142.44,16.39 142.49,16.21 142.54,16.19 142.59,16.04 142.63,15.96 142.68,15.95 142.73,15.92 142.78,15.89 142.83,15.81 142.88,15.76 142.93,15.88 142.97,16.10 143.02,16.29 143.07,16.50 143.12,16.57 143.17,16.54 143.22,16.24 143.26,16.36 143.31,16.48 143.36,16.40 143.41,16.40 143.46,16.24 143.51,16.17 143.56,16.02 143.60,16.01 143.65,15.98 143.70,16.07 143.75,16.06 143.80,16.19 143.85,16.22 143.89,16.07 143.94,16.15 143.99,16.10 144.04,16.20 144.09,16.20 144.14,15.90 144.19,15.84 144.23,15.67 144.28,15.77 144.33,15.67 144.38,15.54 144.43,15.64 144.48,15.50 144.52,15.32 144.57,15.28 144.62,15.21 144.67,15.20 144.72,15.03 144.77,14.80 144.82,14.85 144.86,14.61 144.91,14.46 144.96,14.61 145.01,14.45 145.06,14.19 145.11,13.59 145.15,13.08 145.20,12.83 145.25,12.45 145.30,12.29 145.35,12.31 145.40,12.41 145.45,12.61 145.49,12.83 145.54,13.05 145.59,13.16 145.64,13.12 145.69,13.20 145.74,12.86 145.78,12.77 145.83,12.65 145.88,12.18 145.93,12.10 145.98,12.12 146.03,12.07 146.08,12.20 146.12,12.55 146.17,12.91 146.22,13.25 146.27,13.50 146.32,13.74 146.37,13.61 146.41,13.38 146.46,13.34 146.51,13.11 146.56,13.09 146.61,13.05 146.66,12.91 146.70,13.02 146.75,12.75 146.80,12.85 146.85,12.73 146.90,12.82 146.95,12.72 147.00,12.56 147.04,12.60 147.09,12.52 147.14,12.35 147.19,12.46 147.24,12.57 147.29,12.67 147.33,12.46 147.38,12.27 147.43,12.09 147.48,12.04 147.53,12.04 147.58,11.84 147.63,11.76 147.67,11.66 147.72,11.57 147.77,11.47 147.82,11.44 147.87,11.41 147.92,11.39 147.96,11.41 148.01,11.46 148.06,11.46 148.11,11.55 148.16,11.56 148.21,11.60 148.26,11.56 148.30,11.53 148.35,11.87 148.40,11.97 148.45,12.32 148.50,12.37 148.55,12.61 148.59,12.63 148.64,12.59 148.69,12.31 148.74,12.33 148.79,12.18 148.84,11.88 148.89,11.98 148.93,12.16 148.98,12.11 149.03,12.42 149.08,12.61 149.13,12.68 149.18,12.73 149.22,12.73 149.27,12.52 149.32,12.41 149.37,12.24 149.42,12.12 149.47,12.02 149.52,12.02 149.56,11.94 149.61,12.10 149.66,12.22 149.71,12.43 149.76,12.71 149.81,13.09 149.85,13.15 149.90,13.18 149.95,13.19 150.00,13.01 150.05,12.72 150.10,12.77 150.15,12.85 150.19,12.65 150.24,12.49 150.29,12.36 150.34,12.05 150.39,12.03 150.44,12.08 150.48,12.01 150.53,12.22 150.58,12.64 150.63,13.04 150.68,13.60 150.73,13.82 150.78,13.95 150.82,14.44 150.87,15.08 150.92,15.55 150.97,15.61 151.02,15.17 151.07,14.92 151.11,14.67 151.16,14.39 151.21,15.07 151.26,15.54 151.31,15.76 151.36,15.79 151.41,15.92 151.45,16.00 151.50,16.13 151.55,16.31 151.60,16.48 151.65,16.22 151.70,16.41 151.74,16.52 151.79,16.64 151.84,17.00 151.89,17.06 151.94,17.45 151.99,17.44 152.04,17.37 152.08,17.38 152.13,17.13 152.18,17.20 152.23,17.22 152.28,17.35 152.33,17.03 152.37,17.08 152.42,16.74 152.47,16.58 152.52,16.64 152.57,17.01 152.62,17.11 152.67,17.39 152.71,17.64 152.76,17.37 152.81,17.49 152.86,17.37 152.91,17.59 152.96,17.36 153.00,17.09 153.05,16.92 153.10,16.64 153.15,16.67 153.20,16.70 153.25,16.72 153.30,16.89 153.34,17.27 153.39,17.65 153.44,17.96 153.49,18.36 153.54,18.45 153.59,18.16 153.63,17.73 153.68,17.17 153.73,16.95 153.78,17.02 153.83,17.01 153.88,17.19 153.92,17.30 153.97,17.17 154.02,17.09 154.07,17.11 154.12,17.08 154.17,16.72 154.22,16.75 154.26,16.65 154.31,16.91 154.36,16.99 154.41,16.66 154.46,16.48 154.51,16.51 154.55,16.60 154.60,17.15 154.65,17.35 154.70,17.34 154.75,17.21 154.80,17.27 154.85,17.55 154.89,17.45 154.94,17.85 154.99,17.95 155.04,18.25 155.09,18.34 155.14,18.53 155.18,18.62 155.23,18.47 155.28,18.13 155.33,18.14 155.38,17.95 155.43,17.73 155.48,17.72 155.52,18.08 155.57,18.29 155.62,18.50 155.67,18.49 155.72,18.48 155.77,18.44 155.81,18.40 155.86,18.37 155.91,18.60 155.96,18.84 156.01,19.29 156.06,19.85 156.11,20.52 156.15,21.22 156.20,21.76 156.25,21.90 156.30,22.24 156.35,22.31 156.40,22.05 156.44,21.64 156.49,21.16 156.54,20.91 156.59,20.64 156.64,20.44 156.69,20.36 156.74,20.55 156.78,20.36 156.83,20.51 156.88,20.53 156.93,20.45 156.98,20.08 157.03,19.76 157.07,19.71 157.12,19.63 157.17,19.31 157.22,19.16 157.27,19.25 157.32,19.33 157.37,19.44 157.41,19.56 157.46,19.78 157.51,19.87 157.56,19.99 157.61,20.07 157.66,20.20 157.70,20.66 157.75,21.39 157.80,21.74 157.85,22.01 157.90,22.15 157.95,22.16 158.00,22.29 158.04,21.68 158.09,21.43 158.14,21.33 158.19,21.43 158.24,21.34 158.29,21.06 158.33,21.40 158.38,21.65 158.43,21.78 158.48,22.27 158.53,23.23 158.58,23.68 158.63,24.23 158.67,24.58 158.72,24.69 158.77,24.32 158.82,23.83 158.87,23.40 158.92,22.90 158.96,22.37 159.01,21.83 159.06,21.64 159.11,21.70 159.16,21.75 159.21,21.71 159.26,21.84 159.30,21.84 159.35,22.08 159.40,22.67 159.45,22.90 159.50,23.33 159.55,23.41 159.59,23.27 159.64,22.89 159.69,23.05 159.74,23.14 159.79,23.32 159.84,23.79 159.89,24.25 159.93,24.73 159.98,25.19 160.03,25.57 160.08,25.71 160.13,26.14 160.18,26.66 160.22,26.91 160.27,27.00 160.32,27.05 160.37,26.86 160.42,27.03 160.47,26.91 160.52,26.63 160.56,26.48 160.61,26.58 160.66,26.70 160.71,26.81 160.76,26.93 160.81,26.73 160.85,26.43 160.90,26.19 160.95,26.45 161.00,27.03 161.05,27.58 161.10,27.58 161.15,28.43 161.19,28.77 161.24,28.67 161.29,28.43 161.34,28.26 161.39,28.30 161.44,28.49 161.48,28.82 161.53,28.77 161.58,28.88 161.63,28.79 161.68,28.82 161.73,29.08 161.77,29.31 161.82,29.66 161.87,30.13 161.92,30.50 161.97,30.70 162.02,30.50 162.07,30.45 162.11,30.70 162.16,30.81 162.21,30.35 162.26,30.15 162.31,29.85 162.36,29.10 162.40,28.81 162.45,28.75 162.50,29.29 162.55,29.33 162.60,29.11 162.65,28.62 162.70,27.63 162.74,26.97 162.79,26.90 162.84,26.92 162.89,27.00 162.94,27.35 162.99,27.84 163.03,28.43 163.08,28.99 163.13,29.05 163.18,29.18 163.23,29.42 163.28,29.38 163.33,29.31 163.37,29.35 163.42,29.39 163.47,29.43 163.52,29.48 163.57,29.55 163.62,29.40 163.66,29.06 163.71,28.90 163.76,28.94 163.81,29.11 163.86,29.31 163.91,29.47 163.96,29.71 164.00,29.90 164.05,30.23 164.10,30.32 164.15,30.65 164.20,30.96 164.25,31.11 164.29,31.25 164.34,31.24 164.39,31.28 164.44,31.36 164.49,31.44 164.54,31.62 164.59,31.74 164.63,31.59 164.68,31.91 164.73,32.04 164.78,32.31 164.83,32.22 164.88,32.51 164.92,32.59 164.97,32.56 165.02,33.05 165.07,33.34 165.12,33.58 165.17,33.60 165.22,33.85 165.26,33.73 165.31,33.50 165.36,33.42 165.41,33.47 165.46,33.53 165.51,33.27 165.55,33.04 165.60,33.14 165.65,33.20 165.70,33.33 165.75,33.50 165.80,33.73 165.85,34.12 165.89,34.76 165.94,35.03 165.99,34.67 166.04,34.28 166.09,33.97 166.14,33.55 166.18,33.32 166.23,33.58 166.28,33.89 166.33,34.24 166.38,34.21 166.43,34.56 166.48,34.39 166.52,34.03 166.57,33.98 166.62,33.99 166.67,34.18 166.72,34.16 166.77,34.32 166.81,34.37 166.86,34.29 166.91,34.18 166.96,34.12 167.01,34.42 167.06,34.55 167.11,34.92 167.15,35.22 167.20,35.19 167.25,35.27 167.30,35.47 167.35,35.61 167.40,35.67 167.44,35.71 167.49,35.51 167.54,35.42 167.59,35.41 167.64,35.48 167.69,35.83 167.74,36.25 167.78,36.54 167.83,36.84 167.88,36.89 167.93,36.86 167.98,36.77 168.03,36.64 168.07,36.51 168.12,36.53 168.17,36.81 168.22,37.16 168.27,37.40 168.32,37.21 168.37,37.04 168.41,36.82 168.46,36.85 168.51,36.84 168.56,36.95 168.61,36.87 168.66,36.86 168.70,36.82 168.75,36.73 168.80,36.52 168.85,36.37 168.90,36.38 168.95,36.32 169.00,36.36 169.04,36.43 169.09,36.60 169.14,36.73 169.19,36.78 169.24,36.96 169.29,37.04 169.33,37.14 169.38,37.12 169.43,37.19 169.48,37.24 169.53,37.45 169.58,37.57 169.62,37.94 169.67,38.37 169.72,38.74 169.77,39.02 169.82,38.95 169.87,39.01 169.92,38.95 169.96,39.09 170.01,38.76 170.06,38.53 170.11,38.30 170.16,38.41 170.21,38.42 170.25,38.48 170.30,38.58 170.35,38.77 170.40,38.94 170.45,39.34 170.50,39.57 170.55,39.71 170.59,39.86 170.64,40.09 170.69,40.50 170.74,40.52 170.79,40.32 170.84,39.92 170.88,40.07 170.93,39.89 170.98,39.95 171.03,39.98 171.08,40.05 171.13,40.75 171.18,41.04 171.22,41.01 171.27,40.86 171.32,40.47 171.37,40.07 171.42,40.09 171.47,40.06 171.51,40.06 171.56,40.13 171.61,40.35 171.66,40.60 171.71,40.71 171.76,41.11 171.81,41.36 171.85,41.63 171.90,41.53 171.95,41.34 172.00,41.30 172.05,41.24 172.10,41.28 172.14,41.26 172.19,41.55 172.24,41.67 172.29,41.84 172.34,41.94 172.39,42.05 172.44,42.15 172.48,42.25 172.53,42.33 172.58,42.37 172.63,42.20 172.68,42.04 172.73,42.20 172.77,42.60 172.82,42.68 172.87,42.88 172.92,43.03 172.97,43.10 173.02,43.17 173.07,43.27 173.11,43.37 173.16,43.31 173.21,43.51 173.26,43.47 173.31,43.41 173.36,43.55 173.40,43.82 173.45,44.32 173.50,44.50 173.55,44.67 173.60,44.85 173.65,44.97 173.70,45.05 173.74,44.97 173.79,45.04 173.84,45.14 173.89,45.06 173.94,45.18 173.99,45.37 174.03,45.78 174.08,45.88 174.13,46.14 174.18,46.40 174.23,46.50 174.28,46.47 174.33,46.21 174.37,46.38 174.42,46.77 174.47,47.05 174.52,47.12 174.57,47.23 174.62,47.28 174.66,47.55 174.71,48.04 174.76,48.17 174.81,48.16 174.86,48.02 174.91,48.06 174.96,48.09 175.00,48.22 175.05,48.47 175.10,48.63 175.15,48.79 175.20,49.00 175.25,49.15 175.29,49.13 175.34,49.03 175.39,49.07 175.44,49.13 175.49,49.31 175.54,49.59 175.59,49.94 175.63,50.23 175.68,50.56 175.73,50.85 175.78,51.03 175.83,51.03 175.88,51.13 175.92,51.14 175.97,51.25 176.02,51.39 176.07,51.50 176.12,51.66 176.17,51.82 176.22,51.97 176.26,52.10 176.31,52.22 176.36,52.39 176.41,52.48 176.46,52.60 176.51,52.69 176.55,52.68 176.60,52.48 176.65,52.38 176.70,52.27 176.75,52.17 176.80,52.08 176.85,51.98 176.89,52.02 176.94,51.90 176.99,52.10 177.04,52.32 177.09,52.57 177.14,52.90 177.18,52.96 177.23,53.02 177.28,52.94 177.33,52.92 177.38,52.91 177.43,52.92 177.47,52.92 177.52,52.93 177.57,52.95 177.62,52.92 177.67,52.68 177.72,52.84 177.77,52.84 177.81,52.77 177.86,52.76 177.91,52.67 177.96,52.46 178.01,52.56 178.06,52.64 178.10,52.76 178.15,52.88 178.20,52.90 178.25,52.82 178.30,52.83 178.35,52.85 178.40,52.91 178.44,52.99 178.49,52.97 178.54,53.03 178.59,53.07 178.64,53.25 178.69,53.41 178.73,53.89 178.78,53.90 178.83,54.10 178.88,54.42 178.93,54.73 178.98,55.12 179.03,55.36 179.07,55.60 179.12,55.73 179.17,55.92 179.22,56.00 179.27,21.90 179.32,21.86 179.36,21.77 179.41,21.73 179.46,21.99 179.51,21.69 179.56,21.65 179.61,21.33 179.66,21.19 179.70,20.91 179.75,20.99 179.80,20.59 179.85,20.90 179.90,20.43 179.95,20.15 179.99,19.85 180.04,20.14 180.09,19.79 180.14,19.48 180.19,19.62 180.24,19.45 180.29,19.17 180.33,19.62 180.38,19.50 180.43,19.40 180.48,19.31 180.53,19.72 180.58,19.56 180.62,19.41 180.67,19.06 180.72,19.07 180.77,19.24 180.82,18.96 180.87,18.61 180.92,18.07 180.96,18.10 181.01,18.10 181.06,17.92 181.11,17.63 181.16,17.56 181.21,17.50 181.25,17.44 181.30,17.30 181.35,17.12 181.40,16.96 181.45,16.85 181.50,16.81 181.55,16.78 181.59,16.70 181.64,16.94 181.69,16.89 181.74,16.89 181.79,16.85 181.84,17.08 181.88,17.11 181.93,17.15 181.98,17.30 182.03,17.11 182.08,16.79 182.13,16.57 182.18,16.50 182.22,16.45 182.27,16.17 182.32,15.91 182.37,15.92 182.42,15.72 182.47,15.78 182.51,16.12 182.56,16.12 182.61,16.57 182.66,16.89 182.71,16.75 182.76,16.50 182.81,15.91 182.85,16.01 182.90,15.66 182.95,15.89 183.00,15.58 183.05,16.00 183.10,15.45 183.14,15.53 183.19,15.70 183.24,15.74 183.29,15.90 183.34,15.63 183.39,15.48 183.44,15.13 183.48,15.13 183.53,15.13 183.58,15.04 183.63,15.16 183.68,14.96 183.73,15.18 183.77,15.39 183.82,15.25 183.87,14.66 183.92,14.23 183.97,13.89 184.02,13.25 184.07,12.99 184.11,12.41 184.16,12.23 184.21,11.95 184.26,11.95 184.31,12.14 184.36,12.16 184.40,12.43 184.45,12.25 184.50,12.03 184.55,11.78 184.60,11.62 184.65,11.60 184.69,11.70 184.74,11.77 184.79,11.82 184.84,11.89 184.89,11.96 184.94,11.51 184.99,11.71 185.03,11.65 185.08,11.90 185.13,11.98 185.18,11.90 185.23,11.77 185.28,11.36 185.32,11.27 185.37,11.18 185.42,11.18 185.47,11.41 185.52,11.64 185.57,12.26 185.62,12.36 185.66,12.45 185.71,12.53 185.76,12.61 185.81,12.75 185.86,12.68 185.91,12.56 185.95,12.36 186.00,12.49 186.05,12.45 186.10,12.52 186.15,13.21 186.20,13.71 186.25,13.43 186.29,13.53 186.34,12.85 186.39,12.88 186.44,12.22 186.49,12.22 186.54,11.51 186.58,10.98 186.63,10.49 186.68,10.65 186.73,10.09 186.78,9.74 186.83,9.94 186.88,9.69 186.92,9.49 186.97,9.85 187.02,9.42 187.07,9.47 187.12,9.62 187.17,9.97 187.21,10.12 187.26,10.86 187.31,11.06 187.36,11.14 187.41,11.26 187.46,10.82 187.51,10.51 187.55,10.35 187.60,10.34 187.65,10.40 187.70,11.19 187.75,11.11 187.80,11.53 187.84,11.97 187.89,12.38 187.94,12.08 187.99,12.03 188.04,11.91 188.09,10.93 188.14,10.73 188.18,9.91 188.23,9.95 188.28,9.42 188.33,9.86 188.38,9.71 188.43,9.71 188.47,9.59 188.52,10.23 188.57,10.07 188.62,9.89 188.67,10.45 188.72,10.32 188.77,10.87 188.81,10.88 188.86,11.08 188.91,11.57 188.96,11.47 189.01,11.54 189.06,11.27 189.10,11.05 189.15,10.81 189.20,10.41 189.25,9.97 189.30,9.44 189.35,9.38 189.40,8.82 189.44,8.32 189.49,8.10 189.54,7.94 189.59,7.69 189.64,7.36 189.69,7.06 189.73,6.64 189.78,6.11 189.83,5.58 189.88,5.12 189.93,4.61 189.98,4.24 190.03,4.10 190.07,4.06 190.12,4.07 190.17,4.14 190.22,4.17 190.27,4.62 190.32,4.65 190.36,4.65 190.41,4.98 190.46,5.27 190.51,5.65 190.56,5.48 190.61,5.37 190.66,5.49 190.70,5.73 190.75,5.59 190.80,5.73 190.85,5.48 190.90,5.28 190.95,5.30 190.99,5.23 191.04,5.17 191.09,5.15 191.14,5.21 191.19,5.31 191.24,5.41 191.29,5.41 191.33,4.98 191.38,4.96 191.43,5.00 191.48,5.06 191.53,5.15 191.58,5.24 191.62,5.74 191.67,5.86 191.72,5.75 191.77,5.60 191.82,5.48 191.87,5.41 191.92,5.38 191.96,5.44 192.01,5.76 192.06,5.61 192.11,5.89 192.16,6.16 192.21,6.11 192.25,6.42 192.30,6.41 192.35,6.76 192.40,6.76 192.45,7.12 192.50,7.02 192.54,6.73 192.59,6.78 192.64,7.06 192.69,7.14 192.74,6.93 192.79,6.92 192.84,7.19 192.88,7.18 192.93,6.95 192.98,7.26 193.03,7.67 193.08,7.68 193.13,8.04 193.17,8.53 193.22,8.96 193.27,9.43 193.32,9.58 193.37,9.87 193.42,10.06 193.47,9.64 193.51,9.41 193.56,9.10 193.61,8.85 193.66,8.66 193.71,8.41 193.76,7.47 193.80,7.61 193.85,7.19 193.90,7.54 193.95,7.54 194.00,8.12 194.05,8.78 194.10,9.46 194.14,10.21 194.19,10.82 194.24,10.67 194.29,11.35 194.34,11.25 194.39,11.14 194.43,11.81 194.48,11.61 194.53,12.28 194.58,12.02 194.63,12.49 194.68,13.01 194.73,12.87 194.77,12.85 194.82,12.50 194.87,12.61 194.92,12.55 194.97,12.95 195.02,12.93 195.06,12.95 195.11,13.50 195.16,13.22 195.21,12.96 195.26,12.85 195.31,13.01 195.36,13.21 195.40,13.37 195.45,14.10 195.50,14.01 195.55,13.94 195.60,13.29 195.65,13.18 195.69,12.99 195.74,12.87 195.79,12.91 195.84,13.41 195.89,13.91 195.94,14.74 195.99,15.59 196.03,16.10 196.08,16.98 196.13,16.98 196.18,17.53 196.23,17.47 196.28,17.77 196.32,18.05 196.37,18.51 196.42,18.29 196.47,18.34 196.52,17.90 196.57,18.12 196.62,18.55 196.66,18.55 196.71,19.06 196.76,19.51 196.81,19.32 196.86,19.27 196.91,20.03 196.95,20.12 197.00,20.16 197.05,20.21 197.10,20.30 197.15,20.51 197.20,20.62 197.25,20.29 197.29,19.83 197.34,19.83 197.39,19.53 197.44,19.50 197.49,19.68 197.54,19.95 197.58,20.28 197.63,20.28 197.68,20.05 197.73,19.94 197.78,19.91 197.83,19.88 197.88,19.82 197.92,19.15 197.97,19.00 198.02,18.77 198.07,18.15 198.12,17.92 198.17,17.98 198.21,17.83 198.26,17.83 198.31,17.90 198.36,17.83 198.41,17.55 198.46,17.36 198.51,17.36 198.55,17.64 198.60,17.95 198.65,18.27 198.70,18.49 198.75,18.42 198.80,18.64 198.84,18.41 198.89,18.55 198.94,18.90 198.99,18.57 199.04,18.82 199.09,18.63 199.14,18.33 199.18,18.37 199.23,18.01 199.28,17.67 199.33,17.39 199.38,17.22 199.43,17.19 199.47,17.08 199.52,17.20 199.57,17.20 199.62,17.58 199.67,17.95 199.72,18.26 199.77,17.99 199.81,18.09 199.86,18.09 199.91,18.04 199.96,17.99 200.01,17.23 200.06,17.18 200.10,17.25 200.15,17.39 200.20,17.43 200.25,16.86 200.30,17.03 200.35,17.30 200.39,16.95 200.44,17.24 200.49,16.86 200.54,17.12 200.59,16.67 200.64,16.93 200.69,16.66 200.73,17.31 200.78,17.24 200.83,16.54 200.88,16.53 200.93,16.49 200.98,16.03 201.02,15.70 201.07,16.18 201.12,15.93 201.17,16.08 201.22,16.19 201.27,15.77 201.32,16.12 201.36,15.97 201.41,16.32 201.46,16.65 201.51,16.64 201.56,16.58 201.61,16.55 201.65,16.69 201.70,16.82 201.75,16.78 201.80,16.58 201.85,16.03 201.90,16.28 201.95,15.98 201.99,16.23 202.04,16.09 202.09,16.01 202.14,16.28 202.19,16.03 202.24,16.27 202.28,15.96 202.33,16.25 202.38,15.95 202.43,16.24 202.48,16.42 202.53,15.94 202.58,16.13 202.62,15.75 202.67,16.08 202.72,15.75 202.77,15.42 202.82,15.72 202.87,15.39 202.91,15.71 202.96,15.44 203.01,15.01 203.06,15.42 203.11,15.23 203.16,15.07 203.21,14.96 203.25,14.91 203.30,14.39 203.35,14.55 203.40,14.56 203.45,14.49 203.50,13.66 203.54,13.44 203.59,12.82 203.64,12.78 203.69,12.46 203.74,12.61 203.79,12.53 203.84,12.72 203.88,12.82 203.93,13.05 203.98,13.19 204.03,13.15 204.08,12.98 204.13,12.74 204.17,13.11 204.22,12.76 204.27,12.44 204.32,12.20 204.37,12.46 204.42,12.41 204.47,12.42 204.51,12.49 204.56,13.31 204.61,13.38 204.66,13.41 204.71,14.15 204.76,13.53 204.80,13.09 204.85,13.25 204.90,12.86 204.95,13.01 205.00,13.20 205.05,12.86 205.10,13.37 205.14,12.73 205.19,13.01 205.24,12.72 205.29,12.98 205.34,12.66 205.39,12.35 205.43,12.62 205.48,12.42 205.53,12.26 205.58,12.84 205.63,12.77 205.68,12.61 205.73,12.59 205.77,12.20 205.82,11.86 205.87,11.95 205.92,12.26 205.97,11.89 206.02,11.76 206.06,11.60 206.11,11.70 206.16,11.48 206.21,11.48 206.26,11.25 206.31,11.34 206.36,11.46 206.40,11.26 206.45,11.45 206.50,11.66 206.55,11.54 206.60,11.77 206.65,11.68 206.69,11.30 206.74,11.74 206.79,11.88 206.84,12.50 206.89,12.58 206.94,12.61 206.99,12.61 207.03,12.40 207.08,11.96 207.13,12.19 207.18,12.33 207.23,11.91 207.28,12.22 207.32,12.11 207.37,12.11 207.42,12.17 207.47,12.63 207.52,12.45 207.57,12.66 207.62,12.85 207.66,12.55 207.71,12.39 207.76,12.00 207.81,12.06 207.86,12.06 207.91,12.23 207.95,11.99 208.00,12.24 208.05,12.17 208.10,12.76 208.15,12.90 208.20,13.00 208.24,13.07 208.29,13.08 208.34,13.09 208.39,13.20 208.44,13.32 208.49,12.76 208.54,12.88 208.58,12.99 208.63,12.42 208.68,12.59 208.73,11.95 208.78,12.15 208.83,12.40 208.87,12.08 208.92,12.47 208.97,12.89 209.02,13.46 209.07,13.88 209.12,14.01 209.17,14.56 209.21,14.74 209.26,15.33 209.31,15.78 209.36,15.48 209.41,15.33 209.46,15.08 209.50,14.85 209.55,15.25 209.60,15.69 209.65,16.01 209.70,16.22 209.75,16.30 209.80,16.45 209.84,15.95 209.89,16.32 209.94,16.72 209.99,16.37 210.04,16.71 210.09,16.23 210.13,16.58 210.18,16.89 210.23,17.36 210.28,17.50 210.33,17.59 210.38,17.52 210.43,17.30 210.47,17.79 210.52,17.42 210.57,17.22 210.62,16.95 210.67,17.43 210.72,17.14 210.76,16.91 210.81,16.70 210.86,16.54 210.91,16.60 210.96,17.45 211.01,17.50 211.06,17.52 211.10,17.51 211.15,17.30 211.20,18.00 211.25,17.89 211.30,17.73 211.35,17.50 211.39,17.29 211.44,17.15 211.49,17.13 211.54,16.72 211.59,16.97 211.64,17.07 211.69,17.25 211.73,17.25 211.78,17.55 211.83,18.14 211.88,18.49 211.93,18.52 211.98,18.00 212.02,17.70 212.07,17.36 212.12,17.08 212.17,16.94 212.22,16.94 212.27,17.03 212.32,17.25 212.36,17.36 212.41,17.50 212.46,17.02 212.51,17.27 212.56,16.79 212.61,17.09 212.65,16.77 212.70,17.20 212.75,16.94 212.80,17.25 212.85,16.79 212.90,17.25 212.95,17.13 212.99,17.80 213.04,17.62 213.09,18.01 213.14,17.70 213.19,17.43 213.24,17.97 213.28,17.61 213.33,18.09 213.38,18.53 213.43,18.09 213.48,18.54 213.53,18.88 213.58,18.43 213.62,18.59 213.67,17.98 213.72,18.06 213.77,18.00 213.82,17.87 213.87,17.92 213.91,18.16 213.96,18.76 214.01,18.91 214.06,18.94 214.11,18.92 214.16,18.88 214.21,18.80 214.25,18.74 214.30,18.73 214.35,18.74 214.40,19.45 214.45,20.36 214.50,20.36 214.54,21.35 214.59,22.16 214.64,22.05 214.69,22.44 214.74,22.15 214.79,21.95 214.84,21.30 214.88,21.30 214.93,20.66 214.98,20.74 215.03,20.45 215.08,20.38 215.13,20.92 215.17,20.38 215.22,20.28 215.27,20.65 215.32,20.13 215.37,20.28 215.42,19.74 215.46,19.92 215.51,19.27 215.56,19.47 215.61,19.25 215.66,19.31 215.71,19.16 215.76,19.55 215.80,19.58 215.85,20.36 215.90,20.45 215.95,19.76 216.00,19.84 216.05,20.73 216.09,20.91 216.14,21.86 216.19,21.91 216.24,21.85 216.29,22.49 216.34,22.31 216.39,22.12 216.43,21.92 216.48,21.64 216.53,21.55 216.58,21.44 216.63,21.32 216.68,21.23 216.72,21.13 216.77,21.87 216.82,21.80 216.87,22.52 216.92,23.33 216.97,24.05 217.02,24.33 217.06,24.66 217.11,24.78 217.16,24.24 217.21,23.55 217.26,23.50 217.31,22.90 217.35,22.33 217.40,21.85 217.45,21.60 217.50,22.03 217.55,22.13 217.60,21.62 217.65,21.86 217.69,22.07 217.74,22.42 217.79,22.84 217.84,22.89 217.89,23.18 217.94,23.30 217.98,23.13 218.03,23.02 218.08,23.00 218.13,23.07 218.18,23.23 218.23,24.20 218.28,24.51 218.32,24.76 218.37,25.26 218.42,25.75 218.47,25.75 218.52,26.28 218.57,26.67 218.61,26.96 218.66,27.21 218.71,26.93 218.76,26.93 218.81,26.70 218.86,26.95 218.91,26.67 218.95,26.59 219.00,26.35 219.05,26.70 219.10,26.52 219.15,27.13 219.20,27.00 219.24,26.88 219.29,26.18 219.34,26.49 219.39,26.84 219.44,27.49 219.49,28.02 219.54,28.86 219.58,28.56 219.63,28.76 219.68,28.35 219.73,28.15 219.78,28.17 219.83,28.36 219.87,29.04 219.92,28.58 219.97,29.06 220.02,28.97 220.07,28.57 220.12,28.83 220.17,29.34 220.21,29.82 220.26,30.18 220.31,30.69 220.36,30.60 220.41,30.72 220.46,30.30 220.50,30.58 220.55,30.84 220.60,30.28 220.65,30.34 220.70,29.70 220.75,29.10 220.80,28.58 220.84,28.84 220.89,29.77 220.94,29.51 220.99,29.38 221.04,28.15 221.09,27.21 221.13,27.15 221.18,27.15 221.23,27.17 221.28,27.21 221.33,27.27 221.38,27.49 221.43,28.53 221.47,28.60 221.52,29.18 221.57,29.24 221.62,29.25 221.67,29.30 221.72,29.46 221.76,29.61 221.81,29.27 221.86,29.27 221.91,29.33 221.96,29.39 222.01,29.31 222.06,29.07 222.10,28.90 222.15,28.90 222.20,29.15 222.25,29.31 222.30,29.54 222.35,29.77 222.39,30.01 222.44,30.28 222.49,30.50 222.54,30.66 222.59,30.87 222.64,31.13 222.69,31.40 222.73,31.35 222.78,31.27 222.83,31.64 222.88,31.71 222.93,31.75 222.98,32.21 223.02,31.80 223.07,31.93 223.12,32.45 223.17,32.45 223.22,32.38 223.27,32.81 223.31,32.86 223.36,32.45 223.41,33.02 223.46,33.15 223.51,33.67 223.56,33.74 223.61,34.16 223.65,33.90 223.70,33.63 223.75,33.59 223.80,33.59 223.85,33.68 223.90,33.25 223.94,33.32 223.99,33.42 224.04,33.42 224.09,33.57 224.14,33.64 224.19,34.14 224.24,34.08 224.28,34.51 224.33,34.83 224.38,34.63 224.43,34.30 224.48,33.73 224.53,33.79 224.57,33.57 224.62,34.02 224.67,33.90 224.72,34.16 224.77,34.44 224.82,34.65 224.87,34.53 224.91,34.27 224.96,34.10 225.01,34.17 225.06,34.32 225.11,34.53 225.16,34.26 225.20,34.47 225.25,34.27 225.30,34.30 225.35,34.30 225.40,34.58 225.45,34.50 225.50,34.79 225.54,35.22 225.59,35.56 225.64,35.69 225.69,35.82 225.74,35.95 225.79,35.55 225.83,35.76 225.88,35.51 225.93,35.80 225.98,35.81 226.03,35.58 226.08,35.95 226.13,36.29 226.17,36.61 226.22,36.99 226.27,36.85 226.32,36.87 226.37,36.54 226.42,36.86 226.46,36.52 226.51,36.65 226.56,37.08 226.61,37.09 226.66,37.29 226.71,37.09 226.76,37.09 226.80,36.93 226.85,36.86 226.90,36.81 226.95,37.01 227.00,36.70 227.05,36.81 227.09,36.87 227.14,36.58 227.19,36.58 227.24,36.38 227.29,36.40 227.34,36.38 227.39,36.43 227.43,36.51 227.48,36.65 227.53,36.74 227.58,36.83 227.63,37.06 227.68,37.09 227.72,37.12 227.77,37.12 227.82,37.33 227.87,37.33 227.92,37.60 227.97,37.63 228.02,38.08 228.06,38.54 228.11,38.83 228.16,39.08 228.21,39.26 228.26,39.39 228.31,38.81 228.35,38.96 228.40,39.11 228.45,38.60 228.50,38.37 228.55,38.67 228.60,38.67 228.65,38.47 228.69,38.62 228.74,38.98 228.79,39.27 228.84,39.49 228.89,39.91 228.94,39.97 228.98,39.97 229.03,40.07 229.08,40.27 229.13,40.78 229.18,40.49 229.23,40.29 229.28,39.99 229.32,39.82 229.37,40.08 229.42,39.98 229.47,40.46 229.52,40.87 229.57,41.01 229.61,40.84 229.66,41.09 229.71,40.85 229.76,40.35 229.81,40.20 229.86,40.15 229.91,40.18 229.95,40.34 230.00,40.32 230.05,40.58 230.10,40.66 230.15,41.05 230.20,41.40 230.24,41.59 230.29,41.52 230.34,41.38 230.39,41.27 230.44,41.25 230.49,41.30 230.54,41.33 230.58,41.50 230.63,41.70 230.68,41.83 230.73,41.95 230.78,42.05 230.83,42.17 230.87,42.29 230.92,42.30 230.97,42.30 231.02,42.21 231.07,42.07 231.12,42.45 231.16,42.47 231.21,42.81 231.26,42.98 231.31,42.87 231.36,43.17 231.41,43.34 231.46,43.38 231.50,43.15 231.55,43.40 231.60,43.50 231.65,43.60 231.70,43.36 231.75,43.74 231.79,43.69 231.84,44.22 231.89,44.44 231.94,44.66 231.99,44.87 232.04,45.03 232.09,44.88 232.13,45.09 232.18,45.08 232.23,45.30 232.28,44.97 232.33,45.13 232.38,45.32 232.42,45.76 232.47,45.99 232.52,46.16 232.57,46.40 232.62,46.40 232.67,46.39 232.72,46.40 232.76,46.21 232.81,46.55 232.86,46.92 232.91,47.09 232.96,47.34 233.01,47.36 233.05,47.74 233.10,47.98 233.15,48.21 233.20,48.21 233.25,48.26 233.30,48.10 233.35,48.19 233.39,48.35 233.44,48.50 233.49,48.58 233.54,48.83 233.59,48.95 233.64,49.10 233.68,49.22 233.73,49.04 233.78,48.95 233.83,49.17 233.88,49.25 233.93,49.54 233.98,49.88 234.02,50.20 234.07,50.53 234.12,50.90 234.17,50.97 234.22,51.09 234.27,51.21 234.31,51.15 234.36,51.31 234.41,51.40 234.46,51.52 234.51,51.67 234.56,51.83 234.61,52.01 234.65,52.16 234.70,52.20 234.75,52.38 234.80,52.57 234.85,52.64 234.90,52.70 234.94,52.70 234.99,52.57 235.04,52.40 235.09,52.24 235.14,52.24 235.19,52.10 235.24,52.04 235.28,51.83 235.33,51.83 235.38,52.10 235.43,52.27 235.48,52.64 235.53,52.90 235.57,53.01 235.62,53.01 235.67,53.01 235.72,52.95 235.77,52.93 235.82,52.93 235.87,52.95 235.91,52.88 235.96,52.91 236.01,52.95 236.06,52.74 236.11,52.78 236.16,52.81 236.20,52.77 236.25,52.82 236.30,52.71 236.35,52.53 236.40,52.57 236.45,52.65 236.50,52.85 236.54,52.88 236.59,52.97 236.64,52.88 236.69,52.90 236.74,52.83 236.79,52.92 236.83,53.00 236.88,53.00 236.93,53.08 236.98,53.07 237.03,53.25 237.08,53.55 237.13,53.80 237.17,53.89 237.22,54.16 237.27,54.58 237.32,54.58 237.37,55.01 237.42,55.38 237.46,55.66 237.51,55.66 237.56,55.87 237.61,56.00 237.66,21.94 237.71,21.73 237.76,21.73 237.80,21.73 237.85,22.51 237.90,21.57 237.95,21.57 238.00,21.57 238.05,20.66 238.09,20.66 238.14,22.16 238.19,21.42 238.24,21.42 238.29,20.52 238.34,20.52 238.38,20.52 238.43,19.48 238.48,19.48 238.53,19.48 238.58,20.47 238.63,20.47 238.68,20.07 238.72,20.07 238.77,20.07 238.82,19.67 238.87,19.67 238.92,19.67 238.97,19.17 239.01,19.17 239.06,18.29 239.11,19.18 239.16,19.18 239.21,19.18 239.26,18.43 239.31,18.43 239.35,17.56 239.40,17.56 239.45,17.56 239.50,16.61 239.55,17.31 239.60,17.31 239.64,17.31 239.69,17.26 239.74,17.26 239.79,17.26 239.84,16.90 239.89,16.90 239.94,16.90 239.98,16.69 240.03,17.52 240.08,17.52 240.13,17.52 240.18,17.36 240.23,17.36 240.27,17.36 240.32,17.34 240.37,17.34 240.42,17.34 240.47,16.85 240.52,16.85 240.57,16.85 240.61,16.46 240.66,16.46 240.71,16.46 240.76,16.46 240.81,15.83 240.86,15.83 240.90,15.83 240.95,15.83 241.00,16.59 241.05,16.59 241.10,16.59 241.15,17.11 241.20,16.13 241.24,16.13 241.29,16.19 241.34,16.19 241.39,16.19 241.44,16.85 241.49,15.52 241.53,15.52 241.58,15.52 241.63,16.21 241.68,16.21 241.73,15.31 241.78,15.36 241.83,15.36 241.87,15.36 241.92,15.96 241.97,15.12 242.02,15.12 242.07,15.58 242.12,15.58 242.16,15.58 242.21,15.36 242.26,15.36 242.31,14.96 242.36,14.96 242.41,13.41 242.46,13.41 242.50,13.20 242.55,12.34 242.60,12.34 242.65,12.34 242.70,12.34 242.75,12.14 242.79,12.90 242.84,12.90 242.89,12.90 242.94,13.07 242.99,13.07 243.04,13.07 243.09,13.25 243.13,13.25 243.18,13.27 243.23,13.27 243.28,13.27 243.33,11.94 243.38,11.94 243.42,11.94 243.47,12.44 243.52,12.44 243.57,11.80 243.62,11.60 243.67,11.60 243.72,11.60 243.76,11.74 243.81,11.74 243.86,11.70 243.91,11.70 243.96,12.30 244.01,12.30 244.05,12.68 244.10,12.68 244.15,12.68 244.20,12.44 244.25,12.44 244.30,13.25 244.35,13.06 244.39,13.06 244.44,13.06 244.49,13.45 244.54,13.45 244.59,14.03 244.64,14.03 244.68,14.03 244.73,14.28 244.78,14.28 244.83,12.24 244.88,12.24 244.93,12.40 244.98,12.40 245.02,10.54 245.07,11.06 245.12,11.06 245.17,11.06 245.22,11.06 245.27,10.35 245.31,10.35 245.36,10.35 245.41,10.35 245.46,10.21 245.51,10.21 245.56,10.21 245.61,10.90 245.65,10.90 245.70,10.90 245.75,10.58 245.80,12.14 245.85,11.44 245.90,11.44 245.94,11.44 245.99,11.58 246.04,11.58 246.09,12.23 246.14,12.23 246.19,12.23 246.23,13.30 246.28,13.30 246.33,11.89 246.38,11.71 246.43,11.71 246.48,11.71 246.53,11.48 246.57,11.48 246.62,11.94 246.67,9.92 246.72,9.92 246.77,11.40 246.82,11.40 246.86,11.40 246.91,11.40 246.96,11.02 247.01,11.02 247.06,11.02 247.11,12.20 247.16,12.20 247.20,10.87 247.25,12.15 247.30,12.15 247.35,12.15 247.40,13.06 247.45,11.39 247.49,11.39 247.54,11.39 247.59,10.36 247.64,10.39 247.69,10.39 247.74,10.39 247.79,8.86 247.83,8.86 247.88,8.86 247.93,7.93 247.98,7.93 248.03,7.93 248.08,6.98 248.12,6.98 248.17,6.98 248.22,5.58 248.27,5.58 248.32,5.58 248.37,4.38 248.42,4.38 248.46,4.38 248.51,4.11 248.56,4.11 248.61,4.11 248.66,5.42 248.71,5.42 248.75,5.42 248.80,5.42 248.85,5.46 248.90,5.46 248.95,5.52 249.00,5.52 249.05,5.52 249.09,5.96 249.14,5.96 249.19,5.96 249.24,5.37 249.29,5.37 249.34,5.37 249.38,5.28 249.43,5.28 249.48,5.47 249.53,5.47 249.58,5.47 249.63,5.50 249.68,5.50 249.72,5.36 249.77,5.53 249.82,5.53 249.87,6.02 249.92,6.02 249.97,6.02 250.01,6.44 250.06,6.44 250.11,6.12 250.16,6.12 250.21,6.12 250.26,5.92 250.31,5.92 250.35,5.92 250.40,6.46 250.45,6.46 250.50,7.58 250.55,7.58 250.60,6.14 250.64,7.32 250.69,7.32 250.74,7.32 250.79,8.54 250.84,8.54 250.89,7.09 250.94,7.09 250.98,8.10 251.03,8.10 251.08,7.16 251.13,7.16 251.18,8.14 251.23,8.14 251.27,7.23 251.32,7.23 251.37,8.42 251.42,8.42 251.47,8.14 251.52,8.14 251.57,9.73 251.61,9.73 251.66,9.73 251.71,9.98 251.76,9.98 251.81,9.98 251.86,9.80 251.90,9.80 251.95,9.11 252.00,9.11 252.05,9.11 252.10,8.05 252.15,8.05 252.20,6.86 252.24,6.86 252.29,9.09 252.34,9.09 252.39,8.54 252.44,8.54 252.49,10.82 252.53,10.82 252.58,10.82 252.63,10.43 252.68,12.83 252.73,12.83 252.78,12.42 252.83,12.42 252.87,12.42 252.92,11.76 252.97,11.76 253.02,13.69 253.07,12.75 253.12,12.75 253.16,12.75 253.21,11.79 253.26,13.06 253.31,13.06 253.36,13.06 253.41,12.79 253.46,12.79 253.50,14.57 253.55,14.08 253.60,14.08 253.65,14.08 253.70,14.36 253.75,14.36 253.79,14.71 253.84,14.71 253.89,14.71 253.94,14.62 253.99,14.62 254.04,13.92 254.08,13.92 254.13,13.92 254.18,13.34 254.23,13.98 254.28,13.98 254.33,15.14 254.38,15.14 254.42,16.53 254.47,16.53 254.52,16.53 254.57,17.52 254.62,18.20 254.67,18.20 254.71,18.20 254.76,19.05 254.81,19.14 254.86,19.14 254.91,19.14 254.96,18.19 255.01,20.13 255.05,20.13 255.10,20.13 255.15,19.56 255.20,19.56 255.25,19.56 255.30,21.16 255.34,21.16 255.39,21.16 255.44,21.11 255.49,21.11 255.54,21.11 255.59,21.23 255.64,21.23 255.68,21.23 255.73,21.23 255.78,20.62 255.83,20.62 255.88,20.62 255.93,20.92 255.97,20.92 256.02,20.92 256.07,21.09 256.12,21.09 256.17,21.09 256.22,20.78 256.27,20.78 256.31,19.29 256.36,18.93 256.41,18.93 256.46,18.93 256.51,18.23 256.56,18.23 256.60,18.23 256.65,17.87 256.70,17.87 256.75,17.87 256.80,17.52 256.85,18.25 256.90,18.25 256.94,18.25 256.99,18.25 257.04,18.78 257.09,18.78 257.14,18.34 257.19,18.34 257.23,18.34 257.28,18.34 257.33,18.34 257.38,18.34 257.43,18.34 257.48,18.77 257.53,17.65 257.57,17.65 257.62,17.90 257.67,17.90 257.72,17.48 257.77,17.15 257.82,17.15 257.86,17.39 257.91,17.39 257.96,17.39 258.01,17.52 258.06,18.41 258.11,18.41 258.16,18.41 258.20,18.89 258.25,18.89 258.30,18.94 258.35,18.94 258.40,17.24 258.45,17.30 258.49,17.30 258.54,17.56 258.59,17.56 258.64,17.56 258.69,18.08 258.74,18.08 258.79,18.08 258.83,18.78 258.88,17.12 258.93,17.12 258.98,18.17 259.03,18.17 259.08,18.17 259.12,19.58 259.17,17.80 259.22,17.80 259.27,17.80 259.32,17.71 259.37,17.71 259.42,17.71 259.46,17.71 259.51,16.45 259.56,16.45 259.61,17.83 259.66,16.46 259.71,16.46 259.75,16.46 259.80,17.26 259.85,17.26 259.90,17.60 259.95,17.60 260.00,17.60 260.05,17.87 260.09,17.87 260.14,17.87 260.19,17.18 260.24,17.18 260.29,16.35 260.34,16.35 260.38,16.35 260.43,15.82 260.48,15.82 260.53,17.32 260.58,16.56 260.63,16.56 260.68,16.56 260.72,15.60 260.77,15.60 260.82,17.39 260.87,16.16 260.92,16.16 260.97,16.16 261.01,15.09 261.06,17.15 261.11,17.15 261.16,16.08 261.21,16.08 261.26,16.08 261.31,15.25 261.35,15.25 261.40,14.67 261.45,16.45 261.50,16.45 261.55,15.97 261.60,15.97 261.64,15.97 261.69,14.49 261.74,14.49 261.79,14.27 261.84,14.27 261.89,14.27 261.93,13.78 261.98,13.78 262.03,13.78 262.08,12.78 262.13,12.78 262.18,12.78 262.23,13.40 262.27,13.40 262.32,13.40 262.37,13.91 262.42,13.91 262.47,13.64 262.52,13.64 262.56,13.64 262.61,12.85 262.66,12.85 262.71,12.85 262.76,12.50 262.81,12.50 262.86,12.59 262.90,12.59 262.95,14.69 263.00,14.69 263.05,14.69 263.10,14.69 263.15,13.68 263.19,13.68 263.24,12.51 263.29,12.51 263.34,14.05 263.39,13.04 263.44,13.04 263.49,13.04 263.53,12.19 263.58,13.79 263.63,13.79 263.68,12.92 263.73,12.92 263.78,12.92 263.82,12.33 263.87,12.33 263.92,12.33 263.97,13.86 264.02,13.86 264.07,13.86 264.12,12.70 264.16,12.70 264.21,11.67 264.26,11.67 264.31,12.31 264.36,12.31 264.41,11.37 264.45,11.37 264.50,11.62 264.55,11.62 264.60,11.62 264.65,10.80 264.70,11.01 264.75,11.01 264.79,11.01 264.84,11.56 264.89,11.56 264.94,11.56 264.99,12.57 265.04,11.45 265.08,11.45 265.13,11.45 265.18,13.04 265.23,13.04 265.28,11.59 265.33,12.59 265.38,12.59 265.42,12.59 265.47,10.79 265.52,11.53 265.57,11.53 265.62,11.53 265.67,12.58 265.71,12.58 265.76,12.58 265.81,11.47 265.86,12.17 265.91,12.17 265.96,12.17 266.01,12.88 266.05,12.88 266.10,11.75 266.15,11.75 266.20,13.08 266.25,13.08 266.30,12.34 266.34,12.34 266.39,12.34 266.44,12.28 266.49,13.98 266.54,14.45 266.59,14.45 266.64,14.45 266.68,14.57 266.73,14.57 266.78,15.03 266.83,15.03 266.88,12.79 266.93,13.19 266.97,13.19 267.02,13.19 267.07,13.66 267.12,13.66 267.17,13.66 267.22,14.27 267.27,12.52 267.31,12.52 267.36,13.82 267.41,13.82 267.46,15.38 267.51,15.38 267.56,15.38 267.60,15.63 267.65,15.63 267.70,15.63 267.75,15.80 267.80,15.80 267.85,15.80 267.90,16.12 267.94,16.12 267.99,17.01 268.04,17.01 268.09,17.01 268.14,17.44 268.19,17.44 268.23,18.18 268.28,18.18 268.33,18.18 268.38,16.97 268.43,16.97 268.48,16.97 268.53,17.73 268.57,17.73 268.62,18.17 268.67,18.17 268.72,18.17 268.77,17.80 268.82,17.80 268.86,17.80 268.91,17.20 268.96,17.20 269.01,16.48 269.06,18.80 269.11,18.80 269.15,18.25 269.20,18.25 269.25,18.30 269.30,18.30 269.35,18.30 269.40,18.34 269.45,18.34 269.49,18.34 269.54,17.99 269.59,17.99 269.64,17.54 269.69,17.54 269.74,17.54 269.78,17.27 269.83,17.27 269.88,17.83 269.93,17.83 269.98,17.83 270.03,19.09 270.08,17.91 270.12,17.91 270.17,17.91 270.22,19.40 270.27,19.40 270.32,18.35 270.37,17.94 270.41,17.94 270.46,17.94 270.51,17.58 270.56,17.58 270.61,17.58 270.66,17.89 270.71,17.89 270.75,18.35 270.80,18.35 270.85,18.35 270.90,19.21 270.95,17.21 271.00,17.21 271.04,18.48 271.09,18.48 271.14,18.48 271.19,19.74 271.24,17.41 271.29,17.41 271.34,18.94 271.38,18.94 271.43,18.94 271.48,20.41 271.53,18.23 271.58,18.23 271.63,19.63 271.67,19.63 271.72,19.63 271.77,20.70 271.82,18.42 271.87,18.42 271.92,19.20 271.97,19.20 272.01,19.20 272.06,19.40 272.11,19.40 272.16,19.56 272.21,19.56 272.26,19.56 272.30,20.25 272.35,20.25 272.40,20.59 272.45,20.59 272.50,20.59 272.55,20.28 272.60,20.28 272.64,20.23 272.69,20.23 272.74,20.23 272.79,20.42 272.84,20.42 272.89,20.42 272.93,22.79 272.98,22.24 273.03,22.24 273.08,22.24 273.13,21.18 273.18,21.30 273.23,21.30 273.27,21.30 273.32,19.70 273.37,20.44 273.42,20.44 273.47,20.44 273.52,21.89 273.56,19.86 273.61,19.86 273.66,19.86 273.71,20.44 273.76,20.44 273.81,18.62 273.86,19.37 273.90,19.37 273.95,19.37 274.00,19.37 274.05,20.24 274.10,20.24 274.15,20.24 274.19,20.49 274.24,20.49 274.29,20.49 274.34,20.69 274.39,20.69 274.44,21.01 274.49,21.01 274.53,23.27 274.58,23.15 274.63,23.15 274.68,23.15 274.73,22.71 274.78,22.71 274.82,22.71 274.87,22.42 274.92,22.42 274.97,22.08 275.02,22.08 275.07,22.08 275.12,21.78 275.16,21.78 275.21,21.78 275.26,23.67 275.31,23.67 275.36,23.67 275.41,24.66 275.45,24.66 275.50,24.66 275.55,23.01 275.60,22.91 275.65,22.91 275.70,22.91 275.75,21.51 275.79,22.65 275.84,22.65 275.89,22.91 275.94,22.91 275.99,22.91 276.04,23.07 276.08,23.07 276.13,23.80 276.18,23.80 276.23,22.80 276.28,23.20 276.33,23.20 276.38,23.12 276.42,23.12 276.47,23.12 276.52,23.58 276.57,23.58 276.62,25.55 276.67,25.55 276.71,25.55 276.76,25.80 276.81,25.80 276.86,25.80 276.91,27.08 276.96,26.04 277.00,26.04 277.05,26.73 277.10,26.73 277.15,26.73 277.20,26.73 277.25,27.57 277.30,26.37 277.34,26.37 277.39,26.37 277.44,27.86 277.49,27.86 277.54,27.86 277.59,27.57 277.63,27.57 277.68,27.57 277.73,28.03 277.78,28.03 277.83,28.03 277.88,27.48 277.93,29.37 277.97,29.37 278.02,29.37 278.07,29.02 278.12,29.02 278.17,29.02 278.22,28.81 278.26,28.81 278.31,27.63 278.36,29.15 278.41,29.15 278.46,29.15 278.51,28.25 278.56,29.82 278.60,29.82 278.65,29.82 278.70,30.75 278.75,30.75 278.80,30.75 278.85,29.28 278.89,29.65 278.94,29.65 278.99,29.65 279.04,29.79 279.09,29.79 279.14,28.48 279.19,28.48 279.23,30.22 279.28,30.22 279.33,28.67 279.38,28.67 279.43,26.57 279.48,26.57 279.52,26.55 279.57,26.55 279.62,26.55 279.67,26.55 279.72,27.05 279.77,27.05 279.82,27.05 279.86,27.41 279.91,29.24 279.96,29.24 280.01,29.55 280.06,29.55 280.11,29.55 280.15,29.86 280.20,28.43 280.25,28.43 280.30,28.43 280.35,28.66 280.40,28.66 280.45,28.66 280.49,29.24 280.54,29.24 280.59,29.31 280.64,29.83 280.69,29.83 280.74,29.83 280.78,30.50 280.83,30.91 280.88,30.91 280.93,30.91 280.98,30.91 281.03,31.75 281.08,31.75 281.12,31.75 281.17,32.89 281.22,32.89 281.27,31.74 281.32,33.06 281.37,33.06 281.41,33.06 281.46,31.97 281.51,33.34 281.56,33.34 281.61,33.34 281.66,34.76 281.71,33.42 281.75,33.42 281.80,33.42 281.85,34.89 281.90,34.89 281.95,33.62 282.00,34.81 282.04,34.81 282.09,34.81 282.14,34.53 282.19,34.53 282.24,34.53 282.29,34.53 282.34,33.39 282.38,34.82 282.43,34.82 282.48,34.82 282.53,33.65 282.58,34.92 282.63,34.92 282.67,34.92 282.72,35.18 282.77,35.18 282.82,34.70 282.87,34.70 282.92,34.70 282.97,34.28 283.01,34.28 283.06,34.28 283.11,35.07 283.16,35.07 283.21,35.07 283.26,34.74 283.30,34.74 283.35,34.86 283.40,34.86 283.45,34.86 283.50,35.50 283.55,35.50 283.60,35.50 283.64,34.86 283.69,34.86 283.74,34.86 283.79,34.86 283.84,34.44 283.89,35.71 283.93,35.71 283.98,36.34 284.03,36.34 284.08,36.34 284.13,36.71 284.18,36.71 284.23,36.71 284.27,36.11 284.32,36.11 284.37,36.11 284.42,36.11 284.47,36.92 284.52,36.92 284.56,37.06 284.61,37.06 284.66,37.06 284.71,36.27 284.76,36.27 284.81,37.28 284.85,37.28 284.90,36.97 284.95,36.97 285.00,36.97 285.05,36.95 285.10,36.95 285.15,36.95 285.19,36.95 285.24,36.68 285.29,36.68 285.34,36.68 285.39,36.68 285.44,36.90 285.48,36.90 285.53,36.41 285.58,36.46 285.63,36.46 285.68,36.46 285.73,36.56 285.78,36.56 285.82,36.56 285.87,36.83 285.92,36.83 285.97,36.83 286.02,37.31 286.07,37.31 286.11,37.58 286.16,37.58 286.21,37.58 286.26,37.58 286.31,37.64 286.36,37.64 286.41,38.54 286.45,38.60 286.50,38.60 286.55,39.17 286.60,39.17 286.65,39.17 286.70,39.68 286.74,39.68 286.79,39.68 286.84,40.21 286.89,38.76 286.94,38.76 286.99,39.66 287.04,39.66 287.08,39.00 287.13,39.00 287.18,40.09 287.23,40.09 287.28,40.09 287.33,40.78 287.37,40.78 287.42,40.78 287.47,40.78 287.52,41.90 287.57,40.88 287.62,40.88 287.67,40.88 287.71,39.84 287.76,41.27 287.81,41.27 287.86,41.27 287.91,40.63 287.96,40.54 288.00,40.54 288.05,41.78 288.10,41.38 288.15,41.38 288.20,41.03 288.25,41.03 288.30,41.03 288.34,41.38 288.39,40.63 288.44,40.63 288.49,41.54 288.54,41.54 288.59,41.54 288.63,42.05 288.68,42.05 288.73,41.76 288.78,41.76 288.83,41.76 288.88,41.63 288.93,41.63 288.97,41.50 289.02,41.91 289.07,41.91 289.12,42.45 289.17,42.45 289.22,42.45 289.26,42.96 289.31,42.96 289.36,42.96 289.41,42.96 289.46,42.83 289.51,42.83 289.56,42.83 289.60,42.71 289.65,43.68 289.70,43.68 289.75,43.68 289.80,43.29 289.85,44.09 289.89,44.09 289.94,44.09 289.99,43.47 290.04,44.44 290.09,44.44 290.14,44.44 290.19,44.14 290.23,44.14 290.28,44.14 290.33,44.65 290.38,44.65 290.43,44.65 290.48,45.18 290.52,45.18 290.57,45.18 290.62,45.74 290.67,44.98 290.72,44.98 290.77,44.98 290.82,45.81 290.86,45.81 290.91,45.43 290.96,46.34 291.01,46.34 291.06,46.34 291.11,46.34 291.15,46.84 291.20,46.84 291.25,46.84 291.30,47.46 291.35,47.46 291.40,47.46 291.45,47.80 291.49,47.80 291.54,48.44 291.59,48.44 291.64,48.44 291.69,48.44 291.74,48.44 291.78,48.76 291.83,48.76 291.88,48.76 291.93,48.76 291.98,48.99 292.03,48.99 292.08,48.99 292.12,48.99 292.17,49.37 292.22,49.37 292.27,48.81 292.32,49.57 292.37,49.57 292.41,49.57 292.46,50.46 292.51,50.74 292.56,50.74 292.61,50.74 292.66,51.17 292.70,51.17 292.75,51.65 292.80,51.65 292.85,51.53 292.90,52.04 292.95,52.04 293.00,52.04 293.04,52.46 293.09,52.54 293.14,52.54 293.19,52.54 293.24,52.64 293.29,52.64 293.33,52.64 293.38,52.64 293.43,52.70 293.48,52.28 293.53,52.28 293.58,52.28 293.63,52.51 293.67,51.91 293.72,51.91 293.77,51.91 293.82,52.64 293.87,52.64 293.92,52.34 293.96,52.92 294.01,52.92 294.06,52.92 294.11,52.92 294.16,52.94 294.21,52.94 294.26,52.94 294.30,53.00 294.35,53.00 294.40,53.00 294.45,53.06 294.50,53.06 294.55,53.06 294.59,52.97 294.64,52.97 294.69,52.97 294.74,52.75 294.79,52.75 294.84,52.75 294.89,52.83 294.93,52.83 294.98,53.15 295.03,53.15 295.08,53.03 295.13,53.03 295.18,53.03 295.22,53.34 295.27,53.34 295.32,53.34 295.37,53.34 295.42,53.33 295.47,53.80 295.52,53.80 295.56,53.80 295.61,54.21 295.66,54.88 295.71,54.88 295.76,54.88 295.81,55.34 295.85,55.76 295.90,55.76 295.95,55.76 296.00,55.96" />
</svg>