<svg width="300" height="60" xmlns="http://www.w3.org/2000/svg">
  <polyline fill="rgba(255,200,0,0.3)" stroke="#ffbb00" stroke-width="2" points="4.00,51.64 4.42,50.78 4.85,49.82 5.27,48.88 5.70,47.83 6.12,46.68 6.54,45.78 6.97,44.93 7.39,44.11 7.81,43.14 8.24,42.20 8.66,41.12 9.09,40.00 9.51,38.87 9.93,37.78 10.36,36.87 10.78,35.89 11.20,34.70 11.63,33.77 12.05,32.48 12.48,31.17 12.90,29.98 13.32,28.46 13.75,26.49 14.17,24.22 14.60,21.70 15.02,19.39 15.44,16.94 15.87,14.46 16.29,12.43 16.71,10.93 17.14,10.25 17.56,9.32 17.99,8.23 18.41,7.44 18.83,6.23 19.26,5.23 19.68,4.67 20.10,4.58 20.53,4.51 20.95,4.80 21.38,5.19 21.80,5.65 22.22,6.56 22.65,7.46 23.07,8.77 23.49,9.95 23.92,11.57 24.34,12.76 24.77,13.84 25.19,15.57 25.61,17.29 26.04,19.16 26.46,20.86 26.89,21.51 27.31,21.94 27.73,22.05 28.16,21.73 28.58,20.86 29.00,19.75 29.43,18.71 29.85,18.86 30.28,19.68 30.70,20.86 31.12,21.54 31.55,22.40 31.97,23.01 32.39,23.66 32.82,24.40 33.24,25.01 33.67,25.48 34.09,26.32 34.51,27.20 34.94,28.04 35.36,28.90 35.79,29.54 36.21,30.35 36.63,30.77 37.06,31.37 37.48,32.28 37.90,33.16 38.33,33.36 38.75,34.24 39.18,34.81 39.60,35.42 40.02,36.17 40.45,37.45 40.87,38.63 41.29,39.16 41.72,40.09 42.14,40.96 42.57,41.47 42.99,42.19 43.41,43.11 43.84,43.44 44.26,42.60 44.69,43.41 45.11,44.65 45.53,45.50 45.96,46.19 46.38,46.67 46.80,46.98 47.23,47.12 47.65,47.19 48.08,47.27 48.50,47.38 48.92,47.47 49.35,47.63 49.77,47.75 50.19,47.85 50.62,48.08 51.04,48.52 51.47,48.98 51.89,49.28 52.31,49.42 52.74,49.59 53.16,49.85 53.58,50.02 54.01,50.11 54.43,50.11 54.86,50.07 55.28,50.03 55.70,50.07 56.13,50.12 56.55,50.21 56.98,50.30 57.40,50.56 57.82,50.82 58.25,51.14 58.67,51.49 59.09,51.91 59.52,52.19 59.94,52.73 60.37,53.55 60.79,54.14 61.21,54.98 61.64,55.51 62.06,55.93 62.48,51.65 62.91,50.86 63.33,49.76 63.76,48.88 64.18,47.76 64.60,46.66 65.03,45.78 65.45,44.87 65.88,44.06 66.30,43.12 66.72,42.21 67.15,41.17 67.57,40.05 67.99,38.88 68.42,37.79 68.84,36.79 69.27,35.85 69.69,34.69 70.11,33.75 70.54,32.59 70.96,31.18 71.38,30.06 71.81,28.42 72.23,26.58 72.66,24.17 73.08,21.88 73.50,19.21 73.93,17.08 74.35,14.49 74.78,12.32 75.20,10.95 75.62,10.08 76.05,9.27 76.47,8.31 76.89,7.15 77.32,6.15 77.74,5.26 78.17,4.68 78.59,4.56 79.01,4.47 79.44,4.80 79.86,5.19 80.28,5.68 80.71,6.50 81.13,7.51 81.56,8.71 81.98,9.93 82.40,11.60 82.83,12.74 83.25,13.80 83.67,15.54 84.10,17.32 84.52,19.10 84.95,20.73 85.37,21.49 85.79,22.03 86.22,22.04 86.64,21.68 87.07,20.88 87.49,19.81 87.91,18.71 88.34,18.85 88.76,19.65 89.18,20.83 89.61,21.39 90.03,22.36 90.46,22.98 90.88,23.69 91.30,24.42 91.73,25.02 92.15,25.47 92.57,26.25 93.00,27.13 93.42,28.05 93.85,28.89 94.27,29.57 94.69,30.29 95.12,30.81 95.54,31.44 95.97,32.34 96.39,33.16 96.81,33.37 97.24,34.24 97.66,34.78 98.08,35.40 98.51,36.17 98.93,37.26 99.36,38.59 99.78,39.13 100.20,40.17 100.63,40.98 101.05,41.51 101.47,42.18 101.90,43.06 102.32,43.44 102.75,42.63 103.17,43.42 103.59,44.71 104.02,45.51 104.44,46.16 104.87,46.71 105.29,46.98 105.71,47.12 106.14,47.18 106.56,47.27 106.98,47.38 107.41,47.47 107.83,47.62 108.26,47.74 108.68,47.86 109.10,48.12 109.53,48.52 109.95,48.99 110.37,49.29 110.80,49.44 111.22,49.60 111.65,49.86 112.07,50.02 112.49,50.12 112.92,50.10 113.34,50.07 113.76,50.04 114.19,50.07 114.61,50.12 115.04,50.21 115.46,50.34 115.88,50.56 116.31,50.81 116.73,51.14 117.16,51.49 117.58,51.91 118.00,52.18 118.43,52.78 118.85,53.51 119.27,54.13 119.70,55.00 120.12,55.50 120.55,55.94 120.97,51.60 121.39,50.89 121.82,49.74 122.24,49.16 122.66,47.63 123.09,46.73 123.51,45.73 123.94,45.00 124.36,44.05 124.78,43.34 125.21,42.25 125.63,41.08 126.06,40.16 126.48,38.94 126.90,37.71 127.33,36.99 127.75,35.83 128.17,34.99 128.60,34.00 129.02,32.64 129.45,31.25 129.87,30.27 130.29,28.42 130.72,26.24 131.14,24.23 131.56,21.49 131.99,19.82 132.41,16.92 132.84,14.56 133.26,12.49 133.68,11.34 134.11,10.27 134.53,9.57 134.96,8.23 135.38,7.65 135.80,6.24 136.23,5.31 136.65,4.84 137.07,4.71 137.50,4.49 137.92,4.80 138.35,5.24 138.77,5.61 139.19,6.63 139.62,7.50 140.04,9.09 140.46,9.95 140.89,11.51 141.31,12.70 141.74,13.73 142.16,15.29 142.58,17.64 143.01,18.98 143.43,20.95 143.85,21.50 144.28,22.09 144.70,21.97 145.13,21.92 145.55,21.01 145.97,19.96 146.40,18.69 146.82,18.85 147.25,19.51 147.67,20.73 148.09,21.33 148.52,22.33 148.94,22.96 149.36,23.64 149.79,24.33 150.21,25.00 150.64,25.20 151.06,26.27 151.48,27.14 151.91,28.06 152.33,28.81 152.75,29.69 153.18,30.33 153.60,30.73 154.03,31.54 154.45,31.96 154.87,33.19 155.30,33.35 155.72,34.42 156.15,34.91 156.57,35.38 156.99,36.11 157.42,37.16 157.84,38.59 158.26,39.31 158.69,40.13 159.11,40.71 159.54,41.31 159.96,42.17 160.38,43.14 160.81,43.44 161.23,42.78 161.65,43.61 162.08,44.77 162.50,45.54 162.93,46.10 163.35,46.74 163.77,47.00 164.20,47.13 164.62,47.20 165.04,47.24 165.47,47.37 165.89,47.51 166.32,47.54 166.74,47.75 167.16,47.84 167.59,48.11 168.01,48.49 168.44,48.99 168.86,49.28 169.28,49.44 169.71,49.60 170.13,49.78 170.55,49.97 170.98,50.06 171.40,50.09 171.83,50.02 172.25,50.00 172.67,50.02 173.10,50.09 173.52,50.20 173.94,50.33 174.37,50.53 174.79,50.76 175.22,51.13 175.64,51.34 176.06,51.81 176.49,52.23 176.91,52.62 177.34,53.39 177.76,54.02 178.18,54.92 178.61,55.43 179.03,55.90 179.45,51.97 179.88,50.63 180.30,49.82 180.73,48.44 181.15,46.99 181.57,46.99 182.00,45.80 182.42,44.85 182.84,43.85 183.27,42.79 183.69,41.67 184.12,40.50 184.54,40.29 184.96,39.17 185.39,37.89 185.81,36.76 186.24,35.63 186.66,34.48 187.08,33.29 187.51,31.86 187.93,30.42 188.35,30.42 188.78,28.46 189.20,25.83 189.63,22.74 190.05,21.07 190.47,19.37 190.90,15.83 191.32,14.11 191.74,12.54 192.17,11.26 192.59,9.57 193.02,8.84 193.44,8.04 193.86,7.13 194.29,6.23 194.71,5.43 195.13,4.67 195.56,4.60 195.98,4.67 196.41,4.92 196.83,5.04 197.25,5.54 197.68,6.97 198.10,7.86 198.53,9.12 198.95,10.24 199.37,11.58 199.80,12.90 200.22,14.24 200.64,15.52 201.07,17.93 201.49,19.27 201.92,20.38 202.34,21.05 202.76,22.57 203.19,22.39 203.61,21.80 204.03,20.82 204.46,19.61 204.88,18.98 205.31,18.81 205.73,19.51 206.15,20.84 206.58,21.80 207.00,22.55 207.43,23.34 207.85,23.40 208.27,23.80 208.70,25.08 209.12,25.58 209.54,26.66 209.97,27.39 210.39,28.11 210.82,28.81 211.24,29.50 211.66,30.24 212.09,30.99 212.51,32.09 212.93,32.38 213.36,33.05 213.78,33.55 214.21,34.10 214.63,34.93 215.05,36.00 215.48,36.68 215.90,37.54 216.33,39.18 216.75,39.86 217.17,39.86 217.60,40.55 218.02,41.68 218.44,42.21 218.87,42.87 219.29,43.37 219.72,43.06 220.14,44.17 220.56,44.51 220.99,45.81 221.41,45.81 221.83,46.70 222.26,47.19 222.68,47.03 223.11,47.12 223.53,47.12 223.95,47.37 224.38,47.63 224.80,47.60 225.22,47.62 225.65,47.70 226.07,47.99 226.50,48.50 226.92,49.02 227.34,49.35 227.77,49.46 228.19,49.57 228.62,49.70 229.04,49.99 229.46,49.95 229.89,50.09 230.31,49.92 230.73,50.18 231.16,49.96 231.58,50.14 232.01,50.45 232.43,50.13 232.85,50.67 233.28,50.67 233.70,51.21 234.12,51.63 234.55,51.67 234.97,52.38 235.40,52.50 235.82,53.30 236.24,53.80 236.67,55.09 237.09,55.43 237.52,55.88 237.94,49.80 238.36,49.80 238.79,49.80 239.21,45.79 239.63,45.79 240.06,45.79 240.48,45.79 240.91,42.80 241.33,42.24 241.75,42.24 242.18,39.08 242.60,39.08 243.02,39.08 243.45,39.08 243.87,35.03 244.30,35.03 244.72,35.03 245.14,31.38 245.57,31.38 245.99,31.38 246.42,26.41 246.84,26.41 247.26,24.17 247.69,24.17 248.11,19.15 248.53,14.17 248.96,14.17 249.38,14.17 249.81,9.48 250.23,9.48 250.65,9.48 251.08,6.82 251.50,6.82 251.92,4.91 252.35,4.91 252.77,4.91 253.20,4.00 253.62,4.00 254.04,4.63 254.47,4.63 254.89,4.63 255.31,6.28 255.74,6.28 256.16,8.90 256.59,8.90 257.01,9.74 257.43,13.94 257.86,13.94 258.28,13.94 258.71,18.61 259.13,18.61 259.55,18.61 259.98,22.53 260.40,22.53 260.82,23.05 261.25,23.05 261.67,23.05 262.10,20.31 262.52,20.31 262.94,20.31 263.37,19.00 263.79,19.00 264.21,21.10 264.64,21.10 265.06,23.78 265.49,23.78 265.91,23.78 266.33,23.78 266.76,23.78 267.18,27.49 267.61,27.49 268.03,27.49 268.45,27.49 268.88,29.54 269.30,29.54 269.72,29.54 270.15,31.44 270.57,31.44 271.00,33.18 271.42,33.18 271.84,33.18 272.27,35.03 272.69,35.03 273.11,35.03 273.54,38.91 273.96,38.91 274.39,38.91 274.81,41.15 275.23,41.15 275.66,41.15 276.08,41.15 276.51,42.54 276.93,42.54 277.35,42.54 277.78,44.95 278.20,44.95 278.62,44.95 279.05,45.68 279.47,45.68 279.90,45.68 280.32,47.43 280.74,47.10 281.17,47.10 281.59,47.10 282.01,47.10 282.44,48.03 282.86,48.03 283.29,48.03 283.71,48.59 284.13,48.59 284.56,48.59 284.98,49.52 285.40,49.52 285.83,49.52 286.25,49.81 286.68,49.81 287.10,49.81 287.52,50.02 287.95,50.02 288.37,50.02 288.80,49.01 289.22,50.77 289.64,50.77 290.07,50.77 290.49,50.02 290.91,50.02 291.34,51.95 291.76,51.95 292.19,51.60 292.61,51.60 293.03,51.60 293.46,54.36 293.88,54.36 294.30,54.36 294.73,54.36 295.15,55.38 295.58,55.38 296.00,56.00" />
</svg>