<svg width="300" height="60" xmlns="http://www.w3.org/2000/svg">
  <polyline fill="rgba(255,200,0,0.3)" stroke="#ffbb00" stroke-width="2" points="4.00,17.86 4.29,18.57 4.58,19.43 4.87,20.30 5.15,21.73 5.44,22.68 5.73,23.29 6.02,24.56 6.31,25.11 6.60,25.49 6.89,24.57 7.17,24.73 7.46,25.46 7.75,26.61 8.04,26.89 8.33,26.47 8.62,25.44 8.91,24.18 9.19,23.87 9.48,23.88 9.77,22.91 10.06,22.01 10.35,23.59 10.64,24.75 10.92,26.16 11.21,27.03 11.50,27.54 11.79,27.07 12.08,28.84 12.37,30.47 12.66,31.03 12.94,29.39 13.23,28.52 13.52,27.94 13.81,29.63 14.10,30.69 14.39,30.69 14.68,29.30 14.96,29.13 15.25,29.69 15.54,30.29 15.83,29.71 16.12,29.43 16.41,29.43 16.70,29.07 16.98,30.10 17.27,32.12 17.56,34.16 17.85,35.18 18.14,34.88 18.43,34.13 18.72,34.40 19.00,34.89 19.29,35.88 19.58,37.05 19.87,37.67 20.16,38.51 20.45,40.17 20.74,42.16 21.02,46.25 21.31,47.82 21.60,48.81 21.89,47.82 22.18,47.23 22.47,46.71 22.75,47.09 23.04,49.18 23.33,49.78 23.62,50.03 23.91,50.29 24.20,50.95 24.49,50.71 24.77,50.71 25.06,50.56 25.35,49.94 25.64,48.75 25.93,48.14 26.22,47.90 26.51,47.34 26.79,47.43 27.08,46.57 27.37,45.10 27.66,44.74 27.95,44.68 28.24,44.77 28.53,46.04 28.81,45.62 29.10,44.31 29.39,42.31 29.68,40.84 29.97,40.60 30.26,39.88 30.55,40.48 30.83,39.38 31.12,39.71 31.41,38.91 31.70,38.73 31.99,39.51 32.28,40.16 32.57,40.83 32.85,40.66 33.14,39.50 33.43,38.41 33.72,37.07 34.01,35.65 34.30,33.90 34.58,33.51 34.87,34.08 35.16,33.66 35.45,33.47 35.74,33.65 36.03,32.78 36.32,32.22 36.60,31.17 36.89,31.03 37.18,30.63 37.47,30.38 37.76,29.89 38.05,29.63 38.34,29.39 38.62,29.10 38.91,28.13 39.20,28.81 39.49,30.17 39.78,31.37 40.07,31.44 40.36,29.83 40.64,28.51 40.93,28.29 41.22,28.75 41.51,28.51 41.80,29.11 42.09,29.92 42.38,30.86 42.66,31.67 42.95,31.83 43.24,31.86 43.53,31.61 43.82,28.93 44.11,30.25 44.40,30.50 44.68,29.72 44.97,30.49 45.26,32.34 45.55,33.40 45.84,14.14 46.13,14.09 46.42,14.31 46.70,14.60 46.99,14.07 47.28,14.65 47.57,14.57 47.86,14.49 48.15,14.99 48.43,13.19 48.72,10.87 49.01,12.77 49.30,12.32 49.59,12.98 49.88,13.34 50.17,12.69 50.45,12.46 50.74,12.93 51.03,13.60 51.32,13.30 51.61,12.49 51.90,12.51 52.19,12.86 52.47,13.21 52.76,13.01 53.05,12.33 53.34,12.55 53.63,12.56 53.92,12.28 54.21,12.28 54.49,11.85 54.78,11.36 55.07,12.06 55.36,12.50 55.65,12.39 55.94,12.25 56.23,11.48 56.51,9.78 56.80,8.47 57.09,7.74 57.38,8.43 57.67,9.92 57.96,10.40 58.25,11.01 58.53,11.23 58.82,10.66 59.11,10.90 59.40,12.43 59.69,13.07 59.98,12.28 60.26,13.44 60.55,11.79 60.84,10.27 61.13,9.87 61.42,9.76 61.71,9.48 62.00,9.40 62.28,9.53 62.57,9.79 62.86,10.00 63.15,10.36 63.44,10.39 63.73,9.34 64.02,8.48 64.30,7.54 64.59,6.84 64.88,6.63 65.17,6.18 65.46,5.52 65.75,5.22 66.04,6.73 66.32,7.25 66.61,7.99 66.90,8.89 67.19,9.95 67.48,10.33 67.77,7.71 68.06,7.57 68.34,9.74 68.63,10.92 68.92,11.68 69.21,12.13 69.50,12.41 69.79,13.35 70.08,16.08 70.36,17.31 70.65,17.80 70.94,18.51 71.23,19.40 71.52,20.25 71.81,21.63 72.09,22.68 72.38,23.47 72.67,24.59 72.96,24.73 73.25,25.38 73.54,24.73 73.83,24.74 74.11,25.17 74.40,26.53 74.69,27.32 74.98,26.59 75.27,25.35 75.56,24.33 75.85,23.88 76.13,24.02 76.42,22.92 76.71,21.88 77.00,23.57 77.29,24.64 77.58,26.20 77.87,27.00 78.15,27.52 78.44,26.80 78.73,28.88 79.02,30.55 79.31,30.87 79.60,29.31 79.89,28.22 80.17,27.90 80.46,29.79 80.75,30.53 81.04,30.44 81.33,29.37 81.62,28.92 81.91,29.78 82.19,30.21 82.48,29.89 82.77,29.42 83.06,29.22 83.35,29.13 83.64,30.11 83.92,32.21 84.21,34.05 84.50,35.22 84.79,34.93 85.08,34.04 85.37,34.52 85.66,35.24 85.94,35.58 86.23,37.02 86.52,37.50 86.81,38.54 87.10,40.29 87.39,42.16 87.68,46.34 87.96,47.79 88.25,48.99 88.54,47.75 88.83,47.24 89.12,46.33 89.41,47.06 89.70,49.05 89.98,49.81 90.27,50.03 90.56,50.31 90.85,51.02 91.14,50.79 91.43,50.59 91.72,50.86 92.00,50.02 92.29,48.55 92.58,48.11 92.87,48.08 93.16,47.20 93.45,47.31 93.74,46.69 94.02,45.10 94.31,44.42 94.60,44.83 94.89,44.83 95.18,46.15 95.47,45.63 95.75,43.65 96.04,42.66 96.33,40.83 96.62,40.74 96.91,40.05 97.20,40.03 97.49,39.22 97.77,39.95 98.06,39.17 98.35,38.80 98.64,39.36 98.93,40.15 99.22,40.82 99.51,40.61 99.79,39.46 100.08,38.31 100.37,36.96 100.66,35.11 100.95,33.81 101.24,33.36 101.53,34.35 101.81,33.85 102.10,33.93 102.39,33.12 102.68,32.70 102.97,32.05 103.26,31.30 103.55,31.14 103.83,30.64 104.12,30.38 104.41,29.81 104.70,29.68 104.99,29.50 105.28,29.04 105.57,28.27 105.85,28.76 106.14,30.05 106.43,31.40 106.72,31.39 107.01,30.05 107.30,28.63 107.58,28.08 107.87,28.89 108.16,28.43 108.45,29.09 108.74,29.92 109.03,31.03 109.32,31.69 109.60,31.78 109.89,31.89 110.18,31.35 110.47,28.89 110.76,30.37 111.05,30.32 111.34,29.86 111.62,30.87 111.91,32.47 112.20,33.25 112.49,14.38 112.78,14.09 113.07,14.27 113.36,14.39 113.64,13.96 113.93,14.62 114.22,14.56 114.51,14.48 114.80,14.88 115.09,12.98 115.38,10.97 115.66,12.88 115.95,12.23 116.24,12.69 116.53,13.26 116.82,12.74 117.11,12.49 117.40,13.00 117.68,13.67 117.97,13.34 118.26,12.56 118.55,12.43 118.84,12.74 119.13,13.27 119.42,12.98 119.70,12.37 119.99,12.58 120.28,12.63 120.57,12.28 120.86,12.19 121.15,12.19 121.43,11.49 121.72,11.94 122.01,12.49 122.30,12.44 122.59,12.20 122.88,11.45 123.17,10.44 123.45,8.43 123.74,7.36 124.03,8.49 124.32,9.89 124.61,10.42 124.90,10.90 125.19,11.62 125.47,10.24 125.76,11.04 126.05,12.10 126.34,12.31 126.63,12.09 126.92,13.88 127.21,12.62 127.49,10.43 127.78,9.82 128.07,9.78 128.36,9.56 128.65,9.38 128.94,9.36 129.23,9.79 129.51,10.05 129.80,10.50 130.09,10.77 130.38,9.82 130.67,7.94 130.96,7.55 131.25,6.96 131.53,6.63 131.82,6.50 132.11,5.68 132.40,5.51 132.69,6.60 132.98,7.20 133.26,7.89 133.55,8.92 133.84,9.88 134.13,10.13 134.42,7.74 134.71,7.99 135.00,9.88 135.28,10.71 135.57,11.69 135.86,11.96 136.15,12.45 136.44,13.15 136.73,16.11 137.02,17.23 137.30,17.86 137.59,18.57 137.88,42.05 138.17,46.26 138.46,48.13 138.75,48.98 139.04,47.71 139.32,47.30 139.61,47.42 139.90,48.00 140.19,49.28 140.48,49.81 140.77,50.03 141.06,50.31 141.34,50.30 141.63,50.51 141.92,49.96 142.21,50.34 142.50,48.79 142.79,48.42 143.08,47.52 143.36,47.75 143.65,47.36 143.94,47.06 144.23,46.25 144.52,44.99 144.81,44.55 145.09,45.47 145.38,45.47 145.67,46.09 145.96,45.65 146.25,45.44 146.54,42.37 146.83,41.49 147.11,40.98 147.40,40.57 147.69,39.61 147.98,39.74 148.27,39.08 148.56,37.52 148.85,38.83 149.13,39.04 149.42,40.20 149.71,40.89 150.00,40.73 150.29,39.71 150.58,38.44 150.87,37.57 151.15,35.33 151.44,33.60 151.73,33.97 152.02,33.70 152.31,34.31 152.60,34.07 152.89,34.21 153.17,32.90 153.46,31.65 153.75,31.29 154.04,31.36 154.33,30.66 154.62,30.18 154.91,29.76 155.19,29.35 155.48,29.07 155.77,28.35 156.06,27.95 156.35,28.80 156.64,30.20 156.92,31.24 157.21,31.40 157.50,29.92 157.79,28.17 158.08,28.84 158.37,28.98 158.66,28.86 158.94,29.20 159.23,30.12 159.52,31.04 159.81,31.66 160.10,31.78 160.39,32.02 160.68,31.68 160.96,29.24 161.25,29.75 161.54,30.67 161.83,29.84 162.12,30.88 162.41,31.93 162.70,33.25 162.98,14.55 163.27,14.38 163.56,13.67 163.85,13.30 164.14,15.47 164.43,14.57 164.72,17.18 165.00,14.01 165.29,15.21 165.58,13.60 165.87,11.66 166.16,11.87 166.45,13.34 166.74,14.22 167.02,13.07 167.31,14.34 167.60,13.30 167.89,16.67 168.18,12.65 168.47,12.07 168.75,15.24 169.04,13.19 169.33,11.46 169.62,12.96 169.91,11.89 170.20,14.43 170.49,14.25 170.77,11.64 171.06,12.46 171.35,11.67 171.64,11.18 171.93,10.51 172.22,10.42 172.51,11.14 172.79,11.94 173.08,11.44 173.37,10.16 173.66,12.24 173.95,10.37 174.24,9.49 174.53,6.26 174.81,8.71 175.10,10.62 175.39,9.85 175.68,12.67 175.97,9.05 176.26,13.04 176.55,14.19 176.83,14.12 177.12,9.53 177.41,13.41 177.70,10.32 177.99,13.27 178.28,10.50 178.57,7.60 178.85,9.95 179.14,7.55 179.43,11.96 179.72,10.97 180.01,9.26 180.30,11.94 180.58,13.23 180.87,9.26 181.16,8.34 181.45,10.46 181.74,8.73 182.03,5.45 182.32,6.84 182.60,8.52 182.89,4.00 183.18,5.37 183.47,6.68 183.76,7.79 184.05,8.39 184.34,7.12 184.62,11.00 184.91,9.29 185.20,7.98 185.49,12.32 185.78,11.55 186.07,10.59 186.36,13.90 186.64,13.28 186.93,13.30 187.22,14.70 187.51,16.93 187.80,19.50 188.09,18.19 188.38,20.66 188.66,18.86 188.95,20.57 189.24,21.67 189.53,24.67 189.82,24.07 190.11,25.59 190.40,24.74 190.68,25.13 190.97,25.52 191.26,26.65 191.55,28.22 191.84,26.37 192.13,26.40 192.42,26.36 192.70,26.62 192.99,24.73 193.28,26.02 193.57,23.27 193.86,22.44 194.15,23.87 194.43,25.57 194.72,25.99 195.01,28.43 195.30,25.78 195.59,26.08 195.88,29.68 196.17,29.96 196.45,30.23 196.74,29.88 197.03,28.18 197.32,29.65 197.61,29.40 197.90,29.05 198.19,31.50 198.47,30.48 198.76,30.17 199.05,30.60 199.34,28.30 199.63,28.67 199.92,28.94 200.21,29.36 200.49,29.91 200.78,30.84 201.07,31.35 201.36,33.38 201.65,34.93 201.94,35.62 202.23,36.11 202.51,33.34 202.80,34.07 203.09,35.89 203.38,36.95 203.67,37.62 203.96,38.15 204.25,39.15 204.53,40.90 204.82,46.66 205.11,48.76 205.40,48.76 205.69,48.09 205.98,46.78 206.26,48.23 206.55,48.60 206.84,49.96 207.13,50.92 207.42,50.65 207.71,49.79 208.00,50.39 208.28,49.31 208.57,51.36 208.86,50.62 209.15,49.36 209.44,47.93 209.73,47.08 210.02,48.88 210.30,48.55 210.59,47.08 210.88,47.81 211.17,45.41 211.46,44.70 211.75,46.18 212.04,45.05 212.32,45.74 212.61,45.74 212.90,44.56 213.19,42.92 213.48,42.23 213.77,39.92 214.06,41.95 214.34,41.51 214.63,41.42 214.92,37.94 215.21,39.22 215.50,36.94 215.79,39.52 216.08,38.41 216.36,40.24 216.65,40.77 216.94,40.05 217.23,37.84 217.52,38.18 217.81,35.78 218.09,32.74 218.38,33.92 218.67,33.74 218.96,34.98 219.25,33.78 219.54,32.70 219.83,31.66 220.11,30.85 220.40,30.26 220.69,30.28 220.98,30.91 221.27,31.99 221.56,28.99 221.85,30.14 222.13,28.47 222.42,30.73 222.71,27.73 223.00,27.78 223.29,30.15 223.58,30.22 223.87,30.98 224.15,29.02 224.44,29.51 224.73,29.67 225.02,29.74 225.31,27.86 225.60,29.22 225.89,30.63 226.17,30.65 226.46,30.72 226.75,32.04 227.04,31.87 227.33,30.26 227.62,30.10 227.91,29.10 228.19,29.51 228.48,30.94 228.77,32.62 229.06,32.99 229.35,36.26 229.64,14.20 229.92,14.20 230.21,14.20 230.50,17.63 230.79,17.63 231.08,17.63 231.37,27.17 231.66,27.17 231.94,19.50 232.23,19.50 232.52,19.50 232.81,10.92 233.10,16.34 233.39,16.34 233.68,16.34 233.96,23.57 234.25,23.57 234.54,24.58 234.83,11.36 235.12,11.15 235.41,27.42 235.70,27.42 235.98,19.57 236.27,19.57 236.56,19.57 236.85,29.13 237.14,17.70 237.43,17.70 237.72,17.70 238.00,12.05 238.29,12.05 238.58,12.05 238.87,10.94 239.16,10.94 239.45,11.38 239.74,11.38 240.02,11.38 240.31,20.08 240.60,20.08 240.89,20.08 241.18,7.50 241.47,7.50 241.75,7.50 242.04,7.50 242.33,11.75 242.62,11.75 242.91,11.75 243.20,11.75 243.49,13.92 243.77,13.92 244.06,13.92 244.35,13.92 244.64,20.13 244.93,20.13 245.22,13.36 245.51,13.36 245.79,13.36 246.08,23.54 246.37,23.54 246.66,23.54 246.95,15.93 247.24,15.93 247.53,15.93 247.81,14.20 248.10,14.20 248.39,14.20 248.68,15.88 248.97,15.88 249.26,15.88 249.55,4.18 249.83,4.18 250.12,4.18 250.41,7.71 250.70,7.71 250.99,6.88 251.28,23.70 251.57,23.70 251.85,18.16 252.14,18.16 252.43,18.16 252.72,14.96 253.01,14.96 253.30,14.96 253.58,13.41 253.87,13.41 254.16,17.29 254.45,17.29 254.74,17.29 255.03,24.66 255.32,24.66 255.60,24.66 255.89,27.23 256.18,27.23 256.47,27.23 256.76,27.23 257.05,26.05 257.34,26.05 257.62,26.05 257.91,29.08 258.20,29.08 258.49,29.08 258.78,30.51 259.07,30.51 259.36,30.51 259.64,33.23 259.93,33.23 260.22,24.55 260.51,24.55 260.80,27.44 261.09,31.66 261.38,24.21 261.66,24.21 261.95,29.12 262.24,29.12 262.53,29.12 262.82,30.14 263.11,30.14 263.40,35.21 263.68,35.21 263.97,35.21 264.26,33.33 264.55,33.33 264.84,33.33 265.13,30.97 265.42,30.97 265.70,30.97 265.99,31.48 266.28,31.48 266.57,32.70 266.86,32.70 267.15,32.70 267.43,34.53 267.72,34.53 268.01,40.53 268.30,40.53 268.59,40.53 268.88,45.23 269.17,33.05 269.45,33.05 269.74,35.56 270.03,35.56 270.32,38.49 270.61,38.49 270.90,38.49 271.19,42.20 271.47,42.20 271.76,49.40 272.05,49.40 272.34,49.40 272.63,49.40 272.92,52.45 273.21,52.45 273.49,52.63 273.78,52.63 274.07,52.63 274.36,49.03 274.65,49.03 274.94,46.49 275.23,56.00 275.51,56.00 275.80,52.19 276.09,52.19 276.38,52.19 276.67,50.74 276.96,50.74 277.25,50.74 277.53,55.54 277.82,50.02 278.11,50.02 278.40,50.02 278.69,44.42 278.98,52.26 279.26,52.26 279.55,52.26 279.84,42.94 280.13,50.72 280.42,50.72 280.71,45.94 281.00,45.94 281.28,45.94 281.57,46.77 281.86,46.77 282.15,34.37 282.44,39.35 282.73,39.35 283.02,39.35 283.30,41.34 283.59,41.34 283.88,44.94 284.17,44.94 284.46,35.83 284.75,35.83 285.04,40.12 285.32,40.12 285.61,35.16 285.90,35.16 286.19,35.16 286.48,31.74 286.77,31.74 287.06,31.74 287.34,30.24 287.63,30.24 287.92,32.10 288.21,32.10 288.50,32.10 288.79,36.25 289.08,36.25 289.36,25.52 289.65,25.52 289.94,32.28 290.23,32.28 290.52,31.84 290.81,31.84 291.09,31.84 291.38,31.84 291.67,33.57 291.96,33.57 292.25,33.57 292.54,36.11 292.83,36.11 293.11,36.11 293.40,32.86 293.69,32.86 293.98,32.86 294.27,34.06 294.56,34.06 294.85,34.06 295.13,34.06 295.42,40.77 295.71,40.77 296.00,40.62" />
</svg>