<svg width="300" height="60" xmlns="http://www.w3.org/2000/svg">
  <polyline fill="rgba(255,200,0,0.3)" stroke="#ffbb00" stroke-width="2" points="4.00,19.68 5.44,20.14 6.88,20.51 8.32,19.39 9.75,17.54 11.19,17.19 12.63,18.12 14.07,17.62 15.51,15.65 16.95,16.52 18.38,19.31 19.82,20.80 21.26,23.00 22.70,23.43 24.14,23.90 25.58,25.25 27.01,25.12 28.45,24.15 29.89,23.60 31.33,23.69 32.77,24.38 34.21,25.47 35.65,26.50 37.08,26.79 38.52,26.89 39.96,27.06 41.40,26.88 42.84,27.07 44.28,27.75 45.71,27.56 47.15,27.47 48.59,27.77 50.03,28.79 51.47,29.25 52.91,29.37 54.34,30.03 55.78,30.52 57.22,31.00 58.66,31.86 60.10,32.66 61.54,33.54 62.98,35.97 64.41,38.27 65.85,40.75 67.29,43.27 68.73,46.36 70.17,47.55 71.61,47.93 73.04,49.65 74.48,51.39 75.92,55.46 77.36,19.85 78.80,19.68 80.24,20.09 81.67,19.63 83.11,18.13 84.55,17.71 85.99,18.30 87.43,19.19 88.87,16.67 90.31,16.55 91.74,16.68 93.18,19.80 94.62,22.11 96.06,23.51 97.50,24.11 98.94,25.18 100.37,24.81 101.81,25.79 103.25,24.97 104.69,25.54 106.13,25.04 107.57,26.60 109.00,27.84 110.44,29.78 111.88,29.86 113.32,28.56 114.76,27.15 116.20,27.32 117.64,27.82 119.07,27.65 120.51,28.02 121.95,29.50 123.39,29.25 124.83,29.70 126.27,30.24 127.70,32.47 129.14,32.46 130.58,31.13 132.02,31.66 133.46,34.18 134.90,36.32 136.33,38.18 137.77,42.12 139.21,44.10 140.65,46.11 142.09,47.80 143.53,52.33 144.97,50.85 146.40,51.34 147.84,51.32 149.28,53.80 150.72,19.89 152.16,20.76 153.60,24.31 155.03,23.19 156.47,18.82 157.91,17.70 159.35,14.81 160.79,17.50 162.23,15.93 163.67,20.22 165.10,20.01 166.54,22.94 167.98,23.85 169.42,22.44 170.86,23.81 172.30,23.43 173.73,20.13 175.17,21.16 176.61,16.25 178.05,22.44 179.49,24.64 180.93,20.72 182.36,23.40 183.80,26.55 185.24,25.02 186.68,25.14 188.12,26.13 189.56,25.71 191.00,26.89 192.43,22.84 193.87,25.07 195.31,29.29 196.75,24.62 198.19,26.15 199.63,29.04 201.06,29.04 202.50,29.66 203.94,33.55 205.38,32.97 206.82,29.23 208.26,34.64 209.69,29.72 211.13,32.16 212.57,34.55 214.01,38.23 215.45,39.05 216.89,40.93 218.33,45.43 219.76,52.12 221.20,56.00 222.64,55.71 224.08,23.32 225.52,12.75 226.96,18.16 228.39,18.16 229.83,18.16 231.27,5.94 232.71,4.00 234.15,16.67 235.59,16.67 237.02,16.67 238.46,22.08 239.90,22.08 241.34,22.08 242.78,16.96 244.22,16.96 245.66,16.96 247.09,13.66 248.53,13.66 249.97,13.66 251.41,27.20 252.85,18.57 254.29,18.57 255.72,18.57 257.16,28.36 258.60,28.36 260.04,28.36 261.48,26.62 262.92,15.35 264.35,15.35 265.79,16.84 267.23,16.84 268.67,25.46 270.11,25.46 271.55,7.88 272.99,7.88 274.42,7.88 275.86,31.04 277.30,18.20 278.74,18.20 280.18,18.20 281.62,18.20 283.05,8.04 284.49,8.04 285.93,8.04 287.37,19.19 288.81,19.19 290.25,30.83 291.68,30.83 293.12,30.83 294.56,51.80 296.00,51.72" />
</svg>