<svg width="300" height="60" xmlns="http://www.w3.org/2000/svg">
  <polyline fill="rgba(255,200,0,0.3)" stroke="#ffbb00" stroke-width="2" points="4.00,6.35 4.15,6.18 4.30,6.28 4.46,6.53 4.61,6.62 4.76,6.74 4.91,6.45 5.07,6.38 5.22,6.20 5.37,5.90 5.52,5.70 5.67,5.27 5.83,4.86 5.98,4.48 6.13,4.68 6.28,4.81 6.43,5.28 6.59,6.23 6.74,6.57 6.89,6.73 7.04,6.93 7.20,7.18 7.35,7.58 7.50,7.99 7.65,8.38 7.80,8.72 7.96,9.03 8.11,9.31 8.26,9.58 8.41,9.74 8.56,9.83 8.72,10.04 8.87,10.05 9.02,10.20 9.17,10.33 9.33,10.36 9.48,10.32 9.63,10.35 9.78,10.32 9.93,10.42 10.09,10.20 10.24,10.01 10.39,10.05 10.54,10.14 10.70,10.47 10.85,10.74 11.00,10.96 11.15,11.12 11.30,11.29 11.46,11.35 11.61,11.47 11.76,11.51 11.91,11.57 12.06,11.65 12.22,11.72 12.37,11.75 12.52,11.79 12.67,11.79 12.83,11.75 12.98,11.70 13.13,11.67 13.28,11.54 13.43,11.39 13.59,11.23 13.74,10.98 13.89,10.89 14.04,10.69 14.19,10.52 14.35,10.38 14.50,10.21 14.65,10.07 14.80,9.85 14.96,9.62 15.11,9.36 15.26,9.03 15.41,8.69 15.56,8.24 15.72,7.80 15.87,7.45 16.02,7.42 16.17,7.73 16.33,7.54 16.48,7.44 16.63,7.67 16.78,7.87 16.93,8.86 17.09,9.41 17.24,9.69 17.39,9.78 17.54,10.48 17.69,10.18 17.85,10.48 18.00,10.99 18.15,11.45 18.30,12.14 18.46,11.73 18.61,12.93 18.76,12.45 18.91,13.35 19.06,15.08 19.22,15.78 19.37,16.06 19.52,16.30 19.67,16.40 19.82,16.42 19.98,16.51 20.13,16.47 20.28,16.43 20.43,16.36 20.59,16.25 20.74,16.12 20.89,15.95 21.04,15.78 21.19,15.62 21.35,15.43 21.50,15.26 21.65,15.09 21.80,14.84 21.96,14.65 22.11,14.47 22.26,14.26 22.41,14.10 22.56,13.95 22.72,13.81 22.87,13.79 23.02,13.69 23.17,13.54 23.32,13.57 23.48,13.34 23.63,13.00 23.78,12.94 23.93,12.75 24.09,12.62 24.24,12.45 24.39,12.25 24.54,12.00 24.69,11.72 24.85,11.18 25.00,10.53 25.15,9.46 25.30,9.06 25.45,8.92 25.61,8.67 25.76,8.93 25.91,8.71 26.06,8.37 26.22,8.08 26.37,7.85 26.52,7.70 26.67,7.57 26.82,7.50 26.98,7.56 27.13,7.80 27.28,8.05 27.43,8.12 27.59,8.44 27.74,8.69 27.89,8.84 28.04,8.94 28.19,8.95 28.35,8.96 28.50,8.94 28.65,8.86 28.80,8.73 28.95,8.45 29.11,8.18 29.26,8.25 29.41,8.47 29.56,8.90 29.72,9.11 29.87,9.25 30.02,9.20 30.17,9.08 30.32,8.96 30.48,8.85 30.63,8.84 30.78,8.82 30.93,9.15 31.08,9.04 31.24,9.22 31.39,9.24 31.54,9.06 31.69,8.96 31.85,9.25 32.00,9.51 32.15,10.27 32.30,11.28 32.45,11.47 32.61,11.87 32.76,12.25 32.91,12.27 33.06,12.66 33.22,12.88 33.37,12.78 33.52,12.61 33.67,13.11 33.82,13.85 33.98,14.25 34.13,15.18 34.28,15.31 34.43,15.68 34.58,15.77 34.74,15.86 34.89,16.00 35.04,16.37 35.19,16.93 35.35,16.88 35.50,17.15 35.65,17.34 35.80,17.39 35.95,17.45 36.11,17.43 36.26,17.22 36.41,17.32 36.56,16.80 36.71,16.14 36.87,15.60 37.02,15.95 37.17,15.62 37.32,15.18 37.48,15.12 37.63,15.43 37.78,15.62 37.93,15.43 38.08,15.50 38.24,15.96 38.39,16.40 38.54,16.95 38.69,17.81 38.85,18.44 39.00,19.42 39.15,20.29 39.30,20.88 39.45,21.17 39.61,21.87 39.76,22.74 39.91,23.88 40.06,24.90 40.21,26.13 40.37,26.93 40.52,27.70 40.67,28.75 40.82,29.26 40.98,30.07 41.13,31.19 41.28,31.64 41.43,32.32 41.58,31.46 41.74,30.01 41.89,30.03 42.04,28.95 42.19,28.09 42.34,27.33 42.50,26.43 42.65,26.43 42.80,26.19 42.95,24.87 43.11,24.21 43.26,23.58 43.41,23.06 43.56,22.48 43.71,21.98 43.87,21.61 44.02,20.84 44.17,20.08 44.32,19.08 44.48,18.69 44.63,19.54 44.78,19.93 44.93,19.77 45.08,19.58 45.24,19.36 45.39,18.97 45.54,18.66 45.69,18.29 45.84,17.94 46.00,17.61 46.15,17.20 46.30,16.75 46.45,16.37 46.61,15.62 46.76,15.22 46.91,15.23 47.06,14.97 47.21,14.91 47.37,14.91 47.52,14.66 47.67,14.30 47.82,14.11 47.97,13.84 48.13,13.48 48.28,13.14 48.43,13.05 48.58,13.03 48.74,13.53 48.89,13.99 49.04,14.14 49.19,14.12 49.34,13.47 49.50,13.18 49.65,12.61 49.80,12.06 49.95,11.79 50.11,11.42 50.26,11.26 50.41,11.01 50.56,10.57 50.71,10.32 50.87,10.21 51.02,10.31 51.17,10.26 51.32,10.04 51.47,9.83 51.63,9.63 51.78,9.60 51.93,9.71 52.08,9.78 52.24,9.90 52.39,9.78 52.54,9.68 52.69,9.48 52.84,9.39 53.00,9.61 53.15,10.00 53.30,10.76 53.45,11.89 53.61,12.34 53.76,11.99 53.91,12.61 54.06,13.40 54.21,14.26 54.37,14.93 54.52,15.74 54.67,16.44 54.82,17.22 54.97,17.70 55.13,18.41 55.28,18.89 55.43,19.46 55.58,20.12 55.74,20.58 55.89,21.02 56.04,21.44 56.19,21.51 56.34,21.59 56.50,21.50 56.65,21.28 56.80,21.21 56.95,21.18 57.10,21.59 57.26,22.14 57.41,23.09 57.56,22.96 57.71,23.03 57.87,22.97 58.02,23.03 58.17,22.83 58.32,22.67 58.47,22.51 58.63,22.44 58.78,22.44 58.93,22.33 59.08,22.22 59.24,22.15 59.39,21.98 59.54,21.66 59.69,21.26 59.84,20.97 60.00,20.35 60.15,20.09 60.30,19.88 60.45,19.30 60.60,19.04 60.76,18.93 60.91,18.94 61.06,19.37 61.21,20.12 61.37,20.94 61.52,21.82 61.67,23.09 61.82,24.08 61.97,24.55 62.13,24.53 62.28,24.46 62.43,24.61 62.58,24.01 62.73,23.85 62.89,24.12 63.04,24.30 63.19,24.68 63.34,24.69 63.50,23.72 63.65,23.33 63.80,23.58 63.95,24.92 64.10,25.75 64.26,26.62 64.41,28.05 64.56,29.39 64.71,30.05 64.87,30.83 65.02,31.75 65.17,32.49 65.32,33.04 65.47,34.09 65.63,34.47 65.78,35.04 65.93,35.00 66.08,34.75 66.23,35.12 66.39,35.44 66.54,35.77 66.69,36.42 66.84,36.50 67.00,36.98 67.15,37.63 67.30,38.38 67.45,38.36 67.60,38.03 67.76,38.28 67.91,38.59 68.06,38.82 68.21,38.79 68.36,38.73 68.52,38.57 68.67,38.34 68.82,38.19 68.97,38.36 69.13,38.96 69.28,38.36 69.43,37.67 69.58,37.79 69.73,38.63 69.89,39.35 70.04,39.36 70.19,39.87 70.34,40.17 70.50,40.79 70.65,40.66 70.80,41.05 70.95,41.62 71.10,40.86 71.26,40.50 71.41,39.69 71.56,39.00 71.71,38.85 71.86,38.88 72.02,38.28 72.17,37.83 72.32,37.62 72.47,37.57 72.63,37.75 72.78,38.01 72.93,37.81 73.08,37.68 73.23,38.11 73.39,38.01 73.54,38.01 73.69,38.22 73.84,38.80 73.99,39.56 74.15,40.62 74.30,41.90 74.45,43.69 74.60,44.08 74.76,44.76 74.91,46.12 75.06,47.90 75.21,48.36 75.36,49.32 75.52,50.14 75.67,50.86 75.82,51.61 75.97,52.26 76.13,52.99 76.28,53.79 76.43,54.68 76.58,55.47 76.73,55.97 76.89,55.00 77.04,6.42 77.19,6.24 77.34,6.37 77.49,6.64 77.65,6.68 77.80,7.00 77.95,6.63 78.10,6.59 78.26,6.28 78.41,5.98 78.56,5.62 78.71,5.04 78.86,4.53 79.02,4.51 79.17,4.55 79.32,5.09 79.47,5.35 79.62,6.37 79.78,6.68 79.93,6.91 80.08,7.06 80.23,7.30 80.39,7.74 80.54,8.11 80.69,8.50 80.84,8.89 80.99,9.13 81.15,9.55 81.30,9.70 81.45,9.81 81.60,9.92 81.76,10.08 81.91,10.12 82.06,10.27 82.21,10.36 82.36,10.38 82.52,10.42 82.67,10.28 82.82,10.51 82.97,10.45 83.12,10.27 83.28,9.97 83.43,10.10 83.58,10.29 83.73,10.57 83.89,10.79 84.04,11.01 84.19,11.22 84.34,11.32 84.49,11.47 84.65,11.50 84.80,11.58 84.95,11.67 85.10,11.69 85.25,11.79 85.41,11.79 85.56,11.85 85.71,11.81 85.86,11.85 86.02,11.73 86.17,11.67 86.32,11.58 86.47,11.41 86.62,11.27 86.78,11.07 86.93,10.85 87.08,10.75 87.23,10.61 87.39,10.34 87.54,10.21 87.69,10.19 87.84,9.95 87.99,9.68 88.15,9.44 88.30,9.10 88.45,8.70 88.60,8.19 88.75,7.72 88.91,7.59 89.06,7.57 89.21,7.71 89.36,8.10 89.52,7.95 89.67,7.98 89.82,7.97 89.97,9.43 90.12,10.00 90.28,9.39 90.43,9.56 90.58,10.34 90.73,9.33 90.88,10.98 91.04,11.66 91.19,12.24 91.34,10.74 91.49,11.14 91.65,13.22 91.80,12.67 91.95,14.06 92.10,15.35 92.25,15.88 92.41,16.14 92.56,16.42 92.71,16.52 92.86,16.59 93.02,16.57 93.17,16.52 93.32,16.50 93.47,16.46 93.62,16.32 93.78,16.15 93.93,15.97 94.08,15.87 94.23,15.63 94.38,15.46 94.54,15.26 94.69,15.09 94.84,14.87 94.99,14.53 95.15,14.47 95.30,13.94 95.45,14.01 95.60,13.87 95.75,13.56 95.91,13.50 96.06,13.59 96.21,13.47 96.36,13.28 96.51,13.07 96.67,13.18 96.82,12.69 96.97,12.64 97.12,11.73 97.28,12.24 97.43,11.63 97.58,12.00 97.73,11.79 97.88,10.88 98.04,10.67 98.19,9.28 98.34,8.88 98.49,9.22 98.65,8.44 98.80,9.03 98.95,8.44 99.10,8.37 99.25,8.08 99.41,7.91 99.56,7.78 99.71,7.67 99.86,7.56 100.01,7.64 100.17,7.88 100.32,8.22 100.47,8.22 100.62,8.19 100.78,8.68 100.93,8.95 101.08,9.00 101.23,9.01 101.38,9.12 101.54,9.01 101.69,8.91 101.84,8.77 101.99,8.56 102.14,8.13 102.30,8.30 102.45,8.42 102.60,8.96 102.75,9.21 102.91,9.41 103.06,9.28 103.21,9.15 103.36,9.06 103.51,8.91 103.67,8.89 103.82,8.74 103.97,9.23 104.12,9.12 104.28,9.08 104.43,8.97 104.58,8.95 104.73,9.03 104.88,9.22 105.04,9.49 105.19,10.17 105.34,10.75 105.49,11.16 105.64,11.60 105.80,11.88 105.95,12.27 106.10,12.95 106.25,12.74 106.41,12.96 106.56,12.69 106.71,13.10 106.86,13.78 107.01,14.20 107.17,15.18 107.32,15.52 107.47,15.77 107.62,15.91 107.77,15.86 107.93,16.10 108.08,16.55 108.23,16.89 108.38,17.14 108.54,17.21 108.69,17.41 108.84,17.43 108.99,17.57 109.14,17.72 109.30,17.34 109.45,17.31 109.60,16.78 109.75,16.36 109.91,15.51 110.06,14.82 110.21,15.60 110.36,15.19 110.51,15.17 110.67,15.45 110.82,15.87 110.97,15.52 111.12,15.55 111.27,16.21 111.43,16.79 111.58,17.32 111.73,18.40 111.88,18.80 112.04,19.98 112.19,20.55 112.34,21.09 112.49,21.42 112.64,22.03 112.80,22.90 112.95,23.99 113.10,25.09 113.25,26.14 113.40,27.23 113.56,27.92 113.71,28.73 113.86,29.36 114.01,30.07 114.17,31.14 114.32,32.03 114.47,32.28 114.62,31.16 114.77,29.84 114.93,29.37 115.08,28.92 115.23,28.15 115.38,27.22 115.54,26.55 115.69,26.61 115.84,26.16 115.99,24.99 116.14,24.24 116.30,23.60 116.45,23.00 116.60,22.63 116.75,22.32 116.90,21.49 117.06,20.71 117.21,20.02 117.36,18.99 117.51,18.88 117.67,19.66 117.82,20.08 117.97,19.79 118.12,19.88 118.27,19.45 118.43,19.11 118.58,18.63 118.73,18.29 118.88,18.00 119.03,17.72 119.19,17.36 119.34,16.84 119.49,16.40 119.64,15.72 119.80,15.28 119.95,15.31 120.10,15.09 120.25,15.08 120.40,14.86 120.56,14.81 120.71,14.61 120.86,14.15 121.01,14.04 121.17,13.47 121.32,13.51 121.47,13.04 121.62,13.36 121.77,13.44 121.93,14.39 122.08,14.28 122.23,14.00 122.38,13.31 122.53,13.45 122.69,12.61 122.84,12.24 122.99,11.76 123.14,11.56 123.30,11.30 123.45,11.01 123.60,10.54 123.75,10.27 123.90,10.28 124.06,10.36 124.21,10.29 124.36,10.12 124.51,9.87 124.66,9.62 124.82,9.68 124.97,9.79 125.12,9.83 125.27,9.88 125.43,9.99 125.58,9.70 125.73,9.46 125.88,9.46 126.03,9.71 126.19,9.95 126.34,10.68 126.49,12.03 126.64,11.92 126.80,12.06 126.95,12.80 127.10,13.56 127.25,14.33 127.40,15.14 127.56,15.73 127.71,16.68 127.86,17.32 128.01,17.76 128.16,18.56 128.32,18.89 128.47,19.59 128.62,20.28 128.77,20.85 128.93,21.06 129.08,21.48 129.23,21.85 129.38,21.96 129.53,22.02 129.69,21.53 129.84,21.36 129.99,21.37 130.14,21.73 130.29,22.23 130.45,23.38 130.60,23.02 130.75,23.19 130.90,23.01 131.06,23.12 131.21,22.82 131.36,22.65 131.51,22.53 131.66,22.43 131.82,22.45 131.97,22.35 132.12,22.29 132.27,22.19 132.43,22.02 132.58,21.45 132.73,21.05 132.88,20.37 133.03,20.38 133.19,20.02 133.34,19.81 133.49,19.35 133.64,19.13 133.79,19.14 133.95,19.00 134.10,19.38 134.25,20.17 134.40,21.11 134.56,21.79 134.71,23.41 134.86,24.56 135.01,24.81 135.16,24.80 135.32,24.50 135.47,24.66 135.62,24.04 135.77,24.14 135.92,24.07 136.08,24.14 136.23,24.99 136.38,24.78 136.53,23.85 136.69,23.35 136.84,23.70 136.99,24.34 137.14,25.64 137.29,26.79 137.45,28.08 137.60,29.57 137.75,30.24 137.90,30.92 138.06,31.69 138.21,32.48 138.36,32.91 138.51,34.27 138.66,34.67 138.82,35.00 138.97,35.10 139.12,34.88 139.27,34.98 139.42,35.67 139.58,35.87 139.73,36.26 139.88,36.64 140.03,37.11 140.19,37.65 140.34,38.30 140.49,38.07 140.64,38.02 140.79,38.39 140.95,38.56 141.10,38.76 141.25,38.87 141.40,38.77 141.55,38.62 141.71,38.26 141.86,38.49 142.01,38.33 142.16,38.88 142.32,38.44 142.47,37.86 142.62,37.79 142.77,38.56 142.92,39.52 143.08,39.42 143.23,39.96 143.38,40.32 143.53,41.39 143.69,40.41 143.84,41.80 143.99,41.64 144.14,40.51 144.29,40.22 144.45,39.51 144.60,39.11 144.75,39.29 144.90,39.27 145.05,38.09 145.21,37.93 145.36,37.65 145.51,37.59 145.66,37.85 145.82,38.08 145.97,37.40 146.12,37.60 146.27,38.01 146.42,37.84 146.58,37.86 146.73,38.10 146.88,38.66 147.03,39.39 147.18,40.46 147.34,41.59 147.49,43.28 147.64,43.35 147.79,44.78 147.95,45.83 148.10,48.02 148.25,48.45 148.40,49.48 148.55,50.19 148.71,50.97 148.86,51.58 149.01,52.36 149.16,53.07 149.32,53.92 149.47,54.78 149.62,55.49 149.77,56.00 149.92,54.72 150.08,6.36 150.23,6.20 150.38,6.29 150.53,6.44 150.68,6.56 150.84,6.80 150.99,6.49 151.14,6.62 151.29,6.14 151.45,6.01 151.60,5.61 151.75,5.27 151.90,4.79 152.05,4.58 152.21,4.66 152.36,4.99 152.51,5.30 152.66,6.19 152.82,6.46 152.97,6.71 153.12,7.00 153.27,7.05 153.42,7.34 153.58,7.61 153.73,7.83 153.88,8.14 154.03,8.31 154.18,9.04 154.34,9.24 154.49,9.43 154.64,9.67 154.79,9.85 154.95,10.03 155.10,9.99 155.25,10.19 155.40,10.37 155.55,10.57 155.71,10.48 155.86,10.44 156.01,10.56 156.16,10.28 156.31,10.10 156.47,9.84 156.62,9.86 156.77,9.98 156.92,10.32 157.08,11.01 157.23,10.99 157.38,11.45 157.53,11.64 157.68,11.13 157.84,11.60 157.99,11.64 158.14,11.64 158.29,11.78 158.45,11.70 158.60,11.74 158.75,11.95 158.90,11.62 159.05,11.63 159.21,11.14 159.36,11.01 159.51,11.48 159.66,10.90 159.81,10.83 159.97,10.90 160.12,10.93 160.27,10.64 160.42,10.25 160.58,10.20 160.73,9.51 160.88,9.69 161.03,9.73 161.18,9.08 161.34,9.06 161.49,8.70 161.64,7.65 161.79,7.48 161.94,7.15 162.10,7.22 162.25,6.97 162.40,7.67 162.55,7.41 162.71,7.84 162.86,8.12 163.01,9.38 163.16,9.70 163.31,8.51 163.47,9.69 163.62,9.38 163.77,10.24 163.92,10.23 164.08,11.46 164.23,12.30 164.38,11.56 164.53,12.78 164.68,11.93 164.84,13.19 164.99,14.30 165.14,14.47 165.29,15.36 165.44,16.07 165.60,16.36 165.75,16.34 165.90,16.73 166.05,16.85 166.21,16.54 166.36,16.36 166.51,16.46 166.66,16.16 166.81,16.30 166.97,16.00 167.12,16.00 167.27,15.64 167.42,15.16 167.57,15.41 167.73,15.05 167.88,14.93 168.03,14.28 168.18,14.46 168.34,13.97 168.49,14.08 168.64,13.01 168.79,13.25 168.94,11.93 169.10,13.42 169.25,13.27 169.40,12.84 169.55,13.32 169.71,12.67 169.86,12.88 170.01,12.13 170.16,12.40 170.31,11.57 170.47,11.94 170.62,11.04 170.77,11.36 170.92,10.29 171.07,10.50 171.23,9.22 171.38,9.39 171.53,9.55 171.68,8.69 171.84,8.90 171.99,8.29 172.14,8.37 172.29,7.95 172.44,7.95 172.60,7.67 172.75,7.84 172.90,7.36 173.05,7.65 173.20,7.28 173.36,7.77 173.51,7.70 173.66,7.93 173.81,8.55 173.97,8.84 174.12,8.85 174.27,8.90 174.42,9.10 174.57,9.03 174.73,8.57 174.88,8.73 175.03,8.35 175.18,8.11 175.34,7.65 175.49,7.99 175.64,8.72 175.79,8.72 175.94,9.02 176.10,9.10 176.25,8.66 176.40,8.78 176.55,9.04 176.70,8.73 176.86,8.93 177.01,9.34 177.16,9.24 177.31,9.35 177.47,8.87 177.62,9.02 177.77,9.80 177.92,10.09 178.07,10.47 178.23,11.31 178.38,10.84 178.53,11.11 178.68,12.09 178.83,12.26 178.99,12.91 179.14,13.18 179.29,13.16 179.44,13.80 179.60,12.94 179.75,13.13 179.90,13.91 180.05,14.90 180.20,14.85 180.36,15.51 180.51,15.66 180.66,15.98 180.81,16.08 180.97,16.31 181.12,16.67 181.27,16.67 181.42,16.64 181.57,17.05 181.73,17.02 181.88,17.32 182.03,17.68 182.18,17.29 182.33,17.52 182.49,17.12 182.64,16.50 182.79,16.57 182.94,15.87 183.10,15.05 183.25,15.32 183.40,15.03 183.55,14.97 183.70,15.23 183.86,15.14 184.01,14.85 184.16,15.70 184.31,15.39 184.46,16.36 184.62,17.48 184.77,17.48 184.92,18.76 185.07,19.98 185.23,19.68 185.38,20.67 185.53,21.57 185.68,21.57 185.83,22.77 185.99,24.28 186.14,24.79 186.29,26.30 186.44,27.65 186.60,27.92 186.75,28.53 186.90,29.28 187.05,30.16 187.20,30.16 187.36,31.00 187.51,31.82 187.66,31.18 187.81,31.18 187.96,30.42 188.12,29.19 188.27,28.07 188.42,27.22 188.57,26.79 188.73,25.93 188.88,25.76 189.03,24.88 189.18,24.00 189.33,24.00 189.49,22.97 189.64,22.71 189.79,21.79 189.94,21.48 190.09,20.45 190.25,19.84 190.40,19.06 190.55,19.06 190.70,19.47 190.86,19.67 191.01,19.99 191.16,20.21 191.31,18.94 191.46,18.55 191.62,18.20 191.77,18.09 191.92,16.47 192.07,17.39 192.23,16.96 192.38,17.20 192.53,16.43 192.68,15.84 192.83,15.44 192.99,15.33 193.14,15.14 193.29,14.90 193.44,14.65 193.59,14.48 193.75,14.41 193.90,14.37 194.05,14.30 194.20,12.85 194.36,12.84 194.51,13.01 194.66,13.29 194.81,13.72 194.96,14.26 195.12,13.61 195.27,13.52 195.42,13.07 195.57,12.49 195.72,12.57 195.88,11.91 196.03,11.64 196.18,11.81 196.33,11.39 196.49,11.08 196.64,10.63 196.79,10.38 196.94,10.38 197.09,10.39 197.25,10.33 197.40,10.08 197.55,9.55 197.70,9.08 197.86,9.73 198.01,8.81 198.16,9.58 198.31,9.05 198.46,9.60 198.62,10.00 198.77,8.85 198.92,9.00 199.07,9.10 199.22,10.08 199.38,10.60 199.53,11.36 199.68,11.78 199.83,12.18 199.99,13.64 200.14,14.11 200.29,14.11 200.44,15.37 200.59,15.71 200.75,16.87 200.90,17.85 201.05,18.05 201.20,18.91 201.35,18.91 201.51,19.66 201.66,20.05 201.81,20.49 201.96,20.90 202.12,21.37 202.27,21.90 202.42,21.44 202.57,21.70 202.72,22.05 202.88,21.08 203.03,21.52 203.18,22.23 203.33,22.26 203.49,22.84 203.64,22.84 203.79,23.06 203.94,23.11 204.09,23.21 204.25,22.99 204.40,22.92 204.55,22.60 204.70,22.50 204.85,22.50 205.01,22.50 205.16,22.28 205.31,22.18 205.46,21.95 205.62,21.61 205.77,21.11 205.92,20.71 206.07,20.42 206.22,20.22 206.38,19.68 206.53,19.30 206.68,19.01 206.83,18.96 206.98,19.16 207.14,19.16 207.29,20.04 207.44,21.24 207.59,22.40 207.75,23.63 207.90,23.62 208.05,23.92 208.20,24.84 208.35,24.64 208.51,24.04 208.66,24.04 208.81,23.68 208.96,23.66 209.12,24.47 209.27,24.90 209.42,23.93 209.57,23.52 209.72,23.54 209.88,24.13 210.03,24.95 210.18,25.58 210.33,27.45 210.48,28.57 210.64,29.58 210.79,30.16 210.94,30.83 211.09,31.65 211.25,32.87 211.40,33.34 211.55,33.60 211.70,34.96 211.85,35.17 212.01,35.00 212.16,34.69 212.31,34.86 212.46,35.03 212.61,35.36 212.77,35.73 212.92,36.94 213.07,36.91 213.22,37.12 213.38,38.41 213.53,37.53 213.68,37.52 213.83,38.44 213.98,38.44 214.14,37.87 214.29,38.40 214.44,38.40 214.59,39.08 214.75,38.45 214.90,38.89 215.05,38.68 215.20,39.06 215.35,38.12 215.51,37.76 215.66,37.98 215.81,38.86 215.96,39.78 216.11,39.05 216.27,39.83 216.42,40.84 216.57,42.04 216.72,38.82 216.88,40.55 217.03,40.41 217.18,40.41 217.33,38.55 217.48,38.94 217.64,39.44 217.79,37.97 217.94,39.30 218.09,38.08 218.24,38.36 218.40,37.62 218.55,37.74 218.70,37.85 218.85,37.85 219.01,37.88 219.16,37.72 219.31,38.54 219.46,38.66 219.61,38.07 219.77,39.14 219.92,40.23 220.07,40.30 220.22,42.24 220.38,41.75 220.53,43.83 220.68,44.03 220.83,44.60 220.98,45.58 221.14,48.01 221.29,48.35 221.44,50.03 221.59,49.51 221.74,50.77 221.90,50.33 222.05,51.98 222.20,53.31 222.35,53.18 222.51,54.48 222.66,55.59 222.81,55.55 222.96,54.42 223.11,6.45 223.27,6.45 223.42,6.31 223.57,6.31 223.72,6.31 223.87,6.82 224.03,5.77 224.18,5.77 224.33,5.72 224.48,5.72 224.64,5.72 224.79,5.16 224.94,4.00 225.09,4.00 225.24,4.58 225.40,4.58 225.55,4.58 225.70,5.76 225.85,5.76 226.01,6.80 226.16,6.80 226.31,6.80 226.46,7.88 226.61,7.88 226.77,7.88 226.92,8.25 227.07,7.96 227.22,8.69 227.37,8.69 227.53,8.69 227.68,9.64 227.83,9.64 227.98,9.64 228.14,10.81 228.29,10.81 228.44,11.70 228.59,11.05 228.74,11.05 228.90,10.87 229.05,10.87 229.20,10.87 229.35,10.51 229.50,10.51 229.66,10.51 229.81,9.99 229.96,9.99 230.11,9.99 230.27,9.92 230.42,9.92 230.57,12.69 230.72,10.92 230.87,10.92 231.03,10.92 231.18,12.67 231.33,12.67 231.48,11.64 231.64,11.64 231.79,11.63 231.94,11.63 232.09,11.63 232.24,10.40 232.40,11.46 232.55,11.46 232.70,11.46 232.85,10.92 233.00,10.96 233.16,10.96 233.31,10.96 233.46,10.05 233.61,10.05 233.77,10.05 233.92,10.05 234.07,10.29 234.22,10.29 234.37,10.29 234.53,9.64 234.68,7.40 234.83,7.40 234.98,6.81 235.13,6.81 235.29,6.81 235.44,6.81 235.59,5.52 235.74,7.28 235.90,7.28 236.05,7.28 236.20,8.85 236.35,8.85 236.50,8.85 236.66,8.85 236.81,10.04 236.96,8.47 237.11,10.56 237.27,10.56 237.42,10.56 237.57,12.66 237.72,12.66 237.87,12.66 238.03,14.58 238.18,13.62 238.33,13.62 238.48,16.03 238.63,16.03 238.79,16.03 238.94,17.33 239.09,17.58 239.24,17.58 239.40,16.82 239.55,16.82 239.70,16.79 239.85,16.79 240.00,16.79 240.16,16.79 240.31,15.34 240.46,15.34 240.61,15.34 240.76,16.28 240.92,16.28 241.07,14.32 241.22,14.32 241.37,13.82 241.53,13.82 241.68,13.82 241.83,12.96 241.98,12.96 242.13,12.96 242.29,12.96 242.44,12.22 242.59,12.22 242.74,12.22 242.90,12.84 243.05,12.84 243.20,12.84 243.35,11.05 243.50,11.05 243.66,11.05 243.81,10.57 243.96,10.57 244.11,10.57 244.26,9.10 244.42,9.10 244.57,9.10 244.72,9.12 244.87,9.12 245.03,9.12 245.18,9.69 245.33,8.13 245.48,8.13 245.63,8.43 245.79,8.43 245.94,8.43 246.09,9.72 246.24,7.17 246.39,7.17 246.55,8.14 246.70,8.14 246.85,8.14 247.00,8.88 247.16,8.88 247.31,8.88 247.46,8.88 247.61,8.95 247.76,8.95 247.92,8.95 248.07,8.95 248.22,8.05 248.37,8.05 248.53,8.05 248.68,8.05 248.83,7.33 248.98,8.97 249.13,8.97 249.29,8.15 249.44,8.15 249.59,9.12 249.74,9.12 249.89,9.12 250.05,9.12 250.20,9.03 250.35,10.33 250.50,10.33 250.66,9.61 250.81,9.61 250.96,11.10 251.11,11.10 251.26,11.10 251.42,10.63 251.57,12.16 251.72,12.16 251.87,12.16 252.03,13.65 252.18,13.24 252.33,13.24 252.48,14.40 252.63,14.40 252.79,14.02 252.94,14.02 253.09,14.85 253.24,14.85 253.39,15.18 253.55,15.18 253.70,15.18 253.85,15.93 254.00,14.25 254.16,14.25 254.31,14.25 254.46,15.54 254.61,15.54 254.76,15.54 254.92,17.24 255.07,17.24 255.22,15.20 255.37,15.89 255.52,15.89 255.68,15.89 255.83,15.89 255.98,14.60 256.13,14.60 256.29,14.60 256.44,13.95 256.59,13.95 256.74,13.95 256.89,12.96 257.05,12.96 257.20,15.37 257.35,15.37 257.50,15.37 257.66,15.50 257.81,15.50 257.96,18.63 258.11,18.63 258.26,18.85 258.42,18.85 258.57,21.81 258.72,21.81 258.87,22.42 259.02,22.42 259.18,22.42 259.33,25.84 259.48,25.84 259.63,25.84 259.79,25.84 259.94,28.43 260.09,28.43 260.24,28.43 260.39,28.43 260.55,31.29 260.70,31.29 260.85,31.29 261.00,31.29 261.15,30.07 261.31,30.07 261.46,30.07 261.61,30.07 261.76,25.65 261.92,25.65 262.07,25.65 262.22,24.09 262.37,24.09 262.52,22.63 262.68,22.63 262.83,21.04 262.98,21.04 263.13,21.04 263.29,19.86 263.44,17.17 263.59,17.17 263.74,17.17 263.89,19.34 264.05,19.34 264.20,19.34 264.35,15.07 264.50,15.07 264.65,15.07 264.81,15.12 264.96,15.12 265.11,15.12 265.26,15.12 265.42,16.95 265.57,13.93 265.72,13.93 265.87,13.93 266.02,12.52 266.18,12.52 266.33,12.52 266.48,12.07 266.63,12.07 266.78,11.42 266.94,11.42 267.09,11.42 267.24,11.64 267.39,11.64 267.55,12.69 267.70,12.69 267.85,12.69 268.00,13.61 268.15,13.61 268.31,12.49 268.46,12.49 268.61,12.49 268.76,11.85 268.92,11.85 269.07,11.85 269.22,12.42 269.37,11.91 269.52,11.91 269.68,11.91 269.83,11.08 269.98,11.08 270.13,11.08 270.28,11.08 270.44,11.64 270.59,9.41 270.74,9.41 270.89,9.41 271.05,8.04 271.20,7.38 271.35,7.38 271.50,7.38 271.65,8.50 271.81,8.50 271.96,8.50 272.11,9.52 272.26,9.52 272.41,9.52 272.57,11.60 272.72,11.60 272.87,11.60 273.02,13.93 273.18,13.93 273.33,13.93 273.48,13.93 273.63,15.96 273.78,17.29 273.94,17.29 274.09,18.59 274.24,18.59 274.39,18.59 274.55,20.30 274.70,20.75 274.85,20.75 275.00,20.75 275.15,21.55 275.31,21.55 275.46,21.55 275.61,22.11 275.76,22.11 275.91,20.77 276.07,20.64 276.22,20.64 276.37,20.64 276.52,22.43 276.68,22.43 276.83,22.43 276.98,22.43 277.13,23.70 277.28,23.70 277.44,23.70 277.59,23.02 277.74,23.02 277.89,23.02 278.04,23.02 278.20,22.73 278.35,22.66 278.50,22.66 278.65,21.46 278.81,21.46 278.96,21.46 279.11,20.42 279.26,20.42 279.41,19.59 279.57,18.51 279.72,18.51 279.87,18.51 280.02,19.61 280.18,19.61 280.33,19.61 280.48,19.47 280.63,22.44 280.78,22.44 280.94,22.44 281.09,20.47 281.24,22.95 281.39,22.95 281.54,22.95 281.70,22.95 281.85,22.51 282.00,22.51 282.15,22.51 282.31,24.75 282.46,23.46 282.61,23.46 282.76,23.46 282.91,25.19 283.07,25.19 283.22,25.19 283.37,27.83 283.52,27.83 283.67,29.81 283.83,29.81 283.98,29.81 284.13,31.01 284.28,31.01 284.44,31.09 284.59,31.09 284.74,31.09 284.89,30.78 285.04,30.78 285.20,30.78 285.35,31.59 285.50,31.59 285.65,32.78 285.81,32.78 285.96,36.93 286.11,36.87 286.26,36.87 286.41,36.87 286.57,33.02 286.72,33.02 286.87,38.02 287.02,38.02 287.17,31.70 287.33,31.70 287.48,33.23 287.63,39.40 287.78,39.40 287.94,37.88 288.09,37.88 288.24,37.88 288.39,38.69 288.54,37.68 288.70,37.68 288.85,37.68 289.00,39.53 289.15,39.53 289.30,39.53 289.46,41.32 289.61,41.32 289.76,28.00 289.91,37.83 290.07,37.83 290.22,37.83 290.37,29.08 290.52,32.99 290.67,32.99 290.83,32.99 290.98,37.25 291.13,37.25 291.28,37.25 291.44,38.99 291.59,38.99 291.74,38.99 291.89,38.99 292.04,39.88 292.20,39.88 292.35,39.88 292.50,38.42 292.65,41.94 292.80,41.94 292.96,41.94 293.11,46.50 293.26,46.50 293.41,43.81 293.57,43.81 293.72,43.81 293.87,44.82 294.02,44.82 294.17,50.70 294.33,48.55 294.48,48.55 294.63,48.55 294.78,48.55 294.93,45.80 295.09,52.25 295.24,52.25 295.39,51.00 295.54,51.00 295.70,55.65 295.85,55.65 296.00,54.91" />
</svg>