<svg width="300" height="60" xmlns="http://www.w3.org/2000/svg">
  <polyline fill="rgba(255,200,0,0.3)" stroke="#ffbb00" stroke-width="2" points="4.00,54.91 5.20,54.45 6.40,53.88 7.60,53.41 8.81,52.93 10.01,52.44 11.21,51.96 12.41,51.54 13.61,50.93 14.81,50.56 16.02,50.06 17.22,49.36 18.42,48.44 19.62,47.28 20.82,46.12 22.02,45.15 23.23,42.47 24.43,40.00 25.63,39.42 26.83,38.21 28.03,37.13 29.23,36.71 30.44,35.05 31.64,32.90 32.84,30.44 34.04,27.79 35.24,24.92 36.44,22.07 37.65,18.94 38.85,15.65 40.05,11.87 41.25,7.03 42.45,5.76 43.65,4.93 44.86,4.00 46.06,4.23 47.26,4.81 48.46,5.56 49.66,6.80 50.86,8.29 52.07,10.46 53.27,11.92 54.47,15.02 55.67,15.17 56.87,16.71 58.07,19.13 59.28,20.59 60.48,22.14 61.68,23.41 62.88,25.30 64.08,26.71 65.28,27.55 66.49,28.24 67.69,29.53 68.89,30.38 70.09,31.20 71.29,32.57 72.49,33.27 73.70,34.09 74.90,35.75 76.10,38.28 77.30,56.00 78.50,55.56 79.70,54.97 80.91,54.43 82.11,54.15 83.31,53.39 84.51,52.87 85.71,51.60 86.91,51.80 88.12,51.45 89.32,50.68 90.52,50.20 91.72,49.57 92.92,48.58 94.12,46.86 95.33,45.19 96.53,43.75 97.73,41.85 98.93,40.90 100.13,39.49 101.33,38.30 102.53,36.22 103.74,36.30 104.94,33.31 106.14,31.23 107.34,27.12 108.54,24.98 109.74,22.64 110.95,19.86 112.15,16.33 113.35,13.02 114.55,9.47 115.75,6.85 116.95,5.98 118.16,5.15 119.36,5.84 120.56,5.92 121.76,6.83 122.96,8.73 124.16,9.54 125.37,12.97 126.57,12.74 127.77,15.85 128.97,16.08 130.17,17.39 131.37,19.29 132.58,20.92 133.78,22.15 134.98,24.29 136.18,25.96 137.38,27.32 138.58,28.43 139.79,29.34 140.99,30.63 142.19,31.69 143.39,32.36 144.59,33.39 145.79,34.31 147.00,35.17 148.20,36.92 149.40,39.26 150.60,55.26 151.80,54.78 153.00,53.79 154.21,53.19 155.41,52.95 156.61,52.67 157.81,52.35 159.01,48.98 160.21,49.42 161.42,49.69 162.62,49.53 163.82,49.13 165.02,48.46 166.22,47.67 167.42,46.75 168.63,44.61 169.83,43.20 171.03,41.81 172.23,40.62 173.43,39.46 174.63,38.35 175.84,35.61 177.04,33.91 178.24,31.58 179.44,28.88 180.64,26.90 181.84,24.08 183.05,20.87 184.25,18.52 185.45,14.95 186.65,12.81 187.85,8.58 189.05,7.04 190.26,5.05 191.46,5.05 192.66,4.56 193.86,4.92 195.06,7.86 196.26,9.09 197.47,6.90 198.67,10.71 199.87,12.38 201.07,14.40 202.27,15.51 203.47,15.51 204.67,16.86 205.88,18.88 207.08,20.95 208.28,21.82 209.48,23.33 210.68,25.77 211.88,27.56 213.09,27.56 214.29,29.11 215.49,30.50 216.69,31.61 217.89,32.76 219.09,32.76 220.30,33.60 221.50,35.15 222.70,38.04 223.90,53.63 225.10,53.63 226.30,53.63 227.51,52.48 228.71,52.48 229.91,50.77 231.11,50.77 232.31,50.77 233.51,49.58 234.72,49.58 235.92,49.30 237.12,49.30 238.32,49.30 239.52,47.49 240.72,47.49 241.93,44.24 243.13,44.24 244.33,44.24 245.53,40.39 246.73,40.39 247.93,40.39 249.14,36.42 250.34,36.42 251.54,30.74 252.74,30.74 253.94,30.74 255.14,23.12 256.35,23.12 257.55,23.12 258.75,14.35 259.95,14.35 261.15,14.35 262.35,7.68 263.56,7.68 264.76,7.68 265.96,4.93 267.16,4.93 268.36,4.93 269.56,10.77 270.77,7.28 271.97,7.28 273.17,7.28 274.37,15.49 275.57,12.79 276.77,12.79 277.98,12.79 279.18,19.74 280.38,18.55 281.58,18.55 282.78,18.55 283.98,22.20 285.19,25.62 286.39,25.62 287.59,25.62 288.79,27.24 289.99,30.94 291.19,30.94 292.40,30.94 293.60,30.94 294.80,33.12 296.00,33.12" />
</svg>