<svg width="300" height="60" xmlns="http://www.w3.org/2000/svg">
  <polyline fill="rgba(255,200,0,0.3)" stroke="#ffbb00" stroke-width="2" points="4.00,38.09 4.86,36.01 5.72,33.48 6.58,30.77 7.45,28.22 8.31,25.55 9.17,22.75 10.03,19.95 10.89,17.25 11.75,14.55 12.61,12.84 13.47,11.98 14.34,14.20 15.20,16.17 16.06,18.90 16.92,22.22 17.78,25.68 18.64,26.86 19.50,24.81 20.37,23.01 21.23,21.68 22.09,20.01 22.95,18.91 23.81,17.63 24.67,15.67 25.53,12.94 26.40,10.90 27.26,8.96 28.12,7.91 28.98,8.08 29.84,8.51 30.70,9.80 31.56,12.88 32.42,16.43 33.29,21.23 34.15,26.24 35.01,30.95 35.87,35.32 36.73,39.74 37.59,44.93 38.45,49.97 39.32,54.30 40.18,53.58 41.04,51.57 41.90,47.88 42.76,46.81 43.62,46.02 44.48,43.68 45.35,40.97 46.21,39.32 47.07,39.49 47.93,41.62 48.79,44.87 49.65,46.80 50.51,45.16 51.37,43.63 52.24,40.43 53.10,37.48 53.96,34.54 54.82,32.41 55.68,29.64 56.54,27.10 57.40,24.11 58.27,21.44 59.13,19.70 59.99,18.23 60.85,16.84 61.71,14.09 62.57,11.74 63.43,10.14 64.29,9.07 65.16,11.25 66.02,14.61 66.88,18.04 67.74,21.33 68.60,24.45 69.46,26.93 70.32,27.73 71.19,27.75 72.05,27.58 72.91,28.00 73.77,26.69 74.63,23.49 75.49,22.09 76.35,22.55 77.22,38.01 78.08,36.19 78.94,33.16 79.80,30.91 80.66,27.77 81.52,25.13 82.38,22.56 83.24,19.37 84.11,17.32 84.97,14.33 85.83,12.67 86.69,11.82 87.55,13.15 88.41,16.61 89.27,18.18 90.14,22.27 91.00,25.08 91.86,26.87 92.72,25.37 93.58,22.53 94.44,20.99 95.30,20.17 96.17,19.25 97.03,17.41 97.89,14.99 98.75,13.20 99.61,10.09 100.47,8.60 101.33,7.55 102.19,7.93 103.06,8.67 103.92,9.80 104.78,13.17 105.64,15.78 106.50,20.53 107.36,25.84 108.22,30.54 109.09,35.69 109.95,39.65 110.81,45.50 111.67,48.69 112.53,53.97 113.39,54.07 114.25,51.32 115.12,47.94 115.98,46.61 116.84,45.65 117.70,43.34 118.56,40.87 119.42,38.88 120.28,39.23 121.14,41.05 122.01,44.76 122.87,46.76 123.73,45.34 124.59,43.75 125.45,39.81 126.31,37.16 127.17,34.33 128.04,32.79 128.90,29.27 129.76,26.70 130.62,24.22 131.48,21.52 132.34,20.00 133.20,18.12 134.06,16.35 134.93,14.22 135.79,11.36 136.65,10.27 137.51,8.83 138.37,10.92 139.23,14.35 140.09,18.01 140.96,21.26 141.82,25.06 142.68,26.74 143.54,27.79 144.40,27.71 145.26,27.94 146.12,27.99 146.99,26.95 147.85,23.19 148.71,22.06 149.57,22.55 150.43,37.44 151.29,35.41 152.15,33.21 153.01,31.12 153.88,28.20 154.74,26.11 155.60,23.98 156.46,18.43 157.32,16.31 158.18,14.05 159.04,13.78 159.91,11.91 160.77,14.39 161.63,17.38 162.49,17.38 163.35,20.06 164.21,24.96 165.07,26.94 165.94,25.36 166.80,21.88 167.66,21.36 168.52,18.84 169.38,19.54 170.24,17.44 171.10,15.02 171.96,14.10 172.83,11.78 173.69,9.55 174.55,7.53 175.41,8.52 176.27,10.51 177.13,8.54 177.99,11.02 178.86,15.68 179.72,20.44 180.58,25.20 181.44,29.90 182.30,36.50 183.16,40.66 184.02,45.36 184.88,50.19 185.75,53.24 186.61,54.63 187.47,51.12 188.33,48.11 189.19,46.84 190.05,45.24 190.91,42.69 191.78,40.42 192.64,39.54 193.50,39.54 194.36,40.84 195.22,43.32 196.08,46.33 196.94,46.50 197.81,43.92 198.67,39.89 199.53,38.60 200.39,36.14 201.25,34.09 202.11,28.88 202.97,26.22 203.83,23.68 204.70,22.24 205.56,20.79 206.42,18.05 207.28,16.98 208.14,15.73 209.00,10.48 209.86,10.12 210.73,8.40 211.59,10.85 212.45,14.13 213.31,17.64 214.17,21.06 215.03,24.24 215.89,27.04 216.76,28.36 217.62,27.34 218.48,27.04 219.34,28.51 220.20,26.45 221.06,22.84 221.92,22.84 222.78,22.61 223.65,37.16 224.51,37.16 225.37,37.16 226.23,30.82 227.09,28.17 227.95,28.17 228.81,21.30 229.68,21.30 230.54,14.37 231.40,14.37 232.26,14.37 233.12,7.36 233.98,16.00 234.84,16.00 235.71,16.00 236.57,11.19 237.43,24.63 238.29,24.63 239.15,24.63 240.01,16.74 240.87,24.59 241.73,24.59 242.60,17.00 243.46,17.00 244.32,17.00 245.18,10.77 246.04,10.77 246.90,10.77 247.76,4.00 248.63,10.80 249.49,10.80 250.35,5.24 251.21,5.24 252.07,17.58 252.93,17.58 253.79,17.58 254.65,31.89 255.52,31.89 256.38,31.89 257.24,45.36 258.10,45.36 258.96,45.36 259.82,56.00 260.68,56.00 261.55,56.00 262.41,50.20 263.27,50.20 264.13,50.20 264.99,44.70 265.85,44.70 266.71,44.70 267.58,44.70 268.44,43.14 269.30,43.14 270.16,43.14 271.02,45.25 271.88,45.25 272.74,45.25 273.60,38.98 274.47,38.98 275.33,28.97 276.19,28.97 277.05,28.97 277.91,22.16 278.77,22.16 279.63,22.16 280.50,17.46 281.36,17.46 282.22,8.22 283.08,12.19 283.94,12.19 284.80,12.19 285.66,12.19 286.53,18.26 287.39,18.26 288.25,18.26 289.11,26.18 289.97,26.18 290.83,26.18 291.69,26.18 292.55,29.15 293.42,26.20 294.28,26.20 295.14,26.20 296.00,21.47" />
</svg>