<svg width="300" height="60" xmlns="http://www.w3.org/2000/svg">
  <polyline fill="rgba(255,200,0,0.3)" stroke="#ffbb00" stroke-width="2" points="4.00,56.00 4.30,55.25 4.59,54.83 4.89,54.62 5.18,54.33 5.48,54.15 5.77,53.87 6.07,53.42 6.36,53.36 6.66,53.04 6.95,52.69 7.25,52.57 7.54,52.64 7.84,51.97 8.13,51.33 8.43,51.09 8.72,51.14 9.02,51.23 9.31,50.74 9.61,50.40 9.90,50.85 10.20,51.40 10.50,50.65 10.79,49.81 11.09,49.64 11.38,49.11 11.68,49.83 11.97,50.41 12.27,50.35 12.56,49.52 12.86,47.81 13.15,47.07 13.45,46.64 13.74,46.21 14.04,45.97 14.33,46.40 14.63,47.91 14.92,48.31 15.22,48.31 15.51,47.32 15.81,46.55 16.11,46.44 16.40,46.71 16.70,46.79 16.99,46.63 17.29,46.49 17.58,46.01 17.88,45.70 18.17,45.36 18.47,44.33 18.76,44.32 19.06,44.24 19.35,44.29 19.65,43.88 19.94,43.54 20.24,42.95 20.53,42.31 20.83,41.38 21.12,40.36 21.42,39.83 21.71,39.68 22.01,40.01 22.31,40.11 22.60,40.50 22.90,40.18 23.19,40.02 23.49,39.62 23.78,38.90 24.08,37.48 24.37,37.18 24.67,36.62 24.96,36.76 25.26,36.19 25.55,35.95 25.85,35.56 26.14,34.69 26.44,34.27 26.73,34.22 27.03,34.55 27.32,33.51 27.62,33.53 27.92,34.11 28.21,35.12 28.51,34.87 28.80,33.55 29.10,32.90 29.39,32.47 29.69,32.00 29.98,31.81 30.28,31.99 30.57,31.62 30.87,31.27 31.16,31.86 31.46,32.36 31.75,31.39 32.05,30.24 32.34,29.82 32.64,30.19 32.93,30.92 33.23,31.00 33.52,29.40 33.82,28.56 34.12,27.90 34.41,27.57 34.71,27.61 35.00,27.72 35.30,27.73 35.59,27.86 35.89,27.76 36.18,27.34 36.48,27.58 36.77,27.02 37.07,27.11 37.36,27.17 37.66,26.45 37.95,26.01 38.25,25.81 38.54,25.40 38.84,24.92 39.13,24.63 39.43,24.48 39.72,24.99 40.02,25.64 40.32,25.73 40.61,25.61 40.91,25.42 41.20,24.70 41.50,23.53 41.79,22.58 42.09,21.89 42.38,21.63 42.68,21.59 42.97,21.39 43.27,21.20 43.56,20.84 43.86,20.77 44.15,20.66 44.45,20.86 44.74,21.27 45.04,21.08 45.33,21.02 45.63,21.01 45.93,20.29 46.22,19.96 46.52,20.19 46.81,19.79 47.11,19.07 47.40,18.95 47.70,19.60 47.99,19.69 48.29,19.54 48.58,19.54 48.88,19.40 49.17,19.09 49.47,18.41 49.76,18.54 50.06,17.84 50.35,17.39 50.65,16.92 50.94,16.09 51.24,15.32 51.53,15.18 51.83,15.29 52.13,15.44 52.42,16.12 52.72,16.37 53.01,16.11 53.31,15.73 53.60,16.21 53.90,15.31 54.19,14.71 54.49,14.40 54.78,15.81 55.08,15.97 55.37,15.84 55.67,15.41 55.96,14.79 56.26,14.84 56.55,15.24 56.85,15.77 57.14,15.91 57.44,16.89 57.74,16.62 58.03,15.86 58.33,15.60 58.62,15.36 58.92,15.28 59.21,14.99 59.51,14.79 59.80,14.02 60.10,13.91 60.39,14.01 60.69,13.91 60.98,14.23 61.28,14.69 61.57,14.52 61.87,14.49 62.16,14.46 62.46,14.42 62.75,14.17 63.05,14.04 63.34,13.89 63.64,13.83 63.94,13.70 64.23,13.66 64.53,13.45 64.82,13.29 65.12,13.24 65.41,13.07 65.71,12.86 66.00,12.62 66.30,12.56 66.59,13.31 66.89,13.22 67.18,12.27 67.48,11.97 67.77,11.87 68.07,11.66 68.36,12.37 68.66,13.54 68.95,14.81 69.25,15.34 69.54,13.06 69.84,11.78 70.14,11.52 70.43,11.32 70.73,10.83 71.02,10.19 71.32,9.79 71.61,9.38 71.91,8.62 72.20,8.06 72.50,8.52 72.79,8.59 73.09,8.34 73.38,8.08 73.68,7.79 73.97,7.60 74.27,7.19 74.56,6.21 74.86,5.98 75.15,5.97 75.45,6.44 75.75,6.52 76.04,7.18 76.34,6.25 76.63,6.09 76.93,6.17 77.22,6.25 77.52,6.29 77.81,6.32 78.11,6.29 78.40,6.17 78.70,6.01 78.99,6.34 79.29,6.49 79.58,6.48 79.88,6.36 80.17,6.10 80.47,6.01 80.76,5.93 81.06,6.04 81.35,6.24 81.65,6.40 81.95,6.43 82.24,6.45 82.54,6.43 82.83,6.54 83.13,6.62 83.42,6.62 83.72,6.57 84.01,6.02 84.31,5.96 84.60,6.22 84.90,6.83 85.19,6.29 85.49,5.52 85.78,5.36 86.08,5.52 86.37,5.41 86.67,5.51 86.96,5.83 87.26,6.93 87.56,8.20 87.85,8.68 88.15,8.63 88.44,7.83 88.74,6.62 89.03,6.33 89.33,6.76 89.62,7.60 89.92,8.31 90.21,8.68 90.51,8.27 90.80,7.82 91.10,7.13 91.39,7.03 91.69,7.56 91.98,7.87 92.28,8.03 92.57,8.09 92.87,8.05 93.16,7.93 93.46,7.90 93.76,7.80 94.05,7.57 94.35,7.37 94.64,7.30 94.94,6.82 95.23,7.12 95.53,7.75 95.82,8.66 96.12,8.13 96.41,7.91 96.71,7.59 97.00,7.59 97.30,7.73 97.59,7.66 97.89,7.71 98.18,7.70 98.48,7.55 98.77,7.52 99.07,7.47 99.37,7.57 99.66,7.73 99.96,7.86 100.25,7.86 100.55,7.88 100.84,7.87 101.14,7.89 101.43,55.80 101.73,54.59 102.02,54.78 102.32,55.03 102.61,53.79 102.91,53.86 103.20,53.89 103.50,53.74 103.79,53.58 104.09,53.45 104.38,53.30 104.68,51.47 104.97,51.78 105.27,51.64 105.57,51.02 105.86,50.94 106.16,51.07 106.45,51.30 106.75,51.43 107.04,49.77 107.34,50.85 107.63,51.17 107.93,50.38 108.22,49.53 108.52,49.13 108.81,49.10 109.11,49.46 109.40,50.73 109.70,49.76 109.99,48.71 110.29,47.66 110.58,46.94 110.88,46.61 111.17,46.42 111.47,46.50 111.77,46.87 112.06,47.56 112.36,48.05 112.65,48.13 112.95,47.96 113.24,46.13 113.54,45.63 113.83,47.07 114.13,46.89 114.42,46.60 114.72,46.41 115.01,45.94 115.31,44.60 115.60,44.06 115.90,43.48 116.19,45.04 116.49,44.35 116.78,43.63 117.08,44.33 117.38,43.07 117.67,43.58 117.97,42.08 118.26,41.63 118.56,39.57 118.85,39.89 119.15,39.22 119.44,40.40 119.74,39.10 120.03,39.00 120.33,40.36 120.62,39.34 120.92,39.58 121.21,38.43 121.51,37.68 121.80,36.09 122.10,36.72 122.39,36.22 122.69,36.22 122.98,35.13 123.28,34.79 123.58,33.85 123.87,34.39 124.17,34.39 124.46,34.21 124.76,33.98 125.05,33.00 125.35,33.79 125.64,34.80 125.94,34.80 126.23,33.75 126.53,33.61 126.82,32.72 127.12,32.04 127.41,31.89 127.71,32.24 128.00,30.95 128.30,30.90 128.59,32.17 128.89,31.32 129.19,31.60 129.48,30.05 129.78,29.52 130.07,30.77 130.37,30.53 130.66,30.60 130.96,29.52 131.25,28.33 131.55,27.28 131.84,27.94 132.14,27.18 132.43,27.52 132.73,27.18 133.02,28.07 133.32,27.77 133.61,27.64 133.91,27.52 134.20,27.08 134.50,26.96 134.79,26.59 135.09,26.59 135.39,26.55 135.68,25.68 135.98,24.69 136.27,25.28 136.57,24.66 136.86,24.26 137.16,25.30 137.45,25.11 137.75,25.69 138.04,25.61 138.34,25.27 138.63,24.89 138.93,23.04 139.22,22.71 139.52,21.39 139.81,21.67 140.11,21.17 140.40,21.74 140.70,21.24 140.99,20.25 141.29,20.82 141.59,20.48 141.88,20.48 142.18,20.52 142.47,19.95 142.77,20.43 143.06,20.92 143.36,20.17 143.65,20.09 143.95,19.30 144.24,19.52 144.54,19.55 144.83,18.56 145.13,19.17 145.42,19.67 145.72,19.38 146.01,19.82 146.31,19.08 146.60,19.15 146.90,17.92 147.20,18.03 147.49,18.37 147.79,17.71 148.08,17.43 148.38,16.02 148.67,15.84 148.97,14.87 149.26,15.15 149.56,15.57 149.85,16.07 150.15,16.39 150.44,16.33 150.74,15.90 151.03,15.92 151.33,14.66 151.62,15.06 151.92,14.53 152.21,15.46 152.51,16.04 152.80,15.95 153.10,15.54 153.40,14.86 153.69,14.46 153.99,15.45 154.28,15.98 154.58,15.75 154.87,16.28 155.17,16.51 155.46,16.18 155.76,15.25 156.05,15.81 156.35,15.30 156.64,15.06 156.94,15.06 157.23,14.63 157.53,14.62 157.82,13.56 158.12,13.78 158.41,13.78 158.71,14.46 159.01,14.70 159.30,14.82 159.60,14.84 159.89,14.30 160.19,14.66 160.48,14.20 160.78,14.03 161.07,14.19 161.37,13.61 161.66,14.35 161.96,14.00 162.25,13.21 162.55,13.44 162.84,12.87 163.14,14.02 163.43,13.44 163.73,12.93 164.02,13.84 164.32,13.16 164.61,12.99 164.91,12.84 165.21,11.35 165.50,11.78 165.80,12.49 166.09,12.60 166.39,14.30 166.68,15.73 166.98,13.99 167.27,12.55 167.57,11.51 167.86,11.78 168.16,10.65 168.45,10.68 168.75,9.81 169.04,9.12 169.34,8.73 169.63,8.73 169.93,7.66 170.22,8.16 170.52,8.43 170.81,8.75 171.11,7.86 171.41,7.56 171.70,6.72 172.00,6.09 172.29,5.94 172.59,6.21 172.88,6.52 173.18,6.52 173.47,7.11 173.77,6.42 174.06,6.09 174.36,6.19 174.65,6.51 174.95,6.09 175.24,6.38 175.54,6.57 175.83,5.85 176.13,6.00 176.42,6.27 176.72,6.60 177.02,6.79 177.31,6.63 177.61,6.50 177.90,6.47 178.20,5.92 178.49,6.37 178.79,6.34 179.08,6.36 179.38,6.36 179.67,6.45 179.97,6.40 180.26,6.87 180.56,7.29 180.85,6.72 181.15,5.98 181.44,5.85 181.74,5.54 182.03,6.45 182.33,6.50 182.62,6.26 182.92,5.77 183.22,5.33 183.51,5.85 183.81,5.67 184.10,6.00 184.40,5.69 184.69,6.46 184.99,8.18 185.28,8.32 185.58,8.32 185.87,7.29 186.17,6.38 186.46,6.53 186.76,6.61 187.05,7.74 187.35,8.30 187.64,8.59 187.94,8.61 188.23,7.49 188.53,7.57 188.83,6.30 189.12,6.72 189.42,6.85 189.71,8.26 190.01,8.18 190.30,7.98 190.60,7.90 190.89,7.77 191.19,7.77 191.48,7.60 191.78,7.41 192.07,7.37 192.37,6.96 192.66,7.29 192.96,7.92 193.25,8.43 193.55,8.08 193.84,7.78 194.14,7.96 194.43,7.86 194.73,7.79 195.03,8.13 195.32,7.79 195.62,7.99 195.91,8.01 196.21,7.20 196.50,7.35 196.80,7.62 197.09,7.52 197.39,7.89 197.68,8.12 197.98,7.89 198.27,8.07 198.57,7.49 198.86,55.56 199.16,51.30 199.45,51.30 199.75,51.30 200.04,51.73 200.34,51.73 200.63,51.73 200.93,51.89 201.23,51.89 201.52,51.51 201.82,51.51 202.11,51.51 202.41,51.48 202.70,51.48 203.00,51.11 203.29,51.11 203.59,51.11 203.88,51.18 204.18,51.18 204.47,46.21 204.77,47.22 205.06,47.22 205.36,47.48 205.65,47.48 205.95,47.48 206.24,46.22 206.54,46.22 206.84,47.70 207.13,47.70 207.43,47.70 207.72,46.45 208.02,46.45 208.31,46.45 208.61,44.85 208.90,44.85 209.20,45.44 209.49,45.44 209.79,45.44 210.08,46.66 210.38,46.66 210.67,45.08 210.97,45.08 211.26,48.03 211.56,47.00 211.85,47.00 212.15,47.00 212.44,45.84 212.74,45.84 213.04,43.96 213.33,43.96 213.63,43.96 213.92,42.04 214.22,42.04 214.51,42.04 214.81,39.22 215.10,44.85 215.40,42.19 215.69,42.19 215.99,36.93 216.28,37.34 216.58,37.34 216.87,37.34 217.17,37.34 217.46,36.92 217.76,36.92 218.05,36.92 218.35,36.92 218.65,33.46 218.94,35.93 219.24,35.93 219.53,35.93 219.83,33.34 220.12,33.34 220.42,33.34 220.71,33.34 221.01,30.96 221.30,33.88 221.60,33.88 221.89,33.88 222.19,31.78 222.48,31.78 222.78,31.78 223.07,32.71 223.37,32.71 223.66,32.71 223.96,32.71 224.25,30.86 224.55,30.86 224.85,30.86 225.14,30.82 225.44,30.82 225.73,30.82 226.03,29.02 226.32,29.02 226.62,29.02 226.91,30.40 227.21,28.36 227.50,28.36 227.80,28.36 228.09,28.36 228.39,27.08 228.68,27.08 228.98,27.08 229.27,27.08 229.57,24.51 229.86,27.28 230.16,27.28 230.46,26.35 230.75,26.35 231.05,26.35 231.34,25.64 231.64,25.64 231.93,25.64 232.23,23.12 232.52,23.12 232.82,24.11 233.11,24.11 233.41,24.11 233.70,25.43 234.00,24.13 234.29,24.13 234.59,24.13 234.88,23.06 235.18,23.62 235.47,23.62 235.77,23.62 236.06,22.21 236.36,22.21 236.66,22.21 236.95,21.63 237.25,21.63 237.54,18.22 237.84,19.72 238.13,19.72 238.43,19.72 238.72,17.77 239.02,17.77 239.31,17.77 239.61,16.86 239.90,16.86 240.20,20.17 240.49,20.17 240.79,18.78 241.08,18.35 241.38,18.35 241.67,18.35 241.97,18.44 242.26,18.44 242.56,18.44 242.86,19.43 243.15,19.43 243.45,19.43 243.74,18.37 244.04,18.37 244.33,19.06 244.63,19.06 244.92,19.06 245.22,19.06 245.51,16.17 245.81,16.17 246.10,16.17 246.40,14.99 246.69,14.99 246.99,15.59 247.28,15.59 247.58,15.59 247.87,16.19 248.17,16.19 248.47,16.14 248.76,12.38 249.06,12.38 249.35,12.38 249.65,14.24 249.94,14.24 250.24,14.24 250.53,14.61 250.83,14.61 251.12,12.88 251.42,15.45 251.71,15.45 252.01,15.45 252.30,15.45 252.60,16.85 252.89,16.85 253.19,16.85 253.48,18.07 253.78,16.17 254.07,16.17 254.37,16.17 254.67,16.17 254.96,14.74 255.26,14.74 255.55,14.74 255.85,14.48 256.14,14.48 256.44,15.74 256.73,15.74 257.03,14.89 257.32,14.89 257.62,14.89 257.91,14.55 258.21,14.55 258.50,14.55 258.80,16.51 259.09,16.51 259.39,16.51 259.68,13.33 259.98,16.39 260.28,16.39 260.57,16.39 260.87,14.89 261.16,14.89 261.46,14.89 261.75,13.09 262.05,13.09 262.34,13.09 262.64,14.13 262.93,14.13 263.23,14.13 263.52,17.19 263.82,17.19 264.11,17.19 264.41,14.96 264.70,14.96 265.00,14.96 265.29,11.77 265.59,11.77 265.88,15.11 266.18,12.23 266.48,12.23 266.77,12.23 267.07,12.23 267.36,7.90 267.66,7.90 267.95,7.90 268.25,10.37 268.54,10.37 268.84,10.37 269.13,7.77 269.43,7.77 269.72,7.77 270.02,7.05 270.31,7.05 270.61,7.05 270.90,7.05 271.20,6.52 271.49,6.52 271.79,6.52 272.08,6.45 272.38,6.45 272.68,6.45 272.97,7.21 273.27,7.21 273.56,7.21 273.86,7.21 274.15,7.72 274.45,7.72 274.74,7.72 275.04,7.68 275.33,7.68 275.63,5.88 275.92,6.51 276.22,6.51 276.51,6.51 276.81,6.51 277.10,6.46 277.40,6.46 277.69,6.46 277.99,8.25 278.29,8.25 278.58,5.65 278.88,5.65 279.17,5.65 279.47,6.47 279.76,6.47 280.06,6.47 280.35,5.83 280.65,5.83 280.94,5.83 281.24,5.04 281.53,5.04 281.83,5.85 282.12,5.85 282.42,5.85 282.71,6.82 283.01,6.82 283.30,6.82 283.60,5.34 283.89,7.29 284.19,7.29 284.49,7.27 284.78,7.27 285.08,7.27 285.37,7.64 285.67,7.64 285.96,7.64 286.26,4.00 286.55,4.00 286.85,4.02 287.14,7.81 287.44,7.81 287.73,7.76 288.03,7.76 288.32,7.67 288.62,7.67 288.91,7.67 289.21,7.67 289.50,7.52 289.80,7.52 290.10,7.52 290.39,8.26 290.69,8.26 290.98,8.26 291.28,7.76 291.57,8.46 291.87,8.46 292.16,8.46 292.46,9.21 292.75,7.72 293.05,7.72 293.34,8.11 293.64,8.11 293.93,8.11 294.23,8.83 294.52,8.83 294.82,8.83 295.11,9.50 295.41,7.80 295.70,8.25 296.00,8.25" />
</svg>