<svg width="300" height="60" xmlns="http://www.w3.org/2000/svg">
  <polyline fill="rgba(255,200,0,0.3)" stroke="#ffbb00" stroke-width="2" points="4.00,5.26 4.52,6.27 5.04,7.65 5.56,10.51 6.09,13.33 6.61,14.25 7.13,14.91 7.65,16.40 8.17,18.45 8.69,20.08 9.21,20.92 9.74,21.21 10.26,21.05 10.78,20.35 11.30,19.84 11.82,20.79 12.34,22.97 12.86,24.58 13.39,25.06 13.91,25.28 14.43,26.13 14.95,26.56 15.47,26.68 15.99,25.29 16.51,24.65 17.04,24.83 17.56,24.51 18.08,24.01 18.60,23.71 19.12,23.49 19.64,23.08 20.16,23.01 20.69,22.19 21.21,20.39 21.73,18.58 22.25,17.18 22.77,15.75 23.29,14.48 23.81,14.52 24.34,14.98 24.86,14.42 25.38,13.83 25.90,13.38 26.42,13.16 26.94,12.91 27.46,12.59 27.99,12.39 28.51,12.58 29.03,12.33 29.55,12.21 30.07,12.30 30.59,12.33 31.11,11.98 31.64,13.63 32.16,13.37 32.68,11.20 33.20,35.08 33.72,33.43 34.24,33.40 34.76,34.77 35.29,36.18 35.81,37.37 36.33,38.11 36.85,38.67 37.37,39.04 37.89,40.09 38.41,42.38 38.94,45.52 39.46,49.46 39.98,52.98 40.50,51.30 41.02,48.69 41.54,46.93 42.06,46.35 42.59,46.37 43.11,48.23 43.63,50.26 44.15,52.72 44.67,54.72 45.19,56.00 45.71,54.54 46.24,52.33 46.76,49.54 47.28,47.80 47.80,45.69 48.32,43.57 48.84,41.42 49.36,38.73 49.89,36.03 50.41,33.23 50.93,31.27 51.45,29.70 51.97,29.04 52.49,28.79 53.01,29.19 53.54,30.04 54.06,30.59 54.58,32.02 55.10,33.88 55.62,35.96 56.14,38.32 56.66,39.17 57.19,39.16 57.71,40.32 58.23,40.66 58.75,41.30 59.27,41.23 59.79,42.05 60.31,43.40 60.84,44.46 61.36,45.19 61.88,45.08 62.40,45.59 62.92,45.60 63.44,46.33 63.96,45.57 64.49,43.90 65.01,42.84 65.53,41.07 66.05,39.20 66.57,37.61 67.09,36.29 67.61,34.83 68.14,32.96 68.66,31.34 69.18,29.76 69.70,27.25 70.22,25.54 70.74,24.19 71.26,22.86 71.79,20.67 72.31,17.17 72.83,15.60 73.35,14.54 73.87,13.16 74.39,10.92 74.91,8.43 75.44,5.88 75.96,4.00 76.48,4.11 77.00,5.26 77.52,35.23 78.04,33.28 78.56,33.25 79.09,34.71 79.61,35.90 80.13,37.52 80.65,37.87 81.17,38.82 81.69,38.91 82.21,40.33 82.74,41.81 83.26,45.18 83.78,49.45 84.30,52.63 84.82,51.84 85.34,48.45 85.86,46.68 86.39,46.04 86.91,46.31 87.43,47.80 87.95,50.43 88.47,52.43 88.99,54.55 89.51,55.55 90.04,54.39 90.56,52.23 91.08,48.90 91.60,47.57 92.12,45.47 92.64,43.33 93.16,41.80 93.69,39.10 94.21,36.34 94.73,33.70 95.25,31.51 95.77,30.01 96.29,29.17 96.81,28.40 97.34,29.19 97.86,30.49 98.38,30.58 98.90,31.74 99.42,33.93 99.94,36.20 100.46,38.50 100.99,38.85 101.51,39.27 102.03,39.67 102.55,40.82 103.07,41.71 103.59,41.15 104.11,42.53 104.64,43.48 105.16,44.53 105.68,45.03 106.20,45.06 106.72,45.51 107.24,45.84 107.76,46.39 108.29,45.30 108.81,43.91 109.33,42.97 109.85,41.47 110.37,39.10 110.89,37.57 111.41,36.47 111.94,34.44 112.46,33.00 112.98,31.11 113.50,29.84 114.02,27.39 114.54,25.21 115.06,24.70 115.59,22.87 116.11,21.34 116.63,17.23 117.15,15.64 117.67,14.47 118.19,13.71 118.71,11.20 119.24,7.96 119.76,6.16 120.28,4.04 120.80,4.11 121.32,5.32 121.84,6.20 122.36,7.79 122.89,10.05 123.41,12.92 123.93,14.45 124.45,14.78 124.97,16.72 125.49,18.83 126.01,19.80 126.54,21.15 127.06,21.36 127.58,20.67 128.10,20.16 128.62,20.04 129.14,20.72 129.66,23.24 130.19,24.70 130.71,25.15 131.23,25.17 131.75,26.21 132.27,26.70 132.79,26.79 133.31,25.00 133.84,24.65 134.36,24.74 134.88,24.49 135.40,24.06 135.92,23.64 136.44,23.40 136.96,23.18 137.49,22.97 138.01,22.29 138.53,20.51 139.05,18.27 139.57,17.09 140.09,15.45 140.61,14.15 141.14,14.73 141.66,15.01 142.18,14.40 142.70,13.73 143.22,13.40 143.74,13.13 144.26,12.98 144.79,12.56 145.31,12.54 145.83,12.47 146.35,12.23 146.87,12.03 147.39,12.27 147.91,12.17 148.44,11.93 148.96,13.48 149.48,12.96 150.00,11.25 150.52,35.39 151.04,34.42 151.56,33.59 152.09,35.34 152.61,35.89 153.13,38.11 153.65,39.97 154.17,39.52 154.69,39.52 155.21,40.17 155.74,42.80 156.26,44.61 156.78,49.44 157.30,51.69 157.82,51.56 158.34,49.53 158.86,47.63 159.39,46.50 159.91,47.12 160.43,49.13 160.95,51.76 161.47,51.93 161.99,54.15 162.51,55.39 163.04,54.62 163.56,52.48 164.08,50.10 164.60,48.29 165.12,46.29 165.64,44.06 166.16,41.76 166.69,39.13 167.21,36.37 167.73,33.81 168.25,31.78 168.77,30.36 169.29,29.66 169.81,29.67 170.34,30.46 170.86,31.82 171.38,30.99 171.90,33.43 172.42,36.41 172.94,37.48 173.46,40.13 173.99,38.08 174.51,39.40 175.03,38.88 175.55,41.69 176.07,41.49 176.59,43.58 177.11,43.90 177.64,42.66 178.16,45.09 178.68,45.55 179.20,45.57 179.72,45.08 180.24,45.73 180.76,46.27 181.29,45.80 181.81,44.11 182.33,42.99 182.85,41.56 183.37,37.83 183.89,36.25 184.41,35.05 184.94,33.77 185.46,32.45 185.98,31.51 186.50,30.07 187.02,24.77 187.54,22.79 188.06,24.46 188.59,22.26 189.11,18.85 189.63,15.90 190.15,14.22 190.67,13.81 191.19,13.81 191.71,11.68 192.24,8.72 192.76,6.20 193.28,4.09 193.80,4.36 194.32,5.05 194.84,6.40 195.36,8.51 195.89,11.59 196.41,13.49 196.93,13.96 197.45,14.56 197.97,18.23 198.49,19.21 199.01,19.21 199.54,21.32 200.06,21.14 200.58,21.76 201.10,20.33 201.62,20.99 202.14,21.22 202.66,24.19 203.19,24.90 203.71,24.98 204.23,25.06 204.75,26.63 205.27,26.63 205.79,26.78 206.31,25.11 206.84,24.74 207.36,24.93 207.88,24.76 208.40,24.28 208.92,23.84 209.44,23.51 209.96,23.30 210.49,23.23 211.01,22.37 211.53,20.82 212.05,18.04 212.57,17.18 213.09,15.40 213.61,14.37 214.14,14.42 214.66,14.93 215.18,14.15 215.70,13.65 216.22,13.53 216.74,13.04 217.26,13.04 217.79,13.50 218.31,12.89 218.83,12.63 219.35,12.33 219.87,12.01 220.39,12.63 220.91,12.47 221.44,12.48 221.96,13.51 222.48,13.14 223.00,11.29 223.52,37.34 224.04,39.45 224.56,39.45 225.09,39.45 225.61,40.24 226.13,40.24 226.65,40.24 227.17,46.11 227.69,46.11 228.21,46.11 228.74,43.94 229.26,43.94 229.78,52.08 230.30,51.93 230.82,51.93 231.34,51.93 231.86,48.40 232.39,48.40 232.91,53.04 233.43,51.80 233.95,51.80 234.47,51.80 234.99,55.03 235.51,55.03 236.04,55.03 236.56,51.14 237.08,51.14 237.60,51.14 238.12,44.80 238.64,44.80 239.16,44.80 239.69,38.13 240.21,38.13 240.73,38.13 241.25,35.11 241.77,35.11 242.29,35.11 242.81,37.18 243.34,37.18 243.86,37.18 244.38,36.42 244.90,36.42 245.42,36.42 245.94,44.36 246.46,44.36 246.99,44.36 247.51,44.36 248.03,44.05 248.55,44.05 249.07,44.05 249.59,47.71 250.11,47.71 250.64,44.52 251.16,44.52 251.68,45.93 252.20,45.93 252.72,45.54 253.24,45.54 253.76,44.08 254.29,44.08 254.81,44.08 255.33,39.97 255.85,39.97 256.37,34.64 256.89,28.45 257.41,28.45 257.94,28.45 258.46,23.32 258.98,23.32 259.50,23.32 260.02,17.58 260.54,17.58 261.06,17.58 261.59,11.58 262.11,11.58 262.63,11.58 263.15,7.12 263.67,11.07 264.19,11.07 264.71,11.07 265.24,5.35 265.76,5.35 266.28,5.35 266.80,7.99 267.32,6.62 267.84,6.62 268.36,12.40 268.89,12.40 269.41,12.40 269.93,15.51 270.45,15.51 270.97,19.21 271.49,21.55 272.01,21.55 272.54,21.55 273.06,21.55 273.58,19.78 274.10,19.78 274.62,23.98 275.14,25.07 275.66,25.07 276.19,25.07 276.71,26.18 277.23,26.18 277.75,26.18 278.27,26.18 278.79,25.02 279.31,25.79 279.84,25.79 280.36,25.65 280.88,25.65 281.40,25.65 281.92,24.77 282.44,24.77 282.96,24.77 283.49,21.05 284.01,21.05 284.53,21.05 285.05,15.04 285.57,16.58 286.09,16.58 286.61,15.33 287.14,15.33 287.66,15.33 288.18,13.80 288.70,13.80 289.22,13.80 289.74,12.31 290.26,12.31 290.79,15.85 291.31,15.85 291.83,13.65 292.35,13.65 292.87,13.65 293.39,13.85 293.91,13.85 294.44,13.85 294.96,12.26 295.48,12.26 296.00,12.26" />
</svg>