<svg width="300" height="60" xmlns="http://www.w3.org/2000/svg">
  <polyline fill="rgba(255,200,0,0.3)" stroke="#ffbb00" stroke-width="2" points="4.00,15.82 4.21,15.25 4.41,14.66 4.62,14.06 4.82,13.47 5.03,12.82 5.23,12.08 5.44,11.28 5.64,10.58 5.85,9.98 6.05,9.47 6.26,9.14 6.46,8.95 6.67,8.90 6.87,8.96 7.08,9.16 7.28,9.45 7.49,9.85 7.69,10.28 7.90,10.85 8.10,11.39 8.31,11.90 8.51,12.36 8.72,12.72 8.92,12.80 9.13,12.94 9.34,13.07 9.54,13.23 9.75,13.35 9.95,13.42 10.16,13.46 10.36,13.44 10.57,13.50 10.77,13.55 10.98,13.63 11.18,13.73 11.39,13.95 11.59,14.17 11.80,14.46 12.00,14.75 12.21,14.99 12.41,15.15 12.62,15.24 12.82,15.38 13.03,15.54 13.23,15.73 13.44,15.95 13.64,16.08 13.85,16.03 14.05,15.89 14.26,15.62 14.47,15.19 14.67,14.67 14.88,13.93 15.08,13.21 15.29,12.52 15.49,12.02 15.70,11.85 15.90,12.14 16.11,12.57 16.31,12.97 16.52,13.43 16.72,13.78 16.93,14.05 17.13,14.22 17.34,14.31 17.54,14.36 17.75,14.28 17.95,14.08 18.16,13.82 18.36,13.36 18.57,12.78 18.77,12.27 18.98,11.68 19.18,10.93 19.39,10.19 19.60,9.55 19.80,8.98 20.01,8.38 20.21,7.94 20.42,7.51 20.62,7.02 20.83,6.41 21.03,5.83 21.24,5.22 21.44,4.67 21.65,4.20 21.85,4.02 22.06,4.00 22.26,4.36 22.47,4.99 22.67,5.28 22.88,5.67 23.08,5.89 23.29,6.02 23.49,6.18 23.70,6.27 23.90,6.31 24.11,6.38 24.31,6.46 24.52,6.51 24.73,6.59 24.93,6.57 25.14,6.43 25.34,6.13 25.55,5.94 25.75,5.96 25.96,6.07 26.16,6.38 26.37,6.64 26.57,6.77 26.78,6.89 26.98,7.11 27.19,7.59 27.39,8.20 27.60,8.72 27.80,9.19 28.01,9.70 28.21,10.09 28.42,10.63 28.62,11.15 28.83,11.62 29.03,12.19 29.24,12.72 29.44,13.29 29.65,13.94 29.86,14.50 30.06,15.02 30.27,15.59 30.47,15.90 30.68,16.30 30.88,16.91 31.09,17.75 31.29,18.74 31.50,19.39 31.70,20.71 31.91,21.63 32.11,22.51 32.32,23.36 32.52,24.30 32.73,25.12 32.93,25.91 33.14,26.81 33.34,27.65 33.55,28.42 33.75,28.95 33.96,29.50 34.16,30.05 34.37,30.25 34.57,30.32 34.78,30.67 34.99,31.19 35.19,31.63 35.40,32.09 35.60,32.64 35.81,33.29 36.01,33.79 36.22,34.25 36.42,34.63 36.63,34.95 36.83,35.23 37.04,35.49 37.24,35.78 37.45,36.02 37.65,36.25 37.86,36.36 38.06,36.34 38.27,36.23 38.47,36.05 38.68,35.74 38.88,35.30 39.09,34.72 39.29,33.98 39.50,33.33 39.70,32.70 39.91,32.33 40.12,32.18 40.32,32.33 40.53,32.63 40.73,33.11 40.94,33.62 41.14,34.06 41.35,34.61 41.55,35.11 41.76,35.43 41.96,35.56 42.17,35.53 42.37,35.34 42.58,35.01 42.78,34.52 42.99,33.87 43.19,33.09 43.40,32.20 43.60,31.27 43.81,30.50 44.01,29.51 44.22,28.60 44.42,27.62 44.63,26.70 44.83,25.74 45.04,24.81 45.25,23.86 45.45,22.96 45.66,22.19 45.86,21.42 46.07,20.72 46.27,19.97 46.48,19.29 46.68,18.70 46.89,18.11 47.09,17.58 47.30,17.11 47.50,16.79 47.71,16.61 47.91,16.52 48.12,16.52 48.32,16.50 48.53,16.43 48.73,16.31 48.94,16.28 49.14,16.44 49.35,16.74 49.55,17.07 49.76,17.50 49.96,18.01 50.17,18.50 50.38,18.96 50.58,19.31 50.79,19.57 50.99,19.80 51.20,19.98 51.40,20.09 51.61,20.15 51.81,20.22 52.02,20.37 52.22,20.53 52.43,20.73 52.63,21.03 52.84,21.30 53.04,21.59 53.25,21.88 53.45,22.15 53.66,22.29 53.86,22.40 54.07,22.48 54.27,22.53 54.48,22.56 54.68,22.62 54.89,22.62 55.09,22.66 55.30,22.67 55.51,22.64 55.71,22.61 55.92,22.55 56.12,22.46 56.33,22.38 56.53,22.33 56.74,22.30 56.94,22.35 57.15,22.53 57.35,22.92 57.56,23.36 57.76,23.82 57.97,24.21 58.17,24.61 58.38,24.97 58.58,25.42 58.79,26.01 58.99,26.59 59.20,27.15 59.40,27.96 59.61,28.93 59.81,30.00 60.02,30.93 60.22,31.85 60.43,32.51 60.64,33.34 60.84,34.37 61.05,35.40 61.25,36.34 61.46,36.97 61.66,37.78 61.87,38.77 62.07,39.59 62.28,40.49 62.48,41.38 62.69,42.27 62.89,42.94 63.10,43.57 63.30,44.39 63.51,45.18 63.71,46.05 63.92,47.19 64.12,48.22 64.33,48.91 64.53,49.66 64.74,50.83 64.94,51.89 65.15,52.10 65.35,52.37 65.56,52.45 65.77,52.40 65.97,52.19 66.18,51.84 66.38,51.29 66.59,50.73 66.79,50.04 67.00,49.25 67.20,48.60 67.41,48.02 67.61,47.51 67.82,47.14 68.02,46.87 68.23,46.54 68.43,46.26 68.64,45.98 68.84,45.77 69.05,45.51 69.25,45.33 69.46,45.18 69.66,45.07 69.87,45.03 70.07,44.94 70.28,44.80 70.48,44.59 70.69,44.34 70.90,44.11 71.10,43.84 71.31,43.55 71.51,43.11 71.72,42.59 71.92,42.10 72.13,41.34 72.33,40.64 72.54,40.22 72.74,39.80 72.95,39.15 73.15,38.31 73.36,37.45 73.56,36.23 73.77,35.39 73.97,34.65 74.18,33.61 74.38,32.94 74.59,32.45 74.79,31.85 75.00,31.21 75.20,30.30 75.41,29.97 75.61,29.73 75.82,29.76 76.03,30.01 76.23,30.20 76.44,30.32 76.64,30.40 76.85,30.37 77.05,15.79 77.26,15.28 77.46,14.66 77.67,14.15 77.87,13.55 78.08,12.91 78.28,12.08 78.49,11.23 78.69,10.60 78.90,10.00 79.10,9.56 79.31,9.18 79.51,9.08 79.72,8.94 79.92,9.03 80.13,9.23 80.33,9.54 80.54,9.93 80.74,10.42 80.95,10.88 81.16,11.50 81.36,11.92 81.57,12.42 81.77,12.82 81.98,12.91 82.18,12.99 82.39,13.17 82.59,13.34 82.80,13.37 83.00,13.41 83.21,13.46 83.41,13.51 83.62,13.52 83.82,13.62 84.03,13.77 84.23,13.88 84.44,13.98 84.64,14.27 84.85,14.52 85.05,14.78 85.26,15.02 85.46,15.27 85.67,15.34 85.87,15.42 86.08,15.47 86.29,15.82 86.49,16.05 86.70,16.16 86.90,16.13 87.11,15.94 87.31,15.69 87.52,15.19 87.72,14.69 87.93,14.10 88.13,13.12 88.34,12.57 88.54,11.97 88.75,11.88 88.95,12.12 89.16,12.71 89.36,12.93 89.57,13.43 89.77,13.91 89.98,14.10 90.18,14.23 90.39,14.39 90.59,14.42 90.80,14.33 91.00,14.08 91.21,13.80 91.42,13.42 91.62,12.78 91.83,12.34 92.03,11.64 92.24,10.86 92.44,10.34 92.65,9.50 92.85,9.03 93.06,8.35 93.26,8.02 93.47,7.71 93.67,7.07 93.88,6.66 94.08,5.85 94.29,5.34 94.49,4.79 94.70,4.25 94.90,4.07 95.11,4.14 95.31,4.45 95.52,5.06 95.72,5.34 95.93,5.82 96.13,5.88 96.34,6.21 96.55,6.28 96.75,6.39 96.96,6.39 97.16,6.43 97.37,6.50 97.57,6.56 97.78,6.65 97.98,6.61 98.19,6.46 98.39,6.25 98.60,5.92 98.80,5.91 99.01,6.13 99.21,6.44 99.42,6.71 99.62,6.86 99.83,6.90 100.03,7.17 100.24,7.56 100.44,8.30 100.65,8.74 100.85,9.29 101.06,9.71 101.26,10.20 101.47,10.60 101.68,11.07 101.88,11.73 102.09,12.28 102.29,12.68 102.50,13.30 102.70,13.80 102.91,14.49 103.11,15.09 103.32,15.53 103.52,15.86 103.73,16.28 103.93,16.56 104.14,17.48 104.34,18.63 104.55,19.30 104.75,20.65 104.96,21.59 105.16,22.49 105.37,23.18 105.57,24.06 105.78,25.13 105.98,25.85 106.19,26.64 106.39,27.43 106.60,28.40 106.81,28.85 107.01,29.51 107.22,29.90 107.42,30.26 107.63,30.28 107.83,30.52 108.04,31.01 108.24,31.63 108.45,32.04 108.65,32.66 108.86,33.10 109.06,33.62 109.27,34.13 109.47,34.57 109.68,34.93 109.88,35.17 110.09,35.46 110.29,35.77 110.50,35.93 110.70,36.25 110.91,36.32 111.11,36.26 111.32,36.21 111.52,36.04 111.73,35.80 111.94,35.28 112.14,34.61 112.35,34.13 112.55,33.25 112.76,32.61 112.96,32.30 113.17,32.14 113.37,32.29 113.58,32.62 113.78,32.93 113.99,33.48 114.19,33.96 114.40,34.53 114.60,35.05 114.81,35.47 115.01,35.59 115.22,35.54 115.42,35.33 115.63,34.96 115.83,34.64 116.04,33.96 116.24,33.18 116.45,32.17 116.65,31.22 116.86,30.52 117.07,29.67 117.27,28.70 117.48,27.78 117.68,26.73 117.89,25.70 118.09,24.84 118.30,23.78 118.50,23.07 118.71,22.18 118.91,21.51 119.12,20.64 119.32,20.13 119.53,19.41 119.73,18.72 119.94,18.13 120.14,17.52 120.35,17.09 120.55,16.84 120.76,16.60 120.96,16.52 121.17,16.52 121.37,16.44 121.58,16.44 121.78,16.29 121.99,16.22 122.20,16.36 122.40,16.71 122.61,17.00 122.81,17.50 123.02,17.98 123.22,18.38 123.43,18.79 123.63,19.17 123.84,19.53 124.04,19.71 124.25,19.96 124.45,20.08 124.66,20.16 124.86,20.21 125.07,20.35 125.27,20.46 125.48,20.70 125.68,21.03 125.89,21.28 126.09,21.59 126.30,21.87 126.50,22.07 126.71,22.29 126.91,22.36 127.12,22.47 127.33,22.52 127.53,22.50 127.74,22.56 127.94,22.61 128.15,22.63 128.35,22.60 128.56,22.60 128.76,22.60 128.97,22.54 129.17,22.46 129.38,22.35 129.58,22.35 129.79,22.27 129.99,22.33 130.20,22.48 130.40,22.76 130.61,23.33 130.81,23.69 131.02,24.21 131.22,24.60 131.43,24.93 131.63,25.47 131.84,25.90 132.04,26.68 132.25,27.01 132.46,28.06 132.66,28.85 132.87,29.85 133.07,30.84 133.28,31.78 133.48,32.45 133.69,33.31 133.89,34.43 134.10,35.42 134.30,36.10 134.51,36.91 134.71,37.66 134.92,38.74 135.12,39.34 135.33,40.35 135.53,41.36 135.74,42.08 135.94,42.74 136.15,43.66 136.35,44.26 136.56,45.07 136.76,46.22 136.97,47.23 137.17,48.25 137.38,48.58 137.59,49.68 137.79,50.88 138.00,51.64 138.20,52.34 138.41,52.32 138.61,52.43 138.82,52.43 139.02,52.15 139.23,51.77 139.43,51.36 139.64,50.68 139.84,50.07 140.05,48.83 140.25,48.41 140.46,48.11 140.66,47.48 140.87,47.09 141.07,46.87 141.28,46.46 141.48,46.29 141.69,45.67 141.89,45.66 142.10,45.45 142.30,45.30 142.51,45.12 142.72,44.98 142.92,44.96 143.13,44.87 143.33,45.00 143.54,44.74 143.74,44.35 143.95,44.18 144.15,43.80 144.36,43.78 144.56,43.07 144.77,42.28 144.97,41.97 145.18,41.29 145.38,40.76 145.59,40.04 145.79,39.75 146.00,39.03 146.20,38.07 146.41,37.33 146.61,36.49 146.82,34.67 147.02,34.67 147.23,33.58 147.43,32.87 147.64,32.26 147.85,31.72 148.05,30.79 148.26,30.59 148.46,29.96 148.67,29.62 148.87,29.69 149.08,29.95 149.28,30.17 149.49,30.30 149.69,30.39 149.90,30.40 150.10,16.47 150.31,15.61 150.51,14.65 150.72,13.94 150.92,13.76 151.13,12.95 151.33,12.42 151.54,11.59 151.74,10.99 151.95,10.11 152.15,9.66 152.36,8.84 152.57,8.49 152.77,8.74 152.98,8.93 153.18,9.29 153.39,9.96 153.59,10.84 153.80,10.74 154.00,11.28 154.21,11.75 154.41,12.20 154.62,12.49 154.82,13.24 155.03,12.98 155.23,13.25 155.44,13.16 155.64,13.47 155.85,13.42 156.05,13.60 156.26,13.62 156.46,13.55 156.67,13.52 156.87,13.61 157.08,13.48 157.28,13.81 157.49,13.72 157.70,14.18 157.90,14.01 158.11,14.58 158.31,14.13 158.52,14.35 158.72,14.45 158.93,14.78 159.13,15.14 159.34,15.55 159.54,15.86 159.75,16.08 159.95,16.15 160.16,15.93 160.36,15.71 160.57,15.38 160.77,14.52 160.98,14.02 161.18,13.35 161.39,12.47 161.59,11.88 161.80,11.47 162.00,11.35 162.21,10.76 162.41,12.37 162.62,12.31 162.83,12.31 163.03,13.88 163.24,13.85 163.44,13.83 163.65,14.47 163.85,14.38 164.06,14.34 164.26,13.76 164.47,13.76 164.67,13.10 164.88,12.27 165.08,11.64 165.29,10.58 165.49,10.29 165.70,9.31 165.90,8.93 166.11,8.36 166.31,8.58 166.52,7.85 166.72,7.22 166.93,6.51 167.13,5.83 167.34,5.61 167.54,4.67 167.75,4.10 167.96,4.23 168.16,4.51 168.37,4.49 168.57,4.90 168.78,5.28 168.98,5.63 169.19,6.22 169.39,6.40 169.60,6.52 169.80,6.62 170.01,6.73 170.21,6.45 170.42,6.31 170.62,7.43 170.83,7.46 171.03,7.24 171.24,6.87 171.44,6.43 171.65,5.73 171.85,5.46 172.06,5.47 172.26,5.73 172.47,6.04 172.67,6.23 172.88,6.49 173.09,6.73 173.29,7.20 173.50,8.01 173.70,8.99 173.91,9.94 174.11,9.92 174.32,10.99 174.52,10.82 174.73,11.00 174.93,11.87 175.14,12.22 175.34,12.58 175.55,13.01 175.75,13.51 175.96,14.28 176.16,14.42 176.37,14.24 176.57,15.20 176.78,15.95 176.98,16.55 177.19,17.33 177.39,18.30 177.60,18.28 177.80,19.86 178.01,21.37 178.22,20.70 178.42,22.18 178.63,24.08 178.83,24.04 179.04,23.91 179.24,26.54 179.45,26.87 179.65,26.35 179.86,28.40 180.06,28.31 180.27,28.23 180.47,30.02 180.68,29.17 180.88,30.25 181.09,30.82 181.29,31.37 181.50,31.87 181.70,31.50 181.91,32.57 182.11,33.51 182.32,34.26 182.52,33.91 182.73,34.70 182.93,35.27 183.14,35.71 183.35,36.15 183.55,36.15 183.76,35.83 183.96,35.64 184.17,35.81 184.37,35.05 184.58,36.40 184.78,35.92 184.99,34.83 185.19,34.82 185.40,32.74 185.60,32.96 185.81,32.75 186.01,32.64 186.22,32.62 186.42,32.55 186.63,32.57 186.83,32.79 187.04,33.16 187.24,33.60 187.45,34.55 187.65,35.10 187.86,36.50 188.06,36.05 188.27,35.98 188.48,35.74 188.68,35.17 188.89,35.17 189.09,34.42 189.30,33.56 189.50,32.70 189.71,31.93 189.91,30.85 190.12,29.63 190.32,29.17 190.53,27.78 190.73,26.49 190.94,25.81 191.14,25.21 191.35,23.96 191.55,23.31 191.76,22.31 191.96,21.85 192.17,20.75 192.37,20.20 192.58,19.16 192.78,18.55 192.99,17.72 193.19,17.32 193.40,16.84 193.61,16.84 193.81,16.44 194.02,16.49 194.22,16.58 194.43,16.68 194.63,16.55 194.84,16.36 195.04,16.20 195.25,16.12 195.45,16.49 195.66,16.78 195.86,17.43 196.07,17.62 196.27,18.17 196.48,18.33 196.68,19.07 196.89,18.98 197.09,19.64 197.30,20.23 197.50,19.84 197.71,20.74 197.91,21.06 198.12,20.32 198.32,20.40 198.53,20.62 198.74,21.04 198.94,21.12 199.15,21.51 199.35,21.84 199.56,22.07 199.76,22.28 199.97,22.41 200.17,22.74 200.38,22.37 200.58,22.37 200.79,22.52 200.99,22.62 201.20,22.64 201.40,23.45 201.61,22.97 201.81,22.73 202.02,22.58 202.22,22.35 202.43,22.33 202.63,22.39 202.84,22.44 203.04,22.39 203.25,22.41 203.45,22.50 203.66,23.09 203.87,23.60 204.07,23.97 204.28,24.68 204.48,24.68 204.69,25.26 204.89,25.74 205.10,26.75 205.30,27.06 205.51,27.86 205.71,27.86 205.92,28.80 206.12,29.75 206.33,30.65 206.53,31.75 206.74,32.86 206.94,34.17 207.15,34.04 207.35,35.71 207.56,36.70 207.76,37.69 207.97,38.39 208.17,38.39 208.38,39.66 208.58,40.93 208.79,42.14 209.00,42.75 209.20,42.16 209.41,43.65 209.61,45.12 209.82,45.93 210.02,46.44 210.23,48.85 210.43,49.18 210.64,49.75 210.84,50.47 211.05,51.32 211.25,52.82 211.46,52.99 211.66,53.30 211.87,53.91 212.07,52.54 212.28,52.24 212.48,51.36 212.69,50.13 212.89,50.13 213.10,48.64 213.30,48.40 213.51,47.81 213.71,47.50 213.92,47.57 214.13,47.24 214.33,46.74 214.54,46.74 214.74,46.20 214.95,45.62 215.15,45.32 215.36,45.32 215.56,45.54 215.77,45.71 215.97,45.32 216.18,46.17 216.38,45.18 216.59,45.38 216.79,44.76 217.00,44.78 217.20,44.35 217.41,44.21 217.61,43.64 217.82,43.47 218.02,43.01 218.23,42.17 218.43,41.18 218.64,40.30 218.84,39.57 219.05,38.87 219.26,37.47 219.46,36.30 219.67,35.78 219.87,35.07 220.08,33.98 220.28,33.63 220.49,33.19 220.69,32.95 220.90,31.90 221.10,31.61 221.31,30.59 221.51,30.17 221.72,29.73 221.92,29.64 222.13,29.95 222.33,30.46 222.54,30.67 222.74,30.72 222.95,30.63 223.15,15.97 223.36,15.72 223.56,13.88 223.77,13.88 223.97,13.88 224.18,12.43 224.39,12.43 224.59,10.63 224.80,9.62 225.00,9.62 225.21,9.62 225.41,8.70 225.62,8.70 225.82,9.32 226.03,9.32 226.23,9.32 226.44,12.16 226.64,12.16 226.85,10.66 227.05,10.66 227.26,10.66 227.46,12.05 227.67,12.05 227.87,14.55 228.08,13.58 228.28,13.58 228.49,13.58 228.69,13.87 228.90,13.87 229.10,14.51 229.31,13.82 229.52,13.82 229.72,13.82 229.93,14.51 230.13,13.26 230.34,13.26 230.54,14.20 230.75,14.20 230.95,14.20 231.16,16.22 231.36,12.88 231.57,12.88 231.77,13.07 231.98,13.07 232.18,13.86 232.39,13.86 232.59,13.86 232.80,14.94 233.00,14.94 233.21,15.18 233.41,15.18 233.62,15.18 233.82,13.01 234.03,13.01 234.23,13.01 234.44,11.67 234.65,11.67 234.85,11.67 235.06,10.53 235.26,10.53 235.47,13.75 235.67,13.75 235.88,13.75 236.08,13.67 236.29,13.67 236.49,13.67 236.70,13.67 236.90,13.67 237.11,13.84 237.31,13.29 237.52,13.29 237.72,13.29 237.93,12.17 238.13,12.17 238.34,10.41 238.54,10.41 238.75,10.13 238.95,8.40 239.16,8.40 239.36,8.40 239.57,8.40 239.78,6.60 239.98,6.60 240.19,6.60 240.39,6.60 240.60,4.36 240.80,4.36 241.01,4.36 241.21,5.34 241.42,5.34 241.62,5.34 241.83,7.19 242.03,7.19 242.24,7.96 242.44,7.96 242.65,7.96 242.85,8.44 243.06,8.44 243.26,7.91 243.47,7.91 243.67,7.91 243.88,7.23 244.08,7.23 244.29,7.23 244.49,5.96 244.70,5.96 244.91,5.98 245.11,5.98 245.32,5.98 245.52,7.19 245.73,7.19 245.93,7.52 246.14,7.52 246.34,7.52 246.55,8.29 246.75,8.29 246.96,8.66 247.16,8.66 247.37,13.27 247.57,12.15 247.78,12.15 247.98,12.15 248.19,12.96 248.39,12.96 248.60,12.96 248.80,14.09 249.01,14.09 249.21,14.01 249.42,14.01 249.62,14.01 249.83,17.23 250.04,17.23 250.24,17.23 250.45,19.94 250.65,17.50 250.86,17.50 251.06,22.23 251.27,22.23 251.47,22.23 251.68,21.66 251.88,21.66 252.09,21.66 252.29,27.92 252.50,27.92 252.70,27.92 252.91,27.28 253.11,27.28 253.32,25.81 253.52,25.81 253.73,25.81 253.93,31.38 254.14,31.38 254.34,31.38 254.55,32.95 254.75,29.47 254.96,29.47 255.17,32.28 255.37,32.28 255.58,32.28 255.78,34.75 255.99,34.75 256.19,34.75 256.40,36.15 256.60,36.15 256.81,36.15 257.01,36.15 257.22,37.20 257.42,33.06 257.63,33.06 257.83,36.21 258.04,36.21 258.24,36.21 258.45,30.03 258.65,31.76 258.86,31.76 259.06,31.76 259.27,34.22 259.47,34.22 259.68,34.22 259.88,36.11 260.09,36.11 260.30,36.11 260.50,37.11 260.71,37.11 260.91,37.11 261.12,37.35 261.32,37.35 261.53,37.35 261.73,36.30 261.94,36.30 262.14,34.91 262.35,34.91 262.55,32.52 262.76,32.48 262.96,32.48 263.17,29.00 263.37,29.00 263.58,27.66 263.78,27.66 263.99,27.66 264.19,25.62 264.40,23.38 264.60,23.38 264.81,23.38 265.01,22.02 265.22,20.42 265.43,20.42 265.63,18.35 265.84,18.35 266.04,18.35 266.25,16.44 266.45,16.44 266.66,16.44 266.86,17.08 267.07,16.68 267.27,16.68 267.48,16.68 267.68,16.46 267.89,16.46 268.09,16.46 268.30,16.31 268.50,16.31 268.71,16.31 268.91,18.35 269.12,18.35 269.32,18.35 269.53,18.35 269.73,18.48 269.94,18.48 270.14,21.62 270.35,20.09 270.56,20.09 270.76,20.09 270.97,23.71 271.17,20.79 271.38,20.79 271.58,20.79 271.79,22.83 271.99,21.73 272.20,21.73 272.40,21.73 272.61,23.76 272.81,22.77 273.02,22.77 273.22,22.77 273.43,23.62 273.63,23.62 273.84,23.62 274.04,23.62 274.25,23.56 274.45,23.56 274.66,23.56 274.86,23.20 275.07,23.20 275.27,23.20 275.48,24.01 275.69,24.01 275.89,24.01 276.10,23.40 276.30,23.40 276.51,23.40 276.71,23.59 276.92,23.59 277.12,23.59 277.33,24.16 277.53,24.16 277.74,26.11 277.94,26.11 278.15,26.11 278.35,28.26 278.56,28.26 278.76,28.26 278.97,28.26 279.17,30.63 279.38,30.63 279.58,30.63 279.79,34.72 279.99,34.72 280.20,33.49 280.40,33.49 280.61,38.35 280.82,38.35 281.02,38.35 281.23,38.35 281.43,40.09 281.64,40.09 281.84,43.82 282.05,44.31 282.25,43.38 282.46,43.38 282.66,43.38 282.87,44.63 283.07,44.63 283.28,52.55 283.48,52.57 283.69,52.57 283.89,52.57 284.10,54.48 284.30,54.48 284.51,55.67 284.71,55.67 284.92,55.67 285.12,56.00 285.33,56.00 285.53,51.43 285.74,48.73 285.95,48.73 286.15,48.73 286.36,47.64 286.56,47.64 286.77,47.64 286.97,48.87 287.18,48.87 287.38,48.87 287.59,48.87 287.79,48.29 288.00,47.11 288.20,47.11 288.41,47.11 288.61,47.23 288.82,48.63 289.02,48.63 289.23,48.63 289.43,49.40 289.64,46.99 289.84,46.99 290.05,46.99 290.25,47.78 290.46,47.71 290.66,47.71 290.87,44.26 291.08,44.26 291.28,42.59 291.49,42.59 291.69,42.59 291.90,38.45 292.10,38.45 292.31,38.45 292.51,36.27 292.72,34.60 292.92,34.60 293.13,34.60 293.33,34.62 293.54,34.62 293.74,34.62 293.95,31.48 294.15,31.48 294.36,31.48 294.56,30.64 294.77,30.64 294.97,30.64 295.18,31.45 295.38,31.80 295.59,32.42 295.79,32.42 296.00,32.42" />
</svg>