<svg width="300" height="60" xmlns="http://www.w3.org/2000/svg">
  <polyline fill="rgba(255,200,0,0.3)" stroke="#ffbb00" stroke-width="2" points="4.00,22.63 4.42,23.03 4.85,22.49 5.27,23.40 5.69,23.61 6.12,23.31 6.54,23.06 6.96,22.72 7.39,23.16 7.81,23.72 8.23,24.61 8.66,21.49 9.08,21.23 9.50,20.76 9.92,19.80 10.35,21.04 10.77,22.84 11.19,22.47 11.62,22.32 12.04,20.93 12.46,20.79 12.89,20.04 13.31,18.76 13.73,19.06 14.16,18.25 14.58,19.06 15.00,18.42 15.43,18.55 15.85,19.17 16.27,19.13 16.70,18.52 17.12,19.27 17.54,20.78 17.97,22.19 18.39,22.20 18.81,21.96 19.23,22.29 19.66,21.25 20.08,20.55 20.50,21.20 20.93,21.82 21.35,19.70 21.77,18.41 22.20,17.28 22.62,19.43 23.04,20.16 23.47,19.39 23.89,18.84 24.31,18.85 24.74,19.42 25.16,19.95 25.58,20.87 26.01,21.85 26.43,22.71 26.85,23.76 27.28,22.98 27.70,23.33 28.12,23.94 28.54,25.03 28.97,25.46 29.39,25.58 29.81,25.75 30.24,25.84 30.66,25.76 31.08,25.30 31.51,24.99 31.93,24.99 32.35,25.35 32.78,25.56 33.20,26.04 33.62,26.35 34.05,26.22 34.47,26.94 34.89,28.92 35.32,27.82 35.74,25.68 36.16,25.16 36.59,24.44 37.01,23.89 37.43,23.67 37.86,23.38 38.28,23.37 38.70,23.06 39.12,22.97 39.55,22.67 39.97,22.03 40.39,22.83 40.82,23.66 41.24,23.60 41.66,23.72 42.09,23.39 42.51,21.53 42.93,20.96 43.36,20.90 43.78,21.28 44.20,21.44 44.63,21.25 45.05,21.36 45.47,21.31 45.90,21.05 46.32,20.87 46.74,21.01 47.17,20.84 47.59,20.76 48.01,19.83 48.43,19.26 48.86,18.56 49.28,18.04 49.70,17.66 50.13,17.20 50.55,16.81 50.97,16.72 51.40,16.71 51.82,16.66 52.24,16.73 52.67,17.06 53.09,17.39 53.51,19.61 53.94,20.43 54.36,19.03 54.78,18.51 55.21,18.30 55.63,18.76 56.05,18.69 56.48,18.61 56.90,18.72 57.32,19.80 57.74,20.06 58.17,19.19 58.59,18.13 59.01,15.90 59.44,14.36 59.86,14.32 60.28,13.83 60.71,12.67 61.13,12.18 61.55,12.37 61.98,12.51 62.40,13.06 62.82,13.12 63.25,14.07 63.67,15.37 64.09,16.73 64.52,17.39 64.94,18.62 65.36,20.01 65.79,21.06 66.21,21.02 66.63,20.63 67.06,19.42 67.48,17.90 67.90,16.27 68.32,13.72 68.75,11.76 69.17,9.96 69.59,8.56 70.02,8.08 70.44,7.98 70.86,9.15 71.29,11.64 71.71,13.81 72.13,14.63 72.56,14.52 72.98,13.79 73.40,11.29 73.83,8.76 74.25,4.00 74.67,48.97 75.10,52.09 75.52,55.15 75.94,56.00 76.37,55.28 76.79,53.15 77.21,51.88 77.63,51.01 78.06,50.61 78.48,49.74 78.90,49.16 79.33,48.55 79.75,48.60 80.17,48.53 80.60,49.96 81.02,50.60 81.44,50.56 81.87,49.91 82.29,48.26 82.71,46.91 83.14,44.54 83.56,41.76 83.98,38.58 84.41,35.96 84.83,33.61 85.25,30.76 85.68,28.57 86.10,26.65 86.52,26.57 86.94,25.79 87.37,26.41 87.79,25.43 88.21,24.93 88.64,24.94 89.06,25.28 89.48,23.42 89.91,22.94 90.33,22.73 90.75,22.08 91.18,21.64 91.60,20.81 92.02,20.85 92.45,21.14 92.87,21.87 93.29,22.12 93.72,22.02 94.14,20.91 94.56,19.75 94.99,19.10 95.41,18.68 95.83,19.77 96.26,20.30 96.68,21.01 97.10,21.58 97.52,21.37 97.95,21.39 98.37,21.68 98.79,22.63 99.22,23.72 99.64,24.62 100.06,24.76 100.49,23.91 100.91,24.17 101.33,23.36 101.76,22.07 102.18,21.48 102.60,47.47 103.03,51.85 103.45,55.75 103.87,55.85 104.30,54.44 104.72,53.65 105.14,52.19 105.57,51.53 105.99,49.57 106.41,49.59 106.83,49.80 107.26,46.70 107.68,47.44 108.10,48.57 108.53,49.49 108.95,48.74 109.37,50.64 109.80,49.68 110.22,48.59 110.64,47.41 111.07,44.31 111.49,40.63 111.91,38.75 112.34,34.89 112.76,34.01 113.18,31.60 113.61,28.26 114.03,26.39 114.45,24.49 114.88,26.12 115.30,26.65 115.72,26.07 116.14,25.76 116.57,25.93 116.99,26.26 117.41,25.10 117.84,23.17 118.26,23.28 118.68,23.86 119.11,21.87 119.53,21.16 119.95,20.12 120.38,21.15 120.80,23.12 121.22,22.45 121.65,21.70 122.07,20.92 122.49,20.75 122.92,19.31 123.34,19.86 123.76,20.38 124.19,20.61 124.61,20.86 125.03,21.53 125.46,21.53 125.88,20.47 126.30,21.15 126.72,22.03 127.15,22.72 127.57,22.58 127.99,23.52 128.42,23.41 128.84,23.89 129.26,22.29 129.69,22.92 130.11,22.92 130.53,24.57 130.96,23.70 131.38,25.23 131.80,23.75 132.23,24.75 132.65,24.44 133.07,22.64 133.50,22.79 133.92,21.71 134.34,21.04 134.77,20.48 135.19,20.48 135.61,22.35 136.03,23.81 136.46,20.79 136.88,23.12 137.30,23.78 137.73,21.71 138.15,19.78 138.57,18.53 139.00,17.66 139.42,19.93 139.84,19.40 140.27,18.51 140.69,20.42 141.11,18.54 141.54,18.93 141.96,19.81 142.38,19.06 142.81,22.43 143.23,22.65 143.65,22.11 144.08,24.99 144.50,21.74 144.92,21.56 145.34,22.82 145.77,21.18 146.19,18.93 146.61,18.95 147.04,18.67 147.46,18.67 147.88,20.50 148.31,19.05 148.73,20.40 149.15,20.02 149.58,18.63 150.00,20.14 150.42,22.17 150.85,22.17 151.27,24.34 151.69,23.21 152.12,23.90 152.54,22.55 152.96,24.24 153.39,26.08 153.81,26.08 154.23,25.09 154.66,27.11 155.08,26.83 155.50,26.53 155.92,26.13 156.35,25.55 156.77,25.28 157.19,25.51 157.62,25.44 158.04,26.19 158.46,24.69 158.89,26.91 159.31,27.93 159.73,29.06 160.16,26.67 160.58,26.34 161.00,24.39 161.43,25.33 161.85,24.25 162.27,23.56 162.70,23.15 163.12,22.78 163.54,22.33 163.97,24.16 164.39,23.17 164.81,22.52 165.23,22.60 165.66,22.64 166.08,24.21 166.50,24.21 166.93,23.64 167.35,22.40 167.77,22.71 168.20,21.77 168.62,21.14 169.04,22.20 169.47,21.70 169.89,20.94 170.31,21.90 170.74,20.89 171.16,19.97 171.58,21.22 172.01,20.59 172.43,20.84 172.85,20.84 173.28,19.69 173.70,19.85 174.12,18.62 174.54,17.47 174.97,17.84 175.39,16.82 175.81,17.66 176.24,17.18 176.66,16.81 177.08,16.52 177.51,16.62 177.93,19.02 178.35,19.95 178.78,19.61 179.20,18.99 179.62,19.09 180.05,18.73 180.47,18.59 180.89,18.65 181.32,18.83 181.74,19.15 182.16,19.73 182.59,19.98 183.01,19.58 183.43,17.07 183.86,14.31 184.28,14.31 184.70,14.01 185.12,13.51 185.55,12.66 185.97,12.10 186.39,12.20 186.82,12.66 187.24,13.40 187.66,13.67 188.09,13.35 188.51,15.36 188.93,17.23 189.36,18.47 189.78,19.74 190.20,21.09 190.63,21.42 191.05,20.83 191.47,20.01 191.90,17.72 192.32,17.77 192.74,15.05 193.17,13.98 193.59,11.10 194.01,10.21 194.43,8.94 194.86,8.31 195.28,9.01 195.70,8.25 196.13,10.63 196.55,12.92 196.97,14.20 197.40,14.39 197.82,13.31 198.24,11.08 198.67,8.29 199.09,4.98 199.51,42.69 199.94,54.71 200.36,54.71 200.78,54.71 201.21,54.37 201.63,52.51 202.05,52.51 202.48,52.51 202.90,47.95 203.32,47.95 203.74,47.95 204.17,47.21 204.59,47.21 205.01,47.21 205.44,48.31 205.86,48.31 206.28,48.31 206.71,48.31 207.13,46.31 207.55,46.31 207.98,46.31 208.40,36.53 208.82,36.53 209.25,36.53 209.67,36.53 210.09,29.80 210.52,29.80 210.94,23.06 211.36,23.06 211.79,23.06 212.21,23.55 212.63,23.55 213.06,23.55 213.48,25.75 213.90,25.75 214.32,25.75 214.75,23.78 215.17,23.78 215.59,27.23 216.02,27.23 216.44,27.23 216.86,22.27 217.29,22.27 217.71,28.20 218.13,28.20 218.56,25.19 218.98,25.19 219.40,25.19 219.83,19.62 220.25,19.62 220.67,19.62 221.10,20.69 221.52,20.69 221.94,20.69 222.37,20.69 222.79,22.13 223.21,22.13 223.63,22.13 224.06,23.37 224.48,23.37 224.90,23.37 225.33,23.97 225.75,23.97 226.17,23.97 226.60,21.28 227.02,21.28 227.44,28.07 227.87,28.07 228.29,25.41 228.71,25.41 229.14,25.41 229.56,26.98 229.98,26.98 230.41,26.98 230.83,22.42 231.25,22.42 231.68,22.42 232.10,22.42 232.52,24.19 232.94,24.19 233.37,24.19 233.79,31.79 234.21,31.79 234.64,25.26 235.06,25.26 235.48,25.26 235.91,20.86 236.33,20.86 236.75,20.86 237.18,17.63 237.60,22.17 238.02,22.17 238.45,22.17 238.87,26.52 239.29,26.52 239.72,26.52 240.14,27.71 240.56,27.71 240.99,27.71 241.41,27.71 241.83,27.56 242.26,27.56 242.68,27.56 243.10,21.39 243.52,21.39 243.95,21.39 244.37,21.39 244.79,23.28 245.22,23.28 245.64,23.28 246.06,28.51 246.49,23.96 246.91,23.96 247.33,23.96 247.76,23.96 248.18,28.58 248.60,28.58 249.03,28.58 249.45,25.25 249.87,25.25 250.30,32.71 250.72,32.71 251.14,30.39 251.57,30.39 251.99,30.39 252.41,28.95 252.83,28.95 253.26,28.95 253.68,27.69 254.10,27.69 254.53,27.69 254.95,25.84 255.37,25.84 255.80,25.84 256.22,25.84 256.64,25.84 257.07,27.07 257.49,27.07 257.91,27.07 258.34,30.57 258.76,30.57 259.18,29.10 259.61,29.10 260.03,29.10 260.45,27.17 260.88,27.17 261.30,27.17 261.72,24.99 262.14,24.99 262.57,24.99 262.99,23.88 263.41,23.88 263.84,23.88 264.26,23.88 264.68,25.93 265.11,25.93 265.53,25.93 265.95,23.60 266.38,23.60 266.80,23.60 267.22,21.67 267.65,21.67 268.07,21.67 268.49,23.39 268.92,23.39 269.34,23.39 269.76,23.39 270.19,20.74 270.61,20.74 271.03,20.74 271.46,17.41 271.88,21.04 272.30,21.04 272.72,19.01 273.15,19.01 273.57,19.01 273.99,18.18 274.42,18.18 274.84,18.18 275.26,18.91 275.69,18.91 276.11,18.91 276.53,21.00 276.96,19.40 277.38,19.40 277.80,19.40 278.23,20.14 278.65,20.14 279.07,20.14 279.50,18.14 279.92,18.14 280.34,12.15 280.77,10.78 281.19,10.78 281.61,10.78 282.03,10.78 282.46,10.97 282.88,10.97 283.30,10.97 283.73,14.15 284.15,14.15 284.57,14.15 285.00,14.70 285.42,19.73 285.84,19.73 286.27,21.23 286.69,21.23 287.11,21.23 287.54,19.26 287.96,19.26 288.38,19.26 288.81,15.55 289.23,15.55 289.65,11.93 290.08,11.93 290.50,11.93 290.92,12.75 291.34,9.54 291.77,9.54 292.19,9.54 292.61,5.89 293.04,10.20 293.46,10.20 293.88,10.20 294.31,10.65 294.73,10.65 295.15,10.65 295.58,6.89 296.00,6.89" />
</svg>