<svg width="300" height="60" xmlns="http://www.w3.org/2000/svg">
  <polyline fill="rgba(255,200,0,0.3)" stroke="#ffbb00" stroke-width="2" points="4.00,26.04 4.37,26.47 4.74,26.51 5.11,26.59 5.48,26.67 5.86,26.39 6.23,26.28 6.60,25.92 6.97,25.25 7.34,25.04 7.71,25.05 8.08,25.26 8.45,25.47 8.82,25.81 9.19,25.97 9.57,26.06 9.94,26.00 10.31,26.01 10.68,26.11 11.05,26.14 11.42,26.19 11.79,26.36 12.16,26.81 12.53,27.08 12.90,27.49 13.28,28.05 13.65,28.50 14.02,29.20 14.39,29.54 14.76,30.00 15.13,30.59 15.50,31.08 15.87,31.56 16.24,32.01 16.61,32.60 16.99,33.17 17.36,33.55 17.73,33.89 18.10,34.33 18.47,34.67 18.84,34.80 19.21,34.40 19.58,34.14 19.95,33.70 20.33,33.76 20.70,33.70 21.07,33.93 21.44,34.45 21.81,35.34 22.18,35.84 22.55,37.36 22.92,37.96 23.29,38.46 23.66,38.71 24.04,38.93 24.41,39.16 24.78,39.26 25.15,39.55 25.52,39.68 25.89,39.74 26.26,39.67 26.63,39.51 27.00,39.40 27.37,39.60 27.75,41.06 28.12,42.00 28.49,42.34 28.86,42.69 29.23,42.34 29.60,42.15 29.97,42.45 30.34,43.30 30.71,44.23 31.09,45.17 31.46,46.99 31.83,48.59 32.20,50.34 32.57,51.35 32.94,51.49 33.31,51.71 33.68,51.45 34.05,50.76 34.42,50.57 34.80,50.08 35.17,49.82 35.54,49.23 35.91,49.01 36.28,48.60 36.65,47.84 37.02,46.94 37.39,45.84 37.76,44.70 38.13,44.47 38.51,44.64 38.88,44.05 39.25,43.42 39.62,42.68 39.99,41.82 40.36,41.02 40.73,40.28 41.10,39.62 41.47,38.65 41.84,37.66 42.22,36.52 42.59,35.61 42.96,34.28 43.33,33.08 43.70,31.87 44.07,31.04 44.44,30.20 44.81,29.46 45.18,28.62 45.56,27.99 45.93,27.36 46.30,26.44 46.67,25.43 47.04,24.51 47.41,23.80 47.78,22.73 48.15,21.90 48.52,21.00 48.89,20.20 49.27,19.08 49.64,18.47 50.01,17.65 50.38,16.55 50.75,15.74 51.12,14.91 51.49,13.90 51.86,13.01 52.23,12.14 52.60,11.16 52.98,10.51 53.35,9.54 53.72,8.79 54.09,8.03 54.46,7.32 54.83,6.85 55.20,6.15 55.57,5.71 55.94,5.57 56.32,5.82 56.69,6.24 57.06,6.72 57.43,6.89 57.80,7.02 58.17,7.16 58.54,7.34 58.91,7.64 59.28,7.77 59.65,8.24 60.03,8.52 60.40,8.98 60.77,9.60 61.14,10.45 61.51,11.18 61.88,11.63 62.25,12.35 62.62,12.98 62.99,13.64 63.36,14.17 63.74,15.15 64.11,15.88 64.48,16.22 64.85,16.81 65.22,17.42 65.59,17.85 65.96,18.05 66.33,18.19 66.70,18.31 67.07,18.17 67.45,18.30 67.82,18.45 68.19,18.89 68.56,19.29 68.93,19.74 69.30,20.41 69.67,21.18 70.04,21.60 70.41,21.85 70.79,22.20 71.16,22.48 71.53,22.81 71.90,23.35 72.27,23.43 72.64,24.10 73.01,24.76 73.38,25.44 73.75,25.91 74.12,26.18 74.50,26.61 74.87,26.75 75.24,26.89 75.61,27.01 75.98,27.16 76.35,26.96 76.72,26.79 77.09,26.72 77.46,26.57 77.83,26.70 78.21,27.05 78.58,27.59 78.95,27.95 79.32,27.59 79.69,27.95 80.06,28.25 80.43,28.51 80.80,28.48 81.17,28.85 81.55,29.16 81.92,29.47 82.29,29.81 82.66,29.96 83.03,30.23 83.40,30.60 83.77,31.03 84.14,30.86 84.51,31.14 84.88,31.66 85.26,32.23 85.63,32.66 86.00,33.09 86.37,33.19 86.74,33.64 87.11,34.03 87.48,34.23 87.85,34.33 88.22,34.81 88.59,35.68 88.97,36.03 89.34,36.91 89.71,37.61 90.08,37.95 90.45,38.27 90.82,38.53 91.19,39.32 91.56,39.57 91.93,40.53 92.30,41.15 92.68,41.42 93.05,41.88 93.42,42.13 93.79,42.47 94.16,43.47 94.53,44.29 94.90,44.62 95.27,45.05 95.64,45.43 96.02,46.39 96.39,46.97 96.76,47.48 97.13,48.27 97.50,48.79 97.87,49.01 98.24,49.29 98.61,50.01 98.98,50.03 99.35,50.68 99.73,51.42 100.10,51.79 100.47,52.49 100.84,52.67 101.21,53.51 101.58,54.12 101.95,25.82 102.32,26.39 102.69,26.65 103.06,26.68 103.44,26.68 103.81,26.50 104.18,26.19 104.55,25.64 104.92,25.64 105.29,25.01 105.66,24.93 106.03,25.18 106.40,25.50 106.78,25.76 107.15,25.96 107.52,26.11 107.89,26.12 108.26,26.16 108.63,26.17 109.00,26.21 109.37,26.30 109.74,26.38 110.11,26.71 110.49,27.01 110.86,27.47 111.23,27.97 111.60,28.55 111.97,29.00 112.34,29.92 112.71,30.20 113.08,30.61 113.45,31.02 113.82,31.38 114.20,31.68 114.57,32.46 114.94,32.89 115.31,33.33 115.68,34.15 116.05,34.51 116.42,34.81 116.79,34.91 117.16,34.47 117.53,33.97 117.91,34.20 118.28,33.48 118.65,34.15 119.02,33.67 119.39,35.23 119.76,35.20 120.13,35.46 120.50,36.12 120.87,37.08 121.25,38.11 121.62,38.95 121.99,39.32 122.36,39.22 122.73,39.19 123.10,39.27 123.47,39.52 123.84,39.64 124.21,39.58 124.58,39.74 124.96,40.18 125.33,39.99 125.70,41.64 126.07,42.31 126.44,41.18 126.81,42.39 127.18,41.94 127.55,41.94 127.92,43.11 128.29,43.39 128.67,44.09 129.04,44.91 129.41,45.95 129.78,47.19 130.15,50.01 130.52,50.17 130.89,51.30 131.26,51.20 131.63,52.77 132.01,50.63 132.38,50.21 132.75,50.53 133.12,49.80 133.49,49.80 133.86,49.06 134.23,48.63 134.60,48.93 134.97,47.21 135.34,45.53 135.72,45.32 136.09,44.62 136.46,44.75 136.83,44.33 137.20,44.33 137.57,43.13 137.94,42.28 138.31,40.95 138.68,39.96 139.05,40.44 139.43,38.98 139.80,37.13 140.17,37.13 140.54,35.26 140.91,35.27 141.28,33.28 141.65,31.42 142.02,31.19 142.39,31.19 142.76,29.92 143.14,29.10 143.51,28.03 143.88,27.19 144.25,27.19 144.62,25.85 144.99,24.57 145.36,23.64 145.73,22.73 146.10,21.95 146.48,21.50 146.85,19.91 147.22,18.43 147.59,18.50 147.96,17.03 148.33,17.03 148.70,15.62 149.07,14.42 149.44,13.25 149.81,13.25 150.19,12.20 150.56,11.21 150.93,9.95 151.30,9.34 151.67,7.90 152.04,7.44 152.41,7.00 152.78,5.90 153.15,6.08 153.52,5.58 153.90,5.60 154.27,5.47 154.64,6.54 155.01,6.33 155.38,7.04 155.75,7.52 156.12,7.57 156.49,7.47 156.86,7.63 157.24,7.71 157.61,7.63 157.98,8.59 158.35,8.43 158.72,9.42 159.09,9.98 159.46,11.43 159.83,12.24 160.20,11.87 160.57,13.17 160.95,12.27 161.32,11.94 161.69,14.60 162.06,15.13 162.43,16.51 162.80,15.89 163.17,17.17 163.54,17.13 163.91,18.38 164.28,18.23 164.66,18.25 165.03,18.11 165.40,17.79 165.77,18.16 166.14,18.11 166.51,19.20 166.88,19.59 167.25,20.06 167.62,20.53 167.99,21.73 168.37,21.81 168.74,21.81 169.11,21.92 169.48,22.63 169.85,23.05 170.22,23.42 170.59,23.86 170.96,23.98 171.33,24.81 171.71,25.27 172.08,26.03 172.45,26.59 172.82,26.99 173.19,26.98 173.56,27.17 173.93,27.92 174.30,27.09 174.67,26.75 175.04,26.62 175.42,26.62 175.79,26.80 176.16,26.77 176.53,27.79 176.90,27.90 177.27,27.94 177.64,29.20 178.01,29.15 178.38,29.48 178.75,28.94 179.13,29.85 179.50,30.79 179.87,30.03 180.24,30.73 180.61,30.73 180.98,30.32 181.35,30.89 181.72,30.11 182.09,30.89 182.47,31.53 182.84,32.88 183.21,33.13 183.58,33.27 183.95,33.58 184.32,33.93 184.69,34.26 185.06,34.29 185.43,33.68 185.80,34.85 186.18,35.47 186.55,36.72 186.92,36.62 187.29,38.21 187.66,38.46 188.03,38.83 188.40,39.40 188.77,39.56 189.14,40.96 189.51,39.98 189.89,41.10 190.26,41.94 190.63,41.12 191.00,42.49 191.37,43.53 191.74,42.03 192.11,42.56 192.48,44.28 192.85,45.46 193.22,45.28 193.60,46.86 193.97,46.97 194.34,48.36 194.71,48.35 195.08,48.35 195.45,49.39 195.82,50.51 196.19,49.56 196.56,50.20 196.94,51.09 197.31,51.78 197.68,52.48 198.05,52.17 198.42,53.80 198.79,54.17 199.16,27.73 199.53,27.73 199.90,27.73 200.27,26.90 200.65,26.90 201.02,26.90 201.39,26.90 201.76,25.41 202.13,25.41 202.50,25.41 202.87,25.41 203.24,25.42 203.61,27.16 203.98,27.16 204.36,27.23 204.73,27.23 205.10,27.19 205.47,27.19 205.84,27.19 206.21,27.93 206.58,26.80 206.95,26.80 207.32,27.22 207.70,27.22 208.07,27.22 208.44,29.69 208.81,28.47 209.18,28.47 209.55,29.85 209.92,29.85 210.29,31.34 210.66,31.34 211.03,31.34 211.41,32.53 211.78,32.53 212.15,33.66 212.52,33.66 212.89,33.66 213.26,35.03 213.63,35.03 214.00,35.26 214.37,35.26 214.74,35.26 215.12,33.91 215.49,33.91 215.86,35.71 216.23,34.17 216.60,34.17 216.97,34.17 217.34,34.29 217.71,34.29 218.08,34.29 218.45,36.16 218.83,36.16 219.20,37.48 219.57,37.48 219.94,37.48 220.31,38.37 220.68,38.37 221.05,38.37 221.42,40.34 221.79,40.34 222.17,42.56 222.54,39.68 222.91,39.68 223.28,44.08 223.65,44.08 224.02,41.61 224.39,41.61 224.76,41.61 225.13,41.61 225.50,42.72 225.88,42.72 226.25,42.72 226.62,44.93 226.99,44.93 227.36,47.91 227.73,50.00 228.10,50.00 228.47,50.00 228.84,56.00 229.21,51.61 229.59,51.61 229.96,51.61 230.33,50.17 230.70,50.17 231.07,50.17 231.44,50.17 231.81,52.51 232.18,47.67 232.55,47.67 232.93,47.67 233.30,49.68 233.67,46.50 234.04,46.50 234.41,46.50 234.78,46.50 235.15,42.71 235.52,42.71 235.89,42.71 236.26,42.71 236.64,39.16 237.01,39.16 237.38,39.16 237.75,39.16 238.12,40.48 238.49,33.33 238.86,33.33 239.23,32.77 239.60,32.77 239.97,32.77 240.35,32.77 240.72,30.43 241.09,30.43 241.46,30.43 241.83,30.43 242.20,26.06 242.57,26.06 242.94,26.06 243.31,23.53 243.68,23.53 244.06,23.53 244.43,18.32 244.80,18.32 245.17,18.32 245.54,18.32 245.91,18.26 246.28,13.99 246.65,13.99 247.02,13.99 247.40,14.67 247.77,10.64 248.14,10.64 248.51,10.64 248.88,6.45 249.25,8.62 249.62,8.62 249.99,5.03 250.36,5.03 250.73,5.03 251.11,4.00 251.48,4.00 251.85,4.00 252.22,6.15 252.59,6.15 252.96,6.15 253.33,7.56 253.70,7.56 254.07,7.55 254.44,7.55 254.82,7.55 255.19,7.35 255.56,7.35 255.93,7.35 256.30,7.61 256.67,7.61 257.04,9.50 257.41,9.50 257.78,9.50 258.16,9.50 258.53,8.85 258.90,8.85 259.27,11.43 259.64,16.47 260.01,16.47 260.38,15.92 260.75,15.92 261.12,15.92 261.49,17.02 261.87,18.60 262.24,18.60 262.61,18.60 262.98,18.86 263.35,18.39 263.72,18.39 264.09,18.39 264.46,19.12 264.83,19.12 265.20,19.12 265.58,20.29 265.95,20.29 266.32,20.29 266.69,22.84 267.06,23.19 267.43,23.19 267.80,23.19 268.17,23.70 268.54,23.70 268.91,23.70 269.29,26.10 269.66,26.10 270.03,26.10 270.40,27.26 270.77,29.43 271.14,29.43 271.51,29.43 271.88,26.98 272.25,29.94 272.63,29.94 273.00,29.94 273.37,28.09 273.74,28.09 274.11,28.09 274.48,27.87 274.85,33.39 275.22,33.39 275.59,34.46 275.96,28.38 276.34,28.38 276.71,30.99 277.08,30.99 277.45,30.99 277.82,30.99 278.19,33.41 278.56,33.41 278.93,28.60 279.30,30.83 279.67,30.83 280.05,35.16 280.42,34.89 280.79,34.89 281.16,34.89 281.53,33.86 281.90,33.86 282.27,33.86 282.64,33.86 283.01,34.99 283.39,34.36 283.76,34.36 284.13,35.65 284.50,35.65 284.87,35.65 285.24,36.72 285.61,36.72 285.98,36.72 286.35,39.72 286.72,39.72 287.10,39.72 287.47,39.72 287.84,38.41 288.21,38.41 288.58,38.41 288.95,38.41 289.32,38.55 289.69,38.55 290.06,38.55 290.43,43.26 290.81,43.26 291.18,43.26 291.55,48.13 291.92,42.87 292.29,42.87 292.66,42.87 293.03,46.69 293.40,46.69 293.77,46.69 294.14,49.31 294.52,49.31 294.89,49.31 295.26,52.49 295.63,52.49 296.00,47.97" />
</svg>