<svg width="300" height="60" xmlns="http://www.w3.org/2000/svg">
  <polyline fill="rgba(255,200,0,0.3)" stroke="#ffbb00" stroke-width="2" points="4.00,56.00 4.69,54.75 5.38,54.28 6.07,53.65 6.76,52.86 7.45,52.72 8.14,52.43 8.83,51.87 9.52,52.02 10.21,51.92 10.90,51.83 11.59,51.22 12.28,51.20 12.97,50.98 13.66,50.94 14.35,50.40 15.04,49.59 15.74,49.11 16.43,48.68 17.12,48.25 17.81,47.94 18.50,47.63 19.19,47.45 19.88,47.23 20.57,46.58 21.26,45.74 21.95,44.22 22.64,43.43 23.33,44.07 24.02,44.16 24.71,43.97 25.40,43.88 26.09,43.63 26.78,43.29 27.47,43.40 28.16,43.39 28.85,42.38 29.54,41.44 30.23,40.89 30.92,40.33 31.61,40.46 32.30,41.17 32.99,41.15 33.68,40.56 34.37,39.91 35.06,40.11 35.75,40.49 36.44,40.33 37.13,39.78 37.83,39.30 38.52,38.60 39.21,37.78 39.90,37.04 40.59,36.41 41.28,35.75 41.97,34.99 42.66,34.18 43.35,33.12 44.04,32.16 44.73,30.71 45.42,29.46 46.11,28.71 46.80,28.61 47.49,29.37 48.18,29.61 48.87,29.67 49.56,29.45 50.25,29.32 50.94,29.03 51.63,28.57 52.32,28.14 53.01,27.75 53.70,27.32 54.39,26.56 55.08,25.57 55.77,24.47 56.46,23.22 57.15,22.32 57.84,21.98 58.53,21.65 59.22,21.24 59.91,20.61 60.61,19.98 61.30,19.22 61.99,18.53 62.68,18.07 63.37,17.61 64.06,17.06 64.75,16.37 65.44,15.88 66.13,15.46 66.82,15.19 67.51,14.90 68.20,14.44 68.89,14.02 69.58,13.40 70.27,13.12 70.96,13.33 71.65,13.07 72.34,11.75 73.03,10.69 73.72,9.83 74.41,9.44 75.10,9.39 75.79,8.14 76.48,7.65 77.17,55.65 77.86,54.26 78.55,54.07 79.24,53.82 79.93,52.87 80.62,52.36 81.31,52.24 82.00,51.95 82.70,51.70 83.39,51.99 84.08,51.75 84.77,51.31 85.46,51.11 86.15,50.77 86.84,50.85 87.53,50.26 88.22,49.34 88.91,49.18 89.60,48.36 90.29,48.36 90.98,47.75 91.67,47.50 92.36,47.38 93.05,47.19 93.74,46.46 94.43,45.78 95.12,44.53 95.81,43.37 96.50,43.96 97.19,43.95 97.88,44.07 98.57,43.89 99.26,43.77 99.95,43.42 100.64,43.11 101.33,42.86 102.02,42.29 102.71,41.43 103.40,41.36 104.09,40.52 104.78,40.18 105.48,41.12 106.17,40.96 106.86,40.18 107.55,39.80 108.24,40.63 108.93,40.37 109.62,40.21 110.31,39.84 111.00,39.08 111.69,38.22 112.38,37.67 113.07,37.07 113.76,36.39 114.45,35.57 115.14,35.01 115.83,34.02 116.52,32.90 117.21,32.08 117.90,30.78 118.59,29.34 119.28,28.60 119.97,28.52 120.66,29.42 121.35,29.58 122.04,29.49 122.73,29.42 123.42,29.35 124.11,28.91 124.80,28.73 125.49,28.31 126.18,27.86 126.87,27.52 127.57,26.12 128.26,25.47 128.95,24.35 129.64,23.27 130.33,22.29 131.02,21.81 131.71,21.43 132.40,21.15 133.09,20.49 133.78,19.66 134.47,19.11 135.16,18.66 135.85,17.94 136.54,17.31 137.23,17.07 137.92,16.28 138.61,15.88 139.30,15.28 139.99,15.10 140.68,14.70 141.37,14.36 142.06,13.65 142.75,13.26 143.44,12.82 144.13,12.99 144.82,13.04 145.51,11.66 146.20,10.57 146.89,9.77 147.58,9.62 148.27,9.77 148.96,8.62 149.65,7.32 150.35,54.72 151.04,53.67 151.73,54.25 152.42,54.25 153.11,53.03 153.80,53.53 154.49,52.64 155.18,51.49 155.87,52.37 156.56,51.77 157.25,51.96 157.94,51.21 158.63,51.20 159.32,50.77 160.01,51.30 160.70,50.59 161.39,50.03 162.08,48.99 162.77,48.77 163.46,47.89 164.15,47.87 164.84,47.32 165.53,47.73 166.22,47.17 166.91,46.72 167.60,46.08 168.29,44.30 168.98,43.46 169.67,44.04 170.36,44.83 171.05,43.71 171.74,44.34 172.43,43.78 173.13,43.42 173.82,42.37 174.51,42.57 175.20,42.58 175.89,41.30 176.58,40.27 177.27,39.49 177.96,39.09 178.65,39.25 179.34,39.87 180.03,41.09 180.72,38.99 181.41,39.61 182.10,39.95 182.79,39.88 183.48,39.45 184.17,38.82 184.86,38.03 185.55,37.28 186.24,36.47 186.93,36.21 187.62,35.64 188.31,34.97 189.00,34.20 189.69,33.34 190.38,31.27 191.07,30.31 191.76,29.70 192.45,28.91 193.14,28.68 193.83,29.22 194.52,29.90 195.22,29.59 195.91,30.01 196.60,29.57 197.29,29.24 197.98,29.03 198.67,28.55 199.36,27.85 200.05,27.94 200.74,26.21 201.43,26.00 202.12,24.22 202.81,23.53 203.50,22.33 204.19,21.72 204.88,21.72 205.57,21.29 206.26,20.37 206.95,20.04 207.64,19.02 208.33,18.79 209.02,17.84 209.71,16.93 210.40,17.56 211.09,16.99 211.78,15.84 212.47,15.45 213.16,15.31 213.85,14.31 214.54,15.29 215.23,14.04 215.92,13.71 216.61,13.54 217.30,12.68 218.00,13.40 218.69,12.18 219.38,11.34 220.07,10.01 220.76,10.24 221.45,8.34 222.14,8.39 222.83,6.38 223.52,54.42 224.21,51.42 224.90,54.43 225.59,54.43 226.28,54.43 226.97,52.52 227.66,52.52 228.35,52.52 229.04,50.85 229.73,50.85 230.42,51.44 231.11,50.91 231.80,50.91 232.49,50.91 233.18,50.91 233.87,48.18 234.56,49.45 235.25,49.45 235.94,47.66 236.63,47.66 237.32,47.66 238.01,45.49 238.70,46.60 239.39,46.60 240.09,46.60 240.78,44.52 241.47,44.52 242.16,42.28 242.85,42.28 243.54,45.49 244.23,45.49 244.92,45.49 245.61,42.24 246.30,44.71 246.99,44.71 247.68,41.12 248.37,41.12 249.06,41.12 249.75,37.14 250.44,37.14 251.13,37.14 251.82,34.56 252.51,34.56 253.20,35.12 253.89,35.12 254.58,35.12 255.27,36.49 255.96,36.49 256.65,36.49 257.34,36.15 258.03,36.15 258.72,33.77 259.41,33.77 260.10,36.29 260.79,34.92 261.48,34.92 262.17,34.92 262.87,32.83 263.56,32.83 264.25,30.50 264.94,30.50 265.63,29.81 266.32,29.81 267.01,29.81 267.70,32.04 268.39,32.04 269.08,32.04 269.77,30.15 270.46,30.15 271.15,30.15 271.84,28.73 272.53,28.73 273.22,28.57 273.91,26.60 274.60,26.60 275.29,23.13 275.98,23.13 276.67,23.13 277.36,21.17 278.05,21.17 278.74,21.17 279.43,21.17 280.12,18.43 280.81,18.43 281.50,20.83 282.19,17.22 282.88,17.22 283.57,17.22 284.26,17.22 284.96,14.74 285.65,16.36 286.34,16.36 287.03,13.85 287.72,13.85 288.41,13.85 289.10,16.23 289.79,13.16 290.48,13.16 291.17,13.16 291.86,13.16 292.55,8.77 293.24,8.77 293.93,8.77 294.62,9.45 295.31,9.45 296.00,4.00" />
</svg>