<svg width="300" height="60" xmlns="http://www.w3.org/2000/svg">
  <polyline fill="rgba(255,200,0,0.3)" stroke="#ffbb00" stroke-width="2" points="4.00,50.26 4.32,49.98 4.63,49.95 4.95,49.44 5.27,49.21 5.58,48.86 5.90,48.30 6.21,47.68 6.53,47.20 6.85,46.88 7.16,46.33 7.48,45.86 7.80,45.24 8.11,44.25 8.43,43.65 8.75,44.15 9.06,44.63 9.38,45.44 9.69,46.50 10.01,47.63 10.33,48.17 10.64,48.79 10.96,49.12 11.28,50.45 11.59,51.64 11.91,53.05 12.23,54.31 12.54,55.00 12.86,54.45 13.17,53.24 13.49,52.23 13.81,51.62 14.12,51.59 14.44,51.34 14.76,51.77 15.07,52.53 15.39,52.52 15.71,51.44 16.02,51.25 16.34,51.97 16.65,52.40 16.97,52.66 17.29,51.93 17.60,51.37 17.92,50.76 18.24,50.46 18.55,50.01 18.87,48.27 19.19,46.66 19.50,45.12 19.82,44.03 20.13,42.68 20.45,41.06 20.77,39.60 21.08,38.45 21.40,37.64 21.72,37.69 22.03,37.19 22.35,36.30 22.67,35.78 22.98,35.66 23.30,36.34 23.61,37.56 23.93,38.39 24.25,38.83 24.56,38.77 24.88,37.88 25.20,37.42 25.51,36.83 25.83,36.32 26.15,35.68 26.46,34.82 26.78,34.67 27.09,34.62 27.41,34.60 27.73,34.52 28.04,34.03 28.36,34.00 28.68,34.49 28.99,34.59 29.31,34.42 29.63,33.75 29.94,33.93 30.26,33.79 30.57,33.64 30.89,33.47 31.21,32.51 31.52,32.25 31.84,32.12 32.16,31.89 32.47,31.79 32.79,31.14 33.11,29.78 33.42,29.16 33.74,29.77 34.05,29.99 34.37,27.60 34.69,25.36 35.00,23.42 35.32,22.47 35.64,22.23 35.95,22.67 36.27,24.50 36.59,26.73 36.90,28.86 37.22,29.74 37.53,28.79 37.85,27.89 38.17,27.98 38.48,29.61 38.80,30.47 39.12,31.13 39.43,30.16 39.75,29.38 40.07,29.04 40.38,29.40 40.70,29.95 41.01,30.26 41.33,29.70 41.65,29.40 41.96,29.31 42.28,29.39 42.60,29.44 42.91,29.97 43.23,30.36 43.54,30.75 43.86,30.62 44.18,30.12 44.49,30.22 44.81,30.09 45.13,29.26 45.44,28.58 45.76,28.28 46.08,28.42 46.39,27.80 46.71,27.19 47.02,27.68 47.34,28.61 47.66,28.76 47.97,28.49 48.29,28.40 48.61,27.49 48.92,26.84 49.24,26.09 49.56,25.45 49.87,25.14 50.19,24.66 50.50,24.38 50.82,24.28 51.14,24.34 51.45,24.05 51.77,23.63 52.09,23.39 52.40,23.51 52.72,23.41 53.04,22.61 53.35,21.99 53.67,21.75 53.98,22.42 54.30,21.95 54.62,21.62 54.93,22.37 55.25,22.79 55.57,20.92 55.88,20.56 56.20,20.05 56.52,19.49 56.83,19.38 57.15,19.56 57.46,19.03 57.78,18.67 58.10,18.88 58.41,18.50 58.73,18.16 59.05,17.75 59.36,16.52 59.68,16.11 60.00,16.00 60.31,15.92 60.63,16.41 60.94,16.38 61.26,16.34 61.58,16.07 61.89,15.62 62.21,14.81 62.53,14.41 62.84,14.07 63.16,13.64 63.48,13.27 63.79,12.68 64.11,12.43 64.42,12.13 64.74,12.11 65.06,11.80 65.37,11.99 65.69,13.70 66.01,13.05 66.32,12.39 66.64,11.63 66.96,11.03 67.27,10.96 67.59,10.01 67.90,8.86 68.22,8.23 68.54,8.23 68.85,8.79 69.17,8.41 69.49,8.04 69.80,7.82 70.12,7.50 70.44,7.76 70.75,7.21 71.07,6.48 71.38,6.59 71.70,7.28 72.02,7.15 72.33,7.00 72.65,6.74 72.97,6.43 73.28,7.50 73.60,7.91 73.92,7.03 74.23,6.38 74.55,6.16 74.86,5.65 75.18,5.36 75.50,5.35 75.81,5.40 76.13,5.20 76.45,4.63 76.76,4.33 77.08,50.24 77.40,49.95 77.71,49.95 78.03,49.39 78.34,49.28 78.66,48.85 78.98,48.38 79.29,47.67 79.61,47.16 79.93,46.88 80.24,46.35 80.56,45.84 80.88,45.24 81.19,44.02 81.51,43.63 81.82,44.14 82.14,44.57 82.46,45.34 82.77,46.69 83.09,47.62 83.41,48.07 83.72,48.72 84.04,49.29 84.36,50.44 84.67,51.80 84.99,53.03 85.30,54.22 85.62,54.96 85.94,54.49 86.25,53.21 86.57,52.31 86.89,51.64 87.20,51.46 87.52,51.33 87.84,51.70 88.15,52.40 88.47,52.51 88.78,51.51 89.10,51.27 89.42,51.89 89.73,52.43 90.05,52.64 90.37,52.01 90.68,51.37 91.00,50.86 91.32,50.31 91.63,49.99 91.95,48.34 92.26,46.67 92.58,45.24 92.90,44.05 93.21,42.59 93.53,41.06 93.85,39.54 94.16,38.32 94.48,37.64 94.80,37.71 95.11,37.32 95.43,36.24 95.74,35.91 96.06,35.69 96.38,36.37 96.69,37.54 97.01,38.33 97.33,38.76 97.64,38.64 97.96,37.88 98.28,37.37 98.59,36.82 98.91,36.35 99.22,35.64 99.54,35.02 99.86,34.49 100.17,34.94 100.49,34.53 100.81,34.42 101.12,34.14 101.44,33.79 101.76,34.51 102.07,34.63 102.39,34.39 102.70,33.88 103.02,33.92 103.34,33.81 103.65,33.66 103.97,33.50 104.29,32.50 104.60,32.24 104.92,32.11 105.24,31.86 105.55,31.74 105.87,31.15 106.18,29.98 106.50,29.15 106.82,29.96 107.13,29.97 107.45,27.45 107.77,25.49 108.08,23.60 108.40,22.37 108.72,22.23 109.03,22.76 109.35,24.55 109.66,26.78 109.98,28.86 110.30,29.71 110.61,28.80 110.93,27.83 111.25,28.16 111.56,29.61 111.88,30.66 112.20,31.19 112.51,30.14 112.83,29.35 113.14,29.07 113.46,29.30 113.78,29.97 114.09,30.28 114.41,29.65 114.73,29.41 115.04,29.31 115.36,29.38 115.67,29.44 115.99,29.98 116.31,30.39 116.62,30.74 116.94,30.48 117.26,30.12 117.57,30.20 117.89,30.11 118.21,29.22 118.52,28.63 118.84,28.23 119.15,28.32 119.47,27.77 119.79,27.06 120.10,27.65 120.42,28.54 120.74,28.80 121.05,28.69 121.37,28.35 121.69,27.29 122.00,26.78 122.32,26.02 122.63,25.51 122.95,25.13 123.27,24.61 123.58,24.37 123.90,24.30 124.22,24.36 124.53,23.94 124.85,23.61 125.17,23.31 125.48,23.44 125.80,23.31 126.11,22.65 126.43,21.99 126.75,21.79 127.06,22.31 127.38,22.10 127.70,21.54 128.01,22.03 128.33,22.77 128.65,20.91 128.96,20.59 129.28,20.07 129.59,19.51 129.91,19.36 130.23,19.49 130.54,19.09 130.86,18.69 131.18,19.02 131.49,18.51 131.81,18.18 132.13,17.71 132.44,16.56 132.76,16.07 133.07,16.07 133.39,15.93 133.71,16.26 134.02,16.38 134.34,16.31 134.66,16.04 134.97,15.63 135.29,14.85 135.61,14.36 135.92,13.87 136.24,13.65 136.55,13.16 136.87,12.71 137.19,12.39 137.50,12.15 137.82,12.09 138.14,11.71 138.45,11.92 138.77,13.65 139.09,13.00 139.40,12.16 139.72,11.68 140.03,10.98 140.35,11.17 140.67,10.04 140.98,8.89 141.30,8.18 141.62,8.32 141.93,8.85 142.25,8.47 142.57,8.21 142.88,7.85 143.20,7.56 143.51,7.86 143.83,7.25 144.15,6.57 144.46,6.58 144.78,7.29 145.10,7.14 145.41,7.00 145.73,6.71 146.05,6.44 146.36,7.54 146.68,7.83 146.99,6.91 147.31,6.43 147.63,6.15 147.94,5.64 148.26,5.36 148.58,5.37 148.89,5.40 149.21,5.23 149.53,4.64 149.84,4.33 150.16,50.45 150.47,50.40 150.79,49.42 151.11,49.70 151.42,49.60 151.74,49.35 152.06,48.86 152.37,48.07 152.69,47.51 153.01,47.43 153.32,47.32 153.64,45.59 153.95,45.58 154.27,44.74 154.59,44.11 154.90,44.01 155.22,45.14 155.54,46.45 155.85,46.64 156.17,48.33 156.49,48.82 156.80,47.74 157.12,48.98 157.43,51.12 157.75,51.02 158.07,53.10 158.38,54.57 158.70,55.34 159.02,53.67 159.33,54.09 159.65,53.09 159.97,52.23 160.28,51.56 160.60,51.03 160.91,52.70 161.23,52.82 161.55,52.49 161.86,51.80 162.18,51.35 162.50,51.51 162.81,52.38 163.13,52.36 163.45,51.89 163.76,51.39 164.08,50.89 164.39,50.49 164.71,49.43 165.03,48.17 165.34,46.97 165.66,46.03 165.98,45.30 166.29,42.31 166.61,40.49 166.93,39.51 167.24,38.83 167.56,38.56 167.87,38.68 168.19,36.23 168.51,36.31 168.82,36.85 169.14,35.12 169.46,36.31 169.77,37.72 170.09,37.55 170.41,38.92 170.72,39.94 171.04,38.13 171.35,36.09 171.67,37.03 171.99,35.71 172.30,36.42 172.62,35.02 172.94,34.12 173.25,35.48 173.57,33.29 173.89,34.76 174.20,33.92 174.52,32.95 174.83,35.53 175.15,34.26 175.47,33.20 175.78,32.77 176.10,33.13 176.42,33.13 176.73,33.29 177.05,34.06 177.37,32.22 177.68,31.80 178.00,30.64 178.31,32.16 178.63,31.34 178.95,29.61 179.26,29.58 179.58,29.58 179.90,30.26 180.21,29.85 180.53,28.76 180.85,25.16 181.16,23.58 181.48,22.69 181.79,22.61 182.11,22.30 182.43,24.30 182.74,26.53 183.06,28.89 183.38,29.01 183.69,27.43 184.01,28.83 184.33,28.01 184.64,28.37 184.96,29.44 185.27,31.46 185.59,31.18 185.91,29.79 186.22,28.96 186.54,29.06 186.86,30.21 187.17,29.91 187.49,29.75 187.80,29.75 188.12,29.27 188.44,29.41 188.75,29.49 189.07,30.26 189.39,30.51 189.70,31.39 190.02,30.42 190.34,30.42 190.65,30.38 190.97,30.69 191.28,28.95 191.60,28.62 191.92,28.60 192.23,28.77 192.55,28.68 192.87,28.28 193.18,28.05 193.50,28.54 193.82,29.51 194.13,27.90 194.45,28.10 194.76,26.81 195.08,25.65 195.40,26.19 195.71,24.93 196.03,23.97 196.35,23.97 196.66,25.20 196.98,24.60 197.30,25.21 197.61,24.05 197.93,23.59 198.24,23.48 198.56,23.48 198.88,23.42 199.19,23.12 199.51,21.86 199.83,22.60 200.14,22.62 200.46,22.73 200.78,22.85 201.09,20.67 201.41,21.36 201.72,21.63 202.04,20.78 202.36,19.44 202.67,20.24 202.99,18.82 203.31,19.28 203.62,18.47 203.94,17.92 204.26,18.95 204.57,18.97 204.89,17.98 205.20,17.00 205.52,17.21 205.84,17.08 206.15,15.67 206.47,16.17 206.79,16.85 207.10,16.07 207.42,16.71 207.74,15.84 208.05,16.12 208.37,15.33 208.68,14.12 209.00,13.79 209.32,13.66 209.63,13.64 209.95,12.16 210.27,12.46 210.58,12.82 210.90,12.01 211.22,12.19 211.53,11.11 211.85,13.31 212.16,13.18 212.48,12.53 212.80,11.28 213.11,11.94 213.43,10.73 213.75,9.90 214.06,9.21 214.38,9.02 214.70,9.27 215.01,9.27 215.33,9.16 215.64,8.36 215.96,7.62 216.28,8.06 216.59,8.06 216.91,7.95 217.23,7.26 217.54,6.52 217.86,7.32 218.18,6.77 218.49,7.27 218.81,6.40 219.12,7.18 219.44,6.56 219.76,8.17 220.07,6.64 220.39,6.35 220.71,6.02 221.02,5.62 221.34,5.57 221.66,6.05 221.97,5.84 222.29,5.68 222.60,4.00 222.92,4.37 223.24,53.03 223.55,50.65 223.87,50.65 224.19,50.65 224.50,50.32 224.82,50.32 225.14,50.32 225.45,49.38 225.77,49.38 226.08,49.38 226.40,49.20 226.72,49.20 227.03,49.20 227.35,47.65 227.67,47.65 227.98,47.65 228.30,47.68 228.62,47.68 228.93,46.78 229.25,46.78 229.56,46.78 229.88,46.78 230.20,49.21 230.51,49.21 230.83,49.21 231.15,49.21 231.46,53.90 231.78,53.90 232.10,53.90 232.41,53.97 232.73,53.97 233.04,53.97 233.36,51.60 233.68,51.60 233.99,56.00 234.31,56.00 234.63,56.00 234.94,54.90 235.26,54.90 235.58,54.90 235.89,55.26 236.21,55.26 236.52,54.84 236.84,54.84 237.16,54.84 237.47,54.01 237.79,54.01 238.11,51.87 238.42,51.87 238.74,51.87 239.06,49.37 239.37,43.21 239.69,40.48 240.00,40.48 240.32,40.48 240.64,38.81 240.95,38.81 241.27,38.81 241.59,39.16 241.90,39.16 242.22,40.23 242.54,40.23 242.85,40.23 243.17,37.24 243.48,37.24 243.80,37.24 244.12,40.44 244.43,40.44 244.75,40.44 245.07,35.49 245.38,35.49 245.70,35.49 246.02,38.31 246.33,38.31 246.65,31.84 246.96,31.84 247.28,35.96 247.60,35.96 247.91,35.96 248.23,37.85 248.55,33.85 248.86,33.85 249.18,33.85 249.50,33.85 249.81,32.63 250.13,32.63 250.44,32.63 250.76,28.84 251.08,28.84 251.39,33.87 251.71,30.76 252.03,30.76 252.34,30.76 252.66,30.76 252.98,26.55 253.29,26.55 253.61,26.55 253.92,23.14 254.24,23.14 254.56,23.14 254.87,21.86 255.19,21.86 255.51,21.86 255.82,26.00 256.14,26.00 256.46,26.00 256.77,26.08 257.09,26.08 257.40,26.08 257.72,26.08 258.04,25.65 258.35,30.62 258.67,30.62 258.99,29.86 259.30,29.86 259.62,29.86 259.93,28.96 260.25,28.96 260.57,28.96 260.88,28.96 261.20,29.53 261.52,29.53 261.83,29.53 262.15,29.43 262.47,29.43 262.78,29.43 263.10,28.65 263.41,28.65 263.73,30.73 264.05,30.73 264.36,30.73 264.68,32.23 265.00,32.23 265.31,32.23 265.63,32.15 265.95,32.15 266.26,31.76 266.58,31.76 266.89,31.76 267.21,26.58 267.53,29.67 267.84,29.67 268.16,25.62 268.48,25.62 268.79,25.62 269.11,22.07 269.43,22.07 269.74,22.07 270.06,22.07 270.37,25.03 270.69,25.03 271.01,25.03 271.32,20.65 271.64,20.65 271.96,24.63 272.27,24.63 272.59,20.49 272.91,20.49 273.22,20.49 273.54,18.56 273.85,18.56 274.17,18.56 274.49,18.56 274.80,19.33 275.12,21.70 275.44,21.70 275.75,21.70 276.07,17.37 276.39,19.79 276.70,19.79 277.02,17.48 277.33,17.48 277.65,17.48 277.97,17.50 278.28,18.56 278.60,18.56 278.92,18.56 279.23,19.36 279.55,19.36 279.87,19.36 280.18,16.24 280.50,20.12 280.81,20.12 281.13,17.66 281.45,17.66 281.76,16.10 282.08,16.10 282.40,16.10 282.71,15.32 283.03,15.32 283.35,15.32 283.66,15.31 283.98,11.55 284.29,11.55 284.61,12.59 284.93,12.59 285.24,12.59 285.56,13.03 285.88,10.64 286.19,10.64 286.51,10.64 286.83,9.31 287.14,9.66 287.46,9.66 287.77,9.66 288.09,9.66 288.41,12.13 288.72,12.13 289.04,9.95 289.36,9.95 289.67,9.95 289.99,7.55 290.31,7.30 290.62,7.30 290.94,7.90 291.25,7.90 291.57,7.90 291.89,6.75 292.20,6.75 292.52,6.75 292.84,6.75 293.15,4.04 293.47,6.01 293.79,6.01 294.10,6.01 294.42,7.92 294.73,7.92 295.05,7.92 295.37,6.92 295.68,6.92 296.00,6.86" />
</svg>