<svg width="300" height="60" xmlns="http://www.w3.org/2000/svg">
  <polyline fill="rgba(255,200,0,0.3)" stroke="#ffbb00" stroke-width="2" points="4.00,33.24 4.36,32.89 4.71,32.19 5.07,31.71 5.43,31.27 5.78,31.07 6.14,30.76 6.50,30.46 6.85,30.21 7.21,30.13 7.57,29.95 7.92,29.80 8.28,29.62 8.63,29.43 8.99,29.54 9.35,29.81 9.70,29.66 10.06,29.39 10.42,29.12 10.77,29.08 11.13,29.05 11.49,29.32 11.84,29.29 12.20,29.15 12.56,29.22 12.91,28.34 13.27,27.86 13.63,27.83 13.98,28.32 14.34,29.36 14.70,29.84 15.05,29.18 15.41,29.51 15.77,29.89 16.12,28.63 16.48,27.36 16.84,27.54 17.19,28.71 17.55,29.26 17.90,29.53 18.26,29.84 18.62,30.02 18.97,29.20 19.33,28.22 19.69,27.69 20.04,27.86 20.40,27.54 20.76,27.38 21.11,25.76 21.47,25.13 21.83,23.61 22.18,22.98 22.54,22.82 22.90,22.65 23.25,23.07 23.61,22.64 23.97,20.57 24.32,19.30 24.68,18.66 25.04,18.09 25.39,17.94 25.75,17.77 26.11,17.33 26.46,17.70 26.82,17.17 27.17,17.00 27.53,17.58 27.89,18.58 28.24,21.02 28.60,22.85 28.96,24.01 29.31,22.70 29.67,20.72 30.03,17.72 30.38,13.51 30.74,12.60 31.10,12.42 31.45,13.46 31.81,12.44 32.17,11.38 32.52,10.89 32.88,10.52 33.24,10.50 33.59,11.06 33.95,11.70 34.31,12.87 34.66,13.25 35.02,14.31 35.37,14.43 35.73,13.18 36.09,12.90 36.44,13.18 36.80,14.38 37.16,15.70 37.51,16.07 37.87,14.92 38.23,14.29 38.58,14.75 38.94,15.93 39.30,16.67 39.65,16.36 40.01,16.42 40.37,16.29 40.72,16.40 41.08,17.37 41.44,18.29 41.79,17.70 42.15,17.79 42.51,18.48 42.86,18.26 43.22,18.68 43.58,18.92 43.93,18.96 44.29,19.31 44.64,19.42 45.00,19.74 45.36,20.57 45.71,21.76 46.07,21.86 46.43,22.16 46.78,21.03 47.14,20.19 47.50,19.50 47.85,19.27 48.21,19.20 48.57,19.36 48.92,20.77 49.28,23.88 49.64,27.11 49.99,30.22 50.35,32.32 50.71,34.73 51.06,37.77 51.42,40.62 51.78,43.86 52.13,47.43 52.49,50.63 52.84,53.14 53.20,54.11 53.56,53.95 53.91,52.62 54.27,52.00 54.63,52.03 54.98,50.68 55.34,49.02 55.70,47.55 56.05,46.18 56.41,44.35 56.77,42.79 57.12,41.14 57.48,39.89 57.84,37.80 58.19,35.29 58.55,34.29 58.91,33.82 59.26,32.19 59.62,29.82 59.98,27.32 60.33,24.80 60.69,22.39 61.05,19.03 61.40,18.11 61.76,17.97 62.11,19.23 62.47,33.25 62.83,32.89 63.18,32.22 63.54,31.69 63.90,31.18 64.25,31.08 64.61,30.77 64.97,30.44 65.32,30.21 65.68,30.12 66.04,29.95 66.39,29.78 66.75,29.64 67.11,29.43 67.46,29.53 67.82,29.80 68.18,29.65 68.53,29.44 68.89,29.12 69.25,29.11 69.60,29.03 69.96,29.36 70.32,29.39 70.67,29.15 71.03,29.17 71.38,28.36 71.74,27.85 72.10,27.78 72.45,28.30 72.81,29.24 73.17,29.87 73.52,29.33 73.88,29.49 74.24,30.09 74.59,28.58 74.95,27.37 75.31,27.43 75.66,28.72 76.02,29.36 76.38,29.49 76.73,29.91 77.09,29.92 77.45,29.22 77.80,28.37 78.16,27.60 78.52,27.96 78.87,27.81 79.23,27.33 79.58,25.85 79.94,24.97 80.30,23.55 80.65,22.91 81.01,22.64 81.37,22.82 81.72,23.08 82.08,22.36 82.44,20.66 82.79,19.22 83.15,18.70 83.51,18.06 83.86,17.92 84.22,17.77 84.58,17.22 84.93,17.83 85.29,17.23 85.65,16.91 86.00,17.62 86.36,18.89 86.72,20.98 87.07,22.97 87.43,23.96 87.79,22.75 88.14,20.69 88.50,17.54 88.85,13.47 89.21,12.60 89.57,12.45 89.92,13.27 90.28,12.64 90.64,11.35 90.99,10.91 91.35,10.49 91.71,10.50 92.06,11.03 92.42,11.70 92.78,12.64 93.13,13.27 93.49,14.53 93.85,14.35 94.20,13.20 94.56,12.91 94.92,13.18 95.27,14.31 95.63,15.80 95.99,16.09 96.34,14.94 96.70,14.37 97.05,14.84 97.41,15.87 97.77,16.80 98.12,16.42 98.48,16.35 98.84,16.25 99.19,16.46 99.55,17.34 99.91,18.12 100.26,17.47 100.62,17.69 100.98,18.36 101.33,18.23 101.69,18.70 102.05,18.97 102.40,19.01 102.76,19.23 103.12,19.53 103.47,19.97 103.83,20.62 104.19,21.79 104.54,21.91 104.90,22.05 105.26,21.04 105.61,20.30 105.97,19.49 106.32,19.32 106.68,19.21 107.04,19.33 107.39,20.99 107.75,23.69 108.11,26.90 108.46,30.44 108.82,32.46 109.18,34.68 109.53,37.73 109.89,40.58 110.25,43.76 110.60,47.31 110.96,50.80 111.32,53.15 111.67,54.11 112.03,54.00 112.39,52.66 112.74,52.10 113.10,51.85 113.46,50.52 113.81,48.84 114.17,47.54 114.53,46.06 114.88,44.31 115.24,42.63 115.59,41.11 115.95,39.81 116.31,37.85 116.66,35.27 117.02,34.20 117.38,33.87 117.73,32.33 118.09,30.00 118.45,27.50 118.80,24.98 119.16,22.37 119.52,19.05 119.87,18.13 120.23,17.97 120.59,19.06 120.94,33.34 121.30,32.79 121.66,32.18 122.01,31.80 122.37,31.22 122.73,31.08 123.08,30.64 123.44,30.40 123.79,29.48 124.15,29.98 124.51,29.80 124.86,29.38 125.22,29.34 125.58,29.35 125.93,29.42 126.29,29.72 126.65,29.57 127.00,29.43 127.36,29.08 127.72,29.15 128.07,29.01 128.43,29.56 128.79,29.63 129.14,29.20 129.50,29.30 129.86,28.35 130.21,27.77 130.57,27.67 130.93,28.13 131.28,29.06 131.64,30.66 132.00,29.69 132.35,29.68 132.71,29.91 133.06,28.79 133.42,27.45 133.78,27.37 134.13,28.92 134.49,29.03 134.85,29.63 135.20,30.01 135.56,29.51 135.92,28.82 136.27,28.58 136.63,28.13 136.99,28.33 137.34,27.29 137.70,27.16 138.06,25.55 138.41,25.03 138.77,24.12 139.13,23.09 139.48,22.84 139.84,22.77 140.20,23.15 140.55,22.74 140.91,20.79 141.26,19.34 141.62,18.71 141.98,17.75 142.33,18.05 142.69,17.67 143.05,17.72 143.40,17.81 143.76,17.40 144.12,16.75 144.47,17.06 144.83,18.23 145.19,20.86 145.54,23.23 145.90,23.93 146.26,23.39 146.61,21.04 146.97,17.85 147.33,13.60 147.68,12.62 148.04,12.41 148.40,12.53 148.75,12.91 149.11,11.22 149.47,10.90 149.82,10.71 150.18,10.15 150.53,10.54 150.89,11.63 151.25,12.48 151.60,13.13 151.96,14.19 152.32,14.49 152.67,13.19 153.03,12.97 153.39,13.13 153.74,14.22 154.10,15.93 154.46,16.03 154.81,15.57 155.17,14.22 155.53,14.56 155.88,15.86 156.24,16.57 156.60,16.10 156.95,16.73 157.31,16.81 157.67,15.99 158.02,17.45 158.38,18.06 158.74,17.38 159.09,17.76 159.45,18.35 159.80,18.05 160.16,18.68 160.52,18.83 160.87,19.32 161.23,19.49 161.59,19.46 161.94,19.48 162.30,20.47 162.66,21.79 163.01,22.10 163.37,22.42 163.73,21.45 164.08,19.79 164.44,19.43 164.80,19.01 165.15,19.10 165.51,19.23 165.87,20.90 166.22,23.12 166.58,26.28 166.94,29.98 167.29,32.34 167.65,34.23 168.00,37.46 168.36,40.41 168.72,43.58 169.07,47.31 169.43,50.84 169.79,52.62 170.14,53.99 170.50,53.89 170.86,52.78 171.21,51.80 171.57,51.98 171.93,50.35 172.28,48.57 172.64,47.42 173.00,45.67 173.35,44.09 173.71,42.69 174.07,41.11 174.42,39.90 174.78,37.89 175.14,35.05 175.49,34.32 175.85,33.93 176.21,32.28 176.56,29.60 176.92,27.47 177.27,24.58 177.63,22.39 177.99,18.63 178.34,18.05 178.70,17.92 179.06,18.77 179.41,33.30 179.77,32.41 180.13,31.90 180.48,31.87 180.84,32.29 181.20,30.08 181.55,30.63 181.91,28.92 182.27,30.03 182.62,29.92 182.98,29.81 183.34,28.21 183.69,29.73 184.05,29.73 184.41,29.66 184.76,29.56 185.12,28.94 185.47,28.94 185.83,29.33 186.19,28.64 186.54,29.31 186.90,29.27 187.26,30.03 187.61,29.14 187.97,29.50 188.33,28.32 188.68,27.31 189.04,27.64 189.40,28.08 189.75,29.13 190.11,31.12 190.47,29.74 190.82,28.90 191.18,30.62 191.54,28.98 191.89,28.12 192.25,28.52 192.61,29.48 192.96,29.62 193.32,29.16 193.68,28.62 194.03,28.02 194.39,29.04 194.74,27.70 195.10,26.85 195.46,28.33 195.81,27.37 196.17,26.25 196.53,24.98 196.88,23.69 197.24,23.69 197.60,22.67 197.95,22.13 198.31,22.01 198.67,22.07 199.02,21.78 199.38,20.54 199.74,19.11 200.09,19.37 200.45,17.94 200.81,17.70 201.16,15.70 201.52,17.02 201.88,17.91 202.23,16.65 202.59,15.79 202.95,17.69 203.30,18.72 203.66,20.31 204.01,24.13 204.37,23.88 204.73,23.88 205.08,20.21 205.44,17.91 205.80,14.86 206.15,12.65 206.51,12.49 206.87,13.76 207.22,11.87 207.58,11.83 207.94,9.90 208.29,10.06 208.65,8.27 209.01,10.17 209.36,12.11 209.72,12.22 210.08,13.33 210.43,13.91 210.79,13.27 211.15,11.65 211.50,12.17 211.86,13.85 212.21,14.63 212.57,15.47 212.93,15.47 213.28,15.04 213.64,13.66 214.00,14.37 214.35,16.32 214.71,15.56 215.07,14.10 215.42,16.46 215.78,16.66 216.14,14.90 216.49,15.83 216.85,17.92 217.21,16.78 217.56,18.12 217.92,17.05 218.28,18.28 218.63,17.61 218.99,19.12 219.35,18.90 219.70,18.97 220.06,18.97 220.42,19.51 220.77,20.93 221.13,20.28 221.48,21.70 221.84,20.77 222.20,20.00 222.55,19.68 222.91,19.53 223.27,18.36 223.62,19.05 223.98,19.53 224.34,21.58 224.69,24.87 225.05,28.48 225.41,32.05 225.76,34.10 226.12,34.10 226.48,37.17 226.83,40.13 227.19,43.29 227.55,46.75 227.90,50.50 228.26,52.79 228.62,54.23 228.97,53.15 229.33,53.55 229.68,52.43 230.04,53.31 230.40,50.59 230.75,49.16 231.11,47.98 231.47,46.74 231.82,45.20 232.18,41.88 232.54,40.18 232.89,39.64 233.25,36.34 233.61,34.62 233.96,34.86 234.32,34.62 234.68,32.69 235.03,28.56 235.39,26.45 235.75,24.30 236.10,22.09 236.46,19.30 236.82,18.18 237.17,17.92 237.53,19.02 237.89,30.62 238.24,30.62 238.60,30.16 238.95,30.16 239.31,30.16 239.67,30.16 240.02,32.42 240.38,26.76 240.74,26.76 241.09,31.34 241.45,31.34 241.81,27.89 242.16,27.89 242.52,29.64 242.88,29.64 243.23,29.64 243.59,27.74 243.95,27.74 244.30,27.74 244.66,27.74 245.02,27.38 245.37,28.31 245.73,28.31 246.09,28.31 246.44,29.41 246.80,26.89 247.16,26.89 247.51,26.89 247.87,28.38 248.22,26.64 248.58,26.64 248.94,26.64 249.29,26.64 249.65,28.98 250.01,28.98 250.36,28.98 250.72,29.42 251.08,29.42 251.43,29.42 251.79,27.94 252.15,27.94 252.50,27.94 252.86,25.25 253.22,25.25 253.57,25.25 253.93,22.89 254.29,22.89 254.64,22.89 255.00,19.78 255.36,19.78 255.71,19.78 256.07,19.78 256.42,17.87 256.78,17.87 257.14,17.87 257.49,15.27 257.85,15.27 258.21,15.27 258.56,15.85 258.92,15.85 259.28,15.85 259.63,10.55 259.99,14.55 260.35,14.55 260.70,14.55 261.06,14.55 261.42,15.30 261.77,15.30 262.13,15.30 262.49,21.40 262.84,21.40 263.20,21.40 263.56,15.15 263.91,12.23 264.27,12.23 264.63,12.23 264.98,13.80 265.34,13.80 265.69,8.24 266.05,8.96 266.41,8.96 266.76,8.96 267.12,8.96 267.48,13.94 267.83,13.94 268.19,7.08 268.55,8.19 268.90,8.19 269.26,8.19 269.62,4.00 269.97,10.79 270.33,10.79 270.69,10.79 271.04,12.28 271.40,12.28 271.76,12.28 272.11,12.28 272.47,8.48 272.83,15.32 273.18,15.32 273.54,11.14 273.89,11.14 274.25,11.14 274.61,11.14 274.96,12.18 275.32,12.18 275.68,12.18 276.03,15.93 276.39,15.93 276.75,15.93 277.10,14.30 277.46,14.30 277.82,14.30 278.17,19.28 278.53,19.28 278.89,16.31 279.24,16.31 279.60,16.31 279.96,20.40 280.31,20.40 280.67,20.40 281.03,20.70 281.38,20.70 281.74,17.89 282.10,17.89 282.45,25.38 282.81,25.38 283.16,25.38 283.52,35.57 283.88,35.57 284.23,35.57 284.59,35.57 284.95,44.65 285.30,44.65 285.66,44.65 286.02,52.02 286.37,52.02 286.73,52.02 287.09,55.18 287.44,51.55 287.80,51.55 288.16,51.55 288.51,56.00 288.87,50.95 289.23,50.95 289.58,44.44 289.94,44.44 290.30,44.44 290.65,38.49 291.01,38.49 291.37,38.49 291.72,33.53 292.08,33.53 292.43,35.21 292.79,35.21 293.15,29.06 293.50,29.06 293.86,22.71 294.22,22.71 294.57,22.71 294.93,17.43 295.29,17.43 295.64,17.43 296.00,19.88" />
</svg>