<svg width="300" height="60" xmlns="http://www.w3.org/2000/svg">
  <polyline fill="rgba(255,200,0,0.3)" stroke="#ffbb00" stroke-width="2" points="4.00,6.82 4.80,6.62 5.61,5.62 6.41,4.92 7.22,4.23 8.02,4.55 8.83,5.62 9.63,6.96 10.44,8.01 11.24,8.38 12.04,8.70 12.85,9.17 13.65,9.99 14.46,10.54 15.26,11.60 16.07,13.05 16.87,14.21 17.67,15.61 18.48,17.06 19.28,17.95 20.09,18.51 20.89,19.78 21.70,21.15 22.50,22.48 23.31,23.38 24.11,23.88 24.91,23.50 25.72,22.88 26.52,22.37 27.33,22.16 28.13,22.13 28.94,22.14 29.74,22.41 30.55,25.29 31.35,26.90 32.15,27.91 32.96,29.95 33.76,31.28 34.57,31.67 35.37,31.75 36.18,31.54 36.98,31.06 37.79,30.72 38.59,30.84 39.39,31.09 40.20,31.19 41.00,31.92 41.81,32.16 42.61,33.84 43.42,36.13 44.22,37.99 45.02,39.61 45.83,41.36 46.63,42.38 47.44,42.57 48.24,41.97 49.05,41.14 49.85,40.12 50.66,40.07 51.46,40.57 52.26,40.91 53.07,41.08 53.87,40.71 54.68,41.11 55.48,41.44 56.29,41.70 57.09,42.14 57.90,42.74 58.70,42.88 59.50,43.12 60.31,43.43 61.11,44.00 61.92,44.82 62.72,45.33 63.53,45.60 64.33,45.82 65.13,46.41 65.94,47.23 66.74,47.49 67.55,47.52 68.35,48.19 69.16,49.60 69.96,50.46 70.77,51.14 71.57,52.12 72.37,53.15 73.18,53.68 73.98,54.15 74.79,54.49 75.59,55.10 76.40,55.83 77.20,6.91 78.01,6.67 78.81,5.47 79.61,4.71 80.42,4.16 81.22,4.57 82.03,5.79 82.83,7.12 83.64,8.04 84.44,8.49 85.25,8.94 86.05,9.24 86.85,10.02 87.66,10.85 88.46,12.31 89.27,13.31 90.07,14.84 90.88,16.02 91.68,17.18 92.48,18.19 93.29,18.83 94.09,20.10 94.90,21.52 95.70,23.16 96.51,23.60 97.31,23.98 98.12,23.77 98.92,22.71 99.72,22.59 100.53,22.67 101.33,22.34 102.14,21.96 102.94,23.02 103.75,25.60 104.55,27.18 105.36,28.44 106.16,30.49 106.96,31.39 107.77,31.97 108.57,31.87 109.38,31.68 110.18,31.12 110.99,30.77 111.79,30.83 112.60,31.01 113.40,31.19 114.20,31.66 115.01,32.26 115.81,33.84 116.62,36.34 117.42,37.84 118.23,39.85 119.03,41.61 119.83,42.55 120.64,42.55 121.44,41.89 122.25,41.41 123.05,40.41 123.86,40.23 124.66,40.89 125.47,41.06 126.27,40.98 127.07,40.81 127.88,41.20 128.68,41.43 129.49,41.67 130.29,42.37 131.10,42.65 131.90,42.99 132.71,43.25 133.51,43.97 134.31,44.39 135.12,45.17 135.92,45.54 136.73,45.71 137.53,45.94 138.34,46.34 139.14,47.32 139.94,47.84 140.75,47.86 141.55,48.34 142.36,49.53 143.16,50.64 143.97,51.43 144.77,52.09 145.58,53.35 146.38,53.81 147.18,54.45 147.99,54.52 148.79,55.15 149.60,55.83 150.40,6.66 151.21,6.66 152.01,6.38 152.82,4.62 153.62,4.84 154.42,4.00 155.23,5.48 156.03,6.86 156.84,7.92 157.64,8.44 158.45,8.80 159.25,8.80 160.06,9.94 160.86,10.73 161.66,13.55 162.47,13.31 163.27,15.95 164.08,15.71 164.88,17.33 165.69,18.45 166.49,18.71 167.29,19.31 168.10,21.58 168.90,24.20 169.71,23.80 170.51,24.60 171.32,24.60 172.12,24.01 172.93,22.57 173.73,23.43 174.53,22.31 175.34,22.29 176.14,22.17 176.95,24.47 177.75,26.82 178.56,26.80 179.36,29.10 180.17,30.81 180.97,32.64 181.77,32.18 182.58,32.00 183.38,32.00 184.19,30.80 184.99,30.20 185.80,30.72 186.60,31.10 187.40,31.44 188.21,32.06 189.01,33.36 189.82,35.37 190.62,37.59 191.43,39.65 192.23,41.46 193.04,42.46 193.84,42.47 194.64,41.42 195.45,43.23 196.25,41.47 197.06,40.32 197.86,40.24 198.67,41.77 199.47,41.12 200.28,40.88 201.08,41.55 201.88,41.33 202.69,42.07 203.49,43.10 204.30,42.61 205.10,43.14 205.91,43.46 206.71,43.82 207.52,44.30 208.32,44.76 209.12,45.50 209.93,45.38 210.73,45.80 211.54,46.34 212.34,47.34 213.15,48.17 213.95,47.80 214.75,47.80 215.56,48.69 216.36,50.11 217.17,50.91 217.97,51.53 218.78,53.09 219.58,53.27 220.39,54.36 221.19,54.02 221.99,54.94 222.80,56.00 223.60,5.35 224.41,5.35 225.21,15.84 226.02,9.14 226.82,9.14 227.63,9.14 228.43,6.36 229.23,6.36 230.04,6.36 230.84,9.22 231.65,10.30 232.45,10.30 233.26,10.30 234.06,9.64 234.87,13.25 235.67,13.25 236.47,15.05 237.28,15.05 238.08,15.05 238.89,21.40 239.69,20.80 240.50,20.80 241.30,20.80 242.10,23.30 242.91,23.30 243.71,28.17 244.52,28.17 245.32,24.34 246.13,24.34 246.93,27.49 247.74,27.49 248.54,27.49 249.34,23.31 250.15,23.31 250.95,23.31 251.76,23.31 252.56,28.42 253.37,28.42 254.17,30.48 254.98,32.34 255.78,32.34 256.58,32.34 257.39,32.34 258.19,30.66 259.00,30.66 259.80,30.66 260.61,31.74 261.41,31.74 262.21,31.74 263.02,35.29 263.82,35.29 264.63,35.29 265.43,41.18 266.24,41.18 267.04,41.18 267.85,41.06 268.65,41.06 269.45,41.06 270.26,41.06 271.06,39.55 271.87,42.56 272.67,42.56 273.48,41.96 274.28,41.96 275.09,43.30 275.89,43.30 276.69,43.30 277.50,46.74 278.30,46.74 279.11,48.40 279.91,48.40 280.72,48.40 281.52,49.33 282.33,46.10 283.13,46.10 283.93,46.78 284.74,46.78 285.54,48.02 286.35,48.02 287.15,48.02 287.96,48.02 288.76,50.83 289.56,49.91 290.37,49.91 291.17,52.35 291.98,52.35 292.78,52.35 293.59,55.02 294.39,55.02 295.20,55.84 296.00,55.84" />
</svg>