<svg width="300" height="60" xmlns="http://www.w3.org/2000/svg">
  <polyline fill="rgba(255,200,0,0.3)" stroke="#ffbb00" stroke-width="2" points="4.00,52.31 10.64,55.32 17.27,50.70 23.91,13.58 30.55,14.16 37.18,14.60 43.82,19.50 50.45,21.18 57.09,26.86 63.73,39.13 70.36,47.82 77.00,52.14 83.64,13.19 90.27,13.35 96.91,13.25 103.55,19.49 110.18,21.16 116.82,26.40 123.45,40.29 130.09,47.73 136.73,54.41 143.36,55.71 150.00,50.62 156.64,19.24 163.27,13.65 169.91,8.47 176.55,17.38 183.18,23.37 189.82,41.19 196.45,40.36 203.09,39.53 209.73,40.57 216.36,49.47 223.00,53.00 229.64,39.01 236.27,4.00 242.91,4.00 249.55,4.00 256.18,31.97 262.82,31.97 269.45,31.97 276.09,31.97 282.73,41.29 289.36,41.29 296.00,56.00" />
</svg>