<svg width="300" height="60" xmlns="http://www.w3.org/2000/svg">
  <polyline fill="rgba(255,200,0,0.3)" stroke="#ffbb00" stroke-width="2" points="4.00,54.70 5.16,55.16 6.33,55.09 7.49,54.90 8.65,54.78 9.82,55.08 10.98,54.43 12.14,54.82 13.31,53.83 14.47,53.90 15.63,53.31 16.80,52.79 17.96,52.09 19.12,51.46 20.29,50.35 21.45,49.19 22.61,47.68 23.78,46.78 24.94,46.45 26.10,45.97 27.27,45.53 28.43,45.06 29.59,44.84 30.76,45.06 31.92,45.58 33.08,45.90 34.25,46.19 35.41,47.04 36.57,47.41 37.74,48.02 38.90,47.98 40.06,47.02 41.23,46.03 42.39,45.70 43.55,44.76 44.72,43.68 45.88,43.06 47.04,42.26 48.21,41.04 49.37,39.89 50.53,37.81 51.70,35.81 52.86,33.28 54.02,30.56 55.19,28.37 56.35,26.48 57.51,23.82 58.68,22.51 59.84,21.73 61.00,20.84 62.17,19.62 63.33,18.90 64.49,18.01 65.66,17.54 66.82,16.71 67.98,16.32 69.15,15.61 70.31,15.56 71.47,15.56 72.64,15.84 73.80,15.98 74.96,16.69 76.13,17.07 77.29,17.00 78.45,16.36 79.62,16.01 80.78,15.59 81.94,15.21 83.11,15.09 84.27,15.17 85.43,15.11 86.60,14.86 87.76,13.70 88.92,12.65 90.09,11.40 91.25,10.06 92.41,9.06 93.58,8.34 94.74,7.76 95.90,7.43 97.07,7.72 98.23,8.74 99.39,11.01 100.56,11.40 101.72,55.46 102.88,55.66 104.05,55.90 105.21,56.00 106.37,53.30 107.54,53.46 108.70,53.51 109.86,53.70 111.03,53.88 112.19,54.14 113.35,54.36 114.52,51.02 115.68,51.04 116.84,51.00 118.01,51.20 119.17,47.88 120.33,48.24 121.50,45.30 122.66,46.02 123.82,44.09 124.99,45.04 126.15,46.18 127.31,44.63 128.48,43.97 129.64,45.70 130.80,45.18 131.97,45.18 133.13,44.55 134.29,46.39 135.46,48.38 136.62,46.71 137.78,47.70 138.95,44.76 140.11,45.57 141.27,46.11 142.44,42.53 143.60,42.87 144.76,42.87 145.93,38.92 147.09,38.54 148.25,37.95 149.42,37.10 150.58,31.86 151.75,30.29 152.91,28.68 154.07,27.21 155.24,22.67 156.40,22.28 157.56,22.24 158.73,18.86 159.89,18.82 161.05,19.00 162.22,19.36 163.38,16.50 164.54,16.96 165.71,16.96 166.87,14.54 168.03,15.11 169.20,15.95 170.36,14.33 171.52,15.48 172.69,16.93 173.85,15.70 175.01,16.55 176.18,16.93 177.34,15.18 178.50,15.37 179.67,15.61 180.83,14.74 181.99,15.08 183.16,15.08 184.32,15.06 185.48,13.22 186.65,12.64 187.81,9.96 188.97,9.89 190.14,7.74 191.30,8.14 192.46,6.43 193.63,7.11 194.79,8.51 195.95,8.51 197.12,7.66 198.28,10.42 199.44,54.35 200.61,53.89 201.77,53.89 202.93,53.89 204.10,53.59 205.26,53.59 206.42,53.59 207.59,53.89 208.75,53.89 209.91,53.89 211.08,54.53 212.24,44.72 213.40,44.72 214.57,44.50 215.73,44.50 216.89,44.50 218.06,45.48 219.22,45.48 220.38,45.48 221.55,37.53 222.71,39.94 223.87,39.94 225.04,39.94 226.20,44.15 227.36,44.15 228.53,37.57 229.69,37.57 230.85,42.06 232.02,42.06 233.18,42.06 234.34,46.35 235.51,46.35 236.67,37.09 237.83,38.50 239.00,38.50 240.16,38.50 241.32,39.18 242.49,39.18 243.65,39.18 244.81,39.18 245.98,38.15 247.14,38.15 248.30,28.26 249.47,23.93 250.63,23.93 251.79,23.93 252.96,20.36 254.12,20.36 255.28,20.36 256.45,19.17 257.61,19.17 258.77,19.17 259.94,19.49 261.10,11.44 262.26,11.44 263.43,11.44 264.59,12.40 265.75,12.40 266.92,12.40 268.08,14.68 269.24,14.68 270.41,14.68 271.57,13.07 272.73,13.07 273.90,13.07 275.06,14.27 276.22,14.27 277.39,14.27 278.55,15.34 279.71,15.34 280.88,15.34 282.04,15.34 283.20,12.12 284.37,12.12 285.53,12.12 286.69,8.53 287.86,8.53 289.02,8.53 290.18,4.00 291.35,4.00 292.51,4.00 293.67,4.00 294.84,5.03 296.00,5.03" />
</svg>