<svg width="300" height="60" xmlns="http://www.w3.org/2000/svg">
  <polyline fill="rgba(255,200,0,0.3)" stroke="#ffbb00" stroke-width="2" points="4.00,4.30 4.42,4.68 4.85,4.47 5.27,4.55 5.69,4.27 6.11,4.24 6.54,4.71 6.96,5.39 7.38,6.33 7.80,8.00 8.23,8.73 8.65,10.13 9.07,11.57 9.49,12.80 9.92,13.82 10.34,12.94 10.76,11.49 11.18,11.11 11.61,11.02 12.03,11.15 12.45,11.36 12.87,11.80 13.30,9.95 13.72,7.63 14.14,6.02 14.56,5.54 14.99,5.55 15.41,5.91 15.83,6.44 16.25,6.75 16.68,7.32 17.10,8.33 17.52,8.65 17.95,8.26 18.37,7.75 18.79,7.40 19.21,7.55 19.64,7.84 20.06,8.37 20.48,9.18 20.90,9.96 21.33,10.73 21.75,11.87 22.17,12.64 22.59,13.25 23.02,13.68 23.44,14.41 23.86,16.29 24.28,17.88 24.71,18.75 25.13,18.52 25.55,18.41 25.97,18.79 26.40,19.64 26.82,20.51 27.24,21.42 27.66,21.76 28.09,22.79 28.51,23.17 28.93,23.52 29.35,23.21 29.78,20.43 30.20,19.87 30.62,19.89 31.04,19.62 31.47,19.96 31.89,19.52 32.31,20.00 32.74,20.56 33.16,21.27 33.58,21.71 34.00,21.91 34.43,22.13 34.85,22.67 35.27,22.44 35.69,22.68 36.12,23.49 36.54,23.80 36.96,23.74 37.38,22.66 37.81,22.14 38.23,21.89 38.65,21.74 39.07,21.69 39.50,21.67 39.92,21.69 40.34,21.69 40.76,21.73 41.19,21.83 41.61,22.04 42.03,22.38 42.45,22.82 42.88,23.35 43.30,23.68 43.72,23.81 44.14,23.82 44.57,24.13 44.99,24.95 45.41,25.90 45.84,27.33 46.26,28.43 46.68,29.11 47.10,29.85 47.53,30.55 47.95,31.12 48.37,31.47 48.79,31.14 49.22,30.50 49.64,30.52 50.06,31.68 50.48,33.92 50.91,35.10 51.33,38.54 51.75,39.61 52.17,38.13 52.60,36.57 53.02,36.05 53.44,35.94 53.86,36.74 54.29,39.30 54.71,42.70 55.13,45.11 55.55,43.80 55.98,42.84 56.40,42.19 56.82,41.05 57.24,40.75 57.67,40.82 58.09,41.29 58.51,41.17 58.93,41.60 59.36,42.42 59.78,43.50 60.20,43.98 60.63,44.31 61.05,43.96 61.47,43.53 61.89,43.26 62.32,43.51 62.74,43.85 63.16,43.74 63.58,43.73 64.01,43.91 64.43,43.03 64.85,43.08 65.27,43.79 65.70,45.13 66.12,46.73 66.54,48.33 66.96,48.70 67.39,48.12 67.81,47.18 68.23,47.96 68.65,47.72 69.08,48.34 69.50,49.19 69.92,50.59 70.34,52.77 70.77,51.95 71.19,52.29 71.61,53.47 72.03,54.04 72.46,54.19 72.88,54.22 73.30,54.49 73.73,54.71 74.15,54.43 74.57,54.42 74.99,54.59 75.42,54.60 75.84,54.86 76.26,55.32 76.68,55.87 77.11,4.36 77.53,4.74 77.95,4.00 78.37,4.32 78.80,4.17 79.22,4.27 79.64,4.65 80.06,5.32 80.49,6.32 80.91,8.07 81.33,8.96 81.75,10.26 82.18,11.73 82.60,13.08 83.02,13.68 83.44,12.98 83.87,11.76 84.29,11.49 84.71,10.55 85.13,10.78 85.56,11.24 85.98,11.81 86.40,9.91 86.82,7.76 87.25,6.04 87.67,5.62 88.09,5.65 88.52,5.96 88.94,6.33 89.36,6.74 89.78,7.32 90.21,7.93 90.63,8.66 91.05,8.23 91.47,7.72 91.90,7.20 92.32,7.49 92.74,8.00 93.16,8.12 93.59,9.07 94.01,9.98 94.43,10.58 94.85,12.14 95.28,12.58 95.70,13.29 96.12,13.58 96.54,14.59 96.97,16.22 97.39,18.10 97.81,18.68 98.23,18.73 98.66,18.29 99.08,18.54 99.50,19.48 99.92,20.38 100.35,21.45 100.77,21.78 101.19,22.54 101.62,23.14 102.04,23.67 102.46,22.87 102.88,20.49 103.31,19.89 103.73,19.77 104.15,19.38 104.57,20.29 105.00,20.22 105.42,19.40 105.84,19.83 106.26,21.30 106.69,21.87 107.11,22.07 107.53,22.09 107.95,22.66 108.38,22.70 108.80,22.50 109.22,23.52 109.64,23.72 110.07,23.57 110.49,22.79 110.91,22.14 111.33,21.98 111.76,21.43 112.18,21.67 112.60,21.66 113.02,21.73 113.45,21.75 113.87,21.79 114.29,21.89 114.71,22.09 115.14,22.43 115.56,22.90 115.98,23.35 116.41,23.75 116.83,23.63 117.25,23.93 117.67,24.29 118.10,24.87 118.52,26.05 118.94,27.75 119.36,28.61 119.79,29.32 120.21,29.99 120.63,30.88 121.05,31.09 121.48,31.63 121.90,31.37 122.32,30.73 122.74,30.84 123.17,31.98 123.59,33.83 124.01,35.88 124.43,38.90 124.86,39.84 125.28,37.77 125.70,36.41 126.12,36.04 126.55,35.95 126.97,37.00 127.39,39.69 127.81,42.58 128.24,45.23 128.66,44.21 129.08,43.40 129.51,42.24 129.93,41.16 130.35,40.75 130.77,41.28 131.20,41.32 131.62,41.62 132.04,41.39 132.46,42.75 132.89,43.19 133.31,44.32 133.73,44.32 134.15,43.96 134.58,43.98 135.00,43.29 135.42,43.87 135.84,44.32 136.27,44.09 136.69,43.73 137.11,44.12 137.53,43.22 137.96,43.09 138.38,44.10 138.80,45.35 139.22,46.75 139.65,48.66 140.07,48.93 140.49,48.04 140.91,47.41 141.34,47.90 141.76,47.73 142.18,48.17 142.60,48.90 143.03,51.18 143.45,53.01 143.87,51.68 144.30,52.62 144.72,53.77 145.14,54.05 145.56,54.23 145.99,54.59 146.41,54.65 146.83,54.80 147.25,54.80 147.68,54.41 148.10,54.75 148.52,54.88 148.94,54.88 149.37,55.34 149.79,56.00 150.21,4.53 150.63,4.40 151.06,4.80 151.48,4.13 151.90,4.40 152.32,4.75 152.75,4.55 153.17,5.25 153.59,6.41 154.01,7.28 154.44,8.68 154.86,10.04 155.28,11.54 155.70,12.91 156.13,13.85 156.55,13.52 156.97,12.62 157.40,11.62 157.82,10.89 158.24,10.49 158.66,11.53 159.09,11.53 159.51,10.89 159.93,8.07 160.35,5.80 160.78,5.85 161.20,6.02 161.62,6.31 162.04,6.65 162.47,7.04 162.89,7.64 163.31,8.85 163.73,9.21 164.16,8.01 164.58,7.99 165.00,8.06 165.42,8.26 165.85,8.84 166.27,8.33 166.69,9.13 167.11,10.00 167.54,10.93 167.96,11.91 168.38,12.59 168.80,13.41 169.23,13.78 169.65,14.66 170.07,17.24 170.49,19.02 170.92,18.17 171.34,18.34 171.76,18.74 172.19,18.74 172.61,18.58 173.03,20.40 173.45,22.34 173.88,21.68 174.30,20.91 174.72,23.63 175.14,23.20 175.57,21.94 175.99,20.17 176.41,20.14 176.83,20.14 177.26,20.53 177.68,20.15 178.10,21.22 178.52,19.41 178.95,19.32 179.37,21.04 179.79,21.54 180.21,22.22 180.64,22.22 181.06,23.12 181.48,23.81 181.90,22.98 182.33,24.14 182.75,23.75 183.17,23.48 183.59,23.48 184.02,22.35 184.44,21.45 184.86,21.71 185.29,21.55 185.71,22.01 186.13,21.87 186.55,22.22 186.98,21.82 187.40,21.70 187.82,22.16 188.24,22.57 188.67,23.29 189.09,23.09 189.51,23.33 189.93,23.92 190.36,23.79 190.78,24.42 191.20,25.04 191.62,26.45 192.05,28.09 192.47,28.09 192.89,28.79 193.31,29.57 193.74,30.49 194.16,31.10 194.58,31.49 195.00,31.42 195.43,31.53 195.85,30.59 196.27,32.03 196.69,33.82 197.12,36.48 197.54,36.48 197.96,39.92 198.38,38.97 198.81,36.95 199.23,35.72 199.65,36.34 200.08,36.94 200.50,40.01 200.92,40.99 201.34,43.95 201.77,45.34 202.19,43.32 202.61,42.84 203.03,42.02 203.46,40.69 203.88,41.75 204.30,40.97 204.72,42.14 205.15,41.29 205.57,43.17 205.99,42.75 206.41,44.68 206.84,44.11 207.26,43.48 207.68,44.29 208.10,43.52 208.53,43.62 208.95,43.83 209.37,43.88 209.79,43.98 210.22,44.18 210.64,42.47 211.06,43.10 211.48,44.33 211.91,44.54 212.33,46.60 212.75,47.53 213.18,48.83 213.60,47.74 214.02,48.08 214.44,47.77 214.87,47.51 215.29,48.81 215.71,48.54 216.13,51.24 216.56,52.24 216.98,51.37 217.40,52.32 217.82,53.07 218.25,54.21 218.67,54.14 219.09,54.91 219.51,54.48 219.94,55.31 220.36,54.51 220.78,54.51 221.20,54.05 221.63,54.64 222.05,54.60 222.47,55.25 222.89,55.62 223.32,4.75 223.74,7.34 224.16,7.34 224.58,4.29 225.01,5.63 225.43,5.63 225.85,5.63 226.27,7.49 226.70,7.49 227.12,7.49 227.54,9.76 227.97,9.76 228.39,9.76 228.81,13.65 229.23,13.65 229.66,13.65 230.08,15.44 230.50,15.44 230.92,15.44 231.35,13.09 231.77,13.09 232.19,13.09 232.61,13.09 233.04,7.93 233.46,7.93 233.88,7.93 234.30,8.75 234.73,8.75 235.15,8.75 235.57,9.98 235.99,9.98 236.42,10.97 236.84,10.97 237.26,10.97 237.68,11.60 238.11,11.60 238.53,11.60 238.95,11.57 239.37,8.58 239.80,11.01 240.22,11.01 240.64,11.01 241.07,14.00 241.49,14.00 241.91,14.00 242.33,14.03 242.76,14.03 243.18,16.75 243.60,20.74 244.02,17.01 244.45,17.01 244.87,19.19 245.29,19.19 245.71,19.19 246.14,19.19 246.56,23.57 246.98,21.85 247.40,21.85 247.83,20.68 248.25,20.68 248.67,20.68 249.09,23.10 249.52,23.10 249.94,23.10 250.36,23.10 250.78,22.70 251.21,22.70 251.63,22.70 252.05,22.70 252.47,27.37 252.90,23.38 253.32,23.38 253.74,23.38 254.16,29.20 254.59,25.78 255.01,25.78 255.43,25.78 255.86,23.51 256.28,24.90 256.70,24.90 257.12,24.90 257.55,21.49 257.97,22.89 258.39,22.89 258.81,22.89 259.24,24.85 259.66,24.85 260.08,21.96 260.50,23.45 260.93,23.45 261.35,23.45 261.77,25.86 262.19,24.42 262.62,24.42 263.04,24.42 263.46,26.45 263.88,26.45 264.31,25.35 264.73,28.44 265.15,28.44 265.57,28.44 266.00,30.17 266.42,30.17 266.84,30.17 267.26,33.13 267.69,33.13 268.11,33.13 268.53,34.89 268.96,30.67 269.38,30.67 269.80,34.07 270.22,34.07 270.65,34.07 271.07,34.07 271.49,38.58 271.91,38.58 272.34,38.58 272.76,38.58 273.18,37.92 273.60,37.92 274.03,37.92 274.45,37.48 274.87,44.34 275.29,44.34 275.72,44.34 276.14,39.28 276.56,39.28 276.98,43.64 277.41,40.93 277.83,40.93 278.25,40.93 278.67,38.58 279.10,38.58 279.52,45.20 279.94,43.73 280.36,43.73 280.79,43.73 281.21,42.34 281.63,42.34 282.05,41.87 282.48,41.87 282.90,41.87 283.32,42.14 283.75,42.14 284.17,43.42 284.59,43.42 285.01,38.88 285.44,44.76 285.86,44.76 286.28,44.76 286.70,47.77 287.13,47.77 287.55,42.12 287.97,45.60 288.39,45.60 288.82,45.60 289.24,49.50 289.66,49.50 290.08,49.50 290.51,49.50 290.93,52.97 291.35,52.97 291.77,52.97 292.20,55.69 292.62,55.69 293.04,55.69 293.46,54.55 293.89,54.55 294.31,54.55 294.73,54.55 295.15,55.90 295.58,55.90 296.00,54.40" />
</svg>