<svg width="300" height="60" xmlns="http://www.w3.org/2000/svg">
  <polyline fill="rgba(255,200,0,0.3)" stroke="#ffbb00" stroke-width="2" points="4.00,15.12 4.35,14.98 4.69,14.88 5.04,14.26 5.39,13.59 5.73,12.96 6.08,12.65 6.43,13.76 6.77,14.13 7.12,14.48 7.47,13.59 7.81,12.31 8.16,11.38 8.51,10.16 8.86,9.19 9.20,9.01 9.55,9.22 9.90,9.90 10.24,11.36 10.59,12.41 10.94,11.53 11.28,10.85 11.63,10.28 11.98,10.28 12.32,10.68 12.67,11.16 13.02,12.29 13.36,13.07 13.71,13.52 14.06,13.80 14.40,14.32 14.75,13.04 15.10,11.03 15.44,9.22 15.79,7.94 16.14,6.86 16.48,6.80 16.83,7.88 17.18,9.45 17.52,10.07 17.87,11.32 18.22,13.19 18.57,15.41 18.91,17.15 19.26,15.96 19.61,13.76 19.95,11.83 20.30,10.10 20.65,8.58 20.99,7.18 21.34,6.08 21.69,6.26 22.03,6.44 22.38,7.45 22.73,8.28 23.07,6.98 23.42,5.52 23.77,5.02 24.11,5.51 24.46,6.30 24.81,7.15 25.15,8.14 25.50,9.38 25.85,10.96 26.19,13.32 26.54,15.14 26.89,17.74 27.24,19.37 27.58,19.64 27.93,18.85 28.28,17.56 28.62,16.62 28.97,15.79 29.32,15.85 29.66,17.23 30.01,19.66 30.36,21.81 30.70,24.07 31.05,22.49 31.40,20.82 31.74,18.85 32.09,16.86 32.44,16.87 32.78,17.44 33.13,19.33 33.48,21.19 33.82,22.28 34.17,20.14 34.52,18.20 34.86,16.13 35.21,14.52 35.56,13.09 35.90,12.57 36.25,12.69 36.60,13.06 36.95,14.07 37.29,15.96 37.64,18.01 37.99,20.59 38.33,22.16 38.68,24.12 39.03,22.78 39.37,22.47 39.72,23.08 40.07,23.81 40.41,24.47 40.76,24.89 41.11,25.76 41.45,25.26 41.80,25.07 42.15,25.46 42.49,26.21 42.84,27.39 43.19,28.47 43.53,29.70 43.88,30.86 44.23,32.05 44.57,33.80 44.92,34.95 45.27,33.96 45.62,32.38 45.96,30.88 46.31,29.17 46.66,27.52 47.00,26.58 47.35,25.90 47.70,26.22 48.04,24.43 48.39,23.72 48.74,24.73 49.08,27.29 49.43,29.46 49.78,31.94 50.12,33.24 50.47,32.26 50.82,31.78 51.16,32.09 51.51,31.76 51.86,31.42 52.20,30.92 52.55,30.61 52.90,30.44 53.24,31.10 53.59,31.62 53.94,31.63 54.29,31.53 54.63,31.02 54.98,31.22 55.33,31.15 55.67,31.15 56.02,32.31 56.37,30.99 56.71,30.05 57.06,29.29 57.41,29.32 57.75,30.15 58.10,30.42 58.45,30.74 58.79,31.70 59.14,31.34 59.49,30.63 59.83,29.50 60.18,28.95 60.53,27.83 60.87,26.75 61.22,25.91 61.57,26.17 61.91,27.25 62.26,28.79 62.61,30.40 62.95,32.40 63.30,33.88 63.65,35.31 64.00,35.83 64.34,36.66 64.69,37.57 65.04,37.18 65.38,37.72 65.73,38.42 66.08,39.73 66.42,39.69 66.77,39.75 67.12,39.67 67.46,37.48 67.81,35.55 68.16,35.10 68.50,35.97 68.85,37.08 69.20,36.01 69.54,33.93 69.89,32.22 70.24,30.80 70.58,29.23 70.93,27.66 71.28,27.45 71.62,27.45 71.97,27.83 72.32,28.79 72.67,30.41 73.01,32.06 73.36,34.26 73.71,33.90 74.05,33.87 74.40,33.09 74.75,31.45 75.09,29.48 75.44,26.68 75.79,24.49 76.13,23.18 76.48,22.57 76.83,23.35 77.17,24.45 77.52,25.76 77.87,27.38 78.21,29.67 78.56,32.60 78.91,35.45 79.25,35.58 79.60,34.35 79.95,33.10 80.29,31.95 80.64,31.90 80.99,32.60 81.33,33.04 81.68,33.72 82.03,34.10 82.38,34.78 82.72,35.56 83.07,36.25 83.42,36.75 83.76,37.31 84.11,37.67 84.46,38.23 84.80,39.03 85.15,39.74 85.50,40.02 85.84,40.36 86.19,40.59 86.54,40.11 86.88,40.36 87.23,40.99 87.58,42.51 87.92,43.41 88.27,45.38 88.62,46.60 88.96,47.53 89.31,48.53 89.66,48.23 90.00,48.13 90.35,47.46 90.70,46.12 91.05,44.86 91.39,44.37 91.74,45.25 92.09,47.41 92.43,49.98 92.78,52.02 93.13,53.27 93.47,54.38 93.82,54.56 94.17,55.35 94.51,56.00 94.86,55.27 95.21,54.52 95.55,52.20 95.90,51.09 96.25,49.03 96.59,47.89 96.94,46.49 97.29,46.40 97.63,46.81 97.98,48.13 98.33,49.84 98.67,49.16 99.02,47.49 99.37,46.63 99.71,46.34 100.06,46.06 100.41,46.30 100.76,46.12 101.10,47.29 101.45,15.02 101.80,15.11 102.14,14.92 102.49,14.28 102.84,13.45 103.18,11.97 103.53,13.66 103.88,13.71 104.22,14.46 104.57,14.12 104.92,13.12 105.26,13.12 105.61,10.97 105.96,10.26 106.30,8.67 106.65,8.06 107.00,9.64 107.34,9.73 107.69,10.37 108.04,12.49 108.38,11.76 108.73,11.94 109.08,10.73 109.43,9.69 109.77,10.90 110.12,12.43 110.47,11.93 110.81,13.81 111.16,13.24 111.51,14.79 111.85,14.33 112.20,12.35 112.55,10.75 112.89,9.11 113.24,7.85 113.59,6.97 113.93,6.67 114.28,8.47 114.63,8.71 114.97,9.96 115.32,11.48 115.67,13.18 116.01,15.49 116.36,16.61 116.71,16.26 117.05,13.41 117.40,12.54 117.75,9.94 118.10,7.67 118.44,7.47 118.79,6.02 119.14,5.86 119.48,5.34 119.83,7.03 120.18,9.06 120.52,7.71 120.87,5.86 121.22,4.89 121.56,5.73 121.91,6.48 122.26,7.28 122.60,8.24 122.95,9.50 123.30,11.14 123.64,13.20 123.99,15.53 124.34,17.87 124.68,19.36 125.03,20.02 125.38,17.40 125.72,16.42 126.07,15.98 126.42,15.97 126.76,16.75 127.11,17.74 127.46,20.14 127.81,21.99 128.15,23.11 128.50,21.08 128.85,21.08 129.19,18.74 129.54,16.98 129.89,16.64 130.23,17.26 130.58,18.97 130.93,21.01 131.27,22.26 131.62,19.40 131.97,17.76 132.31,16.26 132.66,13.31 133.01,12.84 133.35,12.94 133.70,12.39 134.05,13.49 134.39,15.26 134.74,16.70 135.09,19.18 135.43,19.18 135.78,21.72 136.13,23.61 136.48,23.09 136.82,22.49 137.17,22.34 137.52,23.84 137.86,24.72 138.21,25.29 138.56,25.72 138.90,25.59 139.25,24.95 139.60,24.29 139.94,26.63 140.29,26.62 140.64,29.20 140.98,29.37 141.33,29.46 141.68,32.20 142.02,32.72 142.37,35.36 142.72,34.60 143.06,32.78 143.41,32.26 143.76,28.87 144.10,27.25 144.45,25.88 144.80,24.90 145.14,26.73 145.49,25.61 145.84,23.73 146.19,24.46 146.53,27.58 146.88,29.19 147.23,32.66 147.57,32.92 147.92,31.82 148.27,31.06 148.61,33.16 148.96,32.08 149.31,31.39 149.65,30.74 150.00,30.34 150.35,29.81 150.69,32.14 151.04,32.32 151.39,30.99 151.73,30.41 152.08,31.74 152.43,31.46 152.77,31.07 153.12,30.14 153.47,32.49 153.81,30.78 154.16,30.16 154.51,29.03 154.86,29.03 155.20,29.90 155.55,30.35 155.90,31.44 156.24,31.32 156.59,30.82 156.94,30.82 157.28,30.03 157.63,29.28 157.98,27.62 158.32,26.53 158.67,26.16 159.02,26.42 159.36,27.94 159.71,29.11 160.06,30.01 160.40,32.53 160.75,33.22 161.10,35.66 161.44,35.13 161.79,36.90 162.14,38.56 162.48,37.20 162.83,38.62 163.18,38.07 163.52,39.94 163.87,39.38 164.22,40.15 164.57,38.92 164.91,37.18 165.26,35.03 165.61,35.32 165.95,37.30 166.30,36.53 166.65,35.16 166.99,32.89 167.34,31.14 167.69,31.60 168.03,29.53 168.38,28.15 168.73,28.03 169.07,26.90 169.42,27.50 169.77,29.36 170.11,31.43 170.46,31.51 170.81,33.94 171.15,33.76 171.50,33.23 171.85,32.15 172.19,30.43 172.54,27.27 172.89,27.27 173.24,24.46 173.58,23.00 173.93,22.86 174.28,22.86 174.62,24.41 174.97,25.50 175.32,27.67 175.66,29.85 176.01,32.70 176.36,34.76 176.70,34.60 177.05,35.40 177.40,33.29 177.74,30.39 178.09,30.87 178.44,30.99 178.78,33.86 179.13,33.92 179.48,33.87 179.82,33.58 180.17,35.79 180.52,35.42 180.86,37.41 181.21,36.96 181.56,38.10 181.90,37.15 182.25,40.23 182.60,39.09 182.95,40.57 183.29,41.56 183.64,40.28 183.99,40.68 184.33,39.17 184.68,40.53 185.03,42.54 185.37,42.16 185.72,44.82 186.07,46.85 186.41,46.66 186.76,48.00 187.11,47.49 187.45,48.92 187.80,46.37 188.15,45.88 188.49,45.47 188.84,44.71 189.19,44.71 189.53,47.14 189.88,50.28 190.23,52.79 190.57,52.79 190.92,54.26 191.27,54.70 191.62,55.59 191.96,55.55 192.31,55.14 192.66,54.35 193.00,52.75 193.35,51.32 193.70,50.21 194.04,48.51 194.39,46.64 194.74,46.64 195.08,47.22 195.43,49.06 195.78,48.79 196.12,50.19 196.47,47.80 196.82,46.28 197.16,46.83 197.51,46.26 197.86,46.26 198.20,46.36 198.55,46.90 198.90,14.37 199.24,15.52 199.59,14.84 199.94,14.84 200.29,11.88 200.63,11.88 200.98,11.88 201.33,13.43 201.67,13.43 202.02,13.43 202.37,9.99 202.71,9.99 203.06,9.99 203.41,9.99 203.75,7.67 204.10,7.67 204.45,6.17 204.79,6.17 205.14,6.17 205.49,11.81 205.83,11.81 206.18,11.81 206.53,9.27 206.87,9.27 207.22,9.27 207.57,12.50 207.91,12.50 208.26,12.50 208.61,11.09 208.95,11.09 209.30,11.09 209.65,9.56 210.00,9.56 210.34,7.46 210.69,7.46 211.04,7.46 211.38,5.64 211.73,5.64 212.08,8.14 212.42,8.14 212.77,8.14 213.12,13.38 213.46,13.38 213.81,11.83 214.16,12.40 214.50,12.40 214.85,12.40 215.20,10.10 215.54,4.98 215.89,4.98 216.24,4.98 216.58,6.31 216.93,4.42 217.28,4.42 217.62,4.42 217.97,4.42 218.32,4.00 218.67,4.00 219.01,6.03 219.36,8.62 219.71,8.62 220.05,8.62 220.40,13.39 220.75,13.39 221.09,13.39 221.44,18.35 221.79,18.35 222.13,18.35 222.48,18.67 222.83,12.94 223.17,12.94 223.52,15.14 223.87,15.14 224.21,15.14 224.56,19.14 224.91,19.14 225.25,19.14 225.60,16.28 225.95,16.28 226.29,16.28 226.64,16.28 226.99,16.98 227.33,16.98 227.68,16.98 228.03,18.04 228.38,18.04 228.72,18.04 229.07,14.78 229.42,14.78 229.76,14.78 230.11,13.30 230.46,13.30 230.80,13.30 231.15,14.38 231.50,14.38 231.84,14.38 232.19,20.35 232.54,20.35 232.88,20.35 233.23,20.35 233.58,18.46 233.92,18.46 234.27,22.38 234.62,18.92 234.96,18.92 235.31,21.41 235.66,21.41 236.00,21.41 236.35,21.63 236.70,21.63 237.05,19.96 237.39,26.63 237.74,26.63 238.09,26.74 238.43,26.74 238.78,26.74 239.13,27.67 239.47,27.67 239.82,34.07 240.17,34.00 240.51,34.00 240.86,34.00 241.21,29.29 241.55,29.29 241.90,24.51 242.25,24.51 242.59,24.51 242.94,22.17 243.29,22.17 243.63,21.70 243.98,26.59 244.33,26.59 244.67,29.77 245.02,29.77 245.37,29.77 245.71,29.05 246.06,29.05 246.41,27.45 246.76,27.45 247.10,27.45 247.45,25.81 247.80,25.81 248.14,32.76 248.49,31.90 248.84,31.90 249.18,30.33 249.53,30.33 249.88,30.33 250.22,28.88 250.57,28.88 250.92,28.88 251.26,28.19 251.61,28.19 251.96,29.34 252.30,29.34 252.65,29.34 253.00,31.26 253.34,31.26 253.69,31.26 254.04,29.17 254.38,29.17 254.73,29.17 255.08,29.17 255.43,25.43 255.77,27.57 256.12,27.57 256.47,28.66 256.81,28.66 257.16,28.66 257.51,32.19 257.85,34.92 258.20,34.92 258.55,34.92 258.89,33.72 259.24,40.43 259.59,40.43 259.93,38.11 260.28,38.11 260.63,38.11 260.97,40.62 261.32,40.62 261.67,40.62 262.01,35.55 262.36,35.55 262.71,35.55 263.05,36.84 263.40,36.84 263.75,36.84 264.10,30.75 264.44,30.75 264.79,31.86 265.14,31.86 265.48,27.01 265.83,27.01 266.18,30.85 266.52,29.31 266.87,29.31 267.22,29.31 267.56,34.82 267.91,31.31 268.26,31.31 268.60,31.31 268.95,28.94 269.30,28.94 269.64,28.94 269.99,26.35 270.34,26.35 270.68,22.60 271.03,22.60 271.38,26.60 271.72,26.60 272.07,26.60 272.42,25.07 272.76,31.52 273.11,31.52 273.46,31.52 273.81,30.07 274.15,30.07 274.50,32.27 274.85,32.27 275.19,24.32 275.54,25.45 275.89,25.45 276.23,33.50 276.58,33.69 276.93,33.69 277.27,33.69 277.62,33.08 277.97,33.08 278.31,33.08 278.66,31.62 279.01,39.17 279.35,37.19 279.70,37.19 280.05,37.19 280.39,37.19 280.74,41.16 281.09,41.16 281.43,41.16 281.78,37.51 282.13,37.51 282.48,43.97 282.82,42.34 283.17,42.34 283.52,42.34 283.86,42.34 284.21,47.77 284.56,47.77 284.90,47.77 285.25,46.44 285.60,46.44 285.94,46.44 286.29,45.77 286.64,45.77 286.98,45.77 287.33,49.94 287.68,52.72 288.02,52.72 288.37,52.72 288.72,54.73 289.06,54.17 289.41,54.17 289.76,53.69 290.10,53.69 290.45,53.69 290.80,50.34 291.14,52.04 291.49,52.04 291.84,47.29 292.19,47.29 292.53,47.29 292.88,48.78 293.23,48.78 293.57,48.78 293.92,48.78 294.27,46.59 294.61,46.59 294.96,46.59 295.31,46.59 295.65,49.17 296.00,45.95" />
</svg>