<svg width="300" height="60" xmlns="http://www.w3.org/2000/svg">
  <polyline fill="rgba(255,200,0,0.3)" stroke="#ffbb00" stroke-width="2" points="4.00,55.98 4.35,55.83 4.71,55.12 5.06,54.22 5.41,53.27 5.76,52.63 6.12,51.84 6.47,51.24 6.82,50.77 7.17,50.38 7.53,49.83 7.88,49.32 8.23,48.43 8.58,47.63 8.94,46.96 9.29,46.36 9.64,46.32 10.00,47.93 10.35,47.56 10.70,46.92 11.05,46.36 11.41,45.98 11.76,46.19 12.11,46.08 12.46,44.02 12.82,43.69 13.17,43.18 13.52,41.81 13.87,41.52 14.23,41.66 14.58,41.80 14.93,42.37 15.29,42.79 15.64,43.61 15.99,43.96 16.34,44.02 16.70,43.89 17.05,43.58 17.40,42.94 17.75,42.25 18.11,41.53 18.46,40.96 18.81,40.08 19.16,39.60 19.52,39.22 19.87,38.46 20.22,38.05 20.57,37.86 20.93,37.85 21.28,37.82 21.63,37.60 21.99,37.14 22.34,36.49 22.69,36.01 23.04,35.66 23.40,35.09 23.75,34.66 24.10,33.92 24.45,33.57 24.81,33.27 25.16,33.25 25.51,33.21 25.86,33.05 26.22,32.69 26.57,32.24 26.92,31.68 27.28,30.95 27.63,30.28 27.98,29.78 28.33,29.29 28.69,28.95 29.04,28.71 29.39,28.53 29.74,28.46 30.10,28.83 30.45,28.34 30.80,27.72 31.15,27.03 31.51,26.43 31.86,26.09 32.21,25.58 32.57,24.97 32.92,24.52 33.27,24.20 33.62,23.75 33.98,23.34 34.33,23.02 34.68,22.36 35.03,22.03 35.39,21.68 35.74,21.46 36.09,21.30 36.44,21.24 36.80,21.31 37.15,21.32 37.50,21.25 37.86,21.08 38.21,20.92 38.56,20.70 38.91,20.56 39.27,20.46 39.62,20.45 39.97,20.45 40.32,20.55 40.68,20.59 41.03,20.69 41.38,20.41 41.73,19.89 42.09,19.34 42.44,18.87 42.79,18.45 43.14,18.19 43.50,17.93 43.85,18.00 44.20,18.00 44.56,17.78 44.91,17.66 45.26,17.63 45.61,17.59 45.97,17.43 46.32,17.21 46.67,17.05 47.02,16.96 47.38,16.58 47.73,16.25 48.08,16.00 48.43,15.75 48.79,15.63 49.14,15.65 49.49,15.73 49.85,15.82 50.20,15.98 50.55,16.08 50.90,16.22 51.26,16.56 51.61,16.44 51.96,16.50 52.31,16.61 52.67,16.80 53.02,16.92 53.37,16.92 53.72,16.88 54.08,16.70 54.43,16.55 54.78,16.40 55.14,16.60 55.49,16.97 55.84,17.27 56.19,17.50 56.55,17.53 56.90,17.36 57.25,17.16 57.60,17.05 57.96,17.02 58.31,16.60 58.66,16.30 59.01,16.03 59.37,15.73 59.72,15.49 60.07,15.27 60.43,15.03 60.78,14.67 61.13,14.36 61.48,14.05 61.84,13.71 62.19,13.31 62.54,12.94 62.89,12.56 63.25,12.32 63.60,12.25 63.95,12.30 64.30,12.44 64.66,12.59 65.01,12.72 65.36,12.74 65.71,12.42 66.07,12.19 66.42,12.26 66.77,12.33 67.13,12.41 67.48,12.36 67.83,12.27 68.18,11.97 68.54,11.74 68.89,11.30 69.24,10.87 69.59,10.55 69.95,10.35 70.30,10.19 70.65,10.21 71.00,10.21 71.36,10.11 71.71,9.93 72.06,9.70 72.42,9.51 72.77,9.19 73.12,8.86 73.47,8.56 73.83,8.29 74.18,8.06 74.53,7.93 74.88,7.72 75.24,7.22 75.59,6.86 75.94,6.53 76.29,6.22 76.65,5.90 77.00,5.85 77.35,5.60 77.71,5.43 78.06,5.35 78.41,5.24 78.76,5.15 79.12,5.03 79.47,4.83 79.82,4.66 80.17,4.44 80.53,4.32 80.88,4.33 81.23,4.31 81.58,4.39 81.94,4.66 82.29,4.97 82.64,5.65 83.00,6.34 83.35,6.96 83.70,7.45 84.05,7.93 84.41,8.33 84.76,8.69 85.11,9.35 85.46,9.63 85.82,9.96 86.17,10.51 86.52,11.04 86.87,11.57 87.23,11.82 87.58,12.18 87.93,12.45 88.29,12.58 88.64,12.57 88.99,12.48 89.34,12.47 89.70,12.52 90.05,12.55 90.40,12.72 90.75,12.81 91.11,12.77 91.46,12.74 91.81,12.72 92.16,12.87 92.52,13.20 92.87,13.67 93.22,14.16 93.57,14.55 93.93,14.88 94.28,15.09 94.63,15.31 94.99,10.95 95.34,10.63 95.69,10.61 96.04,10.49 96.40,10.49 96.75,10.40 97.10,10.42 97.45,10.20 97.81,9.96 98.16,9.69 98.51,9.37 98.86,9.06 99.22,8.73 99.57,8.45 99.92,8.27 100.28,8.13 100.63,7.77 100.98,7.36 101.33,6.96 101.69,6.76 102.04,6.33 102.39,6.09 102.74,5.99 103.10,5.72 103.45,5.57 103.80,5.51 104.15,5.37 104.51,5.31 104.86,5.22 105.21,5.02 105.57,4.84 105.92,4.69 106.27,4.50 106.62,4.47 106.98,4.53 107.33,4.70 107.68,4.93 108.03,5.18 108.39,5.86 108.74,6.57 109.09,7.22 109.44,7.59 109.80,8.18 110.15,8.56 110.50,8.93 110.86,9.53 111.21,9.99 111.56,10.18 111.91,10.67 112.27,11.21 112.62,11.76 112.97,11.98 113.32,12.39 113.68,12.68 114.03,12.81 114.38,56.00 114.73,55.63 115.09,54.68 115.44,53.88 115.79,52.74 116.14,52.28 116.50,51.17 116.85,51.08 117.20,50.23 117.56,50.26 117.91,49.71 118.26,49.10 118.61,48.28 118.97,47.45 119.32,46.72 119.67,45.77 120.02,47.26 120.38,48.77 120.73,46.95 121.08,46.80 121.43,46.76 121.79,46.73 122.14,46.56 122.49,46.09 122.85,45.13 123.20,43.83 123.55,42.43 123.90,41.76 124.26,41.20 124.61,42.11 124.96,41.89 125.31,42.74 125.67,43.02 126.02,43.77 126.37,44.20 126.72,44.80 127.08,44.23 127.43,43.62 127.78,44.13 128.14,42.37 128.49,41.35 128.84,41.55 129.19,40.14 129.55,41.08 129.90,39.35 130.25,38.95 130.60,38.18 130.96,38.00 131.31,37.74 131.66,37.99 132.01,37.50 132.37,36.80 132.72,37.04 133.07,36.07 133.43,35.34 133.78,34.71 134.13,35.11 134.48,34.16 134.84,33.82 135.19,33.22 135.54,33.32 135.89,33.44 136.25,33.19 136.60,32.83 136.95,32.28 137.30,31.89 137.66,30.96 138.01,30.70 138.36,29.61 138.71,29.61 139.07,28.35 139.42,28.30 139.77,29.57 140.13,29.19 140.48,29.13 140.83,29.45 141.18,27.84 141.54,27.84 141.89,26.80 142.24,26.25 142.59,25.38 142.95,25.13 143.30,24.86 143.65,24.62 144.00,24.33 144.36,23.94 144.71,22.82 145.06,22.29 145.42,22.07 145.77,21.69 146.12,21.57 146.47,21.38 146.83,21.22 147.18,21.51 147.53,21.39 147.88,21.20 148.24,21.61 148.59,20.91 148.94,20.67 149.29,20.47 149.65,20.36 150.00,20.34 150.35,20.57 150.71,20.54 151.06,20.75 151.41,20.94 151.76,20.42 152.12,19.94 152.47,19.41 152.82,18.81 153.17,18.54 153.53,18.18 153.88,17.86 154.23,18.04 154.58,17.94 154.94,17.57 155.29,17.57 155.64,17.67 156.00,17.61 156.35,17.48 156.70,17.30 157.05,17.15 157.41,16.98 157.76,16.64 158.11,16.35 158.46,16.01 158.82,15.82 159.17,15.57 159.52,15.58 159.87,15.50 160.23,15.68 160.58,15.76 160.93,16.07 161.29,16.21 161.64,16.30 161.99,16.47 162.34,16.46 162.70,16.62 163.05,16.77 163.40,16.85 163.75,16.89 164.11,16.89 164.46,16.52 164.81,16.52 165.16,16.36 165.52,16.64 165.87,16.95 166.22,17.31 166.57,17.50 166.93,17.33 167.28,17.30 167.63,16.96 167.99,17.02 168.34,16.66 168.69,16.61 169.04,16.12 169.40,16.19 169.75,15.78 170.10,15.38 170.45,15.35 170.81,15.04 171.16,14.65 171.51,14.33 171.86,14.01 172.22,13.64 172.57,13.27 172.92,12.73 173.28,12.52 173.63,12.21 173.98,12.35 174.33,12.35 174.69,12.23 175.04,12.47 175.39,12.66 175.74,12.68 176.10,12.42 176.45,12.08 176.80,12.09 177.15,12.15 177.51,12.26 177.86,12.45 178.21,12.06 178.57,11.66 178.92,12.01 179.27,11.42 179.62,10.66 179.98,10.22 180.33,10.39 180.68,10.10 181.03,10.47 181.39,10.30 181.74,10.05 182.09,10.05 182.44,9.63 182.80,9.16 183.15,9.37 183.50,8.84 183.86,8.35 184.21,8.44 184.56,7.82 184.91,7.93 185.27,7.29 185.62,7.35 185.97,6.72 186.32,6.77 186.68,6.08 187.03,6.19 187.38,5.65 187.73,5.70 188.09,5.14 188.44,5.23 188.79,5.31 189.14,4.90 189.50,4.96 189.85,4.95 190.20,4.56 190.56,4.42 190.91,4.26 191.26,4.19 191.61,4.07 191.97,4.75 192.32,4.69 192.67,4.66 193.02,5.59 193.38,6.67 193.73,6.65 194.08,7.46 194.43,7.90 194.79,8.32 195.14,8.70 195.49,9.22 195.85,9.66 196.20,10.14 196.55,10.69 196.90,11.31 197.26,11.65 197.61,11.65 197.96,11.99 198.31,12.33 198.67,12.51 199.02,12.54 199.37,12.49 199.72,12.44 200.08,12.54 200.43,12.55 200.78,12.73 201.14,12.68 201.49,12.75 201.84,12.65 202.19,12.67 202.55,12.90 202.90,13.28 203.25,13.74 203.60,14.20 203.96,14.54 204.31,15.16 204.66,15.16 205.01,15.35 205.37,55.85 205.72,55.85 206.07,55.85 206.43,53.26 206.78,53.26 207.13,53.26 207.48,51.84 207.84,51.84 208.19,51.84 208.54,51.39 208.89,51.39 209.25,51.39 209.60,50.14 209.95,50.14 210.30,50.14 210.66,48.72 211.01,48.72 211.36,48.72 211.71,47.58 212.07,47.58 212.42,47.58 212.77,46.08 213.13,46.08 213.48,46.08 213.83,46.08 214.18,42.74 214.54,42.74 214.89,42.74 215.24,40.13 215.59,42.57 215.95,42.57 216.30,42.57 216.65,44.59 217.00,44.59 217.36,46.29 217.71,46.29 218.06,46.29 218.42,46.29 218.77,44.31 219.12,44.31 219.47,41.59 219.83,43.03 220.18,43.03 220.53,43.03 220.88,39.42 221.24,38.43 221.59,38.43 221.94,38.43 222.29,39.32 222.65,39.32 223.00,37.42 223.35,37.87 223.71,37.87 224.06,37.87 224.41,35.30 224.76,35.79 225.12,35.79 225.47,35.79 225.82,33.56 226.17,33.56 226.53,34.42 226.88,33.61 227.23,33.61 227.58,33.61 227.94,33.28 228.29,33.28 228.64,32.19 229.00,30.89 229.35,30.89 229.70,30.89 230.05,30.93 230.41,30.93 230.76,30.93 231.11,29.80 231.46,29.80 231.82,30.08 232.17,30.08 232.52,30.08 232.87,27.07 233.23,27.07 233.58,25.54 233.93,25.54 234.29,25.54 234.64,24.76 234.99,24.76 235.34,24.76 235.70,23.47 236.05,23.47 236.40,22.82 236.75,22.82 237.11,22.82 237.46,21.90 237.81,21.90 238.16,21.90 238.52,21.52 238.87,21.52 239.22,24.09 239.57,22.73 239.93,22.73 240.28,21.69 240.63,21.69 240.99,21.69 241.34,21.21 241.69,21.21 242.04,21.21 242.40,21.68 242.75,21.68 243.10,21.68 243.45,19.45 243.81,19.45 244.16,19.45 244.51,17.79 244.86,17.79 245.22,17.79 245.57,17.79 245.92,18.15 246.28,17.90 246.63,17.90 246.98,17.90 247.33,17.68 247.69,17.68 248.04,18.43 248.39,17.01 248.74,17.01 249.10,17.01 249.45,16.09 249.80,16.09 250.15,15.88 250.51,15.53 250.86,15.53 251.21,15.53 251.57,15.87 251.92,15.87 252.27,16.21 252.62,16.36 252.98,16.36 253.33,16.36 253.68,16.79 254.03,17.20 254.39,17.20 254.74,16.79 255.09,16.79 255.44,16.49 255.80,16.49 256.15,16.49 256.50,16.95 256.86,17.10 257.21,17.10 257.56,17.10 257.91,17.27 258.27,17.27 258.62,16.43 258.97,16.21 259.32,16.21 259.68,16.21 260.03,16.18 260.38,16.18 260.73,14.96 261.09,14.96 261.44,14.96 261.79,13.99 262.14,13.99 262.50,13.99 262.85,12.91 263.20,12.91 263.56,12.91 263.91,12.34 264.26,12.34 264.61,12.34 264.97,12.91 265.32,12.91 265.67,11.72 266.02,11.72 266.38,12.34 266.73,12.34 267.08,12.51 267.43,12.01 267.79,12.01 268.14,11.50 268.49,11.50 268.85,11.50 269.20,11.59 269.55,11.59 269.90,11.59 270.26,10.44 270.61,10.44 270.96,10.44 271.31,10.44 271.67,9.88 272.02,9.88 272.37,9.88 272.72,10.25 273.08,10.25 273.43,9.46 273.78,9.46 274.14,9.00 274.49,9.00 274.84,8.80 275.19,7.72 275.55,7.72 275.90,7.72 276.25,7.47 276.60,7.47 276.96,6.57 277.31,5.86 277.66,5.86 278.01,5.86 278.37,5.83 278.72,5.83 279.07,5.58 279.43,5.32 279.78,5.32 280.13,5.32 280.48,5.09 280.84,5.09 281.19,5.09 281.54,4.71 281.89,4.71 282.25,4.35 282.60,4.35 282.95,4.35 283.30,4.00 283.66,4.00 284.01,4.00 284.36,6.72 284.71,6.72 285.07,6.72 285.42,6.72 285.77,9.52 286.13,9.52 286.48,9.52 286.83,11.03 287.18,11.03 287.54,11.03 287.89,12.55 288.24,11.16 288.59,11.16 288.95,11.16 289.30,12.46 289.65,12.46 290.00,12.46 290.36,12.70 290.71,12.70 291.06,12.70 291.42,12.65 291.77,13.00 292.12,13.00 292.47,13.00 292.83,12.79 293.18,13.04 293.53,13.04 293.88,13.56 294.24,13.56 294.59,13.56 294.94,15.19 295.29,15.19 295.65,15.19 296.00,15.83" />
</svg>