<svg width="300" height="60" xmlns="http://www.w3.org/2000/svg">
  <polyline fill="rgba(255,200,0,0.3)" stroke="#ffbb00" stroke-width="2" points="4.00,8.36 7.21,7.33 10.42,7.31 13.63,7.76 16.84,9.50 20.04,12.12 23.25,14.92 26.46,18.04 29.67,21.49 32.88,25.19 36.09,28.87 39.30,32.94 42.51,36.25 45.71,39.03 48.92,41.65 52.13,43.95 55.34,46.11 58.55,47.81 61.76,49.36 64.97,50.95 68.18,51.66 71.38,52.50 74.59,52.99 77.80,10.33 81.01,9.51 84.22,8.28 87.43,8.37 90.64,10.34 93.85,12.29 97.05,15.81 100.26,18.57 103.47,21.47 106.68,25.95 109.89,29.20 113.10,33.44 116.31,36.60 119.52,39.47 122.73,42.45 125.93,44.47 129.14,46.85 132.35,48.46 135.56,50.30 138.77,51.71 141.98,52.58 145.19,53.38 148.40,53.73 151.60,6.37 154.81,6.37 158.02,4.00 161.23,7.46 164.44,8.95 167.65,11.76 170.86,15.89 174.07,19.93 177.27,24.59 180.48,29.15 183.69,29.15 186.90,33.89 190.11,38.11 193.32,40.83 196.53,42.23 199.74,44.21 202.95,46.40 206.15,49.39 209.36,50.27 212.57,51.67 215.78,51.41 218.99,52.22 222.20,53.10 225.41,11.86 228.62,7.82 231.82,7.82 235.03,7.82 238.24,23.36 241.45,20.73 244.66,20.73 247.87,20.73 251.08,36.89 254.29,33.19 257.49,33.19 260.70,33.19 263.91,42.24 267.12,42.24 270.33,42.59 273.54,42.59 276.75,51.87 279.96,51.87 283.16,47.39 286.37,56.00 289.58,56.00 292.79,56.00 296.00,50.64" />
</svg>