<svg width="300" height="60" xmlns="http://www.w3.org/2000/svg">
  <polyline fill="rgba(255,200,0,0.3)" stroke="#ffbb00" stroke-width="2" points="4.00,55.89 4.44,55.93 4.88,55.57 5.31,55.08 5.75,54.82 6.19,54.67 6.63,54.26 7.06,55.15 7.50,54.19 7.94,53.90 8.38,53.65 8.82,52.37 9.25,51.79 9.69,50.53 10.13,50.03 10.57,50.05 11.00,50.25 11.44,50.52 11.88,51.29 12.32,51.93 12.76,51.53 13.19,51.29 13.63,51.25 14.07,51.27 14.51,51.43 14.94,51.56 15.38,51.69 15.82,52.07 16.26,52.26 16.70,52.21 17.13,51.99 17.57,52.00 18.01,51.87 18.45,52.03 18.88,51.96 19.32,50.65 19.76,48.31 20.20,47.12 20.64,44.77 21.07,43.52 21.51,43.18 21.95,42.78 22.39,43.26 22.82,44.03 23.26,46.05 23.70,46.48 24.14,45.36 24.58,43.20 25.01,40.81 25.45,38.17 25.89,36.20 26.33,35.46 26.76,34.79 27.20,35.39 27.64,35.37 28.08,36.03 28.52,35.85 28.95,34.97 29.39,35.32 29.83,36.22 30.27,37.14 30.70,39.76 31.14,38.89 31.58,35.60 32.02,32.98 32.46,31.40 32.89,31.41 33.33,32.69 33.77,35.00 34.21,36.98 34.64,37.65 35.08,36.60 35.52,36.08 35.96,35.75 36.40,35.62 36.83,35.67 37.27,36.19 37.71,37.62 38.15,38.39 38.58,38.91 39.02,37.79 39.46,34.20 39.90,32.45 40.34,32.04 40.77,33.68 41.21,35.25 41.65,35.76 42.09,35.41 42.52,34.78 42.96,34.26 43.40,33.82 43.84,33.35 44.28,33.58 44.71,33.73 45.15,34.66 45.59,34.15 46.03,32.87 46.46,30.96 46.90,29.66 47.34,28.93 47.78,29.15 48.22,29.03 48.65,28.35 49.09,28.26 49.53,28.43 49.97,27.16 50.40,26.15 50.84,25.51 51.28,25.13 51.72,24.71 52.16,25.30 52.59,26.03 53.03,27.68 53.47,28.94 53.91,29.24 54.34,28.65 54.78,28.31 55.22,28.32 55.66,28.38 56.10,28.84 56.53,28.37 56.97,27.15 57.41,26.69 57.85,26.79 58.28,26.90 58.72,26.78 59.16,26.96 59.60,26.66 60.04,25.28 60.47,23.86 60.91,22.91 61.35,23.08 61.79,23.36 62.22,24.03 62.66,23.09 63.10,22.13 63.54,21.52 63.98,20.99 64.41,20.28 64.85,19.51 65.29,18.80 65.73,18.36 66.16,18.50 66.60,19.53 67.04,19.37 67.48,16.92 67.92,15.85 68.35,15.49 68.79,15.13 69.23,15.00 69.67,14.79 70.10,14.43 70.54,13.85 70.98,12.22 71.42,11.43 71.86,10.35 72.29,10.08 72.73,9.45 73.17,9.28 73.61,9.48 74.04,9.38 74.48,9.33 74.92,7.66 75.36,6.42 75.80,5.42 76.23,4.52 76.67,4.15 77.11,55.75 77.55,56.00 77.99,55.70 78.42,55.16 78.86,54.95 79.30,55.34 79.74,54.59 80.17,55.01 80.61,54.27 81.05,53.99 81.49,53.67 81.93,52.80 82.36,51.75 82.80,50.78 83.24,50.55 83.68,50.02 84.11,50.26 84.55,50.64 84.99,51.66 85.43,51.98 85.87,51.85 86.30,51.48 86.74,51.37 87.18,51.36 87.62,51.49 88.05,51.66 88.49,51.80 88.93,51.46 89.37,51.82 89.81,52.52 90.24,52.30 90.68,52.06 91.12,51.74 91.56,51.82 91.99,52.04 92.43,51.07 92.87,49.52 93.31,47.70 93.75,45.81 94.18,43.50 94.62,43.16 95.06,42.45 95.50,43.39 95.93,44.27 96.37,46.35 96.81,46.86 97.25,45.28 97.69,42.95 98.12,41.12 98.56,38.40 99.00,36.23 99.44,35.03 99.87,35.25 100.31,34.89 100.75,35.35 101.19,36.31 101.63,35.80 102.06,34.82 102.50,35.59 102.94,36.43 103.38,37.65 103.81,39.64 104.25,38.84 104.69,35.63 105.13,32.75 105.57,31.52 106.00,31.67 106.44,32.57 106.88,35.11 107.32,37.00 107.75,37.98 108.19,36.54 108.63,36.13 109.07,35.88 109.51,35.64 109.94,36.23 110.38,36.30 110.82,38.08 111.26,38.42 111.69,38.82 112.13,38.14 112.57,34.24 113.01,32.30 113.45,31.88 113.88,33.52 114.32,35.28 114.76,36.17 115.20,35.54 115.63,35.18 116.07,34.35 116.51,34.03 116.95,33.72 117.39,33.41 117.82,33.97 118.26,34.64 118.70,34.04 119.14,33.14 119.57,30.99 120.01,29.73 120.45,28.45 120.89,29.12 121.33,29.16 121.76,28.34 122.20,28.46 122.64,28.32 123.08,26.79 123.51,26.20 123.95,25.60 124.39,25.11 124.83,24.82 125.27,25.41 125.70,26.15 126.14,27.50 126.58,28.78 127.02,28.76 127.45,28.70 127.89,28.26 128.33,28.33 128.77,28.43 129.21,28.69 129.64,28.42 130.08,26.98 130.52,26.68 130.96,26.79 131.39,26.89 131.83,26.74 132.27,27.00 132.71,26.50 133.15,25.17 133.58,24.05 134.02,22.81 134.46,23.17 134.90,23.87 135.33,23.91 135.77,23.23 136.21,22.14 136.65,21.58 137.09,21.13 137.52,20.45 137.96,19.70 138.40,19.00 138.84,18.22 139.27,18.59 139.71,19.85 140.15,19.15 140.59,17.51 141.03,15.74 141.46,15.56 141.90,15.07 142.34,14.87 142.78,14.86 143.21,14.41 143.65,13.59 144.09,12.83 144.53,11.88 144.97,10.13 145.40,10.07 145.84,9.61 146.28,9.27 146.72,9.47 147.15,9.69 147.59,9.12 148.03,7.57 148.47,6.54 148.91,5.49 149.34,4.37 149.78,4.00 150.22,55.95 150.66,55.84 151.09,55.65 151.53,55.30 151.97,54.97 152.41,55.14 152.85,54.85 153.28,54.90 153.72,54.45 154.16,53.87 154.60,53.38 155.03,53.00 155.47,51.92 155.91,50.70 156.35,50.53 156.79,49.56 157.22,50.11 157.66,51.45 158.10,50.89 158.54,52.42 158.97,52.21 159.41,51.33 159.85,51.28 160.29,51.28 160.73,51.54 161.16,51.17 161.60,51.73 162.04,52.11 162.48,52.11 162.91,52.13 163.35,51.92 163.79,51.74 164.23,51.80 164.67,51.53 165.10,51.41 165.54,51.18 165.98,48.57 166.42,47.88 166.85,46.27 167.29,44.97 167.73,44.36 168.17,42.37 168.61,43.01 169.04,44.15 169.48,45.70 169.92,46.70 170.36,44.84 170.79,42.60 171.23,39.78 171.67,37.35 172.11,35.76 172.55,34.88 172.98,34.56 173.42,34.60 173.86,36.40 174.30,36.10 174.73,36.10 175.17,35.16 175.61,36.77 176.05,36.80 176.49,37.09 176.92,40.11 177.36,38.25 177.80,35.15 178.24,32.75 178.67,31.19 179.11,32.63 179.55,33.59 179.99,36.74 180.43,36.74 180.86,38.87 181.30,37.10 181.74,35.56 182.18,35.91 182.61,35.15 183.05,36.05 183.49,35.92 183.93,38.08 184.37,38.08 184.80,38.81 185.24,36.36 185.68,33.33 186.12,32.98 186.55,31.71 186.99,33.08 187.43,34.59 187.87,36.22 188.31,35.34 188.74,34.46 189.18,33.69 189.62,34.48 190.06,34.07 190.49,33.99 190.93,34.34 191.37,34.42 191.81,33.46 192.25,33.46 192.68,31.51 193.12,29.83 193.56,29.51 194.00,28.28 194.43,28.68 194.87,28.55 195.31,28.55 195.75,28.85 196.19,27.10 196.62,26.82 197.06,25.65 197.50,24.77 197.94,25.66 198.37,25.74 198.81,26.57 199.25,27.79 199.69,28.71 200.13,28.73 200.56,28.33 201.00,28.22 201.44,28.23 201.88,28.41 202.31,28.38 202.75,27.49 203.19,26.66 203.63,26.54 204.07,26.54 204.50,26.76 204.94,26.82 205.38,26.62 205.82,26.40 206.25,25.85 206.69,24.59 207.13,23.27 207.57,22.88 208.01,23.87 208.44,23.26 208.88,22.74 209.32,21.79 209.76,21.79 210.19,20.88 210.63,19.72 211.07,20.18 211.51,19.24 211.95,17.88 212.38,18.83 212.82,19.88 213.26,17.83 213.70,17.83 214.13,16.84 214.57,15.74 215.01,14.88 215.45,15.19 215.89,14.60 216.32,14.11 216.76,13.43 217.20,11.87 217.64,12.35 218.07,10.99 218.51,9.84 218.95,9.02 219.39,9.78 219.83,9.51 220.26,9.38 220.70,8.44 221.14,7.37 221.58,7.37 222.01,5.97 222.45,4.59 222.89,4.92 223.33,55.65 223.77,55.65 224.20,55.01 224.64,55.01 225.08,55.01 225.52,53.85 225.96,53.85 226.39,53.85 226.83,53.82 227.27,53.32 227.71,53.32 228.14,53.32 228.58,50.72 229.02,50.72 229.46,50.72 229.90,48.50 230.33,52.17 230.77,52.17 231.21,50.69 231.65,50.69 232.08,52.06 232.52,52.06 232.96,49.84 233.40,49.84 233.84,51.53 234.27,51.53 234.71,51.53 235.15,51.07 235.59,51.07 236.02,51.07 236.46,51.07 236.90,50.11 237.34,50.11 237.78,50.11 238.21,49.16 238.65,49.16 239.09,49.16 239.53,49.16 239.96,46.87 240.40,46.87 240.84,46.87 241.28,46.81 241.72,46.81 242.15,46.81 242.59,45.43 243.03,45.43 243.47,45.43 243.90,41.70 244.34,37.77 244.78,37.77 245.22,34.82 245.66,34.82 246.09,34.82 246.53,34.35 246.97,39.98 247.41,39.98 247.84,39.98 248.28,39.45 248.72,39.45 249.16,39.45 249.60,37.05 250.03,37.05 250.47,37.05 250.91,30.99 251.35,34.85 251.78,34.85 252.22,36.07 252.66,36.07 253.10,36.07 253.54,36.07 253.97,38.98 254.41,38.98 254.85,38.98 255.29,36.49 255.72,36.49 256.16,36.49 256.60,36.36 257.04,37.32 257.48,37.32 257.91,37.32 258.35,33.57 258.79,33.63 259.23,33.63 259.66,33.63 260.10,33.63 260.54,36.61 260.98,36.61 261.42,36.61 261.85,34.62 262.29,34.62 262.73,34.62 263.17,33.95 263.60,33.95 264.04,33.95 264.48,31.59 264.92,31.59 265.36,31.59 265.79,33.71 266.23,30.09 266.67,30.09 267.11,30.09 267.54,24.93 267.98,30.30 268.42,30.30 268.86,30.30 269.30,25.92 269.73,25.92 270.17,25.92 270.61,24.79 271.05,29.43 271.48,29.43 271.92,28.96 272.36,28.96 272.80,28.96 273.24,27.74 273.67,27.74 274.11,27.74 274.55,25.48 274.99,25.48 275.42,25.48 275.86,23.51 276.30,23.51 276.74,23.51 277.18,23.51 277.61,25.07 278.05,25.07 278.49,25.07 278.93,24.90 279.36,24.90 279.80,24.90 280.24,23.54 280.68,23.54 281.12,23.54 281.55,21.74 281.99,22.29 282.43,22.29 282.87,22.29 283.30,18.56 283.74,19.79 284.18,19.79 284.62,19.79 285.06,16.67 285.49,18.51 285.93,18.51 286.37,15.36 286.81,15.36 287.24,15.36 287.68,15.36 288.12,12.89 288.56,11.61 289.00,11.61 289.43,11.00 289.87,11.00 290.31,11.00 290.75,10.67 291.18,10.67 291.62,10.67 292.06,9.47 292.50,9.47 292.94,9.47 293.37,7.19 293.81,7.19 294.25,8.66 294.69,8.66 295.12,6.00 295.56,6.00 296.00,5.09" />
</svg>