<svg width="300" height="60" xmlns="http://www.w3.org/2000/svg">
  <polyline fill="rgba(255,200,0,0.3)" stroke="#ffbb00" stroke-width="2" points="4.00,54.61 4.17,55.43 4.33,55.43 4.50,54.98 4.66,54.46 4.83,54.05 5.00,53.65 5.16,53.26 5.33,53.17 5.49,53.36 5.66,53.66 5.83,53.93 5.99,54.03 6.16,53.79 6.32,53.42 6.49,52.98 6.66,52.47 6.82,51.91 6.99,51.34 7.15,50.77 7.32,50.95 7.49,50.98 7.65,50.84 7.82,50.78 7.98,50.55 8.15,49.98 8.32,49.12 8.48,48.19 8.65,47.73 8.81,47.98 8.98,47.54 9.15,47.96 9.31,47.90 9.48,47.95 9.64,48.13 9.81,48.02 9.98,47.93 10.14,47.90 10.31,48.27 10.47,48.56 10.64,47.93 10.81,46.89 10.97,46.42 11.14,46.22 11.30,46.12 11.47,47.20 11.64,47.30 11.80,46.48 11.97,46.10 12.13,45.62 12.30,44.51 12.47,43.53 12.63,43.14 12.80,42.46 12.96,42.30 13.13,41.80 13.30,41.12 13.46,40.47 13.63,40.14 13.79,40.44 13.96,41.17 14.13,41.37 14.29,40.97 14.46,41.86 14.62,42.85 14.79,42.63 14.96,41.06 15.12,39.56 15.29,38.61 15.45,38.34 15.62,38.18 15.79,38.09 15.95,37.98 16.12,37.80 16.28,37.59 16.45,37.30 16.62,37.02 16.78,36.27 16.95,35.83 17.11,35.12 17.28,34.54 17.45,34.52 17.61,34.58 17.78,34.34 17.94,33.81 18.11,32.78 18.28,31.88 18.44,31.10 18.61,31.38 18.77,31.43 18.94,31.34 19.11,30.68 19.27,30.03 19.44,29.90 19.60,29.90 19.77,30.74 19.94,31.27 20.10,30.97 20.27,30.40 20.43,30.40 20.60,30.54 20.77,30.67 20.93,30.96 21.10,30.60 21.26,29.70 21.43,29.06 21.60,28.90 21.76,29.00 21.93,28.98 22.09,28.53 22.26,27.97 22.43,27.32 22.59,27.02 22.76,26.82 22.92,27.60 23.09,27.05 23.26,27.28 23.42,28.06 23.59,28.87 23.75,28.84 23.92,27.92 24.09,27.64 24.25,27.40 24.42,27.19 24.58,26.72 24.75,26.53 24.92,26.07 25.08,25.47 25.25,25.11 25.41,24.68 25.58,24.20 25.75,24.23 25.91,23.33 26.08,22.80 26.24,22.33 26.41,21.74 26.58,21.50 26.74,21.64 26.91,21.72 27.07,22.27 27.24,21.75 27.41,21.58 27.57,21.46 27.74,21.31 27.90,21.14 28.07,20.96 28.24,20.70 28.40,20.46 28.57,19.38 28.73,19.37 28.90,20.14 29.07,20.30 29.23,20.79 29.40,20.37 29.56,20.38 29.73,19.64 29.90,18.80 30.06,18.49 30.23,18.43 30.39,18.67 30.56,20.06 30.73,19.16 30.89,18.03 31.06,17.86 31.22,18.01 31.39,18.22 31.56,19.12 31.72,20.15 31.89,20.39 32.05,19.28 32.22,18.68 32.39,18.49 32.55,18.36 32.72,18.26 32.88,18.33 33.05,18.13 33.22,18.05 33.38,17.68 33.55,17.63 33.71,17.69 33.88,17.79 34.05,17.79 34.21,17.54 34.38,17.12 34.54,17.54 34.71,18.02 34.88,17.67 35.04,17.30 35.21,17.04 35.37,17.21 35.54,18.37 35.71,18.86 35.87,17.94 36.04,16.54 36.20,15.44 36.37,14.90 36.54,14.57 36.70,14.28 36.87,14.23 37.03,14.31 37.20,14.53 37.37,14.69 37.53,14.57 37.70,14.40 37.86,15.22 38.03,14.99 38.20,15.64 38.36,15.83 38.53,15.96 38.69,16.01 38.86,16.60 39.03,16.90 39.19,17.89 39.36,19.29 39.52,18.33 39.69,17.65 39.86,16.62 40.02,15.28 40.19,16.47 40.35,16.37 40.52,15.93 40.69,16.43 40.85,16.79 41.02,16.48 41.18,15.34 41.35,14.61 41.52,14.38 41.68,14.62 41.85,14.56 42.01,14.83 42.18,15.09 42.35,15.15 42.51,15.12 42.68,15.22 42.84,15.36 43.01,15.01 43.18,14.64 43.34,14.31 43.51,13.87 43.67,13.49 43.84,12.99 44.01,12.50 44.17,11.95 44.34,12.21 44.50,12.24 44.67,12.37 44.84,12.59 45.00,12.83 45.17,13.08 45.33,13.22 45.50,13.19 45.67,13.07 45.83,12.84 46.00,12.50 46.16,12.25 46.33,11.96 46.50,11.72 46.66,11.74 46.83,11.67 46.99,11.47 47.16,11.11 47.33,10.56 47.49,10.78 47.66,10.11 47.82,9.35 47.99,8.97 48.16,8.71 48.32,8.54 48.49,8.42 48.65,8.44 48.82,8.94 48.99,8.43 49.15,7.61 49.32,7.44 49.48,7.38 49.65,7.44 49.82,7.54 49.98,8.25 50.15,8.67 50.31,9.16 50.48,8.27 50.65,8.01 50.81,7.86 50.98,7.70 51.14,7.51 51.31,7.35 51.48,7.12 51.64,6.96 51.81,6.83 51.97,6.67 52.14,6.56 52.31,6.45 52.47,6.23 52.64,6.01 52.81,5.11 52.97,5.45 53.14,5.19 53.30,5.07 53.47,4.79 53.64,4.65 53.80,4.95 53.97,4.88 54.13,4.59 54.30,4.51 54.47,4.62 54.63,4.66 54.80,4.92 54.96,5.01 55.13,4.66 55.30,4.58 55.46,4.55 55.63,4.64 55.79,4.88 55.96,5.36 56.13,5.33 56.29,5.53 56.46,5.92 56.62,6.06 56.79,6.50 56.96,6.75 57.12,7.14 57.29,7.21 57.45,7.24 57.62,7.08 57.79,7.41 57.95,7.77 58.12,6.19 58.28,5.94 58.45,6.83 58.62,7.79 58.78,7.79 58.95,7.87 59.11,8.12 59.28,9.54 59.45,10.10 59.61,10.04 59.78,8.75 59.94,8.66 60.11,10.22 60.28,10.84 60.44,11.51 60.61,11.34 60.77,11.27 60.94,11.62 61.11,12.15 61.27,12.81 61.44,13.36 61.60,13.74 61.77,13.61 61.94,13.41 62.10,13.32 62.27,13.28 62.43,54.65 62.60,55.44 62.77,55.42 62.93,54.96 63.10,54.46 63.26,54.06 63.43,53.62 63.60,53.16 63.76,53.12 63.93,53.28 64.09,53.67 64.26,53.94 64.43,54.03 64.59,53.80 64.76,53.44 64.92,52.97 65.09,52.45 65.26,51.90 65.42,51.20 65.59,50.83 65.75,50.97 65.92,50.98 66.09,50.85 66.25,50.78 66.42,50.50 66.58,49.99 66.75,49.18 66.92,48.28 67.08,47.77 67.25,47.92 67.41,47.56 67.58,47.92 67.75,47.92 67.91,48.00 68.08,48.10 68.24,48.01 68.41,47.91 68.58,47.84 68.74,48.23 68.91,48.55 69.07,48.04 69.24,46.88 69.41,46.43 69.57,46.21 69.74,46.14 69.90,47.28 70.07,47.28 70.24,46.52 70.40,46.08 70.57,45.48 70.73,44.47 70.90,43.53 71.07,43.01 71.23,42.44 71.40,42.14 71.56,41.80 71.73,40.97 71.90,40.42 72.06,40.12 72.23,40.45 72.39,41.39 72.56,41.39 72.73,41.05 72.89,41.82 73.06,42.91 73.22,42.53 73.39,41.17 73.56,39.74 73.72,38.62 73.89,38.35 74.05,38.19 74.22,38.09 74.39,37.98 74.55,37.79 74.72,37.59 74.88,37.31 75.05,36.99 75.22,36.36 75.38,35.85 75.55,35.19 75.71,34.47 75.88,34.47 76.05,34.48 76.21,34.40 76.38,33.74 76.54,32.78 76.71,31.92 76.88,30.86 77.04,31.38 77.21,31.33 77.37,31.26 77.54,30.67 77.71,30.07 77.87,29.89 78.04,29.90 78.20,30.75 78.37,31.17 78.54,30.93 78.70,30.38 78.87,30.40 79.03,30.62 79.20,30.62 79.37,30.97 79.53,30.54 79.70,29.69 79.86,29.11 80.03,28.90 80.20,28.91 80.36,28.98 80.53,28.49 80.69,27.97 80.86,27.38 81.03,27.03 81.19,26.83 81.36,27.55 81.52,26.99 81.69,27.26 81.86,28.04 82.02,28.85 82.19,28.80 82.35,28.00 82.52,27.63 82.69,27.39 82.85,27.18 83.02,26.74 83.18,26.48 83.35,26.05 83.52,25.48 83.68,25.16 83.85,24.67 84.01,24.19 84.18,24.24 84.35,23.31 84.51,22.81 84.68,22.28 84.84,21.75 85.01,21.57 85.18,21.64 85.34,21.75 85.51,22.21 85.67,21.77 85.84,21.58 86.01,21.47 86.17,21.31 86.34,21.14 86.50,20.94 86.67,20.72 86.84,20.47 87.00,19.38 87.17,19.31 87.33,20.13 87.50,20.30 87.67,20.62 87.83,20.39 88.00,20.24 88.16,19.66 88.33,18.83 88.50,18.49 88.66,18.47 88.83,18.76 88.99,19.92 89.16,19.24 89.33,18.00 89.49,17.88 89.66,18.01 89.82,18.20 89.99,19.20 90.16,20.19 90.32,20.38 90.49,19.32 90.65,18.68 90.82,18.50 90.99,18.36 91.15,18.26 91.32,18.39 91.48,18.12 91.65,18.07 91.82,17.69 91.98,17.64 92.15,17.69 92.31,17.71 92.48,17.80 92.65,17.54 92.81,17.01 92.98,17.49 93.14,18.00 93.31,17.68 93.48,17.28 93.64,17.03 93.81,17.20 93.97,18.48 94.14,18.81 94.31,17.91 94.47,16.54 94.64,15.35 94.80,14.94 94.97,14.57 95.14,14.28 95.30,14.22 95.47,14.31 95.63,14.57 95.80,14.69 95.97,14.44 96.13,14.38 96.30,15.29 96.46,15.12 96.63,15.64 96.80,15.82 96.96,16.03 97.13,16.03 97.29,16.60 97.46,16.89 97.63,17.97 97.79,19.47 97.96,18.11 98.12,17.64 98.29,16.45 98.46,15.42 98.62,16.48 98.79,16.18 98.95,15.73 99.12,16.55 99.29,16.77 99.45,16.43 99.62,15.38 99.78,14.74 99.95,14.26 100.12,14.48 100.28,14.55 100.45,14.79 100.61,14.91 100.78,15.13 100.95,15.13 101.11,15.34 101.28,15.36 101.44,15.02 101.61,14.68 101.78,14.29 101.94,13.91 102.11,13.50 102.27,12.99 102.44,12.51 102.61,12.04 102.77,12.21 102.94,12.25 103.10,12.37 103.27,12.60 103.44,12.82 103.60,13.07 103.77,13.21 103.93,13.18 104.10,13.07 104.27,12.84 104.43,12.51 104.60,12.26 104.76,11.95 104.93,11.72 105.10,11.76 105.26,11.78 105.43,11.43 105.59,11.28 105.76,10.53 105.93,10.89 106.09,9.96 106.26,9.37 106.42,9.00 106.59,8.73 106.76,8.54 106.92,8.42 107.09,8.45 107.25,9.01 107.42,8.37 107.59,7.63 107.75,7.44 107.92,7.37 108.08,7.44 108.25,7.55 108.42,8.27 108.58,8.61 108.75,8.84 108.91,8.26 109.08,8.01 109.25,7.86 109.41,7.71 109.58,7.51 109.74,7.34 109.91,7.12 110.08,6.97 110.24,6.84 110.41,6.68 110.57,6.55 110.74,6.44 110.91,6.22 111.07,6.03 111.24,5.20 111.40,5.45 111.57,5.14 111.74,4.87 111.90,4.71 112.07,4.70 112.23,4.94 112.40,4.93 112.57,4.60 112.73,4.47 112.90,4.69 113.06,4.77 113.23,4.92 113.40,5.00 113.56,4.58 113.73,4.61 113.89,4.54 114.06,4.66 114.23,5.01 114.39,5.30 114.56,5.41 114.72,5.51 114.89,5.94 115.06,6.08 115.22,6.53 115.39,6.75 115.55,7.15 115.72,7.15 115.89,7.24 116.05,7.19 116.22,7.42 116.38,7.75 116.55,6.13 116.72,5.97 116.88,6.98 117.05,7.78 117.21,8.07 117.38,7.93 117.55,8.12 117.71,9.28 117.88,10.08 118.04,10.04 118.21,8.62 118.38,8.65 118.54,10.19 118.71,10.87 118.87,11.61 119.04,11.37 119.21,11.29 119.37,11.54 119.54,12.17 119.70,12.83 119.87,13.36 120.04,13.75 120.20,13.58 120.37,13.41 120.53,13.28 120.70,13.28 120.87,54.63 121.03,55.59 121.20,55.44 121.36,55.00 121.53,54.46 121.70,54.12 121.86,53.57 122.03,53.21 122.19,53.02 122.36,53.27 122.53,53.69 122.69,54.00 122.86,54.03 123.02,53.79 123.19,53.49 123.36,52.97 123.52,52.42 123.69,52.01 123.85,51.64 124.02,50.72 124.19,51.03 124.35,50.92 124.52,50.90 124.68,50.79 124.85,50.59 125.02,50.06 125.18,49.43 125.35,48.28 125.51,48.12 125.68,48.21 125.85,47.71 126.01,48.05 126.18,47.99 126.34,48.07 126.51,48.10 126.68,48.06 126.84,47.93 127.01,47.80 127.17,48.47 127.34,48.60 127.51,47.82 127.67,46.73 127.84,46.51 128.00,46.20 128.17,46.05 128.34,47.10 128.50,47.56 128.67,46.70 128.83,45.91 129.00,45.55 129.17,44.61 129.33,43.82 129.50,43.04 129.66,42.63 129.83,42.46 130.00,41.63 130.16,41.27 130.33,40.51 130.49,40.19 130.66,40.51 130.83,41.62 130.99,41.50 131.16,40.99 131.32,41.93 131.49,43.32 131.66,42.73 131.82,41.15 131.99,39.58 132.15,38.60 132.32,38.32 132.49,38.20 132.65,38.13 132.82,38.01 132.98,37.76 133.15,37.57 133.32,37.38 133.48,36.93 133.65,36.15 133.81,35.99 133.98,35.38 134.15,34.58 134.31,34.46 134.48,34.84 134.64,34.37 134.81,34.08 134.98,32.72 135.14,31.85 135.31,31.23 135.47,31.31 135.64,31.40 135.81,31.11 135.97,30.91 136.14,30.00 136.30,29.84 136.47,29.93 136.64,30.98 136.80,31.27 136.97,31.23 137.13,30.42 137.30,30.48 137.47,30.57 137.63,30.66 137.80,30.97 137.96,30.54 138.13,29.60 138.30,29.16 138.46,28.96 138.63,28.82 138.79,28.82 138.96,28.46 139.13,28.08 139.29,27.24 139.46,27.09 139.62,26.85 139.79,27.55 139.96,27.14 140.12,27.32 140.29,27.62 140.45,29.03 140.62,28.97 140.79,28.01 140.95,27.65 141.12,27.49 141.28,27.11 141.45,26.84 141.62,26.60 141.78,26.04 141.95,25.64 142.11,25.37 142.28,24.60 142.45,24.14 142.61,24.18 142.78,23.29 142.94,22.85 143.11,22.23 143.28,21.68 143.44,21.57 143.61,21.67 143.77,21.70 143.94,22.43 144.11,21.84 144.27,21.61 144.44,21.50 144.60,21.36 144.77,21.17 144.94,20.91 145.10,20.73 145.27,20.53 145.43,19.47 145.60,19.37 145.77,20.20 145.93,20.35 146.10,20.38 146.26,20.46 146.43,20.79 146.60,19.79 146.76,18.91 146.93,18.56 147.09,18.43 147.26,18.52 147.43,19.73 147.59,19.09 147.76,17.85 147.92,17.87 148.09,18.05 148.26,18.40 148.42,19.56 148.59,20.21 148.75,20.30 148.92,19.35 149.09,18.68 149.25,18.53 149.42,18.38 149.58,18.31 149.75,18.50 149.92,18.11 150.08,18.37 150.25,17.71 150.42,17.67 150.58,17.61 150.75,17.80 150.91,17.95 151.08,17.39 151.25,17.06 151.41,17.66 151.58,17.91 151.74,17.67 151.91,17.33 152.08,17.05 152.24,17.03 152.41,18.84 152.57,19.07 152.74,18.17 152.91,16.30 153.07,15.30 153.24,14.90 153.40,14.60 153.57,14.30 153.74,14.29 153.90,14.25 154.07,14.53 154.23,14.76 154.40,14.10 154.57,14.39 154.73,14.89 154.90,14.98 155.06,15.65 155.23,15.87 155.40,16.00 155.56,15.47 155.73,16.56 155.89,16.90 156.06,17.91 156.23,19.52 156.39,17.92 156.56,17.68 156.72,16.55 156.89,15.22 157.06,16.31 157.22,16.12 157.39,15.62 157.55,16.34 157.72,16.79 157.89,16.34 158.05,15.31 158.22,14.82 158.38,14.49 158.55,14.77 158.72,14.71 158.88,14.97 159.05,14.79 159.21,14.81 159.38,15.52 159.55,15.27 159.71,15.36 159.88,15.00 160.04,14.71 160.21,14.36 160.38,13.88 160.54,13.47 160.71,13.01 160.87,12.09 161.04,11.89 161.21,12.24 161.37,12.27 161.54,12.40 161.70,12.63 161.87,12.84 162.04,13.10 162.20,13.20 162.37,13.36 162.53,13.11 162.70,12.90 162.87,12.49 163.03,12.27 163.20,11.98 163.36,11.83 163.53,11.70 163.70,11.47 163.86,11.59 164.03,10.95 164.19,10.58 164.36,10.34 164.53,9.94 164.69,9.36 164.86,9.01 165.02,8.78 165.19,8.60 165.36,8.46 165.52,8.49 165.69,8.67 165.85,8.50 166.02,7.73 166.19,7.52 166.35,7.11 166.52,7.48 166.68,7.63 166.85,7.80 167.02,8.52 167.18,9.23 167.35,8.27 167.51,8.07 167.68,7.89 167.85,7.74 168.01,7.56 168.18,7.37 168.34,7.18 168.51,7.03 168.68,6.91 168.84,6.76 169.01,6.59 169.17,6.48 169.34,6.30 169.51,5.91 169.67,5.50 169.84,5.19 170.00,5.22 170.17,5.13 170.34,4.72 170.50,4.55 170.67,5.03 170.83,5.06 171.00,4.66 171.17,4.70 171.33,4.71 171.50,4.70 171.66,4.97 171.83,5.10 172.00,4.33 172.16,4.37 172.33,4.65 172.49,4.64 172.66,5.30 172.83,5.09 172.99,5.23 173.16,5.67 173.32,5.66 173.49,6.12 173.66,6.69 173.82,6.87 173.99,7.28 174.15,7.04 174.32,7.27 174.49,6.75 174.65,7.58 174.82,7.86 174.98,5.98 175.15,6.08 175.32,6.33 175.48,7.80 175.65,7.59 175.81,7.74 175.98,8.58 176.15,9.75 176.31,10.17 176.48,10.01 176.64,8.80 176.81,8.06 176.98,10.33 177.14,10.71 177.31,11.58 177.47,11.46 177.64,11.07 177.81,11.49 177.97,12.01 178.14,12.85 178.30,13.38 178.47,13.83 178.64,13.62 178.80,13.45 178.97,13.28 179.13,13.39 179.30,55.08 179.47,55.44 179.63,55.53 179.80,54.70 179.96,54.11 180.13,54.04 180.30,53.26 180.46,53.33 180.63,52.90 180.79,53.44 180.96,53.85 181.13,53.84 181.29,54.29 181.46,53.99 181.62,53.43 181.79,52.82 181.96,52.37 182.12,51.91 182.29,51.61 182.45,51.09 182.62,50.92 182.79,51.14 182.95,50.85 183.12,50.83 183.28,50.65 183.45,49.94 183.62,48.75 183.78,48.49 183.95,47.82 184.11,48.31 184.28,47.51 184.45,47.78 184.61,47.72 184.78,47.95 184.94,48.53 185.11,48.13 185.28,47.68 185.44,47.91 185.61,48.78 185.77,49.03 185.94,47.37 186.11,46.98 186.27,46.79 186.44,46.80 186.60,45.87 186.77,47.22 186.94,47.48 187.10,47.26 187.27,45.32 187.43,44.93 187.60,44.25 187.77,43.60 187.93,43.34 188.10,43.57 188.26,42.30 188.43,42.78 188.60,40.98 188.76,40.91 188.93,40.28 189.09,41.46 189.26,42.06 189.43,40.72 189.59,41.49 189.76,41.91 189.92,42.78 190.09,42.88 190.26,42.17 190.42,39.31 190.59,38.81 190.75,38.51 190.92,38.32 191.09,38.37 191.25,37.59 191.42,37.84 191.58,37.26 191.75,38.40 191.92,37.44 192.08,36.27 192.25,36.08 192.41,34.98 192.58,34.90 192.75,34.52 192.91,35.19 193.08,34.22 193.24,34.20 193.41,32.33 193.58,32.33 193.74,31.19 193.91,31.10 194.07,32.00 194.24,31.51 194.41,31.27 194.57,30.08 194.74,29.60 194.90,30.16 195.07,31.02 195.24,31.54 195.40,31.96 195.57,30.76 195.73,31.42 195.90,30.01 196.07,30.95 196.23,30.50 196.40,30.56 196.56,29.93 196.73,29.19 196.90,28.67 197.06,29.12 197.23,28.80 197.39,29.63 197.56,27.59 197.73,27.63 197.89,26.59 198.06,27.66 198.22,28.74 198.39,28.17 198.56,28.51 198.72,27.81 198.89,28.70 199.05,28.96 199.22,28.51 199.39,27.40 199.55,27.40 199.72,27.22 199.88,27.02 200.05,26.64 200.22,26.16 200.38,25.59 200.55,25.23 200.71,24.56 200.88,23.94 201.05,23.97 201.21,23.41 201.38,22.69 201.54,21.85 201.71,20.86 201.88,21.64 202.04,21.63 202.21,21.80 202.37,22.11 202.54,22.11 202.71,22.13 202.87,21.49 203.04,21.23 203.20,21.74 203.37,20.90 203.54,20.49 203.70,20.49 203.87,19.77 204.03,20.01 204.20,20.32 204.37,20.96 204.53,20.39 204.70,20.75 204.86,20.19 205.03,19.80 205.20,19.25 205.36,18.52 205.53,19.32 205.69,19.29 205.86,19.69 206.03,19.14 206.19,18.36 206.36,18.07 206.52,17.73 206.69,18.71 206.86,19.23 207.02,20.18 207.19,19.97 207.35,19.25 207.52,18.75 207.69,18.46 207.85,18.26 208.02,18.19 208.18,18.47 208.35,18.82 208.52,18.31 208.68,17.68 208.85,17.13 209.01,17.81 209.18,17.81 209.35,17.58 209.51,17.27 209.68,17.65 209.84,17.96 210.01,17.96 210.18,17.52 210.34,17.68 210.51,17.30 210.67,16.99 210.84,18.94 211.01,18.54 211.17,19.09 211.34,16.03 211.50,14.78 211.67,14.85 211.84,13.83 212.00,14.21 212.17,14.08 212.33,13.88 212.50,14.34 212.67,14.39 212.83,14.75 213.00,14.31 213.16,14.31 213.33,14.59 213.50,15.59 213.66,16.17 213.83,15.66 213.99,14.82 214.16,16.21 214.33,16.61 214.49,17.95 214.66,18.50 214.82,18.98 214.99,18.41 215.16,16.80 215.32,16.16 215.49,15.48 215.65,16.61 215.82,16.60 215.99,15.47 216.15,16.06 216.32,15.51 216.48,15.64 216.65,14.22 216.82,14.75 216.98,15.49 217.15,14.04 217.31,15.09 217.48,15.58 217.65,15.49 217.81,15.96 217.98,14.37 218.14,15.52 218.31,14.79 218.48,13.94 218.64,14.85 218.81,14.10 218.97,13.35 219.14,13.90 219.31,11.68 219.47,11.90 219.64,12.11 219.80,12.15 219.97,12.78 220.14,12.74 220.30,12.74 220.47,13.15 220.63,13.46 220.80,13.77 220.97,13.61 221.13,13.02 221.30,12.28 221.46,11.71 221.63,11.61 221.80,11.61 221.96,12.01 222.13,11.78 222.29,12.58 222.46,10.97 222.63,10.60 222.79,11.43 222.96,10.06 223.12,8.67 223.29,8.75 223.46,8.75 223.62,8.94 223.79,8.34 223.95,9.01 224.12,8.98 224.29,9.76 224.45,7.99 224.62,7.13 224.78,6.47 224.95,7.65 225.12,7.70 225.28,9.17 225.45,9.89 225.61,9.45 225.78,9.45 225.95,7.89 226.11,9.23 226.28,7.66 226.44,7.60 226.61,7.42 226.78,7.31 226.94,7.32 227.11,6.29 227.27,6.93 227.44,6.70 227.61,6.37 227.77,7.54 227.94,5.99 228.10,5.56 228.27,5.82 228.44,4.68 228.60,6.13 228.77,6.26 228.93,5.15 229.10,6.24 229.27,5.12 229.43,5.25 229.60,4.13 229.76,5.00 229.93,4.89 230.10,4.24 230.26,5.04 230.43,4.49 230.59,4.00 230.76,5.56 230.93,4.22 231.09,5.24 231.26,4.94 231.42,5.64 231.59,5.39 231.76,4.92 231.92,6.83 232.09,6.46 232.25,7.72 232.42,7.44 232.59,6.74 232.75,7.38 232.92,6.48 233.08,7.16 233.25,7.36 233.42,6.59 233.58,6.77 233.75,7.77 233.91,8.73 234.08,8.45 234.25,8.34 234.41,9.93 234.58,9.18 234.74,10.79 234.91,9.91 235.08,8.45 235.24,9.01 235.41,9.75 235.57,10.41 235.74,12.31 235.91,11.80 236.07,11.02 236.24,11.23 236.40,11.88 236.57,12.70 236.74,13.50 236.90,14.23 237.07,13.34 237.23,13.42 237.40,13.71 237.57,13.87 237.73,55.10 237.90,55.10 238.06,55.10 238.23,55.53 238.40,54.08 238.56,54.08 238.73,54.72 238.89,54.72 239.06,54.72 239.23,56.00 239.39,54.45 239.56,54.45 239.72,54.45 239.89,54.45 240.06,52.86 240.22,52.86 240.39,52.86 240.55,51.62 240.72,51.62 240.89,51.91 241.05,51.91 241.22,51.91 241.38,50.42 241.55,50.42 241.72,50.42 241.88,49.46 242.05,49.46 242.21,49.46 242.38,48.53 242.55,48.53 242.71,48.53 242.88,49.63 243.04,49.63 243.21,48.00 243.38,49.82 243.54,49.82 243.71,49.82 243.87,49.82 244.04,51.36 244.21,51.36 244.37,46.91 244.54,46.91 244.70,46.91 244.87,47.84 245.04,47.84 245.20,48.70 245.37,48.70 245.53,48.70 245.70,47.82 245.87,47.82 246.03,47.82 246.20,46.54 246.36,46.54 246.53,46.99 246.70,42.54 246.86,42.54 247.03,42.89 247.19,42.89 247.36,42.89 247.53,44.57 247.69,42.62 247.86,42.62 248.03,42.62 248.19,45.15 248.36,45.15 248.52,43.41 248.69,43.41 248.86,39.25 249.02,38.83 249.19,38.83 249.35,38.83 249.52,40.76 249.69,39.79 249.85,39.79 250.02,39.79 250.18,39.79 250.35,37.29 250.52,37.29 250.68,40.32 250.85,36.82 251.01,36.82 251.18,36.82 251.35,38.39 251.51,34.03 251.68,34.03 251.84,33.89 252.01,33.89 252.18,33.89 252.34,31.27 252.51,33.23 252.67,33.23 252.84,33.23 253.01,30.18 253.17,30.18 253.34,30.18 253.50,30.70 253.67,30.70 253.84,30.70 254.00,32.32 254.17,32.32 254.33,32.32 254.50,32.32 254.67,29.95 254.83,29.95 255.00,29.95 255.16,29.18 255.33,29.18 255.50,32.00 255.66,29.10 255.83,29.10 255.99,30.50 256.16,30.50 256.33,30.50 256.49,33.51 256.66,30.96 256.82,30.96 256.99,30.96 257.16,30.68 257.32,30.68 257.49,30.68 257.65,30.21 257.82,27.55 257.99,27.55 258.15,27.55 258.32,26.91 258.48,26.91 258.65,26.91 258.82,25.33 258.98,26.14 259.15,26.14 259.31,23.84 259.48,23.84 259.65,22.56 259.81,22.56 259.98,20.63 260.14,20.63 260.31,23.99 260.48,24.86 260.64,24.86 260.81,24.73 260.97,24.73 261.14,24.73 261.31,22.48 261.47,22.48 261.64,22.48 261.80,22.48 261.97,21.69 262.14,21.69 262.30,21.69 262.47,21.69 262.63,20.21 262.80,21.74 262.97,21.74 263.13,21.74 263.30,21.87 263.46,21.87 263.63,21.87 263.80,20.12 263.96,20.12 264.13,20.12 264.29,20.14 264.46,20.14 264.63,20.14 264.79,20.68 264.96,20.68 265.12,20.68 265.29,20.02 265.46,20.02 265.62,18.87 265.79,18.87 265.95,18.87 266.12,18.25 266.29,18.25 266.45,18.25 266.62,18.86 266.78,18.86 266.95,20.13 267.12,20.13 267.28,19.50 267.45,19.50 267.61,19.50 267.78,19.50 267.95,17.97 268.11,17.97 268.28,18.54 268.44,18.54 268.61,18.54 268.78,17.19 268.94,17.19 269.11,17.19 269.27,20.69 269.44,20.69 269.61,20.69 269.77,16.47 269.94,16.47 270.10,13.89 270.27,13.89 270.44,15.99 270.60,14.67 270.77,14.67 270.93,14.79 271.10,14.79 271.27,14.79 271.43,16.18 271.60,16.18 271.76,16.18 271.93,16.18 272.10,16.18 272.26,17.88 272.43,17.88 272.59,17.88 272.76,21.11 272.93,21.11 273.09,18.03 273.26,17.42 273.42,17.42 273.59,15.05 273.76,15.05 273.92,15.05 274.09,18.69 274.25,15.51 274.42,15.51 274.59,15.51 274.75,13.16 274.92,13.16 275.08,13.16 275.25,15.30 275.42,15.30 275.58,15.30 275.75,15.30 275.91,18.63 276.08,18.63 276.25,19.17 276.41,13.60 276.58,19.17 276.74,16.87 276.91,16.87 277.08,16.87 277.24,13.87 277.41,13.87 277.57,13.87 277.74,11.92 277.91,11.92 278.07,12.64 278.24,12.64 278.40,13.91 278.57,13.91 278.74,13.91 278.90,12.08 279.07,13.84 279.23,13.84 279.40,13.84 279.57,14.10 279.73,14.10 279.90,14.10 280.06,12.97 280.23,12.97 280.40,12.97 280.56,12.97 280.73,14.85 280.89,10.59 281.06,10.59 281.23,14.16 281.39,14.16 281.56,14.16 281.72,10.16 281.89,10.16 282.06,10.16 282.22,10.16 282.39,10.99 282.55,10.99 282.72,10.99 282.89,10.99 283.05,9.19 283.22,9.19 283.38,9.19 283.55,13.67 283.72,13.67 283.88,9.69 284.05,13.31 284.21,13.31 284.38,13.31 284.55,14.43 284.71,7.59 284.88,7.59 285.04,7.45 285.21,7.45 285.38,7.45 285.54,9.23 285.71,9.23 285.87,9.23 286.04,8.59 286.21,8.59 286.37,8.59 286.54,8.59 286.70,8.66 286.87,8.66 287.04,8.66 287.20,8.66 287.37,5.53 287.53,10.57 287.70,10.57 287.87,6.51 288.03,6.51 288.20,6.51 288.36,8.06 288.53,5.55 288.70,5.55 288.86,5.55 289.03,5.55 289.19,5.83 289.36,5.83 289.53,5.83 289.69,8.22 289.86,8.22 290.02,8.22 290.19,8.74 290.36,8.74 290.52,8.74 290.69,8.74 290.85,8.77 291.02,8.77 291.19,8.77 291.35,9.87 291.52,9.87 291.68,9.87 291.85,10.02 292.02,10.02 292.18,12.30 292.35,12.30 292.51,8.41 292.68,12.83 292.85,12.83 293.01,12.83 293.18,10.25 293.34,10.25 293.51,13.18 293.68,13.18 293.84,13.18 294.01,13.18 294.17,13.18 294.34,13.18 294.51,12.66 294.67,12.66 294.84,14.48 295.00,14.48 295.17,14.48 295.34,15.89 295.50,15.89 295.67,15.89 295.83,15.99 296.00,15.99" />
</svg>