<svg width="300" height="60" xmlns="http://www.w3.org/2000/svg">
  <polyline fill="rgba(255,200,0,0.3)" stroke="#ffbb00" stroke-width="2" points="4.00,55.86 4.15,55.63 4.30,55.50 4.44,54.96 4.59,54.50 4.74,54.60 4.89,54.23 5.04,53.85 5.18,53.63 5.33,53.44 5.48,53.35 5.63,53.51 5.78,53.56 5.92,53.97 6.07,54.01 6.22,54.13 6.37,53.79 6.51,53.54 6.66,53.20 6.81,52.58 6.96,52.08 7.11,51.77 7.25,51.50 7.40,51.50 7.55,52.00 7.70,52.06 7.85,51.91 7.99,51.70 8.14,50.63 8.29,50.02 8.44,49.78 8.59,49.90 8.73,50.12 8.88,50.02 9.03,49.69 9.18,49.29 9.33,48.94 9.47,48.63 9.62,48.15 9.77,47.81 9.92,47.39 10.06,46.77 10.21,46.70 10.36,46.94 10.51,47.53 10.66,47.98 10.80,48.55 10.95,48.55 11.10,49.00 11.25,48.38 11.40,48.10 11.54,47.47 11.69,47.34 11.84,47.02 11.99,46.83 12.14,46.76 12.28,47.16 12.43,47.21 12.58,47.49 12.73,47.70 12.88,47.51 13.02,46.89 13.17,46.18 13.32,45.60 13.47,45.08 13.61,44.70 13.76,44.68 13.91,45.03 14.06,45.23 14.21,45.36 14.35,45.57 14.50,45.55 14.65,44.98 14.80,44.44 14.95,44.05 15.09,43.58 15.24,43.17 15.39,43.09 15.54,44.01 15.69,45.25 15.83,45.28 15.98,44.89 16.13,44.38 16.28,44.21 16.43,44.50 16.57,45.12 16.72,45.22 16.87,45.23 17.02,45.31 17.17,45.47 17.31,45.20 17.46,45.22 17.61,45.24 17.76,45.62 17.90,44.71 18.05,44.45 18.20,43.49 18.35,42.85 18.50,42.44 18.64,42.17 18.79,42.00 18.94,41.87 19.09,41.84 19.24,41.95 19.38,42.49 19.53,42.51 19.68,42.79 19.83,43.10 19.98,43.35 20.12,43.65 20.27,43.73 20.42,43.43 20.57,43.08 20.72,42.43 20.86,41.91 21.01,41.23 21.16,41.07 21.31,40.71 21.45,40.21 21.60,39.91 21.75,39.75 21.90,39.41 22.05,39.02 22.19,38.85 22.34,38.67 22.49,38.52 22.64,38.69 22.79,38.57 22.93,39.42 23.08,39.71 23.23,40.39 23.38,40.47 23.53,40.30 23.67,40.32 23.82,40.06 23.97,39.65 24.12,39.34 24.27,39.51 24.41,39.64 24.56,39.54 24.71,39.22 24.86,39.03 25.01,38.32 25.15,37.73 25.30,37.33 25.45,37.37 25.60,38.16 25.74,38.46 25.89,38.54 26.04,37.99 26.19,37.69 26.34,37.49 26.48,36.93 26.63,36.41 26.78,35.75 26.93,35.22 27.08,34.79 27.22,34.33 27.37,34.12 27.52,34.30 27.67,34.75 27.82,35.36 27.96,35.49 28.11,35.49 28.26,35.15 28.41,34.94 28.56,34.75 28.70,34.07 28.85,33.69 29.00,33.72 29.15,34.14 29.29,34.16 29.44,34.39 29.59,34.08 29.74,33.52 29.89,33.36 30.03,32.98 30.18,32.54 30.33,32.55 30.48,32.59 30.63,32.63 30.77,33.10 30.92,33.44 31.07,33.18 31.22,32.68 31.37,32.24 31.51,32.03 31.66,31.97 31.81,32.13 31.96,32.31 32.11,32.26 32.25,32.13 32.40,32.00 32.55,32.01 32.70,31.75 32.84,31.82 32.99,32.46 33.14,32.79 33.29,33.02 33.44,33.23 33.58,33.62 33.73,34.00 33.88,33.64 34.03,33.20 34.18,32.98 34.32,32.93 34.47,32.77 34.62,32.61 34.77,31.97 34.92,31.57 35.06,31.26 35.21,30.88 35.36,30.90 35.51,31.16 35.66,31.51 35.80,30.94 35.95,30.38 36.10,29.90 36.25,29.63 36.40,29.62 36.54,30.06 36.69,30.64 36.84,30.48 36.99,30.23 37.13,30.14 37.28,30.24 37.43,29.96 37.58,29.72 37.73,29.58 37.87,29.47 38.02,29.32 38.17,29.19 38.32,29.11 38.47,28.74 38.61,28.46 38.76,28.19 38.91,27.59 39.06,27.38 39.21,27.32 39.35,27.13 39.50,27.21 39.65,27.14 39.80,27.02 39.95,27.12 40.09,26.98 40.24,26.71 40.39,26.27 40.54,25.80 40.68,25.32 40.83,25.03 40.98,24.86 41.13,24.84 41.28,25.00 41.42,25.44 41.57,25.37 41.72,25.21 41.87,25.05 42.02,24.63 42.16,24.66 42.31,24.76 42.46,24.67 42.61,24.50 42.76,24.32 42.90,24.16 43.05,24.00 43.20,23.90 43.35,23.75 43.50,23.20 43.64,22.45 43.79,22.38 43.94,22.56 44.09,22.78 44.24,23.00 44.38,23.60 44.53,23.76 44.68,23.42 44.83,22.92 44.97,22.61 45.12,22.63 45.27,22.46 45.42,22.08 45.57,21.86 45.71,21.86 45.86,21.55 46.01,21.09 46.16,20.83 46.31,20.97 46.45,20.98 46.60,21.02 46.75,20.83 46.90,20.38 47.05,19.88 47.19,19.58 47.34,19.46 47.49,19.38 47.64,19.56 47.79,19.23 47.93,19.03 48.08,18.82 48.23,18.67 48.38,18.48 48.52,18.33 48.67,18.38 48.82,18.06 48.97,17.80 49.12,17.38 49.26,16.98 49.41,16.80 49.56,17.15 49.71,17.32 49.86,18.20 50.00,18.51 50.15,18.49 50.30,18.17 50.45,17.70 50.60,17.13 50.74,16.28 50.89,15.64 51.04,15.63 51.19,15.85 51.34,15.98 51.48,16.08 51.63,15.64 51.78,15.57 51.93,15.34 52.07,15.07 52.22,14.86 52.37,14.61 52.52,14.21 52.67,14.09 52.81,13.96 52.96,14.05 53.11,14.28 53.26,14.44 53.41,14.18 53.55,13.28 53.70,12.63 53.85,12.34 54.00,12.32 54.15,12.50 54.29,12.07 54.44,11.76 54.59,11.57 54.74,11.41 54.89,11.30 55.03,11.18 55.18,11.05 55.33,10.93 55.48,10.81 55.63,10.64 55.77,10.47 55.92,10.29 56.07,10.10 56.22,10.03 56.36,10.01 56.51,10.17 56.66,9.79 56.81,9.50 56.96,9.35 57.10,9.04 57.25,9.04 57.40,9.36 57.55,9.95 57.70,10.11 57.84,10.13 57.99,9.76 58.14,9.05 58.29,8.07 58.44,7.81 58.58,7.41 58.73,7.30 58.88,7.36 59.03,7.51 59.18,7.71 59.32,7.47 59.47,6.98 59.62,6.49 59.77,6.26 59.91,6.07 60.06,5.82 60.21,5.68 60.36,5.86 60.51,6.14 60.65,6.32 60.80,6.32 60.95,6.31 61.10,6.25 61.25,5.90 61.39,5.45 61.54,4.99 61.69,4.54 61.84,4.36 61.99,4.13 62.13,4.06 62.28,4.00 62.43,55.91 62.58,55.63 62.73,55.51 62.87,54.87 63.02,54.51 63.17,54.46 63.32,54.20 63.47,53.93 63.61,53.61 63.76,53.34 63.91,53.48 64.06,53.42 64.20,53.67 64.35,53.98 64.50,54.00 64.65,54.14 64.80,53.81 64.94,53.59 65.09,53.20 65.24,52.77 65.39,52.12 65.54,51.74 65.68,51.50 65.83,51.44 65.98,51.97 66.13,52.07 66.28,51.89 66.42,51.68 66.57,50.64 66.72,50.01 66.87,49.75 67.02,49.88 67.16,50.11 67.31,50.00 67.46,49.63 67.61,49.25 67.75,48.96 67.90,48.59 68.05,48.17 68.20,47.78 68.35,47.35 68.49,46.77 68.64,46.69 68.79,46.92 68.94,47.49 69.09,47.98 69.23,48.54 69.38,48.55 69.53,49.02 69.68,48.37 69.83,48.17 69.97,47.55 70.12,47.28 70.27,47.00 70.42,46.71 70.57,46.82 70.71,47.16 70.86,47.26 71.01,47.48 71.16,47.72 71.30,47.47 71.45,46.79 71.60,46.19 71.75,45.72 71.90,45.07 72.04,44.79 72.19,44.69 72.34,45.05 72.49,45.27 72.64,45.29 72.78,45.44 72.93,45.54 73.08,45.15 73.23,44.41 73.38,43.96 73.52,43.54 73.67,43.07 73.82,43.13 73.97,43.94 74.12,45.23 74.26,45.28 74.41,44.92 74.56,44.47 74.71,44.19 74.86,44.56 75.00,45.10 75.15,45.29 75.30,45.23 75.45,45.38 75.59,45.42 75.74,45.22 75.89,45.19 76.04,45.14 76.19,45.65 76.33,44.71 76.48,44.49 76.63,43.53 76.78,42.78 76.93,42.44 77.07,42.14 77.22,41.96 77.37,41.80 77.52,41.85 77.67,41.85 77.81,42.44 77.96,42.51 78.11,42.71 78.26,43.10 78.41,43.42 78.55,43.63 78.70,43.64 78.85,43.37 79.00,43.06 79.14,42.39 79.29,41.78 79.44,41.24 79.59,41.06 79.74,40.78 79.88,40.16 80.03,39.99 80.18,39.76 80.33,39.37 80.48,39.01 80.62,38.81 80.77,38.68 80.92,38.46 81.07,38.64 81.22,38.56 81.36,39.43 81.51,39.83 81.66,40.43 81.81,40.48 81.96,40.31 82.10,40.36 82.25,40.09 82.40,39.65 82.55,39.34 82.70,39.53 82.84,39.55 82.99,39.55 83.14,39.22 83.29,38.99 83.43,38.28 83.58,37.73 83.73,37.28 83.88,37.46 84.03,38.16 84.17,38.52 84.32,38.49 84.47,38.03 84.62,37.69 84.77,37.43 84.91,36.92 85.06,36.34 85.21,35.88 85.36,35.27 85.51,34.77 85.65,34.31 85.80,34.13 85.95,34.26 86.10,34.75 86.25,35.44 86.39,35.49 86.54,35.41 86.69,35.15 86.84,34.94 86.98,34.78 87.13,34.05 87.28,33.68 87.43,33.72 87.58,34.17 87.72,34.14 87.87,34.44 88.02,34.08 88.17,33.51 88.32,33.35 88.46,33.03 88.61,32.70 88.76,32.58 88.91,32.59 89.06,32.70 89.20,33.09 89.35,33.44 89.50,33.24 89.65,32.58 89.80,32.18 89.94,31.99 90.09,31.95 90.24,32.13 90.39,32.25 90.53,32.32 90.68,32.10 90.83,32.01 90.98,32.00 91.13,31.77 91.27,31.83 91.42,32.38 91.57,32.74 91.72,33.04 91.87,33.23 92.01,33.61 92.16,33.94 92.31,33.64 92.46,33.29 92.61,32.96 92.75,32.93 92.90,32.79 93.05,32.60 93.20,32.17 93.35,31.58 93.49,31.25 93.64,31.05 93.79,31.01 93.94,31.15 94.09,31.57 94.23,31.04 94.38,30.36 94.53,29.94 94.68,29.66 94.82,29.65 94.97,30.26 95.12,30.64 95.27,30.50 95.42,30.22 95.56,30.14 95.71,30.23 95.86,29.96 96.01,29.71 96.16,29.59 96.30,29.47 96.45,29.34 96.60,29.19 96.75,29.16 96.90,28.73 97.04,28.45 97.19,28.13 97.34,27.62 97.49,27.41 97.64,27.31 97.78,27.15 97.93,27.28 98.08,27.25 98.23,27.07 98.37,27.12 98.52,26.98 98.67,26.64 98.82,26.26 98.97,25.85 99.11,25.38 99.26,25.04 99.41,24.83 99.56,24.82 99.71,25.02 99.85,25.41 100.00,25.37 100.15,25.21 100.30,25.06 100.45,24.65 100.59,24.58 100.74,24.78 100.89,24.68 101.04,24.50 101.19,24.31 101.33,24.14 101.48,24.01 101.63,23.90 101.78,23.76 101.93,23.11 102.07,22.43 102.22,22.41 102.37,22.68 102.52,22.78 102.66,23.01 102.81,23.58 102.96,23.79 103.11,23.48 103.26,22.93 103.40,22.66 103.55,22.60 103.70,22.49 103.85,22.16 104.00,21.88 104.14,21.90 104.29,21.62 104.44,21.09 104.59,20.77 104.74,20.95 104.88,20.99 105.03,20.98 105.18,20.80 105.33,20.44 105.48,19.88 105.62,19.58 105.77,19.46 105.92,19.37 106.07,19.44 106.21,19.21 106.36,19.03 106.51,18.81 106.66,18.68 106.81,18.49 106.95,18.33 107.10,18.45 107.25,18.05 107.40,17.80 107.55,17.42 107.69,17.02 107.84,16.86 107.99,17.18 108.14,17.34 108.29,18.22 108.43,18.52 108.58,18.44 108.73,18.14 108.88,17.76 109.03,17.06 109.17,16.35 109.32,15.67 109.47,15.66 109.62,15.79 109.76,15.98 109.91,16.11 110.06,15.61 110.21,15.52 110.36,15.33 110.50,15.08 110.65,14.89 110.80,14.59 110.95,14.23 111.10,14.10 111.24,13.88 111.39,14.04 111.54,14.21 111.69,14.42 111.84,14.07 111.98,13.41 112.13,12.64 112.28,12.34 112.43,12.28 112.58,12.53 112.72,12.21 112.87,11.77 113.02,11.57 113.17,11.41 113.32,11.31 113.46,11.17 113.61,11.05 113.76,10.91 113.91,10.82 114.05,10.63 114.20,10.46 114.35,10.30 114.50,10.04 114.65,10.02 114.79,9.98 114.94,10.23 115.09,9.87 115.24,9.49 115.39,9.33 115.53,9.10 115.68,9.04 115.83,9.45 115.98,9.97 116.13,10.06 116.27,10.11 116.42,9.80 116.57,9.00 116.72,8.02 116.87,7.81 117.01,7.49 117.16,7.26 117.31,7.37 117.46,7.53 117.60,7.73 117.75,7.42 117.90,6.90 118.05,6.47 118.20,6.26 118.34,6.14 118.49,5.71 118.64,5.68 118.79,5.88 118.94,6.14 119.08,6.30 119.23,6.32 119.38,6.35 119.53,6.22 119.68,5.90 119.82,5.42 119.97,5.00 120.12,4.52 120.27,4.35 120.42,4.16 120.56,4.05 120.71,4.00 120.86,56.00 121.01,55.70 121.16,55.24 121.30,54.50 121.45,54.26 121.60,54.66 121.75,54.16 121.89,54.14 122.04,53.57 122.19,53.59 122.34,53.63 122.49,53.47 122.63,53.77 122.78,53.99 122.93,54.03 123.08,54.08 123.23,53.93 123.37,53.60 123.52,53.30 123.67,52.89 123.82,52.13 123.97,51.86 124.11,51.37 124.26,51.45 124.41,52.02 124.56,52.09 124.71,51.95 124.85,51.76 125.00,50.71 125.15,50.07 125.30,49.83 125.44,49.91 125.59,50.03 125.74,50.10 125.89,49.70 126.04,49.36 126.18,49.10 126.33,48.70 126.48,48.25 126.63,47.73 126.78,47.37 126.92,46.93 127.07,46.78 127.22,47.01 127.37,47.62 127.52,47.85 127.66,48.56 127.81,48.59 127.96,48.91 128.11,48.39 128.26,48.09 128.40,47.64 128.55,47.30 128.70,47.02 128.85,46.90 128.99,46.69 129.14,47.20 129.29,47.35 129.44,47.38 129.59,47.66 129.73,47.57 129.88,46.75 130.03,46.25 130.18,45.97 130.33,45.21 130.47,44.81 130.62,44.71 130.77,45.25 130.92,45.41 131.07,45.46 131.21,45.45 131.36,45.49 131.51,44.87 131.66,44.59 131.81,44.08 131.95,43.41 132.10,43.08 132.25,43.12 132.40,43.83 132.55,45.20 132.69,45.35 132.84,45.25 132.99,44.50 133.14,44.16 133.28,44.69 133.43,45.07 133.58,45.18 133.73,45.56 133.88,45.32 134.02,45.19 134.17,45.07 134.32,45.04 134.47,45.60 134.62,45.81 134.76,44.72 134.91,44.44 135.06,43.76 135.21,43.17 135.36,42.48 135.50,42.11 135.65,42.13 135.80,41.99 135.95,41.79 136.10,41.99 136.24,42.66 136.39,42.56 136.54,42.89 136.69,43.14 136.83,43.38 136.98,43.61 137.13,43.77 137.28,43.54 137.43,42.88 137.57,42.19 137.72,42.07 137.87,41.37 138.02,41.12 138.17,40.93 138.31,40.19 138.46,39.93 138.61,39.80 138.76,39.47 138.91,39.07 139.05,38.91 139.20,38.75 139.35,38.46 139.50,38.29 139.65,38.60 139.79,39.44 139.94,39.71 140.09,40.51 140.24,40.58 140.39,40.27 140.53,40.26 140.68,39.89 140.83,39.69 140.98,39.29 141.12,39.49 141.27,39.70 141.42,39.82 141.57,39.24 141.72,39.02 141.86,38.18 142.01,37.88 142.16,37.31 142.31,37.47 142.46,38.20 142.60,38.60 142.75,38.73 142.90,38.31 143.05,37.70 143.20,37.25 143.34,37.00 143.49,36.37 143.64,36.03 143.79,35.16 143.94,34.86 144.08,34.27 144.23,34.35 144.38,34.18 144.53,34.74 144.67,35.16 144.82,35.47 144.97,35.39 145.12,35.28 145.27,34.97 145.41,34.84 145.56,34.17 145.71,33.94 145.86,33.82 146.01,34.11 146.15,34.31 146.30,34.35 146.45,34.28 146.60,33.55 146.75,33.39 146.89,33.00 147.04,32.79 147.19,32.32 147.34,32.63 147.49,32.60 147.63,33.30 147.78,33.43 147.93,33.34 148.08,32.67 148.22,32.38 148.37,32.18 148.52,32.12 148.67,31.83 148.82,32.38 148.96,32.43 149.11,32.07 149.26,32.02 149.41,31.63 149.56,31.66 149.70,31.84 149.85,32.45 150.00,32.79 150.15,33.07 150.30,33.24 150.44,33.58 150.59,34.01 150.74,33.70 150.89,32.87 151.04,32.84 151.18,32.96 151.33,32.77 151.48,32.54 151.63,31.96 151.78,31.56 151.92,31.55 152.07,30.65 152.22,30.77 152.37,30.96 152.51,31.74 152.66,30.76 152.81,30.46 152.96,29.83 153.11,29.67 153.25,29.65 153.40,30.04 153.55,30.50 153.70,30.49 153.85,30.06 153.99,30.09 154.14,30.32 154.29,29.95 154.44,29.64 154.59,29.60 154.73,29.47 154.88,29.51 155.03,29.27 155.18,29.10 155.33,28.73 155.47,28.49 155.62,28.21 155.77,27.61 155.92,27.41 156.06,27.40 156.21,27.02 156.36,27.11 156.51,27.24 156.66,27.14 156.80,27.16 156.95,27.03 157.10,26.63 157.25,26.26 157.40,25.79 157.54,25.42 157.69,24.98 157.84,24.86 157.99,24.89 158.14,25.23 158.28,25.51 158.43,25.41 158.58,25.24 158.73,25.12 158.88,24.70 159.02,24.40 159.17,24.78 159.32,24.69 159.47,24.50 159.61,24.35 159.76,24.15 159.91,23.99 160.06,23.92 160.21,23.76 160.35,23.08 160.50,22.52 160.65,22.21 160.80,22.35 160.95,22.73 161.09,22.92 161.24,23.51 161.39,23.72 161.54,23.44 161.69,22.86 161.83,22.74 161.98,22.51 162.13,22.27 162.28,22.22 162.43,22.06 162.57,21.90 162.72,21.56 162.87,21.02 163.02,20.77 163.17,20.97 163.31,20.77 163.46,21.03 163.61,20.89 163.76,20.32 163.90,19.92 164.05,19.60 164.20,19.47 164.35,19.51 164.50,19.42 164.64,19.16 164.79,19.08 164.94,18.87 165.09,18.71 165.24,18.51 165.38,18.30 165.53,18.45 165.68,18.00 165.83,17.80 165.98,17.59 166.12,17.08 166.27,16.97 166.42,17.06 166.57,17.32 166.72,18.08 166.86,18.46 167.01,18.41 167.16,18.17 167.31,17.56 167.45,17.18 167.60,16.46 167.75,15.74 167.90,15.72 168.05,15.79 168.19,15.71 168.34,16.09 168.49,15.69 168.64,15.38 168.79,15.47 168.93,14.96 169.08,14.93 169.23,14.55 169.38,14.21 169.53,14.10 169.67,13.94 169.82,14.16 169.97,14.34 170.12,14.52 170.27,14.31 170.41,13.56 170.56,12.70 170.71,12.40 170.86,12.50 171.01,12.64 171.15,12.22 171.30,11.74 171.45,11.59 171.60,11.44 171.74,11.31 171.89,11.11 172.04,11.06 172.19,10.92 172.34,10.80 172.48,10.66 172.63,10.49 172.78,10.33 172.93,10.17 173.08,10.02 173.22,10.03 173.37,10.13 173.52,10.01 173.67,9.49 173.82,9.33 173.96,9.17 174.11,8.99 174.26,9.50 174.41,9.89 174.56,10.20 174.70,10.05 174.85,9.75 175.00,9.05 175.15,7.96 175.29,7.84 175.44,7.68 175.59,6.94 175.74,7.39 175.89,7.44 176.03,7.68 176.18,7.39 176.33,7.08 176.48,6.42 176.63,6.29 176.77,5.92 176.92,5.81 177.07,5.68 177.22,5.85 177.37,6.07 177.51,6.23 177.66,6.27 177.81,6.32 177.96,6.31 178.11,5.85 178.25,5.52 178.40,4.98 178.55,4.58 178.70,4.37 178.84,4.22 178.99,4.10 179.14,4.02 179.29,55.84 179.44,55.66 179.58,55.57 179.73,54.31 179.88,54.50 180.03,54.93 180.18,54.15 180.32,54.60 180.47,53.65 180.62,54.13 180.77,53.25 180.92,53.72 181.06,53.87 181.21,53.94 181.36,53.88 181.51,54.15 181.66,53.77 181.80,53.71 181.95,53.26 182.10,52.73 182.25,52.12 182.40,52.16 182.54,51.82 182.69,51.65 182.84,51.63 182.99,52.51 183.13,52.31 183.28,51.87 183.43,50.90 183.58,49.86 183.73,50.00 183.87,49.80 184.02,50.08 184.17,50.15 184.32,50.09 184.47,49.17 184.61,49.16 184.76,48.43 184.91,48.64 185.06,48.08 185.21,47.33 185.35,46.77 185.50,47.09 185.65,46.97 185.80,47.54 185.95,48.11 186.09,48.68 186.24,48.71 186.39,48.65 186.54,48.29 186.68,47.44 186.83,47.64 186.98,46.89 187.13,46.59 187.28,47.08 187.42,46.90 187.57,46.87 187.72,47.49 187.87,47.62 188.02,47.85 188.16,47.19 188.31,46.39 188.46,45.78 188.61,46.04 188.76,45.25 188.90,44.86 189.05,44.85 189.20,45.62 189.35,45.06 189.50,45.09 189.64,45.13 189.79,45.76 189.94,45.14 190.09,44.50 190.24,43.73 190.38,43.47 190.53,43.17 190.68,42.88 190.83,44.05 190.97,45.07 191.12,45.13 191.27,44.61 191.42,44.26 191.57,44.45 191.71,44.82 191.86,44.52 192.01,45.47 192.16,46.22 192.31,45.38 192.45,44.92 192.60,45.57 192.75,45.17 192.90,45.38 193.05,45.38 193.19,44.82 193.34,44.14 193.49,43.16 193.64,43.48 193.79,42.09 193.93,41.29 194.08,41.78 194.23,41.40 194.38,41.46 194.52,42.35 194.67,42.24 194.82,42.32 194.97,42.44 195.12,42.55 195.26,42.70 195.41,43.02 195.56,43.62 195.71,43.25 195.86,42.14 196.00,41.83 196.15,42.74 196.30,41.60 196.45,41.42 196.60,40.71 196.74,40.35 196.89,39.86 197.04,39.43 197.19,39.79 197.34,39.38 197.48,39.11 197.63,38.92 197.78,38.59 197.93,38.58 198.07,38.59 198.22,39.63 198.37,39.88 198.52,40.64 198.67,40.10 198.81,39.96 198.96,40.65 199.11,39.84 199.26,39.64 199.41,39.67 199.55,39.13 199.70,39.26 199.85,39.41 200.00,39.15 200.15,38.72 200.29,38.40 200.44,37.86 200.59,36.95 200.74,37.11 200.89,37.78 201.03,38.38 201.18,38.18 201.33,38.51 201.48,37.61 201.63,36.83 201.77,37.11 201.92,36.15 202.07,36.32 202.22,34.97 202.36,35.16 202.51,34.17 202.66,33.92 202.81,34.37 202.96,34.37 203.10,34.63 203.25,35.10 203.40,35.46 203.55,35.09 203.70,34.79 203.84,34.79 203.99,34.53 204.14,33.89 204.29,33.96 204.44,34.12 204.58,34.62 204.73,34.10 204.88,34.16 205.03,33.77 205.18,33.43 205.32,32.52 205.47,32.53 205.62,32.04 205.77,32.66 205.91,32.82 206.06,33.73 206.21,33.01 206.36,32.70 206.51,32.90 206.65,32.34 206.80,32.17 206.95,32.17 207.10,32.16 207.25,32.34 207.39,32.39 207.54,31.78 207.69,32.15 207.84,32.08 207.99,31.44 208.13,31.66 208.28,32.16 208.43,33.09 208.58,32.75 208.73,33.22 208.87,33.60 209.02,33.78 209.17,33.27 209.32,33.18 209.47,33.11 209.61,33.11 209.76,33.04 209.91,32.58 210.06,31.94 210.20,31.26 210.35,32.05 210.50,31.06 210.65,30.59 210.80,30.15 210.94,31.28 211.09,30.73 211.24,29.99 211.39,30.62 211.54,29.95 211.68,29.40 211.83,30.34 211.98,30.10 212.13,30.60 212.28,30.11 212.42,29.95 212.57,30.00 212.72,30.50 212.87,29.67 213.02,29.75 213.16,29.25 213.31,29.96 213.46,29.80 213.61,29.59 213.75,28.90 213.90,28.55 214.05,27.71 214.20,27.78 214.35,27.21 214.49,27.48 214.64,27.21 214.79,26.99 214.94,26.76 215.09,26.55 215.23,27.16 215.38,26.94 215.53,26.61 215.68,26.22 215.83,25.79 215.97,25.43 216.12,24.66 216.27,24.59 216.42,24.69 216.57,24.96 216.71,25.21 216.86,25.21 217.01,24.74 217.16,25.15 217.30,24.97 217.45,24.41 217.60,24.50 217.75,24.87 217.90,24.33 218.04,24.32 218.19,23.67 218.34,23.85 218.49,23.82 218.64,23.52 218.78,23.16 218.93,22.37 219.08,22.12 219.23,22.16 219.38,22.38 219.52,22.62 219.67,23.57 219.82,23.59 219.97,23.62 220.12,22.25 220.26,22.21 220.41,22.32 220.56,22.49 220.71,22.52 220.86,21.76 221.00,22.13 221.15,21.43 221.30,20.87 221.45,21.04 221.59,20.88 221.74,20.74 221.89,20.51 222.04,20.71 222.19,20.20 222.33,19.76 222.48,19.49 222.63,19.47 222.78,19.63 222.93,19.74 223.07,18.86 223.22,18.86 223.37,18.72 223.52,18.67 223.67,18.17 223.81,18.40 223.96,18.44 224.11,17.96 224.26,17.78 224.41,17.31 224.55,17.26 224.70,16.78 224.85,16.73 225.00,17.16 225.14,18.16 225.29,17.72 225.44,18.52 225.59,18.52 225.74,17.61 225.88,16.75 226.03,16.08 226.18,15.81 226.33,16.03 226.48,15.77 226.62,15.99 226.77,15.54 226.92,15.61 227.07,14.96 227.22,15.75 227.36,14.99 227.51,14.99 227.66,14.40 227.81,14.14 227.96,14.27 228.10,14.01 228.25,14.43 228.40,13.93 228.55,13.93 228.70,13.71 228.84,13.17 228.99,12.64 229.14,12.26 229.29,12.21 229.43,12.42 229.58,11.97 229.73,11.64 229.88,11.64 230.03,11.51 230.17,11.56 230.32,11.06 230.47,11.30 230.62,10.88 230.77,11.25 230.91,10.74 231.06,10.94 231.21,10.39 231.36,10.42 231.51,9.90 231.65,9.87 231.80,10.01 231.95,9.87 232.10,9.15 232.25,9.40 232.39,8.91 232.54,9.21 232.69,9.74 232.84,9.74 232.98,9.72 233.13,10.11 233.28,9.20 233.43,9.23 233.58,8.37 233.72,7.53 233.87,7.04 234.02,6.78 234.17,7.39 234.32,7.71 234.46,7.55 234.61,6.97 234.76,7.29 234.91,6.39 235.06,6.39 235.20,5.45 235.35,5.62 235.50,5.81 235.65,5.92 235.80,5.82 235.94,6.35 236.09,6.42 236.24,6.44 236.39,6.31 236.53,5.40 236.68,5.08 236.83,4.75 236.98,4.75 237.13,4.44 237.27,4.20 237.42,4.07 237.57,4.04 237.72,55.64 237.87,55.14 238.01,55.14 238.16,55.14 238.31,55.31 238.46,55.31 238.61,55.31 238.75,55.31 238.90,53.84 239.05,53.84 239.20,54.34 239.35,54.34 239.49,54.23 239.64,54.23 239.79,54.23 239.94,53.23 240.09,53.23 240.23,54.46 240.38,53.72 240.53,53.72 240.68,53.72 240.82,52.85 240.97,52.85 241.12,52.33 241.27,52.33 241.42,52.33 241.56,51.34 241.71,51.34 241.86,50.97 242.01,50.97 242.16,50.97 242.30,51.53 242.45,51.53 242.60,51.53 242.75,51.64 242.90,49.23 243.04,49.23 243.19,49.69 243.34,49.69 243.49,49.69 243.64,47.32 243.78,48.44 243.93,48.44 244.08,48.44 244.23,49.48 244.37,49.48 244.52,48.75 244.67,48.75 244.82,48.75 244.97,46.73 245.11,46.73 245.26,46.73 245.41,46.36 245.56,46.36 245.71,46.36 245.85,46.12 246.00,46.12 246.15,46.12 246.30,46.42 246.45,46.42 246.59,46.42 246.74,46.42 246.89,44.94 247.04,44.94 247.19,44.94 247.33,44.94 247.48,45.04 247.63,45.04 247.78,45.04 247.93,45.04 248.07,45.59 248.22,45.59 248.37,45.59 248.52,45.59 248.66,44.55 248.81,44.55 248.96,43.57 249.11,43.57 249.26,43.57 249.40,43.99 249.55,43.99 249.70,43.99 249.85,44.95 250.00,44.95 250.14,44.95 250.29,43.65 250.44,46.61 250.59,46.61 250.74,45.23 250.88,45.23 251.03,45.23 251.18,44.21 251.33,43.40 251.48,43.40 251.62,43.40 251.77,43.40 251.92,40.71 252.07,40.71 252.21,40.71 252.36,40.71 252.51,41.95 252.66,39.87 252.81,39.87 252.95,42.33 253.10,42.33 253.25,42.61 253.40,42.61 253.55,42.61 253.69,43.73 253.84,43.73 253.99,43.73 254.14,42.86 254.29,42.86 254.43,42.86 254.58,42.86 254.73,40.02 254.88,42.47 255.03,42.47 255.17,40.65 255.32,40.65 255.47,39.50 255.62,39.50 255.76,39.50 255.91,38.85 256.06,38.85 256.21,38.74 256.36,38.74 256.50,38.74 256.65,40.99 256.80,40.99 256.95,40.99 257.10,39.30 257.24,39.30 257.39,40.21 257.54,40.21 257.69,38.96 257.84,38.96 257.98,38.96 258.13,38.26 258.28,38.26 258.43,38.26 258.58,37.13 258.72,37.13 258.87,37.13 259.02,36.05 259.17,36.05 259.32,36.24 259.46,36.24 259.61,36.24 259.76,37.42 259.91,37.42 260.05,33.96 260.20,33.96 260.35,34.79 260.50,34.79 260.65,34.79 260.79,35.31 260.94,32.84 261.09,32.84 261.24,34.75 261.39,34.75 261.53,35.50 261.68,35.50 261.83,35.50 261.98,34.57 262.13,34.57 262.27,34.57 262.42,34.57 262.57,32.85 262.72,34.38 262.87,34.38 263.01,34.38 263.16,32.77 263.31,32.26 263.46,32.26 263.60,32.26 263.75,32.23 263.90,32.23 264.05,32.23 264.20,34.19 264.34,32.13 264.49,32.13 264.64,32.13 264.79,33.49 264.94,33.49 265.08,30.95 265.23,33.05 265.38,33.05 265.53,33.05 265.68,31.15 265.82,32.95 265.97,32.95 266.12,32.95 266.27,31.03 266.42,31.03 266.56,33.54 266.71,32.28 266.86,32.28 267.01,32.28 267.16,33.49 267.30,32.93 267.45,32.93 267.60,31.10 267.75,30.39 267.89,30.39 268.04,30.44 268.19,30.44 268.34,30.44 268.49,29.63 268.63,29.63 268.78,33.03 268.93,31.48 269.08,31.48 269.23,30.13 269.37,30.13 269.52,30.13 269.67,28.72 269.82,28.72 269.97,28.72 270.11,27.21 270.26,30.88 270.41,29.90 270.56,29.90 270.71,29.90 270.85,28.76 271.00,28.76 271.15,28.76 271.30,27.60 271.44,30.56 271.59,30.56 271.74,28.94 271.89,28.94 272.04,28.94 272.18,28.23 272.33,28.23 272.48,27.79 272.63,27.79 272.78,26.16 272.92,26.16 273.07,26.16 273.22,25.15 273.37,25.15 273.52,25.15 273.66,26.53 273.81,26.53 273.96,26.53 274.11,25.51 274.26,25.51 274.40,25.51 274.55,23.54 274.70,23.54 274.85,23.54 274.99,24.11 275.14,24.11 275.29,24.11 275.44,24.11 275.59,25.55 275.73,25.55 275.88,23.61 276.03,23.61 276.18,24.29 276.33,24.29 276.47,24.29 276.62,22.54 276.77,22.54 276.92,22.54 277.07,21.48 277.21,21.48 277.36,21.48 277.51,21.48 277.66,21.61 277.81,21.61 277.95,21.61 278.10,21.14 278.25,22.33 278.40,22.33 278.55,22.33 278.69,22.29 278.84,22.29 278.99,22.29 279.14,22.53 279.28,19.77 279.43,21.04 279.58,21.04 279.73,21.04 279.88,20.09 280.02,20.09 280.17,20.09 280.32,19.05 280.47,19.05 280.62,19.05 280.76,18.05 280.91,18.05 281.06,18.05 281.21,17.94 281.36,17.94 281.50,17.94 281.65,17.94 281.80,18.21 281.95,18.21 282.10,18.21 282.24,19.32 282.39,17.85 282.54,17.85 282.69,17.85 282.83,16.30 282.98,17.62 283.13,17.62 283.28,15.50 283.43,15.50 283.57,16.91 283.72,16.91 283.87,16.91 284.02,16.91 284.17,14.98 284.31,14.98 284.46,14.98 284.61,14.98 284.76,14.98 284.91,14.98 285.05,14.22 285.20,14.22 285.35,14.22 285.50,12.19 285.65,14.40 285.79,14.40 285.94,14.40 286.09,13.85 286.24,13.85 286.39,13.85 286.53,14.57 286.68,14.57 286.83,12.07 286.98,12.07 287.12,10.70 287.27,10.70 287.42,10.70 287.57,10.89 287.72,10.89 287.86,10.89 288.01,12.17 288.16,12.17 288.31,12.17 288.46,10.40 288.60,12.67 288.75,12.67 288.90,11.21 289.05,11.21 289.20,11.21 289.34,9.54 289.49,11.43 289.64,11.43 289.79,9.65 289.94,9.65 290.08,9.65 290.23,9.94 290.38,9.94 290.53,8.06 290.67,10.11 290.82,10.11 290.97,10.11 291.12,8.43 291.27,8.43 291.41,9.20 291.56,9.20 291.71,9.20 291.86,9.81 292.01,7.07 292.15,7.07 292.30,7.07 292.45,6.06 292.60,6.06 292.75,6.06 292.89,5.31 293.04,5.31 293.19,6.29 293.34,6.29 293.49,6.29 293.63,4.64 293.78,4.64 293.93,4.64 294.08,5.91 294.22,5.91 294.37,5.75 294.52,5.75 294.67,5.75 294.82,5.08 294.96,5.08 295.11,5.08 295.26,4.22 295.41,4.22 295.56,4.22 295.70,4.22 295.85,4.10 296.00,4.10" />
</svg>