<svg width="300" height="60" xmlns="http://www.w3.org/2000/svg">
  <polyline fill="rgba(255,200,0,0.3)" stroke="#ffbb00" stroke-width="2" points="4.00,52.12 4.80,52.96 5.59,53.30 6.39,53.99 7.18,54.12 7.98,54.14 8.77,54.05 9.57,54.55 10.37,53.23 11.16,52.40 11.96,51.28 12.75,51.09 13.55,51.09 14.34,51.31 15.14,51.28 15.93,51.62 16.73,51.71 17.53,51.95 18.32,52.03 19.12,52.09 19.91,52.25 20.71,52.05 21.50,51.67 22.30,51.23 23.10,51.39 23.89,53.76 24.69,53.89 25.48,53.91 26.28,54.66 27.07,55.10 27.87,55.72 28.66,56.00 29.46,55.27 30.26,53.70 31.05,51.47 31.85,49.80 32.64,48.94 33.44,48.30 34.23,47.77 35.03,47.07 35.83,46.32 36.62,45.55 37.42,44.79 38.21,43.95 39.01,43.38 39.80,42.61 40.60,41.44 41.40,40.14 42.19,38.78 42.99,37.41 43.78,36.21 44.58,34.82 45.37,33.46 46.17,32.42 46.96,31.56 47.76,30.83 48.56,29.90 49.35,28.73 50.15,28.18 50.94,27.38 51.74,26.98 52.53,26.27 53.33,25.38 54.13,25.10 54.92,25.89 55.72,26.02 56.51,25.71 57.31,24.64 58.10,23.05 58.90,21.45 59.69,19.55 60.49,18.06 61.29,16.02 62.08,14.81 62.88,13.47 63.67,11.97 64.47,10.69 65.26,9.23 66.06,8.12 66.86,7.14 67.65,6.96 68.45,6.65 69.24,6.67 70.04,7.00 70.83,7.00 71.63,6.86 72.43,6.59 73.22,6.74 74.02,6.91 74.81,6.50 75.61,6.17 76.40,4.49 77.20,52.03 77.99,52.52 78.79,53.31 79.59,53.56 80.38,53.82 81.18,53.87 81.97,53.84 82.77,53.66 83.56,53.11 84.36,52.34 85.16,51.23 85.95,51.07 86.75,50.62 87.54,50.98 88.34,51.18 89.13,51.42 89.93,51.45 90.72,51.90 91.52,51.77 92.32,51.87 93.11,52.10 93.91,51.84 94.70,50.75 95.50,51.09 96.29,50.66 97.09,53.36 97.89,53.71 98.68,53.63 99.48,54.52 100.27,54.73 101.07,55.44 101.86,55.69 102.66,55.03 103.46,53.30 104.25,52.11 105.05,49.85 105.84,48.94 106.64,48.30 107.43,47.86 108.23,46.95 109.02,46.41 109.82,45.36 110.62,44.73 111.41,43.72 112.21,43.37 113.00,42.40 113.80,41.43 114.59,40.10 115.39,38.98 116.19,37.28 116.98,36.45 117.78,34.87 118.57,33.31 119.37,32.35 120.16,31.43 120.96,30.70 121.75,29.60 122.55,28.61 123.35,27.87 124.14,27.38 124.94,26.60 125.73,25.91 126.53,25.15 127.32,24.72 128.12,25.78 128.92,26.11 129.71,25.66 130.51,25.10 131.30,23.34 132.10,21.26 132.89,19.60 133.69,18.23 134.49,15.92 135.28,14.44 136.08,13.83 136.87,12.28 137.67,10.85 138.46,9.46 139.26,8.01 140.05,7.17 140.85,7.15 141.65,6.74 142.44,6.76 143.24,6.84 144.03,7.13 144.83,6.72 145.62,6.46 146.42,6.72 147.22,7.10 148.01,6.57 148.81,6.27 149.60,4.54 150.40,52.18 151.19,52.74 151.99,53.24 152.78,53.72 153.58,54.08 154.38,54.23 155.17,54.28 155.97,54.03 156.76,53.16 157.56,52.37 158.35,51.51 159.15,50.97 159.95,51.08 160.74,51.28 161.54,51.54 162.33,51.67 163.13,52.00 163.92,51.89 164.72,52.17 165.51,52.40 166.31,52.07 167.11,52.25 167.90,51.56 168.70,51.45 169.49,52.06 170.29,53.76 171.08,53.76 171.88,54.02 172.68,54.20 173.47,54.63 174.27,55.39 175.06,55.98 175.86,54.86 176.65,52.66 177.45,51.11 178.25,49.91 179.04,48.77 179.84,48.50 180.63,47.94 181.43,47.00 182.22,46.80 183.02,45.29 183.81,44.61 184.61,43.87 185.41,43.72 186.20,43.11 187.00,42.24 187.79,40.18 188.59,38.96 189.38,37.71 190.18,36.59 190.98,35.47 191.77,33.23 192.57,32.46 193.36,31.78 194.16,31.09 194.95,30.24 195.75,29.30 196.54,27.90 197.34,27.24 198.14,26.63 198.93,26.10 199.73,25.33 200.52,24.44 201.32,26.70 202.11,26.32 202.91,25.61 203.71,24.79 204.50,23.37 205.30,21.99 206.09,20.50 206.89,18.97 207.68,15.66 208.48,14.54 209.28,14.54 210.07,13.33 210.87,11.42 211.66,10.22 212.46,8.90 213.25,7.32 214.05,6.64 214.84,7.81 215.64,7.12 216.44,8.09 217.23,7.02 218.03,7.05 218.82,7.21 219.62,7.46 220.41,7.16 221.21,7.16 222.01,6.47 222.80,4.00 223.60,51.72 224.39,51.72 225.19,52.92 225.98,52.92 226.78,52.92 227.57,54.01 228.37,54.01 229.17,53.91 229.96,53.91 230.76,53.91 231.55,51.49 232.35,52.08 233.14,52.08 233.94,52.08 234.74,53.10 235.53,53.10 236.33,53.10 237.12,52.35 237.92,52.35 238.71,52.35 239.51,52.35 240.31,52.99 241.10,52.99 241.90,52.99 242.69,54.14 243.49,54.14 244.28,54.14 245.08,54.14 245.87,54.08 246.67,55.80 247.47,55.80 248.26,55.57 249.06,55.57 249.85,52.60 250.65,52.60 251.44,52.60 252.24,48.35 253.04,48.35 253.83,48.35 254.63,48.35 255.42,48.17 256.22,46.18 257.01,46.18 257.81,44.40 258.60,44.40 259.40,44.40 260.20,42.39 260.99,42.39 261.79,39.19 262.58,39.19 263.38,39.19 264.17,35.83 264.97,35.83 265.77,33.38 266.56,33.38 267.36,33.38 268.15,31.78 268.95,31.78 269.74,29.90 270.54,29.90 271.34,29.90 272.13,28.19 272.93,28.19 273.72,26.64 274.52,26.64 275.31,26.64 276.11,24.84 276.90,26.09 277.70,26.09 278.50,22.17 279.29,22.17 280.09,22.17 280.88,17.84 281.68,17.84 282.47,17.84 283.27,13.92 284.07,13.92 284.86,13.92 285.66,9.11 286.45,9.11 287.25,11.96 288.04,11.96 288.84,7.18 289.63,8.94 290.43,8.94 291.23,8.94 292.02,8.50 292.82,8.50 293.61,8.50 294.41,8.50 295.20,4.85 296.00,4.85" />
</svg>