<svg width="300" height="60" xmlns="http://www.w3.org/2000/svg">
  <polyline fill="rgba(255,200,0,0.3)" stroke="#ffbb00" stroke-width="2" points="4.00,21.59 4.25,22.22 4.49,21.87 4.74,21.97 4.99,22.64 5.24,23.49 5.48,23.70 5.73,23.67 5.98,23.70 6.22,23.61 6.47,23.57 6.72,23.58 6.96,23.32 7.21,21.01 7.46,18.76 7.71,56.00 7.95,53.99 8.20,53.79 8.45,53.41 8.69,53.41 8.94,53.28 9.19,53.00 9.43,52.65 9.68,51.95 9.93,51.64 10.18,51.74 10.42,51.93 10.67,51.84 10.92,52.02 11.16,52.27 11.41,51.42 11.66,50.84 11.91,50.29 12.15,50.59 12.40,50.37 12.65,49.98 12.89,49.66 13.14,49.65 13.39,49.72 13.63,49.84 13.88,49.70 14.13,49.29 14.38,48.35 14.62,48.61 14.87,48.85 15.12,50.38 15.36,51.14 15.61,51.39 15.86,49.63 16.10,48.90 16.35,49.32 16.60,49.42 16.85,49.06 17.09,47.90 17.34,46.61 17.59,45.36 17.83,44.65 18.08,44.30 18.33,43.96 18.58,43.66 18.82,43.74 19.07,43.71 19.32,43.30 19.56,42.84 19.81,42.54 20.06,42.79 20.30,43.49 20.55,44.00 20.80,44.09 21.05,43.42 21.29,42.44 21.54,41.69 21.79,41.32 22.03,40.96 22.28,40.37 22.53,39.91 22.77,40.23 23.02,40.57 23.27,40.99 23.52,41.28 23.76,41.43 24.01,42.31 24.26,42.13 24.50,41.41 24.75,40.72 25.00,40.42 25.25,40.53 25.49,40.64 25.74,41.22 25.99,40.86 26.23,39.58 26.48,39.14 26.73,39.68 26.97,39.70 27.22,37.87 27.47,36.61 27.72,36.03 27.96,36.01 28.21,35.38 28.46,34.83 28.70,34.18 28.95,33.95 29.20,34.36 29.45,34.92 29.69,35.30 29.94,34.79 30.19,33.49 30.43,32.34 30.68,31.35 30.93,30.93 31.17,30.85 31.42,30.43 31.67,29.61 31.92,29.11 32.16,28.94 32.41,29.19 32.66,30.07 32.90,30.46 33.15,31.00 33.40,30.68 33.64,29.90 33.89,28.83 34.14,27.60 34.39,26.60 34.63,25.64 34.88,25.02 35.13,24.44 35.37,23.55 35.62,22.71 35.87,21.81 36.12,21.11 36.36,21.29 36.61,21.35 36.86,21.45 37.10,21.54 37.35,21.34 37.60,21.11 37.84,21.15 38.09,21.59 38.34,22.22 38.59,21.02 38.83,18.75 39.08,17.90 39.33,18.28 39.57,19.42 39.82,20.69 40.07,21.60 40.31,21.77 40.56,21.51 40.81,21.18 41.06,21.60 41.30,22.42 41.55,23.35 41.80,24.38 42.04,25.39 42.29,26.37 42.54,27.25 42.79,27.43 43.03,27.90 43.28,28.48 43.53,29.10 43.77,29.52 44.02,28.38 44.27,26.37 44.51,25.24 44.76,25.44 45.01,25.86 45.26,25.73 45.50,25.86 45.75,26.13 46.00,24.78 46.24,23.36 46.49,22.12 46.74,22.11 46.98,22.79 47.23,23.64 47.48,24.54 47.73,25.16 47.97,24.84 48.22,25.58 48.47,25.96 48.71,25.00 48.96,24.02 49.21,23.15 49.46,22.13 49.70,20.97 49.95,20.45 50.20,20.04 50.44,19.48 50.69,18.93 50.94,17.57 51.18,15.74 51.43,14.08 51.68,13.20 51.93,12.91 52.17,12.69 52.42,12.49 52.67,12.14 52.91,10.83 53.16,9.27 53.41,7.94 53.65,6.94 53.90,6.27 54.15,6.00 54.40,6.06 54.64,6.62 54.89,7.60 55.14,8.41 55.38,8.53 55.63,7.98 55.88,7.26 56.13,6.65 56.37,6.22 56.62,5.74 56.87,5.38 57.11,4.91 57.36,4.36 57.61,4.13 57.85,4.48 58.10,5.35 58.35,6.53 58.60,7.80 58.84,9.34 59.09,10.63 59.34,12.05 59.58,13.45 59.83,14.96 60.08,15.68 60.32,14.88 60.57,14.55 60.82,14.87 61.07,16.01 61.31,16.56 61.56,16.51 61.81,17.04 62.05,17.16 62.30,16.07 62.55,14.53 62.80,13.05 63.04,11.87 63.29,10.74 63.54,10.95 63.78,11.41 64.03,11.39 64.28,10.46 64.52,8.85 64.77,7.56 65.02,7.69 65.27,9.34 65.51,11.31 65.76,13.41 66.01,12.64 66.25,11.68 66.50,10.76 66.75,9.58 66.99,8.61 67.24,8.68 67.49,7.36 67.74,6.30 67.98,6.75 68.23,8.09 68.48,9.96 68.72,10.16 68.97,10.22 69.22,10.36 69.47,10.72 69.71,11.72 69.96,13.03 70.21,14.73 70.45,15.85 70.70,15.24 70.95,15.09 71.19,15.46 71.44,16.12 71.69,17.77 71.94,20.07 72.18,22.46 72.43,22.82 72.68,21.49 72.92,20.88 73.17,20.29 73.42,19.09 73.66,17.26 73.91,17.53 74.16,18.84 74.41,20.60 74.65,22.60 74.90,24.69 75.15,26.17 75.39,28.09 75.64,29.00 75.89,28.60 76.14,27.44 76.38,25.46 76.63,23.58 76.88,21.20 77.12,21.02 77.37,21.22 77.62,22.36 77.86,23.82 78.11,22.78 78.36,21.39 78.61,20.27 78.85,19.86 79.10,20.61 79.35,21.69 79.59,22.91 79.84,24.40 80.09,26.60 80.34,28.13 80.58,27.95 80.83,27.72 81.08,27.88 81.32,28.07 81.57,29.09 81.82,30.24 82.06,30.87 82.31,31.62 82.56,31.99 82.81,31.17 83.05,30.39 83.30,28.48 83.55,26.83 83.79,25.43 84.04,24.64 84.29,24.52 84.53,23.57 84.78,22.07 85.03,21.26 85.28,21.82 85.52,23.21 85.77,24.84 86.02,26.39 86.26,27.78 86.51,28.19 86.76,28.35 87.01,28.62 87.25,29.55 87.50,31.03 87.75,31.87 87.99,33.45 88.24,35.44 88.49,35.83 88.73,35.48 88.98,33.99 89.23,32.11 89.48,30.62 89.72,28.82 89.97,27.56 90.22,25.73 90.46,23.94 90.71,22.09 90.96,20.67 91.20,19.84 91.45,19.93 91.70,20.61 91.95,22.08 92.19,23.38 92.44,24.51 92.69,23.94 92.93,23.22 93.18,22.92 93.43,23.04 93.68,23.71 93.92,25.49 94.17,27.19 94.42,27.82 94.66,27.76 94.91,27.35 95.16,26.74 95.40,26.05 95.65,25.86 95.90,25.72 96.15,26.89 96.39,27.48 96.64,28.31 96.89,28.43 97.13,29.30 97.38,30.05 97.63,29.17 97.87,27.60 98.12,26.90 98.37,26.32 98.62,25.29 98.86,24.40 99.11,23.97 99.36,23.60 99.60,23.64 99.85,23.37 100.10,23.26 100.35,23.31 100.59,24.55 100.84,26.56 101.09,28.64 101.33,30.75 101.58,33.06 101.83,35.69 102.07,55.86 102.32,54.63 102.57,53.75 102.82,53.22 103.06,52.81 103.31,53.60 103.56,52.29 103.80,52.47 104.05,51.70 104.30,52.14 104.54,51.62 104.79,51.06 105.04,52.04 105.29,51.17 105.53,51.67 105.78,52.14 106.03,50.18 106.27,50.93 106.52,50.71 106.77,50.66 107.02,49.86 107.26,48.88 107.51,49.84 107.76,49.93 108.00,49.93 108.25,49.52 108.50,48.82 108.74,47.87 108.99,48.69 109.24,48.34 109.49,50.32 109.73,50.11 109.98,51.10 110.23,49.37 110.47,48.50 110.72,50.08 110.97,49.78 111.21,49.78 111.46,48.15 111.71,46.36 111.96,45.85 112.20,44.71 112.45,44.47 112.70,44.01 112.94,44.01 113.19,44.06 113.44,43.68 113.69,43.88 113.93,42.98 114.18,42.37 114.43,42.96 114.67,42.80 114.92,44.23 115.17,43.48 115.41,42.46 115.66,43.57 115.91,42.19 116.16,42.07 116.40,41.03 116.65,40.77 116.90,40.08 117.14,40.53 117.39,40.79 117.64,41.08 117.88,41.08 118.13,41.54 118.38,41.75 118.63,42.66 118.87,41.58 119.12,40.24 119.37,40.17 119.61,39.82 119.86,40.21 120.11,40.21 120.36,40.87 120.60,40.59 120.85,38.16 121.10,40.09 121.34,39.93 121.59,38.37 121.84,36.56 122.08,35.80 122.33,35.86 122.58,36.15 122.83,34.47 123.07,34.74 123.32,33.44 123.57,33.56 123.81,34.72 124.06,34.72 124.31,35.33 124.55,33.62 124.80,32.49 125.05,31.43 125.30,31.48 125.54,31.04 125.79,30.65 126.04,29.76 126.28,29.45 126.53,28.89 126.78,29.81 127.03,29.54 127.27,30.89 127.52,30.63 127.77,31.40 128.01,30.39 128.26,28.51 128.51,27.57 128.75,27.03 129.00,25.62 129.25,25.41 129.50,25.44 129.74,23.55 129.99,23.08 130.24,22.48 130.48,21.97 130.73,20.99 130.98,21.38 131.23,21.70 131.47,21.75 131.72,21.73 131.97,21.32 132.21,21.63 132.46,21.20 132.71,21.73 132.95,22.24 133.20,21.98 133.45,23.28 133.70,23.07 133.94,22.80 134.19,22.80 134.44,22.72 134.68,23.04 134.93,23.77 135.18,23.29 135.42,22.34 135.67,19.76 135.92,19.76 136.17,18.14 136.41,18.59 136.66,19.80 136.91,20.17 137.15,21.69 137.40,22.38 137.65,21.44 137.90,21.47 138.14,21.90 138.39,22.20 138.64,23.04 138.88,23.93 139.13,25.37 139.38,26.01 139.62,27.46 139.87,27.20 140.12,28.38 140.37,28.31 140.61,28.31 140.86,29.50 141.11,28.11 141.35,26.88 141.60,24.83 141.85,25.21 142.09,26.06 142.34,25.32 142.59,26.00 142.84,25.11 143.08,24.28 143.33,23.42 143.58,22.01 143.82,22.05 144.07,21.96 144.32,23.39 144.57,24.03 144.81,25.09 145.06,24.86 145.31,26.16 145.55,25.35 145.80,24.17 146.05,24.17 146.29,22.90 146.54,21.43 146.79,21.43 147.04,20.13 147.28,19.26 147.53,19.63 147.78,18.31 148.02,18.31 148.27,16.16 148.52,13.95 148.76,13.35 149.01,12.02 149.26,12.14 149.51,12.07 149.75,11.41 150.00,10.95 150.25,9.08 150.49,7.40 150.74,6.75 150.99,6.75 151.24,6.53 151.48,5.97 151.73,6.64 151.98,7.43 152.22,8.46 152.47,8.33 152.72,8.33 152.96,7.26 153.21,7.00 153.46,5.92 153.71,5.94 153.95,5.98 154.20,4.63 154.45,4.30 154.69,4.15 154.94,4.50 155.19,5.74 155.43,6.69 155.68,7.52 155.93,9.46 156.18,11.34 156.42,12.43 156.67,13.99 156.92,14.97 157.16,14.78 157.41,15.15 157.66,14.60 157.91,14.58 158.15,15.54 158.40,16.39 158.65,15.94 158.89,16.85 159.14,17.28 159.39,16.34 159.63,14.36 159.88,12.54 160.13,11.27 160.38,10.70 160.62,10.31 160.87,11.51 161.12,10.92 161.36,9.86 161.61,8.52 161.86,7.69 162.10,8.33 162.35,9.96 162.60,11.65 162.85,12.64 163.09,12.03 163.34,12.60 163.59,9.98 163.83,8.67 164.08,7.44 164.33,7.98 164.58,6.53 164.82,6.81 165.07,6.78 165.32,7.47 165.56,10.06 165.81,10.48 166.06,10.30 166.30,10.44 166.55,10.96 166.80,11.81 167.05,12.84 167.29,14.91 167.54,14.93 167.79,14.47 168.03,14.29 168.28,16.66 168.53,16.96 168.77,19.25 169.02,21.11 169.27,22.29 169.52,23.15 169.76,20.79 170.01,21.38 170.26,19.76 170.50,19.41 170.75,17.42 171.00,17.66 171.25,18.59 171.49,21.50 171.74,23.26 171.99,24.97 172.23,26.58 172.48,27.85 172.73,29.02 172.97,29.19 173.22,26.95 173.47,25.31 173.72,22.82 173.96,21.47 174.21,21.03 174.46,21.25 174.70,22.85 174.95,22.85 175.20,23.57 175.45,21.99 175.69,20.91 175.94,20.28 176.19,20.87 176.43,21.39 176.68,22.98 176.93,24.91 177.17,27.09 177.42,27.15 177.67,27.86 177.92,27.76 178.16,27.75 178.41,27.90 178.66,29.13 178.90,29.62 179.15,30.60 179.40,31.00 179.64,31.61 179.89,31.10 180.14,30.26 180.39,29.07 180.63,27.60 180.88,26.13 181.13,25.35 181.37,24.46 181.62,22.88 181.87,22.88 182.12,21.73 182.36,21.67 182.61,22.67 182.86,24.79 183.10,26.78 183.35,27.03 183.60,28.52 183.84,28.47 184.09,28.72 184.34,29.27 184.59,30.12 184.83,31.91 185.08,33.03 185.33,35.42 185.57,35.75 185.82,34.95 186.07,33.09 186.31,33.09 186.56,31.56 186.81,29.47 187.06,28.07 187.30,25.82 187.55,24.19 187.80,22.23 188.04,20.76 188.29,19.70 188.54,20.12 188.79,21.52 189.03,21.55 189.28,23.13 189.53,24.57 189.77,23.37 190.02,23.32 190.27,21.83 190.51,23.76 190.76,24.80 191.01,26.25 191.26,26.25 191.50,27.60 191.75,26.47 192.00,26.51 192.24,26.48 192.49,26.63 192.74,25.72 192.98,26.49 193.23,26.78 193.48,27.27 193.73,27.83 193.97,28.45 194.22,29.42 194.47,29.24 194.71,28.13 194.96,27.41 195.21,26.08 195.46,26.20 195.70,24.68 195.95,24.52 196.20,24.33 196.44,23.30 196.69,23.36 196.94,23.31 197.18,23.33 197.43,24.04 197.68,25.91 197.93,28.13 198.17,27.21 198.42,29.40 198.67,31.92 198.91,37.36 199.16,55.95 199.41,55.95 199.65,55.95 199.90,53.26 200.15,53.26 200.40,53.26 200.64,52.42 200.89,54.31 201.14,52.24 201.38,52.24 201.63,52.24 201.88,50.99 202.13,50.99 202.37,50.99 202.62,51.12 202.87,51.12 203.11,51.12 203.36,51.17 203.61,51.17 203.85,51.17 204.10,51.22 204.35,51.22 204.60,48.69 204.84,48.69 205.09,48.69 205.34,47.46 205.58,47.46 205.83,50.29 206.08,50.29 206.32,47.26 206.57,47.26 206.82,47.26 207.07,50.57 207.31,50.57 207.56,50.57 207.81,50.57 208.05,49.46 208.30,49.46 208.55,49.46 208.80,49.46 209.04,48.98 209.29,45.67 209.54,45.67 209.78,44.95 210.03,44.95 210.28,44.95 210.52,44.95 210.77,44.36 211.02,44.36 211.27,44.36 211.51,42.95 211.76,42.95 212.01,42.95 212.25,42.77 212.50,42.77 212.75,45.06 212.99,45.06 213.24,41.99 213.49,41.99 213.74,41.99 213.98,40.84 214.23,41.36 214.48,41.36 214.72,41.57 214.97,41.57 215.22,41.57 215.47,43.37 215.71,43.37 215.96,40.97 216.21,40.97 216.45,42.15 216.70,40.39 216.95,40.39 217.19,40.39 217.44,40.39 217.69,40.44 217.94,37.29 218.18,40.44 218.43,39.14 218.68,39.14 218.92,39.14 219.17,36.46 219.42,36.46 219.66,36.46 219.91,32.93 220.16,32.93 220.41,32.93 220.65,33.41 220.90,33.41 221.15,33.41 221.39,36.71 221.64,33.90 221.89,33.90 222.14,33.90 222.38,33.08 222.63,31.82 222.88,31.82 223.12,31.82 223.37,32.92 223.62,30.09 223.86,30.09 224.11,30.09 224.36,29.44 224.61,29.44 224.85,32.40 225.10,30.32 225.35,30.32 225.59,28.78 225.84,28.78 226.09,28.78 226.34,29.26 226.58,29.26 226.83,24.81 227.08,23.55 227.32,23.55 227.57,22.70 227.82,22.70 228.06,22.70 228.31,23.48 228.56,23.48 228.81,23.48 229.05,22.68 229.30,22.49 229.55,22.49 229.79,21.34 230.04,21.34 230.29,22.41 230.53,22.41 230.78,22.41 231.03,21.42 231.28,21.42 231.52,21.42 231.77,21.42 232.02,21.38 232.26,21.38 232.51,21.38 232.76,19.60 233.01,19.60 233.25,19.60 233.50,19.60 233.75,22.35 233.99,22.86 234.24,22.86 234.49,22.86 234.73,21.79 234.98,24.04 235.23,24.04 235.48,24.04 235.72,23.68 235.97,23.68 236.22,23.68 236.46,25.54 236.71,25.54 236.96,25.54 237.20,27.17 237.45,27.17 237.70,27.17 237.95,27.17 238.19,24.38 238.44,24.38 238.69,24.38 238.93,24.23 239.18,24.23 239.43,24.23 239.68,25.69 239.92,21.99 240.17,21.99 240.42,21.21 240.66,21.21 240.91,21.21 241.16,21.21 241.40,23.43 241.65,20.50 241.90,20.50 242.15,24.03 242.39,24.03 242.64,24.03 242.89,20.39 243.13,20.94 243.38,20.94 243.63,20.94 243.87,20.94 244.12,17.00 244.37,17.00 244.62,17.00 244.86,17.61 245.11,17.61 245.36,13.75 245.60,13.75 245.85,12.50 246.10,12.50 246.35,12.50 246.59,11.64 246.84,11.64 247.09,11.64 247.33,8.52 247.58,8.52 247.83,8.52 248.07,8.52 248.32,7.06 248.57,7.06 248.82,7.06 249.06,7.32 249.31,7.32 249.56,8.39 249.80,8.39 250.05,8.28 250.30,8.28 250.54,8.28 250.79,8.37 251.04,8.37 251.29,5.28 251.53,4.61 251.78,4.61 252.03,4.61 252.27,7.57 252.52,7.57 252.77,7.57 253.02,7.57 253.26,12.94 253.51,12.94 253.76,12.94 254.00,12.86 254.25,12.86 254.50,12.86 254.74,12.90 254.99,12.90 255.24,12.58 255.49,15.86 255.73,15.86 255.98,14.20 256.23,14.20 256.47,14.20 256.72,14.45 256.97,10.63 257.21,10.63 257.46,10.63 257.71,7.36 257.96,10.39 258.20,10.39 258.45,8.03 258.70,8.03 258.94,8.03 259.19,9.87 259.44,9.87 259.69,11.54 259.93,11.54 260.18,11.54 260.43,8.39 260.67,8.39 260.92,4.63 261.17,4.63 261.41,4.63 261.66,4.00 261.91,7.46 262.16,7.46 262.40,8.97 262.65,8.97 262.90,11.12 263.14,11.12 263.39,11.12 263.64,14.76 263.88,14.76 264.13,14.76 264.38,17.08 264.63,17.08 264.87,17.15 265.12,17.15 265.37,17.15 265.61,19.61 265.86,19.61 266.11,24.05 266.36,24.05 266.60,24.05 266.85,25.53 267.10,25.53 267.34,19.44 267.59,19.19 267.84,19.19 268.08,19.19 268.33,21.73 268.58,21.73 268.83,26.17 269.07,26.17 269.32,26.17 269.57,28.17 269.81,28.17 270.06,28.17 270.31,24.87 270.55,24.87 270.80,20.97 271.05,20.97 271.30,20.97 271.54,21.54 271.79,23.90 272.04,23.90 272.28,23.90 272.53,22.56 272.78,22.56 273.03,22.56 273.27,21.42 273.52,21.42 273.77,21.42 274.01,25.75 274.26,25.75 274.51,24.95 274.75,24.95 275.00,27.66 275.25,27.66 275.50,27.66 275.74,29.83 275.99,29.83 276.24,30.45 276.48,26.50 276.73,29.11 276.98,29.11 277.23,29.11 277.47,29.16 277.72,29.16 277.97,29.16 278.21,24.97 278.46,24.97 278.71,24.97 278.95,24.97 279.20,23.40 279.45,23.40 279.70,23.40 279.94,25.15 280.19,25.15 280.44,26.32 280.68,26.32 280.93,26.32 281.18,28.62 281.42,28.62 281.67,28.62 281.92,32.23 282.17,32.23 282.41,35.63 282.66,35.63 282.91,35.63 283.15,33.05 283.40,33.05 283.65,33.05 283.90,33.05 284.14,28.17 284.39,28.17 284.64,28.17 284.88,22.88 285.13,22.88 285.38,22.88 285.62,20.48 285.87,24.80 286.12,24.80 286.37,24.80 286.61,24.80 286.86,21.12 287.11,26.50 287.35,23.98 287.60,23.98 287.85,23.98 288.09,27.73 288.34,27.73 288.59,27.73 288.84,23.05 289.08,24.66 289.33,24.66 289.58,24.66 289.82,28.06 290.07,28.06 290.32,29.37 290.57,29.37 290.81,29.37 291.06,30.49 291.31,30.49 291.55,30.49 291.80,27.49 292.05,27.49 292.29,23.95 292.54,23.95 292.79,23.80 293.04,23.80 293.28,23.80 293.53,23.67 293.78,23.67 294.02,23.67 294.27,26.27 294.52,26.27 294.76,26.27 295.01,33.04 295.26,31.30 295.51,31.30 295.75,31.30 296.00,39.26" />
</svg>