<svg width="300" height="60" xmlns="http://www.w3.org/2000/svg">
  <polyline fill="rgba(255,200,0,0.3)" stroke="#ffbb00" stroke-width="2" points="4.00,55.72 4.29,54.18 4.58,52.97 4.88,51.92 5.17,51.45 5.46,51.11 5.75,50.81 6.05,49.87 6.34,49.23 6.63,49.45 6.92,50.02 7.22,50.59 7.51,49.81 7.80,49.66 8.09,49.17 8.38,48.21 8.68,49.05 8.97,48.88 9.26,48.54 9.55,47.11 9.85,46.48 10.14,45.72 10.43,45.73 10.72,45.47 11.02,44.54 11.31,44.13 11.60,44.18 11.89,44.02 12.18,43.29 12.48,42.99 12.77,43.90 13.06,44.00 13.35,44.30 13.65,44.82 13.94,45.40 14.23,46.11 14.52,45.63 14.81,44.78 15.11,44.40 15.40,44.57 15.69,44.07 15.98,43.75 16.28,43.51 16.57,42.25 16.86,40.89 17.15,39.85 17.45,39.31 17.74,39.69 18.03,40.23 18.32,39.73 18.61,37.96 18.91,37.46 19.20,37.09 19.49,36.47 19.78,36.82 20.08,37.53 20.37,37.58 20.66,35.99 20.95,35.30 21.25,34.94 21.54,35.28 21.83,35.83 22.12,36.35 22.41,35.98 22.71,34.55 23.00,33.38 23.29,32.77 23.58,32.99 23.88,33.71 24.17,34.05 24.46,33.49 24.75,32.17 25.05,30.71 25.34,29.83 25.63,29.48 25.92,29.10 26.21,29.22 26.51,29.32 26.80,29.53 27.09,28.93 27.38,27.91 27.68,27.54 27.97,27.38 28.26,26.96 28.55,26.43 28.84,25.88 29.14,25.43 29.43,25.13 29.72,25.27 30.01,25.62 30.31,25.65 30.60,25.50 30.89,24.36 31.18,22.85 31.48,22.29 31.77,22.18 32.06,22.42 32.35,22.00 32.64,21.59 32.94,21.95 33.23,22.04 33.52,22.07 33.81,21.64 34.11,21.12 34.40,20.69 34.69,20.48 34.98,20.60 35.28,21.39 35.57,21.06 35.86,20.53 36.15,20.31 36.44,20.51 36.74,19.50 37.03,18.43 37.32,16.73 37.61,16.66 37.91,16.79 38.20,17.22 38.49,17.21 38.78,16.97 39.08,16.60 39.37,15.82 39.66,15.33 39.95,14.92 40.24,14.52 40.54,14.22 40.83,14.40 41.12,14.19 41.41,13.86 41.71,13.32 42.00,13.17 42.29,12.83 42.58,12.74 42.87,13.10 43.17,13.17 43.46,12.82 43.75,12.25 44.04,11.92 44.34,11.84 44.63,11.84 44.92,11.78 45.21,12.21 45.51,12.45 45.80,12.26 46.09,12.03 46.38,12.28 46.67,12.07 46.97,11.19 47.26,10.81 47.55,10.20 47.84,9.97 48.14,9.85 48.43,9.68 48.72,9.62 49.01,9.54 49.31,9.29 49.60,8.55 49.89,8.19 50.18,7.87 50.47,7.50 50.77,6.78 51.06,6.31 51.35,6.21 51.64,6.64 51.94,6.65 52.23,6.64 52.52,6.39 52.81,6.05 53.11,5.93 53.40,5.64 53.69,5.57 53.98,5.42 54.27,5.30 54.57,5.23 54.86,5.27 55.15,5.18 55.44,5.28 55.74,5.81 56.03,5.23 56.32,4.70 56.61,4.11 56.90,4.69 57.20,6.41 57.49,7.13 57.78,7.78 58.07,7.59 58.37,7.27 58.66,7.28 58.95,7.10 59.24,7.27 59.54,7.24 59.83,7.21 60.12,7.06 60.41,6.90 60.70,6.76 61.00,6.73 61.29,6.66 61.58,6.53 61.87,6.61 62.17,7.41 62.46,8.24 62.75,8.74 63.04,8.86 63.34,8.77 63.63,8.20 63.92,7.81 64.21,7.82 64.50,8.16 64.80,8.68 65.09,9.04 65.38,9.30 65.67,9.63 65.97,10.14 66.26,10.25 66.55,10.46 66.84,10.81 67.14,10.63 67.43,10.54 67.72,11.42 68.01,12.64 68.30,13.26 68.60,13.38 68.89,13.30 69.18,13.29 69.47,13.12 69.77,13.07 70.06,13.11 70.35,13.14 70.64,13.14 70.93,13.14 71.23,13.85 71.52,14.37 71.81,15.22 72.10,14.51 72.40,14.17 72.69,13.98 72.98,13.78 73.27,13.79 73.57,14.03 73.86,13.88 74.15,13.54 74.44,13.24 74.73,12.45 75.03,11.78 75.32,11.25 75.61,11.23 75.90,11.48 76.20,12.14 76.49,12.51 76.78,13.02 77.07,56.00 77.37,54.70 77.66,52.66 77.95,51.72 78.24,50.87 78.53,51.00 78.83,50.83 79.12,49.52 79.41,49.44 79.70,49.22 80.00,49.53 80.29,50.22 80.58,49.61 80.87,49.53 81.17,48.96 81.46,47.80 81.75,49.02 82.04,48.43 82.33,48.66 82.63,46.79 82.92,46.03 83.21,45.70 83.50,45.49 83.80,45.11 84.09,44.37 84.38,43.90 84.67,43.88 84.96,43.66 85.26,43.51 85.55,42.82 85.84,43.73 86.13,43.89 86.43,44.36 86.72,44.98 87.01,45.56 87.30,46.15 87.60,45.41 87.89,44.77 88.18,44.34 88.47,44.16 88.76,44.07 89.06,43.93 89.35,43.24 89.64,41.97 89.93,40.66 90.23,39.52 90.52,39.30 90.81,39.70 91.10,40.10 91.40,39.74 91.69,37.81 91.98,37.39 92.27,36.89 92.56,36.50 92.86,37.02 93.15,37.59 93.44,37.42 93.73,35.61 94.03,35.33 94.32,34.93 94.61,35.42 94.90,36.02 95.20,36.41 95.49,35.67 95.78,34.23 96.07,33.06 96.36,32.42 96.66,33.13 96.95,33.40 97.24,33.80 97.53,33.37 97.83,31.96 98.12,30.72 98.41,29.73 98.70,29.33 98.99,28.99 99.29,29.03 99.58,28.99 99.87,29.42 100.16,28.75 100.46,27.94 100.75,27.50 101.04,27.34 101.33,26.66 101.63,26.50 101.92,26.16 102.21,25.40 102.50,25.17 102.79,25.44 103.09,25.60 103.38,25.61 103.67,25.38 103.96,24.57 104.26,22.65 104.55,22.39 104.84,22.26 105.13,22.41 105.43,21.80 105.72,21.55 106.01,21.96 106.30,22.20 106.59,21.95 106.89,21.65 107.18,21.12 107.47,20.64 107.76,20.47 108.06,20.51 108.35,21.51 108.64,21.17 108.93,20.73 109.23,20.39 109.52,20.49 109.81,19.37 110.10,18.37 110.39,16.62 110.69,16.52 110.98,16.85 111.27,16.93 111.56,17.27 111.86,17.19 112.15,16.59 112.44,15.77 112.73,15.45 113.03,14.78 113.32,14.50 113.61,14.17 113.90,14.22 114.19,14.06 114.49,13.76 114.78,13.29 115.07,13.15 115.36,12.83 115.66,12.80 115.95,13.03 116.24,13.05 116.53,12.75 116.82,12.50 117.12,11.91 117.41,12.03 117.70,11.67 117.99,12.01 118.29,12.02 118.58,12.45 118.87,12.24 119.16,11.97 119.46,12.42 119.75,11.97 120.04,11.07 120.33,10.60 120.62,10.28 120.92,9.95 121.21,9.76 121.50,9.65 121.79,9.58 122.09,9.53 122.38,9.39 122.67,8.59 122.96,8.08 123.26,7.57 123.55,7.46 123.84,6.71 124.13,6.18 124.42,6.51 124.72,6.69 125.01,6.64 125.30,6.62 125.59,6.26 125.89,6.03 126.18,5.84 126.47,5.67 126.76,5.52 127.06,5.34 127.35,5.26 127.64,5.18 127.93,5.19 128.22,5.33 128.52,5.14 128.81,5.68 129.10,5.56 129.39,4.92 129.69,4.00 129.98,4.72 130.27,6.34 130.56,7.24 130.85,7.68 131.15,7.49 131.44,7.15 131.73,7.33 132.02,7.09 132.32,7.02 132.61,7.25 132.90,7.28 133.19,7.35 133.49,6.73 133.78,6.71 134.07,6.69 134.36,6.68 134.65,6.40 134.95,6.68 135.24,7.24 135.53,8.07 135.82,8.70 136.12,8.79 136.41,8.74 136.70,8.12 136.99,7.72 137.29,7.78 137.58,8.04 137.87,8.68 138.16,8.91 138.45,9.19 138.75,9.50 139.04,10.30 139.33,10.34 139.62,10.29 139.92,10.70 140.21,10.65 140.50,10.53 140.79,11.40 141.09,12.55 141.38,13.30 141.67,13.26 141.96,13.23 142.25,13.40 142.55,13.24 142.84,13.02 143.13,13.14 143.42,13.04 143.72,13.02 144.01,13.08 144.30,13.87 144.59,14.20 144.88,15.00 145.18,14.57 145.47,14.21 145.76,13.83 146.05,13.77 146.35,13.82 146.64,13.80 146.93,13.85 147.22,13.56 147.52,13.21 147.81,12.58 148.10,11.60 148.39,11.21 148.68,11.30 148.98,11.36 149.27,12.13 149.56,12.39 149.85,13.13 150.15,55.93 150.44,55.25 150.73,53.09 151.02,52.12 151.32,51.44 151.61,50.97 151.90,50.75 152.19,50.74 152.48,49.08 152.78,49.77 153.07,50.30 153.36,49.69 153.65,50.26 153.95,48.82 154.24,49.87 154.53,48.39 154.82,49.10 155.12,49.14 155.41,48.14 155.70,47.43 155.99,45.93 156.28,46.29 156.58,46.60 156.87,44.89 157.16,44.35 157.45,43.88 157.75,43.76 158.04,43.53 158.33,43.38 158.62,43.38 158.91,43.78 159.21,44.27 159.50,44.22 159.79,45.06 160.08,45.71 160.38,45.49 160.67,45.48 160.96,44.66 161.25,44.00 161.55,44.59 161.84,44.04 162.13,42.95 162.42,42.67 162.71,42.67 163.01,40.74 163.30,39.96 163.59,39.65 163.88,39.34 164.18,40.48 164.47,39.39 164.76,37.83 165.05,37.21 165.35,36.82 165.64,36.98 165.93,36.58 166.22,37.31 166.51,36.50 166.81,36.05 167.10,34.92 167.39,34.92 167.68,34.72 167.98,35.58 168.27,36.87 168.56,35.65 168.85,34.26 169.15,32.67 169.44,32.99 169.73,33.07 170.02,33.07 170.31,32.93 170.61,33.28 170.90,32.82 171.19,30.54 171.48,29.87 171.78,29.44 172.07,29.13 172.36,29.10 172.65,29.43 172.94,28.81 173.24,29.47 173.53,28.11 173.82,27.72 174.11,27.39 174.41,26.55 174.70,26.85 174.99,26.31 175.28,25.90 175.58,24.81 175.87,25.66 176.16,25.87 176.45,25.82 176.74,25.57 177.04,24.64 177.33,23.48 177.62,22.78 177.91,22.79 178.21,22.17 178.50,22.32 178.79,21.69 179.08,21.97 179.38,21.86 179.67,21.65 179.96,21.65 180.25,21.28 180.54,20.99 180.84,20.35 181.13,20.77 181.42,21.47 181.71,21.55 182.01,21.14 182.30,20.76 182.59,20.27 182.88,18.90 183.18,18.90 183.47,17.49 183.76,16.83 184.05,16.85 184.34,17.68 184.64,17.41 184.93,18.17 185.22,17.16 185.51,16.23 185.81,15.44 186.10,14.99 186.39,14.50 186.68,14.43 186.97,14.53 187.27,14.27 187.56,13.99 187.85,13.70 188.14,13.37 188.44,13.05 188.73,12.99 189.02,13.20 189.31,13.28 189.61,12.98 189.90,12.30 190.19,12.52 190.48,12.67 190.77,11.49 191.07,11.50 191.36,11.58 191.65,12.94 191.94,12.69 192.24,12.49 192.53,12.55 192.82,12.12 193.11,11.25 193.41,10.51 193.70,10.43 193.99,10.19 194.28,9.70 194.57,10.12 194.87,9.72 195.16,10.06 195.45,9.36 195.74,8.65 196.04,8.43 196.33,8.07 196.62,7.76 196.91,6.53 197.21,6.44 197.50,6.80 197.79,6.17 198.08,6.52 198.37,6.83 198.67,6.24 198.96,5.85 199.25,5.54 199.54,5.79 199.84,5.43 200.13,5.38 200.42,5.53 200.71,5.35 201.01,5.62 201.30,4.87 201.59,5.22 201.88,5.62 202.17,5.65 202.47,4.92 202.76,4.76 203.05,4.95 203.34,6.92 203.64,6.92 203.93,7.37 204.22,7.43 204.51,7.10 204.80,7.86 205.10,7.56 205.39,7.48 205.68,7.59 205.97,7.71 206.27,7.79 206.56,6.98 206.85,7.34 207.14,7.07 207.44,6.61 207.73,6.84 208.02,6.56 208.31,7.41 208.60,8.25 208.90,8.77 209.19,8.95 209.48,8.73 209.77,8.23 210.07,7.89 210.36,8.10 210.65,8.32 210.94,9.17 211.24,8.65 211.53,9.41 211.82,9.70 212.11,10.59 212.40,10.82 212.70,10.24 212.99,10.79 213.28,10.50 213.57,10.48 213.87,11.01 214.16,12.00 214.45,13.40 214.74,13.38 215.04,13.02 215.33,13.38 215.62,13.03 215.91,13.60 216.20,13.11 216.50,13.65 216.79,12.99 217.08,13.34 217.37,14.30 217.67,14.49 217.96,15.69 218.25,14.88 218.54,14.47 218.83,14.11 219.13,13.78 219.42,13.60 219.71,13.50 220.00,14.15 220.30,13.64 220.59,12.96 220.88,12.70 221.17,11.87 221.47,11.42 221.76,11.28 222.05,11.58 222.34,12.56 222.63,12.53 222.93,13.02 223.22,55.43 223.51,55.43 223.80,53.46 224.10,53.46 224.39,53.46 224.68,51.51 224.97,51.51 225.27,51.51 225.56,51.35 225.85,51.35 226.14,51.35 226.43,47.79 226.73,50.87 227.02,50.87 227.31,50.87 227.60,47.29 227.90,49.27 228.19,49.27 228.48,49.27 228.77,45.67 229.07,47.64 229.36,47.64 229.65,47.64 229.94,47.80 230.23,47.80 230.53,47.80 230.82,47.45 231.11,47.45 231.40,47.31 231.70,47.31 231.99,47.31 232.28,44.96 232.57,43.59 232.86,43.59 233.16,45.22 233.45,45.22 233.74,43.50 234.03,43.50 234.33,43.50 234.62,41.93 234.91,41.93 235.20,40.20 235.50,40.99 235.79,40.99 236.08,40.99 236.37,40.99 236.66,40.21 236.96,37.36 237.25,37.36 237.54,37.36 237.83,37.65 238.13,37.65 238.42,37.65 238.71,37.53 239.00,35.19 239.30,35.19 239.59,35.19 239.88,36.23 240.17,32.99 240.46,32.99 240.76,32.99 241.05,35.34 241.34,35.34 241.63,32.31 241.93,32.31 242.22,33.04 242.51,33.04 242.80,30.03 243.10,30.03 243.39,31.39 243.68,31.39 243.97,31.39 244.26,30.77 244.56,30.77 244.85,30.77 245.14,29.56 245.43,29.56 245.73,29.56 246.02,28.53 246.31,28.53 246.60,28.53 246.89,28.53 247.19,28.53 247.48,28.53 247.77,28.53 248.06,28.53 248.36,27.79 248.65,27.79 248.94,27.79 249.23,27.79 249.53,24.54 249.82,24.54 250.11,24.54 250.40,23.12 250.69,23.12 250.99,23.12 251.28,23.35 251.57,23.35 251.86,23.35 252.16,23.52 252.45,23.52 252.74,23.52 253.03,23.52 253.33,23.25 253.62,23.25 253.91,20.66 254.20,20.93 254.49,20.93 254.79,20.93 255.08,20.90 255.37,20.90 255.66,20.90 255.96,18.95 256.25,18.95 256.54,18.95 256.83,18.95 257.13,18.51 257.42,18.51 257.71,18.51 258.00,21.59 258.29,21.59 258.59,18.21 258.88,18.21 259.17,18.21 259.46,14.85 259.76,14.85 260.05,14.85 260.34,14.63 260.63,14.63 260.92,13.87 261.22,13.87 261.51,13.87 261.80,13.33 262.09,13.33 262.39,13.25 262.68,13.25 262.97,13.25 263.26,13.25 263.56,13.25 263.85,11.51 264.14,11.51 264.43,11.51 264.72,15.56 265.02,15.56 265.31,15.56 265.60,14.43 265.89,14.43 266.19,14.43 266.48,11.67 266.77,11.67 267.06,11.67 267.36,10.93 267.65,10.93 267.94,9.51 268.23,9.51 268.52,9.51 268.82,8.44 269.11,8.44 269.40,8.44 269.69,7.83 269.99,7.83 270.28,7.83 270.57,7.97 270.86,7.97 271.16,6.01 271.45,6.01 271.74,6.01 272.03,4.71 272.32,4.71 272.62,6.57 272.91,5.59 273.20,5.59 273.49,5.59 273.79,6.95 274.08,6.95 274.37,5.14 274.66,5.34 274.95,5.34 275.25,5.34 275.54,5.29 275.83,5.29 276.12,5.03 276.42,8.55 276.71,8.55 277.00,8.55 277.29,8.55 277.59,8.69 277.88,8.69 278.17,8.69 278.46,8.71 278.75,8.71 279.05,8.71 279.34,9.13 279.63,9.13 279.92,9.13 280.22,8.34 280.51,8.34 280.80,8.34 281.09,7.49 281.39,7.49 281.68,9.03 281.97,9.03 282.26,9.03 282.55,8.73 282.85,8.73 283.14,8.73 283.43,10.23 283.72,10.23 284.02,10.23 284.31,8.71 284.60,11.23 284.89,11.23 285.19,11.23 285.48,14.29 285.77,12.33 286.06,12.33 286.35,12.33 286.65,11.60 286.94,11.60 287.23,11.60 287.52,13.07 287.82,13.07 288.11,13.76 288.40,13.76 288.69,13.76 288.98,15.68 289.28,15.68 289.57,15.68 289.86,14.11 290.15,14.11 290.45,16.45 290.74,16.45 291.03,15.75 291.32,15.75 291.62,14.26 291.91,14.26 292.20,14.26 292.49,13.07 292.78,13.07 293.08,15.44 293.37,13.18 293.66,13.18 293.95,13.18 294.25,12.12 294.54,12.12 294.83,12.12 295.12,13.14 295.42,13.14 295.71,13.14 296.00,14.66" />
</svg>