<svg width="300" height="60" xmlns="http://www.w3.org/2000/svg">
  <polyline fill="rgba(255,200,0,0.3)" stroke="#ffbb00" stroke-width="2" points="4.00,56.00 4.73,55.74 5.46,55.16 6.20,54.98 6.93,54.73 7.66,54.18 8.39,53.50 9.12,53.06 9.85,52.53 10.59,51.64 11.32,50.60 12.05,50.59 12.78,51.04 13.51,50.39 14.25,49.12 14.98,47.62 15.71,46.13 16.44,44.91 17.17,43.66 17.90,42.84 18.64,42.28 19.37,41.83 20.10,41.55 20.83,41.55 21.56,41.60 22.30,42.00 23.03,41.87 23.76,41.78 24.49,42.33 25.22,42.51 25.95,41.39 26.69,40.56 27.42,39.06 28.15,38.18 28.88,37.24 29.61,36.32 30.35,36.28 31.08,36.14 31.81,37.01 32.54,38.43 33.27,37.82 34.01,35.82 34.74,34.31 35.47,33.13 36.20,32.67 36.93,32.51 37.66,31.71 38.40,31.09 39.13,30.26 39.86,30.35 40.59,29.73 41.32,29.09 42.06,29.12 42.79,29.48 43.52,29.16 44.25,27.62 44.98,26.30 45.71,25.17 46.45,23.00 47.18,21.09 47.91,19.64 48.64,18.60 49.37,17.75 50.11,17.42 50.84,17.03 51.57,16.79 52.30,16.16 53.03,15.92 53.76,15.39 54.50,14.76 55.23,14.04 55.96,13.35 56.69,12.56 57.42,12.00 58.16,11.54 58.89,11.06 59.62,10.98 60.35,10.59 61.08,9.73 61.81,8.91 62.55,8.52 63.28,7.41 64.01,6.78 64.74,6.55 65.47,6.24 66.21,5.89 66.94,5.61 67.67,5.32 68.40,5.49 69.13,6.09 69.86,6.23 70.60,6.07 71.33,5.98 72.06,5.80 72.79,5.83 73.52,5.70 74.26,5.56 74.99,5.21 75.72,4.59 76.45,4.02 77.18,55.94 77.91,55.66 78.65,55.20 79.38,55.25 80.11,54.76 80.84,53.99 81.57,53.54 82.31,53.09 83.04,52.50 83.77,51.51 84.50,50.34 85.23,50.41 85.96,50.94 86.70,50.23 87.43,48.79 88.16,47.73 88.89,46.07 89.62,44.58 90.36,43.79 91.09,42.90 91.82,42.31 92.55,41.84 93.28,41.47 94.02,41.40 94.75,41.40 95.48,41.64 96.21,41.44 96.94,41.72 97.67,42.34 98.41,42.50 99.14,41.65 99.87,40.55 100.60,38.27 101.33,38.60 102.07,37.54 102.80,36.40 103.53,35.74 104.26,36.32 104.99,36.99 105.72,38.45 106.46,37.70 107.19,35.85 107.92,33.76 108.65,33.25 109.38,32.65 110.12,32.34 110.85,31.66 111.58,30.99 112.31,30.30 113.04,30.45 113.77,29.46 114.51,29.17 115.24,28.75 115.97,29.68 116.70,29.52 117.43,27.80 118.17,26.38 118.90,25.18 119.63,22.99 120.36,21.02 121.09,19.83 121.82,18.60 122.56,17.83 123.29,17.28 124.02,17.09 124.75,16.78 125.48,16.15 126.22,15.85 126.95,15.31 127.68,14.75 128.41,13.93 129.14,13.29 129.87,12.53 130.61,11.94 131.34,11.60 132.07,11.20 132.80,10.94 133.53,10.39 134.27,9.79 135.00,8.87 135.73,8.70 136.46,7.57 137.19,7.02 137.92,6.60 138.66,6.34 139.39,6.04 140.12,5.56 140.85,5.50 141.58,5.50 142.32,6.12 143.05,6.18 143.78,6.01 144.51,5.78 145.24,5.91 145.97,5.96 146.71,5.62 147.44,5.53 148.17,5.29 148.90,4.67 149.63,4.07 150.37,55.35 151.10,55.05 151.83,54.78 152.56,54.64 153.29,54.59 154.03,53.59 154.76,53.47 155.49,53.43 156.22,52.37 156.95,50.96 157.68,50.53 158.42,49.42 159.15,50.06 159.88,49.90 160.61,48.04 161.34,48.04 162.08,46.38 162.81,44.89 163.54,43.63 164.27,42.71 165.00,42.11 165.73,41.80 166.47,41.80 167.20,41.08 167.93,41.66 168.66,42.37 169.39,40.64 170.13,42.11 170.86,42.05 171.59,42.05 172.32,42.08 173.05,40.30 173.78,39.11 174.52,37.48 175.25,37.83 175.98,36.33 176.71,35.59 177.44,36.88 178.18,37.20 178.91,37.62 179.64,36.94 180.37,35.00 181.10,33.40 181.83,33.40 182.57,32.06 183.30,32.53 184.03,31.53 184.76,31.49 185.49,30.32 186.23,30.62 186.96,29.40 187.69,28.40 188.42,29.26 189.15,28.70 189.88,30.00 190.62,28.16 191.35,26.50 192.08,24.82 192.81,23.01 193.54,21.29 194.28,19.98 195.01,18.16 195.74,17.78 196.47,16.86 197.20,17.02 197.93,16.36 198.67,16.36 199.40,15.82 200.13,15.20 200.86,14.57 201.59,13.95 202.33,13.26 203.06,12.64 203.79,11.97 204.52,11.78 205.25,11.12 205.98,11.10 206.72,9.84 207.45,9.61 208.18,8.27 208.91,8.24 209.64,7.10 210.38,7.39 211.11,6.39 211.84,5.90 212.57,6.15 213.30,5.43 214.04,5.70 214.77,5.45 215.50,6.00 216.23,6.27 216.96,5.57 217.69,5.98 218.43,5.61 219.16,5.58 219.89,5.34 220.62,5.34 221.35,5.39 222.09,4.48 222.82,4.00 223.55,52.66 224.28,52.66 225.01,52.54 225.74,52.54 226.48,52.54 227.21,52.36 227.94,52.36 228.67,52.36 229.40,51.68 230.14,47.49 230.87,47.49 231.60,47.49 232.33,48.19 233.06,48.19 233.79,48.19 234.53,48.19 235.26,43.88 235.99,43.88 236.72,43.88 237.45,42.08 238.19,42.08 238.92,42.08 239.65,43.03 240.38,39.32 241.11,39.32 241.84,38.96 242.58,38.96 243.31,38.96 244.04,37.30 244.77,37.30 245.50,40.09 246.24,40.09 246.97,34.90 247.70,34.90 248.43,34.90 249.16,32.27 249.89,32.27 250.63,37.17 251.36,35.93 252.09,35.93 252.82,35.93 253.55,31.28 254.29,31.28 255.02,31.28 255.75,31.28 256.48,27.53 257.21,27.53 257.94,31.60 258.68,28.10 259.41,28.10 260.14,28.10 260.87,26.20 261.60,26.20 262.34,26.20 263.07,29.69 263.80,24.86 264.53,24.86 265.26,24.86 265.99,20.41 266.73,20.41 267.46,20.41 268.19,16.23 268.92,16.23 269.65,16.23 270.39,16.58 271.12,16.58 271.85,16.58 272.58,14.39 273.31,14.84 274.05,14.84 274.78,12.57 275.51,12.57 276.24,12.60 276.97,10.93 277.70,10.93 278.44,9.97 279.17,9.97 279.90,9.97 280.63,9.62 281.36,6.24 282.10,6.24 282.83,6.79 283.56,6.79 284.29,6.79 285.02,4.20 285.75,5.03 286.49,5.03 287.22,5.03 287.95,5.88 288.68,5.88 289.41,5.88 290.15,4.75 290.88,4.75 291.61,4.75 292.34,5.49 293.07,5.49 293.80,5.49 294.54,5.49 295.27,4.10 296.00,4.10" />
</svg>