<svg width="300" height="60" xmlns="http://www.w3.org/2000/svg">
  <polyline fill="rgba(255,200,0,0.3)" stroke="#ffbb00" stroke-width="2" points="4.00,30.36 4.18,30.19 4.36,30.37 4.54,30.55 4.72,30.87 4.90,30.79 5.08,30.35 5.27,30.10 5.45,30.33 5.63,30.30 5.81,29.95 5.99,29.54 6.17,29.65 6.35,29.45 6.53,29.41 6.71,28.34 6.89,28.05 7.07,28.09 7.25,28.44 7.44,28.28 7.62,27.87 7.80,27.01 7.98,26.32 8.16,26.30 8.34,26.20 8.52,25.64 8.70,25.51 8.88,26.15 9.06,26.33 9.24,26.16 9.42,25.83 9.60,25.43 9.79,25.83 9.97,24.77 10.15,23.48 10.33,23.15 10.51,23.23 10.69,23.32 10.87,23.17 11.05,23.13 11.23,23.19 11.41,23.06 11.59,22.88 11.77,22.82 11.96,22.20 12.14,21.70 12.32,21.29 12.50,20.78 12.68,20.75 12.86,21.07 13.04,21.54 13.22,21.27 13.40,21.17 13.58,21.59 13.76,22.06 13.94,22.10 14.13,21.79 14.31,21.11 14.49,20.59 14.67,20.38 14.85,20.57 15.03,20.36 15.21,19.64 15.39,18.68 15.57,17.54 15.75,16.63 15.93,16.79 16.11,17.51 16.29,17.53 16.48,17.31 16.66,16.91 16.84,15.99 17.02,15.73 17.20,15.15 17.38,14.74 17.56,14.50 17.74,15.01 17.92,14.83 18.10,14.41 18.28,13.82 18.46,13.53 18.65,13.57 18.83,13.40 19.01,13.43 19.19,12.67 19.37,12.30 19.55,11.74 19.73,11.12 19.91,10.47 20.09,9.95 20.27,9.74 20.45,9.90 20.63,10.14 20.81,10.52 21.00,10.87 21.18,10.77 21.36,10.61 21.54,10.50 21.72,10.25 21.90,10.10 22.08,9.89 22.26,9.70 22.44,9.54 22.62,9.37 22.80,9.15 22.98,8.96 23.17,8.81 23.35,8.71 23.53,8.82 23.71,8.72 23.89,8.41 24.07,8.22 24.25,7.54 24.43,7.29 24.61,7.08 24.79,6.63 24.97,5.97 25.15,5.86 25.33,6.19 25.52,6.11 25.70,6.31 25.88,6.55 26.06,6.53 26.24,6.85 26.42,7.16 26.60,6.65 26.78,6.21 26.96,6.15 27.14,6.40 27.32,7.20 27.50,7.27 27.69,7.36 27.87,8.06 28.05,8.42 28.23,8.06 28.41,8.05 28.59,8.28 28.77,8.34 28.95,8.60 29.13,9.54 29.31,10.10 29.49,9.93 29.67,9.72 29.86,9.72 30.04,9.97 30.22,10.09 30.40,10.31 30.58,10.59 30.76,10.78 30.94,11.05 31.12,11.62 31.30,11.51 31.48,11.50 31.66,11.82 31.84,12.77 32.02,13.79 32.21,14.88 32.39,15.13 32.57,15.19 32.75,14.86 32.93,15.18 33.11,15.71 33.29,16.07 33.47,15.80 33.65,15.60 33.83,15.77 34.01,16.47 34.19,17.18 34.38,17.89 34.56,17.95 34.74,17.97 34.92,17.51 35.10,17.20 35.28,17.76 35.46,17.49 35.64,17.22 35.82,15.88 36.00,15.59 36.18,15.69 36.36,15.98 36.54,16.45 36.73,16.90 36.91,17.43 37.09,18.09 37.27,18.09 37.45,18.24 37.63,19.02 37.81,19.95 37.99,20.26 38.17,20.77 38.35,21.16 38.53,20.93 38.71,20.95 38.90,19.36 39.08,20.01 39.26,20.21 39.44,21.41 39.62,22.38 39.80,22.59 39.98,22.72 40.16,22.73 40.34,22.21 40.52,22.14 40.70,22.44 40.88,21.92 41.07,23.12 41.25,23.35 41.43,23.83 41.61,23.55 41.79,23.59 41.97,22.81 42.15,22.45 42.33,22.60 42.51,22.95 42.69,23.66 42.87,24.44 43.05,24.82 43.23,25.05 43.42,25.29 43.60,25.55 43.78,25.83 43.96,26.01 44.14,26.33 44.32,26.42 44.50,26.43 44.68,25.96 44.86,25.92 45.04,25.81 45.22,26.29 45.40,27.23 45.59,27.50 45.77,27.89 45.95,27.35 46.13,27.44 46.31,27.64 46.49,29.56 46.67,29.80 46.85,29.94 47.03,30.00 47.21,30.10 47.39,29.43 47.57,28.84 47.75,29.06 47.94,29.67 48.12,29.96 48.30,29.97 48.48,30.27 48.66,30.25 48.84,30.96 49.02,32.30 49.20,32.54 49.38,32.51 49.56,33.07 49.74,33.45 49.92,33.55 50.11,33.20 50.29,32.03 50.47,32.32 50.65,32.89 50.83,33.59 51.01,33.64 51.19,33.69 51.37,33.81 51.55,34.59 51.73,35.34 51.91,35.68 52.09,35.38 52.27,34.27 52.46,34.07 52.64,34.38 52.82,34.63 53.00,33.59 53.18,33.34 53.36,33.87 53.54,35.35 53.72,36.06 53.90,35.28 54.08,35.35 54.26,35.91 54.44,36.02 54.63,35.78 54.81,34.75 54.99,33.86 55.17,33.54 55.35,33.11 55.53,33.50 55.71,34.33 55.89,34.61 56.07,34.68 56.25,34.53 56.43,34.59 56.61,34.44 56.80,34.80 56.98,34.94 57.16,35.15 57.34,35.81 57.52,36.04 57.70,36.21 57.88,36.38 58.06,36.52 58.24,36.69 58.42,36.83 58.60,36.91 58.78,37.19 58.96,37.65 59.15,37.94 59.33,38.21 59.51,38.20 59.69,38.73 59.87,39.28 60.05,39.66 60.23,39.84 60.41,40.02 60.59,40.29 60.77,40.62 60.95,40.95 61.13,41.22 61.32,41.51 61.50,41.83 61.68,41.72 61.86,41.47 62.04,41.62 62.22,41.91 62.40,42.33 62.58,42.77 62.76,43.32 62.94,43.98 63.12,44.26 63.30,44.92 63.48,44.22 63.67,44.10 63.85,43.99 64.03,43.79 64.21,43.36 64.39,43.23 64.57,43.06 64.75,42.96 64.93,42.95 65.11,42.95 65.29,42.97 65.47,43.39 65.65,43.79 65.84,44.15 66.02,44.44 66.20,44.72 66.38,44.97 66.56,45.40 66.74,45.71 66.92,45.99 67.10,45.91 67.28,45.99 67.46,46.08 67.64,46.16 67.82,46.20 68.00,46.25 68.19,46.31 68.37,46.34 68.55,46.39 68.73,46.45 68.91,46.51 69.09,46.58 69.27,46.69 69.45,46.78 69.63,46.88 69.81,46.98 69.99,47.05 70.17,47.12 70.36,47.19 70.54,47.29 70.72,47.45 70.90,47.60 71.08,47.84 71.26,48.05 71.44,48.20 71.62,48.44 71.80,48.57 71.98,48.85 72.16,49.14 72.34,49.58 72.53,49.53 72.71,49.73 72.89,50.48 73.07,50.71 73.25,50.91 73.43,51.20 73.61,51.40 73.79,51.38 73.97,51.67 74.15,51.75 74.33,52.41 74.51,52.74 74.69,52.67 74.88,53.31 75.06,53.68 75.24,53.89 75.42,54.08 75.60,54.28 75.78,54.52 75.96,54.74 76.14,54.93 76.32,55.12 76.50,55.31 76.68,55.51 76.86,55.66 77.05,30.32 77.23,30.12 77.41,30.41 77.59,30.61 77.77,30.86 77.95,30.80 78.13,30.36 78.31,30.09 78.49,30.35 78.67,30.39 78.85,29.95 79.03,29.50 79.21,29.60 79.40,29.41 79.58,29.29 79.76,28.38 79.94,28.00 80.12,28.11 80.30,28.58 80.48,28.25 80.66,27.95 80.84,26.89 81.02,26.38 81.20,26.23 81.38,26.00 81.57,25.49 81.75,25.40 81.93,26.23 82.11,26.32 82.29,26.14 82.47,25.78 82.65,25.53 82.83,25.89 83.01,24.70 83.19,23.59 83.37,23.18 83.55,23.36 83.73,23.41 83.92,23.39 84.10,22.77 84.28,22.84 84.46,22.77 84.64,22.68 84.82,22.55 85.00,22.09 85.18,21.68 85.36,21.16 85.54,20.70 85.72,20.70 85.90,21.11 86.09,21.51 86.27,21.23 86.45,21.24 86.63,21.63 86.81,22.12 86.99,22.21 87.17,21.89 87.35,21.23 87.53,20.87 87.71,20.19 87.89,20.69 88.07,20.37 88.26,19.65 88.44,18.60 88.62,17.84 88.80,16.37 88.98,16.89 89.16,17.60 89.34,17.34 89.52,17.18 89.70,17.09 89.88,16.11 90.06,15.79 90.24,15.15 90.42,14.71 90.61,14.71 90.79,15.02 90.97,14.78 91.15,14.34 91.33,13.39 91.51,13.49 91.69,13.59 91.87,13.18 92.05,13.48 92.23,12.44 92.41,11.95 92.59,11.25 92.78,11.49 92.96,10.41 93.14,9.83 93.32,9.57 93.50,9.67 93.68,9.71 93.86,9.85 94.04,10.89 94.22,10.69 94.40,10.63 94.58,10.40 94.76,10.21 94.94,10.10 95.13,9.83 95.31,9.70 95.49,9.54 95.67,9.35 95.85,9.15 96.03,8.96 96.21,8.83 96.39,8.63 96.57,8.80 96.75,8.55 96.93,8.61 97.11,7.97 97.30,7.52 97.48,7.29 97.66,7.07 97.84,6.23 98.02,5.69 98.20,5.57 98.38,6.14 98.56,6.08 98.74,6.11 98.92,6.65 99.10,6.59 99.28,6.93 99.47,6.93 99.65,6.31 99.83,6.13 100.01,6.08 100.19,6.29 100.37,6.89 100.55,7.52 100.73,7.19 100.91,8.30 101.09,8.32 101.27,8.31 101.45,7.93 101.63,8.41 101.82,8.26 102.00,8.71 102.18,9.85 102.36,9.74 102.54,9.77 102.72,9.68 102.90,9.74 103.08,9.96 103.26,10.02 103.44,10.13 103.62,10.57 103.80,10.67 103.99,10.82 104.17,11.72 104.35,11.18 104.53,11.44 104.71,11.75 104.89,12.92 105.07,13.56 105.25,14.78 105.43,14.99 105.61,15.19 105.79,15.05 105.97,15.46 106.15,15.62 106.34,15.93 106.52,15.83 106.70,15.74 106.88,15.95 107.06,16.86 107.24,16.91 107.42,17.86 107.60,18.03 107.78,18.07 107.96,17.28 108.14,17.64 108.32,17.41 108.51,17.44 108.69,16.86 108.87,16.31 109.05,15.58 109.23,15.75 109.41,16.00 109.59,16.48 109.77,17.04 109.95,17.23 110.13,17.89 110.31,18.04 110.49,18.12 110.67,19.18 110.86,20.06 111.04,20.25 111.22,20.93 111.40,21.23 111.58,20.90 111.76,21.01 111.94,19.27 112.12,20.34 112.30,20.47 112.48,21.37 112.66,22.38 112.84,22.55 113.03,22.84 113.21,22.61 113.39,21.93 113.57,21.83 113.75,22.17 113.93,21.51 114.11,23.17 114.29,23.33 114.47,23.84 114.65,23.49 114.83,23.59 115.01,22.63 115.20,22.49 115.38,22.83 115.56,22.72 115.74,23.40 115.92,24.31 116.10,24.79 116.28,24.89 116.46,25.06 116.64,25.55 116.82,25.80 117.00,26.10 117.18,26.35 117.36,25.66 117.55,26.25 117.73,26.21 117.91,26.23 118.09,25.73 118.27,26.49 118.45,27.02 118.63,27.18 118.81,27.73 118.99,27.44 119.17,27.41 119.35,27.57 119.53,29.51 119.72,29.77 119.90,29.99 120.08,29.98 120.26,30.10 120.44,29.39 120.62,28.56 120.80,28.91 120.98,29.28 121.16,29.96 121.34,29.87 121.52,30.13 121.70,30.04 121.88,31.18 122.07,32.01 122.25,32.34 122.43,32.54 122.61,32.50 122.79,33.43 122.97,33.52 123.15,32.48 123.33,31.97 123.51,32.17 123.69,32.73 123.87,33.72 124.05,33.79 124.24,33.41 124.42,33.53 124.60,34.09 124.78,34.69 124.96,35.41 125.14,34.77 125.32,33.98 125.50,34.00 125.68,34.41 125.86,34.40 126.04,33.55 126.22,33.29 126.40,33.81 126.59,35.47 126.77,36.11 126.95,35.21 127.13,35.46 127.31,35.76 127.49,35.75 127.67,35.82 127.85,34.68 128.03,33.67 128.21,33.25 128.39,33.02 128.57,33.00 128.76,34.25 128.94,34.64 129.12,34.69 129.30,34.57 129.48,34.23 129.66,34.26 129.84,34.61 130.02,34.96 130.20,35.10 130.38,35.80 130.56,36.01 130.74,36.20 130.93,36.35 131.11,36.53 131.29,36.65 131.47,36.83 131.65,36.99 131.83,37.26 132.01,37.42 132.19,37.91 132.37,38.14 132.55,38.26 132.73,38.75 132.91,39.43 133.09,39.84 133.28,39.77 133.46,39.96 133.64,40.26 133.82,40.63 134.00,40.95 134.18,41.18 134.36,41.50 134.54,41.77 134.72,42.10 134.90,41.30 135.08,41.44 135.26,41.67 135.45,42.10 135.63,42.65 135.81,43.32 135.99,43.88 136.17,44.20 136.35,44.76 136.53,44.28 136.71,44.10 136.89,43.96 137.07,43.84 137.25,43.68 137.43,43.32 137.61,42.96 137.80,42.92 137.98,42.92 138.16,43.03 138.34,43.11 138.52,43.50 138.70,43.74 138.88,44.12 139.06,44.39 139.24,44.59 139.42,44.96 139.60,45.44 139.78,45.64 139.97,45.72 140.15,46.03 140.33,45.98 140.51,46.04 140.69,46.12 140.87,46.15 141.05,46.22 141.23,46.26 141.41,46.26 141.59,46.39 141.77,46.42 141.95,46.43 142.13,46.59 142.32,46.66 142.50,46.76 142.68,46.84 142.86,46.94 143.04,47.04 143.22,47.11 143.40,47.17 143.58,47.31 143.76,47.20 143.94,47.18 144.12,47.43 144.30,48.01 144.49,48.18 144.67,48.25 144.85,48.52 145.03,48.85 145.21,49.16 145.39,49.70 145.57,49.47 145.75,49.97 145.93,50.41 146.11,50.67 146.29,50.92 146.47,51.14 146.66,51.36 146.84,51.16 147.02,51.68 147.20,51.88 147.38,52.20 147.56,52.75 147.74,52.88 147.92,53.42 148.10,53.66 148.28,53.83 148.46,54.06 148.64,54.30 148.82,54.53 149.01,54.71 149.19,54.92 149.37,55.10 149.55,55.30 149.73,55.51 149.91,55.56 150.09,30.50 150.27,30.01 150.45,30.61 150.63,30.72 150.81,30.72 150.99,30.74 151.18,29.97 151.36,30.23 151.54,30.10 151.72,30.43 151.90,30.03 152.08,29.69 152.26,29.25 152.44,29.25 152.62,28.90 152.80,28.32 152.98,27.86 153.16,28.29 153.34,28.01 153.53,28.03 153.71,28.03 153.89,27.00 154.07,26.59 154.25,26.29 154.43,25.79 154.61,25.17 154.79,25.31 154.97,25.87 155.15,25.84 155.33,25.33 155.51,24.88 155.70,25.05 155.88,25.27 156.06,24.42 156.24,23.32 156.42,22.83 156.60,22.98 156.78,23.00 156.96,22.88 157.14,22.79 157.32,22.78 157.50,22.68 157.68,22.51 157.87,22.33 158.05,22.03 158.23,21.63 158.41,21.21 158.59,20.68 158.77,20.88 158.95,21.41 159.13,21.50 159.31,21.31 159.49,21.35 159.67,21.64 159.85,21.88 160.03,21.73 160.22,21.29 160.40,20.78 160.58,20.78 160.76,20.55 160.94,20.47 161.12,20.21 161.30,19.86 161.48,18.79 161.66,17.64 161.84,16.45 162.02,17.09 162.20,16.51 162.39,17.14 162.57,16.35 162.75,16.95 162.93,16.60 163.11,15.91 163.29,14.98 163.47,14.87 163.65,14.56 163.83,14.98 164.01,14.96 164.19,14.44 164.37,13.51 164.55,13.77 164.74,12.75 164.92,12.72 165.10,13.05 165.28,12.11 165.46,11.11 165.64,11.71 165.82,10.70 166.00,11.24 166.18,10.11 166.36,9.16 166.54,10.43 166.72,9.51 166.91,9.19 167.09,10.04 167.27,10.32 167.45,10.32 167.63,10.23 167.81,10.29 167.99,10.29 168.17,10.19 168.35,9.88 168.53,9.45 168.71,9.02 168.89,8.56 169.07,9.29 169.26,9.05 169.44,8.81 169.62,8.54 169.80,8.23 169.98,8.87 170.16,8.31 170.34,7.81 170.52,7.31 170.70,6.90 170.88,5.67 171.06,5.81 171.24,5.81 171.43,5.83 171.61,6.19 171.79,6.24 171.97,6.82 172.15,6.52 172.33,7.48 172.51,7.47 172.69,7.26 172.87,6.99 173.05,7.04 173.23,7.45 173.41,7.80 173.60,7.72 173.78,7.59 173.96,8.96 174.14,8.39 174.32,8.39 174.50,9.27 174.68,8.57 174.86,9.42 175.04,9.23 175.22,9.53 175.40,9.63 175.58,10.88 175.76,10.32 175.95,10.12 176.13,9.98 176.31,9.85 176.49,10.07 176.67,10.49 176.85,10.86 177.03,11.53 177.21,11.46 177.39,11.59 177.57,11.83 177.75,12.35 177.93,13.07 178.12,13.07 178.30,13.98 178.48,14.48 178.66,14.74 178.84,14.86 179.02,15.09 179.20,15.62 179.38,16.08 179.56,16.21 179.74,16.20 179.92,16.32 180.10,16.91 180.28,17.82 180.47,18.53 180.65,18.69 180.83,18.57 181.01,18.26 181.19,17.93 181.37,17.71 181.55,17.50 181.73,15.81 181.91,15.55 182.09,14.84 182.27,16.52 182.45,16.61 182.64,17.01 182.82,16.63 183.00,17.69 183.18,18.08 183.36,18.47 183.54,18.00 183.72,19.37 183.90,19.52 184.08,20.87 184.26,21.43 184.44,21.79 184.62,21.39 184.80,20.35 184.99,20.05 185.17,20.57 185.35,20.57 185.53,21.57 185.71,22.75 185.89,22.74 186.07,22.92 186.25,21.50 186.43,22.08 186.61,22.32 186.79,22.35 186.97,22.51 187.16,23.09 187.34,23.28 187.52,23.56 187.70,23.57 187.88,22.46 188.06,21.62 188.24,22.78 188.42,22.07 188.60,23.06 188.78,22.67 188.96,23.69 189.14,24.62 189.33,24.27 189.51,23.75 189.69,25.18 189.87,24.66 190.05,25.42 190.23,26.00 190.41,25.12 190.59,26.61 190.77,25.87 190.95,26.36 191.13,25.37 191.31,26.63 191.49,26.51 191.68,27.54 191.86,27.13 192.04,26.99 192.22,27.19 192.40,27.85 192.58,29.11 192.76,29.85 192.94,30.47 193.12,29.52 193.30,29.19 193.48,28.64 193.66,27.76 193.85,29.46 194.03,29.23 194.21,30.57 194.39,29.89 194.57,29.39 194.75,30.68 194.93,31.22 195.11,30.93 195.29,32.20 195.47,32.47 195.65,32.82 195.83,33.44 196.01,33.43 196.20,32.68 196.38,31.76 196.56,32.07 196.74,32.75 196.92,33.42 197.10,33.40 197.28,33.38 197.46,33.54 197.64,34.24 197.82,34.63 198.00,35.00 198.18,35.27 198.37,33.70 198.55,34.81 198.73,35.27 198.91,34.42 199.09,34.28 199.27,33.57 199.45,33.75 199.63,35.61 199.81,36.49 199.99,35.08 200.17,36.19 200.35,35.31 200.53,35.21 200.72,35.77 200.90,35.20 201.08,33.25 201.26,33.30 201.44,32.64 201.62,33.77 201.80,33.61 201.98,34.33 202.16,34.38 202.34,33.99 202.52,34.39 202.70,34.79 202.89,34.40 203.07,34.92 203.25,35.50 203.43,35.71 203.61,36.08 203.79,36.34 203.97,36.34 204.15,36.61 204.33,36.76 204.51,37.06 204.69,37.31 204.87,37.31 205.06,37.71 205.24,37.89 205.42,38.15 205.60,38.23 205.78,38.69 205.96,39.14 206.14,39.80 206.32,39.68 206.50,40.01 206.68,40.31 206.86,40.01 207.04,40.64 207.22,41.31 207.41,41.37 207.59,41.37 207.77,41.38 207.95,41.34 208.13,41.65 208.31,41.53 208.49,42.27 208.67,43.08 208.85,43.08 209.03,43.92 209.21,44.60 209.39,44.50 209.58,44.50 209.76,44.05 209.94,43.62 210.12,43.75 210.30,43.76 210.48,43.25 210.66,43.17 210.84,43.14 211.02,43.14 211.20,43.16 211.38,43.22 211.56,43.53 211.74,43.53 211.93,43.82 212.11,44.31 212.29,44.48 212.47,45.01 212.65,45.70 212.83,45.66 213.01,46.20 213.19,45.99 213.37,46.26 213.55,46.07 213.73,46.15 213.91,46.20 214.10,46.24 214.28,46.32 214.46,46.39 214.64,46.40 214.82,46.38 215.00,46.35 215.18,46.85 215.36,46.80 215.54,46.82 215.72,46.90 215.90,47.01 216.08,47.13 216.27,47.24 216.45,47.32 216.63,47.38 216.81,47.41 216.99,47.49 217.17,47.71 217.35,47.99 217.53,48.21 217.71,48.49 217.89,48.89 218.07,48.89 218.25,49.24 218.43,49.68 218.62,49.82 218.80,49.91 218.98,50.40 219.16,50.86 219.34,51.35 219.52,51.00 219.70,51.77 219.88,51.27 220.06,50.97 220.24,51.59 220.42,52.70 220.60,53.20 220.79,53.09 220.97,53.22 221.15,53.73 221.33,53.99 221.51,54.66 221.69,54.56 221.87,53.91 222.05,54.59 222.23,54.29 222.41,55.13 222.59,54.78 222.77,55.38 222.95,54.79 223.14,29.45 223.32,29.45 223.50,30.45 223.68,30.45 223.86,30.45 224.04,29.32 224.22,29.32 224.40,29.32 224.58,30.14 224.76,30.14 224.94,29.01 225.12,29.01 225.31,29.01 225.49,28.14 225.67,28.14 225.85,28.14 226.03,26.70 226.21,26.70 226.39,26.70 226.57,26.16 226.75,26.16 226.93,26.16 227.11,26.16 227.29,26.52 227.47,25.46 227.66,25.46 227.84,25.45 228.02,25.45 228.20,25.45 228.38,24.79 228.56,24.79 228.74,24.20 228.92,24.20 229.10,24.20 229.28,22.98 229.46,22.98 229.64,22.79 229.83,22.79 230.01,22.79 230.19,22.47 230.37,22.47 230.55,22.47 230.73,22.04 230.91,22.04 231.09,21.23 231.27,21.23 231.45,21.23 231.63,21.11 231.81,21.11 232.00,22.57 232.18,22.47 232.36,22.47 232.54,22.47 232.72,22.44 232.90,22.44 233.08,22.44 233.26,21.35 233.44,21.35 233.62,21.35 233.80,21.35 233.98,19.53 234.16,19.53 234.35,19.53 234.53,16.28 234.71,16.28 234.89,17.31 235.07,17.31 235.25,13.48 235.43,13.69 235.61,13.69 235.79,16.66 235.97,14.73 236.15,14.73 236.33,14.55 236.52,14.55 236.70,14.55 236.88,14.11 237.06,14.11 237.24,14.11 237.42,11.32 237.60,11.32 237.78,11.32 237.96,7.88 238.14,11.94 238.32,11.94 238.50,9.23 238.68,9.23 238.87,9.23 239.05,6.58 239.23,6.58 239.41,6.58 239.59,9.57 239.77,9.57 239.95,8.03 240.13,8.03 240.31,8.03 240.49,8.03 240.67,7.60 240.85,7.60 241.04,7.60 241.22,6.62 241.40,6.62 241.58,6.62 241.76,5.34 241.94,5.34 242.12,10.20 242.30,9.08 242.48,9.08 242.66,9.08 242.84,8.15 243.02,8.15 243.20,8.15 243.39,6.72 243.57,6.72 243.75,6.72 243.93,5.84 244.11,5.84 244.29,5.84 244.47,4.00 244.65,6.54 244.83,6.54 245.01,6.54 245.19,7.68 245.37,7.68 245.56,7.68 245.74,7.39 245.92,7.39 246.10,7.39 246.28,7.63 246.46,7.63 246.64,7.63 246.82,7.67 247.00,12.50 247.18,12.50 247.36,12.50 247.54,10.94 247.73,10.94 247.91,10.94 248.09,9.67 248.27,9.67 248.45,9.67 248.63,14.00 248.81,14.00 248.99,14.00 249.17,13.00 249.35,13.00 249.53,13.00 249.71,11.80 249.89,11.80 250.08,11.80 250.26,11.80 250.44,11.80 250.62,15.19 250.80,15.19 250.98,17.81 251.16,17.81 251.34,17.81 251.52,17.81 251.70,18.51 251.88,18.51 252.06,18.51 252.25,19.75 252.43,19.75 252.61,19.75 252.79,20.32 252.97,20.32 253.15,20.32 253.33,21.17 253.51,21.17 253.69,21.17 253.87,19.65 254.05,19.65 254.23,19.65 254.41,15.44 254.60,15.44 254.78,15.44 254.96,15.44 255.14,15.33 255.32,15.33 255.50,16.86 255.68,16.86 255.86,16.86 256.04,19.77 256.22,18.33 256.40,18.33 256.58,18.33 256.77,21.62 256.95,22.44 257.13,22.44 257.31,22.44 257.49,21.13 257.67,21.13 257.85,21.13 258.03,18.90 258.21,22.92 258.39,22.92 258.57,22.92 258.75,21.83 258.93,21.83 259.12,23.44 259.30,19.69 259.48,19.69 259.66,19.69 259.84,20.83 260.02,20.83 260.20,22.39 260.38,22.39 260.56,22.39 260.74,21.11 260.92,21.11 261.10,19.26 261.29,19.26 261.47,19.26 261.65,22.13 261.83,22.13 262.01,22.13 262.19,20.63 262.37,20.63 262.55,20.63 262.73,23.65 262.91,23.65 263.09,23.65 263.27,21.17 263.46,21.17 263.64,25.71 263.82,25.71 264.00,23.69 264.18,23.69 264.36,23.69 264.54,23.78 264.72,27.45 264.90,27.73 265.08,27.73 265.26,27.73 265.44,30.04 265.62,30.04 265.81,28.02 265.99,27.43 266.17,27.43 266.35,27.43 266.53,25.96 266.71,25.96 266.89,25.34 267.07,25.34 267.25,30.34 267.43,29.72 267.61,29.72 267.79,29.72 267.98,32.09 268.16,32.09 268.34,32.09 268.52,32.39 268.70,32.39 268.88,32.39 269.06,31.26 269.24,31.26 269.42,31.26 269.60,31.78 269.78,31.78 269.96,32.11 270.14,32.11 270.33,32.11 270.51,32.45 270.69,32.45 270.87,33.53 271.05,33.53 271.23,33.53 271.41,36.09 271.59,36.09 271.77,33.34 271.95,33.34 272.13,37.58 272.31,35.84 272.50,35.84 272.68,35.84 272.86,35.84 273.04,31.60 273.22,33.42 273.40,33.42 273.58,32.48 273.76,32.48 273.94,32.48 274.12,32.88 274.30,32.88 274.48,32.88 274.67,34.92 274.85,32.05 275.03,32.05 275.21,33.78 275.39,33.78 275.57,34.61 275.75,34.97 275.93,34.97 276.11,34.97 276.29,36.54 276.47,36.54 276.65,36.54 276.83,38.77 277.02,38.77 277.20,37.41 277.38,37.41 277.56,39.49 277.74,39.49 277.92,38.14 278.10,38.14 278.28,38.14 278.46,40.75 278.64,39.60 278.82,39.60 279.00,39.60 279.19,39.70 279.37,39.70 279.55,39.70 279.73,40.57 279.91,40.05 280.09,40.05 280.27,40.37 280.45,40.37 280.63,40.37 280.81,40.37 280.99,41.42 281.17,41.42 281.35,41.42 281.54,41.42 281.72,43.73 281.90,43.73 282.08,43.73 282.26,45.80 282.44,44.60 282.62,44.60 282.80,44.60 282.98,44.60 283.16,43.98 283.34,43.98 283.52,44.34 283.71,44.01 283.89,44.01 284.07,44.01 284.25,44.10 284.43,44.10 284.61,44.10 284.79,44.10 284.97,44.23 285.15,44.23 285.33,45.55 285.51,45.10 285.69,45.10 285.87,45.10 286.06,46.10 286.24,46.10 286.42,46.10 286.60,47.79 286.78,47.84 286.96,47.84 287.14,47.84 287.32,48.02 287.50,48.02 287.68,48.02 287.86,48.55 288.04,48.55 288.23,48.55 288.41,47.95 288.59,47.95 288.77,47.95 288.95,47.88 289.13,47.88 289.31,47.88 289.49,47.95 289.67,47.95 289.85,47.95 290.03,47.75 290.21,47.75 290.40,47.75 290.58,48.51 290.76,48.51 290.94,48.51 291.12,48.51 291.30,50.46 291.48,50.46 291.66,50.46 291.84,52.40 292.02,52.40 292.20,51.04 292.38,53.89 292.56,53.89 292.75,53.89 292.93,51.90 293.11,51.90 293.29,53.91 293.47,53.91 293.65,55.72 293.83,55.72 294.01,54.03 294.19,54.03 294.37,54.03 294.55,56.00 294.73,53.94 294.92,53.94 295.10,53.94 295.28,53.94 295.46,55.20 295.64,55.20 295.82,54.38 296.00,54.38" />
</svg>