<svg width="300" height="60" xmlns="http://www.w3.org/2000/svg">
  <polyline fill="rgba(255,200,0,0.3)" stroke="#ffbb00" stroke-width="2" points="4.00,4.00 4.68,5.95 5.37,9.46 6.05,12.17 6.74,11.70 7.42,10.44 8.10,9.62 8.79,9.82 9.47,10.62 10.15,12.03 10.84,13.07 11.52,14.59 12.21,14.87 12.89,14.16 13.57,12.31 14.26,11.26 14.94,8.08 15.63,6.80 16.31,5.57 16.99,4.46 17.68,7.65 18.36,9.58 19.04,13.77 19.73,15.12 20.41,16.96 21.10,20.82 21.78,24.00 22.46,26.93 23.15,30.48 23.83,32.64 24.52,34.08 25.20,35.66 25.88,37.16 26.57,40.52 27.25,43.62 27.93,45.35 28.62,47.46 29.30,49.68 29.99,52.51 30.67,53.59 31.35,52.63 32.04,50.20 32.72,47.58 33.41,45.98 34.09,43.46 34.77,41.61 35.46,42.51 36.14,43.01 36.82,43.00 37.51,41.25 38.19,38.51 38.88,38.32 39.56,42.26 40.24,43.75 40.93,46.83 41.61,49.45 42.30,51.55 42.98,51.82 43.66,50.11 44.35,48.36 45.03,47.14 45.71,46.21 46.40,46.74 47.08,46.92 47.77,46.95 48.45,45.65 49.13,41.59 49.82,36.59 50.50,33.81 51.19,33.02 51.87,30.25 52.55,26.86 53.24,26.59 53.92,27.30 54.60,22.39 55.29,18.25 55.97,16.06 56.66,17.28 57.34,21.32 58.02,21.48 58.71,21.76 59.39,22.64 60.07,19.35 60.76,19.51 61.44,21.06 62.13,22.48 62.81,21.97 63.49,23.03 64.18,19.31 64.86,18.82 65.55,19.74 66.23,21.97 66.91,25.21 67.60,24.77 68.28,23.03 68.96,22.37 69.65,21.33 70.33,19.91 71.02,18.86 71.70,17.98 72.38,17.24 73.07,16.24 73.75,15.47 74.44,14.28 75.12,11.80 75.80,10.38 76.49,7.85 77.17,6.67 77.85,7.89 78.54,11.78 79.22,13.68 79.91,13.08 80.59,11.70 81.27,11.96 81.96,12.42 82.64,13.54 83.33,14.21 84.01,16.48 84.69,18.29 85.38,17.37 86.06,16.93 86.74,15.81 87.43,14.10 88.11,10.90 88.80,9.78 89.48,6.76 90.16,7.00 90.85,9.61 91.53,12.03 92.22,14.53 92.90,17.02 93.58,19.70 94.27,22.20 94.95,26.35 95.63,30.30 96.32,32.64 97.00,35.25 97.69,36.90 98.37,38.54 99.05,41.21 99.74,42.86 100.42,45.80 101.11,48.63 101.79,50.10 102.47,52.17 103.16,54.96 103.84,56.00 104.52,54.79 105.21,51.64 105.89,49.71 106.58,47.99 107.26,45.13 107.94,43.40 108.63,44.52 109.31,45.57 110.00,44.10 110.68,44.44 111.36,39.40 112.05,40.95 112.73,42.64 113.41,46.01 114.10,51.07 114.78,52.37 115.47,55.14 116.15,55.59 116.83,52.48 117.52,51.53 118.20,50.25 118.89,46.70 119.57,48.69 120.25,49.35 120.94,49.61 121.62,47.86 122.30,43.80 122.99,39.05 123.67,36.19 124.36,34.98 125.04,32.82 125.72,29.83 126.41,29.83 127.09,29.91 127.78,25.04 128.46,20.81 129.14,18.46 129.83,19.15 130.51,21.83 131.19,23.99 131.88,23.68 132.56,21.69 133.25,21.78 133.93,22.76 134.61,22.93 135.30,24.81 135.98,24.38 136.67,26.10 137.35,21.68 138.03,21.42 138.72,24.27 139.40,26.56 140.08,27.17 140.77,26.91 141.45,25.68 142.14,24.99 142.82,23.88 143.50,22.93 144.19,21.25 144.87,20.30 145.56,19.88 146.24,18.98 146.92,18.64 147.61,17.09 148.29,15.02 148.97,13.46 149.66,9.78 150.34,6.37 151.03,7.92 151.71,9.91 152.39,10.78 153.08,10.78 153.76,8.36 154.44,10.43 155.13,8.39 155.81,12.28 156.50,12.86 157.18,14.58 157.86,14.58 158.55,16.05 159.23,13.89 159.92,15.45 160.60,9.49 161.28,7.76 161.97,7.56 162.65,6.00 163.33,4.44 164.02,7.56 164.70,10.32 165.39,12.91 166.07,15.16 166.75,18.53 167.44,18.53 168.12,23.80 168.81,28.62 169.49,30.61 170.17,33.16 170.86,34.71 171.54,36.87 172.22,39.03 172.91,40.24 173.59,42.92 174.28,45.69 174.96,47.93 175.64,50.70 176.33,53.15 177.01,52.98 177.70,52.63 178.38,50.47 179.06,47.55 179.75,44.27 180.43,44.27 181.11,38.48 181.80,38.65 182.48,43.75 183.17,43.06 183.85,41.59 184.53,35.26 185.22,34.40 185.90,36.21 186.59,45.98 187.27,47.88 187.95,48.83 188.64,52.20 189.32,50.71 190.00,49.33 190.69,48.03 191.37,46.01 192.06,44.72 192.74,45.32 193.42,46.27 194.11,46.62 194.79,45.06 195.48,41.61 196.16,37.80 196.84,35.66 197.53,34.54 198.21,29.78 198.89,27.19 199.58,27.10 200.26,26.41 200.95,21.92 201.63,18.20 202.31,17.67 203.00,17.67 203.68,19.14 204.37,21.38 205.05,22.77 205.73,17.24 206.42,18.10 207.10,20.78 207.78,24.06 208.47,20.23 209.15,24.29 209.84,22.13 210.52,20.14 211.20,20.14 211.89,20.31 212.57,22.85 213.26,24.41 213.94,24.41 214.62,24.24 215.31,22.59 215.99,22.16 216.67,20.60 217.36,18.70 218.04,16.37 218.73,16.35 219.41,16.35 220.09,15.84 220.78,14.37 221.46,12.55 222.15,11.25 222.83,6.85 223.51,8.17 224.20,9.03 224.88,9.03 225.56,9.03 226.25,9.03 226.93,5.66 227.62,5.66 228.30,5.66 228.98,17.76 229.67,17.76 230.35,10.67 231.04,10.67 231.72,22.10 232.40,22.10 233.09,13.73 233.77,13.73 234.45,11.22 235.14,11.22 235.82,7.16 236.51,7.16 237.19,13.30 237.87,13.30 238.56,13.30 239.24,20.04 239.93,26.35 240.61,26.35 241.29,26.35 241.98,32.31 242.66,36.11 243.34,36.11 244.03,36.11 244.71,42.42 245.40,42.42 246.08,44.32 246.76,44.32 247.45,50.63 248.13,50.63 248.81,50.63 249.50,49.51 250.18,49.77 250.87,49.77 251.55,49.77 252.23,41.30 252.92,38.62 253.60,38.62 254.29,38.62 254.97,35.66 255.65,35.66 256.34,35.66 257.02,29.27 257.70,29.27 258.39,30.65 259.07,30.65 259.76,30.65 260.44,34.97 261.12,34.97 261.81,50.44 262.49,47.07 263.18,47.07 263.86,47.07 264.54,48.63 265.23,48.63 265.91,48.63 266.59,48.02 267.28,48.02 267.96,48.02 268.65,45.00 269.33,45.00 270.01,45.00 270.70,39.38 271.38,39.38 272.07,39.38 272.75,34.51 273.43,34.51 274.12,34.51 274.80,26.64 275.48,26.64 276.17,26.64 276.85,26.64 277.54,21.37 278.22,21.37 278.90,23.96 279.59,23.96 280.27,29.93 280.96,29.93 281.64,29.93 282.32,35.37 283.01,24.66 283.69,24.66 284.37,24.66 285.06,31.69 285.74,24.69 286.43,24.69 287.11,24.69 287.79,26.16 288.48,23.31 289.16,23.31 289.85,23.31 290.53,17.09 291.21,17.09 291.90,18.39 292.58,18.39 293.26,15.62 293.95,15.62 294.63,15.62 295.32,10.79 296.00,10.79" />
</svg>