<svg width="300" height="60" xmlns="http://www.w3.org/2000/svg">
  <polyline fill="rgba(255,200,0,0.3)" stroke="#ffbb00" stroke-width="2" points="4.00,55.83 4.10,55.72 4.21,55.42 4.31,55.35 4.41,55.18 4.51,55.01 4.62,54.85 4.72,54.87 4.82,54.95 4.93,54.99 5.03,54.93 5.13,54.77 5.23,54.69 5.34,54.67 5.44,54.80 5.54,54.99 5.65,54.98 5.75,54.95 5.85,54.85 5.95,54.75 6.06,54.64 6.16,54.43 6.26,54.32 6.37,54.47 6.47,54.59 6.57,54.50 6.67,54.25 6.78,54.08 6.88,53.95 6.98,53.94 7.09,54.07 7.19,54.36 7.29,54.17 7.39,53.79 7.50,53.79 7.60,53.77 7.70,54.05 7.81,54.10 7.91,54.22 8.01,54.02 8.11,53.94 8.22,53.77 8.32,53.60 8.42,53.40 8.53,53.17 8.63,52.96 8.73,52.41 8.83,51.87 8.94,51.49 9.04,51.19 9.14,51.16 9.25,51.23 9.35,51.05 9.45,50.60 9.55,50.48 9.66,50.37 9.76,50.41 9.86,50.38 9.97,50.34 10.07,50.43 10.17,50.38 10.27,50.38 10.38,50.17 10.48,50.08 10.58,49.72 10.69,50.05 10.79,50.23 10.89,50.74 10.99,51.04 11.10,50.78 11.20,50.32 11.30,49.93 11.41,49.69 11.51,49.01 11.61,48.73 11.71,48.45 11.82,47.89 11.92,47.97 12.02,47.89 12.13,47.63 12.23,46.83 12.33,46.53 12.43,46.84 12.54,46.84 12.64,47.20 12.74,47.47 12.85,47.40 12.95,47.06 13.05,46.72 13.15,46.30 13.26,45.90 13.36,45.64 13.46,45.48 13.57,45.36 13.67,45.68 13.77,45.78 13.87,45.13 13.98,44.10 14.08,43.56 14.18,42.83 14.29,43.02 14.39,42.82 14.49,42.40 14.59,41.49 14.70,41.27 14.80,41.76 14.90,41.51 15.01,41.22 15.11,40.78 15.21,40.14 15.31,39.46 15.42,39.18 15.52,38.93 15.62,39.02 15.73,39.31 15.83,39.22 15.93,39.00 16.03,38.90 16.14,38.58 16.24,38.61 16.34,38.83 16.45,38.89 16.55,38.72 16.65,38.40 16.75,38.02 16.86,37.85 16.96,37.67 17.06,37.48 17.17,36.99 17.27,36.42 17.37,36.24 17.47,35.61 17.58,34.92 17.68,34.74 17.78,34.85 17.89,34.12 17.99,33.12 18.09,32.84 18.19,33.42 18.30,34.11 18.40,34.38 18.50,34.82 18.61,34.83 18.71,34.43 18.81,33.88 18.91,33.54 19.02,33.30 19.12,33.41 19.22,33.98 19.33,34.29 19.43,34.26 19.53,34.17 19.63,33.98 19.74,33.92 19.84,33.12 19.94,32.48 20.05,32.42 20.15,32.65 20.25,31.81 20.35,30.87 20.46,30.39 20.56,30.28 20.66,30.70 20.77,31.37 20.87,31.90 20.97,32.19 21.07,31.64 21.18,31.00 21.28,30.41 21.38,29.98 21.49,29.75 21.59,29.40 21.69,29.20 21.79,29.14 21.90,28.54 22.00,27.97 22.10,27.68 22.21,27.47 22.31,27.38 22.41,27.59 22.51,28.05 22.62,27.76 22.72,27.84 22.82,27.89 22.92,27.76 23.03,27.57 23.13,27.52 23.23,27.74 23.34,28.08 23.44,28.42 23.54,28.49 23.64,28.47 23.75,28.45 23.85,28.05 23.95,27.65 24.06,27.28 24.16,27.09 24.26,26.90 24.36,27.04 24.47,27.39 24.57,27.68 24.67,27.95 24.78,28.22 24.88,28.45 24.98,28.68 25.08,29.18 25.19,29.71 25.29,30.29 25.39,30.50 25.50,30.51 25.60,30.19 25.70,30.05 25.80,29.68 25.91,29.48 26.01,29.54 26.11,29.47 26.22,29.29 26.32,28.93 26.42,28.62 26.52,28.45 26.63,28.18 26.73,28.08 26.83,28.11 26.94,28.22 27.04,28.28 27.14,28.33 27.24,28.21 27.35,28.16 27.45,27.98 27.55,28.06 27.66,28.16 27.76,28.12 27.86,27.84 27.96,27.66 28.07,27.32 28.17,27.04 28.27,26.66 28.38,26.33 28.48,26.33 28.58,26.71 28.68,26.81 28.79,27.01 28.89,26.95 28.99,26.71 29.10,26.32 29.20,26.08 29.30,25.86 29.40,25.70 29.51,25.52 29.61,25.47 29.71,25.38 29.82,25.26 29.92,25.18 30.02,25.05 30.12,24.94 30.23,24.90 30.33,25.06 30.43,24.97 30.54,24.81 30.64,24.65 30.74,24.57 30.84,24.86 30.95,24.90 31.05,24.94 31.15,24.88 31.26,24.56 31.36,24.40 31.46,24.15 31.56,24.12 31.67,24.43 31.77,24.81 31.87,24.58 31.98,24.19 32.08,23.86 32.18,23.77 32.28,23.61 32.39,23.55 32.49,23.87 32.59,23.89 32.70,23.92 32.80,24.44 32.90,24.99 33.00,25.18 33.11,24.81 33.21,24.31 33.31,24.34 33.42,24.51 33.52,24.15 33.62,23.92 33.72,23.53 33.83,23.56 33.93,23.35 34.03,23.66 34.14,23.91 34.24,24.45 34.34,24.87 34.44,24.52 34.55,24.37 34.65,24.10 34.75,23.79 34.86,23.08 34.96,22.96 35.06,22.75 35.16,22.54 35.27,22.24 35.37,22.30 35.47,23.01 35.58,23.08 35.68,23.07 35.78,22.92 35.88,22.52 35.99,22.61 36.09,22.74 36.19,22.84 36.30,22.87 36.40,22.74 36.50,22.41 36.60,22.20 36.71,22.05 36.81,21.95 36.91,21.81 37.02,21.59 37.12,21.40 37.22,21.41 37.32,21.82 37.43,21.74 37.53,21.28 37.63,21.24 37.74,21.44 37.84,21.36 37.94,20.72 38.04,20.10 38.15,20.00 38.25,19.56 38.35,19.25 38.46,19.46 38.56,19.86 38.66,20.08 38.76,19.41 38.87,19.13 38.97,18.95 39.07,19.18 39.18,19.30 39.28,19.30 39.38,19.32 39.48,19.23 39.59,18.12 39.69,17.50 39.79,16.78 39.90,16.38 40.00,16.39 40.10,16.54 40.20,16.69 40.31,16.92 40.41,17.34 40.51,17.78 40.62,17.90 40.72,17.86 40.82,17.63 40.92,17.80 41.03,18.06 41.13,18.49 41.23,18.17 41.34,17.91 41.44,17.69 41.54,17.70 41.64,17.88 41.75,17.98 41.85,17.94 41.95,17.89 42.06,18.05 42.16,18.11 42.26,18.17 42.36,18.37 42.47,18.66 42.57,18.62 42.67,18.52 42.78,18.66 42.88,18.72 42.98,18.64 43.08,18.62 43.19,18.52 43.29,18.26 43.39,18.12 43.50,18.10 43.60,17.96 43.70,18.32 43.80,18.71 43.91,18.80 44.01,18.45 44.11,18.29 44.22,18.09 44.32,18.17 44.42,18.45 44.52,18.59 44.63,18.59 44.73,18.55 44.83,18.53 44.94,18.58 45.04,18.73 45.14,18.79 45.24,18.77 45.35,18.73 45.45,18.73 45.55,18.63 45.66,18.75 45.76,18.80 45.86,18.60 45.96,18.42 46.07,18.20 46.17,17.95 46.27,17.90 46.38,17.85 46.48,18.07 46.58,18.10 46.68,18.07 46.79,18.05 46.89,17.95 46.99,17.89 47.10,17.72 47.20,17.61 47.30,17.62 47.40,17.69 47.51,17.85 47.61,17.99 47.71,18.08 47.82,18.12 47.92,18.14 48.02,18.07 48.12,18.15 48.23,18.25 48.33,18.34 48.43,18.32 48.54,18.32 48.64,18.33 48.74,18.41 48.84,18.32 48.95,18.23 49.05,18.20 49.15,18.18 49.26,18.16 49.36,18.11 49.46,18.07 49.56,18.16 49.67,18.19 49.77,18.06 49.87,17.93 49.98,17.89 50.08,17.82 50.18,17.78 50.28,17.63 50.39,17.48 50.49,17.43 50.59,17.41 50.70,17.29 50.80,17.10 50.90,17.02 51.00,16.95 51.11,16.88 51.21,16.84 51.31,16.85 51.42,16.73 51.52,16.63 51.62,16.53 51.72,16.45 51.83,16.45 51.93,16.52 52.03,16.81 52.14,16.95 52.24,16.98 52.34,17.03 52.44,17.08 52.55,17.10 52.65,17.17 52.75,17.02 52.86,17.05 52.96,17.01 53.06,16.97 53.16,16.90 53.27,16.82 53.37,16.74 53.47,16.70 53.58,16.68 53.68,16.70 53.78,16.76 53.88,16.71 53.99,16.63 54.09,16.57 54.19,16.57 54.30,16.53 54.40,16.48 54.50,16.44 54.60,16.44 54.71,16.36 54.81,16.36 54.91,16.28 55.02,16.10 55.12,15.95 55.22,15.86 55.32,15.85 55.43,15.84 55.53,15.85 55.63,15.83 55.74,15.75 55.84,15.72 55.94,15.59 56.04,15.20 56.15,14.56 56.25,14.09 56.35,13.82 56.46,14.12 56.56,14.44 56.66,14.82 56.76,15.10 56.87,15.35 56.97,15.57 57.07,15.74 57.18,15.29 57.28,14.91 57.38,14.58 57.48,14.09 57.59,13.59 57.69,13.20 57.79,12.93 57.90,13.04 58.00,13.41 58.10,13.67 58.20,13.65 58.31,13.72 58.41,13.54 58.51,13.29 58.62,13.15 58.72,13.30 58.82,13.97 58.92,14.06 59.03,14.30 59.13,14.59 59.23,14.66 59.33,14.42 59.44,13.80 59.54,13.49 59.64,13.18 59.75,12.88 59.85,12.99 59.95,13.31 60.05,13.88 60.16,14.43 60.26,14.70 60.36,14.30 60.47,13.95 60.57,13.50 60.67,13.31 60.77,13.25 60.88,13.41 60.98,13.25 61.08,13.21 61.19,13.04 61.29,12.72 61.39,12.55 61.49,12.07 61.60,11.50 61.70,10.56 61.80,9.94 61.91,9.50 62.01,9.06 62.11,8.89 62.21,8.93 62.32,9.11 62.42,9.57 62.52,9.93 62.63,10.03 62.73,9.94 62.83,9.77 62.93,10.05 63.04,10.31 63.14,10.40 63.24,9.48 63.35,8.94 63.45,8.45 63.55,8.27 63.65,8.50 63.76,9.16 63.86,10.33 63.96,10.66 64.07,9.99 64.17,9.59 64.27,9.05 64.37,9.10 64.48,9.12 64.58,9.52 64.68,10.01 64.79,9.91 64.89,9.46 64.99,9.06 65.09,8.81 65.20,8.85 65.30,8.89 65.40,8.54 65.51,8.31 65.61,7.85 65.71,7.47 65.81,7.13 65.92,6.59 66.02,6.27 66.12,6.22 66.23,6.33 66.33,6.33 66.43,6.59 66.53,6.64 66.64,6.44 66.74,6.47 66.84,6.23 66.95,5.58 67.05,5.21 67.15,4.91 67.25,4.65 67.36,4.51 67.46,4.38 67.56,4.17 67.67,4.00 67.77,4.15 67.87,4.39 67.97,4.77 68.08,5.44 68.18,6.23 68.28,7.08 68.39,7.74 68.49,7.97 68.59,8.51 68.69,9.13 68.80,9.20 68.90,9.23 69.00,9.15 69.11,9.13 69.21,9.20 69.31,9.43 69.41,9.58 69.52,9.63 69.62,9.47 69.72,9.31 69.83,9.45 69.93,9.45 70.03,9.23 70.13,9.00 70.24,8.99 70.34,9.28 70.44,9.59 70.55,10.08 70.65,10.65 70.75,10.73 70.85,10.34 70.96,10.09 71.06,10.27 71.16,10.64 71.27,10.97 71.37,11.16 71.47,11.21 71.57,11.27 71.68,11.38 71.78,11.42 71.88,11.52 71.99,11.62 72.09,11.69 72.19,11.56 72.29,11.67 72.40,11.84 72.50,11.98 72.60,12.17 72.71,12.28 72.81,12.44 72.91,12.52 73.01,12.48 73.12,12.47 73.22,12.46 73.32,12.29 73.43,12.32 73.53,12.15 73.63,11.92 73.73,11.64 73.84,10.88 73.94,10.69 74.04,10.58 74.15,10.28 74.25,10.25 74.35,10.13 74.45,9.93 74.56,9.82 74.66,9.66 74.76,9.45 74.87,9.30 74.97,9.23 75.07,9.06 75.17,8.83 75.28,8.53 75.38,8.23 75.48,8.12 75.59,8.12 75.69,8.26 75.79,8.37 75.89,8.60 76.00,8.75 76.10,8.87 76.20,8.97 76.31,8.96 76.41,9.07 76.51,9.16 76.61,9.23 76.72,9.27 76.82,9.30 76.92,9.41 77.03,55.80 77.13,55.68 77.23,55.40 77.33,55.40 77.44,55.29 77.54,55.12 77.64,54.86 77.75,54.85 77.85,54.96 77.95,54.99 78.05,54.88 78.16,54.81 78.26,54.72 78.36,54.68 78.47,54.77 78.57,54.91 78.67,54.99 78.77,54.96 78.88,54.83 78.98,54.78 79.08,54.62 79.19,54.42 79.29,54.32 79.39,54.52 79.49,54.57 79.60,54.52 79.70,54.30 79.80,54.03 79.91,53.90 80.01,53.88 80.11,54.20 80.21,54.37 80.32,54.31 80.42,53.75 80.52,53.75 80.63,53.78 80.73,54.04 80.83,54.10 80.93,54.28 81.04,54.01 81.14,53.95 81.24,53.78 81.35,53.58 81.45,53.39 81.55,53.11 81.65,52.94 81.76,52.24 81.86,51.70 81.96,51.58 82.07,51.33 82.17,51.09 82.27,51.33 82.37,51.04 82.48,50.54 82.58,50.50 82.68,50.31 82.79,50.46 82.89,50.29 82.99,50.50 83.09,50.62 83.20,50.16 83.30,50.39 83.40,50.32 83.51,50.20 83.61,49.57 83.71,50.01 83.81,50.10 83.92,50.84 84.02,50.78 84.12,50.66 84.23,50.16 84.33,49.66 84.43,49.56 84.53,49.01 84.64,48.81 84.74,48.52 84.84,48.05 84.95,48.03 85.05,47.90 85.15,47.65 85.25,46.79 85.36,46.57 85.46,46.82 85.56,46.93 85.67,47.11 85.77,47.43 85.87,47.48 85.97,46.97 86.08,46.66 86.18,46.12 86.28,45.78 86.39,45.52 86.49,45.42 86.59,45.49 86.69,45.50 86.80,45.83 86.90,45.13 87.00,44.12 87.11,43.53 87.21,42.82 87.31,43.11 87.41,42.74 87.52,42.45 87.62,41.54 87.72,41.24 87.83,41.60 87.93,41.42 88.03,41.04 88.13,40.56 88.24,40.09 88.34,39.37 88.44,39.27 88.55,39.30 88.65,39.25 88.75,39.42 88.85,39.22 88.96,38.91 89.06,38.73 89.16,38.50 89.27,38.35 89.37,38.63 89.47,38.79 89.57,38.69 89.68,38.48 89.78,38.15 89.88,37.90 89.99,37.70 90.09,37.46 90.19,36.88 90.29,36.48 90.40,36.26 90.50,35.90 90.60,34.92 90.71,34.87 90.81,34.87 90.91,33.94 91.01,33.16 91.12,33.02 91.22,33.51 91.32,34.03 91.43,34.35 91.53,34.79 91.63,34.84 91.73,34.30 91.84,33.86 91.94,33.58 92.04,33.38 92.15,33.57 92.25,34.05 92.35,34.05 92.45,34.38 92.56,34.13 92.66,33.95 92.76,33.89 92.87,33.16 92.97,32.45 93.07,32.24 93.17,32.65 93.28,31.94 93.38,30.79 93.48,30.38 93.59,30.25 93.69,30.67 93.79,31.34 93.89,31.92 94.00,32.08 94.10,31.77 94.20,31.13 94.31,30.28 94.41,29.89 94.51,29.64 94.61,29.34 94.72,29.15 94.82,29.16 94.92,28.39 95.03,28.06 95.13,27.65 95.23,27.46 95.33,27.34 95.44,27.50 95.54,28.09 95.64,27.86 95.74,27.89 95.85,27.97 95.95,27.66 96.05,27.61 96.16,27.47 96.26,27.77 96.36,27.99 96.46,28.40 96.57,28.44 96.67,28.47 96.77,28.29 96.88,28.17 96.98,27.66 97.08,27.31 97.18,27.10 97.29,26.96 97.39,27.01 97.49,27.41 97.60,27.69 97.70,27.94 97.80,28.27 97.90,28.42 98.01,28.70 98.11,29.20 98.21,29.64 98.32,30.26 98.42,30.45 98.52,30.52 98.62,30.19 98.73,29.90 98.83,29.39 98.93,29.53 99.04,29.44 99.14,29.47 99.24,29.20 99.34,29.03 99.45,28.63 99.55,28.43 99.65,28.15 99.76,28.07 99.86,28.15 99.96,28.22 100.06,28.19 100.17,28.29 100.27,28.25 100.37,28.00 100.48,27.97 100.58,28.06 100.68,28.17 100.78,28.11 100.89,27.78 100.99,27.66 101.09,27.38 101.20,27.03 101.30,26.65 101.40,26.28 101.50,26.28 101.61,26.64 101.71,26.80 101.81,26.98 101.92,26.89 102.02,26.62 102.12,26.27 102.22,26.11 102.33,25.95 102.43,25.62 102.53,25.50 102.64,25.37 102.74,25.36 102.84,25.23 102.94,25.21 103.05,24.92 103.15,24.91 103.25,25.12 103.36,24.97 103.46,24.95 103.56,24.83 103.66,24.67 103.77,24.59 103.87,24.85 103.97,24.88 104.08,24.71 104.18,24.84 104.28,24.55 104.38,24.47 104.49,24.22 104.59,23.98 104.69,24.35 104.80,24.70 104.90,24.69 105.00,23.99 105.10,23.84 105.21,23.51 105.31,23.75 105.41,23.76 105.52,23.83 105.62,23.89 105.72,23.87 105.82,24.38 105.93,25.02 106.03,25.09 106.13,24.82 106.24,24.25 106.34,24.46 106.44,24.44 106.54,24.12 106.65,23.77 106.75,23.56 106.85,23.61 106.96,23.27 107.06,23.60 107.16,23.94 107.26,24.46 107.37,25.01 107.47,24.53 107.57,24.32 107.68,23.98 107.78,23.76 107.88,23.20 107.98,22.95 108.09,22.89 108.19,22.46 108.29,22.12 108.40,22.32 108.50,22.99 108.60,23.06 108.70,23.08 108.81,22.86 108.91,22.40 109.01,22.57 109.12,22.73 109.22,22.95 109.32,22.76 109.42,22.75 109.53,22.58 109.63,22.15 109.73,22.02 109.84,21.99 109.94,21.56 110.04,21.57 110.14,21.34 110.25,21.55 110.35,21.76 110.45,21.85 110.56,21.33 110.66,21.23 110.76,21.43 110.86,21.37 110.97,20.65 111.07,20.09 111.17,20.00 111.28,19.48 111.38,19.25 111.48,19.37 111.58,19.76 111.69,19.87 111.79,19.50 111.89,19.04 112.00,18.91 112.10,19.04 112.20,19.29 112.30,19.27 112.41,19.30 112.51,19.24 112.61,18.11 112.72,17.45 112.82,16.91 112.92,16.31 113.02,16.36 113.13,16.46 113.23,16.69 113.33,16.96 113.44,17.24 113.54,17.84 113.64,17.80 113.74,17.96 113.85,17.63 113.95,17.95 114.05,18.02 114.16,18.48 114.26,18.15 114.36,17.96 114.46,17.61 114.57,17.75 114.67,17.81 114.77,17.96 114.88,17.98 114.98,17.90 115.08,17.89 115.18,18.08 115.29,18.11 115.39,18.37 115.49,18.62 115.60,18.41 115.70,18.39 115.80,18.45 115.90,18.69 116.01,18.60 116.11,18.60 116.21,18.62 116.32,18.25 116.42,18.15 116.52,18.18 116.62,17.93 116.73,18.43 116.83,18.65 116.93,18.66 117.04,18.39 117.14,18.21 117.24,18.05 117.34,18.10 117.45,18.51 117.55,18.58 117.65,18.48 117.76,18.51 117.86,18.47 117.96,18.61 118.06,18.68 118.17,18.72 118.27,18.69 118.37,18.71 118.48,18.67 118.58,18.61 118.68,18.72 118.78,18.78 118.89,18.57 118.99,18.40 119.09,18.16 119.20,17.91 119.30,17.88 119.40,17.83 119.50,17.94 119.61,18.08 119.71,18.07 119.81,17.98 119.92,17.92 120.02,17.84 120.12,17.66 120.22,17.59 120.33,17.58 120.43,17.68 120.53,17.82 120.64,17.93 120.74,18.03 120.84,18.10 120.94,18.12 121.05,18.07 121.15,18.07 121.25,18.17 121.36,18.33 121.46,18.31 121.56,18.27 121.66,18.32 121.77,18.35 121.87,18.28 121.97,18.22 122.08,18.19 122.18,18.16 122.28,18.13 122.38,18.09 122.49,18.07 122.59,18.17 122.69,18.11 122.80,18.03 122.90,17.94 123.00,17.88 123.10,17.81 123.21,17.75 123.31,17.60 123.41,17.44 123.52,17.43 123.62,17.42 123.72,17.25 123.82,17.14 123.93,17.01 124.03,16.86 124.13,16.85 124.24,16.83 124.34,16.84 124.44,16.70 124.54,16.62 124.65,16.48 124.75,16.44 124.85,16.43 124.96,16.51 125.06,16.77 125.16,16.91 125.26,16.98 125.37,17.00 125.47,17.06 125.57,17.10 125.68,17.13 125.78,17.03 125.88,17.04 125.98,17.04 126.09,16.95 126.19,16.91 126.29,16.82 126.40,16.72 126.50,16.65 126.60,16.67 126.70,16.70 126.81,16.72 126.91,16.70 127.01,16.59 127.12,16.54 127.22,16.54 127.32,16.52 127.42,16.47 127.53,16.45 127.63,16.41 127.73,16.36 127.84,16.33 127.94,16.27 128.04,16.01 128.14,15.95 128.25,15.89 128.35,15.82 128.45,15.91 128.56,15.82 128.66,15.77 128.76,15.69 128.86,15.66 128.97,15.54 129.07,15.25 129.17,14.60 129.28,14.10 129.38,13.84 129.48,14.13 129.58,14.40 129.69,14.78 129.79,15.11 129.89,15.32 130.00,15.50 130.10,15.69 130.20,15.29 130.30,14.94 130.41,14.47 130.51,14.11 130.61,13.51 130.72,13.27 130.82,12.86 130.92,13.09 131.02,13.36 131.13,13.53 131.23,13.62 131.33,13.71 131.44,13.42 131.54,13.24 131.64,13.20 131.74,13.45 131.85,13.69 131.95,14.00 132.05,14.31 132.15,14.65 132.26,14.67 132.36,14.34 132.46,13.80 132.57,13.55 132.67,13.22 132.77,12.72 132.87,13.03 132.98,13.43 133.08,13.82 133.18,14.60 133.29,14.73 133.39,14.21 133.49,13.94 133.59,13.46 133.70,13.39 133.80,13.27 133.90,13.30 134.01,13.20 134.11,13.12 134.21,12.90 134.31,12.63 134.42,12.51 134.52,12.07 134.62,11.53 134.73,10.52 134.83,9.97 134.93,9.46 135.03,9.16 135.14,9.00 135.24,8.91 135.34,9.23 135.45,9.73 135.55,10.03 135.65,10.00 135.75,9.90 135.86,9.80 135.96,9.99 136.06,10.32 136.17,10.03 136.27,9.46 136.37,8.97 136.47,8.42 136.58,8.26 136.68,8.53 136.78,9.33 136.89,10.29 136.99,10.75 137.09,9.85 137.19,9.58 137.30,9.11 137.40,9.17 137.50,9.13 137.61,9.47 137.71,10.03 137.81,9.77 137.91,9.45 138.02,9.11 138.12,8.86 138.22,8.70 138.33,8.84 138.43,8.54 138.53,8.19 138.63,7.76 138.74,7.36 138.84,7.10 138.94,6.58 139.05,6.31 139.15,6.23 139.25,6.30 139.35,6.33 139.46,6.54 139.56,6.66 139.66,6.34 139.77,6.58 139.87,6.22 139.97,5.52 140.07,5.19 140.18,5.00 140.28,4.64 140.38,4.56 140.49,4.36 140.59,4.09 140.69,4.04 140.79,4.15 140.90,4.41 141.00,4.77 141.10,5.55 141.21,6.22 141.31,6.97 141.41,7.75 141.51,7.90 141.62,8.50 141.72,9.11 141.82,9.20 141.93,9.22 142.03,9.07 142.13,9.16 142.23,9.13 142.34,9.22 142.44,9.55 142.54,9.53 142.65,9.45 142.75,9.36 142.85,9.38 142.95,9.46 143.06,9.34 143.16,9.04 143.26,8.96 143.37,9.33 143.47,9.57 143.57,10.11 143.67,10.66 143.78,10.74 143.88,10.32 143.98,10.04 144.09,10.27 144.19,10.70 144.29,11.01 144.39,11.20 144.50,11.14 144.60,11.30 144.70,11.33 144.81,11.42 144.91,11.60 145.01,11.62 145.11,11.64 145.22,11.55 145.32,11.65 145.42,11.88 145.53,12.02 145.63,12.09 145.73,12.38 145.83,12.31 145.94,12.53 146.04,12.31 146.14,12.62 146.25,12.47 146.35,12.22 146.45,12.23 146.55,12.10 146.66,11.94 146.76,11.44 146.86,10.81 146.97,10.62 147.07,10.45 147.17,10.39 147.27,10.29 147.38,10.04 147.48,9.91 147.58,9.78 147.69,9.64 147.79,9.42 147.89,9.28 147.99,9.18 148.10,9.00 148.20,8.85 148.30,8.41 148.41,8.23 148.51,8.11 148.61,8.11 148.71,8.18 148.82,8.36 148.92,8.56 149.02,8.71 149.13,8.88 149.23,8.92 149.33,9.01 149.43,9.08 149.54,9.18 149.64,9.20 149.74,9.26 149.85,9.28 149.95,9.35 150.05,55.78 150.15,56.00 150.26,55.42 150.36,55.42 150.46,55.06 150.57,54.65 150.67,54.98 150.77,54.74 150.87,54.65 150.98,55.05 151.08,54.83 151.18,54.98 151.29,54.73 151.39,54.52 151.49,54.78 151.59,54.95 151.70,54.62 151.80,54.73 151.90,54.72 152.01,54.69 152.11,54.51 152.21,54.36 152.31,54.23 152.42,54.23 152.52,54.42 152.62,54.27 152.73,54.14 152.83,54.00 152.93,53.90 153.03,53.85 153.14,53.92 153.24,54.23 153.34,54.09 153.45,53.77 153.55,53.84 153.65,53.75 153.75,54.02 153.86,54.06 153.96,54.40 154.06,54.19 154.17,53.86 154.27,53.92 154.37,53.49 154.47,53.44 154.58,53.13 154.68,52.80 154.78,52.51 154.89,51.29 154.99,51.16 155.09,51.16 155.19,51.24 155.30,51.37 155.40,51.06 155.50,50.56 155.61,50.72 155.71,50.30 155.81,50.73 155.91,50.24 156.02,50.66 156.12,50.13 156.22,50.39 156.33,49.79 156.43,50.02 156.53,50.05 156.63,49.55 156.74,50.04 156.84,50.23 156.94,50.63 157.05,50.91 157.15,50.44 157.25,50.15 157.35,49.62 157.46,49.37 157.56,49.13 157.66,48.84 157.77,48.59 157.87,48.32 157.97,47.83 158.07,47.70 158.18,47.48 158.28,46.91 158.38,46.64 158.49,46.54 158.59,46.87 158.69,46.79 158.79,47.42 158.90,47.73 159.00,47.16 159.10,46.75 159.21,46.30 159.31,45.67 159.41,45.45 159.51,45.99 159.62,45.38 159.72,45.73 159.82,45.63 159.93,45.00 160.03,44.19 160.13,43.53 160.23,42.75 160.34,42.75 160.44,42.53 160.54,42.75 160.65,41.95 160.75,41.58 160.85,41.78 160.95,41.26 161.06,40.35 161.16,40.67 161.26,40.00 161.37,39.24 161.47,39.20 161.57,39.05 161.67,39.09 161.78,39.19 161.88,39.18 161.98,39.20 162.09,38.56 162.19,38.56 162.29,38.66 162.39,38.31 162.50,38.58 162.60,38.51 162.70,38.13 162.81,37.97 162.91,37.66 163.01,37.46 163.11,37.24 163.22,36.78 163.32,36.37 163.42,35.98 163.53,35.33 163.63,34.68 163.73,34.34 163.83,34.43 163.94,33.89 164.04,33.15 164.14,33.15 164.25,33.09 164.35,33.80 164.45,34.40 164.55,35.03 164.66,34.68 164.76,34.69 164.86,34.04 164.97,33.80 165.07,33.53 165.17,33.56 165.27,34.20 165.38,34.05 165.48,34.52 165.58,34.29 165.69,33.94 165.79,33.37 165.89,33.37 165.99,32.36 166.10,32.43 166.20,32.43 166.30,31.73 166.41,30.84 166.51,30.44 166.61,30.05 166.71,30.62 166.82,31.52 166.92,31.52 167.02,32.12 167.13,31.83 167.23,30.98 167.33,30.31 167.43,30.24 167.54,29.73 167.64,29.25 167.74,29.51 167.85,28.83 167.95,28.82 168.05,28.01 168.15,27.92 168.26,27.51 168.36,27.42 168.46,27.42 168.56,27.80 168.67,27.76 168.77,27.91 168.87,27.91 168.98,27.88 169.08,27.72 169.18,27.42 169.28,27.63 169.39,27.99 169.49,28.35 169.59,28.41 169.70,28.51 169.80,28.19 169.90,28.09 170.00,27.67 170.11,27.43 170.21,27.42 170.31,26.87 170.42,27.00 170.52,27.38 170.62,27.52 170.72,28.10 170.83,28.29 170.93,28.46 171.03,28.98 171.14,29.38 171.24,29.38 171.34,29.99 171.44,30.36 171.55,30.48 171.65,30.37 171.75,30.19 171.86,29.80 171.96,29.41 172.06,29.32 172.16,29.23 172.27,28.96 172.37,29.12 172.47,28.79 172.58,28.44 172.68,28.05 172.78,28.21 172.88,28.07 172.99,28.03 173.09,27.95 173.19,28.29 173.30,28.09 173.40,27.95 173.50,27.93 173.60,28.20 173.71,28.16 173.81,28.15 173.91,27.98 174.02,27.73 174.12,27.45 174.22,27.08 174.32,26.73 174.43,26.39 174.53,26.30 174.63,26.72 174.74,26.72 174.84,27.02 174.94,26.93 175.04,26.76 175.15,26.42 175.25,26.09 175.35,25.81 175.46,25.63 175.56,25.63 175.66,25.50 175.76,25.45 175.87,25.15 175.97,25.10 176.07,24.73 176.18,25.04 176.28,24.99 176.38,24.97 176.48,24.76 176.59,24.89 176.69,24.64 176.79,24.80 176.90,24.53 177.00,24.69 177.10,24.87 177.20,24.87 177.31,24.86 177.41,24.76 177.51,24.16 177.62,24.35 177.72,24.05 177.82,24.70 177.92,25.06 178.03,24.18 178.13,24.07 178.23,23.54 178.34,23.71 178.44,23.38 178.54,23.82 178.64,23.67 178.75,24.15 178.85,24.32 178.95,25.03 179.06,25.11 179.16,24.82 179.26,24.53 179.36,24.34 179.47,24.59 179.57,24.27 179.67,23.88 179.78,23.46 179.88,23.64 179.98,23.30 180.08,23.62 180.19,24.19 180.29,24.19 180.39,24.62 180.50,24.26 180.60,24.70 180.70,24.37 180.80,24.10 180.91,23.03 181.01,22.91 181.11,22.40 181.22,22.23 181.32,21.83 181.42,22.38 181.52,22.99 181.63,22.93 181.73,23.15 181.83,22.84 181.94,22.59 182.04,22.41 182.14,22.88 182.24,23.20 182.35,22.55 182.45,22.94 182.55,22.63 182.66,22.22 182.76,21.87 182.86,22.17 182.96,21.20 183.07,21.11 183.17,21.18 183.27,21.37 183.38,21.27 183.48,21.63 183.58,21.13 183.68,21.33 183.79,21.32 183.89,21.04 183.99,20.43 184.10,20.38 184.20,19.99 184.30,19.61 184.40,19.19 184.51,19.46 184.61,19.47 184.71,19.65 184.82,19.58 184.92,19.27 185.02,19.10 185.12,19.16 185.23,19.22 185.33,19.28 185.43,19.41 185.54,19.37 185.64,18.24 185.74,17.09 185.84,16.61 185.95,16.32 186.05,16.31 186.15,16.52 186.26,16.79 186.36,16.83 186.46,17.33 186.56,17.72 186.67,17.95 186.77,18.09 186.87,17.18 186.98,17.73 187.08,18.14 187.18,18.51 187.28,17.88 187.39,17.89 187.49,17.36 187.59,17.62 187.70,17.55 187.80,18.00 187.90,18.04 188.00,17.67 188.11,17.95 188.21,17.76 188.31,18.40 188.42,18.31 188.52,18.37 188.62,18.59 188.72,18.34 188.83,18.16 188.93,18.60 189.03,18.61 189.14,18.19 189.24,18.57 189.34,18.14 189.44,18.24 189.55,18.01 189.65,17.96 189.75,18.18 189.86,18.73 189.96,18.58 190.06,18.43 190.16,18.35 190.27,18.08 190.37,18.26 190.47,18.48 190.58,18.49 190.68,18.43 190.78,18.60 190.88,18.48 190.99,18.65 191.09,18.57 191.19,18.70 191.30,18.74 191.40,18.75 191.50,18.59 191.60,18.61 191.71,18.70 191.81,18.74 191.91,18.69 192.02,18.47 192.12,18.19 192.22,18.05 192.32,17.89 192.43,17.88 192.53,18.04 192.63,18.05 192.74,18.19 192.84,18.06 192.94,17.88 193.04,17.87 193.15,17.77 193.25,17.71 193.35,17.55 193.46,17.66 193.56,17.82 193.66,17.70 193.76,17.95 193.87,17.81 193.97,18.03 194.07,18.00 194.18,18.11 194.28,18.10 194.38,18.28 194.48,18.31 194.59,18.31 194.69,18.30 194.79,18.34 194.90,18.30 195.00,18.23 195.10,18.22 195.20,18.18 195.31,18.13 195.41,18.13 195.51,18.07 195.62,18.14 195.72,18.13 195.82,18.00 195.92,18.02 196.03,17.87 196.13,17.79 196.23,17.68 196.34,17.62 196.44,17.48 196.54,17.46 196.64,17.32 196.75,17.16 196.85,17.23 196.95,17.06 197.06,16.99 197.16,16.88 197.26,16.85 197.36,16.80 197.47,16.69 197.57,16.67 197.67,16.54 197.78,16.45 197.88,16.46 197.98,16.57 198.08,16.82 198.19,16.96 198.29,17.02 198.39,16.98 198.50,17.08 198.60,17.13 198.70,17.17 198.80,17.09 198.91,17.04 199.01,17.02 199.11,16.98 199.22,16.87 199.32,16.85 199.42,16.73 199.52,16.62 199.63,16.67 199.73,16.73 199.83,16.76 199.94,16.79 200.04,16.64 200.14,16.58 200.24,16.54 200.35,16.52 200.45,16.52 200.55,16.53 200.66,16.37 200.76,16.35 200.86,16.29 200.96,16.23 201.07,15.89 201.17,15.84 201.27,15.80 201.38,15.75 201.48,16.01 201.58,15.93 201.68,15.87 201.79,15.83 201.89,15.82 201.99,15.29 202.10,15.22 202.20,14.36 202.30,14.30 202.40,13.87 202.51,14.21 202.61,14.26 202.71,14.62 202.82,15.09 202.92,15.21 203.02,15.50 203.12,15.63 203.23,15.27 203.33,15.00 203.43,14.33 203.54,14.12 203.64,13.33 203.74,13.07 203.84,12.87 203.95,12.80 204.05,13.03 204.15,13.26 204.26,13.54 204.36,13.82 204.46,13.34 204.56,13.45 204.67,12.86 204.77,13.17 204.87,13.67 204.97,14.24 205.08,14.21 205.18,14.67 205.28,14.61 205.39,14.53 205.49,14.13 205.59,13.73 205.69,13.10 205.80,13.10 205.90,13.18 206.00,13.82 206.11,14.15 206.21,14.85 206.31,14.29 206.41,14.02 206.52,14.36 206.62,13.70 206.72,13.68 206.83,13.53 206.93,13.50 207.03,13.04 207.13,13.17 207.24,12.83 207.34,12.95 207.44,12.36 207.55,11.85 207.65,11.97 207.75,11.09 207.85,10.29 207.96,9.26 208.06,9.22 208.16,8.88 208.27,8.66 208.37,9.16 208.47,9.87 208.57,9.59 208.68,10.24 208.78,9.75 208.88,9.71 208.99,9.94 209.09,10.23 209.19,10.25 209.29,9.60 209.40,9.33 209.50,8.71 209.60,8.56 209.71,8.84 209.81,9.99 209.91,10.51 210.01,10.72 210.12,9.61 210.22,9.61 210.32,9.09 210.43,9.32 210.53,9.20 210.63,9.52 210.73,9.92 210.84,10.04 210.94,9.49 211.04,8.93 211.15,9.23 211.25,9.05 211.35,8.84 211.45,8.48 211.56,8.39 211.66,7.79 211.76,7.25 211.87,6.90 211.97,6.39 212.07,6.27 212.17,6.18 212.28,6.26 212.38,6.46 212.48,6.33 212.59,6.65 212.69,6.21 212.79,6.54 212.89,6.02 213.00,5.78 213.10,5.52 213.20,5.28 213.31,4.50 213.41,4.45 213.51,4.43 213.61,4.02 213.72,4.11 213.82,4.25 213.92,4.43 214.03,4.85 214.13,5.76 214.23,6.21 214.33,6.83 214.44,7.83 214.54,8.01 214.64,8.58 214.75,8.97 214.85,9.20 214.95,9.33 215.05,8.85 215.16,8.96 215.26,9.18 215.36,9.49 215.47,9.78 215.57,9.39 215.67,9.53 215.77,9.61 215.88,9.45 215.98,9.33 216.08,9.57 216.19,9.22 216.29,9.12 216.39,9.46 216.49,9.88 216.60,10.21 216.70,10.57 216.80,10.57 216.91,10.47 217.01,10.34 217.11,10.32 217.21,10.81 217.32,10.89 217.42,11.47 217.52,11.43 217.63,11.38 217.73,11.44 217.83,11.54 217.93,11.67 218.04,11.84 218.14,11.53 218.24,11.64 218.35,11.79 218.45,11.85 218.55,12.09 218.65,12.06 218.76,12.47 218.86,12.51 218.96,12.58 219.07,12.79 219.17,13.07 219.27,12.19 219.37,12.32 219.48,12.44 219.58,12.43 219.68,11.95 219.79,11.54 219.89,10.85 219.99,10.80 220.09,10.45 220.20,10.57 220.30,10.35 220.40,9.95 220.51,9.86 220.61,9.76 220.71,9.76 220.81,9.46 220.92,9.41 221.02,9.23 221.12,9.00 221.23,8.75 221.33,8.52 221.43,8.31 221.53,8.09 221.64,8.14 221.74,8.23 221.84,8.38 221.95,8.56 222.05,8.73 222.15,8.90 222.25,8.93 222.36,9.10 222.46,9.03 222.56,9.15 222.67,9.15 222.77,9.24 222.87,9.30 222.97,9.41 223.08,53.82 223.18,53.82 223.28,54.71 223.39,54.71 223.49,54.71 223.59,52.43 223.69,53.77 223.80,53.77 223.90,53.77 224.00,54.93 224.11,53.59 224.21,53.59 224.31,54.32 224.41,54.32 224.52,54.32 224.62,54.81 224.72,53.26 224.83,53.26 224.93,53.70 225.03,53.70 225.13,53.79 225.24,53.79 225.34,53.79 225.44,53.74 225.55,53.74 225.65,53.62 225.75,53.62 225.85,53.62 225.96,53.19 226.06,53.19 226.16,53.19 226.27,53.34 226.37,53.34 226.47,53.46 226.57,54.13 226.68,54.13 226.78,53.81 226.88,53.81 226.99,53.81 227.09,53.44 227.19,53.44 227.29,54.61 227.40,53.51 227.50,53.51 227.60,52.27 227.71,52.27 227.81,52.27 227.91,51.38 228.01,51.38 228.12,51.38 228.22,51.21 228.32,51.21 228.43,50.86 228.53,50.86 228.63,50.86 228.73,49.50 228.84,49.50 228.94,49.50 229.04,50.57 229.15,50.57 229.25,50.57 229.35,48.91 229.45,48.91 229.56,51.25 229.66,49.75 229.76,49.75 229.87,49.75 229.97,50.00 230.07,50.00 230.17,50.00 230.28,48.33 230.38,48.33 230.48,49.12 230.59,49.12 230.69,49.12 230.79,48.54 230.89,48.54 231.00,47.65 231.10,47.65 231.20,47.65 231.31,46.86 231.41,46.86 231.51,46.86 231.61,46.97 231.72,46.97 231.82,46.97 231.92,46.97 232.03,46.25 232.13,47.35 232.23,47.35 232.33,45.41 232.44,45.41 232.54,46.81 232.64,46.81 232.75,45.24 232.85,45.24 232.95,44.42 233.05,44.42 233.16,44.42 233.26,42.80 233.36,42.80 233.47,43.58 233.57,43.58 233.67,41.71 233.77,41.71 233.88,40.52 233.98,40.52 234.08,40.52 234.19,40.52 234.29,39.14 234.39,39.14 234.49,39.14 234.60,38.75 234.70,38.75 234.80,38.75 234.91,38.58 235.01,38.58 235.11,38.58 235.21,38.58 235.32,38.32 235.42,37.51 235.52,37.51 235.63,37.31 235.73,37.31 235.83,37.31 235.93,36.83 236.04,36.83 236.14,36.83 236.24,35.71 236.35,35.71 236.45,35.71 236.55,34.18 236.65,34.18 236.76,34.18 236.86,32.97 236.96,32.97 237.07,32.49 237.17,32.49 237.27,33.79 237.37,33.79 237.48,33.79 237.58,35.42 237.68,35.42 237.79,35.42 237.89,33.60 237.99,34.38 238.09,34.38 238.20,32.96 238.30,32.96 238.40,32.96 238.51,34.44 238.61,33.14 238.71,33.14 238.81,33.14 238.92,33.14 239.02,30.73 239.12,30.50 239.23,30.50 239.33,30.59 239.43,30.59 239.53,31.85 239.64,30.26 239.74,30.26 239.84,30.26 239.95,30.26 240.05,31.80 240.15,31.80 240.25,31.80 240.36,30.36 240.46,30.44 240.56,30.44 240.67,30.44 240.77,30.75 240.87,28.69 240.97,28.69 241.08,28.69 241.18,28.52 241.28,28.52 241.38,27.02 241.49,27.02 241.59,27.96 241.69,27.96 241.80,26.99 241.90,26.99 242.00,28.33 242.10,28.33 242.21,27.25 242.31,27.25 242.41,28.21 242.52,28.21 242.62,28.21 242.72,28.47 242.82,28.47 242.93,29.81 243.03,29.02 243.13,29.02 243.24,29.02 243.34,27.50 243.44,27.25 243.54,27.25 243.65,27.25 243.75,28.55 243.85,28.55 243.96,27.40 244.06,29.08 244.16,29.08 244.26,29.08 244.37,29.08 244.47,30.18 244.57,30.18 244.68,30.18 244.78,29.28 244.88,29.28 244.98,29.28 245.09,28.08 245.19,28.08 245.29,28.08 245.40,29.03 245.50,29.03 245.60,29.03 245.70,28.15 245.81,28.15 245.91,28.15 246.01,27.59 246.12,27.59 246.22,27.59 246.32,27.29 246.42,27.29 246.53,27.29 246.63,28.41 246.73,28.14 246.84,28.14 246.94,28.14 247.04,27.68 247.14,27.68 247.25,27.68 247.35,26.82 247.45,26.84 247.56,26.84 247.66,26.42 247.76,26.42 247.86,26.42 247.97,26.42 248.07,26.73 248.17,26.73 248.28,26.73 248.38,25.81 248.48,25.81 248.58,25.81 248.69,26.18 248.79,25.21 248.89,25.21 249.00,25.21 249.10,24.34 249.20,25.00 249.30,25.00 249.41,25.00 249.51,24.56 249.61,24.83 249.72,24.83 249.82,24.83 249.92,24.39 250.02,25.24 250.13,25.24 250.23,25.24 250.33,23.73 250.44,25.47 250.54,25.47 250.64,23.76 250.74,23.76 250.85,23.76 250.95,24.95 251.05,24.95 251.16,24.95 251.26,23.05 251.36,23.05 251.46,23.05 251.57,23.94 251.67,23.94 251.77,23.94 251.88,24.03 251.98,24.03 252.08,24.03 252.18,24.09 252.29,25.00 252.39,25.00 252.49,24.13 252.60,24.13 252.70,24.13 252.80,23.51 252.90,23.51 253.01,23.51 253.11,24.17 253.21,24.17 253.32,24.17 253.42,24.17 253.52,23.06 253.62,25.14 253.73,25.14 253.83,24.12 253.93,22.12 254.04,22.12 254.14,22.08 254.24,22.08 254.34,21.38 254.45,21.38 254.55,22.66 254.65,22.66 254.76,22.66 254.86,21.47 254.96,21.59 255.06,21.59 255.17,22.18 255.27,22.18 255.37,22.18 255.48,22.26 255.58,22.26 255.68,22.26 255.78,21.26 255.89,21.26 255.99,20.50 256.09,20.50 256.20,20.50 256.30,20.91 256.40,20.91 256.50,20.91 256.61,20.16 256.71,20.16 256.81,20.16 256.92,20.90 257.02,19.35 257.12,19.35 257.22,19.35 257.33,19.35 257.43,18.29 257.53,19.33 257.64,19.33 257.74,18.23 257.84,18.23 257.94,18.45 258.05,18.45 258.15,18.21 258.25,18.21 258.36,18.21 258.46,18.19 258.56,18.19 258.66,18.19 258.77,17.05 258.87,17.05 258.97,15.83 259.08,15.83 259.18,15.83 259.28,16.17 259.38,16.17 259.49,17.27 259.59,17.27 259.69,17.27 259.80,17.95 259.90,15.59 260.00,16.58 260.10,16.58 260.21,16.58 260.31,17.20 260.41,17.20 260.52,17.20 260.62,17.74 260.72,16.32 260.82,16.32 260.93,17.75 261.03,17.75 261.13,17.29 261.24,17.29 261.34,17.29 261.44,17.29 261.54,16.92 261.65,18.33 261.75,18.33 261.85,17.88 261.96,17.88 262.06,17.88 262.16,17.17 262.26,17.92 262.37,17.92 262.47,17.92 262.57,17.82 262.68,17.82 262.78,17.82 262.88,18.16 262.98,18.16 263.09,18.18 263.19,18.18 263.29,18.15 263.40,18.15 263.50,18.15 263.60,17.80 263.70,17.80 263.81,17.80 263.91,18.41 264.01,18.41 264.12,17.56 264.22,18.18 264.32,18.18 264.42,18.18 264.53,18.45 264.63,18.45 264.73,18.45 264.84,18.66 264.94,18.66 265.04,18.44 265.14,18.13 265.25,18.13 265.35,18.13 265.45,17.71 265.56,17.71 265.66,17.71 265.76,17.97 265.86,17.97 265.97,17.50 266.07,17.57 266.17,17.57 266.28,17.57 266.38,17.44 266.48,17.44 266.58,17.44 266.69,17.74 266.79,17.74 266.89,17.35 267.00,17.75 267.10,17.75 267.20,17.75 267.30,17.97 267.41,18.22 267.51,18.22 267.61,18.22 267.72,18.19 267.82,18.22 267.92,18.22 268.02,18.22 268.13,18.22 268.23,17.89 268.33,17.89 268.44,17.89 268.54,18.05 268.64,18.05 268.74,17.54 268.85,17.81 268.95,17.81 269.05,17.81 269.16,17.41 269.26,17.41 269.36,17.63 269.46,17.25 269.57,17.25 269.67,17.25 269.77,16.85 269.88,16.85 269.98,16.85 270.08,17.01 270.18,16.70 270.29,16.70 270.39,16.70 270.49,16.37 270.60,16.44 270.70,16.44 270.80,16.44 270.90,16.04 271.01,16.59 271.11,16.59 271.21,16.59 271.32,17.00 271.42,16.86 271.52,16.86 271.62,17.07 271.73,17.07 271.83,17.07 271.93,17.04 272.04,17.04 272.14,17.04 272.24,16.62 272.34,16.62 272.45,16.62 272.55,16.63 272.65,16.63 272.76,16.63 272.86,16.56 272.96,16.56 273.06,16.56 273.17,16.51 273.27,16.51 273.37,16.39 273.48,16.39 273.58,16.39 273.68,16.32 273.78,16.32 273.89,16.22 273.99,16.22 274.09,15.32 274.20,15.15 274.30,15.15 274.40,15.15 274.50,15.96 274.61,15.96 274.71,15.82 274.81,15.82 274.92,15.82 275.02,14.16 275.12,14.16 275.22,14.16 275.33,13.89 275.43,13.89 275.53,13.89 275.64,13.81 275.74,13.81 275.84,14.58 275.94,15.23 276.05,15.23 276.15,15.23 276.25,15.20 276.36,15.20 276.46,14.38 276.56,14.38 276.66,13.13 276.77,12.15 276.87,12.15 276.97,12.15 277.08,11.68 277.18,11.68 277.28,12.12 277.38,12.12 277.49,12.12 277.59,12.66 277.69,12.66 277.79,12.66 277.90,13.50 278.00,13.50 278.10,13.96 278.21,13.96 278.31,13.96 278.41,13.96 278.51,13.97 278.62,14.45 278.72,14.45 278.82,14.45 278.93,14.39 279.03,14.39 279.13,14.39 279.23,15.16 279.34,15.16 279.44,14.34 279.54,14.34 279.65,14.34 279.75,15.08 279.85,14.32 279.95,14.32 280.06,13.19 280.16,13.18 280.26,13.18 280.37,13.18 280.47,13.18 280.57,11.73 280.67,11.73 280.78,11.73 280.88,11.73 280.98,9.65 281.09,10.37 281.19,9.11 281.29,9.11 281.39,9.11 281.50,8.51 281.60,8.51 281.70,10.51 281.81,9.83 281.91,9.83 282.01,9.83 282.11,9.97 282.22,9.97 282.32,9.97 282.42,9.66 282.53,9.66 282.63,9.98 282.73,9.98 282.83,9.98 282.94,10.94 283.04,10.94 283.14,9.67 283.25,10.25 283.35,10.25 283.45,10.25 283.55,9.73 283.66,9.73 283.76,9.73 283.86,10.53 283.97,9.63 284.07,9.63 284.17,9.63 284.27,9.13 284.38,8.47 284.48,8.47 284.58,8.47 284.69,7.63 284.79,6.92 284.89,6.92 284.99,6.32 285.10,6.32 285.20,6.32 285.30,6.85 285.41,6.85 285.51,6.85 285.61,7.40 285.71,7.40 285.82,7.40 285.92,5.51 286.02,5.51 286.13,5.51 286.23,5.00 286.33,5.00 286.43,4.95 286.54,4.95 286.64,4.95 286.74,5.34 286.85,5.34 286.95,5.34 287.05,5.83 287.15,5.83 287.26,5.83 287.36,5.83 287.46,8.51 287.57,8.51 287.67,8.51 287.77,8.51 287.87,9.43 287.98,9.43 288.08,9.18 288.18,9.18 288.29,9.18 288.39,9.92 288.49,9.92 288.59,9.92 288.70,10.22 288.80,10.22 288.90,10.22 289.01,9.77 289.11,9.77 289.21,9.77 289.31,10.33 289.42,10.33 289.52,10.33 289.62,10.13 289.73,10.13 289.83,10.62 289.93,10.62 290.03,10.62 290.14,10.41 290.24,12.06 290.34,12.06 290.45,12.01 290.55,12.01 290.65,12.01 290.75,12.10 290.86,12.10 290.96,12.41 291.06,12.41 291.17,12.41 291.27,12.66 291.37,12.66 291.47,11.93 291.58,12.90 291.68,12.90 291.78,12.97 291.89,12.97 291.99,12.97 292.09,13.42 292.19,13.42 292.30,13.42 292.40,13.42 292.50,13.12 292.61,13.12 292.71,13.12 292.81,11.47 292.91,11.47 293.02,11.67 293.12,11.67 293.22,11.67 293.33,10.82 293.43,10.82 293.53,10.82 293.63,9.73 293.74,9.73 293.84,9.73 293.94,9.74 294.05,8.92 294.15,8.92 294.25,8.92 294.35,8.20 294.46,8.20 294.56,8.20 294.66,8.03 294.77,8.03 294.87,8.03 294.97,8.43 295.07,8.43 295.18,8.43 295.28,8.85 295.38,8.85 295.49,8.85 295.59,9.34 295.69,9.34 295.79,9.34 295.90,9.34 296.00,9.64" />
</svg>