<svg width="300" height="60" xmlns="http://www.w3.org/2000/svg">
  <polyline fill="rgba(255,200,0,0.3)" stroke="#ffbb00" stroke-width="2" points="4.00,55.54 4.05,55.68 4.11,55.78 4.16,55.85 4.21,55.89 4.27,55.92 4.32,55.94 4.37,55.99 4.43,55.95 4.48,55.94 4.54,55.94 4.59,55.90 4.64,55.85 4.70,55.94 4.75,55.84 4.80,55.83 4.86,55.75 4.91,55.54 4.96,55.33 5.02,55.10 5.07,54.94 5.12,54.70 5.18,54.38 5.23,53.87 5.28,53.67 5.34,53.87 5.39,53.73 5.45,53.61 5.50,53.46 5.55,53.32 5.61,53.13 5.66,52.96 5.71,52.80 5.77,52.61 5.82,52.44 5.87,52.32 5.93,52.08 5.98,51.98 6.03,51.87 6.09,51.82 6.14,51.75 6.19,51.63 6.25,51.55 6.30,51.49 6.36,51.44 6.41,51.34 6.46,51.20 6.52,51.03 6.57,50.86 6.62,50.73 6.68,50.63 6.73,50.54 6.78,50.67 6.84,50.56 6.89,50.16 6.94,50.02 7.00,49.89 7.05,49.75 7.10,49.61 7.16,49.48 7.21,49.38 7.27,49.30 7.32,49.20 7.37,49.09 7.43,49.02 7.48,49.07 7.53,48.85 7.59,48.70 7.64,48.59 7.69,48.48 7.75,48.37 7.80,48.30 7.85,48.22 7.91,48.14 7.96,48.08 8.01,47.99 8.07,47.86 8.12,47.77 8.18,47.67 8.23,47.59 8.28,47.58 8.34,47.59 8.39,47.53 8.44,47.52 8.50,47.50 8.55,47.49 8.60,47.46 8.66,47.43 8.71,47.34 8.76,47.26 8.82,47.21 8.87,47.10 8.92,46.99 8.98,46.87 9.03,46.77 9.09,46.67 9.14,46.46 9.19,46.40 9.25,46.26 9.30,46.12 9.35,45.97 9.41,45.83 9.46,45.76 9.51,45.93 9.57,45.80 9.62,45.84 9.67,45.88 9.73,45.91 9.78,45.95 9.83,45.99 9.89,46.01 9.94,46.01 10.00,46.02 10.05,46.03 10.10,46.02 10.16,46.01 10.21,45.99 10.26,45.89 10.32,45.76 10.37,45.70 10.42,45.65 10.48,45.60 10.53,45.56 10.58,45.51 10.64,45.45 10.69,45.36 10.74,45.36 10.80,45.25 10.85,45.05 10.91,44.98 10.96,44.84 11.01,44.78 11.07,44.71 11.12,44.70 11.17,44.65 11.23,44.66 11.28,44.56 11.33,44.70 11.39,44.73 11.44,44.72 11.49,44.72 11.55,44.71 11.60,44.70 11.65,44.73 11.71,44.70 11.76,44.76 11.82,44.75 11.87,44.76 11.92,44.76 11.98,44.82 12.03,44.81 12.08,44.74 12.14,44.70 12.19,44.63 12.24,44.55 12.30,44.43 12.35,44.33 12.40,44.22 12.46,44.13 12.51,44.00 12.56,43.85 12.62,43.70 12.67,43.55 12.73,43.41 12.78,43.28 12.83,43.22 12.89,43.22 12.94,43.01 12.99,42.85 13.05,42.71 13.10,42.58 13.15,42.49 13.21,42.40 13.26,42.33 13.31,42.27 13.37,42.24 13.42,42.21 13.47,42.16 13.53,42.13 13.58,42.12 13.64,42.09 13.69,42.08 13.74,42.11 13.80,42.08 13.85,42.06 13.90,42.06 13.96,42.00 14.01,41.59 14.06,41.27 14.12,41.31 14.17,41.45 14.22,41.97 14.28,42.04 14.33,42.48 14.38,42.65 14.44,42.20 14.49,41.82 14.55,41.80 14.60,41.75 14.65,41.55 14.71,41.36 14.76,41.33 14.81,41.46 14.87,41.46 14.92,41.44 14.97,41.32 15.03,41.16 15.08,40.92 15.13,40.83 15.19,40.63 15.24,40.49 15.29,40.69 15.35,40.70 15.40,40.65 15.46,40.63 15.51,40.74 15.56,40.61 15.62,40.46 15.67,40.41 15.72,40.25 15.78,40.27 15.83,40.28 15.88,40.24 15.94,40.22 15.99,40.10 16.04,39.92 16.10,40.06 16.15,40.09 16.20,40.26 16.26,40.29 16.31,40.30 16.37,40.27 16.42,40.21 16.47,40.09 16.53,40.07 16.58,39.97 16.63,39.86 16.69,39.78 16.74,39.68 16.79,39.61 16.85,39.55 16.90,39.48 16.95,39.46 17.01,39.45 17.06,39.41 17.11,39.40 17.17,39.35 17.22,39.24 17.28,39.17 17.33,39.06 17.38,38.98 17.44,38.89 17.49,38.80 17.54,38.69 17.60,38.59 17.65,38.49 17.70,38.38 17.76,38.27 17.81,38.13 17.86,38.04 17.92,37.93 17.97,37.83 18.02,37.73 18.08,37.93 18.13,37.88 18.19,37.45 18.24,37.17 18.29,37.04 18.35,36.89 18.40,36.75 18.45,36.60 18.51,36.46 18.56,36.32 18.61,36.18 18.67,36.04 18.72,35.95 18.77,35.87 18.83,35.77 18.88,35.66 18.93,35.58 18.99,35.44 19.04,35.42 19.10,35.33 19.15,35.33 19.20,35.26 19.26,35.15 19.31,35.08 19.36,35.03 19.42,34.99 19.47,34.90 19.52,34.83 19.58,34.77 19.63,34.84 19.68,35.19 19.74,34.94 19.79,34.54 19.84,34.47 19.90,34.36 19.95,34.35 20.01,34.28 20.06,34.15 20.11,34.15 20.17,34.11 20.22,34.05 20.27,34.00 20.33,33.96 20.38,33.89 20.43,33.79 20.49,33.71 20.54,33.63 20.59,33.56 20.65,33.49 20.70,33.41 20.75,33.31 20.81,33.23 20.86,33.14 20.92,33.06 20.97,33.00 21.02,32.97 21.08,32.89 21.13,32.83 21.18,32.77 21.24,32.69 21.29,32.61 21.34,32.53 21.40,32.45 21.45,32.46 21.50,32.43 21.56,32.27 21.61,32.20 21.66,32.15 21.72,32.12 21.77,32.08 21.83,32.02 21.88,31.97 21.93,31.35 21.99,31.24 22.04,31.80 22.09,31.83 22.15,31.85 22.20,31.87 22.25,31.90 22.31,31.93 22.36,31.97 22.41,31.93 22.47,31.89 22.52,31.84 22.57,31.78 22.63,31.66 22.68,31.58 22.74,31.52 22.79,31.44 22.84,31.35 22.90,31.19 22.95,31.06 23.00,30.93 23.06,30.82 23.11,31.01 23.16,30.67 23.22,30.54 23.27,30.46 23.32,30.40 23.38,30.32 23.43,30.21 23.48,30.09 23.54,30.04 23.59,30.13 23.65,30.13 23.70,29.85 23.75,29.54 23.81,29.31 23.86,29.21 23.91,29.12 23.97,29.02 24.02,28.92 24.07,28.83 24.13,28.70 24.18,28.62 24.23,28.67 24.29,28.71 24.34,28.62 24.39,28.42 24.45,28.24 24.50,28.09 24.56,28.01 24.61,27.85 24.66,27.72 24.72,27.61 24.77,27.49 24.82,27.33 24.88,27.23 24.93,27.15 24.98,27.10 25.04,27.07 25.09,27.04 25.14,27.00 25.20,26.96 25.25,26.93 25.30,26.88 25.36,26.81 25.41,26.72 25.47,26.54 25.52,26.35 25.57,26.23 25.63,26.09 25.68,25.91 25.73,25.71 25.79,25.57 25.84,25.40 25.89,25.25 25.95,25.12 26.00,25.01 26.05,24.92 26.11,24.84 26.16,24.70 26.21,24.59 26.27,24.47 26.32,24.37 26.38,24.27 26.43,24.18 26.48,24.10 26.54,24.04 26.59,23.98 26.64,23.92 26.70,23.85 26.75,23.80 26.80,23.72 26.86,23.67 26.91,23.58 26.96,23.47 27.02,23.37 27.07,23.27 27.12,23.17 27.18,23.11 27.23,22.96 27.29,22.84 27.34,22.74 27.39,22.66 27.45,22.58 27.50,22.50 27.55,22.41 27.61,22.34 27.66,22.28 27.71,22.15 27.77,22.02 27.82,21.90 27.87,21.78 27.93,21.65 27.98,21.50 28.03,21.37 28.09,21.23 28.14,21.10 28.20,20.99 28.25,20.77 28.30,20.70 28.36,20.55 28.41,20.41 28.46,20.28 28.52,20.17 28.57,20.06 28.62,19.93 28.68,19.79 28.73,19.66 28.78,19.53 28.84,19.39 28.89,19.26 28.94,19.15 29.00,19.03 29.05,18.93 29.11,18.84 29.16,18.76 29.21,18.64 29.27,18.48 29.32,18.33 29.37,18.16 29.43,17.97 29.48,17.88 29.53,17.75 29.59,17.64 29.64,17.51 29.69,17.39 29.75,17.25 29.80,17.08 29.85,16.94 29.91,16.81 29.96,16.67 30.02,16.49 30.07,16.34 30.12,16.22 30.18,16.13 30.23,16.06 30.28,15.83 30.34,15.49 30.39,15.26 30.44,15.03 30.50,14.85 30.55,14.61 30.60,14.52 30.66,14.30 30.71,14.22 30.76,14.07 30.82,14.03 30.87,13.93 30.93,13.82 30.98,13.71 31.03,13.59 31.09,13.50 31.14,13.39 31.19,13.29 31.25,13.20 31.30,13.14 31.35,13.07 31.41,13.01 31.46,12.92 31.51,12.81 31.57,12.71 31.62,12.62 31.67,12.49 31.73,12.36 31.78,12.26 31.84,12.10 31.89,11.95 31.94,11.71 32.00,11.45 32.05,11.45 32.10,11.38 32.16,11.29 32.21,11.23 32.26,11.15 32.32,11.03 32.37,10.85 32.42,10.68 32.48,10.62 32.53,10.80 32.58,10.90 32.64,10.93 32.69,10.93 32.75,10.96 32.80,10.97 32.85,10.97 32.91,10.89 32.96,10.82 33.01,10.77 33.07,10.68 33.12,10.59 33.17,10.51 33.23,10.50 33.28,10.45 33.33,10.46 33.39,10.45 33.44,10.44 33.49,10.42 33.55,10.43 33.60,10.39 33.65,10.35 33.71,10.34 33.76,10.29 33.82,10.34 33.87,10.32 33.92,10.17 33.98,10.04 34.03,9.87 34.08,9.77 34.14,9.67 34.19,9.58 34.24,9.50 34.30,9.43 34.35,9.42 34.40,9.38 34.46,9.33 34.51,9.19 34.56,9.09 34.62,9.04 34.67,8.91 34.73,8.81 34.78,8.72 34.83,8.65 34.89,8.61 34.94,8.53 34.99,8.42 35.05,8.30 35.10,8.19 35.15,8.13 35.21,8.07 35.26,8.04 35.31,8.04 35.37,7.87 35.42,7.70 35.47,7.62 35.53,7.61 35.58,7.60 35.64,7.44 35.69,7.28 35.74,7.13 35.80,6.98 35.85,6.75 35.90,6.65 35.96,6.51 36.01,6.41 36.06,6.35 36.12,6.32 36.17,6.32 36.22,6.26 36.28,6.18 36.33,6.11 36.38,6.03 36.44,5.94 36.49,5.86 36.55,5.81 36.60,5.76 36.65,5.71 36.71,5.66 36.76,5.61 36.81,5.58 36.87,5.58 36.92,5.58 36.97,5.59 37.03,5.61 37.08,5.62 37.13,5.65 37.19,5.66 37.24,5.66 37.29,5.64 37.35,5.62 37.40,5.60 37.46,5.53 37.51,5.48 37.56,5.42 37.62,5.37 37.67,5.33 37.72,5.30 37.78,5.28 37.83,5.28 37.88,5.31 37.94,5.35 37.99,5.40 38.04,5.45 38.10,5.48 38.15,5.49 38.20,5.52 38.26,5.53 38.31,5.43 38.37,5.40 38.42,5.30 38.47,5.15 38.53,5.14 38.58,5.08 38.63,5.07 38.69,4.98 38.74,4.87 38.79,4.79 38.85,4.75 38.90,4.73 38.95,4.74 39.01,4.86 39.06,4.92 39.11,4.90 39.17,4.89 39.22,4.86 39.28,4.84 39.33,4.84 39.38,4.84 39.44,4.86 39.49,4.90 39.54,4.91 39.60,4.86 39.65,4.73 39.70,4.63 39.76,4.54 39.81,4.49 39.86,4.46 39.92,4.46 39.97,4.44 40.02,4.39 40.08,4.34 40.13,4.25 40.19,4.17 40.24,4.26 40.29,4.34 40.35,4.37 40.40,4.43 40.45,4.44 40.51,4.58 40.56,4.60 40.61,4.46 40.67,4.41 40.72,4.43 40.77,4.46 40.83,4.48 40.88,4.50 40.93,4.52 40.99,4.56 41.04,4.55 41.10,4.53 41.15,4.51 41.20,4.43 41.26,4.39 41.31,4.43 41.36,4.42 41.42,4.43 41.47,4.41 41.52,4.38 41.58,4.35 41.63,4.34 41.68,4.28 41.74,4.23 41.79,4.20 41.84,4.19 41.90,4.21 41.95,4.25 42.01,4.23 42.06,4.16 42.11,4.03 42.17,4.03 42.22,4.15 42.27,4.23 42.33,4.26 42.38,4.32 42.43,4.36 42.49,4.42 42.54,4.47 42.59,4.54 42.65,4.61 42.70,4.67 42.75,4.75 42.81,4.81 42.86,4.86 42.92,4.90 42.97,4.96 43.02,5.03 43.08,5.12 43.13,5.21 43.18,5.17 43.24,5.23 43.29,5.42 43.34,5.46 43.40,5.56 43.45,5.64 43.50,5.69 43.56,5.76 43.61,5.83 43.66,5.89 43.72,5.98 43.77,6.05 43.83,6.14 43.88,6.21 43.93,6.28 43.99,6.20 44.04,6.20 44.09,6.31 44.15,6.45 44.20,6.55 44.25,6.66 44.31,6.72 44.36,6.75 44.41,6.77 44.47,6.84 44.52,6.88 44.57,6.93 44.63,6.99 44.68,6.99 44.74,7.04 44.79,6.99 44.84,6.96 44.90,6.96 44.95,6.98 45.00,7.02 45.06,7.06 45.11,7.00 45.16,7.00 45.22,7.05 45.27,7.11 45.32,7.22 45.38,7.33 45.43,7.46 45.48,7.53 45.54,7.62 45.59,7.63 45.65,7.60 45.70,7.62 45.75,7.67 45.81,7.63 45.86,7.71 45.91,7.86 45.97,7.92 46.02,7.95 46.07,7.88 46.13,7.84 46.18,7.82 46.23,7.88 46.29,8.13 46.34,8.24 46.39,8.04 46.45,7.87 46.50,7.77 46.56,7.76 46.61,7.78 46.66,7.79 46.72,7.78 46.77,7.83 46.82,7.89 46.88,8.06 46.93,8.37 46.98,8.63 47.04,8.85 47.09,8.96 47.14,9.04 47.20,9.11 47.25,9.14 47.30,9.25 47.36,9.40 47.41,9.54 47.47,9.56 47.52,9.54 47.57,9.51 47.63,9.46 47.68,9.52 47.73,9.70 47.79,10.05 47.84,10.25 47.89,10.40 47.95,10.50 48.00,10.68 48.05,10.60 48.11,10.55 48.16,10.44 48.21,10.32 48.27,10.33 48.32,10.32 48.38,10.41 48.43,10.83 48.48,11.27 48.54,11.34 48.59,11.18 48.64,11.03 48.70,11.03 48.75,10.98 48.80,11.04 48.86,11.30 48.91,11.12 48.96,10.82 49.02,10.78 49.07,10.77 49.12,10.81 49.18,10.78 49.23,10.84 49.29,10.94 49.34,10.96 49.39,11.03 49.45,11.15 49.50,11.33 49.55,11.50 49.61,11.43 49.66,11.36 49.71,11.37 49.77,11.55 49.82,11.64 49.87,11.56 49.93,11.53 49.98,11.71 50.03,12.01 50.09,12.65 50.14,13.18 50.20,13.16 50.25,13.17 50.30,12.91 50.36,12.89 50.41,12.97 50.46,13.00 50.52,12.93 50.57,12.76 50.62,12.63 50.68,12.59 50.73,12.91 50.78,13.09 50.84,13.21 50.89,13.41 50.94,13.58 51.00,13.74 51.05,13.82 51.11,13.94 51.16,14.05 51.21,14.16 51.27,14.43 51.32,14.63 51.37,14.79 51.43,14.96 51.48,15.01 51.53,15.12 51.59,15.16 51.64,15.20 51.69,15.24 51.75,15.31 51.80,15.29 51.85,15.36 51.91,15.41 51.96,15.42 52.02,15.43 52.07,15.41 52.12,15.27 52.18,14.95 52.23,14.65 52.28,14.47 52.34,14.57 52.39,14.88 52.44,15.09 52.50,15.19 52.55,15.20 52.60,15.04 52.66,14.91 52.71,14.98 52.76,15.03 52.82,14.95 52.87,14.88 52.93,14.84 52.98,14.85 53.03,14.97 53.09,15.06 53.14,15.32 53.19,15.45 53.25,15.66 53.30,15.99 53.35,16.20 53.41,16.23 53.46,16.07 53.51,15.75 53.57,15.43 53.62,15.34 53.67,15.41 53.73,15.53 53.78,15.86 53.84,15.95 53.89,15.94 53.94,16.00 54.00,16.08 54.05,16.24 54.10,16.32 54.16,16.40 54.21,16.46 54.26,16.39 54.32,16.40 54.37,16.43 54.42,16.35 54.48,16.28 54.53,16.31 54.58,16.37 54.64,16.34 54.69,16.15 54.75,16.12 54.80,16.20 54.85,16.36 54.91,16.54 54.96,16.79 55.01,17.20 55.07,17.07 55.12,16.62 55.17,16.54 55.23,16.52 55.28,16.34 55.33,16.34 55.39,16.40 55.44,16.51 55.49,16.80 55.55,16.94 55.60,17.05 55.66,17.21 55.71,17.48 55.76,17.56 55.82,17.79 55.87,17.90 55.92,18.00 55.98,18.02 56.03,18.05 56.08,18.31 56.14,19.07 56.19,18.67 56.24,18.44 56.30,18.35 56.35,18.18 56.40,18.19 56.46,18.07 56.51,17.97 56.57,17.85 56.62,17.68 56.67,17.66 56.73,17.69 56.78,17.66 56.83,17.50 56.89,17.22 56.94,16.93 56.99,16.66 57.05,16.42 57.10,16.33 57.15,16.21 57.21,16.14 57.26,16.00 57.31,15.93 57.37,15.64 57.42,15.01 57.48,14.47 57.53,14.35 57.58,13.87 57.64,13.60 57.69,13.40 57.74,13.30 57.80,13.45 57.85,13.88 57.90,14.23 57.96,14.42 58.01,14.54 58.06,14.66 58.12,14.77 58.17,14.86 58.22,14.85 58.28,14.73 58.33,14.45 58.39,14.19 58.44,14.07 58.49,14.17 58.55,14.18 58.60,14.25 58.65,14.39 58.71,14.59 58.76,14.76 58.81,14.48 58.87,14.15 58.92,14.11 58.97,14.29 59.03,14.55 59.08,14.72 59.13,14.69 59.19,14.64 59.24,14.63 59.30,14.66 59.35,14.67 59.40,14.63 59.46,14.58 59.51,14.50 59.56,14.33 59.62,14.16 59.67,14.06 59.72,14.01 59.78,13.91 59.83,13.84 59.88,14.07 59.94,14.25 59.99,14.54 60.04,14.87 60.10,15.13 60.15,15.70 60.21,15.82 60.26,15.94 60.31,16.10 60.37,16.13 60.42,16.35 60.47,16.52 60.53,16.66 60.58,17.02 60.63,17.36 60.69,17.65 60.74,17.97 60.79,18.20 60.85,18.40 60.90,18.67 60.95,18.70 61.01,18.88 61.06,18.94 61.12,18.92 61.17,19.05 61.22,19.15 61.28,19.36 61.33,19.49 61.38,19.60 61.44,19.71 61.49,19.79 61.54,19.91 61.60,20.03 61.65,19.98 61.70,19.92 61.76,19.86 61.81,19.98 61.86,20.11 61.92,20.29 61.97,20.45 62.03,20.70 62.08,20.96 62.13,21.11 62.19,21.28 62.24,21.58 62.29,21.65 62.35,21.38 62.40,21.08 62.45,20.83 62.51,20.77 62.56,20.81 62.61,21.01 62.67,21.18 62.72,21.30 62.77,21.53 62.83,21.65 62.88,21.60 62.94,21.47 62.99,21.31 63.04,20.84 63.10,20.44 63.15,20.14 63.20,19.90 63.26,19.67 63.31,19.59 63.36,19.59 63.42,19.72 63.47,19.89 63.52,19.82 63.58,19.47 63.63,19.16 63.68,18.88 63.74,18.81 63.79,19.03 63.85,19.29 63.90,19.54 63.95,19.63 64.01,19.37 64.06,19.37 64.11,19.63 64.17,19.96 64.22,20.32 64.27,20.49 64.33,20.45 64.38,20.61 64.43,20.46 64.49,20.56 64.54,20.74 64.59,20.57 64.65,20.45 64.70,20.39 64.76,20.37 64.81,20.16 64.86,19.77 64.92,19.50 64.97,19.14 65.02,18.90 65.08,18.79 65.13,18.70 65.18,18.51 65.24,18.35 65.29,18.23 65.34,18.16 65.40,18.16 65.45,18.26 65.50,18.47 65.56,18.61 65.61,18.59 65.67,18.56 65.72,18.56 65.77,18.56 65.83,18.50 65.88,18.50 65.93,18.72 65.99,19.11 66.04,19.61 66.09,20.10 66.15,20.21 66.20,20.33 66.25,20.40 66.31,20.46 66.36,20.51 66.41,20.54 66.47,20.46 66.52,20.45 66.58,20.53 66.63,20.63 66.68,20.77 66.74,20.95 66.79,21.15 66.84,21.28 66.90,21.37 66.95,21.41 67.00,21.43 67.06,21.43 67.11,21.56 67.16,21.65 67.22,21.78 67.27,21.87 67.32,22.00 67.38,22.11 67.43,22.15 67.49,22.19 67.54,22.19 67.59,22.18 67.65,22.13 67.70,22.16 67.75,22.19 67.81,22.20 67.86,22.28 67.91,22.34 67.97,22.38 68.02,22.49 68.07,22.51 68.13,22.61 68.18,22.66 68.23,22.64 68.29,22.61 68.34,22.57 68.40,22.43 68.45,22.36 68.50,22.22 68.56,21.96 68.61,21.65 68.66,21.57 68.72,21.54 68.77,21.72 68.82,21.83 68.88,21.92 68.93,21.85 68.98,21.84 69.04,21.87 69.09,21.99 69.14,22.32 69.20,22.80 69.25,23.36 69.31,23.99 69.36,24.35 69.41,23.78 69.47,23.53 69.52,23.39 69.57,23.31 69.63,23.28 69.68,23.27 69.73,23.14 69.79,22.67 69.84,22.34 69.89,22.19 69.95,22.12 70.00,22.14 70.05,22.45 70.11,23.04 70.16,22.93 70.22,22.28 70.27,21.84 70.32,22.12 70.38,22.64 70.43,22.44 70.48,22.57 70.54,23.35 70.59,24.56 70.64,24.95 70.70,25.81 70.75,25.81 70.80,25.56 70.86,25.27 70.91,25.15 70.96,25.42 71.02,25.38 71.07,25.21 71.13,24.79 71.18,24.49 71.23,24.21 71.29,23.97 71.34,23.85 71.39,23.83 71.45,23.84 71.50,23.68 71.55,23.65 71.61,23.63 71.66,23.59 71.71,23.66 71.77,24.00 71.82,24.69 71.87,24.99 71.93,24.67 71.98,24.50 72.04,24.64 72.09,25.00 72.14,25.47 72.20,25.12 72.25,24.51 72.30,24.05 72.36,23.85 72.41,23.96 72.46,24.10 72.52,24.10 72.57,24.08 72.62,23.96 72.68,23.84 72.73,23.82 72.78,23.77 72.84,23.77 72.89,23.75 72.95,23.75 73.00,24.16 73.05,24.64 73.11,25.09 73.16,24.69 73.21,24.44 73.27,24.56 73.32,24.95 73.37,25.31 73.43,25.53 73.48,25.10 73.53,24.47 73.59,24.04 73.64,23.77 73.69,23.76 73.75,23.71 73.80,23.63 73.86,23.59 73.91,23.64 73.96,23.57 74.02,23.48 74.07,23.43 74.12,23.40 74.18,23.55 74.23,23.70 74.28,23.83 74.34,23.92 74.39,23.82 74.44,23.17 74.50,22.74 74.55,22.46 74.60,22.35 74.66,22.27 74.71,22.21 74.77,22.02 74.82,21.69 74.87,21.30 74.93,21.05 74.98,21.00 75.03,21.12 75.09,21.25 75.14,21.12 75.19,20.99 75.25,20.94 75.30,21.17 75.35,21.19 75.41,21.45 75.46,21.34 75.51,20.90 75.57,20.60 75.62,20.51 75.68,20.66 75.73,20.83 75.78,20.41 75.84,20.22 75.89,20.10 75.94,20.03 76.00,19.98 76.05,19.86 76.10,19.78 76.16,19.79 76.21,19.72 76.26,19.57 76.32,19.33 76.37,18.93 76.42,18.65 76.48,18.41 76.53,18.38 76.59,18.51 76.64,18.89 76.69,19.03 76.75,19.10 76.80,19.02 76.85,18.90 76.91,18.99 76.96,19.06 77.01,55.55 77.07,55.66 77.12,55.72 77.17,55.83 77.23,55.90 77.28,55.91 77.33,55.94 77.39,56.00 77.44,55.94 77.50,55.95 77.55,55.92 77.60,55.89 77.66,55.87 77.71,56.00 77.76,55.84 77.82,55.83 77.87,55.76 77.92,55.53 77.98,55.34 78.03,55.07 78.08,54.87 78.14,54.71 78.19,54.42 78.24,53.97 78.30,53.87 78.35,53.74 78.41,53.72 78.46,53.61 78.51,53.45 78.57,53.33 78.62,53.21 78.67,52.93 78.73,52.81 78.78,52.59 78.83,52.44 78.89,52.33 78.94,52.04 78.99,51.98 79.05,51.85 79.10,51.80 79.15,51.71 79.21,51.64 79.26,51.53 79.32,51.49 79.37,51.43 79.42,51.34 79.48,51.22 79.53,51.01 79.58,50.85 79.64,50.75 79.69,50.63 79.74,50.53 79.80,50.77 79.85,50.47 79.90,50.17 79.96,49.98 80.01,49.86 80.06,49.72 80.12,49.62 80.17,49.48 80.23,49.37 80.28,49.29 80.33,49.19 80.39,49.09 80.44,49.01 80.49,48.99 80.55,48.86 80.60,48.70 80.65,48.60 80.71,48.37 80.76,48.37 80.81,48.30 80.87,48.23 80.92,48.15 80.97,48.11 81.03,48.02 81.08,47.87 81.14,47.75 81.19,47.68 81.24,47.59 81.30,47.56 81.35,47.61 81.40,47.51 81.46,47.50 81.51,47.49 81.56,47.49 81.62,47.47 81.67,47.43 81.72,47.34 81.78,47.27 81.83,47.18 81.88,47.11 81.94,47.00 81.99,46.89 82.05,46.75 82.10,46.63 82.15,46.47 82.21,46.38 82.26,46.23 82.31,46.11 82.37,45.94 82.42,45.81 82.47,45.74 82.53,45.96 82.58,45.79 82.63,45.84 82.69,45.90 82.74,45.91 82.79,45.93 82.85,45.97 82.90,45.98 82.96,46.00 83.01,46.02 83.06,46.02 83.12,46.01 83.17,46.00 83.22,46.01 83.28,45.86 83.33,45.75 83.38,45.68 83.44,45.65 83.49,45.65 83.54,45.55 83.60,45.49 83.65,45.45 83.70,45.34 83.76,45.48 83.81,45.18 83.87,45.18 83.92,44.96 83.97,44.85 84.03,44.87 84.08,44.71 84.13,44.72 84.19,44.64 84.24,44.65 84.29,44.51 84.35,44.73 84.40,44.71 84.45,44.74 84.51,44.72 84.56,44.71 84.61,44.69 84.67,44.70 84.72,44.75 84.78,44.76 84.83,44.76 84.88,44.76 84.94,44.75 84.99,44.77 85.04,44.77 85.10,44.74 85.15,44.69 85.20,44.62 85.26,44.56 85.31,44.44 85.36,44.33 85.42,44.21 85.47,44.12 85.52,43.98 85.58,43.82 85.63,43.69 85.69,43.56 85.74,43.37 85.79,43.25 85.85,43.17 85.90,43.30 85.95,42.98 86.01,42.83 86.06,42.72 86.11,42.57 86.17,42.46 86.22,42.37 86.27,42.32 86.33,42.26 86.38,42.22 86.43,42.20 86.49,42.15 86.54,42.12 86.60,42.10 86.65,42.09 86.70,42.07 86.76,42.11 86.81,42.09 86.86,42.05 86.92,42.04 86.97,41.79 87.02,41.83 87.08,41.34 87.13,41.15 87.18,41.33 87.24,41.97 87.29,42.03 87.34,42.49 87.40,42.47 87.45,42.24 87.51,41.81 87.56,41.79 87.61,41.74 87.67,41.52 87.72,41.51 87.77,41.60 87.83,41.65 87.88,41.40 87.93,41.37 87.99,41.30 88.04,40.97 88.09,40.86 88.15,40.93 88.20,40.62 88.25,40.48 88.31,40.54 88.36,40.70 88.42,40.64 88.47,40.63 88.52,40.84 88.58,40.68 88.63,40.44 88.68,40.39 88.74,40.32 88.79,40.22 88.84,40.24 88.90,40.22 88.95,40.21 89.00,39.88 89.06,39.87 89.11,40.09 89.16,40.00 89.22,40.19 89.27,40.29 89.33,40.28 89.38,40.27 89.43,40.22 89.49,40.09 89.54,40.08 89.59,39.96 89.65,39.86 89.70,39.76 89.75,39.64 89.81,39.59 89.86,39.54 89.91,39.47 89.97,39.47 90.02,39.45 90.07,39.39 90.13,39.45 90.18,39.47 90.24,39.24 90.29,39.14 90.34,39.07 90.40,38.97 90.45,38.88 90.50,38.78 90.56,38.68 90.61,38.57 90.66,38.46 90.72,38.40 90.77,38.19 90.82,38.15 90.88,38.01 90.93,37.93 90.98,37.82 91.04,37.71 91.09,38.02 91.15,37.90 91.20,37.34 91.25,37.17 91.31,37.03 91.36,36.89 91.41,36.75 91.47,36.58 91.52,36.45 91.57,36.30 91.63,36.18 91.68,36.02 91.73,35.98 91.79,35.92 91.84,35.74 91.89,35.66 91.95,35.59 92.00,35.54 92.05,35.42 92.11,35.31 92.16,35.28 92.22,35.21 92.27,35.14 92.32,35.07 92.38,35.03 92.43,34.96 92.48,34.89 92.54,34.81 92.59,34.78 92.64,34.82 92.70,35.37 92.75,34.98 92.80,34.58 92.86,34.46 92.91,34.39 92.96,34.33 93.02,34.28 93.07,33.91 93.13,34.14 93.18,34.11 93.23,34.05 93.29,34.02 93.34,33.95 93.39,33.95 93.45,33.79 93.50,33.69 93.55,33.63 93.61,33.56 93.66,33.49 93.71,33.39 93.77,33.30 93.82,33.20 93.87,33.13 93.93,33.05 93.98,32.99 94.04,32.95 94.09,32.89 94.14,32.83 94.20,32.76 94.25,32.68 94.30,32.59 94.36,32.53 94.41,32.46 94.46,32.43 94.52,32.46 94.57,32.27 94.62,32.24 94.68,32.18 94.73,32.14 94.78,32.08 94.84,32.01 94.89,31.95 94.95,31.63 95.00,31.43 95.05,31.83 95.11,31.81 95.16,31.85 95.21,31.87 95.27,31.87 95.32,31.86 95.37,31.83 95.43,31.91 95.48,31.88 95.53,31.83 95.59,31.77 95.64,31.67 95.69,31.58 95.75,31.50 95.80,31.45 95.86,31.35 95.91,31.16 95.96,31.04 96.02,30.91 96.07,30.79 96.12,30.93 96.18,30.66 96.23,30.55 96.28,30.45 96.34,30.38 96.39,30.33 96.44,30.21 96.50,30.09 96.55,30.04 96.60,30.21 96.66,30.05 96.71,29.75 96.77,29.63 96.82,29.31 96.87,29.21 96.93,29.11 96.98,29.02 97.03,28.91 97.09,28.82 97.14,28.70 97.19,28.63 97.25,28.63 97.30,28.69 97.35,28.58 97.41,28.45 97.46,28.21 97.51,28.12 97.57,27.98 97.62,27.85 97.68,27.71 97.73,27.62 97.78,27.57 97.84,27.34 97.89,27.23 97.94,27.17 98.00,27.10 98.05,27.08 98.10,27.04 98.16,27.03 98.21,26.97 98.26,26.93 98.32,26.88 98.37,26.81 98.42,26.78 98.48,26.51 98.53,26.35 98.59,26.22 98.64,26.07 98.69,25.90 98.75,25.74 98.80,25.53 98.85,25.37 98.91,25.25 98.96,25.12 99.01,25.05 99.07,24.93 99.12,24.91 99.17,24.70 99.23,24.58 99.28,24.50 99.33,24.37 99.39,24.28 99.44,24.17 99.50,24.10 99.55,24.04 99.60,24.00 99.66,23.91 99.71,23.85 99.76,23.79 99.82,23.68 99.87,23.66 99.92,23.59 99.98,23.46 100.03,23.37 100.08,23.26 100.14,23.19 100.19,23.05 100.24,22.95 100.30,22.88 100.35,22.76 100.41,22.65 100.46,22.58 100.51,22.53 100.57,22.43 100.62,22.31 100.67,22.28 100.73,22.15 100.78,22.01 100.83,21.93 100.89,21.79 100.94,21.65 100.99,21.53 101.05,21.36 101.10,21.25 101.15,21.10 101.21,21.00 101.26,20.81 101.32,20.69 101.37,20.54 101.42,20.42 101.48,20.29 101.53,20.18 101.58,20.11 101.64,20.02 101.69,19.79 101.74,19.64 101.80,19.53 101.85,19.41 101.90,19.26 101.96,19.17 102.01,19.06 102.06,18.92 102.12,18.86 102.17,18.77 102.23,18.62 102.28,18.49 102.33,18.36 102.39,18.37 102.44,18.01 102.49,17.87 102.55,17.79 102.60,17.65 102.65,17.53 102.71,17.40 102.76,17.24 102.81,17.11 102.87,16.93 102.92,16.87 102.97,16.66 103.03,16.53 103.08,16.37 103.14,16.25 103.19,16.08 103.24,16.05 103.30,15.88 103.35,15.75 103.40,15.24 103.46,15.06 103.51,14.89 103.56,14.75 103.62,14.48 103.67,14.35 103.72,14.23 103.78,14.15 103.83,14.04 103.88,13.92 103.94,13.82 103.99,13.73 104.05,13.60 104.10,13.49 104.15,13.38 104.21,13.29 104.26,13.21 104.31,13.15 104.37,13.10 104.42,13.00 104.47,12.92 104.53,12.84 104.58,12.72 104.63,12.62 104.69,12.49 104.74,12.35 104.79,12.31 104.85,12.17 104.90,11.96 104.96,11.69 105.01,11.55 105.06,11.43 105.12,11.39 105.17,11.30 105.22,11.21 105.28,11.11 105.33,11.03 105.38,10.85 105.44,10.70 105.49,10.61 105.54,10.75 105.60,10.89 105.65,10.94 105.70,10.92 105.76,10.98 105.81,10.99 105.87,10.94 105.92,10.90 105.97,10.84 106.03,10.80 106.08,10.77 106.13,10.60 106.19,10.51 106.24,10.51 106.29,10.45 106.35,10.47 106.40,10.45 106.45,10.43 106.51,10.44 106.56,10.43 106.61,10.37 106.67,10.32 106.72,10.30 106.78,10.23 106.83,10.30 106.88,10.34 106.94,10.18 106.99,10.02 107.04,9.84 107.10,9.77 107.15,9.67 107.20,9.60 107.26,9.48 107.31,9.43 107.36,9.35 107.42,9.38 107.47,9.28 107.52,9.16 107.58,9.10 107.63,9.11 107.69,9.00 107.74,8.81 107.79,8.73 107.85,8.65 107.90,8.70 107.95,8.56 108.01,8.47 108.06,8.31 108.11,8.22 108.17,8.15 108.22,8.07 108.27,8.12 108.33,8.05 108.38,7.87 108.43,7.76 108.49,7.63 108.54,7.52 108.60,7.58 108.65,7.45 108.70,7.28 108.76,7.10 108.81,6.87 108.86,6.75 108.92,6.65 108.97,6.51 109.02,6.41 109.08,6.35 109.13,6.32 109.18,6.37 109.24,6.27 109.29,6.18 109.34,6.09 109.40,6.02 109.45,5.93 109.51,5.85 109.56,5.82 109.61,5.75 109.67,5.76 109.72,5.66 109.77,5.61 109.83,5.59 109.88,5.58 109.93,5.59 109.99,5.62 110.04,5.62 110.09,5.64 110.15,5.65 110.20,5.66 110.25,5.67 110.31,5.70 110.36,5.63 110.42,5.60 110.47,5.54 110.52,5.52 110.58,5.42 110.63,5.38 110.68,5.33 110.74,5.31 110.79,5.29 110.84,5.29 110.90,5.32 110.95,5.35 111.00,5.40 111.06,5.44 111.11,5.48 111.16,5.54 111.22,5.56 111.27,5.51 111.33,5.45 111.38,5.40 111.43,5.26 111.49,5.16 111.54,5.22 111.59,5.13 111.65,5.15 111.70,5.13 111.75,4.97 111.81,4.90 111.86,4.82 111.91,4.74 111.97,4.79 112.02,4.81 112.07,4.92 112.13,4.92 112.18,4.90 112.24,4.86 112.29,4.84 112.34,4.86 112.40,4.86 112.45,4.82 112.50,4.86 112.56,4.94 112.61,4.86 112.66,4.69 112.72,4.64 112.77,4.53 112.82,4.47 112.88,4.46 112.93,4.47 112.98,4.44 113.04,4.40 113.09,4.34 113.15,4.22 113.20,4.12 113.25,4.32 113.31,4.36 113.36,4.35 113.41,4.41 113.47,4.44 113.52,4.60 113.57,4.60 113.63,4.43 113.68,4.38 113.73,4.42 113.79,4.45 113.84,4.48 113.89,4.50 113.95,4.54 114.00,4.54 114.06,4.56 114.11,4.52 114.16,4.50 114.22,4.48 114.27,4.41 114.32,4.42 114.38,4.43 114.43,4.42 114.48,4.42 114.54,4.37 114.59,4.35 114.64,4.31 114.70,4.27 114.75,4.24 114.80,4.21 114.86,4.18 114.91,4.20 114.97,4.22 115.02,4.23 115.07,4.08 115.13,4.02 115.18,4.04 115.23,4.09 115.29,4.23 115.34,4.27 115.39,4.31 115.45,4.36 115.50,4.42 115.55,4.47 115.61,4.53 115.66,4.61 115.71,4.68 115.77,4.73 115.82,4.81 115.88,4.84 115.93,4.90 115.98,4.95 116.04,5.05 116.09,5.09 116.14,5.20 116.20,5.10 116.25,5.15 116.30,5.37 116.36,5.38 116.41,5.44 116.46,5.56 116.52,5.69 116.57,5.75 116.62,5.85 116.68,5.78 116.73,5.99 116.79,6.05 116.84,6.12 116.89,6.21 116.95,6.17 117.00,6.14 117.05,6.21 117.11,6.32 117.16,6.35 117.21,6.52 117.27,6.65 117.32,6.72 117.37,6.75 117.43,6.72 117.48,6.83 117.53,6.88 117.59,6.94 117.64,6.99 117.70,7.00 117.75,7.02 117.80,7.00 117.86,6.97 117.91,6.95 117.96,6.97 118.02,7.02 118.07,7.09 118.12,7.03 118.18,6.95 118.23,7.09 118.28,7.11 118.34,7.19 118.39,7.30 118.44,7.45 118.50,7.53 118.55,7.59 118.61,7.55 118.66,7.61 118.71,7.61 118.77,7.68 118.82,7.65 118.87,7.77 118.93,7.76 118.98,7.89 119.03,7.89 119.09,7.82 119.14,7.87 119.19,7.84 119.25,7.88 119.30,8.14 119.35,8.19 119.41,8.05 119.46,7.87 119.52,7.75 119.57,7.72 119.62,7.71 119.68,7.83 119.73,7.74 119.78,7.86 119.84,7.86 119.89,8.06 119.94,8.35 120.00,8.62 120.05,8.81 120.10,9.00 120.16,8.95 120.21,9.09 120.26,9.18 120.32,9.20 120.37,9.45 120.43,9.47 120.48,9.59 120.53,9.62 120.59,9.54 120.64,9.55 120.69,9.51 120.75,9.72 120.80,10.13 120.85,10.18 120.91,10.27 120.96,10.42 121.01,10.49 121.07,10.59 121.12,10.48 121.17,10.38 121.23,10.30 121.28,10.28 121.34,10.40 121.39,10.50 121.44,10.96 121.50,11.39 121.55,11.44 121.60,11.14 121.66,11.03 121.71,11.10 121.76,11.03 121.82,11.09 121.87,11.29 121.92,11.10 121.98,10.87 122.03,10.81 122.08,10.69 122.14,10.83 122.19,10.79 122.25,10.94 122.30,10.94 122.35,11.06 122.41,10.99 122.46,11.18 122.51,11.44 122.57,11.50 122.62,11.51 122.67,11.37 122.73,11.35 122.78,11.68 122.83,11.63 122.89,11.68 122.94,11.59 122.99,11.71 123.05,12.13 123.10,12.70 123.16,13.17 123.21,13.15 123.26,13.18 123.32,12.98 123.37,13.02 123.42,12.95 123.48,12.97 123.53,12.94 123.58,12.76 123.64,12.56 123.69,12.51 123.74,12.82 123.80,13.08 123.85,13.19 123.90,13.30 123.96,13.62 124.01,13.69 124.07,13.80 124.12,13.89 124.17,14.07 124.23,14.13 124.28,14.42 124.33,14.63 124.39,14.80 124.44,14.96 124.49,15.02 124.55,15.13 124.60,15.18 124.65,15.21 124.71,15.24 124.76,15.28 124.81,15.23 124.87,15.36 124.92,15.33 124.98,15.42 125.03,15.36 125.08,15.43 125.14,15.25 125.19,14.96 125.24,14.60 125.30,14.45 125.35,14.54 125.40,14.89 125.46,15.08 125.51,15.14 125.56,15.11 125.62,15.08 125.67,14.88 125.72,15.05 125.78,14.99 125.83,15.05 125.89,14.88 125.94,14.90 125.99,14.87 126.05,14.83 126.10,15.07 126.15,15.25 126.21,15.42 126.26,15.69 126.31,16.05 126.37,16.28 126.42,16.16 126.47,16.10 126.53,15.78 126.58,15.48 126.63,15.35 126.69,15.38 126.74,15.51 126.80,15.76 126.85,15.98 126.90,16.05 126.96,15.93 127.01,16.02 127.06,16.19 127.12,16.31 127.17,16.45 127.22,16.53 127.28,16.36 127.33,16.39 127.38,16.45 127.44,16.41 127.49,16.23 127.54,16.29 127.60,16.39 127.65,16.25 127.71,16.07 127.76,16.11 127.81,16.18 127.87,16.30 127.92,16.50 127.97,16.75 128.03,17.22 128.08,17.07 128.13,16.70 128.19,16.52 128.24,16.42 128.29,16.31 128.35,16.31 128.40,16.42 128.45,16.47 128.51,16.64 128.56,16.91 128.62,17.04 128.67,17.15 128.72,17.45 128.78,17.50 128.83,17.80 128.88,17.82 128.94,18.02 128.99,18.08 129.04,17.91 129.10,18.30 129.15,19.01 129.20,18.67 129.26,18.50 129.31,18.38 129.36,18.17 129.42,18.07 129.47,18.10 129.53,17.91 129.58,17.74 129.63,17.69 129.69,17.54 129.74,17.55 129.79,17.73 129.85,17.38 129.90,17.08 129.95,17.03 130.01,16.63 130.06,16.29 130.11,16.39 130.17,16.10 130.22,16.18 130.27,15.98 130.33,15.88 130.38,15.52 130.44,14.90 130.49,14.54 130.54,14.10 130.60,13.84 130.65,13.55 130.70,13.41 130.76,13.28 130.81,13.47 130.86,13.86 130.92,14.13 130.97,14.41 131.02,14.51 131.08,14.67 131.13,14.77 131.18,14.89 131.24,14.83 131.29,14.75 131.35,14.39 131.40,14.16 131.45,14.07 131.51,14.14 131.56,14.15 131.61,14.23 131.67,14.35 131.72,14.55 131.77,14.69 131.83,14.52 131.88,14.23 131.93,14.09 131.99,14.27 132.04,14.58 132.09,14.70 132.15,14.69 132.20,14.56 132.26,14.58 132.31,14.62 132.36,14.65 132.42,14.60 132.47,14.57 132.52,14.48 132.58,14.31 132.63,14.11 132.68,14.02 132.74,13.94 132.79,13.89 132.84,13.80 132.90,14.07 132.95,14.19 133.00,14.48 133.06,14.79 133.11,15.19 133.17,15.67 133.22,15.81 133.27,15.95 133.33,16.10 133.38,16.13 133.43,16.34 133.49,16.50 133.54,16.67 133.59,16.93 133.65,17.32 133.70,17.72 133.75,17.93 133.81,18.29 133.86,18.33 133.91,18.66 133.97,18.63 134.02,18.88 134.08,18.87 134.13,18.98 134.18,19.00 134.24,19.20 134.29,19.30 134.34,19.52 134.40,19.51 134.45,19.70 134.50,19.73 134.56,19.94 134.61,19.95 134.66,20.05 134.72,19.84 134.77,19.83 134.82,19.96 134.88,20.13 134.93,20.24 134.99,20.43 135.04,20.71 135.09,20.94 135.15,21.10 135.20,21.27 135.25,21.61 135.31,21.69 135.36,21.35 135.41,21.01 135.47,20.78 135.52,20.76 135.57,20.79 135.63,20.94 135.68,21.21 135.73,21.22 135.79,21.52 135.84,21.60 135.90,21.57 135.95,21.48 136.00,21.34 136.06,20.76 136.11,20.41 136.16,20.16 136.22,19.80 136.27,19.68 136.32,19.58 136.38,19.55 136.43,19.73 136.48,19.86 136.54,19.87 136.59,19.40 136.64,19.07 136.70,18.85 136.75,18.76 136.81,19.05 136.86,19.28 136.91,19.54 136.97,19.53 137.02,19.33 137.07,19.34 137.13,19.60 137.18,19.91 137.23,20.42 137.29,20.39 137.34,20.38 137.39,20.59 137.45,20.45 137.50,20.48 137.55,20.80 137.61,20.57 137.66,20.47 137.72,20.46 137.77,20.27 137.82,20.02 137.88,19.74 137.93,19.39 137.98,19.05 138.04,18.90 138.09,18.77 138.14,18.75 138.20,18.52 138.25,18.34 138.30,18.29 138.36,18.15 138.41,18.14 138.46,18.20 138.52,18.50 138.57,18.56 138.63,18.57 138.68,18.52 138.73,18.52 138.79,18.55 138.84,18.45 138.89,18.47 138.95,18.65 139.00,19.14 139.05,19.61 139.11,20.17 139.16,20.18 139.21,20.27 139.27,20.37 139.32,20.44 139.37,20.49 139.43,20.52 139.48,20.51 139.54,20.45 139.59,20.49 139.64,20.62 139.70,20.79 139.75,20.89 139.80,21.19 139.86,21.25 139.91,21.32 139.96,21.41 140.02,21.43 140.07,21.50 140.12,21.52 140.18,21.75 140.23,21.78 140.28,21.93 140.34,21.97 140.39,22.05 140.45,22.13 140.50,22.15 140.55,22.17 140.61,22.15 140.66,22.13 140.71,22.12 140.77,22.16 140.82,22.18 140.87,22.27 140.93,22.34 140.98,22.40 141.03,22.45 141.09,22.49 141.14,22.58 141.19,22.64 141.25,22.67 141.30,22.59 141.36,22.53 141.41,22.44 141.46,22.34 141.52,22.22 141.57,21.98 141.62,21.64 141.68,21.55 141.73,21.57 141.78,21.70 141.84,21.85 141.89,21.96 141.94,21.83 142.00,21.76 142.05,21.86 142.10,21.99 142.16,22.32 142.21,22.78 142.27,23.32 142.32,24.03 142.37,24.24 142.43,23.74 142.48,23.44 142.53,23.46 142.59,23.32 142.64,23.34 142.69,23.26 142.75,22.99 142.80,22.64 142.85,22.28 142.91,22.13 142.96,22.13 143.01,22.12 143.07,22.32 143.12,22.76 143.18,22.90 143.23,22.29 143.28,21.83 143.34,22.09 143.39,22.58 143.44,22.52 143.50,22.67 143.55,23.27 143.60,24.60 143.66,24.97 143.71,25.81 143.76,25.83 143.82,25.51 143.87,25.12 143.92,25.16 143.98,25.41 144.03,25.37 144.09,25.27 144.14,24.79 144.19,24.45 144.25,24.19 144.30,23.87 144.35,23.91 144.41,23.86 144.46,23.72 144.51,23.59 144.57,23.60 144.62,23.57 144.67,23.62 144.73,23.64 144.78,24.03 144.83,24.63 144.89,24.93 144.94,24.53 145.00,24.53 145.05,24.59 145.10,24.85 145.16,25.45 145.21,25.21 145.26,24.51 145.32,24.11 145.37,23.83 145.42,23.95 145.48,24.08 145.53,24.14 145.58,24.14 145.64,23.88 145.69,23.85 145.74,23.74 145.80,23.78 145.85,23.75 145.91,23.75 145.96,23.73 146.01,24.11 146.07,24.59 146.12,25.00 146.17,24.74 146.23,24.38 146.28,24.49 146.33,25.03 146.39,25.36 146.44,25.46 146.49,25.11 146.55,24.44 146.60,24.01 146.65,23.74 146.71,23.75 146.76,23.73 146.82,23.61 146.87,23.61 146.92,23.62 146.98,23.54 147.03,23.51 147.08,23.57 147.14,23.49 147.19,23.50 147.24,23.69 147.30,23.79 147.35,23.83 147.40,23.76 147.46,23.23 147.51,22.66 147.56,22.48 147.62,22.34 147.67,22.26 147.73,22.25 147.78,21.99 147.83,21.77 147.89,21.31 147.94,21.03 147.99,20.94 148.05,21.20 148.10,20.97 148.15,21.01 148.21,20.86 148.26,20.77 148.31,21.07 148.37,21.11 148.42,21.46 148.47,21.34 148.53,20.89 148.58,20.68 148.64,20.55 148.69,20.56 148.74,20.80 148.80,20.39 148.85,20.19 148.90,20.11 148.96,19.99 149.01,19.97 149.06,19.88 149.12,19.68 149.17,19.77 149.22,19.76 149.28,19.48 149.33,19.30 149.38,18.91 149.44,18.60 149.49,18.43 149.55,18.39 149.60,18.52 149.65,18.85 149.71,19.02 149.76,18.97 149.81,19.02 149.87,18.91 149.92,19.06 149.97,18.98 150.03,55.58 150.08,55.55 150.13,55.70 150.19,55.82 150.24,55.88 150.29,55.89 150.35,55.93 150.40,55.97 150.45,55.95 150.51,55.93 150.56,55.92 150.62,55.90 150.67,55.90 150.72,55.94 150.78,55.87 150.83,55.86 150.88,55.73 150.94,55.57 150.99,55.38 151.04,55.06 151.10,54.86 151.15,54.86 151.20,54.50 151.26,54.17 151.31,54.03 151.36,53.89 151.42,53.74 151.47,53.84 151.53,53.52 151.58,53.43 151.63,53.62 151.69,53.08 151.74,53.24 151.79,52.78 151.85,52.26 151.90,52.45 151.95,52.12 152.01,51.96 152.06,51.75 152.11,51.88 152.17,51.85 152.22,51.65 152.27,51.66 152.33,51.49 152.38,51.62 152.44,51.44 152.49,51.12 152.54,50.91 152.60,50.79 152.65,50.73 152.70,50.56 152.76,50.68 152.81,50.67 152.86,50.90 152.92,50.28 152.97,49.96 153.02,49.64 153.08,49.85 153.13,49.60 153.18,49.69 153.24,49.59 153.29,49.51 153.35,49.43 153.40,49.32 153.45,49.17 153.51,48.93 153.56,49.18 153.61,48.65 153.67,48.60 153.72,48.26 153.77,48.16 153.83,48.11 153.88,48.15 153.93,48.29 153.99,48.09 154.04,48.17 154.09,48.25 154.15,47.79 154.20,47.91 154.26,47.63 154.31,47.94 154.36,47.67 154.42,47.74 154.47,47.56 154.52,47.46 154.58,47.76 154.63,47.59 154.68,47.59 154.74,47.60 154.79,47.51 154.84,47.21 154.90,47.30 154.95,47.12 155.00,47.00 155.06,47.04 155.11,46.66 155.17,46.42 155.22,46.34 155.27,46.30 155.33,45.86 155.38,45.84 155.43,45.51 155.49,45.87 155.54,45.87 155.59,46.06 155.65,46.09 155.70,45.91 155.75,45.87 155.81,45.89 155.86,46.06 155.91,46.05 155.97,45.98 156.02,46.17 156.08,46.29 156.13,46.24 156.18,46.16 156.24,46.02 156.29,45.88 156.34,45.74 156.40,45.56 156.45,45.44 156.50,45.99 156.56,45.43 156.61,45.47 156.66,45.50 156.72,45.75 156.77,45.64 156.82,45.37 156.88,45.10 156.93,44.90 156.99,45.19 157.04,44.83 157.09,44.63 157.15,44.63 157.20,44.60 157.25,44.59 157.31,43.94 157.36,44.12 157.41,44.42 157.47,44.63 157.52,44.83 157.57,44.43 157.63,44.65 157.68,44.83 157.73,44.56 157.79,44.82 157.84,44.88 157.90,44.74 157.95,45.01 158.00,45.30 158.06,44.72 158.11,44.77 158.16,44.78 158.22,44.75 158.27,44.69 158.32,44.40 158.38,44.46 158.43,44.48 158.48,44.18 158.54,44.18 158.59,43.93 158.64,43.75 158.70,43.45 158.75,43.41 158.81,43.16 158.86,43.41 158.91,43.30 158.97,43.07 159.02,42.95 159.07,42.64 159.13,42.71 159.18,42.47 159.23,42.31 159.29,42.68 159.34,42.25 159.39,42.18 159.45,42.50 159.50,42.16 159.55,42.27 159.61,41.92 159.66,42.09 159.72,41.94 159.77,42.36 159.82,42.25 159.88,41.96 159.93,42.20 159.98,41.75 160.04,41.69 160.09,41.18 160.14,41.36 160.20,41.02 160.25,41.66 160.30,41.92 160.36,42.58 160.41,42.45 160.46,42.19 160.52,42.19 160.57,41.88 160.63,41.74 160.68,41.27 160.73,41.56 160.79,41.30 160.84,41.80 160.89,41.61 160.95,41.48 161.00,41.31 161.05,40.88 161.11,40.96 161.16,41.08 161.21,40.84 161.27,40.42 161.32,40.23 161.37,40.75 161.43,40.74 161.48,41.01 161.54,40.70 161.59,40.67 161.64,40.73 161.70,40.38 161.75,40.42 161.80,39.98 161.86,40.17 161.91,40.26 161.96,40.17 162.02,39.96 162.07,39.78 162.12,40.21 162.18,40.20 162.23,40.10 162.28,40.36 162.34,40.19 162.39,40.19 162.45,40.24 162.50,39.92 162.55,39.88 162.61,39.85 162.66,39.99 162.71,39.84 162.77,39.68 162.82,39.46 162.87,39.52 162.93,39.65 162.98,39.85 163.03,39.56 163.09,39.43 163.14,39.47 163.19,39.55 163.25,39.29 163.30,39.22 163.36,39.20 163.41,39.04 163.46,38.96 163.52,38.91 163.57,38.60 163.62,38.58 163.68,38.55 163.73,38.49 163.78,38.06 163.84,38.01 163.89,38.05 163.94,37.83 164.00,38.02 164.05,37.74 164.10,38.25 164.16,38.15 164.21,37.63 164.27,37.25 164.32,36.80 164.37,36.96 164.43,37.11 164.48,36.39 164.53,36.31 164.59,36.02 164.64,36.01 164.69,36.11 164.75,36.20 164.80,36.17 164.85,35.93 164.91,36.17 164.96,35.69 165.01,35.28 165.07,35.39 165.12,35.61 165.18,35.38 165.23,35.43 165.28,35.19 165.34,35.20 165.39,35.09 165.44,35.00 165.50,35.08 165.55,34.92 165.60,35.18 165.66,35.28 165.71,35.07 165.76,35.26 165.82,34.73 165.87,34.38 165.92,34.23 165.98,34.23 166.03,33.98 166.09,33.63 166.14,34.04 166.19,33.95 166.25,34.00 166.30,34.19 166.35,34.31 166.41,33.92 166.46,33.90 166.51,33.52 166.57,33.95 166.62,33.81 166.67,33.94 166.73,33.70 166.78,33.31 166.83,32.91 166.89,33.09 166.94,33.01 167.00,33.02 167.05,33.11 167.10,33.06 167.16,32.88 167.21,32.77 167.26,32.70 167.32,32.62 167.37,32.55 167.42,32.52 167.48,32.46 167.53,32.66 167.58,32.26 167.64,32.40 167.69,32.60 167.74,32.06 167.80,32.11 167.85,31.98 167.91,31.45 167.96,31.53 168.01,31.24 168.07,31.82 168.12,31.49 168.17,31.87 168.23,31.44 168.28,32.11 168.33,31.72 168.39,31.85 168.44,31.87 168.49,31.97 168.55,31.87 168.60,32.11 168.65,31.77 168.71,31.78 168.76,31.52 168.82,31.65 168.87,31.64 168.92,31.03 168.98,30.57 169.03,30.77 169.08,31.19 169.14,31.19 169.19,30.74 169.24,30.62 169.30,30.66 169.35,30.40 169.40,30.62 169.46,30.22 169.51,30.17 169.56,30.26 169.62,30.06 169.67,30.00 169.73,29.99 169.78,29.75 169.83,29.52 169.89,29.34 169.94,29.22 169.99,29.11 170.05,28.91 170.10,28.83 170.15,28.76 170.21,28.76 170.26,28.81 170.31,28.86 170.37,28.88 170.42,28.43 170.47,28.44 170.53,28.10 170.58,28.18 170.64,27.84 170.69,27.75 170.74,27.64 170.80,27.80 170.85,27.50 170.90,27.24 170.96,27.20 171.01,27.06 171.06,27.16 171.12,27.09 171.17,27.13 171.22,27.05 171.28,27.01 171.33,26.99 171.38,26.91 171.44,26.78 171.49,26.63 171.55,26.43 171.60,26.22 171.65,25.96 171.71,25.85 171.76,25.70 171.81,25.28 171.87,25.18 171.92,25.42 171.97,25.18 172.03,25.41 172.08,25.21 172.13,25.15 172.19,24.64 172.24,24.61 172.29,24.58 172.35,24.55 172.40,24.09 172.46,24.13 172.51,24.16 172.56,24.16 172.62,24.10 172.67,23.98 172.72,23.79 172.78,23.49 172.83,23.44 172.88,23.92 172.94,23.42 172.99,23.41 173.04,23.36 173.10,23.31 173.15,23.27 173.20,23.09 173.26,22.85 173.31,23.15 173.37,22.99 173.42,22.58 173.47,22.70 173.53,22.83 173.58,22.54 173.63,22.29 173.69,22.40 173.74,22.24 173.79,22.12 173.85,22.02 173.90,21.77 173.95,21.71 174.01,21.49 174.06,21.50 174.11,21.11 174.17,20.88 174.22,20.73 174.28,20.58 174.33,20.82 174.38,20.71 174.44,20.30 174.49,20.30 174.54,20.47 174.60,20.07 174.65,20.12 174.70,19.76 174.76,19.94 174.81,19.55 174.86,19.39 174.92,19.25 174.97,19.25 175.02,19.04 175.08,18.73 175.13,18.82 175.19,18.75 175.24,18.40 175.29,18.24 175.35,18.78 175.40,18.66 175.45,17.97 175.51,17.96 175.56,18.02 175.61,17.70 175.67,17.43 175.72,17.49 175.77,17.25 175.83,17.00 175.88,17.09 175.93,16.89 175.99,16.60 176.04,16.80 176.10,16.53 176.15,16.38 176.20,16.29 176.26,16.21 176.31,16.07 176.36,15.73 176.42,15.23 176.47,15.10 176.52,14.37 176.58,14.63 176.63,14.32 176.68,14.06 176.74,14.20 176.79,14.06 176.84,13.95 176.90,13.73 176.95,13.98 177.01,13.70 177.06,13.49 177.11,13.36 177.17,13.27 177.22,13.20 177.27,13.16 177.33,13.16 177.38,13.18 177.43,13.00 177.49,12.88 177.54,12.82 177.59,12.71 177.65,12.59 177.70,12.44 177.75,12.39 177.81,12.39 177.86,12.20 177.92,11.79 177.97,11.82 178.02,11.32 178.08,11.36 178.13,11.35 178.18,11.27 178.24,11.13 178.29,10.99 178.34,11.08 178.40,10.73 178.45,10.73 178.50,10.60 178.56,10.75 178.61,10.96 178.66,10.89 178.72,10.99 178.77,11.00 178.83,11.22 178.88,11.10 178.93,10.99 178.99,10.88 179.04,10.73 179.09,10.88 179.15,10.53 179.20,10.51 179.25,10.50 179.31,10.53 179.36,10.47 179.41,10.54 179.47,10.48 179.52,10.48 179.57,10.55 179.63,10.38 179.68,10.43 179.74,10.40 179.79,10.24 179.84,10.28 179.90,10.40 179.95,10.22 180.00,10.06 180.06,9.92 180.11,9.78 180.16,9.49 180.22,9.35 180.27,9.64 180.32,9.53 180.38,9.44 180.43,9.35 180.48,9.49 180.54,9.27 180.59,9.10 180.65,9.06 180.70,9.14 180.75,8.79 180.81,8.92 180.86,8.71 180.91,8.90 180.97,8.65 181.02,8.41 181.07,8.49 181.13,8.24 181.18,8.22 181.23,8.16 181.29,8.15 181.34,8.18 181.39,7.81 181.45,7.84 181.50,7.64 181.56,7.64 181.61,7.52 181.66,7.42 181.72,7.16 181.77,7.04 181.82,6.88 181.88,6.88 181.93,6.65 181.98,6.55 182.04,6.54 182.09,6.38 182.14,6.29 182.20,6.32 182.25,6.20 182.30,6.07 182.36,6.11 182.41,5.95 182.47,6.05 182.52,5.89 182.57,5.79 182.63,5.72 182.68,5.94 182.73,5.73 182.79,5.66 182.84,5.62 182.89,5.59 182.95,5.56 183.00,5.71 183.05,5.65 183.11,5.65 183.16,5.65 183.21,5.65 183.27,5.78 183.32,5.73 183.38,5.67 183.43,5.58 183.48,5.59 183.54,5.49 183.59,5.40 183.64,5.34 183.70,5.29 183.75,5.25 183.80,5.24 183.86,5.27 183.91,5.31 183.96,5.35 184.02,5.39 184.07,5.42 184.12,5.57 184.18,5.64 184.23,5.50 184.29,5.53 184.34,5.56 184.39,5.31 184.45,5.26 184.50,5.15 184.55,5.05 184.61,5.19 184.66,5.07 184.71,4.94 184.77,5.05 184.82,4.90 184.87,4.75 184.93,4.87 184.98,4.76 185.03,4.89 185.09,4.81 185.14,4.93 185.20,4.96 185.25,4.81 185.30,4.84 185.36,4.89 185.41,4.79 185.46,4.89 185.52,4.81 185.57,4.99 185.62,4.93 185.68,4.66 185.73,4.61 185.78,4.55 185.84,4.53 185.89,4.42 185.94,4.46 186.00,4.44 186.05,4.38 186.11,4.25 186.16,4.24 186.21,4.06 186.27,4.08 186.32,4.32 186.37,4.42 186.43,4.34 186.48,4.61 186.53,4.63 186.59,4.63 186.64,4.50 186.69,4.47 186.75,4.46 186.80,4.55 186.85,4.53 186.91,4.52 186.96,4.59 187.02,4.55 187.07,4.57 187.12,4.56 187.18,4.51 187.23,4.43 187.28,4.35 187.34,4.53 187.39,4.50 187.44,4.48 187.50,4.48 187.55,4.48 187.60,4.36 187.66,4.40 187.71,4.31 187.76,4.32 187.82,4.20 187.87,4.20 187.93,4.21 187.98,4.21 188.03,4.25 188.09,4.13 188.14,4.09 188.19,4.16 188.25,4.13 188.30,4.28 188.35,4.28 188.41,4.26 188.46,4.45 188.51,4.42 188.57,4.39 188.62,4.63 188.67,4.64 188.73,4.64 188.78,4.64 188.84,4.95 188.89,4.95 188.94,5.05 189.00,5.14 189.05,4.96 189.10,5.07 189.16,5.13 189.21,5.14 189.26,5.02 189.32,5.39 189.37,5.52 189.42,5.33 189.48,5.48 189.53,5.76 189.58,5.71 189.64,5.68 189.69,5.67 189.75,6.08 189.80,6.14 189.85,6.23 189.91,6.23 189.96,6.19 190.01,6.10 190.07,6.34 190.12,6.26 190.17,6.44 190.23,6.61 190.28,6.55 190.33,6.67 190.39,6.79 190.44,6.72 190.49,6.77 190.55,6.87 190.60,6.98 190.66,7.03 190.71,7.05 190.76,7.07 190.82,7.09 190.87,7.13 190.92,6.98 190.98,6.98 191.03,6.95 191.08,7.08 191.14,7.02 191.19,7.03 191.24,7.27 191.30,7.09 191.35,7.22 191.40,7.44 191.46,7.44 191.51,7.64 191.57,7.80 191.62,7.66 191.67,7.84 191.73,7.70 191.78,7.63 191.83,7.88 191.89,7.83 191.94,7.83 191.99,7.80 192.05,8.05 192.10,7.93 192.15,8.06 192.21,7.94 192.26,7.86 192.31,8.30 192.37,8.17 192.42,7.94 192.48,7.99 192.53,7.82 192.58,7.69 192.64,7.92 192.69,7.78 192.74,8.01 192.80,7.85 192.85,8.14 192.90,8.03 192.96,8.44 193.01,8.82 193.06,8.67 193.12,9.00 193.17,8.84 193.22,9.07 193.28,9.43 193.33,9.31 193.39,9.67 193.44,9.60 193.49,9.90 193.55,9.67 193.60,9.78 193.65,9.57 193.71,9.76 193.76,9.66 193.81,10.21 193.87,10.13 193.92,10.46 193.97,10.75 194.03,10.47 194.08,10.73 194.13,10.44 194.19,10.48 194.24,10.49 194.30,10.29 194.35,10.40 194.40,10.86 194.46,10.78 194.51,11.41 194.56,11.63 194.62,11.24 194.67,11.25 194.72,11.00 194.78,11.25 194.83,11.12 194.88,11.06 194.94,11.45 194.99,11.09 195.04,10.81 195.10,10.85 195.15,10.65 195.21,10.95 195.26,10.74 195.31,11.08 195.37,10.83 195.42,11.15 195.47,10.97 195.53,11.41 195.58,11.41 195.63,11.66 195.69,11.37 195.74,11.53 195.79,11.48 195.85,11.43 195.90,11.94 195.95,11.81 196.01,11.74 196.06,12.27 196.12,12.45 196.17,13.04 196.22,13.24 196.28,13.18 196.33,12.87 196.38,13.08 196.44,13.09 196.49,13.15 196.54,12.92 196.60,12.73 196.65,12.57 196.70,12.47 196.76,13.05 196.81,13.05 196.86,13.43 196.92,13.85 196.97,13.62 197.03,13.97 197.08,13.81 197.13,14.08 197.19,14.03 197.24,14.30 197.29,14.53 197.35,14.68 197.40,14.78 197.45,14.94 197.51,15.07 197.56,15.08 197.61,15.18 197.67,15.28 197.72,15.19 197.77,15.31 197.83,15.14 197.88,15.28 197.94,15.33 197.99,15.39 198.04,15.45 198.10,15.50 198.15,15.00 198.20,14.94 198.26,14.41 198.31,14.46 198.36,14.44 198.42,14.78 198.47,15.13 198.52,14.99 198.58,14.83 198.63,15.18 198.68,14.78 198.74,14.88 198.79,14.95 198.85,14.98 198.90,15.01 198.95,15.05 199.01,14.76 199.06,14.89 199.11,15.03 199.17,15.19 199.22,15.43 199.27,15.53 199.33,16.20 199.38,16.19 199.43,16.04 199.49,16.26 199.54,15.83 199.59,15.44 199.65,15.41 199.70,15.41 199.76,15.44 199.81,15.94 199.86,15.99 199.92,15.99 199.97,16.02 200.02,16.09 200.08,16.32 200.13,16.43 200.18,16.54 200.24,16.63 200.29,16.17 200.34,16.23 200.40,16.24 200.45,16.21 200.50,16.20 200.56,16.24 200.61,16.32 200.67,16.39 200.72,16.03 200.77,16.12 200.83,16.23 200.88,16.37 200.93,16.53 200.99,16.75 201.04,17.13 201.09,17.13 201.15,16.69 201.20,16.56 201.25,16.56 201.31,16.35 201.36,16.49 201.41,16.67 201.47,16.70 201.52,16.70 201.58,16.77 201.63,17.08 201.68,17.38 201.74,17.65 201.79,17.47 201.84,18.02 201.90,18.10 201.95,18.11 202.00,18.00 202.06,17.88 202.11,18.49 202.16,18.64 202.22,18.65 202.27,18.74 202.32,18.08 202.38,18.13 202.43,18.24 202.49,18.32 202.54,17.65 202.59,17.67 202.65,17.68 202.70,17.78 202.75,17.24 202.81,17.36 202.86,17.37 202.91,17.28 202.97,17.17 203.02,16.30 203.07,16.28 203.13,16.32 203.18,16.34 203.23,16.48 203.29,15.77 203.34,15.89 203.40,15.31 203.45,14.72 203.50,14.72 203.56,14.23 203.61,13.73 203.66,13.65 203.72,13.55 203.77,13.41 203.82,13.48 203.88,13.86 203.93,14.25 203.98,14.39 204.04,14.48 204.09,14.55 204.14,14.63 204.20,14.76 204.25,14.82 204.31,14.90 204.36,14.58 204.41,14.14 204.47,14.06 204.52,14.31 204.57,14.36 204.63,14.19 204.68,14.38 204.73,14.78 204.79,14.65 204.84,14.48 204.89,14.16 204.95,14.26 205.00,14.26 205.05,14.60 205.11,14.79 205.16,14.52 205.22,14.51 205.27,14.79 205.32,14.57 205.38,14.69 205.43,14.57 205.48,14.54 205.54,14.58 205.59,14.40 205.64,14.19 205.70,14.04 205.75,13.87 205.80,13.79 205.86,13.73 205.91,14.37 205.96,14.47 206.02,14.37 206.07,14.85 206.13,15.31 206.18,15.39 206.23,15.70 206.29,15.89 206.34,16.04 206.39,16.21 206.45,16.45 206.50,16.43 206.55,16.75 206.61,17.09 206.66,17.45 206.71,17.84 206.77,18.24 206.82,18.58 206.87,18.36 206.93,18.64 206.98,18.86 207.04,19.07 207.09,19.26 207.14,19.37 207.20,19.01 207.25,19.24 207.30,19.47 207.36,19.70 207.41,19.70 207.46,19.88 207.52,19.61 207.57,19.81 207.62,19.99 207.68,20.12 207.73,19.82 207.78,19.96 207.84,20.13 207.89,20.13 207.95,20.42 208.00,20.55 208.05,20.79 208.11,20.98 208.16,21.15 208.21,21.40 208.27,21.66 208.32,21.66 208.37,21.36 208.43,21.15 208.48,20.98 208.53,20.93 208.59,20.99 208.64,21.14 208.69,21.28 208.75,21.31 208.80,21.72 208.85,21.56 208.91,21.45 208.96,21.67 209.02,21.27 209.07,20.73 209.12,20.25 209.18,20.32 209.23,19.94 209.28,19.65 209.34,19.70 209.39,19.61 209.44,19.92 209.50,19.86 209.55,20.02 209.60,19.52 209.66,19.07 209.71,18.76 209.76,18.97 209.82,18.97 209.87,19.44 209.93,19.49 209.98,19.47 210.03,19.50 210.09,19.39 210.14,19.66 210.19,19.97 210.25,20.28 210.30,20.16 210.35,20.35 210.41,20.61 210.46,20.35 210.51,20.60 210.57,20.74 210.62,20.75 210.67,20.27 210.73,20.39 210.78,20.01 210.84,20.19 210.89,19.81 210.94,19.41 211.00,19.09 211.05,18.94 211.10,18.79 211.16,18.79 211.21,18.69 211.26,18.44 211.32,18.45 211.37,18.07 211.42,18.33 211.48,18.26 211.53,18.70 211.58,18.60 211.64,18.47 211.69,18.71 211.75,18.60 211.80,18.52 211.85,18.43 211.91,18.73 211.96,18.76 212.01,19.45 212.07,19.45 212.12,19.98 212.17,20.19 212.23,20.31 212.28,20.44 212.33,20.58 212.39,20.47 212.44,20.60 212.49,20.50 212.55,20.65 212.60,20.48 212.66,20.67 212.71,20.76 212.76,20.91 212.82,21.17 212.87,21.23 212.92,21.42 212.98,21.26 213.03,21.44 213.08,21.44 213.14,21.54 213.19,21.75 213.24,21.84 213.30,22.05 213.35,21.95 213.40,22.05 213.46,22.17 213.51,22.19 213.57,22.18 213.62,22.18 213.67,22.15 213.73,22.12 213.78,22.16 213.83,22.25 213.89,22.41 213.94,22.32 213.99,22.35 214.05,22.47 214.10,22.56 214.15,22.65 214.21,22.71 214.26,22.69 214.31,22.62 214.37,22.47 214.42,22.49 214.48,22.31 214.53,22.08 214.58,22.08 214.64,21.69 214.69,21.57 214.74,21.55 214.80,21.65 214.85,22.00 214.90,21.81 214.96,21.80 215.01,21.75 215.06,22.06 215.12,22.14 215.17,22.52 215.22,22.86 215.28,23.45 215.33,23.98 215.39,24.31 215.44,23.60 215.49,23.45 215.55,23.46 215.60,23.28 215.65,23.28 215.71,23.19 215.76,23.02 215.81,22.67 215.87,22.41 215.92,21.97 215.97,22.11 216.03,22.00 216.08,22.66 216.13,22.91 216.19,22.72 216.24,22.13 216.30,22.01 216.35,22.14 216.40,22.68 216.46,22.68 216.51,22.70 216.56,23.43 216.62,24.50 216.67,24.97 216.72,25.58 216.78,25.65 216.83,25.61 216.88,25.39 216.94,25.34 216.99,25.36 217.04,25.37 217.10,25.37 217.15,24.86 217.21,24.57 217.26,24.35 217.31,23.73 217.37,23.72 217.42,23.85 217.47,23.69 217.53,23.47 217.58,23.73 217.63,23.66 217.69,23.64 217.74,23.64 217.79,23.72 217.85,24.19 217.90,24.93 217.95,24.40 218.01,24.67 218.06,24.56 218.12,24.59 218.17,25.32 218.22,25.07 218.28,24.43 218.33,24.30 218.38,23.96 218.44,23.88 218.49,24.01 218.54,24.26 218.60,24.25 218.65,23.89 218.70,24.04 218.76,23.81 218.81,24.03 218.86,23.67 218.92,23.88 218.97,23.60 219.03,23.84 219.08,24.17 219.13,25.09 219.19,24.81 219.24,24.46 219.29,24.73 219.35,24.73 219.40,25.56 219.45,25.55 219.51,25.26 219.56,24.68 219.61,24.20 219.67,23.97 219.72,23.81 219.77,23.78 219.83,23.82 219.88,23.97 219.94,23.48 219.99,23.61 220.04,23.74 220.10,23.24 220.15,23.41 220.20,23.60 220.26,23.48 220.31,23.79 220.36,23.93 220.42,23.74 220.47,23.34 220.52,22.86 220.58,22.61 220.63,22.33 220.68,22.47 220.74,22.30 220.79,21.91 220.85,21.68 220.90,21.48 220.95,20.96 221.01,20.95 221.06,21.08 221.11,20.69 221.17,21.02 221.22,21.12 221.27,20.61 221.33,20.76 221.38,20.80 221.43,21.40 221.49,21.39 221.54,20.96 221.59,20.62 221.65,20.66 221.70,20.50 221.76,20.92 221.81,20.57 221.86,20.33 221.92,20.28 221.97,20.07 222.02,20.11 222.08,19.94 222.13,19.69 222.18,19.63 222.24,19.62 222.29,19.63 222.34,19.26 222.40,18.91 222.45,18.58 222.50,18.44 222.56,18.36 222.61,18.36 222.67,18.95 222.72,18.92 222.77,18.80 222.83,18.80 222.88,19.10 222.93,18.86 222.99,19.01 223.04,54.67 223.09,54.67 223.15,55.55 223.20,55.55 223.25,55.55 223.31,55.82 223.36,55.82 223.41,55.82 223.47,55.93 223.52,55.93 223.58,55.93 223.63,55.93 223.68,55.93 223.74,55.93 223.79,55.89 223.84,55.89 223.90,55.89 223.95,55.63 224.00,55.63 224.06,55.63 224.11,55.25 224.16,55.25 224.22,54.70 224.27,54.70 224.32,54.79 224.38,54.79 224.43,54.79 224.49,54.18 224.54,54.18 224.59,54.18 224.65,54.74 224.70,53.26 224.75,53.26 224.81,53.69 224.86,53.69 224.91,53.69 224.97,52.40 225.02,52.40 225.07,52.40 225.13,52.36 225.18,52.36 225.23,52.36 225.29,51.94 225.34,51.94 225.40,51.94 225.45,51.70 225.50,51.70 225.56,51.12 225.61,51.12 225.66,51.12 225.72,51.34 225.77,51.34 225.82,50.63 225.88,50.92 225.93,50.92 225.98,50.92 226.04,49.60 226.09,50.65 226.14,50.65 226.20,50.65 226.25,50.11 226.31,50.11 226.36,50.11 226.41,49.69 226.47,49.69 226.52,49.69 226.57,49.69 226.63,48.30 226.68,48.30 226.73,48.08 226.79,48.08 226.84,48.08 226.89,48.49 226.95,48.49 227.00,48.49 227.05,49.12 227.11,49.12 227.16,49.43 227.22,49.43 227.27,47.75 227.32,48.80 227.38,48.80 227.43,48.80 227.48,48.06 227.54,48.06 227.59,48.06 227.64,47.53 227.70,47.53 227.75,48.68 227.80,48.68 227.86,47.66 227.91,47.66 227.96,47.66 228.02,47.15 228.07,47.15 228.13,47.15 228.18,47.15 228.23,46.40 228.29,46.40 228.34,46.40 228.39,44.79 228.45,44.79 228.50,46.45 228.55,46.45 228.61,45.58 228.66,45.58 228.71,45.58 228.77,45.82 228.82,45.82 228.87,45.82 228.93,46.18 228.98,46.18 229.04,46.52 229.09,46.52 229.14,46.52 229.20,45.91 229.25,45.91 229.30,45.91 229.36,46.63 229.41,46.63 229.46,46.63 229.52,46.38 229.57,46.38 229.62,46.38 229.68,46.53 229.73,46.53 229.78,45.78 229.84,45.78 229.89,45.78 229.95,44.64 230.00,44.64 230.05,44.64 230.11,43.32 230.16,43.32 230.21,43.32 230.27,43.38 230.32,43.38 230.37,43.38 230.43,44.13 230.48,44.13 230.53,44.13 230.59,44.98 230.64,44.98 230.69,44.98 230.75,44.42 230.80,46.13 230.86,46.13 230.91,45.02 230.96,45.02 231.02,45.57 231.07,45.57 231.12,45.57 231.18,45.47 231.23,45.47 231.28,45.47 231.34,45.51 231.39,44.93 231.44,44.93 231.50,44.93 231.55,44.93 231.60,44.04 231.66,44.04 231.71,44.04 231.77,42.98 231.82,42.98 231.87,43.95 231.93,43.22 231.98,43.22 232.03,43.22 232.09,42.49 232.14,42.49 232.19,42.72 232.25,42.72 232.30,43.13 232.35,43.13 232.41,41.85 232.46,41.85 232.51,42.78 232.57,42.78 232.62,42.78 232.68,43.40 232.73,41.54 232.78,41.54 232.84,42.73 232.89,42.73 232.94,42.73 233.00,41.06 233.05,42.12 233.10,42.12 233.16,40.90 233.21,40.90 233.26,40.90 233.32,42.55 233.37,42.55 233.42,42.97 233.48,42.97 233.53,42.97 233.59,42.97 233.64,43.10 233.69,43.10 233.75,43.10 233.80,42.04 233.85,42.04 233.91,42.04 233.96,41.53 234.01,41.53 234.07,41.49 234.12,41.49 234.17,41.49 234.23,41.86 234.28,40.35 234.33,40.35 234.39,40.35 234.44,41.47 234.50,41.47 234.55,40.18 234.60,40.54 234.66,41.54 234.71,41.54 234.76,41.54 234.82,40.00 234.87,40.06 234.92,40.06 234.98,40.06 235.03,39.77 235.08,39.77 235.14,41.53 235.19,40.92 235.24,40.92 235.30,40.92 235.35,39.98 235.41,39.98 235.46,39.98 235.51,39.98 235.57,39.99 235.62,39.99 235.67,39.99 235.73,39.99 235.78,39.85 235.83,39.85 235.89,39.42 235.94,39.42 235.99,39.58 236.05,39.58 236.10,39.58 236.15,39.76 236.21,39.76 236.26,39.76 236.32,39.62 236.37,39.62 236.42,39.62 236.48,39.62 236.53,39.77 236.58,38.84 236.64,38.84 236.69,38.60 236.74,38.60 236.80,38.60 236.85,38.46 236.90,38.46 236.96,38.46 237.01,38.84 237.06,37.61 237.12,38.84 237.17,38.84 237.23,38.09 237.28,38.09 237.33,38.09 237.39,38.71 237.44,38.71 237.49,36.30 237.55,36.08 237.60,36.08 237.65,36.21 237.71,36.21 237.76,36.21 237.81,35.59 237.87,35.59 237.92,37.27 237.97,36.00 238.03,36.00 238.08,36.54 238.14,36.54 238.19,35.81 238.24,35.81 238.30,36.60 238.35,36.60 238.40,36.60 238.46,37.04 238.51,37.04 238.56,34.92 238.62,34.99 238.67,34.99 238.72,34.99 238.78,36.33 238.83,36.33 238.88,36.33 238.94,35.95 238.99,35.95 239.05,34.69 239.10,34.69 239.15,34.69 239.21,34.59 239.26,34.59 239.31,34.59 239.37,35.98 239.42,34.93 239.47,34.93 239.53,34.93 239.58,34.93 239.63,33.60 239.69,33.60 239.74,33.60 239.79,32.70 239.85,32.70 239.90,34.14 239.96,33.85 240.01,33.85 240.06,33.85 240.12,33.83 240.17,33.83 240.22,33.83 240.28,33.72 240.33,33.72 240.38,33.72 240.44,33.62 240.49,33.62 240.54,33.62 240.60,32.41 240.65,32.41 240.70,32.59 240.76,32.59 240.81,32.59 240.87,31.51 240.92,31.51 240.97,32.61 241.03,32.61 241.08,32.61 241.13,31.43 241.19,31.43 241.24,31.43 241.29,33.79 241.35,32.50 241.40,32.50 241.45,32.58 241.51,32.58 241.56,32.58 241.61,33.42 241.67,32.41 241.72,32.41 241.78,32.41 241.83,32.41 241.88,32.23 241.94,32.23 241.99,31.30 242.04,31.30 242.10,31.30 242.15,31.30 242.20,30.73 242.26,30.73 242.31,31.18 242.36,31.18 242.42,31.18 242.47,31.18 242.52,31.12 242.58,31.12 242.63,31.12 242.69,29.91 242.74,29.61 242.79,29.61 242.85,29.61 242.90,29.19 242.95,29.19 243.01,29.19 243.06,29.00 243.11,29.00 243.17,29.47 243.22,29.47 243.27,29.59 243.33,29.59 243.38,29.59 243.43,28.53 243.49,28.53 243.54,28.53 243.60,28.53 243.65,28.66 243.70,28.66 243.76,28.66 243.81,28.17 243.86,28.17 243.92,28.17 243.97,27.27 244.02,27.27 244.08,27.83 244.13,27.83 244.18,27.83 244.24,27.27 244.29,27.27 244.34,27.27 244.40,27.03 244.45,27.03 244.51,26.40 244.56,26.40 244.61,26.40 244.67,25.54 244.72,26.04 244.77,26.04 244.83,24.96 244.88,24.96 244.93,26.18 244.99,26.18 245.04,25.75 245.09,25.75 245.15,25.63 245.20,25.63 245.25,25.63 245.31,25.68 245.36,25.68 245.42,24.06 245.47,24.16 245.52,24.16 245.58,24.01 245.63,24.01 245.68,24.01 245.74,23.56 245.79,23.56 245.84,23.46 245.90,25.36 245.95,23.46 246.00,23.36 246.06,23.36 246.11,23.08 246.16,23.08 246.22,23.08 246.27,22.66 246.33,24.27 246.38,24.27 246.43,22.82 246.49,22.82 246.54,23.18 246.59,23.18 246.65,23.18 246.70,23.18 246.75,22.27 246.81,22.27 246.86,22.27 246.91,21.84 246.97,21.84 247.02,21.84 247.07,21.87 247.13,20.92 247.18,20.54 247.24,20.54 247.29,20.54 247.34,21.38 247.40,21.38 247.45,20.27 247.50,20.42 247.56,20.42 247.61,20.62 247.66,20.62 247.72,20.62 247.77,21.08 247.82,20.15 247.88,20.15 247.93,20.15 247.98,20.15 248.04,19.35 248.09,19.35 248.15,19.35 248.20,19.16 248.25,19.16 248.31,18.76 248.36,18.76 248.41,18.76 248.47,18.68 248.52,18.68 248.57,18.68 248.63,19.10 248.68,17.55 248.73,17.55 248.79,18.01 248.84,18.01 248.89,18.01 248.95,17.47 249.00,17.47 249.06,17.47 249.11,17.47 249.16,16.41 249.22,16.41 249.27,16.41 249.32,15.77 249.38,15.77 249.43,15.77 249.48,15.01 249.54,14.12 249.59,15.01 249.64,14.47 249.70,14.47 249.75,14.47 249.80,14.27 249.86,14.27 249.91,13.73 249.97,13.73 250.02,13.73 250.07,13.27 250.13,13.27 250.18,13.27 250.23,13.17 250.29,13.17 250.34,13.23 250.39,13.23 250.45,13.23 250.50,13.23 250.55,13.11 250.61,13.11 250.66,13.11 250.71,12.78 250.77,12.78 250.82,12.78 250.88,12.78 250.93,11.89 250.98,11.89 251.04,11.89 251.09,11.76 251.14,11.76 251.20,10.92 251.25,10.92 251.30,10.92 251.36,11.21 251.41,10.70 251.46,10.70 251.52,10.70 251.57,11.41 251.62,11.31 251.68,11.31 251.73,11.31 251.79,11.01 251.84,11.61 251.89,11.61 251.95,11.34 252.00,11.34 252.05,11.34 252.11,11.34 252.16,10.48 252.21,10.57 252.27,10.57 252.32,10.57 252.37,10.87 252.43,10.87 252.48,11.21 252.53,11.21 252.59,10.81 252.64,10.81 252.70,10.81 252.75,10.48 252.80,10.48 252.86,10.48 252.91,9.94 252.96,9.94 253.02,9.94 253.07,9.45 253.12,9.45 253.18,9.10 253.23,9.10 253.28,9.89 253.34,9.53 253.39,9.53 253.44,9.53 253.50,9.19 253.55,9.19 253.61,9.19 253.66,9.47 253.71,9.47 253.77,9.47 253.82,9.47 253.87,9.09 253.93,9.09 253.98,9.09 254.03,9.48 254.09,9.48 254.14,8.43 254.19,8.43 254.25,8.43 254.30,8.17 254.35,8.17 254.41,8.17 254.46,8.23 254.52,8.23 254.57,8.23 254.62,7.23 254.68,7.62 254.73,7.62 254.78,6.83 254.84,6.83 254.89,6.83 254.94,7.02 255.00,7.02 255.05,7.02 255.10,6.49 255.16,6.49 255.21,6.47 255.26,6.47 255.32,6.06 255.37,6.06 255.43,6.06 255.48,6.70 255.53,6.70 255.59,6.70 255.64,6.26 255.69,6.26 255.75,5.91 255.80,5.91 255.85,5.91 255.91,5.74 255.96,5.74 256.01,5.74 256.07,5.70 256.12,5.70 256.17,5.65 256.23,5.65 256.28,6.20 256.34,6.07 256.39,6.07 256.44,6.07 256.50,5.76 256.55,5.76 256.60,5.49 256.66,5.49 256.71,5.49 256.76,5.44 256.82,5.44 256.87,5.48 256.92,5.48 256.98,5.48 257.03,5.60 257.08,5.60 257.14,5.86 257.19,5.86 257.25,5.86 257.30,6.09 257.35,6.09 257.41,5.31 257.46,5.16 257.51,5.16 257.57,4.86 257.62,5.78 257.67,5.78 257.73,5.19 257.78,5.19 257.83,5.19 257.89,4.76 257.94,4.76 257.99,4.76 258.05,5.14 258.10,5.14 258.16,5.14 258.21,4.66 258.26,4.66 258.32,5.34 258.37,4.92 258.42,4.92 258.48,4.92 258.53,4.72 258.58,5.45 258.64,5.45 258.69,4.58 258.74,4.58 258.80,4.58 258.85,4.58 258.90,4.58 258.96,4.52 259.01,4.52 259.07,4.52 259.12,4.17 259.17,4.17 259.23,4.17 259.28,4.44 259.33,4.44 259.39,4.44 259.44,4.44 259.49,5.37 259.55,5.37 259.60,5.37 259.65,5.18 259.71,5.18 259.76,4.70 259.81,4.70 259.87,4.70 259.92,5.08 259.98,5.08 260.03,4.55 260.08,4.52 260.14,4.52 260.19,4.52 260.24,4.36 260.30,4.36 260.35,5.27 260.40,5.13 260.46,5.13 260.51,5.00 260.56,5.00 260.62,4.38 260.67,4.51 260.72,4.51 260.78,4.51 260.83,4.50 260.89,4.50 260.94,4.50 260.99,4.24 261.05,4.24 261.10,4.24 261.15,4.00 261.21,4.54 261.26,4.54 261.31,4.48 261.37,4.48 261.42,4.48 261.47,4.42 261.53,4.42 261.58,4.35 261.63,5.35 261.69,5.35 261.74,5.37 261.80,5.37 261.85,5.37 261.90,5.45 261.96,5.45 262.01,5.74 262.06,5.74 262.12,5.74 262.17,5.79 262.22,5.79 262.28,5.34 262.33,5.34 262.38,5.34 262.44,5.34 262.49,6.15 262.54,6.15 262.60,6.15 262.65,6.14 262.71,6.14 262.76,6.14 262.81,6.21 262.87,6.21 262.92,6.11 262.97,6.11 263.03,6.11 263.08,6.67 263.13,6.67 263.19,6.67 263.24,6.48 263.29,6.48 263.35,6.82 263.40,6.82 263.45,6.77 263.51,6.77 263.56,7.02 263.62,7.02 263.67,7.02 263.72,7.10 263.78,7.10 263.83,7.10 263.88,7.34 263.94,7.34 263.99,7.34 264.04,7.34 264.10,7.84 264.15,7.26 264.20,7.26 264.26,8.11 264.31,8.11 264.36,7.61 264.42,7.61 264.47,7.61 264.53,8.68 264.58,8.14 264.63,8.14 264.69,8.14 264.74,7.74 264.79,7.74 264.85,8.76 264.90,8.76 264.95,8.76 265.01,8.46 265.06,8.46 265.11,8.46 265.17,8.10 265.22,8.10 265.27,8.10 265.33,9.02 265.38,9.02 265.44,8.54 265.49,8.54 265.54,8.54 265.60,8.08 265.65,8.08 265.70,8.08 265.76,8.94 265.81,8.94 265.86,8.94 265.92,8.58 265.97,8.58 266.02,9.96 266.08,9.50 266.13,9.50 266.18,9.50 266.24,9.06 266.29,10.28 266.35,10.28 266.40,10.28 266.45,9.99 266.51,9.99 266.56,9.99 266.61,10.50 266.67,10.50 266.72,10.50 266.77,10.26 266.83,10.26 266.88,10.26 266.93,11.42 266.99,11.42 267.04,11.42 267.09,10.67 267.15,10.67 267.20,11.70 267.25,10.92 267.31,10.92 267.36,10.92 267.42,12.24 267.47,11.94 267.52,11.94 267.58,11.94 267.63,11.24 267.68,12.49 267.74,12.49 267.79,11.87 267.84,11.87 267.90,11.87 267.95,11.38 268.00,11.38 268.06,11.38 268.11,12.20 268.16,12.20 268.22,11.54 268.27,11.54 268.33,11.54 268.38,10.87 268.43,12.42 268.49,12.42 268.54,11.86 268.59,11.86 268.65,11.86 268.70,11.86 268.75,12.78 268.81,12.78 268.86,12.57 268.91,12.57 268.97,12.57 269.02,12.29 269.07,12.29 269.13,12.29 269.18,13.38 269.24,13.38 269.29,13.38 269.34,13.38 269.40,13.96 269.45,13.34 269.50,13.34 269.56,13.34 269.61,12.81 269.66,12.81 269.72,12.81 269.77,14.06 269.82,14.06 269.88,14.06 269.93,13.79 269.98,13.79 270.04,14.96 270.09,14.49 270.15,14.49 270.20,14.49 270.25,14.30 270.31,14.59 270.36,14.59 270.41,14.95 270.47,14.95 270.52,14.95 270.57,14.77 270.63,14.77 270.68,14.77 270.73,15.09 270.79,15.09 270.84,15.09 270.89,15.26 270.95,15.26 271.00,15.41 271.06,15.41 271.11,15.41 271.16,14.16 271.22,14.16 271.27,14.16 271.32,14.71 271.38,14.71 271.43,14.71 271.48,14.96 271.54,14.96 271.59,14.85 271.64,14.85 271.70,14.85 271.75,15.02 271.80,15.02 271.86,15.02 271.91,15.14 271.97,15.14 272.02,14.45 272.07,14.45 272.13,14.45 272.18,14.72 272.23,14.72 272.29,14.81 272.34,16.12 272.39,16.12 272.45,15.48 272.50,15.48 272.55,15.48 272.61,14.89 272.66,14.89 272.71,14.92 272.77,14.92 272.82,15.99 272.88,16.10 272.93,16.10 272.98,16.10 273.04,16.34 273.09,16.34 273.14,16.64 273.20,16.64 273.25,16.64 273.30,15.43 273.36,15.43 273.41,15.52 273.46,15.52 273.52,15.52 273.57,15.69 273.62,15.69 273.68,15.95 273.73,15.95 273.79,15.95 273.84,16.41 273.89,16.41 273.95,16.41 274.00,16.97 274.05,16.97 274.11,16.97 274.16,16.73 274.21,16.73 274.27,16.73 274.32,17.29 274.37,17.29 274.43,17.29 274.48,17.46 274.53,17.46 274.59,17.46 274.64,17.46 274.70,18.36 274.75,18.36 274.80,18.36 274.86,18.57 274.91,18.57 274.96,18.57 275.02,18.34 275.07,18.34 275.12,18.34 275.18,17.35 275.23,17.35 275.28,17.35 275.34,17.54 275.39,17.54 275.44,17.54 275.50,17.67 275.55,17.67 275.61,17.86 275.66,17.86 275.71,17.86 275.77,15.74 275.82,15.74 275.87,15.74 275.93,15.63 275.98,15.63 276.03,15.58 276.09,15.58 276.14,15.58 276.19,15.74 276.25,15.74 276.30,16.04 276.35,16.04 276.41,14.44 276.46,14.44 276.52,14.44 276.57,14.44 276.62,14.41 276.68,13.92 276.73,13.92 276.78,13.92 276.84,13.92 276.89,14.04 276.94,14.04 277.00,14.04 277.05,14.19 277.10,14.19 277.16,14.19 277.21,14.37 277.26,14.37 277.32,14.74 277.37,14.74 277.43,13.88 277.48,13.88 277.53,14.68 277.59,14.68 277.64,14.22 277.69,14.22 277.75,15.07 277.80,15.07 277.85,14.11 277.91,14.11 277.96,14.90 278.01,14.90 278.07,14.50 278.12,14.50 278.17,14.50 278.23,14.73 278.28,14.73 278.34,14.73 278.39,14.73 278.44,14.62 278.50,14.62 278.55,14.62 278.60,14.62 278.66,14.62 278.71,14.14 278.76,14.14 278.82,13.87 278.87,13.87 278.92,15.42 278.98,15.40 279.03,15.40 279.08,15.40 279.14,15.40 279.19,16.58 279.25,16.58 279.30,16.58 279.35,17.33 279.41,17.33 279.46,17.33 279.51,17.11 279.57,17.11 279.62,17.11 279.67,18.22 279.73,18.22 279.78,18.22 279.83,19.18 279.89,19.18 279.94,19.18 279.99,19.86 280.05,19.86 280.10,19.86 280.16,20.20 280.21,20.20 280.26,20.20 280.32,20.81 280.37,20.81 280.42,20.81 280.48,20.81 280.53,20.00 280.58,20.00 280.64,20.00 280.69,20.36 280.74,20.36 280.80,20.36 280.85,20.92 280.90,20.92 280.96,20.92 281.01,21.02 281.07,21.02 281.12,21.02 281.17,21.52 281.23,21.52 281.28,21.52 281.33,21.52 281.39,21.35 281.44,21.35 281.49,21.35 281.55,21.50 281.60,21.50 281.65,21.50 281.71,21.62 281.76,21.62 281.81,21.62 281.87,20.82 281.92,21.18 281.98,21.18 282.03,21.18 282.08,19.85 282.14,20.16 282.19,20.16 282.24,20.16 282.30,19.65 282.35,19.65 282.40,19.65 282.46,19.53 282.51,19.53 282.56,19.53 282.62,19.53 282.67,18.61 282.72,19.35 282.78,19.35 282.83,19.35 282.89,19.12 282.94,19.12 282.99,19.73 283.05,19.73 283.10,19.12 283.15,19.86 283.21,19.86 283.26,19.86 283.31,20.51 283.37,20.51 283.42,20.51 283.47,19.50 283.53,19.50 283.58,19.77 283.63,19.77 283.69,19.77 283.74,20.20 283.80,20.20 283.85,20.20 283.90,19.58 283.96,19.58 284.01,19.58 284.06,19.62 284.12,18.96 284.17,18.96 284.22,18.96 284.28,18.96 284.33,19.21 284.38,19.21 284.44,18.84 284.49,18.84 284.54,18.84 284.60,18.58 284.65,18.58 284.71,19.78 284.76,19.41 284.81,19.41 284.87,19.41 284.92,19.31 284.97,19.31 285.03,19.39 285.08,19.39 285.13,20.57 285.19,20.57 285.24,20.57 285.29,21.08 285.35,21.08 285.40,21.08 285.45,21.21 285.51,20.65 285.56,20.65 285.62,20.65 285.67,21.28 285.72,21.28 285.78,20.91 285.83,21.62 285.88,21.62 285.94,21.62 285.99,21.62 286.04,22.17 286.10,21.69 286.15,21.69 286.20,22.32 286.26,22.32 286.31,22.32 286.36,22.02 286.42,22.37 286.47,22.37 286.53,22.37 286.58,22.25 286.63,22.25 286.69,22.25 286.74,22.25 286.79,22.56 286.85,22.39 286.90,22.39 286.95,22.39 287.01,22.77 287.06,22.77 287.11,22.77 287.17,23.09 287.22,23.09 287.27,23.09 287.33,22.79 287.38,22.79 287.44,22.79 287.49,22.05 287.54,22.05 287.60,22.05 287.65,22.05 287.70,21.63 287.76,21.55 287.81,21.55 287.86,21.55 287.92,21.13 287.97,21.51 288.02,21.51 288.08,21.51 288.13,21.71 288.18,21.71 288.24,21.71 288.29,23.14 288.35,23.14 288.40,23.14 288.45,23.61 288.51,23.61 288.56,23.59 288.61,22.62 288.67,22.62 288.72,22.62 288.77,22.62 288.83,22.12 288.88,22.12 288.93,22.12 288.99,23.03 289.04,21.82 289.09,21.82 289.15,22.32 289.20,22.32 289.26,22.32 289.31,22.32 289.36,21.47 289.42,21.47 289.47,21.47 289.52,22.15 289.58,24.05 289.63,24.05 289.68,24.05 289.74,25.26 289.79,25.26 289.84,25.26 289.90,25.36 289.95,25.36 290.00,25.12 290.06,25.12 290.11,25.12 290.17,24.23 290.22,24.23 290.27,24.23 290.33,23.45 290.38,23.45 290.43,23.45 290.49,23.72 290.54,22.36 290.59,22.36 290.65,23.26 290.70,23.26 290.75,23.26 290.81,22.12 290.86,23.57 290.91,24.59 290.97,24.53 291.02,24.53 291.08,24.53 291.13,24.00 291.18,24.00 291.24,24.00 291.29,24.43 291.34,24.43 291.40,24.43 291.45,24.43 291.50,24.09 291.56,24.09 291.61,24.09 291.66,23.98 291.72,23.98 291.77,22.75 291.82,22.93 291.88,22.93 291.93,22.93 291.99,23.59 292.04,23.59 292.09,23.59 292.15,24.31 292.20,24.31 292.25,24.31 292.31,24.92 292.36,24.92 292.41,24.92 292.47,24.69 292.52,24.69 292.57,24.69 292.63,23.93 292.68,24.40 292.73,24.40 292.79,23.89 292.84,23.89 292.90,24.05 292.95,22.32 293.00,22.32 293.06,22.44 293.11,22.44 293.16,22.44 293.22,22.97 293.27,22.97 293.32,23.59 293.38,23.59 293.43,23.59 293.48,23.18 293.54,23.18 293.59,23.18 293.64,22.19 293.70,22.19 293.75,22.19 293.81,21.32 293.86,21.32 293.91,20.65 293.97,20.65 294.02,20.65 294.07,20.58 294.13,20.58 294.18,21.08 294.23,21.08 294.29,19.20 294.34,19.60 294.39,19.60 294.45,21.41 294.50,20.98 294.55,20.98 294.61,20.98 294.66,20.74 294.72,20.74 294.77,20.74 294.82,20.74 294.88,19.93 294.93,20.53 294.98,20.53 295.04,19.87 295.09,19.87 295.14,19.43 295.20,19.43 295.25,19.43 295.30,19.28 295.36,19.28 295.41,18.33 295.46,18.33 295.52,18.33 295.57,17.73 295.63,17.73 295.68,18.88 295.73,18.55 295.79,18.55 295.84,18.55 295.89,18.55 295.95,17.75 296.00,17.75" />
</svg>