<svg width="300" height="60" xmlns="http://www.w3.org/2000/svg">
  <polyline fill="rgba(255,200,0,0.3)" stroke="#ffbb00" stroke-width="2" points="4.00,53.17 4.47,52.62 4.93,52.32 5.40,51.56 5.87,50.59 6.33,49.53 6.80,48.51 7.27,47.89 7.73,47.46 8.20,47.00 8.66,46.41 9.13,45.88 9.60,44.88 10.06,44.30 10.53,44.14 11.00,43.27 11.46,42.73 11.93,42.16 12.40,41.81 12.86,41.62 13.33,41.31 13.80,41.00 14.26,40.68 14.73,40.34 15.19,40.01 15.66,39.62 16.13,39.21 16.59,38.58 17.06,37.99 17.53,37.38 17.99,37.00 18.46,36.45 18.93,35.99 19.39,35.48 19.86,35.26 20.33,34.79 20.79,34.27 21.26,33.96 21.73,33.02 22.19,32.32 22.66,31.61 23.12,30.97 23.59,30.21 24.06,29.41 24.52,28.65 24.99,28.05 25.46,27.50 25.92,26.96 26.39,26.46 26.86,25.71 27.32,25.17 27.79,24.44 28.26,23.90 28.72,23.22 29.19,22.64 29.65,22.17 30.12,21.30 30.59,20.42 31.05,19.81 31.52,19.01 31.99,18.41 32.45,17.95 32.92,17.26 33.39,16.75 33.85,16.09 34.32,15.58 34.79,15.00 35.25,14.31 35.72,13.79 36.19,13.36 36.65,13.46 37.12,12.90 37.58,12.00 38.05,11.20 38.52,10.80 38.98,11.26 39.45,9.56 39.92,8.14 40.38,7.14 40.85,6.06 41.32,4.49 41.78,48.62 42.25,50.43 42.72,49.04 43.18,47.98 43.65,47.56 44.12,47.76 44.58,47.76 45.05,48.33 45.51,48.75 45.98,49.65 46.45,50.63 46.91,52.62 47.38,54.23 47.85,55.01 48.31,55.19 48.78,55.20 49.25,55.13 49.71,55.44 50.18,55.11 50.65,54.84 51.11,54.57 51.58,54.36 52.04,54.41 52.51,54.79 52.98,54.86 53.44,54.69 53.91,54.84 54.38,55.41 54.84,55.35 55.31,55.10 55.78,55.01 56.24,55.06 56.71,55.10 57.18,55.07 57.64,54.94 58.11,54.69 58.58,54.33 59.04,54.18 59.51,54.12 59.97,54.08 60.44,53.77 60.91,54.03 61.37,53.72 61.84,53.56 62.31,53.20 62.77,52.71 63.24,52.27 63.71,51.49 64.17,50.62 64.64,49.51 65.11,48.55 65.57,47.96 66.04,47.42 66.50,47.01 66.97,46.56 67.44,45.85 67.90,44.79 68.37,44.28 68.84,44.05 69.30,43.28 69.77,42.73 70.24,42.13 70.70,41.82 71.17,41.63 71.64,41.25 72.10,40.92 72.57,40.69 73.04,40.33 73.50,39.99 73.97,39.60 74.43,39.26 74.90,38.57 75.37,37.98 75.83,37.37 76.30,37.00 76.77,36.42 77.23,36.02 77.70,35.45 78.17,35.23 78.63,34.84 79.10,34.30 79.57,33.98 80.03,32.99 80.50,32.39 80.96,31.62 81.43,30.94 81.90,30.22 82.36,29.51 82.83,28.66 83.30,28.08 83.76,27.52 84.23,26.98 84.70,26.44 85.16,25.72 85.63,25.15 86.10,24.48 86.56,23.87 87.03,23.23 87.50,22.66 87.96,22.19 88.43,21.32 88.89,20.53 89.36,19.82 89.83,19.03 90.29,18.41 90.76,17.95 91.23,17.27 91.69,16.70 92.16,16.08 92.63,15.55 93.09,15.04 93.56,14.37 94.03,13.77 94.49,13.36 94.96,13.42 95.42,12.85 95.89,11.93 96.36,11.18 96.82,10.78 97.29,11.32 97.76,9.58 98.22,8.17 98.69,7.08 99.16,5.94 99.62,4.53 100.09,48.68 100.56,50.49 101.02,48.96 101.49,48.01 101.96,47.54 102.42,47.70 102.89,47.84 103.35,48.26 103.82,48.70 104.29,49.64 104.75,50.74 105.22,52.66 105.69,54.20 106.15,55.01 106.62,55.20 107.09,55.20 107.55,55.13 108.02,55.34 108.49,55.06 108.95,54.84 109.42,54.57 109.88,54.35 110.35,54.48 110.82,54.82 111.28,54.86 111.75,54.68 112.22,54.47 112.68,55.43 113.15,55.35 113.62,55.10 114.08,55.00 114.55,55.03 115.02,55.09 115.48,55.06 115.95,54.96 116.42,54.68 116.88,54.33 117.35,54.18 117.81,54.09 118.28,54.03 118.75,53.78 119.21,54.12 119.68,53.73 120.15,53.55 120.61,53.17 121.08,52.62 121.55,48.57 122.01,50.26 122.48,49.03 122.95,48.06 123.41,47.45 123.88,47.61 124.35,48.00 124.81,47.48 125.28,48.93 125.74,49.57 126.21,51.03 126.68,52.88 127.14,54.04 127.61,55.05 128.08,55.19 128.54,55.22 129.01,55.17 129.48,55.23 129.94,55.05 130.41,54.89 130.88,54.60 131.34,54.32 131.81,54.73 132.27,54.78 132.74,54.82 133.21,54.64 133.67,54.96 134.14,55.45 134.61,55.43 135.07,55.09 135.54,55.03 136.01,55.06 136.47,55.09 136.94,55.10 137.41,54.91 137.87,54.66 138.34,54.27 138.81,54.23 139.27,54.14 139.74,54.05 140.20,53.78 140.67,53.95 141.14,53.54 141.60,53.53 142.07,53.16 142.54,52.66 143.00,51.75 143.47,51.39 143.94,50.45 144.40,49.53 144.87,48.21 145.34,47.80 145.80,47.34 146.27,46.91 146.73,46.54 147.20,45.77 147.67,44.83 148.13,44.22 148.60,44.04 149.07,43.11 149.53,42.65 150.00,42.11 150.47,41.70 150.93,41.57 151.40,41.16 151.87,40.91 152.33,40.52 152.80,40.25 153.27,39.87 153.73,39.59 154.20,39.16 154.66,38.58 155.13,38.04 155.60,37.31 156.06,36.97 156.53,36.34 157.00,35.85 157.46,35.30 157.93,35.24 158.40,34.69 158.86,34.17 159.33,33.95 159.80,32.65 160.26,32.27 160.73,31.43 161.19,30.94 161.66,29.98 162.13,29.23 162.59,28.47 163.06,27.95 163.53,27.35 163.99,26.83 164.46,26.26 164.93,25.79 165.39,25.10 165.86,24.29 166.33,23.63 166.79,23.03 167.26,22.56 167.73,22.10 168.19,21.31 168.66,20.38 169.12,19.63 169.59,18.94 170.06,18.27 170.52,17.70 170.99,17.09 171.46,16.44 171.92,15.86 172.39,15.36 172.86,14.70 173.32,14.22 173.79,13.57 174.26,13.23 174.72,13.34 175.19,12.82 175.65,11.79 176.12,10.07 176.59,10.60 177.05,10.99 177.52,9.37 177.99,8.15 178.45,6.85 178.92,6.03 179.39,4.35 179.85,49.09 180.32,50.36 180.79,48.95 181.25,48.90 181.72,48.97 182.19,47.70 182.65,48.23 183.12,48.32 183.58,49.46 184.05,49.78 184.52,50.30 184.98,53.17 185.45,54.44 185.92,55.06 186.38,55.30 186.85,55.44 187.32,55.48 187.78,55.37 188.25,55.19 188.72,55.01 189.18,54.82 189.65,54.64 190.12,54.53 190.58,54.66 191.05,54.75 191.51,55.05 191.98,55.10 192.45,55.14 192.91,55.22 193.38,55.21 193.85,55.12 194.31,55.12 194.78,55.19 195.25,55.12 195.71,54.98 196.18,54.75 196.65,54.45 197.11,54.50 197.58,54.29 198.04,54.09 198.51,53.95 198.98,54.02 199.44,53.84 199.91,53.63 200.38,53.22 200.84,52.97 201.31,52.29 201.78,51.97 202.24,50.88 202.71,49.71 203.18,49.19 203.64,48.28 204.11,47.68 204.58,46.75 205.04,46.02 205.51,45.91 205.97,45.34 206.44,44.75 206.91,44.25 207.37,43.23 207.84,42.73 208.31,42.27 208.77,42.14 209.24,41.77 209.71,41.39 210.17,41.09 210.64,40.73 211.11,40.34 211.57,39.80 212.04,39.55 212.50,39.02 212.97,38.66 213.44,38.02 213.90,37.61 214.37,37.20 214.84,36.69 215.30,35.91 215.77,35.57 216.24,35.03 216.70,34.82 217.17,34.51 217.64,33.80 218.10,33.35 218.57,32.80 219.04,31.98 219.50,31.41 219.97,30.66 220.43,29.35 220.90,28.87 221.37,28.05 221.83,27.66 222.30,27.30 222.77,26.71 223.23,26.07 223.70,25.43 224.17,24.77 224.63,24.13 225.10,23.52 225.57,22.86 226.03,22.24 226.50,21.29 226.96,20.36 227.43,19.65 227.90,19.47 228.36,18.85 228.83,18.21 229.30,17.74 229.76,17.14 230.23,16.39 230.70,15.85 231.16,15.18 231.63,14.80 232.10,13.96 232.56,13.28 233.03,13.35 233.50,12.91 233.96,12.23 234.43,11.50 234.89,10.94 235.36,11.44 235.83,9.41 236.29,8.23 236.76,7.23 237.23,6.29 237.69,4.39 238.16,52.27 238.63,53.54 239.09,48.97 239.56,48.97 240.03,49.42 240.49,49.42 240.96,49.42 241.42,51.08 241.89,51.08 242.36,50.54 242.82,50.54 243.29,53.50 243.76,53.50 244.22,53.50 244.69,55.77 245.16,55.77 245.62,55.77 246.09,56.00 246.56,56.00 247.02,55.48 247.49,55.48 247.96,55.48 248.42,55.36 248.89,55.36 249.35,55.43 249.82,55.43 250.29,55.43 250.75,55.41 251.22,55.41 251.69,55.71 252.15,55.71 252.62,55.71 253.09,55.34 253.55,55.34 254.02,55.34 254.49,55.00 254.95,55.00 255.42,54.54 255.88,54.54 256.35,54.54 256.82,54.02 257.28,54.66 257.75,54.66 258.22,53.84 258.68,53.84 259.15,53.84 259.62,52.37 260.08,52.92 260.55,52.92 261.02,51.35 261.48,51.35 261.95,51.35 262.42,49.12 262.88,49.12 263.35,46.52 263.81,49.32 264.28,49.32 264.75,46.57 265.21,46.57 265.68,44.18 266.15,44.18 266.61,44.18 267.08,42.40 267.55,42.40 268.01,42.40 268.48,41.08 268.95,41.08 269.41,40.73 269.88,39.53 270.35,39.53 270.81,39.53 271.28,38.53 271.74,38.12 272.21,38.12 272.68,36.89 273.14,36.89 273.61,35.71 274.08,35.71 274.54,35.71 275.01,34.75 275.48,34.75 275.94,35.25 276.41,33.39 276.88,33.39 277.34,33.39 277.81,31.52 278.27,31.52 278.74,29.72 279.21,29.72 279.67,30.34 280.14,27.75 280.61,27.75 281.07,27.75 281.54,25.88 282.01,25.88 282.47,25.88 282.94,23.72 283.41,23.72 283.87,23.72 284.34,22.01 284.81,22.01 285.27,21.33 285.74,19.30 286.20,19.30 286.67,19.30 287.14,19.30 287.60,17.32 288.07,17.32 288.54,17.32 289.00,15.57 289.47,15.57 289.94,15.57 290.40,14.47 290.87,13.27 291.34,12.10 291.80,12.10 292.27,12.10 292.73,11.06 293.20,11.06 293.67,12.04 294.13,10.19 294.60,10.19 295.07,7.57 295.53,7.57 296.00,4.00" />
</svg>