<svg width="300" height="60" xmlns="http://www.w3.org/2000/svg">
  <polyline fill="rgba(255,200,0,0.3)" stroke="#ffbb00" stroke-width="2" points="4.00,56.00 5.10,51.90 6.20,49.79 7.29,47.72 8.39,45.90 9.49,44.80 10.59,44.28 11.68,44.81 12.78,46.06 13.88,48.80 14.98,49.30 16.08,50.76 17.17,49.64 18.27,49.07 19.37,48.00 20.47,47.00 21.56,45.77 22.66,44.77 23.76,43.62 24.86,42.27 25.95,41.10 27.05,39.68 28.15,38.68 29.25,37.71 30.35,37.15 31.44,36.96 32.54,36.61 33.64,36.88 34.74,38.41 35.83,39.60 36.93,40.44 38.03,40.13 39.13,40.28 40.23,39.93 41.32,38.68 42.42,38.24 43.52,39.17 44.62,38.84 45.71,37.51 46.81,37.97 47.91,36.95 49.01,36.07 50.11,34.90 51.20,34.28 52.30,33.75 53.40,31.29 54.50,29.64 55.59,27.92 56.69,26.50 57.79,26.27 58.89,26.10 59.98,26.09 61.08,26.18 62.18,25.65 63.28,26.04 64.38,24.43 65.47,22.27 66.57,18.59 67.67,15.26 68.77,11.32 69.86,8.45 70.96,9.23 72.06,11.60 73.16,14.18 74.26,14.98 75.35,13.08 76.45,10.31 77.55,9.82 78.65,10.38 79.74,10.56 80.84,9.94 81.94,9.57 83.04,9.93 84.14,12.25 85.23,13.97 86.33,12.66 87.43,12.24 88.53,11.34 89.62,8.77 90.72,7.32 91.82,6.08 92.92,5.43 94.02,4.72 95.11,5.67 96.21,7.17 97.31,8.62 98.41,10.07 99.50,9.92 100.60,7.99 101.70,54.35 102.80,52.86 103.89,50.78 104.99,48.12 106.09,45.94 107.19,45.11 108.29,44.26 109.38,45.53 110.48,45.73 111.58,47.81 112.68,49.05 113.77,49.84 114.87,49.95 115.97,48.93 117.07,48.38 118.17,46.79 119.26,46.00 120.36,44.36 121.46,43.71 122.56,43.11 123.65,40.51 124.75,39.71 125.85,39.20 126.95,36.74 128.05,37.63 129.14,35.90 130.24,37.31 131.34,37.05 132.44,39.02 133.53,39.10 134.63,40.16 135.73,40.71 136.83,40.48 137.92,39.36 139.02,38.96 140.12,38.53 141.22,38.55 142.32,38.06 143.41,37.49 144.51,37.49 145.61,36.58 146.71,35.64 147.80,34.04 148.90,33.11 150.00,34.27 151.10,31.69 152.20,28.55 153.29,29.40 154.39,27.25 155.49,26.03 156.59,27.58 157.68,25.25 158.78,26.94 159.88,25.98 160.98,24.82 162.08,23.25 163.17,22.96 164.27,20.05 165.37,16.73 166.47,12.33 167.56,8.91 168.66,8.61 169.76,11.75 170.86,13.32 171.95,14.18 173.05,13.49 174.15,9.49 175.25,9.23 176.35,10.34 177.44,8.63 178.54,9.97 179.64,8.22 180.74,9.96 181.83,11.95 182.93,13.62 184.03,13.62 185.13,12.00 186.23,11.97 187.32,8.94 188.42,7.92 189.52,6.05 190.62,4.94 191.71,5.06 192.81,5.40 193.91,6.34 195.01,7.60 196.11,8.92 197.20,9.67 198.30,7.09 199.40,54.74 200.50,54.74 201.59,54.74 202.69,48.15 203.79,48.15 204.89,48.15 205.98,45.15 207.08,45.15 208.18,41.42 209.28,44.68 210.38,44.68 211.47,44.68 212.57,48.50 213.67,48.50 214.77,46.83 215.86,46.83 216.96,46.83 218.06,44.53 219.16,44.53 220.26,44.53 221.35,38.01 222.45,38.01 223.55,34.90 224.65,34.90 225.74,34.90 226.84,36.24 227.94,36.24 229.04,31.38 230.14,35.64 231.23,35.64 232.33,35.64 233.43,39.44 234.53,39.44 235.62,36.04 236.72,36.04 237.82,36.04 238.92,33.90 240.02,33.90 241.11,36.52 242.21,36.52 243.31,32.67 244.41,33.44 245.50,33.44 246.60,33.44 247.70,33.44 248.80,30.94 249.89,30.94 250.99,30.94 252.09,30.94 253.19,27.34 254.29,27.34 255.38,27.34 256.48,27.34 257.58,22.05 258.68,21.87 259.77,21.87 260.87,21.87 261.97,21.87 263.07,15.75 264.17,15.75 265.26,15.75 266.36,7.20 267.46,10.66 268.56,10.66 269.65,13.13 270.75,13.13 271.85,4.86 272.95,4.00 274.05,4.00 275.14,4.00 276.24,7.06 277.34,7.06 278.44,7.06 279.53,11.25 280.63,11.25 281.73,11.25 282.83,11.25 283.92,14.36 285.02,9.62 286.12,9.62 287.22,7.91 288.32,7.91 289.41,4.83 290.51,4.83 291.61,4.83 292.71,5.63 293.80,5.63 294.90,7.11 296.00,7.11" />
</svg>