<svg width="300" height="60" xmlns="http://www.w3.org/2000/svg">
  <polyline fill="rgba(255,200,0,0.3)" stroke="#ffbb00" stroke-width="2" points="4.00,22.58 4.06,21.65 4.13,21.35 4.19,20.63 4.25,19.95 4.31,19.65 4.38,20.85 4.44,21.57 4.50,21.84 4.56,23.30 4.63,23.65 4.69,23.00 4.75,22.50 4.81,22.58 4.88,22.52 4.94,22.03 5.00,20.26 5.07,19.18 5.13,18.24 5.19,18.11 5.25,18.65 5.32,20.36 5.38,22.69 5.44,23.02 5.50,23.23 5.57,23.44 5.63,23.41 5.69,23.40 5.75,23.55 5.82,24.04 5.88,24.49 5.94,24.91 6.01,25.06 6.07,25.23 6.13,24.86 6.19,24.73 6.26,25.39 6.32,26.27 6.38,26.82 6.44,26.76 6.51,26.18 6.57,24.57 6.63,23.68 6.69,23.65 6.76,25.10 6.82,25.19 6.88,25.14 6.95,24.81 7.01,24.45 7.07,23.64 7.13,23.32 7.20,22.68 7.26,21.71 7.32,20.82 7.38,20.67 7.45,20.50 7.51,21.37 7.57,21.41 7.64,21.44 7.70,20.22 7.76,18.80 7.82,17.97 7.89,16.85 7.95,16.46 8.01,17.05 8.07,18.56 8.14,18.43 8.20,18.36 8.26,17.85 8.32,17.13 8.39,16.01 8.45,14.59 8.51,13.94 8.58,14.69 8.64,15.67 8.70,15.68 8.76,16.47 8.83,16.91 8.89,16.84 8.95,16.43 9.01,16.17 9.08,16.02 9.14,15.78 9.20,15.27 9.26,14.29 9.33,14.19 9.39,14.02 9.45,13.94 9.52,13.67 9.58,13.33 9.64,12.92 9.70,12.60 9.77,12.29 9.83,12.23 9.89,12.25 9.95,12.17 10.02,12.11 10.08,12.04 10.14,11.84 10.20,11.55 10.27,11.37 10.33,10.72 10.39,10.39 10.46,10.07 10.52,9.04 10.58,8.48 10.64,8.15 10.71,8.31 10.77,8.20 10.83,7.92 10.89,7.97 10.96,8.54 11.02,8.98 11.08,8.70 11.14,8.44 11.21,8.05 11.27,7.51 11.33,7.46 11.40,7.02 11.46,7.62 11.52,8.03 11.58,8.04 11.65,7.84 11.71,7.69 11.77,7.47 11.83,7.35 11.90,7.25 11.96,7.19 12.02,7.03 12.08,7.17 12.15,7.43 12.21,7.66 12.27,7.71 12.34,7.48 12.40,6.08 12.46,5.86 12.52,5.74 12.59,5.35 12.65,5.38 12.71,5.85 12.77,6.68 12.84,6.68 12.90,6.89 12.96,8.10 13.03,8.58 13.09,8.86 13.15,9.18 13.21,9.08 13.28,8.78 13.34,7.34 13.40,6.25 13.46,5.76 13.53,5.75 13.59,7.30 13.65,9.80 13.71,10.94 13.78,11.34 13.84,11.54 13.90,11.90 13.97,12.42 14.03,12.72 14.09,12.84 14.15,12.49 14.22,13.18 14.28,14.09 14.34,14.49 14.40,14.41 14.47,12.65 14.53,11.95 14.59,12.89 14.65,13.82 14.72,15.30 14.78,15.93 14.84,16.33 14.91,16.54 14.97,16.90 15.03,17.34 15.09,17.98 15.16,18.44 15.22,18.58 15.28,18.43 15.34,18.35 15.41,19.05 15.47,19.47 15.53,19.68 15.59,19.92 15.66,20.42 15.72,19.76 15.78,19.61 15.85,20.39 15.91,18.66 15.97,18.58 16.03,18.67 16.10,18.76 16.16,18.79 16.22,18.89 16.28,18.12 16.35,17.37 16.41,16.19 16.47,15.41 16.53,15.06 16.60,14.84 16.66,15.33 16.72,15.83 16.79,15.83 16.85,15.54 16.91,15.29 16.97,15.03 17.04,15.57 17.10,16.08 17.16,16.71 17.22,17.15 17.29,17.50 17.35,17.64 17.41,17.91 17.47,18.15 17.54,18.55 17.60,18.37 17.66,18.23 17.73,18.10 17.79,18.21 17.85,18.16 17.91,17.74 17.98,17.16 18.04,17.32 18.10,17.60 18.16,18.16 18.23,18.51 18.29,18.83 18.35,19.06 18.42,19.80 18.48,21.20 18.54,21.84 18.60,21.82 18.67,21.67 18.73,21.34 18.79,21.10 18.85,21.14 18.92,21.51 18.98,21.61 19.04,21.39 19.10,21.56 19.17,22.50 19.23,23.36 19.29,23.43 19.36,22.83 19.42,21.65 19.48,21.32 19.54,20.93 19.61,21.01 19.67,21.09 19.73,21.01 19.79,21.84 19.86,22.27 19.92,22.63 19.98,23.15 20.04,23.84 20.11,23.88 20.17,23.72 20.23,23.42 20.30,22.43 20.36,21.47 20.42,20.95 20.48,21.19 20.55,21.22 20.61,21.84 20.67,22.12 20.73,22.71 20.80,25.19 20.86,26.41 20.92,26.07 20.98,25.74 21.05,25.54 21.11,25.17 21.17,24.18 21.24,23.73 21.30,23.22 21.36,22.79 21.42,21.94 21.49,21.39 21.55,21.14 21.61,21.22 21.67,21.35 21.74,21.39 21.80,22.23 21.86,22.75 21.92,22.38 21.99,22.79 22.05,23.51 22.11,24.04 22.18,24.95 22.24,25.23 22.30,25.68 22.36,25.05 22.43,25.27 22.49,25.29 22.55,25.12 22.61,24.65 22.68,24.93 22.74,25.27 22.80,25.66 22.86,25.60 22.93,25.60 22.99,25.72 23.05,26.29 23.12,26.47 23.18,26.54 23.24,27.29 23.30,28.50 23.37,28.56 23.43,28.63 23.49,28.73 23.55,28.13 23.62,27.23 23.68,26.13 23.74,25.30 23.81,25.78 23.87,26.41 23.93,26.25 23.99,25.97 24.06,25.91 24.12,25.75 24.18,25.40 24.24,25.58 24.31,25.95 24.37,26.04 24.43,25.66 24.49,25.67 24.56,26.23 24.62,27.33 24.68,27.67 24.75,28.12 24.81,28.09 24.87,27.50 24.93,27.20 25.00,27.33 25.06,27.32 25.12,26.53 25.18,26.55 25.25,26.93 25.31,26.89 25.37,26.93 25.43,26.84 25.50,27.67 25.56,27.58 25.62,27.18 25.69,27.05 25.75,28.41 25.81,29.20 25.87,29.53 25.94,29.75 26.00,28.97 26.06,29.38 26.12,29.17 26.19,29.50 26.25,29.79 26.31,30.37 26.37,30.89 26.44,30.68 26.50,30.31 26.56,30.43 26.63,30.52 26.69,30.91 26.75,32.28 26.81,33.08 26.88,33.30 26.94,33.17 27.00,32.86 27.06,32.31 27.13,32.25 27.19,32.45 27.25,32.51 27.31,32.44 27.38,32.51 27.44,32.74 27.50,33.24 27.57,33.66 27.63,34.26 27.69,34.62 27.75,34.68 27.82,34.87 27.88,34.65 27.94,34.93 28.00,35.21 28.07,35.53 28.13,35.80 28.19,35.68 28.25,35.64 28.32,35.59 28.38,35.51 28.44,35.38 28.51,35.23 28.57,35.11 28.63,33.54 28.69,32.85 28.76,31.82 28.82,30.84 28.88,29.79 28.94,29.03 29.01,28.30 29.07,28.50 29.13,29.84 29.20,31.56 29.26,32.77 29.32,32.71 29.38,31.82 29.45,31.16 29.51,31.52 29.57,31.70 29.63,31.86 29.70,32.71 29.76,32.95 29.82,33.78 29.88,33.88 29.95,33.93 30.01,34.03 30.07,36.54 30.14,36.21 30.20,36.28 30.26,36.65 30.32,36.73 30.39,36.54 30.45,36.15 30.51,35.33 30.57,35.16 30.64,35.02 30.70,34.66 30.76,34.48 30.82,34.06 30.89,33.79 30.95,33.92 31.01,33.30 31.08,32.87 31.14,32.31 31.20,32.14 31.26,31.59 31.33,31.19 31.39,29.68 31.45,29.59 31.51,29.55 31.58,30.50 31.64,30.70 31.70,30.89 31.76,30.93 31.83,30.89 31.89,30.82 31.95,30.88 32.02,30.95 32.08,30.99 32.14,30.82 32.20,31.02 32.27,30.45 32.33,29.96 32.39,28.86 32.45,27.87 32.52,27.62 32.58,26.46 32.64,25.30 32.70,25.24 32.77,25.80 32.83,26.92 32.89,27.86 32.96,28.85 33.02,28.25 33.08,28.35 33.14,29.32 33.21,30.93 33.27,31.42 33.33,31.50 33.39,31.01 33.46,30.70 33.52,30.88 33.58,31.05 33.64,31.73 33.71,32.07 33.77,32.19 33.83,33.17 33.90,33.39 33.96,33.60 34.02,33.69 34.08,31.45 34.15,31.05 34.21,31.67 34.27,31.76 34.33,31.75 34.40,31.35 34.46,30.58 34.52,29.85 34.59,29.75 34.65,29.37 34.71,28.87 34.77,28.15 34.84,27.41 34.90,26.89 34.96,27.81 35.02,27.96 35.09,27.99 35.15,28.31 35.21,28.34 35.27,28.06 35.34,27.69 35.40,26.78 35.46,26.26 35.53,25.92 35.59,25.10 35.65,24.50 35.71,24.58 35.78,24.72 35.84,24.44 35.90,22.93 35.96,21.80 36.03,21.60 36.09,21.99 36.15,22.11 36.21,22.11 36.28,21.98 36.34,21.77 36.40,21.59 36.47,20.89 36.53,20.45 36.59,20.06 36.65,20.06 36.72,20.26 36.78,20.50 36.84,20.90 36.90,21.12 36.97,21.14 37.03,21.12 37.09,21.30 37.15,21.54 37.22,23.51 37.28,22.02 37.34,21.28 37.41,20.69 37.47,20.42 37.53,20.11 37.59,19.61 37.66,19.35 37.72,19.18 37.78,19.05 37.84,18.76 37.91,18.33 37.97,18.33 38.03,18.01 38.09,17.82 38.16,17.62 38.22,17.46 38.28,17.19 38.35,17.16 38.41,16.92 38.47,16.77 38.53,16.65 38.60,16.66 38.66,16.96 38.72,16.90 38.78,16.06 38.85,15.34 38.91,15.27 38.97,15.33 39.03,15.63 39.10,16.20 39.16,16.14 39.22,15.61 39.29,14.98 39.35,15.57 39.41,14.63 39.47,14.52 39.54,16.14 39.60,16.77 39.66,15.71 39.72,15.62 39.79,16.97 39.85,17.26 39.91,17.38 39.98,17.10 40.04,17.43 40.10,17.74 40.16,17.66 40.23,17.83 40.29,18.38 40.35,19.30 40.41,19.95 40.48,19.95 40.54,19.85 40.60,19.83 40.66,20.13 40.73,20.17 40.79,20.77 40.85,22.25 40.92,22.46 40.98,22.63 41.04,22.86 41.10,22.99 41.17,23.18 41.23,23.26 41.29,23.38 41.35,23.29 41.42,21.87 41.48,21.35 41.54,23.47 41.60,24.28 41.67,22.28 41.73,20.96 41.79,21.63 41.86,24.01 41.92,25.25 41.98,25.66 42.04,24.83 42.11,24.44 42.17,24.33 42.23,24.42 42.29,24.50 42.36,24.10 42.42,23.54 42.48,23.87 42.54,24.06 42.61,24.50 42.67,24.71 42.73,25.97 42.80,26.52 42.86,26.24 42.92,26.69 42.98,25.66 43.05,26.18 43.11,26.43 43.17,26.60 43.23,27.02 43.30,27.25 43.36,27.33 43.42,27.15 43.48,27.05 43.55,26.87 43.61,26.17 43.67,25.62 43.74,25.50 43.80,25.92 43.86,25.84 43.92,25.52 43.99,25.13 44.05,24.59 44.11,23.73 44.17,22.99 44.24,22.72 44.30,22.82 44.36,22.82 44.42,22.66 44.49,22.56 44.55,22.28 44.61,21.86 44.68,21.48 44.74,21.04 44.80,20.68 44.86,20.47 44.93,20.22 44.99,19.83 45.05,19.25 45.11,19.29 45.18,19.70 45.24,20.03 45.30,19.57 45.37,18.97 45.43,18.58 45.49,18.45 45.55,18.20 45.62,17.84 45.68,17.70 45.74,17.88 45.80,17.94 45.87,17.51 45.93,17.19 45.99,18.18 46.05,20.07 46.12,19.99 46.18,18.62 46.24,17.08 46.31,15.49 46.37,15.20 46.43,15.61 46.49,16.75 46.56,17.39 46.62,17.31 46.68,17.38 46.74,17.87 46.81,18.09 46.87,18.22 46.93,18.72 46.99,19.05 47.06,19.07 47.12,18.22 47.18,18.13 47.25,18.06 47.31,18.08 47.37,18.00 47.43,17.95 47.50,17.89 47.56,18.35 47.62,19.44 47.68,19.13 47.75,19.14 47.81,18.71 47.87,19.93 47.93,20.13 48.00,21.19 48.06,22.46 48.12,22.86 48.19,22.74 48.25,22.41 48.31,21.47 48.37,21.47 48.44,22.13 48.50,22.93 48.56,23.50 48.62,24.22 48.69,24.20 48.75,23.99 48.81,23.76 48.87,22.39 48.94,21.30 49.00,22.14 49.06,23.33 49.13,23.80 49.19,23.65 49.25,23.62 49.31,23.67 49.38,23.82 49.44,22.96 49.50,22.57 49.56,22.35 49.63,22.16 49.69,22.31 49.75,22.61 49.81,23.88 49.88,25.39 49.94,27.62 50.00,28.88 50.07,30.02 50.13,30.26 50.19,30.39 50.25,29.26 50.32,28.89 50.38,28.15 50.44,28.36 50.50,28.48 50.57,28.47 50.63,27.81 50.69,25.67 50.76,24.89 50.82,24.52 50.88,24.79 50.94,25.08 51.01,25.69 51.07,25.72 51.13,25.60 51.19,25.43 51.26,25.24 51.32,24.97 51.38,24.48 51.44,23.28 51.51,22.55 51.57,21.96 51.63,22.98 51.70,23.44 51.76,23.41 51.82,23.20 51.88,22.72 51.95,22.50 52.01,22.39 52.07,22.19 52.13,22.08 52.20,22.29 52.26,21.99 52.32,21.31 52.38,20.19 52.45,19.75 52.51,20.23 52.57,20.41 52.64,21.74 52.70,22.66 52.76,22.59 52.82,21.71 52.89,21.21 52.95,20.52 53.01,19.96 53.07,19.61 53.14,20.71 53.20,21.55 53.26,21.82 53.32,23.15 53.39,23.73 53.45,22.86 53.51,22.48 53.58,22.58 53.64,22.49 53.70,21.72 53.76,20.25 53.83,19.21 53.89,18.18 53.95,18.18 54.01,18.44 54.08,20.29 54.14,22.65 54.20,23.04 54.26,23.21 54.33,23.48 54.39,23.39 54.45,23.39 54.52,23.51 54.58,24.04 54.64,24.42 54.70,24.91 54.77,25.04 54.83,25.22 54.89,24.86 54.95,24.76 55.02,25.55 55.08,26.30 55.14,26.83 55.20,26.76 55.27,26.23 55.33,24.87 55.39,23.68 55.46,23.60 55.52,25.07 55.58,25.19 55.64,25.14 55.71,24.81 55.77,24.45 55.83,23.64 55.89,23.30 55.96,22.75 56.02,21.65 56.08,20.84 56.15,20.58 56.21,20.49 56.27,21.37 56.33,21.40 56.40,21.27 56.46,20.07 56.52,18.93 56.58,18.10 56.65,16.85 56.71,16.43 56.77,17.06 56.83,18.52 56.90,18.42 56.96,18.24 57.02,17.88 57.09,17.17 57.15,15.90 57.21,14.56 57.27,13.80 57.34,14.64 57.40,15.77 57.46,15.48 57.52,16.54 57.59,16.90 57.65,16.81 57.71,16.41 57.77,16.18 57.84,16.03 57.90,15.77 57.96,15.29 58.03,14.37 58.09,14.11 58.15,14.00 58.21,13.95 58.28,13.69 58.34,13.34 58.40,12.94 58.46,12.60 58.53,12.32 58.59,12.22 58.65,12.22 58.71,12.24 58.78,12.12 58.84,11.99 58.90,11.91 58.97,11.56 59.03,11.33 59.09,10.71 59.15,10.39 59.22,9.98 59.28,9.03 59.34,8.49 59.40,8.22 59.47,8.40 59.53,8.21 59.59,7.89 59.65,8.00 59.72,8.61 59.78,8.96 59.84,8.68 59.91,8.42 59.97,8.07 60.03,7.75 60.09,7.32 60.16,6.96 60.22,7.64 60.28,8.03 60.34,7.99 60.41,7.83 60.47,7.70 60.53,7.54 60.59,7.40 60.66,7.26 60.72,7.13 60.78,7.12 60.85,7.19 60.91,7.52 60.97,7.62 61.03,7.67 61.10,7.51 61.16,6.37 61.22,5.81 61.28,5.73 61.35,5.32 61.41,5.39 61.47,5.86 61.54,6.72 61.60,6.68 61.66,6.86 61.72,8.05 61.79,8.70 61.85,8.84 61.91,9.22 61.97,9.27 62.04,8.81 62.10,7.19 62.16,6.32 62.22,5.57 62.29,5.72 62.35,7.09 62.41,9.69 62.48,10.94 62.54,11.36 62.60,11.54 62.66,11.92 62.73,12.36 62.79,12.79 62.85,12.75 62.91,12.77 62.98,13.38 63.04,14.03 63.10,14.45 63.16,14.34 63.23,12.52 63.29,11.99 63.35,12.90 63.42,13.89 63.48,15.25 63.54,15.95 63.60,16.40 63.67,16.58 63.73,16.98 63.79,17.35 63.85,18.00 63.92,18.42 63.98,18.58 64.04,18.44 64.10,18.34 64.17,19.01 64.23,19.44 64.29,19.67 64.36,20.00 64.42,20.42 64.48,19.78 64.54,19.49 64.61,20.49 64.67,18.54 64.73,18.57 64.79,18.68 64.86,18.69 64.92,18.73 64.98,19.01 65.04,18.03 65.11,17.24 65.17,16.11 65.23,15.40 65.30,15.08 65.36,14.81 65.42,15.35 65.48,15.82 65.55,15.84 65.61,15.51 65.67,15.31 65.73,15.10 65.80,15.66 65.86,16.09 65.92,16.74 65.98,17.14 66.05,17.40 66.11,17.70 66.17,17.93 66.24,18.13 66.30,18.62 66.36,18.38 66.42,18.20 66.49,18.06 66.55,18.16 66.61,18.19 66.67,17.77 66.74,17.10 66.80,17.15 66.86,17.63 66.93,18.17 66.99,18.52 67.05,18.84 67.11,19.04 67.18,19.87 67.24,21.16 67.30,21.74 67.36,21.79 67.43,21.69 67.49,21.36 67.55,21.16 67.61,21.14 67.68,21.50 67.74,21.52 67.80,21.27 67.87,21.65 67.93,22.50 67.99,23.34 68.05,23.41 68.12,22.95 68.18,21.62 68.24,21.38 68.30,21.10 68.37,21.11 68.43,20.91 68.49,20.95 68.55,21.93 68.62,22.23 68.68,22.63 68.74,23.10 68.81,23.83 68.87,23.80 68.93,23.72 68.99,23.18 69.06,22.36 69.12,21.51 69.18,20.85 69.24,21.19 69.31,21.30 69.37,21.78 69.43,22.24 69.49,23.02 69.56,25.10 69.62,26.15 69.68,25.96 69.75,25.75 69.81,25.53 69.87,25.22 69.93,24.21 70.00,23.71 70.06,23.25 70.12,22.74 70.18,22.06 70.25,21.37 70.31,21.11 70.37,21.22 70.43,21.32 70.50,21.45 70.56,22.24 70.62,22.61 70.69,22.34 70.75,22.79 70.81,23.55 70.87,23.91 70.94,24.90 71.00,25.21 71.06,25.57 71.12,25.04 71.19,25.26 71.25,25.29 71.31,25.09 71.37,24.65 71.44,24.89 71.50,25.28 71.56,25.56 71.63,25.58 71.69,25.60 71.75,25.74 71.81,26.28 71.88,26.53 71.94,26.56 72.00,27.27 72.06,28.53 72.13,28.56 72.19,28.64 72.25,28.67 72.32,28.19 72.38,26.94 72.44,26.03 72.50,25.31 72.57,25.71 72.63,26.33 72.69,26.25 72.75,25.95 72.82,25.91 72.88,25.73 72.94,25.36 73.00,25.24 73.07,25.87 73.13,25.80 73.19,25.59 73.26,25.75 73.32,26.34 73.38,27.17 73.44,27.57 73.51,28.16 73.57,28.09 73.63,27.63 73.69,27.26 73.76,27.26 73.82,27.34 73.88,26.75 73.94,26.59 74.01,26.97 74.07,26.96 74.13,26.83 74.20,26.84 74.26,27.69 74.32,27.62 74.38,27.41 74.45,26.98 74.51,28.26 74.57,29.01 74.63,29.42 74.70,29.70 74.76,29.18 74.82,29.35 74.88,29.23 74.95,29.63 75.01,29.85 75.07,30.26 75.14,30.93 75.20,30.79 75.26,30.30 75.32,30.30 75.39,30.66 75.45,30.91 75.51,31.99 75.57,33.11 75.64,33.34 75.70,33.17 75.76,32.85 75.82,32.29 75.89,32.27 75.95,32.42 76.01,32.49 76.08,32.48 76.14,32.51 76.20,32.78 76.26,33.21 76.33,33.63 76.39,34.30 76.45,34.65 76.51,34.76 76.58,34.85 76.64,34.80 76.70,34.84 76.76,35.26 76.83,35.45 76.89,35.80 76.95,35.67 77.02,35.66 77.08,35.57 77.14,35.51 77.20,35.42 77.27,35.26 77.33,35.11 77.39,33.61 77.45,32.85 77.52,31.84 77.58,30.80 77.64,29.80 77.71,28.97 77.77,28.29 77.83,28.54 77.89,29.84 77.96,31.58 78.02,32.87 78.08,32.66 78.14,31.62 78.21,31.13 78.27,31.55 78.33,31.80 78.39,31.86 78.46,32.33 78.52,32.94 78.58,55.37 78.65,55.15 78.71,55.35 78.77,55.45 78.83,55.65 78.90,55.68 78.96,55.62 79.02,55.57 79.08,55.66 79.15,55.94 79.21,55.73 79.27,55.61 79.33,55.56 79.40,55.48 79.46,55.42 79.52,55.43 79.59,55.42 79.65,55.43 79.71,55.66 79.77,55.74 79.84,55.36 79.90,55.23 79.96,55.07 80.02,54.50 80.09,53.43 80.15,53.51 80.21,53.33 80.27,53.19 80.34,53.05 80.40,52.83 80.46,52.40 80.53,51.75 80.59,51.12 80.65,50.60 80.71,49.97 80.78,49.32 80.84,49.00 80.90,48.47 80.96,47.88 81.03,47.11 81.09,46.14 81.15,45.69 81.21,45.01 81.28,44.81 81.34,44.45 81.40,43.91 81.47,42.99 81.53,42.30 81.59,41.95 81.65,41.47 81.72,41.37 81.78,40.95 81.84,40.41 81.90,39.93 81.97,39.56 82.03,39.18 82.09,38.97 82.15,38.67 82.22,38.30 82.28,37.94 82.34,37.41 82.41,37.18 82.47,37.12 82.53,37.00 82.59,36.89 82.66,36.97 82.72,37.16 82.78,37.49 82.84,37.97 82.91,38.46 82.97,38.78 83.03,38.99 83.10,39.24 83.16,39.55 83.22,39.92 83.28,40.37 83.35,40.25 83.41,39.83 83.47,39.16 83.53,38.47 83.60,37.86 83.66,36.63 83.72,36.05 83.78,35.70 83.85,35.23 83.91,34.97 83.97,34.85 84.04,34.65 84.10,34.28 84.16,33.70 84.22,33.22 84.29,33.15 84.35,33.56 84.41,33.73 84.47,33.96 84.54,34.21 84.60,34.44 84.66,34.83 84.72,35.20 84.79,35.49 84.85,35.35 84.91,34.45 84.98,34.00 85.04,33.65 85.10,32.84 85.16,31.85 85.23,30.78 85.29,29.91 85.35,28.70 85.41,28.38 85.48,28.37 85.54,28.09 85.60,28.79 85.66,28.20 85.73,28.41 85.79,28.86 85.85,27.35 85.92,27.16 85.98,26.81 86.04,26.01 86.10,23.70 86.17,23.61 86.23,24.45 86.29,25.88 86.35,26.16 86.42,26.00 86.48,25.61 86.54,24.00 86.60,23.98 86.67,24.82 86.73,25.88 86.79,25.03 86.86,24.66 86.92,23.93 86.98,22.45 87.04,23.08 87.11,22.88 87.17,22.83 87.23,22.94 87.29,22.46 87.36,21.75 87.42,21.60 87.48,21.46 87.54,21.41 87.61,21.33 87.67,21.26 87.73,21.01 87.80,19.49 87.86,18.52 87.92,18.50 87.98,20.64 88.05,20.13 88.11,19.04 88.17,19.78 88.23,20.32 88.30,20.35 88.36,20.14 88.42,18.84 88.49,18.62 88.55,18.18 88.61,18.14 88.67,18.72 88.74,18.84 88.80,18.79 88.86,18.32 88.92,16.66 88.99,16.93 89.05,16.29 89.11,15.25 89.17,14.74 89.24,14.64 89.30,14.36 89.36,14.12 89.43,13.73 89.49,13.27 89.55,12.80 89.61,12.22 89.68,12.31 89.74,12.84 89.80,12.55 89.86,12.24 89.93,13.18 89.99,13.52 90.05,13.81 90.11,13.84 90.18,13.29 90.24,13.14 90.30,13.06 90.37,13.23 90.43,13.48 90.49,13.87 90.55,14.46 90.62,16.09 90.68,16.39 90.74,16.94 90.80,16.90 90.87,16.70 90.93,16.87 90.99,17.07 91.05,16.77 91.12,17.27 91.18,17.84 91.24,18.13 91.31,18.70 91.37,18.95 91.43,18.99 91.49,18.61 91.56,18.70 91.62,18.64 91.68,19.36 91.74,19.11 91.81,18.66 91.87,19.73 91.93,20.80 91.99,20.91 92.06,20.15 92.12,19.13 92.18,19.46 92.25,20.58 92.31,21.61 92.37,21.32 92.43,21.00 92.50,20.76 92.56,21.59 92.62,21.91 92.68,23.79 92.75,24.23 92.81,24.39 92.87,24.67 92.93,24.79 93.00,24.90 93.06,24.98 93.12,25.15 93.19,25.45 93.25,25.76 93.31,26.10 93.37,26.14 93.44,26.22 93.50,26.42 93.56,26.62 93.62,26.64 93.69,26.66 93.75,26.64 93.81,26.65 93.88,26.51 93.94,26.01 94.00,25.41 94.06,25.27 94.13,25.15 94.19,25.40 94.25,25.51 94.31,25.76 94.38,26.37 94.44,27.01 94.50,27.66 94.56,28.24 94.63,28.59 94.69,29.11 94.75,29.35 94.82,29.36 94.88,28.87 94.94,28.58 95.00,28.49 95.07,28.72 95.13,28.74 95.19,29.86 95.25,28.51 95.32,27.96 95.38,27.61 95.44,27.69 95.50,28.68 95.57,29.41 95.63,29.91 95.69,30.34 95.76,29.83 95.82,29.65 95.88,29.65 95.94,29.47 96.01,30.31 96.07,30.57 96.13,30.70 96.19,30.96 96.26,31.51 96.32,31.74 96.38,31.61 96.44,31.36 96.51,30.95 96.57,30.85 96.63,30.73 96.70,30.84 96.76,31.86 96.82,33.38 96.88,33.65 96.95,33.82 97.01,33.86 97.07,33.73 97.13,33.47 97.20,32.95 97.26,33.04 97.32,33.76 97.38,34.23 97.45,34.36 97.51,33.98 97.57,33.70 97.64,34.15 97.70,33.71 97.76,35.36 97.82,36.54 97.89,36.78 97.95,36.64 98.01,36.30 98.07,35.42 98.14,34.09 98.20,34.27 98.26,35.26 98.32,35.56 98.39,35.40 98.45,35.01 98.51,34.54 98.58,33.75 98.64,34.39 98.70,34.65 98.76,34.44 98.83,34.21 98.89,33.32 98.95,33.92 99.01,34.52 99.08,34.69 99.14,34.58 99.20,33.39 99.27,32.80 99.33,32.89 99.39,32.65 99.45,33.73 99.52,34.39 99.58,34.91 99.64,34.90 99.70,34.79 99.77,34.53 99.83,34.19 99.89,34.09 99.95,34.09 100.02,33.84 100.08,33.66 100.14,33.21 100.21,33.40 100.27,34.00 100.33,34.59 100.39,34.73 100.46,34.83 100.52,34.80 100.58,34.66 100.64,33.91 100.71,33.94 100.77,34.90 100.83,35.60 100.89,35.80 100.96,35.70 101.02,35.54 101.08,35.29 101.15,34.94 101.21,34.20 101.27,33.62 101.33,33.49 101.40,32.90 101.46,31.94 101.52,32.60 101.58,32.54 101.65,31.99 101.71,31.52 101.77,32.35 101.83,32.83 101.90,33.10 101.96,32.98 102.02,32.09 102.09,31.45 102.15,31.04 102.21,30.75 102.27,30.55 102.34,30.18 102.40,29.30 102.46,28.60 102.52,28.09 102.59,28.14 102.65,27.93 102.71,27.87 102.77,28.38 102.84,28.39 102.90,28.78 102.96,28.86 103.03,29.38 103.09,29.78 103.15,29.90 103.21,29.24 103.28,29.46 103.34,29.15 103.40,28.35 103.46,28.32 103.53,29.62 103.59,29.59 103.65,29.66 103.71,30.41 103.78,30.83 103.84,32.29 103.90,33.11 103.97,33.46 104.03,34.12 104.09,34.09 104.15,33.99 104.22,34.72 104.28,35.54 104.34,35.78 104.40,35.57 104.47,35.01 104.53,34.82 104.59,34.98 104.66,34.90 104.72,35.64 104.78,36.12 104.84,36.13 104.91,36.74 104.97,36.88 105.03,36.53 105.09,35.31 105.16,34.28 105.22,35.48 105.28,37.83 105.34,38.49 105.41,37.41 105.47,36.70 105.53,36.36 105.60,36.32 105.66,36.66 105.72,36.71 105.78,36.53 105.85,36.17 105.91,35.25 105.97,35.04 106.03,34.93 106.10,34.67 106.16,34.44 106.22,34.07 106.28,33.71 106.35,33.64 106.41,33.32 106.47,32.73 106.54,32.33 106.60,32.09 106.66,31.55 106.72,31.16 106.79,29.64 106.85,29.63 106.91,29.95 106.97,30.51 107.04,30.66 107.10,30.88 107.16,30.85 107.22,30.93 107.29,30.88 107.35,30.96 107.41,30.89 107.48,31.08 107.54,30.82 107.60,30.93 107.66,30.48 107.73,29.91 107.79,29.03 107.85,27.86 107.91,27.85 107.98,26.52 108.04,25.58 108.10,25.33 108.16,25.78 108.23,26.81 108.29,27.88 108.35,28.79 108.42,28.10 108.48,28.30 108.54,29.16 108.60,30.94 108.67,31.36 108.73,31.53 108.79,30.97 108.85,30.73 108.92,30.83 108.98,31.22 109.04,31.83 109.10,32.00 109.17,32.12 109.23,33.12 109.29,33.39 109.36,33.61 109.42,33.70 109.48,31.42 109.54,30.88 109.61,31.68 109.67,31.72 109.73,31.76 109.79,31.33 109.86,30.71 109.92,29.80 109.98,29.60 110.05,29.37 110.11,28.81 110.17,28.17 110.23,27.52 110.30,26.84 110.36,27.83 110.42,27.92 110.48,28.02 110.55,28.35 110.61,28.33 110.67,28.01 110.73,27.70 110.80,27.05 110.86,26.27 110.92,25.79 110.99,25.16 111.05,24.49 111.11,24.46 111.17,24.77 111.24,24.39 111.30,23.11 111.36,21.97 111.42,21.71 111.49,21.91 111.55,22.03 111.61,22.09 111.67,22.02 111.74,21.66 111.80,21.53 111.86,20.56 111.93,20.27 111.99,20.32 112.05,20.05 112.11,20.54 112.18,20.48 112.24,20.93 112.30,21.08 112.36,21.12 112.43,21.14 112.49,21.32 112.55,21.64 112.61,23.48 112.68,22.20 112.74,21.26 112.80,20.88 112.87,20.42 112.93,20.07 112.99,19.47 113.05,19.34 113.12,19.18 113.18,19.07 113.24,18.87 113.30,18.65 113.37,18.14 113.43,17.87 113.49,17.78 113.55,17.66 113.62,17.46 113.68,17.30 113.74,17.13 113.81,16.93 113.87,16.81 113.93,16.66 113.99,16.66 114.06,17.02 114.12,16.89 114.18,15.87 114.24,15.44 114.31,15.13 114.37,15.31 114.43,15.55 114.49,16.22 114.56,16.12 114.62,15.50 114.68,14.79 114.75,15.42 114.81,14.76 114.87,14.79 114.93,16.30 115.00,16.70 115.06,15.54 115.12,15.51 115.18,16.98 115.25,17.26 115.31,17.36 115.37,17.03 115.44,17.35 115.50,17.66 115.56,17.57 115.62,17.93 115.69,18.47 115.75,19.21 115.81,20.02 115.87,19.93 115.94,19.88 116.00,19.84 116.06,20.08 116.12,20.15 116.19,20.88 116.25,22.25 116.31,22.43 116.38,22.63 116.44,22.93 116.50,23.03 116.56,23.26 116.63,23.24 116.69,23.35 116.75,23.31 116.81,22.06 116.88,21.33 116.94,23.29 117.00,24.30 117.06,22.40 117.13,20.97 117.19,21.61 117.25,24.21 117.32,25.29 117.38,25.66 117.44,24.85 117.50,24.41 117.57,24.33 117.63,24.49 117.69,24.47 117.75,24.34 117.82,23.50 117.88,24.18 117.94,24.13 118.00,24.79 118.07,24.88 118.13,25.90 118.19,26.56 118.26,26.28 118.32,26.69 118.38,25.66 118.44,25.93 118.51,26.40 118.57,26.60 118.63,27.16 118.69,27.30 118.76,27.46 118.82,27.15 118.88,27.05 118.94,26.88 119.01,26.39 119.07,25.58 119.13,25.60 119.20,25.89 119.26,25.86 119.32,25.50 119.38,25.18 119.45,24.64 119.51,23.36 119.57,22.61 119.63,22.51 119.70,22.79 119.76,22.70 119.82,22.67 119.88,22.54 119.95,22.27 120.01,21.83 120.07,21.45 120.14,21.06 120.20,20.70 120.26,20.47 120.32,20.23 120.39,19.82 120.45,19.25 120.51,19.25 120.57,19.67 120.64,19.99 120.70,19.58 120.76,18.97 120.83,18.60 120.89,18.46 120.95,18.21 121.01,17.89 121.08,17.80 121.14,17.94 121.20,17.94 121.26,17.59 121.33,16.87 121.39,18.19 121.45,20.04 121.51,20.16 121.58,18.66 121.64,16.97 121.70,15.49 121.77,15.17 121.83,15.68 121.89,16.81 121.95,17.36 122.02,17.31 122.08,17.45 122.14,17.85 122.20,18.10 122.27,18.14 122.33,18.70 122.39,19.05 122.45,19.09 122.52,18.21 122.58,18.16 122.64,18.13 122.71,18.07 122.77,18.02 122.83,17.92 122.89,17.99 122.96,18.50 123.02,19.31 123.08,19.28 123.14,18.97 123.21,18.59 123.27,19.96 123.33,20.27 123.39,21.13 123.46,22.48 123.52,22.92 123.58,22.74 123.65,22.45 123.71,21.62 123.77,21.57 123.83,22.16 123.90,22.92 123.96,23.56 124.02,24.07 124.08,24.34 124.15,23.98 124.21,23.71 124.27,22.46 124.33,21.31 124.40,22.06 124.46,23.37 124.52,23.74 124.59,23.82 124.65,23.62 124.71,23.89 124.77,23.83 124.84,23.16 124.90,22.55 124.96,22.22 125.02,22.19 125.09,22.27 125.15,22.74 125.21,23.97 125.27,25.31 125.34,27.67 125.40,28.85 125.46,29.95 125.53,30.21 125.59,30.35 125.65,29.31 125.71,28.73 125.78,28.08 125.84,28.36 125.90,28.45 125.96,28.46 126.03,27.97 126.09,25.87 126.15,24.92 126.22,24.52 126.28,24.78 126.34,24.94 126.40,25.76 126.47,25.64 126.53,25.60 126.59,25.45 126.65,25.26 126.72,25.04 126.78,24.50 126.84,23.36 126.90,22.37 126.97,21.96 127.03,23.04 127.09,23.51 127.16,23.48 127.22,23.17 127.28,22.65 127.34,22.50 127.41,22.40 127.47,22.14 127.53,22.06 127.59,22.25 127.66,22.10 127.72,21.29 127.78,20.03 127.84,19.91 127.91,20.20 127.97,20.30 128.03,21.71 128.10,22.66 128.16,22.58 128.22,6.77 128.28,6.78 128.35,6.97 128.41,7.76 128.47,8.51 128.53,8.86 128.60,9.21 128.66,9.16 128.72,7.95 128.78,6.96 128.85,6.35 128.91,5.50 128.97,5.79 129.04,7.27 129.10,9.30 129.16,10.86 129.22,11.38 129.29,11.51 129.35,11.19 129.41,12.38 129.47,12.31 129.54,12.84 129.60,12.94 129.66,12.34 129.72,13.89 129.79,14.63 129.85,14.43 129.91,12.81 129.98,12.19 130.04,13.17 130.10,13.78 130.16,15.09 130.23,15.80 130.29,16.23 130.35,16.67 130.41,17.17 130.48,17.18 130.54,17.94 130.60,18.49 130.66,18.63 130.73,18.48 130.79,18.35 130.85,18.92 130.92,19.47 130.98,19.73 131.04,20.03 131.10,20.42 131.17,19.68 131.23,19.75 131.29,20.47 131.35,18.41 131.42,18.85 131.48,18.65 131.54,18.90 131.61,18.90 131.67,18.76 131.73,18.20 131.79,17.44 131.86,16.10 131.92,15.47 131.98,15.12 132.04,14.87 132.11,15.43 132.17,15.82 132.23,15.78 132.29,15.53 132.36,15.33 132.42,15.25 132.48,15.46 132.55,16.09 132.61,16.57 132.67,17.30 132.73,17.49 132.80,17.74 132.86,17.98 132.92,18.16 132.98,18.49 133.05,18.23 133.11,18.08 133.17,17.98 133.23,17.96 133.30,18.22 133.36,17.76 133.42,17.19 133.49,17.50 133.55,18.08 133.61,18.21 133.67,18.41 133.74,18.84 133.80,19.08 133.86,20.08 133.92,21.44 133.99,22.12 134.05,21.76 134.11,21.76 134.17,21.52 134.24,21.29 134.30,21.25 134.36,21.52 134.43,21.85 134.49,21.55 134.55,21.64 134.61,23.00 134.68,23.50 134.74,23.53 134.80,22.80 134.86,21.58 134.93,21.01 134.99,20.65 135.05,21.18 135.11,21.22 135.18,21.53 135.24,21.93 135.30,22.29 135.37,22.68 135.43,23.34 135.49,23.97 135.55,24.47 135.62,23.76 135.68,23.23 135.74,21.97 135.80,21.43 135.87,21.17 135.93,21.73 135.99,21.79 136.05,22.20 136.12,22.58 136.18,22.32 136.24,25.09 136.31,26.19 136.37,26.00 136.43,25.84 136.49,25.60 136.56,25.22 136.62,24.13 136.68,23.45 136.74,23.26 136.81,22.54 136.87,22.11 136.93,21.18 137.00,21.22 137.06,21.33 137.12,21.50 137.18,21.72 137.25,22.32 137.31,22.72 137.37,22.49 137.43,22.73 137.50,23.66 137.56,23.87 137.62,25.05 137.68,25.26 137.75,25.66 137.81,25.17 137.87,25.24 137.94,25.29 138.00,25.11 138.06,24.73 138.12,24.88 138.19,25.18 138.25,25.62 138.31,25.69 138.37,25.58 138.44,25.75 138.50,26.41 138.56,26.53 138.62,26.44 138.69,27.23 138.75,28.47 138.81,28.66 138.88,28.68 138.94,28.77 139.00,28.27 139.06,27.56 139.13,26.55 139.19,25.90 139.25,25.90 139.31,26.01 139.38,26.39 139.44,25.97 139.50,26.00 139.56,25.81 139.63,25.09 139.69,25.91 139.75,26.27 139.82,26.45 139.88,25.53 139.94,25.79 140.00,26.21 140.07,27.31 140.13,27.43 140.19,28.13 140.25,28.20 140.32,27.53 140.38,27.11 140.44,27.63 140.50,27.31 140.57,27.14 140.63,26.38 140.69,26.83 140.76,27.28 140.82,26.60 140.88,27.08 140.94,28.03 141.01,28.05 141.07,27.79 141.13,27.75 141.19,28.24 141.26,29.10 141.32,29.62 141.38,29.61 141.44,28.35 141.51,29.21 141.57,29.08 141.63,29.84 141.70,29.79 141.76,30.12 141.82,30.69 141.88,31.15 141.95,30.18 142.01,30.50 142.07,30.53 142.13,31.62 142.20,31.85 142.26,33.18 142.32,33.51 142.39,33.24 142.45,32.82 142.51,32.51 142.57,32.32 142.64,32.55 142.70,32.57 142.76,32.55 142.82,32.70 142.89,32.02 142.95,33.21 143.01,33.77 143.07,34.11 143.14,34.59 143.20,34.77 143.26,34.98 143.33,34.04 143.39,35.03 143.45,35.32 143.51,35.53 143.58,35.82 143.64,35.79 143.70,35.75 143.76,35.65 143.83,35.56 143.89,35.21 143.95,35.15 144.01,34.78 144.08,33.76 144.14,33.14 144.20,32.01 144.27,30.92 144.33,30.01 144.39,29.04 144.45,28.31 144.52,28.52 144.58,29.86 144.64,31.86 144.70,32.96 144.77,32.44 144.83,31.73 144.89,31.05 144.95,31.31 145.02,31.87 145.08,32.01 145.14,32.47 145.21,32.99 145.27,54.87 145.33,55.07 145.39,55.00 145.46,55.01 145.52,55.21 145.58,55.38 145.64,55.38 145.71,55.71 145.77,55.81 145.83,56.00 145.89,55.86 145.96,55.63 146.02,55.37 146.08,55.19 146.15,55.40 146.21,55.30 146.27,55.30 146.33,55.41 146.40,55.41 146.46,55.47 146.52,55.47 146.58,55.28 146.65,55.09 146.71,54.16 146.77,53.67 146.83,53.50 146.90,53.01 146.96,53.21 147.02,53.21 147.09,52.79 147.15,52.44 147.21,52.00 147.27,51.55 147.34,51.22 147.40,49.98 147.46,49.50 147.52,49.15 147.59,48.63 147.65,47.88 147.71,46.94 147.78,45.94 147.84,45.00 147.90,45.50 147.96,45.01 148.03,44.94 148.09,43.36 148.15,43.36 148.21,42.28 148.28,41.65 148.34,41.94 148.40,41.34 148.46,40.51 148.53,40.51 148.59,39.92 148.65,39.53 148.72,38.51 148.78,39.00 148.84,38.30 148.90,37.32 148.97,38.05 149.03,37.23 149.09,35.74 149.15,36.71 149.22,36.09 149.28,36.79 149.34,36.25 149.40,37.11 149.47,36.96 149.53,37.11 149.59,38.12 149.66,38.34 149.72,38.89 149.78,38.61 149.84,39.41 149.91,40.28 149.97,40.59 150.03,39.57 150.09,40.11 150.16,39.10 150.22,38.56 150.28,37.45 150.34,36.31 150.41,36.31 150.47,35.35 150.53,35.35 150.60,34.75 150.66,34.75 150.72,34.64 150.78,34.86 150.85,33.40 150.91,33.70 150.97,32.53 151.03,32.83 151.10,33.43 151.16,34.25 151.22,34.25 151.28,34.73 151.35,34.73 151.41,34.81 151.47,34.81 151.54,34.77 151.60,34.73 151.66,34.20 151.72,33.73 151.79,33.12 151.85,32.07 151.91,30.77 151.97,29.53 152.04,28.50 152.10,28.50 152.16,28.17 152.22,28.06 152.29,28.45 152.35,29.14 152.41,29.14 152.48,28.65 152.54,27.15 152.60,28.09 152.66,26.89 152.73,26.09 152.79,24.96 152.85,25.75 152.91,25.75 152.98,26.54 153.04,25.58 153.10,26.52 153.17,25.53 153.23,23.86 153.29,24.64 153.35,24.64 153.42,25.01 153.48,26.14 153.54,24.70 153.60,23.31 153.67,22.54 153.73,22.74 153.79,23.28 153.85,23.03 153.92,24.33 153.98,22.98 154.04,21.83 154.11,22.21 154.17,21.66 154.23,21.30 154.29,21.09 154.36,21.20 154.42,21.66 154.48,19.97 154.54,19.75 154.61,18.42 154.67,20.04 154.73,19.60 154.79,19.46 154.86,19.85 154.92,20.47 154.98,21.07 155.05,19.83 155.11,19.58 155.17,19.09 155.23,17.05 155.30,17.26 155.36,17.26 155.42,17.94 155.48,18.40 155.55,17.04 155.61,16.69 155.67,15.78 155.73,16.88 155.80,15.47 155.86,15.87 155.92,15.38 155.99,14.02 156.05,13.54 156.11,14.68 156.17,13.94 156.24,12.38 156.30,12.93 156.36,12.36 156.42,12.38 156.49,12.59 156.55,12.49 156.61,13.23 156.67,12.81 156.74,13.81 156.80,13.56 156.86,13.24 156.93,13.01 156.99,12.84 157.05,12.77 157.11,12.74 157.18,12.66 157.24,14.94 157.30,14.79 157.36,16.60 157.43,15.96 157.49,16.36 157.55,16.36 157.61,16.63 157.68,15.77 157.74,16.89 157.80,16.75 157.87,17.54 157.93,16.39 157.99,18.78 158.05,20.03 158.12,18.52 158.18,17.18 158.24,18.49 158.30,18.08 158.37,17.82 158.43,18.72 158.49,18.08 158.56,19.03 158.62,20.77 158.68,18.80 158.74,19.52 158.81,18.27 158.87,18.44 158.93,20.34 158.99,20.67 159.06,19.48 159.12,20.55 159.18,19.26 159.24,20.91 159.31,21.47 159.37,23.52 159.43,23.52 159.50,23.82 159.56,24.38 159.62,25.04 159.68,25.33 159.75,25.33 159.81,25.53 159.87,25.53 159.93,26.13 160.00,26.63 160.06,26.63 160.12,26.83 160.18,26.83 160.25,26.95 160.31,26.95 160.37,26.88 160.44,26.50 160.50,26.50 160.56,25.88 160.62,25.88 160.69,25.23 160.75,24.92 160.81,24.92 160.87,25.10 160.94,25.10 161.00,25.47 161.06,26.06 161.12,26.06 161.19,26.55 161.25,26.55 161.31,28.78 161.38,29.15 161.44,29.31 161.50,29.38 161.56,28.30 161.63,28.59 161.69,29.08 161.75,27.45 161.81,28.16 161.88,29.00 161.94,29.08 162.00,28.09 162.06,27.57 162.13,27.03 162.19,28.52 162.25,30.02 162.32,29.52 162.38,31.17 162.44,30.77 162.50,30.26 162.57,29.28 162.63,29.85 162.69,29.34 162.75,30.17 162.82,30.93 162.88,30.52 162.94,31.85 163.00,31.41 163.07,31.46 163.13,30.51 163.19,31.22 163.26,30.91 163.32,30.91 163.38,31.00 163.44,31.14 163.51,32.99 163.57,33.85 163.63,33.99 163.69,33.47 163.76,33.40 163.82,32.96 163.88,32.96 163.95,32.93 164.01,33.75 164.07,34.33 164.13,33.47 164.20,32.96 164.26,33.98 164.32,32.04 164.38,34.06 164.45,35.21 164.51,35.87 164.57,36.58 164.63,36.37 164.70,35.60 164.76,36.35 164.82,35.41 164.89,34.13 164.95,35.61 165.01,35.03 165.07,36.25 165.14,35.32 165.20,34.48 165.26,34.07 165.32,34.17 165.39,34.17 165.45,33.88 165.51,33.76 165.57,33.52 165.64,33.70 165.70,34.81 165.76,34.97 165.83,33.84 165.89,32.70 165.95,32.46 166.01,33.36 166.08,33.12 166.14,33.03 166.20,34.74 166.26,32.56 166.33,34.54 166.39,33.27 166.45,33.92 166.51,32.22 166.58,33.52 166.64,34.81 166.70,33.92 166.77,31.74 166.83,33.49 166.89,33.82 166.95,34.95 167.02,34.09 167.08,35.41 167.14,34.20 167.20,35.00 167.27,33.92 167.33,33.45 167.39,34.62 167.45,34.53 167.52,35.72 167.58,35.72 167.64,35.91 167.71,35.87 167.77,35.87 167.83,35.01 167.89,35.01 167.96,34.28 168.02,33.93 168.08,31.85 168.14,31.98 168.21,32.21 168.27,31.44 168.33,30.61 168.39,31.57 168.46,31.57 168.52,32.34 168.58,32.84 168.65,33.35 168.71,32.58 168.77,31.43 168.83,30.48 168.90,31.26 168.96,29.98 169.02,29.57 169.08,28.79 169.15,29.39 169.21,28.02 169.27,27.95 169.34,28.41 169.40,27.96 169.46,27.68 169.52,27.10 169.59,28.22 169.65,28.22 169.71,29.48 169.77,30.13 169.84,28.90 169.90,28.09 169.96,28.04 170.02,27.66 170.09,27.10 170.15,27.43 170.21,28.35 170.28,28.14 170.34,30.99 170.40,31.09 170.46,31.59 170.53,32.08 170.59,32.25 170.65,32.25 170.71,32.59 170.78,32.87 170.84,33.39 170.90,34.45 170.96,34.79 171.03,35.86 171.09,34.85 171.15,34.91 171.22,33.94 171.28,34.92 171.34,33.44 171.40,33.44 171.47,35.19 171.53,35.33 171.59,37.43 171.65,37.28 171.72,36.78 171.78,33.97 171.84,33.80 171.90,34.17 171.97,37.67 172.03,38.10 172.09,36.12 172.16,36.77 172.22,35.40 172.28,35.79 172.34,36.91 172.41,36.34 172.47,36.54 172.53,36.36 172.59,34.87 172.66,34.27 172.72,35.38 172.78,34.69 172.84,35.34 172.91,35.88 172.97,33.45 173.03,33.52 173.10,33.32 173.16,33.32 173.22,33.04 173.28,32.97 173.35,31.04 173.41,31.51 173.47,30.61 173.53,29.45 173.60,29.33 173.66,30.28 173.72,30.75 173.78,29.81 173.85,30.95 173.91,30.07 173.97,31.44 174.04,30.75 174.10,30.12 174.16,29.30 174.22,30.97 174.29,30.11 174.35,29.26 174.41,28.37 174.47,27.63 174.54,27.63 174.60,27.24 174.66,26.60 174.73,25.61 174.79,25.22 174.85,25.57 174.91,26.48 174.98,27.40 175.04,28.08 175.10,27.78 175.16,27.32 175.23,29.77 175.29,30.12 175.35,31.68 175.41,31.13 175.48,31.13 175.54,29.32 175.60,29.32 175.67,30.84 175.73,29.86 175.79,30.87 175.85,31.63 175.92,33.30 175.98,33.47 176.04,33.58 176.10,33.31 176.17,31.24 176.23,31.80 176.29,31.25 176.35,31.73 176.42,31.94 176.48,30.55 176.54,30.55 176.61,30.46 176.67,29.13 176.73,29.53 176.79,29.78 176.86,28.50 176.92,27.60 176.98,26.47 177.04,27.97 177.11,27.97 177.17,28.12 177.23,28.07 177.29,28.32 177.36,28.05 177.42,27.14 177.48,25.99 177.55,26.81 177.61,26.81 177.67,26.24 177.73,25.65 177.80,25.41 177.86,23.81 177.92,23.92 177.98,23.73 178.05,22.07 178.11,22.17 178.17,21.43 178.23,20.70 178.30,22.72 178.36,22.15 178.42,21.56 178.49,21.56 178.55,20.94 178.61,20.94 178.67,20.61 178.74,20.78 178.80,19.78 178.86,21.21 178.92,19.48 178.99,19.41 179.05,20.99 179.11,20.04 179.17,21.07 179.24,21.07 179.30,23.46 179.36,22.27 179.43,21.86 179.49,21.80 179.55,19.82 179.61,19.95 179.68,20.19 179.74,19.81 179.80,18.74 179.86,17.73 179.93,17.73 179.99,18.81 180.05,18.81 180.12,18.12 180.18,17.53 180.24,17.53 180.30,17.05 180.37,17.05 180.43,16.80 180.49,16.70 180.55,16.70 180.62,16.62 180.68,16.62 180.74,16.95 180.80,16.28 180.87,15.25 180.93,16.02 180.99,14.81 181.06,15.33 181.12,14.90 181.18,16.12 181.24,14.78 181.31,15.80 181.37,14.38 181.43,14.21 181.49,15.53 181.56,13.88 181.62,14.97 181.68,15.05 181.74,16.33 181.81,14.59 181.87,15.03 181.93,16.39 182.00,15.71 182.06,16.64 182.12,16.21 182.18,17.16 182.25,18.46 182.31,18.09 182.37,19.19 182.43,18.66 182.50,19.63 182.56,19.53 182.62,19.92 182.68,20.10 182.75,20.10 182.81,19.77 182.87,22.33 182.94,23.27 183.00,23.27 183.06,24.16 183.12,24.16 183.19,22.72 183.25,23.05 183.31,23.05 183.37,22.85 183.44,22.85 183.50,23.14 183.56,21.18 183.62,22.41 183.69,23.93 183.75,21.98 183.81,21.52 183.88,21.52 183.94,23.40 184.00,25.42 184.06,25.51 184.13,24.24 184.19,23.94 184.25,22.87 184.31,24.26 184.38,23.74 184.44,23.29 184.50,23.20 184.56,23.77 184.63,23.77 184.69,24.61 184.75,24.40 184.82,26.19 184.88,25.56 184.94,26.73 185.00,25.94 185.07,25.92 185.13,25.68 185.19,26.02 185.25,26.54 185.32,27.18 185.38,27.72 185.44,27.56 185.51,26.78 185.57,26.31 185.63,26.86 185.69,25.93 185.76,24.67 185.82,25.25 185.88,25.91 185.94,25.91 186.01,25.73 186.07,24.70 186.13,25.75 186.19,23.90 186.26,23.56 186.32,22.84 186.38,22.82 186.45,22.82 186.51,22.12 186.57,23.37 186.63,21.98 186.70,22.02 186.76,21.16 186.82,20.38 186.88,19.70 186.95,20.21 187.01,20.21 187.07,19.59 187.13,17.66 187.20,18.78 187.26,19.48 187.32,20.05 187.39,19.65 187.45,19.05 187.51,17.64 187.57,17.98 187.64,19.31 187.70,18.36 187.76,17.56 187.82,18.73 187.89,16.91 187.95,15.68 188.01,16.69 188.07,17.78 188.14,18.75 188.20,20.23 188.26,18.74 188.33,17.99 188.39,16.22 188.45,15.74 188.51,15.36 188.58,16.92 188.64,16.88 188.70,16.85 188.76,16.85 188.83,17.26 188.89,16.86 188.95,17.59 189.01,17.45 189.08,18.65 189.14,18.41 189.20,17.73 189.27,17.73 189.33,17.44 189.39,17.44 189.45,17.44 189.52,17.64 189.58,18.23 189.64,18.65 189.70,19.30 189.77,18.31 189.83,17.79 189.89,17.98 189.95,19.24 190.02,19.24 190.08,20.84 190.14,22.16 190.21,23.69 190.27,22.63 190.33,21.64 190.39,21.64 190.46,21.64 190.52,23.05 190.58,23.11 190.64,23.57 190.71,23.57 190.77,23.76 190.83,22.94 190.90,22.70 190.96,22.77 191.02,20.69 191.08,21.27 191.15,22.59 191.21,23.31 191.27,23.65 191.33,23.82 191.40,24.40 191.46,22.76 191.52,23.27 191.58,21.46 191.65,22.61 191.71,21.86 191.77,23.52 191.84,21.70 191.90,23.94 191.96,25.38 192.02,27.41 192.09,29.52 192.15,30.08 192.21,30.46 192.27,30.46 192.34,29.60 192.40,28.73 192.46,27.85 192.52,28.42 192.59,28.42 192.65,28.51 192.71,27.75 192.78,25.61 192.84,24.72 192.90,24.63 192.96,23.50 193.03,25.00 193.09,24.54 193.15,24.54 193.21,24.33 193.28,24.11 193.34,24.11 193.40,23.67 193.46,23.67 193.53,22.88 193.59,22.88 193.65,22.44 193.72,23.19 193.78,23.19 193.84,22.93 193.90,22.66 193.97,22.41 194.03,22.26 194.09,22.02 194.15,22.29 194.22,21.89 194.28,21.89 194.34,21.54 194.40,21.54 194.47,19.83 194.53,19.26 194.59,20.18 194.66,20.18 194.72,21.77 194.78,22.42 194.84,22.41 194.91,21.55 194.97,20.91 195.03,21.42 195.09,20.00 195.16,19.73 195.22,20.20 195.28,20.20 195.34,21.22 195.41,22.38 195.47,23.82 195.53,23.47 195.60,21.95 195.66,21.68 195.72,21.89 195.78,21.89 195.85,20.40 195.91,18.87 195.97,18.16 196.03,18.16 196.10,18.75 196.16,20.80 196.22,22.09 196.29,23.04 196.35,21.84 196.41,24.03 196.47,22.84 196.54,23.46 196.60,22.30 196.66,23.76 196.72,22.74 196.79,24.31 196.85,23.76 196.91,25.20 196.97,25.23 197.04,24.22 197.10,24.96 197.16,26.40 197.23,26.75 197.29,26.30 197.35,25.57 197.41,24.74 197.48,24.45 197.54,23.60 197.60,24.81 197.66,25.33 197.73,25.28 197.79,24.88 197.85,23.80 197.91,24.92 197.98,23.78 198.04,22.72 198.10,21.76 198.17,21.30 198.23,21.58 198.29,21.06 198.35,21.00 198.42,21.64 198.48,21.28 198.54,19.33 198.60,20.48 198.67,18.36 198.73,17.42 198.79,17.39 198.85,17.56 198.92,18.55 198.98,19.63 199.04,18.54 199.11,17.77 199.17,17.77 199.23,16.18 199.29,14.96 199.36,14.60 199.42,15.29 199.48,14.97 199.54,14.35 199.61,16.08 199.67,16.70 199.73,16.82 199.79,15.49 199.86,15.25 199.92,16.64 199.98,16.61 200.05,15.27 200.11,14.40 200.17,14.28 200.23,14.07 200.30,15.17 200.36,14.06 200.42,13.75 200.48,12.89 200.55,12.83 200.61,12.23 200.67,11.75 200.73,12.91 200.80,12.57 200.86,12.57 200.92,12.28 200.99,11.98 201.05,11.98 201.11,11.69 201.17,10.26 201.24,10.10 201.30,10.12 201.36,9.11 201.42,8.49 201.49,7.29 201.55,8.39 201.61,7.41 201.68,7.96 201.74,6.97 201.80,7.84 201.86,9.36 201.93,8.36 201.99,7.87 202.05,7.87 202.11,7.32 202.18,7.32 202.24,7.22 202.30,6.33 202.36,6.94 202.43,7.82 202.49,7.62 202.55,7.29 202.62,7.29 202.68,7.04 202.74,7.04 202.80,6.91 202.87,6.92 202.93,6.92 202.99,7.16 203.05,7.16 203.12,7.30 203.18,7.30 203.24,7.40 203.30,6.15 203.37,5.99 203.43,5.33 203.49,5.85 203.56,6.23 203.62,6.23 203.68,6.86 203.74,6.86 203.81,7.83 203.87,7.77 203.93,9.06 203.99,8.06 204.06,8.51 204.12,8.51 204.18,7.85 204.24,5.58 204.31,6.07 204.37,5.97 204.43,7.38 204.50,9.17 204.56,10.25 204.62,10.71 204.68,11.10 204.75,12.14 204.81,11.95 204.87,11.95 204.93,11.90 205.00,12.09 205.06,13.23 205.12,13.23 205.18,14.26 205.25,13.26 205.31,12.62 205.37,12.81 205.44,12.70 205.50,14.33 205.56,15.78 205.62,15.19 205.69,16.07 205.75,16.78 205.81,17.33 205.87,16.13 205.94,17.01 206.00,18.50 206.06,18.59 206.12,18.36 206.19,17.46 206.25,18.58 206.31,19.35 206.38,19.85 206.44,19.85 206.50,20.15 206.56,19.00 206.63,20.01 206.69,20.17 206.75,18.44 206.81,19.36 206.88,17.90 206.94,18.98 207.00,18.95 207.07,19.02 207.13,17.66 207.19,17.09 207.25,15.83 207.32,15.33 207.38,15.36 207.44,14.33 207.50,15.70 207.57,15.63 207.63,15.76 207.69,15.76 207.75,15.45 207.82,15.49 207.88,15.24 207.94,15.28 208.01,17.01 208.07,17.01 208.13,17.36 208.19,17.36 208.26,17.74 208.32,17.74 208.38,18.15 208.44,18.13 208.51,18.13 208.57,18.00 208.63,18.00 208.69,17.84 208.76,18.04 208.82,17.36 208.88,17.85 208.95,18.02 209.01,17.59 209.07,18.45 209.13,18.45 209.20,18.80 209.26,20.38 209.32,21.06 209.38,21.38 209.45,21.28 209.51,21.99 209.57,21.99 209.63,21.56 209.70,21.37 209.76,20.83 209.82,21.63 209.89,21.08 209.95,21.08 210.01,22.02 210.07,23.16 210.14,23.61 210.20,21.92 210.26,20.42 210.32,21.45 210.39,21.45 210.45,20.99 210.51,20.99 210.57,21.04 210.64,21.58 210.70,21.75 210.76,22.16 210.83,23.42 210.89,24.12 210.95,23.51 211.01,23.72 211.08,22.89 211.14,22.16 211.20,21.73 211.26,21.79 211.33,22.28 211.39,22.52 211.45,22.26 211.51,22.26 211.58,21.33 211.64,23.59 211.70,25.59 211.77,25.86 211.83,25.86 211.89,25.41 211.95,24.57 212.02,23.94 212.08,23.51 212.14,23.51 212.20,23.15 212.27,22.59 212.33,21.01 212.39,20.61 212.46,21.71 212.52,21.86 212.58,21.94 212.64,21.94 212.71,22.54 212.77,22.33 212.83,23.32 212.89,24.04 212.96,23.21 213.02,24.48 213.08,25.26 213.14,25.25 213.21,25.02 213.27,24.94 213.33,25.28 213.40,24.91 213.46,24.88 213.52,25.10 213.58,25.24 213.65,25.82 213.71,25.62 213.77,26.01 213.83,25.54 213.90,26.24 213.96,26.32 214.02,26.32 214.08,26.48 214.15,28.19 214.21,28.82 214.27,28.51 214.34,28.64 214.40,28.26 214.46,27.76 214.52,26.54 214.59,27.89 214.65,26.87 214.71,24.97 214.77,26.95 214.84,25.82 214.90,27.19 214.96,26.75 215.02,24.61 215.09,24.90 215.15,25.93 215.21,25.78 215.28,25.72 215.34,25.72 215.40,26.51 215.46,27.57 215.53,26.69 215.59,27.63 215.65,27.86 215.71,27.75 215.78,27.21 215.84,27.70 215.90,26.80 215.96,27.20 216.03,26.45 216.09,27.34 216.15,27.96 216.22,27.00 216.28,27.94 216.34,27.37 216.40,28.39 216.47,28.05 216.53,27.20 216.59,29.03 216.65,29.03 216.72,28.73 216.78,29.70 216.84,28.60 216.90,30.26 216.97,29.33 217.03,30.17 217.09,29.54 217.16,30.93 217.22,30.89 217.28,30.69 217.34,30.59 217.41,30.89 217.47,31.58 217.53,31.53 217.59,31.53 217.66,32.20 217.72,33.60 217.78,33.66 217.85,33.13 217.91,32.63 217.97,31.81 218.03,32.17 218.10,32.45 218.16,32.77 218.22,32.11 218.28,32.75 218.35,32.95 218.41,34.16 218.47,33.63 218.53,34.46 218.60,35.16 218.66,34.28 218.72,34.89 218.79,35.41 218.85,35.62 218.91,35.54 218.97,35.84 219.04,36.17 219.10,36.17 219.16,36.25 219.22,36.25 219.29,34.30 219.35,34.30 219.41,34.09 219.47,34.11 219.54,33.04 219.60,31.87 219.66,30.86 219.73,29.87 219.79,28.96 219.85,28.39 219.91,28.89 219.98,30.38 220.04,31.91 220.10,32.60 220.16,32.01 220.23,32.01 220.29,31.14 220.35,30.99 220.41,32.64 220.48,32.63 220.54,32.87 220.60,33.22 220.67,54.80 220.73,54.80 220.79,54.80 220.85,55.20 220.92,55.20 220.98,55.20 221.04,55.39 221.10,55.39 221.17,55.39 221.23,55.38 221.29,55.38 221.35,55.38 221.42,53.40 221.48,53.40 221.54,54.78 221.61,54.78 221.67,54.78 221.73,54.78 221.79,54.78 221.86,55.31 221.92,55.31 221.98,55.31 222.04,55.31 222.11,54.38 222.17,52.77 222.23,52.77 222.29,52.77 222.36,53.28 222.42,53.28 222.48,53.28 222.55,53.28 222.61,52.26 222.67,52.26 222.73,52.26 222.80,49.09 222.86,49.09 222.92,49.09 222.98,46.97 223.05,46.97 223.11,46.97 223.17,44.51 223.24,44.51 223.30,48.21 223.36,47.56 223.42,47.56 223.49,43.62 223.55,43.62 223.61,44.66 223.67,44.66 223.74,44.66 223.80,41.53 223.86,41.53 223.92,41.53 223.99,41.53 224.05,40.08 224.11,37.77 224.18,37.77 224.24,37.77 224.30,34.97 224.36,34.97 224.43,34.97 224.49,34.97 224.55,36.79 224.61,33.48 224.68,33.48 224.74,35.28 224.80,35.28 224.86,35.28 224.93,35.84 224.99,35.84 225.05,35.84 225.12,38.07 225.18,38.07 225.24,38.07 225.30,39.71 225.37,39.71 225.43,36.05 225.49,39.71 225.55,39.09 225.62,39.09 225.68,38.58 225.74,38.58 225.80,38.58 225.87,35.82 225.93,35.82 225.99,35.82 226.06,35.82 226.12,35.82 226.18,35.03 226.24,32.92 226.31,32.92 226.37,31.90 226.43,31.90 226.49,31.90 226.56,32.62 226.62,32.62 226.68,32.62 226.74,32.62 226.81,32.62 226.87,32.62 226.93,33.58 227.00,33.58 227.06,33.58 227.12,33.05 227.18,33.05 227.25,33.05 227.31,29.50 227.37,29.50 227.43,30.19 227.50,30.19 227.56,27.41 227.62,27.41 227.68,28.70 227.75,28.70 227.81,28.70 227.87,31.00 227.94,28.69 228.00,28.69 228.06,28.69 228.12,28.69 228.19,26.59 228.25,26.59 228.31,26.59 228.37,26.59 228.44,29.71 228.50,29.71 228.56,29.71 228.63,24.28 228.69,27.01 228.75,27.01 228.81,27.01 228.88,27.01 228.94,25.02 229.00,25.02 229.06,25.02 229.13,26.10 229.19,26.10 229.25,26.10 229.31,29.66 229.38,26.06 229.44,26.06 229.50,26.06 229.57,23.49 229.63,23.49 229.69,23.49 229.75,23.31 229.82,23.31 229.88,23.31 229.94,18.26 230.00,18.26 230.07,21.97 230.13,18.29 230.19,18.29 230.25,20.07 230.32,20.07 230.38,20.07 230.44,20.07 230.51,21.96 230.57,19.73 230.63,15.72 230.69,15.72 230.76,15.72 230.82,13.81 230.88,13.81 230.94,13.81 231.01,16.73 231.07,16.73 231.13,16.73 231.19,16.73 231.26,18.99 231.32,14.80 231.38,14.80 231.45,14.80 231.51,17.77 231.57,13.06 231.63,13.06 231.70,13.06 231.76,15.24 231.82,11.85 231.88,11.85 231.95,11.85 232.01,12.64 232.07,12.64 232.13,12.64 232.20,11.82 232.26,11.82 232.32,11.82 232.39,11.31 232.45,11.31 232.51,11.31 232.57,10.37 232.64,10.37 232.70,10.37 232.76,15.62 232.82,9.53 232.89,9.53 232.95,9.53 233.01,12.46 233.07,12.46 233.14,12.46 233.20,16.80 233.26,12.94 233.33,12.94 233.39,12.94 233.45,19.73 233.51,16.55 233.58,16.55 233.64,16.55 233.70,15.30 233.76,15.30 233.83,15.30 233.89,16.10 233.95,16.10 234.02,16.10 234.08,16.10 234.14,15.33 234.20,15.33 234.27,15.33 234.33,20.31 234.39,15.51 234.45,15.51 234.52,18.39 234.58,18.39 234.64,18.39 234.70,21.00 234.77,21.00 234.83,21.00 234.89,21.00 234.96,24.12 235.02,24.12 235.08,24.12 235.14,24.12 235.21,25.29 235.27,25.29 235.33,25.29 235.39,25.29 235.46,25.29 235.52,26.39 235.58,26.39 235.64,26.39 235.71,26.39 235.77,26.39 235.83,26.03 235.90,26.03 235.96,26.03 236.02,26.03 236.08,26.03 236.15,24.99 236.21,24.99 236.27,24.99 236.33,24.99 236.40,24.99 236.46,25.83 236.52,25.83 236.58,25.83 236.65,25.83 236.71,25.83 236.77,27.24 236.84,27.24 236.90,27.24 236.96,28.16 237.02,28.16 237.09,28.16 237.15,28.16 237.21,29.60 237.27,29.60 237.34,29.60 237.40,29.58 237.46,29.58 237.52,29.58 237.59,30.46 237.65,30.46 237.71,27.32 237.78,33.18 237.84,33.18 237.90,33.18 237.96,29.57 238.03,29.57 238.09,29.57 238.15,29.57 238.21,31.03 238.28,31.03 238.34,31.03 238.40,29.49 238.46,29.49 238.53,29.49 238.59,31.17 238.65,31.17 238.72,31.17 238.78,31.17 238.84,28.32 238.90,28.32 238.97,28.32 239.03,31.36 239.09,31.36 239.15,34.45 239.22,32.00 239.28,32.00 239.34,32.00 239.41,35.41 239.47,32.87 239.53,32.87 239.59,32.87 239.66,32.98 239.72,32.98 239.78,32.98 239.84,28.92 239.91,33.74 239.97,33.74 240.03,33.74 240.09,33.85 240.16,36.14 240.22,36.14 240.28,36.14 240.35,31.93 240.41,31.93 240.47,37.28 240.53,35.20 240.60,35.20 240.66,35.20 240.72,33.96 240.78,33.96 240.85,33.96 240.91,33.96 240.97,34.26 241.03,34.26 241.10,34.26 241.16,33.14 241.22,33.14 241.29,33.14 241.35,35.47 241.41,35.47 241.47,29.09 241.54,34.04 241.60,34.04 241.66,34.04 241.72,34.04 241.79,29.85 241.85,29.85 241.91,29.85 241.97,34.10 242.04,34.10 242.10,34.10 242.16,28.21 242.23,34.96 242.29,34.96 242.35,34.96 242.41,31.55 242.48,36.49 242.54,36.49 242.60,33.39 242.66,33.39 242.73,33.39 242.79,34.95 242.85,32.58 242.91,34.95 242.98,34.95 243.04,34.95 243.10,34.95 243.17,34.95 243.23,34.65 243.29,34.65 243.35,34.65 243.42,34.65 243.48,29.41 243.54,30.23 243.60,30.23 243.67,30.23 243.73,27.87 243.79,27.87 243.85,27.87 243.92,31.86 243.98,31.86 244.04,31.86 244.11,31.59 244.17,31.59 244.23,33.03 244.29,33.03 244.36,29.03 244.42,29.03 244.48,31.47 244.54,31.47 244.61,27.46 244.67,27.46 244.73,30.25 244.80,28.31 244.86,26.10 244.92,26.10 244.98,26.10 245.05,26.10 245.11,27.34 245.17,27.34 245.23,27.34 245.30,25.51 245.36,25.51 245.42,25.51 245.48,25.54 245.55,25.54 245.61,25.54 245.67,26.00 245.74,26.00 245.80,26.00 245.86,27.49 245.92,27.49 245.99,27.49 246.05,27.49 246.11,30.61 246.17,30.61 246.24,30.61 246.30,34.25 246.36,34.25 246.42,34.25 246.49,36.01 246.55,36.01 246.61,30.13 246.68,31.61 246.74,31.61 246.80,31.61 246.86,31.61 246.93,32.56 246.99,32.56 247.05,32.56 247.11,31.96 247.18,31.96 247.24,31.96 247.30,34.43 247.36,34.43 247.43,36.98 247.49,36.98 247.55,36.98 247.62,33.75 247.68,33.75 247.74,37.82 247.80,37.82 247.87,35.03 247.93,35.03 247.99,35.03 248.05,34.04 248.12,34.04 248.18,34.04 248.24,37.10 248.30,37.10 248.37,37.10 248.43,38.93 248.49,38.93 248.56,38.93 248.62,38.93 248.68,39.16 248.74,31.02 248.81,31.02 248.87,32.76 248.93,32.76 248.99,30.07 249.06,30.07 249.12,27.27 249.18,27.27 249.24,31.04 249.31,28.58 249.37,28.58 249.43,28.58 249.50,26.07 249.56,26.07 249.62,26.07 249.68,23.82 249.75,23.82 249.81,23.82 249.87,22.21 249.93,22.21 250.00,22.21 250.06,22.21 250.12,21.59 250.19,21.59 250.25,21.59 250.31,23.01 250.37,23.01 250.44,23.01 250.50,23.96 250.56,23.96 250.62,29.84 250.69,29.57 250.75,29.57 250.81,29.57 250.87,25.08 250.94,25.08 251.00,25.08 251.06,30.76 251.13,27.45 251.19,27.45 251.25,27.45 251.31,32.84 251.38,31.41 251.44,31.41 251.50,32.11 251.56,32.55 251.63,32.55 251.69,32.55 251.75,33.12 251.81,33.12 251.88,30.55 251.94,30.55 252.00,30.44 252.07,30.44 252.13,30.44 252.19,31.12 252.25,31.12 252.32,26.58 252.38,26.58 252.44,28.91 252.50,28.91 252.57,27.72 252.63,27.72 252.69,27.72 252.75,27.72 252.82,29.51 252.88,29.51 252.94,29.51 253.01,29.51 253.07,27.73 253.13,27.73 253.19,27.73 253.26,27.15 253.32,27.15 253.38,27.15 253.44,22.55 253.51,22.55 253.57,22.55 253.63,19.41 253.69,19.41 253.76,19.41 253.82,19.41 253.88,19.41 253.95,17.39 254.01,17.39 254.07,17.39 254.13,17.39 254.20,18.25 254.26,18.25 254.32,18.25 254.38,13.20 254.45,16.14 254.51,16.14 254.57,16.14 254.63,16.14 254.70,19.55 254.76,19.55 254.82,23.06 254.89,23.06 254.95,23.06 255.01,24.01 255.07,24.01 255.14,18.16 255.20,18.16 255.26,18.16 255.32,18.16 255.39,18.70 255.45,18.70 255.51,18.70 255.58,18.70 255.64,18.70 255.70,16.87 255.76,16.87 255.83,16.87 255.89,16.87 255.95,16.87 256.01,16.53 256.08,16.53 256.14,16.53 256.20,12.67 256.26,14.22 256.33,14.22 256.39,14.22 256.45,11.36 256.52,11.36 256.58,15.44 256.64,10.27 256.70,10.27 256.77,10.27 256.83,14.14 256.89,14.14 256.95,9.60 257.02,9.60 257.08,14.79 257.14,14.79 257.20,10.50 257.27,10.50 257.33,14.68 257.39,14.68 257.46,14.68 257.52,15.50 257.58,15.50 257.64,17.15 257.71,17.15 257.77,17.15 257.83,17.15 257.89,20.44 257.96,20.44 258.02,20.44 258.08,25.07 258.14,25.07 258.21,25.07 258.27,25.07 258.33,26.78 258.40,26.78 258.46,26.78 258.52,26.78 258.58,26.78 258.65,24.71 258.71,24.71 258.77,24.71 258.83,24.71 258.90,24.71 258.96,20.18 259.02,20.18 259.08,23.55 259.15,23.55 259.21,19.93 259.27,19.93 259.34,23.63 259.40,23.63 259.46,23.63 259.52,19.99 259.59,19.99 259.65,19.99 259.71,23.58 259.77,23.58 259.84,23.58 259.90,24.80 259.96,24.80 260.02,24.80 260.09,24.80 260.15,26.93 260.21,26.93 260.28,26.93 260.34,23.79 260.40,23.79 260.46,23.61 260.53,23.61 260.59,23.61 260.65,25.28 260.71,25.28 260.78,25.28 260.84,25.24 260.90,25.24 260.97,25.24 261.03,25.24 261.09,24.54 261.15,24.54 261.22,24.54 261.28,22.78 261.34,22.78 261.40,21.23 261.47,21.23 261.53,26.25 261.59,24.11 261.65,24.11 261.72,24.11 261.78,21.82 261.84,21.82 261.91,21.82 261.97,21.82 262.03,18.20 262.09,21.16 262.16,21.16 262.22,18.61 262.28,18.61 262.34,18.61 262.41,18.61 262.47,15.21 262.53,16.68 262.59,16.68 262.66,16.68 262.72,19.20 262.78,19.20 262.85,19.20 262.91,16.52 262.97,16.52 263.03,20.45 263.10,18.93 263.16,14.08 263.22,14.08 263.28,14.08 263.35,15.72 263.41,15.72 263.47,15.72 263.53,17.92 263.60,17.92 263.66,17.92 263.72,19.79 263.79,19.79 263.85,15.36 263.91,15.36 263.97,17.09 264.04,17.01 264.10,17.01 264.16,17.01 264.22,17.01 264.29,14.97 264.35,14.97 264.41,14.97 264.47,17.42 264.54,17.42 264.60,17.83 264.66,17.83 264.73,17.83 264.79,17.83 264.85,17.83 264.91,17.88 264.98,17.88 265.04,15.09 265.10,18.78 265.16,18.78 265.23,19.79 265.29,19.79 265.35,19.79 265.41,19.79 265.48,24.91 265.54,19.58 265.60,19.58 265.67,23.35 265.73,23.35 265.79,23.35 265.85,21.09 265.92,26.93 265.98,26.93 266.04,24.43 266.10,24.43 266.17,24.43 266.23,24.43 266.29,18.83 266.36,18.83 266.42,18.83 266.48,20.52 266.54,20.52 266.61,20.52 266.67,21.93 266.73,21.93 266.79,21.93 266.86,23.98 266.92,23.98 266.98,17.00 267.04,22.08 267.11,22.08 267.17,22.08 267.23,22.08 267.30,28.51 267.36,26.42 267.42,26.42 267.48,29.79 267.55,29.79 267.61,29.79 267.67,29.79 267.73,26.63 267.80,27.36 267.86,27.36 267.92,27.36 267.98,27.36 268.05,28.05 268.11,28.05 268.17,28.05 268.24,24.23 268.30,24.23 268.36,24.23 268.42,25.40 268.49,25.40 268.55,25.40 268.61,25.40 268.67,24.04 268.74,24.04 268.80,24.04 268.86,24.04 268.92,24.04 268.99,24.04 269.05,22.87 269.11,20.60 269.18,20.60 269.24,20.60 269.30,20.60 269.36,19.68 269.43,19.68 269.49,19.68 269.55,19.88 269.61,19.88 269.68,19.88 269.74,19.88 269.80,21.39 269.86,17.33 269.93,17.33 269.99,20.39 270.05,20.39 270.12,18.79 270.18,18.79 270.24,21.12 270.30,21.12 270.37,21.12 270.43,22.97 270.49,20.25 270.55,20.25 270.62,20.25 270.68,20.25 270.74,20.07 270.80,20.07 270.87,20.07 270.93,23.27 270.99,19.05 271.06,19.05 271.12,19.05 271.18,19.05 271.24,18.90 271.31,18.90 271.37,16.45 271.43,16.45 271.49,16.45 271.56,16.45 271.62,20.66 271.68,20.66 271.75,17.03 271.81,17.03 271.87,17.03 271.93,23.59 272.00,20.47 272.06,20.47 272.12,20.47 272.18,19.88 272.25,19.88 272.31,24.31 272.37,24.31 272.43,22.17 272.50,22.17 272.56,24.54 272.62,24.54 272.69,25.30 272.75,25.30 272.81,25.30 272.87,24.87 272.94,24.87 273.00,24.87 273.06,24.87 273.12,25.92 273.19,25.92 273.25,25.92 273.31,25.92 273.37,25.00 273.44,25.00 273.50,25.00 273.56,22.99 273.63,22.99 273.69,22.99 273.75,20.63 273.81,20.63 273.88,20.63 273.94,19.01 274.00,22.39 274.06,22.39 274.13,22.39 274.19,18.22 274.25,18.22 274.31,18.22 274.38,19.29 274.44,19.29 274.50,19.29 274.57,19.29 274.63,18.24 274.69,18.24 274.75,18.24 274.82,17.29 274.88,15.03 274.94,15.03 275.00,15.03 275.07,13.00 275.13,16.02 275.19,16.02 275.25,19.35 275.32,19.35 275.38,16.83 275.44,16.83 275.51,16.83 275.57,14.83 275.63,14.83 275.69,14.83 275.76,14.83 275.82,13.81 275.88,13.81 275.94,13.81 276.01,11.35 276.07,11.35 276.13,11.35 276.19,11.35 276.26,11.35 276.32,9.79 276.38,9.79 276.45,9.79 276.51,9.79 276.57,8.98 276.63,8.98 276.70,8.98 276.76,9.23 276.82,5.83 276.88,5.83 276.95,5.83 277.01,5.83 277.07,6.06 277.14,6.06 277.20,6.06 277.26,6.06 277.32,4.23 277.39,4.23 277.45,4.23 277.51,4.23 277.57,4.23 277.64,4.66 277.70,4.66 277.76,4.66 277.82,7.12 277.89,7.12 277.95,7.12 278.01,7.12 278.08,7.16 278.14,7.16 278.20,7.16 278.26,7.16 278.33,7.16 278.39,6.97 278.45,6.97 278.51,6.97 278.58,6.97 278.64,6.97 278.70,5.14 278.76,5.14 278.83,7.35 278.89,7.35 278.95,5.13 279.02,5.13 279.08,7.58 279.14,7.58 279.20,7.15 279.27,7.15 279.33,7.15 279.39,4.00 279.45,4.00 279.52,4.00 279.58,7.87 279.64,4.91 279.70,4.91 279.77,4.91 279.83,7.35 279.89,7.35 279.96,7.35 280.02,10.47 280.08,10.47 280.14,10.47 280.21,15.80 280.27,15.80 280.33,11.50 280.39,11.50 280.46,15.65 280.52,15.65 280.58,11.06 280.64,11.06 280.71,12.72 280.77,12.72 280.83,12.72 280.90,16.41 280.96,16.41 281.02,11.27 281.08,14.73 281.15,14.73 281.21,14.73 281.27,14.73 281.33,16.92 281.40,16.92 281.46,16.92 281.52,17.49 281.58,17.49 281.65,17.49 281.71,17.49 281.77,19.18 281.84,19.18 281.90,19.18 281.96,19.18 282.02,19.18 282.09,19.12 282.15,19.12 282.21,19.12 282.27,19.12 282.34,21.05 282.40,17.87 282.46,17.87 282.53,17.87 282.59,17.17 282.65,17.17 282.71,17.17 282.78,13.07 282.84,13.07 282.90,16.91 282.96,15.15 283.03,15.15 283.09,15.15 283.15,15.15 283.21,15.72 283.28,15.72 283.34,15.72 283.40,15.41 283.47,15.41 283.53,15.41 283.59,15.41 283.65,16.38 283.72,16.38 283.78,16.38 283.84,16.38 283.90,16.38 283.97,16.53 284.03,16.53 284.09,16.53 284.15,16.53 284.22,17.46 284.28,17.46 284.34,17.46 284.41,17.46 284.47,18.61 284.53,18.61 284.59,18.61 284.66,18.61 284.72,19.68 284.78,19.68 284.84,19.68 284.91,19.84 284.97,19.84 285.03,19.84 285.09,20.99 285.16,20.99 285.22,19.03 285.28,19.03 285.35,19.03 285.41,19.03 285.47,22.63 285.53,22.63 285.60,21.93 285.66,21.93 285.72,21.93 285.78,21.93 285.85,19.91 285.91,19.91 285.97,19.91 286.03,19.91 286.10,21.69 286.16,19.05 286.22,19.05 286.29,23.25 286.35,23.25 286.41,20.47 286.47,20.47 286.54,20.47 286.60,19.46 286.66,19.46 286.72,19.46 286.79,18.61 286.85,18.61 286.91,18.61 286.97,18.61 287.04,18.48 287.10,24.10 287.16,24.10 287.23,24.10 287.29,24.10 287.35,23.55 287.41,24.87 287.48,24.87 287.54,24.87 287.60,21.45 287.66,23.81 287.73,23.81 287.79,19.71 287.85,19.71 287.92,22.87 287.98,22.87 288.04,22.87 288.10,20.14 288.17,23.22 288.23,23.22 288.29,23.22 288.35,21.30 288.42,24.66 288.48,24.66 288.54,24.66 288.60,26.68 288.67,24.91 288.73,24.91 288.79,24.91 288.86,24.87 288.92,24.87 288.98,24.87 289.04,25.76 289.11,25.05 289.17,25.05 289.23,25.05 289.29,26.48 289.36,26.40 289.42,26.40 289.48,26.40 289.54,26.40 289.61,27.43 289.67,27.43 289.73,28.65 289.80,28.65 289.86,28.65 289.92,28.49 289.98,28.49 290.05,28.49 290.11,28.49 290.17,30.89 290.23,29.94 290.30,29.94 290.36,29.94 290.42,28.27 290.48,28.27 290.55,28.27 290.61,25.70 290.67,25.70 290.74,25.70 290.80,25.70 290.86,27.22 290.92,27.22 290.99,27.22 291.05,27.22 291.11,27.96 291.17,27.96 291.24,29.58 291.30,29.58 291.36,29.58 291.42,27.88 291.49,27.88 291.55,27.88 291.61,30.57 291.68,30.57 291.74,30.57 291.80,33.59 291.86,29.73 291.93,29.73 291.99,29.73 292.05,28.74 292.11,28.74 292.18,34.64 292.24,31.91 292.30,31.91 292.36,31.91 292.43,31.91 292.49,29.61 292.55,34.13 292.62,34.13 292.68,33.54 292.74,33.54 292.80,33.54 292.87,34.51 292.93,30.40 292.99,30.40 293.05,30.40 293.12,34.12 293.18,34.12 293.24,34.12 293.31,33.90 293.37,33.90 293.43,33.90 293.49,34.17 293.56,34.17 293.62,31.21 293.68,32.82 293.74,32.82 293.81,32.82 293.87,32.82 293.93,35.76 293.99,35.76 294.06,33.08 294.12,34.64 294.18,34.64 294.25,34.64 294.31,35.33 294.37,36.93 294.43,36.93 294.50,36.93 294.56,36.93 294.62,36.93 294.68,37.31 294.75,37.31 294.81,37.31 294.87,37.31 294.93,34.97 295.00,34.97 295.06,34.97 295.12,32.07 295.19,32.07 295.25,32.07 295.31,31.17 295.37,31.17 295.44,31.17 295.50,33.96 295.56,33.96 295.62,33.96 295.69,33.96 295.75,33.78 295.81,33.78 295.87,33.78 295.94,33.78 296.00,33.78" />
</svg>