<svg width="300" height="60" xmlns="http://www.w3.org/2000/svg">
  <polyline fill="rgba(255,200,0,0.3)" stroke="#ffbb00" stroke-width="2" points="4.00,55.56 4.37,55.38 4.73,54.90 5.10,54.83 5.46,54.17 5.83,53.42 6.19,53.45 6.56,52.63 6.92,52.22 7.29,52.36 7.65,52.34 8.02,52.77 8.39,52.07 8.75,50.63 9.12,49.59 9.48,49.20 9.85,49.23 10.21,49.54 10.58,48.64 10.94,47.73 11.31,46.12 11.67,44.57 12.04,41.61 12.41,39.64 12.77,37.02 13.14,34.38 13.50,32.64 13.87,31.67 14.23,31.29 14.60,32.85 14.96,33.61 15.33,33.96 15.69,34.72 16.06,36.79 16.43,39.80 16.79,42.41 17.16,45.87 17.52,46.42 17.89,47.25 18.25,48.07 18.62,49.06 18.98,49.65 19.35,48.71 19.71,47.75 20.08,45.38 20.45,43.20 20.81,41.19 21.18,39.46 21.54,39.24 21.91,39.71 22.27,42.12 22.64,44.02 23.00,45.88 23.37,45.56 23.73,42.58 24.10,39.75 24.47,37.38 24.83,36.53 25.20,37.29 25.56,39.25 25.93,41.40 26.29,42.96 26.66,44.41 27.02,45.46 27.39,45.96 27.75,46.42 28.12,45.01 28.49,44.18 28.85,41.84 29.22,39.21 29.58,36.38 29.95,32.84 30.31,29.23 30.68,26.66 31.04,26.25 31.41,27.28 31.77,28.52 32.14,30.64 32.51,32.55 32.87,32.65 33.24,32.49 33.60,33.24 33.97,34.71 34.33,35.13 34.70,35.14 35.06,34.49 35.43,33.56 35.79,32.73 36.16,32.15 36.53,31.95 36.89,32.25 37.26,33.53 37.62,34.93 37.99,36.84 38.35,36.52 38.72,35.11 39.08,33.28 39.45,30.93 39.81,28.35 40.18,25.23 40.55,22.93 40.91,20.76 41.28,18.97 41.64,17.25 42.01,15.85 42.37,14.70 42.74,14.31 43.10,14.71 43.47,15.33 43.83,14.53 44.20,13.58 44.57,13.51 44.93,14.85 45.30,16.64 45.66,18.07 46.03,18.60 46.39,18.04 46.76,16.99 47.12,15.67 47.49,14.29 47.85,13.68 48.22,14.48 48.59,15.84 48.95,17.27 49.32,20.05 49.68,22.29 50.05,24.10 50.41,25.18 50.78,25.11 51.14,25.01 51.51,24.99 51.87,24.55 52.24,24.06 52.61,23.37 52.97,22.69 53.34,21.67 53.70,21.07 54.07,20.32 54.43,19.86 54.80,19.12 55.16,18.39 55.53,17.82 55.89,18.41 56.26,18.58 56.63,19.28 56.99,17.85 57.36,15.93 57.72,14.41 58.09,13.67 58.45,12.48 58.82,10.93 59.18,9.93 59.55,9.38 59.91,9.14 60.28,9.70 60.65,10.39 61.01,10.76 61.38,11.41 61.74,12.46 62.11,14.78 62.47,16.64 62.84,16.79 63.20,15.48 63.57,14.31 63.93,13.33 64.30,13.37 64.67,14.19 65.03,15.13 65.40,15.79 65.76,15.90 66.13,16.08 66.49,15.70 66.86,14.96 67.22,13.96 67.59,13.02 67.95,11.95 68.32,11.16 68.69,10.56 69.05,10.29 69.42,10.71 69.78,10.99 70.15,10.93 70.51,9.62 70.88,9.00 71.24,9.63 71.61,10.44 71.97,9.81 72.34,9.54 72.71,10.04 73.07,11.11 73.44,13.28 73.80,16.03 74.17,17.27 74.53,17.75 74.90,18.09 75.26,18.41 75.63,18.57 75.99,18.55 76.36,18.44 76.73,17.08 77.09,55.69 77.46,54.96 77.82,54.97 78.19,54.77 78.55,53.90 78.92,53.51 79.28,53.44 79.65,52.62 80.02,52.22 80.38,52.41 80.75,52.44 81.11,52.80 81.48,52.33 81.84,50.58 82.21,49.35 82.57,48.92 82.94,49.88 83.30,49.49 83.67,48.72 84.04,47.31 84.40,45.86 84.77,44.73 85.13,41.28 85.50,39.63 85.86,36.84 86.23,34.01 86.59,32.61 86.96,31.85 87.32,31.18 87.69,31.65 88.06,33.54 88.42,33.80 88.79,34.50 89.15,36.78 89.52,39.11 89.88,42.29 90.25,45.19 90.61,46.27 90.98,47.17 91.34,47.79 91.71,48.89 92.08,49.49 92.44,48.46 92.81,47.61 93.17,45.50 93.54,42.85 93.90,41.50 94.27,39.27 94.63,39.13 95.00,39.94 95.36,41.68 95.73,44.22 96.10,45.93 96.46,45.44 96.83,42.60 97.19,39.67 97.56,37.44 97.92,36.61 98.29,36.88 98.65,39.21 99.02,41.13 99.38,42.96 99.75,44.50 100.12,45.39 100.48,45.98 100.85,46.23 101.21,45.05 101.58,44.27 101.94,41.66 102.31,39.45 102.67,36.55 103.04,32.59 103.40,28.57 103.77,26.04 104.14,26.49 104.50,27.10 104.87,28.82 105.23,30.44 105.60,32.56 105.96,32.70 106.33,32.72 106.69,33.02 107.06,34.58 107.42,35.23 107.79,34.81 108.16,34.34 108.52,33.34 108.89,32.52 109.25,31.70 109.62,31.90 109.98,32.31 110.35,33.71 110.71,34.85 111.08,36.68 111.44,36.32 111.81,35.12 112.18,33.08 112.54,30.71 112.91,28.46 113.27,25.27 113.64,23.45 114.00,20.84 114.37,18.67 114.73,17.50 115.10,15.64 115.46,14.84 115.83,14.33 116.20,14.78 116.56,14.67 116.93,14.01 117.29,13.18 117.66,13.34 118.02,14.61 118.39,16.50 118.75,18.08 119.12,18.59 119.48,18.13 119.85,17.22 120.22,15.65 120.58,14.11 120.95,13.43 121.31,14.11 121.68,15.35 122.04,17.52 122.41,19.99 122.77,22.51 123.14,23.98 123.50,25.24 123.87,25.09 124.24,24.91 124.60,25.06 124.97,24.62 125.33,24.20 125.70,23.38 126.06,22.74 126.43,21.65 126.79,21.02 127.16,20.06 127.52,19.71 127.89,19.20 128.26,18.05 128.62,17.71 128.99,18.43 129.35,18.59 129.72,19.10 130.08,17.61 130.45,15.90 130.81,14.58 131.18,13.36 131.54,12.66 131.91,11.26 132.28,10.29 132.64,9.35 133.01,8.87 133.37,9.63 133.74,10.26 134.10,10.42 134.47,11.57 134.83,12.54 135.20,14.46 135.56,16.60 135.93,16.82 136.30,15.22 136.66,13.94 137.03,13.33 137.39,13.38 137.76,14.08 138.12,15.04 138.49,15.74 138.85,15.79 139.22,16.12 139.58,15.68 139.95,14.90 140.32,13.73 140.68,12.78 141.05,11.80 141.41,11.28 141.78,10.66 142.14,10.08 142.51,11.13 142.87,11.07 143.24,10.65 143.60,9.39 143.97,9.21 144.34,9.36 144.70,10.16 145.07,10.00 145.43,9.39 145.80,10.21 146.16,11.09 146.53,12.91 146.89,16.04 147.26,17.19 147.62,17.79 147.99,18.06 148.36,18.41 148.72,18.56 149.09,18.41 149.45,18.18 149.82,17.41 150.18,56.00 150.55,54.42 150.91,54.74 151.28,55.05 151.64,53.97 152.01,54.13 152.38,52.89 152.74,53.11 153.11,51.61 153.47,52.40 153.84,51.51 154.20,52.74 154.57,50.84 154.93,51.40 155.30,49.34 155.66,48.24 156.03,50.01 156.40,48.37 156.76,47.92 157.13,46.06 157.49,46.06 157.86,44.51 158.22,42.45 158.59,40.24 158.95,36.34 159.32,34.33 159.68,33.26 160.05,31.05 160.42,32.11 160.78,32.82 161.15,34.56 161.51,33.49 161.88,35.39 162.24,37.62 162.61,37.62 162.97,41.53 163.34,45.07 163.70,45.90 164.07,46.47 164.44,47.90 164.80,48.44 165.17,49.50 165.53,47.93 165.90,46.18 166.26,44.45 166.63,42.93 166.99,41.64 167.36,40.20 167.72,39.41 168.09,40.52 168.46,41.52 168.82,44.16 169.19,45.66 169.55,44.73 169.92,42.64 170.28,40.38 170.65,38.51 171.01,37.22 171.38,36.63 171.74,38.44 172.11,40.67 172.48,42.61 172.84,44.13 173.21,44.38 173.57,44.68 173.94,46.27 174.30,45.06 174.67,43.34 175.03,41.42 175.40,40.38 175.76,36.65 176.13,32.38 176.50,29.37 176.86,26.96 177.23,26.92 177.59,26.92 177.96,28.10 178.32,30.14 178.69,32.12 179.05,32.30 179.42,32.93 179.78,33.28 180.15,35.09 180.52,35.16 180.88,35.16 181.25,34.12 181.61,34.09 181.98,32.72 182.34,31.77 182.71,32.82 183.07,31.82 183.44,33.43 183.80,34.03 184.17,36.71 184.54,36.50 184.90,35.44 185.27,32.18 185.63,30.27 186.00,28.38 186.36,25.16 186.73,23.39 187.09,20.56 187.46,19.37 187.82,16.88 188.19,15.70 188.56,15.24 188.92,14.33 189.29,15.43 189.65,15.46 190.02,14.91 190.38,13.00 190.75,13.94 191.11,15.92 191.48,16.97 191.84,18.38 192.21,19.22 192.58,18.12 192.94,16.50 193.31,14.97 193.67,14.20 194.04,13.47 194.40,13.84 194.77,15.38 195.13,17.41 195.50,18.75 195.86,21.44 196.23,23.48 196.60,24.88 196.96,25.29 197.33,24.95 197.69,25.14 198.06,24.44 198.42,23.89 198.79,23.58 199.15,22.62 199.52,21.28 199.88,21.00 200.25,19.26 200.62,18.63 200.98,19.20 201.35,17.13 201.71,16.92 202.08,18.47 202.44,18.11 202.81,18.94 203.17,17.33 203.54,15.02 203.90,14.99 204.27,13.03 204.64,13.11 205.00,10.46 205.37,10.08 205.73,9.99 206.10,8.02 206.46,8.78 206.83,9.38 207.19,9.82 207.56,11.72 207.92,12.25 208.29,13.18 208.66,16.05 209.02,17.16 209.39,16.08 209.75,14.36 210.12,14.44 210.48,13.48 210.85,14.51 211.21,15.59 211.58,16.27 211.94,15.80 212.31,16.23 212.68,16.23 213.04,15.01 213.41,14.04 213.77,12.67 214.14,11.30 214.50,11.85 214.87,10.45 215.23,11.17 215.60,10.26 215.96,11.77 216.33,10.85 216.70,10.48 217.06,8.81 217.43,9.33 217.79,10.04 218.16,11.18 218.52,9.15 218.89,9.29 219.25,11.23 219.62,13.56 219.98,16.46 220.35,16.46 220.72,17.51 221.08,18.18 221.45,18.43 221.81,18.85 222.18,18.32 222.54,18.21 222.91,17.62 223.27,54.09 223.64,54.09 224.01,54.09 224.37,53.68 224.74,53.68 225.10,54.22 225.47,49.23 225.83,49.23 226.20,49.77 226.56,49.77 226.93,49.77 227.29,52.33 227.66,44.54 228.03,44.54 228.39,47.18 228.76,47.18 229.12,47.18 229.49,41.05 229.85,46.07 230.22,46.07 230.58,46.07 230.95,40.04 231.31,40.04 231.68,40.04 232.05,30.25 232.41,30.25 232.78,30.25 233.14,32.53 233.51,32.53 233.87,32.53 234.24,37.60 234.60,31.66 234.97,31.66 235.33,36.85 235.70,36.85 236.07,42.30 236.43,42.30 236.80,42.30 237.16,45.65 237.53,45.65 237.89,45.65 238.26,46.40 238.62,46.40 238.99,43.36 239.35,43.36 239.72,43.36 240.09,40.48 240.45,40.48 240.82,40.48 241.18,40.37 241.55,40.37 241.91,40.37 242.28,44.64 242.64,42.57 243.01,42.57 243.37,38.16 243.74,38.16 244.11,34.95 244.47,34.95 244.84,34.95 245.20,38.93 245.57,38.93 245.93,38.93 246.30,44.20 246.66,39.21 247.03,39.21 247.39,43.07 247.76,43.07 248.13,43.07 248.49,38.82 248.86,35.33 249.22,35.33 249.59,35.33 249.95,27.62 250.32,27.62 250.68,27.62 251.05,27.62 251.41,32.38 251.78,32.38 252.15,29.94 252.51,33.23 252.88,33.23 253.24,33.23 253.61,36.75 253.97,36.75 254.34,33.29 254.70,33.29 255.07,34.59 255.43,34.59 255.80,34.59 256.17,30.38 256.53,34.00 256.90,34.00 257.26,34.71 257.63,34.71 257.99,34.71 258.36,32.69 258.72,32.69 259.09,27.19 259.45,27.19 259.82,27.19 260.19,18.61 260.55,18.61 260.92,18.61 261.28,15.56 261.65,15.56 262.01,15.56 262.38,16.16 262.74,15.55 263.11,15.55 263.47,15.63 263.84,17.69 264.21,17.69 264.57,17.69 264.94,19.49 265.30,19.49 265.67,16.05 266.03,16.05 266.40,14.97 266.76,14.80 267.13,14.80 267.49,14.80 267.86,14.80 268.23,21.01 268.59,21.01 268.96,21.01 269.32,25.06 269.69,25.06 270.05,25.06 270.42,23.66 270.78,23.66 271.15,23.66 271.51,23.66 271.88,22.81 272.25,20.55 272.61,20.55 272.98,18.49 273.34,18.49 273.71,18.49 274.07,16.71 274.44,16.71 274.80,16.71 275.17,16.71 275.53,15.24 275.90,15.24 276.27,17.10 276.63,11.38 277.00,11.38 277.36,11.38 277.73,10.63 278.09,10.63 278.46,10.63 278.82,10.22 279.19,4.00 279.55,5.57 279.92,5.57 280.29,5.57 280.65,11.96 281.02,11.96 281.38,11.96 281.75,14.52 282.11,14.52 282.48,14.52 282.84,14.26 283.21,14.26 283.57,14.26 283.94,15.72 284.31,15.72 284.67,15.72 285.04,17.47 285.40,17.47 285.77,17.47 286.13,14.64 286.50,15.58 286.86,15.58 287.23,11.68 287.59,11.68 287.96,11.68 288.33,7.47 288.69,7.47 289.06,13.23 289.42,10.23 289.79,10.23 290.15,10.23 290.52,5.84 290.88,10.95 291.25,10.95 291.61,10.95 291.98,6.63 292.35,11.80 292.71,11.80 293.08,11.80 293.44,11.80 293.81,17.22 294.17,17.22 294.54,17.22 294.90,19.17 295.27,19.17 295.63,19.17 296.00,20.05" />
</svg>