<svg width="300" height="60" xmlns="http://www.w3.org/2000/svg">
  <polyline fill="rgba(255,200,0,0.3)" stroke="#ffbb00" stroke-width="2" points="4.00,21.10 4.21,21.10 4.41,21.06 4.62,20.97 4.82,20.76 5.03,20.29 5.23,19.74 5.44,19.16 5.65,18.85 5.85,18.69 6.06,18.50 6.26,18.30 6.47,18.01 6.68,17.69 6.88,17.32 7.09,17.01 7.29,16.77 7.50,16.73 7.70,16.44 7.91,16.43 8.12,16.36 8.32,16.38 8.53,15.94 8.73,15.47 8.94,15.24 9.14,14.90 9.35,14.77 9.56,14.56 9.76,14.47 9.97,14.26 10.17,14.02 10.38,13.83 10.58,13.73 10.79,13.68 11.00,13.63 11.20,13.52 11.41,13.11 11.61,12.79 11.82,12.47 12.03,12.15 12.23,11.61 12.44,11.11 12.64,10.58 12.85,10.05 13.05,9.45 13.26,8.97 13.47,8.59 13.67,8.29 13.88,7.72 14.08,7.22 14.29,6.93 14.49,7.06 14.70,6.78 14.91,7.62 15.11,8.26 15.32,8.91 15.52,9.18 15.73,8.87 15.94,8.44 16.14,7.68 16.35,7.01 16.55,6.38 16.76,6.39 16.96,7.11 17.17,7.60 17.38,8.23 17.58,8.60 17.79,8.13 17.99,7.47 18.20,7.22 18.40,7.26 18.61,7.72 18.82,8.46 19.02,9.46 19.23,10.09 19.43,10.07 19.64,9.95 19.84,9.56 20.05,9.34 20.26,9.50 20.46,9.75 20.67,9.63 20.87,9.35 21.08,9.22 21.29,9.16 21.49,9.11 21.70,9.30 21.90,9.60 22.11,9.81 22.31,10.20 22.52,10.47 22.73,10.53 22.93,10.77 23.14,10.95 23.34,11.18 23.55,11.34 23.75,11.35 23.96,11.26 24.17,10.80 24.37,10.56 24.58,10.28 24.78,10.04 24.99,10.03 25.20,10.07 25.40,10.08 25.61,10.12 25.81,10.21 26.02,10.29 26.22,10.49 26.43,10.82 26.64,11.24 26.84,11.42 27.05,11.67 27.25,11.89 27.46,12.02 27.66,12.08 27.87,12.44 28.08,12.63 28.28,11.91 28.49,11.32 28.69,10.85 28.90,10.54 29.11,10.32 29.31,10.15 29.52,10.06 29.72,9.78 29.93,9.35 30.13,8.83 30.34,8.35 30.55,7.83 30.75,7.19 30.96,6.61 31.16,6.16 31.37,5.77 31.57,5.41 31.78,4.91 31.99,4.45 32.19,4.05 32.40,4.27 32.60,4.71 32.81,5.38 33.01,6.26 33.22,7.25 33.43,8.73 33.63,10.24 33.84,11.63 34.04,12.15 34.25,12.27 34.46,12.31 34.66,11.92 34.87,11.00 35.07,9.89 35.28,8.98 35.48,7.87 35.69,7.11 35.90,6.74 36.10,6.55 36.31,6.90 36.51,7.69 36.72,8.71 36.92,9.91 37.13,10.93 37.34,12.09 37.54,13.10 37.75,14.08 37.95,14.89 38.16,15.62 38.37,16.42 38.57,17.23 38.78,17.73 38.98,17.89 39.19,18.11 39.39,18.21 39.60,18.02 39.81,17.60 40.01,16.88 40.22,16.16 40.42,15.58 40.63,15.19 40.83,15.58 41.04,16.41 41.25,17.40 41.45,18.25 41.66,19.25 41.86,20.06 42.07,20.22 42.27,20.28 42.48,20.43 42.69,20.99 42.89,21.76 43.10,22.65 43.30,23.15 43.51,23.74 43.72,24.20 43.92,24.63 44.13,25.08 44.33,25.31 44.54,25.42 44.74,25.57 44.95,25.67 45.16,25.70 45.36,25.91 45.57,26.61 45.77,27.29 45.98,27.94 46.18,28.20 46.39,28.58 46.60,28.88 46.80,29.35 47.01,29.61 47.21,30.14 47.42,30.74 47.63,31.34 47.83,31.07 48.04,31.38 48.24,31.68 48.45,32.29 48.65,33.03 48.86,33.38 49.07,33.65 49.27,33.79 49.48,33.79 49.68,33.76 49.89,33.83 50.09,33.90 50.30,33.74 50.51,33.88 50.71,33.74 50.92,34.00 51.12,34.27 51.33,34.81 51.53,35.24 51.74,35.40 51.95,35.50 52.15,36.04 52.36,36.94 52.56,36.93 52.77,36.66 52.98,35.97 53.18,35.26 53.39,34.51 53.59,33.78 53.80,33.33 54.00,33.43 54.21,33.75 54.42,34.07 54.62,34.43 54.83,34.86 55.03,35.43 55.24,35.78 55.44,36.12 55.65,36.40 55.86,36.74 56.06,37.02 56.27,37.25 56.47,37.56 56.68,37.92 56.89,38.13 57.09,38.07 57.30,38.18 57.50,38.50 57.71,38.83 57.91,39.24 58.12,39.84 58.33,40.57 58.53,40.95 58.74,41.34 58.94,41.34 59.15,40.89 59.35,40.51 59.56,40.24 59.77,40.17 59.97,40.41 60.18,40.86 60.38,41.41 60.59,41.97 60.79,42.57 61.00,43.06 61.21,43.50 61.41,43.80 61.62,43.99 61.82,44.17 62.03,44.46 62.24,45.01 62.44,45.50 62.65,45.93 62.85,46.29 63.06,46.44 63.26,46.41 63.47,46.37 63.68,46.26 63.88,46.40 64.09,46.70 64.29,47.04 64.50,47.40 64.70,47.75 64.91,47.95 65.12,48.16 65.32,48.42 65.53,48.65 65.73,49.06 65.94,49.85 66.15,50.47 66.35,50.70 66.56,50.83 66.76,50.96 66.97,51.09 67.17,51.19 67.38,51.30 67.59,51.44 67.79,51.58 68.00,51.72 68.20,51.80 68.41,51.83 68.61,51.18 68.82,50.64 69.03,50.37 69.23,50.25 69.44,50.33 69.64,50.78 69.85,51.20 70.05,51.44 70.26,51.49 70.47,51.58 70.67,51.54 70.88,51.38 71.08,51.09 71.29,51.13 71.50,51.65 71.70,51.90 71.91,52.23 72.11,52.27 72.32,52.45 72.52,52.55 72.73,52.55 72.94,52.38 73.14,52.33 73.35,51.99 73.55,51.82 73.76,52.22 73.96,52.49 74.17,52.42 74.38,52.12 74.58,52.27 74.79,52.52 74.99,52.60 75.20,52.83 75.41,53.24 75.61,53.79 75.82,54.46 76.02,55.60 76.23,56.00 76.43,55.74 76.64,54.78 76.85,53.86 77.05,21.11 77.26,21.08 77.46,21.06 77.67,20.97 77.87,20.78 78.08,20.24 78.29,19.68 78.49,19.08 78.70,18.79 78.90,18.62 79.11,18.52 79.32,18.22 79.52,18.00 79.73,17.64 79.93,17.30 80.14,16.96 80.34,16.71 80.55,16.64 80.76,16.48 80.96,16.27 81.17,16.40 81.37,16.35 81.58,15.97 81.78,15.44 81.99,15.24 82.20,14.89 82.40,14.80 82.61,14.54 82.81,14.49 83.02,14.29 83.22,14.00 83.43,13.83 83.64,13.73 83.84,13.47 84.05,13.67 84.25,13.62 84.46,13.11 84.67,12.76 84.87,12.50 85.08,12.10 85.28,11.56 85.49,11.06 85.69,10.46 85.90,10.01 86.11,9.41 86.31,8.84 86.52,8.52 86.72,8.19 86.93,7.71 87.13,7.21 87.34,6.67 87.55,6.99 87.75,6.66 87.96,7.59 88.16,8.14 88.37,8.73 88.58,9.12 88.78,8.99 88.99,8.43 89.19,7.61 89.40,6.94 89.60,6.39 89.81,6.36 90.02,7.18 90.22,7.67 90.43,8.35 90.63,8.49 90.84,8.13 91.04,7.37 91.25,7.22 91.46,7.08 91.66,7.61 91.87,8.44 92.07,9.46 92.28,9.96 92.48,10.19 92.69,9.94 92.90,9.49 93.10,9.23 93.31,9.45 93.51,9.57 93.72,9.57 93.93,9.13 94.13,9.09 94.34,9.15 94.54,9.07 94.75,9.13 94.95,9.50 95.16,9.81 95.37,10.06 95.57,10.52 95.78,10.47 95.98,10.78 96.19,10.87 96.39,11.20 96.60,11.23 96.81,11.31 97.01,11.10 97.22,10.74 97.42,10.52 97.63,10.17 97.84,10.04 98.04,9.99 98.25,10.08 98.45,9.92 98.66,9.97 98.86,10.11 99.07,10.26 99.28,10.33 99.48,10.81 99.69,11.05 99.89,11.37 100.10,11.65 100.30,11.89 100.51,12.01 100.72,12.05 100.92,12.42 101.13,12.56 101.33,11.82 101.54,11.26 101.74,10.78 101.95,10.47 102.16,10.25 102.36,10.10 102.57,10.13 102.77,9.76 102.98,9.29 103.19,8.84 103.39,8.36 103.60,7.78 103.80,7.23 104.01,6.53 104.21,6.17 104.42,5.77 104.63,5.35 104.83,4.86 105.04,4.39 105.24,4.00 105.45,4.36 105.65,4.78 105.86,5.42 106.07,6.08 106.27,6.96 106.48,8.72 106.68,10.50 106.89,11.53 107.10,12.03 107.30,12.21 107.51,12.16 107.71,12.04 107.92,11.06 108.12,10.01 108.33,9.02 108.54,7.64 108.74,7.12 108.95,6.78 109.15,6.62 109.36,6.80 109.56,7.75 109.77,8.79 109.98,10.05 110.18,10.78 110.39,12.13 110.59,13.18 110.80,14.06 111.00,14.97 111.21,15.60 111.42,16.40 111.62,17.23 111.83,17.76 112.03,17.82 112.24,18.01 112.45,18.12 112.65,18.06 112.86,17.58 113.06,16.85 113.27,16.33 113.47,15.58 113.68,15.05 113.89,15.59 114.09,16.43 114.30,17.46 114.50,18.23 114.71,19.20 114.91,20.03 115.12,20.18 115.33,20.29 115.53,20.39 115.74,21.02 115.94,21.83 116.15,22.75 116.36,23.16 116.56,23.73 116.77,24.21 116.97,24.68 117.18,25.13 117.38,25.30 117.59,25.40 117.80,25.57 118.00,25.53 118.21,25.64 118.41,25.78 118.62,26.62 118.82,27.04 119.03,28.05 119.24,28.24 119.44,28.50 119.65,28.80 119.85,29.31 120.06,29.62 120.26,30.04 120.47,30.71 120.68,31.29 120.88,31.09 121.09,31.36 121.29,31.61 121.50,32.36 121.71,33.00 121.91,33.41 122.12,33.60 122.32,33.82 122.53,33.99 122.73,33.79 122.94,34.02 123.15,33.85 123.35,33.77 123.56,33.78 123.76,33.83 123.97,34.01 124.17,34.24 124.38,34.79 124.59,35.17 124.79,35.37 125.00,35.50 125.20,36.04 125.41,37.00 125.62,36.93 125.82,36.72 126.03,35.91 126.23,35.35 126.44,34.57 126.64,33.66 126.85,33.34 127.06,33.32 127.26,33.63 127.47,34.07 127.67,34.44 127.88,34.88 128.08,35.37 128.29,35.89 128.50,36.02 128.70,36.38 128.91,36.76 129.11,36.95 129.32,37.21 129.53,37.62 129.73,37.91 129.94,38.15 130.14,38.04 130.35,38.11 130.55,38.42 130.76,38.85 130.97,39.17 131.17,39.82 131.38,40.45 131.58,40.83 131.79,41.26 131.99,41.33 132.20,40.94 132.41,40.46 132.61,40.20 132.82,40.13 133.02,40.35 133.23,40.75 133.43,41.26 133.64,41.85 133.85,42.48 134.05,42.96 134.26,43.37 134.46,43.78 134.67,43.92 134.88,44.06 135.08,44.35 135.29,44.87 135.49,45.45 135.70,45.96 135.90,46.15 136.11,46.35 136.32,46.39 136.52,46.26 136.73,46.32 136.93,46.35 137.14,46.61 137.34,46.87 137.55,47.38 137.76,47.73 137.96,47.86 138.17,48.12 138.37,48.39 138.58,48.57 138.79,48.92 138.99,49.82 139.20,50.39 139.40,50.68 139.61,50.80 139.81,50.94 140.02,51.08 140.23,51.19 140.43,51.24 140.64,51.39 140.84,51.52 141.05,51.69 141.25,51.76 141.46,51.76 141.67,51.20 141.87,50.55 142.08,50.31 142.28,50.25 142.49,50.20 142.69,50.86 142.90,51.18 143.11,51.39 143.31,51.35 143.52,51.48 143.72,51.55 143.93,51.33 144.14,51.14 144.34,51.16 144.55,51.57 144.75,51.83 144.96,52.08 145.16,52.22 145.37,52.33 145.58,52.42 145.78,52.45 145.99,52.34 146.19,52.24 146.40,51.82 146.60,51.75 146.81,52.15 147.02,52.49 147.22,52.34 147.43,51.96 147.63,52.27 147.84,52.48 148.05,52.58 148.25,52.72 148.46,53.27 148.66,53.72 148.87,54.31 149.07,55.28 149.28,55.85 149.49,55.72 149.69,54.75 149.90,53.77 150.10,21.11 150.31,21.10 150.51,21.06 150.72,20.89 150.93,20.69 151.13,20.38 151.34,19.62 151.54,19.19 151.75,18.84 151.95,18.54 152.16,18.43 152.37,18.24 152.57,18.01 152.78,17.64 152.98,17.57 153.19,17.19 153.40,17.04 153.60,16.80 153.81,16.56 154.01,16.44 154.22,16.21 154.42,16.51 154.63,16.18 154.84,15.73 155.04,15.28 155.25,14.86 155.45,14.92 155.66,14.51 155.86,14.64 156.07,14.38 156.28,14.09 156.48,13.63 156.69,13.62 156.89,13.28 157.10,13.58 157.31,13.30 157.51,12.97 157.72,12.67 157.92,12.41 158.13,11.82 158.33,11.47 158.54,11.16 158.75,10.29 158.95,10.03 159.16,9.16 159.36,9.15 159.57,8.61 159.77,7.74 159.98,7.96 160.19,7.19 160.39,6.80 160.60,7.34 160.80,6.71 161.01,7.97 161.21,8.25 161.42,8.80 161.63,8.80 161.83,9.22 162.04,8.55 162.24,7.72 162.45,6.85 162.66,5.93 162.86,6.21 163.07,7.02 163.27,7.57 163.48,8.29 163.68,8.21 163.89,8.21 164.10,7.61 164.30,7.17 164.51,7.12 164.71,7.78 164.92,8.43 165.12,9.29 165.33,10.00 165.54,10.33 165.74,9.81 165.95,9.19 166.15,9.49 166.36,9.30 166.57,9.07 166.77,9.28 166.98,8.56 167.18,9.10 167.39,8.73 167.59,9.26 167.80,9.06 168.01,9.61 168.21,9.77 168.42,10.14 168.62,10.69 168.83,10.63 169.03,10.70 169.24,10.82 169.45,10.93 169.65,10.99 169.86,11.46 170.06,11.26 170.27,10.54 170.47,10.37 170.68,10.10 170.89,9.75 171.09,9.80 171.30,10.28 171.50,9.83 171.71,9.90 171.92,9.84 172.12,10.37 172.33,10.50 172.53,10.86 172.74,10.86 172.94,11.17 173.15,11.58 173.36,11.75 173.56,12.04 173.77,12.04 173.97,12.23 174.18,12.42 174.38,11.69 174.59,11.61 174.80,10.84 175.00,10.71 175.21,10.15 175.41,10.17 175.62,10.08 175.83,9.53 176.03,9.06 176.24,8.89 176.44,8.38 176.65,7.82 176.85,6.98 177.06,6.55 177.27,6.26 177.47,5.92 177.68,5.53 177.88,5.04 178.09,4.53 178.29,4.19 178.50,4.24 178.71,4.60 178.91,5.10 179.12,5.68 179.32,7.20 179.53,8.29 179.74,10.31 179.94,11.33 180.15,11.84 180.35,12.03 180.56,12.33 180.76,11.60 180.97,10.57 181.18,9.63 181.38,8.34 181.59,7.28 181.79,7.00 182.00,6.71 182.20,6.63 182.41,7.04 182.62,7.84 182.82,8.90 183.03,10.09 183.23,11.35 183.44,12.52 183.64,12.74 183.85,14.11 184.06,15.29 184.26,15.45 184.47,16.21 184.67,17.01 184.88,17.90 185.09,17.98 185.29,18.42 185.50,17.93 185.70,18.17 185.91,17.47 186.11,16.86 186.32,16.27 186.53,15.17 186.73,15.17 186.94,15.68 187.14,16.80 187.35,17.47 187.55,17.98 187.76,19.50 187.97,19.89 188.17,20.17 188.38,20.48 188.58,20.44 188.79,21.12 189.00,22.18 189.20,22.85 189.41,23.02 189.61,23.56 189.82,24.06 190.02,24.54 190.23,24.99 190.44,25.30 190.64,25.49 190.85,25.78 191.05,25.32 191.26,25.32 191.46,25.42 191.67,26.35 191.88,27.31 192.08,27.67 192.29,28.14 192.49,28.57 192.70,28.93 192.90,29.34 193.11,29.61 193.32,29.59 193.52,30.30 193.73,31.32 193.93,31.52 194.14,31.24 194.35,31.61 194.55,32.14 194.76,32.64 194.96,33.20 195.17,33.36 195.37,33.53 195.58,33.72 195.79,33.85 195.99,33.95 196.20,34.09 196.40,34.14 196.61,33.53 196.81,34.21 197.02,34.25 197.23,34.42 197.43,34.93 197.64,35.33 197.84,35.12 198.05,35.85 198.26,35.85 198.46,36.66 198.67,36.84 198.87,36.59 199.08,35.96 199.28,35.63 199.49,34.58 199.70,33.59 199.90,33.25 200.11,33.57 200.31,33.79 200.52,34.11 200.72,34.64 200.93,34.95 201.14,35.26 201.34,36.12 201.55,36.24 201.75,36.52 201.96,36.73 202.16,36.90 202.37,37.53 202.58,37.81 202.78,38.12 202.99,38.34 203.19,38.20 203.40,38.28 203.61,38.46 203.81,38.69 204.02,38.97 204.22,39.89 204.43,40.44 204.63,40.94 204.84,41.40 205.05,41.03 205.25,40.96 205.46,40.79 205.66,40.55 205.87,40.19 206.07,40.28 206.28,41.03 206.49,41.32 206.69,42.11 206.90,42.30 207.10,42.90 207.31,43.54 207.52,43.94 207.72,43.72 207.93,44.17 208.13,44.54 208.34,44.58 208.54,45.41 208.75,46.13 208.96,46.13 209.16,46.52 209.37,46.26 209.57,46.47 209.78,46.17 209.98,46.60 210.19,46.60 210.40,46.76 210.60,47.02 210.81,47.55 211.01,47.74 211.22,47.96 211.42,48.23 211.63,48.48 211.84,48.81 212.04,50.00 212.25,50.46 212.45,50.67 212.66,50.80 212.87,50.96 213.07,51.10 213.28,51.23 213.48,51.22 213.69,51.38 213.89,51.56 214.10,51.67 214.31,51.79 214.51,51.45 214.72,51.13 214.92,50.32 215.13,50.33 215.33,50.54 215.54,50.32 215.75,50.91 215.95,51.34 216.16,51.09 216.36,51.40 216.57,51.07 216.78,51.60 216.98,51.57 217.19,51.04 217.39,51.24 217.60,51.67 217.80,51.92 218.01,51.95 218.22,52.17 218.42,52.41 218.63,52.17 218.83,52.37 219.04,52.45 219.24,52.17 219.45,51.59 219.66,51.78 219.86,52.02 220.07,52.54 220.27,52.33 220.48,51.82 220.68,52.21 220.89,52.69 221.10,52.30 221.30,52.73 221.51,53.25 221.71,53.40 221.92,54.09 222.13,55.05 222.33,55.79 222.54,55.84 222.74,55.19 222.95,53.73 223.15,21.08 223.36,21.03 223.57,21.03 223.77,20.77 223.98,20.77 224.18,20.77 224.39,18.88 224.59,18.88 224.80,18.88 225.01,18.01 225.21,18.01 225.42,17.42 225.62,17.42 225.83,18.31 226.04,18.31 226.24,17.30 226.45,17.30 226.65,17.30 226.86,16.16 227.06,16.92 227.27,16.11 227.48,16.11 227.68,16.11 227.89,16.11 228.09,15.29 228.30,15.29 228.50,15.29 228.71,15.29 228.92,15.52 229.12,14.22 229.33,14.22 229.53,14.22 229.74,13.71 229.95,13.71 230.15,13.71 230.36,12.78 230.56,12.78 230.77,12.78 230.97,11.84 231.18,11.84 231.39,10.90 231.59,10.90 231.80,10.90 232.00,10.11 232.21,8.16 232.41,8.16 232.62,7.85 232.83,7.85 233.03,7.85 233.24,5.52 233.44,6.02 233.65,6.02 233.85,6.02 234.06,7.21 234.27,7.21 234.47,7.21 234.68,7.21 234.88,9.00 235.09,6.72 235.30,6.72 235.50,6.72 235.71,4.19 235.91,4.19 236.12,5.57 236.32,5.57 236.53,5.57 236.74,7.13 236.94,7.13 237.15,7.13 237.35,4.54 237.56,6.85 237.76,6.85 237.97,6.85 238.18,9.07 238.38,9.07 238.59,7.74 238.79,7.74 239.00,7.74 239.21,8.88 239.41,8.88 239.62,8.88 239.82,6.88 240.03,6.88 240.23,6.88 240.44,8.74 240.65,8.74 240.85,6.87 241.06,8.96 241.26,8.96 241.47,8.96 241.67,10.72 241.88,10.78 242.09,10.78 242.29,10.78 242.50,10.81 242.70,10.81 242.91,10.81 243.11,10.27 243.32,10.27 243.53,10.27 243.73,9.26 243.94,9.26 244.14,9.26 244.35,9.26 244.56,7.61 244.76,9.31 244.97,9.31 245.17,9.31 245.38,9.93 245.58,9.93 245.79,9.93 246.00,9.93 246.20,11.53 246.41,10.99 246.61,11.53 246.82,11.53 247.02,11.53 247.23,11.53 247.44,12.09 247.64,11.59 247.85,11.59 248.05,11.59 248.26,9.87 248.47,9.87 248.67,9.87 248.88,8.54 249.08,8.54 249.29,8.54 249.49,8.54 249.70,7.99 249.91,6.35 250.11,6.35 250.32,5.88 250.52,5.88 250.73,4.58 250.93,4.58 251.14,4.58 251.35,4.21 251.55,4.21 251.76,4.21 251.96,5.43 252.17,5.43 252.37,5.43 252.58,8.23 252.79,9.96 252.99,9.96 253.20,9.96 253.40,9.96 253.61,10.49 253.82,10.49 254.02,10.49 254.23,7.40 254.43,6.92 254.64,6.92 254.84,6.92 255.05,6.92 255.26,8.17 255.46,8.17 255.67,8.17 255.87,11.31 256.08,11.31 256.28,11.31 256.49,14.00 256.70,14.00 256.90,15.02 257.11,15.02 257.31,15.02 257.52,17.07 257.73,17.07 257.93,17.07 258.14,17.99 258.34,17.99 258.55,18.75 258.75,18.75 258.96,18.75 259.17,16.51 259.37,16.51 259.58,16.51 259.78,15.07 259.99,15.07 260.19,17.90 260.40,17.90 260.61,17.90 260.81,19.85 261.02,19.85 261.22,20.97 261.43,20.97 261.63,19.69 261.84,21.89 262.05,22.71 262.25,22.71 262.46,22.71 262.66,24.37 262.87,24.37 263.08,24.37 263.28,25.59 263.49,25.59 263.69,24.56 263.90,24.83 264.10,24.83 264.31,24.83 264.52,24.83 264.72,26.40 264.93,27.63 265.13,27.63 265.34,28.63 265.54,28.63 265.75,28.63 265.96,27.58 266.16,27.58 266.37,27.58 266.57,29.56 266.78,29.56 266.99,31.26 267.19,31.26 267.40,31.26 267.60,32.44 267.81,32.44 268.01,33.40 268.22,33.40 268.43,33.40 268.63,34.18 268.84,34.18 269.04,34.18 269.25,34.67 269.45,34.67 269.66,34.96 269.87,34.96 270.07,34.96 270.28,35.25 270.48,35.25 270.69,35.25 270.89,35.25 271.10,36.26 271.31,36.26 271.51,36.26 271.72,36.26 271.92,34.91 272.13,34.91 272.34,34.91 272.54,34.04 272.75,33.29 272.95,33.29 273.16,33.80 273.36,33.80 273.57,33.80 273.78,35.95 273.98,35.95 274.19,35.95 274.39,36.85 274.60,36.85 274.80,37.25 275.01,37.25 275.22,37.25 275.42,37.76 275.63,37.76 275.83,37.76 276.04,38.44 276.25,38.44 276.45,38.68 276.66,38.68 276.86,38.68 277.07,39.23 277.27,39.23 277.48,40.23 277.69,40.23 277.89,40.23 278.10,40.94 278.30,40.94 278.51,40.94 278.71,40.63 278.92,40.63 279.13,40.51 279.33,40.51 279.54,40.51 279.74,41.30 279.95,41.30 280.16,42.73 280.36,42.73 280.57,42.94 280.77,42.94 280.98,44.38 281.18,44.38 281.39,44.05 281.60,44.05 281.80,45.88 282.01,46.00 282.21,46.00 282.42,46.00 282.62,45.58 282.83,45.58 283.04,46.99 283.24,46.73 283.45,46.73 283.65,46.73 283.86,47.31 284.06,47.31 284.27,48.05 284.48,48.05 284.68,48.05 284.89,49.06 285.09,49.06 285.30,50.36 285.51,50.32 285.71,50.32 285.92,50.90 286.12,50.90 286.33,50.90 286.53,50.74 286.74,51.40 286.95,51.40 287.15,51.40 287.36,51.66 287.56,50.77 287.77,50.77 287.97,49.83 288.18,49.83 288.39,49.83 288.59,50.48 288.80,50.48 289.00,49.34 289.21,49.34 289.42,51.28 289.62,50.44 289.83,50.44 290.03,50.44 290.24,50.44 290.44,51.14 290.65,51.14 290.86,51.14 291.06,51.76 291.27,51.76 291.47,51.76 291.68,51.14 291.88,51.14 292.09,51.14 292.30,51.60 292.50,51.60 292.71,51.60 292.91,51.22 293.12,51.22 293.32,51.22 293.53,52.00 293.74,52.00 293.94,52.00 294.15,51.50 294.35,51.50 294.56,51.50 294.77,53.48 294.97,53.48 295.18,53.48 295.38,55.48 295.59,55.37 295.79,55.37 296.00,54.15" />
</svg>