<svg width="300" height="60" xmlns="http://www.w3.org/2000/svg">
  <polyline fill="rgba(255,200,0,0.3)" stroke="#ffbb00" stroke-width="2" points="4.00,46.81 4.89,43.99 5.79,40.93 6.68,42.92 7.57,39.52 8.46,36.36 9.36,32.43 10.25,25.95 11.14,24.48 12.04,23.41 12.93,22.92 13.82,23.41 14.72,23.53 15.61,24.19 16.50,26.17 17.39,29.45 18.29,34.48 19.18,41.65 20.07,45.85 20.97,49.15 21.86,48.94 22.75,47.13 23.65,51.29 24.54,50.82 25.43,51.83 26.32,51.97 27.22,51.04 28.11,51.46 29.00,52.87 29.90,51.59 30.79,51.61 31.68,51.22 32.57,50.52 33.47,50.04 34.36,49.36 35.25,48.38 36.15,46.11 37.04,44.05 37.93,43.10 38.83,40.72 39.72,39.07 40.61,37.72 41.50,35.63 42.40,35.70 43.29,36.52 44.18,34.80 45.08,32.82 45.97,32.55 46.86,31.26 47.76,31.90 48.65,31.03 49.54,28.88 50.43,29.11 51.33,29.64 52.22,30.42 53.11,28.74 54.01,26.98 54.90,26.00 55.79,22.92 56.69,17.44 57.58,13.36 58.47,9.96 59.36,9.41 60.26,5.92 61.15,4.00 62.04,4.17 62.94,6.67 63.83,9.19 64.72,12.72 65.61,18.78 66.51,23.74 67.40,20.31 68.29,17.25 69.19,15.28 70.08,13.98 70.97,12.65 71.87,10.74 72.76,8.89 73.65,7.27 74.54,6.58 75.44,6.12 76.33,7.04 77.22,47.45 78.12,44.65 79.01,41.93 79.90,41.93 80.80,40.60 81.69,35.87 82.58,31.49 83.47,25.52 84.37,24.60 85.26,23.45 86.15,22.95 87.05,23.21 87.94,22.98 88.83,24.55 89.72,25.92 90.62,29.74 91.51,34.44 92.40,42.45 93.30,45.33 94.19,47.96 95.08,48.58 95.98,47.49 96.87,50.91 97.76,50.00 98.65,51.57 99.55,52.72 100.44,49.94 101.33,51.72 102.23,53.12 103.12,51.58 104.01,51.76 104.91,51.03 105.80,50.44 106.69,50.01 107.58,49.17 108.48,48.29 109.37,45.63 110.26,43.81 111.16,42.28 112.05,40.44 112.94,38.69 113.83,36.88 114.73,33.74 115.62,34.81 116.51,36.59 117.41,33.81 118.30,32.63 119.19,31.50 120.09,32.12 120.98,32.21 121.87,29.73 122.76,28.42 123.66,26.92 124.55,29.21 125.44,30.04 126.34,28.85 127.23,27.00 128.12,25.96 129.02,22.66 129.91,17.91 130.80,13.24 131.69,9.75 132.59,8.37 133.48,6.84 134.37,4.64 135.27,5.11 136.16,6.55 137.05,9.96 137.94,12.31 138.84,18.81 139.73,23.62 140.62,20.78 141.52,17.28 142.41,15.43 143.30,13.99 144.20,12.08 145.09,10.58 145.98,8.42 146.87,7.11 147.77,6.66 148.66,6.00 149.55,6.85 150.45,47.93 151.34,41.95 152.23,41.38 153.13,38.09 154.02,42.91 154.91,39.09 155.80,33.49 156.70,25.60 157.59,25.60 158.48,22.76 159.38,24.20 160.27,23.38 161.16,23.36 162.06,25.45 162.95,24.98 163.84,28.02 164.73,33.62 165.63,41.76 166.52,43.76 167.41,46.79 168.31,49.55 169.20,49.55 170.09,48.73 170.98,49.70 171.88,53.05 172.77,51.67 173.66,54.14 174.56,52.73 175.45,52.73 176.34,51.61 177.24,52.70 178.13,51.91 179.02,51.03 179.91,49.53 180.81,48.71 181.70,49.72 182.59,46.77 183.49,43.96 184.38,41.53 185.27,42.28 186.17,39.15 187.06,35.79 187.95,35.79 188.84,33.48 189.74,36.86 190.63,34.54 191.52,34.92 192.42,32.38 193.31,35.45 194.20,30.66 195.09,29.41 195.99,28.47 196.88,22.93 197.77,28.72 198.67,30.35 199.56,29.10 200.45,27.50 201.35,25.69 202.24,20.96 203.13,21.12 204.02,14.20 204.92,7.87 205.81,8.97 206.70,7.28 207.60,5.84 208.49,6.53 209.38,7.90 210.28,9.47 211.17,11.91 212.06,21.43 212.95,22.17 213.85,22.17 214.74,18.79 215.63,16.41 216.53,14.77 217.42,13.43 218.31,10.99 219.20,8.98 220.10,7.29 220.99,7.95 221.88,7.72 222.78,5.99 223.67,55.76 224.56,55.76 225.46,38.04 226.35,38.04 227.24,38.04 228.13,51.00 229.03,32.37 229.92,32.37 230.81,32.37 231.71,33.74 232.60,33.74 233.49,20.35 234.39,25.51 235.28,25.51 236.17,25.51 237.06,25.51 237.96,33.15 238.85,33.15 239.74,33.15 240.64,45.60 241.53,45.60 242.42,45.60 243.31,42.03 244.21,52.49 245.10,52.49 245.99,52.49 246.89,56.00 247.78,50.43 248.67,50.43 249.57,50.43 250.46,53.31 251.35,53.31 252.24,48.77 253.14,48.77 254.03,50.71 254.92,50.71 255.82,44.58 256.71,44.58 257.60,46.77 258.50,46.77 259.39,35.63 260.28,39.38 261.17,39.38 262.07,39.38 262.96,39.38 263.85,33.85 264.75,33.85 265.64,33.85 266.53,36.89 267.43,36.89 268.32,24.90 269.21,24.90 270.10,24.90 271.00,32.73 271.89,24.68 272.78,24.68 273.68,24.68 274.57,24.18 275.46,24.18 276.35,24.18 277.25,24.18 278.14,7.65 279.03,7.65 279.93,7.65 280.82,7.25 281.71,7.25 282.61,7.25 283.50,10.38 284.39,10.38 285.28,22.86 286.18,21.58 287.07,21.58 287.96,21.58 288.86,21.58 289.75,15.63 290.64,15.63 291.54,15.63 292.43,10.16 293.32,10.16 294.21,11.00 295.11,11.00 296.00,5.31" />
</svg>