<svg width="300" height="60" xmlns="http://www.w3.org/2000/svg">
  <polyline fill="rgba(255,200,0,0.3)" stroke="#ffbb00" stroke-width="2" points="4.00,4.57 4.32,4.78 4.63,5.13 4.95,5.79 5.27,5.83 5.58,5.44 5.90,5.37 6.21,5.33 6.53,5.61 6.85,5.79 7.16,5.93 7.48,6.00 7.80,6.13 8.11,6.12 8.43,6.25 8.75,6.49 9.06,6.66 9.38,6.82 9.69,6.96 10.01,7.02 10.33,7.14 10.64,7.28 10.96,7.52 11.28,7.84 11.59,8.15 11.91,8.46 12.23,8.87 12.54,9.26 12.86,9.54 13.17,9.85 13.49,10.33 13.81,10.85 14.12,11.24 14.44,11.65 14.76,12.08 15.07,12.68 15.39,12.82 15.71,13.12 16.02,13.46 16.34,13.86 16.65,13.95 16.97,14.13 17.29,14.47 17.60,14.77 17.92,15.06 18.24,15.37 18.55,15.66 18.87,15.92 19.19,16.15 19.50,16.35 19.82,16.57 20.13,16.70 20.45,16.88 20.77,17.15 21.08,17.42 21.40,17.63 21.72,17.85 22.03,17.97 22.35,18.05 22.67,18.18 22.98,18.31 23.30,18.52 23.61,18.76 23.93,19.01 24.25,19.35 24.56,19.69 24.88,20.03 25.20,20.29 25.51,20.51 25.83,20.75 26.15,21.06 26.46,21.25 26.78,21.42 27.09,21.49 27.41,21.55 27.73,21.61 28.04,21.70 28.36,21.75 28.68,21.76 28.99,21.74 29.31,21.70 29.63,21.64 29.94,21.51 30.26,21.34 30.57,21.09 30.89,20.67 31.21,20.63 31.52,20.49 31.84,20.21 32.16,19.60 32.47,19.58 32.79,19.65 33.11,19.57 33.42,19.45 33.74,19.32 34.05,19.06 34.37,18.82 34.69,18.65 35.00,18.59 35.32,18.62 35.64,18.74 35.95,18.84 36.27,18.92 36.59,18.98 36.90,18.98 37.22,19.10 37.53,19.24 37.85,19.40 38.17,19.62 38.48,19.92 38.80,20.31 39.12,20.82 39.43,21.15 39.75,21.22 40.07,21.34 40.38,21.52 40.70,21.78 41.01,22.15 41.33,22.30 41.65,22.33 41.96,22.37 42.28,22.35 42.60,22.37 42.91,22.40 43.23,22.41 43.54,22.62 43.86,23.10 44.18,23.38 44.49,23.78 44.81,24.00 45.13,24.29 45.44,23.92 45.76,23.15 46.08,22.11 46.39,21.58 46.71,21.36 47.02,21.48 47.34,21.90 47.66,22.59 47.97,23.70 48.29,24.50 48.61,24.97 48.92,25.28 49.24,25.18 49.56,25.01 49.87,24.47 50.19,23.77 50.50,23.01 50.82,22.62 51.14,22.99 51.45,23.60 51.77,25.13 52.09,26.78 52.40,28.97 52.72,31.08 53.04,30.50 53.35,27.63 53.67,25.42 53.98,24.44 54.30,25.06 54.62,26.40 54.93,25.38 55.25,22.30 55.57,20.05 55.88,18.46 56.20,18.07 56.52,18.28 56.83,18.95 57.15,19.29 57.46,18.73 57.78,18.17 58.10,17.78 58.41,18.18 58.73,19.64 59.05,21.62 59.36,24.01 59.68,25.97 60.00,27.11 60.31,27.89 60.63,28.22 60.94,26.98 61.26,26.54 61.58,26.85 61.89,26.68 62.21,26.55 62.53,25.43 62.84,25.27 63.16,23.82 63.48,24.53 63.79,22.38 64.11,20.91 64.42,20.08 64.74,20.13 65.06,20.18 65.37,20.53 65.69,20.56 66.01,21.47 66.32,22.53 66.64,24.07 66.96,25.98 67.27,27.90 67.59,30.96 67.90,33.28 68.22,36.40 68.54,37.62 68.85,39.39 69.17,43.13 69.49,41.99 69.80,40.49 70.12,39.50 70.44,40.47 70.75,42.48 71.07,45.18 71.38,47.92 71.70,48.86 72.02,49.74 72.33,49.04 72.65,48.23 72.97,48.95 73.28,50.20 73.60,51.09 73.92,51.77 74.23,52.54 74.55,52.99 74.86,53.10 75.18,53.08 75.50,53.19 75.81,53.66 76.13,54.09 76.45,54.77 76.76,54.96 77.08,4.50 77.40,4.72 77.71,5.10 78.03,5.58 78.34,5.73 78.66,5.47 78.98,5.36 79.29,5.38 79.61,5.37 79.93,5.85 80.24,5.95 80.56,5.80 80.88,6.14 81.19,5.97 81.51,6.29 81.82,6.46 82.14,6.61 82.46,6.74 82.77,6.91 83.09,6.93 83.41,7.04 83.72,7.25 84.04,7.43 84.36,7.84 84.67,7.94 84.99,8.43 85.30,8.85 85.62,9.20 85.94,9.54 86.25,9.91 86.57,10.37 86.89,10.68 87.20,11.36 87.52,11.63 87.84,12.15 88.15,12.81 88.47,13.02 88.78,13.24 89.10,13.91 89.42,13.92 89.73,13.86 90.05,14.17 90.37,14.45 90.68,14.77 91.00,15.10 91.32,15.38 91.63,15.65 91.95,15.97 92.26,16.11 92.58,16.39 92.90,16.59 93.21,16.68 93.53,16.89 93.85,17.15 94.16,17.42 94.48,17.69 94.80,17.85 95.11,17.99 95.43,18.04 95.74,18.17 96.06,18.34 96.38,18.41 96.69,18.75 97.01,19.09 97.33,19.46 97.64,19.74 97.96,20.00 98.28,20.25 98.59,20.47 98.91,20.74 99.22,21.05 99.54,21.23 99.86,21.40 100.17,21.51 100.49,21.54 100.81,21.63 101.12,21.69 101.44,21.76 101.76,21.80 102.07,21.75 102.39,21.70 102.70,21.61 103.02,21.46 103.34,21.17 103.65,21.01 103.97,20.65 104.29,20.70 104.60,20.37 104.92,20.12 105.24,19.38 105.55,19.59 105.87,19.51 106.18,19.57 106.50,19.40 106.82,19.33 107.13,19.09 107.45,18.87 107.77,18.70 108.08,18.63 108.40,18.69 108.72,18.83 109.03,18.92 109.35,19.00 109.66,19.04 109.98,19.06 110.30,19.15 110.61,19.25 110.93,19.42 111.25,19.62 111.56,19.93 111.88,20.34 112.20,20.76 112.51,21.04 112.83,21.16 113.14,21.30 113.46,21.61 113.78,21.57 114.09,22.23 114.41,22.30 114.73,22.38 115.04,22.39 115.36,22.36 115.67,22.38 115.99,22.43 116.31,22.48 116.62,22.72 116.94,23.16 117.26,23.39 117.57,23.75 117.89,23.98 118.21,24.17 118.52,24.24 118.84,23.38 119.15,22.35 119.47,21.60 119.79,21.39 120.10,21.45 120.42,22.00 120.74,22.56 121.05,23.40 121.37,24.46 121.69,24.98 122.00,25.34 122.32,25.18 122.63,24.96 122.95,24.52 123.27,23.88 123.58,23.01 123.90,22.45 124.22,23.04 124.53,23.66 124.85,24.81 125.17,27.13 125.48,29.36 125.80,30.78 126.11,30.68 126.43,27.24 126.75,25.93 127.06,24.33 127.38,25.05 127.70,26.64 128.01,24.76 128.33,22.70 128.65,19.92 128.96,18.52 129.28,18.15 129.59,18.44 129.91,19.05 130.23,19.35 130.54,18.83 130.86,18.23 131.18,17.84 131.49,18.22 131.81,19.43 132.13,21.66 132.44,24.05 132.76,25.75 133.07,26.80 133.39,27.41 133.71,27.95 134.02,26.54 134.34,26.14 134.66,26.63 134.97,26.92 135.29,26.60 135.61,24.95 135.92,24.67 136.24,23.72 136.55,23.95 136.87,22.74 137.19,20.70 137.50,20.20 137.82,20.50 138.14,20.30 138.45,20.31 138.77,20.49 139.09,21.59 139.40,22.68 139.72,24.08 140.03,25.87 140.35,27.99 140.67,30.94 140.98,33.86 141.30,36.04 141.62,37.36 141.93,39.22 142.25,42.50 142.57,41.55 142.88,40.45 143.20,39.52 143.51,40.89 143.83,42.26 144.15,44.49 144.46,47.97 144.78,48.33 145.10,49.24 145.41,48.91 145.73,48.09 146.05,49.03 146.36,50.17 146.68,51.15 146.99,51.91 147.31,52.34 147.63,52.88 147.94,52.93 148.26,53.01 148.58,53.14 148.89,53.61 149.21,54.05 149.53,54.55 149.84,54.85 150.16,4.54 150.47,4.98 150.79,5.43 151.11,5.43 151.42,5.60 151.74,5.41 152.06,5.34 152.37,4.89 152.69,5.41 153.01,6.29 153.32,5.74 153.64,5.57 153.95,6.57 154.27,5.81 154.59,6.56 154.90,6.75 155.22,6.46 155.54,6.79 155.85,7.05 156.17,7.29 156.49,7.05 156.80,7.46 157.12,7.12 157.43,7.61 157.75,7.77 158.07,8.03 158.38,8.82 158.70,9.25 159.02,9.54 159.33,9.89 159.65,10.44 159.97,10.85 160.28,11.21 160.60,11.69 160.91,12.15 161.23,12.71 161.55,13.30 161.86,13.57 162.18,14.27 162.50,13.73 162.81,14.02 163.13,14.01 163.45,14.47 163.76,14.55 164.08,14.87 164.39,15.30 164.71,15.55 165.03,15.87 165.34,15.96 165.66,16.35 165.98,16.70 166.29,16.55 166.61,16.95 166.93,16.95 167.24,17.43 167.56,17.90 167.87,17.73 168.19,18.03 168.51,18.05 168.82,18.11 169.14,18.30 169.46,17.95 169.77,18.42 170.09,18.90 170.41,19.33 170.72,20.05 171.04,20.35 171.35,20.25 171.67,20.50 171.99,20.74 172.30,20.97 172.62,21.30 172.94,21.43 173.25,21.60 173.57,21.69 173.89,21.82 174.20,21.79 174.52,21.88 174.83,21.93 175.15,21.88 175.47,21.80 175.78,21.71 176.10,21.57 176.42,21.39 176.73,21.16 177.05,20.75 177.37,20.56 177.68,20.39 178.00,19.87 178.31,19.48 178.63,19.36 178.95,19.53 179.26,19.81 179.58,19.14 179.90,19.11 180.21,19.01 180.53,18.87 180.85,18.79 181.16,18.97 181.48,18.66 181.79,19.04 182.11,19.11 182.43,18.99 182.74,18.73 183.06,18.89 183.38,18.99 183.69,18.99 184.01,19.12 184.33,19.25 184.64,19.50 184.96,20.12 185.27,20.51 185.59,20.56 185.91,21.21 186.22,21.35 186.54,21.90 186.86,21.72 187.17,22.08 187.49,22.08 187.80,22.70 188.12,22.41 188.44,22.37 188.75,22.38 189.07,22.38 189.39,22.43 189.70,22.46 190.02,22.95 190.34,23.41 190.65,23.74 190.97,23.89 191.28,23.68 191.60,24.27 191.92,23.49 192.23,22.87 192.55,21.81 192.87,21.17 193.18,21.52 193.50,22.17 193.82,22.60 194.13,23.28 194.45,24.03 194.76,24.66 195.08,25.35 195.40,25.33 195.71,25.09 196.03,24.58 196.35,23.72 196.66,23.75 196.98,22.66 197.30,23.08 197.61,23.95 197.93,25.45 198.24,27.49 198.56,28.98 198.88,31.04 199.19,30.46 199.51,27.27 199.83,27.27 200.14,25.58 200.46,24.80 200.78,26.53 201.09,24.49 201.41,22.07 201.72,19.30 202.04,19.30 202.36,18.41 202.67,19.14 202.99,19.17 203.31,19.03 203.62,18.58 203.94,18.21 204.26,18.03 204.57,18.21 204.89,18.72 205.20,20.87 205.52,23.54 205.84,24.54 206.15,26.74 206.47,26.75 206.79,27.98 207.10,26.06 207.42,27.03 207.74,26.68 208.05,26.07 208.37,25.39 208.68,24.79 209.00,24.42 209.32,23.81 209.63,23.87 209.95,23.29 210.27,21.04 210.58,20.70 210.90,20.86 211.22,19.40 211.53,19.93 211.85,20.22 212.16,21.09 212.48,23.19 212.80,24.16 213.11,25.01 213.43,28.11 213.75,31.80 214.06,34.07 214.38,34.07 214.70,37.18 215.01,38.65 215.33,41.07 215.64,40.04 215.96,40.24 216.28,39.28 216.59,40.53 216.91,43.47 217.23,43.47 217.54,46.57 217.86,48.10 218.18,49.07 218.49,49.44 218.81,47.90 219.12,48.77 219.44,49.92 219.76,51.31 220.07,52.66 220.39,52.65 220.71,52.65 221.02,52.73 221.34,53.05 221.66,53.16 221.97,53.02 222.29,53.38 222.60,54.12 222.92,55.01 223.24,4.27 223.55,4.00 223.87,5.61 224.19,5.61 224.50,5.61 224.82,4.81 225.14,5.86 225.45,5.86 225.77,4.93 226.08,4.93 226.40,4.93 226.72,6.89 227.03,6.89 227.35,6.89 227.67,7.60 227.98,7.60 228.30,7.60 228.62,8.24 228.93,8.24 229.25,8.24 229.56,7.20 229.88,7.20 230.20,7.20 230.51,7.20 230.83,6.97 231.15,6.97 231.46,8.49 231.78,9.02 232.10,8.40 232.41,10.09 232.73,10.09 233.04,10.09 233.36,12.09 233.68,12.09 233.99,12.09 234.31,14.08 234.63,14.08 234.94,16.02 235.26,16.02 235.58,13.54 235.89,13.54 236.21,13.54 236.52,14.41 236.84,14.41 237.16,14.41 237.47,14.41 237.79,15.10 238.11,15.10 238.42,15.40 238.74,16.32 239.06,16.32 239.37,16.38 239.69,16.38 240.00,16.38 240.32,17.61 240.64,17.46 240.95,17.46 241.27,17.46 241.59,17.71 241.90,18.08 242.22,18.08 242.54,18.43 242.85,18.43 243.17,18.43 243.48,19.68 243.80,19.68 244.12,20.92 244.43,20.92 244.75,20.92 245.07,22.00 245.38,22.00 245.70,20.95 246.02,21.79 246.33,21.79 246.65,22.13 246.96,22.13 247.28,22.13 247.60,22.57 247.91,22.57 248.23,22.56 248.55,22.56 248.86,22.56 249.18,22.38 249.50,22.38 249.81,22.38 250.13,21.74 250.44,21.74 250.76,20.58 251.08,20.58 251.39,20.58 251.71,19.74 252.03,19.74 252.34,19.72 252.66,18.36 252.98,18.36 253.29,19.78 253.61,19.78 253.92,20.88 254.24,20.88 254.56,18.76 254.87,19.70 255.19,19.70 255.51,19.70 255.82,19.89 256.14,19.89 256.46,20.23 256.77,20.23 257.09,18.42 257.40,18.42 257.72,18.42 258.04,20.03 258.35,20.03 258.67,20.03 258.99,20.16 259.30,20.16 259.62,22.50 259.93,22.50 260.25,22.50 260.57,22.50 260.88,23.07 261.20,23.07 261.52,23.07 261.83,22.91 262.15,22.91 262.47,22.91 262.78,22.91 263.10,22.33 263.41,22.94 263.73,22.94 264.05,23.56 264.36,23.56 264.68,23.56 265.00,23.56 265.31,22.39 265.63,22.39 265.95,22.39 266.26,22.07 266.58,22.07 266.89,22.07 267.21,23.86 267.53,23.86 267.84,23.86 268.16,25.61 268.48,25.61 268.79,25.61 269.11,25.59 269.43,25.59 269.74,25.01 270.06,25.01 270.37,25.01 270.69,27.28 271.01,27.28 271.32,27.28 271.64,28.65 271.96,28.65 272.27,28.65 272.59,28.75 272.91,28.75 273.22,28.75 273.54,28.75 273.85,25.51 274.17,26.19 274.49,26.19 274.80,20.21 275.12,20.21 275.44,20.21 275.75,23.07 276.07,21.39 276.39,21.39 276.70,21.39 277.02,17.68 277.33,17.68 277.65,17.68 277.97,16.34 278.28,20.13 278.60,20.13 278.92,20.13 279.23,23.44 279.55,26.04 279.87,26.04 280.18,26.04 280.50,23.16 280.81,23.16 281.13,23.16 281.45,20.53 281.76,20.53 282.08,19.04 282.40,19.04 282.71,19.04 283.03,18.27 283.35,18.27 283.66,17.29 283.98,17.29 284.29,17.29 284.61,18.43 284.93,18.43 285.24,19.69 285.56,19.69 285.88,19.69 286.19,21.39 286.51,27.16 286.83,27.16 287.14,27.16 287.46,27.16 287.77,36.95 288.09,36.95 288.41,36.95 288.72,36.58 289.04,36.58 289.36,36.58 289.67,40.99 289.99,40.99 290.31,40.99 290.62,39.47 290.94,46.49 291.25,46.49 291.57,46.49 291.89,43.80 292.20,48.93 292.52,48.93 292.84,48.93 293.15,54.54 293.47,54.54 293.79,54.54 294.10,54.54 294.42,56.00 294.73,52.80 295.05,52.80 295.37,52.80 295.68,53.35 296.00,53.35" />
</svg>