<svg width="300" height="60" xmlns="http://www.w3.org/2000/svg">
  <polyline fill="rgba(255,200,0,0.3)" stroke="#ffbb00" stroke-width="2" points="4.00,31.94 4.25,32.06 4.50,32.70 4.75,33.12 5.00,32.82 5.25,33.47 5.50,32.71 5.75,31.05 6.00,31.38 6.25,31.84 6.50,31.01 6.75,28.62 7.00,27.39 7.25,27.94 7.50,29.01 7.75,31.18 8.00,34.11 8.25,37.57 8.50,38.70 8.75,38.67 9.00,38.74 9.25,38.84 9.50,38.78 9.75,38.24 9.99,38.24 10.24,38.30 10.49,38.54 10.74,38.98 10.99,41.18 11.24,44.25 11.49,46.77 11.74,44.59 11.99,42.20 12.24,40.63 12.49,38.92 12.74,37.93 12.99,38.46 13.24,42.38 13.49,45.16 13.74,48.26 13.99,50.16 14.24,51.06 14.49,52.11 14.74,51.86 14.99,50.61 15.24,49.28 15.49,48.19 15.74,47.55 15.99,47.49 16.24,46.42 16.49,46.78 16.74,46.19 16.99,46.32 17.24,46.68 17.49,48.97 17.74,52.07 17.99,53.76 18.24,53.53 18.49,53.47 18.74,53.31 18.99,54.32 19.24,55.25 19.49,54.46 19.74,54.36 19.99,53.92 20.24,53.35 20.49,52.44 20.74,52.12 20.99,51.73 21.24,52.43 21.49,53.34 21.73,53.61 21.98,51.88 22.23,50.19 22.48,48.82 22.73,47.95 22.98,47.48 23.23,47.58 23.48,46.27 23.73,45.77 23.98,44.16 24.23,43.80 24.48,44.03 24.73,43.77 24.98,42.93 25.23,42.32 25.48,42.20 25.73,42.21 25.98,42.05 26.23,41.57 26.48,41.15 26.73,40.42 26.98,39.78 27.23,38.93 27.48,37.87 27.73,36.92 27.98,36.34 28.23,35.66 28.48,34.96 28.73,33.99 28.98,32.91 29.23,31.98 29.48,30.75 29.73,29.53 29.98,28.27 30.23,27.38 30.48,26.78 30.73,25.94 30.98,25.33 31.23,24.69 31.48,24.07 31.73,23.68 31.98,23.38 32.23,23.44 32.48,23.26 32.73,23.83 32.98,24.43 33.22,26.20 33.47,26.16 33.72,24.67 33.97,21.60 34.22,18.78 34.47,16.91 34.72,16.06 34.97,16.29 35.22,17.77 35.47,19.43 35.72,21.94 35.97,21.68 36.22,19.62 36.47,17.54 36.72,17.61 36.97,21.08 37.22,21.95 37.47,25.50 37.72,28.36 37.97,27.87 38.22,26.19 38.47,24.98 38.72,23.57 38.97,22.86 39.22,22.90 39.47,23.96 39.72,25.87 39.97,23.86 40.22,20.46 40.47,17.90 40.72,15.28 40.97,14.84 41.22,14.98 41.47,14.79 41.72,14.51 41.97,12.13 42.22,11.41 42.47,11.41 42.72,11.36 42.97,10.91 43.22,10.51 43.47,9.85 43.72,9.63 43.97,9.28 44.22,7.73 44.47,6.52 44.72,6.44 44.96,6.41 45.21,7.66 45.46,8.77 45.71,8.71 45.96,8.92 46.21,9.55 46.46,10.65 46.71,11.28 46.96,13.19 47.21,12.88 47.46,11.38 47.71,10.42 47.96,8.77 48.21,8.02 48.46,8.14 48.71,9.14 48.96,11.12 49.21,11.26 49.46,9.71 49.71,10.07 49.96,10.67 50.21,10.61 50.46,11.47 50.71,10.98 50.96,8.25 51.21,7.15 51.46,7.41 51.71,8.10 51.96,8.10 52.21,7.50 52.46,7.54 52.71,7.49 52.96,7.16 53.21,6.54 53.46,6.07 53.71,5.92 53.96,6.48 54.21,7.09 54.46,6.77 54.71,7.18 54.96,7.52 55.21,8.16 55.46,8.88 55.71,9.48 55.96,9.27 56.21,8.67 56.46,8.01 56.70,8.04 56.95,6.03 57.20,5.03 57.45,4.89 57.70,7.08 57.95,7.76 58.20,10.51 58.45,11.51 58.70,9.17 58.95,6.46 59.20,6.82 59.45,7.75 59.70,7.37 59.95,6.56 60.20,6.07 60.45,5.93 60.70,6.86 60.95,8.15 61.20,8.64 61.45,8.28 61.70,7.99 61.95,7.42 62.20,7.31 62.45,31.94 62.70,32.10 62.95,32.57 63.20,33.06 63.45,32.94 63.70,33.40 63.95,32.42 64.20,31.03 64.45,31.35 64.70,31.87 64.95,31.06 65.20,28.59 65.45,27.30 65.70,27.92 65.95,28.83 66.20,31.11 66.45,34.03 66.70,37.41 66.95,38.57 67.20,38.61 67.45,38.58 67.70,38.78 67.95,38.39 68.20,38.69 68.44,38.25 68.69,38.27 68.94,38.56 69.19,39.09 69.44,41.04 69.69,44.25 69.94,46.93 70.19,44.51 70.44,42.08 70.69,40.61 70.94,38.87 71.19,37.95 71.44,38.62 71.69,41.82 71.94,44.83 72.19,48.42 72.44,50.17 72.69,51.06 72.94,52.17 73.19,51.79 73.44,50.86 73.69,49.30 73.94,48.26 74.19,47.48 74.44,47.48 74.69,46.80 74.94,46.70 75.19,46.39 75.44,46.22 75.69,46.78 75.94,48.95 76.19,51.88 76.44,53.62 76.69,53.71 76.94,53.44 77.19,53.05 77.44,54.31 77.69,55.38 77.94,54.55 78.19,54.30 78.44,54.10 78.69,53.23 78.94,52.42 79.19,52.11 79.44,51.77 79.69,52.25 79.93,53.35 80.18,53.55 80.43,51.97 80.68,50.18 80.93,48.93 81.18,47.95 81.43,47.49 81.68,47.62 81.93,46.31 82.18,45.74 82.43,44.29 82.68,43.82 82.93,43.98 83.18,43.80 83.43,43.04 83.68,42.33 83.93,42.20 84.18,42.18 84.43,42.12 84.68,41.49 84.93,41.18 85.18,40.50 85.43,39.79 85.68,38.87 85.93,37.86 86.18,36.85 86.43,36.36 86.68,35.71 86.93,34.91 87.18,33.92 87.43,32.89 87.68,31.99 87.93,30.71 88.18,29.55 88.43,28.35 88.68,27.40 88.93,26.70 89.18,25.99 89.43,25.21 89.68,24.73 89.93,24.10 90.18,23.60 90.43,23.29 90.68,23.39 90.93,23.26 91.18,23.75 91.43,24.22 91.67,25.95 91.92,26.14 92.17,25.11 92.42,21.51 92.67,18.81 92.92,17.08 93.17,16.00 93.42,16.48 93.67,17.75 93.92,19.21 94.17,21.78 94.42,21.71 94.67,19.89 94.92,17.72 95.17,17.80 95.42,21.08 95.67,21.88 95.92,25.57 96.17,28.16 96.42,27.88 96.67,26.36 96.92,24.93 97.17,23.63 97.42,22.74 97.67,22.96 97.92,24.18 98.17,25.72 98.42,23.47 98.67,20.20 98.92,17.86 99.17,15.20 99.42,14.84 99.67,14.99 99.92,14.80 100.17,14.51 100.42,12.39 100.67,11.41 100.92,11.44 101.17,11.34 101.42,10.93 101.67,10.49 101.92,9.85 102.17,9.70 102.42,9.30 102.67,7.76 102.92,6.50 103.17,6.50 103.41,6.59 103.66,7.76 103.91,8.71 104.16,8.75 104.41,8.76 104.66,9.63 104.91,10.55 105.16,11.49 105.41,13.16 105.66,12.86 105.91,11.27 106.16,10.30 106.41,8.76 106.66,8.07 106.91,8.26 107.16,9.10 107.41,10.99 107.66,11.20 107.91,9.76 108.16,9.82 108.41,10.67 108.66,10.79 108.91,11.38 109.16,11.18 109.41,8.59 109.66,7.17 109.91,7.52 110.16,8.05 110.41,8.18 110.66,7.68 110.91,7.54 111.16,7.66 111.41,7.20 111.66,6.57 111.91,6.28 112.16,5.95 112.41,6.41 112.66,7.07 112.91,6.84 113.16,7.02 113.41,7.62 113.66,7.95 113.91,8.83 114.16,9.76 114.41,9.34 114.66,8.74 114.91,8.13 115.15,7.94 115.40,5.88 115.65,5.01 115.90,4.88 116.15,7.17 116.40,8.02 116.65,10.31 116.90,11.44 117.15,9.28 117.40,6.38 117.65,6.62 117.90,7.89 118.15,7.46 118.40,6.69 118.65,6.08 118.90,6.00 119.15,6.90 119.40,7.99 119.65,8.71 119.90,8.37 120.15,7.97 120.40,7.47 120.65,7.28 120.90,31.94 121.15,32.27 121.40,32.68 121.65,33.39 121.90,33.48 122.15,33.97 122.40,33.02 122.65,31.03 122.90,31.37 123.15,31.89 123.40,30.86 123.65,28.26 123.90,27.44 124.15,28.33 124.40,28.75 124.65,31.57 124.90,34.17 125.15,37.26 125.40,38.55 125.65,39.06 125.90,38.17 126.15,38.75 126.40,37.22 126.64,38.11 126.89,38.65 127.14,38.25 127.39,38.67 127.64,38.94 127.89,41.23 128.14,43.76 128.39,46.65 128.64,44.12 128.89,42.15 129.14,40.58 129.39,39.03 129.64,37.93 129.89,38.83 130.14,42.71 130.39,44.80 130.64,48.19 130.89,50.00 131.14,50.98 131.39,51.92 131.64,51.95 131.89,50.56 132.14,49.84 132.39,47.97 132.64,47.51 132.89,47.45 133.14,46.28 133.39,46.43 133.64,45.80 133.89,46.38 134.14,46.76 134.39,48.89 134.64,52.54 134.89,53.52 135.14,53.53 135.39,53.98 135.64,53.47 135.89,54.06 136.14,55.52 136.39,54.38 136.64,54.42 136.89,54.10 137.14,53.24 137.39,52.45 137.64,52.15 137.89,51.64 138.14,51.79 138.38,53.62 138.63,53.56 138.88,51.73 139.13,50.29 139.38,48.51 139.63,47.74 139.88,46.88 140.13,47.35 140.38,46.01 140.63,45.69 140.88,44.92 141.13,43.81 141.38,44.09 141.63,43.80 141.88,43.00 142.13,42.33 142.38,42.05 142.63,42.06 142.88,42.07 143.13,41.57 143.38,40.89 143.63,40.33 143.88,39.56 144.13,38.59 144.38,37.78 144.63,36.94 144.88,36.24 145.13,35.74 145.38,34.86 145.63,33.87 145.88,33.07 146.13,31.86 146.38,30.81 146.63,29.83 146.88,28.53 147.13,27.61 147.38,26.74 147.63,25.76 147.88,25.34 148.13,24.75 148.38,23.87 148.63,23.75 148.88,23.20 149.13,23.39 149.38,23.38 149.63,23.80 149.88,24.58 150.12,26.35 150.37,26.55 150.62,24.81 150.87,21.58 151.12,18.70 151.37,16.57 151.62,15.68 151.87,16.08 152.12,17.02 152.37,18.78 152.62,21.83 152.87,21.28 153.12,19.19 153.37,16.79 153.62,16.67 153.87,21.16 154.12,22.01 154.37,25.49 154.62,27.42 154.87,27.25 155.12,25.82 155.37,24.44 155.62,23.88 155.87,22.73 156.12,22.44 156.37,24.81 156.62,26.12 156.87,23.22 157.12,20.18 157.37,16.95 157.62,15.12 157.87,14.81 158.12,14.95 158.37,14.80 158.62,14.52 158.87,12.34 159.12,11.49 159.37,11.46 159.62,11.25 159.87,10.95 160.12,10.46 160.37,9.90 160.62,9.70 160.87,9.44 161.12,8.08 161.37,6.84 161.62,6.52 161.86,6.70 162.11,7.99 162.36,8.75 162.61,8.35 162.86,8.64 163.11,9.81 163.36,10.46 163.61,12.25 163.86,13.51 164.11,12.85 164.36,11.44 164.61,10.25 164.86,8.71 165.11,8.03 165.36,8.15 165.61,9.44 165.86,11.06 166.11,10.81 166.36,10.80 166.61,10.19 166.86,10.62 167.11,11.38 167.36,11.12 167.61,11.09 167.86,8.09 168.11,7.41 168.36,7.88 168.61,7.92 168.86,8.17 169.11,7.70 169.36,7.94 169.61,7.38 169.86,7.17 170.11,6.02 170.36,6.30 170.61,5.71 170.86,6.72 171.11,6.65 171.36,7.20 171.61,7.24 171.86,8.19 172.11,7.40 172.36,9.45 172.61,9.39 172.86,9.95 173.11,9.61 173.36,8.75 173.60,7.73 173.85,5.92 174.10,5.17 174.35,5.28 174.60,7.54 174.85,8.24 175.10,9.96 175.35,11.49 175.60,8.43 175.85,6.77 176.10,7.26 176.35,7.54 176.60,8.28 176.85,6.78 177.10,6.52 177.35,6.27 177.60,7.35 177.85,7.54 178.10,8.62 178.35,7.98 178.60,8.17 178.85,7.51 179.10,7.02 179.35,31.96 179.60,32.95 179.85,31.75 180.10,32.88 180.35,32.81 180.60,32.32 180.85,31.66 181.10,31.27 181.35,31.63 181.60,31.29 181.85,29.77 182.10,27.54 182.35,28.79 182.60,28.58 182.85,28.98 183.10,32.76 183.35,35.25 183.60,36.98 183.85,37.11 184.10,39.71 184.35,39.15 184.60,38.58 184.85,37.26 185.09,36.65 185.34,39.70 185.59,39.07 185.84,38.72 186.09,38.95 186.34,39.79 186.59,43.15 186.84,46.05 187.09,43.72 187.34,41.88 187.59,41.03 187.84,39.77 188.09,38.28 188.34,40.55 188.59,43.39 188.84,46.30 189.09,48.49 189.34,49.20 189.59,51.21 189.84,50.88 190.09,50.42 190.34,49.98 190.59,48.28 190.84,47.88 191.09,48.24 191.34,47.66 191.59,46.83 191.84,46.16 192.09,45.53 192.34,47.67 192.59,46.94 192.84,49.66 193.09,52.06 193.34,53.44 193.59,51.54 193.84,53.50 194.09,53.22 194.34,54.23 194.59,56.00 194.84,54.20 195.09,54.05 195.34,54.25 195.59,52.95 195.84,51.79 196.09,52.08 196.34,51.53 196.59,51.26 196.83,53.31 197.08,52.71 197.33,52.08 197.58,50.15 197.83,48.44 198.08,47.41 198.33,47.15 198.58,47.15 198.83,45.60 199.08,45.45 199.33,44.27 199.58,43.95 199.83,44.01 200.08,43.70 200.33,43.33 200.58,42.66 200.83,42.40 201.08,41.75 201.33,41.35 201.58,41.81 201.83,40.93 202.08,40.15 202.33,40.00 202.58,38.62 202.83,37.54 203.08,37.41 203.33,36.55 203.58,36.12 203.83,35.18 204.08,34.32 204.33,33.52 204.58,32.70 204.83,30.55 205.08,29.49 205.33,28.78 205.58,27.57 205.83,26.87 206.08,25.69 206.33,26.63 206.58,25.19 206.83,24.79 207.08,24.73 207.33,23.24 207.58,22.81 207.83,23.89 208.08,25.23 208.33,24.15 208.57,25.53 208.82,25.85 209.07,24.44 209.32,22.07 209.57,17.48 209.82,16.87 210.07,17.60 210.32,16.64 210.57,16.64 210.82,19.51 211.07,21.71 211.32,22.12 211.57,20.32 211.82,18.08 212.07,17.99 212.32,20.98 212.57,23.24 212.82,26.40 213.07,25.69 213.32,25.19 213.57,23.99 213.82,22.79 214.07,24.60 214.32,23.66 214.57,23.38 214.82,25.02 215.07,24.45 215.32,22.07 215.57,19.28 215.82,17.41 216.07,16.44 216.32,14.91 216.57,14.72 216.82,14.69 217.07,13.62 217.32,13.54 217.57,11.79 217.82,11.82 218.07,12.00 218.32,11.49 218.57,10.94 218.82,10.44 219.07,10.18 219.32,9.34 219.57,8.95 219.82,6.80 220.07,6.74 220.31,7.06 220.56,7.24 220.81,9.11 221.06,7.87 221.31,8.09 221.56,10.26 221.81,11.61 222.06,12.99 222.31,12.99 222.56,13.57 222.81,12.23 223.06,10.18 223.31,8.43 223.56,7.61 223.81,7.81 224.06,8.85 224.31,9.90 224.56,9.56 224.81,11.25 225.06,11.26 225.31,11.52 225.56,11.25 225.81,10.92 226.06,9.23 226.31,6.90 226.56,8.60 226.81,8.35 227.06,8.35 227.31,7.78 227.56,9.36 227.81,8.44 228.06,7.83 228.31,6.94 228.56,5.73 228.81,7.35 229.06,6.88 229.31,7.19 229.56,8.02 229.81,8.79 230.06,6.98 230.31,8.85 230.56,8.17 230.81,10.98 231.06,8.03 231.31,10.74 231.56,10.27 231.80,10.51 232.05,8.01 232.30,7.13 232.55,4.00 232.80,4.51 233.05,9.24 233.30,10.67 233.55,8.25 233.80,11.81 234.05,9.15 234.30,9.13 234.55,8.05 234.80,7.69 235.05,9.16 235.30,5.87 235.55,7.41 235.80,7.26 236.05,8.79 236.30,8.01 236.55,9.88 236.80,8.93 237.05,8.28 237.30,8.17 237.55,7.08 237.80,31.84 238.05,31.84 238.30,31.84 238.55,32.26 238.80,32.26 239.05,32.26 239.30,32.46 239.55,32.46 239.80,32.46 240.05,29.94 240.30,29.94 240.55,29.94 240.80,29.94 241.05,29.76 241.30,29.76 241.55,36.71 241.80,30.00 242.05,30.00 242.30,28.80 242.55,38.84 242.80,38.84 243.05,37.28 243.30,37.28 243.54,35.57 243.79,35.57 244.04,35.57 244.29,36.91 244.54,36.91 244.79,36.91 245.04,39.37 245.29,39.37 245.54,38.44 245.79,38.44 246.04,38.44 246.29,43.69 246.54,43.69 246.79,41.53 247.04,41.53 247.29,43.18 247.54,43.18 247.79,48.66 248.04,48.66 248.29,44.87 248.54,44.87 248.79,50.34 249.04,48.75 249.29,48.75 249.54,48.75 249.79,51.23 250.04,51.23 250.29,51.23 250.54,49.61 250.79,49.61 251.04,49.61 251.29,49.61 251.54,45.98 251.79,51.17 252.04,51.17 252.29,51.17 252.54,46.73 252.79,52.66 253.04,52.66 253.29,52.66 253.54,48.19 253.79,52.93 254.04,52.93 254.29,49.84 254.54,49.84 254.79,49.84 255.04,48.29 255.28,48.29 255.53,48.29 255.78,48.45 256.03,48.45 256.28,48.45 256.53,44.46 256.78,46.75 257.03,46.75 257.28,46.27 257.53,46.27 257.78,44.98 258.03,44.98 258.28,44.98 258.53,45.33 258.78,45.33 259.03,45.33 259.28,43.00 259.53,42.96 259.78,42.96 260.03,42.96 260.28,41.68 260.53,41.52 260.78,41.52 261.03,38.31 261.28,38.31 261.53,38.31 261.78,37.36 262.03,37.36 262.28,37.36 262.53,35.92 262.78,35.92 263.03,35.92 263.28,29.68 263.53,29.68 263.78,29.68 264.03,33.24 264.28,33.24 264.53,27.40 264.78,27.40 265.03,27.40 265.28,33.11 265.53,26.69 265.78,26.69 266.03,26.69 266.28,30.98 266.53,30.98 266.78,24.10 267.02,23.86 267.27,23.86 267.52,23.86 267.77,20.87 268.02,20.87 268.27,20.87 268.52,24.30 268.77,24.30 269.02,24.30 269.27,24.30 269.52,22.59 269.77,22.59 270.02,22.59 270.27,15.82 270.52,15.82 270.77,23.36 271.02,23.36 271.27,23.36 271.52,24.91 271.77,24.91 272.02,21.77 272.27,21.77 272.52,21.77 272.77,20.45 273.02,20.45 273.27,18.61 273.52,18.61 273.77,18.61 274.02,15.96 274.27,15.96 274.52,15.96 274.77,15.03 275.02,12.37 275.27,13.96 275.52,13.96 275.77,13.96 276.02,13.50 276.27,13.50 276.52,18.34 276.77,15.64 277.02,15.64 277.27,15.64 277.52,11.61 277.77,11.61 278.02,11.61 278.27,7.82 278.51,7.13 278.76,7.13 279.01,7.13 279.26,10.47 279.51,10.47 279.76,10.47 280.01,10.47 280.26,13.01 280.51,13.01 280.76,13.01 281.01,13.01 281.26,12.90 281.51,12.90 281.76,12.90 282.01,13.66 282.26,13.66 282.51,13.66 282.76,14.55 283.01,14.55 283.26,14.55 283.51,14.02 283.76,14.02 284.01,14.02 284.26,9.98 284.51,9.98 284.76,9.98 285.01,7.50 285.26,7.50 285.51,7.50 285.76,7.50 286.01,13.32 286.26,13.32 286.51,13.32 286.76,10.18 287.01,10.18 287.26,10.18 287.51,10.87 287.76,10.87 288.01,10.87 288.26,15.52 288.51,15.52 288.76,15.52 289.01,13.48 289.26,13.48 289.51,13.48 289.76,13.48 290.01,20.55 290.25,13.15 290.50,13.15 290.75,13.15 291.00,4.67 291.25,15.20 291.50,15.20 291.75,15.20 292.00,7.49 292.25,13.45 292.50,13.45 292.75,13.45 293.00,18.10 293.25,8.89 293.50,8.89 293.75,8.89 294.00,13.75 294.25,13.75 294.50,8.92 294.75,8.92 295.00,16.25 295.25,12.66 295.50,12.66 295.75,13.07 296.00,6.46" />
</svg>