<svg width="300" height="60" xmlns="http://www.w3.org/2000/svg">
  <polyline fill="rgba(255,200,0,0.3)" stroke="#ffbb00" stroke-width="2" points="4.00,54.49 5.71,51.53 7.42,47.70 9.12,44.32 10.83,41.14 12.54,37.46 14.25,34.50 15.95,31.75 17.66,29.22 19.37,27.40 21.08,25.40 22.78,25.01 24.49,27.35 26.20,28.03 27.91,28.11 29.61,29.65 31.32,30.83 33.03,31.30 34.74,33.00 36.44,36.86 38.15,37.98 39.86,36.84 41.57,35.17 43.27,30.20 44.98,25.72 46.69,21.83 48.40,17.80 50.11,15.07 51.81,13.15 53.52,14.50 55.23,17.39 56.94,19.55 58.64,19.89 60.35,18.79 62.06,17.53 63.77,17.64 65.47,18.58 67.18,17.93 68.89,15.59 70.60,13.39 72.30,11.85 74.01,10.64 75.72,8.68 77.43,54.12 79.13,50.89 80.84,47.79 82.55,44.75 84.26,41.01 85.96,37.86 87.67,33.39 89.38,31.78 91.09,29.74 92.80,26.54 94.50,25.67 96.21,25.66 97.92,26.90 99.63,27.27 101.33,29.23 103.04,29.88 104.75,31.31 106.46,30.17 108.16,33.52 109.87,36.25 111.58,38.30 113.29,37.34 114.99,35.45 116.70,30.68 118.41,26.56 120.12,21.71 121.82,18.12 123.53,14.99 125.24,13.92 126.95,13.86 128.65,16.65 130.36,19.70 132.07,19.61 133.78,18.38 135.49,18.55 137.19,17.47 138.90,18.58 140.61,18.36 142.32,15.17 144.02,13.52 145.73,12.06 147.44,10.40 149.15,9.07 150.85,55.76 152.56,52.16 154.27,47.32 155.98,42.95 157.68,38.85 159.39,38.95 161.10,34.51 162.81,31.35 164.51,28.83 166.22,24.57 167.93,27.05 169.64,28.51 171.35,27.33 173.05,29.84 174.76,27.30 176.47,33.10 178.18,31.92 179.88,31.45 181.59,33.37 183.30,34.82 185.01,40.66 186.71,40.66 188.42,37.37 190.13,32.34 191.84,26.91 193.54,21.92 195.25,20.21 196.96,16.16 198.67,13.15 200.37,16.50 202.08,17.25 203.79,21.43 205.50,18.33 207.20,18.49 208.91,18.49 210.62,18.70 212.33,19.45 214.04,16.50 215.74,14.05 217.45,13.96 219.16,11.72 220.87,10.08 222.57,8.34 224.28,56.00 225.99,43.06 227.70,43.06 229.40,43.06 231.11,29.18 232.82,33.10 234.53,33.10 236.23,33.10 237.94,21.47 239.65,21.47 241.36,33.91 243.06,33.91 244.77,28.17 246.48,28.17 248.19,28.17 249.89,46.91 251.60,46.91 253.31,46.91 255.02,43.90 256.73,43.90 258.43,43.90 260.14,43.90 261.85,29.69 263.56,29.69 265.26,29.69 266.97,16.78 268.68,16.78 270.39,16.78 272.09,11.04 273.80,26.24 275.51,26.24 277.22,18.61 278.92,18.61 280.63,18.61 282.34,18.61 284.05,16.47 285.75,16.47 287.46,16.47 289.17,7.41 290.88,10.64 292.58,10.64 294.29,10.64 296.00,4.00" />
</svg>