<svg width="300" height="60" xmlns="http://www.w3.org/2000/svg">
  <polyline fill="rgba(255,200,0,0.3)" stroke="#ffbb00" stroke-width="2" points="4.00,56.00 5.09,54.65 6.19,52.84 7.28,52.31 8.37,51.22 9.47,49.80 10.56,48.18 11.66,45.86 12.75,44.50 13.84,43.43 14.94,42.49 16.03,42.30 17.12,43.07 18.22,42.26 19.31,43.24 20.40,43.75 21.50,44.33 22.59,44.29 23.69,44.56 24.78,45.09 25.87,45.36 26.97,44.10 28.06,42.90 29.15,43.41 30.25,45.67 31.34,46.47 32.43,46.45 33.53,46.19 34.62,45.75 35.72,45.03 36.81,44.23 37.90,43.13 39.00,41.57 40.09,39.75 41.18,38.98 42.28,38.43 43.37,38.76 44.46,38.81 45.56,38.76 46.65,37.08 47.75,37.02 48.84,35.98 49.93,35.23 51.03,35.12 52.12,35.84 53.21,35.99 54.31,36.44 55.40,37.00 56.49,36.04 57.59,36.13 58.68,36.89 59.78,36.11 60.87,35.01 61.96,34.41 63.06,32.24 64.15,30.24 65.24,29.43 66.34,27.61 67.43,27.31 68.52,27.81 69.62,27.02 70.71,24.13 71.81,19.44 72.90,14.50 73.99,11.58 75.09,10.87 76.18,6.33 77.27,55.91 78.37,54.48 79.46,52.47 80.55,51.17 81.65,51.09 82.74,49.33 83.84,46.42 84.93,44.83 86.02,43.50 87.12,43.47 88.21,42.59 89.30,42.05 90.40,41.63 91.49,42.82 92.58,43.14 93.68,43.59 94.77,44.35 95.87,44.21 96.96,44.29 98.05,44.87 99.15,45.08 100.24,43.65 101.33,42.99 102.43,43.15 103.52,45.80 104.61,46.21 105.71,46.36 106.80,45.89 107.90,45.56 108.99,44.76 110.08,44.04 111.18,43.32 112.27,41.55 113.36,39.61 114.46,39.38 115.55,38.82 116.64,38.40 117.74,38.85 118.83,38.80 119.93,37.27 121.02,36.68 122.11,34.95 123.21,34.30 124.30,35.73 125.39,36.23 126.49,36.65 127.58,36.31 128.67,35.65 129.77,36.93 130.86,36.64 131.96,36.21 133.05,36.19 134.14,35.03 135.24,33.24 136.33,30.99 137.42,29.34 138.52,28.81 139.61,27.39 140.70,26.36 141.80,27.79 142.89,26.12 143.99,24.56 145.08,18.50 146.17,14.84 147.27,11.22 148.36,11.73 149.45,6.88 150.55,55.73 151.64,55.28 152.73,53.61 153.83,51.92 154.92,51.42 156.01,51.42 157.11,47.97 158.20,46.59 159.30,45.91 160.39,43.15 161.48,43.02 162.58,43.07 163.67,41.57 164.76,42.23 165.86,43.29 166.95,43.85 168.04,44.06 169.14,44.06 170.23,45.99 171.33,45.89 172.42,45.04 173.51,45.91 174.61,43.82 175.70,42.97 176.79,46.55 177.89,46.74 178.98,46.50 180.07,46.05 181.17,45.36 182.26,44.58 183.36,43.68 184.45,42.38 185.54,40.52 186.64,39.17 187.73,38.56 188.82,38.38 189.92,38.72 191.01,39.22 192.10,39.62 193.20,36.94 194.29,37.71 195.39,35.38 196.48,33.18 197.57,36.01 198.67,35.46 199.76,38.50 200.85,34.50 201.95,33.72 203.04,37.40 204.13,36.63 205.23,32.63 206.32,35.86 207.42,34.88 208.51,33.74 209.60,31.30 210.70,31.30 211.79,28.95 212.88,26.65 213.98,30.36 215.07,29.57 216.16,23.53 217.26,27.16 218.35,21.99 219.45,16.88 220.54,10.60 221.63,9.41 222.73,7.29 223.82,55.98 224.91,55.98 226.01,54.87 227.10,54.87 228.19,54.87 229.29,54.18 230.38,48.13 231.48,48.13 232.57,46.35 233.66,46.35 234.76,46.35 235.85,46.40 236.94,46.40 238.04,46.40 239.13,47.33 240.22,47.33 241.32,47.33 242.41,47.33 243.51,47.51 244.60,47.51 245.69,47.51 246.79,45.16 247.88,45.16 248.97,45.16 250.07,47.76 251.16,47.76 252.25,47.76 253.35,46.44 254.44,46.44 255.54,46.44 256.63,44.95 257.72,44.95 258.82,44.95 259.91,42.91 261.00,42.91 262.10,42.91 263.19,41.75 264.28,41.75 265.38,41.75 266.47,35.24 267.57,37.01 268.66,37.01 269.75,37.01 270.85,39.34 271.94,31.82 273.03,31.82 274.13,31.82 275.22,37.36 276.31,37.36 277.41,28.53 278.50,28.53 279.60,35.58 280.69,35.58 281.78,25.81 282.88,32.85 283.97,32.85 285.06,32.85 286.16,20.51 287.25,28.88 288.34,28.88 289.44,28.88 290.53,28.88 291.63,21.49 292.72,21.49 293.81,21.49 294.91,4.00 296.00,13.91" />
</svg>