<svg width="300" height="60" xmlns="http://www.w3.org/2000/svg">
  <polyline fill="rgba(255,200,0,0.3)" stroke="#ffbb00" stroke-width="2" points="4.00,52.73 4.16,52.97 4.32,53.43 4.47,53.85 4.63,54.16 4.79,54.41 4.95,54.60 5.11,54.70 5.26,54.74 5.42,54.74 5.58,54.75 5.74,54.86 5.90,54.54 6.05,54.38 6.21,54.11 6.37,54.19 6.53,54.29 6.68,54.39 6.84,54.39 7.00,54.31 7.16,54.28 7.32,54.73 7.47,55.42 7.63,55.76 7.79,55.66 7.95,55.34 8.11,54.55 8.26,54.13 8.42,54.17 8.58,53.31 8.74,51.91 8.90,50.84 9.05,50.15 9.21,49.89 9.37,49.69 9.53,49.50 9.69,49.33 9.84,49.11 10.00,48.89 10.16,48.64 10.32,48.42 10.47,48.16 10.63,48.00 10.79,47.84 10.95,47.69 11.11,47.55 11.26,47.22 11.42,46.81 11.58,46.60 11.74,46.28 11.90,46.00 12.05,45.80 12.21,45.67 12.37,45.43 12.53,45.14 12.69,44.88 12.84,44.68 13.00,44.53 13.16,44.40 13.32,44.20 13.48,43.88 13.63,43.53 13.79,43.15 13.95,42.43 14.11,42.46 14.27,42.29 14.42,42.09 14.58,41.86 14.74,41.60 14.90,41.04 15.05,41.01 15.21,41.22 15.37,41.70 15.53,41.60 15.69,41.76 15.84,41.96 16.00,41.77 16.16,41.43 16.32,41.43 16.48,41.32 16.63,41.18 16.79,40.90 16.95,40.85 17.11,40.66 17.27,40.47 17.42,40.17 17.58,39.95 17.74,39.77 17.90,39.56 18.06,39.34 18.21,39.26 18.37,39.18 18.53,39.09 18.69,39.01 18.84,39.04 19.00,38.92 19.16,38.61 19.32,38.26 19.48,38.04 19.63,37.66 19.79,37.33 19.95,37.11 20.11,36.69 20.27,36.35 20.42,36.00 20.58,35.84 20.74,35.68 20.90,35.57 21.06,35.44 21.21,35.29 21.37,35.15 21.53,34.90 21.69,34.63 21.85,34.32 22.00,34.11 22.16,33.88 22.32,33.70 22.48,33.67 22.63,33.68 22.79,33.78 22.95,33.83 23.11,34.94 23.27,35.83 23.42,35.66 23.58,35.08 23.74,34.63 23.90,34.12 24.06,34.08 24.21,34.13 24.37,34.03 24.53,34.27 24.69,34.51 24.85,34.72 25.00,35.34 25.16,35.94 25.32,36.38 25.48,36.35 25.64,36.37 25.79,36.62 25.95,36.37 26.11,36.33 26.27,36.25 26.43,35.86 26.58,35.86 26.74,35.80 26.90,35.90 27.06,36.06 27.21,36.23 27.37,36.45 27.53,36.49 27.69,36.55 27.85,36.35 28.00,36.67 28.16,36.69 28.32,36.89 28.48,37.08 28.64,37.29 28.79,38.60 28.95,38.55 29.11,37.74 29.27,37.78 29.43,37.82 29.58,37.88 29.74,37.89 29.90,38.06 30.06,38.29 30.22,38.47 30.37,38.53 30.53,38.66 30.69,38.94 30.85,38.91 31.00,39.22 31.16,39.20 31.32,39.26 31.48,39.28 31.64,39.25 31.79,39.24 31.95,39.19 32.11,39.11 32.27,39.03 32.43,38.97 32.58,39.08 32.74,38.85 32.90,38.35 33.06,37.89 33.22,37.34 33.37,37.21 33.53,37.00 33.69,36.84 33.85,36.40 34.01,36.15 34.16,36.48 34.32,36.20 34.48,36.25 34.64,35.65 34.80,36.15 34.95,36.01 35.11,35.87 35.27,35.84 35.43,35.64 35.58,35.55 35.74,35.10 35.90,34.83 36.06,34.63 36.22,33.94 36.37,33.99 36.53,33.71 36.69,33.31 36.85,32.84 37.01,32.77 37.16,32.40 37.32,31.95 37.48,31.42 37.64,31.14 37.80,30.50 37.95,29.70 38.11,29.34 38.27,29.03 38.43,28.59 38.59,28.32 38.74,27.99 38.90,27.34 39.06,26.71 39.22,26.34 39.37,26.16 39.53,25.83 39.69,25.52 39.85,25.32 40.01,25.16 40.16,24.96 40.32,24.67 40.48,24.40 40.64,24.36 40.80,24.14 40.95,23.84 41.11,23.43 41.27,22.91 41.43,22.66 41.59,22.43 41.74,22.19 41.90,21.49 42.06,21.39 42.22,20.77 42.38,20.68 42.53,20.42 42.69,20.04 42.85,20.00 43.01,19.74 43.16,19.64 43.32,19.86 43.48,20.19 43.64,20.39 43.80,20.57 43.95,20.44 44.11,20.42 44.27,20.37 44.43,20.43 44.59,20.18 44.74,20.36 44.90,20.54 45.06,20.78 45.22,20.83 45.38,20.64 45.53,21.20 45.69,21.25 45.85,21.51 46.01,21.15 46.17,21.43 46.32,21.97 46.48,22.13 46.64,22.14 46.80,21.99 46.96,22.12 47.11,22.57 47.27,23.15 47.43,22.79 47.59,22.79 47.74,22.74 47.90,22.59 48.06,22.35 48.22,22.01 48.38,21.80 48.53,21.55 48.69,21.16 48.85,20.83 49.01,20.22 49.17,19.67 49.32,19.41 49.48,19.24 49.64,19.03 49.80,18.88 49.96,18.93 50.11,18.88 50.27,18.73 50.43,18.20 50.59,17.72 50.75,17.16 50.90,16.86 51.06,16.01 51.22,15.50 51.38,15.58 51.53,15.72 51.69,15.58 51.85,15.40 52.01,15.07 52.17,15.13 52.32,15.05 52.48,14.51 52.64,13.91 52.80,13.45 52.96,13.48 53.11,13.64 53.27,13.65 53.43,13.61 53.59,13.55 53.75,13.39 53.90,12.97 54.06,12.37 54.22,12.36 54.38,12.15 54.54,12.02 54.69,11.38 54.85,11.50 55.01,11.44 55.17,11.44 55.33,11.38 55.48,11.21 55.64,12.42 55.80,12.16 55.96,11.64 56.11,11.29 56.27,10.84 56.43,10.53 56.59,10.11 56.75,9.68 56.90,9.46 57.06,9.51 57.22,9.67 57.38,9.59 57.54,9.48 57.69,9.03 57.85,8.67 58.01,8.18 58.17,7.49 58.33,7.43 58.48,7.68 58.64,6.83 58.80,6.32 58.96,6.98 59.12,7.10 59.27,7.22 59.43,7.45 59.59,7.65 59.75,7.36 59.90,7.44 60.06,7.72 60.22,7.63 60.38,7.40 60.54,7.24 60.69,7.37 60.85,7.40 61.01,7.57 61.17,7.44 61.33,7.12 61.48,6.62 61.64,6.24 61.80,6.00 61.96,5.96 62.12,6.13 62.27,6.12 62.43,52.73 62.59,52.96 62.75,53.42 62.91,53.87 63.06,54.17 63.22,54.41 63.38,54.60 63.54,54.70 63.69,54.73 63.85,54.75 64.01,54.76 64.17,54.78 64.33,54.55 64.48,54.38 64.64,54.11 64.80,54.16 64.96,54.29 65.12,54.40 65.27,54.41 65.43,54.28 65.59,54.23 65.75,54.71 65.91,55.48 66.06,55.74 66.22,55.72 66.38,55.29 66.54,54.58 66.70,54.14 66.85,54.12 67.01,53.26 67.17,51.89 67.33,50.84 67.49,50.14 67.64,49.88 67.80,49.70 67.96,49.50 68.12,49.32 68.27,49.11 68.43,48.87 68.59,48.66 68.75,48.39 68.91,48.17 69.06,47.99 69.22,47.84 69.38,47.69 69.54,47.58 69.70,47.24 69.85,46.80 70.01,46.63 70.17,46.29 70.33,45.99 70.49,45.82 70.64,45.80 70.80,45.39 70.96,45.14 71.12,44.87 71.28,44.67 71.43,44.52 71.59,44.41 71.75,44.19 71.91,43.88 72.06,43.55 72.22,43.16 72.38,42.43 72.54,42.43 72.70,42.33 72.85,42.08 73.01,41.86 73.17,41.63 73.33,41.04 73.49,41.02 73.64,41.21 73.80,41.70 73.96,41.62 74.12,41.77 74.28,41.93 74.43,41.76 74.59,41.47 74.75,41.48 74.91,41.33 75.07,41.19 75.22,40.90 75.38,40.84 75.54,40.67 75.70,40.49 75.86,40.18 76.01,39.96 76.17,39.77 76.33,39.55 76.49,39.36 76.64,39.26 76.80,39.17 76.96,39.03 77.12,39.03 77.28,39.09 77.43,38.89 77.59,38.61 77.75,38.24 77.91,38.03 78.07,37.67 78.22,37.30 78.38,37.10 78.54,36.72 78.70,36.31 78.86,35.99 79.01,35.82 79.17,35.68 79.33,35.57 79.49,35.43 79.65,35.31 79.80,35.14 79.96,34.88 80.12,34.59 80.28,34.33 80.43,34.10 80.59,33.89 80.75,33.65 80.91,33.68 81.07,33.73 81.22,33.78 81.38,33.85 81.54,34.92 81.70,35.90 81.86,35.67 82.01,35.12 82.17,34.64 82.33,34.12 82.49,34.09 82.65,34.12 82.80,34.04 82.96,34.26 83.12,34.51 83.28,34.71 83.44,35.28 83.59,36.07 83.75,36.46 83.91,36.35 84.07,36.47 84.22,36.51 84.38,36.46 84.54,36.37 84.70,36.25 84.86,35.96 85.01,35.84 85.17,35.84 85.33,35.91 85.49,36.06 85.65,36.24 85.80,36.43 85.96,36.47 86.12,36.53 86.28,36.36 86.44,36.64 86.59,36.69 86.75,36.88 86.91,37.05 87.07,37.32 87.23,38.59 87.38,38.66 87.54,37.75 87.70,37.78 87.86,37.82 88.02,37.89 88.17,37.89 88.33,38.00 88.49,38.29 88.65,38.45 88.80,38.54 88.96,38.66 89.12,38.99 89.28,38.91 89.44,39.23 89.59,39.20 89.75,39.26 89.91,39.28 90.07,39.27 90.23,39.24 90.38,39.22 90.54,39.11 90.70,39.03 90.86,38.97 91.02,39.12 91.17,38.85 91.33,38.30 91.49,37.85 91.65,37.37 91.81,37.23 91.96,37.00 92.12,36.85 92.28,36.49 92.44,36.12 92.59,36.48 92.75,36.19 92.91,36.15 93.07,35.80 93.23,36.14 93.38,36.02 93.54,35.87 93.70,35.87 93.86,35.64 94.02,35.57 94.17,35.12 94.33,34.82 94.49,34.50 94.65,33.96 94.81,33.93 94.96,33.70 95.12,33.31 95.28,32.88 95.44,32.76 95.60,32.30 95.75,32.04 95.91,31.47 96.07,31.15 96.23,30.42 96.39,29.78 96.54,29.32 96.70,29.08 96.86,28.62 97.02,28.33 97.17,27.96 97.33,27.24 97.49,26.70 97.65,26.39 97.81,26.16 97.96,25.80 98.12,25.53 98.28,25.29 98.44,25.17 98.60,25.06 98.75,24.72 98.91,24.45 99.07,24.37 99.23,24.12 99.39,23.91 99.54,23.31 99.70,22.94 99.86,22.68 100.02,22.32 100.18,22.23 100.33,21.69 100.49,21.27 100.65,20.76 100.81,20.63 100.96,20.41 101.12,20.03 101.28,20.00 101.44,19.79 101.60,19.62 101.75,19.85 101.91,20.17 102.07,20.42 102.23,20.53 102.39,20.41 102.54,20.49 102.70,20.37 102.86,20.44 103.02,20.14 103.18,20.35 103.33,20.56 103.49,20.82 103.65,20.80 103.81,20.67 103.97,21.13 104.12,21.24 104.28,21.46 104.44,21.21 104.60,21.50 104.76,21.97 104.91,22.12 105.07,22.14 105.23,21.98 105.39,22.13 105.54,22.62 105.70,23.26 105.86,22.80 106.02,22.80 106.18,22.74 106.33,22.60 106.49,22.34 106.65,22.06 106.81,21.80 106.97,21.52 107.12,21.17 107.28,20.83 107.44,20.29 107.60,19.67 107.76,19.52 107.91,19.32 108.07,19.01 108.23,18.88 108.39,18.90 108.55,18.89 108.70,18.84 108.86,18.14 109.02,17.66 109.18,17.10 109.33,16.87 109.49,15.82 109.65,15.44 109.81,15.66 109.97,15.68 110.12,15.59 110.28,15.49 110.44,15.09 110.60,15.11 110.76,15.01 110.91,14.53 111.07,13.90 111.23,13.43 111.39,13.49 111.55,13.64 111.70,13.67 111.86,13.60 112.02,13.54 112.18,13.40 112.34,12.86 112.49,12.38 112.65,12.25 112.81,12.25 112.97,11.96 113.12,11.30 113.28,11.47 113.44,11.45 113.60,11.44 113.76,11.36 113.91,11.21 114.07,12.34 114.23,12.18 114.39,11.73 114.55,11.32 114.70,10.85 114.86,10.61 115.02,10.07 115.18,9.66 115.34,9.44 115.49,9.51 115.65,9.64 115.81,9.59 115.97,9.45 116.13,9.03 116.28,8.59 116.44,8.20 116.60,7.46 116.76,7.54 116.92,7.67 117.07,6.94 117.23,6.32 117.39,6.95 117.55,7.09 117.70,7.22 117.86,7.44 118.02,7.66 118.18,7.43 118.34,7.50 118.49,7.68 118.65,7.58 118.81,7.34 118.97,7.23 119.13,7.41 119.28,7.43 119.44,7.52 119.60,7.56 119.76,7.08 119.92,6.61 120.07,6.28 120.23,5.97 120.39,5.98 120.55,6.13 120.71,6.12 120.86,52.73 121.02,52.98 121.18,53.47 121.34,53.91 121.49,54.16 121.65,54.42 121.81,54.63 121.97,54.73 122.13,54.78 122.28,54.78 122.44,54.77 122.60,54.74 122.76,54.55 122.92,54.33 123.07,54.10 123.23,53.97 123.39,54.26 123.55,54.36 123.71,54.39 123.86,54.23 124.02,54.17 124.18,54.64 124.34,55.63 124.50,55.66 124.65,55.38 124.81,55.45 124.97,54.55 125.13,54.18 125.29,54.21 125.44,53.03 125.60,51.76 125.76,50.81 125.92,50.19 126.07,49.96 126.23,49.66 126.39,49.48 126.55,49.32 126.71,49.09 126.86,48.88 127.02,48.66 127.18,48.39 127.34,48.20 127.50,48.04 127.65,47.82 127.81,47.71 127.97,47.55 128.13,47.10 128.29,46.92 128.44,46.64 128.60,46.35 128.76,46.02 128.92,45.73 129.08,46.07 129.23,45.66 129.39,45.13 129.55,44.86 129.71,44.70 129.86,44.50 130.02,44.39 130.18,44.22 130.34,43.82 130.50,43.42 130.65,43.20 130.81,42.52 130.97,42.37 131.13,42.32 131.29,42.10 131.44,41.88 131.60,41.66 131.76,41.22 131.92,41.06 132.08,41.23 132.23,41.62 132.39,41.57 132.55,41.72 132.71,41.93 132.87,41.78 133.02,41.47 133.18,41.41 133.34,41.28 133.50,41.17 133.65,40.92 133.81,40.85 133.97,40.64 134.13,40.39 134.29,40.12 134.44,39.93 134.60,39.73 134.76,39.53 134.92,39.08 135.08,39.26 135.23,39.17 135.39,38.88 135.55,39.07 135.71,39.09 135.87,38.90 136.02,38.61 136.18,38.28 136.34,38.04 136.50,37.60 136.66,37.30 136.81,37.03 136.97,36.68 137.13,36.24 137.29,35.91 137.45,35.78 137.60,35.68 137.76,35.55 137.92,35.43 138.08,35.29 138.23,35.09 138.39,34.89 138.55,34.40 138.71,34.36 138.87,34.15 139.02,33.86 139.18,33.78 139.34,33.74 139.50,33.71 139.66,33.78 139.81,33.81 139.97,34.88 140.13,36.07 140.29,35.75 140.45,35.12 140.60,34.59 140.76,34.21 140.92,34.08 141.08,34.06 141.24,33.98 141.39,34.28 141.55,34.54 141.71,34.70 141.87,35.26 142.02,36.13 142.18,36.42 142.34,36.39 142.50,36.50 142.66,36.60 142.81,36.58 142.97,36.36 143.13,36.05 143.29,35.85 143.45,35.91 143.60,35.91 143.76,35.88 143.92,36.06 144.08,36.22 144.24,36.55 144.39,36.53 144.55,36.55 144.71,36.30 144.87,36.56 145.03,36.73 145.18,36.93 145.34,37.08 145.50,37.38 145.66,38.87 145.82,38.69 145.97,37.71 146.13,37.77 146.29,37.83 146.45,37.86 146.60,37.89 146.76,38.11 146.92,38.47 147.08,38.45 147.24,38.59 147.39,38.74 147.55,38.81 147.71,38.95 147.87,39.15 148.03,39.19 148.18,39.25 148.34,39.26 148.50,39.27 148.66,39.31 148.82,39.22 148.97,39.15 149.13,39.04 149.29,38.94 149.45,39.04 149.61,38.75 149.76,38.24 149.92,37.90 150.08,37.46 150.24,37.11 150.39,36.97 150.55,36.82 150.71,36.06 150.87,36.40 151.03,36.47 151.18,36.40 151.34,36.27 151.50,35.90 151.66,36.08 151.82,36.02 151.97,35.90 152.13,35.86 152.29,35.62 152.45,35.56 152.61,35.14 152.76,34.90 152.92,34.13 153.08,34.10 153.24,33.51 153.40,33.73 153.55,33.27 153.71,32.82 153.87,32.66 154.03,32.30 154.18,31.84 154.34,31.36 154.50,31.02 154.66,30.36 154.82,29.83 154.97,29.31 155.13,29.07 155.29,28.68 155.45,27.99 155.61,27.98 155.76,26.98 155.92,26.55 156.08,26.20 156.24,25.96 156.40,25.77 156.55,25.49 156.71,25.31 156.87,25.19 157.03,24.69 157.19,24.54 157.34,24.14 157.50,24.13 157.66,24.16 157.82,23.75 157.98,23.35 158.13,22.77 158.29,22.58 158.45,22.21 158.61,21.94 158.76,21.36 158.92,21.03 159.08,20.81 159.24,20.66 159.40,20.42 159.55,19.99 159.71,19.63 159.87,19.45 160.03,19.57 160.19,19.88 160.34,20.18 160.50,20.34 160.66,20.54 160.82,20.40 160.98,20.43 161.13,20.37 161.29,20.43 161.45,20.00 161.61,20.34 161.77,20.66 161.92,20.78 162.08,20.73 162.24,20.60 162.40,21.20 162.55,21.46 162.71,21.20 162.87,21.14 163.03,21.30 163.19,22.02 163.34,22.13 163.50,22.13 163.66,21.98 163.82,22.14 163.98,22.49 164.13,22.80 164.29,22.69 164.45,22.80 164.61,22.75 164.77,22.62 164.92,22.05 165.08,21.92 165.24,21.76 165.40,21.47 165.56,21.13 165.71,20.50 165.87,20.25 166.03,19.67 166.19,19.67 166.35,19.10 166.50,19.00 166.66,18.90 166.82,18.81 166.98,18.69 167.13,18.28 167.29,17.84 167.45,17.53 167.61,17.08 167.77,16.81 167.92,15.77 168.08,15.29 168.24,15.23 168.40,15.69 168.56,15.32 168.71,15.09 168.87,15.02 169.03,15.17 169.19,15.13 169.35,14.55 169.50,13.80 169.66,13.59 169.82,13.67 169.98,13.56 170.14,13.60 170.29,13.61 170.45,13.65 170.61,13.35 170.77,12.71 170.92,12.55 171.08,12.68 171.24,12.07 171.40,12.10 171.56,11.69 171.71,11.57 171.87,11.47 172.03,11.44 172.19,11.33 172.35,11.16 172.50,12.22 172.66,12.27 172.82,11.73 172.98,11.66 173.14,10.77 173.29,10.48 173.45,10.16 173.61,9.57 173.77,9.48 173.93,9.56 174.08,9.72 174.24,9.64 174.40,9.52 174.56,9.06 174.71,8.60 174.87,8.13 175.03,7.62 175.19,7.44 175.35,7.59 175.50,6.65 175.66,6.36 175.82,7.01 175.98,7.19 176.14,7.17 176.29,7.47 176.45,7.68 176.61,7.16 176.77,7.60 176.93,7.82 177.08,7.57 177.24,7.36 177.40,7.23 177.56,7.33 177.72,7.33 177.87,7.38 178.03,7.72 178.19,6.97 178.35,6.66 178.51,6.32 178.66,5.98 178.82,6.03 178.98,6.11 179.14,6.10 179.29,52.80 179.45,53.11 179.61,53.82 179.77,54.15 179.93,54.15 180.08,54.54 180.24,54.68 180.40,54.88 180.56,54.77 180.72,54.78 180.87,54.88 181.03,54.71 181.19,54.96 181.35,54.37 181.51,54.16 181.66,54.12 181.82,54.37 181.98,54.33 182.14,54.44 182.30,54.20 182.45,53.82 182.61,54.55 182.77,55.44 182.93,55.37 183.08,55.66 183.24,54.81 183.40,53.99 183.56,54.37 183.72,53.73 183.87,52.69 184.03,51.57 184.19,50.92 184.35,50.42 184.51,49.99 184.66,49.80 184.82,49.09 184.98,49.02 185.14,48.96 185.30,48.16 185.45,48.98 185.61,48.25 185.77,48.40 185.93,47.80 186.09,47.77 186.24,47.31 186.40,46.75 186.56,46.10 186.72,46.77 186.88,46.17 187.03,46.33 187.19,45.59 187.35,46.00 187.51,45.53 187.66,45.24 187.82,45.05 187.98,44.90 188.14,44.88 188.30,44.03 188.45,43.83 188.61,44.26 188.77,43.70 188.93,43.45 189.09,42.72 189.24,42.40 189.40,42.12 189.56,42.31 189.72,41.88 189.88,41.61 190.03,41.65 190.19,41.21 190.35,40.90 190.51,41.05 190.67,41.42 190.82,41.60 190.98,41.58 191.14,41.74 191.30,41.99 191.45,41.45 191.61,40.99 191.77,41.03 191.93,41.03 192.09,41.10 192.24,40.68 192.40,40.64 192.56,40.28 192.72,40.18 192.88,40.10 193.03,40.03 193.19,39.89 193.35,39.48 193.51,39.33 193.67,39.30 193.82,38.30 193.98,38.85 194.14,38.83 194.30,38.87 194.46,38.70 194.61,38.44 194.77,37.99 194.93,37.78 195.09,37.13 195.24,36.43 195.40,36.81 195.56,36.29 195.72,35.95 195.88,35.78 196.03,35.72 196.19,35.77 196.35,35.84 196.51,35.94 196.67,34.51 196.82,34.51 196.98,34.47 197.14,34.42 197.30,34.66 197.46,33.80 197.61,34.06 197.77,33.69 197.93,32.95 198.09,33.68 198.25,33.88 198.40,34.54 198.56,35.50 198.72,36.17 198.88,35.31 199.04,34.73 199.19,34.35 199.35,34.06 199.51,34.06 199.67,34.09 199.82,34.27 199.98,34.61 200.14,34.61 200.30,34.77 200.46,35.29 200.61,35.63 200.77,35.81 200.93,35.94 201.09,36.11 201.25,36.40 201.40,35.92 201.56,36.36 201.72,35.66 201.88,35.67 202.04,36.06 202.19,35.75 202.35,35.37 202.51,36.38 202.67,36.05 202.83,36.73 202.98,36.31 203.14,35.77 203.30,36.14 203.46,36.05 203.61,36.72 203.77,36.49 203.93,37.23 204.09,38.48 204.25,38.48 204.40,37.52 204.56,37.69 204.72,37.68 204.88,37.07 205.04,37.28 205.19,38.04 205.35,38.09 205.51,38.30 205.67,38.30 205.83,38.57 205.98,39.01 206.14,38.37 206.30,38.87 206.46,38.03 206.62,38.96 206.77,39.04 206.93,39.04 207.09,38.91 207.25,38.77 207.41,39.41 207.56,38.79 207.72,38.87 207.88,38.91 208.04,38.60 208.19,37.92 208.35,38.14 208.51,37.51 208.67,36.76 208.83,37.00 208.98,37.00 209.14,36.74 209.30,36.38 209.46,36.70 209.62,35.98 209.77,36.37 209.93,36.47 210.09,36.21 210.25,36.19 210.41,35.90 210.56,35.66 210.72,35.49 210.88,35.49 211.04,35.26 211.20,34.37 211.35,34.34 211.51,34.23 211.67,34.25 211.83,34.21 211.98,33.08 212.14,32.76 212.30,32.88 212.46,32.57 212.62,32.40 212.77,31.35 212.93,31.14 213.09,30.05 213.25,28.99 213.41,29.18 213.56,29.18 213.72,28.59 213.88,28.28 214.04,27.64 214.20,27.64 214.35,26.40 214.51,26.36 214.67,26.32 214.83,25.63 214.99,25.56 215.14,25.55 215.30,25.04 215.46,25.22 215.62,24.66 215.78,23.57 215.93,24.16 216.09,23.55 216.25,23.86 216.41,23.47 216.56,22.97 216.72,22.47 216.88,22.11 217.04,21.82 217.20,21.41 217.35,20.78 217.51,20.58 217.67,20.67 217.83,20.18 217.99,20.17 218.14,19.82 218.30,19.94 218.46,19.75 218.62,19.93 218.78,20.37 218.93,20.45 219.09,20.50 219.25,20.58 219.41,20.09 219.57,20.45 219.72,20.01 219.88,19.89 220.04,19.52 220.20,20.24 220.35,20.24 220.51,20.68 220.67,20.16 220.83,20.83 220.99,21.10 221.14,20.16 221.30,21.19 221.46,21.06 221.62,21.77 221.78,22.05 221.93,21.88 222.09,21.79 222.25,22.02 222.41,22.22 222.57,22.83 222.72,22.48 222.88,22.80 223.04,22.59 223.20,22.68 223.36,21.96 223.51,21.96 223.67,22.02 223.83,21.09 223.99,21.19 224.14,20.98 224.30,20.72 224.46,19.56 224.62,19.68 224.78,19.26 224.93,18.84 225.09,18.63 225.25,18.49 225.41,18.28 225.57,17.84 225.72,18.07 225.88,18.07 226.04,17.81 226.20,16.47 226.36,15.48 226.51,16.26 226.67,15.80 226.83,16.09 226.99,15.63 227.15,15.51 227.30,14.70 227.46,14.80 227.62,14.71 227.78,14.35 227.94,13.88 228.09,13.58 228.25,13.58 228.41,13.30 228.57,13.91 228.72,13.31 228.88,13.22 229.04,13.32 229.20,12.54 229.36,12.20 229.51,12.92 229.67,12.04 229.83,12.28 229.99,11.55 230.15,10.99 230.30,10.85 230.46,11.10 230.62,11.30 230.78,11.55 230.94,11.55 231.09,11.71 231.25,11.91 231.41,11.42 231.57,10.37 231.73,10.15 231.88,9.65 232.04,8.69 232.20,9.43 232.36,9.69 232.51,9.58 232.67,9.81 232.83,9.10 232.99,9.37 233.15,8.22 233.30,8.03 233.46,7.63 233.62,7.04 233.78,7.72 233.94,6.83 234.09,5.73 234.25,6.36 234.41,6.63 234.57,7.14 234.73,7.11 234.88,7.69 235.04,7.30 235.20,6.88 235.36,7.35 235.52,7.87 235.67,7.23 235.83,7.06 235.99,7.27 236.15,7.20 236.31,7.20 236.46,7.00 236.62,6.50 236.78,6.73 236.94,5.95 237.09,5.72 237.25,6.00 237.41,5.65 237.57,5.88 237.73,53.12 237.88,53.12 238.04,53.94 238.20,53.97 238.36,53.97 238.52,53.97 238.67,54.79 238.83,54.79 238.99,54.79 239.15,54.69 239.31,54.69 239.46,54.69 239.62,55.20 239.78,55.20 239.94,53.56 240.10,53.56 240.25,54.78 240.41,54.78 240.57,54.78 240.73,54.37 240.88,54.37 241.04,54.37 241.20,54.37 241.36,53.47 241.52,56.00 241.67,56.00 241.83,54.08 241.99,54.08 242.15,54.08 242.31,51.79 242.46,51.79 242.62,51.79 242.78,51.79 242.94,48.64 243.10,48.64 243.25,48.64 243.41,46.25 243.57,48.20 243.73,48.20 243.89,48.20 244.04,45.97 244.20,45.97 244.36,45.97 244.52,47.29 244.67,47.29 244.83,45.52 244.99,45.52 245.15,45.52 245.31,43.65 245.46,43.65 245.62,43.65 245.78,45.26 245.94,45.26 246.10,45.26 246.25,44.85 246.41,44.85 246.57,44.43 246.73,42.04 246.89,42.04 247.04,42.98 247.20,42.98 247.36,42.98 247.52,42.15 247.68,42.15 247.83,42.17 247.99,42.17 248.15,41.17 248.31,41.17 248.47,41.16 248.62,41.16 248.78,39.65 248.94,39.65 249.10,41.17 249.25,41.17 249.41,41.17 249.57,42.20 249.73,42.20 249.89,41.15 250.04,41.15 250.20,42.00 250.36,42.00 250.52,40.65 250.68,40.65 250.83,40.65 250.99,40.21 251.15,40.21 251.31,40.21 251.47,40.06 251.62,40.06 251.78,39.59 251.94,39.59 252.10,39.59 252.26,39.57 252.41,39.57 252.57,39.57 252.73,40.59 252.89,40.59 253.04,40.59 253.20,40.18 253.36,40.18 253.52,38.23 253.68,38.23 253.83,38.23 253.99,36.40 254.15,36.40 254.31,36.40 254.47,35.75 254.62,35.75 254.78,35.88 254.94,35.88 255.10,35.88 255.26,36.14 255.41,36.14 255.57,36.24 255.73,36.24 255.89,36.24 256.05,36.59 256.20,33.28 256.36,33.28 256.52,33.28 256.68,35.18 256.84,35.18 256.99,35.18 257.15,37.84 257.31,34.99 257.47,34.99 257.62,34.99 257.78,33.83 257.94,33.83 258.10,33.83 258.26,31.97 258.41,33.80 258.57,33.80 258.73,33.80 258.89,33.80 259.05,35.61 259.20,35.61 259.36,35.61 259.52,36.24 259.68,36.24 259.84,33.45 259.99,35.04 260.15,35.04 260.31,35.04 260.47,33.13 260.63,33.13 260.78,33.13 260.94,35.42 261.10,35.42 261.26,35.42 261.41,33.90 261.57,33.90 261.73,33.90 261.89,34.19 262.05,34.19 262.20,34.19 262.36,35.92 262.52,35.92 262.68,35.92 262.84,35.92 262.99,37.05 263.15,37.05 263.31,34.70 263.47,34.70 263.63,37.07 263.78,37.07 263.94,33.96 264.10,33.96 264.26,37.68 264.42,37.68 264.57,35.39 264.73,35.39 264.89,35.39 265.05,37.06 265.20,37.06 265.36,37.06 265.52,37.06 265.68,37.03 265.84,37.03 265.99,37.03 266.15,37.03 266.31,37.63 266.47,38.70 266.63,38.70 266.78,38.70 266.94,36.88 267.10,37.63 267.26,37.63 267.42,37.63 267.57,37.62 267.73,37.62 267.89,37.62 268.05,36.00 268.21,38.73 268.36,38.73 268.52,37.79 268.68,37.79 268.84,37.79 269.00,35.19 269.15,35.19 269.31,35.19 269.47,35.19 269.63,33.96 269.78,33.96 269.94,34.09 270.10,34.09 270.26,34.09 270.42,34.12 270.57,34.12 270.73,34.12 270.89,35.14 271.05,31.61 271.21,31.61 271.36,31.61 271.52,28.41 271.68,28.41 271.84,30.82 272.00,30.82 272.15,28.38 272.31,28.38 272.47,28.38 272.63,29.67 272.79,26.27 272.94,26.27 273.10,26.17 273.26,26.17 273.42,26.00 273.57,26.00 273.73,26.00 273.89,26.44 274.05,24.22 274.21,24.22 274.36,24.22 274.52,25.62 274.68,25.62 274.84,26.06 275.00,26.06 275.15,26.06 275.31,25.08 275.47,25.08 275.63,25.08 275.79,24.12 275.94,24.12 276.10,23.00 276.26,20.52 276.42,20.52 276.58,20.47 276.73,20.47 276.89,20.47 277.05,21.29 277.21,21.29 277.37,22.22 277.52,22.22 277.68,20.85 277.84,19.38 278.00,19.38 278.15,19.38 278.31,20.14 278.47,19.00 278.63,19.00 278.79,19.00 278.94,19.00 279.10,18.71 279.26,18.71 279.42,18.71 279.58,18.71 279.73,21.02 279.89,18.34 280.05,18.34 280.21,20.32 280.37,20.32 280.52,22.31 280.68,22.31 280.84,21.66 281.00,21.66 281.16,23.40 281.31,23.40 281.47,21.86 281.63,22.56 281.79,22.56 281.94,22.56 282.10,22.71 282.26,22.71 282.42,22.71 282.58,23.18 282.73,23.18 282.89,19.70 283.05,19.70 283.21,19.70 283.37,19.70 283.52,17.24 283.68,17.24 283.84,17.24 284.00,15.48 284.16,18.71 284.31,18.71 284.47,18.71 284.63,15.50 284.79,15.50 284.95,17.89 285.10,17.89 285.26,14.15 285.42,14.15 285.58,14.15 285.73,13.78 285.89,13.78 286.05,13.78 286.21,13.93 286.37,13.93 286.52,13.84 286.68,13.84 286.84,12.20 287.00,12.35 287.16,12.35 287.31,11.28 287.47,11.28 287.63,11.28 287.79,10.57 287.95,10.57 288.10,10.57 288.26,10.57 288.42,9.01 288.58,9.01 288.74,8.62 288.89,9.82 289.05,9.82 289.21,9.82 289.37,9.82 289.53,10.54 289.68,10.54 289.84,10.54 290.00,7.15 290.16,9.02 290.31,9.02 290.47,6.89 290.63,6.89 290.79,9.66 290.95,10.03 291.10,10.03 291.26,6.49 291.42,6.51 291.58,6.51 291.74,6.51 291.89,4.98 292.05,4.98 292.21,4.98 292.37,6.83 292.53,4.34 292.68,4.34 292.84,4.34 293.00,7.11 293.16,6.29 293.32,6.29 293.47,6.29 293.63,4.72 293.79,4.72 293.95,7.13 294.10,7.13 294.26,4.96 294.42,4.96 294.58,7.00 294.74,7.00 294.89,4.05 295.05,4.05 295.21,5.93 295.37,5.93 295.53,4.00 295.68,4.00 295.84,4.00 296.00,4.31" />
</svg>