<svg width="300" height="60" xmlns="http://www.w3.org/2000/svg">
  <polyline fill="rgba(255,200,0,0.3)" stroke="#ffbb00" stroke-width="2" points="4.00,54.00 4.12,53.61 4.25,53.42 4.37,54.09 4.50,54.41 4.62,54.40 4.75,54.50 4.87,56.00 4.99,55.34 5.12,54.81 5.24,55.01 5.37,55.25 5.49,55.36 5.62,55.31 5.74,55.15 5.86,54.88 5.99,54.22 6.11,54.01 6.24,53.53 6.36,53.79 6.49,53.92 6.61,53.73 6.73,53.73 6.86,53.71 6.98,53.70 7.11,53.82 7.23,53.52 7.36,54.38 7.48,54.91 7.60,54.66 7.73,54.56 7.85,54.53 7.98,54.20 8.10,54.16 8.23,54.73 8.35,55.10 8.48,55.63 8.60,55.74 8.72,54.92 8.85,53.19 8.97,53.00 9.10,53.08 9.22,53.03 9.35,53.07 9.47,53.13 9.59,53.64 9.72,54.49 9.84,54.87 9.97,54.64 10.09,53.28 10.22,52.91 10.34,52.73 10.46,52.82 10.59,53.32 10.71,53.90 10.84,54.57 10.96,54.95 11.09,55.02 11.21,55.03 11.33,55.05 11.46,55.17 11.58,55.30 11.71,55.36 11.83,55.43 11.96,55.47 12.08,55.52 12.20,55.56 12.33,55.58 12.45,55.57 12.58,55.55 12.70,55.47 12.83,55.37 12.95,55.13 13.07,55.00 13.20,54.91 13.32,54.85 13.45,54.78 13.57,54.55 13.70,54.21 13.82,53.83 13.94,53.46 14.07,53.09 14.19,52.68 14.32,52.32 14.44,52.16 14.57,51.95 14.69,51.76 14.81,51.48 14.94,51.06 15.06,50.69 15.19,50.28 15.31,49.91 15.44,49.38 15.56,48.84 15.68,48.36 15.81,47.92 15.93,47.62 16.06,47.50 16.18,47.69 16.31,47.93 16.43,48.13 16.56,48.30 16.68,48.41 16.80,48.59 16.93,48.96 17.05,49.53 17.18,49.55 17.30,49.42 17.43,49.03 17.55,48.85 17.67,48.32 17.80,47.94 17.92,47.35 18.05,46.52 18.17,45.93 18.30,46.11 18.42,45.69 18.54,45.35 18.67,45.05 18.79,44.86 18.92,44.83 19.04,44.89 19.17,45.00 19.29,45.22 19.41,45.50 19.54,45.69 19.66,45.14 19.79,44.48 19.91,45.71 20.04,46.73 20.16,47.48 20.28,47.62 20.41,47.80 20.53,47.79 20.66,47.44 20.78,46.49 20.91,45.49 21.03,44.63 21.15,44.31 21.28,44.08 21.40,43.80 21.53,43.59 21.65,43.49 21.78,42.53 21.90,41.22 22.02,41.56 22.15,41.69 22.27,41.65 22.40,41.40 22.52,41.41 22.65,41.04 22.77,40.52 22.89,40.70 23.02,40.41 23.14,40.39 23.27,40.21 23.39,40.04 23.52,39.83 23.64,39.65 23.77,39.73 23.89,40.29 24.01,41.18 24.14,42.44 24.26,43.05 24.39,41.37 24.51,40.43 24.64,39.02 24.76,38.48 24.88,38.28 25.01,38.29 25.13,37.19 25.26,37.36 25.38,37.93 25.51,39.08 25.63,40.13 25.75,40.42 25.88,40.73 26.00,41.24 26.13,42.00 26.25,42.19 26.38,42.42 26.50,42.43 26.62,41.70 26.75,40.53 26.87,38.90 27.00,38.40 27.12,38.01 27.25,37.76 27.37,37.46 27.49,37.11 27.62,36.78 27.74,36.52 27.87,36.20 27.99,36.05 28.12,35.96 28.24,35.68 28.36,35.45 28.49,34.81 28.61,34.28 28.74,33.76 28.86,33.49 28.99,33.35 29.11,33.11 29.23,33.16 29.36,33.25 29.48,33.07 29.61,32.72 29.73,32.44 29.86,32.19 29.98,31.94 30.10,31.45 30.23,31.28 30.35,31.20 30.48,31.03 30.60,29.52 30.73,28.21 30.85,27.90 30.97,27.55 31.10,27.40 31.22,27.37 31.35,27.62 31.47,27.94 31.60,28.21 31.72,27.84 31.85,27.30 31.97,27.10 32.09,27.49 32.22,27.54 32.34,27.52 32.47,26.20 32.59,25.23 32.72,24.32 32.84,23.96 32.96,24.04 33.09,24.23 33.21,24.79 33.34,24.94 33.46,24.78 33.59,24.46 33.71,24.23 33.83,23.56 33.96,23.40 34.08,23.41 34.21,23.33 34.33,23.34 34.46,23.35 34.58,23.39 34.70,23.34 34.83,23.17 34.95,22.17 35.08,20.09 35.20,19.30 35.33,19.18 35.45,19.55 35.57,19.95 35.70,19.91 35.82,19.44 35.95,19.04 36.07,18.57 36.20,18.15 36.32,18.15 36.44,18.43 36.57,19.24 36.69,19.41 36.82,19.81 36.94,20.08 37.07,19.72 37.19,19.33 37.31,18.65 37.44,18.18 37.56,17.78 37.69,17.46 37.81,17.12 37.94,16.72 38.06,16.30 38.18,15.95 38.31,15.78 38.43,15.65 38.56,15.98 38.68,16.69 38.81,16.35 38.93,16.05 39.05,15.31 39.18,15.05 39.30,14.77 39.43,14.59 39.55,14.31 39.68,14.28 39.80,14.11 39.93,14.18 40.05,13.92 40.17,13.78 40.30,14.08 40.42,12.84 40.55,12.07 40.67,11.82 40.80,11.85 40.92,11.74 41.04,11.69 41.17,11.49 41.29,11.23 41.42,11.09 41.54,11.05 41.67,11.03 41.79,11.02 41.91,11.01 42.04,10.96 42.16,10.89 42.29,10.71 42.41,10.28 42.54,9.97 42.66,9.62 42.78,9.13 42.91,8.32 43.03,7.73 43.16,7.38 43.28,7.21 43.41,7.05 43.53,6.79 43.65,6.58 43.78,6.37 43.90,6.17 44.03,6.04 44.15,6.11 44.28,6.12 44.40,5.97 44.52,5.81 44.65,5.38 44.77,4.85 44.90,4.70 45.02,4.77 45.15,4.97 45.27,5.73 45.39,5.87 45.52,5.81 45.64,5.55 45.77,5.47 45.89,5.56 46.02,5.90 46.14,6.10 46.26,6.31 46.39,6.54 46.51,6.60 46.64,6.68 46.76,7.01 46.89,7.28 47.01,7.53 47.13,7.67 47.26,7.71 47.38,7.76 47.51,7.87 47.63,8.05 47.76,8.43 47.88,8.70 48.01,8.67 48.13,8.78 48.25,8.85 48.38,8.97 48.50,9.16 48.63,9.62 48.75,9.45 48.88,9.70 49.00,9.90 49.12,10.14 49.25,10.31 49.37,10.41 49.50,10.54 49.62,10.83 49.75,11.13 49.87,11.39 49.99,11.58 50.12,11.73 50.24,11.88 50.37,11.92 50.49,12.23 50.62,12.37 50.74,12.53 50.86,12.68 50.99,13.33 51.11,13.27 51.24,13.36 51.36,13.09 51.49,13.66 51.61,14.24 51.73,14.43 51.86,14.79 51.98,14.89 52.11,15.19 52.23,15.37 52.36,15.83 52.48,16.06 52.60,16.16 52.73,16.19 52.85,16.41 52.98,16.72 53.10,17.05 53.23,17.41 53.35,17.16 53.47,16.97 53.60,16.81 53.72,17.07 53.85,17.76 53.97,19.02 54.10,19.22 54.22,19.90 54.34,20.48 54.47,19.59 54.59,19.19 54.72,19.30 54.84,20.01 54.97,20.50 55.09,20.71 55.21,22.19 55.34,23.38 55.46,21.29 55.59,20.47 55.71,20.30 55.84,21.06 55.96,22.51 56.09,22.63 56.21,22.41 56.33,22.38 56.46,22.60 56.58,23.32 56.71,23.70 56.83,23.91 56.96,23.93 57.08,24.06 57.20,24.38 57.33,25.28 57.45,26.15 57.58,25.78 57.70,25.37 57.83,25.52 57.95,25.45 58.07,23.78 58.20,22.38 58.32,21.67 58.45,20.97 58.57,20.73 58.70,20.77 58.82,21.00 58.94,21.57 59.07,21.84 59.19,21.74 59.32,21.83 59.44,22.48 59.57,21.70 59.69,21.45 59.81,22.16 59.94,23.36 60.06,23.83 60.19,24.00 60.31,24.78 60.44,25.07 60.56,25.24 60.68,25.32 60.81,25.56 60.93,25.86 61.06,26.04 61.18,26.26 61.31,26.57 61.43,26.79 61.55,27.34 61.68,27.41 61.80,27.72 61.93,28.19 62.05,28.43 62.18,28.02 62.30,27.91 62.42,28.53 62.55,29.47 62.67,28.86 62.80,28.55 62.92,28.09 63.05,28.13 63.17,28.01 63.30,27.81 63.42,27.73 63.54,27.72 63.67,27.53 63.79,27.51 63.92,54.04 64.04,53.60 64.17,53.41 64.29,54.15 64.41,54.47 64.54,54.40 64.66,54.49 64.79,55.93 64.91,55.31 65.04,54.82 65.16,55.03 65.28,55.24 65.41,55.36 65.53,55.31 65.66,55.12 65.78,54.94 65.91,54.22 66.03,54.01 66.15,53.31 66.28,53.88 66.40,53.88 66.53,53.92 66.65,53.76 66.78,53.56 66.90,53.79 67.02,53.76 67.15,53.55 67.27,54.39 67.40,54.93 67.52,54.68 67.65,54.64 67.77,54.23 67.89,54.19 68.02,54.13 68.14,54.77 68.27,54.96 68.39,55.70 68.52,55.73 68.64,54.91 68.76,53.19 68.89,52.91 69.01,53.04 69.14,53.02 69.26,53.07 69.39,53.14 69.51,53.69 69.63,54.21 69.76,54.99 69.88,54.67 70.01,53.48 70.13,52.85 70.26,52.75 70.38,52.83 70.50,53.33 70.63,54.00 70.75,54.51 70.88,54.92 71.00,55.04 71.13,55.01 71.25,55.04 71.38,55.19 71.50,55.30 71.62,55.33 71.75,55.43 71.87,55.48 72.00,55.53 72.12,55.56 72.25,55.58 72.37,55.57 72.49,55.54 72.62,55.50 72.74,55.38 72.87,55.12 72.99,55.01 73.12,54.91 73.24,54.86 73.36,54.77 73.49,54.53 73.61,54.19 73.74,53.82 73.86,53.45 73.99,53.07 74.11,52.67 74.23,52.34 74.36,52.16 74.48,51.98 74.61,51.77 74.73,51.48 74.86,51.05 74.98,50.67 75.10,50.27 75.23,49.87 75.35,49.40 75.48,48.83 75.60,48.36 75.73,47.90 75.85,47.62 75.97,47.51 76.10,47.67 76.22,47.93 76.35,48.15 76.47,48.32 76.60,48.40 76.72,48.58 76.84,48.99 76.97,49.43 77.09,49.58 77.22,49.38 77.34,49.03 77.47,48.91 77.59,48.29 77.71,47.95 77.84,47.20 77.96,46.50 78.09,46.00 78.21,46.13 78.34,45.69 78.46,45.35 78.58,45.03 78.71,44.86 78.83,44.84 78.96,44.89 79.08,45.00 79.21,45.21 79.33,45.50 79.46,45.72 79.58,45.23 79.70,44.67 79.83,45.45 79.95,47.02 80.08,47.32 80.20,47.64 80.33,47.81 80.45,47.80 80.57,47.38 80.70,46.62 80.82,45.22 80.95,44.58 81.07,44.33 81.20,44.00 81.32,43.77 81.44,43.56 81.57,43.50 81.69,42.39 81.82,41.26 81.94,41.43 82.07,41.81 82.19,41.56 82.31,41.34 82.44,41.43 82.56,40.93 82.69,40.58 82.81,40.83 82.94,40.38 83.06,40.38 83.18,40.21 83.31,40.06 83.43,39.82 83.56,39.64 83.68,39.81 83.81,40.30 83.93,41.05 84.05,42.31 84.18,42.90 84.30,41.52 84.43,40.37 84.55,39.14 84.68,38.56 84.80,38.39 84.92,38.38 85.05,37.24 85.17,37.39 85.30,37.88 85.42,39.09 85.55,40.21 85.67,40.41 85.79,40.65 85.92,41.30 86.04,41.88 86.17,42.25 86.29,42.36 86.42,42.34 86.54,41.69 86.66,40.76 86.79,38.97 86.91,38.37 87.04,37.97 87.16,37.76 87.29,37.48 87.41,37.16 87.54,36.81 87.66,36.58 87.78,36.30 87.91,36.05 88.03,35.87 88.16,35.65 88.28,35.48 88.41,34.93 88.53,34.29 88.65,33.68 88.78,33.47 88.90,33.24 89.03,33.10 89.15,33.17 89.28,33.16 89.40,33.02 89.52,32.71 89.65,32.44 89.77,32.20 89.90,31.92 90.02,31.37 90.15,31.27 90.27,31.21 90.39,31.04 90.52,29.46 90.64,28.30 90.77,27.87 90.89,27.58 91.02,27.34 91.14,27.43 91.26,27.69 91.39,27.82 91.51,28.21 91.64,27.80 91.76,27.27 91.89,27.31 92.01,27.47 92.13,27.53 92.26,27.52 92.38,26.39 92.51,25.30 92.63,24.30 92.76,24.01 92.88,23.98 93.00,24.30 93.13,24.68 93.25,24.99 93.38,24.92 93.50,24.54 93.63,24.11 93.75,23.55 93.87,23.49 94.00,23.42 94.12,23.20 94.25,23.29 94.37,23.13 94.50,23.25 94.62,23.40 94.74,23.28 94.87,22.11 94.99,20.19 95.12,19.57 95.24,19.21 95.37,19.65 95.49,20.01 95.62,20.01 95.74,19.41 95.86,19.10 95.99,18.50 96.11,18.23 96.24,18.05 96.36,18.36 96.49,19.15 96.61,19.42 96.73,19.61 96.86,20.08 96.98,19.86 97.11,19.38 97.23,18.69 97.36,18.12 97.48,17.77 97.60,17.46 97.73,17.13 97.85,16.71 97.98,16.32 98.10,15.92 98.23,15.79 98.35,15.62 98.47,15.98 98.60,16.53 98.72,16.30 98.85,15.89 98.97,15.56 99.10,15.12 99.22,14.88 99.34,14.59 99.47,14.37 99.59,14.27 99.72,14.15 99.84,14.13 99.97,13.87 100.09,13.77 100.21,14.12 100.34,12.79 100.46,12.03 100.59,11.79 100.71,11.87 100.84,11.72 100.96,11.68 101.08,11.51 101.21,11.22 101.33,11.11 101.46,11.09 101.58,11.02 101.71,11.02 101.83,11.01 101.95,10.96 102.08,10.91 102.20,10.68 102.33,10.26 102.45,9.96 102.58,9.55 102.70,9.11 102.83,8.35 102.95,7.69 103.07,7.40 103.20,7.16 103.32,7.06 103.45,6.86 103.57,6.69 103.70,6.36 103.82,6.21 103.94,6.05 104.07,6.00 104.19,6.10 104.32,6.00 104.44,5.81 104.57,5.33 104.69,4.88 104.81,4.71 104.94,4.81 105.06,4.95 105.19,5.71 105.31,5.85 105.44,5.81 105.56,5.58 105.68,5.47 105.81,5.57 105.93,5.92 106.06,6.09 106.18,6.32 106.31,6.54 106.43,6.58 106.55,6.74 106.68,7.02 106.80,7.28 106.93,7.61 107.05,7.67 107.18,7.70 107.30,7.77 107.42,7.89 107.55,8.08 107.67,8.45 107.80,8.62 107.92,8.67 108.05,8.77 108.17,8.85 108.29,8.99 108.42,9.16 108.54,9.62 108.67,9.42 108.79,9.65 108.92,9.91 109.04,10.10 109.16,10.32 109.29,10.38 109.41,10.54 109.54,10.81 109.66,11.11 109.79,11.38 109.91,11.60 110.03,11.79 110.16,11.85 110.28,11.90 110.41,12.17 110.53,12.32 110.66,12.55 110.78,12.66 110.91,13.25 111.03,13.22 111.15,13.36 111.28,13.26 111.40,13.69 111.53,14.30 111.65,14.47 111.78,14.88 111.90,14.75 112.02,15.19 112.15,15.47 112.27,15.83 112.40,16.02 112.52,16.17 112.65,16.17 112.77,16.42 112.89,16.71 113.02,16.97 113.14,17.37 113.27,17.22 113.39,17.01 113.52,16.93 113.64,17.06 113.76,17.64 113.89,19.00 114.01,19.20 114.14,19.95 114.26,20.45 114.39,19.58 114.51,19.24 114.63,19.23 114.76,20.04 114.88,20.47 115.01,20.69 115.13,22.00 115.26,23.28 115.38,21.24 115.50,20.44 115.63,20.38 115.75,21.06 115.88,22.51 116.00,22.61 116.13,22.34 116.25,22.49 116.37,22.59 116.50,23.37 116.62,23.70 116.75,23.89 116.87,23.95 117.00,24.03 117.12,24.38 117.24,25.24 117.37,26.15 117.49,25.65 117.62,25.33 117.74,25.37 117.87,25.46 117.99,23.75 118.11,22.49 118.24,21.60 118.36,20.98 118.49,20.62 118.61,20.76 118.74,21.10 118.86,21.60 118.99,21.82 119.11,21.76 119.23,21.78 119.36,22.34 119.48,21.72 119.61,21.53 119.73,22.14 119.86,23.26 119.98,23.84 120.10,23.94 120.23,24.80 120.35,25.04 120.48,25.26 120.60,25.32 120.73,25.58 120.85,25.87 120.97,26.00 121.10,26.29 121.22,26.57 121.35,26.80 121.47,27.36 121.60,27.37 121.72,27.77 121.84,28.21 121.97,28.32 122.09,28.00 122.22,27.89 122.34,28.44 122.47,29.65 122.59,28.82 122.71,28.38 122.84,28.09 122.96,28.09 123.09,28.05 123.21,27.87 123.34,27.76 123.46,27.71 123.58,27.61 123.71,27.52 123.83,54.04 123.96,53.62 124.08,53.39 124.21,54.39 124.33,54.68 124.45,54.37 124.58,54.51 124.70,55.89 124.83,55.39 124.95,54.80 125.08,55.05 125.20,55.24 125.32,55.36 125.45,55.30 125.57,55.26 125.70,55.05 125.82,54.18 125.95,54.07 126.07,53.70 126.19,53.46 126.32,53.88 126.44,53.83 126.57,53.62 126.69,53.28 126.82,53.12 126.94,54.01 127.07,53.65 127.19,54.46 127.31,54.85 127.44,55.01 127.56,54.76 127.69,54.03 127.81,54.10 127.94,54.48 128.06,55.21 128.18,55.01 128.31,55.82 128.43,55.78 128.56,55.04 128.68,53.27 128.81,53.01 128.93,53.03 129.05,53.01 129.18,53.11 129.30,53.14 129.43,53.43 129.55,54.30 129.68,54.99 129.80,54.56 129.92,53.27 130.05,52.79 130.17,52.68 130.30,52.86 130.42,53.29 130.55,53.97 130.67,54.57 130.79,54.85 130.92,54.98 131.04,54.98 131.17,55.13 131.29,55.15 131.42,55.36 131.54,55.34 131.66,55.45 131.79,55.48 131.91,55.55 132.04,55.58 132.16,55.60 132.29,55.62 132.41,55.60 132.53,55.43 132.66,55.29 132.78,55.15 132.91,55.00 133.03,54.93 133.16,54.88 133.28,54.76 133.40,54.54 133.53,54.19 133.65,53.86 133.78,53.44 133.90,53.12 134.03,52.70 134.15,52.36 134.28,52.12 134.40,51.92 134.52,51.77 134.65,51.43 134.77,50.99 134.90,50.62 135.02,50.28 135.15,49.95 135.27,49.38 135.39,48.80 135.52,48.34 135.64,47.91 135.77,47.63 135.89,47.48 136.02,47.67 136.14,47.94 136.26,48.10 136.39,48.25 136.51,48.41 136.64,48.51 136.76,49.20 136.89,49.53 137.01,49.61 137.13,49.37 137.26,49.15 137.38,49.19 137.51,48.28 137.63,47.89 137.76,46.95 137.88,46.52 138.00,45.98 138.13,46.12 138.25,45.67 138.38,45.43 138.50,45.06 138.63,44.94 138.75,44.83 138.87,44.89 139.00,45.03 139.12,45.26 139.25,45.52 139.37,45.92 139.50,45.24 139.62,44.68 139.74,46.01 139.87,46.51 139.99,47.39 140.12,47.63 140.24,47.77 140.37,47.70 140.49,47.35 140.61,46.37 140.74,45.13 140.86,45.03 140.99,44.40 141.11,44.40 141.24,43.80 141.36,43.96 141.48,43.72 141.61,42.70 141.73,41.79 141.86,41.72 141.98,42.39 142.11,41.44 142.23,41.11 142.36,41.29 142.48,41.10 142.60,40.27 142.73,40.99 142.85,40.62 142.98,40.44 143.10,40.20 143.23,40.11 143.35,39.78 143.47,39.68 143.60,40.10 143.72,40.12 143.85,41.03 143.97,42.25 144.10,43.17 144.22,41.65 144.34,40.22 144.47,39.31 144.59,38.27 144.72,38.30 144.84,38.31 144.97,37.26 145.09,37.54 145.21,38.08 145.34,38.77 145.46,40.14 145.59,40.41 145.71,40.59 145.84,41.31 145.96,41.76 146.08,42.00 146.21,42.42 146.33,42.31 146.46,41.69 146.58,41.00 146.71,39.36 146.83,38.24 146.95,37.84 147.08,37.86 147.20,37.53 147.33,37.45 147.45,37.10 147.58,36.54 147.70,36.55 147.82,36.09 147.95,35.89 148.07,35.51 148.20,35.70 148.32,35.07 148.45,34.48 148.57,33.62 148.69,33.30 148.82,33.18 148.94,33.10 149.07,33.30 149.19,33.14 149.32,32.92 149.44,32.72 149.56,32.56 149.69,32.22 149.81,31.90 149.94,31.19 150.06,31.29 150.19,31.20 150.31,30.87 150.44,29.03 150.56,28.54 150.68,27.84 150.81,27.38 150.93,26.90 151.06,27.42 151.18,27.25 151.31,28.25 151.43,27.64 151.55,27.82 151.68,27.00 151.80,27.26 151.93,27.51 152.05,27.53 152.18,27.57 152.30,26.06 152.42,24.77 152.55,24.36 152.67,23.64 152.80,23.87 152.92,24.05 153.05,24.36 153.17,24.61 153.29,24.40 153.42,24.12 153.54,23.96 153.67,23.96 153.79,23.68 153.92,22.96 154.04,22.77 154.16,22.95 154.29,22.78 154.41,23.69 154.54,23.33 154.66,22.67 154.79,21.34 154.91,20.46 155.03,19.37 155.16,19.07 155.28,19.24 155.41,19.68 155.53,20.22 155.66,19.61 155.78,18.95 155.90,18.32 156.03,18.17 156.15,18.09 156.28,18.38 156.40,19.04 156.53,19.39 156.65,19.41 156.77,19.85 156.90,19.54 157.02,19.26 157.15,18.68 157.27,18.29 157.40,17.75 157.52,17.41 157.64,17.19 157.77,16.71 157.89,16.33 158.02,15.97 158.14,15.80 158.27,15.77 158.39,16.06 158.52,16.93 158.64,16.38 158.76,16.20 158.89,15.19 159.01,14.89 159.14,15.03 159.26,14.69 159.39,14.20 159.51,14.31 159.63,13.98 159.76,14.06 159.88,13.75 160.01,13.75 160.13,14.17 160.26,12.89 160.38,11.89 160.50,11.76 160.63,11.97 160.75,11.72 160.88,11.69 161.00,11.48 161.13,11.26 161.25,10.98 161.37,11.06 161.50,11.04 161.62,10.81 161.75,11.04 161.87,10.95 162.00,10.92 162.12,10.60 162.24,10.20 162.37,9.96 162.49,9.56 162.62,8.83 162.74,8.06 162.87,7.86 162.99,7.23 163.11,7.01 163.24,6.82 163.36,6.48 163.49,6.65 163.61,6.54 163.74,6.06 163.86,6.08 163.98,6.21 164.11,5.75 164.23,5.88 164.36,5.81 164.48,5.34 164.61,4.66 164.73,4.64 164.85,4.68 164.98,5.01 165.10,5.22 165.23,5.83 165.35,5.85 165.48,5.59 165.60,5.47 165.72,5.54 165.85,5.84 165.97,6.04 166.10,6.32 166.22,6.68 166.35,6.61 166.47,6.62 166.60,6.98 166.72,7.28 166.84,7.46 166.97,7.56 167.09,7.70 167.22,7.77 167.34,7.88 167.47,8.04 167.59,8.49 167.71,8.82 167.84,8.76 167.96,8.79 168.09,8.84 168.21,8.96 168.34,9.15 168.46,9.53 168.58,9.46 168.71,9.60 168.83,9.72 168.96,10.17 169.08,10.26 169.21,10.26 169.33,10.50 169.45,10.83 169.58,11.07 169.70,11.47 169.83,11.32 169.95,11.67 170.08,11.70 170.20,11.90 170.32,11.95 170.45,12.23 170.57,12.28 170.70,12.64 170.82,13.45 170.95,13.11 171.07,13.08 171.19,12.81 171.32,13.77 171.44,14.38 171.57,14.53 171.69,14.66 171.82,14.93 171.94,15.01 172.06,15.30 172.19,15.80 172.31,16.18 172.44,16.16 172.56,15.96 172.69,16.41 172.81,16.68 172.93,17.04 173.06,17.25 173.18,17.48 173.31,17.08 173.43,16.63 173.56,16.76 173.68,17.64 173.81,18.80 173.93,19.22 174.05,19.94 174.18,20.29 174.30,19.62 174.43,18.92 174.55,19.11 174.68,20.20 174.80,20.40 174.92,20.93 175.05,22.17 175.17,23.35 175.30,21.30 175.42,20.56 175.55,20.10 175.67,20.80 175.79,22.28 175.92,22.27 176.04,22.30 176.17,22.27 176.29,53.71 176.42,53.72 176.54,53.57 176.66,53.90 176.79,54.39 176.91,54.92 177.04,55.05 177.16,55.50 177.29,55.90 177.41,54.95 177.53,55.18 177.66,55.32 177.78,55.40 177.91,55.30 178.03,55.17 178.16,54.77 178.28,54.74 178.40,54.11 178.53,53.44 178.65,53.55 178.78,53.65 178.90,52.74 179.03,52.73 179.15,53.54 179.27,53.50 179.40,54.00 179.52,53.41 179.65,53.59 179.77,54.69 179.90,54.21 180.02,55.08 180.14,54.58 180.27,54.15 180.39,54.15 180.52,53.96 180.64,55.31 180.77,55.46 180.89,55.32 181.01,53.73 181.14,53.49 181.26,53.49 181.39,53.11 181.51,52.52 181.64,53.28 181.76,53.14 181.89,54.01 182.01,54.90 182.13,54.37 182.26,54.37 182.38,53.26 182.51,52.58 182.63,52.92 182.76,53.35 182.88,53.21 183.00,54.10 183.13,55.10 183.25,54.84 183.38,54.64 183.50,55.09 183.63,54.93 183.75,55.30 183.87,55.20 184.00,55.47 184.12,55.44 184.25,55.63 184.37,55.61 184.50,55.69 184.62,55.65 184.74,55.68 184.87,55.72 184.99,55.56 185.12,55.43 185.24,55.43 185.37,55.15 185.49,54.99 185.61,54.75 185.74,54.83 185.86,54.68 185.99,54.03 186.11,53.70 186.24,53.36 186.36,53.09 186.48,52.55 186.61,52.32 186.73,51.91 186.86,51.72 186.98,51.50 187.11,51.25 187.23,50.98 187.35,50.34 187.48,49.82 187.60,49.49 187.73,49.14 187.85,48.65 187.98,48.29 188.10,48.17 188.22,47.73 188.35,47.32 188.47,47.81 188.60,48.36 188.72,48.11 188.85,48.43 188.97,48.60 189.09,48.60 189.22,48.81 189.34,49.60 189.47,49.39 189.59,49.09 189.72,49.57 189.84,48.70 189.97,48.44 190.09,47.84 190.21,47.19 190.34,46.57 190.46,46.24 190.59,45.91 190.71,45.48 190.84,44.73 190.96,44.82 191.08,44.98 191.21,44.80 191.33,44.75 191.46,44.62 191.58,45.07 191.71,45.32 191.83,45.32 191.95,45.25 192.08,45.64 192.20,44.73 192.33,46.52 192.45,46.30 192.58,47.56 192.70,47.56 192.82,47.72 192.95,46.92 193.07,45.76 193.20,44.76 193.32,44.37 193.45,44.40 193.57,45.01 193.69,43.86 193.82,44.39 193.94,43.12 194.07,41.44 194.19,41.84 194.32,41.21 194.44,41.12 194.56,40.88 194.69,40.88 194.81,40.77 194.94,40.33 195.06,40.20 195.19,40.20 195.31,40.23 195.43,40.52 195.56,39.85 195.68,40.20 195.81,39.53 195.93,39.04 196.06,40.58 196.18,40.58 196.30,41.30 196.43,41.22 196.55,42.38 196.68,41.87 196.80,40.43 196.93,38.72 197.05,38.44 197.17,37.09 197.30,38.39 197.42,37.66 197.55,37.70 197.67,37.53 197.80,39.40 197.92,40.01 198.05,40.84 198.17,40.84 198.29,41.17 198.42,41.54 198.54,42.40 198.67,41.98 198.79,42.25 198.92,41.31 199.04,39.22 199.16,39.89 199.29,38.85 199.41,37.18 199.54,36.71 199.66,37.65 199.79,37.10 199.91,36.67 200.03,35.58 200.16,36.61 200.28,35.73 200.41,36.30 200.53,35.80 200.66,35.50 200.78,35.35 200.90,33.80 201.03,33.93 201.15,33.15 201.28,33.66 201.40,32.94 201.53,33.20 201.65,32.69 201.77,33.37 201.90,33.01 202.02,32.55 202.15,31.81 202.27,31.48 202.40,31.33 202.52,31.44 202.64,31.76 202.77,30.15 202.89,29.25 203.02,28.99 203.14,29.05 203.27,27.09 203.39,27.35 203.51,27.78 203.64,28.24 203.76,29.27 203.89,28.23 204.01,28.93 204.14,27.48 204.26,27.45 204.38,28.16 204.51,27.34 204.63,28.41 204.76,27.17 204.88,25.16 205.01,25.28 205.13,23.82 205.26,25.13 205.38,24.21 205.50,25.00 205.63,25.59 205.75,24.06 205.88,24.49 206.00,24.97 206.13,23.36 206.25,23.92 206.37,22.33 206.50,23.12 206.62,24.56 206.75,22.55 206.87,23.10 207.00,23.70 207.12,24.06 207.24,20.80 207.37,20.28 207.49,20.31 207.62,20.82 207.74,19.34 207.87,20.09 207.99,20.53 208.11,20.74 208.24,18.56 208.36,18.71 208.49,19.33 208.61,18.19 208.74,19.07 208.86,19.98 208.98,19.94 209.11,19.88 209.23,21.02 209.36,19.53 209.48,18.87 209.61,19.59 209.73,19.02 209.85,17.88 209.98,17.95 210.10,17.21 210.23,16.65 210.35,16.36 210.48,16.50 210.60,15.32 210.72,15.67 210.85,15.79 210.97,17.72 211.10,17.45 211.22,16.38 211.35,16.65 211.47,15.37 211.59,15.89 211.72,15.06 211.84,14.52 211.97,14.45 212.09,14.69 212.22,13.97 212.34,13.97 212.46,13.96 212.59,13.85 212.71,13.16 212.84,11.78 212.96,12.07 213.09,12.07 213.21,12.31 213.34,11.72 213.46,11.52 213.58,11.22 213.71,10.76 213.83,11.19 213.96,11.16 214.08,10.82 214.21,10.87 214.33,11.23 214.45,11.15 214.58,10.55 214.70,10.74 214.83,9.57 214.95,9.56 215.08,9.48 215.20,7.86 215.32,7.70 215.45,7.58 215.57,7.24 215.70,7.02 215.82,6.73 215.95,6.34 216.07,7.54 216.19,7.00 216.32,6.17 216.44,5.81 216.57,5.49 216.69,6.58 216.82,6.01 216.94,5.30 217.06,4.58 217.19,5.42 217.31,5.52 217.44,5.85 217.56,5.21 217.69,5.83 217.81,6.44 217.93,5.87 218.06,5.49 218.18,5.55 218.31,5.70 218.43,5.48 218.56,6.16 218.68,6.93 218.80,6.35 218.93,5.84 219.05,7.19 219.18,6.94 219.30,8.01 219.43,7.69 219.55,7.56 219.67,7.76 219.80,7.62 219.92,7.76 220.05,8.06 220.17,8.28 220.30,8.28 220.42,8.57 220.54,8.57 220.67,9.08 220.79,9.15 220.92,10.34 221.04,9.54 221.17,9.02 221.29,10.23 221.42,10.08 221.54,10.13 221.66,10.27 221.79,10.69 221.91,10.66 222.04,10.66 222.16,10.94 222.29,10.50 222.41,11.23 222.53,11.81 222.66,11.30 222.78,12.38 222.91,11.72 223.03,12.04 223.16,12.85 223.28,12.75 223.40,12.75 223.53,12.63 223.65,12.51 223.78,12.52 223.90,14.82 224.03,14.93 224.15,15.06 224.27,15.24 224.40,13.89 224.52,14.76 224.65,15.82 224.77,15.41 224.90,16.56 225.02,15.46 225.14,16.37 225.27,15.90 225.39,17.32 225.52,16.34 225.64,16.14 225.77,15.90 225.89,15.87 226.01,16.16 226.14,16.93 226.26,17.94 226.39,18.88 226.51,19.46 226.64,19.47 226.76,20.03 226.88,19.47 227.01,19.13 227.13,19.57 227.26,20.27 227.38,21.20 227.51,22.72 227.63,23.68 227.75,22.37 227.88,21.10 228.00,20.07 228.13,20.37 228.25,22.55 228.38,22.05 228.50,21.33 228.62,22.83 228.75,22.60 228.87,22.60 229.00,22.91 229.12,24.42 229.25,24.45 229.37,24.53 229.50,24.82 229.62,24.41 229.74,25.50 229.87,25.52 229.99,25.81 230.12,24.81 230.24,25.02 230.37,24.04 230.49,22.93 230.61,21.62 230.74,21.51 230.86,20.50 230.99,21.24 231.11,20.87 231.24,20.64 231.36,21.72 231.48,21.26 231.61,20.87 231.73,22.58 231.86,21.77 231.98,20.89 232.11,22.35 232.23,22.38 232.35,22.59 232.48,24.70 232.60,24.93 232.73,25.09 232.85,25.18 232.98,25.18 233.10,25.23 233.22,25.68 233.35,25.91 233.47,26.22 233.60,26.61 233.72,27.22 233.85,26.64 233.97,27.25 234.09,28.40 234.22,27.63 234.34,28.01 234.47,28.14 234.59,28.48 234.72,28.08 234.84,28.79 234.96,28.53 235.09,28.53 235.21,27.95 235.34,27.56 235.46,28.40 235.59,27.94 235.71,27.62 235.83,27.57 235.96,27.79 236.08,27.59 236.21,54.17 236.33,54.17 236.46,55.05 236.58,55.05 236.70,55.05 236.83,55.25 236.95,55.25 237.08,55.92 237.20,55.92 237.33,55.51 237.45,55.51 237.58,55.51 237.70,54.89 237.82,54.89 237.95,54.89 238.07,53.47 238.20,54.99 238.32,54.99 238.45,53.40 238.57,53.40 238.69,53.40 238.82,51.60 238.94,53.35 239.07,53.35 239.19,53.35 239.32,55.31 239.44,53.07 239.56,53.07 239.69,53.07 239.81,55.15 239.94,55.15 240.06,51.31 240.19,54.67 240.31,54.67 240.43,54.67 240.56,54.67 240.68,54.47 240.81,54.47 240.93,54.47 241.06,50.48 241.18,50.48 241.30,53.34 241.43,53.34 241.55,53.34 241.68,52.13 241.80,52.13 241.93,52.13 242.05,53.51 242.17,53.51 242.30,53.51 242.42,50.60 242.55,54.35 242.67,54.35 242.80,54.35 242.92,53.45 243.04,55.82 243.17,55.82 243.29,55.29 243.42,55.29 243.54,55.29 243.67,54.91 243.79,54.91 243.91,55.87 244.04,55.78 244.16,55.78 244.29,55.78 244.41,55.71 244.54,55.71 244.66,55.98 244.79,55.64 244.91,55.64 245.03,55.64 245.16,55.64 245.28,54.78 245.41,54.78 245.53,54.78 245.66,54.78 245.78,54.40 245.90,54.40 246.03,53.73 246.15,53.73 246.28,53.73 246.40,52.15 246.53,52.15 246.65,51.46 246.77,51.46 246.90,51.46 247.02,50.52 247.15,50.52 247.27,49.29 247.40,49.87 247.52,49.87 247.64,48.70 247.77,48.70 247.89,48.70 248.02,47.39 248.14,47.39 248.27,47.39 248.39,48.71 248.51,48.71 248.64,48.71 248.76,47.83 248.89,49.33 249.01,49.33 249.14,49.33 249.26,49.33 249.38,48.43 249.51,48.43 249.63,48.43 249.76,48.43 249.88,47.29 250.01,47.29 250.13,47.29 250.25,45.51 250.38,45.51 250.50,45.51 250.63,43.91 250.75,43.91 250.88,43.91 251.00,44.96 251.12,43.92 251.25,43.92 251.37,43.92 251.50,43.12 251.62,44.25 251.75,44.25 251.87,44.25 251.99,42.14 252.12,42.14 252.24,46.21 252.37,45.57 252.49,45.57 252.62,45.57 252.74,45.57 252.87,44.53 252.99,44.53 253.11,44.53 253.24,41.90 253.36,41.90 253.49,42.25 253.61,42.25 253.74,42.25 253.86,42.25 253.98,39.98 254.11,39.98 254.23,39.98 254.36,41.39 254.48,38.57 254.61,38.57 254.73,38.57 254.85,40.38 254.98,37.26 255.10,37.26 255.23,37.26 255.35,40.64 255.48,38.40 255.60,38.40 255.72,38.40 255.85,38.59 255.97,38.59 256.10,38.59 256.22,38.59 256.35,39.81 256.47,39.81 256.59,39.81 256.72,35.98 256.84,35.98 256.97,35.98 257.09,32.95 257.22,36.25 257.34,36.25 257.46,36.25 257.59,36.36 257.71,40.15 257.84,40.15 257.96,43.56 258.09,43.56 258.21,40.07 258.33,40.07 258.46,41.43 258.58,41.43 258.71,41.43 258.83,37.45 258.96,37.45 259.08,37.45 259.20,37.45 259.33,32.44 259.45,35.29 259.58,35.29 259.70,35.29 259.83,34.77 259.95,34.77 260.07,34.77 260.20,34.77 260.32,32.92 260.45,32.92 260.57,32.92 260.70,32.86 260.82,32.86 260.95,32.86 261.07,33.01 261.19,33.01 261.32,32.43 261.44,32.43 261.57,32.43 261.69,34.86 261.82,34.86 261.94,34.86 262.06,34.85 262.19,34.85 262.31,35.02 262.44,35.02 262.56,35.02 262.69,29.29 262.81,29.29 262.93,29.24 263.06,29.24 263.18,29.24 263.31,30.23 263.43,30.23 263.56,30.23 263.68,31.90 263.80,31.90 263.93,34.15 264.05,29.89 264.18,29.89 264.30,29.89 264.43,26.82 264.55,28.99 264.67,28.99 264.80,28.99 264.92,28.99 265.05,25.16 265.17,25.16 265.30,27.31 265.42,27.31 265.54,27.31 265.67,28.85 265.79,28.85 265.92,28.85 266.04,24.56 266.17,24.56 266.29,24.56 266.41,26.83 266.54,26.83 266.66,28.79 266.79,28.79 266.91,28.79 267.04,28.73 267.16,20.39 267.28,20.39 267.41,20.95 267.53,20.95 267.66,22.63 267.78,22.63 267.91,22.63 268.03,23.19 268.15,23.19 268.28,23.19 268.40,23.78 268.53,18.39 268.65,21.14 268.78,21.14 268.90,21.14 269.03,24.57 269.15,24.57 269.27,20.39 269.40,20.39 269.52,22.89 269.65,22.89 269.77,19.06 269.90,19.06 270.02,19.06 270.14,16.88 270.27,16.88 270.39,16.88 270.52,17.05 270.64,17.05 270.77,17.05 270.89,17.05 271.01,17.03 271.14,17.03 271.26,21.99 271.39,18.56 271.51,18.56 271.64,18.56 271.76,16.34 271.88,16.34 272.01,16.34 272.13,16.60 272.26,16.60 272.38,13.26 272.51,13.26 272.63,13.97 272.75,13.97 272.88,13.97 273.00,13.97 273.13,12.33 273.25,12.33 273.38,14.57 273.50,11.99 273.62,11.99 273.75,11.99 273.87,13.88 274.00,11.92 274.12,11.92 274.25,11.92 274.37,14.41 274.49,10.86 274.62,10.86 274.74,11.28 274.87,11.28 274.99,11.28 275.12,11.26 275.24,11.26 275.36,11.26 275.49,10.77 275.61,10.77 275.74,9.46 275.86,9.46 275.99,9.46 276.11,7.99 276.23,7.99 276.36,6.68 276.48,6.68 276.61,6.68 276.73,5.00 276.86,5.00 276.98,5.00 277.11,8.88 277.23,8.88 277.35,10.28 277.48,6.14 277.60,6.14 277.73,7.29 277.85,7.29 277.98,7.29 278.10,5.25 278.22,5.25 278.35,5.25 278.47,4.00 278.60,7.07 278.72,7.07 278.85,6.09 278.97,6.09 279.09,6.09 279.22,6.09 279.34,6.32 279.47,6.32 279.59,6.32 279.72,6.32 279.84,6.32 279.96,5.28 280.09,5.28 280.21,4.44 280.34,6.77 280.46,6.77 280.59,6.77 280.71,8.91 280.83,8.91 280.96,8.27 281.08,8.27 281.21,8.27 281.33,7.19 281.46,7.19 281.58,7.19 281.70,8.63 281.83,8.63 281.95,8.63 282.08,8.63 282.20,7.81 282.33,7.81 282.45,7.81 282.57,10.57 282.70,10.57 282.82,10.57 282.95,8.08 283.07,12.91 283.20,12.91 283.32,12.62 283.44,12.62 283.57,12.62 283.69,12.67 283.82,12.67 283.94,13.42 284.07,13.42 284.19,13.42 284.32,15.83 284.44,15.83 284.56,15.83 284.69,13.46 284.81,13.46 284.94,13.46 285.06,17.04 285.19,17.04 285.31,17.04 285.43,11.59 285.56,11.59 285.68,13.05 285.81,13.05 285.93,13.05 286.06,14.78 286.18,14.78 286.30,15.52 286.43,15.52 286.55,15.52 286.68,19.29 286.80,19.29 286.93,19.29 287.05,20.49 287.17,20.49 287.30,22.57 287.42,22.57 287.55,22.57 287.67,20.66 287.80,20.66 287.92,20.47 288.04,20.47 288.17,20.47 288.29,19.46 288.42,19.46 288.54,19.46 288.67,19.54 288.79,19.54 288.91,20.35 289.04,24.50 289.16,24.50 289.29,25.60 289.41,25.60 289.54,21.64 289.66,22.27 289.78,22.27 289.91,23.08 290.03,23.08 290.16,23.08 290.28,20.75 290.41,20.75 290.53,20.75 290.65,17.43 290.78,17.43 290.90,21.46 291.03,20.46 291.15,20.46 291.28,18.94 291.40,18.94 291.52,18.94 291.65,17.70 291.77,17.70 291.90,17.70 292.02,22.54 292.15,22.54 292.27,22.54 292.40,23.38 292.52,23.38 292.64,23.79 292.77,23.79 292.89,23.79 293.02,24.22 293.14,24.22 293.27,25.26 293.39,25.26 293.51,25.26 293.64,27.10 293.76,27.10 293.89,27.10 294.01,28.89 294.14,24.37 294.26,26.04 294.38,26.04 294.51,26.04 294.63,27.58 294.76,27.58 294.88,27.58 295.01,27.58 295.13,27.77 295.25,27.77 295.38,27.77 295.50,26.71 295.63,26.71 295.75,26.71 295.88,27.04 296.00,27.04" />
</svg>