<svg width="300" height="60" xmlns="http://www.w3.org/2000/svg">
  <polyline fill="rgba(255,200,0,0.3)" stroke="#ffbb00" stroke-width="2" points="4.00,51.63 4.77,49.58 5.53,50.15 6.30,51.53 7.07,54.05 7.83,55.10 8.60,54.57 9.36,53.50 10.13,51.25 10.90,49.24 11.66,46.82 12.43,42.80 13.20,41.00 13.96,40.15 14.73,40.20 15.50,41.18 16.26,41.00 17.03,41.78 17.80,44.09 18.56,44.16 19.33,40.73 20.09,36.90 20.86,35.84 21.63,35.64 22.39,37.83 23.16,38.28 23.93,36.76 24.69,36.34 25.46,35.30 26.23,33.87 26.99,32.84 27.76,31.48 28.52,30.29 29.29,29.02 30.06,27.87 30.82,26.75 31.59,25.59 32.36,25.08 33.12,24.13 33.89,23.17 34.66,22.42 35.42,21.26 36.19,20.56 36.96,19.18 37.72,16.86 38.49,13.70 39.25,11.29 40.02,10.88 40.79,10.29 41.55,9.96 42.32,9.54 43.09,9.28 43.85,8.81 44.62,8.02 45.39,51.61 46.15,49.26 46.92,49.99 47.69,51.41 48.45,53.78 49.22,55.02 49.98,54.50 50.75,53.04 51.52,51.09 52.28,49.22 53.05,46.82 53.82,42.72 54.58,40.79 55.35,40.05 56.12,40.14 56.88,41.05 57.65,40.64 58.41,41.28 59.18,44.03 59.95,44.17 60.71,39.73 61.48,36.63 62.25,35.49 63.01,35.13 63.78,37.72 64.55,38.21 65.31,36.53 66.08,36.33 66.85,35.26 67.61,33.78 68.38,32.71 69.14,31.41 69.91,30.22 70.68,28.96 71.44,27.77 72.21,26.71 72.98,25.51 73.74,25.00 74.51,24.03 75.28,23.12 76.04,22.33 76.81,21.17 77.57,20.33 78.34,18.90 79.11,16.34 79.87,13.55 80.64,11.12 81.41,10.67 82.17,9.97 82.94,9.65 83.71,9.39 84.47,9.08 85.24,8.63 86.01,7.87 86.77,7.53 87.54,7.75 88.30,9.31 89.07,11.37 89.84,10.54 90.60,8.88 91.37,7.28 92.14,6.39 92.90,6.89 93.67,7.21 94.44,8.42 95.20,7.83 95.97,8.78 96.73,10.46 97.50,11.86 98.27,13.82 99.03,13.59 99.80,13.90 100.57,14.84 101.33,15.93 102.10,17.90 102.87,18.68 103.63,19.34 104.40,20.29 105.17,21.46 105.93,22.13 106.70,22.70 107.46,23.23 108.23,51.62 109.00,49.27 109.76,49.99 110.53,51.40 111.30,53.75 112.06,55.03 112.83,54.49 113.60,53.07 114.36,51.08 115.13,49.20 115.90,46.85 116.66,42.74 117.43,40.77 118.19,40.05 118.96,40.14 119.73,41.02 120.49,40.64 121.26,41.22 122.03,44.02 122.79,44.17 123.56,39.76 124.33,36.62 125.09,35.47 125.86,35.10 126.62,37.71 127.39,38.19 128.16,36.54 128.92,36.34 129.69,35.31 130.46,33.78 131.22,32.70 131.99,31.41 132.76,30.25 133.52,28.97 134.29,27.78 135.06,26.74 135.82,25.53 136.59,25.01 137.35,24.03 138.12,23.14 138.89,22.34 139.65,21.15 140.42,20.36 141.19,18.85 141.95,16.36 142.72,13.54 143.49,11.14 144.25,10.67 145.02,10.00 145.78,9.63 146.55,9.38 147.32,9.08 148.08,8.62 148.85,7.87 149.62,7.53 150.38,7.75 151.15,9.32 151.92,11.37 152.68,10.56 153.45,8.86 154.22,7.27 154.98,6.39 155.75,6.89 156.51,7.22 157.28,8.43 158.05,7.85 158.81,8.70 159.58,10.43 160.35,11.84 161.11,13.77 161.88,13.55 162.65,13.89 163.41,14.80 164.18,15.89 164.94,17.88 165.71,18.66 166.48,19.34 167.24,20.26 168.01,21.46 168.78,22.14 169.54,22.69 170.31,23.22 171.08,52.01 171.84,49.70 172.61,49.95 173.38,52.05 174.14,54.54 174.91,56.00 175.67,52.23 176.44,53.51 177.21,49.16 177.97,50.19 178.74,44.65 179.51,43.39 180.27,42.09 181.04,41.84 181.81,37.16 182.57,38.65 183.34,40.38 184.10,43.36 184.87,41.60 185.64,44.75 186.40,38.64 187.17,35.30 187.94,39.38 188.70,38.28 189.47,32.93 190.24,37.04 191.00,31.99 191.77,37.34 192.54,36.34 193.30,35.01 194.07,33.73 194.83,32.40 195.60,31.30 196.37,30.63 197.13,24.85 197.90,24.36 198.67,24.12 199.43,23.90 200.20,23.54 200.97,23.23 201.73,23.05 202.50,18.34 203.27,18.12 204.03,18.18 204.80,17.70 205.56,12.22 206.33,12.22 207.10,11.76 207.86,11.12 208.63,11.06 209.40,11.15 210.16,7.41 210.93,7.53 211.70,7.11 212.46,6.79 213.23,7.12 213.99,8.79 214.76,10.74 215.53,10.28 216.29,8.79 217.06,7.18 217.83,7.76 218.59,6.96 219.36,5.86 220.13,9.67 220.89,9.48 221.66,6.99 222.43,10.82 223.19,11.52 223.96,12.25 224.72,17.90 225.49,14.43 226.26,14.98 227.02,15.61 227.79,20.36 228.56,17.56 229.32,20.21 230.09,20.24 230.86,22.80 231.62,22.13 232.39,22.55 233.15,22.95 233.92,48.30 234.69,48.30 235.45,48.30 236.22,52.07 236.99,52.07 237.75,52.07 238.52,54.78 239.29,54.78 240.05,39.78 240.82,39.78 241.59,39.05 242.35,39.05 243.12,39.05 243.88,40.51 244.65,40.51 245.42,40.51 246.18,46.66 246.95,46.66 247.72,29.99 248.48,41.55 249.25,41.55 250.02,41.55 250.78,41.55 251.55,36.13 252.31,36.13 253.08,36.13 253.85,36.13 254.61,34.43 255.38,34.43 256.15,34.43 256.91,31.02 257.68,31.02 258.45,31.02 259.21,29.39 259.98,29.39 260.75,29.39 261.51,29.09 262.28,29.09 263.04,29.09 263.81,28.45 264.58,28.45 265.34,13.38 266.11,12.74 266.88,12.74 267.64,12.74 268.41,11.80 269.18,11.80 269.94,11.80 270.71,11.80 271.48,11.16 272.24,11.16 273.01,11.16 273.77,11.86 274.54,11.86 275.31,11.86 276.07,10.85 276.84,10.85 277.61,10.85 278.37,8.81 279.14,8.81 279.91,8.81 280.67,4.00 281.44,4.00 282.20,4.00 282.97,11.52 283.74,11.52 284.50,5.10 285.27,5.10 286.04,5.10 286.80,4.21 287.57,27.73 288.34,22.44 289.10,22.44 289.87,22.44 290.64,17.54 291.40,17.54 292.17,17.54 292.93,18.36 293.70,28.09 294.47,28.09 295.23,24.96 296.00,24.96" />
</svg>