<svg width="300" height="60" xmlns="http://www.w3.org/2000/svg">
  <polyline fill="rgba(255,200,0,0.3)" stroke="#ffbb00" stroke-width="2" points="4.00,56.00 4.09,55.64 4.17,55.47 4.26,55.07 4.34,54.76 4.43,54.69 4.52,54.60 4.60,54.66 4.69,54.90 4.77,55.12 4.86,55.11 4.94,54.87 5.03,54.69 5.12,54.38 5.20,54.21 5.29,54.15 5.37,54.19 5.46,54.23 5.55,54.24 5.63,54.33 5.72,54.09 5.80,54.21 5.89,54.47 5.98,54.64 6.06,54.94 6.15,55.25 6.23,55.25 6.32,54.91 6.41,54.61 6.49,54.31 6.58,54.18 6.66,54.39 6.75,54.53 6.83,54.64 6.92,54.57 7.01,54.53 7.09,54.49 7.18,54.52 7.26,54.14 7.35,54.03 7.44,53.86 7.52,53.60 7.61,53.48 7.69,54.02 7.78,54.09 7.87,52.88 7.95,52.27 8.04,51.98 8.12,51.94 8.21,52.17 8.30,51.82 8.38,50.98 8.47,50.87 8.55,51.49 8.64,51.39 8.72,50.52 8.81,50.11 8.90,49.80 8.98,49.92 9.07,50.28 9.15,50.90 9.24,51.41 9.33,52.21 9.41,52.70 9.50,52.76 9.58,52.79 9.67,52.99 9.76,53.15 9.84,53.10 9.93,53.01 10.01,52.56 10.10,51.80 10.19,51.86 10.27,52.16 10.36,52.48 10.44,52.75 10.53,52.94 10.61,52.36 10.70,51.27 10.79,50.61 10.87,50.44 10.96,50.75 11.04,50.70 11.13,50.62 11.22,51.11 11.30,50.96 11.39,50.95 11.47,50.63 11.56,51.05 11.65,51.44 11.73,50.98 11.82,49.65 11.90,48.73 11.99,49.41 12.08,50.81 12.16,50.73 12.25,50.95 12.33,51.25 12.42,51.07 12.50,51.02 12.59,50.74 12.68,50.51 12.76,50.22 12.85,50.11 12.93,49.90 13.02,49.67 13.11,49.41 13.19,49.26 13.28,49.30 13.36,48.41 13.45,47.86 13.54,47.98 13.62,48.02 13.71,47.94 13.79,47.82 13.88,47.76 13.97,48.04 14.05,46.70 14.14,45.61 14.22,45.51 14.31,46.09 14.39,46.04 14.48,44.76 14.57,44.11 14.65,44.04 14.74,43.85 14.82,43.53 14.91,43.59 15.00,43.65 15.08,44.00 15.17,44.04 15.25,43.90 15.34,43.89 15.43,44.54 15.51,44.72 15.60,44.20 15.68,44.04 15.77,44.49 15.86,45.41 15.94,44.91 16.03,44.10 16.11,43.45 16.20,43.87 16.28,44.94 16.37,45.33 16.46,44.54 16.54,43.65 16.63,43.41 16.71,43.75 16.80,44.30 16.89,44.91 16.97,45.33 17.06,45.58 17.14,45.53 17.23,45.84 17.32,46.47 17.40,47.13 17.49,47.63 17.57,47.54 17.66,46.23 17.75,45.53 17.83,44.93 17.92,45.57 18.00,45.89 18.09,47.08 18.17,48.07 18.26,48.17 18.35,47.54 18.43,46.67 18.52,46.13 18.60,45.75 18.69,44.67 18.78,44.36 18.86,44.35 18.95,44.45 19.03,44.44 19.12,44.32 19.21,44.10 19.29,44.36 19.38,44.45 19.46,44.50 19.55,44.56 19.64,44.63 19.72,44.68 19.81,45.14 19.89,45.63 19.98,45.83 20.06,45.97 20.15,46.07 20.24,46.28 20.32,46.31 20.41,46.38 20.49,46.45 20.58,46.73 20.67,47.39 20.75,47.53 20.84,47.67 20.92,47.42 21.01,46.85 21.10,45.64 21.18,45.29 21.27,45.29 21.35,45.58 21.44,47.18 21.53,47.24 21.61,46.76 21.70,46.40 21.78,45.60 21.87,44.73 21.95,43.97 22.04,43.55 22.13,43.48 22.21,43.73 22.30,44.23 22.38,44.66 22.47,44.67 22.56,44.61 22.64,44.50 22.73,44.10 22.81,42.89 22.90,42.38 22.99,42.51 23.07,42.49 23.16,42.41 23.24,42.62 23.33,42.79 23.42,42.82 23.50,42.64 23.59,42.69 23.67,42.67 23.76,42.56 23.84,42.43 23.93,42.17 24.02,42.07 24.10,41.94 24.19,41.75 24.27,40.52 24.36,40.14 24.45,40.03 24.53,40.15 24.62,39.57 24.70,38.83 24.79,38.64 24.88,38.73 24.96,39.24 25.05,39.47 25.13,39.41 25.22,39.07 25.31,38.77 25.39,38.66 25.48,38.89 25.56,39.89 25.65,40.77 25.73,41.41 25.82,41.67 25.91,41.09 25.99,40.25 26.08,40.02 26.16,40.02 26.25,40.09 26.34,39.97 26.42,39.66 26.51,39.17 26.59,38.85 26.68,38.58 26.77,38.74 26.85,38.81 26.94,38.69 27.02,38.41 27.11,38.17 27.20,37.80 27.28,37.51 27.37,37.22 27.45,37.15 27.54,37.39 27.62,37.51 27.71,37.58 27.80,37.63 27.88,37.57 27.97,37.43 28.05,37.28 28.14,37.25 28.23,37.38 28.31,37.32 28.40,37.09 28.48,36.91 28.57,36.92 28.66,36.84 28.74,37.17 28.83,37.40 28.91,37.29 29.00,37.20 29.09,37.06 29.17,36.75 29.26,36.68 29.34,36.90 29.43,36.89 29.51,36.80 29.60,36.67 29.69,37.01 29.77,36.37 29.86,35.74 29.94,35.36 30.03,35.20 30.12,34.78 30.20,34.77 30.29,35.46 30.37,34.75 30.46,34.05 30.55,34.04 30.63,33.88 30.72,33.80 30.80,33.86 30.89,33.80 30.97,33.93 31.06,33.92 31.15,33.75 31.23,33.40 31.32,33.20 31.40,33.10 31.49,33.41 31.58,33.90 31.66,34.17 31.75,34.04 31.83,33.95 31.92,33.85 32.01,33.74 32.09,33.46 32.18,33.54 32.26,33.59 32.35,33.57 32.44,33.60 32.52,33.39 32.61,33.36 32.69,33.35 32.78,33.37 32.86,33.49 32.95,33.46 33.04,33.51 33.12,33.53 33.21,33.41 33.29,33.37 33.38,33.36 33.47,33.30 33.55,32.72 33.64,32.54 33.72,33.26 33.81,33.93 33.90,34.36 33.98,34.06 34.07,34.02 34.15,33.71 34.24,33.87 34.33,34.44 34.41,34.41 34.50,33.41 34.58,33.28 34.67,33.28 34.75,33.09 34.84,33.10 34.93,33.13 35.01,33.27 35.10,33.49 35.18,33.68 35.27,33.94 35.36,34.03 35.44,34.04 35.53,34.26 35.61,34.33 35.70,34.50 35.79,34.58 35.87,34.36 35.96,34.26 36.04,34.04 36.13,34.03 36.22,34.03 36.30,33.68 36.39,33.35 36.47,33.15 36.56,32.99 36.64,32.87 36.73,32.96 36.82,32.70 36.90,32.53 36.99,32.49 37.07,32.32 37.16,32.15 37.25,32.02 37.33,31.72 37.42,31.45 37.50,30.88 37.59,30.51 37.68,30.43 37.76,30.54 37.85,30.56 37.93,30.41 38.02,30.33 38.11,30.42 38.19,30.35 38.28,30.44 38.36,29.89 38.45,29.56 38.53,29.20 38.62,28.99 38.71,28.98 38.79,28.37 38.88,27.92 38.96,28.21 39.05,28.49 39.14,27.84 39.22,27.33 39.31,27.20 39.39,27.12 39.48,27.23 39.57,27.21 39.65,27.34 39.74,27.43 39.82,27.54 39.91,27.58 40.00,28.02 40.08,28.31 40.17,28.34 40.25,28.54 40.34,28.35 40.42,27.88 40.51,27.71 40.60,27.35 40.68,27.08 40.77,27.17 40.85,26.93 40.94,26.27 41.03,25.97 41.11,25.97 41.20,26.19 41.28,26.58 41.37,26.66 41.46,26.61 41.54,26.61 41.63,26.71 41.71,26.78 41.80,26.86 41.89,26.82 41.97,26.34 42.06,25.73 42.14,25.38 42.23,25.13 42.31,25.26 42.40,25.34 42.49,25.76 42.57,26.49 42.66,25.56 42.74,24.49 42.83,24.11 42.92,23.93 43.00,23.89 43.09,23.85 43.17,23.93 43.26,24.35 43.35,24.80 43.43,24.06 43.52,23.67 43.60,23.80 43.69,24.00 43.78,23.41 43.86,23.20 43.95,23.18 44.03,23.28 44.12,24.15 44.20,24.20 44.29,23.99 44.38,22.96 44.46,22.40 44.55,22.20 44.63,22.17 44.72,22.35 44.81,22.44 44.89,22.59 44.98,22.53 45.06,22.70 45.15,22.82 45.24,22.80 45.32,22.61 45.41,22.67 45.49,23.05 45.58,23.30 45.67,22.94 45.75,22.71 45.84,22.49 45.92,22.23 46.01,22.09 46.09,21.83 46.18,21.59 46.27,21.75 46.35,22.19 46.44,22.48 46.52,21.76 46.61,21.38 46.70,21.31 46.78,21.38 46.87,21.47 46.95,21.66 47.04,22.08 47.13,21.45 47.21,21.20 47.30,21.06 47.38,20.96 47.47,21.00 47.56,21.40 47.64,21.81 47.73,22.39 47.81,22.79 47.90,23.88 47.98,24.66 48.07,24.12 48.16,23.66 48.24,23.46 48.33,23.27 48.41,23.16 48.50,22.86 48.59,22.53 48.67,22.06 48.76,21.81 48.84,21.86 48.93,22.49 49.02,23.46 49.10,24.15 49.19,24.48 49.27,24.58 49.36,24.63 49.45,24.70 49.53,24.66 49.62,24.03 49.70,23.81 49.79,23.79 49.87,23.80 49.96,23.73 50.05,23.76 50.13,23.99 50.22,23.72 50.30,23.47 50.39,23.47 50.48,23.53 50.56,23.70 50.65,23.04 50.73,22.46 50.82,22.10 50.91,21.30 50.99,20.88 51.08,20.42 51.16,19.89 51.25,19.63 51.34,19.46 51.42,19.30 51.51,19.02 51.59,18.98 51.68,18.82 51.76,18.74 51.85,18.62 51.94,18.55 52.02,18.69 52.11,19.09 52.19,18.22 52.28,17.82 52.37,17.59 52.45,17.62 52.54,17.47 52.62,17.39 52.71,17.38 52.80,17.30 52.88,17.15 52.97,17.13 53.05,17.17 53.14,17.09 53.23,16.95 53.31,16.98 53.40,17.60 53.48,18.10 53.57,17.69 53.65,17.10 53.74,17.44 53.83,17.88 53.91,17.20 54.00,16.75 54.08,16.39 54.17,15.83 54.26,15.28 54.34,14.90 54.43,14.57 54.51,14.40 54.60,14.43 54.69,14.42 54.77,14.62 54.86,14.73 54.94,14.05 55.03,14.07 55.12,14.16 55.20,14.38 55.29,14.68 55.37,15.28 55.46,15.33 55.54,14.85 55.63,13.28 55.72,12.42 55.80,12.14 55.89,12.31 55.97,12.38 56.06,12.22 56.15,12.02 56.23,11.34 56.32,10.36 56.40,10.16 56.49,10.78 56.58,11.33 56.66,11.52 56.75,12.20 56.83,12.36 56.92,11.24 57.01,10.23 57.09,10.13 57.18,10.48 57.26,10.92 57.35,10.38 57.43,9.83 57.52,9.41 57.61,9.38 57.69,9.48 57.78,9.40 57.86,9.19 57.95,8.85 58.04,8.97 58.12,9.89 58.21,10.45 58.29,10.84 58.38,11.29 58.47,11.41 58.55,11.50 58.64,11.06 58.72,10.19 58.81,10.10 58.89,10.12 58.98,10.16 59.07,9.99 59.15,9.21 59.24,8.82 59.32,8.78 59.41,8.62 59.50,8.61 59.58,8.66 59.67,8.70 59.75,9.11 59.84,8.96 59.93,8.80 60.01,8.80 60.10,8.77 60.18,8.64 60.27,8.52 60.36,8.44 60.44,8.26 60.53,7.72 60.61,7.14 60.70,6.41 60.78,5.81 60.87,5.49 60.96,5.56 61.04,5.82 61.13,6.30 61.21,6.55 61.30,7.01 61.39,6.94 61.47,6.52 61.56,5.49 61.64,5.32 61.73,5.38 61.82,5.38 61.90,5.33 61.99,5.29 62.07,5.36 62.16,5.57 62.25,5.83 62.33,6.11 62.42,6.49 62.50,6.67 62.59,6.93 62.67,7.20 62.76,7.50 62.85,7.41 62.93,7.24 63.02,7.26 63.10,7.41 63.19,7.75 63.28,8.08 63.36,7.62 63.45,7.11 63.53,7.23 63.62,7.80 63.71,8.04 63.79,7.95 63.88,7.76 63.96,7.27 64.05,6.78 64.14,6.74 64.22,6.96 64.31,7.22 64.39,7.48 64.48,7.80 64.56,8.10 64.65,8.33 64.74,8.58 64.82,8.85 64.91,9.20 64.99,9.90 65.08,10.45 65.17,10.88 65.25,11.32 65.34,11.37 65.42,10.34 65.51,9.79 65.60,10.47 65.68,11.38 65.77,11.07 65.85,11.40 65.94,11.33 66.03,11.45 66.11,11.33 66.20,11.12 66.28,11.04 66.37,11.26 66.45,11.51 66.54,11.83 66.63,12.54 66.71,13.06 66.80,12.86 66.88,12.81 66.97,13.11 67.06,13.10 67.14,13.31 67.23,13.34 67.31,13.45 67.40,13.61 67.49,13.74 67.57,13.52 67.66,13.66 67.74,13.74 67.83,13.91 67.92,14.10 68.00,14.24 68.09,14.25 68.17,14.02 68.26,14.14 68.34,14.55 68.43,14.45 68.52,14.02 68.60,13.83 68.69,13.71 68.77,13.58 68.86,13.61 68.95,13.52 69.03,13.42 69.12,13.34 69.20,13.92 69.29,14.27 69.38,13.61 69.46,13.68 69.55,13.84 69.63,14.06 69.72,14.38 69.81,14.92 69.89,15.30 69.98,15.44 70.06,16.21 70.15,16.42 70.23,16.40 70.32,16.48 70.41,16.58 70.49,16.59 70.58,16.42 70.66,16.26 70.75,16.20 70.84,16.53 70.92,17.60 71.01,17.40 71.09,16.59 71.18,16.34 71.27,16.98 71.35,16.54 71.44,16.09 71.52,15.19 71.61,15.31 71.70,15.58 71.78,15.60 71.87,15.78 71.95,16.10 72.04,15.73 72.12,15.43 72.21,15.38 72.30,15.39 72.38,15.55 72.47,15.62 72.55,15.21 72.64,14.36 72.73,14.11 72.81,14.12 72.90,14.24 72.98,14.10 73.07,13.41 73.16,13.48 73.24,13.57 73.33,13.42 73.41,13.30 73.50,13.22 73.59,13.07 73.67,12.80 73.76,12.41 73.84,12.20 73.93,12.13 74.01,12.68 74.10,13.54 74.19,13.63 74.27,13.52 74.36,13.31 74.44,12.63 74.53,11.88 74.62,11.55 74.70,11.64 74.79,11.61 74.87,11.21 74.96,11.09 75.05,11.00 75.13,10.93 75.22,10.88 75.30,10.90 75.39,11.23 75.48,11.38 75.56,11.32 75.65,10.92 75.73,10.71 75.82,10.57 75.90,10.45 75.99,10.10 76.08,9.85 76.16,10.04 76.25,10.51 76.33,10.84 76.42,10.60 76.51,10.56 76.59,10.77 76.68,10.48 76.76,9.70 76.85,9.67 76.94,10.32 77.02,55.94 77.11,55.68 77.19,55.44 77.28,55.10 77.37,54.77 77.45,54.71 77.54,54.63 77.62,54.58 77.71,54.75 77.79,55.09 77.88,55.12 77.97,54.90 78.05,54.61 78.14,54.23 78.22,54.31 78.31,54.10 78.40,54.24 78.48,54.04 78.57,54.21 78.65,54.51 78.74,54.21 78.83,54.48 78.91,54.51 79.00,54.63 79.08,55.11 79.17,55.05 79.26,55.18 79.34,54.89 79.43,54.44 79.51,54.37 79.60,54.28 79.68,54.43 79.77,54.47 79.86,54.53 79.94,54.50 80.03,54.55 80.11,54.46 80.20,54.56 80.29,54.12 80.37,53.93 80.46,53.86 80.54,53.50 80.63,53.49 80.72,53.92 80.80,54.07 80.89,52.71 80.97,52.22 81.06,52.04 81.15,51.90 81.23,52.23 81.32,51.81 81.40,50.80 81.49,50.80 81.57,51.73 81.66,51.49 81.75,50.52 81.83,50.02 81.92,49.77 82.00,49.85 82.09,50.34 82.18,50.95 82.26,51.36 82.35,52.15 82.43,52.68 82.52,52.72 82.61,52.99 82.69,52.92 82.78,53.22 82.86,53.14 82.95,52.75 83.04,52.45 83.12,52.19 83.21,52.09 83.29,52.18 83.38,52.34 83.46,52.75 83.55,52.83 83.64,52.49 83.72,51.33 83.81,50.48 83.89,50.72 83.98,50.75 84.07,50.81 84.15,50.51 84.24,51.26 84.32,50.78 84.41,51.02 84.50,50.68 84.58,51.11 84.67,51.61 84.75,50.80 84.84,49.59 84.92,48.80 85.01,49.33 85.10,50.78 85.18,50.67 85.27,50.96 85.35,51.23 85.44,51.19 85.53,51.06 85.61,50.72 85.70,50.48 85.78,50.29 85.87,50.08 85.96,49.88 86.04,49.60 86.13,49.31 86.21,49.25 86.30,49.23 86.39,48.58 86.47,47.82 86.56,47.94 86.64,47.92 86.73,47.85 86.81,47.75 86.90,47.62 86.99,48.04 87.07,46.74 87.16,45.65 87.24,45.29 87.33,46.12 87.42,45.97 87.50,44.69 87.59,44.09 87.67,43.93 87.76,43.75 87.85,43.55 87.93,43.48 88.02,43.60 88.10,44.11 88.19,44.03 88.28,43.96 88.36,43.87 88.45,44.70 88.53,44.75 88.62,44.10 88.70,44.08 88.79,44.38 88.88,45.41 88.96,45.04 89.05,43.83 89.13,43.52 89.22,43.78 89.31,44.89 89.39,45.18 89.48,44.55 89.56,43.49 89.65,43.43 89.74,43.86 89.82,44.22 89.91,45.04 89.99,45.27 90.08,45.42 90.17,45.51 90.25,45.78 90.34,46.48 90.42,47.15 90.51,47.74 90.59,47.29 90.68,46.38 90.77,45.46 90.85,45.12 90.94,45.52 91.02,45.91 91.11,46.96 91.20,47.84 91.28,48.17 91.37,47.40 91.45,46.60 91.54,46.18 91.63,45.72 91.71,44.61 91.80,44.33 91.88,44.32 91.97,44.41 92.06,44.41 92.14,44.30 92.23,43.75 92.31,44.05 92.40,44.41 92.48,44.52 92.57,44.44 92.66,44.61 92.74,44.66 92.83,45.02 92.91,45.63 93.00,45.67 93.09,45.69 93.17,46.05 93.26,46.02 93.34,46.30 93.43,46.29 93.52,46.52 93.60,46.64 93.69,47.13 93.77,47.84 93.86,47.76 93.95,47.56 94.03,46.75 94.12,45.61 94.20,45.06 94.29,45.17 94.37,45.70 94.46,46.71 94.55,47.27 94.63,46.78 94.72,46.43 94.80,45.76 94.89,44.50 94.98,43.89 95.06,43.47 95.15,43.27 95.23,43.81 95.32,44.23 95.41,44.57 95.49,44.55 95.58,44.61 95.66,44.46 95.75,44.06 95.84,42.90 95.92,42.28 96.01,42.56 96.09,42.47 96.18,42.55 96.26,42.47 96.35,42.53 96.44,42.78 96.52,42.50 96.61,42.58 96.69,42.57 96.78,42.53 96.87,42.33 96.95,42.22 97.04,42.05 97.12,41.96 97.21,41.51 97.30,40.44 97.38,40.17 97.47,40.14 97.55,40.19 97.64,39.56 97.73,38.71 97.81,38.59 97.90,38.86 97.98,38.97 98.07,39.52 98.15,39.31 98.24,39.06 98.33,38.81 98.41,38.62 98.50,38.90 98.58,39.74 98.67,40.54 98.76,41.48 98.84,41.35 98.93,41.13 99.01,40.16 99.10,40.04 99.19,40.03 99.27,39.98 99.36,39.86 99.44,39.61 99.53,39.16 99.62,38.65 99.70,38.17 99.79,38.79 99.87,38.77 99.96,38.59 100.04,38.41 100.13,38.15 100.22,37.72 100.30,37.35 100.39,37.35 100.47,36.84 100.56,37.34 100.65,37.56 100.73,37.43 100.82,37.79 100.90,37.47 100.99,37.30 101.08,37.13 101.16,37.25 101.25,37.47 101.33,37.26 101.42,37.10 101.51,36.62 101.59,36.70 101.68,36.77 101.76,37.17 101.85,37.08 101.93,36.94 102.02,37.45 102.11,36.98 102.19,36.64 102.28,36.58 102.36,36.82 102.45,36.98 102.54,36.93 102.62,36.81 102.71,37.09 102.79,36.46 102.88,35.56 102.97,35.23 103.05,35.23 103.14,34.71 103.22,34.78 103.31,35.39 103.40,34.79 103.48,33.87 103.57,34.07 103.65,33.81 103.74,33.89 103.82,33.76 103.91,33.89 104.00,33.98 104.08,33.68 104.17,33.73 104.25,33.31 104.34,33.04 104.43,33.06 104.51,33.46 104.60,33.82 104.68,34.08 104.77,34.11 104.86,34.04 104.94,33.98 105.03,33.85 105.11,33.33 105.20,33.35 105.29,33.59 105.37,33.85 105.46,33.37 105.54,33.27 105.63,33.23 105.71,33.33 105.80,33.33 105.89,33.39 105.97,33.45 106.06,33.50 106.14,33.53 106.23,33.43 106.32,33.37 106.40,33.30 106.49,33.32 106.57,32.93 106.66,32.45 106.75,33.23 106.83,33.99 106.92,34.29 107.00,34.20 107.09,33.83 107.18,33.84 107.26,33.65 107.35,34.39 107.43,34.20 107.52,33.23 107.60,33.25 107.69,33.23 107.78,33.14 107.86,32.98 107.95,33.14 108.03,33.25 108.12,33.41 108.21,33.70 108.29,33.99 108.38,34.03 108.46,34.00 108.55,34.32 108.64,34.41 108.72,34.49 108.81,34.60 108.89,34.32 108.98,34.24 109.07,34.08 109.15,34.12 109.24,34.05 109.32,33.56 109.41,33.37 109.49,33.13 109.58,32.98 109.67,32.88 109.75,32.91 109.84,32.66 109.92,32.54 110.01,32.48 110.10,32.30 110.18,32.16 110.27,31.89 110.35,31.67 110.44,31.46 110.53,30.85 110.61,30.46 110.70,30.33 110.78,30.43 110.87,30.51 110.95,30.27 111.04,30.42 111.13,30.49 111.21,30.35 111.30,30.28 111.38,29.70 111.47,29.67 111.56,29.27 111.64,28.90 111.73,29.16 111.81,28.26 111.90,27.78 111.99,28.08 112.07,28.48 112.16,27.93 112.24,27.25 112.33,27.20 112.42,27.17 112.50,27.11 112.59,27.16 112.67,27.30 112.76,27.40 112.84,27.44 112.93,27.55 113.02,27.99 113.10,28.29 113.19,28.22 113.27,28.46 113.36,28.20 113.45,27.94 113.53,27.62 113.62,27.11 113.70,26.85 113.79,26.97 113.88,26.89 113.96,26.24 114.05,25.81 114.13,25.99 114.22,26.23 114.31,26.40 114.39,26.59 114.48,26.66 114.56,26.58 114.65,26.74 114.73,26.75 114.82,26.85 114.91,26.81 114.99,26.24 115.08,25.54 115.16,25.20 115.25,25.10 115.34,25.19 115.42,25.32 115.51,25.82 115.59,26.34 115.68,25.57 115.77,24.52 115.85,24.10 115.94,23.99 116.02,23.72 116.11,23.83 116.20,23.90 116.28,24.23 116.37,24.75 116.45,23.84 116.54,23.67 116.62,23.84 116.71,23.84 116.80,23.28 116.88,23.00 116.97,23.07 117.05,23.25 117.14,24.40 117.23,24.15 117.31,23.89 117.40,22.86 117.48,22.16 117.57,22.10 117.66,22.28 117.74,22.15 117.83,22.26 117.91,22.37 118.00,22.35 118.09,22.65 118.17,22.65 118.26,22.73 118.34,22.48 118.43,22.71 118.51,22.85 118.60,23.18 118.69,22.87 118.77,22.57 118.86,22.39 118.94,22.14 119.03,22.08 119.12,21.85 119.20,21.66 119.29,21.59 119.37,22.19 119.46,22.26 119.55,21.48 119.63,21.27 119.72,21.32 119.80,21.34 119.89,21.30 119.98,21.54 120.06,21.75 120.15,21.39 120.23,21.24 120.32,20.84 120.40,20.87 120.49,20.93 120.58,21.06 120.66,21.56 120.75,22.18 120.83,22.63 120.92,23.45 121.01,24.60 121.09,23.98 121.18,23.42 121.26,23.18 121.35,23.19 121.44,22.93 121.52,22.71 121.61,22.41 121.69,22.04 121.78,21.60 121.87,21.74 121.95,22.42 122.04,23.44 122.12,24.11 122.21,24.44 122.29,24.46 122.38,24.58 122.47,24.69 122.55,24.64 122.64,24.10 122.72,23.65 122.81,23.69 122.90,23.81 122.98,23.72 123.07,23.58 123.15,24.16 123.24,23.85 123.33,23.57 123.41,23.51 123.50,23.65 123.58,23.65 123.67,23.17 123.76,22.64 123.84,22.07 123.93,21.54 124.01,20.91 124.10,20.45 124.18,19.94 124.27,19.52 124.36,19.47 124.44,19.35 124.53,19.09 124.61,18.97 124.70,18.69 124.79,18.72 124.87,18.48 124.96,18.36 125.04,18.60 125.13,18.92 125.22,18.32 125.30,17.70 125.39,17.54 125.47,17.57 125.56,17.40 125.65,17.28 125.73,17.29 125.82,17.26 125.90,17.04 125.99,17.09 126.07,17.04 126.16,17.06 126.25,16.97 126.33,16.90 126.42,17.46 126.50,17.99 126.59,17.60 126.68,17.07 126.76,17.40 126.85,17.83 126.93,17.11 127.02,16.64 127.11,16.46 127.19,15.83 127.28,15.18 127.36,14.94 127.45,14.59 127.54,14.42 127.62,14.13 127.71,14.58 127.79,14.60 127.88,14.58 127.96,13.97 128.05,13.99 128.14,14.13 128.22,14.24 128.31,14.69 128.39,15.18 128.48,15.33 128.57,14.78 128.65,13.23 128.74,12.50 128.82,12.17 128.91,12.18 129.00,12.40 129.08,11.97 129.17,12.15 129.25,11.07 129.34,10.37 129.43,10.10 129.51,10.82 129.60,11.14 129.68,11.40 129.77,12.16 129.85,12.22 129.94,11.23 130.03,10.17 130.11,10.13 130.20,10.45 130.28,10.78 130.37,10.43 130.46,9.70 130.54,9.30 130.63,9.18 130.71,9.41 130.80,9.49 130.89,9.11 130.97,8.71 131.06,9.01 131.14,9.68 131.23,10.28 131.32,10.66 131.40,11.24 131.49,11.40 131.57,11.54 131.66,10.99 131.74,10.13 131.83,10.09 131.92,10.08 132.00,10.12 132.09,9.96 132.17,9.11 132.26,8.86 132.35,8.61 132.43,8.58 132.52,8.54 132.60,8.60 132.69,8.59 132.78,8.95 132.86,8.80 132.95,8.74 133.03,8.77 133.12,8.70 133.21,8.56 133.29,8.48 133.38,8.43 133.46,8.19 133.55,7.68 133.63,7.13 133.72,6.38 133.81,5.79 133.89,5.39 133.98,5.40 134.06,5.66 134.15,6.08 134.24,6.70 134.32,6.76 134.41,6.85 134.49,6.23 134.58,5.44 134.67,5.34 134.75,5.38 134.84,5.23 134.92,5.33 135.01,5.33 135.10,5.35 135.18,5.51 135.27,5.74 135.35,6.10 135.44,6.49 135.52,6.75 135.61,6.90 135.70,7.18 135.78,7.33 135.87,7.26 135.95,7.29 136.04,7.08 136.13,7.35 136.21,7.95 136.30,8.04 136.38,7.59 136.47,7.18 136.56,7.22 136.64,7.58 136.73,7.99 136.81,8.03 136.90,7.66 136.98,7.15 137.07,6.66 137.16,6.78 137.24,7.01 137.33,7.28 137.41,7.35 137.50,7.78 137.59,7.97 137.67,8.26 137.76,8.68 137.84,8.79 137.93,9.19 138.02,9.85 138.10,10.45 138.19,10.88 138.27,11.36 138.36,11.32 138.45,10.28 138.53,9.85 138.62,10.42 138.70,11.38 138.79,10.92 138.87,11.38 138.96,11.32 139.05,11.44 139.13,11.31 139.22,11.08 139.30,10.97 139.39,11.22 139.48,11.43 139.56,11.67 139.65,12.50 139.73,13.10 139.82,12.71 139.91,12.88 139.99,13.23 140.08,13.15 140.16,13.29 140.25,13.17 140.34,13.38 140.42,13.57 140.51,13.64 140.59,13.48 140.68,13.61 140.76,13.69 140.85,13.86 140.94,14.07 141.02,14.22 141.11,14.25 141.19,13.94 141.28,13.81 141.37,14.47 141.45,14.64 141.54,13.95 141.62,13.74 141.71,13.75 141.80,13.49 141.88,13.60 141.97,13.64 142.05,13.44 142.14,13.09 142.23,13.95 142.31,14.08 142.40,13.69 142.48,13.78 142.57,13.85 142.65,14.17 142.74,14.30 142.83,14.98 142.91,15.11 143.00,15.55 143.08,16.29 143.17,16.39 143.26,16.35 143.34,16.58 143.43,16.87 143.51,16.45 143.60,16.35 143.69,16.22 143.77,16.14 143.86,16.53 143.94,17.68 144.03,17.43 144.12,16.61 144.20,16.50 144.29,17.13 144.37,16.72 144.46,16.12 144.54,15.28 144.63,15.51 144.72,15.55 144.80,15.55 144.89,15.86 144.97,16.17 145.06,15.62 145.15,15.37 145.23,15.33 145.32,15.37 145.40,15.58 145.49,15.61 145.58,14.99 145.66,14.39 145.75,14.13 145.83,13.86 145.92,14.21 146.01,14.00 146.09,13.43 146.18,13.50 146.26,13.52 146.35,13.24 146.43,13.19 146.52,13.08 146.61,13.08 146.69,12.83 146.78,12.44 146.86,12.33 146.95,12.06 147.04,12.79 147.12,13.49 147.21,13.52 147.29,13.66 147.38,13.33 147.47,12.73 147.55,11.76 147.64,11.54 147.72,11.64 147.81,11.70 147.90,11.17 147.98,11.01 148.07,11.14 148.15,11.03 148.24,10.92 148.32,11.15 148.41,11.21 148.50,11.42 148.58,11.28 148.67,10.81 148.75,10.57 148.84,10.78 148.93,10.41 149.01,10.00 149.10,9.94 149.18,10.00 149.27,10.46 149.36,11.08 149.44,10.48 149.53,10.62 149.61,10.86 149.70,10.44 149.79,9.50 149.87,9.50 149.96,10.29 150.04,55.98 150.13,55.68 150.21,55.23 150.30,54.90 150.39,54.55 150.47,54.60 150.56,54.72 150.64,54.36 150.73,54.85 150.82,54.66 150.90,55.15 150.99,54.82 151.07,54.50 151.16,54.21 151.25,53.95 151.33,53.59 151.42,54.45 151.50,54.29 151.59,54.11 151.68,53.92 151.76,53.76 151.85,54.07 151.93,54.49 152.02,55.04 152.10,54.92 152.19,55.59 152.28,55.30 152.36,54.45 152.45,54.76 152.53,53.95 152.62,54.20 152.71,54.90 152.79,54.19 152.88,54.50 152.96,54.73 153.05,54.30 153.14,54.63 153.22,54.35 153.31,53.83 153.39,53.80 153.48,53.99 153.57,53.66 153.65,53.91 153.74,53.99 153.82,53.71 153.91,52.66 153.99,52.22 154.08,51.89 154.17,51.85 154.25,52.10 154.34,51.96 154.42,50.66 154.51,50.53 154.60,51.32 154.68,50.84 154.77,50.15 154.85,49.65 154.94,49.96 155.03,49.84 155.11,50.35 155.20,50.77 155.28,51.30 155.37,52.00 155.46,52.87 155.54,52.87 155.63,53.16 155.71,53.60 155.80,53.93 155.88,52.94 155.97,53.12 156.06,53.39 156.14,52.03 156.23,52.64 156.31,52.64 156.40,51.98 156.49,52.46 156.57,52.86 156.66,52.73 156.74,51.09 156.83,51.18 156.92,50.66 157.00,51.46 157.09,51.13 157.17,50.28 157.26,51.07 157.35,51.30 157.43,50.80 157.52,51.25 157.60,51.32 157.69,51.52 157.77,50.68 157.86,49.36 157.95,49.13 158.03,49.13 158.12,50.33 158.20,50.82 158.29,50.67 158.38,51.15 158.46,51.02 158.55,50.88 158.63,50.66 158.72,50.42 158.81,50.16 158.89,49.96 158.98,49.94 159.06,49.72 159.15,49.44 159.24,49.29 159.32,48.77 159.41,48.77 159.49,47.85 159.58,47.98 159.66,47.71 159.75,47.73 159.84,47.67 159.92,47.83 160.01,47.91 160.09,47.00 160.18,45.72 160.27,45.01 160.35,45.83 160.44,46.27 160.52,45.36 160.61,44.49 160.70,44.15 160.78,43.91 160.87,43.54 160.95,43.39 161.04,43.71 161.13,43.80 161.21,43.86 161.30,43.86 161.38,43.95 161.47,44.94 161.55,44.55 161.64,44.09 161.73,44.36 161.81,44.57 161.90,44.75 161.98,44.33 162.07,43.50 162.16,43.96 162.24,43.75 162.33,44.42 162.41,45.13 162.50,44.43 162.59,43.64 162.67,43.10 162.76,43.83 162.84,43.89 162.93,44.99 163.02,45.20 163.10,45.47 163.19,45.34 163.27,45.74 163.36,46.46 163.44,47.19 163.53,47.52 163.62,47.39 163.70,46.29 163.79,45.18 163.87,45.27 163.96,45.48 164.05,46.47 164.13,47.32 164.22,48.11 164.30,47.75 164.39,47.09 164.48,46.45 164.56,46.10 164.65,45.26 164.73,44.46 164.82,44.27 164.90,44.37 164.99,44.18 165.08,43.96 165.16,44.54 165.25,44.19 165.33,44.01 165.42,44.09 165.51,44.22 165.59,44.48 165.68,44.81 165.76,44.34 165.85,45.03 165.94,45.71 166.02,45.58 166.11,45.37 166.19,45.94 166.28,45.65 166.37,46.23 166.45,46.13 166.54,46.63 166.62,46.91 166.71,47.38 166.79,47.79 166.88,47.62 166.97,47.19 167.05,46.19 167.14,45.07 167.22,45.09 167.31,45.09 167.40,46.07 167.48,46.73 167.57,46.98 167.65,46.60 167.74,46.15 167.83,45.22 167.91,44.03 168.00,44.18 168.08,43.24 168.17,43.00 168.26,43.91 168.34,44.65 168.43,44.49 168.51,44.37 168.60,44.46 168.68,44.46 168.77,43.91 168.86,43.06 168.94,42.30 169.03,42.87 169.11,42.51 169.20,42.20 169.29,42.04 169.37,42.10 169.46,42.20 169.54,42.37 169.63,42.63 169.72,41.92 169.80,42.30 169.89,42.65 169.97,41.95 170.06,42.18 170.15,42.15 170.23,41.15 170.32,40.66 170.40,39.96 170.49,39.86 170.57,39.99 170.66,39.06 170.75,38.55 170.83,38.55 170.92,38.44 171.00,38.51 171.09,39.36 171.18,38.98 171.26,39.45 171.35,38.55 171.43,38.59 171.52,39.34 171.61,39.69 171.69,40.38 171.78,41.13 171.86,41.74 171.95,41.33 172.04,40.58 172.12,40.18 172.21,40.06 172.29,39.96 172.38,39.74 172.46,39.50 172.55,38.89 172.64,38.83 172.72,38.18 172.81,38.92 172.89,38.90 172.98,38.92 173.07,38.08 173.15,37.65 173.24,37.40 173.32,37.11 173.41,36.66 173.50,36.16 173.58,37.39 173.67,37.24 173.75,37.09 173.84,38.30 173.93,37.23 174.01,37.65 174.10,37.24 174.18,38.14 174.27,37.73 174.35,36.81 174.44,37.50 174.53,37.32 174.61,36.54 174.70,36.76 174.78,37.57 174.87,37.01 174.96,36.50 175.04,37.65 175.13,37.23 175.21,36.88 175.30,36.73 175.39,36.94 175.47,37.09 175.56,37.12 175.64,37.36 175.73,37.61 175.82,36.97 175.90,35.90 175.99,35.35 176.07,35.06 176.16,34.94 176.24,35.44 176.33,35.27 176.42,34.45 176.50,33.60 176.59,33.71 176.67,33.77 176.76,33.87 176.85,34.02 176.93,34.13 177.02,34.30 177.10,33.32 177.19,33.32 177.28,33.29 177.36,33.31 177.45,32.95 177.53,33.43 177.62,33.97 177.71,33.95 177.79,34.04 177.88,34.27 177.96,34.55 178.05,33.78 178.13,34.19 178.22,33.24 178.31,33.75 178.39,34.21 178.48,33.73 178.56,33.34 178.65,34.04 178.74,33.96 178.82,33.09 178.91,33.90 178.99,33.76 179.08,33.68 179.17,33.68 179.25,33.47 179.34,33.24 179.42,33.31 179.51,33.31 179.60,33.29 179.68,33.26 179.77,33.50 179.85,33.97 179.94,34.06 180.02,34.06 180.11,34.25 180.20,33.62 180.28,34.43 180.37,34.53 180.45,33.97 180.54,33.86 180.63,33.14 180.71,33.33 180.80,33.00 180.88,33.15 180.97,33.35 181.06,33.64 181.14,33.38 181.23,33.70 181.31,33.97 181.40,34.03 181.49,34.15 181.57,34.16 181.66,34.45 181.74,34.58 181.83,34.42 181.91,34.22 182.00,34.11 182.09,33.80 182.17,33.92 182.26,33.93 182.34,33.46 182.43,33.27 182.52,32.87 182.60,32.83 182.69,32.90 182.77,32.72 182.86,32.39 182.95,32.43 183.03,32.19 183.12,32.35 183.20,32.13 183.29,31.90 183.38,31.53 183.46,31.75 183.55,30.87 183.63,30.62 183.72,30.65 183.80,30.19 183.89,30.53 183.98,30.12 184.06,30.80 184.15,31.04 184.23,30.55 184.32,30.12 184.41,30.00 184.49,29.39 184.58,29.37 184.66,28.92 184.75,29.47 184.84,28.50 184.92,27.89 185.01,28.02 185.09,28.30 185.18,28.25 185.27,27.22 185.35,27.55 185.44,27.28 185.52,27.21 185.61,27.34 185.69,27.34 185.78,27.53 185.87,27.97 185.95,27.83 186.04,28.10 186.12,28.50 186.21,28.84 186.30,28.37 186.38,28.28 186.47,28.01 186.55,27.62 186.64,27.32 186.73,27.24 186.81,27.24 186.90,27.13 186.98,26.58 187.07,25.90 187.16,26.23 187.24,26.17 187.33,26.33 187.41,26.90 187.50,26.86 187.58,26.51 187.67,26.77 187.76,26.57 187.84,26.77 187.93,26.68 188.01,25.87 188.10,25.81 188.19,24.96 188.27,25.17 188.36,25.08 188.44,25.47 188.53,26.16 188.62,26.16 188.70,25.59 188.79,24.26 188.87,24.43 188.96,24.12 189.05,24.11 189.13,23.60 189.22,24.15 189.30,24.15 189.39,24.89 189.47,24.10 189.56,23.84 189.65,24.16 189.73,23.34 189.82,23.59 189.90,23.13 189.99,23.08 190.08,23.85 190.16,24.01 190.25,24.38 190.33,23.65 190.42,22.43 190.51,22.46 190.59,21.79 190.68,22.18 190.76,21.99 190.85,22.65 190.93,22.52 191.02,22.53 191.11,23.23 191.19,22.86 191.28,22.99 191.36,22.42 191.45,22.86 191.54,22.80 191.62,23.05 191.71,23.05 191.79,23.21 191.88,22.71 191.97,22.19 192.05,22.56 192.14,22.03 192.22,21.61 192.31,21.58 192.40,22.65 192.48,22.38 192.57,21.64 192.65,21.05 192.74,21.34 192.82,21.69 192.91,21.69 193.00,22.22 193.08,22.02 193.17,20.97 193.25,21.74 193.34,21.62 193.43,20.77 193.51,21.23 193.60,20.83 193.68,21.76 193.77,22.99 193.86,22.62 193.94,23.86 194.03,24.57 194.11,24.26 194.20,23.62 194.29,23.31 194.37,23.73 194.46,22.78 194.54,22.32 194.63,22.19 194.71,21.71 194.80,21.29 194.89,21.76 194.97,22.78 195.06,23.78 195.14,24.23 195.23,24.33 195.32,24.56 195.40,24.68 195.49,24.73 195.57,24.21 195.66,24.47 195.75,23.90 195.83,23.88 195.92,23.38 196.00,23.53 196.09,23.11 196.18,24.06 196.26,23.61 196.35,23.99 196.43,23.51 196.52,23.25 196.60,23.18 196.69,23.42 196.78,22.85 196.86,21.75 196.95,21.42 197.03,20.57 197.12,20.64 197.21,19.98 197.29,19.80 197.38,19.31 197.46,19.65 197.55,19.40 197.64,18.84 197.72,18.95 197.81,18.96 197.89,18.33 197.98,18.48 198.07,18.92 198.15,18.79 198.24,18.50 198.32,18.06 198.41,17.81 198.49,17.48 198.58,17.73 198.67,17.24 198.75,17.20 198.84,17.61 198.92,17.14 199.01,17.08 199.10,16.88 199.18,17.04 199.27,17.16 199.35,16.86 199.44,17.31 199.53,17.65 199.61,17.81 199.70,17.25 199.78,17.55 199.87,17.72 199.96,17.29 200.04,16.86 200.13,16.42 200.21,15.82 200.30,15.50 200.38,15.20 200.47,14.83 200.56,14.67 200.64,14.45 200.73,14.10 200.81,14.81 200.90,14.29 200.99,13.68 201.07,14.16 201.16,13.98 201.24,14.60 201.33,14.89 201.42,14.89 201.50,15.32 201.59,15.02 201.67,13.98 201.76,12.39 201.85,12.16 201.93,11.72 202.02,12.27 202.10,11.72 202.19,12.11 202.27,10.98 202.36,10.09 202.45,10.38 202.53,10.35 202.62,11.21 202.70,11.26 202.79,12.08 202.88,12.26 202.96,10.81 203.05,10.11 203.13,10.16 203.22,10.26 203.31,10.71 203.39,10.23 203.48,9.58 203.56,9.54 203.65,9.11 203.74,9.62 203.82,9.12 203.91,9.21 203.99,8.42 204.08,8.66 204.16,9.58 204.25,10.17 204.34,10.70 204.42,11.05 204.51,11.27 204.59,11.07 204.68,11.59 204.77,10.49 204.85,10.17 204.94,9.92 205.02,10.23 205.11,9.65 205.20,9.26 205.28,8.80 205.37,8.45 205.45,8.45 205.54,8.94 205.63,8.66 205.71,8.43 205.80,9.10 205.88,8.82 205.97,8.86 206.05,8.47 206.14,8.63 206.23,8.17 206.31,8.63 206.40,8.53 206.48,8.16 206.57,7.65 206.66,7.16 206.74,6.75 206.83,5.86 206.91,5.57 207.00,5.08 207.09,5.35 207.17,6.22 207.26,6.90 207.34,6.24 207.43,6.31 207.52,6.07 207.60,5.77 207.69,5.29 207.77,5.22 207.86,5.28 207.94,5.41 208.03,5.62 208.12,5.20 208.20,5.60 208.29,5.40 208.37,5.95 208.46,6.55 208.55,6.64 208.63,6.87 208.72,7.71 208.80,8.00 208.89,7.09 208.98,7.13 209.06,7.17 209.15,8.03 209.23,7.87 209.32,7.68 209.41,6.90 209.49,7.45 209.58,6.76 209.66,7.25 209.75,7.69 209.83,8.06 209.92,7.31 210.01,7.31 210.09,6.85 210.18,7.16 210.26,7.00 210.35,6.95 210.44,7.03 210.52,8.13 210.61,8.32 210.69,8.58 210.78,8.91 210.87,8.43 210.95,9.53 211.04,10.15 211.12,10.65 211.21,11.01 211.30,10.95 211.38,11.30 211.47,10.48 211.55,9.95 211.64,9.99 211.72,11.07 211.81,11.03 211.90,11.50 211.98,11.34 212.07,11.61 212.15,11.15 212.24,11.24 212.33,11.41 212.41,10.90 212.50,11.42 212.58,12.38 212.67,12.93 212.76,12.87 212.84,12.88 212.93,12.97 213.01,13.32 213.10,12.89 213.19,13.37 213.27,13.56 213.36,13.80 213.44,13.46 213.53,13.72 213.61,13.94 213.70,13.29 213.79,13.69 213.87,13.36 213.96,13.97 214.04,13.92 214.13,14.49 214.22,14.24 214.30,14.16 214.39,14.17 214.47,14.66 214.56,13.66 214.65,14.06 214.73,13.46 214.82,13.79 214.90,13.31 214.99,13.88 215.08,13.98 215.16,13.03 215.25,13.63 215.33,14.10 215.42,13.76 215.50,13.58 215.59,13.72 215.68,13.97 215.76,14.36 215.85,14.87 215.93,15.39 216.02,15.06 216.11,15.96 216.19,16.38 216.28,16.64 216.36,16.15 216.45,16.64 216.54,15.95 216.62,16.76 216.71,16.48 216.79,16.02 216.88,16.36 216.96,17.19 217.05,17.58 217.14,16.55 217.22,16.26 217.31,16.64 217.39,16.97 217.48,16.07 217.57,15.47 217.65,15.51 217.74,14.76 217.82,15.30 217.91,16.00 218.00,15.65 218.08,15.20 218.17,15.04 218.25,15.71 218.34,15.64 218.43,16.00 218.51,15.92 218.60,15.44 218.68,14.73 218.77,14.08 218.85,13.70 218.94,15.02 219.03,14.59 219.11,13.22 219.20,13.36 219.28,13.62 219.37,13.13 219.46,13.70 219.54,12.86 219.63,12.60 219.71,13.15 219.80,12.67 219.89,12.26 219.97,11.57 220.06,12.47 220.14,13.23 220.23,13.59 220.32,13.22 220.40,13.71 220.49,13.06 220.57,12.33 220.66,11.45 220.74,11.43 220.83,12.05 220.92,11.74 221.00,10.77 221.09,10.56 221.17,11.30 221.26,11.18 221.35,11.17 221.43,11.17 221.52,11.31 221.60,11.28 221.69,10.68 221.78,11.05 221.86,10.76 221.95,9.96 222.03,10.39 222.12,9.94 222.21,10.00 222.29,10.94 222.38,10.83 222.46,9.85 222.55,10.66 222.63,10.94 222.72,10.63 222.81,10.09 222.89,9.77 222.98,10.36 223.06,55.74 223.15,55.74 223.24,54.89 223.32,54.89 223.41,53.75 223.49,53.75 223.58,53.75 223.67,52.59 223.75,54.60 223.84,54.60 223.92,53.69 224.01,53.69 224.10,53.69 224.18,52.81 224.27,52.81 224.35,52.14 224.44,52.14 224.52,52.14 224.61,51.85 224.70,51.85 224.78,51.85 224.87,53.01 224.95,53.01 225.04,54.76 225.13,54.76 225.21,54.76 225.30,55.97 225.38,52.75 225.47,52.75 225.56,52.75 225.64,53.82 225.73,53.82 225.81,54.68 225.90,54.68 225.99,54.68 226.07,53.76 226.16,53.76 226.24,53.76 226.33,53.76 226.41,53.82 226.50,53.82 226.59,53.82 226.67,53.82 226.76,52.74 226.84,52.74 226.93,53.07 227.02,51.86 227.10,51.86 227.19,51.86 227.27,51.86 227.36,51.65 227.45,49.25 227.53,49.25 227.62,48.82 227.70,48.82 227.79,48.66 227.88,48.66 227.96,50.23 228.05,50.81 228.13,50.81 228.22,50.81 228.30,53.15 228.39,53.15 228.48,53.15 228.56,53.15 228.65,53.70 228.73,53.70 228.82,53.70 228.91,54.12 228.99,54.12 229.08,54.12 229.16,54.47 229.25,54.47 229.34,54.47 229.42,51.96 229.51,52.48 229.59,52.48 229.68,52.48 229.77,52.66 229.85,52.66 229.94,52.66 230.02,52.53 230.11,51.59 230.19,51.59 230.28,51.59 230.37,51.29 230.45,51.29 230.54,51.29 230.62,51.04 230.71,51.04 230.80,51.04 230.88,51.04 230.97,50.47 231.05,50.47 231.14,50.47 231.23,50.47 231.31,50.41 231.40,50.40 231.48,50.40 231.57,50.04 231.66,50.04 231.74,50.27 231.83,49.58 231.91,49.58 232.00,49.58 232.08,49.58 232.17,48.61 232.26,48.61 232.34,48.61 232.43,48.61 232.51,46.79 232.60,46.79 232.69,47.18 232.77,47.18 232.86,47.18 232.94,46.55 233.03,46.55 233.12,46.55 233.20,43.43 233.29,43.43 233.37,44.87 233.46,44.87 233.55,44.87 233.63,44.05 233.72,44.05 233.80,44.05 233.89,42.83 233.97,42.83 234.06,42.83 234.15,43.80 234.23,42.00 234.32,42.00 234.40,42.00 234.49,44.61 234.58,42.99 234.66,42.99 234.75,42.99 234.83,41.72 234.92,41.72 235.01,41.72 235.09,40.65 235.18,43.98 235.26,43.98 235.35,43.80 235.44,43.80 235.52,42.64 235.61,42.64 235.69,42.64 235.78,43.31 235.86,43.31 235.95,45.13 236.04,45.97 236.12,45.97 236.21,45.26 236.29,47.12 236.38,47.12 236.47,47.12 236.55,47.12 236.64,45.19 236.72,45.67 236.81,45.67 236.90,45.67 236.98,45.67 237.07,47.29 237.15,46.22 237.24,46.53 237.33,46.53 237.41,46.53 237.50,46.53 237.58,44.98 237.67,44.34 237.75,44.34 237.84,44.34 237.93,44.51 238.01,42.03 238.10,42.03 238.18,44.07 238.27,44.07 238.36,44.33 238.44,44.33 238.53,44.33 238.61,45.54 238.70,45.54 238.79,42.59 238.87,44.60 238.96,44.60 239.04,44.60 239.13,46.31 239.22,46.31 239.30,44.07 239.39,46.27 239.47,46.27 239.56,46.27 239.64,47.69 239.73,47.16 239.82,47.16 239.90,47.16 239.99,45.91 240.07,44.32 240.16,44.32 240.25,45.20 240.33,45.20 240.42,45.20 240.50,45.99 240.59,45.99 240.68,45.99 240.76,44.09 240.85,44.09 240.93,44.09 241.02,44.09 241.11,41.31 241.19,42.87 241.28,42.87 241.36,42.87 241.45,42.65 241.53,42.65 241.62,43.19 241.71,43.19 241.79,43.19 241.88,42.13 241.96,42.13 242.05,42.13 242.14,41.08 242.22,41.08 242.31,41.07 242.39,41.07 242.48,41.07 242.57,41.84 242.65,41.84 242.74,41.84 242.82,42.69 242.91,42.69 242.99,39.83 243.08,40.30 243.17,40.30 243.25,39.38 243.34,39.38 243.42,39.38 243.51,38.58 243.60,38.58 243.68,38.58 243.77,36.35 243.85,36.35 243.94,37.79 244.03,37.79 244.11,37.79 244.20,37.87 244.28,37.87 244.37,37.87 244.46,37.87 244.54,40.49 244.63,40.49 244.71,40.49 244.80,41.79 244.88,41.79 244.97,40.22 245.06,40.22 245.14,40.22 245.23,39.40 245.31,39.40 245.40,39.40 245.49,37.23 245.57,37.23 245.66,38.84 245.74,37.96 245.83,37.96 245.92,37.96 246.00,37.75 246.09,37.75 246.17,36.95 246.26,36.95 246.35,36.95 246.43,35.89 246.52,35.89 246.60,35.89 246.69,35.53 246.77,35.53 246.86,36.72 246.95,36.72 247.03,36.72 247.12,38.54 247.20,38.54 247.29,35.89 247.38,35.89 247.46,37.88 247.55,37.88 247.63,36.35 247.72,36.35 247.81,38.27 247.89,37.75 247.98,37.75 248.06,37.75 248.15,37.75 248.24,37.55 248.32,37.55 248.41,37.55 248.49,37.64 248.58,37.64 248.66,37.64 248.75,36.81 248.84,36.81 248.92,36.81 249.01,35.76 249.09,35.76 249.18,35.76 249.27,34.39 249.35,34.39 249.44,34.39 249.52,31.29 249.61,31.73 249.70,31.73 249.78,31.73 249.87,32.10 249.95,32.10 250.04,32.43 250.13,32.43 250.21,32.43 250.30,33.17 250.38,33.17 250.47,33.17 250.55,34.91 250.64,34.92 250.73,34.92 250.81,34.92 250.90,35.57 250.98,35.57 251.07,35.57 251.16,36.10 251.24,34.19 251.33,34.19 251.41,34.19 251.50,35.56 251.59,35.56 251.67,35.56 251.76,35.13 251.84,35.13 251.93,35.13 252.02,35.13 252.10,34.59 252.19,34.59 252.27,34.59 252.36,34.59 252.44,34.43 252.53,34.43 252.62,34.43 252.70,34.43 252.79,33.96 252.87,33.96 252.96,33.96 253.05,33.96 253.13,34.83 253.22,34.83 253.30,34.83 253.39,35.12 253.48,33.79 253.56,33.79 253.65,33.79 253.73,34.09 253.82,34.09 253.91,34.09 253.99,34.55 254.08,34.55 254.16,33.39 254.25,33.99 254.33,33.99 254.42,33.99 254.51,34.43 254.59,34.43 254.68,34.43 254.76,34.43 254.85,33.38 254.94,33.38 255.02,33.38 255.11,32.45 255.19,33.46 255.28,33.46 255.37,32.23 255.45,32.23 255.54,32.23 255.62,32.38 255.71,32.38 255.80,32.38 255.88,31.30 255.97,31.30 256.05,31.30 256.14,31.86 256.22,31.86 256.31,31.86 256.40,30.67 256.48,30.67 256.57,30.10 256.65,30.10 256.74,30.10 256.83,31.07 256.91,31.07 257.00,29.28 257.08,31.22 257.17,31.22 257.26,31.22 257.34,29.46 257.43,29.46 257.51,29.46 257.60,28.90 257.69,28.90 257.77,28.90 257.86,28.90 257.94,26.56 258.03,27.19 258.11,27.19 258.20,27.19 258.29,28.25 258.37,28.25 258.46,25.94 258.54,28.16 258.63,28.16 258.72,28.16 258.80,27.27 258.89,29.70 258.97,29.70 259.06,29.88 259.15,29.88 259.23,29.88 259.32,27.92 259.40,27.92 259.49,27.92 259.58,27.13 259.66,27.13 259.75,27.13 259.83,27.13 259.92,26.10 260.00,26.10 260.09,26.10 260.18,27.42 260.26,27.42 260.35,27.42 260.43,27.62 260.52,27.62 260.61,27.62 260.69,27.17 260.78,26.52 260.86,26.52 260.95,25.14 261.04,25.10 261.12,25.10 261.21,25.10 261.29,25.94 261.38,25.03 261.47,25.03 261.55,25.39 261.64,25.39 261.72,25.39 261.81,22.86 261.89,24.32 261.98,24.32 262.07,24.32 262.15,23.32 262.24,25.09 262.32,25.09 262.41,25.09 262.50,23.41 262.58,23.41 262.67,24.84 262.75,22.78 262.84,22.78 262.93,22.78 263.01,24.67 263.10,24.67 263.18,23.28 263.27,23.28 263.36,23.28 263.44,21.02 263.53,21.02 263.61,21.02 263.70,22.67 263.78,22.67 263.87,22.67 263.96,22.81 264.04,22.81 264.13,22.81 264.21,22.81 264.30,23.74 264.39,23.74 264.47,23.74 264.56,22.45 264.64,22.45 264.73,22.45 264.82,24.90 264.90,23.39 264.99,23.39 265.07,23.39 265.16,22.50 265.25,22.50 265.33,22.50 265.42,21.69 265.50,21.69 265.59,21.69 265.67,20.17 265.76,22.66 265.85,22.66 265.93,22.66 266.02,20.42 266.10,22.61 266.19,22.61 266.28,22.61 266.36,20.34 266.45,20.34 266.53,23.51 266.62,22.77 266.71,22.77 266.79,22.77 266.88,22.77 266.96,23.75 267.05,23.75 267.14,23.75 267.22,21.70 267.31,22.42 267.39,22.42 267.48,22.42 267.56,20.36 267.65,21.83 267.74,21.83 267.82,21.39 267.91,21.39 267.99,21.39 268.08,23.40 268.17,23.40 268.25,23.40 268.34,23.80 268.42,23.80 268.51,23.97 268.60,23.97 268.68,24.61 268.77,24.61 268.85,22.91 268.94,22.91 269.03,24.41 269.11,23.19 269.20,23.19 269.28,23.19 269.37,23.19 269.45,21.98 269.54,21.98 269.63,21.98 269.71,23.40 269.80,23.40 269.88,21.16 269.97,20.11 270.06,20.11 270.14,20.11 270.23,20.11 270.31,19.14 270.40,19.14 270.49,19.14 270.57,18.89 270.66,18.89 270.74,19.12 270.83,19.12 270.91,17.53 271.00,17.85 271.09,17.85 271.17,17.85 271.26,17.39 271.34,17.39 271.43,17.39 271.52,17.92 271.60,17.92 271.69,16.49 271.77,17.59 271.86,17.59 271.95,17.59 272.03,16.14 272.12,16.67 272.20,16.67 272.29,16.67 272.38,17.28 272.46,17.28 272.55,16.56 272.63,16.56 272.72,16.56 272.80,17.35 272.89,17.35 272.98,16.19 273.06,16.19 273.15,16.12 273.23,16.12 273.32,14.96 273.41,14.96 273.49,13.83 273.58,13.83 273.66,13.83 273.75,12.35 273.84,12.35 273.92,12.35 274.01,12.19 274.09,12.19 274.18,12.19 274.27,14.26 274.35,14.26 274.44,14.26 274.52,13.35 274.61,13.47 274.69,13.47 274.78,13.47 274.87,11.76 274.95,11.76 275.04,11.76 275.12,9.63 275.21,9.63 275.30,9.63 275.38,9.63 275.47,9.76 275.55,9.76 275.64,9.76 275.73,9.76 275.81,11.70 275.90,11.70 275.98,9.89 276.07,9.89 276.16,10.41 276.24,9.80 276.33,9.80 276.41,9.80 276.50,7.99 276.58,7.99 276.67,7.99 276.76,8.36 276.84,8.36 276.93,8.36 277.01,7.05 277.10,7.05 277.19,9.27 277.27,9.27 277.36,9.27 277.44,10.26 277.53,10.34 277.62,10.34 277.70,11.64 277.79,11.64 277.87,9.89 277.96,9.89 278.05,9.89 278.13,8.68 278.22,9.93 278.30,9.93 278.39,8.51 278.47,8.51 278.56,8.51 278.65,8.51 278.73,7.63 278.82,7.63 278.90,7.63 278.99,8.79 279.08,8.79 279.16,8.79 279.25,7.50 279.33,7.50 279.42,8.65 279.51,8.65 279.59,7.57 279.68,7.57 279.76,6.11 279.85,6.11 279.94,5.87 280.02,4.00 280.11,4.00 280.19,4.00 280.28,5.74 280.36,5.74 280.45,5.74 280.54,6.17 280.62,6.17 280.71,4.82 280.79,4.82 280.88,5.08 280.97,5.08 281.05,5.08 281.14,6.20 281.22,6.20 281.31,4.43 281.40,6.16 281.48,6.16 281.57,6.16 281.65,8.46 281.74,8.46 281.83,6.34 281.91,6.34 282.00,8.53 282.08,6.18 282.17,6.18 282.25,5.99 282.34,5.99 282.43,5.99 282.51,5.99 282.60,4.77 282.68,4.77 282.77,4.77 282.86,6.18 282.94,6.18 283.03,6.18 283.11,6.18 283.20,7.06 283.29,7.06 283.37,7.06 283.46,7.27 283.54,7.27 283.63,8.17 283.72,8.17 283.80,8.17 283.89,9.58 283.97,9.58 284.06,10.83 284.14,10.83 284.23,10.83 284.32,10.12 284.40,10.36 284.49,10.36 284.57,10.36 284.66,10.36 284.75,10.16 284.83,10.16 284.92,11.45 285.00,11.45 285.09,11.45 285.18,10.94 285.26,10.94 285.35,10.94 285.43,11.63 285.52,11.63 285.61,12.40 285.69,12.40 285.78,12.40 285.86,13.04 285.95,13.04 286.03,13.04 286.12,12.72 286.21,12.72 286.29,13.49 286.38,13.49 286.46,13.49 286.55,14.26 286.64,14.26 286.72,14.26 286.81,14.90 286.89,12.86 286.98,12.86 287.07,14.53 287.15,14.53 287.24,14.53 287.32,14.08 287.41,14.08 287.50,14.08 287.58,14.08 287.67,15.87 287.75,13.23 287.84,13.23 287.92,14.29 288.01,14.29 288.10,15.11 288.18,15.11 288.27,15.11 288.35,15.92 288.44,15.92 288.53,16.18 288.61,16.18 288.70,16.18 288.78,16.29 288.87,16.29 288.96,16.29 289.04,15.31 289.13,15.31 289.21,15.31 289.30,17.95 289.39,16.13 289.47,16.13 289.56,16.13 289.64,16.13 289.73,16.71 289.81,16.71 289.90,16.71 289.99,16.99 290.07,16.99 290.16,14.51 290.24,14.51 290.33,16.41 290.42,16.41 290.50,14.01 290.59,14.01 290.67,15.58 290.76,13.52 290.85,13.52 290.93,13.52 291.02,15.12 291.10,15.12 291.19,15.12 291.28,15.12 291.36,15.47 291.45,15.47 291.53,15.47 291.62,15.31 291.70,15.31 291.79,15.31 291.88,13.93 291.96,17.60 292.05,17.02 292.13,13.41 292.22,13.41 292.31,13.71 292.39,13.71 292.48,13.71 292.56,13.71 292.65,12.54 292.74,12.54 292.82,12.54 292.91,14.07 292.99,11.76 293.08,11.76 293.17,11.76 293.25,13.96 293.34,12.84 293.42,12.84 293.51,12.84 293.59,12.84 293.68,10.47 293.77,12.10 293.85,12.10 293.94,12.10 294.02,9.84 294.11,11.43 294.20,11.43 294.28,11.43 294.37,11.19 294.45,11.19 294.54,11.19 294.63,11.19 294.71,10.69 294.80,10.69 294.88,10.69 294.97,10.69 295.06,12.08 295.14,9.52 295.23,9.52 295.31,11.58 295.40,11.58 295.48,9.04 295.57,9.04 295.66,11.41 295.74,11.41 295.83,10.01 295.91,10.01 296.00,10.45" />
</svg>