<svg width="300" height="60" xmlns="http://www.w3.org/2000/svg">
  <polyline fill="rgba(255,200,0,0.3)" stroke="#ffbb00" stroke-width="2" points="4.00,55.88 4.83,53.21 5.66,52.01 6.50,51.51 7.33,51.37 8.16,50.26 8.99,49.07 9.82,48.05 10.66,47.25 11.49,46.73 12.32,45.73 13.15,44.62 13.98,43.63 14.81,43.67 15.65,43.20 16.48,42.50 17.31,42.12 18.14,41.96 18.97,41.37 19.81,40.41 20.64,37.29 21.47,34.47 22.30,32.90 23.13,32.04 23.97,31.51 24.80,30.88 25.63,30.11 26.46,30.36 27.29,30.70 28.13,32.29 28.96,33.49 29.79,34.20 30.62,33.71 31.45,34.06 32.28,33.70 33.12,32.25 33.95,31.37 34.78,29.13 35.61,27.17 36.44,25.49 37.28,24.02 38.11,24.15 38.94,25.99 39.77,26.02 40.60,25.75 41.44,26.10 42.27,26.13 43.10,27.46 43.93,26.71 44.76,25.83 45.60,25.24 46.43,24.33 47.26,23.94 48.09,23.80 48.92,22.59 49.75,22.22 50.59,21.50 51.42,22.25 52.25,22.26 53.08,21.76 53.91,21.38 54.75,19.56 55.58,17.66 56.41,17.84 57.24,16.72 58.07,15.10 58.91,13.38 59.74,11.58 60.57,9.41 61.40,4.40 62.23,55.86 63.07,53.42 63.90,52.01 64.73,51.58 65.56,4.40 66.39,51.58 67.23,51.37 68.06,50.33 68.89,49.03 69.72,48.01 70.55,47.25 71.38,46.67 72.22,45.75 73.05,44.63 73.88,43.90 74.71,43.77 75.54,43.19 76.38,42.49 77.21,42.14 78.04,42.29 78.87,41.28 79.70,40.40 80.54,37.52 81.37,34.67 82.20,32.97 83.03,32.17 83.86,31.52 84.70,30.99 85.53,30.09 86.36,30.29 87.19,30.80 88.02,32.09 88.85,33.53 89.69,34.16 90.52,33.73 91.35,34.00 92.18,33.67 93.01,32.16 93.85,31.39 94.68,29.00 95.51,27.21 96.34,25.43 97.17,24.00 98.01,24.15 98.84,25.99 99.67,25.96 100.50,25.64 101.33,26.11 102.17,26.02 103.00,27.58 103.83,26.63 104.66,25.94 105.49,25.20 106.32,24.18 107.16,23.96 107.99,23.85 108.82,22.58 109.65,22.25 110.48,21.55 111.32,22.26 112.15,22.26 112.98,20.96 113.81,21.27 114.64,19.35 115.48,17.99 116.31,17.99 117.14,16.73 117.97,14.87 118.80,13.61 119.64,11.51 120.47,9.29 121.30,4.26 122.13,56.00 122.96,52.44 123.79,51.68 124.63,51.59 125.46,51.21 126.29,50.37 127.12,48.92 127.95,48.08 128.79,47.39 129.62,46.69 130.45,44.82 131.28,44.59 132.11,43.99 132.95,43.78 133.78,43.37 134.61,42.47 135.44,42.05 136.27,41.95 137.11,41.30 137.94,40.37 138.77,37.00 139.60,34.43 140.43,33.04 141.26,31.48 142.10,31.38 142.93,30.68 143.76,30.47 144.59,30.47 145.42,30.75 146.26,32.58 147.09,33.06 147.92,34.12 148.75,33.80 149.58,33.78 150.42,33.70 151.25,32.18 152.08,31.49 152.91,28.52 153.74,27.35 154.58,25.12 155.41,24.16 156.24,24.71 157.07,26.09 157.90,26.23 158.74,25.97 159.57,26.13 160.40,26.03 161.23,26.82 162.06,27.09 162.89,26.07 163.73,25.40 164.56,24.05 165.39,24.36 166.22,23.38 167.05,22.75 167.89,21.77 168.72,22.02 169.55,21.90 170.38,22.73 171.21,21.47 172.05,21.19 172.88,20.04 173.71,17.91 174.54,17.64 175.37,16.06 176.21,14.73 177.04,13.15 177.87,10.74 178.70,9.15 179.53,4.57 180.36,55.99 181.20,55.08 182.03,51.60 182.86,51.33 183.69,51.10 184.52,50.45 185.36,49.81 186.19,48.19 187.02,47.87 187.85,46.54 188.68,44.84 189.52,43.32 190.35,44.27 191.18,43.65 192.01,41.69 192.84,41.30 193.68,42.82 194.51,41.90 195.34,41.74 196.17,41.01 197.00,37.30 197.83,35.02 198.67,33.65 199.50,32.94 200.33,32.75 201.16,30.13 201.99,30.52 202.83,29.55 203.66,30.88 204.49,31.31 205.32,33.31 206.15,32.58 206.99,33.69 207.82,32.77 208.65,33.85 209.48,31.73 210.31,31.48 211.15,28.30 211.98,27.97 212.81,24.45 213.64,24.51 214.47,26.24 215.30,25.62 216.14,26.49 216.97,26.97 217.80,25.45 218.63,25.66 219.46,25.77 220.30,26.16 221.13,26.51 221.96,26.72 222.79,24.62 223.62,25.50 224.46,23.60 225.29,24.64 226.12,22.79 226.95,23.91 227.78,22.54 228.62,24.14 229.45,22.14 230.28,19.68 231.11,20.56 231.94,17.71 232.77,18.62 233.61,16.13 234.44,13.59 235.27,14.54 236.10,12.57 236.93,9.44 237.77,4.00 238.60,55.81 239.43,55.81 240.26,55.81 241.09,52.98 241.93,52.98 242.76,51.92 243.59,51.92 244.42,51.92 245.25,52.40 246.09,46.77 246.92,46.77 247.75,46.77 248.58,48.08 249.41,42.48 250.25,42.48 251.08,42.48 251.91,44.98 252.74,40.44 253.57,40.44 254.40,40.52 255.24,40.52 256.07,35.84 256.90,35.84 257.73,35.84 258.56,33.26 259.40,33.26 260.23,33.26 261.06,34.42 261.89,34.42 262.72,28.49 263.56,32.89 264.39,32.89 265.22,32.89 266.05,36.97 266.88,36.97 267.72,30.52 268.55,31.31 269.38,31.31 270.21,31.31 271.04,31.17 271.87,31.17 272.71,31.42 273.54,23.79 274.37,23.79 275.20,26.74 276.03,26.74 276.87,26.74 277.70,28.24 278.53,28.24 279.36,28.62 280.19,28.62 281.03,28.62 281.86,29.11 282.69,22.60 283.52,22.60 284.35,25.05 285.19,25.05 286.02,25.05 286.85,25.60 287.68,20.25 288.51,20.25 289.34,21.58 290.18,21.58 291.01,21.58 291.84,13.76 292.67,16.06 293.50,16.06 294.34,16.06 295.17,6.89 296.00,10.16" />
</svg>