<svg width="300" height="60" xmlns="http://www.w3.org/2000/svg">
  <polyline fill="rgba(255,200,0,0.3)" stroke="#ffbb00" stroke-width="2" points="4.00,5.25 4.40,5.26 4.80,5.78 5.20,6.94 5.60,8.67 6.00,10.18 6.40,11.87 6.80,13.54 7.20,14.40 7.60,15.63 7.99,16.84 8.39,17.47 8.79,18.25 9.19,18.71 9.59,19.17 9.99,20.16 10.39,20.07 10.79,17.93 11.19,15.68 11.59,11.84 11.99,8.19 12.39,5.31 12.79,4.00 13.19,4.48 13.59,5.87 13.99,7.65 14.39,10.21 14.79,12.90 15.18,15.54 15.58,18.29 15.98,21.16 16.38,24.22 16.78,27.93 17.18,28.42 17.58,29.01 17.98,30.16 18.38,31.61 18.78,33.29 19.18,34.61 19.58,35.77 19.98,35.10 20.38,33.26 20.78,31.28 21.18,31.26 21.58,31.29 21.98,25.59 22.37,21.97 22.77,20.09 23.17,20.21 23.57,22.84 23.97,23.97 24.37,21.07 24.77,19.59 25.17,19.74 25.57,20.99 25.97,22.32 26.37,23.45 26.77,25.36 27.17,28.23 27.57,29.05 27.97,30.46 28.37,31.56 28.77,32.51 29.17,33.78 29.56,35.33 29.96,36.87 30.36,38.42 30.76,40.18 31.16,42.08 31.56,44.22 31.96,23.15 32.36,20.82 32.76,18.79 33.16,16.72 33.56,15.61 33.96,14.65 34.36,14.11 34.76,12.72 35.16,12.15 35.56,12.31 35.96,13.11 36.36,13.45 36.76,14.57 37.15,13.10 37.55,12.58 37.95,11.99 38.35,11.77 38.75,11.50 39.15,11.17 39.55,10.25 39.95,9.84 40.35,9.39 40.75,9.84 41.15,10.23 41.55,10.53 41.95,10.91 42.35,11.28 42.75,11.84 43.15,12.82 43.55,14.33 43.95,16.36 44.34,18.48 44.74,20.83 45.14,23.30 45.54,24.10 45.94,24.62 46.34,25.77 46.74,27.49 47.14,28.38 47.54,25.81 47.94,23.23 48.34,21.41 48.74,20.60 49.14,20.54 49.54,20.72 49.94,21.07 50.34,19.28 50.74,16.98 51.14,13.95 51.53,10.56 51.93,8.19 52.33,6.87 52.73,7.61 53.13,9.67 53.53,11.80 53.93,10.60 54.33,8.68 54.73,7.13 55.13,6.12 55.53,5.24 55.93,38.41 56.33,40.18 56.73,42.08 57.13,44.22 57.53,46.33 57.93,48.19 58.33,50.59 58.73,52.95 59.12,55.59 59.52,15.57 59.92,18.33 60.32,18.80 60.72,20.60 61.12,22.16 61.52,23.62 61.92,26.08 62.32,29.02 62.72,30.24 63.12,31.44 63.52,31.10 63.92,28.15 64.32,25.45 64.72,23.09 65.12,20.77 65.52,18.76 65.92,16.85 66.31,15.59 66.71,14.77 67.11,14.11 67.51,12.77 67.91,12.16 68.31,12.45 68.71,13.09 69.11,13.47 69.51,14.58 69.91,13.18 70.31,12.61 70.71,12.02 71.11,11.77 71.51,11.51 71.91,11.21 72.31,10.35 72.71,9.85 73.11,9.60 73.50,10.04 73.90,10.27 74.30,10.55 74.70,10.95 75.10,11.33 75.50,11.91 75.90,12.86 76.30,14.35 76.70,16.45 77.10,18.55 77.50,20.91 77.90,23.39 78.30,24.16 78.70,24.71 79.10,25.77 79.50,27.55 79.90,28.38 80.30,25.84 80.69,23.26 81.09,21.49 81.49,20.65 81.89,20.59 82.29,20.84 82.69,21.10 83.09,19.33 83.49,16.97 83.89,13.98 84.29,10.67 84.69,8.33 85.09,6.99 85.49,7.74 85.89,9.79 86.29,11.84 86.69,10.54 87.09,8.84 87.49,7.25 87.89,6.20 88.28,5.36 88.68,38.47 89.08,40.22 89.48,42.09 89.88,44.16 90.28,46.23 90.68,48.23 91.08,50.57 91.48,52.94 91.88,56.00 92.28,5.36 92.68,5.37 93.08,5.93 93.48,6.99 93.88,8.71 94.28,10.28 94.68,11.93 95.08,13.60 95.47,14.43 95.87,15.72 96.27,16.90 96.67,17.58 97.07,18.31 97.47,18.82 97.87,19.26 98.27,20.22 98.67,20.11 99.07,18.08 99.47,15.73 99.87,11.96 100.27,8.26 100.67,5.28 101.07,4.15 101.47,4.48 101.87,5.82 102.27,7.65 102.66,10.18 103.06,12.88 103.46,15.54 103.86,18.24 104.26,21.19 104.66,24.21 105.06,27.89 105.46,28.45 105.86,29.12 106.26,30.19 106.66,31.66 107.06,33.25 107.46,34.65 107.86,35.84 108.26,35.17 108.66,33.36 109.06,31.40 109.46,31.37 109.85,31.39 110.25,25.67 110.65,22.00 111.05,20.13 111.45,20.21 111.85,22.84 112.25,24.11 112.65,21.15 113.05,19.62 113.45,19.86 113.85,21.06 114.25,22.38 114.65,23.47 115.05,25.39 115.45,28.26 115.85,29.10 116.25,30.54 116.65,31.58 117.05,32.59 117.44,33.88 117.84,35.34 118.24,36.88 118.64,38.49 119.04,40.22 119.44,42.09 119.84,44.16 120.24,14.77 120.64,17.93 121.04,18.71 121.44,20.19 121.84,21.90 122.24,23.93 122.64,26.23 123.04,28.81 123.44,30.14 123.84,31.45 124.24,30.74 124.63,28.64 125.03,25.60 125.43,22.86 125.83,20.94 126.23,18.59 126.63,16.94 127.03,15.58 127.43,14.57 127.83,13.68 128.23,12.93 128.63,12.20 129.03,12.42 129.43,12.22 129.83,13.30 130.23,14.10 130.63,12.64 131.03,12.62 131.43,11.96 131.82,11.96 132.22,10.96 132.62,10.78 133.02,9.51 133.42,9.51 133.82,9.46 134.22,9.64 134.62,9.92 135.02,10.69 135.42,10.55 135.82,10.81 136.22,11.87 136.62,12.96 137.02,13.91 137.42,15.55 137.82,17.75 138.22,20.21 138.62,22.62 139.02,23.56 139.41,24.64 139.81,25.32 140.21,27.14 140.61,27.93 141.01,26.36 141.41,22.91 141.81,21.58 142.21,19.95 142.61,20.12 143.01,19.86 143.41,20.75 143.81,18.99 144.21,16.75 144.61,13.49 145.01,10.66 145.41,8.53 145.81,6.56 146.21,7.27 146.60,9.49 147.00,11.38 147.40,11.43 147.80,8.43 148.20,7.43 148.60,6.00 149.00,5.66 149.40,5.13 149.80,5.83 150.20,7.02 150.60,8.74 151.00,10.09 151.40,12.06 151.80,13.51 152.20,14.67 152.60,15.48 153.00,16.76 153.40,17.89 153.79,18.48 154.19,18.36 154.59,19.45 154.99,20.34 155.39,20.07 155.79,17.85 156.19,15.10 156.59,12.91 156.99,8.35 157.39,5.37 157.79,4.11 158.19,4.43 158.59,5.64 158.99,7.30 159.39,9.87 159.79,12.95 160.19,15.42 160.59,18.26 160.98,21.25 161.38,24.25 161.78,27.88 162.18,28.00 162.58,29.20 162.98,30.08 163.38,31.85 163.78,32.93 164.18,34.77 164.58,35.62 164.98,35.12 165.38,33.20 165.78,31.68 166.18,31.07 166.58,30.82 166.98,25.58 167.38,21.74 167.78,19.96 168.18,20.02 168.57,23.60 168.97,23.75 169.37,20.74 169.77,19.38 170.17,20.01 170.57,20.76 170.97,22.36 171.37,23.50 171.77,25.59 172.17,28.88 172.57,29.44 172.97,30.74 173.37,31.63 173.77,32.46 174.17,33.98 174.57,35.34 174.97,36.73 175.37,38.63 175.76,40.37 176.16,41.88 176.56,44.29 176.96,46.46 177.36,48.82 177.76,50.48 178.16,52.95 178.56,55.56 178.96,14.56 179.36,18.16 179.76,18.92 180.16,19.48 180.56,22.02 180.96,23.86 181.36,26.68 181.76,28.07 182.16,29.42 182.56,31.43 182.95,30.96 183.35,28.17 183.75,25.82 184.15,22.47 184.55,21.69 184.95,19.63 185.35,17.21 185.75,15.60 186.15,14.40 186.55,13.27 186.95,13.64 187.35,12.08 187.75,11.45 188.15,12.81 188.55,13.06 188.95,14.30 189.35,14.37 189.75,14.07 190.15,11.92 190.54,12.50 190.94,10.71 191.34,11.37 191.74,9.50 192.14,10.59 192.54,9.77 192.94,11.27 193.34,10.65 193.74,12.05 194.14,11.50 194.54,11.07 194.94,12.78 195.34,13.33 195.74,13.33 196.14,14.75 196.54,17.16 196.94,19.30 197.34,22.00 197.73,23.83 198.13,24.55 198.53,26.57 198.93,28.30 199.33,27.54 199.73,25.47 200.13,22.56 200.53,22.56 200.93,21.32 201.33,19.88 201.73,20.91 202.13,19.77 202.53,18.24 202.93,17.87 203.33,13.68 203.73,12.04 204.13,8.14 204.53,7.93 204.92,8.61 205.32,10.10 205.72,12.31 206.12,11.15 206.52,9.84 206.92,8.84 207.32,5.34 207.72,5.10 208.12,5.44 208.52,6.02 208.92,6.75 209.32,9.45 209.72,10.18 210.12,12.67 210.52,13.50 210.92,14.42 211.32,15.12 211.72,17.31 212.11,17.41 212.51,17.83 212.91,18.54 213.31,19.53 213.71,20.31 214.11,20.15 214.51,18.02 214.91,16.45 215.31,13.08 215.71,8.62 216.11,5.66 216.51,4.03 216.91,4.65 217.31,5.34 217.71,7.61 218.11,9.70 218.51,13.10 218.91,15.68 219.31,19.26 219.70,22.16 220.10,25.27 220.50,27.91 220.90,26.48 221.30,27.61 221.70,29.12 222.10,31.15 222.50,32.41 222.90,34.08 223.30,36.27 223.70,34.86 224.10,31.60 224.50,31.95 224.90,30.36 225.30,27.92 225.70,25.04 226.10,22.36 226.50,19.00 226.89,20.24 227.29,22.38 227.69,21.67 228.09,20.42 228.49,19.99 228.89,19.99 229.29,19.08 229.69,20.73 230.09,22.52 230.49,24.62 230.89,27.16 231.29,27.66 231.69,29.35 232.09,30.86 232.49,32.34 232.89,33.81 233.29,35.29 233.69,36.78 234.08,38.64 234.48,40.35 234.88,42.09 235.28,44.91 235.68,46.69 236.08,49.75 236.48,49.75 236.88,51.83 237.28,54.23 237.68,13.74 238.08,13.74 238.48,17.12 238.88,17.12 239.28,17.12 239.68,20.81 240.08,25.02 240.48,25.02 240.88,25.02 241.27,28.30 241.67,28.30 242.07,30.96 242.47,25.81 242.87,25.81 243.27,25.81 243.67,25.81 244.07,17.58 244.47,17.58 244.87,17.58 245.27,12.84 245.67,13.77 246.07,13.77 246.47,13.77 246.87,13.77 247.27,12.61 247.67,12.61 248.07,12.61 248.47,14.23 248.86,14.23 249.26,14.80 249.66,14.80 250.06,14.80 250.46,9.66 250.86,9.66 251.26,9.66 251.66,13.44 252.06,13.44 252.46,13.44 252.86,11.45 253.26,11.45 253.66,11.45 254.06,16.15 254.46,16.15 254.86,12.63 255.26,12.63 255.66,19.80 256.05,19.80 256.45,19.80 256.85,24.81 257.25,24.81 257.65,24.81 258.05,24.81 258.45,25.06 258.85,25.06 259.25,25.06 259.65,25.06 260.05,18.45 260.45,22.05 260.85,22.05 261.25,16.74 261.65,16.74 262.05,16.20 262.45,16.20 262.85,16.20 263.24,14.14 263.64,14.14 264.04,14.14 264.44,16.46 264.84,16.46 265.24,15.28 265.64,15.28 266.04,6.82 266.44,5.30 266.84,5.30 267.24,6.28 267.64,6.28 268.04,13.58 268.44,14.11 268.84,14.11 269.24,14.11 269.64,16.03 270.04,16.03 270.44,16.03 270.83,13.31 271.23,13.31 271.63,13.31 272.03,14.20 272.43,14.20 272.83,14.20 273.23,15.25 273.63,15.25 274.03,15.25 274.43,9.01 274.83,9.01 275.23,9.01 275.63,5.34 276.03,5.34 276.43,5.34 276.83,5.34 277.23,13.21 277.63,13.21 278.02,13.21 278.42,21.31 278.82,21.31 279.22,21.31 279.62,21.31 280.02,27.50 280.42,27.50 280.82,27.50 281.22,29.69 281.62,29.69 282.02,29.69 282.42,34.36 282.82,24.71 283.22,24.71 283.62,24.71 284.02,25.95 284.42,25.95 284.82,16.36 285.21,16.36 285.61,19.21 286.01,19.21 286.41,11.84 286.81,15.73 287.21,15.73 287.61,15.73 288.01,15.73 288.41,19.03 288.81,19.03 289.21,19.03 289.61,25.45 290.01,25.45 290.41,25.45 290.81,31.34 291.21,31.34 291.61,31.34 292.01,35.82 292.40,35.82 292.80,37.76 293.20,42.72 293.60,42.72 294.00,42.72 294.40,48.64 294.80,48.64 295.20,48.64 295.60,48.64 296.00,54.55" />
</svg>