<svg width="300" height="60" xmlns="http://www.w3.org/2000/svg">
  <polyline fill="rgba(255,200,0,0.3)" stroke="#ffbb00" stroke-width="2" points="4.00,55.96 4.86,55.57 5.72,54.32 6.58,53.31 7.45,52.00 8.31,50.83 9.17,49.64 10.03,48.63 10.89,47.21 11.75,45.78 12.61,44.52 13.47,43.67 14.34,43.55 15.20,43.88 16.06,43.85 16.92,43.67 17.78,43.25 18.64,43.15 19.50,41.90 20.37,40.40 21.23,39.11 22.09,37.57 22.95,36.29 23.81,35.34 24.67,34.88 25.53,35.10 26.40,35.85 27.26,37.20 28.12,37.81 28.98,36.92 29.84,35.34 30.70,34.11 31.56,34.39 32.42,34.75 33.29,35.63 34.15,37.09 35.01,37.85 35.87,38.85 36.73,38.63 37.59,38.59 38.45,39.07 39.32,39.05 40.18,40.69 41.04,39.52 41.90,37.11 42.76,34.76 43.62,33.70 44.48,34.60 45.35,36.37 46.21,36.81 47.07,36.57 47.93,35.36 48.79,33.67 49.65,32.45 50.51,31.69 51.37,29.48 52.24,27.16 53.10,24.52 53.96,21.93 54.82,19.25 55.68,17.03 56.54,14.81 57.40,12.98 58.27,11.15 59.13,10.03 59.99,8.57 60.85,7.11 61.71,6.86 62.57,7.24 63.43,9.18 64.29,11.20 65.16,14.30 66.02,18.08 66.88,22.58 67.74,27.18 68.60,28.92 69.46,28.30 70.32,25.56 71.19,23.35 72.05,21.51 72.91,19.44 73.77,17.16 74.63,14.94 75.49,12.83 76.35,9.91 77.22,56.00 78.08,55.50 78.94,54.34 79.80,53.29 80.66,51.99 81.52,50.93 82.38,49.52 83.24,48.54 84.11,47.30 84.97,45.68 85.83,44.55 86.69,43.86 87.55,43.71 88.41,43.75 89.27,43.85 90.14,43.67 91.00,42.76 91.86,43.45 92.72,42.40 93.58,40.72 94.44,39.23 95.30,37.50 96.17,35.95 97.03,35.54 97.89,34.64 98.75,34.84 99.61,35.44 100.47,36.74 101.33,38.00 102.19,36.93 103.06,35.47 103.92,34.18 104.78,34.33 105.64,34.68 106.50,35.42 107.36,36.57 108.22,38.10 109.09,38.74 109.95,38.66 110.81,38.43 111.67,38.96 112.53,39.48 113.39,40.79 114.25,39.71 115.12,37.24 115.98,34.69 116.84,33.71 117.70,34.94 118.56,36.31 119.42,36.62 120.28,36.49 121.14,35.43 122.01,33.45 122.87,32.74 123.73,31.45 124.59,29.07 125.45,27.08 126.31,23.94 127.17,22.03 128.04,19.17 128.90,16.78 129.76,14.59 130.62,12.36 131.48,10.81 132.34,10.16 133.20,8.13 134.06,7.19 134.93,6.43 135.79,7.84 136.65,9.49 137.51,10.69 138.37,14.07 139.23,18.12 140.09,22.76 140.96,27.52 141.82,28.94 142.68,28.43 143.54,25.53 144.40,23.31 145.26,21.14 146.12,19.06 146.99,16.86 147.85,14.61 148.71,12.77 149.57,9.85 150.43,55.82 151.29,55.01 152.15,54.89 153.01,53.82 153.88,51.61 154.74,50.48 155.60,49.36 156.46,48.33 157.32,47.21 158.18,45.78 159.04,45.48 159.91,42.98 160.77,43.93 161.63,43.35 162.49,44.03 163.35,42.71 164.21,42.94 165.07,42.94 165.94,43.26 166.80,41.28 167.66,39.42 168.52,36.72 169.38,35.87 170.24,35.41 171.10,35.21 171.96,35.24 172.83,36.33 173.69,37.31 174.55,37.68 175.41,36.87 176.27,35.34 177.13,33.95 177.99,34.74 178.86,34.38 179.72,34.33 180.58,37.05 181.44,37.22 182.30,38.75 183.16,38.39 184.02,38.73 184.88,38.63 185.75,39.46 186.61,39.70 187.47,39.43 188.33,37.74 189.19,34.79 190.05,34.02 190.91,34.86 191.78,36.63 192.64,36.48 193.50,36.55 194.36,35.19 195.22,33.13 196.08,33.42 196.94,32.67 197.81,29.05 198.67,27.00 199.53,24.77 200.39,22.37 201.25,19.88 202.11,17.46 202.97,14.77 203.83,12.90 204.70,11.06 205.56,9.33 206.42,7.76 207.28,8.59 208.14,7.16 209.00,9.06 209.86,8.16 210.73,10.31 211.59,13.95 212.45,17.91 213.31,22.14 214.17,26.74 215.03,29.13 215.89,29.28 216.76,26.10 217.62,23.17 218.48,20.67 219.34,18.79 220.20,16.52 221.06,14.38 221.92,12.53 222.78,9.41 223.65,55.63 224.51,55.63 225.37,55.63 226.23,52.85 227.09,52.85 227.95,49.37 228.81,49.37 229.68,49.37 230.54,45.45 231.40,45.45 232.26,45.45 233.12,41.56 233.98,45.62 234.84,43.16 235.71,43.16 236.57,43.16 237.43,39.81 238.29,39.81 239.15,44.30 240.01,44.30 240.87,39.63 241.73,39.63 242.60,36.16 243.46,36.16 244.32,36.16 245.18,35.40 246.04,35.40 246.90,36.80 247.76,36.80 248.63,36.80 249.49,35.26 250.35,35.26 251.21,32.27 252.07,32.27 252.93,32.27 253.79,31.86 254.65,31.86 255.52,38.63 256.38,38.18 257.24,38.18 258.10,38.18 258.96,37.17 259.82,37.17 260.68,39.98 261.55,37.38 262.41,37.38 263.27,37.38 264.13,34.59 264.99,36.33 265.85,36.33 266.71,36.33 267.58,33.94 268.44,33.94 269.30,35.53 270.16,35.53 271.02,29.99 271.88,29.99 272.74,23.58 273.60,23.58 274.47,23.58 275.33,16.44 276.19,16.44 277.05,9.75 277.91,9.75 278.77,9.75 279.63,4.00 280.50,10.34 281.36,10.34 282.22,6.33 283.08,6.33 283.94,6.33 284.80,16.07 285.66,16.07 286.53,16.07 287.39,25.21 288.25,25.21 289.11,25.21 289.97,28.62 290.83,28.62 291.69,20.98 292.55,20.98 293.42,20.98 294.28,13.48 295.14,14.63 296.00,9.20" />
</svg>