<svg width="300" height="60" xmlns="http://www.w3.org/2000/svg">
  <polyline fill="rgba(255,200,0,0.3)" stroke="#ffbb00" stroke-width="2" points="4.00,49.35 5.74,48.33 7.48,47.39 9.21,45.73 10.95,43.64 12.69,42.81 14.43,44.10 16.17,42.68 17.90,41.71 19.64,38.11 21.38,35.09 23.12,34.10 24.86,31.73 26.60,31.54 28.33,30.19 30.07,28.91 31.81,27.75 33.55,27.10 35.29,26.16 37.02,25.06 38.76,25.76 40.50,25.84 42.24,27.17 43.98,26.54 45.71,25.85 47.45,24.30 49.19,22.46 50.93,19.40 52.67,17.08 54.40,13.70 56.14,50.00 57.88,49.32 59.62,48.33 61.36,17.09 63.10,13.71 64.83,10.63 66.57,4.06 68.31,49.44 70.05,49.60 71.79,48.36 73.52,47.65 75.26,46.57 77.00,43.99 78.74,42.83 80.48,43.89 82.21,43.06 83.95,41.98 85.69,37.96 87.43,34.30 89.17,34.09 90.90,31.75 92.64,31.30 94.38,30.28 96.12,29.10 97.86,27.67 99.60,27.08 101.33,26.15 103.07,25.09 104.81,25.54 106.55,25.63 108.29,26.88 110.02,26.48 111.76,26.14 113.50,24.40 115.24,22.72 116.98,19.53 118.71,16.89 120.45,13.78 122.19,10.44 123.93,4.37 125.67,48.44 127.40,50.35 129.14,47.30 130.88,47.17 132.62,46.56 134.36,43.78 136.10,42.05 137.83,43.65 139.57,42.58 141.31,41.81 143.05,38.69 144.79,36.44 146.52,34.32 148.26,31.63 150.00,31.67 151.74,30.33 153.48,28.61 155.21,27.66 156.95,27.05 158.69,26.20 160.43,25.07 162.17,25.22 163.90,25.81 165.64,27.46 167.38,26.27 169.12,25.75 170.86,23.81 172.60,22.90 174.33,19.13 176.07,17.06 177.81,14.00 179.55,11.15 181.29,4.00 183.02,47.68 184.76,51.10 186.50,45.56 188.24,49.07 189.98,43.35 191.71,46.64 193.45,39.06 195.19,44.61 196.93,41.80 198.67,44.53 200.40,37.68 202.14,33.70 203.88,33.70 205.62,33.18 207.36,34.00 209.10,31.84 210.83,28.16 212.57,28.07 214.31,28.46 216.05,27.12 217.79,25.08 219.52,25.30 221.26,27.84 223.00,27.01 224.74,26.79 226.48,26.44 228.21,26.31 229.95,22.02 231.69,22.20 233.43,17.95 235.17,13.49 236.90,13.93 238.64,5.48 240.38,45.58 242.12,45.58 243.86,45.58 245.60,56.00 247.33,32.48 249.07,32.48 250.81,32.48 252.55,44.35 254.29,44.35 256.02,44.35 257.76,34.86 259.50,34.86 261.24,34.86 262.98,34.86 264.71,38.07 266.45,38.07 268.19,29.15 269.93,29.15 271.67,29.15 273.40,34.60 275.14,34.60 276.88,28.93 278.62,28.93 280.36,28.93 282.10,28.93 283.83,27.11 285.57,27.11 287.31,27.11 289.05,27.95 290.79,27.95 292.52,13.61 294.26,13.61 296.00,15.00" />
</svg>