<svg width="300" height="60" xmlns="http://www.w3.org/2000/svg">
  <polyline fill="rgba(255,200,0,0.3)" stroke="#ffbb00" stroke-width="2" points="4.00,55.86 4.23,55.54 4.46,55.42 4.69,55.07 4.92,54.62 5.15,54.45 5.38,53.96 5.61,53.67 5.84,53.49 6.07,53.32 6.30,53.16 6.53,53.00 6.76,52.79 6.99,52.59 7.22,52.52 7.45,52.41 7.68,52.20 7.91,52.11 8.14,51.96 8.37,51.87 8.59,51.79 8.82,51.66 9.05,51.47 9.28,51.37 9.51,51.29 9.74,51.33 9.97,51.32 10.20,51.17 10.43,50.95 10.66,50.75 10.89,50.50 11.12,50.18 11.35,49.87 11.58,49.38 11.81,49.02 12.04,48.59 12.27,48.15 12.50,48.03 12.73,47.53 12.96,47.31 13.19,47.11 13.42,46.81 13.65,46.50 13.88,46.21 14.11,46.14 14.34,45.71 14.57,45.24 14.80,44.93 15.03,44.72 15.26,44.78 15.49,44.70 15.72,44.64 15.95,44.50 16.18,44.20 16.41,43.95 16.64,43.79 16.87,43.80 17.10,43.96 17.32,44.09 17.55,44.08 17.78,44.06 18.01,43.61 18.24,43.45 18.47,43.26 18.70,43.09 18.93,42.88 19.16,42.59 19.39,42.48 19.62,42.44 19.85,42.42 20.08,42.32 20.31,42.18 20.54,41.81 20.77,41.59 21.00,41.17 21.23,40.83 21.46,40.66 21.69,40.63 21.92,40.58 22.15,40.56 22.38,40.39 22.61,40.24 22.84,40.22 23.07,40.45 23.30,40.84 23.53,40.89 23.76,40.69 23.99,40.44 24.22,40.19 24.45,40.10 24.68,40.03 24.91,39.86 25.14,39.74 25.37,39.75 25.60,39.73 25.83,39.89 26.06,39.76 26.28,39.68 26.51,39.19 26.74,38.93 26.97,38.85 27.20,39.23 27.43,38.70 27.66,38.18 27.89,37.91 28.12,37.94 28.35,37.88 28.58,37.86 28.81,37.62 29.04,37.18 29.27,36.97 29.50,36.99 29.73,36.62 29.96,36.44 30.19,36.35 30.42,36.31 30.65,36.15 30.88,35.65 31.11,35.32 31.34,34.95 31.57,34.64 31.80,34.55 32.03,34.70 32.26,34.42 32.49,34.35 32.72,34.17 32.95,34.20 33.18,33.77 33.41,33.31 33.64,32.93 33.87,32.53 34.10,32.46 34.33,32.70 34.56,33.11 34.79,33.31 35.01,32.74 35.24,32.25 35.47,32.19 35.70,32.28 35.93,32.20 36.16,32.09 36.39,32.03 36.62,31.96 36.85,31.74 37.08,31.27 37.31,31.01 37.54,30.85 37.77,30.78 38.00,30.67 38.23,30.44 38.46,30.60 38.69,30.32 38.92,30.38 39.15,30.19 39.38,29.61 39.61,29.14 39.84,29.00 40.07,29.15 40.30,29.24 40.53,29.54 40.76,29.50 40.99,29.47 41.22,29.46 41.45,29.41 41.68,29.38 41.91,29.35 42.14,29.22 42.37,28.87 42.60,28.33 42.83,28.12 43.06,27.70 43.29,27.51 43.52,27.07 43.75,26.68 43.97,26.12 44.20,25.88 44.43,25.47 44.66,24.79 44.89,24.34 45.12,24.15 45.35,24.01 45.58,23.97 45.81,23.95 46.04,24.05 46.27,24.01 46.50,23.95 46.73,23.79 46.96,23.63 47.19,23.67 47.42,24.01 47.65,23.94 47.88,23.70 48.11,23.79 48.34,23.76 48.57,23.60 48.80,23.44 49.03,23.07 49.26,22.96 49.49,22.63 49.72,22.35 49.95,22.08 50.18,21.86 50.41,21.89 50.64,22.08 50.87,21.84 51.10,21.55 51.33,21.20 51.56,20.77 51.79,20.73 52.02,20.50 52.25,20.02 52.48,19.81 52.70,19.73 52.93,19.57 53.16,19.45 53.39,19.21 53.62,18.94 53.85,18.68 54.08,18.42 54.31,18.13 54.54,17.84 54.77,17.56 55.00,17.34 55.23,17.16 55.46,17.03 55.69,16.91 55.92,16.83 56.15,16.82 56.38,17.17 56.61,17.59 56.84,18.15 57.07,18.02 57.30,17.13 57.53,16.59 57.76,16.56 57.99,16.94 58.22,16.94 58.45,16.28 58.68,15.85 58.91,15.00 59.14,14.69 59.37,15.27 59.60,15.71 59.83,15.11 60.06,14.81 60.29,14.16 60.52,13.79 60.75,12.80 60.98,12.72 61.21,13.28 61.44,13.42 61.66,12.96 61.89,12.28 62.12,12.73 62.35,12.75 62.58,12.68 62.81,12.52 63.04,12.46 63.27,12.14 63.50,12.05 63.73,12.11 63.96,12.16 64.19,12.11 64.42,12.06 64.65,11.85 64.88,11.76 65.11,11.77 65.34,11.79 65.57,12.01 65.80,12.15 66.03,12.11 66.26,11.86 66.49,11.75 66.72,11.70 66.95,11.95 67.18,11.91 67.41,11.51 67.64,11.30 67.87,11.14 68.10,11.00 68.33,10.68 68.56,10.26 68.79,10.08 69.02,9.93 69.25,9.73 69.48,9.62 69.71,9.59 69.94,9.46 70.17,9.70 70.39,9.71 70.62,9.78 70.85,9.60 71.08,9.43 71.31,9.22 71.54,8.85 71.77,8.54 72.00,8.52 72.23,7.85 72.46,7.33 72.69,6.66 72.92,6.24 73.15,6.21 73.38,6.29 73.61,6.08 73.84,6.23 74.07,6.38 74.30,6.22 74.53,6.26 74.76,5.88 74.99,5.67 75.22,5.24 75.45,4.79 75.68,4.50 75.91,4.50 76.14,4.43 76.37,4.54 76.60,4.63 76.83,4.68 77.06,56.00 77.29,55.61 77.52,55.40 77.75,55.07 77.98,54.62 78.21,54.39 78.44,53.93 78.67,53.67 78.90,53.55 79.13,53.32 79.35,53.18 79.58,52.99 79.81,52.82 80.04,52.68 80.27,52.53 80.50,52.47 80.73,52.25 80.96,52.17 81.19,51.97 81.42,51.89 81.65,51.82 81.88,51.78 82.11,51.53 82.34,51.36 82.57,51.41 82.80,51.38 83.03,51.39 83.26,51.26 83.49,51.10 83.72,50.79 83.95,50.56 84.18,50.29 84.41,49.91 84.64,49.32 84.87,49.03 85.10,48.54 85.33,48.21 85.56,48.06 85.79,47.54 86.02,47.43 86.25,47.11 86.48,46.91 86.71,46.59 86.94,46.33 87.17,46.14 87.40,45.83 87.63,45.35 87.86,45.01 88.08,44.76 88.31,44.78 88.54,44.73 88.77,44.60 89.00,44.51 89.23,44.22 89.46,43.98 89.69,43.77 89.92,43.77 90.15,43.98 90.38,44.13 90.61,44.16 90.84,44.21 91.07,43.64 91.30,43.42 91.53,43.24 91.76,43.08 91.99,42.94 92.22,42.64 92.45,42.53 92.68,42.45 92.91,42.46 93.14,42.36 93.37,42.21 93.60,41.80 93.83,41.68 94.06,41.19 94.29,40.85 94.52,40.71 94.75,40.67 94.98,40.62 95.21,40.57 95.44,40.45 95.67,40.27 95.90,40.22 96.13,40.52 96.36,40.92 96.59,40.94 96.82,40.79 97.04,40.52 97.27,40.24 97.50,40.15 97.73,40.06 97.96,39.85 98.19,39.81 98.42,39.72 98.65,39.75 98.88,39.89 99.11,39.87 99.34,39.76 99.57,39.31 99.80,38.86 100.03,38.93 100.26,39.49 100.49,38.76 100.72,38.23 100.95,37.82 101.18,38.02 101.41,37.92 101.64,37.87 101.87,37.60 102.10,37.40 102.33,37.19 102.56,36.88 102.79,36.60 103.02,36.45 103.25,36.46 103.48,36.35 103.71,36.21 103.94,35.72 104.17,35.31 104.40,34.88 104.63,34.75 104.86,34.62 105.09,34.85 105.32,34.38 105.55,34.34 105.77,34.19 106.00,34.18 106.23,33.82 106.46,33.41 106.69,32.97 106.92,32.55 107.15,32.59 107.38,32.78 107.61,33.25 107.84,33.39 108.07,32.65 108.30,32.34 108.53,32.15 108.76,32.34 108.99,32.40 109.22,32.06 109.45,32.04 109.68,31.98 109.91,31.81 110.14,31.34 110.37,31.07 110.60,30.86 110.83,30.78 111.06,30.65 111.29,30.56 111.52,30.59 111.75,30.35 111.98,30.38 112.21,30.31 112.44,29.50 112.67,29.10 112.90,29.02 113.13,29.25 113.36,29.20 113.59,29.64 113.82,29.49 114.05,29.45 114.28,29.48 114.51,29.43 114.73,29.40 114.96,29.37 115.19,29.20 115.42,28.93 115.65,28.30 115.88,28.05 116.11,27.69 116.34,27.33 116.57,27.08 116.80,26.70 117.03,26.05 117.26,25.85 117.49,25.39 117.72,24.74 117.95,24.30 118.18,24.13 118.41,24.03 118.64,23.88 118.87,24.00 119.10,24.11 119.33,24.02 119.56,23.93 119.79,23.88 120.02,23.70 120.25,23.52 120.48,23.96 120.71,24.00 120.94,23.65 121.17,23.75 121.40,23.83 121.63,23.54 121.86,23.39 122.09,23.06 122.32,22.99 122.55,22.60 122.78,22.42 123.01,22.14 123.24,21.92 123.46,22.22 123.69,21.94 123.92,21.60 124.15,21.57 124.38,21.28 124.61,20.70 124.84,20.70 125.07,20.50 125.30,20.10 125.53,19.85 125.76,19.72 125.99,19.58 126.22,19.42 126.45,19.24 126.68,18.97 126.91,18.73 127.14,18.43 127.37,18.11 127.60,17.89 127.83,17.67 128.06,17.26 128.29,17.25 128.52,17.08 128.75,16.95 128.98,16.69 129.21,16.80 129.44,17.15 129.67,17.62 129.90,18.24 130.13,17.77 130.36,17.24 130.59,16.58 130.82,16.61 131.05,16.78 131.28,16.87 131.51,16.19 131.74,15.85 131.97,14.99 132.20,15.08 132.42,15.20 132.65,15.63 132.88,15.08 133.11,14.73 133.34,14.15 133.57,13.58 133.80,12.80 134.03,12.62 134.26,13.41 134.49,13.37 134.72,12.92 134.95,12.39 135.18,12.68 135.41,12.72 135.64,12.67 135.87,12.61 136.10,12.44 136.33,12.06 136.56,12.07 136.79,12.10 137.02,12.13 137.25,12.05 137.48,12.00 137.71,11.81 137.94,11.75 138.17,11.74 138.40,11.79 138.63,11.88 138.86,12.08 139.09,12.27 139.32,11.73 139.55,11.72 139.78,11.66 140.01,11.89 140.24,11.82 140.47,11.50 140.70,11.31 140.93,11.19 141.15,11.17 141.38,10.65 141.61,10.23 141.84,10.08 142.07,9.92 142.30,9.70 142.53,9.63 142.76,9.55 142.99,9.45 143.22,9.72 143.45,9.72 143.68,9.75 143.91,9.63 144.14,9.38 144.37,9.28 144.60,8.85 144.83,8.52 145.06,8.28 145.29,7.84 145.52,7.36 145.75,6.66 145.98,6.18 146.21,6.24 146.44,6.20 146.67,5.97 146.90,6.08 147.13,6.19 147.36,6.37 147.59,6.22 147.82,5.86 148.05,5.40 148.28,5.08 148.51,4.63 148.74,4.47 148.97,4.38 149.20,4.40 149.43,4.52 149.66,4.59 149.89,4.68 150.11,55.83 150.34,55.67 150.57,55.51 150.80,54.69 151.03,54.50 151.26,54.34 151.49,54.34 151.72,53.64 151.95,53.51 152.18,53.41 152.41,53.21 152.64,52.96 152.87,52.90 153.10,52.61 153.33,52.51 153.56,52.42 153.79,52.16 154.02,52.03 154.25,51.96 154.48,51.96 154.71,51.96 154.94,51.67 155.17,51.59 155.40,51.35 155.63,51.47 155.86,51.27 156.09,51.36 156.32,51.36 156.55,51.42 156.78,50.91 157.01,50.41 157.24,50.28 157.47,49.78 157.70,49.35 157.93,48.89 158.16,48.40 158.39,48.40 158.62,48.06 158.85,47.71 159.07,47.43 159.30,47.14 159.53,46.78 159.76,46.54 159.99,46.24 160.22,46.04 160.45,45.77 160.68,45.35 160.91,45.07 161.14,44.80 161.37,44.75 161.60,44.67 161.83,44.68 162.06,44.54 162.29,44.12 162.52,43.96 162.75,43.92 162.98,43.92 163.21,43.91 163.44,44.19 163.67,44.39 163.90,43.82 164.13,43.52 164.36,43.57 164.59,43.12 164.82,42.84 165.05,42.84 165.28,42.64 165.51,42.59 165.74,42.41 165.97,42.51 166.20,42.26 166.43,41.95 166.66,42.00 166.89,41.49 167.12,41.26 167.35,40.88 167.58,40.69 167.80,40.80 168.03,40.59 168.26,40.50 168.49,40.18 168.72,40.18 168.95,40.31 169.18,40.61 169.41,40.84 169.64,40.88 169.87,40.72 170.10,40.72 170.33,40.26 170.56,40.16 170.79,40.04 171.02,39.91 171.25,39.82 171.48,39.74 171.71,39.99 171.94,39.92 172.17,39.68 172.40,39.80 172.63,39.13 172.86,38.76 173.09,39.13 173.32,39.59 173.55,38.23 173.78,37.89 174.01,37.69 174.24,37.94 174.47,38.35 174.70,37.98 174.93,37.14 175.16,36.89 175.39,37.48 175.62,36.84 175.85,36.81 176.08,36.46 176.31,36.67 176.54,36.32 176.76,35.77 176.99,35.49 177.22,35.07 177.45,34.71 177.68,34.90 177.91,34.90 178.14,34.87 178.37,34.79 178.60,34.25 178.83,34.24 179.06,34.23 179.29,33.71 179.52,33.29 179.75,32.84 179.98,32.60 180.21,32.71 180.44,33.00 180.67,33.45 180.90,33.42 181.13,32.83 181.36,32.49 181.59,32.41 181.82,32.32 182.05,32.15 182.28,32.07 182.51,32.12 182.74,32.24 182.97,31.66 183.20,31.60 183.43,31.10 183.66,30.73 183.89,30.64 184.12,30.52 184.35,30.41 184.58,30.62 184.81,30.37 185.04,30.18 185.27,30.01 185.49,29.09 185.72,28.74 185.95,29.16 186.18,29.21 186.41,29.41 186.64,29.14 186.87,29.50 187.10,29.35 187.33,29.21 187.56,29.66 187.79,29.48 188.02,28.95 188.25,29.29 188.48,28.83 188.71,28.21 188.94,27.79 189.17,27.79 189.40,27.44 189.63,26.87 189.86,26.34 190.09,26.25 190.32,25.91 190.55,25.34 190.78,24.48 191.01,24.47 191.24,23.99 191.47,23.83 191.70,23.87 191.93,23.87 192.16,24.09 192.39,23.84 192.62,23.96 192.85,23.75 193.08,23.66 193.31,23.78 193.54,23.98 193.77,24.10 194.00,23.62 194.23,23.81 194.45,23.59 194.68,23.59 194.91,23.29 195.14,22.93 195.37,22.90 195.60,22.44 195.83,22.26 196.06,21.84 196.29,21.68 196.52,22.05 196.75,21.83 196.98,21.61 197.21,21.40 197.44,20.96 197.67,20.46 197.90,20.26 198.13,20.12 198.36,19.99 198.59,19.91 198.82,19.74 199.05,19.51 199.28,19.32 199.51,19.13 199.74,18.97 199.97,18.82 200.20,18.26 200.43,18.06 200.66,17.94 200.89,17.94 201.12,17.35 201.35,17.35 201.58,17.38 201.81,16.82 202.04,17.01 202.27,16.76 202.50,17.13 202.73,17.55 202.96,18.43 203.18,17.78 203.41,16.87 203.64,16.61 203.87,17.16 204.10,17.04 204.33,16.95 204.56,16.09 204.79,15.43 205.02,14.57 205.25,15.20 205.48,15.58 205.71,15.24 205.94,14.92 206.17,14.54 206.40,14.32 206.63,13.66 206.86,12.77 207.09,12.56 207.32,13.27 207.55,13.17 207.78,12.76 208.01,12.44 208.24,12.61 208.47,12.74 208.70,12.72 208.93,12.30 209.16,12.21 209.39,12.12 209.62,12.04 209.85,12.15 210.08,12.23 210.31,12.00 210.54,12.01 210.77,11.61 211.00,11.66 211.23,11.56 211.46,11.79 211.69,11.77 211.92,12.00 212.14,12.28 212.37,11.74 212.60,11.62 212.83,11.91 213.06,11.90 213.29,11.74 213.52,11.63 213.75,11.19 213.98,11.23 214.21,11.28 214.44,10.40 214.67,10.13 214.90,9.88 215.13,9.51 215.36,9.54 215.59,9.69 215.82,9.83 216.05,9.32 216.28,9.73 216.51,9.56 216.74,9.78 216.97,9.52 217.20,9.23 217.43,8.99 217.66,8.64 217.89,8.64 218.12,8.27 218.35,7.49 218.58,7.57 218.81,6.65 219.04,5.94 219.27,6.30 219.50,5.99 219.73,5.99 219.96,6.04 220.19,6.28 220.42,5.83 220.65,6.09 220.87,5.77 221.10,5.53 221.33,5.25 221.56,4.71 221.79,4.53 222.02,4.42 222.25,4.40 222.48,4.50 222.71,4.59 222.94,4.75 223.17,55.53 223.40,55.53 223.63,55.53 223.86,54.98 224.09,54.98 224.32,54.98 224.55,54.39 224.78,54.39 225.01,54.39 225.24,54.39 225.47,53.30 225.70,53.30 225.93,53.30 226.16,52.40 226.39,52.40 226.62,53.34 226.85,52.34 227.08,52.34 227.31,52.34 227.54,52.34 227.77,51.64 228.00,51.64 228.23,52.82 228.46,51.83 228.69,51.83 228.92,51.83 229.15,50.77 229.38,50.77 229.61,52.30 229.83,52.30 230.06,50.14 230.29,50.14 230.52,50.14 230.75,48.52 230.98,48.52 231.21,48.99 231.44,48.99 231.67,47.92 231.90,47.92 232.13,47.92 232.36,47.12 232.59,47.12 232.82,47.12 233.05,46.33 233.28,46.33 233.51,46.33 233.74,45.29 233.97,45.29 234.20,45.29 234.43,45.29 234.66,44.57 234.89,44.57 235.12,44.57 235.35,44.33 235.58,44.33 235.81,44.33 236.04,44.33 236.27,44.02 236.50,44.02 236.73,44.97 236.96,43.46 237.19,43.46 237.42,43.46 237.65,43.35 237.88,42.78 238.11,42.78 238.34,42.78 238.56,42.64 238.79,42.64 239.02,42.64 239.25,41.60 239.48,41.60 239.71,41.60 239.94,41.23 240.17,41.23 240.40,40.53 240.63,40.77 240.86,40.77 241.09,40.77 241.32,40.17 241.55,40.17 241.78,40.60 242.01,41.22 242.24,41.22 242.47,41.22 242.70,41.43 242.93,41.43 243.16,41.43 243.39,40.49 243.62,40.19 243.85,40.19 244.08,40.19 244.31,39.86 244.54,39.86 244.77,41.58 245.00,40.28 245.23,40.28 245.46,40.28 245.69,38.56 245.92,38.56 246.15,38.22 246.38,38.22 246.61,38.22 246.84,37.88 247.07,37.88 247.30,38.95 247.52,38.95 247.75,36.42 247.98,36.42 248.21,37.96 248.44,37.96 248.67,36.44 248.90,36.44 249.13,36.44 249.36,36.56 249.59,36.56 249.82,36.56 250.05,35.19 250.28,35.19 250.51,35.19 250.74,34.84 250.97,34.84 251.20,34.84 251.43,34.84 251.66,34.10 251.89,34.10 252.12,34.10 252.35,33.05 252.58,33.05 252.81,33.05 253.04,33.69 253.27,33.69 253.50,33.69 253.73,34.02 253.96,34.02 254.19,34.02 254.42,33.47 254.65,33.47 254.88,33.47 255.11,33.39 255.34,33.39 255.57,33.39 255.80,33.09 256.03,31.65 256.25,31.65 256.48,31.65 256.71,31.33 256.94,31.33 257.17,31.33 257.40,30.39 257.63,30.39 257.86,30.39 258.09,29.12 258.32,28.40 258.55,28.40 258.78,28.40 259.01,28.35 259.24,28.35 259.47,28.35 259.70,29.39 259.93,29.39 260.16,29.39 260.39,28.88 260.62,28.88 260.85,28.88 261.08,28.88 261.31,29.05 261.54,27.55 261.77,27.55 262.00,27.00 262.23,27.00 262.46,26.07 262.69,26.07 262.92,26.07 263.15,25.31 263.38,25.31 263.61,25.31 263.84,23.91 264.07,23.70 264.30,23.70 264.53,23.70 264.76,22.56 264.99,22.56 265.21,23.87 265.44,23.87 265.67,23.17 265.90,23.17 266.13,23.17 266.36,23.17 266.59,23.17 266.82,23.52 267.05,23.52 267.28,23.52 267.51,22.75 267.74,22.75 267.97,22.75 268.20,22.68 268.43,22.68 268.66,21.47 268.89,20.60 269.12,20.60 269.35,20.28 269.58,21.43 269.81,21.43 270.04,20.83 270.27,20.83 270.50,20.27 270.73,19.32 270.96,19.32 271.19,19.42 271.42,19.42 271.65,19.42 271.88,20.33 272.11,20.33 272.34,19.90 272.57,19.90 272.80,19.90 273.03,19.71 273.26,18.14 273.49,18.14 273.72,18.07 273.94,18.07 274.17,18.07 274.40,18.07 274.63,18.54 274.86,18.54 275.09,18.54 275.32,17.49 275.55,17.49 275.78,17.49 276.01,18.01 276.24,18.01 276.47,18.01 276.70,16.41 276.93,16.41 277.16,16.41 277.39,17.52 277.62,15.29 277.85,15.29 278.08,15.29 278.31,15.29 278.54,14.46 278.77,14.46 279.00,14.46 279.23,14.46 279.46,12.69 279.69,12.65 279.92,12.65 280.15,12.65 280.38,12.65 280.61,12.36 280.84,12.36 281.07,12.36 281.30,12.47 281.53,12.47 281.76,12.47 281.99,12.20 282.22,12.20 282.45,12.16 282.68,11.44 282.90,11.44 283.13,11.55 283.36,11.55 283.59,11.55 283.82,11.82 284.05,11.82 284.28,10.42 284.51,11.39 284.74,11.39 284.97,11.39 285.20,11.91 285.43,11.91 285.66,11.39 285.89,11.39 286.12,11.39 286.35,11.30 286.58,11.30 286.81,11.30 287.04,10.93 287.27,10.93 287.50,9.01 287.73,8.36 287.96,8.36 288.19,8.32 288.42,8.32 288.65,8.32 288.88,9.16 289.11,9.16 289.34,9.16 289.57,9.49 289.80,9.49 290.03,8.53 290.26,8.26 290.49,8.26 290.72,7.69 290.95,7.69 291.18,7.69 291.41,5.90 291.63,5.90 291.86,5.90 292.09,6.11 292.32,6.11 292.55,4.00 292.78,4.00 293.01,5.62 293.24,5.62 293.47,4.53 293.70,4.53 293.93,4.53 294.16,4.10 294.39,4.10 294.62,4.05 294.85,4.05 295.08,4.05 295.31,4.40 295.54,4.40 295.77,4.40 296.00,4.70" />
</svg>