<svg width="300" height="60" xmlns="http://www.w3.org/2000/svg">
  <polyline fill="rgba(255,200,0,0.3)" stroke="#ffbb00" stroke-width="2" points="4.00,4.00 5.79,10.88 7.58,17.38 9.37,20.45 11.17,20.91 12.96,20.74 14.75,20.19 16.54,21.03 18.33,21.63 20.12,23.73 21.91,26.95 23.71,29.95 25.50,32.83 27.29,34.91 29.08,35.02 30.87,34.35 32.66,34.56 34.45,36.16 36.25,38.14 38.04,37.43 39.83,35.00 41.62,31.15 43.41,26.91 45.20,24.67 46.99,24.48 48.79,21.88 50.58,22.32 52.37,23.11 54.16,23.58 55.95,22.49 57.74,18.84 59.53,15.01 61.33,12.16 63.12,11.61 64.91,12.91 66.70,17.43 68.49,22.24 70.28,28.48 72.07,33.06 73.87,36.04 75.66,35.77 77.45,4.05 79.24,10.85 81.03,17.58 82.82,19.53 84.61,20.92 86.40,21.38 88.20,19.64 89.99,21.17 91.78,21.89 93.57,23.42 95.36,27.22 97.15,29.68 98.94,32.25 100.74,35.16 102.53,35.37 104.32,34.91 106.11,34.56 107.90,36.07 109.69,38.09 111.48,37.47 113.28,34.28 115.07,31.76 116.86,27.82 118.65,24.01 120.44,23.66 122.23,22.18 124.02,22.46 125.82,22.88 127.61,23.29 129.40,22.39 131.19,18.71 132.98,14.81 134.77,11.76 136.56,11.38 138.36,13.11 140.15,17.97 141.94,22.12 143.73,28.13 145.52,31.15 147.31,33.09 149.10,36.07 150.90,11.92 152.69,11.92 154.48,13.86 156.27,20.10 158.06,21.84 159.85,22.05 161.64,22.05 163.44,22.84 165.23,21.73 167.02,24.51 168.81,27.91 170.60,30.26 172.39,31.99 174.18,35.87 175.98,36.56 177.77,34.14 179.56,35.95 181.35,36.29 183.14,38.72 184.93,37.89 186.72,37.89 188.52,30.68 190.31,30.47 192.10,24.43 193.89,21.53 195.68,20.28 197.47,25.28 199.26,24.33 201.06,25.58 202.85,22.11 204.64,19.06 206.43,15.18 208.22,13.76 210.01,12.86 211.80,14.11 213.60,17.44 215.39,21.46 217.18,36.78 218.97,33.94 220.76,32.63 222.55,39.43 224.34,24.97 226.13,24.97 227.93,21.58 229.72,21.58 231.51,21.58 233.30,24.42 235.09,24.42 236.88,24.42 238.67,32.60 240.47,32.60 242.26,32.60 244.05,47.01 245.84,36.54 247.63,36.54 249.42,36.54 251.21,51.72 253.01,43.47 254.80,43.47 256.59,43.47 258.38,48.39 260.17,48.39 261.96,32.93 263.75,32.93 265.55,21.49 267.34,21.49 269.13,24.75 270.92,24.75 272.71,43.54 274.50,32.91 276.29,32.91 278.09,32.91 279.88,19.66 281.67,19.66 283.46,32.63 285.25,38.87 287.04,38.87 288.83,38.87 290.63,56.00 292.42,56.00 294.21,49.83 296.00,49.83" />
</svg>