<svg width="300" height="60" xmlns="http://www.w3.org/2000/svg">
  <polyline fill="rgba(255,200,0,0.3)" stroke="#ffbb00" stroke-width="2" points="4.00,4.01 4.31,4.21 4.62,4.60 4.93,4.85 5.24,5.23 5.55,5.60 5.86,5.77 6.17,6.01 6.48,6.13 6.79,6.24 7.10,6.33 7.41,6.17 7.72,6.17 8.03,6.08 8.34,5.93 8.65,6.09 8.96,6.09 9.27,6.26 9.58,6.65 9.89,6.95 10.20,7.14 10.51,7.20 10.82,7.36 11.13,7.49 11.44,7.26 11.75,6.98 12.06,6.41 12.37,6.77 12.68,7.03 12.99,7.60 13.30,7.31 13.61,6.74 13.92,6.68 14.23,6.72 14.54,6.44 14.85,6.13 15.16,5.74 15.47,5.93 15.78,6.83 16.09,7.83 16.40,8.17 16.71,8.33 17.02,8.40 17.33,8.69 17.64,8.99 17.95,9.41 18.26,9.61 18.57,9.77 18.88,9.90 19.19,9.59 19.50,9.10 19.81,8.81 20.12,9.38 20.43,10.01 20.74,10.78 21.05,11.86 21.36,12.38 21.67,12.99 21.98,12.66 22.29,13.01 22.60,13.91 22.91,14.22 23.22,14.63 23.53,14.98 23.84,15.04 24.15,15.26 24.46,15.62 24.77,16.17 25.08,16.48 25.39,16.97 25.70,17.88 26.01,18.64 26.32,18.40 26.63,18.70 26.94,17.48 27.25,16.59 27.56,16.94 27.87,17.41 28.18,17.90 28.49,18.11 28.80,18.04 29.11,17.89 29.42,18.47 29.73,19.20 30.04,19.63 30.35,19.73 30.66,19.86 30.97,20.04 31.28,20.38 31.59,20.41 31.90,20.47 32.21,20.62 32.52,20.85 32.83,20.72 33.14,21.08 33.45,21.55 33.76,21.98 34.07,22.65 34.38,23.52 34.69,24.14 35.00,24.90 35.31,25.47 35.62,25.97 35.93,26.46 36.24,26.28 36.55,26.07 36.86,26.18 37.17,26.16 37.48,24.49 37.79,24.38 38.10,24.64 38.41,25.09 38.72,25.28 39.03,25.47 39.34,25.75 39.65,26.15 39.96,26.51 40.27,26.51 40.58,26.55 40.89,26.32 41.20,26.89 41.51,27.45 41.82,27.93 42.13,28.18 42.44,28.36 42.75,28.48 43.06,28.67 43.37,29.10 43.68,29.39 43.99,29.89 44.30,30.59 44.61,31.02 44.92,31.13 45.23,31.17 45.54,31.22 45.85,30.94 46.16,31.09 46.47,32.01 46.78,32.64 47.09,32.85 47.40,33.33 47.71,33.59 48.02,33.81 48.33,34.21 48.64,34.61 48.95,34.86 49.26,35.02 49.57,35.25 49.88,35.59 50.19,35.81 50.50,35.95 50.81,36.14 51.12,36.66 51.43,37.36 51.74,37.65 52.05,37.79 52.36,36.78 52.67,36.34 52.98,36.68 53.29,37.13 53.60,37.62 53.91,38.12 54.22,38.53 54.53,38.45 54.84,38.07 55.15,38.09 55.46,38.31 55.77,38.59 56.08,38.92 56.39,39.30 56.70,40.01 57.01,40.54 57.32,40.65 57.63,40.69 57.94,40.80 58.25,41.03 58.56,41.70 58.87,42.40 59.18,41.63 59.49,42.07 59.80,42.69 60.11,43.06 60.42,43.47 60.73,43.54 61.04,43.73 61.35,43.99 61.66,43.91 61.97,43.93 62.28,44.12 62.59,44.61 62.90,44.90 63.21,45.01 63.52,45.15 63.83,45.35 64.14,45.68 64.45,45.78 64.76,46.52 65.07,46.99 65.38,45.49 65.69,44.80 66.00,45.34 66.31,45.64 66.62,45.92 66.93,46.16 67.24,46.32 67.55,46.51 67.86,46.68 68.17,46.99 68.48,47.33 68.79,47.53 69.10,47.71 69.41,47.98 69.72,48.51 70.03,48.40 70.34,48.28 70.65,47.65 70.96,47.79 71.27,48.13 71.58,48.32 71.89,49.17 72.20,49.99 72.51,50.76 72.82,51.13 73.13,51.31 73.44,51.62 73.75,52.03 74.06,51.98 74.37,51.74 74.68,51.30 74.99,51.13 75.30,51.30 75.61,51.58 75.92,51.97 76.23,52.23 76.54,52.37 76.85,52.75 77.15,53.60 77.46,53.50 77.77,53.59 78.08,53.05 78.39,52.94 78.70,53.03 79.01,53.15 79.32,53.20 79.63,52.99 79.94,52.93 80.25,53.22 80.56,53.75 80.87,53.78 81.18,53.91 81.49,54.61 81.80,53.54 82.11,52.03 82.42,51.36 82.73,51.61 83.04,52.02 83.35,52.26 83.66,52.57 83.97,52.71 84.28,52.73 84.59,52.83 84.90,52.76 85.21,52.84 85.52,52.74 85.83,52.55 86.14,52.15 86.45,51.63 86.76,51.49 87.07,51.40 87.38,51.55 87.69,51.53 88.00,51.70 88.31,51.44 88.62,51.42 88.93,51.94 89.24,52.98 89.55,54.01 89.86,54.71 90.17,54.82 90.48,54.33 90.79,53.85 91.10,53.52 91.41,53.14 91.72,52.78 92.03,52.78 92.34,52.46 92.65,51.79 92.96,51.70 93.27,51.80 93.58,51.74 93.89,51.25 94.20,50.56 94.51,50.31 94.82,50.13 95.13,50.22 95.44,50.36 95.75,50.56 96.06,51.30 96.37,51.90 96.68,52.57 96.99,53.41 97.30,54.17 97.61,55.69 97.92,55.02 98.23,54.74 98.54,53.80 98.85,53.59 99.16,51.84 99.47,51.68 99.78,51.70 100.09,51.65 100.40,51.52 100.71,51.23 101.02,50.53 101.33,50.29 101.64,4.00 101.95,4.45 102.26,4.58 102.57,5.10 102.88,5.03 103.19,5.71 103.50,6.29 103.81,6.02 104.12,6.33 104.43,6.56 104.74,6.10 105.05,6.19 105.36,6.22 105.67,6.22 105.98,6.06 106.29,5.97 106.60,6.82 106.91,5.96 107.22,6.38 107.53,6.92 107.84,7.62 108.15,7.68 108.46,7.19 108.77,7.44 109.08,8.48 109.39,7.22 109.70,6.95 110.01,7.02 110.32,8.13 110.63,6.97 110.94,7.41 111.25,7.39 111.56,7.48 111.87,6.27 112.18,6.86 112.49,6.19 112.80,6.12 113.11,6.12 113.42,7.05 113.73,8.28 114.04,7.55 114.35,7.59 114.66,8.52 114.97,8.00 115.28,8.44 115.59,9.57 115.90,8.62 116.21,9.54 116.52,8.76 116.83,9.38 117.14,9.62 117.45,8.38 117.76,9.31 118.07,10.48 118.38,11.38 118.69,11.23 119.00,12.64 119.31,12.70 119.62,12.76 119.93,13.17 120.24,13.82 120.55,14.53 120.86,15.25 121.17,15.25 121.48,14.69 121.79,15.38 122.10,15.38 122.41,16.60 122.72,17.17 123.03,16.69 123.34,17.89 123.65,18.67 123.96,18.33 124.27,18.90 124.58,17.29 124.89,16.12 125.20,17.49 125.51,17.64 125.82,18.27 126.13,17.68 126.44,18.13 126.75,17.35 127.06,18.53 127.37,18.78 127.68,19.99 127.99,20.05 128.30,19.14 128.61,19.83 128.92,20.74 129.23,20.28 129.54,20.78 129.85,20.53 130.16,21.26 130.47,21.27 130.78,20.91 131.09,21.66 131.40,22.28 131.71,22.67 132.02,23.47 132.33,23.99 132.64,25.13 132.95,25.46 133.26,26.27 133.57,26.22 133.88,26.57 134.19,25.91 134.50,26.15 134.81,26.12 135.12,25.08 135.43,24.12 135.74,24.56 136.05,25.07 136.36,25.07 136.67,25.37 136.98,25.92 137.29,25.89 137.60,26.43 137.91,27.10 138.22,26.55 138.53,26.80 138.84,26.67 139.15,27.85 139.46,27.82 139.77,28.43 140.08,28.00 140.39,28.93 140.70,28.49 141.01,29.28 141.32,29.27 141.63,30.37 141.94,30.76 142.25,30.95 142.56,30.88 142.87,31.35 143.18,30.69 143.49,31.57 143.80,30.91 144.11,31.71 144.42,32.56 144.73,32.06 145.04,33.27 145.35,34.04 145.66,33.71 145.97,34.49 146.28,34.44 146.59,35.04 146.90,34.77 147.21,35.65 147.52,35.65 147.83,36.57 148.14,36.48 148.45,36.55 148.76,36.93 149.07,37.65 149.38,37.44 149.69,37.78 150.00,37.01 150.31,36.24 150.62,37.06 150.93,37.22 151.24,38.44 151.55,38.55 151.86,38.55 152.17,38.42 152.48,38.72 152.79,38.08 153.10,38.58 153.41,37.93 153.72,38.63 154.03,39.92 154.34,40.71 154.65,40.12 154.96,40.76 155.27,41.28 155.58,41.28 155.89,40.95 156.20,41.99 156.51,41.90 156.82,42.10 157.13,41.72 157.44,42.87 157.75,42.64 158.06,43.79 158.37,43.79 158.68,43.75 158.99,43.87 159.30,43.90 159.61,43.82 159.92,44.57 160.23,44.41 160.54,45.08 160.85,44.95 161.16,45.01 161.47,45.93 161.78,46.09 162.09,46.30 162.40,46.47 162.71,47.00 163.02,45.64 163.33,44.24 163.64,44.66 163.95,46.18 164.26,46.50 164.57,45.55 164.88,45.69 165.19,46.79 165.50,47.03 165.81,46.31 166.12,47.17 166.43,46.74 166.74,47.82 167.05,47.82 167.36,48.62 167.67,48.27 167.98,48.12 168.29,47.94 168.60,48.15 168.91,48.15 169.22,48.80 169.53,49.91 169.84,50.06 170.15,50.44 170.46,51.60 170.77,51.89 171.08,52.19 171.39,52.47 171.70,52.47 172.01,51.77 172.32,51.63 172.63,51.67 172.94,50.96 173.25,51.69 173.56,51.56 173.87,52.46 174.18,52.66 174.49,53.73 174.80,53.30 175.11,53.45 175.42,54.04 175.73,53.65 176.04,53.38 176.35,53.38 176.66,53.30 176.97,53.94 177.28,53.30 177.59,53.11 177.90,53.84 178.21,53.47 178.52,53.88 178.83,54.03 179.14,54.48 179.45,53.60 179.76,52.11 180.07,52.28 180.38,51.56 180.69,52.49 181.00,52.01 181.31,53.25 181.62,52.84 181.93,52.30 182.24,52.85 182.55,52.23 182.86,52.97 183.17,52.45 183.48,51.86 183.79,51.39 184.10,51.04 184.41,52.41 184.72,52.31 185.03,52.45 185.34,51.21 185.65,51.27 185.96,51.38 186.27,51.79 186.58,51.79 186.89,52.69 187.20,53.82 187.51,54.77 187.82,54.77 188.13,54.15 188.44,54.24 188.75,53.88 189.06,53.19 189.37,52.66 189.68,52.86 189.99,52.08 190.30,51.84 190.61,52.51 190.92,51.74 191.23,51.04 191.54,50.80 191.85,50.63 192.16,50.67 192.47,49.87 192.78,50.35 193.09,51.03 193.40,52.00 193.71,52.34 194.02,52.34 194.33,53.37 194.64,54.94 194.95,54.92 195.26,55.14 195.57,54.67 195.88,53.88 196.19,53.29 196.50,51.96 196.81,51.58 197.12,51.97 197.43,51.33 197.74,51.61 198.05,50.94 198.36,50.03 198.67,50.32 198.98,4.05 199.29,5.01 199.60,5.01 199.91,5.59 200.22,5.59 200.53,5.59 200.84,7.10 201.15,7.22 201.46,7.22 201.77,7.22 202.08,5.99 202.39,8.24 202.70,8.24 203.01,8.24 203.32,6.03 203.63,8.57 203.94,8.57 204.25,8.57 204.56,6.42 204.87,8.83 205.18,8.83 205.49,8.83 205.80,7.14 206.11,9.85 206.42,9.85 206.73,9.85 207.04,7.08 207.35,9.80 207.66,9.80 207.97,9.80 208.28,9.80 208.59,11.05 208.90,11.05 209.21,6.40 209.52,8.55 209.83,8.55 210.14,8.55 210.45,8.55 210.76,10.03 211.07,10.03 211.38,10.03 211.69,7.21 212.00,9.10 212.31,9.10 212.62,9.10 212.93,6.74 213.24,6.74 213.55,8.83 213.86,8.83 214.17,10.17 214.48,10.17 214.79,7.36 215.10,11.25 215.41,11.25 215.72,11.25 216.03,11.25 216.34,15.20 216.65,15.20 216.96,15.20 217.27,16.72 217.58,16.72 217.89,16.72 218.20,18.75 218.51,18.75 218.82,15.47 219.13,15.47 219.44,18.65 219.75,18.65 220.06,18.65 220.37,16.65 220.68,19.74 220.99,19.74 221.30,18.30 221.61,18.30 221.92,16.28 222.23,16.28 222.54,16.28 222.85,18.69 223.15,18.69 223.46,14.76 223.77,17.49 224.08,17.49 224.39,17.49 224.70,21.05 225.01,21.05 225.32,18.42 225.63,18.42 225.94,21.21 226.25,21.21 226.56,18.40 226.87,20.80 227.18,20.80 227.49,20.80 227.80,23.52 228.11,22.94 228.42,22.94 228.73,22.94 229.04,22.94 229.35,24.08 229.66,24.08 229.97,26.45 230.28,28.01 230.59,28.01 230.90,25.84 231.21,26.06 231.52,26.06 231.83,26.06 232.14,26.06 232.45,23.55 232.76,23.55 233.07,26.52 233.38,25.07 233.69,25.07 234.00,25.07 234.31,27.74 234.62,26.53 234.93,26.53 235.24,26.53 235.55,26.53 235.86,28.77 236.17,28.77 236.48,28.77 236.79,27.94 237.10,27.94 237.41,27.94 237.72,30.96 238.03,30.39 238.34,30.39 238.65,30.39 238.96,30.77 239.27,30.77 239.58,30.77 239.89,29.70 240.20,32.52 240.51,32.52 240.82,32.52 241.13,31.24 241.44,31.24 241.75,34.74 242.06,33.75 242.37,33.75 242.68,33.75 242.99,33.75 243.30,35.93 243.61,35.93 243.92,35.93 244.23,35.56 244.54,35.56 244.85,35.56 245.16,38.65 245.47,39.08 245.78,39.08 246.09,39.08 246.40,39.53 246.71,37.20 247.02,37.20 247.33,36.10 247.64,36.10 247.95,39.39 248.26,39.29 248.57,39.29 248.88,39.29 249.19,39.29 249.50,38.15 249.81,38.15 250.12,38.15 250.43,39.89 250.74,39.89 251.05,39.89 251.36,39.89 251.67,42.01 251.98,42.01 252.29,42.01 252.60,40.99 252.91,40.99 253.22,40.99 253.53,44.28 253.84,43.23 254.15,43.23 254.46,43.23 254.77,42.77 255.08,42.77 255.39,45.85 255.70,45.85 256.01,45.56 256.32,45.56 256.63,45.56 256.94,45.25 257.25,45.25 257.56,45.25 257.87,45.00 258.18,45.00 258.49,45.00 258.80,47.28 259.11,47.28 259.42,47.28 259.73,44.64 260.04,44.64 260.35,44.64 260.66,44.64 260.97,45.39 261.28,45.39 261.59,45.39 261.90,45.39 262.21,46.40 262.52,46.40 262.83,46.40 263.14,46.40 263.45,48.77 263.76,48.77 264.07,48.77 264.38,48.77 264.69,47.00 265.00,47.00 265.31,49.81 265.62,47.75 265.93,47.75 266.24,47.75 266.55,51.12 266.86,51.23 267.17,51.23 267.48,51.23 267.79,52.11 268.10,52.11 268.41,52.11 268.72,52.64 269.03,52.64 269.34,52.64 269.65,52.64 269.96,53.55 270.27,53.55 270.58,53.55 270.89,53.38 271.20,53.38 271.51,53.38 271.82,55.52 272.13,55.52 272.44,53.95 272.75,53.95 273.06,56.00 273.37,56.00 273.68,56.00 273.99,53.37 274.30,55.09 274.61,55.09 274.92,55.09 275.23,55.58 275.54,54.26 275.85,54.26 276.16,54.26 276.47,53.33 276.78,53.33 277.09,53.33 277.40,51.12 277.71,51.12 278.02,54.71 278.33,53.28 278.64,53.28 278.95,53.28 279.26,53.28 279.57,51.51 279.88,51.51 280.19,55.45 280.50,54.60 280.81,54.60 281.12,54.60 281.43,53.98 281.74,53.98 282.05,53.98 282.36,53.20 282.67,53.20 282.98,53.20 283.29,53.12 283.60,53.12 283.91,53.12 284.22,52.78 284.53,55.54 284.84,55.54 285.15,55.54 285.46,54.06 285.77,54.76 286.08,54.76 286.39,54.76 286.70,52.67 287.01,53.15 287.32,53.15 287.63,53.15 287.94,54.57 288.25,51.85 288.56,51.85 288.87,51.85 289.18,52.32 289.49,52.32 289.80,52.32 290.11,54.51 290.42,54.51 290.73,54.51 291.04,55.53 291.35,55.53 291.66,55.53 291.97,55.53 292.28,54.10 292.59,54.08 292.90,54.08 293.21,52.74 293.52,52.74 293.83,52.74 294.14,49.87 294.45,49.87 294.76,51.12 295.07,51.12 295.38,51.12 295.69,50.44 296.00,53.17" />
</svg>