<svg width="300" height="60" xmlns="http://www.w3.org/2000/svg">
  <polyline fill="rgba(255,200,0,0.3)" stroke="#ffbb00" stroke-width="2" points="4.00,10.97 4.28,11.26 4.55,11.01 4.83,11.00 5.11,10.78 5.38,10.51 5.66,10.17 5.93,9.76 6.21,9.21 6.49,8.43 6.76,7.72 7.04,6.88 7.32,6.27 7.59,5.46 7.87,4.98 8.14,4.89 8.42,5.42 8.70,6.16 8.97,6.55 9.25,6.71 9.53,6.98 9.80,6.90 10.08,6.97 10.35,7.08 10.63,7.39 10.91,7.19 11.18,7.05 11.46,7.07 11.74,6.87 12.01,6.19 12.29,6.11 12.56,5.60 12.84,5.09 13.12,4.48 13.39,4.12 13.67,4.00 13.95,4.08 14.22,4.00 14.50,4.17 14.77,4.60 15.05,5.05 15.33,6.07 15.60,6.50 15.88,7.31 16.16,8.22 16.43,9.23 16.71,10.11 16.98,11.03 17.26,11.94 17.54,12.57 17.81,13.20 18.09,13.53 18.37,14.16 18.64,14.77 18.92,15.06 19.19,15.37 19.47,15.70 19.75,16.21 20.02,16.46 20.30,16.76 20.58,17.88 20.85,18.79 21.13,19.60 21.40,20.12 21.68,21.11 21.96,21.57 22.23,22.49 22.51,23.52 22.79,23.91 23.06,24.80 23.34,25.64 23.61,26.34 23.89,27.26 24.17,28.29 24.44,29.02 24.72,29.85 25.00,30.55 25.27,31.18 25.55,31.49 25.82,31.84 26.10,32.02 26.38,32.14 26.65,32.16 26.93,31.95 27.21,31.55 27.48,31.47 27.76,31.08 28.03,30.18 28.31,29.25 28.59,28.52 28.86,27.45 29.14,26.73 29.42,26.27 29.69,25.32 29.97,24.90 30.24,24.14 30.52,23.50 30.80,22.93 31.07,22.36 31.35,21.82 31.63,21.95 31.90,21.92 32.18,22.42 32.45,23.66 32.73,24.27 33.01,24.57 33.28,25.17 33.56,25.70 33.84,26.79 34.11,27.69 34.39,28.49 34.66,28.75 34.94,28.83 35.22,28.85 35.49,29.06 35.77,29.06 36.05,28.82 36.32,28.51 36.60,28.66 36.87,29.02 37.15,29.32 37.43,29.88 37.70,30.42 37.98,30.55 38.26,30.37 38.53,29.96 38.81,29.63 39.08,29.17 39.36,28.50 39.64,28.02 39.91,27.71 40.19,27.16 40.47,26.63 40.74,26.26 41.02,26.41 41.29,26.74 41.57,27.22 41.85,27.26 42.12,27.24 42.40,26.87 42.68,26.35 42.95,26.14 43.23,25.78 43.50,26.19 43.78,26.20 44.06,26.60 44.33,27.19 44.61,28.06 44.89,29.50 45.16,30.16 45.44,30.78 45.71,31.60 45.99,32.44 46.27,32.54 46.54,33.30 46.82,34.68 47.10,34.97 47.37,34.91 47.65,34.34 47.92,34.51 48.20,35.00 48.48,35.23 48.75,35.73 49.03,36.22 49.31,36.52 49.58,36.84 49.86,37.31 50.13,38.55 50.41,38.91 50.69,39.01 50.96,39.45 51.24,39.56 51.52,39.96 51.79,39.76 52.07,40.13 52.34,40.78 52.62,42.61 52.90,43.17 53.17,43.75 53.45,43.91 53.73,45.25 54.00,46.02 54.28,46.97 54.55,47.51 54.83,47.31 55.11,47.37 55.38,47.50 55.66,48.23 55.94,50.21 56.21,51.41 56.49,51.08 56.76,49.43 57.04,49.34 57.32,48.80 57.59,49.26 57.87,50.52 58.15,50.80 58.42,51.71 58.70,52.53 58.97,53.60 59.25,54.70 59.53,54.93 59.80,55.36 60.08,55.09 60.36,55.70 60.63,55.90 60.91,55.69 61.18,55.20 61.46,54.04 61.74,52.85 62.01,51.91 62.29,51.35 62.57,50.92 62.84,50.10 63.12,48.67 63.39,47.11 63.67,46.28 63.95,44.93 64.22,43.52 64.50,42.28 64.78,41.09 65.05,39.78 65.33,38.93 65.60,38.18 65.88,36.64 66.16,35.66 66.43,34.50 66.71,33.18 66.99,32.57 67.26,32.25 67.54,32.15 67.81,32.22 68.09,32.29 68.37,32.19 68.64,31.98 68.92,31.47 69.20,31.02 69.47,30.26 69.75,29.56 70.02,28.71 70.30,27.77 70.58,27.18 70.85,27.20 71.13,27.43 71.41,27.69 71.68,27.97 71.96,29.17 72.23,30.13 72.51,30.65 72.79,30.87 73.06,30.81 73.34,30.15 73.62,29.76 73.89,28.76 74.17,27.29 74.44,26.54 74.72,26.27 75.00,26.22 75.27,26.38 75.55,26.59 75.83,26.52 76.10,25.38 76.38,24.15 76.65,11.08 76.93,11.11 77.21,11.01 77.48,10.95 77.76,10.66 78.04,10.33 78.31,10.04 78.59,9.59 78.86,9.23 79.14,8.28 79.42,7.86 79.69,6.62 79.97,10.05 80.25,9.59 80.52,9.24 80.80,8.28 81.07,7.87 81.35,6.61 81.63,6.10 81.90,5.55 82.18,4.95 82.46,4.91 82.73,5.38 83.01,6.01 83.28,6.58 83.56,6.75 83.84,7.00 84.11,7.04 84.39,7.00 84.67,7.17 84.94,7.52 85.22,7.17 85.49,7.09 85.77,6.93 86.05,6.99 86.32,6.15 86.60,6.39 86.88,5.64 87.15,4.92 87.43,4.50 87.70,4.05 87.98,4.05 88.26,4.13 88.53,4.10 88.81,4.27 89.09,4.75 89.36,5.22 89.64,6.15 89.91,6.37 90.19,7.37 90.47,8.11 90.74,8.88 91.02,10.35 91.30,10.68 91.57,12.13 91.85,12.56 92.12,13.24 92.40,13.56 92.68,14.15 92.95,15.03 93.23,15.13 93.51,15.51 93.78,15.79 94.06,16.11 94.33,16.55 94.61,17.33 94.89,18.05 95.16,18.80 95.44,19.53 95.72,20.39 95.99,21.02 96.27,21.60 96.54,22.69 96.82,23.39 97.10,24.16 97.37,25.19 97.65,25.83 97.93,26.52 98.20,27.17 98.48,28.24 98.75,29.04 99.03,29.84 99.31,30.61 99.58,31.25 99.86,31.57 100.14,31.92 100.41,32.07 100.69,32.19 100.96,32.15 101.24,32.00 101.52,31.63 101.79,31.51 102.07,31.21 102.35,30.37 102.62,29.15 102.90,28.38 103.18,27.68 103.45,26.89 103.73,26.54 104.00,25.39 104.28,25.04 104.56,23.99 104.83,23.30 105.11,23.00 105.39,22.23 105.66,21.99 105.94,21.94 106.21,21.98 106.49,22.18 106.77,23.81 107.04,24.32 107.32,24.37 107.60,25.30 107.87,25.89 108.15,26.57 108.42,27.46 108.70,28.62 108.98,28.90 109.25,29.03 109.53,28.95 109.81,29.17 110.08,29.17 110.36,28.92 110.63,28.22 110.91,28.53 111.19,28.95 111.46,29.40 111.74,29.87 112.02,30.40 112.29,30.57 112.57,30.41 112.84,30.01 113.12,29.69 113.40,29.22 113.67,28.42 113.95,27.95 114.23,27.71 114.50,27.17 114.78,26.73 115.05,26.24 115.33,26.46 115.61,26.58 115.88,27.22 116.16,27.15 116.44,27.10 116.71,26.73 116.99,26.38 117.26,26.36 117.54,25.60 117.82,26.12 118.09,26.56 118.37,26.73 118.65,27.12 118.92,28.43 119.20,28.94 119.47,30.13 119.75,30.85 120.03,31.59 120.30,32.56 120.58,32.38 120.86,33.26 121.13,34.54 121.41,35.24 121.68,34.56 121.96,34.23 122.24,34.46 122.51,35.02 122.79,35.37 123.07,35.80 123.34,36.27 123.62,36.52 123.89,36.77 124.17,37.63 124.45,38.28 124.72,38.61 125.00,39.20 125.28,39.27 125.55,39.89 125.83,40.50 126.10,39.86 126.38,40.29 126.66,40.81 126.93,41.83 127.21,42.57 127.49,44.01 127.76,44.48 128.04,45.10 128.31,46.01 128.59,46.88 128.87,47.55 129.14,47.47 129.42,47.50 129.70,47.56 129.97,48.17 130.25,49.84 130.52,51.69 130.80,51.54 131.08,49.63 131.35,49.48 131.63,48.76 131.91,49.87 132.18,50.68 132.46,50.90 132.73,51.62 133.01,52.47 133.29,53.18 133.56,54.39 133.84,55.17 134.12,55.13 134.39,54.98 134.67,55.74 134.94,55.97 135.22,55.86 135.50,55.25 135.77,53.74 136.05,53.03 136.33,52.04 136.60,51.35 136.88,50.88 137.15,50.38 137.43,48.74 137.71,47.07 137.98,46.17 138.26,44.91 138.54,43.83 138.81,42.21 139.09,41.23 139.36,39.58 139.64,39.05 139.92,38.15 140.19,37.01 140.47,35.82 140.75,34.60 141.02,33.19 141.30,32.60 141.57,32.11 141.85,32.15 142.13,32.20 142.40,32.20 142.68,31.93 142.96,32.18 143.23,31.50 143.51,30.94 143.78,30.38 144.06,29.62 144.34,28.75 144.61,27.79 144.89,27.20 145.17,27.20 145.44,27.47 145.72,27.66 145.99,28.06 146.27,28.98 146.55,30.19 146.82,30.65 147.10,30.85 147.38,30.72 147.65,30.43 147.93,29.59 148.20,28.82 148.48,27.45 148.76,26.56 149.03,26.27 149.31,26.09 149.59,26.63 149.86,26.43 150.14,26.60 150.41,25.03 150.69,24.20 150.97,11.17 151.24,11.19 151.52,10.90 151.80,10.81 152.07,10.42 152.35,10.26 152.62,10.11 152.90,9.76 153.18,8.93 153.45,8.51 153.73,7.48 154.01,7.01 154.28,5.93 154.56,5.48 154.83,4.84 155.11,4.79 155.39,5.43 155.66,5.43 155.94,6.25 156.22,6.69 156.49,6.82 156.77,6.99 157.04,6.96 157.32,6.96 157.60,7.46 157.87,7.14 158.15,7.33 158.43,6.72 158.70,6.71 158.98,6.40 159.25,6.40 159.53,6.27 159.81,5.44 160.08,4.62 160.36,4.60 160.64,4.11 160.91,4.28 161.19,4.05 161.46,4.11 161.74,4.69 162.02,5.31 162.29,6.10 162.57,6.10 162.85,6.93 163.12,7.87 163.40,8.72 163.67,9.55 163.95,10.43 164.23,11.18 164.50,12.04 164.78,12.79 165.06,13.51 165.33,14.02 165.61,14.58 165.88,15.02 166.16,15.50 166.44,15.76 166.71,16.16 166.99,16.45 167.27,17.21 167.54,17.21 167.82,17.80 168.09,19.00 168.37,19.70 168.65,20.51 168.92,21.29 169.20,22.10 169.48,23.33 169.75,24.24 170.03,24.58 170.30,25.27 170.58,26.09 170.86,26.41 171.13,27.29 171.41,28.37 171.69,28.47 171.96,29.16 172.24,31.10 172.51,31.18 172.79,31.92 173.07,31.94 173.34,32.19 173.62,32.31 173.90,32.06 174.17,31.61 174.45,31.48 174.72,30.96 175.00,30.03 175.28,29.71 175.55,28.48 175.83,28.11 176.11,26.76 176.38,26.33 176.66,25.36 176.93,24.24 177.21,24.19 177.49,24.31 177.76,22.96 178.04,21.43 178.32,21.80 178.59,22.09 178.87,21.37 179.14,22.03 179.42,22.94 179.70,23.56 179.97,24.44 180.25,25.28 180.53,25.84 180.80,26.83 181.08,27.87 181.35,28.63 181.63,28.54 181.91,28.91 182.18,29.10 182.46,29.10 182.74,29.18 183.01,29.24 183.29,28.62 183.56,28.67 183.84,29.03 184.12,29.46 184.39,29.94 184.67,30.36 184.95,30.45 185.22,30.33 185.50,30.06 185.77,29.69 186.05,29.13 186.33,28.58 186.60,28.06 186.88,27.62 187.16,27.13 187.43,27.13 187.71,26.94 187.98,26.30 188.26,27.01 188.54,26.93 188.81,27.40 189.09,26.86 189.37,27.27 189.64,26.66 189.92,25.66 190.19,25.79 190.47,26.21 190.75,26.65 191.02,26.97 191.30,27.47 191.58,27.72 191.85,28.13 192.13,30.80 192.40,29.69 192.68,30.94 192.96,33.49 193.23,31.56 193.51,33.03 193.79,34.66 194.06,34.80 194.34,34.81 194.61,34.46 194.89,34.07 195.17,35.00 195.44,36.04 195.72,36.06 196.00,36.25 196.27,36.57 196.55,36.89 196.82,37.36 197.10,38.29 197.38,38.13 197.65,38.86 197.93,38.86 198.21,40.28 198.48,41.74 198.76,40.19 199.04,41.25 199.31,39.89 199.59,41.07 199.86,43.13 200.14,44.61 200.42,45.12 200.69,45.32 200.97,45.84 201.25,47.28 201.52,47.28 201.80,47.36 202.07,47.68 202.35,48.27 202.63,48.83 202.90,48.83 203.18,50.89 203.46,51.46 203.73,49.32 204.01,49.05 204.28,48.89 204.56,49.14 204.84,49.82 205.11,50.66 205.39,51.89 205.67,52.83 205.94,54.10 206.22,54.10 206.49,55.09 206.77,55.09 207.05,54.42 207.32,55.02 207.60,56.00 207.88,55.87 208.15,55.26 208.43,53.88 208.70,52.78 208.98,51.94 209.26,50.87 209.53,51.46 209.81,50.18 210.09,48.98 210.36,47.33 210.64,45.88 210.91,45.04 211.19,44.18 211.47,42.41 211.74,41.48 212.02,39.92 212.30,38.98 212.57,37.44 212.85,36.21 213.12,34.96 213.40,33.87 213.68,32.84 213.95,33.11 214.23,32.76 214.51,32.76 214.78,32.58 215.06,32.60 215.33,32.45 215.61,32.35 215.89,31.86 216.16,31.27 216.44,30.53 216.72,29.68 216.99,28.85 217.27,27.94 217.54,27.47 217.82,27.39 218.10,27.74 218.37,27.89 218.65,28.06 218.93,28.63 219.20,30.29 219.48,30.47 219.75,30.93 220.03,31.59 220.31,30.29 220.58,29.89 220.86,29.18 221.14,27.12 221.41,26.87 221.69,26.26 221.96,26.26 222.24,26.13 222.52,27.12 222.79,26.13 223.07,25.89 223.35,24.32 223.62,11.03 223.90,11.03 224.17,11.03 224.45,9.87 224.73,9.87 225.00,9.87 225.28,9.87 225.56,8.38 225.83,8.20 226.11,8.20 226.38,6.60 226.66,6.60 226.94,6.60 227.21,4.88 227.49,4.64 227.77,4.64 228.04,4.64 228.32,4.64 228.59,6.04 228.87,6.09 229.15,6.09 229.42,7.29 229.70,7.29 229.98,7.29 230.25,7.29 230.53,7.07 230.80,9.12 231.08,9.12 231.36,7.20 231.63,7.20 231.91,7.20 232.19,9.19 232.46,6.63 232.74,6.63 233.01,6.63 233.29,4.76 233.57,4.76 233.84,4.76 234.12,4.32 234.40,5.62 234.67,5.62 234.95,6.39 235.22,6.39 235.50,6.39 235.78,6.39 236.05,8.67 236.33,8.67 236.61,8.67 236.88,11.16 237.16,11.16 237.43,11.16 237.71,14.94 237.99,14.94 238.26,14.94 238.54,16.03 238.82,16.03 239.09,16.03 239.37,16.13 239.64,16.13 239.92,16.13 240.20,16.13 240.47,17.50 240.75,17.50 241.03,17.50 241.30,20.44 241.58,20.44 241.85,20.44 242.13,23.16 242.41,24.12 242.68,24.12 242.96,24.12 243.24,26.21 243.51,27.12 243.79,27.12 244.06,26.21 244.34,26.21 244.62,26.04 244.89,30.37 245.17,30.37 245.45,30.37 245.72,31.07 246.00,31.07 246.27,32.57 246.55,32.57 246.83,32.80 247.10,32.80 247.38,30.68 247.66,30.68 247.93,30.71 248.21,30.71 248.48,30.71 248.76,26.26 249.04,26.26 249.31,25.50 249.59,25.50 249.87,25.50 250.14,26.56 250.42,26.56 250.69,21.08 250.97,22.06 251.25,22.06 251.52,22.06 251.80,23.09 252.08,23.09 252.35,23.09 252.63,25.99 252.90,24.73 253.18,24.73 253.46,27.44 253.73,27.44 254.01,28.70 254.29,28.70 254.56,28.86 254.84,28.86 255.11,28.86 255.39,30.41 255.67,30.41 255.94,29.85 256.22,29.04 256.50,29.04 256.77,29.04 257.05,30.12 257.32,30.12 257.60,30.12 257.88,30.71 258.15,30.71 258.43,30.71 258.71,29.69 258.98,29.69 259.26,29.69 259.53,28.22 259.81,28.22 260.09,28.22 260.36,28.71 260.64,26.91 260.92,26.91 261.19,26.91 261.47,26.74 261.74,26.74 262.02,28.44 262.30,28.44 262.57,26.15 262.85,26.01 263.13,26.01 263.40,26.01 263.68,26.97 263.95,26.97 264.23,27.88 264.51,27.88 264.78,34.81 265.06,30.00 265.34,30.00 265.61,34.04 265.89,34.04 266.16,34.04 266.44,34.04 266.72,38.81 266.99,38.81 267.27,38.44 267.55,38.44 267.82,38.44 268.10,36.67 268.37,36.67 268.65,36.67 268.93,37.04 269.20,37.04 269.48,37.04 269.76,37.04 270.03,37.53 270.31,37.53 270.58,37.53 270.86,34.99 271.14,40.50 271.41,40.50 271.69,36.39 271.97,36.39 272.24,36.39 272.52,42.71 272.79,42.71 273.07,42.71 273.35,45.50 273.62,45.50 273.90,45.50 274.18,45.50 274.45,47.44 274.73,47.91 275.00,47.91 275.28,50.61 275.56,50.61 275.83,50.61 276.11,48.33 276.39,51.13 276.66,51.13 276.94,51.13 277.21,51.13 277.49,51.13 277.77,51.13 278.04,53.56 278.32,53.17 278.60,53.17 278.87,49.53 279.15,52.02 279.42,52.02 279.70,52.02 279.98,52.02 280.25,54.65 280.53,54.65 280.81,55.78 281.08,55.03 281.36,55.03 281.63,51.65 281.91,51.65 282.19,51.65 282.46,50.81 282.74,48.38 283.02,48.38 283.29,48.38 283.57,45.41 283.84,43.93 284.12,43.93 284.40,43.93 284.67,41.16 284.95,41.16 285.23,39.53 285.50,36.14 285.78,36.14 286.05,36.14 286.33,33.02 286.61,36.11 286.88,36.11 287.16,36.11 287.44,35.01 287.71,35.01 287.99,35.01 288.26,34.98 288.54,34.98 288.82,34.98 289.09,31.71 289.37,31.71 289.65,31.71 289.92,28.72 290.20,28.72 290.47,28.72 290.75,29.83 291.03,29.83 291.30,28.25 291.58,28.25 291.86,30.52 292.13,30.52 292.41,31.70 292.68,31.70 292.96,31.92 293.24,31.92 293.51,31.92 293.79,30.71 294.07,30.71 294.34,26.45 294.62,26.45 294.89,27.39 295.17,27.39 295.45,27.39 295.72,28.38 296.00,24.71" />
</svg>