<svg width="300" height="60" xmlns="http://www.w3.org/2000/svg">
  <polyline fill="rgba(255,200,0,0.3)" stroke="#ffbb00" stroke-width="2" points="4.00,11.19 4.32,11.09 4.63,11.01 4.95,10.92 5.26,10.80 5.58,10.71 5.90,10.68 6.21,10.66 6.53,10.63 6.84,10.42 7.16,10.33 7.48,10.17 7.79,10.05 8.11,9.81 8.42,9.61 8.74,9.36 9.06,9.12 9.37,8.85 9.69,8.54 10.00,8.21 10.32,7.90 10.64,7.68 10.95,7.52 11.27,7.28 11.58,7.09 11.90,6.99 12.22,54.42 12.53,54.36 12.85,54.26 13.16,54.15 13.48,54.15 13.80,54.26 14.11,54.27 14.43,54.30 14.74,54.37 15.06,54.58 15.38,54.93 15.69,55.09 16.01,54.40 16.32,53.49 16.64,52.63 16.96,52.04 17.27,52.21 17.59,52.40 17.90,52.57 18.22,52.56 18.54,52.14 18.85,51.80 19.17,52.07 19.48,52.44 19.80,52.29 20.12,51.83 20.43,51.21 20.75,50.57 21.06,50.14 21.38,49.60 21.70,49.33 22.01,49.13 22.33,49.14 22.65,48.78 22.96,48.51 23.28,48.30 23.59,48.29 23.91,48.11 24.23,47.99 24.54,47.68 24.86,47.23 25.17,46.96 25.49,46.88 25.81,46.77 26.12,46.38 26.44,46.03 26.75,45.64 27.07,45.51 27.39,45.21 27.70,45.26 28.02,45.02 28.33,44.63 28.65,44.33 28.97,44.00 29.28,43.62 29.60,43.27 29.91,42.91 30.23,42.64 30.55,42.34 30.86,42.02 31.18,41.78 31.49,41.49 31.81,41.39 32.13,41.35 32.44,41.28 32.76,41.15 33.07,40.75 33.39,40.43 33.71,39.96 34.02,39.72 34.34,39.37 34.65,39.15 34.97,39.05 35.29,38.81 35.60,38.59 35.92,38.29 36.23,38.07 36.55,37.91 36.87,37.99 37.18,37.76 37.50,37.69 37.81,37.75 38.13,37.44 38.45,37.28 38.76,37.30 39.08,37.56 39.39,37.38 39.71,37.05 40.03,36.60 40.34,36.15 40.66,35.82 40.97,35.83 41.29,35.67 41.61,35.39 41.92,35.38 42.24,34.97 42.55,34.67 42.87,34.63 43.19,34.47 43.50,33.98 43.82,33.75 44.13,33.45 44.45,32.90 44.77,32.71 45.08,32.72 45.40,32.55 45.71,32.20 46.03,31.79 46.35,31.36 46.66,31.19 46.98,31.22 47.29,31.16 47.61,31.05 47.93,30.98 48.24,31.06 48.56,31.08 48.87,31.22 49.19,31.61 49.51,31.23 49.82,30.76 50.14,30.84 50.45,30.58 50.77,30.27 51.09,29.98 51.40,30.01 51.72,30.01 52.03,29.99 52.35,29.57 52.67,29.31 52.98,29.62 53.30,29.69 53.61,29.47 53.93,29.21 54.25,28.91 54.56,28.65 54.88,28.20 55.19,28.06 55.51,28.15 55.83,28.16 56.14,28.12 56.46,28.14 56.77,28.31 57.09,28.84 57.41,29.17 57.72,29.20 58.04,28.86 58.35,28.62 58.67,28.26 58.99,27.88 59.30,27.53 59.62,27.43 59.94,27.31 60.25,27.00 60.57,26.58 60.88,26.41 61.20,26.41 61.52,26.05 61.83,25.61 62.15,24.89 62.46,24.66 62.78,24.65 63.10,24.78 63.41,24.57 63.73,24.50 64.04,24.57 64.36,24.47 64.68,24.11 64.99,23.56 65.31,23.25 65.62,22.95 65.94,22.69 66.26,22.67 66.57,22.50 66.89,22.66 67.20,22.91 67.52,23.19 67.84,23.32 68.15,23.47 68.47,23.43 68.78,23.39 69.10,23.14 69.42,22.76 69.73,22.83 70.05,22.66 70.36,22.26 70.68,21.92 71.00,21.46 71.31,20.82 71.63,20.30 71.94,19.74 72.26,19.25 72.58,19.09 72.89,18.84 73.21,18.63 73.52,18.55 73.84,18.48 74.16,18.40 74.47,18.23 74.79,18.04 75.10,17.95 75.42,17.75 75.74,17.44 76.05,17.29 76.37,17.21 76.68,17.26 77.00,17.47 77.32,17.10 77.63,17.46 77.95,17.17 78.26,16.65 78.58,16.15 78.90,15.69 79.21,15.17 79.53,14.62 79.84,14.38 80.16,14.54 80.48,14.56 80.79,14.55 81.11,14.27 81.42,13.33 81.74,13.35 82.06,13.28 82.37,13.26 82.69,13.14 83.00,12.88 83.32,12.30 83.64,12.39 83.95,12.74 84.27,12.70 84.58,12.61 84.90,12.46 85.22,12.03 85.53,12.00 85.85,12.10 86.16,11.94 86.48,11.99 86.80,12.26 87.11,12.30 87.43,12.30 87.74,12.13 88.06,11.77 88.38,11.64 88.69,11.60 89.01,11.71 89.32,11.63 89.64,11.39 89.96,11.61 90.27,11.72 90.59,11.78 90.90,11.86 91.22,11.75 91.54,11.61 91.85,11.61 92.17,11.49 92.48,11.41 92.80,11.34 93.12,11.25 93.43,11.34 93.75,11.54 94.06,11.62 94.38,11.46 94.70,11.30 95.01,11.19 95.33,11.09 95.65,7.09 95.96,6.99 96.28,6.66 96.59,6.43 96.91,6.22 97.23,6.09 97.54,5.80 97.86,5.41 98.17,5.26 98.49,5.24 98.81,5.27 99.12,5.22 99.44,5.16 99.75,5.04 100.07,4.92 100.39,4.84 100.70,4.83 101.02,4.83 101.33,4.74 101.65,4.45 101.97,4.00 102.28,54.75 102.60,54.40 102.91,54.27 103.23,54.02 103.55,54.42 103.86,54.52 104.18,53.96 104.49,54.07 104.81,54.33 105.13,54.33 105.44,54.84 105.76,54.91 106.07,54.98 106.39,53.64 106.71,52.47 107.02,52.47 107.34,51.93 107.65,51.86 107.97,52.58 108.29,52.48 108.60,52.08 108.92,52.08 109.23,52.11 109.55,51.81 109.87,52.48 110.18,51.98 110.50,51.24 110.81,50.69 111.13,49.67 111.45,50.18 111.76,49.56 112.08,49.32 112.39,49.25 112.71,49.10 113.03,48.87 113.34,48.54 113.66,48.19 113.97,48.30 114.29,47.78 114.61,47.54 114.92,47.61 115.24,47.01 115.55,47.28 115.87,46.92 116.19,46.37 116.50,46.35 116.82,45.80 117.13,45.44 117.45,45.23 117.77,45.09 118.08,44.85 118.40,44.83 118.71,44.53 119.03,44.26 119.35,43.72 119.66,43.53 119.98,43.32 120.29,43.12 120.61,42.96 120.93,42.74 121.24,42.23 121.56,42.05 121.87,41.91 122.19,41.73 122.51,41.54 122.82,41.31 123.14,40.60 123.45,40.18 123.77,39.72 124.09,40.32 124.40,39.78 124.72,39.21 125.03,39.88 125.35,38.56 125.67,38.77 125.98,38.07 126.30,38.38 126.61,37.81 126.93,38.32 127.25,37.71 127.56,38.31 127.88,37.77 128.19,37.25 128.51,38.06 128.83,37.83 129.14,37.61 129.46,37.29 129.77,37.23 130.09,36.62 130.41,35.93 130.72,35.98 131.04,36.60 131.35,35.92 131.67,35.50 131.99,35.88 132.30,35.09 132.62,35.43 132.94,34.62 133.25,34.70 133.57,34.45 133.88,33.51 134.20,33.94 134.52,32.97 134.83,33.18 135.15,32.63 135.46,33.18 135.78,32.23 136.10,31.85 136.41,31.48 136.73,32.13 137.04,31.15 137.36,30.86 137.68,31.40 137.99,31.04 138.31,31.59 138.62,31.08 138.94,30.86 139.26,31.12 139.57,30.88 139.89,30.08 140.20,30.94 140.52,30.94 140.84,30.35 141.15,30.61 141.47,29.15 141.78,29.26 142.10,29.40 142.42,29.64 142.73,29.03 143.05,29.11 143.36,30.01 143.68,29.22 144.00,29.05 144.31,29.39 144.63,28.27 144.94,28.28 145.26,28.45 145.58,27.68 145.89,28.18 146.21,28.21 146.52,28.01 146.84,28.01 147.16,28.95 147.47,29.08 147.79,28.92 148.10,28.44 148.42,28.74 148.74,28.15 149.05,27.49 149.37,27.67 149.68,27.17 150.00,26.71 150.32,26.31 150.63,26.00 150.95,25.91 151.26,25.91 151.58,25.89 151.90,25.59 152.21,25.08 152.53,24.88 152.84,24.80 153.16,24.32 153.48,24.56 153.79,24.29 154.11,24.11 154.42,24.53 154.74,24.53 155.06,23.93 155.37,23.42 155.69,23.02 156.00,22.78 156.32,22.71 156.64,22.64 156.95,22.67 157.27,22.89 157.58,23.15 157.90,23.34 158.22,23.46 158.53,23.42 158.85,23.31 159.16,23.10 159.48,23.01 159.80,22.77 160.11,22.57 160.43,22.38 160.74,21.84 161.06,21.61 161.38,20.63 161.69,20.12 162.01,19.62 162.32,19.28 162.64,19.14 162.96,18.90 163.27,18.79 163.59,18.81 163.90,18.23 164.22,18.23 164.54,18.19 164.85,18.16 165.17,17.48 165.48,17.49 165.80,17.52 166.12,16.81 166.43,17.05 166.75,17.39 167.06,17.23 167.38,16.55 167.70,17.30 168.01,16.38 168.33,16.48 168.65,16.48 168.96,16.27 169.28,15.26 169.59,14.85 169.91,14.68 170.23,14.03 170.54,14.95 170.86,14.26 171.17,14.42 171.49,13.40 171.81,13.18 172.12,12.47 172.44,12.82 172.75,12.82 173.07,12.94 173.39,12.20 173.70,12.31 174.02,12.73 174.33,12.42 174.65,12.79 174.97,12.24 175.28,12.23 175.60,12.45 175.91,11.90 176.23,12.15 176.55,12.03 176.86,12.03 177.18,12.22 177.49,12.09 177.81,12.21 178.13,12.26 178.44,11.48 178.76,11.74 179.07,11.44 179.39,11.77 179.71,11.39 180.02,11.45 180.34,11.85 180.65,11.89 180.97,11.89 181.29,11.90 181.60,11.50 181.92,11.53 182.23,11.55 182.55,11.56 182.87,11.21 183.18,11.26 183.50,11.38 183.81,11.59 184.13,11.73 184.45,11.57 184.76,11.29 185.08,11.10 185.39,11.14 185.71,10.98 186.03,10.82 186.34,10.74 186.66,10.74 186.97,10.65 187.29,10.65 187.61,10.59 187.92,10.46 188.24,10.35 188.55,10.24 188.87,9.99 189.19,9.79 189.50,9.59 189.82,9.34 190.13,9.15 190.45,8.81 190.77,8.52 191.08,8.08 191.40,8.01 191.71,7.65 192.03,7.55 192.35,7.07 192.66,7.07 192.98,6.96 193.29,6.79 193.61,6.40 193.93,6.05 194.24,6.08 194.56,5.83 194.87,5.39 195.19,5.27 195.51,5.22 195.82,5.29 196.14,5.24 196.45,5.17 196.77,5.06 197.09,4.97 197.40,4.88 197.72,4.79 198.03,4.70 198.35,4.56 198.67,4.42 198.98,4.03 199.30,54.75 199.61,54.75 199.93,54.75 200.25,54.71 200.56,54.71 200.88,53.66 201.19,53.66 201.51,55.26 201.83,53.64 202.14,53.64 202.46,53.64 202.77,56.00 203.09,56.00 203.41,53.65 203.72,53.65 204.04,53.65 204.35,53.65 204.67,50.87 204.99,52.56 205.30,52.56 205.62,52.56 205.94,52.56 206.25,52.27 206.57,52.27 206.88,52.27 207.20,51.01 207.52,51.01 207.83,51.01 208.15,48.79 208.46,50.44 208.78,50.44 209.10,50.44 209.41,49.27 209.73,49.27 210.04,49.27 210.36,48.47 210.68,48.47 210.99,48.47 211.31,47.06 211.62,47.06 211.94,48.40 212.26,48.40 212.57,48.40 212.89,46.91 213.20,46.91 213.52,46.91 213.84,46.91 214.15,45.66 214.47,45.66 214.78,45.26 215.10,45.26 215.42,47.07 215.73,46.10 216.05,46.10 216.36,45.28 216.68,45.28 217.00,45.28 217.31,44.91 217.63,44.91 217.94,44.91 218.26,44.44 218.58,44.44 218.89,43.85 219.21,43.85 219.52,43.85 219.84,43.32 220.16,43.32 220.47,42.34 220.79,42.34 221.10,42.34 221.42,40.92 221.74,40.92 222.05,40.92 222.37,39.18 222.68,41.97 223.00,39.94 223.32,39.94 223.63,39.94 223.95,38.25 224.26,38.25 224.58,41.27 224.90,39.93 225.21,39.93 225.53,39.93 225.84,38.89 226.16,38.89 226.48,38.89 226.79,37.64 227.11,37.64 227.42,35.92 227.74,37.83 228.06,37.83 228.37,37.83 228.69,35.41 229.00,36.54 229.32,36.54 229.64,36.54 229.95,36.54 230.27,35.64 230.58,35.64 230.90,35.64 231.22,35.64 231.53,33.61 231.85,33.61 232.16,33.61 232.48,35.11 232.80,35.11 233.11,32.45 233.43,32.45 233.74,34.33 234.06,34.33 234.38,31.45 234.69,31.45 235.01,32.88 235.32,32.88 235.64,32.88 235.96,31.92 236.27,31.92 236.59,31.92 236.90,29.85 237.22,30.97 237.54,30.97 237.85,30.97 238.17,33.05 238.48,28.99 238.80,28.99 239.12,29.48 239.43,29.48 239.75,29.48 240.06,30.99 240.38,30.99 240.70,28.24 241.01,28.24 241.33,30.29 241.65,30.29 241.96,30.29 242.28,30.90 242.59,27.51 242.91,27.51 243.23,28.81 243.54,28.81 243.86,28.07 244.17,28.07 244.49,28.07 244.81,27.91 245.12,27.91 245.44,27.91 245.75,26.50 246.07,26.50 246.39,28.95 246.70,27.24 247.02,27.24 247.33,27.24 247.65,26.16 247.97,26.16 248.28,26.16 248.60,26.16 248.91,25.46 249.23,25.46 249.55,25.46 249.86,23.72 250.18,23.72 250.49,25.53 250.81,24.38 251.13,24.38 251.44,24.38 251.76,24.38 252.07,23.33 252.39,23.33 252.71,23.33 253.02,22.38 253.34,22.38 253.65,22.38 253.97,22.39 254.29,22.39 254.60,22.39 254.92,22.86 255.23,22.86 255.55,22.86 255.87,22.81 256.18,22.81 256.50,23.36 256.81,23.36 257.13,22.79 257.45,22.79 257.76,22.10 258.08,20.84 258.39,20.84 258.71,20.84 259.03,19.22 259.34,19.22 259.66,19.22 259.97,18.45 260.29,18.45 260.61,18.45 260.92,18.21 261.24,18.21 261.55,18.21 261.87,18.21 262.19,16.11 262.50,16.11 262.82,16.11 263.13,16.13 263.45,16.13 263.77,16.13 264.08,16.11 264.40,16.11 264.71,16.11 265.03,14.30 265.35,17.39 265.66,17.39 265.98,17.39 266.29,14.21 266.61,14.21 266.93,16.88 267.24,13.98 267.56,13.98 267.87,13.98 268.19,13.98 268.51,11.69 268.82,14.11 269.14,14.11 269.45,11.98 269.77,11.98 270.09,11.98 270.40,11.98 270.72,12.45 271.03,12.45 271.35,12.45 271.67,12.45 271.98,12.18 272.30,12.18 272.61,12.55 272.93,12.55 273.25,12.55 273.56,13.45 273.88,13.45 274.19,11.65 274.51,11.65 274.83,12.98 275.14,12.98 275.46,12.98 275.77,13.83 276.09,11.21 276.41,11.21 276.72,12.14 277.04,12.14 277.35,11.02 277.67,11.02 277.99,11.02 278.30,11.02 278.62,11.01 278.94,11.01 279.25,11.01 279.57,11.14 279.88,11.14 280.20,11.14 280.52,11.40 280.83,11.40 281.15,11.40 281.46,11.48 281.78,11.48 282.10,11.48 282.41,10.94 282.73,10.94 283.04,10.94 283.36,10.51 283.68,10.51 283.99,10.51 284.31,10.51 284.62,10.43 284.94,10.43 285.26,10.05 285.57,10.05 285.89,9.51 286.20,9.51 286.52,9.51 286.84,8.93 287.15,8.93 287.47,8.56 287.78,7.75 288.10,7.75 288.42,7.75 288.73,7.34 289.05,7.34 289.36,6.61 289.68,6.61 290.00,6.18 290.31,6.18 290.63,6.18 290.94,6.11 291.26,6.11 291.58,5.48 291.89,5.48 292.21,5.21 292.52,5.21 292.84,5.44 293.16,5.09 293.47,5.09 293.79,5.09 294.10,4.82 294.42,4.82 294.74,4.82 295.05,4.46 295.37,4.46 295.68,4.46 296.00,4.13" />
</svg>