<svg width="300" height="60" xmlns="http://www.w3.org/2000/svg">
  <polyline fill="rgba(255,200,0,0.3)" stroke="#ffbb00" stroke-width="2" points="4.00,11.23 4.08,11.33 4.17,11.26 4.25,11.27 4.34,11.48 4.42,11.41 4.50,11.29 4.59,11.25 4.67,11.15 4.76,11.05 4.84,10.92 4.92,10.84 5.01,10.77 5.09,10.63 5.18,10.41 5.26,10.26 5.34,10.18 5.43,10.04 5.51,9.63 5.60,9.18 5.68,8.82 5.76,8.61 5.85,8.41 5.93,8.45 6.01,8.78 6.10,8.99 6.18,8.85 6.27,8.49 6.35,8.33 6.43,8.11 6.52,7.73 6.60,7.66 6.69,7.80 6.77,8.05 6.85,8.00 6.94,8.07 7.02,8.10 7.11,8.05 7.19,7.95 7.27,7.83 7.36,7.83 7.44,8.08 7.53,8.21 7.61,8.15 7.69,8.13 7.78,8.14 7.86,8.18 7.95,8.22 8.03,7.97 8.11,7.88 8.20,7.91 8.28,8.11 8.37,8.32 8.45,8.47 8.53,8.51 8.62,8.52 8.70,8.52 8.79,8.47 8.87,8.48 8.95,8.36 9.04,8.23 9.12,8.11 9.21,8.02 9.29,7.88 9.37,7.96 9.46,8.04 9.54,7.94 9.63,7.64 9.71,7.48 9.79,7.26 9.88,7.01 9.96,6.71 10.04,6.63 10.13,6.57 10.21,6.51 10.30,6.12 10.38,5.70 10.46,34.37 10.55,34.22 10.63,34.11 10.72,34.02 10.80,33.95 10.88,33.91 10.97,33.75 11.05,33.70 11.14,33.55 11.22,33.44 11.30,33.35 11.39,33.31 11.47,33.38 11.56,33.17 11.64,32.97 11.72,32.87 11.81,32.78 11.89,32.71 11.98,32.65 12.06,32.61 12.14,32.61 12.23,32.63 12.31,32.65 12.40,32.58 12.48,32.49 12.56,32.42 12.65,32.28 12.73,32.30 12.82,32.26 12.90,32.24 12.98,32.23 13.07,32.24 13.15,32.26 13.24,32.28 13.32,32.29 13.40,32.28 13.49,32.28 13.57,32.25 13.65,32.22 13.74,32.17 13.82,32.11 13.91,32.03 13.99,31.95 14.07,31.87 14.16,31.68 14.24,31.58 14.33,31.44 14.41,31.47 14.49,31.47 14.58,31.40 14.66,31.33 14.75,31.29 14.83,31.23 14.91,31.14 15.00,31.09 15.08,31.04 15.17,31.00 15.25,30.97 15.33,30.97 15.42,31.03 15.50,31.09 15.59,31.12 15.67,31.14 15.75,31.14 15.84,31.12 15.92,31.07 16.01,30.98 16.09,30.85 16.17,30.72 16.26,30.59 16.34,30.47 16.43,30.37 16.51,30.28 16.59,30.19 16.68,30.14 16.76,30.05 16.85,29.95 16.93,29.82 17.01,29.68 17.10,29.51 17.18,29.32 17.27,29.05 17.35,28.86 17.43,28.71 17.52,28.55 17.60,28.49 17.68,28.50 17.77,28.51 17.85,28.49 17.94,28.50 18.02,28.20 18.10,28.34 18.19,28.38 18.27,28.35 18.36,28.31 18.44,28.28 18.52,28.24 18.61,28.17 18.69,28.12 18.78,28.06 18.86,27.99 18.94,27.93 19.03,27.86 19.11,27.82 19.20,27.76 19.28,27.69 19.36,27.63 19.45,27.57 19.53,27.52 19.62,27.47 19.70,27.43 19.78,27.41 19.87,27.38 19.95,27.34 20.04,27.27 20.12,27.18 20.20,27.05 20.29,26.94 20.37,26.80 20.46,26.69 20.54,26.59 20.62,26.49 20.71,26.43 20.79,26.34 20.88,26.25 20.96,26.14 21.04,26.05 21.13,25.96 21.21,25.88 21.29,25.83 21.38,25.77 21.46,25.69 21.55,25.60 21.63,25.51 21.71,25.42 21.80,25.34 21.88,25.27 21.97,25.20 22.05,25.11 22.13,25.03 22.22,24.95 22.30,24.88 22.39,24.80 22.47,24.69 22.55,24.55 22.64,24.26 22.72,24.06 22.81,23.87 22.89,23.80 22.97,23.76 23.06,23.75 23.14,23.53 23.23,23.35 23.31,23.11 23.39,23.26 23.48,23.54 23.56,23.59 23.65,23.24 23.73,23.07 23.81,23.17 23.90,23.02 23.98,23.28 24.07,23.18 24.15,23.01 24.23,22.68 24.32,22.30 24.40,22.40 24.49,22.53 24.57,22.40 24.65,22.38 24.74,22.20 24.82,22.10 24.91,21.91 24.99,21.94 25.07,22.00 25.16,21.95 25.24,21.86 25.32,21.70 25.41,21.53 25.49,21.44 25.58,21.36 25.66,21.32 25.74,21.32 25.83,21.38 25.91,21.48 26.00,21.56 26.08,21.58 26.16,21.54 26.25,21.46 26.33,21.34 26.42,21.17 26.50,21.00 26.58,20.88 26.67,20.81 26.75,20.77 26.84,20.75 26.92,20.70 27.00,20.67 27.09,20.56 27.17,20.47 27.26,20.38 27.34,20.29 27.42,20.20 27.51,20.13 27.59,20.06 27.68,20.01 27.76,20.15 27.84,20.21 27.93,20.14 28.01,19.92 28.10,19.94 28.18,19.65 28.26,19.52 28.35,19.44 28.43,19.64 28.52,19.25 28.60,19.11 28.68,18.94 28.77,18.82 28.85,18.66 28.94,18.52 29.02,18.44 29.10,18.38 29.19,18.30 29.27,18.23 29.35,18.14 29.44,18.01 29.52,17.91 29.61,17.83 29.69,17.75 29.77,17.75 29.86,17.92 29.94,17.93 30.03,17.79 30.11,17.52 30.19,17.46 30.28,17.37 30.36,17.28 30.45,17.23 30.53,17.12 30.61,17.06 30.70,16.94 30.78,16.82 30.87,16.68 30.95,16.56 31.03,16.46 31.12,16.40 31.20,16.38 31.29,16.39 31.37,16.42 31.45,16.45 31.54,16.48 31.62,16.49 31.71,16.52 31.79,16.48 31.87,16.42 31.96,16.33 32.04,16.22 32.13,16.11 32.21,16.02 32.29,15.95 32.38,15.93 32.46,15.92 32.55,15.82 32.63,15.74 32.71,15.63 32.80,15.48 32.88,15.31 32.96,15.12 33.05,15.01 33.13,15.10 33.22,15.02 33.30,14.78 33.38,14.44 33.47,14.49 33.55,14.36 33.64,14.19 33.72,13.85 33.80,13.41 33.89,13.30 33.97,13.26 34.06,13.07 34.14,13.09 34.22,13.01 34.31,12.95 34.39,12.86 34.48,12.68 34.56,12.36 34.64,12.32 34.73,12.51 34.81,12.88 34.90,12.96 34.98,12.82 35.06,12.80 35.15,12.65 35.23,12.60 35.32,12.38 35.40,12.06 35.48,11.77 35.57,11.32 35.65,11.25 35.74,11.35 35.82,11.30 35.90,11.26 35.99,11.47 36.07,11.41 36.16,11.31 36.24,11.21 36.32,11.16 36.41,11.08 36.49,10.86 36.58,10.83 36.66,10.77 36.74,10.65 36.83,10.40 36.91,10.28 36.99,10.17 37.08,9.99 37.16,9.63 37.25,9.21 37.33,8.84 37.41,8.60 37.50,8.44 37.58,8.48 37.67,8.74 37.75,8.98 37.83,8.89 37.92,8.53 38.00,8.31 38.09,8.05 38.17,7.73 38.25,7.77 38.34,7.86 38.42,8.05 38.51,8.08 38.59,8.08 38.67,8.10 38.76,8.07 38.84,7.94 38.93,7.86 39.01,7.78 39.09,8.01 39.18,8.21 39.26,8.15 39.35,8.13 39.43,8.15 39.51,8.18 39.60,8.22 39.68,7.91 39.77,7.87 39.85,7.93 39.93,8.07 40.02,8.27 40.10,8.49 40.19,8.51 40.27,8.52 40.35,8.52 40.44,8.48 40.52,8.47 40.60,8.36 40.69,8.21 40.77,8.13 40.86,8.05 40.94,7.87 41.02,7.91 41.11,8.08 41.19,7.86 41.28,7.63 41.36,7.48 41.44,7.20 41.53,6.99 41.61,6.72 41.70,6.63 41.78,6.57 41.86,6.48 41.95,6.10 42.03,5.69 42.12,55.01 42.20,54.99 42.28,55.07 42.37,55.14 42.45,55.20 42.54,55.23 42.62,55.29 42.70,55.33 42.79,55.37 42.87,55.40 42.96,55.40 43.04,55.36 43.12,55.29 43.21,55.21 43.29,55.14 43.38,55.12 43.46,55.14 43.54,55.19 43.63,55.31 43.71,55.44 43.80,55.52 43.88,55.54 43.96,55.49 44.05,55.42 44.13,55.33 44.22,55.26 44.30,55.23 44.38,55.24 44.47,55.24 44.55,55.25 44.63,55.26 44.72,55.26 44.80,55.21 44.89,55.12 44.97,55.03 45.05,54.93 45.14,54.87 45.22,54.86 45.31,54.87 45.39,54.88 45.47,54.92 45.56,55.00 45.64,54.74 45.73,54.61 45.81,54.42 45.89,54.25 45.98,54.19 46.06,54.17 46.15,54.12 46.23,54.05 46.31,53.96 46.40,53.87 46.48,53.76 46.57,53.69 46.65,53.62 46.73,53.54 46.82,53.43 46.90,53.29 46.99,53.14 47.07,52.82 47.15,52.59 47.24,52.52 47.32,52.69 47.41,52.76 47.49,52.68 47.57,52.56 47.66,52.46 47.74,52.34 47.83,52.18 47.91,52.06 47.99,51.92 48.08,51.85 48.16,51.79 48.24,51.72 48.33,51.64 48.41,51.55 48.50,51.49 48.58,51.42 48.66,51.36 48.75,51.26 48.83,51.16 48.92,50.78 49.00,50.71 49.08,50.74 49.17,50.72 49.25,50.64 49.34,50.54 49.42,50.47 49.50,50.54 49.59,50.54 49.67,50.57 49.76,50.64 49.84,50.74 49.92,50.84 50.01,50.97 50.09,51.03 50.18,51.04 50.26,50.99 50.34,50.90 50.43,50.81 50.51,50.73 50.60,50.68 50.68,50.65 50.76,50.63 50.85,50.62 50.93,50.62 51.02,50.63 51.10,50.64 51.18,50.65 51.27,50.67 51.35,50.69 51.44,50.71 51.52,50.72 51.60,50.71 51.69,50.69 51.77,50.66 51.86,50.62 51.94,50.59 52.02,50.56 52.11,50.53 52.19,50.51 52.27,50.49 52.36,50.46 52.44,50.43 52.53,50.38 52.61,50.32 52.69,50.25 52.78,50.19 52.86,50.11 52.95,50.07 53.03,50.00 53.11,49.87 53.20,49.68 53.28,49.58 53.37,49.41 53.45,49.33 53.53,49.24 53.62,49.22 53.70,49.09 53.79,48.95 53.87,48.79 53.95,48.65 54.04,48.55 54.12,48.49 54.21,48.43 54.29,48.37 54.37,48.33 54.46,48.27 54.54,48.20 54.63,48.08 54.71,47.93 54.79,47.69 54.88,47.42 54.96,47.62 55.05,47.81 55.13,47.78 55.21,47.72 55.30,47.58 55.38,47.27 55.47,47.34 55.55,47.32 55.63,47.29 55.72,47.27 55.80,47.28 55.88,47.27 55.97,47.13 56.05,47.02 56.14,46.64 56.22,46.53 56.30,46.55 56.39,46.54 56.47,46.31 56.56,46.14 56.64,46.27 56.72,46.34 56.81,46.33 56.89,46.30 56.98,46.20 57.06,46.08 57.14,45.99 57.23,45.89 57.31,45.81 57.40,45.71 57.48,45.59 57.56,45.48 57.65,45.36 57.73,45.28 57.82,45.23 57.90,45.19 57.98,45.16 58.07,45.12 58.15,45.05 58.24,44.89 58.32,44.73 58.40,44.63 58.49,44.77 58.57,44.70 58.66,44.64 58.74,44.56 58.82,44.48 58.91,44.44 58.99,44.39 59.08,44.36 59.16,44.34 59.24,44.30 59.33,44.25 59.41,44.19 59.50,44.14 59.58,44.13 59.66,44.12 59.75,44.08 59.83,43.99 59.91,44.09 60.00,44.12 60.08,44.07 60.17,44.08 60.25,43.98 60.33,43.90 60.42,43.79 60.50,43.71 60.59,43.54 60.67,43.34 60.75,43.18 60.84,43.04 60.92,42.91 61.01,42.81 61.09,42.74 61.17,42.56 61.26,42.42 61.34,42.34 61.43,42.19 61.51,42.13 61.59,42.14 61.68,42.14 61.76,42.01 61.85,41.63 61.93,41.44 62.01,41.30 62.10,41.12 62.18,41.01 62.27,40.87 62.35,40.76 62.43,40.63 62.52,40.54 62.60,40.48 62.69,40.42 62.77,40.36 62.85,40.29 62.94,40.22 63.02,40.14 63.11,40.06 63.19,39.99 63.27,39.94 63.36,39.87 63.44,39.75 63.53,39.61 63.61,39.53 63.69,39.46 63.78,39.41 63.86,39.36 63.94,39.31 64.03,39.26 64.11,39.20 64.20,39.14 64.28,39.07 64.36,38.95 64.45,38.83 64.53,38.73 64.62,38.64 64.70,38.57 64.78,38.49 64.87,38.38 64.95,38.29 65.04,38.20 65.12,38.15 65.20,38.11 65.29,38.09 65.37,38.07 65.46,38.08 65.54,38.09 65.62,38.13 65.71,38.10 65.79,38.03 65.88,37.95 65.96,37.86 66.04,37.76 66.13,37.69 66.21,37.61 66.30,37.51 66.38,37.38 66.46,37.22 66.55,37.06 66.63,36.89 66.72,36.79 66.80,36.61 66.88,36.50 66.97,36.44 67.05,35.99 67.14,35.77 67.22,36.03 67.30,35.96 67.39,35.91 67.47,35.83 67.55,35.76 67.64,35.70 67.72,35.65 67.81,35.60 67.89,35.52 67.97,35.43 68.06,35.33 68.14,35.22 68.23,35.12 68.31,35.02 68.39,34.92 68.48,34.83 68.56,34.74 68.65,34.63 68.73,34.52 68.81,34.37 68.90,34.22 68.98,55.01 69.07,54.99 69.15,55.07 69.23,55.14 69.32,55.20 69.40,55.23 69.49,55.28 69.57,55.33 69.65,55.37 69.74,55.40 69.82,55.37 69.91,55.36 69.99,55.29 70.07,55.20 70.16,55.14 70.24,55.11 70.33,55.13 70.41,55.20 70.49,55.32 70.58,55.44 70.66,55.52 70.75,55.54 70.83,55.49 70.91,55.42 71.00,55.33 71.08,55.26 71.17,55.23 71.25,55.24 71.33,55.24 71.42,55.25 71.50,55.26 71.58,55.26 71.67,55.21 71.75,55.12 71.84,55.02 71.92,54.93 72.00,54.87 72.09,54.86 72.17,54.87 72.26,54.88 72.34,54.92 72.42,54.94 72.51,54.74 72.59,54.62 72.68,54.41 72.76,54.18 72.84,54.17 72.93,54.17 73.01,54.11 73.10,54.05 73.18,53.96 73.26,53.87 73.35,53.77 73.43,53.69 73.52,53.62 73.60,53.54 73.68,53.42 73.77,53.29 73.85,53.13 73.94,52.73 74.02,52.55 74.10,52.56 74.19,52.77 74.27,52.76 74.36,52.67 74.44,52.58 74.52,52.45 74.61,52.34 74.69,52.19 74.78,52.06 74.86,51.92 74.94,51.85 75.03,51.78 75.11,51.72 75.19,51.64 75.28,51.56 75.36,51.48 75.45,51.41 75.53,51.35 75.61,51.27 75.70,51.16 75.78,50.71 75.87,50.70 75.95,50.65 76.03,50.70 76.12,50.65 76.20,50.49 76.29,50.51 76.37,50.53 76.45,50.54 76.54,50.56 76.62,50.64 76.71,50.73 76.79,50.84 76.87,50.97 76.96,51.03 77.04,51.04 77.13,50.99 77.21,50.90 77.29,50.81 77.38,50.73 77.46,50.68 77.55,50.65 77.63,50.63 77.71,50.62 77.80,50.62 77.88,50.63 77.97,50.64 78.05,50.65 78.13,50.67 78.22,50.69 78.30,50.71 78.39,50.72 78.47,50.70 78.55,50.69 78.64,50.66 78.72,50.62 78.81,50.58 78.89,50.56 78.97,50.53 79.06,50.52 79.14,50.49 79.22,50.46 79.31,50.43 79.39,50.38 79.48,50.32 79.56,50.25 79.64,50.19 79.73,50.11 79.81,50.06 79.90,49.99 79.98,49.86 80.06,49.71 80.15,49.57 80.23,49.44 80.32,49.33 80.40,49.26 80.48,49.21 80.57,49.09 80.65,48.93 80.74,48.78 80.82,48.66 80.90,48.53 80.99,48.49 81.07,48.43 81.16,48.38 81.24,48.32 81.32,48.27 81.41,48.20 81.49,48.07 81.58,47.94 81.66,47.71 81.74,47.39 81.83,47.59 81.91,47.81 82.00,47.78 82.08,47.71 82.16,47.58 82.25,47.27 82.33,47.36 82.42,47.32 82.50,47.30 82.58,47.27 82.67,47.28 82.75,47.24 82.83,47.14 82.92,47.00 83.00,46.63 83.09,46.54 83.17,46.56 83.25,46.49 83.34,46.36 83.42,46.22 83.51,46.27 83.59,46.34 83.67,46.34 83.76,46.28 83.84,46.21 83.93,46.08 84.01,45.98 84.09,45.90 84.18,45.81 84.26,45.71 84.35,45.60 84.43,45.48 84.51,45.37 84.60,45.29 84.68,45.23 84.77,45.19 84.85,45.16 84.93,45.12 85.02,45.05 85.10,44.91 85.19,44.76 85.27,44.70 85.35,44.75 85.44,44.72 85.52,44.62 85.61,44.56 85.69,44.49 85.77,44.44 85.86,44.39 85.94,44.36 86.03,44.34 86.11,44.30 86.19,44.25 86.28,44.19 86.36,44.14 86.45,44.14 86.53,44.11 86.61,44.08 86.70,44.03 86.78,44.07 86.86,44.18 86.95,44.10 87.03,44.03 87.12,43.98 87.20,43.86 87.28,43.80 87.37,43.67 87.45,43.53 87.54,43.33 87.62,43.18 87.70,43.03 87.79,42.91 87.87,42.80 87.96,42.73 88.04,42.56 88.12,42.46 88.21,42.34 88.29,42.20 88.38,42.13 88.46,42.17 88.54,42.12 88.63,41.93 88.71,41.65 88.80,41.44 88.88,41.29 88.96,41.09 89.05,41.00 89.13,40.88 89.22,40.75 89.30,40.64 89.38,40.54 89.47,40.47 89.55,40.42 89.64,40.36 89.72,40.29 89.80,40.22 89.89,40.14 89.97,40.06 90.06,39.99 90.14,39.93 90.22,39.84 90.31,39.76 90.39,39.62 90.47,39.53 90.56,39.46 90.64,39.41 90.73,39.35 90.81,39.31 90.89,39.26 90.98,39.19 91.06,39.14 91.15,39.06 91.23,38.96 91.31,38.82 91.40,38.74 91.48,38.63 91.57,38.56 91.65,38.49 91.73,38.37 91.82,38.28 91.90,38.21 91.99,38.15 92.07,38.11 92.15,38.09 92.24,38.07 92.32,38.08 92.41,38.09 92.49,38.12 92.57,38.11 92.66,38.03 92.74,37.96 92.83,37.86 92.91,37.76 92.99,37.68 93.08,37.61 93.16,37.50 93.25,37.38 93.33,37.22 93.41,37.05 93.50,36.91 93.58,36.77 93.67,36.62 93.75,36.51 93.83,36.42 93.92,35.99 94.00,35.81 94.09,36.04 94.17,35.96 94.25,35.89 94.34,35.83 94.42,35.75 94.50,35.70 94.59,35.65 94.67,35.59 94.76,35.52 94.84,35.43 94.92,35.33 95.01,35.21 95.09,35.12 95.18,35.03 95.26,34.92 95.34,34.83 95.43,34.73 95.51,34.63 95.60,34.51 95.68,34.38 95.76,34.23 95.85,34.10 95.93,34.02 96.02,33.96 96.10,33.91 96.18,33.80 96.27,33.69 96.35,33.56 96.44,33.45 96.52,33.35 96.60,33.29 96.69,33.31 96.77,33.15 96.86,32.98 96.94,32.86 97.02,32.78 97.11,32.71 97.19,32.66 97.28,32.61 97.36,32.61 97.44,32.64 97.53,32.67 97.61,32.58 97.70,32.49 97.78,32.41 97.86,32.32 97.95,32.29 98.03,32.26 98.12,32.24 98.20,32.23 98.28,32.24 98.37,32.25 98.45,32.29 98.53,32.29 98.62,32.29 98.70,32.28 98.79,32.25 98.87,32.22 98.95,32.17 99.04,32.11 99.12,32.04 99.21,31.95 99.29,31.85 99.37,31.75 99.46,31.57 99.54,31.52 99.63,31.46 99.71,31.48 99.79,31.40 99.88,31.33 99.96,31.28 100.05,31.24 100.13,31.14 100.21,31.08 100.30,31.05 100.38,31.00 100.47,30.97 100.55,30.97 100.63,31.03 100.72,31.09 100.80,31.12 100.89,31.14 100.97,31.14 101.05,31.12 101.14,31.07 101.22,30.97 101.31,30.84 101.39,30.71 101.47,30.59 101.56,30.47 101.64,30.37 101.73,30.28 101.81,30.19 101.89,30.14 101.98,30.05 102.06,29.97 102.14,29.82 102.23,29.69 102.31,29.52 102.40,29.30 102.48,29.07 102.56,28.82 102.65,28.63 102.73,28.61 102.82,28.49 102.90,28.54 102.98,28.48 103.07,28.52 103.15,28.49 103.24,28.20 103.32,28.31 103.40,28.37 103.49,28.35 103.57,28.32 103.66,28.28 103.74,28.22 103.82,28.17 103.91,28.12 103.99,28.06 104.08,28.00 104.16,27.93 104.24,27.87 104.33,27.81 104.41,27.76 104.50,27.69 104.58,27.63 104.66,27.57 104.75,27.52 104.83,27.48 104.92,27.43 105.00,27.41 105.08,27.38 105.17,27.34 105.25,27.26 105.34,27.18 105.42,27.05 105.50,26.93 105.59,26.81 105.67,26.68 105.76,26.59 105.84,26.49 105.92,26.42 106.01,26.34 106.09,26.25 106.17,26.14 106.26,26.05 106.34,25.96 106.43,25.89 106.51,25.83 106.59,25.77 106.68,25.69 106.76,25.60 106.85,25.51 106.93,25.42 107.01,25.34 107.10,25.27 107.18,25.19 107.27,25.12 107.35,25.03 107.43,24.95 107.52,24.87 107.60,24.80 107.69,24.70 107.77,24.55 107.85,24.29 107.94,24.06 108.02,23.88 108.11,23.79 108.19,23.79 108.27,23.74 108.36,23.57 108.44,23.29 108.53,23.14 108.61,23.32 108.69,23.55 108.78,23.60 108.86,23.23 108.95,23.08 109.03,23.10 109.11,23.08 109.20,23.25 109.28,23.18 109.37,23.03 109.45,22.80 109.53,22.33 109.62,22.42 109.70,22.54 109.78,22.39 109.87,22.39 109.95,22.26 110.04,22.11 110.12,21.84 110.20,21.91 110.29,21.99 110.37,21.94 110.46,21.87 110.54,21.68 110.62,21.54 110.71,21.43 110.79,21.37 110.88,21.32 110.96,21.32 111.04,21.39 111.13,21.48 111.21,21.56 111.30,21.58 111.38,21.55 111.46,21.46 111.55,21.33 111.63,21.16 111.72,21.01 111.80,20.89 111.88,20.81 111.97,20.77 112.05,20.75 112.14,20.71 112.22,20.68 112.30,20.60 112.39,20.49 112.47,20.37 112.56,20.29 112.64,20.20 112.72,20.12 112.81,20.06 112.89,20.04 112.98,20.07 113.06,20.17 113.14,20.03 113.23,19.94 113.31,19.94 113.40,19.69 113.48,19.50 113.56,19.46 113.65,19.57 113.73,19.28 113.81,19.08 113.90,18.94 113.98,18.82 114.07,18.66 114.15,18.53 114.23,18.44 114.32,18.37 114.40,18.31 114.49,18.24 114.57,18.13 114.65,18.01 114.74,17.92 114.82,17.83 114.91,17.76 114.99,17.81 115.07,17.94 115.16,17.99 115.24,17.71 115.33,17.53 115.41,17.46 115.49,17.37 115.58,17.28 115.66,17.21 115.75,17.15 115.83,17.08 115.91,16.96 116.00,16.82 116.08,16.68 116.17,16.56 116.25,16.47 116.33,16.40 116.42,16.38 116.50,16.39 116.59,16.42 116.67,16.45 116.75,16.48 116.84,16.49 116.92,16.52 117.01,16.49 117.09,16.42 117.17,16.33 117.26,16.20 117.34,16.11 117.42,16.02 117.51,15.96 117.59,15.94 117.68,15.92 117.76,15.81 117.84,15.74 117.93,15.62 118.01,15.48 118.10,15.30 118.18,15.11 118.26,15.01 118.35,15.12 118.43,15.00 118.52,14.73 118.60,14.42 118.68,14.41 118.77,14.36 118.85,14.20 118.94,13.97 119.02,13.43 119.10,13.26 119.19,13.26 119.27,13.09 119.36,13.07 119.44,13.00 119.52,12.94 119.61,12.84 119.69,12.70 119.78,12.39 119.86,12.31 119.94,12.54 120.03,12.82 120.11,12.96 120.20,12.88 120.28,12.80 120.36,12.68 120.45,12.57 120.53,12.38 120.62,12.13 120.70,11.75 120.78,11.34 120.87,11.23 120.95,11.33 121.04,54.99 121.12,54.97 121.20,55.05 121.29,55.13 121.37,55.20 121.45,55.25 121.54,55.26 121.62,55.32 121.71,55.35 121.79,55.39 121.87,55.27 121.96,55.35 122.04,55.26 122.13,55.20 122.21,55.13 122.29,55.08 122.38,55.14 122.46,55.19 122.55,55.31 122.63,55.44 122.71,55.51 122.80,55.53 122.88,55.47 122.97,55.42 123.05,55.33 123.13,55.27 123.22,55.23 123.30,55.25 123.39,55.25 123.47,55.25 123.55,55.26 123.64,55.26 123.72,55.21 123.81,55.13 123.89,55.01 123.97,54.91 124.06,54.86 124.14,54.86 124.23,54.87 124.31,54.90 124.39,54.88 124.48,54.87 124.56,54.72 124.65,54.59 124.73,54.46 124.81,54.03 124.90,54.25 124.98,54.17 125.06,54.12 125.15,54.04 125.23,53.96 125.32,53.87 125.40,53.75 125.48,53.68 125.57,53.62 125.65,53.55 125.74,53.44 125.82,53.30 125.90,53.02 125.99,52.89 126.07,52.74 126.16,52.65 126.24,52.56 126.32,52.67 126.41,52.67 126.49,52.55 126.58,52.46 126.66,52.29 126.74,52.22 126.83,52.08 126.91,51.96 127.00,51.85 127.08,51.76 127.16,51.72 127.25,51.64 127.33,51.55 127.42,51.47 127.50,51.42 127.58,51.35 127.67,51.28 127.75,51.18 127.84,50.70 127.92,50.75 128.00,50.71 128.09,50.69 128.17,50.54 128.26,50.47 128.34,50.53 128.42,50.54 128.51,50.53 128.59,50.53 128.68,50.66 128.76,50.71 128.84,50.85 128.93,50.98 129.01,51.05 129.09,51.04 129.18,50.99 129.26,50.89 129.35,50.78 129.43,50.73 129.51,50.67 129.60,50.66 129.68,50.63 129.77,50.63 129.85,50.63 129.93,50.63 130.02,50.62 130.10,50.64 130.19,50.67 130.27,50.69 130.35,50.70 130.44,50.71 130.52,50.70 130.61,50.67 130.69,50.65 130.77,50.63 130.86,50.59 130.94,50.55 131.03,50.52 131.11,50.51 131.19,50.49 131.28,50.46 131.36,50.43 131.45,50.37 131.53,50.32 131.61,50.25 131.70,50.18 131.78,50.10 131.87,50.07 131.95,50.01 132.03,49.88 132.12,49.71 132.20,49.55 132.29,49.43 132.37,49.24 132.45,49.10 132.54,49.19 132.62,49.11 132.71,48.96 132.79,48.56 132.87,48.67 132.96,48.49 133.04,48.49 133.12,48.42 133.21,48.37 133.29,48.33 133.38,48.27 133.46,48.21 133.54,48.05 133.63,47.95 133.71,47.54 133.80,47.45 133.88,47.44 133.96,47.75 134.05,47.77 134.13,47.71 134.22,47.55 134.30,47.34 134.38,47.26 134.47,47.30 134.55,47.27 134.64,47.25 134.72,47.32 134.80,47.22 134.89,47.11 134.97,47.05 135.06,46.72 135.14,46.56 135.22,46.53 135.31,46.67 135.39,46.24 135.48,46.01 135.56,46.08 135.64,46.38 135.73,46.36 135.81,46.24 135.90,46.19 135.98,46.07 136.06,45.98 136.15,45.89 136.23,45.81 136.32,45.72 136.40,45.60 136.48,45.48 136.57,45.37 136.65,45.30 136.73,45.23 136.82,45.21 136.90,45.17 136.99,45.10 137.07,45.05 137.15,44.89 137.24,44.75 137.32,44.53 137.41,44.75 137.49,44.66 137.57,44.62 137.66,44.50 137.74,44.48 137.83,44.45 137.91,44.38 137.99,44.36 138.08,44.34 138.16,44.31 138.25,44.26 138.33,44.19 138.41,44.13 138.50,44.13 138.58,44.14 138.67,44.10 138.75,44.01 138.83,44.12 138.92,44.29 139.00,44.08 139.09,44.08 139.17,43.94 139.25,43.92 139.34,43.88 139.42,43.59 139.51,43.49 139.59,43.31 139.67,43.17 139.76,43.02 139.84,42.91 139.93,42.80 140.01,42.71 140.09,42.57 140.18,42.43 140.26,42.28 140.35,42.24 140.43,42.06 140.51,42.19 140.60,42.01 140.68,41.89 140.76,41.68 140.85,41.44 140.93,41.27 141.02,41.10 141.10,41.00 141.18,40.84 141.27,40.76 141.35,40.63 141.44,40.54 141.52,40.46 141.60,40.40 141.69,40.35 141.77,40.29 141.86,40.20 141.94,40.12 142.02,40.04 142.11,39.97 142.19,39.90 142.28,39.81 142.36,39.74 142.44,39.60 142.53,39.50 142.61,39.43 142.70,39.39 142.78,39.35 142.86,39.30 142.95,39.26 143.03,39.20 143.12,39.14 143.20,39.03 143.28,38.94 143.37,38.83 143.45,38.75 143.54,38.63 143.62,38.52 143.70,38.46 143.79,38.36 143.87,38.27 143.96,38.20 144.04,38.14 144.12,38.11 144.21,38.08 144.29,38.07 144.37,38.09 144.46,38.10 144.54,38.11 144.63,38.12 144.71,38.04 144.79,37.95 144.88,37.85 144.96,37.77 145.05,37.67 145.13,37.62 145.21,37.52 145.30,37.36 145.38,37.22 145.47,37.06 145.55,36.79 145.63,36.76 145.72,36.51 145.80,36.50 145.89,36.33 145.97,35.91 146.05,35.65 146.14,36.06 146.22,35.97 146.31,35.90 146.39,35.83 146.47,35.76 146.56,35.70 146.64,35.64 146.73,35.59 146.81,35.54 146.89,35.41 146.98,35.33 147.06,35.20 147.15,35.11 147.23,35.01 147.31,34.92 147.40,34.82 147.48,34.72 147.57,34.64 147.65,34.50 147.73,34.36 147.82,34.22 147.90,34.10 147.99,34.01 148.07,33.95 148.15,33.89 148.24,33.65 148.32,33.68 148.40,33.57 148.49,33.41 148.57,33.33 148.66,33.36 148.74,33.32 148.82,33.13 148.91,32.95 148.99,32.88 149.08,32.78 149.16,32.73 149.24,32.65 149.33,32.61 149.41,32.61 149.50,32.62 149.58,32.64 149.66,32.57 149.75,32.48 149.83,32.37 149.92,32.34 150.00,32.28 150.08,32.26 150.17,32.24 150.25,32.22 150.34,32.24 150.42,32.24 150.50,32.28 150.59,32.29 150.67,32.28 150.76,32.27 150.84,32.25 150.92,32.21 151.01,32.16 151.09,32.10 151.18,32.03 151.26,31.95 151.34,31.84 151.43,31.57 151.51,31.47 151.60,31.45 151.68,31.39 151.76,31.47 151.85,31.40 151.93,31.31 152.01,31.26 152.10,31.20 152.18,31.13 152.27,31.07 152.35,31.05 152.43,30.99 152.52,30.98 152.60,30.98 152.69,31.03 152.77,31.08 152.85,31.11 152.94,31.13 153.02,31.12 153.11,31.11 153.19,31.05 153.27,30.99 153.36,30.85 153.44,30.72 153.53,30.59 153.61,30.45 153.69,30.36 153.78,30.28 153.86,30.19 153.95,30.13 154.03,29.98 154.11,29.94 154.20,29.82 154.28,29.68 154.37,29.48 154.45,29.21 154.53,29.15 154.62,28.94 154.70,28.64 154.79,28.53 154.87,28.35 154.95,28.58 155.04,28.51 155.12,28.40 155.21,28.50 155.29,28.16 155.37,28.39 155.46,28.37 155.54,28.35 155.63,28.32 155.71,28.30 155.79,28.21 155.88,28.18 155.96,28.11 156.04,28.06 156.13,27.99 156.21,27.93 156.30,27.87 156.38,27.80 156.46,27.76 156.55,27.70 156.63,27.62 156.72,27.56 156.80,27.50 156.88,27.48 156.97,27.42 157.05,27.41 157.14,27.38 157.22,27.33 157.30,27.26 157.39,27.17 157.47,27.03 157.56,26.92 157.64,26.81 157.72,26.66 157.81,26.57 157.89,26.48 157.98,26.43 158.06,26.36 158.14,26.21 158.23,26.14 158.31,26.04 158.40,25.95 158.48,25.88 158.56,25.81 158.65,25.77 158.73,25.68 158.82,25.60 158.90,25.49 158.98,25.41 159.07,25.32 159.15,25.26 159.24,25.19 159.32,25.10 159.40,25.02 159.49,24.94 159.57,24.85 159.65,24.79 159.74,24.65 159.82,24.51 159.91,24.28 159.99,24.05 160.07,23.95 160.16,23.77 160.24,23.90 160.33,23.60 160.41,23.45 160.49,23.25 160.58,23.13 160.66,23.37 160.75,23.33 160.83,23.59 160.91,23.23 161.00,22.94 161.08,23.27 161.17,22.93 161.25,23.26 161.33,23.17 161.42,23.07 161.50,22.71 161.59,22.19 161.67,22.10 161.75,22.53 161.84,22.34 161.92,22.31 162.01,22.19 162.09,22.07 162.17,21.90 162.26,21.90 162.34,21.98 162.43,21.93 162.51,21.86 162.59,21.67 162.68,21.53 162.76,21.41 162.85,21.36 162.93,21.31 163.01,21.28 163.10,21.36 163.18,21.48 163.27,21.53 163.35,21.57 163.43,21.55 163.52,21.44 163.60,21.33 163.68,21.18 163.77,21.00 163.85,20.90 163.94,20.82 164.02,20.76 164.10,20.73 164.19,20.68 164.27,20.78 164.36,20.64 164.44,20.51 164.52,20.37 164.61,20.29 164.69,20.19 164.78,20.11 164.86,20.07 164.94,20.10 165.03,20.24 165.11,20.30 165.20,19.94 165.28,20.00 165.36,19.87 165.45,19.73 165.53,19.42 165.62,19.41 165.70,19.69 165.78,19.31 165.87,19.02 165.95,18.98 166.04,18.77 166.12,18.72 166.20,18.52 166.29,18.44 166.37,18.37 166.46,18.29 166.54,18.20 166.62,18.17 166.71,18.01 166.79,17.92 166.88,17.81 166.96,17.80 167.04,17.68 167.13,17.82 167.21,17.90 167.29,17.64 167.38,17.50 167.46,17.46 167.55,17.35 167.63,17.27 167.71,17.17 167.80,17.13 167.88,17.07 167.97,16.92 168.05,16.79 168.13,16.64 168.22,16.55 168.30,16.45 168.39,16.39 168.47,16.35 168.55,16.39 168.64,16.39 168.72,16.44 168.81,16.47 168.89,16.48 168.97,16.50 169.06,16.47 169.14,16.42 169.23,16.32 169.31,16.20 169.39,16.05 169.48,16.01 169.56,15.95 169.65,15.89 169.73,15.91 169.81,15.79 169.90,15.72 169.98,15.60 170.07,15.47 170.15,15.33 170.23,15.12 170.32,15.06 170.40,15.09 170.49,15.03 170.57,14.86 170.65,14.33 170.74,14.49 170.82,14.34 170.91,14.18 170.99,13.94 171.07,13.44 171.16,13.24 171.24,13.29 171.32,13.07 171.41,13.17 171.49,12.96 171.58,12.99 171.66,12.89 171.74,12.49 171.83,12.37 171.91,12.29 172.00,12.54 172.08,12.94 172.16,12.96 172.25,12.89 172.33,12.79 172.42,12.55 172.50,12.44 172.58,12.26 172.67,11.97 172.75,11.93 172.84,11.33 172.92,11.16 173.00,11.32 173.09,11.10 173.17,11.24 173.26,11.20 173.34,11.38 173.42,11.35 173.51,11.28 173.59,11.17 173.68,11.02 173.76,10.71 173.84,10.85 173.93,10.77 174.01,10.57 174.10,10.35 174.18,10.27 174.26,10.24 174.35,9.99 174.43,9.51 174.52,9.13 174.60,8.86 174.68,8.51 174.77,8.49 174.85,8.52 174.94,8.63 175.02,8.96 175.10,8.90 175.19,8.56 175.27,8.45 175.35,7.94 175.44,7.63 175.52,7.99 175.61,7.81 175.69,7.80 175.77,7.87 175.86,7.92 175.94,8.10 176.03,8.11 176.11,7.94 176.19,7.88 176.28,7.75 176.36,8.19 176.45,8.19 176.53,8.14 176.61,8.12 176.70,8.15 176.78,8.16 176.87,8.14 176.95,8.11 177.03,7.87 177.12,7.92 177.20,8.18 177.29,8.25 177.37,8.47 177.45,8.50 177.54,8.51 177.62,8.51 177.71,8.47 177.79,8.50 177.87,8.34 177.96,8.22 178.04,8.16 178.13,7.99 178.21,7.81 178.29,7.77 178.38,7.97 178.46,7.91 178.55,7.64 178.63,7.44 178.71,7.03 178.80,7.00 178.88,6.73 178.96,6.62 179.05,6.56 179.13,6.52 179.22,6.24 179.30,5.56 179.38,54.86 179.47,54.96 179.55,54.99 179.64,55.09 179.72,55.32 179.80,55.03 179.89,55.19 179.97,55.34 180.06,55.19 180.14,55.35 180.22,55.07 180.31,55.37 180.39,55.12 180.48,55.26 180.56,54.99 180.64,54.99 180.73,54.98 180.81,55.25 180.90,55.36 180.98,55.26 181.06,55.50 181.15,55.63 181.23,55.29 181.32,55.40 181.40,55.49 181.48,55.02 181.57,55.16 181.65,55.25 181.74,55.19 181.82,55.19 181.90,55.43 181.99,55.24 182.07,55.39 182.16,54.93 182.24,55.08 182.32,54.97 182.41,54.82 182.49,54.76 182.58,54.80 182.66,54.90 182.74,55.06 182.83,54.76 182.91,54.76 182.99,54.25 183.08,54.26 183.16,53.68 183.25,53.83 183.33,54.01 183.41,54.15 183.50,53.81 183.58,53.94 183.67,53.59 183.75,53.74 183.83,53.41 183.92,53.52 184.00,53.46 184.09,53.10 184.17,53.28 184.25,52.87 184.34,52.97 184.42,52.42 184.51,52.59 184.59,52.30 184.67,52.62 184.76,52.58 184.84,52.55 184.93,52.19 185.01,52.20 185.09,52.20 185.18,51.95 185.26,51.73 185.35,51.54 185.43,51.44 185.51,51.83 185.60,51.71 185.68,51.54 185.77,51.35 185.85,51.50 185.93,51.30 186.02,51.17 186.10,51.31 186.19,50.75 186.27,50.73 186.35,50.68 186.44,50.64 186.52,50.63 186.60,50.27 186.69,50.45 186.77,50.45 186.86,50.27 186.94,50.14 187.02,50.65 187.11,50.69 187.19,50.72 187.28,50.69 187.36,51.04 187.44,50.86 187.53,51.25 187.61,50.95 187.70,50.93 187.78,50.65 187.86,50.75 187.95,50.56 188.03,50.70 188.12,50.55 188.20,50.40 188.28,50.71 188.37,50.63 188.45,50.59 188.54,50.56 188.62,50.55 188.70,50.87 188.79,50.84 188.87,50.78 188.96,50.72 189.04,50.65 189.12,50.57 189.21,50.51 189.29,50.47 189.38,50.56 189.46,50.53 189.54,50.51 189.63,50.49 189.71,50.47 189.80,50.41 189.88,50.30 189.96,50.35 190.05,50.18 190.13,50.21 190.22,50.23 190.30,49.79 190.38,49.70 190.47,49.46 190.55,49.36 190.63,49.20 190.72,49.03 190.80,48.87 190.89,49.39 190.97,49.28 191.05,49.12 191.14,48.31 191.22,48.30 191.31,48.38 191.39,48.51 191.47,48.22 191.56,48.08 191.64,48.34 191.73,48.27 191.81,48.28 191.89,48.16 191.98,47.99 192.06,47.80 192.15,47.45 192.23,47.72 192.31,47.65 192.40,47.80 192.48,47.82 192.57,47.68 192.65,47.50 192.73,47.35 192.82,47.37 192.90,47.38 192.99,47.32 193.07,47.80 193.15,47.55 193.24,47.25 193.32,47.21 193.41,46.69 193.49,46.36 193.57,46.48 193.66,46.76 193.74,46.49 193.83,46.50 193.91,46.11 193.99,46.31 194.08,46.45 194.16,46.17 194.24,46.31 194.33,46.03 194.41,46.18 194.50,45.90 194.58,46.02 194.66,45.75 194.75,45.78 194.83,45.50 194.92,45.54 195.00,45.32 195.08,45.42 195.17,45.21 195.25,45.35 195.34,45.11 195.42,45.22 195.50,44.93 195.59,44.57 195.67,44.71 195.76,44.59 195.84,44.51 195.92,44.48 196.01,44.52 196.09,44.58 196.18,44.44 196.26,44.31 196.34,44.23 196.43,44.21 196.51,44.20 196.60,44.13 196.68,44.06 196.76,44.07 196.85,44.15 196.93,44.28 197.02,43.98 197.10,44.10 197.18,44.38 197.27,44.12 197.35,44.12 197.44,43.95 197.52,43.80 197.60,44.04 197.69,43.97 197.77,43.55 197.86,43.34 197.94,43.44 198.02,43.16 198.11,42.91 198.19,42.91 198.27,42.65 198.36,42.74 198.44,42.72 198.53,42.32 198.61,42.30 198.69,42.27 198.78,42.31 198.86,42.41 198.95,41.87 199.03,41.77 199.11,41.55 199.20,41.07 199.28,40.97 199.37,40.97 199.45,40.97 199.53,41.02 199.62,40.80 199.70,40.64 199.79,40.77 199.87,40.59 199.95,40.45 200.04,40.36 200.12,40.36 200.21,40.29 200.29,40.21 200.37,40.21 200.46,40.15 200.54,40.10 200.63,39.98 200.71,39.81 200.79,39.75 200.88,39.52 200.96,39.67 201.05,39.61 201.13,39.40 201.21,39.30 201.30,39.40 201.38,39.22 201.47,39.49 201.55,39.09 201.63,39.24 201.72,38.65 201.80,38.71 201.88,38.76 201.97,38.87 202.05,38.73 202.14,38.48 202.22,38.22 202.30,38.33 202.39,38.13 202.47,38.33 202.56,38.12 202.64,37.94 202.72,38.24 202.81,38.13 202.89,38.53 202.98,38.10 203.06,38.25 203.14,38.01 203.23,37.77 203.31,37.84 203.40,37.59 203.48,37.76 203.56,37.57 203.65,37.34 203.73,37.47 203.82,37.19 203.90,36.61 203.98,36.34 204.07,36.10 204.15,36.59 204.24,36.44 204.32,36.28 204.40,36.10 204.49,35.96 204.57,35.96 204.66,35.84 204.74,35.77 204.82,35.69 204.91,35.60 204.99,35.88 205.08,35.70 205.16,35.51 205.24,35.41 205.33,35.62 205.41,35.27 205.50,35.41 205.58,35.02 205.66,35.07 205.75,34.67 205.83,34.73 205.91,34.77 206.00,34.27 206.08,34.31 206.17,34.37 206.25,34.04 206.33,34.26 206.42,34.09 206.50,33.63 206.59,33.27 206.67,33.52 206.75,33.67 206.84,33.16 206.92,33.41 207.01,33.21 207.09,33.53 207.17,33.21 207.26,32.78 207.34,32.95 207.43,32.54 207.51,32.78 207.59,32.50 207.68,32.79 207.76,32.67 207.85,32.67 207.93,33.03 208.01,32.50 208.10,32.10 208.18,32.35 208.27,32.01 208.35,32.28 208.43,32.20 208.52,32.26 208.60,32.07 208.69,32.26 208.77,32.26 208.85,32.51 208.94,32.34 209.02,32.32 209.11,32.39 209.19,32.49 209.27,32.22 209.36,32.09 209.44,31.99 209.53,31.86 209.61,32.15 209.69,31.99 209.78,31.82 209.86,31.36 209.94,30.99 210.03,31.45 210.11,31.17 210.20,31.54 210.28,31.36 210.36,31.19 210.45,31.58 210.53,31.32 210.62,31.11 210.70,31.48 210.78,31.03 210.87,30.83 210.95,30.62 211.04,31.18 211.12,31.14 211.20,31.10 211.29,31.09 211.37,31.26 211.46,31.16 211.54,31.04 211.62,31.00 211.71,30.72 211.79,30.87 211.88,30.64 211.96,30.40 212.04,30.62 212.13,30.24 212.21,30.09 212.30,29.94 212.38,30.11 212.46,29.87 212.55,29.87 212.63,29.59 212.72,29.22 212.80,29.36 212.88,29.01 212.97,29.13 213.05,28.67 213.14,28.37 213.22,28.62 213.30,28.44 213.39,28.64 213.47,28.49 213.55,28.53 213.64,28.38 213.72,28.27 213.81,28.55 213.89,28.18 213.97,28.14 214.06,28.50 214.14,28.52 214.23,28.23 214.31,27.94 214.39,27.96 214.48,28.25 214.56,28.09 214.65,27.83 214.73,27.95 214.81,27.63 214.90,27.73 214.98,27.38 215.07,27.51 215.15,27.06 215.23,27.41 215.32,27.27 215.40,27.50 215.49,27.34 215.57,27.46 215.65,27.09 215.74,27.15 215.82,27.18 215.91,26.59 215.99,26.70 216.07,26.90 216.16,26.31 216.24,26.37 216.33,26.37 216.41,26.28 216.49,26.09 216.58,26.36 216.66,26.17 216.75,25.94 216.83,25.92 216.91,25.95 217.00,25.98 217.08,25.98 217.17,25.98 217.25,25.32 217.33,25.34 217.42,25.40 217.50,25.19 217.58,25.19 217.67,25.22 217.75,24.90 217.84,24.88 217.92,24.87 218.00,24.88 218.09,24.63 218.17,24.34 218.26,24.34 218.34,23.97 218.42,24.04 218.51,23.73 218.59,23.96 218.68,23.58 218.76,23.65 218.84,23.04 218.93,23.15 219.01,23.30 219.10,23.44 219.18,23.59 219.26,23.02 219.35,22.58 219.43,23.00 219.52,22.47 219.60,22.70 219.68,22.75 219.77,22.58 219.85,22.51 219.94,22.04 220.02,22.04 220.10,21.99 220.19,22.31 220.27,22.34 220.36,22.22 220.44,22.06 220.52,21.94 220.61,21.90 220.69,21.88 220.78,21.80 220.86,21.83 220.94,21.60 221.03,21.60 221.11,21.49 221.19,21.15 221.28,21.34 221.36,21.09 221.45,21.47 221.53,21.23 221.61,21.75 221.70,21.44 221.78,21.55 221.87,21.56 221.95,21.02 222.03,21.39 222.12,21.18 222.20,20.86 222.29,21.03 222.37,20.82 222.45,20.90 222.54,20.52 222.62,21.11 222.71,20.74 222.79,20.43 222.87,20.60 222.96,20.23 223.04,20.37 223.13,20.18 223.21,20.21 223.29,20.45 223.38,20.05 223.46,20.29 223.55,20.36 223.63,20.05 223.71,19.76 223.80,20.17 223.88,19.94 223.97,19.76 224.05,20.37 224.13,19.74 224.22,19.24 224.30,19.37 224.39,18.98 224.47,19.14 224.55,18.67 224.64,18.70 224.72,18.27 224.81,18.19 224.89,18.10 224.97,18.69 225.06,18.52 225.14,18.35 225.22,18.10 225.31,17.95 225.39,17.84 225.48,17.75 225.56,18.26 225.64,17.94 225.73,17.97 225.81,17.54 225.90,17.33 225.98,17.24 226.06,17.33 226.15,17.34 226.23,17.28 226.32,17.13 226.40,16.89 226.48,16.88 226.57,16.57 226.65,16.55 226.74,16.32 226.82,16.46 226.90,16.38 226.99,16.37 227.07,16.40 227.16,16.42 227.24,16.45 227.32,16.76 227.41,16.65 227.49,16.39 227.58,16.22 227.66,16.13 227.74,15.96 227.83,16.01 227.91,15.92 228.00,16.03 228.08,15.95 228.16,15.88 228.25,15.82 228.33,15.66 228.42,15.55 228.50,15.37 228.58,15.15 228.67,15.02 228.75,15.25 228.83,15.08 228.92,14.64 229.00,14.29 229.09,14.46 229.17,14.53 229.25,14.17 229.34,13.72 229.42,13.52 229.51,13.20 229.59,13.57 229.67,13.39 229.76,13.10 229.84,13.26 229.93,13.16 230.01,12.71 230.09,12.77 230.18,12.55 230.26,12.52 230.35,12.63 230.43,12.77 230.51,12.86 230.60,12.74 230.68,12.63 230.77,12.51 230.85,12.39 230.93,12.25 231.02,12.08 231.10,11.85 231.19,11.78 231.27,11.06 231.35,11.21 231.44,11.41 231.52,11.05 231.61,11.36 231.69,11.08 231.77,11.39 231.86,11.29 231.94,10.90 232.03,11.02 232.11,10.82 232.19,10.67 232.28,10.52 232.36,10.32 232.45,10.26 232.53,10.32 232.61,10.26 232.70,10.12 232.78,9.91 232.86,9.39 232.95,9.12 233.03,8.86 233.12,8.65 233.20,8.61 233.28,8.79 233.37,9.19 233.45,8.65 233.54,8.59 233.62,8.50 233.70,8.37 233.79,8.23 233.87,8.09 233.96,7.95 234.04,7.97 234.12,8.02 234.21,8.05 234.29,8.01 234.38,8.36 234.46,8.20 234.54,8.04 234.63,7.90 234.71,8.30 234.80,8.15 234.88,8.41 234.96,8.27 235.05,8.17 235.13,8.08 235.22,7.95 235.30,7.96 235.38,8.06 235.47,7.89 235.55,8.17 235.64,8.18 235.72,8.44 235.80,8.68 235.89,8.62 235.97,8.54 236.06,8.54 236.14,8.48 236.22,8.37 236.31,8.25 236.39,8.06 236.47,8.06 236.56,7.80 236.64,7.66 236.73,8.13 236.81,7.89 236.89,7.57 236.98,7.32 237.06,6.85 237.15,7.29 237.23,7.08 237.31,6.95 237.40,6.09 237.48,6.06 237.57,6.05 237.65,5.22 237.73,53.60 237.82,54.52 237.90,54.52 237.99,55.09 238.07,55.09 238.15,55.62 238.24,55.62 238.32,55.62 238.41,54.64 238.49,55.49 238.57,55.49 238.66,55.49 238.74,54.58 238.83,55.16 238.91,55.16 238.99,55.16 239.08,55.56 239.16,54.97 239.25,54.97 239.33,54.97 239.41,55.44 239.50,55.44 239.58,53.85 239.67,54.22 239.75,54.22 239.83,54.22 239.92,54.22 240.00,54.50 240.09,54.50 240.17,54.50 240.25,56.00 240.34,54.93 240.42,54.93 240.50,55.55 240.59,55.55 240.67,55.55 240.76,54.14 240.84,54.14 240.92,54.14 241.01,53.98 241.09,53.98 241.18,53.98 241.26,54.23 241.34,54.23 241.43,54.23 241.51,52.62 241.60,52.82 241.68,52.82 241.76,52.82 241.85,53.24 241.93,53.24 242.02,53.24 242.10,53.69 242.18,52.09 242.27,52.09 242.35,52.47 242.44,52.47 242.52,53.55 242.60,53.55 242.69,53.55 242.77,52.45 242.86,52.45 242.94,52.45 243.02,53.09 243.11,53.09 243.19,51.87 243.28,51.87 243.36,52.90 243.44,52.90 243.53,51.96 243.61,51.96 243.70,51.96 243.78,51.44 243.86,51.44 243.95,51.44 244.03,51.01 244.12,51.01 244.20,51.01 244.28,50.31 244.37,51.49 244.45,51.49 244.53,51.49 244.62,51.97 244.70,51.97 244.79,51.97 244.87,51.82 244.95,50.20 245.04,50.20 245.12,50.73 245.21,50.73 245.29,50.20 245.37,50.20 245.46,50.20 245.54,50.05 245.63,50.05 245.71,50.05 245.79,49.77 245.88,51.24 245.96,51.24 246.05,51.24 246.13,50.29 246.21,50.29 246.30,50.29 246.38,50.73 246.47,50.73 246.55,50.73 246.63,50.73 246.72,50.36 246.80,50.36 246.89,50.36 246.97,50.35 247.05,50.35 247.14,50.35 247.22,50.50 247.31,50.50 247.39,50.50 247.47,50.59 247.56,50.59 247.64,50.59 247.73,50.68 247.81,50.68 247.89,50.68 247.98,50.61 248.06,50.61 248.14,50.61 248.23,50.49 248.31,50.49 248.40,50.57 248.48,50.57 248.56,50.57 248.65,50.79 248.73,50.79 248.82,50.67 248.90,50.67 248.98,50.67 249.07,50.44 249.15,50.44 249.24,50.17 249.32,50.17 249.40,50.17 249.49,49.76 249.57,49.76 249.66,49.76 249.74,49.86 249.82,48.00 249.91,48.00 249.99,48.77 250.08,48.77 250.16,48.77 250.24,48.95 250.33,48.95 250.41,48.73 250.50,47.45 250.58,47.45 250.66,47.96 250.75,47.96 250.83,47.96 250.92,48.15 251.00,48.15 251.08,47.98 251.17,47.98 251.25,47.98 251.34,47.92 251.42,47.92 251.50,47.92 251.59,47.16 251.67,48.04 251.76,47.17 251.84,47.17 251.92,47.17 252.01,47.17 252.09,46.37 252.17,48.00 252.26,48.00 252.34,46.85 252.43,46.85 252.51,46.85 252.59,47.68 252.68,47.68 252.76,47.68 252.85,46.51 252.93,46.51 253.01,46.51 253.10,47.32 253.18,47.32 253.27,47.32 253.35,45.97 253.43,45.97 253.52,45.97 253.60,47.02 253.69,47.02 253.77,47.02 253.85,45.65 253.94,45.65 254.02,44.68 254.11,44.68 254.19,44.68 254.27,44.45 254.36,44.45 254.44,44.45 254.53,44.83 254.61,44.83 254.69,44.18 254.78,44.18 254.86,44.18 254.95,44.07 255.03,44.07 255.11,44.07 255.20,44.20 255.28,44.20 255.37,42.61 255.45,43.14 255.53,43.14 255.62,43.14 255.70,43.14 255.78,44.00 255.87,42.35 255.95,42.35 256.04,43.46 256.12,43.46 256.20,41.63 256.29,41.63 256.37,42.49 256.46,42.49 256.54,42.49 256.62,40.52 256.71,41.25 256.79,41.25 256.88,41.25 256.96,41.54 257.04,41.54 257.13,41.54 257.21,41.78 257.30,41.78 257.38,41.78 257.46,41.38 257.55,41.38 257.63,41.38 257.72,41.38 257.80,40.27 257.88,41.44 257.97,41.44 258.05,40.73 258.14,40.73 258.22,40.73 258.30,40.46 258.39,40.46 258.47,40.46 258.56,40.65 258.64,40.63 258.72,40.63 258.81,40.63 258.89,40.66 258.98,40.28 259.06,40.28 259.14,40.28 259.23,40.68 259.31,40.68 259.40,39.63 259.48,39.63 259.56,40.14 259.65,40.14 259.73,39.26 259.81,39.55 259.90,39.55 259.98,39.55 260.07,40.16 260.15,40.16 260.23,40.16 260.32,40.45 260.40,40.45 260.49,39.80 260.57,39.80 260.65,39.80 260.74,38.76 260.82,38.76 260.91,38.76 260.99,37.83 261.07,40.08 261.16,40.08 261.24,39.42 261.33,39.42 261.41,38.40 261.49,38.40 261.58,38.40 261.66,39.37 261.75,39.37 261.83,39.37 261.91,38.24 262.00,38.24 262.08,38.24 262.17,37.21 262.25,37.21 262.33,36.25 262.42,36.25 262.50,38.70 262.59,37.89 262.67,37.89 262.75,37.21 262.84,35.76 262.92,35.76 263.01,35.76 263.09,35.76 263.17,35.08 263.26,35.08 263.34,35.08 263.42,34.48 263.51,34.48 263.59,36.25 263.68,36.25 263.76,34.60 263.84,35.51 263.93,35.51 264.01,35.51 264.10,36.10 264.18,36.10 264.26,36.10 264.35,34.08 264.43,34.08 264.52,34.48 264.60,34.48 264.68,34.48 264.77,35.33 264.85,33.46 264.94,33.46 265.02,33.46 265.10,34.35 265.19,34.35 265.27,34.35 265.36,33.18 265.44,33.18 265.52,33.18 265.61,34.16 265.69,34.16 265.78,31.94 265.86,32.80 265.94,32.80 266.03,32.80 266.11,33.82 266.20,32.17 266.28,32.17 266.36,32.17 266.45,33.36 266.53,33.36 266.62,31.49 266.70,32.38 266.78,32.38 266.87,32.38 266.95,31.45 267.04,32.51 267.12,32.51 267.20,32.51 267.29,32.31 267.37,32.31 267.45,32.94 267.54,32.94 267.62,32.94 267.71,33.31 267.79,33.31 267.87,33.06 267.96,33.06 268.04,33.06 268.13,32.55 268.21,32.55 268.29,31.73 268.38,31.73 268.46,31.73 268.55,33.28 268.63,33.28 268.71,33.28 268.80,32.47 268.88,32.47 268.97,32.47 269.05,31.58 269.13,31.58 269.22,30.74 269.30,30.74 269.39,33.49 269.47,32.86 269.55,32.86 269.64,32.86 269.72,32.18 269.81,32.18 269.89,31.31 269.97,31.31 270.06,31.31 270.14,32.88 270.23,30.98 270.31,30.98 270.39,32.19 270.48,32.19 270.56,30.37 270.65,30.37 270.73,31.28 270.81,31.28 270.90,31.28 270.98,29.47 271.06,30.20 271.15,30.20 271.23,30.20 271.32,30.87 271.40,29.09 271.48,29.09 271.57,29.09 271.65,29.49 271.74,29.49 271.82,28.47 271.90,28.40 271.99,28.40 272.07,28.35 272.16,28.35 272.24,28.35 272.32,28.35 272.41,29.48 272.49,28.14 272.58,28.14 272.66,28.14 272.74,26.82 272.83,28.27 272.91,28.27 273.00,28.27 273.08,29.59 273.16,27.10 273.25,27.10 273.33,27.84 273.42,27.84 273.50,27.84 273.58,28.78 273.67,26.60 273.75,26.60 273.84,27.91 273.92,27.91 274.00,27.91 274.09,28.71 274.17,28.71 274.26,26.27 274.34,26.59 274.42,26.59 274.51,26.99 274.59,26.99 274.68,26.99 274.76,26.84 274.84,26.84 274.93,26.84 275.01,26.21 275.09,26.21 275.18,25.96 275.26,25.96 275.35,25.96 275.43,26.02 275.51,26.02 275.60,26.00 275.68,26.00 275.77,26.00 275.85,26.16 275.93,26.16 276.02,25.08 276.10,25.08 276.19,25.08 276.27,24.93 276.35,24.93 276.44,23.81 276.52,23.88 276.61,23.88 276.69,23.88 276.77,23.88 276.86,22.75 276.94,22.75 277.03,22.75 277.11,23.03 277.19,23.03 277.28,23.03 277.36,23.27 277.45,23.27 277.53,23.27 277.61,21.69 277.70,22.10 277.78,22.10 277.87,22.10 277.95,22.57 278.03,22.57 278.12,22.57 278.20,22.53 278.29,20.84 278.37,20.84 278.45,20.84 278.54,21.56 278.62,21.56 278.71,21.56 278.79,21.42 278.87,21.42 278.96,21.42 279.04,21.20 279.12,21.20 279.21,21.20 279.29,21.60 279.38,21.60 279.46,21.60 279.54,21.60 279.63,20.18 279.71,20.18 279.80,22.01 279.88,21.10 279.96,21.10 280.05,21.10 280.13,21.10 280.22,21.52 280.30,21.52 280.38,21.52 280.47,21.52 280.55,20.01 280.64,21.38 280.72,21.38 280.80,20.52 280.89,20.52 280.97,20.52 281.06,20.90 281.14,20.90 281.22,21.82 281.31,21.82 281.39,21.82 281.48,20.93 281.56,20.93 281.64,20.93 281.73,21.52 281.81,21.52 281.90,21.77 281.98,21.77 282.06,21.77 282.15,21.07 282.23,21.07 282.32,21.07 282.40,20.22 282.48,20.22 282.57,20.22 282.65,20.77 282.73,20.77 282.82,20.77 282.90,19.27 282.99,19.27 283.07,18.34 283.15,18.34 283.24,18.34 283.32,20.45 283.41,20.45 283.49,20.45 283.57,19.80 283.66,19.80 283.74,19.32 283.83,19.32 283.91,19.32 283.99,18.45 284.08,18.45 284.16,18.45 284.25,17.40 284.33,17.40 284.41,17.37 284.50,17.37 284.58,17.37 284.67,17.15 284.75,17.15 284.83,18.41 284.92,17.27 285.00,17.27 285.09,17.27 285.17,16.57 285.25,16.57 285.34,16.44 285.42,16.44 285.51,16.44 285.59,16.55 285.67,18.04 285.76,18.04 285.84,17.29 285.93,17.29 286.01,16.43 286.09,16.43 286.18,16.43 286.26,16.09 286.35,16.98 286.43,16.98 286.51,16.70 286.60,16.70 286.68,16.13 286.76,16.13 286.85,16.13 286.93,15.40 287.02,15.40 287.10,16.24 287.18,16.24 287.27,14.77 287.35,14.77 287.44,15.12 287.52,15.12 287.60,15.12 287.69,13.74 287.77,14.58 287.86,14.58 287.94,14.08 288.02,14.08 288.11,14.08 288.19,13.14 288.28,14.15 288.36,14.15 288.44,13.23 288.53,13.23 288.61,13.23 288.70,13.23 288.78,13.23 288.86,13.23 288.95,13.48 289.03,13.48 289.12,13.17 289.20,13.17 289.28,13.17 289.37,12.74 289.45,12.74 289.54,12.46 289.62,12.46 289.70,12.46 289.79,12.59 289.87,10.79 289.96,10.79 290.04,11.66 290.12,11.66 290.21,11.66 290.29,10.10 290.37,11.38 290.46,11.38 290.54,10.64 290.63,10.64 290.71,10.64 290.79,10.14 290.88,10.14 290.96,10.22 291.05,10.22 291.13,10.22 291.21,9.64 291.30,9.64 291.38,8.87 291.47,8.87 291.55,8.87 291.63,8.78 291.72,8.78 291.80,9.21 291.89,9.21 291.97,9.21 292.05,8.92 292.14,8.92 292.22,8.92 292.31,8.58 292.39,8.58 292.47,8.70 292.56,8.70 292.64,8.70 292.73,8.51 292.81,8.51 292.89,8.04 292.98,8.04 293.06,9.82 293.15,9.20 293.23,9.20 293.31,9.20 293.40,8.64 293.48,8.64 293.57,8.34 293.65,8.34 293.73,8.34 293.82,8.50 293.90,8.50 293.99,7.72 294.07,8.45 294.15,8.45 294.24,8.45 294.32,9.13 294.40,9.13 294.49,8.50 294.57,8.45 294.66,8.45 294.74,8.45 294.82,7.90 294.91,7.90 294.99,7.90 295.08,8.10 295.16,8.10 295.24,8.10 295.33,7.42 295.41,7.42 295.50,6.66 295.58,6.66 295.66,6.66 295.75,6.15 295.83,6.15 295.92,5.98 296.00,4.00" />
</svg>