<svg width="300" height="60" xmlns="http://www.w3.org/2000/svg">
  <polyline fill="rgba(255,200,0,0.3)" stroke="#ffbb00" stroke-width="2" points="4.00,50.92 4.24,51.39 4.48,51.88 4.71,51.79 4.95,51.49 5.19,50.58 5.43,49.64 5.66,48.43 5.90,47.19 6.14,46.00 6.38,45.02 6.61,43.58 6.85,42.28 7.09,40.89 7.33,39.33 7.56,37.72 7.80,36.18 8.04,34.42 8.28,32.88 8.51,31.47 8.75,30.24 8.99,29.13 9.23,28.13 9.46,27.14 9.70,26.36 9.94,25.35 10.18,24.05 10.41,22.95 10.65,21.50 10.89,19.79 11.13,18.20 11.37,16.25 11.60,14.45 11.84,12.75 12.08,11.19 12.32,10.17 12.55,9.61 12.79,9.14 13.03,8.69 13.27,8.67 13.50,8.93 13.74,9.58 13.98,10.18 14.22,10.67 14.45,10.51 14.69,11.33 14.93,11.61 15.17,11.83 15.40,11.15 15.64,10.42 15.88,9.63 16.12,8.69 16.35,8.14 16.59,8.29 16.83,9.31 17.07,10.60 17.31,11.49 17.54,12.76 17.78,14.66 18.02,16.06 18.26,17.74 18.49,17.49 18.73,16.19 18.97,14.51 19.21,13.11 19.44,12.63 19.68,11.74 19.92,11.85 20.16,12.62 20.39,13.29 20.63,13.87 20.87,14.75 21.11,15.23 21.34,15.78 21.58,16.04 21.82,15.27 22.06,13.94 22.29,12.42 22.53,11.89 22.77,12.16 23.01,12.93 23.24,12.32 23.48,8.51 23.72,7.91 23.96,8.09 24.20,10.18 24.43,10.02 24.67,10.62 24.91,11.83 25.15,12.66 25.38,12.24 25.62,12.29 25.86,12.34 26.10,13.02 26.33,13.15 26.57,13.12 26.81,14.98 27.05,15.98 27.28,16.32 27.52,14.56 27.76,11.74 28.00,10.55 28.23,10.42 28.47,11.13 28.71,12.54 28.95,14.80 29.18,14.56 29.42,13.89 29.66,13.26 29.90,13.62 30.14,14.65 30.37,15.27 30.61,12.10 30.85,10.91 31.09,10.41 31.32,10.81 31.56,12.33 31.80,13.66 32.04,15.26 32.27,17.43 32.51,20.11 32.75,22.62 32.99,23.98 33.22,21.62 33.46,19.25 33.70,17.29 33.94,15.63 34.17,14.76 34.41,14.62 34.65,14.68 34.89,14.66 35.12,15.03 35.36,15.69 35.60,16.38 35.84,16.74 36.07,17.36 36.31,17.70 36.55,18.29 36.79,18.93 37.03,19.25 37.26,19.25 37.50,19.29 37.74,19.62 37.98,19.28 38.21,19.86 38.45,20.52 38.69,21.77 38.93,22.77 39.16,22.52 39.40,21.04 39.64,19.83 39.88,19.72 40.11,20.04 40.35,19.88 40.59,19.05 40.83,18.04 41.06,16.63 41.30,14.63 41.54,13.15 41.78,12.58 42.01,13.87 42.25,14.30 42.49,15.96 42.73,18.43 42.97,20.11 43.20,21.56 43.44,21.66 43.68,19.83 43.92,18.02 44.15,18.62 44.39,20.28 44.63,21.87 44.87,24.56 45.10,22.95 45.34,19.06 45.58,15.03 45.82,14.55 46.05,13.61 46.29,14.27 46.53,14.48 46.77,15.89 47.00,17.63 47.24,18.68 47.48,19.71 47.72,20.22 47.95,20.09 48.19,18.60 48.43,18.40 48.67,17.95 48.90,17.62 49.14,17.59 49.38,18.08 49.62,19.59 49.86,21.28 50.09,21.17 50.33,21.48 50.57,21.37 50.81,20.34 51.04,19.87 51.28,20.84 51.52,17.82 51.76,15.55 51.99,13.68 52.23,13.41 52.47,14.27 52.71,15.98 52.94,17.05 53.18,18.07 53.42,19.20 53.66,19.29 53.89,18.36 54.13,18.14 54.37,18.19 54.61,19.39 54.84,19.70 55.08,19.71 55.32,19.30 55.56,17.51 55.79,13.58 56.03,13.61 56.27,14.06 56.51,15.26 56.75,15.36 56.98,16.57 57.22,15.12 57.46,15.63 57.70,16.90 57.93,18.50 58.17,18.47 58.41,18.89 58.65,18.23 58.88,17.79 59.12,18.48 59.36,18.37 59.60,17.85 59.83,19.25 60.07,17.94 60.31,16.56 60.55,16.77 60.78,17.40 61.02,18.39 61.26,17.84 61.50,16.86 61.73,15.57 61.97,16.09 62.21,17.51 62.45,50.86 62.69,51.43 62.92,51.93 63.16,51.87 63.40,51.36 63.64,50.54 63.87,49.70 64.11,48.44 64.35,47.10 64.59,45.99 64.82,44.94 65.06,43.60 65.30,42.29 65.54,40.90 65.77,39.22 66.01,37.73 66.25,36.15 66.49,34.45 66.72,32.99 66.96,31.49 67.20,30.16 67.44,29.24 67.67,28.17 67.91,27.15 68.15,26.15 68.39,25.42 68.62,24.11 68.86,22.95 69.10,21.42 69.34,19.66 69.58,18.19 69.81,16.15 70.05,14.56 70.29,12.77 70.53,11.13 70.76,10.21 71.00,9.59 71.24,9.15 71.48,8.74 71.71,8.57 71.95,9.05 72.19,9.67 72.43,10.20 72.66,10.65 72.90,10.80 73.14,11.16 73.38,11.45 73.61,11.93 73.85,11.08 74.09,10.63 74.33,9.44 74.56,8.62 74.80,8.14 75.04,8.35 75.28,9.19 75.52,10.42 75.75,11.66 75.99,12.79 76.23,14.55 76.47,16.04 76.70,17.82 76.94,17.37 77.18,16.02 77.42,14.42 77.65,13.08 77.89,12.63 78.13,11.52 78.37,11.73 78.60,12.50 78.84,13.22 79.08,13.77 79.32,14.49 79.55,15.32 79.79,15.82 80.03,15.93 80.27,15.28 80.50,13.79 80.74,12.65 80.98,11.99 81.22,12.07 81.45,12.93 81.69,12.38 81.93,8.89 82.17,7.91 82.41,7.96 82.64,10.87 82.88,10.34 83.12,10.97 83.36,11.58 83.59,12.59 83.83,12.09 84.07,12.15 84.31,12.40 84.54,12.88 84.78,12.77 85.02,13.36 85.26,14.67 85.49,15.99 85.73,16.17 85.97,14.44 86.21,11.97 86.44,10.46 86.68,10.47 86.92,11.05 87.16,12.48 87.39,14.76 87.63,14.57 87.87,13.94 88.11,13.30 88.34,13.53 88.58,14.71 88.82,15.25 89.06,11.96 89.30,10.89 89.53,10.40 89.77,11.02 90.01,12.36 90.25,13.58 90.48,15.22 90.72,17.56 90.96,19.98 91.20,22.76 91.43,23.83 91.67,21.62 91.91,19.24 92.15,17.11 92.38,15.73 92.62,14.66 92.86,14.66 93.10,14.44 93.33,15.01 93.57,15.10 93.81,15.56 94.05,16.40 94.28,16.94 94.52,17.31 94.76,17.87 95.00,18.56 95.24,19.00 95.47,19.07 95.71,19.28 95.95,19.41 96.19,19.57 96.42,19.34 96.66,19.75 96.90,20.47 97.14,21.97 97.37,22.82 97.61,22.59 97.85,20.98 98.09,20.03 98.32,19.70 98.56,20.12 98.80,19.64 99.04,19.18 99.27,17.86 99.51,16.58 99.75,14.48 99.99,13.04 100.22,12.59 100.46,13.74 100.70,14.35 100.94,16.19 101.17,18.44 101.41,19.84 101.65,21.50 101.89,21.22 102.13,19.77 102.36,18.09 102.60,18.77 102.84,20.17 103.08,21.79 103.31,24.45 103.55,22.77 103.79,18.79 104.03,14.96 104.26,14.14 104.50,14.00 104.74,14.04 104.98,14.61 105.21,15.82 105.45,17.66 105.69,18.77 105.93,19.78 106.16,20.40 106.40,20.06 106.64,18.73 106.88,18.31 107.11,18.00 107.35,17.79 107.59,17.58 107.83,17.92 108.07,19.62 108.30,21.04 108.54,21.44 108.78,21.54 109.02,21.17 109.25,20.33 109.49,19.99 109.73,21.39 109.97,18.06 110.20,15.26 110.44,13.60 110.68,13.41 110.92,14.29 111.15,16.07 111.39,17.13 111.63,18.23 111.87,19.22 112.10,19.11 112.34,18.69 112.58,17.83 112.82,18.11 113.05,19.00 113.29,20.01 113.53,19.70 113.77,18.91 114.00,17.40 114.24,13.76 114.48,13.94 114.72,13.89 114.96,15.23 115.19,15.45 115.43,16.28 115.67,15.35 115.91,15.98 116.14,16.99 116.38,18.28 116.62,18.47 116.86,18.60 117.09,18.69 117.33,17.91 117.57,18.37 117.81,18.31 118.04,18.08 118.28,19.20 118.52,17.98 118.76,16.49 118.99,16.78 119.23,17.30 119.47,18.63 119.71,17.82 119.94,16.94 120.18,15.37 120.42,16.13 120.66,17.20 120.90,50.68 121.13,51.30 121.37,51.94 121.61,51.84 121.85,51.55 122.08,50.20 122.32,49.82 122.56,48.43 122.80,46.97 123.03,45.79 123.27,44.50 123.51,43.64 123.75,42.33 123.98,40.70 124.22,38.97 124.46,37.57 124.70,35.71 124.93,34.17 125.17,32.76 125.41,31.31 125.65,29.95 125.88,28.97 126.12,28.12 126.36,27.17 126.60,26.00 126.83,25.50 127.07,23.76 127.31,23.07 127.55,20.99 127.79,19.50 128.02,17.87 128.26,15.99 128.50,14.73 128.74,12.85 128.97,11.14 129.21,10.20 129.45,9.99 129.69,9.04 129.92,8.82 130.16,8.53 130.40,8.95 130.64,9.48 130.87,10.38 131.11,10.58 131.35,10.50 131.59,10.94 131.82,11.72 132.06,11.38 132.30,11.01 132.54,10.23 132.77,9.62 133.01,8.64 133.25,7.71 133.49,8.30 133.72,9.67 133.96,10.86 134.20,11.58 134.44,12.63 134.68,14.78 134.91,15.85 135.15,17.78 135.39,17.49 135.63,15.96 135.86,14.23 136.10,13.13 136.34,12.91 136.58,11.23 136.81,11.62 137.05,12.43 137.29,13.85 137.53,13.73 137.76,14.10 138.00,15.41 138.24,15.68 138.48,16.03 138.71,14.91 138.95,14.28 139.19,12.11 139.43,11.63 139.66,11.70 139.90,12.75 140.14,12.02 140.38,8.04 140.62,9.10 140.85,8.37 141.09,11.87 141.33,9.48 141.57,11.58 141.80,12.06 142.04,12.42 142.28,12.06 142.52,12.51 142.75,12.46 142.99,12.98 143.23,12.73 143.47,13.29 143.70,14.34 143.94,15.56 144.18,16.20 144.42,14.10 144.65,11.09 144.89,10.66 145.13,10.08 145.37,11.23 145.60,13.17 145.84,14.71 146.08,14.52 146.32,14.03 146.55,13.64 146.79,13.47 147.03,14.20 147.27,14.32 147.51,12.47 147.74,10.67 147.98,10.79 148.22,10.91 148.46,12.23 148.69,13.57 148.93,15.37 149.17,17.35 149.41,20.40 149.64,22.70 149.88,23.62 150.12,22.30 150.36,19.38 150.59,17.50 150.83,15.12 151.07,14.64 151.31,14.39 151.54,14.40 151.78,14.66 152.02,14.78 152.26,16.42 152.49,16.61 152.73,16.29 152.97,17.39 153.21,18.03 153.45,17.83 153.68,18.80 153.92,18.78 154.16,19.38 154.40,19.01 154.63,19.96 154.87,19.20 155.11,19.81 155.35,20.36 155.58,22.00 155.82,23.04 156.06,22.55 156.30,21.09 156.53,20.06 156.77,19.21 157.01,20.21 157.25,19.97 157.48,19.60 157.72,18.53 157.96,16.76 158.20,14.34 158.43,12.90 158.67,12.33 158.91,13.84 159.15,14.26 159.38,15.67 159.62,17.57 159.86,19.87 160.10,21.70 160.34,20.53 160.57,19.51 160.81,18.51 161.05,18.29 161.29,20.14 161.52,21.63 161.76,24.49 162.00,23.47 162.24,18.64 162.47,15.57 162.71,14.91 162.95,13.35 163.19,14.30 163.42,15.01 163.66,15.65 163.90,17.43 164.14,18.89 164.37,20.14 164.61,20.40 164.85,20.08 165.09,18.71 165.32,18.25 165.56,17.49 165.80,17.02 166.04,17.92 166.28,17.53 166.51,19.09 166.75,20.97 166.99,20.52 167.23,21.96 167.46,21.48 167.70,20.80 167.94,20.36 168.18,21.21 168.41,18.04 168.65,15.58 168.89,13.79 169.13,13.20 169.36,14.15 169.60,15.91 169.84,17.10 170.08,17.93 170.31,18.96 170.55,19.40 170.79,18.59 171.03,17.98 171.26,18.95 171.50,18.31 171.74,19.06 171.98,19.21 172.21,18.55 172.45,16.16 172.69,13.55 172.93,13.84 173.17,15.04 173.40,15.18 173.64,16.04 173.88,15.09 174.12,14.72 174.35,16.35 174.59,17.23 174.83,18.96 175.07,19.30 175.30,19.57 175.54,19.28 175.78,18.60 176.02,19.02 176.25,18.22 176.49,17.27 176.73,19.27 176.97,18.25 177.20,16.71 177.44,16.46 177.68,16.72 177.92,19.28 178.15,16.94 178.39,16.23 178.63,15.57 178.87,16.54 179.10,16.98 179.34,51.47 179.58,52.08 179.82,52.51 180.06,51.24 180.29,51.51 180.53,49.92 180.77,50.17 181.01,47.99 181.24,48.19 181.48,46.16 181.72,44.17 181.96,43.87 182.19,42.27 182.43,41.68 182.67,39.51 182.91,38.56 183.14,36.36 183.38,34.48 183.62,33.19 183.86,31.80 184.09,30.39 184.33,29.71 184.57,28.41 184.81,27.19 185.04,26.09 185.28,24.85 185.52,23.58 185.76,22.26 186.00,20.87 186.23,19.51 186.47,16.80 186.71,15.48 186.95,14.16 187.18,12.14 187.42,10.68 187.66,10.78 187.90,10.00 188.13,9.60 188.37,7.82 188.61,8.07 188.85,10.56 189.08,9.12 189.32,10.57 189.56,11.64 189.80,9.76 190.03,10.37 190.27,12.52 190.51,12.00 190.75,9.86 190.98,9.91 191.22,8.86 191.46,8.30 191.70,8.24 191.93,8.87 192.17,10.22 192.41,10.61 192.65,12.36 192.89,13.27 193.12,14.71 193.36,16.56 193.60,18.17 193.84,18.07 194.07,16.29 194.31,13.87 194.55,13.87 194.79,13.36 195.02,12.43 195.26,12.14 195.50,14.29 195.74,14.46 195.97,12.83 196.21,15.03 196.45,15.95 196.69,15.10 196.92,16.98 197.16,14.20 197.40,13.73 197.64,13.83 197.87,10.90 198.11,11.54 198.35,13.08 198.59,13.08 198.83,9.00 199.06,9.90 199.30,11.34 199.54,13.78 199.78,11.95 200.01,11.06 200.25,13.64 200.49,11.42 200.73,11.35 200.96,11.89 201.20,13.33 201.44,12.74 201.68,12.35 201.91,14.83 202.15,15.72 202.39,15.67 202.63,16.31 202.86,15.50 203.10,10.33 203.34,9.91 203.58,10.30 203.81,11.32 204.05,15.25 204.29,15.54 204.53,13.20 204.76,15.10 205.00,14.59 205.24,15.27 205.48,13.17 205.72,14.04 205.95,12.75 206.19,11.89 206.43,11.41 206.67,11.60 206.90,12.36 207.14,15.09 207.38,16.91 207.62,18.35 207.85,20.72 208.09,23.26 208.33,22.75 208.57,21.67 208.80,20.09 209.04,17.51 209.28,16.80 209.52,16.44 209.75,16.24 209.99,16.19 210.23,16.56 210.47,16.80 210.70,16.95 210.94,17.00 211.18,16.78 211.42,16.44 211.66,19.88 211.89,19.37 212.13,18.71 212.37,17.99 212.61,20.75 212.84,20.29 213.08,20.19 213.32,20.75 213.56,21.41 213.79,20.09 214.03,21.68 214.27,23.37 214.51,21.83 214.74,22.71 214.98,20.61 215.22,19.49 215.46,21.32 215.69,20.15 215.93,21.68 216.17,18.63 216.41,17.19 216.64,14.78 216.88,13.25 217.12,13.37 217.36,14.49 217.59,14.03 217.83,14.06 218.07,18.47 218.31,19.11 218.55,19.62 218.78,18.50 219.02,19.89 219.26,17.95 219.50,17.12 219.73,20.56 219.97,20.19 220.21,23.44 220.45,24.54 220.68,18.07 220.92,15.22 221.16,16.08 221.40,12.90 221.63,14.68 221.87,16.54 222.11,15.54 222.35,15.59 222.58,17.54 222.82,18.78 223.06,20.00 223.30,20.85 223.53,16.80 223.77,16.73 224.01,16.38 224.25,17.53 224.48,16.49 224.72,16.13 224.96,19.81 225.20,20.47 225.44,20.49 225.67,20.20 225.91,19.71 226.15,19.27 226.39,19.00 226.62,18.83 226.86,18.26 227.10,16.82 227.34,13.55 227.57,13.55 227.81,14.04 228.05,15.58 228.29,17.09 228.52,16.70 228.76,19.78 229.00,20.17 229.24,17.17 229.47,17.66 229.71,18.39 229.95,19.27 230.19,19.93 230.42,20.32 230.66,15.76 230.90,15.32 231.14,13.68 231.38,11.44 231.61,13.61 231.85,15.76 232.09,13.05 232.33,15.91 232.56,13.57 232.80,17.31 233.04,16.62 233.28,16.43 233.51,16.58 233.75,16.84 233.99,16.89 234.23,16.47 234.46,16.84 234.70,16.16 234.94,15.35 235.18,20.14 235.41,18.92 235.65,16.91 235.89,15.64 236.13,16.81 236.36,18.74 236.60,17.18 236.84,14.47 237.08,14.47 237.31,16.18 237.55,16.42 237.79,53.32 238.03,56.00 238.27,56.00 238.50,51.88 238.74,51.88 238.98,51.88 239.22,52.94 239.45,52.94 239.69,52.94 239.93,46.23 240.17,46.23 240.40,46.23 240.64,46.23 240.88,44.79 241.12,38.91 241.35,38.91 241.59,35.76 241.83,35.76 242.07,35.76 242.30,29.78 242.54,29.78 242.78,29.78 243.02,26.29 243.25,26.29 243.49,23.04 243.73,23.04 243.97,23.04 244.21,19.55 244.44,19.55 244.68,19.55 244.92,15.67 245.16,15.67 245.39,11.20 245.63,11.20 245.87,11.20 246.11,11.20 246.34,10.16 246.58,10.16 246.82,10.16 247.06,5.50 247.29,13.55 247.53,13.55 247.77,13.55 248.01,8.40 248.24,8.40 248.48,14.48 248.72,14.48 248.96,8.89 249.19,8.89 249.43,15.11 249.67,14.89 249.91,14.89 250.14,14.89 250.38,17.85 250.62,17.85 250.86,11.40 251.10,16.50 251.33,16.50 251.57,18.89 251.81,18.89 252.05,18.89 252.28,21.16 252.52,21.16 252.76,21.16 253.00,21.16 253.23,15.28 253.47,15.28 253.71,21.21 253.95,21.21 254.18,14.60 254.42,14.60 254.66,20.80 254.90,20.80 255.13,17.48 255.37,17.48 255.61,17.48 255.85,16.94 256.08,16.94 256.32,16.94 256.56,16.94 256.80,16.55 257.03,16.55 257.27,16.55 257.51,16.55 257.75,24.00 257.99,24.00 258.22,12.31 258.46,17.99 258.70,17.99 258.94,17.99 259.17,20.24 259.41,20.24 259.65,20.24 259.89,17.60 260.12,17.60 260.36,17.60 260.60,23.21 260.84,15.11 261.07,15.11 261.31,13.81 261.55,13.81 261.79,13.81 262.02,15.38 262.26,15.38 262.50,20.04 262.74,20.04 262.97,14.94 263.21,14.94 263.45,21.40 263.69,21.40 263.93,13.55 264.16,12.57 264.40,12.57 264.64,12.57 264.88,13.23 265.11,13.23 265.35,13.23 265.59,17.52 265.83,17.52 266.06,23.87 266.30,23.87 266.54,23.87 266.78,27.24 267.01,27.24 267.25,27.24 267.49,26.22 267.73,26.22 267.96,26.63 268.20,26.63 268.44,26.63 268.68,26.83 268.91,26.83 269.15,25.56 269.39,25.56 269.63,25.56 269.86,23.85 270.10,23.85 270.34,21.58 270.58,21.58 270.82,21.58 271.05,20.26 271.29,20.26 271.53,20.26 271.77,21.66 272.00,21.66 272.24,25.52 272.48,25.52 272.72,25.52 272.95,30.15 273.19,30.15 273.43,21.03 273.67,25.91 273.90,25.91 274.14,25.91 274.38,30.59 274.62,21.37 274.85,21.37 275.09,21.37 275.33,15.32 275.57,15.32 275.80,15.32 276.04,12.09 276.28,12.09 276.52,18.10 276.76,19.24 276.99,19.24 277.23,18.15 277.47,18.15 277.71,18.15 277.94,15.00 278.18,15.00 278.42,15.00 278.66,18.06 278.89,18.06 279.13,18.06 279.37,14.87 279.61,14.87 279.84,14.87 280.08,7.13 280.32,18.55 280.56,18.55 280.79,15.87 281.03,15.87 281.27,18.58 281.51,18.58 281.74,18.58 281.98,9.16 282.22,9.16 282.46,9.16 282.69,18.72 282.93,18.72 283.17,16.60 283.41,16.60 283.65,16.60 283.88,16.77 284.12,16.77 284.36,15.96 284.60,15.96 284.83,15.96 285.07,14.64 285.31,14.64 285.55,19.40 285.78,19.40 286.02,19.40 286.26,19.40 286.50,19.55 286.73,15.28 286.97,15.28 287.21,15.28 287.45,13.87 287.68,13.87 287.92,13.84 288.16,13.84 288.40,13.84 288.63,14.89 288.87,14.89 289.11,15.48 289.35,15.48 289.59,15.48 289.82,11.42 290.06,11.42 290.30,11.42 290.54,4.00 290.77,18.25 291.01,18.25 291.25,12.71 291.49,12.71 291.72,12.71 291.96,11.42 292.20,11.42 292.44,11.42 292.67,11.71 292.91,11.71 293.15,11.57 293.39,11.57 293.62,11.57 293.86,11.27 294.10,11.27 294.34,10.30 294.57,10.30 294.81,10.30 295.05,12.88 295.29,12.88 295.52,12.88 295.76,15.98 296.00,15.98" />
</svg>