<svg width="300" height="60" xmlns="http://www.w3.org/2000/svg">
  <polyline fill="rgba(255,200,0,0.3)" stroke="#ffbb00" stroke-width="2" points="4.00,23.43 9.31,36.24 14.62,30.63 19.93,27.30 25.24,15.85 30.55,8.72 35.85,11.98 41.16,15.13 46.47,22.00 51.78,30.25 57.09,35.62 62.40,36.44 67.71,34.83 73.02,47.16 78.33,28.63 83.64,40.83 88.95,36.99 94.25,31.20 99.56,21.82 104.87,13.13 110.18,16.18 115.49,17.69 120.80,25.34 126.11,33.87 131.42,37.55 136.73,42.23 142.04,38.89 147.35,52.32 152.65,25.36 157.96,34.05 163.27,30.04 168.58,25.53 173.89,24.55 179.20,13.18 184.51,8.72 189.82,15.07 195.13,24.60 200.44,27.28 205.75,34.80 211.05,39.32 216.36,43.33 221.67,55.21 226.98,31.25 232.29,31.25 237.60,24.06 242.91,24.06 248.22,33.43 253.53,33.43 258.84,4.00 264.15,4.00 269.45,26.74 274.76,26.74 280.07,26.74 285.38,47.64 290.69,47.64 296.00,56.00" />
</svg>