<svg width="300" height="60" xmlns="http://www.w3.org/2000/svg">
  <polyline fill="rgba(255,200,0,0.3)" stroke="#ffbb00" stroke-width="2" points="4.00,4.23 4.22,4.10 4.43,4.15 4.65,4.40 4.87,4.60 5.08,4.93 5.30,5.41 5.51,5.95 5.73,6.54 5.95,7.03 6.16,7.41 6.38,7.54 6.60,7.63 6.81,7.68 7.03,8.04 7.24,8.59 7.46,9.13 7.68,9.52 7.89,9.83 8.11,10.32 8.33,10.77 8.54,11.29 8.76,11.79 8.97,12.27 9.19,12.56 9.41,12.66 9.62,12.75 9.84,13.08 10.06,13.02 10.27,13.06 10.49,13.36 10.71,13.63 10.92,13.98 11.14,14.58 11.35,14.79 11.57,15.08 11.79,15.31 12.00,15.74 12.22,16.07 12.44,16.50 12.65,16.62 12.87,16.92 13.08,17.36 13.30,17.76 13.52,18.32 13.73,19.20 13.95,19.61 14.17,19.56 14.38,19.66 14.60,18.97 14.81,18.19 15.03,18.31 15.25,18.53 15.46,18.80 15.68,19.33 15.90,19.82 16.11,20.14 16.33,20.23 16.55,20.11 16.76,19.28 16.98,18.94 17.19,18.76 17.41,18.73 17.63,18.96 17.84,18.99 18.06,18.91 18.28,18.76 18.49,18.79 18.71,19.30 18.92,18.97 19.14,18.11 19.36,17.07 19.57,16.81 19.79,16.69 20.01,16.59 20.22,16.74 20.44,17.24 20.65,17.76 20.87,18.95 21.09,19.30 21.30,19.28 21.52,18.45 21.74,17.50 21.95,16.49 22.17,15.94 22.39,15.26 22.60,14.60 22.82,14.61 23.03,14.47 23.25,14.43 23.47,14.12 23.68,13.72 23.90,13.33 24.12,13.00 24.33,13.06 24.55,13.31 24.76,13.44 24.98,13.56 25.20,13.67 25.41,13.61 25.63,13.51 25.85,13.56 26.06,13.51 26.28,13.28 26.49,12.86 26.71,12.47 26.93,12.27 27.14,12.39 27.36,12.81 27.58,13.18 27.79,13.36 28.01,13.60 28.23,13.77 28.44,13.82 28.66,13.87 28.87,13.79 29.09,13.71 29.31,13.55 29.52,13.43 29.74,13.29 29.96,13.05 30.17,12.81 30.39,12.47 30.60,12.39 30.82,12.58 31.04,12.95 31.25,13.51 31.47,13.91 31.69,14.09 31.90,14.40 32.12,14.63 32.33,14.75 32.55,14.87 32.77,15.00 32.98,15.06 33.20,15.06 33.42,15.05 33.63,15.03 33.85,15.15 34.07,15.28 34.28,15.56 34.50,15.75 34.71,15.83 34.93,16.64 35.15,17.34 35.36,17.77 35.58,18.01 35.80,18.40 36.01,19.18 36.23,19.43 36.44,19.80 36.66,20.43 36.88,21.20 37.09,21.71 37.31,22.09 37.53,22.40 37.74,22.62 37.96,22.73 38.17,22.99 38.39,23.16 38.61,23.35 38.82,23.52 39.04,24.08 39.26,24.76 39.47,25.15 39.69,25.48 39.91,25.78 40.12,25.91 40.34,25.96 40.55,25.58 40.77,25.43 40.99,25.62 41.20,26.13 41.42,26.21 41.64,26.48 41.85,26.68 42.07,26.81 42.28,26.84 42.50,26.75 42.72,26.60 42.93,26.33 43.15,26.09 43.37,25.75 43.58,25.59 43.80,25.17 44.01,24.98 44.23,24.63 44.45,24.45 44.66,24.46 44.88,24.64 45.10,24.99 45.31,25.20 45.53,25.37 45.75,25.81 45.96,26.20 46.18,26.37 46.39,26.60 46.61,26.76 46.83,26.60 47.04,26.41 47.26,26.32 47.48,26.01 47.69,25.70 47.91,25.45 48.12,25.34 48.34,24.98 48.56,24.43 48.77,23.68 48.99,23.93 49.21,24.49 49.42,24.31 49.64,24.14 49.85,23.54 50.07,22.21 50.29,20.92 50.50,20.86 50.72,21.09 50.94,20.58 51.15,20.52 51.37,20.86 51.59,21.49 51.80,22.14 52.02,22.34 52.23,22.34 52.45,22.20 52.67,22.57 52.88,23.00 53.10,23.20 53.32,23.61 53.53,24.05 53.75,24.29 53.96,24.50 54.18,24.40 54.40,24.52 54.61,24.80 54.83,24.83 55.05,24.85 55.26,24.90 55.48,25.05 55.69,25.22 55.91,25.40 56.13,25.50 56.34,25.58 56.56,25.64 56.78,25.68 56.99,25.85 57.21,25.94 57.43,25.95 57.64,25.98 57.86,26.32 58.07,26.68 58.29,27.22 58.51,27.51 58.72,28.35 58.94,29.19 59.16,28.95 59.37,28.51 59.59,28.50 59.80,29.23 60.02,29.95 60.24,30.74 60.45,32.35 60.67,32.40 60.89,32.52 61.10,32.60 61.32,33.02 61.53,33.49 61.75,34.94 61.97,35.58 62.18,35.29 62.40,35.25 62.62,35.52 62.83,35.89 63.05,36.47 63.27,36.76 63.48,37.45 63.70,37.97 63.91,38.00 64.13,38.42 64.35,39.18 64.56,39.58 64.78,39.97 65.00,40.43 65.21,40.95 65.43,41.20 65.64,41.31 65.86,41.91 66.08,42.50 66.29,42.77 66.51,42.83 66.73,43.06 66.94,43.41 67.16,43.99 67.37,44.63 67.59,45.50 67.81,46.20 68.02,46.75 68.24,47.17 68.46,47.52 68.67,47.97 68.89,48.16 69.11,48.33 69.32,48.35 69.54,48.49 69.75,48.66 69.97,48.73 70.19,48.66 70.40,48.44 70.62,48.55 70.84,49.10 71.05,49.61 71.27,50.53 71.48,50.95 71.70,51.30 71.92,51.81 72.13,52.22 72.35,52.50 72.57,52.82 72.78,53.10 73.00,53.40 73.21,53.57 73.43,53.90 73.65,54.09 73.86,54.26 74.08,54.45 74.30,54.60 74.51,54.66 74.73,54.73 74.95,54.79 75.16,54.79 75.38,54.76 75.59,54.78 75.81,54.83 76.03,55.05 76.24,55.09 76.46,55.50 76.68,55.90 76.89,4.23 77.11,4.09 77.32,4.08 77.54,4.40 77.76,4.63 77.97,5.07 78.19,5.42 78.41,6.11 78.62,6.67 78.84,7.21 79.05,7.51 79.27,7.65 79.49,7.76 79.70,7.79 79.92,8.09 80.14,8.78 80.35,9.19 80.57,9.55 80.79,9.93 81.00,10.38 81.22,10.76 81.43,11.30 81.65,11.88 81.87,12.43 82.08,12.55 82.30,12.64 82.52,12.73 82.73,12.80 82.95,12.87 83.16,13.03 83.38,13.26 83.60,13.28 83.81,13.84 84.03,14.49 84.25,14.80 84.46,15.01 84.68,15.45 84.89,15.55 85.11,15.99 85.33,16.51 85.54,15.55 85.76,15.99 85.98,16.51 86.19,16.70 86.41,16.90 86.63,17.37 86.84,17.83 87.06,18.34 87.27,19.08 87.49,19.72 87.71,19.49 87.92,19.47 88.14,18.29 88.36,18.06 88.57,18.24 88.79,18.49 89.00,18.77 89.22,19.23 89.44,19.83 89.65,20.09 89.87,20.22 90.09,20.11 90.30,18.97 90.52,18.84 90.73,18.83 90.95,18.64 91.17,18.97 91.38,18.66 91.60,18.97 91.82,18.63 92.03,18.62 92.25,18.90 92.47,18.70 92.68,18.11 92.90,16.81 93.11,16.87 93.33,16.63 93.55,16.71 93.76,16.88 93.98,17.39 94.20,17.86 94.41,18.58 94.63,19.25 94.84,19.32 95.06,18.39 95.28,17.58 95.49,16.43 95.71,15.85 95.93,15.37 96.14,14.60 96.36,14.69 96.57,14.49 96.79,14.43 97.01,14.06 97.22,13.67 97.44,13.32 97.66,12.94 97.87,13.04 98.09,13.32 98.31,13.44 98.52,13.69 98.74,13.68 98.95,13.67 99.17,13.54 99.39,13.67 99.60,13.46 99.82,13.34 100.04,12.89 100.25,12.55 100.47,12.36 100.68,12.48 100.90,12.85 101.12,13.18 101.33,13.42 101.55,13.63 101.77,13.80 101.98,13.84 102.20,13.87 102.41,13.87 102.63,13.78 102.85,13.57 103.06,13.33 103.28,13.27 103.50,13.08 103.71,12.87 103.93,12.55 104.15,12.45 104.36,12.55 104.58,12.90 104.79,13.52 105.01,13.88 105.23,14.10 105.44,14.37 105.66,14.63 105.88,14.80 106.09,14.94 106.31,15.02 106.52,15.10 106.74,15.13 106.96,15.05 107.17,15.05 107.39,15.22 107.61,15.33 107.82,15.58 108.04,15.73 108.25,16.07 108.47,16.54 108.69,17.26 108.90,17.78 109.12,18.06 109.34,18.47 109.55,18.98 109.77,19.48 109.99,19.93 110.20,20.45 110.42,20.87 110.63,21.62 110.85,22.18 111.07,22.42 111.28,22.54 111.50,22.71 111.72,23.04 111.93,23.14 112.15,23.31 112.36,23.57 112.58,24.20 112.80,24.70 113.01,25.15 113.23,25.53 113.45,25.81 113.66,25.90 113.88,26.01 114.09,25.51 114.31,25.47 114.53,25.67 114.74,26.09 114.96,26.17 115.18,26.44 115.39,26.68 115.61,26.82 115.83,26.85 116.04,26.74 116.26,26.60 116.47,26.40 116.69,26.09 116.91,25.70 117.12,25.68 117.34,25.24 117.56,25.10 117.77,24.77 117.99,24.55 118.20,24.55 118.42,24.59 118.64,24.84 118.85,24.84 119.07,25.52 119.29,25.84 119.50,26.07 119.72,26.28 119.93,26.62 120.15,26.69 120.37,26.76 120.58,26.48 120.80,26.18 121.02,26.13 121.23,25.69 121.45,25.50 121.67,25.43 121.88,25.24 122.10,24.40 122.31,23.49 122.53,23.75 122.75,24.50 122.96,24.47 123.18,24.06 123.40,23.53 123.61,21.91 123.83,21.68 124.04,21.27 124.26,20.77 124.48,20.73 124.69,20.40 124.91,20.85 125.13,21.40 125.34,22.01 125.56,22.43 125.77,22.48 125.99,22.29 126.21,22.52 126.42,22.86 126.64,23.59 126.86,23.78 127.07,24.03 127.29,24.44 127.51,24.44 127.72,24.33 127.94,24.41 128.15,24.85 128.37,24.77 128.59,24.94 128.80,24.99 129.02,25.04 129.24,25.16 129.45,25.38 129.67,25.51 129.88,25.59 130.10,25.66 130.32,25.70 130.53,25.87 130.75,25.95 130.97,26.00 131.18,26.03 131.40,26.34 131.61,26.63 131.83,27.14 132.05,27.52 132.26,28.94 132.48,29.05 132.70,28.99 132.91,28.36 133.13,28.43 133.35,28.73 133.56,29.70 133.78,30.99 133.99,32.58 134.21,32.46 134.43,32.41 134.64,32.69 134.86,32.91 135.08,33.56 135.29,35.05 135.51,35.67 135.72,35.57 135.94,35.35 136.16,35.54 136.37,35.93 136.59,36.54 136.81,36.83 137.02,37.40 137.24,37.92 137.45,38.01 137.67,38.36 137.89,39.05 138.10,39.55 138.32,39.91 138.54,40.44 138.75,40.90 138.97,41.19 139.19,41.28 139.40,41.84 139.62,42.38 139.83,42.75 140.05,42.82 140.27,42.94 140.48,43.35 140.70,43.91 140.92,44.46 141.13,45.38 141.35,46.13 141.56,46.81 141.78,47.08 142.00,47.44 142.21,47.99 142.43,48.16 142.65,48.34 142.86,48.33 143.08,48.44 143.29,48.64 143.51,48.72 143.73,48.62 143.94,48.42 144.16,48.60 144.38,48.98 144.59,49.44 144.81,50.51 145.03,50.65 145.24,51.06 145.46,51.66 145.67,52.11 145.89,52.42 146.11,52.64 146.32,53.08 146.54,53.27 146.76,53.49 146.97,53.76 147.19,53.92 147.40,54.01 147.62,54.42 147.84,54.62 148.05,54.55 148.27,54.75 148.49,54.77 148.70,54.84 148.92,54.67 149.13,54.80 149.35,54.86 149.57,55.06 149.78,55.13 150.00,55.52 150.22,55.86 150.43,4.26 150.65,4.00 150.87,4.04 151.08,4.39 151.30,4.82 151.51,5.15 151.73,5.60 151.95,6.06 152.16,6.60 152.38,7.13 152.60,7.59 152.81,7.83 153.03,8.01 153.24,7.65 153.46,8.25 153.68,8.82 153.89,9.43 154.11,9.43 154.33,9.85 154.54,10.07 154.76,10.72 154.97,11.22 155.19,11.84 155.41,12.12 155.62,12.45 155.84,12.06 156.06,12.48 156.27,11.92 156.49,12.51 156.71,13.06 156.92,13.06 157.14,13.44 157.35,13.74 157.57,14.70 157.79,14.91 158.00,14.05 158.22,15.15 158.44,15.37 158.65,16.34 158.87,16.49 159.08,17.10 159.30,17.30 159.52,17.11 159.73,17.89 159.95,18.56 160.17,18.67 160.38,19.26 160.60,19.51 160.81,18.77 161.03,18.06 161.25,18.44 161.46,18.12 161.68,18.23 161.90,18.34 162.11,19.83 162.33,20.08 162.55,20.13 162.76,19.50 162.98,20.45 163.19,19.77 163.41,19.08 163.63,18.62 163.84,18.31 164.06,19.37 164.28,18.09 164.49,18.26 164.71,18.52 164.92,18.96 165.14,18.30 165.36,18.67 165.57,18.69 165.79,17.32 166.01,16.50 166.22,16.80 166.44,16.19 166.65,16.69 166.87,17.52 167.09,17.26 167.30,18.52 167.52,19.33 167.74,19.34 167.95,18.45 168.17,17.41 168.39,16.37 168.60,15.41 168.82,15.59 169.03,15.01 169.25,14.67 169.47,14.57 169.68,14.43 169.90,14.24 170.12,13.95 170.33,13.59 170.55,12.83 170.76,12.86 170.98,13.12 171.20,13.37 171.41,13.53 171.63,13.65 171.85,13.79 172.06,13.33 172.28,13.44 172.49,13.46 172.71,13.31 172.93,12.93 173.14,12.52 173.36,12.29 173.58,12.45 173.79,12.79 174.01,12.99 174.23,13.34 174.44,13.91 174.66,13.92 174.87,13.89 175.09,13.88 175.31,13.85 175.52,13.80 175.74,13.55 175.96,13.38 176.17,13.14 176.39,12.83 176.60,12.50 176.82,12.19 177.04,12.38 177.25,12.38 177.47,12.77 177.69,13.08 177.90,13.54 178.12,13.92 178.33,14.28 178.55,14.58 178.77,14.81 178.98,14.93 179.20,14.97 179.42,14.87 179.63,15.34 179.85,14.91 180.07,14.83 180.28,15.45 180.50,15.38 180.71,15.52 180.93,15.52 181.15,15.74 181.36,16.51 181.58,17.16 181.80,17.83 182.01,18.18 182.23,18.03 182.44,17.97 182.66,19.30 182.88,19.44 183.09,19.87 183.31,20.42 183.53,21.22 183.74,22.20 183.96,22.20 184.17,22.58 184.39,22.81 184.61,23.21 184.82,23.19 185.04,22.82 185.26,23.45 185.47,24.50 185.69,24.50 185.91,24.75 186.12,25.59 186.34,25.82 186.55,26.01 186.77,26.07 186.99,25.69 187.20,25.37 187.42,25.48 187.64,25.93 187.85,26.25 188.07,26.55 188.28,26.79 188.50,26.91 188.72,26.85 188.93,26.65 189.15,27.01 189.37,26.42 189.58,26.39 189.80,25.62 190.01,25.77 190.23,24.78 190.45,24.74 190.66,24.28 190.88,24.25 191.10,24.25 191.31,24.25 191.53,24.54 191.75,24.66 191.96,25.42 192.18,26.17 192.39,26.20 192.61,26.20 192.83,26.55 193.04,26.73 193.26,26.72 193.48,26.58 193.69,26.31 193.91,25.99 194.12,25.77 194.34,25.87 194.56,25.44 194.77,25.15 194.99,24.54 195.21,23.84 195.42,23.68 195.64,24.55 195.85,24.36 196.07,24.72 196.29,22.86 196.50,22.57 196.72,21.20 196.94,21.79 197.15,20.90 197.37,20.70 197.59,20.68 197.80,20.43 198.02,21.24 198.23,22.26 198.45,22.02 198.67,22.51 198.88,22.02 199.10,22.58 199.32,23.48 199.53,23.73 199.75,23.32 199.96,24.02 200.18,24.43 200.40,24.12 200.61,24.45 200.83,24.65 201.05,25.15 201.26,24.74 201.48,24.85 201.69,25.13 201.91,25.24 202.13,25.34 202.34,25.55 202.56,25.53 202.78,25.58 202.99,25.50 203.21,25.79 203.43,25.70 203.64,25.70 203.86,26.17 204.07,25.56 204.29,26.11 204.51,25.59 204.72,26.66 204.94,27.57 205.16,28.52 205.37,28.72 205.59,28.12 205.80,27.99 206.02,28.77 206.24,28.87 206.45,29.70 206.67,30.93 206.89,32.58 207.10,33.03 207.32,32.37 207.53,33.21 207.75,32.56 207.97,33.55 208.18,35.33 208.40,35.33 208.62,35.38 208.83,35.28 209.05,35.39 209.27,35.98 209.48,36.49 209.70,36.06 209.91,37.17 210.13,38.35 210.35,38.08 210.56,38.64 210.78,38.64 211.00,39.35 211.21,39.05 211.43,40.49 211.64,41.01 211.86,40.69 212.08,41.37 212.29,41.04 212.51,42.44 212.73,42.33 212.94,42.13 213.16,43.25 213.37,42.28 213.59,43.83 213.81,44.65 214.02,46.11 214.24,45.30 214.46,46.38 214.67,47.41 214.89,47.29 215.11,47.99 215.32,48.12 215.54,48.38 215.75,48.38 215.97,48.52 216.19,48.43 216.40,48.79 216.62,48.27 216.84,48.27 217.05,48.15 217.27,48.58 217.48,49.15 217.70,50.50 217.92,50.50 218.13,50.90 218.35,51.34 218.57,51.82 218.78,52.23 219.00,52.63 219.21,52.98 219.43,53.26 219.65,53.62 219.86,53.71 220.08,53.93 220.30,54.14 220.51,54.22 220.73,54.39 220.95,54.47 221.16,54.84 221.38,54.85 221.59,54.79 221.81,54.79 222.03,54.74 222.24,54.96 222.46,54.96 222.68,55.12 222.89,55.43 223.11,56.00 223.32,4.11 223.54,4.11 223.76,4.43 223.97,4.43 224.19,4.79 224.41,6.03 224.62,6.03 224.84,6.03 225.05,7.21 225.27,7.21 225.49,7.21 225.70,8.56 225.92,8.56 226.14,8.56 226.35,8.56 226.57,9.85 226.79,9.85 227.00,9.85 227.22,9.85 227.43,10.85 227.65,10.85 227.87,10.85 228.08,10.08 228.30,10.08 228.52,12.03 228.73,10.75 228.95,10.75 229.16,10.75 229.38,8.79 229.60,12.16 229.81,12.16 230.03,12.16 230.25,9.55 230.46,12.68 230.68,12.68 230.89,12.68 231.11,12.68 231.33,13.33 231.54,13.33 231.76,13.33 231.98,16.58 232.19,16.58 232.41,16.73 232.63,16.73 232.84,18.77 233.06,18.77 233.27,18.02 233.49,18.02 233.71,18.02 233.92,15.83 234.14,15.83 234.36,15.83 234.57,17.52 234.79,17.52 235.00,17.52 235.22,18.76 235.44,18.76 235.65,18.76 235.87,20.62 236.09,19.77 236.30,19.77 236.52,19.77 236.73,18.43 236.95,18.43 237.17,18.43 237.38,18.38 237.60,18.38 237.82,18.38 238.03,15.76 238.25,15.76 238.47,15.76 238.68,16.91 238.90,16.91 239.11,15.11 239.33,15.11 239.55,15.11 239.76,17.45 239.98,17.45 240.20,17.45 240.41,17.45 240.63,18.64 240.84,18.64 241.06,18.64 241.28,16.43 241.49,16.43 241.71,16.43 241.93,16.43 242.14,14.36 242.36,14.36 242.57,14.36 242.79,13.66 243.01,13.66 243.22,13.66 243.44,13.02 243.66,13.02 243.87,13.02 244.09,13.33 244.31,13.33 244.52,13.33 244.74,13.81 244.95,11.98 245.17,11.98 245.39,12.11 245.60,12.11 245.82,12.11 246.04,12.13 246.25,12.13 246.47,12.13 246.68,12.99 246.90,12.99 247.12,12.99 247.33,13.66 247.55,14.97 247.77,14.97 247.98,14.97 248.20,14.59 248.41,14.59 248.63,14.59 248.85,13.41 249.06,13.41 249.28,13.41 249.50,12.44 249.71,12.44 249.93,12.44 250.15,12.44 250.36,13.09 250.58,13.09 250.79,13.09 251.01,14.15 251.23,14.15 251.44,14.15 251.66,15.17 251.88,15.17 252.09,15.17 252.31,15.09 252.52,17.26 252.74,17.26 252.96,15.63 253.17,15.63 253.39,17.86 253.61,17.86 253.82,17.86 254.04,16.00 254.25,17.51 254.47,17.51 254.69,18.89 254.90,17.44 255.12,17.44 255.34,17.44 255.55,16.92 255.77,16.92 255.99,16.92 256.20,17.73 256.42,17.73 256.63,22.21 256.85,22.21 257.07,22.21 257.28,22.21 257.50,23.74 257.72,23.74 257.93,23.74 258.15,24.06 258.36,24.06 258.58,24.06 258.80,24.06 259.01,25.22 259.23,25.22 259.45,25.22 259.66,26.60 259.88,26.60 260.09,26.60 260.31,25.94 260.53,25.94 260.74,25.94 260.96,26.94 261.18,26.94 261.39,26.94 261.61,27.20 261.83,27.20 262.04,27.20 262.26,27.20 262.47,25.49 262.69,25.49 262.91,27.63 263.12,24.82 263.34,24.82 263.56,24.82 263.77,23.85 263.99,23.85 264.20,23.85 264.42,22.59 264.64,24.29 264.85,24.29 265.07,24.29 265.29,26.36 265.50,26.36 265.72,26.36 265.93,26.36 266.15,27.17 266.37,27.17 266.58,27.17 266.80,26.61 267.02,26.61 267.23,26.61 267.45,25.91 267.67,25.91 267.88,25.91 268.10,24.05 268.31,26.02 268.53,26.02 268.75,26.02 268.96,26.99 269.18,22.57 269.40,22.57 269.61,23.29 269.83,23.29 270.04,23.29 270.26,20.77 270.48,22.16 270.69,22.16 270.91,22.16 271.13,21.98 271.34,21.98 271.56,24.49 271.77,23.93 271.99,23.93 272.21,23.93 272.42,26.89 272.64,24.94 272.86,24.94 273.07,24.94 273.29,24.94 273.51,26.02 273.72,26.02 273.94,26.02 274.15,26.02 274.37,26.07 274.59,26.07 274.80,26.07 275.02,26.07 275.24,26.19 275.45,26.19 275.67,26.19 275.88,27.82 276.10,25.97 276.32,25.97 276.53,25.97 276.75,25.97 276.97,25.98 277.18,25.98 277.40,24.62 277.61,24.10 277.83,24.10 278.05,24.10 278.26,24.84 278.48,24.84 278.70,29.66 278.91,29.66 279.13,26.81 279.35,29.85 279.56,29.85 279.78,29.85 279.99,33.57 280.21,31.63 280.43,31.63 280.64,31.63 280.86,34.99 281.08,33.92 281.29,33.92 281.51,33.92 281.72,33.92 281.94,34.68 282.16,34.68 282.37,34.68 282.59,31.55 282.81,35.11 283.02,35.11 283.24,35.11 283.45,35.83 283.67,35.83 283.89,40.18 284.10,40.18 284.32,39.54 284.54,39.54 284.75,39.54 284.97,41.62 285.19,40.43 285.40,40.43 285.62,40.43 285.83,38.66 286.05,38.66 286.27,38.66 286.48,41.44 286.70,41.44 286.92,41.44 287.13,45.10 287.35,45.10 287.56,45.10 287.78,45.10 288.00,48.25 288.21,48.25 288.43,48.25 288.65,48.25 288.86,48.62 289.08,48.62 289.29,49.94 289.51,48.63 289.73,48.63 289.94,48.63 290.16,48.32 290.38,48.32 290.59,48.32 290.81,48.32 291.03,49.97 291.24,49.97 291.46,49.97 291.67,52.12 291.89,52.12 292.11,52.12 292.32,53.73 292.54,53.73 292.76,53.73 292.97,54.07 293.19,54.07 293.40,54.07 293.62,54.52 293.84,54.52 294.05,55.17 294.27,55.88 294.49,55.88 294.70,55.88 294.92,55.88 295.13,55.65 295.35,55.65 295.57,55.65 295.78,55.76 296.00,55.76" />
</svg>