<svg width="300" height="60" xmlns="http://www.w3.org/2000/svg">
  <polyline fill="rgba(255,200,0,0.3)" stroke="#ffbb00" stroke-width="2" points="4.00,40.82 4.34,43.65 4.69,43.35 5.03,43.80 5.37,44.47 5.72,44.95 6.06,46.48 6.40,47.69 6.75,48.31 7.09,47.41 7.43,45.90 7.77,46.05 8.12,45.74 8.46,46.87 8.80,47.50 9.15,48.02 9.49,48.46 9.83,50.24 10.18,52.61 10.52,54.49 10.86,55.77 11.21,56.00 11.55,54.91 11.89,54.38 12.24,54.57 12.58,54.97 12.92,55.07 13.26,53.85 13.61,53.26 13.95,53.50 14.29,53.52 14.64,53.18 14.98,52.04 15.32,51.67 15.67,50.47 16.01,50.50 16.35,51.06 16.70,51.61 17.04,51.93 17.38,52.15 17.73,52.00 18.07,49.36 18.41,46.56 18.75,44.73 19.10,44.29 19.44,44.25 19.78,44.70 20.13,46.13 20.47,46.89 20.81,49.09 21.16,53.16 21.50,52.78 21.84,52.77 22.19,52.74 22.53,52.56 22.87,52.40 23.22,52.17 23.56,51.52 23.90,51.28 24.24,51.00 24.59,50.42 24.93,50.08 25.27,50.49 25.62,50.29 25.96,50.81 26.30,51.14 26.65,50.69 26.99,50.62 27.33,50.91 27.68,50.92 28.02,50.46 28.36,50.23 28.71,49.94 29.05,49.54 29.39,48.26 29.73,46.92 30.08,45.42 30.42,45.80 30.76,46.40 31.11,46.80 31.45,46.81 31.79,47.08 32.14,46.59 32.48,46.12 32.82,46.03 33.17,46.15 33.51,45.92 33.85,45.71 34.20,45.36 34.54,44.71 34.88,44.34 35.22,43.79 35.57,43.32 35.91,43.00 36.25,42.89 36.60,42.48 36.94,41.99 37.28,41.79 37.63,41.79 37.97,42.16 38.31,42.84 38.66,43.41 39.00,42.41 39.34,41.13 39.69,40.35 40.03,38.58 40.37,37.42 40.71,36.88 41.06,36.47 41.40,35.95 41.74,37.35 42.09,37.92 42.43,37.58 42.77,36.16 43.12,34.58 43.46,32.71 43.80,32.27 44.15,31.78 44.49,31.37 44.83,31.98 45.18,33.17 45.52,35.40 45.86,37.26 46.20,36.53 46.55,34.31 46.89,32.78 47.23,30.97 47.58,29.38 47.92,28.13 48.26,26.78 48.61,25.85 48.95,25.11 49.29,24.01 49.64,23.19 49.98,22.86 50.32,22.50 50.67,22.02 51.01,21.99 51.35,21.94 51.69,21.89 52.04,21.74 52.38,21.84 52.72,22.35 53.07,25.92 53.41,23.97 53.75,22.71 54.10,20.98 54.44,20.37 54.78,20.70 55.13,22.41 55.47,22.63 55.81,21.03 56.16,19.77 56.50,18.60 56.84,17.66 57.18,17.16 57.53,17.04 57.87,17.60 58.21,18.26 58.56,19.02 58.90,19.37 59.24,18.76 59.59,17.60 59.93,16.78 60.27,15.98 60.62,15.27 60.96,14.63 61.30,14.84 61.65,15.22 61.99,15.26 62.33,15.72 62.67,15.76 63.02,16.84 63.36,17.60 63.70,18.94 64.05,17.54 64.39,15.85 64.73,15.57 65.08,15.23 65.42,15.04 65.76,14.60 66.11,13.35 66.45,12.59 66.79,11.89 67.14,11.09 67.48,10.32 67.82,10.23 68.16,10.14 68.51,9.94 68.85,10.74 69.19,11.19 69.54,11.30 69.88,11.82 70.22,11.94 70.57,11.67 70.91,9.39 71.25,8.13 71.60,8.39 71.94,8.16 72.28,7.89 72.63,7.24 72.97,6.91 73.31,6.55 73.65,5.93 74.00,5.49 74.34,5.33 74.68,5.15 75.03,5.07 75.37,5.14 75.71,4.94 76.06,4.84 76.40,4.66 76.74,4.25 77.09,40.76 77.43,43.38 77.77,43.22 78.12,43.52 78.46,44.38 78.80,45.05 79.14,46.15 79.49,47.62 79.83,48.20 80.17,47.09 80.52,46.33 80.86,46.01 81.20,45.84 81.55,46.95 81.89,47.49 82.23,47.90 82.58,48.47 82.92,49.54 83.26,52.28 83.61,54.64 83.95,55.73 84.29,55.76 84.63,54.65 84.98,54.25 85.32,54.61 85.66,54.95 86.01,55.07 86.35,53.63 86.69,53.13 87.04,53.70 87.38,53.73 87.72,52.46 88.07,52.11 88.41,51.76 88.75,50.16 89.10,50.24 89.44,51.19 89.78,51.58 90.12,51.87 90.47,52.06 90.81,51.81 91.15,49.17 91.50,46.74 91.84,44.39 92.18,44.73 92.53,43.72 92.87,44.36 93.21,46.68 93.56,46.23 93.90,48.58 94.24,52.95 94.59,52.62 94.93,52.87 95.27,52.99 95.61,52.55 95.96,52.73 96.30,52.00 96.64,51.33 96.99,51.14 97.33,51.08 97.67,50.59 98.02,50.20 98.36,50.55 98.70,50.46 99.05,50.86 99.39,51.08 99.73,50.59 100.08,50.44 100.42,50.56 100.76,50.69 101.10,50.43 101.45,49.91 101.79,49.92 102.13,49.53 102.48,48.16 102.82,47.05 103.16,45.59 103.51,45.84 103.85,46.54 104.19,46.81 104.54,46.68 104.88,46.85 105.22,46.51 105.57,46.14 105.91,46.10 106.25,46.14 106.59,45.90 106.94,45.68 107.28,45.06 107.62,44.85 107.97,44.33 108.31,43.56 108.65,43.39 109.00,42.85 109.34,43.01 109.68,42.47 110.03,42.10 110.37,41.62 110.71,41.73 111.06,42.40 111.40,43.03 111.74,43.40 112.08,42.05 112.43,40.89 112.77,39.98 113.11,39.61 113.46,37.36 113.80,36.37 114.14,36.32 114.49,35.85 114.83,37.30 115.17,37.31 115.52,37.16 115.86,35.98 116.20,34.10 116.55,32.70 116.89,31.82 117.23,31.41 117.57,31.70 117.92,31.84 118.26,33.14 118.60,35.07 118.95,37.20 119.29,36.61 119.63,34.45 119.98,32.86 120.32,30.72 120.66,29.37 121.01,27.89 121.35,27.04 121.69,26.17 122.04,24.53 122.38,23.97 122.72,23.14 123.06,22.62 123.41,21.93 123.75,21.65 124.09,21.44 124.44,21.41 124.78,21.59 125.12,21.53 125.47,21.64 125.81,22.10 126.15,25.84 126.50,24.36 126.84,22.44 127.18,20.72 127.53,20.03 127.87,20.58 128.21,21.56 128.55,21.60 128.90,20.93 129.24,19.36 129.58,18.50 129.93,17.33 130.27,17.32 130.61,16.56 130.96,17.44 131.30,18.00 131.64,19.18 131.99,18.98 132.33,18.31 132.67,17.81 133.02,16.95 133.36,15.57 133.70,15.02 134.04,14.83 134.39,14.25 134.73,15.31 135.07,14.85 135.42,15.31 135.76,15.65 136.10,16.74 136.45,17.12 136.79,18.93 137.13,17.36 137.48,15.89 137.82,15.43 138.16,15.18 138.51,14.78 138.85,14.12 139.19,13.11 139.53,12.54 139.88,11.74 140.22,10.87 140.56,10.39 140.91,9.97 141.25,9.96 141.59,10.03 141.94,10.84 142.28,10.84 142.62,11.68 142.97,11.91 143.31,12.13 143.65,11.25 144.00,9.35 144.34,8.12 144.68,7.97 145.02,8.05 145.37,7.92 145.71,7.12 146.05,6.92 146.40,6.38 146.74,5.47 147.08,5.41 147.43,5.35 147.77,4.60 148.11,4.96 148.46,4.98 148.80,4.83 149.14,4.75 149.49,4.47 149.83,4.17 150.17,41.40 150.51,43.04 150.86,43.20 151.20,43.45 151.54,44.15 151.89,44.93 152.23,45.77 152.57,47.61 152.92,47.58 153.26,46.59 153.60,47.02 153.95,46.41 154.29,46.74 154.63,47.07 154.98,46.80 155.32,48.41 155.66,48.57 156.00,51.71 156.35,52.84 156.69,53.99 157.03,54.86 157.38,55.06 157.72,53.70 158.06,53.61 158.41,53.84 158.75,54.23 159.09,54.48 159.44,53.96 159.78,53.46 160.12,53.71 160.47,53.73 160.81,53.84 161.15,53.61 161.49,52.84 161.84,49.85 162.18,50.25 162.52,50.83 162.87,51.33 163.21,51.68 163.55,52.32 163.90,50.93 164.24,48.43 164.58,46.06 164.93,43.21 165.27,45.85 165.61,45.85 165.96,43.27 166.30,44.60 166.64,47.27 166.98,47.90 167.33,51.76 167.67,52.81 168.01,52.90 168.36,52.64 168.70,52.54 169.04,52.38 169.39,52.09 169.73,51.57 170.07,51.08 170.42,50.53 170.76,50.87 171.10,50.44 171.45,50.23 171.79,50.71 172.13,50.71 172.47,50.99 172.82,50.78 173.16,50.57 173.50,50.51 173.85,50.56 174.19,50.34 174.53,50.10 174.88,49.87 175.22,48.98 175.56,47.52 175.91,45.68 176.25,45.45 176.59,45.45 176.94,46.04 177.28,47.01 177.62,46.83 177.96,46.83 178.31,46.47 178.65,46.15 178.99,45.91 179.34,46.12 179.68,46.12 180.02,46.09 180.37,45.30 180.71,44.97 181.05,44.05 181.40,43.83 181.74,42.87 182.08,42.99 182.43,42.99 182.77,43.10 183.11,42.07 183.45,42.11 183.80,41.40 184.14,42.52 184.48,43.23 184.83,43.23 185.17,42.59 185.51,41.25 185.86,38.30 186.20,40.13 186.54,39.54 186.89,36.88 187.23,35.57 187.57,35.48 187.92,38.83 188.26,36.75 188.60,36.72 188.94,35.91 189.29,34.47 189.63,32.50 189.97,32.83 190.32,30.77 190.66,33.21 191.00,34.02 191.35,32.94 191.69,35.99 192.03,36.97 192.38,36.97 192.72,35.80 193.06,33.73 193.41,31.70 193.75,29.73 194.09,28.04 194.43,26.81 194.78,25.89 195.12,25.14 195.46,24.68 195.81,24.43 196.15,22.06 196.49,22.34 196.84,22.97 197.18,21.18 197.52,22.24 197.87,22.89 198.21,22.42 198.55,22.69 198.90,22.69 199.24,26.52 199.58,24.27 199.92,21.99 200.27,20.12 200.61,21.80 200.95,21.80 201.30,21.90 201.64,21.90 201.98,20.52 202.33,18.71 202.67,19.83 203.01,17.66 203.36,17.63 203.70,16.48 204.04,17.58 204.39,19.13 204.73,19.13 205.07,20.32 205.41,18.68 205.76,18.63 206.10,16.65 206.44,16.34 206.79,14.84 207.13,15.35 207.47,15.14 207.82,15.14 208.16,15.34 208.50,15.80 208.85,15.39 209.19,16.50 209.53,17.40 209.88,18.59 210.22,16.72 210.56,15.89 210.90,15.65 211.25,15.56 211.59,14.33 211.93,13.31 212.28,13.56 212.62,12.34 212.96,12.34 213.31,11.07 213.65,11.58 213.99,11.04 214.34,9.71 214.68,10.65 215.02,10.63 215.37,12.42 215.71,12.81 216.05,11.30 216.39,12.50 216.74,10.99 217.08,9.65 217.42,8.74 217.77,8.46 218.11,9.06 218.45,8.88 218.80,7.23 219.14,7.04 219.48,6.62 219.83,5.35 220.17,5.74 220.51,4.54 220.86,5.16 221.20,4.34 221.54,5.32 221.88,4.65 222.23,4.82 222.57,4.39 222.91,4.03 223.26,43.39 223.60,43.12 223.94,43.12 224.29,44.79 224.63,44.79 224.97,44.79 225.32,46.98 225.66,46.98 226.00,45.93 226.35,45.93 226.69,50.13 227.03,49.96 227.37,49.96 227.72,51.03 228.06,51.03 228.40,51.03 228.75,52.54 229.09,52.54 229.43,52.54 229.78,53.74 230.12,53.74 230.46,53.74 230.81,53.22 231.15,53.22 231.49,53.46 231.84,53.46 232.18,53.46 232.52,53.18 232.86,53.18 233.21,52.76 233.55,52.76 233.89,52.76 234.24,51.87 234.58,51.87 234.92,51.90 235.27,51.90 235.61,51.90 235.95,52.15 236.30,52.15 236.64,52.15 236.98,49.09 237.33,49.09 237.67,46.13 238.01,46.13 238.35,46.13 238.70,46.13 239.04,39.33 239.38,47.87 239.73,47.87 240.07,47.87 240.41,52.39 240.76,52.39 241.10,52.39 241.44,52.11 241.79,52.11 242.13,52.11 242.47,50.83 242.82,50.83 243.16,50.83 243.50,48.85 243.84,51.25 244.19,51.25 244.53,50.81 244.87,50.81 245.22,50.81 245.56,50.81 245.90,50.25 246.25,50.25 246.59,50.25 246.93,49.85 247.28,49.85 247.62,49.85 247.96,49.03 248.31,47.29 248.65,47.29 248.99,42.99 249.33,45.89 249.68,45.89 250.02,45.89 250.36,47.86 250.71,45.86 251.05,45.86 251.39,45.86 251.74,47.15 252.08,45.86 252.42,45.86 252.77,45.86 253.11,45.86 253.45,43.21 253.80,45.08 254.14,45.08 254.48,42.83 254.82,42.83 255.17,42.83 255.51,42.83 255.85,43.13 256.20,43.13 256.54,43.13 256.88,41.64 257.23,41.64 257.57,43.83 257.91,43.83 258.26,38.39 258.60,38.39 258.94,38.39 259.29,42.53 259.63,38.78 259.97,38.78 260.31,38.78 260.66,38.20 261.00,38.20 261.34,38.20 261.69,36.16 262.03,36.16 262.37,36.16 262.72,31.05 263.06,31.05 263.40,31.05 263.75,37.71 264.09,35.47 264.43,35.47 264.78,35.47 265.12,35.37 265.46,35.37 265.80,35.37 266.15,35.37 266.49,30.33 266.83,30.33 267.18,30.33 267.52,28.03 267.86,28.03 268.21,28.03 268.55,28.67 268.89,28.67 269.24,28.67 269.58,31.65 269.92,31.65 270.27,21.56 270.61,23.15 270.95,23.15 271.29,23.15 271.64,22.86 271.98,22.86 272.32,26.75 272.67,26.75 273.01,18.86 273.35,18.86 273.70,23.64 274.04,23.64 274.38,17.21 274.73,17.21 275.07,20.19 275.41,20.19 275.76,20.19 276.10,15.29 276.44,21.83 276.78,21.83 277.13,18.04 277.47,18.04 277.81,18.04 278.16,23.08 278.50,18.19 278.84,18.19 279.19,18.19 279.53,14.48 279.87,14.48 280.22,18.71 280.56,19.12 280.90,19.12 281.25,19.12 281.59,19.12 281.93,17.86 282.27,17.86 282.62,17.86 282.96,18.44 283.30,18.44 283.65,18.44 283.99,17.59 284.33,17.59 284.68,13.84 285.02,11.10 285.36,15.34 285.71,15.34 286.05,15.34 286.39,13.29 286.74,13.29 287.08,13.29 287.42,14.61 287.76,14.61 288.11,10.83 288.45,13.70 288.79,13.70 289.14,13.70 289.48,13.70 289.82,9.00 290.17,9.00 290.51,9.00 290.85,9.95 291.20,9.95 291.54,9.95 291.88,9.95 292.23,8.91 292.57,8.91 292.91,8.91 293.25,5.68 293.60,5.68 293.94,7.27 294.28,6.22 294.63,6.22 294.97,6.22 295.31,4.49 295.66,4.49 296.00,4.00" />
</svg>