<svg width="300" height="60" xmlns="http://www.w3.org/2000/svg">
  <polyline fill="rgba(255,200,0,0.3)" stroke="#ffbb00" stroke-width="2" points="4.00,54.38 4.92,53.30 5.83,52.58 6.75,52.08 7.66,51.01 8.58,50.74 9.49,49.76 10.41,47.47 11.32,43.83 12.24,40.69 13.15,38.55 14.07,38.11 14.98,36.25 15.90,32.48 16.82,28.84 17.73,28.10 18.65,28.52 19.56,28.68 20.48,29.45 21.39,30.73 22.31,31.46 23.22,32.57 24.14,32.08 25.05,28.41 25.97,27.67 26.88,29.72 27.80,34.28 28.71,32.68 29.63,27.99 30.55,23.56 31.46,19.51 32.38,14.91 33.29,10.31 34.21,7.12 35.12,6.27 36.04,10.09 36.95,14.95 37.87,18.72 38.78,22.01 39.70,26.02 40.61,28.15 41.53,28.17 42.45,25.17 43.36,22.23 44.28,18.52 45.19,15.17 46.11,12.01 47.02,8.77 47.94,6.41 48.85,5.03 49.77,5.64 50.68,5.42 51.60,4.78 52.51,5.30 53.43,8.18 54.34,12.28 55.26,16.30 56.18,20.68 57.09,24.86 58.01,27.08 58.92,23.45 59.84,20.30 60.75,17.51 61.67,14.61 62.58,12.76 63.50,10.63 64.41,9.29 65.33,8.43 66.24,8.13 67.16,9.10 68.08,11.55 68.99,15.88 69.91,19.92 70.82,23.15 71.74,22.99 72.65,20.34 73.57,17.75 74.48,15.06 75.40,12.66 76.31,9.33 77.23,54.51 78.14,53.40 79.06,52.37 79.97,52.08 80.89,51.06 81.81,50.25 82.72,49.69 83.64,47.08 84.55,43.08 85.47,39.34 86.38,39.20 87.30,38.16 88.21,36.53 89.13,32.38 90.04,28.90 90.96,27.67 91.87,28.16 92.79,28.32 93.71,29.00 94.62,30.01 95.54,30.39 96.45,31.86 97.37,32.53 98.28,28.60 99.20,27.45 100.11,29.49 101.03,33.96 101.94,32.72 102.86,28.44 103.77,23.97 104.69,18.76 105.61,14.44 106.52,10.36 107.44,7.41 108.35,6.25 109.27,10.95 110.18,14.64 111.10,18.94 112.01,21.69 112.93,25.94 113.84,27.59 114.76,27.67 115.67,25.49 116.59,21.33 117.50,18.57 118.42,14.61 119.34,12.04 120.25,8.77 121.17,6.23 122.08,4.92 123.00,6.08 123.91,5.07 124.83,4.29 125.74,5.50 126.66,7.98 127.57,12.34 128.49,16.06 129.40,20.94 130.32,24.74 131.24,26.74 132.15,23.60 133.07,19.71 133.98,17.76 134.90,15.15 135.81,12.44 136.73,10.84 137.64,9.14 138.56,8.58 139.47,8.11 140.39,9.46 141.30,11.35 142.22,16.78 143.13,20.31 144.05,22.75 144.97,22.78 145.88,20.41 146.80,18.05 147.71,15.23 148.63,12.52 149.54,9.49 150.46,53.76 151.37,53.76 152.29,52.63 153.20,51.65 154.12,50.60 155.03,49.41 155.95,49.46 156.87,46.40 157.78,43.01 158.70,40.71 159.61,40.71 160.53,39.06 161.44,36.39 162.36,32.50 163.27,30.95 164.19,29.53 165.10,29.47 166.02,29.56 166.93,30.17 167.85,31.30 168.76,32.27 169.68,33.64 170.60,32.68 171.51,29.59 172.43,28.97 173.34,31.30 174.26,34.83 175.17,33.59 176.09,27.21 177.00,23.78 177.92,17.82 178.83,14.78 179.75,11.67 180.66,7.03 181.58,6.63 182.50,10.69 183.41,14.16 184.33,20.61 185.24,23.57 186.16,26.25 187.07,28.36 187.99,28.81 188.90,27.16 189.82,20.70 190.73,17.84 191.65,15.17 192.56,12.59 193.48,10.09 194.39,7.95 195.31,6.22 196.23,6.36 197.14,5.51 198.06,4.00 198.97,6.01 199.89,7.18 200.80,12.53 201.72,14.93 202.63,20.19 203.55,24.38 204.46,26.76 205.38,22.36 206.29,20.45 207.21,17.61 208.13,15.94 209.04,12.24 209.96,12.09 210.87,10.03 211.79,9.75 212.70,8.30 213.62,10.13 214.53,10.10 215.45,17.65 216.36,19.84 217.28,23.36 218.19,22.39 219.11,19.36 220.03,17.60 220.94,14.22 221.86,12.71 222.77,9.67 223.69,56.00 224.60,53.15 225.52,53.15 226.43,53.15 227.35,48.55 228.26,48.55 229.18,48.55 230.09,40.54 231.01,40.54 231.92,40.54 232.84,40.54 233.76,31.80 234.67,31.80 235.59,31.80 236.50,34.45 237.42,34.45 238.33,34.45 239.25,36.15 240.16,36.15 241.08,36.15 241.99,36.30 242.91,36.30 243.82,36.30 244.74,37.13 245.66,37.13 246.57,37.13 247.49,34.76 248.40,34.76 249.32,27.26 250.23,17.43 251.15,17.43 252.06,17.43 252.98,17.43 253.89,10.40 254.81,10.40 255.72,10.40 256.64,17.46 257.55,17.46 258.47,26.05 259.39,26.05 260.30,26.05 261.22,29.07 262.13,29.07 263.05,22.98 263.96,22.98 264.88,22.98 265.79,16.37 266.71,16.37 267.62,16.37 268.54,13.21 269.45,13.21 270.37,11.26 271.29,11.26 272.20,11.26 273.12,11.51 274.03,11.51 274.95,11.51 275.86,25.65 276.78,25.65 277.69,25.65 278.61,24.41 279.52,24.41 280.44,16.24 281.35,16.24 282.27,16.14 283.18,16.14 284.10,16.14 285.02,10.54 285.93,10.54 286.85,19.21 287.76,18.11 288.68,18.11 289.59,21.63 290.51,21.63 291.42,21.63 292.34,17.39 293.25,17.39 294.17,17.39 295.08,11.74 296.00,11.74" />
</svg>