<svg width="300" height="60" xmlns="http://www.w3.org/2000/svg">
  <polyline fill="rgba(255,200,0,0.3)" stroke="#ffbb00" stroke-width="2" points="4.00,55.13 4.18,54.50 4.36,53.99 4.54,53.91 4.73,53.60 4.91,53.46 5.09,53.26 5.27,53.40 5.45,53.53 5.63,53.77 5.81,54.07 6.00,54.55 6.18,54.14 6.36,53.80 6.54,53.95 6.72,54.12 6.90,54.00 7.09,53.60 7.27,52.99 7.45,52.76 7.63,52.91 7.81,52.92 7.99,52.55 8.17,52.21 8.36,52.54 8.54,52.84 8.72,52.80 8.90,52.97 9.08,52.60 9.26,52.16 9.44,51.48 9.63,50.78 9.81,50.41 9.99,50.32 10.17,50.26 10.35,50.24 10.53,48.31 10.71,47.18 10.90,47.02 11.08,46.81 11.26,47.02 11.44,47.38 11.62,47.65 11.80,47.83 11.99,47.80 12.17,47.65 12.35,47.64 12.53,46.98 12.71,45.99 12.89,45.74 13.07,45.20 13.26,44.32 13.44,43.42 13.62,41.38 13.80,39.53 13.98,38.47 14.16,38.73 14.34,39.53 14.53,40.40 14.71,41.36 14.89,40.29 15.07,39.10 15.25,38.01 15.43,36.72 15.61,36.12 15.80,36.89 15.98,38.03 16.16,39.02 16.34,38.07 16.52,36.98 16.70,36.99 16.89,38.52 17.07,39.24 17.25,39.28 17.43,38.69 17.61,38.06 17.79,37.33 17.97,36.82 18.16,36.46 18.34,36.18 18.52,35.92 18.70,35.52 18.88,35.21 19.06,34.93 19.24,34.50 19.43,33.56 19.61,32.30 19.79,32.03 19.97,32.48 20.15,33.48 20.33,33.54 20.51,33.34 20.70,33.14 20.88,32.81 21.06,31.84 21.24,31.37 21.42,30.90 21.60,30.36 21.78,29.61 21.97,29.42 22.15,29.30 22.33,28.97 22.51,28.64 22.69,28.24 22.87,28.11 23.06,28.81 23.24,29.66 23.42,29.64 23.60,29.18 23.78,27.15 23.96,26.51 24.14,25.97 24.33,25.66 24.51,25.37 24.69,25.07 24.87,24.47 25.05,24.27 25.23,24.17 25.41,24.41 25.60,25.07 25.78,25.31 25.96,25.26 26.14,24.59 26.32,24.20 26.50,23.10 26.68,22.35 26.87,21.36 27.05,20.44 27.23,19.46 27.41,19.01 27.59,18.60 27.77,18.36 27.96,18.32 28.14,18.74 28.32,19.44 28.50,19.92 28.68,20.25 28.86,20.17 29.04,19.94 29.23,20.01 29.41,20.39 29.59,20.44 29.77,20.70 29.95,21.14 30.13,21.49 30.31,21.55 30.50,21.75 30.68,21.69 30.86,21.61 31.04,21.18 31.22,20.77 31.40,20.35 31.58,19.67 31.77,19.05 31.95,18.43 32.13,18.03 32.31,17.79 32.49,17.68 32.67,17.70 32.86,17.70 33.04,17.58 33.22,17.47 33.40,17.57 33.58,17.92 33.76,18.49 33.94,18.38 34.13,18.21 34.31,17.97 34.49,17.76 34.67,17.79 34.85,18.24 35.03,18.59 35.21,18.89 35.40,18.61 35.58,18.97 35.76,19.30 35.94,19.47 36.12,20.04 36.30,21.19 36.48,21.17 36.67,20.93 36.85,20.40 37.03,20.11 37.21,20.10 37.39,20.21 37.57,20.45 37.76,20.73 37.94,20.81 38.12,20.65 38.30,20.70 38.48,20.66 38.66,20.64 38.84,20.21 39.03,19.31 39.21,18.18 39.39,17.73 39.57,18.39 39.75,19.27 39.93,19.88 40.11,19.00 40.30,17.27 40.48,16.53 40.66,16.85 40.84,17.83 41.02,18.76 41.20,18.64 41.38,18.39 41.57,18.29 41.75,18.65 41.93,19.22 42.11,19.39 42.29,20.45 42.47,20.80 42.66,22.14 42.84,22.24 43.02,21.58 43.20,21.29 43.38,20.84 43.56,20.71 43.74,20.51 43.93,20.63 44.11,21.18 44.29,21.74 44.47,22.79 44.65,23.43 44.83,23.30 45.01,23.41 45.20,23.55 45.38,23.90 45.56,24.07 45.74,24.79 45.92,24.96 46.10,25.13 46.28,25.37 46.47,25.48 46.65,25.13 46.83,25.33 47.01,25.25 47.19,25.13 47.37,25.22 47.56,25.47 47.74,25.63 47.92,25.83 48.10,26.26 48.28,26.35 48.46,26.66 48.64,26.95 48.83,27.44 49.01,28.16 49.19,28.30 49.37,29.25 49.55,30.14 49.73,30.21 49.91,30.40 50.10,30.51 50.28,30.79 50.46,31.08 50.64,30.76 50.82,30.74 51.00,30.81 51.18,30.48 51.37,29.91 51.55,29.91 51.73,29.65 51.91,29.37 52.09,28.23 52.27,27.68 52.45,27.20 52.64,26.70 52.82,26.03 53.00,26.12 53.18,26.76 53.36,27.69 53.54,27.82 53.73,28.07 53.91,28.65 54.09,29.17 54.27,28.51 54.45,27.98 54.63,27.58 54.81,27.36 55.00,27.05 55.18,26.30 55.36,25.87 55.54,25.88 55.72,25.88 55.90,24.92 56.08,25.14 56.27,25.30 56.45,24.24 56.63,23.55 56.81,23.24 56.99,23.17 57.17,23.04 57.35,23.37 57.54,22.76 57.72,22.69 57.90,23.08 58.08,22.84 58.26,22.15 58.44,22.13 58.63,22.42 58.81,22.31 58.99,21.85 59.17,20.96 59.35,20.71 59.53,20.68 59.71,20.71 59.90,20.44 60.08,20.02 60.26,19.33 60.44,18.75 60.62,18.55 60.80,17.74 60.98,16.94 61.17,16.85 61.35,17.35 61.53,17.85 61.71,17.93 61.89,17.50 62.07,16.21 62.25,15.20 62.44,14.78 62.62,14.08 62.80,13.69 62.98,13.73 63.16,13.68 63.34,13.00 63.53,12.75 63.71,13.25 63.89,13.84 64.07,14.87 64.25,14.67 64.43,13.77 64.61,14.25 64.80,14.72 64.98,14.37 65.16,13.64 65.34,13.40 65.52,12.97 65.70,13.12 65.88,13.31 66.07,13.24 66.25,13.16 66.43,12.79 66.61,12.42 66.79,10.68 66.97,8.81 67.15,8.85 67.34,8.32 67.52,8.35 67.70,8.75 67.88,8.71 68.06,8.67 68.24,8.78 68.43,8.98 68.61,9.30 68.79,9.91 68.97,10.09 69.15,10.28 69.33,10.05 69.51,9.10 69.70,7.96 69.88,7.72 70.06,7.81 70.24,8.87 70.42,9.63 70.60,8.55 70.78,8.44 70.97,8.64 71.15,8.87 71.33,9.10 71.51,8.61 71.69,8.33 71.87,8.17 72.05,8.77 72.24,9.13 72.42,8.44 72.60,7.64 72.78,6.93 72.96,6.55 73.14,7.15 73.33,6.84 73.51,6.29 73.69,6.01 73.87,6.12 74.05,6.17 74.23,6.16 74.41,7.30 74.60,7.51 74.78,6.12 74.96,7.22 75.14,7.05 75.32,7.07 75.50,6.22 75.68,6.15 75.87,6.53 76.05,6.35 76.23,6.05 76.41,5.27 76.59,4.26 76.77,54.91 76.95,54.35 77.14,53.95 77.32,53.83 77.50,53.47 77.68,53.52 77.86,53.18 78.04,53.50 78.22,53.32 78.41,53.53 78.59,53.84 78.77,54.40 78.95,54.22 79.13,53.84 79.31,53.86 79.50,53.90 79.68,53.89 79.86,53.52 80.04,53.01 80.22,52.81 80.40,52.78 80.58,52.79 80.77,52.23 80.95,52.05 81.13,52.32 81.31,52.86 81.49,52.73 81.67,52.98 81.85,52.56 82.04,52.28 82.22,51.50 82.40,50.83 82.58,50.57 82.76,50.33 82.94,50.33 83.12,50.01 83.31,48.01 83.49,47.17 83.67,47.11 83.85,46.69 84.03,46.90 84.21,47.48 84.40,47.87 84.58,47.92 84.76,47.83 84.94,47.86 85.12,47.62 85.30,47.10 85.48,45.71 85.67,45.66 85.85,45.20 86.03,44.51 86.21,43.27 86.39,41.00 86.57,39.69 86.75,38.50 86.94,38.73 87.12,39.54 87.30,40.31 87.48,41.16 87.66,40.13 87.84,39.09 88.02,37.92 88.21,36.34 88.39,36.16 88.57,37.06 88.75,38.26 88.93,39.09 89.11,37.92 89.30,36.34 89.48,36.16 89.66,37.07 89.84,38.26 90.02,39.31 90.20,38.40 90.38,36.71 90.57,37.38 90.75,38.47 90.93,39.59 91.11,39.34 91.29,38.56 91.47,38.12 91.65,37.21 91.84,36.74 92.02,36.40 92.20,36.23 92.38,35.82 92.56,35.49 92.74,35.19 92.92,34.89 93.11,34.52 93.29,33.30 93.47,32.50 93.65,32.39 93.83,32.77 94.01,33.39 94.20,33.59 94.38,33.34 94.56,33.06 94.74,32.87 94.92,32.62 95.10,31.57 95.28,30.78 95.47,30.24 95.65,29.41 95.83,29.86 96.01,29.43 96.19,29.18 96.37,28.76 96.55,28.50 96.74,28.19 96.92,28.94 97.10,29.71 97.28,29.65 97.46,29.01 97.64,27.01 97.82,26.41 98.01,25.89 98.19,25.56 98.37,25.23 98.55,24.92 98.73,24.51 98.91,24.17 99.10,24.15 99.28,24.40 99.46,25.05 99.64,25.43 99.82,25.57 100.00,24.63 100.18,24.18 100.37,23.74 100.55,22.16 100.73,21.10 100.91,20.24 101.09,19.23 101.27,19.04 101.45,18.68 101.64,18.48 101.82,18.20 102.00,18.81 102.18,19.31 102.36,20.15 102.54,20.61 102.72,19.99 102.91,20.18 103.09,20.13 103.27,20.31 103.45,20.44 103.63,20.83 103.81,20.92 104.00,21.33 104.18,21.61 104.36,21.82 104.54,21.74 104.72,21.58 104.90,20.94 105.08,20.71 105.27,20.32 105.45,19.61 105.63,18.84 105.81,18.45 105.99,18.02 106.17,17.84 106.35,17.73 106.54,17.57 106.72,17.74 106.90,17.47 107.08,17.38 107.26,17.53 107.44,17.86 107.62,18.63 107.81,18.38 107.99,18.29 108.17,17.78 108.35,17.83 108.53,17.67 108.71,18.32 108.89,18.88 109.08,18.90 109.26,18.83 109.44,19.06 109.62,19.30 109.80,19.53 109.98,20.25 110.17,21.51 110.35,20.97 110.53,20.77 110.71,20.64 110.89,19.99 111.07,20.12 111.25,20.28 111.44,20.39 111.62,20.78 111.80,20.80 111.98,20.37 112.16,20.84 112.34,20.50 112.52,20.51 112.71,20.21 112.89,19.47 113.07,18.44 113.25,17.73 113.43,18.56 113.61,19.32 113.79,20.00 113.98,18.44 114.16,17.22 114.34,15.63 114.52,16.25 114.70,17.61 114.88,18.68 115.07,18.79 115.25,18.49 115.43,18.33 115.61,18.63 115.79,19.29 115.97,19.40 116.15,20.00 116.34,20.86 116.52,22.17 116.70,22.08 116.88,21.59 117.06,21.56 117.24,20.90 117.42,20.83 117.61,20.44 117.79,20.80 117.97,21.17 118.15,21.17 118.33,22.90 118.51,23.52 118.69,23.43 118.88,23.61 119.06,23.64 119.24,24.05 119.42,24.26 119.60,24.76 119.78,25.00 119.97,25.19 120.15,25.38 120.33,25.36 120.51,25.28 120.69,25.44 120.87,25.28 121.05,25.22 121.24,25.20 121.42,25.48 121.60,25.65 121.78,25.90 121.96,26.24 122.14,26.36 122.32,26.59 122.51,27.41 122.69,27.79 122.87,28.15 123.05,28.38 123.23,29.35 123.41,30.17 123.59,30.26 123.78,30.59 123.96,30.54 124.14,30.84 124.32,31.01 124.50,30.66 124.68,30.77 124.87,30.90 125.05,30.61 125.23,29.90 125.41,29.78 125.59,29.73 125.77,29.40 125.95,28.25 126.14,27.47 126.32,27.18 126.50,26.75 126.68,25.81 126.86,26.27 127.04,26.60 127.22,27.65 127.41,27.85 127.59,27.79 127.77,28.60 127.95,28.76 128.13,28.27 128.31,27.95 128.49,27.65 128.68,27.46 128.86,26.84 129.04,26.25 129.22,25.99 129.40,26.19 129.58,25.94 129.77,25.33 129.95,25.11 130.13,25.17 130.31,23.97 130.49,23.74 130.67,23.16 130.85,23.32 131.04,23.59 131.22,23.31 131.40,22.67 131.58,23.17 131.76,23.12 131.94,22.79 132.12,22.05 132.31,22.29 132.49,22.34 132.67,22.23 132.85,22.00 133.03,21.40 133.21,20.77 133.39,21.13 133.58,20.80 133.76,20.59 133.94,20.16 134.12,19.41 134.30,19.16 134.48,18.53 134.67,17.54 134.85,17.43 135.03,16.85 135.21,17.85 135.39,17.99 135.57,17.96 135.75,17.36 135.94,16.61 136.12,15.37 136.30,15.17 136.48,14.12 136.66,14.13 136.84,13.89 137.02,13.69 137.21,13.08 137.39,12.78 137.57,13.03 137.75,13.98 137.93,14.85 138.11,14.70 138.29,14.36 138.48,13.98 138.66,14.71 138.84,14.79 139.02,13.63 139.20,13.45 139.38,13.14 139.56,13.14 139.75,13.43 139.93,13.09 140.11,12.74 140.29,12.71 140.47,12.78 140.65,10.68 140.84,9.41 141.02,8.74 141.20,8.54 141.38,8.37 141.56,8.61 141.74,8.96 141.92,8.67 142.11,8.71 142.29,8.99 142.47,9.18 142.65,10.00 142.83,10.09 143.01,10.20 143.19,10.08 143.38,9.12 143.56,7.80 143.74,7.68 143.92,7.73 144.10,8.86 144.28,9.27 144.46,8.54 144.65,8.46 144.83,8.61 145.01,8.85 145.19,9.14 145.37,8.87 145.55,8.46 145.74,8.42 145.92,8.98 146.10,9.17 146.28,7.81 146.46,7.33 146.64,6.86 146.82,6.71 147.01,7.05 147.19,6.49 147.37,6.07 147.55,6.09 147.73,6.55 147.91,6.07 148.09,5.88 148.28,7.59 148.46,7.38 148.64,7.01 148.82,6.58 149.00,6.89 149.18,7.12 149.36,6.06 149.55,5.65 149.73,6.61 149.91,6.35 150.09,6.17 150.27,5.54 150.45,4.00 150.64,56.00 150.82,54.51 151.00,53.88 151.18,54.58 151.36,53.81 151.54,54.30 151.72,53.58 151.91,54.27 152.09,53.67 152.27,54.32 152.45,53.86 152.63,54.57 152.81,54.00 152.99,54.44 153.18,54.33 153.36,53.80 153.54,53.57 153.72,53.96 153.90,53.49 154.08,53.04 154.26,53.04 154.45,52.76 154.63,51.78 154.81,52.34 154.99,52.84 155.17,52.77 155.35,52.86 155.54,52.92 155.72,52.62 155.90,52.01 156.08,51.31 156.26,50.48 156.44,50.39 156.62,50.41 156.81,50.36 156.99,49.86 157.17,48.43 157.35,46.50 157.53,46.35 157.71,46.75 157.89,46.80 158.08,47.70 158.26,47.29 158.44,47.98 158.62,47.72 158.80,47.50 158.98,46.98 159.16,46.48 159.35,45.77 159.53,45.23 159.71,44.82 159.89,44.33 160.07,43.16 160.25,41.36 160.44,39.48 160.62,38.21 160.80,38.84 160.98,39.65 161.16,39.70 161.34,40.53 161.52,40.98 161.71,39.37 161.89,37.75 162.07,36.35 162.25,36.33 162.43,37.04 162.61,37.52 162.79,38.62 162.98,37.39 163.16,37.11 163.34,37.11 163.52,38.18 163.70,38.46 163.88,38.92 164.06,39.03 164.25,37.49 164.43,37.29 164.61,37.10 164.79,35.36 164.97,35.55 165.15,35.97 165.33,34.66 165.52,34.14 165.70,34.67 165.88,33.55 166.06,33.08 166.24,32.27 166.42,32.02 166.61,32.45 166.79,32.94 166.97,32.78 167.15,33.45 167.33,32.84 167.51,31.76 167.69,32.94 167.88,31.78 168.06,30.78 168.24,30.95 168.42,29.73 168.60,30.14 168.78,29.42 168.96,28.85 169.15,28.66 169.33,28.68 169.51,27.59 169.69,28.28 169.87,29.23 170.05,29.60 170.23,28.53 170.42,27.93 170.60,27.27 170.78,26.52 170.96,25.91 171.14,25.50 171.32,25.22 171.51,25.05 171.69,24.25 171.87,24.43 172.05,24.09 172.23,24.67 172.41,25.37 172.59,25.35 172.78,25.24 172.96,23.47 173.14,23.02 173.32,21.79 173.50,20.46 173.68,20.99 173.86,19.54 174.05,19.76 174.23,18.40 174.41,18.60 174.59,17.65 174.77,18.37 174.95,18.47 175.13,19.79 175.32,20.33 175.50,19.41 175.68,19.74 175.86,20.15 176.04,20.15 176.22,20.78 176.41,20.97 176.59,20.97 176.77,21.41 176.95,21.67 177.13,21.77 177.31,21.74 177.49,21.58 177.68,21.44 177.86,20.72 178.04,20.51 178.22,19.63 178.40,19.20 178.58,18.83 178.76,17.97 178.95,18.34 179.13,18.20 179.31,17.99 179.49,17.87 179.67,17.70 179.85,17.60 180.03,17.60 180.22,18.19 180.40,18.66 180.58,18.98 180.76,18.18 180.94,18.41 181.12,17.95 181.31,17.61 181.49,18.46 181.67,18.62 181.85,18.65 182.03,18.73 182.21,19.16 182.39,18.38 182.58,19.13 182.76,19.40 182.94,20.38 183.12,20.79 183.30,20.27 183.48,20.65 183.66,19.83 183.85,20.28 184.03,20.40 184.21,20.87 184.39,20.78 184.57,20.12 184.75,20.60 184.93,20.28 185.12,20.09 185.30,20.56 185.48,19.79 185.66,19.66 185.84,18.77 186.02,17.26 186.21,18.29 186.39,19.99 186.57,19.99 186.75,17.69 186.93,18.51 187.11,16.16 187.29,16.66 187.48,18.09 187.66,18.42 187.84,18.99 188.02,17.84 188.20,18.45 188.38,18.45 188.56,19.12 188.75,19.07 188.93,20.35 189.11,20.84 189.29,21.71 189.47,22.03 189.65,21.72 189.83,21.10 190.02,21.32 190.20,20.37 190.38,20.53 190.56,20.81 190.74,21.23 190.92,21.89 191.11,22.13 191.29,23.70 191.47,23.10 191.65,23.65 191.83,23.31 192.01,24.08 192.19,24.51 192.38,24.41 192.56,25.04 192.74,25.07 192.92,25.23 193.10,25.42 193.28,25.22 193.46,25.11 193.65,25.14 193.83,25.35 194.01,25.20 194.19,25.72 194.37,25.08 194.55,25.55 194.73,26.03 194.92,26.38 195.10,26.35 195.28,27.42 195.46,27.32 195.64,27.59 195.82,28.27 196.00,29.24 196.19,30.18 196.37,30.11 196.55,30.66 196.73,30.06 196.91,30.67 197.09,30.80 197.28,30.85 197.46,30.73 197.64,30.81 197.82,30.40 198.00,30.25 198.18,29.77 198.36,29.65 198.55,30.02 198.73,28.37 198.91,27.58 199.09,26.91 199.27,26.38 199.45,25.79 199.63,27.02 199.82,26.97 200.00,27.27 200.18,27.86 200.36,27.93 200.54,29.05 200.72,29.28 200.90,28.25 201.09,28.14 201.27,27.33 201.45,27.78 201.63,27.37 201.81,26.91 201.99,26.53 202.18,25.55 202.36,25.32 202.54,24.36 202.72,25.39 202.90,24.96 203.08,24.35 203.26,23.65 203.45,23.33 203.63,23.28 203.81,23.24 203.99,22.90 204.17,22.38 204.35,22.73 204.53,22.73 204.72,22.70 204.90,22.17 205.08,21.93 205.26,21.96 205.44,22.14 205.62,21.40 205.80,21.40 205.99,20.54 206.17,20.30 206.35,20.55 206.53,19.81 206.71,20.12 206.89,18.88 207.08,19.11 207.26,18.02 207.44,17.75 207.62,17.61 207.80,16.11 207.98,17.73 208.16,17.84 208.35,17.83 208.53,17.36 208.71,16.78 208.89,15.09 209.07,14.49 209.25,13.97 209.43,13.97 209.62,14.28 209.80,13.67 209.98,12.79 210.16,12.17 210.34,12.35 210.52,13.19 210.70,14.28 210.89,14.81 211.07,13.48 211.25,14.09 211.43,14.59 211.61,14.59 211.79,13.48 211.98,12.63 212.16,13.36 212.34,13.59 212.52,12.80 212.70,12.93 212.88,12.09 213.06,12.28 213.25,12.24 213.43,10.01 213.61,8.56 213.79,8.03 213.97,8.00 214.15,8.00 214.33,8.50 214.52,8.04 214.70,8.76 214.88,8.31 215.06,9.13 215.24,9.00 215.42,10.01 215.60,9.82 215.79,9.82 215.97,10.07 216.15,9.08 216.33,8.20 216.51,8.27 216.69,7.78 216.88,8.53 217.06,8.89 217.24,8.14 217.42,7.98 217.60,8.03 217.78,8.48 217.96,9.08 218.15,8.53 218.33,7.49 218.51,7.49 218.69,8.30 218.87,8.70 219.05,7.84 219.23,7.01 219.42,8.55 219.60,7.61 219.78,6.82 219.96,7.20 220.14,6.20 220.32,5.43 220.50,7.37 220.69,7.03 220.87,6.46 221.05,8.21 221.23,7.68 221.41,7.87 221.59,7.09 221.78,7.68 221.96,6.78 222.14,7.19 222.32,6.24 222.50,7.49 222.68,6.69 222.86,5.99 223.05,5.84 223.23,4.83 223.41,56.00 223.59,55.35 223.77,55.35 223.95,55.35 224.13,55.74 224.32,55.74 224.50,53.49 224.68,54.64 224.86,54.64 225.04,54.64 225.22,54.25 225.40,54.25 225.59,53.74 225.77,54.01 225.95,54.01 226.13,54.01 226.31,53.03 226.49,53.62 226.67,53.62 226.86,53.62 227.04,53.62 227.22,52.94 227.40,52.94 227.58,52.94 227.76,52.85 227.95,52.85 228.13,50.99 228.31,50.99 228.49,50.99 228.67,48.97 228.85,48.97 229.03,48.80 229.22,48.80 229.40,48.80 229.58,48.10 229.76,48.10 229.94,48.10 230.12,44.30 230.30,44.30 230.49,44.30 230.67,46.38 230.85,46.38 231.03,46.38 231.21,45.38 231.39,45.38 231.57,45.38 231.76,44.91 231.94,44.91 232.12,43.83 232.30,43.83 232.48,43.83 232.66,41.21 232.85,41.98 233.03,41.98 233.21,41.98 233.39,37.55 233.57,39.34 233.75,39.34 233.93,39.34 234.12,38.08 234.30,40.40 234.48,40.40 234.66,40.40 234.84,36.35 235.02,36.95 235.20,36.95 235.39,36.95 235.57,40.75 235.75,37.40 235.93,37.40 236.11,37.40 236.29,37.40 236.47,35.91 236.66,35.91 236.84,35.91 237.02,35.83 237.20,35.83 237.38,35.83 237.56,35.54 237.75,35.54 237.93,35.54 238.11,31.37 238.29,32.67 238.47,32.67 238.65,32.67 238.83,32.92 239.02,32.92 239.20,32.92 239.38,32.47 239.56,32.47 239.74,32.47 239.92,32.06 240.10,32.06 240.29,32.06 240.47,32.06 240.65,29.58 240.83,29.58 241.01,32.83 241.19,29.89 241.37,29.89 241.56,29.89 241.74,27.85 241.92,27.85 242.10,27.85 242.28,27.91 242.46,27.91 242.65,27.91 242.83,28.82 243.01,28.82 243.19,28.82 243.37,28.61 243.55,28.61 243.73,28.61 243.92,26.83 244.10,26.83 244.28,26.83 244.46,26.38 244.64,26.38 244.82,23.63 245.00,24.89 245.19,24.89 245.37,24.89 245.55,23.82 245.73,23.82 245.91,23.82 246.09,21.49 246.27,21.49 246.46,21.49 246.64,21.49 246.82,23.45 247.00,18.23 247.18,18.23 247.36,19.30 247.55,19.30 247.73,19.30 247.91,21.89 248.09,19.02 248.27,19.02 248.45,19.02 248.63,19.87 248.82,19.87 249.00,19.87 249.18,21.78 249.36,21.78 249.54,21.78 249.72,21.78 249.90,22.90 250.09,22.90 250.27,22.90 250.45,23.30 250.63,21.23 250.81,21.23 250.99,21.23 251.17,20.15 251.36,20.15 251.54,20.15 251.72,19.71 251.90,19.71 252.08,19.42 252.26,19.42 252.44,19.42 252.63,18.86 252.81,18.86 252.99,19.47 253.17,19.47 253.35,19.47 253.53,20.52 253.72,20.52 253.90,17.43 254.08,17.43 254.26,18.90 254.44,18.61 254.62,18.61 254.80,18.61 254.99,19.43 255.17,17.11 255.35,17.11 255.53,17.11 255.71,19.00 255.89,19.00 256.07,19.00 256.26,18.48 256.44,18.48 256.62,21.93 256.80,20.76 256.98,20.76 257.16,18.08 257.34,18.08 257.53,20.83 257.71,19.49 257.89,19.49 258.07,19.49 258.25,16.55 258.43,16.55 258.62,15.48 258.80,15.48 258.98,19.79 259.16,19.79 259.34,16.88 259.52,16.88 259.70,20.27 259.89,20.27 260.07,15.56 260.25,15.56 260.43,19.45 260.61,19.45 260.79,17.08 260.97,17.08 261.16,18.91 261.34,18.91 261.52,18.30 261.70,18.30 261.88,18.30 262.06,20.72 262.24,21.39 262.43,21.39 262.61,21.39 262.79,22.89 262.97,20.19 263.15,20.19 263.33,20.92 263.52,20.92 263.70,22.03 263.88,22.03 264.06,25.91 264.24,25.12 264.42,25.12 264.60,25.12 264.79,25.12 264.97,26.66 265.15,26.66 265.33,26.66 265.51,25.95 265.69,25.95 265.87,25.95 266.06,26.40 266.24,25.30 266.42,25.30 266.60,25.30 266.78,24.15 266.96,24.15 267.14,24.15 267.33,24.15 267.51,25.21 267.69,25.21 267.87,25.21 268.05,25.41 268.23,25.41 268.42,25.41 268.60,26.87 268.78,26.87 268.96,26.87 269.14,29.32 269.32,29.32 269.50,29.32 269.69,29.32 269.87,29.79 270.05,29.79 270.23,29.79 270.41,30.61 270.59,30.61 270.77,30.61 270.96,30.61 271.14,30.54 271.32,30.54 271.50,29.57 271.68,29.57 271.86,29.57 272.04,28.03 272.23,28.03 272.41,28.03 272.59,27.01 272.77,27.01 272.95,29.93 273.13,28.80 273.32,28.80 273.50,31.12 273.68,31.12 273.86,29.14 274.04,29.14 274.22,29.14 274.40,27.26 274.59,27.26 274.77,27.26 274.95,26.69 275.13,26.69 275.31,23.94 275.49,23.94 275.67,25.20 275.86,25.20 276.04,25.20 276.22,24.37 276.40,24.37 276.58,24.37 276.76,22.26 276.94,22.26 277.13,23.65 277.31,23.65 277.49,23.65 277.67,24.29 277.85,24.29 278.03,24.29 278.22,24.53 278.40,21.32 278.58,21.32 278.76,21.32 278.94,21.32 279.12,19.88 279.30,19.88 279.49,19.88 279.67,16.99 279.85,16.99 280.03,16.99 280.21,16.38 280.39,16.38 280.57,16.38 280.76,16.38 280.94,16.33 281.12,16.33 281.30,16.33 281.48,14.84 281.66,14.84 281.84,17.47 282.03,13.15 282.21,13.15 282.39,13.15 282.57,13.15 282.75,10.60 282.93,10.60 283.11,10.60 283.30,11.32 283.48,11.32 283.66,11.32 283.84,12.98 284.02,12.98 284.20,12.98 284.39,12.98 284.57,11.18 284.75,11.18 284.93,11.18 285.11,13.75 285.29,11.01 285.47,11.01 285.66,11.01 285.84,8.28 286.02,9.64 286.20,9.64 286.38,9.64 286.56,7.47 286.74,7.47 286.93,7.47 287.11,7.47 287.29,8.15 287.47,8.15 287.65,5.24 287.83,7.11 288.01,7.11 288.20,7.11 288.38,10.12 288.56,10.12 288.74,7.56 288.92,7.56 289.10,7.75 289.29,7.75 289.47,7.75 289.65,7.72 289.83,7.72 290.01,7.72 290.19,7.72 290.37,7.95 290.56,7.95 290.74,7.95 290.92,4.82 291.10,4.82 291.28,4.82 291.46,4.82 291.64,6.71 291.83,6.71 292.01,8.22 292.19,8.22 292.37,8.22 292.55,6.64 292.73,10.84 292.91,9.99 293.10,9.99 293.28,9.99 293.46,8.87 293.64,8.87 293.82,8.87 294.00,7.23 294.19,12.55 294.37,12.55 294.55,9.43 294.73,9.43 294.91,9.43 295.09,6.43 295.27,11.68 295.46,11.68 295.64,8.76 295.82,8.76 296.00,6.41" />
</svg>