<svg width="300" height="60" xmlns="http://www.w3.org/2000/svg">
  <polyline fill="rgba(255,200,0,0.3)" stroke="#ffbb00" stroke-width="2" points="4.00,54.80 5.66,48.37 7.32,43.50 8.98,40.22 10.64,38.41 12.30,37.43 13.95,37.33 15.61,36.47 17.27,35.08 18.93,32.59 20.59,31.16 22.25,29.67 23.91,29.03 25.57,28.86 27.23,28.95 28.89,29.38 30.55,28.93 32.20,28.71 33.86,27.88 35.52,27.14 37.18,25.98 38.84,25.66 40.50,25.35 42.16,26.98 43.82,28.07 45.48,27.73 47.14,25.53 48.80,25.39 50.45,21.89 52.11,20.76 53.77,15.77 55.43,15.63 57.09,16.88 58.75,16.92 60.41,16.92 62.07,16.88 63.73,19.58 65.39,19.90 67.05,20.19 68.70,18.38 70.36,16.63 72.02,15.91 73.68,15.69 75.34,16.74 77.00,16.48 78.66,16.05 80.32,15.71 81.98,15.24 83.64,15.61 85.30,14.50 86.95,13.48 88.61,13.31 90.27,12.69 91.93,13.21 93.59,12.66 95.25,12.19 96.91,11.88 98.57,11.90 100.23,12.17 101.89,56.00 103.55,48.83 105.20,43.88 106.86,40.05 108.52,38.45 110.18,37.89 111.84,36.50 113.50,36.15 115.16,35.04 116.82,32.95 118.48,30.84 120.14,28.76 121.80,29.24 123.45,28.34 125.11,28.83 126.77,29.03 128.43,28.89 130.09,28.62 131.75,28.02 133.41,26.62 135.07,26.00 136.73,25.93 138.39,26.00 140.05,26.83 141.70,28.02 143.36,27.02 145.02,25.97 146.68,24.30 148.34,21.66 150.00,20.12 151.66,17.20 153.32,15.57 154.98,16.96 156.64,16.34 158.30,17.24 159.95,17.73 161.61,20.03 163.27,19.47 164.93,19.33 166.59,16.69 168.25,16.42 169.91,14.88 171.57,13.49 173.23,16.49 174.89,15.58 176.55,16.42 178.20,15.37 179.86,14.41 181.52,15.97 183.18,14.79 184.84,14.02 186.50,12.35 188.16,11.72 189.82,13.12 191.48,11.94 193.14,11.03 194.80,11.94 196.45,11.66 198.11,11.73 199.77,46.54 201.43,42.57 203.09,42.57 204.75,37.35 206.41,37.35 208.07,37.35 209.73,34.49 211.39,34.49 213.05,34.49 214.70,26.91 216.36,29.14 218.02,29.14 219.68,29.14 221.34,23.15 223.00,23.15 224.66,23.15 226.32,24.33 227.98,24.33 229.64,24.33 231.30,22.80 232.95,22.80 234.61,20.37 236.27,20.37 237.93,20.37 239.59,21.56 241.25,21.56 242.91,21.97 244.57,21.97 246.23,21.97 247.89,15.71 249.55,15.71 251.20,12.43 252.86,16.61 254.52,16.61 256.18,16.40 257.84,16.40 259.50,16.40 261.16,12.50 262.82,16.84 264.48,16.84 266.14,10.36 267.80,10.36 269.45,10.36 271.11,4.00 272.77,4.00 274.43,15.77 276.09,13.05 277.75,13.05 279.41,13.05 281.07,11.24 282.73,11.24 284.39,8.94 286.05,8.94 287.70,12.91 289.36,10.69 291.02,10.69 292.68,10.69 294.34,8.25 296.00,8.25" />
</svg>