<svg width="300" height="60" xmlns="http://www.w3.org/2000/svg">
  <polyline fill="rgba(255,200,0,0.3)" stroke="#ffbb00" stroke-width="2" points="4.00,55.85 4.67,55.66 5.33,55.18 6.00,54.69 6.66,54.47 7.33,53.97 7.99,53.08 8.66,52.07 9.32,51.11 9.99,50.26 10.65,49.39 11.32,48.95 11.98,48.66 12.65,48.52 13.31,48.53 13.98,48.48 14.64,48.40 15.31,48.09 15.97,47.39 16.64,46.13 17.30,45.14 17.97,44.40 18.63,43.64 19.30,43.01 19.96,42.40 20.63,41.79 21.29,41.21 21.96,40.46 22.62,39.60 23.29,38.70 23.95,37.71 24.62,36.84 25.28,35.95 25.95,34.86 26.62,34.20 27.28,33.73 27.95,33.37 28.61,32.97 29.28,32.51 29.94,31.96 30.61,31.22 31.27,30.55 31.94,29.88 32.60,29.46 33.27,29.59 33.93,29.67 34.60,29.36 35.26,28.69 35.93,27.81 36.59,26.53 37.26,25.25 37.92,24.41 38.59,23.61 39.25,22.96 39.92,22.51 40.58,22.00 41.25,21.53 41.91,21.38 42.58,21.16 43.24,20.41 43.91,19.57 44.57,18.90 45.24,18.44 45.90,17.94 46.57,17.70 47.23,17.03 47.90,15.91 48.56,14.96 49.23,14.44 49.90,14.21 50.56,14.27 51.23,14.00 51.89,13.41 52.56,12.84 53.22,12.55 53.89,12.42 54.55,12.17 55.22,12.16 55.88,12.24 56.55,11.73 57.21,9.99 57.88,8.49 58.54,7.88 59.21,7.50 59.87,7.32 60.54,7.05 61.20,7.11 61.87,7.17 62.53,7.00 63.20,6.58 63.86,6.39 64.53,6.24 65.19,6.27 65.86,6.37 66.52,6.45 67.19,6.18 67.85,5.88 68.52,5.11 69.18,4.67 69.85,4.58 70.51,5.07 71.18,5.09 71.85,5.16 72.51,5.64 73.18,6.34 73.84,6.29 74.51,6.13 75.17,6.12 75.84,6.05 76.50,5.57 77.17,56.00 77.83,55.67 78.50,55.20 79.16,54.71 79.83,54.46 80.49,53.96 81.16,53.05 81.82,52.24 82.49,51.08 83.15,50.34 83.82,49.39 84.48,48.87 85.15,48.65 85.81,48.51 86.48,48.52 87.14,48.50 87.81,48.44 88.47,47.94 89.14,47.53 89.80,46.09 90.47,45.20 91.13,44.26 91.80,43.48 92.46,42.85 93.13,42.86 93.79,42.08 94.46,41.31 95.13,40.37 95.79,39.33 96.46,38.96 97.12,37.65 97.79,36.82 98.45,36.20 99.12,34.93 99.78,34.19 100.45,33.68 101.11,33.34 101.78,33.01 102.44,32.40 103.11,31.88 103.77,31.22 104.44,30.64 105.10,29.70 105.77,29.47 106.43,29.96 107.10,29.65 107.76,29.38 108.43,28.56 109.09,27.74 109.76,26.54 110.42,25.51 111.09,24.32 111.75,23.81 112.42,23.00 113.08,22.48 113.75,21.96 114.41,21.73 115.08,21.39 115.74,21.01 116.41,20.45 117.08,19.56 117.74,19.06 118.41,18.48 119.07,17.88 119.74,17.68 120.40,17.28 121.07,15.89 121.73,15.04 122.40,14.33 123.06,14.19 123.73,14.20 124.39,13.72 125.06,13.42 125.72,12.75 126.39,12.34 127.05,12.35 127.72,12.26 128.38,12.11 129.05,12.23 129.71,11.61 130.38,9.97 131.04,8.47 131.71,7.89 132.37,7.37 133.04,7.14 133.70,6.79 134.37,7.07 135.03,7.30 135.70,7.32 136.36,6.75 137.03,6.46 137.69,6.18 138.36,6.60 139.03,6.47 139.69,6.62 140.36,6.16 141.02,5.76 141.69,4.95 142.35,4.32 143.02,4.40 143.68,4.87 144.35,4.92 145.01,5.22 145.68,5.45 146.34,6.38 147.01,6.23 147.67,6.22 148.34,6.32 149.00,5.98 149.67,5.75 150.33,55.47 151.00,55.45 151.66,55.15 152.33,54.53 152.99,54.36 153.66,53.65 154.32,52.89 154.99,51.76 155.65,50.63 156.32,50.63 156.98,49.60 157.65,48.95 158.31,48.67 158.98,48.34 159.64,48.75 160.31,48.55 160.97,48.36 161.64,47.88 162.31,47.38 162.97,46.05 163.64,44.82 164.30,43.66 164.97,44.00 165.63,42.95 166.30,43.53 166.96,41.92 167.63,40.66 168.29,40.94 168.96,39.28 169.62,39.51 170.29,37.75 170.95,36.27 171.62,36.57 172.28,35.43 172.95,34.40 173.61,33.90 174.28,33.73 174.94,32.99 175.61,32.77 176.27,32.03 176.94,31.29 177.60,31.00 178.27,30.18 178.93,29.95 179.60,29.91 180.26,29.91 180.93,29.46 181.59,28.25 182.26,27.87 182.92,26.05 183.59,25.59 184.26,24.07 184.92,24.07 185.59,22.74 186.25,22.69 186.92,21.72 187.58,21.93 188.25,21.33 188.91,21.34 189.58,20.15 190.24,20.15 190.91,18.96 191.57,19.01 192.24,18.00 192.90,18.25 193.57,16.77 194.23,16.37 194.90,14.84 195.56,15.04 196.23,13.86 196.89,14.45 197.56,13.90 198.22,13.34 198.89,12.18 199.55,12.79 200.22,12.25 200.88,11.81 201.55,11.64 202.21,11.72 202.88,10.68 203.54,9.38 204.21,8.19 204.87,7.51 205.54,7.09 206.21,6.80 206.87,6.27 207.54,7.92 208.20,7.31 208.87,7.57 209.53,6.33 210.20,7.24 210.86,6.89 211.53,6.72 212.19,6.72 212.86,6.46 213.52,5.92 214.19,6.43 214.85,5.42 215.52,4.00 216.18,4.82 216.85,4.72 217.51,5.62 218.18,5.55 218.84,6.00 219.51,6.83 220.17,7.03 220.84,7.03 221.50,7.04 222.17,6.85 222.83,6.17 223.50,54.87 224.16,54.87 224.83,53.68 225.49,52.93 226.16,52.93 226.82,51.81 227.49,51.81 228.15,51.81 228.82,49.32 229.49,49.32 230.15,49.32 230.82,49.32 231.48,49.16 232.15,49.16 232.81,49.16 233.48,49.16 234.14,47.14 234.81,47.14 235.47,47.14 236.14,43.33 236.80,44.02 237.47,44.02 238.13,44.02 238.80,40.53 239.46,40.53 240.13,40.53 240.79,40.53 241.46,41.53 242.12,36.02 242.79,36.02 243.45,36.92 244.12,36.92 244.78,36.92 245.45,35.46 246.11,35.46 246.78,35.46 247.44,35.47 248.11,35.47 248.77,35.47 249.44,32.75 250.10,32.75 250.77,32.75 251.44,30.40 252.10,32.15 252.77,32.15 253.43,32.15 254.10,29.17 254.76,28.49 255.43,28.49 256.09,28.49 256.76,27.51 257.42,23.97 258.09,23.97 258.75,23.97 259.42,23.79 260.08,23.79 260.75,23.79 261.41,21.11 262.08,21.11 262.74,21.11 263.41,21.11 264.07,21.59 264.74,21.59 265.40,17.97 266.07,17.67 266.73,17.67 267.40,17.67 268.06,17.77 268.73,17.77 269.39,14.49 270.06,14.49 270.72,16.91 271.39,16.91 272.05,13.78 272.72,13.78 273.38,13.78 274.05,12.05 274.72,12.05 275.38,12.05 276.05,10.96 276.71,10.96 277.38,8.33 278.04,8.33 278.71,8.33 279.37,6.76 280.04,6.76 280.70,10.42 281.37,10.42 282.03,10.42 282.70,7.18 283.36,7.18 284.03,10.06 284.69,10.06 285.36,10.06 286.02,6.30 286.69,8.26 287.35,8.26 288.02,8.26 288.68,4.20 289.35,6.88 290.01,6.88 290.68,6.88 291.34,9.94 292.01,6.35 292.67,6.35 293.34,6.57 294.00,6.57 294.67,6.57 295.33,6.57 296.00,5.27" />
</svg>