<svg width="300" height="60" xmlns="http://www.w3.org/2000/svg">
  <polyline fill="rgba(255,200,0,0.3)" stroke="#ffbb00" stroke-width="2" points="4.00,55.03 4.36,55.49 4.72,55.80 5.07,55.46 5.43,55.68 5.79,55.48 6.15,55.28 6.51,55.05 6.87,54.53 7.22,53.85 7.58,53.06 7.94,52.80 8.30,52.32 8.66,51.71 9.02,51.18 9.37,51.06 9.73,51.28 10.09,51.64 10.45,51.95 10.81,52.17 11.17,51.94 11.52,51.96 11.88,51.49 12.24,50.98 12.60,50.56 12.96,50.45 13.32,50.66 13.67,50.74 14.03,50.85 14.39,50.58 14.75,49.41 15.11,48.57 15.47,47.98 15.82,47.80 16.18,47.84 16.54,47.61 16.90,47.80 17.26,47.46 17.61,46.66 17.97,46.29 18.33,45.84 18.69,44.67 19.05,43.73 19.41,43.22 19.76,43.43 20.12,44.07 20.48,44.65 20.84,44.87 21.20,44.83 21.56,44.23 21.91,43.74 22.27,43.77 22.63,44.53 22.99,45.63 23.35,46.50 23.71,46.64 24.06,47.02 24.42,48.02 24.78,48.97 25.14,49.49 25.50,49.91 25.86,49.33 26.21,49.20 26.57,48.50 26.93,48.40 27.29,48.47 27.65,48.69 28.00,48.80 28.36,48.82 28.72,48.27 29.08,47.67 29.44,46.39 29.80,46.30 30.15,46.61 30.51,47.17 30.87,47.26 31.23,47.08 31.59,47.16 31.95,47.11 32.30,46.76 32.66,46.09 33.02,45.56 33.38,45.08 33.74,44.66 34.10,44.20 34.45,44.12 34.81,44.44 35.17,44.86 35.53,45.76 35.89,46.06 36.25,46.62 36.60,46.79 36.96,46.32 37.32,46.52 37.68,46.84 38.04,47.07 38.40,47.35 38.75,47.50 39.11,47.07 39.47,46.09 39.83,46.18 40.19,46.85 40.54,48.41 40.90,48.37 41.26,49.00 41.62,49.04 41.98,49.71 42.34,50.12 42.69,50.91 43.05,51.55 43.41,52.21 43.77,52.32 44.13,52.35 44.49,51.56 44.84,49.71 45.20,48.75 45.56,48.46 45.92,47.58 46.28,46.92 46.64,46.96 46.99,46.65 47.35,45.80 47.71,45.40 48.07,44.93 48.43,44.51 48.79,44.68 49.14,44.61 49.50,44.77 49.86,45.16 50.22,44.84 50.58,44.52 50.93,44.34 51.29,43.77 51.65,43.26 52.01,42.81 52.37,42.27 52.73,41.75 53.08,42.10 53.44,43.48 53.80,43.80 54.16,42.86 54.52,41.98 54.88,40.78 55.23,38.82 55.59,38.92 55.95,40.65 56.31,41.89 56.67,42.44 57.03,42.46 57.38,42.14 57.74,42.60 58.10,42.29 58.46,40.73 58.82,41.12 59.18,43.96 59.53,44.17 59.89,45.51 60.25,45.20 60.61,45.07 60.97,44.98 61.33,44.70 61.68,44.02 62.04,43.17 62.40,42.75 62.76,42.85 63.12,42.91 63.47,43.13 63.83,43.52 64.19,44.03 64.55,44.56 64.91,45.97 65.27,46.95 65.62,47.62 65.98,47.77 66.34,44.83 66.70,42.45 67.06,42.69 67.42,42.81 67.77,43.07 68.13,43.84 68.49,44.85 68.85,47.04 69.21,48.36 69.57,48.69 69.92,47.69 70.28,46.60 70.64,46.36 71.00,46.99 71.36,47.22 71.72,47.23 72.07,45.58 72.43,44.57 72.79,44.30 73.15,46.11 73.51,48.01 73.87,48.93 74.22,48.32 74.58,47.62 74.94,48.60 75.30,50.78 75.66,50.19 76.01,49.56 76.37,47.55 76.73,46.43 77.09,45.43 77.45,44.74 77.81,44.05 78.16,43.83 78.52,44.56 78.88,44.57 79.24,44.88 79.60,45.18 79.96,44.58 80.31,43.58 80.67,42.02 81.03,40.62 81.39,39.16 81.75,39.27 82.11,39.51 82.46,40.65 82.82,40.71 83.18,40.20 83.54,39.78 83.90,39.30 84.26,38.42 84.61,37.75 84.97,37.77 85.33,38.13 85.69,38.36 86.05,37.43 86.40,36.00 86.76,35.56 87.12,37.34 87.48,37.06 87.84,36.88 88.20,36.62 88.55,36.04 88.91,36.38 89.27,36.45 89.63,36.64 89.99,36.11 90.35,35.29 90.70,34.79 91.06,35.09 91.42,35.33 91.78,36.01 92.14,34.64 92.50,33.11 92.85,31.74 93.21,29.82 93.57,28.11 93.93,26.66 94.29,24.97 94.65,23.54 95.00,21.62 95.36,19.95 95.72,18.72 96.08,18.12 96.44,18.02 96.80,17.97 97.15,17.96 97.51,17.58 97.87,16.18 98.23,14.80 98.59,12.69 98.94,11.04 99.30,9.66 99.66,8.67 100.02,8.41 100.38,7.60 100.74,6.04 101.09,4.00 101.45,54.79 101.81,55.24 102.17,55.42 102.53,55.27 102.89,55.21 103.24,54.99 103.60,55.38 103.96,54.75 104.32,53.76 104.68,53.44 105.04,53.44 105.39,53.01 105.75,52.36 106.11,51.99 106.47,51.38 106.83,51.15 107.19,50.97 107.54,51.56 107.90,51.58 108.26,51.93 108.62,51.86 108.98,50.96 109.33,51.82 109.69,51.34 110.05,50.87 110.41,49.48 110.77,50.60 111.13,51.18 111.48,50.96 111.84,50.36 112.20,49.24 112.56,48.95 112.92,48.07 113.28,47.27 113.63,47.76 113.99,47.11 114.35,47.98 114.71,47.79 115.07,46.67 115.43,46.11 115.78,46.22 116.14,44.79 116.50,44.21 116.86,43.29 117.22,43.55 117.58,44.03 117.93,44.42 118.29,44.80 118.65,43.91 119.01,43.91 119.37,42.92 119.73,43.68 120.08,44.18 120.44,46.06 120.80,46.93 121.16,45.82 121.52,47.17 121.87,47.34 122.23,48.79 122.59,49.24 122.95,49.98 123.31,49.98 123.67,49.89 124.02,49.49 124.38,48.95 124.74,48.45 125.10,47.93 125.46,49.23 125.82,48.64 126.17,47.58 126.53,48.21 126.89,46.76 127.25,47.56 127.61,45.85 127.97,46.68 128.32,49.21 128.68,47.44 129.04,48.30 129.40,49.75 129.76,47.95 130.12,46.52 130.47,45.29 130.83,44.75 131.19,45.63 131.55,44.14 131.91,42.84 132.27,44.51 132.62,43.90 132.98,46.06 133.34,45.58 133.70,45.02 134.06,46.96 134.41,45.75 134.77,45.75 135.13,47.41 135.49,46.44 135.85,45.19 136.21,47.47 136.56,46.43 136.92,45.63 137.28,45.44 137.64,45.91 138.00,46.43 138.36,46.77 138.71,47.04 139.07,47.47 139.43,47.91 139.79,48.16 140.15,50.94 140.51,52.41 140.86,51.82 141.22,52.12 141.58,52.38 141.94,51.33 142.30,49.64 142.66,48.58 143.01,49.12 143.37,48.32 143.73,46.61 144.09,47.54 144.45,46.52 144.80,46.94 145.16,45.01 145.52,45.47 145.88,45.94 146.24,44.08 146.60,44.32 146.95,44.69 147.31,45.29 147.67,46.07 148.03,44.50 148.39,45.33 148.75,44.63 149.10,43.83 149.46,42.97 149.82,42.42 150.18,41.75 150.54,41.69 150.90,43.62 151.25,44.05 151.61,43.41 151.97,42.67 152.33,39.88 152.69,39.92 153.05,38.28 153.40,39.18 153.76,41.56 154.12,43.08 154.48,42.83 154.84,42.46 155.20,42.03 155.55,41.16 155.91,42.55 156.27,42.13 156.63,41.97 156.99,45.70 157.34,45.61 157.70,45.15 158.06,45.22 158.42,45.22 158.78,44.70 159.14,44.57 159.49,43.09 159.85,43.06 160.21,42.94 160.57,43.50 160.93,43.74 161.29,43.45 161.64,43.97 162.00,44.51 162.36,44.82 162.72,46.70 163.08,47.50 163.44,48.34 163.79,44.55 164.15,44.87 164.51,42.95 164.87,42.95 165.23,42.28 165.59,44.08 165.94,45.31 166.30,47.75 166.66,47.75 167.02,49.01 167.38,47.64 167.73,47.94 168.09,47.56 168.45,46.58 168.81,47.46 169.17,46.93 169.53,45.39 169.88,44.44 170.24,44.55 170.60,46.00 170.96,47.90 171.32,49.49 171.68,50.66 172.03,47.04 172.39,49.03 172.75,50.81 173.11,50.50 173.47,49.62 173.83,47.92 174.18,47.61 174.54,45.64 174.90,45.66 175.26,44.53 175.62,44.53 175.98,45.07 176.33,45.51 176.69,46.22 177.05,46.65 177.41,43.90 177.77,42.87 178.13,41.72 178.48,39.82 178.84,39.19 179.20,39.32 179.56,39.86 179.92,40.34 180.27,40.19 180.63,40.87 180.99,40.08 181.35,39.05 181.71,37.81 182.07,38.40 182.42,37.74 182.78,39.05 183.14,38.36 183.50,38.41 183.86,36.87 184.22,36.01 184.57,36.49 184.93,36.77 185.29,36.77 185.65,36.57 186.01,36.36 186.37,36.03 186.72,37.16 187.08,36.55 187.44,35.56 187.80,34.49 188.16,35.48 188.52,34.79 188.87,36.22 189.23,35.68 189.59,35.29 189.95,33.45 190.31,32.07 190.67,30.67 191.02,28.65 191.38,27.22 191.74,25.73 192.10,24.18 192.46,22.44 192.81,20.52 193.17,18.32 193.53,18.08 193.89,18.08 194.25,18.10 194.61,16.96 194.96,17.33 195.32,15.47 195.68,14.92 196.04,12.52 196.40,10.53 196.76,9.20 197.11,8.65 197.47,8.83 197.83,7.16 198.19,7.16 198.55,4.29 198.91,53.72 199.26,53.72 199.62,55.17 199.98,55.17 200.34,55.17 200.70,54.76 201.06,54.76 201.41,54.76 201.77,52.76 202.13,52.76 202.49,52.76 202.85,55.10 203.20,52.27 203.56,52.27 203.92,52.27 204.28,50.91 204.64,50.91 205.00,50.91 205.35,49.81 205.71,49.81 206.07,49.81 206.43,48.90 206.79,51.35 207.15,51.35 207.50,51.35 207.86,46.80 208.22,51.00 208.58,51.00 208.94,51.00 209.30,48.43 209.65,48.43 210.01,48.43 210.37,45.27 210.73,45.27 211.09,49.31 211.45,46.89 211.80,46.89 212.16,46.89 212.52,46.89 212.88,45.94 213.24,45.94 213.60,45.94 213.95,45.94 214.31,43.61 214.67,43.61 215.03,43.61 215.39,44.41 215.74,44.41 216.10,41.64 216.46,41.64 216.82,42.22 217.18,42.22 217.54,42.22 217.89,46.22 218.25,43.59 218.61,43.59 218.97,43.59 219.33,47.50 219.69,47.50 220.04,47.50 220.40,47.50 220.76,50.42 221.12,50.42 221.48,50.42 221.84,51.87 222.19,51.87 222.55,51.87 222.91,51.28 223.27,51.28 223.63,49.18 223.99,49.18 224.34,49.18 224.70,51.98 225.06,51.98 225.42,51.98 225.78,51.98 226.13,47.45 226.49,56.00 226.85,56.00 227.21,51.82 227.57,51.82 227.93,51.82 228.28,48.13 228.64,48.13 229.00,48.13 229.36,40.51 229.72,45.57 230.08,45.57 230.43,42.98 230.79,42.98 231.15,42.98 231.51,40.06 231.87,40.06 232.23,40.06 232.58,49.38 232.94,46.13 233.30,46.13 233.66,46.13 234.02,42.61 234.38,42.61 234.73,42.61 235.09,41.30 235.45,41.30 235.81,41.30 236.17,42.05 236.53,42.05 236.88,42.05 237.24,43.87 237.60,43.87 237.96,51.97 238.32,51.97 238.67,51.39 239.03,51.76 239.39,51.76 239.75,51.76 240.11,49.85 240.47,49.85 240.82,49.85 241.18,49.85 241.54,52.17 241.90,46.82 242.26,46.82 242.62,48.10 242.97,48.10 243.33,48.10 243.69,49.01 244.05,49.01 244.41,49.01 244.77,51.30 245.12,51.30 245.48,45.48 245.84,45.48 246.20,47.04 246.56,47.04 246.92,43.23 247.27,43.23 247.63,43.23 247.99,41.87 248.35,44.68 248.71,48.82 249.07,48.82 249.42,48.82 249.78,40.59 250.14,40.59 250.50,40.59 250.86,40.59 251.21,44.14 251.57,44.14 251.93,47.28 252.29,47.28 252.65,47.28 253.01,46.06 253.36,46.06 253.72,46.06 254.08,44.81 254.44,44.81 254.80,44.35 255.16,44.35 255.51,46.87 255.87,46.87 256.23,44.42 256.59,44.42 256.95,44.35 257.31,44.35 257.66,44.35 258.02,45.61 258.38,44.42 258.74,44.42 259.10,44.42 259.46,44.23 259.81,46.86 260.17,46.86 260.53,46.86 260.89,47.40 261.25,48.94 261.60,48.94 261.96,48.94 262.32,48.94 262.68,46.51 263.04,46.51 263.40,46.51 263.75,52.47 264.11,52.47 264.47,49.37 264.83,49.37 265.19,53.09 265.55,53.09 265.90,48.51 266.26,48.51 266.62,51.04 266.98,46.08 267.34,46.08 267.70,46.08 268.05,46.73 268.41,46.73 268.77,46.73 269.13,51.77 269.49,51.77 269.85,52.81 270.20,52.81 270.56,52.81 270.92,49.31 271.28,49.31 271.64,49.31 272.00,49.22 272.35,49.22 272.71,44.98 273.07,44.98 273.43,50.26 273.79,51.54 274.14,51.54 274.50,51.54 274.86,43.49 275.22,43.49 275.58,43.49 275.94,40.70 276.29,40.70 276.65,39.25 277.01,39.25 277.37,39.25 277.73,39.21 278.09,45.17 278.44,42.53 278.80,42.53 279.16,42.53 279.52,39.92 279.88,39.92 280.24,39.92 280.59,37.49 280.95,38.62 281.31,38.62 281.67,38.62 282.03,36.45 282.39,36.45 282.74,36.45 283.10,36.45 283.46,38.36 283.82,38.36 284.18,38.36 284.53,36.18 284.89,36.18 285.25,36.18 285.61,34.20 285.97,34.20 286.33,38.29 286.68,38.29 287.04,38.27 287.40,34.20 287.76,34.20 288.12,34.20 288.48,30.72 288.83,30.72 289.19,26.24 289.55,26.24 289.91,26.24 290.27,20.71 290.63,20.71 290.98,20.49 291.34,20.49 291.70,20.49 292.06,20.49 292.42,16.96 292.78,16.96 293.13,16.96 293.49,11.90 293.85,11.90 294.21,11.90 294.57,12.44 294.93,12.44 295.28,12.44 295.64,12.44 296.00,12.30" />
</svg>