<svg width="300" height="60" xmlns="http://www.w3.org/2000/svg">
  <polyline fill="rgba(255,200,0,0.3)" stroke="#ffbb00" stroke-width="2" points="4.00,6.71 4.38,6.14 4.75,5.52 5.13,4.85 5.51,4.56 5.88,4.53 6.26,4.52 6.64,4.47 7.01,4.46 7.39,4.71 7.77,5.18 8.14,5.91 8.52,6.80 8.90,7.53 9.27,8.19 9.65,8.85 10.03,9.74 10.41,10.82 10.78,12.04 11.16,13.13 11.54,13.90 11.91,14.59 12.29,15.18 12.67,15.73 13.04,16.62 13.42,17.71 13.80,19.06 14.17,20.36 14.55,21.66 14.93,22.93 15.30,24.04 15.68,25.01 16.06,25.94 16.43,26.94 16.81,27.83 17.19,28.86 17.56,29.69 17.94,30.55 18.32,31.48 18.69,32.26 19.07,33.37 19.45,33.67 19.82,34.51 20.20,35.11 20.58,35.79 20.95,36.49 21.33,36.28 21.71,37.01 22.09,37.48 22.46,39.39 22.84,40.37 23.22,41.51 23.59,42.65 23.97,43.64 24.35,44.18 24.72,44.77 25.10,45.13 25.48,45.35 25.85,45.63 26.23,46.00 26.61,53.65 26.98,56.00 27.36,55.91 27.74,47.23 28.11,45.65 28.49,46.93 28.87,47.22 29.24,47.33 29.62,47.60 30.00,48.16 30.37,48.09 30.75,47.83 31.13,47.24 31.50,46.47 31.88,45.75 32.26,45.01 32.63,44.45 33.01,44.08 33.39,43.94 33.77,43.88 34.14,43.94 34.52,44.10 34.90,43.61 35.27,43.43 35.65,42.56 36.03,41.91 36.40,41.80 36.78,42.16 37.16,42.00 37.53,41.87 37.91,41.54 38.29,41.16 38.66,40.80 39.04,40.22 39.42,38.92 39.79,38.43 40.17,37.24 40.55,35.14 40.92,33.63 41.30,32.64 41.68,31.88 42.05,31.51 42.43,30.98 42.81,30.76 43.18,30.99 43.56,31.00 43.94,31.59 44.31,31.87 44.69,32.38 45.07,32.44 45.45,33.70 45.82,34.37 46.20,33.53 46.58,33.21 46.95,34.03 47.33,34.98 47.71,36.18 48.08,37.01 48.46,37.67 48.84,37.71 49.21,38.72 49.59,39.32 49.97,39.99 50.34,39.86 50.72,39.00 51.10,38.11 51.47,38.64 51.85,39.35 52.23,40.33 52.60,41.21 52.98,42.40 53.36,43.03 53.73,44.64 54.11,46.10 54.49,47.20 54.86,47.65 55.24,48.05 55.62,48.15 55.99,47.99 56.37,48.15 56.75,48.77 57.13,48.92 57.50,48.71 57.88,48.55 58.26,48.25 58.63,48.00 59.01,47.36 59.39,45.13 59.76,43.76 60.14,42.81 60.52,41.22 60.89,40.05 61.27,39.23 61.65,38.77 62.02,38.22 62.40,37.74 62.78,37.40 63.15,37.27 63.53,37.05 63.91,37.31 64.28,37.49 64.66,37.79 65.04,37.97 65.41,38.16 65.79,38.42 66.17,38.21 66.54,37.68 66.92,36.77 67.30,35.75 67.67,34.61 68.05,33.74 68.43,33.27 68.81,33.29 69.18,33.76 69.56,34.78 69.94,35.93 70.31,36.91 70.69,37.69 71.07,38.07 71.44,38.41 71.82,37.82 72.20,37.29 72.57,36.88 72.95,36.71 73.33,35.94 73.70,35.22 74.08,34.32 74.46,33.93 74.83,34.35 75.21,34.68 75.59,35.26 75.96,35.40 76.34,35.49 76.72,34.93 77.09,6.71 77.47,6.30 77.85,5.49 78.22,4.91 78.60,4.72 78.98,4.58 79.35,4.57 79.73,4.50 80.11,4.59 80.49,4.89 80.86,5.39 81.24,6.18 81.62,7.20 81.99,7.74 82.37,8.41 82.75,9.01 83.12,9.82 83.50,11.02 83.88,12.12 84.25,13.33 84.63,14.19 85.01,14.70 85.38,15.29 85.76,15.99 86.14,16.91 86.51,18.16 86.89,19.16 87.27,20.89 87.64,21.91 88.02,23.01 88.40,24.27 88.77,25.14 89.15,26.03 89.53,27.31 89.90,28.13 90.28,28.94 90.66,29.69 91.03,30.44 91.41,31.86 91.79,32.35 92.17,32.97 92.54,33.84 92.92,34.59 93.30,35.15 93.67,36.12 94.05,36.42 94.43,36.74 94.80,37.60 95.18,37.37 95.56,39.64 95.93,40.53 96.31,41.74 96.69,42.68 97.06,43.61 97.44,44.44 97.82,44.83 98.19,45.18 98.57,45.42 98.95,45.68 99.32,46.00 99.70,52.60 100.08,56.00 100.45,55.84 100.83,46.21 101.21,45.68 101.58,47.18 101.96,47.37 102.34,47.76 102.71,47.10 103.09,48.09 103.47,47.66 103.85,47.93 104.22,47.43 104.60,46.44 104.98,45.74 105.35,44.85 105.73,44.46 106.11,44.25 106.48,44.06 106.86,43.86 107.24,43.78 107.61,44.42 107.99,43.67 108.37,43.64 108.74,42.64 109.12,42.21 109.50,41.65 109.87,42.29 110.25,41.71 110.63,41.85 111.00,41.63 111.38,41.29 111.76,40.97 112.13,39.92 112.51,38.82 112.89,38.20 113.26,37.29 113.64,35.44 114.02,33.67 114.39,33.04 114.77,32.13 115.15,31.81 115.53,31.03 115.90,30.65 116.28,30.94 116.66,31.04 117.03,31.74 117.41,32.01 117.79,32.57 118.16,32.40 118.54,33.66 118.92,34.29 119.29,33.54 119.67,33.36 120.05,34.12 120.42,34.63 120.80,36.17 121.18,37.13 121.55,37.64 121.93,37.72 122.31,38.49 122.68,39.31 123.06,39.76 123.44,39.28 123.81,39.17 124.19,37.73 124.57,38.39 124.94,39.20 125.32,39.68 125.70,41.57 126.07,43.16 126.45,43.56 126.83,44.73 127.21,46.59 127.58,46.68 127.96,47.32 128.34,48.15 128.71,48.01 129.09,48.12 129.47,48.47 129.84,48.72 130.22,49.05 130.60,48.92 130.97,48.63 131.35,48.42 131.73,48.10 132.10,47.78 132.48,45.08 132.86,44.25 133.23,42.91 133.61,41.51 133.99,40.21 134.36,39.33 134.74,38.98 135.12,38.33 135.49,37.89 135.87,37.94 136.25,37.16 136.62,37.16 137.00,37.32 137.38,37.61 137.75,37.80 138.13,37.85 138.51,38.32 138.89,38.27 139.26,38.19 139.64,37.88 140.02,37.03 140.39,36.06 140.77,34.57 141.15,33.90 141.52,33.41 141.90,33.35 142.28,33.76 142.65,34.59 143.03,35.83 143.41,37.05 143.78,37.85 144.16,38.28 144.54,38.45 144.91,37.96 145.29,37.42 145.67,37.07 146.04,36.80 146.42,35.62 146.80,35.47 147.17,34.21 147.55,34.05 147.93,34.33 148.30,34.76 148.68,35.49 149.06,35.25 149.43,35.64 149.81,35.04 150.19,6.72 150.57,6.08 150.94,5.60 151.32,4.90 151.70,5.22 152.07,4.74 152.45,5.38 152.83,4.85 153.20,4.55 153.58,4.77 153.96,5.19 154.33,5.73 154.71,6.97 155.09,7.27 155.46,8.26 155.84,8.15 156.22,9.30 156.59,10.60 156.97,11.06 157.35,13.17 157.72,13.74 158.10,14.65 158.48,15.08 158.85,16.12 159.23,16.77 159.61,17.57 159.98,18.56 160.36,19.74 160.74,21.08 161.11,22.34 161.49,24.51 161.87,25.29 162.25,26.13 162.62,27.41 163.00,28.06 163.38,28.59 163.75,29.75 164.13,30.23 164.51,31.27 164.88,31.89 165.26,32.41 165.64,33.29 166.01,33.96 166.39,34.66 166.77,35.70 167.14,35.60 167.52,36.72 167.90,36.92 168.27,37.16 168.65,37.67 169.03,38.45 169.40,41.52 169.78,42.27 170.16,43.15 170.53,44.00 170.91,44.72 171.29,45.37 171.66,45.15 172.04,45.66 172.42,46.01 172.79,53.06 173.17,55.90 173.55,55.90 173.93,49.53 174.30,46.26 174.68,46.10 175.06,47.28 175.43,46.93 175.81,47.86 176.19,47.22 176.56,48.16 176.94,47.29 177.32,47.29 177.69,46.60 178.07,45.85 178.45,44.61 178.82,44.16 179.20,43.94 179.58,43.83 179.95,43.83 180.33,43.91 180.71,43.67 181.08,43.42 181.46,43.88 181.84,43.02 182.21,42.47 182.59,42.37 182.97,42.34 183.34,41.67 183.72,41.59 184.10,41.27 184.47,40.44 184.85,40.65 185.23,39.72 185.61,38.94 185.98,38.05 186.36,37.20 186.74,35.81 187.11,32.97 187.49,33.45 187.87,31.47 188.24,32.27 188.62,30.51 189.00,30.99 189.37,30.56 189.75,30.99 190.13,31.12 190.50,31.23 190.88,31.38 191.26,31.56 191.63,32.05 192.01,32.85 192.39,32.72 192.76,33.52 193.14,33.33 193.52,33.62 193.89,34.39 194.27,34.96 194.65,35.76 195.02,36.97 195.40,38.31 195.78,37.43 196.15,39.91 196.53,38.19 196.91,39.37 197.29,37.87 197.66,39.40 198.04,40.68 198.42,40.50 198.79,41.73 199.17,41.92 199.55,43.13 199.92,43.82 200.30,45.30 200.68,46.45 201.05,47.47 201.43,47.87 201.81,48.38 202.18,48.38 202.56,48.51 202.94,49.16 203.31,49.08 203.69,48.97 204.07,48.78 204.44,48.35 204.82,48.32 205.20,47.28 205.57,46.07 205.95,44.65 206.33,42.05 206.70,40.76 207.08,41.67 207.46,40.36 207.83,39.50 208.21,38.80 208.59,37.47 208.97,38.81 209.34,37.98 209.72,37.41 210.10,37.39 210.47,37.71 210.85,37.76 211.23,38.10 211.60,38.18 211.98,39.01 212.36,37.49 212.73,38.10 213.11,36.87 213.49,35.67 213.86,34.52 214.24,34.52 214.62,33.66 214.99,33.74 215.37,34.84 215.75,34.62 216.12,36.12 216.50,36.66 216.88,37.62 217.25,38.03 217.63,38.80 218.01,37.88 218.38,37.16 218.76,36.46 219.14,36.46 219.51,35.71 219.89,34.96 220.27,34.53 220.65,34.56 221.02,34.53 221.40,35.02 221.78,35.37 222.15,35.74 222.53,35.69 222.91,35.07 223.28,6.28 223.66,6.28 224.04,6.28 224.41,4.00 224.79,5.75 225.17,5.75 225.54,4.65 225.92,4.65 226.30,4.65 226.67,4.73 227.05,5.24 227.43,5.24 227.80,6.90 228.18,6.90 228.56,7.41 228.93,7.41 229.31,7.41 229.69,10.44 230.06,11.43 230.44,11.43 230.82,11.43 231.19,14.43 231.57,14.43 231.95,18.16 232.33,18.16 232.70,18.16 233.08,20.70 233.46,19.23 233.83,19.23 234.21,22.60 234.59,22.60 234.96,26.29 235.34,26.29 235.72,26.29 236.09,29.54 236.47,29.54 236.85,29.19 237.22,30.21 237.60,30.21 237.98,30.21 238.35,32.00 238.73,32.00 239.11,32.00 239.48,34.41 239.86,34.41 240.24,35.99 240.61,35.99 240.99,35.99 241.37,36.88 241.74,36.88 242.12,36.88 242.50,38.62 242.87,38.62 243.25,41.52 243.63,41.52 244.01,41.52 244.38,45.62 244.76,44.76 245.14,44.76 245.51,47.28 245.89,47.28 246.27,52.02 246.64,52.02 247.02,52.53 247.40,52.53 247.77,52.53 248.15,46.98 248.53,46.98 248.90,46.98 249.28,46.74 249.66,46.74 250.03,46.74 250.41,47.27 250.79,47.27 251.16,47.27 251.54,45.20 251.92,45.20 252.29,44.53 252.67,44.53 253.05,44.53 253.42,44.61 253.80,44.61 254.18,44.18 254.55,44.18 254.93,44.18 255.31,43.56 255.69,43.56 256.06,43.56 256.44,42.71 256.82,42.71 257.19,40.88 257.57,40.88 257.95,42.44 258.32,39.20 258.70,39.20 259.08,39.20 259.45,34.87 259.83,35.13 260.21,35.13 260.58,35.13 260.96,32.56 261.34,32.56 261.71,29.69 262.09,30.10 262.47,30.10 262.84,29.37 263.22,29.37 263.60,29.37 263.97,28.41 264.35,28.41 264.73,28.41 265.10,29.16 265.48,29.16 265.86,29.85 266.23,29.85 266.61,34.06 266.99,33.34 267.37,33.34 267.74,33.34 268.12,36.30 268.50,36.30 268.87,36.30 269.25,41.29 269.63,35.77 270.00,38.77 270.38,38.77 270.76,38.77 271.13,41.10 271.51,41.10 271.89,41.10 272.26,41.92 272.64,41.92 273.02,41.92 273.39,46.18 273.77,46.18 274.15,45.67 274.52,48.65 274.90,48.65 275.28,48.65 275.65,48.65 276.03,50.12 276.41,50.12 276.78,50.12 277.16,51.11 277.54,49.02 277.91,49.02 278.29,49.02 278.67,47.30 279.05,47.30 279.42,43.93 279.80,43.93 280.18,43.93 280.55,40.60 280.93,40.60 281.31,40.60 281.68,38.33 282.06,43.42 282.44,40.66 282.81,40.66 283.19,40.66 283.57,38.43 283.94,38.43 284.32,38.43 284.70,38.41 285.07,38.41 285.45,38.54 285.83,36.70 286.20,36.70 286.58,36.70 286.96,34.69 287.33,34.69 287.71,34.69 288.09,34.69 288.46,37.78 288.84,37.57 289.22,37.57 289.59,37.57 289.97,38.45 290.35,38.45 290.73,38.45 291.10,38.37 291.48,38.37 291.86,38.37 292.23,38.37 292.61,36.12 292.99,36.12 293.36,36.12 293.74,39.47 294.12,37.03 294.49,37.03 294.87,37.03 295.25,36.33 295.62,36.33 296.00,35.99" />
</svg>