<svg width="300" height="60" xmlns="http://www.w3.org/2000/svg">
  <polyline fill="rgba(255,200,0,0.3)" stroke="#ffbb00" stroke-width="2" points="4.00,49.90 4.23,50.57 4.46,51.52 4.69,52.74 4.92,53.48 5.15,52.61 5.38,52.52 5.62,52.48 5.85,52.54 6.08,52.37 6.31,52.24 6.54,52.21 6.77,52.11 7.00,52.00 7.23,51.71 7.46,51.49 7.69,51.14 7.92,50.52 8.15,49.87 8.39,49.53 8.62,49.34 8.85,49.33 9.08,49.17 9.31,48.88 9.54,48.83 9.77,48.68 10.00,48.59 10.23,48.40 10.46,47.93 10.69,47.52 10.92,47.14 11.16,46.92 11.39,46.96 11.62,47.17 11.85,48.30 12.08,48.69 12.31,49.96 12.54,51.18 12.77,50.53 13.00,49.46 13.23,48.65 13.46,47.18 13.69,46.32 13.93,46.41 14.16,47.12 14.39,48.22 14.62,49.05 14.85,50.88 15.08,50.53 15.31,49.89 15.54,49.29 15.77,48.84 16.00,48.49 16.23,48.31 16.46,48.32 16.70,48.54 16.93,48.33 17.16,48.56 17.39,48.17 17.62,47.78 17.85,47.36 18.08,47.09 18.31,47.14 18.54,47.30 18.77,47.22 19.00,47.02 19.23,46.56 19.47,46.40 19.70,46.31 19.93,46.83 20.16,47.23 20.39,47.13 20.62,46.59 20.85,45.80 21.08,44.96 21.31,44.56 21.54,44.92 21.77,45.57 22.00,45.57 22.24,45.73 22.47,45.73 22.70,45.55 22.93,45.54 23.16,46.08 23.39,47.09 23.62,47.37 23.85,47.90 24.08,47.80 24.31,46.72 24.54,45.63 24.77,44.51 25.01,43.30 25.24,42.15 25.47,41.23 25.70,39.96 25.93,38.87 26.16,37.74 26.39,37.02 26.62,37.08 26.85,36.92 27.08,37.48 27.31,38.02 27.54,37.88 27.78,37.41 28.01,37.38 28.24,37.35 28.47,37.27 28.70,37.02 28.93,36.46 29.16,36.09 29.39,35.67 29.62,35.71 29.85,36.97 30.08,38.12 30.31,36.69 30.55,36.24 30.78,35.11 31.01,34.50 31.24,34.13 31.47,33.80 31.70,33.52 31.93,33.38 32.16,33.37 32.39,33.29 32.62,32.96 32.85,32.78 33.08,32.95 33.32,33.51 33.55,34.72 33.78,35.05 34.01,33.97 34.24,33.32 34.47,33.17 34.70,33.74 34.93,34.59 35.16,35.14 35.39,35.93 35.62,36.28 35.85,35.30 36.09,35.37 36.32,35.26 36.55,34.38 36.78,33.38 37.01,32.81 37.24,32.81 37.47,31.59 37.70,30.16 37.93,29.06 38.16,28.23 38.39,26.05 38.62,24.76 38.86,23.97 39.09,23.62 39.32,23.63 39.55,25.11 39.78,24.03 40.01,24.19 40.24,25.55 40.47,25.79 40.70,26.79 40.93,27.22 41.16,26.66 41.39,25.60 41.63,24.07 41.86,22.25 42.09,21.18 42.32,20.76 42.55,19.89 42.78,19.75 43.01,19.51 43.24,17.95 43.47,17.03 43.70,16.57 43.93,15.99 44.16,16.02 44.40,16.09 44.63,15.79 44.86,15.76 45.09,16.25 45.32,17.21 45.55,18.43 45.78,20.79 46.01,20.69 46.24,18.97 46.47,17.13 46.70,16.37 46.93,15.99 47.17,15.91 47.40,16.02 47.63,15.99 47.86,15.92 48.09,16.02 48.32,16.33 48.55,16.74 48.78,17.10 49.01,17.80 49.24,19.32 49.47,18.32 49.70,17.02 49.94,15.42 50.17,14.30 50.40,13.85 50.63,13.46 50.86,12.80 51.09,12.06 51.32,10.97 51.55,9.60 51.78,8.66 52.01,7.71 52.24,7.03 52.47,6.52 52.71,5.91 52.94,5.28 53.17,4.60 53.40,4.09 53.63,4.00 53.86,4.16 54.09,4.32 54.32,4.26 54.55,4.12 54.78,4.25 55.01,4.46 55.24,4.69 55.48,4.97 55.71,5.18 55.94,5.56 56.17,5.84 56.40,5.82 56.63,5.56 56.86,5.49 57.09,5.42 57.32,5.31 57.55,5.13 57.78,4.83 58.01,4.71 58.25,4.68 58.48,4.91 58.71,5.09 58.94,5.16 59.17,5.14 59.40,55.95 59.63,55.71 59.86,55.28 60.09,54.11 60.32,53.38 60.55,52.78 60.78,52.31 61.02,51.88 61.25,51.71 61.48,51.37 61.71,51.09 61.94,50.79 62.17,50.32 62.40,49.89 62.63,49.29 62.86,48.80 63.09,48.17 63.32,47.65 63.55,47.19 63.78,46.71 64.02,46.07 64.25,45.32 64.48,44.93 64.71,44.67 64.94,44.52 65.17,44.63 65.40,44.82 65.63,45.12 65.86,45.51 66.09,45.98 66.32,46.56 66.55,47.23 66.79,47.73 67.02,48.14 67.25,48.44 67.48,48.92 67.71,49.44 67.94,49.99 68.17,50.68 68.40,51.34 68.63,52.19 68.86,52.80 69.09,52.98 69.32,53.60 69.56,54.21 69.79,54.50 70.02,54.85 70.25,55.11 70.48,54.91 70.71,54.48 70.94,54.18 71.17,53.87 71.40,53.34 71.63,52.93 71.86,52.50 72.09,52.01 72.33,51.86 72.56,51.85 72.79,51.76 73.02,51.22 73.25,50.80 73.48,50.53 73.71,50.30 73.94,50.12 74.17,50.04 74.40,49.17 74.63,48.26 74.86,47.44 75.10,46.95 75.33,46.91 75.56,47.10 75.79,47.33 76.02,47.66 76.25,48.16 76.48,48.71 76.71,49.27 76.94,49.90 77.17,50.58 77.40,56.00 77.63,55.72 77.87,55.30 78.10,54.08 78.33,53.40 78.56,52.75 78.79,52.32 79.02,51.93 79.25,51.70 79.48,51.38 79.71,51.07 79.94,50.73 80.17,50.39 80.40,49.83 80.64,49.32 80.87,48.79 81.10,48.20 81.33,47.67 81.56,47.16 81.79,46.64 82.02,46.11 82.25,45.40 82.48,45.00 82.71,44.67 82.94,44.58 83.17,44.52 83.41,44.86 83.64,45.26 83.87,45.46 84.10,46.00 84.33,46.61 84.56,47.26 84.79,47.76 85.02,48.07 85.25,48.51 85.48,49.03 85.71,49.35 85.94,50.04 86.18,50.82 86.41,51.31 86.64,52.18 86.87,52.84 87.10,52.96 87.33,53.61 87.56,54.23 87.79,54.57 88.02,54.86 88.25,55.15 88.48,54.90 88.71,54.48 88.95,54.09 89.18,53.98 89.41,53.52 89.64,52.80 89.87,52.46 90.10,52.00 90.33,51.81 90.56,51.83 90.79,51.67 91.02,51.19 91.25,50.82 91.48,50.58 91.72,50.33 91.95,50.15 92.18,50.05 92.41,49.29 92.64,48.17 92.87,47.34 93.10,46.95 93.33,46.94 93.56,47.09 93.79,47.42 94.02,47.71 94.25,48.15 94.49,48.80 94.72,49.35 94.95,49.81 95.18,50.51 95.41,51.41 95.64,52.78 95.87,53.28 96.10,52.84 96.33,52.70 96.56,52.82 96.79,52.67 97.02,52.27 97.26,52.37 97.49,52.21 97.72,52.16 97.95,51.95 98.18,51.87 98.41,51.57 98.64,51.18 98.87,50.38 99.10,49.98 99.33,49.56 99.56,49.19 99.79,49.20 100.03,49.18 100.26,49.22 100.49,48.80 100.72,48.86 100.95,48.62 101.18,48.45 101.41,47.93 101.64,47.34 101.87,47.11 102.10,46.82 102.33,46.90 102.56,47.12 102.80,47.89 103.03,48.69 103.26,50.12 103.49,51.18 103.72,50.49 103.95,49.50 104.18,48.66 104.41,47.03 104.64,46.31 104.87,46.39 105.10,47.11 105.33,48.08 105.57,49.30 105.80,50.69 106.03,50.55 106.26,49.84 106.49,49.28 106.72,48.89 106.95,48.51 107.18,48.31 107.41,48.37 107.64,48.55 107.87,48.38 108.10,48.73 108.34,48.26 108.57,47.84 108.80,47.35 109.03,47.17 109.26,47.31 109.49,47.32 109.72,47.20 109.95,47.04 110.18,46.62 110.41,46.39 110.64,46.33 110.87,46.95 111.11,47.29 111.34,47.11 111.57,46.51 111.80,45.80 112.03,45.03 112.26,44.52 112.49,45.01 112.72,45.45 112.95,45.63 113.18,45.68 113.41,45.82 113.64,45.67 113.88,45.68 114.11,46.12 114.34,47.15 114.57,47.36 114.80,47.95 115.03,47.91 115.26,46.81 115.49,45.69 115.72,44.56 115.95,43.15 116.18,42.08 116.41,41.09 116.65,39.74 116.88,38.99 117.11,37.67 117.34,37.04 117.57,36.88 117.80,36.78 118.03,37.17 118.26,38.14 118.49,37.41 118.72,37.39 118.95,37.60 119.18,37.36 119.42,37.24 119.65,36.88 119.88,36.62 120.11,35.91 120.34,35.82 120.57,35.75 120.80,36.56 121.03,38.09 121.26,36.65 121.49,35.89 121.72,35.23 121.95,34.47 122.18,34.04 122.42,33.77 122.65,33.48 122.88,33.38 123.11,33.42 123.34,33.39 123.57,32.92 123.80,32.91 124.03,32.99 124.26,33.51 124.49,34.74 124.72,35.26 124.95,33.92 125.19,33.38 125.42,33.12 125.65,33.93 125.88,34.39 126.11,35.17 126.34,35.69 126.57,36.33 126.80,35.28 127.03,35.17 127.26,35.42 127.49,34.39 127.72,33.17 127.96,32.97 128.19,32.89 128.42,31.57 128.65,30.34 128.88,28.98 129.11,28.28 129.34,25.85 129.57,24.80 129.80,23.98 130.03,23.46 130.26,23.89 130.49,25.01 130.73,23.99 130.96,24.46 131.19,25.37 131.42,25.61 131.65,26.92 131.88,27.25 132.11,26.42 132.34,25.61 132.57,24.12 132.80,22.08 133.03,21.37 133.26,20.84 133.50,19.92 133.73,19.67 133.96,19.36 134.19,18.14 134.42,16.93 134.65,16.65 134.88,16.12 135.11,15.72 135.34,15.93 135.57,15.60 135.80,15.57 136.03,16.41 136.27,17.33 136.50,18.70 136.73,20.54 136.96,20.65 137.19,18.69 137.42,16.98 137.65,16.18 137.88,15.83 138.11,15.81 138.34,16.12 138.57,16.05 138.80,15.82 139.04,16.09 139.27,16.25 139.50,16.66 139.73,17.21 139.96,17.66 140.19,19.45 140.42,18.41 140.65,16.87 140.88,15.18 141.11,14.47 141.34,13.75 141.57,13.34 141.81,12.76 142.04,12.00 142.27,10.86 142.50,9.74 142.73,9.06 142.96,7.77 143.19,7.06 143.42,6.49 143.65,5.85 143.88,5.44 144.11,4.70 144.34,4.09 144.58,4.00 144.81,4.16 145.04,4.39 145.27,4.16 145.50,4.14 145.73,4.26 145.96,4.44 146.19,4.64 146.42,4.85 146.65,5.18 146.88,5.44 147.11,5.84 147.35,5.76 147.58,5.62 147.81,5.47 148.04,5.30 148.27,5.24 148.50,5.03 148.73,4.79 148.96,4.69 149.19,4.66 149.42,4.89 149.65,5.05 149.88,5.19 150.12,5.13 150.35,55.88 150.58,55.66 150.81,54.73 151.04,53.87 151.27,54.08 151.50,53.06 151.73,52.33 151.96,51.74 152.19,51.57 152.42,51.43 152.65,51.08 152.89,50.65 153.12,50.19 153.35,49.49 153.58,49.44 153.81,48.63 154.04,47.87 154.27,47.86 154.50,47.07 154.73,46.16 154.96,45.93 155.19,45.07 155.42,44.92 155.66,44.30 155.89,44.51 156.12,44.40 156.35,44.85 156.58,45.34 156.81,45.67 157.04,46.30 157.27,46.93 157.50,46.93 157.73,47.48 157.96,48.12 158.19,48.49 158.43,49.15 158.66,49.65 158.89,50.40 159.12,51.16 159.35,51.16 159.58,52.02 159.81,52.75 160.04,53.21 160.27,53.95 160.50,54.06 160.73,54.48 160.96,54.88 161.20,54.93 161.43,54.95 161.66,54.38 161.89,53.67 162.12,53.80 162.35,53.06 162.58,52.49 162.81,52.54 163.04,51.92 163.27,51.63 163.50,51.98 163.73,51.61 163.97,51.08 164.20,50.67 164.43,50.53 164.66,50.41 164.89,50.12 165.12,49.68 165.35,49.66 165.58,48.52 165.81,47.59 166.04,46.98 166.27,46.92 166.50,47.12 166.74,47.55 166.97,47.85 167.20,48.50 167.43,48.91 167.66,49.41 167.89,50.14 168.12,51.18 168.35,51.18 168.58,52.66 168.81,53.20 169.04,52.98 169.27,52.75 169.51,52.72 169.74,52.65 169.97,52.51 170.20,52.42 170.43,51.92 170.66,52.08 170.89,52.11 171.12,52.01 171.35,51.83 171.58,50.85 171.81,50.65 172.04,49.90 172.28,49.92 172.51,49.34 172.74,49.58 172.97,49.00 173.20,49.15 173.43,48.67 173.66,48.85 173.89,48.38 174.12,48.38 174.35,47.66 174.58,47.85 174.81,47.22 175.05,46.89 175.28,47.50 175.51,47.03 175.74,47.92 175.97,48.87 176.20,50.36 176.43,51.10 176.66,49.99 176.89,49.99 177.12,48.74 177.35,47.86 177.58,46.30 177.82,46.64 178.05,47.28 178.28,48.78 178.51,49.64 178.74,50.47 178.97,50.71 179.20,50.09 179.43,49.28 179.66,48.88 179.89,48.40 180.12,48.34 180.35,48.59 180.58,48.50 180.82,48.60 181.05,48.71 181.28,48.07 181.51,48.16 181.74,47.49 181.97,47.60 182.20,47.17 182.43,47.32 182.66,47.25 182.89,46.95 183.12,46.55 183.35,46.23 183.59,46.41 183.82,46.91 184.05,47.11 184.28,47.09 184.51,46.45 184.74,45.67 184.97,44.95 185.20,44.69 185.43,44.79 185.66,45.29 185.89,45.71 186.12,45.49 186.36,45.42 186.59,45.33 186.82,45.60 187.05,46.45 187.28,47.29 187.51,47.67 187.74,47.92 187.97,47.92 188.20,47.16 188.43,45.86 188.66,44.78 188.89,43.62 189.13,42.55 189.36,41.40 189.59,40.09 189.82,39.00 190.05,37.64 190.28,37.32 190.51,37.06 190.74,36.76 190.97,36.59 191.20,37.77 191.43,37.05 191.66,37.55 191.90,37.84 192.13,36.87 192.36,36.64 192.59,37.27 192.82,36.47 193.05,35.23 193.28,35.54 193.51,35.01 193.74,36.26 193.97,37.83 194.20,36.28 194.43,36.15 194.67,34.69 194.90,34.73 195.13,33.82 195.36,33.45 195.59,33.37 195.82,33.06 196.05,33.52 196.28,33.54 196.51,32.90 196.74,33.15 196.97,32.94 197.20,33.63 197.44,34.71 197.67,35.17 197.90,33.07 198.13,33.36 198.36,33.01 198.59,34.34 198.82,34.06 199.05,35.55 199.28,35.41 199.51,36.17 199.74,35.38 199.97,35.02 200.21,34.70 200.44,34.38 200.67,33.48 200.90,33.43 201.13,32.72 201.36,31.63 201.59,30.83 201.82,28.55 202.05,27.36 202.28,25.78 202.51,24.71 202.74,23.86 202.98,23.09 203.21,23.90 203.44,23.99 203.67,24.29 203.90,24.86 204.13,24.96 204.36,25.99 204.59,26.97 204.82,26.97 205.05,26.63 205.28,25.18 205.51,23.72 205.75,21.57 205.98,21.68 206.21,21.33 206.44,19.83 206.67,19.98 206.90,18.57 207.13,17.38 207.36,16.33 207.59,16.96 207.82,15.73 208.05,15.49 208.28,15.28 208.52,15.97 208.75,15.08 208.98,15.68 209.21,17.25 209.44,19.11 209.67,19.97 209.90,20.62 210.13,19.14 210.36,17.33 210.59,16.16 210.82,16.17 211.05,15.84 211.29,15.75 211.52,15.75 211.75,15.83 211.98,16.04 212.21,16.41 212.44,16.74 212.67,17.46 212.90,17.46 213.13,19.05 213.36,18.50 213.59,17.31 213.82,15.80 214.06,14.86 214.29,13.61 214.52,13.44 214.75,13.25 214.98,11.66 215.21,11.04 215.44,10.07 215.67,8.71 215.90,7.57 216.13,6.96 216.36,6.35 216.59,5.68 216.83,5.68 217.06,4.90 217.29,4.34 217.52,4.10 217.75,4.47 217.98,4.28 218.21,4.50 218.44,4.15 218.67,4.35 218.90,4.58 219.13,4.90 219.36,4.81 219.60,5.02 219.83,5.58 220.06,5.79 220.29,5.60 220.52,6.10 220.75,5.31 220.98,5.22 221.21,5.16 221.44,4.84 221.67,5.02 221.90,4.77 222.13,4.69 222.37,4.85 222.60,5.08 222.83,5.24 223.06,5.33 223.29,55.70 223.52,54.15 223.75,54.15 223.98,54.15 224.21,54.15 224.44,52.53 224.67,51.77 224.90,51.77 225.14,51.77 225.37,51.45 225.60,50.25 225.83,50.25 226.06,50.25 226.29,47.92 226.52,47.92 226.75,47.92 226.98,47.92 227.21,47.74 227.44,45.26 227.67,45.26 227.91,45.05 228.14,45.05 228.37,45.05 228.60,43.40 228.83,44.66 229.06,44.66 229.29,44.66 229.52,46.36 229.75,46.36 229.98,46.36 230.21,47.88 230.44,47.88 230.68,47.88 230.91,47.88 231.14,49.93 231.37,49.93 231.60,49.90 231.83,52.07 232.06,52.07 232.29,52.07 232.52,52.07 232.75,53.94 232.98,53.94 233.21,53.94 233.45,53.94 233.68,55.17 233.91,54.16 234.14,54.16 234.37,54.35 234.60,54.35 234.83,52.13 235.06,52.13 235.29,52.63 235.52,52.63 235.75,52.63 235.98,51.25 236.22,51.58 236.45,51.58 236.68,51.58 236.91,51.16 237.14,50.42 237.37,50.42 237.60,50.42 237.83,50.52 238.06,48.07 238.29,48.07 238.52,48.07 238.75,48.38 238.98,47.57 239.22,47.57 239.45,47.57 239.68,48.49 239.91,48.49 240.14,49.68 240.37,49.68 240.60,49.68 240.83,52.40 241.06,52.40 241.29,52.40 241.52,52.40 241.75,51.91 241.99,53.98 242.22,53.98 242.45,53.64 242.68,53.64 242.91,53.64 243.14,53.83 243.37,51.93 243.60,51.93 243.83,51.67 244.06,51.67 244.29,51.67 244.52,51.20 244.76,51.20 244.99,51.20 245.22,51.20 245.45,49.62 245.68,49.62 245.91,49.62 246.14,50.40 246.37,50.40 246.60,50.40 246.83,48.70 247.06,48.70 247.29,48.70 247.53,48.70 247.76,49.56 247.99,47.65 248.22,47.65 248.45,47.65 248.68,50.14 248.91,50.14 249.14,49.97 249.37,49.71 249.60,49.71 249.83,49.71 250.06,49.71 250.30,48.22 250.53,46.77 250.76,48.22 250.99,49.80 251.22,49.80 251.45,49.80 251.68,49.80 251.91,49.53 252.14,49.53 252.37,49.53 252.60,48.34 252.83,48.34 253.07,48.34 253.30,48.88 253.53,48.88 253.76,48.88 253.99,47.80 254.22,47.92 254.45,47.92 254.68,47.92 254.91,47.46 255.14,47.46 255.37,47.46 255.60,46.65 255.84,46.65 256.07,46.65 256.30,47.23 256.53,47.23 256.76,47.23 256.99,46.34 257.22,46.34 257.45,46.34 257.68,45.34 257.91,45.34 258.14,45.34 258.37,44.75 258.61,44.75 258.84,45.40 259.07,45.40 259.30,45.40 259.53,46.31 259.76,46.31 259.99,46.31 260.22,47.03 260.45,47.03 260.68,47.03 260.91,47.03 261.14,45.06 261.38,45.06 261.61,45.06 261.84,41.30 262.07,41.30 262.30,41.30 262.53,37.56 262.76,37.56 262.99,37.56 263.22,37.56 263.45,36.71 263.68,36.71 263.91,36.71 264.15,35.41 264.38,35.41 264.61,35.41 264.84,35.79 265.07,35.79 265.30,35.79 265.53,35.79 265.76,34.08 265.99,34.08 266.22,34.08 266.45,34.08 266.68,36.22 266.92,36.22 267.15,32.82 267.38,33.67 267.61,33.67 267.84,33.67 268.07,33.67 268.30,32.59 268.53,32.59 268.76,32.59 268.99,32.29 269.22,32.29 269.45,32.29 269.69,33.61 269.92,33.61 270.15,33.61 270.38,33.98 270.61,33.98 270.84,32.05 271.07,32.05 271.30,32.05 271.53,30.94 271.76,30.94 271.99,35.37 272.22,34.07 272.46,34.07 272.69,34.07 272.92,32.40 273.15,32.40 273.38,32.40 273.61,29.84 273.84,32.44 274.07,32.44 274.30,28.90 274.53,28.90 274.76,25.32 274.99,25.32 275.23,25.32 275.46,21.65 275.69,21.65 275.92,21.65 276.15,23.11 276.38,23.11 276.61,23.11 276.84,21.51 277.07,21.51 277.30,25.86 277.53,23.76 277.76,23.76 278.00,23.76 278.23,24.94 278.46,20.25 278.69,20.25 278.92,20.25 279.15,21.50 279.38,17.46 279.61,17.46 279.84,17.46 280.07,13.73 280.30,15.34 280.53,15.34 280.77,15.34 281.00,12.20 281.23,14.50 281.46,14.50 281.69,14.50 281.92,12.83 282.15,17.66 282.38,17.66 282.61,17.66 282.84,16.20 283.07,16.20 283.30,17.66 283.54,15.33 283.77,15.33 284.00,15.33 284.23,15.26 284.46,15.26 284.69,16.28 284.92,16.28 285.15,16.28 285.38,18.45 285.61,17.91 285.84,17.91 286.07,17.91 286.31,17.91 286.54,17.02 286.77,17.02 287.00,17.02 287.23,13.18 287.46,13.18 287.69,13.18 287.92,11.38 288.15,11.38 288.38,11.38 288.61,8.83 288.84,8.35 289.08,8.35 289.31,6.34 289.54,6.34 289.77,6.34 290.00,6.91 290.23,5.15 290.46,5.15 290.69,5.15 290.92,4.42 291.15,6.26 291.38,6.26 291.61,4.94 291.85,4.94 292.08,4.94 292.31,6.27 292.54,5.58 292.77,5.58 293.00,5.58 293.23,5.44 293.46,5.44 293.69,5.44 293.92,5.44 294.15,5.08 294.38,5.08 294.62,5.08 294.85,5.08 295.08,5.65 295.31,5.65 295.54,5.65 295.77,6.41 296.00,6.41" />
</svg>