<svg width="300" height="60" xmlns="http://www.w3.org/2000/svg">
  <polyline fill="rgba(255,200,0,0.3)" stroke="#ffbb00" stroke-width="2" points="4.00,54.92 4.95,53.09 5.90,48.31 6.85,46.85 7.80,45.10 8.76,42.43 9.71,39.09 10.66,37.31 11.61,36.33 12.56,35.10 13.51,34.56 14.46,34.00 15.41,33.20 16.36,31.36 17.32,29.92 18.27,28.78 19.22,27.97 20.17,27.08 21.12,26.12 22.07,24.96 23.02,23.60 23.97,22.21 24.93,20.75 25.88,18.87 26.83,17.89 27.78,16.57 28.73,15.63 29.68,15.46 30.63,14.40 31.58,13.63 32.53,13.41 33.49,12.88 34.44,12.23 35.39,11.65 36.34,10.85 37.29,10.03 38.24,9.12 39.19,8.26 40.14,7.31 41.09,6.16 42.05,5.12 43.00,4.27 43.95,4.07 44.90,4.73 45.85,5.41 46.80,6.80 47.75,7.48 48.70,8.59 49.65,9.31 50.61,10.10 51.56,10.83 52.51,11.28 53.46,12.10 54.41,12.87 55.36,13.52 56.31,15.07 57.26,15.85 58.21,17.05 59.17,18.17 60.12,19.15 61.07,19.82 62.02,20.57 62.97,21.49 63.92,22.38 64.87,23.94 65.82,24.55 66.78,25.44 67.73,26.53 68.68,27.35 69.63,28.37 70.58,29.51 71.53,30.14 72.48,31.51 73.43,33.22 74.38,34.15 75.34,35.27 76.29,36.24 77.24,54.95 78.19,53.51 79.14,48.80 80.09,46.96 81.04,43.61 81.99,41.52 82.94,39.31 83.90,37.56 84.85,36.63 85.80,34.78 86.75,34.12 87.70,33.56 88.65,32.39 89.60,32.10 90.55,29.84 91.50,28.70 92.46,27.42 93.41,27.06 94.36,25.76 95.31,24.73 96.26,23.20 97.21,21.80 98.16,20.70 99.11,18.94 100.07,18.05 101.02,16.65 101.97,15.65 102.92,14.99 103.87,14.60 104.82,13.60 105.77,13.43 106.72,13.04 107.67,12.68 108.63,12.01 109.58,10.73 110.53,10.05 111.48,9.12 112.43,8.00 113.38,7.03 114.33,6.13 115.28,5.12 116.23,4.14 117.19,4.00 118.14,4.86 119.09,5.63 120.04,6.51 120.99,7.58 121.94,8.44 122.89,9.27 123.84,9.41 124.79,10.15 125.75,11.06 126.70,12.28 127.65,12.93 128.60,13.65 129.55,15.16 130.50,16.10 131.45,16.85 132.40,18.14 133.36,19.08 134.31,19.95 135.26,20.89 136.21,21.20 137.16,22.31 138.11,23.47 139.06,24.78 140.01,25.72 140.96,26.16 141.92,27.26 142.87,27.72 143.82,29.59 144.77,29.81 145.72,31.44 146.67,33.06 147.62,34.01 148.57,35.02 149.52,36.37 150.48,54.85 151.43,54.40 152.38,48.68 153.33,47.45 154.28,43.11 155.23,42.13 156.18,41.66 157.13,38.14 158.08,38.44 159.04,35.38 159.99,35.66 160.94,32.99 161.89,32.97 162.84,32.39 163.79,30.77 164.74,29.67 165.69,28.59 166.64,27.84 167.60,27.04 168.55,25.92 169.50,23.47 170.45,22.19 171.40,21.24 172.35,19.05 173.30,18.34 174.25,17.76 175.21,16.01 176.16,15.43 177.11,15.20 178.06,14.39 179.01,14.06 179.96,13.33 180.91,12.65 181.86,12.23 182.81,10.28 183.77,10.78 184.72,9.72 185.67,8.57 186.62,7.93 187.57,6.68 188.52,5.61 189.47,4.08 190.42,4.06 191.37,4.22 192.33,5.31 193.28,6.47 194.23,6.65 195.18,7.95 196.13,9.07 197.08,8.59 198.03,10.17 198.98,11.46 199.93,12.55 200.89,12.15 201.84,13.65 202.79,14.75 203.74,16.05 204.69,16.05 205.64,17.56 206.59,19.18 207.54,18.79 208.50,20.14 209.45,19.86 210.40,21.73 211.35,23.38 212.30,23.60 213.25,25.41 214.20,25.80 215.15,27.53 216.10,28.20 217.06,28.77 218.01,29.30 218.96,30.70 219.91,32.48 220.86,33.89 221.81,34.52 222.76,35.91 223.71,56.00 224.66,56.00 225.62,56.00 226.57,55.97 227.52,45.27 228.47,45.27 229.42,42.62 230.37,42.62 231.32,42.62 232.27,43.65 233.22,43.65 234.18,34.59 235.13,34.04 236.08,34.04 237.03,32.07 237.98,32.07 238.93,32.07 239.88,28.81 240.83,28.81 241.79,28.81 242.74,25.73 243.69,25.73 244.64,22.26 245.59,22.26 246.54,22.26 247.49,20.58 248.44,20.58 249.39,20.58 250.35,19.86 251.30,16.67 252.25,16.67 253.20,14.94 254.15,14.94 255.10,14.14 256.05,14.14 257.00,14.14 257.95,10.90 258.91,10.90 259.86,10.90 260.81,6.75 261.76,6.75 262.71,4.45 263.66,4.45 264.61,4.45 265.56,4.45 266.51,5.96 267.47,6.67 268.42,6.67 269.37,6.67 270.32,6.81 271.27,10.34 272.22,10.34 273.17,10.34 274.12,10.77 275.07,13.97 276.03,13.97 276.98,13.97 277.93,13.97 278.88,17.71 279.83,17.71 280.78,17.71 281.73,17.40 282.68,17.40 283.64,21.96 284.59,21.96 285.54,22.19 286.49,22.19 287.44,22.19 288.39,27.52 289.34,27.52 290.29,27.52 291.24,29.30 292.20,29.30 293.15,29.30 294.10,32.38 295.05,32.38 296.00,34.36" />
</svg>