<svg width="300" height="60" xmlns="http://www.w3.org/2000/svg">
  <polyline fill="rgba(255,200,0,0.3)" stroke="#ffbb00" stroke-width="2" points="4.00,13.92 4.35,13.66 4.69,13.38 5.04,13.02 5.39,12.56 5.73,11.92 6.08,11.21 6.42,10.38 6.77,9.78 7.12,9.42 7.46,9.25 7.81,9.24 8.16,9.36 8.50,9.76 8.85,10.45 9.20,11.24 9.54,11.99 9.89,12.79 10.23,13.47 10.58,14.16 10.93,14.86 11.27,15.51 11.62,16.16 11.97,16.72 12.31,17.37 12.66,18.18 13.01,18.99 13.35,19.74 13.70,20.53 14.05,21.18 14.39,21.74 14.74,22.23 15.08,22.69 15.43,23.16 15.78,23.64 16.12,24.10 16.47,24.58 16.82,25.14 17.16,25.75 17.51,26.51 17.86,27.16 18.20,27.62 18.55,27.84 18.89,27.72 19.24,27.24 19.59,26.60 19.93,25.99 20.28,25.42 20.63,24.89 20.97,24.88 21.32,24.77 21.67,24.85 22.01,24.86 22.36,24.98 22.70,25.17 23.05,25.46 23.40,25.63 23.74,25.72 24.09,25.84 24.44,25.69 24.78,25.50 25.13,25.30 25.48,25.18 25.82,25.17 26.17,25.17 26.51,25.14 26.86,25.14 27.21,25.25 27.55,25.72 27.90,26.41 28.25,27.33 28.59,28.29 28.94,28.94 29.29,29.76 29.63,30.58 29.98,31.43 30.33,32.04 30.67,32.30 31.02,32.41 31.36,32.27 31.71,32.01 32.06,31.53 32.40,31.05 32.75,30.61 33.10,30.33 33.44,30.12 33.79,29.96 34.14,29.90 34.48,29.92 34.83,29.96 35.17,30.18 35.52,30.48 35.87,30.89 36.21,31.35 36.56,31.94 36.91,32.60 37.25,33.19 37.60,33.61 37.95,33.91 38.29,33.97 38.64,33.77 38.98,33.46 39.33,33.14 39.68,32.89 40.02,32.71 40.37,32.58 40.72,32.60 41.06,32.78 41.41,32.86 41.76,33.04 42.10,33.20 42.45,33.37 42.79,33.56 43.14,33.66 43.49,33.84 43.83,33.88 44.18,33.94 44.53,34.00 44.87,34.09 45.22,34.11 45.57,34.17 45.91,34.30 46.26,34.42 46.60,34.54 46.95,34.70 47.30,34.83 47.64,35.04 47.99,35.27 48.34,35.51 48.68,35.75 49.03,36.03 49.38,36.40 49.72,36.78 50.07,37.47 50.42,38.34 50.76,39.18 51.11,40.13 51.45,41.02 51.80,41.75 52.15,42.26 52.49,42.49 52.84,42.34 53.19,41.69 53.53,41.06 53.88,40.41 54.23,39.78 54.57,39.17 54.92,38.61 55.26,38.08 55.61,37.42 55.96,36.94 56.30,36.20 56.65,35.43 57.00,34.74 57.34,34.08 57.69,33.36 58.04,32.75 58.38,32.04 58.73,31.48 59.07,30.91 59.42,30.38 59.77,29.96 60.11,29.71 60.46,29.50 60.81,29.35 61.15,29.35 61.50,29.46 61.85,29.73 62.19,30.14 62.54,30.71 62.88,31.47 63.23,32.31 63.58,33.16 63.92,33.96 64.27,34.65 64.62,35.50 64.96,36.64 65.31,37.52 65.66,38.28 66.00,38.97 66.35,39.62 66.70,40.14 67.04,40.64 67.39,41.05 67.73,41.28 68.08,41.42 68.43,41.60 68.77,41.87 69.12,42.17 69.47,42.73 69.81,43.39 70.16,44.04 70.51,44.60 70.85,45.32 71.20,46.06 71.54,46.82 71.89,47.56 72.24,48.09 72.58,48.64 72.93,49.03 73.28,49.74 73.62,50.36 73.97,51.20 74.32,51.90 74.66,52.72 75.01,53.29 75.35,53.64 75.70,53.93 76.05,54.21 76.39,54.18 76.74,54.29 77.09,13.92 77.43,13.62 77.78,13.37 78.13,13.04 78.47,12.58 78.82,11.83 79.16,11.01 79.51,10.28 79.86,9.76 80.20,9.50 80.55,9.29 80.90,9.25 81.24,9.70 81.59,9.93 81.94,10.47 82.28,11.30 82.63,12.13 82.98,12.92 83.32,13.58 83.67,14.53 84.01,15.03 84.36,15.54 84.71,16.19 85.05,16.74 85.40,17.50 85.75,18.09 86.09,18.88 86.44,19.85 86.79,20.67 87.13,21.36 87.48,21.87 87.82,22.28 88.17,22.69 88.52,23.00 88.86,23.00 89.21,23.88 89.56,24.32 89.90,25.16 90.25,25.82 90.60,26.71 90.94,27.37 91.29,28.47 91.63,28.52 91.98,28.28 92.33,27.68 92.67,26.55 93.02,25.82 93.37,25.20 93.71,24.70 94.06,24.53 94.41,25.18 94.75,26.08 95.10,24.98 95.44,25.13 95.79,25.76 96.14,25.76 96.48,25.85 96.83,25.95 97.18,26.08 97.52,25.81 97.87,25.55 98.22,25.32 98.56,24.80 98.91,25.13 99.26,25.19 99.60,25.04 99.95,25.13 100.29,25.26 100.64,25.51 100.99,26.34 101.33,27.32 101.68,28.21 102.03,29.49 102.37,29.89 102.72,31.09 103.07,31.87 103.41,32.52 103.76,32.47 104.10,32.44 104.45,32.89 104.80,32.43 105.14,31.60 105.49,30.95 105.84,30.52 106.18,30.02 106.53,29.96 106.88,30.22 107.22,30.08 107.57,29.94 107.91,29.99 108.26,30.17 108.61,30.44 108.95,30.92 109.30,31.24 109.65,31.98 109.99,32.63 110.34,33.43 110.69,33.77 111.03,33.99 111.38,34.06 111.72,33.71 112.07,33.41 112.42,33.12 112.76,32.77 113.11,32.70 113.46,32.65 113.80,32.71 114.15,32.75 114.50,32.95 114.84,33.16 115.19,33.24 115.53,33.44 115.88,33.56 116.23,33.68 116.57,33.59 116.92,33.77 117.27,33.90 117.61,34.06 117.96,33.96 118.31,34.03 118.65,34.15 119.00,34.29 119.35,34.41 119.69,34.57 120.04,34.76 120.38,34.89 120.73,35.16 121.08,35.30 121.42,35.67 121.77,35.83 122.12,36.13 122.46,36.38 122.81,36.82 123.16,37.45 123.50,38.56 123.85,39.38 124.19,40.22 124.54,41.23 124.89,41.80 125.23,42.42 125.58,42.63 125.93,42.36 126.27,41.75 126.62,41.06 126.97,40.58 127.31,39.91 127.66,39.23 128.00,38.78 128.35,38.08 128.70,37.45 129.04,36.65 129.39,35.99 129.74,35.13 130.08,34.43 130.43,33.79 130.78,33.33 131.12,32.56 131.47,31.54 131.81,31.29 132.16,30.79 132.51,30.10 132.85,29.67 133.20,29.53 133.55,29.28 133.89,29.28 134.24,29.23 134.59,29.45 134.93,29.60 135.28,29.87 135.63,30.62 135.97,31.49 136.32,32.05 136.66,33.24 137.01,33.63 137.36,34.53 137.70,35.43 138.05,36.51 138.40,37.54 138.74,38.49 139.09,38.92 139.44,39.38 139.78,40.08 140.13,40.62 140.47,41.06 140.82,41.31 141.17,41.48 141.51,41.53 141.86,41.84 142.21,42.21 142.55,42.83 142.90,43.36 143.25,43.92 143.59,44.56 143.94,45.30 144.28,46.15 144.63,46.98 144.98,47.50 145.32,47.77 145.67,48.44 146.02,49.01 146.36,49.49 146.71,50.46 147.06,50.89 147.40,51.92 147.75,52.67 148.09,53.29 148.44,53.59 148.79,53.87 149.13,54.14 149.48,54.15 149.83,54.17 150.17,13.97 150.52,13.65 150.87,12.88 151.21,13.20 151.56,12.26 151.91,12.16 152.25,10.76 152.60,10.76 152.94,9.64 153.29,8.62 153.64,9.14 153.98,8.98 154.33,9.25 154.68,8.98 155.02,7.11 155.37,9.73 155.72,11.76 156.06,11.43 156.41,13.64 156.75,13.96 157.10,15.25 157.45,15.89 157.79,16.10 158.14,17.34 158.49,18.79 158.83,18.19 159.18,19.39 159.53,19.86 159.87,20.68 160.22,21.38 160.56,22.46 160.91,22.73 161.26,22.79 161.60,22.77 161.95,22.84 162.30,24.57 162.64,24.86 162.99,25.34 163.34,26.26 163.68,27.51 164.03,28.45 164.37,28.55 164.72,28.45 165.07,28.62 165.41,27.18 165.76,26.53 166.11,25.62 166.45,25.13 166.80,24.64 167.15,24.54 167.49,23.97 167.84,24.17 168.19,24.25 168.53,24.57 168.88,25.01 169.22,25.65 169.57,26.01 169.92,26.05 170.26,25.96 170.61,25.98 170.96,26.08 171.30,26.03 171.65,24.78 172.00,25.31 172.34,25.03 172.69,24.96 173.03,25.46 173.38,25.00 173.73,25.51 174.07,26.60 174.42,27.18 174.77,27.83 175.11,28.33 175.46,30.05 175.81,30.90 176.15,31.46 176.50,32.33 176.84,32.74 177.19,33.66 177.54,32.80 177.88,32.10 178.23,31.76 178.58,31.11 178.92,30.55 179.27,30.18 179.62,30.03 179.96,30.48 180.31,30.33 180.65,30.03 181.00,30.03 181.35,30.61 181.69,29.48 182.04,30.50 182.39,30.63 182.73,31.80 183.08,32.90 183.43,33.77 183.77,34.47 184.12,34.22 184.47,34.38 184.81,33.87 185.16,33.68 185.50,32.98 185.85,32.63 186.20,32.63 186.54,32.57 186.89,32.60 187.24,32.77 187.58,33.04 187.93,33.10 188.28,33.41 188.62,34.23 188.97,33.50 189.31,33.63 189.66,33.81 190.01,33.91 190.35,34.03 190.70,34.25 191.05,34.20 191.39,33.66 191.74,33.98 192.09,34.00 192.43,34.23 192.78,34.31 193.12,34.72 193.47,34.94 193.82,35.56 194.16,35.09 194.51,35.29 194.86,36.49 195.20,36.41 195.55,36.01 195.90,36.97 196.24,37.48 196.59,37.93 196.93,38.73 197.28,39.82 197.63,40.60 197.97,41.38 198.32,43.38 198.67,43.36 199.01,42.31 199.36,41.24 199.71,41.34 200.05,39.69 200.40,39.88 200.74,38.66 201.09,38.66 201.44,37.56 201.78,38.29 202.13,37.68 202.48,36.28 202.82,36.14 203.17,34.85 203.52,34.79 203.86,33.60 204.21,32.54 204.56,31.92 204.90,31.15 205.25,30.68 205.59,30.66 205.94,31.11 206.29,29.31 206.63,29.66 206.98,29.76 207.33,29.48 207.67,29.25 208.02,30.02 208.37,29.65 208.71,30.60 209.06,31.28 209.40,32.46 209.75,33.24 210.10,33.49 210.44,35.03 210.79,35.74 211.14,36.57 211.48,37.39 211.83,39.06 212.18,39.06 212.52,39.74 212.87,40.36 213.21,40.86 213.56,41.17 213.91,41.32 214.25,41.42 214.60,41.42 214.95,41.24 215.29,41.91 215.64,42.84 215.99,43.74 216.33,43.79 216.68,45.07 217.02,45.80 217.37,46.73 217.72,47.96 218.06,47.25 218.41,47.95 218.76,49.20 219.10,48.85 219.45,49.80 219.80,50.55 220.14,51.52 220.49,52.45 220.84,52.95 221.18,53.67 221.53,53.28 221.87,53.93 222.22,54.30 222.57,54.24 222.91,53.82 223.26,14.29 223.61,14.29 223.95,14.29 224.30,14.29 224.65,11.84 224.99,11.84 225.34,11.84 225.68,11.84 226.03,10.08 226.38,8.23 226.72,8.23 227.07,8.23 227.42,6.31 227.76,6.31 228.11,4.00 228.46,4.00 228.80,12.80 229.15,11.43 229.49,11.43 229.84,11.43 230.19,12.93 230.53,12.93 230.88,15.92 231.23,17.05 231.57,17.05 231.92,17.05 232.27,21.52 232.61,21.52 232.96,21.52 233.30,26.15 233.65,26.15 234.00,29.43 234.34,29.43 234.69,29.43 235.04,27.98 235.38,27.98 235.73,26.86 236.08,26.86 236.42,26.86 236.77,29.93 237.12,29.93 237.46,30.91 237.81,30.91 238.15,30.91 238.50,28.08 238.85,28.08 239.19,29.31 239.54,24.75 239.89,24.75 240.23,24.75 240.58,22.70 240.93,22.70 241.27,22.28 241.62,22.28 241.96,22.28 242.31,23.53 242.66,23.53 243.00,25.70 243.35,25.70 243.70,25.70 244.04,28.38 244.39,28.38 244.74,28.11 245.08,28.11 245.43,28.11 245.77,25.65 246.12,29.06 246.47,29.06 246.81,29.06 247.16,26.50 247.51,27.48 247.85,27.48 248.20,27.48 248.55,29.36 248.89,29.36 249.24,31.53 249.58,35.90 249.93,35.90 250.28,35.90 250.62,34.65 250.97,34.65 251.32,32.74 251.66,32.74 252.01,32.74 252.36,31.65 252.70,31.65 253.05,30.92 253.40,30.92 253.74,30.92 254.09,31.19 254.43,31.19 254.78,31.19 255.13,35.35 255.47,30.72 255.82,30.72 256.17,34.25 256.51,34.25 256.86,34.25 257.21,37.47 257.55,36.04 257.90,36.04 258.24,36.04 258.59,33.32 258.94,33.32 259.28,33.32 259.63,33.32 259.98,34.06 260.32,33.06 260.67,33.06 261.02,33.90 261.36,33.90 261.71,35.41 262.05,35.41 262.40,35.41 262.75,36.05 263.09,36.05 263.44,36.05 263.79,35.43 264.13,35.43 264.48,33.11 264.83,33.11 265.17,33.11 265.52,33.17 265.86,33.17 266.21,33.17 266.56,34.04 266.90,34.04 267.25,34.04 267.60,34.04 267.94,35.45 268.29,34.55 268.64,34.55 268.98,37.92 269.33,37.92 269.67,37.92 270.02,39.60 270.37,38.44 270.71,38.44 271.06,41.54 271.41,41.54 271.75,43.22 272.10,43.22 272.45,45.19 272.79,45.19 273.14,39.59 273.49,41.69 273.83,41.69 274.18,41.69 274.52,41.69 274.87,45.74 275.22,39.64 275.56,39.64 275.91,39.64 276.26,34.82 276.60,39.01 276.95,39.01 277.30,35.17 277.64,35.17 277.99,32.81 278.33,32.81 278.68,32.81 279.03,34.04 279.37,34.04 279.72,34.04 280.07,35.26 280.41,35.26 280.76,32.41 281.11,32.41 281.45,32.41 281.80,32.41 282.14,33.59 282.49,33.59 282.84,33.59 283.18,33.59 283.53,38.12 283.88,38.12 284.22,38.12 284.57,40.72 284.92,40.72 285.26,40.72 285.61,40.44 285.95,42.22 286.30,42.22 286.65,42.22 286.99,42.32 287.34,42.32 287.69,42.32 288.03,42.30 288.38,42.30 288.73,45.29 289.07,45.29 289.42,46.07 289.77,46.07 290.11,46.07 290.46,50.24 290.80,50.24 291.15,50.24 291.50,50.24 291.84,55.94 292.19,52.55 292.54,52.55 292.88,52.42 293.23,52.42 293.58,52.42 293.92,53.73 294.27,53.73 294.61,53.73 294.96,56.00 295.31,56.00 295.65,54.18 296.00,54.15" />
</svg>