<svg width="300" height="60" xmlns="http://www.w3.org/2000/svg">
  <polyline fill="rgba(255,200,0,0.3)" stroke="#ffbb00" stroke-width="2" points="4.00,25.19 6.37,27.50 8.75,31.23 11.12,34.08 13.50,35.38 15.87,35.79 18.24,36.12 20.62,35.95 22.99,34.11 25.37,30.96 27.74,26.87 30.11,23.58 32.49,20.92 34.86,19.82 37.24,19.78 39.61,19.19 41.98,18.65 44.36,18.55 46.73,18.09 49.11,19.10 51.48,24.46 53.85,29.41 56.23,33.98 58.60,36.03 60.98,36.76 63.35,35.32 65.72,28.79 68.10,22.43 70.47,18.86 72.85,17.02 75.22,17.88 77.59,26.84 79.97,28.93 82.34,32.48 84.72,36.25 87.09,35.92 89.46,36.92 91.84,37.12 94.21,37.47 96.59,35.58 98.96,31.73 101.33,28.38 103.71,24.72 106.08,22.39 108.46,21.00 110.83,19.99 113.20,19.76 115.58,20.27 117.95,20.38 120.33,20.16 122.70,22.38 125.07,26.56 127.45,32.77 129.82,35.63 132.20,37.18 134.57,38.72 136.94,36.61 139.32,31.62 141.69,23.25 144.07,19.48 146.44,18.70 148.81,20.16 151.19,23.38 153.56,26.26 155.93,27.15 158.31,33.69 160.68,31.81 163.06,32.80 165.43,36.02 167.80,34.58 170.18,33.80 172.55,26.60 174.93,26.60 177.30,18.17 179.67,20.73 182.05,16.29 184.42,19.28 186.80,19.39 189.17,18.51 191.54,15.74 193.92,14.85 196.29,18.29 198.67,21.61 201.04,26.06 203.41,31.49 205.79,35.92 208.16,38.38 210.54,31.18 212.91,29.29 215.28,15.77 217.66,12.27 220.03,12.27 222.41,14.85 224.78,14.73 227.15,30.26 229.53,30.26 231.90,30.26 234.28,39.70 236.65,27.95 239.02,27.95 241.40,27.95 243.77,30.72 246.15,12.20 248.52,12.20 250.89,20.96 253.27,20.96 255.64,20.96 258.02,17.08 260.39,17.08 262.76,17.08 265.14,4.00 267.51,17.53 269.89,17.53 272.26,17.53 274.63,33.71 277.01,33.71 279.38,33.71 281.76,56.00 284.13,29.17 286.50,29.17 288.88,29.17 291.25,10.65 293.63,10.65 296.00,17.53" />
</svg>