<svg width="300" height="60" xmlns="http://www.w3.org/2000/svg">
  <polyline fill="rgba(255,200,0,0.3)" stroke="#ffbb00" stroke-width="2" points="4.00,12.84 4.33,11.76 4.67,11.75 5.00,12.98 5.34,12.86 5.67,11.49 6.01,10.51 6.34,8.98 6.68,10.69 7.01,12.41 7.34,12.70 7.68,10.90 8.01,6.54 8.35,5.20 8.68,6.64 9.02,9.02 9.35,9.46 9.69,8.58 10.02,6.17 10.36,4.49 10.69,4.00 11.02,6.72 11.36,9.75 11.69,10.46 12.03,12.08 12.36,12.32 12.70,12.91 13.03,14.03 13.37,15.55 13.70,17.23 14.03,19.73 14.37,21.13 14.70,22.42 15.04,23.33 15.37,24.48 15.71,26.19 16.04,27.40 16.38,27.86 16.71,27.08 17.04,26.80 17.38,27.66 17.71,28.57 18.05,29.74 18.38,30.53 18.72,31.38 19.05,31.88 19.39,33.71 19.72,36.99 20.05,39.39 20.39,40.34 20.72,38.43 21.06,37.22 21.39,34.72 21.73,33.42 22.06,33.53 22.40,34.44 22.73,35.17 23.07,37.60 23.40,43.80 23.73,44.17 24.07,42.86 24.40,42.12 24.74,42.49 25.07,42.78 25.41,42.46 25.74,44.65 26.08,44.53 26.41,44.36 26.74,41.98 27.08,45.71 27.41,47.72 27.75,48.74 28.08,49.57 28.42,49.47 28.75,50.47 29.09,49.54 29.42,47.02 29.75,47.03 30.09,48.08 30.42,47.69 30.76,43.83 31.09,41.34 31.43,41.93 31.76,45.71 32.10,49.82 32.43,55.86 32.77,55.19 33.10,52.12 33.43,47.01 33.77,41.79 34.10,41.22 34.44,41.33 34.77,40.47 35.11,39.95 35.44,38.73 35.78,38.98 36.11,39.10 36.44,38.21 36.78,38.20 37.11,37.90 37.45,38.81 37.78,38.89 38.12,38.74 38.45,37.18 38.79,36.55 39.12,35.41 39.45,35.14 39.79,34.65 40.12,34.08 40.46,35.28 40.79,36.95 41.13,38.65 41.46,37.16 41.80,34.71 42.13,30.40 42.47,29.88 42.80,34.05 43.13,38.73 43.47,37.90 43.80,37.13 44.14,35.74 44.47,35.05 44.81,33.15 45.14,33.04 45.48,33.88 45.81,33.88 46.14,34.32 46.48,34.44 46.81,34.89 47.15,35.02 47.48,35.76 47.82,35.64 48.15,35.69 48.49,35.71 48.82,36.07 49.15,35.40 49.49,34.90 49.82,35.08 50.16,37.99 50.49,39.45 50.83,39.52 51.16,40.47 51.50,41.46 51.83,42.95 52.16,44.56 52.50,45.37 52.83,44.14 53.17,43.85 53.50,48.32 53.84,51.60 54.17,52.84 54.51,49.48 54.84,49.46 55.18,49.88 55.51,50.19 55.84,51.01 56.18,51.64 56.51,54.26 56.85,52.59 57.18,52.79 57.52,51.38 57.85,50.95 58.19,49.05 58.52,47.27 58.85,47.83 59.19,48.62 59.52,49.92 59.86,52.48 60.19,53.42 60.53,53.38 60.86,48.82 61.20,50.13 61.53,53.33 61.86,46.00 62.20,42.51 62.53,41.40 62.87,41.93 63.20,42.62 63.54,43.02 63.87,44.43 64.21,46.59 64.54,47.34 64.88,46.04 65.21,44.18 65.54,43.32 65.88,44.29 66.21,43.65 66.55,41.80 66.88,39.66 67.22,38.64 67.55,37.84 67.89,37.07 68.22,36.31 68.55,34.77 68.89,35.55 69.22,34.92 69.56,37.39 69.89,40.89 70.23,37.97 70.56,31.67 70.90,28.02 71.23,25.60 71.56,23.50 71.90,24.72 72.23,31.76 72.57,35.12 72.90,35.66 73.24,34.98 73.57,33.71 73.91,31.29 74.24,27.19 74.58,25.12 74.91,24.56 75.24,23.27 75.58,24.13 75.91,24.21 76.25,24.49 76.58,45.51 76.92,50.13 77.25,55.31 77.59,55.16 77.92,51.99 78.25,46.88 78.59,41.92 78.92,41.28 79.26,40.85 79.59,40.83 79.93,39.69 80.26,38.73 80.60,38.85 80.93,38.99 81.26,38.29 81.60,38.14 81.93,37.95 82.27,38.94 82.60,38.91 82.94,38.46 83.27,37.17 83.61,36.51 83.94,35.48 84.27,34.79 84.61,34.72 84.94,34.07 85.28,34.68 85.61,36.67 85.95,38.58 86.28,37.25 86.62,34.59 86.95,30.74 87.29,37.04 87.62,36.05 87.95,34.79 88.29,33.41 88.62,33.75 88.96,33.94 89.29,34.02 89.63,34.29 89.96,34.39 90.30,34.73 90.63,35.01 90.96,35.40 91.30,35.65 91.63,35.78 91.97,35.75 92.30,36.07 92.64,35.22 92.97,34.90 93.31,35.17 93.64,38.39 93.97,39.46 94.31,39.54 94.64,40.45 94.98,41.51 95.31,42.95 95.65,44.49 95.98,45.05 96.32,44.25 96.65,44.44 96.99,48.33 97.32,51.60 97.65,52.82 97.99,49.25 98.32,49.43 98.66,49.86 98.99,50.02 99.33,51.00 99.66,51.62 100.00,54.51 100.33,52.94 100.66,52.73 101.00,51.41 101.33,50.72 101.67,49.18 102.00,47.36 102.34,47.72 102.67,48.34 103.01,50.16 103.34,52.53 103.67,53.43 104.01,53.41 104.34,47.86 104.68,51.14 105.01,54.04 105.35,46.14 105.68,43.01 106.02,41.64 106.35,42.49 106.68,42.41 107.02,43.40 107.35,44.19 107.69,46.76 108.02,47.80 108.36,46.04 108.69,44.74 109.03,43.92 109.36,44.42 109.70,43.50 110.03,41.82 110.36,39.51 110.70,38.72 111.03,38.02 111.37,37.38 111.70,36.35 112.04,34.80 112.37,35.14 112.71,35.14 113.04,37.49 113.37,40.68 113.71,37.95 114.04,31.36 114.38,27.98 114.71,25.84 115.05,23.43 115.38,24.80 115.72,31.28 116.05,35.08 116.38,35.67 116.72,35.14 117.05,33.68 117.39,30.90 117.72,27.01 118.06,25.46 118.39,24.54 118.73,23.77 119.06,23.88 119.40,24.28 119.73,24.57 120.06,12.77 120.40,11.67 120.73,11.78 121.07,13.19 121.40,12.87 121.74,11.56 122.07,10.38 122.41,8.97 122.74,10.69 123.07,12.53 123.41,12.44 123.74,10.96 124.08,6.83 124.41,5.30 124.75,6.65 125.08,9.36 125.42,9.47 125.75,8.85 126.08,6.33 126.42,4.79 126.75,4.15 127.09,6.80 127.42,10.15 127.76,10.50 128.09,11.82 128.43,12.32 128.76,13.00 129.10,14.02 129.43,15.59 129.76,17.25 130.10,19.58 130.43,21.08 130.77,22.37 131.10,23.45 131.44,24.61 131.77,26.16 132.11,27.42 132.44,27.78 132.77,27.02 133.11,26.69 133.44,27.60 133.78,28.51 134.11,29.64 134.45,30.53 134.78,31.35 135.12,31.92 135.45,33.64 135.78,36.85 136.12,39.22 136.45,40.36 136.79,38.38 137.12,37.12 137.46,34.77 137.79,33.44 138.13,33.26 138.46,34.38 138.79,35.19 139.13,37.66 139.46,44.03 139.80,43.60 140.13,43.58 140.47,42.33 140.80,42.21 141.14,42.87 141.47,42.45 141.81,44.83 142.14,44.93 142.47,44.34 142.81,42.25 143.14,46.13 143.48,47.75 143.81,48.77 144.15,49.58 144.48,49.06 144.82,50.57 145.15,49.98 145.48,46.92 145.82,46.80 146.15,48.20 146.49,47.24 146.82,44.07 147.16,41.12 147.49,41.90 147.83,45.56 148.16,50.11 148.49,34.59 148.83,30.75 149.16,30.49 149.50,33.77 149.83,37.99 150.17,37.49 150.50,37.04 150.84,36.05 151.17,13.75 151.51,11.93 151.84,13.21 152.17,12.84 152.51,13.02 152.84,13.02 153.18,10.91 153.51,8.92 153.85,10.67 154.18,13.37 154.52,11.77 154.85,12.22 155.18,8.80 155.52,5.62 155.85,6.87 156.19,9.78 156.52,8.92 156.86,9.80 157.19,5.85 157.53,6.14 157.86,4.75 158.19,6.47 158.53,7.90 158.86,12.86 159.20,13.34 159.53,13.61 159.87,14.17 160.20,13.99 160.54,15.33 160.87,18.45 161.21,19.88 161.54,21.44 161.87,22.42 162.21,23.16 162.54,25.72 162.88,25.39 163.21,27.56 163.55,28.66 163.88,26.94 164.22,27.50 164.55,27.83 164.88,29.13 165.22,30.62 165.55,31.16 165.89,31.75 166.22,32.02 166.56,34.04 166.89,36.83 167.23,39.21 167.56,38.91 167.89,38.08 168.23,37.75 168.56,34.25 168.90,33.68 169.23,32.43 169.57,35.32 169.90,35.50 170.24,39.36 170.57,41.65 170.90,41.75 171.24,43.26 171.57,44.60 171.91,45.73 172.24,41.60 172.58,41.60 172.91,41.93 173.25,45.09 173.58,40.66 173.92,40.87 174.25,43.96 174.58,48.19 174.92,47.17 175.25,50.86 175.59,46.13 175.92,48.72 176.26,50.16 176.59,44.42 176.93,44.99 177.26,46.41 177.59,44.96 177.93,42.61 178.26,42.61 178.60,41.63 178.93,45.97 179.27,51.01 179.60,56.00 179.94,53.44 180.27,49.70 180.60,46.43 180.94,41.91 181.27,39.38 181.61,41.97 181.94,39.21 182.28,41.26 182.61,40.10 182.95,39.62 183.28,38.43 183.62,38.82 183.95,37.69 184.28,37.54 184.62,38.49 184.95,40.54 185.29,37.84 185.62,39.44 185.96,36.33 186.29,34.48 186.63,37.22 186.96,34.42 187.29,35.58 187.63,34.01 187.96,37.81 188.30,36.65 188.63,34.48 188.97,30.99 189.30,31.40 189.64,31.40 189.97,32.06 190.30,35.30 190.64,39.01 190.97,36.37 191.31,33.48 191.64,34.85 191.98,36.19 192.31,30.96 192.65,32.23 192.98,32.83 193.32,32.98 193.65,32.86 193.98,33.19 194.32,37.72 194.65,36.77 194.99,35.64 195.32,34.74 195.66,38.13 195.99,36.41 196.33,35.67 196.66,35.70 196.99,35.76 197.33,39.23 197.66,37.72 198.00,40.75 198.33,40.96 198.67,41.28 199.00,41.28 199.34,46.60 199.67,45.62 200.00,43.33 200.34,44.42 200.67,48.07 201.01,52.13 201.34,49.84 201.68,47.29 202.01,49.90 202.35,46.99 202.68,50.05 203.01,53.14 203.35,48.62 203.68,52.81 204.02,54.59 204.35,49.36 204.69,49.45 205.02,50.28 205.36,47.28 205.69,48.23 206.03,49.12 206.36,48.82 206.69,48.82 207.03,50.37 207.36,49.57 207.70,51.59 208.03,44.52 208.37,47.43 208.70,52.54 209.04,45.05 209.37,45.23 209.70,38.99 210.04,41.60 210.37,44.04 210.71,39.20 211.04,42.05 211.38,45.13 211.71,47.24 212.05,42.64 212.38,44.24 212.71,45.85 213.05,42.02 213.38,42.14 213.72,41.22 214.05,38.58 214.39,39.53 214.72,40.06 215.06,36.38 215.39,35.57 215.73,34.06 216.06,38.63 216.39,34.75 216.73,38.08 217.06,39.30 217.40,36.83 217.73,31.51 218.07,27.50 218.40,27.14 218.74,21.61 219.07,25.94 219.40,29.71 219.74,35.21 220.07,33.64 220.41,31.64 220.74,33.84 221.08,30.84 221.41,29.30 221.75,25.52 222.08,22.64 222.41,26.15 222.75,25.70 223.08,25.23 223.42,24.15 223.75,17.13 224.09,12.58 224.42,19.15 224.76,19.15 225.09,13.65 225.42,13.65 225.76,13.65 226.09,13.65 226.43,14.84 226.76,14.84 227.10,14.84 227.43,14.84 227.77,11.29 228.10,11.29 228.44,11.29 228.77,11.29 229.10,9.72 229.44,9.72 229.77,9.72 230.11,10.85 230.44,10.85 230.78,10.85 231.11,11.77 231.45,14.47 231.78,15.96 232.11,15.96 232.45,15.96 232.78,19.26 233.12,19.26 233.45,24.22 233.79,24.22 234.12,22.62 234.46,24.91 234.79,24.91 235.12,31.30 235.46,29.55 235.79,29.55 236.13,29.55 236.46,29.01 236.80,31.77 237.13,31.77 237.47,31.98 237.80,31.98 238.14,31.98 238.47,33.47 238.80,30.41 239.14,30.41 239.47,30.41 239.81,35.91 240.14,35.91 240.48,35.91 240.81,32.25 241.15,32.25 241.48,32.25 241.81,39.30 242.15,39.30 242.48,25.89 242.82,28.83 243.15,28.83 243.49,39.68 243.82,39.68 244.16,39.68 244.49,45.39 244.82,28.48 245.16,28.48 245.49,28.48 245.83,38.67 246.16,38.67 246.50,38.67 246.83,44.44 247.17,44.44 247.50,28.24 247.84,42.93 248.17,42.93 248.50,42.93 248.84,42.93 249.17,35.05 249.51,35.05 249.84,35.05 250.18,35.89 250.51,45.94 250.85,45.94 251.18,45.94 251.51,43.80 251.85,43.80 252.18,43.80 252.52,43.80 252.85,47.27 253.19,36.63 253.52,36.63 253.86,47.27 254.19,47.27 254.52,36.63 254.86,42.42 255.19,42.42 255.53,42.42 255.86,39.57 256.20,36.07 256.53,36.07 256.87,36.07 257.20,38.59 257.53,38.59 257.87,38.59 258.20,43.62 258.54,33.04 258.87,33.04 259.21,43.20 259.54,43.20 259.88,37.76 260.21,37.76 260.55,37.76 260.88,31.10 261.21,31.10 261.55,31.10 261.88,27.63 262.22,27.63 262.55,27.63 262.89,27.63 263.22,24.03 263.56,24.03 263.89,32.47 264.22,32.47 264.56,32.47 264.89,20.17 265.23,20.17 265.56,20.17 265.90,28.93 266.23,28.93 266.57,28.93 266.90,38.95 267.23,38.95 267.57,38.95 267.90,36.57 268.24,36.57 268.57,36.57 268.91,36.57 269.24,36.07 269.58,36.07 269.91,42.85 270.25,42.85 270.58,41.63 270.91,41.63 271.25,41.63 271.58,41.63 271.92,49.09 272.25,49.09 272.59,49.09 272.92,34.64 273.26,34.64 273.59,42.95 273.92,42.95 274.26,42.95 274.59,42.95 274.93,34.27 275.26,34.27 275.60,34.27 275.93,34.27 276.27,46.81 276.60,46.81 276.93,46.81 277.27,50.11 277.60,50.11 277.94,41.23 278.27,50.65 278.61,50.65 278.94,47.56 279.28,47.56 279.61,47.56 279.95,47.56 280.28,50.83 280.61,29.45 280.95,29.45 281.28,37.06 281.62,37.06 281.95,37.06 282.29,37.06 282.62,41.70 282.96,41.70 283.29,22.95 283.62,31.06 283.96,31.06 284.29,31.06 284.63,38.61 284.96,38.61 285.30,38.61 285.63,38.61 285.97,43.43 286.30,43.43 286.63,34.75 286.97,34.75 287.30,45.67 287.64,45.67 287.97,28.10 288.31,28.10 288.64,36.16 288.98,36.16 289.31,36.16 289.64,31.97 289.98,31.97 290.31,31.97 290.65,29.47 290.98,29.47 291.32,16.12 291.65,29.80 291.99,29.80 292.32,29.80 292.66,30.06 292.99,30.06 293.32,26.26 293.66,26.26 293.99,26.26 294.33,34.52 294.66,28.83 295.00,28.83 295.33,28.83 295.67,18.37 296.00,18.37" />
</svg>