<svg width="300" height="60" xmlns="http://www.w3.org/2000/svg">
  <polyline fill="rgba(255,200,0,0.3)" stroke="#ffbb00" stroke-width="2" points="4.00,48.73 4.13,48.42 4.26,48.13 4.39,47.89 4.52,47.71 4.65,47.48 4.77,47.11 4.90,46.72 5.03,45.11 5.16,44.10 5.29,43.74 5.42,43.73 5.55,44.23 5.68,45.08 5.81,45.26 5.94,45.24 6.07,44.52 6.19,44.14 6.32,43.28 6.45,42.63 6.58,42.81 6.71,43.20 6.84,42.85 6.97,42.93 7.10,42.95 7.23,42.80 7.36,42.23 7.49,41.50 7.61,41.19 7.74,41.39 7.87,41.65 8.00,41.82 8.13,40.98 8.26,41.23 8.39,41.12 8.52,40.21 8.65,39.99 8.78,39.31 8.91,38.30 9.03,37.05 9.16,36.06 9.29,36.53 9.42,36.36 9.55,36.62 9.68,36.67 9.81,35.91 9.94,35.21 10.07,34.66 10.20,34.61 10.33,34.61 10.45,34.52 10.58,33.56 10.71,32.93 10.84,32.52 10.97,32.23 11.10,32.13 11.23,31.83 11.36,31.92 11.49,31.94 11.62,32.11 11.75,31.66 11.87,31.36 12.00,31.26 12.13,31.36 12.26,31.11 12.39,30.27 12.52,30.53 12.65,29.91 12.78,28.64 12.91,28.15 13.04,27.44 13.17,27.12 13.29,26.71 13.42,26.37 13.55,26.04 13.68,25.83 13.81,25.80 13.94,25.70 14.07,25.59 14.20,25.67 14.33,25.03 14.46,24.80 14.59,24.91 14.71,25.11 14.84,24.69 14.97,24.88 15.10,24.61 15.23,24.31 15.36,23.93 15.49,23.74 15.62,23.49 15.75,23.19 15.88,22.89 16.01,22.57 16.13,22.32 16.26,22.08 16.39,21.91 16.52,21.64 16.65,21.28 16.78,20.97 16.91,20.75 17.04,20.80 17.17,20.89 17.30,19.89 17.43,19.65 17.55,18.59 17.68,18.16 17.81,17.53 17.94,17.44 18.07,18.20 18.20,18.25 18.33,17.99 18.46,17.47 18.59,17.04 18.72,16.72 18.85,16.32 18.97,15.18 19.10,14.30 19.23,13.85 19.36,13.19 19.49,12.57 19.62,12.06 19.75,11.70 19.88,11.31 20.01,10.93 20.14,10.67 20.27,10.56 20.39,10.37 20.52,10.25 20.65,10.02 20.78,9.78 20.91,9.75 21.04,9.88 21.17,10.25 21.30,10.92 21.43,10.97 21.56,10.44 21.69,9.50 21.81,9.06 21.94,8.72 22.07,8.67 22.20,8.70 22.33,8.72 22.46,9.04 22.59,9.16 22.72,9.37 22.85,10.25 22.98,9.57 23.11,7.92 23.23,7.05 23.36,6.77 23.49,7.29 23.62,8.12 23.75,9.58 23.88,9.64 24.01,9.45 24.14,8.27 24.27,7.15 24.40,6.52 24.53,5.67 24.65,5.09 24.78,4.89 24.91,5.59 25.04,6.13 25.17,5.42 25.30,4.84 25.43,5.82 25.56,7.04 25.69,7.42 25.82,7.48 25.95,7.70 26.07,7.62 26.20,7.83 26.33,7.67 26.46,7.83 26.59,7.79 26.72,7.98 26.85,8.20 26.98,8.51 27.11,8.43 27.24,8.66 27.37,9.46 27.49,10.14 27.62,10.29 27.75,10.03 27.88,10.03 28.01,10.08 28.14,10.14 28.27,10.00 28.40,9.81 28.53,9.61 28.66,9.42 28.79,9.04 28.91,8.86 29.04,9.29 29.17,9.73 29.30,10.07 29.43,10.12 29.56,10.02 29.69,9.76 29.82,9.44 29.95,9.41 30.08,9.73 30.21,10.11 30.33,10.74 30.46,11.30 30.59,10.90 30.72,10.50 30.85,10.78 30.98,11.26 31.11,11.63 31.24,11.71 31.37,11.09 31.50,10.63 31.63,9.84 31.75,9.28 31.88,9.02 32.01,9.05 32.14,8.96 32.27,9.16 32.40,9.36 32.53,9.62 32.66,10.32 32.79,10.79 32.92,11.45 33.05,12.29 33.17,13.08 33.30,13.74 33.43,14.17 33.56,13.47 33.69,13.22 33.82,13.08 33.95,12.88 34.08,12.68 34.21,12.52 34.34,12.36 34.47,12.19 34.59,12.02 34.72,11.88 34.85,11.73 34.98,11.57 35.11,11.40 35.24,11.27 35.37,11.16 35.50,10.96 35.63,10.87 35.76,10.77 35.89,10.67 36.01,10.54 36.14,10.46 36.27,10.72 36.40,10.80 36.53,10.82 36.66,10.42 36.79,9.73 36.92,9.30 37.05,9.13 37.18,9.07 37.31,9.10 37.43,9.45 37.56,9.81 37.69,10.25 37.82,10.76 37.95,11.06 38.08,11.13 38.21,11.15 38.34,10.99 38.47,10.87 38.60,11.05 38.73,11.12 38.85,11.35 38.98,11.91 39.11,12.55 39.24,12.90 39.37,13.45 39.50,13.84 39.63,14.18 39.76,14.39 39.89,14.18 40.02,14.24 40.15,14.08 40.27,14.15 40.40,14.63 40.53,14.39 40.66,14.58 40.79,14.37 40.92,13.85 41.05,14.34 41.18,16.48 41.31,17.40 41.44,16.38 41.56,15.85 41.69,17.21 41.82,18.71 41.95,17.65 42.08,18.02 42.21,19.76 42.34,21.73 42.47,22.27 42.60,22.73 42.73,23.15 42.86,23.67 42.98,24.10 43.11,24.29 43.24,23.92 43.37,25.18 43.50,25.80 43.63,26.70 43.76,28.71 43.89,28.75 44.02,28.26 44.15,28.51 44.28,28.92 44.40,29.25 44.53,29.62 44.66,30.08 44.79,30.71 44.92,31.84 45.05,32.12 45.18,32.10 45.31,32.31 45.44,32.65 45.57,33.11 45.70,33.51 45.82,33.90 45.95,34.37 46.08,34.78 46.21,35.21 46.34,35.59 46.47,36.04 46.60,36.21 46.73,36.12 46.86,37.26 46.99,38.11 47.12,38.60 47.24,39.55 47.37,40.06 47.50,40.20 47.63,40.51 47.76,40.82 47.89,41.25 48.02,41.65 48.15,42.05 48.28,42.45 48.41,42.53 48.54,42.59 48.66,42.72 48.79,43.19 48.92,43.48 49.05,44.75 49.18,36.37 49.31,36.56 49.44,36.67 49.57,35.74 49.70,35.18 49.83,34.69 49.96,34.58 50.08,34.64 50.21,34.58 50.34,33.56 50.47,32.99 50.60,32.47 50.73,32.29 50.86,32.02 50.99,31.94 51.12,32.00 51.25,31.87 51.38,31.96 51.50,31.81 51.63,31.63 51.76,31.25 51.89,31.21 52.02,30.81 52.15,30.19 52.28,30.29 52.41,30.08 52.54,28.41 52.67,28.13 52.80,27.33 52.92,27.07 53.05,26.64 53.18,26.36 53.31,26.08 53.44,25.84 53.57,25.71 53.70,25.58 53.83,25.69 53.96,25.46 54.09,25.18 54.22,24.85 54.34,24.84 54.47,24.98 54.60,24.66 54.73,24.85 54.86,24.62 54.99,24.31 55.12,24.00 55.25,23.74 55.38,23.46 55.51,23.17 55.64,22.87 55.76,22.54 55.89,22.29 56.02,22.07 56.15,21.87 56.28,21.68 56.41,21.26 56.54,20.97 56.67,20.73 56.80,20.79 56.93,20.95 57.06,19.89 57.18,19.68 57.31,18.52 57.44,18.02 57.57,17.52 57.70,17.28 57.83,18.22 57.96,18.27 58.09,17.94 58.22,17.47 58.35,17.03 58.48,16.71 58.60,16.35 58.73,14.99 58.86,14.26 58.99,13.89 59.12,13.18 59.25,12.60 59.38,12.03 59.51,11.70 59.64,11.24 59.77,10.93 59.90,10.70 60.02,10.52 60.15,10.41 60.28,10.22 60.41,10.03 60.54,9.89 60.67,9.72 60.80,9.84 60.93,10.25 61.06,10.84 61.19,10.97 61.32,10.43 61.44,9.44 61.57,9.10 61.70,8.70 61.83,8.67 61.96,8.66 62.09,8.77 62.22,9.01 62.35,9.28 62.48,9.39 62.61,10.17 62.74,9.53 62.86,8.07 62.99,7.04 63.12,6.87 63.25,7.30 63.38,8.02 63.51,9.58 63.64,9.64 63.77,9.47 63.90,8.13 64.03,7.17 64.16,6.46 64.28,5.66 64.41,5.08 64.54,4.87 64.67,5.59 64.80,6.24 64.93,5.49 65.06,4.96 65.19,5.83 65.32,7.06 65.45,7.44 65.58,7.50 65.70,7.88 65.83,7.67 65.96,7.75 66.09,7.63 66.22,8.05 66.35,7.80 66.48,8.00 66.61,8.23 66.74,8.55 66.87,8.40 67.00,8.68 67.12,9.43 67.25,10.15 67.38,10.34 67.51,10.01 67.64,10.04 67.77,10.17 67.90,10.01 68.03,9.96 68.16,9.80 68.29,9.60 68.42,9.41 68.54,9.08 68.67,8.85 68.80,9.29 68.93,9.69 69.06,9.88 69.19,10.31 69.32,10.06 69.45,9.75 69.58,9.45 69.71,9.41 69.84,9.74 69.96,10.12 70.09,10.82 70.22,11.26 70.35,10.89 70.48,10.54 70.61,10.71 70.74,11.16 70.87,11.69 71.00,11.74 71.13,11.05 71.26,10.53 71.38,9.82 71.51,9.32 71.64,9.06 71.77,8.94 71.90,9.10 72.03,9.27 72.16,9.37 72.29,9.64 72.42,10.25 72.55,10.63 72.68,11.43 72.80,12.31 72.93,13.06 73.06,13.75 73.19,14.24 73.32,13.50 73.45,13.24 73.58,13.09 73.71,12.90 73.84,12.70 73.97,12.53 74.10,12.37 74.22,12.18 74.35,12.03 74.48,11.88 74.61,11.73 74.74,11.56 74.87,11.40 75.00,11.27 75.13,11.16 75.26,10.94 75.39,10.88 75.52,10.77 75.64,10.65 75.77,10.55 75.90,10.45 76.03,10.62 76.16,10.77 76.29,10.85 76.42,10.49 76.55,9.76 76.68,9.28 76.81,9.09 76.94,9.03 77.06,9.15 77.19,9.48 77.32,9.83 77.45,10.22 77.58,10.75 77.71,11.08 77.84,11.06 77.97,11.05 78.10,11.06 78.23,10.88 78.36,11.01 78.48,11.13 78.61,11.39 78.74,11.90 78.87,12.53 79.00,12.96 79.13,13.45 79.26,13.87 79.39,14.22 79.52,14.32 79.65,14.25 79.78,14.24 79.90,14.06 80.03,14.18 80.16,14.57 80.29,14.55 80.42,14.57 80.55,14.24 80.68,13.87 80.81,14.32 80.94,16.69 81.07,17.41 81.20,16.41 81.32,15.89 81.45,17.21 81.58,18.83 81.71,17.65 81.84,18.07 81.97,19.71 82.10,21.74 82.23,22.30 82.36,22.71 82.49,23.19 82.62,23.65 82.74,24.10 82.87,24.40 83.00,23.93 83.13,24.99 83.26,25.78 83.39,26.81 83.52,28.96 83.65,28.87 83.78,28.20 83.91,28.50 84.04,28.92 84.16,29.27 84.29,29.61 84.42,30.10 84.55,30.95 84.68,31.60 84.81,31.93 84.94,32.15 85.07,32.26 85.20,32.65 85.33,33.08 85.46,33.52 85.58,33.92 85.71,34.41 85.84,34.79 85.97,35.09 86.10,35.56 86.23,36.07 86.36,36.30 86.49,36.12 86.62,37.10 86.75,38.11 86.88,38.57 87.00,39.49 87.13,40.07 87.26,40.15 87.39,40.52 87.52,40.83 87.65,41.25 87.78,41.68 87.91,42.08 88.04,42.48 88.17,42.48 88.30,42.52 88.42,42.75 88.55,43.13 88.68,43.50 88.81,44.72 88.94,52.01 89.07,51.89 89.20,53.01 89.33,53.91 89.46,54.12 89.59,55.02 89.72,55.20 89.84,55.26 89.97,55.36 90.10,55.98 90.23,55.21 90.36,54.71 90.49,54.50 90.62,54.30 90.75,54.02 90.88,53.68 91.01,53.60 91.14,53.49 91.26,53.38 91.39,53.44 91.52,53.69 91.65,53.83 91.78,53.89 91.91,53.85 92.04,53.69 92.17,53.12 92.30,52.44 92.43,52.20 92.56,51.94 92.68,51.77 92.81,51.49 92.94,51.46 93.07,51.35 93.20,51.88 93.33,52.15 93.46,52.73 93.59,53.38 93.72,54.13 93.85,53.47 93.98,52.29 94.10,51.28 94.23,51.00 94.36,49.98 94.49,49.92 94.62,49.34 94.75,49.01 94.88,49.35 95.01,49.30 95.14,49.38 95.27,49.16 95.40,48.97 95.52,48.80 95.65,48.72 95.78,48.59 95.91,48.64 96.04,48.76 96.17,48.71 96.30,48.81 96.43,48.93 96.56,49.11 96.69,49.26 96.82,49.42 96.94,49.63 97.07,49.90 97.20,50.16 97.33,50.42 97.46,50.68 97.59,50.91 97.72,50.70 97.85,50.74 97.98,51.01 98.11,51.93 98.24,52.34 98.36,52.46 98.49,52.65 98.62,52.80 98.75,52.99 98.88,53.05 99.01,53.09 99.14,53.16 99.27,53.17 99.40,53.17 99.53,53.17 99.66,53.23 99.78,53.46 99.91,53.82 100.04,53.61 100.17,53.41 100.30,53.36 100.43,52.87 100.56,52.33 100.69,51.75 100.82,51.26 100.95,50.91 101.08,50.55 101.20,50.25 101.33,49.93 101.46,49.64 101.59,49.35 101.72,49.05 101.85,48.73 101.98,52.00 102.11,51.87 102.24,53.02 102.37,53.92 102.50,54.16 102.62,55.12 102.75,55.20 102.88,55.25 103.01,55.35 103.14,56.00 103.27,55.23 103.40,54.66 103.53,54.47 103.66,54.28 103.79,54.06 103.92,53.68 104.04,53.60 104.17,53.54 104.30,53.41 104.43,53.42 104.56,53.68 104.69,53.83 104.82,53.88 104.95,53.87 105.08,53.68 105.21,53.06 105.34,52.35 105.46,52.38 105.59,51.97 105.72,51.73 105.85,51.53 105.98,51.41 106.11,51.34 106.24,51.95 106.37,52.15 106.50,52.73 106.63,53.42 106.76,54.13 106.88,53.47 107.01,52.34 107.14,51.31 107.27,51.07 107.40,49.98 107.53,49.80 107.66,49.29 107.79,49.06 107.92,49.18 108.05,49.29 108.18,49.37 108.30,49.15 108.43,48.96 108.56,48.79 108.69,48.70 108.82,48.60 108.95,48.62 109.08,48.64 109.21,48.68 109.34,48.80 109.47,48.93 109.60,49.10 109.72,49.25 109.85,49.44 109.98,49.63 110.11,49.89 110.24,50.14 110.37,50.39 110.50,50.68 110.63,50.92 110.76,50.58 110.89,50.63 111.02,51.22 111.14,51.92 111.27,52.37 111.40,52.47 111.53,52.66 111.66,52.82 111.79,53.01 111.92,53.06 112.05,53.09 112.18,53.16 112.31,53.15 112.44,53.17 112.56,53.18 112.69,53.26 112.82,53.47 112.95,53.79 113.08,53.61 113.21,53.40 113.34,53.35 113.47,52.90 113.60,52.21 113.73,51.74 113.85,51.32 113.98,50.97 114.11,50.57 114.24,50.26 114.37,49.94 114.50,49.64 114.63,49.36 114.76,49.04 114.89,48.72 115.02,48.44 115.15,48.15 115.27,47.89 115.40,47.70 115.53,47.44 115.66,47.08 115.79,46.72 115.92,45.13 116.05,44.12 116.18,43.68 116.31,43.81 116.44,44.27 116.57,45.05 116.69,45.12 116.82,45.29 116.95,44.50 117.08,44.12 117.21,43.33 117.34,42.69 117.47,42.77 117.60,43.20 117.73,42.85 117.86,42.94 117.99,42.94 118.11,42.78 118.24,42.26 118.37,41.59 118.50,41.22 118.63,41.51 118.76,41.69 118.89,41.71 119.02,40.96 119.15,41.40 119.28,41.04 119.41,40.08 119.53,39.94 119.66,39.40 119.79,38.30 119.92,37.02 120.05,36.14 120.18,36.52 120.31,36.38 120.44,36.56 120.57,21.15 120.70,19.87 120.83,19.32 120.95,18.44 121.08,18.32 121.21,17.69 121.34,18.17 121.47,18.31 121.60,18.31 121.73,17.97 121.86,17.46 121.99,17.01 122.12,16.68 122.25,15.96 122.37,15.09 122.50,14.32 122.63,13.71 122.76,13.21 122.89,12.64 123.02,12.21 123.15,11.64 123.28,11.50 123.41,10.98 123.54,10.90 123.67,10.41 123.79,10.35 123.92,10.26 124.05,10.14 124.18,9.95 124.31,9.76 124.44,9.82 124.57,10.20 124.70,10.94 124.83,10.90 124.96,10.39 125.09,9.49 125.21,9.24 125.34,8.91 125.47,8.68 125.60,8.84 125.73,8.75 125.86,8.94 125.99,9.11 126.12,9.52 126.25,10.41 126.38,9.36 126.51,8.17 126.63,7.37 126.76,7.09 126.89,7.79 127.02,8.23 127.15,9.64 127.28,9.55 127.41,9.47 127.54,7.95 127.67,7.34 127.80,6.55 127.93,5.75 128.05,5.20 128.18,4.85 128.31,5.58 128.44,6.14 128.57,5.62 128.70,4.88 128.83,6.10 128.96,6.86 129.09,7.41 129.22,7.49 129.35,8.02 129.47,7.49 129.60,8.05 129.73,7.45 129.86,8.14 129.99,7.68 130.12,8.02 130.25,8.23 130.38,8.52 130.51,8.45 130.64,8.55 130.77,9.34 130.89,9.91 131.02,10.20 131.15,9.96 131.28,9.80 131.41,10.14 131.54,10.03 131.67,9.67 131.80,9.43 131.93,9.33 132.06,9.40 132.19,9.26 132.31,8.82 132.44,9.63 132.57,9.91 132.70,10.44 132.83,10.33 132.96,10.17 133.09,9.61 133.22,9.66 133.35,9.51 133.48,9.90 133.61,10.51 133.73,10.71 133.86,11.52 133.99,11.54 134.12,10.66 134.25,10.73 134.38,11.51 134.51,11.88 134.64,12.14 134.77,11.32 134.90,10.72 135.03,9.94 135.15,9.71 135.28,9.19 135.41,9.17 135.54,9.01 135.67,9.60 135.80,9.64 135.93,9.86 136.06,10.55 136.19,11.04 136.32,11.56 136.45,12.53 136.57,13.16 136.70,13.83 136.83,14.22 136.96,13.42 137.09,13.23 137.22,13.06 137.35,12.81 137.48,12.67 137.61,12.53 137.74,12.30 137.87,12.15 137.99,12.01 138.12,11.86 138.25,11.72 138.38,11.56 138.51,11.41 138.64,11.25 138.77,11.18 138.90,10.77 139.03,10.86 139.16,10.77 139.29,10.71 139.41,10.54 139.54,10.43 139.67,10.57 139.80,10.87 139.93,10.90 140.06,10.46 140.19,9.73 140.32,9.23 140.45,9.06 140.58,9.04 140.71,9.19 140.83,9.54 140.96,9.78 141.09,10.15 141.22,10.69 141.35,10.94 141.48,10.87 141.61,10.62 141.74,11.02 141.87,10.87 142.00,10.87 142.13,11.02 142.25,11.26 142.38,11.77 142.51,12.58 142.64,12.73 142.77,13.54 142.90,13.71 143.03,13.88 143.16,14.21 143.29,14.19 143.42,14.26 143.55,13.96 143.67,14.22 143.80,14.31 143.93,14.83 144.06,14.46 144.19,14.44 144.32,13.83 144.45,14.51 144.58,16.81 144.71,17.36 144.84,17.04 144.97,15.91 145.09,17.39 145.22,19.04 145.35,17.54 145.48,18.32 145.61,20.39 145.74,21.62 145.87,22.18 146.00,22.70 146.13,23.18 146.26,23.71 146.39,24.14 146.51,24.31 146.64,24.70 146.77,24.93 146.90,25.83 147.03,26.98 147.16,28.73 147.29,28.82 147.42,28.13 147.55,28.57 147.68,28.88 147.81,29.29 147.93,29.59 148.06,30.02 148.19,30.82 148.32,31.99 148.45,32.46 148.58,31.89 148.71,32.27 148.84,32.72 148.97,33.17 149.10,33.57 149.23,34.05 149.35,34.39 149.48,34.88 149.61,35.33 149.74,35.19 149.87,36.04 150.00,36.28 150.13,36.43 150.26,36.87 150.39,38.25 150.52,38.84 150.65,39.56 150.77,40.19 150.90,40.12 151.03,40.53 151.16,40.81 151.29,41.26 151.42,41.72 151.55,42.14 151.68,42.56 151.81,42.58 151.94,42.44 152.07,43.05 152.19,43.31 152.32,43.61 152.45,44.86 152.58,51.95 152.71,51.80 152.84,52.96 152.97,53.86 153.10,54.34 153.23,55.25 153.36,55.22 153.49,55.27 153.61,55.46 153.74,56.00 153.87,55.18 154.00,54.91 154.13,54.49 154.26,54.29 154.39,54.05 154.52,53.67 154.65,53.62 154.78,53.55 154.91,53.48 155.03,53.54 155.16,53.69 155.29,53.83 155.42,53.88 155.55,53.83 155.68,53.62 155.81,52.92 155.94,52.55 156.07,52.33 156.20,51.95 156.33,51.69 156.45,51.57 156.58,51.46 156.71,51.37 156.84,52.10 156.97,52.16 157.10,52.77 157.23,53.49 157.36,53.94 157.49,53.38 157.62,51.98 157.75,51.17 157.87,50.48 158.00,50.33 158.13,50.07 158.26,49.10 158.39,48.88 158.52,49.10 158.65,49.17 158.78,49.29 158.91,49.11 159.04,48.93 159.17,48.90 159.29,48.69 159.42,48.57 159.55,48.73 159.68,48.64 159.81,48.67 159.94,48.81 160.07,48.99 160.20,49.18 160.33,49.31 160.46,49.43 160.59,49.77 160.71,49.85 160.84,50.19 160.97,50.40 161.10,50.72 161.23,50.92 161.36,51.03 161.49,50.51 161.62,51.38 161.75,52.08 161.88,52.41 162.01,52.47 162.13,52.70 162.26,52.89 162.39,52.99 162.52,53.08 162.65,54.30 162.78,54.64 162.91,53.26 163.04,53.17 163.17,53.18 163.30,53.36 163.43,53.35 163.55,53.82 163.68,53.65 163.81,53.48 163.94,53.25 164.07,52.92 164.20,52.54 164.33,51.77 164.46,51.54 164.59,50.86 164.72,50.49 164.85,50.14 164.97,49.87 165.10,49.65 165.23,49.36 165.36,49.03 165.49,48.72 165.62,48.39 165.75,48.07 165.88,47.82 166.01,47.61 166.14,47.65 166.27,47.12 166.39,46.72 166.52,44.96 166.65,43.96 166.78,43.68 166.91,43.57 167.04,44.02 167.17,45.02 167.30,45.49 167.43,45.26 167.56,44.44 167.69,43.72 167.81,43.29 167.94,42.57 168.07,42.78 168.20,43.17 168.33,42.79 168.46,42.87 168.59,42.94 168.72,42.76 168.85,42.29 168.98,41.55 169.11,41.23 169.23,41.39 169.36,42.05 169.49,41.53 169.62,41.33 169.75,41.53 169.88,41.19 170.01,39.92 170.14,40.01 170.27,39.37 170.40,38.21 170.53,36.93 170.65,35.83 170.78,36.31 170.91,35.94 171.04,36.44 171.17,36.34 171.30,35.55 171.43,34.76 171.56,34.60 171.69,34.62 171.82,34.64 171.95,34.73 172.07,33.43 172.20,33.03 172.33,32.54 172.46,32.32 172.59,32.02 172.72,31.95 172.85,31.66 172.98,32.05 173.11,31.16 173.24,31.59 173.37,31.00 173.49,30.49 173.62,31.01 173.75,30.25 173.88,30.33 174.01,30.00 174.14,29.95 174.27,28.57 174.40,27.90 174.53,27.28 174.66,27.04 174.79,26.72 174.91,26.17 175.04,25.96 175.17,25.72 175.30,25.56 175.43,25.73 175.56,25.78 175.69,25.57 175.82,24.80 175.95,24.69 176.08,25.14 176.21,25.11 176.33,24.73 176.46,24.70 176.59,24.56 176.72,24.23 176.85,23.99 176.98,23.69 177.11,23.48 177.24,23.18 177.37,22.88 177.50,22.55 177.63,22.32 177.75,22.12 177.88,22.06 178.01,21.57 178.14,21.29 178.27,20.96 178.40,20.75 178.53,20.75 178.66,21.15 178.79,19.87 178.92,19.32 179.05,18.45 179.17,18.32 179.30,10.41 179.43,9.36 179.56,8.18 179.69,7.38 179.82,7.10 179.95,51.64 180.08,52.02 180.21,52.94 180.34,53.34 180.47,54.49 180.59,54.58 180.72,55.25 180.85,55.20 180.98,55.26 181.11,55.69 181.24,55.13 181.37,54.75 181.50,54.46 181.63,54.19 181.76,53.94 181.89,53.70 182.01,53.70 182.14,53.67 182.27,53.39 182.40,53.41 182.53,53.65 182.66,53.83 182.79,53.94 182.92,53.90 183.05,53.37 183.18,53.30 183.31,52.63 183.43,52.13 183.56,52.30 183.69,51.81 183.82,51.46 183.95,51.46 184.08,51.32 184.21,51.52 184.34,52.02 184.47,52.50 184.60,53.13 184.73,53.78 184.85,53.87 184.98,52.63 185.11,51.59 185.24,50.86 185.37,50.80 185.50,50.23 185.63,49.64 185.76,49.25 185.89,49.17 186.02,49.16 186.15,49.18 186.27,49.19 186.40,49.17 186.53,49.08 186.66,48.97 186.79,48.94 186.92,48.96 187.05,49.03 187.18,49.12 187.31,49.32 187.44,49.66 187.56,50.22 187.69,49.67 187.82,49.67 187.95,49.45 188.08,50.33 188.21,50.30 188.34,50.32 188.47,50.88 188.60,50.33 188.73,49.96 188.86,50.93 188.98,51.11 189.11,51.63 189.24,51.63 189.37,52.26 189.50,52.67 189.63,53.06 189.76,52.94 189.89,53.50 190.02,53.22 190.15,53.22 190.28,53.25 190.40,53.24 190.53,53.25 190.66,53.71 190.79,53.65 190.92,53.56 191.05,53.38 191.18,53.13 191.31,52.91 191.44,52.62 191.57,52.33 191.70,52.06 191.82,51.83 191.95,51.73 192.08,51.52 192.21,49.74 192.34,50.67 192.47,50.24 192.60,49.75 192.73,49.13 192.86,48.57 192.99,48.02 193.12,48.62 193.24,48.22 193.37,47.84 193.50,47.84 193.63,47.37 193.76,46.85 193.89,46.01 194.02,44.61 194.15,44.06 194.28,43.96 194.41,44.93 194.54,45.28 194.66,45.18 194.79,45.50 194.92,44.52 195.05,43.70 195.18,43.70 195.31,43.41 195.44,42.77 195.57,43.16 195.70,42.79 195.83,43.17 195.96,43.03 196.08,42.67 196.21,42.05 196.34,41.46 196.47,41.18 196.60,41.26 196.73,41.85 196.86,41.85 196.99,41.09 197.12,41.21 197.25,40.44 197.38,40.21 197.50,39.71 197.63,39.05 197.76,38.10 197.89,37.09 198.02,36.01 198.15,36.88 198.28,36.59 198.41,37.00 198.54,36.34 198.67,36.24 198.80,34.56 198.92,34.47 199.05,34.44 199.18,34.52 199.31,34.26 199.44,33.80 199.57,33.62 199.70,33.72 199.83,32.05 199.96,32.53 200.09,33.09 200.22,31.90 200.34,32.67 200.47,31.58 200.60,32.28 200.73,31.22 200.86,30.08 200.99,30.95 201.12,30.00 201.25,30.77 201.38,29.93 201.51,30.48 201.64,29.19 201.76,27.90 201.89,28.75 202.02,27.92 202.15,27.01 202.28,27.01 202.41,26.11 202.54,25.30 202.67,26.27 202.80,25.74 202.93,26.71 203.06,26.23 203.18,25.67 203.31,24.39 203.44,25.57 203.57,24.93 203.70,24.49 203.83,24.19 203.96,24.11 204.09,23.85 204.22,23.55 204.35,23.39 204.48,23.36 204.60,23.25 204.73,23.02 204.86,22.81 204.99,22.66 205.12,22.50 205.25,22.36 205.38,22.24 205.51,21.41 205.64,20.83 205.77,21.06 205.90,20.74 206.02,20.62 206.15,20.13 206.28,18.87 206.41,18.87 206.54,18.81 206.67,17.93 206.80,18.12 206.93,17.77 207.06,18.53 207.19,17.93 207.32,17.72 207.44,17.13 207.57,16.45 207.70,15.83 207.83,15.18 207.96,14.71 208.09,13.50 208.22,13.78 208.35,12.79 208.48,12.57 208.61,11.72 208.74,11.65 208.86,10.85 208.99,11.23 209.12,10.30 209.25,10.16 209.38,10.37 209.51,9.69 209.64,9.85 209.77,9.85 209.90,10.21 210.03,9.62 210.16,10.17 210.28,10.85 210.41,10.10 210.54,9.26 210.67,9.22 210.80,8.72 210.93,8.55 211.06,8.86 211.19,8.91 211.32,8.13 211.45,8.58 211.58,9.83 211.70,10.06 211.83,8.78 211.96,8.12 212.09,7.05 212.22,6.43 212.35,8.13 212.48,8.45 212.61,8.81 212.74,9.60 212.87,9.23 213.00,8.08 213.12,7.92 213.25,5.92 213.38,5.01 213.51,5.58 213.64,5.24 213.77,5.49 213.90,6.05 214.03,5.23 214.16,4.55 214.29,6.32 214.42,6.32 214.54,6.91 214.67,7.33 214.80,8.41 214.93,8.41 215.06,7.97 215.19,8.42 215.32,8.46 215.45,7.60 215.58,8.11 215.71,8.54 215.84,8.35 215.96,8.59 216.09,9.29 216.22,10.06 216.35,9.82 216.48,9.95 216.61,9.84 216.74,10.01 216.87,10.58 217.00,10.93 217.13,10.17 217.26,9.78 217.38,9.78 217.51,9.72 217.64,9.37 217.77,9.28 217.90,9.34 218.03,9.86 218.16,9.86 218.29,10.29 218.42,10.52 218.55,9.91 218.68,10.02 218.80,9.47 218.93,9.30 219.06,10.02 219.19,10.62 219.32,11.03 219.45,11.06 219.58,11.00 219.71,9.91 219.84,10.52 219.97,12.07 220.10,11.41 220.22,11.41 220.35,10.37 220.48,9.05 220.61,9.26 220.74,8.37 220.87,9.32 221.00,8.59 221.13,9.66 221.26,9.19 221.39,8.99 221.52,10.09 221.64,11.08 221.77,10.63 221.90,11.51 222.03,13.19 222.16,13.93 222.29,13.93 222.42,13.76 222.55,13.21 222.68,12.80 222.81,12.43 222.94,12.98 223.06,12.67 223.19,12.41 223.32,12.20 223.45,11.99 223.58,11.77 223.71,11.99 223.84,11.78 223.97,11.56 224.10,11.34 224.23,11.06 224.36,10.76 224.48,10.55 224.61,10.45 224.74,10.36 224.87,10.78 225.00,10.55 225.13,10.91 225.26,10.91 225.39,10.97 225.52,10.26 225.65,10.14 225.78,9.53 225.90,9.29 226.03,9.29 226.16,9.43 226.29,9.88 226.42,9.56 226.55,10.18 226.68,10.77 226.81,10.51 226.94,11.38 227.07,10.90 227.20,11.55 227.32,11.14 227.45,10.92 227.58,11.58 227.71,11.55 227.84,11.71 227.97,13.27 228.10,12.93 228.23,13.47 228.36,13.97 228.49,14.43 228.62,14.70 228.74,14.73 228.87,14.68 229.00,14.13 229.13,14.10 229.26,14.47 229.39,14.78 229.52,14.78 229.65,13.96 229.78,14.51 229.91,14.51 230.04,16.52 230.16,16.52 230.29,16.94 230.42,15.78 230.55,17.57 230.68,19.05 230.81,17.52 230.94,18.14 231.07,19.81 231.20,21.48 231.33,22.17 231.46,23.48 231.58,23.22 231.71,23.07 231.84,24.23 231.97,24.23 232.10,23.92 232.23,23.96 232.36,24.88 232.49,26.93 232.62,28.30 232.75,29.84 232.88,28.22 233.00,28.21 233.13,29.49 233.26,30.20 233.39,29.60 233.52,30.95 233.65,30.77 233.78,32.26 233.91,32.26 234.04,32.03 234.17,33.26 234.30,32.85 234.42,32.79 234.55,32.91 234.68,34.07 234.81,34.48 234.94,34.82 235.07,35.16 235.20,34.81 235.33,35.45 235.46,35.86 235.59,36.07 235.72,36.53 235.84,38.02 235.97,38.80 236.10,39.45 236.23,40.59 236.36,40.44 236.49,40.48 236.62,41.03 236.75,41.25 236.88,41.57 237.01,41.91 237.14,42.20 237.26,42.50 237.39,42.32 237.52,42.92 237.65,43.10 237.78,43.79 237.91,44.80 238.04,50.45 238.17,52.16 238.30,52.16 238.43,52.16 238.56,52.13 238.68,52.13 238.81,55.10 238.94,55.09 239.07,55.09 239.20,55.09 239.33,55.22 239.46,55.22 239.59,54.05 239.72,54.05 239.85,54.05 239.98,52.99 240.10,52.99 240.23,54.16 240.36,53.36 240.49,53.36 240.62,53.36 240.75,54.01 240.88,54.01 241.01,54.01 241.14,53.63 241.27,53.63 241.40,53.63 241.52,52.02 241.65,53.78 241.78,53.78 241.91,53.05 242.04,53.05 242.17,53.05 242.30,53.05 242.43,53.36 242.56,53.36 242.69,53.36 242.82,54.32 242.94,54.32 243.07,53.10 243.20,51.80 243.33,51.80 243.46,53.82 243.59,52.71 243.72,52.71 243.85,52.71 243.98,52.44 244.11,52.44 244.24,52.44 244.36,52.50 244.49,52.50 244.62,52.50 244.75,52.14 244.88,52.14 245.01,52.14 245.14,51.88 245.27,51.88 245.40,51.88 245.53,52.34 245.66,52.34 245.78,48.62 245.91,48.62 246.04,50.62 246.17,50.62 246.30,50.62 246.43,50.16 246.56,50.16 246.69,50.16 246.82,50.16 246.95,52.21 247.08,49.84 247.20,49.84 247.33,49.84 247.46,52.75 247.59,51.15 247.72,51.15 247.85,51.15 247.98,53.98 248.11,52.91 248.24,52.91 248.37,52.91 248.50,53.64 248.62,53.64 248.75,53.95 248.88,52.94 249.01,52.94 249.14,52.94 249.27,52.00 249.40,52.00 249.53,52.00 249.66,51.16 249.79,51.16 249.92,51.16 250.04,50.86 250.17,50.86 250.30,50.19 250.43,50.95 250.56,50.95 250.69,50.95 250.82,50.62 250.95,50.62 251.08,50.62 251.21,49.65 251.34,49.65 251.46,49.65 251.59,49.65 251.72,47.96 251.85,47.96 251.98,47.96 252.11,44.84 252.24,46.93 252.37,46.93 252.50,46.93 252.63,47.71 252.76,47.71 252.88,47.71 253.01,45.41 253.14,45.41 253.27,45.41 253.40,45.41 253.53,42.93 253.66,45.69 253.79,45.69 253.92,44.02 254.05,44.02 254.18,44.02 254.30,42.59 254.43,42.59 254.56,42.59 254.69,42.30 254.82,42.30 254.95,42.30 255.08,42.30 255.21,40.71 255.34,40.71 255.47,40.71 255.60,38.80 255.72,38.80 255.85,38.43 255.98,38.43 256.11,38.43 256.24,38.43 256.37,37.06 256.50,37.06 256.63,37.06 256.76,36.84 256.89,36.84 257.02,36.84 257.14,36.57 257.27,36.57 257.40,36.60 257.53,36.60 257.66,36.60 257.79,37.52 257.92,32.50 258.05,32.50 258.18,34.29 258.31,34.29 258.44,34.29 258.56,36.22 258.69,36.22 258.82,31.06 258.95,33.30 259.08,33.30 259.21,33.30 259.34,35.52 259.47,30.34 259.60,30.34 259.73,32.29 259.85,32.29 259.98,32.29 260.11,29.33 260.24,29.33 260.37,29.33 260.50,29.33 260.63,27.08 260.76,27.08 260.89,27.08 261.02,29.79 261.15,29.79 261.27,25.72 261.40,25.72 261.53,28.07 261.66,28.07 261.79,26.21 261.92,26.21 262.05,26.21 262.18,26.11 262.31,26.11 262.44,26.11 262.57,26.15 262.69,26.15 262.82,26.15 262.95,25.67 263.08,25.67 263.21,25.67 263.34,25.17 263.47,25.17 263.60,21.46 263.73,21.46 263.86,22.43 263.99,20.42 264.11,20.42 264.24,20.42 264.37,20.85 264.50,20.85 264.63,20.85 264.76,17.86 264.89,18.88 265.02,18.88 265.15,17.26 265.28,17.26 265.41,17.26 265.53,18.00 265.66,18.00 265.79,18.00 265.92,16.27 266.05,16.27 266.18,16.27 266.31,16.46 266.44,13.12 266.57,13.12 266.70,11.32 266.83,11.32 266.95,11.32 267.08,11.56 267.21,9.56 267.34,9.56 267.47,9.56 267.60,8.92 267.73,9.49 267.86,9.49 267.99,9.49 268.12,8.55 268.25,8.55 268.37,10.07 268.50,10.07 268.63,8.95 268.76,8.95 268.89,8.95 269.02,7.70 269.15,7.70 269.28,7.70 269.41,7.70 269.54,7.60 269.67,7.60 269.79,7.60 269.92,8.38 270.05,8.38 270.18,8.38 270.31,5.79 270.44,5.79 270.57,5.79 270.70,5.18 270.83,9.42 270.96,9.42 271.09,7.90 271.21,7.90 271.34,7.90 271.47,4.00 271.60,6.52 271.73,6.52 271.86,5.61 271.99,5.61 272.12,5.28 272.25,5.28 272.38,5.28 272.51,5.28 272.63,4.62 272.76,6.86 272.89,8.71 273.02,8.71 273.15,9.54 273.28,9.54 273.41,9.54 273.54,7.62 273.67,9.04 273.80,9.04 273.93,9.04 274.05,10.18 274.18,10.18 274.31,11.81 274.44,11.81 274.57,11.81 274.70,12.70 274.83,12.70 274.96,13.99 275.09,13.99 275.22,10.44 275.35,12.68 275.47,12.68 275.60,12.68 275.73,10.02 275.86,10.02 275.99,10.02 276.12,9.76 276.25,9.76 276.38,9.76 276.51,9.76 276.64,8.51 276.77,10.69 276.89,10.69 277.02,9.72 277.15,9.72 277.28,10.53 277.41,10.53 277.54,10.53 277.67,11.16 277.80,7.76 277.93,7.76 278.06,8.97 278.19,8.97 278.31,8.97 278.44,10.31 278.57,6.34 278.70,6.34 278.83,7.22 278.96,7.22 279.09,7.22 279.22,9.98 279.35,5.86 279.48,5.86 279.61,8.71 279.73,8.71 279.86,8.71 279.99,11.22 280.12,11.22 280.25,11.22 280.38,11.22 280.51,13.92 280.64,13.92 280.77,13.92 280.90,13.92 281.03,13.92 281.15,13.92 281.28,13.03 281.41,13.03 281.54,13.03 281.67,12.24 281.80,12.24 281.93,12.24 282.06,11.55 282.19,11.55 282.32,11.55 282.45,10.73 282.57,10.73 282.70,10.73 282.83,10.24 282.96,12.27 283.09,12.27 283.22,11.26 283.35,11.26 283.48,11.26 283.61,11.99 283.74,11.99 283.87,9.77 283.99,10.88 284.12,10.88 284.25,10.88 284.38,9.81 284.51,9.81 284.64,11.19 284.77,11.19 284.90,10.94 285.03,10.94 285.16,10.94 285.29,12.93 285.41,12.93 285.54,12.93 285.67,12.69 285.80,12.69 285.93,12.69 286.06,13.78 286.19,13.78 286.32,15.09 286.45,15.09 286.58,15.09 286.71,15.40 286.83,15.40 286.96,15.10 287.09,15.10 287.22,14.23 287.35,14.23 287.48,14.23 287.61,14.23 287.74,15.27 287.87,15.27 288.00,15.27 288.13,16.00 288.25,16.00 288.38,16.00 288.51,16.00 288.64,20.10 288.77,20.10 288.90,16.52 289.03,18.79 289.16,18.79 289.29,18.79 289.42,21.70 289.55,25.98 289.67,25.98 289.80,26.27 289.93,26.27 290.06,26.27 290.19,26.27 290.32,25.67 290.45,25.67 290.58,25.67 290.71,27.67 290.84,32.28 290.97,32.28 291.09,29.78 291.22,29.78 291.35,34.08 291.48,34.08 291.61,32.97 291.74,32.97 291.87,32.97 292.00,32.97 292.13,31.98 292.26,36.30 292.39,36.30 292.51,35.17 292.64,35.17 292.77,35.17 292.90,35.28 293.03,35.28 293.16,35.28 293.29,36.36 293.42,36.36 293.55,36.36 293.68,37.81 293.81,37.81 293.93,37.81 294.06,39.43 294.19,39.43 294.32,39.43 294.45,40.43 294.58,40.43 294.71,43.15 294.84,43.15 294.97,43.10 295.10,43.10 295.23,43.10 295.35,43.34 295.48,41.93 295.61,41.93 295.74,43.36 295.87,43.36 296.00,44.83" />
</svg>