<svg width="300" height="60" xmlns="http://www.w3.org/2000/svg">
  <polyline fill="rgba(255,200,0,0.3)" stroke="#ffbb00" stroke-width="2" points="4.00,53.89 4.38,54.67 4.76,55.09 5.14,55.29 5.52,55.29 5.90,55.12 6.28,54.74 6.65,54.01 7.03,53.12 7.41,52.34 7.79,51.85 8.17,51.14 8.55,50.30 8.93,49.52 9.31,48.87 9.69,48.23 10.07,47.53 10.45,46.79 10.83,46.23 11.21,45.85 11.58,45.62 11.96,44.98 12.34,44.21 12.72,43.44 13.10,42.96 13.48,42.77 13.86,42.70 14.24,42.53 14.62,42.29 15.00,41.92 15.38,41.76 15.76,41.34 16.14,40.91 16.51,40.43 16.89,40.26 17.27,36.76 17.65,36.54 18.03,36.25 18.41,36.22 18.79,25.93 19.17,26.00 19.55,26.23 19.93,26.40 20.31,26.61 20.69,26.97 21.06,27.21 21.44,27.38 21.82,27.60 22.20,28.05 22.58,28.41 22.96,29.48 23.34,29.60 23.72,30.55 24.10,31.31 24.48,32.23 24.86,32.94 25.24,33.31 25.62,33.68 25.99,34.21 26.37,34.54 26.75,35.03 27.13,35.40 27.51,35.80 27.89,35.99 28.27,36.11 28.65,36.15 29.03,35.98 29.41,35.87 29.79,36.44 30.17,36.09 30.55,35.93 30.92,35.78 31.30,35.67 31.68,35.50 32.06,34.72 32.44,34.22 32.82,34.02 33.20,34.00 33.58,33.92 33.96,33.53 34.34,33.18 34.72,32.73 35.10,32.39 35.48,32.19 35.85,31.86 36.23,31.60 36.61,31.47 36.99,31.00 37.37,30.63 37.75,30.29 38.13,29.86 38.51,29.12 38.89,28.84 39.27,28.62 39.65,28.42 40.03,28.26 40.41,53.78 40.78,54.54 41.16,54.95 41.54,55.15 41.92,55.12 42.30,54.98 42.68,54.59 43.06,53.90 43.44,53.00 43.82,52.21 44.20,51.74 44.58,51.03 44.96,50.17 45.34,49.40 45.71,48.74 46.09,48.11 46.47,47.40 46.85,46.67 47.23,46.08 47.61,45.70 47.99,45.48 48.37,44.81 48.75,44.03 49.13,43.29 49.51,42.80 49.89,42.62 50.26,42.57 50.64,42.39 51.02,42.14 51.40,41.79 51.78,41.61 52.16,41.19 52.54,40.76 52.92,40.27 53.30,40.14 53.68,40.13 54.06,40.00 54.44,39.80 54.82,39.19 55.19,38.45 55.57,38.13 55.95,37.60 56.33,37.19 56.71,36.65 57.09,36.41 57.47,36.12 57.85,36.08 58.23,35.74 58.61,35.44 58.99,35.13 59.37,34.79 59.75,34.65 60.12,34.30 60.50,34.03 60.88,33.75 61.26,33.28 61.64,32.85 62.02,32.60 62.40,32.12 62.78,31.61 63.16,31.40 63.54,30.96 63.92,30.48 64.30,29.82 64.68,28.93 65.05,28.06 65.43,27.38 65.81,26.97 66.19,26.37 66.57,25.51 66.95,24.87 67.33,24.64 67.71,24.81 68.09,25.08 68.47,25.45 68.85,25.66 69.23,25.80 69.61,25.97 69.98,26.23 70.36,26.46 70.74,26.93 71.12,27.37 71.50,27.63 71.88,27.83 72.26,27.88 72.64,27.51 73.02,27.17 73.40,27.32 73.78,27.11 74.16,26.72 74.54,26.49 74.91,26.07 75.29,25.69 75.67,25.26 76.05,24.90 76.43,24.64 76.81,24.24 77.19,23.84 77.57,23.88 77.95,24.55 78.33,25.20 78.71,25.73 79.09,26.15 79.46,26.35 79.84,26.20 80.22,26.03 80.60,25.89 80.98,25.84 81.36,25.89 81.74,26.08 82.12,26.25 82.50,26.09 82.88,25.98 83.26,25.84 83.64,25.46 84.02,25.46 84.39,25.78 84.77,25.87 85.15,26.12 85.53,26.27 85.91,26.47 86.29,26.82 86.67,27.07 87.05,27.23 87.43,27.48 87.81,27.92 88.19,28.28 88.57,29.32 88.95,29.50 89.32,30.42 89.70,31.18 90.08,32.08 90.46,32.81 90.84,33.18 91.22,33.56 91.60,34.08 91.98,34.40 92.36,34.91 92.74,35.27 93.12,35.67 93.50,35.86 93.88,35.99 94.25,36.01 94.63,35.86 95.01,35.80 95.39,36.32 95.77,35.98 96.15,35.81 96.53,35.66 96.91,35.56 97.29,35.37 97.67,34.58 98.05,34.10 98.43,33.90 98.81,33.90 99.18,33.77 99.56,33.40 99.94,33.05 100.32,32.58 100.70,32.25 101.08,32.05 101.46,31.71 101.84,31.48 102.22,31.35 102.60,30.86 102.98,30.52 103.36,30.18 103.74,29.74 104.11,29.02 104.49,28.75 104.87,28.52 105.25,28.32 105.63,28.17 106.01,27.92 106.39,27.43 106.77,27.19 107.15,26.75 107.53,26.43 107.91,26.15 108.29,25.88 108.66,25.76 109.04,25.40 109.42,25.07 109.80,24.84 110.18,24.85 110.56,24.48 110.94,24.05 111.32,23.59 111.70,23.35 112.08,23.01 112.46,22.82 112.84,22.76 113.22,22.28 113.59,21.72 113.97,21.30 114.35,21.05 114.73,20.78 115.11,20.59 115.49,20.30 115.87,20.20 116.25,19.69 116.63,19.31 117.01,18.91 117.39,18.41 117.77,18.12 118.15,17.79 118.52,17.58 118.90,17.46 119.28,17.28 119.66,17.11 120.04,16.71 120.42,15.96 120.80,15.37 121.18,15.08 121.56,14.63 121.94,14.28 122.32,13.75 122.70,13.49 123.08,13.65 123.45,13.80 123.83,13.79 124.21,13.67 124.59,13.49 124.97,13.31 125.35,11.82 125.73,54.73 126.11,55.68 126.49,56.00 126.87,55.73 127.25,55.42 127.63,54.93 128.01,54.42 128.38,54.22 128.76,52.79 129.14,52.44 129.52,50.02 129.90,50.02 130.28,47.60 130.66,48.42 131.04,46.87 131.42,47.93 131.80,46.77 132.18,45.02 132.56,45.17 132.94,44.86 133.31,45.31 133.69,44.95 134.07,43.48 134.45,43.48 134.83,41.78 135.21,43.89 135.59,42.25 135.97,42.55 136.35,42.39 136.73,39.78 137.11,42.00 137.49,40.82 137.86,39.19 138.24,40.56 138.62,39.28 139.00,40.69 139.38,39.49 139.76,39.79 140.14,38.09 140.52,38.08 140.90,37.94 141.28,36.52 141.66,35.68 142.04,36.47 142.42,36.23 142.79,35.70 143.17,35.76 143.55,34.74 143.93,33.67 144.31,34.71 144.69,34.26 145.07,33.85 145.45,34.76 145.83,33.42 146.21,32.62 146.59,33.36 146.97,32.32 147.35,31.00 147.72,31.77 148.10,31.01 148.48,31.31 148.86,30.48 149.24,30.13 149.62,28.99 150.00,28.36 150.38,27.80 150.76,27.13 151.14,26.58 151.52,26.36 151.90,25.64 152.28,24.59 152.65,24.61 153.03,23.92 153.41,24.57 153.79,25.39 154.17,24.40 154.55,25.01 154.93,25.62 155.31,25.32 155.69,26.24 156.07,26.95 156.45,27.43 156.83,26.73 157.21,27.43 157.58,27.89 157.96,27.01 158.34,26.79 158.72,26.50 159.10,26.22 159.48,26.00 159.86,25.85 160.24,25.66 160.62,25.17 161.00,24.71 161.38,24.84 161.76,24.00 162.14,23.47 162.51,23.34 162.89,24.00 163.27,24.88 163.65,22.44 164.03,22.49 164.41,26.07 164.79,23.73 165.17,23.73 165.55,24.71 165.93,25.77 166.31,24.32 166.69,24.29 167.06,25.60 167.44,25.60 167.82,24.72 168.20,25.76 168.58,24.75 168.96,24.36 169.34,23.59 169.72,25.31 170.10,25.99 170.48,26.41 170.86,26.49 171.24,26.75 171.62,27.17 171.99,27.17 172.37,25.64 172.75,26.33 173.13,27.10 173.51,26.27 173.89,27.87 174.27,29.22 174.65,30.01 175.03,30.77 175.41,31.50 175.79,32.10 176.17,32.23 176.55,33.68 176.92,33.80 177.30,34.01 177.68,34.47 178.06,34.99 178.44,35.41 178.82,35.73 179.20,36.04 179.58,35.19 179.96,35.29 180.34,35.26 180.72,35.81 181.10,35.12 181.48,36.09 181.85,35.01 182.23,35.58 182.61,34.21 182.99,34.52 183.37,33.38 183.75,34.08 184.13,34.08 184.51,33.51 184.89,32.65 185.27,31.84 185.65,31.84 186.03,31.13 186.41,30.71 186.78,32.12 187.16,32.22 187.54,31.32 187.92,30.43 188.30,29.74 188.68,31.13 189.06,30.79 189.44,28.67 189.82,28.56 190.20,29.04 190.58,30.69 190.96,28.98 191.34,29.76 191.71,29.76 192.09,26.87 192.47,26.46 192.85,26.14 193.23,25.37 193.61,25.89 193.99,24.94 194.37,24.03 194.75,25.96 195.13,23.99 195.51,24.55 195.89,23.18 196.26,24.77 196.64,24.94 197.02,24.84 197.40,24.67 197.78,24.67 198.16,24.07 198.54,22.55 198.92,21.97 199.30,20.26 199.68,21.74 200.06,21.67 200.44,21.90 200.82,22.30 201.19,21.07 201.57,19.18 201.95,21.43 202.33,18.53 202.71,18.80 203.09,20.41 203.47,18.17 203.85,18.87 204.23,18.92 204.61,18.92 204.99,17.91 205.37,16.63 205.75,15.49 206.12,15.07 206.50,15.42 206.88,16.15 207.26,13.49 207.64,12.59 208.02,14.18 208.40,13.53 208.78,12.77 209.16,14.03 209.54,12.84 209.92,13.12 210.30,10.94 210.68,10.83 211.05,54.78 211.43,54.78 211.81,54.78 212.19,55.75 212.57,55.75 212.95,55.07 213.33,55.07 213.71,55.07 214.09,55.27 214.47,55.27 214.85,50.57 215.23,50.57 215.61,50.43 215.98,50.43 216.36,50.43 216.74,52.35 217.12,45.97 217.50,45.97 217.88,45.97 218.26,42.80 218.64,42.80 219.02,42.80 219.40,42.80 219.78,40.54 220.16,40.54 220.54,40.54 220.91,40.54 221.29,36.94 221.67,39.94 222.05,39.94 222.43,39.94 222.81,35.70 223.19,37.48 223.57,37.48 223.95,37.48 224.33,40.60 224.71,37.67 225.09,37.67 225.46,38.36 225.84,38.36 226.22,38.36 226.60,36.47 226.98,37.01 227.36,37.01 227.74,37.01 228.12,34.03 228.50,34.03 228.88,34.03 229.26,33.89 229.64,33.89 230.02,30.61 230.39,32.10 230.77,32.10 231.15,32.10 231.53,28.18 231.91,29.60 232.29,29.60 232.67,29.60 233.05,31.36 233.43,26.16 233.81,26.16 234.19,28.44 234.57,28.44 234.95,28.44 235.32,28.11 235.70,28.11 236.08,28.11 236.46,26.38 236.84,26.38 237.22,26.38 237.60,25.15 237.98,25.15 238.36,22.77 238.74,22.77 239.12,22.77 239.50,22.85 239.88,22.85 240.25,22.85 240.63,24.43 241.01,24.43 241.39,26.62 241.77,26.62 242.15,21.90 242.53,24.62 242.91,24.62 243.29,27.75 243.67,27.75 244.05,27.75 244.43,28.43 244.81,28.43 245.18,28.43 245.56,27.25 245.94,27.25 246.32,27.25 246.70,26.14 247.08,24.41 247.46,24.41 247.84,24.02 248.22,24.02 248.60,24.02 248.98,18.50 249.36,18.50 249.74,25.56 250.11,24.69 250.49,24.69 250.87,24.69 251.25,19.88 251.63,19.88 252.01,17.53 252.39,26.24 252.77,26.24 253.15,26.24 253.53,26.24 253.91,24.83 254.29,24.83 254.66,24.83 255.04,20.82 255.42,25.50 255.80,25.50 256.18,25.50 256.56,26.94 256.94,26.94 257.32,26.94 257.70,26.94 258.08,28.38 258.46,28.38 258.84,28.38 259.22,31.13 259.59,31.13 259.97,31.13 260.35,34.43 260.73,34.43 261.11,34.43 261.49,35.36 261.87,35.36 262.25,35.36 262.63,35.68 263.01,35.68 263.39,35.68 263.77,36.90 264.15,36.90 264.52,36.90 264.90,36.90 265.28,35.36 265.66,35.36 266.04,35.36 266.42,33.12 266.80,33.12 267.18,33.12 267.56,33.12 267.94,30.25 268.32,33.49 268.70,33.49 269.08,28.88 269.45,28.88 269.83,28.88 270.21,32.66 270.59,26.60 270.97,26.60 271.35,26.60 271.73,30.84 272.11,30.84 272.49,26.61 272.87,26.61 273.25,26.61 273.63,24.79 274.01,30.87 274.38,30.87 274.76,24.81 275.14,24.81 275.52,24.81 275.90,26.20 276.28,26.20 276.66,26.20 277.04,26.20 277.42,25.74 277.80,25.74 278.18,25.74 278.56,20.68 278.94,20.68 279.31,20.68 279.69,20.32 280.07,20.32 280.45,20.32 280.83,20.32 281.21,16.90 281.59,25.05 281.97,25.05 282.35,23.48 282.73,23.48 283.11,23.48 283.49,23.48 283.86,18.40 284.24,18.40 284.62,18.40 285.00,17.07 285.38,17.07 285.76,17.07 286.14,21.99 286.52,21.99 286.90,21.99 287.28,21.99 287.66,15.51 288.04,21.16 288.42,21.16 288.79,10.43 289.17,10.61 289.55,10.61 289.93,10.61 290.31,10.61 290.69,8.86 291.07,8.86 291.45,8.86 291.83,9.25 292.21,9.25 292.59,9.25 292.97,7.17 293.35,7.17 293.72,7.17 294.10,4.00 294.48,12.19 294.86,12.19 295.24,5.38 295.62,5.38 296.00,10.28" />
</svg>