<svg width="300" height="60" xmlns="http://www.w3.org/2000/svg">
  <polyline fill="rgba(255,200,0,0.3)" stroke="#ffbb00" stroke-width="2" points="4.00,47.09 8.95,46.48 13.90,30.72 18.85,17.61 23.80,18.78 28.75,16.02 33.69,10.87 38.64,5.97 43.59,5.09 48.54,4.56 53.49,5.28 58.44,10.45 63.39,12.05 68.34,18.68 73.29,23.39 78.24,47.58 83.19,50.92 88.14,22.50 93.08,14.14 98.03,16.38 102.98,17.13 107.93,10.99 112.88,7.00 117.83,4.77 122.78,4.89 127.73,6.19 132.68,9.66 137.63,12.45 142.58,18.77 147.53,24.69 152.47,45.58 157.42,44.46 162.37,32.91 167.32,23.61 172.27,21.38 177.22,19.34 182.17,10.04 187.12,5.95 192.07,5.02 197.02,4.37 201.97,4.00 206.92,6.79 211.86,14.60 216.81,20.36 221.76,25.01 226.71,32.57 231.66,56.00 236.61,56.00 241.56,56.00 246.51,44.10 251.46,44.10 256.41,18.25 261.36,18.25 266.31,18.25 271.25,7.84 276.20,7.84 281.15,7.84 286.10,19.00 291.05,19.00 296.00,47.45" />
</svg>