<svg width="300" height="60" xmlns="http://www.w3.org/2000/svg">
  <polyline fill="rgba(255,200,0,0.3)" stroke="#ffbb00" stroke-width="2" points="4.00,30.10 4.68,29.82 5.35,29.47 6.03,29.17 6.71,28.83 7.39,28.43 8.06,27.80 8.74,27.00 9.42,26.28 10.10,25.76 10.77,25.36 11.45,24.93 12.13,24.29 12.81,23.76 13.48,23.76 14.16,24.52 14.84,25.01 15.52,25.14 16.19,25.03 16.87,24.93 17.55,24.69 18.23,24.39 18.90,23.61 19.58,23.65 20.26,23.26 20.94,22.43 21.61,21.42 22.29,21.87 22.97,21.98 23.65,21.57 24.32,21.17 25.00,20.74 25.68,20.30 26.36,19.67 27.03,19.16 27.71,17.75 28.39,17.85 29.07,16.83 29.74,15.81 30.42,15.37 31.10,14.91 31.78,14.30 32.45,13.81 33.13,13.72 33.81,13.46 34.49,13.19 35.16,12.81 35.84,12.29 36.52,12.13 37.20,11.87 37.87,11.30 38.55,10.07 39.23,8.71 39.91,9.43 40.58,11.93 41.26,13.18 41.94,14.19 42.62,15.89 43.29,17.36 43.97,18.82 44.65,19.97 45.33,21.73 46.00,22.28 46.68,24.11 47.36,25.72 48.04,26.17 48.71,27.28 49.39,28.21 50.07,29.60 50.75,30.78 51.42,31.62 52.10,32.85 52.78,32.63 53.46,35.30 54.13,36.37 54.81,37.06 55.49,37.96 56.17,39.81 56.84,40.96 57.52,42.77 58.20,44.96 58.88,46.00 59.55,47.93 60.23,49.62 60.91,50.52 61.59,51.75 62.26,52.79 62.94,54.25 63.62,55.34 64.30,55.26 64.97,25.07 65.65,24.93 66.33,24.75 67.01,24.42 67.68,24.02 68.36,23.65 69.04,23.19 69.72,22.57 70.39,22.04 71.07,21.92 71.75,21.96 72.43,21.62 73.10,21.26 73.78,20.76 74.46,20.34 75.14,19.76 75.81,19.27 76.49,18.42 77.17,17.91 77.85,17.13 78.52,16.09 79.20,15.60 79.88,15.08 80.56,14.45 81.23,13.97 81.91,13.81 82.59,13.48 83.27,13.19 83.94,12.83 84.62,12.50 85.30,12.20 85.98,11.86 86.65,11.27 87.33,10.01 88.01,8.66 88.69,9.62 89.36,11.89 90.04,13.22 90.72,14.39 91.40,15.69 92.07,17.31 92.75,18.79 93.43,19.95 94.11,21.67 94.78,22.24 95.46,24.07 96.14,25.64 96.82,26.16 97.49,27.27 98.17,28.19 98.85,29.55 99.53,30.75 100.20,31.60 100.88,32.85 101.56,33.77 102.24,35.20 102.91,36.35 103.59,37.16 104.27,38.36 104.95,39.85 105.62,41.06 106.30,42.64 106.98,44.96 107.66,45.99 108.33,47.95 109.01,49.52 109.69,50.51 110.37,51.71 111.04,52.59 111.72,54.30 112.40,55.31 113.08,56.00 113.75,29.97 114.43,29.98 115.11,29.52 115.79,29.37 116.46,29.12 117.14,28.60 117.82,27.89 118.50,27.20 119.17,26.31 119.85,25.82 120.53,25.59 121.21,24.65 121.88,24.49 122.56,23.15 123.24,22.58 123.92,24.33 124.59,24.93 125.27,25.27 125.95,24.52 126.63,24.03 127.30,24.20 127.98,23.91 128.66,23.43 129.34,23.00 130.01,22.20 130.69,21.14 131.37,20.74 132.05,20.80 132.72,21.43 133.40,21.60 134.08,20.63 134.76,20.60 135.43,19.86 136.11,19.66 136.79,19.22 137.47,18.30 138.14,17.58 138.82,16.98 139.50,15.63 140.18,15.57 140.85,15.16 141.53,14.47 142.21,13.76 142.89,13.37 143.56,12.02 144.24,12.14 144.92,12.60 145.60,12.46 146.27,12.11 146.95,11.44 147.63,10.20 148.31,8.51 148.98,7.81 149.66,8.15 150.34,10.55 151.02,12.55 151.69,13.58 152.37,15.19 153.05,16.52 153.73,17.95 154.40,18.95 155.08,20.55 155.76,21.61 156.44,22.70 157.11,24.79 157.79,25.40 158.47,26.40 159.15,26.17 159.82,28.08 160.50,28.92 161.18,30.71 161.86,30.88 162.53,31.65 163.21,33.36 163.89,35.74 164.57,36.74 165.24,38.16 165.92,39.87 166.60,41.26 167.28,42.75 167.95,43.95 168.63,45.15 169.31,46.73 169.99,47.50 170.66,49.97 171.34,50.63 172.02,52.28 172.70,53.84 173.37,54.79 174.05,55.63 174.73,30.16 175.41,29.35 176.08,29.21 176.76,28.78 177.44,28.78 178.12,27.00 178.79,24.57 179.47,26.66 180.15,25.00 180.83,24.03 181.50,26.32 182.18,23.51 182.86,23.45 183.54,21.13 184.21,23.14 184.89,23.34 185.57,25.31 186.25,24.68 186.92,23.14 187.60,21.35 188.28,24.13 188.96,23.30 189.63,21.63 190.31,23.27 190.99,22.24 191.67,20.95 192.34,19.69 193.02,21.69 193.70,21.16 194.38,20.73 195.05,20.42 195.73,20.02 196.41,19.42 197.09,19.01 197.76,18.33 198.44,17.50 199.12,16.44 199.80,15.76 200.47,15.27 201.15,14.41 201.83,13.92 202.51,13.72 203.18,13.35 203.86,13.35 204.54,13.18 205.22,13.14 205.89,13.05 206.57,12.91 207.25,11.39 207.93,11.16 208.60,10.76 209.28,8.33 209.96,8.30 210.64,8.98 211.31,10.58 211.99,11.01 212.67,12.53 213.35,14.42 214.02,16.29 214.70,17.35 215.38,19.26 216.06,19.41 216.73,21.07 217.41,22.87 218.09,24.50 218.77,25.82 219.44,25.82 220.12,27.09 220.80,28.66 221.48,28.26 222.15,30.15 222.83,31.67 223.51,32.47 224.19,34.39 224.86,35.23 225.54,37.09 226.22,38.41 226.90,39.72 227.57,41.10 228.25,42.70 228.93,42.70 229.61,44.13 230.28,45.65 230.96,47.10 231.64,48.42 232.32,49.74 232.99,51.11 233.67,52.63 234.35,52.97 235.03,55.47 235.70,28.94 236.38,28.94 237.06,28.94 237.74,24.24 238.41,24.24 239.09,24.24 239.77,24.24 240.45,28.86 241.12,20.99 241.80,20.99 242.48,27.52 243.16,27.52 243.83,23.39 244.51,23.39 245.19,23.39 245.87,21.48 246.54,27.55 247.22,27.55 247.90,24.51 248.58,24.51 249.25,24.51 249.93,24.51 250.61,21.48 251.29,21.48 251.96,21.48 252.64,18.50 253.32,18.50 254.00,25.74 254.67,23.62 255.35,23.62 256.03,23.62 256.71,21.16 257.38,21.16 258.06,21.16 258.74,19.13 259.42,19.13 260.09,14.40 260.77,13.06 261.45,18.16 262.13,13.06 262.80,12.36 263.48,12.36 264.16,12.36 264.84,12.36 265.51,12.30 266.19,12.30 266.87,12.30 267.55,11.07 268.22,11.07 268.90,11.07 269.58,7.98 270.26,7.98 270.93,7.98 271.61,4.00 272.29,9.38 272.97,9.38 273.64,9.38 274.32,5.92 275.00,14.54 275.68,14.54 276.35,14.54 277.03,10.39 277.71,18.88 278.39,18.88 279.06,18.88 279.74,23.29 280.42,23.29 281.10,23.29 281.77,23.29 282.45,25.84 283.13,29.54 283.81,29.54 284.48,29.54 285.16,30.26 285.84,30.26 286.52,36.33 287.19,40.54 287.87,40.54 288.55,40.54 289.23,44.95 289.90,44.95 290.58,44.95 291.26,44.95 291.94,48.78 292.61,48.78 293.29,48.78 293.97,52.65 294.65,52.65 295.32,52.39 296.00,55.94" />
</svg>