<svg width="300" height="60" xmlns="http://www.w3.org/2000/svg">
  <polyline fill="rgba(255,200,0,0.3)" stroke="#ffbb00" stroke-width="2" points="4.00,45.10 4.12,45.12 4.24,45.15 4.37,45.23 4.49,45.36 4.61,45.52 4.73,45.65 4.85,45.80 4.98,45.96 5.10,46.11 5.22,46.28 5.34,46.45 5.46,46.61 5.58,46.76 5.71,46.90 5.83,47.00 5.95,47.03 6.07,47.03 6.19,47.02 6.32,46.93 6.44,46.82 6.56,46.65 6.68,46.47 6.80,46.26 6.93,46.12 7.05,46.08 7.17,46.09 7.29,46.19 7.41,46.36 7.54,46.57 7.66,46.75 7.78,46.92 7.90,47.08 8.02,47.17 8.15,47.30 8.27,47.38 8.39,47.41 8.51,47.37 8.63,47.35 8.75,47.32 8.88,47.25 9.00,47.20 9.12,47.16 9.24,47.13 9.36,47.11 9.49,47.11 9.61,47.13 9.73,47.16 9.85,47.16 9.97,47.15 10.10,47.12 10.22,47.05 10.34,46.98 10.46,46.88 10.58,46.73 10.71,46.57 10.83,46.35 10.95,46.08 11.07,45.80 11.19,45.56 11.32,45.35 11.44,45.15 11.56,45.01 11.68,44.85 11.80,44.70 11.92,44.54 12.05,44.37 12.17,44.17 12.29,43.98 12.41,43.86 12.53,43.78 12.66,43.68 12.78,43.62 12.90,43.59 13.02,43.60 13.14,43.63 13.27,43.69 13.39,43.80 13.51,43.98 13.63,44.16 13.75,44.29 13.88,44.43 14.00,44.54 14.12,44.69 14.24,44.87 14.36,45.09 14.49,45.25 14.61,45.42 14.73,45.58 14.85,45.81 14.97,46.02 15.09,46.25 15.22,46.44 15.34,46.57 15.46,46.68 15.58,46.78 15.70,46.88 15.83,46.94 15.95,46.95 16.07,46.92 16.19,46.88 16.31,46.83 16.44,46.79 16.56,46.77 16.68,46.75 16.80,46.70 16.92,46.71 17.05,46.83 17.17,47.07 17.29,47.24 17.41,47.34 17.53,47.42 17.66,47.48 17.78,47.52 17.90,47.57 18.02,47.66 18.14,47.75 18.26,47.86 18.39,47.98 18.51,48.09 18.63,48.24 18.75,48.40 18.87,48.60 19.00,48.87 19.12,49.13 19.24,49.33 19.36,49.48 19.48,49.65 19.61,49.87 19.73,50.07 19.85,50.27 19.97,50.47 20.09,50.67 20.22,50.85 20.34,51.05 20.46,51.21 20.58,51.38 20.70,51.55 20.83,51.70 20.95,51.93 21.07,52.15 21.19,52.31 21.31,52.41 21.43,52.49 21.56,52.56 21.68,52.58 21.80,52.57 21.92,52.52 22.04,52.42 22.17,52.31 22.29,52.16 22.41,51.97 22.53,51.80 22.65,51.62 22.78,51.48 22.90,51.35 23.02,51.25 23.14,51.13 23.26,51.04 23.39,50.94 23.51,50.90 23.63,50.93 23.75,50.96 23.87,50.92 23.99,50.84 24.12,50.76 24.24,50.72 24.36,50.73 24.48,50.81 24.60,50.90 24.73,50.97 24.85,51.04 24.97,51.11 25.09,51.22 25.21,51.35 25.34,51.47 25.46,51.57 25.58,51.69 25.70,51.88 25.82,52.03 25.95,52.17 26.07,52.31 26.19,52.40 26.31,52.47 26.43,52.52 26.56,52.57 26.68,52.64 26.80,52.73 26.92,52.90 27.04,53.03 27.16,53.18 27.29,53.36 27.41,53.57 27.53,53.74 27.65,53.91 27.77,54.05 27.90,54.24 28.02,54.40 28.14,54.55 28.26,54.69 28.38,54.82 28.51,54.94 28.63,55.07 28.75,55.24 28.87,55.39 28.99,55.53 29.12,55.59 29.24,55.64 29.36,55.63 29.48,55.55 29.60,55.40 29.73,55.20 29.85,54.98 29.97,54.74 30.09,54.51 30.21,54.26 30.33,54.02 30.46,53.77 30.58,53.46 30.70,53.11 30.82,52.77 30.94,52.43 31.07,52.09 31.19,51.69 31.31,51.39 31.43,51.11 31.55,50.88 31.68,50.76 31.80,50.62 31.92,50.53 32.04,50.46 32.16,50.45 32.29,50.48 32.41,50.53 32.53,50.56 32.65,50.61 32.77,50.71 32.90,50.77 33.02,50.75 33.14,50.78 33.26,50.79 33.38,50.76 33.50,50.76 33.63,50.78 33.75,50.81 33.87,50.83 33.99,50.88 34.11,50.91 34.24,50.91 34.36,50.85 34.48,50.75 34.60,50.61 34.72,50.46 34.85,50.29 34.97,50.11 35.09,49.94 35.21,49.73 35.33,49.53 35.46,49.34 35.58,49.18 35.70,49.00 35.82,48.82 35.94,48.62 36.07,48.40 36.19,48.18 36.31,48.02 36.43,47.87 36.55,47.79 36.67,47.76 36.80,47.77 36.92,47.83 37.04,47.89 37.16,47.99 37.28,48.07 37.41,48.18 37.53,48.31 37.65,48.43 37.77,48.57 37.89,48.69 38.02,48.79 38.14,48.90 38.26,49.00 38.38,49.06 38.50,49.08 38.63,49.10 38.75,49.10 38.87,49.06 38.99,48.97 39.11,48.84 39.24,48.67 39.36,48.47 39.48,48.31 39.60,48.14 39.72,47.96 39.84,47.79 39.97,47.62 40.09,47.46 40.21,47.33 40.33,47.20 40.45,47.12 40.58,47.09 40.70,47.05 40.82,46.97 40.94,46.87 41.06,46.77 41.19,46.62 41.31,46.44 41.43,46.25 41.55,46.07 41.67,45.90 41.80,45.75 41.92,45.65 42.04,45.53 42.16,45.41 42.28,45.25 42.41,45.07 42.53,44.89 42.65,44.67 42.77,44.50 42.89,44.36 43.01,44.18 43.14,44.09 43.26,44.04 43.38,44.03 43.50,44.04 43.62,44.07 43.75,44.12 43.87,44.16 43.99,44.25 44.11,44.29 44.23,44.28 44.36,44.24 44.48,44.20 44.60,44.14 44.72,44.02 44.84,43.89 44.97,43.74 45.09,43.61 45.21,43.47 45.33,43.35 45.45,43.23 45.57,43.11 45.70,42.98 45.82,42.83 45.94,42.67 46.06,42.51 46.18,42.33 46.31,42.17 46.43,42.02 46.55,41.88 46.67,41.78 46.79,41.69 46.92,41.66 47.04,41.56 47.16,41.47 47.28,41.42 47.40,41.36 47.53,41.33 47.65,41.32 47.77,41.34 47.89,41.33 48.01,41.33 48.14,41.28 48.26,41.11 48.38,40.95 48.50,40.81 48.62,40.62 48.74,40.44 48.87,40.21 48.99,40.02 49.11,39.81 49.23,39.55 49.35,39.31 49.48,39.10 49.60,38.91 49.72,38.67 49.84,38.43 49.96,38.18 50.09,37.96 50.21,37.75 50.33,37.51 50.45,37.25 50.57,36.94 50.70,36.71 50.82,36.49 50.94,36.25 51.06,36.07 51.18,35.89 51.31,35.71 51.43,35.52 51.55,35.29 51.67,35.08 51.79,34.88 51.91,34.70 52.04,34.53 52.16,34.38 52.28,34.21 52.40,34.06 52.52,33.88 52.65,33.70 52.77,33.49 52.89,33.29 53.01,33.12 53.13,32.98 53.26,32.87 53.38,32.75 53.50,32.60 53.62,32.41 53.74,32.24 53.87,32.08 53.99,31.95 54.11,31.83 54.23,31.74 54.35,31.66 54.48,31.60 54.60,31.57 54.72,31.57 54.84,31.55 54.96,31.51 55.08,31.47 55.21,31.42 55.33,31.34 55.45,31.27 55.57,31.25 55.69,31.30 55.82,31.42 55.94,31.54 56.06,31.67 56.18,31.76 56.30,31.83 56.43,31.89 56.55,31.95 56.67,32.10 56.79,32.29 56.91,32.49 57.04,32.65 57.16,32.81 57.28,32.97 57.40,33.11 57.52,33.24 57.65,33.36 57.77,33.44 57.89,33.54 58.01,33.64 58.13,33.70 58.25,33.73 58.38,33.80 58.50,33.92 58.62,34.05 58.74,34.14 58.86,34.19 58.99,34.26 59.11,34.33 59.23,34.39 59.35,34.42 59.47,34.47 59.60,34.58 59.72,34.66 59.84,34.79 59.96,34.94 60.08,35.04 60.21,35.15 60.33,35.24 60.45,35.31 60.57,35.40 60.69,35.55 60.82,35.65 60.94,35.63 61.06,35.48 61.18,35.25 61.30,34.97 61.42,34.65 61.55,34.32 61.67,34.05 61.79,33.91 61.91,33.85 62.03,33.70 62.16,33.33 62.28,32.89 62.40,32.46 62.52,32.00 62.64,31.50 62.77,31.01 62.89,30.47 63.01,29.95 63.13,29.50 63.25,29.13 63.38,28.78 63.50,28.40 63.62,27.97 63.74,27.55 63.86,27.16 63.98,26.88 64.11,26.66 64.23,26.48 64.35,26.26 64.47,25.81 64.59,25.38 64.72,25.14 64.84,24.90 64.96,24.65 65.08,24.35 65.20,24.05 65.33,23.72 65.45,23.40 65.57,23.19 65.69,22.96 65.81,22.64 65.94,22.37 66.06,22.14 66.18,21.91 66.30,21.59 66.42,21.33 66.55,21.20 66.67,21.14 66.79,21.04 66.91,20.94 67.03,21.04 67.15,21.14 67.28,21.18 67.40,21.35 67.52,20.93 67.64,20.53 67.76,20.34 67.89,20.16 68.01,19.85 68.13,19.30 68.25,18.76 68.37,18.22 68.50,17.66 68.62,17.33 68.74,17.06 68.86,16.61 68.98,16.17 69.11,15.85 69.23,15.68 69.35,15.36 69.47,15.15 69.59,15.13 69.72,15.22 69.84,15.11 69.96,15.01 70.08,14.70 70.20,14.45 70.32,14.43 70.45,14.38 70.57,14.29 70.69,14.22 70.81,14.15 70.93,14.31 71.06,14.48 71.18,14.41 71.30,14.46 71.42,14.56 71.54,14.65 71.67,14.54 71.79,14.51 71.91,14.39 72.03,14.24 72.15,13.94 72.28,13.66 72.40,13.16 72.52,12.84 72.64,12.44 72.76,12.20 72.89,12.11 73.01,12.18 73.13,11.70 73.25,11.38 73.37,11.11 73.49,11.12 73.62,11.12 73.74,10.94 73.86,10.58 73.98,10.15 74.10,9.78 74.23,9.64 74.35,9.44 74.47,9.23 74.59,8.89 74.71,8.85 74.84,8.68 74.96,8.55 75.08,8.23 75.20,8.13 75.32,7.98 75.45,7.48 75.57,7.10 75.69,6.80 75.81,6.38 75.93,5.93 76.06,5.41 76.18,5.00 76.30,4.47 76.42,4.04 76.54,4.79 76.66,45.12 76.79,45.13 76.91,45.24 77.03,45.28 77.15,45.37 77.27,45.46 77.40,45.65 77.52,45.76 77.64,45.97 77.76,46.13 77.88,46.24 78.01,46.33 78.13,46.61 78.25,46.83 78.37,46.92 78.49,47.48 78.62,47.14 78.74,47.12 78.86,47.06 78.98,47.01 79.10,46.87 79.23,46.68 79.35,46.66 79.47,46.38 79.59,46.22 79.71,46.18 79.83,46.17 79.96,46.21 80.08,46.42 80.20,46.72 80.32,46.86 80.44,47.03 80.57,47.12 80.69,47.23 80.81,47.38 80.93,47.56 81.05,47.46 81.18,47.50 81.30,47.39 81.42,47.38 81.54,47.27 81.66,47.27 81.79,47.22 81.91,47.32 82.03,47.17 82.15,47.18 82.27,47.19 82.39,47.22 82.52,47.25 82.64,47.20 82.76,47.24 82.88,46.99 83.00,47.06 83.13,46.87 83.25,46.86 83.37,46.61 83.49,46.35 83.61,46.10 83.74,45.83 83.86,45.56 83.98,45.36 84.10,45.12 84.22,45.01 84.35,44.88 84.47,44.77 84.59,44.59 84.71,44.36 84.83,44.19 84.96,44.03 85.08,43.88 85.20,43.79 85.32,43.75 85.44,43.68 85.56,43.67 85.69,43.71 85.81,43.70 85.93,43.74 86.05,43.84 86.17,44.11 86.30,44.25 86.42,44.47 86.54,44.65 86.66,44.85 86.78,44.86 86.91,44.94 87.03,45.30 87.15,45.54 87.27,45.63 87.39,45.68 87.52,45.89 87.64,46.10 87.76,46.38 87.88,46.56 88.00,46.70 88.13,47.11 88.25,46.97 88.37,47.39 88.49,47.16 88.61,47.16 88.73,47.16 88.86,47.11 88.98,46.97 89.10,46.91 89.22,46.85 89.34,46.84 89.47,46.75 89.59,46.74 89.71,46.87 89.83,47.21 89.95,47.38 90.08,47.42 90.20,47.39 90.32,47.33 90.44,47.85 90.56,47.65 90.69,47.55 90.81,47.79 90.93,48.02 91.05,48.07 91.17,48.20 91.30,48.44 91.42,48.49 91.54,48.83 91.66,48.94 91.78,49.20 91.90,49.68 92.03,49.99 92.15,49.73 92.27,49.98 92.39,50.21 92.51,50.37 92.64,50.58 92.76,50.91 92.88,51.05 93.00,51.14 93.12,51.29 93.25,51.82 93.37,51.65 93.49,51.83 93.61,52.08 93.73,52.29 93.86,52.36 93.98,53.11 94.10,53.23 94.22,53.12 94.34,51.05 94.47,51.14 94.59,51.29 94.71,51.82 94.83,51.65 94.95,51.83 95.07,52.08 95.20,52.29 95.32,52.36 95.44,53.11 95.56,53.23 95.68,53.12 95.81,53.15 95.93,52.67 96.05,52.64 96.17,52.62 96.29,52.64 96.42,52.23 96.54,51.99 96.66,51.77 96.78,51.65 96.90,51.54 97.03,51.42 97.15,51.28 97.27,51.18 97.39,51.10 97.51,50.98 97.64,50.98 97.76,51.07 97.88,51.10 98.00,51.32 98.12,50.92 98.24,50.82 98.37,50.75 98.49,50.76 98.61,50.89 98.73,51.11 98.85,51.14 98.98,51.20 99.10,51.30 99.22,51.25 99.34,51.36 99.46,51.50 99.59,51.62 99.71,51.72 99.83,51.88 99.95,52.09 100.07,52.22 100.20,52.36 100.32,52.46 100.44,52.55 100.56,52.57 100.68,52.62 100.81,52.68 100.93,52.77 101.05,52.91 101.17,53.15 101.29,53.24 101.41,53.45 101.54,53.88 101.66,53.83 101.78,53.92 101.90,54.07 102.02,54.27 102.15,54.42 102.27,54.74 102.39,54.76 102.51,54.90 102.63,54.98 102.76,55.13 102.88,55.27 103.00,55.47 103.12,55.60 103.24,55.68 103.37,55.72 103.49,55.71 103.61,55.63 103.73,55.44 103.85,55.26 103.97,55.17 104.10,54.86 104.22,54.61 104.34,54.49 104.46,54.12 104.58,54.00 104.71,53.48 104.83,53.19 104.95,52.76 105.07,52.94 105.19,52.14 105.32,51.76 105.44,51.49 105.56,51.20 105.68,50.95 105.80,50.84 105.93,50.76 106.05,50.61 106.17,50.55 106.29,50.53 106.41,50.54 106.54,50.59 106.66,50.61 106.78,50.66 106.90,50.72 107.02,50.85 107.14,51.00 107.27,51.13 107.39,50.86 107.51,50.83 107.63,50.82 107.75,50.86 107.88,50.88 108.00,50.90 108.12,50.94 108.24,51.01 108.36,50.92 108.49,50.96 108.61,50.83 108.73,50.67 108.85,50.55 108.97,50.44 109.10,50.30 109.22,50.04 109.34,49.94 109.46,49.70 109.58,49.42 109.71,49.28 109.83,49.18 109.95,48.85 110.07,48.64 110.19,48.42 110.31,48.17 110.44,48.09 110.56,47.92 110.68,47.84 110.80,47.80 110.92,47.80 111.05,47.88 111.17,47.96 111.29,48.03 111.41,48.00 111.53,48.22 111.66,48.32 111.78,48.51 111.90,48.58 112.02,48.76 112.14,48.83 112.27,48.92 112.39,49.07 112.51,49.22 112.63,49.22 112.75,49.19 112.88,49.15 113.00,49.12 113.12,49.09 113.24,48.93 113.36,48.77 113.48,48.57 113.61,48.28 113.73,48.16 113.85,48.04 113.97,47.82 114.09,47.69 114.22,47.52 114.34,47.39 114.46,47.29 114.58,47.19 114.70,47.16 114.83,47.06 114.95,47.05 115.07,46.93 115.19,46.89 115.31,46.70 115.44,46.47 115.56,46.34 115.68,46.16 115.80,45.97 115.92,45.81 116.05,45.72 116.17,45.49 116.29,45.43 116.41,45.26 116.53,45.29 116.65,44.93 116.78,44.79 116.90,44.58 117.02,44.44 117.14,44.25 117.26,44.10 117.39,44.14 117.51,44.11 117.63,44.04 117.75,44.05 117.87,44.09 118.00,44.19 118.12,44.48 118.24,44.34 118.36,44.32 118.48,44.28 118.61,44.29 118.73,44.22 118.85,44.04 118.97,43.96 119.09,43.77 119.22,43.64 119.34,43.57 119.46,43.43 119.58,43.34 119.70,43.19 119.82,43.11 119.95,42.93 120.07,42.76 120.19,42.73 120.31,42.43 120.43,42.27 120.56,42.12 120.68,41.91 120.80,41.85 120.92,41.75 121.04,41.78 121.17,41.65 121.29,41.54 121.41,41.49 121.53,41.44 121.65,41.38 121.78,41.41 121.90,41.43 122.02,41.38 122.14,41.43 122.26,41.31 122.38,41.08 122.51,40.93 122.63,40.77 122.75,40.67 122.87,40.28 122.99,40.25 123.12,40.09 123.24,39.80 123.36,39.58 123.48,39.35 123.60,39.18 123.73,39.01 123.85,38.71 123.97,38.55 124.09,38.43 124.21,38.06 124.34,37.85 124.46,37.59 124.58,37.20 124.70,36.96 124.82,36.76 124.95,36.47 125.07,36.31 125.19,36.13 125.31,35.93 125.43,35.84 125.55,35.59 125.68,35.78 125.80,35.24 125.92,34.99 126.04,34.87 126.16,34.66 126.29,34.45 126.41,34.28 126.53,34.10 126.65,33.97 126.77,33.69 126.90,33.56 127.02,33.53 127.14,33.18 127.26,33.05 127.38,32.95 127.51,32.94 127.63,32.76 127.75,32.63 127.87,32.53 127.99,32.21 128.12,32.07 128.24,31.98 128.36,31.85 128.48,31.77 128.60,31.66 128.72,31.75 128.85,31.78 128.97,31.72 129.09,32.15 129.21,32.15 129.33,31.91 129.46,31.64 129.58,31.41 129.70,31.37 129.82,31.35 129.94,31.43 130.07,31.62 130.19,31.75 130.31,31.83 130.43,31.81 130.55,31.97 130.68,31.94 130.80,31.99 130.92,32.03 131.04,32.23 131.16,32.48 131.29,32.80 131.41,32.84 131.53,33.19 131.65,33.30 131.77,33.41 131.89,33.51 132.02,33.65 132.14,33.76 132.26,33.83 132.38,33.83 132.50,34.03 132.63,34.24 132.75,34.14 132.87,34.26 132.99,34.49 133.11,34.34 133.24,34.32 133.36,34.47 133.48,34.52 133.60,34.56 133.72,34.60 133.85,34.74 133.97,34.95 134.09,34.95 134.21,35.11 134.33,35.21 134.46,35.30 134.58,35.35 134.70,35.43 134.82,35.70 134.94,35.96 135.06,36.72 135.19,35.57 135.31,35.35 135.43,35.06 135.55,34.78 135.67,34.41 135.80,34.16 135.92,34.04 136.04,33.93 136.16,33.88 136.28,33.36 136.41,33.01 136.53,32.57 136.65,32.15 136.77,31.77 136.89,31.11 137.02,30.61 137.14,30.00 137.26,29.65 137.38,29.29 137.50,28.97 137.63,28.52 137.75,28.07 137.87,27.69 137.99,27.60 138.11,27.17 138.23,26.79 138.36,26.61 138.48,26.32 138.60,25.68 138.72,25.58 138.84,25.20 138.97,25.04 139.09,24.65 139.21,24.99 139.33,24.26 139.45,23.93 139.58,23.53 139.70,23.35 139.82,23.16 139.94,22.78 140.06,22.56 140.19,22.25 140.31,22.09 140.43,21.75 140.55,21.44 140.67,21.29 140.79,21.19 140.92,21.15 141.04,21.03 141.16,21.13 141.28,21.19 141.40,21.45 141.53,21.78 141.65,21.08 141.77,20.70 141.89,20.43 142.01,20.40 142.14,20.05 142.26,19.61 142.38,19.20 142.50,18.71 142.62,18.47 142.75,17.60 142.87,17.45 142.99,16.86 143.11,16.59 143.23,16.24 143.36,16.03 143.48,15.80 143.60,15.66 143.72,15.80 143.84,16.28 143.96,14.55 144.09,14.22 144.21,14.25 144.33,14.27 144.45,14.62 144.57,14.67 144.70,14.21 144.82,14.37 144.94,14.51 145.06,14.72 145.18,14.28 145.31,14.71 145.43,14.71 145.55,14.83 145.67,14.69 145.79,14.64 145.92,14.35 146.04,14.37 146.16,13.69 146.28,13.70 146.40,13.45 146.53,13.04 146.65,12.64 146.77,12.43 146.89,12.21 147.01,12.06 147.13,11.97 147.26,11.72 147.38,11.39 147.50,11.24 147.62,11.20 147.74,11.17 147.87,10.82 147.99,10.65 148.11,10.19 148.23,9.85 148.35,9.69 148.48,9.13 148.60,8.58 148.72,8.42 148.84,8.19 148.96,8.57 149.09,8.62 149.21,8.37 149.33,7.98 149.45,8.09 149.57,7.36 149.70,6.99 149.82,6.62 149.94,6.17 150.06,5.72 150.18,5.08 150.30,4.80 150.43,4.35 150.55,4.00 150.67,5.07 150.79,44.50 150.91,45.11 151.04,44.99 151.16,44.87 151.28,45.51 151.40,45.48 151.52,45.41 151.65,45.36 151.77,45.90 151.89,46.02 152.01,46.01 152.13,46.07 152.26,46.55 152.38,46.89 152.50,47.15 152.62,47.33 152.74,47.37 152.87,47.05 152.99,47.03 153.11,46.74 153.23,46.31 153.35,45.66 153.47,46.60 153.60,46.08 153.72,45.59 153.84,46.30 153.96,45.74 154.08,45.94 154.21,46.44 154.33,46.48 154.45,46.78 154.57,46.98 154.69,47.10 154.82,47.18 154.94,47.33 155.06,47.73 155.18,47.80 155.30,47.73 155.43,47.16 155.55,47.30 155.67,47.10 155.79,47.61 155.91,47.61 156.04,47.32 156.16,47.13 156.28,47.03 156.40,47.05 156.52,47.18 156.64,47.33 156.77,47.42 156.89,47.55 157.01,46.78 157.13,46.90 157.25,47.00 157.38,47.03 157.50,46.99 157.62,46.81 157.74,46.55 157.86,46.13 157.99,45.69 158.11,45.33 158.23,45.15 158.35,44.95 158.47,44.84 158.60,44.83 158.72,44.53 158.84,44.55 158.96,44.25 159.08,43.94 159.21,43.61 159.33,43.53 159.45,43.39 159.57,43.48 159.69,43.31 159.81,43.67 159.94,43.35 160.06,43.62 160.18,43.19 160.30,43.80 160.42,42.75 160.55,43.63 160.67,44.62 160.79,44.84 160.91,44.10 161.03,44.80 161.16,44.79 161.28,45.61 161.40,45.30 161.52,45.87 161.64,45.74 161.77,45.74 161.89,45.93 162.01,46.39 162.13,46.91 162.25,46.65 162.37,47.36 162.50,47.09 162.62,46.18 162.74,46.49 162.86,46.07 162.98,45.93 163.11,45.93 163.23,46.06 163.35,46.25 163.47,46.44 163.59,46.54 163.72,46.24 163.84,45.99 163.96,47.07 164.08,47.02 164.20,47.24 164.33,47.30 164.45,48.35 164.57,47.80 164.69,48.57 164.81,47.85 164.94,47.60 165.06,48.28 165.18,48.39 165.30,48.18 165.42,47.82 165.54,48.27 165.67,47.84 165.79,48.70 165.91,48.31 166.03,49.22 166.15,49.48 166.28,50.50 166.40,50.11 166.52,50.08 166.64,49.76 166.76,50.76 166.89,50.97 167.01,50.12 167.13,50.55 167.25,51.56 167.37,51.71 167.50,50.76 167.62,51.57 167.74,52.01 167.86,52.22 167.98,52.11 168.11,52.14 168.23,52.45 168.35,52.96 168.47,52.44 168.59,52.78 168.71,53.07 168.84,52.34 168.96,52.55 169.08,52.69 169.20,51.93 169.32,51.89 169.45,51.77 169.57,51.77 169.69,51.13 169.81,51.23 169.93,51.13 170.06,50.90 170.18,50.87 170.30,50.86 170.42,50.51 170.54,50.94 170.67,50.78 170.79,50.61 170.91,50.41 171.03,50.56 171.15,50.33 171.28,50.81 171.40,50.78 171.52,50.78 171.64,50.55 171.76,50.30 171.88,51.05 172.01,51.26 172.13,50.87 172.25,51.35 172.37,50.88 172.49,51.48 172.62,52.01 172.74,52.01 172.86,52.39 172.98,52.21 173.10,52.53 173.23,52.01 173.35,52.30 173.47,52.00 173.59,52.68 173.71,52.68 173.84,52.89 173.96,52.64 174.08,52.82 174.20,53.46 174.32,53.05 174.45,53.70 174.57,53.65 174.69,54.27 174.81,54.18 174.93,54.59 175.05,54.43 175.18,54.82 175.30,54.74 175.42,54.87 175.54,54.87 175.66,55.25 175.79,55.48 175.91,54.65 176.03,55.65 176.15,55.72 176.27,56.00 176.40,55.70 176.52,55.10 176.64,55.17 176.76,54.43 176.88,53.58 177.01,54.42 177.13,53.75 177.25,54.24 177.37,53.61 177.49,53.67 177.62,52.88 177.74,52.46 177.86,51.76 177.98,51.23 178.10,51.12 178.22,50.43 178.35,50.72 178.47,50.35 178.59,49.80 178.71,49.65 178.83,50.25 178.96,50.05 179.08,49.10 179.20,50.05 179.32,50.16 179.44,50.46 179.57,50.35 179.69,50.85 179.81,49.56 179.93,49.70 180.05,50.23 180.18,50.21 180.30,50.70 180.42,50.53 180.54,50.22 180.66,50.13 180.78,50.30 180.91,51.11 181.03,51.26 181.15,51.16 181.27,50.92 181.39,50.57 181.52,49.98 181.64,50.10 181.76,49.55 181.88,49.65 182.00,49.67 182.13,49.00 182.25,49.06 182.37,49.06 182.49,49.04 182.61,48.76 182.74,48.52 182.86,47.69 182.98,47.56 183.10,47.77 183.22,47.36 183.35,47.49 183.47,47.19 183.59,47.66 183.71,47.19 183.83,47.59 183.95,47.90 184.08,47.89 184.20,48.05 184.32,47.29 184.44,47.84 184.56,48.27 184.69,47.83 184.81,48.38 184.93,48.77 185.05,49.16 185.17,48.97 185.30,49.13 185.42,48.70 185.54,48.97 185.66,48.39 185.78,48.82 185.91,49.06 186.03,48.89 186.15,48.95 186.27,48.27 186.39,48.02 186.52,47.98 186.64,47.67 186.76,47.49 186.88,46.67 187.00,46.70 187.12,46.90 187.25,46.79 187.37,46.54 187.49,46.64 187.61,46.73 187.73,46.54 187.86,45.84 187.98,45.81 188.10,44.66 188.22,45.97 188.34,45.24 188.47,45.78 188.59,45.40 188.71,45.10 188.83,44.36 188.95,44.97 189.08,43.77 189.20,44.21 189.32,43.43 189.44,44.56 189.56,44.09 189.69,44.01 189.81,44.09 189.93,44.15 190.05,44.40 190.17,43.96 190.29,43.57 190.42,43.85 190.54,43.89 190.66,44.01 190.78,44.32 190.90,44.40 191.03,43.68 191.15,43.25 191.27,43.99 191.39,44.14 191.51,43.05 191.64,43.54 191.76,42.79 191.88,43.45 192.00,43.12 192.12,42.64 192.25,42.64 192.37,42.32 192.49,42.13 192.61,42.67 192.73,42.20 192.86,42.46 192.98,41.73 193.10,42.00 193.22,41.32 193.34,41.54 193.46,41.05 193.59,41.62 193.71,42.00 193.83,41.22 193.95,40.75 194.07,41.37 194.20,41.22 194.32,41.07 194.44,40.95 194.56,40.88 194.68,41.51 194.81,41.40 194.93,41.46 195.05,41.24 195.17,41.05 195.29,41.56 195.42,40.93 195.54,41.23 195.66,40.62 195.78,41.51 195.90,41.06 196.03,39.88 196.15,39.45 196.27,39.05 196.39,39.16 196.51,39.07 196.63,38.84 196.76,38.59 196.88,38.09 197.00,38.64 197.12,37.84 197.24,37.73 197.37,36.93 197.49,37.07 197.61,36.72 197.73,36.29 197.85,36.49 197.98,36.35 198.10,36.30 198.22,35.64 198.34,35.68 198.46,35.21 198.59,34.85 198.71,34.71 198.83,34.17 198.95,34.28 199.07,33.89 199.19,33.65 199.32,33.60 199.44,32.76 199.56,33.32 199.68,33.06 199.80,32.05 199.93,31.87 200.05,32.69 200.17,31.49 200.29,31.43 200.41,32.52 200.54,31.98 200.66,31.38 200.78,31.77 200.90,31.44 201.02,31.22 201.15,31.05 201.27,30.89 201.39,30.77 201.51,30.62 201.63,30.46 201.76,30.21 201.88,31.73 202.00,31.48 202.12,30.87 202.24,30.64 202.36,30.60 202.49,30.86 202.61,30.64 202.73,31.48 202.85,31.81 202.97,31.75 203.10,31.90 203.22,32.25 203.34,32.37 203.46,31.84 203.58,32.30 203.71,32.76 203.83,32.76 203.95,33.19 204.07,33.20 204.19,33.19 204.32,32.56 204.44,33.16 204.56,32.85 204.68,33.28 204.80,33.60 204.93,33.75 205.05,33.33 205.17,33.64 205.29,33.11 205.41,33.97 205.53,33.62 205.66,33.90 205.78,33.99 205.90,33.99 206.02,34.54 206.14,33.90 206.27,34.44 206.39,33.39 206.51,34.35 206.63,33.16 206.75,34.21 206.88,34.75 207.00,35.26 207.12,34.14 207.24,34.15 207.36,34.70 207.49,35.36 207.61,35.35 207.73,36.19 207.85,35.78 207.97,35.06 208.10,35.15 208.22,34.55 208.34,33.31 208.46,33.57 208.58,33.64 208.70,33.98 208.83,33.81 208.95,32.35 209.07,32.93 209.19,32.51 209.31,30.52 209.44,30.88 209.56,29.38 209.68,30.12 209.80,29.53 209.92,28.62 210.05,28.82 210.17,27.95 210.29,27.95 210.41,27.01 210.53,27.28 210.66,26.53 210.78,26.53 210.90,26.26 211.02,26.50 211.14,26.30 211.27,25.76 211.39,25.54 211.51,25.09 211.63,24.60 211.75,24.28 211.87,24.10 212.00,23.17 212.12,23.17 212.24,22.68 212.36,22.39 212.48,23.07 212.61,22.05 212.73,21.79 212.85,21.87 212.97,21.24 213.09,20.86 213.22,20.95 213.34,21.48 213.46,20.85 213.58,20.85 213.70,20.91 213.83,20.75 213.95,20.91 214.07,20.91 214.19,21.52 214.31,21.08 214.44,20.71 214.56,20.32 214.68,19.87 214.80,19.48 214.92,18.83 215.04,18.12 215.17,17.51 215.29,17.03 215.41,17.06 215.53,16.00 215.65,16.00 215.78,14.97 215.90,15.44 216.02,14.85 216.14,14.19 216.26,14.83 216.39,14.62 216.51,15.02 216.63,14.80 216.75,14.72 216.87,15.50 217.00,15.50 217.12,13.89 217.24,13.86 217.36,13.37 217.48,14.26 217.61,14.35 217.73,13.90 217.85,14.44 217.97,13.74 218.09,14.49 218.21,13.98 218.34,13.65 218.46,13.39 218.58,14.54 218.70,14.42 218.82,14.29 218.95,14.11 219.07,13.79 219.19,13.23 219.31,12.88 219.43,12.53 219.56,12.31 219.68,12.00 219.80,12.31 219.92,11.69 220.04,11.55 220.17,11.21 220.29,11.02 220.41,11.54 220.53,11.33 220.65,10.91 220.77,10.85 220.90,10.29 221.02,9.78 221.14,9.96 221.26,9.27 221.38,9.14 221.51,8.58 221.63,9.27 221.75,9.27 221.87,9.01 221.99,8.58 222.12,8.28 222.24,7.98 222.36,7.25 222.48,7.51 222.60,6.82 222.73,5.97 222.85,5.43 222.97,5.84 223.09,4.99 223.21,4.65 223.34,5.13 223.46,44.50 223.58,46.43 223.70,46.43 223.82,46.43 223.94,45.89 224.07,45.89 224.19,45.89 224.31,45.99 224.43,45.99 224.55,45.99 224.68,45.99 224.80,47.23 224.92,47.33 225.04,47.33 225.16,47.49 225.29,47.49 225.41,47.49 225.53,45.95 225.65,45.95 225.77,43.84 225.90,43.84 226.02,43.84 226.14,40.90 226.26,40.90 226.38,40.90 226.51,44.14 226.63,44.14 226.75,44.14 226.87,44.14 226.99,44.95 227.11,44.95 227.24,44.95 227.36,46.69 227.48,46.69 227.60,46.69 227.72,47.60 227.85,47.60 227.97,47.60 228.09,44.32 228.21,44.32 228.33,44.32 228.46,47.43 228.58,47.43 228.70,47.43 228.82,47.43 228.94,46.80 229.07,46.80 229.19,46.80 229.31,47.04 229.43,47.04 229.55,47.04 229.68,43.71 229.80,43.71 229.92,43.71 230.04,44.86 230.16,44.86 230.28,44.86 230.41,45.21 230.53,45.21 230.65,45.21 230.77,45.53 230.89,45.53 231.02,45.53 231.14,44.88 231.26,44.88 231.38,43.94 231.50,43.94 231.63,43.87 231.75,43.87 231.87,42.94 231.99,42.94 232.11,42.94 232.24,43.39 232.36,43.39 232.48,43.39 232.60,43.39 232.72,44.03 232.85,44.03 232.97,44.03 233.09,41.05 233.21,39.78 233.33,43.15 233.45,43.15 233.58,43.15 233.70,43.15 233.82,42.69 233.94,42.69 234.06,42.69 234.19,45.07 234.31,45.07 234.43,45.07 234.55,43.80 234.67,45.64 234.80,45.64 234.92,45.64 235.04,47.54 235.16,44.69 235.28,44.69 235.41,44.69 235.53,43.88 235.65,43.88 235.77,43.88 235.89,44.49 236.02,44.49 236.14,44.93 236.26,44.93 236.38,44.93 236.50,43.84 236.62,46.32 236.75,46.32 236.87,46.32 236.99,46.32 237.11,46.80 237.23,46.80 237.36,46.80 237.48,45.69 237.60,45.69 237.72,49.12 237.84,48.80 237.97,46.47 238.09,46.47 238.21,46.47 238.33,44.76 238.45,48.16 238.58,48.16 238.70,48.16 238.82,48.16 238.94,49.32 239.06,49.32 239.18,49.32 239.31,49.93 239.43,49.93 239.55,46.51 239.67,46.51 239.79,50.26 239.92,50.26 240.04,46.36 240.16,46.36 240.28,49.84 240.40,49.84 240.53,49.84 240.65,50.54 240.77,50.54 240.89,50.54 241.01,51.67 241.14,51.67 241.26,51.67 241.38,53.02 241.50,49.08 241.62,49.08 241.75,50.25 241.87,50.25 241.99,50.25 242.11,50.56 242.23,50.56 242.35,50.56 242.48,50.56 242.60,50.48 242.72,48.49 242.84,48.49 242.96,50.46 243.09,50.46 243.21,49.61 243.33,49.61 243.45,49.61 243.57,49.78 243.70,49.78 243.82,51.18 243.94,51.18 244.06,49.03 244.18,49.03 244.31,51.02 244.43,51.02 244.55,51.02 244.67,52.16 244.79,52.16 244.92,52.16 245.04,51.16 245.16,51.16 245.28,53.61 245.40,53.61 245.52,52.43 245.65,52.43 245.77,52.43 245.89,51.32 246.01,53.17 246.13,53.17 246.26,52.05 246.38,52.05 246.50,52.05 246.62,52.26 246.74,52.26 246.87,52.26 246.99,51.90 247.11,51.90 247.23,51.90 247.35,53.26 247.48,53.26 247.60,54.73 247.72,54.73 247.84,54.73 247.96,54.84 248.09,54.84 248.21,54.84 248.33,54.84 248.45,55.33 248.57,55.33 248.69,55.33 248.82,55.59 248.94,55.59 249.06,55.59 249.18,51.68 249.30,54.14 249.43,54.14 249.55,51.86 249.67,51.86 249.79,51.86 249.91,49.52 250.04,49.52 250.16,53.54 250.28,50.95 250.40,50.95 250.52,50.95 250.65,50.74 250.77,50.74 250.89,50.74 251.01,51.24 251.13,51.24 251.26,51.24 251.38,48.57 251.50,48.57 251.62,51.02 251.74,51.02 251.86,51.02 251.99,49.45 252.11,50.79 252.23,50.79 252.35,50.79 252.47,48.22 252.60,48.22 252.72,48.22 252.84,47.24 252.96,50.50 253.08,50.50 253.21,50.10 253.33,50.10 253.45,50.91 253.57,50.91 253.69,50.91 253.82,50.57 253.94,50.57 254.06,50.08 254.18,50.08 254.30,50.08 254.43,47.84 254.55,47.84 254.67,47.84 254.79,48.19 254.91,48.19 255.03,48.19 255.16,48.06 255.28,48.06 255.40,47.62 255.52,47.62 255.64,47.62 255.77,47.49 255.89,47.49 256.01,47.96 256.13,46.80 256.25,46.80 256.38,46.80 256.50,47.67 256.62,47.67 256.74,48.11 256.86,48.11 256.99,45.55 257.11,47.54 257.23,47.54 257.35,47.54 257.47,48.73 257.59,48.73 257.72,49.12 257.84,49.12 257.96,49.12 258.08,47.32 258.20,47.32 258.33,47.32 258.45,48.26 258.57,48.26 258.69,48.26 258.81,48.12 258.94,48.12 259.06,47.58 259.18,47.01 259.30,47.01 259.42,46.11 259.55,46.11 259.67,46.11 259.79,46.99 259.91,46.99 260.03,47.02 260.16,47.02 260.28,47.02 260.40,45.65 260.52,45.65 260.64,45.65 260.76,43.56 260.89,46.61 261.01,46.61 261.13,46.61 261.25,45.26 261.37,45.26 261.50,45.26 261.62,43.22 261.74,43.22 261.86,45.82 261.98,44.73 262.11,44.73 262.23,44.73 262.35,44.73 262.47,45.34 262.59,45.34 262.72,44.30 262.84,44.30 262.96,44.74 263.08,44.74 263.20,44.74 263.33,43.40 263.45,43.40 263.57,43.40 263.69,43.40 263.81,42.20 263.93,42.20 264.06,42.20 264.18,43.53 264.30,43.53 264.42,39.41 264.54,42.29 264.67,42.29 264.79,42.29 264.91,42.29 265.03,41.40 265.15,41.40 265.28,41.40 265.40,42.47 265.52,42.47 265.64,39.55 265.76,40.70 265.89,40.70 266.01,40.70 266.13,41.76 266.25,41.76 266.37,40.57 266.50,40.13 266.62,40.13 266.74,40.79 266.86,40.79 266.98,40.79 267.10,40.58 267.23,40.58 267.35,40.58 267.47,40.38 267.59,40.29 267.71,40.29 267.84,41.64 267.96,41.64 268.08,39.58 268.20,41.07 268.32,41.07 268.45,41.07 268.57,42.29 268.69,40.16 268.81,40.16 268.93,38.35 269.06,38.51 269.18,38.51 269.30,38.51 269.42,37.26 269.54,37.26 269.67,38.94 269.79,38.94 269.91,38.94 270.03,37.06 270.15,37.06 270.27,37.06 270.40,37.06 270.52,36.66 270.64,36.66 270.76,36.66 270.88,34.93 271.01,34.29 271.13,34.29 271.25,34.29 271.37,33.61 271.49,33.61 271.62,33.61 271.74,32.76 271.86,32.76 271.98,32.76 272.10,34.16 272.23,34.16 272.35,31.28 272.47,31.28 272.59,32.74 272.71,32.74 272.84,29.47 272.96,28.45 273.08,31.94 273.20,31.94 273.32,30.49 273.44,30.49 273.57,30.01 273.69,30.01 273.81,30.01 273.93,29.66 274.05,29.66 274.18,28.88 274.30,28.88 274.42,28.88 274.54,28.41 274.66,28.41 274.79,29.04 274.91,29.04 275.03,29.04 275.15,31.20 275.27,31.20 275.40,31.20 275.52,34.39 275.64,34.46 275.76,34.46 275.88,34.46 276.01,34.67 276.13,34.67 276.25,34.67 276.37,32.68 276.49,32.68 276.61,33.80 276.74,33.80 276.86,33.80 276.98,32.02 277.10,32.02 277.22,32.02 277.35,32.86 277.47,32.86 277.59,32.86 277.71,30.65 277.83,30.65 277.96,30.65 278.08,33.82 278.20,33.82 278.32,36.27 278.44,33.69 278.57,33.69 278.69,33.69 278.81,33.69 278.93,33.65 279.05,33.65 279.17,33.65 279.30,33.65 279.42,36.50 279.54,33.64 279.66,33.64 279.78,33.64 279.91,34.68 280.03,34.68 280.15,36.06 280.27,35.26 280.39,35.26 280.52,34.03 280.64,34.03 280.76,34.03 280.88,32.62 281.00,32.62 281.13,33.75 281.25,33.75 281.37,33.75 281.49,32.92 281.61,29.33 281.74,32.92 281.86,32.45 281.98,27.85 282.10,27.85 282.22,29.57 282.34,29.57 282.47,29.57 282.59,26.76 282.71,28.04 282.83,28.04 282.95,28.04 283.08,25.81 283.20,25.81 283.32,25.81 283.44,25.81 283.56,26.13 283.69,25.17 283.81,25.17 283.93,23.52 284.05,23.52 284.17,23.52 284.30,23.52 284.42,22.20 284.54,22.20 284.66,23.31 284.78,23.31 284.91,23.31 285.03,20.59 285.15,22.59 285.27,22.59 285.39,22.59 285.51,20.96 285.64,20.96 285.76,20.96 285.88,21.30 286.00,21.30 286.12,21.30 286.25,21.30 286.37,20.60 286.49,20.60 286.61,20.60 286.73,20.24 286.86,21.12 286.98,21.12 287.10,20.08 287.22,20.08 287.34,18.81 287.47,18.81 287.59,18.81 287.71,17.30 287.83,17.30 287.95,17.30 288.08,17.58 288.20,13.65 288.32,13.65 288.44,14.82 288.56,14.82 288.68,14.82 288.81,13.25 288.93,13.25 289.05,13.25 289.17,13.10 289.29,13.10 289.42,13.08 289.54,13.08 289.66,13.08 289.78,13.08 289.90,14.01 290.03,12.67 290.15,12.67 290.27,12.67 290.39,12.67 290.51,13.11 290.64,13.11 290.76,13.11 290.88,11.68 291.00,11.68 291.12,10.94 291.25,10.94 291.37,10.94 291.49,13.64 291.61,13.64 291.73,13.64 291.85,13.64 291.98,13.17 292.10,12.40 292.22,12.40 292.34,12.40 292.46,11.75 292.59,11.75 292.71,11.75 292.83,10.39 292.95,10.39 293.07,11.66 293.20,11.66 293.32,10.70 293.44,10.70 293.56,10.70 293.68,9.06 293.81,9.06 293.93,9.06 294.05,9.12 294.17,9.12 294.29,9.12 294.42,9.12 294.54,8.05 294.66,8.05 294.78,8.05 294.90,9.42 295.02,7.25 295.15,7.25 295.27,7.39 295.39,7.39 295.51,5.01 295.63,5.01 295.76,5.01 295.88,5.66 296.00,4.64" />
</svg>