<svg width="300" height="60" xmlns="http://www.w3.org/2000/svg">
  <polyline fill="rgba(255,200,0,0.3)" stroke="#ffbb00" stroke-width="2" points="4.00,53.19 8.11,52.80 12.23,53.14 16.34,52.88 20.45,48.79 24.56,45.32 28.68,42.37 32.79,40.55 36.90,39.14 41.01,36.59 45.13,33.19 49.24,30.27 53.35,26.11 57.46,20.84 61.58,16.45 65.69,12.88 69.80,9.88 73.92,5.50 78.03,54.10 82.14,53.27 86.25,54.43 90.37,53.64 94.48,51.54 98.59,46.80 102.70,43.58 106.82,42.42 110.93,40.79 115.04,36.96 119.15,33.81 123.27,32.28 127.38,28.21 131.49,22.40 135.61,18.75 139.72,14.17 143.83,11.38 147.94,6.23 152.06,54.59 156.17,49.94 160.28,50.44 164.39,47.03 168.51,49.19 172.62,46.28 176.73,39.08 180.85,34.26 184.96,32.85 189.07,30.77 193.18,28.94 197.30,27.53 201.41,25.87 205.52,23.10 209.63,19.52 213.75,10.39 217.86,4.74 221.97,4.49 226.08,56.00 230.20,40.80 234.31,40.80 238.42,40.80 242.54,19.20 246.65,39.64 250.76,39.64 254.87,30.42 258.99,30.42 263.10,26.93 267.21,26.93 271.32,26.93 275.44,20.61 279.55,20.61 283.66,20.61 287.77,4.00 291.89,4.00 296.00,4.00" />
</svg>