<svg width="300" height="60" xmlns="http://www.w3.org/2000/svg">
  <polyline fill="rgba(255,200,0,0.3)" stroke="#ffbb00" stroke-width="2" points="4.00,18.43 4.30,18.24 4.59,18.30 4.89,18.27 5.19,18.10 5.49,17.84 5.78,17.47 6.08,17.09 6.38,16.67 6.67,16.28 6.97,15.90 7.27,15.53 7.56,15.05 7.86,14.63 8.16,14.29 8.46,13.99 8.75,13.63 9.05,13.35 9.35,13.01 9.64,12.66 9.94,12.26 10.24,11.81 10.54,11.21 10.83,10.63 11.13,10.06 11.43,9.59 11.72,9.19 12.02,8.91 12.32,8.81 12.61,8.83 12.91,8.90 13.21,8.81 13.51,8.47 13.80,8.12 14.10,7.91 14.40,7.92 14.69,8.24 14.99,8.68 15.29,9.09 15.58,9.48 15.88,9.72 16.18,9.76 16.48,9.69 16.77,9.68 17.07,9.90 17.37,10.24 17.66,10.64 17.96,10.93 18.26,11.05 18.56,11.07 18.85,11.08 19.15,11.14 19.45,11.12 19.74,11.10 20.04,10.92 20.34,10.70 20.63,10.60 20.93,10.50 21.23,10.50 21.53,10.50 21.82,10.20 22.12,9.79 22.42,9.31 22.71,8.86 23.01,8.37 23.31,7.96 23.61,7.56 23.90,7.27 24.20,7.06 24.50,6.88 24.79,6.78 25.09,6.70 25.39,6.62 25.68,6.60 25.98,6.62 26.28,6.64 26.58,6.77 26.87,6.98 27.17,7.17 27.47,7.38 27.76,7.60 28.06,7.94 28.36,8.26 28.66,8.64 28.95,9.03 29.25,9.41 29.55,9.72 29.84,9.97 30.14,10.22 30.44,10.49 30.73,10.80 31.03,11.23 31.33,11.69 31.63,12.07 31.92,12.53 32.22,12.96 32.52,13.44 32.81,13.98 33.11,14.41 33.41,14.79 33.70,15.11 34.00,15.32 34.30,15.43 34.60,15.43 34.89,15.44 35.19,15.37 35.49,15.31 35.78,15.35 36.08,15.48 36.38,15.65 36.68,15.90 36.97,16.26 37.27,16.59 37.57,16.98 37.86,17.19 38.16,17.40 38.46,17.50 38.75,17.66 39.05,17.89 39.35,18.16 39.65,18.55 39.94,18.98 40.24,19.49 40.54,20.04 40.83,20.71 41.13,21.22 41.43,21.73 41.73,21.87 42.02,22.02 42.32,22.18 42.62,22.35 42.91,22.39 43.21,22.37 43.51,22.35 43.80,22.22 44.10,21.97 44.40,21.64 44.70,21.30 44.99,21.04 45.29,20.85 45.59,20.66 45.88,20.56 46.18,20.39 46.48,20.15 46.78,19.83 47.07,19.55 47.37,19.21 47.67,18.90 47.96,18.69 48.26,18.61 48.56,18.66 48.85,18.85 49.15,19.16 49.45,19.49 49.75,19.80 50.04,20.07 50.34,20.35 50.64,20.64 50.93,21.02 51.23,21.40 51.53,21.91 51.83,22.50 52.12,22.84 52.42,23.00 52.72,23.11 53.01,23.29 53.31,23.50 53.61,23.76 53.90,24.13 54.20,24.58 54.50,25.06 54.80,25.70 55.09,26.37 55.39,27.05 55.69,27.71 55.98,28.41 56.28,29.07 56.58,29.82 56.87,30.56 57.17,31.18 57.47,31.86 57.77,32.61 58.06,33.33 58.36,34.18 58.66,34.98 58.95,35.62 59.25,36.10 59.55,36.70 59.85,37.25 60.14,37.73 60.44,38.21 60.74,38.92 61.03,39.52 61.33,40.08 61.63,40.71 61.92,41.45 62.22,42.12 62.52,42.74 62.82,43.35 63.11,43.88 63.41,44.38 63.71,44.81 64.00,45.15 64.30,45.34 64.60,45.43 64.90,45.44 65.19,45.38 65.49,45.22 65.79,44.92 66.08,44.60 66.38,44.30 66.68,44.05 66.97,43.87 67.27,43.86 67.57,44.05 67.87,44.28 68.16,44.58 68.46,45.11 68.76,45.57 69.05,46.22 69.35,46.63 69.65,47.19 69.95,47.63 70.24,48.02 70.54,48.51 70.84,48.98 71.13,49.52 71.43,49.54 71.73,49.65 72.02,49.73 72.32,49.80 72.62,49.89 72.92,50.03 73.21,50.20 73.51,50.38 73.81,50.55 74.10,50.63 74.40,50.53 74.70,50.44 74.99,50.37 75.29,50.30 75.59,50.23 75.89,50.25 76.18,50.26 76.48,50.43 76.78,7.27 77.07,7.36 77.37,7.66 77.67,7.93 77.97,8.28 78.26,8.71 78.56,9.15 78.86,9.53 79.15,9.83 79.45,10.15 79.75,10.52 80.04,10.72 80.34,10.97 80.64,11.33 80.94,11.81 81.23,12.21 81.53,12.66 81.83,13.17 82.12,13.54 82.42,14.18 82.72,14.49 83.02,14.96 83.31,15.39 83.61,15.71 83.91,15.70 84.20,15.46 84.50,15.56 84.80,15.46 85.09,15.41 85.39,15.43 85.69,15.50 85.99,15.73 86.28,15.95 86.58,16.31 86.88,16.64 87.17,17.29 87.47,17.43 87.77,17.47 88.07,17.54 88.36,17.58 88.66,17.93 88.96,18.26 89.25,18.59 89.55,19.08 89.85,19.57 90.14,20.11 90.44,21.00 90.74,21.45 91.04,21.91 91.33,22.02 91.63,22.09 91.93,22.24 92.22,22.32 92.52,22.39 92.82,22.35 93.11,22.28 93.41,22.20 93.71,21.97 94.01,21.56 94.30,21.38 94.60,21.03 94.90,20.82 95.19,20.70 95.49,20.62 95.79,20.50 96.09,20.12 96.38,19.85 96.68,19.52 96.98,19.17 97.27,18.92 97.57,18.67 97.87,18.63 98.16,18.63 98.46,18.94 98.76,19.25 99.06,19.52 99.35,19.82 99.65,20.08 99.95,20.38 100.24,20.66 100.54,21.15 100.84,21.51 101.14,21.96 101.43,22.60 101.73,22.84 102.03,23.03 102.32,23.15 102.62,23.36 102.92,23.61 103.21,23.70 103.51,24.02 103.81,24.44 104.11,25.15 104.40,25.85 104.70,26.43 105.00,26.92 105.29,27.79 105.59,28.61 105.89,29.24 106.19,29.84 106.48,30.43 106.78,31.36 107.08,31.93 107.37,32.62 107.67,33.56 107.97,34.33 108.26,34.92 108.56,35.57 108.86,36.06 109.16,36.67 109.45,37.23 109.75,37.83 110.05,38.23 110.34,38.93 110.64,39.50 110.94,40.19 111.23,40.96 111.53,41.32 111.83,42.21 112.13,42.83 112.42,43.36 112.72,44.04 113.02,44.50 113.31,44.89 113.61,45.18 113.91,45.43 114.21,45.56 114.50,45.55 114.80,45.47 115.10,45.13 115.39,44.86 115.69,44.57 115.99,44.28 116.28,43.99 116.58,43.90 116.88,43.73 117.18,44.04 117.47,44.22 117.77,44.51 118.07,45.04 118.36,45.35 118.66,46.22 118.96,46.73 119.26,47.29 119.55,47.61 119.85,48.11 120.15,48.66 120.44,49.12 120.74,49.59 121.04,49.66 121.33,49.65 121.63,49.79 121.93,49.90 122.23,49.94 122.52,50.08 122.82,50.28 123.12,50.25 123.41,50.55 123.71,50.65 124.01,50.54 124.31,50.46 124.60,50.39 124.90,50.32 125.20,50.26 125.49,50.25 125.79,50.29 126.09,50.44 126.38,18.55 126.68,18.33 126.98,18.38 127.28,18.38 127.57,18.17 127.87,17.90 128.17,17.55 128.46,17.14 128.76,16.70 129.06,16.30 129.36,16.26 129.65,15.85 129.95,15.09 130.25,14.69 130.54,14.57 130.84,14.10 131.14,13.77 131.43,13.45 131.73,13.23 132.03,12.95 132.33,12.35 132.62,11.90 132.92,11.27 133.22,10.74 133.51,10.12 133.81,9.69 134.11,9.20 134.40,8.94 134.70,8.82 135.00,8.81 135.30,8.67 135.59,8.93 135.89,8.49 136.19,8.02 136.48,7.89 136.78,7.56 137.08,8.23 137.38,8.62 137.67,8.93 137.97,8.82 138.27,9.76 138.56,9.83 138.86,9.72 139.16,9.73 139.45,9.89 139.75,10.16 140.05,10.65 140.35,10.98 140.64,11.11 140.94,11.16 141.24,11.08 141.53,11.10 141.83,11.13 142.13,11.09 142.43,10.89 142.72,10.69 143.02,10.63 143.32,10.57 143.61,10.48 143.91,10.65 144.21,10.27 144.50,9.81 144.80,9.20 145.10,8.79 145.40,8.42 145.69,7.91 145.99,7.53 146.29,7.32 146.58,7.02 146.88,6.98 147.18,6.84 147.48,6.82 147.77,6.71 148.07,6.64 148.37,6.63 148.66,6.70 148.96,6.79 149.26,7.05 149.55,7.27 149.85,7.36 150.15,7.66 150.45,7.92 150.74,18.33 151.04,18.42 151.34,18.40 151.63,18.22 151.93,17.88 152.23,17.47 152.52,17.09 152.82,16.70 153.12,16.32 153.42,15.96 153.71,15.96 154.01,16.12 154.31,14.95 154.60,14.35 154.90,13.74 155.20,14.28 155.50,13.62 155.79,12.45 156.09,13.13 156.39,12.73 156.68,12.02 156.98,11.49 157.28,11.16 157.57,10.60 157.87,10.13 158.17,9.62 158.47,9.53 158.76,9.07 159.06,8.75 159.36,9.25 159.65,9.16 159.95,8.69 160.25,8.33 160.55,7.32 160.84,7.72 161.14,7.04 161.44,8.71 161.73,8.49 162.03,9.63 162.33,9.23 162.62,10.43 162.92,9.66 163.22,9.65 163.52,9.91 163.81,9.91 164.11,10.22 164.41,10.57 164.70,11.13 165.00,11.12 165.30,10.79 165.60,10.44 165.89,10.30 166.19,10.74 166.49,11.23 166.78,10.62 167.08,9.32 167.38,10.50 167.67,10.80 167.97,10.21 168.27,10.64 168.57,10.43 168.86,9.13 169.16,8.93 169.46,8.22 169.75,7.99 170.05,7.26 170.35,6.81 170.64,6.81 170.94,6.77 171.24,6.84 171.54,6.79 171.83,6.76 172.13,6.19 172.43,6.51 172.72,5.46 173.02,5.87 173.32,6.32 173.62,6.84 173.91,6.33 174.21,7.00 174.51,6.49 174.80,7.37 175.10,7.36 175.40,8.29 175.69,8.47 175.99,9.10 176.29,10.00 176.59,10.30 176.88,10.55 177.18,10.79 177.48,10.11 177.77,10.59 178.07,11.43 178.37,11.81 178.67,12.23 178.96,12.80 179.26,13.50 179.56,14.56 179.85,14.61 180.15,14.79 180.45,15.08 180.74,15.31 181.04,15.36 181.34,15.14 181.64,14.90 181.93,15.30 182.23,14.85 182.53,15.14 182.82,14.76 183.12,15.18 183.42,15.49 183.72,15.79 184.01,16.48 184.31,17.10 184.61,17.37 184.90,17.37 185.20,17.33 185.50,17.32 185.79,17.60 186.09,17.60 186.39,18.16 186.69,18.97 186.98,18.53 187.28,19.59 187.58,20.71 187.87,21.71 188.17,22.34 188.47,22.51 188.77,22.39 189.06,22.41 189.36,22.49 189.66,22.48 189.95,22.56 190.25,22.35 190.55,22.14 190.84,22.55 191.14,21.94 191.44,22.45 191.74,21.34 192.03,20.89 192.33,21.71 192.63,21.28 192.92,20.70 193.22,20.50 193.52,19.95 193.81,19.74 194.11,19.26 194.41,18.91 194.71,18.55 195.00,18.42 195.30,18.58 195.60,19.08 195.89,19.63 196.19,19.63 196.49,19.80 196.79,20.08 197.08,19.96 197.38,20.40 197.68,21.06 197.97,21.52 198.27,21.69 198.57,22.20 198.86,22.78 199.16,22.99 199.46,23.01 199.76,23.33 200.05,23.35 200.35,23.50 200.65,23.69 200.94,23.98 201.24,24.34 201.54,26.18 201.84,26.23 202.13,26.20 202.43,27.68 202.73,28.91 203.02,28.91 203.32,29.86 203.62,30.73 203.91,32.41 204.21,31.63 204.51,32.37 204.81,33.52 205.10,34.27 205.40,35.01 205.70,35.57 205.99,35.95 206.29,36.49 206.59,37.08 206.89,37.59 207.18,37.59 207.48,38.37 207.78,38.82 208.07,39.89 208.37,40.38 208.67,41.45 208.96,42.41 209.26,42.24 209.56,43.25 209.86,44.06 210.15,44.71 210.45,45.36 210.75,45.95 211.04,46.31 211.34,46.50 211.64,46.43 211.93,46.56 212.23,45.87 212.53,45.03 212.83,44.38 213.12,45.04 213.42,44.39 213.72,43.87 214.01,43.67 214.31,44.03 214.61,43.91 214.91,44.23 215.20,45.23 215.50,45.62 215.80,46.14 216.09,46.65 216.39,47.23 216.69,47.23 216.98,47.97 217.28,48.33 217.58,48.67 217.88,49.36 218.17,49.29 218.47,49.78 218.77,49.83 219.06,49.61 219.36,49.62 219.66,49.91 219.96,50.19 220.25,50.16 220.55,51.54 220.85,50.87 221.14,50.63 221.44,50.45 221.74,50.36 222.03,50.53 222.33,50.28 222.63,50.27 222.93,50.38 223.22,51.02 223.52,18.82 223.82,17.92 224.11,17.92 224.41,17.92 224.71,16.46 225.01,16.46 225.30,16.46 225.60,14.85 225.90,14.85 226.19,14.85 226.49,14.85 226.79,12.13 227.08,12.13 227.38,14.19 227.68,10.37 227.98,10.37 228.27,12.51 228.57,12.51 228.87,12.51 229.16,10.32 229.46,10.32 229.76,10.32 230.05,11.75 230.35,11.75 230.65,11.75 230.95,9.42 231.24,9.42 231.54,9.42 231.84,8.33 232.13,13.23 232.43,10.21 232.73,10.21 233.03,10.21 233.32,7.35 233.62,7.35 233.92,7.35 234.21,11.64 234.51,11.64 234.81,11.64 235.10,9.46 235.40,9.46 235.70,9.46 236.00,9.74 236.29,9.74 236.59,9.74 236.89,9.74 237.18,10.44 237.48,10.44 237.78,10.44 238.08,8.91 238.37,8.91 238.67,8.91 238.97,8.70 239.26,8.70 239.56,10.80 239.86,7.43 240.15,7.43 240.45,7.43 240.75,7.43 241.05,8.13 241.34,8.13 241.64,8.13 241.94,8.11 242.23,8.11 242.53,5.72 242.83,5.72 243.13,5.72 243.42,5.72 243.72,5.31 244.02,5.31 244.31,5.31 244.61,4.00 244.91,4.00 245.20,4.00 245.50,5.41 245.80,5.41 246.10,5.41 246.39,6.81 246.69,6.47 246.99,6.47 247.28,7.31 247.58,7.31 247.88,7.31 248.17,8.56 248.47,11.78 248.77,11.78 249.07,9.86 249.36,9.86 249.66,10.48 249.96,10.48 250.25,10.48 250.55,11.98 250.85,11.98 251.15,13.10 251.44,13.10 251.74,13.10 252.04,15.06 252.33,15.06 252.63,15.27 252.93,15.27 253.22,15.27 253.52,15.10 253.82,15.10 254.12,15.51 254.41,15.51 254.71,15.51 255.01,15.72 255.30,15.33 255.60,15.33 255.90,14.40 256.20,14.40 256.49,14.40 256.79,15.88 257.09,16.04 257.38,16.04 257.68,16.04 257.98,18.31 258.27,16.42 258.57,16.42 258.87,16.42 259.17,17.43 259.46,17.59 259.76,17.59 260.06,17.59 260.35,20.66 260.65,20.66 260.95,20.66 261.25,23.64 261.54,23.64 261.84,23.64 262.14,24.78 262.43,24.78 262.73,22.74 263.03,22.77 263.32,22.77 263.62,22.77 263.92,22.77 264.22,24.44 264.51,21.47 264.81,21.47 265.11,23.71 265.40,23.71 265.70,21.61 266.00,21.61 266.30,21.26 266.59,21.26 266.89,21.26 267.19,19.16 267.48,19.16 267.78,19.16 268.08,18.86 268.37,18.86 268.67,18.58 268.97,18.58 269.27,20.36 269.56,20.36 269.86,20.36 270.16,20.79 270.45,20.79 270.75,20.79 271.05,20.79 271.34,23.18 271.64,22.60 271.94,22.60 272.24,23.00 272.53,24.46 272.83,24.46 273.13,24.17 273.42,24.17 273.72,24.17 274.02,22.93 274.32,25.89 274.61,25.89 274.91,26.58 275.21,26.58 275.50,26.58 275.80,26.58 276.10,30.19 276.39,30.19 276.69,30.19 276.99,30.19 277.29,32.75 277.58,32.75 277.88,32.75 278.18,33.77 278.47,33.77 278.77,33.77 279.07,35.90 279.37,35.90 279.66,35.90 279.96,35.90 280.26,38.46 280.55,38.74 280.85,38.46 281.15,40.39 281.44,40.39 281.74,40.39 282.04,40.55 282.34,43.39 282.63,43.39 282.93,43.39 283.23,46.28 283.52,46.28 283.82,46.28 284.12,48.10 284.42,48.10 284.71,48.70 285.01,48.70 285.31,48.70 285.60,47.31 285.90,47.31 286.20,47.31 286.49,45.12 286.79,45.12 287.09,44.44 287.39,44.44 287.68,43.70 287.98,43.70 288.28,43.70 288.57,45.34 288.87,45.34 289.17,45.34 289.46,45.34 289.76,48.83 290.06,48.83 290.36,48.83 290.65,50.43 290.95,50.43 291.25,50.43 291.54,50.10 291.84,50.10 292.14,50.10 292.44,49.95 292.73,49.95 293.03,50.66 293.33,53.98 293.62,53.98 293.92,52.19 294.22,52.19 294.51,52.19 294.81,56.00 295.11,51.75 295.41,51.75 295.70,51.75 296.00,54.47" />
</svg>