<svg width="300" height="60" xmlns="http://www.w3.org/2000/svg">
  <polyline fill="rgba(255,200,0,0.3)" stroke="#ffbb00" stroke-width="2" points="4.00,53.46 4.62,53.81 5.23,54.03 5.85,54.15 6.47,54.14 7.09,54.00 7.70,53.62 8.32,52.92 8.94,52.40 9.56,52.09 10.17,51.85 10.79,51.40 11.41,50.73 12.03,50.03 12.64,49.49 13.26,48.91 13.88,48.28 14.49,47.84 15.11,47.36 15.73,46.83 16.35,46.36 16.96,46.12 17.58,46.00 18.20,45.95 18.82,46.05 19.43,46.36 20.05,46.54 20.67,46.61 21.29,46.68 21.90,46.76 22.52,47.01 23.14,47.44 23.75,47.66 24.37,47.69 24.99,47.83 25.61,47.99 26.22,48.18 26.84,48.05 27.46,47.90 28.08,47.70 28.69,47.38 29.31,47.20 29.93,47.19 30.55,47.34 31.16,47.72 31.78,47.98 32.40,48.46 33.01,48.76 33.63,48.87 34.25,49.24 34.87,49.50 35.48,49.73 36.10,50.26 36.72,51.04 37.34,51.54 37.95,51.64 38.57,51.46 39.19,50.92 39.81,50.33 40.42,49.87 41.04,49.18 41.66,48.50 42.27,47.99 42.89,47.47 43.51,47.31 44.13,46.99 44.74,46.42 45.36,46.07 45.98,45.73 46.60,45.59 47.21,45.62 47.83,45.43 48.45,44.97 49.07,44.64 49.68,44.45 50.30,43.92 50.92,43.40 51.53,42.86 52.15,42.15 52.77,41.44 53.39,40.84 54.00,40.45 54.62,40.30 55.24,40.01 55.86,39.40 56.47,38.89 57.09,38.25 57.71,37.63 58.33,36.96 58.94,36.35 59.56,36.08 60.18,35.48 60.79,34.92 61.41,34.27 62.03,34.03 62.65,33.67 63.26,33.15 63.88,32.70 64.50,32.45 65.12,31.97 65.73,31.58 66.35,31.32 66.97,30.85 67.59,30.17 68.20,29.58 68.82,29.03 69.44,28.55 70.05,28.36 70.67,27.77 71.29,26.99 71.91,26.15 72.52,25.59 73.14,25.02 73.76,24.54 74.38,24.29 74.99,24.32 75.61,24.10 76.23,23.53 76.85,22.83 77.46,22.65 78.08,22.39 78.70,21.96 79.32,21.78 79.93,21.50 80.55,20.96 81.17,20.09 81.78,19.45 82.40,19.04 83.02,18.47 83.64,17.77 84.25,17.71 84.87,16.91 85.49,16.20 86.11,15.81 86.72,15.29 87.34,14.60 87.96,14.11 88.58,13.90 89.19,13.27 89.81,12.80 90.43,12.40 91.04,12.06 91.66,11.93 92.28,11.54 92.90,10.98 93.51,10.80 94.13,10.82 94.75,10.60 95.37,10.37 95.98,10.01 96.60,9.61 97.22,9.20 97.84,8.98 98.45,8.51 99.07,7.84 99.69,7.02 100.30,6.50 100.92,6.31 101.54,52.83 102.16,53.36 102.77,54.09 103.39,54.15 104.01,54.56 104.63,54.43 105.24,53.86 105.86,53.03 106.48,52.39 107.10,51.85 107.71,51.34 108.33,50.83 108.95,50.69 109.56,49.93 110.18,49.13 110.80,48.71 111.42,48.49 112.03,48.40 112.65,46.93 113.27,46.85 113.89,47.52 114.50,46.46 115.12,46.72 115.74,47.35 116.36,46.50 116.97,47.88 117.59,47.15 118.21,47.75 118.82,46.51 119.44,47.03 120.06,47.30 120.68,47.88 121.29,47.70 121.91,47.13 122.53,47.78 123.15,47.10 123.76,47.52 124.38,47.47 125.00,47.02 125.62,46.47 126.23,46.05 126.85,47.02 127.47,46.59 128.08,46.47 128.70,46.78 129.32,47.40 129.94,47.06 130.55,47.97 131.17,47.97 131.79,49.48 132.41,48.80 133.02,47.96 133.64,49.70 134.26,51.00 134.88,51.34 135.49,51.65 136.11,51.41 136.73,50.42 137.34,49.61 137.96,49.41 138.58,47.71 139.20,47.71 139.81,46.48 140.43,46.48 141.05,45.75 141.67,46.43 142.28,47.00 142.90,45.96 143.52,44.24 144.14,43.63 144.75,45.25 145.37,45.06 145.99,45.06 146.60,45.25 147.22,43.88 147.84,44.25 148.46,42.78 149.07,43.22 149.69,41.77 150.31,40.44 150.93,39.31 151.54,38.66 152.16,39.77 152.78,38.01 153.40,38.28 154.01,36.64 154.63,38.24 155.25,37.08 155.86,36.82 156.48,34.70 157.10,36.31 157.72,36.37 158.33,34.57 158.95,34.18 159.57,33.73 160.19,33.73 160.80,33.17 161.42,32.54 162.04,31.91 162.66,33.34 163.27,31.23 163.89,30.65 164.51,30.42 165.12,29.15 165.74,28.00 166.36,29.25 166.98,28.65 167.59,26.24 168.21,26.70 168.83,24.01 169.45,24.64 170.06,23.71 170.68,24.44 171.30,23.08 171.92,21.69 172.53,22.37 173.15,23.62 173.77,21.89 174.38,22.65 175.00,21.20 175.62,19.97 176.24,19.47 176.85,19.66 177.47,20.11 178.09,21.20 178.71,21.83 179.32,19.76 179.94,18.55 180.56,18.55 181.18,17.86 181.79,17.30 182.41,15.87 183.03,15.27 183.64,13.59 184.26,14.45 184.88,13.49 185.50,12.78 186.11,13.59 186.73,14.37 187.35,12.37 187.97,12.11 188.58,10.39 189.20,11.41 189.82,11.39 190.44,12.72 191.05,10.41 191.67,10.59 192.29,10.13 192.90,11.14 193.52,9.64 194.14,9.64 194.76,8.28 195.37,9.36 195.99,9.99 196.61,7.79 197.23,7.33 197.84,6.78 198.46,6.49 199.08,54.20 199.70,54.20 200.31,54.20 200.93,56.00 201.55,56.00 202.16,54.09 202.78,54.09 203.40,54.09 204.02,51.85 204.63,51.85 205.25,51.85 205.87,51.44 206.49,49.56 207.10,49.56 207.72,49.56 208.34,47.62 208.96,47.62 209.57,47.62 210.19,48.23 210.81,48.23 211.42,48.23 212.04,44.93 212.66,49.64 213.28,49.64 213.89,47.06 214.51,47.06 215.13,47.06 215.75,47.64 216.36,47.64 216.98,47.64 217.60,47.64 218.22,47.32 218.83,47.32 219.45,48.12 220.07,48.12 220.68,42.44 221.30,42.24 221.92,42.24 222.54,42.24 223.15,41.48 223.77,41.48 224.39,46.83 225.01,46.83 225.62,46.83 226.24,48.63 226.86,48.63 227.48,45.48 228.09,51.36 228.71,51.36 229.33,51.36 229.95,49.88 230.56,49.88 231.18,49.88 231.80,51.51 232.41,51.51 233.03,51.51 233.65,51.51 234.27,47.87 234.88,47.87 235.50,47.87 236.12,47.87 236.74,48.26 237.35,42.67 237.97,42.67 238.59,43.22 239.21,43.22 239.82,43.22 240.44,40.11 241.06,40.11 241.67,38.24 242.29,43.69 242.91,43.69 243.53,43.69 244.14,43.69 244.76,40.00 245.38,40.00 246.00,40.00 246.61,42.11 247.23,42.11 247.85,39.23 248.47,39.23 249.08,35.51 249.70,35.51 250.32,35.51 250.93,30.30 251.55,30.30 252.17,37.88 252.79,32.80 253.40,32.80 254.02,32.80 254.64,32.80 255.26,32.25 255.87,32.25 256.49,32.25 257.11,25.50 257.73,25.50 258.34,30.74 258.96,30.74 259.58,24.03 260.19,29.18 260.81,29.18 261.43,29.18 262.05,24.12 262.66,24.12 263.28,24.12 263.90,29.16 264.52,29.16 265.13,21.77 265.75,22.87 266.37,22.87 266.99,22.87 267.60,27.40 268.22,21.86 268.84,21.86 269.45,21.86 270.07,18.91 270.69,18.91 271.31,18.91 271.92,14.72 272.54,14.72 273.16,14.72 273.78,14.73 274.39,14.73 275.01,14.73 275.63,16.06 276.25,16.06 276.86,16.06 277.48,19.03 278.10,19.03 278.71,14.73 279.33,14.73 279.95,10.18 280.57,10.18 281.18,10.18 281.80,12.30 282.42,12.30 283.04,12.30 283.65,6.93 284.27,6.93 284.89,6.93 285.51,12.26 286.12,6.57 286.74,6.57 287.36,6.57 287.97,12.91 288.59,5.73 289.21,5.73 289.83,5.73 290.44,10.98 291.06,4.00 291.68,4.00 292.30,4.00 292.91,7.17 293.53,7.17 294.15,7.17 294.77,7.76 295.38,7.76 296.00,7.84" />
</svg>