<svg width="300" height="60" xmlns="http://www.w3.org/2000/svg">
  <polyline fill="rgba(255,200,0,0.3)" stroke="#ffbb00" stroke-width="2" points="4.00,4.75 4.85,5.64 5.70,7.16 6.55,8.48 7.40,9.49 8.24,10.62 9.09,11.63 9.94,12.50 10.79,13.23 11.64,13.75 12.49,14.65 13.34,15.62 14.19,16.07 15.03,16.61 15.88,17.06 16.73,17.46 17.58,18.03 18.43,18.48 19.28,19.42 20.13,20.40 20.98,21.43 21.83,22.21 22.67,23.06 23.52,23.81 24.37,24.36 25.22,25.09 26.07,25.81 26.92,26.87 27.77,27.60 28.62,28.06 29.47,28.76 30.31,29.93 31.16,31.28 32.01,32.28 32.86,33.08 33.71,33.88 34.56,34.45 35.41,35.24 36.26,36.33 37.10,37.19 37.95,37.99 38.80,38.54 39.65,38.81 40.50,39.21 41.35,39.60 42.20,40.40 43.05,41.63 43.90,43.29 44.74,44.87 45.59,45.98 46.44,45.84 47.29,43.60 48.14,43.19 48.99,40.00 49.84,39.28 50.69,39.13 51.53,39.63 52.38,40.34 53.23,41.16 54.08,41.99 54.93,42.77 55.78,43.68 56.63,44.37 57.48,45.21 58.33,45.96 59.17,46.67 60.02,47.27 60.87,47.95 61.72,48.94 62.57,49.81 63.42,50.71 64.27,51.47 65.12,52.34 65.97,52.97 66.81,53.81 67.66,54.40 68.51,54.86 69.36,55.28 70.21,55.48 71.06,55.50 71.91,55.53 72.76,55.12 73.60,54.72 74.45,54.30 75.30,53.81 76.15,53.34 77.00,53.14 77.85,52.76 78.70,52.37 79.55,52.07 80.40,51.83 81.24,51.37 82.09,51.26 82.94,50.54 83.79,49.72 84.64,49.18 85.49,48.50 86.34,48.37 87.19,48.84 88.03,48.46 88.88,48.24 89.73,47.87 90.58,47.41 91.43,47.12 92.28,46.75 93.13,46.43 93.98,46.55 94.83,45.99 95.67,45.73 96.52,45.51 97.37,45.80 98.22,46.40 99.07,47.34 99.92,47.96 100.77,48.36 101.62,4.06 102.47,5.83 103.31,7.95 104.16,8.24 105.01,10.57 105.86,10.97 106.71,11.33 107.56,13.65 108.41,13.90 109.26,13.92 110.10,14.15 110.95,16.79 111.80,16.81 112.65,16.60 113.50,17.97 114.35,17.56 115.20,18.79 116.05,18.47 116.90,19.70 117.74,21.16 118.59,20.86 119.44,22.17 120.29,23.13 121.14,24.04 121.99,25.00 122.84,25.00 123.69,26.10 124.53,27.53 125.38,27.39 126.23,28.52 127.08,28.71 127.93,30.53 128.78,31.17 129.63,31.89 130.48,33.21 131.33,33.87 132.17,34.56 133.02,35.31 133.87,36.10 134.72,37.01 135.57,37.86 136.42,38.49 137.27,38.81 138.12,39.14 138.97,39.61 139.81,40.25 140.66,41.54 141.51,42.66 142.36,42.50 143.21,44.56 144.06,43.68 144.91,43.61 145.76,42.11 146.60,41.82 147.45,41.00 148.30,40.25 149.15,40.04 150.00,40.23 150.85,41.80 151.70,42.02 152.55,42.40 153.40,43.82 154.24,44.50 155.09,45.04 155.94,46.19 156.79,46.68 157.64,47.22 158.49,48.07 159.34,48.81 160.19,49.52 161.03,50.97 161.88,51.77 162.73,52.35 163.58,52.92 164.43,53.52 165.28,54.14 166.13,55.12 166.98,55.42 167.83,55.52 168.67,55.54 169.52,55.56 170.37,55.26 171.22,54.96 172.07,54.33 172.92,53.91 173.77,53.20 174.62,52.86 175.47,52.79 176.31,52.79 177.16,52.70 178.01,52.49 178.86,51.27 179.71,51.10 180.56,49.68 181.41,49.49 182.26,49.51 183.10,48.26 183.95,48.71 184.80,47.76 185.65,48.34 186.50,47.48 187.35,48.60 188.20,48.65 189.05,46.84 189.90,46.18 190.74,46.42 191.59,46.05 192.44,46.12 193.29,45.81 194.14,45.65 194.99,45.81 195.84,46.23 196.69,47.31 197.53,47.90 198.38,48.34 199.23,4.00 200.08,9.34 200.93,9.34 201.78,10.18 202.63,10.18 203.48,10.18 204.33,11.29 205.17,16.77 206.02,16.77 206.87,17.68 207.72,17.68 208.57,18.29 209.42,18.29 210.27,18.29 211.12,17.96 211.97,17.96 212.81,22.68 213.66,21.59 214.51,21.59 215.36,21.59 216.21,21.59 217.06,26.16 217.91,24.66 218.76,24.66 219.60,29.02 220.45,29.02 221.30,27.67 222.15,27.67 223.00,27.67 223.85,31.23 224.70,31.23 225.55,31.23 226.40,32.54 227.24,32.54 228.09,34.56 228.94,34.56 229.79,34.56 230.64,36.64 231.49,36.64 232.34,36.64 233.19,39.01 234.03,39.01 234.88,40.88 235.73,40.88 236.58,40.88 237.43,40.95 238.28,40.95 239.13,40.95 239.98,40.95 240.83,43.58 241.67,38.59 242.52,38.59 243.37,40.28 244.22,40.28 245.07,40.98 245.92,40.98 246.77,40.98 247.62,40.70 248.47,46.02 249.31,46.02 250.16,45.69 251.01,45.69 251.86,45.83 252.71,45.83 253.56,45.83 254.41,46.93 255.26,46.93 256.10,50.42 256.95,50.43 257.80,50.43 258.65,51.55 259.50,51.55 260.35,51.55 261.20,53.07 262.05,53.07 262.90,53.07 263.74,54.60 264.59,54.60 265.44,55.74 266.29,55.74 267.14,55.74 267.99,56.00 268.84,55.88 269.69,55.88 270.53,53.98 271.38,53.98 272.23,53.98 273.08,52.95 273.93,52.95 274.78,52.95 275.63,52.95 276.48,49.91 277.33,52.44 278.17,52.44 279.02,48.62 279.87,48.62 280.72,48.62 281.57,48.90 282.42,48.90 283.27,48.90 284.12,46.42 284.97,46.42 285.81,50.15 286.66,47.02 287.51,47.02 288.36,47.02 289.21,45.68 290.06,45.68 290.91,45.68 291.76,45.70 292.60,45.70 293.45,45.70 294.30,46.76 295.15,46.76 296.00,48.45" />
</svg>