<svg width="300" height="60" xmlns="http://www.w3.org/2000/svg">
  <polyline fill="rgba(255,200,0,0.3)" stroke="#ffbb00" stroke-width="2" points="4.00,34.65 4.08,34.48 4.16,34.26 4.24,34.10 4.32,33.91 4.40,33.67 4.48,33.57 4.56,33.43 4.64,33.22 4.72,33.01 4.81,32.80 4.89,32.61 4.97,32.47 5.05,32.20 5.13,31.94 5.21,31.77 5.29,31.53 5.37,31.31 5.45,31.18 5.53,30.97 5.61,30.88 5.69,30.77 5.77,30.60 5.85,30.44 5.93,30.29 6.01,30.14 6.09,29.99 6.17,29.97 6.25,30.01 6.33,29.86 6.42,29.60 6.50,29.48 6.58,29.36 6.66,29.18 6.74,29.01 6.82,28.81 6.90,28.57 6.98,28.37 7.06,28.28 7.14,28.10 7.22,27.87 7.30,27.63 7.38,27.50 7.46,27.36 7.54,27.25 7.62,27.11 7.70,26.88 7.78,26.69 7.86,26.52 7.94,26.40 8.03,26.23 8.11,26.06 8.19,25.87 8.27,25.77 8.35,25.55 8.43,25.35 8.51,25.26 8.59,25.11 8.67,24.93 8.75,24.74 8.83,24.71 8.91,24.61 8.99,24.48 9.07,24.30 9.15,24.08 9.23,23.91 9.31,23.80 9.39,23.67 9.47,23.63 9.56,23.42 9.64,23.22 9.72,22.95 9.80,22.83 9.88,22.84 9.96,22.84 10.04,22.83 10.12,22.86 10.20,22.89 10.28,22.88 10.36,22.88 10.44,22.84 10.52,22.80 10.60,22.87 10.68,22.98 10.76,22.99 10.84,23.16 10.92,23.12 11.00,23.25 11.08,23.44 11.17,23.43 11.25,23.44 11.33,23.41 11.41,23.40 11.49,23.36 11.57,23.30 11.65,23.27 11.73,23.26 11.81,23.24 11.89,23.20 11.97,23.13 12.05,23.10 12.13,23.04 12.21,22.98 12.29,22.91 12.37,22.85 12.45,22.79 12.53,22.71 12.61,22.77 12.69,22.68 12.78,22.63 12.86,22.51 12.94,22.41 13.02,22.32 13.10,22.29 13.18,22.34 13.26,22.32 13.34,22.47 13.42,22.50 13.50,22.54 13.58,22.53 13.66,22.60 13.74,22.58 13.82,22.56 13.90,22.56 13.98,22.46 14.06,22.41 14.14,22.32 14.22,22.31 14.30,22.24 14.39,22.23 14.47,22.20 14.55,22.08 14.63,21.97 14.71,21.77 14.79,21.65 14.87,21.51 14.95,21.38 15.03,21.26 15.11,21.04 15.19,20.90 15.27,20.73 15.35,20.53 15.43,20.38 15.51,20.17 15.59,20.07 15.67,19.89 15.75,19.77 15.83,19.55 15.92,19.37 16.00,19.35 16.08,19.19 16.16,19.05 16.24,18.93 16.32,18.90 16.40,18.71 16.48,18.53 16.56,18.35 16.64,18.22 16.72,18.19 16.80,18.08 16.88,18.02 16.96,18.00 17.04,17.89 17.12,17.74 17.20,17.69 17.28,17.66 17.36,17.64 17.44,17.67 17.53,17.86 17.61,17.94 17.69,17.79 17.77,17.70 17.85,17.61 17.93,17.50 18.01,17.39 18.09,17.36 18.17,17.35 18.25,17.37 18.33,17.38 18.41,17.35 18.49,17.29 18.57,17.29 18.65,17.20 18.73,17.02 18.81,16.94 18.89,16.82 18.97,16.76 19.05,16.66 19.14,16.57 19.22,16.55 19.30,16.47 19.38,16.34 19.46,16.23 19.54,16.22 19.62,16.20 19.70,16.17 19.78,16.12 19.86,16.16 19.94,16.22 20.02,16.26 20.10,16.31 20.18,16.33 20.26,16.35 20.34,16.40 20.42,16.40 20.50,16.49 20.58,16.31 20.67,16.28 20.75,16.25 20.83,16.21 20.91,16.16 20.99,16.13 21.07,16.12 21.15,16.15 21.23,16.22 21.31,16.25 21.39,16.33 21.47,16.40 21.55,16.49 21.63,16.61 21.71,16.64 21.79,16.53 21.87,16.55 21.95,16.50 22.03,16.45 22.11,16.46 22.19,16.36 22.28,16.31 22.36,16.31 22.44,16.12 22.52,15.92 22.60,15.73 22.68,15.71 22.76,15.66 22.84,15.52 22.92,15.37 23.00,15.25 23.08,15.20 23.16,15.05 23.24,14.95 23.32,14.93 23.40,14.93 23.48,14.90 23.56,14.80 23.64,14.67 23.72,14.53 23.80,14.44 23.89,14.43 23.97,14.38 24.05,14.32 24.13,14.34 24.21,14.31 24.29,14.30 24.37,14.24 24.45,14.11 24.53,14.03 24.61,13.96 24.69,13.91 24.77,13.86 24.85,13.78 24.93,13.69 25.01,13.71 25.09,13.91 25.17,13.61 25.25,13.50 25.33,13.50 25.41,13.52 25.50,13.51 25.58,13.54 25.66,13.64 25.74,13.65 25.82,13.68 25.90,13.78 25.98,13.88 26.06,13.99 26.14,14.01 26.22,14.15 26.30,14.18 26.38,14.24 26.46,14.29 26.54,14.36 26.62,14.49 26.70,14.52 26.78,14.55 26.86,14.63 26.94,14.71 27.03,14.71 27.11,14.80 27.19,14.83 27.27,14.86 27.35,14.86 27.43,14.91 27.51,14.87 27.59,14.86 27.67,14.86 27.75,14.79 27.83,14.69 27.91,14.63 27.99,14.59 28.07,14.52 28.15,14.40 28.23,14.29 28.31,14.20 28.39,14.13 28.47,14.04 28.55,13.94 28.64,13.90 28.72,13.80 28.80,13.77 28.88,13.68 28.96,13.59 29.04,13.51 29.12,13.50 29.20,13.44 29.28,13.32 29.36,13.21 29.44,13.13 29.52,13.04 29.60,12.96 29.68,12.97 29.76,13.02 29.84,13.04 29.92,13.05 30.00,13.11 30.08,13.12 30.16,13.16 30.25,13.21 30.33,13.26 30.41,13.26 30.49,13.31 30.57,13.39 30.65,13.42 30.73,13.51 30.81,13.60 30.89,13.70 30.97,13.69 31.05,13.75 31.13,13.84 31.21,13.91 31.29,13.99 31.37,14.04 31.45,14.12 31.53,14.20 31.61,14.20 31.69,14.22 31.78,14.33 31.86,14.40 31.94,14.51 32.02,14.54 32.10,14.60 32.18,14.65 32.26,14.71 32.34,14.82 32.42,14.86 32.50,15.04 32.58,15.08 32.66,15.24 32.74,15.37 32.82,15.41 32.90,15.49 32.98,15.59 33.06,15.69 33.14,15.74 33.22,15.87 33.30,16.00 33.39,16.06 33.47,16.20 33.55,16.34 33.63,16.36 33.71,16.51 33.79,16.66 33.87,16.74 33.95,16.91 34.03,16.97 34.11,17.14 34.19,17.30 34.27,17.37 34.35,17.54 34.43,17.66 34.51,17.75 34.59,17.92 34.67,17.97 34.75,18.04 34.83,18.09 34.91,18.18 35.00,18.17 35.08,18.14 35.16,18.06 35.24,18.04 35.32,17.95 35.40,17.78 35.48,17.74 35.56,17.68 35.64,17.61 35.72,17.64 35.80,17.56 35.88,17.58 35.96,17.58 36.04,17.56 36.12,17.58 36.20,17.68 36.28,17.68 36.36,17.71 36.44,17.65 36.52,17.53 36.61,17.47 36.69,17.30 36.77,17.30 36.85,17.16 36.93,17.08 37.01,17.08 37.09,17.11 37.17,17.06 37.25,16.97 37.33,16.85 37.41,16.75 37.49,16.73 37.57,16.62 37.65,16.50 37.73,16.46 37.81,16.35 37.89,16.23 37.97,16.09 38.05,16.08 38.14,15.94 38.22,15.79 38.30,15.79 38.38,15.70 38.46,15.60 38.54,15.48 38.62,15.45 38.70,15.32 38.78,15.21 38.86,15.05 38.94,14.99 39.02,14.85 39.10,14.68 39.18,14.60 39.26,14.47 39.34,14.35 39.42,14.21 39.50,14.14 39.58,13.99 39.66,13.87 39.75,13.74 39.83,13.58 39.91,13.49 39.99,13.36 40.07,13.18 40.15,13.01 40.23,12.92 40.31,12.78 40.39,12.65 40.47,12.53 40.55,12.42 40.63,12.26 40.71,12.09 40.79,11.98 40.87,11.81 40.95,11.65 41.03,11.48 41.11,11.32 41.19,11.21 41.27,11.03 41.36,10.89 41.44,10.83 41.52,10.73 41.60,10.59 41.68,10.46 41.76,10.40 41.84,10.26 41.92,10.12 42.00,10.01 42.08,9.89 42.16,9.85 42.24,9.72 42.32,9.55 42.40,9.40 42.48,9.27 42.56,9.07 42.64,8.97 42.72,8.76 42.80,8.61 42.89,8.48 42.97,8.26 43.05,8.11 43.13,7.99 43.21,7.99 43.29,7.78 43.37,7.67 43.45,7.57 43.53,7.42 43.61,7.26 43.69,7.10 43.77,7.01 43.85,6.85 43.93,6.69 44.01,6.56 44.09,6.39 44.17,6.29 44.25,6.14 44.33,5.98 44.41,5.86 44.50,5.74 44.58,5.61 44.66,5.48 44.74,5.38 44.82,5.33 44.90,5.25 44.98,5.17 45.06,5.05 45.14,5.03 45.22,4.93 45.30,4.83 45.38,4.72 45.46,4.59 45.54,4.51 45.62,4.50 45.70,4.49 45.78,4.52 45.86,4.64 45.94,4.71 46.02,4.79 46.11,4.90 46.19,4.97 46.27,5.12 46.35,5.17 46.43,5.33 46.51,5.51 46.59,5.64 46.67,5.72 46.75,5.86 46.83,6.03 46.91,6.12 46.99,6.22 47.07,6.33 47.15,6.39 47.23,6.47 47.31,6.58 47.39,6.60 47.47,6.68 47.55,6.75 47.63,6.77 47.72,6.88 47.80,6.90 47.88,7.03 47.96,7.06 48.04,7.14 48.12,7.20 48.20,7.24 48.28,7.34 48.36,7.44 48.44,7.49 48.52,7.63 48.60,7.77 48.68,7.93 48.76,8.08 48.84,8.17 48.92,8.35 49.00,8.47 49.08,8.63 49.16,8.76 49.25,8.82 49.33,8.90 49.41,8.98 49.49,8.98 49.57,9.03 49.65,9.11 49.73,9.17 49.81,9.19 49.89,9.27 49.97,9.35 50.05,9.45 50.13,9.46 50.21,9.54 50.29,9.60 50.37,9.66 50.45,9.64 50.53,9.68 50.61,9.74 50.69,9.84 50.77,9.90 50.86,9.96 50.94,10.00 51.02,10.08 51.10,10.11 51.18,10.14 51.26,10.16 51.34,10.16 51.42,10.12 51.50,10.13 51.58,10.20 51.66,10.24 51.74,10.27 51.82,10.27 51.90,10.23 51.98,10.29 52.06,10.32 52.14,10.28 52.22,10.18 52.30,10.13 52.38,10.08 52.47,10.04 52.55,9.98 52.63,9.91 52.71,9.82 52.79,9.79 52.87,9.68 52.95,9.58 53.03,9.48 53.11,9.42 53.19,9.37 53.27,9.34 53.35,9.30 53.43,9.22 53.51,9.14 53.59,9.10 53.67,9.07 53.75,9.09 53.83,9.02 53.91,8.96 54.00,8.89 54.08,8.77 54.16,8.69 54.24,8.68 54.32,8.63 54.40,8.55 54.48,8.47 54.56,8.39 54.64,8.30 54.72,8.25 54.80,8.28 54.88,8.22 54.96,8.18 55.04,8.15 55.12,8.16 55.20,8.16 55.28,8.22 55.36,8.30 55.44,8.34 55.52,8.45 55.61,8.49 55.69,8.58 55.77,8.69 55.85,8.79 55.93,8.76 56.01,8.84 56.09,8.86 56.17,8.88 56.25,8.90 56.33,8.94 56.41,9.00 56.49,9.04 56.57,9.08 56.65,9.09 56.73,9.17 56.81,9.26 56.89,9.32 56.97,9.33 57.05,9.43 57.13,9.44 57.22,9.52 57.30,9.60 57.38,9.68 57.46,9.72 57.54,9.78 57.62,9.82 57.70,9.87 57.78,9.91 57.86,9.92 57.94,9.90 58.02,9.88 58.10,9.90 58.18,9.90 58.26,9.83 58.34,9.84 58.42,9.87 58.50,9.88 58.58,9.84 58.66,9.85 58.74,9.85 58.83,9.87 58.91,9.94 58.99,9.99 59.07,10.01 59.15,10.03 59.23,10.03 59.31,9.99 59.39,9.96 59.47,9.89 59.55,9.92 59.63,9.86 59.71,9.90 59.79,9.96 59.87,10.00 59.95,10.13 60.03,10.21 60.11,10.29 60.19,10.40 60.27,10.45 60.36,10.55 60.44,10.68 60.52,10.83 60.60,10.91 60.68,11.07 60.76,11.12 60.84,11.26 60.92,11.42 61.00,11.59 61.08,11.65 61.16,11.65 61.24,11.75 61.32,11.76 61.40,11.89 61.48,12.01 61.56,12.02 61.64,12.14 61.72,12.28 61.80,12.40 61.88,12.53 61.97,12.62 62.05,12.79 62.13,12.89 62.21,12.96 62.29,13.01 62.37,13.13 62.45,13.26 62.53,13.34 62.61,13.47 62.69,13.61 62.77,13.76 62.85,13.94 62.93,13.98 63.01,14.14 63.09,14.28 63.17,14.34 63.25,14.50 63.33,14.61 63.41,14.77 63.49,14.87 63.58,15.04 63.66,15.16 63.74,15.20 63.82,15.33 63.90,15.44 63.98,15.47 64.06,15.54 64.14,15.65 64.22,15.73 64.30,15.81 64.38,15.89 64.46,15.91 64.54,16.03 64.62,16.09 64.70,16.10 64.78,16.12 64.86,16.24 64.94,16.32 65.02,16.52 65.11,16.64 65.19,16.74 65.27,16.84 65.35,16.87 65.43,17.03 65.51,17.19 65.59,17.36 65.67,17.53 65.75,17.72 65.83,17.92 65.91,18.08 65.99,18.21 66.07,18.37 66.15,55.34 66.23,55.52 66.31,55.64 66.39,55.73 66.47,55.78 66.55,55.64 66.63,55.51 66.72,55.52 66.80,55.67 66.88,55.74 66.96,55.84 67.04,55.66 67.12,55.53 67.20,55.50 67.28,55.47 67.36,55.46 67.44,55.34 67.52,55.30 67.60,55.37 67.68,55.30 67.76,55.27 67.84,55.11 67.92,54.98 68.00,54.71 68.08,54.60 68.16,54.57 68.24,54.59 68.33,54.42 68.41,54.36 68.49,54.48 68.57,54.78 68.65,54.60 68.73,54.22 68.81,53.92 68.89,53.87 68.97,53.99 69.05,53.96 69.13,53.78 69.21,53.67 69.29,53.67 69.37,53.87 69.45,53.91 69.53,53.92 69.61,54.40 69.69,54.13 69.77,53.78 69.85,53.38 69.94,53.12 70.02,53.12 70.10,53.38 70.18,53.54 70.26,53.22 70.34,53.09 70.42,53.18 70.50,52.93 70.58,52.60 70.66,52.37 70.74,52.39 70.82,52.52 70.90,52.67 70.98,52.85 71.06,53.01 71.14,53.07 71.22,53.05 71.30,52.87 71.38,52.94 71.47,53.00 71.55,53.08 71.63,52.81 71.71,52.33 71.79,51.78 71.87,51.65 71.95,51.46 72.03,51.55 72.11,51.60 72.19,51.77 72.27,51.58 72.35,51.36 72.43,51.25 72.51,50.99 72.59,51.13 72.67,51.07 72.75,50.97 72.83,50.89 72.91,50.91 72.99,51.15 73.08,51.29 73.16,51.49 73.24,51.67 73.32,51.79 73.40,51.89 73.48,51.79 73.56,51.46 73.64,51.02 73.72,50.99 73.80,50.85 73.88,50.80 73.96,50.76 74.04,50.71 74.12,50.68 74.20,50.64 74.28,50.55 74.36,50.57 74.44,50.65 74.52,50.72 74.60,50.76 74.69,50.87 74.77,50.82 74.85,50.83 74.93,50.86 75.01,50.93 75.09,50.98 75.17,50.98 75.25,51.12 75.33,51.15 75.41,51.23 75.49,51.19 75.57,51.17 75.65,50.99 75.73,50.91 75.81,50.92 75.89,51.23 75.97,51.62 76.05,51.46 76.13,51.20 76.22,51.04 76.30,51.06 76.38,51.16 76.46,51.19 76.54,51.06 76.62,50.91 76.70,50.88 76.78,50.88 76.86,51.12 76.94,51.47 77.02,51.48 77.10,51.29 77.18,51.17 77.26,51.18 77.34,51.37 77.42,51.65 77.50,51.76 77.58,51.61 77.66,51.57 77.74,51.51 77.83,51.41 77.91,51.23 77.99,50.91 78.07,50.77 78.15,50.70 78.23,50.74 78.31,50.74 78.39,50.73 78.47,50.74 78.55,50.70 78.63,50.67 78.71,50.67 78.79,50.65 78.87,50.59 78.95,50.54 79.03,50.48 79.11,50.43 79.19,50.38 79.27,50.22 79.35,49.98 79.44,49.83 79.52,49.85 79.60,49.76 79.68,49.68 79.76,49.61 79.84,49.52 79.92,49.42 80.00,49.34 80.08,49.31 80.16,49.32 80.24,49.30 80.32,49.28 80.40,49.32 80.48,49.38 80.56,49.44 80.64,49.50 80.72,49.50 80.80,49.52 80.88,49.57 80.96,49.61 81.05,49.66 81.13,49.71 81.21,49.78 81.29,49.79 81.37,49.70 81.45,49.57 81.53,49.41 81.61,49.26 81.69,49.32 81.77,49.30 81.85,49.29 81.93,49.32 82.01,49.26 82.09,49.21 82.17,49.13 82.25,49.01 82.33,48.89 82.41,48.92 82.49,48.99 82.58,49.03 82.66,49.04 82.74,48.90 82.82,48.92 82.90,49.14 82.98,49.41 83.06,49.50 83.14,49.56 83.22,49.56 83.30,49.60 83.38,49.64 83.46,49.66 83.54,49.61 83.62,49.64 83.70,49.68 83.78,49.83 83.86,49.85 83.94,49.89 84.02,50.07 84.10,50.27 84.19,50.10 84.27,50.19 84.35,50.10 84.43,49.70 84.51,49.37 84.59,49.02 84.67,48.66 84.75,48.24 84.83,48.14 84.91,47.94 84.99,47.73 85.07,47.75 85.15,47.78 85.23,47.75 85.31,47.72 85.39,47.35 85.47,47.27 85.55,47.10 85.63,46.87 85.71,46.57 85.80,46.57 85.88,46.39 85.96,46.12 86.04,46.05 86.12,45.90 86.20,45.78 86.28,45.71 86.36,45.70 86.44,45.59 86.52,45.48 86.60,45.47 86.68,45.46 86.76,45.49 86.84,45.48 86.92,45.48 87.00,45.43 87.08,45.46 87.16,45.46 87.24,45.50 87.33,45.52 87.41,45.53 87.49,45.58 87.57,45.62 87.65,45.61 87.73,45.64 87.81,45.69 87.89,45.75 87.97,45.73 88.05,45.72 88.13,45.63 88.21,45.67 88.29,45.85 88.37,45.94 88.45,46.14 88.53,46.23 88.61,46.33 88.69,46.34 88.77,46.31 88.85,46.38 88.94,46.40 89.02,46.46 89.10,46.54 89.18,46.60 89.26,46.58 89.34,46.85 89.42,46.72 89.50,46.76 89.58,46.90 89.66,46.92 89.74,46.92 89.82,46.86 89.90,46.79 89.98,46.78 90.06,46.82 90.14,46.60 90.22,46.29 90.30,46.20 90.38,46.30 90.46,46.43 90.55,46.57 90.63,46.75 90.71,47.02 90.79,47.30 90.87,47.47 90.95,47.61 91.03,47.75 91.11,47.80 91.19,47.84 91.27,47.73 91.35,47.56 91.43,47.38 91.51,47.21 91.59,46.96 91.67,46.68 91.75,46.52 91.83,46.42 91.91,46.40 91.99,46.38 92.07,46.20 92.16,46.03 92.24,45.88 92.32,45.76 92.40,45.67 92.48,45.63 92.56,45.56 92.64,45.52 92.72,45.30 92.80,45.02 92.88,44.88 92.96,44.79 93.04,44.75 93.12,44.64 93.20,44.52 93.28,44.60 93.36,44.66 93.44,44.67 93.52,44.74 93.60,44.78 93.69,44.95 93.77,45.03 93.85,45.00 93.93,44.75 94.01,44.82 94.09,45.25 94.17,45.41 94.25,45.42 94.33,45.40 94.41,45.36 94.49,45.32 94.57,45.29 94.65,45.42 94.73,45.47 94.81,45.42 94.89,45.41 94.97,45.44 95.05,45.42 95.13,45.33 95.21,45.30 95.30,45.35 95.38,45.39 95.46,44.98 95.54,44.89 95.62,44.81 95.70,44.86 95.78,44.84 95.86,44.74 95.94,44.56 96.02,44.48 96.10,44.34 96.18,44.42 96.26,44.25 96.34,43.95 96.42,43.81 96.50,43.75 96.58,43.58 96.66,43.45 96.74,43.29 96.82,43.13 96.91,42.95 96.99,42.76 97.07,42.62 97.15,42.55 97.23,42.36 97.31,42.20 97.39,42.12 97.47,42.04 97.55,41.82 97.63,41.66 97.71,41.52 97.79,41.44 97.87,41.31 97.95,41.21 98.03,41.18 98.11,41.00 98.19,40.79 98.27,40.69 98.35,40.56 98.44,40.31 98.52,40.15 98.60,39.92 98.68,39.66 98.76,39.38 98.84,39.24 98.92,39.00 99.00,38.76 99.08,38.53 99.16,38.45 99.24,38.27 99.32,38.08 99.40,37.89 99.48,37.70 99.56,37.62 99.64,37.43 99.72,37.25 99.80,37.07 99.88,36.85 99.96,36.80 100.05,36.61 100.13,36.44 100.21,36.31 100.29,36.30 100.37,36.20 100.45,36.10 100.53,36.02 100.61,35.90 100.69,35.86 100.77,35.72 100.85,35.55 100.93,35.49 101.01,35.34 101.09,35.13 101.17,34.96 101.25,34.76 101.33,34.65 101.41,55.37 101.49,55.47 101.57,55.55 101.66,55.72 101.74,55.75 101.82,55.62 101.90,55.58 101.98,55.62 102.06,55.70 102.14,55.62 102.22,55.58 102.30,55.88 102.38,55.83 102.46,55.79 102.54,55.74 102.62,55.24 102.70,55.17 102.78,55.17 102.86,55.19 102.94,55.18 103.02,55.15 103.10,55.07 103.19,54.80 103.27,54.65 103.35,54.55 103.43,54.50 103.51,54.48 103.59,54.48 103.67,54.71 103.75,54.73 103.83,54.96 103.91,54.36 103.99,54.12 104.07,53.99 104.15,54.00 104.23,54.15 104.31,53.81 104.39,53.95 104.47,53.67 104.55,53.60 104.63,53.97 104.71,54.21 104.80,54.10 104.88,54.30 104.96,54.18 105.04,53.53 105.12,53.36 105.20,53.24 105.28,53.24 105.36,53.49 105.44,53.49 105.52,53.23 105.60,53.34 105.68,53.41 105.76,53.03 105.84,52.73 105.92,52.51 106.00,52.41 106.08,52.46 106.16,52.66 106.24,53.26 106.32,53.23 106.41,52.79 106.49,53.17 106.57,53.18 106.65,52.87 106.73,52.98 106.81,53.30 106.89,52.65 106.97,52.21 107.05,51.82 107.13,51.46 107.21,51.55 107.29,51.61 107.37,51.73 107.45,51.73 107.53,51.53 107.61,51.65 107.69,51.38 107.77,51.09 107.85,51.11 107.93,51.16 108.02,50.86 108.10,51.02 108.18,51.15 108.26,51.15 108.34,51.26 108.42,51.44 108.50,51.65 108.58,51.81 108.66,51.89 108.74,51.62 108.82,51.81 108.90,51.16 108.98,51.30 109.06,50.72 109.14,50.75 109.22,50.81 109.30,50.91 109.38,50.72 109.46,50.66 109.55,50.66 109.63,50.58 109.71,50.59 109.79,50.75 109.87,50.66 109.95,50.96 110.03,50.85 110.11,50.75 110.19,50.70 110.27,51.08 110.35,51.03 110.43,50.94 110.51,51.23 110.59,50.98 110.67,51.29 110.75,51.16 110.83,51.34 110.91,50.98 110.99,50.96 111.07,51.10 111.16,51.44 111.24,51.44 111.32,51.59 111.40,51.35 111.48,51.11 111.56,51.03 111.64,51.08 111.72,51.15 111.80,51.17 111.88,50.94 111.96,50.87 112.04,50.71 112.12,51.10 112.20,51.37 112.28,51.67 112.36,51.30 112.44,51.45 112.52,51.35 112.60,51.35 112.68,51.49 112.77,51.52 112.85,51.70 112.93,51.78 113.01,51.39 113.09,51.43 113.17,51.41 113.25,50.94 113.33,50.94 113.41,50.85 113.49,50.76 113.57,50.72 113.65,50.75 113.73,50.77 113.81,50.71 113.89,50.48 113.97,50.66 114.05,50.54 114.13,50.31 114.21,50.47 114.30,50.26 114.38,50.40 114.46,50.40 114.54,50.03 114.62,50.05 114.70,49.85 114.78,49.60 114.86,49.72 114.94,49.75 115.02,49.42 115.10,49.33 115.18,49.29 115.26,49.10 115.34,49.34 115.42,49.24 115.50,49.16 115.58,49.11 115.66,49.12 115.74,49.18 115.82,49.30 115.91,49.49 115.99,49.44 116.07,49.52 116.15,49.57 116.23,49.64 116.31,49.68 116.39,49.72 116.47,49.81 116.55,49.80 116.63,49.71 116.71,49.53 116.79,49.53 116.87,49.33 116.95,49.24 117.03,49.24 117.11,49.24 117.19,49.16 117.27,49.32 117.35,49.03 117.43,49.04 117.52,49.03 117.60,48.77 117.68,48.87 117.76,48.87 117.84,48.87 117.92,48.91 118.00,48.83 118.08,48.96 118.16,49.20 118.24,49.19 118.32,49.42 118.40,49.56 118.48,49.49 118.56,49.52 118.64,49.64 118.72,49.48 118.80,49.47 118.88,49.59 118.96,49.71 119.04,49.84 119.13,49.85 119.21,49.88 119.29,50.05 119.37,50.25 119.45,50.11 119.53,50.17 119.61,50.20 119.69,49.78 119.77,49.55 119.85,49.07 119.93,48.58 120.01,48.34 120.09,48.16 120.17,47.83 120.25,47.76 120.33,47.73 120.41,47.97 120.49,47.77 120.57,47.88 120.66,47.56 120.74,47.26 120.82,47.21 120.90,46.97 120.98,46.70 121.06,46.45 121.14,46.27 121.22,46.21 121.30,45.93 121.38,45.93 121.46,45.77 121.54,45.72 121.62,45.55 121.70,45.48 121.78,45.43 121.86,45.31 121.94,45.45 122.02,45.49 122.10,45.36 122.18,45.37 122.27,45.48 122.35,45.44 122.43,45.42 122.51,45.55 122.59,45.43 122.67,45.44 122.75,45.57 122.83,45.60 122.91,45.45 122.99,45.57 123.07,45.57 123.15,45.72 123.23,45.66 123.31,45.79 123.39,45.61 123.47,45.68 123.55,45.72 123.63,45.86 123.71,46.09 123.79,46.24 123.88,46.20 123.96,46.07 124.04,46.25 124.12,46.05 124.20,46.24 124.28,46.27 124.36,46.49 124.44,46.69 124.52,46.39 124.60,46.62 124.68,46.85 124.76,46.75 124.84,46.78 124.92,46.91 125.00,46.80 125.08,46.67 125.16,46.85 125.24,46.72 125.32,46.87 125.41,46.70 125.49,46.37 125.57,46.18 125.65,46.18 125.73,46.47 125.81,46.58 125.89,46.71 125.97,46.89 126.05,47.33 126.13,47.50 126.21,47.66 126.29,47.81 126.37,47.74 126.45,47.77 126.53,47.69 126.61,47.56 126.69,47.41 126.77,47.23 126.85,47.05 126.93,46.85 127.02,46.64 127.10,46.48 127.18,46.40 127.26,46.37 127.34,46.24 127.42,46.04 127.50,45.95 127.58,45.75 127.66,45.68 127.74,45.64 127.82,45.55 127.90,45.45 127.98,45.29 128.06,45.08 128.14,44.88 128.22,44.73 128.30,44.68 128.38,44.59 128.46,44.51 128.54,44.66 128.63,44.75 128.71,44.77 128.79,44.80 128.87,44.87 128.95,45.08 129.03,45.03 129.11,44.89 129.19,44.91 129.27,44.91 129.35,45.10 129.43,45.51 129.51,45.50 129.59,45.41 129.67,45.32 129.75,45.23 129.83,45.37 129.91,45.39 129.99,45.44 130.07,45.43 130.15,45.39 130.24,45.35 130.32,45.61 130.40,45.51 130.48,45.33 130.56,45.49 130.64,45.30 130.72,45.09 130.80,44.85 130.88,44.91 130.96,45.02 131.04,45.02 131.12,44.94 131.20,44.73 131.28,44.43 131.36,44.51 131.44,44.30 131.52,44.29 131.60,43.92 131.68,43.95 131.77,43.68 131.85,43.70 131.93,43.44 132.01,43.32 132.09,43.23 132.17,42.70 132.25,42.62 132.33,42.59 132.41,42.59 132.49,42.36 132.57,42.26 132.65,42.26 132.73,42.33 132.81,41.83 132.89,41.49 132.97,41.68 133.05,41.71 133.13,41.13 133.21,41.52 133.29,41.31 133.38,41.14 133.46,40.79 133.54,40.70 133.62,40.52 133.70,40.33 133.78,40.01 133.86,39.93 133.94,39.63 134.02,39.23 134.10,39.25 134.18,38.92 134.26,38.66 134.34,38.36 134.42,38.46 134.50,38.28 134.58,38.01 134.66,38.01 134.74,37.72 134.82,37.49 134.90,37.46 134.99,37.22 135.07,36.99 135.15,36.96 135.23,36.77 135.31,36.57 135.39,36.40 135.47,36.26 135.55,36.28 135.63,36.16 135.71,36.04 135.79,36.06 135.87,35.95 135.95,35.83 136.03,35.71 136.11,35.56 136.19,35.38 136.27,35.30 136.35,35.15 136.43,34.91 136.52,34.81 136.60,34.59 136.68,34.43 136.76,34.31 136.84,34.05 136.92,33.94 137.00,33.67 137.08,33.54 137.16,33.30 137.24,33.34 137.32,32.99 137.40,32.60 137.48,32.61 137.56,32.32 137.64,32.24 137.72,32.05 137.80,31.59 137.88,31.53 137.96,31.55 138.04,31.27 138.13,30.91 138.21,31.08 138.29,31.18 138.37,30.53 138.45,30.65 138.53,30.79 138.61,30.17 138.69,30.19 138.77,30.20 138.85,30.17 138.93,30.11 139.01,30.10 139.09,29.49 139.17,29.46 139.25,29.40 139.33,28.90 139.41,28.88 139.49,28.86 139.57,28.30 139.65,28.19 139.74,28.12 139.82,28.11 139.90,27.60 139.98,27.65 140.06,27.28 140.14,27.09 140.22,27.07 140.30,26.86 140.38,26.70 140.46,26.59 140.54,26.10 140.62,26.43 140.70,26.25 140.78,25.87 140.86,25.62 140.94,25.66 141.02,25.33 141.10,25.14 141.18,25.23 141.26,24.77 141.35,24.72 141.43,24.70 141.51,24.66 141.59,24.29 141.67,24.25 141.75,24.24 141.83,23.89 141.91,23.89 141.99,23.61 142.07,23.76 142.15,23.48 142.23,23.20 142.31,22.83 142.39,22.88 142.47,22.83 142.55,22.70 142.63,22.84 142.71,22.93 142.79,23.00 142.88,23.09 142.96,22.86 143.04,22.91 143.12,22.94 143.20,23.02 143.28,23.20 143.36,23.28 143.44,23.30 143.52,23.29 143.60,23.25 143.68,23.63 143.76,23.56 143.84,23.52 143.92,23.49 144.00,23.47 144.08,23.46 144.16,23.44 144.24,23.45 144.32,23.46 144.40,23.41 144.49,23.41 144.57,23.42 144.65,23.12 144.73,23.20 144.81,22.94 144.89,23.01 144.97,22.78 145.05,22.83 145.13,22.87 145.21,22.70 145.29,22.81 145.37,22.66 145.45,22.45 145.53,22.60 145.61,22.41 145.69,22.25 145.77,22.49 145.85,22.63 145.93,22.73 146.01,22.44 146.10,22.57 146.18,22.41 146.26,22.54 146.34,22.58 146.42,22.65 146.50,22.48 146.58,22.53 146.66,22.59 146.74,22.68 146.82,22.23 146.90,22.27 146.98,22.32 147.06,22.35 147.14,21.93 147.22,21.95 147.30,21.94 147.38,21.95 147.46,21.51 147.54,21.46 147.63,21.40 147.71,21.30 147.79,20.77 147.87,20.73 147.95,20.65 148.03,20.59 148.11,20.50 148.19,20.01 148.27,19.91 148.35,19.70 148.43,19.56 148.51,19.42 148.59,19.31 148.67,19.18 148.75,19.09 148.83,18.97 148.91,18.78 148.99,18.73 149.07,18.47 149.15,18.40 149.24,18.13 149.32,18.13 149.40,17.86 149.48,17.92 149.56,18.06 149.64,17.76 149.72,17.87 149.80,17.55 149.88,17.81 149.96,17.45 150.04,17.43 150.12,17.67 150.20,17.82 150.28,17.71 150.36,17.47 150.44,17.58 150.52,17.22 150.60,17.40 150.68,17.43 150.76,17.42 150.85,17.45 150.93,17.15 151.01,17.33 151.09,17.43 151.17,17.50 151.25,16.96 151.33,16.76 151.41,16.97 151.49,16.57 151.57,16.96 151.65,16.61 151.73,16.73 151.81,16.64 151.89,16.34 151.97,16.18 152.05,16.18 152.13,16.09 152.21,16.28 152.29,16.01 152.37,16.01 152.46,15.96 152.54,16.31 152.62,16.22 152.70,16.44 152.78,16.32 152.86,16.32 152.94,16.37 153.02,16.39 153.10,16.39 153.18,16.37 153.26,16.15 153.34,16.35 153.42,16.16 153.50,16.10 153.58,16.12 153.66,16.12 153.74,16.06 153.82,16.22 153.90,16.19 153.99,16.46 154.07,16.44 154.15,16.43 154.23,16.42 154.31,16.76 154.39,16.59 154.47,16.47 154.55,16.45 154.63,16.45 154.71,16.40 154.79,16.22 154.87,16.39 154.95,16.24 155.03,16.37 155.11,16.06 155.19,15.72 155.27,15.77 155.35,15.64 155.43,15.50 155.51,15.37 155.60,15.27 155.68,15.12 155.76,15.30 155.84,15.03 155.92,14.96 156.00,14.87 156.08,14.72 156.16,14.92 156.24,14.65 156.32,14.64 156.40,14.43 156.48,14.50 156.56,14.34 156.64,14.22 156.72,14.65 156.80,14.33 156.88,14.14 156.96,14.18 157.04,14.18 157.12,13.90 157.21,13.96 157.29,13.99 157.37,13.93 157.45,13.83 157.53,13.72 157.61,13.68 157.69,14.08 157.77,13.60 157.85,13.52 157.93,13.30 158.01,13.66 158.09,13.45 158.17,13.67 158.25,13.67 158.33,13.77 158.41,13.67 158.49,13.94 158.57,13.99 158.65,13.72 158.74,14.01 158.82,13.93 158.90,14.07 158.98,14.16 159.06,14.30 159.14,14.53 159.22,14.46 159.30,14.42 159.38,14.42 159.46,14.35 159.54,14.59 159.62,14.53 159.70,14.80 159.78,14.76 159.86,15.04 159.94,14.78 160.02,14.85 160.10,14.95 160.18,14.80 160.26,15.02 160.35,14.91 160.43,14.80 160.51,14.70 160.59,14.56 160.67,14.60 160.75,14.39 160.83,14.40 160.91,14.13 160.99,14.12 161.07,14.05 161.15,13.92 161.23,13.92 161.31,13.70 161.39,13.73 161.47,13.70 161.55,13.63 161.63,13.58 161.71,13.55 161.79,13.51 161.87,13.46 161.96,13.38 162.04,12.89 162.12,13.15 162.20,12.99 162.28,12.86 162.36,13.02 162.44,13.02 162.52,13.18 162.60,13.03 162.68,13.15 162.76,13.23 162.84,13.09 162.92,13.29 163.00,13.19 163.08,13.29 163.16,13.23 163.24,13.41 163.32,13.42 163.40,13.66 163.48,13.71 163.57,13.78 163.65,13.63 163.73,13.66 163.81,13.85 163.89,13.96 163.97,13.86 164.05,14.02 164.13,14.21 164.21,14.08 164.29,14.35 164.37,14.28 164.45,14.21 164.53,14.63 164.61,14.53 164.69,14.46 164.77,14.82 164.85,14.67 164.93,14.93 165.01,14.75 165.10,15.02 165.18,14.92 165.26,15.26 165.34,15.22 165.42,15.56 165.50,15.47 165.58,15.76 165.66,15.63 165.74,15.81 165.82,15.81 165.90,15.88 165.98,15.97 166.06,16.17 166.14,16.24 166.22,16.26 166.30,16.54 166.38,16.61 166.46,16.66 166.54,16.89 166.62,17.03 166.71,17.20 166.79,17.26 166.87,17.44 166.95,17.58 167.03,17.68 167.11,17.68 167.19,17.82 167.27,18.05 167.35,18.15 167.43,18.03 167.51,18.12 167.59,17.96 167.67,18.17 167.75,18.07 167.83,17.77 167.91,18.04 167.99,17.80 168.07,17.65 168.15,17.54 168.23,17.47 168.32,17.65 168.40,17.65 168.48,17.60 168.56,17.64 168.64,17.39 168.72,17.59 168.80,17.68 168.88,17.73 168.96,17.59 169.04,17.55 169.12,17.53 169.20,17.39 169.28,17.22 169.36,17.26 169.44,17.14 169.52,17.02 169.60,17.09 169.68,17.09 169.76,17.04 169.85,16.99 169.93,16.95 170.01,16.82 170.09,16.65 170.17,16.69 170.25,16.50 170.33,16.52 170.41,16.30 170.49,16.17 170.57,16.14 170.65,15.98 170.73,15.94 170.81,15.74 170.89,15.90 170.97,15.71 171.05,15.67 171.13,15.48 171.21,15.47 171.29,15.28 171.37,15.15 171.46,14.96 171.54,15.02 171.62,14.83 171.70,14.60 171.78,14.47 171.86,14.54 171.94,14.35 172.02,14.23 172.10,14.04 172.18,14.00 172.26,13.90 172.34,13.63 172.42,13.59 172.50,13.44 172.58,13.25 172.66,13.08 172.74,12.95 172.82,12.84 172.90,12.70 172.98,12.59 173.07,12.46 173.15,12.29 173.23,12.12 173.31,12.15 173.39,12.01 173.47,11.84 173.55,11.67 173.63,11.47 173.71,11.29 173.79,11.10 173.87,10.94 173.95,10.82 174.03,10.82 174.11,10.70 174.19,10.58 174.27,10.44 174.35,10.32 174.43,10.21 174.51,10.09 174.59,9.96 174.68,9.85 174.76,9.75 174.84,9.60 174.92,9.49 175.00,9.36 175.08,9.15 175.16,9.08 175.24,8.89 175.32,8.74 175.40,8.60 175.48,8.48 175.56,8.23 175.64,8.11 175.72,8.00 175.80,7.87 175.88,7.71 175.96,7.57 176.04,7.45 176.12,7.32 176.21,7.18 176.29,7.02 176.37,6.99 176.45,6.73 176.53,6.60 176.61,6.46 176.69,6.34 176.77,6.19 176.85,6.00 176.93,5.89 177.01,5.78 177.09,5.62 177.17,5.52 177.25,5.49 177.33,5.39 177.41,5.28 177.49,5.17 177.57,5.07 177.65,4.97 177.73,4.86 177.82,4.90 177.90,4.77 177.98,4.65 178.06,4.51 178.14,4.41 178.22,4.41 178.30,4.42 178.38,4.49 178.46,4.57 178.54,4.58 178.62,4.85 178.70,4.90 178.78,4.88 178.86,4.85 178.94,5.17 179.02,5.13 179.10,5.40 179.18,5.71 179.26,5.60 179.34,5.86 179.43,6.13 179.51,6.06 179.59,6.00 179.67,6.33 179.75,6.24 179.83,6.57 179.91,6.52 179.99,6.41 180.07,6.70 180.15,6.70 180.23,6.75 180.31,6.86 180.39,6.99 180.47,6.84 180.55,7.03 180.63,6.88 180.71,7.11 180.79,7.20 180.87,7.43 180.96,7.62 181.04,7.40 181.12,7.57 181.20,7.75 181.28,7.94 181.36,8.13 181.44,8.12 181.52,8.34 181.60,8.54 181.68,8.76 181.76,8.63 181.84,8.88 181.92,8.81 182.00,9.11 182.08,8.86 182.16,9.07 182.24,8.80 182.32,8.97 182.40,9.19 182.48,9.32 182.57,9.38 182.65,9.36 182.73,9.28 182.81,9.75 182.89,9.65 182.97,9.58 183.05,9.39 183.13,9.69 183.21,9.60 183.29,9.94 183.37,9.86 183.45,10.09 183.53,9.98 183.61,10.00 183.69,10.07 183.77,10.11 183.85,10.11 183.93,10.10 184.01,10.11 184.09,10.17 184.18,10.22 184.26,10.26 184.34,10.29 184.42,10.30 184.50,10.35 184.58,10.41 184.66,10.48 184.74,10.12 184.82,10.12 184.90,10.11 184.98,10.09 185.06,10.12 185.14,10.15 185.22,9.85 185.30,9.81 185.38,9.76 185.46,9.70 185.54,9.56 185.62,9.53 185.70,9.49 185.79,9.48 185.87,9.50 185.95,9.11 186.03,9.10 186.11,9.10 186.19,9.10 186.27,9.10 186.35,9.12 186.43,9.11 186.51,8.98 186.59,8.89 186.67,8.83 186.75,8.79 186.83,8.75 186.91,8.68 186.99,8.37 187.07,8.47 187.15,8.30 187.23,8.14 187.32,8.29 187.40,8.10 187.48,8.29 187.56,8.07 187.64,8.20 187.72,8.08 187.80,8.29 187.88,8.33 187.96,8.13 188.04,8.39 188.12,8.49 188.20,8.65 188.28,8.49 188.36,8.69 188.44,8.81 188.52,8.68 188.60,8.61 188.68,8.96 188.76,8.91 188.84,8.86 188.93,8.83 189.01,9.17 189.09,9.17 189.17,9.25 189.25,9.03 189.33,9.20 189.41,9.38 189.49,9.21 189.57,9.36 189.65,9.53 189.73,9.34 189.81,9.48 189.89,9.82 189.97,9.68 190.05,9.89 190.13,9.76 190.21,9.98 190.29,9.83 190.37,10.02 190.45,9.88 190.54,10.09 190.62,9.92 190.70,10.12 190.78,9.91 190.86,9.91 190.94,9.69 191.02,10.03 191.10,9.87 191.18,9.87 191.26,9.74 191.34,9.64 191.42,9.91 191.50,9.89 191.58,9.86 191.66,10.12 191.74,9.97 191.82,10.14 191.90,9.88 191.98,10.01 192.07,9.73 192.15,9.84 192.23,9.91 192.31,9.97 192.39,10.03 192.47,10.14 192.55,10.20 192.63,10.24 192.71,10.29 192.79,10.32 192.87,10.31 192.95,10.59 193.03,10.64 193.11,10.95 193.19,10.97 193.27,11.00 193.35,10.99 193.43,11.33 193.51,11.39 193.59,11.46 193.68,11.54 193.76,11.56 193.84,11.55 193.92,11.93 194.00,11.91 194.08,11.85 194.16,12.10 194.24,12.25 194.32,12.01 194.40,12.32 194.48,12.35 194.56,12.60 194.64,12.82 194.72,12.89 194.80,12.75 194.88,12.97 194.96,12.95 195.04,13.34 195.12,13.42 195.20,13.49 195.29,13.60 195.37,13.92 195.45,14.06 195.53,14.21 195.61,14.02 195.69,14.20 195.77,14.38 195.85,14.79 195.93,14.66 196.01,14.86 196.09,15.07 196.17,15.24 196.25,14.96 196.33,15.04 196.41,15.43 196.49,15.49 196.57,15.46 196.65,15.46 196.73,15.48 196.81,15.50 196.90,15.90 196.98,15.89 197.06,15.95 197.14,16.09 197.22,16.23 197.30,15.93 197.38,16.07 197.46,16.25 197.54,16.64 197.62,16.87 197.70,16.58 197.78,16.78 197.86,17.01 197.94,17.24 198.02,17.40 198.10,17.41 198.18,17.45 198.26,17.62 198.34,17.90 198.43,17.72 198.51,18.06 198.59,18.42 198.67,18.76 198.75,55.13 198.83,55.13 198.91,55.47 198.99,55.47 199.07,55.47 199.15,55.61 199.23,55.61 199.31,55.72 199.39,55.72 199.47,55.45 199.55,55.31 199.63,55.85 199.71,56.00 199.79,56.00 199.87,56.00 199.95,55.22 200.04,55.22 200.12,55.18 200.20,55.18 200.28,55.18 200.36,54.96 200.44,54.96 200.52,54.61 200.60,54.61 200.68,54.61 200.76,54.59 200.84,54.59 200.92,54.59 201.00,54.98 201.08,54.98 201.16,55.00 201.24,55.00 201.32,55.00 201.40,55.14 201.48,55.14 201.56,55.14 201.65,54.18 201.73,54.18 201.81,54.18 201.89,54.92 201.97,54.92 202.05,54.22 202.13,54.22 202.21,54.68 202.29,54.68 202.37,53.53 202.45,53.49 202.53,53.49 202.61,53.49 202.69,54.28 202.77,54.28 202.85,53.26 202.93,53.26 203.01,53.04 203.09,53.04 203.18,52.56 203.26,52.56 203.34,52.56 203.42,52.97 203.50,52.97 203.58,53.98 203.66,53.98 203.74,53.98 203.82,53.98 203.90,53.82 203.98,53.82 204.06,53.82 204.14,53.82 204.22,51.84 204.30,51.84 204.38,51.84 204.46,51.14 204.54,52.47 204.62,52.60 204.70,52.60 204.79,52.60 204.87,51.95 204.95,51.95 205.03,51.95 205.11,51.76 205.19,51.76 205.27,52.06 205.35,52.06 205.43,52.06 205.51,51.91 205.59,51.91 205.67,51.91 205.75,52.27 205.83,52.27 205.91,52.27 205.99,52.23 206.07,52.23 206.15,52.23 206.23,52.23 206.31,52.59 206.40,50.82 206.48,50.82 206.56,51.18 206.64,51.18 206.72,51.18 206.80,51.94 206.88,51.94 206.96,51.05 207.04,50.54 207.12,50.54 207.20,50.54 207.28,50.94 207.36,50.94 207.44,50.94 207.52,50.70 207.60,50.70 207.68,50.55 207.76,50.55 207.84,50.55 207.93,50.08 208.01,51.23 208.09,51.23 208.17,51.23 208.25,51.60 208.33,51.60 208.41,51.60 208.49,51.79 208.57,51.79 208.65,51.79 208.73,51.79 208.81,51.63 208.89,51.63 208.97,51.63 209.05,51.69 209.13,51.69 209.21,50.84 209.29,51.19 209.37,51.19 209.45,51.19 209.54,50.54 209.62,51.55 209.70,51.55 209.78,51.55 209.86,52.23 209.94,52.23 210.02,51.08 210.10,51.08 210.18,52.04 210.26,52.04 210.34,52.04 210.42,52.24 210.50,52.24 210.58,51.00 210.66,51.00 210.74,50.94 210.82,50.94 210.90,50.94 210.98,50.93 211.06,50.93 211.15,50.93 211.23,50.93 211.31,50.69 211.39,50.15 211.47,50.15 211.55,50.17 211.63,50.17 211.71,50.17 211.79,50.17 211.87,49.34 211.95,49.34 212.03,49.34 212.11,49.34 212.19,49.07 212.27,49.07 212.35,49.07 212.43,48.21 212.51,49.15 212.59,49.15 212.67,48.78 212.76,48.78 212.84,48.78 212.92,48.84 213.00,48.84 213.08,48.84 213.16,49.30 213.24,49.30 213.32,50.00 213.40,49.67 213.48,49.67 213.56,49.95 213.64,49.95 213.72,49.95 213.80,50.51 213.88,50.51 213.96,49.85 214.04,49.77 214.12,49.77 214.20,49.77 214.29,49.36 214.37,48.58 214.45,48.58 214.53,48.58 214.61,48.85 214.69,48.85 214.77,48.85 214.85,48.76 214.93,48.76 215.01,48.76 215.09,48.76 215.17,48.53 215.25,48.53 215.33,48.53 215.41,48.97 215.49,48.97 215.57,48.49 215.65,48.49 215.73,49.12 215.81,49.12 215.90,49.12 215.98,49.28 216.06,49.28 216.14,49.28 216.22,49.35 216.30,49.35 216.38,49.85 216.46,49.85 216.54,49.85 216.62,50.16 216.70,50.16 216.78,49.97 216.86,50.15 216.94,50.15 217.02,50.15 217.10,49.86 217.18,49.86 217.26,49.22 217.34,49.22 217.42,49.22 217.51,47.85 217.59,47.85 217.67,47.85 217.75,48.52 217.83,48.52 217.91,48.52 217.99,48.52 218.07,47.30 218.15,47.30 218.23,47.30 218.31,47.30 218.39,46.46 218.47,46.46 218.55,46.46 218.63,45.93 218.71,45.93 218.79,45.93 218.87,45.89 218.95,45.89 219.04,45.62 219.12,45.48 219.20,45.48 219.28,45.48 219.36,45.56 219.44,45.41 219.52,45.41 219.60,45.41 219.68,45.52 219.76,45.57 219.84,45.57 219.92,45.57 220.00,45.56 220.08,45.56 220.16,45.68 220.24,45.68 220.32,45.47 220.40,45.47 220.48,45.47 220.56,45.48 220.65,45.48 220.73,45.48 220.81,45.48 220.89,45.83 220.97,45.83 221.05,45.83 221.13,45.96 221.21,45.96 221.29,45.96 221.37,45.35 221.45,45.35 221.53,45.35 221.61,45.47 221.69,45.47 221.77,45.47 221.85,45.47 221.93,46.22 222.01,46.22 222.09,46.22 222.17,46.38 222.26,46.89 222.34,46.89 222.42,46.53 222.50,46.53 222.58,46.53 222.66,47.08 222.74,46.62 222.82,46.62 222.90,46.62 222.98,46.25 223.06,46.25 223.14,46.25 223.22,46.53 223.30,46.53 223.38,46.53 223.46,47.16 223.54,47.16 223.62,47.16 223.70,47.16 223.78,47.65 223.87,47.65 223.95,47.48 224.03,47.48 224.11,47.03 224.19,47.03 224.27,47.03 224.35,46.69 224.43,46.69 224.51,46.69 224.59,46.35 224.67,46.35 224.75,46.35 224.83,46.35 224.91,45.78 224.99,45.78 225.07,45.78 225.15,45.52 225.23,45.52 225.31,45.15 225.40,45.15 225.48,45.15 225.56,44.43 225.64,44.43 225.72,44.43 225.80,44.43 225.88,44.87 225.96,44.87 226.04,44.87 226.12,45.39 226.20,45.39 226.28,45.47 226.36,45.47 226.44,45.47 226.52,45.23 226.60,45.23 226.68,45.23 226.76,45.44 226.84,45.44 226.92,45.37 227.01,45.37 227.09,45.37 227.17,45.63 227.25,45.63 227.33,45.63 227.41,45.72 227.49,45.72 227.57,45.87 227.65,45.87 227.73,45.87 227.81,45.66 227.89,45.66 227.97,45.66 228.05,45.08 228.13,45.08 228.21,46.22 228.29,45.30 228.37,45.30 228.45,45.30 228.53,46.03 228.62,45.10 228.70,45.10 228.78,45.10 228.86,44.17 228.94,44.17 229.02,44.27 229.10,44.27 229.18,44.27 229.26,43.64 229.34,43.64 229.42,43.28 229.50,43.28 229.58,43.28 229.66,43.16 229.74,43.16 229.82,42.97 229.90,42.97 229.98,42.97 230.06,43.08 230.15,43.08 230.23,41.16 230.31,41.57 230.39,41.57 230.47,41.57 230.55,41.47 230.63,41.47 230.71,41.47 230.79,41.02 230.87,41.02 230.95,41.02 231.03,40.42 231.11,40.05 231.19,40.05 231.27,40.05 231.35,39.30 231.43,39.30 231.51,38.59 231.59,38.40 231.67,38.40 231.76,38.40 231.84,37.84 231.92,37.76 232.00,37.76 232.08,37.76 232.16,37.41 232.24,37.09 232.32,37.09 232.40,37.09 232.48,37.09 232.56,36.56 232.64,36.56 232.72,36.56 232.80,36.75 232.88,36.20 232.96,36.20 233.04,36.20 233.12,36.20 233.20,35.89 233.28,35.89 233.37,35.89 233.45,36.08 233.53,35.37 233.61,35.37 233.69,35.37 233.77,35.39 233.85,34.67 233.93,34.67 234.01,34.67 234.09,34.67 234.17,34.14 234.25,34.14 234.33,34.14 234.41,33.56 234.49,33.56 234.57,33.56 234.65,33.82 234.73,32.64 234.81,32.64 234.89,32.64 234.98,32.64 235.06,32.51 235.14,32.51 235.22,32.51 235.30,32.66 235.38,31.15 235.46,31.15 235.54,31.66 235.62,31.66 235.70,31.66 235.78,32.01 235.86,32.01 235.94,29.95 236.02,30.19 236.10,30.19 236.18,30.19 236.26,30.15 236.34,30.15 236.42,30.09 236.51,30.09 236.59,30.09 236.67,30.00 236.75,30.00 236.83,30.00 236.91,28.25 236.99,28.25 237.07,28.17 237.15,28.17 237.23,28.17 237.31,28.32 237.39,28.32 237.47,26.88 237.55,26.88 237.63,26.88 237.71,25.99 237.79,25.99 237.87,25.99 237.95,25.99 238.03,25.63 238.12,25.63 238.20,25.63 238.28,25.73 238.36,24.67 238.44,24.67 238.52,24.67 238.60,24.73 238.68,24.73 238.76,24.73 238.84,24.68 238.92,23.28 239.00,23.28 239.08,23.37 239.16,23.37 239.24,23.37 239.32,23.37 239.40,23.71 239.48,22.51 239.56,22.51 239.64,22.51 239.73,22.78 239.81,22.78 239.89,22.78 239.97,22.78 240.05,23.47 240.13,23.47 240.21,23.47 240.29,22.82 240.37,22.82 240.45,22.82 240.53,23.02 240.61,23.02 240.69,23.23 240.77,23.23 240.85,23.23 240.93,23.21 241.01,24.52 241.09,24.52 241.17,24.49 241.26,24.49 241.34,24.43 241.42,24.43 241.50,24.43 241.58,24.37 241.66,24.37 241.74,24.32 241.82,24.32 241.90,24.32 241.98,23.16 242.06,23.16 242.14,23.16 242.22,23.38 242.30,23.38 242.38,23.38 242.46,23.52 242.54,22.60 242.62,22.60 242.70,23.00 242.78,23.00 242.87,23.00 242.95,22.42 243.03,22.42 243.11,22.42 243.19,23.00 243.27,23.00 243.35,23.00 243.43,23.40 243.51,22.20 243.59,22.20 243.67,22.58 243.75,22.58 243.83,22.92 243.91,22.92 243.99,22.92 244.07,23.19 244.15,23.19 244.23,23.19 244.31,23.39 244.39,23.39 244.48,21.90 244.56,21.90 244.64,21.90 244.72,21.96 244.80,21.96 244.88,21.96 244.96,21.87 245.04,21.87 245.12,21.69 245.20,21.69 245.28,21.69 245.36,21.54 245.44,21.54 245.52,20.14 245.60,19.89 245.68,19.89 245.76,19.57 245.84,19.57 245.92,19.57 246.00,19.25 246.09,19.25 246.17,19.25 246.25,19.25 246.33,18.85 246.41,18.56 246.49,18.56 246.57,17.98 246.65,17.98 246.73,17.98 246.81,17.98 246.89,18.10 246.97,17.01 247.05,17.01 247.13,17.22 247.21,17.22 247.29,17.22 247.37,16.18 247.45,16.80 247.53,16.80 247.62,16.80 247.70,16.80 247.78,16.68 247.86,16.68 247.94,16.68 248.02,16.68 248.10,16.96 248.18,16.96 248.26,16.96 248.34,17.28 248.42,17.28 248.50,17.28 248.58,15.78 248.66,15.78 248.74,17.36 248.82,16.58 248.90,16.58 248.98,16.58 249.06,16.58 249.14,16.01 249.23,16.01 249.31,16.01 249.39,16.01 249.47,15.28 249.55,15.28 249.63,15.28 249.71,15.48 249.79,15.48 249.87,15.48 249.95,15.28 250.03,16.61 250.11,16.61 250.19,16.34 250.27,16.34 250.35,16.34 250.43,16.34 250.51,16.09 250.59,16.09 250.67,16.75 250.75,16.75 250.84,16.17 250.92,16.17 251.00,15.74 251.08,15.74 251.16,16.23 251.24,16.14 251.32,16.14 251.40,16.14 251.48,16.03 251.56,16.03 251.64,16.03 251.72,15.82 251.80,15.82 251.88,15.96 251.96,15.96 252.04,15.96 252.12,15.96 252.20,15.10 252.28,15.10 252.37,16.32 252.45,15.52 252.53,15.52 252.61,15.06 252.69,15.06 252.77,15.06 252.85,14.60 252.93,14.60 253.01,14.60 253.09,14.03 253.17,14.03 253.25,13.61 253.33,13.61 253.41,13.61 253.49,14.35 253.57,14.35 253.65,14.35 253.73,13.63 253.81,13.63 253.89,13.63 253.98,12.93 254.06,14.45 254.14,13.74 254.22,13.74 254.30,13.74 254.38,13.74 254.46,12.71 254.54,13.00 254.62,13.00 254.70,13.00 254.78,12.82 254.86,12.82 254.94,12.82 255.02,14.08 255.10,12.54 255.18,12.54 255.26,12.26 255.34,13.66 255.42,13.66 255.50,13.66 255.59,13.37 255.67,13.37 255.75,13.37 255.83,13.98 255.91,12.99 255.99,12.99 256.07,12.99 256.15,13.84 256.23,13.84 256.31,13.84 256.39,14.34 256.47,14.34 256.55,13.16 256.63,14.02 256.71,14.02 256.79,14.02 256.87,14.02 256.95,13.83 257.03,13.83 257.11,13.83 257.20,14.78 257.28,14.78 257.36,14.03 257.44,14.03 257.52,14.03 257.60,14.78 257.68,14.78 257.76,14.78 257.84,14.27 257.92,14.27 258.00,14.27 258.08,13.53 258.16,13.53 258.24,13.53 258.32,13.49 258.40,13.49 258.48,13.49 258.56,13.49 258.64,12.89 258.73,12.89 258.81,12.89 258.89,12.75 258.97,12.75 259.05,12.75 259.13,12.53 259.21,12.53 259.29,12.53 259.37,12.33 259.45,12.33 259.53,12.33 259.61,12.01 259.69,13.19 259.77,13.19 259.85,13.19 259.93,12.72 260.01,12.72 260.09,13.58 260.17,13.10 260.25,13.10 260.34,13.10 260.42,13.10 260.50,12.86 260.58,13.52 260.66,13.52 260.74,13.49 260.82,13.49 260.90,13.49 260.98,13.49 261.06,13.41 261.14,13.41 261.22,13.41 261.30,13.41 261.38,13.79 261.46,13.79 261.54,13.79 261.62,13.49 261.70,13.49 261.78,13.49 261.86,14.50 261.95,14.50 262.03,14.50 262.11,14.14 262.19,14.14 262.27,14.14 262.35,13.88 262.43,14.97 262.51,14.97 262.59,14.80 262.67,14.80 262.75,14.80 262.83,14.77 262.91,15.71 262.99,15.71 263.07,15.65 263.15,15.65 263.23,15.65 263.31,15.85 263.39,15.85 263.48,15.99 263.56,15.99 263.64,15.99 263.72,16.29 263.80,16.29 263.88,16.84 263.96,16.84 264.04,16.84 264.12,17.54 264.20,17.54 264.28,17.54 264.36,17.89 264.44,17.89 264.52,17.89 264.60,17.89 264.68,18.61 264.76,17.91 264.84,17.91 264.92,17.91 265.00,18.50 265.09,17.82 265.17,17.82 265.25,17.82 265.33,17.82 265.41,17.41 265.49,17.41 265.57,17.41 265.65,17.73 265.73,17.73 265.81,17.73 265.89,17.13 265.97,17.13 266.05,17.34 266.13,17.34 266.21,17.34 266.29,16.77 266.37,17.35 266.45,17.35 266.53,16.83 266.61,16.83 266.70,16.83 266.78,16.30 266.86,16.30 266.94,17.02 267.02,17.02 267.10,16.32 267.18,16.32 267.26,16.53 267.34,16.53 267.42,16.53 267.50,15.85 267.58,15.85 267.66,16.50 267.74,15.77 267.82,15.77 267.90,15.77 267.98,15.05 268.06,15.71 268.14,15.71 268.22,15.71 268.31,15.04 268.39,15.04 268.47,15.04 268.55,15.00 268.63,15.00 268.71,15.00 268.79,14.27 268.87,14.51 268.95,14.51 269.03,14.51 269.11,13.77 269.19,14.11 269.27,14.11 269.35,14.11 269.43,13.57 269.51,13.57 269.59,13.57 269.67,13.48 269.75,13.48 269.84,13.48 269.92,12.99 270.00,12.99 270.08,12.99 270.16,12.60 270.24,12.60 270.32,12.73 270.40,12.18 270.48,12.18 270.56,12.18 270.64,12.18 270.72,11.66 270.80,11.66 270.88,11.66 270.96,11.12 271.04,11.07 271.12,11.07 271.20,10.61 271.28,10.61 271.36,10.61 271.45,10.61 271.53,10.18 271.61,10.18 271.69,10.18 271.77,9.90 271.85,9.90 271.93,9.90 272.01,9.86 272.09,9.42 272.17,9.42 272.25,9.42 272.33,9.03 272.41,9.03 272.49,8.89 272.57,8.89 272.65,8.42 272.73,8.42 272.81,8.42 272.89,8.03 272.97,8.03 273.06,8.04 273.14,7.58 273.22,7.58 273.30,7.58 273.38,7.12 273.46,7.12 273.54,7.12 273.62,6.72 273.70,6.72 273.78,6.72 273.86,6.41 273.94,6.24 274.02,6.24 274.10,5.89 274.18,5.89 274.26,5.89 274.34,5.59 274.42,5.34 274.50,5.34 274.59,5.27 274.67,5.27 274.75,5.27 274.83,4.92 274.91,4.92 274.99,4.53 275.07,4.53 275.15,4.53 275.23,4.18 275.31,4.18 275.39,4.18 275.47,4.08 275.55,4.08 275.63,4.07 275.71,4.07 275.79,4.07 275.87,4.00 275.95,4.88 276.03,4.88 276.11,4.83 276.20,4.83 276.28,4.62 276.36,4.62 276.44,4.62 276.52,5.70 276.60,5.39 276.68,5.39 276.76,5.39 276.84,5.07 276.92,5.07 277.00,6.32 277.08,6.07 277.16,6.07 277.24,6.07 277.32,5.91 277.40,5.91 277.48,6.14 277.56,6.14 277.64,6.14 277.72,6.66 277.81,6.66 277.89,6.66 277.97,7.34 278.05,7.34 278.13,6.79 278.21,6.79 278.29,6.79 278.37,7.35 278.45,7.35 278.53,7.35 278.61,7.93 278.69,7.93 278.77,8.54 278.85,8.54 278.93,8.54 279.01,9.29 279.09,8.07 279.17,8.07 279.25,8.84 279.33,8.84 279.42,8.84 279.50,9.45 279.58,7.71 279.66,7.71 279.74,8.04 279.82,8.04 279.90,8.08 279.98,8.08 280.06,8.08 280.14,9.57 280.22,9.57 280.30,9.57 280.38,9.30 280.46,9.30 280.54,9.19 280.62,9.19 280.70,9.19 280.78,10.09 280.86,10.09 280.95,10.09 281.03,10.14 281.11,10.14 281.19,10.14 281.27,10.14 281.35,10.14 281.43,10.26 281.51,10.26 281.59,10.26 281.67,10.35 281.75,10.35 281.83,10.47 281.91,10.47 281.99,10.47 282.07,10.55 282.15,10.55 282.23,10.55 282.31,10.55 282.39,10.55 282.47,10.52 282.56,10.52 282.64,10.52 282.72,10.44 282.80,10.44 282.88,10.41 282.96,10.41 283.04,10.41 283.12,10.43 283.20,10.43 283.28,9.09 283.36,9.10 283.44,9.10 283.52,9.10 283.60,9.10 283.68,9.10 283.76,8.97 283.84,8.97 283.92,8.79 284.00,8.79 284.08,8.79 284.17,8.50 284.25,8.50 284.33,7.99 284.41,8.93 284.49,8.93 284.57,8.21 284.65,8.21 284.73,8.21 284.81,8.21 284.89,7.82 284.97,7.82 285.05,7.82 285.13,8.61 285.21,8.61 285.29,8.00 285.37,8.00 285.45,9.02 285.53,9.02 285.61,8.50 285.70,8.50 285.78,9.64 285.86,9.36 285.94,9.36 286.02,9.36 286.10,9.23 286.18,9.23 286.26,9.23 286.34,9.25 286.42,9.25 286.50,9.59 286.58,9.59 286.66,9.59 286.74,10.07 286.82,10.07 286.90,10.07 286.98,10.61 287.06,9.48 287.14,9.48 287.22,10.07 287.31,10.07 287.39,10.76 287.47,10.76 287.55,10.76 287.63,10.28 287.71,10.28 287.79,10.28 287.87,10.91 287.95,10.91 288.03,10.91 288.11,10.24 288.19,10.24 288.27,10.24 288.35,10.80 288.43,10.80 288.51,10.80 288.59,9.74 288.67,10.59 288.75,10.59 288.83,10.59 288.92,10.34 289.00,10.34 289.08,10.34 289.16,10.87 289.24,10.87 289.32,10.87 289.40,9.92 289.48,9.92 289.56,9.92 289.64,10.10 289.72,10.10 289.80,10.25 289.88,10.25 289.96,10.25 290.04,10.31 290.12,10.31 290.20,10.31 290.28,11.31 290.36,11.31 290.44,11.33 290.53,11.33 290.61,11.33 290.69,11.41 290.77,11.41 290.85,11.41 290.93,11.53 291.01,11.53 291.09,11.49 291.17,11.49 291.25,12.80 291.33,12.43 291.41,12.43 291.49,12.43 291.57,11.78 291.65,11.78 291.73,12.61 291.81,12.61 291.89,12.61 291.97,13.38 292.06,13.00 292.14,13.00 292.22,13.00 292.30,13.04 292.38,14.21 292.46,14.21 292.54,14.55 292.62,14.55 292.70,14.99 292.78,14.99 292.86,14.99 292.94,14.39 293.02,14.39 293.10,14.39 293.18,15.03 293.26,15.03 293.34,15.61 293.42,15.61 293.50,15.61 293.58,15.82 293.67,15.82 293.75,15.82 293.83,15.87 293.91,15.87 293.99,15.88 294.07,15.88 294.15,15.88 294.23,15.94 294.31,15.94 294.39,16.24 294.47,16.24 294.55,16.24 294.63,16.73 294.71,16.73 294.79,16.73 294.87,17.49 294.95,17.49 295.03,18.33 295.11,18.33 295.19,18.33 295.28,18.74 295.36,18.74 295.44,18.93 295.52,18.93 295.60,18.93 295.68,19.67 295.76,18.07 295.84,18.07 295.92,19.06 296.00,19.06" />
</svg>