<svg width="300" height="60" xmlns="http://www.w3.org/2000/svg">
  <polyline fill="rgba(255,200,0,0.3)" stroke="#ffbb00" stroke-width="2" points="4.00,6.68 8.49,8.92 12.98,14.37 17.48,17.50 21.97,19.76 26.46,18.93 30.95,20.95 35.45,27.01 39.94,30.30 44.43,32.49 48.92,33.42 53.42,35.96 57.91,38.50 62.40,41.34 66.89,44.01 71.38,47.05 75.88,48.74 80.37,50.27 84.86,52.07 89.35,53.26 93.85,54.64 98.34,56.00 102.83,5.59 107.32,9.86 111.82,13.61 116.31,17.71 120.80,19.58 125.29,19.58 129.78,20.63 134.28,26.72 138.77,30.70 143.26,30.70 147.75,33.98 152.25,35.39 156.74,37.79 161.23,40.38 165.72,44.01 170.22,46.41 174.71,49.52 179.20,50.81 183.69,52.15 188.18,52.80 192.68,53.79 197.17,55.00 201.66,4.00 206.15,4.00 210.65,4.00 215.14,16.41 219.63,16.41 224.12,16.41 228.62,16.41 233.11,26.59 237.60,31.57 242.09,31.57 246.58,31.57 251.08,37.83 255.57,37.83 260.06,37.83 264.55,44.15 269.05,44.15 273.54,48.95 278.03,53.63 282.52,53.63 287.02,53.63 291.51,54.39 296.00,54.39" />
</svg>