<svg width="300" height="60" xmlns="http://www.w3.org/2000/svg">
  <polyline fill="rgba(255,200,0,0.3)" stroke="#ffbb00" stroke-width="2" points="4.00,34.66 4.56,34.41 5.12,33.52 5.68,32.87 6.24,32.61 6.80,32.84 7.36,33.52 7.92,34.02 8.48,34.39 9.04,34.35 9.60,33.94 10.17,33.48 10.73,33.53 11.29,33.91 11.85,34.38 12.41,35.07 12.97,35.46 13.53,35.78 14.09,36.25 14.65,36.89 15.21,36.76 15.77,36.45 16.33,35.49 16.89,34.25 17.45,33.19 18.01,32.61 18.57,32.66 19.13,32.95 19.69,33.20 20.25,33.08 20.81,32.60 21.37,32.10 21.93,31.81 22.50,31.93 23.06,32.20 23.62,33.04 24.18,33.91 24.74,34.31 25.30,34.56 25.86,34.25 26.42,33.81 26.98,33.30 27.54,33.26 28.10,33.64 28.66,34.06 29.22,35.47 29.78,35.45 30.34,36.67 30.90,36.97 31.46,37.22 32.02,34.86 32.58,33.24 33.14,31.96 33.70,30.98 34.26,30.02 34.83,28.75 35.39,27.47 35.95,25.63 36.51,23.89 37.07,22.32 37.63,21.49 38.19,21.54 38.75,21.72 39.31,20.65 39.87,19.63 40.43,19.31 40.99,19.87 41.55,20.29 42.11,20.11 42.67,19.78 43.23,19.60 43.79,19.73 44.35,20.17 44.91,20.43 45.47,20.14 46.03,19.08 46.60,17.57 47.16,16.08 47.72,15.19 48.28,14.60 48.84,14.01 49.40,13.47 49.96,13.11 50.52,13.03 51.08,13.19 51.64,13.78 52.20,14.73 52.76,16.00 53.32,16.58 53.88,17.25 54.44,18.78 55.00,20.35 55.56,21.86 56.12,23.27 56.68,24.73 57.24,26.37 57.80,28.59 58.36,30.96 58.93,33.23 59.49,35.22 60.05,37.85 60.61,40.09 61.17,41.85 61.73,43.73 62.29,45.09 62.85,46.38 63.41,47.82 63.97,48.86 64.53,49.54 65.09,50.43 65.65,51.01 66.21,50.95 66.77,50.96 67.33,49.80 67.89,49.52 68.45,31.20 69.01,30.01 69.57,28.76 70.13,27.56 70.69,25.66 71.26,23.96 71.82,22.39 72.38,21.59 72.94,21.59 73.50,21.84 74.06,20.70 74.62,19.58 75.18,19.45 75.74,19.97 76.30,20.39 76.86,20.19 77.42,19.83 77.98,19.60 78.54,19.81 79.10,20.22 79.66,20.48 80.22,20.23 80.78,19.10 81.34,17.60 81.90,16.09 82.46,15.25 83.02,14.64 83.59,14.07 84.15,13.51 84.71,13.13 85.27,13.03 85.83,13.23 86.39,13.78 86.95,14.80 87.51,16.06 88.07,16.66 88.63,17.35 89.19,18.88 89.75,20.39 90.31,21.91 90.87,23.39 91.43,24.86 91.99,26.45 92.55,28.64 93.11,31.05 93.67,33.25 94.23,35.31 94.79,37.90 95.36,40.16 95.92,41.95 96.48,43.72 97.04,45.18 97.60,46.43 98.16,47.88 98.72,48.97 99.28,49.63 99.84,50.49 100.40,51.10 100.96,51.02 101.52,51.02 102.08,49.84 102.64,49.53 103.20,34.56 103.76,34.53 104.32,33.39 104.88,32.90 105.44,33.01 106.00,32.98 106.56,33.24 107.12,33.70 107.69,34.23 108.25,33.81 108.81,33.60 109.37,33.17 109.93,33.14 110.49,33.11 111.05,33.88 111.61,34.69 112.17,35.56 112.73,35.77 113.29,36.38 113.85,36.84 114.41,36.94 114.97,36.68 115.53,35.70 116.09,33.80 116.65,32.99 117.21,32.78 117.77,32.89 118.33,32.93 118.89,33.35 119.45,33.07 120.02,32.67 120.58,32.06 121.14,31.85 121.70,31.75 122.26,31.92 122.82,32.83 123.38,33.65 123.94,34.43 124.50,34.67 125.06,34.43 125.62,33.93 126.18,33.43 126.74,33.47 127.30,33.87 127.86,34.71 128.42,34.26 128.98,35.53 129.54,35.56 130.10,36.76 130.66,36.42 131.22,35.37 131.79,33.21 132.35,31.87 132.91,31.07 133.47,30.05 134.03,28.93 134.59,27.42 135.15,25.77 135.71,23.94 136.27,22.50 136.83,21.54 137.39,21.40 137.95,21.89 138.51,20.95 139.07,19.61 139.63,19.33 140.19,19.86 140.75,20.51 141.31,20.55 141.87,20.06 142.43,19.60 142.99,20.01 143.55,20.18 144.12,20.67 144.68,20.34 145.24,19.25 145.80,17.46 146.36,16.10 146.92,15.12 147.48,14.48 148.04,14.16 148.60,13.60 149.16,13.07 149.72,13.11 150.28,13.29 150.84,13.57 151.40,14.47 151.96,16.41 152.52,16.87 153.08,17.70 153.64,19.54 154.20,20.31 154.76,22.06 155.32,23.75 155.88,25.13 156.45,26.85 157.01,28.53 157.57,31.00 158.13,33.07 158.69,35.40 159.25,37.15 159.81,39.75 160.37,41.85 160.93,43.85 161.49,46.12 162.05,46.54 162.61,47.66 163.17,48.93 163.73,49.57 164.29,50.27 164.85,50.97 165.41,51.13 165.97,51.31 166.53,49.77 167.09,49.45 167.65,34.43 168.21,33.62 168.78,32.57 169.34,32.32 169.90,32.81 170.46,34.08 171.02,32.67 171.58,34.92 172.14,34.11 172.70,33.40 173.26,35.26 173.82,34.42 174.38,31.86 174.94,32.80 175.50,35.72 176.06,34.07 176.62,35.23 177.18,35.89 177.74,38.75 178.30,37.00 178.86,38.02 179.42,36.73 179.98,35.81 180.55,33.46 181.11,32.30 181.67,32.30 182.23,32.41 182.79,32.94 183.35,33.99 183.91,33.88 184.47,33.88 185.03,32.94 185.59,32.44 186.15,32.12 186.71,33.67 187.27,33.84 187.83,35.74 188.39,36.79 188.95,36.33 189.51,34.40 190.07,36.38 190.63,35.26 191.19,35.26 191.75,39.01 192.31,36.13 192.88,39.05 193.44,37.08 194.00,39.78 194.56,37.92 195.12,39.75 195.68,35.40 196.24,33.71 196.80,31.89 197.36,30.69 197.92,30.17 198.48,28.31 199.04,28.03 199.60,26.38 200.16,24.56 200.72,22.73 201.28,22.42 201.84,22.35 202.40,21.75 202.96,20.55 203.52,19.50 204.08,19.50 204.64,20.17 205.21,20.27 205.77,19.47 206.33,19.61 206.89,18.29 207.45,20.08 208.01,19.76 208.57,20.89 209.13,20.99 209.69,18.75 210.25,16.92 210.81,15.24 211.37,13.77 211.93,12.40 212.49,14.71 213.05,13.17 213.61,11.94 214.17,10.57 214.73,14.01 215.29,14.35 215.85,15.15 216.41,15.61 216.98,14.38 217.54,13.12 218.10,20.17 218.66,20.91 219.22,21.16 219.78,21.23 220.34,25.47 220.90,25.54 221.46,27.68 222.02,30.67 222.58,29.44 223.14,35.05 223.70,36.46 224.26,38.39 224.82,41.23 225.38,44.18 225.94,44.53 226.50,44.01 227.06,48.32 227.62,49.13 228.18,48.36 228.74,50.15 229.31,50.94 229.87,51.05 230.43,50.75 230.99,50.08 231.55,50.08 232.11,41.30 232.67,41.30 233.23,41.30 233.79,43.30 234.35,43.30 234.91,43.30 235.47,37.61 236.03,37.61 236.59,37.61 237.15,44.17 237.71,44.17 238.27,34.59 238.83,34.59 239.39,42.79 239.95,42.79 240.51,36.88 241.07,36.88 241.64,44.07 242.20,44.07 242.76,39.09 243.32,39.09 243.88,39.09 244.44,34.98 245.00,34.98 245.56,34.98 246.12,34.98 246.68,32.59 247.24,32.59 247.80,36.70 248.36,35.16 248.92,35.16 249.48,35.16 250.04,39.72 250.60,33.82 251.16,33.82 251.72,38.24 252.28,38.24 252.84,38.24 253.40,36.70 253.97,36.70 254.53,36.70 255.09,37.37 255.65,37.37 256.21,43.96 256.77,43.96 257.33,43.96 257.89,47.12 258.45,47.12 259.01,37.19 259.57,35.40 260.13,35.40 260.69,35.40 261.25,30.87 261.81,30.87 262.37,30.87 262.93,25.29 263.49,25.29 264.05,25.29 264.61,25.29 265.17,22.02 265.74,30.38 266.30,30.38 266.86,27.15 267.42,27.15 267.98,23.22 268.54,23.22 269.10,23.22 269.66,25.58 270.22,25.58 270.78,19.68 271.34,19.68 271.90,19.68 272.46,25.02 273.02,25.02 273.58,25.02 274.14,16.95 274.70,16.95 275.26,16.95 275.82,11.96 276.38,11.96 276.94,11.96 277.50,6.27 278.07,6.27 278.63,6.27 279.19,14.73 279.75,14.73 280.31,12.38 280.87,12.38 281.43,12.38 281.99,4.00 282.55,12.38 283.11,21.01 283.67,21.01 284.23,21.01 284.79,22.48 285.35,22.48 285.91,22.48 286.47,29.86 287.03,29.86 287.59,33.40 288.15,33.40 288.71,33.40 289.27,37.57 289.83,37.57 290.40,39.12 290.96,39.12 291.52,39.12 292.08,46.24 292.64,46.24 293.20,46.24 293.76,56.00 294.32,56.00 294.88,46.24 295.44,46.24 296.00,46.24" />
</svg>