<svg width="300" height="60" xmlns="http://www.w3.org/2000/svg">
  <polyline fill="rgba(255,200,0,0.3)" stroke="#ffbb00" stroke-width="2" points="4.00,54.95 8.36,51.01 12.72,46.44 17.07,49.86 21.43,52.98 25.79,53.70 30.15,52.51 34.51,50.19 38.87,47.34 43.22,36.84 47.58,28.23 51.94,19.86 56.30,9.77 60.66,10.55 65.01,20.39 69.37,28.73 73.73,47.85 78.09,54.18 82.45,49.72 86.81,49.37 91.16,50.07 95.52,52.42 99.88,53.08 104.24,52.37 108.60,49.32 112.96,46.98 117.31,34.38 121.67,27.45 126.03,15.95 130.39,11.00 134.75,8.77 139.10,19.21 143.46,27.60 147.82,46.85 152.18,52.99 156.54,50.41 160.90,49.12 165.25,49.71 169.61,55.57 173.97,54.75 178.33,52.99 182.69,49.47 187.04,43.37 191.40,30.57 195.76,33.63 200.12,20.36 204.48,7.79 208.84,10.95 213.19,24.35 217.55,26.35 221.91,45.36 226.27,49.19 230.63,49.19 234.99,36.86 239.34,36.86 243.70,53.77 248.06,56.00 252.42,56.00 256.78,33.22 261.13,33.22 265.49,33.22 269.85,33.22 274.21,4.00 278.57,4.00 282.93,22.90 287.28,22.90 291.64,22.90 296.00,49.19" />
</svg>