<svg width="300" height="60" xmlns="http://www.w3.org/2000/svg">
  <polyline fill="rgba(255,200,0,0.3)" stroke="#ffbb00" stroke-width="2" points="4.00,9.11 4.42,8.45 4.85,7.53 5.27,6.56 5.69,5.71 6.11,5.15 6.54,4.99 6.96,5.19 7.38,5.56 7.80,6.11 8.23,6.87 8.65,7.74 9.07,8.62 9.49,9.25 9.92,9.90 10.34,10.43 10.76,10.76 11.18,10.93 11.61,10.93 12.03,10.54 12.45,10.18 12.87,9.89 13.30,9.64 13.72,9.37 14.14,9.18 14.56,9.00 14.99,8.67 15.41,8.57 15.83,8.56 16.25,8.42 16.68,8.25 17.10,7.75 17.52,7.30 17.95,6.95 18.37,6.83 18.79,7.04 19.21,7.41 19.64,7.94 20.06,8.49 20.48,9.04 20.90,9.32 21.33,9.48 21.75,9.74 22.17,10.20 22.59,10.79 23.02,11.41 23.44,12.14 23.86,12.70 24.28,13.35 24.71,13.94 25.13,14.35 25.55,15.01 25.97,15.75 26.40,16.67 26.82,17.78 27.24,18.74 27.66,19.53 28.09,20.10 28.51,20.49 28.93,20.64 29.35,20.91 29.78,20.91 30.20,20.92 30.62,20.92 31.04,20.87 31.47,20.79 31.89,20.60 32.31,20.44 32.74,20.20 33.16,20.18 33.58,20.18 34.00,20.21 34.43,20.41 34.85,20.64 35.27,20.77 35.69,20.88 36.12,20.90 36.54,20.74 36.96,20.62 37.38,20.26 37.81,19.89 38.23,19.62 38.65,19.46 39.07,19.47 39.50,19.63 39.92,19.82 40.34,20.12 40.76,20.42 41.19,20.85 41.61,21.21 42.03,21.50 42.45,21.67 42.88,22.01 43.30,22.13 43.72,22.28 44.14,22.30 44.57,22.33 44.99,22.38 45.41,22.41 45.84,22.56 46.26,22.89 46.68,23.40 47.10,23.93 47.53,24.39 47.95,24.82 48.37,25.43 48.79,26.19 49.22,27.10 49.64,27.98 50.06,28.92 50.48,29.56 50.91,29.88 51.33,30.10 51.75,30.12 52.17,30.12 52.60,30.25 53.02,30.61 53.44,31.09 53.86,31.81 54.29,32.59 54.71,33.36 55.13,34.31 55.55,35.21 55.98,36.23 56.40,37.10 56.82,37.91 57.24,38.97 57.67,39.91 58.09,40.72 58.51,41.41 58.93,42.01 59.36,42.65 59.78,43.15 60.20,43.54 60.63,43.92 61.05,44.22 61.47,44.53 61.89,44.83 62.32,45.11 62.74,45.45 63.16,45.95 63.58,46.55 64.01,47.30 64.43,47.95 64.85,48.68 65.27,49.57 65.70,50.28 66.12,51.16 66.54,51.97 66.96,52.71 67.39,53.19 67.81,53.43 68.23,53.42 68.65,53.48 69.08,53.46 69.50,53.31 69.92,52.96 70.34,52.70 70.77,52.50 71.19,52.30 71.61,51.94 72.03,51.72 72.46,51.50 72.88,51.27 73.30,50.88 73.73,50.50 74.15,49.90 74.57,49.57 74.99,49.72 75.42,49.78 75.84,49.82 76.26,50.00 76.68,50.52 77.11,9.09 77.53,8.44 77.95,7.41 78.37,6.57 78.80,5.79 79.22,5.14 79.64,4.87 80.06,5.26 80.49,5.54 80.91,6.08 81.33,6.90 81.75,7.81 82.18,8.64 82.60,9.40 83.02,10.31 83.44,10.79 83.87,11.19 84.29,11.17 84.71,11.03 85.13,10.53 85.56,10.20 85.98,9.94 86.40,9.64 86.82,9.39 87.25,9.24 87.67,9.01 88.09,8.84 88.52,8.67 88.94,8.84 89.36,8.44 89.78,8.22 90.21,7.87 90.63,7.39 91.05,7.02 91.47,6.93 91.90,7.06 92.32,7.43 92.74,8.16 93.16,8.59 93.59,9.09 94.01,9.46 94.43,9.53 94.85,9.52 95.28,9.82 95.70,10.36 96.12,11.48 96.54,12.16 96.97,12.84 97.39,13.64 97.81,14.05 98.23,14.44 98.66,14.88 99.08,15.72 99.50,16.91 99.92,17.73 100.35,18.81 100.77,19.74 101.19,20.31 101.62,20.57 102.04,20.79 102.46,20.83 102.88,20.90 103.31,20.97 103.73,21.05 104.15,21.21 104.57,21.07 105.00,20.72 105.42,20.37 105.84,20.30 106.26,20.23 106.69,20.22 107.11,20.27 107.53,20.50 107.95,20.62 108.38,20.83 108.80,20.93 109.22,20.91 109.64,20.78 110.07,20.60 110.49,20.23 110.91,19.94 111.33,19.69 111.76,19.52 112.18,19.47 112.60,19.37 113.02,19.90 113.45,20.01 113.87,20.44 114.29,20.71 114.71,21.26 115.14,21.59 115.56,21.92 115.98,22.01 116.41,22.28 116.83,22.36 117.25,22.40 117.67,22.39 118.10,22.44 118.52,22.50 118.94,22.67 119.36,22.80 119.79,23.48 120.21,23.96 120.63,24.55 121.05,25.02 121.48,25.40 121.90,26.33 122.32,27.46 122.74,28.24 123.17,29.19 123.59,29.81 124.01,29.99 124.43,30.21 124.86,30.05 125.28,30.26 125.70,30.20 126.12,30.52 126.55,31.04 126.97,32.00 127.39,32.61 127.81,33.63 128.24,34.33 128.66,35.50 129.08,36.23 129.51,37.35 129.93,38.39 130.35,39.20 130.77,40.00 131.20,40.94 131.62,41.71 132.04,42.24 132.46,42.74 132.89,43.30 133.31,43.65 133.73,44.01 134.15,44.47 134.58,44.74 135.00,45.01 135.42,45.24 135.84,45.60 136.27,46.02 136.69,46.68 137.11,47.33 137.53,48.01 137.96,48.85 138.38,49.53 138.80,50.25 139.22,51.35 139.65,52.10 140.07,53.01 140.49,53.20 140.91,53.44 141.34,53.50 141.76,53.47 142.18,53.39 142.60,53.34 143.03,53.01 143.45,52.98 143.87,52.70 144.30,52.58 144.72,52.04 145.14,51.97 145.56,51.41 145.99,51.26 146.41,50.83 146.83,50.28 147.25,49.74 147.68,49.49 148.10,49.77 148.52,49.79 148.94,49.75 149.37,49.92 149.79,50.51 150.21,9.29 150.63,8.65 151.06,7.46 151.48,6.64 151.90,6.02 152.32,5.04 152.75,4.69 153.17,5.34 153.59,5.22 154.01,6.68 154.44,7.00 154.86,7.50 155.28,8.18 155.70,8.93 156.13,10.40 156.55,10.94 156.97,11.33 157.40,11.53 157.82,11.36 158.24,10.70 158.66,10.26 159.09,9.23 159.51,9.55 159.93,8.65 160.35,9.24 160.78,8.35 161.20,7.60 161.62,7.11 162.04,9.05 162.47,8.85 162.89,8.63 163.31,8.26 163.73,7.43 164.16,7.15 164.58,6.24 165.00,6.52 165.42,7.06 165.85,7.92 166.27,7.92 166.69,8.74 167.11,9.29 167.54,9.19 167.96,8.82 168.38,10.04 168.80,10.04 169.23,11.30 169.65,11.81 170.07,12.21 170.49,13.78 170.92,14.02 171.34,13.76 171.76,14.88 172.19,15.14 172.61,15.75 173.03,16.74 173.45,18.02 173.88,19.26 174.30,19.57 174.72,20.37 175.14,20.74 175.57,20.56 175.99,21.40 176.41,21.04 176.83,20.67 177.26,22.06 177.68,21.23 178.10,20.32 178.52,20.59 178.95,20.59 179.37,20.45 179.79,20.27 180.21,20.37 180.64,21.00 181.06,20.67 181.48,20.95 181.90,21.11 182.33,20.97 182.75,20.73 183.17,20.19 183.59,20.19 184.02,19.52 184.44,18.79 184.86,19.44 185.29,19.30 185.71,19.35 186.13,19.63 186.55,20.07 186.98,20.33 187.40,20.21 187.82,20.76 188.24,21.53 188.67,22.81 189.09,22.16 189.51,22.44 189.93,22.30 190.36,22.25 190.78,22.42 191.20,22.21 191.62,22.21 192.05,21.56 192.47,20.99 192.89,23.08 193.31,23.78 193.74,25.10 194.16,24.35 194.58,24.35 195.00,23.88 195.43,26.27 195.85,27.86 196.27,29.33 196.69,30.10 197.12,29.49 197.54,30.13 197.96,29.40 198.38,30.64 198.81,29.59 199.23,31.08 199.65,30.59 200.08,32.53 200.50,30.75 200.92,31.20 201.34,33.75 201.77,34.33 202.19,36.66 202.61,37.42 203.03,37.21 203.46,39.26 203.88,39.62 204.30,39.94 204.72,41.30 205.15,41.63 205.57,42.57 205.99,43.10 206.41,43.10 206.84,44.04 207.26,44.09 207.68,43.95 208.10,45.09 208.53,45.05 208.95,44.95 209.37,44.79 209.79,46.39 210.22,46.62 210.64,47.11 211.06,48.30 211.48,49.08 211.91,49.94 212.33,50.89 212.75,51.90 213.18,53.45 213.60,53.61 214.02,53.60 214.44,53.59 214.87,53.68 215.29,53.65 215.71,53.75 216.13,53.35 216.56,54.09 216.98,53.46 217.40,52.67 217.82,54.00 218.25,53.43 218.67,51.71 219.09,51.81 219.51,50.69 219.94,50.13 220.36,49.80 220.78,49.19 221.20,49.62 221.63,49.97 222.05,50.08 222.47,50.88 222.89,51.96 223.32,9.58 223.74,9.58 224.16,9.58 224.58,7.73 225.01,7.73 225.43,6.13 225.85,6.13 226.27,6.13 226.70,5.32 227.12,7.07 227.54,7.07 227.97,6.62 228.39,6.62 228.81,6.62 229.23,6.55 229.66,6.55 230.08,7.82 230.50,7.82 230.92,7.82 231.35,9.63 231.77,11.61 232.19,11.61 232.61,7.84 233.04,7.84 233.46,5.48 233.88,5.48 234.30,5.48 234.73,4.00 235.15,9.30 235.57,9.30 235.99,8.48 236.42,8.48 236.84,8.48 237.26,6.09 237.68,6.09 238.11,7.87 238.53,5.58 238.95,5.58 239.37,5.58 239.80,9.74 240.22,9.74 240.64,9.74 241.07,12.06 241.49,12.06 241.91,12.06 242.33,11.39 242.76,11.39 243.18,11.39 243.60,16.89 244.02,16.89 244.45,16.89 244.87,16.89 245.29,17.15 245.71,17.15 246.14,17.15 246.56,19.77 246.98,19.77 247.40,19.77 247.83,21.63 248.25,21.63 248.67,21.63 249.09,21.37 249.52,21.37 249.94,21.37 250.36,19.96 250.78,19.96 251.21,19.96 251.63,17.50 252.05,17.50 252.47,22.19 252.90,22.19 253.32,19.54 253.74,21.76 254.16,21.76 254.59,21.76 255.01,21.76 255.43,21.12 255.86,21.12 256.28,21.12 256.70,19.44 257.12,19.44 257.55,19.44 257.97,18.76 258.39,18.76 258.81,18.76 259.24,18.74 259.66,18.74 260.08,20.17 260.50,20.17 260.93,18.78 261.35,18.78 261.77,22.83 262.19,22.83 262.62,21.44 263.04,21.44 263.46,21.44 263.88,21.00 264.31,21.61 264.73,21.61 265.15,21.61 265.57,22.95 266.00,22.95 266.42,20.32 266.84,24.60 267.26,24.60 267.69,24.60 268.11,24.60 268.53,27.81 268.96,25.99 269.38,25.99 269.80,31.05 270.22,31.05 270.65,31.05 271.07,26.83 271.49,30.49 271.91,30.49 272.34,30.49 272.76,34.75 273.18,34.75 273.60,28.17 274.03,28.17 274.45,35.64 274.87,35.64 275.29,35.64 275.72,38.12 276.14,38.12 276.56,38.12 276.98,37.87 277.41,37.87 277.83,37.87 278.25,39.15 278.67,42.27 279.10,42.67 279.52,42.67 279.94,42.67 280.36,42.51 280.79,42.51 281.21,42.51 281.63,42.47 282.05,42.47 282.48,42.47 282.90,46.03 283.32,46.03 283.75,47.51 284.17,47.51 284.59,47.51 285.01,50.57 285.44,50.57 285.86,50.57 286.28,52.16 286.70,52.16 287.13,53.55 287.55,53.55 287.97,53.55 288.39,53.18 288.82,53.18 289.24,53.18 289.66,52.56 290.08,52.28 290.51,52.28 290.93,55.16 291.35,55.16 291.77,50.94 292.20,50.94 292.62,50.94 293.04,49.23 293.46,49.23 293.89,49.23 294.31,49.23 294.73,50.61 295.15,51.32 295.58,51.32 296.00,56.00" />
</svg>