<svg width="300" height="60" xmlns="http://www.w3.org/2000/svg">
  <polyline fill="rgba(255,200,0,0.3)" stroke="#ffbb00" stroke-width="2" points="4.00,6.93 5.33,7.19 6.67,7.96 8.00,9.40 9.33,11.15 10.67,12.48 12.00,14.17 13.33,16.46 14.67,18.39 16.00,20.30 17.33,21.81 18.67,22.48 20.00,22.87 21.33,23.43 22.67,24.38 24.00,24.74 25.33,25.09 26.67,25.04 28.00,26.02 29.33,26.74 30.67,28.01 32.00,28.96 33.33,30.55 34.67,31.55 36.00,33.28 37.33,34.07 38.67,35.62 40.00,36.64 41.33,38.21 42.67,39.22 44.00,39.62 45.33,39.41 46.67,39.05 48.00,38.74 49.33,39.08 50.67,38.62 52.00,37.27 53.33,37.58 54.67,38.56 56.00,38.64 57.33,38.51 58.67,39.09 60.00,39.78 61.33,40.28 62.67,40.55 64.00,41.35 65.33,42.30 66.67,42.96 68.00,43.52 69.33,44.61 70.67,46.30 72.00,47.66 73.33,48.51 74.67,50.03 76.00,52.85 77.33,7.70 78.67,7.43 80.00,8.21 81.33,9.49 82.67,11.29 84.00,13.06 85.33,14.75 86.67,16.69 88.00,19.43 89.33,21.03 90.67,22.37 92.00,22.74 93.33,23.04 94.67,23.51 96.00,24.55 97.33,25.08 98.67,25.38 100.00,25.70 101.33,26.52 102.67,27.93 104.00,28.43 105.33,29.25 106.67,30.96 108.00,30.90 109.33,33.20 110.67,34.75 112.00,36.52 113.33,38.38 114.67,39.55 116.00,39.72 117.33,40.99 118.67,41.59 120.00,39.88 121.33,39.45 122.67,39.35 124.00,39.31 125.33,37.78 126.67,37.81 128.00,37.47 129.33,37.33 130.67,37.97 132.00,39.65 133.33,40.60 134.67,40.44 136.00,40.54 137.33,42.14 138.67,42.98 140.00,43.65 141.33,44.78 142.67,45.94 144.00,46.72 145.33,47.86 146.67,48.79 148.00,50.53 149.33,53.53 150.67,6.45 152.00,6.45 153.33,6.86 154.67,6.86 156.00,9.49 157.33,11.60 158.67,14.08 160.00,15.58 161.33,17.62 162.67,19.66 164.00,21.16 165.33,21.33 166.67,22.06 168.00,23.10 169.33,24.02 170.67,24.52 172.00,24.92 173.33,24.02 174.67,24.69 176.00,26.29 177.33,30.97 178.67,31.29 180.00,31.99 181.33,31.99 182.67,34.36 184.00,38.44 185.33,35.36 186.67,40.04 188.00,35.40 189.33,36.33 190.67,42.01 192.00,39.52 193.33,39.75 194.67,40.79 196.00,39.31 197.33,30.79 198.67,33.53 200.00,30.42 201.33,34.60 202.67,37.27 204.00,34.93 205.33,38.63 206.67,36.70 208.00,38.87 209.33,36.70 210.67,39.00 212.00,38.26 213.33,42.17 214.67,41.91 216.00,42.94 217.33,46.05 218.67,49.96 220.00,51.13 221.33,52.90 222.67,54.53 224.00,4.00 225.33,9.37 226.67,6.20 228.00,6.20 229.33,6.20 230.67,11.88 232.00,11.88 233.33,11.88 234.67,18.90 236.00,18.90 237.33,18.90 238.67,22.51 240.00,22.51 241.33,22.51 242.67,23.98 244.00,23.98 245.33,23.98 246.67,23.98 248.00,23.98 249.33,27.46 250.67,27.46 252.00,30.30 253.33,30.30 254.67,30.30 256.00,30.30 257.33,32.24 258.67,32.24 260.00,32.24 261.33,23.35 262.67,23.35 264.00,40.63 265.33,40.63 266.67,36.05 268.00,36.05 269.33,36.05 270.67,23.35 272.00,36.05 273.33,31.07 274.67,31.07 276.00,31.07 277.33,43.77 278.67,43.77 280.00,33.21 281.33,33.21 282.67,33.21 284.00,39.66 285.33,39.66 286.67,39.66 288.00,40.63 289.33,40.63 290.67,40.63 292.00,50.32 293.33,53.33 294.67,53.33 296.00,56.00" />
</svg>