<svg width="300" height="60" xmlns="http://www.w3.org/2000/svg">
  <polyline fill="rgba(255,200,0,0.3)" stroke="#ffbb00" stroke-width="2" points="4.00,5.73 4.49,5.43 4.99,5.21 5.48,5.20 5.98,5.40 6.47,5.54 6.96,5.26 7.46,4.91 7.95,4.53 8.45,4.52 8.94,4.88 9.43,5.50 9.93,6.18 10.42,6.74 10.92,7.31 11.41,7.66 11.91,7.95 12.40,8.30 12.89,8.53 13.39,8.71 13.88,9.00 14.38,9.50 14.87,10.04 15.36,10.52 15.86,11.02 16.35,11.43 16.85,11.93 17.34,12.03 17.83,12.28 18.33,12.91 18.82,13.70 19.32,14.76 19.81,15.61 20.30,16.39 20.80,17.31 21.29,18.32 21.79,19.18 22.28,19.97 22.77,20.75 23.27,21.51 23.76,22.33 24.26,23.16 24.75,23.88 25.25,24.45 25.74,24.98 26.23,25.64 26.73,26.39 27.22,27.21 27.72,28.14 28.21,28.95 28.70,29.74 29.20,30.53 29.69,31.44 30.19,32.44 30.68,33.15 31.17,34.28 31.67,34.91 32.16,35.69 32.66,36.57 33.15,37.46 33.64,38.25 34.14,38.70 34.63,38.79 35.13,38.51 35.62,38.00 36.12,37.70 36.61,37.86 37.10,38.45 37.60,38.98 38.09,39.30 38.59,39.45 39.08,39.44 39.57,39.49 40.07,39.60 40.56,39.85 41.06,39.57 41.55,39.15 42.04,38.72 42.54,38.18 43.03,37.80 43.53,37.92 44.02,38.48 44.51,39.53 45.01,40.76 45.50,41.56 46.00,41.84 46.49,41.96 46.98,42.11 47.48,42.00 47.97,41.54 48.47,40.99 48.96,40.52 49.46,40.39 49.95,40.39 50.44,40.25 50.94,39.95 51.43,39.71 51.93,39.65 52.42,39.83 52.91,40.15 53.41,40.56 53.90,40.97 54.40,41.24 54.89,41.55 55.38,41.70 55.88,41.71 56.37,41.27 56.87,40.73 57.36,40.21 57.85,39.68 58.35,39.35 58.84,38.90 59.34,38.89 59.83,38.93 60.32,39.26 60.82,40.00 61.31,40.72 61.81,41.58 62.30,42.35 62.80,43.16 63.29,43.94 63.78,44.81 64.28,45.73 64.77,46.56 65.27,47.52 65.76,48.32 66.25,49.02 66.75,49.55 67.24,50.06 67.74,50.38 68.23,50.73 68.72,51.02 69.22,51.17 69.71,50.90 70.21,50.46 70.70,50.12 71.19,49.90 71.69,49.89 72.18,49.96 72.68,50.06 73.17,50.53 73.66,51.32 74.16,52.26 74.65,52.92 75.15,53.16 75.64,53.55 76.14,53.85 76.63,54.69 77.12,5.76 77.62,5.43 78.11,5.18 78.61,5.24 79.10,5.61 79.59,5.61 80.09,5.51 80.58,5.04 81.08,4.52 81.57,4.52 82.06,5.01 82.56,5.61 83.05,6.33 83.55,6.89 84.04,7.63 84.53,7.79 85.03,7.83 85.52,8.38 86.02,8.40 86.51,8.68 87.01,8.83 87.50,9.52 87.99,10.15 88.49,10.63 88.98,11.23 89.48,11.74 89.97,12.03 90.46,12.11 90.96,12.33 91.45,12.87 91.95,13.74 92.44,14.93 92.93,15.82 93.43,16.35 93.92,17.38 94.42,18.48 94.91,19.71 95.40,20.38 95.90,21.02 96.39,21.77 96.89,22.42 97.38,23.26 97.87,24.23 98.37,24.43 98.86,25.00 99.36,25.80 99.85,26.42 100.35,27.31 100.84,28.28 101.33,28.92 101.83,29.73 102.32,30.60 102.82,31.79 103.31,32.50 103.80,33.43 104.30,34.50 104.79,35.32 105.29,36.14 105.78,36.62 106.27,37.60 106.77,38.49 107.26,38.80 107.76,38.75 108.25,38.42 108.74,37.80 109.24,37.70 109.73,37.98 110.23,38.45 110.72,39.06 111.21,39.31 111.71,39.46 112.20,39.59 112.70,39.42 113.19,39.64 113.69,39.79 114.18,39.54 114.67,39.08 115.17,38.91 115.66,38.07 116.16,37.95 116.65,37.99 117.14,38.70 117.64,39.60 118.13,40.99 118.63,41.60 119.12,41.94 119.61,42.00 120.11,42.11 120.60,41.91 121.10,41.49 121.59,40.94 122.08,40.42 122.58,40.34 123.07,40.35 123.57,40.22 124.06,39.89 124.55,39.65 125.05,39.64 125.54,39.87 126.04,40.30 126.53,40.65 127.03,41.06 127.52,41.25 128.01,41.48 128.51,41.69 129.00,41.59 129.50,41.28 129.99,40.80 130.48,40.31 130.98,39.84 131.47,39.31 131.97,39.09 132.46,39.01 132.95,39.22 133.45,39.25 133.94,40.06 134.44,41.15 134.93,41.94 135.42,42.81 135.92,43.39 136.41,43.88 136.91,45.10 137.40,45.84 137.90,46.76 138.39,47.71 138.88,48.17 139.38,48.81 139.87,49.69 140.37,50.03 140.86,50.48 141.35,50.84 141.85,51.34 142.34,51.17 142.84,50.85 143.33,50.46 143.82,50.14 144.32,49.83 144.81,50.00 145.31,50.14 145.80,50.25 146.29,50.81 146.79,51.44 147.28,52.49 147.78,53.01 148.27,53.30 148.76,53.67 149.26,54.00 149.75,54.99 150.25,5.79 150.74,5.28 151.24,5.13 151.73,4.33 152.22,5.10 152.72,5.30 153.21,5.57 153.71,5.26 154.20,4.71 154.69,4.21 155.19,4.71 155.68,5.48 156.18,6.08 156.67,6.79 157.16,7.80 157.66,7.79 158.15,8.75 158.65,9.69 159.14,8.95 159.63,9.61 160.13,9.16 160.62,9.79 161.12,10.52 161.61,10.20 162.10,11.34 162.60,11.51 163.09,11.51 163.59,11.94 164.08,11.23 164.58,12.62 165.07,13.93 165.56,13.38 166.06,15.35 166.55,16.02 167.05,17.52 167.54,18.59 168.03,19.23 168.53,19.83 169.02,20.67 169.52,21.86 170.01,20.50 170.50,22.84 171.00,24.69 171.49,23.76 171.99,24.97 172.48,25.84 172.97,25.84 173.47,26.76 173.96,27.76 174.46,29.15 174.95,29.68 175.45,30.40 175.94,31.27 176.43,32.04 176.93,33.87 177.42,34.48 177.92,34.85 178.41,36.95 178.90,37.04 179.40,37.65 179.89,38.46 180.39,38.91 180.88,38.88 181.37,38.88 181.87,38.39 182.36,38.17 182.86,37.89 183.35,38.62 183.84,39.12 184.34,39.21 184.83,39.31 185.33,39.32 185.82,39.10 186.31,39.57 186.81,40.24 187.30,39.60 187.80,39.29 188.29,39.36 188.79,37.79 189.28,38.66 189.77,38.55 190.27,38.55 190.76,38.99 191.26,39.92 191.75,41.00 192.24,42.58 192.74,42.34 193.23,42.30 193.73,42.22 194.22,42.01 194.71,41.65 195.21,41.09 195.70,40.62 196.20,40.34 196.69,40.13 197.18,39.97 197.68,39.84 198.17,39.76 198.67,39.84 199.16,40.12 199.65,40.57 200.15,41.00 200.64,41.36 201.14,41.78 201.63,42.17 202.13,41.63 202.62,41.54 203.11,40.78 203.61,40.79 204.10,39.91 204.60,39.18 205.09,39.16 205.58,39.19 206.08,39.22 206.57,39.87 207.07,39.47 207.56,41.98 208.05,39.50 208.55,41.82 209.04,41.21 209.54,43.52 210.03,43.81 210.52,45.65 211.02,46.71 211.51,47.56 212.01,48.19 212.50,48.84 212.99,49.92 213.49,49.92 213.98,50.91 214.48,50.88 214.97,51.12 215.47,51.49 215.96,51.22 216.45,50.59 216.95,50.23 217.44,49.94 217.94,49.49 218.43,50.92 218.92,50.55 219.42,50.92 219.91,51.83 220.41,52.88 220.90,52.47 221.39,53.28 221.89,53.83 222.38,53.99 222.88,54.49 223.37,4.00 223.86,4.00 224.36,4.00 224.85,4.00 225.35,4.45 225.84,4.45 226.34,4.45 226.83,5.16 227.32,5.16 227.82,5.16 228.31,4.19 228.81,4.19 229.30,7.02 229.79,7.02 230.29,7.02 230.78,10.49 231.28,10.49 231.77,13.55 232.26,8.67 232.76,8.67 233.25,10.68 233.75,10.68 234.24,10.68 234.73,7.97 235.23,11.64 235.72,11.64 236.22,11.64 236.71,12.06 237.20,8.12 237.70,8.12 238.19,13.38 238.69,13.38 239.18,10.54 239.68,10.54 240.17,14.48 240.66,14.48 241.16,14.48 241.65,17.52 242.15,17.52 242.64,17.52 243.13,17.52 243.63,22.67 244.12,19.31 244.62,19.31 245.11,19.31 245.60,25.48 246.10,25.48 246.59,25.48 247.09,25.48 247.58,29.75 248.07,29.75 248.57,29.75 249.06,31.80 249.56,31.80 250.05,31.80 250.54,33.30 251.04,33.30 251.53,33.30 252.03,36.42 252.52,36.42 253.02,36.42 253.51,41.04 254.00,41.04 254.50,41.04 254.99,41.04 255.49,38.82 255.98,38.82 256.47,42.58 256.97,40.56 257.46,40.56 257.96,40.56 258.45,40.56 258.94,40.82 259.44,40.82 259.93,40.82 260.43,40.74 260.92,40.74 261.41,40.74 261.91,38.40 262.40,38.40 262.90,38.40 263.39,38.40 263.88,38.54 264.38,38.54 264.87,38.54 265.37,42.73 265.86,42.73 266.36,42.73 266.85,44.67 267.34,44.67 267.84,44.67 268.33,42.87 268.83,42.87 269.32,42.87 269.81,42.99 270.31,42.99 270.80,42.99 271.30,41.20 271.79,41.20 272.28,41.20 272.78,42.99 273.27,42.99 273.77,42.99 274.26,44.79 274.75,44.79 275.25,42.63 275.74,42.62 276.24,43.75 276.73,43.75 277.23,43.75 277.72,40.33 278.21,40.33 278.71,40.33 279.20,40.41 279.70,40.41 280.19,38.98 280.68,38.56 281.18,38.56 281.67,38.56 282.17,38.56 282.66,44.06 283.15,41.67 283.65,41.67 284.14,48.83 284.64,48.83 285.13,48.83 285.62,53.00 286.12,53.00 286.61,53.00 287.11,53.00 287.60,52.25 288.09,52.25 288.59,52.25 289.08,52.27 289.58,52.27 290.07,52.27 290.57,50.64 291.06,50.64 291.55,50.64 292.05,49.23 292.54,49.23 293.04,49.23 293.53,51.56 294.02,51.56 294.52,51.56 295.01,54.42 295.51,56.00 296.00,56.00" />
</svg>