<svg width="300" height="60" xmlns="http://www.w3.org/2000/svg">
  <polyline fill="rgba(255,200,0,0.3)" stroke="#ffbb00" stroke-width="2" points="4.00,52.71 11.49,50.87 18.97,49.64 26.46,43.74 33.95,37.09 41.44,30.94 48.92,26.23 56.41,21.70 63.90,18.09 71.38,12.67 78.87,54.68 86.36,56.00 93.85,51.78 101.33,44.67 108.82,38.21 116.31,32.87 123.79,27.59 131.28,22.57 138.77,19.63 146.26,16.99 153.74,50.98 161.23,50.45 168.72,53.35 176.21,45.70 183.69,32.37 191.18,30.52 198.67,30.52 206.15,22.73 213.64,18.66 221.13,14.83 228.62,51.71 236.10,51.71 243.59,51.71 251.08,23.53 258.56,23.53 266.05,23.53 273.54,23.53 281.03,27.76 288.51,4.00 296.00,4.79" />
</svg>