<svg width="300" height="60" xmlns="http://www.w3.org/2000/svg">
  <polyline fill="rgba(255,200,0,0.3)" stroke="#ffbb00" stroke-width="2" points="4.00,55.97 4.23,55.87 4.46,55.68 4.69,55.41 4.92,55.11 5.15,54.84 5.37,54.50 5.60,54.11 5.83,53.79 6.06,53.50 6.29,53.21 6.52,52.92 6.75,52.63 6.98,52.32 7.21,52.05 7.44,51.88 7.66,51.80 7.89,51.82 8.12,51.86 8.35,51.88 8.58,51.87 8.81,51.83 9.04,51.80 9.27,51.75 9.50,51.67 9.73,51.58 9.95,51.47 10.18,51.35 10.41,51.19 10.64,51.01 10.87,50.83 11.10,50.64 11.33,50.42 11.56,50.23 11.79,50.08 12.02,49.96 12.24,49.83 12.47,49.67 12.70,49.50 12.93,49.30 13.16,49.12 13.39,48.81 13.62,48.52 13.85,48.24 14.08,47.99 14.31,47.76 14.53,47.55 14.76,47.33 14.99,47.12 15.22,46.92 15.45,46.72 15.68,46.46 15.91,46.19 16.14,45.92 16.37,45.65 16.60,45.40 16.83,45.18 17.05,44.92 17.28,44.62 17.51,44.34 17.74,44.07 17.97,43.80 18.20,43.58 18.43,43.28 18.66,42.97 18.89,42.69 19.12,42.44 19.34,42.20 19.57,41.97 19.80,41.68 20.03,41.31 20.26,40.97 20.49,40.65 20.72,40.44 20.95,40.40 21.18,40.54 21.41,40.75 21.63,40.91 21.86,40.98 22.09,41.01 22.32,41.05 22.55,41.09 22.78,41.08 23.01,41.04 23.24,40.99 23.47,40.91 23.70,40.83 23.92,40.74 24.15,40.61 24.38,40.43 24.61,40.24 24.84,40.06 25.07,39.87 25.30,39.69 25.53,39.54 25.76,39.37 25.99,39.24 26.21,38.99 26.44,38.74 26.67,38.46 26.90,38.17 27.13,37.85 27.36,37.50 27.59,37.23 27.82,36.97 28.05,36.77 28.28,36.50 28.51,36.23 28.73,36.01 28.96,35.72 29.19,35.46 29.42,35.17 29.65,34.95 29.88,34.51 30.11,34.22 30.34,33.98 30.57,33.74 30.80,33.54 31.02,33.37 31.25,33.17 31.48,32.92 31.71,32.54 31.94,32.21 32.17,31.89 32.40,31.53 32.63,31.22 32.86,30.90 33.09,30.62 33.31,30.36 33.54,30.14 33.77,29.93 34.00,29.74 34.23,29.56 34.46,29.40 34.69,29.27 34.92,29.12 35.15,28.96 35.38,28.80 35.60,28.61 35.83,28.41 36.06,28.21 36.29,28.01 36.52,27.79 36.75,27.55 36.98,27.36 37.21,27.20 37.44,27.05 37.67,26.91 37.89,26.75 38.12,26.60 38.35,26.44 38.58,26.32 38.81,26.25 39.04,26.18 39.27,26.10 39.50,26.06 39.73,26.05 39.96,26.12 40.19,26.26 40.41,26.46 40.64,26.64 40.87,26.83 41.10,27.01 41.33,27.12 41.56,27.18 41.79,27.14 42.02,27.04 42.25,26.87 42.48,26.59 42.70,26.28 42.93,25.92 43.16,25.68 43.39,25.39 43.62,25.14 43.85,24.93 44.08,24.69 44.31,24.43 44.54,24.15 44.77,23.85 44.99,23.52 45.22,23.19 45.45,22.83 45.68,22.45 45.91,22.10 46.14,21.75 46.37,21.48 46.60,21.20 46.83,20.93 47.06,20.72 47.28,20.51 47.51,20.27 47.74,20.05 47.97,19.85 48.20,19.63 48.43,19.39 48.66,19.12 48.89,18.95 49.12,18.77 49.35,18.61 49.57,18.43 49.80,18.24 50.03,18.04 50.26,17.85 50.49,17.65 50.72,17.48 50.95,17.31 51.18,17.12 51.41,16.91 51.64,16.67 51.87,16.42 52.09,16.12 52.32,15.76 52.55,15.37 52.78,14.98 53.01,14.58 53.24,14.18 53.47,13.77 53.70,13.41 53.93,13.04 54.16,12.62 54.38,12.26 54.61,11.87 54.84,11.47 55.07,11.08 55.30,10.73 55.53,10.37 55.76,10.01 55.99,9.67 56.22,9.35 56.45,9.00 56.67,8.67 56.90,8.33 57.13,7.99 57.36,7.65 57.59,7.32 57.82,7.01 58.05,6.68 58.28,6.37 58.51,6.01 58.74,5.68 58.96,5.31 59.19,4.97 59.42,4.65 59.65,4.36 59.88,4.17 60.11,4.10 60.34,4.17 60.57,4.33 60.80,4.55 61.03,4.77 61.25,5.02 61.48,5.26 61.71,5.50 61.94,5.74 62.17,6.08 62.40,6.32 62.63,6.64 62.86,7.07 63.09,7.48 63.32,7.75 63.55,8.02 63.77,8.19 64.00,8.37 64.23,8.48 64.46,8.56 64.69,8.44 64.92,8.26 65.15,8.01 65.38,7.75 65.61,7.56 65.84,7.41 66.06,7.29 66.29,7.20 66.52,7.13 66.75,7.06 66.98,6.97 67.21,6.81 67.44,6.52 67.67,6.21 67.90,5.83 68.13,5.50 68.35,5.27 68.58,5.07 68.81,4.91 69.04,4.82 69.27,4.80 69.50,4.84 69.73,4.93 69.96,5.03 70.19,5.18 70.42,5.37 70.64,5.51 70.87,5.64 71.10,5.72 71.33,5.74 71.56,5.75 71.79,5.79 72.02,5.92 72.25,6.11 72.48,6.34 72.71,6.57 72.93,6.78 73.16,6.96 73.39,7.13 73.62,7.30 73.85,7.44 74.08,7.59 74.31,7.74 74.54,7.92 74.77,8.11 75.00,8.32 75.23,8.54 75.45,8.75 75.68,8.94 75.91,9.11 76.14,9.23 76.37,9.36 76.60,9.45 76.83,9.46 77.06,55.97 77.29,55.89 77.52,55.77 77.74,55.46 77.97,55.20 78.20,54.87 78.43,54.43 78.66,54.10 78.89,53.88 79.12,53.57 79.35,53.30 79.58,52.99 79.81,52.67 80.03,52.42 80.26,52.07 80.49,51.92 80.72,51.83 80.95,51.73 81.18,51.82 81.41,51.93 81.64,51.89 81.87,51.86 82.10,51.83 82.32,51.80 82.55,51.72 82.78,51.61 83.01,51.50 83.24,51.39 83.47,51.24 83.70,51.04 83.93,50.92 84.16,50.68 84.39,50.57 84.61,50.27 84.84,50.12 85.07,50.01 85.30,49.87 85.53,49.67 85.76,49.53 85.99,49.34 86.22,49.14 86.45,48.86 86.68,48.54 86.91,48.24 87.13,47.99 87.36,47.84 87.59,47.60 87.82,47.42 88.05,47.21 88.28,46.95 88.51,46.75 88.74,46.54 88.97,46.23 89.20,46.00 89.42,45.68 89.65,45.45 89.88,45.20 90.11,44.91 90.34,44.61 90.57,44.33 90.80,44.10 91.03,43.92 91.26,43.69 91.49,43.48 91.71,42.99 91.94,42.76 92.17,42.46 92.40,42.32 92.63,41.97 92.86,41.81 93.09,41.36 93.32,41.02 93.55,40.72 93.78,40.46 94.00,40.41 94.23,40.55 94.46,40.76 94.69,40.88 94.92,41.00 95.15,41.00 95.38,41.03 95.61,41.10 95.84,41.09 96.07,41.06 96.29,41.00 96.52,40.94 96.75,40.87 96.98,40.76 97.21,40.63 97.44,40.47 97.67,40.28 97.90,40.15 98.13,39.93 98.36,39.70 98.59,39.57 98.81,39.38 99.04,39.19 99.27,39.01 99.50,38.74 99.73,38.53 99.96,38.18 100.19,37.90 100.42,37.52 100.65,37.27 100.88,37.02 101.10,36.81 101.33,36.53 101.56,36.29 101.79,36.00 102.02,35.69 102.25,35.46 102.48,35.42 102.71,34.97 102.94,34.58 103.17,34.28 103.39,34.01 103.62,33.77 103.85,33.56 104.08,33.50 104.31,33.25 104.54,33.19 104.77,32.68 105.00,32.30 105.23,31.96 105.46,31.54 105.68,31.20 105.91,31.03 106.14,30.72 106.37,30.43 106.60,30.21 106.83,29.95 107.06,29.76 107.29,29.59 107.52,29.45 107.75,29.27 107.97,29.13 108.20,28.98 108.43,28.84 108.66,28.66 108.89,28.43 109.12,28.27 109.35,28.07 109.58,27.86 109.81,27.62 110.04,27.45 110.27,27.24 110.49,27.08 110.72,26.98 110.95,26.87 111.18,26.62 111.41,26.48 111.64,26.33 111.87,26.24 112.10,26.18 112.33,26.14 112.56,26.11 112.78,26.08 113.01,26.15 113.24,26.29 113.47,26.47 113.70,26.61 113.93,26.84 114.16,27.04 114.39,27.26 114.62,27.35 114.85,27.25 115.07,27.19 115.30,26.98 115.53,26.55 115.76,26.29 115.99,25.90 116.22,25.57 116.45,25.37 116.68,25.19 116.91,24.90 117.14,24.58 117.36,24.42 117.59,24.21 117.82,23.86 118.05,23.56 118.28,23.20 118.51,22.92 118.74,22.39 118.97,22.14 119.20,21.58 119.43,21.42 119.65,21.07 119.88,20.92 120.11,20.67 120.34,20.45 120.57,20.22 120.80,19.94 121.03,19.85 121.26,19.56 121.49,19.30 121.72,19.02 121.95,18.80 122.17,18.74 122.40,18.50 122.63,18.41 122.86,18.22 123.09,18.04 123.32,17.83 123.55,17.63 123.78,17.48 124.01,17.33 124.24,17.12 124.46,16.87 124.69,16.68 124.92,16.46 125.15,16.14 125.38,15.82 125.61,15.40 125.84,15.04 126.07,14.63 126.30,14.16 126.53,13.73 126.75,13.41 126.98,13.09 127.21,12.65 127.44,12.09 127.67,11.80 127.90,11.31 128.13,11.04 128.36,10.56 128.59,10.31 128.82,9.80 129.04,9.65 129.27,9.19 129.50,8.85 129.73,8.73 129.96,8.36 130.19,8.06 130.42,7.67 130.65,7.35 130.88,7.00 131.11,6.68 131.33,6.32 131.56,5.97 131.79,5.68 132.02,5.29 132.25,4.98 132.48,4.70 132.71,4.33 132.94,4.17 133.17,4.08 133.40,4.21 133.63,4.38 133.85,4.50 134.08,4.76 134.31,4.99 134.54,5.24 134.77,5.52 135.00,5.75 135.23,6.05 135.46,6.31 135.69,6.66 135.92,7.03 136.14,7.33 136.37,7.63 136.60,8.00 136.83,8.13 137.06,8.37 137.29,8.45 137.52,8.59 137.75,8.49 137.98,8.29 138.21,8.04 138.43,7.81 138.66,7.58 138.89,7.40 139.12,7.29 139.35,7.20 139.58,7.14 139.81,7.04 140.04,6.97 140.27,6.77 140.50,6.58 140.72,6.28 140.95,5.81 141.18,5.61 141.41,5.31 141.64,5.16 141.87,4.99 142.10,4.83 142.33,4.80 142.56,4.84 142.79,4.92 143.01,5.07 143.24,5.37 143.47,5.55 143.70,5.53 143.93,5.61 144.16,5.73 144.39,5.74 144.62,5.74 144.85,5.79 145.08,5.91 145.31,6.05 145.53,6.27 145.76,6.51 145.99,6.75 146.22,6.91 146.45,7.02 146.68,7.27 146.91,7.44 147.14,7.55 147.37,7.78 147.60,7.95 147.82,8.11 148.05,8.30 148.28,8.49 148.51,8.67 148.74,8.93 148.97,9.06 149.20,9.24 149.43,9.35 149.66,9.45 149.89,9.47 150.11,56.00 150.34,55.84 150.57,55.57 150.80,55.30 151.03,55.03 151.26,54.69 151.49,54.25 151.72,53.87 151.95,53.87 152.18,53.69 152.40,53.35 152.63,53.06 152.86,52.84 153.09,52.33 153.32,51.98 153.55,51.82 153.78,51.94 154.01,51.99 154.24,52.11 154.47,52.25 154.69,51.87 154.92,51.89 155.15,51.87 155.38,51.82 155.61,51.74 155.84,51.83 156.07,51.58 156.30,51.26 156.53,51.16 156.76,51.04 156.99,50.87 157.21,50.60 157.44,50.32 157.67,49.98 157.90,49.97 158.13,50.03 158.36,49.79 158.59,49.37 158.82,49.33 159.05,49.08 159.28,48.83 159.50,48.53 159.73,48.24 159.96,48.04 160.19,47.76 160.42,47.76 160.65,47.59 160.88,47.31 161.11,47.17 161.34,46.88 161.57,46.85 161.79,46.52 162.02,46.24 162.25,45.99 162.48,45.75 162.71,45.54 162.94,45.10 163.17,44.90 163.40,44.68 163.63,44.45 163.86,44.13 164.08,44.02 164.31,43.49 164.54,43.13 164.77,42.79 165.00,42.80 165.23,42.54 165.46,42.26 165.69,41.98 165.92,41.80 166.15,41.00 166.37,40.80 166.60,40.64 166.83,40.36 167.06,40.50 167.29,40.64 167.52,40.80 167.75,41.11 167.98,41.11 168.21,40.98 168.44,40.89 168.67,41.20 168.89,41.13 169.12,41.06 169.35,41.02 169.58,40.90 169.81,40.98 170.04,40.73 170.27,40.75 170.50,40.48 170.73,40.17 170.96,40.12 171.18,39.80 171.41,39.72 171.64,39.54 171.87,39.39 172.10,39.15 172.33,38.95 172.56,38.61 172.79,38.25 173.02,37.97 173.25,37.86 173.47,37.43 173.70,37.29 173.93,37.00 174.16,36.70 174.39,36.41 174.62,36.51 174.85,36.13 175.08,35.93 175.31,35.73 175.54,35.34 175.76,34.79 175.99,34.76 176.22,34.29 176.45,33.94 176.68,33.70 176.91,33.60 177.14,34.39 177.37,33.62 177.60,33.52 177.83,32.94 178.05,32.19 178.28,32.25 178.51,31.49 178.74,31.29 178.97,31.00 179.20,30.69 179.43,30.43 179.66,30.23 179.89,29.73 180.12,29.59 180.35,29.45 180.57,29.33 180.80,29.20 181.03,29.05 181.26,28.88 181.49,28.88 181.72,28.73 181.95,28.35 182.18,28.20 182.41,28.09 182.64,28.00 182.86,27.52 183.09,27.47 183.32,27.16 183.55,27.42 183.78,27.29 184.01,26.74 184.24,26.57 184.47,26.97 184.70,26.44 184.93,26.29 185.15,26.43 185.38,26.34 185.61,26.03 185.84,26.00 186.07,25.41 186.30,26.12 186.53,26.42 186.76,26.83 186.99,26.92 187.22,27.12 187.44,27.37 187.67,27.30 187.90,27.30 188.13,27.21 188.36,26.89 188.59,26.55 188.82,26.26 189.05,25.96 189.28,25.50 189.51,25.30 189.73,25.06 189.96,24.81 190.19,24.57 190.42,24.30 190.65,24.01 190.88,23.71 191.11,23.37 191.34,23.01 191.57,22.62 191.80,22.27 192.03,21.95 192.25,21.29 192.48,21.10 192.71,20.93 192.94,20.83 193.17,20.74 193.40,20.23 193.63,20.17 193.86,20.09 194.09,20.02 194.32,19.36 194.54,19.27 194.77,19.16 195.00,18.63 195.23,18.71 195.46,18.35 195.69,18.43 195.92,18.17 196.15,18.17 196.38,17.92 196.61,17.68 196.83,17.46 197.06,17.46 197.29,17.21 197.52,16.94 197.75,16.67 197.98,16.67 198.21,16.31 198.44,15.90 198.67,15.43 198.90,14.94 199.12,14.42 199.35,14.46 199.58,13.88 199.81,13.33 200.04,12.77 200.27,12.59 200.50,12.08 200.73,11.96 200.96,11.23 201.19,11.15 201.41,10.47 201.64,10.41 201.87,9.77 202.10,9.81 202.33,9.08 202.56,8.43 202.79,8.66 203.02,8.15 203.25,8.31 203.48,7.75 203.71,6.97 203.93,7.21 204.16,6.68 204.39,6.14 204.62,6.51 204.85,5.60 205.08,5.05 205.31,5.29 205.54,4.60 205.77,4.00 206.00,4.05 206.22,4.13 206.45,4.31 206.68,4.31 206.91,4.58 207.14,4.86 207.37,5.21 207.60,5.19 207.83,5.61 208.06,6.00 208.29,6.14 208.51,6.34 208.74,6.56 208.97,7.74 209.20,7.92 209.43,7.95 209.66,8.48 209.89,8.35 210.12,8.74 210.35,8.63 210.58,8.99 210.80,8.68 211.03,8.42 211.26,8.32 211.49,7.91 211.72,7.64 211.95,7.34 212.18,7.27 212.41,7.22 212.64,7.20 212.87,7.16 213.09,7.11 213.32,6.73 213.55,6.40 213.78,6.12 214.01,5.86 214.24,5.51 214.47,5.27 214.70,5.59 214.93,5.03 215.16,4.89 215.39,4.95 215.61,4.75 215.84,5.07 216.07,5.63 216.30,5.63 216.53,5.90 216.76,5.74 216.99,6.15 217.22,5.79 217.45,5.79 217.68,5.77 217.90,5.83 218.13,6.02 218.36,6.37 218.59,6.91 218.82,6.67 219.05,7.16 219.28,6.72 219.51,7.09 219.74,7.59 219.97,7.65 220.19,7.65 220.42,8.85 220.65,8.47 220.88,8.23 221.11,8.93 221.34,8.81 221.57,8.60 221.80,9.05 222.03,9.05 222.26,9.29 222.48,9.44 222.71,9.65 222.94,9.47 223.17,55.46 223.40,55.46 223.63,55.46 223.86,54.46 224.09,54.46 224.32,54.46 224.55,53.22 224.77,53.22 225.00,53.22 225.23,53.77 225.46,52.97 225.69,52.97 225.92,52.97 226.15,52.20 226.38,52.20 226.61,52.20 226.84,52.34 227.07,52.34 227.29,52.34 227.52,52.61 227.75,52.61 227.98,52.43 228.21,52.43 228.44,52.43 228.67,51.87 228.90,51.87 229.13,51.87 229.36,51.33 229.58,51.33 229.81,50.65 230.04,50.65 230.27,50.65 230.50,49.99 230.73,49.99 230.96,50.31 231.19,50.31 231.42,49.19 231.65,49.19 231.87,50.44 232.10,49.47 232.33,49.47 232.56,49.47 232.79,48.16 233.02,48.16 233.25,48.16 233.48,48.16 233.71,47.48 233.94,47.48 234.16,47.48 234.39,47.01 234.62,48.80 234.85,47.55 235.08,47.55 235.31,47.55 235.54,47.06 235.77,47.06 236.00,46.28 236.23,46.28 236.45,46.28 236.68,44.60 236.91,44.60 237.14,44.19 237.37,43.30 237.60,43.30 237.83,42.31 238.06,42.31 238.29,42.31 238.52,41.48 238.75,41.48 238.97,40.82 239.20,40.82 239.43,40.82 239.66,40.47 239.89,40.67 240.12,40.67 240.35,40.67 240.58,40.70 240.81,41.91 241.04,41.91 241.26,41.91 241.49,41.40 241.72,41.40 241.95,41.40 242.18,41.21 242.41,41.21 242.64,40.66 242.87,40.49 243.10,40.49 243.33,40.49 243.55,40.49 243.78,39.69 244.01,39.69 244.24,39.69 244.47,39.31 244.70,39.31 244.93,39.31 245.16,39.16 245.39,38.24 245.62,38.24 245.84,38.24 246.07,37.97 246.30,37.05 246.53,37.05 246.76,37.05 246.99,37.42 247.22,36.17 247.45,36.17 247.68,36.17 247.91,36.17 248.13,35.25 248.36,35.25 248.59,35.25 248.82,33.41 249.05,34.25 249.28,34.25 249.51,34.25 249.74,32.42 249.97,34.39 250.20,34.39 250.43,34.39 250.65,31.82 250.88,32.22 251.11,32.22 251.34,32.22 251.57,29.96 251.80,29.73 252.03,29.73 252.26,29.73 252.49,29.57 252.72,29.57 252.94,29.57 253.17,29.40 253.40,29.40 253.63,29.40 253.86,28.87 254.09,28.87 254.32,28.87 254.55,28.87 254.78,28.28 255.01,28.28 255.23,28.28 255.46,28.03 255.69,28.03 255.92,26.78 256.15,27.01 256.38,27.01 256.61,27.01 256.84,28.65 257.07,26.45 257.30,26.45 257.52,26.45 257.75,26.45 257.98,24.61 258.21,24.61 258.44,24.61 258.67,23.46 258.90,25.47 259.13,25.47 259.36,25.47 259.59,25.70 259.81,27.03 260.04,27.03 260.27,27.58 260.50,27.58 260.73,27.58 260.96,27.58 261.19,27.40 261.42,27.40 261.65,27.40 261.88,26.56 262.11,26.56 262.33,25.72 262.56,24.93 262.79,24.93 263.02,24.93 263.25,24.20 263.48,24.20 263.71,24.20 263.94,23.42 264.17,23.42 264.40,23.42 264.62,22.51 264.85,22.51 265.08,22.51 265.31,22.17 265.54,22.17 265.77,22.17 266.00,22.39 266.23,22.39 266.46,20.25 266.69,20.25 266.91,20.07 267.14,20.07 267.37,20.07 267.60,19.88 267.83,19.88 268.06,19.88 268.29,20.58 268.52,18.61 268.75,18.61 268.98,19.71 269.20,19.71 269.43,19.71 269.66,17.97 269.89,19.10 270.12,19.10 270.35,19.10 270.58,17.27 270.81,18.43 271.04,18.43 271.27,18.43 271.49,16.18 271.72,16.18 271.95,16.97 272.18,14.65 272.41,14.65 272.64,14.65 272.87,15.18 273.10,12.70 273.33,12.70 273.56,12.70 273.79,13.01 274.01,13.01 274.24,13.01 274.47,10.80 274.70,10.80 274.93,10.80 275.16,12.78 275.39,12.78 275.62,8.71 275.85,8.71 276.08,10.27 276.30,10.27 276.53,10.27 276.76,6.86 276.99,8.41 277.22,8.41 277.45,8.41 277.68,10.65 277.91,6.81 278.14,6.81 278.37,6.81 278.59,6.35 278.82,4.26 279.05,4.26 279.28,4.86 279.51,4.86 279.74,4.86 279.97,4.86 280.20,5.97 280.43,5.97 280.66,4.90 280.88,6.98 281.11,6.98 281.34,6.98 281.57,7.79 281.80,7.79 282.03,7.79 282.26,8.36 282.49,8.36 282.72,9.77 282.95,9.77 283.17,9.77 283.40,9.21 283.63,9.21 283.86,9.21 284.09,8.45 284.32,9.48 284.55,9.48 284.78,8.89 285.01,8.89 285.24,8.76 285.47,8.76 285.69,8.76 285.92,7.87 286.15,7.87 286.38,6.53 286.61,6.53 286.84,6.53 287.07,5.32 287.30,5.32 287.53,6.11 287.76,6.11 287.98,4.60 288.21,4.60 288.44,6.80 288.67,5.62 288.90,5.62 289.13,5.62 289.36,5.62 289.59,5.59 289.82,5.59 290.05,5.59 290.27,6.14 290.50,6.14 290.73,6.76 290.96,6.76 291.19,6.76 291.42,8.67 291.65,8.67 291.88,8.67 292.11,11.19 292.34,7.09 292.56,7.09 292.79,7.77 293.02,7.77 293.25,7.45 293.48,10.75 293.71,10.75 293.94,9.83 294.17,9.83 294.40,9.83 294.63,9.27 294.85,9.27 295.08,9.78 295.31,9.92 295.54,9.92 295.77,9.92 296.00,9.97" />
</svg>