<svg width="300" height="60" xmlns="http://www.w3.org/2000/svg">
  <polyline fill="rgba(255,200,0,0.3)" stroke="#ffbb00" stroke-width="2" points="4.00,56.00 4.41,54.73 4.81,53.68 5.22,52.56 5.62,51.61 6.03,50.16 6.43,48.95 6.84,47.77 7.24,46.79 7.65,46.11 8.06,46.72 8.46,46.49 8.87,45.84 9.27,45.59 9.68,45.00 10.08,44.53 10.49,44.26 10.89,44.06 11.30,43.68 11.71,43.58 12.11,43.45 12.52,42.86 12.92,42.07 13.33,41.75 13.73,41.17 14.14,40.94 14.54,39.96 14.95,39.62 15.36,39.06 15.76,38.51 16.17,37.62 16.57,37.45 16.98,37.14 17.38,37.13 17.79,36.92 18.19,37.16 18.60,36.23 19.01,35.62 19.41,35.16 19.82,34.97 20.22,34.92 20.63,33.69 21.03,32.13 21.44,30.56 21.84,30.87 22.25,30.84 22.66,32.41 23.06,35.00 23.47,35.70 23.87,34.69 24.28,34.52 24.68,35.14 25.09,35.35 25.49,35.47 25.90,34.80 26.31,35.36 26.71,37.61 27.12,40.00 27.52,40.95 27.93,41.91 28.33,41.67 28.74,40.93 29.14,39.18 29.55,38.26 29.96,36.65 30.36,34.76 30.77,33.92 31.17,34.36 31.58,34.74 31.98,35.31 32.39,37.27 32.79,40.33 33.20,41.86 33.61,42.97 34.01,42.33 34.42,41.79 34.82,41.74 35.23,42.10 35.63,42.21 36.04,43.08 36.44,43.42 36.85,43.63 37.26,43.44 37.66,42.50 38.07,41.71 38.47,40.93 38.88,40.70 39.28,39.81 39.69,39.77 40.09,40.53 40.50,41.95 40.91,42.86 41.31,42.86 41.72,42.23 42.12,41.82 42.53,41.47 42.93,41.16 43.34,40.95 43.74,42.36 44.15,42.09 44.56,41.39 44.96,40.60 45.37,38.48 45.77,37.99 46.18,39.54 46.58,41.08 46.99,41.83 47.39,41.76 47.80,40.58 48.21,40.28 48.61,40.05 49.02,39.77 49.42,39.81 49.83,39.97 50.23,40.12 50.64,39.05 51.04,38.48 51.45,37.15 51.86,37.53 52.26,37.27 52.67,37.18 53.07,37.37 53.48,37.11 53.88,36.26 54.29,35.97 54.69,36.18 55.10,35.85 55.51,34.70 55.91,33.59 56.32,33.19 56.72,32.43 57.13,31.65 57.53,30.82 57.94,30.23 58.34,29.96 58.75,30.37 59.16,31.46 59.56,34.20 59.97,36.23 60.37,36.51 60.78,35.15 61.18,33.73 61.59,33.55 61.99,33.61 62.40,33.83 62.81,34.27 63.21,34.61 63.62,34.68 64.02,35.98 64.43,36.15 64.83,36.42 65.24,35.36 65.64,35.52 66.05,35.83 66.46,35.98 66.86,36.43 67.27,36.28 67.67,36.24 68.08,36.27 68.48,37.23 68.89,37.68 69.29,38.09 69.70,38.76 70.11,40.24 70.51,40.94 70.92,41.49 71.32,41.54 71.73,41.42 72.13,41.69 72.54,42.25 72.94,42.05 73.35,41.18 73.76,40.53 74.16,39.81 74.57,38.68 74.97,36.94 75.38,35.08 75.78,33.32 76.19,31.57 76.59,30.86 77.00,30.78 77.41,30.11 77.81,30.03 78.22,30.98 78.62,30.50 79.03,28.45 79.43,26.19 79.84,24.47 80.24,24.97 80.65,27.53 81.06,27.98 81.46,27.42 81.87,25.79 82.27,23.07 82.68,21.21 83.08,19.79 83.49,18.99 83.89,18.14 84.30,17.73 84.71,18.53 85.11,19.42 85.52,17.96 85.92,5.29 86.33,28.51 86.73,26.09 87.14,24.55 87.54,24.92 87.95,27.57 88.36,27.99 88.76,27.42 89.17,25.56 89.57,22.88 89.98,21.08 90.38,19.80 90.79,19.09 91.19,18.02 91.60,17.71 92.01,18.46 92.41,19.33 92.82,17.91 93.22,16.93 93.63,15.79 94.03,14.63 94.44,14.21 94.84,14.01 95.25,13.81 95.66,14.66 96.06,14.71 96.47,13.58 96.87,11.91 97.28,10.91 97.68,10.55 98.09,11.62 98.49,11.89 98.90,11.41 99.31,11.74 99.71,10.35 100.12,8.55 100.52,6.46 100.93,5.60 101.33,5.31 101.74,5.85 102.14,5.52 102.55,5.40 102.96,17.96 103.36,16.92 103.77,15.77 104.17,14.59 104.58,14.27 104.98,13.94 105.39,13.95 105.79,14.68 106.20,14.54 106.61,13.24 107.01,12.19 107.42,10.65 107.82,10.62 108.23,11.53 108.63,12.01 109.04,11.43 109.44,11.89 109.85,10.29 110.26,8.55 110.66,6.92 111.07,5.43 111.47,5.39 111.88,5.87 112.28,5.50 112.69,5.29 113.09,55.72 113.50,55.19 113.91,54.75 114.31,52.66 114.72,52.23 115.12,49.80 115.53,49.19 115.93,47.52 116.34,47.09 116.74,46.84 117.15,47.12 117.56,47.23 117.96,46.77 118.37,46.36 118.77,45.87 119.18,45.57 119.58,45.67 119.99,43.58 120.39,43.86 120.80,44.38 121.21,42.89 121.61,43.46 122.02,42.31 122.42,42.31 122.83,41.89 123.23,41.96 123.64,40.63 124.04,39.68 124.45,39.09 124.86,38.35 125.26,38.24 125.67,38.47 126.07,36.25 126.48,36.64 126.88,37.05 127.29,37.53 127.69,37.14 128.10,36.50 128.51,35.56 128.91,34.54 129.32,34.02 129.72,32.70 130.13,32.70 130.53,30.99 130.94,30.71 131.34,31.40 131.75,32.55 132.16,35.36 132.56,35.28 132.97,36.28 133.37,34.24 133.78,35.80 134.18,34.82 134.59,36.61 134.99,36.43 135.40,34.51 135.81,36.61 136.21,39.78 136.62,40.57 137.02,41.28 137.43,41.70 137.83,41.21 138.24,40.34 138.64,39.65 139.05,36.83 139.46,34.33 139.86,35.22 140.27,33.71 140.67,34.12 141.08,36.11 141.48,37.57 141.89,40.46 142.29,42.04 142.70,42.51 143.11,44.04 143.51,42.92 143.92,41.86 144.32,40.92 144.73,41.33 145.13,41.95 145.54,42.87 145.94,43.66 146.35,44.08 146.76,41.28 147.16,42.79 147.57,39.67 147.97,41.07 148.38,40.43 148.78,38.74 149.19,40.49 149.59,41.94 150.00,43.30 150.41,42.75 150.81,41.04 151.22,41.80 151.62,41.09 152.03,40.90 152.43,41.44 152.84,41.27 153.24,42.54 153.65,42.44 154.06,41.50 154.46,38.60 154.87,37.38 155.27,40.62 155.68,40.45 156.08,42.82 156.49,42.15 156.89,41.49 157.30,41.28 157.71,39.42 158.11,40.80 158.52,39.90 158.92,38.98 159.33,39.61 159.73,40.47 160.14,38.96 160.54,38.63 160.95,38.14 161.36,38.68 161.76,37.59 162.17,39.47 162.57,36.77 162.98,37.35 163.38,35.57 163.79,36.82 164.19,35.06 164.60,34.39 165.01,33.29 165.41,32.70 165.82,32.60 166.22,30.67 166.63,31.42 167.03,29.86 167.44,32.04 167.84,31.20 168.25,31.25 168.66,34.21 169.06,35.85 169.47,37.17 169.87,34.88 170.28,34.72 170.68,33.46 171.09,32.07 171.49,33.66 171.90,35.28 172.31,34.64 172.71,36.27 173.12,37.77 173.52,35.61 173.93,36.11 174.33,36.29 174.74,35.33 175.14,37.11 175.55,36.16 175.96,37.06 176.36,37.85 176.77,36.78 177.17,37.29 177.58,36.93 177.98,37.56 178.39,38.52 178.79,39.05 179.20,40.45 179.61,41.09 180.01,41.47 180.42,41.80 180.82,42.11 181.23,42.62 181.63,42.24 182.04,42.19 182.44,41.58 182.85,40.58 183.26,39.70 183.66,38.40 184.07,36.03 184.47,36.03 184.88,33.28 185.28,31.62 185.69,31.27 186.09,31.06 186.50,30.56 186.91,30.48 187.31,31.07 187.72,30.41 188.12,27.82 188.53,26.09 188.93,25.19 189.34,25.61 189.74,27.57 190.15,27.57 190.56,26.48 190.96,24.92 191.37,22.84 191.77,21.05 192.18,20.00 192.58,19.69 192.99,18.00 193.39,16.50 193.80,17.64 194.21,18.95 194.61,17.44 195.02,16.01 195.42,15.93 195.83,14.88 196.23,14.52 196.64,14.65 197.04,13.48 197.45,14.65 197.86,13.99 198.26,12.68 198.67,11.45 199.07,10.72 199.48,10.90 199.88,11.94 200.29,13.27 200.69,10.05 201.10,11.51 201.51,9.13 201.91,9.14 202.32,6.89 202.72,5.64 203.13,5.64 203.53,5.30 203.94,5.19 204.34,6.78 204.75,54.78 205.16,54.78 205.56,54.78 205.97,53.07 206.37,53.07 206.78,53.07 207.18,51.41 207.59,46.91 207.99,46.91 208.40,46.91 208.81,46.53 209.21,46.53 209.62,46.53 210.02,45.73 210.43,45.73 210.83,45.73 211.24,46.12 211.64,46.12 212.05,46.12 212.46,47.44 212.86,47.44 213.27,47.44 213.67,45.26 214.08,45.26 214.48,45.26 214.89,45.26 215.29,41.17 215.70,41.17 216.11,41.17 216.51,39.02 216.92,39.02 217.32,38.49 217.73,38.49 218.13,38.49 218.54,38.70 218.94,38.70 219.35,37.16 219.76,37.16 220.16,37.16 220.57,34.10 220.97,31.89 221.38,31.89 221.78,31.89 222.19,31.89 222.59,31.49 223.00,35.81 223.41,31.95 223.81,31.95 224.22,36.81 224.62,36.81 225.03,36.81 225.43,41.61 225.84,33.58 226.24,33.58 226.65,38.35 227.06,38.35 227.46,34.06 227.87,34.06 228.27,41.45 228.68,41.45 229.08,41.45 229.49,44.24 229.89,44.24 230.30,42.70 230.71,42.70 231.11,34.34 231.52,36.00 231.92,36.00 232.33,36.00 232.73,36.00 233.14,37.57 233.54,37.57 233.95,37.57 234.36,41.60 234.76,45.92 235.17,45.92 235.57,46.81 235.98,46.81 236.38,46.57 236.79,46.57 237.19,46.57 237.60,48.36 238.01,48.36 238.41,40.32 238.82,42.07 239.22,42.07 239.63,42.07 240.03,45.53 240.44,39.19 240.84,39.19 241.25,39.19 241.66,45.05 242.06,45.05 242.47,45.05 242.87,44.63 243.28,44.63 243.68,44.63 244.09,44.82 244.49,44.82 244.90,44.82 245.31,45.99 245.71,45.99 246.12,45.39 246.52,45.39 246.93,45.39 247.33,43.82 247.74,43.82 248.14,43.82 248.55,41.71 248.96,41.71 249.36,41.71 249.77,42.93 250.17,42.93 250.58,34.85 250.98,38.59 251.39,42.44 251.79,42.44 252.20,42.44 252.61,42.44 253.01,45.66 253.42,43.54 253.82,43.54 254.23,43.54 254.63,43.93 255.04,35.47 255.44,35.47 255.85,36.84 256.26,36.84 256.66,35.32 257.07,35.32 257.47,35.32 257.88,35.19 258.28,35.19 258.69,28.27 259.09,31.93 259.50,31.93 259.91,31.93 260.31,36.49 260.72,36.49 261.12,36.49 261.53,36.49 261.93,39.33 262.34,35.09 262.74,35.09 263.15,35.09 263.56,42.23 263.96,40.18 264.37,40.18 264.77,40.18 265.18,35.63 265.58,41.38 265.99,41.38 266.39,37.08 266.80,37.08 267.21,37.08 267.61,40.99 268.02,38.59 268.42,38.59 268.83,38.59 269.23,36.89 269.64,39.38 270.04,39.38 270.45,39.38 270.86,42.25 271.26,42.25 271.67,42.25 272.07,43.06 272.48,42.52 272.88,42.52 273.29,42.52 273.69,40.86 274.10,40.86 274.51,40.86 274.91,37.83 275.32,36.36 275.72,36.36 276.13,36.36 276.53,31.44 276.94,28.62 277.34,28.62 277.75,26.50 278.16,26.50 278.56,26.50 278.97,27.06 279.37,27.06 279.78,26.63 280.18,26.63 280.59,26.63 280.99,26.25 281.40,24.92 281.81,24.92 282.21,24.77 282.62,24.77 283.02,24.77 283.43,20.05 283.83,20.05 284.24,20.05 284.64,18.39 285.05,13.45 285.46,13.45 285.86,14.94 286.27,14.94 286.67,13.41 287.08,17.39 287.48,17.39 287.89,14.94 288.29,14.94 288.70,10.70 289.11,14.01 289.51,14.01 289.92,11.49 290.32,11.49 290.73,11.49 291.13,13.28 291.54,13.28 291.94,13.28 292.35,6.48 292.76,6.94 293.16,6.94 293.57,6.94 293.97,8.85 294.38,4.00 294.78,4.00 295.19,4.00 295.59,8.35 296.00,8.35" />
</svg>