<svg width="300" height="60" xmlns="http://www.w3.org/2000/svg">
  <polyline fill="rgba(255,200,0,0.3)" stroke="#ffbb00" stroke-width="2" points="4.00,44.36 4.46,44.88 4.93,45.43 5.39,46.06 5.85,46.61 6.31,46.90 6.78,47.19 7.24,47.42 7.70,47.67 8.16,47.86 8.63,48.01 9.09,48.09 9.55,48.17 10.02,48.27 10.48,48.36 10.94,48.48 11.40,48.64 11.87,49.03 12.33,49.19 12.79,49.45 13.26,49.92 13.72,50.46 14.18,50.92 14.64,51.14 15.11,51.06 15.57,50.97 16.03,51.05 16.49,51.07 16.96,50.86 17.42,50.61 17.88,50.73 18.35,51.13 18.81,51.59 19.27,51.86 19.73,52.02 20.20,52.29 20.66,52.50 21.12,52.78 21.58,52.99 22.05,53.18 22.51,53.27 22.97,53.47 23.44,53.59 23.90,53.70 24.36,53.92 24.82,54.17 25.29,54.37 25.75,54.75 26.21,4.63 26.68,4.91 27.14,5.64 27.60,6.13 28.06,6.56 28.53,7.19 28.99,8.02 29.45,8.78 29.91,9.40 30.38,10.07 30.84,10.60 31.30,11.17 31.77,11.71 32.23,12.38 32.69,13.09 33.15,13.59 33.62,14.25 34.08,14.97 34.54,15.79 35.00,16.46 35.47,17.21 35.93,18.15 36.39,18.85 36.86,19.43 37.32,19.91 37.78,20.57 38.24,21.15 38.71,21.64 39.17,22.09 39.63,22.47 40.10,22.99 40.56,23.91 41.02,24.73 41.48,25.54 41.95,26.33 42.41,27.04 42.87,27.75 43.33,28.38 43.80,29.07 44.26,29.59 44.72,30.19 45.19,30.69 45.65,31.12 46.11,31.53 46.57,31.78 47.04,32.26 47.50,32.80 47.96,33.29 48.42,33.73 48.89,34.06 49.35,34.26 49.81,34.41 50.28,34.48 50.74,34.52 51.20,34.51 51.66,34.38 52.13,34.53 52.59,35.02 53.05,35.40 53.52,35.66 53.98,35.87 54.44,36.01 54.90,36.07 55.37,35.97 55.83,35.74 56.29,35.35 56.75,35.02 57.22,34.80 57.68,34.76 58.14,35.05 58.61,35.42 59.07,35.87 59.53,36.31 59.99,36.83 60.46,37.28 60.92,37.61 61.38,38.12 61.84,38.52 62.31,38.84 62.77,39.09 63.23,39.35 63.70,39.70 64.16,39.82 64.62,39.86 65.08,39.69 65.55,39.74 66.01,39.95 66.47,40.14 66.94,40.28 67.40,40.34 67.86,40.49 68.32,40.95 68.79,41.35 69.25,41.69 69.71,42.03 70.17,42.52 70.64,43.10 71.10,43.72 71.56,44.32 72.03,44.83 72.49,45.39 72.95,46.04 73.41,46.59 73.88,46.86 74.34,47.14 74.80,47.38 75.26,47.61 75.73,47.81 76.19,47.97 76.65,48.05 77.12,48.14 77.58,48.24 78.04,48.33 78.50,48.45 78.97,48.58 79.43,48.97 79.89,49.13 80.35,49.39 80.82,49.84 81.28,50.37 81.74,50.87 82.21,51.08 82.67,51.02 83.13,50.93 83.59,50.99 84.06,51.03 84.52,50.83 84.98,50.56 85.45,50.68 85.91,51.05 86.37,51.54 86.83,51.81 87.30,51.99 87.76,52.24 88.22,52.47 88.68,52.73 89.15,52.93 89.61,53.11 90.07,53.20 90.54,53.36 91.00,53.51 91.46,53.64 91.92,53.85 92.39,54.10 92.85,54.31 93.31,54.68 93.77,4.75 94.24,4.96 94.70,5.11 95.16,5.59 95.63,6.45 96.09,7.31 96.55,7.49 97.01,8.61 97.48,9.60 97.94,10.07 98.40,10.56 98.87,11.29 99.33,11.63 99.79,12.46 100.25,13.09 100.72,13.69 101.18,14.17 101.64,14.72 102.10,15.74 102.57,16.48 103.03,17.11 103.49,18.23 103.96,19.19 104.42,19.42 104.88,20.12 105.34,21.45 105.81,20.95 106.27,21.62 106.73,21.88 107.19,22.65 107.66,22.91 108.12,23.81 108.58,24.47 109.05,25.97 109.51,26.07 109.97,26.16 110.43,27.22 110.90,28.83 111.36,29.69 111.82,29.42 112.29,30.23 112.75,30.49 113.21,31.12 113.67,31.32 114.14,31.19 114.60,31.94 115.06,32.16 115.52,32.86 115.99,33.13 116.45,34.12 116.91,34.33 117.38,34.38 117.84,34.51 118.30,34.75 118.76,34.15 119.23,34.46 119.69,34.58 120.15,35.01 120.61,35.27 121.08,35.81 121.54,35.90 122.00,35.97 122.47,36.13 122.93,36.03 123.39,35.63 123.85,35.21 124.32,34.95 124.78,34.68 125.24,35.00 125.71,34.64 126.17,35.52 126.63,35.90 127.09,36.11 127.56,36.95 128.02,37.16 128.48,37.61 128.94,37.76 129.41,38.52 129.87,38.74 130.33,39.06 130.80,39.36 131.26,39.68 131.72,39.71 132.18,39.74 132.65,39.62 133.11,39.72 133.57,39.59 134.03,39.98 134.50,40.15 134.96,40.14 135.42,40.21 135.89,40.78 136.35,41.25 136.81,41.63 137.27,42.03 137.74,42.31 138.20,43.20 138.66,43.66 139.13,44.39 139.59,45.01 140.05,45.46 140.51,45.99 140.98,46.60 141.44,46.98 141.90,47.21 142.36,47.50 142.83,47.67 143.29,47.94 143.75,48.03 144.22,48.07 144.68,47.99 145.14,48.12 145.60,48.38 146.07,48.61 146.53,48.68 146.99,49.05 147.45,49.14 147.92,49.40 148.38,49.89 148.84,50.52 149.31,50.89 149.77,52.27 150.23,51.00 150.69,51.30 151.16,51.01 151.62,50.76 152.08,50.78 152.55,50.45 153.01,50.57 153.47,50.94 153.93,51.53 154.40,51.64 154.86,51.84 155.32,52.02 155.78,52.61 156.25,52.79 156.71,53.00 157.17,53.14 157.64,53.33 158.10,53.40 158.56,53.63 159.02,53.77 159.49,54.15 159.95,54.14 160.41,54.42 160.87,54.70 161.34,4.51 161.80,4.52 162.26,5.00 162.73,5.43 163.19,6.27 163.65,6.88 164.11,6.70 164.58,8.18 165.04,8.55 165.50,9.61 165.97,9.96 166.43,10.99 166.89,11.20 167.35,11.25 167.82,12.61 168.28,13.05 168.74,13.09 169.20,14.86 169.67,15.17 170.13,15.38 170.59,15.58 171.06,17.96 171.52,17.83 171.98,17.83 172.44,18.79 172.91,20.71 173.37,20.39 173.83,19.94 174.29,21.68 174.76,22.65 175.22,22.65 175.68,22.88 176.15,24.22 176.61,25.17 177.07,26.68 177.53,27.26 178.00,27.64 178.46,28.35 178.92,29.00 179.39,29.61 179.85,30.61 180.31,30.55 180.77,31.20 181.24,31.83 181.70,32.44 182.16,32.80 182.62,31.94 183.09,32.73 183.55,32.76 184.01,33.78 184.48,34.06 184.94,34.39 185.40,34.11 185.86,33.86 186.33,33.53 186.79,33.03 187.25,32.59 187.71,32.84 188.18,33.29 188.64,35.94 189.10,35.76 189.57,35.80 190.03,36.00 190.49,36.26 190.95,36.14 191.42,35.06 191.88,36.09 192.34,35.15 192.81,34.59 193.27,34.62 193.73,34.91 194.19,34.69 194.66,36.94 195.12,35.98 195.58,37.20 196.04,37.20 196.51,38.29 196.97,37.81 197.43,39.11 197.90,38.36 198.36,39.16 198.82,38.66 199.28,39.84 199.75,40.79 200.21,40.01 200.67,41.04 201.13,39.31 201.60,39.45 202.06,40.49 202.52,39.62 202.99,39.06 203.45,39.06 203.91,39.13 204.37,42.00 204.84,41.82 205.30,41.24 205.76,42.64 206.23,42.98 206.69,42.42 207.15,44.30 207.61,44.89 208.08,43.73 208.54,44.68 209.00,46.54 209.46,47.00 209.93,45.36 210.39,45.74 210.85,47.55 211.32,47.10 211.78,47.80 212.24,48.18 212.70,48.32 213.17,48.42 213.63,48.57 214.09,48.80 214.55,49.23 215.02,48.82 215.48,48.60 215.94,48.62 216.41,50.56 216.87,50.96 217.33,51.41 217.79,50.94 218.26,51.29 218.72,51.10 219.18,50.97 219.65,51.43 220.11,50.28 220.57,51.48 221.03,51.78 221.50,52.29 221.96,51.81 222.42,53.14 222.88,51.81 223.35,52.19 223.81,52.82 224.27,53.04 224.74,53.04 225.20,53.25 225.66,54.17 226.12,52.77 226.59,53.57 227.05,54.27 227.51,54.68 227.97,52.93 228.44,53.90 228.90,4.00 229.36,4.00 229.83,6.65 230.29,6.65 230.75,6.65 231.21,9.50 231.68,9.50 232.14,9.50 232.60,9.68 233.06,9.68 233.53,9.68 233.99,14.40 234.45,13.23 234.92,13.23 235.38,13.23 235.84,13.79 236.30,13.79 236.77,13.79 237.23,14.99 237.69,14.99 238.16,14.99 238.62,21.39 239.08,16.58 239.54,16.58 240.01,16.58 240.47,22.10 240.93,19.80 241.39,19.80 241.86,19.80 242.32,19.80 242.78,19.80 243.25,22.69 243.71,25.55 244.17,25.55 244.63,25.55 245.10,24.74 245.56,25.50 246.02,25.50 246.48,28.83 246.95,28.83 247.41,28.83 247.87,30.72 248.34,30.72 248.80,32.26 249.26,32.26 249.72,32.26 250.19,33.36 250.65,33.36 251.11,32.18 251.58,33.94 252.04,33.94 252.50,33.94 252.96,33.87 253.43,33.87 253.89,33.87 254.35,33.01 254.81,33.01 255.28,33.01 255.74,32.82 256.20,37.60 256.67,37.60 257.13,37.60 257.59,37.99 258.05,37.99 258.52,37.99 258.98,37.95 259.44,37.95 259.90,37.95 260.37,37.09 260.83,37.09 261.29,37.09 261.76,37.19 262.22,37.19 262.68,37.19 263.14,40.41 263.61,40.41 264.07,40.41 264.53,40.41 265.00,38.97 265.46,38.97 265.92,41.39 266.38,41.19 266.85,41.19 267.31,41.19 267.77,41.78 268.23,41.78 268.70,41.05 269.16,41.05 269.62,44.28 270.09,44.17 270.55,44.17 271.01,44.17 271.47,44.17 271.94,43.85 272.40,43.85 272.86,43.85 273.32,43.02 273.79,43.02 274.25,43.02 274.71,45.41 275.18,45.41 275.64,41.46 276.10,41.46 276.56,46.75 277.03,46.75 277.49,42.79 277.95,42.79 278.42,47.91 278.88,47.91 279.34,47.91 279.80,49.57 280.27,49.57 280.73,49.57 281.19,50.06 281.65,50.06 282.12,50.06 282.58,47.11 283.04,47.11 283.51,44.58 283.97,49.75 284.43,49.75 284.89,50.28 285.36,50.28 285.82,50.28 286.28,50.28 286.74,51.73 287.21,51.73 287.67,51.73 288.13,54.97 288.60,54.97 289.06,54.97 289.52,54.34 289.98,54.34 290.45,54.34 290.91,54.34 291.37,56.00 291.84,56.00 292.30,56.00 292.76,52.19 293.22,52.19 293.69,50.95 294.15,50.95 294.61,50.95 295.07,51.72 295.54,51.72 296.00,52.84" />
</svg>