<svg width="300" height="60" xmlns="http://www.w3.org/2000/svg">
  <polyline fill="rgba(255,200,0,0.3)" stroke="#ffbb00" stroke-width="2" points="4.00,8.12 4.17,8.20 4.33,8.24 4.50,8.29 4.67,8.32 4.83,8.33 5.00,8.38 5.17,8.43 5.33,8.47 5.50,8.48 5.67,8.50 5.83,8.49 6.00,8.47 6.17,8.44 6.33,8.41 6.50,8.37 6.67,8.33 6.83,8.27 7.00,8.19 7.16,8.11 7.33,8.06 7.50,8.04 7.66,8.04 7.83,8.06 8.00,8.13 8.16,8.23 8.33,8.36 8.50,8.51 8.66,8.68 8.83,8.82 9.00,9.01 9.16,9.23 9.33,9.44 9.50,9.67 9.66,9.87 9.83,10.08 10.00,10.31 10.16,10.49 10.33,10.64 10.50,10.79 10.66,10.93 10.83,11.09 11.00,11.22 11.16,11.37 11.33,11.48 11.50,11.63 11.66,11.85 11.83,12.02 12.00,12.24 12.16,12.43 12.33,12.71 12.50,12.91 12.66,13.21 12.83,13.57 12.99,13.91 13.16,14.27 13.33,14.69 13.49,14.99 13.66,15.34 13.83,15.71 13.99,16.02 14.16,16.39 14.33,16.70 14.49,17.01 14.66,17.32 14.83,17.63 14.99,17.94 15.16,18.28 15.33,18.63 15.49,18.93 15.66,19.19 15.83,19.42 15.99,19.64 16.16,19.82 16.33,19.98 16.49,20.14 16.66,20.28 16.83,20.40 16.99,20.53 17.16,20.66 17.33,20.79 17.49,20.93 17.66,21.07 17.83,21.20 17.99,21.33 18.16,21.43 18.33,21.54 18.49,21.64 18.66,21.74 18.82,21.84 18.99,21.96 19.16,22.08 19.32,22.20 19.49,22.32 19.66,22.46 19.82,22.59 19.99,22.76 20.16,22.89 20.32,23.00 20.49,23.11 20.66,23.20 20.82,23.30 20.99,23.44 21.16,23.55 21.32,23.65 21.49,23.75 21.66,23.84 21.82,23.95 21.99,24.05 22.16,24.14 22.32,24.20 22.49,24.23 22.66,24.25 22.82,24.25 22.99,24.23 23.16,24.19 23.32,24.14 23.49,24.09 23.66,23.98 23.82,23.84 23.99,23.71 24.16,23.56 24.32,23.42 24.49,23.33 24.65,23.29 24.82,23.26 24.99,23.32 25.15,23.42 25.32,23.53 25.49,23.65 25.65,23.77 25.82,23.87 25.99,23.95 26.15,24.03 26.32,24.09 26.49,24.14 26.65,24.18 26.82,24.20 26.99,24.25 27.15,24.26 27.32,24.22 27.49,24.16 27.65,24.11 27.82,24.08 27.99,24.11 28.15,24.13 28.32,24.21 28.49,24.28 28.65,24.38 28.82,24.48 28.99,24.59 29.15,24.68 29.32,24.79 29.49,24.87 29.65,24.89 29.82,24.91 29.99,24.89 30.15,24.88 30.32,24.82 30.48,24.73 30.65,24.65 30.82,24.56 30.98,24.48 31.15,24.41 31.32,24.35 31.48,24.29 31.65,24.24 31.82,24.18 31.98,24.14 32.15,24.11 32.32,24.11 32.48,24.15 32.65,24.21 32.82,24.29 32.98,24.40 33.15,24.52 33.32,24.65 33.48,24.78 33.65,24.93 33.82,25.10 33.98,25.28 34.15,25.44 34.32,25.61 34.48,25.79 34.65,26.02 34.82,26.26 34.98,26.43 35.15,26.69 35.32,26.93 35.48,27.16 35.65,27.38 35.82,27.58 35.98,27.77 36.15,27.94 36.31,28.10 36.48,28.24 36.65,28.43 36.81,28.62 36.98,28.82 37.15,29.02 37.31,29.23 37.48,29.47 37.65,29.72 37.81,30.00 37.98,30.28 38.15,30.46 38.31,30.56 38.48,30.66 38.65,30.73 38.81,30.81 38.98,30.89 39.15,31.00 39.31,31.10 39.48,31.23 39.65,31.33 39.81,31.51 39.98,31.67 40.15,31.87 40.31,32.05 40.48,32.26 40.65,32.51 40.81,32.73 40.98,32.94 41.15,33.13 41.31,33.31 41.48,33.50 41.65,33.77 41.81,33.98 41.98,34.23 42.14,34.46 42.31,34.64 42.48,34.81 42.64,34.99 42.81,35.16 42.98,35.30 43.14,35.44 43.31,35.63 43.48,35.84 43.64,35.99 43.81,36.20 43.98,36.41 44.14,36.65 44.31,36.87 44.48,37.06 44.64,37.23 44.81,37.41 44.98,37.58 45.14,37.71 45.31,37.86 45.48,38.03 45.64,38.22 45.81,38.39 45.98,38.54 46.14,38.74 46.31,38.93 46.48,39.12 46.64,39.33 46.81,39.53 46.98,39.71 47.14,39.87 47.31,40.04 47.48,40.19 47.64,40.35 47.81,40.49 47.97,40.63 48.14,40.74 48.31,40.90 48.47,41.11 48.64,41.29 48.81,41.44 48.97,41.54 49.14,41.65 49.31,41.78 49.47,42.00 49.64,42.20 49.81,42.35 49.97,42.52 50.14,42.66 50.31,42.86 50.47,43.10 50.64,43.28 50.81,43.44 50.97,43.60 51.14,43.74 51.31,43.89 51.47,43.97 51.64,44.06 51.81,44.20 51.97,44.35 52.14,44.53 52.31,44.69 52.47,44.83 52.64,45.00 52.81,45.13 52.97,45.25 53.14,45.39 53.31,45.53 53.47,45.71 53.64,45.93 53.80,46.11 53.97,46.27 54.14,46.46 54.30,46.68 54.47,46.93 54.64,47.17 54.80,47.41 54.97,47.68 55.14,47.96 55.30,48.23 55.47,48.48 55.64,48.69 55.80,49.00 55.97,49.27 56.14,49.54 56.30,49.80 56.47,50.05 56.64,50.26 56.80,50.54 56.97,50.77 57.14,51.04 57.30,51.30 57.47,51.57 57.64,51.86 57.80,52.16 57.97,52.44 58.14,52.71 58.30,52.96 58.47,53.20 58.64,53.41 58.80,53.56 58.97,53.68 59.14,53.78 59.30,53.85 59.47,53.88 59.63,53.93 59.80,53.96 59.97,53.97 60.13,53.95 60.30,54.66 60.47,24.30 60.63,24.38 60.80,24.48 60.97,24.60 61.13,24.70 61.30,24.80 61.47,24.87 61.63,24.89 61.80,24.92 61.97,24.91 62.13,24.89 62.30,24.83 62.47,24.75 62.63,24.66 62.80,24.57 62.97,24.50 63.13,24.43 63.30,24.38 63.47,24.32 63.63,24.26 63.80,24.20 63.97,24.16 64.13,24.12 64.30,24.14 64.47,24.18 64.63,24.24 64.80,24.32 64.97,24.42 65.13,24.55 65.30,24.67 65.46,24.81 65.63,24.96 65.80,25.15 65.96,25.30 66.13,25.46 66.30,25.64 66.46,25.82 66.63,26.04 66.80,26.27 66.96,26.49 67.13,26.72 67.30,26.96 67.46,27.19 67.63,27.41 67.80,27.61 67.96,27.79 68.13,27.97 68.30,28.12 68.46,28.27 68.63,28.45 68.80,28.64 68.96,28.85 69.13,29.03 69.30,29.23 69.46,29.48 69.63,29.73 69.80,30.01 69.96,30.28 70.13,30.46 70.30,30.56 70.46,30.67 70.63,30.74 70.80,30.81 70.96,30.91 71.13,31.01 71.29,31.12 71.46,31.24 71.63,31.35 71.79,31.52 71.96,31.67 72.13,31.87 72.29,32.08 72.46,32.27 72.63,32.52 72.79,32.75 72.96,32.96 73.13,33.14 73.29,33.32 73.46,33.51 73.63,33.77 73.79,33.99 73.96,34.25 74.13,34.48 74.29,34.66 74.46,34.83 74.63,35.00 74.79,35.16 74.96,35.31 75.13,35.48 75.29,35.69 75.46,35.85 75.63,36.01 75.79,36.21 75.96,36.44 76.13,36.67 76.29,36.89 76.46,37.07 76.63,37.25 76.79,37.43 76.96,37.60 77.12,37.73 77.29,37.88 77.46,38.04 77.62,38.22 77.79,38.39 77.96,38.55 78.12,38.75 78.29,38.94 78.46,39.13 78.62,39.33 78.79,39.54 78.96,39.73 79.12,39.88 79.29,40.05 79.46,40.20 79.62,40.37 79.79,40.50 79.96,40.64 80.12,40.77 80.29,40.91 80.46,41.13 80.62,41.30 80.79,41.45 80.96,41.55 81.12,41.66 81.29,41.80 81.46,42.01 81.62,42.19 81.79,42.35 81.96,42.53 82.12,42.65 82.29,42.88 82.46,43.10 82.62,43.28 82.79,43.45 82.95,43.60 83.12,43.76 83.29,43.90 83.45,43.98 83.62,44.07 83.79,44.20 83.95,44.37 84.12,44.54 84.29,44.70 84.45,44.84 84.62,45.00 84.79,45.14 84.95,45.26 85.12,45.40 85.29,45.55 85.45,45.72 85.62,45.95 85.79,46.12 85.95,46.29 86.12,46.48 86.29,46.70 86.45,46.94 86.62,47.20 86.79,47.44 86.95,47.70 87.12,47.98 87.29,48.24 87.45,48.51 87.62,48.72 87.79,49.01 87.95,49.28 88.12,49.57 88.29,49.83 88.45,50.09 88.62,50.29 88.78,50.56 88.95,50.79 89.12,51.07 89.28,51.32 89.45,51.60 89.62,51.89 89.78,52.19 89.95,52.46 90.12,52.74 90.28,52.98 90.45,53.21 90.62,53.42 90.78,53.58 90.95,53.70 91.12,53.79 91.28,53.87 91.45,53.90 91.62,53.95 91.78,53.97 91.95,53.98 92.12,53.96 92.28,55.82 92.45,8.11 92.62,8.17 92.78,8.20 92.95,8.16 93.12,8.24 93.28,8.25 93.45,8.27 93.62,8.44 93.78,8.49 93.95,8.84 94.12,8.52 94.28,8.49 94.45,8.67 94.61,8.47 94.78,8.44 94.95,8.42 95.11,8.32 95.28,8.25 95.45,8.22 95.61,8.10 95.78,8.06 95.95,8.03 96.11,8.05 96.28,8.06 96.45,8.16 96.61,8.23 96.78,8.36 96.95,8.49 97.11,8.69 97.28,8.90 97.45,9.01 97.61,9.24 97.78,9.47 97.95,9.66 98.11,9.90 98.28,10.13 98.45,10.27 98.61,10.50 98.78,10.72 98.95,10.79 99.11,10.95 99.28,11.14 99.45,11.23 99.61,11.38 99.78,11.53 99.95,11.67 100.11,11.85 100.28,12.02 100.44,12.19 100.61,12.43 100.78,12.60 100.94,12.92 101.11,13.18 101.28,13.47 101.44,13.85 101.61,14.15 101.78,14.58 101.94,15.00 102.11,15.34 102.28,15.57 102.44,15.96 102.61,16.30 102.78,16.61 102.94,17.05 103.11,17.26 103.28,17.57 103.44,17.87 103.61,18.21 103.78,18.60 103.94,18.90 104.11,19.19 104.28,19.51 104.44,19.58 104.61,19.99 104.78,20.15 104.94,20.23 105.11,20.34 105.28,20.41 105.44,20.52 105.61,20.69 105.78,20.91 105.94,21.08 106.11,21.04 106.27,21.20 106.44,21.29 106.61,21.44 106.77,21.51 106.94,21.65 107.11,21.74 107.27,21.84 107.44,21.95 107.61,22.15 107.77,22.16 107.94,22.28 108.11,22.48 108.27,22.59 108.44,22.73 108.61,23.07 108.77,23.11 108.94,23.25 109.11,23.22 109.27,23.30 109.44,23.47 109.61,23.57 109.77,23.66 109.94,23.75 110.11,23.88 110.27,23.98 110.44,24.06 110.61,24.17 110.77,24.22 110.94,24.26 111.11,24.26 111.27,24.26 111.44,24.21 111.61,24.24 111.77,24.20 111.94,24.06 112.10,24.07 112.27,23.82 112.44,23.74 112.60,23.56 112.77,23.47 112.94,23.34 113.10,23.29 113.27,23.27 113.44,23.31 113.60,23.39 113.77,23.52 113.94,23.64 114.10,23.75 114.27,23.87 114.44,23.96 114.60,24.03 114.77,24.10 114.94,24.14 115.10,24.20 115.27,24.21 115.44,24.24 115.60,24.41 115.77,24.23 115.94,24.24 116.10,24.14 116.27,24.09 116.44,24.09 116.60,24.14 116.77,24.21 116.94,24.28 117.10,24.40 117.27,24.49 117.44,24.58 117.60,24.86 117.77,24.94 117.93,24.97 118.10,25.07 118.27,24.98 118.43,24.92 118.60,25.09 118.77,25.06 118.93,24.82 119.10,24.74 119.27,24.65 119.43,24.53 119.60,24.45 119.77,24.37 119.93,24.32 120.10,24.26 120.27,24.21 120.43,24.16 120.60,24.13 120.77,24.13 120.93,24.16 121.10,24.23 121.27,24.32 121.43,24.36 121.60,24.50 121.77,24.65 121.93,24.78 122.10,24.90 122.27,25.12 122.43,25.27 122.60,25.41 122.77,25.60 122.93,25.74 123.10,25.97 123.27,26.18 123.43,26.47 123.60,26.66 123.76,26.93 123.93,27.11 124.10,27.37 124.26,27.60 124.43,27.75 124.60,27.96 124.76,28.12 124.93,28.23 125.10,28.43 125.26,28.63 125.43,28.81 125.60,29.02 125.76,29.17 125.93,29.45 126.10,29.73 126.26,29.95 126.43,30.19 126.60,30.38 126.76,30.64 126.93,30.69 127.10,30.77 127.26,30.92 127.43,30.90 127.60,31.04 127.76,31.14 127.93,31.25 128.10,31.35 128.26,31.50 128.43,31.67 128.60,31.84 128.76,32.05 128.93,32.20 129.10,32.44 129.26,32.71 129.43,32.91 129.59,33.13 129.76,33.29 129.93,33.50 130.09,33.76 130.26,33.92 130.43,34.18 130.59,34.43 130.76,34.64 130.93,34.80 131.09,34.94 131.26,35.14 131.43,35.29 131.59,35.48 131.76,35.63 131.93,35.79 132.09,36.00 132.26,36.18 132.43,36.36 132.59,36.64 132.76,36.84 132.93,37.01 133.09,37.22 133.26,37.39 133.43,37.57 133.59,37.71 133.76,37.86 133.93,38.04 134.09,38.25 134.26,38.39 134.43,38.54 134.59,38.70 134.76,38.94 134.93,39.15 135.09,39.30 135.26,39.54 135.42,39.67 135.59,39.88 135.76,40.09 135.92,40.19 136.09,40.38 136.26,40.52 136.42,40.69 136.59,40.77 136.76,40.94 136.92,41.11 137.09,41.32 137.26,41.49 137.42,41.60 137.59,41.73 137.76,41.86 137.92,42.01 138.09,42.12 138.26,42.30 138.42,42.49 138.59,42.63 138.76,42.87 138.92,43.13 139.09,43.31 139.26,43.62 139.42,43.66 139.59,43.69 139.76,43.83 139.92,43.98 140.09,44.07 140.26,44.18 140.42,44.35 140.59,44.54 140.76,44.66 140.92,44.80 141.09,45.02 141.25,45.09 141.42,45.27 141.59,45.38 141.75,45.50 141.92,45.71 142.09,45.98 142.25,46.12 142.42,46.32 142.59,46.42 142.75,46.64 142.92,46.93 143.09,47.15 143.25,47.41 143.42,47.71 143.59,48.00 143.75,48.24 143.92,48.51 144.09,48.69 144.25,48.96 144.42,49.26 144.59,49.55 144.75,49.85 144.92,50.08 145.09,50.25 145.25,50.49 145.42,50.74 145.59,51.00 145.75,51.28 145.92,51.58 146.09,51.90 146.25,52.10 146.42,52.41 146.59,52.72 146.75,52.95 146.92,53.15 147.08,53.38 147.25,53.54 147.42,53.70 147.58,53.77 147.75,53.85 147.92,53.91 148.08,53.97 148.25,53.98 148.42,53.98 148.58,54.07 148.75,55.03 148.92,24.00 149.08,24.06 149.25,24.11 149.42,24.14 149.58,24.17 149.75,24.19 149.92,24.24 150.08,24.19 150.25,24.15 150.42,24.08 150.58,24.05 150.75,24.06 150.92,24.11 151.08,24.18 151.25,24.24 151.42,24.35 151.58,24.44 151.75,24.55 151.92,24.70 152.08,24.81 152.25,24.85 152.42,24.97 152.58,24.90 152.75,24.89 152.92,24.85 153.08,24.84 153.25,24.74 153.41,24.65 153.58,24.56 153.75,24.46 153.91,24.40 154.08,24.32 154.25,24.26 154.41,24.20 154.58,24.14 154.75,24.09 154.91,24.10 155.08,24.10 155.25,24.12 155.41,24.19 155.58,24.31 155.75,24.40 155.91,24.46 156.08,24.63 156.25,24.74 156.41,24.89 156.58,25.12 156.75,25.27 156.91,25.42 157.08,25.59 157.25,25.73 157.41,26.02 157.58,26.18 157.75,26.47 157.91,26.67 158.08,26.94 158.25,27.10 158.41,27.37 158.58,27.59 158.75,27.76 158.91,27.95 159.08,28.12 159.24,28.24 159.41,28.44 159.58,28.62 159.74,28.81 159.91,29.01 160.08,29.17 160.24,29.37 160.41,29.67 160.58,29.97 160.74,30.20 160.91,30.36 161.08,30.57 161.24,30.62 161.41,30.71 161.58,30.77 161.74,30.83 161.91,30.98 162.08,31.06 162.24,31.17 162.41,31.30 162.58,31.46 162.74,31.63 162.91,31.81 163.08,32.02 163.24,32.19 163.41,32.45 163.58,32.69 163.74,32.87 163.91,33.10 164.08,33.26 164.24,33.47 164.41,33.72 164.58,33.88 164.74,34.15 164.91,34.40 165.07,34.60 165.24,34.75 165.41,34.90 165.57,35.10 165.74,35.23 165.91,35.43 166.07,35.60 166.24,35.74 166.41,35.94 166.57,36.15 166.74,36.32 166.91,36.57 167.07,36.81 167.24,36.97 167.41,37.17 167.57,37.34 167.74,37.53 167.91,37.66 168.07,37.81 168.24,37.96 168.41,38.16 168.57,38.32 168.74,38.45 168.91,38.64 169.07,38.86 169.24,39.08 169.41,39.24 169.57,39.49 169.74,39.61 169.91,39.81 170.07,39.94 170.24,40.11 170.41,40.30 170.57,40.43 170.74,40.59 170.90,40.68 171.07,40.84 171.24,41.02 171.40,41.24 171.57,41.39 171.74,41.47 171.90,41.58 172.07,41.74 172.24,41.97 172.40,42.13 172.57,42.34 172.74,42.42 172.90,42.59 173.07,42.77 173.24,43.04 173.40,43.18 173.57,43.36 173.74,43.48 173.90,43.63 174.07,43.80 174.24,43.91 174.40,44.00 174.57,44.10 174.74,44.28 174.90,44.45 175.07,44.58 175.24,44.72 175.40,44.90 175.57,45.00 175.74,45.15 175.90,45.33 176.07,45.43 176.24,45.65 176.40,45.90 176.57,46.03 176.73,46.21 176.90,46.37 177.07,46.62 177.23,46.87 177.40,47.09 177.57,47.35 177.73,47.63 177.90,47.93 178.07,48.19 178.23,48.46 178.40,48.62 178.57,48.89 178.73,49.20 178.90,49.52 179.07,49.78 179.23,50.01 179.40,50.18 179.57,50.45 179.73,50.68 179.90,50.92 180.07,51.23 180.23,51.52 180.40,51.85 180.57,52.04 180.73,52.36 180.90,52.69 181.07,52.89 181.23,53.14 181.40,53.32 181.57,53.48 181.73,53.61 181.90,53.71 182.07,53.79 182.23,53.81 182.40,53.88 182.56,53.89 182.73,53.89 182.90,53.92 183.06,54.27 183.23,8.08 183.40,8.14 183.56,8.12 183.73,8.03 183.90,7.98 184.06,8.26 184.23,8.38 184.40,8.50 184.56,8.56 184.73,8.63 184.90,8.50 185.06,8.23 185.23,8.82 185.40,8.62 185.56,8.43 185.73,8.31 185.90,8.47 186.06,8.16 186.23,8.08 186.40,7.95 186.56,8.33 186.73,7.95 186.90,8.07 187.06,8.17 187.23,8.10 187.40,8.29 187.56,8.19 187.73,8.39 187.90,8.66 188.06,9.02 188.23,8.93 188.39,9.33 188.56,9.24 188.73,9.69 188.89,9.29 189.06,10.13 189.23,9.92 189.39,10.47 189.56,11.02 189.73,10.74 189.89,11.17 190.06,10.93 190.23,11.34 190.39,11.10 190.56,11.49 190.73,11.22 190.89,11.75 191.06,11.51 191.23,12.22 191.39,12.44 191.56,12.70 191.73,12.70 191.89,13.25 192.06,13.60 192.23,14.08 192.39,13.94 192.56,14.22 192.73,14.48 192.89,15.32 193.06,15.69 193.23,16.12 193.39,16.46 193.56,16.88 193.73,16.91 193.89,17.24 194.06,16.68 194.22,17.41 194.39,17.97 194.56,18.82 194.72,19.11 194.89,19.31 195.06,19.48 195.22,19.50 195.39,20.28 195.56,20.10 195.72,19.93 195.89,19.39 196.06,20.54 196.22,20.64 196.39,20.88 196.56,20.61 196.72,20.96 196.89,20.91 197.06,21.17 197.22,21.13 197.39,21.35 197.56,21.08 197.72,21.56 197.89,21.77 198.06,21.90 198.22,21.92 198.39,22.19 198.56,22.21 198.72,22.28 198.89,22.52 199.06,22.56 199.22,22.92 199.39,22.94 199.56,23.33 199.72,23.26 199.89,23.30 200.05,23.30 200.22,23.45 200.39,23.65 200.55,23.72 200.72,23.72 200.89,23.77 201.05,23.99 201.22,24.18 201.39,23.93 201.55,24.28 201.72,24.32 201.89,24.26 202.05,24.27 202.22,24.30 202.39,24.29 202.55,24.24 202.72,24.20 202.89,23.97 203.05,23.54 203.22,23.37 203.39,23.22 203.55,23.11 203.72,22.98 203.89,22.83 204.05,22.67 204.22,22.75 204.39,22.95 204.55,23.22 204.72,23.46 204.89,23.64 205.05,23.92 205.22,24.04 205.39,23.81 205.55,24.05 205.72,24.13 205.88,24.21 206.05,24.34 206.22,24.46 206.38,24.57 206.55,24.25 206.72,24.10 206.88,24.03 207.05,24.07 207.22,24.14 207.38,23.83 207.55,24.11 207.72,24.32 207.88,24.06 208.05,24.35 208.22,24.62 208.38,24.71 208.55,24.97 208.72,25.25 208.88,24.79 209.05,24.98 209.22,25.24 209.38,25.42 209.55,25.38 209.72,24.94 209.88,24.88 210.05,24.80 210.22,24.68 210.38,24.53 210.55,24.34 210.72,24.30 210.88,24.26 211.05,24.30 211.22,24.38 211.38,24.21 211.55,24.07 211.71,24.11 211.88,24.20 212.05,24.30 212.21,24.44 212.38,24.31 212.55,24.87 212.71,25.23 212.88,24.93 213.05,25.32 213.21,25.12 213.38,25.48 213.55,25.53 213.71,25.90 213.88,26.14 214.05,26.60 214.21,26.49 214.38,26.84 214.55,27.27 214.71,27.28 214.88,27.73 215.05,27.77 215.21,28.25 215.38,28.07 215.55,28.59 215.71,28.43 215.88,28.65 216.05,28.60 216.21,28.87 216.38,28.93 216.55,29.24 216.71,29.44 216.88,30.01 217.05,29.95 217.21,30.38 217.38,30.67 217.54,31.00 217.71,31.03 217.88,30.82 218.04,31.37 218.21,30.91 218.38,31.10 218.54,31.27 218.71,30.91 218.88,31.28 219.04,31.64 219.21,31.60 219.38,31.49 219.54,32.39 219.71,32.48 219.88,32.52 220.04,32.27 220.21,32.71 220.38,33.09 220.54,33.37 220.71,33.66 220.88,33.93 221.04,33.93 221.21,34.10 221.38,34.10 221.54,34.63 221.71,34.41 221.88,34.80 222.04,35.14 222.21,35.00 222.38,35.36 222.54,35.62 222.71,35.74 222.88,36.07 223.04,36.45 223.21,36.53 223.37,36.77 223.54,37.24 223.71,37.02 223.87,37.40 224.04,37.84 224.21,37.63 224.37,37.95 224.54,37.95 224.71,38.19 224.87,38.21 225.04,38.38 225.21,38.59 225.37,38.89 225.54,39.03 225.71,39.48 225.87,40.21 226.04,40.08 226.21,39.70 226.37,40.12 226.54,40.19 226.71,40.69 226.87,40.65 227.04,40.66 227.21,40.99 227.37,40.76 227.54,40.97 227.71,41.11 227.87,41.24 228.04,41.46 228.21,41.45 228.37,41.68 228.54,41.74 228.71,42.17 228.87,42.11 229.04,41.98 229.20,42.51 229.37,42.56 229.54,42.55 229.70,43.37 229.87,43.34 230.04,43.66 230.20,43.66 230.37,43.75 230.54,44.27 230.70,44.05 230.87,44.17 231.04,44.28 231.20,44.90 231.37,44.90 231.54,44.87 231.70,44.96 231.87,45.05 232.04,45.57 232.20,45.52 232.37,45.47 232.54,45.90 232.70,46.14 232.87,46.38 233.04,46.38 233.20,46.41 233.37,46.44 233.54,46.79 233.70,47.06 233.87,47.19 234.04,47.72 234.20,48.06 234.37,47.96 234.54,48.37 234.70,48.80 234.87,49.19 235.03,49.08 235.20,49.49 235.37,49.89 235.53,50.00 235.70,50.27 235.87,50.27 236.03,50.55 236.20,50.84 236.37,50.95 236.53,51.24 236.70,51.53 236.87,51.98 237.03,52.25 237.20,52.68 237.37,52.82 237.53,53.23 237.70,53.31 237.87,53.41 238.03,53.73 238.20,53.90 238.37,54.00 238.53,54.17 238.70,54.06 238.87,53.99 239.03,54.05 239.20,54.02 239.37,54.05 239.53,54.93 239.70,7.48 239.87,7.53 240.03,7.53 240.20,7.53 240.37,7.77 240.53,7.77 240.70,8.32 240.86,8.32 241.03,8.32 241.20,6.93 241.36,6.93 241.53,6.93 241.70,8.84 241.86,8.84 242.03,7.78 242.20,7.78 242.36,7.78 242.53,4.84 242.70,4.84 242.86,7.72 243.03,7.72 243.20,5.01 243.36,5.01 243.53,7.43 243.70,7.43 243.86,7.43 244.03,4.00 244.20,7.31 244.36,7.31 244.53,5.23 244.70,5.23 244.86,9.30 245.03,6.99 245.20,6.99 245.36,6.99 245.53,6.99 245.70,4.28 245.86,9.73 246.03,9.73 246.20,7.35 246.36,7.35 246.53,7.35 246.69,9.86 246.86,9.86 247.03,9.86 247.19,7.70 247.36,7.70 247.53,7.70 247.69,12.12 247.86,12.12 248.03,13.57 248.19,11.54 248.36,11.54 248.53,14.40 248.69,14.40 248.86,14.40 249.03,12.24 249.19,15.45 249.36,15.45 249.53,15.45 249.69,17.49 249.86,15.43 250.03,15.43 250.19,16.23 250.36,16.23 250.53,16.23 250.69,18.17 250.86,18.17 251.03,19.57 251.19,19.57 251.36,19.57 251.53,19.13 251.69,19.13 251.86,19.13 252.03,17.57 252.19,17.57 252.36,18.07 252.52,18.07 252.69,18.07 252.86,20.18 253.02,20.18 253.19,20.18 253.36,21.57 253.52,21.57 253.69,19.32 253.86,21.13 254.02,21.13 254.19,21.13 254.36,22.51 254.52,22.51 254.69,20.54 254.86,22.19 255.02,22.19 255.19,22.19 255.36,23.66 255.52,22.19 255.69,22.19 255.86,23.51 256.02,23.51 256.19,23.51 256.36,23.64 256.52,23.64 256.69,23.64 256.86,23.64 257.02,23.93 257.19,23.93 257.36,23.93 257.52,23.93 257.69,24.48 257.86,24.48 258.02,24.48 258.19,24.48 258.35,24.29 258.52,24.66 258.69,24.66 258.85,24.66 259.02,24.58 259.19,22.49 259.35,22.49 259.52,21.38 259.69,21.38 259.85,20.81 260.02,20.81 260.19,20.81 260.35,20.72 260.52,20.72 260.69,21.42 260.85,21.42 261.02,21.42 261.19,22.34 261.35,22.34 261.52,23.17 261.69,23.17 261.85,23.17 262.02,23.66 262.19,23.66 262.35,23.66 262.52,24.19 262.69,24.19 262.85,24.09 263.02,24.09 263.19,24.09 263.35,23.95 263.52,23.95 263.69,24.62 263.85,22.80 264.02,22.80 264.18,23.38 264.35,23.38 264.52,23.38 264.68,24.49 264.85,24.49 265.02,25.52 265.18,25.52 265.35,22.55 265.52,22.95 265.68,22.95 265.85,22.95 266.02,23.03 266.18,23.03 266.35,22.73 266.52,22.73 266.68,22.73 266.85,22.31 267.02,22.31 267.18,22.83 267.35,22.83 267.52,22.83 267.68,23.04 267.85,23.04 268.02,22.70 268.18,22.70 268.35,22.70 268.52,23.39 268.68,23.39 268.85,23.39 269.02,24.43 269.18,24.43 269.35,25.97 269.52,25.97 269.68,23.65 269.85,25.65 270.01,25.65 270.18,25.65 270.35,27.73 270.51,27.73 270.68,26.98 270.85,26.98 271.01,29.34 271.18,28.48 271.35,28.48 271.51,28.48 271.68,28.48 271.85,28.22 272.01,29.59 272.18,29.59 272.35,28.75 272.51,28.75 272.68,28.75 272.85,28.00 273.01,31.22 273.18,31.22 273.35,31.22 273.51,30.21 273.68,30.21 273.85,30.08 274.01,30.08 274.18,30.08 274.35,27.98 274.51,27.98 274.68,27.98 274.85,29.19 275.01,29.19 275.18,29.19 275.35,27.15 275.51,31.25 275.68,31.25 275.84,31.14 276.01,31.14 276.18,31.14 276.34,32.16 276.51,32.16 276.68,32.16 276.84,33.61 277.01,31.01 277.18,33.79 277.34,33.79 277.51,33.79 277.68,33.79 277.84,32.60 278.01,32.60 278.18,32.60 278.34,34.10 278.51,34.10 278.68,35.48 278.84,35.48 279.01,35.48 279.18,36.53 279.34,36.53 279.51,36.53 279.68,36.53 279.84,37.59 280.01,37.59 280.18,37.59 280.34,37.59 280.51,38.75 280.68,38.75 280.84,38.75 281.01,38.75 281.18,38.47 281.34,38.47 281.51,38.47 281.67,39.85 281.84,39.85 282.01,39.85 282.17,42.53 282.34,42.53 282.51,42.53 282.67,39.94 282.84,42.01 283.01,42.01 283.17,42.01 283.34,41.84 283.51,41.06 283.67,41.06 283.84,41.06 284.01,41.75 284.17,41.75 284.34,41.07 284.51,41.87 284.67,41.87 284.84,41.87 285.01,42.21 285.17,42.21 285.34,42.21 285.51,41.80 285.67,44.45 285.84,44.46 286.01,44.46 286.17,44.46 286.34,44.14 286.51,44.14 286.67,44.14 286.84,44.63 287.01,44.63 287.17,44.63 287.34,42.63 287.50,45.25 287.67,45.25 287.84,45.25 288.00,43.41 288.17,44.88 288.34,44.88 288.50,44.88 288.67,46.95 288.84,44.51 289.00,44.51 289.17,47.35 289.34,47.35 289.50,47.35 289.67,44.89 289.84,47.24 290.00,47.24 290.17,47.24 290.34,47.46 290.50,50.46 290.67,50.46 290.84,48.87 291.00,48.87 291.17,48.87 291.34,50.12 291.50,50.12 291.67,50.12 291.84,51.03 292.00,51.03 292.17,51.03 292.34,51.03 292.50,51.60 292.67,51.60 292.84,50.86 293.00,51.80 293.17,51.80 293.33,52.37 293.50,53.23 293.67,53.23 293.83,53.23 294.00,53.47 294.17,53.47 294.33,53.47 294.50,54.32 294.67,54.32 294.83,54.55 295.00,54.55 295.17,54.18 295.33,54.18 295.50,54.62 295.67,54.62 295.83,54.66 296.00,56.00" />
</svg>