<svg width="300" height="60" xmlns="http://www.w3.org/2000/svg">
  <polyline fill="rgba(255,200,0,0.3)" stroke="#ffbb00" stroke-width="2" points="4.00,55.93 5.08,54.05 6.15,51.77 7.23,49.25 8.31,47.22 9.39,44.75 10.46,41.14 11.54,37.62 12.62,34.73 13.70,32.49 14.77,31.32 15.85,30.12 16.93,29.34 18.01,27.89 19.08,25.85 20.16,23.05 21.24,20.24 22.32,18.03 23.39,15.70 24.47,13.64 25.55,11.68 26.63,9.87 27.70,8.17 28.78,7.66 29.86,7.68 30.94,7.93 32.01,8.20 33.09,9.30 34.17,10.20 35.25,10.86 36.32,11.35 37.40,11.25 38.48,12.08 39.56,12.38 40.63,12.41 41.71,12.47 42.79,13.27 43.87,13.89 44.94,15.00 46.02,17.01 47.10,18.21 48.18,17.17 49.25,55.74 50.33,53.84 51.41,51.58 52.49,49.12 53.56,47.05 54.64,44.76 55.72,41.11 56.80,37.63 57.87,34.67 58.95,32.45 60.03,31.23 61.11,30.08 62.18,29.23 63.26,27.91 64.34,25.85 65.42,23.07 66.49,20.20 67.57,18.16 68.65,15.58 69.73,13.74 70.80,11.61 71.88,9.89 72.96,8.14 74.04,7.54 75.11,7.56 76.19,7.81 77.27,8.11 78.35,9.20 79.42,10.07 80.50,10.74 81.58,11.23 82.66,11.08 83.73,11.91 84.81,12.26 85.89,12.25 86.97,12.35 88.04,13.18 89.12,13.76 90.20,14.91 91.28,16.92 92.35,18.13 93.43,17.12 94.51,29.94 95.59,29.29 96.66,28.09 97.74,25.66 98.82,22.45 99.90,20.70 100.97,17.46 102.05,15.96 103.13,12.20 104.21,11.87 105.28,9.43 106.36,7.64 107.44,7.61 108.52,7.71 109.59,7.97 110.67,7.69 111.75,9.05 112.83,9.93 113.90,10.74 114.98,11.14 116.06,11.30 117.14,11.72 118.21,12.27 119.29,12.14 120.37,12.40 121.45,13.24 122.52,13.76 123.60,14.77 124.68,16.97 125.76,18.14 126.83,17.36 127.91,55.83 128.99,54.08 130.07,51.58 131.14,49.18 132.22,46.13 133.30,44.44 134.38,39.48 135.45,37.22 136.53,34.59 137.61,31.90 138.69,30.75 139.76,29.65 140.84,29.13 141.92,27.18 143.00,25.07 144.07,21.79 145.15,20.05 146.23,15.50 147.31,15.37 148.38,12.46 149.46,11.09 150.54,8.67 151.62,7.15 152.69,7.48 153.77,7.61 154.85,8.46 155.93,7.85 157.00,9.08 158.08,9.83 159.16,11.17 160.24,10.91 161.31,12.53 162.39,11.88 163.47,13.48 164.55,13.23 165.62,12.71 166.70,13.87 167.78,14.46 168.86,15.04 169.93,17.02 171.01,17.86 172.09,17.44 173.17,56.00 174.24,53.50 175.32,51.39 176.40,49.52 177.48,46.69 178.55,45.00 179.63,40.01 180.71,36.12 181.79,32.03 182.86,31.87 183.94,29.53 185.02,29.92 186.10,29.92 187.17,27.94 188.25,26.26 189.33,23.34 190.41,20.18 191.48,16.44 192.56,14.63 193.64,12.29 194.72,10.21 195.79,8.56 196.87,7.42 197.95,6.82 199.03,6.66 200.10,6.82 201.18,7.31 202.26,8.44 203.34,10.20 204.41,9.06 205.49,10.72 206.57,11.86 207.65,12.60 208.72,9.81 209.80,10.37 210.88,13.29 211.96,13.35 213.03,13.61 214.11,14.30 215.19,17.38 216.27,18.26 217.34,16.63 218.42,27.80 219.50,27.80 220.58,27.80 221.65,27.80 222.73,20.63 223.81,20.63 224.89,20.63 225.96,20.63 227.04,13.85 228.12,13.85 229.20,13.85 230.27,7.10 231.35,7.10 232.43,4.02 233.51,4.02 234.58,4.02 235.66,6.75 236.74,6.75 237.82,10.45 238.89,10.45 239.97,10.45 241.05,6.17 242.13,6.17 243.20,6.17 244.28,5.55 245.36,5.55 246.44,5.55 247.51,10.42 248.59,17.39 249.67,17.39 250.75,17.39 251.82,51.40 252.90,51.40 253.98,51.40 255.06,40.11 256.13,44.19 257.21,44.19 258.29,37.22 259.37,37.22 260.44,26.02 261.52,35.82 262.60,35.82 263.68,27.82 264.75,27.82 265.83,27.82 266.91,27.82 267.99,20.65 269.06,20.65 270.14,20.65 271.22,20.65 272.30,13.86 273.37,13.86 274.45,13.86 275.53,7.08 276.61,7.08 277.68,4.00 278.76,4.00 279.84,4.00 280.92,6.76 281.99,6.76 283.07,10.46 284.15,10.46 285.23,10.46 286.30,6.17 287.38,6.17 288.46,6.17 289.54,5.53 290.61,5.53 291.69,5.53 292.77,10.42 293.85,17.40 294.92,17.40 296.00,17.40" />
</svg>