<svg width="300" height="60" xmlns="http://www.w3.org/2000/svg">
  <polyline fill="rgba(255,200,0,0.3)" stroke="#ffbb00" stroke-width="2" points="4.00,45.94 4.17,46.06 4.35,46.24 4.52,46.41 4.69,46.66 4.87,47.07 5.04,47.44 5.22,47.78 5.39,48.15 5.56,48.72 5.74,49.57 5.91,50.67 6.08,51.61 6.26,52.41 6.43,53.05 6.61,53.52 6.78,53.83 6.95,54.02 7.13,53.99 7.30,53.65 7.47,53.10 7.65,52.37 7.82,51.84 8.00,51.24 8.17,50.69 8.34,50.38 8.52,50.19 8.69,50.01 8.86,49.90 9.04,49.83 9.21,49.72 9.38,49.49 9.56,49.31 9.73,49.06 9.91,48.86 10.08,48.66 10.25,48.48 10.43,48.27 10.60,48.21 10.77,48.31 10.95,48.49 11.12,48.63 11.30,48.76 11.47,48.69 11.64,48.52 11.82,48.22 11.99,47.98 12.16,47.67 12.34,47.51 12.51,47.42 12.69,47.37 12.86,47.38 13.03,47.34 13.21,47.29 13.38,47.30 13.55,47.40 13.73,47.55 13.90,47.75 14.07,47.96 14.25,48.26 14.42,48.59 14.60,48.87 14.77,49.20 14.94,49.54 15.12,50.00 15.29,50.54 15.46,51.16 15.64,51.80 15.81,52.43 15.99,53.07 16.16,53.76 16.33,54.22 16.51,54.44 16.68,54.67 16.85,54.79 17.03,54.74 17.20,54.64 17.38,54.42 17.55,54.10 17.72,53.70 17.90,53.34 18.07,52.91 18.24,52.46 18.42,51.92 18.59,51.45 18.77,50.90 18.94,50.25 19.11,49.77 19.29,49.23 19.46,48.71 19.63,48.22 19.81,47.72 19.98,47.20 20.15,46.76 20.33,46.37 20.50,46.14 20.68,46.06 20.85,46.14 21.02,46.34 21.20,46.52 21.37,46.54 21.54,46.35 21.72,46.08 21.89,45.68 22.07,45.29 22.24,44.85 22.41,44.25 22.59,43.75 22.76,43.32 22.93,42.93 23.11,42.45 23.28,42.02 23.46,41.58 23.63,41.18 23.80,40.67 23.98,40.06 24.15,39.46 24.32,38.81 24.50,38.20 24.67,37.41 24.84,36.64 25.02,35.78 25.19,34.98 25.37,34.11 25.54,33.37 25.71,32.70 25.89,32.27 26.06,31.98 26.23,31.84 26.41,31.97 26.58,32.18 26.76,32.44 26.93,32.63 27.10,32.89 27.28,33.04 27.45,33.21 27.62,33.25 27.80,33.28 27.97,33.30 28.15,33.12 28.32,32.98 28.49,32.79 28.67,32.55 28.84,32.22 29.01,31.96 29.19,31.61 29.36,31.31 29.53,31.00 29.71,30.72 29.88,30.41 30.06,30.33 30.23,30.32 30.40,30.39 30.58,30.47 30.75,30.61 30.92,30.77 31.10,31.04 31.27,31.35 31.45,31.70 31.62,32.02 31.79,32.28 31.97,32.58 32.14,32.28 32.31,32.58 32.49,32.73 32.66,32.81 32.84,32.89 33.01,32.79 33.18,32.59 33.36,32.35 33.53,31.94 33.70,31.55 33.88,30.96 34.05,30.65 34.22,29.98 34.40,29.16 34.57,28.42 34.75,27.50 34.92,26.60 35.09,25.67 35.27,24.83 35.44,24.00 35.61,23.16 35.79,22.49 35.96,21.85 36.14,21.31 36.31,20.89 36.48,20.65 36.66,20.53 36.83,20.55 37.00,20.56 37.18,20.51 37.35,20.39 37.53,20.24 37.70,20.11 37.87,19.94 38.05,19.84 38.22,19.82 38.39,19.95 38.57,20.08 38.74,20.29 38.91,20.62 39.09,21.02 39.26,21.39 39.44,21.76 39.61,22.18 39.78,22.46 39.96,22.68 40.13,22.76 40.30,22.78 40.48,22.66 40.65,22.61 40.83,22.50 41.00,22.31 41.17,22.07 41.35,21.79 41.52,21.51 41.69,21.22 41.87,21.10 42.04,20.89 42.22,20.72 42.39,20.47 42.56,20.17 42.74,19.69 42.91,19.20 43.08,18.72 43.26,18.13 43.43,17.40 43.60,16.64 43.78,15.85 43.95,15.03 44.13,14.02 44.30,13.25 44.47,12.54 44.65,11.72 44.82,11.03 44.99,10.37 45.17,9.92 45.34,9.50 45.52,9.23 45.69,9.16 45.86,9.16 46.04,9.20 46.21,9.32 46.38,9.33 46.56,9.39 46.73,9.64 46.91,9.99 47.08,10.43 47.25,10.76 47.43,11.05 47.60,11.40 47.77,11.73 47.95,12.04 48.12,12.29 48.30,12.51 48.47,12.70 48.64,12.86 48.82,12.92 48.99,13.01 49.16,13.09 49.34,13.25 49.51,13.44 49.68,13.64 49.86,14.01 50.03,14.54 50.21,15.01 50.38,15.48 50.55,15.93 50.73,16.40 50.90,16.93 51.07,17.43 51.25,17.85 51.42,18.28 51.60,18.60 51.77,18.94 51.94,19.21 52.12,19.43 52.29,19.67 52.46,19.83 52.64,19.98 52.81,20.12 52.99,20.21 53.16,20.13 53.33,20.02 53.51,19.94 53.68,19.93 53.85,19.95 54.03,20.07 54.20,20.25 54.37,20.59 54.55,21.00 54.72,21.49 54.90,21.96 55.07,22.42 55.24,22.88 55.42,23.35 55.59,23.76 55.76,24.27 55.94,24.52 56.11,24.91 56.29,25.15 56.46,25.33 56.63,25.48 56.81,25.59 56.98,25.76 57.15,25.87 57.33,25.96 57.50,25.97 57.68,25.77 57.85,25.56 58.02,25.49 58.20,25.40 58.37,25.40 58.54,25.46 58.72,25.63 58.89,25.87 59.06,25.92 59.24,26.12 59.41,26.32 59.59,26.62 59.76,26.93 59.93,27.42 60.11,27.87 60.28,28.52 60.45,29.28 60.63,30.07 60.80,30.66 60.98,31.54 61.15,32.74 61.32,33.83 61.50,34.97 61.67,36.08 61.84,37.16 62.02,37.79 62.19,38.90 62.37,39.68 62.54,40.53 62.71,41.41 62.89,42.26 63.06,42.92 63.23,43.44 63.41,44.02 63.58,44.49 63.75,45.18 63.93,45.86 64.10,46.54 64.28,47.18 64.45,47.87 64.62,48.48 64.80,48.87 64.97,49.43 65.14,50.07 65.32,50.72 65.49,51.41 65.67,52.15 65.84,52.75 66.01,53.19 66.19,53.40 66.36,53.42 66.53,53.35 66.71,53.57 66.88,53.81 67.06,53.95 67.23,54.01 67.40,53.75 67.58,52.97 67.75,20.58 67.92,20.57 68.10,20.57 68.27,20.53 68.44,20.42 68.62,20.26 68.79,20.11 68.97,19.97 69.14,19.87 69.31,19.83 69.49,19.96 69.66,20.12 69.83,20.31 70.01,20.64 70.18,21.05 70.36,21.41 70.53,21.74 70.70,22.22 70.88,22.47 71.05,22.71 71.22,22.78 71.40,22.81 71.57,22.68 71.75,22.62 71.92,22.51 72.09,22.33 72.27,22.06 72.44,21.76 72.61,21.53 72.79,21.23 72.96,21.10 73.14,20.89 73.31,20.71 73.48,20.45 73.66,20.15 73.83,19.70 74.00,19.19 74.18,18.72 74.35,18.13 74.52,17.41 74.70,16.63 74.87,15.86 75.05,15.05 75.22,14.04 75.39,13.27 75.57,12.55 75.74,11.74 75.91,11.08 76.09,10.39 76.26,9.88 76.44,9.50 76.61,9.25 76.78,9.18 76.96,9.18 77.13,9.23 77.30,9.33 77.48,9.37 77.65,9.42 77.83,9.67 78.00,10.01 78.17,10.44 78.35,10.78 78.52,11.09 78.69,11.43 78.87,11.78 79.04,12.06 79.21,12.30 79.39,12.55 79.56,12.73 79.74,12.87 79.91,12.97 80.08,13.07 80.26,13.14 80.43,13.28 80.60,13.50 80.78,13.63 80.95,14.04 81.13,14.58 81.30,15.03 81.47,15.56 81.65,15.99 81.82,16.50 81.99,16.99 82.17,17.48 82.34,17.91 82.52,18.35 82.69,18.69 82.86,18.98 83.04,19.28 83.21,19.49 83.38,19.73 83.56,19.88 83.73,20.04 83.90,20.17 84.08,20.23 84.25,20.19 84.43,20.06 84.60,19.99 84.77,19.97 84.95,20.01 85.12,20.13 85.29,20.32 85.47,20.62 85.64,21.03 85.82,21.56 85.99,22.01 86.16,22.43 86.34,22.93 86.51,23.37 86.68,23.79 86.86,24.28 87.03,24.52 87.21,24.95 87.38,25.18 87.55,25.37 87.73,25.50 87.90,25.62 88.07,25.78 88.25,25.90 88.42,25.97 88.59,25.99 88.77,25.79 88.94,25.56 89.12,25.48 89.29,25.42 89.46,25.44 89.64,25.50 89.81,25.64 89.98,25.88 90.16,25.91 90.33,26.12 90.51,26.35 90.68,26.63 90.85,26.95 91.03,27.43 91.20,27.88 91.37,28.52 91.55,29.28 91.72,30.06 91.90,30.67 92.07,31.54 92.24,32.74 92.42,33.83 92.59,34.96 92.76,36.12 92.94,37.11 93.11,37.84 93.28,38.89 93.46,39.66 93.63,40.59 93.81,41.40 93.98,42.23 94.15,42.94 94.33,43.42 94.50,44.05 94.67,44.56 94.85,45.18 95.02,45.88 95.20,46.51 95.37,47.23 95.54,47.89 95.72,48.49 95.89,48.88 96.06,49.43 96.24,50.11 96.41,50.72 96.59,51.44 96.76,52.18 96.93,52.77 97.11,53.23 97.28,53.43 97.45,53.44 97.63,53.35 97.80,53.58 97.98,53.82 98.15,53.94 98.32,54.05 98.50,53.75 98.67,53.00 98.84,45.98 99.02,46.15 99.19,46.26 99.36,46.44 99.54,46.66 99.71,47.20 99.89,47.55 100.06,47.86 100.23,48.15 100.41,48.86 100.58,49.60 100.75,50.40 100.93,51.14 101.10,52.36 101.28,52.98 101.45,53.65 101.62,53.95 101.80,54.14 101.97,54.34 102.14,53.83 102.32,53.25 102.49,52.71 102.67,51.95 102.84,51.39 103.01,50.53 103.19,50.02 103.36,50.08 103.53,49.93 103.71,50.02 103.88,49.89 104.05,49.69 104.23,49.60 104.40,49.42 104.58,49.21 104.75,49.03 104.92,48.79 105.10,48.48 105.27,48.37 105.44,48.20 105.62,48.30 105.79,48.57 105.97,48.71 106.14,48.90 106.31,48.81 106.49,48.58 106.66,48.31 106.83,47.88 107.01,47.81 107.18,47.58 107.36,47.47 107.53,47.41 107.70,47.39 107.88,47.41 108.05,47.12 108.22,47.28 108.40,47.38 108.57,47.58 108.74,47.81 108.92,47.96 109.09,48.23 109.27,48.52 109.44,48.92 109.61,49.28 109.79,49.57 109.96,50.07 110.13,50.54 110.31,51.27 110.48,51.75 110.66,52.47 110.83,53.16 111.00,53.59 111.18,54.14 111.35,54.61 111.52,54.86 111.70,54.88 111.87,54.64 112.05,54.58 112.22,54.35 112.39,54.12 112.57,53.96 112.74,53.49 112.91,53.06 113.09,52.57 113.26,52.07 113.43,51.58 113.61,50.98 113.78,50.60 113.96,49.94 114.13,49.40 114.30,48.89 114.48,48.31 114.65,47.66 114.82,47.31 115.00,46.86 115.17,46.48 115.35,46.29 115.52,46.18 115.69,46.18 115.87,46.37 116.04,46.57 116.21,46.71 116.39,46.67 116.56,46.11 116.74,45.87 116.91,45.40 117.08,44.89 117.26,44.26 117.43,43.89 117.60,43.43 117.78,43.09 117.95,42.60 118.12,42.20 118.30,41.72 118.47,41.21 118.65,40.67 118.82,40.25 118.99,39.62 119.17,39.05 119.34,38.28 119.51,37.52 119.69,36.69 119.86,36.08 120.04,35.18 120.21,34.40 120.38,33.56 120.56,32.82 120.73,32.43 120.90,32.10 121.08,31.97 121.25,32.02 121.43,32.20 121.60,32.51 121.77,32.71 121.95,32.94 122.12,33.09 122.29,33.21 122.47,33.31 122.64,33.53 122.81,33.49 122.99,33.24 123.16,33.09 123.34,32.89 123.51,32.58 123.68,32.34 123.86,31.82 124.03,31.56 124.20,31.42 124.38,31.00 124.55,30.89 124.73,30.60 124.90,30.50 125.07,30.41 125.25,30.55 125.42,30.56 125.59,30.65 125.77,30.80 125.94,30.95 126.12,31.39 126.29,31.34 126.46,31.96 126.64,32.18 126.81,32.61 126.98,32.82 127.16,33.02 127.33,33.02 127.51,32.95 127.68,32.73 127.85,32.45 128.03,32.18 128.20,31.71 128.37,31.26 128.55,30.70 128.72,29.94 128.89,29.36 129.07,28.51 129.24,27.67 129.42,26.82 129.59,25.78 129.76,24.95 129.94,24.16 130.11,23.20 130.28,22.69 130.46,21.95 130.63,21.50 130.81,21.01 130.98,20.72 131.15,20.64 131.33,20.56 131.50,20.65 131.67,20.68 131.85,20.50 132.02,20.38 132.20,20.24 132.37,20.11 132.54,19.90 132.72,19.78 132.89,19.83 133.06,20.13 133.24,20.35 133.41,20.50 133.58,20.87 133.76,21.43 133.93,21.71 134.11,22.09 134.28,22.23 134.45,22.67 134.63,22.76 134.80,22.89 134.97,22.90 135.15,22.73 135.32,22.58 135.50,22.43 135.67,22.25 135.84,21.89 136.02,21.61 136.19,21.41 136.36,21.10 136.54,20.84 136.71,20.86 136.89,20.53 137.06,20.23 137.23,19.80 137.41,19.25 137.58,18.87 137.75,18.40 137.93,17.66 138.10,16.90 138.27,16.02 138.45,15.22 138.62,14.24 138.80,13.43 138.97,12.63 139.14,11.82 139.32,11.29 139.49,10.56 139.66,10.13 139.84,9.65 140.01,9.42 140.19,9.24 140.36,9.06 140.53,8.97 140.71,9.39 140.88,9.53 141.05,9.51 141.23,9.71 141.40,10.08 141.58,10.50 141.75,10.75 141.92,11.10 142.10,11.68 142.27,11.88 142.44,12.04 142.62,12.51 142.79,12.73 142.96,13.07 143.14,13.40 143.31,13.13 143.49,13.49 143.66,13.38 143.83,13.47 144.01,13.58 144.18,13.74 144.35,14.16 144.53,14.45 144.70,15.01 144.88,15.47 145.05,15.92 145.22,16.47 145.40,17.02 145.57,17.40 145.74,17.89 145.92,18.27 146.09,18.67 146.27,19.13 146.44,19.27 146.61,19.49 146.79,19.73 146.96,19.87 147.13,20.00 147.31,20.16 147.48,20.30 147.65,20.30 147.83,20.08 148.00,20.03 148.18,19.97 148.35,20.09 148.52,20.18 148.70,20.36 148.87,20.72 149.04,21.12 149.22,21.67 149.39,21.98 149.57,22.50 149.74,22.95 149.91,23.42 150.09,23.75 150.26,24.11 150.43,24.45 150.61,24.96 150.78,25.21 150.96,25.32 151.13,25.50 151.30,25.65 151.48,25.84 151.65,25.93 151.82,26.01 152.00,26.15 152.17,25.86 152.35,25.68 152.52,25.60 152.69,25.56 152.87,25.54 153.04,25.54 153.21,25.65 153.39,25.78 153.56,25.91 153.73,26.15 153.91,26.37 154.08,26.70 154.26,27.15 154.43,27.49 154.60,28.07 154.78,28.50 154.95,29.25 155.12,30.05 155.30,30.50 155.47,31.54 155.65,32.62 155.82,33.53 155.99,34.34 156.17,35.84 156.34,36.55 156.51,37.24 156.69,38.22 156.86,39.32 157.04,40.39 157.21,40.86 157.38,41.98 157.56,43.00 157.73,43.40 157.90,44.10 158.08,44.28 158.25,45.06 158.42,45.86 158.60,46.53 158.77,47.33 158.95,48.45 159.12,49.24 159.29,49.42 159.47,49.53 159.64,49.97 159.81,50.89 159.99,51.36 160.16,52.22 160.34,52.95 160.51,53.29 160.68,53.49 160.86,53.47 161.03,53.36 161.20,53.57 161.38,53.84 161.55,54.02 161.73,54.04 161.90,53.59 162.07,53.11 162.25,29.97 162.42,30.51 162.59,31.58 162.77,32.90 162.94,33.57 163.11,34.53 163.29,36.14 163.46,36.84 163.64,37.45 163.81,38.70 163.98,39.59 164.16,40.42 164.33,41.09 164.50,42.09 164.68,42.89 164.85,43.43 165.03,44.05 165.20,44.45 165.37,45.01 165.55,45.72 165.72,46.37 165.89,47.16 166.07,48.41 166.24,49.15 166.42,49.15 166.59,49.30 166.76,49.86 166.94,50.94 167.11,51.27 167.28,52.13 167.46,52.80 167.63,53.11 167.80,53.33 167.98,53.33 168.15,53.23 168.33,53.43 168.50,53.68 168.67,53.86 168.85,53.92 169.02,53.70 169.19,53.00 169.37,45.83 169.54,45.74 169.72,46.48 169.89,45.72 170.06,45.88 170.24,46.17 170.41,47.49 170.58,47.93 170.76,47.42 170.93,49.07 171.11,49.63 171.28,50.24 171.45,50.93 171.63,52.25 171.80,53.21 171.97,53.27 172.15,54.01 172.32,54.57 172.49,54.57 172.67,54.26 172.84,53.21 173.02,51.89 173.19,51.24 173.36,50.35 173.54,48.76 173.71,47.95 173.88,49.58 174.06,49.92 174.23,49.47 174.41,49.47 174.58,48.71 174.75,48.11 174.93,49.07 175.10,48.80 175.27,48.44 175.45,48.44 175.62,47.82 175.80,47.23 175.97,47.52 176.14,47.52 176.32,48.30 176.49,49.04 176.66,48.84 176.84,48.63 177.01,47.67 177.19,48.12 177.36,47.23 177.53,47.19 177.71,47.21 177.88,46.74 178.05,47.13 178.23,46.60 178.40,47.27 178.57,46.73 178.75,46.96 178.92,47.29 179.10,46.83 179.27,47.39 179.44,47.39 179.62,47.97 179.79,48.62 179.96,48.55 180.14,49.24 180.31,49.02 180.49,49.98 180.66,49.98 180.83,51.02 181.01,51.78 181.18,52.41 181.35,53.30 181.53,53.82 181.70,54.38 181.88,55.03 182.05,54.85 182.22,54.81 182.40,54.39 182.57,54.30 182.74,54.14 182.92,53.85 183.09,53.85 183.26,53.47 183.44,53.07 183.61,52.60 183.79,52.09 183.96,51.58 184.13,50.64 184.31,50.22 184.48,49.63 184.65,48.49 184.83,48.43 185.00,47.49 185.18,46.20 185.35,46.85 185.52,45.95 185.70,44.92 185.87,46.04 186.04,45.66 186.22,45.66 186.39,46.69 186.57,46.63 186.74,46.72 186.91,46.90 187.09,46.08 187.26,45.58 187.43,44.67 187.61,44.58 187.78,43.84 187.95,43.46 188.13,43.02 188.30,42.51 188.48,42.04 188.65,41.77 188.82,41.41 189.00,40.72 189.17,40.03 189.34,40.03 189.52,39.58 189.69,38.87 189.87,38.20 190.04,37.44 190.21,36.55 190.39,35.38 190.56,34.13 190.73,33.93 190.91,33.13 191.08,32.20 191.26,31.24 191.43,31.88 191.60,31.77 191.78,31.77 191.95,32.04 192.12,32.64 192.30,32.86 192.47,33.15 192.64,33.35 192.82,33.37 192.99,33.44 193.17,33.75 193.34,33.42 193.51,33.15 193.69,32.77 193.86,32.46 194.03,31.34 194.21,32.12 194.38,31.01 194.56,31.12 194.73,31.01 194.90,30.07 195.08,30.32 195.25,29.60 195.42,30.34 195.60,30.34 195.77,30.57 195.95,30.37 196.12,30.48 196.29,29.70 196.47,30.59 196.64,29.68 196.81,31.22 196.99,31.22 197.16,32.18 197.33,31.87 197.51,32.80 197.68,32.73 197.86,32.82 198.03,32.62 198.20,32.76 198.38,32.76 198.55,32.00 198.72,31.53 198.90,30.89 199.07,29.95 199.25,29.32 199.42,28.40 199.59,28.14 199.77,26.79 199.94,26.30 200.11,25.20 200.29,24.51 200.46,23.52 200.64,22.47 200.81,22.47 200.98,21.51 201.16,21.37 201.33,20.77 201.50,20.50 201.68,20.50 201.85,20.50 202.02,20.61 202.20,20.55 202.37,20.02 202.55,20.35 202.72,20.08 202.89,19.41 203.07,18.86 203.24,19.59 203.41,19.62 203.59,19.86 203.76,19.86 203.94,20.22 204.11,20.80 204.28,21.36 204.46,20.17 204.63,21.89 204.80,22.52 204.98,22.25 205.15,22.94 205.33,22.79 205.50,22.81 205.67,22.81 205.85,22.10 206.02,22.04 206.19,21.25 206.37,21.19 206.54,21.35 206.72,20.77 206.89,19.92 207.06,20.88 207.24,20.47 207.41,20.13 207.58,19.73 207.76,19.26 207.93,18.75 208.10,18.75 208.28,18.34 208.45,17.81 208.63,17.14 208.80,16.38 208.97,15.66 209.15,13.94 209.32,13.20 209.49,12.55 209.67,11.93 209.84,11.28 210.02,10.79 210.19,10.68 210.36,9.23 210.54,9.39 210.71,9.73 210.88,9.66 211.06,8.85 211.23,9.21 211.41,9.21 211.58,8.77 211.75,9.84 211.93,10.00 212.10,9.86 212.27,9.86 212.45,11.23 212.62,11.21 212.79,12.19 212.97,12.05 213.14,12.82 213.32,12.73 213.49,12.35 213.66,12.76 213.84,11.39 214.01,13.43 214.18,12.56 214.36,13.90 214.53,13.26 214.71,12.81 214.88,14.26 215.05,14.10 215.23,13.97 215.40,13.75 215.57,15.78 215.75,16.18 215.92,16.52 216.10,16.97 216.27,17.38 216.44,17.62 216.62,19.28 216.79,19.23 216.96,19.03 217.14,18.52 217.31,20.17 217.48,20.17 217.66,19.97 217.83,19.71 218.01,21.18 218.18,20.15 218.35,18.99 218.53,18.03 218.70,19.66 218.87,19.64 219.05,19.87 219.22,20.48 219.40,20.68 219.57,21.33 219.74,22.11 219.92,23.00 220.09,23.76 220.26,24.39 220.44,24.69 220.61,24.65 220.79,24.54 220.96,24.31 221.13,25.68 221.31,25.65 221.48,25.16 221.65,25.36 221.83,25.61 222.00,25.97 222.17,26.11 222.35,27.31 222.52,26.68 222.70,25.41 222.87,25.72 223.04,25.34 223.22,25.03 223.39,25.07 223.56,25.25 223.74,24.85 223.91,25.23 224.09,25.61 224.26,25.62 224.43,25.40 224.61,25.58 224.78,26.23 224.95,26.72 225.13,26.79 225.30,28.02 225.48,29.38 225.65,29.13 225.82,30.01 226.00,30.70 226.17,32.13 226.34,33.47 226.52,34.12 226.69,35.69 226.86,36.34 227.04,36.40 227.21,39.09 227.39,39.49 227.56,39.96 227.73,40.52 227.91,42.51 228.08,42.91 228.25,43.22 228.43,44.67 228.60,44.90 228.78,45.39 228.95,46.10 229.12,46.98 229.30,46.98 229.47,47.76 229.64,49.52 229.82,50.23 229.99,49.74 230.17,50.79 230.34,51.04 230.51,52.04 230.69,52.58 230.86,53.25 231.03,53.25 231.21,53.45 231.38,53.50 231.56,53.32 231.73,52.28 231.90,53.57 232.08,54.00 232.25,54.40 232.42,53.95 232.60,53.25 232.77,42.89 232.94,42.89 233.12,48.12 233.29,48.12 233.47,43.72 233.64,43.72 233.81,49.15 233.99,49.15 234.16,47.83 234.33,47.83 234.51,52.33 234.68,52.33 234.86,52.26 235.03,52.26 235.20,55.17 235.38,55.17 235.55,54.65 235.72,54.65 235.90,54.65 236.07,53.91 236.25,50.57 236.42,50.57 236.59,51.23 236.77,51.23 236.94,47.51 237.11,47.51 237.29,50.73 237.46,50.73 237.63,46.60 237.81,46.60 237.98,48.81 238.16,48.81 238.33,48.81 238.50,47.60 238.68,47.60 238.85,47.60 239.02,47.60 239.20,48.63 239.37,48.63 239.55,48.63 239.72,48.63 239.89,49.46 240.07,49.46 240.24,49.46 240.41,46.02 240.59,46.02 240.76,46.02 240.94,47.51 241.11,46.84 241.28,46.84 241.46,46.84 241.63,45.46 241.80,47.19 241.98,47.19 242.15,47.19 242.32,46.31 242.50,46.31 242.67,48.46 242.85,48.46 243.02,48.28 243.19,48.28 243.37,48.28 243.54,50.36 243.71,50.36 243.89,50.36 244.06,50.36 244.24,51.27 244.41,53.47 244.58,53.47 244.76,54.78 244.93,54.78 245.10,54.78 245.28,55.07 245.45,55.07 245.63,55.07 245.80,54.49 245.97,54.49 246.15,54.49 246.32,53.03 246.49,53.03 246.67,53.03 246.84,53.03 247.01,51.04 247.19,51.04 247.36,51.04 247.54,48.82 247.71,48.82 247.88,48.82 248.06,45.67 248.23,47.19 248.40,47.19 248.58,45.96 248.75,45.96 248.93,45.96 249.10,45.60 249.27,45.60 249.45,45.60 249.62,45.60 249.79,48.20 249.97,48.20 250.14,48.20 250.32,46.05 250.49,46.05 250.66,46.05 250.84,43.60 251.01,43.60 251.18,43.60 251.36,41.83 251.53,41.83 251.70,43.51 251.88,41.92 252.05,41.92 252.23,41.92 252.40,39.55 252.57,39.55 252.75,39.55 252.92,39.55 253.09,36.98 253.27,36.98 253.44,38.37 253.62,35.06 253.79,35.06 253.96,35.06 254.14,32.38 254.31,32.38 254.48,32.38 254.66,31.01 254.83,31.01 255.01,31.01 255.18,31.54 255.35,31.54 255.53,33.64 255.70,34.65 255.87,34.65 256.05,34.65 256.22,34.65 256.40,33.82 256.57,33.82 256.74,33.82 256.92,32.68 257.09,32.68 257.26,32.68 257.44,29.56 257.61,29.56 257.78,29.56 257.96,31.52 258.13,29.64 258.31,29.64 258.48,29.64 258.65,29.22 258.83,31.28 259.00,31.28 259.17,31.28 259.35,29.42 259.52,29.42 259.70,29.42 259.87,31.86 260.04,31.86 260.22,31.86 260.39,31.86 260.56,31.21 260.74,31.21 260.91,33.72 261.09,32.80 261.26,32.80 261.43,32.80 261.61,31.90 261.78,31.90 261.95,30.05 262.13,30.05 262.30,28.69 262.47,28.69 262.65,28.69 262.82,26.79 263.00,25.18 263.17,25.18 263.34,25.18 263.52,23.74 263.69,23.74 263.86,22.90 264.04,21.42 264.21,21.42 264.39,21.42 264.56,21.42 264.73,20.42 264.91,20.42 265.08,20.42 265.25,20.42 265.43,20.26 265.60,20.26 265.78,20.26 265.95,20.26 266.12,19.43 266.30,19.43 266.47,19.43 266.64,19.43 266.82,19.41 266.99,19.41 267.16,19.41 267.34,19.41 267.51,20.84 267.69,20.84 267.86,20.84 268.03,20.84 268.21,23.43 268.38,23.43 268.55,23.43 268.73,21.58 268.90,21.58 269.08,21.58 269.25,20.73 269.42,20.55 269.60,20.55 269.77,20.55 269.94,19.01 270.12,19.01 270.29,19.01 270.47,21.74 270.64,21.74 270.81,21.74 270.99,19.50 271.16,19.50 271.33,19.50 271.51,19.50 271.68,17.56 271.85,17.56 272.03,17.56 272.20,14.43 272.38,14.43 272.55,13.22 272.72,11.39 272.90,11.39 273.07,11.39 273.24,10.09 273.42,10.09 273.59,10.09 273.77,8.71 273.94,8.71 274.11,8.71 274.29,6.17 274.46,6.17 274.63,6.17 274.81,4.00 274.98,4.00 275.16,9.41 275.33,9.23 275.50,9.23 275.68,9.23 275.85,9.23 276.02,7.24 276.20,7.24 276.37,7.24 276.54,11.85 276.72,11.85 276.89,11.85 277.07,7.44 277.24,7.44 277.41,7.44 277.59,7.44 277.76,12.47 277.93,12.47 278.11,12.47 278.28,10.13 278.46,10.13 278.63,10.13 278.80,9.48 278.98,9.48 279.15,9.48 279.32,10.35 279.50,10.35 279.67,10.35 279.85,9.75 280.02,19.36 280.19,19.36 280.37,17.50 280.54,17.50 280.71,17.50 280.89,17.50 281.06,15.22 281.23,15.22 281.41,15.22 281.58,13.84 281.76,13.84 281.93,13.84 282.10,20.16 282.28,20.16 282.45,20.16 282.62,23.29 282.80,23.29 282.97,23.29 283.15,26.51 283.32,26.51 283.49,26.51 283.67,27.00 283.84,27.00 284.01,27.00 284.19,24.77 284.36,24.77 284.54,24.77 284.71,27.74 284.88,25.35 285.06,25.35 285.23,25.35 285.40,28.32 285.58,24.61 285.75,24.61 285.93,25.46 286.10,25.46 286.27,25.46 286.45,22.06 286.62,23.96 286.79,23.96 286.97,23.96 287.14,23.99 287.31,24.10 287.49,24.10 287.66,24.10 287.84,21.39 288.01,24.68 288.18,24.68 288.36,24.68 288.53,21.74 288.70,26.84 288.88,26.84 289.05,28.05 289.23,28.05 289.40,28.92 289.57,28.92 289.75,34.18 289.92,34.18 290.09,34.18 290.27,36.12 290.44,36.12 290.62,42.47 290.79,42.47 290.96,42.47 291.14,44.26 291.31,44.26 291.48,44.26 291.66,45.11 291.83,45.11 292.00,46.25 292.18,46.25 292.35,46.25 292.53,48.82 292.70,45.49 292.87,45.49 293.05,47.21 293.22,47.21 293.39,51.15 293.57,51.15 293.74,51.15 293.92,55.15 294.09,53.32 294.26,53.32 294.44,53.32 294.61,53.32 294.78,50.88 294.96,50.88 295.13,51.55 295.31,51.55 295.48,51.55 295.65,56.00 295.83,56.00 296.00,53.32" />
</svg>