<svg width="300" height="60" xmlns="http://www.w3.org/2000/svg">
  <polyline fill="rgba(255,200,0,0.3)" stroke="#ffbb00" stroke-width="2" points="4.00,24.73 4.32,25.44 4.65,25.22 4.97,25.15 5.29,25.23 5.62,25.41 5.94,25.65 6.26,25.11 6.59,23.50 6.91,21.53 7.23,18.76 7.56,17.25 7.88,13.89 8.20,11.58 8.53,10.31 8.85,10.44 9.17,9.24 9.50,7.03 9.82,7.04 10.14,7.81 10.47,8.25 10.79,8.07 11.11,9.64 11.44,10.13 11.76,10.46 12.08,12.02 12.41,14.19 12.73,14.64 13.05,15.30 13.38,19.37 13.70,18.81 14.02,21.71 14.35,20.70 14.67,17.30 14.99,13.42 15.32,12.65 15.64,11.07 15.96,10.10 16.29,10.40 16.61,10.92 16.93,10.66 17.26,10.71 17.58,11.01 17.90,10.74 18.23,10.58 18.55,10.63 18.87,10.79 19.20,11.07 19.52,11.37 19.84,11.65 20.17,12.03 20.49,13.16 20.82,14.24 21.14,15.69 21.46,17.24 21.79,19.06 22.11,20.39 22.43,20.93 22.76,19.57 23.08,18.67 23.40,18.49 23.73,18.98 24.05,19.92 24.37,20.75 24.70,19.96 25.02,18.21 25.34,17.11 25.67,16.77 25.99,16.03 26.31,14.66 26.64,14.04 26.96,13.96 27.28,13.50 27.61,13.08 27.93,12.90 28.25,12.73 28.58,12.22 28.90,11.82 29.22,11.76 29.55,12.70 29.87,12.82 30.19,14.09 30.52,15.23 30.84,15.86 31.16,16.66 31.49,16.53 31.81,16.78 32.13,18.26 32.46,20.11 32.78,20.70 33.10,19.60 33.43,20.32 33.75,21.08 34.07,19.72 34.40,18.54 34.72,18.38 35.04,18.77 35.37,18.78 35.69,17.66 36.01,16.95 36.34,17.78 36.66,19.25 36.98,17.86 37.31,15.29 37.63,13.38 37.95,14.90 38.28,17.11 38.60,16.86 38.92,17.28 39.25,18.02 39.57,18.50 39.89,19.57 40.22,19.77 40.54,16.49 40.86,16.32 41.19,17.31 41.51,19.98 41.83,23.69 42.16,24.83 42.48,26.91 42.80,30.27 43.13,30.22 43.45,30.89 43.77,28.50 44.10,27.51 44.42,27.76 44.74,22.33 45.07,19.87 45.39,20.57 45.71,22.46 46.04,26.46 46.36,28.04 46.68,29.82 47.01,30.33 47.33,31.10 47.65,30.77 47.98,30.19 48.30,30.28 48.62,30.06 48.95,30.56 49.27,32.07 49.59,34.44 49.92,35.05 50.24,35.11 50.56,35.29 50.89,35.53 51.21,35.66 51.53,36.34 51.86,37.66 52.18,41.31 52.50,43.14 52.83,40.58 53.15,39.11 53.48,39.02 53.80,38.71 54.12,37.56 54.45,36.94 54.77,36.72 55.09,36.61 55.42,36.49 55.74,36.32 56.06,36.11 56.39,35.77 56.71,35.50 57.03,35.34 57.36,35.22 57.68,37.08 58.00,39.35 58.33,40.52 58.65,40.30 58.97,38.61 59.30,38.38 59.62,36.86 59.94,35.78 60.27,35.41 60.59,35.28 60.91,35.07 61.24,34.95 61.56,35.77 61.88,36.32 62.21,35.87 62.53,34.98 62.85,35.95 63.18,37.32 63.50,37.42 63.82,34.18 64.15,32.88 64.47,29.35 64.79,26.53 65.12,24.09 65.44,22.08 65.76,20.28 66.09,18.79 66.41,17.50 66.73,16.31 67.06,15.05 67.38,14.17 67.70,13.91 68.03,15.35 68.35,17.97 68.67,20.77 69.00,23.16 69.32,24.67 69.64,26.32 69.97,27.80 70.29,28.15 70.61,28.09 70.94,28.73 71.26,30.05 71.58,31.26 71.91,33.10 72.23,35.69 72.55,38.76 72.88,42.86 73.20,47.64 73.52,50.39 73.85,53.76 74.17,55.91 74.49,54.58 74.82,54.03 75.14,52.46 75.46,51.50 75.79,51.23 76.11,52.17 76.43,53.24 76.76,54.62 77.08,24.90 77.40,25.68 77.73,24.92 78.05,25.03 78.37,24.95 78.70,25.42 79.02,25.26 79.34,24.72 79.67,24.17 79.99,20.87 80.31,19.52 80.64,16.85 80.96,13.76 81.28,11.93 81.61,11.27 81.93,10.68 82.25,9.20 82.58,6.73 82.90,6.96 83.22,8.25 83.55,7.99 83.87,8.34 84.19,9.54 84.52,10.32 84.84,10.59 85.17,12.68 85.49,13.66 85.81,14.14 86.14,14.39 86.46,19.26 86.78,18.89 87.11,21.52 87.43,20.98 87.75,17.95 88.08,13.72 88.40,12.28 88.72,11.54 89.05,10.22 89.37,10.46 89.69,10.95 90.02,10.64 90.34,10.72 90.66,11.69 90.99,10.98 91.31,10.58 91.63,10.63 91.96,10.80 92.28,11.11 92.60,11.40 92.93,11.62 93.25,11.95 93.57,12.97 93.90,13.57 94.22,16.24 94.54,17.20 94.87,18.45 95.19,20.24 95.51,21.23 95.84,19.33 96.16,18.67 96.48,18.44 96.81,18.77 97.13,19.51 97.45,20.59 97.78,20.12 98.10,18.62 98.42,16.60 98.75,17.03 99.07,16.17 99.39,14.48 99.72,13.64 100.04,13.87 100.36,13.79 100.69,13.22 101.01,12.87 101.33,12.82 101.66,12.44 101.98,12.40 102.30,11.56 102.63,12.82 102.95,12.74 103.27,13.70 103.60,15.37 103.92,16.14 104.24,17.21 104.57,16.49 104.89,16.59 105.21,18.00 105.54,19.87 105.86,21.15 106.18,19.48 106.51,20.39 106.83,21.00 107.15,20.02 107.48,18.57 107.80,17.77 108.12,19.65 108.45,18.96 108.77,17.47 109.09,17.68 109.42,17.78 109.74,19.04 110.06,18.69 110.39,14.28 110.71,13.15 111.03,14.88 111.36,16.83 111.68,17.10 112.00,17.25 112.33,17.90 112.65,18.53 112.97,19.47 113.30,18.49 113.62,15.66 113.94,15.16 114.27,18.15 114.59,19.75 114.91,23.83 115.24,24.75 115.56,26.40 115.88,29.81 116.21,29.62 116.53,29.95 116.85,29.02 117.18,27.44 117.50,27.81 117.83,23.62 118.15,19.73 118.47,21.09 118.80,22.34 119.12,25.55 119.44,28.08 119.77,28.78 120.09,30.93 120.41,31.62 120.74,30.48 121.06,30.75 121.38,29.57 121.71,30.17 122.03,30.33 122.35,32.47 122.68,33.41 123.00,34.91 123.32,35.11 123.65,35.26 123.97,35.48 124.29,35.72 124.62,36.62 124.94,37.90 125.26,41.04 125.59,42.66 125.91,40.14 126.23,39.30 126.56,38.67 126.88,38.69 127.20,37.45 127.53,37.62 127.85,36.70 128.17,36.62 128.50,36.59 128.82,36.35 129.14,36.15 129.47,35.67 129.79,35.53 130.11,35.37 130.44,35.16 130.76,37.39 131.08,38.75 131.41,40.94 131.73,40.05 132.05,38.60 132.38,38.37 132.70,36.81 133.02,36.13 133.35,35.38 133.67,35.25 133.99,35.09 134.32,34.94 134.64,35.41 134.96,36.85 135.29,36.31 135.61,35.26 135.93,35.23 136.26,37.15 136.58,36.80 136.90,34.16 137.23,32.07 137.55,29.36 137.87,26.37 138.20,24.28 138.52,21.87 138.84,20.46 139.17,18.60 139.49,17.45 139.81,16.36 140.14,15.10 140.46,14.15 140.78,13.93 141.11,14.89 141.43,17.44 141.75,20.73 142.08,23.33 142.40,24.52 142.72,26.11 143.05,27.81 143.37,28.02 143.69,27.96 144.02,28.78 144.34,30.09 144.66,31.22 144.99,32.64 145.31,35.66 145.63,38.64 145.96,41.99 146.28,46.64 146.60,51.79 146.93,54.07 147.25,56.00 147.57,54.54 147.90,54.05 148.22,52.45 148.54,51.15 148.87,51.16 149.19,52.33 149.51,53.22 149.84,54.63 150.16,26.12 150.49,25.47 150.81,25.47 151.13,24.64 151.46,25.47 151.78,24.27 152.10,26.23 152.43,24.67 152.75,22.70 153.07,20.33 153.40,22.15 153.72,15.47 154.04,11.72 154.37,12.49 154.69,9.09 155.01,10.89 155.34,7.19 155.66,6.24 155.98,9.70 156.31,7.23 156.63,9.03 156.95,9.46 157.28,8.23 157.60,9.83 157.92,11.58 158.25,10.95 158.57,14.80 158.89,14.25 159.22,16.18 159.54,19.06 159.86,19.79 160.19,20.22 160.51,20.30 160.83,17.99 161.16,13.63 161.48,12.35 161.80,11.02 162.13,11.02 162.45,9.55 162.77,10.41 163.10,11.49 163.42,11.31 163.74,12.83 164.07,11.09 164.39,11.33 164.71,11.47 165.04,10.56 165.36,11.01 165.68,11.41 166.01,11.41 166.33,12.27 166.65,13.70 166.98,13.14 167.30,14.83 167.62,17.13 167.95,17.93 168.27,20.73 168.59,22.75 168.92,18.47 169.24,18.38 169.56,19.25 169.89,18.30 170.21,19.75 170.53,20.68 170.86,20.48 171.18,17.63 171.50,16.57 171.83,16.03 172.15,16.75 172.47,15.02 172.80,13.96 173.12,14.54 173.44,13.63 173.77,13.84 174.09,12.44 174.41,12.46 174.74,12.55 175.06,11.78 175.38,11.78 175.71,11.62 176.03,12.75 176.35,14.54 176.68,14.24 177.00,16.87 177.32,16.84 177.65,17.06 177.97,15.49 178.29,17.54 178.62,18.25 178.94,20.36 179.26,17.81 179.59,19.94 179.91,19.33 180.23,20.02 180.56,16.91 180.88,18.90 181.20,17.22 181.53,20.28 181.85,17.14 182.17,20.44 182.50,17.32 182.82,21.36 183.15,15.51 183.47,16.14 183.79,13.48 184.12,14.27 184.44,16.81 184.76,17.29 185.09,17.89 185.41,17.17 185.73,18.58 186.06,19.23 186.38,17.42 186.70,15.12 187.03,14.78 187.35,16.11 187.67,18.32 188.00,24.11 188.32,25.32 188.64,26.00 188.97,29.20 189.29,31.40 189.61,28.45 189.94,28.03 190.26,27.13 190.58,25.26 190.91,25.26 191.23,19.58 191.55,21.52 191.88,21.71 192.20,25.19 192.52,27.10 192.85,28.25 193.17,29.64 193.49,31.28 193.82,30.65 194.14,29.89 194.46,29.89 194.79,29.43 195.11,30.15 195.43,33.10 195.76,34.41 196.08,35.86 196.40,35.44 196.73,35.46 197.05,35.64 197.37,35.76 197.70,36.73 198.02,38.50 198.34,40.67 198.67,41.44 198.99,40.41 199.31,39.31 199.64,38.65 199.96,38.07 200.28,37.32 200.61,38.73 200.93,37.19 201.25,36.60 201.58,36.10 201.90,37.20 202.22,36.13 202.55,36.15 202.87,34.30 203.19,35.90 203.52,35.74 203.84,38.32 204.16,39.64 204.49,41.65 204.81,40.36 205.13,39.02 205.46,37.40 205.78,38.41 206.10,36.92 206.43,35.08 206.75,35.48 207.07,34.45 207.40,36.02 207.72,36.84 208.04,36.57 208.37,36.57 208.69,35.88 209.01,34.81 209.34,36.91 209.66,37.77 209.98,35.48 210.31,31.67 210.63,29.09 210.95,26.78 211.28,24.66 211.60,22.79 211.92,21.14 212.25,18.78 212.57,16.89 212.89,16.09 213.22,15.43 213.54,13.86 213.86,13.91 214.19,14.87 214.51,17.33 214.83,19.66 215.16,22.36 215.48,24.41 215.81,26.02 216.13,27.40 216.45,28.46 216.78,28.39 217.10,28.57 217.42,30.38 217.75,31.84 218.07,32.30 218.39,35.44 218.72,38.46 219.04,43.64 219.36,49.52 219.69,50.23 220.01,54.12 220.33,55.16 220.66,54.38 220.98,53.75 221.30,52.42 221.63,51.06 221.95,51.06 222.27,52.69 222.60,53.91 222.92,54.98 223.24,25.28 223.57,25.28 223.89,25.28 224.21,28.55 224.54,23.54 224.86,23.54 225.18,23.54 225.51,17.98 225.83,17.98 226.15,17.98 226.48,21.80 226.80,21.80 227.12,12.41 227.45,12.41 227.77,12.41 228.09,4.00 228.42,4.00 228.74,14.79 229.06,14.79 229.39,5.33 229.71,5.33 230.03,16.85 230.36,9.27 230.68,9.27 231.00,9.27 231.33,9.00 231.65,16.47 231.97,16.47 232.30,17.46 232.62,17.46 232.94,15.65 233.27,15.65 233.59,18.41 233.91,18.41 234.24,12.96 234.56,11.37 234.88,13.18 235.21,13.18 235.53,13.18 235.85,13.18 236.18,17.14 236.50,10.47 236.82,10.47 237.15,14.22 237.47,14.22 237.79,14.22 238.12,16.63 238.44,16.63 238.76,16.63 239.09,16.63 239.41,22.32 239.73,22.32 240.06,11.32 240.38,15.83 240.70,15.83 241.03,15.83 241.35,24.72 241.67,24.72 242.00,19.46 242.32,19.46 242.64,19.75 242.97,14.06 243.29,14.06 243.61,16.08 243.94,16.08 244.26,16.08 244.58,14.55 244.91,14.55 245.23,14.55 245.55,13.58 245.88,15.60 246.20,15.60 246.52,15.60 246.85,17.09 247.17,12.03 247.50,12.03 247.82,12.54 248.14,12.54 248.47,12.54 248.79,12.54 249.11,13.06 249.44,13.06 249.76,13.06 250.08,11.93 250.41,11.93 250.73,11.93 251.05,13.87 251.38,13.87 251.70,13.87 252.02,19.55 252.35,10.64 252.67,10.64 252.99,15.33 253.32,15.33 253.64,15.33 253.96,20.14 254.29,8.70 254.61,8.70 254.93,13.95 255.26,13.95 255.58,13.95 255.90,21.24 256.23,7.38 256.55,7.38 256.87,12.31 257.20,12.31 257.52,14.78 257.84,14.78 258.17,14.78 258.49,17.09 258.81,17.09 259.14,9.52 259.46,9.52 259.78,9.52 260.11,9.77 260.43,9.77 260.75,9.77 261.08,24.98 261.40,24.98 261.72,24.98 262.05,24.98 262.37,19.31 262.69,19.31 263.02,28.49 263.34,24.85 263.66,24.85 263.99,24.85 264.31,15.22 264.63,20.82 264.96,20.82 265.28,20.82 265.60,25.83 265.93,25.83 266.25,25.83 266.57,32.05 266.90,32.05 267.22,25.22 267.54,25.22 267.87,32.71 268.19,32.71 268.51,32.71 268.84,35.10 269.16,35.10 269.48,35.10 269.81,35.10 270.13,39.07 270.45,32.16 270.78,32.16 271.10,38.19 271.42,38.19 271.75,40.05 272.07,40.05 272.39,40.05 272.72,38.91 273.04,38.91 273.36,38.91 273.69,35.90 274.01,35.90 274.33,33.05 274.66,33.05 274.98,33.05 275.30,30.56 275.63,37.61 275.95,37.61 276.27,37.61 276.60,31.59 276.92,38.73 277.24,38.73 277.57,38.73 277.89,38.73 278.21,38.88 278.54,38.88 278.86,38.88 279.18,41.75 279.51,34.83 279.83,34.83 280.16,34.83 280.48,38.92 280.80,38.92 281.13,32.63 281.45,32.63 281.77,38.47 282.10,38.47 282.42,34.30 282.74,34.30 283.07,34.30 283.39,32.33 283.71,32.33 284.04,27.60 284.36,27.60 284.68,27.60 285.01,20.58 285.33,20.58 285.65,16.05 285.98,16.05 286.30,16.05 286.62,14.43 286.95,14.43 287.27,14.43 287.59,18.55 287.92,18.55 288.24,18.55 288.56,24.23 288.89,24.23 289.21,24.72 289.53,28.04 289.86,28.04 290.18,28.04 290.50,31.46 290.83,31.46 291.15,34.89 291.47,34.89 291.80,43.08 292.12,43.08 292.44,48.42 292.77,48.42 293.09,54.35 293.41,54.35 293.74,54.35 294.06,54.11 294.38,54.11 294.71,54.11 295.03,54.11 295.35,52.86 295.68,52.86 296.00,53.19" />
</svg>