<svg width="300" height="60" xmlns="http://www.w3.org/2000/svg">
  <polyline fill="rgba(255,200,0,0.3)" stroke="#ffbb00" stroke-width="2" points="4.00,29.80 4.36,30.27 4.71,30.71 5.07,30.97 5.43,31.22 5.78,31.63 6.14,32.07 6.50,32.33 6.85,32.72 7.21,33.08 7.57,33.61 7.92,34.22 8.28,34.84 8.63,35.36 8.99,36.04 9.35,36.62 9.70,37.20 10.06,37.72 10.42,38.20 10.77,38.46 11.13,38.44 11.49,38.24 11.84,38.13 12.20,38.22 12.56,38.47 12.91,38.84 13.27,39.20 13.63,39.62 13.98,40.09 14.34,40.57 14.70,41.09 15.05,41.61 15.41,42.06 15.77,42.63 16.12,43.12 16.48,43.68 16.84,44.25 17.19,44.78 17.55,45.35 17.90,45.78 18.26,46.37 18.62,47.18 18.97,47.74 19.33,48.39 19.69,48.93 20.04,49.44 20.40,49.88 20.76,50.36 21.11,50.90 21.47,51.49 21.83,52.02 22.18,52.57 22.54,52.99 22.90,53.23 23.25,53.26 23.61,52.93 23.97,52.47 24.32,52.11 24.68,51.91 25.04,51.78 25.39,51.80 25.75,52.04 26.11,52.42 26.46,52.81 26.82,53.18 27.17,53.63 27.53,54.13 27.89,54.39 28.24,54.44 28.60,54.16 28.96,53.80 29.31,53.38 29.67,52.90 30.03,52.36 30.38,51.94 30.74,50.88 31.10,50.62 31.45,50.16 31.81,50.01 32.17,49.70 32.52,49.40 32.88,48.82 33.24,48.26 33.59,47.69 33.95,47.12 34.31,46.48 34.66,45.70 35.02,45.03 35.37,44.50 35.73,43.81 36.09,43.30 36.44,42.68 36.80,42.29 37.16,41.92 37.51,41.57 37.87,41.12 38.23,40.51 38.58,40.04 38.94,39.57 39.30,39.09 39.65,38.77 40.01,38.46 40.37,38.19 40.72,37.87 41.08,37.55 41.44,37.11 41.79,36.73 42.15,36.30 42.51,36.01 42.86,35.59 43.22,35.16 43.58,34.63 43.93,34.13 44.29,33.65 44.64,33.14 45.00,32.58 45.36,32.24 45.71,31.82 46.07,31.50 46.43,31.31 46.78,31.13 47.14,30.96 47.50,30.82 47.85,30.57 48.21,30.11 48.57,29.69 48.92,29.45 49.28,29.04 49.64,28.65 49.99,28.32 50.35,28.02 50.71,27.63 51.06,27.25 51.42,26.86 51.78,26.55 52.13,26.36 52.49,26.16 52.84,25.97 53.20,25.78 53.56,25.58 53.91,25.36 54.27,25.22 54.63,24.88 54.98,24.35 55.34,23.70 55.70,23.04 56.05,22.46 56.41,21.92 56.77,21.37 57.12,20.73 57.48,20.03 57.84,19.36 58.19,18.88 58.55,18.36 58.91,17.83 59.26,17.32 59.62,16.89 59.98,16.53 60.33,16.28 60.69,16.09 61.05,15.95 61.40,15.84 61.76,15.79 62.11,15.66 62.47,15.46 62.83,15.17 63.18,14.85 63.54,14.58 63.90,14.39 64.25,14.23 64.61,14.26 64.97,14.44 65.32,14.69 65.68,14.98 66.04,15.34 66.39,15.71 66.75,15.89 67.11,15.87 67.46,15.76 67.82,15.54 68.18,15.33 68.53,15.05 68.89,14.85 69.25,14.65 69.60,14.36 69.96,14.11 70.32,13.70 70.67,13.31 71.03,12.93 71.38,12.58 71.74,12.25 72.10,11.96 72.45,11.66 72.81,11.32 73.17,10.77 73.52,10.20 73.88,9.51 74.24,8.80 74.59,8.02 74.95,7.32 75.31,6.64 75.66,5.95 76.02,5.32 76.38,4.69 76.73,4.01 77.09,29.91 77.45,30.05 77.80,30.71 78.16,31.04 78.52,31.30 78.87,31.33 79.23,31.80 79.58,32.12 79.94,32.87 80.30,33.28 80.65,33.26 81.01,34.21 81.37,34.59 81.72,35.47 82.08,36.33 82.44,36.69 82.79,37.31 83.15,38.12 83.51,38.31 83.86,38.68 84.22,38.84 84.58,38.45 84.93,38.24 85.29,38.40 85.65,38.78 86.00,38.96 86.36,39.31 86.72,39.90 87.07,40.31 87.43,40.75 87.79,41.33 88.14,41.84 88.50,42.16 88.85,42.61 89.21,43.13 89.57,43.75 89.92,44.19 90.28,44.76 90.64,45.29 90.99,45.82 91.35,46.45 91.71,47.07 92.06,47.99 92.42,48.26 92.78,49.05 93.13,49.48 93.49,50.00 93.85,50.33 94.20,50.55 94.56,51.39 94.92,51.87 95.27,52.50 95.63,52.95 95.99,53.30 96.34,53.56 96.70,53.04 97.05,52.52 97.41,52.19 97.77,51.89 98.12,51.79 98.48,51.83 98.84,52.06 99.19,52.48 99.55,52.84 99.91,53.18 100.26,53.71 100.62,54.26 100.98,54.60 101.33,54.43 101.69,54.47 102.05,53.96 102.40,53.39 102.76,53.01 103.12,52.41 103.47,51.76 103.83,51.23 104.19,50.92 104.54,49.78 104.90,50.16 105.26,49.82 105.61,49.43 105.97,48.81 106.32,48.35 106.68,47.65 107.04,47.03 107.39,46.40 107.75,45.75 108.11,44.91 108.46,44.44 108.82,43.92 109.18,43.43 109.53,42.71 109.89,42.24 110.25,41.99 110.60,41.75 110.96,41.28 111.32,40.70 111.67,40.19 112.03,39.63 112.39,39.21 112.74,38.85 113.10,38.55 113.46,38.32 113.81,37.93 114.17,37.49 114.53,37.18 114.88,36.87 115.24,36.42 115.59,36.19 115.95,35.68 116.31,35.30 116.66,34.75 117.02,34.30 117.38,33.60 117.73,33.13 118.09,32.37 118.45,32.22 118.80,31.87 119.16,31.63 119.52,31.46 119.87,31.24 120.23,31.03 120.59,30.80 120.94,30.72 121.30,30.32 121.66,29.80 122.01,29.45 122.37,29.10 122.73,28.74 123.08,28.51 123.44,28.11 123.79,27.77 124.15,27.46 124.51,26.98 124.86,26.54 125.22,26.28 125.58,26.17 125.93,26.14 126.29,25.86 126.65,25.71 127.00,25.54 127.36,25.39 127.72,24.99 128.07,24.91 128.43,24.17 128.79,23.32 129.14,22.53 129.50,22.01 129.86,21.50 130.21,21.29 130.57,20.17 130.93,19.61 131.28,18.99 131.64,18.31 132.00,17.77 132.35,17.43 132.71,16.95 133.06,16.54 133.42,16.26 133.78,16.01 134.13,15.87 134.49,15.90 134.85,15.93 135.20,15.78 135.56,15.57 135.92,15.32 136.27,14.94 136.63,14.56 136.99,14.35 137.34,14.31 137.70,14.34 138.06,14.46 138.41,14.74 138.77,15.09 139.13,15.32 139.48,15.72 139.84,15.95 140.20,15.99 140.55,15.82 140.91,15.62 141.26,15.36 141.62,15.13 141.98,14.90 142.33,14.76 142.69,14.46 143.05,14.14 143.40,13.69 143.76,13.36 144.12,12.99 144.47,12.67 144.83,12.30 145.19,12.12 145.54,11.91 145.90,11.42 146.26,10.86 146.61,10.41 146.97,9.64 147.33,8.83 147.68,8.15 148.04,7.42 148.40,6.68 148.75,6.02 149.11,5.51 149.47,4.88 149.82,4.15 150.18,29.80 150.53,29.70 150.89,30.81 151.25,31.17 151.60,31.17 151.96,31.04 152.32,31.04 152.67,31.57 153.03,33.21 153.39,33.52 153.74,33.11 154.10,33.98 154.46,34.85 154.81,35.81 155.17,36.52 155.53,37.50 155.88,37.75 156.24,38.11 156.60,38.49 156.95,38.93 157.31,38.79 157.67,38.32 158.02,38.21 158.38,37.11 158.74,37.50 159.09,38.37 159.45,37.53 159.80,39.05 160.16,38.90 160.52,40.41 160.87,40.62 161.23,40.96 161.59,42.27 161.94,42.76 162.30,43.60 162.66,43.76 163.01,45.34 163.37,45.07 163.73,46.10 164.08,45.63 164.44,46.62 164.80,47.22 165.15,47.50 165.51,48.15 165.87,50.67 166.22,51.76 166.58,52.02 166.94,51.95 167.29,51.70 167.65,51.66 168.00,52.09 168.36,52.49 168.72,53.39 169.07,53.49 169.43,54.08 169.79,52.87 170.14,52.71 170.50,51.88 170.86,52.37 171.21,51.63 171.57,52.46 171.93,52.04 172.28,53.51 172.64,53.09 173.00,53.87 173.35,54.28 173.71,54.28 174.07,54.76 174.42,54.99 174.78,54.85 175.14,54.28 175.49,53.49 175.85,52.43 176.21,50.52 176.56,51.47 176.92,48.91 177.27,48.92 177.63,45.77 177.99,49.94 178.34,49.64 178.70,49.98 179.06,48.46 179.41,48.54 179.77,47.82 180.13,46.27 180.48,44.80 180.84,43.86 181.20,43.86 181.55,43.08 181.91,44.18 182.27,43.59 182.62,41.26 182.98,41.84 183.34,42.44 183.69,42.38 184.05,41.68 184.41,40.86 184.76,40.41 185.12,39.29 185.47,40.27 185.83,39.74 186.19,38.20 186.54,38.93 186.90,37.96 187.26,37.16 187.61,38.27 187.97,36.80 188.33,36.90 188.68,36.65 189.04,35.27 189.40,36.04 189.75,34.93 190.11,33.75 190.47,33.60 190.82,32.24 191.18,32.11 191.54,31.97 191.89,31.79 192.25,31.68 192.61,31.56 192.96,31.40 193.32,31.15 193.68,30.83 194.03,30.45 194.39,30.07 194.74,29.54 195.10,29.26 195.46,29.26 195.81,28.45 196.17,28.46 196.53,27.73 196.88,27.63 197.24,27.63 197.60,26.82 197.95,26.14 198.31,26.43 198.67,26.23 199.02,27.06 199.38,26.01 199.74,25.78 200.09,25.66 200.45,25.64 200.81,25.00 201.16,24.87 201.52,23.72 201.88,24.02 202.23,24.19 202.59,22.18 202.95,21.20 203.30,21.26 203.66,20.46 204.01,18.96 204.37,18.30 204.73,17.74 205.08,17.27 205.44,16.78 205.80,16.28 206.15,15.93 206.51,15.69 206.87,15.58 207.22,15.77 207.58,16.04 207.94,16.04 208.29,16.04 208.65,15.66 209.01,15.24 209.36,14.86 209.72,14.54 210.08,14.30 210.43,14.20 210.79,14.23 211.15,14.40 211.50,14.71 211.86,15.10 212.21,15.59 212.57,15.98 212.93,16.14 213.28,16.04 213.64,15.95 214.00,15.83 214.35,15.63 214.71,15.27 215.07,14.90 215.42,14.33 215.78,14.27 216.14,13.72 216.49,13.37 216.85,13.37 217.21,12.97 217.56,12.80 217.92,12.43 218.28,12.94 218.63,11.90 218.99,11.79 219.35,10.52 219.70,10.52 220.06,9.84 220.42,8.69 220.77,8.01 221.13,7.33 221.48,6.79 221.84,6.55 222.20,5.02 222.55,4.62 222.91,4.00 223.27,29.88 223.62,29.88 223.98,33.15 224.34,33.15 224.69,33.15 225.05,33.86 225.41,33.86 225.76,33.86 226.12,35.02 226.48,35.02 226.83,35.02 227.19,38.47 227.55,38.47 227.90,38.47 228.26,39.14 228.62,39.14 228.97,39.14 229.33,39.14 229.68,41.32 230.04,41.32 230.40,41.32 230.75,38.91 231.11,38.91 231.47,38.91 231.82,38.05 232.18,38.05 232.54,36.31 232.89,37.39 233.25,37.39 233.61,37.39 233.96,40.88 234.32,40.33 234.68,40.33 235.03,44.39 235.39,44.39 235.75,44.47 236.10,44.47 236.46,44.47 236.82,49.89 237.17,49.89 237.53,51.92 237.89,51.92 238.24,51.92 238.60,55.85 238.95,55.85 239.31,56.00 239.67,56.00 240.02,56.00 240.38,54.66 240.74,54.66 241.09,54.13 241.45,54.13 241.81,54.13 242.16,51.33 242.52,51.33 242.88,51.91 243.23,51.91 243.59,51.91 243.95,54.18 244.30,53.50 244.66,53.50 245.02,53.50 245.37,51.06 245.73,51.06 246.09,55.09 246.44,54.30 246.80,54.30 247.16,54.30 247.51,53.90 247.87,54.39 248.22,54.39 248.58,49.63 248.94,49.63 249.29,49.63 249.65,49.63 250.01,43.87 250.36,43.87 250.72,43.45 251.08,43.45 251.43,43.45 251.79,46.31 252.15,49.90 252.50,49.90 252.86,49.90 253.22,44.67 253.57,44.67 253.93,44.67 254.29,41.39 254.64,41.39 255.00,41.39 255.36,41.39 255.71,41.44 256.07,41.44 256.42,41.44 256.78,40.37 257.14,40.37 257.49,40.37 257.85,41.28 258.21,41.28 258.56,41.28 258.92,38.43 259.28,38.43 259.63,38.43 259.99,38.43 260.35,37.14 260.70,37.14 261.06,37.14 261.42,37.14 261.77,34.96 262.13,34.96 262.49,34.96 262.84,34.96 263.20,31.71 263.56,31.71 263.91,31.71 264.27,31.71 264.63,31.89 264.98,31.89 265.34,31.89 265.69,31.99 266.05,31.99 266.41,31.99 266.76,30.42 267.12,30.42 267.48,30.42 267.83,29.95 268.19,29.95 268.55,29.95 268.90,27.24 269.26,27.24 269.62,27.24 269.97,27.49 270.33,27.49 270.69,27.49 271.04,25.94 271.40,26.54 271.76,26.54 272.11,26.54 272.47,26.54 272.83,26.77 273.18,26.77 273.54,26.77 273.89,24.61 274.25,24.61 274.61,25.66 274.96,25.66 275.32,21.18 275.68,21.18 276.03,20.43 276.39,20.43 276.75,20.43 277.10,18.62 277.46,18.62 277.82,18.62 278.17,18.90 278.53,18.90 278.89,18.90 279.24,17.59 279.60,17.59 279.96,17.59 280.31,17.16 280.67,17.16 281.03,17.16 281.38,17.16 281.74,15.25 282.10,15.25 282.45,15.25 282.81,14.86 283.16,14.86 283.52,14.86 283.88,15.48 284.23,15.48 284.59,15.48 284.95,17.36 285.30,17.36 285.66,17.36 286.02,17.72 286.37,17.72 286.73,17.72 287.09,17.62 287.44,17.62 287.80,17.62 288.16,17.17 288.51,17.17 288.87,15.18 289.23,15.63 289.58,15.63 289.94,15.63 290.30,15.63 290.65,14.86 291.01,13.65 291.37,13.65 291.72,11.92 292.08,11.92 292.43,11.92 292.79,11.92 293.15,8.83 293.50,8.44 293.86,8.44 294.22,7.12 294.57,7.12 294.93,7.12 295.29,5.03 295.64,5.03 296.00,5.47" />
</svg>