<svg width="300" height="60" xmlns="http://www.w3.org/2000/svg">
  <polyline fill="rgba(255,200,0,0.3)" stroke="#ffbb00" stroke-width="2" points="4.00,15.34 4.79,11.38 5.59,7.41 6.38,5.39 7.17,4.84 7.97,4.74 8.76,4.65 9.55,4.93 10.35,5.85 11.14,7.25 11.93,8.86 12.73,11.05 13.52,13.35 14.32,16.07 15.11,18.81 15.90,21.39 16.70,21.07 17.49,20.18 18.28,19.31 19.08,18.53 19.87,17.66 20.66,17.05 21.46,17.04 22.25,18.00 23.04,19.73 23.84,21.46 24.63,22.78 25.42,23.87 26.22,25.81 27.01,28.03 27.80,30.30 28.60,31.79 29.39,32.96 30.18,34.30 30.98,35.07 31.77,35.73 32.57,37.19 33.36,38.71 34.15,40.15 34.95,42.16 35.74,42.69 36.53,41.26 37.33,38.50 38.12,37.23 38.91,37.20 39.71,38.89 40.50,41.50 41.29,42.55 42.09,41.51 42.88,40.54 43.67,40.32 44.47,41.20 45.26,42.63 46.05,44.00 46.85,45.05 47.64,46.15 48.43,46.52 49.23,46.28 50.02,47.86 50.82,50.19 51.61,51.14 52.40,50.45 53.20,48.81 53.99,47.58 54.78,46.04 55.58,43.47 56.37,41.24 57.16,38.86 57.96,36.41 58.75,35.25 59.54,35.49 60.34,35.09 61.13,34.20 61.92,32.82 62.72,33.09 63.51,33.55 64.30,35.54 65.10,37.22 65.89,36.83 66.68,36.73 67.48,37.44 68.27,40.19 69.07,41.16 69.86,40.95 70.65,41.27 71.45,41.82 72.24,42.43 73.03,43.64 73.83,45.67 74.62,48.62 75.41,50.60 76.21,50.38 77.00,50.06 77.79,49.23 78.59,47.77 79.38,45.62 80.17,43.75 80.97,43.24 81.76,44.96 82.55,47.62 83.35,50.62 84.14,52.23 84.93,51.27 85.73,50.64 86.52,49.67 87.32,49.50 88.11,49.66 88.90,50.16 89.70,51.34 90.49,52.16 91.28,51.90 92.08,51.28 92.87,50.18 93.66,49.75 94.46,49.76 95.25,50.34 96.04,51.38 96.84,52.46 97.63,52.58 98.42,53.30 99.22,53.39 100.01,53.38 100.80,53.02 101.60,15.16 102.39,9.98 103.18,7.70 103.98,5.13 104.77,4.51 105.57,4.40 106.36,4.40 107.15,4.81 107.95,5.67 108.74,7.49 109.53,8.93 110.33,10.72 111.12,12.83 111.91,17.36 112.71,19.42 113.50,19.87 114.29,21.41 115.09,20.08 115.88,18.72 116.67,19.59 117.47,18.29 118.26,16.97 119.05,17.28 119.85,18.22 120.64,19.51 121.43,20.81 122.23,21.92 123.02,25.16 123.82,26.44 124.61,28.05 125.40,29.73 126.20,31.29 126.99,32.80 127.78,34.44 128.58,35.05 129.37,36.64 130.16,38.70 130.96,39.16 131.75,41.43 132.54,43.13 133.34,42.37 134.13,42.37 134.92,39.81 135.72,37.59 136.51,37.30 137.30,39.19 138.10,40.57 138.89,41.37 139.68,40.16 140.48,39.63 141.27,39.90 142.07,41.74 142.86,42.79 143.65,43.33 144.45,44.78 145.24,45.96 146.03,46.63 146.83,46.86 147.62,48.54 148.41,50.64 149.21,50.64 150.00,50.99 150.79,49.30 151.59,48.82 152.38,46.95 153.17,45.13 153.97,40.39 154.76,37.89 155.55,36.16 156.35,37.22 157.14,34.77 157.93,35.01 158.73,34.45 159.52,32.67 160.32,33.16 161.11,34.20 161.90,36.15 162.70,36.32 163.49,37.86 164.28,37.41 165.08,38.43 165.87,40.88 166.66,41.90 167.46,41.10 168.25,41.43 169.04,42.92 169.84,42.01 170.63,43.60 171.42,45.51 172.22,49.97 173.01,50.45 173.80,50.28 174.60,49.86 175.39,49.08 176.18,47.92 176.98,44.91 177.77,43.39 178.57,43.39 179.36,45.45 180.15,47.62 180.95,49.90 181.74,51.96 182.53,50.21 183.33,49.97 184.12,49.67 184.91,49.57 185.71,49.55 186.50,50.63 187.29,52.00 188.09,53.14 188.88,51.42 189.67,51.96 190.47,50.28 191.26,50.02 192.05,50.02 192.85,50.47 193.64,51.60 194.43,52.98 195.23,53.40 196.02,53.41 196.82,53.88 197.61,53.14 198.40,53.35 199.20,14.78 199.99,5.71 200.78,5.71 201.58,5.71 202.37,4.00 203.16,4.00 203.96,6.07 204.75,6.07 205.54,6.07 206.34,10.26 207.13,10.26 207.92,10.26 208.72,16.74 209.51,16.74 210.30,18.39 211.10,18.39 211.89,18.39 212.68,15.92 213.48,15.92 214.27,15.92 215.07,16.42 215.86,16.42 216.65,21.20 217.45,21.20 218.24,21.20 219.03,25.97 219.83,25.97 220.62,28.93 221.41,28.93 222.21,28.93 223.00,33.26 223.79,33.26 224.59,33.26 225.38,38.58 226.17,42.06 226.97,42.06 227.76,42.06 228.55,41.80 229.35,41.80 230.14,41.80 230.93,38.04 231.73,38.04 232.52,38.04 233.32,38.04 234.11,38.07 234.90,38.07 235.70,38.07 236.49,38.81 237.28,38.81 238.08,41.00 238.87,41.00 239.66,41.00 240.46,44.91 241.25,44.91 242.04,44.91 242.84,48.38 243.63,49.22 244.42,49.22 245.22,49.22 246.01,54.11 246.80,54.11 247.60,51.35 248.39,51.35 249.18,51.35 249.98,46.43 250.77,46.19 251.57,41.17 252.36,41.17 253.15,41.17 253.95,41.17 254.74,34.33 255.53,32.59 256.33,32.59 257.12,32.59 257.91,36.12 258.71,36.12 259.50,36.12 260.29,36.12 261.09,41.61 261.88,41.61 262.67,41.61 263.47,43.47 264.26,43.47 265.05,43.47 265.85,42.55 266.64,42.55 267.43,42.55 268.23,47.63 269.02,47.63 269.82,49.88 270.61,49.88 271.40,49.88 272.20,47.58 272.99,47.58 273.78,47.58 274.58,44.44 275.37,46.03 276.16,46.03 276.96,50.88 277.75,50.88 278.54,49.54 279.34,49.54 280.13,49.54 280.92,49.64 281.72,49.64 282.51,49.64 283.30,50.87 284.10,50.87 284.89,53.54 285.68,53.54 286.48,49.97 287.27,51.06 288.07,51.06 288.86,51.06 289.65,51.06 290.45,53.07 291.24,53.07 292.03,53.07 292.83,54.95 293.62,54.16 294.41,54.16 295.21,54.16 296.00,56.00" />
</svg>