<svg width="300" height="60" xmlns="http://www.w3.org/2000/svg">
  <polyline fill="rgba(255,200,0,0.3)" stroke="#ffbb00" stroke-width="2" points="4.00,5.49 4.66,6.21 5.33,7.01 5.99,7.63 6.65,8.04 7.32,7.70 7.98,7.92 8.65,8.54 9.31,9.27 9.97,9.74 10.64,10.26 11.30,10.58 11.96,10.47 12.63,10.67 13.29,11.00 13.95,11.79 14.62,12.17 15.28,12.68 15.95,12.99 16.61,13.14 17.27,13.97 17.94,14.40 18.60,14.18 19.26,14.41 19.93,14.43 20.59,14.70 21.25,14.82 21.92,15.12 22.58,15.21 23.25,15.46 23.91,15.96 24.57,16.64 25.24,17.93 25.90,18.39 26.56,18.62 27.23,19.10 27.89,19.72 28.55,20.16 29.22,20.50 29.88,20.65 30.55,20.22 31.21,20.64 31.87,21.35 32.54,21.96 33.20,22.39 33.86,22.63 34.53,22.61 35.19,22.86 35.85,23.58 36.52,24.09 37.18,24.39 37.85,24.68 38.51,24.86 39.17,25.09 39.84,25.38 40.50,25.74 41.16,26.25 41.83,26.73 42.49,27.58 43.15,28.39 43.82,28.78 44.48,28.67 45.15,28.66 45.81,28.87 46.47,29.09 47.14,29.45 47.80,29.78 48.46,30.24 49.13,30.64 49.79,31.08 50.45,31.48 51.12,31.78 51.78,32.01 52.45,32.23 53.11,32.52 53.77,33.02 54.44,32.34 55.10,32.32 55.76,32.61 56.43,33.57 57.09,35.11 57.75,36.62 58.42,36.14 59.08,36.19 59.75,36.60 60.41,37.04 61.07,37.45 61.74,37.93 62.40,38.37 63.06,38.78 63.73,39.16 64.39,39.42 65.05,39.60 65.72,39.79 66.38,40.07 67.05,40.18 67.71,40.12 68.37,40.11 69.04,40.77 69.70,41.50 70.36,42.00 71.03,42.42 71.69,42.73 72.35,43.08 73.02,43.50 73.68,43.83 74.35,44.16 75.01,44.62 75.67,45.09 76.34,45.50 77.00,45.85 77.66,46.04 78.33,46.37 78.99,46.78 79.65,47.16 80.32,47.78 80.98,48.12 81.65,48.85 82.31,48.81 82.97,49.10 83.64,48.96 84.30,49.25 84.96,49.86 85.63,50.70 86.29,51.34 86.95,51.84 87.62,51.85 88.28,51.78 88.95,51.07 89.61,50.89 90.27,51.04 90.94,51.25 91.60,51.59 92.26,51.95 92.93,52.38 93.59,52.71 94.25,53.07 94.92,53.47 95.58,53.94 96.25,54.34 96.91,54.48 97.57,54.64 98.24,54.85 98.90,55.18 99.56,55.53 100.23,55.79 100.89,55.99 101.55,5.29 102.22,5.94 102.88,6.72 103.55,7.35 104.21,7.62 104.87,7.95 105.54,7.99 106.20,8.68 106.86,9.45 107.53,9.45 108.19,9.49 108.85,10.21 109.52,10.31 110.18,10.64 110.85,10.64 111.51,11.46 112.17,11.89 112.84,12.61 113.50,12.61 114.16,12.95 114.83,13.53 115.49,13.72 116.15,13.75 116.82,14.41 117.48,14.42 118.15,14.64 118.81,15.65 119.47,14.90 120.14,15.11 120.80,15.45 121.46,16.60 122.13,16.19 122.79,17.06 123.45,18.27 124.12,18.37 124.78,18.43 125.45,19.51 126.11,19.86 126.77,21.02 127.44,20.29 128.10,20.16 128.76,20.20 129.43,21.35 130.09,21.61 130.75,22.83 131.42,21.94 132.08,22.32 132.75,22.91 133.41,22.62 134.07,23.76 134.74,24.49 135.40,24.30 136.06,24.64 136.73,24.65 137.39,25.52 138.05,25.30 138.72,26.29 139.38,27.34 140.05,27.29 140.71,28.31 141.37,28.11 142.04,29.24 142.70,29.00 143.36,30.25 144.03,29.97 144.69,29.64 145.35,30.80 146.02,29.41 146.68,30.57 147.35,30.47 148.01,31.56 148.67,31.42 149.34,30.98 150.00,32.05 150.66,31.66 151.33,32.97 151.99,33.06 152.65,31.75 153.32,32.32 153.98,33.94 154.65,35.21 155.31,36.58 155.97,36.07 156.64,36.47 157.30,37.18 157.96,36.56 158.63,37.58 159.29,37.14 159.95,38.39 160.62,38.01 161.28,39.24 161.95,38.70 162.61,39.86 163.27,39.33 163.94,40.45 164.60,39.94 165.26,39.51 165.93,40.53 166.59,40.46 167.25,41.48 167.92,41.56 168.58,42.35 169.25,42.45 169.91,42.97 170.57,43.51 171.24,43.61 171.90,44.00 172.56,44.35 173.23,44.76 173.89,45.27 174.55,45.59 175.22,45.78 175.88,46.37 176.55,46.67 177.21,47.05 177.87,47.54 178.54,48.05 179.20,48.66 179.86,48.94 180.53,48.97 181.19,49.01 181.85,49.24 182.52,49.84 183.18,50.94 183.85,51.47 184.51,51.98 185.17,51.82 185.84,51.23 186.50,50.56 187.16,50.94 187.83,50.76 188.49,51.50 189.15,51.42 189.82,52.15 190.48,52.26 191.15,52.85 191.81,53.15 192.47,53.65 193.14,53.99 193.80,54.18 194.46,54.34 195.13,54.60 195.79,54.92 196.45,55.14 197.12,55.34 197.78,55.68 198.45,56.00 199.11,4.00 199.77,6.02 200.44,6.02 201.10,6.02 201.76,7.67 202.43,7.67 203.09,5.84 203.75,7.63 204.42,7.63 205.08,7.63 205.75,7.63 206.41,9.66 207.07,9.66 207.74,8.24 208.40,8.24 209.06,10.89 209.73,10.89 210.39,9.20 211.05,9.20 211.72,11.82 212.38,11.82 213.05,11.82 213.71,12.52 214.37,14.44 215.04,14.44 215.70,14.44 216.36,16.80 217.03,14.94 217.69,14.94 218.35,14.94 219.02,17.88 219.68,16.26 220.35,16.26 221.01,16.26 221.67,19.70 222.34,17.51 223.00,17.51 223.66,20.59 224.33,20.59 224.99,20.59 225.65,18.24 226.32,21.37 226.98,21.37 227.65,21.37 228.31,25.15 228.97,22.09 229.64,22.09 230.30,22.09 230.96,20.73 231.63,23.87 232.29,23.87 232.95,23.87 233.62,22.53 234.28,25.39 234.95,25.39 235.61,25.39 236.27,28.48 236.94,28.48 237.60,25.17 238.26,28.40 238.93,28.40 239.59,28.40 240.25,31.60 240.92,31.60 241.58,27.55 242.25,31.15 242.91,31.15 243.57,31.15 244.24,31.15 244.90,30.34 245.56,30.34 246.23,30.34 246.89,33.53 247.55,33.53 248.22,29.38 248.88,33.08 249.55,33.08 250.21,33.08 250.87,29.63 251.54,34.20 252.20,34.20 252.86,34.20 253.53,38.41 254.19,38.41 254.85,38.41 255.52,36.59 256.18,36.59 256.85,36.59 257.51,39.75 258.17,39.75 258.84,39.75 259.50,38.65 260.16,38.65 260.83,38.65 261.49,41.88 262.15,41.88 262.82,37.75 263.48,40.90 264.15,40.90 264.81,40.90 265.47,43.91 266.14,43.91 266.80,41.26 267.46,43.29 268.13,43.29 268.79,43.29 269.45,44.87 270.12,44.87 270.78,44.87 271.45,45.27 272.11,45.27 272.77,45.27 273.44,45.27 274.10,46.27 274.76,46.27 275.43,46.27 276.09,47.48 276.75,47.48 277.42,47.48 278.08,48.13 278.75,48.13 279.41,48.13 280.07,50.23 280.74,50.23 281.40,50.30 282.06,51.68 282.73,51.68 283.39,51.68 284.05,50.74 284.72,50.74 285.38,50.74 286.05,50.74 286.71,50.29 287.37,52.16 288.04,52.16 288.70,52.64 289.36,52.64 290.03,52.64 290.69,53.07 291.35,54.15 292.02,54.15 292.68,54.15 293.35,54.22 294.01,55.20 294.67,55.20 295.34,55.20 296.00,55.50" />
</svg>