<svg width="300" height="60" xmlns="http://www.w3.org/2000/svg">
  <polyline fill="rgba(255,200,0,0.3)" stroke="#ffbb00" stroke-width="2" points="4.00,41.32 5.84,43.69 7.67,50.64 9.51,55.57 11.35,56.00 13.18,55.06 15.02,51.04 16.86,46.61 18.69,45.92 20.53,44.35 22.36,43.77 24.20,43.15 26.04,46.07 27.87,47.54 29.71,47.32 31.55,46.74 33.38,47.70 35.22,47.07 37.06,46.84 38.89,45.38 40.73,43.37 42.57,42.55 44.40,41.33 46.24,38.85 48.08,39.65 49.91,38.66 51.75,37.27 53.58,35.13 55.42,29.53 57.26,31.04 59.09,33.17 60.93,30.66 62.77,28.61 64.60,27.18 66.44,26.40 68.28,25.90 70.11,25.50 71.95,23.46 73.79,19.08 75.62,5.37 77.46,36.35 79.30,43.17 81.13,50.50 82.97,54.80 84.81,55.52 86.64,54.41 88.48,50.09 90.31,47.66 92.15,46.42 93.99,43.31 95.82,42.88 97.66,43.70 99.50,46.08 101.33,47.44 103.17,47.05 105.01,46.80 106.84,46.53 108.68,46.62 110.52,46.13 112.35,42.05 114.19,42.36 116.03,40.14 117.86,39.22 119.70,33.64 121.53,32.21 123.37,36.28 125.21,35.65 127.04,27.06 128.88,26.09 130.72,26.34 132.55,27.99 134.39,25.17 136.23,26.64 138.06,25.86 139.90,24.98 141.74,24.57 143.57,24.33 145.41,21.98 147.25,18.34 149.08,4.00 150.92,28.79 152.75,42.05 154.59,49.68 156.43,48.71 158.26,55.89 160.10,54.34 161.94,52.11 163.77,48.46 165.61,47.93 167.45,38.51 169.28,38.70 171.12,38.85 172.96,40.30 174.79,45.01 176.63,47.00 178.47,46.47 180.30,46.70 182.14,46.46 183.97,46.16 185.81,44.61 187.65,43.10 189.48,42.67 191.32,41.16 193.16,33.78 194.99,38.63 196.83,36.35 198.67,38.52 200.50,32.50 202.34,33.62 204.18,27.02 206.01,31.44 207.85,26.44 209.69,28.04 211.52,27.47 213.36,25.38 215.19,25.43 217.03,25.14 218.87,24.21 220.70,16.83 222.54,5.85 224.38,30.03 226.21,30.03 228.05,25.17 229.89,25.17 231.72,51.88 233.56,47.75 235.40,47.75 237.23,45.32 239.07,45.32 240.91,18.77 242.74,17.55 244.58,17.55 246.42,17.55 248.25,30.43 250.09,46.16 251.92,41.31 253.76,41.31 255.60,41.31 257.43,41.31 259.27,38.59 261.11,38.59 262.94,38.59 264.78,27.91 266.62,35.09 268.45,35.09 270.29,35.09 272.13,33.49 273.96,33.49 275.80,33.49 277.64,27.63 279.47,27.63 281.31,27.63 283.14,21.75 284.98,21.75 286.82,14.03 288.65,14.03 290.49,14.03 292.33,11.07 294.16,12.86 296.00,8.69" />
</svg>