<svg width="300" height="60" xmlns="http://www.w3.org/2000/svg">
  <polyline fill="rgba(255,200,0,0.3)" stroke="#ffbb00" stroke-width="2" points="4.00,9.46 4.62,9.46 5.23,9.63 5.85,9.93 6.47,10.14 7.09,10.18 7.70,10.31 8.32,10.57 8.94,10.83 9.56,10.93 10.17,11.06 10.79,11.46 11.41,11.85 12.03,12.22 12.64,12.22 13.26,12.65 13.88,12.84 14.49,12.94 15.11,13.21 15.73,13.57 16.35,14.02 16.96,14.17 17.58,14.56 18.20,15.09 18.82,15.43 19.43,15.43 20.05,16.48 20.67,16.85 21.29,16.98 21.90,17.74 22.52,18.36 23.14,18.47 23.75,19.12 24.37,19.32 24.99,19.85 25.61,20.05 26.22,20.61 26.84,21.16 27.46,21.37 28.08,21.92 28.69,22.40 29.31,22.61 29.93,23.07 30.55,23.37 31.16,23.68 31.78,23.83 32.40,24.02 33.01,24.06 33.63,24.14 34.25,24.26 34.87,24.34 35.48,24.42 36.10,24.53 36.72,24.60 37.34,24.77 37.95,24.75 38.57,24.98 39.19,25.21 39.81,25.39 40.42,25.57 41.04,25.81 41.66,25.77 42.27,25.95 42.89,26.02 43.51,26.08 44.13,26.12 44.74,26.41 45.36,26.65 45.98,26.68 46.60,26.85 47.21,26.70 47.83,26.38 48.45,27.13 49.07,27.52 49.68,27.63 50.30,27.50 50.92,27.77 51.53,27.85 52.15,27.72 52.77,27.17 53.39,25.94 54.00,25.93 54.62,27.69 55.24,28.18 55.86,28.54 56.47,28.87 57.09,29.13 57.71,29.50 58.33,29.95 58.94,30.40 59.56,30.32 60.18,30.67 60.79,30.89 61.41,31.27 62.03,31.52 62.65,32.08 63.26,32.06 63.88,32.32 64.50,32.64 65.12,32.96 65.73,33.40 66.35,33.61 66.97,33.64 67.59,33.91 68.20,34.30 68.82,34.57 69.44,34.69 70.05,35.08 70.67,35.15 71.29,36.88 71.91,37.24 72.52,36.28 73.14,36.51 73.76,36.50 74.38,36.44 74.99,37.43 75.61,38.55 76.23,38.86 76.85,38.67 77.46,38.24 78.08,38.47 78.70,38.26 79.32,38.89 79.93,38.78 80.55,39.20 81.17,39.96 81.78,40.44 82.40,41.38 83.02,42.92 83.64,42.80 84.25,42.91 84.87,42.93 85.49,43.05 86.11,43.40 86.72,43.38 87.34,44.02 87.96,44.74 88.58,45.24 89.19,45.53 89.81,46.49 90.43,46.68 91.04,47.13 91.66,47.21 92.28,47.29 92.90,47.61 93.51,47.70 94.13,48.20 94.75,48.44 95.37,48.99 95.98,49.44 96.60,49.87 97.22,50.11 97.84,50.58 98.45,51.05 99.07,51.40 99.69,51.97 100.30,51.91 100.92,52.16 101.54,9.51 102.16,8.13 102.77,9.31 103.39,9.51 104.01,10.23 104.63,9.07 105.24,9.36 105.86,10.72 106.48,10.71 107.10,9.81 107.71,10.96 108.33,10.79 108.95,10.88 109.56,12.21 110.18,12.39 110.80,11.67 111.42,12.30 112.03,12.82 112.65,13.41 113.27,13.92 113.89,14.55 114.50,14.76 115.12,14.26 115.74,15.12 116.36,14.98 116.97,15.88 117.59,15.88 118.21,16.59 118.82,17.19 119.44,17.68 120.06,18.65 120.68,17.83 121.29,19.30 121.91,19.79 122.53,20.13 123.15,19.59 123.76,20.53 124.38,20.31 125.00,21.74 125.62,21.87 126.23,21.96 126.85,21.92 127.47,22.91 128.08,23.58 128.70,23.58 129.32,24.03 129.94,24.09 130.55,24.21 131.17,24.16 131.79,24.85 132.41,24.73 133.02,23.85 133.64,24.54 134.26,24.42 134.88,25.19 135.49,25.22 136.11,25.31 136.73,25.32 137.34,25.32 137.96,24.95 138.58,26.76 139.20,26.09 139.81,26.09 140.43,25.87 141.05,26.23 141.67,25.76 142.28,26.83 142.90,26.41 143.52,26.62 144.14,26.80 144.75,27.10 145.37,26.26 145.99,27.12 146.60,27.28 147.22,27.69 147.84,28.20 148.46,27.81 149.07,27.81 149.69,27.11 150.31,26.06 150.93,25.25 151.54,26.63 152.16,27.48 152.78,27.50 153.40,29.33 154.01,29.23 154.63,29.01 155.25,30.94 155.86,30.37 156.48,31.65 157.10,30.52 157.72,31.75 158.33,31.24 158.95,30.88 159.57,32.58 160.19,32.58 160.80,33.25 161.42,33.78 162.04,32.77 162.66,34.42 163.27,33.43 163.89,35.61 164.51,34.25 165.12,33.50 165.74,35.73 166.36,35.99 166.98,36.18 167.59,36.64 168.21,36.60 168.83,36.61 169.45,36.14 170.06,37.86 170.68,36.99 171.30,36.89 171.92,37.07 172.53,37.50 173.15,39.19 173.77,39.19 174.38,38.88 175.00,38.62 175.62,38.93 176.24,41.49 176.85,39.03 177.47,40.09 178.09,39.39 178.71,42.04 179.32,41.38 179.94,40.82 180.56,43.24 181.18,42.71 181.79,44.38 182.41,42.63 183.03,43.99 183.64,43.93 184.26,44.35 184.88,43.13 185.50,44.27 186.11,45.08 186.73,45.70 187.35,45.66 187.97,46.98 188.58,48.46 189.20,48.92 189.82,46.49 190.44,47.33 191.05,48.49 191.67,49.07 192.29,48.37 192.90,50.19 193.52,49.91 194.14,49.55 194.76,51.40 195.37,50.95 195.99,50.47 196.61,52.30 197.23,51.76 197.84,52.62 198.46,52.46 199.08,4.33 199.70,4.33 200.31,8.02 200.93,8.02 201.55,4.00 202.16,4.00 202.78,8.75 203.40,8.75 204.02,8.75 204.63,9.87 205.25,9.87 205.87,9.87 206.49,9.95 207.10,9.95 207.72,9.95 208.34,9.95 208.96,12.08 209.57,12.08 210.19,12.11 210.81,12.11 211.42,12.11 212.04,16.50 212.66,16.50 213.28,16.50 213.89,16.09 214.51,16.09 215.13,16.09 215.75,19.48 216.36,18.17 216.98,18.17 217.60,18.17 218.22,15.97 218.83,19.39 219.45,19.39 220.07,19.39 220.68,16.83 221.30,21.04 221.92,21.04 222.54,20.24 223.15,20.24 223.77,20.24 224.39,20.62 225.01,20.62 225.62,24.14 226.24,24.14 226.86,24.14 227.48,24.14 228.09,24.86 228.71,24.86 229.33,27.06 229.95,27.06 230.56,24.63 231.18,24.63 231.80,27.37 232.41,27.37 233.03,27.37 233.65,27.64 234.27,27.64 234.88,27.64 235.50,27.64 236.12,31.08 236.74,26.34 237.35,26.34 237.97,29.71 238.59,29.71 239.21,26.52 239.82,26.52 240.44,28.35 241.06,28.35 241.67,28.35 242.29,29.84 242.91,29.84 243.53,29.84 244.14,30.00 244.76,30.00 245.38,30.00 246.00,28.30 246.61,28.30 247.23,28.30 247.85,28.30 248.47,24.87 249.08,24.87 249.70,29.00 250.32,29.00 250.93,29.00 251.55,29.00 252.17,31.14 252.79,31.14 253.40,31.14 254.02,36.54 254.64,36.54 255.26,36.54 255.87,33.94 256.49,33.94 257.11,33.94 257.73,33.94 258.34,38.16 258.96,38.16 259.58,38.16 260.19,34.36 260.81,34.36 261.43,41.79 262.05,41.79 262.66,38.63 263.28,38.63 263.90,38.63 264.52,39.45 265.13,39.45 265.75,39.45 266.37,39.62 266.99,39.62 267.60,39.62 268.22,37.48 268.84,37.48 269.45,37.48 270.07,36.79 270.69,45.46 271.31,45.46 271.92,45.46 272.54,38.91 273.16,46.13 273.78,46.13 274.39,46.13 275.01,40.63 275.63,40.63 276.25,49.05 276.86,46.72 277.48,46.72 278.10,46.72 278.71,46.72 279.33,53.47 279.95,47.54 280.57,47.54 281.18,47.54 281.80,47.26 282.42,47.26 283.04,47.26 283.65,49.37 284.27,49.37 284.89,49.37 285.51,49.37 286.12,54.33 286.74,54.33 287.36,46.87 287.97,50.89 288.59,50.89 289.21,50.89 289.83,50.89 290.44,55.45 291.06,55.45 291.68,55.45 292.30,53.65 292.91,53.65 293.53,53.65 294.15,53.65 294.77,51.75 295.38,56.00 296.00,53.43" />
</svg>