<svg width="300" height="60" xmlns="http://www.w3.org/2000/svg">
  <polyline fill="rgba(255,200,0,0.3)" stroke="#ffbb00" stroke-width="2" points="4.00,55.17 5.58,55.02 7.16,55.00 8.74,54.99 10.31,54.78 11.89,54.24 13.47,53.79 15.05,53.57 16.63,53.13 18.21,52.81 19.78,52.69 21.36,52.77 22.94,52.81 24.52,52.46 26.10,51.93 27.68,51.28 29.25,50.55 30.83,49.81 32.41,49.31 33.99,48.80 35.57,48.18 37.15,47.39 38.72,46.05 40.30,44.99 41.88,43.74 43.46,42.53 45.04,41.63 46.62,40.61 48.19,39.75 49.77,38.78 51.35,37.85 52.93,36.96 54.51,36.37 56.09,35.26 57.66,33.96 59.24,32.64 60.82,31.47 62.40,30.08 63.98,29.07 65.56,28.45 67.14,27.06 68.71,25.53 70.29,24.77 71.87,23.23 73.45,22.05 75.03,21.45 76.61,20.11 78.18,19.17 79.76,18.38 81.34,17.30 82.92,16.13 84.50,15.09 86.08,13.96 87.65,13.04 89.23,12.21 90.81,11.40 92.39,10.62 93.97,9.81 95.55,8.68 97.12,7.11 98.70,55.28 100.28,55.13 101.86,56.00 103.44,55.71 105.02,54.73 106.59,7.22 108.17,55.30 109.75,54.21 111.33,55.50 112.91,52.53 114.49,51.94 116.06,50.94 117.64,50.22 119.22,49.52 120.80,49.49 122.38,50.01 123.96,51.06 125.54,52.28 127.11,50.42 128.69,52.44 130.27,50.73 131.85,48.06 133.43,49.79 135.01,43.56 136.58,49.50 138.16,48.41 139.74,46.05 141.32,45.39 142.90,46.66 144.48,42.92 146.05,43.25 147.63,40.60 149.21,40.60 150.79,39.66 152.37,39.53 153.95,36.36 155.52,37.02 157.10,33.94 158.68,34.18 160.26,33.49 161.84,31.72 163.42,30.23 164.99,31.02 166.57,29.29 168.15,25.95 169.73,26.93 171.31,25.05 172.89,23.08 174.46,23.89 176.04,22.84 177.62,20.41 179.20,20.54 180.78,18.51 182.36,19.17 183.94,18.16 185.51,17.32 187.09,14.96 188.67,14.74 190.25,13.22 191.83,11.84 193.41,10.57 194.98,12.30 196.56,10.85 198.14,10.85 199.72,8.86 201.30,6.31 202.88,53.05 204.45,53.05 206.03,53.05 207.61,52.28 209.19,52.28 210.77,52.28 212.35,50.18 213.92,50.18 215.50,49.40 217.08,49.40 218.66,49.40 220.24,52.15 221.82,38.99 223.39,38.99 224.97,44.87 226.55,44.87 228.13,44.87 229.71,29.11 231.29,48.81 232.86,48.81 234.44,46.34 236.02,46.34 237.60,46.34 239.18,41.20 240.76,43.52 242.34,43.52 243.91,43.52 245.49,43.52 247.07,40.05 248.65,34.76 250.23,31.65 251.81,31.65 253.38,31.65 254.96,30.39 256.54,30.39 258.12,30.39 259.70,26.50 261.28,26.50 262.85,21.25 264.43,28.38 266.01,28.38 267.59,23.18 269.17,23.18 270.75,23.18 272.32,20.48 273.90,20.48 275.48,13.64 277.06,14.47 278.64,14.47 280.22,14.47 281.79,7.18 283.37,13.36 284.95,13.36 286.53,9.22 288.11,9.22 289.69,9.22 291.26,4.00 292.84,4.00 294.42,4.00 296.00,4.00" />
</svg>