<svg width="300" height="60" xmlns="http://www.w3.org/2000/svg">
  <polyline fill="rgba(255,200,0,0.3)" stroke="#ffbb00" stroke-width="2" points="4.00,8.37 4.13,8.01 4.25,7.51 4.38,7.02 4.50,6.39 4.63,5.57 4.75,4.98 4.88,4.91 5.00,5.09 5.13,5.25 5.25,5.40 5.38,5.40 5.50,5.32 5.63,5.24 5.75,5.30 5.88,7.58 6.00,7.73 6.13,8.16 6.25,8.62 6.38,9.00 6.50,9.33 6.63,9.54 6.75,9.62 6.88,9.72 7.00,9.60 7.13,9.44 7.25,9.11 7.38,9.09 7.50,9.25 7.63,9.29 7.75,9.32 7.88,9.19 8.00,9.41 8.13,8.88 8.25,8.59 8.38,8.21 8.50,8.02 8.63,7.92 8.75,8.13 8.88,8.31 9.00,8.66 9.13,8.79 9.25,8.79 9.38,8.69 9.50,8.49 9.63,7.92 9.75,7.71 9.88,7.46 10.01,7.61 10.13,7.91 10.26,8.10 10.38,8.65 10.51,10.04 10.63,11.69 10.76,12.76 10.88,12.83 11.01,12.34 11.13,12.40 11.26,12.59 11.38,12.58 11.51,12.55 11.63,12.28 11.76,11.92 11.88,11.33 12.01,10.87 12.13,10.13 12.26,9.70 12.38,9.52 12.51,9.43 12.63,9.48 12.76,10.17 12.88,10.97 13.01,11.78 13.13,10.42 13.26,9.16 13.38,7.96 13.51,7.49 13.63,7.46 13.76,7.49 13.88,8.03 14.01,8.39 14.13,8.55 14.26,8.95 14.38,8.94 14.51,8.92 14.63,8.63 14.76,8.25 14.88,8.00 15.01,7.91 15.13,7.84 15.26,7.75 15.38,7.55 15.51,7.52 15.63,7.30 15.76,7.21 15.89,7.20 16.01,7.13 16.14,7.15 16.26,7.19 16.39,7.48 16.51,7.97 16.64,8.14 16.76,8.79 16.89,9.02 17.01,9.56 17.14,10.17 17.26,10.83 17.39,55.70 17.51,55.25 17.64,55.44 17.76,55.67 17.89,54.76 18.01,54.04 18.14,54.00 18.26,53.95 18.39,54.14 18.51,54.41 18.64,55.32 18.76,55.43 18.89,55.22 19.01,54.34 19.14,53.61 19.26,53.25 19.39,53.38 19.51,54.09 19.64,54.27 19.76,54.35 19.89,54.02 20.01,53.93 20.14,53.46 20.26,52.76 20.39,52.16 20.51,51.77 20.64,51.59 20.76,51.86 20.89,52.82 21.01,52.98 21.14,53.29 21.26,53.30 21.39,52.96 21.51,52.46 21.64,52.03 21.77,51.80 21.89,51.52 22.02,51.47 22.14,51.91 22.27,51.93 22.39,51.27 22.52,50.62 22.64,50.00 22.77,50.10 22.89,50.99 23.02,50.65 23.14,49.80 23.27,49.62 23.39,49.42 23.52,48.88 23.64,48.69 23.77,48.81 23.89,48.73 24.02,48.51 24.14,48.13 24.27,47.74 24.39,47.38 24.52,46.99 24.64,46.52 24.77,46.15 24.89,45.72 25.02,45.42 25.14,45.03 25.27,44.62 25.39,44.48 25.52,44.82 25.64,44.98 25.77,45.00 25.89,44.58 26.02,44.34 26.14,44.17 26.27,42.62 26.39,41.72 26.52,41.43 26.64,41.32 26.77,41.17 26.89,40.84 27.02,41.12 27.14,41.59 27.27,41.91 27.40,41.88 27.52,41.59 27.65,41.22 27.77,40.97 27.90,40.89 28.02,40.84 28.15,40.65 28.27,40.45 28.40,40.22 28.52,39.51 28.65,38.77 28.77,38.78 28.90,39.85 29.02,40.86 29.15,42.38 29.27,41.52 29.40,41.13 29.52,40.80 29.65,40.89 29.77,41.02 29.90,41.87 30.02,40.69 30.15,40.15 30.27,40.20 30.40,39.18 30.52,37.70 30.65,36.67 30.77,36.51 30.90,36.89 31.02,37.74 31.15,38.50 31.27,38.10 31.40,37.78 31.52,38.22 31.65,38.89 31.77,39.45 31.90,39.45 32.02,40.25 32.15,40.97 32.27,40.46 32.40,39.24 32.52,38.16 32.65,37.47 32.77,36.45 32.90,36.30 33.02,35.60 33.15,35.35 33.28,35.36 33.40,35.04 33.53,34.20 33.65,33.15 33.78,32.30 33.90,31.79 34.03,31.22 34.15,30.87 34.28,30.71 34.40,30.62 34.53,31.28 34.65,32.19 34.78,33.44 34.90,32.76 35.03,32.35 35.15,32.59 35.28,32.13 35.40,31.20 35.53,30.36 35.65,30.24 35.78,30.61 35.90,31.56 36.03,33.38 36.15,33.47 36.28,32.03 36.40,31.03 36.53,30.39 36.65,30.26 36.78,30.37 36.90,30.69 37.03,30.92 37.15,31.00 37.28,30.66 37.40,30.32 37.53,30.20 37.65,30.43 37.78,30.66 37.90,31.75 38.03,33.44 38.15,34.16 38.28,34.40 38.40,33.37 38.53,33.07 38.65,32.13 38.78,31.79 38.90,31.83 39.03,31.91 39.16,31.97 39.28,32.86 39.41,32.96 39.53,33.75 39.66,34.14 39.78,33.57 39.91,33.02 40.03,33.31 40.16,32.89 40.28,32.73 40.41,32.27 40.53,31.60 40.66,30.66 40.78,30.36 40.91,30.42 41.03,30.21 41.16,29.99 41.28,29.89 41.41,29.74 41.53,29.63 41.66,29.91 41.78,30.30 41.91,29.60 42.03,29.48 42.16,30.13 42.28,30.45 42.41,30.91 42.53,30.12 42.66,29.75 42.78,29.51 42.91,29.36 43.03,28.50 43.16,27.90 43.28,27.62 43.41,27.42 43.53,27.55 43.66,27.56 43.78,27.36 43.91,27.22 44.03,27.15 44.16,27.29 44.28,27.11 44.41,26.73 44.53,26.44 44.66,25.82 44.78,25.35 44.91,25.33 45.04,25.54 45.16,26.21 45.29,26.68 45.41,27.56 45.54,29.30 45.66,28.49 45.79,27.82 45.91,27.25 46.04,26.65 46.16,26.28 46.29,26.33 46.41,26.04 46.54,25.98 46.66,26.10 46.79,26.34 46.91,26.76 47.04,27.14 47.16,27.95 47.29,27.88 47.41,28.03 47.54,27.39 47.66,26.15 47.79,25.06 47.91,24.16 48.04,23.73 48.16,22.83 48.29,22.59 48.41,22.72 48.54,23.33 48.66,23.62 48.79,23.83 48.91,23.97 49.04,23.63 49.16,23.50 49.29,23.91 49.41,24.46 49.54,25.43 49.66,24.98 49.79,24.46 49.91,24.41 50.04,24.65 50.16,25.60 50.29,25.57 50.41,25.72 50.54,26.55 50.66,26.03 50.79,25.31 50.92,24.29 51.04,23.79 51.17,23.74 51.29,24.14 51.42,24.55 51.54,25.04 51.67,24.99 51.79,25.48 51.92,26.29 52.04,26.73 52.17,27.19 52.29,27.38 52.42,26.96 52.54,25.47 52.67,24.87 52.79,25.14 52.92,25.56 53.04,27.77 53.17,28.22 53.29,28.57 53.42,27.78 53.54,27.69 53.67,27.30 53.79,27.06 53.92,27.20 54.04,27.84 54.17,28.47 54.29,28.63 54.42,28.55 54.54,27.91 54.67,27.48 54.79,27.39 54.92,27.44 55.04,27.79 55.17,28.54 55.29,29.27 55.42,29.24 55.54,27.90 55.67,27.25 55.79,27.00 55.92,27.04 56.04,27.44 56.17,28.01 56.29,28.35 56.42,28.56 56.54,28.56 56.67,28.66 56.80,28.74 56.92,28.62 57.05,28.60 57.17,28.72 57.30,29.00 57.42,29.23 57.55,29.53 57.67,29.94 57.80,31.03 57.92,31.78 58.05,33.17 58.17,33.35 58.30,31.67 58.42,30.27 58.55,29.09 58.67,27.84 58.80,26.70 58.92,25.68 59.05,24.99 59.17,24.78 59.30,25.23 59.42,26.21 59.55,27.48 59.67,29.12 59.80,31.09 59.92,32.39 60.05,33.10 60.17,32.51 60.30,31.68 60.42,30.81 60.55,30.58 60.67,30.16 60.80,30.43 60.92,30.50 61.05,30.31 61.17,30.38 61.30,30.28 61.42,30.15 61.55,29.96 61.67,29.47 61.80,29.39 61.92,29.29 62.05,29.43 62.17,30.12 62.30,30.89 62.43,31.21 62.55,31.43 62.68,31.30 62.80,31.39 62.93,31.56 63.05,30.90 63.18,30.01 63.30,29.44 63.43,28.98 63.55,29.00 63.68,29.01 63.80,29.11 63.93,29.11 64.05,29.68 64.18,30.28 64.30,32.02 64.43,33.36 64.55,33.33 64.68,32.97 64.80,32.60 64.93,32.27 65.05,31.97 65.18,32.26 65.30,32.94 65.43,33.40 65.55,32.81 65.68,33.14 65.80,33.59 65.93,33.65 66.05,32.39 66.18,31.79 66.30,31.41 66.43,30.80 66.55,30.66 66.68,31.29 66.80,31.62 66.93,31.53 67.05,29.93 67.18,29.32 67.30,29.24 67.43,29.06 67.55,28.99 67.68,29.03 67.80,28.93 67.93,28.89 68.05,28.96 68.18,29.07 68.31,29.34 68.43,29.54 68.56,29.33 68.68,29.24 68.81,29.05 68.93,29.29 69.06,29.83 69.18,28.63 69.31,28.22 69.43,27.44 69.56,27.23 69.68,27.30 69.81,27.45 69.93,27.42 70.06,27.27 70.18,27.10 70.31,26.93 70.43,26.93 70.56,27.23 70.68,27.94 70.81,28.69 70.93,29.10 71.06,28.88 71.18,28.07 71.31,27.28 71.43,26.73 71.56,26.50 71.68,26.08 71.81,26.07 71.93,26.23 72.06,26.13 72.18,25.71 72.31,25.28 72.43,25.04 72.56,24.81 72.68,24.84 72.81,24.88 72.93,24.67 73.06,24.50 73.18,24.46 73.31,24.64 73.43,25.05 73.56,25.54 73.68,25.78 73.81,26.08 73.93,26.49 74.06,25.79 74.19,23.98 74.31,23.09 74.44,21.68 74.56,21.15 74.69,21.09 74.81,21.26 74.94,21.59 75.06,22.09 75.19,22.17 75.31,21.87 75.44,21.66 75.56,21.57 75.69,21.40 75.81,21.23 75.94,21.09 76.06,21.02 76.19,21.05 76.31,21.56 76.44,22.03 76.56,23.07 76.69,23.70 76.81,21.98 76.94,20.55 77.06,19.74 77.19,19.62 77.31,19.52 77.44,19.55 77.56,19.64 77.69,19.29 77.81,19.07 77.94,18.88 78.06,18.52 78.19,17.75 78.31,17.54 78.44,18.15 78.56,18.35 78.69,18.31 78.81,17.97 78.94,17.18 79.06,17.39 79.19,17.70 79.31,17.62 79.44,17.55 79.56,17.36 79.69,17.29 79.81,17.32 79.94,17.45 80.07,17.64 80.19,17.81 80.32,17.93 80.44,18.12 80.57,18.33 80.69,18.50 80.82,18.70 80.94,18.75 81.07,18.64 81.19,18.20 81.32,17.98 81.44,17.95 81.57,17.76 81.69,17.72 81.82,17.89 81.94,17.81 82.07,17.09 82.19,16.12 82.32,16.01 82.44,16.44 82.57,17.05 82.69,18.26 82.82,18.70 82.94,18.72 83.07,18.52 83.19,18.07 83.32,17.48 83.44,17.49 83.57,17.22 83.69,16.87 83.82,16.94 83.94,16.66 84.07,16.82 84.19,16.98 84.32,17.41 84.44,18.15 84.57,18.00 84.69,17.42 84.82,16.50 84.94,16.06 85.07,15.65 85.19,15.62 85.32,15.61 85.44,15.58 85.57,15.55 85.69,15.36 85.82,15.03 85.95,14.87 86.07,14.58 86.20,14.34 86.32,13.91 86.45,13.76 86.57,13.63 86.70,13.36 86.82,13.31 86.95,13.51 87.07,14.24 87.20,14.42 87.32,15.29 87.45,16.26 87.57,16.17 87.70,14.90 87.82,14.43 87.95,14.27 88.07,14.49 88.20,14.76 88.32,14.11 88.45,13.83 88.57,13.60 88.70,13.70 88.82,13.62 88.95,12.43 89.07,11.71 89.20,11.26 89.32,10.95 89.45,10.56 89.57,10.20 89.70,9.88 89.82,9.50 89.95,9.02 90.07,8.70 90.20,8.61 90.32,9.08 90.45,9.98 90.57,9.91 90.70,10.79 90.82,11.06 90.95,11.47 91.07,11.16 91.20,11.12 91.32,10.99 91.45,10.82 91.57,10.67 91.70,10.44 91.83,10.37 91.95,10.23 92.08,10.06 92.20,9.59 92.33,8.77 92.45,8.37 92.58,7.97 92.70,7.49 92.83,7.35 92.95,7.52 93.08,7.87 93.20,8.34 93.33,8.33 93.45,8.42 93.58,8.16 93.70,8.02 93.83,7.92 93.95,7.84 94.08,7.72 94.20,7.69 94.33,7.77 94.45,7.99 94.58,8.94 94.70,9.79 94.83,10.96 94.95,10.28 95.08,9.15 95.20,8.60 95.33,8.67 95.45,8.47 95.58,8.62 95.70,8.25 95.83,7.71 95.95,7.08 96.08,7.03 96.20,7.60 96.33,8.86 96.45,9.36 96.58,8.74 96.70,8.37 96.83,5.30 96.95,5.35 97.08,5.31 97.20,5.32 97.33,5.25 97.46,5.26 97.58,5.42 97.71,5.31 97.83,5.17 97.96,4.90 98.08,4.97 98.21,5.16 98.33,5.16 98.46,5.64 98.58,5.56 98.71,5.30 98.83,5.17 98.96,5.44 99.08,5.87 99.21,6.95 99.33,6.99 99.46,7.35 99.58,7.78 99.71,8.37 99.83,7.60 99.96,7.18 100.08,6.33 100.21,5.96 100.33,5.56 100.46,5.47 100.58,5.65 100.71,5.92 100.83,6.36 100.96,7.41 101.08,7.55 101.21,7.44 101.33,7.46 101.46,7.58 101.58,10.04 101.71,55.47 101.83,55.29 101.96,55.41 102.08,55.53 102.21,54.41 102.33,54.22 102.46,54.16 102.58,54.16 102.71,54.29 102.83,54.66 102.96,55.19 103.08,55.44 103.21,55.05 103.34,54.25 103.46,53.57 103.59,53.30 103.71,53.48 103.84,53.87 103.96,54.47 104.09,54.15 104.21,54.15 104.34,54.15 104.46,53.63 104.59,53.09 104.71,52.60 104.84,52.28 104.96,52.29 105.09,51.74 105.21,52.61 105.34,53.40 105.46,53.26 105.59,53.68 105.71,53.29 105.84,52.44 105.96,51.89 106.09,52.24 106.21,51.68 106.34,51.68 106.46,51.89 106.59,51.78 106.71,51.24 106.84,50.34 106.96,50.03 107.09,50.03 107.21,50.59 107.34,50.81 107.46,49.79 107.59,49.36 107.71,49.36 107.84,48.86 107.96,48.67 108.09,48.83 108.21,48.86 108.34,48.87 108.46,48.00 108.59,47.89 108.71,47.38 108.84,46.99 108.96,46.65 109.09,46.38 109.22,46.23 109.34,46.19 109.47,44.85 109.59,44.94 109.72,45.33 109.84,45.33 109.97,44.47 110.09,44.74 110.22,44.51 110.34,44.16 110.47,43.84 110.59,43.23 110.72,41.76 110.84,42.13 110.97,42.25 111.09,41.38 111.22,40.94 111.34,41.02 111.47,41.33 111.59,42.18 111.72,41.68 111.84,41.53 111.97,41.36 112.09,41.30 112.22,40.83 112.34,40.83 112.47,40.90 112.59,40.25 112.72,40.22 112.84,39.20 112.97,38.96 113.09,39.51 113.22,39.51 113.34,41.17 113.47,42.14 113.59,40.91 113.72,40.97 113.84,40.16 113.97,40.70 114.09,40.92 114.22,41.84 114.34,40.71 114.47,40.60 114.59,39.41 114.72,39.41 114.84,38.07 114.97,37.05 115.10,36.37 115.22,37.27 115.35,38.35 115.47,38.19 115.60,38.20 115.72,38.03 115.85,38.31 115.97,38.84 116.10,39.73 116.22,38.67 116.35,39.98 116.47,41.04 116.60,39.81 116.72,39.71 116.85,38.15 116.97,37.63 117.10,36.86 117.22,36.39 117.35,36.04 117.47,35.80 117.60,35.65 117.72,35.55 117.85,34.24 117.97,32.92 118.10,33.15 118.22,32.70 118.35,31.87 118.47,30.53 118.60,31.51 118.72,31.41 118.85,31.48 118.97,31.66 119.10,33.40 119.22,32.73 119.35,32.98 119.47,33.61 119.60,33.52 119.72,32.32 119.85,30.20 119.97,30.63 120.10,30.63 120.22,31.44 120.35,33.18 120.47,32.97 120.60,32.82 120.72,31.47 120.85,30.19 120.98,29.84 121.10,31.03 121.23,31.44 121.35,30.41 121.48,30.94 121.60,30.21 121.73,31.15 121.85,31.01 121.98,31.07 122.10,31.20 122.23,31.37 122.35,32.99 122.48,33.94 122.60,34.09 122.73,33.78 122.85,33.10 122.98,32.95 123.10,31.98 123.23,32.36 123.35,32.63 123.48,32.88 123.60,33.21 123.73,33.50 123.85,33.50 123.98,34.00 124.10,33.14 124.23,33.12 124.35,33.17 124.48,32.87 124.60,32.22 124.73,32.32 124.85,30.96 124.98,30.45 125.10,30.36 125.23,30.62 125.35,29.73 125.48,29.76 125.60,29.44 125.73,29.43 125.85,29.75 125.98,30.32 126.10,29.74 126.23,29.72 126.35,30.24 126.48,30.63 126.60,30.82 126.73,30.52 126.86,30.34 126.98,29.64 127.11,28.86 127.23,29.40 127.36,28.18 127.48,28.34 127.61,27.44 127.73,27.15 127.86,27.39 127.98,26.93 128.11,27.86 128.23,27.69 128.36,27.62 128.48,27.67 128.61,26.41 128.73,26.47 128.86,26.72 128.98,25.87 129.11,24.82 129.23,25.64 129.36,26.03 129.48,26.71 129.61,26.24 129.73,27.58 129.86,28.32 129.98,28.32 130.11,26.95 130.23,26.53 130.36,26.35 130.48,26.46 130.61,25.91 130.73,26.70 130.86,25.80 130.98,26.00 131.11,26.54 131.23,25.69 131.36,27.24 131.48,27.24 131.61,27.32 131.73,28.66 131.86,27.25 131.98,26.25 132.11,25.37 132.23,24.62 132.36,23.17 132.49,22.68 132.61,22.59 132.74,22.87 132.86,23.58 132.99,23.58 133.11,23.84 133.24,24.11 133.36,23.45 133.49,23.83 133.61,24.33 133.74,24.63 133.86,25.52 133.99,25.41 134.11,24.88 134.24,24.65 134.36,25.66 134.49,25.57 134.61,26.66 134.74,26.15 134.86,27.32 134.99,26.21 135.11,25.23 135.24,24.28 135.36,23.51 135.49,24.22 135.61,24.40 135.74,24.79 135.86,25.31 135.99,25.75 136.11,24.78 136.24,26.48 136.36,27.52 136.49,27.40 136.61,27.69 136.74,26.95 136.86,25.71 136.99,25.90 137.11,25.14 137.24,26.07 137.36,27.79 137.49,28.63 137.61,28.18 137.74,28.17 137.86,27.48 137.99,27.37 138.11,27.82 138.24,26.82 138.37,27.85 138.49,28.24 138.62,29.24 138.74,28.42 138.87,28.59 138.99,27.64 139.12,28.17 139.24,27.03 139.37,27.91 139.49,28.46 139.62,29.38 139.74,28.45 139.87,28.92 139.99,28.22 140.12,27.17 140.24,27.44 140.37,28.35 140.49,28.03 140.62,29.01 140.74,28.73 140.87,28.47 140.99,29.34 141.12,29.14 141.24,29.01 141.37,28.95 141.49,28.95 141.62,29.05 141.74,29.25 141.87,29.80 141.99,30.09 142.12,30.49 142.24,32.59 142.37,33.05 142.49,32.71 142.62,31.37 142.74,30.03 142.87,28.51 142.99,27.27 143.12,26.08 143.24,25.14 143.37,25.14 143.49,24.68 143.62,24.90 143.74,25.92 143.87,28.37 143.99,29.91 144.12,31.30 144.25,32.36 144.37,32.85 144.50,32.49 144.62,30.95 144.75,30.29 144.87,29.77 145.00,29.41 145.12,30.49 145.25,30.36 145.37,30.28 145.50,30.45 145.62,30.22 145.75,29.98 145.87,30.03 146.00,29.25 146.12,29.62 146.25,29.11 146.37,29.74 146.50,30.55 146.62,31.43 146.75,31.20 146.87,31.81 147.00,32.18 147.12,31.70 147.25,32.55 147.37,31.08 147.50,30.04 147.62,29.32 147.75,29.32 147.87,29.29 148.00,29.99 148.12,29.09 148.25,29.80 148.37,30.27 148.50,30.27 148.62,31.90 148.75,33.12 148.87,33.26 149.00,32.98 149.12,32.20 149.25,30.70 149.37,31.89 149.50,31.99 149.62,33.46 149.75,32.82 149.87,32.42 150.00,33.76 150.13,32.59 150.25,32.86 150.38,31.59 150.50,31.68 150.63,30.76 150.75,29.94 150.88,30.76 151.00,30.38 151.13,31.74 151.25,31.33 151.38,30.67 151.50,29.39 151.63,29.34 151.75,28.48 151.88,28.34 152.00,28.95 152.13,28.55 152.25,29.28 152.38,29.11 152.50,29.01 152.63,29.01 152.75,28.90 152.88,29.44 153.00,28.84 153.13,28.64 153.25,29.54 153.38,29.00 153.50,29.00 153.63,27.81 153.75,27.48 153.88,26.71 154.00,27.20 154.13,26.84 154.25,27.31 154.38,27.12 154.50,27.12 154.63,27.23 154.75,26.98 154.88,27.62 155.00,28.36 155.13,28.85 155.25,29.24 155.38,29.15 155.50,28.71 155.63,26.97 155.75,26.54 155.88,26.07 156.01,26.84 156.13,26.71 156.26,26.75 156.38,25.89 156.51,25.89 156.63,25.28 156.76,25.59 156.88,25.09 157.01,25.68 157.13,25.52 157.26,24.68 157.38,24.40 157.51,24.74 157.63,25.32 157.76,25.22 157.88,25.96 158.01,26.52 158.13,27.23 158.26,25.87 158.38,24.89 158.51,23.58 158.63,22.62 158.76,21.93 158.88,21.22 159.01,21.60 159.13,21.34 159.26,21.90 159.38,21.90 159.51,22.66 159.63,22.47 159.76,21.68 159.88,21.83 160.01,21.34 160.13,21.09 160.26,21.16 160.38,21.51 160.51,22.00 160.63,22.47 160.76,22.97 160.88,23.54 161.01,22.76 161.13,21.16 161.26,19.97 161.38,19.41 161.51,19.43 161.63,19.43 161.76,19.20 161.89,20.00 162.01,19.93 162.14,19.02 162.26,19.15 162.39,18.39 162.51,18.76 162.64,18.16 162.76,17.72 162.89,18.80 163.01,19.03 163.14,17.82 163.26,17.38 163.39,17.79 163.51,17.41 163.64,18.03 163.76,17.65 163.89,17.25 164.01,17.60 164.14,17.25 164.26,16.95 164.39,17.86 164.51,17.66 164.64,17.24 164.76,18.35 164.89,17.79 165.01,19.18 165.14,18.68 165.26,19.62 165.39,18.66 165.51,17.53 165.64,18.42 165.76,17.47 165.89,18.41 166.01,17.38 166.14,18.26 166.26,16.99 166.39,17.27 166.51,16.98 166.64,15.63 166.76,17.20 166.89,17.83 167.01,18.58 167.14,18.58 167.26,18.74 167.39,17.54 167.51,17.46 167.64,17.26 167.77,17.19 167.89,16.98 168.02,16.72 168.14,16.62 168.27,16.37 168.39,16.52 168.52,16.87 168.64,17.39 168.77,18.05 168.89,18.28 169.02,16.40 169.14,16.07 169.27,15.85 169.39,15.84 169.52,15.17 169.64,15.77 169.77,15.99 169.89,15.54 170.02,15.05 170.14,14.62 170.27,14.33 170.39,14.17 170.52,14.18 170.64,14.27 170.77,14.35 170.89,14.32 171.02,14.24 171.14,14.19 171.27,14.24 171.39,14.24 171.52,14.43 171.64,14.77 171.77,16.51 171.89,15.09 172.02,15.42 172.14,14.45 172.27,13.70 172.39,14.63 172.52,14.20 172.64,13.93 172.77,13.65 172.89,12.75 173.02,13.39 173.14,12.53 173.27,11.66 173.40,12.41 173.52,11.13 173.65,10.90 173.77,10.65 173.90,9.59 174.02,9.33 174.15,9.12 174.27,8.31 174.40,8.61 174.52,8.58 174.65,9.07 174.77,9.92 174.90,10.09 175.02,11.46 175.15,10.88 175.27,11.26 175.40,11.80 175.52,11.47 175.65,10.82 175.77,10.51 175.90,9.43 176.02,10.30 176.15,10.02 176.27,9.66 176.40,10.08 176.52,9.06 176.65,8.39 176.77,7.87 176.90,8.25 177.02,7.60 177.15,7.19 177.27,8.10 177.40,7.76 177.52,8.39 177.65,8.48 177.77,8.48 177.90,8.85 178.02,8.43 178.15,8.19 178.27,8.10 178.40,8.08 178.52,8.14 178.65,8.26 178.77,8.46 178.90,8.78 179.02,10.65 179.15,10.42 179.28,10.63 179.40,8.82 179.53,8.66 179.65,8.56 179.78,8.23 179.90,7.81 180.03,7.79 180.15,7.87 180.28,7.08 180.40,7.64 180.53,7.80 180.65,9.15 180.78,9.91 180.90,8.32 181.03,8.44 181.15,8.51 181.28,7.08 181.40,6.72 181.53,6.45 181.65,5.34 181.78,5.34 181.90,4.94 182.03,5.13 182.15,5.59 182.28,5.23 182.40,5.02 182.53,5.52 182.65,5.32 182.78,5.10 182.90,5.82 183.03,5.58 183.15,5.29 183.28,6.09 183.40,5.31 183.53,4.82 183.65,5.50 183.78,4.73 183.90,5.17 184.03,4.37 184.15,4.92 184.28,6.30 184.40,5.64 184.53,6.28 184.65,6.32 184.78,5.32 184.90,5.74 185.03,6.35 185.16,7.23 185.28,7.36 185.41,7.59 185.53,7.59 185.66,8.09 185.78,8.06 185.91,5.64 186.03,5.24 186.16,6.52 186.28,6.21 186.41,5.98 186.53,5.88 186.66,6.08 186.78,6.52 186.91,7.08 187.03,7.24 187.16,7.02 187.28,6.91 187.41,7.20 187.53,7.50 187.66,7.85 187.78,8.21 187.91,8.54 188.03,9.15 188.16,9.47 188.28,9.78 188.41,10.03 188.53,9.04 188.66,9.14 188.78,9.23 188.91,9.66 189.03,9.33 189.16,8.58 189.28,9.36 189.41,9.77 189.53,9.47 189.66,9.27 189.78,9.16 189.91,8.07 190.03,8.34 190.16,8.08 190.28,9.08 190.41,8.56 190.53,9.63 190.66,9.23 190.78,8.74 190.91,9.17 191.04,8.47 191.16,7.83 191.29,7.33 191.41,8.47 191.54,8.35 191.66,8.36 191.79,7.95 191.91,9.30 192.04,11.18 192.16,11.18 192.29,12.58 192.41,11.83 192.54,11.91 192.66,12.09 192.79,12.35 192.91,12.75 193.04,12.72 193.16,12.48 193.29,12.22 193.41,10.43 193.54,10.35 193.66,10.35 193.79,9.32 193.91,9.66 194.04,9.11 194.16,9.90 194.29,9.91 194.41,11.00 194.54,10.81 194.66,9.52 194.79,8.35 194.91,7.66 195.04,6.58 195.16,7.22 195.29,6.98 195.41,7.82 195.54,7.73 195.66,8.56 195.79,9.44 195.91,8.49 196.04,8.38 196.16,8.22 196.29,8.92 196.41,7.98 196.54,7.56 196.66,7.87 196.79,7.21 196.92,7.50 197.04,7.79 197.17,7.06 197.29,7.34 197.42,6.71 197.54,7.02 197.67,7.02 197.79,6.69 197.92,7.18 198.04,7.47 198.17,8.24 198.29,8.74 198.42,8.50 198.54,9.42 198.67,10.13 198.79,10.33 198.92,56.00 199.04,55.98 199.17,55.98 199.29,55.98 199.42,54.40 199.54,54.25 199.67,54.25 199.79,54.25 199.92,55.05 200.04,55.05 200.17,55.05 200.29,54.42 200.42,54.42 200.54,54.42 200.67,53.59 200.79,53.59 200.92,53.59 201.04,53.73 201.17,55.03 201.29,55.03 201.42,54.08 201.54,54.08 201.67,54.08 201.79,54.08 201.92,53.56 202.04,53.56 202.17,53.56 202.29,54.09 202.42,54.09 202.54,54.09 202.67,53.00 202.80,53.00 202.92,53.00 203.05,53.00 203.17,51.93 203.30,51.93 203.42,51.93 203.55,51.93 203.67,51.23 203.80,51.23 203.92,51.23 204.05,50.32 204.17,50.32 204.30,50.32 204.42,50.32 204.55,51.02 204.67,49.19 204.80,49.19 204.92,49.19 205.05,49.19 205.17,48.64 205.30,48.64 205.42,48.64 205.55,49.15 205.67,49.15 205.80,49.15 205.92,47.93 206.05,47.93 206.17,47.93 206.30,47.61 206.42,47.61 206.55,47.61 206.67,48.06 206.80,48.06 206.92,48.06 207.05,48.06 207.17,44.42 207.30,44.42 207.42,44.42 207.55,43.34 207.67,43.34 207.80,43.34 207.92,43.96 208.05,43.96 208.17,43.96 208.30,41.71 208.43,41.71 208.55,43.58 208.68,42.76 208.80,42.76 208.93,42.39 209.05,42.39 209.18,42.39 209.30,41.60 209.43,41.60 209.55,41.60 209.68,41.33 209.80,42.07 209.93,40.11 210.05,40.11 210.18,40.11 210.30,40.28 210.43,40.28 210.55,40.28 210.68,41.15 210.80,41.15 210.93,41.15 211.05,39.81 211.18,39.81 211.30,39.81 211.43,41.61 211.55,41.61 211.68,38.27 211.80,38.27 211.93,38.27 212.05,38.27 212.18,38.34 212.30,38.34 212.43,38.34 212.55,40.69 212.68,40.69 212.80,40.69 212.93,40.81 213.05,40.81 213.18,40.81 213.30,38.41 213.43,38.41 213.55,38.41 213.68,39.70 213.80,39.70 213.93,39.70 214.05,38.30 214.18,38.30 214.31,38.30 214.43,37.35 214.56,37.35 214.68,37.35 214.81,37.18 214.93,37.18 215.06,37.18 215.18,33.15 215.31,35.00 215.43,35.00 215.56,35.00 215.68,32.69 215.81,32.69 215.93,31.67 216.06,31.67 216.18,31.67 216.31,36.37 216.43,33.12 216.56,33.12 216.68,36.35 216.81,36.35 216.93,36.35 217.06,32.64 217.18,32.64 217.31,32.64 217.43,33.56 217.56,33.56 217.68,33.56 217.81,35.03 217.93,35.03 218.06,31.28 218.18,31.28 218.31,34.90 218.43,34.90 218.56,32.02 218.68,32.02 218.81,32.02 218.93,33.91 219.06,33.91 219.18,33.91 219.31,33.25 219.43,33.25 219.56,33.25 219.68,33.25 219.81,32.45 219.93,34.75 220.06,34.75 220.19,34.39 220.31,32.22 220.44,32.22 220.56,32.96 220.69,32.96 220.81,32.96 220.94,32.96 221.06,32.96 221.19,33.04 221.31,33.04 221.44,33.04 221.56,31.79 221.69,31.79 221.81,31.79 221.94,31.79 222.06,28.88 222.19,28.88 222.31,28.88 222.44,29.45 222.56,29.45 222.69,29.45 222.81,29.03 222.94,29.03 223.06,29.03 223.19,29.75 223.31,29.75 223.44,29.75 223.56,30.22 223.69,30.22 223.81,29.29 223.94,29.29 224.06,29.29 224.19,29.29 224.31,27.86 224.44,27.86 224.56,27.86 224.69,27.63 224.81,27.63 224.94,25.49 225.06,25.49 225.19,25.49 225.31,27.65 225.44,27.65 225.56,27.65 225.69,27.63 225.81,24.15 225.94,25.12 226.07,25.12 226.19,25.12 226.32,25.12 226.44,27.81 226.57,26.20 226.69,26.20 226.82,26.20 226.94,28.92 227.07,25.23 227.19,25.23 227.32,24.45 227.44,24.45 227.57,25.23 227.69,25.23 227.82,25.23 227.94,28.09 228.07,28.09 228.19,25.75 228.32,25.75 228.44,25.75 228.57,28.25 228.69,23.69 228.82,23.69 228.94,27.05 229.07,27.05 229.19,24.72 229.32,24.72 229.44,24.72 229.57,22.02 229.69,22.02 229.82,23.98 229.94,23.98 230.07,23.98 230.19,23.98 230.32,23.98 230.44,24.99 230.57,24.99 230.69,24.99 230.82,26.82 230.94,26.82 231.07,26.82 231.19,27.10 231.32,27.10 231.44,25.06 231.57,28.54 231.69,28.54 231.82,28.54 231.95,27.48 232.07,27.48 232.20,27.48 232.32,25.82 232.45,25.82 232.57,25.82 232.70,24.52 232.82,24.52 232.95,24.52 233.07,25.30 233.20,25.30 233.32,25.30 233.45,27.04 233.57,27.04 233.70,29.51 233.82,29.51 233.95,29.51 234.07,28.32 234.20,28.32 234.32,28.32 234.45,26.07 234.57,27.79 234.70,27.79 234.82,27.79 234.95,29.76 235.07,29.76 235.20,29.76 235.32,31.87 235.45,28.98 235.57,28.98 235.70,28.98 235.82,31.41 235.95,31.41 236.07,31.41 236.20,29.03 236.32,29.03 236.45,29.03 236.57,29.03 236.70,32.03 236.82,29.84 236.95,29.84 237.07,29.84 237.20,31.93 237.32,29.45 237.45,29.45 237.57,29.45 237.70,28.04 237.83,31.85 237.95,31.85 238.08,30.78 238.20,30.78 238.33,30.46 238.45,30.46 238.58,30.46 238.70,30.48 238.83,30.48 238.95,30.48 239.08,31.02 239.20,31.02 239.33,31.82 239.45,31.82 239.58,31.82 239.70,30.21 239.83,30.21 239.95,30.21 240.08,26.47 240.20,26.47 240.33,26.47 240.45,23.55 240.58,23.55 240.70,26.23 240.83,26.23 240.95,26.23 241.08,29.94 241.20,29.94 241.33,32.18 241.45,32.18 241.58,32.18 241.70,30.99 241.83,30.99 241.95,29.62 242.08,29.62 242.20,29.62 242.33,29.44 242.45,29.44 242.58,30.41 242.70,30.41 242.83,30.41 242.95,30.41 243.08,30.41 243.20,30.41 243.33,30.41 243.46,32.59 243.58,32.59 243.71,32.59 243.83,35.24 243.96,31.73 244.08,31.73 244.21,33.73 244.33,33.73 244.46,33.73 244.58,33.73 244.71,31.93 244.83,31.93 244.96,31.93 245.08,31.93 245.21,32.76 245.33,32.76 245.46,32.76 245.58,30.30 245.71,30.30 245.83,32.50 245.96,32.50 246.08,32.00 246.21,32.00 246.33,32.00 246.46,30.62 246.58,30.62 246.71,31.02 246.83,31.02 246.96,31.02 247.08,30.32 247.21,30.32 247.33,30.32 247.46,30.32 247.58,27.17 247.71,30.86 247.83,30.86 247.96,29.02 248.08,29.02 248.21,29.02 248.33,27.83 248.46,27.83 248.58,30.61 248.71,27.67 248.83,27.67 248.96,27.67 249.08,25.33 249.21,27.13 249.34,27.13 249.46,27.13 249.59,29.17 249.71,26.36 249.84,26.36 249.96,26.36 250.09,28.29 250.21,28.29 250.34,25.65 250.46,27.73 250.59,27.73 250.71,27.73 250.84,27.73 250.96,27.70 251.09,25.44 251.21,25.44 251.34,26.30 251.46,26.30 251.59,26.30 251.71,26.30 251.84,27.54 251.96,27.54 252.09,29.25 252.21,29.25 252.34,30.20 252.46,30.20 252.59,30.20 252.71,29.25 252.84,29.25 252.96,29.25 253.09,28.20 253.21,28.20 253.34,28.20 253.46,28.66 253.59,28.66 253.71,28.66 253.84,25.49 253.96,26.77 254.09,26.77 254.21,26.77 254.34,28.89 254.46,25.81 254.59,25.81 254.71,25.81 254.84,28.16 254.96,28.16 255.09,28.16 255.22,28.39 255.34,28.39 255.47,25.27 255.59,22.97 255.72,22.97 255.84,22.97 255.97,22.97 256.09,23.58 256.22,22.65 256.34,22.65 256.47,22.65 256.59,22.65 256.72,23.63 256.84,23.63 256.97,23.63 257.09,22.46 257.22,22.46 257.34,22.46 257.47,23.34 257.59,23.34 257.72,23.34 257.84,23.46 257.97,23.46 258.09,23.46 258.22,20.74 258.34,20.74 258.47,20.74 258.59,21.03 258.72,21.03 258.84,21.03 258.97,21.03 259.09,24.12 259.22,21.14 259.34,21.14 259.47,21.14 259.59,18.48 259.72,22.24 259.84,22.24 259.97,20.39 260.09,20.39 260.22,20.39 260.34,17.85 260.47,20.09 260.59,20.09 260.72,18.34 260.84,18.34 260.97,18.34 261.10,17.11 261.22,20.01 261.35,20.01 261.47,19.29 261.60,19.29 261.72,19.29 261.85,18.85 261.97,18.85 262.10,17.84 262.22,23.21 262.35,23.21 262.47,21.23 262.60,21.23 262.72,21.23 262.85,18.35 262.97,18.35 263.10,22.49 263.22,20.37 263.35,20.37 263.47,20.37 263.60,16.93 263.72,19.60 263.85,19.60 263.97,19.60 264.10,17.53 264.22,17.14 264.35,17.14 264.47,17.44 264.60,17.44 264.72,17.44 264.85,17.19 264.97,17.19 265.10,16.76 265.22,16.76 265.35,16.76 265.47,16.79 265.60,16.79 265.72,17.75 265.85,17.75 265.97,17.75 266.10,17.70 266.22,13.80 266.35,13.92 266.47,13.92 266.60,13.92 266.72,16.08 266.85,16.08 266.98,16.08 267.10,14.66 267.23,14.66 267.35,14.66 267.48,14.21 267.60,14.21 267.73,14.21 267.85,14.28 267.98,14.28 268.10,14.28 268.23,14.27 268.35,14.27 268.48,14.27 268.60,14.27 268.73,14.75 268.85,14.75 268.98,15.32 269.10,11.20 269.23,15.32 269.35,13.21 269.48,13.21 269.60,13.21 269.73,11.21 269.85,11.21 269.98,13.84 270.10,11.15 270.23,11.15 270.35,11.15 270.48,8.34 270.60,10.17 270.73,10.17 270.85,10.17 270.98,7.18 271.10,7.18 271.23,9.39 271.35,7.22 271.48,7.22 271.60,7.22 271.73,8.21 271.85,8.21 271.98,8.21 272.10,11.76 272.23,11.76 272.35,11.76 272.48,7.58 272.60,7.80 272.73,7.80 272.86,7.80 272.98,8.49 273.11,8.49 273.23,8.49 273.36,8.49 273.48,7.78 273.61,7.78 273.73,7.78 273.86,7.78 273.98,6.94 274.11,6.94 274.23,6.94 274.36,6.94 274.48,7.29 274.61,7.29 274.73,9.60 274.86,9.60 274.98,9.60 275.11,8.38 275.23,8.38 275.36,8.38 275.48,8.28 275.61,8.28 275.73,8.28 275.86,8.85 275.98,8.85 276.11,8.85 276.23,8.78 276.36,8.78 276.48,8.78 276.61,8.78 276.73,8.31 276.86,8.31 276.98,8.31 277.11,7.97 277.23,7.97 277.36,8.99 277.48,5.97 277.61,5.97 277.73,8.10 277.86,8.10 277.98,8.10 278.11,8.54 278.23,8.54 278.36,8.54 278.49,5.35 278.61,5.35 278.74,5.32 278.86,5.32 278.99,5.32 279.11,5.32 279.24,6.80 279.36,6.80 279.49,6.09 279.61,6.09 279.74,6.09 279.86,5.48 279.99,5.48 280.11,8.71 280.24,8.13 280.36,8.13 280.49,8.13 280.61,7.10 280.74,7.10 280.86,5.47 280.99,5.47 281.11,9.43 281.24,7.10 281.36,7.10 281.49,7.10 281.61,7.10 281.74,8.35 281.86,8.35 281.99,8.35 282.11,5.74 282.24,8.01 282.36,8.01 282.49,8.01 282.61,6.42 282.74,6.42 282.86,6.42 282.99,5.69 283.11,5.69 283.24,4.84 283.36,4.84 283.49,4.84 283.61,4.79 283.74,4.79 283.86,5.63 283.99,5.63 284.11,5.63 284.24,5.77 284.37,5.77 284.49,5.77 284.62,6.33 284.74,6.33 284.87,7.37 284.99,7.37 285.12,7.37 285.24,8.37 285.37,8.37 285.49,9.06 285.62,9.06 285.74,9.06 285.87,9.52 285.99,9.52 286.12,10.81 286.24,8.94 286.37,8.94 286.49,8.94 286.62,12.31 286.74,11.72 286.87,11.72 286.99,11.72 287.12,9.15 287.24,9.15 287.37,9.15 287.49,12.56 287.62,12.56 287.74,11.43 287.87,11.43 287.99,11.43 288.12,9.89 288.24,9.89 288.37,8.06 288.49,8.06 288.62,12.42 288.74,11.51 288.87,11.51 288.99,10.99 289.12,10.99 289.24,10.99 289.37,10.99 289.49,10.33 289.62,10.45 289.74,10.45 289.87,10.45 289.99,11.02 290.12,11.02 290.25,10.72 290.37,10.72 290.50,10.72 290.62,10.56 290.75,10.56 290.87,10.56 291.00,8.08 291.12,8.08 291.25,8.08 291.37,10.71 291.50,10.71 291.62,10.71 291.75,8.05 291.87,8.05 292.00,5.14 292.12,6.68 292.25,6.68 292.37,6.68 292.50,4.00 292.62,6.11 292.75,6.11 292.87,6.11 293.00,8.53 293.12,8.53 293.25,5.83 293.37,5.83 293.50,7.93 293.62,7.93 293.75,5.09 293.87,5.09 294.00,6.19 294.12,6.19 294.25,6.19 294.37,7.09 294.50,7.09 294.62,4.79 294.75,5.85 294.87,5.85 295.00,5.85 295.12,5.85 295.25,7.54 295.37,7.54 295.50,6.71 295.62,6.71 295.75,9.16 295.87,9.16 296.00,8.11" />
</svg>