<svg width="300" height="60" xmlns="http://www.w3.org/2000/svg">
  <polyline fill="rgba(255,200,0,0.3)" stroke="#ffbb00" stroke-width="2" points="4.00,55.90 4.23,56.00 4.46,55.81 4.69,55.75 4.92,55.74 5.15,55.65 5.38,55.59 5.61,55.56 5.84,55.49 6.07,55.46 6.30,55.46 6.53,55.40 6.75,55.34 6.98,55.30 7.21,55.28 7.44,55.23 7.67,55.18 7.90,55.15 8.13,55.14 8.36,55.07 8.59,55.02 8.82,54.96 9.05,54.94 9.28,54.94 9.51,54.89 9.74,54.86 9.97,54.81 10.20,54.76 10.43,54.72 10.66,54.74 10.89,54.73 11.12,54.66 11.35,54.70 11.58,54.76 11.81,54.72 12.03,54.64 12.26,54.60 12.49,54.61 12.72,54.55 12.95,54.47 13.18,54.47 13.41,54.40 13.64,54.39 13.87,54.35 14.10,54.29 14.33,54.24 14.56,54.21 14.79,54.17 15.02,54.12 15.25,54.09 15.48,54.05 15.71,54.01 15.94,53.97 16.17,53.94 16.40,53.89 16.63,53.84 16.86,53.80 17.08,53.85 17.31,53.82 17.54,53.77 17.77,53.67 18.00,53.60 18.23,53.60 18.46,53.58 18.69,53.42 18.92,53.35 19.15,53.34 19.38,53.32 19.61,53.33 19.84,53.38 20.07,53.36 20.30,53.33 20.53,53.28 20.76,53.23 20.99,53.19 21.22,53.16 21.45,53.12 21.68,53.06 21.91,52.99 22.14,52.97 22.36,52.99 22.59,53.05 22.82,52.86 23.05,52.82 23.28,52.83 23.51,52.81 23.74,52.79 23.97,52.74 24.20,52.69 24.43,52.66 24.66,52.63 24.89,52.58 25.12,52.52 25.35,52.46 25.58,52.38 25.81,52.32 26.04,52.26 26.27,52.23 26.50,52.16 26.73,52.12 26.96,52.12 27.19,52.10 27.42,52.09 27.64,52.04 27.87,51.98 28.10,51.95 28.33,51.92 28.56,51.85 28.79,51.80 29.02,51.73 29.25,51.69 29.48,51.65 29.71,51.61 29.94,51.57 30.17,51.52 30.40,51.49 30.63,51.49 30.86,51.47 31.09,51.42 31.32,51.34 31.55,51.27 31.78,51.21 32.01,51.14 32.24,51.09 32.47,51.03 32.69,50.96 32.92,50.88 33.15,50.78 33.38,50.73 33.61,50.66 33.84,50.57 34.07,50.49 34.30,50.40 34.53,50.34 34.76,50.26 34.99,50.06 35.22,49.97 35.45,49.91 35.68,49.87 35.91,49.85 36.14,49.72 36.37,49.60 36.60,49.46 36.83,49.34 37.06,49.15 37.29,48.90 37.52,48.64 37.75,48.40 37.97,48.23 38.20,47.94 38.43,47.78 38.66,47.58 38.89,47.48 39.12,47.33 39.35,47.12 39.58,47.01 39.81,46.87 40.04,46.67 40.27,46.46 40.50,46.35 40.73,46.18 40.96,46.10 41.19,45.72 41.42,45.55 41.65,45.33 41.88,45.07 42.11,44.95 42.34,44.46 42.57,44.15 42.80,43.92 43.03,43.78 43.25,43.88 43.48,43.38 43.71,43.10 43.94,42.96 44.17,42.76 44.40,42.57 44.63,42.35 44.86,42.16 45.09,41.95 45.32,41.65 45.55,41.61 45.78,41.61 46.01,41.50 46.24,41.34 46.47,41.17 46.70,40.99 46.93,40.85 47.16,40.73 47.39,40.59 47.62,40.46 47.85,40.27 48.08,40.20 48.31,39.99 48.53,39.82 48.76,39.67 48.99,39.50 49.22,39.39 49.45,39.29 49.68,39.23 49.91,39.33 50.14,39.39 50.37,39.38 50.60,39.19 50.83,38.99 51.06,38.85 51.29,38.77 51.52,38.70 51.75,38.65 51.98,38.63 52.21,38.57 52.44,38.50 52.67,38.46 52.90,38.42 53.13,38.49 53.36,38.28 53.58,38.19 53.81,38.19 54.04,38.15 54.27,37.91 54.50,37.61 54.73,37.48 54.96,37.33 55.19,37.20 55.42,37.07 55.65,36.93 55.88,36.77 56.11,36.63 56.34,36.51 56.57,36.38 56.80,36.26 57.03,36.10 57.26,35.94 57.49,35.76 57.72,35.57 57.95,35.39 58.18,35.20 58.41,35.02 58.64,34.82 58.86,34.65 59.09,34.45 59.32,34.27 59.55,34.09 59.78,33.94 60.01,33.86 60.24,33.75 60.47,33.60 60.70,33.40 60.93,33.19 61.16,32.98 61.39,32.64 61.62,32.35 61.85,32.03 62.08,31.95 62.31,31.72 62.54,31.67 62.77,31.56 63.00,31.40 63.23,31.26 63.46,31.07 63.69,30.91 63.92,30.77 64.14,30.66 64.37,30.43 64.60,30.22 64.83,30.01 65.06,29.80 65.29,29.64 65.52,29.72 65.75,29.63 65.98,29.32 66.21,28.96 66.44,28.68 66.67,28.48 66.90,28.29 67.13,28.18 67.36,28.18 67.59,28.19 67.82,27.90 68.05,28.05 68.28,27.77 68.51,27.52 68.74,27.00 68.97,26.62 69.19,26.36 69.42,25.77 69.65,25.54 69.88,25.47 70.11,25.56 70.34,25.57 70.57,25.86 70.80,26.29 71.03,26.12 71.26,25.67 71.49,25.30 71.72,25.01 71.95,24.83 72.18,24.64 72.41,24.27 72.64,24.05 72.87,23.73 73.10,23.70 73.33,23.30 73.56,23.30 73.79,23.10 74.02,22.86 74.25,22.60 74.47,22.39 74.70,22.14 74.93,21.96 75.16,21.63 75.39,21.11 75.62,20.82 75.85,20.13 76.08,20.50 76.31,20.70 76.54,20.60 76.77,20.38 77.00,19.85 77.23,18.80 77.46,18.40 77.69,18.70 77.92,19.35 78.15,20.19 78.38,20.04 78.61,19.99 78.84,20.08 79.07,20.09 79.30,20.05 79.53,19.71 79.75,19.29 79.98,18.71 80.21,18.26 80.44,17.88 80.67,17.76 80.90,17.72 81.13,17.62 81.36,17.48 81.59,17.12 81.82,16.57 82.05,16.07 82.28,15.71 82.51,15.59 82.74,15.51 82.97,15.45 83.20,15.55 83.43,15.50 83.66,15.38 83.89,15.20 84.12,14.79 84.35,14.56 84.58,14.37 84.81,14.13 85.03,13.84 85.26,13.71 85.49,13.63 85.72,13.59 85.95,13.56 86.18,13.44 86.41,13.37 86.64,13.34 86.87,13.37 87.10,13.34 87.33,13.32 87.56,13.31 87.79,13.25 88.02,13.07 88.25,12.85 88.48,12.54 88.71,12.14 88.94,11.70 89.17,11.45 89.40,11.21 89.63,10.85 89.86,10.83 90.08,10.84 90.31,11.18 90.54,11.65 90.77,11.60 91.00,11.55 91.23,11.26 91.46,11.05 91.69,11.06 91.92,11.31 92.15,11.54 92.38,11.54 92.61,11.52 92.84,10.92 93.07,10.32 93.30,9.77 93.53,9.39 93.76,8.99 93.99,8.88 94.22,8.72 94.45,8.77 94.68,8.64 94.91,8.41 95.14,8.16 95.36,7.92 95.59,7.75 95.82,7.60 96.05,7.45 96.28,7.30 96.51,7.20 96.74,7.19 96.97,7.32 97.20,7.41 97.43,7.55 97.66,7.71 97.89,7.54 98.12,7.08 98.35,6.69 98.58,6.27 98.81,5.72 99.04,5.38 99.27,5.03 99.50,4.72 99.73,4.52 99.96,4.57 100.19,4.60 100.42,4.64 100.64,4.86 100.87,5.06 101.10,5.11 101.33,4.91 101.56,55.91 101.79,55.96 102.02,55.81 102.25,55.79 102.48,55.76 102.71,55.68 102.94,55.63 103.17,55.56 103.40,55.53 103.63,55.47 103.86,55.45 104.09,55.40 104.32,55.35 104.55,55.30 104.78,55.26 105.01,55.20 105.24,55.20 105.47,55.16 105.69,55.12 105.92,55.09 106.15,55.06 106.38,54.99 106.61,54.98 106.84,54.95 107.07,54.90 107.30,54.87 107.53,54.83 107.76,54.79 107.99,54.75 108.22,54.74 108.45,54.71 108.68,54.68 108.91,54.69 109.14,54.73 109.37,54.68 109.60,54.66 109.83,54.62 110.06,54.59 110.29,54.56 110.52,54.49 110.75,54.45 110.97,54.40 111.20,54.36 111.43,54.32 111.66,54.27 111.89,54.24 112.12,54.21 112.35,54.16 112.58,54.10 112.81,54.10 113.04,54.05 113.27,54.00 113.50,53.97 113.73,53.94 113.96,53.89 114.19,53.84 114.42,53.86 114.65,53.85 114.88,53.81 115.11,53.74 115.34,53.65 115.57,53.70 115.80,53.63 116.03,53.54 116.25,53.44 116.48,53.46 116.71,53.37 116.94,53.31 117.17,53.39 117.40,53.39 117.63,53.32 117.86,53.43 118.09,53.32 118.32,53.22 118.55,53.31 118.78,53.23 119.01,53.15 119.24,53.06 119.47,53.16 119.70,53.12 119.93,53.09 120.16,52.97 120.39,52.80 120.62,52.83 120.85,52.79 121.08,52.80 121.31,52.80 121.53,52.75 121.76,52.70 121.99,52.65 122.22,52.58 122.45,52.55 122.68,52.51 122.91,52.44 123.14,52.37 123.37,52.30 123.60,52.24 123.83,52.16 124.06,52.17 124.29,52.09 124.52,52.16 124.75,52.13 124.98,52.06 125.21,52.01 125.44,51.96 125.67,51.91 125.90,51.85 126.13,51.79 126.36,51.73 126.58,51.67 126.81,51.67 127.04,51.64 127.27,51.60 127.50,51.56 127.73,51.54 127.96,51.51 128.19,51.49 128.42,51.50 128.65,51.43 128.88,51.36 129.11,51.29 129.34,51.21 129.57,51.12 129.80,51.05 130.03,50.99 130.26,50.92 130.49,50.84 130.72,50.76 130.95,50.70 131.18,50.62 131.41,50.52 131.64,50.45 131.86,50.42 132.09,50.36 132.32,50.26 132.55,50.17 132.78,50.04 133.01,49.90 133.24,49.86 133.47,49.82 133.70,49.74 133.93,49.63 134.16,49.52 134.39,49.30 134.62,49.15 134.85,48.93 135.08,48.68 135.31,48.39 135.54,48.16 135.77,47.84 136.00,47.74 136.23,47.48 136.46,47.24 136.69,47.37 136.92,46.97 137.14,46.95 137.37,46.96 137.60,46.58 137.83,46.61 138.06,46.22 138.29,46.29 138.52,45.90 138.75,45.90 138.98,45.30 139.21,45.28 139.44,45.34 139.67,44.67 139.90,44.60 140.13,43.86 140.36,43.89 140.59,44.00 140.82,44.05 141.05,43.77 141.28,43.39 141.51,43.09 141.74,42.99 141.97,42.47 142.19,42.31 142.42,42.04 142.65,41.78 142.88,41.66 143.11,41.68 143.34,41.52 143.57,41.52 143.80,41.48 144.03,41.22 144.26,40.86 144.49,40.78 144.72,40.72 144.95,40.70 145.18,40.49 145.41,40.29 145.64,40.07 145.87,39.85 146.10,39.78 146.33,39.57 146.56,39.57 146.79,39.38 147.02,39.40 147.25,39.23 147.47,39.25 147.70,39.46 147.93,39.29 148.16,39.29 148.39,39.02 148.62,38.95 148.85,38.80 149.08,38.76 149.31,38.64 149.54,38.56 149.77,38.54 150.00,38.51 150.23,38.47 150.46,38.39 150.69,38.25 150.92,38.72 151.15,38.37 151.38,38.51 151.61,38.17 151.84,38.30 152.07,37.57 152.30,37.57 152.53,37.55 152.75,36.96 152.98,36.99 153.21,37.03 153.44,36.81 153.67,36.73 153.90,36.58 154.13,36.25 154.36,36.28 154.59,36.12 154.82,35.76 155.05,35.66 155.28,35.26 155.51,35.64 155.74,35.22 155.97,34.77 156.20,34.83 156.43,34.40 156.66,34.59 156.89,34.25 157.12,33.99 157.35,33.87 157.58,33.82 157.81,33.67 158.03,33.39 158.26,33.37 158.49,33.08 158.72,32.77 158.95,32.47 159.18,32.24 159.41,32.24 159.64,32.17 159.87,31.91 160.10,31.84 160.33,31.47 160.56,31.38 160.79,31.14 161.02,31.26 161.25,30.99 161.48,30.99 161.71,30.72 161.94,30.35 162.17,30.41 162.40,29.90 162.63,29.98 162.86,29.78 163.08,29.78 163.31,29.61 163.54,29.26 163.77,29.38 164.00,28.81 164.23,28.46 164.46,28.37 164.69,27.87 164.92,28.67 165.15,28.95 165.38,28.06 165.61,28.00 165.84,27.67 166.07,28.00 166.30,26.90 166.53,26.75 166.76,25.86 166.99,25.86 167.22,25.94 167.45,25.28 167.68,25.61 167.91,25.97 168.14,25.74 168.36,26.31 168.59,26.80 168.82,25.91 169.05,25.54 169.28,25.36 169.51,25.27 169.74,24.49 169.97,24.35 170.20,23.72 170.43,24.32 170.66,24.49 170.89,23.92 171.12,23.06 171.35,22.74 171.58,22.49 171.81,22.26 172.04,22.08 172.27,21.95 172.50,21.48 172.73,21.02 172.96,20.32 173.19,20.36 173.42,21.01 173.64,20.90 173.87,21.02 174.10,21.02 174.33,19.96 174.56,19.51 174.79,19.08 175.02,18.64 175.25,19.76 175.48,20.36 175.71,19.77 175.94,19.91 176.17,19.91 176.40,20.02 176.63,19.70 176.86,20.22 177.09,19.55 177.32,18.41 177.55,17.97 177.78,17.82 178.01,17.82 178.24,18.11 178.47,17.57 178.69,17.76 178.92,16.89 179.15,16.39 179.38,15.80 179.61,15.80 179.84,15.49 180.07,15.65 180.30,15.56 180.53,15.44 180.76,15.27 180.99,15.76 181.22,15.50 181.45,15.23 181.68,14.69 181.91,14.47 182.14,14.28 182.37,14.14 182.60,14.05 182.83,13.51 183.06,13.61 183.29,13.70 183.52,13.43 183.75,13.62 183.97,13.53 184.20,13.15 184.43,13.12 184.66,13.58 184.89,13.14 185.12,13.13 185.35,12.95 185.58,13.22 185.81,12.54 186.04,12.01 186.27,12.09 186.50,11.56 186.73,11.21 186.96,10.74 187.19,10.71 187.42,10.71 187.65,11.05 187.88,11.08 188.11,11.66 188.34,11.10 188.57,11.48 188.80,11.04 189.03,10.86 189.25,10.89 189.48,10.96 189.71,10.93 189.94,10.69 190.17,10.20 190.40,9.67 190.63,9.86 190.86,9.33 191.09,9.33 191.32,8.93 191.55,9.02 191.78,8.95 192.01,8.53 192.24,8.27 192.47,8.34 192.70,7.93 192.93,7.91 193.16,7.92 193.39,7.35 193.62,7.36 193.85,7.40 194.08,7.71 194.31,7.26 194.53,7.49 194.76,7.78 194.99,8.20 195.22,7.41 195.45,7.38 195.68,7.25 195.91,6.13 196.14,5.95 196.37,5.24 196.60,5.17 196.83,4.71 197.06,4.71 197.29,4.47 197.52,4.50 197.75,4.68 197.98,4.68 198.21,4.96 198.44,5.21 198.67,4.68 198.90,55.85 199.13,55.79 199.36,55.79 199.58,55.79 199.81,55.79 200.04,55.58 200.27,55.58 200.50,55.58 200.73,55.58 200.96,55.41 201.19,55.41 201.42,55.41 201.65,55.14 201.88,55.14 202.11,55.14 202.34,54.66 202.57,54.66 202.80,54.66 203.03,55.11 203.26,54.89 203.49,54.89 203.72,54.89 203.95,54.49 204.18,54.49 204.41,54.49 204.64,54.21 204.86,54.21 205.09,54.21 205.32,53.93 205.55,54.70 205.78,54.70 206.01,54.61 206.24,54.61 206.47,54.61 206.70,54.67 206.93,54.57 207.16,54.57 207.39,54.57 207.62,54.57 207.85,54.41 208.08,54.41 208.31,54.41 208.54,54.27 208.77,54.27 209.00,54.28 209.23,54.13 209.46,54.13 209.69,54.13 209.92,53.99 210.14,53.99 210.37,53.99 210.60,53.99 210.83,53.90 211.06,53.90 211.29,53.90 211.52,53.82 211.75,53.82 211.98,53.82 212.21,53.67 212.44,53.67 212.67,53.67 212.90,53.61 213.13,53.61 213.36,53.61 213.59,53.48 213.82,53.48 214.05,53.48 214.28,53.33 214.51,53.33 214.74,53.33 214.97,53.33 215.19,53.30 215.42,53.30 215.65,53.30 215.88,53.19 216.11,53.19 216.34,53.19 216.57,53.04 216.80,53.04 217.03,53.04 217.26,52.82 217.49,52.82 217.72,52.82 217.95,52.81 218.18,52.81 218.41,52.81 218.64,52.81 218.87,52.62 219.10,52.62 219.33,52.62 219.56,52.41 219.79,52.46 220.02,52.46 220.25,52.33 220.47,52.33 220.70,52.33 220.93,52.18 221.16,52.18 221.39,52.18 221.62,52.02 221.85,52.02 222.08,52.05 222.31,52.05 222.54,51.90 222.77,51.90 223.00,51.90 223.23,51.73 223.46,51.73 223.69,51.73 223.92,51.59 224.15,51.59 224.38,51.59 224.61,51.59 224.84,51.56 225.07,51.56 225.30,51.56 225.53,51.41 225.75,51.41 225.98,51.41 226.21,51.21 226.44,51.21 226.67,51.21 226.90,50.99 227.13,50.99 227.36,50.99 227.59,50.77 227.82,50.77 228.05,50.77 228.28,50.58 228.51,50.58 228.74,50.58 228.97,50.48 229.20,50.30 229.43,50.30 229.66,50.30 229.89,50.30 230.12,50.09 230.35,49.98 230.58,49.76 230.81,49.76 231.03,49.76 231.26,49.50 231.49,49.50 231.72,49.17 231.95,49.17 232.18,49.31 232.41,48.65 232.64,48.65 232.87,48.65 233.10,47.69 233.33,48.02 233.56,48.02 233.79,47.28 234.02,47.28 234.25,47.28 234.48,46.96 234.71,46.96 234.94,46.04 235.17,45.74 235.40,45.74 235.63,45.74 235.86,45.85 236.08,45.85 236.31,44.31 236.54,44.07 236.77,44.07 237.00,43.95 237.23,43.95 237.46,43.95 237.69,43.92 237.92,43.92 238.15,43.92 238.38,43.66 238.61,43.66 238.84,43.66 239.07,42.57 239.30,42.57 239.53,42.78 239.76,42.78 239.99,42.78 240.22,42.09 240.45,42.09 240.68,42.09 240.91,42.09 241.14,41.52 241.36,41.52 241.59,40.88 241.82,40.88 242.05,40.88 242.28,40.75 242.51,39.98 242.74,39.98 242.97,39.98 243.20,39.46 243.43,39.65 243.66,39.65 243.89,39.65 244.12,39.18 244.35,39.18 244.58,39.18 244.81,39.25 245.04,39.22 245.27,39.22 245.50,39.22 245.73,39.14 245.96,39.14 246.19,39.23 246.42,38.82 246.64,38.82 246.87,38.51 247.10,38.51 247.33,38.51 247.56,38.23 247.79,38.23 248.02,38.23 248.25,37.74 248.48,37.74 248.71,39.41 248.94,37.77 249.17,37.77 249.40,37.77 249.63,38.29 249.86,38.29 250.09,38.29 250.32,38.16 250.55,38.16 250.78,36.56 251.01,37.10 251.24,37.10 251.47,35.70 251.69,35.70 251.92,35.70 252.15,35.70 252.38,34.96 252.61,34.96 252.84,34.96 253.07,34.96 253.30,33.91 253.53,33.91 253.76,33.91 253.99,34.17 254.22,34.17 254.45,34.17 254.68,33.69 254.91,33.69 255.14,33.69 255.37,32.78 255.60,33.93 255.83,33.93 256.06,33.26 256.29,33.26 256.52,33.26 256.75,33.26 256.97,33.69 257.20,32.28 257.43,32.28 257.66,32.28 257.89,31.75 258.12,31.75 258.35,31.75 258.58,32.39 258.81,32.39 259.04,30.84 259.27,30.84 259.50,31.12 259.73,31.12 259.96,31.12 260.19,30.36 260.42,30.36 260.65,30.36 260.88,30.36 261.11,31.36 261.34,29.73 261.57,29.73 261.80,29.73 262.03,28.03 262.25,30.38 262.48,30.38 262.71,30.38 262.94,27.96 263.17,28.83 263.40,28.83 263.63,28.83 263.86,28.60 264.09,25.96 264.32,25.96 264.55,25.96 264.78,26.82 265.01,26.82 265.24,26.82 265.47,28.45 265.70,28.45 265.93,28.45 266.16,25.96 266.39,27.69 266.62,27.69 266.85,25.30 267.08,25.30 267.31,27.39 267.53,25.23 267.76,25.23 267.99,25.23 268.22,25.23 268.45,23.57 268.68,23.57 268.91,22.50 269.14,22.50 269.37,22.50 269.60,21.90 269.83,21.90 270.06,20.76 270.29,20.76 270.52,23.46 270.75,23.46 270.98,21.03 271.21,23.61 271.44,23.61 271.67,21.78 271.90,21.78 272.13,21.78 272.36,19.76 272.58,19.76 272.81,19.76 273.04,18.32 273.27,20.61 273.50,20.61 273.73,20.61 273.96,17.59 274.19,19.04 274.42,19.04 274.65,19.04 274.88,16.70 275.11,19.01 275.34,19.01 275.57,19.01 275.80,16.89 276.03,16.89 276.26,16.89 276.49,15.78 276.72,15.78 276.95,15.78 277.18,15.91 277.41,15.91 277.64,15.68 277.86,15.68 278.09,15.68 278.32,17.20 278.55,17.20 278.78,17.20 279.01,16.22 279.24,16.22 279.47,15.45 279.70,15.45 279.93,15.45 280.16,13.55 280.39,13.55 280.62,13.74 280.85,13.74 281.08,13.74 281.31,14.40 281.54,13.21 281.77,13.21 282.00,13.21 282.23,13.21 282.46,13.10 282.69,13.10 282.92,13.10 283.14,13.10 283.37,12.02 283.60,12.02 283.83,12.02 284.06,12.21 284.29,10.81 284.52,10.81 284.75,10.81 284.98,10.81 285.21,9.84 285.44,11.79 285.67,11.79 285.90,10.75 286.13,10.75 286.36,10.75 286.59,10.04 286.82,10.04 287.05,10.04 287.28,9.62 287.51,9.62 287.74,9.62 287.97,8.51 288.19,8.51 288.42,8.51 288.65,8.51 288.88,9.12 289.11,9.12 289.34,9.12 289.57,8.71 289.80,8.53 290.03,8.53 290.26,8.53 290.49,8.77 290.72,8.77 290.95,8.77 291.18,9.04 291.41,9.04 291.64,7.39 291.87,7.39 292.10,7.39 292.33,8.21 292.56,8.21 292.79,8.21 293.02,8.40 293.25,8.40 293.47,7.56 293.70,5.40 293.93,5.40 294.16,5.20 294.39,5.20 294.62,5.20 294.85,4.00 295.08,4.89 295.31,4.89 295.54,4.89 295.77,4.34 296.00,4.34" />
</svg>