<svg width="300" height="60" xmlns="http://www.w3.org/2000/svg">
  <polyline fill="rgba(255,200,0,0.3)" stroke="#ffbb00" stroke-width="2" points="4.00,55.01 4.12,55.25 4.24,55.22 4.37,55.15 4.49,55.24 4.61,55.29 4.73,55.07 4.86,55.07 4.98,55.14 5.10,55.22 5.22,55.61 5.35,55.61 5.47,55.46 5.59,55.11 5.71,54.88 5.83,54.65 5.96,54.46 6.08,54.27 6.20,54.11 6.32,54.51 6.45,54.01 6.57,53.54 6.69,53.33 6.81,52.95 6.93,52.80 7.06,52.61 7.18,52.20 7.30,51.89 7.42,51.68 7.55,51.35 7.67,50.91 7.79,50.81 7.91,50.64 8.04,50.29 8.16,50.02 8.28,49.66 8.40,49.28 8.52,48.90 8.65,48.73 8.77,48.76 8.89,48.79 9.01,48.92 9.14,48.56 9.26,49.09 9.38,48.65 9.50,48.25 9.62,47.61 9.75,47.36 9.87,46.75 9.99,45.64 10.11,45.23 10.24,44.70 10.36,44.41 10.48,43.61 10.60,42.22 10.73,41.48 10.85,40.73 10.97,40.24 11.09,38.04 11.21,37.89 11.34,37.87 11.46,37.82 11.58,37.65 11.70,37.49 11.83,37.31 11.95,37.54 12.07,38.03 12.19,24.10 12.31,24.00 12.44,23.77 12.56,23.58 12.68,23.28 12.80,22.63 12.93,22.27 13.05,22.18 13.17,22.31 13.29,22.21 13.42,22.47 13.54,22.37 13.66,22.26 13.78,21.98 13.90,21.45 14.03,21.12 14.15,20.67 14.27,20.38 14.39,20.09 14.52,19.87 14.64,19.44 14.76,18.75 14.88,18.42 15.01,18.07 15.13,17.81 15.25,17.58 15.37,17.38 15.49,17.39 15.62,17.57 15.74,17.47 15.86,17.25 15.98,16.94 16.11,16.80 16.23,16.61 16.35,16.32 16.47,16.54 16.59,16.52 16.72,15.49 16.84,14.21 16.96,12.82 17.08,11.70 17.21,10.66 17.33,9.86 17.45,9.86 17.57,10.55 17.70,11.89 17.82,13.19 17.94,13.95 18.06,13.93 18.18,13.72 18.31,13.34 18.43,12.82 18.55,12.59 18.67,12.35 18.80,12.30 18.92,12.09 19.04,11.78 19.16,11.56 19.28,11.40 19.41,11.13 19.53,10.87 19.65,10.57 19.77,10.42 19.90,10.22 20.02,9.95 20.14,9.69 20.26,9.60 20.39,9.67 20.51,9.74 20.63,10.13 20.75,10.00 20.87,9.56 21.00,9.00 21.12,8.51 21.24,7.88 21.36,7.13 21.49,6.67 21.61,6.45 21.73,6.20 21.85,6.21 21.97,6.07 22.10,6.08 22.22,6.10 22.34,6.43 22.46,7.94 22.59,8.55 22.71,9.56 22.83,8.75 22.95,8.89 23.08,8.49 23.20,7.06 23.32,6.58 23.44,6.55 23.56,6.90 23.69,7.22 23.81,7.73 23.93,8.14 24.05,8.44 24.18,8.55 24.30,8.76 24.42,9.24 24.54,9.25 24.66,9.68 24.79,9.97 24.91,10.10 25.03,10.16 25.15,10.39 25.28,10.59 25.40,10.71 25.52,10.08 25.64,9.91 25.77,9.67 25.89,9.42 26.01,8.93 26.13,8.45 26.25,8.25 26.38,8.80 26.50,10.18 26.62,11.79 26.74,12.18 26.87,11.87 26.99,11.41 27.11,11.21 27.23,10.45 27.36,9.95 27.48,9.74 27.60,9.57 27.72,9.82 27.84,9.93 27.97,10.06 28.09,10.49 28.21,10.87 28.33,11.04 28.46,11.25 28.58,11.28 28.70,11.06 28.82,10.67 28.94,10.38 29.07,10.39 29.19,10.73 29.31,11.31 29.43,11.57 29.56,11.92 29.68,12.10 29.80,12.05 29.92,12.13 30.05,12.56 30.17,13.32 30.29,12.72 30.41,12.40 30.53,12.41 30.66,12.51 30.78,12.77 30.90,13.66 31.02,14.62 31.15,14.23 31.27,13.20 31.39,11.22 31.51,10.71 31.63,10.51 31.76,10.50 31.88,10.29 32.00,10.47 32.12,10.58 32.25,10.84 32.37,10.93 32.49,11.12 32.61,11.46 32.74,11.66 32.86,11.52 32.98,11.48 33.10,11.74 33.22,12.51 33.35,13.51 33.47,13.70 33.59,13.64 33.71,13.51 33.84,13.11 33.96,12.92 34.08,12.91 34.20,13.36 34.32,14.16 34.45,15.37 34.57,15.02 34.69,14.53 34.81,13.73 34.94,13.30 35.06,12.93 35.18,13.11 35.30,13.13 35.43,13.23 35.55,13.41 35.67,13.38 35.79,13.59 35.91,15.12 36.04,15.87 36.16,15.39 36.28,14.05 36.40,12.42 36.53,11.25 36.65,10.38 36.77,9.91 36.89,10.10 37.02,10.35 37.14,10.55 37.26,10.58 37.38,10.69 37.50,10.60 37.63,10.55 37.75,10.38 37.87,10.12 37.99,9.87 38.12,9.80 38.24,9.78 38.36,10.01 38.48,10.29 38.60,10.32 38.73,10.36 38.85,9.84 38.97,9.55 39.09,9.46 39.22,9.86 39.34,10.34 39.46,10.48 39.58,10.30 39.71,10.07 39.83,10.27 39.95,10.32 40.07,10.57 40.19,10.58 40.32,10.70 40.44,11.99 40.56,13.02 40.68,14.95 40.81,15.03 40.93,12.75 41.05,11.05 41.17,9.26 41.29,8.43 41.42,8.78 41.54,10.11 41.66,12.41 41.78,13.17 41.91,13.31 42.03,13.14 42.15,13.17 42.27,13.23 42.40,13.16 42.52,12.99 42.64,12.54 42.76,12.61 42.88,12.79 43.01,12.79 43.13,12.86 43.25,13.05 43.37,13.35 43.50,14.00 43.62,15.14 43.74,15.17 43.86,16.37 43.98,16.90 44.11,16.27 44.23,16.12 44.35,15.73 44.47,15.84 44.60,15.73 44.72,15.16 44.84,14.83 44.96,14.28 45.09,14.23 45.21,14.53 45.33,14.88 45.45,15.19 45.57,15.13 45.70,15.70 45.82,16.03 45.94,15.92 46.06,16.39 46.19,16.84 46.31,18.21 46.43,19.12 46.55,19.19 46.68,18.21 46.80,17.36 46.92,17.31 47.04,16.35 47.16,16.21 47.29,16.73 47.41,17.43 47.53,17.88 47.65,17.97 47.78,18.14 47.90,18.75 48.02,18.86 48.14,18.38 48.26,18.24 48.39,16.98 48.51,16.05 48.63,16.15 48.75,16.48 48.88,18.63 49.00,19.84 49.12,21.50 49.24,20.48 49.37,19.33 49.49,18.55 49.61,17.88 49.73,17.39 49.85,16.33 49.98,15.81 50.10,16.57 50.22,17.28 50.34,16.68 50.47,16.34 50.59,16.50 50.71,17.21 50.83,18.97 50.95,17.76 51.08,17.10 51.20,17.80 51.32,17.53 51.44,17.41 51.57,17.68 51.69,17.65 51.81,17.15 51.93,16.63 52.06,16.06 52.18,15.80 52.30,16.22 52.42,17.17 52.54,18.27 52.67,18.54 52.79,18.73 52.91,19.81 53.03,20.25 53.16,20.51 53.28,20.91 53.40,21.01 53.52,21.06 53.64,21.12 53.77,20.77 53.89,19.84 54.01,19.40 54.13,19.23 54.26,19.41 54.38,19.62 54.50,20.55 54.62,22.27 54.75,22.09 54.87,21.18 54.99,21.12 55.11,21.31 55.23,22.29 55.36,21.63 55.48,20.94 55.60,22.44 55.72,23.12 55.85,24.25 55.97,23.86 56.09,23.32 56.21,22.09 56.34,21.77 56.46,21.65 56.58,21.60 56.70,21.50 56.82,21.20 56.95,21.20 57.07,21.36 57.19,21.48 57.31,21.68 57.44,21.55 57.56,21.33 57.68,20.72 57.80,19.97 57.92,19.82 58.05,19.56 58.17,18.99 58.29,18.43 58.41,17.92 58.54,17.24 58.66,16.98 58.78,17.00 58.90,17.55 59.03,17.64 59.15,17.64 59.27,17.69 59.39,17.84 59.51,17.62 59.64,17.40 59.76,17.21 59.88,17.01 60.00,16.85 60.13,16.82 60.25,16.68 60.37,16.03 60.49,15.35 60.61,14.67 60.74,14.67 60.86,15.16 60.98,15.17 61.10,15.03 61.23,14.56 61.35,14.05 61.47,14.09 61.59,14.14 61.72,14.04 61.84,13.78 61.96,13.50 62.08,13.42 62.20,13.43 62.33,13.50 62.45,13.72 62.57,13.57 62.69,13.46 62.82,13.33 62.94,13.22 63.06,13.07 63.18,13.06 63.30,13.18 63.43,13.57 63.55,14.01 63.67,14.94 63.79,14.96 63.92,14.67 64.04,14.30 64.16,13.98 64.28,14.34 64.41,14.70 64.53,15.06 64.65,15.54 64.77,15.76 64.89,16.73 65.02,17.31 65.14,17.56 65.26,17.00 65.38,16.66 65.51,16.43 65.63,16.87 65.75,17.53 65.87,18.08 65.99,18.66 66.12,17.92 66.24,16.58 66.36,14.62 66.48,13.81 66.61,13.12 66.73,13.33 66.85,13.61 66.97,13.49 67.10,13.33 67.22,13.21 67.34,12.98 67.46,13.10 67.58,13.41 67.71,14.30 67.83,15.48 67.95,16.41 68.07,16.30 68.20,16.18 68.32,16.25 68.44,16.82 68.56,17.18 68.69,17.80 68.81,18.35 68.93,18.56 69.05,42.22 69.17,41.48 69.30,40.73 69.42,40.23 69.54,40.08 69.66,40.45 69.79,42.01 69.91,43.36 70.03,41.98 70.15,41.39 70.27,39.74 70.40,39.15 70.52,38.62 70.64,38.28 70.76,38.04 70.89,37.89 71.01,37.31 71.13,37.54 71.25,38.03 71.38,37.85 71.50,37.76 71.62,37.75 71.74,38.01 71.86,38.04 71.99,37.85 72.11,37.47 72.23,36.88 72.35,36.44 72.48,35.98 72.60,35.77 72.72,35.65 72.84,35.76 72.96,35.57 73.09,35.87 73.21,35.63 73.33,35.32 73.45,35.00 73.58,34.90 73.70,34.17 73.82,34.07 73.94,33.47 74.07,32.97 74.19,32.49 74.31,32.19 74.43,31.74 74.55,31.28 74.68,30.76 74.80,30.38 74.92,30.23 75.04,30.18 75.17,30.46 75.29,29.58 75.41,28.89 75.53,28.71 75.65,28.46 75.78,28.23 75.90,28.00 76.02,28.26 76.14,28.59 76.27,28.93 76.39,29.72 76.51,29.03 76.63,28.72 76.76,28.87 76.88,28.25 77.00,27.38 77.12,27.75 77.24,28.50 77.37,26.88 77.49,26.55 77.61,26.56 77.73,26.77 77.86,26.99 77.98,27.23 78.10,27.01 78.22,26.94 78.35,26.52 78.47,26.15 78.59,25.94 78.71,25.36 78.83,25.19 78.96,24.72 79.08,24.35 79.20,24.19 79.32,24.07 79.45,24.12 79.57,24.47 79.69,24.29 79.81,24.23 79.93,24.09 80.06,24.00 80.18,55.29 80.30,55.43 80.42,55.48 80.55,55.36 80.67,55.47 80.79,55.44 80.91,55.40 81.04,55.29 81.16,55.37 81.28,55.49 81.40,56.00 81.52,55.98 81.65,55.64 81.77,55.35 81.89,55.06 82.01,54.87 82.14,54.73 82.26,54.43 82.38,54.28 82.50,54.62 82.62,54.19 82.75,53.80 82.87,53.50 82.99,53.21 83.11,53.05 83.24,52.91 83.36,52.28 83.48,52.01 83.60,51.73 83.73,51.41 83.85,51.10 83.97,50.92 84.09,50.23 84.21,50.16 84.34,50.16 84.46,49.89 84.58,49.38 84.70,49.11 84.83,48.91 84.95,49.14 85.07,49.25 85.19,49.23 85.31,48.95 85.44,49.06 85.56,49.15 85.68,48.02 85.80,47.57 85.93,47.39 86.05,46.81 86.17,45.65 86.29,45.50 86.42,44.93 86.54,44.53 86.66,43.39 86.78,42.19 86.90,41.88 87.03,41.00 87.15,40.41 87.27,40.22 87.39,41.28 87.52,42.28 87.64,43.37 87.76,42.29 87.88,41.66 88.01,39.78 88.13,39.42 88.25,38.72 88.37,38.53 88.49,38.09 88.62,38.23 88.74,38.23 88.86,37.91 88.98,37.77 89.11,37.55 89.23,37.45 89.35,37.60 89.47,38.06 89.59,38.03 89.72,37.84 89.84,37.94 89.96,38.30 90.08,38.50 90.21,37.95 90.33,37.26 90.45,37.25 90.57,36.45 90.70,35.99 90.82,35.99 90.94,35.61 91.06,35.84 91.18,36.00 91.31,35.72 91.43,35.78 91.55,35.57 91.67,34.86 91.80,34.92 91.92,34.60 92.04,34.05 92.16,33.85 92.28,32.98 92.41,32.75 92.53,32.14 92.65,31.98 92.77,31.18 92.90,31.06 93.02,30.48 93.14,30.58 93.26,30.45 93.39,30.67 93.51,29.61 93.63,29.12 93.75,28.84 93.87,28.54 94.00,28.61 94.12,28.20 94.24,28.55 94.36,28.82 94.49,29.23 94.61,29.47 94.73,29.15 94.85,28.78 94.97,29.01 95.10,28.21 95.22,27.64 95.34,28.13 95.46,28.34 95.59,27.44 95.71,26.75 95.83,26.75 95.95,26.94 96.08,27.35 96.20,27.48 96.32,27.25 96.44,27.12 96.56,26.52 96.69,26.22 96.81,26.05 96.93,25.86 97.05,25.58 97.18,25.05 97.30,24.40 97.42,24.39 97.54,24.16 97.66,24.37 97.79,24.59 97.91,24.36 98.03,24.46 98.15,24.30 98.28,24.25 98.40,23.99 98.52,23.84 98.64,23.29 98.77,22.74 98.89,22.63 99.01,22.40 99.13,22.48 99.25,22.41 99.38,22.56 99.50,22.44 99.62,22.41 99.74,22.02 99.87,21.58 99.99,21.21 100.11,21.05 100.23,20.59 100.36,20.28 100.48,20.10 100.60,19.59 100.72,18.92 100.84,18.59 100.97,18.21 101.09,17.93 101.21,17.97 101.33,17.79 101.46,17.45 101.58,17.47 101.70,17.48 101.82,17.32 101.94,17.15 102.07,17.11 102.19,17.03 102.31,16.87 102.43,17.25 102.56,16.84 102.68,15.79 102.80,14.46 102.92,12.76 103.05,11.57 103.17,10.72 103.29,10.21 103.41,9.98 103.53,10.58 103.66,12.16 103.78,13.24 103.90,14.03 104.02,14.07 104.15,13.90 104.27,13.56 104.39,13.39 104.51,12.77 104.63,12.63 104.76,12.63 104.88,12.26 105.00,12.06 105.12,11.85 105.25,11.64 105.37,11.34 105.49,10.90 105.61,10.96 105.74,10.59 105.86,10.50 105.98,10.12 106.10,10.06 106.22,9.93 106.35,9.78 106.47,9.85 106.59,10.34 106.71,10.12 106.84,9.86 106.96,9.37 107.08,8.46 107.20,7.84 107.32,7.44 107.45,6.77 107.57,6.64 107.69,6.39 107.81,6.55 107.94,6.39 108.06,6.44 108.18,6.41 108.30,6.93 108.43,8.23 108.55,8.93 108.67,9.62 108.79,9.05 108.91,9.32 109.04,8.77 109.16,7.46 109.28,6.76 109.40,6.61 109.53,7.05 109.65,7.51 109.77,7.79 109.89,8.20 110.02,8.48 110.14,8.79 110.26,8.91 110.38,9.26 110.50,9.33 110.63,9.92 110.75,10.22 110.87,10.26 110.99,10.44 111.12,11.05 111.24,10.82 111.36,11.13 111.48,10.53 111.60,9.77 111.73,9.88 111.85,9.68 111.97,9.16 112.09,8.56 112.22,8.49 112.34,9.10 112.46,10.79 112.58,12.01 112.71,12.32 112.83,11.71 112.95,11.77 113.07,11.37 113.19,10.50 113.32,9.84 113.44,10.15 113.56,10.21 113.68,10.42 113.81,9.97 113.93,10.36 114.05,10.73 114.17,11.03 114.29,11.31 114.42,11.52 114.54,11.54 114.66,11.34 114.78,10.87 114.91,10.68 115.03,10.57 115.15,11.08 115.27,11.24 115.40,11.63 115.52,12.01 115.64,12.27 115.76,12.40 115.88,12.44 116.01,12.69 116.13,13.33 116.25,13.02 116.37,12.85 116.50,12.70 116.62,13.00 116.74,13.07 116.86,13.81 116.98,14.72 117.11,14.36 117.23,13.41 117.35,11.37 117.47,10.71 117.60,10.61 117.72,10.91 117.84,10.56 117.96,10.51 118.09,10.90 118.21,11.07 118.33,11.26 118.45,11.40 118.57,11.65 118.70,11.93 118.82,11.76 118.94,11.72 119.06,12.10 119.19,12.68 119.31,13.56 119.43,13.85 119.55,13.81 119.68,13.73 119.80,13.44 119.92,13.29 120.04,13.27 120.16,13.49 120.29,14.23 120.41,15.62 120.53,15.18 120.65,14.86 120.78,13.84 120.90,13.75 121.02,13.29 121.14,13.49 121.26,13.30 121.39,13.49 121.51,13.70 121.63,13.65 121.75,14.00 121.88,15.50 122.00,15.89 122.12,15.49 122.24,14.32 122.37,12.62 122.49,11.21 122.61,10.40 122.73,10.31 122.85,10.43 122.98,10.90 123.10,10.59 123.22,10.91 123.34,11.01 123.47,10.97 123.59,10.93 123.71,10.62 123.83,10.15 123.95,10.04 124.08,9.90 124.20,9.93 124.32,10.20 124.44,10.69 124.57,10.70 124.69,10.52 124.81,9.95 124.93,10.13 125.06,9.78 125.18,9.99 125.30,10.28 125.42,11.01 125.54,10.82 125.67,10.39 125.79,10.49 125.91,10.65 126.03,10.61 126.16,10.68 126.28,11.12 126.40,12.44 126.52,13.37 126.64,15.56 126.77,15.05 126.89,12.94 127.01,10.90 127.13,9.05 127.26,8.48 127.38,8.59 127.50,10.34 127.62,12.62 127.75,13.39 127.87,13.46 127.99,13.34 128.11,13.31 128.23,13.26 128.36,13.53 128.48,13.28 128.60,12.67 128.72,12.60 128.85,12.95 128.97,13.12 129.09,13.00 129.21,13.06 129.34,13.45 129.46,14.12 129.58,15.07 129.70,15.48 129.82,16.31 129.95,16.97 130.07,16.38 130.19,16.42 130.31,16.03 130.44,15.83 130.56,15.84 130.68,15.37 130.80,14.93 130.92,14.58 131.05,14.43 131.17,14.94 131.29,15.15 131.41,15.13 131.54,15.52 131.66,15.98 131.78,16.24 131.90,16.28 132.03,16.70 132.15,17.13 132.27,18.40 132.39,19.16 132.51,19.27 132.64,18.57 132.76,17.57 132.88,17.42 133.00,16.73 133.13,16.42 133.25,16.78 133.37,17.67 133.49,18.06 133.61,18.44 133.74,18.79 133.86,19.11 133.98,19.23 134.10,18.78 134.23,18.40 134.35,17.77 134.47,16.25 134.59,16.28 134.72,16.55 134.84,18.91 134.96,20.26 135.08,21.75 135.20,20.60 135.33,19.36 135.45,18.67 135.57,18.24 135.69,17.56 135.82,16.51 135.94,16.09 136.06,16.69 136.18,17.11 136.30,16.80 136.43,16.27 136.55,16.80 136.67,18.01 136.79,19.11 136.92,18.08 137.04,17.36 137.16,17.62 137.28,17.78 137.41,17.66 137.53,17.92 137.65,17.75 137.77,17.42 137.89,16.81 138.02,16.29 138.14,16.09 138.26,16.67 138.38,17.61 138.51,18.64 138.63,18.61 138.75,19.19 138.87,20.27 138.99,20.43 139.12,20.82 139.24,21.08 139.36,21.20 139.48,21.27 139.61,21.38 139.73,21.10 139.85,20.29 139.97,19.74 140.10,19.67 140.22,19.68 140.34,19.84 140.46,21.05 140.58,22.46 140.71,22.20 140.83,21.40 140.95,20.93 141.07,21.42 141.20,22.38 141.32,21.43 141.44,20.99 141.56,22.77 141.69,23.31 141.81,24.32 141.93,24.43 142.05,24.05 142.17,22.31 142.30,21.95 142.42,21.83 142.54,21.78 142.66,21.66 142.79,21.36 142.91,21.67 143.03,21.82 143.15,21.48 143.27,21.92 143.40,21.99 143.52,21.32 143.64,20.58 143.76,20.77 143.89,20.17 144.01,19.81 144.13,18.88 144.25,18.70 144.38,18.07 144.50,17.68 144.62,17.05 144.74,17.12 144.86,17.53 144.99,17.87 145.11,17.60 145.23,17.90 145.35,18.13 145.48,17.95 145.60,17.70 145.72,17.45 145.84,17.12 145.96,17.10 146.09,17.02 146.21,16.80 146.33,16.18 146.45,55.02 146.58,55.20 146.70,55.22 146.82,55.21 146.94,55.18 147.07,55.14 147.19,55.11 147.31,55.10 147.43,55.14 147.55,55.20 147.68,55.62 147.80,55.56 147.92,55.16 148.04,55.09 148.17,54.62 148.29,54.60 148.41,54.60 148.53,54.24 148.65,54.36 148.78,54.34 148.90,54.02 149.02,53.61 149.14,53.29 149.27,53.15 149.39,52.75 149.51,52.80 149.63,52.00 149.76,51.96 149.88,50.89 150.00,51.04 150.12,51.17 150.24,50.22 150.37,50.56 150.49,49.53 150.61,49.86 150.73,50.15 150.86,49.02 150.98,49.34 151.10,48.39 151.22,48.95 151.35,49.62 151.47,48.25 151.59,49.02 151.71,49.58 151.83,49.69 151.96,47.75 152.08,47.94 152.20,46.56 152.32,46.52 152.45,46.20 152.57,46.06 152.69,44.01 152.81,43.87 152.93,43.55 153.06,41.32 153.18,41.04 153.30,40.76 153.42,40.60 153.55,39.50 153.67,41.63 153.79,42.83 153.91,42.75 154.04,41.96 154.16,41.40 154.28,39.03 154.40,39.64 154.52,38.53 154.65,38.03 154.77,38.06 154.89,37.59 155.01,38.39 155.14,38.15 155.26,38.02 155.38,37.07 155.50,37.45 155.62,37.96 155.75,37.36 155.87,37.77 155.99,38.20 156.11,37.36 156.24,37.91 156.36,38.54 156.48,37.51 156.60,36.28 156.73,36.84 156.85,35.70 156.97,36.26 157.09,35.31 157.21,35.91 157.34,34.93 157.46,35.57 157.58,34.64 157.70,35.30 157.83,35.81 157.95,34.47 158.07,35.06 158.19,33.60 158.31,34.52 158.44,33.15 158.56,33.49 158.68,32.06 158.80,32.40 158.93,31.14 159.05,31.49 159.17,30.39 159.29,30.86 159.42,30.21 159.54,30.72 159.66,29.88 159.78,29.81 159.90,28.44 160.03,28.61 160.15,28.75 160.27,28.83 160.39,27.51 160.52,27.70 160.64,28.65 160.76,29.09 160.88,28.84 161.01,28.87 161.13,28.14 161.25,28.63 161.37,27.92 161.49,27.24 161.62,28.48 161.74,27.92 161.86,27.12 161.98,26.68 162.11,25.89 162.23,26.71 162.35,26.89 162.47,27.25 162.59,27.27 162.72,26.93 162.84,26.67 162.96,26.52 163.08,26.38 163.21,26.23 163.33,25.02 163.45,25.33 163.57,24.73 163.70,24.01 163.82,24.26 163.94,24.09 164.06,23.98 164.18,24.27 164.31,23.82 164.43,23.91 164.55,24.53 164.67,23.93 164.80,23.38 164.92,22.84 165.04,22.35 165.16,22.10 165.28,22.15 165.41,22.39 165.53,22.14 165.65,22.65 165.77,22.02 165.90,21.80 166.02,22.01 166.14,21.34 166.26,20.70 166.39,20.87 166.51,20.05 166.63,20.18 166.75,19.45 166.87,19.48 167.00,18.68 167.12,18.30 167.24,17.91 167.36,17.72 167.49,17.73 167.61,17.95 167.73,17.01 167.85,17.43 167.97,16.43 168.10,16.84 168.22,17.43 168.34,16.62 168.46,16.88 168.59,17.50 168.71,16.34 168.83,16.40 168.95,15.78 169.08,14.80 169.20,12.34 169.32,11.17 169.44,9.92 169.56,9.64 169.69,9.64 169.81,9.64 169.93,11.15 170.05,12.25 170.18,13.59 170.30,13.05 170.42,12.99 170.54,13.65 170.66,13.30 170.79,12.60 170.91,12.16 171.03,12.10 171.15,12.31 171.28,11.80 171.40,11.87 171.52,11.27 171.64,11.06 171.77,10.91 171.89,10.86 172.01,10.32 172.13,10.49 172.25,9.90 172.38,10.10 172.50,9.24 172.62,9.40 172.74,9.53 172.87,9.68 172.99,9.45 173.11,9.76 173.23,9.05 173.36,8.32 173.48,7.54 173.60,7.60 173.72,6.79 173.84,6.60 173.97,5.93 174.09,6.38 174.21,6.13 174.33,6.84 174.46,5.96 174.58,6.28 174.70,7.63 174.82,8.42 174.94,9.10 175.07,8.84 175.19,8.52 175.31,7.93 175.43,6.57 175.56,6.10 175.68,6.83 175.80,6.70 175.92,7.46 176.05,7.46 176.17,7.69 176.29,8.12 176.41,8.73 176.53,8.72 176.66,8.56 176.78,9.51 176.90,9.70 177.02,9.96 177.15,10.29 177.27,9.67 177.39,10.42 177.51,10.14 177.63,11.15 177.76,11.19 177.88,10.05 178.00,10.24 178.12,9.04 178.25,8.95 178.37,7.54 178.49,8.89 178.61,9.09 178.74,11.16 178.86,11.14 178.98,11.85 179.10,11.01 179.22,10.97 179.35,10.55 179.47,9.93 179.59,9.40 179.71,8.87 179.84,10.19 179.96,9.81 180.08,9.56 180.20,9.43 180.32,10.65 180.45,10.51 180.57,10.51 180.69,11.54 180.81,11.43 180.94,11.30 181.06,10.38 181.18,10.42 181.30,10.56 181.43,10.56 181.55,10.72 181.67,10.99 181.79,11.27 181.91,11.69 182.04,11.89 182.16,12.19 182.28,12.75 182.40,12.67 182.53,12.81 182.65,13.04 182.77,12.31 182.89,13.05 183.02,12.69 183.14,13.84 183.26,13.58 183.38,13.48 183.50,12.57 183.63,10.50 183.75,10.34 183.87,10.34 183.99,10.25 184.12,10.03 184.24,10.64 184.36,10.33 184.48,11.06 184.60,10.95 184.73,11.09 184.85,11.52 184.97,11.43 185.09,11.47 185.22,11.42 185.34,11.95 185.46,12.47 185.58,12.93 185.71,13.25 185.83,13.54 185.95,13.86 186.07,13.20 186.19,12.85 186.32,13.61 186.44,13.13 186.56,14.17 186.68,15.02 186.81,15.54 186.93,14.00 187.05,14.17 187.17,13.11 187.29,13.99 187.42,13.82 187.54,12.69 187.66,13.05 187.78,14.37 187.91,13.92 188.03,14.01 188.15,15.09 188.27,15.50 188.40,14.87 188.52,14.04 188.64,11.70 188.76,10.81 188.88,10.04 189.01,9.44 189.13,10.36 189.25,9.94 189.37,9.79 189.50,10.98 189.62,10.98 189.74,10.18 189.86,10.62 189.98,10.53 190.11,9.76 190.23,9.90 190.35,9.41 190.47,9.95 190.60,9.92 190.72,10.51 190.84,11.07 190.96,10.34 191.09,9.45 191.21,10.09 191.33,8.89 191.45,9.80 191.57,9.70 191.70,10.84 191.82,10.23 191.94,9.62 192.06,10.80 192.19,10.53 192.31,10.26 192.43,11.55 192.55,11.50 192.68,12.85 192.80,14.05 192.92,15.06 193.04,14.46 193.16,12.93 193.29,11.38 193.41,9.36 193.53,8.13 193.65,9.10 193.78,10.51 193.90,12.14 194.02,13.06 194.14,13.91 194.26,12.74 194.39,12.62 194.51,12.94 194.63,12.94 194.75,13.44 194.88,12.95 195.00,12.77 195.12,12.13 195.24,13.00 195.37,12.42 195.49,13.37 195.61,13.18 195.73,13.27 195.85,15.11 195.98,15.34 196.10,15.68 196.22,16.84 196.34,16.60 196.47,15.82 196.59,16.19 196.71,15.67 196.83,15.33 196.95,15.16 197.08,14.63 197.20,14.52 197.32,14.45 197.44,14.58 197.57,14.76 197.69,14.76 197.81,14.77 197.93,15.04 198.06,15.28 198.18,15.25 198.30,15.99 198.42,16.66 198.54,18.72 198.67,18.75 198.79,19.01 198.91,17.80 199.03,16.97 199.16,17.03 199.28,16.13 199.40,16.19 199.52,16.27 199.64,17.71 199.77,18.14 199.89,18.62 200.01,18.00 200.13,18.92 200.26,19.39 200.38,18.75 200.50,18.21 200.62,17.51 200.75,16.77 200.87,16.25 200.99,15.93 201.11,18.12 201.23,19.67 201.36,21.04 201.48,19.52 201.60,18.83 201.72,17.32 201.85,18.17 201.97,17.33 202.09,16.02 202.21,16.10 202.34,16.63 202.46,17.20 202.58,17.22 202.70,15.43 202.82,16.06 202.95,17.01 203.07,18.51 203.19,16.91 203.31,17.01 203.44,17.18 203.56,16.94 203.68,17.95 203.80,17.66 203.92,17.44 204.05,17.10 204.17,16.86 204.29,16.16 204.41,15.56 204.54,16.34 204.66,17.74 204.78,17.74 204.90,17.81 205.03,19.41 205.15,20.56 205.27,20.21 205.39,21.39 205.51,20.72 205.64,20.91 205.76,21.26 205.88,21.43 206.00,20.36 206.13,19.94 206.25,19.15 206.37,19.97 206.49,19.45 206.61,19.03 206.74,20.74 206.86,21.17 206.98,22.07 207.10,21.95 207.23,21.01 207.35,21.82 207.47,21.71 207.59,21.83 207.72,20.39 207.84,21.90 207.96,23.06 208.08,23.41 208.20,23.87 208.33,23.78 208.45,23.41 208.57,22.84 208.69,22.46 208.82,22.10 208.94,22.08 209.06,22.01 209.18,22.15 209.30,22.32 209.43,20.82 209.55,21.26 209.67,21.33 209.79,21.30 209.92,21.34 210.04,21.47 210.16,19.59 210.28,19.71 210.41,18.25 210.53,18.41 210.65,17.43 210.77,17.91 210.89,16.92 211.02,17.03 211.14,16.83 211.26,16.97 211.38,17.14 211.51,17.11 211.63,17.66 211.75,18.36 211.87,17.65 211.99,17.00 212.12,17.00 212.24,16.69 212.36,16.88 212.48,16.12 212.61,16.42 212.73,15.45 212.85,14.93 212.97,14.51 213.10,15.34 213.22,14.13 213.34,14.90 213.46,14.23 213.58,13.51 213.71,13.60 213.83,14.10 213.95,14.10 214.07,14.08 214.20,13.92 214.32,13.30 214.44,13.54 214.56,13.32 214.69,13.74 214.81,13.41 214.93,13.41 215.05,13.18 215.17,13.20 215.30,13.06 215.42,13.14 215.54,13.22 215.66,13.52 215.79,13.92 215.91,14.75 216.03,14.92 216.15,14.24 216.27,14.53 216.40,14.26 216.52,14.68 216.64,14.68 216.76,15.56 216.89,15.57 217.01,16.41 217.13,16.77 217.25,17.64 217.38,18.28 217.50,16.56 217.62,16.84 217.74,15.80 217.86,16.73 217.99,17.89 218.11,17.49 218.23,18.52 218.35,17.39 218.48,16.49 218.60,15.00 218.72,13.67 218.84,12.55 218.96,12.66 219.09,14.01 219.21,13.05 219.33,13.41 219.45,13.01 219.58,13.01 219.70,13.00 219.82,13.42 219.94,14.53 220.07,14.53 220.19,15.64 220.31,15.62 220.43,16.38 220.55,16.34 220.68,17.02 220.80,16.99 220.92,17.61 221.04,19.15 221.17,18.89 221.29,53.92 221.41,55.15 221.53,55.15 221.65,55.15 221.78,55.10 221.90,55.10 222.02,55.15 222.14,55.15 222.27,55.15 222.39,55.34 222.51,55.34 222.63,54.07 222.76,54.64 222.88,54.64 223.00,53.74 223.12,53.74 223.24,53.74 223.37,52.86 223.49,52.86 223.61,52.86 223.73,52.56 223.86,52.56 223.98,52.56 224.10,52.48 224.22,52.48 224.35,52.48 224.47,49.48 224.59,49.48 224.71,49.48 224.83,49.76 224.96,49.76 225.08,50.53 225.20,50.53 225.32,46.73 225.45,47.57 225.57,47.57 225.69,47.57 225.81,48.82 225.93,48.82 226.06,48.82 226.18,49.70 226.30,45.37 226.42,45.95 226.55,45.95 226.67,45.95 226.79,46.37 226.91,46.37 227.04,46.37 227.16,46.09 227.28,46.09 227.40,46.09 227.52,40.16 227.65,40.16 227.77,39.57 227.89,39.57 228.01,39.57 228.14,39.95 228.26,39.95 228.38,39.95 228.50,42.47 228.62,42.47 228.75,39.22 228.87,39.22 228.99,39.22 229.11,36.56 229.24,36.56 229.36,36.56 229.48,38.31 229.60,36.47 229.73,36.47 229.85,36.47 229.97,36.00 230.09,36.00 230.21,36.92 230.34,36.92 230.46,36.92 230.58,38.37 230.70,38.37 230.83,38.37 230.95,35.49 231.07,35.49 231.19,35.49 231.31,36.99 231.44,36.99 231.56,36.99 231.68,33.71 231.80,33.71 231.93,33.71 232.05,35.62 232.17,35.62 232.29,35.62 232.42,32.21 232.54,32.21 232.66,32.21 232.78,33.72 232.90,33.72 233.03,33.72 233.15,35.08 233.27,30.07 233.39,30.90 233.52,30.90 233.64,30.90 233.76,32.03 233.88,32.03 234.01,28.27 234.13,29.61 234.25,29.61 234.37,29.61 234.49,30.15 234.62,30.15 234.74,26.45 234.86,26.64 234.98,26.64 235.11,26.64 235.23,27.76 235.35,27.76 235.47,27.80 235.59,27.80 235.72,27.80 235.84,25.30 235.96,25.30 236.08,28.63 236.21,26.76 236.33,26.76 236.45,26.76 236.57,24.59 236.70,24.59 236.82,26.89 236.94,23.34 237.06,23.34 237.18,23.34 237.31,25.55 237.43,26.86 237.55,26.86 237.67,26.71 237.80,26.71 237.92,26.71 238.04,26.34 238.16,26.34 238.28,26.34 238.41,26.92 238.53,24.22 238.65,24.22 238.77,24.22 238.90,23.10 239.02,23.10 239.14,23.10 239.26,23.86 239.39,23.86 239.51,23.86 239.63,23.86 239.75,22.24 239.87,22.24 240.00,22.24 240.12,21.64 240.24,21.64 240.36,21.64 240.49,22.68 240.61,20.68 240.73,20.68 240.85,20.68 240.97,21.46 241.10,19.17 241.22,19.17 241.34,19.17 241.46,19.34 241.59,19.34 241.71,19.34 241.83,17.60 241.95,17.60 242.08,17.60 242.20,17.04 242.32,17.04 242.44,17.04 242.56,18.02 242.69,18.02 242.81,14.35 242.93,15.07 243.05,15.07 243.18,15.99 243.30,15.99 243.42,15.99 243.54,15.49 243.66,15.49 243.79,15.49 243.91,12.36 244.03,12.36 244.15,8.83 244.28,8.83 244.40,8.83 244.52,8.83 244.64,5.91 244.77,8.58 244.89,8.58 245.01,12.16 245.13,12.72 245.25,12.72 245.38,12.72 245.50,15.60 245.62,12.82 245.74,12.82 245.87,12.82 245.99,12.42 246.11,11.20 246.23,11.20 246.36,10.50 246.48,10.50 246.60,10.50 246.72,10.55 246.84,10.55 246.97,10.55 247.09,8.22 247.21,8.22 247.33,8.22 247.46,8.35 247.58,8.35 247.70,7.90 247.82,7.90 247.94,7.90 248.07,6.16 248.19,6.16 248.31,6.16 248.43,6.83 248.56,6.83 248.68,7.24 248.80,4.94 248.92,4.94 249.05,7.10 249.17,7.10 249.29,7.10 249.41,5.19 249.53,7.25 249.66,7.25 249.78,7.25 249.90,6.66 250.02,6.66 250.15,4.23 250.27,4.23 250.39,6.24 250.51,6.24 250.63,4.00 250.76,6.52 250.88,6.52 251.00,6.52 251.12,6.52 251.25,8.58 251.37,8.58 251.49,8.58 251.61,8.89 251.74,8.89 251.86,8.89 251.98,10.52 252.10,10.52 252.22,10.52 252.35,10.17 252.47,10.17 252.59,10.17 252.71,10.17 252.84,10.31 252.96,10.31 253.08,10.31 253.20,6.30 253.32,6.30 253.45,10.34 253.57,10.34 253.69,10.34 253.81,9.03 253.94,9.03 254.06,9.03 254.18,8.39 254.30,8.39 254.43,8.39 254.55,7.41 254.67,7.41 254.79,7.41 254.91,7.21 255.04,7.21 255.16,11.25 255.28,10.65 255.40,10.65 255.53,10.65 255.65,10.65 255.77,10.50 255.89,10.50 256.02,10.50 256.14,10.84 256.26,10.84 256.38,10.84 256.50,11.45 256.63,11.45 256.75,12.40 256.87,12.40 256.99,12.40 257.12,14.09 257.24,10.46 257.36,10.46 257.48,11.88 257.60,11.88 257.73,11.88 257.85,14.11 257.97,14.11 258.09,10.78 258.22,11.82 258.34,11.82 258.46,8.29 258.58,8.29 258.71,8.29 258.83,8.29 258.95,8.44 259.07,11.19 259.19,11.19 259.32,10.46 259.44,10.46 259.56,10.46 259.68,11.10 259.81,11.10 259.93,11.10 260.05,10.75 260.17,10.75 260.29,11.30 260.42,11.30 260.54,11.30 260.66,12.49 260.78,12.49 260.91,12.49 261.03,14.79 261.15,14.79 261.27,13.51 261.40,13.51 261.52,15.53 261.64,15.53 261.76,10.89 261.88,12.89 262.01,12.89 262.13,12.89 262.25,16.42 262.37,12.74 262.50,12.74 262.62,12.74 262.74,15.26 262.86,11.76 262.98,11.76 263.11,12.29 263.23,12.29 263.35,12.29 263.47,8.55 263.60,8.55 263.72,8.55 263.84,6.99 263.96,11.05 264.09,11.05 264.21,10.04 264.33,10.04 264.45,10.04 264.57,10.04 264.70,10.85 264.82,8.50 264.94,8.50 265.06,8.50 265.19,7.34 265.31,10.02 265.43,10.02 265.55,10.98 265.68,10.98 265.80,9.10 265.92,9.10 266.04,9.10 266.16,9.10 266.29,12.12 266.41,7.74 266.53,7.74 266.65,10.81 266.78,10.81 266.90,10.81 267.02,10.09 267.14,10.09 267.26,10.09 267.39,13.62 267.51,13.62 267.63,13.62 267.75,12.69 267.88,12.69 268.00,12.69 268.12,7.67 268.24,7.67 268.37,7.67 268.49,9.44 268.61,9.44 268.73,9.44 268.85,9.44 268.98,11.16 269.10,11.16 269.22,14.60 269.34,11.86 269.47,11.86 269.59,11.86 269.71,11.86 269.83,11.25 269.95,11.25 270.08,11.25 270.20,11.25 270.32,13.35 270.44,13.35 270.57,13.72 270.69,13.72 270.81,13.72 270.93,14.00 271.06,14.00 271.18,14.15 271.30,14.15 271.42,16.93 271.54,15.86 271.67,15.86 271.79,15.86 271.91,13.51 272.03,14.68 272.16,14.68 272.28,14.84 272.40,14.84 272.52,15.03 272.64,15.03 272.77,15.03 272.89,15.59 273.01,15.59 273.13,16.82 273.26,16.82 273.38,16.82 273.50,16.09 273.62,16.09 273.75,16.09 273.87,15.38 273.99,15.38 274.11,15.38 274.23,15.38 274.36,14.97 274.48,18.28 274.60,18.28 274.72,20.44 274.85,17.50 274.97,17.50 275.09,22.30 275.21,22.30 275.34,20.48 275.46,20.48 275.58,20.48 275.70,19.25 275.82,19.25 275.95,19.25 276.07,19.25 276.19,19.25 276.31,19.25 276.44,15.00 276.56,15.00 276.68,15.00 276.80,17.34 276.92,15.29 277.05,15.29 277.17,15.29 277.29,15.39 277.41,15.39 277.54,16.49 277.66,16.49 277.78,16.49 277.90,14.62 278.03,14.62 278.15,14.62 278.27,15.36 278.39,15.36 278.51,15.36 278.64,15.10 278.76,15.10 278.88,15.10 279.00,15.41 279.13,15.41 279.25,15.41 279.37,14.57 279.49,18.13 279.61,18.13 279.74,18.13 279.86,20.47 279.98,20.47 280.10,18.70 280.23,18.70 280.35,18.70 280.47,17.08 280.59,18.59 280.72,18.59 280.84,18.59 280.96,18.59 281.08,15.47 281.20,19.58 281.33,19.58 281.45,19.35 281.57,19.35 281.69,19.35 281.82,18.53 281.94,21.30 282.06,21.30 282.18,19.64 282.30,19.64 282.43,19.64 282.55,16.30 282.67,19.36 282.79,19.36 282.92,22.30 283.04,22.30 283.16,23.50 283.28,23.50 283.41,23.50 283.53,23.82 283.65,23.82 283.77,23.79 283.89,23.79 284.02,23.79 284.14,24.29 284.26,24.29 284.38,24.86 284.51,24.86 284.63,24.86 284.75,25.44 284.87,25.44 284.99,19.58 285.12,19.86 285.24,19.86 285.36,19.86 285.48,20.32 285.61,20.32 285.73,16.66 285.85,16.66 285.97,16.66 286.10,15.12 286.22,15.12 286.34,15.12 286.46,17.28 286.58,17.28 286.71,17.28 286.83,19.10 286.95,19.10 287.07,16.29 287.20,16.29 287.32,16.29 287.44,15.74 287.56,15.74 287.69,13.25 287.81,13.25 287.93,14.21 288.05,14.21 288.17,14.21 288.30,11.29 288.42,12.37 288.54,12.37 288.66,12.37 288.79,12.37 288.91,14.06 289.03,14.06 289.15,14.06 289.27,12.72 289.40,12.72 289.52,14.33 289.64,13.56 289.76,13.56 289.89,13.56 290.01,13.56 290.13,13.20 290.25,13.20 290.38,13.20 290.50,14.55 290.62,14.55 290.74,14.55 290.86,14.09 290.99,14.09 291.11,14.09 291.23,15.86 291.35,15.52 291.48,15.52 291.60,15.52 291.72,15.52 291.84,15.80 291.96,15.80 292.09,15.80 292.21,17.11 292.33,17.11 292.45,17.11 292.58,15.31 292.70,15.31 292.82,15.31 292.94,16.80 293.07,16.80 293.19,16.80 293.31,13.91 293.43,13.91 293.55,13.91 293.68,10.71 293.80,10.71 293.92,14.01 294.04,10.71 294.17,11.69 294.29,11.69 294.41,11.69 294.53,11.69 294.65,12.47 294.78,12.47 294.90,12.47 295.02,12.47 295.14,14.13 295.27,14.13 295.39,14.13 295.51,17.05 295.63,17.05 295.76,17.05 295.88,17.07 296.00,19.85" />
</svg>