<svg width="300" height="60" xmlns="http://www.w3.org/2000/svg">
  <polyline fill="rgba(255,200,0,0.3)" stroke="#ffbb00" stroke-width="2" points="4.00,55.83 4.42,55.56 4.84,55.28 5.27,54.83 5.69,54.46 6.11,53.96 6.53,53.54 6.95,53.10 7.38,52.89 7.80,52.43 8.22,52.17 8.64,52.17 9.06,51.98 9.49,51.67 9.91,51.35 10.33,51.03 10.75,50.89 11.17,50.91 11.60,50.77 12.02,50.53 12.44,50.16 12.86,49.61 13.28,49.19 13.71,48.93 14.13,48.79 14.55,48.31 14.97,47.82 15.39,47.52 15.82,47.45 16.24,47.30 16.66,46.98 17.08,46.50 17.50,46.21 17.92,45.93 18.35,45.96 18.77,45.80 19.19,45.39 19.61,44.90 20.03,44.51 20.46,44.02 20.88,43.57 21.30,43.36 21.72,43.23 22.14,42.97 22.57,42.72 22.99,42.60 23.41,42.26 23.83,42.01 24.25,41.94 24.68,41.47 25.10,40.91 25.52,40.57 25.94,40.21 26.36,40.06 26.79,39.96 27.21,39.53 27.63,39.06 28.05,38.70 28.47,38.53 28.90,38.23 29.32,37.71 29.74,37.73 30.16,37.52 30.58,36.77 31.01,36.22 31.43,35.90 31.85,35.85 32.27,35.70 32.69,35.36 33.12,34.84 33.54,34.40 33.96,34.06 34.38,33.61 34.80,32.94 35.23,32.99 35.65,32.76 36.07,32.28 36.49,31.92 36.91,31.41 37.34,30.93 37.76,30.49 38.18,30.19 38.60,30.13 39.02,29.94 39.45,29.57 39.87,29.17 40.29,28.67 40.71,28.12 41.13,27.61 41.55,27.33 41.98,27.16 42.40,26.98 42.82,26.56 43.24,26.07 43.66,25.65 44.09,25.23 44.51,25.04 44.93,24.91 45.35,24.53 45.77,24.08 46.20,23.72 46.62,23.36 47.04,22.86 47.46,22.76 47.88,22.39 48.31,21.91 48.73,21.34 49.15,20.98 49.57,20.83 49.99,20.70 50.42,20.37 50.84,20.07 51.26,19.74 51.68,19.47 52.10,19.18 52.53,18.85 52.95,18.47 53.37,18.11 53.79,17.92 54.21,18.25 54.64,18.46 55.06,18.53 55.48,18.26 55.90,17.95 56.32,17.83 56.75,17.58 57.17,17.22 57.59,17.16 58.01,17.04 58.43,16.91 58.86,16.98 59.28,16.76 59.70,16.50 60.12,16.41 60.54,16.33 60.97,16.34 61.39,16.47 61.81,16.38 62.23,16.20 62.65,16.14 63.08,16.27 63.50,16.43 63.92,16.44 64.34,16.50 64.76,16.64 65.18,16.83 65.61,16.95 66.03,16.90 66.45,16.71 66.87,16.65 67.29,16.38 67.72,16.12 68.14,15.80 68.56,15.22 68.98,14.63 69.40,14.42 69.83,14.12 70.25,13.73 70.67,13.62 71.09,13.33 71.51,13.04 71.94,13.06 72.36,12.98 72.78,12.92 73.20,12.82 73.62,12.67 74.05,12.27 74.47,11.63 74.89,11.08 75.31,10.82 75.73,10.58 76.16,9.95 76.58,9.35 77.00,8.84 77.42,8.66 77.84,8.48 78.27,8.26 78.69,8.06 79.11,7.81 79.53,7.90 79.95,7.95 80.38,8.05 80.80,8.41 81.22,8.59 81.64,9.00 82.06,9.33 82.49,9.48 82.91,9.40 83.33,9.11 83.75,8.95 84.17,56.00 84.60,55.71 85.02,55.42 85.44,54.51 85.86,54.48 86.28,53.91 86.71,53.35 87.13,53.21 87.55,52.86 87.97,52.52 88.39,52.25 88.82,52.18 89.24,52.09 89.66,51.72 90.08,51.56 90.50,51.06 90.92,51.02 91.35,51.06 91.77,50.77 92.19,50.59 92.61,50.13 93.03,49.48 93.46,49.10 93.88,49.01 94.30,48.63 94.72,48.44 95.14,48.00 95.57,47.77 95.99,47.63 96.41,47.51 96.83,47.07 97.25,46.54 97.68,46.30 98.10,46.06 98.52,46.10 98.94,45.89 99.36,45.42 99.79,44.83 100.21,44.49 100.63,43.98 101.05,43.46 101.47,43.50 101.90,43.27 102.32,43.05 102.74,42.89 103.16,42.63 103.58,42.37 104.01,42.20 104.43,42.59 104.85,41.50 105.27,40.99 105.69,40.53 106.12,40.27 106.54,40.32 106.96,40.12 107.38,39.71 107.80,39.10 108.23,38.77 108.65,38.58 109.07,38.13 109.49,37.77 109.91,37.88 110.34,37.45 110.76,36.83 111.18,36.34 111.60,35.97 112.02,36.57 112.45,35.74 112.87,35.54 113.29,35.31 113.71,34.52 114.13,34.45 114.55,33.46 114.98,32.69 115.40,32.95 115.82,32.81 116.24,32.27 116.66,31.77 117.09,31.57 117.51,31.11 117.93,30.60 118.35,30.34 118.77,30.22 119.20,29.95 119.62,29.55 120.04,29.56 120.46,28.86 120.88,28.39 121.31,27.99 121.73,27.69 122.15,27.27 122.57,27.07 122.99,26.60 123.42,26.21 123.84,25.78 124.26,25.25 124.68,25.21 125.10,25.00 125.53,24.55 125.95,24.07 126.37,23.84 126.79,23.42 127.21,22.89 127.64,22.69 128.06,22.51 128.48,22.14 128.90,21.14 129.32,20.99 129.75,21.00 130.17,19.59 130.59,19.28 131.01,19.04 131.43,18.74 131.86,18.14 132.28,18.05 132.70,18.25 133.12,18.62 133.54,18.78 133.97,18.24 134.39,17.98 134.81,17.63 135.23,17.49 135.65,17.23 136.08,55.27 136.50,54.61 136.92,54.00 137.34,51.99 137.76,53.30 138.18,51.64 138.61,51.98 139.03,51.98 139.45,52.35 139.87,50.92 140.29,51.76 140.72,48.78 141.14,51.58 141.56,49.79 141.98,50.66 142.40,48.71 142.83,49.49 143.25,50.35 143.67,50.07 144.09,47.76 144.51,47.88 144.94,45.87 145.36,47.35 145.78,45.71 146.20,46.91 146.62,45.06 147.05,47.21 147.47,47.10 147.89,47.14 148.31,47.07 148.73,46.76 149.16,46.12 149.58,45.87 150.00,45.68 150.42,45.71 150.84,45.63 151.27,44.32 151.69,42.91 152.11,43.20 152.53,42.99 152.95,42.99 153.38,43.22 153.80,42.25 154.22,42.29 154.64,41.67 155.06,41.20 155.49,41.81 155.91,41.33 156.33,40.91 156.75,40.91 157.17,39.16 157.60,39.34 158.02,38.37 158.44,39.83 158.86,39.20 159.28,38.41 159.71,37.72 160.13,38.16 160.55,37.58 160.97,37.17 161.39,35.96 161.82,37.30 162.24,37.50 162.66,36.19 163.08,35.02 163.50,35.16 163.92,34.25 164.35,35.03 164.77,32.88 165.19,34.59 165.61,34.13 166.03,31.95 166.46,32.37 166.88,31.57 167.30,32.74 167.72,31.42 168.14,31.01 168.57,29.51 168.99,30.83 169.41,30.58 169.83,28.19 170.25,27.73 170.68,29.56 171.10,28.98 171.52,28.43 171.94,27.97 172.36,27.56 172.79,26.79 173.21,26.81 173.63,27.10 174.05,25.04 174.47,25.01 174.90,24.98 175.32,25.84 175.74,23.85 176.16,23.06 176.58,24.44 177.01,23.33 177.43,23.05 177.85,23.54 178.27,23.02 178.69,22.51 179.12,21.65 179.54,21.98 179.96,20.92 180.38,21.38 180.80,20.14 181.23,20.64 181.65,19.57 182.07,20.33 182.49,19.76 182.91,19.37 183.34,19.76 183.76,18.86 184.18,16.97 184.60,18.33 185.02,17.87 185.45,17.55 185.87,15.50 186.29,17.27 186.71,17.04 187.13,18.36 187.55,17.97 187.98,16.95 188.40,17.20 188.82,17.20 189.24,17.19 189.66,16.91 190.09,16.23 190.51,15.81 190.93,15.89 191.35,17.63 191.77,16.98 192.20,16.40 192.62,16.03 193.04,15.84 193.46,16.08 193.88,16.55 194.31,15.69 194.73,13.42 195.15,15.39 195.57,15.85 195.99,14.87 196.42,16.28 196.84,16.00 197.26,16.45 197.68,13.76 198.10,13.67 198.53,13.63 198.95,13.67 199.37,13.95 199.79,14.78 200.21,15.61 200.64,14.46 201.06,14.14 201.48,14.14 201.90,13.96 202.32,13.41 202.75,13.37 203.17,12.44 203.59,11.42 204.01,11.30 204.43,11.82 204.86,12.47 205.28,11.58 205.70,11.78 206.12,11.84 206.54,10.35 206.97,10.64 207.39,10.09 207.81,8.71 208.23,8.77 208.65,7.14 209.08,8.01 209.50,7.16 209.92,6.69 210.34,7.98 210.76,7.66 211.18,7.63 211.61,7.36 212.03,7.98 212.45,6.77 212.87,7.29 213.29,8.16 213.72,8.95 214.14,8.95 214.56,9.89 214.98,9.66 215.40,9.05 215.83,8.92 216.25,53.89 216.67,53.89 217.09,53.89 217.51,51.04 217.94,51.04 218.36,46.66 218.78,53.20 219.20,53.20 219.62,53.20 220.05,48.47 220.47,48.47 220.89,43.45 221.31,51.01 221.73,51.01 222.16,51.01 222.58,45.89 223.00,45.89 223.42,52.29 223.84,48.13 224.27,48.13 224.69,48.13 225.11,42.55 225.53,48.36 225.95,48.36 226.38,44.57 226.80,44.57 227.22,44.57 227.64,43.62 228.06,43.62 228.49,43.62 228.91,44.89 229.33,44.89 229.75,44.67 230.17,44.67 230.60,44.67 231.02,43.37 231.44,43.37 231.86,41.75 232.28,41.75 232.71,45.07 233.13,45.07 233.55,41.83 233.97,41.83 234.39,38.68 234.82,38.68 235.24,38.68 235.66,41.78 236.08,41.78 236.50,41.78 236.92,39.44 237.35,39.44 237.77,39.44 238.19,35.31 238.61,40.43 239.03,40.43 239.46,38.14 239.88,38.14 240.30,36.49 240.72,36.49 241.14,36.49 241.57,33.88 241.99,37.17 242.41,37.17 242.83,37.17 243.25,33.91 243.68,36.52 244.10,36.52 244.52,32.96 244.94,32.96 245.36,32.96 245.79,37.57 246.21,31.92 246.63,31.92 247.05,31.92 247.47,35.72 247.90,31.39 248.32,31.39 248.74,31.39 249.16,27.75 249.58,27.75 250.01,27.75 250.43,25.51 250.85,25.51 251.27,23.66 251.69,23.66 252.12,23.66 252.54,22.20 252.96,22.20 253.38,21.94 253.80,21.94 254.23,21.94 254.65,22.25 255.07,22.25 255.49,22.25 255.91,21.90 256.34,21.90 256.76,24.02 257.18,24.02 257.60,24.02 258.02,21.18 258.45,21.18 258.87,21.18 259.29,18.85 259.71,22.58 260.13,22.58 260.55,19.62 260.98,19.62 261.40,19.62 261.82,15.96 262.24,21.07 262.66,21.07 263.09,19.56 263.51,19.56 263.93,15.22 264.35,15.22 264.77,15.22 265.20,15.22 265.62,13.78 266.04,13.78 266.46,13.78 266.88,13.78 267.31,17.20 267.73,17.20 268.15,17.20 268.57,19.62 268.99,19.62 269.42,19.62 269.84,16.75 270.26,16.75 270.68,16.75 271.10,16.75 271.53,18.44 271.95,18.44 272.37,18.44 272.79,17.93 273.21,17.93 273.64,17.93 274.06,18.08 274.48,18.08 274.90,12.73 275.32,12.73 275.75,16.88 276.17,16.88 276.59,14.02 277.01,14.02 277.43,13.06 277.86,13.06 278.28,13.06 278.70,13.26 279.12,13.26 279.54,13.97 279.97,13.97 280.39,13.97 280.81,10.49 281.23,10.49 281.65,10.49 282.08,10.49 282.50,9.80 282.92,9.80 283.34,9.80 283.76,8.83 284.18,8.83 284.61,8.83 285.03,8.91 285.45,8.91 285.87,10.55 286.29,10.55 286.72,11.84 287.14,11.84 287.56,11.84 287.98,6.95 288.40,10.05 288.83,10.05 289.25,6.08 289.67,6.08 290.09,6.08 290.51,4.26 290.94,4.26 291.36,9.18 291.78,7.47 292.20,7.47 292.62,7.47 293.05,4.00 293.47,8.37 293.89,8.37 294.31,8.37 294.73,8.37 295.16,10.16 295.58,10.16 296.00,10.16" />
</svg>