<?xml version="1.0" encoding="UTF-8" standalone="no"?>
<!-- Created with Inkscape (http://www.inkscape.org/) -->

<svg
   width="72.059875mm"
   height="37.50948mm"
   viewBox="0 0 72.059876 37.509481"
   version="1.1"
   id="svg1"
   xml:space="preserve"
   inkscape:version="1.4.3 (0d15f75, 2025-12-25)"
   sodipodi:docname="rideguide-icons.svg"
   inkscape:export-filename="C:\Dev\ngaebo-site\public\data\assets\icon_distance.svg"
   inkscape:export-xdpi="96"
   inkscape:export-ydpi="96"
   xmlns:inkscape="http://www.inkscape.org/namespaces/inkscape"
   xmlns:sodipodi="http://sodipodi.sourceforge.net/DTD/sodipodi-0.dtd"
   xmlns="http://www.w3.org/2000/svg"
   xmlns:svg="http://www.w3.org/2000/svg"><sodipodi:namedview
     id="namedview1"
     pagecolor="#505050"
     bordercolor="#ffffff"
     borderopacity="1"
     inkscape:showpageshadow="0"
     inkscape:pageopacity="0"
     inkscape:pagecheckerboard="1"
     inkscape:deskcolor="#505050"
     inkscape:document-units="mm"
     inkscape:zoom="0.71090067"
     inkscape:cx="203.26328"
     inkscape:cy="410.74655"
     inkscape:window-width="1920"
     inkscape:window-height="991"
     inkscape:window-x="-9"
     inkscape:window-y="-9"
     inkscape:window-maximized="1"
     inkscape:current-layer="layer2"><inkscape:page
       x="0"
       y="0"
       width="72.059875"
       height="37.50948"
       id="page2"
       margin="0"
       bleed="0" /></sodipodi:namedview><defs
     id="defs1" /><g
     inkscape:label="Layer 1"
     inkscape:groupmode="layer"
     id="layer1"
     transform="translate(-60.80948,-128.74241)"
     style="display:none"><g
       id="g1"><path
         style="fill:#6e7c7c"
         d="m 94.36524,177.06973 c 0.08594,-0.14552 0.561252,-0.74342 1.056244,-1.32867 0.892901,-1.05571 0.919357,-1.06881 3.360285,-1.66414 1.353161,-0.33003 2.492761,-0.56557 2.532441,-0.52342 0.13408,0.14244 0.52892,1.74553 0.44949,1.82496 -0.0669,0.0669 -7.299482,1.95585 -7.488722,1.95585 -0.0363,0 0.0043,-0.11906 0.09026,-0.26458 z m 8.69318,-2.2225 c -0.0498,-0.0873 -0.15411,-0.51134 -0.23183,-0.94227 -0.1405,-0.77904 -0.13611,-0.7849 0.76595,-1.02359 0.49899,-0.13204 1.56986,-0.42177 2.37972,-0.64386 0.80985,-0.22208 1.55149,-0.32474 1.6481,-0.22814 0.0966,0.0966 0.22948,0.50741 0.29528,0.91289 l 0.11964,0.73724 -2.33649,0.67324 c -2.60626,0.75097 -2.51559,0.73331 -2.64037,0.51449 z m 6.04053,-2.59268 -0.21485,-0.84643 2.42952,-0.75842 c 1.33624,-0.41714 2.44718,-0.72681 2.46877,-0.68816 0.0216,0.0386 0.15526,0.39873 0.29705,0.80018 0.20382,0.5771 0.20292,0.765 -0.004,0.89752 -0.37291,0.23852 -4.09295,1.44174 -4.45747,1.44174 -0.17763,0 -0.3932,-0.35172 -0.51877,-0.84643 z m 6.32437,-1.53571 c -0.43851,-1.17221 -0.47341,-1.42788 -0.1957,-1.43358 0.15336,-0.003 1.22623,-0.38132 2.38414,-0.8404 1.15791,-0.45908 2.13118,-0.8088 2.16281,-0.77716 0.0316,0.0316 0.19851,0.39494 0.37082,0.80734 l 0.3133,0.74982 -1.41778,0.58422 c -0.77978,0.32132 -1.87273,0.76442 -2.42877,0.98467 l -1.011,0.40045 z m 5.92494,-2.86844 -0.41413,-0.81177 1.30783,-0.6606 c 0.71931,-0.36334 1.7054,-0.90538 2.19131,-1.20455 l 0.88347,-0.54394 0.43945,0.61714 c 0.24169,0.33943 0.43944,0.66396 0.43944,0.72116 0,0.1319 -1.64704,1.17059 -3.22203,2.03194 l -1.21121,0.66239 z m 5.51927,-3.28264 c -0.25313,-0.26945 -0.46023,-0.56387 -0.46023,-0.65427 0,-0.0904 0.32863,-0.54831 0.73029,-1.01756 0.56013,-0.65439 0.74507,-1.07813 0.79375,-1.81863 0.0569,-0.86594 0.12705,-0.98236 0.68032,-1.12939 0.33928,-0.0902 0.69647,-0.11473 0.79375,-0.0546 0.32222,0.19914 0.17414,2.08127 -0.23145,2.94184 -0.32509,0.68977 -1.55816,2.2225 -1.78799,2.2225 -0.032,0 -0.26531,-0.22045 -0.51844,-0.48989 z m 0.28269,-6.06774 c -0.17377,-0.33604 -0.85318,-1.19125 -1.50979,-1.90047 -1.19006,-1.2854 -1.19259,-1.29099 -0.79783,-1.76028 0.21781,-0.25894 0.42304,-0.51267 0.45607,-0.56386 0.094,-0.14573 2.14852,1.9066 2.82656,2.82358 0.763,1.03189 0.76032,1.20433 -0.0257,1.65158 -0.6304,0.35871 -0.63489,0.35753 -0.94934,-0.25055 z m -5.71709,-5.43397 c -1.04775,-0.75242 -1.93156,-1.48339 -1.96403,-1.62439 -0.0325,-0.141 0.0732,-0.43724 0.23487,-0.65831 0.28633,-0.39158 0.31516,-0.38895 1.11737,0.10185 1.28178,0.78421 3.46929,2.38091 3.46929,2.53229 0,0.075 -0.21431,0.33441 -0.47625,0.57648 l -0.47625,0.4401 z m -5.3975,-3.48053 c -1.10596,-0.68451 -2.0374,-1.36658 -2.06987,-1.51573 -0.0325,-0.14914 0.0666,-0.44294 0.2201,-0.6529 0.2611,-0.35708 0.41414,-0.30213 2.3698,0.85077 1.14987,0.67787 2.12013,1.32774 2.15614,1.44415 0.036,0.11642 -0.099,0.41566 -0.29993,0.66497 l -0.3654,0.45329 z m -5.18583,-3.18707 c -0.93133,-0.59584 -1.90743,-1.25062 -2.16909,-1.45507 -0.4601,-0.35948 -0.46339,-0.387 -0.0999,-0.83588 l 0.37585,-0.46416 2.13702,1.35496 2.13702,1.35495 -0.29763,0.56803 c -0.16369,0.31242 -0.31839,0.56634 -0.34378,0.56428 -0.0254,-0.002 -0.80815,-0.49127 -1.73949,-1.08711 z m -4.7414,-3.67326 c -0.98299,-1.06642 -1.29263,-1.71821 -1.28786,-2.7109 0.004,-0.92545 0.26676,-1.2805 0.817,-1.10586 0.3699,0.1174 0.44976,0.31018 0.44976,1.08571 0,0.8086 0.12273,1.07611 0.86128,1.87735 0.7398,0.80259 0.82831,0.99597 0.62755,1.3711 -0.12855,0.2402 -0.31349,0.43672 -0.41099,0.43672 -0.0975,0 -0.57303,-0.42935 -1.05674,-0.95412 z m 0.2329,-4.80321 c -0.1397,-0.1397 -0.254,-0.36975 -0.254,-0.51122 0,-0.3002 2.27549,-2.05456 3.42647,-2.64175 0.78796,-0.40199 0.79262,-0.40182 1.02802,0.038 0.13006,0.24302 0.20494,0.46243 0.16641,0.48757 -0.0385,0.0251 -0.6973,0.44656 -1.46391,0.93649 -0.76662,0.48993 -1.61666,1.12795 -1.88898,1.41783 -0.56337,0.59967 -0.66107,0.62598 -1.01401,0.27304 z m 5.36629,-3.70916 c -0.0844,-0.21997 -0.0101,-0.45984 0.18721,-0.6041 0.42953,-0.31408 4.34468,-1.86185 4.44577,-1.75754 0.043,0.0444 0.11102,0.25 0.15119,0.45701 0.0579,0.29813 -0.3885,0.57314 -2.14714,1.32291 -1.2211,0.5206 -2.28247,0.94655 -2.3586,0.94655 -0.0761,0 -0.20143,-0.16418 -0.27843,-0.36483 z m 6.01282,-2.40283 c -0.2513,-0.46955 -0.34544,-0.41978 2.60278,-1.37599 1.73192,-0.56173 1.87657,-0.57794 2.20716,-0.24735 0.29549,0.29549 0.30399,0.37236 0.0516,0.4666 -0.16619,0.0621 -1.27849,0.44026 -2.47179,0.84046 -2.10578,0.70621 -2.1761,0.71552 -2.38977,0.31628 z m 6.22092,-3.04794 c -1.24119,-1.08576 -3.95392,-4.37041 -4.89906,-5.9319 -0.782,-1.29196 -1.52586,-3.50668 -1.52246,-4.53288 10e-4,-0.41733 0.13599,-1.26018 0.29912,-1.873 1.51139,-5.67751 8.41246,-7.7562 12.71006,-3.82844 2.81813,2.57562 3.37252,6.30483 1.44278,9.70515 -1.45754,2.56828 -5.7522,7.40833 -6.57352,7.40833 -0.20573,0 -0.86135,-0.42626 -1.45692,-0.94726 z m 2.66061,-6.03285 c 2.08858,-0.599 3.53528,-2.64855 3.36015,-4.76037 -0.19987,-2.4102 -2.25476,-4.34618 -4.61312,-4.34618 -2.30295,0 -4.38612,1.9155 -4.60932,4.23832 -0.3073,3.19811 2.77133,5.7547 5.86229,4.86823 z"
         id="path1"
         sodipodi:nodetypes="sssssssssssssscssccssscsccscssscsscsccsscsssccssssssssssssssssssssssscssssssccsssscccscsscsssssscssssssccssscsssssscsssssccsssssssss" /><path
         style="display:inline;fill:#6e7c7c;stroke-width:0.0351736"
         d="m 66.076626,183.51609 c -0.122545,-0.12254 -0.177498,-0.12716 -0.335937,-0.0282 -0.154975,0.0968 -0.236822,0.0955 -0.450049,-0.007 -0.143339,-0.069 -0.402437,-0.13293 -0.575777,-0.14203 -0.191281,-0.01 -0.375379,-0.0909 -0.468354,-0.20572 -0.106401,-0.1314 -0.224849,-0.17548 -0.387775,-0.14434 -0.184475,0.0353 -0.278493,-0.0168 -0.440163,-0.24387 -0.147586,-0.20726 -0.254371,-0.27323 -0.378521,-0.23383 -0.129171,0.041 -0.237885,-0.039 -0.429611,-0.31605 -0.141178,-0.20401 -0.327896,-0.37251 -0.414937,-0.37443 -0.180606,-0.004 -0.349315,-0.27019 -0.349315,-0.55115 0,-0.10661 -0.0601,-0.19063 -0.1363,-0.19063 -0.187082,0 -0.450886,-0.42565 -0.379343,-0.61209 0.03732,-0.0972 -0.01262,-0.20178 -0.138365,-0.28985 -0.157444,-0.11028 -0.186492,-0.20078 -0.145514,-0.45332 0.03664,-0.22581 0.01331,-0.33008 -0.0822,-0.36672 -0.159385,-0.0612 -0.17653,-0.41283 -0.02737,-0.56196 0.07981,-0.0798 0.07001,-0.16093 -0.03965,-0.32835 -0.12983,-0.19813 -0.130791,-0.25107 -0.0089,-0.48615 0.113406,-0.21859 0.11663,-0.30162 0.0188,-0.48441 -0.105763,-0.19761 -0.09327,-0.24192 0.11991,-0.4253 0.184825,-0.15897 0.228746,-0.2676 0.196652,-0.48629 -0.0295,-0.20094 0.0077,-0.3179 0.129762,-0.40835 0.0941,-0.0697 0.21285,-0.25133 0.263887,-0.4036 0.05104,-0.15227 0.182121,-0.31634 0.291301,-0.36458 0.10918,-0.0482 0.221529,-0.20288 0.249685,-0.34361 0.0367,-0.18338 0.123855,-0.27353 0.307754,-0.31824 0.141122,-0.0343 0.410779,-0.22752 0.59924,-0.42937 0.245459,-0.26291 0.395061,-0.3533 0.52743,-0.31869 0.128554,0.0336 0.202189,-0.007 0.242022,-0.13205 0.07117,-0.22424 0.492125,-0.40202 0.628651,-0.2655 0.143812,0.14379 0.216322,0.11681 0.273492,-0.10178 0.04384,-0.16755 0.09976,-0.18968 0.369011,-0.14599 0.174555,0.0283 0.35811,0.0108 0.407898,-0.039 0.102518,-0.10251 0.595412,-0.13558 0.734991,-0.0493 0.05063,0.0313 0.218538,0.009 0.373128,-0.0492 0.229268,-0.0865 0.322044,-0.0792 0.503452,0.0396 0.130078,0.0852 0.325571,0.12599 0.470947,0.0982 0.177539,-0.034 0.340773,0.0228 0.571345,0.19868 0.177539,0.13541 0.322792,0.20255 0.322792,0.14922 0,-0.17821 0.261341,-0.0997 0.444938,0.13372 0.09981,0.12688 0.24515,0.2307 0.322977,0.2307 0.07783,0 0.268998,0.15467 0.424836,0.34372 0.269204,0.32657 0.275296,0.35158 0.122078,0.5013 -0.08869,0.0867 -0.36884,0.26176 -0.622532,0.38909 -0.452594,0.22716 -0.464745,0.22825 -0.646269,0.0577 -0.343751,-0.32292 -1.215495,-0.65407 -1.864927,-0.7084 -1.184931,-0.0991 -2.219806,0.30018 -3.124625,1.20574 -2.29978,2.30168 -0.532095,6.15161 2.820967,6.14395 1.476177,-0.003 2.810271,-0.76333 3.521113,-2.00574 0.232321,-0.40605 0.320466,-0.48863 0.481142,-0.45072 0.108191,0.0255 0.481169,0.0756 0.828823,0.11128 l 0.632116,0.0649 -0.05639,0.28213 c -0.03101,0.15518 -0.118222,0.35043 -0.193757,0.43389 -0.07554,0.0835 -0.137329,0.23548 -0.137329,0.33782 0,0.10234 -0.08306,0.26124 -0.184571,0.3531 -0.101517,0.0919 -0.184571,0.25799 -0.184571,0.36915 0,0.25112 -0.271776,0.50756 -0.537906,0.50756 -0.110202,0 -0.200371,0.0559 -0.200371,0.12413 0,0.16426 -0.299356,0.42959 -0.484682,0.42959 -0.08093,0 -0.267338,0.10112 -0.414223,0.22471 -0.146886,0.12359 -0.38886,0.25376 -0.537714,0.28926 -0.148862,0.0355 -0.342208,0.12665 -0.429653,0.2026 -0.102875,0.0893 -0.254762,0.11891 -0.430305,0.0838 -0.180049,-0.036 -0.308857,-0.009 -0.382938,0.0803 -0.129172,0.15563 -0.56113,0.17921 -0.702033,0.0383 -0.06675,-0.0667 -0.132369,-0.0526 -0.214325,0.0461 -0.152841,0.18416 -0.477623,0.18213 -0.663916,-0.004 z m 19.944998,0.004 c -0.08196,-0.0987 -0.147585,-0.11288 -0.214318,-0.0462 -0.139799,0.13979 -0.578199,0.1178 -0.732762,-0.0368 -0.07525,-0.0753 -0.218222,-0.11065 -0.329426,-0.0816 -0.112493,0.0294 -0.304885,-0.0196 -0.450076,-0.11479 -0.139477,-0.0914 -0.352149,-0.17047 -0.472614,-0.17574 -0.120459,-0.005 -0.315883,-0.1222 -0.434277,-0.25984 -0.140848,-0.16374 -0.306594,-0.25026 -0.479447,-0.25026 -0.211965,0 -0.295191,-0.065 -0.420994,-0.32881 -0.122209,-0.25628 -0.19609,-0.31633 -0.334949,-0.27227 -0.211026,0.067 -0.518018,-0.32809 -0.431052,-0.55472 0.03609,-0.0941 -0.02017,-0.17049 -0.166528,-0.22614 -0.235724,-0.0896 -0.365986,-0.3526 -0.282465,-0.57026 0.02847,-0.0743 -0.05166,-0.22165 -0.182479,-0.3354 -0.24528,-0.21326 -0.306724,-0.51697 -0.127058,-0.62801 0.07623,-0.0471 0.06744,-0.0943 -0.03115,-0.16695 -0.193895,-0.14287 -0.246022,-0.34337 -0.153966,-0.59219 0.05619,-0.15191 0.03897,-0.25433 -0.05941,-0.35267 -0.172167,-0.17216 -0.175207,-0.31691 -0.01132,-0.54099 0.07785,-0.10645 0.109818,-0.30394 0.08236,-0.50868 -0.03108,-0.23178 6.86e-4,-0.38028 0.103471,-0.48303 0.0816,-0.0816 0.148361,-0.25543 0.148361,-0.38628 0,-0.13875 0.09616,-0.32152 0.230716,-0.43851 0.126893,-0.11034 0.230715,-0.27511 0.230715,-0.36616 0,-0.0911 0.121632,-0.22847 0.270301,-0.30534 0.14867,-0.0769 0.283632,-0.23041 0.299919,-0.34116 0.01825,-0.12394 0.176894,-0.28307 0.412583,-0.41382 0.432823,-0.24012 0.411616,-0.25271 0.820337,0.48706 l 0.261733,0.47375 -0.383364,0.43552 c -0.798253,0.90686 -1.038642,2.33696 -0.585753,3.48471 0.244211,0.6189 0.958503,1.44419 1.549957,1.79081 0.997814,0.58476 2.35638,0.74723 3.4367,0.41099 3.164347,-0.98485 3.596504,-5.00811 0.719074,-6.6944 -0.505764,-0.29638 -1.251657,-0.51147 -1.771959,-0.51099 -0.343991,5.7e-4 -1.207063,0.17542 -1.522699,0.30893 -0.0994,0.042 -0.21368,-0.0812 -0.405332,-0.43702 -0.284592,-0.52843 -0.265986,-0.70496 0.0743,-0.70496 0.116486,0 0.320075,-0.10035 0.452416,-0.223 0.148278,-0.13741 0.309215,-0.20505 0.419341,-0.17626 0.09829,0.0257 0.288468,-0.0252 0.422628,-0.11307 0.198772,-0.13023 0.286876,-0.14023 0.476112,-0.054 0.162446,0.074 0.285512,0.0773 0.409606,0.0108 0.187851,-0.10053 0.64262,-0.0309 0.64262,0.0983 0,0.042 0.174136,0.0741 0.386966,0.0711 0.283865,-0.004 0.428034,0.0454 0.54111,0.18499 0.101654,0.12554 0.219746,0.17319 0.346825,0.13996 0.130399,-0.0341 0.261272,0.0231 0.404817,0.17708 0.116671,0.1251 0.315945,0.25908 0.442839,0.29772 0.325261,0.099 0.461424,0.22679 0.461424,0.43289 0,0.11488 0.09824,0.2123 0.276853,0.27457 0.157821,0.055 0.27686,0.16243 0.27686,0.24984 0,0.0843 0.08306,0.20521 0.184571,0.26861 0.101516,0.0634 0.184564,0.21267 0.184564,0.33172 0,0.11905 0.106943,0.33185 0.237652,0.47288 0.164215,0.1772 0.221707,0.31992 0.18606,0.46195 -0.03472,0.13824 0.01111,0.26228 0.139997,0.3789 0.145088,0.13131 0.179796,0.24601 0.143016,0.47268 -0.02669,0.16463 -0.0098,0.32329 0.03767,0.35259 0.135305,0.0836 0.100858,0.46905 -0.05338,0.59704 -0.105661,0.0877 -0.114298,0.14629 -0.03554,0.24117 0.06065,0.0731 0.07951,0.25069 0.04521,0.42611 -0.03231,0.16542 -0.06957,0.42962 -0.08269,0.5871 -0.01317,0.15748 -0.09025,0.3527 -0.171378,0.43382 -0.08112,0.0811 -0.175323,0.29583 -0.209331,0.4771 -0.03403,0.18128 -0.142838,0.38018 -0.24183,0.44201 -0.09989,0.0624 -0.180639,0.21549 -0.181422,0.344 -0.0021,0.30821 -0.12076,0.48045 -0.287459,0.41648 -0.09041,-0.0347 -0.186177,0.0538 -0.286973,0.26517 -0.107526,0.22548 -0.233199,0.33524 -0.434482,0.37945 -0.155757,0.0342 -0.324329,0.13906 -0.37461,0.23301 -0.08734,0.16319 -0.347936,0.29201 -0.64533,0.31899 -0.07613,0.007 -0.250467,0.0864 -0.387398,0.17661 -0.143305,0.0944 -0.370103,0.15136 -0.534373,0.13413 -0.170617,-0.0179 -0.316912,0.0211 -0.36375,0.0968 -0.05811,0.094 -0.188262,0.11028 -0.503829,0.063 -0.278596,-0.0418 -0.425489,-0.03 -0.425489,0.0341 0,0.15009 -0.423581,0.11633 -0.556958,-0.0444 z m -11.885714,-2.3928 c -0.246296,-0.1109 -0.429221,-0.12067 -0.922849,-0.0493 -0.932679,0.1349 -1.676946,0.1195 -1.676946,-0.0347 0,-0.0961 0.238345,-0.14365 0.968993,-0.19345 0.532946,-0.0363 0.968993,-0.0985 0.968993,-0.13814 0,-0.0397 -0.06017,-0.12205 -0.133707,-0.18308 -0.07354,-0.0611 -0.182375,-0.26338 -0.241864,-0.44966 -0.05948,-0.18627 -0.134276,-0.36692 -0.166219,-0.40144 -0.0319,-0.0345 -0.639457,-0.13126 -1.350051,-0.215 -5.047716,-0.59478 -4.968503,-0.58203 -5.191034,-0.8348 -0.116576,-0.13243 -0.207644,-0.35704 -0.207644,-0.51215 0,-0.67262 0.224027,-0.84699 3.908628,-3.04251 1.058469,-0.63067 1.947419,-1.20386 1.975438,-1.27377 0.02799,-0.0699 -0.04137,-0.41379 -0.154268,-0.7642 -0.189415,-0.58808 -0.273059,-1.14321 -0.1837,-1.21917 0.02045,-0.0174 0.167818,-0.0564 0.327526,-0.0868 0.275344,-0.0524 0.299843,-0.0327 0.473307,0.37893 0.100611,0.23877 0.233672,0.59275 0.295692,0.78662 0.06202,0.19389 0.165684,0.37283 0.230373,0.39764 0.134015,0.0515 1.395729,-0.46455 4.385776,-1.79356 1.142038,-0.50762 2.415244,-1.05308 2.829344,-1.21211 0.930038,-0.35717 1.046504,-0.47321 0.727115,-0.72444 -0.255044,-0.20062 -0.305044,-0.49152 -0.11202,-0.65172 0.08921,-0.074 0.151448,-0.0721 0.230715,0.007 0.05969,0.0597 0.108542,0.074 0.108542,0.0317 0,-0.099 -0.370603,-0.42149 -0.484414,-0.42149 -0.04789,0 -0.31366,0.0659 -0.590658,0.14641 -0.587693,0.17085 -0.795673,0.12421 -0.754029,-0.16907 0.06188,-0.43597 1.863349,-1.11699 2.405886,-0.90952 0.210498,0.0805 0.253781,0.15252 0.253781,0.42233 0,0.20223 -0.06981,0.3951 -0.184571,0.50985 -0.228513,0.22852 -0.209571,0.22865 0.289847,0.002 0.804853,-0.36521 1.511983,-0.15776 1.878545,0.55109 0.20101,0.38871 0.329715,1.37512 0.233947,1.79301 -0.100075,0.43667 -0.373978,0.8258 -0.612556,0.87025 -0.141768,0.0264 -0.123594,-0.0215 0.09616,-0.25367 0.223135,-0.23572 0.278067,-0.38446 0.311204,-0.84262 0.08029,-1.11006 -0.411966,-2.0278 -1.087688,-2.0278 -0.353816,0 -1.051677,0.2063 -1.247438,0.36877 -0.08013,0.0665 -0.04315,0.22592 0.144087,0.62168 0.138509,0.29274 0.53226,1.13441 0.875002,1.87037 0.342743,0.73594 0.648074,1.36607 0.678522,1.4003 0.03046,0.0342 0.346049,-0.0374 0.701346,-0.15911 0.485162,-0.16623 0.847039,-0.22194 1.45349,-0.22373 0.494732,-0.001 0.807494,0.0345 0.807494,0.0928 0,0.11501 0.03663,0.10246 -1.344852,0.46112 -0.612776,0.15909 -1.163978,0.32006 -1.224887,0.3577 -0.119079,0.0736 1.411784,2.81827 2.348209,4.21019 0.274116,0.40745 0.498383,0.81088 0.498383,0.89653 0,0.19416 -0.281086,0.35254 -0.516453,0.29099 -0.179831,-0.047 -1.74945,-2.34281 -2.75302,-4.02664 l -0.535587,-0.89859 -0.381526,0.22694 c -0.584201,0.34752 -1.225058,0.93217 -1.740132,1.58758 -0.512797,0.65252 -0.712488,0.66767 -0.490026,0.0372 0.183096,-0.51894 0.558728,-0.98156 1.207598,-1.48725 0.291356,-0.22707 0.647985,-0.51666 0.79251,-0.64355 l 0.262769,-0.23069 -0.350036,-0.59982 c -0.55787,-0.95596 -0.546283,-0.96307 -1.984871,1.21685 -0.68038,1.03098 -1.45836,2.24831 -1.728826,2.70512 -0.27048,0.45682 -0.733344,1.21349 -1.028598,1.68152 -0.312398,0.49521 -0.576792,1.03732 -0.632431,1.29677 -0.122483,0.57113 -0.35442,0.94825 -0.785328,1.27692 -0.284029,0.21664 -0.449706,0.26681 -0.953776,0.28884 -0.396241,0.0173 -0.717695,-0.0218 -0.917222,-0.11166 z m 1.339266,-0.59733 c 0.631774,-0.28683 0.838559,-0.88973 0.497182,-1.44958 -0.141713,-0.23241 -0.273231,-0.31137 -0.655017,-0.39325 -0.900736,-0.19317 -1.566387,0.19212 -1.566387,0.90667 0,0.43588 0.209557,0.72468 0.6813,0.9389 0.473293,0.21493 0.564024,0.21469 1.042922,-0.003 z m -2.189015,-1.89289 c 0.08905,-0.10729 0.01551,-0.51174 -0.36482,-2.0072 -0.261979,-1.03005 -0.515129,-1.91266 -0.562549,-1.96137 -0.101208,-0.10399 -0.234331,-0.0318 -1.883952,1.02216 -2.962096,1.89251 -3.552973,2.28421 -3.552973,2.35537 0,0.11593 0.216438,0.14483 3.045405,0.40673 1.446566,0.13393 2.64742,0.26041 2.668572,0.28109 0.09455,0.0924 0.549473,0.0248 0.650317,-0.0968 z m -1.473186,-0.28617 c -0.07614,-0.0165 -0.459037,-0.0566 -0.850887,-0.0892 l -0.712454,-0.0592 -0.06147,-0.33845 c -0.03382,-0.18615 -0.159633,-0.53433 -0.279605,-0.77374 -0.119971,-0.23941 -0.217618,-0.46781 -0.216994,-0.50756 6.31e-4,-0.0398 0.317262,-0.25544 0.703652,-0.47929 l 0.702527,-0.407 0.171,0.22243 c 0.09405,0.12234 0.172174,0.28473 0.173622,0.36086 0.0014,0.0761 0.06463,0.25737 0.140478,0.40276 0.07582,0.14538 0.137857,0.36547 0.137857,0.48908 0,0.26599 0.222709,0.7326 0.488304,1.02308 l 0.18986,0.20763 -0.223724,-0.0107 c -0.123052,-0.006 -0.286019,-0.0242 -0.362151,-0.0407 z m 4.635029,-0.38695 c 0.172222,-0.19634 1.48745,-2.39604 2.637871,-4.41174 0.814533,-1.42716 1.08255,-2.07108 0.862036,-2.07108 -0.05584,0 -0.692085,0.25366 -1.413917,0.56368 -0.721819,0.31003 -2.165285,0.89278 -3.2077,1.29501 -1.042422,0.40225 -1.931358,0.7674 -1.975424,0.81146 -0.07582,0.0758 0.668402,3.00592 0.883249,3.47746 0.06765,0.1484 0.2035,0.234 0.43073,0.27134 0.182575,0.03 0.498067,0.0885 0.701093,0.13008 0.613915,0.1256 0.930806,0.10621 1.082062,-0.0662 z m -0.851347,-0.54944 c -0.289929,-0.10549 -0.645995,-0.5273 -0.645995,-0.76525 0,-0.13306 0.137549,-0.4679 0.305668,-0.74408 1.237915,-2.03352 1.676171,-2.72571 1.763081,-2.78466 0.120774,-0.0819 1.27158,-0.0933 1.476678,-0.0146 0.08029,0.0308 0.14598,0.10053 0.14598,0.15493 0,0.0968 -1.596643,2.91401 -2.142459,3.78027 -0.277491,0.4404 -0.484071,0.52583 -0.902953,0.37341 z m -9.678717,2.12198 c -0.470494,-0.23178 -0.674755,-0.62037 -0.631794,-1.20197 0.03842,-0.5206 0.205057,-0.77862 0.652012,-1.00975 0.400069,-0.20688 0.417543,-0.0582 0.03444,0.29273 -0.297579,0.27262 -0.342708,0.36834 -0.342708,0.72687 0,0.77753 0.640308,1.21408 1.47134,1.00315 0.277361,-0.0704 0.349569,-0.0652 0.31576,0.023 -0.125144,0.32611 -0.981527,0.42096 -1.499037,0.16601 z m 19.868393,-0.0657 c -0.38757,-0.16875 -0.685176,-0.57103 -0.68023,-0.91948 l 0.0041,-0.28748 0.181833,0.3444 c 0.326387,0.61817 1.003461,0.79639 1.57285,0.41401 0.574137,-0.38558 0.430716,-1.11831 -0.258165,-1.31892 -0.537316,-0.15647 -0.519794,-0.35401 0.02593,-0.29249 1.1407,0.12856 1.321182,1.49717 0.264881,2.00853 -0.437289,0.21168 -0.713757,0.22448 -1.1112,0.0515 z m -15.449919,-5.78302 c -0.86218,-0.76686 -2.385737,-1.2838 -3.783689,-1.2838 -1.336578,0 -2.835629,0.48214 -3.878037,1.24729 -0.240869,0.17681 -0.46353,0.32146 -0.494794,0.32146 -0.301956,0 0.494808,-0.8664 1.172849,-1.27536 0.910856,-0.54937 1.720957,-0.77037 3.017057,-0.82306 0.989959,-0.0403 1.257934,-0.0188 1.873311,0.15004 0.881307,0.24176 1.591257,0.59323 2.349272,1.16301 0.654399,0.49189 0.836034,0.73613 0.6115,0.82229 -0.281758,0.10812 -0.457246,0.043 -0.867469,-0.32187 z m -0.03012,-2.08957 c -0.448609,-0.14948 -0.985027,-0.56231 -0.985027,-0.75809 0,-0.0581 0.106656,-0.21225 0.237021,-0.34262 0.230763,-0.23076 0.259386,-0.23538 1.084347,-0.17537 0.562502,0.0409 1.173055,0.0165 1.816326,-0.0727 1.046004,-0.14507 1.553613,-0.11496 1.634932,0.097 0.07809,0.20351 -0.140368,0.35378 -0.85051,0.58504 -0.355297,0.1157 -0.898616,0.34904 -1.207371,0.51851 -0.635087,0.34859 -1.0277,0.38226 -1.729718,0.14832 z m 12.975159,-0.20931 c 0.292344,-0.73373 0.282986,-0.94068 -0.0876,-1.93798 -0.03163,-0.0851 0.02813,-0.062 0.155008,0.0598 0.308693,0.29638 0.489169,1.07885 0.334284,1.44939 -0.06675,0.15971 -0.196873,0.35268 -0.28912,0.42881 -0.149095,0.12304 -0.161602,0.12304 -0.112576,0 z"
         id="path3"
         sodipodi:nodetypes="csssssssscsssssssssssssssssssssssssssssssssssssscssscsssssssssssssssccsssssssssssssssssssscssssssscssssscssssssssssssssssssssssssssssssscsssssssssssssssssssssssssssssssssssssssssscssssssssssscssssssscssssscssssssssscssssccsssssssssscsssscssssscsssssssssscssssssssssssssssssscssssssssssssssssssssssssssssssss"
         inkscape:label="eBike" /></g></g><g
     inkscape:groupmode="layer"
     id="layer2"
     inkscape:label="Layer 2"
     transform="translate(-0.01091734,-18.166633)"><path
       style="display:inline;fill:#6e7c7c;stroke:#6e7c7c;stroke-width:0.466081;stroke-dasharray:none"
       d="m 1.7496492,54.302707 c 1.5272495,-1.118385 4.8507205,-3.903807 5.6172312,-4.70783 0.2985262,-0.313122 0.5427623,-0.524864 0.5427623,-0.470536 0,0.0543 -0.1322983,0.478997 -0.2939989,0.943661 -0.1617132,0.464664 -0.2460712,0.7957 -0.1874807,0.735668 1.6041503,-1.64413 5.1277789,-5.49711 5.7036659,-6.236829 l 0.472789,-0.607278 -0.982224,3.261827 c -0.540222,1.794021 -1.264579,4.133575 -1.609685,5.199012 -0.345094,1.065408 -0.608207,1.937129 -0.584676,1.937129 0.02352,0 0.515056,-0.618605 1.092275,-1.37467 0.577232,-0.756064 1.869049,-2.438205 2.870728,-3.738096 1.622713,-2.105844 2.236616,-3.040106 3.588859,-5.461691 l 0.374963,-0.671472 -0.54905,-0.01097 c -0.301971,-0.0055 -0.701342,-0.0791 -0.887491,-0.160695 l -0.338454,-0.148291 0.244714,-0.366898 c 0.134587,-0.201763 0.838822,-1.423043 1.564952,-2.713893 1.057265,-1.879522 1.340725,-2.279633 1.423096,-2.008904 0.05659,0.186052 0.301154,1.07773 0.543529,1.981726 0.242374,0.903998 0.449574,1.669875 0.46044,1.701958 0.01134,0.03198 0.322558,-0.21141 0.692653,-0.540958 0.370095,-0.329604 0.697935,-0.544406 0.728531,-0.477345 0.08828,0.193496 -1.93648,4.494133 -3.374253,7.167371 -0.721904,1.342229 -1.2912,2.487184 -1.265117,2.544378 0.05369,0.117696 0.773716,-0.227949 2.068791,-0.993412 0.486106,-0.287322 0.88383,-0.485392 0.88383,-0.44016 0,0.103919 -1.076078,4.575334 -1.177225,4.891679 -0.382834,1.197355 0.545401,0.415519 3.266263,-2.751132 0.771755,-0.898209 3.726063,-5.362022 3.653714,-5.520594 -0.04264,-0.09344 -2.033742,0.932029 -2.769882,1.426682 -0.279877,0.187983 -0.507838,0.273153 -0.506582,0.188809 0.0013,-0.08434 0.203692,-0.465683 0.449864,-0.847712 0.384721,-0.597024 1.803504,-3.310503 5.319297,-10.173381 0.610559,-1.191815 0.770951,-1.41257 0.706462,-0.9723 -0.160958,1.098843 -0.454806,4.209071 -0.397661,4.209071 0.03181,0 0.568881,-1.034729 1.193612,-2.299394 2.235484,-4.525389 5.903169,-11.476938 5.903169,-11.18857 0,0.246969 -0.854667,9.546203 -0.921345,10.024595 -0.0332,0.237872 -0.162392,0.410915 -0.306926,0.410915 -0.138612,0 -0.457032,0.40576 -0.715906,0.912294 -1.066521,2.086826 -3.411767,6.307859 -4.40375,7.92597 -1.185652,1.933987 -2.437239,4.153256 -2.394783,4.246309 0.0337,0.07387 3.324578,-3.140355 4.109324,-4.013619 0.309342,-0.344239 0.562431,-0.574531 0.562431,-0.51177 0,0.06284 -0.120481,0.92332 -0.267828,1.912378 -0.147301,0.98903 -0.267828,1.831451 -0.267828,1.872025 0,0.04052 0.831603,-1.187929 1.848009,-2.729937 1.016394,-1.542034 1.92525,-2.90488 2.019683,-3.028557 0.140132,-0.183573 0.297632,0.181918 0.857044,1.98848 0.376949,1.217311 0.710611,2.216484 0.741484,2.220398 0.05935,0.0083 0.866024,-7.650584 0.858743,-8.152404 -0.0063,-0.45091 0.07231,-0.372051 0.726997,0.726599 0.33433,0.561081 0.953112,1.557911 1.375069,2.215189 0.72344,1.126903 0.761985,1.159125 0.675827,0.564803 -0.703757,-4.854883 -1.736335,-11.450478 -1.83229,-11.703868 -0.06778,-0.179162 -0.100604,-0.375606 -0.07281,-0.436467 0.02779,-0.06091 0.3108,0.602041 0.628932,1.47321 0.318131,0.871142 1.399026,3.74154 2.401975,6.378698 1.002963,2.637129 2.088712,5.510313 2.412778,6.384844 0.324068,0.87456 0.623222,1.596197 0.664786,1.603668 0.09934,0.01654 -0.378131,-2.435559 -1.47252,-7.566185 l -0.89056,-4.175145 0.500972,0.799146 c 0.275537,0.439526 1.007162,1.557663 1.625844,2.484759 1.117666,1.674809 1.131727,1.707802 2.196171,5.153642 0.934034,3.023706 2.845452,8.547029 2.90935,8.407007 0.0126,-0.02756 -0.04904,-1.248623 -0.136323,-2.714555 -0.08728,-1.465933 -0.139504,-2.707582 -0.115956,-2.759209 0.04176,-0.09151 2.180352,2.134484 3.215785,3.346999 0.283987,0.332552 0.538095,0.556973 0.56468,0.498704 0.02653,-0.05815 -0.796328,-1.819295 -1.828693,-3.913399 -1.032363,-2.094102 -1.877033,-3.895289 -1.877033,-4.00262 0,-0.107222 0.313364,-0.752427 0.696349,-1.433491 l 0.696351,-1.238286 7.04e-4,-2.130956 6.92e-4,-2.130955 1.510071,3.467809 c 0.830547,1.907278 1.599963,3.573238 1.709839,3.702124 0.166767,0.195701 0.229169,0.107499 0.377765,-0.532746 0.09797,-0.421886 0.193241,-0.805071 0.211866,-0.851571 0.01862,-0.04658 0.515773,0.851654 1.104776,1.995839 l 1.070897,2.080376 -1.412998,0.127895 c -0.777151,0.07029 -1.355123,0.14967 -1.284372,0.17613 0.0708,0.02757 0.712874,0.919984 1.426944,1.98542 1.71624,2.560724 3.883436,5.576603 4.007309,5.576603 0.02352,0 -0.09772,-0.799173 -0.269299,-1.775993 -0.171622,-0.976793 -0.312033,-1.820123 -0.312033,-1.874064 0,-0.05402 0.686982,0.428252 1.526609,1.071528 0.83964,0.643302 1.564008,1.169625 1.609708,1.169653 0.04578,2.8e-5 0.01572,-0.290519 -0.06677,-0.645646 -0.417066,-1.796886 -0.41679,-1.796996 1.129186,-0.391593 0.784092,0.712817 1.491496,1.359483 1.571994,1.437074 0.120732,0.116322 0.123241,0.04631 0.01434,-0.39978 -0.118969,-0.487404 -0.112301,-0.523429 0.06791,-0.364691 0.623259,0.549007 6.832046,5.043525 6.865599,4.969987 0.02213,-0.04851 -0.359795,-0.495205 -0.84872,-0.992697 C 69.480625,52.915634 60.703584,43.200164 60.136048,42.437209 58.342216,40.025686 56.670255,38.040183 56.433378,38.0401 c -0.182402,-2.8e-5 -0.667641,-0.677371 -1.446262,-2.0188 -0.644475,-1.110282 -1.807704,-3.083989 -2.584955,-4.385974 l -1.413198,-2.367255 -1.900162,1.979245 c -1.045091,1.088562 -1.917378,1.979219 -1.938405,1.979219 -0.106011,0 0.249128,1.049367 0.996586,2.945151 0.456064,1.156754 0.902419,2.291374 0.991897,2.521391 0.08941,0.230155 -0.774158,-0.952398 -1.919202,-2.627649 -1.938091,-2.835531 -4.491957,-7.2134 -8.485558,-14.546068 l -1.580495,-2.901959 -1.043055,1.568771 c -0.573672,0.862819 -1.501028,2.279633 -2.060779,3.14846 -1.377434,2.137984 -4.289185,6.470704 -6.174356,9.187493 -0.851322,1.226847 -2.049939,2.996694 -2.663603,3.932995 -0.613664,0.936275 -1.169768,1.702317 -1.23578,1.702317 -0.06602,0 -0.958908,-1.371887 -1.984192,-3.04868 -2.134174,-3.490217 -1.812331,-3.363866 -3.352812,-1.316511 -1.389279,1.846391 -3.150955,4.002208 -6.443854,7.885535 -1.561418,1.841402 -3.2641508,3.875223 -3.7838479,4.5196 C 7.8916468,46.841759 5.7945739,49.20954 3.7511732,51.4591 1.7077728,53.708689 0.13232001,55.480906 0.25015574,55.397416 0.36799097,55.313906 1.042925,54.821975 1.74999,54.304196 Z"
       id="path2"
       inkscape:label="mtn-path" /></g></svg>
